<?xml version="1.0" encoding="UTF-8" standalone="no"?>
<!-- Created with Inkscape (http://www.inkscape.org/) -->

<svg
   xmlns:dc="http://purl.org/dc/elements/1.1/"
   xmlns:cc="http://creativecommons.org/ns#"
   xmlns:rdf="http://www.w3.org/1999/02/22-rdf-syntax-ns#"
   xmlns:svg="http://www.w3.org/2000/svg"
   xmlns="http://www.w3.org/2000/svg"
   xmlns:sodipodi="http://sodipodi.sourceforge.net/DTD/sodipodi-0.dtd"
   xmlns:inkscape="http://www.inkscape.org/namespaces/inkscape"
   version="1.0"
   width="300"
   height="300"
   id="svg2"
   inkscape:version="0.48.3.1 r9886"
   sodipodi:docname="dessin.svg">
  <metadata
     id="metadata2990">
    <rdf:RDF>
      <cc:Work
         rdf:about="">
        <dc:format>image/svg+xml</dc:format>
        <dc:type
           rdf:resource="http://purl.org/dc/dcmitype/StillImage" />
      </cc:Work>
    </rdf:RDF>
  </metadata>
  <sodipodi:namedview
     pagecolor="#ffffff"
     bordercolor="#666666"
     borderopacity="1"
     objecttolerance="10"
     gridtolerance="10"
     guidetolerance="10"
     inkscape:pageopacity="0"
     inkscape:pageshadow="2"
     inkscape:window-width="1215"
     inkscape:window-height="1000"
     id="namedview2988"
     showgrid="false"
     inkscape:zoom="2.2250293"
     inkscape:cx="88.922854"
     inkscape:cy="149.15994"
     inkscape:window-x="65"
     inkscape:window-y="24"
     inkscape:window-maximized="1"
     inkscape:current-layer="svg2" />
  <defs
     id="defs5" />
  <path
     style="fill:#000000"
     d="M 126.07117,285.29673 C 113.30721,282.33669 98.678418,283.51422 89.029412,272.75458 79.23399,265.38789 76.202304,253.2976 75.842897,241.65289 c -1.9961,-29.38819 -2.852746,-59.127 0.97708,-88.39761 2.675865,-16.95867 21.310882,-23.64646 36.146493,-25.98845 22.17718,-3.30861 44.86935,-5.2635 67.24065,-3.04747 13.45449,0.69242 23.8352,11.59885 26.01595,24.50474 4.91706,23.90535 6.41536,48.46811 6.91794,72.83075 0.31317,18.66081 -3.9074,38.92874 -18.99881,51.39081 -12.13011,13.49497 -31.32967,13.84793 -48.0983,14.33888 -6.68147,-0.0488 -13.50255,-0.13922 -19.97273,-1.98781 z m 54.26693,-19.31739 c 13.28101,-6.78192 14.7005,-23.31442 15.77182,-36.49182 1.05032,-26.69805 2.22021,-54.05253 -4.6364,-80.11937 -4.25171,-9.89799 -16.39677,-13.96543 -26.4745,-14.63378 -20.8006,0.64112 -42.44096,2.03968 -61.63479,10.77781 -10.926899,4.53464 -12.202496,17.47553 -16.536436,26.90694 -2.188801,25.66587 -1.053403,51.82521 4.063462,77.09882 2.090142,12.98126 14.547044,23.14627 27.756074,22.17533 17.51173,0.0333 35.27312,1.46156 52.61171,-1.46256 3.27435,-0.80723 6.28365,-2.40026 9.07906,-4.25137 z m -50.02,-30.13714 c -10.88674,-2.27211 -19.54319,-10.81046 -19.21125,-22.38122 -2.31806,-15.14307 -3.65794,-35.00295 10.9221,-44.62992 11.6359,-6.43999 25.89296,-10.5224 39.12574,-7.38317 14.52617,4.89181 16.10313,22.60224 15.99258,35.68637 -0.46856,14.15947 -0.30328,32.70551 -14.81035,40.22471 -10.1457,4.83902 -21.95273,2.08791 -32.01882,-1.51677 z m 29.62432,-13.20146 c 1.25303,-14.43064 2.30015,-29.15061 0.55196,-43.57821 -2.66832,-11.88807 -19.18017,-9.09883 -27.4313,-5.02242 -12.00897,7.54616 -13.09983,23.6835 -11.73578,36.42548 3.30416,12.53345 18.68609,15.25307 29.84268,14.32412 2.98238,-0.27553 6.18381,-0.45566 8.77244,-2.14897 z M 50.341599,113.65836 C 51.008109,102.0758 64.830664,96.936465 73.196927,91.004315 84.578672,85.916775 94.028481,77.488542 105.24105,72.74294 c 8.88691,-6.209594 19.43303,-10.895804 27.58763,-17.575998 3.30555,-12.147854 -1.89211,-25.408338 2.60478,-37.291095 12.18296,-12.3709313 16.20647,8.506278 14.45095,17.949642 -0.84002,11.351098 0.42556,27.56607 14.84802,29.044619 12.56473,10.183334 28.61424,15.168558 42.81944,22.78034 9.66522,5.223546 20.72301,8.752974 28.70411,16.488182 4.55882,9.03765 -5.33819,17.97396 -11.31858,7.79111 -13.29537,-7.1807 -26.2679,-14.902205 -39.25735,-22.618214 -14.32747,-7.913696 -28.99382,-15.18679 -43.52712,-22.709787 -10.49423,4.75586 -21.7974,8.835435 -29.62891,17.679529 -12.10271,4.272411 -21.416731,14.034971 -33.384983,18.653002 -7.803902,3.85332 -20.412801,21.7603 -28.797438,10.72409 z"
     id="path3053"
     inkscape:connector-curvature="0" />
</svg>
