<?xml version="1.0" encoding="UTF-8" standalone="no"?>
<!-- Created with Inkscape (http://www.inkscape.org/) -->

<svg
   xmlns:dc="http://purl.org/dc/elements/1.1/"
   xmlns:cc="http://creativecommons.org/ns#"
   xmlns:rdf="http://www.w3.org/1999/02/22-rdf-syntax-ns#"
   xmlns:svg="http://www.w3.org/2000/svg"
   xmlns="http://www.w3.org/2000/svg"
   xmlns:sodipodi="http://sodipodi.sourceforge.net/DTD/sodipodi-0.dtd"
   xmlns:inkscape="http://www.inkscape.org/namespaces/inkscape"
   width="300"
   height="300"
   id="svg2"
   version="1.1"
   inkscape:version="0.48.4 r9939"
   sodipodi:docname="image-seal.svg">
  <defs
     id="defs4" />
  <sodipodi:namedview
     id="base"
     pagecolor="#ffffff"
     bordercolor="#666666"
     borderopacity="1.0"
     inkscape:pageopacity="0.0"
     inkscape:pageshadow="2"
     inkscape:zoom="1.9351156"
     inkscape:cx="211.18582"
     inkscape:cy="158.19918"
     inkscape:document-units="px"
     inkscape:current-layer="layer1"
     showgrid="false"
     inkscape:window-width="1215"
     inkscape:window-height="1000"
     inkscape:window-x="65"
     inkscape:window-y="24"
     inkscape:window-maximized="1" />
  <metadata
     id="metadata7">
    <rdf:RDF>
      <cc:Work
         rdf:about="">
        <dc:format>image/svg+xml</dc:format>
        <dc:type
           rdf:resource="http://purl.org/dc/dcmitype/StillImage" />
        <dc:title />
      </cc:Work>
    </rdf:RDF>
  </metadata>
  <g
     inkscape:label="Calque 1"
     inkscape:groupmode="layer"
     id="layer1"
     transform="translate(0,-752.36218)">
    <path
       style="fill:#000000"
       d="m 231.43309,1019.317 c -15.07099,-35.15924 -38.29707,-46.01712 -98.43526,-46.01712 -65.508899,0 -68.112753,-4.07708 -67.994438,-106.46494 0.04937,-44.97758 2.191511,-85.07537 4.754508,-89.10616 2.563058,-4.03079 12.422021,-10.27982 21.90888,-13.88673 22.1215,-8.41055 133.71102,-8.73278 133.71102,-0.38636 0,3.6785 -23.52493,6.17188 -58.23108,6.17188 -32.02712,0 -65.35528,2.70859 -74.062568,6.01913 l -15.831491,6.01912 0,82.23877 c 0,55.7343 2.386914,84.62568 7.406257,89.64502 4.119113,4.11912 23.979052,7.42157 44.746132,7.4407 47.40042,0.0432 77.91611,8.51861 94.59352,26.27092 16.49762,17.56087 34.85131,60.10097 25.93023,60.10097 -3.56068,0 -11.88377,-12.6204 -18.49571,-28.0454 z M 101.94019,896.95649 c 0,-57.34424 6.91608,-71.78175 34.3862,-71.78175 9.20881,0 14.98884,-3.57 14.98884,-9.25782 0,-6.99477 -7.54339,-9.25782 -30.8594,-9.25782 -16.97267,0 -30.859407,-2.77734 -30.859407,-6.17188 0,-3.74053 26.744797,-6.17188 67.890687,-6.17188 41.14589,0 67.89069,2.43135 67.89069,6.17188 0,3.39454 -13.88673,6.17188 -30.8594,6.17188 -23.31601,0 -30.85941,2.26305 -30.85941,9.25782 0,5.45811 5.69955,9.29664 13.88673,9.35232 28.01615,0.19071 32.27579,8.51873 34.55945,67.56721 1.45959,37.74217 -0.037,55.77591 -4.62891,55.77591 -3.73232,0 -6.80499,-10.41505 -6.82814,-23.14456 -0.037,-19.25225 -3.47267,-25.47993 -20.44053,-37.03128 -25.01253,-17.02797 -25.14208,-17.02902 -47.6579,-0.38204 -13.72861,10.15003 -18.26574,18.49139 -18.26574,33.58108 0,11.04217 -2.77735,21.79316 -6.17188,23.8911 -3.92946,2.42851 -6.17188,-15.21868 -6.17188,-48.56992 z m 49.37504,-47.92447 c 0,-9.81347 -3.46779,-11.93438 -16.97267,-10.38048 -14.84084,1.70763 -17.21862,4.94991 -18.93089,25.8134 l -1.95821,23.86049 18.93089,-13.47995 c 10.41196,-7.41397 18.93088,-19.03006 18.93088,-25.81346 z m 46.71805,3.42799 c -2.7068,-10.78474 -8.00993,-14.94151 -19.06216,-14.94151 -21.11999,0 -20.23038,19.91426 1.66054,37.17213 15.03847,11.85575 17.21079,12.2028 19.06223,3.04576 1.1492,-5.68418 0.40179,-17.05852 -1.66061,-25.27638 z"
       id="path3132"
       inkscape:connector-curvature="0" />
  </g>
</svg>
