<?xml version="1.0" encoding="UTF-8" standalone="no"?>
<!-- Created with Inkscape (http://www.inkscape.org/) -->

<svg
   xmlns:dc="http://purl.org/dc/elements/1.1/"
   xmlns:cc="http://creativecommons.org/ns#"
   xmlns:rdf="http://www.w3.org/1999/02/22-rdf-syntax-ns#"
   xmlns:svg="http://www.w3.org/2000/svg"
   xmlns="http://www.w3.org/2000/svg"
   xmlns:sodipodi="http://sodipodi.sourceforge.net/DTD/sodipodi-0.dtd"
   xmlns:inkscape="http://www.inkscape.org/namespaces/inkscape"
   width="300"
   height="300"
   id="svg2"
   version="1.1"
   inkscape:version="0.92.4 (5da689c313, 2019-01-14)"
   sodipodi:docname="image-bigseal.svg">
  <defs
     id="defs4" />
  <sodipodi:namedview
     id="base"
     pagecolor="#ffffff"
     bordercolor="#666666"
     borderopacity="1.0"
     inkscape:pageopacity="0.0"
     inkscape:pageshadow="2"
     inkscape:zoom="1.4142136"
     inkscape:cx="330.06784"
     inkscape:cy="273.83995"
     inkscape:document-units="px"
     inkscape:current-layer="layer1"
     showgrid="false"
     inkscape:window-width="1872"
     inkscape:window-height="1016"
     inkscape:window-x="48"
     inkscape:window-y="27"
     inkscape:window-maximized="1" />
  <metadata
     id="metadata7">
    <rdf:RDF>
      <cc:Work
         rdf:about="">
        <dc:format>image/svg+xml</dc:format>
        <dc:type
           rdf:resource="http://purl.org/dc/dcmitype/StillImage" />
        <dc:title />
      </cc:Work>
    </rdf:RDF>
  </metadata>
  <g
     inkscape:label="Calque 1"
     inkscape:groupmode="layer"
     id="layer1"
     transform="translate(0,-752.36218)">
    <path
       style="fill:#000000;stroke-width:5.98225164"
       d="m 120.07225,762.36218 c -3.30393,0 -6.00781,8.99613 -6.00781,19.99024 0,10.10371 -0.0352,23.16015 -0.0352,23.16015 0,0 -12.32093,0.33997 -19.48827,2.37696 -16.68123,4.74087 -20.31084,9.2436 -24.9414,30.93359 -3.53871,16.5754 -3.27771,27.50954 0.75195,31.50586 4.22387,4.18892 7.47063,-2.4741 10.28906,-21.11328 4.63428,-30.64827 16.886435,-37.63959 53.89648,-30.75391 19.13833,3.56064 20.52565,5.43483 22.53125,30.44336 1.51398,18.87778 -4.76282,31.8768 2.31445,32.60742 4.42344,0.45664 5.69756,-2.22336 7.91797,-21.19531 1.98759,-38.07911 -5.69446,-47.09867 -24.70117,-52.72656 -5.27391,-1.5616 -16.80664,-2.17188 -16.80664,-2.17188 l -0.22071,-11.22265 17.74024,2.10937 c 24.54346,-2.90503 25.00866,-10.11328 0.78906,-10.11328 -8.83512,0 -17.85938,-1.67578 -17.85938,-1.67578 0,0 -0.16211,-6.81246 -0.16211,-10.23828 0,-6.55319 -2.70388,-11.91602 -6.00781,-11.91602 z m 1.50195,71.67969 c -28.02502,-0.16836 -42.3846,7.14714 -25.18749,12.83203 7.56091,2.16978 13.89526,0.27255 21.3496,-1.10742 10.61492,-0.43405 17.46224,0.81106 25.69532,-4.22461 8.03848,-6.07076 4.3341,-7.34272 -21.85743,-7.5 z m 72.97852,1.0332 c -5.00861,-0.0619 -8.40234,0.87491 -8.40234,3.12891 0,3.2122 8.78563,8.32364 19.52343,11.35937 15.63591,4.42049 19.9093,9.03925 21.45704,23.20117 1.04558,9.56711 -2.79688,14.50391 -2.79688,14.50391 0,0 -0.49995,-3.41486 -3.21093,-6.83398 -7.6393,-9.63468 -17.52121,-13.04228 -33.47071,-11.54297 -14.2077,1.33554 -7.49255,12.62109 7.50977,12.62109 13.0437,0 17.79296,12.71289 17.79296,12.71289 0,0 -11.56991,6.8732 -19.29492,8.57813 -9.08582,2.00527 -20.86814,4.79733 -26.18358,6.20507 -9.46652,3.25562 6.23805,8.27265 12.17577,8.24805 9.4547,1.87369 21.47354,-1.50182 26.29298,-3.33594 3.33055,-1.26746 9.291,-5.60937 9.291,-5.60937 0,0 1.83121,29.18452 3.55079,48.80078 2.2432,25.58943 5.57893,55.23972 7.41406,65.88872 1.83513,10.6489 5.73955,19.3613 8.67579,19.3613 6.8413,0 6.73613,-5.2564 -1.55275,-77.54689 -2.56207,-22.34489 -2.4042,-37.80234 -3.8867,-48.13282 -1.45615,-10.1469 -1.91211,-16.55468 -1.91211,-16.55468 0,0 8.91793,-6.50165 9.97069,-9.54688 4.70394,-13.60645 2.70641,-37.40859 -5.36133,-44.04883 -7.72481,-6.35798 -26.56307,-11.32075 -37.58203,-11.45703 z m -64.05468,13.74024 c -6.21887,-0.0142 -4.41797,6.59366 -4.41797,10.65429 0,17.09817 22.09642,29.26482 25.23632,22.04297 2.97825,-6.85008 -12.45804,-14.20165 -13.50194,-22.86914 -0.52294,-4.3418 -1.20468,-9.81412 -7.31641,-9.82812 z m -24.19726,2.0996 c -1.28944,0.10575 -2.65289,0.95327 -3.51368,2.9961 -7.38496,22.65282 -27.03503,27.23452 -42.7871,36.68945 0,5.10065 17.16256,2.959 32.75781,-4.08789 14.08637,-6.36499 17.6593,-13.3994 16.91405,-33.29883 -0.17868,-1.34537 -1.71325,-2.43479 -3.37108,-2.29883 z m -7.519535,47.44532 c -9.374405,-0.014 -26.318435,8.70817 -29.562495,17.16211 -2.46507,6.42386 -5.44729,84.94986 -4.11914,108.45316 0.23145,4.0958 3.1023,7.4453 6.3789,7.4453 3.51078,0 5.99523,-21.4076 6.04883,-52.12698 0.09615,-54.94768 2.24013,-62.47116 19.646475,-68.90234 5.941715,-2.19532 9.197355,-6.59137 7.234375,-9.76758 -0.97118,-1.57139 -3.00212,-2.25974 -5.626945,-2.26367 z m 42.978505,1.99804 c -11.72271,0 -11.52991,0.8503 3.31641,14.60938 14.67754,13.6027 15.76367,18.11665 15.76367,65.53125 0,29.9769 2.45006,50.9219 5.95703,50.9219 3.51918,0 5.95703,-21.4017 5.95703,-52.29104 0,-57.07335 -8.53719,-78.77149 -30.99414,-78.77149 z m -41.46289,18.61328 c -1.227485,-0.0162 -2.948945,2.3889 -5.59374,6.9336 -5.46537,9.39126 -2.73275,40.8707 4.634765,53.38867 5.348655,9.08773 31.454625,4.17188 37.462885,-7.05469 7.86336,-14.69261 7.99208,-46.21906 0.20898,-51.02929 -3.2766,-2.02505 -5.95703,2.02359 -5.95703,8.99804 0,9.74292 -3.10553,12.24002 -13.4043,10.77735 -7.37234,-1.04702 -13.73916,-5.25583 -14.14843,-9.35157 -0.862,-8.61981 -1.62492,-12.64131 -3.20313,-12.66211 z m 18.6543,35.00391 c 7.97708,0 10.63129,2.85723 8.29884,8.93555 -1.88607,4.9149 -7.16416,8.93554 -11.72853,8.93554 -4.56429,0 -8.29882,-4.02064 -8.29882,-8.93554 0,-4.91704 5.27528,-8.93555 11.72851,-8.93555 z"
       id="path151"
       inkscape:connector-curvature="0" />
  </g>
</svg>
