<?xml version="1.0" encoding="UTF-8" standalone="no"?>
<!-- Created with Inkscape (http://www.inkscape.org/) -->

<svg
   xmlns:dc="http://purl.org/dc/elements/1.1/"
   xmlns:cc="http://creativecommons.org/ns#"
   xmlns:rdf="http://www.w3.org/1999/02/22-rdf-syntax-ns#"
   xmlns:svg="http://www.w3.org/2000/svg"
   xmlns="http://www.w3.org/2000/svg"
   xmlns:sodipodi="http://sodipodi.sourceforge.net/DTD/sodipodi-0.dtd"
   xmlns:inkscape="http://www.inkscape.org/namespaces/inkscape"
   width="300"
   height="300"
   id="svg2"
   version="1.1"
   inkscape:version="0.48.4 r9939"
   sodipodi:docname="image-seal.svg">
  <defs
     id="defs4" />
  <sodipodi:namedview
     id="base"
     pagecolor="#ffffff"
     bordercolor="#666666"
     borderopacity="1.0"
     inkscape:pageopacity="0.0"
     inkscape:pageshadow="2"
     inkscape:zoom="2.0018442"
     inkscape:cx="176.81199"
     inkscape:cy="159.18409"
     inkscape:document-units="px"
     inkscape:current-layer="layer1"
     showgrid="false"
     inkscape:window-width="1215"
     inkscape:window-height="1000"
     inkscape:window-x="65"
     inkscape:window-y="24"
     inkscape:window-maximized="1" />
  <metadata
     id="metadata7">
    <rdf:RDF>
      <cc:Work
         rdf:about="">
        <dc:format>image/svg+xml</dc:format>
        <dc:type
           rdf:resource="http://purl.org/dc/dcmitype/StillImage" />
        <dc:title />
      </cc:Work>
    </rdf:RDF>
  </metadata>
  <g
     inkscape:label="Calque 1"
     inkscape:groupmode="layer"
     id="layer1"
     transform="translate(0,-752.36218)">
    <path
       style="fill:#000000"
       d="M 110.37402,1023.9879 C 94.395438,988.77 94.367138,964.42124 110.25517,921.95588 c 12.51965,-33.46181 11.38602,-57.49759 -2.47824,-52.54521 -3.89723,1.39209 -6.3566,8.89735 -5.46534,16.67836 1.20123,10.4874 -0.88435,13.18611 -8.061922,10.43181 -13.03046,-5.00024 -21.83059,19.41637 -21.95315,60.9108 -0.0503,17.93285 -2.83939,36.84998 -6.19216,42.038 -9.75599,15.09626 -7.13865,-68.38261 3.03967,-96.948 7.55783,-21.21118 7.51954,-27.06011 -0.27607,-42.13509 -12.8891,-24.92473 -11.31647,-35.2214 7.23618,-47.37757 12.69403,-8.31742 15.56039,-14.31238 12.9894,-27.16721 -1.81436,-9.0721 -0.69802,-20.60622 2.48088,-25.63136 4.10029,-6.48156 5.80781,-2.08848 5.8761,15.11812 0.078,19.58397 2.02528,23.51447 10.113232,20.41078 5.50936,-2.11413 17.53611,-5.43949 26.72613,-7.38968 14.26433,-3.0271 15.32898,-2.33304 7.27642,4.74316 -8.85301,7.77963 -11.31313,26.4517 -11.89891,90.31137 -0.12828,13.98418 -4.57803,35.82439 -9.88841,48.53389 -12.38269,29.63607 -12.21995,54.57866 0.5647,86.53075 14.03367,35.0736 5.56577,39.7611 -9.97004,5.5191 z M 97.867638,859.42352 c -3.71494,-27.01439 -9.52916,-42.40072 -15.30477,-40.50134 -10.21611,3.35957 -12.4108,28.77863 -3.42013,39.61177 7.595,9.15141 19.94172,9.73794 18.7249,0.88957 z m 24.833542,-28.69531 c 0,-9.79962 -1.69161,-19.509 -3.75908,-21.57647 -6.68361,-6.68367 -20.686152,2.42673 -17.85362,11.61605 1.51094,4.90176 4.07332,13.15706 5.69405,18.34507 5.02973,16.09963 15.91865,10.3642 15.91865,-8.38465 z m 31.58362,140.61321 c -4.22801,-5.09444 -7.68732,-19.3201 -7.68732,-31.61254 0,-27.03257 10.27007,-40.87526 30.32598,-40.87526 9.87465,0 15.1048,-3.73663 15.40344,-11.00488 0.24902,-6.05268 0.87586,-35.76585 1.39372,-66.02926 0.51754,-30.26341 1.79926,-55.02438 2.84768,-55.02438 1.04842,0 4.79373,7.59487 8.32302,16.87752 4.51999,11.88847 4.27216,22.05522 -0.83838,34.39307 -5.40094,13.03914 -5.45427,22.68149 -0.20878,37.72918 5.24159,15.03593 5.21009,21.34864 -0.12325,24.64464 -10.63216,6.57104 -0.62131,18.41411 15.56504,18.41411 20.70753,0 29.18481,11.873 29.18481,40.87526 0,14.18057 -3.39579,29.17864 -7.5462,33.32905 -11.04531,11.04531 -77.13551,9.73599 -86.6402,-1.71651 z m 65.6222,-2.88403 c 1.99132,-3.22204 -2.63431,-10.23931 -10.27918,-15.59397 -12.58851,-8.81736 -14.95739,-8.77869 -25.11093,0.41001 -6.16612,5.58023 -9.69592,12.59756 -7.84402,15.59397 4.51219,7.30089 38.66875,6.9769 43.23413,-0.41001 z M 176.52364,946.4062 c 12.06575,-8.93949 12.06229,-9.15097 -0.30059,-18.30791 -15.50279,-11.48223 -22.07911,-7.90753 -22.07911,12.00173 0,17.61787 5.15267,19.06976 22.37995,6.30618 z m 65.65906,-6.30618 c 0,-19.90926 -6.57633,-23.48396 -22.07912,-12.00173 -12.36313,9.15694 -12.36659,9.36842 -0.30059,18.30791 17.22729,12.76358 22.37996,11.31169 22.37996,-6.30618 z m -32.70021,-17.3501 c 12.07405,-12.07411 8.8461,-17.6078 -10.27119,-17.6078 -23.13213,0 -28.73789,6.11519 -15.09951,16.4716 13.6473,10.3632 16.03674,10.47016 25.3707,1.1362 z m -55.33881,-58.48306 c -5.5047,-16.67943 -5.48973,-27.38554 0.0629,-44.20734 5.21681,-15.80785 5.45138,-27.57413 0.81455,-40.87526 -3.58105,-10.2727 -4.04791,-18.67766 -1.03735,-18.67766 11.12021,0 19.75243,41.29011 12.5775,60.16158 -6.37553,16.76905 -5.33654,31.39031 3.95025,55.59148 2.11413,5.5093 0.93076,10.01696 -2.62972,10.01696 -3.56049,0 -9.74234,-9.90439 -13.73749,-22.00976 z m 75.40001,-0.18802 c -5.40264,-16.37023 -5.51212,-27.40057 -0.41693,-42.01675 3.79996,-10.90055 5.3307,-29.91735 3.40171,-42.25954 l -3.50735,-22.44039 9.31742,16.1322 c 7.27303,12.59241 7.96992,22.12974 3.17619,43.46518 -4.11909,18.33274 -3.98489,33.51891 0.4075,46.11905 7.96929,22.86078 7.98017,23.19784 0.74802,23.19784 -3.19041,0 -9.09745,-9.98891 -13.12668,-22.19759 z"
       id="path3002"
       inkscape:connector-curvature="0" />
  </g>
</svg>
