<?xml version="1.0" encoding="UTF-8" standalone="no"?>
<!-- Created with Inkscape (http://www.inkscape.org/) -->

<svg
   xmlns:dc="http://purl.org/dc/elements/1.1/"
   xmlns:cc="http://creativecommons.org/ns#"
   xmlns:rdf="http://www.w3.org/1999/02/22-rdf-syntax-ns#"
   xmlns:svg="http://www.w3.org/2000/svg"
   xmlns="http://www.w3.org/2000/svg"
   xmlns:sodipodi="http://sodipodi.sourceforge.net/DTD/sodipodi-0.dtd"
   xmlns:inkscape="http://www.inkscape.org/namespaces/inkscape"
   width="300"
   height="300"
   id="svg2"
   version="1.1"
   inkscape:version="0.92.4 (5da689c313, 2019-01-14)"
   sodipodi:docname="image-bigseal.svg">
  <defs
     id="defs4" />
  <sodipodi:namedview
     id="base"
     pagecolor="#ffffff"
     bordercolor="#666666"
     borderopacity="1.0"
     inkscape:pageopacity="0.0"
     inkscape:pageshadow="2"
     inkscape:zoom="1.4"
     inkscape:cx="188.87961"
     inkscape:cy="190.47153"
     inkscape:document-units="px"
     inkscape:current-layer="layer1"
     showgrid="false"
     inkscape:window-width="1872"
     inkscape:window-height="1016"
     inkscape:window-x="48"
     inkscape:window-y="27"
     inkscape:window-maximized="1" />
  <metadata
     id="metadata7">
    <rdf:RDF>
      <cc:Work
         rdf:about="">
        <dc:format>image/svg+xml</dc:format>
        <dc:type
           rdf:resource="http://purl.org/dc/dcmitype/StillImage" />
        <dc:title />
      </cc:Work>
    </rdf:RDF>
  </metadata>
  <g
     inkscape:label="Calque 1"
     inkscape:groupmode="layer"
     id="layer1"
     transform="translate(0,-752.36218)">
    <path
       style="fill:#000000;stroke-width:6.01267147"
       d="M 71.133316,1033.6691 C 55.697313,1022.8573 46.05303,966.64556 56.538943,948.60568 c 5.102599,-8.7785 6.488933,-3.31545 6.633553,26.14051 0.15488,31.54781 2.2249,38.66861 13.54604,46.59821 7.34976,5.1479 15.5684,9.3599 18.26364,9.3599 2.69525,0 4.12249,-25.0277 3.17165,-55.61719 l -1.7288,-55.61721 -22.67341,-1.87361 c -27.800296,-2.29732 -23.68131,-13.15807 4.99025,-13.15807 h 20.6895 v -36.07603 c 0,-41.68585 -6.24734,-45.22088 -35.86866,-20.29619 -10.3143,8.67893 -20.426212,14.10693 -22.470917,12.0622 -6.446624,-6.44661 16.841691,-27.10446 38.681387,-34.31221 19.90514,-6.56927 20.798954,-8.03942 17.50158,-28.78651 -4.12638,-25.96319 5.417904,-48.38378 10.453504,-24.55647 1.71077,8.09498 2.5731,21.40102 1.91629,29.56906 -0.92614,11.51751 3.39613,17.04628 19.25638,24.63151 20.34289,9.72904 36.6698,26.59182 36.6698,37.87321 0,3.25135 -6.08783,0.36677 -13.52851,-6.41047 -7.44068,-6.77718 -19.29362,-15.28842 -26.33989,-18.91388 -11.50632,-5.92032 -13.19067,-4.69529 -16.53484,12.02558 -2.04791,10.23952 -3.72347,26.39623 -3.72347,35.90377 0,16.11588 1.60452,17.28643 23.69584,17.28643 13.03271,0 25.36805,2.7057 27.41187,6.01267 2.24423,3.63123 -5.95024,6.01267 -20.6895,6.01267 h -24.40554 v 29.22417 c 0,16.07331 -1.72062,41.77742 -3.8236,57.12037 -3.15583,23.0243 -2.16528,27.8962 5.67173,27.8962 16.38253,0 28.21523,-24.6645 28.21523,-58.81305 0,-22.28771 2.07129,-30.80658 6.7824,-27.89495 11.92878,7.37238 1.50652,75.8743 -13.42095,88.2112 -15.63312,12.9201 -46.382374,13.6251 -63.748184,1.4616 z m 124.500804,-2.4649 c -23.41418,-6.2536 -31.44517,-29.9426 -26.64973,-78.60881 2.37492,-24.10162 6.56618,-40.40239 9.86416,-38.36409 3.15406,1.9493 4.11098,10.01326 2.12656,17.91986 -2.91242,11.60386 -1.26735,14.37576 8.5318,14.37576 11.61762,0 12.13988,-3.73531 12.13988,-86.82887 0,-51.40016 2.45335,-88.34514 6.01267,-90.54494 3.775,-2.33309 6.01267,10.9608 6.01267,35.72116 v 39.43724 h 21.39922 c 13.09752,0 19.91998,2.3934 17.58628,6.16942 -2.0971,3.39319 -11.05032,5.42247 -19.89605,4.5095 -16.06483,-1.65805 -16.08509,-1.60707 -17.83917,44.93829 -1.74722,46.36244 -1.6788,46.5982 13.52851,46.5982 13.03992,0 15.28457,-2.70107 15.28457,-18.39288 0,-10.73082 2.50476,-16.84486 6.01267,-14.67681 8.82065,5.45144 7.55546,94.97147 -1.50317,106.35777 -9.27965,11.6641 -32.64405,16.722 -52.61087,11.3892 z m 36.4713,-12.7367 c 8.86322,-4.7435 11.63007,-12.6857 11.63007,-33.38397 v -27.15971 l -31.56652,1.81739 c -27.93379,1.60821 -31.79687,3.44466 -33.56803,15.95745 -5.52398,39.02534 20.95308,60.18974 53.50448,42.76884 z"
       id="path195"
       inkscape:connector-curvature="0" />
  </g>
</svg>
