<?xml version="1.0" encoding="UTF-8" standalone="no"?>
<!-- Created with Inkscape (http://www.inkscape.org/) -->

<svg
   xmlns:dc="http://purl.org/dc/elements/1.1/"
   xmlns:cc="http://creativecommons.org/ns#"
   xmlns:rdf="http://www.w3.org/1999/02/22-rdf-syntax-ns#"
   xmlns:svg="http://www.w3.org/2000/svg"
   xmlns="http://www.w3.org/2000/svg"
   xmlns:sodipodi="http://sodipodi.sourceforge.net/DTD/sodipodi-0.dtd"
   xmlns:inkscape="http://www.inkscape.org/namespaces/inkscape"
   width="300"
   height="300"
   id="svg2"
   version="1.1"
   inkscape:version="0.92.4 (5da689c313, 2019-01-14)"
   sodipodi:docname="image-bigseal.svg">
  <defs
     id="defs4" />
  <sodipodi:namedview
     id="base"
     pagecolor="#ffffff"
     bordercolor="#666666"
     borderopacity="1.0"
     inkscape:pageopacity="0.0"
     inkscape:pageshadow="2"
     inkscape:zoom="1.4142136"
     inkscape:cx="276.29015"
     inkscape:cy="17.860028"
     inkscape:document-units="px"
     inkscape:current-layer="layer1"
     showgrid="false"
     inkscape:window-width="1872"
     inkscape:window-height="1016"
     inkscape:window-x="48"
     inkscape:window-y="27"
     inkscape:window-maximized="1" />
  <metadata
     id="metadata7">
    <rdf:RDF>
      <cc:Work
         rdf:about="">
        <dc:format>image/svg+xml</dc:format>
        <dc:type
           rdf:resource="http://purl.org/dc/dcmitype/StillImage" />
        <dc:title />
      </cc:Work>
    </rdf:RDF>
  </metadata>
  <g
     inkscape:label="Calque 1"
     inkscape:groupmode="layer"
     id="layer1"
     transform="translate(0,-752.36218)">
    <path
       style="fill:#000000;stroke-width:5.94305801"
       d="m 155.89829,1036.3446 c -0.0675,-4.9599 3.81368,-22.2987 8.62544,-38.53057 8.52871,-28.77043 20.77335,-80.10335 20.77335,-80.10335 0,0 -12.5977,-4.77246 -14.72656,-5.55051 -4.03898,-1.4762 -10.41489,-8.18592 -8.49551,-10.32722 4.74409,-5.29263 50.9659,13.06127 56.64821,22.2132 2.50581,4.03593 7.28371,23.82071 7.33323,44.27182 0.047,20.45112 2.80761,44.49863 6.12921,53.43903 6.69659,18.0246 3.16098,26.4075 -6.82691,16.1864 -3.55665,-3.6397 -8.61627,-28.4385 -11.24352,-55.10842 -2.62731,-26.66996 1.85216,-39.50253 -8.46935,-54.60484 -2.42876,-3.55373 -10.84923,-6.02287 -11.1104,-6.32354 0,0 -5.02159,12.3488 -6.66369,22.75465 -7.49082,47.46922 -15.84478,79.08925 -23.69598,89.69075 -6.41037,8.6559 -8.18064,9.0821 -8.27752,1.9926 z M 73.254125,972.82699 c -9.794246,-26.36225 -5.865716,-68.74693 6.372007,-68.74693 2.733292,0 3.645839,12.85071 2.027948,28.55713 -3.264784,31.69445 3.307146,47.25454 17.589449,41.64592 7.055211,-2.77053 9.405281,-12.00265 9.405281,-36.94824 0,-21.43448 3.7838,-33.62006 7.23952,-33.0792 2.4943,0.39038 4.81767,7.41099 5.42389,22.3695 2.07548,51.21129 -2.69727,61.35027 -28.964744,61.53123 -8.985565,0.0619 -15.241023,-4.9604 -19.093351,-15.32941 z m 70.643955,-63.13013 c 0,-33.79523 7.70144,-53.71301 20.76876,-53.71301 2.38458,0 12.76407,-3.90458 12.76407,-3.90458 l 0.57221,-20.36694 c 0,0 -12.37513,-0.41997 -16.45074,-1.51064 -14.53321,-3.88923 -20.07784,-17.62588 -15.17821,-37.60343 1.90255,-7.75738 4.8225,-11.39904 7.51302,-11.64716 4.0688,-0.37523 7.61289,7.01052 6.31997,19.65951 -1.13756,11.12953 1.44809,16.51191 8.65916,18.0252 2.94212,0.61742 9.85302,1.70125 9.85302,1.70125 0,0 0.42801,-8.82659 0.42801,-17.80909 0,-12.24981 3.95909,-20.43368 12.02124,-24.84916 15.72512,-8.61228 48.02216,-5.15423 51.44803,5.50858 1.98447,6.1767 -1.35616,7.57474 -12.76606,5.34271 -9.54401,-1.86706 -24.36506,-3.8859 -24.36506,-3.8859 1.50898,10.20434 13.32469,14.43684 23.59834,13.68815 8.07795,2.07481 14.68719,6.4262 14.68719,9.66981 0,11.06165 -28.88355,5.93393 -40.89527,-7.26019 l -6.60411,-14.15768 c -2.46994,4.14454 -7.06684,0.20448 -5.37453,20.16971 0.62696,7.39665 -0.41801,15.24252 -0.41801,15.24252 0,0 10.42487,3.92719 23.57079,3.92719 12.73404,0 24.70299,2.56677 26.59764,5.70397 6.93506,11.48309 14.29605,99.95221 4.56349,100.41721 -11.41229,0.54525 -6.45084,-22.54793 -7.5071,-34.2226 -2.34242,-25.89023 0.95437,-51.7177 -7.06314,-59.87453 -4.89747,-4.5641 -19.87183,0 -19.87183,0 -5.10071,0 -19.89275,-3.94616 -19.89275,-3.94616 l -0.46768,15.70819 c 0,0 6.94179,0.26203 14.82906,0.26203 7.88725,0 15.97438,2.70541 17.97137,6.01203 2.1183,3.50753 -3.85557,6.01202 -14.34047,6.01202 -6.41031,0 -19.43039,-1.46662 -19.43039,-1.46662 0,0 1.45902,7.65067 1.45902,10.48466 0,4.95993 5.13135,9.01805 11.40302,9.01805 14.48928,0 20.69679,9.66739 9.12533,14.21141 -13.46563,5.28787 -26.72089,-2.25969 -32.82554,-18.69086 -1.72884,-4.65336 -1.34931,-12.5993 -1.34931,-12.5993 -7.67827,-2.33496 -26.85544,11.87633 -21.60278,44.86898 2.79412,17.55013 -2.6437,32.33004 -5.87488,32.33004 -3.23119,0 -5.87488,-13.7049 -5.87488,-30.45537 z M 49.9,898.32433 c 0,-3.16563 9.252885,-13.31093 20.561909,-22.5451 7.718987,-6.30276 19.718063,-17.59759 19.718063,-17.59759 0,0 -0.956595,-17.147 -1.110356,-25.73087 -0.105338,-5.88064 0.128863,-17.64438 0.128863,-17.64438 0,0 -8.302792,3.58379 -13.355989,10.62935 -7.866454,10.96802 -20.067607,23.01281 -20.067607,13.51405 0,-2.75555 7.857655,-12.90085 17.461438,-22.5451 5.176945,-5.19877 15.942018,-14.216 15.942018,-14.216 0,0 1.631708,-14.44896 1.682619,-19.49735 0.0899,-8.89804 2.806904,-17.85031 6.038083,-19.89392 3.425419,-2.16643 5.874879,3.91864 5.874879,14.59432 0,6.79284 1.10932,19.98536 1.10932,19.98536 0,0 12.86975,11.43459 20.90156,18.96705 12.10602,11.35329 20.0095,22.69047 17.56337,25.1937 -2.44612,2.50328 -12.35106,-3.19744 -22.01088,-12.66819 l -17.56337,-17.21958 v 22.76081 c 0,8.03601 0.38853,21.22387 0.38853,21.22387 0,0 9.87853,11.35171 17.23611,18.38517 17.55338,16.78011 22.80406,30.06013 11.88517,30.06013 -3.15668,0 -10.06995,-6.76353 -15.36286,-15.03006 -6.12417,-9.56486 -18.747863,-20.41899 -18.747863,-20.41899 0,0 -12.866918,11.08895 -23.702078,20.41899 C 55.703335,905.21057 49.9,907.40105 49.9,898.32433 Z"
       id="path201"
       inkscape:connector-curvature="0"
       sodipodi:nodetypes="ccccccccscacccccsscsscscssccssscccscccccsccscscsscsccscscsscccssssccacssccccscccscscssccss" />
  </g>
</svg>
