<?xml version="1.0" encoding="UTF-8" standalone="no"?>
<!-- Created with Inkscape (http://www.inkscape.org/) -->

<svg
   xmlns:dc="http://purl.org/dc/elements/1.1/"
   xmlns:cc="http://creativecommons.org/ns#"
   xmlns:rdf="http://www.w3.org/1999/02/22-rdf-syntax-ns#"
   xmlns:svg="http://www.w3.org/2000/svg"
   xmlns="http://www.w3.org/2000/svg"
   xmlns:sodipodi="http://sodipodi.sourceforge.net/DTD/sodipodi-0.dtd"
   xmlns:inkscape="http://www.inkscape.org/namespaces/inkscape"
   width="300"
   height="300"
   id="svg2"
   version="1.1"
   inkscape:version="0.91 r13725"
   sodipodi:docname="image-seal.svg">
  <defs
     id="defs4" />
  <sodipodi:namedview
     id="base"
     pagecolor="#ffffff"
     bordercolor="#666666"
     borderopacity="1.0"
     inkscape:pageopacity="0.0"
     inkscape:pageshadow="2"
     inkscape:zoom="2.7366667"
     inkscape:cx="150"
     inkscape:cy="150"
     inkscape:document-units="px"
     inkscape:current-layer="layer1"
     showgrid="false"
     inkscape:window-width="1231"
     inkscape:window-height="1000"
     inkscape:window-x="49"
     inkscape:window-y="24"
     inkscape:window-maximized="1"
     showguides="true"
     inkscape:guide-bbox="true" />
  <metadata
     id="metadata7">
    <rdf:RDF>
      <cc:Work
         rdf:about="">
        <dc:format>image/svg+xml</dc:format>
        <dc:type
           rdf:resource="http://purl.org/dc/dcmitype/StillImage" />
        <dc:title />
      </cc:Work>
    </rdf:RDF>
  </metadata>
  <g
     inkscape:label="Calque 1"
     inkscape:groupmode="layer"
     id="layer1"
     transform="translate(0,-752.36218)">
    <path
       style="fill:#000000"
       d="m 94.667165,1043.8299 c -2.51842,-2.5345 -4.57895,-26.1291 -4.57895,-52.43267 l 0,-47.82454 -17.95545,0 c -9.87551,0 -19.65346,-2.74737 -21.72876,-6.10527 -2.24551,-3.63336 5.02433,-6.10526 17.95546,-6.10526 24.85288,0 29.35264,-12.07554 7.99191,-21.447 -28.33965,-12.4333 -27.10779,-79.19075 1.59982,-86.69797 18.69518,-4.88891 14.38785,-17.98488 -7.70508,-23.42632 l -19.84211,-4.88714 18.77149,-2.28825 c 13.59447,-1.65722 20.57144,-6.83405 25.29789,-18.77082 l 6.526405,-16.4825 0.64947,17.22643 c 0.55131,14.61649 2.91929,16.92892 15.63106,15.26316 8.23985,-1.07984 15.05509,0.78409 15.1449,4.14199 0.0897,3.35789 -5.91386,6.10526 -13.34152,6.10526 -7.99631,0 -14.35647,4.35806 -15.5926,10.68421 -1.39048,7.11618 1.73182,10.68421 9.34948,10.68421 17.85673,0 26.08974,12.47959 26.08974,39.54678 0,26.75107 -13.51699,52.03217 -27.81985,52.03217 -4.84648,0 -8.81173,4.12105 -8.81173,9.1579 0,6.42493 6.48446,9.15789 21.72875,9.15789 12.93113,0 20.20098,2.4719 17.95546,6.10526 -2.0753,3.3579 -11.74628,6.10527 -21.49101,6.10527 l -17.71778,0 -1.76405,52.43267 c -0.97019,28.83794 -3.824525,50.35894 -6.342945,47.82454 z m -4.57895,-155.20458 c 0,-6.78362 -4.07019,-12.21053 -9.15789,-12.21053 -9.29471,0 -12.52348,12.91508 -5.0877,20.35086 7.74019,7.74019 14.24559,4.02282 14.24559,-8.14033 z m 29.305265,4.88421 c 10.76358,-10.76352 8.95465,-17.09474 -4.88421,-17.09474 -8.14033,0 -12.21053,4.0702 -12.21053,12.21053 0,13.83886 6.33122,15.64779 17.09474,4.88421 z M 90.088215,848.94111 c 0,-9.49711 -3.45967,-15.26316 -9.15789,-15.26316 -5.03684,0 -9.1579,2.52269 -9.1579,5.60591 0,3.08328 -1.66759,9.9517 -3.70583,15.26316 -2.65664,6.92306 -0.0641,9.65725 9.1579,9.65725 9.65113,0 12.86372,-3.81183 12.86372,-15.26316 z m 33.578945,0 c 0,-6.62379 -4.80789,-12.96923 -10.68421,-14.1009 -8.00247,-1.54115 -10.68421,1.99819 -10.68421,14.1009 0,12.1027 2.68174,15.64205 10.68421,14.1009 5.87632,-1.13168 10.68421,-7.47712 10.68421,-14.1009 z m 15.26316,180.39249 c 0,-27.3602 12.91129,-50.01222 33.43095,-58.65226 l 18.46379,-7.77432 -16.84265,-4.23712 c -30.28296,-7.61827 -29.67995,-52.21813 0.76724,-56.74421 15.49565,-2.30351 11.36153,-13.30037 -5.00015,-13.30037 -6.15837,0 -12.86464,-4.34573 -14.90282,-9.65725 -5.71184,-14.88481 -4.39213,-33.07959 2.39943,-33.07959 3.35789,0 6.10526,6.86842 6.10526,15.26315 0,11.19297 3.25612,15.26316 12.21053,15.26316 12.36096,0 16.93807,-14.67339 6.575,-21.07811 -3.09958,-1.91565 -7.4389,-11.6936 -9.64302,-21.72876 -2.80329,-12.76317 -7.63903,-18.24576 -16.09317,-18.24576 -6.64716,0 -10.3878,-2.74737 -8.3125,-6.10526 2.0753,-3.3579 24.21641,-6.10527 49.20244,-6.10527 26.21594,0 45.42914,2.5821 45.42914,6.10527 0,3.35789 -4.18973,6.10526 -9.31052,6.10526 -5.44523,0 -10.81993,7.54702 -12.94634,18.17885 -1.99965,9.9984 -7.42571,21.32428 -12.05789,25.16864 -8.91326,7.39738 -11.58333,23.87494 -3.84314,23.71693 9.33513,-0.19048 18.32336,-9.47109 22.67836,-23.41582 2.98798,-9.56762 6.51707,-12.31633 10.5872,-8.24619 10.32467,10.32467 -1.12208,31.67618 -21.52129,40.14338 l -19.37585,8.04241 19.56535,4.41966 c 31.74639,7.17136 33.61827,38.84492 3.2364,54.76354 l -15.43459,8.08703 16.0475,4.02764 c 9.06216,2.27445 20.0821,11.82986 25.31639,21.95184 10.44885,20.20583 12.4537,55.16213 3.16369,55.16213 -3.3579,0 -6.10527,-7.0049 -6.10527,-15.5664 0,-19.914 -14.97328,-49.00254 -27.7472,-53.90433 -13.89265,-5.33112 -14.98964,-4.93843 -14.98964,5.36543 0,5.03684 3.9589,9.15789 8.79756,9.15789 15.40425,0 16.93802,12.10121 2.27885,17.98041 l -14.12904,5.6667 13.73684,0.3871 c 28.23635,0.7954 12.50706,12.5974 -16.78947,12.5974 -29.29654,0 -45.02583,-11.802 -16.78948,-12.5975 13.40789,-0.3779 13.37138,-0.5495 -1.52631,-7.1641 -15.22751,-6.7613 -15.23111,-6.7828 -1.52632,-9.1956 14.72382,-2.59208 19.35595,-19.88487 5.32648,-19.88487 -13.16503,0 -22.91721,15.62678 -26.52133,42.49737 -3.82311,28.5037 -13.91041,33.313 -13.91041,6.632 z m 48.8421,-83.56155 c 0,-2.1482 -4.80789,-7.55557 -10.68421,-12.01632 -10.17546,-7.72426 -10.17546,-8.11976 0,-8.30469 13.10446,-0.2381 14.41355,-12.40467 1.33474,-12.40467 -11.03753,0 -17.83525,14.51819 -12.86373,27.47368 3.38048,8.80941 22.2132,13.26216 22.2132,5.252 z m 36.88587,-5.55842 c 6.47023,-7.79611 6.16961,-11.14937 -1.70545,-19.02443 -5.25803,-5.25809 -13.26417,-8.18093 -17.79134,-6.49526 -5.42899,2.02145 -3.03511,5.27421 7.03198,9.55479 l 15.26315,6.48996 -13.73684,4.07642 c -7.55526,2.24204 -13.73684,6.50339 -13.73684,9.46963 0,8.80892 16.20477,6.1353 24.67534,-4.07111 z M 212.19348,823.35316 c 0,-8.42765 -21.78523,-11.24364 -26.39654,-3.41205 -1.48284,2.51842 -0.0818,11.44737 3.11308,19.8421 5.64566,14.83341 6.0552,14.92945 14.54634,3.41205 4.80539,-6.5181 8.73712,-15.44705 8.73712,-19.8421 z m -48.84211,-44.62258 c 0,-3.35789 15.11053,-6.10526 33.57895,-6.10526 18.46842,0 33.57895,2.74737 33.57895,6.10526 0,3.3579 -15.11053,6.10526 -33.57895,6.10526 -18.46842,0 -33.57895,-2.74736 -33.57895,-6.10526 z"
       id="path4597"
       inkscape:connector-curvature="0" />
  </g>
</svg>
