<?xml version="1.0" encoding="UTF-8" standalone="no"?>
<!-- Created with Inkscape (http://www.inkscape.org/) -->

<svg
   xmlns:dc="http://purl.org/dc/elements/1.1/"
   xmlns:cc="http://creativecommons.org/ns#"
   xmlns:rdf="http://www.w3.org/1999/02/22-rdf-syntax-ns#"
   xmlns:svg="http://www.w3.org/2000/svg"
   xmlns="http://www.w3.org/2000/svg"
   xmlns:sodipodi="http://sodipodi.sourceforge.net/DTD/sodipodi-0.dtd"
   xmlns:inkscape="http://www.inkscape.org/namespaces/inkscape"
   width="300"
   height="300"
   id="svg2"
   version="1.1"
   inkscape:version="0.92.4 (5da689c313, 2019-01-14)"
   sodipodi:docname="image-bigseal.svg">
  <defs
     id="defs4" />
  <sodipodi:namedview
     id="base"
     pagecolor="#ffffff"
     bordercolor="#666666"
     borderopacity="1.0"
     inkscape:pageopacity="0.0"
     inkscape:pageshadow="2"
     inkscape:zoom="1.979899"
     inkscape:cx="216.03327"
     inkscape:cy="173.92429"
     inkscape:document-units="px"
     inkscape:current-layer="layer1"
     showgrid="false"
     inkscape:window-width="1872"
     inkscape:window-height="1016"
     inkscape:window-x="48"
     inkscape:window-y="27"
     inkscape:window-maximized="1" />
  <metadata
     id="metadata7">
    <rdf:RDF>
      <cc:Work
         rdf:about="">
        <dc:format>image/svg+xml</dc:format>
        <dc:type
           rdf:resource="http://purl.org/dc/dcmitype/StillImage" />
        <dc:title />
      </cc:Work>
    </rdf:RDF>
  </metadata>
  <g
     inkscape:label="Calque 1"
     inkscape:groupmode="layer"
     id="layer1"
     transform="translate(0,-752.36218)">
    <path
       style="fill:#000000;stroke-width:6.05974817"
       d="M 104.55454,1000.0636 V 954.25788 H 83.34542 c -11.66501,0 -21.20912,-2.72689 -21.20912,-6.05975 0,-3.33286 9.54411,-6.05975 21.20912,-6.05975 14.81269,0 21.20912,-2.74131 21.20912,-9.08962 0,-4.99929 -3.9944,-9.08962 -8.87644,-9.08962 -4.88203,0 -11.69925,-5.27453 -15.14937,-11.72113 -8.00747,-14.96207 -8.14757,-53.06225 -0.2133,-57.96598 3.43684,-2.12406 6.05975,2.96697 6.05975,11.76185 0,9.7442 3.37794,15.50702 9.08962,15.50702 11.95752,0 11.95752,-26.43463 0,-36.35849 -4.99929,-4.14905 -9.08962,-14.11492 -9.08962,-22.14638 0,-9.4626 -4.64195,-16.31982 -13.18759,-19.48107 L 60,798.67656 l 13.73091,-3.5907 c 10.39265,-2.71774 12.80224,-6.51659 9.9112,-15.62548 -2.1008,-6.61913 -0.98186,-13.7886 2.48656,-15.93223 3.85472,-2.38233 6.30625,3.4652 6.30625,15.04193 0,17.08612 1.63062,18.75171 16.66431,17.02189 12.44321,-1.43174 16.66431,-5.23235 16.66431,-15.0043 0,-7.19783 2.04517,-15.15125 4.54481,-17.67429 2.49965,-2.52303 4.54481,3.85812 4.54481,14.18036 0,14.6449 2.99515,19.34466 13.63444,21.39388 l 13.63443,2.62611 -13.63443,0.82522 c -9.96429,0.60295 -13.63444,4.59135 -13.63444,14.81639 0,7.69515 -4.00361,19.28442 -8.89692,25.75393 -11.77761,15.57137 -11.89341,39.03163 -0.1927,39.03163 5.783,0 9.22936,-6.06212 9.47375,-16.66431 0.33329,-14.45905 1.01525,-15.06048 5.15376,-4.54481 8.08564,20.54509 0.49205,58.71005 -12.34983,62.06824 -18.69736,4.88949 -13.57281,19.73836 6.81194,19.73836 9.99859,0 18.17925,2.72689 18.17925,6.05975 0,3.33286 -8.18066,6.05975 -18.17925,6.05975 h -18.17924 v 42.06059 c 0,23.13333 -2.72689,43.74593 -6.05975,45.80573 -3.8357,2.3706 -6.05975,-13.0665 -6.05975,-42.0606 z m 0,-94.28371 c 0,-6.73305 -4.03985,-12.1195 -9.08962,-12.1195 -16.51063,0 -10.78417,17.96304 7.57469,23.76058 0.83321,0.26299 1.51493,-4.97536 1.51493,-11.64108 z m 28.91003,-4.92355 c 1.31927,-3.9578 -1.91888,-7.19595 -7.19595,-7.19595 -5.27701,0 -9.59458,4.31757 -9.59458,9.59458 0,10.7011 13.04518,8.83748 16.79053,-2.39863 z M 121.6028,821.99169 c 1.68776,-17.09013 0.17209,-19.22752 -13.63444,-19.22752 -16.94336,0 -20.02892,10.57589 -9.06332,31.06536 9.06023,16.92912 20.44304,10.9925 22.69776,-11.83784 z m 50.95733,147.07197 c -12.10907,-8.48153 -13.46785,-14.59527 -13.46785,-60.59748 0,-34.03834 2.29543,-51.16428 6.85763,-51.16428 4.50258,0 5.74113,8.32416 3.60652,24.239 -2.80778,20.9334 -1.67697,24.23899 8.29174,24.23899 10.68146,0 11.54285,-5.20023 11.54285,-69.68711 0,-42.41823 2.37118,-69.6871 6.05975,-69.6871 3.33286,0 6.05975,13.63443 6.05975,30.29874 v 30.29874 h 21.20912 c 11.66501,0 21.20912,2.72689 21.20912,6.05975 0,3.33286 -9.54411,6.05975 -21.20912,6.05975 h -21.20912 v 33.32861 c 0,31.15905 0.94865,33.32862 14.57272,33.32862 13.50361,0 14.33422,-1.77835 11.32161,-24.23899 -1.92154,-14.32652 -0.76595,-24.239 2.82584,-24.239 8.19927,0 15.13568,55.86161 10.20201,82.1605 -6.56288,34.9831 -39.61106,49.3964 -67.87257,29.60126 z m 52.9762,-14.40742 c 3.45012,-6.4466 6.27293,-17.35414 6.27293,-24.23899 0,-11.13333 -3.68627,-12.51786 -33.32862,-12.51786 -29.64235,0 -33.32861,1.38453 -33.32861,12.51786 0,23.7836 11.28543,35.96012 33.32861,35.96012 14.34537,0 22.72569,-3.63057 27.05569,-11.72113 z"
       id="path210"
       inkscape:connector-curvature="0" />
  </g>
</svg>
