<?xml version="1.0" encoding="UTF-8" standalone="no"?>
<!-- Created with Inkscape (http://www.inkscape.org/) -->

<svg
   xmlns:dc="http://purl.org/dc/elements/1.1/"
   xmlns:cc="http://creativecommons.org/ns#"
   xmlns:rdf="http://www.w3.org/1999/02/22-rdf-syntax-ns#"
   xmlns:svg="http://www.w3.org/2000/svg"
   xmlns="http://www.w3.org/2000/svg"
   xmlns:sodipodi="http://sodipodi.sourceforge.net/DTD/sodipodi-0.dtd"
   xmlns:inkscape="http://www.inkscape.org/namespaces/inkscape"
   width="300"
   height="300"
   id="svg2"
   version="1.1"
   inkscape:version="0.47 r22583"
   sodipodi:docname="魚-bronze.svg">
  <defs
     id="defs4">
    <inkscape:perspective
       sodipodi:type="inkscape:persp3d"
       inkscape:vp_x="0 : 526.18109 : 1"
       inkscape:vp_y="0 : 1000 : 0"
       inkscape:vp_z="744.09448 : 526.18109 : 1"
       inkscape:persp3d-origin="372.04724 : 350.78739 : 1"
       id="perspective10" />
    <inkscape:perspective
       id="perspective2824"
       inkscape:persp3d-origin="0.5 : 0.33333333 : 1"
       inkscape:vp_z="1 : 0.5 : 1"
       inkscape:vp_y="0 : 1000 : 0"
       inkscape:vp_x="0 : 0.5 : 1"
       sodipodi:type="inkscape:persp3d" />
    <inkscape:perspective
       id="perspective2841"
       inkscape:persp3d-origin="0.5 : 0.33333333 : 1"
       inkscape:vp_z="1 : 0.5 : 1"
       inkscape:vp_y="0 : 1000 : 0"
       inkscape:vp_x="0 : 0.5 : 1"
       sodipodi:type="inkscape:persp3d" />
    <inkscape:perspective
       id="perspective2855"
       inkscape:persp3d-origin="0.5 : 0.33333333 : 1"
       inkscape:vp_z="1 : 0.5 : 1"
       inkscape:vp_y="0 : 1000 : 0"
       inkscape:vp_x="0 : 0.5 : 1"
       sodipodi:type="inkscape:persp3d" />
    <inkscape:perspective
       id="perspective2905"
       inkscape:persp3d-origin="0.5 : 0.33333333 : 1"
       inkscape:vp_z="1 : 0.5 : 1"
       inkscape:vp_y="0 : 1000 : 0"
       inkscape:vp_x="0 : 0.5 : 1"
       sodipodi:type="inkscape:persp3d" />
    <inkscape:perspective
       id="perspective2945"
       inkscape:persp3d-origin="0.5 : 0.33333333 : 1"
       inkscape:vp_z="1 : 0.5 : 1"
       inkscape:vp_y="0 : 1000 : 0"
       inkscape:vp_x="0 : 0.5 : 1"
       sodipodi:type="inkscape:persp3d" />
    <inkscape:perspective
       id="perspective2987"
       inkscape:persp3d-origin="0.5 : 0.33333333 : 1"
       inkscape:vp_z="1 : 0.5 : 1"
       inkscape:vp_y="0 : 1000 : 0"
       inkscape:vp_x="0 : 0.5 : 1"
       sodipodi:type="inkscape:persp3d" />
    <inkscape:perspective
       id="perspective3027"
       inkscape:persp3d-origin="0.5 : 0.33333333 : 1"
       inkscape:vp_z="1 : 0.5 : 1"
       inkscape:vp_y="0 : 1000 : 0"
       inkscape:vp_x="0 : 0.5 : 1"
       sodipodi:type="inkscape:persp3d" />
  </defs>
  <sodipodi:namedview
     id="base"
     pagecolor="#ffffff"
     bordercolor="#666666"
     borderopacity="1.0"
     inkscape:pageopacity="0.0"
     inkscape:pageshadow="2"
     inkscape:zoom="0.7"
     inkscape:cx="157.42227"
     inkscape:cy="-22.228591"
     inkscape:document-units="px"
     inkscape:current-layer="layer1"
     showgrid="false"
     inkscape:window-width="1280"
     inkscape:window-height="950"
     inkscape:window-x="0"
     inkscape:window-y="25"
     inkscape:window-maximized="1" />
  <metadata
     id="metadata7">
    <rdf:RDF>
      <cc:Work
         rdf:about="">
        <dc:format>image/svg+xml</dc:format>
        <dc:type
           rdf:resource="http://purl.org/dc/dcmitype/StillImage" />
        <dc:title></dc:title>
      </cc:Work>
    </rdf:RDF>
  </metadata>
  <g
     inkscape:label="Calque 1"
     inkscape:groupmode="layer"
     id="layer1"
     transform="translate(184.92857,250.28068)">
    <path
       style="fill:#000000"
       d="m -78.232815,13.794848 c 0,-2.320711 4.030546,-6.0347187 8.956765,-8.2533955 8.119778,-3.6569497 13.464721,-7.7985807 32.988053,-25.5613085 6.879828,-6.259417 32.4904054,-45.062465 32.4904054,-49.226804 0,-1.427584 1.2429657,-2.595609 2.7621489,-2.595609 5.7466682,0 11.5846827,-40.777141 7.1165993,-49.707761 -3.177265,-6.35059 -9.8862945,-9.4683 -30.4731576,-14.16097 -7.062404,-1.60984 -16.510297,-5.33103 -20.995314,-8.26933 -7.92033,-5.18889 -8.157884,-6.13145 -8.269651,-32.81224 l -0.115077,-27.4699 -11.45502,-0.28883 c -6.300259,-0.15885 -24.165422,-0.0593 -39.700357,0.22135 -24.79974,0.44795 -28.50918,-0.014 -30.40811,-3.78692 -4.60167,-9.14284 3.8256,-10.01429 98.859497,-10.22288 76.702062,-0.16836 91.342139,0.34444 94.573044,3.31257 8.302096,7.62689 2.302496,8.85328 -45.578889,9.31683 -25.884517,0.25058 -48.033189,1.1955 -49.219272,2.0998 -2.367619,1.80514 -2.413159,35.53034 -0.05818,43.09403 0.809858,2.60112 1.579257,5.52737 1.70977,6.50279 0.13051,0.97541 2.289426,1.77348 4.797586,1.77348 6.742293,0 36.2233032,10.70436 44.429024,16.13189 11.32862,7.49311 13.870076,26.06107 6.426742,46.95401 -7.629577,21.415687 -18.0108288,40.932547 -34.113798,64.134272 -14.852035,21.3993283 -21.172783,27.1683329 -39.74291,36.273618 -15.859417,7.77621 -24.979899,8.70405 -24.979899,2.541308 z"
       id="path3033" />
  </g>
</svg>
