<?xml version="1.0" encoding="UTF-8" standalone="no"?>
<svg
   xmlns:dc="http://purl.org/dc/elements/1.1/"
   xmlns:cc="http://creativecommons.org/ns#"
   xmlns:rdf="http://www.w3.org/1999/02/22-rdf-syntax-ns#"
   xmlns:svg="http://www.w3.org/2000/svg"
   xmlns="http://www.w3.org/2000/svg"
   version="1.1"
   id="svg78"
   width="300"
   height="300"
   viewBox="0 0 300 300">
  <metadata
     id="metadata84">
    <rdf:RDF>
      <cc:Work
         rdf:about="">
        <dc:format>image/svg+xml</dc:format>
        <dc:type
           rdf:resource="http://purl.org/dc/dcmitype/StillImage" />
        <dc:title></dc:title>
      </cc:Work>
    </rdf:RDF>
  </metadata>
  <defs
     id="defs82" />
  <path
     style="fill:#000000;stroke-width:0.69210386"
     d="m 145.39078,281.69348 c -1.17861,-3.06211 -1.26689,-6.23687 -1.26689,-45.56088 0,-24.74239 0.028,-37.37082 0.19731,-45.20403 0.39284,-18.17943 2.74884,-19.86434 9.65519,-23.5634 5.05342,-2.658 8.94019,-3.88984 18.84002,-5.97106 12.0194,-2.52958 17.18282,-4.80863 17.26916,-13.84633 0.14847,-15.54144 -7.84472,-16.31028 -20.79932,-18.03524 -11.55806,-1.47538 -18.70648,-5.37635 -21.45001,-11.85983 -3.42689,-8.09839 -3.22413,-18.571478 -3.42659,-29.932982 l -33.34467,-0.194931 c -22.201366,0.04767 -31.917461,-0.163222 -32.946475,-0.715267 -1.517616,-0.814171 -2.775748,-3.323893 -2.775748,-5.537057 0,-1.564809 3.891173,-4.147008 10.231782,-4.127606 l 58.908851,0.18026 -0.17977,-25.923309 c -0.17773,-25.632554 0.14858,-25.888244 1.45672,-30.929769 1.43947,-5.547694 4.82489,-7.578655 7.51567,-2.768587 1.11721,1.997142 1.23762,5.0801 1.42512,30.815338 l 0.20825,28.583823 27.44245,0.04925 c 39.44685,0.07079 42.14029,0.468773 42.30471,5.854008 0.15454,5.061471 -25.1837,4.665686 -29.02469,4.66686 l -40.87757,-0.0051 c -0.23421,6.977581 0.0407,20.580659 2.14259,24.387769 3.77959,6.84588 14.17183,8.319 26.48171,11.20156 11.71996,2.74441 17.1676,8.60194 17.63754,18.50165 0.49235,10.37189 -0.49122,16.61649 -7.79705,22.58185 -4.75542,3.88291 -10.22589,5.55187 -15.71634,6.32519 -15.70193,3.38892 -22.35154,3.11346 -22.36904,18.65536 l -0.29518,42.33893 c -0.32034,45.94979 -0.25946,49.84317 -1.57128,51.45089 -3.08204,3.77723 -6.88471,1.1428 -7.87647,-1.41737 z"
     id="path88" />
</svg>
