<?xml version="1.0" encoding="UTF-8" standalone="no"?>
<!-- Created with Inkscape (http://www.inkscape.org/) -->

<svg
   xmlns:dc="http://purl.org/dc/elements/1.1/"
   xmlns:cc="http://creativecommons.org/ns#"
   xmlns:rdf="http://www.w3.org/1999/02/22-rdf-syntax-ns#"
   xmlns:svg="http://www.w3.org/2000/svg"
   xmlns="http://www.w3.org/2000/svg"
   xmlns:sodipodi="http://sodipodi.sourceforge.net/DTD/sodipodi-0.dtd"
   xmlns:inkscape="http://www.inkscape.org/namespaces/inkscape"
   width="300"
   height="300"
   id="svg2"
   version="1.1"
   inkscape:version="0.47 r22583"
   sodipodi:docname="åƒ-oracle.svg">
  <defs
     id="defs4">
    <inkscape:perspective
       sodipodi:type="inkscape:persp3d"
       inkscape:vp_x="0 : 526.18109 : 1"
       inkscape:vp_y="0 : 1000 : 0"
       inkscape:vp_z="744.09448 : 526.18109 : 1"
       inkscape:persp3d-origin="372.04724 : 350.78739 : 1"
       id="perspective10" />
    <inkscape:perspective
       id="perspective2824"
       inkscape:persp3d-origin="0.5 : 0.33333333 : 1"
       inkscape:vp_z="1 : 0.5 : 1"
       inkscape:vp_y="0 : 1000 : 0"
       inkscape:vp_x="0 : 0.5 : 1"
       sodipodi:type="inkscape:persp3d" />
    <inkscape:perspective
       id="perspective2882"
       inkscape:persp3d-origin="0.5 : 0.33333333 : 1"
       inkscape:vp_z="1 : 0.5 : 1"
       inkscape:vp_y="0 : 1000 : 0"
       inkscape:vp_x="0 : 0.5 : 1"
       sodipodi:type="inkscape:persp3d" />
  </defs>
  <sodipodi:namedview
     id="base"
     pagecolor="#ffffff"
     bordercolor="#666666"
     borderopacity="1.0"
     inkscape:pageopacity="0.0"
     inkscape:pageshadow="2"
     inkscape:zoom="1.979899"
     inkscape:cx="155.20527"
     inkscape:cy="151.78646"
     inkscape:document-units="px"
     inkscape:current-layer="layer1"
     showgrid="false"
     inkscape:window-width="1280"
     inkscape:window-height="950"
     inkscape:window-x="0"
     inkscape:window-y="25"
     inkscape:window-maximized="1" />
  <metadata
     id="metadata7">
    <rdf:RDF>
      <cc:Work
         rdf:about="">
        <dc:format>image/svg+xml</dc:format>
        <dc:type
           rdf:resource="http://purl.org/dc/dcmitype/StillImage" />
        <dc:title></dc:title>
      </cc:Work>
    </rdf:RDF>
  </metadata>
  <g
     inkscape:label="Calque 1"
     inkscape:groupmode="layer"
     id="layer1"
     transform="translate(0,-752.36218)">
    <path
       style="fill:#000000"
       d="m 205.39071,1027.61 c -23.69543,-21.1295 -39.29698,-47.22132 -51.20144,-73.68009 -15.40055,-9.45971 -36.17153,1.72161 -53.74587,0.63411 -15.523814,-0.25043 -43.802839,10.4288 -51.494176,-3.37918 17.646025,-11.98687 44.485183,-6.79741 65.741226,-11.8925 14.80753,-2.40128 36.58698,-1.56602 29.69427,-18.60823 0.61151,-19.52268 -27.36458,-14.45866 -42.77536,-13.02455 -14.945444,-1.09625 -36.472921,7.51825 -46.822381,-3.3514 10.906281,-12.47482 38.355218,-6.67859 55.848051,-11.84233 21.27893,-6.78549 51.61163,-2.19505 49.01306,21.06124 3.4448,24.77111 40.39196,5.92841 46.8262,-8.20124 8.59768,-13.01734 6.46995,-37.21559 -17.40916,-36.66555 -39.14066,0.79511 -78.40458,3.23401 -117.514984,4.12428 -16.431135,-2.0118 -11.951637,-16.77007 3.745714,-13.14307 19.713313,-4.30984 54.50803,7.79011 62.78289,-11.65257 2.39759,-11.75933 -1.48943,-21.60464 -18.9771,-17.31094 -22.716505,-2.46294 -51.761709,4.23986 -70.563424,-6.57907 14.134564,-12.19486 39.457287,-5.52505 58.309314,-8.69359 23.25762,3.4019 33.62528,-12.8582 27.06167,-28.83096 -8.2574,-18.57577 29.22181,-24.08028 26.29636,-3.15273 1.88146,12.49598 -1.536,32.94095 21.32993,30.0926 19.39237,1.65649 39.23592,0.37108 58.26234,4.38962 6.06019,18.84128 -32.03455,9.79917 -45.73603,11.91626 -18.29007,-2.09693 -45.83596,1.55433 -36.78618,21.48498 12.04259,13.71857 38.12441,5.15311 55.7872,10.78786 18.56684,3.82471 15.01033,22.82903 15.48583,34.72437 -4.29524,16.60077 -12.53889,33.85501 -32.50036,40.96379 -17.368,0.3148 -31.64121,11.65486 -17.53784,24.67455 12.32313,20.81385 25.87972,41.62134 46.75733,57.72804 17.39287,9.6375 4.89765,27.3651 -11.94587,14.1829 -3.33145,-1.7331 -5.21954,-4.5291 -7.93121,-6.7566 z"
       id="path2888" />
  </g>
</svg>
