<?xml version="1.0" encoding="UTF-8" standalone="no"?>
<svg
   xmlns:dc="http://purl.org/dc/elements/1.1/"
   xmlns:cc="http://creativecommons.org/ns#"
   xmlns:rdf="http://www.w3.org/1999/02/22-rdf-syntax-ns#"
   xmlns:svg="http://www.w3.org/2000/svg"
   xmlns="http://www.w3.org/2000/svg"
   version="1.1"
   id="svg4602"
   width="300"
   height="300"
   viewBox="0 0 300 300">
  <metadata
     id="metadata4608">
    <rdf:RDF>
      <cc:Work
         rdf:about="">
        <dc:format>image/svg+xml</dc:format>
        <dc:type
           rdf:resource="http://purl.org/dc/dcmitype/StillImage" />
        <dc:title></dc:title>
      </cc:Work>
    </rdf:RDF>
  </metadata>
  <defs
     id="defs4606" />
  <path
     style="fill:#000000;stroke-width:0.72639227"
     d="m 89.736883,274.96327 c -7.267183,-0.53503 -13.50753,-2.47147 -13.51834,-8.76929 -0.0062,-3.61141 1.146137,-7.25902 3.50204,-7.25231 45.832717,0.13058 91.665427,0.26118 137.498147,0.39177 4.80919,0.0137 8.65401,8.58869 5.29209,11.66428 -3.94109,3.60544 -7.13322,4.19012 -21.27272,3.86975 -18.90973,-0.42845 -95.7399,-0.0847 -101.694917,0.17414 -2.80334,0.12183 -7.20944,0.19394 -9.8063,-0.0783 z M 187.79984,159.4377 c 9.63213,0 -39.42259,0.0714 -59.16163,-0.17797 -14.7744,-0.18666 -41.191564,-1.23912 -44.046587,-4.96301 -1.2749,-1.66289 -0.7541,-6.92721 0.60531,-8.51 1.25803,-1.46475 1.92509,-1.48243 64.467317,-1.70824 67.57887,-0.24399 65.1615,-0.36354 67.59004,3.3429 1.71035,2.61032 1.6756,7.41241 -0.0633,8.74413 -3.99766,3.06157 -40.19164,3.27219 -29.3912,3.27219 z M 141.31074,40.340781 C 94.887913,39.988305 91.373452,39.807619 88.465703,38.612924 c -4.511589,-1.853658 -4.23918,-9.279296 -1.45279,-11.886374 1.608294,-1.504796 2.13968,-1.506366 61.593007,-1.761003 57.09495,-0.244536 60.05544,-0.193386 61.98561,1.070884 2.16589,1.418664 4.08483,5.160624 4.08483,7.965462 0,4.399259 -6.57434,6.741634 -16.61676,6.883682 -3.49194,0.04939 -29.38203,-0.337006 -56.74886,-0.544794 z"
     id="path4612" />
</svg>
