<?xml version="1.0" encoding="UTF-8" standalone="no"?>
<svg
   xmlns:dc="http://purl.org/dc/elements/1.1/"
   xmlns:cc="http://creativecommons.org/ns#"
   xmlns:rdf="http://www.w3.org/1999/02/22-rdf-syntax-ns#"
   xmlns:svg="http://www.w3.org/2000/svg"
   xmlns="http://www.w3.org/2000/svg"
   version="1.1"
   id="svg98"
   width="300"
   height="300"
   viewBox="0 0 300 300">
  <metadata
     id="metadata104">
    <rdf:RDF>
      <cc:Work
         rdf:about="">
        <dc:format>image/svg+xml</dc:format>
        <dc:type
           rdf:resource="http://purl.org/dc/dcmitype/StillImage" />
        <dc:title></dc:title>
      </cc:Work>
    </rdf:RDF>
  </metadata>
  <defs
     id="defs102" />
  <path
     style="fill:#000000;stroke-width:0.73937285"
     d="m 135.71518,284.10406 c -0.68528,-0.52601 -1.70186,-3.37964 -2.35944,-6.62319 -0.98465,-4.85678 -1.1554,-13.62943 -1.1554,-59.36381 0,-32.35144 0.30771,-56.51633 0.77479,-60.84458 0.93906,-13.25394 2.11839,-31.95948 13.13101,-37.71756 9.06443,-4.74116 16.35676,-5.03676 26.39297,-5.8613 11.42136,-0.93835 16.26766,-1.58198 18.79684,-8.37077 6.10883,-22.770928 -2.85591,-28.692681 -21.70823,-28.813951 -18.94931,-0.740856 -23.49931,-13.251304 -23.62349,-27.340559 -0.34179,-7.281643 0.34004,-12.978388 0.35532,-21.351017 l -41.01739,-0.230241 c -40.324379,-0.226351 -41.052644,-0.25646 -43.104029,-1.782108 -4.325967,-4.491046 -2.104866,-8.831028 2.148388,-9.757883 6.65193,-1.202048 165.384571,-1.466033 169.565751,-0.280206 4.28901,1.215684 8.98303,7.281997 4.25776,9.18408 -7.4289,2.957448 -10.50507,3.061791 -45.15627,2.889977 -25.79871,-0.127921 -26.42628,-0.167296 -33.56294,-0.0056 -0.66228,9.980163 -3.96361,29.989769 5.93652,35.633286 10.38968,4.618379 25.28449,0.683728 32.81489,7.144635 6.07743,5.349568 9.82078,11.238892 9.41414,24.646951 -1.81772,25.433016 -16.09417,28.469846 -33.27178,29.371486 -24.27713,1.05415 -27.62553,5.14383 -28.06937,32.27725 13.68102,0.60164 18.69519,0.94315 26.51424,0.95151 24.20005,0.006 28.02241,0.80119 29.3161,6.09932 0.93948,4.30598 -17.72294,6.13257 -26.6519,6.16669 -9.70715,0.0368 -19.41339,0.0906 -29.11819,0.29899 l -0.2541,54.15906 c -0.26719,56.94686 -0.32944,57.99159 -3.55896,59.71997 -1.88098,1.00666 -5.36843,0.90397 -6.80723,-0.20045 z"
     id="path110" />
</svg>
