<?xml version="1.0" encoding="UTF-8" standalone="no"?>
<!-- Created with Inkscape (http://www.inkscape.org/) -->

<svg
   xmlns:dc="http://purl.org/dc/elements/1.1/"
   xmlns:cc="http://creativecommons.org/ns#"
   xmlns:rdf="http://www.w3.org/1999/02/22-rdf-syntax-ns#"
   xmlns:svg="http://www.w3.org/2000/svg"
   xmlns="http://www.w3.org/2000/svg"
   xmlns:sodipodi="http://sodipodi.sourceforge.net/DTD/sodipodi-0.dtd"
   xmlns:inkscape="http://www.inkscape.org/namespaces/inkscape"
   width="300"
   height="300"
   id="svg2"
   version="1.1"
   inkscape:version="0.48.2 r9819"
   sodipodi:docname="Nouveau document 1">
  <defs
     id="defs4" />
  <sodipodi:namedview
     id="base"
     pagecolor="#ffffff"
     bordercolor="#666666"
     borderopacity="1.0"
     inkscape:pageopacity="0.0"
     inkscape:pageshadow="2"
     inkscape:zoom="1.4"
     inkscape:cx="36.686191"
     inkscape:cy="112.38811"
     inkscape:document-units="px"
     inkscape:current-layer="layer1"
     showgrid="false"
     inkscape:window-width="1280"
     inkscape:window-height="999"
     inkscape:window-x="0"
     inkscape:window-y="24"
     inkscape:window-maximized="1" />
  <metadata
     id="metadata7">
    <rdf:RDF>
      <cc:Work
         rdf:about="">
        <dc:format>image/svg+xml</dc:format>
        <dc:type
           rdf:resource="http://purl.org/dc/dcmitype/StillImage" />
        <dc:title></dc:title>
      </cc:Work>
    </rdf:RDF>
  </metadata>
  <g
     inkscape:label="Calque 1"
     inkscape:groupmode="layer"
     id="layer1"
     transform="translate(0,-752.36218)">
    <path
       style="fill:#000000"
       d="m 230.15231,1031.2193 c -9.65503,-17.2529 -10.00075,-37.59597 -15.05966,-56.33444 -3.99247,-19.69414 -6.23553,-39.90587 -13.24793,-58.8518 -9.47326,-9.02944 -22.1328,5.38519 -33.49233,4.3471 -28.1935,5.39934 -56.86713,7.75065 -85.509077,9.10632 -11.477942,5.97917 -23.892108,-11.75656 -7.179657,-13.64228 9.903821,-4.37083 26.320294,4.36224 31.495374,-7.53653 5.94182,-11.85193 7.27286,-25.27156 10.63224,-37.91285 2.43464,-16.7602 -17.46769,-15.64867 -28.540829,-14.14068 -9.251495,0.0679 -32.636834,7.35144 -30.470877,-8.07115 10.860756,-3.50369 22.939535,-3.21033 34.375954,-4.15588 10.518382,-2.26031 25.091212,2.71349 32.510542,-6.12911 4.8031,-9.87272 3.39722,-21.54485 3.40037,-32.07569 -10.02016,-1.51259 -20.93785,0.10772 -31.297702,-0.17556 -8.511426,-1.91015 -25.105012,4.71999 -27.759182,-5.3068 7.48169,-7.65466 19.53222,-5.30376 29.281998,-5.98134 32.595366,-0.14659 65.197876,0.73115 97.778316,1.35909 13.87815,-0.12209 25.47586,9.37141 32.01942,20.92262 6.0292,11.52029 2.45284,24.86706 3.49041,37.26993 -0.20931,13.18335 -0.25903,26.99966 -5.27924,39.3408 -9.07549,6.09929 -8.73391,15.72014 -6.06694,25.18231 4.42422,25.08713 14.4782,48.93414 16.98946,74.40691 1.23622,12.62093 8.84568,25.40493 5.08243,38.03863 -2.53383,6.4488 -10.02475,6.3981 -13.15309,0.3404 z M 161.10577,906.8748 c 11.18022,-4.49985 29.94402,-4.88189 32.90075,-18.8839 -1.83059,-13.64172 -16.66377,-19.55822 -28.03751,-23.63795 -10.54986,-4.18629 -31.72066,-9.5582 -31.30701,8.26459 -0.74114,11.56319 -7.74413,21.81574 -7.52816,33.58629 4.21801,12.31673 22.39698,1.71464 32.04401,1.13117 l 1.92792,-0.4602 z m 52.79663,-55.43658 c -0.33275,-12.59332 1.85791,-29.15487 -10.52736,-36.9216 -15.52911,-7.64269 -33.33395,-5.494 -50.01744,-7.46571 -6.74987,8.15649 -7.86157,23.03803 -11.2001,34.01136 3.58941,6.85439 18.04423,5.54503 25.67321,8.59087 18.10648,0.34186 31.66164,14.40504 41.17806,28.39306 6.30659,-7.26659 3.58412,-17.89715 4.89363,-26.60798 z"
       id="path2996"
       inkscape:connector-curvature="0" />
  </g>
</svg>
