<?xml version="1.0" encoding="UTF-8" standalone="no"?>
<svg
   xmlns:dc="http://purl.org/dc/elements/1.1/"
   xmlns:cc="http://creativecommons.org/ns#"
   xmlns:rdf="http://www.w3.org/1999/02/22-rdf-syntax-ns#"
   xmlns:svg="http://www.w3.org/2000/svg"
   xmlns="http://www.w3.org/2000/svg"
   viewBox="0 0 300 300"
   height="300"
   width="300"
   id="svg190"
   version="1.1">
  <metadata
     id="metadata196">
    <rdf:RDF>
      <cc:Work
         rdf:about="">
        <dc:format>image/svg+xml</dc:format>
        <dc:type
           rdf:resource="http://purl.org/dc/dcmitype/StillImage" />
        <dc:title></dc:title>
      </cc:Work>
    </rdf:RDF>
  </metadata>
  <defs
     id="defs194" />
  <path
     id="path200"
     d="m 56.451925,268.53589 c -2.7618,-0.69763 -5.09469,-1.35138 -5.18421,-1.45278 -0.0895,-0.10141 -0.38761,-1.85519 -0.66242,-3.89732 l -0.49966,-3.71295 2.89183,-1.15708 c 6.07014,-2.42879 12.19514,-2.91004 30.67375,-2.4101 9.81173,0.26545 21.671445,0.26378 26.354925,-0.004 l 8.51544,-0.48636 -0.09,-93.77416 c -0.0957,-99.679042 -0.0868,-99.406874 -3.52409,-107.425802 -2.14094,-4.994599 -7.21613,-7.636736 -18.322275,-9.538555 l -2.6406,-0.452176 -0.47688,20.901051 c -0.26229,11.495579 -1.26789,32.995477 -2.23466,47.777562 -1.73486,26.52631 -1.81986,27.21252 -6.52319,52.66343 -8.50279,46.01075 -9.74129,51.28147 -13.75196,58.52458 -2.82161,5.0957 -5.19514,7.00719 -8.84755,7.12526 -2.64168,0.0854 -2.77958,-0.0318 -3.74122,-3.1801 -1.32305,-4.3315 -0.72694,-9.24744 2.08472,-17.192 3.63025,-10.25754 4.58762,-14.39614 9.63384,-41.64577 4.07403,-21.99981 5.04133,-28.88063 6.58646,-46.8523 2.11221,-24.567415 3.8156,-76.411125 2.55214,-77.675738 -0.46478,-0.465203 -4.98152,-0.823349 -11.30751,-0.896607 -8.26477,-0.09571 -10.91438,-0.371489 -12.30152,-1.280375 -2.10514,-1.379339 -2.85128,-3.854036 -2.20335,-7.307782 0.43648,-2.326618 0.79297,-2.619004 4.51114,-3.699905 5.7162,-1.661745 43.449105,-1.140361 49.900415,0.689512 7.24488,2.054962 11.23006,4.135707 14.30025,7.466471 4.07996,4.426242 5.77719,8.820135 6.55291,16.964666 1.16823,12.26565 3.55848,118.335808 3.57853,158.801868 l 0.0195,39.30908 10.71429,0.47889 c 5.89286,0.26338 13.24758,0.67643 16.34382,0.91788 l 5.62954,0.439 0.005,-16.25602 c 0.0129,-42.71325 1.5397,-161.229273 2.1933,-170.25118 1.3267,-18.312735 5.15097,-29.15276 11.81917,-33.501814 4.48582,-2.925686 11.78568,-5.306975 18.67028,-6.090435 4.97413,-0.566052 34.90286,0.266259 42.71105,1.187785 2.6642,0.314428 3.29184,0.723255 4.27475,2.784427 0.6611,1.386356 0.96208,3.172817 0.70626,4.192086 -0.63374,2.524994 -9.25444,4.995636 -19.08238,5.468894 l -7.34673,0.353777 -0.37272,16.071405 c -1.02953,44.385265 4.01995,91.544745 14.35932,134.110135 2.91449,11.99841 5.19932,23.2483 5.72136,28.17032 l 0.86912,8.19454 -1.85231,0.38615 c -1.01877,0.21239 -2.56041,0.52844 -3.42587,0.70235 -1.21396,0.24393 -2.14761,-0.47198 -4.08554,-3.13275 -5.76508,-7.91543 -7.83667,-14.72327 -12.43295,-40.85814 -8.5247,-48.47219 -10.17088,-62.13007 -11.66867,-96.811765 -2.07708,-48.094956 -1.88527,-45.535646 -3.47645,-46.387219 -1.65734,-0.88698 -4.93801,-0.40756 -11.24189,1.642836 -4.51136,1.46736 -4.53668,1.491214 -7.10793,6.693774 -4.90107,9.916636 -4.65399,4.215093 -4.68253,108.050584 l -0.0259,94.13251 32.86925,0.68374 c 37.87978,0.78797 37.08727,0.65598 37.44743,6.23647 0.19989,3.09734 0.0352,3.50157 -1.81598,4.45807 -5.41279,2.79669 -6.03557,2.81533 -97.55639,2.91917 -82.471475,0.0936 -89.350505,0.008 -94.004495,-1.16746 z"
     style="fill:#000000;stroke-width:0.72639227" />
</svg>
