<?xml version="1.0" encoding="UTF-8" standalone="no"?>
<svg
   xmlns:dc="http://purl.org/dc/elements/1.1/"
   xmlns:cc="http://creativecommons.org/ns#"
   xmlns:rdf="http://www.w3.org/1999/02/22-rdf-syntax-ns#"
   xmlns:svg="http://www.w3.org/2000/svg"
   xmlns="http://www.w3.org/2000/svg"
   viewBox="0 0 300 300"
   height="300"
   width="300"
   id="svg936"
   version="1.1">
  <metadata
     id="metadata942">
    <rdf:RDF>
      <cc:Work
         rdf:about="">
        <dc:format>image/svg+xml</dc:format>
        <dc:type
           rdf:resource="http://purl.org/dc/dcmitype/StillImage" />
        <dc:title></dc:title>
      </cc:Work>
    </rdf:RDF>
  </metadata>
  <defs
     id="defs940" />
  <path
     id="path946"
     d="m 59.130555,280.95241 c -13.72439,-2.17491 -16.23766,-3.7165 -14.65749,-8.99063 1.24955,-4.17063 5.56386,-5.49692 19.37904,-5.95742 l 10.89589,-0.3632 0.84338,-17.79661 c 1.52469,-32.17323 1.939,-103.36235 0.77477,-133.12734 -0.57462,-14.691 -1.19856,-26.864688 -1.38653,-27.052663 -0.18797,-0.187969 -3.74919,0.992469 -7.91381,2.623191 -4.16463,1.630729 -8.67604,3.001736 -10.02536,3.046692 -3.01191,0.100351 -5.18005,-2.235043 -5.16017,-5.558244 0.0118,-1.97586 0.66173,-2.744528 4.86781,-5.757334 2.66979,-1.912373 9.77322,-5.963013 15.78539,-9.001429 6.01218,-3.038417 13.28854,-7.163623 16.16971,-9.167126 4.9661,-3.453317 5.27913,-3.838497 6.02007,-7.407596 0.42987,-2.070674 0.70729,-8.638672 0.61648,-14.595551 l -0.1651,-10.830688 2.35405,-4.903147 c 2.650015,-5.519588 3.213165,-5.746791 8.102045,-3.268765 5.45122,2.763056 6.15544,4.802051 6.20926,17.978208 0.084,20.574567 1.31483,22.088903 27.92011,34.351933 5.91393,2.725876 9.82293,6.080032 11.36642,9.753064 1.57995,3.759777 1.29016,4.344516 -2.61765,5.281983 -4.31094,1.034179 -6.88695,0.552428 -12.90219,-2.412908 -2.48414,-1.224603 -4.74149,-2.001676 -5.01634,-1.726831 -0.27485,0.274853 -0.65814,40.872521 -0.85176,90.217041 -0.34379,87.61623 -0.31988,89.71805 1.02118,89.74875 0.75527,0.0173 5.09171,0.47445 9.63653,1.0159 9.34496,1.11331 11.40652,2.31556 12.18378,7.10521 0.40205,2.47758 0.26691,2.70713 -2.38332,4.04822 -5.20592,2.63434 -9.51486,2.93691 -47.48265,3.33425 -29.372005,0.30738 -38.735735,0.18127 -43.583545,-0.58696 z m 53.333795,-15.42237 5.61109,-0.47431 -0.23515,-80.33682 c -0.12933,-44.18526 0.0172,-86.057173 0.32569,-93.048695 l 0.56086,-12.711864 -7.25397,-5.671553 -7.25397,-5.671553 -8.742725,6.601917 c -4.80849,3.631053 -8.74271,6.751639 -8.74271,6.934632 0,0.183 0.72496,2.869663 1.61103,5.970363 l 1.61102,5.637646 -0.16607,63.196127 c -0.0913,34.75787 -0.37054,73.73789 -0.62045,86.62228 l -0.45439,23.42615 h 9.06933 c 4.988125,0 11.594315,-0.21345 14.680415,-0.47432 z m 67.97372,15.30328 c -7.23162,-0.82953 -13.91203,-2.062 -17.97821,-3.31682 l -4.53995,-1.40102 v -3.8039 -3.8039 l 7.64208,-2.09282 c 6.29414,-1.72368 7.69545,-2.36085 7.94463,-3.61243 0.1664,-0.8358 0.98773,-13.61405 1.82516,-28.39614 2.16457,-38.20789 2.90703,-93.09228 1.67979,-124.17342 -0.53549,-13.561728 -1.12373,-24.807791 -1.3072,-24.991263 -0.18346,-0.183472 -3.03424,0.375138 -6.33505,1.241346 -9.46672,2.484284 -10.72302,2.070916 -10.72302,-3.528254 v -3.340213 l 14.34625,-6.960269 c 21.80653,-10.579724 23.27476,-12.603603 23.77134,-32.767609 0.16187,-6.573076 0.64874,-11.510325 1.34031,-13.591695 2.87012,-8.638174 3.66459,-9.341622 7.31095,-6.473393 3.79895,2.988248 4.32626,5.075683 4.84642,19.185257 0.52539,14.25143 1.93343,20.463383 5.23241,23.084253 3.81968,3.034539 11.72578,7.29538 20.398,10.993104 5.1142,2.180633 10.42233,4.82194 11.79585,5.869575 2.81298,2.145566 5.38946,6.648305 5.38946,9.418801 0,1.742179 -0.21237,1.844557 -3.81356,1.838426 -2.44171,-0.0044 -6.41891,-0.904634 -11.05612,-2.503198 -3.98341,-1.373187 -7.32671,-2.412567 -7.42954,-2.309731 -0.10284,0.102835 -0.68248,8.829152 -1.2881,19.391823 -1.29244,22.54147 -1.64511,158.6189 -0.41306,159.38035 0.38331,0.23691 5.43242,0.68003 11.22022,0.98472 11.37439,0.59878 12.40763,0.97569 14.67051,5.35162 1.71894,3.32407 1.28561,4.52008 -2.26217,6.24373 -4.71647,2.29143 -10.63349,2.91064 -32.31583,3.38183 -10.58717,0.23008 -23.33535,0.54759 -28.3293,0.7056 -4.99394,0.158 -10.22397,0.15603 -11.62227,-0.004 z m 32.80498,-16.73755 2.65971,-0.43982 0.42435,-83.63209 c 0.23339,-45.99765 0.58887,-87.391175 0.78995,-91.985606 l 0.36561,-8.353511 -7.24411,-6.023781 -7.24412,-6.023782 -7.69146,5.297389 -7.69147,5.297389 0.39551,10.169492 c 0.21754,5.59322 0.93871,29.78208 1.60261,53.75303 l 1.2071,43.58353 -1.92487,34.50364 c -1.05868,18.97699 -2.11954,36.71004 -2.35749,39.40677 l -0.43261,4.90315 12.24079,-0.008 c 6.73244,-0.004 13.43766,-0.20591 14.9005,-0.4478 z"
     style="fill:#000000;stroke-width:0.72639227" />
</svg>
