<?xml version="1.0" encoding="UTF-8" standalone="no"?>
<!-- Created with Inkscape (http://www.inkscape.org/) -->

<svg
   xmlns:dc="http://purl.org/dc/elements/1.1/"
   xmlns:cc="http://creativecommons.org/ns#"
   xmlns:rdf="http://www.w3.org/1999/02/22-rdf-syntax-ns#"
   xmlns:svg="http://www.w3.org/2000/svg"
   xmlns="http://www.w3.org/2000/svg"
   xmlns:sodipodi="http://sodipodi.sourceforge.net/DTD/sodipodi-0.dtd"
   xmlns:inkscape="http://www.inkscape.org/namespaces/inkscape"
   width="300"
   height="300"
   id="svg2"
   version="1.1"
   inkscape:version="0.48.4 r9939"
   sodipodi:docname="image-seal.svg">
  <defs
     id="defs4" />
  <sodipodi:namedview
     id="base"
     pagecolor="#ffffff"
     bordercolor="#666666"
     borderopacity="1.0"
     inkscape:pageopacity="0.0"
     inkscape:pageshadow="2"
     inkscape:zoom="2.0018437"
     inkscape:cx="138.54008"
     inkscape:cy="168.92159"
     inkscape:document-units="px"
     inkscape:current-layer="layer1"
     showgrid="false"
     inkscape:window-width="1215"
     inkscape:window-height="1000"
     inkscape:window-x="65"
     inkscape:window-y="24"
     inkscape:window-maximized="1"
     fit-margin-top="10"
     fit-margin-left="10"
     fit-margin-right="10"
     fit-margin-bottom="10" />
  <metadata
     id="metadata7">
    <rdf:RDF>
      <cc:Work
         rdf:about="">
        <dc:format>image/svg+xml</dc:format>
        <dc:type
           rdf:resource="http://purl.org/dc/dcmitype/StillImage" />
        <dc:title />
      </cc:Work>
    </rdf:RDF>
  </metadata>
  <g
     inkscape:label="Calque 1"
     inkscape:groupmode="layer"
     id="layer1"
     transform="translate(0,-752.36218)">
    <path
       style="fill:#000000"
       d="m 190.27059,1034.1782 c -0.66714,-30.5139 -2.16653,-58.384 -3.29985,-61.33745 -0.66827,-1.74145 -0.12381,-3.84075 1.21011,-4.66512 1.33385,-0.82434 2.21851,-9.05346 1.96596,-18.28693 -0.25256,-9.23347 -0.23932,-42.66147 0.0294,-74.28444 0.26875,-31.623 -0.0477,-58.0326 -0.70305,-58.68803 -0.65543,-0.65544 -4.06947,-0.46943 -7.58677,0.41337 -6.28753,1.57807 -6.39817,2.01593 -6.58044,26.04183 -0.91045,120.00494 -1.6295,144.02903 -4.39357,146.79311 -6.38148,6.38147 -8.32342,-2.51109 -8.68783,-39.78341 -0.56277,-57.56161 2.28586,-130.12354 5.33183,-135.81498 1.50466,-2.81148 1.92798,-6.00659 0.94068,-7.10021 -0.98729,-1.09365 -0.46058,-1.22378 1.17047,-0.28922 1.63103,0.93456 3.58513,0.69667 4.34242,-0.52867 0.75726,-1.22531 4.79057,-2.91058 8.96286,-3.74504 7.34511,-1.46903 7.5952,-1.97768 7.87566,-16.01963 0.36466,-18.25675 0.41641,-18.59876 3.63407,-24.02151 3.76421,-6.34386 11.08913,-2.86852 11.36687,5.39307 0.1228,3.65047 0.0304,12.16387 -0.20491,18.91861 -0.45816,13.14478 1.98616,16.49285 12.08955,16.5595 11.36564,0.0751 14.26038,6.41753 14.25922,31.24297 -0.005,102.40764 -1.41686,146.35379 -4.85237,151.00853 -2.91182,3.94521 -4.21362,4.26713 -6.82765,1.68831 -3.92987,-3.87694 -4.07462,-16.34019 -1.19387,-102.78832 l 2.19252,-65.79476 -6.70415,-1.6826 c -3.68726,-0.92547 -7.23451,-1.15224 -7.88279,-0.50399 -1.35369,1.35369 -3.30508,83.07368 -3.91408,163.91103 -0.42538,56.46598 -1.70147,66.54798 -8.42304,66.54798 -2.90837,0 -3.89833,-3.1699 -4.11728,-13.184 z"
       id="path3291"
       inkscape:connector-curvature="0"
       sodipodi:nodetypes="ccssscssssscssssscccsssscccsscc" />
    <path
       style="fill:#e6e6e6"
       d="m 105.40931,977.67513 c 0.24359,-36.94668 1.40055,-69.73814 2.57086,-72.86988 1.17032,-3.13178 2.25975,-16.6925 2.42097,-30.13494 0.16122,-13.44246 1.45012,-25.85341 2.86422,-27.57989 1.42747,-1.74278 1.53822,-3.13905 0.24887,-3.13905 -1.27717,0 -2.10021,-4.80276 -1.82894,-10.67279 0.67989,-14.71248 -0.98117,-19.46215 -6.80625,-19.46215 -3.34747,0 -6.336821,3.08886 -9.113751,9.41717 -3.46803,7.90326 -4.29483,22.13398 -5.1431,88.52136 -0.97517,76.31843 -2.35357,89.56904 -8.66124,83.26129 -2.87037,-2.87038 -2.48254,-135.55667 0.46453,-158.92686 2.79771,-22.18584 6.91888,-29.99471 17.728461,-33.59222 l 8.78934,-2.92517 0.74336,-19.79687 c 0.76098,-20.26599 2.60022,-24.01452 10.73857,-21.88627 4.04135,1.05683 4.56301,3.48061 3.9975,18.57347 -0.3577,9.54692 -0.0316,18.23949 0.72447,19.31679 0.75614,1.0773 5.99143,3.3059 11.63397,4.95242 7.02518,2.04998 11.21554,5.09268 13.29307,9.6524 3.13589,6.88252 4.32027,66.77022 1.4135,71.47345 -0.84772,1.37165 -0.34055,3.9407 1.12702,5.70902 1.46757,1.76831 2.15071,5.9028 1.5181,9.18774 -1.33194,6.91616 -3.85014,42.96041 -4.90785,70.24819 -0.84096,21.69647 -2.70127,27.62369 -8.66987,27.62369 -4.58325,0 -4.8348,-15.51721 -1.75064,-107.98351 1.82854,-54.82069 1.99509,-70.68618 0.75506,-71.92621 -0.61948,-0.6195 -4.3494,-1.3579 -8.28869,-1.64092 -8.25255,-0.5929 -8.40137,-0.0151 -8.281,32.1316 0.0414,11.04947 0.0643,21.22001 0.0507,22.6012 -0.0126,1.38118 -0.59921,10.98669 -1.3017,21.34557 -1.78811,26.36717 -3.84,67.57279 -5.56471,111.75044 -1.37234,35.1512 -3.15342,43.9468 -8.89917,43.9468 -1.35783,0 -2.1264,-27.6701 -1.86585,-67.17587 z"
       id="path3291-0"
       inkscape:connector-curvature="0"
       sodipodi:nodetypes="cssssssssssscssscsssssssscsscssscc" />
  </g>
</svg>
