<?xml version="1.0" encoding="UTF-8" standalone="no"?>
<!-- Created with Inkscape (http://www.inkscape.org/) -->

<svg
   xmlns:dc="http://purl.org/dc/elements/1.1/"
   xmlns:cc="http://creativecommons.org/ns#"
   xmlns:rdf="http://www.w3.org/1999/02/22-rdf-syntax-ns#"
   xmlns:svg="http://www.w3.org/2000/svg"
   xmlns="http://www.w3.org/2000/svg"
   xmlns:sodipodi="http://sodipodi.sourceforge.net/DTD/sodipodi-0.dtd"
   xmlns:inkscape="http://www.inkscape.org/namespaces/inkscape"
   version="1.0"
   width="300"
   height="300"
   id="svg2"
   inkscape:version="0.48.3.1 r9886"
   sodipodi:docname="dessin.svg">
  <metadata
     id="metadata2990">
    <rdf:RDF>
      <cc:Work
         rdf:about="">
        <dc:format>image/svg+xml</dc:format>
        <dc:type
           rdf:resource="http://purl.org/dc/dcmitype/StillImage" />
      </cc:Work>
    </rdf:RDF>
  </metadata>
  <sodipodi:namedview
     pagecolor="#ffffff"
     bordercolor="#666666"
     borderopacity="1"
     objecttolerance="10"
     gridtolerance="10"
     guidetolerance="10"
     inkscape:pageopacity="0"
     inkscape:pageshadow="2"
     inkscape:window-width="1215"
     inkscape:window-height="1000"
     id="namedview2988"
     showgrid="false"
     inkscape:zoom="2.2250294"
     inkscape:cx="124.56767"
     inkscape:cy="138.09744"
     inkscape:window-x="65"
     inkscape:window-y="24"
     inkscape:window-maximized="1"
     inkscape:current-layer="svg2" />
  <defs
     id="defs5" />
  <path
     style="fill:#000000"
     d="m 135.87387,242.45801 c 0,-28.95014 -1.09971,-47.38608 -2.88546,-48.37216 -1.587,-0.87633 -2.15044,-2.65596 -1.25201,-3.9547 0.97827,-1.41428 -14.23694,-2.36141 -37.93474,-2.36141 -41.57832,0 -48.286065,-1.73686 -44.124877,-11.42542 1.741115,-4.0539 5.738285,-4.34875 44.055975,-3.24987 l 42.141112,1.20856 0,-15.04514 0,-15.04517 -30.52098,0.55625 c -37.53895,0.68414 -37.618873,0.67646 -37.618873,-3.61716 0,-7.21243 8.179423,-9.32338 37.996863,-9.80626 l 30.14299,-0.48815 0,-12.13068 c 0,-12.06642 -0.0502,-12.13065 -9.50084,-12.13065 -11.79962,0 -25.51872,-5.92403 -30.986896,-13.38039 -4.608721,-6.284417 -8.314904,-27.574172 -7.798858,-44.799823 0.486093,-16.22683 3.816031,-19.240268 12.594294,-11.397246 3.08265,2.754207 4.47352,8.830211 4.50029,19.659254 0.0551,22.210912 2.01371,26.726325 13.44477,30.993676 13.96597,5.21366 17.06296,4.679411 18.96397,-3.2714 1.33139,-5.568364 3.87796,-46.228951 4.36896,-69.758655 0.11523,-5.5191247 9.40303,-5.8935598 14.34048,-0.578126 2.79837,3.012587 2.99362,11.234794 0.88847,37.416 -1.48394,18.455223 -2.11478,35.100878 -1.40189,36.990373 1.55676,4.12611 22.58563,1.93414 28.00201,-2.918828 1.87428,-1.679306 4.074,-12.527486 4.88827,-24.107061 1.65095,-23.47788 2.5753,-25.874764 9.97843,-25.874764 8.28101,0 12.50497,6.574869 10.18947,15.86053 -1.12984,4.53085 -2.61943,16.228457 -3.31021,25.994667 -1.58357,22.388386 -8.06401,29.171793 -27.86898,29.171793 -14.07599,0 -24.25676,6.27407 -24.25676,14.94867 0,6.58557 5.83777,8.1441 35.45048,9.46445 26.43774,1.17877 31.12863,2.63547 28.46417,8.83926 -1.19804,2.7894 -8.43706,3.82762 -30.41659,4.36238 -15.8644,0.38597 -29.89145,1.27997 -31.17122,1.98664 -1.27977,0.70667 -2.32684,7.59923 -2.32684,15.31679 l 0,14.03196 36.8902,-1.82287 c 39.05191,-1.92968 45.44546,-0.6236 45.44546,9.28365 0,4.44026 -2.78767,4.76276 -41.16784,4.76276 l -41.16782,0 0,47.10972 c 0,48.99535 -1.24032,54.3574 -12.57343,54.3574 -3.89465,0 -4.46155,-5.94373 -4.46155,-46.77885 z"
     id="path3040"
     inkscape:connector-curvature="0" />
</svg>
