<?xml version="1.0" encoding="UTF-8" standalone="no"?>
<!-- Created with Inkscape (http://www.inkscape.org/) -->

<svg
   xmlns:dc="http://purl.org/dc/elements/1.1/"
   xmlns:cc="http://creativecommons.org/ns#"
   xmlns:rdf="http://www.w3.org/1999/02/22-rdf-syntax-ns#"
   xmlns:svg="http://www.w3.org/2000/svg"
   xmlns="http://www.w3.org/2000/svg"
   xmlns:sodipodi="http://sodipodi.sourceforge.net/DTD/sodipodi-0.dtd"
   xmlns:inkscape="http://www.inkscape.org/namespaces/inkscape"
   width="300"
   height="300"
   id="svg2"
   version="1.1"
   inkscape:version="0.47 r22583"
   sodipodi:docname="且-oracle.svg">
  <defs
     id="defs4">
    <inkscape:perspective
       sodipodi:type="inkscape:persp3d"
       inkscape:vp_x="0 : 526.18109 : 1"
       inkscape:vp_y="0 : 1000 : 0"
       inkscape:vp_z="744.09448 : 526.18109 : 1"
       inkscape:persp3d-origin="372.04724 : 350.78739 : 1"
       id="perspective10" />
    <inkscape:perspective
       id="perspective2824"
       inkscape:persp3d-origin="0.5 : 0.33333333 : 1"
       inkscape:vp_z="1 : 0.5 : 1"
       inkscape:vp_y="0 : 1000 : 0"
       inkscape:vp_x="0 : 0.5 : 1"
       sodipodi:type="inkscape:persp3d" />
    <inkscape:perspective
       id="perspective2869"
       inkscape:persp3d-origin="0.5 : 0.33333333 : 1"
       inkscape:vp_z="1 : 0.5 : 1"
       inkscape:vp_y="0 : 1000 : 0"
       inkscape:vp_x="0 : 0.5 : 1"
       sodipodi:type="inkscape:persp3d" />
  </defs>
  <sodipodi:namedview
     id="base"
     pagecolor="#ffffff"
     bordercolor="#666666"
     borderopacity="1.0"
     inkscape:pageopacity="0.0"
     inkscape:pageshadow="2"
     inkscape:zoom="1.979899"
     inkscape:cx="179.27114"
     inkscape:cy="140.34003"
     inkscape:document-units="px"
     inkscape:current-layer="layer1"
     showgrid="false"
     inkscape:window-width="1280"
     inkscape:window-height="950"
     inkscape:window-x="0"
     inkscape:window-y="25"
     inkscape:window-maximized="1" />
  <metadata
     id="metadata7">
    <rdf:RDF>
      <cc:Work
         rdf:about="">
        <dc:format>image/svg+xml</dc:format>
        <dc:type
           rdf:resource="http://purl.org/dc/dcmitype/StillImage" />
        <dc:title></dc:title>
      </cc:Work>
    </rdf:RDF>
  </metadata>
  <g
     inkscape:label="Calque 1"
     inkscape:groupmode="layer"
     id="layer1"
     transform="translate(0,-752.36217)">
    <path
       style="fill:#000000"
       d="m 229.03763,1023.6586 c -9.83392,-7.1859 -13.72099,-18.2107 -20.7934,-58.97602 -1.71636,-9.89306 -4.33033,-18.7477 -5.80882,-19.67699 -3.56445,-2.2404 -73.19785,-3.68745 -88.85565,-1.84651 -11.67018,1.3721 -12.4173,2.0642 -14.609762,13.53364 -3.587035,18.76491 -9.767054,41.19065 -14.372686,52.15478 -4.206552,10.0142 -15.108495,18.7467 -19.762512,15.83 -1.370899,-0.8592 1.988806,-15.871 7.46601,-33.35955 10.158273,-32.43509 10.436567,-35.05532 15.424863,-145.22945 2.400953,-53.02877 2.974178,-56.71602 8.817117,-56.71602 9.25345,0 15.7084,7.95549 14.83854,18.28798 -1.92288,22.84087 -5.97687,21.06599 48.11681,21.06599 27.96869,0 48.75032,-0.96304 50.08966,-2.3212 2.16714,-2.19759 8.39635,-21.22636 10.22843,-31.24542 0.53207,-2.90972 3.59131,-4.62988 8.23409,-4.62988 6.36659,0 7.31888,1.43958 6.89102,10.41723 -0.27304,5.72947 -2.46291,15.62584 -4.86633,21.99193 -2.40342,6.36608 -5.02726,14.69986 -5.83076,18.51951 -1.96469,9.33975 -1.77127,106.98841 0.22927,115.747 0.87244,3.81965 3.03674,13.79846 4.80956,22.17514 1.77281,8.37668 6.16209,21.08594 9.75397,28.24274 5.81648,11.5894 5.92236,13.3936 0.96814,16.4986 -4.95421,3.1049 -6.15362,3.0542 -10.96755,-0.4635 z m -28.26225,-95.74459 c 2.95707,-2.92428 4.01011,-17.86374 4.78859,-67.93587 l 0.32391,-20.83446 -38.78427,-0.67499 c -47.21616,-0.82174 -53.90546,0.0851 -56.96399,7.72239 -2.68124,6.69519 -5.3657,31.51741 -6.74579,62.37579 l -0.93067,20.80944 10.81015,1.18248 c 22.47184,2.45812 84.22953,0.59147 87.50207,-2.64478 z m -77.61145,-43.35246 c -2.83548,-1.16832 -4.13429,-3.79193 -2.88623,-5.83025 1.861,-3.03942 8.60202,-3.70605 37.47564,-3.70605 32.0807,0 35.20645,0.38907 35.20645,4.38221 0,2.41021 -2.07772,4.82983 -4.61717,5.37692 -9.32844,2.00969 -60.18235,1.83583 -65.17869,-0.22284 z"
       id="path2875" />
  </g>
</svg>
