<?xml version="1.0" encoding="UTF-8" standalone="no"?>
<!-- Created with Inkscape (http://www.inkscape.org/) -->

<svg
   xmlns:dc="http://purl.org/dc/elements/1.1/"
   xmlns:cc="http://creativecommons.org/ns#"
   xmlns:rdf="http://www.w3.org/1999/02/22-rdf-syntax-ns#"
   xmlns:svg="http://www.w3.org/2000/svg"
   xmlns="http://www.w3.org/2000/svg"
   xmlns:sodipodi="http://sodipodi.sourceforge.net/DTD/sodipodi-0.dtd"
   xmlns:inkscape="http://www.inkscape.org/namespaces/inkscape"
   width="300"
   height="300"
   id="svg2"
   version="1.1"
   inkscape:version="0.48.2 r9819"
   sodipodi:docname="丸-bigseal.svg">
  <defs
     id="defs4" />
  <sodipodi:namedview
     id="base"
     pagecolor="#ffffff"
     bordercolor="#666666"
     borderopacity="1.0"
     inkscape:pageopacity="0.0"
     inkscape:pageshadow="2"
     inkscape:zoom="1.979899"
     inkscape:cx="199.55768"
     inkscape:cy="171.39479"
     inkscape:document-units="px"
     inkscape:current-layer="layer1"
     showgrid="false"
     inkscape:window-width="1280"
     inkscape:window-height="999"
     inkscape:window-x="0"
     inkscape:window-y="24"
     inkscape:window-maximized="1" />
  <metadata
     id="metadata7">
    <rdf:RDF>
      <cc:Work
         rdf:about="">
        <dc:format>image/svg+xml</dc:format>
        <dc:type
           rdf:resource="http://purl.org/dc/dcmitype/StillImage" />
        <dc:title></dc:title>
      </cc:Work>
    </rdf:RDF>
  </metadata>
  <g
     inkscape:label="Calque 1"
     inkscape:groupmode="layer"
     id="layer1"
     transform="translate(0,-752.36218)">
    <path
       style="fill:#000000"
       d="m 70.432513,1012.5346 c -4.960849,-13.06145 -2.288668,-27.85576 -2.328381,-41.60954 1.396899,-17.16198 1.73657,-34.87748 7.448076,-51.26103 5.244064,-12.38125 11.591379,-28.33212 27.362862,-31.1699 6.34346,-3.90147 26.86557,-8.48254 9.43555,-14.98819 -12.710841,-5.01537 -22.489527,-14.76276 -32.161112,-24.05677 1.129641,-18.33546 -0.203789,-37.02133 3.470492,-55.04829 14.913257,-9.92123 13.551987,18.99396 14.289995,28.47803 -0.009,14.61493 -0.931908,33.80225 17.180455,37.62743 12.73916,3.36199 24.2108,12.22568 38.41665,9.54955 14.78212,-4.00347 30.97927,-6.75504 43.26548,-16.45205 9.39662,-14.36808 10.79521,-32.76108 11.50029,-49.54548 -2.71544,-17.75751 21.03836,-14.34899 18.33841,0.54555 -2.40898,18.02357 -4.20516,37.22828 -13.81685,53.07578 -9.22,6.23901 -27.4041,10.62211 -32.06045,18.19348 17.17972,8.74959 41.26001,10.23092 50.18084,29.98343 5.92224,17.41493 5.55814,36.23148 8.9357,54.21249 1.04685,15.77408 3.82788,31.76386 1.79128,47.51751 -14.34086,12.3658 -15.35514,-15.84119 -15.74782,-25.52547 -2.84656,-24.14441 -2.06713,-49.32711 -10.52403,-72.40043 -7.1573,-13.8211 -24.52618,-16.60882 -38.04944,-20.70873 -11.73914,-1.19719 -22.58853,-9.744 -35.03865,-5.72149 -16.9305,5.81254 -35.52634,12.24122 -47.041545,26.6724 -9.475344,18.61903 -6.662435,40.53085 -8.365615,60.75405 -2.475393,14.27494 2.792999,33.29847 -6.85306,44.52757 -3.372095,0.2601 -6.859686,-0.7141 -9.629127,-2.6499 z"
       id="path3196"
       inkscape:connector-curvature="0" />
  </g>
</svg>
