<?xml version="1.0" encoding="UTF-8" standalone="no"?>
<svg
   xmlns:dc="http://purl.org/dc/elements/1.1/"
   xmlns:cc="http://creativecommons.org/ns#"
   xmlns:rdf="http://www.w3.org/1999/02/22-rdf-syntax-ns#"
   xmlns:svg="http://www.w3.org/2000/svg"
   xmlns="http://www.w3.org/2000/svg"
   viewBox="0 0 300 300"
   height="300"
   width="300"
   id="svg32"
   version="1.1">
  <metadata
     id="metadata38">
    <rdf:RDF>
      <cc:Work
         rdf:about="">
        <dc:format>image/svg+xml</dc:format>
        <dc:type
           rdf:resource="http://purl.org/dc/dcmitype/StillImage" />
        <dc:title></dc:title>
      </cc:Work>
    </rdf:RDF>
  </metadata>
  <defs
     id="defs36" />
  <path
     id="path42"
     d="m 58.28094,284.90094 c -2.186686,-0.60858 -3.260301,-3.319 -2.632433,-6.64579 1.093631,-3.86716 13.394331,-7.23998 24.465594,-11.0694 C 131.51456,248.53734 197.20749,228.84181 224.90758,189.92394 241.81072,162.03271 224.54644,153.09347 202.49801,134.39375 185.1616,120.96722 166.13268,102.42856 186.60718,83.883194 200.70957,71.773536 225.28895,48.693004 202.869,36.309576 160.01169,17.83421 116.24231,29.109873 74.496103,34.679554 56.284895,36.22641 54.076284,27.106522 67.803675,22.882745 100.77356,15.87932 135.37251,13.155144 172.69835,16.28996 c 28.22818,2.632433 45.71993,10.425023 51.43842,22.915853 7.09571,24.077178 -18.8936,40.171152 -27.99894,53.071586 -11.81695,15.538511 6.73879,24.457541 16.9378,32.593451 17.35108,14.85586 31.18959,23.5997 31.45352,46.71106 -0.34069,47.62701 -80.63585,78.40377 -115.14584,91.83524 -25.72658,9.15814 -61.898728,22.88248 -71.10242,21.48379 z"
     style="fill:#000000;stroke-width:0.72191757" />
</svg>
