<?xml version="1.0" encoding="UTF-8" standalone="no"?>
<!-- Created with Inkscape (http://www.inkscape.org/) -->

<svg
   xmlns:dc="http://purl.org/dc/elements/1.1/"
   xmlns:cc="http://creativecommons.org/ns#"
   xmlns:rdf="http://www.w3.org/1999/02/22-rdf-syntax-ns#"
   xmlns:svg="http://www.w3.org/2000/svg"
   xmlns="http://www.w3.org/2000/svg"
   xmlns:sodipodi="http://sodipodi.sourceforge.net/DTD/sodipodi-0.dtd"
   xmlns:inkscape="http://www.inkscape.org/namespaces/inkscape"
   width="300"
   height="300"
   id="svg2"
   version="1.1"
   inkscape:version="0.48.2 r9819"
   sodipodi:docname="Nouveau document 1">
  <defs
     id="defs4" />
  <sodipodi:namedview
     id="base"
     pagecolor="#ffffff"
     bordercolor="#666666"
     borderopacity="1.0"
     inkscape:pageopacity="0.0"
     inkscape:pageshadow="2"
     inkscape:zoom="3.959798"
     inkscape:cx="125.83286"
     inkscape:cy="142.98176"
     inkscape:document-units="px"
     inkscape:current-layer="layer1"
     showgrid="false"
     inkscape:window-width="1280"
     inkscape:window-height="999"
     inkscape:window-x="0"
     inkscape:window-y="24"
     inkscape:window-maximized="1" />
  <metadata
     id="metadata7">
    <rdf:RDF>
      <cc:Work
         rdf:about="">
        <dc:format>image/svg+xml</dc:format>
        <dc:type
           rdf:resource="http://purl.org/dc/dcmitype/StillImage" />
        <dc:title></dc:title>
      </cc:Work>
    </rdf:RDF>
  </metadata>
  <g
     inkscape:label="Calque 1"
     inkscape:groupmode="layer"
     id="layer1"
     transform="translate(0,-752.36218)">
    <path
       style="fill:#000000"
       d="m 213.77655,1027.4422 c -7.4559,-20.6377 -4.48677,-44.13197 -14.96606,-63.92961 -6.15452,-7.87917 -17.07335,-9.41808 -26.12703,-12.36165 -13.61894,-2.48699 -27.60769,-10.63392 -31.37273,-24.81674 -3.41386,-12.23181 -4.1769,-25.00972 -3.88453,-37.64217 -17.3085,0.69286 -34.89004,0.46842 -51.922503,3.811 -7.734148,7.0049 -26.324534,-5.21435 -13.407768,-10.81686 21.271512,-5.21293 43.389741,-3.59479 65.117541,-4.0095 0.0185,-19.31391 0.75595,-38.63703 1.08848,-57.92307 -2.87338,-8.74484 -13.14874,5.77679 -18.4229,8.19607 -4.29529,6.2828 -25.583287,11.92293 -19.932859,-1.14707 8.270249,-11.4389 21.730889,-17.26674 31.902619,-26.5957 4.45846,-9.5072 19.38702,-13.06491 24.22703,-1.80723 0.99646,16.132 -2.86485,32.21421 -2.10344,48.40148 -0.0488,9.25086 -0.25506,18.49962 -0.50401,27.74694 20.71102,-0.22596 41.44457,-1.57046 62.14216,-0.57454 10.2441,-1.11064 10.73615,12.28815 0.25149,11.21589 -21.04494,1.63596 -42.25041,0.0907 -63.26678,2.45323 -2.0568,14.61398 1.99747,29.46422 7.06031,43.0651 6.24472,6.66349 16.39785,7.80692 24.78428,10.67546 11.90714,2.17577 24.3144,8.03487 29.0952,19.94051 7.05198,17.15512 8.8561,35.99648 10.2096,54.33616 0.40449,6.2294 -0.57855,19.4762 -9.9681,11.7823 z"
       id="path2996"
       inkscape:connector-curvature="0" />
  </g>
</svg>
