<?xml version="1.0" encoding="UTF-8" standalone="no"?>
<svg
   xmlns:dc="http://purl.org/dc/elements/1.1/"
   xmlns:cc="http://creativecommons.org/ns#"
   xmlns:rdf="http://www.w3.org/1999/02/22-rdf-syntax-ns#"
   xmlns:svg="http://www.w3.org/2000/svg"
   xmlns="http://www.w3.org/2000/svg"
   viewBox="0 0 300 300"
   height="300"
   width="300"
   id="svg511"
   version="1.1">
  <metadata
     id="metadata517">
    <rdf:RDF>
      <cc:Work
         rdf:about="">
        <dc:format>image/svg+xml</dc:format>
        <dc:type
           rdf:resource="http://purl.org/dc/dcmitype/StillImage" />
        <dc:title></dc:title>
      </cc:Work>
    </rdf:RDF>
  </metadata>
  <defs
     id="defs515" />
  <path
     id="path521"
     d="m 81.978113,284.99392 c -15.054852,0.0309 -16.081854,-0.0442 -22.747912,-0.49916 -8.223121,-0.56119 -7.765617,-8.59893 -4.056272,-10.29609 2.93094,-1.34102 5.792902,-1.38825 45.662661,-1.58856 l 42.51287,-0.21357 0.0229,-34.2801 C 121.2222,235.94408 103.81792,230.75203 97.537315,209.15443 89.420737,181.24332 87.357884,148.55014 86.749524,122.81881 86.097484,95.239969 86.011267,57.237945 86.289511,52.746062 c 0.548891,-8.861157 2.011582,-11.86569 6.86384,-11.708852 4.574274,0.147853 5.157294,11.307853 5.061134,15.496884 0.34715,30.98438 0.43841,62.005976 1.887615,92.960326 0.85646,16.93788 3.57688,37.59154 6.1398,46.61407 3.85387,13.56703 9.45816,22.57459 17.47216,26.01245 6.26624,2.68811 12.95942,3.83517 19.67721,3.91023 l 0.70399,-147.241898 c -0.24258,-28.863511 0.1742,-49.152051 0.29593,-51.806122 0.34849,-7.59778 0.64198,-12.986884 6.52223,-11.825578 4.59962,0.908394 4.32617,4.206577 4.56398,8.367405 0.21984,3.846167 0.57344,47.067015 0.83662,96.046073 l 0.48254,89.80534 c 24.4295,1.75489 34.48334,-6.22058 40.88678,-26.65042 5.18658,-16.5475 6.06163,-28.88468 6.08654,-88.729665 0.0121,-28.841642 0.56506,-44.052293 0.80778,-46.009939 0.78662,-6.344488 4.2778,-7.193282 7.02786,-6.949106 4.7868,0.425018 4.19626,7.754292 4.06664,26.31603 l -0.29989,42.94945 c -0.28812,41.2624 -1.00001,56.08072 -6.88084,76.15345 -8.94476,30.5307 -24.9545,33.72042 -51.65077,34.62021 l 0.10202,50.74828 c 0,0 19.86789,0.29386 43.20976,0.54409 46.52882,0.49881 44.81433,0.20241 46.7928,4.91068 3.58952,8.54215 -16.26888,7.41401 -20.50521,7.4181 z"
     style="fill:#000000;stroke-width:0.72546631" />
</svg>
