<?xml version="1.0" encoding="UTF-8" standalone="no"?>
<!-- Created with Inkscape (http://www.inkscape.org/) -->

<svg
   xmlns:dc="http://purl.org/dc/elements/1.1/"
   xmlns:cc="http://creativecommons.org/ns#"
   xmlns:rdf="http://www.w3.org/1999/02/22-rdf-syntax-ns#"
   xmlns:svg="http://www.w3.org/2000/svg"
   xmlns="http://www.w3.org/2000/svg"
   xmlns:sodipodi="http://sodipodi.sourceforge.net/DTD/sodipodi-0.dtd"
   xmlns:inkscape="http://www.inkscape.org/namespaces/inkscape"
   width="300"
   height="300"
   viewBox="0 0 300 300"
   id="svg2"
   version="1.1"
   inkscape:version="0.91 r13725"
   sodipodi:docname="了-seal.svg">
  <defs
     id="defs4" />
  <sodipodi:namedview
     id="base"
     pagecolor="#ffffff"
     bordercolor="#666666"
     borderopacity="1.0"
     inkscape:pageopacity="0.0"
     inkscape:pageshadow="2"
     inkscape:zoom="1.71"
     inkscape:cx="150"
     inkscape:cy="150"
     inkscape:document-units="px"
     inkscape:current-layer="layer1"
     showgrid="false"
     inkscape:window-width="1280"
     inkscape:window-height="751"
     inkscape:window-x="0"
     inkscape:window-y="1"
     inkscape:window-maximized="1"
     units="px" />
  <metadata
     id="metadata7">
    <rdf:RDF>
      <cc:Work
         rdf:about="">
        <dc:format>image/svg+xml</dc:format>
        <dc:type
           rdf:resource="http://purl.org/dc/dcmitype/StillImage" />
        <dc:title></dc:title>
      </cc:Work>
    </rdf:RDF>
  </metadata>
  <g
     inkscape:label="Layer 1"
     inkscape:groupmode="layer"
     id="layer1"
     transform="translate(0,-752.36216)">
    <path
       style="fill:#000000"
       d="m 110.47753,1034.3382 c -2.07228,-2.4969 -1.66225,-4.5322 1.63851,-8.1333 2.42136,-2.6417 7.133,-8.7446 10.4703,-13.562 3.3373,-4.8175 6.81903,-9.3221 7.73712,-10.0103 3.96097,-2.9691 15.88283,-29.72705 17.84014,-40.04114 7.35863,-38.77679 4.16968,-67.99364 -8.98129,-82.28559 -4.28142,-4.65287 -15.39336,-13.43992 -24.69318,-19.52677 -26.026378,-17.03459 -32.614788,-36.14364 -22.803588,-66.13966 3.60663,-11.02662 5.57607,-13.24455 16.892338,-19.02359 32.915,-16.80913 87.76096,-6.65022 101.36874,18.77616 3.74707,7.00146 3.53583,29.28229 -0.34343,36.22287 -3.77558,6.75503 -19.14373,21.86352 -22.23931,21.86352 -1.2184,0 -7.33203,2.40515 -13.5858,5.34476 -9.3964,4.41684 -12.46402,4.84656 -17.66892,2.47505 -9.74613,-4.44064 -6.22379,-10.18221 10.3247,-16.82959 14.89833,-5.98452 26.24067,-16.19725 26.26455,-23.64875 4.00063,-11.91852 2.82595,-19.23725 -6.61342,-27.60295 -11.06398,-9.40791 -43.10684,-12.8311 -58.76098,-6.27749 -12.68055,5.3087 -18.82296,11.72651 -22.28601,23.28521 -2.98937,9.97762 -2.77132,10.98545 4.99585,23.08953 6.94896,11.19301 17.57796,18.15596 27.62046,25.1498 18.94903,13.13629 27.39999,23.29912 30.19118,36.30683 3.09057,14.40286 3.07793,13.95127 1.08606,38.78983 -1.42494,17.76909 -6.0408,38.68119 -11.60008,52.55396 -5.06025,12.62749 -25.9054,42.03371 -33.47135,47.21801 -9.15687,6.2743 -9.7643,6.3654 -13.38259,2.0056 z"
       id="path4912"
       inkscape:connector-curvature="0"
       sodipodi:nodetypes="sssssssssssssssccssccsssss" />
  </g>
</svg>
