<?xml version="1.0" encoding="UTF-8" standalone="no"?>
<svg
   xmlns:dc="http://purl.org/dc/elements/1.1/"
   xmlns:cc="http://creativecommons.org/ns#"
   xmlns:rdf="http://www.w3.org/1999/02/22-rdf-syntax-ns#"
   xmlns:svg="http://www.w3.org/2000/svg"
   xmlns="http://www.w3.org/2000/svg"
   viewBox="0 0 300 300"
   height="300"
   width="300"
   id="svg415"
   version="1.1">
  <metadata
     id="metadata421">
    <rdf:RDF>
      <cc:Work
         rdf:about="">
        <dc:format>image/svg+xml</dc:format>
        <dc:type
           rdf:resource="http://purl.org/dc/dcmitype/StillImage" />
        <dc:title></dc:title>
      </cc:Work>
    </rdf:RDF>
  </metadata>
  <defs
     id="defs419" />
  <path
     id="path425"
     d="m 109.50463,283.2293 c -1.86708,-4.0978 -0.78532,-6.51913 12.39906,-27.75317 10.63627,-17.1302 15.69233,-28.96562 20.56875,-48.14807 2.97352,-11.69704 5.2269,-30.8055 4.76109,-40.37372 l -0.218,-4.47779 -2.76123,-0.58588 c -1.51867,-0.32224 -10.36341,-0.57095 -19.65499,-0.55271 -18.25678,0.0358 -23.68878,-0.61491 -30.52213,-3.65663 -6.602458,-2.93895 -8.620515,-6.59613 -7.370641,-13.3573 1.23863,-6.70034 3.203725,-10.83829 17.666841,-37.20148 L 118.46741,81.432138 110.3685,68.791523 C 96.062573,46.463183 91.828214,37.676539 90.976022,28.550574 L 90.573779,24.24304 93.79406,22.027431 c 8.49941,-5.847756 15.7767,-7.166277 38.72503,-7.016323 25.69353,0.167893 63.75935,1.337125 68.24679,2.096271 5.41085,0.915362 9.94823,3.20614 11.5485,5.83047 1.816,2.978134 1.76397,10.166553 -0.1144,15.804594 -2.82709,8.485646 -10.97622,22.643567 -20.80026,36.137402 l -6.09682,8.374337 4.39616,8.883327 c 2.41788,4.885829 8.12816,16.185461 12.6895,25.110291 12.1545,23.78183 13.37234,31.05784 6.31915,37.75417 -5.11024,4.85169 -11.1386,5.9834 -36.61973,6.87467 l -12.8944,0.45103 -0.40464,4.89738 c -0.22255,2.69355 -0.71949,10.02289 -1.10431,16.28742 -0.76036,12.3778 -2.7249,23.4627 -6.59454,37.20932 -4.30686,15.2999 -9.2305,26.41287 -18.05902,40.76034 -2.5596,4.15968 -5.96102,9.82986 -7.55871,12.60043 -3.48168,6.03757 -5.83083,8.66074 -8.90707,9.94608 -3.65605,1.52759 -6.12794,1.24775 -7.06066,-0.79934 z m 88.77432,-134.94819 c 1.61808,-0.70645 3.13439,-1.78593 3.36959,-2.39884 1.51613,-3.95101 -7.7547,-24.38468 -20.28041,-44.69959 l -3.73086,-6.050922 -7.91073,9.498062 c -9.12818,10.95977 -10.92139,12.20839 -17.58429,12.24389 -6.1756,0.0329 -7.58736,-1.05924 -17.4877,-13.52881 -4.48144,-5.644432 -8.34843,-10.250242 -8.5933,-10.235172 -0.78564,0.0484 -25.49664,42.285722 -27.018932,46.182162 -1.412654,3.61581 -1.42918,5.48545 -0.067,7.58151 0.465943,0.71697 4.246822,1.31155 13.984812,2.19928 11.40462,1.03965 18.36754,1.164 47.86157,0.85477 31.66544,-0.332 34.75823,-0.46793 37.45728,-1.64634 z m -40.65738,-45.31962 c 1.00072,-0.72465 4.37023,-5.179182 7.48782,-9.898962 6.49327,-9.830319 6.41062,-9.02411 1.83797,-17.928188 -3.82866,-7.455318 -9.04066,-14.387948 -12.74907,-16.957876 l -2.89042,-2.003068 -3.87195,4.214467 c -2.12955,2.317956 -6.25406,8.015578 -9.16558,12.661382 l -5.29365,8.446912 7.30851,10.107496 c 4.01969,5.559125 7.79971,10.819727 8.40004,11.690227 0.92407,1.33992 1.55369,1.5369 4.10418,1.28394 1.65696,-0.16433 3.83143,-0.89168 4.83215,-1.61633 z m 24.70625,-35.07537 c 1.52904,-1.898343 5.84319,-8.887697 9.58699,-15.531897 3.7438,-6.644202 7.67619,-13.461394 8.73866,-15.149317 2.21241,-3.514856 2.50966,-6.597952 0.72371,-7.5064 -4.814,-2.448698 -48.20503,-4.416765 -77.83207,-3.530192 -16.7597,0.501524 -19.88254,1.175511 -20.24708,4.369827 -0.26171,2.293273 2.00036,8.98067 4.57745,13.532403 2.5873,4.569735 15.9195,24.60603 16.89948,25.397354 0.61516,0.496737 3.06461,-2.235809 9.11924,-10.173144 l 8.27817,-10.852307 5.64906,-2.226243 5.64906,-2.226243 2.91075,1.484954 c 1.60092,0.816726 4.41964,2.896347 6.26385,4.621382 3.18652,2.980622 5.10208,5.615169 12.6216,17.358984 1.79307,2.800389 3.48984,4.819535 3.77059,4.486994 0.28075,-0.332542 1.76149,-2.157811 3.29054,-4.056155 z"
     style="fill:#000000;stroke-width:0.6903066" />
</svg>
