<?xml version="1.0" encoding="UTF-8" standalone="no"?>
<!-- Created with Inkscape (http://www.inkscape.org/) -->

<svg
   xmlns:dc="http://purl.org/dc/elements/1.1/"
   xmlns:cc="http://creativecommons.org/ns#"
   xmlns:rdf="http://www.w3.org/1999/02/22-rdf-syntax-ns#"
   xmlns:svg="http://www.w3.org/2000/svg"
   xmlns="http://www.w3.org/2000/svg"
   xmlns:sodipodi="http://sodipodi.sourceforge.net/DTD/sodipodi-0.dtd"
   xmlns:inkscape="http://www.inkscape.org/namespaces/inkscape"
   width="300"
   height="300"
   id="svg2"
   version="1.1"
   inkscape:version="0.48.4 r9939"
   sodipodi:docname="image-seal.svg">
  <defs
     id="defs4" />
  <sodipodi:namedview
     id="base"
     pagecolor="#ffffff"
     bordercolor="#666666"
     borderopacity="1.0"
     inkscape:pageopacity="0.0"
     inkscape:pageshadow="2"
     inkscape:zoom="1.979899"
     inkscape:cx="200.43343"
     inkscape:cy="122.13442"
     inkscape:document-units="px"
     inkscape:current-layer="layer1"
     showgrid="false"
     inkscape:window-width="1215"
     inkscape:window-height="1000"
     inkscape:window-x="65"
     inkscape:window-y="24"
     inkscape:window-maximized="1" />
  <metadata
     id="metadata7">
    <rdf:RDF>
      <cc:Work
         rdf:about="">
        <dc:format>image/svg+xml</dc:format>
        <dc:type
           rdf:resource="http://purl.org/dc/dcmitype/StillImage" />
        <dc:title />
      </cc:Work>
    </rdf:RDF>
  </metadata>
  <g
     inkscape:label="Calque 1"
     inkscape:groupmode="layer"
     id="layer1"
     transform="translate(0,-752.36218)">
    <path
       style="fill:#000000"
       d="m 192.04347,1036.2344 c -5.56528,-8.5631 -2.30206,-20.3104 -5.87164,-29.9506 -4.00405,-18.79954 -8.71444,-38.68461 -22.84876,-52.72017 -7.2683,-7.57882 -15.34087,-16.50798 -26.56796,-16.99 -4.9885,-5.66568 -14.21247,-4.4007 -20.30674,-9.09068 -11.438,-1.61816 -22.568779,-8.52861 -28.98178,-18.15173 -4.10516,-9.77037 -3.56465,-22.31585 3.398888,-29.37756 -0.981062,-13.22298 27.871532,-8.74186 16.072992,1.90426 -13.162831,6.48758 -9.284162,30.48987 5.91401,30.90822 10.66023,2.01411 20.65591,7.87329 31.09867,11.50892 4.43279,4.58472 12.23776,3.76192 15.74088,10.27598 9.57583,2.83433 15.83477,11.89536 22.60667,18.77655 6.58087,8.11267 7.31939,18.70316 11.83971,28.24245 1.4634,14.02878 4.74701,27.75076 8.55537,41.30466 1.52942,5.898 -2.53468,18.6249 -10.65031,13.3597 z M 181.81142,898.22342 c -20.7088,-16.32804 -45.22588,-28.10463 -70.94192,-33.99976 -10.81172,-0.16785 -19.407466,-9.50941 -23.667432,-18.72915 -1.297817,-10.24526 -3.161123,-22.33573 1.552563,-31.73605 14.582149,-4.13217 11.561489,13.8921 12.447099,22.70516 2.01825,11.10841 14.69472,15.27124 24.18001,18.0659 8.14959,0.7377 11.08317,8.69211 20.61341,6.96247 19.86424,3.02315 36.01858,16.66592 49.35767,30.82202 8.65165,7.24014 -2.53345,19.65182 -9.50777,9.40893 -1.37751,-1.12787 -2.71312,-2.30581 -4.03363,-3.49952 z m -2.64514,-65.10764 c -21.17023,-16.01572 -48.61536,-18.87153 -72.24665,-29.66973 -11.920934,-6.31096 -14.4911,-21.25926 -15.774223,-33.45369 -3.262566,-11.22808 13.944253,-14.27708 11.902593,-1.3979 0.61209,10.25268 5.54617,20.81691 15.75606,24.55237 23.09998,9.78168 48.07539,15.08384 69.98614,27.70606 11.40696,1.98429 18.24628,22.59626 1.77253,20.01481 -4.20076,-1.92504 -7.68447,-5.06014 -11.39645,-7.75192 z"
       id="path3013"
       inkscape:connector-curvature="0" />
  </g>
</svg>
