<?xml version="1.0" encoding="UTF-8" standalone="no"?>
<!-- Created with Inkscape (http://www.inkscape.org/) -->

<svg
   xmlns:dc="http://purl.org/dc/elements/1.1/"
   xmlns:cc="http://creativecommons.org/ns#"
   xmlns:rdf="http://www.w3.org/1999/02/22-rdf-syntax-ns#"
   xmlns:svg="http://www.w3.org/2000/svg"
   xmlns="http://www.w3.org/2000/svg"
   xmlns:sodipodi="http://sodipodi.sourceforge.net/DTD/sodipodi-0.dtd"
   xmlns:inkscape="http://www.inkscape.org/namespaces/inkscape"
   version="1.0"
   width="300"
   height="300"
   id="svg2"
   inkscape:version="0.48.3.1 r9886"
   sodipodi:docname="dessin.svg">
  <metadata
     id="metadata2990">
    <rdf:RDF>
      <cc:Work
         rdf:about="">
        <dc:format>image/svg+xml</dc:format>
        <dc:type
           rdf:resource="http://purl.org/dc/dcmitype/StillImage" />
      </cc:Work>
    </rdf:RDF>
  </metadata>
  <sodipodi:namedview
     pagecolor="#ffffff"
     bordercolor="#666666"
     borderopacity="1"
     objecttolerance="10"
     gridtolerance="10"
     guidetolerance="10"
     inkscape:pageopacity="0"
     inkscape:pageshadow="2"
     inkscape:window-width="1215"
     inkscape:window-height="1000"
     id="namedview2988"
     showgrid="false"
     inkscape:zoom="2.2250294"
     inkscape:cx="124.56767"
     inkscape:cy="138.09744"
     inkscape:window-x="65"
     inkscape:window-y="24"
     inkscape:window-maximized="1"
     inkscape:current-layer="svg2" />
  <defs
     id="defs5" />
  <path
     style="fill:#000000"
     d="m 104.78804,282.70988 c -0.93385,-1.34995 3.38721,-7.26195 9.60238,-13.13778 31.67371,-29.94438 45.02744,-47.49406 50.01701,-65.73321 1.1124,-4.06628 3.3509,-7.39323 4.97444,-7.39323 1.62353,0 2.9519,-2.94575 2.9519,-6.54608 0,-3.60038 1.14522,-9.34692 2.54493,-12.77012 3.54755,-8.6759 -1.37061,-23.00358 -8.59989,-25.05347 -3.29008,-0.93292 -5.98195,-2.54937 -5.98195,-3.59211 0,-1.04277 -5.07807,-4.28527 -11.28459,-7.20557 -6.20653,-2.92032 -12.9773,-6.73842 -15.04614,-8.48467 -4.74197,-4.00256 -4.83865,-19.88677 -0.20523,-33.703465 2.54202,-7.580068 2.62411,-11.119753 0.28769,-12.409911 -2.96765,-1.638822 -48.725497,-1.511927 -67.038016,0.18604 -5.777185,0.535619 -7.523072,-0.550351 -7.523072,-4.679401 0,-4.730736 2.169737,-5.429582 18.055364,-5.815365 18.520913,-0.449784 86.701044,-0.847884 94.790634,-0.553474 2.48261,0.09036 16.32521,-0.732755 30.76133,-1.829124 25.69056,-1.951101 35.44165,0.02527 35.44165,7.182927 0,1.297591 -18.65801,2.359261 -41.46223,2.359261 l -41.4622,0 -5.38087,16.193654 c -6.98808,21.030618 -5.8487,27.345208 5.55158,30.767548 4.96522,1.49055 14.76838,8.16878 21.78478,14.84053 16.01721,15.23041 17.24588,24.55569 6.64639,50.44394 -14.80248,36.15363 -37.35513,65.50623 -64.19542,83.55117 -9.51653,6.39804 -12.66126,7.09633 -15.23074,3.38201 z M 91.83696,31.302761 c -2.068849,-2.20117 -3.76153,-4.539739 -3.76153,-5.196822 0,-6.372812 113.74753,-10.434318 121.94761,-4.354301 2.44195,1.810592 4.4399,4.16614 4.4399,5.234549 0,1.068409 -20.65081,2.755767 -45.89071,3.749682 -25.23988,0.993918 -51.98438,2.428549 -59.43222,3.18807 -9.785192,0.997881 -14.584936,0.270783 -17.30305,-2.621178 z"
     id="path3131"
     inkscape:connector-curvature="0" />
</svg>
