<?xml version="1.0" encoding="UTF-8" standalone="no"?>
<!-- Created with Inkscape (http://www.inkscape.org/) -->

<svg
   xmlns:dc="http://purl.org/dc/elements/1.1/"
   xmlns:cc="http://creativecommons.org/ns#"
   xmlns:rdf="http://www.w3.org/1999/02/22-rdf-syntax-ns#"
   xmlns:svg="http://www.w3.org/2000/svg"
   xmlns="http://www.w3.org/2000/svg"
   xmlns:sodipodi="http://sodipodi.sourceforge.net/DTD/sodipodi-0.dtd"
   xmlns:inkscape="http://www.inkscape.org/namespaces/inkscape"
   version="1.0"
   width="300"
   height="300"
   id="svg2"
   inkscape:version="0.48.3.1 r9886"
   sodipodi:docname="dessin.svg">
  <metadata
     id="metadata2990">
    <rdf:RDF>
      <cc:Work
         rdf:about="">
        <dc:format>image/svg+xml</dc:format>
        <dc:type
           rdf:resource="http://purl.org/dc/dcmitype/StillImage" />
      </cc:Work>
    </rdf:RDF>
  </metadata>
  <sodipodi:namedview
     pagecolor="#ffffff"
     bordercolor="#666666"
     borderopacity="1"
     objecttolerance="10"
     gridtolerance="10"
     guidetolerance="10"
     inkscape:pageopacity="0"
     inkscape:pageshadow="2"
     inkscape:window-width="1215"
     inkscape:window-height="1000"
     id="namedview2988"
     showgrid="false"
     inkscape:zoom="2.2250294"
     inkscape:cx="124.56767"
     inkscape:cy="138.09744"
     inkscape:window-x="65"
     inkscape:window-y="24"
     inkscape:window-maximized="1"
     inkscape:current-layer="svg2" />
  <defs
     id="defs5" />
  <path
     style="fill:#000000"
     d="m 129.49519,277.69972 c -8.73037,-3.03063 -19.40771,-8.13666 -23.72745,-11.34678 -9.21212,-6.8457 -17.908899,-23.05255 -18.047711,-33.63269 -0.215321,-16.41007 14.943511,-44.70437 23.967181,-44.73535 3.66506,-0.0113 16.24043,-10.89862 25.52503,-22.09619 2.03908,-2.45917 3.72562,-8.2174 3.74789,-12.79602 0.0576,-11.80484 3.09751,-21.74125 6.65182,-21.74125 5.38811,0 10.91209,10.1723 11.00896,20.27275 0.0881,9.19498 -6.86434,27.05337 -11.83966,30.41165 -24.96067,16.84823 -41.45276,33.02255 -41.45276,40.65398 0,10.64882 7.55386,26.98622 14.1078,30.51213 15.07123,8.10804 30.80834,11.581 41.55609,9.17081 6.08825,-1.36529 14.75657,-3.25881 19.26295,-4.20786 4.50638,-0.94901 12.18072,-5.91967 17.0541,-11.04586 7.50789,-7.89733 8.84627,-11.64252 8.76637,-24.53065 -0.0519,-8.36569 -1.72024,-17.35207 -3.70741,-19.96968 -4.79807,-6.32027 -21.0775,-14.62 -28.67622,-14.62 -3.34353,0 -6.07915,-1.34164 -6.07915,-2.98143 0,-5.24965 21.36469,-3.19315 36.02655,3.46782 17.19205,7.81047 26.25799,24.01991 26.25799,46.94794 0,13.18511 -1.2384,15.96089 -11.992,26.87926 -6.59559,6.69665 -16.7686,14.182 -22.60668,16.63405 -14.51295,6.09561 -46.39279,5.49164 -65.80369,-1.24663 z M 96.430693,122.53087 c -42.769424,-1.76105 -67.504773,-6.1541 -56.352671,-10.00838 5.653134,-1.9538 35.378395,-5.20132 69.712948,-7.61623 43.66099,-3.07091 134.93117,3.94483 137.09042,10.53783 2.1078,6.43602 -76.42013,10.13497 -150.450697,7.08678 z M 93.464765,42.794776 C 65.130495,37.891994 53.110421,29.553822 74.927702,29.935853 c 6.117241,0.107126 19.130261,-1.110139 28.917828,-2.705009 26.12126,-4.256419 129.68508,0.09475 124.57086,5.233779 -1.08931,1.0946 -8.20871,2.1308 -15.82085,2.302668 -19.40178,0.438054 -39.9658,3.887002 -43.32809,7.266885 -2.75426,2.768665 -60.82992,3.351393 -75.802685,0.7606 z"
     id="path3208"
     inkscape:connector-curvature="0" />
</svg>
