<?xml version="1.0" standalone="no"?>
<!DOCTYPE svg PUBLIC "-//W3C//DTD SVG 20010904//EN"
 "http://www.w3.org/TR/2001/REC-SVG-20010904/DTD/svg10.dtd">
<svg version="1.0" xmlns="http://www.w3.org/2000/svg"
 width="120.000000pt" height="120.000000pt" viewBox="0 0 120.000000 120.000000"
 preserveAspectRatio="xMidYMid meet">
<metadata>
Created by potrace 1.13, written by Peter Selinger 2001-2015
</metadata>
<g transform="translate(0.000000,120.000000) scale(0.100000,-0.100000)"
fill="#000000" stroke="none">
<path d="M388 991 c-54 -4 -100 -10 -103 -13 -7 -7 169 -28 247 -29 35 -1 76
-4 93 -8 28 -6 29 -9 27 -49 -5 -69 5 -98 42 -116 18 -9 39 -22 46 -31 7 -8
17 -15 22 -15 20 0 68 -62 74 -96 12 -65 -19 -229 -60 -315 -20 -43 -86 -116
-140 -155 -21 -16 -33 -30 -26 -32 23 -8 138 58 166 96 15 20 31 39 35 42 10
8 46 91 54 125 3 17 14 83 23 148 14 99 14 123 3 155 -14 38 -65 91 -89 92
-19 0 -74 29 -99 53 -16 14 -23 32 -23 58 l0 37 93 -1 c77 -1 196 17 185 28
-4 5 -98 14 -198 20 -190 11 -280 12 -372 6z"/>
<path d="M525 755 c7 -56 -12 -131 -56 -217 -5 -10 -9 -22 -9 -28 0 -14 -66
-115 -93 -142 -13 -13 -34 -31 -47 -41 l-25 -18 25 7 c14 3 46 17 72 30 41 20
51 22 68 12 11 -7 20 -16 20 -19 0 -4 14 -12 30 -19 17 -7 30 -16 30 -21 0 -5
6 -9 13 -9 6 0 23 -9 37 -20 29 -22 40 -25 40 -8 0 11 -91 102 -128 128 -44
30 -16 80 45 80 21 0 43 -4 49 -9 15 -15 124 -25 124 -12 0 6 -12 16 -26 21
-14 6 -50 21 -80 35 -30 14 -59 25 -64 25 -6 0 -10 11 -10 24 0 22 6 26 48 32
71 11 83 12 131 13 57 1 45 13 -27 28 -121 25 -127 27 -130 53 -4 37 -24 103
-35 115 -5 6 -6 -9 -2 -40z"/>
<path d="M355 71 c-64 -14 38 -35 230 -47 168 -10 209 -11 245 -3 19 4 56 10
83 14 52 7 62 20 20 29 -41 9 -543 15 -578 7z"/>
</g>
</svg>
