<?xml version="1.0" encoding="UTF-8" standalone="no"?>
<svg
   xmlns:dc="http://purl.org/dc/elements/1.1/"
   xmlns:cc="http://creativecommons.org/ns#"
   xmlns:rdf="http://www.w3.org/1999/02/22-rdf-syntax-ns#"
   xmlns:svg="http://www.w3.org/2000/svg"
   xmlns="http://www.w3.org/2000/svg"
   viewBox="0 0 300 300"
   height="300"
   width="300"
   id="svg10"
   version="1.1">
  <metadata
     id="metadata16">
    <rdf:RDF>
      <cc:Work
         rdf:about="">
        <dc:format>image/svg+xml</dc:format>
        <dc:type
           rdf:resource="http://purl.org/dc/dcmitype/StillImage" />
        <dc:title></dc:title>
      </cc:Work>
    </rdf:RDF>
  </metadata>
  <defs
     id="defs14" />
  <path
     id="path20"
     d="m 58.324071,277.44829 c -2.5198,-0.33134 -6.3606,-1.11965 -8.53511,-1.7518 -3.33781,-0.97032 -3.95366,-1.41492 -3.95366,-2.85424 0,-0.93769 -0.18345,-2.64467 -0.40767,-3.79327 -0.37429,-1.91739 -0.15126,-2.18848 2.72397,-3.31091 6.92121,-2.70187 10.8737,-2.95956 36.94536,-2.40866 13.83236,0.29228 26.787499,0.30617 28.789179,0.0309 l 3.63943,-0.50054 0.47064,-13.567 c 0.76831,-22.14769 -1.10886,-48.20181 -4.14381,-57.51373 -0.64582,-1.98153 -1.68933,-3.00379 -4.73038,-4.63401 -3.59522,-1.9273 -4.76508,-2.13833 -14.889649,-2.68606 -12.56917,-0.67996 -18.32995,-2.18484 -23.84694,-6.22948 -8.01895,-5.87888 -14.11339,-15.40529 -16.19342,-25.31244 -2.78449,-13.26244 -0.38513,-35.09326 5.566,-50.64276 2.5054,-6.54628 6.2314,-10.384027 13.317,-13.716388 7.29626,-3.43144 12.22427,-4.404857 25.06053,-4.950159 15.794189,-0.670954 18.408269,-1.930991 21.978059,-10.593843 2.30876,-5.602656 3.34001,-17.421162 2.85836,-32.757788 L 122.83288,35.82759 93.958791,35.385541 c -17.38427,-0.266145 -29.96077,-0.758417 -31.60493,-1.237088 -3.72209,-1.083626 -5.33257,-3.639298 -4.46749,-7.089461 0.60973,-2.431767 0.99763,-2.738711 5.01915,-3.97162 4.15273,-1.273134 8.09392,-1.317595 83.535109,-0.94234 43.54722,0.216609 82.27246,0.63691 86.0561,0.934001 l 6.87935,0.540164 1.00915,3.583366 c 1.18687,4.214377 0.95912,4.499399 -5.64449,7.063947 -4.78868,1.85971 -12.83024,2.080797 -38.24418,1.05145 l -16.04577,-0.649905 -0.4759,7.187436 c -0.26174,3.953089 -0.47263,9.965885 -0.46862,13.361769 0.008,6.797077 2.38354,21.394932 3.74948,23.040777 1.05001,1.265187 6.44768,4.024511 10.33902,5.285368 1.69572,0.549443 7.41543,0.981756 14.16465,1.070593 18.19147,0.23947 23.89664,2.992598 32.09713,15.489032 6.39112,9.73917 8.64219,18.63837 8.64219,34.16521 0,11.74659 -1.23431,19.83133 -4.41317,28.90629 -2.52589,7.21086 -4.01525,9.10051 -10.85766,13.77572 -8.57465,5.8588 -20.08414,8.71482 -32.70843,8.11646 -7.74744,-0.36721 -7.87759,-0.34656 -9.68043,1.53566 -2.84343,2.96863 -3.88273,6.31515 -4.76591,15.34612 -0.72456,7.40896 -2.26954,60.25824 -1.78065,60.91086 0.10593,0.14139 14.51395,0.51049 32.01783,0.8202 19.66226,0.34791 32.57414,0.86189 33.78481,1.34487 2.15028,0.85782 3.80161,3.07533 4.48159,6.0182 0.40475,1.75172 0.0992,2.05565 -3.84785,3.82696 -7.18723,3.22544 -11.00266,3.59109 -30.19623,2.89383 -20.1741,-0.73289 -116.3156,-0.85091 -140.920099,-0.173 -9.18886,0.25317 -18.76867,0.18921 -21.28847,-0.14212 z m 103.443769,-14.96648 8.78968,-0.45256 0.51822,-10.97258 c 0.28501,-6.03492 0.7913,-20.452 1.12508,-32.03796 0.50975,-17.69415 0.84822,-21.97374 2.11495,-26.74137 2.09789,-7.8959 5.5084,-14.03303 9.03586,-16.25983 5.48743,-3.46405 8.22804,-4.04833 21.20038,-4.51971 11.8207,-0.42953 12.55053,-0.54409 17.07022,-2.67965 8.7855,-4.15117 10.85804,-7.15316 13.38521,-19.38794 1.30122,-6.29962 1.50037,-19.66495 0.39454,-26.47906 -1.74202,-10.73434 -6.60603,-19.14358 -13.3068,-23.00568 -4.18774,-2.4137 -9.56557,-3.34973 -23.218,-4.04122 -6.46722,-0.327562 -12.86356,-1.000746 -14.2141,-1.495971 -9.26877,-3.398731 -13.74426,-8.963026 -16.38769,-20.374565 -1.40299,-6.056583 -2.64701,-27.332942 -1.94118,-33.199542 0.30286,-2.517236 0.36353,-4.689655 0.13483,-4.827598 -0.2287,-0.137943 -7.11679,-0.366522 -15.30686,-0.507953 l -14.89104,-0.257148 -0.47404,16.795852 c -0.50772,17.989219 -1.21921,23.194566 -3.97166,29.056925 -5.29593,11.279651 -13.68051,15.44473 -34.053089,16.91603 -10.11522,0.73051 -15.99509,2.144 -23.01329,5.53226 -2.46174,1.18848 -2.79359,1.73318 -4.17509,6.85309 -2.18169,8.08543 -3.76189,20.24206 -3.87485,29.80952 -0.14405,12.20094 1.74441,18.68224 7.20441,24.7258 4.0622,4.49637 9.34355,5.8636 24.94841,6.45861 13.506749,0.51502 14.700109,0.80784 20.256749,4.97052 2.87825,2.15621 6.56134,9.59909 8.74611,17.67435 2.63364,9.73442 3.06646,16.41524 2.10231,32.45072 -0.86222,14.34005 -0.22657,32.08733 1.29088,36.04175 0.56738,1.47857 0.92677,1.47804 30.50985,-0.0451 z"
     style="fill:#000000;stroke-width:0.72639227" />
</svg>
