<?xml version="1.0" encoding="UTF-8" standalone="no"?>
<!-- Created with Inkscape (http://www.inkscape.org/) -->

<svg
   xmlns:dc="http://purl.org/dc/elements/1.1/"
   xmlns:cc="http://creativecommons.org/ns#"
   xmlns:rdf="http://www.w3.org/1999/02/22-rdf-syntax-ns#"
   xmlns:svg="http://www.w3.org/2000/svg"
   xmlns="http://www.w3.org/2000/svg"
   xmlns:sodipodi="http://sodipodi.sourceforge.net/DTD/sodipodi-0.dtd"
   xmlns:inkscape="http://www.inkscape.org/namespaces/inkscape"
   width="300"
   height="300"
   id="svg2"
   version="1.1"
   inkscape:version="0.48.3.1 r9886"
   sodipodi:docname="Nouveau document 1">
  <defs
     id="defs4" />
  <sodipodi:namedview
     id="base"
     pagecolor="#ffffff"
     bordercolor="#666666"
     borderopacity="1.0"
     inkscape:pageopacity="0.0"
     inkscape:pageshadow="2"
     inkscape:zoom="1.979899"
     inkscape:cx="129.89093"
     inkscape:cy="145.06308"
     inkscape:document-units="px"
     inkscape:current-layer="layer1"
     showgrid="false"
     inkscape:window-width="1215"
     inkscape:window-height="1000"
     inkscape:window-x="65"
     inkscape:window-y="24"
     inkscape:window-maximized="1" />
  <metadata
     id="metadata7">
    <rdf:RDF>
      <cc:Work
         rdf:about="">
        <dc:format>image/svg+xml</dc:format>
        <dc:type
           rdf:resource="http://purl.org/dc/dcmitype/StillImage" />
        <dc:title></dc:title>
      </cc:Work>
    </rdf:RDF>
  </metadata>
  <g
     inkscape:label="Calque 1"
     inkscape:groupmode="layer"
     id="layer1"
     transform="translate(0,-752.36218)">
    <path
       style="fill:#000000"
       d="m 97.939797,1027.99 c -5.339011,-6.0262 -5.527699,-29.31727 -0.442022,-54.56224 4.764205,-23.64919 11.554965,-39.52868 20.760605,-48.54656 9.55315,-9.3583 9.47621,-13.67659 -0.30072,-16.87825 -18.987726,-6.21792 -31.649539,-26.63664 -25.993226,-41.91723 2.675094,-7.22679 23.645416,-23.64881 30.198676,-23.64881 2.01774,0 6.3581,-1.0985 9.64525,-2.44115 3.28714,-1.3426 7.73584,-3.08775 9.88599,-3.87808 2.50435,-0.92053 4.21479,-5.35838 4.75922,-12.34815 0.81147,-10.41827 0.54704,-10.9112 -5.85321,-10.9112 -6.16955,0 -59.889533,19.82684 -62.944313,23.23133 -2.651491,2.95502 -13.530591,6.51424 -16.089615,5.26389 -1.439441,-0.70334 -2.617167,-3.56425 -2.617167,-6.3576 0,-5.16425 11.689042,-10.63088 71.782495,-33.57055 l 16.99834,-6.48884 -1.31233,-9.52571 c -1.49752,-10.86997 -0.29084,-14.80764 4.53772,-14.80764 6.92304,0 12.21727,7.65405 12.21727,17.66291 0,7.60375 1.09758,10.21285 4.6767,11.11718 2.5722,0.6499 7.08187,1.89434 10.02148,2.76538 2.93963,0.87104 13.76287,3.80339 24.05157,6.51629 30.38885,8.01286 46.01567,14.37035 47.67838,19.39709 2.87831,8.70166 -4.30988,10.52189 -18.282,4.62949 -4.40946,-1.85961 -15.23267,-6.18936 -24.05158,-9.6217 -8.81889,-3.43234 -17.99085,-7.06905 -20.38208,-8.08154 -2.39124,-1.0125 -8.70478,-2.48714 -14.03009,-3.27696 l -9.68238,-1.43603 0.005,11.32709 c 0.005,11.12484 0.21949,11.43434 12.02974,17.33314 6.6137,3.30333 16.23219,9.89195 21.37439,14.64138 7.9034,7.29979 9.34941,10.22341 9.34941,18.90303 0,17.51508 -16.77632,35.92883 -34.53184,37.90223 -8.38984,0.93247 -10.12914,5.23901 -2.85323,7.06468 8.32462,2.08885 23.17679,13.02839 28.15774,20.73992 5.39265,8.34898 11.61186,35.93487 14.37528,63.76321 2.32963,23.4598 1.75929,26.4094 -5.10663,26.4094 -7.8882,0 -10.00439,-4.5149 -10.3979,-22.1839 -0.62577,-28.09913 -7.744,-55.86712 -17.37326,-67.77253 -6.11212,-7.55689 -20.07157,-15.31672 -30.52807,-16.97005 -5.72306,-0.90492 -8.77627,0.15886 -14.15572,4.932 -3.77235,3.3472 -7.74367,8.41278 -8.82516,11.25686 -10.01428,26.33524 -14.96654,49.80637 -14.96705,70.93592 -3.3e-4,14.0161 -1.02977,19.9597 -3.76828,21.7565 -2.98895,1.9611 -4.64624,1.4807 -8.017193,-2.3242 z M 147.13838,904.12418 c 0,-0.93246 6.17281,-3.45026 13.71735,-5.59509 27.65886,-7.86314 35.98693,-22.53173 22.16636,-39.04252 -8.84863,-10.57107 -19.88897,-14.42566 -31.67083,-11.05746 -4.73052,1.35235 -11.23823,2.45882 -14.46158,2.45882 -13.80664,0 -32.50966,16.60074 -32.50966,28.85547 0,2.87987 16.86257,17.60836 20.23274,17.67214 1.36545,0.0258 5.48909,1.90617 9.16363,4.17853 6.90758,4.27167 13.36199,5.49384 13.36199,2.53011 z"
       id="path2996"
       inkscape:connector-curvature="0" />
  </g>
</svg>
