<?xml version="1.0" encoding="UTF-8" standalone="no"?>
<!-- Created with Inkscape (http://www.inkscape.org/) -->

<svg
   xmlns:dc="http://purl.org/dc/elements/1.1/"
   xmlns:cc="http://creativecommons.org/ns#"
   xmlns:rdf="http://www.w3.org/1999/02/22-rdf-syntax-ns#"
   xmlns:svg="http://www.w3.org/2000/svg"
   xmlns="http://www.w3.org/2000/svg"
   xmlns:sodipodi="http://sodipodi.sourceforge.net/DTD/sodipodi-0.dtd"
   xmlns:inkscape="http://www.inkscape.org/namespaces/inkscape"
   id="svg2855"
   version="1.1"
   inkscape:version="0.47 r22583"
   width="300"
   height="300"
   sodipodi:docname="s03835.gif">
  <metadata
     id="metadata2861">
    <rdf:RDF>
      <cc:Work
         rdf:about="">
        <dc:format>image/svg+xml</dc:format>
        <dc:type
           rdf:resource="http://purl.org/dc/dcmitype/StillImage" />
        <dc:title></dc:title>
      </cc:Work>
    </rdf:RDF>
  </metadata>
  <defs
     id="defs2859" />
  <sodipodi:namedview
     pagecolor="#ffffff"
     bordercolor="#666666"
     borderopacity="1"
     objecttolerance="10"
     gridtolerance="10"
     guidetolerance="10"
     inkscape:pageopacity="0"
     inkscape:pageshadow="2"
     inkscape:window-width="1440"
     inkscape:window-height="851"
     id="namedview2857"
     showgrid="false"
     inkscape:zoom="1.9666667"
     inkscape:cx="-28.29661"
     inkscape:cy="161.69492"
     inkscape:window-x="0"
     inkscape:window-y="25"
     inkscape:window-maximized="1"
     inkscape:current-layer="svg2855" />
  <path
     style="fill:#000000"
     d="m 143.47167,281.92309 c -1.09527,-1.69229 -2.09078,-25.51451 -2.21224,-52.93826 -0.12145,-27.42376 -0.87301,-50.51355 -1.67012,-51.31066 -2.6238,-2.6238 -15.38513,1.535 -21.77865,7.09745 -8.64069,7.51752 -11.83773,22.68364 -12.18542,57.80505 -0.23731,23.97167 -1.01197,30.03994 -3.9802,31.17897 -2.02704,0.77783 -4.783326,0.73579 -6.125067,-0.0935 -3.179361,-1.96496 -0.844979,-63.37136 2.953944,-77.7041 3.055303,-11.52715 21.380093,-31.52761 28.977253,-31.62702 2.30067,-0.0301 6.80524,-2.07131 10.01016,-4.53601 8.14139,-6.26098 5.35359,-15.10129 -4.76224,-15.10129 -3.97026,0 -7.21866,-1.10768 -7.21866,-2.46151 0,-1.35384 -1.6531,-2.46152 -3.67356,-2.46152 -2.02045,0 -6.45117,-2.41512 -9.84605,-5.36693 -5.00441,-4.35127 -6.1725,-7.62842 -6.1725,-17.3172 0,-13.57647 4.83782,-22.641266 14.84543,-27.816401 8.28791,-4.285847 37.76122,-4.420085 56.53847,-0.257505 12.09584,2.681435 14.03993,4.015792 18.24603,12.523576 4.12956,8.35293 4.34368,10.88348 1.7435,20.60522 -3.13322,11.71475 -7.46361,16.37145 -17.52801,18.84877 -24.7137,6.08321 -24.61514,6.02876 -24.61514,13.59754 0,5.90276 1.25237,7.51554 6.76916,8.71711 10.80195,2.35271 26.39782,10.75088 29.65725,15.97006 3.9602,6.34129 7.78502,43.81861 7.83819,76.8023 0.0401,24.83449 -0.26001,26.46128 -4.88038,26.46128 -2.70766,0 -5.00534,-0.83077 -5.10594,-1.84614 -0.1006,-1.01537 -0.66964,-4.48353 -1.26453,-7.70703 -0.59489,-3.22347 0.17689,-7.37728 1.71508,-9.23068 1.71581,-2.06742 1.83498,-3.36978 0.30832,-3.36978 -1.46152,0 -3.22716,-13.45882 -4.2787,-32.61506 -1.9625,-35.75127 -4.58002,-43.94566 -15.9088,-49.80399 -14.9097,-7.71011 -14.82499,-7.92741 -15.09938,38.72718 -0.33653,57.22008 -1.45847,68.30701 -6.91229,68.30701 -1.31642,0 -3.28963,-1.3846 -4.38491,-3.07689 z m 27.15738,-150.76368 c 9.64824,-4.03129 13.92771,-9.94087 13.92771,-19.23294 0,-7.00118 -3.29746,-10.11591 -13.53832,-12.788104 -26.28874,-6.859619 -49.6882,-0.06124 -55.89847,16.240364 -2.08432,5.47126 0.25418,8.29313 11.59121,13.98717 11.99618,6.0251 31.84979,6.83587 43.91787,1.79351 z M 70.109112,90.560985 c -1.339977,-2.168125 3.994137,-8.360894 13.963176,-16.210887 5.699311,-4.487847 39.747152,-20.35349 47.561922,-22.162948 11.628,-2.692385 13.36024,-5.313259 13.18543,-19.949417 -0.1748,-14.633898 2.11028,-19.064576 8.55659,-16.590895 4.09852,1.57275 5.04277,5.920931 4.15439,19.130549 -0.46214,6.871731 6.59157,16.378745 12.15218,16.378745 1.40936,0 11.697,4.430726 22.8614,9.846057 11.16441,5.41533 21.68826,9.846056 23.38634,9.846056 1.69808,0 3.08742,0.845018 3.08742,1.87782 0,1.0328 2.49228,2.971242 5.53841,4.30765 3.5454,1.55545 5.5384,4.570468 5.5384,8.378489 0,7.216836 -4.26756,9.124244 -9.25516,4.136644 -2.02005,-2.020045 -7.96394,-6.151645 -13.20866,-9.181338 -40.41272,-23.345016 -47.52221,-24.810463 -76.14683,-15.695807 -11.42503,3.637958 -20.77278,7.401096 -20.77278,8.362529 0,0.961433 -4.1538,3.239805 -9.23067,5.063049 -5.076876,1.823243 -13.087775,5.922649 -17.802006,9.10979 -9.537252,6.44784 -11.376456,6.902422 -13.569552,3.353924 z"
     id="path2867" />
</svg>
