<?xml version="1.0" encoding="UTF-8" standalone="no"?>
<svg
   xmlns:dc="http://purl.org/dc/elements/1.1/"
   xmlns:cc="http://creativecommons.org/ns#"
   xmlns:rdf="http://www.w3.org/1999/02/22-rdf-syntax-ns#"
   xmlns:svg="http://www.w3.org/2000/svg"
   xmlns="http://www.w3.org/2000/svg"
   viewBox="0 0 300 300"
   height="300"
   width="300"
   id="svg10"
   version="1.1">
  <metadata
     id="metadata16">
    <rdf:RDF>
      <cc:Work
         rdf:about="">
        <dc:format>image/svg+xml</dc:format>
        <dc:type
           rdf:resource="http://purl.org/dc/dcmitype/StillImage" />
        <dc:title></dc:title>
      </cc:Work>
    </rdf:RDF>
  </metadata>
  <defs
     id="defs14" />
  <path
     id="path20"
     d="m 185.00005,284.6567 c -0.64545,-0.16989 -1.33129,-0.83163 -1.52411,-1.47053 -1.08252,-3.58703 -1.74675,-13.95939 -1.3762,-21.48994 0.87373,-17.75576 -3.19797,-26.4461 -16.31937,-34.83088 -6.56599,-4.19578 -8.44365,-5.79175 -11.96058,-10.16629 -2.59302,-3.22535 -3.101,-4.52047 -5.07531,-12.93981 -1.20664,-5.14566 -2.19389,-11.15592 -2.19389,-13.35615 v -4.00039 l -14.73921,0.5003 c -16.41456,0.55717 -21.16289,0.0195 -24.13296,-2.73317 -1.14287,-1.05918 -1.78448,-2.38468 -1.78448,-3.68658 0,-3.35862 2.19736,-3.77743 22.05107,-4.20289 l 17.57194,-0.37655 0.21233,-2.19124 c 0.12703,-1.31097 -0.65171,-4.26676 -1.93852,-7.35782 -2.05622,-4.93927 -2.29078,-5.21427 -5.33104,-6.25018 -3.77272,-1.2855 -8.09882,-1.36739 -15.64717,-0.2962 -6.76326,0.95978 -10.07887,-0.0334 -11.24109,-3.36739 -0.68611,-1.96817 -0.58699,-2.11421 2.84805,-4.19606 4.19358,-2.54159 12.9506,-4.93857 18.04227,-4.93857 1.98396,0 5.68622,0.64214 8.22725,1.42699 8.08859,2.4983 11.7437,7.13609 14.08182,17.86769 0.45416,2.08451 1.29298,5.09797 1.86405,6.69656 0.90132,2.52305 1.37221,2.96918 3.56894,3.38128 1.39185,0.26112 7.33929,0.12301 13.21654,-0.3069 13.03892,-0.9538 16.99469,-0.25165 19.60882,3.48053 1.65976,2.36964 1.288,3.60819 -1.51512,5.0477 -2.27974,1.17074 -4.41033,1.35331 -18.08876,1.55 -8.52756,0.12263 -15.70576,0.43564 -15.95153,0.6956 -0.85493,0.9042 0.73643,13.98601 2.28699,18.80036 l 1.5606,4.84551 12.28611,10.38288 c 8.09645,6.84224 12.73684,11.26642 13.60792,12.97388 4.43577,8.69483 6.92136,32.04744 4.74268,44.55839 -0.96884,5.56343 -2.72408,7.06436 -6.95804,5.94987 z M 89.275228,213.69131 c -1.928236,-0.51483 -3.027745,-9.44347 -2.956121,-24.00557 0.0701,-14.2578 1.964465,-28.98495 5.567285,-43.28138 1.577176,-6.25845 2.132595,-7.44168 5.104409,-10.87405 5.394329,-6.2303 11.049729,-8.65497 24.063249,-10.31679 8.40502,-1.07331 46.47762,-1.92707 55.72626,-1.24962 8.55912,0.62694 18.66062,3.01265 24.54707,5.79738 6.2401,2.95206 11.81979,10.5716 14.38822,19.64839 3.70492,13.09313 4.1614,61.25439 0.60585,63.92038 -1.32473,0.99329 -4.97718,0.58562 -5.7347,-0.64008 -1.34465,-2.17569 -2.07633,-14.16664 -1.9293,-31.61792 0.17596,-20.88389 -0.2214,-23.91221 -4.33826,-33.06254 -4.07111,-9.04863 -6.96702,-10.52437 -25.03656,-12.75856 -26.79648,-3.31322 -49.25417,-2.34435 -66.64529,2.8752 -5.25299,1.57657 -6.21035,2.11315 -7.64579,4.2853 -2.21419,3.35055 -4.39904,8.40707 -5.654726,13.08703 -1.265439,4.71635 -2.716103,32.90686 -2.154205,41.86226 0.832207,13.26341 -1.483441,18.04574 -7.907391,16.33057 z M 140.36434,108.99694 c -6.53218,-0.95037 -15.24807,-2.95879 -18.76838,-4.32481 -2.19381,-0.85129 -4.75009,-5.514245 -6.05242,-11.040355 -1.91958,-8.145224 0.66849,-19.686371 5.08609,-22.680799 6.55367,-4.442345 16.73943,-5.930402 37.63558,-5.498261 12.07826,0.249782 14.77668,0.506502 18.61097,1.770583 5.08638,1.676867 9.51639,5.582958 11.36281,10.018992 2.57769,6.192913 2.01843,14.828405 -1.4627,22.585395 -1.61442,3.597385 -2.11146,4.090655 -5.78173,5.737785 -7.61905,3.41922 -13.73725,4.53692 -24.39004,4.45568 -5.34015,-0.0407 -12.64825,-0.50162 -16.24018,-1.02421 z m 30.40874,-10.537285 c 6.71585,-2.15481 7.45972,-2.96618 8.34346,-9.100565 0.66986,-4.649694 0.60976,-5.473508 -0.57669,-7.904217 -0.72848,-1.492441 -2.11638,-3.088887 -3.08423,-3.547658 -3.57203,-1.69318 -11.74875,-2.366881 -25.61814,-2.110741 -14.8032,0.273385 -18.75027,0.991775 -22.58157,4.109975 -1.58158,1.287209 -1.72274,1.861563 -1.72274,7.009452 0,7.945094 1.23378,9.576774 8.45741,11.185004 8.63417,1.922255 12.36827,2.259825 22.55189,2.038745 7.53199,-0.163525 10.65231,-0.531885 14.23061,-1.679995 z M 76.262822,68.891944 v -3.488177 l 3.962305,-2.385744 c 5.989912,-3.60659 12.757759,-6.867273 23.694863,-11.415944 5.44421,-2.264214 12.61328,-5.365586 15.93127,-6.891942 3.318,-1.526353 9.6749,-3.751875 14.12647,-4.945602 4.45155,-1.193726 8.63274,-2.456599 9.29151,-2.806382 1.42,-0.753951 1.70149,-1.815582 2.55064,-9.619475 C 146.43997,21.640002 148.79834,15 150.20229,15 c 0.34138,0 1.71436,1.09367 3.05107,2.430379 l 2.43038,2.430377 -0.4721,7.389235 c -0.3601,5.636448 -0.25825,7.649592 0.42937,8.486824 0.49581,0.603673 4.35151,2.071152 8.56824,3.261061 5.32886,1.503741 14.7625,5.418986 30.93599,12.839351 12.79806,5.871734 23.87786,11.226302 24.62177,11.899043 0.74391,0.672739 1.94152,2.377133 2.66136,3.787539 l 1.30881,2.564376 -2.037,1.053375 c -3.5212,1.82088 -7.41119,1.303603 -13.13098,-1.74611 -9.99931,-5.33149 -30.03645,-14.942266 -35.48843,-17.021959 -3.03202,-1.156584 -8.6137,-2.946491 -12.40372,-3.977572 -5.93869,-1.615627 -7.70038,-1.817305 -12.74827,-1.45942 -11.32711,0.803069 -24.89567,5.605798 -44.79122,15.854294 -17.570443,9.050797 -17.201957,8.897245 -22.211301,9.255662 l -4.663436,0.333667 z"
     style="fill:#000000;stroke-width:0.68909562" />
</svg>
