<?xml version="1.0" encoding="UTF-8" standalone="no"?>
<svg
   xmlns:dc="http://purl.org/dc/elements/1.1/"
   xmlns:cc="http://creativecommons.org/ns#"
   xmlns:rdf="http://www.w3.org/1999/02/22-rdf-syntax-ns#"
   xmlns:svg="http://www.w3.org/2000/svg"
   xmlns="http://www.w3.org/2000/svg"
   version="1.1"
   id="svg665"
   width="300"
   height="300"
   viewBox="0 0 300 300">
  <metadata
     id="metadata671">
    <rdf:RDF>
      <cc:Work
         rdf:about="">
        <dc:format>image/svg+xml</dc:format>
        <dc:type
           rdf:resource="http://purl.org/dc/dcmitype/StillImage" />
        <dc:title></dc:title>
      </cc:Work>
    </rdf:RDF>
  </metadata>
  <defs
     id="defs669" />
  <path
     style="fill:#000000;stroke-width:0.69104886"
     d="m 237.04379,284.98208 c -1.68817,-0.0669 -3.19408,-2.17361 -10.45491,-13.19915 -14.29325,-21.70426 -28.3535,-45.29231 -46.31513,-80.16469 -10.25325,-19.90662 -21.58355,-42.20188 -16.33513,-63.70563 3.0981,-12.69352 8.83795,-20.96348 27.1697,-39.963092 12.71075,-13.173822 15.28886,-17.215107 15.34637,-24.496246 0.11921,-15.090712 -18.13102,-20.340014 -27.92191,-22.760938 -4.84557,-1.19813 -7.36831,-1.46524 -35.41625,-1.730649 l -30.23339,-0.286088 c 0,0 -0.7963,74.452593 -6.2669,111.015703 -7.488789,44.07697 -18.875657,80.5535 -39.771426,120.69779 -3.481496,6.68854 -14.422617,4.58119 -11.407374,-1.67427 18.82298,-39.05034 32.514212,-81.81247 38.147044,-125.934 5.221034,-43.499885 4.392225,-69.454386 5.356694,-105.31252 -8.863829,-1.982462 -18.65148,-3.135534 -27.126629,-7.954341 -5.583472,-3.174654 -7.92849,-11.37637 -4.080989,-13.897347 1.814536,-1.188933 2.107759,-1.122906 19.854641,4.47082 17.326189,5.975224 38.670639,6.78745 55.355569,7.027398 28.99674,0.417005 34.93166,0.510106 47.28188,3.760364 21.13528,5.562256 33.1864,21.845241 28.80796,38.924112 -2.61955,10.218017 -6.8831,16.757332 -24.26311,33.937244 -11.99394,11.85585 -20.52577,23.31701 -19.38288,38.69874 1.07081,14.41172 3.83557,21.58548 17.62132,46.6458 8.98477,16.33287 47.02966,78.77956 47.02966,78.77956 5.79876,9.05885 8.64877,17.58285 -2.99481,17.12143 z"
     id="path675" />
</svg>
