<?xml version="1.0" standalone="no"?>
<!DOCTYPE svg PUBLIC "-//W3C//DTD SVG 20010904//EN"
 "http://www.w3.org/TR/2001/REC-SVG-20010904/DTD/svg10.dtd">
<svg version="1.0" xmlns="http://www.w3.org/2000/svg"
 width="120.000000pt" height="120.000000pt" viewBox="0 0 120.000000 120.000000"
 preserveAspectRatio="xMidYMid meet">
<metadata>
Created by potrace 1.13, written by Peter Selinger 2001-2015
</metadata>
<g transform="translate(0.000000,120.000000) scale(0.100000,-0.100000)"
fill="#000000" stroke="none">
<path d="M682 1033 c-14 -34 -8 -861 8 -1021 0 -2 10 -2 23 0 l22 3 0 311 0
312 69 7 c87 8 118 19 110 40 -5 12 -24 15 -94 15 l-88 0 -1 162 c-2 153 -8
188 -33 188 -5 0 -12 -8 -16 -17z"/>
<path d="M317 989 c-27 -16 -11 -29 35 -29 l41 0 -7 -62 c-3 -35 -10 -85 -16
-113 -13 -67 -28 -199 -41 -380 -17 -235 -18 -264 -1 -277 24 -21 37 19 43
142 4 63 10 135 13 160 5 40 13 111 46 423 11 102 39 136 73 87 11 -16 12 -31
5 -63 -17 -78 -26 -261 -22 -477 4 -217 15 -297 43 -308 18 -7 44 27 32 42
-28 35 -32 649 -6 796 3 14 1 31 -4 39 -16 25 -198 41 -234 20z"/>
</g>
</svg>
