<?xml version="1.0" encoding="UTF-8" standalone="no"?>
<!-- Created with Inkscape (http://www.inkscape.org/) -->

<svg
   xmlns:dc="http://purl.org/dc/elements/1.1/"
   xmlns:cc="http://creativecommons.org/ns#"
   xmlns:rdf="http://www.w3.org/1999/02/22-rdf-syntax-ns#"
   xmlns:svg="http://www.w3.org/2000/svg"
   xmlns="http://www.w3.org/2000/svg"
   xmlns:sodipodi="http://sodipodi.sourceforge.net/DTD/sodipodi-0.dtd"
   xmlns:inkscape="http://www.inkscape.org/namespaces/inkscape"
   width="300"
   height="300"
   id="svg2"
   version="1.1"
   inkscape:version="0.48.4 r9939"
   sodipodi:docname="dessin.svg">
  <defs
     id="defs4" />
  <sodipodi:namedview
     id="base"
     pagecolor="#ffffff"
     bordercolor="#666666"
     borderopacity="1.0"
     inkscape:pageopacity="0.0"
     inkscape:pageshadow="2"
     inkscape:zoom="1.979899"
     inkscape:cx="73.020464"
     inkscape:cy="169.34798"
     inkscape:document-units="px"
     inkscape:current-layer="layer1"
     showgrid="false"
     inkscape:window-width="1215"
     inkscape:window-height="1000"
     inkscape:window-x="65"
     inkscape:window-y="24"
     inkscape:window-maximized="1" />
  <metadata
     id="metadata7">
    <rdf:RDF>
      <cc:Work
         rdf:about="">
        <dc:format>image/svg+xml</dc:format>
        <dc:type
           rdf:resource="http://purl.org/dc/dcmitype/StillImage" />
        <dc:title />
      </cc:Work>
    </rdf:RDF>
  </metadata>
  <g
     inkscape:label="Calque 1"
     inkscape:groupmode="layer"
     id="layer1"
     transform="translate(0,-752.36218)">
    <path
       style="fill:#000000"
       d="m 99.270592,1021.387 c -4.448182,-7.8201 -4.239861,-112.63081 0.307967,-154.94261 1.856251,-17.27027 3.971741,-41.70379 4.701081,-54.29672 l 1.32606,-22.8962 -7.725371,0 c -7.070445,0 -7.878215,0.94278 -9.528516,11.12101 -2.807358,17.31443 -6.723094,53.62253 -8.11343,75.2304 -0.694532,10.79392 -1.831244,27.86794 -2.52603,37.94227 -0.694798,10.07434 -1.644733,27.43489 -2.110998,38.57904 -0.915949,21.89272 -1.883942,24.42603 -8.376282,21.92161 -3.48995,-1.34624 -4.034347,-4.55472 -3.051787,-17.98605 0.657741,-8.99111 2.051375,-37.54284 3.096965,-63.44827 1.045589,-25.90542 2.25749,-47.69108 2.693112,-48.41261 0.435623,-0.72155 1.623572,-10.73046 2.639889,-22.24203 1.016319,-11.51159 2.884248,-22.91343 4.15096,-25.33739 3.952579,-7.5636 2.551133,-12.63614 -4.204471,-15.21809 -7.021775,-2.68371 -7.728749,-4.47518 -4.063738,-10.29754 2.006724,-3.18794 4.066752,-3.24174 13.626095,-0.35591 6.194074,1.8699 13.604693,4.36912 16.468016,5.55381 2.863336,1.18469 7.841676,2.89612 11.062906,3.80316 4.58194,1.29016 5.96323,3.74676 6.34558,11.28547 0.7907,15.58996 -0.49713,37.04245 -3.48458,58.04544 -5.74632,40.39916 -9.86279,118.93998 -6.82681,130.2537 1.04007,3.87588 2.36328,15.52966 2.94047,25.89731 0.79383,14.2582 0.1843,19.1841 -2.50207,20.2203 -1.95777,0.7552 -5.02948,-1.2283 -6.845018,-4.4201 z m 32.783678,-23.45297 c 1.6508,-31.4004 3.70901,-48.32981 6.76032,-55.60507 1.20722,-2.87837 4.20771,-12.29853 6.66774,-20.93367 2.46005,-8.63515 5.90603,-18.0553 7.65772,-20.93368 1.75168,-2.87837 4.03353,-8.69326 5.07074,-12.92191 1.03724,-4.22868 3.85809,-9.19569 6.26861,-11.03779 2.75933,-2.10868 3.1775,-3.38013 1.12894,-3.43253 -1.78958,-0.0457 -3.2538,-2.43824 -3.2538,-5.31664 0,-7.49383 -3.03027,-6.59082 -18.12008,5.39963 -13.17999,10.4729 -22.227,12.56036 -22.227,5.12856 0,-2.08565 6.44251,-8.30272 14.3167,-13.81574 7.87422,-5.51301 14.68496,-11.68388 15.135,-13.71304 0.45007,-2.02919 -1.76717,-7.20482 -4.92716,-11.5014 -4.28463,-5.8257 -5.74548,-11.46622 -5.74548,-22.18399 0,-12.08057 1.46642,-16.59106 9.19736,-28.28961 11.67415,-17.66541 18.26022,-23.65228 23.70791,-21.55083 6.1863,2.38637 5.28684,6.52866 -3.45291,15.90176 -10.59993,11.36815 -18.29839,25.82164 -18.28676,34.33262 0.0131,9.75256 9.16007,24.12496 15.35332,24.12496 2.76507,0 5.41789,-0.88314 5.8951,-1.96253 0.47721,-1.07939 6.36654,-4.84596 13.08737,-8.37018 10.67298,-5.59659 13.01543,-5.97951 18.50633,-3.02544 10.8447,5.83438 19.1276,30.89054 12.67672,38.34772 -1.18272,1.36723 -3.65897,7.78471 -5.50278,14.26106 -1.84378,6.47636 -4.33119,14.13024 -5.52757,17.00862 -7.55079,18.16647 -10.50838,32.32325 -9.02018,43.1757 2.48252,18.10329 10.83026,38.2671 27.45661,66.32109 4.94765,8.3482 5.34037,10.4581 2.30606,12.3893 -6.00877,3.8241 -7.33918,2.9547 -15.3364,-10.0218 -4.21301,-6.8361 -8.87269,-13.85156 -10.3548,-15.58978 -1.48215,-1.73826 -2.69482,-4.40366 -2.69482,-5.92312 0,-1.51947 -1.06751,-4.80734 -2.37226,-7.30638 -12.10451,-23.18458 -14.25223,-48.77761 -5.98079,-71.26982 16.11781,-43.82855 16.67194,-45.91236 15.49784,-58.27932 -0.65201,-6.86779 -1.81193,-13.11662 -2.57759,-13.88628 -1.8657,-1.87552 -24.34392,8.86782 -28.11751,13.43858 -1.64508,1.9926 -3.02627,8.07307 -3.06932,13.51216 -0.0851,10.73871 -5.71938,33.99637 -11.27056,46.52321 -8.37229,18.89287 -14.1819,47.15964 -18.28554,88.96811 -0.98881,10.07434 -2.95361,19.78884 -4.36623,21.58784 -6.14247,7.8225 -7.56596,2.4161 -6.20085,-23.55037 z m -67.035146,17.44877 c -0.869009,-2.2765 -1.580016,-11.6966 -1.580016,-20.93369 0,-15.82298 0.349424,-16.79458 6.039928,-16.79458 5.753569,0 6.004397,0.77539 5.290451,16.35443 -0.412212,8.99494 -0.787449,18.41514 -0.833852,20.93364 -0.105178,5.7091 -6.779441,6.0386 -8.916511,0.4402 z"
       id="path3054"
       inkscape:connector-curvature="0" />
  </g>
</svg>
