<?xml version="1.0" encoding="UTF-8" standalone="no"?>
<svg
   xmlns:dc="http://purl.org/dc/elements/1.1/"
   xmlns:cc="http://creativecommons.org/ns#"
   xmlns:rdf="http://www.w3.org/1999/02/22-rdf-syntax-ns#"
   xmlns:svg="http://www.w3.org/2000/svg"
   xmlns="http://www.w3.org/2000/svg"
   viewBox="0 0 300 300"
   height="300"
   width="300"
   id="svg378"
   version="1.1">
  <metadata
     id="metadata384">
    <rdf:RDF>
      <cc:Work
         rdf:about="">
        <dc:format>image/svg+xml</dc:format>
        <dc:type
           rdf:resource="http://purl.org/dc/dcmitype/StillImage" />
        <dc:title></dc:title>
      </cc:Work>
    </rdf:RDF>
  </metadata>
  <defs
     id="defs382" />
  <path
     id="path388"
     d="m 139.38587,278.93134 c -3.69551,-6.30591 -6.16538,-13.56688 -10.19134,-29.9607 -2.22029,-9.04109 -6.1692,-23.75051 -8.77536,-32.68762 -5.63119,-19.31065 -6.72297,-26.43932 -5.47955,-35.77842 0.47533,-3.57007 1.6807,-9.07564 2.67861,-12.23458 1.66841,-5.28146 2.08848,-5.92509 5.22131,-8.00019 7.3215,-4.84956 19.29917,-6.72628 43.78333,-6.86017 12.94053,-0.0708 15.19745,0.0859 17.23029,1.19635 2.64759,1.44623 3.83509,3.25688 3.83509,5.8476 0,2.45867 -1.11873,3.18013 -7.70557,4.9693 -5.07732,1.37915 -7.47659,1.54652 -20.98693,1.46408 -17.14636,-0.10462 -20.6956,0.49686 -25.26321,4.28132 -1.50978,1.25092 -3.38932,3.53726 -4.17675,5.08076 -3.11687,6.10955 -1.27182,19.16826 6.20335,43.90541 6.17024,20.41881 8.52492,29.08018 11.58441,42.61152 3.85352,17.04318 3.543,19.49501 -2.46898,19.49501 -3.43398,0 -3.59442,-0.0973 -5.4887,-3.32967 z M 54.01644,161.99575 c -1.64638,-4.98859 0.24946,-9.788 8.58938,-21.74442 2.78672,-3.99516 18.06514,-27.6937 33.95203,-52.663435 15.88689,-24.969733 30.06051,-46.826234 31.49693,-48.570002 1.43642,-1.743767 4.01717,-5.012532 5.735,-7.263921 4.36008,-5.714311 7.92949,-9.252444 11.92111,-11.816621 l 3.42217,-2.198365 4.47006,2.382517 c 10.17871,5.425195 11.46647,7.174849 51.6185,70.132862 16.00854,25.101235 30.89777,48.200545 33.08718,51.331795 5.49341,7.85655 8.21594,13.83839 8.21664,18.05329 3.2e-4,1.87412 -0.34827,3.62309 -0.77463,3.8866 -0.42636,0.26351 -2.80856,0.0954 -5.29378,-0.37348 l -4.51857,-0.8526 -31.44311,-48.87823 C 187.20164,86.538716 171.02895,60.984553 168.55605,56.634712 159.67038,41.004826 156.0896,36.754476 150.5512,35.263139 148.1637,34.62025 147.35005,34.65171 146.64513,35.414171 144.183,38.077274 83.53932,132.86364 78.97144,141.18849 c -2.91342,5.30963 -6.25677,11.04867 -7.42967,12.75342 -4.19874,6.10265 -10.55032,10.64356 -14.88766,10.64356 -1.39982,0 -1.96665,-0.55653 -2.63767,-2.58972 z m 80.28197,-40.70355 c -2.39709,-0.14595 -8.0131,-0.63442 -12.48002,-1.0855 -6.98673,-0.70555 -8.34562,-1.05853 -9.72421,-2.52598 -1.30161,-1.38549 -1.52712,-2.26813 -1.20091,-4.70024 0.2209,-1.64693 0.55875,-3.15152 0.75077,-3.34354 0.19202,-0.19202 2.09905,-0.8149 4.23783,-1.38418 4.86461,-1.29479 64.60118,-1.53214 69.12957,-0.27467 3.71578,1.03183 5.58237,3.03281 5.58237,5.98428 0,3.92124 -1.14963,4.70857 -8.7167,5.96968 -6.70541,1.11752 -37.23098,1.99017 -47.5787,1.36015 z"
     style="fill:#000000;stroke-width:0.72639227" />
</svg>
