<?xml version="1.0" encoding="UTF-8" standalone="no"?>
<!-- Created with Inkscape (http://www.inkscape.org/) -->

<svg
   xmlns:dc="http://purl.org/dc/elements/1.1/"
   xmlns:cc="http://creativecommons.org/ns#"
   xmlns:rdf="http://www.w3.org/1999/02/22-rdf-syntax-ns#"
   xmlns:svg="http://www.w3.org/2000/svg"
   xmlns="http://www.w3.org/2000/svg"
   xmlns:sodipodi="http://sodipodi.sourceforge.net/DTD/sodipodi-0.dtd"
   xmlns:inkscape="http://www.inkscape.org/namespaces/inkscape"
   width="300"
   height="300"
   id="svg2"
   version="1.1"
   inkscape:version="0.48.4 r9939"
   sodipodi:docname="image-seal.svg">
  <defs
     id="defs4" />
  <sodipodi:namedview
     id="base"
     pagecolor="#ffffff"
     bordercolor="#666666"
     borderopacity="1.0"
     inkscape:pageopacity="0.0"
     inkscape:pageshadow="2"
     inkscape:zoom="1.979899"
     inkscape:cx="200.43343"
     inkscape:cy="134.48103"
     inkscape:document-units="px"
     inkscape:current-layer="layer1"
     showgrid="false"
     inkscape:window-width="1215"
     inkscape:window-height="1000"
     inkscape:window-x="65"
     inkscape:window-y="24"
     inkscape:window-maximized="1" />
  <metadata
     id="metadata7">
    <rdf:RDF>
      <cc:Work
         rdf:about="">
        <dc:format>image/svg+xml</dc:format>
        <dc:type
           rdf:resource="http://purl.org/dc/dcmitype/StillImage" />
        <dc:title />
      </cc:Work>
    </rdf:RDF>
  </metadata>
  <g
     inkscape:label="Calque 1"
     inkscape:groupmode="layer"
     id="layer1"
     transform="translate(0,-752.36218)">
    <path
       style="fill:#000000"
       d="m 178.50214,1039.0548 c -0.51893,-7.6645 0.61824,-11.2568 6.98434,-22.0637 9.52757,-16.1736 12.34979,-25.76025 12.99052,-44.12725 0.88156,-25.27049 -9.10517,-42.41862 -14.93315,-25.64157 -1.25324,3.60771 -3.91009,9.59823 -5.90412,13.31225 -1.99403,3.71402 -3.62551,8.2904 -3.62551,10.16973 0,1.87932 -0.98313,5.28078 -2.18473,7.5588 -1.20162,2.27802 -3.81613,7.91566 -5.81007,12.52813 -1.99393,4.61246 -6.37764,12.44201 -9.74158,17.39901 -3.36393,4.9571 -6.11624,9.7803 -6.11624,10.7184 0,2.823 -9.56406,7.8909 -12.02334,6.371 -4.08178,-2.5227 -2.42436,-11.7678 3.20074,-17.8539 3.0189,-3.2663 7.58072,-9.69549 10.13736,-14.28712 2.55662,-4.59163 5.18508,-8.8851 5.84103,-9.54105 3.37739,-3.37741 7.06725,-12.59838 9.87644,-24.68145 1.72404,-7.41552 3.96392,-13.48274 4.97749,-13.48274 2.78938,0 2.2058,-22.61334 -0.78081,-30.25682 -3.30745,-8.46457 -2.95291,-56.56386 0.49439,-67.07357 1.75493,-5.35026 3.85356,-7.63262 6.53173,-7.10362 4.40768,0.87062 4.64947,6.54254 1.65564,38.8393 l -1.76887,19.0821 9.94602,15.24254 c 5.47029,8.3834 11.5124,16.80896 13.4269,18.72344 7.07209,7.07212 10.83298,20.42135 9.24673,32.82135 -4.2627,33.32279 -20.45782,77.52094 -28.4052,77.52094 -2.05321,0 -3.86028,-1.8784 -4.01571,-4.1742 z m -65.49429,-6.1741 c -1.08792,-2.8351 -0.23805,-117.56726 1.58405,-213.86626 0.36209,-19.13588 -2.78107,-31.0084 -8.20923,-31.0084 -6.386161,0 -9.289382,14.19779 -12.437571,60.82418 -0.620049,9.18326 -1.828112,22.60036 -2.684564,29.81578 -0.856477,7.21542 -1.433352,13.73756 -1.281936,14.49361 1.402224,7.00244 -1.399194,130.15649 -3.075008,135.18149 -1.933923,5.799 -10.513925,3.3015 -12.236514,-3.5618 -1.392564,-5.5484 0.389466,-46.90422 5.216831,-121.06805 0.597746,-9.18326 2.122955,-37.93149 3.389386,-63.88498 1.266431,-25.95346 2.868778,-48.10422 3.560767,-49.22391 1.713667,-2.77275 -4.999891,-8.0251 -13.959651,-10.92133 -4.064296,-1.31378 -7.389614,-3.99872 -7.389614,-5.96656 0,-8.59976 45.668684,-3.16572 56.856154,6.76519 4.11937,3.65671 4.28718,7.65233 2.81631,67.06081 l -1.56407,63.17243 5.1209,-4.63435 c 5.72756,-5.18339 13.1717,-20.37207 18.03218,-36.79207 1.90377,-6.43153 3.77377,-28.89917 4.56439,-54.84028 0.76645,-25.14794 2.41214,-45.23776 3.84742,-46.96714 11.74453,-14.15131 14.76012,32.67017 6.00896,93.29747 -1.94783,13.49426 -16.35603,45.04818 -24.11114,52.80329 -3.00421,3.00421 -4.41405,3.15153 -7.29318,0.76209 -1.96295,-1.62913 -4.11586,-2.4152 -4.78424,-1.74682 -1.33613,1.33612 -1.96481,113.00561 -0.66809,118.67101 1.09178,4.77 -9.51094,6.3034 -11.30254,1.6346 z m 95.04748,-140.51945 c -6.50123,-13.23562 -9.58463,-21.9243 -17.14117,-48.30155 -2.87009,-10.01849 -3.28061,-32.20104 -0.59593,-32.20104 1.22552,0 2.3856,-9.8592 2.57792,-21.90935 0.41709,-26.13343 3.48232,-32.09108 12.94935,-25.16862 3.84058,2.80832 3.87149,4.19348 0.45587,20.43068 -6.70418,31.87068 -3.24608,70.36421 8.29172,92.29788 3.81239,7.2475 7.6316,16.90836 8.4871,21.46858 1.34152,7.15089 0.91878,8.29131 -3.07339,8.29131 -3.30678,0 -6.72026,-4.25786 -11.95147,-14.90789 z"
       id="path3002"
       inkscape:connector-curvature="0" />
  </g>
</svg>
