<?xml version="1.0" encoding="UTF-8" standalone="no"?>
<!-- Created with Inkscape (http://www.inkscape.org/) -->

<svg
   xmlns:dc="http://purl.org/dc/elements/1.1/"
   xmlns:cc="http://creativecommons.org/ns#"
   xmlns:rdf="http://www.w3.org/1999/02/22-rdf-syntax-ns#"
   xmlns:svg="http://www.w3.org/2000/svg"
   xmlns="http://www.w3.org/2000/svg"
   xmlns:sodipodi="http://sodipodi.sourceforge.net/DTD/sodipodi-0.dtd"
   xmlns:inkscape="http://www.inkscape.org/namespaces/inkscape"
   width="300"
   height="300"
   id="svg2"
   version="1.1"
   inkscape:version="0.48.4 r9939"
   sodipodi:docname="image-seal.svg">
  <defs
     id="defs4" />
  <sodipodi:namedview
     id="base"
     pagecolor="#ffffff"
     bordercolor="#666666"
     borderopacity="1.0"
     inkscape:pageopacity="0.0"
     inkscape:pageshadow="2"
     inkscape:zoom="1.979899"
     inkscape:cx="130.93154"
     inkscape:cy="137.35134"
     inkscape:document-units="px"
     inkscape:current-layer="layer1"
     showgrid="false"
     inkscape:window-width="1215"
     inkscape:window-height="1000"
     inkscape:window-x="65"
     inkscape:window-y="24"
     inkscape:window-maximized="1"
     fit-margin-top="10"
     fit-margin-left="10"
     fit-margin-right="10"
     fit-margin-bottom="10" />
  <metadata
     id="metadata7">
    <rdf:RDF>
      <cc:Work
         rdf:about="">
        <dc:format>image/svg+xml</dc:format>
        <dc:type
           rdf:resource="http://purl.org/dc/dcmitype/StillImage" />
        <dc:title />
      </cc:Work>
    </rdf:RDF>
  </metadata>
  <g
     inkscape:label="Calque 1"
     inkscape:groupmode="layer"
     id="layer1"
     transform="translate(0,-752.36218)">
    <path
       style="fill:#000000"
       d="m 197.1741,1039.4628 c -0.71535,-2.7355 -2.16672,-4.9736 -3.2253,-4.9736 -1.05856,0 -2.55999,-3.6369 -3.33652,-8.082 -0.77653,-4.4451 -2.49785,-13.6772 -3.82514,-20.5158 -1.32731,-6.83859 -4.09784,-21.21923 -6.15673,-31.95697 -2.05893,-10.73774 -4.31894,-20.0986 -5.02228,-20.80194 -0.70334,-0.70333 -9.76017,1.73067 -20.12633,5.40887 -11.11882,3.94528 -22.56975,6.367 -27.92467,5.90563 l -9.07719,-0.78204 0.63356,29.49126 c 0.34848,16.22019 1.193,30.94919 1.87679,32.73109 1.70722,4.4489 -3.51196,13.5755 -7.76337,13.5755 -1.91127,0 -4.14452,-2.1093 -4.96272,-4.6872 -0.81819,-2.5779 -1.7329,-57.13134 -2.03266,-121.22985 -0.34688,-74.17696 -1.44898,-117.20694 -3.03176,-118.36978 -1.36772,-1.00485 -4.284209,-1.84413 -6.48106,-1.86507 -5.885834,-0.0562 -7.480392,25.05513 -8.677627,136.65578 -0.862825,80.42792 -1.615807,96.25172 -4.728163,99.36412 -4.887101,4.8871 -9.424003,0.5333 -9.370712,-8.9925 0.155673,-27.83436 3.729179,-148.18741 4.637567,-156.19261 0.620808,-5.47088 1.378573,-23.91501 1.683919,-40.98697 l 0.555179,-31.03991 -11.108919,-0.79205 c -12.765818,-0.9102 -13.663442,-1.42232 -11.657244,-6.65036 1.869055,-4.8707 24.739229,-5.05931 42.6603,-0.35181 14.76158,3.87757 23.47567,14.85339 18.77135,23.64346 -2.62537,4.9056 -3.9284,55.93475 -3.03777,118.96852 0.35182,24.90146 1.09554,30.4629 4.07364,30.4629 9.58191,0 47.11416,-15.51236 50.40144,-20.83128 2.38874,-3.86509 0.70152,-24.61935 -2.29498,-28.2299 -1.99831,-2.40784 -7.61918,-2.80988 -22.23844,-1.5907 -16.11725,1.34413 -19.56418,1.00134 -19.56418,-1.94575 0,-2.47925 6.29738,-4.88252 20.51582,-7.82935 11.2837,-2.33864 21.18389,-4.24686 22.0004,-4.24051 3.88512,0.0302 12.19264,9.86911 12.19264,14.44025 0,6.99419 4.33504,17.89925 7.11542,17.89925 6.96916,0 15.73952,-39.47388 10.49774,-47.24857 -2.0316,-3.01328 -9.09475,-3.73015 -36.75317,-3.73015 -30.62714,0 -34.32769,-0.45898 -35.0859,-4.35184 -0.73837,-3.79091 1.26941,-4.35185 15.57674,-4.35185 19.46228,0 19.48602,-0.033 19.787,-27.51772 0.23002,-21.01155 -1.2241,-24.86752 -7.14518,-18.94643 -2.12482,2.12483 -6.09477,4.57156 -8.8221,5.43717 -2.72735,0.86562 -4.95881,2.37624 -4.95881,3.35689 0,0.98066 -3.23975,3.69678 -7.19945,6.03584 -6.56033,3.8753 -7.33558,3.89795 -8.73342,0.25523 -1.68185,-4.38282 17.32279,-24.40314 28.96532,-30.5133 5.99277,-3.14512 6.73224,-5.19809 8.28535,-23.0026 1.69524,-19.43371 4.0049,-23.0731 10.51282,-16.56518 1.70663,1.70665 2.99633,9.95703 3.01263,19.27245 l 0.0287,16.28832 9.94318,4.76391 c 11.17092,5.35212 29.78806,22.50862 29.78806,27.45099 0,1.77884 -1.80683,4.73379 -4.01518,6.56654 -3.43201,2.84832 -4.60582,2.56744 -8.082,-1.93406 -2.23675,-2.89652 -7.19188,-9.29475 -11.01143,-14.21826 -3.81955,-4.92355 -9.13502,-8.9519 -11.81214,-8.9519 -4.49061,0 -4.86753,1.82936 -4.86753,23.6243 0,23.38908 0.0605,23.62428 6.07015,23.62428 3.33859,0 6.76178,1.11904 7.60707,2.48676 0.84531,1.36773 3.98873,2.52237 6.98538,2.56586 11.53493,0.16736 14.15215,5.16594 14.15215,27.0285 0,21.70241 -1.69265,25.7884 -18.09822,43.68852 -4.80911,5.24719 -6.42325,9.0481 -5.31294,12.5106 0.87716,2.73545 2.09086,9.44971 2.69708,14.9206 0.60623,5.4709 2.0406,12.18516 3.18749,14.92061 1.1469,2.73544 3.52008,11.6878 5.27371,19.89413 1.75363,8.20638 4.62932,19.14698 6.39043,24.31248 2.17862,6.3902 2.45463,11.3576 0.86362,15.5423 -2.82064,7.4188 -7.41526,8.0065 -9.20124,1.1769 z"
       id="path3002"
       inkscape:connector-curvature="0" />
  </g>
</svg>
