<?xml version="1.0" encoding="UTF-8" standalone="no"?>
<!-- Created with Inkscape (http://www.inkscape.org/) -->

<svg
   xmlns:dc="http://purl.org/dc/elements/1.1/"
   xmlns:cc="http://creativecommons.org/ns#"
   xmlns:rdf="http://www.w3.org/1999/02/22-rdf-syntax-ns#"
   xmlns:svg="http://www.w3.org/2000/svg"
   xmlns="http://www.w3.org/2000/svg"
   xmlns:sodipodi="http://sodipodi.sourceforge.net/DTD/sodipodi-0.dtd"
   xmlns:inkscape="http://www.inkscape.org/namespaces/inkscape"
   width="300"
   height="300"
   id="svg2"
   version="1.1"
   inkscape:version="0.48.3.1 r9886"
   sodipodi:docname="ä¼-.svg">
  <defs
     id="defs4" />
  <sodipodi:namedview
     id="base"
     pagecolor="#ffffff"
     bordercolor="#666666"
     borderopacity="1.0"
     inkscape:pageopacity="0.0"
     inkscape:pageshadow="2"
     inkscape:zoom="1.979899"
     inkscape:cx="160.99503"
     inkscape:cy="168.72649"
     inkscape:document-units="px"
     inkscape:current-layer="layer1"
     showgrid="false"
     inkscape:window-width="1215"
     inkscape:window-height="1000"
     inkscape:window-x="65"
     inkscape:window-y="24"
     inkscape:window-maximized="1" />
  <metadata
     id="metadata7">
    <rdf:RDF>
      <cc:Work
         rdf:about="">
        <dc:format>image/svg+xml</dc:format>
        <dc:type
           rdf:resource="http://purl.org/dc/dcmitype/StillImage" />
        <dc:title></dc:title>
      </cc:Work>
    </rdf:RDF>
  </metadata>
  <g
     inkscape:label="Calque 1"
     inkscape:groupmode="layer"
     id="layer1"
     transform="translate(0,-752.36218)">
    <path
       style="fill:#000000"
       d="m 181.11455,1030.0246 c -2.46611,-4.5433 -6.15693,-15.3957 -8.20187,-24.1167 -4.52685,-19.30555 -4.51109,-85.77583 0.0253,-101.62545 1.8092,-6.32272 2.31602,-13.26595 1.12631,-15.42941 -1.18975,-2.16344 -3.03694,-11.771 -4.10486,-21.35013 l -1.9417,-17.41659 -13.61029,-1.42264 c -18.68675,-1.95324 -31.93837,-0.0717 -33.82553,4.80312 -3.21745,8.31093 -5.14326,38.09066 -6.52817,100.94844 -1.17094,53.14616 -2.26662,65.18146 -6.21554,68.27426 -2.63669,2.065 -5.90021,2.889 -7.25223,1.8311 -1.352057,-1.058 -2.573639,-21.7047 -2.714658,-45.88152 -0.335281,-57.47492 2.402438,-90.70608 13.172428,-159.89131 1.87553,-12.04825 1.39697,-14.15341 -3.55581,-15.64193 -8.819777,-2.6507 -13.04431,2.8696 -18.816272,24.58772 -10.939628,41.1624 -15.307181,73.74345 -19.655769,146.62813 -1.815203,30.42341 -5.291532,38.37341 -15.445279,35.32181 -5.595235,-1.6816 -6.49742,-34.04829 -1.694737,-60.80124 1.643877,-9.15702 3.759225,-25.04643 4.700802,-35.30978 0.941577,-10.26335 2.295887,-20.89991 3.009622,-23.63681 0.713736,-2.73688 2.982493,-15.61272 5.041737,-28.61297 2.059246,-13.00024 4.963304,-26.99571 6.453454,-31.10105 5.560703,-15.31946 7.081065,-28.61298 3.272408,-28.61298 -5.298679,0 -12.759596,-6.44294 -12.759596,-11.01866 0,-3.02688 3.544854,-3.90984 15.696597,-3.90984 8.633132,0 16.580133,1.11964 17.659998,2.48809 1.079863,1.36843 6.525125,2.50521 12.100565,2.52617 17.60116,0.0662 19.35325,2.39558 18.63319,24.77351 l -0.65008,20.20299 21.49157,-0.73656 21.49159,-0.73655 0.89239,-28.99831 c 0.69999,-22.74545 1.89876,-29.30077 5.55943,-30.40096 10.52999,-3.16469 14.19749,1.03744 14.19749,16.26705 l 0,14.80537 13.50148,-0.76509 c 13.04424,-0.73918 13.60202,-1.12013 16.47024,-11.2494 2.63642,-9.3106 9.54028,-15.38113 13.74623,-12.08704 3.36677,2.63685 2.11941,28.70342 -1.50994,31.55407 -2.13194,1.67448 -12.67922,3.12449 -23.59039,3.24312 -19.02256,0.20676 -19.82411,0.47619 -22.21774,7.46567 -1.36579,3.98807 -1.87375,8.02345 -1.1288,8.96748 0.74493,0.94403 14.28613,2.48099 30.0915,3.41547 33.56693,1.98459 38.83933,3.20413 37.48274,8.67001 -0.83944,3.38212 -5.80315,4.04106 -30.44075,4.04106 -34.05528,0 -36.79995,1.48547 -34.11605,18.464 0.95635,6.04986 2.30825,11.44571 3.00419,11.9908 1.29712,1.01589 14.91415,-4.39233 17.76821,-7.05693 2.93267,-2.73798 19.5407,-4.9533 25.68469,-3.42604 8.85619,2.20147 7.44294,8.35949 -2.60505,11.35152 -18.68742,5.56457 -29.02509,10.28437 -30.89792,14.10674 -2.44262,4.98538 11.35502,14.05217 26.99216,17.73728 11.16527,2.63122 25.30157,11.01168 25.30157,14.99957 0,1.14758 -2.21647,3.52721 -4.92547,5.28805 -4.11963,2.67774 -8.13115,1.85372 -24.51915,-5.03658 -10.77657,-4.53098 -21.52831,-9.75329 -23.89283,-11.60518 -2.3645,-1.8519 -5.50091,-3.36707 -6.96978,-3.36707 -6.44932,0 -8.58316,43.34858 -3.36812,68.42232 1.70773,8.21069 4.03088,19.4071 5.16251,24.8808 1.13168,5.4738 3.97151,11.6622 6.31076,13.7521 3.42356,3.0585 3.49196,4.9955 0.35069,9.9303 -5.96455,9.3699 -13.99423,9.164 -19.23631,-0.4934 z"
       id="path2996"
       inkscape:connector-curvature="0"
       sodipodi:nodetypes="csccscsssssssssssssssssssssscccssscsssssscsssscsssssssssssssscc" />
  </g>
</svg>
