<?xml version="1.0" encoding="UTF-8" standalone="no"?>
<!-- Created with Inkscape (http://www.inkscape.org/) -->

<svg
   xmlns:dc="http://purl.org/dc/elements/1.1/"
   xmlns:cc="http://creativecommons.org/ns#"
   xmlns:rdf="http://www.w3.org/1999/02/22-rdf-syntax-ns#"
   xmlns:svg="http://www.w3.org/2000/svg"
   xmlns="http://www.w3.org/2000/svg"
   xmlns:sodipodi="http://sodipodi.sourceforge.net/DTD/sodipodi-0.dtd"
   xmlns:inkscape="http://www.inkscape.org/namespaces/inkscape"
   width="300"
   height="300"
   id="svg2"
   version="1.1"
   inkscape:version="0.48.4 r9939"
   sodipodi:docname="image-seal.svg">
  <defs
     id="defs4" />
  <sodipodi:namedview
     id="base"
     pagecolor="#ffffff"
     bordercolor="#666666"
     borderopacity="1.0"
     inkscape:pageopacity="0.0"
     inkscape:pageshadow="2"
     inkscape:zoom="2.0018442"
     inkscape:cx="168.83149"
     inkscape:cy="136.20087"
     inkscape:document-units="px"
     inkscape:current-layer="layer1"
     showgrid="false"
     inkscape:window-width="1215"
     inkscape:window-height="1000"
     inkscape:window-x="65"
     inkscape:window-y="24"
     inkscape:window-maximized="1" />
  <metadata
     id="metadata7">
    <rdf:RDF>
      <cc:Work
         rdf:about="">
        <dc:format>image/svg+xml</dc:format>
        <dc:type
           rdf:resource="http://purl.org/dc/dcmitype/StillImage" />
        <dc:title />
      </cc:Work>
    </rdf:RDF>
  </metadata>
  <g
     inkscape:label="Calque 1"
     inkscape:groupmode="layer"
     id="layer1"
     transform="translate(0,-752.36218)">
    <path
       style="fill:#000000"
       d="m 113.33995,1045.7463 c -3.08127,-4.9856 -5.33762,-34.8683 -5.23367,-69.31388 0.12356,-40.94197 2.98353,-103.69576 5.15252,-113.05721 4.03358,-17.40906 3.92286,-27.91427 -0.36313,-34.45552 -4.59971,-7.02005 -11.5822,-9.12432 -11.62427,-3.50313 -0.10352,13.83494 -3.378336,68.0949 -5.515596,91.38728 -1.43921,15.68491 -3.6381,41.93445 -4.886414,58.33231 -3.245949,42.63875 -7.973601,67.40625 -12.866585,67.40625 -5.445352,0 -8.32627,-8.3123 -6.681743,-19.2788 1.950402,-13.0062 6.345018,-66.06575 8.388,-101.27467 0.744633,-12.8331 2.17566,-24.49956 3.180054,-25.92547 1.004397,-1.4259 2.15106,-13.09236 2.548142,-25.92547 0.397085,-12.8331 1.805164,-29.09063 3.129072,-36.12784 C 91.1979,820.02209 89.454689,817.10322 78.425689,817.03047 71.993144,816.98797 65,811.53186 65,806.55552 c 0,-2.16099 7.123119,-2.77076 24.877764,-2.1296 24.049496,0.86848 25.087216,1.15734 31.168896,8.67604 l 6.29115,7.77764 -1.83528,59.62858 c -1.60771,52.23474 -1.61426,94.80665 -0.0231,150.36772 0.40436,14.1198 -0.0703,15.6288 -5.14314,16.3517 -3.07373,0.438 -6.22206,-0.2287 -6.99629,-1.4813 z m 111.05383,-7.9586 c -12.85831,-7.9021 -30.80981,-28.4113 -36.61282,-41.8293 -2.17784,-5.03569 -4.88402,-10.95064 -6.01376,-13.14432 -3.85145,-7.47862 -7.08637,-31.87415 -7.72183,-58.2326 -0.23439,-9.72226 -1.01656,-10.73942 -12.5188,-16.27977 -15.89807,-7.65771 -22.08766,-13.0451 -25.97491,-22.60843 -5.22739,-12.86033 0.20313,-44.65453 9.44767,-55.31357 5.94094,-6.84998 21.02151,-13.38893 30.87841,-13.38893 7.82051,0 13.56451,-4.062 13.56451,-9.59242 0,-1.85367 -1.28989,-3.37031 -2.86643,-3.37031 -4.04339,0 -19.31445,-13.31693 -18.47578,-16.11157 0.38194,-1.27273 -1.07637,-4.08484 -3.24069,-6.24915 -7.49154,-7.49155 -3.57798,-24.30513 5.65731,-24.30513 2.18853,0 3.37031,3.54085 3.37031,10.09808 0,10.47998 0.59733,11.28649 21.38851,28.87871 5.34713,4.52441 9.72206,10.19797 9.72206,12.60795 0,3.21152 3.98119,5.29022 14.90714,7.78347 23.27405,5.31102 27.5798,12.33894 28.76444,46.94984 l 0.94159,27.50938 -10.43687,10.8627 c -5.74026,5.97447 -11.475,10.86269 -12.74382,10.86269 -5.21273,0 -13.11901,10.59968 -14.83507,19.88888 -1.00846,5.45897 -5.36316,17.3528 -9.6771,26.43073 -7.09576,14.93177 -7.50861,17.15623 -4.33047,23.33292 1.93219,3.75518 4.09825,7.41093 4.81348,8.12388 0.71522,0.71295 7.02466,8.11273 14.02097,16.44397 6.99632,8.3313 15.51144,16.4193 18.92246,17.9735 4.58644,2.0897 6.00011,4.5536 5.42726,9.4593 -0.97368,8.3382 -6.33406,9.3919 -16.37777,3.2195 z m -31.34744,-91.81771 c 0.46685,-1.78237 2.28415,-7.69424 4.03845,-13.13747 1.75431,-5.44323 3.71122,-22.3596 4.34871,-37.59193 1.66888,-39.87724 1.47236,-39.3616 15.00251,-39.3616 8.34199,0 11.793,1.18129 13.05446,4.46856 1.7914,4.66835 -4.42014,11.08672 -10.72944,11.08672 -2.38473,0 -3.3933,4.23811 -3.3933,14.25901 0,16.08924 3.05059,18.05952 11.94145,7.71259 7.03817,-8.19084 10.33057,-30.97554 6.018,-41.64678 -6.39021,-15.81228 -8.65812,-19.35761 -11.64878,-18.21 -1.69747,0.65138 -4.29432,-0.0233 -5.77078,-1.50015 -4.0941,-4.0941 -45.25571,-4.01523 -52.94785,0.10137 -19.58303,10.48053 -20.17032,58.2418 -0.73926,60.1201 10.51658,1.01659 11.66646,-0.008 11.66646,-10.39194 0,-9.44221 -0.69874,-10.47617 -8.42578,-12.46784 -5.82586,-1.50163 -8.68141,-3.92442 -9.25422,-7.85176 -0.75904,-5.20405 0.26784,-5.67999 12.25483,-5.67999 20.6384,0 22.00596,3.67333 19.78989,53.1566 -1.28745,28.74808 -0.98217,40.17509 1.07332,40.17509 1.57989,0 3.25449,-1.4583 3.72133,-3.24068 z"
       id="path3028"
       inkscape:connector-curvature="0" />
  </g>
</svg>
