<?xml version="1.0" encoding="UTF-8" standalone="no"?>
<!-- Created with Inkscape (http://www.inkscape.org/) -->

<svg
   xmlns:dc="http://purl.org/dc/elements/1.1/"
   xmlns:cc="http://creativecommons.org/ns#"
   xmlns:rdf="http://www.w3.org/1999/02/22-rdf-syntax-ns#"
   xmlns:svg="http://www.w3.org/2000/svg"
   xmlns="http://www.w3.org/2000/svg"
   xmlns:sodipodi="http://sodipodi.sourceforge.net/DTD/sodipodi-0.dtd"
   xmlns:inkscape="http://www.inkscape.org/namespaces/inkscape"
   width="300"
   height="300"
   id="svg2"
   version="1.1"
   inkscape:version="0.47 r22583"
   sodipodi:docname="佩-bigseal.svg">
  <defs
     id="defs4">
    <inkscape:perspective
       sodipodi:type="inkscape:persp3d"
       inkscape:vp_x="0 : 526.18109 : 1"
       inkscape:vp_y="0 : 1000 : 0"
       inkscape:vp_z="744.09448 : 526.18109 : 1"
       inkscape:persp3d-origin="372.04724 : 350.78739 : 1"
       id="perspective10" />
    <inkscape:perspective
       id="perspective2824"
       inkscape:persp3d-origin="0.5 : 0.33333333 : 1"
       inkscape:vp_z="1 : 0.5 : 1"
       inkscape:vp_y="0 : 1000 : 0"
       inkscape:vp_x="0 : 0.5 : 1"
       sodipodi:type="inkscape:persp3d" />
    <inkscape:perspective
       id="perspective2884"
       inkscape:persp3d-origin="0.5 : 0.33333333 : 1"
       inkscape:vp_z="1 : 0.5 : 1"
       inkscape:vp_y="0 : 1000 : 0"
       inkscape:vp_x="0 : 0.5 : 1"
       sodipodi:type="inkscape:persp3d" />
    <inkscape:perspective
       id="perspective2923"
       inkscape:persp3d-origin="0.5 : 0.33333333 : 1"
       inkscape:vp_z="1 : 0.5 : 1"
       inkscape:vp_y="0 : 1000 : 0"
       inkscape:vp_x="0 : 0.5 : 1"
       sodipodi:type="inkscape:persp3d" />
    <inkscape:perspective
       id="perspective2962"
       inkscape:persp3d-origin="0.5 : 0.33333333 : 1"
       inkscape:vp_z="1 : 0.5 : 1"
       inkscape:vp_y="0 : 1000 : 0"
       inkscape:vp_x="0 : 0.5 : 1"
       sodipodi:type="inkscape:persp3d" />
  </defs>
  <sodipodi:namedview
     id="base"
     pagecolor="#ffffff"
     bordercolor="#666666"
     borderopacity="1.0"
     inkscape:pageopacity="0.0"
     inkscape:pageshadow="2"
     inkscape:zoom="0.7"
     inkscape:cx="498.22191"
     inkscape:cy="99.576167"
     inkscape:document-units="px"
     inkscape:current-layer="layer1"
     showgrid="false"
     inkscape:window-width="1280"
     inkscape:window-height="950"
     inkscape:window-x="0"
     inkscape:window-y="25"
     inkscape:window-maximized="1" />
  <metadata
     id="metadata7">
    <rdf:RDF>
      <cc:Work
         rdf:about="">
        <dc:format>image/svg+xml</dc:format>
        <dc:type
           rdf:resource="http://purl.org/dc/dcmitype/StillImage" />
        <dc:title></dc:title>
      </cc:Work>
    </rdf:RDF>
  </metadata>
  <g
     inkscape:label="Calque 1"
     inkscape:groupmode="layer"
     id="layer1"
     transform="translate(0,-752.36218)">
    <path
       style="fill:#000000"
       d="m 187.93786,1038.1992 c -1.35348,-8.7412 -1.7858,-20.1701 -2.36475,-62.51504 5.71915,-24.22931 -4.86413,-62.57902 -30.11485,-31.16009 -2.71571,10.30984 -3.67521,19.51289 -5.39959,51.79004 -1.10213,20.62999 -3.43233,38.53029 -5.17822,39.77859 -1.89227,1.3529 -5.21682,1.1026 -8.23142,-0.6199 -5.6006,-3.2001 -5.23972,-19.6375 1.54599,-70.41619 4.04627,-30.27897 7.40791,-35.81056 23.44704,-38.58205 12.08304,-4.83173 22.95396,-5.0692 23.3413,-18.78418 0,-6.79548 1.52261,-13.00329 3.38358,-13.79513 5.72204,-2.43473 14.53156,8.86574 12.46289,15.98684 -1.72124,5.92516 -0.0591,7.21421 15.96518,12.38145 23.64122,7.62343 29.69383,15.45443 35.65912,46.13649 6.46753,33.26537 6.47396,51.98777 0.02,58.06457 -7.50186,7.0633 -11.05052,2.7388 -12.08081,-14.7223 -0.50072,-8.4855 -1.71974,-20.49191 -2.70897,-26.68089 -0.98923,-6.18899 -2.77345,-18.38595 -3.96493,-27.10436 -2.40354,-17.58731 -10.90751,-26.2632 -24.44274,-24.93686 -7.67961,0.75253 -7.92365,1.71064 -7.20464,28.28552 0.40931,15.12863 1.48509,36.50876 2.3906,47.51139 2.09463,25.4512 -0.12912,33.7581 -9.03698,33.7581 -3.80635,0 -7.10904,-1.9302 -7.48777,-4.376 l -3e-5,0 z M 26.882135,1027.3435 c -1.32589,-2.8761 -1.34052,-15.5354 -0.03251,-28.13172 1.308004,-12.59636 4.053099,-39.78152 6.100206,-60.41147 8.785011,-88.53192 10.323663,-103.53008 12.506087,-121.90426 L 47.75777,797.5164 31.924383,797.26714 c -6.936744,-2.51723 -19.564873,-8.0631 15.039411,-9.77848 46.235523,-0.72198 46.849231,-0.63635 49.464887,6.90199 1.312337,3.78216 3.933169,8.23172 5.824069,9.88792 2.05188,1.7972 3.28613,45.10353 3.06132,107.41308 -0.32104,88.98545 -1.19347,105.26005 -5.908151,110.21395 -5.069291,5.3266 -6.016778,5.4781 -11.339738,1.8133 -5.046064,-3.474 -5.46572,-8.816 -3.197932,-40.7078 3.579341,-50.33598 3.78754,-142.59444 0.374875,-166.11505 C 82.492002,797.93487 82.21742,797.5164 72.527146,797.5164 l -9.904139,0 -2.417594,35.63355 c -1.329681,19.59846 -3.079464,39.00936 -3.888411,43.13535 -0.808944,4.12599 -1.815854,17.0666 -2.237581,28.75691 -0.421722,11.6903 -2.146832,29.13199 -3.833576,38.7593 -1.686745,9.62731 -3.766595,30.4448 -4.621887,46.2611 -1.520305,28.11389 -5.873342,42.51019 -12.85388,42.51019 -1.912478,0 -4.562052,-2.3532 -5.887943,-5.2293 z M 258.36174,907.31844 c -4.58906,-1.21134 -8.0729,-3.62563 -7.74187,-5.36509 3.3412,-17.55715 -4.7499,-22.75407 -36.29109,-23.30979 -21.65591,-0.38154 -27.56284,-1.43242 -34.96589,-6.22062 -19.37909,-12.53415 -6.03125,-27.09682 29.3031,-31.97006 23.19315,-3.19875 35.85596,-10.48249 32.259,-18.55563 8.81568,-3.94804 9.8624,-18.23566 -5.09231,-19.37965 -26.07545,-7.74866 -53.7949,-5.78245 -81.32114,-1.5268 -14.40146,4.14276 -15.30845,7.28277 -19.06732,66.01149 -1.34573,21.02561 -3.98232,38.88176 -5.85911,39.68033 -5.6655,2.41067 -14.86526,-5.78664 -12.08746,-10.77037 1.38457,-2.48411 3.048,-20.29436 3.6965,-39.57835 1.44364,-42.92801 3.9262,-53.48231 14.77431,-62.81098 l 8.44159,-7.25922 42.14855,0.70262 c 62.06103,1.03456 76.63617,8.19676 72.3569,35.55608 -2.96927,18.98396 -12.13085,25.14454 -41.50629,27.91038 -36.38111,3.42545 -43.81376,17.06858 -9.33667,17.13807 22.82642,0.046 45.54102,5.18343 50.89043,11.51002 5.93979,7.0248 12.9906,26.97524 10.18752,28.82583 -1.34476,0.8878 -6.1997,0.62308 -10.78875,-0.58826 z M 160.46673,820.8663 c -7.61962,-2.11677 -5.05535,-8.31867 3.63209,-8.78453 21.18193,-1.13586 49.91171,-0.64163 49.92571,0.85887 0.009,0.91901 1.00767,3.45086 2.22022,5.62635 1.89289,3.39609 -1.57393,3.9275 -24.51663,3.758 -14.6967,-0.10858 -28.76433,-0.76499 -31.26139,-1.45869 z"
       id="path2968"
       sodipodi:nodetypes="cccssssccsssssssssssscccssccccssssssscccsssssccsssscccsssscccsssssccssssc" />
  </g>
</svg>
