<?xml version="1.0" encoding="UTF-8" standalone="no"?>
<!-- Created with Inkscape (http://www.inkscape.org/) -->

<svg
   xmlns:dc="http://purl.org/dc/elements/1.1/"
   xmlns:cc="http://creativecommons.org/ns#"
   xmlns:rdf="http://www.w3.org/1999/02/22-rdf-syntax-ns#"
   xmlns:svg="http://www.w3.org/2000/svg"
   xmlns="http://www.w3.org/2000/svg"
   xmlns:sodipodi="http://sodipodi.sourceforge.net/DTD/sodipodi-0.dtd"
   xmlns:inkscape="http://www.inkscape.org/namespaces/inkscape"
   version="1.0"
   width="300"
   height="300"
   id="svg2"
   inkscape:version="0.48.3.1 r9886"
   sodipodi:docname="dessin.svg">
  <metadata
     id="metadata2990">
    <rdf:RDF>
      <cc:Work
         rdf:about="">
        <dc:format>image/svg+xml</dc:format>
        <dc:type
           rdf:resource="http://purl.org/dc/dcmitype/StillImage" />
      </cc:Work>
    </rdf:RDF>
  </metadata>
  <sodipodi:namedview
     pagecolor="#ffffff"
     bordercolor="#666666"
     borderopacity="1"
     objecttolerance="10"
     gridtolerance="10"
     guidetolerance="10"
     inkscape:pageopacity="0"
     inkscape:pageshadow="2"
     inkscape:window-width="1215"
     inkscape:window-height="1000"
     id="namedview2988"
     showgrid="false"
     inkscape:zoom="2.2250294"
     inkscape:cx="136.51293"
     inkscape:cy="138.64666"
     inkscape:window-x="65"
     inkscape:window-y="24"
     inkscape:window-maximized="1"
     inkscape:current-layer="svg2" />
  <defs
     id="defs5" />
  <path
     style="fill:#000000"
     d="m 223.63258,283.84424 c -4.99452,-10.13834 -15.81885,-15.54743 -19.30926,-25.92103 -3.54365,-8.23317 -10.57857,-13.10683 -12.68494,-21.41253 -11.02119,-3.12801 -21.79595,3.80974 -32.59617,5.43855 -9.43502,0.87639 -24.66867,8.24236 -31.09225,-1.02747 9.99709,-6.35656 23.3266,-4.95629 34.56289,-8.46006 8.40871,-2.42383 24.03433,-5.38475 25.36104,-14.08199 -6.46796,-1.72989 -6.54731,-13.96825 -16.1978,-8.66206 -11.44309,1.58378 -23.21201,4.57616 -34.74489,2.61962 2.40086,-9.6287 18.85043,-7.78891 27.73936,-9.82751 11.49304,-2.83101 24.10462,-4.17967 32.20475,6.52115 9.5264,3.96171 17.63358,-13.4045 14.42141,-21.34172 -9.23981,-5.81094 -21.23326,-2.51418 -31.65563,-2.79851 -12.37111,0.52719 -24.80314,1.66866 -37.16915,0.76749 -9.13225,-6.87128 13.67892,-5.05495 18.92026,-5.64792 14.89221,-0.63823 10.15251,-19.59553 11.1832,-29.45243 -0.40167,-7.96846 -0.87641,-30.9249 11.15487,-17.87012 7.08443,6.63971 1.81346,22.37322 15.91048,19.42299 6.25763,0.95566 18.63213,-0.86385 20.39983,4.97587 -10.37054,3.82785 -24.77436,-0.37114 -32.52643,8.76062 -5.18612,13.68759 13.95495,12.11725 22.44845,12.22335 11.40267,-1.95519 21.61975,6.55708 16.91295,18.47906 -4.31057,8.77385 -10.57073,16.66593 -17.17158,23.86233 -11.1615,10.29566 5.45739,20.84267 6.74968,31.5528 5.46228,7.62651 12.82001,16.39719 19.1407,25.05353 7.82607,8.94526 -3.78829,19.81959 -10.45758,8.42408 l -1.50525,-1.59809 0.001,0 z M 102.88534,270.9145 c -0.98976,-68.59272 1.97884,-137.16247 2.80435,-205.738991 2.08125,-8.034989 -2.66194,-26.236861 -12.465482,-16.01256 -2.27584,12.137334 -1.80908,24.636158 -0.77293,36.82648 -5.758939,53.486781 -3.31571,107.452101 -7.254314,161.058331 1.015841,6.2781 -4.846135,26.65164 -10.780198,13.26189 -1.996153,-23.18356 1.69173,-46.4458 2.749124,-69.61143 3.551018,-47.26495 5.175451,-94.638542 7.060574,-141.990442 -6.936281,-3.425583 -14.936937,-4.749029 -21.285982,-9.088849 -7.402558,-3.21339 -8.196757,-19.908455 1.892133,-13.394667 8.882443,8.630409 22.242225,10.513384 34.098423,11.853858 15.981202,-3.514302 17.922952,14.811512 17.515692,26.117907 0.20593,22.282677 1.38521,44.747083 -1.37822,66.908923 -5.39029,8.69146 1.9738,20.05607 0.0696,30.91851 1.09828,35.34409 2.18005,70.76277 0.51153,106.09942 0.84279,6.85281 -11.44039,10.15655 -12.76427,2.79162 z m 32.47307,-133.99647 c -2.12507,-18.99393 -2.4331,-38.366713 -0.29088,-57.368397 1.85582,-11.051399 15.63783,-8.789937 23.96219,-11.121042 5.31461,-0.858736 10.62922,-1.717471 15.94383,-2.576207 0,-7.014951 0,-14.029902 0,-21.044853 -13.97823,0.148041 -28.06803,1.929752 -41.96199,0.159118 -6.64553,-7.378767 12.46827,-6.064345 17.4111,-7.089265 26.01607,-1.3445 52.08689,-3.721018 78.14458,-2.776928 13.35775,2.359016 -1.91807,8.766328 -7.95352,6.973153 -10.40473,0.4788 -20.81978,0.688166 -31.2295,1.035023 -0.58685,7.36945 -4.36984,17.326209 3.13202,22.201855 10.95819,2.240826 22.9044,-1.018948 33.4398,3.154053 8.07411,9.48497 6.44811,23.461554 8.11941,35.14169 -1.11362,11.27228 7.15424,23.40423 -0.63514,33.35314 -7.30699,12.83276 -11.25234,-8.7394 -14.60018,-13.40875 -8.02915,-6.44738 -17.40009,-12.25478 -26.77502,-14.24398 -10.81504,-0.60152 -17.68855,8.15972 -26.93713,10.11334 -5.30911,7.17151 -19.85722,7.23103 -20.66622,18.54673 -0.69578,8.37501 -8.63754,5.61161 -9.10335,-1.04868 z m 30.12697,-25.41385 c 13.14415,-3.90688 13.60257,-17.950098 11.75834,-29.231596 0.69272,-12.358498 -13.93069,-7.236059 -21.55834,-7.052767 -3.46828,0.869998 -8.7516,0.126192 -11.13886,1.957366 0.4482,12.871262 -1.18312,25.996437 1.46317,38.653007 4.12809,7.57301 14.4187,-2.44324 19.47569,-4.32601 z m 56.51174,-16.622961 c 0.83318,-10.07323 -1.44519,-25.567699 -15.0846,-23.531494 -14.67698,-3.88596 -22.64015,10.124585 -16.63734,22.686228 3.05224,11.776607 16.59874,14.368167 26.97699,14.989977 6.35154,-1.07211 4.20927,-9.631779 4.74495,-14.144711 z"
     id="path3001"
     inkscape:connector-curvature="0" />
</svg>
