<?xml version="1.0" standalone="no"?>
<!DOCTYPE svg PUBLIC "-//W3C//DTD SVG 20010904//EN"
 "http://www.w3.org/TR/2001/REC-SVG-20010904/DTD/svg10.dtd">
<svg version="1.0" xmlns="http://www.w3.org/2000/svg"
 width="126.000000pt" height="126.000000pt" viewBox="0 0 126.000000 126.000000"
 preserveAspectRatio="xMidYMid meet">
<metadata>
Created by potrace 1.13, written by Peter Selinger 2001-2015
</metadata>
<g transform="translate(0.000000,126.000000) scale(0.100000,-0.100000)"
fill="#000000" stroke="none">
<path d="M326 1052 c-11 -18 8 -52 35 -64 32 -14 37 -42 20 -108 -6 -19 -12
-69 -15 -110 -8 -125 -16 -211 -26 -295 -5 -44 -9 -159 -10 -255 -1 -138 2
-179 13 -195 13 -17 17 -17 31 -6 14 12 16 25 9 80 -18 165 -1 511 38 751 19
113 17 110 44 110 20 0 24 -6 27 -32 2 -18 -1 -62 -6 -98 -13 -104 -18 -730
-5 -730 7 0 9 -9 6 -23 -7 -25 6 -53 20 -44 5 3 8 154 6 349 -2 255 1 357 11
394 16 62 20 162 8 194 -8 21 -21 28 -73 39 -35 7 -76 22 -91 32 -31 21 -35
22 -42 11z"/>
<path d="M804 1038 c-5 -13 -8 -27 -9 -33 0 -13 -60 -29 -79 -22 -9 4 -16 18
-16 32 0 20 -5 25 -25 25 -23 0 -25 -3 -21 -34 2 -19 9 -43 15 -54 6 -11 7
-31 2 -48 -6 -25 -14 -30 -49 -35 -23 -3 -48 -11 -54 -17 -9 -9 3 -12 53 -12
l66 0 18 -40 18 -41 -45 -42 c-67 -62 -128 -159 -108 -172 17 -10 38 7 60 50
27 52 72 105 88 105 7 0 12 5 12 10 0 19 26 10 54 -19 33 -34 141 -85 162 -77
26 10 10 30 -49 58 -53 26 -107 65 -107 77 0 6 33 21 73 35 9 3 17 10 17 16 0
15 -51 12 -85 -6 -27 -14 -30 -14 -42 2 -35 48 -10 64 105 64 40 0 72 4 72 10
0 17 -53 23 -114 13 -82 -14 -106 -4 -106 43 0 34 1 35 33 33 77 -5 96 0 103
26 14 57 -25 105 -42 53z"/>
<path d="M681 546 c2 -41 1 -77 -1 -80 -3 -2 -32 -6 -65 -7 -58 -3 -85 -12
-85 -30 0 -5 35 -9 78 -9 l78 0 22 -48 c12 -27 22 -55 22 -63 0 -9 -23 -39
-51 -69 -53 -56 -82 -105 -93 -157 -15 -66 32 -43 64 33 12 27 36 68 53 91 32
42 67 57 67 28 0 -8 5 -15 10 -15 6 0 10 -6 10 -12 0 -30 126 -160 150 -156
35 7 21 41 -42 102 -71 68 -107 129 -88 151 6 7 31 19 55 26 43 13 59 33 33
42 -7 2 -38 -7 -68 -20 -51 -22 -55 -23 -67 -7 -7 10 -13 29 -13 43 0 48 12
55 99 53 66 0 81 2 81 14 0 12 -16 15 -87 14 -49 -1 -94 -1 -100 -1 -8 1 -13
14 -13 31 0 26 4 30 38 35 59 10 62 12 62 50 0 42 -25 49 -40 10 -13 -34 -57
-35 -62 -2 -2 14 -11 23 -26 25 -23 4 -24 2 -21 -72z"/>
</g>
</svg>
