<?xml version="1.0" encoding="UTF-8" standalone="no"?>
<!-- Created with Inkscape (http://www.inkscape.org/) -->

<svg
   xmlns:dc="http://purl.org/dc/elements/1.1/"
   xmlns:cc="http://creativecommons.org/ns#"
   xmlns:rdf="http://www.w3.org/1999/02/22-rdf-syntax-ns#"
   xmlns:svg="http://www.w3.org/2000/svg"
   xmlns="http://www.w3.org/2000/svg"
   xmlns:sodipodi="http://sodipodi.sourceforge.net/DTD/sodipodi-0.dtd"
   xmlns:inkscape="http://www.inkscape.org/namespaces/inkscape"
   width="300"
   height="300"
   id="svg2"
   version="1.1"
   inkscape:version="0.92.4 (5da689c313, 2019-01-14)"
   sodipodi:docname="image-bigseal.svg">
  <defs
     id="defs4" />
  <sodipodi:namedview
     id="base"
     pagecolor="#ffffff"
     bordercolor="#666666"
     borderopacity="1.0"
     inkscape:pageopacity="0.0"
     inkscape:pageshadow="2"
     inkscape:zoom="1.979899"
     inkscape:cx="104.60582"
     inkscape:cy="168.6356"
     inkscape:document-units="px"
     inkscape:current-layer="layer1"
     showgrid="false"
     inkscape:window-width="1872"
     inkscape:window-height="1016"
     inkscape:window-x="48"
     inkscape:window-y="27"
     inkscape:window-maximized="1" />
  <metadata
     id="metadata7">
    <rdf:RDF>
      <cc:Work
         rdf:about="">
        <dc:format>image/svg+xml</dc:format>
        <dc:type
           rdf:resource="http://purl.org/dc/dcmitype/StillImage" />
        <dc:title />
      </cc:Work>
    </rdf:RDF>
  </metadata>
  <g
     inkscape:label="Calque 1"
     inkscape:groupmode="layer"
     id="layer1"
     transform="translate(0,-752.36218)">
    <path
       style="fill:#000000;stroke-width:6.0869565"
       d="m 107.58936,1031.71 c -2.52049,-5.8587 -5.6574,-61.29389 -6.97097,-123.18935 -2.206702,-103.97904 -6.475372,-131.43754 -18.560412,-119.39054 -2.56669,2.55853 -5.51746,56.47375 -6.55736,119.81157 -1.28726,78.40968 -4.02317,115.15962 -8.57325,115.15962 -4.75953,0 -5.53861,-34.15647 -2.7073,-118.69565 C 67.670728,802.37332 66.994748,786.71 59.097648,786.71 54.093938,786.71 50,783.97087 50,780.62304 c 0,-8.70441 38.440218,-7.5337 49.967758,1.52174 8.136002,6.39124 10.112262,27.81855 12.350732,133.91304 1.46568,69.46739 2.03232,126.30438 1.25921,126.30438 -0.7731,0 -3.46786,-4.7935 -5.98834,-10.6522 z m 40.83769,-27.8862 c 1.99056,-31.26082 5.65941,-43.49828 16.50089,-55.03854 11.36094,-12.09314 12.71808,-17.12511 7.33271,-27.18776 -3.63464,-6.7914 -6.60843,-27.59333 -6.60843,-46.22648 0,-18.63315 -2.66882,-33.87842 -5.93064,-33.87842 -10.82358,0 -24.50414,35.51368 -24.50414,63.61077 0,16.67035 -2.76183,27.69358 -6.93858,27.69358 -11.03803,0 -1.73417,-66.67688 11.84096,-84.85929 6.39587,-8.56654 16.81144,-15.57549 23.14583,-15.57549 9.35663,0 12.08784,5.70896 14.56049,30.43478 3.29712,32.97171 8.59429,31.35763 15.35477,-4.6788 2.35736,-12.56585 6.65816,-24.31295 9.55725,-26.1047 9.78844,-6.04958 28.54698,9.09848 35.31726,28.51982 8.22232,23.58653 8.81123,76.06121 0.64028,57.04629 -2.87724,-6.69565 -5.42384,-20.4666 -5.65916,-30.60211 -0.44252,-19.05534 -15.03911,-45.48485 -25.12081,-45.48485 -3.15797,0 -5.74177,9.56377 -5.74177,21.2528 0,14.66049 -3.77616,23.61094 -12.17391,28.85546 -13.04636,8.14757 -16.23318,25.79494 -5.82035,32.23043 10.45246,6.46003 24.08122,-9.55713 24.08122,-28.30142 0,-9.63353 2.73913,-17.51553 6.08696,-17.51553 8.94441,0 7.34312,24.83917 -2.86264,44.40526 -7.53961,14.45476 -7.59798,17.50384 -0.38774,20.27067 4.66772,1.79114 11.41725,11.66315 14.99899,21.93781 8.21691,23.57101 8.50233,71.64712 0.42548,71.64712 -3.34782,0 -6.08695,-14.4557 -6.08695,-32.1238 0,-51.34516 -22.57001,-73.13226 -48.69566,-47.00662 -9.19069,9.19063 -12.17391,20.28983 -12.17391,45.29292 0,18.2155 -3.08207,35.0239 -6.84892,37.3519 -4.90177,3.0295 -6.12123,-7.1957 -4.2893,-35.9658 z M 125.43369,812.11488 c 1.70977,-2.76646 14.19747,-10.03027 27.7505,-16.14188 15.90059,-7.17013 24.64195,-15.10246 24.64195,-22.36134 0,-6.18721 2.73913,-11.24949 6.08695,-11.24949 3.34777,0 6.09719,4.79348 6.10973,10.65217 0.0122,6.88685 9.697,14.63061 27.3913,21.90733 15.05268,6.19031 27.36854,13.72292 27.36854,16.73913 0,7.54192 -6.47117,6.57275 -24.34783,-3.64646 -8.36956,-4.78447 -23.43484,-8.69905 -33.47826,-8.69905 -10.04348,0 -25.10869,3.91458 -33.47826,8.69905 -16.80322,9.60559 -32.9017,11.95941 -28.04462,4.10054 z"
       id="path55"
       inkscape:connector-curvature="0" />
  </g>
</svg>
