<?xml version="1.0" encoding="UTF-8" standalone="no"?>
<svg
   xmlns:dc="http://purl.org/dc/elements/1.1/"
   xmlns:cc="http://creativecommons.org/ns#"
   xmlns:rdf="http://www.w3.org/1999/02/22-rdf-syntax-ns#"
   xmlns:svg="http://www.w3.org/2000/svg"
   xmlns="http://www.w3.org/2000/svg"
   viewBox="0 0 300 300"
   height="300"
   width="300"
   id="svg58"
   version="1.1">
  <metadata
     id="metadata64">
    <rdf:RDF>
      <cc:Work
         rdf:about="">
        <dc:format>image/svg+xml</dc:format>
        <dc:type
           rdf:resource="http://purl.org/dc/dcmitype/StillImage" />
        <dc:title></dc:title>
      </cc:Work>
    </rdf:RDF>
  </metadata>
  <defs
     id="defs62" />
  <path
     id="path68"
     d="m 92.184017,284.02461 c -2.828444,-2.82846 -2.351354,-12.10771 1.984426,-38.5959 5.575368,-34.06116 5.451568,-32.13133 5.5059,-85.82524 0.04403,-43.50479 0.159862,-48.30995 1.259867,-52.25445 2.45613,-8.807464 3.97571,-10.828384 11.28218,-15.004466 7.83569,-4.478561 15.08222,-5.780451 35.06742,-6.300125 33.14245,-0.861796 47.50144,3.586537 53.67048,16.626831 2.47636,5.23461 3.12513,8.73838 3.13833,16.94936 0.0134,8.29682 -0.8275,14.32797 -2.82371,20.25364 -1.61187,4.78473 -2.04032,5.20567 -8.54843,8.39858 -9.13938,4.48381 -10.95718,4.67564 -45.13327,4.76317 -22.24187,0.0569 -31.48204,0.31455 -33.60627,0.93683 l -2.92978,0.85825 v 17.10694 c 0,15.63925 -0.3249,20.38322 -3.78692,55.29451 -4.11797,41.52572 -4.23575,42.59654 -5.29953,48.18331 -0.99988,5.25121 -2.330235,7.52694 -5.069063,8.6713 -2.945022,1.23051 -3.42495,1.22414 -4.71163,-0.0625 z M 179.66043,140.92908 c 2.2345,-0.41307 5.54031,-1.49979 7.34626,-2.41493 2.95998,-1.49993 3.38929,-2.02764 4.35655,-5.35486 0.78648,-2.7054 0.88804,-4.17741 0.38036,-5.5127 l -0.69261,-1.82174 h -39.65524 -39.65522 v 7.92763 7.92764 h 31.9286 c 20.08802,0 33.43524,-0.27852 35.9913,-0.75104 z m 11.78855,-27.71505 c 0.21163,-0.21163 -0.11447,-2.10216 -0.72467,-4.20117 -0.81984,-2.82011 -1.72807,-4.28822 -3.47913,-5.62381 -3.49549,-2.66615 -11.11484,-4.986044 -19.1359,-5.826394 -8.83968,-0.9261 -34.86911,-0.22083 -41.54754,1.12576 -6.35601,1.28155 -11.95963,4.023854 -12.81395,6.270894 -1.05962,2.78703 -1.75465,6.627 -1.45521,8.03987 0.26886,1.26854 1.40867,1.29602 39.52423,0.95292 21.58608,-0.19432 39.42054,-0.52645 39.63217,-0.73807 z m -22.83632,119.05981 c -13.39501,-1.27154 -26.04329,-5.4454 -29.82922,-9.84346 -2.39468,-2.78189 -4.90999,-7.95726 -5.73343,-11.79687 -0.57381,-2.67555 -0.50232,-5.06002 0.3156,-10.52756 1.61028,-10.76409 2.98937,-14.14299 7.04117,-17.25146 7.73003,-5.93036 14.81316,-8.08513 26.57743,-8.08513 9.03544,0 15.88993,0.76507 25.07331,2.79856 14.15834,3.1351 19.64011,9.86102 19.64011,24.09758 0,5.37546 -0.27402,6.63855 -2.772,12.77787 -1.52463,3.74701 -3.61854,7.69697 -4.65319,8.77767 -2.35777,2.46276 -10.228,6.34468 -15.66834,7.72827 -4.2325,1.07642 -15.05296,1.79332 -19.99144,1.32453 z m 16.0668,-11.67879 c 5.41767,-1.23222 11.33294,-4.4094 13.02915,-6.99814 1.75211,-2.67405 1.7567,-16.09038 0.007,-19.52547 -2.74005,-5.37848 -9.40195,-7.50094 -25.31115,-8.0641 -12.48094,-0.44179 -17.4702,0.46806 -23.13889,4.21967 -3.17368,2.10039 -3.56985,2.65835 -4.34416,6.11835 -1.27652,5.70407 -1.10791,11.60982 0.43051,15.07989 1.66793,3.76216 2.31821,4.27962 8.12477,6.4652 9.11138,3.42952 22.79945,4.61596 31.20308,2.7046 z M 200.66789,71.584879 c -16.11377,-17.311359 -31.2591,-33.09735 -33.65627,-35.079982 -9.08317,-7.512441 -15.20538,-9.412612 -23.21642,-7.205758 -3.23548,0.891296 -5.30313,2.807625 -33.80552,31.331205 -16.697588,16.710014 -32.20818,32.366112 -34.467973,34.791352 -4.358783,4.677884 -8.194838,6.924994 -11.864008,6.949794 l -2.240414,0.0151 v -4.434024 -4.43403 l 9.136521,-9.870138 C 75.578895,78.219785 84.315699,68.504601 89.968924,62.059091 103.75464,46.341346 112.80564,37.135988 120.79859,30.70364 c 6.58677,-5.300719 16.51957,-11.821147 22.24471,-14.602637 2.92077,-1.419019 3.06572,-1.423562 8.29588,-0.259962 7.55505,1.68084 17.78156,7.018129 25.79039,13.4602 7.40515,5.956484 24.4586,23.961883 35.26988,37.238687 3.85924,4.739345 10.69417,12.184427 15.18876,16.544626 8.78384,8.521227 10.95258,11.891432 10.97931,17.061646 l 0.0152,2.92978 -4.3085,-0.008 -4.3085,-0.008 z m -74.42155,1.11613 c -2.82751,-0.740277 -5.34756,-1.576279 -5.60012,-1.857781 -0.25256,-0.281504 -0.6189,-1.792533 -0.81413,-3.357844 -0.33832,-2.712707 -0.23307,-2.914525 2.24718,-4.308496 2.51232,-1.412001 3.42453,-1.462477 26.42957,-1.462477 25.52932,0 30.13997,0.436845 31.82975,3.015765 1.87862,2.867139 1.58271,4.66351 -1.02297,6.210302 -2.06893,1.228165 -4.41444,1.535896 -17.23398,2.261094 -21.61525,1.22277 -29.68344,1.11007 -35.8353,-0.500563 z"
     style="fill:#000000;stroke-width:0.68935949" />
</svg>
