<?xml version="1.0" standalone="no"?>
<!DOCTYPE svg PUBLIC "-//W3C//DTD SVG 20010904//EN"
 "http://www.w3.org/TR/2001/REC-SVG-20010904/DTD/svg10.dtd">
<svg version="1.0" xmlns="http://www.w3.org/2000/svg"
 width="115.000000pt" height="115.000000pt" viewBox="0 0 115.000000 115.000000"
 preserveAspectRatio="xMidYMid meet">
<metadata>
Created by potrace 1.13, written by Peter Selinger 2001-2015
</metadata>
<g transform="translate(0.000000,115.000000) scale(0.100000,-0.100000)"
fill="#000000" stroke="none">
<path d="M560 857 c0 -153 0 -153 -27 -182 -16 -17 -41 -40 -58 -51 -24 -18
-28 -25 -19 -44 9 -21 10 -21 51 17 75 69 78 70 129 24 50 -47 64 -51 64 -17
0 21 -30 52 -78 82 -2 1 -5 65 -7 142 -3 140 -13 182 -40 182 -13 0 -15 -25
-15 -153z"/>
<path d="M232 968 c3 -7 16 -19 30 -26 l26 -12 -4 -158 c-2 -86 -8 -200 -14
-252 -10 -96 -14 -141 -26 -371 -6 -115 -5 -126 11 -133 10 -3 20 -4 23 -2 3
3 6 38 8 78 2 40 6 90 9 111 4 20 9 79 11 130 2 50 6 110 8 132 3 22 7 130 10
239 3 117 10 204 16 210 7 7 16 5 28 -7 15 -16 17 -42 17 -235 0 -119 -3 -305
-6 -412 l-7 -195 24 -20 c13 -12 24 -26 24 -33 0 -15 21 -15 40 1 21 17 74 95
91 135 17 40 23 40 39 1 11 -26 34 -58 90 -126 6 -7 17 -13 25 -13 26 0 16 35
-23 78 -23 25 -48 69 -61 107 -20 56 -23 82 -22 215 1 144 0 150 -19 150 -19
0 -20 -7 -20 -110 0 -60 -5 -133 -10 -162 -13 -64 -80 -208 -97 -208 -7 0 -13
-5 -13 -11 0 -5 -5 -7 -11 -3 -8 5 -10 54 -6 173 4 91 9 279 13 416 5 238 5
252 -14 281 -22 35 -52 44 -139 44 -39 0 -54 -4 -51 -12z"/>
<path d="M634 936 c-3 -8 -3 -47 0 -87 2 -41 5 -91 5 -111 1 -31 5 -38 21 -38
11 0 20 6 21 13 3 45 -9 216 -16 228 -9 13 -25 11 -31 -5z"/>
<path d="M495 929 c-11 -17 -16 -223 -6 -238 5 -7 13 -11 19 -7 16 10 34 168
25 224 -5 31 -25 43 -38 21z"/>
<path d="M821 894 c-22 -26 -52 -70 -67 -99 -21 -45 -24 -61 -18 -101 4 -26
15 -57 25 -68 29 -30 28 -65 -2 -171 -11 -38 -25 -88 -31 -110 -5 -22 -14 -48
-20 -58 -15 -30 -23 -117 -9 -117 17 0 56 89 76 172 10 40 23 84 30 98 6 14
13 43 14 65 4 55 15 62 40 27 33 -47 29 -197 -9 -297 -53 -143 -65 -212 -32
-191 13 8 80 148 85 177 2 13 7 31 10 39 11 30 18 162 11 229 -7 73 -11 80
-79 136 -60 48 -65 55 -65 81 0 30 32 96 71 145 29 37 37 73 20 83 -5 4 -28
-15 -50 -40z"/>
<path d="M475 503 c-3 -15 -9 -79 -11 -141 -4 -94 -2 -113 11 -118 35 -14 43
12 43 139 -1 112 -7 147 -28 147 -4 0 -11 -12 -15 -27z"/>
<path d="M638 503 c-4 -17 -4 -71 1 -178 2 -58 25 -100 41 -75 6 8 8 26 5 40
-3 14 -6 68 -7 120 -2 85 -8 109 -29 110 -4 0 -9 -8 -11 -17z"/>
</g>
</svg>
