<?xml version="1.0" encoding="UTF-8" standalone="no"?>
<!-- Created with Inkscape (http://www.inkscape.org/) -->

<svg
   xmlns:dc="http://purl.org/dc/elements/1.1/"
   xmlns:cc="http://creativecommons.org/ns#"
   xmlns:rdf="http://www.w3.org/1999/02/22-rdf-syntax-ns#"
   xmlns:svg="http://www.w3.org/2000/svg"
   xmlns="http://www.w3.org/2000/svg"
   xmlns:sodipodi="http://sodipodi.sourceforge.net/DTD/sodipodi-0.dtd"
   xmlns:inkscape="http://www.inkscape.org/namespaces/inkscape"
   version="1.0"
   width="300"
   height="300"
   id="svg2"
   inkscape:version="0.48.4 r9939"
   sodipodi:docname="dessin.svg">
  <metadata
     id="metadata2990">
    <rdf:RDF>
      <cc:Work
         rdf:about="">
        <dc:format>image/svg+xml</dc:format>
        <dc:type
           rdf:resource="http://purl.org/dc/dcmitype/StillImage" />
      </cc:Work>
    </rdf:RDF>
  </metadata>
  <sodipodi:namedview
     pagecolor="#ffffff"
     bordercolor="#666666"
     borderopacity="1"
     objecttolerance="10"
     gridtolerance="10"
     guidetolerance="10"
     inkscape:pageopacity="0"
     inkscape:pageshadow="2"
     inkscape:window-width="1215"
     inkscape:window-height="1000"
     id="namedview2988"
     showgrid="false"
     inkscape:zoom="2.2250294"
     inkscape:cx="129.01005"
     inkscape:cy="139.3918"
     inkscape:window-x="65"
     inkscape:window-y="24"
     inkscape:window-maximized="1"
     inkscape:current-layer="svg2"
     showguides="true"
     inkscape:guide-bbox="true" />
  <defs
     id="defs5" />
  <path
     style="fill:#000000"
     d="m 184.6914,289.6532 c -7.79374,-35.98173 -2.51711,-73.18963 -10.66749,-109.11105 -22.6395,-9.2576 -24.41794,17.88717 -22.30021,30.74584 -0.38363,23.67684 2.47442,47.65179 -1.42252,71.12692 -15.96757,8.11024 -11.05511,-24.18181 -13.51732,-33.96002 -0.75142,-21.22247 -2.94987,-43.00369 2.34717,-63.86722 3.00248,-17.35128 25.49761,-16.48055 34.79024,-28.27534 7.48509,-17.53445 -23.11072,-15.65157 -31.63329,-26.20704 -9.1582,-10.98449 -9.84004,-29.13925 0.27314,-39.903636 18.23232,-13.312391 46.80394,-17.359883 67.92517,-7.433768 17.47096,10.009224 27.53784,35.910834 7.18778,48.083754 -13.69957,4.31625 -40.89915,24.09359 -15.20796,32.16396 19.29655,1.62102 28.02398,20.26768 28.42137,35.17578 4.19191,28.3726 8.62462,57.29644 5.38476,85.83545 -14.46827,7.37514 -11.20426,-21.53421 -12.80316,-30.41132 -1.6606,-23.37719 -0.2509,-47.9333 -10.77191,-69.90345 -6.49272,-13.22421 -27.34473,-11.40137 -21.78923,5.14717 -1.24449,32.40288 5.99048,64.68177 3.91716,97.03841 0.0116,5.71403 -5.8243,8.46656 -10.13372,3.75556 z m 17.79632,-164.21965 c 17.76639,-5.95954 10.7207,-34.607004 -8.41116,-33.478344 -19.63632,-2.966492 -50.69571,0.322897 -42.11992,24.359294 7.9944,15.09451 35.51452,12.36076 50.53108,9.11905 z M 101.80487,277.03466 C 92.22898,257.33039 95.042682,235.10166 92.866155,214.198 90.750054,157.03002 91.427989,99.788752 90.321749,42.623887 75.039159,30.020989 78.41617,58.969959 78.35369,67.03851 c -1.814204,53.60906 -2.708966,107.22644 -4.009848,160.83903 -3.687886,15.76535 4.145721,37.55785 -7.738867,49.61726 -12.806619,-11.58497 -5.097446,-30.83156 -7.478948,-45.83465 0.84597,-63.41212 3.535013,-126.79667 4.713636,-190.206701 -19.873562,-5.509462 -9.68055,-17.677825 6.665379,-17.002523 15.730964,-3.669953 39.612238,-0.127999 35.276008,18.564319 1.49413,61.355335 -2.72676,122.900785 1.91887,184.210765 -0.7292,16.34948 10.49455,37.86922 0.65755,51.49215 l -3.56333,-0.0785 -2.98927,-1.60512 0,0 z M 122.03742,74.269262 c -9.87128,-15.017138 16.72403,-23.8129 28.29249,-31.080249 21.81652,-2.373262 11.73659,-23.990409 25.0677,-31.93868 10.1714,10.172544 7.51821,30.391234 29.93134,30.114351 10.85102,3.497911 43.91648,7.707138 28.23887,21.542327 -19.29715,-4.220836 -38.60476,-14.505275 -59.87338,-14.161824 -20.95777,1.920968 -34.35753,18.101693 -51.65702,25.524075 l 0,0 z"
     id="path3001"
     inkscape:connector-curvature="0" />
</svg>
