<?xml version="1.0" standalone="no"?>
<!DOCTYPE svg PUBLIC "-//W3C//DTD SVG 20010904//EN"
 "http://www.w3.org/TR/2001/REC-SVG-20010904/DTD/svg10.dtd">
<svg version="1.0" xmlns="http://www.w3.org/2000/svg"
 width="122.000000pt" height="122.000000pt" viewBox="0 0 122.000000 122.000000"
 preserveAspectRatio="xMidYMid meet">
<metadata>
Created by potrace 1.13, written by Peter Selinger 2001-2015
</metadata>
<g transform="translate(0.000000,122.000000) scale(0.100000,-0.100000)"
fill="#000000" stroke="none">
<path d="M680 1089 c-95 -18 -110 -34 -125 -124 -12 -73 -16 -279 -7 -328 5
-26 6 -49 2 -52 -3 -2 -5 -26 -3 -52 2 -26 6 -149 8 -273 2 -124 4 -228 4
-232 1 -5 11 -8 23 -8 l21 0 -7 208 c-13 344 -15 546 -5 570 9 23 11 24 102
18 50 -3 108 -2 127 2 33 7 35 10 38 55 l3 47 39 0 c41 0 53 8 41 28 -5 8 -56
12 -162 13 -86 0 -161 4 -168 8 -10 7 -10 12 0 29 21 34 55 42 179 42 113 0
120 1 120 20 0 10 -9 24 -19 30 -23 12 -147 12 -211 -1z m120 -199 c0 -34 -2
-34 -124 -32 -44 1 -73 7 -78 14 -20 33 12 46 125 47 l77 1 0 -30z"/>
<path d="M350 1079 c-51 -8 -75 -23 -58 -36 7 -6 27 -13 43 -15 23 -2 29 -8
28 -23 -2 -11 -7 -128 -13 -260 -5 -132 -12 -286 -16 -342 -8 -136 -8 -298 0
-312 14 -22 34 -11 40 22 3 17 5 109 6 202 0 94 4 215 10 270 5 55 12 147 16
205 3 58 8 125 10 150 1 25 3 55 3 68 1 15 7 22 20 22 19 0 19 -14 20 -445 0
-257 -4 -447 -9 -450 -5 -3 -7 -12 -3 -20 6 -18 53 -20 53 -2 0 6 0 221 0 477
0 405 -2 466 -15 480 -16 15 -72 20 -135 9z"/>
<path d="M832 754 c-36 -29 -35 -44 3 -36 31 6 34 -17 5 -43 -11 -10 -20 -23
-20 -30 0 -7 -9 -20 -19 -29 -18 -17 -19 -17 -25 1 -3 10 -8 34 -11 53 -3 19
-17 46 -30 59 -22 23 -26 23 -70 11 -47 -13 -66 -33 -48 -51 5 -5 21 -4 41 3
17 7 34 9 38 5 9 -9 -11 -46 -42 -80 -13 -14 -24 -33 -24 -42 0 -25 25 -17 43
15 21 34 57 59 57 38 -1 -20 -32 -80 -63 -120 -16 -21 -27 -45 -24 -55 4 -17
5 -17 12 2 8 18 33 50 64 83 13 13 16 12 22 -4 4 -13 -2 -29 -18 -49 -61 -77
-83 -112 -83 -129 0 -29 19 -17 52 34 18 27 36 50 41 50 18 0 -3 -68 -32 -103
-31 -38 -41 -88 -30 -150 7 -32 16 -60 20 -63 5 -3 9 -15 9 -27 1 -29 25 -61
40 -52 11 7 5 58 -9 80 -37 60 -39 140 -5 186 33 44 54 94 54 129 0 21 5 26
22 26 16 -1 31 12 53 46 16 26 33 48 38 48 14 0 6 -27 -21 -71 -15 -24 -36
-62 -47 -84 -10 -22 -25 -45 -33 -51 -18 -13 -9 -48 11 -42 6 2 19 18 28 35
26 51 49 83 60 83 17 0 3 -51 -31 -117 -19 -38 -32 -78 -33 -105 -2 -72 72
-207 107 -195 12 5 9 59 -4 67 -4 3 -18 23 -30 45 -29 52 -31 127 -4 175 35
61 43 111 44 263 0 145 -4 169 -37 204 -17 19 -34 16 -71 -13z m40 -148 c-18
-24 -32 -48 -32 -52 0 -12 -44 -74 -52 -74 -14 0 -9 80 5 80 6 1 29 26 51 56
27 40 41 53 49 45 8 -8 2 -23 -21 -55z"/>
</g>
</svg>
