<?xml version="1.0" encoding="UTF-8" standalone="no"?>
<svg
   xmlns:dc="http://purl.org/dc/elements/1.1/"
   xmlns:cc="http://creativecommons.org/ns#"
   xmlns:rdf="http://www.w3.org/1999/02/22-rdf-syntax-ns#"
   xmlns:svg="http://www.w3.org/2000/svg"
   xmlns="http://www.w3.org/2000/svg"
   viewBox="0 0 300 300"
   height="300"
   width="300"
   id="svg10"
   version="1.1">
  <metadata
     id="metadata16">
    <rdf:RDF>
      <cc:Work
         rdf:about="">
        <dc:format>image/svg+xml</dc:format>
        <dc:type
           rdf:resource="http://purl.org/dc/dcmitype/StillImage" />
        <dc:title></dc:title>
      </cc:Work>
    </rdf:RDF>
  </metadata>
  <defs
     id="defs14" />
  <path
     id="path22"
     d="m 211.98791,284.08595 c -6.49942,-2.39706 -12.25214,-5.99196 -16.25454,-10.15753 -8.75893,-9.11597 -10.87285,-12.87534 -10.89438,-19.37439 -0.0142,-4.27548 0.27444,-5.22749 3.40035,-11.21663 3.27666,-6.27799 3.82174,-6.90194 13.37991,-15.31611 10.68133,-9.40289 15.23279,-14.49587 19.10825,-21.38173 3.45617,-6.14087 4.21427,-9.19937 5.75746,-23.22827 0.75073,-6.82479 1.53753,-13.1611 1.74845,-14.08068 0.68241,-2.97522 0.42579,-29.16657 -0.34556,-35.26884 -0.96006,-7.59513 -2.93451,-15.10228 -5.43905,-20.67999 -1.64994,-3.67451 -2.69148,-4.92941 -6.23559,-7.51295 -5.47732,-3.9928 -11.52228,-7.110412 -18.01744,-9.292272 -5.78737,-1.9441 -14.74241,-3.80341 -18.31843,-3.80341 h -2.35173 v 6.78425 c 0,3.731342 -0.20274,10.554872 -0.45054,15.163422 l -0.45054,8.37916 h 10.38233 10.38234 l 0.80055,-4.99704 c 1.51997,-9.48767 2.626,-11.16008 7.09253,-10.72461 1.93195,0.18837 2.34402,0.62086 3.487,3.65984 1.08184,2.87644 1.22359,4.52884 0.85738,9.99407 -2.02944,30.28629 -2.34999,58.09082 -0.76791,66.6084 1.94209,10.45582 2.59224,17.60829 2.11804,23.30103 l -0.47199,5.6661 -3.38652,1.08297 -3.38654,1.08297 -1.32682,-4.29576 c -0.72975,-2.36266 -2.01722,-7.7609 -2.86104,-11.99608 l -1.5342,-7.70031 h -10.16262 -10.16262 l -0.48396,3.87356 c -0.26619,2.13046 -0.26333,8.15603 0.007,13.39014 0.45895,8.90772 0.39469,9.71413 -1.0044,12.60427 -1.52251,3.14509 -5.33052,5.78717 -7.26891,5.04333 -0.50264,-0.19287 -1.48896,-2.00115 -2.1918,-4.01839 -1.08897,-3.12542 -1.25145,-5.45103 -1.09897,-15.7295 0.0984,-6.63399 -0.0868,-12.46872 -0.4117,-12.96606 -0.59445,-0.91013 -19.12229,-2.71555 -19.89882,-1.93902 -0.20015,0.20015 -0.81949,4.17846 -1.3763,8.84068 -1.48592,12.44277 -3.33837,15.71385 -8.89883,15.71385 -1.31687,0 -1.95419,-0.57626 -2.75378,-2.48993 -1.80965,-4.33111 -1.8771,-8.54711 -0.29725,-18.58063 1.44019,-9.14651 1.5008,-11.2971 1.28076,-45.44168 -0.18627,-28.90554 -0.41654,-36.20486 -1.19001,-37.72223 l -0.95905,-1.88143 -2.61156,2.35937 c -1.43635,1.29766 -3.54515,2.84217 -4.68623,3.43224 -2.46783,1.27616 -6.36161,1.40343 -7.51926,0.24577 -0.88207,-0.88207 -1.03884,-4.98118 -0.26171,-6.84336 0.25766,-0.61746 4.81073,-5.21805 10.11792,-10.22356 8.82138,-8.319932 10.33165,-9.444962 17.59904,-13.109826 l 7.94958,-4.008895 -0.99565,-10.408097 -0.99565,-10.408098 -13.50177,-0.001 c -14.7818,-0.0011 -17.38345,-0.56232 -19.1683,-4.134405 -1.01544,-2.032216 -1.16697,-6.203214 -0.22537,-6.203214 1.02574,0 24.08111,-2.016383 28.12008,-2.459333 l 3.61854,-0.396842 v -2.736266 c 0,-1.504945 -0.81091,-6.671766 -1.80202,-11.481824 -1.94241,-9.426902 -1.91397,-14.924453 0.10216,-19.749744 1.15903,-2.773939 1.46769,-2.866504 4.84841,-1.453951 3.05436,1.276194 4.14773,3.813069 4.7636,11.052742 0.45709,5.373075 6.54277,53.660257 6.78497,53.835772 0.0669,0.04852 4.07851,0.2515 8.91465,0.451126 8.57218,0.353845 8.80107,0.325842 9.11532,-1.115243 0.17729,-0.813011 1.88597,-13.729551 3.79708,-28.703421 1.91111,-14.973869 3.95975,-28.698314 4.55256,-30.498765 1.26875,-3.853468 3.0912,-5.342029 6.54026,-5.342029 2.44422,0 2.54088,0.100492 3.72852,3.87632 1.35219,4.298953 1.15947,9.406887 -0.68593,18.179553 -0.56739,2.697314 -1.2294,7.032118 -1.47111,9.632897 l -0.43949,4.728691 3.02304,0.435418 c 1.66268,0.239482 8.24208,0.342352 14.62091,0.228602 l 11.59786,-0.206818 1.39458,1.712458 c 1.06023,1.301913 1.30842,2.354673 1.03526,4.391244 -0.19762,1.473333 -0.67194,2.991425 -1.05406,3.373537 -0.38568,0.385693 -7.51539,0.964154 -16.02724,1.300355 -8.43287,0.333082 -15.40519,0.68075 -15.49406,0.772595 -0.26007,0.268808 -3.04427,16.190584 -3.04427,17.40902 0,1.376535 6.60375,4.445623 16.39223,7.618285 8.29534,2.6887 10.96915,4.151024 15.54373,8.501044 8.61923,8.196122 14.9531,29.331862 14.91823,49.781242 -0.0195,11.40752 -1.63246,31.7555 -3.48357,43.94522 -1.39533,9.18839 -1.80082,10.54013 -5.52606,18.42191 -3.93401,8.3235 -4.17967,8.65676 -11.45527,15.53995 -18.73522,17.72477 -21.87331,22.02223 -21.75673,29.79478 0.11858,7.90554 2.21315,10.34903 13.93504,16.25645 7.69861,3.87982 10.38072,6.60722 10.38072,10.55597 0,2.99188 -5.245,4.13823 -10.33868,2.25963 z M 165.11919,174.79342 v -8.27094 l -3.96317,-0.005 c -2.17974,-0.003 -6.02193,-0.19936 -8.53819,-0.43706 l -4.57501,-0.43216 -0.3936,3.36636 c -0.21648,1.8515 -0.58793,5.7701 -0.82544,8.70801 l -0.43186,5.34166 h 9.36364 9.36363 v -8.27096 z m 31.01607,5.96448 c 0,-1.26856 -0.20152,-5.14556 -0.44784,-8.61558 l -0.44783,-6.30909 h -8.85699 -8.85699 v 8.61558 8.61557 h 9.30482 9.30483 z m -33.63335,-26.64185 h 2.68494 l -0.47187,-30.15451 c -0.25952,-16.58499 -0.52179,-30.220642 -0.58282,-30.301452 -0.32402,-0.42907 -7.40633,1.90013 -10.38554,3.41555 -2.61912,1.33227 -12.99128,8.281622 -14.71608,9.859792 -0.13305,0.12174 0.58765,1.30896 1.60155,2.63826 4.14348,5.43239 4.68667,8.22666 5.18423,26.66887 0.25127,9.3134 0.71015,17.34327 1.01974,17.8442 0.43319,0.70091 1.99339,0.80921 6.7719,0.47002 3.41497,-0.2424 7.41725,-0.44073 8.89395,-0.44073 z m 30.70405,0.004 2.24005,-0.004 v -9.64944 -9.64946 h -8.9602 -8.9602 v 10.09803 10.09803 l 6.72015,-0.44502 c 3.69608,-0.24476 7.72817,-0.44662 8.9602,-0.44858 z m -85.63882,120.84034 c -1.13725,-0.60346 -2.14456,-1.15896 -2.23846,-1.23444 -0.38184,-0.30688 -2.99884,-11.30253 -3.61113,-15.17256 -0.36129,-2.28351 -1.14199,-9.26949 -1.7349,-15.5244 -0.592915,-6.2549 -1.979962,-18.66133 -3.08234,-27.56984 -3.447064,-27.85621 -3.684878,-36.2225 -2.80161,-98.56217 0.437738,-30.895462 0.953549,-56.6388 1.146253,-57.207428 0.192705,-0.568628 -0.193643,-4.807737 -0.858558,-9.420243 l -1.208926,-8.386373 -4.735477,-0.475565 c -2.604512,-0.261562 -4.916471,-0.294574 -5.137689,-0.07336 -1.307779,1.307783 -3.65162,126.007249 -3.65162,194.277489 0,14.64927 -0.262208,26.79708 -0.582677,26.99514 -0.320478,0.19806 -1.808037,0.55606 -3.305702,0.79554 -3.033227,0.48504 -3.441589,-0.004 -5.503447,-6.58827 -1.904594,-6.08224 -1.124914,-156.11095 1.054878,-202.98295 0.633318,-13.618181 0.70695,-13.440297 -5.563823,-13.440297 -3.459589,0 -4.132835,-0.221276 -5.082352,-1.670427 -0.644211,-0.983194 -1.005205,-2.712415 -0.877451,-4.20314 0.204566,-2.386936 0.451915,-2.627998 4.297311,-4.188164 3.383746,-1.372865 5.266222,-1.653361 11.02794,-1.643206 17.076243,0.0301 25.02974,2.195891 28.17214,7.67148 3.6802,6.412673 4.27789,10.87944 4.27493,31.947921 -9.5e-4,12.282902 -0.31493,21.10088 -0.86155,24.255635 -1.15226,6.650156 -1.08397,45.225818 0.15781,89.125338 1.04789,37.04502 2.6975,56.65928 6.31027,75.03028 1.98382,10.08765 1.93527,15.78018 -0.15421,18.08906 -1.42454,1.57408 -2.70653,1.61054 -5.44961,0.15495 z"
     style="fill:#000000;stroke-width:0.68924606" />
</svg>
