<?xml version="1.0" standalone="no"?>
<!DOCTYPE svg PUBLIC "-//W3C//DTD SVG 20010904//EN"
 "http://www.w3.org/TR/2001/REC-SVG-20010904/DTD/svg10.dtd">
<svg version="1.0" xmlns="http://www.w3.org/2000/svg"
 width="122.000000pt" height="122.000000pt" viewBox="0 0 122.000000 122.000000"
 preserveAspectRatio="xMidYMid meet">
<metadata>
Created by potrace 1.13, written by Peter Selinger 2001-2015
</metadata>
<g transform="translate(0.000000,122.000000) scale(0.100000,-0.100000)"
fill="#000000" stroke="none">
<path d="M787 1091 c-32 -30 -46 -53 -56 -90 -7 -28 -17 -51 -22 -51 -5 0 -9
3 -9 8 0 11 -46 62 -56 62 -19 0 -85 -73 -75 -83 11 -11 51 0 51 14 0 5 9 9
20 9 11 0 20 -6 20 -13 0 -7 5 -18 12 -25 9 -9 16 -8 31 6 19 17 19 16 13 -58
-3 -41 -6 -92 -7 -112 0 -34 -4 -38 -37 -48 -111 -34 -134 -69 -91 -139 15
-25 19 -43 14 -65 -6 -29 -14 -126 -31 -377 -7 -115 0 -136 37 -103 16 14 19
31 19 97 l0 80 123 -6 c67 -4 139 -9 160 -13 33 -6 37 -4 37 15 0 26 -34 41
-96 41 -28 0 -44 5 -45 13 -2 24 3 102 6 105 2 2 27 -1 56 -7 55 -12 74 -6 59
19 -7 11 -29 15 -87 16 -43 0 -104 4 -135 8 -54 8 -58 7 -58 -12 0 -23 18 -32
66 -32 l34 0 0 -54 0 -54 -61 -4 -60 -3 2 85 c3 120 16 183 37 175 37 -15 209
-35 245 -29 32 5 38 10 35 27 -3 21 -10 22 -118 28 -128 7 -120 6 -120 17 0
16 81 46 118 44 55 -2 123 19 120 38 -4 16 -85 22 -123 9 -11 -4 -40 -12 -65
-19 -25 -7 -53 -16 -62 -21 -35 -18 -65 -11 -72 17 -8 30 5 49 37 57 12 3 40
11 62 17 22 6 82 10 133 10 73 0 92 2 92 13 0 28 -26 36 -103 33 l-77 -3 0 39
c0 34 2 39 19 33 13 -4 24 1 33 13 7 11 23 22 34 26 18 5 26 0 44 -29 28 -45
66 -50 55 -7 -3 15 -22 41 -40 59 -38 36 -61 35 -102 -3 -34 -32 -43 -30 -43
6 0 24 6 33 28 42 15 7 35 22 45 33 19 20 19 20 48 -13 34 -38 59 -42 59 -9 0
23 -59 97 -77 97 -6 0 -24 -13 -41 -30 -35 -33 -47 -37 -55 -16 -10 24 14 60
62 92 54 36 66 64 27 64 -17 0 -42 -15 -69 -39z"/>
<path d="M348 1084 c-15 -14 -8 -25 23 -36 l31 -11 -6 -64 c-4 -35 -13 -83
-20 -106 -8 -23 -23 -123 -35 -222 -12 -99 -25 -214 -31 -255 -20 -153 -23
-264 -7 -284 14 -19 14 -19 24 0 6 10 16 82 22 159 7 77 16 163 21 190 5 28
10 93 12 145 1 52 5 100 9 105 6 9 15 65 23 155 2 20 8 45 13 55 6 11 13 40
16 64 6 51 17 64 41 55 21 -8 20 -30 -14 -264 -11 -80 -25 -197 -30 -260 -5
-63 -12 -133 -15 -155 -9 -74 -14 -321 -6 -333 6 -9 11 -8 23 5 11 13 17 53
23 148 4 72 8 150 10 175 2 25 6 86 9 135 10 156 42 404 61 479 13 49 12 52
-11 84 -17 22 -33 32 -52 32 -15 0 -49 3 -77 6 -27 3 -53 3 -57 -2z"/>
<path d="M607 883 c-24 -6 -67 -50 -67 -68 0 -19 29 -19 36 0 12 31 45 28 74
-7 23 -27 30 -30 35 -17 9 23 -26 99 -45 98 -8 -1 -23 -3 -33 -6z"/>
</g>
</svg>
