<?xml version="1.0" encoding="UTF-8" standalone="no"?>
<!-- Created with Inkscape (http://www.inkscape.org/) -->

<svg
   xmlns:dc="http://purl.org/dc/elements/1.1/"
   xmlns:cc="http://creativecommons.org/ns#"
   xmlns:rdf="http://www.w3.org/1999/02/22-rdf-syntax-ns#"
   xmlns:svg="http://www.w3.org/2000/svg"
   xmlns="http://www.w3.org/2000/svg"
   xmlns:sodipodi="http://sodipodi.sourceforge.net/DTD/sodipodi-0.dtd"
   xmlns:inkscape="http://www.inkscape.org/namespaces/inkscape"
   width="300"
   height="300"
   id="svg2"
   version="1.1"
   inkscape:version="0.92.4 (5da689c313, 2019-01-14)"
   sodipodi:docname="image-bigseal.svg">
  <defs
     id="defs4" />
  <sodipodi:namedview
     id="base"
     pagecolor="#ffffff"
     bordercolor="#666666"
     borderopacity="1.0"
     inkscape:pageopacity="0.0"
     inkscape:pageshadow="2"
     inkscape:zoom="1.4142136"
     inkscape:cx="198.96142"
     inkscape:cy="281.8718"
     inkscape:document-units="px"
     inkscape:current-layer="layer1"
     showgrid="false"
     inkscape:window-width="1872"
     inkscape:window-height="1016"
     inkscape:window-x="48"
     inkscape:window-y="27"
     inkscape:window-maximized="1" />
  <metadata
     id="metadata7">
    <rdf:RDF>
      <cc:Work
         rdf:about="">
        <dc:format>image/svg+xml</dc:format>
        <dc:type
           rdf:resource="http://purl.org/dc/dcmitype/StillImage" />
        <dc:title />
      </cc:Work>
    </rdf:RDF>
  </metadata>
  <g
     inkscape:label="Calque 1"
     inkscape:groupmode="layer"
     id="layer1"
     transform="translate(0,-752.36218)">
    <path
       style="fill:#000000;stroke-width:5.95200682"
       d="m 212.61696,1023.8953 c -18.91015,-22.8538 -20.13044,-53.78299 -3.08257,-78.12957 17.18569,-24.54346 13.14765,-47.09599 -10.98985,-61.37875 -18.3881,-10.88012 -20.81587,-10.97796 -44.46431,-1.79404 -4.41571,1.06435 -32.23163,13.26864 -32.85304,8.15922 -1.12331,-9.23634 31.21563,-20.72204 50.24227,-27.62476 0,0 1.55602,-7.95555 2.4042,-10.22418 5.69896,-15.24325 6.15279,-43.97635 6.15279,-43.97635 0,0 -4.41452,-0.64927 -6.09143,-0.64927 -8.60196,0 -18.34377,-21.88906 -14.39686,-32.34861 4.83189,-12.80484 23.22742,-17.59661 37.57536,-9.78791 14.14548,7.69862 15.71366,25.55122 3.17406,36.13436 -2.15588,1.81951 -8.5792,7.05 -8.5792,7.05 0,0 -0.25119,17.55491 -0.2369,28.19723 0.0156,10.82218 -3.44398,26.84526 -3.44398,26.84526 0,0 12.43165,6.10958 21.20414,11.18627 30.60083,17.70758 34.39817,44.68672 10.70919,76.08405 -16.12777,21.37611 -13.56264,45.09127 7.51837,69.50745 12.73779,14.7534 15.59473,21.2165 9.37811,21.2165 -4.91713,0 -15.81636,-8.31 -24.22055,-18.4669 z M 195.86279,785.77266 c 3.48735,-10.65108 -16.35542,-17.01614 -22.34143,-7.16652 -2.70442,4.44988 -3.51675,10.39497 -1.80515,13.21124 4.36838,7.1879 21.19303,2.97606 24.14658,-6.04472 z m -89.17403,228.07924 c -2.01215,-12.3795 -3.68769,-66.39896 -3.72339,-120.04332 -0.0531,-78.52183 1.30977,-95.53531 -5.196065,-95.53531 -3.255465,0 -17.102156,0.62372 -17.102156,0.62372 0,0 -1.257342,57.98847 -1.310841,130.92459 -0.0413,54.97563 -2.302125,88.53192 -5.96725,88.53192 -3.726812,0 -5.902271,-41.84828 -5.902271,-113.54115 0,-58.35529 0.01059,-108.51042 0.01059,-108.51042 0,0 -8.552895,-4.5816 -7.388412,-8.05788 2.270671,-6.77854 5.321599,-3.24062 20.843138,-3.50124 17.731892,-0.29771 29.102067,2.31474 30.591397,7.02884 1.30369,4.12649 3.39161,60.84707 4.63987,126.04559 2.14454,112.01066 -1.27542,146.60236 -9.49461,96.03466 z m 19.82069,-37.42831 c 0,-8.06451 40.51321,-34.43863 60.49823,-39.38501 19.70206,-4.87556 22.33529,6.51175 2.95113,12.7624 -7.30405,2.35525 -23.18741,10.64004 -35.29632,18.41105 -24.51271,15.73047 -28.15304,16.79226 -28.15304,8.21156 z m -2.99871,-30.17469 c -3.36624,-5.5388 5.6732,-13.23717 30.74137,-26.18084 21.19067,-10.94195 43.08454,-12.84824 43.08454,-3.75136 0,3.30119 -3.53393,6.00217 -7.85309,6.00217 -4.31922,0 -20.30598,6.41091 -35.52621,14.24674 -15.22017,7.83583 -28.92116,12.1934 -30.44661,9.68329 z m -2.90356,-29.81035 c 0,-7.81542 43.54026,-30.13267 58.78752,-30.13267 6.62181,0 12.03968,2.70097 12.03968,6.00216 0,3.30119 -4.08986,6.00217 -9.08854,6.00217 -4.9987,0 -19.50098,5.40195 -32.22733,12.00433 -26.32599,13.65793 -29.51133,14.31876 -29.51133,6.12401 z m 11.39391,-63.64757 c -10.48501,-12.84763 0.0614,-29.50796 18.67985,-29.50796 16.0606,0 22.12045,16.68134 11.00679,30.29905 -9.25647,11.34229 -20.01843,11.05539 -29.68664,-0.79109 z m 22.5433,-18.00469 c -5.62457,-5.71977 -16.90109,3.54488 -12.70935,10.44196 2.49141,4.09948 5.79284,3.99625 10.03172,-0.31211 3.47503,-3.53347 4.67997,-8.09092 2.67763,-10.12745 z m 48.92961,18.79578 c -10.73457,-13.15315 -1.94952,-33.30014 14.52058,-33.30014 8.88551,0 15.3548,4.46844 17.79669,12.29238 4.12987,13.23255 -5.74385,29.7229 -17.79669,29.7229 -4.0744,0 -10.60868,-3.92181 -14.52058,-8.71514 z m 21.89758,-18.79578 c -5.62456,-5.71977 -16.90108,3.54488 -12.70935,10.44196 2.49141,4.09948 5.79284,3.99625 10.03173,-0.31211 3.47502,-3.53347 4.67997,-8.09092 2.67762,-10.12745 z"
       id="path71"
       inkscape:connector-curvature="0"
       sodipodi:nodetypes="csccscccssccccccccsccsccsscsccsscaccssscccscsssccscsscsccccccccccccsccccsc" />
  </g>
</svg>
