<?xml version="1.0" encoding="UTF-8" standalone="no"?>
<!-- Created with Inkscape (http://www.inkscape.org/) -->

<svg
   xmlns:dc="http://purl.org/dc/elements/1.1/"
   xmlns:cc="http://creativecommons.org/ns#"
   xmlns:rdf="http://www.w3.org/1999/02/22-rdf-syntax-ns#"
   xmlns:svg="http://www.w3.org/2000/svg"
   xmlns="http://www.w3.org/2000/svg"
   xmlns:sodipodi="http://sodipodi.sourceforge.net/DTD/sodipodi-0.dtd"
   xmlns:inkscape="http://www.inkscape.org/namespaces/inkscape"
   width="300"
   height="300"
   id="svg2"
   version="1.1"
   inkscape:version="0.48.4 r9939"
   sodipodi:docname="dessin.svg">
  <defs
     id="defs4" />
  <sodipodi:namedview
     id="base"
     pagecolor="#ffffff"
     bordercolor="#666666"
     borderopacity="1.0"
     inkscape:pageopacity="0.0"
     inkscape:pageshadow="2"
     inkscape:zoom="1.979899"
     inkscape:cx="73.020464"
     inkscape:cy="149.14493"
     inkscape:document-units="px"
     inkscape:current-layer="layer1"
     showgrid="false"
     inkscape:window-width="1215"
     inkscape:window-height="1000"
     inkscape:window-x="65"
     inkscape:window-y="24"
     inkscape:window-maximized="1" />
  <metadata
     id="metadata7">
    <rdf:RDF>
      <cc:Work
         rdf:about="">
        <dc:format>image/svg+xml</dc:format>
        <dc:type
           rdf:resource="http://purl.org/dc/dcmitype/StillImage" />
        <dc:title />
      </cc:Work>
    </rdf:RDF>
  </metadata>
  <g
     inkscape:label="Calque 1"
     inkscape:groupmode="layer"
     id="layer1"
     transform="translate(0,-752.36218)">
    <path
       style="fill:#000000"
       d="m 190.86095,1035.2946 c -2.93511,-0.4933 -12.13988,-1.7025 -20.45505,-2.6869 -11.77121,-1.3936 -16.94039,-3.6848 -23.34746,-10.3484 -4.52595,-4.7072 -8.34138,-9.5273 -8.47877,-10.7113 -1.69059,-14.5699 -1.26549,-41.78838 0.67302,-43.09224 1.51554,-1.01937 1.38139,-3.15668 -0.33972,-5.41364 -3.48921,-4.57553 -0.82784,-13.17719 4.07704,-13.17719 2.5397,0 3.822,5.30861 4.38403,18.14952 l 0.7944,18.14953 33.35352,0 c 32.55736,0 33.37389,-0.15595 34.20618,-6.53384 0.78981,-6.05226 -0.16304,-6.53383 -12.92951,-6.53383 -17.83196,0 -29.28152,-8.10894 -29.28152,-20.73813 0,-11.68806 8.9426,-10.54763 10.1956,1.30024 0.83783,7.92226 1.18858,8.08079 16.00968,7.23496 13.39671,-0.76448 15.25194,-1.62207 16.00575,-7.39855 0.56618,-4.3386 2.68242,-6.53382 6.2988,-6.53382 5.21091,0 5.40023,1.3485 4.38261,31.21717 -1.22876,36.06592 -4.74342,46.39112 -18.23572,53.57172 -5.11942,2.7246 -9.9084,4.8386 -10.64218,4.6978 -0.73377,-0.1409 -3.73559,-0.6597 -6.6707,-1.1531 z m 18.74364,-16.889 c 6.14861,-10.2126 6.49415,-23.59326 0.6014,-23.28788 -2.56822,0.133 -17.14866,0.45981 -32.40097,0.72599 -23.27026,0.40614 -28.00877,1.27034 -29.45504,5.37209 -4.01499,11.3869 17.50207,23.2875 43.11654,23.8467 11.93821,0.2604 14.5506,-0.6982 18.13807,-6.6569 z m -141.259472,10.2618 c -0.783142,-1.3791 -0.93857,-13.0318 -0.345384,-25.8949 0.593213,-12.86304 1.906782,-67.27223 2.919101,-120.9093 l 1.840528,-97.52189 -5.655051,0 c -3.110283,0 -5.65505,-1.78699 -5.65505,-3.97109 0,-5.41472 24.481943,-10.65536 31.118521,-6.66129 10.482697,6.30883 11.439807,10.93879 11.502647,55.64318 0.0656,46.78845 2.1696,178.88859 2.91808,183.22409 1.24044,7.1853 -0.59179,12.7907 -4.18087,12.7907 -3.001073,0 -4.097739,-3.8142 -4.383432,-15.2456 -0.20946,-8.385 -0.664188,-27.00645 -1.010317,-41.38087 -0.346103,-14.37442 -1.367895,-56.19092 -2.270628,-92.92555 -0.902734,-36.73462 -1.648812,-71.69061 -1.657964,-77.67994 -0.016,-9.67492 -0.760808,-10.88972 -6.687356,-10.88972 -6.003634,0 -6.670706,1.16158 -6.670706,11.61569 0,6.38864 -1.039508,11.61571 -2.310012,11.61571 -1.270502,0 -1.170228,5.55374 0.222802,12.34167 3.268806,15.92793 3.23764,13.28783 1.036574,87.84367 -1.037347,35.13747 -1.76176,65.19308 -1.609801,66.79024 2.296296,24.1349 2.843536,40.9175 1.521188,46.6515 -1.592378,6.9047 -7.801444,9.5672 -10.64287,4.5637 z m 50.509222,-96.09909 c -1.9741,-6.76919 0.91407,-25.66182 4.26789,-27.91764 1.30119,-0.87522 2.36581,-4.03962 2.36581,-7.03205 0,-3.11284 2.56875,-6.29783 6.00362,-7.44384 12.74649,-4.25276 12.96101,-7.20759 1.22836,-16.92122 -9.07579,-7.51396 -11.39223,-11.34617 -12.05582,-19.94452 -1.08201,-14.02012 2.97116,-21.60066 12.80648,-23.95161 11.1831,-2.67316 11.37631,-13.07298 0.24281,-13.07298 -6.75771,0 -8.38376,-1.7087 -12.33135,-12.95815 -4.51082,-12.85447 -3.74304,-23.9215 1.4187,-20.44965 1.47791,0.99407 2.7055,4.67052 2.72796,8.16987 0.0616,9.60482 3.86689,14.24022 10.79507,13.15032 5.80175,-0.91267 6.18039,-2.12778 5.50843,-17.67759 -0.39685,-9.18367 0.2774,-16.69756 1.49832,-16.69756 4.5732,0 7.86434,10.57979 7.06241,22.70302 -0.76334,11.53969 -0.3533,12.46567 5.14363,11.61569 5.08748,-0.78665 6.09368,-2.96877 6.78637,-14.71724 1.23544,-20.95415 8.52572,-16.50235 8.52572,5.20625 0,10.77634 -8.29544,21.65504 -16.51282,21.65504 -3.06978,0 -4.83343,2.13939 -4.83343,5.86318 0,4.59954 1.2939,5.53208 6.00362,4.32698 7.02504,-1.79752 10.71581,0.47979 14.94319,9.22042 5.67634,11.73656 3.73912,24.03946 -5.21931,33.14692 -4.55787,4.63371 -9.36077,8.4249 -10.67314,8.4249 -1.31234,0 -2.38608,1.96014 -2.38608,4.35588 0,2.39574 1.85566,4.35588 4.1237,4.35588 2.26803,0 7.07094,3.20753 10.67313,7.1278 5.37899,5.85402 6.54942,10.00567 6.54942,23.23139 0,16.31305 -2.09678,19.49513 -7.86329,11.93333 -2.31882,-3.04077 -2.40535,-5.74583 -0.3195,-9.98751 1.89334,-3.85016 1.95596,-6.42573 0.18517,-7.61681 -1.47149,-0.98977 -2.67548,-5.64276 -2.67548,-10.33997 0,-6.60441 -1.20969,-8.54038 -5.33657,-8.54038 -4.89589,0 -5.33655,1.93597 -5.33655,23.44431 0,20.7611 -0.53443,23.33343 -4.66951,22.4754 -3.79882,-0.78827 -4.81659,-4.6182 -5.45847,-20.54041 -0.68401,-16.96724 -1.46137,-19.57146 -5.84207,-19.57146 -4.30205,0 -5.32661,3.02123 -6.89356,20.32747 -1.24456,13.74569 -2.96657,20.32747 -5.31831,20.32747 -1.91282,0 -4.22339,-2.55641 -5.1346,-5.68093 z m 25.31167,-71.27303 c 0,-5.76105 -1.34463,-7.25981 -6.51322,-7.25981 -3.58228,0 -7.18836,1.18883 -8.01352,2.64187 -2.87343,5.05985 1.79983,11.87774 8.14151,11.87774 5.03207,0 6.38523,-1.53854 6.38523,-7.2598 z m 19.72664,2.6664 c 2.80815,-7.96415 1.80973,-9.92621 -5.05109,-9.92621 -5.33657,0 -6.6707,1.45195 -6.6707,7.25981 0,8.35295 8.99523,10.39914 11.72179,2.6664 z m -21.06078,-22.99387 c 0,-8.07573 -10.73874,-9.45756 -14.4737,-1.86243 -3.16561,6.43735 -0.12191,9.17575 9.13713,8.22071 3.38912,-0.34958 5.33657,-2.66986 5.33657,-6.35828 z m 21.12802,5.49715 c 6.28669,-2.62546 5.13973,-6.28273 -3.49428,-11.14183 -7.32272,-4.12116 -7.79562,-4.01421 -9.30253,2.10337 -0.8732,3.54488 -1.60404,7.4253 -1.62406,8.62317 -0.0438,2.62003 8.54907,2.86751 14.42087,0.41529 z m 40.56733,79.75846 c -0.91245,-4.96519 -1.659,-14.05035 -1.659,-20.18918 0,-8.20707 -0.95871,-10.76119 -3.62185,-9.64901 -4.14958,1.73298 -10.99814,23.22681 -9.97157,31.29527 0.43695,3.43447 -0.60708,4.90759 -2.86566,4.04354 -8.62082,-3.29812 0.35738,-37.45615 12.15652,-46.25006 3.46103,-2.57956 -2.95952,-10.94746 -10.9304,-14.24564 -5.24254,-2.16921 -6.1133,-4.58913 -6.1133,-16.98902 0,-11.6204 1.33359,-15.91083 6.79198,-21.85128 3.73559,-4.06552 7.93814,-7.39181 9.33899,-7.39181 5.23581,0 2.29819,-6.05457 -4.25277,-8.76518 -10.73697,-4.44269 -20.04015,-34.79367 -10.66496,-34.79367 2.36807,0 4.60853,4.21756 5.7461,10.81684 1.94107,11.26056 6.44582,18.2224 11.79106,18.2224 2.18212,0 2.8419,-6.33767 2.1918,-21.05346 -0.7611,-17.2281 -0.20279,-21.05344 3.07234,-21.05344 2.91189,0 4.09965,3.5605 4.35925,13.06766 0.74248,27.1921 1.03199,29.03924 4.55143,29.03924 4.6398,0 9.76729,-12.39451 9.76729,-23.61003 0,-15.08183 6.58701,-7.96038 7.46045,8.06572 0.71744,13.16436 0.15662,14.80438 -6.12921,17.92127 -3.8054,1.88698 -8.66349,3.43087 -10.79576,3.43087 -2.13229,0 -3.87688,2.11256 -3.87688,4.69458 0,3.21258 1.63016,4.23064 5.16395,3.22492 7.08714,-2.01701 16.1823,5.539 16.1823,13.4438 0,3.58291 1.21925,7.8413 2.70945,9.4631 4.46129,4.85528 -4.47558,20.31657 -14.83599,25.66708 -9.02546,4.66109 -10.32113,10.29676 -2.36724,10.29676 2.12806,0 7.46049,3.73509 11.84979,8.30016 7.01764,7.2987 7.98056,10.27697 7.98056,24.68336 0,12.77609 -0.89964,16.38318 -4.08616,16.38318 -5.57244,0 -7.61237,-7.00839 -4.11187,-14.12675 3.92096,-7.97341 -1.2398,-19.87596 -10.99943,-25.36859 l -7.48536,-4.21266 0,21.68261 c 0,22.63835 -3.49198,31.33682 -6.34585,15.80742 z m -1.659,-64.92814 c 0,-5.80786 -1.33414,-7.25981 -6.67071,-7.25981 -7.10631,0 -8.76366,5.27242 -3.46876,11.0349 5.29488,5.76248 10.13947,3.95877 10.13947,-3.77509 z m 19.7353,2.64187 c 2.18563,-6.19869 -0.26442,-9.90168 -6.55137,-9.90168 -3.7455,0 -5.17908,2.00951 -5.17908,7.25981 0,8.36708 8.99725,10.39339 11.73045,2.64187 z m -19.7353,-25.87327 c 0,-8.3337 -5.4865,-9.5857 -11.81668,-2.69649 -6.28824,6.84356 -5.09653,9.9563 3.81184,9.9563 6.75963,0 8.00484,-1.1293 8.00484,-7.25981 z m 24.01453,3.85856 c 0,-4.82129 -8.15012,-14.0223 -12.42082,-14.0223 -2.20877,0 -3.58886,3.35009 -3.58886,8.71178 0,7.7438 0.88941,8.71177 8.00485,8.71177 4.40266,0 8.00483,-1.53057 8.00483,-3.40125 z"
       id="path3002"
       inkscape:connector-curvature="0" />
  </g>
</svg>
