<?xml version="1.0" standalone="no"?>
<!DOCTYPE svg PUBLIC "-//W3C//DTD SVG 20010904//EN"
 "http://www.w3.org/TR/2001/REC-SVG-20010904/DTD/svg10.dtd">
<svg version="1.0" xmlns="http://www.w3.org/2000/svg"
 width="117.000000pt" height="117.000000pt" viewBox="0 0 117.000000 117.000000"
 preserveAspectRatio="xMidYMid meet">
<metadata>
Created by potrace 1.13, written by Peter Selinger 2001-2015
</metadata>
<g transform="translate(0.000000,117.000000) scale(0.100000,-0.100000)"
fill="#000000" stroke="none">
<path d="M280 1027 c0 -12 9 -28 20 -35 23 -14 25 -47 11 -133 -16 -88 -29
-260 -36 -479 -7 -179 -7 -204 1 -278 5 -52 9 -63 22 -60 15 3 17 21 19 138 2
151 8 284 22 505 12 208 17 243 37 272 16 25 17 26 30 8 8 -10 12 -28 9 -39
-26 -117 -38 -402 -36 -808 1 -111 2 -118 21 -118 23 0 22 -19 21 445 -1 226
4 295 31 457 10 58 9 70 -6 92 -14 22 -24 26 -65 26 -31 0 -53 5 -61 15 -18
22 -40 18 -40 -8z"/>
<path d="M666 1023 c-3 -4 -6 -23 -6 -44 0 -27 -6 -42 -21 -53 -28 -19 -38
-75 -38 -211 0 -73 4 -116 12 -127 11 -14 50 -22 98 -19 25 1 53 51 55 96 1
22 2 43 3 48 2 13 69 7 74 -7 3 -7 3 -32 0 -55 -5 -36 -10 -43 -34 -48 -19 -3
-29 -12 -29 -23 0 -38 72 -32 98 8 23 35 29 327 7 356 -18 24 -35 12 -35 -24
0 -41 -10 -60 -29 -60 -10 0 -20 -3 -24 -6 -11 -11 5 -34 23 -34 24 0 33 -15
25 -40 -5 -15 -15 -20 -40 -20 -31 0 -55 23 -36 34 5 3 3 30 -3 60 -8 39 -19
60 -38 76 -21 16 -28 30 -28 55 0 30 -19 52 -34 38z m54 -145 c-1 -22 -21 -58
-32 -58 -10 0 -30 59 -23 69 3 6 17 11 31 11 18 0 24 -5 24 -22z m-60 -108 c0
-28 -16 -58 -25 -48 -4 3 -3 27 1 53 7 49 24 45 24 -5z m80 -10 c0 -67 -11
-78 -27 -25 -8 26 -8 42 0 60 19 40 27 29 27 -35z m-46 -76 c10 -26 7 -84 -5
-84 -20 0 -49 21 -49 35 0 24 22 65 36 65 6 0 15 -7 18 -16z"/>
<path d="M489 933 c-6 -16 -11 -94 -12 -175 -1 -135 1 -149 18 -162 21 -15 83
-28 96 -20 13 8 -14 44 -32 44 -50 0 -61 82 -13 94 31 8 31 23 -1 38 -20 9
-25 18 -25 49 0 34 3 38 27 41 39 4 43 36 6 40 -24 3 -28 8 -31 41 -4 44 -18
48 -33 10z"/>
<path d="M473 509 c-28 -28 -7 -39 92 -48 l70 -6 1 -115 c1 -63 -3 -124 -8
-134 -14 -25 -65 -75 -108 -106 -62 -43 -79 -70 -44 -70 19 0 131 68 147 89 7
9 22 24 34 34 21 18 22 18 67 -27 52 -52 132 -106 157 -106 23 0 34 32 16 45
-31 21 -53 36 -98 64 -71 44 -98 86 -108 169 -6 44 -5 88 1 116 9 45 11 46 46
46 l37 0 1 -83 c2 -122 51 -234 87 -198 5 5 -2 32 -18 67 -21 46 -28 76 -29
137 l-2 77 43 0 c36 0 43 3 43 19 0 17 -11 20 -107 25 -304 18 -308 18 -320 5z"/>
<path d="M520 360 c0 -82 -10 -120 -42 -156 -16 -18 -17 -22 -5 -27 19 -7 54
18 71 51 8 15 15 56 16 92 4 110 2 120 -20 120 -18 0 -20 -7 -20 -80z"/>
</g>
</svg>
