<?xml version="1.0" encoding="UTF-8" standalone="no"?>
<!-- Created with Inkscape (http://www.inkscape.org/) -->

<svg
   xmlns:dc="http://purl.org/dc/elements/1.1/"
   xmlns:cc="http://creativecommons.org/ns#"
   xmlns:rdf="http://www.w3.org/1999/02/22-rdf-syntax-ns#"
   xmlns:svg="http://www.w3.org/2000/svg"
   xmlns="http://www.w3.org/2000/svg"
   xmlns:sodipodi="http://sodipodi.sourceforge.net/DTD/sodipodi-0.dtd"
   xmlns:inkscape="http://www.inkscape.org/namespaces/inkscape"
   width="300"
   height="300"
   id="svg2"
   version="1.1"
   inkscape:version="0.47 r22583"
   sodipodi:docname="Nouveau document 1">
  <defs
     id="defs4">
    <inkscape:perspective
       sodipodi:type="inkscape:persp3d"
       inkscape:vp_x="0 : 526.18109 : 1"
       inkscape:vp_y="0 : 1000 : 0"
       inkscape:vp_z="744.09448 : 526.18109 : 1"
       inkscape:persp3d-origin="372.04724 : 350.78739 : 1"
       id="perspective10" />
    <inkscape:perspective
       id="perspective2824"
       inkscape:persp3d-origin="0.5 : 0.33333333 : 1"
       inkscape:vp_z="1 : 0.5 : 1"
       inkscape:vp_y="0 : 1000 : 0"
       inkscape:vp_x="0 : 0.5 : 1"
       sodipodi:type="inkscape:persp3d" />
  </defs>
  <sodipodi:namedview
     id="base"
     pagecolor="#ffffff"
     bordercolor="#666666"
     borderopacity="1.0"
     inkscape:pageopacity="0.0"
     inkscape:pageshadow="2"
     inkscape:zoom="1.979899"
     inkscape:cx="203.95107"
     inkscape:cy="149.6041"
     inkscape:document-units="px"
     inkscape:current-layer="layer1"
     showgrid="false"
     inkscape:window-width="1280"
     inkscape:window-height="950"
     inkscape:window-x="0"
     inkscape:window-y="25"
     inkscape:window-maximized="1" />
  <metadata
     id="metadata7">
    <rdf:RDF>
      <cc:Work
         rdf:about="">
        <dc:format>image/svg+xml</dc:format>
        <dc:type
           rdf:resource="http://purl.org/dc/dcmitype/StillImage" />
        <dc:title></dc:title>
      </cc:Work>
    </rdf:RDF>
  </metadata>
  <g
     inkscape:label="Calque 1"
     inkscape:groupmode="layer"
     id="layer1"
     transform="translate(0,-752.36218)">
    <path
       style="fill:#000000"
       d="m 165.72725,1032.7896 c -0.97443,-10.9234 10.37764,-18.437 15.53419,-27.2749 9.55136,-14.05144 19.62062,-30.17622 18.11124,-47.81097 -2.22047,-14.05491 -17.54605,-8.29752 -18.33144,2.97215 -7.24228,15.63929 -16.93309,30.09393 -26.89908,44.10832 -8.41689,11.2083 -16.1727,-5.66904 -8.14115,-12.57461 8.49703,-15.15685 19.92065,-29.12697 24.87262,-45.98828 0.94269,-11.45542 2.75047,-25.79575 -6.96796,-34.23729 -9.71891,-6.47166 -10.59321,-18.40738 -10.35239,-28.99314 -0.20815,-8.46559 -3.09,-31.89936 10.32102,-18.78641 3.57733,12.02792 21.479,9.47123 31.30458,7.18829 3.86253,-5.94658 9.69327,-14.01283 17.20412,-5.33232 5.25993,10.50258 4.35493,23.22744 2.59659,34.58168 -2.75195,12.84497 -21.7579,10.94662 -26.54433,21.56995 7.62582,13.72495 27.18127,19.22806 29.15137,36.22956 -1.14026,21.02879 -13.41574,39.41227 -24.36821,56.70077 -6.32397,8.2067 -12.61727,22.6574 -25.02355,20.353 l -1.38797,-1.0908 -1.07965,-1.615 0,0 z m 23.22304,-128.9144 c 13.01947,0.61688 13.58123,-22.02927 0.55392,-21.02125 -10.56961,-3.06715 -27.80963,2.34158 -20.17258,15.90661 2.67908,11.85104 11.06883,8.13807 19.61866,5.11464 z M 71.002217,1028.0605 c 1.39782,-10.9141 16.526749,-13.9353 21.468592,-23.4985 7.346351,-12.39824 19.328001,-21.74763 24.724001,-35.25523 7.38673,-10.34161 -5.38068,-35.50515 -15.05789,-18.21506 -10.753202,16.23089 -18.839942,36.15722 -36.579675,46.0609 -10.679013,5.73419 -17.193632,-6.37383 -8.233775,-13.69324 12.746666,-19.48105 35.551557,-32.60247 40.648984,-56.61752 0.662091,-12.02828 -19.889875,-11.74054 -19.051932,-24.86523 -0.895928,-13.63197 -2.220275,-27.69297 0.468146,-41.14444 13.200007,-3.49387 12.012027,19.23668 26.543172,14.45449 12.81695,3.07905 20.71768,-22.98492 30.765,-8.10575 4.5053,12.47206 3.08617,26.68188 -1.55362,38.8581 -6.45588,8.16833 -24.36707,12.71311 -14.46404,26.17949 7.57299,8.10879 14.71551,17.60929 15.33955,29.28902 -0.43482,12.45261 -9.8484,22.3047 -16.87435,31.85028 -11.42953,12.73309 -22.435906,26.17019 -35.792937,36.92999 -3.776409,2.6239 -9.861615,1.7764 -12.349226,-2.2273 z M 116.71905,904.52619 c 7.53024,-5.5002 12.48237,-24.36836 -2.85836,-19.75652 -11.58318,-2.13969 -24.897466,3.75793 -18.642142,17.27708 -0.540717,9.53986 16.720442,4.28215 21.500502,2.47944 z M 44.327435,877.37104 c 3.962856,-15.21424 18.328833,-24.41231 29.191789,-34.62479 20.319915,-18.52362 38.996856,-39.28806 62.286656,-54.24449 9.73355,0.58794 18.06864,11.24078 27.09959,15.94637 26.42676,18.90001 53.0366,37.56981 80.71906,54.59212 8.66365,2.40641 18.34314,19.26121 2.70003,15.82917 -11.02671,-2.96178 -19.14969,-10.67996 -28.8656,-16.06388 -13.40502,-8.76088 -26.01533,-18.75532 -40.26425,-26.11508 -14.09634,-9.4441 -25.34782,-23.33759 -41.56801,-29.41968 -14.26772,8.84751 -26.40065,21.13677 -36.817655,34.22609 11.067365,4.67663 24.517785,1.73207 36.501415,2.22573 14.42273,-0.14095 29.08627,-2.08058 43.3784,-0.0975 10.0979,10.18692 -11.83648,8.19757 -18.17323,8.65757 -20.53057,0.15915 -41.27038,2.25204 -61.684333,-0.33455 -11.220585,-5.54935 -20.627763,8.95743 -29.061169,14.72501 -8.331237,7.83403 -16.562753,15.77754 -25.442693,22.99727 0,-2.76647 0,-5.53294 0,-8.29941 z"
       id="path2830" />
  </g>
</svg>
