<?xml version="1.0" encoding="UTF-8" standalone="no"?>
<!-- Created with Inkscape (http://www.inkscape.org/) -->

<svg
   xmlns:dc="http://purl.org/dc/elements/1.1/"
   xmlns:cc="http://creativecommons.org/ns#"
   xmlns:rdf="http://www.w3.org/1999/02/22-rdf-syntax-ns#"
   xmlns:svg="http://www.w3.org/2000/svg"
   xmlns="http://www.w3.org/2000/svg"
   xmlns:sodipodi="http://sodipodi.sourceforge.net/DTD/sodipodi-0.dtd"
   xmlns:inkscape="http://www.inkscape.org/namespaces/inkscape"
   width="300"
   height="300"
   id="svg2"
   version="1.1"
   inkscape:version="0.48.4 r9939"
   sodipodi:docname="image-seal.svg">
  <defs
     id="defs4" />
  <sodipodi:namedview
     id="base"
     pagecolor="#ffffff"
     bordercolor="#666666"
     borderopacity="1.0"
     inkscape:pageopacity="0.0"
     inkscape:pageshadow="2"
     inkscape:zoom="1.979899"
     inkscape:cx="130.93154"
     inkscape:cy="137.35134"
     inkscape:document-units="px"
     inkscape:current-layer="layer1"
     showgrid="false"
     inkscape:window-width="1215"
     inkscape:window-height="1000"
     inkscape:window-x="65"
     inkscape:window-y="24"
     inkscape:window-maximized="1"
     fit-margin-top="10"
     fit-margin-left="10"
     fit-margin-right="10"
     fit-margin-bottom="10" />
  <metadata
     id="metadata7">
    <rdf:RDF>
      <cc:Work
         rdf:about="">
        <dc:format>image/svg+xml</dc:format>
        <dc:type
           rdf:resource="http://purl.org/dc/dcmitype/StillImage" />
        <dc:title />
      </cc:Work>
    </rdf:RDF>
  </metadata>
  <g
     inkscape:label="Calque 1"
     inkscape:groupmode="layer"
     id="layer1"
     transform="translate(0,-752.36218)">
    <path
       style="fill:#000000"
       d="m 103.31234,1038.8757 c -4.306021,-2.7775 -4.687431,-85.32957 -0.53739,-116.31511 1.53494,-11.46052 3.30512,-27.8699 3.93371,-36.46529 0.62858,-8.59539 2.3476,-30.08779 3.82003,-47.76091 3.22968,-38.76481 2.1446,-45.30442 -7.33317,-44.19579 -6.364491,0.74446 -6.979751,2.08078 -9.959149,21.63079 -5.515617,36.192 -13.772655,149.90526 -13.838444,190.57861 -0.02136,13.1341 -0.750077,25.7341 -1.619629,28.0001 -2.453527,6.3938 -11.116607,5.0223 -12.889267,-2.0405 -2.110687,-8.4096 0.195063,-47.51587 6.470845,-109.74701 2.889377,-28.6513 6.971059,-69.06422 9.07041,-89.80648 3.97156,-39.24027 3.598366,-41.59306 -6.61255,-41.68915 -4.897296,-0.0461 -11.352283,-6.78799 -8.259395,-8.62651 4.704821,-2.79676 30.047838,-4.79001 39.848729,-3.13417 17.12036,2.89248 18.5329,5.81723 16.77547,34.73457 -0.8414,13.84489 -2.06013,28.6888 -2.70827,32.98649 -5.76688,38.23832 -9.07947,130.16855 -6.2385,173.12906 1.05327,15.9273 0.57821,19.5861 -2.62051,20.183 -2.14885,0.4009 -5.43516,-0.2569 -7.30292,-1.4617 z m 114.48189,-2.2877 c -1.41326,-2.6407 -2.872,-18.2422 -3.2416,-34.67 -0.6735,-29.93409 -2.95476,-45.61892 -8.22727,-56.56661 -2.62257,-5.44536 -4.51188,-5.8605 -26.67263,-5.8605 -35.68768,0 -37.47821,3.02355 -38.56133,65.11671 -0.48918,28.043 -0.85479,29.9536 -5.73184,29.9536 -4.98608,0 -5.17264,-1.4511 -4.35326,-33.8607 0.66395,-26.26179 1.73308,-34.54339 4.76406,-36.90299 3.13546,-2.44095 3.30929,-4.16102 0.87931,-8.70147 -4.14723,-7.74916 0.60542,-18.68174 9.84417,-22.64471 7.86999,-3.37583 24.30012,-4.64037 50.42969,-3.88123 17.17744,0.49902 17.31288,0.56153 21.82578,10.07175 4.96321,10.45919 11.95538,83.10275 9.09082,94.44725 -2.03585,8.0627 -6.72871,9.6972 -10.0459,3.4989 z m -49.8228,-32.2827 c -11.3061,-4.51103 -15.68157,-10.31919 -15.68157,-20.81625 0,-18.07623 4.99387,-23.93149 25.2754,-29.63528 4.17829,-1.17507 7.89948,0.44894 13.67448,5.96785 6.76269,6.4628 7.92185,9.46334 7.85124,20.32354 -0.0867,13.337 -2.70012,18.39381 -12.30599,23.81114 -6.73967,3.801 -10.00967,3.8617 -18.81356,0.349 z m 17.76098,-19.35534 c 1.66251,-3.64882 3.02274,-7.83488 3.02274,-9.30238 0,-5.11811 -7.49879,-10.11005 -15.18711,-10.11005 -6.31887,0 -8.2634,1.48638 -10.55882,8.07099 -3.9808,11.41935 0.0654,17.97564 11.09384,17.97564 6.69516,0 9.27791,-1.4734 11.62935,-6.6342 z m -27.64696,-71.51664 c -10.10776,-6.16268 -14.32513,-15.66566 -12.13452,-27.3426 2.09854,-11.18628 9.17596,-14.60621 31.3853,-15.16592 25.95826,-0.65416 32.25623,3.85271 32.25623,23.08281 0,13.34255 -0.56891,14.65077 -8.46515,19.4652 -11.35155,6.92116 -31.65588,6.90254 -43.04186,-0.0396 z m 35.04942,-10.85178 c 7.42358,-6.97409 7.54248,-9.9831 0.68544,-17.34328 -4.49211,-4.8217 -7.41852,-5.55869 -18.18696,-4.58009 -16.29923,1.48117 -18.13416,2.71848 -18.13416,12.22825 0,6.13577 1.61075,8.46327 7.59968,10.98144 12.58156,5.29012 21.46975,4.88233 28.036,-1.28632 z m -66.89163,-32.11422 c 0,-3.58141 1.08838,-6.51166 2.41862,-6.51166 1.33024,0 3.96746,-1.50468 5.86048,-3.34379 1.89304,-1.83907 8.86317,-6.49121 15.48917,-10.33807 13.75158,-7.98373 18.68856,-18.60959 12.89705,-27.75828 -1.87669,-2.96455 -4.93115,-1.80009 -15.84487,6.04063 -13.32044,9.56979 -20.82045,10.65531 -20.82045,3.01344 0,-2.14403 8.05823,-9.15852 17.90716,-15.58774 18.3068,-11.95035 21.16278,-15.51051 21.16278,-26.38048 0,-7.15159 3.87832,-9.60503 22.63111,-14.31645 11.18982,-2.81132 14.23334,-2.79904 17.69187,0.0713 5.0905,4.22476 3.27763,5.93568 -11.05779,10.43589 -12.65465,3.97258 -18.44505,9.28102 -14.46505,13.26105 3.58441,3.58438 18.40278,11.93787 30.13031,16.98516 5.37211,2.31206 9.76749,5.11187 9.76749,6.22181 0,1.10993 2.34419,2.63108 5.20932,3.38033 6.68265,1.74755 6.86045,9.66396 0.21697,9.66396 -2.74576,0 -5.38299,-0.87907 -5.86049,-1.9535 -1.23626,-2.78157 -21.75798,-13.67448 -25.76208,-13.67448 -1.841,0 -5.41687,-1.87297 -7.94638,-4.16215 -6.48314,-5.86716 -10.13673,-2.4388 -10.13673,9.51184 0,9.73279 0.62614,10.52592 12.37216,15.67184 6.80468,2.98114 17.38492,7.67553 23.51167,10.43202 6.1267,2.75646 12.36394,5.01173 13.8605,5.01173 4.0907,0 10.16293,6.892 10.16293,11.53494 0,5.74198 -10.26857,5.1133 -18.23264,-1.11628 -3.58141,-2.80142 -7.94113,-5.11954 -9.68826,-5.1514 -1.74713,-0.0317 -7.02158,-2.20167 -11.72098,-4.82181 -16.19799,-9.03107 -26.52055,-8.38282 -39.55583,2.48415 -5.73242,4.77888 -26.34685,17.81426 -28.24464,17.86031 -1.07443,0.026 -1.9535,-2.88284 -1.9535,-6.46425 z"
       id="path4080"
       inkscape:connector-curvature="0" />
  </g>
</svg>
