<?xml version="1.0" standalone="no"?>
<!DOCTYPE svg PUBLIC "-//W3C//DTD SVG 20010904//EN"
 "http://www.w3.org/TR/2001/REC-SVG-20010904/DTD/svg10.dtd">
<svg version="1.0" xmlns="http://www.w3.org/2000/svg"
 width="115.000000pt" height="115.000000pt" viewBox="0 0 115.000000 115.000000"
 preserveAspectRatio="xMidYMid meet">
<metadata>
Created by potrace 1.13, written by Peter Selinger 2001-2015
</metadata>
<g transform="translate(0.000000,115.000000) scale(0.100000,-0.100000)"
fill="#000000" stroke="none">
<path d="M642 1060 c-7 -39 -12 -83 -12 -98 -1 -26 -1 -26 -16 -7 -8 11 -20
27 -27 35 -6 8 -23 32 -37 53 -28 41 -40 47 -40 17 0 -11 3 -20 8 -20 4 0 18
-29 31 -65 14 -36 29 -65 34 -65 4 0 2 -7 -7 -15 -8 -8 -27 -15 -43 -15 -27
-1 -71 -25 -62 -34 3 -3 27 -7 54 -9 74 -7 85 -14 85 -54 0 -39 12 -66 45 -99
16 -16 21 -30 17 -53 -6 -43 -31 -40 -76 9 -40 44 -48 32 -16 -27 20 -38 65
-83 84 -83 6 0 6 -4 -1 -11 -7 -7 -47 -14 -90 -16 -43 -3 -84 -8 -91 -12 -13
-7 84 -28 153 -34 l30 -2 3 -94 c2 -59 -1 -97 -8 -101 -17 -10 -71 1 -77 16
-3 8 1 24 9 37 18 28 29 57 22 57 -3 0 -21 -16 -40 -35 -19 -20 -39 -33 -44
-30 -19 12 -10 53 19 86 17 18 28 35 27 37 -2 1 -17 -5 -34 -15 -45 -26 -55
-70 -36 -160 8 -42 -7 -43 -25 -2 -7 17 -28 40 -46 50 -32 19 -52 64 -33 75 5
3 9 20 8 38 -1 17 -2 51 -1 76 1 43 3 47 35 58 44 16 68 53 69 109 0 50 -27
96 -62 101 -19 3 -21 10 -21 68 0 58 3 67 30 96 25 26 30 39 30 79 0 27 -4 49
-10 49 -5 0 -10 -11 -10 -25 0 -14 -15 -40 -38 -65 -33 -34 -45 -40 -81 -40
-48 0 -86 -21 -105 -59 -9 -16 -16 -82 -20 -171 -4 -80 -7 -152 -8 -160 -5
-35 15 -127 34 -156 19 -27 100 -73 131 -74 16 -1 56 -37 89 -81 26 -34 27
-39 21 -117 -7 -93 10 -117 21 -29 4 29 14 66 21 81 8 16 15 36 15 46 0 15 10
19 53 22 28 3 55 3 60 1 4 -2 7 -49 7 -104 0 -54 4 -99 8 -99 18 0 29 97 31
258 1 91 4 169 7 171 3 3 47 7 99 9 52 3 95 7 95 11 0 9 -98 31 -137 31 -38 0
-66 27 -37 35 79 24 138 95 132 159 l-3 31 -22 -46 c-26 -52 -74 -92 -106 -87
-34 5 -27 69 12 108 31 31 65 90 56 98 -2 3 -17 -9 -32 -25 -45 -48 -70 -57
-98 -39 -27 18 -58 70 -48 80 4 3 52 6 107 6 118 0 208 9 201 21 -3 4 -30 13
-61 19 -30 7 -58 18 -60 25 -3 8 8 34 25 59 17 24 31 57 31 72 l0 28 -33 -32
c-18 -18 -38 -32 -44 -32 -6 0 -12 26 -15 59 -4 58 -24 100 -39 84 -4 -4 -9
-60 -12 -123 -5 -101 -7 -115 -23 -115 -15 0 -17 11 -19 75 -3 88 -15 170 -24
170 -4 0 -12 -32 -19 -70z m-268 -227 c-1 -27 -3 -54 -3 -60 -1 -19 -77 -17
-84 1 -9 22 12 84 31 95 9 6 26 11 38 11 19 0 20 -5 18 -47z m66 -133 c11 -6
20 -17 20 -25 0 -7 3 -20 6 -29 10 -27 -73 -56 -140 -49 l-56 6 0 46 c0 26 6
53 13 60 14 14 125 8 157 -9z m-81 -178 c5 -10 10 -50 10 -90 0 -80 -7 -87
-52 -48 -30 26 -47 71 -47 123 0 32 2 33 40 33 28 0 42 -5 49 -18z"/>
<path d="M530 732 c0 -5 6 -17 14 -27 13 -18 14 -18 9 8 -5 24 -23 39 -23 19z"/>
<path d="M790 394 c0 -3 14 -17 30 -31 18 -15 30 -34 30 -49 0 -31 -15 -30
-52 1 -47 40 -63 33 -28 -12 28 -36 25 -49 -12 -62 -26 -9 -30 -14 -18 -21 8
-5 31 -10 51 -10 41 0 49 -12 70 -113 7 -32 16 -60 21 -63 13 -8 9 85 -6 148
-12 49 -12 59 0 69 19 16 18 94 -2 124 -12 19 -25 25 -50 25 -19 0 -34 -3 -34
-6z"/>
</g>
</svg>
