<?xml version="1.0" standalone="no"?>
<!DOCTYPE svg PUBLIC "-//W3C//DTD SVG 20010904//EN"
 "http://www.w3.org/TR/2001/REC-SVG-20010904/DTD/svg10.dtd">
<svg version="1.0" xmlns="http://www.w3.org/2000/svg"
 width="122.000000pt" height="122.000000pt" viewBox="0 0 122.000000 122.000000"
 preserveAspectRatio="xMidYMid meet">
<metadata>
Created by potrace 1.13, written by Peter Selinger 2001-2015
</metadata>
<g transform="translate(0.000000,122.000000) scale(0.100000,-0.100000)"
fill="#000000" stroke="none">
<path d="M683 1070 c-4 -14 -14 -20 -34 -20 -16 0 -39 -5 -52 -12 -12 -6 -29
-14 -37 -18 -30 -14 -38 -76 -44 -360 -4 -157 -11 -352 -17 -434 -9 -142 -6
-216 11 -216 24 0 32 38 35 167 8 302 17 539 20 550 2 7 21 15 42 19 50 9 80
30 100 67 17 33 30 207 19 251 -8 31 -36 35 -43 6z m-3 -85 c0 -25 -15 -36
-74 -51 -17 -4 -25 0 -30 13 -9 23 38 63 77 63 22 0 27 -4 27 -25z m-12 -117
c-2 -24 -12 -38 -37 -55 -52 -35 -71 -31 -71 16 0 35 3 40 38 54 61 25 74 22
70 -15z"/>
<path d="M293 1074 c-26 -11 -14 -41 18 -48 l31 -6 -6 -67 c-11 -137 -16 -180
-26 -273 -22 -205 -30 -301 -36 -440 -5 -122 -4 -148 9 -158 28 -24 36 10 40
183 6 235 24 452 52 627 16 101 28 130 51 121 14 -5 15 -19 10 -87 -13 -172
-25 -420 -32 -637 -7 -211 -6 -226 11 -233 10 -3 21 -4 24 -1 3 4 6 100 7 213
1 114 4 239 8 277 3 39 8 111 10 160 3 50 7 97 9 105 3 8 8 61 12 117 6 99 5
104 -18 127 -20 20 -34 23 -93 24 -38 0 -75 -2 -81 -4z"/>
<path d="M758 1075 c-10 -10 2 -239 14 -265 11 -25 77 -80 96 -80 5 0 12 -85
15 -202 13 -466 19 -528 47 -528 21 0 30 39 20 83 -5 24 -12 164 -15 312 -3
148 -8 272 -11 276 -2 4 0 10 5 14 6 3 10 68 10 147 0 126 -2 144 -20 169 -16
23 -28 29 -58 29 -27 0 -43 7 -59 25 -22 25 -34 30 -44 20z m119 -98 c0 -1 3
-11 5 -22 2 -14 -3 -21 -19 -23 -31 -5 -63 15 -63 39 0 19 4 20 38 14 20 -4
38 -8 39 -8z m5 -103 c5 -3 8 -23 8 -45 0 -31 -4 -39 -17 -39 -30 1 -62 33
-69 69 l-7 34 39 -8 c21 -4 42 -9 46 -11z"/>
<path d="M692 689 c-34 -17 -47 -32 -67 -75 -21 -45 -25 -71 -27 -172 -2 -90
1 -123 11 -136 24 -29 25 -24 30 137 1 20 4 37 9 37 4 0 17 -16 30 -36 13 -19
28 -34 35 -31 24 8 17 43 -18 84 -63 74 -41 163 40 163 51 0 68 -34 62 -123
-6 -93 -14 -123 -47 -172 -36 -54 -48 -93 -58 -200 -10 -103 0 -158 26 -153
15 3 18 21 22 128 5 132 10 146 70 235 63 93 60 234 -7 301 -39 40 -53 41
-111 13z"/>
</g>
</svg>
