<?xml version="1.0" encoding="UTF-8" standalone="no"?>
<!-- Created with Inkscape (http://www.inkscape.org/) -->

<svg
   xmlns:dc="http://purl.org/dc/elements/1.1/"
   xmlns:cc="http://creativecommons.org/ns#"
   xmlns:rdf="http://www.w3.org/1999/02/22-rdf-syntax-ns#"
   xmlns:svg="http://www.w3.org/2000/svg"
   xmlns="http://www.w3.org/2000/svg"
   xmlns:sodipodi="http://sodipodi.sourceforge.net/DTD/sodipodi-0.dtd"
   xmlns:inkscape="http://www.inkscape.org/namespaces/inkscape"
   width="300"
   height="300"
   id="svg2"
   version="1.1"
   inkscape:version="0.91 r13725"
   sodipodi:docname="image-seal.svg">
  <defs
     id="defs4" />
  <sodipodi:namedview
     id="base"
     pagecolor="#ffffff"
     bordercolor="#666666"
     borderopacity="1.0"
     inkscape:pageopacity="0.0"
     inkscape:pageshadow="2"
     inkscape:zoom="2.7366667"
     inkscape:cx="150"
     inkscape:cy="150"
     inkscape:document-units="px"
     inkscape:current-layer="layer1"
     showgrid="false"
     inkscape:window-width="1231"
     inkscape:window-height="1000"
     inkscape:window-x="49"
     inkscape:window-y="24"
     inkscape:window-maximized="1"
     showguides="true"
     inkscape:guide-bbox="true" />
  <metadata
     id="metadata7">
    <rdf:RDF>
      <cc:Work
         rdf:about="">
        <dc:format>image/svg+xml</dc:format>
        <dc:type
           rdf:resource="http://purl.org/dc/dcmitype/StillImage" />
        <dc:title />
      </cc:Work>
    </rdf:RDF>
  </metadata>
  <g
     inkscape:label="Calque 1"
     inkscape:groupmode="layer"
     id="layer1"
     transform="translate(0,-752.36218)">
    <path
       style="fill:#000000"
       d="m 127.7277,1040.6475 c -2.63556,-4.9244 -2.76775,-8.8865 -0.49582,-14.862 1.70372,-4.4811 3.09767,-15.8831 3.09767,-25.3377 0,-9.45495 1.5894,-24.07639 3.53202,-32.49228 4.11974,-17.8476 14.44204,-26.196 32.412,-26.2139 13.26182,0 15.44848,-7.76508 2.93421,-10.40202 -4.43799,-0.93514 -10.36183,-2.9409 -13.16411,-4.45721 -2.80229,-1.51634 -6.6179,-2.75698 -8.47915,-2.75698 -6.80768,0 -11.18179,-10.61243 -11.27325,-27.35099 -0.0549,-10.01935 1.44809,-18.62267 3.63501,-20.80957 6.54117,-6.54119 16.16102,-10.52355 25.42084,-10.52355 4.94754,0 8.99552,-1.3204 8.99552,-2.93421 0,-1.61381 -5.6928,-2.93421 -12.65066,-2.93421 -19.51475,0 -31.36243,-13.92773 -31.36243,-36.86859 0,-7.91056 1.18747,-10.0787 5.52006,-10.0787 4.09967,0 6.38199,3.4229 8.86958,13.30199 3.51186,13.94692 10.24525,18.97427 25.41315,18.97427 10.70472,0 9.69726,-11.15218 -1.35551,-15.0052 -6.76138,-2.35705 -9.17069,-5.62672 -11.77905,-15.9855 -2.92379,-11.61135 -4.18937,-13.02238 -11.68016,-13.02238 -8.1406,0 -17.60277,-7.16598 -14.09458,-10.6742 0.95139,-0.95136 9.39199,-2.13323 18.75691,-2.62638 9.36496,-0.49315 33.63331,-1.79799 53.92971,-2.89964 31.96051,-1.73476 37.5434,-1.36215 41.68776,2.78221 6.45158,6.45156 3.35875,13.84564 -4.92205,11.76731 -3.52583,-0.88492 -9.99012,-0.24794 -14.3651,1.41535 -6.49865,2.47077 -7.95455,4.85147 -7.95455,13.00736 0,11.00676 -3.30089,14.79705 -15.40458,17.68845 -4.46304,1.06617 -8.06906,3.9414 -8.06906,6.43377 0,3.54517 2.97235,4.31546 13.93747,3.61186 13.58001,-0.87137 14.03868,-1.21417 17.88366,-13.36469 2.82468,-8.92626 5.53488,-12.47037 9.53617,-12.47037 3.07449,0 5.73473,1.65049 5.91166,3.66775 0.17694,2.01727 0.68147,7.93647 1.12122,13.15376 1.28489,15.24399 -14.16003,27.19157 -35.15117,27.19157 -5.47716,0 -10.77452,1.3204 -11.77191,2.93421 -1.0035,1.62367 1.21259,2.98371 4.96168,3.04503 12.38138,0.20246 30.21411,3.33769 32.7656,5.76052 1.38424,1.31444 3.20404,10.95151 4.04401,21.41571 1.9754,24.60922 -3.39097,33.12581 -22.69895,36.02386 -12.58745,1.88934 -20.53944,5.64421 -20.53944,9.6984 0,1.02844 7.99665,1.97854 17.77031,2.11116 12.27765,0.16725 19.25226,1.72356 22.5648,5.03598 5.72537,5.72552 12.00762,46.12894 12.28728,79.02435 0.17312,20.3581 -0.38373,22.7401 -5.31584,22.7401 -9.03949,0 -11.14332,-5.9896 -11.85263,-33.7434 -0.37121,-14.52431 -2.32589,-33.67001 -4.34377,-42.54598 -3.66524,-16.12229 -3.68179,-16.14019 -16.65596,-17.99871 -7.14292,-1.02316 -14.18551,-0.74881 -15.65024,0.60943 -4.64326,4.30566 4.37496,11.52087 14.39997,11.52087 5.25314,0 11.17674,1.95858 13.16358,4.3526 2.99682,3.61083 2.27554,4.8608 -4.23306,7.33551 -4.31498,1.64052 -11.06046,2.98292 -14.98995,2.98292 -5.66466,0 -7.14449,1.51933 -7.14449,7.33551 0,6.22932 1.35642,7.33552 8.99551,7.33552 10.9283,0 20.34654,4.65599 20.34654,10.05903 0,5.7041 -3.8997,6.4644 -36.3252,7.0809 -30.22123,0.5745 -37.02994,-1.564 -37.02994,-11.631 0,-4.57322 2.24317,-5.50893 13.20393,-5.50893 11.97062,0 13.20392,-0.65609 13.20392,-7.02185 0,-7.17678 -5.90204,-11.46248 -12.47037,-9.05525 -5.94095,2.17747 -12.06032,-3.34412 -9.91175,-8.94317 1.51813,-3.95619 4.196,-4.70793 12.16439,-3.41483 9.32606,1.51346 10.21773,1.03402 10.21773,-5.49283 0,-6.15332 -1.36933,-7.15095 -9.81495,-7.15095 -5.76404,0 -11.80912,2.20329 -14.64655,5.33878 -6.35819,7.02567 -10.74897,31.1375 -10.74897,59.02713 0,20.3478 -2.76514,29.5287 -8.89363,29.5287 -1.01835,0 -3.46862,-3.0217 -5.44504,-6.7147 z m 91.31665,-132.40283 c 4.3531,-6.44487 1.94335,-7.89501 -11.66552,-7.02012 -10.21864,0.65694 -14.15831,2.19713 -14.84253,5.80263 -1.50778,7.94512 21.2577,8.9907 26.50805,1.21749 z m -42.30996,-0.99094 c -1.10496,-5.83303 -18.83598,-8.93665 -23.63549,-4.13717 -5.08927,5.08926 0.69831,9.27203 12.82943,9.27203 9.63232,0 11.60156,-0.93575 10.80606,-5.13486 z m 0.54245,-24.2072 c 0,-6.65422 -10.86921,-8.10956 -20.81452,-2.787 -8.43091,4.51211 -4.00255,8.65541 9.25087,8.65541 9.6075,0 11.56365,-0.99273 11.56365,-5.86841 z m 44.01309,3.03743 c 0,-4.05319 -10.11606,-8.90584 -18.56551,-8.90584 -6.89105,0 -12.31654,6.28457 -8.61824,9.98284 2.92253,2.92256 27.18375,1.96134 27.18375,-1.077 z m -28.06597,-70.45154 c 5.33623,-2.02883 7.52653,-5.01743 7.52653,-10.26972 0,-6.47656 -1.26127,-7.40814 -10.02973,-7.40814 -14.41784,0 -19.31233,2.63058 -19.31233,10.37958 0,4.7371 2.01463,7.20553 6.60196,8.08911 3.63108,0.69936 6.84609,1.4514 7.1445,1.67117 0.29841,0.21977 3.92949,-0.88812 8.06907,-2.462 z m -92.31552,221.36468 c -2.943939,-3.5472 -3.276449,-22.9056 -1.574899,-91.69394 1.186269,-47.95857 2.708769,-91.15856 3.383339,-96 3.23276,-23.20223 5.84567,-59.37324 4.71612,-65.28607 -0.72695,-3.80529 -3.40374,-6.60197 -6.31893,-6.60197 -6.797666,0 -11.760496,22.43899 -16.223896,73.35515 -0.91955,10.48978 -2.8943,28.97528 -4.38828,41.07888 -1.49401,12.1036 -4.1308,38.51145 -5.85958,58.68423 -5.23826,61.12392 -6.178,67.31452 -10.94197,72.07852 -10.92094,10.9208 -11.41876,-5.0519 -2.29217,-73.54562 0.86013,-6.45526 2.19481,-23.62048 2.96598,-38.1448 0.77114,-14.52431 2.65067,-34.9904 4.17672,-45.48018 1.52603,-10.48979 4.23048,-30.29568 6.00987,-44.01309 1.77939,-13.71741 3.87984,-29.16824 4.66765,-34.3352 1.35361,-8.8777 0.781,-9.56982 -10.4108,-12.58346 -28.074742,-7.55974 0.87419,-20.87458 35.139046,-16.16195 13.47939,1.85389 14.16303,2.4108 17.08377,13.91767 1.91613,7.54898 2.09294,17.51019 0.47754,26.90696 -6.99558,40.69391 -10.44348,172.29583 -5.48177,209.23307 1.98264,14.7597 1.88074,23.0001 -0.33567,27.1414 -3.78739,7.077 -9.64579,7.6513 -14.79207,1.4504 z m 50.6941,-265.82113 c -9.64535,-9.82785 -4.63094,-11.36608 37.05183,-11.36608 32.90257,0 41.43213,0.85855 44.43124,4.47223 2.04139,2.45971 3.10486,5.07896 2.36324,5.82055 -0.74156,0.74159 -19.08513,2.12733 -40.76345,3.07942 -29.92785,1.31438 -40.29795,0.83152 -43.08286,-2.00612 z"
       id="path4218"
       inkscape:connector-curvature="0" />
  </g>
</svg>
