<?xml version="1.0" encoding="UTF-8" standalone="no"?>
<!-- Created with Inkscape (http://www.inkscape.org/) -->

<svg
   xmlns:dc="http://purl.org/dc/elements/1.1/"
   xmlns:cc="http://creativecommons.org/ns#"
   xmlns:rdf="http://www.w3.org/1999/02/22-rdf-syntax-ns#"
   xmlns:svg="http://www.w3.org/2000/svg"
   xmlns="http://www.w3.org/2000/svg"
   xmlns:sodipodi="http://sodipodi.sourceforge.net/DTD/sodipodi-0.dtd"
   xmlns:inkscape="http://www.inkscape.org/namespaces/inkscape"
   width="300"
   height="300"
   id="svg2"
   version="1.1"
   inkscape:version="0.48.4 r9939"
   sodipodi:docname="dessin.svg">
  <defs
     id="defs4" />
  <sodipodi:namedview
     id="base"
     pagecolor="#ffffff"
     bordercolor="#666666"
     borderopacity="1.0"
     inkscape:pageopacity="0.0"
     inkscape:pageshadow="2"
     inkscape:zoom="1.979899"
     inkscape:cx="218.29155"
     inkscape:cy="144.09165"
     inkscape:document-units="px"
     inkscape:current-layer="layer1"
     showgrid="false"
     inkscape:window-width="1215"
     inkscape:window-height="1000"
     inkscape:window-x="65"
     inkscape:window-y="24"
     inkscape:window-maximized="1" />
  <metadata
     id="metadata7">
    <rdf:RDF>
      <cc:Work
         rdf:about="">
        <dc:format>image/svg+xml</dc:format>
        <dc:type
           rdf:resource="http://purl.org/dc/dcmitype/StillImage" />
        <dc:title />
      </cc:Work>
    </rdf:RDF>
  </metadata>
  <g
     inkscape:label="Calque 1"
     inkscape:groupmode="layer"
     id="layer1"
     transform="translate(0,-752.36218)">
    <path
       style="fill:#000000"
       d="m 62.461752,1038.8971 c -1.077431,-1.8429 -0.360119,-55.92874 0.969239,-73.08087 0.199029,-2.56655 1.993848,-4.66648 3.98873,-4.66648 1.994882,0 3.627047,-1.79992 3.627047,-3.99984 0,-2.19989 -1.264983,-3.99983 -2.811078,-3.99983 -2.732677,0 -1.654061,-49.66103 1.403092,-64.6008 0.68235,-3.33459 1.773099,-12.06265 2.423866,-19.39569 0.650767,-7.33301 1.786495,-18.73254 2.523811,-25.33226 0.737315,-6.59972 1.964535,-23.64472 2.727152,-37.87779 l 1.386595,-25.8783 -10.133104,-3.20924 c -7.39639,-2.34256 -10.133078,-4.63563 -10.133078,-8.49067 0,-4.85408 1.173489,-5.14022 14.504655,-3.53666 36.508691,4.39151 36.663601,4.45828 43.025601,18.54073 3.84762,8.51683 5.00489,13.93531 3.41707,15.99932 -1.3205,1.71654 -2.54939,17.5204 -2.73083,35.11967 -0.18138,17.59925 -0.97656,35.79957 -1.7669,40.44512 -0.79034,4.64557 -0.40629,10.39336 0.85343,12.77283 2.01415,3.8046 3.3847,3.40707 11.36385,-3.29595 4.99041,-4.19227 15.47287,-9.24515 23.29437,-11.22862 7.8215,-1.98345 14.76983,-4.5452 15.44074,-5.69272 0.67092,-1.14751 -3.16286,-3.33391 -8.51946,-4.85861 -15.17149,-4.31849 -37.58888,-32.1419 -25.89682,-32.1419 1.13114,0 6.39416,4.19984 11.69555,9.33296 12.43362,12.03891 22.73628,12.78604 24.2672,1.75987 1.4998,-10.80222 -0.0394,-13.75939 -7.16129,-13.75939 -12.24892,0 -22.69171,-8.73059 -26.28514,-21.9754 -3.71511,-13.69333 -2.92244,-16.88248 6.73306,-27.08921 9.02982,-9.5453 9.20461,-9.59951 30.90123,-9.58472 38.60741,0.0266 50.72083,6.64319 52.73541,28.80632 0.83227,9.15598 0.15212,15.22188 -2.01619,17.98381 -4.20905,5.36111 -16.47799,10.74888 -29.96029,13.15674 -7.95788,1.42124 -10.27603,2.89545 -9.20264,5.85233 0.78916,2.17388 1.43483,6.2543 1.43483,9.06757 0,4.01018 1.80015,5.11502 8.33408,5.11502 6.21301,0 10.51198,-2.37532 16.89141,-9.33294 9.30167,-10.14476 9.72177,-10.34294 14.76511,-6.96467 5.28996,3.54346 -0.54848,12.59269 -11.64598,18.05058 -5.18404,2.54953 -9.99308,5.42494 -10.68678,6.38974 -0.6937,0.96485 -5.51807,2.58167 -10.72083,3.59298 -8.66216,1.68374 -13.53085,6.93018 -6.43119,6.93018 5.87486,0 32.28731,9.20892 32.28731,11.25721 0,1.14157 1.7838,2.07559 3.96402,2.07559 5.09816,0 11.17128,6.4198 11.17128,11.80901 0,5.63659 -5.58445,5.2767 -16.23401,-1.0463 -20.06867,-11.91538 -49.87514,-15.65452 -64.39056,-8.07759 -2.13446,1.11418 -7.28626,3.66377 -11.44846,5.6658 -4.16221,2.00204 -8.35423,4.80197 -9.31563,6.22206 -0.96139,1.42009 -5.50197,2.62197 -10.09019,2.67079 l -8.34222,0.0889 -0.67183,71.33035 c -0.638,67.7379 -0.91026,71.3303 -5.40587,71.3303 -2.6037,0 -5.41785,-1.8838 -6.25368,-4.1862 -2.364581,-6.5138 1.40835,-172.31645 4.9584,-217.89794 1.96923,-25.28419 -0.86072,-36.57167 -9.169111,-36.57167 -5.401433,0 -6.586198,6.35195 -9.947317,53.3311 -1.416538,19.79919 -3.0708,40.19832 -3.676136,45.33144 -0.974612,8.26473 -2.391098,24.78419 -5.144562,59.9975 -0.458725,5.86641 -1.558909,29.03236 -2.444879,51.47988 -0.885945,22.44749 -2.239922,42.54669 -3.008821,44.66479 -1.526419,4.2049 -7.344349,5.1917 -9.443262,1.6018 z M 192.12911,813.31333 c 0,-3.57996 -1.13515,-7.25063 -2.52255,-8.15705 -1.3874,-0.90643 -2.52255,-3.97713 -2.52255,-6.82378 0,-2.84665 -0.95294,-5.17572 -2.11765,-5.17572 -1.16469,0 -3.41064,-2.99989 -4.99102,-6.6664 -2.98957,-6.936 -6.8436,-8.2213 -12.76452,-4.25697 -2.91534,1.95194 -2.73712,4.85133 1.10376,17.95842 5.11172,17.44379 6.90994,19.53098 16.87752,19.58967 5.6836,0.0335 6.93701,-1.13526 6.93701,-6.46817 z m -33.72307,-12.94512 c -4.63624,-14.2558 -8.16829,-17.40251 -13.36616,-11.9079 -6.02233,6.36613 -1.73806,21.19714 6.79474,23.5216 8.85798,2.41307 10.30277,-0.14033 6.57142,-11.6137 z m 53.45611,2.59297 c 1.10833,-10.18902 -5.66456,-20.47063 -13.48481,-20.47063 -7.66608,0 -7.74022,1.94418 -0.66132,17.3465 6.28057,13.6653 12.84187,15.11437 14.14613,3.12413 z m 1.91772,235.87632 c -0.84052,-1.4376 -4.63685,-3.3444 -8.43631,-4.2372 -6.34277,-1.4906 -14.16813,-7.5395 -30.8723,-23.8641 -7.40085,-7.2327 -17.65784,-26.69933 -17.65784,-33.51262 0,-7.36136 -6.6459,-12.13223 -10.68768,-7.67234 -3.30459,3.64645 -11.81484,21.36063 -16.8817,35.13946 -3.09537,8.4176 -8.85929,8.3295 -9.28069,-0.1418 -0.44854,-9.01619 5.41049,-23.88201 15.54036,-39.42977 8.21408,-12.60731 10.65858,-14.63558 17.63915,-14.63558 8.6018,0 8.71853,0.18185 16.25183,25.33228 6.21707,20.75604 13.55605,23.24559 17.68675,5.99974 4.64446,-19.39065 10.50848,-31.33202 15.38613,-31.33202 4.42521,0 18.56417,19.85844 25.20738,35.4042 2.52822,5.91627 2.53178,8.06105 0.0177,10.66622 -2.4915,2.5817 -4.4185,1.59476 -9.25245,-4.73881 -3.35807,-4.39981 -6.11121,-9.23259 -6.11812,-10.73952 -0.008,-1.50695 -1.81749,-5.46399 -4.02361,-8.79345 -3.18193,-4.80216 -4.74628,-5.40855 -7.56765,-2.93338 -1.95611,1.71613 -3.55657,5.98942 -3.55657,9.49626 0,6.12011 -0.79213,8.51679 -7.09507,21.46693 -2.52351,5.1849 -1.74732,6.6779 7.01168,13.487 5.41714,4.2113 14.4733,9.9873 20.12481,12.8357 6.21748,3.1335 10.00711,6.7584 9.59593,9.1786 -0.78285,4.6076 -10.75317,6.9214 -13.03169,3.0242 z m -44.3537,-100.6599 c -21.82623,-8.01086 -29.30243,-16.21739 -26.29883,-28.86781 1.75004,-7.37077 17.00531,-16.01297 34.87673,-19.75787 13.29348,-2.78563 19.17013,-1.74177 19.17013,3.40508 0,1.77851 2.83787,5.84202 6.30638,9.03003 10.05094,9.23805 7.72215,24.59739 -4.66455,30.76466 -9.38908,4.67474 -24.05792,7.38289 -29.38986,5.42591 z m 22.0723,-14.64968 c 6.26637,-2.47807 7.74713,-12.45301 2.64868,-17.84251 -1.66489,-1.75993 -9.61091,-3.19987 -17.65785,-3.19987 -11.28008,0 -15.78921,1.22456 -19.68905,5.34703 -4.29524,4.54042 -4.58061,6.16433 -1.89191,10.76523 1.7415,2.98001 6.00422,6.07859 9.47273,6.88572 3.46851,0.80713 7.44152,1.85579 8.82892,2.33034 2.65135,0.9069 8.80218,-0.53455 18.28848,-4.28594 z"
       id="path3067"
       inkscape:connector-curvature="0" />
  </g>
</svg>
