<?xml version="1.0" encoding="UTF-8" standalone="no"?>
<!-- Created with Inkscape (http://www.inkscape.org/) -->

<svg
   xmlns:dc="http://purl.org/dc/elements/1.1/"
   xmlns:cc="http://creativecommons.org/ns#"
   xmlns:rdf="http://www.w3.org/1999/02/22-rdf-syntax-ns#"
   xmlns:svg="http://www.w3.org/2000/svg"
   xmlns="http://www.w3.org/2000/svg"
   xmlns:sodipodi="http://sodipodi.sourceforge.net/DTD/sodipodi-0.dtd"
   xmlns:inkscape="http://www.inkscape.org/namespaces/inkscape"
   width="300"
   height="300"
   id="svg2"
   version="1.1"
   inkscape:version="0.48.4 r9939"
   sodipodi:docname="dessin.svg">
  <defs
     id="defs4" />
  <sodipodi:namedview
     id="base"
     pagecolor="#ffffff"
     bordercolor="#666666"
     borderopacity="1.0"
     inkscape:pageopacity="0.0"
     inkscape:pageshadow="2"
     inkscape:zoom="1.979899"
     inkscape:cx="218.29155"
     inkscape:cy="144.09165"
     inkscape:document-units="px"
     inkscape:current-layer="layer1"
     showgrid="false"
     inkscape:window-width="1215"
     inkscape:window-height="1000"
     inkscape:window-x="65"
     inkscape:window-y="24"
     inkscape:window-maximized="1" />
  <metadata
     id="metadata7">
    <rdf:RDF>
      <cc:Work
         rdf:about="">
        <dc:format>image/svg+xml</dc:format>
        <dc:type
           rdf:resource="http://purl.org/dc/dcmitype/StillImage" />
        <dc:title />
      </cc:Work>
    </rdf:RDF>
  </metadata>
  <g
     inkscape:label="Calque 1"
     inkscape:groupmode="layer"
     id="layer1"
     transform="translate(0,-752.36218)">
    <path
       style="fill:#000000"
       d="m 122.81279,1041.3975 c -0.57436,-1.7863 -1.72003,-5.2069 -2.54596,-7.6011 -0.8259,-2.3943 -0.35375,-8.2405 1.04925,-12.9916 1.40298,-4.7512 3.16627,-26.17708 3.91837,-47.61326 3.77313,-107.5393 6.28605,-128.15754 16.58559,-136.084 2.96099,-2.27872 16.06891,-4.66797 29.29271,-5.33933 2.00656,-0.10188 4.97624,-3.71764 6.59929,-8.03503 3.08311,-8.20116 11.72158,-14.30263 16.42963,-11.60441 1.50927,0.86498 2.74413,0.33443 2.74413,-1.179 0,-1.51341 3.62835,-2.75167 8.06298,-2.75167 4.43467,0 9.67708,-1.80341 11.6498,-4.0076 6.01921,-6.72542 -1.23284,-10.31758 -20.16344,-9.98749 -16.31436,0.28448 -17.33864,0.71053 -26.98137,11.22283 -11.68366,12.73724 -22.12149,18.36219 -34.07355,18.36219 -9.49733,0 -12.15788,-6.88159 -3.6417,-9.41924 15.82333,-4.71503 20.27454,-7.43392 24.07112,-14.70307 3.99018,-7.63985 3.85014,-8.48769 -2.57019,-15.56311 -12.99334,-14.31909 -5.88254,-21.06872 10.02195,-9.51296 8.73645,6.34768 12.63571,7.24018 35.71645,8.17522 22.04524,0.89307 26.74656,1.88292 31.52287,6.63696 13.04041,12.97961 2.78268,26.455 -22.16461,29.11728 -11.44567,1.22143 -12.85133,2.08191 -12.85133,7.86725 0,6.18646 0.934,6.55766 19.61423,7.79497 19.10101,1.26516 32.72408,5.59845 28.86136,9.18034 -1.05289,0.97632 -7.97741,2.12165 -15.38784,2.54511 -11.92596,0.68154 -13.57081,1.5008 -14.32046,7.13264 -0.79326,5.95921 0.27292,6.51039 16.81219,8.6926 14.95356,1.97302 17.65915,3.12618 17.65915,7.52665 0,4.12836 -2.01607,5.2813 -9.80711,5.60845 -12.2886,0.51602 -31.55692,-3.88268 -34.28202,-7.8261 -1.13224,-1.63845 -2.0779,-5.96056 -2.10153,-9.60472 -0.0532,-8.19743 -4.7985,-12.86169 -13.08548,-12.86169 -5.0138,0 -6.70127,1.89586 -8.17608,9.18582 -2.21501,10.94862 -12.67862,17.0549 -29.59603,17.2714 -7.10745,0.091 -10.7349,1.21278 -9.96698,3.0824 0.664,1.61667 0.13534,9.95488 -1.17469,18.52934 -1.31006,8.57446 -3.14231,45.39713 -4.0716,81.82815 -1.6355,64.11378 -2.50817,69.99018 -10.41539,70.13388 -1.2042,0.021 -2.65938,-1.4217 -3.23371,-3.2081 z m 42.1521,-185.78002 c 5.93238,-7.24678 4.57623,-11.04287 -3.94512,-11.04287 -9.01112,0 -14.57057,4.16386 -14.57057,10.91296 0,6.23469 13.44099,6.32898 18.51569,0.12985 z m 19.31175,177.62002 c -19.15668,-6.8204 -20.11215,-8.0162 -23.51483,-29.43 -3.68178,-23.17002 -3.3248,-31.86022 1.49772,-36.46217 4.08909,-3.90202 9.27327,-4.24712 9.75822,-0.64959 0.1925,1.42909 0.66548,3.76756 1.05076,5.19666 0.38528,1.42908 0.85813,4.43351 1.05076,6.6765 0.49372,5.74874 12.63726,3.70582 13.87943,-2.33497 2.11497,-10.28542 -2.06297,-17.33315 -10.27523,-17.33315 -8.90536,0 -19.34882,-9.44217 -20.72767,-18.74034 -0.48475,-3.26906 -1.64709,-7.11297 -2.58298,-8.54204 -0.93584,-1.42908 -0.57609,-5.3626 0.79949,-8.74115 3.38813,-8.32149 9.58418,-3.53253 12.20772,9.43547 2.88181,14.24447 6.55892,19.22382 13.51502,18.30119 8.41366,-1.11594 9.08378,-8.18138 1.65914,-17.49366 -3.4354,-4.3088 -6.56376,-10.50176 -6.95192,-13.76215 -0.38814,-3.26037 -0.81081,-6.73768 -0.93924,-7.72729 -0.12834,-0.98966 -5.59239,-2.1589 -12.14214,-2.59833 -8.33451,-0.55918 -11.90864,-1.96875 -11.90864,-4.69646 0,-3.34368 6.56939,-3.76833 46.23355,-2.98849 25.42845,0.49994 47.17923,1.44588 48.33507,2.10208 1.15583,0.65619 2.10152,2.81072 2.10152,4.78784 0,2.36198 -4.0279,3.86871 -11.74548,4.3937 -10.77245,0.73281 -11.9509,1.53842 -14.22474,9.72468 -1.36358,4.90911 -6.45426,12.14394 -11.31263,16.07737 -9.76477,7.90578 -9.2803,10.04841 2.45139,10.84102 6.96706,0.47072 8.38784,-0.79794 12.25912,-10.94653 4.26203,-11.17295 11.08958,-17.14263 11.6357,-10.17371 0.98914,12.62213 -1.36855,24.42288 -5.4311,27.18371 -2.55612,1.73711 -10.0064,3.90573 -16.55615,4.81911 -11.62065,1.62055 -11.90864,1.90085 -11.90864,11.5919 0,8.50478 0.99669,10.10784 6.93924,11.16124 8.80079,1.56007 9.87296,0.45768 9.87296,-10.15146 0,-9.80681 1.23665,-10.48384 7.88635,-4.31757 3.80311,3.52664 4.54378,8.68208 3.93829,27.41359 -0.41017,12.6886 -2.26884,25.3317 -4.13043,28.0958 -3.15318,4.682 -24.55402,13.2875 -31.31014,12.5901 -1.65186,-0.1704 -6.78613,-1.6568 -11.40949,-3.3029 z m 25.87151,-15.2249 c 3.86538,-4.5811 6.24596,-14.7713 4.45941,-19.08844 -1.09341,-2.64223 -6.82996,-3.64688 -20.82359,-3.64688 l -19.31444,0 0,7.83022 c 0,13.3821 5.24199,18.153 19.94515,18.153 7.14619,0 14.22626,-1.4615 15.73347,-3.2479 z m -5.95541,-96.97774 c 2.30792,-8.527 -2.10932,-12.62309 -11.30484,-10.48295 -7.72904,1.79882 -9.61878,8.69958 -3.8478,14.05103 5.77099,5.35141 13.21279,3.59906 15.15264,-3.56808 z M 95.51588,1030.3271 c -0.78689,-0.7297 -0.82912,-30.2531 -0.0939,-65.60764 1.62324,-78.04907 1.64577,-78.57058 3.39256,-78.57625 0.77056,-0.004 1.79608,-13.1565 2.27895,-29.23113 0.48285,-16.0746 1.93377,-33.64754 3.22424,-39.05095 3.46012,-14.48812 0.54875,-30.44961 -5.55399,-30.44961 -5.384081,0 -8.173898,11.33663 -9.911018,40.27398 -0.514733,8.57447 -1.628458,22.60541 -2.474924,31.17987 -4.662751,47.23116 -7.308683,78.13491 -8.676132,101.33457 -3.540985,60.07626 -6.153012,70.95506 -16.179835,67.38716 -4.971872,-1.7692 -4.98888,-0.7542 0.802362,-47.89974 1.667686,-13.57624 4.276463,-41.63812 5.797294,-62.35975 2.556687,-34.8352 5.159329,-63.92792 9.897202,-110.63166 l 1.865706,-18.3912 -8.748144,-3.36018 c -16.534602,-6.35092 -6.936405,-13.12298 18.599531,-13.12298 13.511748,0 17.573648,1.06111 22.379258,5.84623 5.30071,5.27812 5.78084,8.37111 4.94099,31.82945 -0.51165,14.29076 -2.35175,44.69113 -4.08909,67.55636 -1.73738,22.86524 -3.07762,45.66551 -2.97834,50.66728 0.0992,5.00178 0.21127,10.84799 0.24882,12.99162 0.37436,21.31834 -4.384,85.17387 -6.53468,87.69337 -2.93252,3.4354 -5.82276,4.1136 -8.18706,1.9212 z m 62.14145,-144.25698 c 0,-5.06216 1.43534,-5.24502 35.69157,-4.54707 31.39874,0.63976 35.80463,1.27412 36.63188,5.27429 0.8568,4.14313 -2.31384,4.54706 -35.69157,4.54706 -34.94357,0 -36.63188,-0.24293 -36.63188,-5.27428 z"
       id="path3379"
       inkscape:connector-curvature="0" />
  </g>
</svg>
