<?xml version="1.0" encoding="UTF-8" standalone="no"?>
<!-- Created with Inkscape (http://www.inkscape.org/) -->

<svg
   xmlns:dc="http://purl.org/dc/elements/1.1/"
   xmlns:cc="http://creativecommons.org/ns#"
   xmlns:rdf="http://www.w3.org/1999/02/22-rdf-syntax-ns#"
   xmlns:svg="http://www.w3.org/2000/svg"
   xmlns="http://www.w3.org/2000/svg"
   xmlns:sodipodi="http://sodipodi.sourceforge.net/DTD/sodipodi-0.dtd"
   xmlns:inkscape="http://www.inkscape.org/namespaces/inkscape"
   width="300"
   height="300"
   id="svg2"
   version="1.1"
   inkscape:version="0.48.4 r9939"
   sodipodi:docname="dessin.svg">
  <defs
     id="defs4" />
  <sodipodi:namedview
     id="base"
     pagecolor="#ffffff"
     bordercolor="#666666"
     borderopacity="1.0"
     inkscape:pageopacity="0.0"
     inkscape:pageshadow="2"
     inkscape:zoom="1.979899"
     inkscape:cx="218.29155"
     inkscape:cy="144.09165"
     inkscape:document-units="px"
     inkscape:current-layer="layer1"
     showgrid="false"
     inkscape:window-width="1215"
     inkscape:window-height="1000"
     inkscape:window-x="65"
     inkscape:window-y="24"
     inkscape:window-maximized="1" />
  <metadata
     id="metadata7">
    <rdf:RDF>
      <cc:Work
         rdf:about="">
        <dc:format>image/svg+xml</dc:format>
        <dc:type
           rdf:resource="http://purl.org/dc/dcmitype/StillImage" />
        <dc:title />
      </cc:Work>
    </rdf:RDF>
  </metadata>
  <g
     inkscape:label="Calque 1"
     inkscape:groupmode="layer"
     id="layer1"
     transform="translate(0,-752.36218)">
    <path
       style="fill:#000000"
       d="m 201.324,1031.1868 c 0,-1.201 1.51966,-3.4838 3.37702,-5.0728 2.62655,-2.247 2.62655,-2.889 0,-2.889 -2.24527,0 -3.44329,-5.043 -3.5748,-15.0474 -0.21753,-16.55266 -3.13767,-26.18808 -6.5183,-21.50843 -1.13225,1.56733 -4.89658,2.84967 -8.36516,2.84967 -10.05739,0 -13.06056,4.70563 -13.06056,20.46446 0,13.6155 -3.08367,20.4644 -9.21403,20.4644 -1.353,0 -2.25356,-5.1462 -2.00128,-11.436 0.96995,-24.18143 0.10897,-29.59577 -4.96623,-31.2249 -6.8625,-2.20293 -11.76496,-8.14045 -11.87077,-14.37703 -0.0493,-2.90122 -1.35588,-5.94455 -2.90367,-6.76294 -1.54781,-0.81838 -2.81419,-9.43368 -2.81419,-19.14514 0,-14.55645 0.86483,-17.95904 4.92481,-19.37621 9.02308,-3.14951 36.3078,-7.46229 44.59126,-7.0483 4.49605,0.22463 11.60785,0.54823 15.80398,0.71897 4.19617,0.17071 10.21148,2.68156 13.36736,5.5796 9.32099,8.55934 7.41978,51.45986 -2.64727,59.7355 -3.63963,2.992 -8.0084,11.65577 -6.51969,12.92945 1.40677,1.2035 3.1046,30.4074 1.76777,30.4071 -0.26031,-10e-5 -2.47653,0.6575 -4.92481,1.4613 -2.4483,0.8037 -4.45144,0.4787 -4.45144,-0.7223 z m 8.31388,-54.77702 c 2.16905,-2.23593 2.01785,-3.80443 -0.54019,-5.60337 -4.53299,-3.18783 -8.23093,-3.5981 -28.88004,-3.20417 -20.35081,0.38824 -26.707,3.02149 -22.22725,9.20826 5.91694,8.17167 43.61527,7.87916 51.64748,-0.40072 z m -4.11529,-16.21112 c 4.20911,-1.64072 6.90493,-4.43229 6.39373,-6.62085 -0.73422,-3.14332 -5.5259,-3.75663 -28.29996,-3.62222 -27.9642,0.16517 -35.1638,2.25874 -32.00252,9.30666 1.34112,2.98996 6.35678,3.77321 24.16179,3.77321 12.35814,0 25.74427,-1.27656 29.74696,-2.8368 z m 0.51004,-19.51861 c 5.42202,-2.5925 5.67185,-3.44207 2.20245,-7.49015 -3.49718,-4.0805 -6.3086,-4.39505 -26.44366,-2.95847 -27.17058,1.93856 -31.12267,3.0796 -31.12267,8.98583 0,4.13097 2.30491,4.54958 24.62409,4.47227 13.89112,-0.0481 27.28974,-1.3599 30.73979,-3.00948 z M 97.90436,1024.0271 c -2.870324,-5.9979 -2.691201,-177.47579 0.21219,-203.03883 1.87835,-16.5387 1.5319,-21.37069 -1.80611,-25.1887 -5.815761,-6.65207 -11.825331,-1.822 -15.761806,12.66816 -6.213711,22.8727 -10.283298,170.59235 -5.336053,193.69087 1.613877,7.5353 1.144049,9.0284 -2.840774,9.0284 -10.588353,0 -11.765384,-7.2212 -10.684543,-65.55058 0.571026,-30.81767 1.827304,-64.15771 2.791667,-74.08897 0.964391,-9.93128 2.382119,-24.55732 3.150504,-32.50234 0.768356,-7.945 2.199619,-22.063 3.180559,-31.3733 1.74617,-16.57356 1.628706,-16.98817 -5.612799,-19.81092 -14.381362,-5.60586 -8.761079,-8.60143 12.905662,-6.87866 15.324789,1.21849 21.963243,2.92641 27.078383,6.96656 6.73203,5.31726 6.76098,5.54943 4.42094,35.44707 -1.29548,16.5521 -2.39994,69.00654 -2.45431,116.56539 -0.0765,66.95535 -0.8924,86.69735 -3.61506,87.47495 -1.93397,0.5524 -4.4667,-0.9817 -5.62837,-3.4091 z M 143.6333,911.29196 c -4.6434,-1.75952 -10.75442,-6.58142 -13.58006,-10.71531 -5.70552,-8.34721 -9.1445,-30.98243 -5.41206,-35.62186 5.8864,-7.31678 68.96619,-10.54604 93.14775,-4.76854 l 12.24365,2.92527 -1.11839,15.02615 c -1.99612,26.81951 -16.93011,36.86607 -54.32491,36.54607 -12.38238,-0.1059 -26.31258,-1.63226 -30.95598,-3.39178 z m 41.99971,-6.00551 8.22955,-0.033 -6.60946,-6.01895 c -8.11697,-7.39177 -12.01309,-7.49969 -24.89281,-0.68969 -10.04179,5.30945 -10.05346,5.33556 -3.14636,7.03591 3.81305,0.93869 9.46557,1.26386 12.56118,0.72259 3.09559,-0.54126 9.33165,-0.99889 13.8579,-1.01697 z m -26.9613,-12.07079 c 9.13759,-3.9725 17.99519,-7.22274 19.68356,-7.22274 1.68838,0 8.92273,2.79556 16.07637,6.21235 7.15365,3.41681 13.71095,5.6098 14.57177,4.87335 2.40261,-2.05547 -5.25787,-8.92502 -12.62469,-11.32118 -3.62103,-1.17782 -8.439,-5.94029 -10.7066,-10.58331 -5.42493,-11.10774 -16.9625,-11.99685 -21.18566,-1.63264 -1.82125,4.46963 -6.16871,7.94858 -12.65286,10.12518 -12.0387,4.04112 -15.89272,7.69051 -13.57612,12.85519 2.22358,4.95735 0.92108,5.16828 20.41423,-3.3062 z m -11.44333,-13.3782 c 7.83269,-4.69358 8.38233,-13.10518 0.85636,-13.10518 -10.24305,0 -14.30108,2.80575 -14.30108,9.8879 0,7.85656 4.07522,8.83176 13.44472,3.21728 z m 70.9807,-7.38101 c 0,-3.1483 -1.58298,-5.84526 -3.51773,-5.99328 -1.93474,-0.14807 -7.63347,-0.67658 -12.6638,-1.17459 -7.37693,-0.7303 -9.1461,-0.0518 -9.1461,3.50735 0,4.60816 6.83897,10.90146 14.07091,12.94819 6.02502,1.70516 11.25672,-2.61141 11.25672,-9.28767 z m -97.94192,-22.86083 c 0.69929,-1.83028 7.72369,-4.41117 15.60974,-5.73534 7.8861,-1.32417 15.18922,-3.1385 16.22913,-4.03183 3.38369,-2.90667 -1.64657,-11.5182 -6.53168,-11.18189 -2.61539,0.1801 -10.39063,0.15578 -17.27833,-0.0541 -21.53487,-0.65597 -8.95121,-4.92931 16.76015,-5.69164 23.40136,-0.69384 23.90476,-0.83553 23.90476,-6.72771 0,-4.62479 -1.62962,-6.18431 -7.03546,-6.73283 -15.68455,-1.59145 -22.39649,-5.62268 -25.43495,-15.27642 -1.62733,-5.17021 -2.19416,-10.45879 -1.25963,-11.75241 3.37294,-4.66901 9.14,-2.20635 10.72661,4.58049 2.32749,9.95607 9.05186,14.99029 16.75206,12.54149 5.25087,-1.66986 6.29755,-3.91012 6.5399,-13.99784 0.15872,-6.60538 1.14906,-13.20094 2.20078,-14.65678 3.72307,-5.15371 9.77866,0.0619 11.57706,9.97111 3.1874,17.56278 3.87337,18.47013 13.96399,18.47013 10.13249,0 12.77525,-2.9996 12.77525,-14.5003 0,-8.27376 3.69986,-10.85305 8.48801,-5.91725 3.97974,4.10244 2.10577,18.91038 -3.06804,24.24375 -1.81222,1.86808 -6.62245,3.41132 -10.68939,3.42942 -14.13342,0.0629 -20.0582,2.62508 -20.0582,8.67444 0,6.41627 1.32156,6.63566 34.79739,5.77629 15.10785,-0.38782 19.04758,0.20994 18.0724,2.74244 -0.80236,2.08358 -7.69167,3.66765 -19.31941,4.44216 -17.42046,1.16035 -18.51557,1.76992 -17.08743,9.51075 0.23217,1.25842 8.04876,3.02625 17.3702,3.92846 20.16098,1.95139 23.20102,4.4415 9.97976,8.17448 -7.38047,2.08386 -12.45557,2.03695 -21.16569,-0.19574 -13.12567,-3.36435 -16.09156,-5.77667 -17.45275,-14.1953 -0.78358,-4.84619 -2.7911,-6.16825 -10.30312,-6.78512 -11.11609,-0.91283 -17.4048,2.8988 -17.4048,10.5492 0,6.58808 -1.71952,7.71762 -14.38404,9.44861 -5.24506,0.71688 -13.81357,1.97249 -19.0411,2.79018 -7.34544,1.14898 -9.21577,0.73077 -8.23317,-1.84101 z"
       id="path3601"
       inkscape:connector-curvature="0" />
  </g>
</svg>
