<?xml version="1.0" standalone="no"?>
<!DOCTYPE svg PUBLIC "-//W3C//DTD SVG 20010904//EN"
 "http://www.w3.org/TR/2001/REC-SVG-20010904/DTD/svg10.dtd">
<svg version="1.0" xmlns="http://www.w3.org/2000/svg"
 width="126.000000pt" height="126.000000pt" viewBox="0 0 126.000000 126.000000"
 preserveAspectRatio="xMidYMid meet">
<metadata>
Created by potrace 1.13, written by Peter Selinger 2001-2015
</metadata>
<g transform="translate(0.000000,126.000000) scale(0.100000,-0.100000)"
fill="#000000" stroke="none">
<path d="M624 1161 c-48 -22 -54 -34 -54 -104 1 -87 39 -113 155 -102 96 9
121 20 129 57 8 42 7 121 -2 134 -25 38 -157 47 -228 15z m64 -48 c-3 -24 -8
-28 -40 -31 -34 -3 -38 -1 -38 21 0 31 7 37 47 37 32 0 34 -2 31 -27z m123 11
c11 -14 10 -18 -6 -31 -32 -23 -69 -13 -73 20 -3 25 -1 27 31 27 20 0 40 -7
48 -16z m-121 -100 c0 -29 -3 -34 -24 -34 -14 0 -30 10 -40 25 -22 33 -20 43
7 47 43 7 57 -2 57 -38z m122 31 c11 -12 -5 -55 -23 -60 -34 -11 -59 4 -59 36
0 27 3 29 38 29 21 0 41 -2 44 -5z"/>
<path d="M296 1112 c-3 -5 6 -15 20 -23 24 -12 25 -17 19 -69 -8 -76 -16 -157
-20 -205 -9 -107 -5 -729 5 -739 27 -27 31 19 35 370 3 333 6 401 21 572 6 61
6 63 32 60 27 -3 27 -3 23 -75 -1 -40 -4 -89 -6 -110 -15 -179 -14 -511 1
-693 10 -110 21 -200 26 -200 5 0 16 7 25 15 15 16 14 86 -2 180 -11 60 -13
711 -3 793 5 45 7 94 4 107 -6 24 -9 25 -91 25 -46 0 -86 -4 -89 -8z"/>
<path d="M800 906 c-69 -25 -93 -123 -41 -167 31 -28 127 -30 166 -5 22 15 25
23 25 81 0 63 -1 66 -32 85 -37 23 -68 24 -118 6z m30 -45 c0 -20 -32 -37 -50
-26 -14 9 11 45 32 45 11 0 18 -8 18 -19z m65 -1 c0 -7 -6 -15 -12 -17 -8 -3
-13 4 -13 17 0 13 5 20 13 18 6 -3 12 -11 12 -18z m-65 -73 c0 -13 -3 -26 -6
-29 -9 -10 -42 3 -48 19 -9 22 2 33 30 33 18 0 24 -5 24 -23z m80 -7 c0 -13
-7 -20 -20 -20 -22 0 -23 1 -14 24 9 23 34 20 34 -4z"/>
<path d="M557 896 c-58 -21 -67 -33 -67 -87 0 -27 5 -49 10 -49 6 0 10 -6 10
-14 0 -40 85 -59 139 -32 48 26 62 57 51 117 -6 28 -10 53 -10 55 0 4 -72 24
-85 24 -5 -1 -27 -7 -48 -14z m11 -53 c-5 -26 -38 -29 -38 -4 0 15 6 21 21 21
14 0 19 -5 17 -17z m80 0 c-5 -26 -38 -29 -38 -4 0 15 6 21 21 21 14 0 19 -5
17 -17z m-73 -61 c8 -20 -8 -34 -28 -26 -16 6 -23 25 -12 36 10 10 34 4 40
-10z m95 6 c0 -16 -30 -48 -46 -48 -15 0 -22 19 -16 43 5 19 62 25 62 5z"/>
<path d="M716 733 c-3 -4 -6 -15 -6 -26 0 -22 -26 -46 -50 -47 -8 0 -28 -11
-44 -23 -23 -19 -28 -29 -23 -48 13 -47 22 -53 100 -58 34 -2 16 -32 -33 -54
-49 -22 -50 -22 -50 -68 0 -39 4 -47 25 -57 14 -7 39 -12 55 -12 23 0 30 -5
30 -20 0 -13 -7 -20 -18 -20 -23 0 -92 -63 -92 -83 0 -9 -4 -19 -10 -22 -11
-7 -14 -125 -2 -125 18 1 29 19 41 69 14 55 67 129 82 114 4 -5 10 -44 14 -88
6 -79 15 -148 19 -152 1 -2 11 3 21 11 16 11 18 27 16 124 -2 103 0 112 17
112 29 0 82 -58 82 -89 0 -11 5 -23 10 -26 6 -3 10 -15 10 -26 0 -29 38 -25
46 6 15 60 -52 155 -127 179 -42 14 -44 38 -4 51 59 20 68 30 68 74 0 52 -21
70 -80 71 -56 0 -58 24 -4 46 39 16 61 47 61 88 0 27 -35 46 -85 46 -25 0 -35
4 -35 16 0 18 -25 46 -34 37z m82 -102 c26 -16 9 -45 -32 -56 -77 -22 -159 15
-112 51 22 15 122 19 144 5z m36 -187 c10 -26 7 -33 -24 -49 -35 -18 -131 -20
-148 -3 -17 17 -15 39 6 54 26 20 158 19 166 -2z"/>
</g>
</svg>
