<?xml version="1.0" encoding="UTF-8" standalone="no"?>
<!-- Created with Inkscape (http://www.inkscape.org/) -->

<svg
   xmlns:dc="http://purl.org/dc/elements/1.1/"
   xmlns:cc="http://creativecommons.org/ns#"
   xmlns:rdf="http://www.w3.org/1999/02/22-rdf-syntax-ns#"
   xmlns:svg="http://www.w3.org/2000/svg"
   xmlns="http://www.w3.org/2000/svg"
   xmlns:sodipodi="http://sodipodi.sourceforge.net/DTD/sodipodi-0.dtd"
   xmlns:inkscape="http://www.inkscape.org/namespaces/inkscape"
   width="300"
   height="300"
   id="svg2"
   version="1.1"
   inkscape:version="0.48.4 r9939"
   sodipodi:docname="image-seal.svg">
  <defs
     id="defs4" />
  <sodipodi:namedview
     id="base"
     pagecolor="#ffffff"
     bordercolor="#666666"
     borderopacity="1.0"
     inkscape:pageopacity="0.0"
     inkscape:pageshadow="2"
     inkscape:zoom="1.979899"
     inkscape:cx="154.88845"
     inkscape:cy="133.61981"
     inkscape:document-units="px"
     inkscape:current-layer="layer1"
     showgrid="false"
     inkscape:window-width="1215"
     inkscape:window-height="1000"
     inkscape:window-x="65"
     inkscape:window-y="24"
     inkscape:window-maximized="1" />
  <metadata
     id="metadata7">
    <rdf:RDF>
      <cc:Work
         rdf:about="">
        <dc:format>image/svg+xml</dc:format>
        <dc:type
           rdf:resource="http://purl.org/dc/dcmitype/StillImage" />
        <dc:title />
      </cc:Work>
    </rdf:RDF>
  </metadata>
  <g
     inkscape:label="Calque 1"
     inkscape:groupmode="layer"
     id="layer1"
     transform="translate(0,-752.36218)">
    <path
       style="fill:#000000"
       d="m 199.34653,1047.6619 c -0.77174,-2.011 -0.39608,-11.461 0.83479,-20.9999 3.50756,-27.18248 -1.87661,-33.09455 -30.15497,-33.11159 -11.09612,-0.007 -17.92495,-1.44088 -23.73869,-4.98559 -7.60253,-4.63533 -8.16157,-5.91463 -8.16157,-18.67677 0,-7.5353 1.14851,-14.41036 2.55222,-15.27791 1.40371,-0.86756 1.99539,-2.47829 1.31484,-3.57946 -0.68055,-1.10114 1.0283,-4.05248 3.79743,-6.55851 3.80439,-3.44292 10.38722,-4.81924 26.9367,-5.63176 12.04603,-0.59141 22.65647,-1.79973 23.57873,-2.68512 0.92229,-0.88539 2.46021,-6.95792 3.41763,-13.49449 1.63572,-11.16732 1.35087,-12.03289 -4.71943,-14.34083 -7.04415,-2.67819 -17.31019,-4.63477 -26.01751,-4.95858 -9.30821,-0.34618 -15.79311,-9.70873 -15.79311,-22.80128 0,-15.99723 -4.06547,-20.97467 -15.39556,-18.84912 l -8.87889,1.66567 -2.96009,19.03991 c -3.24897,20.89826 -4.81965,23.85484 -14.91213,28.0699 -13.395895,5.59474 -17.416205,16.19012 -19.202375,50.60732 -3.522758,67.87931 -4.664974,74.32561 -12.717265,71.77321 -2.337996,-0.7411 -2.137424,-55.92697 0.217223,-59.76276 0.547352,-0.89165 1.461371,-11.62724 2.031147,-23.85686 1.269311,-27.24393 4.10702,-33.83886 19.23784,-44.70928 10.01576,-7.1956 11.9729,-9.97924 12.74435,-18.1262 1.8768,-19.8203 0.16875,-24.75531 -10.14225,-29.30454 -15.726759,-6.93862 -17.186598,-10.04519 -19.147556,-40.74647 -1.532211,-23.98834 -1.210446,-28.3436 2.35766,-31.91171 8.264561,-8.26454 10.707611,-2.97951 12.264431,26.53159 1.26168,23.91571 2.225785,28.71345 6.458845,32.14119 5.55636,4.49927 34.43675,8.50287 55.39589,7.67938 26.05187,-1.02358 30.4751,-6.94858 30.46094,-40.80312 -0.01,-20.73227 4.24119,-31.41062 10.17313,-25.56134 3.86092,3.80713 3.22954,53.52783 -0.79179,62.3537 -2.88178,6.32483 -15.85451,13.67309 -24.13864,13.67309 -10.46979,0 -13.00992,2.67318 -13.00992,13.69133 0,14.40649 5.37781,18.95489 22.4113,18.95489 9.34631,0 15.36612,1.52358 20.52006,5.19349 6.58805,4.69114 7.2927,6.57374 7.28421,19.46217 -0.007,9.79131 -1.57087,16.8297 -4.98559,22.43023 -5.74149,9.41676 -4.05363,8.77184 -25.13999,9.60565 -8.97771,0.35501 -18.2567,0.74037 -20.61999,0.85631 -6.85686,0.33646 -14.53749,10.43587 -14.53749,19.11565 0,10.62958 7.37843,13.74142 32.58211,13.74142 18.04778,0 20.21851,0.54534 24.66326,6.19592 3.24489,4.12518 5.01283,10.62967 5.28995,19.46217 0.22902,7.2964 0.69382,18.2374 1.03313,24.3132 0.37319,6.6834 -0.72325,12.3871 -2.77581,14.4397 -4.40073,4.4007 -7.8637,4.3057 -9.6172,-0.2639 z M 110.7577,839.42572 c -2.27271,-2.73847 -0.24384,-6.14219 9.73751,-16.33579 6.93461,-7.0821 12.60839,-15.05533 12.60839,-17.71825 0,-2.75658 -5.13705,-8.96968 -11.92843,-14.42701 -13.6003,-10.92876 -15.86633,-13.55503 -14.12576,-16.37132 2.90102,-4.69395 10.67165,-1.25886 21.0317,9.29726 6.0999,6.21535 12.72412,11.30062 14.72048,11.30062 1.99637,0 7.89399,-4.61899 13.1058,-10.2644 6.01384,-6.51415 11.14866,-9.91726 14.05392,-9.31424 7.05166,1.46359 4.63564,10.52758 -5.40548,20.2794 -4.86805,4.72779 -8.81322,9.61188 -8.76705,10.85354 0.0462,1.24166 5.13144,7.83706 11.30062,14.65642 12.08868,13.36281 14.44799,21.503 6.23235,21.503 -3.02413,0 -8.70287,-4.8818 -14.43968,-12.41324 -5.20045,-6.82727 -11.10359,-12.47758 -13.11811,-12.55623 -2.01452,-0.0787 -9.05202,5.50728 -15.63889,12.41322 -12.85268,13.47526 -14.92565,14.44894 -19.36737,9.09702 z"
       id="path3002"
       inkscape:connector-curvature="0" />
  </g>
</svg>
