<?xml version="1.0" encoding="UTF-8" standalone="no"?>
<!-- Created with Inkscape (http://www.inkscape.org/) -->

<svg
   xmlns:dc="http://purl.org/dc/elements/1.1/"
   xmlns:cc="http://creativecommons.org/ns#"
   xmlns:rdf="http://www.w3.org/1999/02/22-rdf-syntax-ns#"
   xmlns:svg="http://www.w3.org/2000/svg"
   xmlns="http://www.w3.org/2000/svg"
   xmlns:sodipodi="http://sodipodi.sourceforge.net/DTD/sodipodi-0.dtd"
   xmlns:inkscape="http://www.inkscape.org/namespaces/inkscape"
   version="1.0"
   width="300"
   height="300"
   id="svg2"
   inkscape:version="0.48.3.1 r9886"
   sodipodi:docname="dessin.svg">
  <metadata
     id="metadata2990">
    <rdf:RDF>
      <cc:Work
         rdf:about="">
        <dc:format>image/svg+xml</dc:format>
        <dc:type
           rdf:resource="http://purl.org/dc/dcmitype/StillImage" />
      </cc:Work>
    </rdf:RDF>
  </metadata>
  <sodipodi:namedview
     pagecolor="#ffffff"
     bordercolor="#666666"
     borderopacity="1"
     objecttolerance="10"
     gridtolerance="10"
     guidetolerance="10"
     inkscape:pageopacity="0"
     inkscape:pageshadow="2"
     inkscape:window-width="1215"
     inkscape:window-height="1000"
     id="namedview2988"
     showgrid="false"
     inkscape:zoom="1.5733333"
     inkscape:cx="93.546195"
     inkscape:cy="168.26148"
     inkscape:window-x="65"
     inkscape:window-y="24"
     inkscape:window-maximized="1"
     inkscape:current-layer="svg2" />
  <defs
     id="defs5" />
  <path
     style="fill:#000000"
     d="m 105.86432,289.66317 c -0.87111,-1.28849 -1.51886,-21.78811 -1.43943,-45.55468 0.13131,-39.28827 0.70222,-44.19629 6.2875,-54.05239 6.83663,-12.06427 6.11611,-11.8598 52.55377,-14.91402 33.36533,-2.19445 45.36481,-11.02682 31.05941,-22.86166 -4.66904,-3.86269 -10.82318,-4.44933 -43.53619,-4.15004 -37.86704,0.34644 -53.921019,-1.922 -64.728385,-9.14614 -4.719452,-3.1547 -5.873826,-7.96299 -7.495348,-31.2202 -1.541386,-22.107841 -1.132642,-28.227079 2.087339,-31.249211 3.51529,-3.299293 4.515891,-3.290139 8.197051,0.07501 3.298857,3.015677 3.598323,5.728498 1.40432,12.721816 -1.533763,4.888826 -2.123114,12.361973 -1.309669,16.606993 0.813436,4.24501 1.924654,11.5803 2.469357,16.30062 1.79995,15.59808 4.257209,16.30191 56.327325,16.13384 38.93343,-0.12569 48.10497,0.56389 53.93353,4.05505 10.67625,6.39484 13.06075,14.82334 7.35027,25.98119 -6.81875,13.32333 -11.26744,15.6511 -30.08798,15.74356 -24.72852,0.12147 -52.0884,5.14167 -58.13203,10.66648 -4.72199,4.31663 -5.26597,9.16664 -5.26597,46.9506 0,23.17518 -0.76684,43.96352 -1.7041,46.19628 -1.89432,4.51277 -5.54842,5.29985 -7.97077,1.71689 z m 21.60662,-178.19654 c -6.97814,-6.30745 -8.28677,-18.017204 -3.16249,-28.298303 2.58264,-5.181685 6.31322,-6.831546 20.58412,-9.103372 21.79954,-3.470341 26.92593,-3.464946 42.17146,0.04437 15.43372,3.552638 20.24507,11.892004 15.72143,27.249431 -3.96971,13.47679 -11.23195,16.16435 -43.16072,15.97266 -22.81428,-0.13698 -26.57601,-0.82311 -32.1538,-5.86479 z m 50.43245,-3.31163 c 8.75881,-1.32368 10.93187,-2.9767 13.58909,-10.336916 5.00941,-13.875663 0.86739,-16.261992 -28.22632,-16.261992 -27.72067,0 -31.82149,2.129525 -30.37184,15.77187 0.68429,6.439738 2.53631,8.822078 7.91209,10.177668 9.26268,2.33574 24.2074,2.59734 37.09698,0.64937 z M 59.389831,45.625638 c 0,-4.866405 1.871646,-5.132922 36.046447,-5.132922 35.902692,0 36.059442,-0.02607 39.304552,-6.536911 1.79197,-3.595301 3.25812,-10.44692 3.25812,-15.225818 0,-6.573681 1.43568,-9.1054621 5.89753,-10.4000287 8.36194,-2.4261422 10.50678,0.7036517 11.4883,16.7639937 l 0.86271,14.115534 35.09335,0.628162 c 40.27325,0.720881 47.72696,1.832859 47.72696,7.120117 0,3.277571 -12.36743,3.800796 -89.83898,3.800796 -87.967343,0 -89.838989,-0.106945 -89.838989,-5.132923 z"
     id="path3001"
     inkscape:connector-curvature="0" />
</svg>
