<?xml version="1.0" encoding="UTF-8" standalone="no"?>
<!-- Created with Inkscape (http://www.inkscape.org/) -->

<svg
   xmlns:dc="http://purl.org/dc/elements/1.1/"
   xmlns:cc="http://creativecommons.org/ns#"
   xmlns:rdf="http://www.w3.org/1999/02/22-rdf-syntax-ns#"
   xmlns:svg="http://www.w3.org/2000/svg"
   xmlns="http://www.w3.org/2000/svg"
   xmlns:sodipodi="http://sodipodi.sourceforge.net/DTD/sodipodi-0.dtd"
   xmlns:inkscape="http://www.inkscape.org/namespaces/inkscape"
   width="300"
   height="300"
   id="svg2"
   version="1.1"
   inkscape:version="0.48.3.1 r9886"
   sodipodi:docname="Nouveau document 1">
  <defs
     id="defs4" />
  <sodipodi:namedview
     id="base"
     pagecolor="#ffffff"
     bordercolor="#666666"
     borderopacity="1.0"
     inkscape:pageopacity="0.0"
     inkscape:pageshadow="2"
     inkscape:zoom="1.979899"
     inkscape:cx="69.402142"
     inkscape:cy="194.60782"
     inkscape:document-units="px"
     inkscape:current-layer="layer1"
     showgrid="false"
     inkscape:window-width="1215"
     inkscape:window-height="1000"
     inkscape:window-x="65"
     inkscape:window-y="24"
     inkscape:window-maximized="1" />
  <metadata
     id="metadata7">
    <rdf:RDF>
      <cc:Work
         rdf:about="">
        <dc:format>image/svg+xml</dc:format>
        <dc:type
           rdf:resource="http://purl.org/dc/dcmitype/StillImage" />
        <dc:title></dc:title>
      </cc:Work>
    </rdf:RDF>
  </metadata>
  <g
     inkscape:label="Calque 1"
     inkscape:groupmode="layer"
     id="layer1"
     transform="translate(0,-752.36218)">
    <path
       style="fill:#999999"
       d="m 61.567358,1018.8991 c -7.029268,-2.7763 -12.971001,-7.5455 -14.346262,-11.5151 -1.29114,-3.7268 -2.50258,-23.54682 -2.692087,-44.0444 -0.32109,-34.72924 0.09699,-37.26832 6.136684,-37.26832 4.483729,0 7.142332,2.59185 8.626247,8.40967 1.179752,4.62527 1.282387,9.50404 0.228071,10.84169 -1.054296,1.33761 2.841388,2.43204 8.657083,2.43204 l 10.573994,0 0,-15.95372 c 0,-15.3272 -0.441173,-16.1193 -11.234158,-20.17017 -13.722697,-5.15042 -23.332482,-13.66201 -23.332482,-20.66601 0,-2.87647 -1.555499,-5.98374 -3.456664,-6.90507 -1.901166,-0.92131 -3.456664,-7.7016 -3.456664,-15.06728 0,-11.54226 0.945853,-13.39216 6.847471,-13.39216 7.064122,0 9.545758,5.0852 9.666973,19.80882 0.06605,8.02485 9.259867,18.13711 16.489781,18.13711 5.845855,0 8.475743,-6.34702 8.475743,-20.45554 0,-9.38245 -2.219728,-13.86326 -10.5554,-21.30751 -6.04713,-5.40042 -11.423774,-13.83358 -12.588563,-19.74485 -2.181465,-11.07094 -9.8134,-18.64232 -20.40336,-20.24148 -3.829811,-0.57834 -6.574306,-3.24024 -6.574306,-6.37647 0,-5.07016 3.020108,-5.46493 51.849962,-6.77731 45.442589,-1.22138 48.603739,-1.33238 54.237679,2.68378 0.23008,6.9515 2.06593,2.13304 -0.90629,5.48584 -5.29601,6.10668 -14.25282,8.95216 -17.11611,24.83589 -1.65336,9.17181 -4.34392,17.3983 -5.97904,18.28106 -15.481834,8.35841 -17.8339,10.83058 -18.437882,19.37933 -1.347257,19.06924 0.04341,24.23726 6.52196,24.23726 10.083732,0 14.510832,-5.70108 14.627922,-18.83744 0.0993,-11.12793 5.73663,-21.8189 11.5053,-21.8189 1.21628,0 2.21143,9.78755 2.21143,21.75011 l 0,21.75011 -15.68182,7.38693 c -17.163821,8.08504 -19.886934,12.6578 -18.248087,30.64294 1.409286,15.4659 10.928257,17.00316 12.518737,2.0217 1.40652,-13.24879 9.01203,-18.4078 14.74797,-10.00389 3.04258,4.45778 3.54685,16.16919 1.84271,42.79522 -2.64115,41.26592 -5.12459,45.59862 -29.406231,51.30302 -16.968065,3.9863 -17.135025,3.9776 -31.350311,-1.6369 z m 40.486672,-15.848 c 2.61337,-2.0492 4.35037,-10.52283 4.35037,-21.22253 l 0,-17.81137 -24.586721,0 -24.58672,0 1.388525,19.26847 c 1.0486,14.5513 2.90937,20.14043 7.600855,22.83033 7.1731,4.1128 29.068175,2.24 35.833691,-3.0649 z M 99.715121,836.29905 c 4.007119,-5.87096 5.407439,-23.26373 2.082869,-25.87055 -1.01258,-0.794 -8.010562,-0.62629 -15.551042,0.37262 -12.634895,1.67383 -13.843639,2.59822 -15.414496,11.78839 -1.314794,7.69211 -0.12164,11.05669 5.218332,14.71541 9.320677,6.38614 18.896888,5.97909 23.664337,-1.00587 z M 48.968617,778.51154 c -1.051705,-2.14902 -1.370457,-6.11301 -0.708344,-8.80888 1.070062,-4.35685 5.232135,-4.90156 37.451482,-4.90156 33.943185,0 36.247635,0.34463 36.247635,5.42085 0,3.43751 -2.52938,5.61442 -6.91332,5.94997 -3.80234,0.29102 -17.02408,1.7911 -29.381654,3.33353 -29.915841,3.73399 -34.442031,3.61138 -36.695799,-0.99391 z"
       id="path2996"
       inkscape:connector-curvature="0"
       sodipodi:nodetypes="ssssssscssssssssssssssccsssscsscssssssssscccsssscsssssssssss" />
    <path
       style="fill:#000000"
       d="m 159.02256,1042.903 c -0.94235,-1.9256 1.19789,-12.5979 4.75606,-23.7162 8.34235,-26.06764 9.45619,-87.88791 1.62597,-90.24398 -2.72893,-0.82112 -5.55344,-0.10085 -6.27671,1.60048 -1.96325,4.61827 -24.7525,-1.19006 -26.09361,-6.6505 -1.57183,-6.39986 4.86994,-7.12384 71.89863,-8.08076 l 60.4916,-0.86359 0,6.77606 c 0,6.15956 -1.49193,6.85116 -16.39841,7.60152 -21.79309,1.09698 -24.53982,5.4039 -21.65094,33.94896 2.45006,24.20912 10.89756,60.00451 15.88525,67.31221 5.38877,7.8952 3.86078,16.3212 -2.77787,15.3188 -15.16524,-2.2901 -28.63631,-44.7932 -28.63631,-90.35151 l 0,-22.98829 -11.89432,0 c -6.54188,0 -12.91472,1.2946 -14.16188,2.87689 -1.24715,1.58233 -2.28059,15.91369 -2.29652,31.84748 -0.029,29.03707 -7.46765,69.37433 -13.96459,75.72543 -4.4514,4.3515 -8.34197,4.3096 -10.50635,-0.113 z M 140.49961,802.90597 c 11.23033,8.00557 16.03999,3.40356 16.03999,-15.34742 0,-11.7445 1.43977,-17.471 4.6343,-18.4322 8.47396,-2.54977 11.76406,2.02363 12.16077,16.90407 0.21604,8.1039 1.72689,15.78044 3.35743,17.05897 1.63054,1.27853 13.31825,1.49285 25.9727,0.47625 l 23.00808,-1.84834 0,-18.59867 c 0,-16.64021 0.71061,-18.59867 6.7484,-18.59867 5.86378,0 6.88325,2.22052 7.77749,16.94015 0.99659,16.4051 1.37862,17.02874 12.09566,19.74501 16.16758,4.09776 17.31139,6.2931 5.02813,9.65066 -12.76687,3.48972 -13.37027,5.0514 -16.09858,41.66457 -2.16239,29.01883 -6.51651,36.67908 -20.84858,36.67908 -4.22548,0 -9.73038,1.93468 -12.23314,4.29927 -3.16295,2.98838 -7.70231,3.805 -14.88725,2.67825 -22.90036,-3.59131 -32.33362,-17.60861 -35.5172,-52.77658 -1.98493,-21.92689 -2.93815,-24.42342 -10.33409,-27.06577 -4.57392,-0.56106 -18.661,-3.60563 -6.90411,-13.42863 z m 74.27008,78.47792 c 3.71378,-1.8455 2.83374,-4.56993 -4.36418,-13.51059 -4.9588,-6.15944 -10.27568,-11.19896 -11.8153,-11.19896 -1.5396,0 -7.03773,5.07614 -12.21807,11.2803 -7.28879,8.72929 -8.40477,11.78465 -4.93484,13.51062 5.87009,2.91977 27.39889,2.86726 33.33239,-0.0814 z m -26.91425,-27.80968 c 3.94515,-7.46824 3.67667,-9.72732 -2.17314,-18.28553 -11.72642,-17.15563 -14.35583,-13.34144 -12.40712,17.99764 0.70882,11.39944 8.62792,11.55581 14.58026,0.28789 z m 37.81744,-6.22638 c 0,-17.15793 -4.30016,-21.13677 -10.38818,-9.612 -3.40135,6.43882 -3.39763,9.76189 0.0183,16.2281 6.48834,12.2826 10.36998,9.80608 10.36998,-6.6161 z m -14.69082,-21.83888 c 4.27762,-5.1782 7.77749,-10.11202 7.77749,-10.96399 0,-0.85199 -6.61087,-1.17401 -14.69082,-0.71563 -13.24892,0.75166 -14.59982,1.47713 -13.76358,7.39138 0.92341,6.53089 6.60197,13.80056 10.73016,13.7367 1.19309,-0.019 5.66913,-4.27027 9.94675,-9.44846 z"
       id="path2996-7"
       inkscape:connector-curvature="0"
       sodipodi:nodetypes="ssscsscsssscscscssscssssscsssssssssscccssssccsssscscccsssscs" />
  </g>
</svg>
