<?xml version="1.0" encoding="UTF-8" standalone="no"?>
<!-- Created with Inkscape (http://www.inkscape.org/) -->

<svg
   xmlns:dc="http://purl.org/dc/elements/1.1/"
   xmlns:cc="http://creativecommons.org/ns#"
   xmlns:rdf="http://www.w3.org/1999/02/22-rdf-syntax-ns#"
   xmlns:svg="http://www.w3.org/2000/svg"
   xmlns="http://www.w3.org/2000/svg"
   xmlns:sodipodi="http://sodipodi.sourceforge.net/DTD/sodipodi-0.dtd"
   xmlns:inkscape="http://www.inkscape.org/namespaces/inkscape"
   version="1.0"
   width="300"
   height="300"
   id="svg2"
   inkscape:version="0.48.4 r9939"
   sodipodi:docname="dessin.svg">
  <metadata
     id="metadata2990">
    <rdf:RDF>
      <cc:Work
         rdf:about="">
        <dc:format>image/svg+xml</dc:format>
        <dc:type
           rdf:resource="http://purl.org/dc/dcmitype/StillImage" />
      </cc:Work>
    </rdf:RDF>
  </metadata>
  <sodipodi:namedview
     pagecolor="#ffffff"
     bordercolor="#666666"
     borderopacity="1"
     objecttolerance="10"
     gridtolerance="10"
     guidetolerance="10"
     inkscape:pageopacity="0"
     inkscape:pageshadow="2"
     inkscape:window-width="1215"
     inkscape:window-height="1000"
     id="namedview2988"
     showgrid="false"
     inkscape:zoom="1.5733334"
     inkscape:cx="223.11917"
     inkscape:cy="168.6737"
     inkscape:window-x="65"
     inkscape:window-y="24"
     inkscape:window-maximized="1"
     inkscape:current-layer="svg2" />
  <defs
     id="defs5" />
  <path
     style="fill:#000000"
     d="m 179.24008,225.86095 c 0,-31.63241 0.87443,-50.57818 -1.04368,-56.71712 -27.58546,-0.25824 -17.85082,43.41804 -17.99889,52.10134 -0.74777,41.15217 -2.88781,52.91806 -8.69426,47.80062 -4.12775,-3.63796 -5.94147,-38.67608 -3.50231,-67.65937 2.81101,-33.40234 6.77368,-42.96507 30.62733,-42.71626 -0.66645,-4.35169 -0.93163,-7.20993 0.0838,-15.17127 0,0 -24.42399,-0.20164 -40.93888,0.0295 l -30.02711,0.42007 0.32133,16.19416 c 25.36864,1.70402 20.80511,26.48396 21.0555,41.07364 0.21249,14.16963 1.19855,26.47863 2.19101,27.35335 0.99249,0.8747 0.68588,4.18348 -0.68136,7.35284 -1.3672,3.1694 -2.10958,10.41849 -1.64966,16.10911 0.53975,6.67859 -0.61915,11.41113 -3.26897,13.3493 -7.19,5.25913 -8.00703,-1.5619 -8.94939,-44.95364 -0.53379,-24.57845 6.91538,-47.17272 -9.08019,-46.18192 -0.36933,5.23542 0.0617,2.57661 0.0617,26.01984 0,14.33959 -0.83902,38.15727 -1.86445,52.92817 -1.65553,23.84698 -2.45659,26.85614 -7.149309,26.85614 -6.501094,0 -6.521656,3.73632 -5.415543,-56.07865 0.526355,-28.4635 -0.600313,-41.56529 -0.60915,-50.06086 -16.193495,0 -12.029454,12.07637 -13.736336,46.23485 -1.867657,37.37655 -5.643721,47.75271 -10.278387,49.11427 -5.371045,1.57792 -5.868925,-4.29749 -4.115228,-48.56325 1.891535,-47.74468 5.946879,-57.58871 28.547872,-58.95842 0.428157,-8.50849 0.321918,-6.91944 0.321918,-17.78893 l -17.368012,0 c -14.997332,0 -17.238039,-0.60204 -16.415641,-4.41068 0.751308,-3.47924 4.419017,-4.5703 17.368042,-5.16655 8.464896,-0.38977 14.155801,-1.00336 17.050586,-0.40064 0.137835,-6.56155 1.320904,-9.89985 1.403177,-15.34135 -9.370511,0.97695 -46.342382,6.81849 -47.79372,3.48986 0,-4.18795 6.681085,-8.4153 13.299943,-8.4153 8.618375,0 26.23507,-3.06106 34.72204,-4.04318 -0.114095,-1.9249 1.729337,-3.39623 1.047718,-7.33119 -4.480185,-0.29551 -9.462538,1.29281 -20.47247,1.29281 -11.009934,0 -20.018062,-0.90734 -20.018062,-2.01631 0,-5.214806 8.287649,-8.065246 23.449729,-8.065246 9.480181,0 13.88733,-1.069141 17.231695,-1.042576 -0.216196,-1.321797 0.945106,-7.954023 0.945106,-9.404759 -3.180816,0.07562 -4.268966,0.247754 -10.166031,-0.89373 -12.615301,-2.441973 -17.16183,-9.93544 -17.16183,-28.285729 0,-14.141464 0.607404,-15.821725 5.719445,-15.821725 4.651968,0 5.772636,1.764002 6.004503,9.451459 0.461473,15.300505 3.58778,21.970583 10.723102,22.878074 6.31244,0.802845 6.435923,0.402355 4.662977,-15.122328 C 95.196872,33.558117 95.273513,33.679032 81.970907,30.522053 68.25496,27.266981 68.219271,22.597699 81.891398,20.133232 c 12.277788,-2.213115 25.070812,1.813282 27.699992,8.718133 1.14352,3.003121 1.71952,13.201437 1.28004,22.662929 l -0.79903,17.202712 8.13088,-0.820185 c 7.6342,-0.770082 8.1832,-1.615955 8.98722,-13.847026 0.50445,-7.674158 2.61058,-14.310006 5.1257,-16.149688 7.29739,-5.337654 9.75726,0.579488 7.82444,18.82148 -1.67142,15.774921 -2.55839,17.599833 -10.6744,21.961643 -5.65604,2.933277 -15.50387,5.667346 -19.08774,5.633648 0,1.316803 -1.20775,7.238682 -0.30276,7.375439 16.00848,-0.319258 69.1724,-1.087121 69.1724,-1.087121 0,0 1.12694,-6.684751 1.12694,-9.353337 -3.86245,-0.24725 -4.9738,-1.115575 -9.90888,-1.985488 -12.45672,-2.195711 -17.45952,-10.253868 -16.40818,-26.429123 0.67747,-10.423249 1.99604,-13.625778 5.87791,-14.276185 4.18374,-0.700987 5.00451,1.079094 5.00451,10.85374 0,13.870336 1.67253,21.642662 15.94138,21.642662 1.53481,-7.082727 9.89448,-39.361058 -10.11909,-43.046854 -7.08331,0 -10.56405,-4.962785 -5.47374,-7.804361 6.59631,-3.68227 15.64276,-2.551531 23.57343,2.946513 7.01745,4.86493 7.53498,6.607499 7.53498,25.371297 l -1.3632,22.150029 9.22744,-2.799947 c 6.82707,-2.071575 7.99438,-1.905112 9.34502,-13.39945 2.30615,-19.625657 8.3407,-23.774525 14.34285,-9.860962 3.22945,7.486261 -0.91105,28.613312 -6.16899,31.477306 -2.10004,1.143877 -20.71206,3.803468 -26.6424,4.68651 -0.4685,2.466251 -0.13723,5.525726 0.10211,8.55062 13.19239,-0.753923 36.46927,6.876427 35.8429,19.008014 9.92559,1.58939 17.92598,10.90827 16.78932,20.67291 0,9.02116 1.72565,13.76649 -5.55564,5.60825 -7.23298,-8.10414 -0.4204,-11.89823 -12.08986,-15.73097 0.84929,12.37103 -25.97328,23.41959 -35.93572,23.98594 0.0257,5.09736 0.21048,7.35051 0.21048,14.60854 13.77101,1.02455 22.54334,3.96047 27.22182,13.88876 1.55913,3.63227 2.85136,27.22366 2.87161,52.42531 0.0304,37.85517 -0.71531,46.37128 -4.28936,48.98551 -3.50316,2.56238 -4.82034,2.47597 -6.9241,-0.45418 -3.16034,-4.40178 -3.16603,-4.50997 -2.70923,-51.57335 0.39552,-40.75294 -1.35238,-51.88371 -16.19114,-51.88371 -0.99496,16.666 -1.41258,45.40827 -2.42707,65.81329 -2.07268,41.15337 -3.53714,47.72044 -10.67029,47.84881 -1.17964,0.0202 -2.14479,-25.48036 -2.14479,-56.67016 z m 0.45441,-109.63691 c -23.04716,0.89983 -50.09259,-0.18273 -70.04351,2.21635 -0.32477,5.37093 -0.65081,10.22762 -0.65081,15.70956 22.87778,0 47.36214,-0.28319 70.23991,-0.28319 0,-5.88089 0.45441,-11.76182 0.45441,-17.64272 z m 36.67858,0.53848 c -5.70666,-0.31409 -10.98517,0.0622 -20.8441,0.0622 -0.35543,6.20752 -0.17271,9.45055 -0.17271,16.1716 10.6785,0.24574 21.15245,-7.19607 21.01675,-16.23385 z M 179.24008,98.816267 c -18.06054,-0.561313 -44.02737,0.05901 -68.40614,2.430993 0,1.27912 -1.49861,6.11932 0.0143,8.0447 22.36817,-1.39453 53.78104,1.30869 68.39193,-1.26453 z m 35.67989,9.393283 c 1.59042,-9.188475 -12.69252,-10.228966 -19.69695,-10.228966 -0.23221,3.404146 -0.0938,6.167666 -0.0938,10.046846 6.94392,0.56278 11.19267,0.22583 19.79085,0.18223 z"
     id="path3014"
     inkscape:connector-curvature="0"
     sodipodi:nodetypes="cccssccsccccsssscssssccssccssscccsccsssccsssssssssscsssscccccssssccssscssssccccsccccssssccccccccccccccccccccccccc" />
</svg>
