<?xml version="1.0" encoding="UTF-8" standalone="no"?>
<!-- Created with Inkscape (http://www.inkscape.org/) -->

<svg
   xmlns:dc="http://purl.org/dc/elements/1.1/"
   xmlns:cc="http://creativecommons.org/ns#"
   xmlns:rdf="http://www.w3.org/1999/02/22-rdf-syntax-ns#"
   xmlns:svg="http://www.w3.org/2000/svg"
   xmlns="http://www.w3.org/2000/svg"
   xmlns:sodipodi="http://sodipodi.sourceforge.net/DTD/sodipodi-0.dtd"
   xmlns:inkscape="http://www.inkscape.org/namespaces/inkscape"
   width="300"
   height="300"
   id="svg2"
   version="1.1"
   inkscape:version="0.48.4 r9939"
   sodipodi:docname="image-seal.svg">
  <defs
     id="defs4" />
  <sodipodi:namedview
     id="base"
     pagecolor="#ffffff"
     bordercolor="#666666"
     borderopacity="1.0"
     inkscape:pageopacity="0.0"
     inkscape:pageshadow="2"
     inkscape:zoom="1.979899"
     inkscape:cx="210.04556"
     inkscape:cy="155.71586"
     inkscape:document-units="px"
     inkscape:current-layer="layer1"
     showgrid="false"
     inkscape:window-width="1215"
     inkscape:window-height="1000"
     inkscape:window-x="65"
     inkscape:window-y="24"
     inkscape:window-maximized="1" />
  <metadata
     id="metadata7">
    <rdf:RDF>
      <cc:Work
         rdf:about="">
        <dc:format>image/svg+xml</dc:format>
        <dc:type
           rdf:resource="http://purl.org/dc/dcmitype/StillImage" />
        <dc:title />
      </cc:Work>
    </rdf:RDF>
  </metadata>
  <g
     inkscape:label="Calque 1"
     inkscape:groupmode="layer"
     id="layer1"
     transform="translate(0,-752.36218)">
    <path
       style="fill:#000000"
       d="m 218.01144,1045.6518 c -2.04156,-2.0416 -0.0506,-141.0345 2.51372,-175.49036 2.40665,-32.33685 1.29732,-78.73573 -2.03116,-84.95505 -5.5245,-10.32262 -21.52495,-14.19379 -60.17425,-14.5586 -38.01522,-0.35885 -59.939034,3.47852 -66.748174,11.68303 -2.43084,2.92899 -3.72301,16.45882 -4.06343,42.5465 -0.61859,47.40498 -3.05149,121.4651 -5.27626,160.61404 -0.92315,16.24464 -1.56286,33.05654 -1.42157,37.35974 0.29848,9.0908 -4.27601,18.8986 -8.81444,18.8986 -2.30156,0 -2.57405,-31.8631 -1.0164,-118.84592 1.17057,-65.36534 2.45566,-122.64352 2.85577,-127.28484 0.85938,-9.96895 6.98804,-23.90986 10.51114,-23.90986 1.36345,0 5.02965,-2.37628 8.14707,-5.2806 9.185374,-8.55747 32.968774,-10.73282 86.198814,-7.88412 54.43935,2.91338 58.0422,7.672 55.87177,73.79509 -0.80972,24.66988 -2.25045,81.56297 -3.20158,126.42912 -0.95114,44.86613 -2.22888,83.15693 -2.83942,85.09083 -1.15986,3.6737 -7.54185,4.762 -10.5116,1.7924 z M 99.369622,874.12167 c -4.274486,-3.12558 -4.553166,-4.53423 -1.600716,-8.09168 5.402524,-6.50967 99.686304,-6.36112 106.214764,0.16737 6.92756,6.92753 0.14065,9.42034 -27.37991,10.05646 -13.15043,0.30396 -34.74334,0.80008 -47.98428,1.10246 -16.48967,0.3766 -25.70496,-0.6425 -29.249858,-3.23458 z m 52.114468,-56.69961 c -40.79014,-0.8065 -50.8293,-2.68072 -50.8293,-9.48938 0,-1.35768 22.82441,-2.46851 50.72091,-2.46851 43.9115,0 50.95296,0.60458 52.44901,4.50327 1.53617,4.00319 -3.88158,10.40189 -7.53048,8.89399 -0.77355,-0.31969 -20.93812,-0.96739 -44.81014,-1.43937 z"
       id="path3119"
       inkscape:connector-curvature="0" />
  </g>
</svg>
