<?xml version="1.0" encoding="UTF-8" standalone="no"?>
<!-- Created with Inkscape (http://www.inkscape.org/) -->
<svg
   xmlns:dc="http://purl.org/dc/elements/1.1/"
   xmlns:cc="http://web.resource.org/cc/"
   xmlns:rdf="http://www.w3.org/1999/02/22-rdf-syntax-ns#"
   xmlns:svg="http://www.w3.org/2000/svg"
   xmlns="http://www.w3.org/2000/svg"
   xmlns:sodipodi="http://sodipodi.sourceforge.net/DTD/sodipodi-0.dtd"
   xmlns:inkscape="http://www.inkscape.org/namespaces/inkscape"
   id="svg2211"
   sodipodi:version="0.32"
   inkscape:version="0.45.1"
   width="300"
   height="300"
   version="1.0"
   sodipodi:docbase="/home/michelet/Images/Temp"
   sodipodi:docname="内-seal.svg"
   inkscape:output_extension="org.inkscape.output.svg.inkscape">
  <metadata
     id="metadata2216">
    <rdf:RDF>
      <cc:Work
         rdf:about="">
        <dc:format>image/svg+xml</dc:format>
        <dc:type
           rdf:resource="http://purl.org/dc/dcmitype/StillImage" />
      </cc:Work>
    </rdf:RDF>
  </metadata>
  <defs
     id="defs2214" />
  <sodipodi:namedview
     inkscape:window-height="941"
     inkscape:window-width="1269"
     inkscape:pageshadow="2"
     inkscape:pageopacity="0.0"
     guidetolerance="10.0"
     gridtolerance="10.0"
     objecttolerance="10.0"
     borderopacity="1.0"
     bordercolor="#666666"
     pagecolor="#ffffff"
     id="base"
     width="300px"
     height="300px"
     inkscape:zoom="2"
     inkscape:cx="31"
     inkscape:cy="156.5"
     inkscape:window-x="0"
     inkscape:window-y="27"
     inkscape:current-layer="svg2211" />
  <path
     style="fill:#000000"
     d="M 256.7198,290.1244 C 243.74666,278.71702 244.62249,218.43892 244.10476,205.37188 C 243.90135,190.30335 243.40483,180.47432 230.62212,176.37305 C 207.57506,168.97852 183.05962,155.86667 157.07278,153.78062 L 77.82133,182.15988 L 78.459971,226.95648 C 79.1246,273.57602 75.311446,289.21702 63.281343,289.21702 C 50.457202,289.21702 49.244911,279.84818 51.348066,196.99409 C 54.981328,151.44474 38.836444,93.78868 86.692859,71.768551 L 145.33049,64.872457 L 146.41796,42.706677 C 148.7887,22.944787 148.5229,19.953168 158.14985,20.540897 C 167.77679,21.128626 173.25443,25.1174 173.41804,47.408509 C 173.53921,63.916529 171.96123,59.318593 172.6104,65.574616 C 193.52529,69.334503 215.30109,70.021423 236.01118,72.766986 C 257.58862,76.167757 265.71332,97.990612 266.71135,155.22724 C 267.1074,177.94032 268.02943,201.96445 268.76028,208.61418 C 277.13564,284.81681 275.54636,295.57565 256.7198,290.1244 z M 141.80514,134.72825 L 145.33049,83.679785 C 93.926308,87.490423 75.452749,109.81291 76.897951,162.43924 C 95.283799,157.43299 129.35829,149.46227 141.80514,134.72825 z M 239.378,150.63538 C 242.96085,100.37223 229.58203,84.812392 179.96414,84.478503 L 169.66766,85.380089 C 171.26046,105.48869 162.23325,127.59256 181.18746,139.86293 C 198.83458,146.62097 216.05868,160.22387 235.14707,161.97823 C 237.18232,161.53315 239.08623,156.42886 239.378,150.63538 z "
     id="path2220"
     sodipodi:nodetypes="ccscccsccccssccssccccccccccc" />
</svg>
