<?xml version="1.0" encoding="UTF-8" standalone="no"?>
<svg
   xmlns:dc="http://purl.org/dc/elements/1.1/"
   xmlns:cc="http://creativecommons.org/ns#"
   xmlns:rdf="http://www.w3.org/1999/02/22-rdf-syntax-ns#"
   xmlns:svg="http://www.w3.org/2000/svg"
   xmlns="http://www.w3.org/2000/svg"
   version="1.1"
   id="svg508"
   width="300"
   height="300"
   viewBox="0 0 300 300">
  <metadata
     id="metadata514">
    <rdf:RDF>
      <cc:Work
         rdf:about="">
        <dc:format>image/svg+xml</dc:format>
        <dc:type
           rdf:resource="http://purl.org/dc/dcmitype/StillImage" />
        <dc:title></dc:title>
      </cc:Work>
    </rdf:RDF>
  </metadata>
  <defs
     id="defs512" />
  <path
     style="fill:#000000;stroke-width:0.6912573"
     d="m 191.51259,265.21107 c -6.15224,-22.43057 -5.58339,-43.88122 -5.79484,-65.61406 l -0.52531,-53.99269 c -0.49999,-24.55885 -10.91436,-28.97195 -34.85092,-29.16228 -23.04751,-0.18326 -35.90192,5.39257 -36.0221,28.7544 l -0.29222,56.80266 c -0.12383,24.07093 0.15321,43.96712 -3.57681,60.51 -3.73035,16.54436 -7.46514,23.53672 -12.766505,22.36141 -5.417819,-1.20113 -3.578716,-7.73314 -0.353682,-22.60686 4.355887,-20.0892 4.156857,-22.32656 4.768697,-59.54408 l 0.94479,-57.47072 c 0.50467,-30.69874 16.41229,-40.31457 41.75574,-40.8594 L 144.6317,90.422874 c -0.34983,-29.129768 15.43152,-34.08729 35.92175,-34.16204 l 18.44479,-0.06729 c -0.56461,-28.645525 -7.0474,-29.35159 -50.22214,-29.42471 -44.48532,-0.07534 -46.94228,0.527836 -47.99322,56.694863 -0.2174,11.618663 -0.899286,18.248493 -5.954979,18.342643 -4.890308,0.0911 -5.503654,-4.409345 -5.43724,-18.232124 0.305058,-63.49195 5.584822,-68.67543 60.074259,-68.572767 56.54515,0.106535 61.08541,4.74192 61.14866,67.227102 0.0108,10.615932 -0.27541,18.800249 -5.49081,18.835529 -6.1069,0.0414 -6.16033,-9.136021 -6.18475,-18.81717 l -0.036,-14.268022 -17.61076,0.140098 c -20.81861,0.165617 -25.04811,4.943962 -25.02723,21.350752 l 0.019,14.928272 c 23.92769,0.795 40.4478,10.06986 40.78579,40.35668 l 0.59275,53.11448 c 0.24492,21.94672 -0.7884,40.74379 4.41994,60.5531 2.25682,8.58358 7.38096,24.24956 1.27765,26.40323 -5.49621,1.93945 -9.97282,-12.78289 -11.84657,-19.61443 z"
     id="path518" />
</svg>
