<?xml version="1.0" encoding="UTF-8" standalone="no"?>
<!-- Created with Inkscape (http://www.inkscape.org/) -->

<svg
   xmlns:dc="http://purl.org/dc/elements/1.1/"
   xmlns:cc="http://creativecommons.org/ns#"
   xmlns:rdf="http://www.w3.org/1999/02/22-rdf-syntax-ns#"
   xmlns:svg="http://www.w3.org/2000/svg"
   xmlns="http://www.w3.org/2000/svg"
   xmlns:sodipodi="http://sodipodi.sourceforge.net/DTD/sodipodi-0.dtd"
   xmlns:inkscape="http://www.inkscape.org/namespaces/inkscape"
   width="300"
   height="300"
   id="svg2"
   version="1.1"
   inkscape:version="0.48.4 r9939"
   sodipodi:docname="image-seal.svg">
  <defs
     id="defs4" />
  <sodipodi:namedview
     id="base"
     pagecolor="#ffffff"
     bordercolor="#666666"
     borderopacity="1.0"
     inkscape:pageopacity="0.0"
     inkscape:pageshadow="2"
     inkscape:zoom="2.0018437"
     inkscape:cx="123.3515"
     inkscape:cy="143.3195"
     inkscape:document-units="px"
     inkscape:current-layer="layer1"
     showgrid="false"
     inkscape:window-width="1215"
     inkscape:window-height="1000"
     inkscape:window-x="65"
     inkscape:window-y="24"
     inkscape:window-maximized="1"
     fit-margin-top="10"
     fit-margin-left="10"
     fit-margin-right="10"
     fit-margin-bottom="10" />
  <metadata
     id="metadata7">
    <rdf:RDF>
      <cc:Work
         rdf:about="">
        <dc:format>image/svg+xml</dc:format>
        <dc:type
           rdf:resource="http://purl.org/dc/dcmitype/StillImage" />
        <dc:title />
      </cc:Work>
    </rdf:RDF>
  </metadata>
  <g
     inkscape:label="Calque 1"
     inkscape:groupmode="layer"
     id="layer1"
     transform="translate(0,-752.36218)">
    <path
       style="fill:#000000"
       d="m 215.77898,1019.8857 c -1.59642,-15.1121 -3.0387,-46.45454 -3.20507,-69.64985 -0.43387,-60.49387 -0.4144,-60.4225 -19.05609,-69.81296 -8.43464,-4.2488 -15.71912,-8.68193 -16.1877,-9.85138 -0.46861,-1.16948 -2.19388,-2.12901 -3.83394,-2.13231 -1.64008,-0.003 -7.00759,-3.45113 -11.92781,-7.66186 -4.92021,-4.21074 -10.19408,-7.65857 -11.71968,-7.66187 -1.5256,-0.003 -7.88382,4.88226 -14.12935,10.85681 -14.89646,14.25013 -28.42713,24.8161 -31.85347,24.87407 -1.51216,0.0256 -5.106857,2.63443 -7.988205,5.79742 -4.71549,5.17643 -5.42975,10.47442 -7.15029,53.03612 -1.05132,26.00687 -2.28669,53.03611 -2.74528,60.06501 -0.45859,7.0289 -0.89198,16.5179 -0.96311,21.0867 -0.10326,6.6263 -1.18857,8.3068 -5.36521,8.3068 -5.20437,0 -5.22819,-0.5576 -3.9603,-92.65345 1.44278,-104.79927 2.13877,-118.8474 6.39756,-129.12903 3.61126,-8.71837 12.56501,-12.32191 36.700575,-14.77067 9.50855,-0.96472 18.03831,-2.96765 18.95503,-4.45094 0.91675,-1.4833 2.18264,-10.26151 2.81312,-19.50712 1.19951,-17.59069 4.50848,-22.90082 10.52344,-16.8878 2.535,2.53418 3.4237,9.19636 3.05996,22.93921 l -0.51262,19.36779 7.16386,-0.4955 c 3.94011,-0.27251 17.14964,-0.28514 29.35446,-0.0281 21.387,0.45053 22.38349,0.73839 27.51831,7.94956 5.77565,8.11118 5.01803,-5.53559 9.23373,166.32301 0.7069,28.81844 1.42983,54.12244 1.60649,56.23104 0.88483,10.5619 -0.71988,15.3358 -5.15498,15.3358 -4.05416,0 -5.05407,-3.6277 -7.57343,-27.4766 z M 114.16014,867.89568 c 17.23932,-15.36517 26.49805,-32.95908 24.83611,-47.19481 l -1.05952,-9.07557 -10.54879,1.76972 c -32.853865,5.51177 -30.631717,4.55868 -33.002215,14.15487 -1.21544,4.92022 -2.74443,19.00993 -3.39779,31.31048 -1.08582,20.44203 -0.78368,22.36463 3.51455,22.36463 2.586368,0 11.432305,-5.9982 19.657655,-13.32932 z m 93.95291,-2.64542 c 1.51949,-4.47704 -0.10479,-48.34353 -1.85486,-50.0936 -0.79033,-0.79033 -12.29571,-1.91188 -25.56755,-2.49234 l -24.13061,-1.0554 -2.60775,6.85891 c -3.81653,10.03824 -3.26268,13.54443 3.14317,19.89754 3.163,3.13695 6.93475,8.02522 8.38165,10.86282 2.59026,5.07981 10.40188,9.88189 25.48479,15.66638 10.50802,4.02998 15.86641,4.14109 17.15116,0.35569 z m -66.99234,126.65736 c -16.82817,-1.0449 -24.02625,-4.32399 -27.8332,-12.67934 -1.66216,-3.64799 -2.83829,-21.53714 -2.83829,-43.17045 0,-33.86897 0.3826,-36.94113 4.60073,-36.94113 7.45892,0 10.27865,4.88778 8.8716,15.3782 l -1.31364,9.79374 23.95316,-0.44517 23.95315,-0.44517 0.77257,-13.41878 c 0.64042,-11.12378 1.58927,-13.41878 5.54781,-13.41878 5.52892,0 8.14939,8.76957 7.73458,25.88421 -0.14901,6.14746 -0.16946,21.04325 -0.0455,33.10177 0.12397,12.05852 -0.45048,23.68616 -1.2767,25.8392 -3.17473,8.27325 -18.14022,12.01111 -42.12637,10.5217 z m 22.02405,-15.5379 c 4.23057,-2.30325 5.79942,-6.38498 7.19484,-18.71886 0.98152,-8.67533 0.84002,-16.71785 -0.31443,-17.8723 -1.15445,-1.15443 -11.58076,-2.88974 -23.1696,-3.8562 l -21.0706,-1.75722 0,19.89437 c 0,15.21419 0.95373,20.59179 4.05413,22.85885 5.08464,3.71797 26.10486,3.37172 33.30566,-0.54864 z"
       id="path3002"
       inkscape:connector-curvature="0" />
  </g>
</svg>
