<?xml version="1.0" encoding="UTF-8" standalone="no"?>
<svg
   xmlns:dc="http://purl.org/dc/elements/1.1/"
   xmlns:cc="http://creativecommons.org/ns#"
   xmlns:rdf="http://www.w3.org/1999/02/22-rdf-syntax-ns#"
   xmlns:svg="http://www.w3.org/2000/svg"
   xmlns="http://www.w3.org/2000/svg"
   xmlns:sodipodi="http://sodipodi.sourceforge.net/DTD/sodipodi-0.dtd"
   xmlns:inkscape="http://www.inkscape.org/namespaces/inkscape"
   sodipodi:docname="2333.svg"
   inkscape:version="1.0 (4035a4fb49, 2020-05-01)"
   id="svg8"
   version="1.1"
   viewBox="0 0 79.374998 79.375002"
   height="300"
   width="300">
  <defs
     id="defs2" />
  <sodipodi:namedview
     inkscape:window-maximized="0"
     inkscape:window-y="0"
     inkscape:window-x="376"
     inkscape:window-height="1002"
     inkscape:window-width="1184"
     units="px"
     showgrid="false"
     inkscape:document-rotation="0"
     inkscape:current-layer="layer1"
     inkscape:document-units="mm"
     inkscape:cy="212.80914"
     inkscape:cx="248.2757"
     inkscape:zoom="1.3062462"
     inkscape:pageshadow="2"
     inkscape:pageopacity="0.0"
     borderopacity="1.0"
     bordercolor="#666666"
     pagecolor="#ffffff"
     id="base" />
  <metadata
     id="metadata5">
    <rdf:RDF>
      <cc:Work
         rdf:about="">
        <dc:format>image/svg+xml</dc:format>
        <dc:type
           rdf:resource="http://purl.org/dc/dcmitype/StillImage" />
        <dc:title></dc:title>
      </cc:Work>
    </rdf:RDF>
  </metadata>
  <g
     id="layer1"
     inkscape:groupmode="layer"
     inkscape:label="图层 1">
    <path
       id="path72"
       d="m 24.369715,75.049862 c -0.362687,-1.65124 -0.347638,-6.10672 0.03328,-9.90109 0.77392,-7.70634 0.08878,-8.8852 -4.617025,-7.94404 -2.81649,0.56329 -6.078449,-1.18533 -5.116036,-2.74255 0.294874,-0.47709 2.711295,-0.86745 5.36985,-0.86745 4.696562,0 4.833736,-0.0816 4.833736,-2.87582 0,-2.61575 -0.331036,-2.903289 -3.660467,-3.179458 -2.558194,-0.212199 -3.75817,-0.819169 -3.984911,-2.015641 -0.264297,-1.394608 0.386846,-1.712016 3.512068,-1.712016 3.566448,0 3.944535,-0.274984 5.37102,-3.906469 1.584259,-4.033134 4.438155,-5.876478 9.098065,-5.876478 1.31013,0 2.382049,-0.44023 2.382049,-0.978292 0,-0.538062 -1.442857,-0.978294 -3.206353,-0.978294 -4.388048,0 -7.353572,-2.334392 -8.113852,-6.387033 -0.621258,-3.311584 -0.752862,-3.395912 -5.299884,-3.395912 -2.707276,0 -5.119774,-0.550608 -5.752403,-1.312878 -1.609263,-1.939041 -0.356512,-2.600299 4.926244,-2.600299 4.582059,0 4.728424,-0.08918 4.728424,-2.88128 0,-2.742424 -0.223512,-2.895652 -4.638098,-3.179456 -3.494768,-0.22466 -4.718242,-0.720201 -4.963204,-2.010189 -0.274576,-1.4459408 0.436633,-1.7120158 4.576114,-1.7120158 4.814503,0 4.906644,-0.05628 5.207777,-3.179457 0.41638,-4.318472 3.131618,-4.318472 3.547998,0 l 0.30656,3.179457 h 10.699252 10.699258 v -2.815098 c 0,-3.407914 2.378664,-5.91521999 3.309774,-3.488771 0.33189,0.864832 0.6034,2.640552 0.6034,3.946046 0,2.185997 0.34834,2.360449 4.40659,2.206947 4.89249,-0.185059 5.89498,0.323161 5.03876,2.5544188 -0.40419,1.053319 -1.91926,1.509633 -5.01232,1.509633 -3.17465,0 -4.43303,0.393842 -4.43303,1.387433 0,0.763082 -0.26722,2.083779 -0.59382,2.934882 -0.4975,1.29648 0.28645,1.54745 4.83374,1.54745 5.4252,0 7.96599,1.419075 5.42378,3.029281 -0.74151,0.469667 -3.43931,0.860677 -5.9951,0.868918 -4.3227,0.01405 -4.6469,0.18872 -4.6469,2.505184 0,3.694919 -4.080448,7.292739 -8.271025,7.292739 -1.907677,0 -3.468497,0.440232 -3.468497,0.978294 0,0.538062 1.210636,0.984785 2.690307,0.992717 4.290341,0.02291 7.486473,2.187927 8.682025,5.880851 0.93159,2.877564 1.60642,3.446704 4.40232,3.712845 6.30759,0.600414 5.94337,4.038362 -0.4315,4.07302 -2.42577,0.01331 -2.71827,0.33673 -2.44574,2.705291 0.28415,2.46943 0.69607,2.71499 5.01738,2.99097 3.80603,0.24308 4.64762,0.61786 4.39353,1.95659 -0.23246,1.22473 -1.52204,1.73357 -4.9524,1.9541 l -4.6381,0.29816 v 10.21849 c 0,8.0821 -0.28493,10.21849 -1.36278,10.21849 -2.061298,0 -2.550394,-2.26668 -2.550394,-11.81954 v -8.72464 H 39.547934 28.786695 v 4.25882 c 0,8.36995 -1.218692,16.28536 -2.507366,16.28536 -0.687695,0 -1.54708,-1.351 -1.909752,-3.00224 z M 34.53431,52.983302 c 2.394249,-0.47885 3.057171,-1.11525 3.057171,-2.93488 0,-2.101523 -0.420492,-2.32345 -4.402323,-2.32345 -4.239276,0 -4.402325,0.108706 -4.402325,2.93488 0,3.1273 0.572016,3.35854 5.747477,2.32345 z m 12.71783,0 c 2.394244,-0.47885 3.057171,-1.11525 3.057171,-2.93488 0,-2.101523 -0.420497,-2.32345 -4.402326,-2.32345 -4.239275,0 -4.402325,0.108706 -4.402325,2.93488 0,3.1273 0.572019,3.35854 5.74748,2.32345 z m -9.660659,-12.10639 c 0,-2.59288 -0.333846,-2.934883 -2.865004,-2.934883 -3.05507,0 -5.939644,2.171915 -5.939644,4.472205 0,1.00417 1.239173,1.397563 4.402325,1.397563 4.239276,0 4.402323,-0.108706 4.402323,-2.934885 z m 12.71783,1.956588 c 0,-1.870016 -3.927893,-4.891471 -6.358917,-4.891471 -2.065287,0 -2.445734,0.456539 -2.445734,2.934883 0,2.826187 0.16306,2.934885 4.402325,2.934885 2.421277,0 4.402326,-0.440235 4.402326,-0.978297 z M 37.591481,25.166465 c 0,-2.704473 -0.234863,-2.877146 -3.913175,-2.877146 -3.175915,0 -3.913179,0.346049 -3.913179,1.836801 0,2.108502 1.584846,3.636608 4.402323,4.244724 2.813589,0.607277 3.424031,0.03587 3.424031,-3.204379 z m 10.565579,1.818666 c 0.645674,-0.645673 1.173954,-1.96637 1.173954,-2.934883 0,-1.40222 -0.797129,-1.760929 -3.913177,-1.760929 -3.695779,0 -3.913177,0.16306 -3.913177,2.934883 0,2.562201 0.347824,2.934883 2.739223,2.934883 1.506572,0 3.267501,-0.528278 3.913177,-1.173954 z M 37.591481,15.44126 c 0,-2.826184 -0.163058,-2.934883 -4.402323,-2.934883 -4.239276,0 -4.402325,0.108707 -4.402325,2.934883 0,2.826184 0.16306,2.934882 4.402325,2.934882 4.239276,0 4.402323,-0.108706 4.402323,-2.934882 z m 12.71783,0 c 0,-2.826184 -0.16306,-2.934883 -4.402326,-2.934883 -4.239275,0 -4.402325,0.108707 -4.402325,2.934883 0,2.826184 0.16306,2.934882 4.402325,2.934882 4.239274,0 4.402326,-0.108706 4.402326,-2.934882 z"
       style="fill:#000000;stroke-width:0.978294" />
  </g>
</svg>
