<?xml version="1.0" encoding="UTF-8" standalone="no"?>
<!-- Created with Inkscape (http://www.inkscape.org/) -->

<svg
   xmlns:dc="http://purl.org/dc/elements/1.1/"
   xmlns:cc="http://creativecommons.org/ns#"
   xmlns:rdf="http://www.w3.org/1999/02/22-rdf-syntax-ns#"
   xmlns:svg="http://www.w3.org/2000/svg"
   xmlns="http://www.w3.org/2000/svg"
   xmlns:sodipodi="http://sodipodi.sourceforge.net/DTD/sodipodi-0.dtd"
   xmlns:inkscape="http://www.inkscape.org/namespaces/inkscape"
   width="300"
   height="300"
   id="svg2"
   version="1.1"
   inkscape:version="0.48.2 r9819"
   sodipodi:docname="Nouveau document 1">
  <defs
     id="defs4" />
  <sodipodi:namedview
     id="base"
     pagecolor="#ffffff"
     bordercolor="#666666"
     borderopacity="1.0"
     inkscape:pageopacity="0.0"
     inkscape:pageshadow="2"
     inkscape:zoom="1.979899"
     inkscape:cx="-29.135156"
     inkscape:cy="161.58536"
     inkscape:document-units="px"
     inkscape:current-layer="layer1"
     showgrid="false"
     inkscape:window-width="1280"
     inkscape:window-height="999"
     inkscape:window-x="0"
     inkscape:window-y="24"
     inkscape:window-maximized="1" />
  <metadata
     id="metadata7">
    <rdf:RDF>
      <cc:Work
         rdf:about="">
        <dc:format>image/svg+xml</dc:format>
        <dc:type
           rdf:resource="http://purl.org/dc/dcmitype/StillImage" />
        <dc:title></dc:title>
      </cc:Work>
    </rdf:RDF>
  </metadata>
  <g
     inkscape:label="Calque 1"
     inkscape:groupmode="layer"
     id="layer1"
     transform="translate(0,-752.36218)">
    <path
       style="fill:#000000"
       d="m 251.34047,1035.6237 c -17.15969,-4.5543 -32.33001,-14.4564 -49.66154,-18.2541 -13.71129,-4.8543 -27.20106,-12.2251 -37.06498,-22.94671 -6.77838,-13.77757 5.32916,-26.39277 12.04102,-37.4425 7.06501,-10.82641 22.08126,-26.39246 9.94771,-38.80534 -14.66239,-13.24932 -36.2697,-10.93663 -53.7041,-5.44032 -20.89937,5.04386 -44.9614,14.46324 -52.169707,36.84644 -8.409729,23.81736 -2.42564,49.23175 -3.461409,73.78553 -3.167788,13.7403 -24.226429,6.1512 -17.552454,-6.6919 -2.916278,-25.39678 -7.599967,-53.65306 6.824478,-76.60834 6.305926,-15.4327 21.573041,-25.10532 36.802912,-30.14483 12.14568,-6.7786 26.72539,-10.90182 37.23633,-13.19025 0.38086,-9.88953 1.5222,-37.65221 0.47516,-47.454 -6.07278,-0.2857 -20.28797,-1.01438 -30.48318,-1.6002 -7.78835,-0.71639 -16.307263,-1.2435 -23.338748,-0.64633 -2.568588,4.58701 -5.880247,18.43779 -7.272674,25.03088 -1.826035,12.86119 -25.962874,26.30548 -24.295626,7.91319 10.241834,-17.73644 13.620713,-38.60432 12.6926,-58.84267 -0.123681,-9.12019 -16.108113,-22.73886 -0.926252,-28.46614 13.818174,3.22403 22.320864,25.88426 22.786573,39.55351 9.109733,2.08112 39.434437,2.16836 50.792887,2.99562 2.30953,-12.30451 3.3815,-19.73791 1.83067,-34.15517 -3.21699,-11.29525 1.57212,-37.21421 17.8735,-25.31853 10.46901,12.70944 5.35647,29.69933 4.2463,44.38131 -0.48321,7.02122 -1.07417,11.48224 -0.96348,15.3645 12.44327,-1.86298 37.49041,1.64293 46.38508,2.05541 0.2476,-11.19182 6.22567,-54.53692 21.84945,-43.29318 8.03182,10.81504 -3.8762,20.69339 -4.30446,31.72329 -2.76136,16.75398 2.05656,34.12175 12.45846,47.46948 5.30114,5.25411 9.26024,12.28832 -1.48718,13.20384 -15.38039,2.75207 -23.29727,-23.03162 -27.05003,-34.68092 -5.80435,-0.29697 -35.19186,-2.41495 -48.32211,-2.31751 -0.38341,6.91222 -2.22528,16.06503 -2.55908,20.22919 0.039,9.62805 -0.74207,19.41052 0.92849,25.75286 55.28614,12.00324 57.01187,38.95504 24.81621,71.92697 -8.2329,11.64127 -1.0287,28.47371 11.29934,33.86752 14.82201,10.3318 32.76797,14.1512 49.43049,20.4172 11.47437,-1.831 24.71833,23.2889 3.89935,13.7822 z"
       id="path2996"
       inkscape:connector-curvature="0"
       sodipodi:nodetypes="cccccccccccccccccccccccccccccccccccccc" />
  </g>
</svg>
