<?xml version="1.0" encoding="UTF-8" standalone="no"?>
<svg
   xmlns:dc="http://purl.org/dc/elements/1.1/"
   xmlns:cc="http://creativecommons.org/ns#"
   xmlns:rdf="http://www.w3.org/1999/02/22-rdf-syntax-ns#"
   xmlns:svg="http://www.w3.org/2000/svg"
   xmlns="http://www.w3.org/2000/svg"
   version="1.1"
   id="svg172"
   width="300"
   height="300"
   viewBox="0 0 300 300">
  <metadata
     id="metadata178">
    <rdf:RDF>
      <cc:Work
         rdf:about="">
        <dc:format>image/svg+xml</dc:format>
        <dc:type
           rdf:resource="http://purl.org/dc/dcmitype/StillImage" />
        <dc:title></dc:title>
      </cc:Work>
    </rdf:RDF>
  </metadata>
  <defs
     id="defs176" />
  <path
     style="fill:#000000;stroke-width:0.69182599"
     d="m 204.61095,277.47633 c -7.82267,-20.5857 -17.1134,-52.42141 -17.1134,-52.42141 -9.16966,-33.82772 -6.87337,-51.6161 -1.49468,-79.55999 6.04581,-31.40979 6.50732,-35.77258 7.53899,-50.517665 1.6748,-23.93695 -3.95241,-52.99607 -20.12881,-67.540291 -6.56722,-5.729482 -7.77422,-14.322552 0.70953,-12.068568 12.0252,3.194884 23.61883,21.03658 28.84003,44.51324 4.28301,19.258225 2.76014,29.701984 1.73689,47.698844 12.27226,1.78691 23.61603,2.23739 28.47384,-8.95109 3.91856,-9.025223 0.97994,-22.163459 -14.47611,-53.530345 -3.4906,-7.083924 -6.74757,-13.923371 -6.72894,-15.236156 0.0975,-6.867246 6.4576,-6.870443 9.11848,-3.928373 9.24535,10.222396 19.8672,33.319672 23.44569,50.521566 2.76437,13.28841 4.50006,29.992458 -9.14937,39.785088 -8.78081,6.29968 -19.24982,5.19855 -33.10452,5.01921 -1.84867,9.44163 -3.47821,19.03908 -4.85037,27.00182 -3.87121,22.48708 -4.49344,40.60651 -2.10285,53.21875 3.36701,17.76365 5.90693,25.95365 13.98862,51.24697 4.07287,12.7469 7.44696,24.49049 7.49801,26.09689 0.11583,3.64604 -1.7093,5.69029 -5.51326,6.17518 -4.70449,-0.0392 -5.12367,-3.40767 -6.68777,-7.52367 z m -48.63697,-32.34778 c -1.15154,-8.53684 -2.57439,-17.69741 -3.35504,-24.91641 -2.83314,-26.35472 -2.09843,-42.21285 3.49376,-75.40904 1.55577,-9.23536 2.15212,-10.90841 3.61552,-12.6601 2.97605,-3.56233 9.48741,0.70241 9.09463,4.09521 -0.48349,4.17653 -1.30339,11.10655 -2.89641,23.3382 -2.66283,20.4459 -2.83399,23.46678 -2.85885,37.45955 -0.0384,21.59061 3.88347,41.46476 7.12979,62.18472 1.01625,6.48634 1.40528,8.72535 -3.18402,10.48703 -6.83034,2.62193 -10.9113,-23.63366 -11.03938,-24.57916 z m 77.22459,7.84138 c -9.87931,-15.02108 -15.71394,-53.37891 -15.8756,-80.8397 -0.0834,-14.17043 -1.8728,-44.51902 7.70052,-41.8088 4.51536,1.27831 3.92819,0.25337 4.13625,27.48332 0.27961,36.59197 2.7324,64.09086 11.53579,84.7354 4.80461,11.26712 -2.43876,18.12055 -7.49696,10.42978 z M 56.661563,189.08624 67.841121,180.10888 c 11.787158,-9.46527 21.147091,-18.33685 21.76255,-39.92552 0.454518,-15.94335 1.097273,-39.57475 9.614988,-30.44523 4.070471,4.36284 4.178731,5.17666 4.766341,28.56839 0.57989,23.08482 4.41749,25.20099 21.31231,39.88822 5.53841,4.9035 15.60921,12.0352 15.8525,19.05309 0.23846,6.87831 -13.20618,0.69573 -18.02729,-3.03077 -8.27681,-6.39761 -18.98614,-16.62666 -26.567914,-25.61164 -5.777006,8.22905 -13.814935,16.96187 -21.820086,23.46064 -6.043094,4.83356 -10.999422,6.94909 -16.239046,7.8242 -7.721284,1.2896 -4.833589,-8.39524 -1.833911,-10.80402 z M 144.82638,122.03862 C 160.0011,105.81563 165.5961,86.626021 160.0748,69.739981 158.09,63.669818 154.2135,57.448583 150.63402,52.790244 143.69448,43.759111 137.75817,35.503572 139.5045,30.791933 c 2.79778,-7.548464 14.91488,6.608687 16.2227,8.222355 9.76761,12.051844 13.54674,18.72004 16.26626,28.650215 2.01937,7.373585 1.87665,23.500408 -0.27857,31.478084 -4.69067,17.362903 -16.42775,32.709423 -26.83518,34.885463 -6.77396,1.41631 -2.03108,-9.82357 -0.0533,-11.98943 z M 131.1112,109.48674 C 117.212,101.81309 107.14335,88.132388 95.611973,78.417776 90.708517,84.547424 85.297283,91.269013 79.923213,96.730663 70.026672,106.73628 65.400645,109.51634 58.669632,109.51998 c -9.695831,0.006 4.141152,-13.235413 8.893307,-17.908883 18.281447,-17.978748 21.393635,-24.184888 22.103715,-42.850325 0.544851,-14.322171 0.976283,-34.745597 9.187098,-29.826438 3.829238,2.294126 3.690418,4.275092 4.245628,20.598373 1.02102,30.018163 1.6813,30.763863 22.37118,49.862837 7.45345,6.88034 12.02591,10.998546 13.93759,15.491896 2.82162,6.63215 -5.40875,6.19387 -8.29695,4.5993 z"
     id="path182" />
</svg>
