<?xml version="1.0" encoding="UTF-8" standalone="no"?>
<svg
   xmlns:dc="http://purl.org/dc/elements/1.1/"
   xmlns:cc="http://creativecommons.org/ns#"
   xmlns:rdf="http://www.w3.org/1999/02/22-rdf-syntax-ns#"
   xmlns:svg="http://www.w3.org/2000/svg"
   xmlns="http://www.w3.org/2000/svg"
   viewBox="0 0 300 300"
   height="300"
   width="300"
   id="svg2"
   version="1.1">
  <metadata
     id="metadata8">
    <rdf:RDF>
      <cc:Work
         rdf:about="">
        <dc:format>image/svg+xml</dc:format>
        <dc:type
           rdf:resource="http://purl.org/dc/dcmitype/StillImage" />
        <dc:title></dc:title>
      </cc:Work>
    </rdf:RDF>
  </metadata>
  <defs
     id="defs6" />
  <path
     id="path12"
     d="m 218.47716,281.4835 c -1.86143,-4.65879 -2.27698,-9.44222 -2.2939,-26.40503 -0.0285,-28.63671 -1.42945,-84.14421 -2.27303,-90.06453 -1.70197,-11.94451 -6.35843,-17.87361 -16.0216,-20.4004 -1.91602,-0.50102 -14.97067,-1.03613 -33.29698,-1.36484 -27.55166,-0.49419 -30.63936,-0.67476 -35.88797,-2.09882 -6.96887,-1.8908 -9.72187,-3.42212 -11.86226,-6.59825 -2.08554,-3.09473 -3.00762,-6.41259 -3.54567,-12.75803 -0.37059,-4.37064 -0.11107,-6.15468 1.84793,-12.70315 2.58905,-8.6546 3.03669,-9.17875 11.76555,-13.77679 10.66216,-5.61641 13.38764,-5.96976 50.03109,-6.48642 31.6824,-0.44671 32.39642,-0.48885 35.94737,-2.12159 7.89162,-3.62859 9.55482,-7.76676 8.75614,-21.786 -0.78753,-13.82357 -3.43393,-29.69623 -5.16594,-30.9844 -3.70027,-2.75207 -7.26119,-2.94068 -55.5182,-2.94068 -41.0944,0 -47.70285,0.15318 -53.77328,1.24648 -8.263541,1.48828 -12.897441,3.0293 -14.286691,4.7511 -3.24479,4.0215 -6.22939,9.45078 -7.85121,14.28208 l -1.84685,5.50169 -0.32514,61.20133 c -0.46626,87.7645 -0.83898,104.10498 -2.96997,130.2086 -2.49612,30.5764 -2.41306,29.89924 -3.89108,31.72451 -1.81819,2.24537 -6.26503,2.23851 -8.08776,-0.0125 -2.24406,-2.77128 -2.34771,-7.29909 -0.77221,-33.73193 1.23715,-20.75608 1.67003,-39.97357 2.29431,-101.85418 0.4232,-41.94915 1.07341,-79.53995 1.44492,-83.53511 0.74723,-8.0357 2.68151,-16.15273 5.56651,-23.35931 1.50859,-3.7684 2.64715,-5.32981 5.57271,-7.64232 8.41553,-6.6521 18.218341,-10.05586 33.163031,-11.51497 21.27689,-2.07734 80.20935,-2.06765 92.25182,0.0152 10.74628,1.85864 13.93553,3.00891 17.09076,6.16414 3.48277,3.48277 6.31542,8.94495 8.10827,15.63512 0.98786,3.68628 1.26452,7.66809 1.2618,18.1598 -0.004,18.11856 -2.09955,30.19343 -5.83985,33.66164 -3.01317,2.79396 -11.46594,6.95837 -17.45843,8.6012 -5.38991,1.47764 -7.08874,1.55527 -30.76546,1.406 -28.01882,-0.17665 -36.39323,0.45463 -42.63195,3.21368 -10.41623,4.60656 -13.85407,10.65556 -10.89848,19.17627 0.74951,2.16077 1.35914,2.63136 4.49895,3.47283 1.99758,0.53535 7.55448,1.46943 12.34867,2.07573 7.45827,0.94321 10.82648,0.97389 23.33033,0.21251 11.21196,-0.68271 16.19995,-0.69381 21.42857,-0.0477 12.85684,1.58879 21.48733,4.59029 26.7159,9.29123 5.67231,5.0999 7.50083,8.85621 9.85199,20.23888 1.70518,8.25528 4.61294,79.1297 3.94994,96.27641 -0.27034,6.99153 -0.52764,15.7005 -0.57178,19.35328 -0.0884,7.31254 0.0645,7.08572 -5.32019,7.89321 -3.07799,0.46157 -3.28927,0.37977 -4.07068,-1.57595 z M 171.49238,67.21192 c -3.19613,-0.14293 -18.55167,-0.56107 -34.12343,-0.9292 -28.11069,-0.66457 -28.32173,-0.68099 -29.63713,-2.30544 -0.80283,-0.99146 -1.23885,-2.51435 -1.1066,-3.86508 0.18374,-1.8765 0.78416,-2.49691 3.79696,-3.92331 l 3.57871,-1.69433 39.64163,0.23547 c 35.95903,0.21361 39.85532,0.3524 41.94191,1.49404 2.60186,1.42356 3.72355,4.66161 2.44343,7.05355 -1.86396,3.48283 -9.92033,4.67732 -26.53548,3.9343 z"
     style="fill:#000000;stroke-width:0.72639227" />
</svg>
