<?xml version="1.0" encoding="UTF-8" standalone="no"?>
<!-- Created with Inkscape (http://www.inkscape.org/) -->

<svg
   xmlns:dc="http://purl.org/dc/elements/1.1/"
   xmlns:cc="http://creativecommons.org/ns#"
   xmlns:rdf="http://www.w3.org/1999/02/22-rdf-syntax-ns#"
   xmlns:svg="http://www.w3.org/2000/svg"
   xmlns="http://www.w3.org/2000/svg"
   xmlns:sodipodi="http://sodipodi.sourceforge.net/DTD/sodipodi-0.dtd"
   xmlns:inkscape="http://www.inkscape.org/namespaces/inkscape"
   width="300"
   height="300"
   viewBox="0 0 79.374999 79.374999"
   version="1.1"
   id="svg20"
   inkscape:version="0.92.4 (5da689c313, 2019-01-14)"
   sodipodi:docname="绘图.svg">
  <defs
     id="defs14" />
  <sodipodi:namedview
     id="base"
     pagecolor="#ffffff"
     bordercolor="#666666"
     borderopacity="1.0"
     inkscape:pageopacity="0.0"
     inkscape:pageshadow="2"
     inkscape:zoom="0.9899495"
     inkscape:cx="384.42366"
     inkscape:cy="227.99089"
     inkscape:document-units="mm"
     inkscape:current-layer="layer1"
     showgrid="false"
     inkscape:window-width="1600"
     inkscape:window-height="877"
     inkscape:window-x="-8"
     inkscape:window-y="-8"
     inkscape:window-maximized="1"
     fit-margin-top="0"
     fit-margin-left="0"
     fit-margin-right="0"
     fit-margin-bottom="0"
     showguides="true"
     units="px"
     inkscape:snap-page="true">
    <sodipodi:guide
       position="35.279577,483.2233"
       orientation="0,1"
       id="guide20"
       inkscape:locked="false" />
  </sodipodi:namedview>
  <metadata
     id="metadata17">
    <rdf:RDF>
      <cc:Work
         rdf:about="">
        <dc:format>image/svg+xml</dc:format>
        <dc:type
           rdf:resource="http://purl.org/dc/dcmitype/StillImage" />
        <dc:title></dc:title>
        <cc:license
           rdf:resource="http://creativecommons.org/publicdomain/zero/1.0/" />
      </cc:Work>
      <cc:License
         rdf:about="http://creativecommons.org/publicdomain/zero/1.0/">
        <cc:permits
           rdf:resource="http://creativecommons.org/ns#Reproduction" />
        <cc:permits
           rdf:resource="http://creativecommons.org/ns#Distribution" />
        <cc:permits
           rdf:resource="http://creativecommons.org/ns#DerivativeWorks" />
      </cc:License>
    </rdf:RDF>
  </metadata>
  <g
     inkscape:label="Layer 1"
     inkscape:groupmode="layer"
     id="layer1"
     transform="translate(49.873959,-256.91563)">
    <path
       style="fill:#000000;stroke-width:0.75703752"
       d="m -3.8428572,331.57019 c -0.201443,-0.52495 2.388741,-8.59983 5.755965,-17.94417 6.51917,-18.0913 8.6501422,-25.69837 7.879271,-28.12717 -0.478824,-1.50865 -4.509092,-4.4191 -6.126708,-4.42439 -0.475168,-0.002 -2.14302,3.65933 -3.70633907,8.13532 -6.58292493,18.84778 -13.16960373,33.4989 -15.06003073,33.4989 -1.695091,0 -1.462786,-2.03247 0.778741,-6.81333 2.812152,-5.99792 9.2063858,-22.02419 11.7797978,-29.52446 l 2.20784493,-6.43482 -2.67807493,-2.27112 c -2.273907,-1.92835 -2.678069,-2.74696 -2.678041,-5.42418 3e-5,-2.79645 0.392423,-3.49846 3.469324,-6.20686 4.037712,-3.55413 9.791333,-6.07117 11.035014,-4.82749 1.2193022,1.2193 0.196785,2.27116 -4.5287,4.65862 -4.96223107,2.50708 -7.18788,4.67045 -6.82455,6.63359 0.161303,0.87155 2.59945593,2.52956 6.608079,4.49368 7.9068262,3.87414 9.1278472,5.35481 9.1499782,11.09579 0.01631,4.22964 -3.8576432,15.99521 -12.57952927,38.20528 -2.08439693,5.30786 -3.72770893,7.24257 -4.48204193,5.27681 z M -17.802998,290.01743 c -4.212818,-0.72482 -5.757635,-2.50803 -6.434175,-7.42707 l -0.521237,-3.78984 h -4.116424 c -3.07602,0 -4.233969,-0.30632 -4.581498,-1.21197 -0.65532,-1.70773 1.065167,-2.54816 5.244074,-2.56163 l 3.595926,-0.0115 0.01034,-4.73149 c 0.0057,-2.60231 0.219312,-5.51161 0.474726,-6.46508 0.440161,-1.64315 0.538365,-1.66665 1.882257,-0.45045 1.12273,1.01606 1.417865,2.36179 1.417865,6.46508 v 5.18194 h 4.461227 c 3.469069,0 4.569125,0.28117 4.946383,1.26428 0.685978,1.78764 -0.84763,2.49593 -5.433165,2.50931 l -3.974445,0.0116 v 2.50494 c 0,3.56422 1.349091,4.83947 5.582149,5.27659 3.382519,0.3493 5.3871998,1.60453 4.599088,2.87972 -0.565415,0.91486 -3.665616,1.15569 -7.153089,0.55567 z"
       id="path842"
       inkscape:connector-curvature="0" />
  </g>
</svg>
