<?xml version="1.0" encoding="UTF-8" standalone="no"?>
<!-- Created with Inkscape (http://www.inkscape.org/) -->

<svg
   xmlns:dc="http://purl.org/dc/elements/1.1/"
   xmlns:cc="http://creativecommons.org/ns#"
   xmlns:rdf="http://www.w3.org/1999/02/22-rdf-syntax-ns#"
   xmlns:svg="http://www.w3.org/2000/svg"
   xmlns="http://www.w3.org/2000/svg"
   xmlns:sodipodi="http://sodipodi.sourceforge.net/DTD/sodipodi-0.dtd"
   xmlns:inkscape="http://www.inkscape.org/namespaces/inkscape"
   width="300"
   height="300"
   id="svg2"
   version="1.1"
   inkscape:version="0.48.4 r9939"
   sodipodi:docname="image-seal.svg">
  <defs
     id="defs4" />
  <sodipodi:namedview
     id="base"
     pagecolor="#ffffff"
     bordercolor="#666666"
     borderopacity="1.0"
     inkscape:pageopacity="0.0"
     inkscape:pageshadow="2"
     inkscape:zoom="2.0018437"
     inkscape:cx="232.32812"
     inkscape:cy="141.91078"
     inkscape:document-units="px"
     inkscape:current-layer="layer1"
     showgrid="false"
     inkscape:window-width="1215"
     inkscape:window-height="1000"
     inkscape:window-x="65"
     inkscape:window-y="24"
     inkscape:window-maximized="1"
     fit-margin-top="10"
     fit-margin-left="10"
     fit-margin-right="10"
     fit-margin-bottom="10" />
  <metadata
     id="metadata7">
    <rdf:RDF>
      <cc:Work
         rdf:about="">
        <dc:format>image/svg+xml</dc:format>
        <dc:type
           rdf:resource="http://purl.org/dc/dcmitype/StillImage" />
        <dc:title />
      </cc:Work>
    </rdf:RDF>
  </metadata>
  <g
     inkscape:label="Calque 1"
     inkscape:groupmode="layer"
     id="layer1"
     transform="translate(0,-752.36218)">
    <path
       style="fill:#000000"
       d="m 104.23043,757.44592 c -4.820311,10.79965 -2.7116,23.90544 -3.5297,35.6167 -0.816861,14.88707 1.95954,30.9461 -2.887931,45.08508 -4.54089,8.34272 -17.00843,8.86827 -20.376,18.69136 -10.04907,24.1069 -7.00703,51.4103 -7.64353,77.0868 0.91431,11.40645 -1.14945,24.32112 3.23141,34.82074 7.48009,-3.00033 3.85117,-13.89724 4.3319,-20.13534 0.23848,-10.63841 -3.51761,-22.79585 0.72199,-32.64972 5.21551,-3.24643 10.22519,4.23335 13.78012,7.2844 6.51853,6.21417 9.918561,15.70429 14.297031,22.55761 7.38339,-2.45059 4.84309,-13.10151 2.094,-18.48446 -3.95922,-7.50733 -9.869631,-15.584 -18.458971,-16.89276 -2.34095,-5.48328 -9.34736,-6.08998 -12.91549,-10.50888 -1.76105,-7.06392 0.68933,-15.46722 5.37477,-20.85732 5.20398,-2.66776 8.14385,5.34592 13.55726,4.3319 9.735521,4.22386 18.142961,13.5005 20.696871,23.82548 -0.0588,2.63652 -0.29292,8.80076 3.77036,5.61543 7.85409,-2.92477 1.39959,-12.50959 0.79779,-17.9826 -3.0974,-14.1542 -18.11177,-18.48739 -29.596931,-23.73204 -5.15618,-1.6941 -7.71502,-7.33209 -3.77036,-11.71218 7.82495,-10.32498 26.126691,-14.71651 36.420091,-5.53521 6.54077,13.38277 5.9637,29.42969 7.58857,44.11568 0.31682,22.22175 3.69782,46.69877 -7.34791,66.8292 -8.03422,14.66176 -28.056471,22.82517 -27.435401,41.47401 0.68163,13.2068 3.536221,26.7155 4.733011,39.5488 1.84646,3.6303 4.87129,0.026 3.77036,-3.0487 0.28713,-14.5982 -2.44384,-29.5825 -2.08573,-43.88041 11.87512,-12.46955 26.33995,-23.51389 34.65523,-38.50582 3.82194,-35.53196 1.13269,-71.41949 1.52419,-107.09431 -6.41163,-8.05066 -15.62163,-14.59632 -26.46684,-12.51439 -6.81371,-0.15556 -1.15276,-12.84651 -3.04224,-17.95387 -0.86194,-21.19237 1.64409,-42.99989 -2.81976,-63.79077 -0.90804,-0.57897 -1.79963,-2.05346 -2.96816,-1.60441 z m 36.33987,8.58359 c -9.55707,5.81248 -11.33016,18.59089 -13.3166,28.71892 -0.61704,5.04131 -1.10283,11.455 3.04838,14.60013 2.39357,7.4337 1.45665,16.85651 8.66381,21.90018 1.84682,2.35175 6.56039,4.99831 5.77587,-0.0801 -0.64715,-13.64192 -12.40511,-24.40794 -10.90998,-38.66626 -0.79363,-7.71246 4.11137,-13.28993 9.22535,-18.12982 2.30799,-2.41352 2.40764,-9.55037 -2.48683,-8.34293 z m -69.310471,1.84507 c -0.14607,8.77476 4.33362,18.10431 3.74836,27.43288 0.61822,13.92989 -4.56612,27.88281 -8.64181,39.87208 9.04776,-5.89031 16.93106,-13.73035 19.65401,-24.54746 3.75486,-10.61187 2.25749,-23.54014 -2.72749,-33.53215 -2.99234,-3.69499 -7.25632,-8.21573 -12.03307,-9.22535 z m 133.968151,18.93203 c -14.75494,1.6138 -24.41543,15.274 -32.3332,26.61776 -7.51398,10.7242 -10.52215,25.0085 -3.28468,36.59596 2.12057,5.01117 6.51236,7.82119 11.63197,8.18248 4.58609,5.63687 -0.0442,14.36811 10e-4,20.984 -5.72897,29.97719 -13.06358,59.39741 -20.93864,88.67736 -5.35677,16.99503 -15.8559,33.00643 -17.2474,50.85973 1.89878,6.655 6.95975,-1.113 7.78139,-4.0912 3.99387,-9.4244 9.54369,-18.47995 10.02755,-28.79915 13.2237,-21.7151 17.04158,-47.89708 21.66728,-72.7831 3.56366,-13.79256 5.1327,-28.32262 9.29782,-41.7717 2.50514,-5.97187 10.05482,-2.81129 12.19351,1.84507 13.85657,18.63584 9.78674,43.33544 9.2158,65.13467 -2.97049,30.02871 -14.0701,58.51944 -19.4038,87.92591 -2.2311,4.3801 2.10986,12.4223 6.41764,6.7386 5.17698,-14.2756 9.16261,-29.5767 15.30113,-43.77936 4.17719,-6.84967 5.47119,-14.48548 5.15508,-22.563 -0.47472,-27.52552 6.34946,-55.61698 0.85755,-82.73883 -4.20185,-19.70335 -24.67596,-27.19515 -39.52381,-37.27096 -3.79344,-3.74326 -13.51079,-7.03856 -12.1558,-12.28436 7.68192,-19.79674 25.57298,-32.85601 44.64509,-40.58092 4.82362,-3.06786 -0.1548,-8.29223 -4.49235,-6.89896 -1.60179,-0.12399 -3.21125,-0.11064 -4.81323,0 z"
       id="path3052"
       inkscape:connector-curvature="0" />
  </g>
</svg>
