<?xml version="1.0" encoding="UTF-8" standalone="no"?>
<!-- Created with Inkscape (http://www.inkscape.org/) -->

<svg
   xmlns:dc="http://purl.org/dc/elements/1.1/"
   xmlns:cc="http://creativecommons.org/ns#"
   xmlns:rdf="http://www.w3.org/1999/02/22-rdf-syntax-ns#"
   xmlns:svg="http://www.w3.org/2000/svg"
   xmlns="http://www.w3.org/2000/svg"
   xmlns:sodipodi="http://sodipodi.sourceforge.net/DTD/sodipodi-0.dtd"
   xmlns:inkscape="http://www.inkscape.org/namespaces/inkscape"
   width="300"
   height="300"
   id="svg2"
   version="1.1"
   inkscape:version="0.48.4 r9939"
   sodipodi:docname="image-seal.svg">
  <defs
     id="defs4" />
  <sodipodi:namedview
     id="base"
     pagecolor="#ffffff"
     bordercolor="#666666"
     borderopacity="1.0"
     inkscape:pageopacity="0.0"
     inkscape:pageshadow="2"
     inkscape:zoom="2.0018437"
     inkscape:cx="206.88262"
     inkscape:cy="185.8203"
     inkscape:document-units="px"
     inkscape:current-layer="layer1"
     showgrid="false"
     inkscape:window-width="1215"
     inkscape:window-height="1000"
     inkscape:window-x="65"
     inkscape:window-y="24"
     inkscape:window-maximized="1"
     fit-margin-top="10"
     fit-margin-left="10"
     fit-margin-right="10"
     fit-margin-bottom="10" />
  <metadata
     id="metadata7">
    <rdf:RDF>
      <cc:Work
         rdf:about="">
        <dc:format>image/svg+xml</dc:format>
        <dc:type
           rdf:resource="http://purl.org/dc/dcmitype/StillImage" />
        <dc:title />
      </cc:Work>
    </rdf:RDF>
  </metadata>
  <g
     inkscape:label="Calque 1"
     inkscape:groupmode="layer"
     id="layer1"
     transform="translate(0,-752.36218)">
    <path
       style="fill:#000000"
       d="m 103.5049,1024.2756 c -0.10138,-12.7656 -0.16762,-37.88911 -0.14755,-55.82999 0.0374,-33.46888 -1.19192,-46.42046 -4.406529,-46.42046 -4.86609,0 -10.85779,7.39234 -13.27404,16.37708 -1.47462,5.48331 -3.38857,28.03601 -4.25319,50.11709 -1.30454,33.31508 -2.2126,40.14738 -5.3359,40.14738 -3.10269,0 -3.90278,-5.5094 -4.5549,-31.36513 -1.00672,-39.91625 2.97415,-65.48369 11.52768,-74.03725 3.44169,-3.44169 7.62237,-6.2576 9.29039,-6.2576 5.19398,0 11.781289,-9.34183 10.912519,-15.47568 -0.55029,-3.88527 -2.77599,-6.12863 -6.621129,-6.67366 -4.69587,-0.66562 -5.23139,-1.49677 -2.82929,-4.39112 1.62961,-1.96356 4.51839,-3.57011 6.419489,-3.57011 1.90114,0 3.53125,-1.41144 3.62248,-3.13652 0.0913,-1.72509 0.47447,-8.49996 0.85165,-15.05529 l 0.6858,-11.91876 -9.132089,0 c -11.58198,0 -15.15417,3.63364 -15.15417,15.41485 0,6.61723 1.51632,10.45479 5.13152,12.98697 4.47568,3.13491 4.61279,3.7933 1.07281,5.15172 -5.70788,2.19034 -13.53987,-2.61097 -16.3604,-10.02958 -1.79692,-4.72626 -1.19667,-8.88192 2.42438,-16.78461 4.26699,-9.31238 6.32937,-10.94121 18.19092,-14.36679 12.127709,-3.50246 13.449839,-4.5903 14.143619,-11.63746 0.70629,-7.17442 -0.0662,-8.03739 -10.017919,-11.19167 -13.07265,-4.14349 -16.88342,-10.9135 -18.25902,-32.43819 -1.08579,-16.98936 0.0928,-22.41852 4.86717,-22.41852 2.16096,0 3.55134,6.01395 4.38169,18.95267 1.31621,20.50921 2.47178,22.83337 11.98973,24.11432 l 6.273039,0.84425 0.70978,-26.73525 c 0.52196,-19.66122 1.67598,-27.53714 4.36141,-29.76588 5.21761,-4.33022 6.03035,-0.73143 6.80988,30.15439 l 0.665,26.34674 7.52764,-0.75765 c 10.65899,-1.07282 13.80068,-6.68794 13.80068,-24.66598 0,-16.86684 3.51071,-22.35737 9.26434,-14.48883 3.6142,4.9427 3.29136,27.43597 -0.53682,37.40325 -3.16961,8.2526 -11.88627,13.68555 -22.05238,13.74487 -9.50555,0.0555 -9.55649,0.11041 -8.78225,9.46536 0.72388,8.74632 1.39781,9.46759 9.56104,10.23285 4.83023,0.45284 12.45197,3.61545 16.93719,7.02806 6.61411,5.03238 8.15437,7.95847 8.15189,15.48657 -0.005,13.11559 -8.12359,21.56413 -24.46951,25.46202 -7.24962,1.72875 -13.60963,3.87661 -14.13337,4.77298 -2.7364,4.68332 4.07034,12.89759 12.87299,15.53492 6.09127,1.825 11.72501,5.90584 15.24488,11.04278 5.11413,7.4636 5.68867,11.89857 6.83957,52.79667 0.69106,24.55679 0.58944,46.75029 -0.22583,49.31889 -0.81524,2.5686 -3.51694,4.6703 -6.00375,4.6703 -4.19109,0 -4.53741,-3.5177 -4.7401,-48.14636 -0.24691,-54.35808 -1.91436,-62.25909 -13.1395,-62.25909 -3.89134,0 -7.9115,1.35326 -8.93373,3.00724 -1.84756,2.9894 -1.78797,65.23658 0.0941,98.40951 0.69362,12.2248 -0.003,18.3467 -2.35803,20.701 -7.08402,7.084 -8.71907,3.4357 -8.90395,-19.8673 z m 29.04009,-139.29978 c 6.62108,-4.86444 9.19438,-13.60983 6.16012,-20.9352 -2.58349,-6.23705 -4.37073,-7.25504 -12.73758,-7.25504 -8.3413,0 -9.77045,0.80699 -9.99831,5.64573 -0.86127,18.28788 1.71572,24.38798 10.30273,24.38798 2.0701,0 4.89297,-0.82955 6.27304,-1.84347 z m 69.00339,147.95658 c 0,-2.4841 1.01864,-5.5893 2.26366,-6.9003 1.24499,-1.3111 2.92333,-6.9004 3.72962,-12.4206 0.80626,-5.5203 3.04787,-19.63464 4.98134,-31.36521 4.68709,-28.43715 5.32899,-92.70425 1.04797,-104.92169 -3.01301,-8.59875 -7.60866,-15.52059 -10.30464,-15.52059 -0.63234,0 -2.4507,7.62173 -4.04081,16.93719 -8.38768,49.13839 -16.62829,88.82694 -20.18853,97.23205 -1.16912,2.76014 -2.76704,7.02005 -3.55092,9.46646 -1.50879,4.70882 -8.27366,8.47287 -10.75968,5.98684 -0.81211,-0.81211 1.07329,-11.3962 4.18981,-23.52022 15.00866,-58.38751 21.42311,-104.61689 16.28871,-117.39379 -1.66376,-4.1402 -4.31284,-10.68591 -5.88684,-14.54604 -4.31783,-10.58911 -3.48111,-20.29791 3.01118,-34.9394 5.96646,-13.45561 23.67752,-32.06402 30.51782,-32.06402 2.33422,0 3.75659,2.37517 3.75659,6.27304 0,3.45017 -0.99184,6.27303 -2.20407,6.27303 -1.21225,0 -6.85457,6.02791 -12.53852,13.39537 -7.4017,9.59398 -10.79639,16.76566 -11.96227,25.2716 l -1.62781,11.87626 16.17342,15.5031 c 19.24861,18.45086 25.66203,32.79626 25.44075,56.90517 -0.11543,12.56559 -3.07914,51.74436 -5.03015,66.49417 -0.91273,6.90034 -1.46759,13.33705 -1.233,14.3038 0.37512,1.546 -1.59815,12.75466 -5.59031,31.75428 -2.40902,11.4651 -7.71074,20.4361 -12.07742,20.4361 -2.56991,0 -4.4059,-1.8821 -4.4059,-4.5166 z"
       id="path3002"
       inkscape:connector-curvature="0" />
  </g>
</svg>
