<?xml version="1.0" encoding="UTF-8" standalone="no"?>
<svg
   xmlns:dc="http://purl.org/dc/elements/1.1/"
   xmlns:cc="http://creativecommons.org/ns#"
   xmlns:rdf="http://www.w3.org/1999/02/22-rdf-syntax-ns#"
   xmlns:svg="http://www.w3.org/2000/svg"
   xmlns="http://www.w3.org/2000/svg"
   viewBox="0 0 300 300"
   height="300"
   width="300"
   id="svg5563"
   version="1.1">
  <metadata
     id="metadata5569">
    <rdf:RDF>
      <cc:Work
         rdf:about="">
        <dc:format>image/svg+xml</dc:format>
        <dc:type
           rdf:resource="http://purl.org/dc/dcmitype/StillImage" />
        <dc:title></dc:title>
      </cc:Work>
    </rdf:RDF>
  </metadata>
  <defs
     id="defs5567" />
  <path
     id="path5573"
     d="m 151.28044,284.15285 c -2.39916,-1.75432 -2.19966,-7.37183 0.56633,-15.94572 3.20638,-9.93905 16.62482,-57.35402 18.6647,-65.953 l 1.59315,-6.71584 h -4.64176 c -12.28768,0 -22.67006,-1.46775 -46.86211,-6.62487 -1.70371,-0.36319 -1.74389,-0.26608 -3.21923,7.77797 l -1.49397,8.14576 1.49721,1.1862 c 2.64662,2.09685 9.56219,4.47982 17.33971,5.97494 13.89151,2.67045 14.67132,2.88508 16.44111,4.52527 7.77559,7.20617 -4.2118,12.01187 -18.94609,7.59541 -10.58335,-3.17225 -18.62478,-5.26971 -18.9514,-4.94308 -0.17785,0.17785 -1.04891,3.22362 -1.9357,6.76839 -2.70681,10.81994 -13.038481,32.36509 -17.937359,37.40566 -3.118578,3.20879 -7.641397,5.89038 -9.934786,5.89038 -1.583148,0 -2.806898,-1.89593 -2.806898,-4.3487 0,-2.674 3.37475,-9.35415 7.372454,-14.5934 7.805683,-10.22988 13.616349,-24.36013 16.995079,-41.32825 3.69552,-18.55912 3.9882,-21.40336 4.46529,-43.39466 0.32473,-14.96795 0.71903,-21.80578 1.31864,-22.86741 1.15009,-2.03626 3.56357,-3.65154 5.45596,-3.65154 1.28246,0 1.7227,0.62326 2.55432,3.61622 0.55265,1.98893 1.20115,4.60218 1.44112,5.80724 0.76415,3.83724 1.49849,4.04053 13.36998,3.70112 18.88037,-0.5398 21.55692,-0.44155 24.03147,0.88218 2.16751,1.15947 4.95534,4.7563 4.9608,6.40034 9.4e-4,0.4269 -1.62472,1.51177 -3.61365,2.41081 -3.53182,1.59649 -4.02117,1.63113 -20.96912,1.48452 -19.85928,-0.1718 -17.75106,-1.01888 -18.49109,7.42963 l -0.45663,5.21311 4.06768,1.82547 c 2.23722,1.00401 6.64637,2.44137 9.79809,3.19413 6.52444,1.55833 24.95529,3.00925 34.07704,2.68264 l 6.13174,-0.21955 0.95982,-2.75522 c 2.04631,-5.87409 1.17012,-16.00297 -2.31094,-26.71495 -2.10718,-6.4842 -3.75896,-8.56795 -8.98276,-11.33192 -5.72668,-3.03004 -8.29099,-3.59834 -19.49413,-4.32032 -8.74802,-0.56375 -13.27352,-1.37718 -21.60126,-3.88268 -2.10143,-0.63224 -6.6344,-5.11596 -8.20783,-8.11866 -1.20899,-2.30724 -1.44352,-3.83635 -1.32777,-8.65704 0.0773,-3.22015 -0.041,-7.80987 -0.26283,-10.19936 -0.47379,-5.1027 -0.36244,-5.02892 -10.0807,-6.67904 C 90.14566,98.83697 85.551068,96.44789 82.776924,90.905293 81.144951,87.644695 80.845492,86.282654 79.269371,74.951801 76.424373,54.498787 75.986612,36.965721 78.037761,25.622853 c 0.674682,-3.731004 0.990792,-4.310556 2.553798,-4.682137 0.981092,-0.23324 2.311643,-0.580591 2.956778,-0.77189 0.836151,-0.247937 1.557251,0.40541 2.511137,2.275196 2.859013,5.604112 3.180272,8.194382 3.271731,26.379007 0.07728,15.373245 0.303071,18.801222 1.809657,27.47768 1.951961,11.241374 2.136595,11.525189 8.782715,13.500515 4.186183,1.244186 25.789483,2.774296 29.456613,2.086332 l 2.24466,-0.421101 V 57.770342 c 0,-35.71521 0.15582,-37.640766 3.37742,-41.737033 1.93553,-2.461058 5.04134,-0.409278 7.44497,4.918364 1.06812,2.367463 1.23786,4.92536 1.27822,19.261305 0.0256,9.092214 0.1031,17.737549 0.1722,19.211857 l 0.12567,2.68056 7.40463,-0.413163 c 8.65522,-0.482942 23.48185,-3.311562 24.30042,-4.636021 1.30013,-2.103656 2.88963,-10.569431 3.748,-19.96208 0.5041,-5.516029 1.37017,-11.114822 1.92459,-12.441763 1.09563,-2.622189 5.02994,-6.347111 6.27592,-5.941899 0.42586,0.138497 1.52539,2.088581 2.4434,4.333522 3.79278,9.275045 1.92068,26.865858 -4.14573,38.954482 -1.50181,2.992671 -6.49591,6.468126 -11.28594,7.854013 -3.68664,1.066645 -21.03515,3.078686 -26.5455,3.078686 -3.29935,0 -3.31109,0.0082 -3.68245,2.583015 -0.2049,1.420658 -0.57104,5.605143 -0.81363,9.298855 l -0.44109,6.71584 14.35698,0.0014 c 14.30816,0.0014 14.41901,0.01281 32.61027,3.425498 18.87917,3.54176 27.23511,5.79651 29.73538,8.02373 1.37364,1.22364 3.32722,4.96668 3.32722,6.37496 0,0.97816 -5.67634,3.52758 -7.85423,3.52758 -1.04986,0 -5.52393,-1.25544 -9.94239,-2.78984 -13.44367,-4.66866 -34.20983,-6.84399 -65.39353,-6.85022 l -16.03174,-0.004 -0.73851,1.89421 c -0.81259,2.08423 -0.36202,9.50134 0.87581,14.4172 0.63439,2.51941 1.2302,3.27596 3.48634,4.42696 4.44029,2.26527 12.69336,4.05858 18.67815,4.05858 19.57021,0 31.40155,8.37882 35.98722,25.48575 3.22509,12.03124 -0.69822,49.99928 -8.0428,77.83486 -5.15748,19.54653 -16.0717,49.62522 -18.93269,52.17691 -2.02955,1.81014 -2.35167,1.85947 -4.04699,0.61983 z"
     style="fill:#000000;stroke-width:0.68880409" />
</svg>
