<?xml version="1.0" encoding="UTF-8" standalone="no"?>
<!-- Created with Inkscape (http://www.inkscape.org/) -->

<svg
   xmlns:dc="http://purl.org/dc/elements/1.1/"
   xmlns:cc="http://creativecommons.org/ns#"
   xmlns:rdf="http://www.w3.org/1999/02/22-rdf-syntax-ns#"
   xmlns:svg="http://www.w3.org/2000/svg"
   xmlns="http://www.w3.org/2000/svg"
   xmlns:sodipodi="http://sodipodi.sourceforge.net/DTD/sodipodi-0.dtd"
   xmlns:inkscape="http://www.inkscape.org/namespaces/inkscape"
   width="300"
   height="300"
   id="svg2"
   version="1.1"
   inkscape:version="0.48.4 r9939"
   sodipodi:docname="image-seal.svg">
  <defs
     id="defs4" />
  <sodipodi:namedview
     id="base"
     pagecolor="#ffffff"
     bordercolor="#666666"
     borderopacity="1.0"
     inkscape:pageopacity="0.0"
     inkscape:pageshadow="2"
     inkscape:zoom="2.7366667"
     inkscape:cx="150"
     inkscape:cy="150"
     inkscape:document-units="px"
     inkscape:current-layer="layer1"
     showgrid="false"
     inkscape:window-width="1215"
     inkscape:window-height="1000"
     inkscape:window-x="65"
     inkscape:window-y="24"
     inkscape:window-maximized="1" />
  <metadata
     id="metadata7">
    <rdf:RDF>
      <cc:Work
         rdf:about="">
        <dc:format>image/svg+xml</dc:format>
        <dc:type
           rdf:resource="http://purl.org/dc/dcmitype/StillImage" />
        <dc:title />
      </cc:Work>
    </rdf:RDF>
  </metadata>
  <g
     inkscape:label="Calque 1"
     inkscape:groupmode="layer"
     id="layer1"
     transform="translate(0,-752.36218)">
    <path
       style="fill:#000000"
       d="m 184.29043,1044.8378 c -0.9974,-1.6138 1.51404,-6.8887 5.58099,-11.722 4.06694,-4.8333 7.39444,-11.1552 7.39444,-14.0487 0,-4.0328 1.51024,-4.8717 6.46952,-3.5937 5.6755,1.4625 6.00217,1.097 2.66145,-2.9781 -3.17524,-3.8732 -3.08959,-6.2258 0.51555,-14.15651 6.95048,-15.29003 21.98227,-61.44972 21.98227,-67.50329 0,-3.05425 1.14706,-6.7824 2.54902,-8.28476 2.55227,-2.73503 8.95546,-35.7192 8.94885,-46.09727 -0.006,-7.78649 -13.00401,-22.01491 -19.04913,-20.85074 -3.02624,0.58281 -5.96105,4.96825 -7.3794,11.02695 -2.45658,10.49383 -10.20034,37.13557 -20.05685,69.00387 -5.50819,17.80917 -9.19567,27.83705 -13.74533,37.37949 -1.13099,2.37215 -3.89132,10.61401 -6.13403,18.31525 -5.22853,17.95411 -21.87459,33.23821 -27.06079,24.84681 -1.65614,-2.6798 0.38001,-8.3047 13.02189,-35.9737 2.89024,-6.32576 6.81664,-16.677 8.72535,-23.00276 1.90871,-6.32576 4.4544,-14.08919 5.6571,-17.25207 1.20272,-3.16288 3.74183,-10.27936 5.64246,-15.81439 1.90063,-5.53504 4.43973,-12.65152 5.64243,-15.8144 5.24339,-13.78906 8.73429,-26.73142 8.73429,-32.38207 0,-3.35263 1.29391,-6.89537 2.87535,-7.87276 1.58144,-0.97738 2.87534,-6.71933 2.87534,-12.75991 0,-9.49226 -1.17072,-11.46777 -8.62603,-14.55586 -8.71871,-3.61141 -9.71643,-5.41284 -8.75882,-15.8144 1.53676,-16.69244 19.63553,-33.22406 46.81084,-42.75752 5.16513,-1.81202 11.06522,-4.3659 13.11129,-5.67533 5.22996,-3.34699 12.55404,3.52394 11.5142,10.80178 -0.64583,4.52001 -4.90758,7.28431 -17.25756,11.19369 -15.0608,4.76749 -33.91857,18.11892 -33.91857,24.01459 0,1.35207 9.88017,8.27291 21.95593,15.37961 29.85401,17.5694 30.95179,19.62277 28.43534,53.18747 -1.12558,15.01298 -3.21978,28.02147 -4.6538,28.90774 -1.43402,0.88626 -2.6073,4.79199 -2.6073,8.6794 0,16.43688 -31.34307,96.10509 -37.80967,96.10509 -1.34485,0 -2.44516,2.7595 -2.44516,6.1322 0,10.6027 -16.91663,21.5165 -21.60146,13.9363 z m -99.97254,-9.286 c -1.72317,-4.8057 3.02541,-13.6579 7.32649,-13.6579 6.16161,0 39.48855,-37.25556 39.48855,-44.14348 0,-3.55444 1.38816,-7.85075 3.08478,-9.54738 1.69666,-1.69665 2.66709,-6.99381 2.15651,-11.77149 l -0.92827,-8.6867 -19.94503,18.38478 c -10.96976,10.11164 -21.04991,18.38478 -22.40035,18.38478 -1.35043,0 -6.19125,2.76209 -10.75738,6.13797 C 73.79758,996.97044 65,996.33156 65,989.39295 c 0,-4.19656 7.97281,-11.86194 28.75345,-27.64474 22.46251,-17.06014 46.00784,-41.43961 45.96149,-47.58974 -0.11559,-15.31791 -4.64802,-14.55388 -26.31639,4.43602 -11.59552,10.16222 -21.51408,19.44717 -22.04121,20.63325 -0.52717,1.18607 -2.72721,2.1565 -4.88898,2.1565 -2.1618,0 -5.12855,2.14076 -6.59282,4.75723 -3.13174,5.59614 -12.0002,3.30616 -12.0002,-3.09861 0,-4.87348 6.78475,-12.0738 28.39697,-30.13623 28.01865,-23.41667 34.36244,-30.63436 31.46915,-35.80437 -4.15694,-7.42802 -15.72451,-4.8767 -27.65619,6.09976 -18.48559,17.00568 -30.15049,21.69085 -33.33608,13.38933 -1.79873,-4.68736 2.05713,-9.06013 28.59441,-32.42751 8.48445,-7.47098 12.78945,-13.07373 10.66853,-13.88466 -1.95563,-0.74777 -6.16465,-3.52181 -9.35332,-6.1646 -6.82348,-5.65531 -12.36755,-30.93655 -8.40705,-38.33677 1.44449,-2.69908 2.62634,-10.71549 2.62634,-17.81431 0,-10.57891 1.59576,-14.50264 8.84721,-21.75411 7.72688,-7.72689 10.84264,-8.84721 24.60484,-8.84721 21.52782,0 40.63,5.24981 45.76192,12.57667 9.58585,13.6857 -2.23121,79.24591 -14.32934,79.49831 -1.68559,0.0351 -5.85305,2.2995 -9.261,5.03185 l -6.19628,4.96791 6.57261,14.37672 c 11.81605,25.84605 14.5003,44.67288 10.44969,73.29217 -5.43279,38.38481 -21.56902,67.07219 -48.20377,85.69769 -9.96017,6.965 -22.78464,8.3859 -24.80609,2.7483 z m 58.5737,-197.4663 c 4.91653,-0.22974 11.2441,-11.55057 11.2441,-20.11695 0,-6.26534 -10.18246,-8.85016 -34.86356,-8.85016 -16.55198,0 -16.89265,0.16102 -16.89265,7.98624 0,15.61286 11.86727,24.22872 30.19112,21.9193 3.16288,-0.39861 7.80734,-0.82091 10.32099,-0.93843 z m 11.2441,-48.63298 c 0,-5.95874 -1.97862,-9.06601 -7.32365,-11.50137 -10.76569,-4.9052 -30.14655,-4.14608 -36.29896,1.42177 -8.56924,7.75506 -6.50989,12.47416 5.52429,12.65911 5.9304,0.0911 15.95816,1.23625 22.28392,2.54468 6.32576,1.30845 12.47181,2.52777 13.65789,2.70963 1.18608,0.18201 2.15651,-3.34336 2.15651,-7.83382 z"
       id="path3002"
       inkscape:connector-curvature="0" />
  </g>
</svg>
