<?xml version="1.0" encoding="UTF-8" standalone="no"?>
<!-- Created with Inkscape (http://www.inkscape.org/) -->

<svg
   xmlns:dc="http://purl.org/dc/elements/1.1/"
   xmlns:cc="http://creativecommons.org/ns#"
   xmlns:rdf="http://www.w3.org/1999/02/22-rdf-syntax-ns#"
   xmlns:svg="http://www.w3.org/2000/svg"
   xmlns="http://www.w3.org/2000/svg"
   xmlns:sodipodi="http://sodipodi.sourceforge.net/DTD/sodipodi-0.dtd"
   xmlns:inkscape="http://www.inkscape.org/namespaces/inkscape"
   width="300"
   height="300"
   id="svg2"
   version="1.1"
   inkscape:version="0.48.4 r9939"
   sodipodi:docname="image-seal.svg">
  <defs
     id="defs4" />
  <sodipodi:namedview
     id="base"
     pagecolor="#ffffff"
     bordercolor="#666666"
     borderopacity="1.0"
     inkscape:pageopacity="0.0"
     inkscape:pageshadow="2"
     inkscape:zoom="2.0018437"
     inkscape:cx="145.03351"
     inkscape:cy="130.6666"
     inkscape:document-units="px"
     inkscape:current-layer="layer1"
     showgrid="false"
     inkscape:window-width="1215"
     inkscape:window-height="1000"
     inkscape:window-x="65"
     inkscape:window-y="24"
     inkscape:window-maximized="1"
     fit-margin-top="10"
     fit-margin-left="10"
     fit-margin-right="10"
     fit-margin-bottom="10" />
  <metadata
     id="metadata7">
    <rdf:RDF>
      <cc:Work
         rdf:about="">
        <dc:format>image/svg+xml</dc:format>
        <dc:type
           rdf:resource="http://purl.org/dc/dcmitype/StillImage" />
        <dc:title />
      </cc:Work>
    </rdf:RDF>
  </metadata>
  <g
     inkscape:label="Calque 1"
     inkscape:groupmode="layer"
     id="layer1"
     transform="translate(0,-752.36218)">
    <path
       style="fill:#000000"
       d="m 90.045983,1046.1804 c -1.34893,-2.1827 -0.8966,-17.1958 2.09532,-69.54524 2.19163,-38.34695 2.67012,-40.11754 12.168817,-45.0295 6.6513,-3.43955 9.7536,-3.65874 17.77361,-1.25589 5.34374,1.60102 10.45226,4.10244 11.35229,5.55868 1.6391,2.65217 2.94859,20.98161 5.51552,77.20295 1.32932,29.1159 1.20453,30.0769 -3.90491,30.0769 -6.26263,0 -7.67317,-7.3086 -9.3863,-48.63498 -0.6128,-14.78248 -1.84721,-30.33289 -2.74315,-34.55646 -0.89593,-4.22357 -2.00711,-9.40703 -2.4693,-11.51882 -0.46218,-2.11178 -0.92847,-4.70352 -1.03618,-5.75941 -0.10776,-1.05589 -2.52812,-1.9198 -5.37867,-1.9198 -8.04966,0 -9.93463,9.22921 -10.30528,50.45711 -0.18737,20.83386 -0.95163,41.07656 -1.69854,44.98366 -1.36761,7.1542 -9.523807,13.9201 -11.983227,9.9408 z m 109.892947,-17.7105 c 0.95675,-8.0952 3.91934,-24.2662 6.58352,-35.93552 2.66417,-11.66931 4.85039,-27.79565 4.85825,-35.8363 0.008,-8.04068 1.10345,-18.65097 2.43469,-23.57847 1.96568,-7.27572 4.39891,-31.18293 5.47106,-53.75449 0.24241,-5.10094 -1.18972,-10.75817 -3.7688,-14.88879 -1.15726,-1.85348 -1.45337,-4.02073 -0.65801,-4.8161 2.74918,-2.74918 -3.69061,-11.01196 -8.58244,-11.01196 -5.8426,0 -10.22557,13.11015 -10.26921,30.71685 -0.0154,6.33535 -1.08589,15.55041 -2.3782,20.4779 -1.29234,4.9275 -3.04054,16.44632 -3.88492,25.59738 -1.52066,16.48046 -3.6147,27.551 -8.95741,47.35515 -1.51923,5.63142 -3.89247,15.99836 -5.27383,23.03764 -3.4922,17.79591 -10.55941,31.93181 -15.9819,31.96741 -6.18356,0.04 -5.69412,-7.1537 2.26186,-33.24728 3.6487,-11.96677 7.73378,-29.17791 9.078,-38.24696 1.3442,-9.06907 3.45893,-18.38557 4.69935,-20.70336 2.12502,-3.97064 6.62675,-33.20408 9.05441,-58.79762 0.60092,-6.33535 1.71098,-15.14922 2.46679,-19.58634 0.91017,-5.34335 0.0545,-9.38728 -2.53419,-11.97592 -2.14962,-2.14961 -3.90839,-5.65051 -3.90839,-7.77976 0,-2.12926 -0.96238,-4.46617 -2.13863,-5.19314 -2.40032,-1.48347 1.36367,-25.40084 5.35197,-34.00799 3.29751,-7.1163 12.30361,-10.58336 30.01953,-11.55655 11.52832,-0.6333 14.18543,0.003 14.8781,3.56262 0.84171,4.32586 -3.36002,5.75588 -23.48724,7.99368 -9.95827,1.10719 -14.38478,8.02106 -14.38478,22.46799 0,11.22456 0.55785,12.25352 8.06118,14.86921 4.43367,1.54557 10.19308,2.81014 12.79869,2.81014 2.60563,0 4.73751,1.15188 4.73751,2.55973 0,1.40786 2.02258,2.55974 4.49462,2.55974 7.77052,0 11.71423,13.67486 9.85376,34.16818 -0.91405,10.06854 -2.77393,30.97715 -4.13305,46.46356 -1.35912,15.48642 -3.03416,31.61276 -3.72232,35.83633 -0.68816,4.22357 -1.70205,14.01457 -2.25306,21.75777 -1.27659,17.93975 -9.00388,54.05037 -12.46144,58.23397 -1.45437,1.7598 -4.31398,3.1997 -6.35468,3.1997 -3.01217,0 -3.38303,-2.7697 -1.97082,-14.7184 z M 71.220773,962.14121 c -2.19766,-0.88677 -3.19967,-7.91914 -3.19967,-22.45592 0,-20.03788 0.41007,-21.5939 7.70148,-29.22368 5.18951,-5.43031 10.13257,-8.05885 15.15503,-8.05885 6.22275,0 7.735886,-1.2854 9.163247,-7.78406 2.59027,-11.79348 -1.353131,-14.6674 -17.240317,-12.56465 -17.48997,2.31487 -28.95637,-3.36757 -19.25898,-9.54429 5.04076,-3.21068 76.889627,-3.27705 80.826817,-0.0747 2.48391,2.02035 3.97688,1.81934 5.56433,-0.74921 1.79281,-2.90082 2.87018,-2.92892 6.20424,-0.16203 6.75976,5.61008 4.62529,7.34515 -9.16739,7.45196 -15.20369,0.11775 -26.68002,4.138 -28.98896,10.15502 -2.31989,6.04554 5.52742,10.71204 18.01375,10.71204 8.12688,0 12.29401,1.61348 17.42892,6.74839 5.94069,5.94072 6.74422,8.77461 6.71342,23.67758 -0.0673,32.57136 -7.87925,39.37214 -10.39192,9.04675 -2.39271,-28.87766 -2.66407,-29.25217 -21.1024,-29.12229 -8.70421,0.0614 -20.85247,1.08251 -26.99607,2.26931 -13.654357,2.63771 -25.067557,12.87912 -22.059257,19.7944 1.12503,2.58613 1.90926,5.42608 1.74275,6.31101 -0.30266,1.60836 -2.54264,19.7224 -2.88728,23.34849 -0.2012,2.11803 -2.36267,2.18523 -7.22174,0.22449 z M 116.65612,856.4128 c 0,-1.36091 -3.81404,-6.28843 -8.47563,-10.95002 -4.66159,-4.66162 -11.284907,-13.62708 -14.718487,-19.92331 -3.43358,-6.29622 -7.10678,-11.83162 -8.16267,-12.3009 -4.29557,-1.90916 -1.56106,-17.05203 4.51865,-25.02295 9.097286,-11.92715 36.517247,-32.48049 41.024427,-30.7509 5.4911,2.10713 4.55211,9.27194 -1.2151,9.27194 -2.72085,0 -5.66867,2.27384 -6.55073,5.05297 -0.88209,2.77913 -5.27926,7.61998 -9.77152,10.75745 -10.93494,7.63711 -17.134367,14.8107 -17.091907,19.77764 0.0684,8.00407 3.171696,15.60669 6.370347,15.60669 6.45527,0 18.09491,-7.82322 28.49902,-19.15469 9.83003,-10.70626 19.1988,-14.65097 22.41954,-9.4397 0.72146,1.16734 -8.30919,10.59158 -20.06812,20.94275 -21.45574,18.88713 -23.06426,22.07039 -15.18408,30.04935 5.56208,5.63183 25.71159,2.94621 31.68285,-4.2228 0.70393,-0.84515 5.02348,-3.61752 9.59902,-6.16088 7.75656,-4.31155 8.31914,-4.328 8.31914,-0.24369 0,5.81314 -19.38146,24.06589 -25.55409,24.06589 -2.67334,0 -5.57252,1.15188 -6.44263,2.55974 -2.03084,3.28596 -19.19803,3.36226 -19.19803,0.0852 z"
       id="path3002"
       inkscape:connector-curvature="0" />
  </g>
</svg>
