<?xml version="1.0" encoding="UTF-8" standalone="no"?>
<!-- Created with Inkscape (http://www.inkscape.org/) -->

<svg
   xmlns:dc="http://purl.org/dc/elements/1.1/"
   xmlns:cc="http://creativecommons.org/ns#"
   xmlns:rdf="http://www.w3.org/1999/02/22-rdf-syntax-ns#"
   xmlns:svg="http://www.w3.org/2000/svg"
   xmlns="http://www.w3.org/2000/svg"
   xmlns:sodipodi="http://sodipodi.sourceforge.net/DTD/sodipodi-0.dtd"
   xmlns:inkscape="http://www.inkscape.org/namespaces/inkscape"
   version="1.0"
   width="300"
   height="300"
   id="svg2"
   inkscape:version="0.48.4 r9939"
   sodipodi:docname="dessin.svg">
  <metadata
     id="metadata2990">
    <rdf:RDF>
      <cc:Work
         rdf:about="">
        <dc:format>image/svg+xml</dc:format>
        <dc:type
           rdf:resource="http://purl.org/dc/dcmitype/StillImage" />
      </cc:Work>
    </rdf:RDF>
  </metadata>
  <sodipodi:namedview
     pagecolor="#ffffff"
     bordercolor="#666666"
     borderopacity="1"
     objecttolerance="10"
     gridtolerance="10"
     guidetolerance="10"
     inkscape:pageopacity="0"
     inkscape:pageshadow="2"
     inkscape:window-width="1215"
     inkscape:window-height="1000"
     id="namedview2988"
     showgrid="false"
     inkscape:zoom="2.2250294"
     inkscape:cx="124.56767"
     inkscape:cy="138.09744"
     inkscape:window-x="65"
     inkscape:window-y="24"
     inkscape:window-maximized="1"
     inkscape:current-layer="svg2" />
  <defs
     id="defs5" />
  <path
     style="fill:#000000"
     d="m 89.122152,288.15776 c 0,-1.48482 1.119107,-4.78099 2.486899,-7.32482 2.84551,-5.292 10.682109,-36.71485 13.127489,-52.63785 1.24992,-8.13887 0.40782,-12.1714 -3.4947,-16.73473 l -5.141415,-6.01205 -6.264037,6.08045 c -3.445207,3.34421 -9.510656,9.96154 -13.478736,14.70516 -8.525319,10.1915 -23.118247,20.61641 -25.57607,18.27108 -0.952672,-0.90908 2.259866,-5.37719 7.138982,-9.92912 4.879115,-4.55196 8.871119,-9.93197 8.871119,-11.9556 0,-2.02362 0.990695,-3.6793 2.201541,-3.6793 1.210853,0 6.235206,-6.35094 11.165236,-14.11323 7.727661,-12.1671 8.963692,-16.57457 8.963692,-31.96289 0,-13.38554 -0.961675,-17.84968 -3.845176,-17.84968 -7.403938,0 -11.126126,-8.34013 -11.420437,-25.58911 -0.355962,-20.86297 1.613553,-25.05697 9.559948,-20.35756 9.199158,5.44028 21.554473,4.23419 23.339203,-2.27831 2.20119,-8.032248 8.20222,-4.90927 11.12386,5.78895 5.09328,18.65004 -1.49669,42.43603 -11.75698,42.43603 -8.491671,0 -4.99402,28.62485 5.20434,42.59277 11.08961,15.18856 9.40339,25.87899 -12.712656,80.59757 -4.672919,11.56155 -9.492102,16.61434 -9.492102,9.95224 z M 105.54337,135.80359 c 1.25662,-3.24153 1.7499,-7.84543 1.09616,-10.23088 -1.01474,-3.70291 -2.80098,-3.92649 -12.214452,-1.52887 -7.488156,1.90724 -10.555564,3.97784 -9.560057,6.45337 0.806196,2.00478 1.465829,5.34494 1.465829,7.42258 0,2.43044 3.018234,3.77751 8.463864,3.77751 6.185836,0 9.078806,-1.58629 10.748656,-5.89371 z m 43.86041,133.74531 c 0.80301,-10.98726 2.55221,-24.17194 3.88716,-29.29934 2.47772,-9.51694 3.91263,-25.87404 3.2128,-36.62413 -0.59352,-9.11669 -6.86404,-7.1679 -12.85568,3.99535 -6.79171,12.65384 -18.41929,28.01736 -20.0365,26.47417 -0.67859,-0.64754 1.99916,-7.92188 5.95055,-16.16521 3.9514,-8.2433 8.28766,-20.07795 9.63617,-26.29922 1.34852,-6.22127 3.58343,-14.90721 4.96649,-19.30211 3.41101,-10.83914 1.80738,-15.89019 -6.37088,-20.06677 -10.52487,-5.37499 -13.31245,-21.35339 -7.87734,-45.15317 1.33614,-5.85093 1.82754,-6.08335 4.22367,-1.99768 4.89821,8.35211 27.55595,5.3492 27.55595,-3.65208 0,-2.773203 0.95394,-5.042182 2.11986,-5.042182 4.48516,0 8.60846,10.425852 9.06507,22.921202 0.93429,25.56827 0.47382,27.30639 -8.39362,31.68208 -5.52069,2.72422 -8.37392,6.16367 -8.37392,10.09442 0,7.08866 9.83861,33.65408 13.89885,37.52852 3.49736,3.33732 3.75849,23.99161 0.38335,30.32277 -4.30808,8.08121 -7.92586,17.37159 -15.285,39.2516 l -7.16697,21.30859 1.45999,-19.97681 z m 7.18782,-132.25978 c 2.80753,-2.4245 5.10457,-7.88716 5.10457,-12.13924 0,-7.44812 -0.43415,-7.70108 -11.86306,-6.91201 -11.46189,0.79135 -11.89189,1.14925 -12.71542,10.58375 -0.66299,7.59523 0.26713,10.04165 4.18697,11.01121 8.78832,2.17386 10.0713,1.96038 15.28694,-2.54371 z m 43.37412,145.57765 c 0.80294,-2.92995 2.26285,-5.32714 3.24425,-5.32714 0.98139,0 3.45238,-3.89549 5.49107,-8.65661 2.03869,-4.76115 4.77224,-11.05385 6.07454,-13.98379 9.76861,-21.97733 17.84535,-73.29479 15.59268,-99.07196 -1.28023,-14.64977 -5.96455,-27.44784 -10.04642,-27.44784 -1.96054,0 -8.38211,20.03667 -8.38211,26.15389 0,9.05063 -11.09687,39.94663 -22.41569,62.40998 -5.92232,11.75343 -14.04841,18.40831 -9.75726,7.99071 1.97272,-4.78916 7.95418,-22.46914 12.39067,-36.62413 4.25691,-13.58219 8.19864,-33.86601 10.00795,-51.50039 1.32002,-12.86496 0.70973,-18.36174 -2.56874,-23.13634 -13.13717,-19.132319 -16.0133,-26.675065 -16.34239,-42.858366 -0.45519,-22.381823 5.49742,-33.744002 21.14069,-40.3528 12.44954,-5.259552 17.73595,-3.955493 26.8807,6.630989 6.96004,8.057331 8.57717,12.359411 8.57717,22.81819 0,11.186408 -1.3212,14.184614 -10.0027,22.699403 -9.09236,8.917777 -9.82588,9.204596 -8.06018,3.151663 1.06836,-3.662416 3.05738,-7.797616 4.42004,-9.189334 1.36269,-1.391718 2.47759,-7.843474 2.47759,-14.337238 0,-14.54661 -7.81098,-22.659034 -19.19248,-19.933179 -11.4307,2.737644 -14.30323,7.333306 -14.30323,22.883456 0,18.734979 5.52595,28.781116 23.43511,42.604776 20.79971,16.05481 26.80845,29.27457 26.80845,58.9811 0,12.97095 -1.35554,28.51707 -3.01229,34.5469 -1.65678,6.02983 -4.33303,15.75777 -5.94728,21.61763 -1.61421,5.85988 -5.28302,15.73532 -8.15291,21.94545 -2.86992,6.21015 -5.21798,12.50285 -5.21798,13.98377 0,1.48092 -1.2561,2.69261 -2.79132,2.69261 -1.53521,0 -2.7913,1.30675 -2.7913,2.9039 0,3.49721 -14.58742,23.59436 -17.18435,23.67499 -1.0077,0.0312 -1.17523,-2.34035 -0.37228,-5.27029 z M 50.043831,110.88839 c 0,-0.83028 4.394215,-5.92437 9.764924,-11.320198 5.370707,-5.39583 10.479705,-11.908167 11.353343,-14.471857 0.873622,-2.563691 2.535941,-4.661255 3.694047,-4.661255 1.158094,0 4.944029,-5.993044 8.413193,-13.317876 3.469164,-7.324831 7.21417,-13.317873 8.322239,-13.317873 1.108082,0 5.088051,-5.974407 8.844373,-13.27646 3.75634,-7.302051 7.77177,-13.295093 8.92319,-13.317874 1.15141,-0.02291 2.09349,-2.367893 2.09349,-5.211369 0,-11.18085 6.40283,-9.204332 16.74785,5.169953 3.69011,5.127381 7.50521,9.921817 8.47798,10.6543 0.9728,0.732482 2.91744,3.267202 4.32144,5.632713 3.29794,5.55642 16.43992,21.099335 28.19223,33.342705 8.56535,8.923267 11.46036,14.29608 7.70308,14.29608 -2.8785,0 -34.73819,-21.491037 -34.73819,-23.432743 0,-1.05911 -2.89748,-4.909927 -6.43884,-8.557373 -3.54138,-3.647446 -8.24431,-10.5272 -10.45098,-15.288338 -2.20667,-4.761141 -4.64756,-8.641783 -5.42421,-8.623647 -2.09536,0.04893 -13.97299,18.102359 -13.97299,21.238275 0,1.485508 -1.05447,2.700926 -2.34327,2.700926 -2.47904,0 -8.821962,11.696611 -8.821962,16.268065 0,1.728025 6.780592,2.076477 18.841342,0.968246 14.09356,-1.295022 20.82798,-0.734983 26.72529,2.222498 12.10954,6.072873 4.54562,8.243069 -29.22182,8.38418 L 81.244909,87.094019 67.241474,99.746 c -13.313199,12.02836 -17.197643,14.5451 -17.197643,11.14239 z"
     id="path3248"
     inkscape:connector-curvature="0" />
</svg>
