<?xml version="1.0" encoding="UTF-8" standalone="no"?>
<svg
   xmlns:dc="http://purl.org/dc/elements/1.1/"
   xmlns:cc="http://creativecommons.org/ns#"
   xmlns:rdf="http://www.w3.org/1999/02/22-rdf-syntax-ns#"
   xmlns:svg="http://www.w3.org/2000/svg"
   xmlns="http://www.w3.org/2000/svg"
   version="1.1"
   id="svg428"
   width="300"
   height="300"
   viewBox="0 0 300 300">
  <metadata
     id="metadata434">
    <rdf:RDF>
      <cc:Work
         rdf:about="">
        <dc:format>image/svg+xml</dc:format>
        <dc:type
           rdf:resource="http://purl.org/dc/dcmitype/StillImage" />
        <dc:title></dc:title>
      </cc:Work>
    </rdf:RDF>
  </metadata>
  <defs
     id="defs432" />
  <path
     style="fill:#000000;stroke-width:0.69250554"
     d="m 127.46977,249.39079 c 12.00933,-35.73872 28.70854,-72.98269 32.918,-107.64275 -11.9682,-4.50735 -33.73061,-17.27548 -33.73061,-17.27548 -3.18839,34.9241 -20.13416,66.80742 -37.617891,97.24846 -4.991298,8.69038 -18.514888,16.26162 -13.716904,0.56457 1.311689,-4.29132 3.275041,-6.17125 13.400981,-25.04393 16.892714,-31.48457 25.431634,-52.97004 27.823464,-93.96684 0.94234,-16.152067 1.23914,-24.931735 3.27949,-25.737488 10.67561,-4.215911 8.47078,26.051468 8.39009,33.219918 6.189,5.926 26.33789,16.73709 33.67474,18.18578 2.35302,-23.96508 0.64883,-33.857714 -10.38155,-46.530189 C 144.9073,74.82766 135.93931,70.47287 112.60573,62.992884 91.559667,56.246198 90.472261,33.293048 104.35377,23.12303 c 5.65847,-3.867426 13.51325,-6.19297 23.62059,-7.084105 11.53651,-1.017143 69.45809,-1.235651 78.895,-0.879515 8.52693,0.321794 15.19243,6.351965 7.58696,9.278906 -2.75299,1.059478 -8.36727,1.287371 -41.55033,1.95619 -40.046,0.807144 -46.97802,1.335142 -56.01172,4.266319 -7.22285,2.343601 -9.38773,5.554517 -9.69508,12.565468 -0.38037,8.67652 22.83666,13.903546 29.91505,16.450953 19.23945,6.923994 31.14107,20.875023 35.1672,36.817433 3.03159,12.004301 2.42077,18.841151 1.57669,31.177851 14.68836,-4.94722 27.77675,-14.9314 40.00963,-25.43645 l -0.15295,-14.888884 c -0.13405,-13.049822 -0.003,-15.170647 1.06102,-17.170137 6.49241,-9.839367 8.74912,-1.432367 10.15957,5.1008 1.00161,4.824774 1.00695,17.166695 0.0198,46.002111 -1.22916,35.90784 -5.20754,62.05992 -13.1422,86.39087 -3.66268,11.23128 -7.02691,18.49058 -14.46718,35.57531 -1.31047,3.00917 -11.04379,23.47886 -14.87323,13.48576 -1.01838,-2.65751 0.17423,-5.9654 8.64794,-26.31868 5.67236,-13.62466 7.89515,-19.66504 12.37615,-36.08598 6.90953,-25.8046 9.04211,-52.01119 9.90316,-77.14218 -12.1347,10.72121 -29.73071,20.35814 -41.6719,24.50778 -5.06838,42.57937 -23.95471,84.71904 -42.1186,133.22301 -1.83481,4.89958 -5.63576,9.80893 -10.40567,10.08191 -5.03511,0.28816 5.1416,-27.40502 8.26607,-35.60698 z"
     id="path438" />
</svg>
