<?xml version="1.0" encoding="UTF-8" standalone="no"?>
<!-- Created with Inkscape (http://www.inkscape.org/) -->

<svg
   xmlns:dc="http://purl.org/dc/elements/1.1/"
   xmlns:cc="http://creativecommons.org/ns#"
   xmlns:rdf="http://www.w3.org/1999/02/22-rdf-syntax-ns#"
   xmlns:svg="http://www.w3.org/2000/svg"
   xmlns="http://www.w3.org/2000/svg"
   xmlns:sodipodi="http://sodipodi.sourceforge.net/DTD/sodipodi-0.dtd"
   xmlns:inkscape="http://www.inkscape.org/namespaces/inkscape"
   width="300"
   height="300"
   id="svg2"
   version="1.1"
   inkscape:version="0.48.4 r9939"
   sodipodi:docname="image-seal.svg">
  <defs
     id="defs4" />
  <sodipodi:namedview
     id="base"
     pagecolor="#ffffff"
     bordercolor="#666666"
     borderopacity="1.0"
     inkscape:pageopacity="0.0"
     inkscape:pageshadow="2"
     inkscape:zoom="2.0506101"
     inkscape:cx="158.68577"
     inkscape:cy="132.31986"
     inkscape:document-units="px"
     inkscape:current-layer="layer1"
     showgrid="false"
     inkscape:window-width="1215"
     inkscape:window-height="1000"
     inkscape:window-x="65"
     inkscape:window-y="24"
     inkscape:window-maximized="1"
     fit-margin-top="10"
     fit-margin-left="10"
     fit-margin-right="10"
     fit-margin-bottom="10" />
  <metadata
     id="metadata7">
    <rdf:RDF>
      <cc:Work
         rdf:about="">
        <dc:format>image/svg+xml</dc:format>
        <dc:type
           rdf:resource="http://purl.org/dc/dcmitype/StillImage" />
        <dc:title />
      </cc:Work>
    </rdf:RDF>
  </metadata>
  <g
     inkscape:label="Calque 1"
     inkscape:groupmode="layer"
     id="layer1"
     transform="translate(0,-752.36218)">
    <path
       style="fill:#000000"
       d="m 95.787096,1043.8147 c -2.01296,-2.4255 -2.19084,-6.8862 -0.52858,-13.2556 1.37794,-5.28 3.965969,-17.1348 5.751204,-26.344 1.78521,-9.2091 4.33782,-22.39495 5.67245,-29.30182 4.83113,-25.00155 8.19937,-53.02213 8.19937,-68.21098 l 0,-15.50871 -9.40633,0 -9.406344,0 -3.16168,21.62759 c -1.73891,11.89517 -4.31881,27.90656 -5.73306,35.58087 -1.41428,7.6743 -3.39406,19.60436 -4.39956,26.51123 -2.80706,19.28221 -6.88608,27.90652 -13.19882,27.90652 -4.75584,0 -5.31704,-1.311 -3.88234,-9.06959 0.92243,-4.9883 2.95428,-15.97651 4.51523,-24.41824 1.56092,-8.44174 4.15467,-21.62759 5.76382,-29.30189 1.60918,-7.67431 4.08909,-23.76345 5.5109,-35.75367 1.42184,-11.99019 3.13877,-22.6961 3.81539,-23.79093 0.67662,-1.0948 1.52869,-10.12157 1.89349,-20.05946 0.78096,-21.27496 1.84353,-25.04555 7.05796,-25.04555 2.98087,0 3.887409,4.93262 3.887409,21.15167 l 0,21.15164 9.069625,-1.96767 c 11.34634,-2.46158 12.68501,-4.59724 11.90025,-18.98503 -1.11654,-20.46999 -4.80693,-30.09893 -16.05813,-41.89841 -12.318144,-12.91845 -16.074364,-18.85588 -16.074364,-25.40862 0,-6.63632 15.978984,-21.01933 23.351674,-21.01933 3.52842,0 7.31336,-0.89803 8.41095,-1.99565 2.62679,-2.62676 26.5186,-8.88696 34.51545,-9.04382 4.23161,-0.0829 6.27898,1.51474 6.27898,4.90003 0,8.0473 -5.83663,11.72075 -18.62275,11.72075 -13.37341,0 -37.19038,10.26021 -37.19038,16.02138 0,2.06062 2.67194,6.51962 5.93765,9.90887 3.26571,3.38928 9.54469,11.74529 13.95328,18.56894 7.09656,10.98411 8.01563,14.92407 8.01563,34.36236 l 0,21.95571 9.06964,-0.87448 9.06963,-0.87448 1.39533,-19.31586 c 1.4306,-19.8044 5.58979,-25.98026 10.8621,-16.12888 5.09654,9.523 0.48507,145.70683 -5.75972,170.09391 -2.30522,9.0022 -4.38605,11.8603 -8.63505,11.8603 -5.08142,0 -5.42464,-1.2231 -3.71969,-13.2557 1.03302,-7.29058 2.4711,-28.953 3.19569,-48.13876 0.72462,-19.18576 1.94255,-43.35982 2.70655,-53.72013 1.33555,-18.11086 1.14632,-18.83528 -4.90938,-18.7942 -12.85728,0.0873 -15.02266,3.517 -17.59165,27.86383 -0.72878,6.90688 -2.00919,16.95324 -2.84533,22.32525 -0.83614,5.37202 -2.80377,19.18576 -4.37254,30.69722 -5.16617,37.90929 -7.42454,51.50439 -10.19859,61.39439 -5.66068,20.1814 -8.18048,23.018 -14.105364,15.879 z m 104.209454,-38.6498 c -9.99738,-5.49268 -17.6838,-15.4058 -20.73692,-26.74421 -3.88973,-14.44539 -3.72388,-128.92137 0.20316,-140.18633 1.61727,-4.63935 3.9197,-8.4352 5.11647,-8.4352 4.76438,0 8.87287,8.60183 8.26816,17.31083 -0.35134,5.06021 -0.45627,17.19552 -0.23302,26.96734 l 0.40568,17.7669 7.6743,-1.77616 c 4.22087,-0.9769 12.38354,-2.54444 18.13927,-3.48341 9.40183,-1.53383 10.4951,-2.59132 10.76161,-10.40946 0.16325,-4.7862 0.57624,-10.58588 0.91798,-12.88817 0.34175,-2.30229 0.83614,-11.40681 1.09868,-20.23226 0.35369,-11.88998 1.51893,-16.04627 4.49862,-16.04627 2.21171,0 4.80568,1.26916 5.76438,2.82038 2.45815,3.97735 2.76741,153.54319 0.33279,160.94409 -2.1207,6.44672 -22.13035,17.68633 -31.23177,17.54333 -2.96887,-0.047 -7.9095,-1.4648 -10.97922,-3.1514 z m 28.85394,-20.61562 c 3.58897,-7.87691 4.59975,-81.1183 1.14562,-83.0098 -1.15115,-0.63038 -10.73064,-0.54795 -21.28777,0.18306 l -19.19475,1.32933 1.29364,35.23299 c 1.65804,45.15753 5.16207,53.37224 22.76631,53.37224 10.19212,0 12.53504,-1.09011 15.27695,-7.10794 z"
       id="path3041"
       inkscape:connector-curvature="0" />
  </g>
</svg>
