<?xml version="1.0" encoding="UTF-8" standalone="no"?>
<!-- Created with Inkscape (http://www.inkscape.org/) -->

<svg
   xmlns:dc="http://purl.org/dc/elements/1.1/"
   xmlns:cc="http://creativecommons.org/ns#"
   xmlns:rdf="http://www.w3.org/1999/02/22-rdf-syntax-ns#"
   xmlns:svg="http://www.w3.org/2000/svg"
   xmlns="http://www.w3.org/2000/svg"
   xmlns:sodipodi="http://sodipodi.sourceforge.net/DTD/sodipodi-0.dtd"
   xmlns:inkscape="http://www.inkscape.org/namespaces/inkscape"
   width="300"
   height="300"
   id="svg2"
   version="1.1"
   inkscape:version="0.48.4 r9939"
   sodipodi:docname="image-seal.svg">
  <defs
     id="defs4" />
  <sodipodi:namedview
     id="base"
     pagecolor="#ffffff"
     bordercolor="#666666"
     borderopacity="1.0"
     inkscape:pageopacity="0.0"
     inkscape:pageshadow="2"
     inkscape:zoom="2.0506101"
     inkscape:cx="158.68577"
     inkscape:cy="132.31986"
     inkscape:document-units="px"
     inkscape:current-layer="layer1"
     showgrid="false"
     inkscape:window-width="1215"
     inkscape:window-height="1000"
     inkscape:window-x="65"
     inkscape:window-y="24"
     inkscape:window-maximized="1"
     fit-margin-top="10"
     fit-margin-left="10"
     fit-margin-right="10"
     fit-margin-bottom="10" />
  <metadata
     id="metadata7">
    <rdf:RDF>
      <cc:Work
         rdf:about="">
        <dc:format>image/svg+xml</dc:format>
        <dc:type
           rdf:resource="http://purl.org/dc/dcmitype/StillImage" />
        <dc:title />
      </cc:Work>
    </rdf:RDF>
  </metadata>
  <g
     inkscape:label="Calque 1"
     inkscape:groupmode="layer"
     id="layer1"
     transform="translate(0,-752.36218)">
    <path
       style="fill:#000000"
       d="m 114.80981,1046.6273 c -2.8286,-2.8286 -2.18711,-19.1126 0.82628,-20.9752 1.46825,-0.9074 2.66955,-4.5113 2.66955,-8.0086 0,-3.4974 1.2013,-7.1013 2.66955,-8.0087 1.46826,-0.9074 2.66955,-5.1047 2.66955,-9.3271 0,-4.22243 1.02541,-10.45851 2.27865,-13.85765 1.25328,-3.39914 3.0781,-9.48385 4.05521,-13.52155 1.7732,-7.32765 1.74947,-7.34126 -12.76507,-7.34126 l -14.54159,0 -5.545956,15.34992 c -3.05029,8.44246 -6.74049,17.43588 -8.20047,19.98534 -1.45997,2.5496 -2.65732,6.1535 -2.66077,8.0086 -0.008,4.6183 -14.07062,20.7253 -18.0939,20.7253 -3.83671,0 -4.29619,-8.7841 -0.80482,-15.3862 12.03752,-22.76215 24.2441,-56.07015 24.2441,-66.15438 0,-4.51208 1.6378,-10.44355 3.63954,-13.18091 3.47831,-4.75688 3.8429,-4.66718 8.230036,2.02859 2.76039,4.21282 3.89837,9.18646 2.85444,12.47562 -1.59337,5.02036 -0.62854,5.46991 11.74074,5.46991 11.91187,0 13.65927,-0.72692 15.04819,-6.2609 0.86429,-3.44346 1.1875,-10.95157 0.71827,-16.6847 -0.79977,-9.77136 -1.52151,-10.57143 -11.53137,-12.78288 -26.056506,-5.75681 -30.925796,-7.51914 -38.587116,-13.96571 -6.79772,-5.71992 -8.13004,-8.77073 -8.13004,-18.61666 0,-6.47662 1.2013,-11.77568 2.66955,-11.77568 1.46826,0 2.66955,-2.16234 2.66955,-4.8052 0,-6.1503 5.06182,-11.21211 11.21212,-11.21211 6.02654,0 6.4136,9.65347 0.81731,20.38387 -2.19333,4.20553 -3.99528,9.58548 -4.00433,11.95545 -0.0187,4.59131 15.750196,11.75316 32.018176,14.54297 22.85895,3.92011 29.16609,10.61516 29.28018,31.08114 l 0.0849,15.229 9.46792,1.77605 c 5.20733,0.97705 10.19357,1.05073 11.08051,0.16284 0.8869,-0.88682 2.33252,-9.04364 3.21246,-18.12599 1.617,-16.69057 3.90862,-20.10632 10.6344,-15.85127 2.90375,1.83692 3.59794,10.54927 3.24035,40.66716 -0.67876,57.16579 -3.80328,77.69509 -12.06736,79.28749 -4.39926,0.8476 -4.67901,-1.7568 -3.81236,-35.4898 0.90671,-35.29277 0.76173,-36.44788 -4.74865,-37.82937 -3.12618,-0.78378 -9.02394,-1.03099 -13.10614,-0.5494 -6.92429,0.81715 -7.9093,2.57719 -14.68329,26.23663 -11.69779,40.85694 -20.00159,59.09104 -24.74829,54.34454 z m 104.62414,-26.9817 c -0.17298,-12.8472 -0.55849,-26.96241 -0.85652,-31.36717 -4.87479,-72.05182 -4.26659,-67.81089 -12.11269,-84.46337 -4.77084,-10.12566 -10.98694,-12.06344 -51.02398,-15.90599 -32.91071,-3.15862 -36.28489,-3.98703 -41.80358,-10.26341 -7.14561,-8.12671 -8.37241,-24.17958 -1.84786,-24.17958 2.28903,0 3.49175,-1.08429 2.6727,-2.40951 -1.61433,-2.61208 12.24505,-8.2687 20.25928,-8.2687 5.24957,0 5.98733,-9.15488 5.21695,-64.73663 -0.25735,-18.57333 0.22664,-20.68903 4.73375,-20.68903 6.78272,0 12.04988,13.48594 10.31603,26.41284 -1.33955,9.98714 -1.08012,10.38485 8.68168,13.30956 5.53436,1.65814 15.16023,7.81584 21.3908,13.68378 10.0991,9.51132 11.14164,11.61012 9.60782,19.34208 -2.36821,11.93813 -9.89165,16.76323 -32.05026,20.55515 -10.42343,1.78371 -21.03765,4.34482 -23.58718,5.69135 -2.54952,1.34652 -7.05439,2.44822 -10.01082,2.44822 -7.91938,0 -6.57553,7.64359 1.96594,11.18203 4.0377,1.67266 19.35425,3.92232 34.03679,4.99921 33.35733,2.44662 41.33905,4.35751 48.05193,11.50409 12.90812,13.74211 16.62715,32.08991 19.00874,93.77925 2.0917,54.17983 1.95123,57.81873 -2.33698,60.54193 -8.49625,5.3954 -9.99619,2.3166 -10.31254,-21.1661 z M 173.69884,834.14408 c 3.59498,-2.89601 4.65632,-15.38217 1.3075,-15.38217 -1.1162,0 -5.25488,-2.99081 -9.19712,-6.64625 -9.77648,-9.06527 -14.52623,-6.66353 -13.25173,6.70084 0.84414,8.85167 0.18713,10.67527 -3.93901,10.93328 -4.47264,0.27969 -4.49979,0.42788 -0.28038,1.53054 2.56944,0.67144 4.67172,3.03015 4.67172,5.24153 0,3.13702 1.90686,3.61297 8.67604,2.16554 4.77182,-1.02033 10.17767,-3.06481 12.01298,-4.54331 z M 70.253714,852.72509 c 0,-1.87581 3.41302,-9.98884 7.58449,-18.02897 9.96196,-19.20073 13.66228,-30.84262 14.20492,-44.69108 0.54771,-13.97764 5.96928,-19.76045 11.578516,-12.34994 6.89905,9.11455 4.7373,24.14957 -7.576426,52.69448 -7.26943,16.85149 -25.7915,32.92038 -25.7915,22.37551 z M 220.35821,841.79694 c -17.09808,-18.24231 -22.77326,-32.75944 -21.51459,-55.03447 1.18451,-20.96306 5.0269,-27.73558 11.85938,-20.9031 3.47108,3.47108 3.79607,6.45799 1.74762,16.06251 -3.39863,15.93517 4.14862,36.04303 18.34086,48.86486 6.74214,6.09115 10.31355,11.63113 10.31355,15.99852 0,10.33127 -8.24654,8.34852 -20.74682,-4.98832 z"
       id="path3132"
       inkscape:connector-curvature="0" />
  </g>
</svg>
