<?xml version="1.0" encoding="UTF-8" standalone="no"?>
<!-- Created with Inkscape (http://www.inkscape.org/) -->

<svg
   xmlns:dc="http://purl.org/dc/elements/1.1/"
   xmlns:cc="http://creativecommons.org/ns#"
   xmlns:rdf="http://www.w3.org/1999/02/22-rdf-syntax-ns#"
   xmlns:svg="http://www.w3.org/2000/svg"
   xmlns="http://www.w3.org/2000/svg"
   xmlns:sodipodi="http://sodipodi.sourceforge.net/DTD/sodipodi-0.dtd"
   xmlns:inkscape="http://www.inkscape.org/namespaces/inkscape"
   width="300"
   height="300"
   id="svg2"
   version="1.1"
   inkscape:version="0.48.2 r9819"
   sodipodi:docname="劦-seal.svg">
  <defs
     id="defs4" />
  <sodipodi:namedview
     id="base"
     pagecolor="#ffffff"
     bordercolor="#666666"
     borderopacity="1.0"
     inkscape:pageopacity="0.0"
     inkscape:pageshadow="2"
     inkscape:zoom="1.979899"
     inkscape:cx="201.64977"
     inkscape:cy="145.98596"
     inkscape:document-units="px"
     inkscape:current-layer="layer1"
     showgrid="false"
     inkscape:window-width="1280"
     inkscape:window-height="999"
     inkscape:window-x="0"
     inkscape:window-y="24"
     inkscape:window-maximized="1" />
  <metadata
     id="metadata7">
    <rdf:RDF>
      <cc:Work
         rdf:about="">
        <dc:format>image/svg+xml</dc:format>
        <dc:type
           rdf:resource="http://purl.org/dc/dcmitype/StillImage" />
        <dc:title></dc:title>
      </cc:Work>
    </rdf:RDF>
  </metadata>
  <g
     inkscape:label="Calque 1"
     inkscape:groupmode="layer"
     id="layer1"
     transform="translate(0,-752.36218)">
    <path
       style="fill:#000000"
       d="m 69.314825,1024.0592 c 0,-2.9631 2.676095,-11.5681 5.946886,-19.1223 8.205269,-18.95088 12.90928,-32.35113 13.916041,-39.64245 0.691488,-5.00802 -0.698434,-6.30799 -7.388239,-6.91007 -10.302312,-0.92721 -13.335777,2.04181 -20.53529,20.09893 -3.162708,7.9324 -8.27273,16.815 -11.3556,19.7391 -10.325452,9.79369 -11.259947,-1.6605 -1.959407,-24.01658 4.579547,-11.00806 10.141505,-25.28867 12.359903,-31.73472 4.171705,-12.1218 11.924074,-15.92607 12.570179,-6.16846 0.765761,11.56466 1.332533,12.94716 5.209413,12.70704 2.190966,-0.13571 6.851772,-0.41329 10.357318,-0.61685 5.203145,-0.30213 6.373739,-2.13842 6.373739,-9.9983 0,-8.53141 -1.11607,-9.92938 -9.797823,-12.27258 -14.819887,-3.99991 -28.444591,-16.55065 -28.444591,-26.20249 0,-7.12296 1.6487,-8.70322 13.629137,-13.06329 17.011347,-6.19101 48.396929,-9.59286 51.590739,-5.59184 3.43017,4.2971 -4.42281,10.00392 -13.82349,10.04565 -4.60552,0.0198 -14.110036,1.58267 -21.12114,3.47166 -9.982675,2.68962 -12.747479,4.68838 -12.747479,9.21557 0.372835,4.31788 18.790879,12.24344 23.413194,13.854 11.159415,3.82445 16.895905,12.91831 14.354665,22.75595 -1.65542,6.40842 -0.98225,7.41555 4.95652,7.41555 3.77966,0 7.65066,-1.94305 8.60221,-4.31791 0.95155,-2.37487 3.62407,-7.64891 5.93887,-11.7201 l 4.20881,-7.40216 3.26934,6.43204 c 4.64546,9.1394 -7.1101,72.61221 -16.28805,87.94551 -7.39958,12.3623 -17.52184,1.3773 -11.93649,-12.9538 5.01323,-12.86308 9.34386,-26.82691 11.28695,-36.39393 1.75677,-8.64965 1.35056,-9.25271 -6.23233,-9.25271 -6.20911,0 -8.11157,1.26096 -8.11157,5.37644 0,6.80185 -7.595709,25.75111 -22.323593,55.6914 -4.660203,9.4737 -15.918822,11.335 -15.918822,2.6317 z M 222.92302,995.14879 c 1.2032,-25.79812 0.64767,-32.39645 -2.7524,-32.69184 -10.61226,-0.92202 -12.24127,-0.71234 -12.45915,1.6038 -0.27789,2.95262 -5.63241,31.54643 -6.23775,33.30972 -1.60567,4.67693 -5.32625,16.96243 -6.53831,21.58963 -2.04572,7.81 -12.82255,7.2997 -15.42565,-0.7303 -1.12006,-3.4551 -0.97324,-7.6139 0.32624,-9.2418 2.39158,-2.996 6.32395,-18.83607 9.51261,-38.31784 l 1.74513,-10.66229 -10.69628,0.79274 c -6.85026,0.50769 -10.74356,2.12354 -10.82773,4.49384 -0.0723,2.03559 -1.96065,8.53633 -4.19637,14.44608 -2.92589,11.47087 -4.76232,29.90767 -12.03598,38.76387 l -5.20973,6.156 -4.69836,-5.1935 c -3.81172,-4.2134 -4.03203,-7.1376 -1.16745,-15.4955 1.94202,-5.66608 4.94997,-17.51911 6.68435,-26.34003 1.73439,-8.8209 4.60411,-19.91682 6.37718,-24.65757 1.77305,-4.74078 3.22375,-11.6803 3.22375,-15.42118 0,-4.27714 1.70442,-6.8016 4.59224,-6.8016 6.17437,0 9.29333,4.39874 9.54221,13.4576 0.17369,6.31638 1.60447,7.63972 8.97034,8.29593 8.07893,0.71971 8.76388,0.10781 8.76388,-7.82923 0,-6.32457 -2.60274,-10.62509 -9.80573,-16.2019 -5.39317,-4.17558 -11.25818,-7.59195 -13.03337,-7.59195 -5.10877,0 -15.18068,-10.60474 -15.29728,-16.10651 -0.18038,-8.50812 16.93558,-16.75942 54.28762,-26.17123 16.71698,-4.21224 22.09117,-3.55469 22.09117,2.70304 0,6.23101 -5.3885,8.86057 -25.49493,12.44142 -25.20172,4.48829 -36.46176,9.27779 -31.87397,13.55769 1.9979,1.86386 7.79699,4.097 12.88683,4.96253 14.97847,2.54712 25.36087,14.2316 25.36087,28.54146 0,11.77096 0.28778,12.14764 9.28048,12.14764 8.44348,0 9.48185,-0.94581 11.51291,-10.4864 3.15691,-14.82927 5.72521,-17.94486 10.85078,-13.16325 2.24237,2.09191 4.13509,6.3258 4.20606,9.40863 0.30115,13.08608 -4.43737,55.73179 -7.20281,64.82241 -1.65133,5.4283 -3.39468,12.634 -3.87414,16.0128 -0.52918,3.7292 -3.2341,6.4922 -6.88322,7.0311 -5.70392,0.8423 -5.93437,-0.7658 -4.50404,-31.43401 z M 140.67421,887.76513 c -1.05614,-2.1309 -1.00642,-8.59775 0.11058,-14.3708 7.12118,-36.80823 6.50437,-41.00802 -5.29507,-36.05358 -3.96976,1.66685 -12.23706,3.67463 -18.37178,4.46177 -8.78966,1.12777 -11.83227,2.99228 -14.35362,8.79585 -4.816441,11.08633 -15.31186,23.56037 -19.01692,22.60201 -3.853464,-0.99676 -2.471966,-16.64117 1.770412,-20.04868 3.477895,-6.88598 8.108637,-16.65595 8.669195,-22.94868 1.090716,-13.16866 4.09004,-16.8107 11.926623,-14.48245 3.71319,1.10322 4.88783,3.49809 3.82569,7.79993 -1.47219,5.96256 -1.03621,6.15057 11.03144,4.75704 7.14556,-0.82514 14.3394,-0.31019 16.68035,1.194 5.09931,3.27662 10.21857,-0.88826 11.82127,-9.61747 1.17176,-6.38211 1.01983,-6.43312 -32.79399,-11.01968 -27.738348,-3.76247 -37.886878,-26.9909 -16.08381,-36.81337 9.22465,-4.15579 16.99912,-4.76277 61.27937,-4.7843 55.963,-0.0272 65.68606,1.93341 54.98574,11.08774 -4.23745,3.62525 -7.9106,4.38361 -15.21803,3.14186 -5.29778,-0.90022 -18.23688,-2.21068 -28.75354,-2.91212 -15.27363,-2.74053 -24.5387,1.02826 -37.34153,-0.78117 -16.54889,0 -34.36299,5.23272 -34.36299,10.09382 0,2.40788 2.85969,5.08067 6.35486,5.93955 21.93959,5.27322 15.87786,3.00231 34.92463,3.70572 18.83738,0 18.99239,0.059 21.94184,8.32925 1.63374,4.58108 2.23657,11.30148 1.33967,14.93419 -1.60058,6.48257 -1.34289,6.59543 13.91039,6.09144 20.25215,-0.66913 25.44079,-2.90899 27.78801,-11.99554 2.28015,-8.8269 10.72914,-10.06095 13.26955,-1.93817 3.69431,11.81224 -3.29242,55.31699 -9.67766,60.26067 -7.42779,5.75087 -10.70552,-1.49427 -8.76857,-19.38209 l 1.84905,-17.07617 -20.39391,0.74417 -20.39395,0.74413 -2.64255,14.80433 c -1.92053,7.38115 -7.49796,30.26484 -13.30093,34.90299 -4.26135,3.29929 -5.00119,3.28098 -6.70973,-0.1663 z"
       id="path2996"
       inkscape:connector-curvature="0"
       sodipodi:nodetypes="sssssssssssssssscsccsssscssssssssssccsssscsscccsssssscsssssssssssssssssssccssssccssssssssssccsccsssssssccccccc" />
  </g>
</svg>
