<?xml version="1.0" encoding="UTF-8" standalone="no"?>
<!-- Created with Inkscape (http://www.inkscape.org/) -->

<svg
   xmlns:dc="http://purl.org/dc/elements/1.1/"
   xmlns:cc="http://creativecommons.org/ns#"
   xmlns:rdf="http://www.w3.org/1999/02/22-rdf-syntax-ns#"
   xmlns:svg="http://www.w3.org/2000/svg"
   xmlns="http://www.w3.org/2000/svg"
   xmlns:sodipodi="http://sodipodi.sourceforge.net/DTD/sodipodi-0.dtd"
   xmlns:inkscape="http://www.inkscape.org/namespaces/inkscape"
   width="300"
   height="300"
   id="svg2"
   version="1.1"
   inkscape:version="0.91 r13725"
   sodipodi:docname="image-seal.svg">
  <defs
     id="defs4" />
  <sodipodi:namedview
     id="base"
     pagecolor="#ffffff"
     bordercolor="#666666"
     borderopacity="1.0"
     inkscape:pageopacity="0.0"
     inkscape:pageshadow="2"
     inkscape:zoom="2.7366667"
     inkscape:cx="150"
     inkscape:cy="150"
     inkscape:document-units="px"
     inkscape:current-layer="layer1"
     showgrid="false"
     inkscape:window-width="1231"
     inkscape:window-height="1000"
     inkscape:window-x="49"
     inkscape:window-y="24"
     inkscape:window-maximized="1"
     showguides="true"
     inkscape:guide-bbox="true" />
  <metadata
     id="metadata7">
    <rdf:RDF>
      <cc:Work
         rdf:about="">
        <dc:format>image/svg+xml</dc:format>
        <dc:type
           rdf:resource="http://purl.org/dc/dcmitype/StillImage" />
        <dc:title />
      </cc:Work>
    </rdf:RDF>
  </metadata>
  <g
     inkscape:label="Calque 1"
     inkscape:groupmode="layer"
     id="layer1"
     transform="translate(0,-752.36218)">
    <path
       style="fill:#000000"
       d="m 204.49574,1010.8144 c 1.10667,-20.10128 2.69293,-53.09042 3.52504,-73.30921 l 1.51294,-36.76145 -8.12435,0.93032 c -8.04154,0.92083 -8.14327,1.1787 -9.97889,25.29548 -6.61474,86.90696 -11.04315,111.79316 -19.89324,111.79316 -3.11209,0 -1.46862,-56.18387 2.72511,-93.16097 1.78806,-15.7657 3.99638,-42.20064 4.90738,-58.74433 0.91103,-16.5437 2.17111,-30.59417 2.80019,-31.22325 2.9053,-2.9053 10.13109,7.00977 8.80477,12.08168 -2.27514,8.70014 1.3146,21.98934 5.93985,21.98934 7.96454,0 12.33614,-7.96529 12.33614,-22.47707 0,-13.61013 -0.81494,-15.1148 -17.19894,-31.75512 -15.93158,-16.18088 -17.19894,-18.42727 -17.19894,-30.48516 0,-22.21068 13.04557,-29.94227 50.52189,-29.94227 16.03996,0 18.27388,0.66554 18.27388,5.44436 0,4.25304 -2.66569,5.78059 -12.18259,6.98107 -49.23707,6.21092 -56.35405,14.22511 -30.96758,34.87166 16.32486,13.27687 19.38559,19.44157 21.3477,42.99736 0.78797,9.45942 1.50112,17.61114 1.58485,18.11493 0.0837,0.50378 3.05451,0.50378 6.60179,0 5.24843,-0.7454 6.47864,-2.78448 6.60548,-10.9487 0.27031,-17.39616 4.44369,-34.39789 8.44359,-34.39789 2.20032,0 4.74539,5.12076 6.05492,12.18258 3.09696,16.7011 1.29961,68.84637 -2.50414,72.65009 -0.83859,0.83862 -0.69065,4.60756 0.32876,8.37545 3.41066,12.60645 -0.63834,103.93944 -4.78913,108.02724 -3.10028,3.0532 -4.54557,2.6927 -8.07554,-2.0143 -3.49886,-4.6655 -3.95681,-11.6041 -2.4595,-37.2643 1.01196,-17.34232 2.12289,-46.68801 2.46876,-65.21271 0.61799,-33.10131 0.51892,-33.68126 -5.75382,-33.68126 -8.16611,0 -8.99699,3.50288 -9.51881,40.13087 -0.23591,16.55398 -0.89684,33.96791 -1.46887,38.69762 -0.57204,4.7297 -1.95277,20.20878 -3.06827,34.39788 -1.9636,24.9773 -4.55138,32.9647 -10.68,32.9647 -1.95093,0 -2.25902,-12.2337 -0.92043,-36.5478 z m -144.226133,5.733 c 0.33822,-27.1827 5.41331,-52.38059 11.18954,-55.5562 2.36486,-1.30012 9.82083,-3.7424 16.56883,-5.42733 6.81784,-1.70235 11.48666,-4.32943 10.5081,-5.91279 -0.96853,-1.56711 -4.0795,-2.11344 -6.91326,-1.21405 -3.14623,0.9986 -5.80745,-0.072 -6.83503,-2.74988 -0.9255,-2.41183 -3.99279,-4.38515 -6.81617,-4.38515 -8.25059,0 -13.06185,-11.13655 -12.79968,-29.62728 0.27403,-19.32585 6.71962,-29.03158 21.89058,-32.96277 12.47761,-3.23329 13.216793,-11.29022 1.14319,-12.46084 -11.64234,-1.12876 -22.47954,-15.69283 -22.47954,-30.21011 0,-13.95597 8.22738,-11.47078 13.94212,4.21139 6.9472,19.06422 19.21934,20.36902 19.90552,2.11639 0.39035,-10.38369 9.880033,-27.19236 15.352023,-27.19236 6.95262,0 19.5961,-12.1475 19.5961,-18.82737 0,-9.39638 -10.03627,-9.32991 -21.49868,0.14246 -13.075483,10.8053 -13.462033,11.06457 -26.789093,17.96837 -13.68204,7.08768 -26.24478,8.46036 -26.23415,2.86649 0.003,-1.97071 6.77584,-7.13177 15.04908,-11.46903 8.27323,-4.33723 18.7819,-10.88329 23.35258,-14.54678 l 8.310323,-6.66089 -12.610063,-11.94094 c -9.98008,-9.45056 -11.76536,-12.4905 -8.55994,-14.5759 2.77542,-1.80566 7.49384,-0.46102 14.992093,4.27244 6.0181,3.79905 13.47135,6.90739 16.56277,6.90739 3.09143,0 6.41799,1.28992 7.39237,2.86649 0.97437,1.57657 4.33691,2.86649 7.47228,2.86649 8.87422,0 19.75938,13.65301 19.75938,24.78373 0,6.14255 -1.39217,9.61415 -3.85546,9.61415 -2.12052,0 -6.19019,2.57984 -9.04375,5.73298 -2.85354,3.15314 -7.09439,5.73298 -9.42413,5.73298 -3.87174,0 -14.64874,9.99503 -15.15405,14.05444 -0.11724,0.94118 -0.754,4.61358 -1.41524,8.16086 -1.24612,6.68495 0.47426,7.53744 13.09421,6.48865 9.60874,-0.79855 14.33245,-5.10118 14.33245,-13.0548 0,-3.61943 0.7956,-8.65408 1.76803,-11.18814 3.33117,-8.68091 9.69794,1.10449 9.69794,14.90529 0,17.0359 -9.97184,26.48889 -27.94829,26.49405 -17.72935,0.006 -16.64106,7.65479 1.43325,10.07457 19.74768,2.64379 19.35056,2.32544 23.08562,18.50652 4.43194,19.2003 4.32327,26.37401 -0.54159,35.75104 -5.3567,10.32504 -13.05133,15.73216 -22.54403,15.84195 -4.33557,0.0502 -7.88285,1.38107 -7.88285,2.95764 0,1.57657 5.77492,2.86649 12.83313,2.86649 16.92726,0 19.78957,4.94026 24.5146,42.31167 3.08271,24.38169 3.06563,30.63289 -0.10004,36.54779 -2.10025,3.9244 -4.80369,7.1353 -6.00762,7.1353 -3.63121,0 -6.45112,-11.9312 -6.98237,-29.5429 -0.49868,-16.5324 -4.44592,-25.73432 -8.33776,-19.43724 -1.05925,1.71393 -6.36452,3.11625 -11.78947,3.11625 -9.04851,0 -9.86357,0.7106 -9.86357,8.59949 0,7.1842 1.14081,8.5995 6.93181,8.5995 9.89541,0 16.00012,2.8512 16.00012,7.4729 0,3.1468 -6.07447,3.993 -28.66491,3.993 -26.753893,0 -28.664893,-0.3822 -28.664893,-5.733 0,-4.459 1.911,-5.7329 8.59947,-5.7329 7.64399,0 8.59947,-0.9555 8.59947,-8.5995 0,-7.644 -0.95548,-8.59949 -8.59947,-8.59949 -11.82768,0 -11.3159,-7.73649 0.71662,-10.83304 7.22817,-1.86015 9.51939,-4.12706 10.22314,-10.11467 0.99943,-8.50365 -1.34556,-9.35359 -12.18301,-4.41569 -10.61232,4.83529 -11.2613,7.78006 -12.69692,57.61139 -0.33346,11.5741 -1.25197,13.6159 -6.12526,13.6159 -5.26359,0 -5.71034,-1.8189 -5.45657,-22.2153 z m 74.858613,-43.7491 c -1.56438,-10.65893 -4.13712,-12.37005 -15.00868,-9.98226 -7.08706,1.55656 -8.52953,3.28918 -8.52953,10.24509 0,7.96142 0.6079,8.37173 12.40276,8.37173 12.16151,0 12.37811,-0.16798 11.13545,-8.63456 z m -6.10482,-42.96227 c 3.91867,0 5.49853,-2.01044 5.49853,-6.99704 0,-8.60317 -3.89776,-11.284 -13.06211,-8.9839 -5.5353,1.38927 -7.00332,3.61316 -7.00332,10.60926 0,6.89376 1.00287,8.46669 4.53419,7.11161 2.49379,-0.95694 7.00851,-1.73993 10.03271,-1.73993 z m -30.218993,-6.09086 c 1.212873,-3.8214 0.48381,-7.0092 -1.95669,-8.55556 -8.98307,-5.6919 -19.65559,-0.54082 -19.65559,9.48674 0,8.06754 19.01624,7.24824 21.61228,-0.93118 z m -5.61213,-19.70755 c 5.48291,0 6.931783,-1.49788 6.931783,-7.16623 0,-5.78606 -1.419573,-7.16622 -7.370983,-7.16622 -8.43342,0 -15.56095,5.95502 -15.56095,13.00114 0,3.20949 1.5095,4.23191 4.53419,3.07124 2.49379,-0.95695 7.65347,-1.73993 11.46596,-1.73993 z M 134.52193,896.926 c 0,-5.19339 -1.93121,-7.59631 -7.1598,-8.90859 -9.67114,-2.42732 -15.77212,0.33128 -15.77212,7.1314 0,3.55281 2.37497,6.08103 6.4496,6.86584 14.51084,2.79492 16.48232,2.18625 16.48232,-5.08865 z"
       id="path3353"
       inkscape:connector-curvature="0" />
  </g>
</svg>
