<?xml version="1.0" encoding="UTF-8" standalone="no"?>
<!-- Created with Inkscape (http://www.inkscape.org/) -->

<svg
   xmlns:dc="http://purl.org/dc/elements/1.1/"
   xmlns:cc="http://creativecommons.org/ns#"
   xmlns:rdf="http://www.w3.org/1999/02/22-rdf-syntax-ns#"
   xmlns:svg="http://www.w3.org/2000/svg"
   xmlns="http://www.w3.org/2000/svg"
   xmlns:sodipodi="http://sodipodi.sourceforge.net/DTD/sodipodi-0.dtd"
   xmlns:inkscape="http://www.inkscape.org/namespaces/inkscape"
   width="300"
   height="300"
   id="svg2"
   version="1.1"
   inkscape:version="0.48.4 r9939"
   sodipodi:docname="image-seal.svg">
  <defs
     id="defs4" />
  <sodipodi:namedview
     id="base"
     pagecolor="#ffffff"
     bordercolor="#666666"
     borderopacity="1.0"
     inkscape:pageopacity="0.0"
     inkscape:pageshadow="2"
     inkscape:zoom="2.7366667"
     inkscape:cx="150"
     inkscape:cy="150"
     inkscape:document-units="px"
     inkscape:current-layer="layer1"
     showgrid="false"
     inkscape:window-width="1215"
     inkscape:window-height="1000"
     inkscape:window-x="65"
     inkscape:window-y="24"
     inkscape:window-maximized="1"
     showguides="true"
     inkscape:guide-bbox="true" />
  <metadata
     id="metadata7">
    <rdf:RDF>
      <cc:Work
         rdf:about="">
        <dc:format>image/svg+xml</dc:format>
        <dc:type
           rdf:resource="http://purl.org/dc/dcmitype/StillImage" />
        <dc:title />
      </cc:Work>
    </rdf:RDF>
  </metadata>
  <g
     inkscape:label="Calque 1"
     inkscape:groupmode="layer"
     id="layer1"
     transform="translate(0,-752.36218)">
    <path
       style="fill:#000000"
       d="m 178.89709,1044.806 c -1.60788,-2.6016 0.23375,-23.1548 3.19837,-35.695 2.33927,-9.89514 6.18956,-52.61635 8.53538,-94.70546 l 1.92315,-34.50507 -8.93079,0 c -8.92795,0 -8.93124,0.006 -10.34782,19.82206 -4.36726,61.09095 -18.12709,127.61607 -27.10854,131.06257 -7.88944,3.0275 -9.01246,-8.8064 -2.45693,-25.8898 1.63662,-4.265 -1.06376,-4.5582 -25.90306,-2.8121 -30.335919,2.1324 -45.527659,-0.9179 -51.399559,-10.32035 -1.92874,-3.08839 -4.31562,-19.21263 -5.30419,-35.83168 -0.98856,-16.61902 -2.45122,-31.27431 -3.25035,-32.56732 -0.79913,-1.29302 -4.017914,-2.35096 -7.152857,-2.35096 -3.134943,0 -5.699894,-1.737 -5.699894,-3.85995 0,-4.38191 68.09278,-12.14323 91.00931,-10.37337 16.9333,1.30775 20.25163,9.69933 5.35407,13.53964 -6.41535,1.65375 -10.02934,4.51781 -10.60104,8.40123 -2.3321,15.84139 14.36879,32.73677 21.74245,21.99568 3.94321,-5.74399 6.94557,-33.42957 8.95344,-82.56206 0.82504,-20.18914 2.01768,-37.22618 2.65031,-37.86014 0.6326,-0.63395 3.16434,0.51896 5.62606,2.56201 2.89061,2.399 4.47588,8.78772 4.47588,18.03808 0,13.83201 0.29072,14.32345 8.47635,14.32345 7.73067,0 8.63558,-1.098 10.28572,-12.48056 2.46292,-16.98897 -0.62576,-25.98188 -13.80403,-40.19115 -8.85347,-9.5461 -11.00195,-13.98792 -10.27811,-21.24905 0.50334,-5.04904 2.89737,-10.1513 5.32007,-11.33836 15.88487,-7.78317 21.15217,-8.94798 36.82278,-8.14299 13.20205,0.67815 17.50435,1.98182 17.50435,5.30406 0,3.05403 -3.60233,4.63912 -11.7464,5.16865 -17.14383,1.11471 -36.70753,6.82361 -36.70753,10.71167 0,4.24847 9.27899,12.3068 16.98863,14.75372 7.45538,2.36625 9.35075,9.65963 9.40068,36.17365 l 0.0402,21.29036 10.2781,0 10.27811,0 0,-14.32345 c 0,-9.0783 1.59522,-15.64733 4.35624,-17.93879 8.27197,-6.86513 11.05228,9.52951 8.7082,51.35015 -3.25455,58.06537 -3.4908,61.66864 -4.04314,61.66864 -0.28221,0 -1.12011,13.21471 -1.86181,29.36602 -1.66529,36.26357 -6.07914,59.15747 -11.83092,61.36457 -7.1535,2.7451 -8.13914,-5.8599 -4.62744,-40.39979 6.40405,-62.98823 7.5014,-76.91962 7.66533,-97.31643 0.15505,-19.28966 -0.24022,-20.57668 -6.41633,-20.88817 -7.08858,-0.35753 -11.5286,3.56762 -12.00172,10.61006 -1.37351,20.44433 -3.7158,47.503 -6.35501,73.41505 -5.65199,55.49178 -5.2961,52.83798 -10.53506,78.55408 -1.32079,6.4834 -8.20962,9.0146 -11.23056,4.1266 z m -28.7493,-68.51393 0.89842,-10.79436 -13.14191,0.50859 c -7.22806,0.27986 -14.17591,-0.52536 -15.43968,-1.78912 -1.26377,-1.26377 -3.18774,-10.89635 -4.27549,-21.40569 -1.08777,-10.50936 -2.91143,-20.0416 -4.05262,-21.18279 -3.77292,-3.77292 -10.40447,9.12798 -10.40447,20.24064 0,11.09663 0.22289,10.81504 -24.498049,30.94116 -5.18604,4.22212 -5.19418,4.6432 -0.19645,10.16554 4.67868,5.16992 8.54803,5.67631 37.712749,4.9357 l 32.49913,-0.82531 0.89843,-10.79436 z M 84.238761,949.3501 c 2.56779,-5.41122 5.03092,-14.30595 5.47365,-19.76606 0.69556,-8.57878 -0.1254,-9.98192 -6.044,-10.32823 -7.80102,-0.4565 -8.63948,1.11966 -10.30028,19.36263 -2.02585,22.25301 3.03334,27.24752 10.87063,10.73166 z m -13.55049,-70.38655 c -10.96773,-10.96774 -10.87073,-10.41478 -10.65373,-60.73172 0.18991,-44.0396 2.47392,-60.20034 8.50809,-60.20034 3.11219,0 4.61052,3.98086 5.25014,13.94886 0.70393,10.97038 1.98937,13.94886 6.02003,13.94886 2.81876,0 6.65475,-1.52976 8.52445,-3.39947 2.28031,-2.2803 4.64891,-2.44604 7.19468,-0.50342 2.08737,1.59281 10.072189,2.32879 17.744059,1.63548 13.54643,-1.22421 13.94886,-1.53822 13.94886,-10.88343 0,-11.43448 7.10358,-19.09589 12.60501,-13.5949 4.71997,4.71961 4.94495,64.61425 0.35266,93.88788 -4.62553,29.48551 -11.49871,35.60324 -40.02336,35.62433 -18.430349,0.0147 -20.363509,-0.62473 -29.470889,-9.73213 z m 45.044659,-11.63702 c 9.02826,-6.9317 12.11425,-17.58376 12.22748,-42.20646 0.0623,-13.55083 -0.64347,-25.39462 -1.56841,-26.31956 -2.05718,-2.0572 -49.435749,-1.75741 -51.519119,0.326 -1.60925,1.60922 -2.0678,20.15712 -1.10758,44.80059 0.77753,19.95491 7.42283,27.20042 24.82768,27.07018 6.864309,-0.0514 14.577299,-1.70323 17.139949,-3.67075 z M 77.069951,831.16621 c -4.53246,-5.46131 -4.0872,-5.7733 13.44738,-9.42273 14.723859,-3.06446 30.834319,-1.83958 30.834319,2.34432 0,8.90656 -37.755659,14.94178 -44.281699,7.07841 z"
       id="path3015"
       inkscape:connector-curvature="0" />
  </g>
</svg>
