<?xml version="1.0" encoding="UTF-8" standalone="no"?>
<!-- Created with Inkscape (http://www.inkscape.org/) -->

<svg
   xmlns:dc="http://purl.org/dc/elements/1.1/"
   xmlns:cc="http://creativecommons.org/ns#"
   xmlns:rdf="http://www.w3.org/1999/02/22-rdf-syntax-ns#"
   xmlns:svg="http://www.w3.org/2000/svg"
   xmlns="http://www.w3.org/2000/svg"
   xmlns:sodipodi="http://sodipodi.sourceforge.net/DTD/sodipodi-0.dtd"
   xmlns:inkscape="http://www.inkscape.org/namespaces/inkscape"
   width="300"
   height="300"
   id="svg2"
   version="1.1"
   inkscape:version="0.48.4 r9939"
   sodipodi:docname="image-seal.svg">
  <defs
     id="defs4" />
  <sodipodi:namedview
     id="base"
     pagecolor="#ffffff"
     bordercolor="#666666"
     borderopacity="1.0"
     inkscape:pageopacity="0.0"
     inkscape:pageshadow="2"
     inkscape:zoom="2.0506101"
     inkscape:cx="156.21232"
     inkscape:cy="110.79688"
     inkscape:document-units="px"
     inkscape:current-layer="layer1"
     showgrid="false"
     inkscape:window-width="1215"
     inkscape:window-height="1000"
     inkscape:window-x="65"
     inkscape:window-y="24"
     inkscape:window-maximized="1"
     fit-margin-top="10"
     fit-margin-left="10"
     fit-margin-right="10"
     fit-margin-bottom="10" />
  <metadata
     id="metadata7">
    <rdf:RDF>
      <cc:Work
         rdf:about="">
        <dc:format>image/svg+xml</dc:format>
        <dc:type
           rdf:resource="http://purl.org/dc/dcmitype/StillImage" />
        <dc:title />
      </cc:Work>
    </rdf:RDF>
  </metadata>
  <g
     inkscape:label="Calque 1"
     inkscape:groupmode="layer"
     id="layer1"
     transform="translate(0,-752.36218)">
    <path
       style="fill:#000000"
       d="m 155.22645,1043.7584 c -3.45304,-4.1607 0.2834,-48.56105 5.51882,-65.58052 2.63105,-8.55312 5.49835,-11.34509 17.10776,-16.65838 7.67082,-3.51072 17.02954,-7.19899 20.79717,-8.19617 11.12771,-2.94516 13.53607,-5.59913 19.23878,-21.20107 10.40452,-28.4656 6.42809,-103.99998 -6.39842,-121.54129 -2.36577,-3.23537 -10.36019,-5.68269 -25.27585,-7.73759 -34.77127,-4.7904 -34.11924,-14.46239 0.96731,-14.34862 40.34105,0.13071 47.95174,14.59481 47.73785,90.72524 -0.18139,64.57317 -5.46775,82.11433 -26.23608,87.05724 -29.96011,7.13057 -37.64392,16.25843 -40.36891,47.95566 -2.72386,31.6842 -5.70873,38.4174 -13.08843,29.5255 z m -30.55879,-64.99565 c -3.76763,-1.24142 -12.13427,-3.7881 -18.59255,-5.65925 -14.901,-4.31729 -23.404059,-12.82731 -27.68724,-27.70995 -1.858672,-6.45826 -4.42203,-15.11364 -5.696349,-19.23417 -3.761829,-12.16388 -3.513352,-93.65212 0.325907,-106.88092 5.680445,-19.57293 8.779931,-22.51878 27.609812,-26.24103 9.45461,-1.86896 22.12236,-4.90411 28.15056,-6.74474 10.58292,-3.2314 10.98914,-3.79487 11.79554,-16.36209 0.91668,-14.28606 3.22884,-15.80169 11.49527,-7.53526 7.4625,7.46251 6.97052,27.40094 -0.67611,27.40094 -1.55644,0 -4.22627,1.90968 -5.93296,4.24372 -1.83893,2.51486 -9.23994,4.87707 -18.16711,5.79843 -21.12145,2.17993 -32.599806,8.43642 -39.387645,21.46894 -4.991641,9.58386 -5.708107,15.7782 -5.704778,49.3217 0.0033,32.72404 0.947681,41.29653 6.426777,58.33521 4.09252,12.72678 8.623216,21.41556 12.487106,23.94727 4.57052,2.99473 29.27763,9.51068 36.06247,9.51068 2.95044,0 9.41206,9.54007 9.41206,13.89619 0,5.7602 -8.85927,6.74809 -21.92076,2.44433 z m 22.25935,-30.00628 c -21.04941,-2.31787 -27.59075,-10.95226 -28.05058,-37.02599 -0.35065,-19.88319 0.0944,-26.64054 1.87537,-28.47643 1.87922,-1.93714 9.23568,5.6327 8.62342,8.87355 -0.39833,2.1085 5.33782,3.23761 17.2132,3.38826 24.1696,0.30662 27.40094,-0.71119 27.40094,-8.63088 0,-10.03324 7.83778,-8.25032 12.47024,2.83673 4.87425,11.66571 5.19372,35.35322 0.54521,40.4244 -1.88382,2.05512 -4.76238,6.10276 -6.39682,8.99477 -4.43221,7.84248 -17.05554,11.4463 -33.68098,9.61559 z m 25.856,-23.19079 c 8.15934,-12.45274 4.70214,-16.07134 -15.23422,-15.94537 -29.09874,0.18386 -27.19469,-0.74301 -24.03619,11.7005 l 2.78204,10.96038 16.0441,0 c 14.00422,0 16.60354,-0.85381 20.44427,-6.71551 z M 90.167615,892.88935 c -1.578609,-4.11379 6.044487,-18.15014 9.857285,-18.15014 1.17035,0 2.87996,-2.99638 3.79912,-6.65862 0.91917,-3.66225 3.21066,-8.3166 5.09221,-10.34301 9.55838,-10.29429 21.23162,-26.95979 21.23162,-30.31172 0,-3.91231 11.07905,-15.70882 14.75342,-15.70882 2.5691,0 25.83499,15.84325 33.02988,22.49217 2.92152,2.69982 6.29107,4.90877 7.4879,4.90877 1.96452,0 9.91758,6.45709 24.46817,19.86568 2.86194,2.63734 5.20355,6.64473 5.20355,8.90531 0,6.86495 -10.0265,4.60739 -18.25446,-4.11014 -4.26726,-4.52116 -8.75661,-8.22028 -9.97635,-8.22028 -1.21974,0 -9.8372,-6.16522 -19.1499,-13.70048 -9.31271,-7.53526 -18.18308,-13.65298 -19.71194,-13.59492 -1.52886,0.0581 -5.24584,3.76971 -8.25994,8.24815 -38.26924,56.86148 -46.007719,65.66269 -49.570565,56.37805 z m 37.925165,-17.36713 c -1.88382,-0.68182 -3.42512,-2.92853 -3.42512,-4.9927 0,-4.89724 16.80914,-9.45626 34.9362,-9.4755 12.51779,-0.0137 14.3855,0.68944 14.3855,5.4127 0,3.39208 -2.31243,5.94727 -6.16521,6.81245 -9.52577,2.13914 -35.90401,3.62833 -39.73137,2.24305 z"
       id="path3119"
       inkscape:connector-curvature="0" />
  </g>
</svg>
