<?xml version="1.0" encoding="UTF-8" standalone="no"?>
<svg
   xmlns:dc="http://purl.org/dc/elements/1.1/"
   xmlns:cc="http://creativecommons.org/ns#"
   xmlns:rdf="http://www.w3.org/1999/02/22-rdf-syntax-ns#"
   xmlns:svg="http://www.w3.org/2000/svg"
   xmlns="http://www.w3.org/2000/svg"
   viewBox="0 0 300 300"
   height="300"
   width="300"
   id="svg10"
   version="1.1">
  <metadata
     id="metadata16">
    <rdf:RDF>
      <cc:Work
         rdf:about="">
        <dc:format>image/svg+xml</dc:format>
        <dc:type
           rdf:resource="http://purl.org/dc/dcmitype/StillImage" />
        <dc:title></dc:title>
      </cc:Work>
    </rdf:RDF>
  </metadata>
  <defs
     id="defs14" />
  <path
     id="path20"
     d="m 227.9865,282.70593 c -5.98018,-14.46919 -11.86519,-31.39008 -18.78071,-43.50666 -6.62834,-11.6134 -11.70643,-18.53359 -17.33649,-23.70296 -6.66032,-6.11532 -16.99623,-11.22449 -26.61383,-14.10873 -19.47811,-5.84133 -42.62295,-5.52434 -60.72885,-5.80237 -22.523202,-0.34587 -41.514318,-7.91066 -41.347346,-28.25989 L 64.098643,55.279816 C 64.468676,10.183068 125.09375,15.184452 144.35852,15.148823 l 58.01957,0.05465 c 7.43392,0.007 28.30022,-0.960679 28.62152,5.516754 0.23973,4.832948 -4.36946,5.865227 -8.70911,6.189993 -4.0422,0.302506 -21.22382,0.3211 -48.83738,0.631588 l -57.59634,0.647615 C 93.587358,28.439824 75.472294,37.988528 75.131285,59.436185 L 74.684516,161.96003 c -0.05892,13.51937 7.056669,18.63634 16.151192,20.29806 21.672332,3.95987 46.380082,0.83241 65.645562,5.15051 25.22074,5.65291 35.42303,10.84869 48.17578,24.16738 13.99472,14.61577 27.71203,41.57187 31.11178,61.1382 1.66931,9.60724 1.49079,10.25443 -1.52877,11.44782 -3.20059,1.26494 -5.10066,1.33342 -6.25356,-1.45607 z"
     style="fill:#000000;stroke-width:0.6927287" />
</svg>
