<?xml version="1.0" encoding="UTF-8" standalone="no"?>
<svg
   xmlns:dc="http://purl.org/dc/elements/1.1/"
   xmlns:cc="http://creativecommons.org/ns#"
   xmlns:rdf="http://www.w3.org/1999/02/22-rdf-syntax-ns#"
   xmlns:svg="http://www.w3.org/2000/svg"
   xmlns="http://www.w3.org/2000/svg"
   viewBox="0 0 300 300"
   height="300"
   width="300"
   id="svg54"
   version="1.1">
  <metadata
     id="metadata60">
    <rdf:RDF>
      <cc:Work
         rdf:about="">
        <dc:format>image/svg+xml</dc:format>
        <dc:type
           rdf:resource="http://purl.org/dc/dcmitype/StillImage" />
        <dc:title></dc:title>
      </cc:Work>
    </rdf:RDF>
  </metadata>
  <defs
     id="defs58" />
  <path
     id="path64"
     d="m 220.75017,280.3926 c -6.57378,-13.59095 -14.0296,-30.58658 -23.34147,-39.49805 -11.26979,-10.65878 -22.84374,-15.37847 -43.15793,-17.59916 -3.70119,-0.4046 -21.15375,-0.98085 -38.78346,-1.28055 -34.49201,-0.58635 -35.933696,-0.59178 -42.433688,-4.53417 -11.535101,-6.9963 -13.060479,-20.95543 -14.11823,-29.24489 -1.244387,-9.75211 -1.351959,-15.05781 -1.350089,-63.41872 0.0028,-64.364829 0.330656,-73.289303 5.539147,-84.384385 5.595409,-11.919289 18.975599,-14.370394 36.50818,-16.241108 19.76424,-2.10883 98.98582,-2.726627 104.95761,-0.818496 2.5729,0.822107 4.56751,2.204775 4.95552,5.380203 0.64517,5.279908 -12.04238,4.932587 -14.78505,5.078912 -5.1183,0.266099 -9.32443,0.51908 -9.34695,0.562181 2.16697,12.819643 1.36237,22.068316 0.91003,29.37452 -1.23593,19.962621 -2.30549,23.071855 -7.15862,26.545137 -14.34534,10.266656 -37.68597,9.694296 -52.99318,4.078355 -6.28217,-2.358239 -9.45595,-6.433258 -11.90552,-15.286275 -1.00202,-3.62138 -1.19182,-7.463481 -1.19182,-24.125689 v -19.81835 c -10.27415,-0.07095 -21.241893,0.865014 -30.330687,3.717187 -11.07914,3.57836 -13.272949,19.083769 -14.070553,28.075236 -0.984342,11.874208 -1.855704,81.907742 -1.80339,94.347002 0.06858,16.30738 -0.219692,27.68275 6.588808,38.95605 2.424543,4.01448 6.344521,7.05805 11.185919,8.53377 7.659963,2.33488 14.54747,1.98316 25.175823,2.04765 44.34312,0.26908 54.71337,-0.15936 77.01281,9.56869 14.83126,6.47009 22.72058,14.8685 35.78385,39.20722 8.79539,16.38705 10.88139,23.16121 10.23376,30.08374 -0.75448,8.06466 -10.18405,-5.38453 -12.08082,-9.30601 z M 163.16975,85.39851 c 9.44312,-2.385389 8.64504,-2.999328 9.75973,-10.427411 l 0.90701,-6.031672 h -48.22065 c 0.45799,5.091022 1.53021,14.002969 6.28219,15.328869 7.14364,1.993226 24.81909,2.497895 31.27172,1.130214 z m 12.32744,-32.486097 c 0.21053,-6.749246 0.57368,-12.332071 0.97617,-19.130027 L 122.7825,35.2303 c -0.13525,0.152038 0.32264,4.619235 1.01753,9.927106 0.69489,5.307871 1.2757,10.038425 1.2907,10.512342 23.4304,1.084771 28.36905,0.861667 50.34863,0.861667 l 0.0578,-3.619003 z M 106.1613,197.1583 c -24.580656,-5.76462 -19.983941,-42.84012 -19.990678,-53.77081 0.392659,-3.32205 1.315514,-34.70173 5.09786,-34.81427 6.780509,-0.20174 6.681378,5.98767 6.196793,21.8747 -0.178839,5.86322 -0.462195,9.38853 -0.457072,14.82826 l 32.436967,0.26386 c 0.52863,-13.31905 1.09404,-32.32569 4.35381,-35.09809 3.22329,-2.74138 5.62172,-2.04212 6.45413,1.24384 1.15938,4.57665 0.87014,29.66213 0.43172,45.42103 -0.56695,20.37874 0.3544,32.18903 -14.19732,38.73694 -4.19868,1.59537 -14.96234,2.57246 -20.32621,1.31454 z m 16.23118,-11.7189 c 7.37921,-3.33486 6.94889,-20.83733 6.83524,-26.88657 l -32.510927,-0.24529 c -0.202704,9.97348 0.283674,21.66765 7.918547,26.75096 3.63612,2.42093 12.57171,2.37949 17.75714,0.3809 z m 46.80113,8.53992 c -13.15389,-6.60529 -11.7162,-39.37808 -11.33227,-51.28116 0.15749,-4.88274 1.05701,-35.15087 5.55002,-33.97599 7.23223,1.89115 6.97418,12.37684 6.518,18.76484 -0.65912,9.22964 -0.89385,11.25978 -0.94292,17.53021 l 33.0566,1.39707 c 0.2738,-8.20276 0.26401,-11.4377 0.27273,-18.04195 0.009,-13.71476 0.53588,-16.3429 3.69679,-18.41402 0.955,-0.62573 2.60947,-1.03761 3.67658,-0.91528 1.6454,0.18862 2.11895,0.74615 3.11639,3.66908 1.01808,2.98344 1.18021,6.6918 1.20633,27.59145 0.0372,29.7616 -1.83388,39.65794 -4.94038,46.67091 -5.64234,12.73767 -30.01319,11.95844 -39.87787,7.00484 z m 29.146,-10.77722 c 3.20016,-4.88651 3.27623,-17.35457 3.1763,-24.52662 l -33.39301,-0.12265 c -0.99131,14.03022 1.88199,22.12909 6.55789,25.78741 3.78297,2.95971 19.37765,4.87514 23.65882,-1.13814 z"
     style="fill:#000000;stroke-width:0.68933392" />
</svg>
