<?xml version="1.0" encoding="UTF-8" standalone="no"?>
<svg
   xmlns:dc="http://purl.org/dc/elements/1.1/"
   xmlns:cc="http://creativecommons.org/ns#"
   xmlns:rdf="http://www.w3.org/1999/02/22-rdf-syntax-ns#"
   xmlns:svg="http://www.w3.org/2000/svg"
   xmlns="http://www.w3.org/2000/svg"
   viewBox="0 0 300 300"
   height="300"
   width="300"
   id="svg30"
   version="1.1">
  <metadata
     id="metadata36">
    <rdf:RDF>
      <cc:Work
         rdf:about="">
        <dc:format>image/svg+xml</dc:format>
        <dc:type
           rdf:resource="http://purl.org/dc/dcmitype/StillImage" />
        <dc:title></dc:title>
      </cc:Work>
    </rdf:RDF>
  </metadata>
  <defs
     id="defs34" />
  <path
     id="path40"
     d="m 147.11633,281.12455 c -1.18783,-3.76232 -1.1331,-52.14262 -1.07802,-78.21756 0.0576,-27.27764 -0.18973,-75.03379 -0.18973,-75.03379 -17.53288,-0.49981 -28.30139,-0.53688 -40.28945,-0.70221 -34.836557,-0.46474 -35.092317,-0.49276 -36.422089,-3.99032 -1.216245,-3.19896 0.05268,-4.11849 3.837465,-6.0537 3.454125,-1.76614 14.198539,-1.68073 37.497984,-1.50166 12.52725,0.0963 23.79797,0.33023 35.39772,0.30642 0.31544,-22.199889 0.41493,-40.275623 0.54359,-61.144215 0.0824,-13.370474 -0.44581,-42.166983 6.19935,-39.630231 5.3243,2.03252 4.90593,-0.07807 5.12016,53.161344 l 0.19164,47.626532 c 0,0 23.81649,0.10215 35.25757,0.19739 12.26013,0.10206 35.4936,0.0817 36.74909,1.54773 3.17924,3.71244 0.20905,7.25417 -2.41539,8.12694 -7.6965,2.55949 -13.84165,1.80658 -40.27064,1.91885 -9.57722,0.0406 -14.67008,-0.058 -29.41902,0.22319 l 0.0578,74.23608 c 0.0397,50.89613 -0.1581,74.41863 -0.75844,76.27563 -2.32561,7.19369 -8.52274,8.97278 -10.00957,2.65374 z"
     style="fill:#000000;stroke-width:0.69310051" />
</svg>
