<?xml version="1.0" encoding="UTF-8" standalone="no"?>
<!-- Created with Inkscape (http://www.inkscape.org/) -->

<svg
   xmlns:dc="http://purl.org/dc/elements/1.1/"
   xmlns:cc="http://creativecommons.org/ns#"
   xmlns:rdf="http://www.w3.org/1999/02/22-rdf-syntax-ns#"
   xmlns:svg="http://www.w3.org/2000/svg"
   xmlns="http://www.w3.org/2000/svg"
   xmlns:sodipodi="http://sodipodi.sourceforge.net/DTD/sodipodi-0.dtd"
   xmlns:inkscape="http://www.inkscape.org/namespaces/inkscape"
   width="300"
   height="300"
   id="svg2"
   version="1.1"
   inkscape:version="0.47 r22583"
   sodipodi:docname="å‰-oracle.svg">
  <defs
     id="defs4">
    <inkscape:perspective
       sodipodi:type="inkscape:persp3d"
       inkscape:vp_x="0 : 526.18109 : 1"
       inkscape:vp_y="0 : 1000 : 0"
       inkscape:vp_z="744.09448 : 526.18109 : 1"
       inkscape:persp3d-origin="372.04724 : 350.78739 : 1"
       id="perspective10" />
    <inkscape:perspective
       id="perspective2824"
       inkscape:persp3d-origin="0.5 : 0.33333333 : 1"
       inkscape:vp_z="1 : 0.5 : 1"
       inkscape:vp_y="0 : 1000 : 0"
       inkscape:vp_x="0 : 0.5 : 1"
       sodipodi:type="inkscape:persp3d" />
    <inkscape:perspective
       id="perspective2897"
       inkscape:persp3d-origin="0.5 : 0.33333333 : 1"
       inkscape:vp_z="1 : 0.5 : 1"
       inkscape:vp_y="0 : 1000 : 0"
       inkscape:vp_x="0 : 0.5 : 1"
       sodipodi:type="inkscape:persp3d" />
    <inkscape:perspective
       id="perspective2913"
       inkscape:persp3d-origin="0.5 : 0.33333333 : 1"
       inkscape:vp_z="1 : 0.5 : 1"
       inkscape:vp_y="0 : 1000 : 0"
       inkscape:vp_x="0 : 0.5 : 1"
       sodipodi:type="inkscape:persp3d" />
    <inkscape:perspective
       id="perspective2951"
       inkscape:persp3d-origin="0.5 : 0.33333333 : 1"
       inkscape:vp_z="1 : 0.5 : 1"
       inkscape:vp_y="0 : 1000 : 0"
       inkscape:vp_x="0 : 0.5 : 1"
       sodipodi:type="inkscape:persp3d" />
    <inkscape:perspective
       id="perspective2990"
       inkscape:persp3d-origin="0.5 : 0.33333333 : 1"
       inkscape:vp_z="1 : 0.5 : 1"
       inkscape:vp_y="0 : 1000 : 0"
       inkscape:vp_x="0 : 0.5 : 1"
       sodipodi:type="inkscape:persp3d" />
    <inkscape:perspective
       id="perspective3027"
       inkscape:persp3d-origin="0.5 : 0.33333333 : 1"
       inkscape:vp_z="1 : 0.5 : 1"
       inkscape:vp_y="0 : 1000 : 0"
       inkscape:vp_x="0 : 0.5 : 1"
       sodipodi:type="inkscape:persp3d" />
    <inkscape:perspective
       id="perspective3066"
       inkscape:persp3d-origin="0.5 : 0.33333333 : 1"
       inkscape:vp_z="1 : 0.5 : 1"
       inkscape:vp_y="0 : 1000 : 0"
       inkscape:vp_x="0 : 0.5 : 1"
       sodipodi:type="inkscape:persp3d" />
    <inkscape:perspective
       id="perspective3104"
       inkscape:persp3d-origin="0.5 : 0.33333333 : 1"
       inkscape:vp_z="1 : 0.5 : 1"
       inkscape:vp_y="0 : 1000 : 0"
       inkscape:vp_x="0 : 0.5 : 1"
       sodipodi:type="inkscape:persp3d" />
    <inkscape:perspective
       id="perspective3142"
       inkscape:persp3d-origin="0.5 : 0.33333333 : 1"
       inkscape:vp_z="1 : 0.5 : 1"
       inkscape:vp_y="0 : 1000 : 0"
       inkscape:vp_x="0 : 0.5 : 1"
       sodipodi:type="inkscape:persp3d" />
    <inkscape:perspective
       id="perspective3179"
       inkscape:persp3d-origin="0.5 : 0.33333333 : 1"
       inkscape:vp_z="1 : 0.5 : 1"
       inkscape:vp_y="0 : 1000 : 0"
       inkscape:vp_x="0 : 0.5 : 1"
       sodipodi:type="inkscape:persp3d" />
  </defs>
  <sodipodi:namedview
     id="base"
     pagecolor="#ffffff"
     bordercolor="#666666"
     borderopacity="1.0"
     inkscape:pageopacity="0.0"
     inkscape:pageshadow="2"
     inkscape:zoom="1.979899"
     inkscape:cx="299.77215"
     inkscape:cy="168.507"
     inkscape:document-units="px"
     inkscape:current-layer="layer1"
     showgrid="false"
     inkscape:window-width="1280"
     inkscape:window-height="950"
     inkscape:window-x="0"
     inkscape:window-y="25"
     inkscape:window-maximized="1" />
  <metadata
     id="metadata7">
    <rdf:RDF>
      <cc:Work
         rdf:about="">
        <dc:format>image/svg+xml</dc:format>
        <dc:type
           rdf:resource="http://purl.org/dc/dcmitype/StillImage" />
        <dc:title></dc:title>
      </cc:Work>
    </rdf:RDF>
  </metadata>
  <g
     inkscape:label="Calque 1"
     inkscape:groupmode="layer"
     id="layer1"
     transform="translate(0,-752.36218)">
    <path
       style="fill:#000000"
       d="m 153.71283,1041.6822 c -1.46335,-2.1742 -2.16372,-25.2257 -2.85048,-93.81891 -0.30379,-30.34199 -1.40571,-42.27347 -4.04241,-43.77094 -1.99362,-1.13224 -9.11587,-1.74902 -15.8272,-1.37064 -6.71134,0.3784 -20.80169,0.75293 -31.311893,0.83228 l -19.109454,0.14421 -1.907563,9.90893 c -1.049148,5.44992 -2.534034,22.98872 -3.299753,38.97512 -1.462014,30.52368 -7.44573,63.62365 -12.30897,68.08925 -6.387203,5.865 -11.828463,-0.1654 -10.682518,-11.8389 0.61171,-6.2314 1.957718,-20.24789 2.991131,-31.14771 1.03341,-10.89983 3.101361,-26.27888 4.595446,-34.17567 1.494082,-7.89678 2.736397,-21.57111 2.760696,-30.38738 0.09588,-34.78543 18.506586,-81.45151 36.065521,-91.41622 5.463187,-3.10037 9.934647,-6.43185 9.936587,-7.4033 0.002,-0.97144 3.27588,-5.26023 7.27541,-9.53061 8.08727,-8.63493 11.49199,-17.85312 8.89196,-24.07468 -1.40333,-3.35802 -6.43269,-3.99479 -27.61221,-3.496 -14.242988,0.33541 -26.720014,-0.14645 -27.726724,-1.07087 -1.006712,-0.92438 -1.011365,-3.64053 -0.01032,-6.03587 1.597912,-3.82361 5.943685,-4.17426 35.607002,-2.87302 63.09511,2.76779 104.09301,11.27441 110.14809,22.85454 7.17108,13.71441 8.95953,24.38865 5.45568,32.56193 -4.10502,9.57557 -13.34197,17.49819 -20.50177,17.58454 -17.54667,0.21167 -35.17791,21.92133 -33.46218,41.20268 l 0.92387,10.38252 30.21558,0.6535 c 35.60426,0.77003 43.1651,2.05292 43.1651,7.32399 0,3.25771 -6.34067,3.91323 -37.85223,3.91323 l -37.85219,0 1.95822,39.84767 c 1.07703,21.9162 2.07696,40.64408 2.22208,41.6175 0.14504,0.9734 0.11057,12.68382 -0.0768,26.02313 -0.25582,18.2102 -1.46752,25.2879 -4.86283,28.4056 -4.95495,4.5498 -8.7677,5.2799 -10.9147,2.09 z m -6.1541,-151.1835 c 0.81633,-1.21286 2.32214,-9.56645 3.34628,-18.56354 2.18823,-19.22416 9.54003,-28.93943 26.65856,-35.22887 16.16996,-5.94092 30.01813,-19.01296 27.88374,-26.321 -0.92789,-3.17698 -1.70471,-7.08077 -1.72632,-8.67502 -0.13036,-9.62374 -21.07024,-18.83647 -45.88591,-20.1881 l -12.75337,-0.69466 -6.94898,16.57816 c -5.8828,14.03455 -9.11396,17.87957 -21.05929,25.06028 -7.76069,4.66517 -14.11033,9.41847 -14.11033,10.56289 0,1.14444 -3.402638,6.80212 -7.56143,12.57262 -6.440035,8.93585 -11.664248,24.17322 -13.545947,39.50927 -0.285056,2.32317 2.979022,4.56624 8.15785,5.60602 12.587667,2.5273 55.807577,2.36353 57.545147,-0.218 z"
       id="path3185" />
  </g>
</svg>
