<?xml version="1.0" encoding="UTF-8" standalone="no"?>
<!-- Created with Inkscape (http://www.inkscape.org/) -->

<svg
   xmlns:dc="http://purl.org/dc/elements/1.1/"
   xmlns:cc="http://creativecommons.org/ns#"
   xmlns:rdf="http://www.w3.org/1999/02/22-rdf-syntax-ns#"
   xmlns:svg="http://www.w3.org/2000/svg"
   xmlns="http://www.w3.org/2000/svg"
   xmlns:sodipodi="http://sodipodi.sourceforge.net/DTD/sodipodi-0.dtd"
   xmlns:inkscape="http://www.inkscape.org/namespaces/inkscape"
   width="300"
   height="300"
   viewBox="0 0 300 300"
   id="svg2"
   version="1.1"
   inkscape:version="0.91 r13725"
   sodipodi:docname="åˆ-seal.svg">
  <defs
     id="defs4" />
  <sodipodi:namedview
     id="base"
     pagecolor="#ffffff"
     bordercolor="#666666"
     borderopacity="1.0"
     inkscape:pageopacity="0.0"
     inkscape:pageshadow="2"
     inkscape:zoom="1.2432572"
     inkscape:cx="133.16179"
     inkscape:cy="151.18248"
     inkscape:document-units="px"
     inkscape:current-layer="layer1"
     showgrid="false"
     units="px"
     inkscape:window-width="985"
     inkscape:window-height="605"
     inkscape:window-x="98"
     inkscape:window-y="14"
     inkscape:window-maximized="0" />
  <metadata
     id="metadata7">
    <rdf:RDF>
      <cc:Work
         rdf:about="">
        <dc:format>image/svg+xml</dc:format>
        <dc:type
           rdf:resource="http://purl.org/dc/dcmitype/StillImage" />
        <dc:title></dc:title>
      </cc:Work>
    </rdf:RDF>
  </metadata>
  <g
     inkscape:label="Layer 1"
     inkscape:groupmode="layer"
     id="layer1"
     transform="translate(0,-752.36216)">
    <path
       style="fill:#000000"
       d="m 150.5628,1033.1352 c -0.65448,-2.5021 -1.40913,-16.3128 -1.67704,-30.6888 -0.56007,-30.05457 -2.77321,-80.11674 -3.69801,-83.65024 -0.37184,-1.42089 -14.4593,-2.09991 -34.6247,-1.66935 -35.44119,0.75691 -38.835552,-0.16633 -35.798063,-9.73662 1.475956,-4.65031 3.833205,-4.98819 34.815033,-4.98819 l 33.23192,0 2.42012,-8.14208 c 1.45519,-4.8953 1.67002,-21.03203 0.53917,-40.46644 -1.76843,-30.38783 -4.25807,-40.73752 -8.2469,-34.28323 -0.92577,1.49785 -3.35537,2.72347 -5.39904,2.72347 -2.04369,0 -5.07745,1.13097 -6.74152,2.51338 -5.54868,4.60897 -48.058717,31.56549 -52.321677,33.1783 -5.212103,1.97181 -10.685788,-4.13843 -8.592912,-9.59233 0.850053,-2.21526 3.794601,-4.61584 6.543424,-5.33466 2.748859,-0.71889 4.997895,-2.16613 4.997895,-3.21617 0,-1.04994 3.38209,-3.31007 7.515778,-5.02226 4.133683,-1.71223 7.515779,-4.10375 7.515779,-5.31439 0,-1.21064 1.235179,-2.20134 2.744854,-2.20134 1.509641,0 5.737258,-2.12279 9.394699,-4.71732 3.65744,-2.59433 10.72312,-6.9978 15.70143,-9.78535 4.97835,-2.78752 11.71999,-6.58349 14.98145,-8.43542 9.62658,-5.46607 11.90283,-9.77271 9.53269,-18.0366 -2.56161,-8.93174 -0.43877,-19.15161 3.97817,-19.15161 5.25125,0 9.43206,7.00924 10.10595,16.94293 0.79385,11.70174 3.35908,18.13073 7.23445,18.13073 4.39909,0 16.47341,5.95963 16.49626,8.1421 0.01,1.03347 1.55459,1.87891 3.4309,1.87891 4.86634,0 37.08388,14.79897 42.30969,19.43476 6.44725,5.71941 5.43328,10.62845 -2.1954,10.62845 -5.58573,0 -31.7317,-11.43457 -39.7678,-17.39185 -1.37789,-1.02142 -7.18162,-3.67146 -12.89682,-5.88894 l -10.39154,-4.03181 -1.32337,8.01942 c -0.7278,4.41071 -0.87104,19.85679 -0.31805,34.32474 0.55283,14.46784 1.03326,30.59866 1.06753,35.84618 l 0.062,9.5409 36.10757,-0.77251 c 19.85917,-0.42492 36.9303,0.0453 37.93577,1.04589 3.03608,3.01936 -3.49458,8.74067 -12.09423,10.59541 -4.44725,0.95922 -18.79608,2.25785 -31.88597,2.88582 -13.09006,0.62793 -25.28083,1.66221 -27.09057,2.29822 -2.60549,0.9156 -3.18565,12.83025 -2.7865,57.22333 0.27721,30.83677 -0.28148,57.33777 -1.24152,58.89137 -2.68806,4.3505 -8.24441,3.347 -9.57113,-1.7268 z"
       id="path3574"
       inkscape:connector-curvature="0" />
  </g>
</svg>
