<?xml version="1.0" encoding="UTF-8" standalone="no"?>
<svg
   xmlns:dc="http://purl.org/dc/elements/1.1/"
   xmlns:cc="http://creativecommons.org/ns#"
   xmlns:rdf="http://www.w3.org/1999/02/22-rdf-syntax-ns#"
   xmlns:svg="http://www.w3.org/2000/svg"
   xmlns="http://www.w3.org/2000/svg"
   viewBox="0 0 300 300"
   height="300"
   width="300"
   id="svg4561"
   version="1.1">
  <metadata
     id="metadata4567">
    <rdf:RDF>
      <cc:Work
         rdf:about="">
        <dc:format>image/svg+xml</dc:format>
        <dc:type
           rdf:resource="http://purl.org/dc/dcmitype/StillImage" />
        <dc:title></dc:title>
      </cc:Work>
    </rdf:RDF>
  </metadata>
  <defs
     id="defs4565" />
  <path
     id="path4571"
     d="m 71.443182,257.56058 c 2.673996,-13.05368 2.648698,-20.46097 4.231401,-89.35309 0.660141,-28.73465 0.07104,-33.03231 5.124429,-41.20538 8.875912,-14.35546 21.018568,-12.42918 37.102108,-13.66378 l -6.40889,-11.49357 c -2.51103,-4.477007 -6.77654,-11.904365 -2.64682,-15.328957 6.20414,-5.144808 15.41566,12.69878 16.55579,14.881177 8.09741,15.5974 25.39955,47.37093 25.80872,47.39494 0.19777,0.0116 7.32967,-12.75003 15.84866,-28.35918 8.51899,-15.60914 16.55748,-29.628466 17.86331,-31.154031 2.77003,-3.236159 7.501,-5.140688 8.57127,-3.45051 1.03156,1.629045 1.52508,5.334976 1.04866,7.874514 l -10.1339,20.397527 c 8.50174,0.42982 18.57637,0.9232 25.64694,4.62071 6.90003,3.60832 11.0538,8.34718 13.15193,14.93495 1.62852,5.11334 1.62859,5.11538 1.90404,50.82909 -0.25577,20.2149 -0.33544,40.00349 2.96454,59.91506 2.42862,14.65397 7.48026,39.04834 -0.75216,40.3788 -4.4949,0.72644 -9.59999,-24.63976 -10.6679,-33.45221 -2.88711,-23.82478 -3.2488,-32.60544 -3.00362,-72.72926 0.2158,-35.31648 0.1479,-37.98751 -1.05335,-41.43519 -3.09641,-8.88695 -9.87337,-11.88713 -26.87022,-11.89559 l -8.06712,-0.004 -13.93603,24.99551 16.90973,0.5548 c 7.23456,0.23736 14.38276,0.42517 15.87659,0.83992 3.40543,0.94549 6.8131,4.22596 6.51046,6.26743 -0.44602,3.0085 -4.14146,3.60945 -23.94553,3.89403 -10.00028,0.14369 -19.01402,0.38342 -19.01402,0.38342 -1.65454,5.88097 -2.04399,12.66773 -1.87182,22.20213 l 29.64263,0.13125 c 1.29689,0.006 10.3071,0.80357 12.23508,2.40226 5.06717,4.2017 6.32173,7.73403 0.48058,8.36288 l -42.59468,1.3282 c -0.42917,3.42969 -0.43881,1.93933 -0.70219,42.33907 -0.23859,36.59701 -0.38022,40.8014 -1.42835,42.40103 -1.58948,2.42585 -3.62656,3.3874 -6.04915,2.85531 -3.63612,-0.79863 -3.95409,-3.6148 -4.41775,-39.12713 -0.21814,-16.40144 -0.47458,-32.79693 -1.28181,-49.17884 h -21.28137 c -20.48097,0 -21.35001,-0.054 -23.106432,-1.43559 -1.998541,-1.57205 -2.428731,-4.4288 -0.959235,-6.36998 1.575757,-2.08155 6.898697,-2.72536 26.264827,-3.17668 10.54078,-0.24565 19.36149,-0.64373 19.60158,-0.88463 0.0273,-8.93201 0.0569,-17.8715 -1.70936,-21.12401 0,-0.14122 -7.67834,-0.25677 -17.06296,-0.25677 -18.78242,0 -21.47401,-0.40904 -24.22799,-3.68196 -2.630997,-3.12677 -2.615129,-5.02061 1.24083,-6.54443 2.68705,-1.06188 5.78729,-1.54244 18.924,-1.45357 17.88547,0.12101 17.86358,-0.0638 17.86358,-0.0638 l -14.0368,-25.03617 c -11.39841,-0.90681 -25.956525,0.63915 -30.840505,3.44542 -3.250519,1.86771 -6.62502,9.13937 -7.320786,15.77544 -0.31355,2.99065 -0.589578,21.64578 -0.613369,41.45584 -0.04253,35.3844 -0.363288,43.30012 -2.455383,60.60773 -1.212253,10.02882 -4.105768,37.77303 -11.178877,37.82894 -7.771621,0.0614 -5.021636,-11.38658 -1.733308,-27.43927 z M 147.57085,99.781683 147.53915,83.32346 c -24.08914,-2.344016 -43.65477,-2.270735 -46.24159,-29.493379 -0.73399,-7.724229 -1.783446,-19.973939 -0.4387,-25.193515 1.85156,-6.990276 8.40559,-5.869593 9.71702,0.03636 1.24949,5.963362 0.3763,15.15151 0.54094,17.742224 0.82621,10.924201 1.48022,13.567435 6.00093,17.982863 6.39967,6.250643 11.42025,7.18787 30.47575,7.326346 l -0.0194,-52.396396 c 0.19456,-3.652595 3.0786,-4.488691 5.15136,-4.303989 2.4011,0.21396 4.9466,2.105987 5.05147,3.598934 l 0.20423,26.280563 0.20424,26.686655 c 21.16186,-1.449318 36.46406,-0.556527 36.66759,-23.509313 0.81003,-6.568993 0.72671,-23.59091 5.18244,-24.642543 6.98058,-1.64754 7.11302,7.790264 7.36121,12.196819 -0.5953,29.976674 -5.55634,44.557553 -39.79817,47.196287 l -9.58682,1.018613 -0.16364,23.750551 c -0.036,5.21997 -0.11788,10.70298 -5.14253,11.16987 -5.46723,0.50802 -5.13467,-18.988727 -5.13467,-18.988727 z"
     style="fill:#000000;stroke-width:0.69265968" />
</svg>
