<?xml version="1.0" encoding="UTF-8" standalone="no"?>
<!-- Created with Inkscape (http://www.inkscape.org/) -->

<svg
   xmlns:dc="http://purl.org/dc/elements/1.1/"
   xmlns:cc="http://creativecommons.org/ns#"
   xmlns:rdf="http://www.w3.org/1999/02/22-rdf-syntax-ns#"
   xmlns:svg="http://www.w3.org/2000/svg"
   xmlns="http://www.w3.org/2000/svg"
   xmlns:sodipodi="http://sodipodi.sourceforge.net/DTD/sodipodi-0.dtd"
   xmlns:inkscape="http://www.inkscape.org/namespaces/inkscape"
   width="300"
   height="300"
   id="svg2"
   version="1.1"
   inkscape:version="0.48.4 r9939"
   sodipodi:docname="image-seal.svg">
  <defs
     id="defs4" />
  <sodipodi:namedview
     id="base"
     pagecolor="#ffffff"
     bordercolor="#666666"
     borderopacity="1.0"
     inkscape:pageopacity="0.0"
     inkscape:pageshadow="2"
     inkscape:zoom="2.7366667"
     inkscape:cx="150"
     inkscape:cy="150"
     inkscape:document-units="px"
     inkscape:current-layer="layer1"
     showgrid="false"
     inkscape:window-width="1215"
     inkscape:window-height="1000"
     inkscape:window-x="65"
     inkscape:window-y="24"
     inkscape:window-maximized="1"
     showguides="true"
     inkscape:guide-bbox="true" />
  <metadata
     id="metadata7">
    <rdf:RDF>
      <cc:Work
         rdf:about="">
        <dc:format>image/svg+xml</dc:format>
        <dc:type
           rdf:resource="http://purl.org/dc/dcmitype/StillImage" />
        <dc:title />
      </cc:Work>
    </rdf:RDF>
  </metadata>
  <g
     inkscape:label="Calque 1"
     inkscape:groupmode="layer"
     id="layer1"
     transform="translate(0,-752.36218)">
    <path
       style="fill:#000000"
       d="m 206.94473,1041.2963 c -1.1256,-3.4875 -1.6655,-29.1684 -1.1997,-57.06866 0.4658,-27.90022 0.9843,-65.31189 1.1521,-83.13704 l 0.3052,-32.40935 -15.5002,-0.3469 c -22.416,-0.50169 -22.5456,-0.53946 -22.5456,-6.56985 0,-4.83847 2.3113,-5.60891 19.0229,-6.34096 l 19.0229,-0.83332 0.7711,-48.61403 c 0.7166,-45.18129 1.14,-48.61403 5.9959,-48.61403 10.4965,0 11.7573,6.05708 10.934,52.53066 l -0.7918,44.6974 11.2728,0.36087 c 30.2512,0.96845 29.5912,0.81937 29.5912,6.68464 0,4.71165 -1.9651,5.67891 -11.9774,5.89538 -6.5876,0.14232 -15.782,0.45948 -20.432,0.70455 l -8.4546,0.44559 -0.6245,35.22756 c -0.3434,19.37515 -0.9775,57.54439 -1.4091,84.82052 -0.5847,36.95617 -1.7702,50.77977 -4.6524,54.25047 -5.2387,6.3082 -8.0471,5.8571 -10.4808,-1.6835 z M 87.428625,1011.0006 c -2.325,-1.5025 -7.0361,-2.7513 -10.4691,-2.775 -3.433,-0.023 -7.46,-2.3193 -8.9488,-5.1012 -5.6922,-10.63595 -2.6312,-109.9002 3.5108,-113.84997 4.9005,-3.1514 10.7869,3.73908 9.0628,10.60868 -0.9281,3.69788 -0.1379,6.76124 1.9325,7.49119 1.9265,0.67918 22.508405,0.79079 45.737505,0.248 23.2292,-0.54282 44.1544,-0.24152 46.5004,0.66927 7.5768,2.94186 -5.3955,9.70826 -18.6123,9.70826 -10.3534,0 -12.4773,1.08326 -16.0107,8.16612 -2.4708,4.95282 -3.1235,9.66579 -1.6587,11.97737 1.3283,2.09618 2.4346,7.27595 2.4583,11.51059 0.041,7.40455 0.5864,7.6871 14.2335,7.37964 16.1101,-0.36296 19.3541,1.44266 14.923,8.30637 -2.4311,3.7658 -6.6192,4.64522 -19.4871,4.09187 -9.0148,-0.38765 -17.6743,-1.98867 -19.2435,-3.55779 -1.5691,-1.56915 -3.6677,-11.74191 -4.6635,-22.60614 -0.9958,-10.86424 -2.6499,-20.5924 -3.6756,-21.61817 -3.5068,-3.50678 -7.8067,4.06898 -9.2018,16.21186 -1.9888,17.31119 -7.5217,26.29227 -21.739205,35.28691 -9.3416,5.90995 -12.35,9.53134 -12.0687,14.5281 0.2406,4.2735 2.3921,7.01319 6.0111,7.65419 3.1,0.5491 11.9773,2.10579 19.727405,3.45935 7.7501,1.3535 23.9206,1.8012 35.9346,0.9948 26.2745,-1.76366 27.475,-1.44805 27.475,7.2233 l 0,6.8106 -38.7503,-0.043 c -21.3127,-0.023 -40.652605,-1.2725 -42.977605,-2.775 z m 4.3992,-54.82182 c 2.491,-3.80178 4.7396,-12.99618 4.9968,-20.43198 0.4583,-13.24697 0.2972,-13.51966 -7.9869,-13.51966 -8.3398,0 -8.4663,0.22545 -9.3114,16.59367 -1.2866,24.9164 3.2005,31.24784 12.3015,17.35797 z m -5.6089,-84.74615 -7.5005,-6.44495 -0.5768,-49.4839 c -0.5098,-43.74384 -0.01,-50.05293 4.3275,-54.3891 4.6606,-4.66142 5.1113,-4.63147 9.0696,0.60298 2.2909,3.02952 4.2056,7.58641 4.2549,10.12643 0.1102,5.67945 12.031705,7.93996 35.010905,6.63868 17.2645,-0.97769 21.7172,-3.96257 19.3596,-12.97798 -1.1032,-4.21862 0.1392,-5.32443 5.9818,-5.32443 4.0558,0 7.4389,1.58524 7.518,3.52276 0.2666,6.53034 -0.8306,76.73089 -1.3105,83.84159 -0.7523,11.14896 -4.7967,20.71933 -11.0604,26.17239 -4.7467,4.1325 -10.4296,4.95736 -31.679,4.59818 -22.549005,-0.38113 -26.863705,-1.27036 -33.395105,-6.88265 z m 59.834705,-28.96179 0.8518,-14.65356 -24.102,0 c -13.2561,0 -24.082605,-0.95115 -24.058905,-2.11366 0.1377,-6.74238 6.094905,-8.92511 26.101905,-9.56383 l 21.7645,-0.69483 0,-10.82884 0,-10.82881 -26.0684,0.81029 -26.068405,0.81032 -1.4091,25.36384 c -1.7617,31.71008 1.4127,39.92872 16.362105,42.36258 5.726,0.93221 12.3131,2.04574 14.6381,2.4745 2.3251,0.42879 8.0319,-1.3048 12.682,-3.8524 7.4863,-4.1015 8.5521,-6.31027 9.3064,-19.2856 z"
       id="path3041"
       inkscape:connector-curvature="0" />
  </g>
</svg>
