<?xml version="1.0" encoding="UTF-8" standalone="no"?>
<!-- Created with Inkscape (http://www.inkscape.org/) -->

<svg
   xmlns:dc="http://purl.org/dc/elements/1.1/"
   xmlns:cc="http://creativecommons.org/ns#"
   xmlns:rdf="http://www.w3.org/1999/02/22-rdf-syntax-ns#"
   xmlns:svg="http://www.w3.org/2000/svg"
   xmlns="http://www.w3.org/2000/svg"
   xmlns:sodipodi="http://sodipodi.sourceforge.net/DTD/sodipodi-0.dtd"
   xmlns:inkscape="http://www.inkscape.org/namespaces/inkscape"
   width="300"
   height="300"
   id="svg2"
   version="1.1"
   inkscape:version="0.48.4 r9939"
   sodipodi:docname="image-seal.svg">
  <defs
     id="defs4" />
  <sodipodi:namedview
     id="base"
     pagecolor="#ffffff"
     bordercolor="#666666"
     borderopacity="1.0"
     inkscape:pageopacity="0.0"
     inkscape:pageshadow="2"
     inkscape:zoom="2.0506101"
     inkscape:cx="156.21232"
     inkscape:cy="110.79688"
     inkscape:document-units="px"
     inkscape:current-layer="layer1"
     showgrid="false"
     inkscape:window-width="1215"
     inkscape:window-height="1000"
     inkscape:window-x="65"
     inkscape:window-y="24"
     inkscape:window-maximized="1"
     fit-margin-top="10"
     fit-margin-left="10"
     fit-margin-right="10"
     fit-margin-bottom="10" />
  <metadata
     id="metadata7">
    <rdf:RDF>
      <cc:Work
         rdf:about="">
        <dc:format>image/svg+xml</dc:format>
        <dc:type
           rdf:resource="http://purl.org/dc/dcmitype/StillImage" />
        <dc:title />
      </cc:Work>
    </rdf:RDF>
  </metadata>
  <g
     inkscape:label="Calque 1"
     inkscape:groupmode="layer"
     id="layer1"
     transform="translate(0,-752.36218)">
    <path
       style="fill:#000000"
       d="m 223.52287,1042.7339 c -0.78696,-2.7025 -1.47868,-22.6025 -1.53714,-44.2224 -0.12494,-46.2345 -1.64662,-61.99555 -7.2888,-75.49916 -4.99898,-11.96424 -11.32624,-15.75333 -26.30594,-15.75333 -13.55494,0 -24.31403,-4.24327 -34.71188,-13.68995 -5.96227,-5.41687 -7.72137,-9.56858 -7.72137,-18.22342 0,-16.07501 5.28383,-28.45088 14.46171,-33.87237 10.34295,-6.10974 11.57357,-12.00106 8.85163,-42.37487 -2.24167,-25.01448 -2.30414,-25.17236 -10.51917,-26.59006 -4.54527,-0.78441 -8.01989,-2.3738 -7.72137,-3.53201 0.2985,-1.1582 0.54274,-3.16826 0.54274,-4.4668 0,-1.29853 6.63336,-3.82789 14.7408,-5.62076 16.15487,-3.57249 44.36496,-0.53331 51.7216,5.57216 7.78726,6.46284 12.16373,19.04949 12.86023,36.98575 0.66409,17.10199 0.24175,18.42374 -8.49634,26.59517 -5.58906,5.22655 -16.77808,10.94567 -28.53065,14.58302 -24.48308,7.57742 -31.06455,13.11894 -31.06455,26.1561 0,15.00896 9.08569,22.51073 31.29726,25.84125 17.38661,2.60705 28.47766,9.77885 34.38962,22.23737 7.16858,15.10665 10.22323,119.85761 3.68582,126.39501 -5.59867,5.5987 -6.89493,5.5207 -8.6542,-0.5207 z M 200.1919,825.48282 c 17.62786,-9.07893 22.17106,-19.48607 15.41719,-35.31611 -5.35748,-12.5571 -10.99315,-17.68067 -19.44785,-17.68067 -11.50397,0 -14.39044,7.56532 -12.09475,31.69981 2.54473,26.75272 3.38294,27.85974 16.12541,21.29697 z M 82.367257,1031.3176 c -7.77477,-5.0526 -9.4457,-16.616 -10.69564,-74.01783 -3.67082,-168.57749 -2.90871,-175.97335 19.17604,-186.09199 15.800943,-7.23956 38.111033,-13.41988 42.443053,-11.75751 6.41865,2.46306 5.09574,9.02389 -2.87223,14.24472 l -7.11596,4.66255 0.34367,70.35626 c 0.18896,38.69596 1.44631,73.70041 2.79393,77.78765 1.34762,4.08727 3.08714,20.69809 3.8656,36.91297 0.77845,16.21487 2.226,36.48048 3.21678,45.03468 1.45515,12.5635 0.90738,16.295 -2.84978,19.4131 -3.98597,3.3081 -5.33271,3.1787 -9.41611,-0.9047 -3.50982,-3.5098 -4.86817,-10.1024 -5.15695,-25.0287 -0.21563,-11.14517 -1.16244,-25.94961 -2.10408,-32.89884 -0.94165,-6.94923 -2.29637,-38.53665 -3.01055,-70.19426 -0.71416,-31.65761 -2.15401,-70.57546 -3.19965,-86.48409 -1.7824,-27.11767 -2.26312,-28.87191 -7.6941,-28.0777 -3.186113,0.46589 -8.359853,5.25401 -11.497233,10.64024 -5.06019,8.68732 -5.71033,14.71111 -5.75769,53.34763 -0.0295,23.95497 0.8571,56.82121 1.96998,73.03608 4.32254,62.98003 5.60788,108.79344 3.09588,110.34594 -1.41879,0.8769 -3.90954,0.7301 -5.53496,-0.3262 z"
       id="path3028"
       inkscape:connector-curvature="0" />
  </g>
</svg>
