<?xml version="1.0" encoding="UTF-8" standalone="no"?>
<svg
   xmlns:dc="http://purl.org/dc/elements/1.1/"
   xmlns:cc="http://creativecommons.org/ns#"
   xmlns:rdf="http://www.w3.org/1999/02/22-rdf-syntax-ns#"
   xmlns:svg="http://www.w3.org/2000/svg"
   xmlns="http://www.w3.org/2000/svg"
   viewBox="0 0 300 300"
   height="300"
   width="300"
   id="svg168"
   version="1.1">
  <metadata
     id="metadata174">
    <rdf:RDF>
      <cc:Work
         rdf:about="">
        <dc:format>image/svg+xml</dc:format>
        <dc:type
           rdf:resource="http://purl.org/dc/dcmitype/StillImage" />
        <dc:title></dc:title>
      </cc:Work>
    </rdf:RDF>
  </metadata>
  <defs
     id="defs172" />
  <path
     id="path178"
     d="m 129.85998,284.16541 c -2.39829,-1.88733 -2.62029,-8.5261 -2.62029,-78.35683 v -68.40169 l -2.59,-0.47221 c -1.42449,-0.25971 -9.2722,-0.73233 -17.43932,-1.05024 C 94.982616,135.40845 91.530283,135.04181 87.655399,133.8077 81.011714,131.69178 77.888242,128.70546 76.151336,122.80882 71.183277,105.94267 69.511217,57.640177 73.39543,43.196 c 0.515286,-1.9162 1.128449,-2.62456 2.569213,-2.968129 1.040822,-0.248197 2.419041,-0.607372 3.062706,-0.798168 0.932723,-0.276477 1.458506,0.586203 2.589998,4.249548 1.131216,3.662456 1.419704,6.464812 1.419704,13.791206 0,5.057115 0.188642,9.686374 0.419224,10.287243 0.369536,0.962997 2.903587,1.092487 21.379365,1.092487 h 20.96012 l 0.47023,-2.506453 c 0.84399,-4.498906 -0.2225,-16.830145 -2.02117,-23.36953 -1.89303,-6.882408 -2.78792,-7.960632 -9.45455,-11.391349 -6.81637,-3.507782 -8.59964,-3.741319 -27.263888,-3.570484 -24.099882,0.220588 -30.002347,-0.826645 -31.712497,-5.626522 -1.062158,-2.981181 0.808347,-4.897785 6.20589,-6.358832 4.194493,-1.135397 6.461032,-1.214612 22.60322,-0.789975 9.867687,0.259579 20.307525,0.795809 23.199635,1.191622 6.75126,0.923971 13.92478,3.409936 18.13996,6.286354 3.86678,2.638673 6.57928,7.492655 8.7991,15.74585 3.18166,11.829245 3.15146,10.478874 2.919,130.535932 -0.19666,101.5756 -0.33373,113.74269 -1.29353,114.82328 -1.24748,1.40447 -4.9335,1.59949 -6.52718,0.34533 z m -6.76428,-159.61052 3.79865,-0.79674 -0.0484,-4.83466 c -0.0266,-2.65906 -0.29469,-12.37156 -0.59564,-21.583316 L 125.70309,80.591515 H 105.41924 85.13539 l -0.498818,1.899332 c -0.274339,1.044633 -0.513365,8.42613 -0.531155,16.403317 l -0.03233,14.503996 1.951096,3.97474 c 1.073111,2.1861 2.471716,4.24209 3.108003,4.56886 0.636296,0.32676 4.420302,1.09531 8.408895,1.70786 3.988599,0.61256 8.028999,1.23374 8.978659,1.38041 3.60634,0.55699 12.92912,0.28975 16.57599,-0.47514 z m 40.88886,159.88405 c -1.2627,-0.80098 -2.73743,-6.85818 -3.63987,-14.95018 -0.5628,-5.04656 -0.56944,-13.23104 -0.0246,-30.38932 0.41009,-12.91547 0.8965,-57.35985 1.08092,-98.76529 0.38366,-86.142323 0.71362,-92.951071 5.10421,-105.326613 2.91744,-8.223238 4.10962,-10.135027 7.87617,-12.630243 9.06386,-6.004513 21.64621,-7.426306 55.30901,-6.249861 12.88438,0.450283 13.01541,0.470468 13.63515,2.100508 1.72334,4.532727 1.6374,4.978994 -1.18678,6.163431 -7.84794,3.291348 -24.59096,4.62831 -38.21603,3.051621 -11.71341,-1.355477 -19.85834,2.262305 -25.0543,11.128528 -2.76156,4.712234 -3.84352,9.795247 -4.35014,20.436671 l -0.46855,9.841995 h 20.71806 20.71807 l 0.48547,-3.885485 c 0.26699,-2.137017 0.28569,-7.032115 0.0416,-10.877995 -0.49125,-7.73835 0.32368,-10.52874 3.77615,-12.929826 3.69045,-2.566602 4.50546,-2.359046 6.29621,1.603452 l 1.64642,3.643198 v 32.806651 c 0,31.560598 -0.0573,33.019838 -1.50925,38.419728 -2.39406,8.90383 -3.15915,10.26379 -7.33339,13.03532 -6.0874,4.04182 -8.71504,4.55339 -26.72667,5.20342 -8.92687,0.32216 -16.92996,0.60399 -17.78466,0.62629 l -1.554,0.0405 v 71.38091 c 0,50.33502 -0.22506,72.02649 -0.76332,73.57054 -0.41981,1.20431 -1.33179,2.49388 -2.02659,2.86574 -1.53114,0.81943 -4.81948,0.86633 -6.0492,0.0862 z m 39.85679,-160.38061 c 1.67512,-0.38613 4.4844,-1.32098 6.24284,-2.07744 l 3.19716,-1.37537 1.4449,-14.99968 c 1.15194,-11.958516 1.30183,-16.014887 0.73928,-20.006995 l -0.70562,-5.00733 H 194.48245 174.205 v 21.705345 c 0,20.09098 0.0898,21.72884 1.20867,22.0212 2.42329,0.63328 25.46699,0.42273 28.42768,-0.25973 z"
     style="fill:#000000;stroke-width:0.69066638" />
</svg>
