<?xml version="1.0" encoding="UTF-8" standalone="no"?>
<!-- Created with Inkscape (http://www.inkscape.org/) -->

<svg
   xmlns:dc="http://purl.org/dc/elements/1.1/"
   xmlns:cc="http://creativecommons.org/ns#"
   xmlns:rdf="http://www.w3.org/1999/02/22-rdf-syntax-ns#"
   xmlns:svg="http://www.w3.org/2000/svg"
   xmlns="http://www.w3.org/2000/svg"
   xmlns:sodipodi="http://sodipodi.sourceforge.net/DTD/sodipodi-0.dtd"
   xmlns:inkscape="http://www.inkscape.org/namespaces/inkscape"
   width="300"
   height="300"
   id="svg2"
   version="1.1"
   inkscape:version="0.48.3.1 r9886"
   sodipodi:docname="Nouveau document 1">
  <defs
     id="defs4" />
  <sodipodi:namedview
     id="base"
     pagecolor="#ffffff"
     bordercolor="#666666"
     borderopacity="1.0"
     inkscape:pageopacity="0.0"
     inkscape:pageshadow="2"
     inkscape:zoom="1.979899"
     inkscape:cx="161.84305"
     inkscape:cy="175.95534"
     inkscape:document-units="px"
     inkscape:current-layer="layer1"
     showgrid="false"
     inkscape:window-width="1215"
     inkscape:window-height="1000"
     inkscape:window-x="65"
     inkscape:window-y="24"
     inkscape:window-maximized="1" />
  <metadata
     id="metadata7">
    <rdf:RDF>
      <cc:Work
         rdf:about="">
        <dc:format>image/svg+xml</dc:format>
        <dc:type
           rdf:resource="http://purl.org/dc/dcmitype/StillImage" />
        <dc:title></dc:title>
      </cc:Work>
    </rdf:RDF>
  </metadata>
  <g
     inkscape:label="Calque 1"
     inkscape:groupmode="layer"
     id="layer1"
     transform="translate(0,-752.36218)">
    <path
       style="fill:#000000"
       d="m 249.62202,1037.4179 c -1.05831,-2.2827 -3.15553,-6.2848 -4.66051,-8.8935 -1.50494,-2.6088 -4.73836,-9.5457 -7.18538,-15.4155 -6.87158,-16.48309 -14.96606,-26.31942 -31.25977,-37.98651 -18.88447,-13.5222 -28.91195,-16.53225 -55.54785,-16.67443 -30.37748,-0.16222 -43.93862,-5.2979 -49.58273,-18.77748 -2.438974,-5.82492 -3.616073,-12.36831 -2.615776,-14.54086 4.441556,-9.64671 22.432046,-18.74317 37.069276,-18.74317 7.47014,0 8.63427,-1.30093 10.68079,-11.9357 1.26329,-6.56462 1.37138,-12.96797 0.24014,-14.22966 -1.13113,-1.26167 -12.02847,-2.29395 -24.21623,-2.29395 -19.86595,0 -22.15957,-0.49096 -22.15957,-4.74322 0,-3.95173 2.43997,-4.79375 14.62171,-5.0459 8.04195,-0.16648 18.49217,-0.73538 23.22272,-1.26425 4.73055,-0.52888 23.30873,-1.17916 41.28483,-1.44511 27.29828,-0.40384 34.95142,0.32948 46.44543,4.4505 13.60927,4.87943 13.77307,5.09909 14.79759,19.84586 0.88438,12.72985 -0.0843,15.73387 -6.62041,20.52984 -6.58795,4.83402 -10.89877,5.61803 -30.89058,5.61803 -29.10064,0 -75.65779,4.35551 -81.35878,7.61126 -2.36526,1.35077 -4.3005,5.42256 -4.3005,9.04839 0,7.85883 12.39016,11.77284 37.49771,11.84542 49.70553,0.14371 74.66183,14.11832 93.09461,52.12967 4.11145,8.47847 8.80533,17.54997 10.43084,20.15867 4.17824,6.7057 6.51871,18.1095 4.4715,21.7871 -2.50383,4.4979 -11.20401,3.8285 -13.4591,-1.0355 z M 209.06989,902.8918 c 11.50866,-3.31478 12.0785,-4.01669 11.0708,-13.63677 l -1.06235,-10.14209 -22.00024,-0.71497 c -12.10015,-0.39325 -23.7115,-0.26238 -25.80302,0.2908 -2.31178,0.61145 -3.34037,5.72265 -2.62338,13.0359 1.16877,11.92124 1.29329,12.03837 13.76161,12.94725 6.92022,0.50446 13.01896,1.09658 13.55281,1.31587 0.53382,0.21936 6.43053,-1.17393 13.10377,-3.09599 z M 48.797609,1024.374 c 0.01031,-5.5436 1.490588,-13.8146 3.289024,-18.3799 1.798402,-4.5653 3.952781,-16.83846 4.787492,-27.27355 0.834744,-10.43508 2.352444,-20.57371 3.372695,-22.53029 1.020286,-1.95658 2.722907,-23.10209 3.783651,-46.99003 1.995296,-44.9345 3.141363,-52.08158 9.958521,-62.10403 6.923844,-10.17935 11.311527,-11.7435 37.279338,-13.28972 27.86777,-1.65932 33.84135,-4.49469 33.84135,-16.06293 0,-4.00661 3.2294,-9.47125 7.40998,-12.53882 6.988,-5.12757 9.14317,-5.35242 37.84442,-3.94804 l 30.43445,1.48916 0,-9.68173 c 0,-11.66279 -3.28631,-12.74195 -41.06623,-13.48539 -37.87714,-0.74534 -48.22436,2.66615 -48.33156,15.93495 -0.0434,5.3754 -1.57288,6.52193 -8.70036,6.52193 -4.75622,0 -11.33599,0.94271 -14.62171,2.09491 -3.28573,1.15221 -9.88803,3.34026 -14.671772,4.86236 -8.146425,2.59203 -13.539393,8.57585 -18.651557,20.69497 -1.188315,2.81709 -4.319322,6.35698 -6.957766,7.86646 -3.796553,2.17202 -5.975876,1.50446 -10.447815,-3.20033 -5.212554,-5.48396 -5.220087,-6.57011 -0.09736,-14.01189 7.795505,-11.32436 25.068629,-21.6804 42.409358,-25.42639 20.651052,-4.46104 18.476892,-10.26786 -4.43798,-11.85297 -12.326447,-0.85267 -17.445353,-2.28801 -18.221129,-5.10924 -1.913862,-6.96009 18.224121,-9.11142 81.868581,-8.74602 75.97248,0.4362 83.3306,2.54325 83.0918,23.79378 -0.20986,18.68731 -6.82363,21.98857 -44.15124,22.03842 l -29.79177,0.0398 -2.76465,7.05798 c -1.52055,3.8819 -1.64379,7.77286 -0.27385,8.64659 1.36989,0.87371 14.8099,2.27365 29.86664,3.11093 49.11463,2.73119 73.45101,9.47192 56.61781,15.6821 -7.90284,2.91554 -31.55244,3.63099 -37.41823,1.13195 -1.84361,-0.78546 -29.2172,-1.53858 -60.83016,-1.67362 -55.694547,-0.2379 -57.672916,-0.0797 -63.756615,5.09941 -4.540952,3.86567 -6.278562,9.34011 -6.278562,19.78087 0,7.93974 -1.564936,29.4328 -3.477593,47.76235 -11.162936,106.97594 -12.413213,112.77534 -24.312429,112.77534 -5.490574,0 -6.610734,-1.712 -6.594805,-10.0793 z"
       id="path2996"
       inkscape:connector-curvature="0" />
  </g>
</svg>
