<?xml version="1.0" encoding="UTF-8" standalone="no"?>
<!-- Created with Inkscape (http://www.inkscape.org/) -->

<svg
   xmlns:dc="http://purl.org/dc/elements/1.1/"
   xmlns:cc="http://creativecommons.org/ns#"
   xmlns:rdf="http://www.w3.org/1999/02/22-rdf-syntax-ns#"
   xmlns:svg="http://www.w3.org/2000/svg"
   xmlns="http://www.w3.org/2000/svg"
   xmlns:sodipodi="http://sodipodi.sourceforge.net/DTD/sodipodi-0.dtd"
   xmlns:inkscape="http://www.inkscape.org/namespaces/inkscape"
   width="300"
   height="300"
   id="svg2"
   version="1.1"
   inkscape:version="0.48.2 r9819"
   sodipodi:docname="Nouveau document 1">
  <defs
     id="defs4" />
  <sodipodi:namedview
     id="base"
     pagecolor="#ffffff"
     bordercolor="#666666"
     borderopacity="1.0"
     inkscape:pageopacity="0.0"
     inkscape:pageshadow="2"
     inkscape:zoom="1.979899"
     inkscape:cx="236.79696"
     inkscape:cy="176.86292"
     inkscape:document-units="px"
     inkscape:current-layer="layer1"
     showgrid="false"
     inkscape:window-width="1280"
     inkscape:window-height="999"
     inkscape:window-x="0"
     inkscape:window-y="24"
     inkscape:window-maximized="1" />
  <metadata
     id="metadata7">
    <rdf:RDF>
      <cc:Work
         rdf:about="">
        <dc:format>image/svg+xml</dc:format>
        <dc:type
           rdf:resource="http://purl.org/dc/dcmitype/StillImage" />
        <dc:title></dc:title>
      </cc:Work>
    </rdf:RDF>
  </metadata>
  <g
     inkscape:label="Calque 1"
     inkscape:groupmode="layer"
     id="layer1"
     transform="translate(0,-752.36218)">
    <path
       style="fill:#000000"
       d="m 242.17983,1028.227 c -2.68107,-1.7327 -3.42935,-17.0382 -2.36214,-48.31584 0.97375,-28.53908 0.1584,-48.16577 -2.16512,-52.11525 -5.49215,-9.33563 -18.09491,-16.49588 -37.43674,-21.26967 -9.43321,-2.32822 -21.89238,-7.09536 -27.68704,-10.59361 -9.00213,-5.43461 -10.53575,-8.09247 -10.53575,-18.25884 0,-11.00088 1.21556,-12.68391 16.11587,-22.31351 16.04536,-10.36959 16.12443,-10.50099 18.06179,-30.01776 l 1.94588,-19.60257 -18.06177,1.38245 c -16.32304,1.24938 -18.06177,0.94022 -18.06177,-3.21141 0,-2.6699 3.8321,-5.72231 9.14974,-7.28812 12.27996,-3.61596 73.04554,-3.46803 85.33631,0.20778 20.12703,6.01931 26.71719,35.1482 11.07779,48.96446 -7.28778,6.43824 -32.19489,13.13784 -48.84251,13.13784 -17.25615,0 -33.93271,5.79057 -36.6224,12.71631 -3.5388,9.11221 0.2195,14.24894 13.26181,18.12559 41.39361,12.30375 48.5834,15.47357 56.64177,24.97216 6.86354,8.09022 5.84979,108.42799 -1.14113,112.94609 -3.43477,2.2197 -5.83726,2.3676 -8.67459,0.534 z m 6.43246,-189.60794 c 4.95323,-8.28108 2.20409,-27.0853 -4.60298,-31.48451 -3.08269,-1.99224 -9.0877,-2.96569 -14.31272,-2.3202 -11.19125,1.3826 -17.41148,11.44476 -17.41148,28.16559 l 0,12.02348 16.25421,0 c 14.41127,0 16.6872,-0.72388 20.07297,-6.38436 z M 57.701468,1002.2906 c -2.191414,-5.42676 -5.638099,-14.04563 -7.659346,-19.15311 -2.021234,-5.10748 -5.140166,-11.10038 -6.93097,-13.31759 -4.677874,-5.79167 -4.01732,-38.29436 0.900203,-44.29416 5.222469,-6.37191 13.642331,-11.15513 35.842621,-20.36178 18.30832,-7.59264 23.532234,-14.03783 19.594978,-24.17605 -1.759615,-4.53083 -4.551646,-5.80395 -12.728611,-5.80395 -33.721116,0 -53.294209,-15.54335 -51.886684,-41.20422 1.745631,-31.82497 8.060594,-40.22205 33.589753,-44.66468 13.989386,-2.43446 14.183692,-2.62043 15.252657,-14.59683 1.022686,-11.45837 1.658122,-12.17341 11.461015,-12.8967 10.289836,-0.75923 10.362976,-0.67767 8.576566,9.56488 -2.09955,12.03808 1.82794,17.89905 11.99427,17.89905 7.738,0 20.36299,3.75752 26.58297,7.91181 7.75932,5.18235 12.31884,20.82343 8.86017,30.39429 -1.84568,5.10747 -3.40038,12.94281 -3.45491,17.41186 -0.11885,9.74069 -11.08027,22.21349 -21.37815,24.32575 -6.54717,1.34294 -7.43246,3.38944 -7.43246,17.18139 0,12.28145 -1.50104,16.69812 -6.96257,20.48671 -6.89987,4.78633 -6.86983,5.06732 3.33454,31.1987 5.66339,14.50287 13.64615,32.53952 17.73941,40.0814 10.46524,19.28218 9.5625,34.89073 -1.7156,29.66393 -5.06973,-2.3495 -11.55986,-11.82781 -16.18938,-23.64302 -2.25139,-5.74591 -5.33498,-11.49183 -6.85244,-12.76869 -1.51746,-1.27687 -3.63433,-4.93336 -4.70417,-8.12554 -1.06986,-3.19217 -4.40264,-12.07222 -7.406167,-19.73344 -3.00354,-7.66122 -6.456806,-16.9043 -7.673912,-20.54014 -1.922165,-5.74188 -3.429779,-6.41332 -11.47134,-5.10895 -19.542487,3.16985 -24.644586,14.05851 -16.369744,34.93541 9.792553,24.70607 12.503117,33.52881 14.086624,45.8512 1.576883,12.27107 1.120548,13.34907 -5.649772,13.34907 -5.645105,0 -8.295747,-2.3042 -11.349551,-9.8666 z M 113.4971,859.45374 c 11.15449,-2.07558 19.61255,-9.80464 19.70465,-18.00627 0.0712,-6.33809 -27.70844,-12.11728 -39.177627,-8.1504 -4.152766,1.43631 -9.552876,2.44462 -12.000192,2.24069 -2.447358,-0.20406 -10.691621,-0.24703 -18.320616,-0.0956 l -13.870873,0.27506 2.517407,8.70593 c 3.163907,10.9419 7.104185,14.01726 21.185746,16.53551 11.94312,2.13583 22.541276,1.73675 39.961505,-1.50478 z m 18.99877,-38.72346 c 2.92664,-1.89137 -2.50519,-11.91712 -9.13181,-16.85495 -7.14712,-5.32569 -11.68224,-5.96527 -39.503358,-5.57087 -22.143957,0.31388 -33.228685,5.77517 -33.228685,16.3713 0,5.99477 1.409184,6.90548 11.67495,7.54514 15.444012,0.96234 68.124483,-0.15648 70.188903,-1.49062 z"
       id="path2996"
       inkscape:connector-curvature="0" />
  </g>
</svg>
