<?xml version="1.0" encoding="UTF-8" standalone="no"?>
<!-- Created with Inkscape (http://www.inkscape.org/) -->

<svg
   xmlns:dc="http://purl.org/dc/elements/1.1/"
   xmlns:cc="http://creativecommons.org/ns#"
   xmlns:rdf="http://www.w3.org/1999/02/22-rdf-syntax-ns#"
   xmlns:svg="http://www.w3.org/2000/svg"
   xmlns="http://www.w3.org/2000/svg"
   xmlns:sodipodi="http://sodipodi.sourceforge.net/DTD/sodipodi-0.dtd"
   xmlns:inkscape="http://www.inkscape.org/namespaces/inkscape"
   width="300"
   height="300"
   viewBox="0 0 300 300"
   id="svg2"
   version="1.1"
   inkscape:version="0.91 r13725"
   sodipodi:docname="åµ-seal.svg">
  <defs
     id="defs4">
    <clipPath
       clipPathUnits="userSpaceOnUse"
       id="clipPath4204">
      <rect
         style="fill:#0000ff;fill-rule:evenodd;stroke:#000000;stroke-width:1px;stroke-linecap:butt;stroke-linejoin:miter;stroke-opacity:1"
         id="rect4206"
         width="15.451179"
         height="21.584471"
         x="164.41942"
         y="794.64594" />
    </clipPath>
  </defs>
  <sodipodi:namedview
     id="base"
     pagecolor="#ffffff"
     bordercolor="#666666"
     borderopacity="1.0"
     inkscape:pageopacity="0.0"
     inkscape:pageshadow="2"
     inkscape:zoom="1.71"
     inkscape:cx="150"
     inkscape:cy="150"
     inkscape:document-units="px"
     inkscape:current-layer="layer1"
     showgrid="false"
     inkscape:window-width="1280"
     inkscape:window-height="751"
     inkscape:window-x="0"
     inkscape:window-y="1"
     inkscape:window-maximized="1"
     units="px"
     showguides="false" />
  <metadata
     id="metadata7">
    <rdf:RDF>
      <cc:Work
         rdf:about="">
        <dc:format>image/svg+xml</dc:format>
        <dc:type
           rdf:resource="http://purl.org/dc/dcmitype/StillImage" />
        <dc:title></dc:title>
      </cc:Work>
    </rdf:RDF>
  </metadata>
  <g
     inkscape:label="Layer 1"
     inkscape:groupmode="layer"
     id="layer1"
     transform="translate(0,-752.36216)">
    <path
       style="fill:#000000"
       d="m 104.03376,1028.769 c 0.88663,-4.7263 3.25465,-11.8859 5.26226,-15.9102 4.67952,-9.3803 11.32242,-40.32987 13.18839,-61.44531 2.34994,-26.59204 2.18269,-154.32027 -0.22043,-168.39568 -2.58352,-15.13174 0.94659,-19.78963 8.94005,-11.79618 4.7161,4.71613 4.96172,8.90277 5.02281,85.62349 0.0738,92.69332 -2.79264,128.3219 -12.38798,153.97408 -7.22164,19.3063 -12.05713,26.543 -17.73576,26.543 -2.81743,0 -3.30306,-2.0167 -2.06929,-8.5932 z m 72.81422,-13.3095 c -1.31066,-2.5522 -3.13083,-7.7686 -4.04482,-11.592 -0.91399,-3.8235 -2.77768,-6.95178 -4.14154,-6.95178 -1.36385,0 -2.47974,-5.19377 -2.47974,-11.54174 0,-6.34797 -1.31815,-14.00475 -2.92923,-17.01508 -2.07903,-3.88465 -2.856,-31.90233 -2.67687,-96.52608 0.13878,-50.079 0.31942,-93.49054 0.40135,-96.47005 0.17822,-6.48195 6.98194,-9.72823 11.87609,-5.66645 2.47132,2.05102 2.73233,3.83503 0.88648,6.05913 -3.75224,4.5212 -3.96757,190.37106 -0.22498,194.11374 1.52827,1.52827 2.77867,5.16754 2.77867,8.08727 0,2.91973 1.17823,6.48682 2.61832,7.92692 2.66527,2.66527 4.05354,30.48212 1.64167,32.89402 -0.72735,0.7274 -2.39483,-0.7657 -3.7055,-3.3179 z m 3.22338,-71.65235 c -2.27893,-3.68737 1.07191,-12.61688 4.73456,-12.61688 1.71374,0 4.35937,1.24345 5.87917,2.76325 4.08107,4.08107 14.96682,-3.90902 18.28199,-13.41889 1.49437,-4.28677 2.71704,-13.19044 2.71704,-19.78594 0,-13.81236 -1.69991,-15.06066 -20.5093,-15.06066 -9.14047,0 -12.93058,-1.09054 -14.06507,-4.047 -1.98345,-5.16875 3.3025,-8.50452 13.55461,-8.55381 19.1684,-0.0923 24.83042,-7.38211 18.55442,-23.88921 -2.17708,-5.72613 -3.89405,-6.48432 -14.68425,-6.48432 -13.72972,0 -21.92286,-4.34155 -18.48246,-9.79388 1.47862,-2.34331 7.60596,-3.52503 18.82491,-3.63057 27.41892,-0.25797 29.52903,4.38771 29.82927,65.67313 0.1762,35.95041 -1.86784,42.56949 -15.037,48.69458 -7.35546,3.42106 -27.51318,3.52336 -29.59789,0.15015 z m -88.462603,-5.57829 c -13.59715,-7.85111 -16.15506,-17.0299 -16.32127,-58.5673 -0.12842,-32.11809 3.04263,-45.00872 13.16837,-53.52896 12.476923,-10.49863 35.854233,-6.63749 31.321983,5.17332 -1.00343,2.61489 -4.99838,3.82406 -12.63428,3.82406 -10.122793,0 -11.527193,0.76816 -15.020443,8.21569 -3.57838,7.62903 -5.25814,16.42517 -4.58602,24.01507 0.1863,2.10271 4.8409,3.15987 13.912813,3.15987 10.40323,0 14.01682,1.00017 15.25304,4.22173 2.09292,5.4541 -1.44536,7.47968 -16.57023,9.48608 l -12.315813,1.63375 0,13.65181 c 0,21.07275 2.67429,25.6893 16.042573,27.69401 11.64984,1.74698 18.51428,6.7797 15.62464,11.45524 -2.18138,3.52958 -21.532553,3.22803 -27.875363,-0.43437 z"
       id="path4383"
       inkscape:connector-curvature="0" />
  </g>
</svg>
