<?xml version="1.0" encoding="UTF-8" standalone="no"?>
<!-- Created with Inkscape (http://www.inkscape.org/) -->

<svg
   xmlns:dc="http://purl.org/dc/elements/1.1/"
   xmlns:cc="http://creativecommons.org/ns#"
   xmlns:rdf="http://www.w3.org/1999/02/22-rdf-syntax-ns#"
   xmlns:svg="http://www.w3.org/2000/svg"
   xmlns="http://www.w3.org/2000/svg"
   xmlns:sodipodi="http://sodipodi.sourceforge.net/DTD/sodipodi-0.dtd"
   xmlns:inkscape="http://www.inkscape.org/namespaces/inkscape"
   width="300"
   height="300"
   id="svg2"
   version="1.1"
   inkscape:version="0.47 r22583"
   sodipodi:docname="鄉-oracle.svg">
  <defs
     id="defs4">
    <inkscape:perspective
       sodipodi:type="inkscape:persp3d"
       inkscape:vp_x="0 : 526.18109 : 1"
       inkscape:vp_y="0 : 1000 : 0"
       inkscape:vp_z="744.09448 : 526.18109 : 1"
       inkscape:persp3d-origin="372.04724 : 350.78739 : 1"
       id="perspective10" />
    <inkscape:perspective
       id="perspective2824"
       inkscape:persp3d-origin="0.5 : 0.33333333 : 1"
       inkscape:vp_z="1 : 0.5 : 1"
       inkscape:vp_y="0 : 1000 : 0"
       inkscape:vp_x="0 : 0.5 : 1"
       sodipodi:type="inkscape:persp3d" />
    <inkscape:perspective
       id="perspective2838"
       inkscape:persp3d-origin="0.5 : 0.33333333 : 1"
       inkscape:vp_z="1 : 0.5 : 1"
       inkscape:vp_y="0 : 1000 : 0"
       inkscape:vp_x="0 : 0.5 : 1"
       sodipodi:type="inkscape:persp3d" />
    <inkscape:perspective
       id="perspective2885"
       inkscape:persp3d-origin="0.5 : 0.33333333 : 1"
       inkscape:vp_z="1 : 0.5 : 1"
       inkscape:vp_y="0 : 1000 : 0"
       inkscape:vp_x="0 : 0.5 : 1"
       sodipodi:type="inkscape:persp3d" />
    <inkscape:perspective
       id="perspective2899"
       inkscape:persp3d-origin="0.5 : 0.33333333 : 1"
       inkscape:vp_z="1 : 0.5 : 1"
       inkscape:vp_y="0 : 1000 : 0"
       inkscape:vp_x="0 : 0.5 : 1"
       sodipodi:type="inkscape:persp3d" />
    <inkscape:perspective
       id="perspective2936"
       inkscape:persp3d-origin="0.5 : 0.33333333 : 1"
       inkscape:vp_z="1 : 0.5 : 1"
       inkscape:vp_y="0 : 1000 : 0"
       inkscape:vp_x="0 : 0.5 : 1"
       sodipodi:type="inkscape:persp3d" />
    <inkscape:perspective
       id="perspective2973"
       inkscape:persp3d-origin="0.5 : 0.33333333 : 1"
       inkscape:vp_z="1 : 0.5 : 1"
       inkscape:vp_y="0 : 1000 : 0"
       inkscape:vp_x="0 : 0.5 : 1"
       sodipodi:type="inkscape:persp3d" />
    <inkscape:perspective
       id="perspective2987"
       inkscape:persp3d-origin="0.5 : 0.33333333 : 1"
       inkscape:vp_z="1 : 0.5 : 1"
       inkscape:vp_y="0 : 1000 : 0"
       inkscape:vp_x="0 : 0.5 : 1"
       sodipodi:type="inkscape:persp3d" />
    <inkscape:perspective
       id="perspective3024"
       inkscape:persp3d-origin="0.5 : 0.33333333 : 1"
       inkscape:vp_z="1 : 0.5 : 1"
       inkscape:vp_y="0 : 1000 : 0"
       inkscape:vp_x="0 : 0.5 : 1"
       sodipodi:type="inkscape:persp3d" />
  </defs>
  <sodipodi:namedview
     id="base"
     pagecolor="#ffffff"
     bordercolor="#666666"
     borderopacity="1.0"
     inkscape:pageopacity="0.0"
     inkscape:pageshadow="2"
     inkscape:zoom="1.979899"
     inkscape:cx="229.28788"
     inkscape:cy="199.9025"
     inkscape:document-units="px"
     inkscape:current-layer="layer1"
     showgrid="false"
     inkscape:window-width="1280"
     inkscape:window-height="950"
     inkscape:window-x="0"
     inkscape:window-y="25"
     inkscape:window-maximized="1" />
  <metadata
     id="metadata7">
    <rdf:RDF>
      <cc:Work
         rdf:about="">
        <dc:format>image/svg+xml</dc:format>
        <dc:type
           rdf:resource="http://purl.org/dc/dcmitype/StillImage" />
        <dc:title></dc:title>
      </cc:Work>
    </rdf:RDF>
  </metadata>
  <g
     inkscape:label="Calque 1"
     inkscape:groupmode="layer"
     id="layer1"
     transform="translate(0,-752.36218)">
    <path
       style="fill:#000000"
       d="m 67.500027,1032.1076 c 0,-3.253 3.548187,-9.1116 7.88486,-13.019 13.128179,-11.8288 20.787362,-27.71455 20.787362,-43.11471 -2.99182,-31.10073 -23.086987,-44.54739 -24.093899,-77.8766 -1.217596,-27.56435 14.332554,-39.63968 20.877391,-64.14153 2.391521,-9.98638 2.018296,-12.98631 -2.33369,-18.75783 -9.484628,-12.57834 -17.518526,-30.59714 -14.782307,-33.1544 4.291085,-4.01042 17.083885,6.47282 23.520741,19.2744 7.333325,14.58449 8.550655,36.1301 5.413435,40.50586 -4.70752,6.56599 -1.65522,26.98708 6.55633,43.55397 15.35924,30.98741 16.11679,34.15706 8.16367,34.15706 -3.84779,0 -7.75744,-5.08024 -13.92005,-18.08792 -4.7132,-9.94835 -9.466221,-21.55221 -10.562215,-25.78636 -1.887693,-7.29262 -2.20716,-7.43389 -6.05933,-2.67969 -10.43039,15.41572 -8.397314,35.61485 0.691746,51.43082 6.140702,13.79023 15.656969,26.53796 19.474349,41.29287 2.35757,11.74506 -6.00394,43.95226 -13.314781,51.28626 -2.951204,2.9605 -5.365836,6.4474 -5.365836,7.7486 0,4.0318 -7.554385,9.6743 -15.423361,11.5202 -6.407725,1.503 -7.514415,0.8915 -7.514415,-4.152 z m 162.192713,-6.072 c -18.44005,-28.93279 -26.31907,-49.08927 -22.88784,-58.55271 2.00994,-12.65746 8.12881,-23.665 14.04604,-35.04071 9.39422,-17.6692 12.94797,-27.56322 12.94797,-36.04835 2.88423,-7.87879 -5.18463,-10.75615 -5.73444,-16.89622 0,-7.10398 -5.33552,-9.66053 -7.67527,-3.6776 -1.04516,2.67261 -5.95296,10.8886 -10.90616,18.25775 -4.95322,7.36914 -9.8546,15.50871 -10.89195,18.08791 -2.1889,5.44234 -10.66774,6.37484 -10.66774,1.17324 0,-3.65914 6.51052,-17.40817 19.55372,-41.29387 7.45971,-13.66082 7.525,-14.20254 2.74454,-22.77737 -2.6933,-4.83105 -5.68299,-11.93791 -6.6437,-15.79301 -1.99128,-15.76153 9.90516,-34.19852 20.00441,-46.58453 6.60697,-7.63327 7.21324,-7.80514 12.00993,-3.40485 4.82166,4.42318 4.78201,4.91135 -0.87083,10.71876 -9.40053,10.96981 -21.81366,22.24218 -17.93685,37.64205 1.62493,5.5001 5.90736,12.70827 9.51653,16.01822 11.532,10.57595 17.99356,24.46254 20.03104,43.04868 1.90712,43.55398 -39.28841,65.60225 -15.49444,108.86355 4.01934,9.52486 24.71447,31.73386 10.84608,34.96806 -4.21462,-0.011 -8.37189,-3.0305 -11.99104,-8.709 z m -93.49358,-14.3322 c -7.4162,-30.31184 -11.1925,-57.85568 11.90522,-82.11463 12.00428,-10.81641 14.78372,-20.77272 5.79899,-20.77272 -7.19877,0 -19.60297,-9.441 -24.84012,-18.90616 -4.77241,-8.6252 -6.52537,-63.73477 -2.11734,-66.56348 6.08812,-6.22454 6.63432,-16.67763 15.88084,-19.5562 5.24492,-0.72423 5.94188,-2.65214 5.86355,-16.21973 -0.0573,-9.95505 1.31823,-16.48924 3.89196,-18.48554 6.1532,-4.77268 12.20451,4.83846 12.31214,19.55505 0.0808,11.04685 1.26666,13.34993 10.39993,20.19769 12.60601,9.45143 14.95816,19.08109 13.58795,55.62821 -0.81846,21.82915 -2.03367,27.51546 -7.38001,34.5326 -5.9703,7.83615 -7.65965,15.34384 -7.93735,35.27463 -1.81203,21.77144 20.6506,60.88708 12.47183,79.92088 -3.14051,2.9351 -9.58228,-3.8151 -9.58228,-10.0411 -6.58588,-16.99723 -11.48932,-56.89776 -20.73864,-65.86025 -1.25589,0 -4.93473,3.91904 -8.17524,8.70899 -13.75066,14.1545 4.34927,61.16166 -5.39102,71.68176 -1.71102,0 -4.3887,-3.141 -5.95041,-6.98 z m 36.20485,-121.68903 c 0.13767,-2.18662 1.2279,-8.39284 2.42274,-13.79155 3.87192,-17.49515 1.44979,-19.7862 -19.83561,-18.76215 l -18.67779,0.89855 0.0439,11.16005 c 0.0565,14.38562 2.91929,18.29071 16.273,22.19848 13.5393,3.96208 19.44903,3.453 19.7737,-1.70338 l 6e-5,0 z m 1.18323,-52.9537 c 0,-13.29071 -6.69252,-22.0338 -16.86611,-22.0338 -9.36002,0 -19.51632,9.16753 -20.78103,18.75784 -1.45276,11.01669 2.21146,13.39846 20.61303,13.39846 l 17.03411,0 0,-10.1225 z"
       id="path3030"
       sodipodi:nodetypes="cscccsssssssscccsssccccccssssssccsccsccccccssccssssssccccccccscccscccssccc" />
  </g>
</svg>
