<?xml version="1.0" encoding="UTF-8" standalone="no"?>
<!-- Created with Inkscape (http://www.inkscape.org/) -->

<svg
   xmlns:dc="http://purl.org/dc/elements/1.1/"
   xmlns:cc="http://creativecommons.org/ns#"
   xmlns:rdf="http://www.w3.org/1999/02/22-rdf-syntax-ns#"
   xmlns:svg="http://www.w3.org/2000/svg"
   xmlns="http://www.w3.org/2000/svg"
   xmlns:sodipodi="http://sodipodi.sourceforge.net/DTD/sodipodi-0.dtd"
   xmlns:inkscape="http://www.inkscape.org/namespaces/inkscape"
   width="300"
   height="300"
   id="svg2"
   version="1.1"
   inkscape:version="0.48.4 r9939"
   sodipodi:docname="dessin.svg">
  <defs
     id="defs4" />
  <sodipodi:namedview
     id="base"
     pagecolor="#ffffff"
     bordercolor="#666666"
     borderopacity="1.0"
     inkscape:pageopacity="0.0"
     inkscape:pageshadow="2"
     inkscape:zoom="1.979899"
     inkscape:cx="218.29155"
     inkscape:cy="144.09165"
     inkscape:document-units="px"
     inkscape:current-layer="layer1"
     showgrid="false"
     inkscape:window-width="1215"
     inkscape:window-height="1000"
     inkscape:window-x="65"
     inkscape:window-y="24"
     inkscape:window-maximized="1" />
  <metadata
     id="metadata7">
    <rdf:RDF>
      <cc:Work
         rdf:about="">
        <dc:format>image/svg+xml</dc:format>
        <dc:type
           rdf:resource="http://purl.org/dc/dcmitype/StillImage" />
        <dc:title />
      </cc:Work>
    </rdf:RDF>
  </metadata>
  <g
     inkscape:label="Calque 1"
     inkscape:groupmode="layer"
     id="layer1"
     transform="translate(0,-752.36218)">
    <path
       style="fill:#000000"
       d="m 231.21817,1043.8614 c -0.0284,-1.2262 -2.01702,-13.3506 -4.41989,-26.9432 -2.40291,-13.5926 -5.50165,-32.32305 -6.88615,-41.62324 -1.38446,-9.30019 -3.44776,-21.59204 -4.58509,-27.31524 -2.07686,-10.45096 -8.73244,-17.73891 -13.65739,-14.95504 -1.45271,0.82118 -15.08576,1.9845 -30.29567,2.5852 -41.41111,1.63543 -53.34446,-5.81589 -50.05068,-31.25214 1.92819,-14.89024 13.27148,-27.01331 27.75476,-29.66262 l 8.70419,-1.5922 -1.8044,-15.89135 c -3.62235,-31.90209 -3.11537,-31.09433 -18.16177,-28.93698 -22.87938,3.28046 -24.5175,3.07981 -25.48165,-3.12145 -0.66303,-4.26475 0.81464,-6.08646 5.68863,-7.01297 15.6513,-2.97522 28.23898,-4.58831 55.38921,-7.09808 33.21709,-3.07061 40.00226,-0.92367 48.43243,15.32471 5.55316,10.70317 5.68991,38.25829 0.21476,43.24687 -8.67148,7.90066 -19.13576,11.61025 -37.57871,13.32167 -10.87216,1.00887 -26.62685,4.6088 -35.01041,7.99982 l -15.24281,6.16552 0.87863,11.13155 0.87864,11.13153 37.90047,0.72724 c 35.12438,0.67396 38.37638,1.16245 44.39736,6.66934 3.57328,3.26817 7.18227,9.37951 8.01997,13.58074 1.44468,7.24533 7.60862,30.29382 13.60281,50.8644 2.66254,9.13712 3.94006,51.72722 1.55164,51.72722 -0.65426,0 -3.21414,0.7105 -5.68863,1.579 -2.47453,0.8685 -4.52206,0.5758 -4.55014,-0.6503 z M 200.73142,865.38365 c 9.27172,-4.73973 10.53574,-7.16578 10.58403,-20.31438 0.06,-16.37247 -4.47018,-21.0777 -21.28388,-22.10575 -21.13349,-1.29219 -23.49389,0.82107 -21.03692,18.83411 1.13516,8.32222 2.17195,17.76529 2.30396,20.98458 0.20763,5.06136 1.78452,5.85326 11.65585,5.85326 6.27871,0 14.27833,-1.46331 17.77696,-3.25182 z M 73.061803,1021.4707 c 1.028533,-7.5117 3.5505,-25.94947 5.604408,-40.97285 3.345908,-24.47385 3.562816,-54.2679 0.991301,-136.17471 -0.307499,-9.79476 0.243472,-18.26219 1.224732,-18.81652 0.98109,-0.55432 0.904493,-4.83227 -0.170373,-9.50656 -2.445258,-10.63486 1.734007,-23.82726 9.509337,-30.01746 8.567302,-6.82071 21.737092,-10.21629 57.140622,-14.73257 49.22741,-6.27971 64.63242,-6.73504 70.39676,-2.08081 6.90724,5.57704 6.21991,10.98389 -1.42215,11.18719 -34.8837,0.92802 -89.8353,6.51658 -105.03693,10.68222 -6.01504,1.64825 -12.52115,4.74543 -14.45805,6.88257 -2.68773,2.96568 -3.332794,25.81112 -2.7242,96.48302 0.94838,110.12798 -2.787766,140.72408 -17.184118,140.72408 -5.267498,0 -5.587114,-1.1275 -3.871452,-13.6576 z"
       id="path3002"
       inkscape:connector-curvature="0" />
  </g>
</svg>
