<?xml version="1.0" encoding="UTF-8" standalone="no"?>
<!-- Created with Inkscape (http://www.inkscape.org/) -->

<svg
   xmlns:dc="http://purl.org/dc/elements/1.1/"
   xmlns:cc="http://creativecommons.org/ns#"
   xmlns:rdf="http://www.w3.org/1999/02/22-rdf-syntax-ns#"
   xmlns:svg="http://www.w3.org/2000/svg"
   xmlns="http://www.w3.org/2000/svg"
   xmlns:sodipodi="http://sodipodi.sourceforge.net/DTD/sodipodi-0.dtd"
   xmlns:inkscape="http://www.inkscape.org/namespaces/inkscape"
   width="300"
   height="300"
   id="svg2"
   version="1.1"
   inkscape:version="0.48.4 r9939"
   sodipodi:docname="image-seal.svg">
  <defs
     id="defs4" />
  <sodipodi:namedview
     id="base"
     pagecolor="#ffffff"
     bordercolor="#666666"
     borderopacity="1.0"
     inkscape:pageopacity="0.0"
     inkscape:pageshadow="2"
     inkscape:zoom="2.0018437"
     inkscape:cx="138.54008"
     inkscape:cy="168.92159"
     inkscape:document-units="px"
     inkscape:current-layer="layer1"
     showgrid="false"
     inkscape:window-width="1215"
     inkscape:window-height="1000"
     inkscape:window-x="65"
     inkscape:window-y="24"
     inkscape:window-maximized="1"
     fit-margin-top="10"
     fit-margin-left="10"
     fit-margin-right="10"
     fit-margin-bottom="10" />
  <metadata
     id="metadata7">
    <rdf:RDF>
      <cc:Work
         rdf:about="">
        <dc:format>image/svg+xml</dc:format>
        <dc:type
           rdf:resource="http://purl.org/dc/dcmitype/StillImage" />
        <dc:title />
      </cc:Work>
    </rdf:RDF>
  </metadata>
  <g
     inkscape:label="Calque 1"
     inkscape:groupmode="layer"
     id="layer1"
     transform="translate(0,-752.36218)">
    <path
       style="fill:#000000"
       d="m 122.51158,1043.4205 c -2.04273,-5.3232 0.64959,-35.9194 4.16948,-47.38289 1.51386,-4.93029 8.81755,-15.19098 16.23044,-22.80149 7.41288,-7.61054 13.54523,-14.06355 13.62742,-14.34 0.0822,-0.27649 1.7452,-10.98956 3.69556,-23.80686 2.71058,-17.81325 2.81216,-25.88815 0.43113,-34.27085 -2.89044,-10.17614 -3.89796,-11.02968 -13.97682,-11.84078 l -10.86183,-0.87407 8.91042,9.22961 c 4.90073,5.07628 8.92932,11.63838 8.95241,14.58244 0.023,2.94403 1.18626,7.16206 2.58483,9.37335 3.20165,5.06219 -1.37805,11.05863 -8.44586,11.05863 -3.97912,0 -5.14839,-2.02267 -5.15098,-8.91042 -0.006,-15.08121 -19.17044,-31.62934 -23.51592,-20.30518 -0.77762,2.02642 2.48063,7.85345 7.24055,12.94895 4.75991,5.0955 9.75299,12.15409 11.09572,15.68575 3.94948,10.3879 2.96797,25.22592 -1.78941,27.05149 -5.458,2.09444 -5.9131,1.4717 -7.44997,-10.19432 -1.43441,-10.88832 -6.45836,-21.75961 -10.05576,-21.75961 -4.16543,0 -5.36893,7.40234 -3.75146,23.07408 1.46364,14.1813 1.16016,15.30928 -4.11886,15.30928 -4.65454,0 -6.03882,-2.2667 -7.55376,-12.36901 -2.20884,-14.72958 0.89404,-47.94769 4.47876,-47.94769 1.38789,0 2.52345,-1.89403 2.52345,-4.20896 0,-12.99367 21.80584,-28.69106 39.85586,-28.69106 11.41631,0 25.94417,12.16382 25.94417,21.72246 0,6.37407 3.51801,7.46405 7.31746,2.26714 3.50066,-4.78824 8.36548,-20.53721 10.44896,-33.82665 1.70353,-10.86594 1.48023,-11.28874 -7.31923,-13.85757 -8.11786,-2.36984 -9.84396,-1.83769 -16.34509,5.03913 -5.81619,6.15233 -9.92531,7.78902 -20.56252,8.19024 -37.15429,1.4014 -39.33961,-0.93261 -39.33961,-42.01623 0,-24.49774 0.77155,-30.23673 4.24422,-31.56932 2.4116,-0.92542 5.76234,0.44749 7.76007,3.17954 2.44118,3.3385 8.4947,5.18778 19.80432,6.04993 13.801,1.05209 17.05149,0.39858 21.28503,-4.27944 9.37541,-10.3597 12.70639,-4.72453 12.70639,21.49599 l 0,24.0586 10.28126,-3.54607 c 9.9189,-3.42111 10.28969,-4.01364 10.52066,-16.81235 0.13169,-7.29645 -0.71509,-17.50382 -1.88172,-22.68305 -2.32975,-10.34292 0.96074,-19.37074 7.06031,-19.37074 6.38419,0 8.22521,5.74695 9.66118,30.15835 1.2331,20.96274 1.91798,23.30418 6.81662,23.30418 3.3527,0 5.7517,-2.10752 6.24171,-5.48333 3.50523,-24.14854 7.61466,-37.12929 11.5164,-36.37777 3.51002,0.67606 4.32665,7.20812 4.89535,39.1571 0.37541,21.09012 0.99229,42.04694 1.37083,46.57069 0.5604,6.69694 -0.45777,8.38778 -5.48048,9.10111 -5.33192,0.75725 -6.17083,-0.35853 -6.18405,-8.22501 -0.008,-5.0056 -1.32068,-13.80205 -2.91617,-19.54762 -2.54163,-9.15282 -3.81298,-10.34119 -10.26596,-9.59584 -6.4952,0.7502 -7.46232,2.17899 -8.18833,12.09714 -0.71312,9.74216 0.20368,11.91809 6.85417,16.26744 11.62625,7.60347 13.75416,10.38015 17.47684,22.80534 3.75071,12.51873 3.16586,14.42718 -11.84006,38.63633 -5.75355,9.28224 -7.55521,15.64179 -7.55521,26.66867 0,16.14823 9.81589,45.36562 20.87729,62.14212 7.85041,11.9065 6.89764,19.0842 -2.35877,17.7698 -4.42851,-0.6289 -8.54484,-5.5418 -14.51816,-17.3277 -12.2637,-24.19748 -16.33877,-38.96689 -16.33029,-59.18647 0.006,-14.62494 1.48136,-20.76924 7.75355,-32.29332 10.96273,-20.14216 13.12973,-29.06705 8.53067,-35.13401 -2.07894,-2.74246 -3.81914,-7.14536 -3.86709,-9.78422 -0.17382,-9.56513 -10.04098,-5.19952 -15.4354,6.82922 -2.86787,6.39492 -8.65565,15.55776 -12.86174,20.36185 -6.04257,6.90171 -7.979,12.37279 -9.22745,26.0708 -1.92924,21.16762 -6.27281,30.17688 -18.06169,37.46281 -18.59033,11.48946 -28.81808,31.05334 -25.49492,48.76724 0.97848,5.2158 1.01303,11.8968 0.0768,14.8467 -2.0086,6.3285 -8.30579,7.0974 -10.53568,1.2864 z m 36.34765,-199.49171 c 4.23485,-11.39251 0.91506,-13.84282 -16.60277,-12.25435 -14.13677,1.28187 -16.02533,0.87212 -16.02533,-3.4769 0,-6.16207 5.29829,-8.25835 20.87278,-8.25835 8.54723,0 12.69293,-1.28633 13.84816,-4.29679 3.10316,-8.08669 -2.87791,-9.86543 -21.98478,-6.53811 l -18.2195,3.17279 0,15.62022 c 0,8.59115 1.4805,17.10074 3.29,18.91024 1.8095,1.8095 9.86864,3.29 17.90919,3.29 12.65344,0 14.92752,-0.82946 16.91225,-6.16875 z M 70.615965,1032.9648 c -1.411693,-3.6788 -0.813584,-11.8472 6.263278,-85.53803 4.142949,-43.14021 4.324636,-54.86706 1.643981,-106.10816 -2.402943,-45.93259 0.05673,-66.56403 8.858207,-74.30137 7.291691,-6.4101 22.567019,-8.0264 87.097259,-9.21576 52.05951,-0.95953 61.07682,-0.52416 64.07949,3.09383 2.66432,3.21033 2.73974,5.11985 0.31746,8.03852 -2.55054,3.07322 -15.61353,3.82797 -66.25188,3.82797 -73.045423,0 -77.963965,1.04068 -80.67188,17.0687 -1.514594,8.96481 -1.967002,79.20158 -0.706062,109.61707 0.983699,23.7281 -4.261052,114.18673 -7.2113,124.37663 -3.28206,11.336 -10.650128,16.355 -13.41855,9.1406 z"
       id="path3080"
       inkscape:connector-curvature="0" />
  </g>
</svg>
