<?xml version="1.0" encoding="UTF-8" standalone="no"?>
<svg
   xmlns:dc="http://purl.org/dc/elements/1.1/"
   xmlns:cc="http://creativecommons.org/ns#"
   xmlns:rdf="http://www.w3.org/1999/02/22-rdf-syntax-ns#"
   xmlns:svg="http://www.w3.org/2000/svg"
   xmlns="http://www.w3.org/2000/svg"
   viewBox="0 0 300 300"
   height="300"
   width="300"
   id="svg116"
   version="1.1">
  <metadata
     id="metadata122">
    <rdf:RDF>
      <cc:Work
         rdf:about="">
        <dc:format>image/svg+xml</dc:format>
        <dc:type
           rdf:resource="http://purl.org/dc/dcmitype/StillImage" />
        <dc:title></dc:title>
      </cc:Work>
    </rdf:RDF>
  </metadata>
  <defs
     id="defs120" />
  <path
     id="path126"
     d="m 81.370685,222.53313 c -0.09901,-29.54296 23.899505,-46.62693 45.222625,-64.83219 35.4127,-30.23466 27.95311,-93.483539 -2.57816,-132.236381 -6.21999,-7.894905 4.91582,-14.222853 10.3142,-7.857684 36.04094,42.495481 42.61554,116.688215 2.53056,149.065945 -21.67495,17.50746 -42.628889,32.08124 -42.62789,55.87219 0.0014,33.774 28.03268,49.17985 58.47744,48.91435 32.07931,-0.27977 52.6088,-14.97766 52.64544,-47.06337 0.0239,-20.97003 -11.01726,-31.5941 -22.81203,-44.85101 -3.40807,-3.83056 -4.78351,-8.55631 -2.05409,-11.18842 3.07042,-2.96094 9.30174,-0.76391 12.49407,2.76594 13.47858,14.9037 25.54907,31.04341 25.64605,53.52932 0.16317,37.82993 -27.24144,60.28619 -66.76425,60.34806 -39.26849,0.0615 -70.361952,-23.07549 -70.493965,-62.46675 z"
     style="fill:#000000;stroke-width:0.69324464" />
</svg>
