<?xml version="1.0" encoding="UTF-8" standalone="no"?>
<!-- Created with Inkscape (http://www.inkscape.org/) -->

<svg
   xmlns:dc="http://purl.org/dc/elements/1.1/"
   xmlns:cc="http://creativecommons.org/ns#"
   xmlns:rdf="http://www.w3.org/1999/02/22-rdf-syntax-ns#"
   xmlns:svg="http://www.w3.org/2000/svg"
   xmlns="http://www.w3.org/2000/svg"
   xmlns:sodipodi="http://sodipodi.sourceforge.net/DTD/sodipodi-0.dtd"
   xmlns:inkscape="http://www.inkscape.org/namespaces/inkscape"
   width="300"
   height="300"
   viewBox="0 0 300 300"
   id="svg2"
   version="1.1"
   inkscape:version="0.91 r13725"
   sodipodi:docname="å‰-seal.svg">
  <defs
     id="defs4">
    <clipPath
       clipPathUnits="userSpaceOnUse"
       id="clipPath4204">
      <rect
         style="fill:#0000ff;fill-rule:evenodd;stroke:#000000;stroke-width:1px;stroke-linecap:butt;stroke-linejoin:miter;stroke-opacity:1"
         id="rect4206"
         width="15.451179"
         height="21.584471"
         x="164.41942"
         y="794.64594" />
    </clipPath>
  </defs>
  <sodipodi:namedview
     id="base"
     pagecolor="#ffffff"
     bordercolor="#666666"
     borderopacity="1.0"
     inkscape:pageopacity="0.0"
     inkscape:pageshadow="2"
     inkscape:zoom="1.71"
     inkscape:cx="150"
     inkscape:cy="150"
     inkscape:document-units="px"
     inkscape:current-layer="layer1"
     showgrid="false"
     inkscape:window-width="1280"
     inkscape:window-height="751"
     inkscape:window-x="0"
     inkscape:window-y="1"
     inkscape:window-maximized="1"
     units="px"
     showguides="false" />
  <metadata
     id="metadata7">
    <rdf:RDF>
      <cc:Work
         rdf:about="">
        <dc:format>image/svg+xml</dc:format>
        <dc:type
           rdf:resource="http://purl.org/dc/dcmitype/StillImage" />
        <dc:title></dc:title>
      </cc:Work>
    </rdf:RDF>
  </metadata>
  <g
     inkscape:label="Layer 1"
     inkscape:groupmode="layer"
     id="layer1"
     transform="translate(0,-752.36216)">
    <path
       style="fill:#000000"
       d="m 214.5505,1025.4345 c -4.6872,-7.762 -16.88454,-20.1781 -20.49015,-27.2156 -8.34588,-18.66822 -23.4594,-46.13092 -25.42687,-65.60824 -0.71075,-7.39699 -2.52619,-14.68299 -4.03429,-16.19109 -2.94268,-2.94269 -46.56346,-3.32153 -67.364091,-0.58507 -13.369963,1.75894 -25.955093,-0.26079 -25.955093,-4.16537 0,-7.80049 8.555448,-9.95488 46.687334,-11.7566 25.78025,-1.21813 39.92453,-2.94458 41.33557,-5.04546 2.48601,-3.70133 0.0159,-24.79735 -3.72091,-31.78057 -2.27099,-4.24374 -4.99227,-4.55997 -25.1582,-2.92373 -13.7123,-1.44896 -58.237893,5.60021 -63.494503,-2.94199 -3.455867,-9.00581 3.720103,-11.41645 38.255273,-12.85127 18.48516,-0.76799 37.43157,-1.60117 42.10314,-1.85147 15.00984,-0.80427 21.33374,2.16915 24.30034,11.42577 3.54522,11.06213 5.99074,22.75003 6.5094,31.11057 0.34896,5.62505 1.87554,6.74086 10.16599,7.43042 10.61449,0.88285 14.94711,-3.66783 16.75938,-17.60279 0.50336,-3.8704 2.22173,-12.81616 3.81864,-19.8795 3.88817,-17.19787 3.11943,-57.56995 -1.20893,-63.48932 -5.7543,-7.86951 -19.36321,-9.71546 -71.62456,-9.71546 -39.396915,0 -51.605136,-0.82428 -55.61305,-3.75495 -2.824333,-2.06521 -4.219279,-4.67083 -3.099878,-5.79024 1.11941,-1.11943 31.703958,-2.50725 67.965608,-3.08409 26.28127,3.23731 56.40631,-9.70077 74.0792,6.7388 14.08984,11.03796 8.14895,25.36961 8.14895,43.08423 0,19.41318 -1.31589,42.51694 -2.92419,51.34168 -1.60831,8.82476 -3.36298,18.50603 -3.89931,21.51389 -1.37942,7.73625 -10.09892,17.03308 -15.99173,17.05056 -2.74154,0.008 -9.29328,1.21157 -14.55937,2.67435 l -9.57473,2.6596 3.82439,15.197 c 2.10342,8.35833 4.48696,18.17552 5.29673,21.81598 0.80976,3.64046 2.33956,7.81044 3.39954,9.26663 1.05998,1.45618 2.67922,5.80172 3.59834,9.65675 0.91912,3.85504 5.55124,11.83355 10.29361,17.73006 13.27128,16.50102 24.87871,33.04592 26.57847,37.88412 0.84554,2.4067 -0.0331,6.5236 -1.95245,9.1485 -3.22505,4.4105 -4.51705,3.69 -17.0276,-9.4961 z M 76.866747,815.24409 c -2.297257,-2.76805 -1.968133,-4.48182 1.398276,-7.28092 3.29804,-2.74226 16.389028,-3.87024 52.173977,-4.49553 50.2665,-0.87834 59.9833,0.82905 59.9833,10.53999 0,4.25301 -2.24451,4.8049 -18.53324,4.55695 -29.00002,0.38825 -66.57196,4.95753 -95.022313,-3.32049 z"
       id="path4206"
       inkscape:connector-curvature="0"
       sodipodi:nodetypes="cccssssscccssssssssssscccsscscsssssscccssscc" />
  </g>
</svg>
