<?xml version="1.0" encoding="UTF-8" standalone="no"?>
<!-- Created with Inkscape (http://www.inkscape.org/) -->

<svg
   xmlns:dc="http://purl.org/dc/elements/1.1/"
   xmlns:cc="http://creativecommons.org/ns#"
   xmlns:rdf="http://www.w3.org/1999/02/22-rdf-syntax-ns#"
   xmlns:svg="http://www.w3.org/2000/svg"
   xmlns="http://www.w3.org/2000/svg"
   xmlns:sodipodi="http://sodipodi.sourceforge.net/DTD/sodipodi-0.dtd"
   xmlns:inkscape="http://www.inkscape.org/namespaces/inkscape"
   width="300"
   height="300"
   id="svg2"
   version="1.1"
   inkscape:version="0.48.2 r9819"
   sodipodi:docname="Nouveau document 1">
  <defs
     id="defs4" />
  <sodipodi:namedview
     id="base"
     pagecolor="#ffffff"
     bordercolor="#666666"
     borderopacity="1.0"
     inkscape:pageopacity="0.0"
     inkscape:pageshadow="2"
     inkscape:zoom="1.979899"
     inkscape:cx="157.91629"
     inkscape:cy="148.42667"
     inkscape:document-units="px"
     inkscape:current-layer="layer1"
     showgrid="false"
     inkscape:window-width="1280"
     inkscape:window-height="999"
     inkscape:window-x="0"
     inkscape:window-y="24"
     inkscape:window-maximized="1" />
  <metadata
     id="metadata7">
    <rdf:RDF>
      <cc:Work
         rdf:about="">
        <dc:format>image/svg+xml</dc:format>
        <dc:type
           rdf:resource="http://purl.org/dc/dcmitype/StillImage" />
        <dc:title></dc:title>
      </cc:Work>
    </rdf:RDF>
  </metadata>
  <g
     inkscape:label="Calque 1"
     inkscape:groupmode="layer"
     id="layer1"
     transform="translate(0,-752.36218)">
    <path
       style="fill:#000000"
       d="m 106.4829,1032.0335 c -1.34139,-1.4035 -2.64746,-18.543 -2.90238,-38.08763 -0.25493,-19.54465 -1.42286,-36.1556 -2.59542,-36.91322 -1.172552,-0.75762 -14.398182,-0.14428 -29.390287,1.36298 -21.507777,2.16232 -28.392314,2.13189 -32.633389,-0.14428 -9.297014,-4.98967 -2.535083,-8.86363 20.429615,-11.70429 26.95237,-3.33392 41.932221,-7.26639 41.932221,-11.00793 0,-1.53677 -3.817518,-5.4579 -8.483367,-8.71362 -7.567412,-5.28038 -11.247214,-5.9195 -34.081673,-5.9195 -27.335869,0 -31.983079,-2.49965 -19.570495,-10.52661 12.475002,-8.06732 74.545755,1.24041 78.641155,11.79252 3.75272,9.66914 12.19473,4.05172 12.19473,-8.11452 0,-16.79606 -6.79783,-19.5679 -51.480247,-20.99126 -29.179599,-0.92953 -36.414593,-1.85142 -36.414593,-4.63998 0,-5.82693 20.537029,-8.38318 53.880597,-6.70654 28.717173,1.44401 31.818343,2.1062 42.284673,9.02904 9.03073,5.97327 11.27992,9.39568 11.22098,17.07405 -0.13464,17.5433 -7.03427,30.80502 -20.14019,38.71135 -5.23333,3.15709 -5.94437,8.70686 -5.38131,42.00208 0.50043,29.59216 -0.47706,39.24296 -4.27493,42.20686 -5.72937,4.4712 -9.81516,4.8696 -13.23569,1.2905 z m 124.35361,-5.2862 c -2.76135,-2.1516 -3.78555,-13.8802 -3.12993,-35.84177 0.62811,-21.04013 -0.39835,-33.53213 -2.88769,-35.14326 -2.75984,-1.78619 -11.09794,-1.69726 -29.21302,0.31158 -22.51573,2.49684 -26.39682,2.36802 -34.70391,-1.15186 -16.87737,-7.15129 -12.09677,-9.42489 24.72859,-11.76068 24.34189,-1.54397 37.66922,-3.8052 37.66922,-6.39129 -2.45023,-4.28286 -5.16642,-7.43668 -8.08372,-9.73474 -16.08252,-12.66877 -38.27691,0.66977 -55.7167,-5.77028 -2.53912,-1.04188 -3.57426,-3.62856 -2.30684,-5.76445 1.74324,-2.93774 6.8475,-3.8745 21.11144,-3.8745 22.9359,0 40.22268,3.66237 51.39788,10.88913 11.04743,7.14414 15.12321,5.06578 15.12321,-7.71178 0,-11.84106 -5.91549,-17.09729 -19.24169,-17.09729 -4.94537,0 -13.39554,-1.08279 -18.77817,-2.4062 -6.75817,-1.66161 -10.93802,-1.66161 -13.50747,0 -6.08285,3.93365 -30.88098,2.96302 -33.41533,-1.30792 -3.63204,-6.12078 5.68693,-10.49637 46.94152,-10.11734 0,0 26.41788,-0.90536 38.79307,3.39151 4.1296,1.43387 10.36667,8.03233 10.36667,8.03233 6.79474,5.26471 10.36667,10.65191 10.36667,15.63504 0,8.63384 -12.09921,30.83889 -18.1134,33.24258 -2.90126,1.15954 -2.97786,11.52017 -0.28191,38.13188 3.238,31.96231 2.99741,37.23491 -1.92049,42.08861 -6.45529,6.3711 -9.44491,6.8335 -15.198,2.3507 z M 243.304,867.10186 c -3.10432,-4.22156 -9.50835,-10.57793 -14.23118,-14.12527 l -8.58695,-6.4497 -23.76336,7.34052 c 0,0 -17.57205,3.67475 -25.78368,4.81515 -16.86456,2.34209 -49.04469,1.31923 -49.04469,1.31923 -55.038187,-1.29998 -64.583697,-2.57669 -62.859226,-8.40738 0.953437,-3.22371 9.400837,-3.95664 58.473726,-5.07345 57.32012,-1.30449 77.15582,-3.46078 79.846,-8.67983 0.78594,-1.52475 -1.53045,-3.37104 -5.14755,-4.10285 -34.63118,-8.64275 -76.20732,-9.30522 -108.592884,-7.30135 -32.214946,2.062 -37.303607,1.88811 -42.46736,-1.45118 -5.430619,-3.51187 -5.345493,-4.04879 1.145138,-7.22278 12.760086,-6.23984 107.492436,-5.57325 137.517136,0.96764 11.95647,2.60472 24.03884,4.73585 26.8497,4.73585 7.56581,0 9.48734,-5.49962 5.12966,-14.68157 -3.69933,-7.79475 -4.71524,-8.19429 -23.97932,-9.43058 -35.29418,-2.26504 -66.20745,-2.45081 -85.6951,-0.51497 -18.32711,1.82056 -29.491161,-0.34015 -29.491161,-5.70776 0,-6.39999 103.767941,-9.71989 129.513151,-4.14358 22.76483,4.93077 28.8365,10.58186 28.27336,26.31485 -0.6786,18.95898 -1.22194,17.61804 10.82809,26.72353 4.95789,2.12222 13.81024,9.80263 14.56674,13.91993 3.66913,4.04061 2.7121,16.80038 -2.6394,17.93618 -2.31914,0.49222 -6.75652,-2.55907 -9.86084,-6.78063 z"
       id="path2996"
       inkscape:connector-curvature="0"
       sodipodi:nodetypes="csssssssssssssssssssccssssscscssssssssssssssscssscscssssccssssssssssccs" />
  </g>
</svg>
