<?xml version="1.0" encoding="UTF-8" standalone="no"?>
<!-- Created with Inkscape (http://www.inkscape.org/) -->

<svg
   xmlns:dc="http://purl.org/dc/elements/1.1/"
   xmlns:cc="http://creativecommons.org/ns#"
   xmlns:rdf="http://www.w3.org/1999/02/22-rdf-syntax-ns#"
   xmlns:svg="http://www.w3.org/2000/svg"
   xmlns="http://www.w3.org/2000/svg"
   xmlns:sodipodi="http://sodipodi.sourceforge.net/DTD/sodipodi-0.dtd"
   xmlns:inkscape="http://www.inkscape.org/namespaces/inkscape"
   width="300"
   height="300"
   id="svg2"
   version="1.1"
   inkscape:version="0.92.4 (5da689c313, 2019-01-14)"
   sodipodi:docname="image-bigseal.svg">
  <defs
     id="defs4" />
  <sodipodi:namedview
     id="base"
     pagecolor="#ffffff"
     bordercolor="#666666"
     borderopacity="1.0"
     inkscape:pageopacity="0.0"
     inkscape:pageshadow="2"
     inkscape:zoom="1.4142136"
     inkscape:cx="60.647548"
     inkscape:cy="211.75484"
     inkscape:document-units="px"
     inkscape:current-layer="layer1"
     showgrid="false"
     inkscape:window-width="1872"
     inkscape:window-height="1016"
     inkscape:window-x="48"
     inkscape:window-y="27"
     inkscape:window-maximized="1" />
  <metadata
     id="metadata7">
    <rdf:RDF>
      <cc:Work
         rdf:about="">
        <dc:format>image/svg+xml</dc:format>
        <dc:type
           rdf:resource="http://purl.org/dc/dcmitype/StillImage" />
        <dc:title />
      </cc:Work>
    </rdf:RDF>
  </metadata>
  <g
     inkscape:label="Calque 1"
     inkscape:groupmode="layer"
     id="layer1"
     transform="translate(0,-752.36218)">
    <path
       style="fill:#000000;stroke-width:5.9677496"
       d="m 231.29805,1037.8619 c -3.02857,-4.8825 -15.94485,-95.94506 -15.94485,-112.41435 0,-2.23398 -0.96796,-11.85319 -0.96796,-11.85319 0,0 -16.59515,6.95493 -25.93563,8.00394 -17.80311,1.99938 -26.90357,0.74438 -26.90357,-3.71023 0,-3.70242 6.50588,-6.73164 14.45744,-6.73164 15.99038,0 37.15152,-11.91086 37.15152,-11.91086 -7.01703,-19.22367 -24.69444,-29.3803 -43.06816,-29.78776 -11.27385,0 -20.49795,-2.68063 -20.49795,-5.95695 0,-3.27632 11.95404,-5.95694 26.56459,-5.95694 20.67361,0 28.6284,2.93594 35.87145,13.23937 4.21216,5.99199 8.78742,13.43394 8.78742,13.43394 0,0 0.51941,-13.54962 0.51941,-27.68903 0,-30.36749 -4.93877,-34.72595 -39.3497,-34.72595 -11.23979,0 -20.43602,-2.68063 -20.43602,-5.95695 0,-7.68988 45.25439,-7.74879 59.64009,-0.0774 14.5085,7.73664 20.74672,46.25187 12.21584,75.4216 -1.50574,5.14852 -4.83258,12.92098 -4.83258,12.92098 0,0 2.02317,37.11327 6.701,69.59415 7.58656,52.67787 5.89123,80.05937 -3.97234,64.15757 z m -99.64488,-55.22213 v -53.61251 h -26.47653 c -40.731786,0 -45.282548,-7.99398 -45.174818,-79.35503 0.04787,-33.34823 2.122869,-63.81628 4.605651,-67.7067 2.482721,-3.89042 12.032899,-9.92183 21.222623,-13.40312 21.246594,-8.04873 139.519034,-8.35379 144.469534,-0.37291 2.37505,3.82901 -19.38942,5.98834 -60.92752,6.04475 -69.690735,0.0947 -94.51539,7.15858 -94.51539,26.89436 0,4.87244 0.407792,11.67894 0.407792,11.67894 0,0 15.019033,0.56562 26.122438,0.93024 40.47613,1.32919 42.22336,6.39353 42.22336,122.38473 0,62.78174 -2.23,100.12958 -5.97856,100.12958 -3.54285,0 -5.97858,-21.8422 -5.97858,-53.61257 z m 0,-86.37571 v -20.84931 h -29.89286 c -14.203198,0 -28.642649,0.36333 -28.642649,0.36333 0,0 0.506129,6.62395 0.506129,13.23304 0,17.42716 12.10503,27.67413 38.59902,27.9211 9.82861,0.0917 19.37303,-1.10065 19.37303,-1.10065 0,0 0.0573,-10.52572 0.0573,-19.56751 z m -1.09754,-49.1448 c -1.73242,-15.00179 -4.28371,-16.53452 -30.28997,-18.19721 -16.850485,-1.07732 -25.737611,-1.17231 -25.737611,-1.17231 0,0 -1.155167,9.859 -1.155167,17.05391 0,8.44705 0.413136,19.37883 0.413136,19.37883 0,0 12.641194,-0.68162 28.371392,-0.68162 14.69964,0 28.4246,-0.42959 28.4246,-0.42959 0,0 0.899,-7.9386 -0.0264,-15.95201 z"
       id="path111"
       inkscape:connector-curvature="0"
       sodipodi:nodetypes="csccssccssccssscccsccccsccscsscsssccscscsccscscscscc" />
  </g>
</svg>
