<?xml version="1.0" encoding="UTF-8" standalone="no"?>
<svg
   xmlns:dc="http://purl.org/dc/elements/1.1/"
   xmlns:cc="http://creativecommons.org/ns#"
   xmlns:rdf="http://www.w3.org/1999/02/22-rdf-syntax-ns#"
   xmlns:svg="http://www.w3.org/2000/svg"
   xmlns="http://www.w3.org/2000/svg"
   viewBox="0 0 300 300"
   height="300"
   width="300"
   id="svg4446"
   version="1.1">
  <metadata
     id="metadata4452">
    <rdf:RDF>
      <cc:Work
         rdf:about="">
        <dc:format>image/svg+xml</dc:format>
        <dc:type
           rdf:resource="http://purl.org/dc/dcmitype/StillImage" />
        <dc:title></dc:title>
      </cc:Work>
    </rdf:RDF>
  </metadata>
  <defs
     id="defs4450" />
  <path
     id="path4456"
     d="m 124.4315,259.81914 c -46.408733,-4.84081 -54.829206,-15.69831 -59.224592,-49.37029 -1.97558,-15.0251 -2.24924,-19.91906 -3.39163,-60.65375 -1.145566,-36.18512 -0.997432,-70.453065 -0.66083,-106.338707 0.06063,-6.463498 12.883719,-3.335271 13.20746,0.842525 0.800414,25.695 1.50829,38.110205 1.72316,72.290842 50.871672,0.5585 97.128862,1.06021 145.231762,1.55907 0.27383,-0.44307 0.73456,-11.97244 1.02383,-25.620824 0.74043,-34.934327 0.60024,-46.735196 2.84536,-48.963388 13.20627,-13.106717 14.16061,21.951706 13.85951,30.28384 -0.32246,9.409964 -0.28144,25.934921 -0.41554,36.721442 -0.43838,35.26199 1.38974,82.78295 -5.9648,113.14227 -4.55027,18.78339 -18.14268,29.9894 -35.71229,33.21177 -15.0952,2.60674 -52.6933,4.10772 -72.5214,2.89519 z m 57.26717,-14.59478 c 37.83743,-3.90994 39.93018,-34.50711 40.42976,-60.92563 0.41306,-21.84352 0.2613,-33.09309 0.12015,-50.62988 -51.45845,-0.8042 -96.87849,-0.94397 -145.322832,-0.94397 -0.792526,27.13581 -1.760471,77.20108 7.06601,96.97336 4.214827,9.44167 16.492422,12.71336 26.354162,14.67161 22.05216,4.37892 46.48531,3.42419 71.35275,0.85451 z"
     style="fill:#000000;stroke-width:0.72639227" />
</svg>
