<?xml version="1.0" encoding="UTF-8" standalone="no"?>
<svg
   xmlns:dc="http://purl.org/dc/elements/1.1/"
   xmlns:cc="http://creativecommons.org/ns#"
   xmlns:rdf="http://www.w3.org/1999/02/22-rdf-syntax-ns#"
   xmlns:svg="http://www.w3.org/2000/svg"
   xmlns="http://www.w3.org/2000/svg"
   viewBox="0 0 300 300"
   height="300"
   width="300"
   id="svg10"
   version="1.1">
  <metadata
     id="metadata16">
    <rdf:RDF>
      <cc:Work
         rdf:about="">
        <dc:format>image/svg+xml</dc:format>
        <dc:type
           rdf:resource="http://purl.org/dc/dcmitype/StillImage" />
        <dc:title></dc:title>
      </cc:Work>
    </rdf:RDF>
  </metadata>
  <defs
     id="defs14" />
  <path
     id="path20"
     d="m 161.86551,284.44835 c -8.67862,-0.62412 -22.39683,-2.79674 -28.54906,-4.52146 -4.61013,-1.29241 -6.77035,-3.47949 -10.03034,-10.15505 -6.38277,-13.07015 -7.09412,-19.45458 -6.8466,-61.44876 l 0.19934,-33.81898 2.06718,-3.33514 c 1.13695,-1.83433 2.46736,-3.4675 2.95647,-3.62928 1.46018,-0.48296 5.37517,4.29665 6.33894,7.73887 0.67118,2.39724 0.74465,4.97918 0.29104,10.22891 -0.65704,7.60435 -0.84293,22.91485 -0.28413,23.40426 0.69691,0.6104 84.3974,1.82165 84.98915,1.2299 0.33251,-0.33251 0.65777,-8.30719 0.72279,-17.72149 0.1303,-18.8661 0.51524,-20.82254 4.56802,-23.21657 3.30431,-1.9519 4.55435,-1.50352 5.95919,2.13757 1.16668,3.02379 1.25886,5.89661 1.21043,37.72603 -0.0542,35.59672 -0.40559,41.55699 -3.07043,52.07194 -1.93814,7.64752 -4.29369,12.43956 -6.98474,14.20943 -12.60775,8.29197 -28.1161,10.92795 -53.53725,9.09982 z m 34.5834,-13.60467 c 2.96537,-0.79951 6.92197,-2.28659 8.79247,-3.30464 2.99433,-1.62972 3.52757,-2.26994 4.46046,-5.35527 1.89395,-6.26379 3.70204,-30.24639 2.75598,-36.55524 l -0.46858,-3.12469 h -41.58161 -41.58161 l -0.50274,6.70562 c -0.55794,7.44171 6.6e-4,19.68238 1.14978,25.19566 0.88288,4.23591 4.16274,11.46544 5.92521,13.06045 1.44166,1.30468 12.91065,3.72142 21.89513,4.61371 3.41085,0.33876 12.40309,0.52639 19.98274,0.41698 11.4215,-0.16488 14.70438,-0.44784 19.17277,-1.65258 z m -36.91607,-64.66322 c -0.96378,-0.25185 -1.20585,-1.07471 -1.20585,-4.09895 0,-4.70559 1.65773,-8.75977 7.28675,-17.82051 4.22937,-6.80782 35.44021,-64.75768 38.73207,-71.91472 4.23878,-9.21579 6.07544,-20.956487 4.03314,-25.7817 -1.80282,-4.259425 -2.03442,-4.327573 -23.72903,-6.982144 -11.10374,-1.358665 -20.89455,-2.4703 -21.75733,-2.4703 -1.35575,0 -3.38593,3.372785 -14.95345,24.842514 -11.90789,22.10147 -14.06078,25.65582 -19.51195,32.21357 -3.36998,4.05408 -11.74206,14.19024 -18.60463,22.52481 -14.381923,17.46682 -22.258266,25.9505 -25.53737,27.50654 -2.575902,1.22233 -9.014414,1.48127 -9.689073,0.38965 -0.239769,-0.38796 0.217478,-2.66893 1.016119,-5.06883 1.276653,-3.83637 2.422294,-5.39508 9.483946,-12.90357 18.379728,-19.54272 33.701128,-39.81296 47.861148,-63.3204 6.15288,-10.214534 17.10094,-30.499296 17.10094,-31.6849 0,-0.458691 -1.21506,-2.214361 -2.70013,-3.90149 -8.47584,-9.629067 -13.21022,-28.116594 -11.0969,-43.332928 1.21222,-8.728287 4.05809,-11.37469 8.48627,-7.891482 2.93989,2.312515 3.62088,5.646971 4.6117,22.580855 0.7164,12.244056 1.47585,14.991505 5.54282,20.052315 1.19922,1.492259 3.96829,3.66614 6.15351,4.830847 6.95855,3.708869 11.15037,4.400569 27.24557,4.495842 13.36703,0.07912 14.77168,0.206159 18.42383,1.666233 10.37752,4.148783 14.67329,9.834171 14.6241,19.354783 -0.0324,6.272781 -1.9794,14.222295 -6.51283,26.591915 -5.1419,14.02984 -9.85934,23.75593 -23.22085,47.87532 -12.85274,23.20093 -23.09546,39.71129 -25.82013,41.61971 -1.518,1.06326 -3.74128,1.28586 -6.26239,0.62702 z"
     style="fill:#000000;stroke-width:0.68906015" />
</svg>
