<?xml version="1.0" encoding="UTF-8" standalone="no"?>
<!-- Created with Inkscape (http://www.inkscape.org/) -->
<svg
   xmlns:svg="http://www.w3.org/2000/svg"
   xmlns="http://www.w3.org/2000/svg"
   version="1.0"
   width="300"
   height="300"
   id="svg2">
  <defs
     id="defs5" />
  <path
     d="M 135.59873,282.773 C 134.41957,280.8651 131.16326,238.83369 131.30023,227.2894 C 128.55471,213.20608 135.80867,193.75738 139.27072,184.4642 C 139.97049,182.5858 147.61701,172.76596 157.81804,162.92256 C 168.01907,153.07917 177.99904,141.11554 179.99576,136.33672 C 182.75018,129.74446 183.62616,116.63284 183.62616,81.996985 L 183.62616,36.346014 C 152.35127,37.336238 121.07904,38.413554 89.802617,39.355107 C 80.626207,39.607755 70.273377,36.622624 70.273377,33.72405 C 70.273377,28.657363 82.298637,26.994152 120.78929,26.737204 C 142.47417,26.592442 175.98981,25.756776 195.26849,24.880165 C 222.00034,23.664653 231.22009,24.032801 234.10989,26.431119 C 241.28349,32.384676 233.82763,36.314595 215.35891,36.314595 L 198.4113,36.314595 C 198.13944,71.595151 199.61528,106.7014 193.06047,141.54267 C 190.12355,150.49973 166.36757,167.44135 165.28133,172.36798 C 146.21222,198.45187 148.29669,201.6825 148.46829,236.46652 C 149.00404,277.30932 148.73483,280.30625 144.31796,282.6701 C 138.46481,285.8026 137.47832,285.81423 135.59873,282.773 z M 106.70141,121.98874 C 101.70848,114.34925 99.751402,105.38839 100.6697,89.222535 C 101.44455,75.581915 102.82409,62.478492 103.73534,60.1038 C 106.33767,53.32225 113.28735,56.341823 114.23511,64.665853 C 115.32757,74.260685 117.95212,75.658625 134.95839,75.703915 L 149.12748,75.741655 L 149.12748,67.418715 C 149.12748,62.841092 150.83781,57.676325 152.92821,55.941449 C 159.89939,50.155883 162.68053,57.067409 162.68053,80.177315 C 162.68053,97.673255 160.46346,103.28082 156.91628,113.32056 C 152.16688,126.02218 141.5075,129.4433 129.17052,129.95385 C 115.40943,129.95385 112.14823,130.3227 106.70141,121.98874 z M 145.85183,104.07985 C 150.74853,85.110995 151.11707,85.598415 131.87815,85.598415 L 114.62881,85.598415 L 114.62881,99.029025 C 114.62881,114.71367 117.92063,117.94131 132.96236,117.00509 C 142.40938,116.4171 142.75704,116.06847 145.85183,104.07985 z "
     style="fill:black;fill-opacity:1"
     id="path1875" />
</svg>
