<?xml version="1.0" encoding="UTF-8" standalone="no"?>
<!-- Created with Inkscape (http://www.inkscape.org/) -->

<svg
   xmlns:dc="http://purl.org/dc/elements/1.1/"
   xmlns:cc="http://creativecommons.org/ns#"
   xmlns:rdf="http://www.w3.org/1999/02/22-rdf-syntax-ns#"
   xmlns:svg="http://www.w3.org/2000/svg"
   xmlns="http://www.w3.org/2000/svg"
   xmlns:sodipodi="http://sodipodi.sourceforge.net/DTD/sodipodi-0.dtd"
   xmlns:inkscape="http://www.inkscape.org/namespaces/inkscape"
   width="300"
   height="300"
   id="svg2"
   version="1.1"
   inkscape:version="0.48.4 r9939"
   sodipodi:docname="image-seal.svg">
  <defs
     id="defs4" />
  <sodipodi:namedview
     id="base"
     pagecolor="#ffffff"
     bordercolor="#666666"
     borderopacity="1.0"
     inkscape:pageopacity="0.0"
     inkscape:pageshadow="2"
     inkscape:zoom="2.0506101"
     inkscape:cx="150.3604"
     inkscape:cy="115.67348"
     inkscape:document-units="px"
     inkscape:current-layer="layer1"
     showgrid="false"
     inkscape:window-width="1215"
     inkscape:window-height="1000"
     inkscape:window-x="65"
     inkscape:window-y="24"
     inkscape:window-maximized="1"
     fit-margin-top="10"
     fit-margin-left="10"
     fit-margin-right="10"
     fit-margin-bottom="10" />
  <metadata
     id="metadata7">
    <rdf:RDF>
      <cc:Work
         rdf:about="">
        <dc:format>image/svg+xml</dc:format>
        <dc:type
           rdf:resource="http://purl.org/dc/dcmitype/StillImage" />
        <dc:title />
      </cc:Work>
    </rdf:RDF>
  </metadata>
  <g
     inkscape:label="Calque 1"
     inkscape:groupmode="layer"
     id="layer1"
     transform="translate(0,-752.36218)">
    <path
       style="fill:#000000"
       d="m 5.0004421,1037.3621 c -1.461e-4,0 -2.063e-4,-2e-4 -1.391e-4,-4e-4 4.4e-5,-10e-5 2.87e-5,-2e-4 -2.72e-5,-2e-4 -7.69e-5,0 -1.269e-4,0 -1.385e-4,0 -6.8e-6,10e-5 -1.78e-5,10e-5 -2.46e-5,10e-5 -9.3e-6,0 7e-6,10e-5 6.36e-5,10e-5 5.86e-5,0 7.1e-5,0 5.37e-5,0 -3.73e-5,10e-5 -1.646e-4,10e-5 -2.03e-4,0 -7.89e-5,-10e-5 2.21e-5,-2e-4 1.908e-4,-3e-4 6.61e-5,0 7.09e-5,0 6.05e-5,-10e-5 -8.5e-6,0 -2.7e-6,-10e-5 2.33e-5,-10e-5 4.7e-5,0 9.72e-5,0 9.72e-5,10e-5 0,10e-5 8e-6,10e-5 1.212e-4,10e-5 6.67e-5,0 1.588e-4,0 2.047e-4,0 7.17e-5,0 8.77e-5,0 1.134e-4,10e-5 3.69e-5,10e-5 1.59e-5,10e-5 -1.232e-4,2e-4 -5.21e-5,0 -1.171e-4,0 -1.444e-4,10e-5 -2.73e-5,0 -8.66e-5,0 -1.319e-4,0 -1.054e-4,1e-4 -1.053e-4,2e-4 2e-7,2e-4 5.99e-5,10e-5 9.96e-5,10e-5 2.425e-4,10e-5 9.4e-5,0 2.015e-4,0 2.39e-4,0 1.051e-4,-10e-5 1.062e-4,0 1.6e-6,0 -1.063e-4,10e-5 -3.627e-4,10e-5 -4.798e-4,0 z m 3.79e-5,-4e-4 c 4.93e-5,0 4.42e-5,-10e-5 -1.21e-5,-10e-5 -4.17e-5,0 -4.04e-5,0 -5.8e-5,10e-5 -1.68e-5,10e-5 2.2e-6,10e-5 7.01e-5,0 z m 2.159e-4,-10e-5 c 6.61e-5,-10e-5 7.56e-5,-10e-5 3.59e-5,-10e-5 -2.83e-5,-10e-5 -3.33e-4,-10e-5 -3.33e-4,0 0,0 3.86e-5,0 8.58e-5,0 4.72e-5,0 9.09e-5,10e-5 9.71e-5,10e-5 1.48e-5,0 4e-5,0 1.142e-4,0 z"
       id="path3223"
       inkscape:connector-curvature="0" />
    <path
       style="fill:#000000"
       d="m 5.000515,1017.3622 c -4.25e-5,0 -7.25e-5,0 -1.096e-4,0 -3.41e-5,-10e-5 -8.26e-5,-10e-5 -8.28e-5,-10e-5 -10e-8,0 -2.6e-6,0 -5.5e-6,0 -6.2e-6,0 -2.87e-5,-1e-4 -4.19e-5,-1e-4 -5.1e-6,0 -1.08e-5,0 -1.28e-5,-10e-5 -2e-6,0 -7.9e-6,0 -1.31e-5,0 -1.19e-5,0 -4.58e-5,-10e-5 -6.13e-5,-10e-5 -6.5e-6,0 -1.18e-5,0 -1.18e-5,0 0,0 -3.02e-5,-10e-5 -6.75e-5,-10e-5 -9.8e-6,0 -2.18e-5,0 -2.67e-5,0 -2.65e-5,0 -3.8e-5,10e-5 -1.72e-5,10e-5 1.28e-5,10e-5 3.97e-5,10e-5 6.99e-5,10e-5 2.39e-5,0 2.68e-5,0 1.13e-5,0 -2.27e-5,10e-5 -8.63e-5,0 -1.137e-4,0 -1.01e-5,-10e-5 -2.19e-5,-10e-5 -2.62e-5,-10e-5 -1.93e-5,0 1.02e-5,-10e-5 4.84e-5,-2e-4 2.62e-5,0 3.34e-5,0 7.02e-5,0 2.11e-5,0 3.82e-5,0 3.82e-5,-10e-5 0,0 9e-6,0 2e-5,0 1.09e-5,0 1.99e-5,0 1.99e-5,0 0,0 -8.8e-6,0 -1.97e-5,0 -1.08e-5,0 -1.97e-5,0 -1.99e-5,0 -2e-7,0 1.9e-6,-10e-5 1.79e-5,0 1.01e-5,0 1.98e-5,0 2.16e-5,0 1.9e-6,0 1.34e-5,0 2.56e-5,0 1.96e-5,0 2.62e-5,0 5.65e-5,0 7.3e-5,0 2.285e-4,0 2.734e-4,0 4.44e-5,0 1.004e-4,10e-5 1.138e-4,10e-5 2.52e-5,1e-4 2.92e-5,1e-4 1.41e-5,1e-4 -9.3e-6,0 -5.45e-5,10e-5 -6.48e-5,10e-5 -8.4e-6,0 -8.7e-6,0 -4e-7,0 3.4e-6,0 9.9e-6,-10e-5 1.44e-5,-10e-5 9.4e-6,0 3e-6,-1e-4 -2.43e-5,-1e-4 -2.28e-5,0 -8.94e-5,0 -1.302e-4,0 -3.12e-5,0 -3.28e-5,0 -2.85e-5,0 2.5e-6,0 8.4e-6,0 1.32e-5,0 4.7e-6,0 1.07e-5,0 1.31e-5,0 4.4e-6,0 7.5e-6,0 3.49e-5,1e-4 7.3e-6,0 1.55e-5,0 1.82e-5,10e-5 6.5e-6,0 4.41e-5,0 5.48e-5,10e-5 4.5e-6,0 8.3e-6,0 8.3e-6,0 0,0 3.8e-6,0 8.5e-6,0 4.7e-6,0 1.57e-5,0 2.44e-5,0 2.21e-5,10e-5 6.89e-5,10e-5 9.48e-5,10e-5 2.94e-5,0 1.248e-4,0 1.882e-4,0 2.72e-5,0 4.94e-5,0 4.94e-5,0 0,0 9e-6,0 2e-5,0 1.73e-5,0 1.99e-5,0 1.99e-5,0 0,0 -5.4e-6,0 -1.97e-5,1e-4 -1.08e-5,0 -2.35e-5,0 -2.82e-5,0 -4.7e-6,0 -1.54e-5,0 -2.37e-5,0 -8.3e-6,0 -2.64e-5,0 -4.02e-5,0 -1.38e-5,0 -3.24e-5,10e-5 -4.14e-5,10e-5 -8.9e-6,0 -1.77e-5,0 -1.95e-5,0 -1.36e-5,0 -2.117e-4,0 -2.599e-4,0 -8.7e-6,0 -3.23e-5,0 -5.24e-5,0 z m 1.396e-4,0 c 9.26e-5,-10e-5 9.51e-5,-10e-5 1.092e-4,-10e-5 1.1e-5,0 4.5e-6,0 -4.51e-5,0 -5.73e-5,0 -7.72e-5,0 -1.306e-4,0 -3.8e-5,0 -8.82e-5,0 -1.095e-4,-1e-4 -1.1e-5,0 -2.36e-5,0 -2.8e-5,0 -4.4e-6,0 -2.08e-5,0 -3.66e-5,-10e-5 -2.7e-5,0 -3.78e-5,0 -5.88e-5,-10e-5 -1.03e-5,0 -6.88e-5,-10e-5 -8.18e-5,-2e-4 -4.9e-6,0 -2.02e-5,0 -3.39e-5,0 -2.78e-5,0 -3.79e-5,0 -7.92e-5,0 -2.65e-5,0 -2.95e-5,0 -1.14e-5,0 6.9e-6,1e-4 1.89e-5,1e-4 2.66e-5,1e-4 7.7e-6,0 2.02e-5,0 2.77e-5,0 7.5e-6,0 1.82e-5,10e-5 2.39e-5,10e-5 1.35e-5,0 6.51e-5,10e-5 7.61e-5,10e-5 4.7e-6,0 1.02e-5,10e-5 1.22e-5,10e-5 2e-6,0 8.8e-6,0 1.5e-5,0 1.63e-5,0 3.44e-5,1e-4 4.02e-5,1e-4 2.7e-6,0 4.9e-6,0 4.9e-6,0 0,0 5.71e-5,0 9.52e-5,10e-5 5.7e-5,0 9.51e-5,0 1.839e-4,0 z m 1.361e-4,-10e-5 c 1.02e-5,0 7e-6,0 -1.32e-5,0 -2.59e-5,0 -7.16e-5,0 -8.08e-5,-1e-4 -2.5e-6,0 -10e-6,0 -1.67e-5,0 -6.7e-6,0 -1.22e-5,0 -1.22e-5,0 0,0 -3.9e-6,0 -8.8e-6,0 -1.01e-5,0 -6.76e-5,0 -9.99e-5,-10e-5 -3.72e-5,0 -8.2e-5,-10e-5 -1.172e-4,-2e-4 -1.36e-5,-1e-4 -1.73e-5,-1e-4 -3.25e-5,-1e-4 -3.4e-6,0 -7.8e-6,0 -9.8e-6,0 -4.4e-6,-10e-5 -2.72e-5,-10e-5 -8.83e-5,0 l -4.21e-5,0 3.23e-5,0 c 2.88e-5,0 7.4e-5,1e-4 7.4e-5,1e-4 0,0 2.3e-6,0 5.1e-6,0 5e-6,0 1.24e-5,10e-5 2.81e-5,10e-5 4.6e-6,0 1.69e-5,0 2.74e-5,10e-5 1.06e-5,0 1.92e-5,0 1.92e-5,0 0,0 5.98e-5,10e-5 8.34e-5,10e-5 3.35e-5,1e-4 8.04e-5,1e-4 1.258e-4,1e-4 4.6e-5,0 1.07e-4,0 1.262e-4,0 z"
       id="path3236"
       inkscape:connector-curvature="0" />
    <path
       style="fill:#000000"
       d="m 216.76521,1044.21 c -25.41025,-13.961 -42.66905,-62.42575 -33.00548,-92.68332 4.69163,-14.69007 17.08385,-27.52589 28.84564,-29.87825 10.21345,-2.0427 17.13638,-10.70844 17.13638,-21.45041 0,-9.80923 -4.17043,-13.10138 -22.55758,-17.80699 -19.67713,-5.03573 -22.8642,-8.35095 -18.68137,-19.43253 1.78762,-4.73592 2.0806,-8.61074 0.65108,-8.61074 -1.4295,0 -3.43192,-5.20824 -4.44983,-11.57384 -1.89129,-11.82739 -5.86234,-14.60595 -19.84499,-13.88573 -18.83348,0.9701 -24.51124,-0.52967 -24.51124,-6.47465 0,-5.27892 1.60817,-5.92596 13.69746,-5.51111 30.8063,1.05715 28.70525,2.46805 31.19655,-20.94909 1.22334,-11.49866 1.92384,-24.30566 1.55669,-28.46 -0.81469,-9.2185 7.31759,-13.44793 13.66081,-7.10471 3.73,3.73 3.80679,7.59776 0.58132,29.27804 -2.9975,20.14763 -3.00984,25.41697 -0.0637,27.23769 4.9072,3.03285 37.90715,6.44415 43.25221,4.47111 2.34111,-0.86418 6.19223,-0.34125 8.558,1.16206 3.53172,2.24422 3.62948,3.3998 0.54622,6.45799 -2.49014,2.4699 -12.19647,3.72467 -28.81264,3.72467 l -25.05746,0 -0.84662,15.97072 -0.84662,15.97071 12.38132,5.1463 c 32.41551,13.47345 32.48523,13.53804 33.4151,30.964 0.96275,18.04209 -1.8527,21.87363 -20.81056,28.32124 -6.22132,2.1159 -14.65322,7.1888 -18.73754,11.27312 -6.48616,6.48617 -7.42685,9.84977 -7.43241,26.5754 -0.003,10.53234 1.78935,22.92176 3.98408,27.53247 2.19471,4.61042 5.36548,11.36205 7.04612,15.00295 1.68063,3.6412 8.63955,12.5315 15.46425,19.7566 6.82468,7.225 11.68768,14.3027 10.80666,15.7284 -2.14992,3.4786 -10.05312,3.1314 -17.12173,-0.7521 z M 76.763561,907.62743 c -9.26165,-3.99314 -10.60391,-6.07045 -14.09737,-21.81754 -2.77285,-12.49877 -3.3185,-27.71615 -1.93592,-53.99082 2.35452,-44.74604 4.12086,-55.33054 9.2335,-55.33054 5.30803,0 7.97538,11.91526 6.19779,27.68599 l -1.45674,12.92437 20.56588,-0.84039 20.565889,-0.84036 0.85688,-19.65005 c 0.7251,-16.62739 1.60551,-19.5059 5.72349,-18.71286 6.83229,1.31579 8.49998,15.17684 8.01918,66.65211 -0.41069,43.96803 -1.96672,51.76753 -12.41174,62.21255 -5.96188,5.96185 -29.166159,6.92215 -41.260839,1.70754 z m 35.147829,-17.95465 c 1.72769,-4.36156 3.81887,-19.93341 4.64707,-34.6041 l 1.50579,-26.674 -18.783714,0 c -11.630875,0 -19.835905,1.37263 -21.546825,3.60459 -3.25757,4.24965 -3.13651,56.75529 0.14303,61.99902 1.31153,2.09709 8.24299,3.60459 16.5739,3.60459 12.937379,0 14.622779,-0.76544 17.460799,-7.9301 z"
       id="path3262"
       inkscape:connector-curvature="0" />
  </g>
</svg>
