<?xml version="1.0" encoding="UTF-8" standalone="no"?>
<!-- Created with Inkscape (http://www.inkscape.org/) -->

<svg
   xmlns:dc="http://purl.org/dc/elements/1.1/"
   xmlns:cc="http://creativecommons.org/ns#"
   xmlns:rdf="http://www.w3.org/1999/02/22-rdf-syntax-ns#"
   xmlns:svg="http://www.w3.org/2000/svg"
   xmlns="http://www.w3.org/2000/svg"
   xmlns:sodipodi="http://sodipodi.sourceforge.net/DTD/sodipodi-0.dtd"
   xmlns:inkscape="http://www.inkscape.org/namespaces/inkscape"
   width="300"
   height="300"
   id="svg2"
   version="1.1"
   inkscape:version="0.48.2 r9819"
   sodipodi:docname="å²-seal.svg">
  <defs
     id="defs4" />
  <sodipodi:namedview
     id="base"
     pagecolor="#ffffff"
     bordercolor="#666666"
     borderopacity="1.0"
     inkscape:pageopacity="0.0"
     inkscape:pageshadow="2"
     inkscape:zoom="1.979899"
     inkscape:cx="129.2633"
     inkscape:cy="140.04205"
     inkscape:document-units="px"
     inkscape:current-layer="layer1"
     showgrid="false"
     inkscape:window-width="1280"
     inkscape:window-height="999"
     inkscape:window-x="0"
     inkscape:window-y="24"
     inkscape:window-maximized="1" />
  <metadata
     id="metadata7">
    <rdf:RDF>
      <cc:Work
         rdf:about="">
        <dc:format>image/svg+xml</dc:format>
        <dc:type
           rdf:resource="http://purl.org/dc/dcmitype/StillImage" />
        <dc:title></dc:title>
      </cc:Work>
    </rdf:RDF>
  </metadata>
  <g
     inkscape:label="Calque 1"
     inkscape:groupmode="layer"
     id="layer1"
     transform="translate(0,-752.36218)">
    <path
       style="fill:#000000"
       d="m 224.21705,1026.1211 c -9.32036,-7.492 -14.98294,-18.1018 -23.42564,-26.45845 -11.00846,-11.73977 -18.42945,-26.59704 -30.47075,-37.32685 -10.83901,-5.63941 -23.81744,-0.70399 -35.46042,-0.63501 -26.74147,2.67156 -53.666325,8.20926 -80.606928,5.26769 -9.570828,1.22118 -14.824136,-11.61485 -2.509382,-11.41417 32.664924,-4.77744 66.00959,-3.24642 98.52498,-9.15441 16.12392,-3.95389 4.05334,-22.45828 -6.78542,-24.4364 -20.76547,-2.1055 -41.75273,0.6163 -62.610092,-0.46772 -5.99873,0.0696 -29.360508,-0.45729 -18.307072,-9.807 18.948791,-5.62585 39.151534,-4.26394 58.714624,-5.44366 14.33203,-0.12624 30.13715,-2.42964 42.56411,6.53577 15.01419,2.62764 9.62343,25.4213 24.38049,25.42273 14.02267,-1.62584 20.03603,-16.70995 18.41177,-29.23613 2.87705,-14.24309 -9.56874,-22.04072 -22.37305,-20.14271 -43.02465,-1.0845 -86.058863,1.57916 -129.063129,1.55336 -11.672819,-2.50191 -1.43863,-15.49732 7.22226,-11.63142 24.461638,-1.0922 48.953839,-0.98811 73.432419,-1.35351 -1.19674,-6.1746 -0.34828,-14.0796 -5.68484,-18.24227 -15.79406,-4.22655 -32.843655,-1.19423 -48.305776,-6.61412 -10.70315,-7.14743 -7.140377,-21.99553 -8.103264,-33.06132 1.97343,-10.30743 -4.488562,-27.25721 5.351818,-33.23422 10.987171,-1.9221 11.053604,9.97239 15.481703,14.9763 11.142519,1.43367 22.454879,0.52272 33.674519,0.77835 0.33761,-11.16658 -0.85035,-22.49393 0.98094,-33.52844 8.764,-7.60005 24.31513,2.40688 23.22073,13.9284 -3.02449,12.32303 4.97485,22.66175 17.98076,19.58439 11.04098,0.77455 24.18087,1.25681 26.63099,-12.29634 12.13752,-9.49318 24.07773,6.95535 21.85857,18.98253 0.33984,11.66571 2.97635,24.93792 -3.44672,35.36778 -12.34014,12.99163 -31.52461,11.41946 -47.87488,12.52005 -17.29923,-1.13446 -14.56829,25.59033 2.36496,20.30478 13.40377,-0.0809 26.79791,-0.69614 40.19644,-1.05265 8.94443,7.20509 22.52428,13.37995 21.27999,26.95407 -1.4829,13.49875 -4.94141,27.13928 -11.29893,39.1862 -3.59855,11.55907 -29.26521,7.60849 -23.18921,21.49226 12.86915,19.83562 28.64465,37.87904 46.68794,53.15924 14.44722,8.5306 -4.48889,26.8956 -13.74251,14.59 -1.93446,-1.6506 -3.81541,-3.3628 -5.702,-5.0671 z M 133.71479,834.63061 c 4.03537,-15.20935 -13.87393,-16.73464 -24.4094,-15.12483 -11.195216,-2.3219 -23.976362,4.52742 -14.668034,16.67277 8.369704,9.43971 22.648554,7.8846 34.060814,7.3381 4.53823,-0.36653 4.63337,-5.45469 5.01662,-8.88604 z m 48.16512,4.32892 c 5.89041,-6.22757 20.27868,-6.26314 15.17656,-18.38027 1.07382,-6.08049 -5.54435,-3.40443 -9.32906,-3.95398 -11.22186,0 -22.44372,0 -33.66558,0 -0.32562,7.77616 -3.5321,17.4012 2.78842,23.44966 7.43469,2.98432 18.47083,4.2662 25.02966,-1.11541 z"
       id="path3015"
       inkscape:connector-curvature="0" />
  </g>
</svg>
