<?xml version="1.0" encoding="UTF-8" standalone="no"?>
<!-- Created with Inkscape (http://www.inkscape.org/) -->

<svg
   xmlns:dc="http://purl.org/dc/elements/1.1/"
   xmlns:cc="http://creativecommons.org/ns#"
   xmlns:rdf="http://www.w3.org/1999/02/22-rdf-syntax-ns#"
   xmlns:svg="http://www.w3.org/2000/svg"
   xmlns="http://www.w3.org/2000/svg"
   xmlns:sodipodi="http://sodipodi.sourceforge.net/DTD/sodipodi-0.dtd"
   xmlns:inkscape="http://www.inkscape.org/namespaces/inkscape"
   width="300"
   height="300"
   id="svg2"
   version="1.1"
   inkscape:version="0.48.2 r9819"
   sodipodi:docname="Nouveau document 1">
  <defs
     id="defs4" />
  <sodipodi:namedview
     id="base"
     pagecolor="#ffffff"
     bordercolor="#666666"
     borderopacity="1.0"
     inkscape:pageopacity="0.0"
     inkscape:pageshadow="2"
     inkscape:zoom="1.979899"
     inkscape:cx="240.02735"
     inkscape:cy="144.20122"
     inkscape:document-units="px"
     inkscape:current-layer="layer1"
     showgrid="false"
     inkscape:window-width="1280"
     inkscape:window-height="999"
     inkscape:window-x="0"
     inkscape:window-y="24"
     inkscape:window-maximized="1" />
  <metadata
     id="metadata7">
    <rdf:RDF>
      <cc:Work
         rdf:about="">
        <dc:format>image/svg+xml</dc:format>
        <dc:type
           rdf:resource="http://purl.org/dc/dcmitype/StillImage" />
        <dc:title></dc:title>
      </cc:Work>
    </rdf:RDF>
  </metadata>
  <g
     inkscape:label="Calque 1"
     inkscape:groupmode="layer"
     id="layer1"
     transform="translate(0,-752.36218)">
    <path
       style="fill:#000000"
       d="m 225.25117,1030.9295 c 5.7536,-47.30029 5.90517,-95.0341 8.09501,-142.57724 0.47309,-22.72789 1.76482,-45.57659 0.056,-68.24979 -2.44749,-13.41858 -16.29167,-22.2988 -29.47847,-20.48482 -30.37297,-2.60387 -60.97012,-5.19716 -91.42546,-3.95969 -14.815242,3.20393 -32.964825,-0.048 -44.229111,12.33423 -9.003365,16.63432 -6.158729,36.31093 -7.761868,54.46079 -1.332047,52.34364 1.505945,105.12678 -6.912245,157.00482 -4.268649,14.0282 -20.736926,9.4386 -16.071734,-4.8509 -0.773632,-25.09595 1.58236,-50.0905 3.581063,-75.06439 2.457959,-41.36666 0.07697,-82.92753 3.683988,-124.22466 3.521581,-18.27531 22.490759,-29.37932 40.171523,-29.2817 34.393924,-2.52178 68.922114,-0.60309 103.374754,-0.9281 12.30613,0.58966 25.24037,-0.84519 37.16468,0.96536 9.26015,6.27754 18.52031,12.55509 27.78047,18.83264 -2.51268,70.77221 -3.94964,141.59604 -8.22871,212.29395 5.59411,10.3397 -12.93582,25.5678 -19.79988,13.7295 z M 102.15089,960.05548 c -13.303807,-8.69293 -12.261853,-26.71027 -10.052613,-40.49965 2.597363,-15.06491 2.29255,-30.40662 3.453834,-45.60501 8.001259,-12.82941 27.732729,3.32528 19.271409,14.60896 9.1837,10.96389 24.31143,3.8258 36.25171,3.67143 15.4255,3.12844 19.93789,-13.59193 22.57301,-24.29572 13.21474,-10.59282 20.88633,9.99532 17.25725,20.58199 0.57826,20.50372 -0.45859,41.00553 -1.54891,61.47476 -5.54787,15.43637 -24.75362,13.53547 -38.0424,14.70317 -16.46091,0.77761 -33.38701,0.7379 -49.16329,-4.63993 z m 52.50652,-9.85101 c 12.86088,0.48872 16.15715,-14.52492 15.73852,-24.74104 1.51404,-10.82323 1.183,-26.04555 -13.96845,-20.84535 -13.32073,-0.0535 -26.77871,-0.72302 -39.94315,1.77124 -11.05369,5.90038 -5.94118,20.07502 -7.11291,30.0743 0,4.32367 0,8.64735 0,12.97102 14.79347,4.3666 30.33837,4.08281 45.28599,0.76983 z M 90.56855,839.95688 c -11.715842,4.24891 -9.83075,-17.10482 1.060568,-10.35592 16.969702,-1.65614 33.903772,-3.76767 50.988522,-3.08125 20.85462,-0.34489 41.9546,-0.69495 62.46769,3.67372 9.42383,10.84112 -12.85733,9.14359 -19.29533,9.0528 -31.72517,1.16007 -63.48225,1.26153 -95.22145,0.71065 z"
       id="path2996"
       inkscape:connector-curvature="0" />
  </g>
</svg>
