<?xml version="1.0" encoding="UTF-8" standalone="no"?>
<!-- Created with Inkscape (http://www.inkscape.org/) -->

<svg
   xmlns:dc="http://purl.org/dc/elements/1.1/"
   xmlns:cc="http://creativecommons.org/ns#"
   xmlns:rdf="http://www.w3.org/1999/02/22-rdf-syntax-ns#"
   xmlns:svg="http://www.w3.org/2000/svg"
   xmlns="http://www.w3.org/2000/svg"
   xmlns:sodipodi="http://sodipodi.sourceforge.net/DTD/sodipodi-0.dtd"
   xmlns:inkscape="http://www.inkscape.org/namespaces/inkscape"
   width="300"
   height="300"
   id="svg2"
   version="1.1"
   inkscape:version="0.48.2 r9819"
   sodipodi:docname="å²-oracle.svg">
  <defs
     id="defs4" />
  <sodipodi:namedview
     id="base"
     pagecolor="#ffffff"
     bordercolor="#666666"
     borderopacity="1.0"
     inkscape:pageopacity="0.0"
     inkscape:pageshadow="2"
     inkscape:zoom="1.979899"
     inkscape:cx="129.2633"
     inkscape:cy="140.04205"
     inkscape:document-units="px"
     inkscape:current-layer="layer1"
     showgrid="false"
     inkscape:window-width="1280"
     inkscape:window-height="999"
     inkscape:window-x="0"
     inkscape:window-y="24"
     inkscape:window-maximized="1" />
  <metadata
     id="metadata7">
    <rdf:RDF>
      <cc:Work
         rdf:about="">
        <dc:format>image/svg+xml</dc:format>
        <dc:type
           rdf:resource="http://purl.org/dc/dcmitype/StillImage" />
        <dc:title></dc:title>
      </cc:Work>
    </rdf:RDF>
  </metadata>
  <g
     inkscape:label="Calque 1"
     inkscape:groupmode="layer"
     id="layer1"
     transform="translate(0,-752.36218)">
    <path
       style="fill:#000000"
       d="m 212.68021,1014.6001 c -14.68164,-22.6332 -27.14767,-46.67096 -37.64397,-71.51317 -18.07099,-4.39563 -35.54296,6.52352 -53.72083,4.08338 -23.261674,0.42451 -46.836422,1.63124 -69.754575,-3.26321 7.046024,-8.41223 19.691645,-4.606 29.361829,-5.24592 20.722516,-1.53129 41.623346,-1.78264 62.271386,-4.51418 11.3275,0.16697 32.17911,-6.13851 18.24257,-19.65343 -6.12027,-10.27162 -18.10585,-5.82827 -27.79078,-6.14439 -25.64414,1.08879 -51.29779,2.58403 -76.976189,2.13123 -6.581632,-11.33949 17.094567,-5.78094 23.292984,-7.38558 25.604465,-2.21396 51.674925,-4.15985 77.186425,-0.73684 11.64016,4.99724 16.01847,20.52002 29.05831,22.84522 11.80338,-1.06435 20.13917,-12.60058 22.48516,-23.54605 -0.14983,-6.87926 8.47854,-22.65486 -3.30762,-20.4438 -42.35384,-2.00502 -84.73762,-0.4442 -127.071355,1.04819 -6.096324,0.15095 -26.129979,0.0133 -12.228354,-6.53472 12.321376,-3.15055 25.244766,-0.85712 37.730989,-2.7696 11.48311,-0.53771 25.53758,2.54198 34.58921,-6.33757 8.90882,-11.4329 -4.32338,-19.1259 -15.29353,-16.69648 -9.75566,-3.71352 -17.77709,2.78991 -27.4992,-0.85142 -9.004049,-3.53925 -16.336711,-13.25869 -14.301547,-23.22244 -4.247124,-7.661 3.768101,-26.27789 10.825636,-12.4598 15.532821,0.69783 33.026321,5.96893 47.064131,-3.21327 8.43979,-12.34265 -10.9799,-15.09159 -19.59654,-12.53888 -11.73775,1.02293 -23.42675,-0.91332 -35.216448,-0.24271 -11.51713,-0.0121 -23.044007,-0.0893 -34.540162,-0.85323 6.096783,-10.76219 20.26673,-8.02915 30.525814,-7.45174 11.14837,0.38425 22.264406,-0.84502 33.452586,-0.35937 8.24408,-1.22755 21.21003,2.50708 26.37254,-1.95951 -0.91694,-8.04053 12.94068,-22.72992 14.13034,-7.57546 3.87622,9.19025 16.80483,9.62498 25.66701,9.53269 14.32532,-1.39726 28.56444,1.30653 42.8887,-9.3e-4 6.08331,-0.27483 21.20052,-0.54344 20.33468,5.13874 -18.47394,5.36659 -37.91139,1.94209 -56.79995,3.57843 -9.56327,0.75773 -26.06767,-4.08714 -29.21978,8.20729 0.56758,11.6932 16.3198,7.16841 24.48731,8.24643 10.89284,-0.61981 21.99887,-2.36651 31.68587,-7.47038 12.65828,-0.76697 10.44098,16.594 8.30653,24.83323 -1.90669,10.56523 -11.25383,18.08113 -21.751,18.87329 -12.65386,1.91395 -25.57272,0.8704 -38.14164,3.10113 -16.2676,2.64176 -6.86678,27.12485 7.59705,19.13337 16.17759,1.38549 33.31819,-2.33629 48.66141,4.61441 10.41009,14.75794 3.93226,35.62864 -7.96282,47.46106 -7.25918,6.78163 -21.62561,7.60152 -22.98005,19.18577 2.18693,9.3373 13.29456,14.11958 15.00103,24.43229 4.21177,8.78155 4.45163,21.24355 13.6,26.35479 6.56298,6.02204 16.39662,17.83664 9.07649,26.15834 -5.33262,3.1589 -9.4933,-1.803 -12.09965,-5.9752 z M 180.15157,841.72214 c 12.5175,2.7188 30.64107,-5.68517 24.84139,-20.71084 -12.69186,-2.23357 -27.45109,-0.70576 -40.9046,-0.0177 -16.1318,-1.89436 -12.74293,24.29262 1.95319,22.69073 4.77198,0.47061 9.61769,-0.34353 14.11002,-1.96224 z m -40.86362,-8.88266 c 3.67367,-17.39253 -19.14155,-7.59216 -28.81787,-10.90204 -10.30442,-2.86279 -24.196533,4.77136 -15.056661,15.60079 11.785451,8.66421 27.451941,4.36602 40.994031,5.31383 5.8106,-0.47124 2.04536,-6.52347 2.8805,-10.01258 z"
       id="path3128"
       inkscape:connector-curvature="0" />
  </g>
</svg>
