<?xml version="1.0" encoding="UTF-8" standalone="no"?>
<!-- Created with Inkscape (http://www.inkscape.org/) -->

<svg
   xmlns:dc="http://purl.org/dc/elements/1.1/"
   xmlns:cc="http://creativecommons.org/ns#"
   xmlns:rdf="http://www.w3.org/1999/02/22-rdf-syntax-ns#"
   xmlns:svg="http://www.w3.org/2000/svg"
   xmlns="http://www.w3.org/2000/svg"
   xmlns:sodipodi="http://sodipodi.sourceforge.net/DTD/sodipodi-0.dtd"
   xmlns:inkscape="http://www.inkscape.org/namespaces/inkscape"
   width="300"
   height="300"
   id="svg2"
   version="1.1"
   inkscape:version="0.48.2 r9819"
   sodipodi:docname="Nouveau document 1">
  <defs
     id="defs4" />
  <sodipodi:namedview
     id="base"
     pagecolor="#ffffff"
     bordercolor="#666666"
     borderopacity="1.0"
     inkscape:pageopacity="0.0"
     inkscape:pageshadow="2"
     inkscape:zoom="1.979899"
     inkscape:cx="200.89766"
     inkscape:cy="136.22073"
     inkscape:document-units="px"
     inkscape:current-layer="layer1"
     showgrid="false"
     inkscape:window-width="1280"
     inkscape:window-height="999"
     inkscape:window-x="0"
     inkscape:window-y="24"
     inkscape:window-maximized="1" />
  <metadata
     id="metadata7">
    <rdf:RDF>
      <cc:Work
         rdf:about="">
        <dc:format>image/svg+xml</dc:format>
        <dc:type
           rdf:resource="http://purl.org/dc/dcmitype/StillImage" />
        <dc:title></dc:title>
      </cc:Work>
    </rdf:RDF>
  </metadata>
  <g
     inkscape:label="Calque 1"
     inkscape:groupmode="layer"
     id="layer1"
     transform="translate(0,-752.36218)">
    <path
       style="fill:#000000"
       d="m 249.60466,1029.0421 c -0.29504,-1.685 -1.40499,-7.4754 -2.46655,-12.8674 -1.06156,-5.3921 -2.40377,-36.1716 -2.98269,-68.39889 7.21084,-63.65082 2.08441,-58.99157 0.0439,-102.42567 -1.15384,-27.1732 0.95131,-26.47666 -80.02081,-26.47666 -61.106,0 -68.664231,0.47466 -82.513169,5.18186 -22.723282,7.72356 -24.306913,15.24382 -23.577985,111.9658 0.611412,81.12856 -0.460285,88.73186 -12.506892,88.73186 -6.650188,0 -10.691915,-11.7021 -6.926598,-20.0548 2.016006,-4.4721 3.81128,-41.72857 3.989497,-82.79214 0.178217,-41.06356 1.857627,-80.66129 3.732021,-87.99495 3.935859,-15.39924 15.968503,-23.44907 35.702687,-23.88505 6.699418,-0.14802 23.198679,-0.42375 36.665029,-0.61274 l 24.48426,-0.34363 -2.4303,-8.24929 c -2.89704,-9.83356 0.27819,-16.26017 8.03373,-16.26017 7.76956,0 17.68146,6.74121 14.59212,9.92428 -1.39273,1.43498 -1.54209,5.12118 -0.33194,8.19155 2.035,5.16308 5.46005,5.80197 45.58747,8.50367 58.5976,3.94525 58.79858,4.09901 54.90812,42.007 -3.3921,33.05204 -3.61425,38.79608 -2.1328,55.14629 0.6107,6.7401 0.99466,21.6296 0.85325,33.08777 -0.14142,11.45818 0.73851,35.5744 1.95538,53.59161 1.77285,26.2491 1.16328,33.1818 -3.06767,34.8884 -7.38484,2.9789 -10.96451,2.7137 -11.59003,-0.8587 z M 119.45933,954.11841 c -7.14898,-3.80047 -13.51049,-8.48791 -14.13667,-10.41652 -0.62619,-1.92861 -2.81896,-7.81938 -4.87281,-13.0906 -4.344276,-11.1496 -1.29954,-74.21072 3.88176,-80.39698 7.36437,-8.79277 14.57415,-1.99711 15.73964,14.8356 l 1.13017,16.3227 28.29166,-0.62032 c 15.56041,-0.34117 29.64977,-1.1548 31.30969,-1.80807 1.65992,-0.65327 3.01804,-6.54916 3.01804,-13.10198 0,-12.57012 3.48582,-22.48459 7.88325,-22.42177 11.71261,0.1673 13.6263,5.20506 14.16787,37.29656 0.30472,18.05734 -0.68587,40.45985 -2.20132,49.78335 -2.47163,15.20614 -4.07031,17.65086 -15.52427,23.73991 -10.59598,5.63293 -16.42079,6.78808 -34.22888,6.78808 -17.89919,0 -23.61672,-1.14655 -34.45813,-6.90996 z m 52.30022,-8.91655 c 10.52631,-4.69494 17.12987,-21.04589 15.87987,-39.31979 l -1.00592,-14.70568 -23.09367,-0.76179 c -12.70152,-0.41899 -28.93417,-0.068 -36.07255,0.77992 l -12.97886,1.54171 2.32819,20.4582 c 3.45083,30.32293 7.57397,34.22873 37.20668,35.24543 5.3505,0.18357 13.33182,-1.27352 17.73626,-3.238 z"
       id="path2996"
       inkscape:connector-curvature="0"
       sodipodi:nodetypes="ssccssssssssscssssssssscsssssscssssssssssscsscsss" />
  </g>
</svg>
