<?xml version="1.0" encoding="UTF-8" standalone="no"?>
<!-- Created with Inkscape (http://www.inkscape.org/) -->

<svg
   xmlns:dc="http://purl.org/dc/elements/1.1/"
   xmlns:cc="http://creativecommons.org/ns#"
   xmlns:rdf="http://www.w3.org/1999/02/22-rdf-syntax-ns#"
   xmlns:svg="http://www.w3.org/2000/svg"
   xmlns="http://www.w3.org/2000/svg"
   xmlns:sodipodi="http://sodipodi.sourceforge.net/DTD/sodipodi-0.dtd"
   xmlns:inkscape="http://www.inkscape.org/namespaces/inkscape"
   width="300"
   height="300"
   id="svg2"
   version="1.1"
   inkscape:version="0.48.4 r9939"
   sodipodi:docname="dessin.svg">
  <defs
     id="defs4" />
  <sodipodi:namedview
     id="base"
     pagecolor="#ffffff"
     bordercolor="#666666"
     borderopacity="1.0"
     inkscape:pageopacity="0.0"
     inkscape:pageshadow="2"
     inkscape:zoom="1.979899"
     inkscape:cx="218.29155"
     inkscape:cy="144.09165"
     inkscape:document-units="px"
     inkscape:current-layer="layer1"
     showgrid="false"
     inkscape:window-width="1215"
     inkscape:window-height="1000"
     inkscape:window-x="65"
     inkscape:window-y="24"
     inkscape:window-maximized="1" />
  <metadata
     id="metadata7">
    <rdf:RDF>
      <cc:Work
         rdf:about="">
        <dc:format>image/svg+xml</dc:format>
        <dc:type
           rdf:resource="http://purl.org/dc/dcmitype/StillImage" />
        <dc:title />
      </cc:Work>
    </rdf:RDF>
  </metadata>
  <g
     inkscape:label="Calque 1"
     inkscape:groupmode="layer"
     id="layer1"
     transform="translate(0,-752.36218)">
    <path
       style="fill:#000000"
       d="m 168.91633,1029.2893 c -0.69324,-3.5448 -1.89246,-9.672 -2.66495,-13.6159 -1.2759,-6.5141 -2.43876,-71.81899 -1.91991,-107.81802 0.184,-12.75711 1.09919,-15.018 7.2576,-17.92689 3.87594,-1.83081 15.08148,-3.32872 24.90118,-3.32872 14.41131,0 17.854,0.872 17.854,4.52222 0,3.33464 -2.36144,4.33679 -8.9921,3.81611 -11.46945,-0.90065 -27.76799,2.90074 -30.35815,7.08061 -2.165,3.49375 -0.62657,42.86849 3.53555,90.48933 3.33305,38.13536 3.52083,35.53926 -2.86981,39.67666 -4.79926,3.1072 -5.64011,2.7461 -6.74341,-2.8954 z M 75.243878,888.97882 c -11.05795,-4.18358 -15.840305,-18.43015 -15.840305,-47.188 0,-17.28861 0.970288,-24.04263 3.458497,-24.07421 2.189948,-0.0286 2.424213,-0.81689 0.638688,-2.15124 -4.829999,-3.60958 -4.902461,-30.82921 -0.09296,-34.96709 5.761912,-4.9574 7.904853,1.2264 6.64275,19.16875 l -0.963068,13.69104 16.25242,-0.40661 c 18.979372,-0.47485 21.476632,-3.10988 19.208132,-20.26769 -1.30969,-9.90579 -0.71115,-12.55664 3.18528,-14.10667 2.83749,-1.12883 5.79713,-0.27278 7.2432,2.0946 3.63214,5.94666 3.04146,35.31121 -0.79023,39.28346 -2.58233,2.67708 -2.51684,3.44196 0.29472,3.44196 2.77139,0 3.34395,5.36849 2.45374,23.0068 -1.11771,22.14595 0.86623,27.18986 6.6783,16.97871 9.45847,-16.61756 29.86177,-59.05975 29.86177,-62.11738 0,-2.06839 1.09981,-6.00195 2.444,-8.7413 1.34418,-2.73933 4.09405,-8.8528 6.11082,-13.5855 6.42507,-15.07761 8.21898,-16.50247 13.97627,-11.10102 2.82529,2.65066 5.13689,6.00016 5.13689,7.44339 0,1.44321 3.73517,8.2521 8.3004,15.13083 4.56521,6.87873 8.30039,13.35716 8.30039,14.3965 0,1.72138 10.61147,14.19545 27.12523,31.88651 7.11935,7.62687 5.7122,13.6943 -2.54581,10.97716 -6.39107,-2.10286 -15.88069,-11.56554 -24.83677,-24.76624 -3.56263,-5.25113 -8.0312,-11.20788 -9.93014,-13.23727 -1.89891,-2.02935 -5.63225,-7.51498 -8.2963,-12.19028 -2.66401,-4.67528 -5.50903,-8.49169 -6.32224,-8.48089 -0.8132,0.0112 -9.40673,16.79036 -19.0967,37.28793 -9.68998,20.49755 -18.71666,37.26828 -20.05927,37.26828 -1.34265,0 -2.44116,1.96838 -2.44116,4.37416 0,2.52703 -3.37153,5.0732 -7.98408,6.02957 -4.39127,0.91047 -9.52576,4.6417 -11.41,8.29161 -5.12923,9.93559 -20.585446,12.72772 -36.702348,6.63013 z m 27.227562,-11.65121 c 3.54573,-3.67582 4.81696,-20.44371 3.31993,-43.79142 -0.71281,-11.11709 -1.071,-11.50167 -11.539094,-12.3899 -5.941892,-0.50416 -13.72351,-0.1569 -17.292486,0.77175 -6.16318,1.6036 -6.489025,2.89813 -6.489025,25.77969 0,33.02222 0.574055,34.11373 17.077395,32.46979 7.413469,-0.73847 14.12896,-2.01641 14.92328,-2.83991 z m 54.83815,-25.67634 c -1.96249,-3.29188 2.7137,-4.48234 25.90818,-6.59569 17.08503,-1.5567 20.05929,-1.16402 20.05929,2.64844 0,4.83681 -0.98723,5.04855 -27.11622,5.81548 -9.58784,0.28139 -18.07091,-0.5593 -18.85125,-1.86823 z"
       id="path3002"
       inkscape:connector-curvature="0" />
  </g>
</svg>
