<?xml version="1.0" encoding="UTF-8" standalone="no"?>
<!-- Created with Inkscape (http://www.inkscape.org/) -->

<svg
   xmlns:dc="http://purl.org/dc/elements/1.1/"
   xmlns:cc="http://creativecommons.org/ns#"
   xmlns:rdf="http://www.w3.org/1999/02/22-rdf-syntax-ns#"
   xmlns:svg="http://www.w3.org/2000/svg"
   xmlns="http://www.w3.org/2000/svg"
   xmlns:sodipodi="http://sodipodi.sourceforge.net/DTD/sodipodi-0.dtd"
   xmlns:inkscape="http://www.inkscape.org/namespaces/inkscape"
   width="300"
   height="300"
   id="svg2"
   version="1.1"
   inkscape:version="0.48.4 r9939"
   sodipodi:docname="image-seal.svg">
  <defs
     id="defs4" />
  <sodipodi:namedview
     id="base"
     pagecolor="#ffffff"
     bordercolor="#666666"
     borderopacity="1.0"
     inkscape:pageopacity="0.0"
     inkscape:pageshadow="2"
     inkscape:zoom="2.0018442"
     inkscape:cx="168.83149"
     inkscape:cy="136.20087"
     inkscape:document-units="px"
     inkscape:current-layer="layer1"
     showgrid="false"
     inkscape:window-width="1215"
     inkscape:window-height="1000"
     inkscape:window-x="65"
     inkscape:window-y="24"
     inkscape:window-maximized="1" />
  <metadata
     id="metadata7">
    <rdf:RDF>
      <cc:Work
         rdf:about="">
        <dc:format>image/svg+xml</dc:format>
        <dc:type
           rdf:resource="http://purl.org/dc/dcmitype/StillImage" />
        <dc:title />
      </cc:Work>
    </rdf:RDF>
  </metadata>
  <g
     inkscape:label="Calque 1"
     inkscape:groupmode="layer"
     id="layer1"
     transform="translate(0,-752.36218)">
    <path
       style="fill:#000000"
       d="m 230.7633,1018.6032 c -3.5595,-32.75073 -7.54541,-42.88052 -23.91479,-60.77685 -8.09788,-8.85325 -11.67912,-15.42966 -11.84348,-21.74862 -0.12962,-4.98185 -0.8727,-12.97267 -1.65142,-17.75737 -2.24132,-13.77146 -3.23474,-36.9996 -3.78261,-88.4444 -0.77262,-72.55354 -1.0136,-69.59558 5.66961,-69.59558 3.51046,0 5.88233,2.00304 6.00914,5.07467 0.11513,2.79108 0.18733,33.53794 0.16036,68.32634 l -0.049,63.25169 6.33702,-0.90564 c 12.53133,-1.79084 15.01783,-13.73915 16.02949,-77.02579 0.51628,-32.2967 1.98765,-58.72127 3.26972,-58.72127 5.69944,0 8.18951,9.29414 10.09988,37.69761 2.40711,35.78886 2.27082,31.10551 1.64562,56.54641 -0.7436,30.2577 -5.76243,39.03756 -32.91106,57.57423 -8.67103,5.92044 -1.2386,24.85334 17.35212,44.20175 16.15923,16.81783 16.12229,16.7177 21.40453,57.99852 3.27749,25.6138 1.9965,33.0633 -5.68538,33.0633 -4.20499,0 -5.51835,-4.6404 -8.13969,-28.759 z m -74.87346,12.7464 c -1.05379,-5.6172 -1.06809,-33.99916 -0.0319,-63.07103 4.89547,-137.33466 5.11006,-186.05517 0.84481,-191.79541 -2.27906,-3.06714 -6.03223,-4.81236 -8.39738,-3.90478 -3.46348,1.32907 -4.93546,14.78825 -7.74228,70.7917 -1.90613,38.03286 -4.13829,80.24244 -4.96033,93.79908 -0.82207,13.55664 -1.86865,35.82654 -2.32577,49.48864 -0.87763,26.2311 -2.47549,31.7062 -9.25314,31.7062 -2.85142,0 -4.25711,-3.4538 -4.42579,-10.8743 -0.29822,-13.11754 0.4792,-38.50236 1.66516,-54.37155 3.99398,-53.44306 7.48814,-108.22543 9.13744,-143.25962 l 1.96625,-41.76605 -11.69102,1.56808 c -13.49098,1.80954 -19.84203,-0.99542 -17.29317,-7.63763 3.33569,-8.69269 54.92612,-4.29225 64.73669,5.52177 5.01428,5.01602 5.29962,10.41475 4.27984,80.97482 -0.60093,41.58026 -1.40975,99.74144 -1.79734,129.24707 -0.38756,29.50561 -1.66664,55.93021 -2.84237,58.72131 -3.55999,8.451 -9.82959,5.737 -11.86981,-5.1383 z M 78.149883,931.86586 c -4.59117,-0.52446 -11.30288,-3.78675 -14.91486,-7.24954 -6.27555,-6.0163 -6.62649,-8.77945 -7.90069,-62.20935 -0.75109,-31.494 -0.19748,-56.61549 1.26777,-57.52101 6.71498,-4.1501 11.04659,5.85058 11.04659,25.50397 l 0,20.10251 13.77412,-0.88384 13.77413,-0.88383 1.44991,-20.29871 c 1.10468,-15.46568 2.48555,-20.29872 5.799637,-20.29872 3.63486,0 4.70858,8.96357 6.53311,54.53975 1.98263,49.52538 1.71603,55.16732 -2.89981,61.36599 -5.28632,7.09901 -13.699267,9.45839 -27.929907,7.83278 z m 19.57512,-25.86972 c 2.340437,-19.39542 2.335507,-18.31246 0.14528,-31.89798 -1.9325,-11.9863 -2.28888,-12.32422 -12.9973,-12.32422 -16.72964,0 -19.59823,4.68961 -18.07858,29.55507 1.75285,28.68185 1.61395,28.44126 16.42035,28.44126 l 12.84819,0 1.66215,-13.77413 z"
       id="path3080"
       inkscape:connector-curvature="0" />
  </g>
</svg>
