<?xml version="1.0" encoding="UTF-8" standalone="no"?>
<!-- Created with Inkscape (http://www.inkscape.org/) -->

<svg
   xmlns:dc="http://purl.org/dc/elements/1.1/"
   xmlns:cc="http://creativecommons.org/ns#"
   xmlns:rdf="http://www.w3.org/1999/02/22-rdf-syntax-ns#"
   xmlns:svg="http://www.w3.org/2000/svg"
   xmlns="http://www.w3.org/2000/svg"
   xmlns:sodipodi="http://sodipodi.sourceforge.net/DTD/sodipodi-0.dtd"
   xmlns:inkscape="http://www.inkscape.org/namespaces/inkscape"
   width="300"
   height="300"
   id="svg2"
   version="1.1"
   inkscape:version="0.48.4 r9939"
   sodipodi:docname="dessin.svg">
  <defs
     id="defs4" />
  <sodipodi:namedview
     id="base"
     pagecolor="#ffffff"
     bordercolor="#666666"
     borderopacity="1.0"
     inkscape:pageopacity="0.0"
     inkscape:pageshadow="2"
     inkscape:zoom="1.979899"
     inkscape:cx="218.29155"
     inkscape:cy="144.09165"
     inkscape:document-units="px"
     inkscape:current-layer="layer1"
     showgrid="false"
     inkscape:window-width="1215"
     inkscape:window-height="1000"
     inkscape:window-x="65"
     inkscape:window-y="24"
     inkscape:window-maximized="1" />
  <metadata
     id="metadata7">
    <rdf:RDF>
      <cc:Work
         rdf:about="">
        <dc:format>image/svg+xml</dc:format>
        <dc:type
           rdf:resource="http://purl.org/dc/dcmitype/StillImage" />
        <dc:title />
      </cc:Work>
    </rdf:RDF>
  </metadata>
  <g
     inkscape:label="Calque 1"
     inkscape:groupmode="layer"
     id="layer1"
     transform="translate(0,-752.36218)">
    <path
       style="fill:#000000"
       d="m 125.66153,1034.7184 c -9.00585,-2.2295 -11.78603,-4.5936 -18.42094,-15.6641 l -7.814264,-13.0383 1.282054,-41.48013 c 0.70514,-22.8141 1.8567,-42.13446 2.55901,-42.93413 3.33211,-3.79389 8.5508,2.73474 9.9074,12.39425 l 1.50783,10.73617 14.37866,0 c 13.22995,0 14.41228,-0.47788 14.79921,-5.98187 0.49437,-7.03167 0.59078,-33.55344 0.13122,-36.11612 -0.76772,-4.28196 3.86234,-17.97715 6.95794,-20.58072 1.87025,-1.57303 10.656,-3.08197 19.52386,-3.35317 12.94378,-0.39589 16.40826,0.35211 17.56793,3.79299 2.16083,6.41147 -3.76604,9.1807 -15.8461,7.40388 -10.51894,-1.54725 -10.83517,-1.38043 -13.42622,7.08239 -1.45947,4.76684 -2.65355,16.70754 -2.65355,26.53496 l 0,17.86803 10.323,3.29082 c 5.67765,1.80996 11.39605,2.53575 12.70755,1.61284 1.3115,-0.92288 3.08995,-7.03377 3.95209,-13.57974 1.18128,-8.96902 2.59138,-11.90176 5.72256,-11.90176 2.28529,0 4.73544,1.72208 5.44481,3.82682 1.90568,5.65447 -0.70375,95.47379 -2.82156,97.12069 -0.99644,0.7749 -2.4424,3.3609 -3.21326,5.7468 -2.42419,7.5028 -42.66797,12.1463 -62.56931,7.2194 z m 48.37462,-17.041 c 3.78397,-2.7436 5.54596,-7.5954 6.91406,-19.03865 1.00979,-8.44622 1.63017,-17.74951 1.3786,-20.67398 -0.25154,-2.92447 -0.75719,-8.30816 -1.12367,-11.96374 l -0.66629,-6.64651 -34.65052,-0.73741 -34.65048,-0.73739 1.66462,27.32348 c 2.2845,37.4991 3.18627,38.5075 33.2419,37.1708 13.99897,-0.6226 24.77578,-2.4372 27.89178,-4.6966 z M 72.055856,898.82299 c 0,-3.34341 2.889555,-9.198 6.421233,-13.01021 8.229499,-8.88319 12.258718,-14.6864 12.258718,-17.65601 0,-1.29733 2.101494,-4.52416 4.669987,-7.17078 2.568493,-2.64662 4.669986,-7.0092 4.669986,-9.69464 0,-2.68545 2.1015,-6.37693 4.66999,-8.2033 2.5685,-1.82635 4.66999,-4.29489 4.66999,-5.48563 0,-1.19072 4.22794,-9.25373 9.39543,-17.91782 5.16748,-8.66408 10.05652,-17.87035 10.8645,-20.45834 0.80797,-2.58803 4.72331,-10.98643 8.70076,-18.66314 9.30469,-17.95866 14.65382,-17.88084 19.9761,0.29062 2.08114,7.10544 5.31877,14.28368 7.19473,15.95165 1.87594,1.66792 6.53812,8.4163 10.36037,14.99635 3.82225,6.58006 10.6521,16.18439 15.17745,21.34297 4.52537,5.15854 12.28864,14.94028 17.25174,21.73718 4.96309,6.79687 12.069,13.79413 15.79091,15.54945 3.77584,1.78076 7.36718,5.91389 8.1247,9.35035 3.10159,14.07043 -6.65733,15.86185 -17.09351,3.13782 -3.89776,-4.75226 -12.66984,-14.44706 -19.49348,-21.544 -10.87559,-11.31118 -12.7445,-12.37747 -15.14443,-8.64047 -2.21513,3.44922 -7.48048,4.26304 -27.58155,4.26304 -22.61692,0 -24.84377,-0.44093 -24.84377,-4.91912 0,-4.29064 2.64445,-5.13281 20.69921,-6.59198 21.11676,-1.70667 28.33566,-3.48239 28.33566,-6.97008 0,-1.07836 -2.62559,-5.43675 -5.83464,-9.68533 -3.20905,-4.2486 -5.83592,-9.22016 -5.83748,-11.04796 -0.002,-1.82779 -1.05359,-3.32326 -2.33784,-3.32326 -1.28425,0 -2.335,-2.39275 -2.335,-5.31721 0,-2.92448 -0.97995,-5.31723 -2.17764,-5.31723 -1.19771,0 -2.84463,-2.39275 -3.65984,-5.31721 -1.45272,-5.21146 -8.17248,-7.6247 -8.17248,-2.93495 0,4.00249 -28.04536,50.78991 -30.44451,50.78991 -1.23498,0 -2.2454,1.74526 -2.2454,3.87834 0,4.41652 -18.386424,33.34217 -21.193764,33.34217 -1.012802,0 -2.442216,2.09365 -3.176431,4.65257 -0.734239,2.55891 -5.008025,7.35541 -9.497331,10.65886 l -8.162368,6.00633 0,-6.07894 z"
       id="path3028"
       inkscape:connector-curvature="0" />
  </g>
</svg>
