<?xml version="1.0" encoding="UTF-8" standalone="no"?>
<!-- Created with Inkscape (http://www.inkscape.org/) -->

<svg
   xmlns:dc="http://purl.org/dc/elements/1.1/"
   xmlns:cc="http://creativecommons.org/ns#"
   xmlns:rdf="http://www.w3.org/1999/02/22-rdf-syntax-ns#"
   xmlns:svg="http://www.w3.org/2000/svg"
   xmlns="http://www.w3.org/2000/svg"
   xmlns:sodipodi="http://sodipodi.sourceforge.net/DTD/sodipodi-0.dtd"
   xmlns:inkscape="http://www.inkscape.org/namespaces/inkscape"
   width="300"
   height="300"
   id="svg2"
   version="1.1"
   inkscape:version="0.48.3.1 r9886"
   sodipodi:docname="Nouveau document 1">
  <defs
     id="defs4" />
  <sodipodi:namedview
     id="base"
     pagecolor="#ffffff"
     bordercolor="#666666"
     borderopacity="1.0"
     inkscape:pageopacity="0.0"
     inkscape:pageshadow="2"
     inkscape:zoom="1.979899"
     inkscape:cx="252.29394"
     inkscape:cy="170.19316"
     inkscape:document-units="px"
     inkscape:current-layer="layer1"
     showgrid="false"
     inkscape:window-width="1215"
     inkscape:window-height="1000"
     inkscape:window-x="65"
     inkscape:window-y="24"
     inkscape:window-maximized="1" />
  <metadata
     id="metadata7">
    <rdf:RDF>
      <cc:Work
         rdf:about="">
        <dc:format>image/svg+xml</dc:format>
        <dc:type
           rdf:resource="http://purl.org/dc/dcmitype/StillImage" />
        <dc:title></dc:title>
      </cc:Work>
    </rdf:RDF>
  </metadata>
  <g
     inkscape:label="Calque 1"
     inkscape:groupmode="layer"
     id="layer1"
     transform="translate(0,-752.36218)">
    <path
       style="fill:#000000"
       d="m 48.857889,1035.745 c 0,-3.1763 3.882527,-6.5251 11.370121,-9.8076 6.253566,-2.7414 14.865935,-7.6531 19.138596,-10.9152 4.272663,-3.262 16.380846,-12.1336 26.907074,-19.71436 11.1724,-8.04586 19.1386,-15.69241 19.1386,-18.37045 0,-2.52312 0.95692,-4.595 2.12651,-4.60401 3.74318,-0.0292 14.92055,-15.97089 20.66236,-29.46927 7.89421,-18.55853 7.12334,-28.76787 -1.66554,-22.05779 -1.48147,1.13107 -10.34901,4.58204 -19.70566,7.66881 -9.35665,3.08681 -28.312504,11.0817 -42.124121,17.76644 -20.078369,9.71795 -25.610982,11.47701 -27.601221,8.77677 -5.771894,-7.83163 -5.715752,-7.86927 50.874662,-34.10633 8.34542,-3.86922 17.52044,-7.03491 20.38893,-7.03491 2.8685,0 5.90216,-0.95477 6.74146,-2.12169 0.8393,-1.16692 5.38027,-2.78406 10.09104,-3.59365 7.21309,-1.23962 8.56505,-2.60937 8.56505,-8.67778 0,-7.93323 -1.56779,-8.6764 -24.08187,-11.41556 -22.83477,-2.77817 -31.205128,-10.03338 -40.695235,-35.27352 -1.799181,-4.78516 -3.271236,-12.25769 -3.271236,-16.60566 0,-4.34796 -1.301981,-9.99584 -2.893292,-12.55081 -3.392186,-5.44645 -4.875406,-25.71638 -2.05885,-28.13659 1.066901,-0.91678 5.169405,0.15154 9.116682,2.37389 5.848953,3.2931 7.176845,5.99164 7.176845,14.58467 0,5.79917 1.116941,13.72253 2.482094,17.60751 1.365142,3.88496 4.106902,13.06103 6.092802,20.39124 1.98589,7.33023 5.01565,14.53269 6.7328,16.0055 3.78741,3.24851 26.7172,8.41001 37.69295,8.48473 11.59102,0.0789 20.00919,6.96268 21.58825,17.65342 1.5976,10.81618 6.26047,16.40155 13.69254,16.40155 2.94908,0 7.5775,0.97639 10.28537,2.16974 2.70787,1.19336 11.30292,4.72677 19.10012,7.85202 26.93983,10.79799 35.44185,16.71642 35.44185,24.67182 0,5.60645 -1.01481,6.91139 -4.48493,5.76718 -2.46669,-0.81336 -5.41588,-1.47885 -6.55371,-1.47885 -1.13785,0 -4.60721,-1.91864 -7.70971,-4.26365 -10.47502,-7.91754 -49.01646,-24.97278 -56.43353,-24.97278 -3.2847,0 -4.20786,3.44274 -4.20786,15.6926 0,8.63094 1.17775,16.31808 2.61723,17.08253 1.43945,0.76446 3.45756,4.67771 4.4847,8.69625 1.02713,4.0183 3.40119,8.6652 5.27573,10.32655 1.87453,1.66112 6.82269,7.95402 10.99592,13.98403 9.72579,14.05297 19.73882,23.26901 38.29524,35.24711 16.11435,10.4019 18.04758,14.2911 9.14008,18.3873 -4.62029,2.1248 -7.53559,1.552 -14.88558,-2.9253 -15.79147,-9.6192 -22.24007,-15.0499 -31.28245,-26.3455 -4.82726,-6.0299 -10.41386,-12.39642 -12.4147,-14.14767 -2.00086,-1.75127 -7.37758,-10.12702 -11.94834,-18.6124 -9.22454,-17.12524 -13.55395,-20.90015 -16.39428,-14.29442 -1.04482,2.43003 -2.69718,4.9663 -3.67189,5.6363 -0.97472,0.66999 -3.91101,5.17119 -6.5251,10.00275 -9.95925,18.40725 -62.303864,58.21554 -76.548797,58.21554 -2.500465,0 -5.334851,1.0964 -6.298639,2.4364 -3.247566,4.5153 -12.759065,2.736 -12.759065,-2.3869 z M 159.56261,847.88449 c -21.71102,-1.86949 -25.30803,-5.13555 -30.43132,-27.63134 -4.11208,-18.05571 -4.72979,-47.68544 -0.99412,-47.68544 4.55909,0 14.33606,10.41782 13.57957,14.46965 -0.77775,4.1657 7.17192,4.62191 33.31412,1.91179 7.7972,-0.80831 16.40957,-1.53572 19.13859,-1.61643 3.58499,-0.10599 4.96185,-2.17502 4.96185,-7.4559 0,-5.5999 1.28138,-7.30911 5.47962,-7.30911 7.44509,0 9.58362,7.04532 9.61394,31.6728 0.0227,19.34203 -5.14245,36.42113 -12.14125,40.13798 -6.03833,3.20675 -26.45048,4.88981 -42.521,3.506 z m 28.21086,-14.39999 c 5.09773,-2.34432 13.73355,-28.0147 10.39078,-30.88711 -1.95644,-1.68114 -49.89853,-1.17146 -53.16877,0.56527 -1.41412,0.75099 -2.57112,6.25047 -2.57112,12.22109 0,9.63288 1.03799,11.39952 9.21488,15.68351 9.89541,5.18438 27.54911,6.36533 36.13423,2.41724 z"
       id="path2996"
       inkscape:connector-curvature="0" />
  </g>
</svg>
