<?xml version="1.0" encoding="UTF-8" standalone="no"?>
<!-- Created with Inkscape (http://www.inkscape.org/) -->

<svg
   xmlns:dc="http://purl.org/dc/elements/1.1/"
   xmlns:cc="http://creativecommons.org/ns#"
   xmlns:rdf="http://www.w3.org/1999/02/22-rdf-syntax-ns#"
   xmlns:svg="http://www.w3.org/2000/svg"
   xmlns="http://www.w3.org/2000/svg"
   xmlns:sodipodi="http://sodipodi.sourceforge.net/DTD/sodipodi-0.dtd"
   xmlns:inkscape="http://www.inkscape.org/namespaces/inkscape"
   width="300"
   height="300"
   id="svg2"
   version="1.1"
   inkscape:version="0.48.3.1 r9886"
   sodipodi:docname="dessin.svg">
  <defs
     id="defs4" />
  <sodipodi:namedview
     id="base"
     pagecolor="#ffffff"
     bordercolor="#666666"
     borderopacity="1.0"
     inkscape:pageopacity="0.0"
     inkscape:pageshadow="2"
     inkscape:zoom="1.979899"
     inkscape:cx="180.72883"
     inkscape:cy="116.6106"
     inkscape:document-units="px"
     inkscape:current-layer="layer1"
     showgrid="false"
     inkscape:window-width="1215"
     inkscape:window-height="1000"
     inkscape:window-x="65"
     inkscape:window-y="24"
     inkscape:window-maximized="1" />
  <metadata
     id="metadata7">
    <rdf:RDF>
      <cc:Work
         rdf:about="">
        <dc:format>image/svg+xml</dc:format>
        <dc:type
           rdf:resource="http://purl.org/dc/dcmitype/StillImage" />
        <dc:title></dc:title>
      </cc:Work>
    </rdf:RDF>
  </metadata>
  <g
     inkscape:label="Calque 1"
     inkscape:groupmode="layer"
     id="layer1"
     transform="translate(0,-752.36218)">
    <path
       style="fill:#000000"
       d="m 214.48756,1022.9826 c -13.58598,-15.4762 -16.32517,-20.3205 -17.99377,-31.82252 -2.06648,-14.24452 -0.3065,-33.0506 3.09308,-33.0506 1.09743,0 3.70165,-3.21473 5.78711,-7.14384 2.0855,-3.92911 6.21662,-9.34697 9.18031,-12.03965 3.77559,-3.43038 4.38388,-5.24475 2.03216,-6.06146 -1.84601,-0.64108 -3.35637,-4.57518 -3.35637,-8.7424 0,-4.61508 -1.41173,-7.57681 -3.61148,-7.57681 -8.65619,0 -17.07862,-21.07847 -17.81533,-44.58573 -0.0298,-0.94746 -3.67888,-0.39891 -8.1093,1.21897 -7.11815,2.59939 -8.05531,4.16182 -8.05531,13.42975 0,14.12605 -3.75755,25.88183 -10.5161,32.90032 -3.07697,3.1953 -5.59449,7.34271 -5.59449,9.21644 0,1.87374 -1.01436,3.4068 -2.25412,3.4068 -7.79547,0 -11.47736,49.37167 -6.05816,81.23523 2.38967,14.0504 -0.99689,21.4425 -8.54044,18.642 -4.00233,-1.4859 -4.67315,-5.9833 -4.96127,-33.2628 -0.6246,-59.13952 1.03243,-67.23321 17.24262,-84.22033 5.4703,-5.73251 7.85388,-21.64844 3.82569,-25.5456 -1.00083,-0.96828 -7.0223,0.16184 -13.38102,2.51119 -13.79258,5.09607 -22.60092,5.46981 -24.14542,1.02447 -0.89768,-2.58368 -3.1153,-2.55729 -10.85272,0.12911 -12.233909,4.24762 -27.788402,0.70685 -36.555068,-8.32131 -5.195804,-5.35076 -6.471737,-10.55153 -8.45173,-34.44952 -2.62917,-31.73325 0.948673,-53.45156 9.054348,-54.9618 3.805325,-0.70898 4.52426,1.45773 4.52426,13.63522 l 0,14.47816 16.110604,0 16.110606,0 0,-10.07297 c 0,-11.48639 6.14552,-18.79139 11.47281,-13.63739 2.19207,2.12076 3.20639,16.06128 3.24258,44.56417 0.0548,43.2338 0.48909,44.71109 11.50077,39.12883 2.56439,-1.29999 14.93301,-6.96697 27.48585,-12.59331 12.55285,-5.62634 28.79933,-13.91464 36.10327,-18.41849 13.81061,-8.516 25.65405,-10.69843 25.65405,-4.72734 0,1.90376 -4.5311,6.31117 -10.06913,9.79422 l -10.06912,6.33285 0.5821,19.43058 c 0.50531,16.86806 1.37292,19.94443 6.57873,23.32719 19.78544,12.85662 23.81465,27.08639 11.63488,41.09041 -3.69203,4.24497 -6.71277,8.79022 -6.71277,10.10051 0,1.3103 -2.56184,5.04274 -5.693,8.29433 -4.50358,4.67678 -5.42726,8.19308 -4.42099,16.8302 1.63896,14.06775 8.81433,28.56552 18.52781,37.43522 7.14372,6.5232 11.02989,21.3328 5.59791,21.3328 -1.15439,0 -9.31038,-8.2148 -18.12444,-18.2551 z M 107.92359,876.92946 c 3.66039,-4.31417 6.97745,-31.11633 4.70736,-38.03603 -1.40203,-4.27371 -3.98445,-5.47645 -11.75859,-5.47645 -16.366308,0 -21.89732,5.62353 -21.89732,22.26351 0,18.66423 3.911037,24.49618 16.427715,24.49618 5.371165,0 11.005525,-1.46124 12.520835,-3.24721 z m 32.80877,-31.90411 c 0,-2.18798 2.11452,-4.65245 4.69892,-5.47656 2.58442,-0.82415 9.82103,-3.70995 16.08134,-6.41288 6.26034,-2.70295 12.38975,-4.91445 13.62095,-4.91445 1.23118,0 9.72168,-3.50698 18.86775,-7.79328 19.06411,-8.9344 24.61853,-9.66902 24.55151,-3.2472 -0.0486,4.66883 -14.09065,12.09696 -37.54396,19.8606 -6.64562,2.19989 -16.91613,5.73996 -22.82336,7.86686 -13.84193,4.98377 -17.45315,5.00795 -17.45315,0.11688 z m -2.6851,-31.85583 c 0,-3.60136 6.25661,-6.68186 27.52227,-13.55088 15.13727,-4.88948 30.54303,-10.3833 34.23505,-12.20852 7.93791,-3.92426 12.54342,-4.23528 14.6183,-0.98725 2.59488,4.06204 -1.53867,10.62547 -6.69181,10.62547 -2.70846,0 -5.67123,1.16898 -6.58395,2.59775 -0.91272,1.42877 -4.5376,2.59777 -8.0553,2.59777 -3.51769,0 -7.14258,1.16899 -8.0553,2.59775 -0.91272,1.42877 -4.02116,2.59777 -6.90767,2.59777 -2.88647,0 -7.95041,1.35151 -11.2532,3.00334 -13.13589,6.56974 -15.58049,7.38769 -22.07921,7.38769 -4.70107,0 -6.74918,-1.4144 -6.74918,-4.66089 z"
       id="path3034"
       inkscape:connector-curvature="0" />
  </g>
</svg>
