<?xml version="1.0" encoding="UTF-8" standalone="no"?>
<!-- Created with Inkscape (http://www.inkscape.org/) -->

<svg
   xmlns:dc="http://purl.org/dc/elements/1.1/"
   xmlns:cc="http://creativecommons.org/ns#"
   xmlns:rdf="http://www.w3.org/1999/02/22-rdf-syntax-ns#"
   xmlns:svg="http://www.w3.org/2000/svg"
   xmlns="http://www.w3.org/2000/svg"
   xmlns:sodipodi="http://sodipodi.sourceforge.net/DTD/sodipodi-0.dtd"
   xmlns:inkscape="http://www.inkscape.org/namespaces/inkscape"
   width="300"
   height="300"
   id="svg2"
   version="1.1"
   inkscape:version="0.48.2 r9819"
   sodipodi:docname="Nouveau document 1">
  <defs
     id="defs4" />
  <sodipodi:namedview
     id="base"
     pagecolor="#ffffff"
     bordercolor="#666666"
     borderopacity="1.0"
     inkscape:pageopacity="0.0"
     inkscape:pageshadow="2"
     inkscape:zoom="1.979899"
     inkscape:cx="100.45901"
     inkscape:cy="159.6668"
     inkscape:document-units="px"
     inkscape:current-layer="layer1"
     showgrid="false"
     inkscape:window-width="1280"
     inkscape:window-height="999"
     inkscape:window-x="0"
     inkscape:window-y="24"
     inkscape:window-maximized="1" />
  <metadata
     id="metadata7">
    <rdf:RDF>
      <cc:Work
         rdf:about="">
        <dc:format>image/svg+xml</dc:format>
        <dc:type
           rdf:resource="http://purl.org/dc/dcmitype/StillImage" />
        <dc:title></dc:title>
      </cc:Work>
    </rdf:RDF>
  </metadata>
  <g
     inkscape:label="Calque 1"
     inkscape:groupmode="layer"
     id="layer1"
     transform="translate(0,-752.36217)">
    <path
       style="fill:#000000"
       d="m 123.36012,1023.7129 c -10.58531,-3.2022 -23.365896,-6.5709 -29.228748,-16.7801 -3.887483,-16.9716 -1.652977,-34.70085 -2.202113,-51.99543 2.072588,-10.9136 -4.310587,-31.62938 9.931141,-34.57131 13.37632,3.76831 1.52985,27.46399 17.58636,25.8728 11.39816,0.87029 24.0492,-0.46092 33.6976,6.68824 12.43117,-2.69261 25.40389,-3.16714 38.17237,-3.99419 17.35964,2.11709 4.12956,-23.03667 17.29906,-27.1895 11.22921,5.91601 8.20364,22.03784 10.85071,32.92347 1.10801,17.19506 5.00395,35.63993 -1.94761,52.04772 -6.89955,11.7445 -21.9714,12.3699 -33.70225,16.0265 -19.7829,4.5726 -40.57847,5.5694 -60.45652,0.9718 z m 70.77349,-16.356 c 7.98041,-7.2765 12.84803,-20.87631 11.72904,-31.87718 -3.3234,-14.23568 -19.82837,-20.31833 -32.26814,-14.64792 -21.03571,1.88857 -42.17718,0.98401 -63.26721,1.19948 -4.31012,13.7853 -5.7617,30.36023 4.42591,41.98692 15.98558,11.2519 36.8109,8.1323 55.1982,7.5253 8.11708,-0.8151 16.47941,-1.2927 24.1822,-4.1866 z m -85.48249,-99.01024 c -25.095882,-3.16508 -50.60988,0.86722 -75.744439,-1.9612 -12.438616,-6.227 9.230037,-15.39181 16.567862,-12.45027 12.30946,0.93328 24.830326,-1.54808 33.973478,-10.33452 19.529859,-12.19396 39.209009,-25.03284 54.372959,-42.60263 0.6081,-9.80069 -14.21074,-15.9376 -20.52763,-23.37617 -10.81643,-8.97057 -21.749113,-17.80024 -32.617503,-26.70783 -12.390734,0.63126 -24.782708,2.41677 -37.187039,1.8511 -6.979042,-10.49887 17.409417,-8.27207 24.700259,-8.97933 54.781563,-0.8537 109.589013,-1.6246 164.373093,-0.81877 5.85203,-1.32312 21.22869,2.51117 9.6271,7.90334 -12.49214,2.89382 -26.8385,0.0679 -37.2565,9.36164 -12.88088,9.93075 -26.68717,19.66814 -36.03077,33.15782 -0.28591,13.86701 18.5767,17.38726 27.72113,24.71186 19.11184,9.75282 34.41468,26.72601 55.5974,32.23821 7.08173,-3.42021 30.64458,6.80413 13.66564,10.00841 -38.72071,4.45514 -77.8386,2.67984 -116.71966,4.68926 -14.42449,0.62605 -29.04739,0.89502 -43.13634,3.78519 l -1.37904,-0.47611 z M 212.6459,889.42601 c -9.30261,-10.61026 -21.83078,-18.35687 -32.97195,-27.10314 -9.56092,-5.00524 -20.23808,-20.91692 -30.86892,-10.08317 -14.7791,10.97426 -29.71456,22.22784 -41.91875,36.08571 7.57512,4.60747 23.88677,1.54205 34.63266,2.77332 23.67132,-0.22281 47.58358,0.8376 71.12696,-1.67272 z m -46.43492,-72.73148 c 5.49119,-6.15031 20.9283,-15.86531 17.77235,-22.42661 -22.05372,-2.18349 -44.62519,-5.35248 -66.67187,-1.70835 -13.59097,5.54943 9.39668,15.99038 14.01805,21.06048 9.34297,6.41303 21.5324,18.29847 31.49945,5.7749 1.14936,-0.87208 2.27734,-1.77238 3.38202,-2.70042 z"
       id="path2996"
       inkscape:connector-curvature="0" />
  </g>
</svg>
