<?xml version="1.0" encoding="UTF-8" standalone="no"?>
<!-- Created with Inkscape (http://www.inkscape.org/) -->

<svg
   xmlns:dc="http://purl.org/dc/elements/1.1/"
   xmlns:cc="http://creativecommons.org/ns#"
   xmlns:rdf="http://www.w3.org/1999/02/22-rdf-syntax-ns#"
   xmlns:svg="http://www.w3.org/2000/svg"
   xmlns="http://www.w3.org/2000/svg"
   xmlns:sodipodi="http://sodipodi.sourceforge.net/DTD/sodipodi-0.dtd"
   xmlns:inkscape="http://www.inkscape.org/namespaces/inkscape"
   width="300"
   height="300"
   id="svg2"
   version="1.1"
   inkscape:version="0.48.4 r9939"
   sodipodi:docname="image-seal.svg">
  <defs
     id="defs4" />
  <sodipodi:namedview
     id="base"
     pagecolor="#ffffff"
     bordercolor="#666666"
     borderopacity="1.0"
     inkscape:pageopacity="0.0"
     inkscape:pageshadow="2"
     inkscape:zoom="2.0018437"
     inkscape:cx="145.03351"
     inkscape:cy="130.6666"
     inkscape:document-units="px"
     inkscape:current-layer="layer1"
     showgrid="false"
     inkscape:window-width="1215"
     inkscape:window-height="1000"
     inkscape:window-x="65"
     inkscape:window-y="24"
     inkscape:window-maximized="1"
     fit-margin-top="10"
     fit-margin-left="10"
     fit-margin-right="10"
     fit-margin-bottom="10" />
  <metadata
     id="metadata7">
    <rdf:RDF>
      <cc:Work
         rdf:about="">
        <dc:format>image/svg+xml</dc:format>
        <dc:type
           rdf:resource="http://purl.org/dc/dcmitype/StillImage" />
        <dc:title />
      </cc:Work>
    </rdf:RDF>
  </metadata>
  <g
     inkscape:label="Calque 1"
     inkscape:groupmode="layer"
     id="layer1"
     transform="translate(0,-752.36218)">
    <path
       style="fill:#000000"
       d="m 176.53876,1044.1825 c -1.30423,-2.1103 -4.48823,-3.0246 -7.07554,-2.0316 -8.03258,3.0825 -27.88386,-9.0147 -32.27283,-19.6666 -6.51137,-15.8028 -8.03684,-37.33288 -9.8332,-138.78098 -1.82789,-103.23001 -1.12179,-107.28912 20.57122,-118.25743 13.47522,-6.81327 50.77488,-10.07113 77.94849,-6.80825 19.56566,2.34935 23.76329,4.38425 33.01076,16.00279 9.5353,11.98014 10.80618,17.11411 12.70968,51.34315 4.39368,79.00753 1.74095,153.0245 -6.59672,184.06222 -6.56025,24.4212 -25.73487,36.2818 -60.21811,37.2485 -14.22981,0.399 -26.93952,-1.0013 -28.24375,-3.1118 z m 54.81965,-23.4243 c 8.49414,-4.1562 19.64234,-20.7068 19.64234,-29.16097 0,-2.20345 -7.69193,-12.12923 -17.09313,-22.05724 -9.40124,-9.92802 -17.10271,-20.0476 -17.11438,-22.488 -0.0114,-2.44036 -2.11949,-5.13644 -4.68398,-5.99129 -3.45133,-1.15043 -4.87057,-22.46925 -5.4628,-82.05727 -0.44007,-44.2767 -1.8657,-82.22728 -3.16814,-84.33463 -3.81803,-6.17772 -16.57167,-4.40175 -20.28001,2.82402 -1.87867,3.66058 -2.85586,10.93419 -2.17155,16.16359 3.45642,26.41373 3.63061,93.09377 0.31795,121.70229 -2.88039,24.875 -6.17236,35.99368 -14.28044,48.23225 -9.62863,14.53376 -12.86804,30.0899 -11.49607,55.20615 0.57843,10.5896 55.26413,12.0046 75.79029,1.9611 z m -73.99533,-72.28309 c 2.99696,-6.70933 6.44022,-29.19649 7.65169,-49.97146 1.31598,-22.5671 4.00073,-38.88384 6.66928,-40.5331 3.39797,-2.10004 3.31902,-5.53095 -0.33011,-14.34067 -2.63817,-6.36914 -5.05057,-23.189 -5.36091,-37.37751 -0.45642,-20.86917 -1.78663,-26.03319 -6.9632,-27.03244 -10.51375,-2.02946 -14.1153,11.05464 -14.53738,52.8129 -0.2202,21.77402 -0.54477,43.01199 -0.7215,47.1955 -0.43033,10.18633 -0.24873,53.50668 0.29969,71.5344 0.50301,16.53402 5.25024,15.71705 13.29255,-2.28762 z m 92.87703,4.15491 c 5.5605,-5.5605 6.48992,-140.25614 1.03827,-150.46803 -1.93906,-3.6322 -4.45252,-9.599 -5.58545,-13.25958 -1.23376,-3.98643 -5.82737,-6.65559 -11.45417,-6.65559 -8.19151,0 -9.65973,2.06955 -11.46728,16.16359 -7.54915,58.86298 -2.14051,129.96267 11.28572,148.35729 8.49619,11.64022 9.8974,12.14783 16.18291,5.86232 z M 56.00382,973.47778 c -5.79805,-0.87584 -12.92098,-5.32585 -15.82871,-9.88896 -11.101,-17.42058 -14.18277,-149.74208 -3.87595,-166.4189 5.06201,-8.19049 13.13217,7.95149 13.13217,26.26712 l 0,16.91722 19.68021,-2.33082 c 22.71003,-2.68966 25.82017,-6.07645 25.89992,-28.20345 0.0601,-16.71622 1.77005,-18.57116 11.46782,-12.44097 4.69504,2.96786 5.85171,16.43323 6.53488,76.07568 0.45653,39.85822 -0.68492,76.45414 -2.53654,81.32428 -3.61156,9.49913 -25.36303,21.79601 -36.90029,20.86103 -3.8674,-0.31338 -11.77546,-1.28643 -17.57351,-2.16223 z m 31.45947,-25.79191 c 0,-3.13764 1.71144,-5.7048 3.8032,-5.7048 2.30238,0 3.8032,-16.32529 3.8032,-41.36949 0,-48.04845 -2.24609,-52.12395 -26.4709,-48.03122 -8.42841,1.42399 -16.1467,3.91954 -17.15169,5.54567 -1.00503,1.62617 -2.03916,22.23664 -2.29804,45.8011 -0.52382,47.67192 0.27268,49.30821 24.05225,49.40531 10.16773,0.0414 14.26198,-1.57947 14.26198,-5.64657 z"
       id="path3015"
       inkscape:connector-curvature="0" />
  </g>
</svg>
