<?xml version="1.0" encoding="UTF-8" standalone="no"?>
<!-- Created with Inkscape (http://www.inkscape.org/) -->

<svg
   xmlns:dc="http://purl.org/dc/elements/1.1/"
   xmlns:cc="http://creativecommons.org/ns#"
   xmlns:rdf="http://www.w3.org/1999/02/22-rdf-syntax-ns#"
   xmlns:svg="http://www.w3.org/2000/svg"
   xmlns="http://www.w3.org/2000/svg"
   xmlns:sodipodi="http://sodipodi.sourceforge.net/DTD/sodipodi-0.dtd"
   xmlns:inkscape="http://www.inkscape.org/namespaces/inkscape"
   width="300"
   height="300"
   id="svg2"
   version="1.1"
   inkscape:version="0.48.4 r9939"
   sodipodi:docname="dessin.svg">
  <defs
     id="defs4" />
  <sodipodi:namedview
     id="base"
     pagecolor="#ffffff"
     bordercolor="#666666"
     borderopacity="1.0"
     inkscape:pageopacity="0.0"
     inkscape:pageshadow="2"
     inkscape:zoom="1.979899"
     inkscape:cx="227.07871"
     inkscape:cy="107.23575"
     inkscape:document-units="px"
     inkscape:current-layer="layer1"
     showgrid="false"
     inkscape:window-width="1215"
     inkscape:window-height="1000"
     inkscape:window-x="65"
     inkscape:window-y="24"
     inkscape:window-maximized="1" />
  <metadata
     id="metadata7">
    <rdf:RDF>
      <cc:Work
         rdf:about="">
        <dc:format>image/svg+xml</dc:format>
        <dc:type
           rdf:resource="http://purl.org/dc/dcmitype/StillImage" />
        <dc:title />
      </cc:Work>
    </rdf:RDF>
  </metadata>
  <g
     inkscape:label="Calque 1"
     inkscape:groupmode="layer"
     id="layer1"
     transform="translate(0,-752.36218)">
    <path
       style="fill:#000000"
       d="m 174.27355,1031.5528 c -1.60422,-0.7662 -2.91675,-2.8863 -2.91675,-4.7114 0,-1.825 -2.10007,-8.3484 -4.66681,-14.4963 -2.56675,-6.148 -4.6668,-12.81647 -4.6668,-14.81896 0,-2.00248 -1.17714,-5.00311 -2.61587,-6.66807 -1.4387,-1.66495 -3.15288,-13.92749 -3.8093,-27.25007 -1.16174,-23.57937 -1.03026,-24.38709 4.94926,-30.40378 5.42325,-5.45695 6.14271,-8.17965 6.14271,-23.24604 0,-15.26496 -0.4923,-17.06518 -4.6668,-17.06518 -2.56674,0 -4.66681,-1.71593 -4.66681,-3.81314 0,-4.57222 11.43513,-6.91473 32.42367,-6.64203 12.6525,0.16446 15.80457,1.21392 20.71591,6.89756 5.25606,6.08258 5.65101,8.09893 4.26315,21.76432 -1.66437,16.38812 -5.64718,22.07035 -15.56918,22.21234 -8.46124,0.12101 -26.9891,7.80672 -30.4485,12.6305 -4.38533,6.11492 1.36583,40.8712 9.98947,60.37005 9.05022,20.4633 7.22157,30.8182 -4.45735,25.2402 z m 18.88344,-106.55363 c 6.29554,-3.31949 10.86742,-12.7823 10.86742,-22.49318 0,-6.99581 -3.87938,-9.61299 -14.249,-9.61299 -9.80652,0 -12.41644,9.23757 -9.34584,33.07902 0.37726,2.92939 6.16583,2.48694 12.72742,-0.97285 z m -85.91497,26.46715 c -9.394417,-6.55056 -10.403731,-10.53854 -10.479869,-41.40737 -0.05997,-24.31094 0.598004,-30.3883 3.425899,-31.64412 5.72056,-2.54036 10.50031,1.10863 10.50031,8.01625 0,5.95409 0.91688,6.46192 11.667,6.46192 10.72898,0 11.66702,-0.5162 11.66702,-6.42019 0,-8.42943 6.09316,-14.61191 9.97427,-10.12049 3.18909,3.69058 5.25444,39.1708 3.066,52.67049 -3.31667,20.45947 -25.07711,32.72399 -39.82063,22.44351 z m 27.58036,-22.61196 c 1.16505,-4.72669 1.44164,-11.7138 0.61466,-15.52688 -1.36163,-6.27831 -2.59668,-6.93284 -13.08168,-6.93284 -10.41203,0 -11.72595,0.68167 -13.04607,6.76856 -0.80737,3.72272 -0.76944,11.07744 0.0843,16.34383 1.53962,9.49741 1.64071,9.56865 12.43138,8.75834 9.99596,-0.75065 11.0511,-1.51462 12.99742,-9.41101 z M 64.02033,889.34789 c 0,-4.01392 5.419161,-12.76852 15.167108,-24.50228 8.34191,-10.04129 15.192217,-19.07852 15.2229,-20.08277 0.03056,-1.00427 6.330872,-9.71273 14.000412,-19.35215 7.66954,-9.63944 13.94461,-18.26332 13.94461,-19.1642 0,-0.90089 1.83756,-4.21048 4.08346,-7.35467 2.24589,-3.14421 7.75856,-11.84161 12.25035,-19.32759 10.05972,-16.76539 15.48879,-17.03565 22.16732,-1.10336 2.56674,6.1232 6.76686,14.49555 9.3336,18.60518 9.24631,14.8044 27.03934,39.12135 28.66924,39.18095 0.91572,0.0335 7.44015,6.08184 14.49868,13.44074 7.05854,7.35891 13.76058,13.40724 14.8934,13.44075 2.44157,0.0722 10.77402,10.75754 10.77402,13.81634 0,3.98239 -4.76483,5.55103 -11.5911,3.816 -9.70807,-2.46756 -45.37987,-44.30766 -60.61134,-71.09213 -6.90857,-12.14866 -13.77549,-22.0885 -15.25981,-22.0885 -3.32865,0 -8.66683,7.18749 -22.11418,29.77516 -5.72379,9.61431 -13.85242,21.73359 -18.06364,26.93174 -4.2112,5.19813 -7.66585,10.24301 -7.67698,11.21086 -0.0418,3.62973 -34.53898,40.08566 -37.937999,40.09206 -0.962529,0.002 -1.750051,-2.80715 -1.750051,-6.24213 z m 55.0081,-41.46185 c -0.82108,-2.47612 -0.6709,-5.38907 0.33369,-6.47323 2.02894,-2.18962 51.46893,-5.02907 56.07812,-3.22068 4.40876,1.72972 3.49606,8.24647 -1.59664,11.40062 -2.48237,1.53744 -15.49542,2.79532 -28.91787,2.79532 -20.62819,0 -24.63547,-0.69663 -25.8973,-4.50203 z"
       id="path3015"
       inkscape:connector-curvature="0" />
  </g>
</svg>
