<?xml version="1.0" encoding="UTF-8" standalone="no"?>
<!-- Created with Inkscape (http://www.inkscape.org/) -->

<svg
   xmlns:dc="http://purl.org/dc/elements/1.1/"
   xmlns:cc="http://creativecommons.org/ns#"
   xmlns:rdf="http://www.w3.org/1999/02/22-rdf-syntax-ns#"
   xmlns:svg="http://www.w3.org/2000/svg"
   xmlns="http://www.w3.org/2000/svg"
   xmlns:sodipodi="http://sodipodi.sourceforge.net/DTD/sodipodi-0.dtd"
   xmlns:inkscape="http://www.inkscape.org/namespaces/inkscape"
   width="300"
   height="300"
   id="svg2"
   version="1.1"
   inkscape:version="0.48.4 r9939"
   sodipodi:docname="image-seal.svg">
  <defs
     id="defs4" />
  <sodipodi:namedview
     id="base"
     pagecolor="#ffffff"
     bordercolor="#666666"
     borderopacity="1.0"
     inkscape:pageopacity="0.0"
     inkscape:pageshadow="2"
     inkscape:zoom="2.0506101"
     inkscape:cx="180.10765"
     inkscape:cy="122.98837"
     inkscape:document-units="px"
     inkscape:current-layer="layer1"
     showgrid="false"
     inkscape:window-width="1215"
     inkscape:window-height="1000"
     inkscape:window-x="65"
     inkscape:window-y="24"
     inkscape:window-maximized="1"
     fit-margin-top="10"
     fit-margin-left="10"
     fit-margin-right="10"
     fit-margin-bottom="10" />
  <metadata
     id="metadata7">
    <rdf:RDF>
      <cc:Work
         rdf:about="">
        <dc:format>image/svg+xml</dc:format>
        <dc:type
           rdf:resource="http://purl.org/dc/dcmitype/StillImage" />
        <dc:title />
      </cc:Work>
    </rdf:RDF>
  </metadata>
  <g
     inkscape:label="Calque 1"
     inkscape:groupmode="layer"
     id="layer1"
     transform="translate(0,-752.36218)">
    <path
       style="fill:#000000"
       d="m 176.57788,1043.6095 c -4.03122,-4.8574 -7.19411,-24.1446 -6.84699,-41.7527 0.3804,-19.29607 7.7044,-32.88687 25.06564,-46.5131 23.54115,-18.47665 24.997,-23.4779 26.82554,-92.15219 0.62841,-23.60104 -0.17263,-40.44402 -2.20051,-46.27098 -4.42779,-12.72261 -15.94694,-16.95175 -46.17241,-16.95175 -22.26334,0 -24.67028,0.52775 -28.20762,6.18484 -4.47578,7.15785 -8.4434,54.33966 -7.76224,92.30705 0.51953,28.95884 4.85004,41.498 16.39918,47.48453 16.47694,8.54087 20.65932,15.32049 13.24656,21.47253 -4.86232,4.03537 -20.85992,-4.39095 -34.06968,-17.94533 l -9.05473,-9.29099 0.29684,-36.43334 c 0.34116,-41.87032 4.45918,-90.85417 8.52045,-101.35019 3.07622,-7.95037 9.29291,-11.60821 25.78508,-15.17178 10.77786,-2.32882 11.02245,-2.64757 12.36967,-16.11987 1.14535,-11.4534 2.29067,-13.74407 6.87204,-13.74407 4.76311,0 5.54106,1.94091 5.8227,14.52726 0.17867,7.99001 0.79727,14.95287 1.37441,15.473 0.57714,0.52013 7.85264,1.68387 16.16781,2.58608 8.31516,0.90222 15.2969,1.67043 15.51497,1.70713 0.21798,0.0368 4.50327,3.90301 9.52266,8.5918 l 9.12612,8.52509 0.0981,51.26162 c 0.11298,58.97823 -3.04813,78.47623 -14.45898,89.18364 -4.08832,3.83627 -14.06277,13.1661 -22.16543,20.73296 l -14.7321,13.75787 1.55874,21.51869 c 0.8573,11.8353 2.36497,26.1574 3.35037,31.8268 1.57369,9.0541 1.12723,10.3081 -3.67014,10.3081 -3.00399,0 -6.86327,-1.6889 -8.57616,-3.7527 z m -0.8004,-107.30431 c -10.54753,-3.76678 -18.74889,-10.31212 -18.74889,-14.96317 0,-1.49384 -1.54621,-3.26795 -3.43602,-3.94248 -2.38674,-0.85189 -1.54731,-3.28437 2.74881,-7.96546 3.40166,-3.70651 6.18484,-8.20557 6.18484,-9.99794 0,-1.79236 1.10288,-3.25885 2.45081,-3.25885 1.34797,0 3.19814,-2.97752 4.11151,-6.61667 0.91338,-3.63916 2.35406,-8.42358 3.20149,-10.63201 0.92193,-2.40243 -2.76913,-8.30188 -9.18879,-14.68666 -14.3992,-14.32089 -17.11535,-19.80947 -13.93838,-28.16554 2.9001,-7.62788 15.67937,-19.60627 20.9226,-19.61139 1.88981,-0.002 3.43601,2.47058 3.43601,5.49428 0,3.02369 -1.20846,5.49763 -2.68545,5.49763 -1.47699,0 -4.60226,2.92545 -6.94507,6.501 -3.23791,4.94168 -3.59908,8.2383 -1.5058,13.74407 1.51459,3.98369 4.07762,7.24307 5.6956,7.24307 1.618,0 5.97798,3.03618 9.68888,6.7471 9.58608,9.58605 8.97741,22.28033 -1.68871,35.22018 -6.29794,7.64049 -7.95427,11.80484 -6.53563,16.432 2.74037,8.93815 6.68008,13.06989 12.46249,13.06989 6.39102,0 9.53599,-6.11237 11.70651,-22.75196 1.90669,-14.61693 13.91447,-31.41697 16.89804,-23.64192 0.87563,2.28179 -0.0979,7.40586 -2.1631,11.38677 -2.10158,4.05082 -3.40034,13.04939 -2.94942,20.43537 0.71958,11.78654 -0.10501,14.00543 -7.71235,20.75658 -9.74153,8.64496 -8.68062,8.46632 -22.00998,3.70611 z M 67.004916,897.10562 c -1.88981,-0.76255 -3.43602,-3.03577 -3.43602,-5.05156 0,-2.01578 -1.19972,-4.07739 -2.66602,-4.58136 -2.57638,-0.88545 -6.69785,-24.12313 -5.76913,-32.52763 1.02404,-9.26721 2.15213,-32.87252 2.53289,-53.00096 0.31177,-16.48068 1.37812,-21.76313 4.64641,-23.01728 6.20929,-2.38276 7.29972,-0.11765 7.73519,16.06792 l 0.39269,14.59488 15.63823,0.8194 c 17.727324,0.92882 21.393694,-2.34139 20.104724,-17.93253 -0.86291,-10.43752 5.62468,-18.02941 9.8893,-11.57267 3.39995,5.14762 2.24921,92.57702 -1.33631,101.52938 -5.6517,14.11115 -9.70576,16.50691 -27.541884,16.27587 -9.21472,-0.1193 -18.30026,-0.84092 -20.19007,-1.60346 z m 33.415554,-15.61698 c 6.69075,-5.33501 7.41676,-7.12647 4.83967,-11.94181 -2.093,-3.9108 -2.23514,-10.56086 -0.45903,-21.4738 3.73405,-22.94284 1.05657,-26.58051 -18.711514,-25.42183 l -15.64867,0.91725 0,28.27986 c 0,22.96181 0.84216,28.89562 4.47829,31.55419 7.44668,5.44461 17.18988,4.71339 25.501254,-1.91386 z m 78.59863,-27.20438 c 0,-1.93292 2.47394,-5.05939 5.49763,-6.94772 8.01582,-5.00594 7.81428,-24.13021 -0.27658,-26.24603 -6.65923,-1.74143 -4.54948,-7.37766 2.76159,-7.37766 12.39039,0 20.64264,26.74371 11.17393,36.21239 -5.81473,5.81473 -19.15657,8.85063 -19.15657,4.35902 z"
       id="path3043"
       inkscape:connector-curvature="0" />
  </g>
</svg>
