<?xml version="1.0" encoding="UTF-8" standalone="no"?>
<svg
   xmlns:dc="http://purl.org/dc/elements/1.1/"
   xmlns:cc="http://creativecommons.org/ns#"
   xmlns:rdf="http://www.w3.org/1999/02/22-rdf-syntax-ns#"
   xmlns:svg="http://www.w3.org/2000/svg"
   xmlns="http://www.w3.org/2000/svg"
   viewBox="0 0 300 300"
   height="300"
   width="300"
   id="svg67"
   version="1.1">
  <metadata
     id="metadata73">
    <rdf:RDF>
      <cc:Work
         rdf:about="">
        <dc:format>image/svg+xml</dc:format>
        <dc:type
           rdf:resource="http://purl.org/dc/dcmitype/StillImage" />
        <dc:title></dc:title>
      </cc:Work>
    </rdf:RDF>
  </metadata>
  <defs
     id="defs71" />
  <path
     id="path77"
     d="m 178.44375,276.76333 -0.46531,-145.58629 c -23.06317,0.99964 -25.36634,32.04113 -26.46969,45.45314 -1.41824,27.6769 -1.5374,46.83255 -1.57249,74.38482 -0.006,4.72868 -1.20486,10.18546 -6.37709,10.05947 -3.18907,-0.0777 -4.80553,-3.60321 -4.82019,-8.28325 -0.14049,-44.82899 0.61523,-59.50718 1.35147,-74.15945 1.34274,-26.72257 7.35785,-57.00434 37.93967,-58.22888 l 0.0978,-25.536871 C 148.04494,94.660759 140.25213,77.812207 139.82475,58.69794 139.51849,45.000282 139.37456,32.597079 140.10918,29.14376 l -26.78057,6.107999 c -11.84772,2.702179 -11.71357,-7.785267 -3.08451,-10.196577 23.60047,-6.59493 40.23408,-12.109404 60.55411,-9.308626 15.99513,4.353499 18.9514,10.29533 19.00588,23.535666 l 0.18498,44.955066 c 25.17694,-0.801496 28.31176,-18.608403 28.34748,-35.49552 0,-17.952602 0.52602,-21.437509 5.56832,-21.231993 5.71499,0.232933 5.61127,19.578265 5.60696,25.256711 -0.0118,26.015369 -10.81786,41.323103 -39.52346,42.096423 l 0.009,25.546061 c 29.34541,0.49663 35.87938,25.9005 37.68605,47.19189 2.5775,30.37543 1.99862,53.95536 1.86558,86.47488 -0.0151,3.68431 -2.5713,7.71889 -6.15994,7.7477 -3.70306,0.0298 -4.96843,-4.61237 -4.93094,-8.98187 0.25847,-30.1198 1.29903,-53.67791 -1.80188,-84.63875 -1.8625,-18.59597 -5.56688,-36.19507 -26.56578,-37.09749 l -0.3032,145.68905 c -0.0229,11.01466 -11.29812,10.87701 -11.34297,-0.031 z M 178.15812,84.295864 177.99041,35.164149 c -0.025,-7.308661 -9.35893,-8.698103 -14.2515,-8.927198 -6.05581,-0.266163 -16.92661,1.464121 -16.92661,1.464121 4.32385,-1.103193 4.51412,16.99478 4.45846,23.719628 -0.18305,21.374685 3.72495,32.685468 26.88736,32.875164 z M 70.361561,129.59388 70.301891,75.628111 c 0.02623,-5.492083 1.58951,-14.697161 7.417284,-11.720419 3.670703,1.874941 3.637641,4.426596 3.715408,12.781674 l 0.184217,19.791833 30.29187,0.0722 0.27086,-12.42696 c 0.31604,-14.499275 0.35008,-15.904683 2.68341,-18.477439 3.24455,-3.577488 6.74779,-1.693153 7.97167,1.062477 1.35282,3.045955 1.04549,3.33868 1.10997,33.094102 0.0315,14.519771 0.68209,41.441781 -4.42595,42.217771 -5.34576,4.77498 -14.88125,7.45503 -24.256761,7.21193 -15.627313,-0.4052 -24.887879,-6.59129 -24.902308,-19.64144 z m 41.356319,5.11812 0.14662,-26.80607 H 81.535891 l -0.124155,21.26951 c -0.04552,7.79907 6.697422,9.19359 14.300994,9.23348 5.44234,0.0285 10.6174,-1.32738 16.00515,-3.69692 z"
     style="fill:#000000;stroke-width:0.69307035" />
</svg>
