<?xml version="1.0" encoding="UTF-8" standalone="no"?>
<svg
   xmlns:dc="http://purl.org/dc/elements/1.1/"
   xmlns:cc="http://creativecommons.org/ns#"
   xmlns:rdf="http://www.w3.org/1999/02/22-rdf-syntax-ns#"
   xmlns:svg="http://www.w3.org/2000/svg"
   xmlns="http://www.w3.org/2000/svg"
   viewBox="0 0 300 300"
   height="300"
   width="300"
   id="svg50"
   version="1.1">
  <metadata
     id="metadata56">
    <rdf:RDF>
      <cc:Work
         rdf:about="">
        <dc:format>image/svg+xml</dc:format>
        <dc:type
           rdf:resource="http://purl.org/dc/dcmitype/StillImage" />
        <dc:title></dc:title>
      </cc:Work>
    </rdf:RDF>
  </metadata>
  <defs
     id="defs54" />
  <path
     id="path60"
     d="m 187.17445,283.70542 c -4.4604,-4.46039 -4.96721,-20.09012 -3.14489,-96.98358 1.26694,-53.45836 2.4357,-74.00501 5.8876,-103.50358 1.84412,-15.759231 1.99187,-23.766888 1.99187,-23.766888 -8.03383,-1.027957 -17.36178,-0.501286 -19.28116,-5.412161 -4.28072,-10.952535 14.83844,-7.659185 17.00171,-7.435955 21.35125,2.245986 54.70092,2.553306 57.79447,27.820013 0.45126,3.685714 -0.0659,6.972302 -3.03085,21.549655 -3.72547,18.316786 -9.10842,47.846016 -10.79484,59.217216 -1.90999,12.87872 -2.01913,27.22098 -0.34864,45.81153 1.29889,14.45496 2.04791,19.26236 5.21755,33.4874 3.84452,17.25385 4.69495,20.1276 8.84567,29.89094 3.04285,7.15744 3.32839,11.39545 0.92021,13.65783 -1.97637,1.85669 -4.1888,1.91472 -5.94751,0.156 -2.12181,-2.1218 -7.5077,-14.02507 -10.77011,-23.8028 -9.06069,-27.15577 -12.73693,-72.20265 -8.79846,-107.81208 1.05643,-9.55163 8.62203,-50.347306 11.19997,-60.393099 2.3673,-9.224986 1.61731,-14.143604 -2.57037,-18.577406 -6.24988,-6.617219 -15.3081,-6.216878 -26.19973,-7.568139 -3.98045,21.633051 -5.60064,45.909094 -6.63434,65.182894 -2.17319,40.52045 -3.28948,77.51652 -3.38,121.68912 -0.069,33.6245 -0.13211,35.29901 -1.38454,36.68366 -1.65221,1.82663 -4.80396,1.87909 -6.57361,0.10943 z m -40.58604,-27.93659 c 0.37373,-8.33564 0.56147,-33.75586 0.41721,-56.4894 -0.23474,-36.99389 -0.38985,-41.76375 -1.47731,-45.42957 -3.11154,-10.48904 -7.50451,-15.54048 -22.81688,-26.23702 -12.47695,-9.10393 -15.38404,-15.5932 -19.78067,-26.27028 0,0 -11.397407,1.07727 -23.109346,2.814 -22.560464,3.34543 -24.736036,3.3762 -26.34351,0.37262 -0.816431,-1.52552 -0.8644,-4.806706 -0.0882,-6.030296 1.247251,-1.96603 10.731894,-4.40424 23.450385,-6.0284 8.790427,-1.080928 17.530032,-2.454843 26.252761,-3.969194 0.14002,-8.802883 -0.1244,-17.586819 -0.86541,-26.352851 L 84.2322,64.422215 c -9.897377,1.25058 -21.04376,2.344782 -24.769732,2.431568 -6.42907,0.149749 -6.843568,0.07274 -8.12902,-1.511138 -0.908187,-1.119001 -1.2864,-2.469047 -1.147795,-4.097139 0.17987,-2.112817 0.619567,-2.640059 3.385315,-4.059308 1.820347,-0.934115 5.941575,-2.053478 9.64453,-2.619537 C 101.21207,48.75822 117.80809,46.34581 128.58197,45.0649 l 12.74456,-1.515196 0.79857,-8.008757 c 1.17995,-11.833597 3.28398,-20.540948 4.96348,-20.540948 2.08087,0 5.12225,1.827792 6.14232,3.691385 1.73299,3.166011 2.15925,45.437924 0.55211,54.750854 -1.29256,7.490021 -3.29769,12.860425 -5.78942,15.506004 -3.81173,4.047082 -12.03506,6.864772 -25.61167,8.775722 -2.47519,0.42738 -4.41378,0.79616 -7.19622,1.668 0.50348,6.456276 4.07839,11.395656 8.10478,14.691676 2.72088,2.21491 8.15279,6.10154 12.07092,8.63698 8.10706,5.2461 13.62021,10.17647 16.56265,14.8119 4.19831,6.61389 5.12688,10.52938 6.25889,46.93566 0.93492,30.06762 0.89573,63.52935 -0.3978,88.71873 -0.72844,6.46438 -0.0706,9.91208 -4.57905,10.83835 -7.48846,1.53849 -6.61768,-26.08829 -6.61768,-28.25643 z M 141.10458,77.024985 c 1.22781,-5.71628 1.187,-19.679184 -0.12245,-20.951283 -0.9063,-0.880456 -2.55188,-0.716434 -13.38467,1.334037 -6.79323,1.28586 -12.52827,2.422738 -12.74455,2.526406 -0.53503,0.256441 0.43024,19.253532 1.23804,26.726256 8.30464,-1.553129 23.79325,-3.953706 25.01363,-9.635416 z M 83.402227,220.58892 c -9.395872,-2.87879 -11.759119,-14.36984 -12.94897,-22.93838 -1.064792,-5.67842 -0.771768,-11.3446 -0.771768,-26.96025 0,-23.53328 0.672479,-27.54263 3.174367,-30.49171 2.722003,-3.20855 6.371983,0.13918 7.775939,2.46815 1.451856,2.40844 0.777003,3.47634 1.115587,18.03457 l 0.221746,9.5345 38.095192,0.85285 c 0.20518,-0.20517 0.654,-6.45629 0.99738,-13.14986 0.6858,-13.36811 1.44394,-16.18708 4.82343,-17.93468 3.27204,-1.69205 4.48747,-1.29449 5.88461,1.9248 1.16512,2.68469 1.25374,4.81555 1.06713,25.66134 -0.21757,24.30446 -0.71491,31.06075 -2.96653,40.30037 -4.12124,12.84648 -13.64002,14.78773 -25.36095,14.93723 -8.20906,0.1047 -14.335008,-0.16401 -21.107163,-2.23893 z m 33.760373,-14.2567 c 1.57818,-2.76894 2.46379,-15.45243 2.46379,-23.24182 l -37.347244,-0.0867 c -0.0055,9.02745 -0.323158,21.82459 4.594006,25.55534 3.430462,2.60275 9.713819,2.73345 17.253088,2.53673 4.89201,-0.3634 10.40545,-0.14761 13.03636,-4.76357 z"
     style="fill:#000000;stroke-width:0.68889511" />
</svg>
