<?xml version="1.0" encoding="UTF-8" standalone="no"?>
<!-- Created with Inkscape (http://www.inkscape.org/) -->

<svg
   xmlns:dc="http://purl.org/dc/elements/1.1/"
   xmlns:cc="http://creativecommons.org/ns#"
   xmlns:rdf="http://www.w3.org/1999/02/22-rdf-syntax-ns#"
   xmlns:svg="http://www.w3.org/2000/svg"
   xmlns="http://www.w3.org/2000/svg"
   xmlns:sodipodi="http://sodipodi.sourceforge.net/DTD/sodipodi-0.dtd"
   xmlns:inkscape="http://www.inkscape.org/namespaces/inkscape"
   width="300"
   height="300"
   id="svg2"
   version="1.1"
   inkscape:version="0.48.3.1 r9886"
   sodipodi:docname="dessin.svg">
  <defs
     id="defs4" />
  <sodipodi:namedview
     id="base"
     pagecolor="#ffffff"
     bordercolor="#666666"
     borderopacity="1.0"
     inkscape:pageopacity="0.0"
     inkscape:pageshadow="2"
     inkscape:zoom="1.979899"
     inkscape:cx="221.36919"
     inkscape:cy="102.93582"
     inkscape:document-units="px"
     inkscape:current-layer="layer1"
     showgrid="false"
     inkscape:window-width="1215"
     inkscape:window-height="1000"
     inkscape:window-x="65"
     inkscape:window-y="24"
     inkscape:window-maximized="1" />
  <metadata
     id="metadata7">
    <rdf:RDF>
      <cc:Work
         rdf:about="">
        <dc:format>image/svg+xml</dc:format>
        <dc:type
           rdf:resource="http://purl.org/dc/dcmitype/StillImage" />
        <dc:title></dc:title>
      </cc:Work>
    </rdf:RDF>
  </metadata>
  <g
     inkscape:label="Calque 1"
     inkscape:groupmode="layer"
     id="layer1"
     transform="translate(0,-752.36218)">
    <path
       style="fill:#000000"
       d="m 146.98737,1038.7543 c -0.72611,-1.0752 -1.53484,-16.583 -1.79712,-34.4618 -0.26239,-17.87889 -1.04898,-33.01621 -1.74818,-33.63855 -0.69923,-0.62236 -8.70892,-1.42476 -17.79937,-1.78313 -12.99033,-0.51211 -18.04914,-2.00544 -23.63457,-6.97687 -7.274264,-6.47456 -8.296005,-11.93481 -6.782111,-36.24432 1.708389,-27.43266 14.665791,-20.78909 14.665791,7.51949 0,16.45249 0.0765,16.60573 10.15559,20.35412 5.58561,2.07722 13.46267,3.77679 17.50464,3.77679 l 7.349,0 -1.27161,-30.29708 c -0.69937,-16.66338 0.91097,-31.97729 0.33764,-32.4876 -2.24505,-1.99827 -49.66401,-1.77955 -57.021006,-0.005 -4.291773,1.03508 -14.06282,1.39283 -21.713454,0.79502 -11.283471,-0.88169 -13.910254,-2.02181 -13.910254,-6.03755 0,-4.65687 2.780357,-4.95061 46.85557,-4.95061 l 45.592884,0.50508 -0.75762,-10.76538 c -0.57528,-8.1746 0.66908,-10.30321 -5.43867,-12.78014 -4.10243,-1.66373 -9.18125,-3.02495 -11.28627,-3.02495 -7.74889,0 -19.74707,-12.79597 -18.78372,-20.03269 1.23725,-9.29415 7.3661,-10.5999 11.53431,-2.45737 4.2076,8.21947 16.20624,12.07562 37.41341,12.02401 18.65753,-0.0453 20.98217,-1.04408 25.97887,-11.16051 4.69375,-9.50308 4.65466,-9.65188 -2.536,-9.65188 -3.37537,0 -9.96442,-2.42574 -14.64236,-5.39056 -8.4001,-5.32384 -8.50538,-5.70753 -8.50538,-30.99957 0,-21.518 0.78129,-25.87588 4.89071,-27.27944 5.61356,-1.91732 9.64173,2.49178 9.70683,10.62473 0.0383,4.77907 2.08875,5.76898 13.95508,6.73703 12.08709,0.98602 24.9664,-1.21775 21.53382,-3.68468 -2.1335,-1.53333 2.98007,-12.5644 5.82438,-12.5644 5.01818,0 8.51559,12.98639 8.51559,31.61948 0,22.34067 -3.11774,28.33087 -14.74539,28.33087 -8.0641,0 -8.68904,0.69606 -8.77553,9.77452 -0.10428,10.9413 -5.44091,18.89739 -12.67571,18.89739 -2.6411,0 -4.802,1.17295 -4.802,2.60654 0,1.4336 -5.00234,2.60653 -11.11638,2.60653 l -11.1164,0 1.59886,12.13466 0.2099,12.76601 30.08234,-0.72755 c 15.77682,-0.38156 29.50855,-0.82168 30.50491,-1.7085 0.99635,-0.88683 6.86316,-1.61241 13.03738,-1.61241 9.14302,0 11.22581,0.93462 11.22581,5.03742 0,6.01123 -8.28779,8.85995 -18.88736,6.49208 -4.21935,-0.94255 -21.50253,-0.87467 -38.40702,0.15087 l -27.57874,1.99091 -0.31648,31.54767 c -0.22527,22.45486 -0.0208,29.90488 0.26508,32.13017 2.86618,-0.32023 3.44839,0.16453 5.17444,0.38259 11.00857,1.39074 25.9166,-4.3954 29.53455,-11.46304 1.84798,-3.60998 3.35996,-12.89037 3.35996,-20.62308 0,-14.39005 3.71874,-19.91945 9.77269,-14.53095 2.16207,1.9244 3.13517,10.72556 2.66518,24.10519 -0.63399,18.04955 -1.67248,21.79376 -7.23591,26.08845 -5.98072,2.56664 -22.22648,7.28 -26.92599,7.314 -7.99824,0 -13.68766,1.52068 -16.67775,1.93719 0.31347,3.68262 -0.95535,12.18267 -0.95535,32.01351 0,16.9325 -2.4414,32.6417 -3.41905,34.9094 -1.88292,4.3674 -5.78195,5.4264 -7.98246,2.1681 z m 59.3853,-225.94683 c 1.91778,-2.05673 3.0675,-7.61473 2.55492,-12.35107 -0.84756,-7.83194 -1.99092,-8.76346 -12.62953,-10.28966 -16.75553,-2.4037 -24.21824,0.90665 -26.50529,11.75738 -1.05161,4.98938 -1.04474,10.32062 0.0147,11.84722 2.94798,4.24558 32.43188,3.46838 36.5646,-0.96387 z m -121.921694,10.4414 c -4.559426,-4.62326 -5.793135,-50.32063 -1.462601,-54.17509 2.308053,-2.0543 4.194359,-0.89228 6.793385,4.18487 3.362621,6.5688 4.665641,6.97862 19.90741,6.26123 15.36708,-0.72331 16.36277,-1.18175 17.23588,-7.93563 0.63938,-4.94574 2.60997,-7.16797 6.35639,-7.16797 7.4749,0 9.92257,11.73669 7.41492,35.55515 -1.87187,17.77966 -2.68395,19.58406 -10.415,23.14244 -10.61096,4.88393 -41.058615,4.97362 -45.830384,0.13507 z M 127.46265,805.0348 c 0,-6.33168 -1.45416,-11.94362 -3.23145,-12.47091 -1.77729,-0.52733 -9.35471,-0.33182 -16.83872,0.4344 -12.290623,1.25836 -13.698576,2.10199 -14.550999,8.71876 -1.405547,10.91052 3.969486,14.82998 20.337379,14.82998 l 14.28379,0 z"
       id="path3073"
       inkscape:connector-curvature="0"
       sodipodi:nodetypes="csssssssscsssssscssssssssssssssssssssscccsssssscscssssscccsscccsssccccsssssssccscssscs" />
  </g>
</svg>
