<?xml version="1.0" encoding="UTF-8" standalone="no"?>
<!-- Created with Inkscape (http://www.inkscape.org/) -->

<svg
   xmlns:dc="http://purl.org/dc/elements/1.1/"
   xmlns:cc="http://creativecommons.org/ns#"
   xmlns:rdf="http://www.w3.org/1999/02/22-rdf-syntax-ns#"
   xmlns:svg="http://www.w3.org/2000/svg"
   xmlns="http://www.w3.org/2000/svg"
   xmlns:sodipodi="http://sodipodi.sourceforge.net/DTD/sodipodi-0.dtd"
   xmlns:inkscape="http://www.inkscape.org/namespaces/inkscape"
   width="300"
   height="300"
   id="svg2"
   version="1.1"
   inkscape:version="0.48.4 r9939"
   sodipodi:docname="image-seal.svg">
  <defs
     id="defs4" />
  <sodipodi:namedview
     id="base"
     pagecolor="#ffffff"
     bordercolor="#666666"
     borderopacity="1.0"
     inkscape:pageopacity="0.0"
     inkscape:pageshadow="2"
     inkscape:zoom="2.0018437"
     inkscape:cx="145.03351"
     inkscape:cy="130.6666"
     inkscape:document-units="px"
     inkscape:current-layer="layer1"
     showgrid="false"
     inkscape:window-width="1215"
     inkscape:window-height="1000"
     inkscape:window-x="65"
     inkscape:window-y="24"
     inkscape:window-maximized="1"
     fit-margin-top="10"
     fit-margin-left="10"
     fit-margin-right="10"
     fit-margin-bottom="10" />
  <metadata
     id="metadata7">
    <rdf:RDF>
      <cc:Work
         rdf:about="">
        <dc:format>image/svg+xml</dc:format>
        <dc:type
           rdf:resource="http://purl.org/dc/dcmitype/StillImage" />
        <dc:title />
      </cc:Work>
    </rdf:RDF>
  </metadata>
  <g
     inkscape:label="Calque 1"
     inkscape:groupmode="layer"
     id="layer1"
     transform="translate(0,-752.36218)">
    <path
       style="fill:#000000"
       d="m 210.73506,1031.2201 c -16.41687,-17.9242 -30.81076,-43.60445 -33.35361,-59.5065 -1.94157,-12.14199 -6.09997,-13.58459 -8.68706,-3.0137 -0.99547,4.06759 -2.67126,8.0007 -3.72394,8.74026 -1.05268,0.73956 -4.42338,6.18541 -7.49048,12.1019 -3.06708,5.91648 -8.78052,14.38784 -12.69656,18.82524 -3.91601,4.4373 -9.09121,11.3959 -11.50043,15.4635 -2.40924,4.0676 -5.14451,7.3956 -6.0784,7.3956 -0.93389,0 -4.45974,2.3953 -7.83523,5.3229 -3.37546,2.9273 -7.19121,4.6713 -8.47942,3.8753 -4.99972,-3.0903 -1.8542,-10.9914 8.47956,-21.3001 16.5765,-16.5363 36.70747,-47.31452 42.8257,-65.47618 3.03456,-9.00798 5.51739,-23.07234 5.51739,-31.25419 0,-14.17654 -0.32444,-14.87603 -6.90007,-14.87603 -7.30013,0 -16.25269,-3.94339 -21.99961,-9.69033 -1.90424,-1.90422 -3.6051,-9.80399 -3.77974,-17.55504 -0.27665,-12.27998 0.64476,-14.92051 7.163,-20.52729 7.09077,-6.09922 10.11985,-6.40706 20.56717,-2.09018 5.26513,2.17557 7.69692,-3.61927 8.34566,-19.88731 0.43599,-10.93374 -5.39669,-21.3652 -7.99064,-14.29078 -0.82107,2.23925 -7.34322,3.36164 -19.53437,3.36164 l -18.30177,0 -1.54526,8.74025 c -0.8499,4.80714 -0.99079,14.06649 -0.31314,20.57634 1.61052,15.47101 -3.49255,32.36926 -12.05833,39.92986 -8.72135,7.6979 -25.597552,8.06456 -35.089442,0.76233 -6.55877,-5.04571 -6.70515,-5.91616 -5.98242,-35.57354 1.5986,-65.59795 1.58854,-65.53494 9.93154,-62.33342 3.74021,1.43526 4.4309,3.95834 3.33012,12.1652 -1.12024,8.35203 -0.52818,10.39416 3.06159,10.56011 2.4477,0.11322 6.69845,0.6303 9.44612,1.14917 8.231412,1.55445 12.482622,-1.51416 12.521482,-9.03826 0.064,-12.38701 3.04158,-19.53789 7.70659,-18.50793 2.39723,0.52923 4.07003,2.36116 3.71735,4.07088 -0.35267,1.70976 0.51337,6.1454 1.9245,9.857 2.45849,6.46631 3.46714,6.73669 24.13169,6.46919 24.62997,-0.31885 29.84564,-3.36011 24.79033,-14.45526 -2.71456,-5.95784 -4.64315,-6.64364 -18.68269,-6.64364 -14.3092,0 -22.11,-3.03629 -22.11,-8.6058 0,-1.18329 8.49728,-2.15144 18.88283,-2.15144 20.4948,0 21.31022,-0.63167 25.40074,-19.67618 1.1364,-5.29073 3.01679,-7.29744 6.23708,-6.65604 3.51818,0.70075 4.41356,3.18213 3.78007,10.47567 -0.49274,5.67299 0.64914,10.7851 2.80949,12.57801 2.00176,1.66135 12.64912,3.38119 23.66074,3.82191 16.55004,0.66235 20.17682,1.61722 20.91917,5.50757 0.79512,4.16698 -1.58416,4.7063 -20.76238,4.7063 -20.89148,0 -21.72067,0.23988 -23.35663,6.75821 -2.57604,10.26364 2.72123,14.55728 16.92751,13.72042 16.02958,-0.94427 25.00585,7.08747 25.00585,22.37463 0,15.50646 -6.32365,21.27806 -26.22438,23.93502 -9.24649,1.2345 -17.546,2.97876 -18.44337,3.87613 -0.89737,0.89737 -1.80339,8.05489 -2.01338,15.90563 l -0.3818,14.27402 16.13586,-0.84821 c 14.27015,-0.75015 17.14645,-0.005 24.87612,6.44351 7.65092,6.38294 8.70685,8.83522 8.47219,19.67593 -0.39614,18.30006 -3.02349,24.95255 -11.91389,30.16599 -8.54749,5.01237 -25.46838,6.72059 -25.46838,2.57112 0,-3.16556 14.51816,-13.62967 18.91015,-13.62967 3.51474,0 2.46295,-25.24159 -1.20462,-28.90919 -1.04381,-1.0438 -8.78259,-1.92482 -17.19728,-1.95785 l -15.29946,-0.06 -0.86816,13.44655 c -1.49179,23.10591 8.35458,58.12535 18.52566,65.8881 0.96901,0.73956 3.64708,4.97522 5.95126,9.41258 3.90681,7.52379 17.63402,22.92109 26.71498,29.96539 4.58727,3.5584 3.31146,19.7868 -1.55555,19.7868 -1.68458,0 -9.71599,-7.2638 -17.8476,-16.1421 z M 167.71258,880.64765 c 0,-16.04467 -0.032,-16.10972 -7.51724,-15.29026 -10.61681,1.16226 -13.07349,3.2532 -14.97134,12.74249 -2.46069,12.30348 2.02634,18.66098 13.1706,18.66098 l 9.31798,0 0,-16.11321 z m -59.65871,6.65626 c 0.46794,-0.41841 1.25728,-7.23562 1.7541,-15.1494 0.49685,-7.91375 1.22533,-15.59883 1.61888,-17.07795 0.39353,-1.47912 -0.22617,-7.21725 -1.37679,-12.75142 -2.23955,-10.77001 -0.77124,-10.36196 -21.672132,-6.02252 -6.56543,1.36313 -6.72327,1.95976 -6.72327,25.41481 0,20.0249 0.78259,24.4805 4.70629,26.79462 3.91042,2.30627 18.682582,1.48359 21.692922,-1.20814 z m 101.16794,-36.19475 c 5.1649,-1.96368 6.89835,-4.53768 6.89835,-10.24324 0,-12.70916 -5.23867,-17.2015 -18.92269,-16.22681 -11.81744,0.84173 -12.01764,1.01648 -12.85589,11.22276 -0.46835,5.70225 -0.20385,12.05575 0.58791,14.11888 1.66699,4.34409 14.29193,4.93055 24.29232,1.12841 z"
       id="path3028"
       inkscape:connector-curvature="0" />
  </g>
</svg>
