<?xml version="1.0" encoding="UTF-8" standalone="no"?>
<!-- Created with Inkscape (http://www.inkscape.org/) -->

<svg
   xmlns:dc="http://purl.org/dc/elements/1.1/"
   xmlns:cc="http://creativecommons.org/ns#"
   xmlns:rdf="http://www.w3.org/1999/02/22-rdf-syntax-ns#"
   xmlns:svg="http://www.w3.org/2000/svg"
   xmlns="http://www.w3.org/2000/svg"
   xmlns:sodipodi="http://sodipodi.sourceforge.net/DTD/sodipodi-0.dtd"
   xmlns:inkscape="http://www.inkscape.org/namespaces/inkscape"
   width="300"
   height="300"
   id="svg2"
   version="1.1"
   inkscape:version="0.48.4 r9939"
   sodipodi:docname="image-seal.svg">
  <defs
     id="defs4" />
  <sodipodi:namedview
     id="base"
     pagecolor="#ffffff"
     bordercolor="#666666"
     borderopacity="1.0"
     inkscape:pageopacity="0.0"
     inkscape:pageshadow="2"
     inkscape:zoom="2.0018437"
     inkscape:cx="145.03351"
     inkscape:cy="130.6666"
     inkscape:document-units="px"
     inkscape:current-layer="layer1"
     showgrid="false"
     inkscape:window-width="1215"
     inkscape:window-height="1000"
     inkscape:window-x="65"
     inkscape:window-y="24"
     inkscape:window-maximized="1"
     fit-margin-top="10"
     fit-margin-left="10"
     fit-margin-right="10"
     fit-margin-bottom="10" />
  <metadata
     id="metadata7">
    <rdf:RDF>
      <cc:Work
         rdf:about="">
        <dc:format>image/svg+xml</dc:format>
        <dc:type
           rdf:resource="http://purl.org/dc/dcmitype/StillImage" />
        <dc:title />
      </cc:Work>
    </rdf:RDF>
  </metadata>
  <g
     inkscape:label="Calque 1"
     inkscape:groupmode="layer"
     id="layer1"
     transform="translate(0,-752.36218)">
    <path
       style="fill:#000000"
       d="m 205.04389,1039.5436 c -1.72491,-4.3003 -4.17697,-10.3775 -5.44902,-13.5049 -5.17578,-12.7251 -11.96835,-82.59549 -12.16162,-125.09815 -0.20585,-45.23461 3.35029,-96.43125 6.78048,-97.62025 1.51311,-0.5245 2.00552,-2.16007 1.09421,-3.63461 -3.17687,-5.14022 2.16229,-39.86637 6.37817,-41.48414 4.64927,-1.7841 12.66231,7.65025 10.0659,11.85133 -0.95259,1.54135 -2.83102,9.87162 -4.17429,18.51174 -1.34324,8.64012 -3.2482,20.18724 -4.23323,25.66027 -3.40278,18.90655 -2.35489,157.93568 1.24526,165.21592 1.84779,3.73659 3.96396,11.27176 4.70261,16.74491 1.73877,12.88338 2.96249,17.72588 5.50869,21.79838 1.14098,1.825 2.87816,9.1816 3.86044,16.348 1.6452,12.0032 1.30261,13.0301 -4.34776,13.0301 -4.03554,0 -7.20644,-2.6745 -9.26984,-7.8186 z m -104.78108,-7.1883 c 0,-1.9988 4.61341,-13.1936 10.25206,-24.8775 12.05069,-24.97018 23.44498,-62.81465 21.54787,-71.56813 -0.2374,-1.09538 0.92345,-8.77184 2.57967,-17.05882 4.07472,-20.38821 5.44295,-47.98707 5.43354,-109.60145 -0.009,-47.62764 0.40267,-51.88723 4.99377,-51.88723 7.18372,0 12.49448,10.14303 10.86004,20.7417 -4.60812,29.88219 -4.55641,48.39456 0.14984,53.5948 2.62375,2.89923 6.92565,5.27131 9.55973,5.27131 5.96763,0 11.91476,12.44381 9.92908,20.77565 -0.81714,3.42879 -2.00956,21.58708 -2.64977,40.35178 -3.46815,101.64907 -5.06141,122.16709 -9.97131,128.41209 -9.88663,12.5743 -13.49972,-3.0498 -7.341,-31.74535 0.6712,-3.12756 1.49091,-14.37251 1.82154,-24.98892 0.3306,-10.61638 1.7394,-20.00601 3.13063,-20.86583 1.42831,-0.88274 1.27344,-3.07684 -0.35573,-5.03989 -1.78597,-2.15197 -2.20235,-13.15886 -1.09282,-28.88902 3.47943,-49.32926 2.84007,-65.00688 -2.69509,-66.08543 -4.30863,-0.83955 -4.97549,1.3976 -4.97549,16.69131 0,40.17394 -7.51879,97.95187 -14.49277,111.36949 -1.41134,2.7153 -2.56605,6.74346 -2.56605,8.9515 0,2.208 -3.65226,10.95758 -8.11613,19.44354 -12.17368,23.1425 -26.0015,37.5038 -26.0015,27.0044 z m 122.87025,-68.15498 c -6.10752,-7.42325 -7.57824,-25.59837 -7.64963,-94.53427 -0.0765,-73.96791 1.5965,-85.78072 11.60554,-81.9399 3.34654,1.28422 4.02633,3.96285 2.67889,10.55591 -5.44379,26.63618 -6.30267,62.01045 -2.42349,99.81535 2.24636,21.89215 5.27785,42.0255 6.73664,44.74081 3.68609,6.86109 3.31276,17.43207 -0.75943,21.50426 -4.3295,4.3295 -6.53478,4.29871 -10.18852,-0.14216 z M 98.87754,962.12674 c -0.94645,-1.53143 -0.31681,-5.40782 1.3992,-8.61419 12.93865,-24.17613 21.46161,-88.7817 17.77355,-134.72701 -1.70091,-21.18992 0.53192,-32.99201 6.24174,-32.99201 6.78719,0 7.62128,9.1841 5.97718,65.81482 -1.68459,58.02471 -3.23029,66.50931 -18.18089,99.79786 -5.9338,13.212 -9.75466,16.31264 -13.21078,10.72053 z M 69.462,906.77318 c -12.66543,-7.15973 -14.95788,-16.5373 -14.38158,-58.82989 0.43694,-32.0644 1.31351,-39.41846 4.86083,-40.7797 5.50064,-2.11077 8.93578,3.26921 9.04706,14.16914 0.12908,12.63194 3.53618,16.18558 14.51381,15.13737 9.12129,-0.87094 9.70038,-1.5749 10.51628,-12.78359 0.97579,-13.40533 7.77299,-21.8093 12.10382,-14.96508 3.04082,4.80553 4.06307,29.86621 2.97242,72.86941 -0.53789,21.20863 -22.25357,35.00666 -39.63264,25.18234 z m 26.5361,-37.91839 0,-19.0907 -12.58955,0 c -11.32643,0 -12.799,0.78312 -14.67695,7.80504 -1.14806,4.29276 -1.04039,8.45213 0.23939,9.24303 1.2797,0.79088 1.73162,3.71365 1.00426,6.49501 -2.18984,8.37406 3.81463,19.99387 10.94328,21.17735 11.2713,1.87118 15.07966,-4.60156 15.07966,-25.62973 z"
       id="path3028"
       inkscape:connector-curvature="0" />
  </g>
</svg>
