<?xml version="1.0" encoding="UTF-8" standalone="no"?>
<!-- Created with Inkscape (http://www.inkscape.org/) -->

<svg
   xmlns:dc="http://purl.org/dc/elements/1.1/"
   xmlns:cc="http://creativecommons.org/ns#"
   xmlns:rdf="http://www.w3.org/1999/02/22-rdf-syntax-ns#"
   xmlns:svg="http://www.w3.org/2000/svg"
   xmlns="http://www.w3.org/2000/svg"
   xmlns:sodipodi="http://sodipodi.sourceforge.net/DTD/sodipodi-0.dtd"
   xmlns:inkscape="http://www.inkscape.org/namespaces/inkscape"
   width="300"
   height="300"
   id="svg2"
   version="1.1"
   inkscape:version="0.48.3.1 r9886"
   sodipodi:docname="dessin.svg">
  <defs
     id="defs4" />
  <sodipodi:namedview
     id="base"
     pagecolor="#ffffff"
     bordercolor="#666666"
     borderopacity="1.0"
     inkscape:pageopacity="0.0"
     inkscape:pageshadow="2"
     inkscape:zoom="1.979899"
     inkscape:cx="169.11123"
     inkscape:cy="92.250369"
     inkscape:document-units="px"
     inkscape:current-layer="layer1"
     showgrid="false"
     inkscape:window-width="1215"
     inkscape:window-height="1000"
     inkscape:window-x="65"
     inkscape:window-y="24"
     inkscape:window-maximized="1" />
  <metadata
     id="metadata7">
    <rdf:RDF>
      <cc:Work
         rdf:about="">
        <dc:format>image/svg+xml</dc:format>
        <dc:type
           rdf:resource="http://purl.org/dc/dcmitype/StillImage" />
        <dc:title></dc:title>
      </cc:Work>
    </rdf:RDF>
  </metadata>
  <g
     inkscape:label="Calque 1"
     inkscape:groupmode="layer"
     id="layer1"
     transform="translate(0,-752.36218)">
    <path
       style="fill:#000000"
       d="m 59.030053,1032.416 c -4.626766,-5.0004 0.40297,-48.78545 5.982167,-52.07624 1.388161,-0.81876 1.427393,-3.99462 0.08943,-7.23857 -1.311078,-3.17888 -1.457315,-11.90336 -0.324928,-19.38774 1.132386,-7.48438 2.153322,-46.95446 2.268766,-87.7113 0.115303,-40.75687 0.990227,-75.92732 1.943978,-78.15659 0.95378,-2.22924 3.243893,-4.0532 5.089188,-4.0532 6.784731,0 10.104498,6.38104 10.104498,19.42227 0,13.36642 0.0015,13.3686 9.139862,13.53664 33.353436,0.61333 70.143046,-0.16951 72.624896,-1.54513 1.61443,-0.89495 2.72053,-4.07262 2.45797,-7.06156 -0.26267,-2.98893 -0.33727,-11.96106 -0.16621,-19.93807 0.26999,-12.57916 1.0356,-14.50363 5.76985,-14.50363 6.86741,0 9.49963,3.75354 9.20263,13.12289 -0.21486,6.77947 0.46352,7.29066 8.72342,6.57302 7.78387,-0.67624 9.06978,-1.82677 9.82207,-8.788 1.91371,-17.70793 17.4141,-16.19125 17.4141,1.70394 0,11.63185 -4.62773,15.36884 -21.09353,17.03346 -11.80198,1.19313 -12.65366,1.77805 -12.65366,8.69043 l 0,7.41118 23.81913,-0.66886 c 13.10052,-0.36789 24.67052,0.0948 25.71114,1.02812 3.55003,3.18407 -5.40369,9.60326 -12.71203,9.11361 -4.00919,-0.26858 -13.93343,-0.31719 -22.05385,-0.10796 l -14.76439,0.38038 0,17.6566 c 0,20.97123 2.93264,22.31366 16.53104,7.56712 9.71851,-10.53905 18.20269,-12.95029 21.16926,-6.01642 1.11836,2.61394 -1.84124,7.63111 -8.26141,14.00492 -18.78794,18.65231 -19.33672,30.10896 -1.99745,41.70056 5.78826,3.8696 11.15691,7.69238 11.93028,8.49513 0.77337,0.80274 3.62079,2.19242 6.32759,3.08816 6.11542,2.02372 6.47441,11.50028 0.51336,13.55195 -4.51054,1.55245 -13.71049,-1.78561 -26.96093,-9.78232 -4.10563,-2.47776 -8.17096,-4.50505 -9.03407,-4.50505 -0.86308,0 -0.8322,7.66171 0.0687,17.02601 2.5779,26.79786 14.91336,59.7643 29.64029,79.21355 5.57507,7.3628 6.23505,11.7121 2.56546,16.9064 -4.81881,6.8212 -14.11821,0.3995 -22.54057,-15.5656 -22.05273,-41.80169 -22.83304,-44.6533 -25.66634,-93.7968 -1.19975,-20.80957 -3.58345,-43.51092 -5.29713,-50.44745 -1.71368,-6.93652 -3.80426,-16.5846 -4.64578,-21.44016 -2.80892,-16.20758 -0.52196,-15.44619 -43.33883,-14.42834 -21.66381,0.51499 -39.889962,1.41812 -40.502557,2.007 -0.612567,0.58887 -1.90486,23.77201 -2.871689,51.5181 -3.529196,101.27749 -7.653579,139.73025 -15.686618,146.25085 -4.29866,3.4892 -5.285343,3.5149 -8.337158,0.2169 z M 119.3365,950.92804 c -6.18699,-0.50096 -14.36466,-3.02689 -18.17264,-5.61318 -6.436908,-4.37182 -6.955518,-6.39038 -7.37837,-28.71894 -0.626264,-33.07096 0.524825,-37.41993 9.65029,-36.45946 6.01076,0.63263 7.30491,2.09475 7.37677,8.33435 0.0838,7.27182 0.57949,7.56711 12.70382,7.56711 10.45817,0 12.76232,-0.86308 13.46777,-5.04474 2.31472,-13.72057 3.79428,-16.39542 9.06888,-16.39542 7.85581,0 9.39926,8.3997 7.31489,39.80808 -2.27984,34.35402 -6.38594,38.76066 -34.03141,36.5222 z m 18.93974,-19.39292 c 1.13635,-1.48851 2.08551,-6.96286 2.10919,-12.16526 0.0422,-9.28144 -0.15777,-9.45889 -10.6685,-9.45889 -15.04994,0 -20.88146,4.50017 -19.74165,15.23454 0.78721,7.41368 2.17669,8.91843 9.36122,10.1376 9.39659,1.59451 15.8335,0.32072 18.93974,-3.74799 z M 91.769461,862.90465 c -6.061641,-5.4368 -0.682171,-8.02995 19.833299,-9.5605 46.91256,-3.49994 52.61791,-2.81469 46.70605,5.60976 -2.48289,3.53812 -8.42653,4.41778 -33.79515,5.00171 -16.93035,0.38971 -31.665245,-0.0832 -32.744199,-1.05097 z"
       id="path3034"
       inkscape:connector-curvature="0" />
  </g>
</svg>
