<?xml version="1.0" encoding="UTF-8" standalone="no"?>
<!-- Created with Inkscape (http://www.inkscape.org/) -->

<svg
   xmlns:dc="http://purl.org/dc/elements/1.1/"
   xmlns:cc="http://creativecommons.org/ns#"
   xmlns:rdf="http://www.w3.org/1999/02/22-rdf-syntax-ns#"
   xmlns:svg="http://www.w3.org/2000/svg"
   xmlns="http://www.w3.org/2000/svg"
   xmlns:sodipodi="http://sodipodi.sourceforge.net/DTD/sodipodi-0.dtd"
   xmlns:inkscape="http://www.inkscape.org/namespaces/inkscape"
   width="300"
   height="300"
   id="svg2"
   version="1.1"
   inkscape:version="0.48.4 r9939"
   sodipodi:docname="dessin.svg">
  <defs
     id="defs4" />
  <sodipodi:namedview
     id="base"
     pagecolor="#ffffff"
     bordercolor="#666666"
     borderopacity="1.0"
     inkscape:pageopacity="0.0"
     inkscape:pageshadow="2"
     inkscape:zoom="1.979899"
     inkscape:cx="156.32962"
     inkscape:cy="101.52144"
     inkscape:document-units="px"
     inkscape:current-layer="layer1"
     showgrid="false"
     inkscape:window-width="1215"
     inkscape:window-height="1000"
     inkscape:window-x="65"
     inkscape:window-y="24"
     inkscape:window-maximized="1" />
  <metadata
     id="metadata7">
    <rdf:RDF>
      <cc:Work
         rdf:about="">
        <dc:format>image/svg+xml</dc:format>
        <dc:type
           rdf:resource="http://purl.org/dc/dcmitype/StillImage" />
        <dc:title />
      </cc:Work>
    </rdf:RDF>
  </metadata>
  <g
     inkscape:label="Calque 1"
     inkscape:groupmode="layer"
     id="layer1"
     transform="translate(0,-752.36218)">
    <path
       style="fill:#000000"
       d="m 105.92417,1032.4284 c -4.30502,-1.991 -4.60283,-9.3422 -0.49267,-12.1621 1.66024,-1.1391 32.4823,-2.6155 68.49346,-3.2809 54.91055,-1.0147 66.02385,-0.4755 68.87735,3.3413 8.02461,10.7337 2.58656,11.7843 -66.07103,12.7646 -37.0127,0.5285 -68.8759,0.2302 -70.80711,-0.6629 z m 42.30955,-54.87945 c -5.11935,-4.03738 -9.56111,-10.80159 -10.49433,-15.98149 -3.0825,-17.10946 -1.76637,-120.22766 1.62755,-127.52027 1.78509,-3.83568 4.12743,-9.07882 5.20517,-11.65145 1.40368,-3.35065 8.25216,-5.14433 24.14246,-6.32317 34.05562,-2.52651 47.65731,-0.40787 55.86295,8.70128 6.58095,7.30558 7.0772,10.03372 7.44426,40.92423 0.21629,18.20329 0.4803,38.91455 0.58675,46.02503 0.30638,20.46995 -3.26734,22.94827 -32.92561,22.83355 -33.44368,-0.12946 -34.84938,-1.39467 -37.17053,-33.45817 -2.57443,-35.56232 -0.2908,-46.53864 10.21544,-49.10029 12.71485,-3.10012 23.99108,0.85143 27.61325,9.67663 3.75206,9.14156 4.1915,38.34502 0.66989,44.51649 -5.35079,9.37702 -9.48988,1.58333 -9.801,-18.45475 l -0.31248,-20.12496 -8.4271,0 c -7.98065,0 -8.47517,0.74345 -9.33401,14.03252 -1.51053,23.37238 1.66045,38.73767 8.70897,42.19999 6.98098,3.42918 27.86858,-1.03341 33.35752,-7.12674 3.24446,-3.6017 4.32642,-63.90713 1.38457,-77.17078 -0.76083,-3.43017 -1.48002,-7.28912 -1.59822,-8.57543 -0.28063,-3.05232 -40.76659,-3.05232 -43.53644,0 -1.16726,1.28631 -5.48616,2.33875 -9.59752,2.33875 -6.79542,0 -7.76992,1.55973 -10.71565,17.15085 -5.78866,30.63799 -3.5784,107.28908 3.31436,114.94079 0.79133,0.87843 18.06726,2.00147 38.39097,2.49556 37.87322,0.92079 45.34593,3.19677 38.88237,11.84242 -2.89311,3.86985 -10.53459,4.80966 -39.10656,4.80966 -32.29323,0 -36.31504,-0.63427 -44.38703,-7.00025 z m -82.024481,-54.2559 c -4.636848,-5.81298 -8.862901,-58.56568 -5.522368,-68.93436 1.243251,-3.85894 1.343702,-7.01622 0.223318,-7.01616 -1.120496,5e-5 -1.997196,-8.56508 -1.948263,-19.03361 0.07051,-15.06018 1.208729,-19.94266 5.452704,-23.38764 8.615733,-6.99365 9.908001,-5.33234 9.908001,12.73757 0,15.8726 0.528914,17.23877 7.417062,19.15795 4.079394,1.1366 10.71574,0.77953 14.747436,-0.79348 6.272691,-2.44738 7.593331,-5.24109 9.152711,-19.36195 2.05503,-18.60916 3.15286,-20.75173 9.29265,-18.13623 3.26952,1.39278 4.41348,7.04295 4.6553,22.99316 0.84179,55.52715 -0.32977,90.04213 -3.32918,98.08064 -3.21196,8.6082 -3.80616,8.81738 -24.720299,8.7016 -15.827341,-0.0876 -22.448688,-1.39664 -25.32896,-5.00749 z m 30.743179,-10.46557 c 6.186932,0 11.312162,-19.40185 10.502262,-39.75706 -0.82746,-20.79593 -0.83715,-20.81795 -10.091384,-22.90848 -11.04229,-2.49448 -22.832628,2.76209 -23.401906,10.43342 -0.508689,6.85491 -0.516835,20.49501 -0.02247,36.74092 0.301747,9.90492 1.724607,13.17302 6.70337,15.39668 3.476181,1.55258 8.003785,2.209 10.061375,1.45869 2.057563,-0.7503 4.869238,-1.36417 6.248195,-1.36417 z M 126.48032,782.19981 c -0.90574,-1.62686 0.47364,-5.31189 3.06531,-8.1889 4.11462,-4.56767 10.79639,-5.11014 52.69523,-4.27792 26.39072,0.52415 49.56321,1.51183 51.49442,2.19483 1.93122,0.68302 3.5113,3.60349 3.5113,6.49001 0,4.71299 -5.5642,5.32428 -54.55973,5.99407 -32.15225,0.43956 -55.23606,-0.46894 -56.20653,-2.21209 z"
       id="path3002"
       inkscape:connector-curvature="0" />
  </g>
</svg>
