<?xml version="1.0" encoding="UTF-8" standalone="no"?>
<svg
   xmlns:dc="http://purl.org/dc/elements/1.1/"
   xmlns:cc="http://creativecommons.org/ns#"
   xmlns:rdf="http://www.w3.org/1999/02/22-rdf-syntax-ns#"
   xmlns:svg="http://www.w3.org/2000/svg"
   xmlns="http://www.w3.org/2000/svg"
   viewBox="0 0 300 300"
   height="300"
   width="300"
   id="svg548"
   version="1.1">
  <metadata
     id="metadata554">
    <rdf:RDF>
      <cc:Work
         rdf:about="">
        <dc:format>image/svg+xml</dc:format>
        <dc:type
           rdf:resource="http://purl.org/dc/dcmitype/StillImage" />
        <dc:title></dc:title>
      </cc:Work>
    </rdf:RDF>
  </metadata>
  <defs
     id="defs552" />
  <path
     id="path558"
     d="m 208.42275,267.57438 c -4.89924,-26.867 -5.9574,-54.0437 -6.26409,-77.20823 -0.64142,-44.04337 -0.15896,-50.31225 -6.08479,-56.91642 -6.72439,-7.49413 -12.41208,-8.03881 -49.52772,-8.06528 -24.00047,-0.0171 -35.10877,-0.45683 -42.43442,6.70621 -7.065725,6.90889 -6.148644,17.99746 -6.415613,48.5442 -0.305964,35.00856 -1.502518,56.37963 -5.777008,84.95186 -2.206487,14.74895 -3.941476,20.33808 -10.230606,19.29047 -4.327815,-0.7209 -3.7768,-5.63809 -1.685216,-20.27042 5.035372,-35.22649 5.931866,-65.77647 5.983398,-87.75638 0.0499,-21.28485 -1.579144,-39.69924 9.17309,-51.37788 11.343785,-12.32115 29.530065,-11.68805 48.733555,-12.02429 l 0.45901,-32.107686 c 0.23096,-16.156296 6.80849,-23.919243 23.13034,-24.970992 l 23.66514,-1.524934 C 190.9506,28.152043 179.4083,26.443323 148.89479,26.47269 c -32.99138,0.03175 -41.0904,1.747561 -42.18956,57.695588 -0.25862,13.163864 -0.09,25.393532 -6.12476,25.533482 -5.827623,0.13514 -5.288265,-13.704555 -5.059625,-28.84805 0.797478,-52.819261 10.041895,-66.200892 53.527345,-65.846921 51.48316,0.419071 54.99496,10.993259 54.13215,74.024982 -0.11923,13.874689 -1.08367,20.531219 -6.3392,20.468709 -4.23071,-0.0503 -4.52241,-6.48177 -4.7543,-18.722064 l -0.44453,-23.464937 -24.47245,1.409877 c -9.88497,0.569481 -11.20949,4.503802 -11.4315,12.466703 l -0.90012,32.285711 c 19.86884,0.23776 38.43223,0.26979 50.39607,13.30087 9.49981,10.34725 7.731,19.67278 8.63674,71.2138 0.45903,26.12109 1.84021,42.78032 5.55894,65.66595 1.32788,8.17197 4.88198,19.80129 -1.72514,21.21877 -6.46213,1.38638 -7.88042,-9.61412 -9.2821,-17.30078 z M 120.25286,145.43331 c 0.0387,-4.40752 1.41268,-9.70485 5.39123,-9.72217 4.59283,-0.02 5.73982,6.74691 5.7133,9.6663 l -0.28897,16.19795 36.15674,0.0265 0.42556,-14.08528 c 0.1864,-6.16963 1.19393,-11.99725 5.70825,-11.9066 4.57063,0.0918 5.35228,5.32067 5.33183,12.25857 l -0.0973,33.00949 c -0.0617,20.94049 -2.45911,40.14946 -29.86029,40.32473 -28.81268,0.1843 -28.95206,-20.52613 -28.76627,-42.28459 z m 47.44495,28.29804 H 130.9172 c -0.1216,21.4035 -2.329,37.14351 17.96559,36.85874 19.85755,-0.27864 18.52749,-15.04233 18.81502,-36.85874 z"
     style="fill:#000000;stroke-width:0.69242263" />
</svg>
