<?xml version="1.0" encoding="UTF-8" standalone="no"?>
<!-- Created with Inkscape (http://www.inkscape.org/) -->

<svg
   xmlns:dc="http://purl.org/dc/elements/1.1/"
   xmlns:cc="http://creativecommons.org/ns#"
   xmlns:rdf="http://www.w3.org/1999/02/22-rdf-syntax-ns#"
   xmlns:svg="http://www.w3.org/2000/svg"
   xmlns="http://www.w3.org/2000/svg"
   xmlns:sodipodi="http://sodipodi.sourceforge.net/DTD/sodipodi-0.dtd"
   xmlns:inkscape="http://www.inkscape.org/namespaces/inkscape"
   width="300"
   height="300"
   id="svg2"
   version="1.1"
   inkscape:version="0.48.4 r9939"
   sodipodi:docname="image-seal.svg">
  <defs
     id="defs4" />
  <sodipodi:namedview
     id="base"
     pagecolor="#ffffff"
     bordercolor="#666666"
     borderopacity="1.0"
     inkscape:pageopacity="0.0"
     inkscape:pageshadow="2"
     inkscape:zoom="2.0018437"
     inkscape:cx="232.32812"
     inkscape:cy="141.91078"
     inkscape:document-units="px"
     inkscape:current-layer="layer1"
     showgrid="false"
     inkscape:window-width="1215"
     inkscape:window-height="1000"
     inkscape:window-x="65"
     inkscape:window-y="24"
     inkscape:window-maximized="1"
     fit-margin-top="10"
     fit-margin-left="10"
     fit-margin-right="10"
     fit-margin-bottom="10" />
  <metadata
     id="metadata7">
    <rdf:RDF>
      <cc:Work
         rdf:about="">
        <dc:format>image/svg+xml</dc:format>
        <dc:type
           rdf:resource="http://purl.org/dc/dcmitype/StillImage" />
        <dc:title />
      </cc:Work>
    </rdf:RDF>
  </metadata>
  <g
     inkscape:label="Calque 1"
     inkscape:groupmode="layer"
     id="layer1"
     transform="translate(0,-752.36218)">
    <path
       style="fill:#000000"
       d="m 161.75545,1042.5631 c -6.10875,-6.9143 -8.45432,-25.6456 -4.87562,-38.9358 2.20107,-8.1741 7.88991,-16.17848 19.90876,-28.01216 9.25489,-9.11232 19.67675,-18.43507 23.15969,-20.71715 3.61089,-2.36595 6.33255,-6.89074 6.33255,-10.52791 0,-3.50827 1.02049,-7.00936 2.26774,-7.78022 6.00276,-3.70989 1.03917,-71.03684 -5.70392,-77.36901 -5.24466,-4.92504 -36.77272,-9.52524 -44.67948,-6.51912 -9.72099,3.69594 -8.43959,6.37854 7.08227,14.82658 21.11068,11.48987 36.18857,29.53983 31.2929,37.4612 -3.25162,5.26122 -8.62547,2.05658 -18.31473,-10.92182 -12.18083,-16.31571 -31.71375,-27.28275 -35.90597,-20.1599 -0.66579,1.13123 -2.07073,6.06748 -3.1221,10.96945 -1.52283,7.10025 -1.03074,8.91268 2.41986,8.91268 2.38229,0 4.33145,1.08436 4.33145,2.40966 0,1.3253 3.70219,3.94316 8.22709,5.81743 4.5249,1.87427 8.22709,4.40895 8.22709,5.63262 0,1.22367 2.51562,3.02329 5.59028,3.99916 3.07465,0.97584 8.83194,6.67274 12.79394,12.65976 6.54473,9.88973 6.81,11.27915 2.89997,15.18918 -4.71048,4.71047 -10.31474,2.88324 -10.31474,-3.36304 0,-2.17343 -1.23406,-3.95169 -2.74236,-3.95169 -1.5083,0 -2.74237,-1.58701 -2.74237,-3.52668 0,-4.01106 -21.23268,-21.15459 -26.20047,-21.15459 -5.10719,0 -6.60948,18.95579 -2.90905,36.70592 2.43744,11.69174 5.47118,17.95039 11.01078,22.71535 8.16371,7.02212 7.9941,14.62488 -0.32615,14.61918 -8.68218,-0.005 -18.8954,-11.71301 -22.35793,-25.62812 -3.97747,-15.98449 -3.82952,-65.18366 0.23639,-78.57832 7.74353,-25.51077 13.56312,-32.90835 25.88859,-32.90835 16.46265,0 20.07014,-6.83172 20.63548,-39.07867 0.27095,-15.46007 0.22981,-32.02166 -0.0916,-36.80352 -0.6704,-9.97619 3.88699,-14.26163 9.32644,-8.76994 4.21504,4.25552 4.66153,14.4256 2.28521,52.05282 l -1.66483,26.36145 8.94696,3.11895 c 4.92081,1.7154 10.77883,3.11891 13.01778,3.11891 2.23897,0 7.04672,3.39368 10.68391,7.5415 6.47582,7.38494 6.58787,8.36695 5.39867,47.30576 -1.2778,41.8397 -3.08296,53.8043 -9.01228,59.73359 -1.98629,1.98632 -4.56425,5.15973 -5.72877,7.05204 -1.16449,1.89229 -6.74843,5.5931 -12.40875,8.22399 -12.06843,5.60937 -23.36995,16.24792 -26.77525,25.20453 -2.71889,7.1512 -0.98668,24.2617 3.37025,33.291 2.99543,6.2078 1.37919,14.5824 -2.81432,14.5824 -1.32187,0 -4.3114,-2.1596 -6.6434,-4.7991 z M 66.97065,888.22929 c -6.56237,-6.11377 -7.88641,-10.45548 -10.0124,-32.83245 -2.08765,-21.9734 -2.08902,-20.99059 0.0699,-50.18499 1.86464,-25.21597 2.34283,-26.82412 7.74655,-26.05244 4.85003,0.69261 5.97569,3.2036 7.13041,15.90545 l 1.37118,15.083 16.99912,0.81281 16.99911,0.81278 0.82624,-15.89578 c 0.71691,-13.79213 1.5521,-15.8958 6.31097,-15.8958 5.23219,0 5.4502,1.57839 4.73516,34.27953 -1.16169,53.12642 -2.63738,62.36396 -11.43296,71.56769 -6.39404,6.69076 -9.77491,7.96083 -21.1912,7.96083 -9.85457,0 -15.22187,-1.52645 -19.55203,-5.56063 z m 28.5074,-9.76912 c 6.311,-1.69429 12.07773,-20.4006 12.07773,-39.17825 0,-13.88899 -3.8892,-16.79343 -22.48738,-16.79343 l -15.9057,0 0,26.14081 c 0,24.5459 0.37647,26.29215 6.17031,28.62099 7.3918,2.97113 12.45247,3.27507 20.14504,1.20988 z m 30.00455,-42.09568 c -0.87638,-1.41799 1.87663,-6.66276 6.11775,-11.65504 10.93108,-12.86709 14.3485,-22.24443 14.3485,-39.37188 0,-13.12572 0.67057,-14.95397 5.48473,-14.95397 4.85436,0 5.48472,1.82825 5.48472,15.90743 0,15.15271 -4.49903,30.64544 -8.91267,30.69135 -1.13123,0.011 -2.05678,1.70421 -2.05678,3.76098 0,4.00621 -12.99753,18.19931 -16.66629,18.19931 -1.21361,0 -2.92358,-1.16019 -3.79996,-2.57818 z m 86.76098,-3.76888 c -3.27951,-3.49089 -5.96275,-8.35431 -5.96275,-10.8076 0,-2.45332 -1.23406,-5.22324 -2.74236,-6.15543 -4.17119,-2.57793 -3.27307,-26.85486 1.40798,-38.05818 7.97584,-19.08887 16.38184,-9.25945 9.16026,10.71143 -4.06881,11.25216 -1.49782,20.8795 8.66793,32.45761 4.50309,5.12877 8.18746,11.32171 8.18746,13.76211 0,6.69507 -11.762,5.49493 -18.71852,-1.90994 z"
       id="path3080"
       inkscape:connector-curvature="0" />
  </g>
</svg>
