<?xml version="1.0" encoding="UTF-8" standalone="no"?>
<!-- Created with Inkscape (http://www.inkscape.org/) -->

<svg
   xmlns:dc="http://purl.org/dc/elements/1.1/"
   xmlns:cc="http://creativecommons.org/ns#"
   xmlns:rdf="http://www.w3.org/1999/02/22-rdf-syntax-ns#"
   xmlns:svg="http://www.w3.org/2000/svg"
   xmlns="http://www.w3.org/2000/svg"
   xmlns:sodipodi="http://sodipodi.sourceforge.net/DTD/sodipodi-0.dtd"
   xmlns:inkscape="http://www.inkscape.org/namespaces/inkscape"
   width="300"
   height="300"
   id="svg2"
   version="1.1"
   inkscape:version="0.91 r13725"
   sodipodi:docname="image-seal.svg">
  <defs
     id="defs4" />
  <sodipodi:namedview
     id="base"
     pagecolor="#ffffff"
     bordercolor="#666666"
     borderopacity="1.0"
     inkscape:pageopacity="0.0"
     inkscape:pageshadow="2"
     inkscape:zoom="2.7366667"
     inkscape:cx="150"
     inkscape:cy="150"
     inkscape:document-units="px"
     inkscape:current-layer="layer1"
     showgrid="false"
     inkscape:window-width="1231"
     inkscape:window-height="1000"
     inkscape:window-x="49"
     inkscape:window-y="24"
     inkscape:window-maximized="1"
     showguides="true"
     inkscape:guide-bbox="true" />
  <metadata
     id="metadata7">
    <rdf:RDF>
      <cc:Work
         rdf:about="">
        <dc:format>image/svg+xml</dc:format>
        <dc:type
           rdf:resource="http://purl.org/dc/dcmitype/StillImage" />
        <dc:title />
      </cc:Work>
    </rdf:RDF>
  </metadata>
  <g
     inkscape:label="Calque 1"
     inkscape:groupmode="layer"
     id="layer1"
     transform="translate(0,-752.36218)">
    <path
       style="fill:#000000"
       d="m 127.87738,1044.8525 c -3.3417,-5.407 -1.8263,-86.96995 1.80908,-97.36977 3.97221,-11.36337 14.73454,-22.92151 30.81157,-33.0899 17.3709,-10.98672 18.09007,-28.92477 1.15964,-28.92477 -13.83491,0 -17.46718,-7.52195 -20.98126,-43.44951 -3.09115,-31.60329 -2.77899,-49.6482 1.10756,-64.02794 3.91223,-14.47477 5.71438,-15.20282 49.25987,-19.90096 14.1193,-1.52333 16.57396,-0.99354 22.6757,4.89403 5.68397,5.48449 7.32029,10.85701 9.66493,31.73332 3.94343,35.11145 4.08924,47.12524 0.78867,64.97975 -3.37114,18.2361 -9.17426,25.77131 -19.84737,25.77131 -12.99296,0 -16.54964,2.68565 -16.54964,12.49662 0,8.5729 0.68155,9.19819 11.62568,10.6661 6.39415,0.85764 14.87589,3.97827 18.8483,6.93475 6.01093,4.47363 7.3617,7.97431 8.05169,20.86671 0.81315,15.19404 0.55863,15.77784 -13.26362,30.4226 -10.6967,11.33325 -14.09269,17.02052 -14.09269,23.60111 0,9.53328 10.07621,21.99175 24.84041,30.71315 4.76722,2.8161 8.66767,6.1057 8.66767,7.3104 0,1.2047 2.44185,2.1903 5.42636,2.1903 2.98448,0 7.18097,2.5051 9.32555,5.5669 2.14457,3.0618 4.90095,4.6325 6.1253,3.4905 1.22433,-1.1421 1.64316,-0.1916 0.93066,2.112 -2.12131,6.859 -17.82057,6.5939 -30.85966,-0.521 -12.97941,-7.0824 -32.92599,-25.3758 -37.90261,-34.7614 -5.69788,-10.74583 -3.16143,-24.82998 6.33937,-35.20068 17.74099,-19.36532 21.06865,-25.0362 21.06865,-35.90427 0,-13.37771 -6.55256,-17.51845 -24.71715,-15.61943 -28.65098,2.99534 -31.8336,4.77691 -40.90285,22.89627 -8.07692,16.13685 -8.39078,18.18679 -8.76088,57.22533 -0.2111,22.26898 -0.52527,42.05968 -0.69809,43.97938 -0.36406,4.0441 -7.60605,4.713 -9.95084,0.9191 z m 78.9009,-174.08655 c 1.61258,-1.94305 3.33713,-9.16823 3.83235,-16.05596 l 0.90039,-12.5232 -27.9234,0 -27.92341,0 -0.8363,8.55612 c -0.61295,6.27101 1.16672,10.55915 6.66356,16.05596 6.53597,6.536 9.73951,7.49983 24.92736,7.49983 10.64691,0 18.56828,-1.3745 20.35945,-3.53275 z m 4.55548,-43.65023 c 0.85169,-1.37808 0.75393,-6.47851 -0.21724,-11.33436 l -1.76574,-8.82879 -26.64722,1.51057 c -17.01747,0.96467 -27.45945,2.79022 -28.8948,5.05156 -2.74803,4.32956 -2.99277,11.7237 -0.47149,14.24499 2.82119,2.82118 56.22137,2.22823 57.99649,-0.64397 z m -3.31317,-30.6745 c 3.19243,-0.50005 2.49549,-16.51541 -0.95944,-22.04762 -2.57912,-4.12985 -6.3764,-4.72796 -24.43298,-3.84854 -11.7586,0.57268 -22.94997,2.31568 -24.8697,3.87339 -1.91973,1.55768 -3.49043,7.52692 -3.49043,13.26496 l 0,10.43279 25.82915,-0.67345 c 14.20603,-0.37043 26.77156,-0.82112 27.9234,-1.00153 z M 85.855709,877.09104 c -0.94918,-1.53578 -4.22884,-2.79234 -7.28812,-2.79234 -10.06882,0 -13.66376,-15.33081 -13.56564,-57.85137 0.0679,-29.4524 1.05344,-39.75982 4.19898,-43.91896 5.40187,-7.14255 9.06037,-3.18455 10.1854,11.01927 l 0.8847,11.16936 13.9617,0 13.961701,0 0.8847,-11.16936 c 1.00152,-12.64472 3.18505,-16.09044 8.22321,-12.9767 2.49303,1.54079 3.67135,14.90861 4.16517,47.25299 l 0.68862,45.10439 -9.24745,8.47752 c -9.26133,8.49028 -23.473471,11.47696 -27.052971,5.6852 z m 22.960941,-15.21772 c 0.34223,-0.24964 0.9705,-12.3205 1.39617,-26.8242 l 0.77395,-26.37041 -13.653181,-0.867 c -7.50924,-0.47685 -14.88786,0.3677 -16.3969,1.87673 -3.96956,3.96957 -5.37805,19.10053 -3.36608,36.16103 1.38464,11.74124 3.01204,15.31761 7.80945,17.16209 4.80958,1.84912 20.377351,1.09306 23.436591,-1.13824 z"
       id="path3392"
       inkscape:connector-curvature="0" />
  </g>
</svg>
