<?xml version="1.0" encoding="UTF-8" standalone="no"?>
<!-- Created with Inkscape (http://www.inkscape.org/) -->

<svg
   xmlns:dc="http://purl.org/dc/elements/1.1/"
   xmlns:cc="http://creativecommons.org/ns#"
   xmlns:rdf="http://www.w3.org/1999/02/22-rdf-syntax-ns#"
   xmlns:svg="http://www.w3.org/2000/svg"
   xmlns="http://www.w3.org/2000/svg"
   xmlns:sodipodi="http://sodipodi.sourceforge.net/DTD/sodipodi-0.dtd"
   xmlns:inkscape="http://www.inkscape.org/namespaces/inkscape"
   width="300"
   height="300"
   id="svg2"
   version="1.1"
   inkscape:version="0.48.4 r9939"
   sodipodi:docname="dessin.svg">
  <defs
     id="defs4" />
  <sodipodi:namedview
     id="base"
     pagecolor="#ffffff"
     bordercolor="#666666"
     borderopacity="1.0"
     inkscape:pageopacity="0.0"
     inkscape:pageshadow="2"
     inkscape:zoom="1.979899"
     inkscape:cx="156.32962"
     inkscape:cy="101.52144"
     inkscape:document-units="px"
     inkscape:current-layer="layer1"
     showgrid="false"
     inkscape:window-width="1215"
     inkscape:window-height="1000"
     inkscape:window-x="65"
     inkscape:window-y="24"
     inkscape:window-maximized="1" />
  <metadata
     id="metadata7">
    <rdf:RDF>
      <cc:Work
         rdf:about="">
        <dc:format>image/svg+xml</dc:format>
        <dc:type
           rdf:resource="http://purl.org/dc/dcmitype/StillImage" />
        <dc:title />
      </cc:Work>
    </rdf:RDF>
  </metadata>
  <g
     inkscape:label="Calque 1"
     inkscape:groupmode="layer"
     id="layer1"
     transform="translate(0,-752.36218)">
    <path
       style="fill:#000000"
       d="m 160.21628,1030.4924 c -8.30793,-1.0734 -18.02166,-3.5227 -21.58604,-5.443 -8.3623,-4.5051 -17.60045,-24.3296 -16.36938,-35.12763 0.52715,-4.62361 1.57244,-26.67195 2.32287,-48.99628 1.31407,-39.09201 2.7545,-45.16708 10.75007,-45.33846 1.10765,-0.0225 2.3677,15.49511 2.80012,34.48632 l 0.78621,34.52946 35.7015,0.78891 35.7015,0.78888 0,-11.35912 c 0,-11.29983 -0.0562,-11.35916 -10.78263,-11.35916 -17.11873,0 -27.8442,-4.93611 -29.55743,-13.60303 -2.43884,-12.33754 -1.41308,-35.44871 1.74327,-39.27717 5.72615,-6.94547 10.59562,1.8319 10.59562,19.09899 0,17.6133 1.78384,19.68756 16.93119,19.68756 8.91563,0 13.87009,-6.41903 13.87009,-17.9701 0,-10.45119 4.77298,-11.54764 9.57509,-2.19965 3.36031,6.54131 3.95687,16.11913 2.94654,47.30593 -0.69679,21.50721 -2.07433,42.89069 -3.06128,47.51885 -2.52747,11.8525 -9.44295,21.5349 -14.75421,20.6576 -2.47861,-0.4095 -6.29955,0.3857 -8.49093,1.7669 -6.90887,4.3546 -23.46964,6.0665 -39.12217,4.0442 z m 41.68967,-19.7097 c 9.79315,-5.5406 10.51705,-6.835 10.13936,-18.12942 -0.22373,-6.68953 -1.05626,-12.81665 -1.85015,-13.61583 -0.79389,-0.79916 -18.71429,-1.88404 -39.82313,-2.4108 -25.25073,-0.63013 -37.43421,-0.005 -35.61581,1.82445 1.52009,1.53023 2.76385,7.49854 2.76385,13.26286 0,14.46594 2.38115,19.39064 9.39994,19.44104 3.30039,0.023 7.8908,1.2728 10.20089,2.7756 7.76711,5.0529 33.48523,3.2452 44.78505,-3.1479 z M 75.508534,904.82816 c -9.644936,-1.49179 -15.747293,-8.60246 -16.434344,-19.14985 -0.302959,-4.65091 -0.417313,-27.88797 -0.254138,-51.6379 0.296109,-43.0945 0.309435,-43.1799 6.596973,-42.28098 5.638719,0.80616 6.220576,2.28469 5.541337,14.08094 -0.860614,14.94622 1.31941,16.56622 20.359761,15.1298 l 11.200467,-0.84497 0.83362,-17.25593 c 0.72224,-14.94963 1.56429,-17.25594 6.30027,-17.25594 6.17202,0 5.74783,-4.10357 6.18613,59.8437 0.30678,44.7575 -1.55426,52.63368 -13.75941,58.23168 -6.771973,3.10605 -12.318088,3.34386 -26.570681,1.13945 z m 22.465539,-13.79719 c 2.405357,-2.05305 5.708957,-26.28045 5.822617,-42.70085 l 0.12209,-17.61708 -16.800719,0 -16.800706,0 0,26.24645 c 0,22.54679 0.807545,27.11899 5.728923,32.43661 4.327461,4.67586 7.581171,5.7432 13.300559,4.36307 4.164409,-1.00491 8.046715,-2.23258 8.627348,-2.7282 z m 73.147407,-8.90909 c -15.02611,-1.80423 -20.32767,-3.98946 -26.83977,-11.06283 -6.20321,-6.73785 -6.76164,-9.65172 -6.76164,-35.28131 0,-15.36531 1.43044,-33.65546 3.17876,-40.6448 4.64771,-18.58046 10.6611,-21.47778 42.19774,-20.33132 24.38359,0.88642 26.51257,1.45428 33.72682,8.99577 4.23518,4.42726 7.79032,8.86676 7.90035,9.86556 1.14252,10.3733 0.26739,52.66307 -1.30475,63.04615 -3.18064,21.00671 -20.09183,29.25587 -52.09751,25.41278 z m 27.16938,-15.41265 c 10.32269,-4.56823 11.93833,-7.22148 11.98937,-19.68932 0.0518,-12.66773 -6.29056,-17.12219 -21.66902,-15.21878 -41.78421,5.17166 -39.89847,4.50489 -39.80163,14.07339 0.0489,4.83874 1.81923,11.09493 3.93384,13.90258 7.17673,9.52884 31.36215,13.20976 45.54744,6.93213 z m 12.03227,-48.32814 c 0,-2.13167 0.76127,-7.7075 1.69172,-12.39067 1.28765,-6.48106 0.23717,-9.97907 -4.39751,-14.64465 -5.45412,-5.4904 -8.03997,-5.94884 -24.79269,-4.39552 -25.6701,2.38016 -27.59275,3.23793 -29.57049,13.19248 -4.11797,20.72671 -3.78694,20.92977 35.36806,21.69178 16.74955,0.32596 21.70091,-0.46197 21.70091,-3.45342 z"
       id="path3002"
       inkscape:connector-curvature="0" />
  </g>
</svg>
