<?xml version="1.0" encoding="UTF-8" standalone="no"?>
<!-- Created with Inkscape (http://www.inkscape.org/) -->

<svg
   xmlns:dc="http://purl.org/dc/elements/1.1/"
   xmlns:cc="http://creativecommons.org/ns#"
   xmlns:rdf="http://www.w3.org/1999/02/22-rdf-syntax-ns#"
   xmlns:svg="http://www.w3.org/2000/svg"
   xmlns="http://www.w3.org/2000/svg"
   xmlns:sodipodi="http://sodipodi.sourceforge.net/DTD/sodipodi-0.dtd"
   xmlns:inkscape="http://www.inkscape.org/namespaces/inkscape"
   width="300"
   height="300"
   id="svg2"
   version="1.1"
   inkscape:version="0.48.4 r9939"
   sodipodi:docname="image-seal.svg">
  <defs
     id="defs4" />
  <sodipodi:namedview
     id="base"
     pagecolor="#ffffff"
     bordercolor="#666666"
     borderopacity="1.0"
     inkscape:pageopacity="0.0"
     inkscape:pageshadow="2"
     inkscape:zoom="1.979899"
     inkscape:cx="197.63697"
     inkscape:cy="133.25325"
     inkscape:document-units="px"
     inkscape:current-layer="layer1"
     showgrid="false"
     inkscape:window-width="1215"
     inkscape:window-height="1000"
     inkscape:window-x="65"
     inkscape:window-y="24"
     inkscape:window-maximized="1"
     fit-margin-top="10"
     fit-margin-left="10"
     fit-margin-right="10"
     fit-margin-bottom="10" />
  <metadata
     id="metadata7">
    <rdf:RDF>
      <cc:Work
         rdf:about="">
        <dc:format>image/svg+xml</dc:format>
        <dc:type
           rdf:resource="http://purl.org/dc/dcmitype/StillImage" />
        <dc:title />
      </cc:Work>
    </rdf:RDF>
  </metadata>
  <g
     inkscape:label="Calque 1"
     inkscape:groupmode="layer"
     id="layer1"
     transform="translate(0,-752.36218)">
    <path
       style="fill:#000000"
       d="m 150.04153,1046.7718 c -15.75774,-4.1131 -18.43487,-7.618 -21.89414,-28.6636 -3.54485,-21.56647 -3.46542,-20.09345 -2.80694,-52.06141 0.36167,-17.55778 1.74344,-26.14814 4.58536,-28.50673 4.93763,-4.09785 12.81309,-1.57942 12.81309,4.09742 0,5.67176 6.44025,7.62514 18.62218,5.64829 7.8193,-1.26891 10.38826,-3.13685 10.7197,-7.79447 0.57555,-8.08818 -0.68753,-23.17791 -2.05764,-24.58216 -1.09456,-1.12181 -8.76522,-2.17388 -20.80869,-2.85406 -3.59267,-0.20292 -8.6655,-2.86048 -11.2729,-5.90572 -6.30445,-7.36305 -12.58731,-26.1095 -11.19847,-33.41326 0.61229,-3.21981 1.22981,-7.15495 1.37229,-8.74478 0.1425,-1.58983 1.44079,-4.7581 2.8851,-7.04063 2.17633,-3.43935 3.40625,-3.50248 7.18221,-0.3687 3.1835,2.64207 4.55622,8.8008 4.55622,20.44159 0,16.10658 0.32675,16.81536 9.8313,21.32556 18.75992,8.90214 21.85321,5.41368 21.92579,-24.72696 0.0477,-19.84979 -1.86261,-25.52915 -8.58762,-25.52915 -7.6937,0 -12.68299,-7.81424 -14.40122,-22.55507 -1.4002,-12.01287 -2.40422,-13.4499 -10.9362,-15.65291 -5.16694,-1.33413 -9.39444,-4.21758 -9.39444,-6.40767 0,-5.30081 16.50462,-6.88318 72.98759,-6.99762 43.19221,-0.0876 45.52692,0.19598 45.52692,5.52633 0,5.21897 -3.2482,7.08607 -10.01199,5.75504 -1.53202,-0.30149 -7.06029,0.25379 -12.28504,1.23396 -9.48255,1.77893 -9.49955,1.81307 -9.49955,19.08546 0,17.88578 -0.0587,17.96958 -14.82414,21.1832 -6.15388,1.33936 -8.23135,4.17032 -10.93256,14.89779 -3.40842,13.53604 -1.77023,31.79626 3.1239,34.82101 7.3527,4.54422 28.414,-8.25239 28.414,-17.26406 0,-2.5957 1.38841,-4.71948 3.08539,-4.71948 1.69696,0 2.37703,-2.27635 1.51129,-5.05855 -2.19165,-7.04306 2.13407,-12.84845 7.91946,-10.62838 6.8358,2.62313 6.10665,16.17896 -1.6764,31.16642 -7.10694,13.68548 -15.68907,19.20768 -29.85097,19.20768 -12.12956,0 -16.2227,5.58056 -15.12994,20.62803 0.75835,10.4428 2.0318,12.67015 8.12579,14.21278 9.58658,2.42674 16.2671,-1.25229 18.51144,-10.19447 2.27123,-9.04925 6.19588,-9.40598 8.78953,-0.79891 3.65701,12.13583 5.47124,85.96269 2.27672,92.64649 -1.67097,3.4961 -3.76561,8.6329 -4.65478,11.4151 -0.88918,2.7822 -4.1823,5.0585 -7.31802,5.0585 -3.13572,0 -6.3535,1.0553 -7.15058,2.345 -2.12234,3.434 -44.68463,3.2676 -58.07304,-0.2269 z m 49.47579,-11.7861 c 6.56218,-2.211 11.75907,-12.4511 13.18101,-25.9721 l 0.86022,-8.1796 -30.35128,-1.42919 c -23.25292,-1.0949 -32.25826,-0.43729 -38.50513,2.81189 -4.48462,2.3326 -6.69015,4.7289 -4.90113,5.3253 1.78899,0.5963 3.73275,3.6621 4.31942,6.8129 0.58671,3.1508 1.31606,6.3791 1.62076,7.1741 0.30473,0.7949 0.3608,3.4955 0.12459,6.0013 -0.70962,7.5286 37.62459,12.8555 53.65154,7.4554 z m 10.94415,-49.79575 c 4.95316,-4.95316 6.17701,-20.12157 1.83975,-22.80214 -2.30045,-1.42174 -48.96609,-2.76531 -64.50377,-1.85715 -4.01822,0.23501 -5.05855,2.94997 -5.05855,13.20226 l 0,12.90655 29.62863,0.93681 c 16.29574,0.51525 30.5113,1.21113 31.5901,1.54641 1.07883,0.33531 4.00556,-1.43443 6.50384,-3.93274 z M 201.0831,834.75639 c 1.6222,-1.00258 1.50248,-13.37965 -0.23905,-24.70259 -0.46235,-3.00616 -27.35078,-1.97644 -31.36718,1.20122 -6.00568,4.75154 -4.3156,18.66635 2.8906,23.79907 5.91844,4.21551 21.67743,4.05213 28.71557,-0.2977 z M 83.664219,900.86763 c -18.10419,-1.40151 -24.59474,-8.22809 -25.17549,-26.47886 -1.51121,-47.49177 2.45406,-92.63114 8.33541,-94.88806 5.58409,-2.14281 9.60612,4.74032 7.55206,12.92429 -3.97858,15.85204 4.20522,24.83535 19.89298,21.83644 5.872831,-1.12265 7.463121,-3.75257 9.682151,-16.01151 2.4131,-13.33123 9.85133,-23.41566 14.12155,-19.14541 0.89467,0.89467 1.67022,22.96172 1.72343,49.03792 0.1032,50.58116 -3.22033,68.27242 -13.59214,72.35062 -2.95841,1.16324 -6.02932,1.97197 -6.824241,1.79715 -0.79491,-0.17489 -7.86699,-0.81498 -15.71571,-1.42258 z m 15.0551,-18.81008 c 2.739181,-3.3689 4.954771,-30.8179 3.979191,-49.29853 -0.41275,-7.81878 -0.91698,-8.07616 -14.158321,-7.2265 l -13.73034,0.88103 -0.83749,27.21911 c -0.61003,19.8271 0.17488,27.86146 2.8906,29.58437 5.66216,3.59229 18.54862,2.90869 21.85636,-1.15948 z M 147.63242,773.93047 c -2.94135,-0.83362 -4.82108,-3.58406 -4.30233,-6.29526 1.17167,-6.12397 34.66913,-9.89582 65.16991,-7.33822 17.97145,1.50698 20.95683,2.53251 20.95683,7.19892 0,4.95414 -2.52464,5.44444 -28.18333,5.4734 -15.50083,0.0174 -32.73601,0.57399 -38.30042,1.23669 -5.5644,0.6627 -12.46769,0.53869 -15.34066,-0.27548 z"
       id="path3063"
       inkscape:connector-curvature="0" />
  </g>
</svg>
