<?xml version="1.0" encoding="UTF-8" standalone="no"?>
<!-- Created with Inkscape (http://www.inkscape.org/) -->

<svg
   xmlns:dc="http://purl.org/dc/elements/1.1/"
   xmlns:cc="http://creativecommons.org/ns#"
   xmlns:rdf="http://www.w3.org/1999/02/22-rdf-syntax-ns#"
   xmlns:svg="http://www.w3.org/2000/svg"
   xmlns="http://www.w3.org/2000/svg"
   xmlns:sodipodi="http://sodipodi.sourceforge.net/DTD/sodipodi-0.dtd"
   xmlns:inkscape="http://www.inkscape.org/namespaces/inkscape"
   width="300"
   height="300"
   id="svg2"
   version="1.1"
   inkscape:version="0.48.4 r9939"
   sodipodi:docname="dessin.svg">
  <defs
     id="defs4" />
  <sodipodi:namedview
     id="base"
     pagecolor="#ffffff"
     bordercolor="#666666"
     borderopacity="1.0"
     inkscape:pageopacity="0.0"
     inkscape:pageshadow="2"
     inkscape:zoom="1.979899"
     inkscape:cx="218.29155"
     inkscape:cy="144.09165"
     inkscape:document-units="px"
     inkscape:current-layer="layer1"
     showgrid="false"
     inkscape:window-width="1215"
     inkscape:window-height="1000"
     inkscape:window-x="65"
     inkscape:window-y="24"
     inkscape:window-maximized="1" />
  <metadata
     id="metadata7">
    <rdf:RDF>
      <cc:Work
         rdf:about="">
        <dc:format>image/svg+xml</dc:format>
        <dc:type
           rdf:resource="http://purl.org/dc/dcmitype/StillImage" />
        <dc:title />
      </cc:Work>
    </rdf:RDF>
  </metadata>
  <g
     inkscape:label="Calque 1"
     inkscape:groupmode="layer"
     id="layer1"
     transform="translate(0,-752.36218)">
    <path
       style="fill:#000000"
       d="m 173.92973,1030.9243 c 0,-16.3853 10.03632,-35.56632 20.43169,-39.04822 4.4252,-1.4822 13.38801,-4.39761 19.91734,-6.47871 11.43456,-3.6445 12.02214,-4.4349 15.96557,-21.47665 3.189,-13.78136 3.40546,-23.05834 0.97917,-41.96215 -1.71323,-13.34808 -3.50202,-24.61322 -3.97507,-25.03364 -0.47305,-0.4204 -7.26755,-1.36862 -15.09887,-2.10716 l -14.23876,-1.34277 0,12.97057 c 0,14.31491 5.24834,20.86627 17.9858,22.45115 9.35649,1.16421 9.92966,8.81642 0.74941,10.00515 -3.70957,0.48035 -6.74467,-0.1419 -6.74467,-1.38265 0,-1.24079 -3.91128,-3.83451 -8.69173,-5.76383 -7.62871,-3.07879 -10.10341,-2.79653 -20.23403,2.30798 -27.25709,13.73402 -24.67371,18.78716 10.73615,21.00001 20.29026,1.26799 24.29977,2.27506 23.53918,5.91225 -0.72477,3.46604 -5.60183,4.55466 -23.29338,5.19937 -35.33237,1.28758 -42.00887,-5.20527 -42.00887,-40.85329 0,-16.90182 0.5834,-18.7239 5.99527,-18.7239 5.10706,0 5.99526,1.82208 5.99526,12.29898 0,13.94833 3.66198,15.54239 15.76477,6.86241 5.01036,-3.59335 8.02424,-8.9214 8.8896,-15.71535 0.72006,-5.65335 1.87484,-12.12365 2.56619,-14.37846 1.0206,-3.32882 -1.82904,-3.99786 -15.15536,-3.55825 -9.02676,0.29774 -19.32037,1.20685 -22.87469,2.02019 -13.48648,3.0862 -22.54545,38.3626 -15.44607,60.14828 4.56762,14.01655 12.37988,21.12273 28.50379,25.92758 14.81514,4.41486 18.3517,13.85398 5.19067,13.85398 -7.94414,0 -35.08919,-11.78471 -39.80021,-17.2788 -6.94414,-8.09839 -12.17294,-29.22129 -9.40879,-38.00888 1.54048,-4.89732 2.80086,-12.94899 2.80086,-17.89263 0,-11.0471 7.25814,-27.50597 14.27057,-32.36049 2.86771,-1.98526 8.65384,-3.64868 12.85802,-3.69648 4.20418,-0.0478 8.92545,-1.21268 10.49172,-2.58858 1.56626,-1.37594 6.22009,-2.91331 10.34184,-3.41639 12.03303,-1.46872 11.64837,-11.64002 -0.59686,-15.78332 -19.9477,-6.74946 -18.88777,-4.04112 -18.88777,-48.26219 0,-35.35967 0.63478,-40.76829 4.87172,-41.51016 4.12834,-0.72283 4.9403,2.37542 5.32099,20.30402 0.24701,11.63635 1.1174,21.76617 1.93402,22.51072 1.65369,1.50777 6.22074,1.96814 33.99088,3.42616 15.17978,0.79698 19.77417,0.0923 22.20992,-3.4066 5.37887,-7.72665 0.35048,-13.34572 -12.02782,-13.44063 -17.42936,-0.13358 -21.82692,-4.71972 -21.82692,-22.76251 0,-11.79119 1.04342,-15.41406 4.43935,-15.41406 4.29836,0 6.46155,5.01088 8.21079,19.0197 0.56984,4.56359 3.24458,7.26747 8.33331,8.42418 11.35707,2.58153 14.98816,0.20498 14.98816,-9.8098 0,-10.61924 3.74974,-13.82478 9.76074,-8.34423 3.27498,2.98598 3.99612,10.35247 3.14632,32.13911 -1.85344,47.51633 -5.50857,54.22888 -32.17135,59.0815 -22.56631,4.10705 -16.10078,13.80127 12.02971,18.03692 18.5635,2.79514 20.96746,3.92174 26.34635,12.34698 4.44181,6.95738 5.74362,13.43727 5.21628,25.96449 -0.38649,9.18132 -0.9826,24.68764 -1.32472,34.45849 -0.71643,20.46205 -8.70572,38.26348 -17.17269,38.26348 -3.01226,0 -6.3105,1.22989 -7.32945,2.73309 -1.01896,1.50322 -4.99592,2.73311 -8.83772,2.73311 -12.38245,0 -19.62371,8.22713 -23.45445,26.64783 -2.76693,13.3052 -4.72621,17.0818 -8.86176,17.0818 -4.29611,0 -5.3094,-2.3529 -5.3094,-12.3287 z m 42.80372,-188.11035 c 3.83545,-10.49094 0.86973,-16.50125 -6.3935,-12.9571 -3.10511,1.51514 -6.38936,2.07667 -7.29843,1.24781 -0.90906,-0.8288 -11.24754,-1.93274 -22.9744,-2.45318 l -21.3216,-0.94619 1.96042,10.0654 c 1.07825,5.53595 2.80851,10.91732 3.84506,11.95863 2.49028,2.50171 32.87616,3.9846 42.15737,2.05738 4.47883,-0.93002 8.35211,-4.39669 10.02508,-8.97275 z m -131.233919,27.7342 c -13.085421,-7.04181 -13.489353,-8.58141 -13.489353,-51.41488 0,-37.94469 0.436935,-41.31663 5.245859,-40.48495 3.82666,0.66184 5.495234,4.04338 6.167633,12.4994 l 0.921772,11.59211 14.242867,0 c 8.495801,0 16.590761,-1.73601 20.061661,-4.30235 3.20033,-2.36626 4.33659,-3.63853 2.525,-2.82721 -4.22277,1.89118 -4.94073,-13.99546 -0.73948,-16.36281 6.37992,-3.59505 9.29719,4.70424 8.9113,25.35161 -1.05004,56.18631 -5.29766,67.30906 -26.16113,68.50516 -6.429984,0.36865 -14.388732,-0.7816 -17.686129,-2.55608 z m 22.279879,-13.04749 c 3.829,-1.86838 5.97789,-7.30154 7.39055,-18.68596 2.81076,-22.65145 1.27123,-25.00473 -15.424594,-23.57779 -7.564709,0.64656 -14.477462,1.83515 -15.361674,2.64134 -3.16868,2.88906 -0.111206,37.98797 3.490984,40.07532 4.984196,2.88821 13.452454,2.69553 19.904734,-0.45291 z"
       id="path3280"
       inkscape:connector-curvature="0" />
  </g>
</svg>
