<?xml version="1.0" encoding="UTF-8" standalone="no"?>
<svg
   xmlns:dc="http://purl.org/dc/elements/1.1/"
   xmlns:cc="http://creativecommons.org/ns#"
   xmlns:rdf="http://www.w3.org/1999/02/22-rdf-syntax-ns#"
   xmlns:svg="http://www.w3.org/2000/svg"
   xmlns="http://www.w3.org/2000/svg"
   viewBox="0 0 300 300"
   height="300"
   width="300"
   id="svg307"
   version="1.1">
  <metadata
     id="metadata313">
    <rdf:RDF>
      <cc:Work
         rdf:about="">
        <dc:format>image/svg+xml</dc:format>
        <dc:type
           rdf:resource="http://purl.org/dc/dcmitype/StillImage" />
        <dc:title></dc:title>
      </cc:Work>
    </rdf:RDF>
  </metadata>
  <defs
     id="defs311" />
  <path
     id="path325"
     d="m 131.43852,283.45069 c -19.91352,-2.99106 -35.091108,-10.89698 -43.354429,-29.4905 -5.43412,-12.46223 -5.302109,-24.38821 -5.683655,-57.91804 -28.023381,-2.02823 -25.069598,-24.00929 -24.951819,-47.9064 0.08575,-20.02555 0.692462,-28.29237 2.808719,-30.40863 0.56122,-0.56122 2.191649,-1.0204 3.623176,-1.0204 3.987629,0 5.078651,1.73248 5.129678,14.77976 l 0.04413,11.28521 40.82247,0.52878 0.44201,-10.36121 c 0.2431,-5.69867 0.75139,-11.13832 1.12953,-12.0881 1.31566,-3.3045 5.48957,-5.6905 7.78217,-4.12916 3.69167,2.51413 3.50602,13.67607 3.13832,20.55818 l -1.10489,22.10394 c -1.14144,22.83496 -1.62258,34.30486 -26.583599,37.13032 l 0.124867,12.42028 c 0.225101,22.39044 0.389306,33.06641 5.638302,42.66518 8.97917,16.2486 26.44645,20.49374 41.55307,21.39421 l 0.91632,-160.94796 c -12.83145,-1.45501 -24.60977,-2.5054 -30.8881,-13.842439 -3.86001,-6.970162 -5.69548,-10.175595 -5.60836,-36.358511 0.1218,-36.601955 -0.24376,-39.456202 1.90265,-43.47315 3.26704,-6.114181 8.42373,-2.859927 9.88234,1.457279 0.60844,1.800885 0.67493,3.461625 0.59269,9.457334 l -0.28297,20.630481 62.04211,0.869549 0.12416,-17.66048 c 0.0387,-5.508966 0.42518,-8.903872 0.8918,-11.393885 1.86409,-9.947284 8.48636,-7.459821 10.36677,-0.348831 1.54658,6.078911 0.36756,56.711466 -1.46085,65.275687 C 185.90057,108.0863 174.00199,111.1646 155.12078,112.092 v 161.03942 c 14.9862,0.39862 30.34225,-4.69258 37.38111,-15.35764 7.63355,-11.56612 10.9691,-27.78884 10.97067,-52.31866 l 5.8e-4,-8.99244 c -9.21206,-1.03074 -14.45594,-3.41056 -18.10497,-7.40552 -4.48853,-4.91408 -7.31994,-12.66467 -7.38893,-25.20801 l -0.12302,-22.36686 c -0.0369,-6.70146 0.55992,-23.9992 6.10424,-24.38774 5.69913,-0.39939 5.18356,10.7629 5.35445,14.80862 l 0.48077,11.38189 41.53264,0.34879 0.38305,-15.31238 c 0.18963,-7.5803 0.48812,-9.89603 3.74786,-11.25803 3.34284,-1.39673 5.49701,-0.85396 6.38218,2.64702 0.9749,3.85587 0.78845,9.89313 0.80579,17.29934 l 0.046,19.67117 c 0.0277,11.83643 -0.76865,26.91575 -9.61804,33.76176 -5.18931,4.01451 -11.55833,5.65907 -17.51396,6.04538 -0.70983,28.60864 -0.82484,50.97478 -13.04673,69.09637 -6.19434,9.18444 -17.1955,14.48721 -27.37616,16.8259 -14.43883,3.31687 -29.3039,3.2026 -43.69981,1.04031 z M 102.62394,183.18243 c 7.5925,-3.67481 6.90881,-15.0173 7.41268,-26.82812 l -41.364671,-0.99538 c 0.102383,17.89252 -0.605708,24.18838 6.615262,27.96368 7.33144,3.83305 18.673,4.05311 27.336729,-0.14018 z m 120.82231,-0.76986 c 9.04957,-5.62366 8.09381,-15.91332 8.24606,-26.30845 l -42.07281,0.0283 c 0.11741,11.32825 -0.66761,22.03887 6.27472,26.35163 7.088,4.40324 19.75992,4.73327 27.55203,-0.0715 z M 173.88126,94.697111 c 6.36938,-7.740806 5.69809,-15.475267 6.17641,-31.667754 L 118.24598,62.10065 c -0.22061,15.23409 -0.70105,23.386193 2.78239,29.28035 5.68329,9.61641 22.57823,9.22787 29.96606,9.33804 7.25545,0.1082 18.08323,-0.18405 22.88683,-6.021929 z"
     style="fill:#000000;stroke-width:0.69074804" />
</svg>
