<?xml version="1.0" encoding="UTF-8" standalone="no"?>
<!-- Created with Inkscape (http://www.inkscape.org/) -->
<svg
   xmlns:svg="http://www.w3.org/2000/svg"
   xmlns="http://www.w3.org/2000/svg"
   version="1.0"
   width="300"
   height="300"
   id="svg2">
  <defs
     id="defs5" />
  <path
     d="M 208.21262,288.32869 C 205.4294,248.10118 205.99985,207.70628 203.34276,167.45837 C 201.67463,148.14135 202.59329,148.95194 179.48011,146.40292 C 171.5751,145.53112 161.43758,142.6861 156.95229,140.08063 C 149.86436,135.96333 147.82685,135.73545 141.38181,138.33917 C 137.30335,139.98683 133.42744,142.04137 132.76869,142.9048 C 130.36853,146.05071 99.609587,159.57285 94.853707,159.57285 C 92.163457,159.57285 87.010587,160.69511 83.402887,162.06675 C 78.193807,164.04724 76.065827,163.77052 73.066247,160.72262 C 69.624227,157.22514 69.701667,156.57874 73.938957,153.4378 C 82.574644,149.34348 92.075794,148.6359 101.05498,144.92137 C 139.51132,127.74778 137.92133,129.77373 139.40952,96.050565 L 140.62331,68.545464 C 127.08381,66.929451 79.699065,72.850384 72.045427,65.028992 C 71.303257,63.094933 71.715767,60.882292 72.962097,60.112014 C 74.208437,59.341735 89.236507,58.751071 106.35782,58.799425 C 142.08211,58.90032 139.41981,60.925008 140.54008,32.803727 C 141.19307,16.412322 143.13064,13.884028 150.67486,19.579102 C 154.5534,24.113666 152.53305,34.432618 154.32781,43.927565 C 154.32781,58.424567 162.67846,61.455803 188.39044,56.2921 L 201.69299,53.620566 L 203.21927,42.114872 C 204.05873,35.786742 206.80647,28.095795 209.32536,25.023882 C 213.39469,20.061138 214.30406,19.839092 217.48388,23.031772 C 220.24415,25.803208 220.61351,29.026838 219.09895,37.12742 C 216.86217,49.09079 217.27243,68.614661 220.1544,87.355765 C 221.96504,99.130105 221.76078,100.10707 217.65365,99.316095 C 212.48744,98.321185 208.50091,91.162785 204.27209,75.287534 C 202.36921,68.143988 199.71414,63.65359 196.96871,62.935643 C 194.59624,62.315229 192.65513,62.569746 192.65513,63.501241 C 192.65513,66.80268 198.671,78.090198 200.44036,78.108604 C 203.71239,78.142642 202.53969,118.92366 199.24263,119.7598 C 197.59576,120.17745 192.79125,121.64945 188.56595,123.0309 C 180.77049,125.5796 166.7341,122.63272 161.43658,117.3352 C 160.16105,116.05967 158.99869,107.21525 158.85356,97.680925 C 158.62614,82.740092 159.30034,79.729457 163.73494,75.883351 C 167.60032,72.530921 171.24129,71.737593 178.3722,72.694049 C 184.08397,73.460157 188.84238,72.453336 190.14803,73.143916 C 200.83322,78.795499 191.75778,64.997203 190.08041,64.300799 C 187.0211,63.030643 175.99897,66.712501 166.5855,67.696404 C 153.50365,69.063726 152.65255,69.537528 152.68136,75.43668 C 152.69825,78.892769 152.10604,91.183415 151.36535,102.74923 L 150.01864,123.77798 C 168.28994,129.18173 188.18675,136.55514 206.64273,140.40919 C 215.69738,140.40919 217.87631,155.9393 220.60755,239.94203 C 221.86468,278.60651 221.58272,283.61232 217.94273,287.25232 C 213.11933,292.07571 209.67446,292.45681 208.21262,288.32869 z M 188.80565,107.8746 C 191.33653,101.27924 190.39912,97.886195 185.70716,96.659215 C 178.82754,94.860155 168.70055,97.440385 168.70055,100.9923 C 168.70055,109.83353 185.80687,115.6893 188.80565,107.8746 z M 184.27596,86.178036 C 187.12899,85.083221 187.45055,84.143023 185.40443,82.878454 C 181.92941,80.730775 173.49147,82.65352 173.49147,85.593051 C 173.49147,88.073555 178.61244,88.351335 184.27596,86.178036 z M 106.41866,248.36463 C 92.696354,243.72137 94.153129,224.63105 93.081477,201.12641 C 92.371437,179.75423 92.897897,173.82513 95.713077,171.48874 C 98.484487,169.18867 99.995797,169.20172 102.82547,171.55014 C 105.63135,173.87881 106.41866,180.46106 106.41866,201.59075 C 106.41866,216.47294 106.40155,230.75957 107.87267,232.43839 C 111.59767,236.68931 155.25214,238.59607 174.75701,236.14839 C 188.4738,233.98745 194.19354,237.1885 191.54218,245.5422 C 190.23785,249.65178 188.01354,250.60024 179.68011,250.60024 C 155.29121,250.52847 130.38071,253.99459 106.41866,248.36463 z M 110.41109,210.67594 C 106.57104,206.8359 109.77773,202.84513 124.08395,193.65987 L 139.35378,183.85592 L 141.45101,167.52233 C 143.4112,152.25608 143.93958,151.18875 149.53689,151.18875 C 155.13595,151.18875 155.60345,152.1352 156.72326,165.7375 C 157.9009,180.04214 162.37039,188.31834 168.91785,188.31834 C 173.1103,188.31834 192.65513,200.07442 192.65513,202.59614 C 192.65513,203.75035 193.30943,206.3998 194.10914,208.48381 C 195.26548,211.49719 193.83511,212.27292 187.12239,212.27292 C 182.47997,212.27292 178.32231,211.4017 177.88314,210.33688 C 177.19916,208.67846 161.30104,197.2751 152.78612,192.33535 C 138.66649,191.72728 123.996,218.50226 110.41109,210.67594 z M 104.0232,126.73576 C 88.973317,122.33943 82.920427,112.88076 83.647657,94.895495 C 84.313147,78.437106 84.446187,78.127294 90.848177,78.127294 C 95.239857,78.127294 96.836827,79.40487 96.836827,82.918209 C 96.836827,87.013823 98.433797,87.709125 107.84065,87.709125 C 116.69847,87.709125 119.08035,86.807102 120.05399,83.083915 C 121.74218,76.62826 126.83888,75.293865 131.23868,80.15559 C 134.2725,83.507925 134.56755,86.960062 132.85545,99.072595 C 131.7036,107.22159 130.08912,114.97635 129.26772,116.30541 C 128.08973,118.21143 117.62254,123.84497 108.81412,127.31373 C 108.15536,127.57314 105.99945,127.31306 104.0232,126.73576 z M 117.91685,108.78915 C 119.49786,107.20815 120.7914,103.97428 120.7914,101.60278 C 120.7914,98.025565 118.75083,97.290955 108.81412,97.290955 C 97.102987,97.290955 96.836827,97.450655 96.836827,104.47733 C 96.836827,111.20142 97.422377,111.6637 105.93957,111.6637 C 110.94607,111.6637 116.33585,110.37015 117.91685,108.78915 z "
     style="fill:black;fill-opacity:1"
     id="path1875" />
</svg>
