<?xml version="1.0" encoding="UTF-8" standalone="no"?>
<!-- Created with Inkscape (http://www.inkscape.org/) -->

<svg
   xmlns:dc="http://purl.org/dc/elements/1.1/"
   xmlns:cc="http://creativecommons.org/ns#"
   xmlns:rdf="http://www.w3.org/1999/02/22-rdf-syntax-ns#"
   xmlns:svg="http://www.w3.org/2000/svg"
   xmlns="http://www.w3.org/2000/svg"
   xmlns:sodipodi="http://sodipodi.sourceforge.net/DTD/sodipodi-0.dtd"
   xmlns:inkscape="http://www.inkscape.org/namespaces/inkscape"
   width="300"
   height="300"
   id="svg2"
   version="1.1"
   inkscape:version="0.48.4 r9939"
   sodipodi:docname="dessin.svg">
  <defs
     id="defs4" />
  <sodipodi:namedview
     id="base"
     pagecolor="#ffffff"
     bordercolor="#666666"
     borderopacity="1.0"
     inkscape:pageopacity="0.0"
     inkscape:pageshadow="2"
     inkscape:zoom="1.979899"
     inkscape:cx="73.020464"
     inkscape:cy="149.14493"
     inkscape:document-units="px"
     inkscape:current-layer="layer1"
     showgrid="false"
     inkscape:window-width="1215"
     inkscape:window-height="1000"
     inkscape:window-x="65"
     inkscape:window-y="24"
     inkscape:window-maximized="1" />
  <metadata
     id="metadata7">
    <rdf:RDF>
      <cc:Work
         rdf:about="">
        <dc:format>image/svg+xml</dc:format>
        <dc:type
           rdf:resource="http://purl.org/dc/dcmitype/StillImage" />
        <dc:title />
      </cc:Work>
    </rdf:RDF>
  </metadata>
  <g
     inkscape:label="Calque 1"
     inkscape:groupmode="layer"
     id="layer1"
     transform="translate(0,-752.36218)">
    <path
       style="fill:#000000"
       d="m 223.48853,1038.4219 c -1.94483,-2.1864 -4.26019,-10.0695 -5.14529,-17.518 -2.04891,-17.2422 -9.25043,-53.09027 -13.05952,-65.00825 -2.56934,-8.03895 -8.18785,-12.87342 -8.18785,-7.04523 0,1.1659 -5.6827,5.10244 -12.62816,8.74781 -15.55251,8.16284 -22.97763,5.46265 -11.19617,-4.07155 4.48107,-3.62633 9.28299,-6.63895 10.67091,-6.69473 1.38793,-0.056 5.60172,-3.38757 9.36404,-7.40397 6.88507,-7.35015 8.26159,-18.59396 4.71611,-38.52296 -1.22921,-6.90929 -2.59851,-7.7551 -12.55461,-7.7551 -13.95924,0 -14.49914,-4.46684 -0.98606,-8.15832 13.80929,-3.77237 17.72286,-1.66869 21.29199,11.44498 4.443,16.32463 11.58198,13.62004 16.19062,-6.13376 1.98675,-8.51572 3.2967,-18.64318 2.91096,-22.50551 -0.69004,-6.90933 -1.05694,-7.00747 -22.79153,-6.09623 -14.59411,0.61188 -22.09019,-0.11532 -22.09019,-2.1427 0,-1.68789 3.74605,-3.06889 8.32455,-3.06889 10.70087,0 11.84641,-5.08974 10.91798,-48.50931 -0.72195,-33.76202 1.13755,-40.7366 9.96698,-37.38446 3.51534,1.33461 4.40597,5.55197 4.03956,19.12766 l -0.47008,17.41557 12.75446,0 c 9.86832,0 12.97931,1.11671 13.74817,4.93504 0.83099,4.12706 -1.15212,4.93506 -12.11245,4.93506 -11.44585,0 -13.45824,0.91634 -15.8859,7.23366 -1.5289,3.97851 -2.77979,12.09135 -2.77979,18.0285 0,11.69762 3.0636,14.21828 17.28089,14.21828 6.56284,0 8.65394,1.53863 10.16009,7.47572 1.05435,4.15619 0.44563,9.77414 -1.37087,12.65188 -1.79703,2.84691 -3.28662,8.68318 -3.31025,12.96951 -0.0514,9.34056 -5.82769,26.58033 -10.95295,32.69024 -2.70883,3.22924 -3.26691,11.25654 -2.09493,30.1337 0.87865,14.15254 2.47235,27.13228 3.54154,28.84383 1.88054,3.01045 3.00431,7.44837 9.42688,37.22783 4.26621,19.781 0.60804,29.2675 -7.68913,19.9397 z m -123.3045,-11.254 c 0,-2.29 6.51138,-10.8559 14.46974,-19.0353 22.31614,-22.93585 33.9217,-49.44733 27.62822,-63.11316 -3.68399,-7.99943 -8.13686,-7.56324 -12.13262,1.18852 -1.54751,3.38945 -3.79216,6.16263 -4.98811,6.16263 -1.19594,0 -2.17445,1.35762 -2.17445,3.01696 0,8.24591 -35.68958,50.56365 -42.643964,50.56365 -4.663525,0 -3.463508,-5.9459 2.209832,-10.94936 9.137786,-8.05884 29.032742,-34.54718 29.032742,-38.65444 0,-2.18723 1.13214,-3.97681 2.51586,-3.97681 3.92674,0 18.15432,-30.74233 16.36391,-35.35842 -0.87931,-2.26712 -4.06223,-4.12202 -7.07314,-4.12202 -8.16998,0 -16.80717,-8.68501 -18.93046,-19.03523 -1.03409,-5.04081 -1.21608,-9.1651 -0.40443,-9.1651 0.81165,0 5.68872,3.80705 10.83792,8.4601 5.14921,4.65305 10.89468,8.4601 12.76773,8.4601 1.87305,0 5.75582,-4.7588 8.6284,-10.57513 6.32578,-12.80828 15.19909,-15.90727 15.19909,-5.30827 0,3.89975 -1.28267,7.87473 -2.85035,8.83333 -1.56769,0.95857 -2.85035,3.5715 -2.85035,5.80648 0,2.99633 3.74319,4.06362 14.25175,4.06362 10.54997,0 14.25173,1.06217 14.25173,4.08933 0,3.0002 -4.36496,4.31452 -16.38951,4.93506 -15.15569,0.78204 -16.33716,1.33023 -15.69421,7.28183 0.38241,3.53986 3.43014,10.09585 6.77274,14.56886 5.05876,6.76962 5.7438,10.33406 4.08686,21.26581 -1.09481,7.22318 -5.68396,19.06792 -10.19812,26.32159 -4.51412,7.25371 -10.36064,17.35687 -12.99228,22.45147 -4.52841,8.7666 -22.74734,25.9875 -27.49362,25.9875 -1.2105,0 -2.20091,-1.8736 -2.20091,-4.1636 z M 69.918297,873.65211 C 59.146581,867.1711 57.885836,861.5913 59.533403,827.69066 c 1.728125,-35.55825 1.882888,-36.96951 4.495874,-40.99695 4.509553,-6.9507 7.651273,-3.31126 7.651273,8.86337 0,13.75678 2.406013,15.75796 16.468565,13.69758 11.176653,-1.6375 15.425725,-8.33908 13.910805,-21.93991 -0.90142,-8.09292 -0.22018,-9.88142 3.49015,-9.16283 3.96516,0.768 4.60664,6.01476 4.58485,37.50021 -0.0274,39.42565 -4.46449,55.86782 -15.940041,59.0661 -2.991475,0.83376 -7.681962,2.13559 -10.423301,2.89299 -2.741341,0.75738 -8.975318,-1.0242 -13.853281,-3.95911 z m 26.541329,-15.89497 c 2.304506,-2.28001 3.724404,-10.69919 3.724404,-22.0836 l 0,-18.39876 -14.964325,1.64063 c -8.230381,0.90235 -15.900517,2.46676 -17.044748,3.47645 -2.076731,1.83255 2.403167,35.69146 5.345581,40.40175 2.025538,3.24252 18.149236,-0.29758 22.939088,-5.03647 z m 31.515294,10.8886 c -5.04514,-1.30441 -5.88506,-5.54938 -5.40978,-27.34102 0.41947,-19.23227 5.73555,-18.22838 6.84325,1.2923 0.51808,9.13004 1.99613,12.65672 5.59056,13.33931 4.9736,0.9445 5.87956,-1.22753 9.17912,-22.00708 1.37512,-8.66001 0.57463,-10.42899 -6.52921,-14.42847 -5.2893,-2.97792 -8.7405,-7.74437 -9.95407,-13.74767 -2.70635,-13.38777 -2.27483,-24.81651 1.01284,-26.82681 4.04522,-2.47348 6.67717,5.8013 3.58435,11.2691 -1.41529,2.50206 -2.01837,8.28974 -1.34018,12.86143 0.94859,6.39434 2.72111,8.31215 7.68248,8.31215 5.73724,0 6.65317,-1.79049 8.29477,-16.21519 1.01496,-8.91834 1.87191,-18.73721 1.90432,-21.81968 0.0453,-4.31434 0.62534,-4.69779 2.51939,-1.66576 1.35324,2.16631 1.85038,5.51175 1.10468,7.4343 -0.74567,1.92252 0.0354,4.34606 1.73538,5.38564 1.70013,1.03955 2.44571,2.92337 1.65683,4.18623 -0.78887,1.26284 -2.17157,6.88573 -3.07265,12.49528 -1.5082,9.38914 -1.08265,10.19918 5.35841,10.19918 7.86594,0 10.45698,-4.55773 10.45698,-18.39442 0,-11.1099 4.45511,-15.3112 7.19138,-6.78165 2.586,8.06112 -0.98018,25.49146 -6.44916,31.52114 -2.46187,2.71429 -7.48396,4.93507 -11.16023,4.93507 -6.37531,0 -6.68408,0.91191 -6.68408,19.74023 0,10.85712 0.73294,19.7402 1.62877,19.7402 4.98046,0 9.77262,-9.49949 9.77262,-19.37234 0,-12.73318 4.15776,-17.70762 6.76289,-8.09124 6.338,23.39578 -1.93101,36.10931 -23.1524,35.59656 -7.44653,-0.17991 -15.7838,-0.90747 -18.52726,-1.61679 z"
       id="path3119"
       inkscape:connector-curvature="0" />
  </g>
</svg>
