<?xml version="1.0" encoding="UTF-8" standalone="no"?>
<!-- Created with Inkscape (http://www.inkscape.org/) -->

<svg
   xmlns:dc="http://purl.org/dc/elements/1.1/"
   xmlns:cc="http://creativecommons.org/ns#"
   xmlns:rdf="http://www.w3.org/1999/02/22-rdf-syntax-ns#"
   xmlns:svg="http://www.w3.org/2000/svg"
   xmlns="http://www.w3.org/2000/svg"
   xmlns:sodipodi="http://sodipodi.sourceforge.net/DTD/sodipodi-0.dtd"
   xmlns:inkscape="http://www.inkscape.org/namespaces/inkscape"
   width="300"
   height="300"
   id="svg2"
   version="1.1"
   inkscape:version="0.48.4 r9939"
   sodipodi:docname="image-seal.svg">
  <defs
     id="defs4" />
  <sodipodi:namedview
     id="base"
     pagecolor="#ffffff"
     bordercolor="#666666"
     borderopacity="1.0"
     inkscape:pageopacity="0.0"
     inkscape:pageshadow="2"
     inkscape:zoom="2.0018437"
     inkscape:cx="145.03351"
     inkscape:cy="130.6666"
     inkscape:document-units="px"
     inkscape:current-layer="layer1"
     showgrid="false"
     inkscape:window-width="1215"
     inkscape:window-height="1000"
     inkscape:window-x="65"
     inkscape:window-y="24"
     inkscape:window-maximized="1"
     fit-margin-top="10"
     fit-margin-left="10"
     fit-margin-right="10"
     fit-margin-bottom="10" />
  <metadata
     id="metadata7">
    <rdf:RDF>
      <cc:Work
         rdf:about="">
        <dc:format>image/svg+xml</dc:format>
        <dc:type
           rdf:resource="http://purl.org/dc/dcmitype/StillImage" />
        <dc:title />
      </cc:Work>
    </rdf:RDF>
  </metadata>
  <g
     inkscape:label="Calque 1"
     inkscape:groupmode="layer"
     id="layer1"
     transform="translate(0,-752.36218)">
    <path
       style="fill:#000000"
       d="m 70.126759,1044.0632 c -0.521408,-7.645 0.651848,-30.3047 1.947961,-37.622 0.770115,-4.3477 1.875012,-35.81492 2.455329,-69.92712 0.897627,-52.76432 3.606452,-87.71655 7.935288,-102.38976 1.692302,-5.73631 19.024023,-11.30648 37.930963,-12.19047 9.86395,-0.46118 19.2664,-1.66172 20.89434,-2.66785 1.82662,-1.12891 2.95988,-10.78146 2.95988,-25.21085 0,-26.81163 1.26349,-31.73099 8.14981,-31.73099 6.73321,0 8.25799,7.8391 6.77541,34.83331 l -1.24115,22.5985 12.29246,1.78149 c 6.76086,0.97979 19.13697,2.45341 27.5025,3.27467 12.58876,1.23587 16.3269,2.82053 21.6906,9.19493 5.22003,6.20364 6.26377,9.86334 5.36603,18.81481 -3.13922,31.30092 -4.32577,132.80393 -1.8532,158.53053 2.98351,31.0424 2.34259,36.0098 -4.64609,36.0098 -8.8379,0 -11.27476,-23.7215 -10.40154,-101.25268 0.44366,-39.38967 1.96689,-74.77675 3.38498,-78.63794 1.77587,-4.83532 1.58138,-10.34786 -0.62481,-17.71152 -4.28705,-14.30891 -12.30219,-16.6305 -61.8173,-17.90541 -42.54069,-1.09534 -53.239712,1.38294 -56.095659,12.9938 -3.467652,14.09775 -5.713319,58.21808 -6.207058,121.94942 -0.511458,66.01823 -0.739697,68.77483 -6.173233,74.55863 -6.298948,6.7049 -9.888025,7.6549 -10.225511,2.7067 z m 70.164901,-16.8621 c -16.91131,-1.7534 -22.02615,-5.5933 -23.76165,-17.8388 -4.15439,-29.31306 -3.28376,-44.31319 2.98903,-51.49818 0.52027,-0.59591 3.17723,0.9358 5.90436,3.4038 3.479,3.14846 11.75205,4.96674 27.72821,6.0942 21.76865,1.53622 22.7698,1.36723 22.7698,-3.84369 0,-2.99778 1.48458,-6.14333 3.29906,-6.99011 2.62504,-1.225 2.61541,-1.85729 -0.0472,-3.09483 -5.40493,-2.51213 -19.08737,-18.06874 -19.08737,-21.7019 0,-4.26063 -6.70705,-16.27942 -9.74496,-17.46259 -1.73078,-0.67409 -7.37216,-0.53996 -12.5364,0.29808 -11.07229,1.79679 -12.1087,6.80261 -4.12092,19.90378 7.09438,11.63584 6.86527,17.90427 -0.64994,17.78231 -4.07004,-0.066 -8.11468,-3.59499 -12.856,-11.21677 -14.29209,-22.97497 -14.22782,-22.37541 -3.10492,-28.96132 14.25347,-8.4395 30.80775,-12.26007 53.70207,-12.39391 18.39108,-0.10741 26.26045,2.34713 26.26045,8.19118 0,1.08541 -6.2352,2.33246 -13.85601,2.7712 -12.62895,0.72709 -13.79964,1.3276 -13.21938,6.7809 0.35016,3.29077 4.50696,10.22527 9.23734,15.41003 12.54645,13.75158 14.0291,17.1632 8.74431,20.12073 -4.20669,2.35418 -4.19552,2.83473 0.17815,7.6675 4.24092,4.68618 4.40091,7.54475 1.75604,31.37673 -1.91904,17.29196 -4.34189,27.65276 -7.11494,30.42576 -4.45238,4.4524 -24.18563,6.6715 -42.46913,4.7759 z m 31.85941,-15.2801 c 2.07369,-2.0737 3.77034,-6.8661 3.77034,-10.6498 0,-5.73004 -0.77173,-6.46828 -4.61867,-4.41833 -6.7336,3.58823 -36.28957,-0.0763 -36.28957,-4.49949 0,-2.5911 4.77748,-3.60721 17.77358,-3.78021 9.77547,-0.13011 18.58394,0.57375 19.57438,1.56417 3.91534,3.91537 6.50853,1.43921 5.71502,-5.4571 -0.83374,-7.24591 -0.87401,-7.25918 -24.36509,-8.02686 -15.4736,-0.50565 -24.16362,0.25627 -25.38066,2.22557 -3.56486,5.76806 0.41122,27.40685 5.91555,32.19375 6.72683,5.8501 32.33033,6.4231 37.90512,0.8483 z M 137.87012,891.38166 c -11.49292,-1.21133 -21.87448,-3.18068 -23.07012,-4.37634 -3.71313,-3.71312 -6.81919,-26.09867 -5.09396,-36.71251 1.86652,-11.48307 7.9479,-13.58428 12.07696,-4.17274 2.4458,5.57481 4.18237,5.93829 28.37184,5.93829 23.52166,0 25.76657,-0.43529 25.76657,-4.99611 0,-5.34072 7.50453,-9.74009 10.75887,-6.30718 1.89933,2.00355 3.51173,20.11184 2.79179,31.35358 -0.49266,7.69276 -7.87956,15.036 -19.01652,18.90412 -5.1836,1.80041 -9.93423,3.11547 -10.55696,2.92238 -0.62274,-0.19319 -10.53554,-1.34216 -22.02847,-2.55349 z m 35.31919,-15.39662 c 6.53475,-12.21027 4.4829,-13.36971 -23.66031,-13.36971 l -26.39241,0 0,7.73416 c 0,8.97115 2.45022,9.83052 29.5986,10.38111 15.03724,0.30497 18.13592,-0.41396 20.45412,-4.74556 z m 24.10959,-71.04442 c -13.43366,-5.02905 -15.65922,-9.24745 -15.91351,-30.16291 -0.142,-11.67361 0.80718,-15.63938 4.03972,-16.87983 6.18995,-2.37531 8.3252,3.08319 6.92134,17.69342 -1.1278,11.73748 -0.66095,13.1642 5.02179,15.34643 8.95423,3.43853 30.48867,8.3358 36.65436,8.3358 3.48111,0 5.24061,1.7722 5.24061,5.27849 0,4.69793 -1.66908,5.24866 -15.17564,5.00727 -8.3466,-0.14912 -20.40149,-2.22757 -26.78867,-4.61867 z m -122.725982,0.0359 c -2.755804,-4.45897 1.38509,-10.98135 6.971788,-10.98135 2.942348,0 9.90787,-1.36565 15.478942,-3.03479 10.328802,-3.09459 13.992822,-9.02246 16.068692,-25.99687 0.45821,-3.74685 2.51765,-6.5981 4.76577,-6.5981 2.89507,0 4.16865,3.59161 4.7396,13.36612 1.11666,19.11671 -2.23432,25.98151 -14.38379,29.46658 -16.947289,4.86132 -31.9316,6.54428 -33.641002,3.77841 z"
       id="path3002"
       inkscape:connector-curvature="0" />
  </g>
</svg>
