<?xml version="1.0" encoding="UTF-8" standalone="no"?>
<!-- Created with Inkscape (http://www.inkscape.org/) -->

<svg
   xmlns:dc="http://purl.org/dc/elements/1.1/"
   xmlns:cc="http://creativecommons.org/ns#"
   xmlns:rdf="http://www.w3.org/1999/02/22-rdf-syntax-ns#"
   xmlns:svg="http://www.w3.org/2000/svg"
   xmlns="http://www.w3.org/2000/svg"
   xmlns:sodipodi="http://sodipodi.sourceforge.net/DTD/sodipodi-0.dtd"
   xmlns:inkscape="http://www.inkscape.org/namespaces/inkscape"
   width="300"
   height="300"
   id="svg2"
   version="1.1"
   inkscape:version="0.47 r22583"
   sodipodi:docname="嘼-seal.svg">
  <defs
     id="defs4">
    <inkscape:perspective
       sodipodi:type="inkscape:persp3d"
       inkscape:vp_x="0 : 526.18109 : 1"
       inkscape:vp_y="0 : 1000 : 0"
       inkscape:vp_z="744.09448 : 526.18109 : 1"
       inkscape:persp3d-origin="372.04724 : 350.78739 : 1"
       id="perspective10" />
    <inkscape:perspective
       id="perspective2824"
       inkscape:persp3d-origin="0.5 : 0.33333333 : 1"
       inkscape:vp_z="1 : 0.5 : 1"
       inkscape:vp_y="0 : 1000 : 0"
       inkscape:vp_x="0 : 0.5 : 1"
       sodipodi:type="inkscape:persp3d" />
    <inkscape:perspective
       id="perspective2897"
       inkscape:persp3d-origin="0.5 : 0.33333333 : 1"
       inkscape:vp_z="1 : 0.5 : 1"
       inkscape:vp_y="0 : 1000 : 0"
       inkscape:vp_x="0 : 0.5 : 1"
       sodipodi:type="inkscape:persp3d" />
  </defs>
  <sodipodi:namedview
     id="base"
     pagecolor="#ffffff"
     bordercolor="#666666"
     borderopacity="1.0"
     inkscape:pageopacity="0.0"
     inkscape:pageshadow="2"
     inkscape:zoom="1.979899"
     inkscape:cx="299.77215"
     inkscape:cy="168.75954"
     inkscape:document-units="px"
     inkscape:current-layer="layer1"
     showgrid="false"
     inkscape:window-width="1280"
     inkscape:window-height="950"
     inkscape:window-x="0"
     inkscape:window-y="25"
     inkscape:window-maximized="1" />
  <metadata
     id="metadata7">
    <rdf:RDF>
      <cc:Work
         rdf:about="">
        <dc:format>image/svg+xml</dc:format>
        <dc:type
           rdf:resource="http://purl.org/dc/dcmitype/StillImage" />
        <dc:title></dc:title>
      </cc:Work>
    </rdf:RDF>
  </metadata>
  <g
     inkscape:label="Calque 1"
     inkscape:groupmode="layer"
     id="layer1"
     transform="translate(0,-752.36218)">
    <path
       style="fill:#000000"
       d="m 102.5447,1030.0076 c -11.538224,-10.4922 -11.879125,-11.3351 -10.675924,-26.3967 0.68359,-8.55714 2.911833,-16.88875 4.951655,-18.51466 2.039823,-1.6259 12.125499,-3.44147 22.412629,-4.03458 9.26905,-0.53441 17.00814,-2.3785 21.21317,-2.76888 0.19485,-3.47299 -0.0922,-11.16235 -0.61167,-14.02042 -3.12403,-1.47696 -19.48114,-1.65631 -79.115383,0.53617 -19.387892,1.34218 -19.571088,5.89776 -21.299191,2.30821 -1.106475,-2.29835 -1.486966,-4.59546 -0.845537,-5.1047 2.334008,-1.85296 30.07781,-4.39115 65.169831,-5.96216 l 35.90446,-1.60739 0.98791,-6.84365 -1.0324,-6.84365 -21.65219,0 c -33.290356,0 -47.068711,-3.87794 -52.85946,-14.87733 -5.928878,-11.26178 -8.802939,-46.01409 -4.437076,-53.65177 4.336484,-7.5863 15.421548,-10.86491 38.405572,-11.35917 33.085324,-0.71149 39.026584,-2.04112 39.026584,-8.73399 0,-4.46403 -1.74957,-5.97953 -7.02479,-6.08506 -3.86363,-0.0771 -18.96692,-0.67784 -33.562866,-1.3346 -24.169477,-1.08753 -27.163669,-1.79685 -33.54735,-7.94745 -6.066114,-5.84463 -7.011363,-9.64628 -7.024785,-28.2529 -0.01873,-26.08797 3.264789,-30.0435 28.43609,-34.25483 27.382931,-4.58139 40.235191,2.83414 40.235191,23.21498 0,10.80861 -3.8184,12.88049 -27.52942,14.93752 -10.848265,0.94114 -21.736682,2.32674 -24.196487,3.07912 -6.310971,1.93035 -5.551494,7.58612 1.871512,13.93704 5.666038,4.84768 9.585853,5.43484 36.684995,5.49527 16.68759,0.0373 38.77083,-1.38715 49.07386,-3.16525 10.30302,-1.7781 22.63208,-3.86916 27.39793,-4.64679 8.9079,-1.45347 18.87107,-9.97272 15.99738,-13.67897 -0.88831,-1.14567 -10.31319,-2.10018 -20.94416,-2.12113 -10.63096,-0.0199 -20.98125,-0.87574 -23.00064,-1.8995 -2.01937,-1.02375 -5.37951,-7.26783 -7.46697,-13.87568 -3.65651,-11.57476 -3.49575,-12.23575 4.39444,-18.06737 6.35365,-4.69599 12.66567,-6.32512 28.15344,-7.26644 29.15407,-1.7719 33.08305,1.44213 35.08929,28.7041 2.33626,31.74659 -5.42048,39.17004 -44.01008,42.11898 -17.59805,1.34481 -18.7926,1.84607 -19.72067,8.27516 -1.1162,7.73236 -1.63512,7.60701 28.52053,6.88842 24.79475,-0.59084 37.37832,2.81132 42.31022,11.43923 1.93994,3.39373 3.49591,16.47649 3.45773,29.07284 -0.0546,17.97828 -1.22925,24.01925 -5.46373,28.09673 -8.08353,7.78371 -25.10633,13.02916 -48.47671,14.93767 -19.56121,1.59743 -20.9212,2.10635 -20.9212,7.82876 l 0,6.12028 43.45432,-1.71906 c 45.44509,-1.79783 56.45374,-0.79653 56.45374,5.13479 0,2.76509 -5.4302,3.62457 -24.19649,3.82974 -13.30807,0.14558 -26.29277,0.64847 -28.87967,0.71948 -23.05505,0.63284 -42.64817,0.0607 -45.12433,2.54527 -1.40995,1.41477 -0.1708,11.17058 1.03575,11.54478 3.91434,1.214 7.97767,0.69056 34.07463,1.18042 9.09168,0.17066 17.33153,1.19172 18.31837,1.97829 3.26843,2.60521 4.98538,23.58283 2.8564,34.89913 -2.06978,11.0015 -2.35283,11.2225 -23.01934,17.9739 -15.78151,5.1555 -27.8551,7.1107 -49.12706,7.9557 l -28.20325,1.1202 -11.9188,-10.8381 z m 52.71467,-2.0627 c 3.43434,-1.2205 11.66982,-2.9338 18.30106,-3.8075 16.91891,-2.2287 26.2636,-10.3427 25.3733,-22.0315 -0.38819,-5.09635 -1.30969,-9.74749 -2.04779,-10.33583 -0.73809,-0.58833 -18.73567,-1.26355 -39.99463,-1.50055 -36.64186,-0.40847 -38.94847,-0.13961 -44.33878,5.16628 -3.32991,3.27785 -5.68612,9.623 -5.68612,15.3125 0,8.0794 1.54328,10.4634 9.16555,14.1582 10.18858,4.9387 29.64098,6.4455 39.22741,3.0384 z m -14.65998,-113.08014 0.95064,-14.69172 -27.84709,1.57556 c -34.099966,1.92931 -38.057798,3.05577 -38.057798,10.8317 0,12.41805 14.214283,18.34586 42.148708,17.57741 l 21.85489,-0.60122 0.95065,-14.69173 z m 58.39867,8.87651 c 10.7959,-2.28035 18.6103,-12.82703 15.89452,-21.45195 -1.63924,-5.206 -3.35594,-5.68568 -18.23291,-5.09468 -9.03281,0.35885 -21.69187,1.47242 -28.13125,2.47466 l -11.70799,1.8222 0,13.35266 0,13.35266 16.42008,-1.24161 c 9.03104,-0.68291 20.62194,-2.12916 25.75755,-3.21394 z M 138.98735,887.6952 c 0.7684,-1.61344 0.72087,-6.57309 -0.10564,-11.02146 -1.3887,-7.47406 -2.39141,-8.08795 -13.21077,-8.08795 -17.6185,0 -44.695884,4.62961 -47.47473,8.11709 -4.231001,5.30993 -2.788216,13.87743 2.478877,14.71999 12.007821,1.92085 56.991663,-0.95478 58.312263,-3.72767 z m 67.00658,-0.63753 c 5.28454,-0.86247 7.02478,-2.88533 7.02478,-8.16544 0,-9.27006 -9.93199,-12.79504 -36.05135,-12.79504 l -20.14693,0 0,10.78392 c 0,5.93119 0.97552,11.56151 2.16781,12.51186 2.04757,1.6321 31.73342,0.15728 47.00569,-2.3353 z M 97.109761,802.3268 c 8.155659,-1.30013 9.756649,-2.7053 9.756649,-8.56322 0,-8.86745 -2.00465,-9.76984 -17.922738,-8.06802 -10.65004,1.13862 -13.499439,2.62252 -15.995651,8.33014 -1.670494,3.81961 -2.215342,7.59989 -1.210779,8.40062 2.377359,1.89495 13.125939,1.8528 25.372519,-0.0995 l 0,-2e-5 z M 206.72666,792.06134 c -0.0986,-8.98423 -4.87705,-11.3424 -20.1947,-9.96621 -16.31325,1.46562 -22.10277,4.59224 -19.29664,10.42106 1.41763,2.94466 6.49114,3.90019 20.70839,3.90019 15.87084,0 18.82325,-0.68454 18.78295,-4.35504 z"
       id="path2903"
       sodipodi:nodetypes="cssscccsscccccssssssssssssssssscsssssssssssscccsssssssssccccsssssssccccsccccsscccccccssssccscccsccsssscccsssc" />
  </g>
</svg>
