<?xml version="1.0" encoding="UTF-8" standalone="no"?>
<!-- Created with Inkscape (http://www.inkscape.org/) -->

<svg
   xmlns:dc="http://purl.org/dc/elements/1.1/"
   xmlns:cc="http://creativecommons.org/ns#"
   xmlns:rdf="http://www.w3.org/1999/02/22-rdf-syntax-ns#"
   xmlns:svg="http://www.w3.org/2000/svg"
   xmlns="http://www.w3.org/2000/svg"
   xmlns:sodipodi="http://sodipodi.sourceforge.net/DTD/sodipodi-0.dtd"
   xmlns:inkscape="http://www.inkscape.org/namespaces/inkscape"
   width="300"
   height="300"
   id="svg2"
   version="1.1"
   inkscape:version="0.48.4 r9939"
   sodipodi:docname="image-seal.svg">
  <defs
     id="defs4" />
  <sodipodi:namedview
     id="base"
     pagecolor="#ffffff"
     bordercolor="#666666"
     borderopacity="1.0"
     inkscape:pageopacity="0.0"
     inkscape:pageshadow="2"
     inkscape:zoom="2.0018437"
     inkscape:cx="145.03351"
     inkscape:cy="130.6666"
     inkscape:document-units="px"
     inkscape:current-layer="layer1"
     showgrid="false"
     inkscape:window-width="1215"
     inkscape:window-height="1000"
     inkscape:window-x="65"
     inkscape:window-y="24"
     inkscape:window-maximized="1"
     fit-margin-top="10"
     fit-margin-left="10"
     fit-margin-right="10"
     fit-margin-bottom="10" />
  <metadata
     id="metadata7">
    <rdf:RDF>
      <cc:Work
         rdf:about="">
        <dc:format>image/svg+xml</dc:format>
        <dc:type
           rdf:resource="http://purl.org/dc/dcmitype/StillImage" />
        <dc:title />
      </cc:Work>
    </rdf:RDF>
  </metadata>
  <g
     inkscape:label="Calque 1"
     inkscape:groupmode="layer"
     id="layer1"
     transform="translate(0,-752.36218)">
    <path
       style="fill:#000000"
       d="m 190.40649,1038.5645 c -12.1659,-40.05085 -7.38355,-57.96892 25.05529,-93.87487 29.41506,-32.55895 30.48776,-66.45792 2.88134,-91.05534 -10.37612,-9.24514 -18.86557,-20.5863 -18.86557,-25.20264 0,-4.76047 -6.80455,-8.39329 -15.7213,-8.39329 -22.47166,0 -22.538,28.36828 -0.0799,34.005 8.60302,2.15922 20.35903,11.12521 26.12447,19.92442 9.79167,14.94392 9.78601,16.69534 -0.0849,26.56655 -9.5905,9.5905 -12.14798,9.68106 -27.65208,0.97881 -9.39631,-5.27399 -18.11754,-15.1515 -19.38053,-21.94996 -2.15193,-11.58364 -1.33832,-11.47114 12.93788,1.78827 17.48228,16.23715 30.14491,18.31123 30.14491,4.93762 0,-23.00687 -58.43779,-29.3801 -71.68387,-7.81783 -5.61923,9.14716 -4.16375,13.36795 7.73004,22.4167 12.47215,9.48881 14.00573,14.5966 10.30507,34.32281 -5.2911,28.20396 1.37272,29.33677 25.35041,4.30953 23.33218,-24.35356 33.05687,-24.34564 15.71219,0.0126 -28.43481,39.933 -60.71361,37.80823 -52.96665,-3.48648 3.17243,-16.9104 1.43818,-21.89581 -9.6881,-27.85042 -20.88361,-11.1764 -14.98315,-38.54467 10.87166,-50.42646 16.17257,-7.43221 20.17377,-12.76708 18.86557,-25.15408 -1.13621,-10.7591 -6.03246,-16.34331 -15.51215,-17.69188 -26.24917,-3.73412 -26.32042,-46.82899 -0.0893,-53.86125 21.65031,-5.80418 71.13079,-4.56773 88.99378,2.22375 12.49127,4.74915 16.13069,10.49831 16.13069,25.48121 0,15.84431 -3.41656,20.53938 -18.86557,25.92487 -10.37606,3.61716 -18.8655,8.91191 -18.8655,11.7662 0,2.8543 8.48944,13.67911 18.8655,24.05517 14.40342,14.40342 18.86003,24.55769 18.84211,42.9313 -0.0251,24.19779 -19.57629,64.94106 -31.16522,64.94106 -13.01366,0 -25.68893,36.90369 -21.55492,62.75643 3.71388,23.2252 -1.06301,35.7673 -6.63558,17.4222 z M 168.03494,804.61293 c 0,-12.26557 -15.68149,-33.29671 -22.79249,-30.568 -10.80601,4.14665 -11.36839,24.98292 -0.78946,29.25163 10.33273,4.16935 23.58195,4.90894 23.58195,1.31637 z m 37.73114,0.11383 c 0,-14.73445 -14.47341,-34.99626 -24.99845,-34.99626 -14.68904,0 -14.74394,0.17985 -6.59987,21.60045 3.79619,9.98479 10.98416,16.13068 18.86557,16.13068 7.00302,0 12.73275,-1.23072 12.73275,-2.73487 z m 28.29828,-16.65471 c 0,-10.97241 -3.93347,-15.7559 -14.14911,-17.20678 -16.31853,-2.31764 -16.72162,-1.08389 -6.77708,20.74199 8.89493,19.52234 20.92619,17.48977 20.92619,-3.53521 z M 61.351293,864.47174 c -8.34065,-15.58466 -8.519936,-82.16419 -0.22135,-82.16419 3.45862,0 6.28852,7.07458 6.28852,15.7213 0,12.57704 3.14426,15.72131 15.7213,15.72131 11.36959,0 15.72131,-3.37864 15.72131,-12.2059 0,-6.71325 2.829837,-13.95486 6.288527,-16.09245 9.22375,-5.70061 8.01982,74.35975 -1.25777,83.63734 -11.552777,11.55277 -35.264017,8.97913 -42.540657,-4.61741 z m 37.50991,-19.27898 c 0,-15.9309 -2.44555,-18.86556 -15.72131,-18.86556 -13.27582,0 -15.7213,2.93466 -15.7213,18.86556 0,15.9309 2.44548,18.86557 15.7213,18.86557 13.27576,0 15.72131,-2.93467 15.72131,-18.86557 z"
       id="path3002"
       inkscape:connector-curvature="0" />
  </g>
</svg>
