<?xml version="1.0" encoding="UTF-8" standalone="no"?>
<svg
   xmlns:dc="http://purl.org/dc/elements/1.1/"
   xmlns:cc="http://creativecommons.org/ns#"
   xmlns:rdf="http://www.w3.org/1999/02/22-rdf-syntax-ns#"
   xmlns:svg="http://www.w3.org/2000/svg"
   xmlns="http://www.w3.org/2000/svg"
   viewBox="0 0 300 300"
   height="300"
   width="300"
   id="svg10"
   version="1.1">
  <metadata
     id="metadata16">
    <rdf:RDF>
      <cc:Work
         rdf:about="">
        <dc:format>image/svg+xml</dc:format>
        <dc:type
           rdf:resource="http://purl.org/dc/dcmitype/StillImage" />
        <dc:title></dc:title>
      </cc:Work>
    </rdf:RDF>
  </metadata>
  <defs
     id="defs14" />
  <path
     id="path20"
     d="M 106.72809,284.99997 C 66.002104,285.01929 49.574995,273.75645 49.553788,232.38566 L 49.478234,88.718605 c -0.02141,-40.719313 0.57383,-73.607347 58.399976,-73.653423 l 81.73985,-0.06513 c 59.63083,-0.04752 60.77611,33.971663 60.80417,73.949209 l 0.0999,142.356749 c 0.0305,43.51162 -16.44341,53.6334 -54.12844,53.65132 z m 128.61607,-54.03468 0.29713,-142.165689 c 0.0997,-47.711683 -5.07321,-59.293052 -45.4024,-59.628172 l -83.0129,-0.689808 C 66.606392,28.144087 64.099988,41.647949 64.120432,88.931979 l 0.06169,142.690741 c 0.01174,29.83835 12.615027,39.69218 42.902958,39.6019 l 89.31031,-0.26625 c 29.92177,-0.0892 38.88509,-9.5254 38.94877,-39.99308 z m -134.71678,-52.67699 0.51806,-56.77282 c 0.34933,-38.282121 17.58126,-43.72611 50.96735,-43.899149 29.56847,-0.153251 49.20753,6.929436 49.16925,44.573529 l -0.0585,57.50072 c -0.0366,35.95576 -20.33357,41.37068 -51.08862,41.24299 -30.69711,-0.12746 -49.85245,-4.8482 -49.50755,-42.64527 z m 87.02511,1.65794 0.14411,-58.08141 c 0.0675,-27.19203 -12.60034,-30.847287 -36.14946,-30.830393 -25.90386,0.01859 -37.05546,4.389666 -37.08821,31.436133 l -0.0676,55.82873 c -0.0349,28.75908 11.32715,28.66857 35.41483,28.71574 25.11947,0.0492 37.67921,-0.0187 37.74633,-27.0688 z"
     style="fill:#000000;stroke-width:0.69473946" />
</svg>
