<?xml version="1.0" encoding="UTF-8" standalone="no"?>
<!-- Created with Inkscape (http://www.inkscape.org/) -->

<svg
   xmlns:dc="http://purl.org/dc/elements/1.1/"
   xmlns:cc="http://creativecommons.org/ns#"
   xmlns:rdf="http://www.w3.org/1999/02/22-rdf-syntax-ns#"
   xmlns:svg="http://www.w3.org/2000/svg"
   xmlns="http://www.w3.org/2000/svg"
   xmlns:sodipodi="http://sodipodi.sourceforge.net/DTD/sodipodi-0.dtd"
   xmlns:inkscape="http://www.inkscape.org/namespaces/inkscape"
   width="300"
   height="300"
   id="svg2"
   version="1.1"
   inkscape:version="0.48.3.1 r9886"
   sodipodi:docname="Nouveau document 1">
  <defs
     id="defs4" />
  <sodipodi:namedview
     id="base"
     pagecolor="#ffffff"
     bordercolor="#666666"
     borderopacity="1.0"
     inkscape:pageopacity="0.0"
     inkscape:pageshadow="2"
     inkscape:zoom="1.979899"
     inkscape:cx="171.10519"
     inkscape:cy="131.67368"
     inkscape:document-units="px"
     inkscape:current-layer="layer1"
     showgrid="false"
     inkscape:window-width="1215"
     inkscape:window-height="1000"
     inkscape:window-x="65"
     inkscape:window-y="24"
     inkscape:window-maximized="1" />
  <metadata
     id="metadata7">
    <rdf:RDF>
      <cc:Work
         rdf:about="">
        <dc:format>image/svg+xml</dc:format>
        <dc:type
           rdf:resource="http://purl.org/dc/dcmitype/StillImage" />
        <dc:title></dc:title>
      </cc:Work>
    </rdf:RDF>
  </metadata>
  <g
     inkscape:label="Calque 1"
     inkscape:groupmode="layer"
     id="layer1"
     transform="translate(0,-752.36218)">
    <path
       style="fill:#000000"
       d="m 107.4282,1031.8855 c -8.690096,-0.8873 -21.330236,-3.942 -28.0892,-6.7884 -15.722649,-6.6212 -34.95083,-22.8217 -35.661101,-30.04591 -0.302311,-3.0745 -1.121357,-8.65082 -1.82018,-12.39184 -0.698824,-3.74103 -2.244123,-32.51288 -3.433997,-63.93746 -2.19784,-58.04513 2.531315,-120.56851 10.198228,-134.82885 5.992268,-11.14555 22.867874,-13.45338 98.25138,-13.43647 72.40256,0.0164 91.10733,2.22218 99.11205,11.68875 5.51412,6.52113 9.14886,68.55726 4.36453,74.49166 -1.42464,1.76712 -1.37949,3.79043 0.10038,4.49628 4.63556,2.211 -1.25263,107.82397 -7.02718,126.04266 -7.85054,24.76838 -14.87334,32.22478 -37.88867,40.22838 -17.05334,5.9302 -24.55259,6.8864 -51.14479,6.5217 -17.13869,-0.2351 -38.27135,-1.1533 -46.96145,-2.0405 z m 89.24799,-15.2995 c 16.87603,-5.464 26.00663,-15.8364 33.45713,-38.00776 4.16447,-12.39277 5.0809,-183.21848 1.00913,-188.10858 -5.40605,-6.4926 -32.48305,-9.1142 -93.86947,-9.08846 -34.76039,0.0136 -65.012213,0.92598 -67.226274,2.02538 -5.033865,2.49957 -11.011212,19.52365 -13.120535,37.36856 -0.884424,7.48204 -2.70011,19.87459 -4.034875,27.53901 -2.569914,14.75682 1.082735,20.06257 9.622449,13.97732 2.644247,-1.88425 7.906687,-4.76519 11.694306,-6.40206 3.787582,-1.63689 10.046559,-4.37496 13.908823,-6.08462 3.862266,-1.70967 16.107406,-6.1186 27.211416,-9.79767 l 20.18911,-6.68919 0,-21.75509 c 0,-22.13727 3.23496,-27.89888 12.36701,-22.02608 3.93209,2.52872 4.55881,7.62418 2.85668,23.22734 l -2.18046,19.98797 14.54528,4.50973 c 7.99991,2.48037 14.54529,5.30228 14.54529,6.27091 0,0.96864 4.96842,3.46533 11.04096,5.5482 14.33725,4.91763 38.11514,23.95627 38.11514,30.51827 0,9.31977 -11.95475,5.43899 -34.53543,-11.21104 -16.72556,-12.33272 -24.65419,-16.32445 -32.42452,-16.32445 l -10.28535,0 0.2672,25.16687 c 0.3804,35.84027 6.15469,45.66862 42.75927,72.77988 20.63318,15.282 26.83177,27.27509 14.0298,27.14498 -9.74496,-0.099 -41.17386,-26.89449 -53.37964,-45.51 -6.13226,-9.35255 -11.67257,-17.00465 -12.31181,-17.00465 -0.63924,0 -5.48133,6.42776 -10.76024,14.28391 -16.44324,24.47118 -37.993905,43.88411 -54.04734,48.68623 -11.807891,3.53209 -16.552334,-2.79473 -6.203885,-8.273 8.623525,-4.56514 19.957166,-13.862 19.957166,-16.37066 0,-0.90862 3.814302,-4.8396 8.476197,-8.73546 14.913992,-12.46331 27.707922,-35.42309 31.649962,-56.79845 4.90381,-26.59047 3.58942,-35.36965 -5.29552,-35.36965 -6.5716,0 -20.64654,4.93958 -24.29719,8.52705 -4.913291,4.82826 -31.05261,13.95377 -39.500438,13.79 l -9.655662,-0.18718 0,34.57887 c 0,38.59989 5.036252,77.47216 11.259134,86.90342 14.163699,21.46615 94.013046,33.91075 134.167256,20.91015 z"
       id="path2996"
       inkscape:connector-curvature="0" />
  </g>
</svg>
