<?xml version="1.0" encoding="UTF-8" standalone="no"?>
<svg
   xmlns:dc="http://purl.org/dc/elements/1.1/"
   xmlns:cc="http://creativecommons.org/ns#"
   xmlns:rdf="http://www.w3.org/1999/02/22-rdf-syntax-ns#"
   xmlns:svg="http://www.w3.org/2000/svg"
   xmlns="http://www.w3.org/2000/svg"
   viewBox="0 0 300 300"
   height="300"
   width="300"
   id="svg3828"
   version="1.1">
  <metadata
     id="metadata3834">
    <rdf:RDF>
      <cc:Work
         rdf:about="">
        <dc:format>image/svg+xml</dc:format>
        <dc:type
           rdf:resource="http://purl.org/dc/dcmitype/StillImage" />
        <dc:title></dc:title>
      </cc:Work>
    </rdf:RDF>
  </metadata>
  <defs
     id="defs3832" />
  <path
     id="path3838"
     d="m 140.52265,268.97555 c -18.13568,-1.46169 -36.66142,-2.93322 -53.026621,-8.01105 -14.809308,-4.10336 -24.005302,-20.55832 -27.53999,-33.7783 -4.95662,-19.38157 -7.02038,-43.72183 -6.88808,-81.23914 1.71698,-35.60676 -0.569214,-81.967786 20.98981,-100.090848 16.08556,-12.160065 30.803751,-15.046784 76.634371,-15.030491 34.02256,1.017892 67.26133,-1.374296 83.14013,24.683573 4.92952,8.186282 6.52307,14.929911 9.44123,39.953507 5.32023,40.567669 4.56582,84.549459 -0.44647,120.944309 -1.7247,14.05003 -7.62026,26.9015 -14.98341,34.36937 -11.51412,12.23531 -32.12754,15.10201 -45.91661,16.90759 -8.32804,1.04988 -35.19769,1.88799 -41.40436,1.29148 z m 26.87651,-14.09527 c 12.56611,-0.72253 25.34492,-2.35715 27.39464,-3.50423 -7.6696,-13.64553 -30.69107,-43.1159 -45.17841,-50.51762 -11.38574,7.19135 -34.91503,38.25574 -44.85471,51.0145 9.23742,2.76981 39.05844,4.36316 62.63848,3.00735 z m -52.63101,-35.18001 c 10.07339,-12.41423 27.97559,-34.88157 33.39127,-35.25712 8.783,-0.21927 24.7224,15.86949 29.15575,20.5322 6.37846,6.8433 18.88366,22.65195 26.14234,33.04828 l 6.21721,8.90466 5.85036,-4.57614 c 11.03591,-8.63227 14.67735,-19.53925 15.20517,-45.54315 l 0.22824,-11.2446 c -12.74164,-7.00881 -23.79306,-12.26281 -34.41521,-20.21026 -12.60581,-9.70482 -23.44223,-24.2839 -27.9229,-37.56689 -6.65681,-28.757007 -6.62667,-52.568433 -7.53985,-83.668604 l -21.28427,0.133498 -0.01,17.251816 c -0.0265,46.29965 -2.66073,62.77465 -12.82817,80.2298 -7.37951,12.66894 -32.305031,32.86777 -51.397141,41.65057 -8.88795,4.08866 -8.15206,2.2303 -6.92241,17.48145 1.51649,18.80884 5.75328,32.04992 12.84808,40.15359 2.27012,2.59293 7.32825,5.63829 9.72576,5.85563 0.24625,0.0223 10.846291,-12.20631 23.555641,-27.17473 z m -8.10021,-76.59288 c 4.79623,-4.61234 6.24138,-6.58272 8.83897,-12.05137 7.74245,-16.29999 9.7615,-30.02398 9.7615,-66.351279 V 45.496166 c -15.0959,0.434918 -33.164611,3.421527 -43.751751,11.696808 -6.75822,5.456116 -12.19837,22.913339 -13.62367,43.717766 -1.40698,20.53718 -0.67873,70.93155 1.0107,69.93999 12.534174,-8.32819 26.580679,-17.12306 37.764251,-27.74334 z m 124.29229,-19.3153 c -1.56749,-49.622723 -3.69594,-59.876418 -14.31605,-68.96684 -12.72181,-9.700411 -22.8343,-8.798281 -40.29499,-9.336604 -0.63007,20.152025 -1.97455,41.087569 1.64965,60.870034 1.50755,7.67945 4.31013,16.89352 6.88172,22.6251 8.57141,14.83553 23.53637,26.62759 33.58349,32.62788 6.87194,4.10053 12.73959,7.48351 13.03923,7.51773 1.18408,-15.10464 -0.12955,-32.18114 -0.54305,-45.3373 z"
     style="fill:#000000;stroke-width:0.72639227" />
</svg>
