<?xml version="1.0" encoding="UTF-8" standalone="no"?>
<!-- Created with Inkscape (http://www.inkscape.org/) -->

<svg
   xmlns:dc="http://purl.org/dc/elements/1.1/"
   xmlns:cc="http://creativecommons.org/ns#"
   xmlns:rdf="http://www.w3.org/1999/02/22-rdf-syntax-ns#"
   xmlns:svg="http://www.w3.org/2000/svg"
   xmlns="http://www.w3.org/2000/svg"
   xmlns:sodipodi="http://sodipodi.sourceforge.net/DTD/sodipodi-0.dtd"
   xmlns:inkscape="http://www.inkscape.org/namespaces/inkscape"
   width="300"
   height="300"
   id="svg2"
   version="1.1"
   inkscape:version="0.48.2 r9819"
   sodipodi:docname="Nouveau document 1">
  <defs
     id="defs4" />
  <sodipodi:namedview
     id="base"
     pagecolor="#ffffff"
     bordercolor="#666666"
     borderopacity="1.0"
     inkscape:pageopacity="0.0"
     inkscape:pageshadow="2"
     inkscape:zoom="0.98994949"
     inkscape:cx="221.27419"
     inkscape:cy="199.25692"
     inkscape:document-units="px"
     inkscape:current-layer="layer1"
     showgrid="false"
     inkscape:window-width="1280"
     inkscape:window-height="999"
     inkscape:window-x="0"
     inkscape:window-y="24"
     inkscape:window-maximized="1" />
  <metadata
     id="metadata7">
    <rdf:RDF>
      <cc:Work
         rdf:about="">
        <dc:format>image/svg+xml</dc:format>
        <dc:type
           rdf:resource="http://purl.org/dc/dcmitype/StillImage" />
        <dc:title></dc:title>
      </cc:Work>
    </rdf:RDF>
  </metadata>
  <g
     inkscape:label="Calque 1"
     inkscape:groupmode="layer"
     id="layer1"
     transform="translate(0,-752.36218)">
    <path
       style="fill:#000000"
       d="m 121.99041,1019.7752 c -13.17772,-4.2628 -30.026048,-7.7464 -35.240637,-22.51121 -10.744673,-24.76073 -6.730205,-52.30852 -8.007489,-78.49617 -0.140254,-21.87907 -0.039,-43.75894 -0.191267,-65.63797 11.182289,-9.46888 21.569563,-21.18432 36.195723,-25.19757 8.74956,-7.95175 29.23222,-1.39875 30.19564,-17.17416 -2.61238,-10.57152 -13.79278,-27.26891 3.05607,-32.07709 13.41707,-5.97861 21.11966,8.37857 17.10042,19.67153 0.87062,7.97971 -3.71964,20.57583 8.54333,17.86744 13.24152,1.91945 26.61038,5.25845 38.51083,11.41729 16.10004,10.73825 20.75323,31.36522 20.72931,49.57368 2.56029,39.8826 0.86996,79.85738 -0.0233,119.7653 -19.337,11.06253 -40.29059,21.51623 -63.14075,21.05503 -15.85757,1.4524 -31.80055,2.5354 -47.72786,1.7439 z m 62.13977,-24.68015 c 13.29447,2.25117 19.24965,-19.19791 6.7314,-24.25884 -9.64795,-11.19029 -19.91834,-21.86128 -28.89873,-33.61396 -10.96426,10.60984 -23.35511,19.58594 -35.82315,28.32298 -3.73932,9.25694 -29.042365,7.94572 -19.31754,21.15348 9.8831,9.9363 24.08451,15.35369 38.10195,13.52249 13.17371,-0.90956 26.30549,-2.17408 39.20607,-5.12615 z m -74.44685,-33.64014 c 14.47372,-12.527 33.11741,-20.12583 45.02729,-35.57141 2.6642,-10.61323 -9.49082,-24.36217 -18.35565,-25.04555 -10.89575,5.14295 -18.48333,15.2946 -29.46935,20.42447 -8.734951,6.93801 -12.027282,18.99573 -10.323552,29.73712 -3.513645,8.21656 6.181542,20.50978 13.121262,10.45537 l 0,0 z m 107.82919,-27.11383 c -2.15978,-8.37493 6.0967,-28.29796 -6.04016,-28.43908 -9.9545,5.70457 -23.08653,10.35568 -26.2757,22.67896 1.98516,12.97381 12.41238,22.84808 18.97326,33.56338 10.00592,6.95567 15.52217,-6.15154 12.67522,-14.34517 0.28962,-4.48223 0.56306,-8.96702 0.66738,-13.45809 z M 112.9224,902.35451 c 8.69992,-4.07934 19.52086,-13.08064 15.57206,-23.82648 -6.66078,-7.52019 -6.86275,-19.47309 -15.3898,-25.48384 -11.87585,-1.20955 -13.422787,15.96679 -16.22082,24.54596 -1.368615,10.41122 -2.961657,23.50922 1.271716,32.44923 6.283324,0.93934 9.245914,-6.29936 14.766844,-7.68487 z m 67.93809,6.52372 c 9.95381,-10.31668 24.88305,-14.65346 33.80771,-25.97292 3.64201,-8.13951 4.52331,-20.45956 -3.65145,-26.10272 -9.35184,-2.22707 -17.12559,6.07822 -24.96144,10.05852 -7.41013,5.56139 -16.3204,8.93448 -23.12868,15.243 -9.85046,8.12112 -4.01962,21.86369 5.50557,27.11563 3.72809,2.48332 8.97923,2.89599 12.42829,-0.34151 z M 163.2653,863.76078 c 10.54658,-6.02492 18.05314,-18.0663 31.04418,-19.16449 11.65609,-9.74068 -11.54491,-13.80323 -18.9072,-12.67109 -15.28063,-0.6798 -31.56426,-0.72486 -45.61018,6.01661 -7.64786,9.20156 4.82206,20.37986 7.64853,29.49818 8.26455,12.79064 17.5205,1.68957 25.82467,-3.67921 z"
       id="path3022"
       inkscape:connector-curvature="0" />
  </g>
</svg>
