<?xml version="1.0" encoding="UTF-8" standalone="no"?>
<!-- Created with Inkscape (http://www.inkscape.org/) -->

<svg
   xmlns:dc="http://purl.org/dc/elements/1.1/"
   xmlns:cc="http://creativecommons.org/ns#"
   xmlns:rdf="http://www.w3.org/1999/02/22-rdf-syntax-ns#"
   xmlns:svg="http://www.w3.org/2000/svg"
   xmlns="http://www.w3.org/2000/svg"
   xmlns:sodipodi="http://sodipodi.sourceforge.net/DTD/sodipodi-0.dtd"
   xmlns:inkscape="http://www.inkscape.org/namespaces/inkscape"
   width="300"
   height="300"
   viewBox="0 0 300 300"
   id="svg2"
   version="1.1"
   inkscape:version="0.91 r13725"
   sodipodi:docname="國-seal.svg">
  <defs
     id="defs4">
    <clipPath
       clipPathUnits="userSpaceOnUse"
       id="clipPath4204">
      <rect
         style="fill:#0000ff;fill-rule:evenodd;stroke:#000000;stroke-width:1px;stroke-linecap:butt;stroke-linejoin:miter;stroke-opacity:1"
         id="rect4206"
         width="15.451179"
         height="21.584471"
         x="164.41942"
         y="794.64594" />
    </clipPath>
  </defs>
  <sodipodi:namedview
     id="base"
     pagecolor="#ffffff"
     bordercolor="#666666"
     borderopacity="1.0"
     inkscape:pageopacity="0.0"
     inkscape:pageshadow="2"
     inkscape:zoom="1.71"
     inkscape:cx="150"
     inkscape:cy="150"
     inkscape:document-units="px"
     inkscape:current-layer="layer1"
     showgrid="false"
     inkscape:window-width="1280"
     inkscape:window-height="751"
     inkscape:window-x="0"
     inkscape:window-y="1"
     inkscape:window-maximized="1"
     units="px"
     showguides="false" />
  <metadata
     id="metadata7">
    <rdf:RDF>
      <cc:Work
         rdf:about="">
        <dc:format>image/svg+xml</dc:format>
        <dc:type
           rdf:resource="http://purl.org/dc/dcmitype/StillImage" />
        <dc:title></dc:title>
      </cc:Work>
    </rdf:RDF>
  </metadata>
  <g
     inkscape:label="Layer 1"
     inkscape:groupmode="layer"
     id="layer1"
     transform="translate(0,-752.36216)">
    <path
       style="fill:#000000"
       d="m 106.95588,767.58762 c -40.298889,-1.107 -48.171376,0.52645 -50.53206,36.54214 -3.295211,41.25782 -3.107548,75.78128 -3.287596,104.41253 -0.595043,91.80551 0.155419,95.26361 23.827221,109.92651 27.336105,25.5282 79.891685,19.3874 117.390305,14.5529 27.22743,-6.269 37.90675,-12.7447 44.00788,-26.6852 8.08694,-18.47805 11.67172,-146.52116 5.50417,-196.56918 -0.49804,-4.0414 -1.07449,-10.98419 -1.28287,-15.42973 -0.63184,-13.47446 -8.59344,-18.39339 -35.82812,-22.13635 -44.54773,-3.54752 -77.26756,-4.62011 -99.79893,-4.61362 z m 57.95663,12.6443 -1.06906,18.44074 c -1.90569,32.86464 1.76055,30.27915 -42.01688,29.64329 -36.172603,-0.52539 -38.340898,-0.23502 -38.340898,5.14324 0,6.2361 6.20906,6.9087 53.270428,5.76506 l 24.16902,0.62933 c 1.27105,10.2657 2.45211,44.06321 7.79873,44.86346 4.18487,1.98802 4.96037,14.55739 -0.39232,20.8162 -1.81949,2.1275 -2.77593,14.29414 -1.38684,44.99651 1.0685,23.61587 1.89077,46.48901 1.8282,50.82825 -0.14185,9.8247 5.52377,13.7496 10.33944,7.1637 3.57606,-4.8906 3.13628,-63.51692 -0.64731,-86.29548 -2.15934,-12.99989 5.41898,-15.85956 16.15158,-6.0946 9.58212,8.71822 22.75803,17.08333 26.90885,17.08333 6.76213,0 2.42275,-10.85751 -7.92867,-19.83934 -6.05493,-5.25382 -11.86298,-9.55286 -12.90715,-9.55286 -1.04419,0 -4.07329,-3.31962 -6.73212,-7.37747 -5.89753,-9.00074 -2.63722,-16.91311 9.32531,-22.6287 4.54023,-2.16924 8.46863,-6.72544 8.99774,-10.43556 1.23409,-8.65309 -1.46153,-8.32043 -18.10139,2.23226 -7.64714,4.84968 -14.51871,8.81727 -15.27085,8.81727 -0.75213,0 -1.3672,-7.37596 -1.3672,-16.39089 l 0,-16.39091 9.55285,0.52374 c 25.15055,1.37695 37.47388,-0.0976 37.47388,-4.48219 0,-2.42483 -1.65332,-4.5965 -3.67403,-4.82547 -8.68559,-0.98368 -16.16345,-1.55194 -27.18739,-2.06553 -24.4739,-1.14023 -24.89338,-12.52648 -0.61986,-16.8401 14.46959,-2.57139 15.36573,-3.24834 16.23594,-12.27356 1.06296,-11.02473 -4.6827,-13.03032 -10.5258,-3.67403 -2.34207,3.75027 -6.85434,5.87884 -12.46383,5.87884 -8.08932,0 -8.79176,-0.82417 -8.79176,-10.28845 -1e-5,-11.79321 0.95078,-12.03411 28.11717,-7.15189 9.59211,1.72387 19.09367,5.28253 21.11437,7.90906 5.94326,7.72506 5.13932,172.58687 -0.94352,193.51108 -5.79893,19.94765 -9.05329,23.13365 -29.80609,29.16665 -35.39406,2.4776 -87.82801,12.8518 -115.152153,-12.7522 -13.529364,-13.30353 -15.330354,-26.10238 -14.860873,-105.56596 0.829723,-29.74379 -3.226783,-59.26304 1.275022,-88.03341 0.973492,-6.16291 2.750486,-15.17209 3.948646,-20.02177 -0.746036,-16.23679 30.658408,-8.07956 47.929058,-9.62543 z m -47.02085,77.06626 c -9.68433,0.13312 -19.399388,2.54555 -24.023384,7.16955 -3.098152,3.09814 -4.473992,10.17033 -4.409615,22.664 0.09441,18.33713 2.844654,24.96683 12.597219,30.35926 12.57686,6.95402 38.65115,-0.35775 43.11144,-12.08917 3.97771,-10.46217 1.84102,-36.31158 -3.43864,-41.59122 -4.4986,-4.49861 -14.15271,-6.64554 -23.83702,-6.51242 z m 2.90116,11.63801 c 11.68042,0.22707 15.59843,4.99281 15.59843,17.44426 0,8.27308 -1.71975,12.43569 -6.53204,15.80635 -6.52743,4.57199 -9.5706,4.91002 -22.26385,2.48139 -6.23022,-1.19202 -6.6859,-2.584 -5.87883,-17.96997 l 0.87486,-16.67729 12.70903,-0.91408 c 1.99661,-0.14366 3.82377,-0.2031 5.4924,-0.17066 z m -3.33075,76.03447 c -21.381184,0 -39.665691,0.79122 -40.632013,1.75757 -0.966371,0.96632 -1.044436,3.61202 -0.17458,5.87883 1.246519,3.24831 9.816048,4.12126 40.455473,4.12126 21.38116,0 39.66569,-0.79125 40.63201,-1.75756 0.96637,-0.96633 1.0464,-3.61204 0.17655,-5.87884 -1.24651,-3.24831 -9.81803,-4.12126 -40.45744,-4.12126 z"
       id="path4385"
       inkscape:connector-curvature="0"
       sodipodi:nodetypes="cccccsscccccsscccsscssssssssssssccscssssssssscccccccssssssssssssccsscsscss" />
  </g>
</svg>
