<?xml version="1.0" encoding="UTF-8" standalone="no"?>
<!-- Created with Inkscape (http://www.inkscape.org/) -->

<svg
   xmlns:dc="http://purl.org/dc/elements/1.1/"
   xmlns:cc="http://creativecommons.org/ns#"
   xmlns:rdf="http://www.w3.org/1999/02/22-rdf-syntax-ns#"
   xmlns:svg="http://www.w3.org/2000/svg"
   xmlns="http://www.w3.org/2000/svg"
   xmlns:sodipodi="http://sodipodi.sourceforge.net/DTD/sodipodi-0.dtd"
   xmlns:inkscape="http://www.inkscape.org/namespaces/inkscape"
   width="300"
   height="300"
   viewBox="0 0 300.00001 300.00001"
   id="svg2"
   version="1.1"
   inkscape:version="0.91 r13725"
   sodipodi:docname="圓-seal.svg">
  <defs
     id="defs4" />
  <sodipodi:namedview
     id="base"
     pagecolor="#ffffff"
     bordercolor="#666666"
     borderopacity="1.0"
     inkscape:pageopacity="0.0"
     inkscape:pageshadow="2"
     inkscape:zoom="1.33"
     inkscape:cx="147.92594"
     inkscape:cy="133.29041"
     inkscape:document-units="px"
     inkscape:current-layer="layer1"
     showgrid="false"
     units="px"
     inkscape:window-width="990"
     inkscape:window-height="650"
     inkscape:window-x="39"
     inkscape:window-y="10"
     inkscape:window-maximized="0" />
  <metadata
     id="metadata7">
    <rdf:RDF>
      <cc:Work
         rdf:about="">
        <dc:format>image/svg+xml</dc:format>
        <dc:type
           rdf:resource="http://purl.org/dc/dcmitype/StillImage" />
        <dc:title></dc:title>
      </cc:Work>
    </rdf:RDF>
  </metadata>
  <g
     inkscape:label="Layer 1"
     inkscape:groupmode="layer"
     id="layer1"
     transform="translate(0,-752.36208)">
    <path
       style="fill:#000000"
       d="m 62.300045,1026.622 c -12.428331,-8.7043 -12.75368,-11.7521 -12.75368,-119.41012 0,-81.99125 1.937206,-113.12646 7.513115,-120.75202 10.64533,-14.55833 48.49963,-19.9193 114.83887,-16.26396 81.98426,4.51755 78.4929,-1.41496 78.4929,133.37525 0,139.94425 5.97947,131.98395 -99.14565,131.98395 -59.672146,0 -78.957081,-1.9372 -88.945555,-8.9331 z m 50.368935,-16.89 c 0,-7.8904 -2.39785,-14.34605 -5.32854,-14.34605 -16.238486,0 -23.363526,-19.25016 -23.363526,-63.12262 0,-53.94178 4.63024,-60.35756 47.054726,-65.20029 64.17584,-7.32551 85.19166,8.21845 84.27246,62.33097 -0.79043,46.53009 -5.079,55.64658 -32.86337,69.86325 -1.07717,0.55122 -0.25598,6.36654 1.82488,12.92304 3.02468,9.5288 6.87041,11.1993 19.17382,8.3269 30.54446,-7.1303 32.52538,-13.1475 33.60048,-102.06289 0.87535,-72.37669 -3.22112,-119.43473 -11.081,-127.29469 -1.36523,-1.36506 -33.76988,-3.09727 -72.01031,-3.84917 -94.347966,-1.85505 -89.944398,-7.31636 -90.449343,112.17739 -0.216243,51.17138 1.586448,98.66459 4.005941,105.54036 2.736041,7.7756 10.477545,13.416 20.477696,14.921 8.8432,1.3304 18.015276,2.8064 20.382366,3.2787 2.36702,0.4732 4.30372,-5.5961 4.30372,-13.4859 z m 2.86932,-156.83946 c -14.8125,-3.34527 -17.459906,-6.82011 -18.967286,-24.89385 -1.47183,-17.6492 0.36215,-21.69486 11.476836,-25.31714 16.3642,-5.33304 81.40654,-5.27504 90.07182,0.0804 7.1077,4.39283 8.78179,41.2677 2.06032,45.38218 -8.53563,5.22482 -67.80881,8.54998 -84.64169,4.74836 z m 53.79751,-16.03057 c 42.8366,-8.56726 4.80166,-29.71285 -39.86975,-22.16579 -34.574996,5.84147 -26.74777,16.53593 18.35079,25.07339 1.97258,0.37343 11.65611,-0.93502 21.51896,-2.9076 z m -5.02096,170.00073 c 0,-8.92628 -3.82569,-11.47675 -17.21528,-11.47675 -13.38978,0 -17.21518,2.55047 -17.21518,11.47675 0,8.9272 3.8254,11.477 17.21518,11.477 13.38959,0 17.21528,-2.5498 17.21528,-11.477 z M 194.246,970.62404 c 8.68203,-13.65336 3.5942,-15.40703 -44.698,-15.40703 -43.28413,0 -48.97083,1.1766 -47.31188,9.79058 1.03705,5.3848 8.32765,11.70664 16.20151,14.04852 19.26378,5.72942 70.4214,0.0384 75.80837,-8.43207 z m 4.49935,-41.23003 c 0,-6.97608 -9.24513,-8.60758 -48.7766,-8.60758 -39.53134,0 -48.77653,1.6315 -48.77653,8.60758 0,6.97623 9.24519,8.60754 48.77653,8.60754 39.53147,0 48.7766,-1.63131 48.7766,-8.60754 z M 180.09549,899.9543 c 35.48007,-9.50814 -12.45829,-24.13744 -51.62697,-15.75486 -37.420156,8.00822 -34.329056,19.38601 5.24127,19.29334 18.41092,-0.0428 39.28442,-1.63545 46.3857,-3.53848 z"
       id="path3616"
       inkscape:connector-curvature="0" />
  </g>
</svg>
