<?xml version="1.0" encoding="UTF-8" standalone="no"?>
<svg
   xmlns:dc="http://purl.org/dc/elements/1.1/"
   xmlns:cc="http://creativecommons.org/ns#"
   xmlns:rdf="http://www.w3.org/1999/02/22-rdf-syntax-ns#"
   xmlns:svg="http://www.w3.org/2000/svg"
   xmlns="http://www.w3.org/2000/svg"
   viewBox="0 0 300 300"
   height="300"
   width="300"
   id="svg123"
   version="1.1">
  <metadata
     id="metadata129">
    <rdf:RDF>
      <cc:Work
         rdf:about="">
        <dc:format>image/svg+xml</dc:format>
        <dc:type
           rdf:resource="http://purl.org/dc/dcmitype/StillImage" />
        <dc:title></dc:title>
      </cc:Work>
    </rdf:RDF>
  </metadata>
  <defs
     id="defs127" />
  <path
     id="path133"
     d="m 214.86824,279.95686 c -6.15932,-0.43106 -40.24574,-0.57644 -86.44067,-0.36868 -74.208031,0.33374 -76.443121,0.3039 -82.627121,-1.10355 l -6.35593,-1.44657 v -4.25497 c 0,-2.34023 0.24785,-4.40814 0.55078,-4.59536 1.37179,-0.84781 12.402,-2.6957 20.50413,-3.43506 6.68597,-0.61013 13.27361,-0.59497 26.43137,0.0608 17.805641,0.88744 53.353931,1.0925 55.782271,0.32177 1.27752,-0.40544 1.33193,-2.87961 1.33193,-60.56161 v -60.13891 l -34.66003,-0.5368 c -38.999911,-0.60401 -39.895721,-0.71945 -42.436291,-5.46841 -0.74472,-1.39207 -1.35404,-3.53804 -1.35404,-4.76881 0,-2.09305 0.29361,-2.33945 4.53995,-3.80988 8.31122,-2.87802 13.15748,-3.20834 39.075801,-2.6634 13.4015,0.28178 26.7435,0.2736 29.64889,-0.0182 l 5.2825,-0.5305 -0.50902,-41.870571 c -0.38641,-31.784133 -0.29068,-43.532952 0.39738,-48.771319 0.93791,-7.140426 3.19317,-15.614518 4.34504,-16.326413 1.3354,-0.825323 6.29504,1.869933 7.69281,4.180565 1.35572,2.241114 1.43245,4.463713 1.82374,52.823814 0.22466,27.766344 0.46982,50.594854 0.54479,50.730014 0.075,0.13516 14.27373,0.13516 31.55279,0 30.82582,-0.24113 36.98733,0.095 40.35362,2.20117 0.52077,0.32583 1.40379,2.52358 1.96229,4.88389 1.18978,5.02826 1.07447,5.19205 -5.34654,7.59446 -7.36477,2.75552 -13.89616,3.19177 -34.51154,2.30515 -10.44079,-0.44904 -22.47009,-0.62322 -26.73178,-0.38707 l -7.74851,0.42936 -0.42403,6.61788 c -0.23322,3.63984 -0.50546,30.69762 -0.60499,60.12841 l -0.18097,53.51053 3.63196,0.4114 c 1.99758,0.22626 21.93705,0.46291 44.30993,0.52587 22.37288,0.063 43.09087,0.36432 46.03997,0.66967 5.99923,0.62116 8.27943,2.14805 9.48493,6.35138 0.62367,2.17459 0.50844,2.43118 -1.57577,3.50897 -6.50666,3.36472 -10.10854,4.06792 -21.98787,4.29273 -6.39225,0.12096 -16.19855,-0.10034 -21.79177,-0.49179 z"
     style="fill:#000000;stroke-width:0.72639227" />
</svg>
