<?xml version="1.0" encoding="UTF-8" standalone="no"?>
<!-- Created with Inkscape (http://www.inkscape.org/) -->
<svg
   xmlns:svg="http://www.w3.org/2000/svg"
   xmlns="http://www.w3.org/2000/svg"
   version="1.0"
   width="300"
   height="300"
   id="svg2">
  <defs
     id="defs5" />
  <path
     d="M 114.7149,163.44347 C 103.00655,162.6765 92.190852,170.1932 80.505734,169.79957 C 68.464077,159.38668 103.63944,154.79872 114.98293,144.9871 C 115.73409,131.85147 114.85972,111.11742 114.48939,97.985413 C 101.22112,98.019063 87.306789,101.00756 74.602592,96.152928 C 72.457571,87.115773 90.778436,87.891232 98.013789,86.647627 C 104.13285,86.209812 108.84606,84.647329 114.96512,84.209515 C 114.24711,65.488245 112.51675,47.725737 115.3789,29.085672 C 117.10257,18.09344 130.22087,23.275407 126.70705,33.019582 C 127.54101,48.367931 124.27792,68.683252 128.24308,83.696992 C 135.97873,87.834696 150.47068,80.744741 153.63582,90.025676 C 150.15891,101.78461 137.54003,91.077669 127.26412,98.551476 C 125.98633,111.16743 127.4469,130.30603 127.71221,142.94298 C 133.52983,143.42238 140.05744,141.64674 145.27117,144.677 C 150.1575,158.53602 124.29918,151.69667 127.82547,167.45835 C 125.3143,203.9971 128.14712,240.72568 125.48763,277.27469 C 119.95378,288.6333 114.56211,274.35826 116.3214,267.58743 C 115.25275,232.8744 116.85892,198.12311 114.7149,163.44347 z M 140.27388,245.74586 C 129.87061,234.57482 152.29117,233.59844 159.69666,234.21314 C 169.26248,233.01751 178.2205,235.10579 189.30011,229.0773 C 191.23321,187.17021 189.67746,165.57277 189.61354,134.40244 C 176.62985,132.58688 162.97208,136.4314 150.36165,132.12799 C 145.68046,120.9011 162.12303,123.77172 169.27765,122.64031 C 182.96683,120.47553 180.1238,120.9985 187.66727,119.98664 C 187.93791,100.33174 185.24296,62.530945 186.48842,41.287112 C 189.70573,25.839403 203.61003,39.502979 200.42206,49.428007 C 199.91914,72.222641 200.2476,95.023091 200.43767,117.81964 C 212.02551,118.3968 225.13023,115.93525 234.9939,123.28537 C 235.74756,131.92493 217.72612,128.00646 211.16003,131.50002 C 208.16087,133.59819 199.66103,131.65988 200.43767,136.76187 C 200.43767,167.47167 200.43767,198.18147 200.43767,228.89127 C 215.08896,229.15381 229.81709,228.21706 244.40352,229.69932 C 254.82314,235.40056 243.2089,240.29929 234.14361,239.55277 C 202.93869,242.74129 171.75091,247.82188 140.27388,245.74586 z "
     style="fill:black;fill-opacity:1"
     id="path1875" />
</svg>
