<?xml version="1.0" encoding="UTF-8" standalone="no"?>
<svg
   xmlns:dc="http://purl.org/dc/elements/1.1/"
   xmlns:cc="http://creativecommons.org/ns#"
   xmlns:rdf="http://www.w3.org/1999/02/22-rdf-syntax-ns#"
   xmlns:svg="http://www.w3.org/2000/svg"
   xmlns="http://www.w3.org/2000/svg"
   viewBox="0 0 300 300"
   height="300"
   width="300"
   id="svg35"
   version="1.1">
  <metadata
     id="metadata41">
    <rdf:RDF>
      <cc:Work
         rdf:about="">
        <dc:format>image/svg+xml</dc:format>
        <dc:type
           rdf:resource="http://purl.org/dc/dcmitype/StillImage" />
        <dc:title></dc:title>
      </cc:Work>
    </rdf:RDF>
  </metadata>
  <defs
     id="defs39" />
  <path
     id="path45"
     d="m 217.7128,284.95552 -133.673681,0.0445 c -7.340027,0.003 -10.017027,-1.52508 -10.097381,-5.3302 -0.09136,-4.32629 4.294453,-6.50659 11.214303,-6.53951 l 59.893969,-0.28498 -0.14361,-38.53521 -38.9467,-0.10671 c -4.63378,-0.0127 -5.8742,-2.99876 -5.85026,-5.72778 0.0248,-2.82523 2.37446,-5.59388 6.1596,-5.82256 l 38.57055,-0.18726 -0.13686,-57.49598 c -0.0155,-6.52458 1.85081,-8.61933 5.27443,-8.83736 3.723,-0.23708 6.83481,1.1644 6.90837,8.80496 l 0.31814,57.58678 36.33511,-0.0952 c 4.43842,-0.0117 8.20691,1.59334 8.46585,4.8323 0.29434,3.68189 -1.86516,6.94722 -8.6286,6.95223 l -36.1502,0.0268 0.21381,38.73501 61.55324,0.0228 c 4.09734,0.002 10.17831,0.4694 10.09647,7.01107 -0.0611,4.88108 -6.06314,5.02953 -11.37655,4.94648 z M 64.943117,210.00098 c -1.909298,-3.11531 0.802722,-7.60709 3.629797,-9.35508 l 23.476051,-14.51537 c 10.854655,-6.71149 25.699745,-14.45005 29.098305,-22.83849 2.26952,-5.60171 2.04753,-23.82129 1.67639,-37.60044 l -58.286517,33.45668 c -3.896788,2.23677 -8.175791,1.83968 -9.74825,-1.02434 -1.628622,-2.96632 -1.167892,-5.65804 4.524181,-9.08819 24.809456,-14.95061 71.680756,-43.80445 87.184056,-43.75666 l -0.14169,-18.781692 c -13.51551,-0.271427 -34.82298,0.62195 -42.81112,-11.917858 -4.994515,-7.840398 -4.811829,-30.591164 -4.888011,-43.355659 -0.03289,-5.511559 1.746311,-10.896201 5.889151,-10.94566 4.15567,-0.04962 6.12226,4.849299 6.16783,10.835432 0.10756,15.953904 -0.71301,32.330467 3.14229,37.045575 6.41914,7.850727 20.70775,6.28172 32.48041,6.160857 l -0.38814,-48.838272 c -0.034,-4.282026 1.13086,-10.394437 5.81034,-10.479841 5.49567,-0.132936 6.03693,6.412963 6.10447,10.160995 l 0.89045,49.406723 c 12.49582,-0.06699 26.13946,1.413518 30.86953,-4.733597 4.50855,-5.859241 4.29524,-20.044467 4.68195,-41.003267 0.07,-3.793412 0.31417,-8.592801 6.15365,-8.549748 4.35849,0.03214 4.70746,6.107555 4.7381,8.34922 0.21312,15.592499 1.70223,38.336918 -7.05987,48.897343 -7.99502,9.635913 -22.07054,8.570498 -39.36467,8.810442 l -0.10304,19.318417 c 19.1793,1.42249 54.85821,24.27632 83.61628,43.43399 2.93445,1.95483 4.8303,7.63258 3.06255,10.42873 -1.62196,2.56554 -6.3163,1.41432 -9.66781,-0.25466 -1.52191,-0.75788 -14.22442,-8.41735 -28.22779,-17.02105 l -25.8915,-15.49949 c -0.43005,13.44349 -1.62622,30.3528 0.1462,34.05837 3.88292,8.11797 10.90198,12.93925 24.08024,20.99132 l 27.75436,16.95824 c 3.8314,2.34104 6.64147,5.96273 4.21358,10.47806 -1.77043,3.29261 -6.83244,1.20311 -9.68772,-0.55607 l -27.36547,-16.86036 c -10.7422,-6.61845 -26.54744,-15.13867 -30.4624,-26.10448 -2.83976,-7.95421 -1.89014,-20.71635 -1.04442,-45.38301 -10.25862,-4.86555 -23.46095,-4.29061 -34.16998,0.30777 0.23249,29.15644 0.58079,39.73298 -2.54481,47.20542 -3.63352,8.68672 -11.04938,13.6247 -32.528291,26.38968 l -25.747998,15.30209 c -2.380024,1.41446 -7.923844,2.37942 -9.260903,0.46793 z"
     style="fill:#000000;stroke-width:0.69456851" />
</svg>
