<?xml version="1.0" encoding="UTF-8" standalone="no"?>
<!-- Created with Inkscape (http://www.inkscape.org/) -->

<svg
   xmlns:dc="http://purl.org/dc/elements/1.1/"
   xmlns:cc="http://creativecommons.org/ns#"
   xmlns:rdf="http://www.w3.org/1999/02/22-rdf-syntax-ns#"
   xmlns:svg="http://www.w3.org/2000/svg"
   xmlns="http://www.w3.org/2000/svg"
   xmlns:sodipodi="http://sodipodi.sourceforge.net/DTD/sodipodi-0.dtd"
   xmlns:inkscape="http://www.inkscape.org/namespaces/inkscape"
   width="300"
   height="300"
   id="svg2"
   version="1.1"
   inkscape:version="0.48.4 r9939"
   sodipodi:docname="image-seal.svg">
  <defs
     id="defs4" />
  <sodipodi:namedview
     id="base"
     pagecolor="#ffffff"
     bordercolor="#666666"
     borderopacity="1.0"
     inkscape:pageopacity="0.0"
     inkscape:pageshadow="2"
     inkscape:zoom="1.979899"
     inkscape:cx="130.93154"
     inkscape:cy="137.35134"
     inkscape:document-units="px"
     inkscape:current-layer="layer1"
     showgrid="false"
     inkscape:window-width="1215"
     inkscape:window-height="1000"
     inkscape:window-x="65"
     inkscape:window-y="24"
     inkscape:window-maximized="1"
     fit-margin-top="10"
     fit-margin-left="10"
     fit-margin-right="10"
     fit-margin-bottom="10" />
  <metadata
     id="metadata7">
    <rdf:RDF>
      <cc:Work
         rdf:about="">
        <dc:format>image/svg+xml</dc:format>
        <dc:type
           rdf:resource="http://purl.org/dc/dcmitype/StillImage" />
        <dc:title />
      </cc:Work>
    </rdf:RDF>
  </metadata>
  <g
     inkscape:label="Calque 1"
     inkscape:groupmode="layer"
     id="layer1"
     transform="translate(0,-752.36218)">
    <path
       style="fill:#000000"
       d="m 64.893588,1030.2082 c -6.312142,-1.3706 -14.368637,-4.1174 -17.903323,-6.1041 -5.599306,-3.1471 -4.543904,-3.8433 8.197565,-5.4075 8.043354,-0.9875 27.025155,-2.6534 42.181731,-3.7021 15.156579,-1.0486 28.805529,-2.678 30.330999,-3.6208 3.17512,-1.9623 3.77649,-34.24637 0.78323,-42.04671 -1.56876,-4.08812 -7.17067,-5.18673 -26.44778,-5.18673 -23.758644,0 -39.046525,-4.10341 -35.66608,-9.57308 0.913009,-1.47727 14.877274,-3.71996 31.031701,-4.98369 18.187179,-1.42275 30.772989,-3.98616 33.051669,-6.73182 2.02399,-2.43874 3.22555,-11.55764 2.67015,-20.26425 l -1.00981,-15.83012 -23.19676,-2.0737 c -12.758201,-1.14054 -29.075167,-3.06687 -36.259971,-4.28073 -11.37744,-1.9222 -14.202309,-1.06795 -21.889871,6.61963 -7.822836,7.82281 -13.263785,7.42785 -5.911806,-0.42916 1.603165,-1.71328 6.154131,-13.44401 10.113273,-26.06827 3.959127,-12.62425 8.69587,-25.74947 10.526094,-29.16713 6.539984,-12.21244 15.634261,-43.15472 15.713495,-53.4633 0.07876,-10.22655 -0.418797,-10.59007 -19.673397,-14.37817 -20.544048,-4.04179 -29.261904,-9.55977 -15.103506,-9.55977 4.486275,0 10.381529,-2.22465 13.100569,-4.94369 2.719024,-2.71904 5.726226,-3.6775 6.682686,-2.12992 0.956459,1.54757 13.072167,3.77177 26.923831,4.94268 13.851623,1.17086 27.141953,3.75316 29.534033,5.73843 6.14398,5.09903 7.84952,18.21331 8.69817,66.88227 l 0.74316,42.61804 14.75561,-0.58006 c 8.1156,-0.31905 15.8623,-0.68375 17.2149,-0.81044 4.37275,-0.40966 2.61982,-12.42828 -4.09879,-28.10212 -4.57286,-10.66808 -6.55804,-22.58511 -6.55804,-39.36793 0,-22.50458 0.6556,-24.72426 10.08929,-34.15795 6.70296,-6.70293 13.58151,-10.2159 20.49393,-10.46646 20.4643,-0.74185 51.68605,1.02361 60.47929,3.41987 8.02322,2.18639 7.2537,2.68771 -7.44733,4.85167 -35.57416,5.23644 -35.90771,5.72449 -23.99753,35.11546 8.97587,22.14996 17.3177,34.70152 41.21241,62.01076 15.58628,17.81351 13.49042,22.46052 -4.02551,8.92558 -32.30367,-24.96166 -47.04447,-45.19772 -61.01933,-83.76691 -8.36026,-23.07346 -20.84532,-3.93883 -17.75002,27.2037 3.16134,31.80681 5.37515,46.25598 7.59377,49.56311 1.23349,1.83871 12.94835,5.32632 26.03297,7.75021 13.08461,2.42391 23.13669,5.06065 22.33795,5.85938 -2.6646,2.66462 -49.22544,10.59693 -62.52331,10.65174 -17.6363,0.0728 -22.21589,3.41484 -19.50105,14.23156 1.20609,4.80547 3.50498,9.54817 5.10869,10.53928 1.60367,0.99115 2.91578,4.44834 2.91578,7.68264 0,5.09692 4.23883,6.17849 31.80973,8.11653 17.49538,1.22981 32.57716,3.0034 33.51507,3.9413 3.01244,3.01244 -7.6343,7.80045 -17.77892,7.9955 -5.41039,0.10397 -17.95267,2.07757 -27.87173,4.38561 l -18.03465,4.19647 -0.95364,21.19742 -0.95364,21.19737 44.76498,4.2211 c 24.62074,2.3216 47.18331,5.1681 50.13905,6.3255 18.2474,7.1452 -153.442135,17.4687 -183.169982,11.0138 z M 117.00746,887.02473 c 4.70569,-4.82718 -2.18321,-84.03503 -7.80665,-89.75962 -3.81246,-3.88102 -5.25372,-2.71805 -9.639356,7.77824 -2.83616,6.78789 -5.178108,14.74363 -5.204375,17.67944 -0.07801,8.7351 -9.337781,32.75249 -20.051041,52.0074 l -10.025736,18.01923 24.79378,-1.25199 c 13.636588,-0.68863 26.206608,-2.70134 27.933378,-4.4727 z"
       id="path3067"
       inkscape:connector-curvature="0" />
  </g>
</svg>
