<?xml version="1.0" encoding="UTF-8" standalone="no"?>
<svg
   xmlns:dc="http://purl.org/dc/elements/1.1/"
   xmlns:cc="http://creativecommons.org/ns#"
   xmlns:rdf="http://www.w3.org/1999/02/22-rdf-syntax-ns#"
   xmlns:svg="http://www.w3.org/2000/svg"
   xmlns="http://www.w3.org/2000/svg"
   viewBox="0 0 300 300"
   height="300"
   width="300"
   id="svg50"
   version="1.1">
  <metadata
     id="metadata56">
    <rdf:RDF>
      <cc:Work
         rdf:about="">
        <dc:format>image/svg+xml</dc:format>
        <dc:type
           rdf:resource="http://purl.org/dc/dcmitype/StillImage" />
        <dc:title></dc:title>
      </cc:Work>
    </rdf:RDF>
  </metadata>
  <defs
     id="defs54" />
  <path
     id="path60"
     d="m 49.527414,279.18216 c 0,-2.71288 0.222321,-3.00933 3.206606,-4.27608 2.67889,-1.1371 5.969328,-1.41089 19.994117,-1.66367 l 16.7875,-0.30256 -0.497638,-69.29581 -23.229248,-0.12613 c -2.727344,-0.0149 -7.687242,-0.25729 -8.893861,-2.64742 -2.062874,-4.08624 -0.06331,-8.14366 4.868071,-8.19828 l 27.203246,-0.30137 -0.173664,-33.54025 c -0.06621,-12.7858 0.04513,-20.33532 2.997175,-25.90369 2.256904,-4.25716 6.079616,-2.96332 7.459486,-0.50394 1.904686,3.39479 2.430676,11.15993 2.391886,26.97925 l -0.0807,32.89862 15.84446,0.0231 c 10.04958,0.0146 13.24491,0.66575 14.02083,3.11733 2.10267,6.64365 -7.98674,8.07442 -12.13959,8.09622 l -17.7413,0.0378 -0.33451,69.13293 17.01228,0.37725 c 18.76638,0.41614 19.83976,0.67579 22.27689,5.38869 1.36504,2.63967 1.24544,2.81272 -3.45067,4.99257 -2.09985,0.97471 -5.42237,1.24523 -16.22164,1.32076 -19.872,0.009 -34.390454,-0.0506 -57.370387,0.15211 -5.311594,0.0468 -13.917901,-1.14437 -13.92936,-5.75735 z m 121.618786,5.81698 c -9.18831,0.0375 -10.6906,-1.12767 -10.71836,-3.85677 0.28966,-6.63885 2.06603,-6.87924 6.79855,-6.87103 l 30.86209,0.0536 0.85241,-70.79672 -13.98474,-0.117 c -15.32958,-0.30607 -18.89219,0.16161 -18.85931,-6.20035 0,-3.74223 0.63483,-3.91786 14.71265,-4.07059 6.61776,-0.12186 12.58925,-0.47435 18.35943,-0.54929 l 0.69635,-55.1029 c 0.33394,-2.4061 1.54853,-7.23772 4.77552,-7.60202 3.86771,-0.43663 7.06183,3.09393 7.19085,6.39777 l 0.16139,55.59715 24.44859,0.34069 c 3.11527,0.16266 5.94368,3.67344 6.60949,5.99208 0.80468,2.80229 -4.32386,4.66597 -12.89695,4.68666 -6.17239,-0.001 -10.61026,-0.0518 -18.34321,0.0528 l 0.0278,71.25793 31.36984,0.16345 c 6.1039,0.26147 9.99253,6.19032 4.9396,8.73751 -3.25339,1.49135 -4.87088,1.65545 -17.542,1.69614 z M 64.349862,124.65911 c -8.25773,-1.85906 -6.417584,-7.77771 -1.480005,-9.42933 8.230032,-2.73109 12.431997,-1.62913 47.557123,-1.75525 l 35.09215,-0.126 0.24801,-41.471098 -28.76743,0.0032 C 103.2234,71.882232 99.471714,71.497534 95.409671,70.285734 88.453327,68.210501 89.20046,62.844897 93.244752,61.554929 99.164574,59.666741 113.12757,59.823103 125.22179,59.71027 l 20.74071,-0.193499 c 0.0928,-8.665156 0.12233,-8.603819 0.12869,-17.793237 0.0104,-14.665391 0.19974,-17.317313 1.55085,-21.691723 1.78341,-5.773997 3.21911,-6.377309 6.75699,-2.83943 3.31562,3.315612 3.81031,6.644034 3.69816,24.881988 -0.0561,9.123493 -0.13046,17.368702 -0.13046,17.368702 l 18.95575,0.441986 c 10.63247,0.247914 28.12454,-0.246685 31.66485,3.915852 5.25291,6.176158 -6.44213,7.786899 -9.38572,7.928399 l -41.5003,0.04117 -0.21403,41.040542 c 18.78954,0.38537 34.8007,0.32626 50.41635,0.34612 32.93026,0.0419 36.28342,0.66934 36.28342,6.86162 0,2.85675 -0.035,2.89014 -4.33834,4.14179 -3.9311,1.14338 -12.15959,1.2693 -87.65747,1.34145 -62.963714,0.0601 -84.438718,-0.0769 -87.841378,-0.84292 z"
     style="fill:#000000;stroke-width:0.75449473" />
</svg>
