<?xml version="1.0" encoding="UTF-8" standalone="no"?>
<!-- Created with Inkscape (http://www.inkscape.org/) -->

<svg
   xmlns:dc="http://purl.org/dc/elements/1.1/"
   xmlns:cc="http://creativecommons.org/ns#"
   xmlns:rdf="http://www.w3.org/1999/02/22-rdf-syntax-ns#"
   xmlns:svg="http://www.w3.org/2000/svg"
   xmlns="http://www.w3.org/2000/svg"
   xmlns:sodipodi="http://sodipodi.sourceforge.net/DTD/sodipodi-0.dtd"
   xmlns:inkscape="http://www.inkscape.org/namespaces/inkscape"
   width="300"
   height="300"
   id="svg2"
   version="1.1"
   inkscape:version="0.48.4 r9939"
   sodipodi:docname="image-seal.svg">
  <defs
     id="defs4" />
  <sodipodi:namedview
     id="base"
     pagecolor="#ffffff"
     bordercolor="#666666"
     borderopacity="1.0"
     inkscape:pageopacity="0.0"
     inkscape:pageshadow="2"
     inkscape:zoom="2.7366667"
     inkscape:cx="150"
     inkscape:cy="150"
     inkscape:document-units="px"
     inkscape:current-layer="layer1"
     showgrid="false"
     inkscape:window-width="1215"
     inkscape:window-height="1000"
     inkscape:window-x="65"
     inkscape:window-y="24"
     inkscape:window-maximized="1" />
  <metadata
     id="metadata7">
    <rdf:RDF>
      <cc:Work
         rdf:about="">
        <dc:format>image/svg+xml</dc:format>
        <dc:type
           rdf:resource="http://purl.org/dc/dcmitype/StillImage" />
        <dc:title />
      </cc:Work>
    </rdf:RDF>
  </metadata>
  <g
     inkscape:label="Calque 1"
     inkscape:groupmode="layer"
     id="layer1"
     transform="translate(0,-752.36218)">
    <path
       style="fill:#000000"
       d="m 145.96766,1044.5566 c -2.7388,-3.3001 -0.47542,-6 12.47743,-14.8839 8.70273,-5.9689 18.13951,-12.7591 20.97063,-15.0894 2.83112,-2.3303 11.49402,-9.3212 19.25089,-15.53536 13.65013,-10.93535 21.20846,-20.3629 31.32828,-39.07594 5.12275,-9.47271 4.98838,-21.65326 -0.23868,-21.65326 -1.71626,0 -12.18903,8.57976 -23.27281,19.06614 -36.99703,35.00293 -58.59389,51.54922 -67.28407,51.54922 -5.13627,0 -7.02891,-12.85506 -2.14864,-14.59386 3.81566,-1.35949 28.06668,-22.81893 55.89941,-49.46475 17.19069,-16.45762 23.62287,-24.42517 22.36486,-27.70351 -1.52337,-3.96982 -3.22405,-3.5126 -12.38409,3.3294 -5.84001,4.36217 -16.94201,13.96882 -24.67109,21.34813 -7.72909,7.3793 -15.67332,13.41691 -17.65384,13.41691 -1.98052,0 -3.60095,1.27108 -3.60095,2.82462 0,1.55353 -2.46714,2.82461 -5.48253,2.82461 -3.01539,0 -6.26809,1.27108 -7.22823,2.82461 -2.71777,4.39745 -21.18461,3.51493 -21.18461,-1.01239 0,-2.11036 6.67315,-8.49127 14.82923,-14.17982 30.4059,-21.20695 40.28543,-28.89755 52.33858,-40.74229 10.09252,-9.91804 11.74279,-12.9049 8.97362,-16.24153 -4.56174,-5.49658 -10.9468,-5.15368 -16.49322,0.88574 -18.12876,19.74013 -51.17437,35.98132 -51.17437,25.15107 0,-4.03507 6.28926,-10.01283 31.69511,-30.12535 8.83083,-6.99092 16.11619,-13.50988 16.18969,-14.48654 0.0735,-0.97667 -3.50966,-3.28489 -7.96259,-5.12936 -10.18844,-4.22017 -13.61065,-11.2864 -15.80751,-32.63946 -4.17222,-40.55304 -4.45477,-62.14354 -0.86867,-66.37843 10.16941,-12.00927 55.69689,-15.67223 71.91122,-5.78568 l 9.00651,5.49164 0.87964,33.33623 c 1.02039,38.67086 -3.4066,54.30453 -17.43102,61.55687 -12.10882,6.26172 -12.56604,8.96194 -3.48033,20.55407 4.54454,5.7982 9.90809,13.71988 11.91899,17.60373 2.01087,3.88384 4.48043,7.69707 5.48786,8.47384 11.90069,9.17587 20.9094,43.71101 15.23046,58.38621 -4.01824,10.38376 -46.02818,54.30479 -62.77971,65.63569 -18.28569,12.3686 -34.47402,16.6449 -39.60531,10.4621 z M 209.5435,848.594 c 4.95445,-3.30819 9.60286,-13.79392 9.60286,-21.66182 0,-5.93802 -1.40322,-7.31056 -7.76769,-7.59771 -11.63657,-0.52504 -38.68926,0.77403 -39.88488,1.91529 -0.57554,0.54936 -0.19196,6.69688 0.85239,13.66113 1.26787,8.45481 3.49275,13.08217 6.69566,13.92589 8.02641,2.11436 27.2001,1.96172 30.50166,-0.24292 z m 9.05147,-59.27365 -0.86092,-13.41691 -21.18461,0 -21.1846,0 -1.60754,12.04477 c -0.88414,6.62462 -0.99007,12.66221 -0.23537,13.41692 0.75467,0.75468 11.39855,1.37214 23.65305,1.37214 l 22.2809,0 -0.86091,-13.41692 z M 52.922368,944.30599 c -2.094779,-1.335 -3.349599,-4.8171 -2.78849,-7.73803 0.849474,-4.42202 4.08662,-5.47125 19.344067,-6.26988 10.078126,-0.5275 18.959404,-1.5852 19.736173,-2.35042 0.776769,-0.76524 1.793913,-15.90433 2.260321,-33.64242 0.913754,-34.75123 1.616685,-33.25328 -15.186833,-32.3631 -11.490318,0.60873 -17.004834,-5.74004 -11.977725,-13.78971 2.751058,-4.40516 6.578673,-5.87057 15.333643,-5.87057 l 11.667415,0 1.551756,-13.41691 c 0.853462,-7.37931 1.719049,-22.94999 1.923519,-34.60152 0.595969,-33.96053 2.635748,-37.76817 16.195086,-30.23125 4.58282,2.54732 5.52854,4.57624 3.57402,7.66758 -1.46178,2.31203 -2.67725,19.13882 -2.70104,37.39289 l -0.0433,33.18921 10.82116,0 c 8.64995,0 11.57897,1.41601 14.59809,7.05727 4.78735,8.94527 2.94532,10.66077 -11.44704,10.66077 -6.39128,0 -12.08951,1.4155 -12.66274,3.14558 -0.57323,1.73008 -1.42014,16.7536 -1.882,33.38558 l -0.83977,30.23998 11.29845,0.83077 c 9.84989,0.72426 11.40902,1.78493 12.16082,8.27302 l 0.86237,7.4422 -35.313458,0.35641 c -19.422409,0.19603 -36.970004,0.96464 -38.994656,1.70808 -2.024655,0.74343 -5.395101,0.25958 -7.489879,-1.07553 z"
       id="path3028"
       inkscape:connector-curvature="0" />
  </g>
</svg>
