<?xml version="1.0" encoding="UTF-8" standalone="no"?>
<!-- Created with Inkscape (http://www.inkscape.org/) -->

<svg
   xmlns:dc="http://purl.org/dc/elements/1.1/"
   xmlns:cc="http://creativecommons.org/ns#"
   xmlns:rdf="http://www.w3.org/1999/02/22-rdf-syntax-ns#"
   xmlns:svg="http://www.w3.org/2000/svg"
   xmlns="http://www.w3.org/2000/svg"
   xmlns:sodipodi="http://sodipodi.sourceforge.net/DTD/sodipodi-0.dtd"
   xmlns:inkscape="http://www.inkscape.org/namespaces/inkscape"
   width="300"
   height="300"
   id="svg2"
   version="1.1"
   inkscape:version="0.48.4 r9939"
   sodipodi:docname="image-seal.svg">
  <defs
     id="defs4" />
  <sodipodi:namedview
     id="base"
     pagecolor="#ffffff"
     bordercolor="#666666"
     borderopacity="1.0"
     inkscape:pageopacity="0.0"
     inkscape:pageshadow="2"
     inkscape:zoom="1.979899"
     inkscape:cx="150.2687"
     inkscape:cy="146.9783"
     inkscape:document-units="px"
     inkscape:current-layer="layer1"
     showgrid="false"
     inkscape:window-width="1215"
     inkscape:window-height="1000"
     inkscape:window-x="65"
     inkscape:window-y="24"
     inkscape:window-maximized="1" />
  <metadata
     id="metadata7">
    <rdf:RDF>
      <cc:Work
         rdf:about="">
        <dc:format>image/svg+xml</dc:format>
        <dc:type
           rdf:resource="http://purl.org/dc/dcmitype/StillImage" />
        <dc:title />
      </cc:Work>
    </rdf:RDF>
  </metadata>
  <g
     inkscape:label="Calque 1"
     inkscape:groupmode="layer"
     id="layer1"
     transform="translate(0,-752.36218)">
    <path
       style="fill:#000000"
       d="m 81.593399,1038.0389 c -0.658206,-1.7391 0.983299,-7.7987 3.647811,-13.4658 2.664483,-5.6671 6.333335,-17.0501 8.152979,-25.29544 1.819672,-8.24537 4.377132,-18.97562 5.683289,-23.845 3.824382,-14.25737 8.278112,-47.81404 9.064662,-68.29768 l 0.72845,-18.97158 -19.560352,0.66888 c -22.329069,0.76355 -29.653309,-1.83586 -24.845665,-8.81788 2.794554,-4.05848 9.220695,-4.56768 65.666897,-5.2033 34.41306,-0.38753 69.04358,-1.75045 76.95667,-3.02873 18.44108,-2.97896 34.51343,0.5819 34.51343,7.64651 0,4.49151 -2.04338,4.9402 -22.49829,4.9402 l -22.49826,0 0.44343,22.13351 c 0.5753,28.71609 9.35527,68.72473 19.29017,87.90165 11.40696,22.01846 15.19806,32.93506 13.13095,37.81146 -2.13144,5.028 -10.0835,4.3422 -13.13668,-1.1331 -11.43928,-20.514 -18.0722,-35.88319 -21.83354,-50.59085 -8.36818,-32.72122 -10.47527,-49.19247 -11.41428,-89.22561 l -0.16459,-7.01544 -23.05328,1.48163 c -36.69955,2.35865 -34.31906,0.95366 -38.42419,22.6784 -1.98188,10.48822 -3.04258,19.57718 -2.35716,20.19767 0.68545,0.62047 5.89775,-0.16417 11.58291,-1.74364 10.22822,-2.84166 12.39026,-6.84884 10.46803,-19.4018 -0.65946,-4.3066 5.45438,-18.03479 8.03179,-18.03479 5.44343,0 8.60287,7.61767 8.60287,20.74226 0,14.38225 0.15425,14.67135 7.82414,14.67135 7.42934,0 14.53056,3.88126 14.53056,7.94184 0,1.02902 -4.71545,2.22422 -10.47876,2.65602 l -10.47877,0.78509 -0.83649,17.48037 c -0.87977,18.38502 1.67334,22.95062 11.31526,20.23458 8.53395,-2.40393 16.47901,1.38234 15.53175,7.40172 -0.57387,3.64652 -2.52448,5.21974 -5.84234,4.71206 -2.73948,-0.41917 -17.03358,0.45448 -31.76471,1.94143 -25.71365,2.59554 -26.98904,2.4894 -31.91959,-2.65686 l -5.13574,-5.36043 -1.27156,5.94855 c -5.32022,24.88865 -11.179496,44.77785 -14.607056,49.58315 -4.438245,6.2224 -11.154237,7.5247 -13.044773,2.5296 z m 58.830081,-81.94918 c 0.78502,-17.40938 0.57826,-18.07273 -5.58867,-17.9313 -3.52212,0.0807 -8.4577,-0.67666 -10.96794,-1.68319 -4.76733,-1.91155 -6.00503,1.6583 -9.83153,28.35637 l -1.56226,10.90003 13.56762,-0.78186 13.56759,-0.78188 0.81519,-18.07817 z M 117.85586,854.46205 c -11.54633,-6.29469 -15.97111,-16.32856 -15.97111,-36.21697 l 0,-17.48438 -16.73757,0.59836 c -17.538375,0.627 -24.355678,-2.28127 -21.444703,-9.1483 1.286453,-3.03477 5.924138,-3.96435 19.778301,-3.96435 l 18.097772,0 0.85168,-12.01533 c 0.77437,-10.9244 1.48598,-12.01534 7.83753,-12.01534 6.35156,0 7.06319,1.09094 7.83753,12.01534 l 0.85168,12.01533 34.07752,0.002 34.07752,0.002 -0.96826,-12.64929 c -0.85761,-11.20355 -0.33781,-12.64929 4.54792,-12.64929 7.13947,0 11.06219,4.45855 12.24054,13.91249 0.93397,7.4935 1.15601,7.58863 17.71184,7.58863 15.82782,0 16.80654,0.35386 17.48989,6.32386 1.01527,8.86942 -3.55792,14.88834 -8.15222,10.72942 -1.90826,-1.72743 -8.8766,-3.14078 -15.48521,-3.14078 l -12.01565,0 -0.3093,15.80965 c -0.17018,8.6953 -0.0891,18.30866 0.17995,21.36298 0.75598,8.58037 -4.97889,16.02421 -15.37469,19.95626 -13.76453,5.2062 -58.91517,4.53246 -69.12098,-1.03143 z m 49.25617,-9.6801 7.94337,-1.39052 -9.34055,-7.23336 c -5.1373,-3.97834 -11.03259,-7.27962 -13.10068,-7.33616 -3.0031,-0.0822 -14.6248,5.99017 -22.70513,11.86329 -0.72393,0.52619 0.47451,1.95857 2.6632,3.18307 4.50192,2.5187 22.63133,2.99825 34.53979,0.91368 z M 132.1843,824.2274 c 4.07769,-3.48541 2.48847,-10.68555 -2.35853,-10.68555 -1.63463,0 -4.0595,-2.56116 -5.3886,-5.69147 -2.39201,-5.63375 -2.44778,-5.61926 -5.49864,1.42944 -3.41733,7.89547 -4.08943,20.21376 -1.24345,22.79008 1.7611,1.59422 6.36307,-0.89665 14.48922,-7.8425 z m 53.53055,-7.18233 0,-16.73317 -11.74362,10.31829 c -6.45897,5.67503 -11.17442,10.71657 -10.47877,11.20335 12.41927,8.69063 17.81463,11.94466 19.80489,11.94466 1.32963,0 2.4175,-7.52992 2.4175,-16.73313 z m -29.34054,-8.56231 c 2.78173,-2.7825 6.74896,-5.05909 8.8161,-5.05909 2.06715,0 3.75842,-1.13842 3.75842,-2.52979 0,-1.47372 -7.58247,-2.34069 -18.16319,-2.07678 -17.11179,0.42678 -21.84487,2.24823 -15.32328,5.89684 1.56195,0.87386 1.9844,2.84192 0.93879,4.37348 -1.2159,1.78093 -0.25736,2.21361 2.65926,1.20045 2.50822,-0.87128 5.30362,-0.49559 6.21197,0.8349 2.4987,3.65987 5.5227,2.94077 11.10193,-2.64001 z"
       id="path3046"
       inkscape:connector-curvature="0" />
  </g>
</svg>
