<?xml version="1.0" encoding="UTF-8" standalone="no"?>
<!-- Created with Inkscape (http://www.inkscape.org/) -->

<svg
   xmlns:dc="http://purl.org/dc/elements/1.1/"
   xmlns:cc="http://creativecommons.org/ns#"
   xmlns:rdf="http://www.w3.org/1999/02/22-rdf-syntax-ns#"
   xmlns:svg="http://www.w3.org/2000/svg"
   xmlns="http://www.w3.org/2000/svg"
   xmlns:sodipodi="http://sodipodi.sourceforge.net/DTD/sodipodi-0.dtd"
   xmlns:inkscape="http://www.inkscape.org/namespaces/inkscape"
   width="300"
   height="300"
   id="svg2"
   version="1.1"
   inkscape:version="0.48.4 r9939"
   sodipodi:docname="image-seal.svg">
  <defs
     id="defs4" />
  <sodipodi:namedview
     id="base"
     pagecolor="#ffffff"
     bordercolor="#666666"
     borderopacity="1.0"
     inkscape:pageopacity="0.0"
     inkscape:pageshadow="2"
     inkscape:zoom="1.979899"
     inkscape:cx="154.69485"
     inkscape:cy="171.68677"
     inkscape:document-units="px"
     inkscape:current-layer="layer1"
     showgrid="false"
     inkscape:window-width="1215"
     inkscape:window-height="1000"
     inkscape:window-x="65"
     inkscape:window-y="24"
     inkscape:window-maximized="1" />
  <metadata
     id="metadata7">
    <rdf:RDF>
      <cc:Work
         rdf:about="">
        <dc:format>image/svg+xml</dc:format>
        <dc:type
           rdf:resource="http://purl.org/dc/dcmitype/StillImage" />
        <dc:title />
      </cc:Work>
    </rdf:RDF>
  </metadata>
  <g
     inkscape:label="Calque 1"
     inkscape:groupmode="layer"
     id="layer1"
     transform="translate(0,-752.36218)">
    <path
       style="fill:#000000"
       d="m 112.97206,1023.5958 c 0.96624,-11.6086 2.44059,-33.05545 3.2763,-47.65974 l 1.51947,-26.5533 -41.295835,0 c -41.267562,0 -41.295243,-0.006 -40.42557,-6.12768 0.737664,-5.19398 3.360116,-6.55381 17.210751,-8.92441 l 16.340485,-2.79673 1.130217,-14.90546 c 0.621619,-8.198 1.234388,-25.93529 1.361708,-39.4162 l 0.23149,-24.51072 -17.189265,-0.81518 c -16.901471,-0.8015 -17.175071,-0.93829 -16.340494,-8.17024 0.789043,-6.83732 1.807326,-7.3817 14.465859,-7.73344 7.489389,-0.20806 14.986322,-0.51451 16.659861,-0.68085 1.99746,-0.19853 3.483301,-12.50126 4.324998,-35.81055 1.399945,-38.76982 3.693414,-45.13711 13.169261,-36.56156 5.395384,4.88274 5.589237,6.86223 3.780645,38.60812 l -1.906309,33.4615 10.929008,0 c 12.92265,0 19.68625,5.78867 14.31936,12.25537 -1.91791,2.31095 -7.85501,4.08512 -13.67048,4.08512 l -10.280154,0 -1.043367,34.72352 c -1.443219,48.03055 -1.765972,46.97891 14.417841,46.97891 8.69853,0 13.381,-1.17772 13.53493,-3.40428 0.12935,-1.87233 0.52505,-10.14471 0.87909,-18.38303 2.56437,-59.66852 5.46143,-94.90138 8.10014,-98.51005 2.22318,-3.04035 10.3149,-4.72432 28.93593,-6.02182 37.71111,-2.6277 54.34553,-4.76297 55.83114,-7.16671 0.72246,-1.16898 0.55306,-5.92789 -0.37644,-10.57534 l -1.68999,-8.44997 -43.2342,0 c -40.75611,0 -43.2342,-0.29849 -43.2342,-5.20745 0,-6.13315 6.01493,-7.34341 49.71288,-10.00276 41.06137,-2.49888 55.95559,4.29048 55.95559,25.50675 0,16.74666 -5.73009,24.48984 -19.66983,26.58026 -6.64385,0.9963 -13.14442,1.15344 -14.4457,0.34922 -1.30124,-0.80422 -4.11138,-0.38348 -6.24471,0.93497 -3.23636,2.00019 -3.10208,2.69526 0.81091,4.19679 2.57928,0.98977 4.68964,3.87443 4.68964,6.41036 0,6.01154 5.26966,11.14696 11.43833,11.14696 2.69618,0 4.90214,1.22555 4.90214,2.72342 0,1.49788 1.59399,2.72342 3.54218,2.72342 5.97531,0 18.2014,6.62787 18.22391,9.87935 0.0106,1.68893 -1.78448,4.5694 -3.99143,6.401 -3.24186,2.69051 -6.44663,1.96985 -16.68351,-3.75167 -6.96895,-3.89503 -13.74201,-7.08185 -15.05124,-7.08185 -1.30921,0 -2.38038,4.26604 -2.38038,9.48007 0,8.08989 1.09824,9.74402 7.48938,11.28011 9.85127,2.3677 28.74599,11.84654 31.27757,15.6909 3.27287,4.97006 2.35554,12.57037 -1.51725,12.57037 -1.98082,0 -10.54254,-3.75946 -19.02609,-8.35431 -15.76576,-8.5391 -20.94704,-8.58856 -20.94704,-0.1999 0,2.60778 -1.47063,6.21204 -3.26809,8.0095 -5.94224,5.94226 -10.00223,3.47755 -10.86542,-6.59609 l -0.84526,-9.86419 -15.91043,15.31675 c -8.75071,8.4242 -17.02309,14.62906 -18.38305,13.78859 -4.61083,-2.84968 -2.50115,-9.9183 6.33932,-21.24042 11.3675,-14.55851 12.86766,-15.97419 21.82647,-20.59685 7.98402,-4.11969 10.2986,-13.83774 3.29578,-13.83774 -2.3065,0 -8.99812,2.45108 -14.87028,5.44684 -5.87217,2.99575 -12.56379,5.44683 -14.87028,5.44683 -2.30649,0 -4.2874,2.14468 -4.40199,4.76597 -0.11472,2.62129 -0.74788,7.21705 -1.40728,10.21281 -0.65939,2.99575 -1.84492,21.37879 -2.63449,40.8512 -3.50874,86.53151 -5.70909,112.28811 -10.06247,117.78771 -1.48216,1.8723 -5.12977,3.4042 -8.10583,3.4042 -5.08475,0 -5.3051,-1.2726 -3.65423,-21.1064 z M 151.3001,851.33985 c 2.71112,-2.99576 7.01147,-5.44683 9.55637,-5.44683 5.04717,0 19.03947,-11.74951 19.03947,-15.9877 0,-1.44689 0.8145,-4.75323 1.80998,-7.34744 1.63719,-4.26642 0.0746,-4.57741 -16.36698,-3.25762 -9.99732,0.80248 -19.71363,2.7344 -21.59178,4.29314 -1.87817,1.55872 -3.71784,9.66489 -4.08817,18.01367 -0.74109,16.70758 2.71443,19.59662 11.64111,9.73278 z m -0.76664,186.90035 c -3.41744,-1.6884 -8.6054,-8.0101 -11.5288,-14.0481 -4.59263,-9.4855 -4.95337,-13.1884 -2.65339,-27.23413 1.46406,-8.94077 2.669,-20.3567 2.67768,-25.36873 0.0164,-9.93775 6.63267,-34.74483 11.00582,-41.27037 2.33717,-3.48751 3.5234,-3.14827 8.10864,2.31888 4.98864,5.94817 5.48748,6.0451 7.00848,1.3617 8.5114,-26.20815 10.35767,-28.3413 17.95444,-20.74452 4.33891,4.33892 5.11672,6.80142 2.97734,9.42606 -4.51,5.53288 -14.35797,41.17462 -14.35797,51.96425 0,10.56088 2.20706,18.31214 5.21408,18.31214 5.12748,0 16.57324,-39.61971 16.57324,-57.36862 0,-13.70079 6.23998,-29.78063 11.55674,-29.78063 3.85176,0 4.78373,2.38008 4.78373,12.21629 0,6.71895 -1.18822,17.44241 -2.64053,23.82987 -10.7015,47.06713 -10.57503,45.65627 -4.0928,45.65627 5.3722,0 6.14208,-1.89748 8.01133,-19.74476 1.13738,-10.85961 2.26376,-24.88062 2.50303,-31.15782 0.48388,-12.69238 2.31661,-15.83744 7.96582,-13.66963 5.03843,1.93341 10.36134,23.10607 7.25126,28.84295 -1.31495,2.4255 -3.15641,11.49396 -4.09217,20.15212 -1.82602,16.89517 -9.41232,27.84841 -21.12962,30.50738 -44.19063,10.028 -45.94359,8.6869 -43.65524,-33.39806 0.81777,-15.03957 0.33928,-19.8592 -1.68146,-16.93656 -1.55346,2.24681 -2.84325,6.59747 -2.86621,9.66812 -0.0218,3.07065 -1.31777,6.85908 -2.87745,8.41875 -1.66901,1.66901 -2.50941,12.80617 -2.04256,27.06915 0.7804,23.842 0.92305,24.2955 8.83163,28.0783 7.44993,3.5633 9.084,3.2792 22.3195,-3.8804 12.39115,-6.7029 15.21865,-7.298 21.36641,-4.4969 11.4186,5.2027 14.78572,3.8724 19.4022,-7.6653 5.6916,-14.22478 9.21418,-13.82394 9.21418,1.0485 0,9.8802 -1.23251,12.7497 -7.13836,16.6194 -3.92614,2.5724 -11.58573,4.694 -17.02134,4.7146 -5.43564,0.022 -15.07814,2.3461 -21.4278,5.1679 -12.66232,5.6272 -25.89785,6.1458 -35.51985,1.3919 z"
       id="path3015"
       inkscape:connector-curvature="0" />
  </g>
</svg>
