<?xml version="1.0" encoding="UTF-8" standalone="no"?>
<!-- Created with Inkscape (http://www.inkscape.org/) -->

<svg
   xmlns:dc="http://purl.org/dc/elements/1.1/"
   xmlns:cc="http://creativecommons.org/ns#"
   xmlns:rdf="http://www.w3.org/1999/02/22-rdf-syntax-ns#"
   xmlns:svg="http://www.w3.org/2000/svg"
   xmlns="http://www.w3.org/2000/svg"
   xmlns:sodipodi="http://sodipodi.sourceforge.net/DTD/sodipodi-0.dtd"
   xmlns:inkscape="http://www.inkscape.org/namespaces/inkscape"
   width="300"
   height="300"
   id="svg2"
   version="1.1"
   inkscape:version="0.48.4 r9939"
   sodipodi:docname="image-seal.svg">
  <defs
     id="defs4" />
  <sodipodi:namedview
     id="base"
     pagecolor="#ffffff"
     bordercolor="#666666"
     borderopacity="1.0"
     inkscape:pageopacity="0.0"
     inkscape:pageshadow="2"
     inkscape:zoom="1.979899"
     inkscape:cx="93.377566"
     inkscape:cy="122.32215"
     inkscape:document-units="px"
     inkscape:current-layer="layer1"
     showgrid="false"
     inkscape:window-width="1215"
     inkscape:window-height="1000"
     inkscape:window-x="65"
     inkscape:window-y="24"
     inkscape:window-maximized="1"
     fit-margin-top="10"
     fit-margin-left="10"
     fit-margin-right="10"
     fit-margin-bottom="10" />
  <metadata
     id="metadata7">
    <rdf:RDF>
      <cc:Work
         rdf:about="">
        <dc:format>image/svg+xml</dc:format>
        <dc:type
           rdf:resource="http://purl.org/dc/dcmitype/StillImage" />
        <dc:title />
      </cc:Work>
    </rdf:RDF>
  </metadata>
  <g
     inkscape:label="Calque 1"
     inkscape:groupmode="layer"
     id="layer1"
     transform="translate(0,-752.36218)">
    <path
       style="fill:#000000"
       d="m 64.201803,1031.9363 c -3.446372,-0.8205 -6.615475,-3.3057 -7.042468,-5.5228 -0.855069,-4.4401 5.244144,-5.5841 45.683055,-8.5681 16.31493,-1.2039 21.85519,-0.8833 20.57355,1.1904 -0.96468,1.5609 -0.65117,2.838 0.6967,2.838 1.34787,0 2.91344,-1.3884 3.47905,-3.0852 0.56562,-1.6969 3.76807,-3.1097 7.11657,-3.1397 5.65921,-0.051 6.14196,-1.0954 6.85132,-14.8275 l 0.76314,-14.77304 -20.4521,1.18396 c -15.49937,0.89724 -21.31049,0.3256 -23.996662,-2.3606 -1.98957,-1.98956 -3.54456,-2.36394 -3.54456,-0.85341 0,1.48013 -1.81636,2.69114 -4.03633,2.69114 -2.648666,0 -3.512175,-1.36587 -2.511727,-3.97303 0.838517,-2.18516 1.524596,-4.44571 1.524596,-5.02346 0,-2.2797 27.430503,-0.892 28.884923,1.4613 2.56742,4.15415 6.93728,2.82575 5.24151,-1.59339 -1.34408,-3.50261 -0.0932,-3.90633 8.52232,-2.75073 9.93559,1.33263 10.09825,1.22721 10.13607,-6.56976 0.0201,-4.35826 1.02142,-9.47588 2.22284,-11.3725 3.05914,-4.82935 -4.40975,-12.87787 -11.95047,-12.87787 -5.33954,0 -17.56532,-9.81101 -18.15844,-14.57187 -0.12037,-0.96493 -0.71376,-13.20794 -1.31899,-27.2067 -0.91597,-21.18618 -0.45834,-25.69868 2.73031,-26.92228 7.47915,-2.87003 11.36591,1.05176 11.36591,11.46847 0,8.57259 0.64501,9.78553 4.39554,8.26563 2.41753,-0.97969 11.4677,-2.3863 20.1115,-3.12574 15.06148,-1.28849 15.80036,-1.67008 17.74179,-9.16231 1.38902,-5.36035 3.55471,-7.81783 6.88961,-7.81783 4.49844,0 4.90291,2.16978 5.38435,28.88492 0.59704,33.12838 -1.1897,37.55298 -16.14863,39.9896 -9.10246,1.48271 -9.49426,1.95334 -9.61257,11.54676 -0.18536,15.03026 1.77643,16.2804 25.54818,16.2804 17.22135,0 21.04219,0.69844 21.04219,3.84644 0,5.12345 -4.00288,6.39467 -22.97248,7.29546 -8.77765,0.41682 -17.42863,0.9061 -19.22437,1.0873 -2.35994,0.23811 -3.05619,4.33296 -2.51173,14.77192 l 0.75327,14.44252 30.14078,0.2258 c 31.06048,0.2328 43.95531,3.0956 43.95531,9.7589 0,3.0253 -3.6934,3.9221 -17.58212,4.2693 -9.67017,0.2416 -20.69039,0.6648 -24.48939,0.9402 -22.91428,1.6608 -42.9808,1.6536 -49.0114,-0.017 -3.95944,-1.0973 -8.27422,-0.8499 -10.04692,0.576 -3.55062,2.856 -57.672265,5.3555 -67.143027,3.1009 z M 166.47254,930.39187 c 0.30735,-0.2622 0.87248,-6.63018 1.25588,-14.15106 0.68219,-13.38237 0.54304,-13.69199 -6.51616,-14.49868 -3.96731,-0.45337 -8.38564,0.34807 -9.81854,1.781 -1.49915,1.49915 -7.2345,1.97077 -13.50854,1.1108 l -10.90326,-1.49444 0,13.94661 c 0,8.05666 1.1874,14.34242 2.81158,14.88382 2.62976,0.8766 35.4573,-0.53575 36.67904,-1.57805 z m -96.632525,27.43432 c -3.656832,-4.14317 -4.147298,-17.28712 -0.87333,-23.40457 1.246472,-2.32907 2.790308,-17.7961 3.430724,-34.3712 1.210253,-31.3238 4.186053,-43.95103 10.357729,-43.95103 1.991227,0 4.058006,-1.31265 4.592779,-2.91701 0.566369,-1.69907 5.897321,-2.84255 12.767963,-2.73869 6.4876,0.0979 11.79564,-0.84981 11.79564,-2.10645 0,-1.25663 6.91842,-2.28478 15.37428,-2.28478 l 15.37425,0 -1.69514,-33.28045 c -0.93233,-18.30425 -2.26358,-35.22078 -2.95832,-37.59232 -1.56944,-5.35732 10.41188,-9.16465 14.85579,-4.72075 1.8431,1.84312 3.15843,15.4459 3.59384,37.16733 0.3777,18.84311 1.16401,34.73749 1.74728,35.32078 0.58331,0.58328 11.34663,1.38 23.9185,1.77048 21.6611,0.67276 23.18308,1.08797 29.06705,7.92971 5.27423,6.13272 6.20955,9.767 6.21216,24.13789 0.003,19.08081 3.34944,35.79537 10.32824,51.59374 5.78341,13.0923 5.94698,17.14426 0.77218,19.13001 -6.76693,2.5967 -8.23275,1.78625 -12.00632,-6.63854 -4.66406,-10.41278 -6.69511,-19.77047 -8.04107,-37.04804 -0.59189,-7.598 -2.38556,-20.40792 -3.98596,-28.46654 -3.36831,-16.96104 -6.77412,-19.25637 -28.57258,-19.25637 -19.67661,0 -63.41832,4.92447 -76.542832,8.61725 -10.356677,2.91401 -11.350621,3.89539 -11.874215,11.72393 -3.154812,47.16908 -6.934265,76.03815 -10.505018,80.24143 -3.414197,4.01896 -4.449709,4.18507 -7.13362,1.14419 z m -3.139665,-116.621 c 0,-3.25555 3.825642,-6.75787 11.650341,-10.66571 17.962757,-8.97103 21.233557,-16.36899 23.402189,-52.93172 0.0615,-1.03609 2.26172,-1.88379 4.88945,-1.88379 9.71047,0 10.81537,18.49787 2.4005,40.1877 -4.30338,11.09219 -10.885022,18.23109 -22.952965,24.89637 -12.100394,6.68319 -19.389515,6.83251 -19.389515,0.39715 z m 135.3855,-3.31586 c -17.33062,-16.14074 -20.14912,-22.35077 -19.32961,-42.58951 0.75833,-18.72797 3.42487,-22.69284 11.68463,-17.37374 2.70832,1.74409 2.8771,4.6934 0.82048,14.33628 -3.29361,15.44268 2.17852,25.91286 18.3551,35.11997 8.59354,4.89112 10.51572,10.57687 4.98822,14.75509 -6.6592,5.03364 -6.51232,5.07141 -16.51882,-4.24809 z"
       id="path3236"
       inkscape:connector-curvature="0" />
  </g>
</svg>
