<?xml version="1.0" encoding="UTF-8" standalone="no"?>
<!-- Created with Inkscape (http://www.inkscape.org/) -->

<svg
   xmlns:dc="http://purl.org/dc/elements/1.1/"
   xmlns:cc="http://creativecommons.org/ns#"
   xmlns:rdf="http://www.w3.org/1999/02/22-rdf-syntax-ns#"
   xmlns:svg="http://www.w3.org/2000/svg"
   xmlns="http://www.w3.org/2000/svg"
   xmlns:sodipodi="http://sodipodi.sourceforge.net/DTD/sodipodi-0.dtd"
   xmlns:inkscape="http://www.inkscape.org/namespaces/inkscape"
   width="300"
   height="300"
   id="svg2"
   version="1.1"
   inkscape:version="0.48.4 r9939"
   sodipodi:docname="image-seal.svg">
  <defs
     id="defs4" />
  <sodipodi:namedview
     id="base"
     pagecolor="#ffffff"
     bordercolor="#666666"
     borderopacity="1.0"
     inkscape:pageopacity="0.0"
     inkscape:pageshadow="2"
     inkscape:zoom="2.7366667"
     inkscape:cx="150"
     inkscape:cy="150"
     inkscape:document-units="px"
     inkscape:current-layer="layer1"
     showgrid="false"
     inkscape:window-width="1215"
     inkscape:window-height="1000"
     inkscape:window-x="65"
     inkscape:window-y="24"
     inkscape:window-maximized="1"
     showguides="true"
     inkscape:guide-bbox="true" />
  <metadata
     id="metadata7">
    <rdf:RDF>
      <cc:Work
         rdf:about="">
        <dc:format>image/svg+xml</dc:format>
        <dc:type
           rdf:resource="http://purl.org/dc/dcmitype/StillImage" />
        <dc:title />
      </cc:Work>
    </rdf:RDF>
  </metadata>
  <g
     inkscape:label="Calque 1"
     inkscape:groupmode="layer"
     id="layer1"
     transform="translate(0,-752.36218)">
    <path
       style="fill:#000000"
       d="m 166.4515,1045.6965 c -17.44059,-1.7935 -22.31193,-3.5061 -30.49416,-10.7209 -11.107,-9.7937 -14.3344,-21.984 -13.13899,-49.62782 l 1.04532,-24.17303 -18.78613,1.11053 c -10.332367,0.61079 -25.318847,2.39524 -33.303307,3.9655 -23.88319,4.6969 -32.22207,3.75921 -35.13609,-3.95107 -3.51509,-9.30072 -2.40383,-10.33466 13.70393,-12.75017 23.5545,-3.53221 22.33728,-1.1187 22.33728,-44.29049 l 0,-39.00017 -15.21946,0 c -11.02809,0 -15.72048,-1.30558 -17.03868,-4.74069 -2.6918,-7.01474 2.85715,-10.88163 18.07664,-12.59708 16.41463,-1.85019 16.96986,-3.58013 15.50157,-48.29886 -0.94063,-28.64751 -0.5816,-30.98712 5.02845,-32.76768 12.79276,-4.06027 14.7258,2.39407 12.7934,42.717 l -1.79892,37.53786 14.015317,0 c 11.64145,0 14.01531,0.95191 14.01531,5.62004 0,4.17044 -3.31597,6.31849 -12.85586,8.32791 l -12.855867,2.70789 -0.84401,40.0706 -0.84404,40.07062 10.946327,0 c 7.65284,0 12.65468,2.04777 16.62417,6.80604 l 5.67781,6.80604 0.10073,-10.76525 c 0.1815,-19.42115 2.27603,-20.25155 56.06144,-22.22711 26.61919,-0.97772 51.09463,-1.84232 54.3899,-1.92131 6.44502,-0.15457 14.50062,8.43656 11.88265,12.67249 -0.87673,1.41863 -9.03406,2.57928 -18.12742,2.57928 -14.96413,0 -16.81332,0.73645 -19.48337,7.75919 -1.62253,4.26754 -2.95004,13.796 -2.95004,21.17436 0,12.73308 0.43846,13.41516 8.62334,13.41516 19.21997,0 34.54866,10.5197 24.43587,16.76973 -5.39943,3.33709 -29.31919,-1.60901 -36.70998,-7.59076 -5.6481,-4.57131 -7.21734,-9.45641 -8.44887,-26.30215 -1.43637,-19.64745 -1.89286,-20.68817 -9.07472,-20.68817 -7.04991,0 -7.66974,1.22963 -9.14847,18.14945 -2.02648,23.18692 -6.9467,30.52604 -23.21036,34.62128 -13.8506,3.48763 -14.94247,5.83234 -9.70817,20.84734 3.97016,11.3888 16.66597,15.6736 42.067,14.1974 9.15035,-0.5318 18.27888,0.3678 20.28564,1.9991 2.00672,1.6313 5.39861,1.8844 7.53749,0.5625 2.13889,-1.3219 9.51098,-2.8747 16.38245,-3.4506 13.07057,-1.0955 18.0237,3.352 14.36157,12.8955 -1.41366,3.6839 -7.79673,4.4463 -33.93529,4.0532 -17.70679,-0.2662 -36.95836,-0.974 -42.78131,-1.5727 z m -27.22417,-52.45634 c 0,-3.76196 3.20066,-7.53036 8.3185,-9.79405 4.57517,-2.02366 9.97672,-5.73782 12.00344,-8.25364 5.18239,-6.43313 4.7652,-26.80531 -0.66004,-32.23057 -2.49555,-2.49555 -4.53736,-3.07891 -4.53736,-1.29639 0,1.78255 -2.5768,3.24098 -5.72618,3.24098 -7.19738,0 -9.39836,5.67739 -9.39836,24.24282 0,12.01666 -1.09535,15.02094 -6.04982,16.59344 -9.62616,3.05521 -7.03064,12.2352 3.78114,13.37326 1.24777,0.13129 2.26868,-2.51279 2.26868,-5.87585 z m 19.6619,-93.56824 c -9.72154,-4.0211 -18.58688,-15.83929 -21.79467,-29.05402 -2.92052,-12.03127 -2.81891,-31.54477 0.40074,-76.95681 0.88466,-12.47774 1.63626,-25.74953 1.67026,-29.49285 0.0433,-4.76883 1.8726,-6.80604 6.11159,-6.80604 6.29323,0 6.58728,0.74192 7.19353,18.14944 0.33005,9.4761 1.16235,10.47859 7.93101,9.55245 4.15924,-0.56907 17.28133,-1.69228 29.1602,-2.496 20.47131,-1.38511 21.68992,-1.8834 23.36097,-9.55248 0.96966,-4.45012 3.05743,-10.04542 4.63945,-12.434 4.50609,-6.80329 12.41226,1.59382 12.41226,13.183 0,5.28648 1.70151,11.4154 3.78113,13.6198 3.02491,3.2064 3.02491,4.28529 0,5.39441 -2.78569,1.02145 -3.79883,13.06609 -3.84841,45.75173 -0.0829,54.59941 -1.21274,56.87728 -30.3001,61.08109 -23.40583,3.38269 -32.65252,3.39636 -40.71796,0.0602 z m 45.2313,-18.77406 c 7.10064,-3.23526 7.70459,-5.04464 7.70459,-23.08258 l 0,-19.57213 -11.3434,1.87493 c -6.23888,1.03122 -20.01951,1.88993 -30.62366,1.90823 l -19.28025,0.0333 1.36448,16.45362 c 0.75045,9.0495 3.12748,18.57796 5.28231,21.17436 4.75694,5.73174 35.24547,6.51858 46.89593,1.21026 z m -11.4612,-55.96814 24.69538,-1.88144 -1.6463,-10.91244 c -0.90545,-6.00187 -2.48993,-11.85153 -3.52103,-12.99924 -1.0311,-1.14771 -15.1465,-1.28801 -31.36757,-0.31178 l -29.49285,1.77496 0,12.6635 c 0,14.70856 2.06211,17.70993 10.51026,15.29744 3.36971,-0.96225 17.23964,-2.59621 30.82211,-3.631 z"
       id="path3054"
       inkscape:connector-curvature="0" />
  </g>
</svg>
