<?xml version="1.0" encoding="UTF-8" standalone="no"?>
<!-- Created with Inkscape (http://www.inkscape.org/) -->

<svg
   xmlns:dc="http://purl.org/dc/elements/1.1/"
   xmlns:cc="http://creativecommons.org/ns#"
   xmlns:rdf="http://www.w3.org/1999/02/22-rdf-syntax-ns#"
   xmlns:svg="http://www.w3.org/2000/svg"
   xmlns="http://www.w3.org/2000/svg"
   xmlns:sodipodi="http://sodipodi.sourceforge.net/DTD/sodipodi-0.dtd"
   xmlns:inkscape="http://www.inkscape.org/namespaces/inkscape"
   width="300"
   height="300"
   id="svg2"
   version="1.1"
   inkscape:version="0.48.4 r9939"
   sodipodi:docname="image-seal.svg">
  <defs
     id="defs4" />
  <sodipodi:namedview
     id="base"
     pagecolor="#ffffff"
     bordercolor="#666666"
     borderopacity="1.0"
     inkscape:pageopacity="0.0"
     inkscape:pageshadow="2"
     inkscape:zoom="2.0018437"
     inkscape:cx="145.03351"
     inkscape:cy="130.6666"
     inkscape:document-units="px"
     inkscape:current-layer="layer1"
     showgrid="false"
     inkscape:window-width="1215"
     inkscape:window-height="1000"
     inkscape:window-x="65"
     inkscape:window-y="24"
     inkscape:window-maximized="1"
     fit-margin-top="10"
     fit-margin-left="10"
     fit-margin-right="10"
     fit-margin-bottom="10" />
  <metadata
     id="metadata7">
    <rdf:RDF>
      <cc:Work
         rdf:about="">
        <dc:format>image/svg+xml</dc:format>
        <dc:type
           rdf:resource="http://purl.org/dc/dcmitype/StillImage" />
        <dc:title />
      </cc:Work>
    </rdf:RDF>
  </metadata>
  <g
     inkscape:label="Calque 1"
     inkscape:groupmode="layer"
     id="layer1"
     transform="translate(0,-752.36218)">
    <path
       style="fill:#000000"
       d="m 76.175739,1043.3798 c -3.23236,-8.4234 1.48788,-71.71202 6.84384,-91.76164 3.60356,-13.4898 4.50697,-21.3773 2.81133,-24.54563 -3.54265,-6.6195 -3.02596,-23.86266 0.95125,-31.74564 1.85407,-3.67478 7.18996,-7.92599 11.8576,-9.44713 11.310531,-3.68601 13.828951,-6.58829 5.716841,-6.58829 -10.881311,0 -13.786741,-5.29842 -6.184591,-11.27827 8.135921,-6.39974 8.289591,-9.48217 0.52764,-10.58455 -3.3073,-0.46971 -6.01328,-2.65801 -6.01328,-4.86288 0,-2.3354 1.95237,-3.68103 4.677,-3.22354 2.57235,0.43191 4.677001,-0.47008 4.677001,-2.00443 0,-1.53435 2.70597,-2.80815 6.01328,-2.83065 4.86258,-0.0331 5.24615,-0.53671 2.00443,-2.63166 -2.20487,-1.4249 -7.31616,-2.60915 -11.358431,-2.63165 -4.48077,-0.024 -7.34956,-1.4941 -7.34956,-3.76383 0,-4.08639 5.61584,-6.96736 13.581441,-6.96736 3.4316,0 5.12655,-1.86174 5.12655,-5.63108 0,-3.61 -1.28602,-5.13759 -3.58306,-4.25612 -5.21125,1.99975 -10.808331,-2.28558 -9.031821,-6.91509 2.929941,-7.63529 51.367141,-7.01547 51.367141,0.65732 0,2.26538 -3.69643,4.65527 -8.82149,5.70345 -19.0571,3.89759 -15.03905,7.68591 9.00603,8.4911 15.61425,0.52289 18.48117,-0.0807 19.29536,-4.06287 0.65077,-3.18281 -0.7094,-4.67699 -4.25756,-4.67699 -6.38584,0 -13.03674,-7.3024 -9.63031,-10.57368 4.53447,-4.35455 45.25959,-4.41396 51.86822,-0.0756 3.56341,2.33924 3.56341,2.92406 0,5.2633 -2.20487,1.44739 -7.31616,2.65007 -11.35842,2.67257 -6.13475,0.0342 -7.34957,1.19681 -7.34957,7.03405 0,5.83865 0.94801,6.74521 5.74252,5.49143 6.90472,-1.80564 20.98318,0.68009 20.98318,3.70483 0,1.18712 -2.10465,2.80323 -4.677,3.59134 -5.28514,1.61926 -34.63792,4.8606 -40.75669,4.50064 -20.07274,-1.18083 -38.62128,-0.0837 -41.09653,2.43107 -2.2363,2.27193 -1.29858,2.89653 3.68055,2.4516 12.46939,-1.1143 16.03542,0.12642 16.03542,5.57937 0,4.29904 -1.78172,5.34514 -9.10379,5.34514 -7.788,0 -8.90176,0.77253 -7.706,5.34514 1.24868,4.77492 3.64544,5.34514 22.46663,5.34514 19.28714,0 21.06886,-0.45202 21.06886,-5.34514 0,-3.88531 -1.78172,-5.34514 -6.52369,-5.34514 -6.63874,0 -11.45204,-4.29568 -8.32131,-7.42641 2.04387,-2.04387 46.91562,-3.57945 49.94196,-1.70908 4.59883,2.84223 -1.36496,9.13549 -8.6572,9.13549 -5.95005,0 -7.73177,1.23173 -7.73177,5.34514 0,4.56595 1.78172,5.34514 12.22252,5.34514 10.19991,0 12.07434,0.77394 11.32709,4.67699 -0.77237,4.03411 -4.69474,4.78211 -28.53591,5.4417 -17.06676,0.47216 -28.97666,-0.34425 -31.1334,-2.13421 -2.421,-2.00923 -4.02452,-2.03887 -5.22493,-0.0965 -0.95256,1.5413 -7.60327,2.80235 -14.77934,2.80235 -7.17606,0 -13.79067,1.20266 -14.69913,2.67257 -0.99754,1.61405 2.64483,2.67257 9.19626,2.67257 8.84874,0 10.84801,0.9292 10.84801,5.04181 0,5.30155 -3.87578,6.61073 -31.31067,10.57642 -7.66646,1.10819 -14.590071,2.66597 -15.385861,3.46173 -2.04232,2.04235 1.49753,18.33602 3.98355,18.33602 1.128921,0 2.720701,-1.7411 3.537281,-3.86913 3.70816,-9.66332 35.34703,-17.06399 42.47555,-9.93547 4.10894,4.10895 0.89545,6.6698 -13.99013,11.14873 -23.85434,7.17754 -25.0896,13.34615 -2.67257,13.34615 12.94649,0 16.03542,0.82732 16.03542,4.29479 0,2.59205 1.48983,3.72308 3.75774,2.85281 5.59628,-2.14749 12.27768,6.80321 12.27768,16.44772 0,4.90871 1.40591,8.54661 3.34071,8.64416 1.8374,0.0935 11.13799,0.3934 20.668,0.66814 14.13386,0.40757 17.49472,1.36141 18.2358,5.1765 0.7887,4.06017 -1.33818,4.677 -16.12463,4.677 -18.17184,0 -23.44731,2.75595 -23.44731,12.24945 0,7.35678 5.20841,8.71151 25.03391,6.51172 12.20953,-1.35473 16.79031,-0.8138 20.69702,2.44406 10.11186,8.43301 2.4775,10.20261 -50.28328,11.65541 -28.22725,0.7774 -52.42031,2.0918 -53.76235,2.9214 -2.69608,1.6663 -12.844501,-8.2749 -10.668631,-10.45063 0.74886,-0.7489 11.270741,-1.7444 23.381971,-2.2124 22.48743,-0.8688 26.7618,-2.92855 26.85246,-12.9392 0.062,-6.83616 -4.68494,-8.48113 -23.01735,-7.97601 -9.4513,0.25924 -17.48454,-0.77665 -18.47895,-2.38554 -2.51422,-4.06818 -1.77333,-4.33411 17.48409,-6.2768 18.2103,-1.83712 24.05227,-5.74736 24.05409,-16.10089 9e-4,-5.12439 -1.47441,-5.48118 -21.47092,-5.1896 -11.80955,0.17105 -22.11306,0.95438 -22.89668,1.73797 -3.934931,3.93483 -9.084761,41.23695 -9.084761,65.804 0,23.3118 -0.75062,28.3381 -4.677,31.3188 -6.2029,4.7086 -8.5221,4.5843 -10.49735,-0.5634 z m 151.567341,-27.1191 c -1.79765,-14.3317 -3.86261,-29.06423 -4.5888,-32.73901 -0.72619,-3.67478 -2.19741,-11.49205 -3.26938,-17.3717 -2.51847,-13.81345 -10.26131,-29.90157 -15.32631,-31.84519 -2.18445,-0.83826 -7.20287,0.0997 -11.15202,2.08415 -9.30257,4.67475 -23.40112,7.31813 -28.53158,5.3493 -6.57567,-2.5233 -4.60906,-8.76763 3.31148,-10.51453 22.65935,-4.99759 26.61548,-8.82741 14.76039,-14.28913 -18.52032,-8.53237 -20.78843,-10.03791 -21.61887,-14.34999 -0.62049,-3.22194 0.96303,-4.65679 5.32624,-4.82618 5.00655,-0.1943 4.52683,-0.72681 -2.47662,-2.74898 -5.82302,-1.68134 -8.68585,-4.16108 -8.68585,-7.52355 0,-4.62496 2.44586,-5.01045 31.4027,-4.94925 17.27148,0.0366 32.90601,1.27252 34.7434,2.74671 4.18076,3.35428 4.32155,18.97818 0.27194,30.17718 -2.41975,6.69169 -2.28179,10.26454 0.6524,16.89329 2.04665,4.62373 4.63025,8.40676 5.74135,8.40676 1.11109,0 2.11518,3.90863 2.2313,8.68585 0.29882,12.29435 6.09012,43.93998 8.47827,46.32814 1.10049,1.1003 2.00087,12.02293 2.00087,24.27233 0,19.9791 -0.51473,22.2714 -5.0012,22.2714 -4.32115,0 -5.44568,-3.5433 -8.26971,-26.0576 z M 208.94316,900.67203 c 0,-7.32482 -0.77951,-8.01771 -9.01993,-8.01771 -4.96095,0 -12.88365,0.77275 -17.606,1.71721 l -8.58606,1.71723 7.58384,6.20437 c 4.85521,3.97205 11.18981,6.23895 17.60601,6.3005 9.37535,0.0898 10.02214,-0.42133 10.02214,-7.9216 z M 75.158509,874.61447 c -0.70884,-33.36083 1.01927,-65.51689 3.99368,-74.31342 4.62049,-13.66463 13.45331,-18.07039 38.923601,-19.41485 22.67942,-1.19715 26.72569,-3.31861 26.72569,-14.01218 0,-9.67206 3.50305,-11.69129 12.68386,-7.31132 4.91421,2.34446 7.64146,5.94751 8.20607,10.8413 0.81099,7.02921 1.46863,7.33078 16.03542,7.35304 8.35437,0.0134 21.63255,0.79688 29.50704,1.74247 18.46422,2.21719 22.65791,8.71279 27.05012,41.89785 4.25751,32.16734 1.13069,55.22154 -7.48966,55.22154 -7.15255,0 -11.16089,-18.20338 -11.16089,-50.68582 l 0,-29.38945 -7.34957,-2.00843 c -9.98531,-2.72872 -95.45879,-2.46441 -109.5039,0.33864 -7.288951,1.45468 -11.838041,3.98881 -12.842681,7.1542 -0.85565,2.69587 -1.94788,20.46584 -2.4272,39.48882 -0.47933,19.02295 -1.68637,35.90571 -2.68233,37.51719 -3.56307,5.76513 -9.51061,3.04665 -9.66925,-4.41958 z"
       id="path3093"
       inkscape:connector-curvature="0" />
  </g>
</svg>
