<?xml version="1.0" encoding="UTF-8" standalone="no"?>
<!-- Created with Inkscape (http://www.inkscape.org/) -->

<svg
   xmlns:dc="http://purl.org/dc/elements/1.1/"
   xmlns:cc="http://creativecommons.org/ns#"
   xmlns:rdf="http://www.w3.org/1999/02/22-rdf-syntax-ns#"
   xmlns:svg="http://www.w3.org/2000/svg"
   xmlns="http://www.w3.org/2000/svg"
   xmlns:sodipodi="http://sodipodi.sourceforge.net/DTD/sodipodi-0.dtd"
   xmlns:inkscape="http://www.inkscape.org/namespaces/inkscape"
   width="300"
   height="300"
   id="svg2"
   version="1.1"
   inkscape:version="0.48.4 r9939"
   sodipodi:docname="image-seal.svg">
  <defs
     id="defs4" />
  <sodipodi:namedview
     id="base"
     pagecolor="#ffffff"
     bordercolor="#666666"
     borderopacity="1.0"
     inkscape:pageopacity="0.0"
     inkscape:pageshadow="2"
     inkscape:zoom="2.0018437"
     inkscape:cx="145.03351"
     inkscape:cy="130.6666"
     inkscape:document-units="px"
     inkscape:current-layer="layer1"
     showgrid="false"
     inkscape:window-width="1215"
     inkscape:window-height="1000"
     inkscape:window-x="65"
     inkscape:window-y="24"
     inkscape:window-maximized="1"
     fit-margin-top="10"
     fit-margin-left="10"
     fit-margin-right="10"
     fit-margin-bottom="10" />
  <metadata
     id="metadata7">
    <rdf:RDF>
      <cc:Work
         rdf:about="">
        <dc:format>image/svg+xml</dc:format>
        <dc:type
           rdf:resource="http://purl.org/dc/dcmitype/StillImage" />
        <dc:title />
      </cc:Work>
    </rdf:RDF>
  </metadata>
  <g
     inkscape:label="Calque 1"
     inkscape:groupmode="layer"
     id="layer1"
     transform="translate(0,-752.36218)">
    <path
       style="fill:#000000"
       d="m 183.25138,1045.2529 c -0.61419,-1.1413 -1.40261,-13.8606 -1.75209,-28.2652 -0.34949,-14.4045 -1.34407,-27.33658 -2.21021,-28.73803 -0.89912,-1.45479 -11.39936,-1.7929 -24.47289,-0.78798 -25.77668,1.98136 -31.64584,0.7138 -31.64584,-6.83447 0,-4.79094 2.36747,-5.23771 27.75551,-5.23771 22.07175,0 28.08042,-0.84663 29.34206,-4.13442 0.87259,-2.27392 2.70115,-3.44552 4.06345,-2.60356 1.36232,0.84195 2.47695,-2.0691 2.47695,-6.469 0,-7.95726 -0.0772,-7.99348 -14.52605,-6.80849 -19.46183,1.59613 -28.30427,-5.01019 -31.02936,-23.18245 l -1.92958,-12.86738 -17.06882,2.1604 c -9.38784,1.1882 -27.008399,2.28582 -39.156769,2.4391 -18.61813,0.23491 -22.23002,-0.45139 -22.99213,-4.36894 -0.70713,-3.635 1.99555,-5.07513 12.40393,-6.60949 7.31944,-1.079 14.19107,-3.3366 15.27032,-5.01692 2.36907,-3.68862 2.67628,-49.28368 0.41696,-61.88995 -1.49244,-8.32728 -2.40736,-8.99232 -12.37116,-8.99232 -7.71946,0 -10.75955,-1.17266 -10.75955,-4.15031 0,-2.67276 2.70885,-4.16538 7.60889,-4.19266 10.39725,-0.0578 14.78293,-3.37334 14.91334,-11.27408 0.25206,-15.26888 6.06627,-56.66961 8.30273,-59.12012 1.51207,-1.65677 3.948931,-1.11635 6.508669,1.44339 2.97945,2.97942 4.26646,11.78454 4.73467,32.39212 l 0.64299,28.30044 8.52655,0 c 8.10643,0 15.167,4.10319 15.167,8.81414 0,1.19551 -5.60291,3.58448 -12.4509,5.30885 -11.42709,2.87737 -12.45343,3.84758 -12.48168,11.799 -0.0166,4.76513 -0.80997,20.68431 -1.76233,35.37597 l -1.73156,26.71212 17.67182,1.06682 c 9.71951,0.58677 18.19205,0.7045 18.82788,0.26175 0.63585,-0.44284 1.7175,-7.57524 2.40369,-15.84979 1.3958,-16.83147 7.00889,-22.07001 13.58615,-12.67964 2.80713,4.00772 7.0157,5.59571 14.82998,5.59571 9.6261,0 10.91059,-0.77007 10.91059,-6.5411 0,-5.66787 -1.68455,-6.77196 -12.61861,-8.27064 -6.94022,-0.95127 -14.58511,-3.69609 -16.98866,-6.09964 -5.1467,-5.14671 -7.90909,-35.91014 -3.47081,-38.65315 5.90015,-3.64649 10.94313,4.83302 10.94313,18.40028 l 0,13.49557 11.06747,0 c 10.99037,0 11.06748,-0.0739 11.06748,-10.62337 0,-8.64654 -1.28715,-11.2098 -6.91717,-13.77502 -3.80445,-1.73341 -7.07281,-4.42345 -7.26303,-5.97784 -0.19009,-1.5544 -0.65713,-4.07129 -1.03758,-5.59306 -0.38044,-1.52178 -0.84735,-5.25705 -1.03757,-8.30061 -0.30085,-4.81333 -2.30572,-5.53374 -15.40034,-5.53374 -15.98589,0 -21.66109,-3.45886 -13.14949,-8.01415 5.7518,-3.07825 107.63537,-4.78339 110.5683,-1.85048 2.60152,2.60152 -5.05841,7.00444 -12.2746,7.0554 -9.9579,0.0703 -14.74763,3.0818 -14.84035,9.33072 -0.10597,7.14402 -4.26286,12.66434 -14.43807,19.17387 -5.41429,3.46379 -7.60889,7.16754 -7.60889,12.84131 0,7.77681 0.29011,7.93566 11.75919,6.43864 13.83003,-1.80518 15.81052,-4.07573 15.86713,-18.19077 0.0376,-9.36715 0.74988,-10.46773 6.26782,-9.68404 5.60299,0.79575 6.18829,2.32428 5.85392,15.28766 -0.47228,18.30846 -10.18924,28.48295 -27.20208,28.48295 -6.90575,0 -12.41123,6.59079 -8.64857,10.35346 0.99782,0.99779 7.59135,0.26894 14.65234,-1.61951 17.96976,-4.80618 20.91476,-1.25895 21.9416,26.42855 1.27846,34.47178 -4.42638,44.67945 -27.34873,48.93495 -9.1575,1.70005 -10.37575,2.86695 -10.37575,9.93818 0,4.40654 0.93382,8.5634 2.07515,9.23741 1.14133,0.67401 9.90254,-0.0542 19.46935,-1.61812 12.49493,-2.04267 19.31398,-1.9689 24.2101,0.26202 15.50362,7.06393 1.48417,17.75835 -16.30522,12.43807 -5.14319,-1.53816 -13.50367,-1.6244 -20.45706,-0.21111 l -11.75919,2.39024 0,25.89607 c 0,14.2429 -0.75577,27.8656 -1.67946,30.2727 -1.70746,4.4496 -10.90874,6.0855 -12.94496,2.3015 z m 20.31689,-106.23816 c 15.71742,-2.59568 19.20935,-4.1046 19.20935,-8.30061 0,-4.69579 -2.68323,-5.12825 -31.81899,-5.12825 l -31.81899,0 0,6.72474 c 0,9.87451 13.18443,11.864 44.42863,6.70412 z m 14.10699,-26.76445 c 6.80415,-0.46181 7.11163,-1.00963 4.1503,-7.39434 -3.12872,-6.74568 -3.87079,-6.89606 -34.13906,-6.91717 -28.47451,-0.0194 -31.08021,0.41754 -32.68931,5.48739 -0.96165,3.02994 -1.1333,6.50433 -0.38144,7.72086 1.17941,1.90837 40.94695,2.60412 63.05951,1.10326 z m -21.18727,-87.90125 c 6.88976,-1.72921 11.02716,-11.40811 6.96756,-16.29965 -3.53528,-4.25974 -25.02229,-1.69745 -26.90481,3.20835 -2.24374,5.84708 4.98786,17.97847 9.65051,16.18925 2.13843,-0.8206 6.76745,-2.21466 10.28674,-3.09795 z m -45.02815,-46.0426 c -2.95211,-3.55706 -2.16563,-4.45101 5.21441,-5.92702 4.77996,-0.95601 17.16977,-1.73818 27.53294,-1.73818 10.36317,0 22.29856,-1.31415 26.52312,-2.92032 9.1683,-3.48578 20.34791,-1.25488 20.34791,4.06044 0,5.82697 -6.39611,7.17902 -42.65474,9.0167 -27.97661,1.41791 -34.05929,1.00788 -36.96364,-2.49162 z"
       id="path3132"
       inkscape:connector-curvature="0" />
  </g>
</svg>
