<?xml version="1.0" encoding="UTF-8" standalone="no"?>
<!-- Created with Inkscape (http://www.inkscape.org/) -->

<svg
   xmlns:dc="http://purl.org/dc/elements/1.1/"
   xmlns:cc="http://creativecommons.org/ns#"
   xmlns:rdf="http://www.w3.org/1999/02/22-rdf-syntax-ns#"
   xmlns:svg="http://www.w3.org/2000/svg"
   xmlns="http://www.w3.org/2000/svg"
   xmlns:sodipodi="http://sodipodi.sourceforge.net/DTD/sodipodi-0.dtd"
   xmlns:inkscape="http://www.inkscape.org/namespaces/inkscape"
   width="300"
   height="300"
   id="svg2"
   version="1.1"
   inkscape:version="0.48.4 r9939"
   sodipodi:docname="dessin.svg">
  <defs
     id="defs4" />
  <sodipodi:namedview
     id="base"
     pagecolor="#ffffff"
     bordercolor="#666666"
     borderopacity="1.0"
     inkscape:pageopacity="0.0"
     inkscape:pageshadow="2"
     inkscape:zoom="1.979899"
     inkscape:cx="73.020464"
     inkscape:cy="149.14493"
     inkscape:document-units="px"
     inkscape:current-layer="layer1"
     showgrid="false"
     inkscape:window-width="1215"
     inkscape:window-height="1000"
     inkscape:window-x="65"
     inkscape:window-y="24"
     inkscape:window-maximized="1" />
  <metadata
     id="metadata7">
    <rdf:RDF>
      <cc:Work
         rdf:about="">
        <dc:format>image/svg+xml</dc:format>
        <dc:type
           rdf:resource="http://purl.org/dc/dcmitype/StillImage" />
        <dc:title />
      </cc:Work>
    </rdf:RDF>
  </metadata>
  <g
     inkscape:label="Calque 1"
     inkscape:groupmode="layer"
     id="layer1"
     transform="translate(0,-752.36218)">
    <path
       style="fill:#000000"
       d="m 167.42966,1032.3903 c -0.78341,-2.9134 -1.09131,-17.9843 -0.68414,-33.49104 0.6172,-23.50693 0.0117,-28.6323 -3.64431,-30.83018 -4.21183,-2.53228 -18.06037,-1.88459 -37.43995,1.75106 -8.37421,1.57099 -13.56599,-1.53052 -13.71063,-8.19063 -0.0216,-1.04493 10.76305,-2.48021 23.9683,-3.18946 25.72076,-1.38149 32.572,-4.78215 32.572,-16.16732 0,-5.78068 -2.19843,-7.48709 -13.60702,-10.56171 -18.27999,-4.92648 -22.14074,-12.08104 -23.42948,-43.41888 -1.27476,-30.99728 3.82569,-42.63421 19.99209,-45.61303 36.47057,-6.72012 63.07137,-3.50031 68.70043,8.31564 1.65322,3.47033 2.38626,17.60771 1.75443,33.83678 -1.28149,32.91598 -5.84945,43.88908 -18.27049,43.88908 -4.31506,0 -11.03615,1.36275 -14.93571,3.02834 -5.6573,2.41629 -6.91788,4.71014 -6.23771,11.35069 0.85049,8.30341 0.9107,8.3258 26.42113,9.83579 21.57349,1.27693 25.70912,2.34109 26.46754,6.8104 0.80282,4.73086 -1.72309,5.29699 -23.63247,5.29699 -17.24407,0 -24.85705,1.12395 -25.62776,3.78358 -0.60306,2.08096 -1.73773,14.94625 -2.52149,28.58958 -0.7838,13.64332 -2.20249,28.28572 -3.15264,32.53862 -1.99916,8.9482 -10.78747,10.597 -12.98212,2.4357 z m 1.06127,-126.04723 c 0,-14.76084 -3.26368,-17.90302 -15.69426,-15.1101 -6.58274,1.479 -7.40313,2.83832 -6.3906,10.58858 1.23375,9.44329 9.36318,17.81851 17.29566,17.81851 3.86259,0 4.7892,-2.57273 4.7892,-13.29699 z m 35.52506,6.44099 c 1.1624,-2.0559 2.13202,-8.84579 2.15472,-15.08867 0.0382,-10.54301 -0.52022,-11.35069 -7.84937,-11.35069 -4.33986,0 -9.79593,2.1404 -12.12461,4.75647 -4.33664,4.87176 -5.82533,22.7154 -2.23196,26.7522 2.80841,3.15497 17.50151,-0.55973 20.05122,-5.06931 z m -37.54583,-37.60954 c 2.84611,-1.82322 2.5241,-18.3916 -0.39685,-20.41963 -1.32971,-0.92321 -6.01238,-0.87091 -10.40595,0.11615 -6.11559,1.37404 -8.63709,4.16955 -10.75573,11.92468 -1.5221,5.57144 -2.07909,10.90317 -1.23777,11.84831 1.50712,1.6931 18.86011,-0.94806 22.7963,-3.4696 z m 36.58959,-3.58215 c 2.03551,-1.44963 3.19949,-6.33327 2.69437,-11.30436 -0.77957,-7.67174 -2.10833,-8.86619 -10.76432,-9.67622 -8.00063,-0.74868 -10.20862,0.25669 -11.63261,5.29699 -2.96295,10.48754 0.85277,18.33371 8.89096,18.28216 3.97534,-0.0243 8.84056,-1.19485 10.8116,-2.59857 z M 51.735353,944.8638 c -0.987933,-1.10982 -1.79624,-3.83397 -1.79624,-6.0537 0,-2.91011 4.463082,-4.03579 16.001065,-4.03579 l 16.001065,0 1.6836,-12.86411 c 0.925979,-7.07527 1.303383,-22.3987 0.838678,-34.05209 l -0.844915,-21.18796 -10.230116,1.00961 c -10.618919,1.048 -18.060659,-3.26228 -18.060659,-10.46077 0,-2.9125 3.589209,-4.16968 11.904251,-4.16968 20.739789,0 20.423057,0.60217 20.469322,-38.91619 0.04648,-39.6915 1.402197,-44.96969 9.844426,-38.32681 5.2394,4.12266 5.49434,6.50483 4.20595,39.30242 l -1.37148,34.91374 9.80609,0 c 5.39333,0 9.98794,1.36209 10.21023,3.02684 1.25457,9.39597 0.19614,10.69885 -9.83442,12.10742 l -10.77743,1.51342 -0.56461,28.7551 c -0.62207,31.68215 1.38859,36.32221 15.73953,36.32221 9.43939,0 12.71342,5.76564 6.27662,11.05316 -5.21949,4.28756 -65.917024,6.08942 -69.500957,2.06318 z M 138.0182,826.44376 c -6.06297,-7.52627 -8.42655,-23.63488 -6.06435,-41.33092 1.45692,-10.91433 2.92946,-13.78852 7.0642,-13.78852 3.37445,0 5.22364,2.0798 5.22364,5.87507 0,7.60847 2.19841,8.85375 12.51425,7.08865 6.8188,-1.16677 8.78585,-3.20881 10.07702,-10.46133 1.15684,-6.49803 2.92698,-8.72749 6.34629,-7.99305 4.00807,0.86089 4.86095,4.99974 5.51101,26.74419 0.94555,31.62939 -1.00283,35.13407 -21.02279,37.81454 -12.71565,1.70256 -15.55671,1.13162 -19.64927,-3.94863 z m 25.54382,-11.9868 c 2.19416,-2.91334 3.89767,-8.70218 3.78556,-12.86411 -0.17671,-6.55849 -1.59791,-7.69552 -10.66274,-8.53035 -13.21583,-1.21709 -15.97502,1.95055 -13.6784,15.70322 1.57821,9.45069 2.86562,10.98823 9.20059,10.98823 4.0511,0 9.16085,-2.38363 11.35499,-5.29699 z m 31.23092,11.62097 c -7.42139,-2.79264 -10.13585,-9.64456 -10.13585,-25.58526 0,-21.07084 3.80675,-32.97775 10.11169,-31.62782 2.589,0.55434 5.09473,4.05866 5.56827,7.78741 0.66789,5.25906 2.63175,6.77948 8.75666,6.77948 4.34265,0 8.04724,-1.36208 8.23248,-3.02685 0.18509,-1.66477 0.63992,-4.38895 1.01038,-6.0537 0.37049,-1.66477 0.82515,-4.38895 1.01039,-6.05372 0.48634,-4.37074 5.49486,-3.71836 9.95952,1.29723 5.00946,5.62767 5.39774,47.99887 0.48112,52.50431 -3.51012,3.21658 -29.2446,6.14259 -34.99466,3.97892 z m 22.76303,-16.16123 c 0.6287,-2.08096 1.06152,-7.18879 0.96186,-11.35071 -0.15194,-6.34676 -1.57229,-7.64577 -8.80685,-8.05469 -10.45833,-0.5912 -15.4687,5.33304 -13.17883,15.5825 1.39499,6.24384 3.32789,7.60645 10.79006,7.60645 4.99986,0 9.60505,-1.70259 10.23376,-3.78355 z"
       id="path3054"
       inkscape:connector-curvature="0" />
  </g>
</svg>
