<?xml version="1.0" encoding="UTF-8" standalone="no"?>
<!-- Created with Inkscape (http://www.inkscape.org/) -->

<svg
   xmlns:dc="http://purl.org/dc/elements/1.1/"
   xmlns:cc="http://creativecommons.org/ns#"
   xmlns:rdf="http://www.w3.org/1999/02/22-rdf-syntax-ns#"
   xmlns:svg="http://www.w3.org/2000/svg"
   xmlns="http://www.w3.org/2000/svg"
   xmlns:sodipodi="http://sodipodi.sourceforge.net/DTD/sodipodi-0.dtd"
   xmlns:inkscape="http://www.inkscape.org/namespaces/inkscape"
   width="300"
   height="300"
   id="svg2"
   version="1.1"
   inkscape:version="0.48.2 r9819"
   sodipodi:docname="Nouveau document 1">
  <defs
     id="defs4" />
  <sodipodi:namedview
     id="base"
     pagecolor="#ffffff"
     bordercolor="#666666"
     borderopacity="1.0"
     inkscape:pageopacity="0.0"
     inkscape:pageshadow="2"
     inkscape:zoom="1.979899"
     inkscape:cx="209.86947"
     inkscape:cy="155.50825"
     inkscape:document-units="px"
     inkscape:current-layer="layer1"
     showgrid="false"
     inkscape:window-width="1280"
     inkscape:window-height="999"
     inkscape:window-x="0"
     inkscape:window-y="24"
     inkscape:window-maximized="1" />
  <metadata
     id="metadata7">
    <rdf:RDF>
      <cc:Work
         rdf:about="">
        <dc:format>image/svg+xml</dc:format>
        <dc:type
           rdf:resource="http://purl.org/dc/dcmitype/StillImage" />
        <dc:title></dc:title>
      </cc:Work>
    </rdf:RDF>
  </metadata>
  <g
     inkscape:label="Calque 1"
     inkscape:groupmode="layer"
     id="layer1"
     transform="translate(0,-752.36218)">
    <path
       style="fill:#000000"
       d="m 40.904792,1021.1207 c -3.812522,-2.622 -3.733067,-3.5696 0.545892,-6.5108 3.893757,-2.6764 12.853964,-3.4857 40.27568,-3.6378 20.565836,-0.1142 36.709246,-1.1865 38.725606,-2.5724 4.83067,-3.3204 2.39292,-16.47144 -3.41969,-18.44835 -2.64435,-0.89935 -11.7695,-3.92059 -20.278117,-6.7139 -8.508619,-2.7933 -19.113621,-8.05493 -23.566673,-11.69251 -7.164294,-5.85232 -7.850394,-7.88876 -5.959237,-17.68784 2.622372,-13.58789 4.036118,-14.79638 25.917894,-22.15502 9.631533,-3.239 19.057163,-7.87373 20.945823,-10.29941 4.024,-5.16814 1.58324,-11.12595 -4.22864,-10.32195 -6.66528,0.92205 -22.890317,-2.65791 -28.890258,-6.37448 -3.913853,-2.42437 -5.609209,-6.78915 -5.609209,-14.44119 0,-12.36988 5.524504,-17.16572 26.443417,-22.9556 10.00217,-2.76838 12.01973,-4.39607 12.01973,-9.69703 0,-3.50362 -0.54643,-6.37023 -1.2143,-6.37023 -0.66786,0 -9.68266,3.50969 -20.032888,7.7993 -20.697762,8.57813 -30.730552,10.95982 -38.042999,9.03107 -8.443455,-2.22707 -5.16223,-6.76057 8.833744,-12.20515 31.244388,-12.15438 47.904933,-17.84411 52.250733,-17.84411 2.53893,0 4.61624,-0.87846 4.61624,-1.95212 0,-1.07367 4.98702,-3.57874 11.08226,-5.56683 6.09525,-1.98809 11.8694,-4.49013 12.83145,-5.56009 2.40558,-2.67539 -1.42292,-8.95246 -5.46027,-8.95246 -2.68739,0 -39.143863,11.43326 -64.08494,20.09793 -9.362589,3.25262 -18.473752,2.29098 -18.473752,-1.94982 0,-6.27606 15.010055,-12.56408 59.297352,-24.84086 3.52579,-0.97738 10.19301,-2.33703 14.81603,-3.02144 6.28086,-0.92985 8.91877,-3.00842 10.43614,-8.22323 2.90973,-10.00009 7.67664,-13.32893 15.15018,-10.57971 3.34068,1.2289 6.07396,4.1437 6.07396,6.47733 0,6.20881 11.18693,12.35378 28.27088,15.52917 8.25009,1.53343 16.44253,3.46297 18.20543,4.28784 1.76289,0.82488 11.54442,3.25171 21.73673,5.39294 15.69999,3.29832 27.94484,8.17416 27.94484,11.1275 0,7.01964 -12.82365,10.00304 -24.88428,5.78929 -3.06114,-1.06951 -16.38348,-5.03763 -29.60519,-8.81804 -24.03305,-6.87166 -38.46315,-8.67601 -38.46315,-4.80947 0,2.26431 17.01992,11.16938 21.32901,11.15965 1.49075,-0.003 8.47994,1.94041 15.53151,4.31951 7.05158,2.3791 21.83585,6.59033 32.85394,9.35829 14.18309,3.56307 20.03289,6.16178 20.03289,8.89938 0,5.57263 -15.3989,5.02207 -41.66146,-1.48953 -22.47371,-5.57218 -28.85431,-4.82962 -28.85431,3.35803 0,4.13474 6.2535,6.40453 17.64517,6.40453 4.12779,0 11.94285,2.56667 17.36679,5.70372 8.46665,4.89685 9.86171,7.18603 9.86171,16.18216 0,7.28396 -1.71003,11.46015 -5.6092,13.69862 -7.97265,4.577 -22.26495,8.47849 -31.0592,8.47849 -9.46193,0 -12.92437,5.79481 -7.1081,11.89627 4.30157,4.5125 9.93781,6.88454 28.55887,12.01912 11.49256,3.16897 21.60108,14.7699 21.61618,24.80756 0.016,10.58319 -9.38076,18.36766 -29.99523,24.8489 -21.18762,6.66142 -25.13558,10.04273 -23.88776,20.45907 l 1.00814,8.4155 21.01888,-0.7498 c 20.38641,-0.7273 47.94485,2.6088 47.84518,5.7918 -0.20805,6.6448 -6.33177,7.0868 -105.68954,7.6286 -82.45688,0.4497 -101.350732,-0 -105.009888,-2.5204 z M 165.93579,996.83401 c 2.80896,-13.50773 6.30133,-17.24601 20.00963,-21.41861 34.42214,-10.47758 37.06597,-31.86757 4.76115,-38.5203 -15.44517,-3.18072 -24.74593,-9.74777 -26.14,-18.45685 -1.14344,-7.1433 -8.87639,-9.32821 -23.86387,-6.74265 -6.12548,1.05674 -7.35165,2.3702 -5.90675,6.32725 3.59929,9.85713 -3.10818,15.74209 -25.3468,22.23865 -22.116648,6.46092 -26.640635,10.48598 -22.998037,20.46173 2.899304,7.94014 8.573715,11.14261 22.908727,12.92897 28.43876,3.54393 32.41949,7.21947 30.43075,28.0977 l -0.80057,8.4047 12.2321,-0.6936 c 12.18888,-0.6912 12.24088,-0.7358 14.71367,-12.62699 z M 115.15124,896.111 c 1.10554,-1.98027 1.10163,-6.92895 -0.009,-10.99707 -1.81636,-6.65485 -2.86745,-7.26149 -10.48166,-6.04944 -9.13127,1.45354 -16.476007,6.46722 -16.476007,11.24689 0,8.32485 22.816937,13.23206 26.966327,5.79962 z m 49.35434,-8.30369 c 1.0854,-11.76045 -1.79715,-14.443 -15.58094,-14.49989 -11.92323,-0.0492 -15.86605,3.91439 -15.86605,15.94965 l 0,10.69583 15.225,-0.6715 15.22499,-0.6715 0.997,-10.80259 z m 41.37079,3.27742 c 6.11656,-5.46792 4.93271,-12.92801 -2.30201,-14.50632 -11.642,-2.53979 -18.44856,0.66435 -20.04939,9.43812 -0.82158,4.50289 -0.88527,8.93428 -0.14154,9.84752 2.07735,2.55085 18.10211,-0.85411 22.49294,-4.77932 z m -43.1691,-28.15984 c 1.32217,-0.50985 2.40394,-5.29498 2.40394,-10.63363 0,-11.88256 -6.75902,-15.49129 -22.12057,-11.81047 -9.25668,2.21802 -9.93205,3.10327 -9.93205,13.01853 0,8.30062 1.23273,10.84791 5.60921,11.59074 5.47205,0.92878 19.22926,-0.31029 24.03947,-2.16517 z"
       id="path2996"
       inkscape:connector-curvature="0" />
  </g>
</svg>
