<?xml version="1.0" encoding="UTF-8" standalone="no"?>
<svg
   xmlns:dc="http://purl.org/dc/elements/1.1/"
   xmlns:cc="http://creativecommons.org/ns#"
   xmlns:rdf="http://www.w3.org/1999/02/22-rdf-syntax-ns#"
   xmlns:svg="http://www.w3.org/2000/svg"
   xmlns="http://www.w3.org/2000/svg"
   viewBox="0 0 300 300"
   height="300"
   width="300"
   id="svg117"
   version="1.1">
  <metadata
     id="metadata123">
    <rdf:RDF>
      <cc:Work
         rdf:about="">
        <dc:format>image/svg+xml</dc:format>
        <dc:type
           rdf:resource="http://purl.org/dc/dcmitype/StillImage" />
        <dc:title></dc:title>
      </cc:Work>
    </rdf:RDF>
  </metadata>
  <defs
     id="defs121" />
  <path
     id="path127"
     d="m 152.93993,216.11277 c -0.1693,-0.24213 -55.835479,3.6294 -55.835479,3.6294 -7.703952,0.65537 -13.213714,-1.43466 -13.014916,-6.16506 0.229522,-5.46151 26.267675,-7.04692 26.267675,-7.04692 l 38.47525,-2.61735 c -0.56914,-2.84818 -3.4661,-20.0795 -3.52835,-23.81428 -0.15997,-0.15998 -11.41718,0.39552 -25.016,1.23444 -13.59884,0.8389 -26.088418,1.19027 -27.778209,1.18117 -5.517378,-0.0298 -9.041829,-7.69549 -4.514062,-9.68174 4.954248,-2.17335 8.846524,-2.63116 27.200141,-3.25022 9.66125,-0.32328 19.31137,-0.70818 28.93639,-1.58348 l 0.22096,-14.59179 c 0.21263,-14.04097 0.3431,-14.68614 1.95797,-17.86848 2.29477,-4.5222 5.30649,-2.37625 7.89141,1.08547 1.34886,1.80638 1.43166,2.89372 1.43166,15.34107 0,8.36558 -0.25147,11.39582 0.19912,14.54529 14.39752,-1.00455 28.60058,-1.65894 42.47985,-3.7401 -0.77115,-7.28295 -2.44106,-20.76966 4.68356,-20.8444 2.47277,-0.026 2.61329,0.13418 4.0392,3.86032 4.94679,12.92674 7.15743,41.62095 3.90957,50.74621 -3.38902,9.52184 -14.86328,14.786 -37.67954,17.28664 -3.98958,0.43726 -7.90759,0.85892 -7.85039,1.04375 3.54619,11.45822 6.23583,17.34257 16.35891,37.9543 11.01419,22.42615 11.81841,24.41277 11.86722,27.99581 0.0713,5.23187 -3.54752,4.66149 -6.34194,3.08618 -9.49223,-12.50945 -28.48204,-49.65825 -34.36,-67.78623 z m 47.16772,-41.99954 -42.6334,4.55475 c -0.17978,3.27668 2.82558,21.65519 4.35214,24.34168 31.66709,-2.9167 43.7034,-4.57447 38.28126,-28.89643 z M 172.4796,131.58818 c -8.79664,-3.34226 -9.38384,-15.21809 -10.7648,-24.99229 l -22.08607,-0.052 c -1.95748,19.08745 -2.74551,24.36975 -21.3221,29.18274 -11.88698,3.07979 -33.231564,3.50368 -42.973966,2.67214 -5.865011,-0.50059 -5.508113,-5.51562 -2.262922,-7.20805 3.831048,-1.99797 12.301468,-3.67364 25.051151,-5.14646 12.571477,-1.45224 27.170497,-1.85503 28.610217,-11.08996 0.3986,-2.55676 0.72938,-8.28118 0.72938,-8.28118 0,0 -7.84525,0.0437 -24.53428,-0.29325 -16.6722,-0.33657 -25.272538,-0.76583 -26.434179,-1.31938 -2.085985,-0.99401 -3.709528,-4.12523 -3.113181,-6.004164 0.599649,-1.88934 2.289348,-2.65981 8.490235,-3.87144 4.489747,-0.87727 9.825329,-0.96527 33.808225,-0.55758 l 28.47714,0.4841 0.41852,-15.369656 c -10.7456,-0.610477 -21.00992,-0.895411 -28.34011,-5.749391 -11.55649,-7.652598 -14.37011,-25.831815 -11.51737,-38.27802 0.79088,-3.450571 0.98212,-3.772469 4.05007,-4.351467 6.40425,-1.208638 6.43909,14.616001 6.78065,19.309658 1.30322,17.90878 15.96444,16.950231 29.31048,17.436062 l 0.45673,-30.307359 c 0.33423,-7.015514 -0.27388,-27.368651 8.36822,-21.870094 2.73743,1.741701 3.55125,4.206507 3.42438,27.919964 l -0.13047,24.384298 c 7.81955,-0.05692 19.21305,-0.258967 23.83267,-8.589855 2.04253,-3.683419 2.5247,-8.175042 3.1722,-15.877829 0.23969,-2.851425 0.55713,-6.219974 1.09968,-7.329337 3.52699,-7.211715 8.32596,-6.334089 9.04447,-0.965716 1.9081,14.256335 0.95452,32.002655 -10.84009,38.692716 -9.4355,5.351937 -16.06817,5.385537 -26.6133,5.750083 l -0.0903,14.899373 33.27054,0.0823 c 21.19918,0.0525 33.01921,0.80735 34.71515,1.34124 2.95015,0.92871 4.65068,3.0216 4.68634,5.648484 0.064,4.70899 -33.35302,4.25042 -33.35302,4.25042 l -21.94733,0.072 c 0.0949,6.45583 0.67564,14.02576 5.45037,16.20636 6.43825,2.94031 9.15124,3.75349 27.38645,5.75227 8.93446,0.97931 17.00144,1.52377 18.21009,2.09748 4.88612,2.31927 4.84448,7.01443 0.77782,8.21403 -7.03026,2.07383 -39.26311,-1.64205 -53.29768,-6.89119 z"
     style="fill:#000000;stroke-width:0.69125444" />
</svg>
