<?xml version="1.0" encoding="UTF-8" standalone="no"?>
<svg
   xmlns:dc="http://purl.org/dc/elements/1.1/"
   xmlns:cc="http://creativecommons.org/ns#"
   xmlns:rdf="http://www.w3.org/1999/02/22-rdf-syntax-ns#"
   xmlns:svg="http://www.w3.org/2000/svg"
   xmlns="http://www.w3.org/2000/svg"
   viewBox="0 0 300 300"
   height="300"
   width="300"
   id="svg101"
   version="1.1">
  <metadata
     id="metadata107">
    <rdf:RDF>
      <cc:Work
         rdf:about="">
        <dc:format>image/svg+xml</dc:format>
        <dc:type
           rdf:resource="http://purl.org/dc/dcmitype/StillImage" />
        <dc:title></dc:title>
      </cc:Work>
    </rdf:RDF>
  </metadata>
  <defs
     id="defs105" />
  <path
     id="path111"
     d="m 169.04773,221.14002 -65.02712,3.50081 c -5.610575,0.30205 -13.653603,-0.57913 -13.757163,-6.1836 0,-3.23061 2.815101,-4.48145 9.643494,-4.82819 l 65.196019,-3.31068 c -1.88096,-7.02803 -3.50193,-13.70942 -4.9496,-20.2175 l -26.31376,-0.25578 c 0,0 -28.37572,-0.44464 -30.06306,-0.90037 -9.011672,-2.43396 -6.109543,-8.17188 -0.7699,-9.59561 4.32085,-1.15209 7.38418,-1.26907 29.53297,-1.16084 l 24.71121,0.12077 c -1.24223,-5.69699 -2.16721,-12.22649 -2.76328,-16.9014 -20.17273,-0.0398 -49.06988,-0.0931 -48.95856,-21.91842 0.10968,-21.50279 25.99421,-21.94619 45.30681,-21.83864 18.41077,0.10254 40.18088,-0.57993 40.77411,21.30738 0.46254,17.06499 -13.15047,20.60864 -25.76604,22.07424 1.01276,5.78117 2.07099,10.53515 3.43795,16.96305 l 45.16864,0.22437 c -0.52464,-9.88143 -2.33454,-27.33276 4.40291,-28.54572 1.27884,-0.23023 1.79515,0.0588 3.21304,2.51135 3.98708,6.89654 3.98951,22.48483 4.53816,33.8588 1.34296,27.84095 -23.99367,33.25985 -44.88219,34.25228 10.64656,21.40302 26.06779,37.83395 42.1155,55.15706 5.00581,5.40365 -2.20334,12.53714 -6.68831,8.21791 -19.5241,-20.87194 -39.22223,-41.90002 -48.10183,-62.53127 z m 46.23673,-31.55466 -43.10598,0.0457 c 1.69007,7.16153 3.59293,13.09632 5.59174,19.76635 20.10342,-1.30117 38.81891,-0.89222 37.51424,-19.81206 z m -34.19393,-50.54551 c -0.31929,-12.11808 -20.62449,-10.56404 -30.60712,-10.59684 -17.63591,-0.0579 -33.93042,-0.43374 -33.88794,10.06915 0.0574,14.18803 22.19539,12.68343 32.59304,12.57972 12.96472,-0.17616 32.19317,-1.0018 31.90202,-12.05203 z M 105.54364,86.458902 c -0.1004,-22.430715 24.59744,-21.457539 41.20314,-21.445985 26.59955,0.01851 44.32499,2.965326 44.61459,22.299466 0.33653,22.465977 -26.96575,21.727757 -43.99686,21.395227 -17.19654,-0.37185 -41.72184,-0.12437 -41.82087,-22.248708 z m 75.53623,0.151692 c 0.034,-10.909787 -20.69794,-10.791844 -32.03439,-10.976674 -12.57691,-0.205054 -32.68555,-1.568089 -32.62569,11.762682 0.0547,12.178294 20.45751,10.952974 29.99428,11.011854 16.86583,0.10413 34.62425,1.56572 34.6658,-11.797862 z M 70.873336,54.375293 c 0.696528,-1.097909 9.433111,-4.595075 14.465061,-5.968472 18.391823,-5.01978 42.903353,-7.176476 56.621583,-8.069288 0.1902,-11.17322 1.57823,-25.372788 7.97308,-25.337466 5.10706,0.02821 4.77747,14.332075 4.70343,25.676489 21.8562,1.801322 32.10843,3.272476 53.96302,7.664891 16.79524,3.375571 18.49473,4.297897 20.14486,6.785046 7.63784,11.512052 -27.94964,3.844334 -30.62398,3.293114 -20.27058,-4.110912 -34.33046,-6.256217 -51.66819,-6.022098 -21.9555,0.296474 -41.40027,4.820151 -65.199787,9.389977 -4.535226,0.870824 -13.63833,-1.793992 -10.379077,-7.412193 z"
     style="fill:#000000;stroke-width:0.68882102" />
</svg>
