<?xml version="1.0" encoding="UTF-8" standalone="no"?>
<svg
   xmlns:dc="http://purl.org/dc/elements/1.1/"
   xmlns:cc="http://creativecommons.org/ns#"
   xmlns:rdf="http://www.w3.org/1999/02/22-rdf-syntax-ns#"
   xmlns:svg="http://www.w3.org/2000/svg"
   xmlns="http://www.w3.org/2000/svg"
   version="1.1"
   id="svg70"
   width="300"
   height="300"
   viewBox="0 0 300 300">
  <metadata
     id="metadata76">
    <rdf:RDF>
      <cc:Work
         rdf:about="">
        <dc:format>image/svg+xml</dc:format>
        <dc:type
           rdf:resource="http://purl.org/dc/dcmitype/StillImage" />
        <dc:title></dc:title>
      </cc:Work>
    </rdf:RDF>
  </metadata>
  <defs
     id="defs74" />
  <path
     style="fill:#000000;stroke-width:0.69144571"
     d="m 154.7806,231.91433 -34.07909,1.83657 c -24.697588,1.33099 -32.177576,1.71488 -34.90702,1.00734 -5.361069,-1.38973 -8.838988,-5.76429 -4.275887,-8.13602 4.202631,-2.18437 13.088998,-2.86388 40.900697,-4.10605 l 28.90209,-1.29087 c -1.97392,-6.29165 -2.83032,-10.74184 -3.58993,-17.04159 l -24.76231,0.59848 c -38.044755,0.91951 -39.186665,0.79612 -41.292676,-3.22774 -4.421279,-8.44753 19.746026,-8.73982 30.988256,-9.0535 l 34.01966,-0.94921 c -0.12778,-7.58658 -0.11171,-16.21724 3.95167,-20.57845 5.22752,-5.61067 6.90093,8.08046 7.07918,10.06452 l 0.91221,10.15338 c 0,0 33.12004,-1.15376 46.54205,-1.58951 -0.72823,-4.16734 -1.3741,-10.40794 1.23252,-12.28885 7.57941,-5.46926 12.10328,15.03452 12.5032,17.65019 3.54136,23.16218 -1.4876,30.8085 -20.58928,33.74384 -8.95242,1.3757 -22.14851,2.01447 -31.28367,2.75011 11.77204,24.27797 20.22699,33.31455 33.19627,45.28268 1.2751,1.22742 1.88779,3.70669 1.06028,5.54646 -2.08913,4.64465 -5.49807,2.42588 -8.09503,9.6e-4 -14.75697,-13.87891 -25.91977,-24.90238 -38.41319,-50.37318 z m 51.37618,-31.59621 c -2.10092,2.24561 -28.37552,2.79224 -46.48186,3.67965 0.74045,6.86334 1.15775,10.11613 3.43509,16.79295 38.00349,-2.41522 48.19817,-0.66427 43.04677,-20.4726 z m -79.23845,-29.57691 c -0.29578,-7.33616 0.561,-19.24213 1.11235,-26.89921 l 1.85617,-25.77865 C 90.130094,116.17143 92.711908,100.83538 92.083534,63.896932 91.769493,45.436276 90.952735,29.899895 102.40784,23.906379 c 16.05415,-8.399817 32.65202,-8.82299 79.57211,-8.902268 28.47931,-0.04812 28.78181,0.253136 29.93667,4.899836 1.74535,7.022602 -20.65448,6.895479 -31.76776,6.890105 -13.2338,-0.0064 -20.42643,0.04947 -20.42643,0.04947 -0.49786,1.653718 -0.96905,2.798268 -2.03643,4.654632 14.99966,7.120477 23.28448,9.397562 38.66956,10.86052 0.57978,-4.048705 3.4024,-7.337029 7.14218,-5.223717 3.26719,1.846245 4.05266,8.963747 4.41755,25.079624 0.55217,24.387781 0.57396,41.967809 -11.47797,49.709569 -8.53066,5.47983 -15.26459,6.27 -25.08218,6.90826 0.57603,15.89454 0.9335,29.90188 3.05044,44.61509 1.52393,10.59167 0.31705,14.62105 -4.48905,14.62105 -3.21283,0 -4.08486,-0.45068 -5.1099,-5.87728 -3.47693,-18.40691 -4.13615,-35.52896 -5.19859,-53.84354 l -18.86246,-0.2437 c -0.24605,5.02912 -0.56769,11.92531 -1.33672,24.61299 -1.32,21.77783 -1.03451,25.51486 -3.48496,31.61957 -2.63218,6.55746 -8.75746,2.1115 -9.00557,-3.59538 z m 66.46435,-72.490734 c 3.26278,-7.213502 3.99066,-15.938091 2.98107,-35.732077 l -0.44485,-8.72179 c -16.74169,-3.052661 -26.67448,-5.406544 -47.16017,-13.146423 -7.76828,5.361861 -21.22213,9.197335 -46.05563,15.032479 -0.56645,28.311072 -1.28088,35.51265 3.38147,42.765051 3.99739,6.218024 12.04225,7.142294 20.20218,7.967264 3.19226,0.32274 31.87528,1.42529 46.85215,0.67374 7.32707,-0.36768 17.12632,-2.48416 20.24378,-8.838204 z m -65.28073,-3.77076 c -13.45627,-0.14772 -14.29703,-0.21235 -15.35664,-1.764008 -4.08791,-5.986172 2.11785,-9.406061 9.04704,-9.399031 l 25.23777,0.02561 c 32.35847,0.03284 37.00729,0.676766 38.79298,5.373468 1.13216,2.977827 -0.56972,6.391361 -4.74988,6.345471 z M 127.38571,71.261749 C 112.07029,70.72752 111.40677,70.21786 111.76638,66.30696 c 0.5175,-5.627958 11.04566,-4.968309 13.89248,-5.013747 0,0 11.53543,-0.07899 22.00113,-0.07899 31.64137,0 36.81278,0.377244 38.09824,2.779158 1.7896,3.343905 0.34071,6.022323 -4.08614,7.494622 -4.01779,1.33625 -33.84132,0.484035 -54.28638,-0.226254 z m 16.64822,-44.205341 c -11.4355,0.457211 -29.98211,1.252336 -38.31769,8.17955 -2.36708,1.967135 -2.30375,5.57703 -2.49181,8.966493 15.52786,-3.204691 36.18695,-7.033543 40.8095,-17.146043 z M 69.750655,129.85001 c -0.128615,-13.04574 0.1001,-18.50639 1.499623,-21.09889 4.319991,-8.00244 9.370192,0.86765 9.401052,5.52682 l 0.197166,6.26096 14.650759,0.27075 c 13.740385,0.25393 16.971765,0.17653 18.685045,2.84146 1.86972,2.90828 0.69274,5.54399 -1.55361,6.57012 -2.1618,0.98751 -4.03367,1.17474 -15.674938,1.17474 l -16.078957,-0.0892 0.314895,9.70716 28.64177,0.4357 c 5.33456,0.0812 7.10059,7.4306 2.79723,9.46297 -2.20901,1.04326 -4.38398,1.18774 -14.823113,1.04722 -6.726604,-0.0905 -16.785425,-0.013 -16.785425,-0.013 0.82126,11.77662 10.731638,10.19835 18.922802,10.22408 11.934066,0.0375 15.038176,1.70531 16.548616,5.30767 1.87926,7.69445 -21.492202,6.59882 -27.15759,6.30731 C 67.747132,172.67505 69.998299,154.96925 69.750655,129.85004 Z M 183.15055,169.7678 c -0.54967,-7.52819 10.85853,-6.53956 15.738,-6.60909 8.96598,-0.12774 17.85049,-2.07823 18.36262,-10.59998 l -13.86822,0.069 c -13.70585,0.0683 -16.65175,-0.43021 -18.22751,-4.01152 -3.27442,-7.44195 16.149,-7.36979 17.98172,-7.34365 l 14.52796,0.20719 -0.0312,-9.2927 -17.01676,-0.0512 c -6.41592,-0.0193 -18.34799,-0.30742 -16.47549,-7.89998 0.58325,-2.36495 6.0175,-3.18457 19.46602,-2.98414 l 14.31461,0.20361 c 0.6097,-9.0267 1.86447,-16.77184 6.41362,-15.65473 5.31432,1.30502 6.07996,4.0598 5.92706,26.28681 -0.16987,24.69179 0.15465,40.90246 -28.43251,42.16252 -6.98365,0.30782 -18.28071,0.98494 -18.67989,-4.48214 z"
     id="path80" />
</svg>
