<?xml version="1.0" encoding="UTF-8" standalone="no"?>
<svg
   xmlns:dc="http://purl.org/dc/elements/1.1/"
   xmlns:cc="http://creativecommons.org/ns#"
   xmlns:rdf="http://www.w3.org/1999/02/22-rdf-syntax-ns#"
   xmlns:svg="http://www.w3.org/2000/svg"
   xmlns="http://www.w3.org/2000/svg"
   viewBox="0 0 300 300"
   height="300"
   width="300"
   id="svg2"
   version="1.1">
  <metadata
     id="metadata8">
    <rdf:RDF>
      <cc:Work
         rdf:about="">
        <dc:format>image/svg+xml</dc:format>
        <dc:type
           rdf:resource="http://purl.org/dc/dcmitype/StillImage" />
        <dc:title></dc:title>
      </cc:Work>
    </rdf:RDF>
  </metadata>
  <defs
     id="defs6" />
  <path
     id="path12"
     d="m 172.61608,284.21991 c -2.1962,-1.08784 -23.91275,-34.56856 -26.92558,-41.51153 -1.45746,-3.35868 -2.99269,-6.23822 -3.41162,-6.39898 -0.41892,-0.16076 -4.77375,0.47538 -9.67739,1.41362 -10.15924,1.94385 -16.12258,2.81722 -26.62344,3.89917 -11.97077,1.23341 -18.4731,-0.954 -18.4731,-6.2144 0,-1.15433 0.0879,-2.0988 0.19518,-2.0988 0.10735,0 7.16262,-1.24154 15.67836,-2.759 8.51576,-1.51744 19.81922,-3.24327 25.11879,-3.83517 5.29958,-0.5919 9.76462,-1.20521 9.92232,-1.3629 0.39331,-0.39331 -1.38007,-12.95457 -1.90624,-13.50232 -0.23249,-0.24201 -9.10611,0.76275 -19.71916,2.23283 -10.67831,1.47912 -20.29945,2.48731 -21.54221,2.25741 -1.23517,-0.22851 -3.03448,-1.03587 -3.99847,-1.79414 -1.45054,-1.14099 -1.71683,-1.86241 -1.54461,-4.18449 l 0.20809,-2.8058 22.21543,-4.2044 c 12.21848,-2.31242 22.56484,-4.5538 22.99188,-4.98086 0.57479,-0.57478 0.57737,-2.81542 0.01,-8.62647 -1.22634,-12.55918 -1.10635,-14.09022 1.29227,-16.48883 1.59317,-1.59318 2.56266,-2.00979 4.28684,-1.84218 2.04329,0.19864 2.32632,0.53098 3.4124,4.00697 0.84609,2.7079 1.19634,6.29977 1.22642,12.57716 0.0379,7.89518 0.16455,8.78677 1.24895,8.78677 0.66377,0 7.71903,-0.92673 15.67836,-2.05942 7.95934,-1.13268 14.84511,-2.06304 15.30174,-2.06748 0.45661,-0.004 1.04597,-1.15809 1.30967,-2.5637 0.36495,-1.94542 -0.0529,-4.20806 -1.74974,-9.47594 -3.18913,-9.9004 -3.04795,-9.65454 -6.12786,-10.671 -2.32992,-0.76894 -3.01408,-1.44423 -4.15204,-4.09824 -3.43518,-8.01168 -5.59875,-23.5 -5.60969,-40.15801 l -0.007,-10.10322 -6.03015,-0.42205 c -3.31657,-0.23212 -8.22084,-0.59113 -10.89837,-0.7978 l -4.86822,-0.37578 -1.89227,21.58301 c -1.04074,11.87065 -2.3662,23.68705 -2.94547,26.25868 -1.09825,4.87564 -2.11902,6.089 -5.84762,6.95091 -1.5615,0.36097 -1.94207,0.11154 -2.72919,-1.78873 -1.34547,-3.24826 -1.02296,-14.49292 0.72689,-25.34394 1.58089,-9.8033 2.10263,-24.38752 0.91491,-25.57523 -0.37776,-0.37777 -4.5312,-1.30291 -9.22985,-2.05588 -18.2428,-2.92341 -24.18438,-5.84145 -27.64122,-13.57518 -1.52711,-3.416468 -3.51365,-14.699218 -4.72819,-26.854218 -1.72194,-17.233 0.67894,-41.878386 4.38976,-45.061366 6.77845,-5.81427 19.04619,-10.50268 30.26214,-11.56539 22.58688,-2.14012 84.98666,-2.7042 90.92506,-0.82194 1.78431,0.56556 2.83208,1.47131 3.61809,3.12769 0.987,2.07997 1.41335,3.83763 0.93412,3.851 -0.0948,0.003 -2.4982,0.85548 -5.34098,1.89518 l -5.16842,1.89039 h -23.842 c -24.67379,0 -26.12201,0.15695 -26.12201,2.8311 0,1.30889 7.21304,4.81425 13.23241,6.43062 2.76666,0.74292 9.68212,2.0121 15.36768,2.82039 5.68556,0.80829 11.85748,1.75517 13.71538,2.10419 3.37579,0.63415 3.37953,0.63277 5.73926,-2.12405 1.86168,-2.17496 2.83808,-2.75861 4.61496,-2.75861 1.98141,0 2.41204,0.35075 3.56438,2.90326 1.04889,2.32334 1.29914,4.42261 1.25284,10.509666 -0.11563,15.20382 -1.62216,39.9862 -2.673,43.97113 -3.21848,12.204778 -9.681,17.256068 -23.69859,18.523508 -4.03664,0.36499 -8.4782,0.96242 -9.87014,1.32764 -2.51435,0.65972 -2.5345,0.69416 -3.10121,5.30371 -1.24414,10.11959 -0.26398,25.82978 2.30251,36.90468 l 1.08886,4.69865 1.94997,-1.8682 c 1.07249,-1.0275 2.42947,-2.87864 3.0155,-4.11364 1.41588,-2.98372 1.39745,-8.13991 -0.0333,-9.32735 -0.60437,-0.50158 -1.99701,-2.47781 -3.09476,-4.39162 -1.657,-2.88885 -1.99698,-4.26822 -2.00235,-8.12409 -0.008,-5.60681 1.78005,-10.77474 4.56566,-13.19734 6.49029,-5.64453 16.22393,-7.38681 25.2284,-4.51581 3.64261,1.16143 5.62672,2.26234 7.30072,4.05089 3.12581,3.33973 5.62365,8.42977 6.09667,12.42365 0.50695,4.28044 -1.78712,9.39104 -6.27571,13.98065 -2.86631,2.93082 -3.52105,3.27351 -6.2544,3.27351 -5.36055,0 -5.93003,-3.85091 -1.71343,-11.58632 1.51082,-2.77162 2.74693,-5.6641 2.74693,-6.42774 0,-2.00556 -3.27618,-4.97814 -7.09035,-6.4333 -2.90626,-1.10879 -3.75641,-1.15686 -7.12546,-0.40289 -3.36223,0.75243 -3.94319,1.13784 -4.79763,3.18282 -1.41796,3.39365 -1.20875,5.74264 0.98533,11.06334 2.68159,6.50291 3.79573,11.52103 3.22884,14.54281 -0.43408,2.31388 -2.34407,6.4028 -5.88112,12.59035 -0.7774,1.35994 -1.37269,3.66846 -1.37269,5.32327 0,2.55254 0.26258,3.05778 2.07678,3.99592 1.48881,0.7699 3.02244,0.94849 5.41708,0.63084 3.20467,-0.42512 3.46215,-0.62895 6.33978,-5.01891 1.64969,-2.51669 5.64701,-7.25949 8.88294,-10.53956 5.18546,-5.25618 6.36846,-6.10438 9.97085,-7.14902 4.51361,-1.30887 10.39084,-1.06174 14.37901,0.60462 1.78059,0.74397 2.47269,1.59717 3.16204,3.89801 0.72768,2.42879 0.72144,3.04954 -0.0356,3.53827 -1.441,0.93033 -5.34381,1.80069 -10.2217,2.27951 -8.03593,0.78883 -8.15731,0.87722 -14.707,10.7094 -6.51663,9.78255 -5.14613,8.78496 -15.61599,11.36693 -2.46375,0.60758 -4.81131,1.21542 -5.2168,1.35076 -0.51589,0.17218 -0.45701,2.49149 0.19606,7.7238 0.51333,4.11276 1.11584,10.43278 1.33892,14.04447 0.35765,5.79024 0.22601,6.9842 -1.1132,10.09729 -0.83534,1.94181 -2.19151,4.14591 -3.01371,4.89801 -1.64592,1.50557 -22.93428,9.46426 -27.12139,10.13938 -5.04513,0.81346 -5.73026,1.06704 -5.73026,2.1209 0,1.63207 15.70399,28.54395 18.40911,31.54765 3.12836,3.47364 6.39939,10.46126 6.40007,13.67196 6.9e-4,3.94415 -3.9377,5.88981 -7.92479,3.91489 z m -8.76647,-63.61621 c 4.28897,-0.93835 9.77218,-2.68469 12.23256,-3.89594 l 4.45923,-2.19526 v -5.80969 c 0,-5.21074 -0.12433,-5.77258 -1.20603,-5.44968 -0.66331,0.198 -7.97637,1.65642 -16.25122,3.24093 -14.36188,2.75008 -15.02758,2.94711 -14.65755,4.33826 0.21322,0.80152 0.91259,3.96916 1.55419,7.03919 l 1.16654,5.58185 2.46447,-0.5745 c 1.35546,-0.31597 5.96246,-1.33978 10.23781,-2.27516 z m 15.65805,-118.45397 c 8.20066,-1.16014 12.67694,-2.13064 14.91953,-3.234698 3.04974,-1.50142 3.2734,-1.81262 4.65021,-6.47021 1.90977,-6.46054 2.96154,-20.01736 2.39447,-30.86339 l -0.45705,-8.74149 -4.55115,-0.71554 C 168.15877,47.674256 161.05609,45.994786 153.8508,42.048416 l -4.29294,-2.35126 -3.97697,2.35212 c -6.08824,3.60079 -13.31827,5.67823 -25.30633,7.27139 -6.00168,0.797596 -13.58168,1.985856 -16.84446,2.640586 l -5.93235,1.1904 -0.62201,8.58563 c -0.7883,10.88081 0.23853,23.52201 2.35657,29.0116 2.50932,6.50374 4.62422,8.48032 10.82708,10.119038 4.92394,1.30083 13.29788,2.50822 21.89631,3.15709 1.89518,0.14301 10.73365,0.1525 19.64103,0.0211 12.36882,-0.18249 18.96327,-0.63054 27.91093,-1.89635 z m -41.69411,-8.213368 c -25.47553,-0.59288 -26.58067,-0.67361 -27.73864,-2.02671 -0.66332,-0.77509 -1.20604,-2.42733 -1.20604,-3.67166 0,-2.14153 0.23976,-2.3584 4.48679,-4.05861 l 4.48678,-1.79618 28.42055,0.0226 c 38.71098,0.0307 41.51457,0.4983 41.51457,6.92379 0,2.92865 -0.081,3.03826 -3.10121,4.19539 -3.54973,1.36002 -5.40339,1.37629 -46.8628,0.41144 z m -5.1687,-23.37005 c -20.57332,-0.55345 -21.40855,-0.62879 -22.56994,-2.03601 -0.66332,-0.80371 -1.20604,-2.44184 -1.20604,-3.64028 0,-1.75443 0.4393,-2.41557 2.25458,-3.39317 2.08534,-1.12303 4.98078,-1.19946 38.56879,-1.01816 40.92034,0.22086 38.59394,-0.10767 38.71223,5.46681 0.0606,2.8579 -0.0182,2.96522 -3.03896,4.13512 -3.56431,1.38043 -15.40546,1.48952 -52.72066,0.48569 z m -18.2627,-31.262686 c 7.01219,-0.96704 14.30004,-2.25675 16.19523,-2.86603 6.96001,-2.23757 14.13793,-6.80886 13.16451,-8.38388 -0.68055,-1.10116 -8.40891,-1.0146 -19.36694,0.21688 -12.01607,1.3504 -18.30506,3.31395 -23.92713,7.47052 -1.42857,1.05619 -1.91633,2.0011 -1.91633,3.71239 0,2.02297 0.18414,2.25478 1.55061,1.95197 0.85283,-0.18899 7.28786,-1.13482 14.30005,-2.10185 z M 96.8086,185.35784 c -13.42208,-1.86107 -17.7748,-2.79901 -24.27387,-5.23062 -3.44275,-1.2881 -3.93359,-1.74289 -5.44571,-5.04579 -3.33814,-7.29147 -4.59966,-15.32495 -4.60038,-29.29561 -4.7e-4,-9.22704 0.309,-14.157 1.12012,-17.84412 0.61643,-2.80207 1.23027,-5.20418 1.36411,-5.33802 0.13384,-0.13383 1.61898,-0.43189 3.30034,-0.66234 l 3.05699,-0.41901 0.80183,3.00039 c 1.92284,7.19501 2.45944,14.63812 1.73562,24.0747 -1.02801,13.40252 0.16494,18.29252 5.29001,21.68413 1.45245,0.96118 3.80518,1.93655 5.2283,2.1675 l 2.58748,0.41989 -0.44424,-3.37647 c -0.24433,-1.85706 -0.49394,-11.59469 -0.55468,-21.63918 -0.1211,-20.02712 0.50394,-25.07946 3.98221,-32.18877 1.72092,-3.51744 1.81686,-3.59166 3.34715,-2.58899 0.86649,0.56776 2.47471,2.65517 3.57381,4.63871 1.93786,3.49721 1.99056,3.84645 1.74009,11.53176 -0.57132,17.53107 -0.5591,17.75398 1.06235,19.37419 0.82127,0.82065 1.93537,1.32242 2.4758,1.11504 1.66769,-0.63995 3.27983,-5.02626 4.04061,-10.99376 0.40004,-3.13781 0.87147,-6.7267 1.04762,-7.97533 0.43112,-3.05584 3.49405,-6.358 6.06891,-6.5429 1.74667,-0.12543 2.2706,0.28078 3.72963,2.89161 1.37487,2.46022 1.69147,3.97251 1.6658,7.95694 -0.0333,5.16595 -2.40431,16.20037 -4.03227,18.76576 -1.56238,2.46203 -5.57368,5.13806 -8.72041,5.81759 -6.30834,1.36227 -6.45888,1.51437 -7.27831,7.35391 -0.40809,2.90824 -0.62219,5.4075 -0.47578,5.55391 0.1464,0.14642 4.69973,0.47755 10.1185,0.73587 11.07407,0.52789 13.55727,1.34377 15.04868,4.94432 0.83994,2.02779 0.78841,2.29862 -0.66058,3.47195 -2.64311,2.14025 -8.30067,3.42195 -16.25151,3.68172 -4.16942,0.13623 -8.51112,0.11869 -9.64822,-0.039 z"
     style="fill:#000000;stroke-width:0.68915892" />
</svg>
