<?xml version="1.0" encoding="UTF-8" standalone="no"?>
<!-- Created with Inkscape (http://www.inkscape.org/) -->

<svg
   xmlns:dc="http://purl.org/dc/elements/1.1/"
   xmlns:cc="http://creativecommons.org/ns#"
   xmlns:rdf="http://www.w3.org/1999/02/22-rdf-syntax-ns#"
   xmlns:svg="http://www.w3.org/2000/svg"
   xmlns="http://www.w3.org/2000/svg"
   xmlns:sodipodi="http://sodipodi.sourceforge.net/DTD/sodipodi-0.dtd"
   xmlns:inkscape="http://www.inkscape.org/namespaces/inkscape"
   width="300"
   height="300"
   viewBox="0 0 300 300"
   id="svg2"
   version="1.1"
   inkscape:version="0.91 r13725"
   sodipodi:docname="夔-seal.svg">
  <defs
     id="defs4" />
  <sodipodi:namedview
     id="base"
     pagecolor="#ffffff"
     bordercolor="#666666"
     borderopacity="1.0"
     inkscape:pageopacity="0.0"
     inkscape:pageshadow="2"
     inkscape:zoom="1.71"
     inkscape:cx="149.4152"
     inkscape:cy="150"
     inkscape:document-units="px"
     inkscape:current-layer="layer1"
     showgrid="false"
     inkscape:window-width="1280"
     inkscape:window-height="751"
     inkscape:window-x="0"
     inkscape:window-y="1"
     inkscape:window-maximized="1"
     units="px" />
  <metadata
     id="metadata7">
    <rdf:RDF>
      <cc:Work
         rdf:about="">
        <dc:format>image/svg+xml</dc:format>
        <dc:type
           rdf:resource="http://purl.org/dc/dcmitype/StillImage" />
        <dc:title></dc:title>
      </cc:Work>
    </rdf:RDF>
  </metadata>
  <g
     inkscape:label="Layer 1"
     inkscape:groupmode="layer"
     id="layer1"
     transform="translate(0,-752.36216)">
    <path
       style="fill:#000000"
       d="m 205.72526,1033.5451 c -8.71645,-6.0412 -22.19482,-18.3398 -41.37948,-37.75767 l -17.559,-17.77242 -16.55956,1.57648 c -9.10774,0.86707 -18.22726,2.43736 -20.26562,3.48955 -4.57164,2.35985 -28.76121,3.31885 -30.85673,1.22334 -3.57624,-3.57624 5.03606,-6.80716 28.13204,-10.55383 13.54505,-2.19728 25.27903,-3.61825 26.07554,-3.15769 2.68074,1.55005 6.60479,-5.3245 5.1714,-9.0598 -1.59002,-4.14356 -11.67826,-4.61926 -32.77715,-1.54559 -12.76933,1.86023 -22.90333,-0.6322 -18.88967,-4.64586 1.82907,-1.82907 29.4015,-6.34935 39.87258,-6.53675 3.13838,-0.0562 3.6505,-1.43591 2.55889,-6.89395 -1.14427,-5.72134 -0.64598,-6.82371 3.08436,-6.82371 2.47069,0 5.86553,2.64662 7.63439,5.95178 3.08025,5.75548 3.73185,5.91668 19.75826,4.88816 9.11514,-0.58497 17.23886,-1.72947 18.05272,-2.54333 0.81387,-0.81386 0.0917,-4.07353 -1.605,-7.24369 -2.47,-4.61521 -2.54309,-7.26193 -0.36671,-13.28058 1.49494,-4.13417 2.08956,-10.65922 1.32137,-14.50016 -0.76819,-3.84093 -0.21086,-10.5765 1.23839,-14.96794 2.23292,-6.76578 3.93471,-8.20401 11.14987,-9.423 4.68311,-0.79121 11.2836,-0.38584 14.66777,0.90082 8.82215,3.35417 8.58548,14.05755 -0.45318,20.49365 -3.6334,2.58721 -7.72763,4.70402 -9.09828,4.70402 -4.08875,0 -2.8277,-5.57757 2.05705,-9.09828 7.00552,-5.0493 5.89566,-11.37286 -1.99607,-11.37286 -9.38254,0 -12.46688,4.82978 -10.68266,16.72797 0.91351,6.09166 0.43092,12.27315 -1.24539,15.95226 -3.20342,7.0307 -2.72371,7.77569 6.14948,9.55031 6.30841,1.26171 6.84707,0.76419 9.72467,-8.98166 3.91643,-13.26409 8.26122,-17.18873 13.3715,-12.07845 3.44413,3.44411 3.3778,4.02076 -0.89318,7.76561 -2.69653,2.36435 -4.42095,6.40806 -4.15004,9.73166 0.72304,8.87032 -0.91133,10.92747 -9.88786,12.44574 -8.24632,1.39479 -8.35347,1.55131 -8.5124,12.43474 -0.17104,11.70999 -4.29654,18.25766 -11.61807,18.43894 -2.27864,0.0564 -6.94792,1.33588 -10.37622,2.84321 l -6.23326,2.74063 9.64511,10.26386 c 10.42586,11.0947 27.33228,25.22449 40.88483,34.17009 8.75376,5.778 11.80468,10.1663 9.57569,13.7729 -2.00746,3.2481 -8.57217,2.4327 -14.72038,-1.8285 z m -39.76497,-70.3014 c 6.40703,-1.53456 12.53266,-5.7674 12.53266,-8.66018 0,-2.31701 -26.98107,-1.37304 -28.44471,0.99517 -2.56098,4.14377 1.25265,11.6208 5.31381,10.41828 2.08837,-0.61838 6.85757,-1.85737 10.59824,-2.75327 z m -10.87067,-32.70016 c -0.65351,-2.499 -0.62405,-14.78168 0.0655,-27.29484 l 1.25367,-22.75119 -6.80881,0 -6.80881,0 -1.48953,24.3445 c -1.45841,23.83597 -4.22656,33.03063 -7.43054,24.68118 -0.85481,-2.22755 -1.65602,-14.8196 -1.78049,-27.98233 l -0.22632,-23.93221 -12.10565,-4.60898 c -7.5483,-2.87388 -14.23101,-7.39545 -17.75118,-12.01062 -5.19052,-6.80518 -5.64853,-9.36204 -5.68328,-31.72764 -0.0339,-21.89347 0.45803,-24.85378 4.92041,-29.60376 2.8722,-3.0573 8.92091,-5.89262 14.37711,-6.73924 14.50455,-2.25057 17.37988,-3.43037 17.37988,-7.13132 0,-8.11947 -6.3231,-10.55694 -23.09797,-8.90399 -8.81924,0.86902 -17.45699,2.12572 -19.19503,2.79267 -2.96195,1.13661 -7.23625,-5.078 -5.01813,-7.29609 0.55927,-0.55927 12.34923,-1.57296 26.19993,-2.25264 21.71983,-1.06584 25.71397,-0.70492 29.04342,2.62456 2.61742,2.61741 3.44668,5.92859 2.57559,10.28403 -1.08923,5.44619 -0.42439,6.63966 4.36883,7.84268 6.99278,1.75508 11.92337,-2.06165 12.85182,-9.94847 0.46272,-3.93053 3.24711,-7.45727 8.13123,-10.29905 6.83026,-3.97413 8.97948,-4.10137 26.7262,-1.58222 13.6961,1.94417 19.29864,3.66172 19.29864,5.91636 0,3.69639 -0.31517,3.74274 -22.74571,3.34542 -18.33492,-0.32476 -21.84815,0.82913 -23.087,7.58267 -1.03959,5.66738 5.17811,7.32807 29.8745,7.97921 18.03671,0.47555 22.64326,2.0566 22.74709,7.80712 0.0182,1.06102 -13.78375,1.5728 -30.67312,1.13729 -19.48879,-0.50252 -30.70331,0.0391 -30.69531,1.48277 0.007,1.25101 7.94007,4.75465 17.62918,7.78587 9.68907,3.03121 18.8035,5.92003 20.25425,6.41957 1.45074,0.49954 3.31093,-1.21287 4.13378,-3.80538 1.53518,-4.83696 7.037,-6.46731 8.3923,-2.4869 0.417,1.22472 0.43719,12.95704 0.0448,26.07188 -0.66966,22.38602 -1.09521,24.25394 -6.95477,30.52659 -5.24596,5.61585 -8.6744,6.94206 -21.49537,8.31508 -8.38967,0.89846 -15.7764,2.47892 -16.41496,3.51212 -0.63857,1.0332 -1.539,12.6049 -2.00097,25.71486 -0.46196,13.10994 -1.52102,24.9383 -2.35345,26.28518 -2.35197,3.80559 -5.14606,2.89842 -6.4518,-2.09474 z m 38.73509,-66.42202 c 1.57564,-1.30768 2.8648,-4.19124 2.8648,-6.40795 0,-3.71191 -3.59407,-4.05674 -45.49141,-4.36465 -25.02027,-0.18378 -45.4914,0.2929 -45.4914,1.05948 2.35371,7.83011 11.41661,6.72518 14.89843,10.04222 4.41585,4.39304 67.87341,4.10781 73.21958,-0.3291 z m 2.29616,-18.98775 c 5.40995,-1.17978 7.01473,-6.84168 2.37731,-8.38748 -1.50724,-0.50243 -7.39272,-0.18288 -13.07878,0.71028 -8.30714,1.30476 -52.95261,0.93883 -68.33985,-0.56016 -14.48856,-1.41144 -16.08977,6.30097 -1.70593,8.21682 20.41222,2.71877 68.31834,2.73096 80.74725,0.0205 z m 2.84321,-16.95137 c 0,-1.25102 -1.54923,-2.27457 -3.44272,-2.27457 -1.89349,0 -5.22005,-0.9314 -7.39236,-2.06977 -25.34697,-13.28288 -43.88933,-14.59128 -67.6376,-4.77269 -2.50202,1.03443 -6.34036,2.45329 -8.52963,3.15297 -9.46699,3.02561 -2.62384,5.83861 15.92199,6.54505 47.40443,1.80569 71.08032,1.61217 71.08032,-0.58099 z m -72.5532,-18.27101 c 19.17365,-6.12524 20.83473,-8.31454 7.79238,-10.27035 -8.41361,-1.2617 -12.50749,-0.66622 -19.02871,2.7679 -8.43531,4.4421 -12.56627,12.12603 -6.5191,12.12603 1.80528,0 9.79523,-2.08061 17.75543,-4.62358 z m -24.12068,113.0637 c -13.87119,-4.07255 -14.78007,-5.21281 -14.78007,-18.5428 0,-14.28514 1.56018,-19.38564 5.92979,-19.38564 2.35622,0 3.1685,3.49861 3.1685,13.64743 0,10.61466 0.75818,13.64742 3.41185,13.64742 1.87652,0 3.5398,-2.04712 3.69618,-4.54914 0.15626,-2.50203 0.54021,-5.5727 0.85296,-6.82371 0.31276,-1.25102 0.69659,-7.39236 0.85297,-13.64743 0.24403,-9.7617 0.92877,-11.37285 4.83346,-11.37285 3.89927,0 4.54914,1.51639 4.54914,10.61467 0,11.51062 1.90343,11.53751 5.60716,0.0794 3.02499,-9.35842 6.95954,-8.38586 6.70943,1.65844 -0.2154,8.64864 -6.39943,19.76536 -10.51861,18.90864 -1.4658,-0.30486 -3.03303,1.11338 -3.48273,3.15169 -0.59574,2.70019 1.41237,4.12434 7.39906,5.24745 6.05791,1.13647 8.02509,2.55321 7.48736,5.39228 -0.9126,4.81823 -12.89636,5.73824 -25.71645,1.97428 z"
       id="path4232"
       inkscape:connector-curvature="0"
       sodipodi:nodetypes="sscsssssssscssssscsscssssssssssssssssscssssssssscscccssscsssssssssssssssssssscscssssssssssccsssccscccssccsssssssssssscsssscsssssssssscc" />
  </g>
</svg>
