<?xml version="1.0" encoding="UTF-8" standalone="no"?>
<svg
   xmlns:dc="http://purl.org/dc/elements/1.1/"
   xmlns:cc="http://creativecommons.org/ns#"
   xmlns:rdf="http://www.w3.org/1999/02/22-rdf-syntax-ns#"
   xmlns:svg="http://www.w3.org/2000/svg"
   xmlns="http://www.w3.org/2000/svg"
   viewBox="0 0 300 300"
   height="300"
   width="300"
   id="svg36"
   version="1.1">
  <metadata
     id="metadata42">
    <rdf:RDF>
      <cc:Work
         rdf:about="">
        <dc:format>image/svg+xml</dc:format>
        <dc:type
           rdf:resource="http://purl.org/dc/dcmitype/StillImage" />
        <dc:title></dc:title>
      </cc:Work>
    </rdf:RDF>
  </metadata>
  <defs
     id="defs40" />
  <path
     id="path46"
     d="m 70.503378,283.9578 c -0.766392,-1.99718 -0.484632,-4.26993 0.941945,-7.59799 1.258525,-2.93601 17.55858,-24.27074 28.977217,-37.92755 13.77508,-16.47514 26.82384,-36.53268 31.63514,-48.62712 6.26142,-15.73968 10.01164,-39.95195 12.15903,-78.50141 1.40694,-25.257336 1.38555,-38.470594 -0.0632,-39.026535 -4.07559,-1.563964 -14.89354,1.32153 -29.94752,7.987966 -11.00013,4.871258 -32.418358,16.979795 -40.742633,23.033349 -3.978465,2.89322 -12.876782,7.18582 -14.895802,7.18582 -2.043604,0 -3.679737,-2.48496 -3.679737,-5.58878 0,-2.33074 0.422455,-2.85736 5.548434,-6.916424 8.733436,-6.915689 18.929665,-12.99032 37.905573,-22.583104 19.626535,-9.921698 20.445405,-10.234927 34.460605,-13.181607 5.48605,-1.153434 10.27433,-2.396858 10.64064,-2.763164 0.36802,-0.368025 0.87465,-8.619721 1.13233,-18.442925 0.47301,-18.031896 0.92753,-21.166053 3.62878,-25.022625 0.91078,-1.300322 0.99374,-1.302237 3.29825,-0.07614 5.18656,2.759483 6.68563,8.923803 5.0978,20.962555 -1.0643,8.069394 -1.33821,20.341956 -0.4816,21.577547 0.27871,0.402017 5.00734,1.938386 10.50807,3.414155 9.06917,2.433132 11.73706,3.557687 28.62447,12.065591 24.29091,12.237798 43.74001,23.825337 47.51025,28.306001 2.41144,2.86583 3.10936,6.78456 1.42739,8.01445 -3.25545,2.38044 -9.56368,0.57967 -17.20931,-4.91264 -13.35466,-9.593464 -35.04258,-22.28926 -46.85524,-27.428395 -7.57207,-3.294247 -16.89163,-6.050301 -20.45904,-6.050301 -2.22379,0 -2.73632,0.269457 -3.07436,1.616334 -0.57392,2.286692 0.89461,55.251962 1.76241,63.564702 1.88001,18.00863 5.49639,34.20444 10.56515,47.31556 3.45458,8.9358 10.22779,22.83236 14.0294,28.78407 4.22039,6.60733 36.75463,49.86903 40.80715,54.26242 9.44399,10.23835 10.95822,17.56941 3.63494,17.59831 -2.25319,0.009 -3.14105,-0.67315 -9.72198,-7.46844 -12.30115,-12.70181 -28.36271,-32.89414 -39.72288,-49.93895 -8.16237,-12.24684 -14.0361,-24.15193 -19.83457,-40.2015 -5.65936,-15.66449 -7.42719,-19.86416 -8.07079,-19.17295 -0.28155,0.30239 -2.43142,6.75752 -4.77748,14.34474 -3.19943,10.34696 -5.30957,15.77749 -8.44243,21.727 -7.77921,14.77322 -18.0644,29.9534 -30.84386,45.52326 -3.2694,3.98328 -9.132543,11.53282 -13.029215,16.77676 -10.188328,13.71094 -13.705103,16.96116 -19.535696,18.05498 -1.947415,0.36534 -2.559239,0.22078 -2.907591,-0.68702 z"
     style="fill:#000000;stroke-width:0.68974632" />
</svg>
