<?xml version="1.0" encoding="UTF-8" standalone="no"?>
<!-- Created with Inkscape (http://www.inkscape.org/) -->

<svg
   xmlns:dc="http://purl.org/dc/elements/1.1/"
   xmlns:cc="http://creativecommons.org/ns#"
   xmlns:rdf="http://www.w3.org/1999/02/22-rdf-syntax-ns#"
   xmlns:svg="http://www.w3.org/2000/svg"
   xmlns="http://www.w3.org/2000/svg"
   xmlns:sodipodi="http://sodipodi.sourceforge.net/DTD/sodipodi-0.dtd"
   xmlns:inkscape="http://www.inkscape.org/namespaces/inkscape"
   width="300"
   height="300"
   id="svg2"
   version="1.1"
   inkscape:version="0.48.3.1 r9886"
   sodipodi:docname="Nouveau document 1">
  <defs
     id="defs4" />
  <sodipodi:namedview
     id="base"
     pagecolor="#ffffff"
     bordercolor="#666666"
     borderopacity="1.0"
     inkscape:pageopacity="0.0"
     inkscape:pageshadow="2"
     inkscape:zoom="1.4"
     inkscape:cx="226.89007"
     inkscape:cy="176.45109"
     inkscape:document-units="px"
     inkscape:current-layer="layer1"
     showgrid="false"
     inkscape:window-width="1215"
     inkscape:window-height="1000"
     inkscape:window-x="65"
     inkscape:window-y="24"
     inkscape:window-maximized="1" />
  <metadata
     id="metadata7">
    <rdf:RDF>
      <cc:Work
         rdf:about="">
        <dc:format>image/svg+xml</dc:format>
        <dc:type
           rdf:resource="http://purl.org/dc/dcmitype/StillImage" />
        <dc:title></dc:title>
      </cc:Work>
    </rdf:RDF>
  </metadata>
  <g
     inkscape:label="Calque 1"
     inkscape:groupmode="layer"
     id="layer1"
     transform="translate(0,-752.36218)">
    <path
       style="fill:#000000"
       d="m 55.615499,1037.8631 c 1.291199,-11.3033 14.952374,-15.1982 22.776186,-21.8409 15.580361,-12.7546 31.309565,-25.88091 43.841395,-41.7217 8.06766,-12.08063 15.14058,-25.42855 16.4856,-40.17816 2.59268,-18.08564 2.2567,-36.83749 5.12442,-54.6498 -8.53662,-1.50465 -17.62828,6.1535 -24.25094,9.78869 -7.84151,5.65153 -18.63533,10.33065 -26.732298,16.98554 -10.013117,6.51308 -18.895592,14.53985 -28.277037,21.83206 -14.547979,1.60585 -3.410599,-14.89068 2.927413,-18.77603 7.358713,-8.22816 16.694665,-13.99055 25.95796,-19.73615 12.325772,-9.9457 25.572182,-18.95416 40.144932,-25.2015 14.38944,-3.02553 8.90671,-21.58292 -0.82305,-26.68671 -9.88131,-5.84626 -25.14886,-9.70701 -26.0981,-23.43419 -0.1568,-11.74656 1.33771,-23.67474 4.19866,-35.04618 12.48457,-8.84389 13.58648,9.88645 11.52994,18.45317 -0.28348,6.14262 -0.56696,12.28523 -0.85044,18.42785 14.53249,7.68784 32.99137,13.71365 38.34586,31.00995 -2.22187,11.51447 10.15367,15.90467 18.64129,20.38159 15.03564,6.31743 30.70614,12.01335 43.23151,22.8207 10.37984,-0.34916 22.99517,21.32797 6.18985,19.92106 -11.29233,-5.74351 -21.08552,-14.91519 -33.33718,-18.92075 -11.46111,-5.65151 -22.91114,-14.32071 -36.04425,-14.27441 -2.27475,19.07713 -3.18255,38.4091 -3.03775,57.63116 1.08387,15.00988 10.02095,28.04893 18.52844,39.87646 5.8046,9.52567 16.47658,15.38601 24.54454,23.03125 9.95625,9.1254 21.67838,15.9442 32.06494,24.4694 11.74008,12.3719 -13.6315,16.5821 -19.13499,6.1872 -17.9124,-13.6708 -35.68069,-28.1392 -49.84092,-45.77134 -4.79253,-5.98702 -7.46936,-11.21549 -10.89642,-18.12175 -11.52058,-3.09229 -15.63108,14.7429 -21.90557,21.68754 -7.84552,6.96603 -10.22225,16.92725 -18.86703,23.13495 -14.936999,11.689 -30.397744,23.2049 -47.511481,31.4789 -2.718957,1.2103 -6.111136,0.5118 -6.92548,-2.7579 z"
       id="path2996"
       inkscape:connector-curvature="0" />
  </g>
</svg>
