<?xml version="1.0" encoding="UTF-8" standalone="no"?>
<!-- Created with Inkscape (http://www.inkscape.org/) -->

<svg
   xmlns:dc="http://purl.org/dc/elements/1.1/"
   xmlns:cc="http://creativecommons.org/ns#"
   xmlns:rdf="http://www.w3.org/1999/02/22-rdf-syntax-ns#"
   xmlns:svg="http://www.w3.org/2000/svg"
   xmlns="http://www.w3.org/2000/svg"
   xmlns:sodipodi="http://sodipodi.sourceforge.net/DTD/sodipodi-0.dtd"
   xmlns:inkscape="http://www.inkscape.org/namespaces/inkscape"
   width="300"
   height="300"
   id="svg2"
   version="1.1"
   inkscape:version="0.48.3.1 r9886"
   sodipodi:docname="Nouveau document 1">
  <defs
     id="defs4" />
  <sodipodi:namedview
     id="base"
     pagecolor="#ffffff"
     bordercolor="#666666"
     borderopacity="1.0"
     inkscape:pageopacity="0.0"
     inkscape:pageshadow="2"
     inkscape:zoom="1.979899"
     inkscape:cx="166.50258"
     inkscape:cy="139.20522"
     inkscape:document-units="px"
     inkscape:current-layer="layer1"
     showgrid="false"
     inkscape:window-width="1215"
     inkscape:window-height="1000"
     inkscape:window-x="65"
     inkscape:window-y="24"
     inkscape:window-maximized="1" />
  <metadata
     id="metadata7">
    <rdf:RDF>
      <cc:Work
         rdf:about="">
        <dc:format>image/svg+xml</dc:format>
        <dc:type
           rdf:resource="http://purl.org/dc/dcmitype/StillImage" />
        <dc:title></dc:title>
      </cc:Work>
    </rdf:RDF>
  </metadata>
  <g
     inkscape:label="Calque 1"
     inkscape:groupmode="layer"
     id="layer1"
     transform="translate(0,-752.36218)">
    <path
       style="fill:#000000"
       d="m 106.14846,1039.9001 c -2.90274,-1.4118 -3.68608,-4.1411 -2.26866,-7.9047 2.93283,-7.7873 8.08115,-67.08979 10.417,-119.99198 l 1.91526,-43.3759 -7.58783,0.0122 c -4.17328,0.008 -11.765682,2.57958 -16.872024,5.71757 -10.475193,6.4373 -9.923613,3.05423 -13.409551,82.24395 -1.612645,36.63357 -2.7059,43.42681 -7.625177,47.38091 -3.161358,2.5413 -7.930162,3.9716 -10.609212,3.182 -5.003255,-1.4748 -5.026195,-3.7633 -0.494692,-49.34113 0.801774,-8.06425 2.323256,-27.85834 3.381061,-43.98684 1.985243,-30.26847 5.057381,-40.28885 15.062318,-49.12869 6.177714,-5.45831 26.902157,-13.12704 49.229997,-18.21678 7.43764,-1.69546 13.62938,-4.28119 13.75942,-5.74613 0.13007,-1.46494 0.90131,-5.41268 1.71389,-8.77278 0.81259,-3.3601 0.6506,-8.67015 -0.35996,-11.80008 -1.8306,-5.66978 -2.00195,-5.68784 -46.375244,-4.88743 -47.5898,0.85843 -54.463672,-0.70867 -46.432203,-10.5856 3.261235,-4.01059 8.374767,-4.49516 47.436174,-4.49516 l 43.780903,0 0.39774,-6.10928 c 0.21859,-3.36011 0.68773,-6.93403 1.04217,-7.94206 0.35441,-1.00805 1.76662,-5.95657 3.13824,-10.99671 1.99483,-7.33027 3.93673,-9.16393 9.70483,-9.16393 11.55492,0 15.25926,5.61033 12.79395,19.37682 -2.63618,14.72079 -3.1088,14.5624 46.10628,15.45266 32.84627,0.59416 33.40972,0.70245 33.40972,6.42048 0,5.76109 -0.37486,5.82553 -39.62601,6.81059 -21.7943,0.54696 -40.23853,1.46489 -40.98717,2.03987 -1.55768,1.19631 -1.1623,25.97957 0.43401,27.20558 0.57834,0.44415 5.96863,1.32444 11.97843,1.95617 28.23504,2.96804 41.18545,6.03702 51.85922,12.2896 6.3628,3.72726 11.59135,8.57074 11.61907,10.76329 0.0286,2.19255 1.37455,16.63267 2.993,32.08915 1.61844,15.45649 3.30422,39.64925 3.74623,53.76169 0.44195,14.11243 2.19421,28.14263 3.89388,31.1782 3.88215,6.93351 -2.86787,17.696 -11.09852,17.696 -8.49817,0 -11.82021,-13.6121 -12.22593,-50.09606 -0.58072,-52.22007 -4.62776,-76.41155 -13.80578,-82.52497 -8.98597,-5.98548 -21.34968,-8.09602 -24.49929,-4.18214 -8.32558,10.34592 -6.12977,100.19598 3.65213,149.44127 3.57166,17.9808 0.50092,26.4615 -9.58146,26.4615 -10.58128,0 -17.41913,-45.42582 -18.2085,-120.96394 -0.69463,-66.47108 -0.21636,-62.31467 -7.17018,-62.31467 -10.3549,0 -25.35277,5.0955 -27.47529,9.33468 -1.13065,2.25816 -1.80975,21.70047 -1.50917,43.20515 0.63467,45.40189 0.72153,43.56959 -3.6499,76.97696 -1.84666,14.11242 -3.23567,30.24962 -3.08676,35.86072 0.16641,6.2641 -1.66383,11.6872 -4.74186,14.0513 -5.73136,4.4015 -7.5921,4.6205 -13.76455,1.6187 z"
       id="path2996"
       inkscape:connector-curvature="0" />
  </g>
</svg>
