<?xml version="1.0" encoding="UTF-8" standalone="no"?>
<!-- Created with Inkscape (http://www.inkscape.org/) -->

<svg
   xmlns:dc="http://purl.org/dc/elements/1.1/"
   xmlns:cc="http://creativecommons.org/ns#"
   xmlns:rdf="http://www.w3.org/1999/02/22-rdf-syntax-ns#"
   xmlns:svg="http://www.w3.org/2000/svg"
   xmlns="http://www.w3.org/2000/svg"
   xmlns:sodipodi="http://sodipodi.sourceforge.net/DTD/sodipodi-0.dtd"
   xmlns:inkscape="http://www.inkscape.org/namespaces/inkscape"
   width="300"
   height="300"
   id="svg2"
   version="1.1"
   inkscape:version="0.48.3.1 r9886"
   sodipodi:docname="夷-.svg">
  <defs
     id="defs4" />
  <sodipodi:namedview
     id="base"
     pagecolor="#ffffff"
     bordercolor="#666666"
     borderopacity="1.0"
     inkscape:pageopacity="0.0"
     inkscape:pageshadow="2"
     inkscape:zoom="1.979899"
     inkscape:cx="186.16827"
     inkscape:cy="152.38541"
     inkscape:document-units="px"
     inkscape:current-layer="layer1"
     showgrid="false"
     inkscape:window-width="1215"
     inkscape:window-height="1000"
     inkscape:window-x="65"
     inkscape:window-y="24"
     inkscape:window-maximized="1" />
  <metadata
     id="metadata7">
    <rdf:RDF>
      <cc:Work
         rdf:about="">
        <dc:format>image/svg+xml</dc:format>
        <dc:type
           rdf:resource="http://purl.org/dc/dcmitype/StillImage" />
        <dc:title></dc:title>
      </cc:Work>
    </rdf:RDF>
  </metadata>
  <g
     inkscape:label="Calque 1"
     inkscape:groupmode="layer"
     id="layer1"
     transform="translate(0,-752.36218)">
    <path
       style="fill:#000000"
       d="m 47.84773,1040.4851 c 0,-4.7081 6.719753,-12.1444 10.974204,-12.1444 1.293392,0 3.984706,-1.3471 5.980695,-2.9936 1.996015,-1.6462 9.256961,-6.9385 16.135454,-11.7605 28.895687,-20.25638 54.663197,-59.66902 51.517497,-78.79845 -0.90839,-5.5241 -1.4936,-5.63692 -25.72378,-4.95851 -23.501728,0.65803 -25.163002,0.37237 -31.867472,-5.47958 -6.127255,-5.34815 -6.810976,-7.42538 -5.112553,-15.5323 2.002462,-9.55831 11.856612,-22.56916 19.24922,-25.41564 2.263429,-0.87152 12.619145,-1.9919 23.012715,-2.48972 10.39358,-0.49784 19.3318,-1.28432 19.86273,-1.74774 0.53094,-0.46343 1.28659,-6.15186 1.67924,-12.64094 0.81464,-13.46316 4.01111,-12.62115 -35.214797,-9.2759 -17.405872,1.48444 -19.673253,1.19186 -21.411813,-2.76264 -3.35177,-7.6239 5.437909,-10.53594 31.80116,-10.53594 26.65173,0 24.59404,1.45164 25.45817,-17.96022 0.66859,-15.01892 3.27421,-14.93028 -32.84142,-1.11706 -6.035823,2.30851 -17.887547,7.0065 -26.337189,10.43995 -8.449644,3.43344 -17.400478,6.24263 -19.890745,6.24263 -7.549211,0 -5.074116,-7.14485 3.978998,-11.48617 4.678743,-2.24363 14.864176,-7.33994 22.634297,-11.32511 7.770148,-3.98517 18.448629,-8.77325 23.729979,-10.64017 5.28131,-1.8669 10.21971,-3.99608 10.9742,-4.73151 0.75446,-0.7354 4.76691,-2.8645 8.91653,-4.73131 6.58788,-2.96374 7.54477,-4.8034 7.54477,-14.50533 0,-6.11109 1.75238,-13.20287 3.89422,-15.75951 3.81493,-4.55379 4.03831,-4.53023 10.9742,1.15707 4.69605,3.85071 7.07998,8.33774 7.07998,13.32595 0,8.98325 5.10873,11.52059 48.3587,24.01823 34.18721,9.87885 44.92203,14.46073 44.92203,19.17385 0,5.42326 -8.68952,4.3014 -39.20956,-5.06208 -40.51284,-12.42924 -53.55782,-15.20128 -56.5169,-12.00971 -3.34989,3.61307 -3.33524,22.8326 0.0219,28.30731 2.39313,3.90303 5.91749,4.40954 28.37697,4.07817 14.1045,-0.20808 26.92021,0.30985 28.47941,1.15094 5.0806,2.74078 11.41291,16.35266 11.41291,24.53334 0,4.68033 -2.38004,10.38452 -5.7403,13.75776 -5.06374,5.08328 -8.93267,5.96189 -32.82661,7.4546 -29.91814,1.86909 -33.62733,3.69402 -32.26672,15.87515 l 0.87308,7.81641 33.21339,-0.43416 33.21337,-0.43415 4.84849,9.38483 c 6.90305,13.36172 4.0016,23.19139 -10.7578,36.44581 -10.85542,9.74854 -23.1851,15.09181 -33.76784,14.63377 -5.56672,-0.24093 -3.95847,3.82297 4.26409,10.77492 16.25823,13.74597 45.11471,35.33156 49.83869,37.28106 4.13456,1.7063 11.05656,10.994 11.05656,14.8355 0,3.306 -16.36207,0.3601 -20.57664,-3.7046 -2.73116,-2.6342 -6.31766,-4.8333 -7.96998,-4.8868 -5.00338,-0.1623 -35.73996,-26.6435 -45.74858,-39.41514 -5.1607,-6.5854 -10.00238,-12.51227 -10.75924,-13.17081 -0.7569,-0.65854 -3.14119,-4.18546 -5.29849,-7.83763 -2.15726,-3.65215 -5.01466,-6.32247 -6.34976,-5.93405 -2.7768,0.8079 -11.01374,13.82589 -15.69568,24.80612 -1.74538,4.09328 -7.10877,11.17403 -11.91863,15.73501 -4.80987,4.5609 -11.21442,10.9976 -14.23232,14.3038 -3.01791,3.3061 -9.805586,8.6181 -15.083772,11.804 -5.278153,3.186 -11.451144,7.5094 -13.717756,9.6076 -10.487717,9.7082 -27.441271,12.6352 -27.441271,4.7376 z M 179.8554,962.09634 c 15.57652,-5.44001 29.6924,-19.03506 29.78761,-28.6886 0.0954,-9.6721 -3.03564,-10.5832 -30.79122,-8.95998 -28.71054,1.6791 -30.26206,2.10524 -27.13136,7.4521 4.16417,7.1118 8.07255,15.76759 11.37806,25.19861 1.7311,4.93906 3.64404,8.98011 4.25097,8.98011 0.60689,0 6.23458,-1.79203 12.50594,-3.98224 z m -60.8671,-44.87486 c 6.68486,-0.82274 12.42407,-1.75079 12.75382,-2.06234 0.32977,-0.31155 1.03333,-5.41571 1.56352,-11.34258 l 0.96395,-10.77613 -17.63077,0.44625 c -12.46244,0.31542 -19.700727,1.78884 -24.691965,5.02621 -7.340178,4.76092 -11.042847,16.78391 -6.005688,19.50121 3.202712,1.72769 14.835813,1.44869 33.047133,-0.79262 z m 70.86257,-42.2988 c 9.60377,-2.92218 13.46564,-11.54098 8.67334,-19.35687 -2.88171,-4.69984 -4.53805,-4.93386 -24.01656,-3.39321 -11.50675,0.91013 -21.88848,2.93443 -23.07055,4.49845 -2.06962,2.73847 -2.07814,15.30701 -0.0138,19.00786 1.50545,2.69767 28.84364,2.15966 38.42665,-0.75623 z"
       id="path2996"
       inkscape:connector-curvature="0" />
  </g>
</svg>
