<?xml version="1.0" encoding="UTF-8" standalone="no"?>
<svg
   xmlns:dc="http://purl.org/dc/elements/1.1/"
   xmlns:cc="http://creativecommons.org/ns#"
   xmlns:rdf="http://www.w3.org/1999/02/22-rdf-syntax-ns#"
   xmlns:svg="http://www.w3.org/2000/svg"
   xmlns="http://www.w3.org/2000/svg"
   viewBox="0 0 300 300"
   height="300"
   width="300"
   id="svg396"
   version="1.1">
  <metadata
     id="metadata402">
    <rdf:RDF>
      <cc:Work
         rdf:about="">
        <dc:format>image/svg+xml</dc:format>
        <dc:type
           rdf:resource="http://purl.org/dc/dcmitype/StillImage" />
        <dc:title></dc:title>
      </cc:Work>
    </rdf:RDF>
  </metadata>
  <defs
     id="defs400" />
  <path
     id="path406"
     d="m 231.82528,284.61276 c -0.47311,-0.19095 -8.85491,-9.54408 -18.62622,-20.78475 -40.09947,-46.12943 -50.00985,-59.07171 -59.04788,-77.11249 -4.01016,-8.00469 -4.4424,-8.60862 -5.0391,-7.04076 -4.98413,13.09634 -12.13341,25.55052 -21.15289,36.84871 -2.11731,2.65225 -10.73044,12.52021 -19.14026,21.9288 -8.40983,9.4086 -18.328455,20.87873 -22.041395,25.48919 -12.74176,15.82177 -18.0574,20.43834 -23.53321,20.43834 h -2.43858 v -3.7692 -3.7692 l 29.64636,-34.98125 c 43.094745,-50.84968 47.617755,-57.81487 49.952225,-76.92357 l 0.49515,-4.053 -3.07517,0.46115 c -2.80786,0.42107 -3.43393,0.22156 -7.20282,-2.29519 -4.79246,-3.20028 -14.46517,-13.00468 -19.06044,-19.31994 -1.75176,-2.40743 -4.32096,-7.24719 -5.70933,-10.75502 l -2.52432,-6.37787 -5.190215,1.90904 c -4.32226,1.58979 -5.5448,2.39854 -7.31066,4.83625 -1.83574,2.53416 -2.11587,3.49622 -2.08624,7.16501 0.0311,3.85307 0.39984,4.8945 4.06165,11.47123 2.41833,4.34337 5.81145,9.16011 8.492595,12.05569 5.90783,6.38034 14.1279,17.45102 16.38891,22.07237 2.5364,5.18422 2.56905,7.91684 0.10895,9.11953 -4.06582,1.9877 -6.86705,-0.15999 -19.168175,-14.69615 -13.82142,-16.33268 -18.23546,-24.22534 -20.92004,-37.40669 l -1.72091,-8.44964 2.06799,-4.09665 c 2.45237,-4.85813 4.74101,-6.66389 15.27518,-12.05224 8.667995,-4.4338 12.612055,-7.66269 14.468615,-11.84508 1.11269,-2.50662 1.27149,-4.317751 1.0952,-12.491361 -0.18709,-8.674508 -0.0818,-9.69783 1.1364,-11.051878 0.99309,-1.103772 1.97941,-1.438685 3.78894,-1.286574 2.2712,0.190917 2.61537,0.542339 4.80705,4.908381 2.1718,4.326421 2.36138,5.208441 2.36918,11.022351 0.0112,8.316321 -1.49464,13.378671 -5.1634,17.358801 l -2.77537,3.01091 3.07249,8.2711 3.0725,8.2711 10.51965,11.43213 c 5.78582,6.2877 10.73619,11.18456 11.00084,10.88194 0.96548,-1.10396 2.06233,-25.3932 2.50939,-55.569001 l 0.4579,-30.907378 -3.72295,0.463294 c -15.28563,1.902197 -26.16869,5.689894 -53.593595,18.652524 -10.93731,5.16961 -15.3019,6.16825 -18.31891,4.19142 -2.45567,-1.60901 -2.35003,-4.79754 0.23908,-7.216144 3.49507,-3.264881 18.04253,-10.545253 33.505655,-16.768127 11.26724,-4.534311 15.74401,-5.895337 27.7998,-8.451705 6.30702,-1.337372 12.13984,-2.584517 12.96183,-2.771433 1.4726,-0.334866 1.49784,-0.574581 1.72224,-16.357504 0.21924,-15.420468 0.29195,-16.152895 1.94997,-19.64495 l 1.72224,-3.627292 2.36218,1.216154 c 1.29919,0.668884 3.00421,2.094243 3.78893,3.167463 1.3467,1.84182 1.42676,2.854524 1.42676,18.048273 0,10.44235 0.2571,16.354345 0.73187,16.829654 0.40252,0.402979 5.82758,1.63829 12.0557,2.745133 10.9376,1.943805 11.99054,2.284793 30.87218,9.99767 23.64806,9.659889 31.50803,13.59086 33.66392,16.836148 3.25488,4.89964 1.37169,7.31098 -5.331,6.82615 -3.28121,-0.23734 -6.16499,-1.38665 -17.29826,-6.89407 -21.31872,-10.54598 -34.78254,-15.426143 -47.00527,-17.037751 -4.64879,-0.612959 -6.31877,-0.611969 -7.06119,0.0042 -2.6185,2.173159 -0.15181,73.677432 3.48879,101.133032 l 1.03933,7.83811 7.06652,12.94995 7.06652,12.94997 23.76694,28.10783 c 13.07182,15.4593 26.9726,31.63142 30.89062,35.93803 3.91803,4.30662 7.70877,9.11879 8.42386,10.69369 1.72698,3.80346 1.72614,7.08105 -0.002,8.00596 -1.37302,0.73482 -4.55483,0.86959 -6.07222,0.25719 z m -49.76844,-94.69874 c 0.003,-0.52053 0.586,-2.85592 1.29579,-5.18975 1.03489,-3.4028 2.132,-5.12329 5.53883,-8.68597 8.18093,-8.55519 18.89081,-23.64487 21.70731,-30.58451 2.13891,-5.2701 2.74993,-9.6597 1.82352,-13.10012 -0.66502,-2.46971 -1.46257,-3.25451 -7.10484,-6.99112 l -6.35573,-4.20911 -1.73833,5.16389 c -1.5243,4.52811 -2.79628,6.45507 -10.33135,15.65131 -14.04752,17.1444 -16.87752,19.78753 -21.18649,19.78753 -3.08297,0 -5.00977,-1.75465 -5.00977,-4.56218 0,-1.32956 0.3529,-3.09449 0.78422,-3.9221 0.43133,-0.82759 5.00387,-5.84478 10.16124,-11.14928 9.96495,-10.24928 12.98319,-14.88844 15.57362,-23.93719 1.1028,-3.85224 1.09429,-4.01414 -0.31497,-5.99325 -0.7966,-1.11873 -2.29061,-3.83215 -3.32001,-6.02981 -1.66357,-3.55152 -1.87172,-4.79996 -1.87219,-11.229181 -5.3e-4,-6.97289 0.0934,-7.42571 2.60869,-12.572366 2.9881,-6.11413 4.1428,-6.615197 7.50243,-3.255573 l 2.08337,2.08338 -0.49207,9.187289 c -0.42481,7.93174 -0.33052,9.52772 0.69004,11.678371 1.67631,3.53256 5.22856,6.49742 13.84098,11.55223 12.03973,7.06638 17.15023,13.42327 17.1098,21.28268 -0.038,7.39383 -8.32325,23.04754 -21.23562,40.12163 -9.67114,12.78817 -12.31107,15.06574 -18.01062,15.53839 -2.87625,0.23852 -3.75189,0.0901 -3.74785,-0.63519 z"
     style="fill:#000000;stroke-width:0.68889683" />
</svg>
