<?xml version="1.0" encoding="UTF-8" standalone="no"?>
<svg
   xmlns:dc="http://purl.org/dc/elements/1.1/"
   xmlns:cc="http://creativecommons.org/ns#"
   xmlns:rdf="http://www.w3.org/1999/02/22-rdf-syntax-ns#"
   xmlns:svg="http://www.w3.org/2000/svg"
   xmlns="http://www.w3.org/2000/svg"
   viewBox="0 0 300 300"
   height="300"
   width="300"
   id="svg101"
   version="1.1">
  <metadata
     id="metadata107">
    <rdf:RDF>
      <cc:Work
         rdf:about="">
        <dc:format>image/svg+xml</dc:format>
        <dc:type
           rdf:resource="http://purl.org/dc/dcmitype/StillImage" />
        <dc:title></dc:title>
      </cc:Work>
    </rdf:RDF>
  </metadata>
  <defs
     id="defs105" />
  <path
     id="path111"
     d="m 96.350148,278.23827 c 0.519421,-1.06041 6.970372,-7.2366 13.738042,-14.29073 24.57205,-26.79576 33.70527,-45.79926 34.75479,-92.00356 -20.22371,1.81944 -44.01151,13.29999 -61.627165,26.40697 -5.508267,4.09844 -11.642334,8.13329 -15.258509,7.15502 -8.981695,-2.42978 4.188299,-13.22421 4.993589,-13.88051 22.400761,-18.25623 45.940265,-28.925 71.945575,-32.64164 0.43119,-14.24947 0.1982,-31.87488 6.73411,-29.51938 4.98632,1.79705 4.67366,6.16145 5.19018,15.90197 l 0.74662,14.07991 c 22.00538,2.65758 45.87308,14.34789 63.42791,27.52241 10.94099,8.21096 14.17082,10.88314 14.16977,14.0954 -0.004,10.26393 -14.86852,-0.17909 -17.42582,-2.37861 -21.74915,-15.82295 -37.1088,-24.35206 -59.62929,-26.69635 0.94139,46.20391 8.27551,63.84957 30.69262,88.41119 1.93982,2.12539 22.12162,20.58671 15.30658,23.74667 -4.82882,2.239 -8.29254,0.52974 -18.99062,-10.6925 -18.37731,-19.27773 -27.06954,-32.28393 -34.12851,-53.98615 -9.94367,24.08286 -17.0599,35.69243 -44.86926,63.64244 -4.11791,4.13874 -12.247419,0.18391 -9.770612,-4.87255 z M 186.1616,139.64515 c 10.13938,-17.82946 19.94878,-38.97605 24.58149,-54.053891 4.16524,-13.556332 -6.65772,-15.442387 -16.32542,-18.005201 -5.17704,22.755525 -12.15656,35.530942 -26.17461,53.501982 -6.88486,8.82634 -17.37663,4.28531 -11.94739,-2.81554 14.02794,-18.346981 20.53267,-28.380538 25.86815,-54.881119 -8.44144,-5.092318 -3.94456,-29.289591 0.29433,-40.867992 3.01929,-8.247099 4.34254,-8.03622 6.75277,-7.037876 4.16521,1.725292 3.61949,6.347218 1.44913,17.275553 -3.53683,17.808821 -2.54223,23.546838 14.38925,27.840298 11.37504,2.81448 16.18193,6.17772 18.40789,12.87946 3.99977,12.042184 -6.26285,39.971096 -26.30669,71.591616 -5.47742,8.64101 -8.14201,11.58207 -12.14575,11.02456 -8.01252,-1.11572 0.0824,-14.55242 1.15685,-16.45185 z m -79.51859,-22.85574 -24.078648,5.00254 c -5.81126,1.20735 -16.375701,1.85783 -14.54205,-5.53009 0.608386,-2.25937 1.204753,-2.92789 3.392854,-3.8034 4.268804,-1.70804 10.277967,-2.37567 19.724559,-4.52954 l 15.527525,-3.29916 -0.0718,-14.546493 -17.263601,3.788772 C 72.69212,97.523889 71.959067,97.129059 69.87257,94.722819 62.459049,86.173228 87.249793,81.867997 90.115134,81.357466 l 16.431146,-3.785091 -0.25075,-16.4989 -15.961773,3.906963 c -16.585826,4.05971 -17.963217,3.456817 -20.461188,1.491916 -2.253021,-1.772228 -2.489263,-5.47756 -0.477502,-7.489321 1.909922,-1.909923 8.398902,-3.271511 18.707265,-5.578688 l 18.269318,-4.088958 c 0.2056,-13.518382 0.13654,-21.99238 2.97391,-30.853264 1.79054,-5.539146 7.84701,-3.205636 8.84277,0.781947 2.45992,9.850983 2.13947,27.110672 2.13947,27.110672 l 13.12494,-2.864999 c 5.90428,-1.288825 20.67172,-5.694228 23.41524,1.754394 1.65433,4.491496 2.30808,4.141097 -17.78654,9.193925 l -18.91143,4.071446 -0.15623,16.167712 15.21812,-2.996065 c 8.51851,-1.677082 20.51038,-4.41773 21.73564,2.783142 1.0384,6.102602 -10.65619,6.939714 -16.60382,8.318234 l -20.63318,4.608928 -0.0728,14.654841 17.69843,-3.585461 c 5.61056,-0.92149 17.96268,-3.75956 19.5289,1.685011 1.23302,4.28631 1.46077,4.27779 -12.34846,7.88803 l -25.08985,6.00402 c 0.11097,12.48489 0.66285,39.39351 -4.33182,40.73468 -9.34876,2.51036 -8.70903,-17.88078 -8.47181,-37.98317 z"
     style="fill:#000000;stroke-width:0.68903571" />
</svg>
