<?xml version="1.0" encoding="UTF-8" standalone="no"?>
<!-- Created with Inkscape (http://www.inkscape.org/) -->

<svg
   xmlns:dc="http://purl.org/dc/elements/1.1/"
   xmlns:cc="http://creativecommons.org/ns#"
   xmlns:rdf="http://www.w3.org/1999/02/22-rdf-syntax-ns#"
   xmlns:svg="http://www.w3.org/2000/svg"
   xmlns="http://www.w3.org/2000/svg"
   xmlns:sodipodi="http://sodipodi.sourceforge.net/DTD/sodipodi-0.dtd"
   xmlns:inkscape="http://www.inkscape.org/namespaces/inkscape"
   width="300"
   height="300"
   id="svg2"
   version="1.1"
   inkscape:version="0.48.3.1 r9886"
   sodipodi:docname="Nouveau document 1">
  <defs
     id="defs4" />
  <sodipodi:namedview
     id="base"
     pagecolor="#ffffff"
     bordercolor="#666666"
     borderopacity="1.0"
     inkscape:pageopacity="0.0"
     inkscape:pageshadow="2"
     inkscape:zoom="1.979899"
     inkscape:cx="141.39745"
     inkscape:cy="165.98402"
     inkscape:document-units="px"
     inkscape:current-layer="layer1"
     showgrid="false"
     inkscape:window-width="1215"
     inkscape:window-height="1000"
     inkscape:window-x="65"
     inkscape:window-y="24"
     inkscape:window-maximized="1" />
  <metadata
     id="metadata7">
    <rdf:RDF>
      <cc:Work
         rdf:about="">
        <dc:format>image/svg+xml</dc:format>
        <dc:type
           rdf:resource="http://purl.org/dc/dcmitype/StillImage" />
        <dc:title></dc:title>
      </cc:Work>
    </rdf:RDF>
  </metadata>
  <g
     inkscape:label="Calque 1"
     inkscape:groupmode="layer"
     id="layer1"
     transform="translate(0,-752.36218)">
    <path
       style="fill:#000000"
       d="m 71.69791,1026.7848 c -0.856975,-3.4688 -0.427808,-19.1958 0.953706,-34.94897 1.381544,-15.75314 3.336033,-37.92359 4.34333,-49.26768 2.833434,-31.90963 11.366347,-49.67177 30.503784,-63.49694 11.45826,-8.27758 11.61456,-8.58409 6.09784,-11.95871 -3.114,-1.90484 -9.12024,-3.49615 -13.34722,-3.53626 -9.656957,-0.0916 -15.127811,-7.1491 -10.715549,-13.82328 1.666559,-2.52091 4.896178,-4.58347 7.176904,-4.58347 2.280727,0 4.146755,-1.03127 4.146755,-2.29173 0,-1.26045 1.67066,-2.29173 3.71257,-2.29173 2.04191,0 6.44735,-2.06256 9.78984,-4.58347 3.34249,-2.5209 7.96619,-4.58346 10.27492,-4.58346 2.30872,0 4.98498,-1.03129 5.94726,-2.29174 0.96229,-1.26044 4.85921,-2.29173 8.65983,-2.29173 3.80062,0 6.91021,-1.03127 6.91021,-2.29173 0,-1.26046 2.54781,-2.29173 5.66183,-2.29173 3.114,0 5.66181,0.78017 5.66181,1.73374 0,0.95356 4.98326,2.99279 11.07393,4.53163 20.2866,5.12552 38.37771,15.18032 39.35332,21.87202 0.71356,4.89431 -0.52754,6.366 -6.36956,7.55298 -3.99068,0.81083 -7.2558,2.39371 -7.2558,3.51754 0,1.1238 -3.18477,2.04329 -7.07728,2.04329 -12.33105,0 -7.65576,3.74929 8.27396,6.63523 15.54857,2.81688 23.39391,7.29914 20.16914,11.52318 -1.86169,2.43855 -9.96184,1.62625 -35.38473,-3.54855 -17.36695,-3.53499 -21.61677,-1.95751 -18.84158,6.99379 1.82615,5.89012 1.86558,5.89714 33.12202,5.89714 28.27772,0 31.20224,0.38652 30.34483,4.01053 -0.82171,3.47301 -5.02322,4.09771 -31.34763,4.661 -23.24667,0.49744 -30.39878,1.37888 -30.39878,3.74648 0,3.82048 26.28229,6.86129 40.56082,4.6928 10.30481,-1.56497 21.71928,0.19985 21.71928,3.3581 0,1.0044 -14.3315,2.73963 -31.84777,3.8561 -29.62471,1.88823 -31.7796,2.34987 -30.87092,6.61339 0.53728,2.5209 1.30686,4.86272 1.7102,5.20404 0.40335,0.34131 14.24022,0.76853 30.74861,0.9494 29.26216,0.32061 39.51151,2.01008 34.90465,5.75356 -1.24772,1.01385 -31.78467,2.38622 -67.85994,3.04967 -36.07528,0.66344 -67.183804,2.01341 -69.130056,2.9999 -2.610359,1.32313 -3.538643,12.25056 -3.538643,41.65589 0,25.36948 -1.194448,41.98448 -3.285305,45.69948 -4.420302,7.8537 -12.559151,7.591 -14.550586,-0.4697 z m 73.47731,-102.64935 c 2.51195,-5.2993 0.25251,-6.01186 -19.31513,-6.09152 -29.666167,-0.12083 -30.664461,0.0436 -30.664461,5.0445 0,4.22528 1.887285,4.58345 24.151631,4.58345 19.1566,0 24.4983,-0.7314 25.82796,-3.53643 z m -9.51779,-17.6621 c 7.17753,-2.69849 10.23084,-6.21244 5.54055,-6.37653 -1.16775,-0.0408 -10.21096,-0.37539 -20.09603,-0.7434 -13.51668,-0.50319 -18.35673,0.14069 -19.52117,2.59732 -3.366122,7.10125 19.23822,10.1013 34.07665,4.52261 z m 7.09756,-18.21927 c 4.98929,-4.03901 4.13709,-13.20602 -1.38724,-14.92214 -2.67114,-0.82979 -5.27611,-0.29189 -5.89772,1.21779 -0.61239,1.48722 -2.67791,2.70403 -4.59008,2.70403 -5.06229,0 -16.27971,9.0652 -14.34815,11.59527 2.37089,3.10557 22.20799,2.65551 26.22319,-0.59495 z m 0.13364,-36.11957 c 1.01301,-5.81271 8.621,-11.97125 12.43279,-10.06415 1.18491,0.59285 2.1544,3.59525 2.1544,6.672 0,4.80083 1.32469,5.59408 9.34201,5.59408 15.08829,0 17.81265,-4.43249 7.22191,-11.74993 -17.40907,-12.02844 -20.88192,-12.65771 -35.51287,-6.43463 -21.66737,9.21585 -25.46632,11.12782 -29.04388,14.61748 -2.84179,2.772 -1.82099,3.72206 6.00686,5.59051 5.18674,1.23804 13.25219,2.06269 17.92319,1.83256 6.68954,-0.32954 8.70145,-1.61581 9.47559,-6.05792 z m 80.39374,177.55519 c -1.95296,-1.8155 -5.02375,-5.9179 -6.82395,-9.1165 -1.80024,-3.1985 -4.34257,-5.8155 -5.64963,-5.8155 -1.3071,0 -2.41677,-1.289 -2.46598,-2.8646 -0.0493,-1.5756 -3.35358,-5.8708 -7.3431,-9.5449 l -7.25366,-6.68027 -23.08921,2.73993 c -12.69907,1.50693 -32.38874,3.89434 -43.75487,5.30524 -15.69258,1.948 -21.46781,1.9159 -23.99913,-0.1332 -6.306147,-5.10512 1.66172,-10.47716 18.06259,-12.17811 8.4032,-0.8715 21.20892,-2.22021 28.45714,-2.99716 7.84184,-0.84055 13.90141,-0.4659 14.96342,0.9252 2.68745,3.5202 16.13126,-2.16125 15.12484,-6.39186 -1.22856,-5.16431 -20.15747,-7.7001 -46.95578,-6.29035 -22.85796,1.20235 -37.359348,-0.80621 -37.359348,-5.1747 0,-3.32694 21.331338,-5.58957 51.527018,-5.46553 23.49838,0.0965 28.97218,0.86727 37.90695,5.33755 10.10055,5.05351 10.56878,5.08507 14.29172,0.96337 2.11698,-2.34371 3.84905,-6.00049 3.84905,-8.12615 0,-8.14011 -6.83686,-9.29957 -55.00154,-9.32766 -43.38088,-0.0252 -46.91137,-0.33973 -46.91137,-4.17798 0,-5.61243 9.93917,-6.61229 55.81918,-5.61522 38.14181,0.82889 45.26215,2.27124 55.48263,11.23902 4.28532,3.76007 4.80655,6.38747 2.9553,14.89626 -3.97231,18.25765 -2.7987,27.22504 4.07301,31.12142 3.42656,1.943 6.23011,4.8266 6.23011,6.4082 0,1.5815 2.63161,5.1622 5.84804,7.9571 6.50201,5.6498 6.39255,14.9157 -0.18628,15.7615 -2.33551,0.3002 -5.84424,-0.9396 -7.79722,-2.7551 z M 47.777823,846.32492 c -4.6362,-4.26287 -4.5341,-10.32236 0.173931,-10.32236 2.041913,0 6.182125,-1.84749 9.200472,-4.10556 3.018343,-2.25807 13.131362,-6.46563 22.473378,-9.3501 9.342018,-2.88446 19.197561,-6.19333 21.901166,-7.35307 2.70364,-1.15973 6.90712,-2.10859 9.34106,-2.10859 7.09851,0 20.70043,-6.52723 23.99876,-11.5164 5.81404,-8.79452 -7.67161,-8.58999 -34.00913,0.51584 -3.892508,1.34578 -10.262064,3.48514 -14.15457,4.75414 -3.892507,1.269 -12.999587,4.74812 -20.237979,7.73141 -15.799164,6.51155 -26.320102,4.95294 -20.059192,-2.97162 2.643238,-3.34562 32.892291,-16.84725 37.744535,-16.84725 2.006495,0 13.961815,-2.60214 26.567336,-5.78254 19.98246,-5.04161 23.32676,-6.65668 26.10003,-12.60453 2.58248,-5.53871 4.82468,-6.82199 11.91948,-6.82199 7.38929,0 8.73865,0.86805 8.73865,5.62162 0,4.54396 2.03505,6.07912 10.61593,8.00828 5.83876,1.31266 12.43634,2.39244 14.66129,2.39944 12.63009,0.0399 52.48937,13.72395 58.94248,20.23549 8.93779,9.01869 -0.51612,9.70303 -21.39589,1.54877 -8.06879,-3.15113 -15.38362,-5.72933 -16.25516,-5.72933 -0.87156,0 -7.4119,-2.14901 -14.53407,-4.77559 -18.14919,-6.69319 -30.05147,-7.94124 -34.48553,-3.6161 -5.0768,4.95208 0.47055,12.57249 10.31768,14.17346 4.23681,0.68882 11.61547,2.24791 16.39703,3.46463 4.78155,1.21676 10.23678,2.21227 12.12271,2.21227 8.01655,0 48.1665,14.23837 49.7864,17.65574 4.64896,9.80755 -7.29626,9.04414 -43.70917,-2.79346 -8.56351,-2.78396 -20.66566,-6.30373 -26.89368,-7.82177 -6.22802,-1.51801 -14.25566,-3.92587 -17.83922,-5.35078 -5.09756,-2.02694 -9.10226,-1.7908 -18.40095,1.085 -6.53695,2.02168 -18.25493,5.57607 -26.03994,7.89864 -7.78501,2.32261 -14.579208,4.99635 -15.0982,5.94169 -0.518991,0.94534 -2.837312,1.7188 -5.151783,1.7188 -2.31447,0 -9.762803,3.09384 -16.551902,6.8752 -6.789069,3.78136 -13.706635,6.87519 -15.372353,6.87519 -1.66572,0 -3.028583,1.03129 -3.028583,2.29174 0,3.22612 -3.614293,2.69856 -7.785014,-1.13631 z"
       id="path2996"
       inkscape:connector-curvature="0" />
  </g>
</svg>
