<?xml version="1.0" encoding="UTF-8" standalone="no"?>
<!-- Created with Inkscape (http://www.inkscape.org/) -->

<svg
   xmlns:dc="http://purl.org/dc/elements/1.1/"
   xmlns:cc="http://creativecommons.org/ns#"
   xmlns:rdf="http://www.w3.org/1999/02/22-rdf-syntax-ns#"
   xmlns:svg="http://www.w3.org/2000/svg"
   xmlns="http://www.w3.org/2000/svg"
   xmlns:sodipodi="http://sodipodi.sourceforge.net/DTD/sodipodi-0.dtd"
   xmlns:inkscape="http://www.inkscape.org/namespaces/inkscape"
   width="300"
   height="300"
   id="svg2"
   version="1.1"
   inkscape:version="0.48.3.1 r9886"
   sodipodi:docname="奻-.svg">
  <defs
     id="defs4" />
  <sodipodi:namedview
     id="base"
     pagecolor="#ffffff"
     bordercolor="#666666"
     borderopacity="1.0"
     inkscape:pageopacity="0.0"
     inkscape:pageshadow="2"
     inkscape:zoom="1.979899"
     inkscape:cx="76.241555"
     inkscape:cy="152.90479"
     inkscape:document-units="px"
     inkscape:current-layer="layer1"
     showgrid="false"
     inkscape:window-width="1215"
     inkscape:window-height="1000"
     inkscape:window-x="65"
     inkscape:window-y="24"
     inkscape:window-maximized="1" />
  <metadata
     id="metadata7">
    <rdf:RDF>
      <cc:Work
         rdf:about="">
        <dc:format>image/svg+xml</dc:format>
        <dc:type
           rdf:resource="http://purl.org/dc/dcmitype/StillImage" />
        <dc:title></dc:title>
      </cc:Work>
    </rdf:RDF>
  </metadata>
  <g
     inkscape:label="Calque 1"
     inkscape:groupmode="layer"
     id="layer1"
     transform="translate(0,-752.36218)">
    <path
       style="fill:#000000"
       d="m 214.18253,1018.8714 c -8.77218,-12.2538 -16.32624,-25.60114 -21.27736,-39.83316 -4.21272,-13.22172 4.66736,-24.74881 12.10668,-34.66061 4.83893,-8.92606 14.35658,-17.53954 15.20591,-27.37746 -6.74182,-9.00071 -18.29681,-15.30264 -20.48027,-27.14627 -6.91348,3.69307 -15.84996,5.42676 -20.24318,12.35342 -8.13502,3.89651 -17.12604,10.89429 -16.21661,22.19392 -5.0735,12.91713 -7.00556,26.75413 -6.66065,40.60226 1.25752,5.62161 -3.29161,23.959 -8.02805,11.64771 -2.58143,-23.21926 -0.62448,-48.03142 10.53751,-68.92331 10.79109,-9.61613 -0.84211,-21.30593 0.31582,-32.62183 0.11219,-15.06768 -2.82425,-32.03882 5.91418,-45.37369 6.89391,-9.2822 20.34971,-13.60825 22.15106,-26.34143 3.76757,-9.27354 -2.74368,-25.5171 9.53897,-28.84362 10.02848,6.77181 -0.54704,22.14669 4.76013,31.13747 8.20251,-5.36453 18.42098,-6.85408 28.1908,-8.00353 5.37785,-1.58214 20.01457,-1.21833 10.67107,6.35899 -7.55162,2.40306 -16.39368,4.66907 -12.01228,14.80591 1.86906,16.07592 4.47697,33.00864 -0.16949,48.79443 -3.80382,9.22578 -24.8602,11.06053 -14.58265,23.17306 4.1747,11.00362 18.47088,17.15823 17.08491,30.0894 -1.5225,14.1861 -16.8586,20.36224 -21.09519,33.31022 -7.17118,10.38094 -5.1394,22.80278 1.15262,32.93869 5.1704,11.98733 14.35985,21.71763 19.4935,33.64473 4.08526,14.1393 -14.20123,5.7738 -16.35743,-1.9253 z m -24.9751,-135.3958 c 10.94788,-3.14118 4.15913,-19.68731 -2.94864,-23.57947 -3.25113,-10.62618 0.54357,-22.13172 -2.46962,-32.80318 -10.92121,1.20771 -16.17875,15.12057 -17.4242,25.02923 -0.69812,11.49561 0.18857,24.49157 6.09617,34.43218 5.48693,0.70141 11.22962,-2.43903 16.74629,-3.07876 z m 25.06521,-15.51359 c 9.34345,-8.3376 5.42977,-21.81842 5.6348,-32.76566 -0.78017,-8.49136 0.91268,-24.83177 -12.60518,-21.28631 -14.41289,1.28326 -9.31901,18.04576 -10.64247,27.84011 -0.16681,10.09453 -0.67435,24.97503 9.73477,29.60429 2.96975,0.0489 5.69489,-1.50603 7.87808,-3.39243 z m -95.64721,150.77159 c -8.14915,-6.7943 -8.99464,-16.8427 -13.77913,-24.74806 -6.828134,-15.22113 -7.628906,-32.92854 -4.8014,-49.20463 5.33512,-15.85523 15.76593,-29.36658 24.04648,-43.72218 -1.11304,-8.45445 -8.85071,-18.75535 -15.7613,-22.357 -3.706,2.92084 -9.846262,7.14154 -11.474363,10.6421 5.255923,4.25414 11.894063,7.45018 15.294303,13.48527 -3.01654,8.2868 -13.057208,-0.0467 -18.186386,-2.97004 -4.029468,-4.80362 -6.795057,2.52814 -9.485016,5.08445 -6.057269,11.20165 -10.871569,23.49899 -12.907739,36.09506 -1.644954,10.4867 0.192351,21.67565 -3.849466,31.66829 -12.702886,7.25121 -6.438728,-13.30158 -5.81722,-20.04234 -1.043039,-11.56527 4.680201,-20.97757 6.575698,-32.6077 3.07198,-10.36316 9.646634,-19.22513 13.457023,-29.17644 -2.847255,-9.56643 -10.527045,-16.72713 -11.525239,-26.80436 -0.663104,-11.8365 -2.31663,-25.505 6.624481,-34.89466 5.501275,-10.27303 20.0534,-11.12087 22.918501,-23.36877 3.264813,-10.55591 -0.02532,-22.113 3.706303,-32.40943 8.14288,-4.75719 15.60714,3.95181 9.56829,11.51716 -0.81261,5.06917 -1.97593,12.96685 -0.45782,16.99796 11.21807,-1.65519 23.03766,-5.73189 34.10795,-1.98175 2.02854,8.19707 -20.03325,2.79849 -12.3379,14.98124 4.52963,16.27946 5.1754,36.50136 -8.41491,48.82262 -6.70642,4.74995 -11.70561,11.01439 -3.25064,17.08284 6.55364,8.54621 16.48363,19.08083 10.98571,30.65608 -7.03606,12.45585 -20.74757,20.3744 -25.00357,34.64141 -4.93836,12.34957 0.69957,25.13315 6.13668,36.19118 2.33817,11.58524 5.43886,22.9036 13.50976,32.0275 5.17308,9.2902 -4.63327,14.6446 -9.87908,4.3942 z M 97.904105,878.8075 c 10.600985,-6.48574 7.202525,-20.40244 5.426225,-30.48563 -3.601781,-7.89196 3.40684,-25.52678 -7.970757,-25.94186 -21.976291,7.7412 -24.988699,40.26697 -9.333126,55.44809 3.172768,3.11029 8.24594,3.6412 11.877658,0.9794 z m 29.478135,-46.80446 c 1.14348,-8.43608 -4.17891,-27.91903 -15.2761,-18.86794 -3.48179,12.44195 -0.48159,25.65794 -0.46294,38.39 -1.07585,17.05823 15.89436,-3.87801 15.69788,-10.58816 0.2874,-2.96941 0.14989,-5.95926 0.0412,-8.9339 z"
       id="path2996"
       inkscape:connector-curvature="0" />
  </g>
</svg>
