<?xml version="1.0" encoding="UTF-8" standalone="no"?>
<!-- Created with Inkscape (http://www.inkscape.org/) -->

<svg
   xmlns:dc="http://purl.org/dc/elements/1.1/"
   xmlns:cc="http://creativecommons.org/ns#"
   xmlns:rdf="http://www.w3.org/1999/02/22-rdf-syntax-ns#"
   xmlns:svg="http://www.w3.org/2000/svg"
   xmlns="http://www.w3.org/2000/svg"
   xmlns:sodipodi="http://sodipodi.sourceforge.net/DTD/sodipodi-0.dtd"
   xmlns:inkscape="http://www.inkscape.org/namespaces/inkscape"
   width="300"
   height="300"
   id="svg2"
   version="1.1"
   inkscape:version="0.48.4 r9939"
   sodipodi:docname="image-seal.svg">
  <defs
     id="defs4" />
  <sodipodi:namedview
     id="base"
     pagecolor="#ffffff"
     bordercolor="#666666"
     borderopacity="1.0"
     inkscape:pageopacity="0.0"
     inkscape:pageshadow="2"
     inkscape:zoom="2.0506101"
     inkscape:cx="180.10765"
     inkscape:cy="122.98837"
     inkscape:document-units="px"
     inkscape:current-layer="layer1"
     showgrid="false"
     inkscape:window-width="1215"
     inkscape:window-height="1000"
     inkscape:window-x="65"
     inkscape:window-y="24"
     inkscape:window-maximized="1"
     fit-margin-top="10"
     fit-margin-left="10"
     fit-margin-right="10"
     fit-margin-bottom="10" />
  <metadata
     id="metadata7">
    <rdf:RDF>
      <cc:Work
         rdf:about="">
        <dc:format>image/svg+xml</dc:format>
        <dc:type
           rdf:resource="http://purl.org/dc/dcmitype/StillImage" />
        <dc:title />
      </cc:Work>
    </rdf:RDF>
  </metadata>
  <g
     inkscape:label="Calque 1"
     inkscape:groupmode="layer"
     id="layer1"
     transform="translate(0,-752.36218)">
    <path
       style="fill:#000000"
       d="m 211.31046,1008.3999 c -1.75042,-21.42931 -3.41803,-57.98122 -3.7058,-81.22652 l -0.52315,-42.26419 -9.24529,-0.77795 c -5.13087,-0.43173 -11.59639,0.94281 -14.52831,3.08864 -4.96509,3.63388 -5.30463,7.13964 -5.64227,58.25669 -0.46303,70.10363 -4.02767,102.34143 -10.59051,95.77863 -1.85069,-1.8507 -1.62397,-42.77425 0.59661,-107.6905 1.18573,-34.66294 0.77907,-41.67772 -2.57766,-44.46356 -2.19203,-1.81921 -6.12274,-2.64225 -8.7349,-1.82898 -5.94353,1.85048 -12.64167,-2.10344 -10.21496,-6.02991 0.99828,-1.61526 6.3369,-2.93683 11.86358,-2.93683 l 10.0485,0 1.44115,-17.83021 c 1.63438,-20.22098 -0.40494,-24.43398 -11.82747,-24.43398 -9.45822,0 -8.84061,-6.16233 0.75048,-7.48784 9.82914,-1.35837 10.75877,-3.52771 11.31156,-26.39543 0.54962,-22.73692 2.05435,-26.99504 7.5067,-21.24256 2.1831,2.30326 3.42768,10.80983 3.42768,23.42769 l 0,19.81134 14.27832,0.81266 c 17.12272,0.97453 19.27487,-1.35964 17.05925,-18.50225 -1.88742,-14.60318 0.55355,-26.71152 5.08063,-25.20248 2.07678,0.69229 3.27381,7.55512 3.40155,19.50159 0.23457,21.93184 1.58861,24.71124 12.0393,24.71124 6.18327,0 7.75054,1.03285 7.01437,4.62264 -0.66764,3.2558 -3.02815,4.40409 -7.98309,3.88347 -9.53856,-1.00221 -13.04564,6.33958 -12.05782,25.24197 l 0.79016,15.11988 9.90567,0.81984 c 6.26239,0.5183 9.90566,2.15984 9.90566,4.46318 0,2.30335 -3.64327,3.94489 -9.90566,4.46318 l -9.90567,0.81984 -0.50952,33.0189 c -0.28024,18.16039 0.3141,48.47173 1.32075,67.35854 2.31344,43.40467 1.35489,62.07557 -3.18688,62.07557 -2.50098,0 -4.27576,-10.4727 -6.60296,-38.9623 z m -1.45837,-151.14836 c 0.14686,-23.9374 -0.81642,-25.06274 -19.10418,-22.32032 -14.43644,2.16487 -14.64222,2.84218 -11.77179,38.75155 0.30567,3.82377 2.99434,4.62257 15.55821,4.62212 l 15.18869,-5e-4 0.12917,-21.05285 z m -21.62667,1.24254 c -2.0926,-5.45319 0.7447,-11.8868 5.24219,-11.8868 5.28794,0 10.52349,7.12548 8.7093,11.85315 -1.98034,5.16066 -11.97482,5.18476 -13.95149,0.0335 z m -76.53378,178.92202 c -3.35572,-2.2174 -5.23183,-11.1205 -9.03684,-42.88418 -3.529459,-29.46337 -3.555949,-35.65586 -0.22295,-52.12402 3.2306,-15.96244 10.09599,-30.35752 19.86385,-41.64964 4.74912,-5.49019 6.85583,-10.96745 6.85808,-17.8302 0.002,-5.44812 -0.89529,-9.90567 -1.99347,-9.90567 -1.09818,0 -3.57515,-3.56604 -5.50444,-7.92453 -4.13951,-9.3518 -8.31312,-9.99073 -15.20269,-2.32728 -4.96543,5.52316 -4.95336,5.64982 0.91135,9.56748 6.80155,4.54348 7.91674,11.25038 1.87069,11.25038 -2.24,0 -6.69652,-2.44446 -9.903389,-5.43208 l -5.830657,-5.43211 -5.51493,6.91634 c -9.0859,11.39485 -16.76921,37.7822 -18.11506,62.21397 -1.30044,23.60755 -3.07054,31.54527 -7.03458,31.54527 -6.93336,0 -0.0264,-63.2656 8.57989,-78.58822 2.70066,-4.80829 4.91028,-10.4892 4.91028,-12.62428 0,-2.13506 1.10859,-3.88191 2.4635,-3.88191 5.98197,0 5.54311,-11.34963 -0.94207,-24.36369 -8.34511,-16.74645 -8.49655,-23.31591 -0.86105,-37.35219 6.66046,-12.24386 13.40356,-19.24841 20.78547,-21.59132 3.865406,-1.22682 4.969266,-4.13991 4.969266,-13.11402 0,-14.1001 4.16577,-25.91254 8.60115,-24.38945 2.01178,0.69084 3.28565,6.0843 3.28565,13.91113 l 0,12.78283 15.84907,-0.71002 c 8.71698,-0.39052 16.44341,-0.75127 17.16982,-0.80167 4.829,-0.33507 7.92454,0.90535 7.92454,3.17549 0,1.45284 -2.13963,2.64152 -4.75472,2.64152 -8.59472,0 -11.09435,5.71343 -11.09435,25.35851 0,18.19658 -0.39784,19.41672 -9.20142,28.22029 l -9.20144,9.20144 7.8132,9.8316 c 8.35895,10.51837 12.17599,23.88917 9.35615,32.77374 -0.95443,3.00712 -6.33458,10.25437 -11.95588,16.10503 -15.99736,16.65005 -20.5887,47.57737 -13.33588,89.8303 6.72629,39.18556 6.57586,42.94146 -1.50606,37.60116 z m -8.72092,-183.62867 c 5.96039,-4.57626 10.81794,-14.49574 7.96268,-16.2604 -1.31381,-0.81197 -3.21676,-8.61054 -4.22877,-17.33014 -2.16411,-18.64616 -5.40525,-19.92576 -16.217556,-6.40276 -11.77002,14.7208 -13.95962,30.11035 -5.70004,40.06254 3.46751,4.17808 12.69746,4.14295 18.183686,-0.0692 z m 21.56356,-18.7818 c 2.54245,-1.93 4.64084,-5.75541 4.66308,-8.50089 0.0211,-2.74551 1.14293,-6.73498 2.49042,-8.86549 1.3514,-2.13669 1.44676,-5.09788 0.21264,-6.60378 -1.23052,-1.50157 -2.64838,-5.68966 -3.15079,-9.30689 -0.97631,-7.02914 -6.48114,-9.46039 -12.56404,-5.54905 -2.70934,1.7421 -3.56778,7.28457 -3.14601,20.31248 0.75627,23.36095 2.15064,25.60676 11.49467,18.51362 z"
       id="path3197"
       inkscape:connector-curvature="0" />
  </g>
</svg>
