<?xml version="1.0" encoding="UTF-8" standalone="no"?>
<!-- Created with Inkscape (http://www.inkscape.org/) -->

<svg
   xmlns:dc="http://purl.org/dc/elements/1.1/"
   xmlns:cc="http://creativecommons.org/ns#"
   xmlns:rdf="http://www.w3.org/1999/02/22-rdf-syntax-ns#"
   xmlns:svg="http://www.w3.org/2000/svg"
   xmlns="http://www.w3.org/2000/svg"
   xmlns:sodipodi="http://sodipodi.sourceforge.net/DTD/sodipodi-0.dtd"
   xmlns:inkscape="http://www.inkscape.org/namespaces/inkscape"
   width="300"
   height="300"
   id="svg2"
   version="1.1"
   inkscape:version="0.48.4 r9939"
   sodipodi:docname="image-seal.svg">
  <defs
     id="defs4" />
  <sodipodi:namedview
     id="base"
     pagecolor="#ffffff"
     bordercolor="#666666"
     borderopacity="1.0"
     inkscape:pageopacity="0.0"
     inkscape:pageshadow="2"
     inkscape:zoom="1.979899"
     inkscape:cx="130.93154"
     inkscape:cy="137.35134"
     inkscape:document-units="px"
     inkscape:current-layer="layer1"
     showgrid="false"
     inkscape:window-width="1215"
     inkscape:window-height="1000"
     inkscape:window-x="65"
     inkscape:window-y="24"
     inkscape:window-maximized="1"
     fit-margin-top="10"
     fit-margin-left="10"
     fit-margin-right="10"
     fit-margin-bottom="10" />
  <metadata
     id="metadata7">
    <rdf:RDF>
      <cc:Work
         rdf:about="">
        <dc:format>image/svg+xml</dc:format>
        <dc:type
           rdf:resource="http://purl.org/dc/dcmitype/StillImage" />
        <dc:title />
      </cc:Work>
    </rdf:RDF>
  </metadata>
  <g
     inkscape:label="Calque 1"
     inkscape:groupmode="layer"
     id="layer1"
     transform="translate(0,-752.36218)">
    <path
       style="fill:#000000"
       d="m 213.71657,1035.9197 c -10.95826,-28.1932 -9.67751,-59.54103 -21.47909,-87.51111 -4.4669,-23.76578 -21.66604,2.91971 -34.21304,4.40487 -7.95583,2.89983 -27.96097,13.85598 -29.57392,2.3994 19.02261,-9.21668 40.41345,-15.92864 56.64009,-29.86155 6.73902,-13.00423 -5.86519,-33.92997 -21.41946,-26.85308 -14.49624,8.39403 -19.39261,-7.21553 -2.99957,-7.80911 16.35834,-7.00224 37.76493,2.22368 36.55453,22.2117 15.20678,-6.27209 6.96256,-29.10514 8.2053,-42.58632 -4.12444,-18.47868 -28.20006,-4.61966 -41.33878,-6.76284 -8.2041,3.54062 -22.65511,-3.95611 -6.89633,-5.90644 17.04678,2.23144 22.43124,-15.733 18.34801,-29.21091 2.06541,-10.18354 -5.41092,-29.86181 -14.54144,-12.81014 -4.43395,10.26276 -24.10238,33.71186 -15.03042,8.74988 8.72468,-10.92245 17.70763,-22.24847 27.55157,-32.19818 6.07558,-8.51032 -4.54006,-37.28215 11.57504,-30.26046 2.24686,14.50617 -2.96721,32.32657 17.1536,36.61902 9.3019,5.08393 29.53795,30.6228 15.00659,34.10463 -7.84634,-10.7636 -16.80942,-34.17383 -31.49627,-30.03008 -3.59956,13.97073 -2.53029,29.32902 -1.68651,43.73553 4.78072,14.20171 29.33097,2.8698 31.06893,22.04321 0.68963,16.38108 1.60078,34.78187 -7.73903,49.16733 -12.76987,11.83124 -1.32468,30.28941 -0.74217,44.63888 4.00633,22.5991 11.08636,44.32357 15.51016,66.60457 6.07794,6.4326 -5.09865,16.5854 -8.45779,7.1212 z m -105.04322,-4.8506 c -8.971927,-23.8555 -12.081775,-49.88665 -11.386485,-75.19988 1.529007,-14.80743 -0.120076,-31.93631 12.127655,-42.8604 13.82563,-11.61305 15.13948,-39.7321 -3.92335,-45.97948 -21.477017,1.17309 14.20105,36.33319 -10.932953,22.95004 -15.785699,-5.4669 -15.591974,24.72659 -19.739795,35.26741 -3.483069,9.96792 1.337376,35.56469 -12.04762,34.28703 -3.675119,-19.47374 1.43245,-39.89547 7.58751,-58.48529 9.708769,-14.82237 12.809541,-31.22542 3.30223,-47.37526 -6.89872,-14.75122 -5.586763,-33.62956 7.405292,-44.63822 10.622157,-7.73933 25.241536,-14.90005 15.197174,-30.39345 5.192052,-14.44026 13.782522,1.1289 9.867162,9.87408 4.64048,12.91831 25.57394,-8.72725 35.67858,3.61853 -12.43582,1.91943 -19.16514,10.30842 -12.09778,22.07634 8.09049,19.03057 -9.11929,33.18772 -13.68345,48.12942 17.38362,13.66677 16.11474,42.82876 -0.87025,56.48541 -13.42362,13.33679 -8.88506,33.18703 -10.52556,50.10319 -2.5169,16.20481 7.00298,29.45149 10.46754,44.63773 6.25791,6.7725 3.99254,35.6209 -6.4259,17.5028 z M 95.45497,864.06817 c 6.75739,-15.47364 4.32824,-33.5236 2.6728,-49.65372 -11.743634,-11.06209 -22.950414,15.79602 -18.785293,26.61673 4.098856,7.33541 2.880747,29.75608 16.112493,23.03699 z m 21.02314,-20.59733 c 10.72315,-12.00547 3.66237,-27.81315 3.89193,-40.62445 -18.88739,-8.34415 -10.78344,19.31701 -11.74612,30.12887 1.10755,5.81168 -1.06676,23.44595 7.85419,10.49558 z"
       id="path3028"
       inkscape:connector-curvature="0" />
  </g>
</svg>
