<?xml version="1.0" encoding="UTF-8" standalone="no"?>
<!-- Created with Inkscape (http://www.inkscape.org/) -->

<svg
   xmlns:dc="http://purl.org/dc/elements/1.1/"
   xmlns:cc="http://creativecommons.org/ns#"
   xmlns:rdf="http://www.w3.org/1999/02/22-rdf-syntax-ns#"
   xmlns:svg="http://www.w3.org/2000/svg"
   xmlns="http://www.w3.org/2000/svg"
   xmlns:sodipodi="http://sodipodi.sourceforge.net/DTD/sodipodi-0.dtd"
   xmlns:inkscape="http://www.inkscape.org/namespaces/inkscape"
   width="300"
   height="300"
   id="svg2"
   version="1.1"
   inkscape:version="0.48.4 r9939"
   sodipodi:docname="image-seal.svg">
  <defs
     id="defs4" />
  <sodipodi:namedview
     id="base"
     pagecolor="#ffffff"
     bordercolor="#666666"
     borderopacity="1.0"
     inkscape:pageopacity="0.0"
     inkscape:pageshadow="2"
     inkscape:zoom="2.0018437"
     inkscape:cx="145.03351"
     inkscape:cy="130.6666"
     inkscape:document-units="px"
     inkscape:current-layer="layer1"
     showgrid="false"
     inkscape:window-width="1215"
     inkscape:window-height="1000"
     inkscape:window-x="65"
     inkscape:window-y="24"
     inkscape:window-maximized="1"
     fit-margin-top="10"
     fit-margin-left="10"
     fit-margin-right="10"
     fit-margin-bottom="10" />
  <metadata
     id="metadata7">
    <rdf:RDF>
      <cc:Work
         rdf:about="">
        <dc:format>image/svg+xml</dc:format>
        <dc:type
           rdf:resource="http://purl.org/dc/dcmitype/StillImage" />
        <dc:title />
      </cc:Work>
    </rdf:RDF>
  </metadata>
  <g
     inkscape:label="Calque 1"
     inkscape:groupmode="layer"
     id="layer1"
     transform="translate(0,-752.36218)">
    <path
       style="fill:#000000"
       d="m 232.16921,1044.2252 c -11.14423,-6.8336 -30.41965,-28.2018 -31.84494,-35.3024 -0.8287,-4.1284 -2.53938,-10.72539 -3.80155,-14.66 -1.70838,-5.32573 -0.94288,-9.88635 2.99554,-17.84663 2.90969,-5.88103 6.30946,-10.69278 7.55502,-10.69278 3.61742,0 13.07306,-11.05634 18.56454,-21.70721 9.14897,-17.74473 5.46022,-80.43541 -5.21095,-88.56065 -2.50548,-1.90772 -12.74924,-3.28838 -24.76367,-3.33769 -18.69991,-0.0767 -20.49057,-0.54619 -20.49057,-5.37197 0,-4.90989 1.76264,-5.28789 24.65661,-5.28789 22.20173,0 25.19606,0.59229 30.07495,5.94887 9.72647,10.67879 11.14616,16.67243 11.49678,48.53715 0.44087,40.06732 -2.89967,53.66957 -16.11218,65.60624 -5.54538,5.00994 -11.35654,11.48953 -12.91369,14.39909 -3.82475,7.14661 -3.57733,22.88213 0.47374,30.13007 5.15112,9.2161 15.84945,20.4547 19.47136,20.4547 4.85011,0 14.17337,12.9581 12.48638,17.3544 -1.73472,4.5206 -5.64448,4.6247 -12.63737,0.3367 z m -117.00533,-18.3521 c -10.07935,-11.0881 -19.228466,-61.77018 -17.106306,-94.76138 0.26413,-4.10803 5.317986,-12.01371 12.624396,-19.74873 15.65126,-16.56937 18.19185,-23.14399 12.98034,-33.59072 -2.2069,-4.42382 -4.05036,-9.34774 -4.09661,-10.94204 -0.16736,-5.77311 -7.17796,-12.24358 -11.47773,-10.5936 -4.68481,1.79772 -6.16685,16.94869 -1.65791,16.94869 3.53104,0 3.39501,9.79952 -0.16657,12.00071 -1.54581,0.95536 -4.91138,-0.16419 -7.479036,-2.4879 -2.56767,-2.32371 -5.7646,-4.21337 -7.10426,-4.19922 -5.34772,0.0563 -13.64651,34.74297 -14.12001,59.01772 -0.33957,17.40818 -1.58111,25.35871 -4.40471,28.20676 -6.84925,6.90858 -9.31562,-1.60699 -7.65771,-26.43945 1.8078,-27.07767 5.07584,-41.74501 13.38664,-60.08063 5.52047,-12.17955 5.93602,-15.30376 3.5166,-26.43945 -1.509,-6.94533 -3.40307,-19.42105 -4.20903,-27.72386 -1.37749,-14.19031 -0.98315,-15.57828 6.57309,-23.13451 4.4212,-4.42118 10.36392,-8.03852 13.20605,-8.03852 7.803826,0 10.702696,-5.29715 11.605586,-21.20695 0.60956,-10.7409 1.90871,-14.64365 5.07476,-15.24486 5.34047,-1.01414 11.44386,12.7756 9.02613,20.39323 -1.91207,6.02444 -1.29579,6.2314 16.46279,5.5283 11.737,-0.4647 15.24266,3.61464 5.70717,6.64109 -4.2871,1.36065 -5.09475,3.03445 -3.59434,7.449 1.06443,3.1317 2.41903,12.23776 3.01024,20.23569 0.92255,12.47995 0.17027,15.57257 -5.30611,21.81255 -3.5096,3.99897 -8.94232,7.27085 -12.0727,7.27085 -4.87258,0 -5.43865,1.04631 -3.93371,7.27085 0.96683,3.99896 4.08362,10.59703 6.92618,14.66236 3.2112,4.59256 5.31787,12.31222 5.56331,20.38604 0.33187,10.91698 -0.62437,13.75097 -5.98111,17.72596 -20.21084,14.99751 -21.3833,17.23611 -21.41204,40.88231 -0.0185,15.98601 1.59618,26.72288 5.89878,39.20157 3.25903,9.4521 6.65721,17.78054 7.5515,18.50754 2.94303,2.3928 5.32932,16.2138 3.69076,21.3764 -2.08605,6.5726 -4.41465,6.3855 -11.0244,-0.8858 z M 104.4471,848.35325 c 3.73994,-2.83901 4.6269,-7.63777 4.6269,-25.03337 0,-11.8366 -0.71251,-21.52108 -1.58338,-21.52108 -5.33964,0 -19.614456,9.24884 -19.848336,12.85999 -0.63862,9.86025 0.94222,19.80614 4.5024,28.32681 4.16144,9.95974 5.48968,10.53926 12.302416,5.36765 z m 26.95052,-18.05936 c 4.28245,-6.11407 6.02024,-39.07087 2.06019,-39.07087 -1.13063,0 -4.69995,1.85214 -7.93183,4.11583 -5.11292,3.58123 -5.8762,6.50046 -5.8762,22.47353 0,19.95563 3.73402,23.92284 11.74784,12.48151 z m 21.30147,121.87249 c -4.25085,-4.26936 -5.54715,-9.98747 -6.60986,-29.15671 -0.93196,-16.81097 -0.38115,-24.62496 1.86716,-26.48691 4.76026,-3.94231 8.70862,-0.19592 8.70862,8.26307 0,9.02373 3.59529,10.70261 22.91944,10.70261 13.74441,0 14.72188,-0.4418 17.54905,-7.93184 5.57899,-14.78044 10.40411,-8.72515 10.54519,13.23369 0.18243,28.38925 -8.12664,37.13204 -35.01614,36.84414 -11.03604,-0.11818 -15.98696,-1.47424 -19.96346,-5.46805 z m 42.33321,-15.70453 c 0.99928,-5.91469 1.0583,-11.51253 0.13114,-12.43968 -2.21301,-2.21304 -21.98263,-3.15217 -31.24958,-1.4845 -9.65053,1.7367 -14.28433,10.08848 -8.69725,15.67558 2.25079,2.25079 4.09235,5.19713 4.09235,6.54744 0,1.35029 7.62897,2.45509 16.95324,2.45509 l 16.95324,0 1.81686,-10.75393 z M 176.66159,884.4333 c -20.46675,-1.57157 -23.62592,-6.87574 -21.65949,-36.36546 1.48067,-22.20443 2.12246,-24.28167 9.5984,-31.06635 7.21741,-6.55009 9.94416,-7.27085 27.50657,-7.27085 24.4924,0 32.93684,-5.09525 28.80689,-17.38169 l -2.60029,-7.73579 -27.5194,-0.33097 c -37.84688,-0.45521 -36.09069,-0.1626 -31.07725,-5.17616 8.99029,-8.99026 63.09529,-6.64264 72.96141,3.16578 4.90933,4.88062 3.91743,22.54336 -1.67436,29.81596 -4.19879,5.46085 -8.06633,6.61478 -28.36363,8.46274 -34.82197,3.17035 -34.46982,2.97269 -37.67045,21.14296 -3.89303,22.10098 -0.57585,30.54611 12.8919,32.82149 5.63401,0.95185 16.83736,0.90682 24.89636,-0.10021 12.28634,-1.53507 14.92423,-1.12328 16.33372,2.5498 0.92453,2.40929 0.92323,5.13829 -0.003,6.06441 -2.03681,2.03682 -24.50503,2.78043 -42.42749,1.40423 z"
       id="path3028"
       inkscape:connector-curvature="0" />
  </g>
</svg>
