<?xml version="1.0" encoding="UTF-8" standalone="no"?>
<!-- Created with Inkscape (http://www.inkscape.org/) -->

<svg
   xmlns:dc="http://purl.org/dc/elements/1.1/"
   xmlns:cc="http://creativecommons.org/ns#"
   xmlns:rdf="http://www.w3.org/1999/02/22-rdf-syntax-ns#"
   xmlns:svg="http://www.w3.org/2000/svg"
   xmlns="http://www.w3.org/2000/svg"
   xmlns:sodipodi="http://sodipodi.sourceforge.net/DTD/sodipodi-0.dtd"
   xmlns:inkscape="http://www.inkscape.org/namespaces/inkscape"
   width="300"
   height="300"
   id="svg2"
   version="1.1"
   inkscape:version="0.48.3.1 r9886"
   sodipodi:docname="Nouveau document 1">
  <defs
     id="defs4" />
  <sodipodi:namedview
     id="base"
     pagecolor="#ffffff"
     bordercolor="#666666"
     borderopacity="1.0"
     inkscape:pageopacity="0.0"
     inkscape:pageshadow="2"
     inkscape:zoom="1.979899"
     inkscape:cx="159.80788"
     inkscape:cy="129.28211"
     inkscape:document-units="px"
     inkscape:current-layer="layer1"
     showgrid="false"
     inkscape:window-width="1215"
     inkscape:window-height="1000"
     inkscape:window-x="65"
     inkscape:window-y="24"
     inkscape:window-maximized="1" />
  <metadata
     id="metadata7">
    <rdf:RDF>
      <cc:Work
         rdf:about="">
        <dc:format>image/svg+xml</dc:format>
        <dc:type
           rdf:resource="http://purl.org/dc/dcmitype/StillImage" />
        <dc:title></dc:title>
      </cc:Work>
    </rdf:RDF>
  </metadata>
  <g
     inkscape:label="Calque 1"
     inkscape:groupmode="layer"
     id="layer1"
     transform="translate(0,-752.36218)">
    <path
       style="fill:#000000"
       d="m 245.92863,1029.9011 c -20.32392,-7.7755 -35.25225,-20.2546 -35.25225,-29.4685 0,-5.38234 2.99017,-9.14123 12.31157,-15.47663 17.73074,-12.05092 16.83243,-16.82712 -5.34476,-28.41716 -11.57502,-6.04925 -14.15696,-6.26798 -19.35324,-1.63972 -3.2325,2.87918 -2.76648,4.37656 2.70103,8.67868 3.63412,2.85953 6.60752,6.41297 6.60752,7.89652 0,3.09248 -8.19938,3.70064 -9.74667,0.7229 -0.56426,-1.08594 -4.01455,-2.66072 -7.66727,-3.49949 -5.35023,-1.22859 -7.57819,-0.13672 -11.46074,5.61627 -2.65068,3.92772 -5.6695,10.87769 -6.70848,15.44434 -3.05631,13.43349 -4.61046,16.26619 -8.92437,16.26619 -2.24406,0 -4.94869,-1.6731 -6.01029,-3.7181 -2.25203,-4.33826 4.62198,-28.13475 8.12721,-28.13475 1.30791,0 2.37803,-1.53577 2.37803,-3.41281 0,-1.87704 1.22352,-3.41281 2.71891,-3.41281 3.86857,0 6.50568,-8.83642 3.1013,-10.39175 -5.57813,-2.54838 -11.976,-17.65554 -11.976,-28.27862 0,-9.07301 1.64419,-12.1391 10.22169,-19.0614 5.62195,-4.53705 11.75323,-8.24918 13.62508,-8.24918 4.03755,0 13.08793,-12.65996 13.08793,-18.30778 0,-5.00526 7.76422,-7.35695 11.95772,-3.62183 1.74576,1.55491 2.33591,5.19655 1.31143,8.09246 -1.85609,5.24668 -1.78475,5.25956 20.1351,3.63233 19.04084,-1.41352 21.99778,-1.14325 21.99778,2.01069 0,2.36982 -2.69017,3.64372 -7.69473,3.64372 -8.9414,0 -9.36014,1.75015 -3.07789,12.86456 8.3918,14.84657 4.14226,28.08913 -9.01382,28.08913 -2.66019,0 -4.83669,0.90445 -4.83669,2.00986 0,1.1054 -2.7701,2.54531 -6.15578,3.1998 -8.54641,1.65207 -7.68611,5.35901 2.30841,9.94676 25.91704,11.89664 28.00244,18.641 10.00316,32.35115 -15.77313,12.01444 -15.96195,18.19307 -0.83768,27.40857 6.31066,3.8452 13.2359,6.9913 15.38944,6.9913 2.15358,0 3.91558,1.0238 3.91558,2.2752 0,1.2513 1.86292,2.2752 4.13978,2.2752 2.27691,0 6.64671,2.0477 9.71072,4.5504 3.06401,2.5027 4.77698,4.5504 3.80665,4.5504 -0.97034,0 -3.6734,0.5416 -6.00684,1.2035 -2.33342,0.6619 -11.10325,-1.4214 -19.48854,-4.6294 z m -50.58038,-84.21051 c 4.25585,-2.84708 4.90612,-6.54425 3.70162,-21.04566 -0.80366,-9.67552 -1.86046,-17.93076 -2.34846,-18.34498 -1.54821,-1.31419 -15.11392,4.76378 -19.01447,8.51918 -5.24134,5.04635 -4.84537,19.61331 0.75064,27.61263 5.26732,7.5295 9.35051,8.31636 16.91067,3.25883 z m 32.82763,-12.86923 c 13.98662,-9.71302 5.17613,-36.41439 -10.59627,-32.11339 -8.20846,2.23838 -9.21444,4.5489 -8.04688,18.48225 1.70609,20.36003 5.23654,22.94138 18.64315,13.63114 z m -103.35833,89.35834 c -17.05658,-12.1141 -22.01261,-25.45429 -13.60916,-36.63203 3.2927,-4.37976 9.02699,-8.9779 12.74287,-10.21807 11.64369,-3.88608 11.23386,-9.52793 -1.40848,-19.39008 -16.17653,-12.61911 -29.754892,-11.52647 -21.70368,1.74652 3.94662,6.50627 0.51542,9.16361 -7.220765,5.59225 -3.285711,-1.51684 -7.155573,-2.75787 -8.599658,-2.75787 -5.667289,0 -9.944449,12.78206 -11.807034,35.28484 -2.067604,24.97964 -4.879134,32.16754 -10.226876,26.14574 -6.613124,-7.4468 -1.631744,-46.00422 8.001808,-61.93661 4.876824,-8.06551 4.823023,-8.97798 -1.128786,-19.14176 -7.420855,-12.67246 -4.823208,-21.57991 8.058009,-27.6312 4.458324,-2.09443 8.798551,-4.44628 9.64497,-5.22638 0.84642,-0.7801 4.793322,-2.68608 8.770943,-4.23556 5.560549,-2.1661 6.878679,-4.18338 5.703299,-8.72843 -1.91395,-7.40115 0.29825,-11.88763 5.86135,-11.88763 2.74763,0 4.28754,2.54673 4.28754,7.09086 0,7.66068 -1.39411,7.49783 23.80231,2.78085 10.18366,-1.90647 17.81045,0.75038 13.4087,4.671 -2.26253,2.01522 -2.78715,7.5637 -1.48785,15.73569 1.87326,11.78196 1.43793,13.01266 -6.53491,18.47468 -4.69807,3.21853 -10.41725,5.85185 -12.70929,5.85185 -7.07244,0 -4.60209,9.33077 3.75717,14.19136 4.35852,2.53434 9.17194,7.03302 10.69645,9.99709 3.07779,5.98408 -1.017,16.76525 -6.3676,16.76525 -5.51722,0 -17.53253,9.88978 -19.46153,16.01869 -1.83797,5.83975 7.3657,20.38465 12.89894,20.38465 4.4619,0 18.96707,11.7689 17.16364,13.9259 -3.31307,3.9627 -10.26138,1.8437 -22.53238,-6.8716 z m -22.48291,-82.59117 c 3.86411,-2.85638 5.04196,-19.32721 1.82522,-25.52373 -2.73476,-5.26813 -7.830459,-4.43674 -18.991043,3.09847 -9.983168,6.74026 -12.539572,12.31397 -6.84172,14.91709 1.69284,0.77339 3.077891,3.39341 3.077891,5.82228 0,3.31991 2.139256,4.41614 8.618093,4.41614 4.739951,0 10.280149,-1.22861 12.311559,-2.73025 z m 29.50155,-11.97854 c 2.73396,-3.0844 4.97083,-10.25128 4.97083,-15.92645 0,-8.91111 -0.8672,-10.31846 -6.35812,-10.31846 -13.91096,0 -17.63789,3.65596 -16.7597,16.44056 1.10286,16.05576 0.79498,15.41231 7.37437,15.41231 3.19098,0 8.03866,-2.52358 10.77262,-5.60796 z m 35.74973,-44.14989 c 0,-17.13214 10.1952,-24.61313 39.2431,-28.79559 10.51888,-1.51456 13.40121,-6.45363 5.13458,-8.79855 -2.67771,-0.75958 -10.81488,-1.38103 -18.08261,-1.38103 -18.86399,0 -32.45086,-2.38394 -32.45086,-5.69383 0,-5.76818 -7.60614,-7.92278 -19.44123,-5.50718 -9.90685,2.02204 -15.9831,6.6506 -8.73072,6.6506 5.95864,0 16.51362,9.11118 14.66974,12.6631 -1.73552,3.34328 -2.88804,3.27632 -11.9982,-0.69704 -5.54303,-2.41754 -13.80243,-5.08648 -18.3542,-5.93098 -7.04406,-1.3069 -8.97755,-0.53248 -12.98955,5.20258 -2.59251,3.70593 -4.757684,10.62828 -4.811516,15.38302 -0.08957,7.92013 -5.44882,16.60823 -10.244574,16.60823 -1.083018,0 -1.969112,-6.4217 -1.969112,-14.27045 0,-12.4859 1.1499,-15.30167 9.195383,-22.51675 l 9.195379,-8.24633 -6.509335,-11.5784 c -5.566395,-9.90114 -5.964797,-12.55022 -2.750279,-18.28691 4.063154,-7.25114 21.070224,-14.37316 40.587404,-16.99675 11.28816,-1.51742 14.91714,-4.70631 14.91714,-13.10819 0,-3.38869 1.73628,-4.34029 6.92526,-3.79552 5.53424,0.581 6.74729,1.9838 6.03929,6.98386 -0.97844,6.90977 -4.8984,6.21838 40.98176,7.22815 10.20282,0.22456 20.24443,1.18213 22.31472,2.12795 6.66682,3.04579 4.01766,6.00153 -5.37901,6.00153 -8.8516,0 -9.09004,0.28092 -7.47642,8.80873 1.41278,7.46635 0.50512,9.48423 -5.95615,13.24121 -4.19264,2.43783 -15.38918,5.71717 -24.8812,7.28743 -9.49204,1.57026 -16.57318,3.67437 -15.7359,4.67585 0.83731,1.00144 12.94579,3.13445 26.90774,4.73998 28.31075,3.25554 33.20718,5.56252 33.20718,15.64588 0,5.74576 -1.46136,7.16807 -8.4642,8.23819 -30.48124,4.65783 -37.68603,8.66502 -43.03986,23.93794 -3.92376,11.19324 -10.05375,11.30255 -10.05375,0.17928 z m -28.47049,-57.31379 c 17.81819,-3.30638 18.88413,-5.03146 12.9192,-20.90866 -3.16323,-8.41982 -12.15327,-11.77463 -16.76656,-6.25683 -1.04624,1.25137 -5.22918,2.27522 -9.29541,2.27522 -7.59387,0 -19.94455,7.84269 -19.94455,12.66479 0,1.48826 2.144,6.49903 4.76442,11.13504 3.40597,6.02577 5.81934,7.81036 8.4642,6.25901 2.03489,-1.19353 10.9713,-3.51941 19.8587,-5.16857 z m 50.91702,-9.53264 c 6.85856,-2.35454 8.28848,-4.33287 8.30837,-11.49492 l 0.0246,-8.65093 -16.15893,0.6877 -16.15892,0.6877 -0.93811,10.80724 c -0.91419,10.53153 -0.71392,10.80722 7.85056,10.80722 4.8338,0 12.51664,-1.27981 17.07303,-2.84401 z"
       id="path2996"
       inkscape:connector-curvature="0" />
  </g>
</svg>
