<?xml version="1.0" encoding="UTF-8" standalone="no"?>
<!-- Created with Inkscape (http://www.inkscape.org/) -->

<svg
   xmlns:dc="http://purl.org/dc/elements/1.1/"
   xmlns:cc="http://creativecommons.org/ns#"
   xmlns:rdf="http://www.w3.org/1999/02/22-rdf-syntax-ns#"
   xmlns:svg="http://www.w3.org/2000/svg"
   xmlns="http://www.w3.org/2000/svg"
   xmlns:sodipodi="http://sodipodi.sourceforge.net/DTD/sodipodi-0.dtd"
   xmlns:inkscape="http://www.inkscape.org/namespaces/inkscape"
   width="300"
   height="300"
   id="svg2"
   version="1.1"
   inkscape:version="0.48.4 r9939"
   sodipodi:docname="image-seal.svg">
  <defs
     id="defs4" />
  <sodipodi:namedview
     id="base"
     pagecolor="#ffffff"
     bordercolor="#666666"
     borderopacity="1.0"
     inkscape:pageopacity="0.0"
     inkscape:pageshadow="2"
     inkscape:zoom="1.979899"
     inkscape:cx="141.86812"
     inkscape:cy="134.8223"
     inkscape:document-units="px"
     inkscape:current-layer="layer1"
     showgrid="false"
     inkscape:window-width="1215"
     inkscape:window-height="1000"
     inkscape:window-x="65"
     inkscape:window-y="24"
     inkscape:window-maximized="1" />
  <metadata
     id="metadata7">
    <rdf:RDF>
      <cc:Work
         rdf:about="">
        <dc:format>image/svg+xml</dc:format>
        <dc:type
           rdf:resource="http://purl.org/dc/dcmitype/StillImage" />
        <dc:title />
      </cc:Work>
    </rdf:RDF>
  </metadata>
  <g
     inkscape:label="Calque 1"
     inkscape:groupmode="layer"
     id="layer1"
     transform="translate(0,-752.36218)">
    <path
       style="fill:#000000"
       d="m 103.93324,1019.3848 c -6.001095,-42.2528 -3.75205,-76.68818 5.47145,-83.77355 0.90378,-0.69428 2.37467,-3.5345 3.26863,-6.31162 0.89399,-2.77711 2.87381,-8.66656 4.39961,-13.08764 2.34089,-6.78282 1.52133,-10.4304 -5.24694,-23.35299 -8.24085,-15.7342 -12.928445,-18.31121 -20.640801,-11.34733 -5.42747,4.90075 -5.462197,6.41528 -0.28863,12.59153 3.928454,4.68981 5.911345,16.26158 2.786543,16.26158 -0.823001,0 -4.636876,-1.85804 -8.475243,-4.12896 -8.11649,-4.802 -9.359924,-4.05776 -14.358657,8.59423 -2.576032,6.52002 -3.584826,21.43107 -3.276624,48.43217 0.4324,37.88498 -1.116608,45.11548 -8.02137,37.44278 -9.213692,-10.23852 -7.643071,-81.51575 2.160716,-98.05653 5.337048,-9.00458 5.283253,-14.26196 -0.281277,-27.48538 -6.061098,-14.40346 -7.206393,-40.33833 -2.1575,-48.85671 4.684547,-7.90369 8.562953,-10.91027 20.808342,-16.13086 10.071252,-4.29367 10.921485,-5.46535 11.133254,-15.34253 0.126099,-5.88162 1.069775,-11.45276 2.096995,-12.38032 1.027248,-0.92755 1.867723,-5.47341 1.867723,-10.10194 0,-9.44289 4.867909,-11.07381 11.931199,-3.99735 3.6946,3.70148 3.9154,6.36272 1.36123,16.40649 -1.67678,6.5936 -2.46408,12.51622 -1.74956,13.16142 0.71454,0.64517 7.79732,-0.37479 15.73954,-2.26658 12.15007,-2.89408 14.93922,-2.89686 17.58562,-0.0177 3.7654,4.09677 1.22915,8.69256 -4.79703,8.69256 -3.50477,0 -3.94758,1.813 -2.31237,9.46743 1.11242,5.20708 2.19371,16.54719 2.40291,25.20027 0.31681,13.10441 -0.55386,16.32442 -5.21162,19.27386 -16.31775,10.33295 -19.20937,13.43145 -15.87216,17.00764 1.81069,1.94034 5.58877,6.24749 8.39573,9.57144 l 5.10358,6.04355 11.6714,-21.86955 c 6.41926,-12.02828 11.6714,-22.38282 11.6714,-23.01012 0,-0.62729 3.28129,-7.70673 7.29173,-15.73208 12.13083,-24.27506 14.5539,-29.4954 16.4403,-35.41987 1.04338,-3.27681 4.01549,-5.68045 7.0239,-5.68045 3.00127,0 5.99315,2.41139 7.04788,5.68045 2.01547,6.24689 18.63849,37.74833 20.9827,39.7632 0.80774,0.69427 5.79182,7.79484 11.07572,15.77904 5.28392,7.9842 10.59944,14.51672 11.81234,14.51672 1.21288,0 2.20523,1.70414 2.20523,3.78697 0,2.08284 1.2582,3.78697 2.79599,3.78697 1.5378,0 2.796,2.84023 2.796,6.31162 0,7.7261 -4.03535,8.08889 -10.51235,0.94508 -2.67608,-2.95162 -7.60169,-7.92671 -10.94578,-11.05579 -7.0836,-6.62818 -23.27777,-34.67171 -23.27777,-40.31023 0,-2.12244 -1.17342,-3.85897 -2.60757,-3.85897 -1.43418,0 -3.40625,-2.27219 -4.38241,-5.0493 -3.25389,-9.25712 -8.70972,-5.2214 -17.91846,13.2544 -19.91172,39.94946 -31.83764,59.85688 -36.69179,61.24802 -4.09434,1.17338 -5.01165,3.9795 -4.77246,14.5992 0.22508,9.99467 -1.80836,17.01698 -8.48159,29.28984 -8.21896,15.11572 -8.71782,17.60651 -7.83733,39.13203 0.5172,12.64384 2.33434,30.59833 4.03811,39.89883 3.43647,18.7591 2.18809,24.7466 -5.15964,24.7466 -4.09387,0 -5.46175,-3.7646 -8.08884,-22.2616 z M 88.287841,870.94239 c 5.546971,-3.28179 6.859103,-6.11419 6.724951,-14.51672 -0.350673,-21.96317 -6.747543,-43.87216 -10.235097,-35.0547 -0.6865,1.73569 -2.938505,3.15581 -5.004409,3.15581 -4.949887,0 -12.553758,14.02174 -12.553758,23.14947 0,10.71407 6.42536,27.34347 10.565108,27.34347 1.986386,0 6.712817,-1.83479 10.503205,-4.07733 z m 30.857279,-19.72648 c 2.63028,-2.37501 3.97965,-9.05662 3.95147,-19.56602 -0.0498,-18.52667 -2.50289,-23.48429 -10.48825,-21.1958 -6.54754,1.87644 -8.16198,9.03985 -6.72777,29.85173 1.05045,15.24284 4.93118,18.43472 13.26455,10.91009 z m 44.0251,144.35571 c -8.86372,-8.86472 -18.78843,-78.97336 -12.39646,-87.56915 5.11337,-6.87631 11.50954,1.62337 11.50954,15.29466 0,9.93818 0.94407,12.36805 4.89299,12.59357 9.28714,0.53043 18.91803,-0.48894 32.33007,-3.42195 l 13.45709,-2.94288 -0.68382,-13.32986 c -0.37611,-7.33143 0.1138,-14.05012 1.08871,-14.93039 3.56601,-3.21996 10.17792,6.2381 11.87788,16.99083 3.23116,20.43755 3.27741,23.65397 0.38862,27.01466 -1.7829,2.07409 -1.87279,3.99553 -0.23627,5.04929 1.45303,0.93558 3.05983,8.21556 3.57068,16.17769 0.72735,11.33675 -0.35173,16.34754 -4.97522,23.10249 -7.38765,10.79332 -9.95725,11.65152 -34.89011,11.65152 -17.45714,0 -21.0382,-0.7844 -25.93373,-5.68048 z m 37.05823,-7.23387 c 0.84082,-1.22844 3.69508,-2.23356 6.34277,-2.23356 2.70202,0 6.10718,-3.09352 7.76165,-7.05136 3.37113,-8.06443 2.37556,-33.17788 -1.45232,-36.63427 -1.52315,-1.37533 -11.98768,-1.43196 -25.87823,-0.14012 l -23.32102,2.169 -0.86888,12.36118 c -1.17933,16.77754 5.66451,31.58046 16.04508,34.70483 5.40402,1.62653 19.5197,-0.4711 21.37095,-3.17578 z M 156.69132,877.99754 c 0,-3.66526 19.72984,-8.38407 39.8429,-9.5293 12.25162,-0.69762 16.07696,-0.0914 16.07696,2.54792 0,5.06146 -7.02518,6.85608 -32.85292,8.39246 -15.86153,0.94351 -23.06694,0.50273 -23.06694,-1.41108 z"
       id="path3015"
       inkscape:connector-curvature="0" />
  </g>
</svg>
