<?xml version="1.0" encoding="UTF-8" standalone="no"?>
<!-- Created with Inkscape (http://www.inkscape.org/) -->

<svg
   xmlns:dc="http://purl.org/dc/elements/1.1/"
   xmlns:cc="http://creativecommons.org/ns#"
   xmlns:rdf="http://www.w3.org/1999/02/22-rdf-syntax-ns#"
   xmlns:svg="http://www.w3.org/2000/svg"
   xmlns="http://www.w3.org/2000/svg"
   xmlns:sodipodi="http://sodipodi.sourceforge.net/DTD/sodipodi-0.dtd"
   xmlns:inkscape="http://www.inkscape.org/namespaces/inkscape"
   width="300"
   height="300"
   id="svg2"
   version="1.1"
   inkscape:version="0.48.3.1 r9886"
   sodipodi:docname="dessin.svg">
  <defs
     id="defs4" />
  <sodipodi:namedview
     id="base"
     pagecolor="#ffffff"
     bordercolor="#666666"
     borderopacity="1.0"
     inkscape:pageopacity="0.0"
     inkscape:pageshadow="2"
     inkscape:zoom="1.979899"
     inkscape:cx="141.39745"
     inkscape:cy="122.88688"
     inkscape:document-units="px"
     inkscape:current-layer="layer1"
     showgrid="false"
     inkscape:window-width="1215"
     inkscape:window-height="1000"
     inkscape:window-x="65"
     inkscape:window-y="24"
     inkscape:window-maximized="1" />
  <metadata
     id="metadata7">
    <rdf:RDF>
      <cc:Work
         rdf:about="">
        <dc:format>image/svg+xml</dc:format>
        <dc:type
           rdf:resource="http://purl.org/dc/dcmitype/StillImage" />
        <dc:title></dc:title>
      </cc:Work>
    </rdf:RDF>
  </metadata>
  <g
     inkscape:label="Calque 1"
     inkscape:groupmode="layer"
     id="layer1"
     transform="translate(0,-752.36218)">
    <path
       style="fill:#000000"
       d="m 55.287308,1026.4538 c 11.753304,-46.58556 12.960658,-169.78301 1.967562,-200.77083 -2.120407,-5.97711 -1.691923,-8.0582 1.865982,-9.06247 5.95759,-1.68161 14.108037,3.30352 14.108037,8.62902 0,2.73607 3.017157,4.46537 8.898785,5.10032 13.311076,1.43704 84.856246,-1.60992 89.719966,-3.82097 3.22822,-1.46758 3.74743,-6.41666 2.20003,-20.97049 -4.06321,-38.2153 -4.40756,-35.47612 4.45983,-35.47612 7.48167,0 8.03524,0.84434 8.93809,13.63286 l 0.96244,13.63288 10.20347,-0.72631 c 9.64522,-0.68656 10.25813,-1.30404 11.20245,-11.28622 1.18402,-12.5162 4.71705,-16.03397 11.77576,-11.72489 3.68382,2.24884 4.81079,6.33771 4.12303,14.95929 -1.02289,12.82258 -0.0287,12.24883 -28.86125,16.63906 -7.00316,1.0663 -8.76335,2.62879 -8.72437,7.74439 0.0903,11.84165 3.3688,13.11747 29.91384,11.64075 13.31139,-0.74054 24.92012,-0.49237 25.79715,0.55147 3.15147,3.75081 -6.69311,6.50521 -28.29912,7.9178 -12.0936,0.79068 -22.59652,1.88492 -23.33982,2.43167 -2.81834,2.07311 5.0783,34.20787 10.45356,42.54006 l 5.61875,8.70959 5.78375,-5.53157 c 3.18107,-3.04236 5.81569,-6.68931 5.85471,-8.10435 0.10404,-3.7731 9.51486,-17.03907 13.312,-18.76529 6.60748,-3.00379 10.40309,3.276 6.12141,10.12782 -6.4607,10.33886 -15.82324,38.48175 -13.97851,42.01787 0.92358,1.77034 2.96123,3.21881 4.52816,3.21881 1.5669,0 2.84893,1.50169 2.84893,3.33713 0,1.8354 5.74247,6.95268 12.76105,11.37168 7.55789,4.75857 12.76104,10.09564 12.76104,13.08945 0,7.80629 -8.67502,6.12358 -22.33183,-4.33176 -6.74344,-5.16263 -13.25415,-9.3866 -14.46827,-9.3866 -7.33505,0 14.29712,60.03696 30.80933,85.50685 6.0592,9.3463 7.99244,20.1225 3.59808,20.0565 -12.58619,-0.1891 -28.18108,-26.3871 -45.37745,-76.23022 -1.78116,-5.16263 -3.24647,-17.05689 -3.25624,-26.43166 -0.01,-9.37477 -1.33272,-18.87871 -2.93985,-21.11985 -1.60716,-2.24114 -5.23956,-7.9976 -8.07203,-12.79214 -4.78205,-8.09451 -5.7129,-8.52867 -13.02925,-6.0766 -9.1944,3.08147 -9.51511,4.48689 -3.10466,13.60527 6.00438,8.54085 1.96721,17.69888 -9.49594,21.54073 -10.71459,3.59094 -10.14241,6.98551 2.83419,16.8144 16.89626,12.79776 17.1451,16.33901 2.15253,30.63336 -16.22972,15.47394 -16.97792,24.08412 -3.45565,39.76821 10.83189,12.5635 11.65224,16.1325 4.68566,20.3853 -4.03976,2.4661 -5.66715,2.2113 -9.40451,-1.4727 -7.39671,-7.291 -16.53202,-22.5368 -19.98458,-33.35207 -3.10933,-9.74008 -2.76265,-10.56077 9.14063,-21.6375 7.65369,-7.12222 12.37104,-14.00098 12.36864,-18.03573 -0.006,-8.08576 -13.80811,-20.53487 -20.63272,-18.60853 -5.56915,1.57198 -6.4122,5.24854 -1.69521,7.39291 1.75465,0.79767 3.19026,4.14095 3.19026,7.42951 0,6.10097 0.15154,6.08601 -15.10939,1.49342 -7.18045,-2.16089 -11.48823,11.8025 -11.90635,38.5936 -0.38242,24.50479 -3.83705,34.99739 -10.02433,30.44619 -7.8678,-5.7873 -9.66781,-46.28967 -2.88984,-65.02503 4.54548,-12.56446 4.46751,-13.07766 -3.22813,-21.24597 -14.572443,-15.46756 -8.581356,-38.18999 12.10701,-45.91826 16.39041,-6.12273 17.64236,-7.39878 15.32655,-15.62167 l -2.13789,-7.59125 -18.58348,0.83878 c -12.90787,0.58263 -19.372136,-0.1 -21.165795,-2.23459 -4.159431,-4.95048 -0.327801,-6.81897 13.933845,-6.79482 7.35369,0.0116 27.14991,-1.23198 43.99166,-2.76539 l 30.62134,-2.78801 -3.20596,-9.29051 -3.20592,-9.2905 -27.41542,1.78831 c -15.07845,0.98357 -36.74689,2.44872 -48.152075,3.25593 l -20.736695,1.46765 0.564166,16.42655 c 2.576646,75.02447 2.785352,108.76032 0.791184,127.89244 -4.11936,39.52144 -7.95616,49.27964 -19.376113,49.27964 -5.748276,0 -6.374397,-1.0146 -4.706209,-7.6266 z m 80.361332,-96.12325 c 8.0304,-2.69135 8.38091,-3.49883 6.53467,-15.05357 -2.67254,-16.72616 -4.64872,-19.64893 -13.2853,-19.64893 -16.50934,0 -23.60678,21.81326 -10.44938,32.1152 8.14608,6.37814 6.58821,6.14381 17.20001,2.5873 z m 33.18663,-25.09294 c -0.1241,-7.44097 -6.74888,-14.30286 -13.80886,-14.30286 -6.17044,0 -6.50005,3.60189 -1.63114,17.82494 3.45128,10.08194 3.84688,10.35234 9.57078,6.54206 3.28386,-2.186 5.92501,-6.71487 5.86922,-10.06414 z m 19.21717,-27.6857 c 0.016,-1.55258 -1.64021,-5.51256 -3.67652,-8.79994 -3.225,-5.20642 -5.69289,-5.97703 -19.14157,-5.97703 l -15.4392,0 0,9.12599 0,9.12598 19.11572,-0.32604 c 12.50494,-0.21331 19.12466,-1.30228 19.14157,-3.14896 z"
       id="path3034"
       inkscape:connector-curvature="0" />
  </g>
</svg>
