<?xml version="1.0" encoding="UTF-8" standalone="no"?>
<!-- Created with Inkscape (http://www.inkscape.org/) -->

<svg
   xmlns:dc="http://purl.org/dc/elements/1.1/"
   xmlns:cc="http://creativecommons.org/ns#"
   xmlns:rdf="http://www.w3.org/1999/02/22-rdf-syntax-ns#"
   xmlns:svg="http://www.w3.org/2000/svg"
   xmlns="http://www.w3.org/2000/svg"
   xmlns:sodipodi="http://sodipodi.sourceforge.net/DTD/sodipodi-0.dtd"
   xmlns:inkscape="http://www.inkscape.org/namespaces/inkscape"
   width="300"
   height="300"
   id="svg2"
   version="1.1"
   inkscape:version="0.48.2 r9819"
   sodipodi:docname="Nouveau document 1">
  <defs
     id="defs4" />
  <sodipodi:namedview
     id="base"
     pagecolor="#ffffff"
     bordercolor="#666666"
     borderopacity="1.0"
     inkscape:pageopacity="0.0"
     inkscape:pageshadow="2"
     inkscape:zoom="1.979899"
     inkscape:cx="101.93007"
     inkscape:cy="163.41017"
     inkscape:document-units="px"
     inkscape:current-layer="layer1"
     showgrid="false"
     inkscape:window-width="1280"
     inkscape:window-height="999"
     inkscape:window-x="0"
     inkscape:window-y="24"
     inkscape:window-maximized="1" />
  <metadata
     id="metadata7">
    <rdf:RDF>
      <cc:Work
         rdf:about="">
        <dc:format>image/svg+xml</dc:format>
        <dc:type
           rdf:resource="http://purl.org/dc/dcmitype/StillImage" />
        <dc:title></dc:title>
      </cc:Work>
    </rdf:RDF>
  </metadata>
  <g
     inkscape:label="Calque 1"
     inkscape:groupmode="layer"
     id="layer1"
     transform="translate(0,-752.36218)">
    <path
       style="fill:#000000"
       d="m 184.14292,1025.0144 c -1.13092,-0.7633 -2.05622,-15.1377 -2.05622,-31.94305 0,-16.80541 -0.90988,-40.59223 -2.02196,-52.85962 -0.9213,-10.16293 1.50069,-20.71589 0.56652,-23.30424 -16.30257,1.59814 -12.21334,20.33657 -11.74346,27.86097 0.37432,11.12239 -0.58832,23.96967 -2.13921,28.54949 -1.55089,4.57982 -3.61852,10.9031 -4.59475,14.05173 -1.0481,3.38043 -3.80976,5.72478 -6.74382,5.72478 -4.14924,0 -4.64248,-1.63106 -2.99021,-9.88825 1.08825,-5.43854 2.84134,-21.59804 3.89574,-35.90999 -0.1997,-30.15815 13.93072,-43.10042 24.09357,-40.05355 -0.32452,-6.37351 0.0781,-17.00402 -1.46009,-21.67131 -4.87567,-1.32967 -6.26446,-0.72728 -13.8014,-0.72728 -18.54403,0 -22.48195,8.60356 -25.7264,56.20693 -1.13151,16.60186 -3.19416,31.37146 -4.58366,32.82133 -6.23379,6.50462 -8.26879,-2.13251 -8.26879,-35.09513 0,-33.55997 0.38733,-35.85179 7.70667,-45.60064 8.40885,-11.20001 12.76923,-13.46687 30.13314,-15.66548 4.72565,-0.75183 8.11056,0.45796 13.79411,-1.38991 0.20421,-4.97384 -1.37897,-8.47759 -1.61425,-12.76126 -8.2678,1.65007 -39.2837,-1.49523 -35.9242,-5.81431 0.92963,-1.01522 10.37807,-1.84586 20.99653,-1.84586 10.61847,0 26.49796,-1.44147 35.28776,-3.20326 13.72869,0.27512 19.235,-9.21629 17.89122,-16.73187 -1.42509,-1.38241 -7.68872,-0.98405 -15.01817,-1.11316 -7.20961,-0.127 -22.47704,-0.0429 -33.92761,0.18686 -12.78809,0.25661 -20.81922,-0.41961 -20.81922,-1.75298 17.6748,-7.92309 56.60469,-9.01696 71.84127,-5.76595 -0.17172,-1.62064 -1.52392,-6.97891 -2.1644,-8.13721 -2.77792,-5.02381 -8.09235,-5.1172 -31.9481,-5.1172 -22.83464,0 -27.31482,-1.13182 -21.90271,-5.53324 2.35989,-1.91919 11.30871,-2.79371 28.58753,-2.79371 24.27172,0 25.44631,0.22614 33.54996,6.45928 4.90764,3.77483 4.86213,12.69556 4.86213,16.13821 4.82701,2.40142 27.67013,9.33951 28.21016,18.59457 l 0,5.01743 -10.97146,-4.3691 c -12.80283,-5.0984 -14.76719,-5.20461 -18.30273,-7.06724 -4.18648,15.66177 -24.27435,22.46655 -36.25433,23.15416 0,3.09904 0.70457,8.81446 0.67219,11.93724 16.40665,-0.92472 39.06172,-0.72756 46.17465,14.59348 6.12771,8.39497 15.43358,71.23981 11.46072,77.39711 -3.32543,5.15388 -7.78483,6.13218 -9.48934,2.08174 -0.60228,-1.4312 -2.69251,-15.67552 -4.64495,-31.65405 -4.92257,-40.28557 -9.82994,-52.09357 -22.13495,-53.26064 -8.70022,-0.82517 -16.93512,-2.25198 -20.74698,-0.72737 -1.0502,6.34383 0.67508,15.89268 1.38853,21.02576 19.57281,0.25044 23.24873,14.18666 26.10866,33.75349 1.45268,9.81857 3.94657,22.06746 5.54198,27.21977 7.27732,23.50176 7.50212,25.36775 3.26888,27.13358 -6.70145,2.79542 -8.32324,0.76625 -12.12475,-15.17035 -1.97921,-8.29721 -4.88035,-19.0136 -6.44698,-23.81419 -1.56662,-4.8006 -2.84841,-11.71778 -2.84841,-15.37152 0,-10.03053 -9.5478,-23.24432 -14.6917,-23.24432 -0.87302,6.31346 -1.17981,7.38779 0.76908,51.2378 2.44118,54.92603 0.9753,64.73903 -8.69579,58.21153 z m -82.31761,-12.2656 c -1.65028,-2.9297 -3.802212,-9.2529 -4.782082,-14.05178 -0.979873,-4.79884 -3.766863,-14.4265 -6.193317,-21.39479 -2.426451,-6.96829 -5.09247,-22.15508 -5.924487,-33.74843 -1.664785,-23.19712 0.775647,-29.58772 14.255423,-37.32975 12.409723,-7.12746 16.606393,-15.63264 11.531653,-23.37059 -5.22681,-5.91892 -10.14114,-10.70343 -13.247564,-18.32849 -3.724877,-0.50557 -10.234814,1.5441 -14.275424,5.72436 0,1.82702 5.638945,7.2764 8.518438,10.56646 6.263232,7.15627 2.283066,11.26477 -4.406633,4.54872 -5.56524,-5.58715 -7.108946,-6.87534 -11.07234,-9.87969 -3.373792,5.34293 -11.020295,18.76795 -12.362005,39.54446 -0.665453,10.30461 -2.331308,21.53672 -3.701899,24.96024 -2.365622,5.90897 -8.196494,11.47018 -12.026366,11.47018 -3.469005,0 -1.564357,-32.57889 2.860041,-48.92085 5.759599,-21.27366 12.088853,-33.59786 15.452007,-33.59786 -19.196128,-22.38212 -9.00548,-50.25154 10.73945,-50.24525 6.22381,-1.1988 8.551395,-2.70919 12.694791,-4.70707 -0.0098,-3.93401 1.063374,-6.02341 1.445781,-13.10518 0.875491,-16.21315 5.427798,-17.62164 12.031003,-13.92285 6.70911,7.3566 5.46339,17.42473 2.38472,25.00933 12.075,2.60598 30.91283,-4.32199 38.72458,0.7954 7.18646,6.5266 -11.29255,5.31658 -11.99479,6.44936 1.84957,13.82763 7.41227,26.3832 -4.84979,33.8193 -4.92409,4.70421 -12.4786,3.49925 -19.24073,7.73614 0,0 11.1909,17.02772 13.75605,20.17086 6.97216,9.1 3.4605,20.79889 -7.95275,26.49416 -10.30832,5.1439 -17.462152,15.00378 -18.139801,25.00146 -0.611132,9.01633 7.606741,45.86952 13.526061,60.65781 6.09198,15.21964 6.07373,24.98084 -0.0467,24.98084 -2.58655,0 -6.05305,-2.3969 -7.70332,-5.3265 z M 94.467162,852.55599 c -1.274165,-10.78383 -2.714373,-23.46965 -4.664842,-27.84076 -2.599402,0.57125 -10.691674,2.91532 -16.793343,6.15475 -9.28071,4.9272 -10.191648,10.5771 -3.458886,21.45293 2.311976,3.73467 3.843052,4.81288 5.736985,9.00781 6.173186,-4.61023 14.662734,-5.6626 19.180086,-8.77473 z m 27.090978,-4.69721 c 12.08087,-5.53183 4.18931,-27.20854 3.02413,-27.7523 0,0 -16.74068,-1.34502 -20.30779,0.76235 -1.15058,2.98351 -2.31993,5.76909 -1.768,13.79427 0.7605,11.05774 -0.67296,14.47028 2.01423,15.67915 1.99018,0.89532 11.97493,-0.16535 17.03743,-2.48347 z"
       id="path2996"
       inkscape:connector-curvature="0"
       sodipodi:nodetypes="sssccsssscccsssssccccsccssccssssscccsccccsssscccssssscsscsssscccsscsssscccscccccccsssscccssccsccscs" />
  </g>
</svg>
