<?xml version="1.0" encoding="UTF-8" standalone="no"?>
<!-- Created with Inkscape (http://www.inkscape.org/) -->

<svg
   xmlns:dc="http://purl.org/dc/elements/1.1/"
   xmlns:cc="http://creativecommons.org/ns#"
   xmlns:rdf="http://www.w3.org/1999/02/22-rdf-syntax-ns#"
   xmlns:svg="http://www.w3.org/2000/svg"
   xmlns="http://www.w3.org/2000/svg"
   xmlns:sodipodi="http://sodipodi.sourceforge.net/DTD/sodipodi-0.dtd"
   xmlns:inkscape="http://www.inkscape.org/namespaces/inkscape"
   width="300"
   height="300"
   id="svg2"
   version="1.1"
   inkscape:version="0.48.4 r9939"
   sodipodi:docname="image-seal.svg">
  <defs
     id="defs4" />
  <sodipodi:namedview
     id="base"
     pagecolor="#ffffff"
     bordercolor="#666666"
     borderopacity="1.0"
     inkscape:pageopacity="0.0"
     inkscape:pageshadow="2"
     inkscape:zoom="2.7366667"
     inkscape:cx="150"
     inkscape:cy="150"
     inkscape:document-units="px"
     inkscape:current-layer="layer1"
     showgrid="false"
     inkscape:window-width="1215"
     inkscape:window-height="1000"
     inkscape:window-x="65"
     inkscape:window-y="24"
     inkscape:window-maximized="1"
     showguides="true"
     inkscape:guide-bbox="true" />
  <metadata
     id="metadata7">
    <rdf:RDF>
      <cc:Work
         rdf:about="">
        <dc:format>image/svg+xml</dc:format>
        <dc:type
           rdf:resource="http://purl.org/dc/dcmitype/StillImage" />
        <dc:title />
      </cc:Work>
    </rdf:RDF>
  </metadata>
  <g
     inkscape:label="Calque 1"
     inkscape:groupmode="layer"
     id="layer1"
     transform="translate(0,-752.36218)">
    <path
       style="fill:#000000"
       d="m 218.58689,1016.7278 c 0,-16.84892 -1.03725,-35.94813 -2.30502,-42.44264 -1.26777,-6.49451 -2.92515,-19.55859 -3.68306,-29.0313 -1.55156,-19.39202 -3.06365,-27.03637 -6.93527,-35.0613 -2.63858,-5.46912 -10.17147,-7.50868 -12.68882,-3.43554 -2.02259,3.27264 -43.55598,7.90619 -52.62879,5.87138 -14.8498,-3.33041 -9.58054,-6.70694 13.03924,-8.35554 37.62867,-2.74248 46.31964,-6.17687 35.32804,-13.96047 -5.85819,-4.14841 -22.07526,-8.1947 -45.78217,-11.42303 -12.17862,-1.65846 -17.69798,-4.72121 -14.41829,-8.00091 3.50188,-3.50187 34.81447,-0.0123 51.40728,5.73103 29.62512,10.25203 28.82509,10.2472 28.82509,0.17396 0,-4.81423 -1.12307,-9.44726 -2.49573,-10.2956 -1.37265,-0.84836 -12.44464,-2.79824 -24.60442,-4.33308 -12.15978,-1.53485 -22.1087,-3.54501 -22.1087,-4.46704 0,-2.88302 12.86322,-4.29706 26.3898,-2.90101 l 12.97728,1.3394 0,-11.28197 c 0,-9.84706 -0.85038,-11.6902 -6.68611,-14.49176 -4.92127,-2.36259 -7.58249,-6.38566 -10.08217,-15.24177 -4.06525,-14.40272 -2.02655,-38.40711 3.2619,-38.40711 2.55234,0 3.3728,4.62644 3.40484,19.19881 0.0467,21.27667 1.56641,27.54959 6.67412,27.54959 2.72075,0 3.42742,-5.55026 3.42742,-26.91965 0,-14.80581 0.9453,-27.50388 2.10065,-28.21795 4.28122,-2.64593 7.74112,11.69414 7.74112,32.08422 0,15.72348 0.77309,20.73842 3.07555,19.95044 1.92997,-0.6605 2.77075,-4.43785 2.25726,-10.14118 -0.45007,-4.99873 0.5816,-14.55068 2.29256,-21.22655 2.45907,-9.59474 3.79044,-11.57392 6.35429,-9.44613 2.1774,1.8071 3.24343,9.00453 3.24343,21.89835 0,20.06789 -2.13042,24.94116 -12.31677,28.17418 -3.80574,1.20791 -4.90632,3.7277 -4.90632,11.23318 0,5.32176 -1.1072,9.67596 -2.46045,9.67596 -5.11651,0 -2.14188,6.31465 4.84813,10.29175 9.65766,5.49491 11.93844,15.09285 6.14358,25.85325 -3.88563,7.21517 -4.10914,9.89971 -1.65913,19.92781 2.6578,10.87852 4.01692,22.29724 10.31164,86.63283 4.12038,42.11259 2.92741,54.12979 -5.37365,54.12979 -1.0826,0 -1.96835,-13.7855 -1.96835,-30.6345 z m -117.17886,11.566 c -0.76099,-2.3682 -2.346009,-7.0738 -3.522235,-10.4569 -1.17622,-3.3831 -2.77671,-16.6695 -3.55665,-29.5253 -0.77993,-12.85581 -1.96373,-26.8947 -2.63068,-31.19752 -1.60822,-10.37583 2.67475,-28.17516 11.142525,-46.30641 3.79199,-8.11946 7.60361,-16.84888 8.47025,-19.39871 2.26073,-6.65161 -0.55779,-19.03593 -5.95164,-26.15101 -4.32194,-5.70114 -4.91997,-5.84075 -8.746375,-2.04185 -3.83408,3.80653 -3.67007,4.65083 2.466246,12.69596 7.467589,9.79052 5.550559,12.96451 -4.637756,7.67872 -12.47742,-6.47335 -14.62941,-1.1386 -18.42291,45.67021 -2.25674,27.84645 -4.098093,35.19906 -8.43714,33.6899 -5.236453,-1.82129 -1.968129,-49.72485 4.972788,-72.8857 l 6.216172,-20.74247 -5,-10.01306 c -5.458875,-10.93199 -7.209524,-26.21751 -4.099968,-35.79823 1.089208,-3.35592 5.301748,-9.20429 9.361198,-12.99638 8.0722,-7.54056 11.32754,-19.07034 11.50489,-40.74809 0.091,-11.11606 0.75863,-12.97335 4.41293,-12.27554 3.58712,0.68499 4.426376,4.03734 5.028376,20.08594 0.641059,17.09008 1.196309,19.05755 4.920879,17.43659 7.72498,-3.362 20.19115,-4.19333 20.19115,-1.34648 0,1.50131 -1.21277,2.72964 -2.69504,2.72964 -1.84866,0 -2.23251,6.02818 -1.22223,19.1947 1.3672,17.8182 1.03115,19.79332 -4.68628,27.54285 -7.55444,10.2395 -7.5633,10.97643 -0.32874,27.38467 6.47069,14.67573 6.22514,27.10987 -0.69839,35.36746 -4.88826,5.83011 -8.35498,13.43074 -12.63076,27.69237 -2.52869,8.43437 -2.54584,16.08608 -0.0881,39.36708 1.67782,15.89379 4.18479,34.16986 5.57105,40.61346 2.62109,12.1834 1.57498,19.0399 -2.90494,19.0399 -1.43818,0 -3.23753,-1.9376 -3.99852,-4.3058 z M 91.259005,856.94355 c 5.02996,-3.81826 5.85829,-20.91238 1.60465,-33.11443 -3.20743,-9.2008 -3.89239,-9.34636 -11.28784,-2.39871 -6.88528,6.46841 -7.46697,17.83139 -1.5482,30.24317 4.61466,9.67704 5.11595,9.91226 11.23139,5.26997 z m 19.854065,-27.52792 c 2.13417,-13.15136 -0.46728,-23.17675 -6.01408,-23.17675 -3.82013,0 -4.61333,1.88376 -4.61333,10.95623 0,11.30022 4.28781,24.17165 7.4095,22.24234 0.97296,-0.60133 2.42103,-5.11115 3.21791,-10.02182 z m 35.45982,169.63191 c -7.94304,-2.32302 -11.64104,-16.83658 -11.64104,-45.68765 0,-20.47524 0.74059,-26.72562 3.07555,-25.95695 1.69156,0.55687 3.62916,5.344 4.30578,10.63811 1.4817,11.59321 4.71103,12.66471 25.11774,8.33411 12.36677,-2.62441 14.44713,-3.84132 14.10545,-8.25097 -0.81193,-10.47799 0.20224,-18.70497 2.30582,-18.70497 4.5268,0 7.73622,14.42439 8.48545,38.13685 1.0983,34.76002 -2.0199,39.7951 -25.753,41.58436 -8.60744,0.64895 -17.60825,0.60715 -20.00175,-0.0928 z m 32.63063,-12.39233 c 0.66764,-0.64983 1.22124,-7.96832 1.23022,-16.26328 l 0.0172,-15.08175 -11.55623,0.68563 c -6.35594,0.37709 -14.63299,1.50847 -18.39346,2.51418 -6.31684,1.68936 -6.77854,2.64096 -6.06651,12.50283 1.27795,17.69937 4.18186,20.37665 20.02332,18.46065 7.44284,-0.90023 14.07868,-2.16844 14.74634,-2.81826 z M 150.63934,840.68507 c -1.18943,-7.43826 -2.70459,-9.84177 -6.20428,-9.84177 -9.11234,0 -12.5607,-8.04331 -13.6029,-31.72878 -0.83239,-18.91721 -0.39891,-22.40095 2.78724,-22.40095 2.63789,0 3.91097,2.77565 4.23191,9.22666 1.84098,37.00606 1.45703,35.0613 6.92231,35.0613 4.45313,0 4.92088,-1.6403 4.92088,-17.25648 0,-9.49106 -1.37592,-19.45969 -3.05759,-22.15247 -3.4875,-5.58437 -0.0965,-13.49055 5.7862,-13.49055 2.63683,0 3.57313,5.36583 4.07863,23.3742 0.79698,28.39313 1.9447,32.71389 6.90092,25.97949 2.08117,-2.82786 3.51494,-10.52393 3.51494,-18.86719 0,-15.0213 1.62424,-21.87496 5.18413,-21.87496 1.20847,0 2.1972,10.48995 2.1972,23.31102 l 0,23.31102 -7.38133,3.81703 c -5.08111,2.62753 -7.38133,5.65149 -7.38133,9.70371 0,15.407 -6.59187,18.24374 -8.89693,3.82872 z"
       id="path3003"
       inkscape:connector-curvature="0" />
  </g>
</svg>
