<?xml version="1.0" encoding="UTF-8" standalone="no"?>
<!-- Created with Inkscape (http://www.inkscape.org/) -->

<svg
   xmlns:dc="http://purl.org/dc/elements/1.1/"
   xmlns:cc="http://creativecommons.org/ns#"
   xmlns:rdf="http://www.w3.org/1999/02/22-rdf-syntax-ns#"
   xmlns:svg="http://www.w3.org/2000/svg"
   xmlns="http://www.w3.org/2000/svg"
   xmlns:sodipodi="http://sodipodi.sourceforge.net/DTD/sodipodi-0.dtd"
   xmlns:inkscape="http://www.inkscape.org/namespaces/inkscape"
   width="300"
   height="300"
   id="svg2"
   version="1.1"
   inkscape:version="0.48.4 r9939"
   sodipodi:docname="image-seal.svg">
  <defs
     id="defs4" />
  <sodipodi:namedview
     id="base"
     pagecolor="#ffffff"
     bordercolor="#666666"
     borderopacity="1.0"
     inkscape:pageopacity="0.0"
     inkscape:pageshadow="2"
     inkscape:zoom="2.7366667"
     inkscape:cx="150"
     inkscape:cy="150"
     inkscape:document-units="px"
     inkscape:current-layer="layer1"
     showgrid="false"
     inkscape:window-width="1215"
     inkscape:window-height="1000"
     inkscape:window-x="65"
     inkscape:window-y="24"
     inkscape:window-maximized="1"
     showguides="true"
     inkscape:guide-bbox="true" />
  <metadata
     id="metadata7">
    <rdf:RDF>
      <cc:Work
         rdf:about="">
        <dc:format>image/svg+xml</dc:format>
        <dc:type
           rdf:resource="http://purl.org/dc/dcmitype/StillImage" />
        <dc:title />
      </cc:Work>
    </rdf:RDF>
  </metadata>
  <g
     inkscape:label="Calque 1"
     inkscape:groupmode="layer"
     id="layer1"
     transform="translate(0,-752.36218)">
    <path
       style="fill:#000000"
       d="m 127.34473,1043.0637 c -3.9008,-2.8415 -7.09237,-6.2435 -7.09237,-7.56 0,-1.3165 -2.2193,-7.3167 -4.93181,-13.3338 -5.01473,-11.1241 -10.13651,-32.54714 -10.01955,-41.90924 0.0353,-2.83884 -0.27658,-13.59723 -0.69345,-23.90756 -0.66264,-16.38961 0.0155,-19.79255 5.39727,-27.07139 17.78731,-24.05861 20.46021,-40.94324 8.72042,-55.08682 l -6.21517,-7.48775 -6.35845,7.66747 -6.358456,7.66745 7.625816,7.45564 c 4.19417,4.10059 7.08321,8.33356 6.42003,9.40656 -1.98386,3.20996 -14.232746,-0.25704 -14.232746,-4.02859 0,-2.23742 -1.620349,-2.89146 -4.516329,-1.82297 -6.19378,2.28523 -7.37298,4.40626 -14.7666,26.56006 -4.93486,14.78645 -6.61976,25.7527 -7.13743,46.45371 -0.5518,22.06544 -1.39658,27.098 -4.54878,27.098 -7.74631,0 -2.14309,-64.28719 7.64788,-87.7459 8.39179,-20.10635 8.54302,-21.43459 3.29182,-28.9116 -2.78852,-3.97048 -6.59553,-13.25869 -8.46005,-20.64047 -4.63063,-18.33306 -0.49393,-30.27329 15.94709,-46.02977 l 12.542399,-12.02018 0,-19.18652 c 0,-15.2115 0.855956,-19.51497 4.131596,-20.77193 6.45722,-2.47787 8.96174,4.37269 7.15482,19.57048 l -1.65878,13.95191 18.41304,-1.7113 c 10.35703,-0.9626 18.41303,-0.70336 18.41303,0.59246 0,1.26708 -1.58551,5.35988 -3.52338,9.0951 -2.43203,4.68777 -3.12241,12.39534 -2.22888,24.88381 l 1.29452,18.09248 -10.47527,9.67071 c -9.68861,8.94448 -10.14515,9.95657 -6.0797,13.47743 6.52558,5.65143 10.68967,16.89209 10.68967,28.85606 0,8.39465 -2.17311,13.49058 -10.39913,24.38585 -6.21424,8.2307 -11.19759,18.19151 -12.38319,24.75175 -3.289,18.19884 2.53015,52.13289 13.5211,78.84766 5.42992,13.198 9.44259,24.4265 8.917,24.9521 -0.52558,0.5256 -4.14718,-1.3693 -8.04798,-4.2109 z m -25.9963,-177.13311 c 9.00898,-7.71673 9.024,-6.01681 -0.36884,-41.80601 l -3.047925,-11.61343 -9.48575,9.86161 c -8.05739,8.37666 -9.48574,11.60821 -9.48574,21.46094 0,11.14319 2.59302,18.8121 8.73658,25.83869 3.86675,4.42252 4.23936,4.32037 13.651675,-3.7418 z M 125.019,845.11314 c 4.61275,-4.00062 5.5564,-7.63846 5.5564,-21.42033 0,-9.13068 -1.25672,-17.85799 -2.79272,-19.39398 -3.70285,-3.70285 -17.36372,1.32096 -18.51761,6.80988 -1.71829,8.17358 5.69706,38.82348 9.39282,38.82348 0.4426,0 3.30507,-2.16856 6.36111,-4.81905 z m 63.9147,174.90546 c -32.04036,-2.6399 -37.3663,-6.4188 -37.33714,-26.49169 0.0103,-7.29643 -0.78744,-25.46035 -1.77345,-40.36425 -1.53937,-23.26856 -2.56476,-27.71129 -7.25571,-31.43783 -3.00465,-2.38689 -4.85387,-4.94895 -4.10937,-5.69342 2.44956,-2.44955 88.10679,-2.11124 90.57578,0.35775 3.37468,3.37468 -2.57583,7.73831 -12.00289,8.80194 -7.19606,0.81194 -7.79607,1.69641 -8.50456,12.53678 -0.41961,6.42008 1.02368,15.93759 3.21052,21.17145 3.20853,7.67911 5.71336,9.83477 13.02089,11.20567 6.55073,1.22891 9.0481,3.0428 9.0481,6.57173 0,5.77724 -2.96803,5.99674 -16.77495,1.24052 -13.17146,-4.53729 -16.98848,-14.04492 -19.00413,-47.33625 -0.24027,-3.96901 -1.9851,-5.80672 -5.5131,-5.80672 -4.40356,0 -5.16153,1.72052 -5.16153,11.71625 0,14.63994 -7.78902,30.368 -18.03717,36.42175 -11.60471,6.85504 -12.40872,12.41238 -4.70355,32.51082 2.49689,6.513 3.81016,7.0792 15.95673,6.8793 7.27973,-0.1197 19.99305,-1.0607 28.2518,-2.091 17.63471,-2.1999 25.98886,1.3329 20.05616,8.4814 -1.89451,2.2827 -5.91537,3.9879 -8.93527,3.7893 -3.01988,-0.1987 -16.9731,-1.3072 -31.00716,-2.4635 z m -18.84273,-59.02438 c 7.2259,-8.10984 13.70459,-28.31511 11.18466,-34.88194 -1.84192,-4.79998 -14.44912,-5.17257 -20.68692,-0.61138 -3.92913,2.87306 -4.28605,5.92323 -2.71803,23.22685 0.99276,10.95572 2.61423,19.91948 3.60323,19.91948 0.98903,0 4.8667,-3.44384 8.61706,-7.65301 z m 1.95728,-71.91961 c -13.09531,-3.9023 -17.46185,-20.98477 -19.84173,-77.62356 -0.94213,-22.4221 -0.43756,-29.95581 2.11476,-31.57479 5.49586,-3.48618 6.72345,-2.61377 8.64725,6.1452 2.52174,11.48148 7.78644,14.55119 23.04048,13.43442 23.96846,-1.75477 25.3231,-2.71633 23.95055,-17.00088 -0.66199,-6.88952 -0.43174,-12.52642 0.51166,-12.52642 4.10013,0 13.02296,11.01913 13.14263,16.23028 1.85175,80.65092 1.10769,88.7109 -9.13478,98.9534 -3.71524,3.71524 -33.8245,6.52695 -42.43082,3.96235 z m 36.5952,-14.34659 c 3.34804,-2.54153 4.51633,-7.13779 4.51633,-17.76818 0,-8.21616 -1.22372,-14.74771 -2.86563,-15.29501 -6.22221,-2.07408 -41.88037,2.91019 -44.06826,6.15984 -3.3523,4.97909 -0.45579,20.09644 4.88693,25.50566 5.64676,5.71704 30.61566,6.64691 37.53063,1.39769 z m -5.80672,-41.63243 c 3.54855,-0.39421 7.32291,-0.83194 8.38748,-0.97274 2.86792,-0.3793 2.34632,-15.31236 -0.73598,-21.07174 -2.2033,-4.11686 -5.49537,-4.99187 -18.7815,-4.99187 -21.76351,0 -27.58142,4.18399 -27.58142,19.8354 l 0,11.80043 16.12976,-1.94137 c 8.87137,-1.06777 19.03312,-2.2639 22.58166,-2.65811 z"
       id="path3095"
       inkscape:connector-curvature="0" />
  </g>
</svg>
