<?xml version="1.0" encoding="UTF-8" standalone="no"?>
<!-- Created with Inkscape (http://www.inkscape.org/) -->

<svg
   xmlns:dc="http://purl.org/dc/elements/1.1/"
   xmlns:cc="http://creativecommons.org/ns#"
   xmlns:rdf="http://www.w3.org/1999/02/22-rdf-syntax-ns#"
   xmlns:svg="http://www.w3.org/2000/svg"
   xmlns="http://www.w3.org/2000/svg"
   xmlns:sodipodi="http://sodipodi.sourceforge.net/DTD/sodipodi-0.dtd"
   xmlns:inkscape="http://www.inkscape.org/namespaces/inkscape"
   width="300"
   height="300"
   id="svg2"
   version="1.1"
   inkscape:version="0.48.4 r9939"
   sodipodi:docname="image-seal.svg">
  <defs
     id="defs4" />
  <sodipodi:namedview
     id="base"
     pagecolor="#ffffff"
     bordercolor="#666666"
     borderopacity="1.0"
     inkscape:pageopacity="0.0"
     inkscape:pageshadow="2"
     inkscape:zoom="1.979899"
     inkscape:cx="200.43343"
     inkscape:cy="172.47673"
     inkscape:document-units="px"
     inkscape:current-layer="layer1"
     showgrid="false"
     inkscape:window-width="1215"
     inkscape:window-height="1000"
     inkscape:window-x="65"
     inkscape:window-y="24"
     inkscape:window-maximized="1" />
  <metadata
     id="metadata7">
    <rdf:RDF>
      <cc:Work
         rdf:about="">
        <dc:format>image/svg+xml</dc:format>
        <dc:type
           rdf:resource="http://purl.org/dc/dcmitype/StillImage" />
        <dc:title />
      </cc:Work>
    </rdf:RDF>
  </metadata>
  <g
     inkscape:label="Calque 1"
     inkscape:groupmode="layer"
     id="layer1"
     transform="translate(0,-752.36218)">
    <path
       style="fill:#000000"
       d="m 103.73113,1031.5583 c -1.80962,-0.6491 -3.29022,-3.9727 -3.29022,-7.3859 0,-3.4132 -0.985854,-6.8152 -2.190813,-7.5599 -1.204931,-0.7446 -3.781832,-13.3749 -5.726432,-28.06715 -2.725514,-20.59231 -2.826643,-27.8483 -0.441364,-31.66775 1.701834,-2.72507 3.094256,-6.11411 3.094256,-7.53116 0,-1.41708 3.614611,-8.2439 8.032483,-15.17074 6.43528,-10.08997 7.72728,-14.42612 6.49761,-21.80688 -2.54784,-15.29271 -9.56849,-28.95395 -14.879699,-28.95395 -6.90299,0 -8.842825,10.9163 -3.705289,20.85122 2.348507,4.54153 3.591447,9.35531 2.762075,10.69724 -2.44474,3.95567 -9.235889,-0.0945 -9.235889,-5.5083 0,-3.11253 -1.847525,-4.98274 -4.922277,-4.98274 -3.592868,0 -5.685449,3.02129 -7.747997,11.18676 -4.793669,18.97746 -5.928795,25.5692 -7.293605,42.35414 -1.603022,19.71418 -2.821563,23.66165 -6.586023,21.33507 -5.570924,-3.44289 0.993778,-55.00995 9.364523,-73.55988 5.84367,-12.94981 5.624673,-17.67404 -1.43201,-30.89237 -1.342015,-2.51383 -2.440028,-7.54787 -2.440028,-11.18674 0,-3.63888 -1.18448,-6.61617 -2.632176,-6.61617 -3.580078,0 -3.338259,-17.45201 0.336996,-24.31928 3.707607,-6.92772 14.431992,-17.79556 17.560649,-17.79556 1.289136,0 4.506051,-2.38917 7.148705,-5.30928 3.620033,-4.00009 4.660558,-8.87551 4.219721,-19.77183 -0.658018,-16.26446 0.718479,-20.11526 6.409642,-17.93133 2.889655,1.10885 3.798912,5.24102 3.456832,15.70964 -0.255316,7.81275 0.0158,14.67568 0.60101,15.25094 0.58584,0.57526 7.23172,-0.17794 14.76859,-1.67359 14.05686,-2.78964 21.83099,-1.68069 21.83099,3.11413 0,1.49315 -2.795,2.7148 -6.21112,2.7148 -5.70869,0 -6.13055,0.90494 -5.21498,11.18675 2.33801,26.2556 1.7742,34.30585 -2.62817,37.52492 -2.40402,1.75788 -4.37097,4.50447 -4.37097,6.10357 0,1.59908 -2.48767,4.23879 -5.52815,5.86602 -4.82949,2.58467 -5.30305,4.45986 -3.74688,14.83714 0.97972,6.53322 4.05521,15.60773 6.83442,20.16558 6.47926,10.62592 6.3579,14.18843 -0.85945,25.22426 -3.2519,4.9724 -7.89883,12.07927 -10.32648,15.79307 -2.97673,4.55372 -4.42156,12.32324 -4.43733,23.8615 -0.0237,17.34393 4.69865,45.42015 8.23427,48.95555 2.52784,2.528 2.49759,13.5868 -0.0411,15.0222 -1.08577,0.6141 -3.45473,0.5851 -5.26435,-0.064 z M 101.757,851.82875 c 0.97835,5.79079 2.67561,10.52871 3.77167,10.52871 4.52295,0 10.12886,-9.95673 11.85588,-21.05742 3.75633,-24.14446 1.32925,-30.80769 -10.17047,-27.92142 -5.85717,1.47005 -6.77317,3.11708 -6.77317,12.17851 z m -8.818188,-23.68959 c -3.066197,-8.79572 -3.751905,-9.10228 -11.310386,-5.0571 -11.786548,6.30795 -13.895948,30.66292 -4.599546,53.10639 3.147821,7.59948 4.362202,7.39859 14.847111,-2.45622 1.879822,-1.76685 3.300566,-9.41486 3.300566,-17.7672 z m 88.315678,200.83144 c -0.68893,-1.1563 -1.28348,-18.9272 -1.32123,-39.49109 -0.0376,-20.56389 -0.83122,-38.62288 -1.76329,-40.13101 -2.39876,-3.88131 -16.23777,3.71138 -20.20399,11.0848 -4.3568,8.0996 -8.31412,26.30848 -11.72095,53.9324 -0.9484,7.6899 -2.6396,11.1868 -5.41026,11.1868 -3.31983,0 -3.75556,-2.553 -2.4709,-14.477 0.85782,-7.9623 2.26157,-20.99165 3.11939,-28.95398 0.85783,-7.96234 2.63455,-14.47697 3.94827,-14.47697 1.31372,0 2.38857,-1.89385 2.38857,-4.2083 0,-4.23862 14.48708,-19.4813 18.51559,-19.4813 3.90824,0 10.43836,-8.17241 10.43836,-13.06355 0,-2.93501 -2.58938,-5.44089 -6.6841,-6.4686 -8.53641,-2.14248 -22.04683,-14.97664 -22.64468,-21.51123 -1.29726,-14.1788 0.34445,-15.64316 6.37322,-5.68466 7.12625,11.77133 16.40951,18.82915 21.9632,16.698 3.26295,-1.25213 3.86456,-5.62488 3.16814,-23.02702 l -0.8597,-21.48138 -10.80645,-3.93481 c -15.46644,-5.6316 -19.10121,-14.24543 -19.64497,-46.55517 -0.24374,-14.47696 -0.30251,-29.57908 -0.13082,-33.56025 0.43271,-10.03331 7.88016,-9.53928 9.91963,0.65804 l 1.57931,7.89654 23.49749,0 23.4975,0 2.75273,-7.89654 c 2.97436,-8.5322 5.47175,-9.7704 9.29076,-4.60631 2.7005,3.65157 2.39727,49.45864 -0.42704,64.51343 -2.0522,10.9392 -12.83189,21.68232 -21.76097,21.68716 -5.67373,0.002 -5.92239,0.93605 -5.92239,22.22137 0,12.21998 0.88835,22.71503 1.97413,23.3223 1.08577,0.60727 5.66792,-0.44716 10.18258,-2.34314 6.55443,-2.75265 8.80855,-5.83059 11.18675,-15.27526 1.63806,-6.5054 2.97831,-14.36337 2.97831,-17.46219 0,-3.34564 1.33646,-5.18254 3.29022,-4.5222 2.84641,0.962 3.53243,10.37881 2.1562,29.59673 -0.42555,5.94237 -13.7601,17.85866 -21.81731,19.49676 -6.21933,1.26448 -8.87008,3.38501 -9.47591,7.58052 -0.55297,3.82948 0.53173,5.82493 3.16638,5.82493 12.13379,0 27.44332,17.10207 33.42707,37.34085 3.67397,12.42651 7.52407,44.22873 5.87483,48.52663 -3.69367,9.6256 -8.22173,1.6388 -11.37464,-20.063 -4.00894,-27.59396 -7.53242,-38.83551 -14.51379,-46.30547 -3.72471,-3.98543 -14.63454,-9.63582 -15.98921,-8.28115 -0.61361,0.61365 -1.23397,9.00097 -1.37856,18.6384 -0.16109,10.73718 -1.37457,17.52292 -3.13357,17.52292 -1.91288,0 -1.81681,1.05393 0.2879,3.15863 4.59271,4.59261 4.1514,37.48777 -0.5553,41.39387 -2.04268,1.6954 -4.27761,2.1365 -4.96654,0.9805 z M 207.03574,840.68 c 0.97588,-5.40796 1.66951,-10.73036 1.54143,-11.82755 -0.28639,-2.45296 -26.89656,-2.26369 -40.3577,0.28703 -10.71802,2.03097 -12.65925,7.20878 -6.84446,18.256 4.10036,7.79003 7.34505,9.60995 17.21781,9.65733 4.61959,0.0211 9.14445,1.24607 10.05527,2.7198 3.16219,5.11653 16.52233,-8.75585 18.38765,-19.09261 z m 2.92408,-27.21055 c 2.54598,-10.14396 -2.35727,-12.92928 -23.43719,-13.31355 -25.43475,-0.46363 -30.29577,1.55798 -28.76843,11.96432 l 1.19211,8.12241 24.65679,0 c 24.29244,0 24.6819,-0.10008 26.35672,-6.77318 z"
       id="path3041"
       inkscape:connector-curvature="0"
       sodipodi:nodetypes="csssssssssssssscsssssssssscsssssssssssscccccssscccssscccsssssssssssssssscsssscccssscsssssssssssssscssscccscsscssssscss" />
  </g>
</svg>
