<?xml version="1.0" encoding="UTF-8" standalone="no"?>
<!-- Created with Inkscape (http://www.inkscape.org/) -->

<svg
   xmlns:dc="http://purl.org/dc/elements/1.1/"
   xmlns:cc="http://creativecommons.org/ns#"
   xmlns:rdf="http://www.w3.org/1999/02/22-rdf-syntax-ns#"
   xmlns:svg="http://www.w3.org/2000/svg"
   xmlns="http://www.w3.org/2000/svg"
   xmlns:sodipodi="http://sodipodi.sourceforge.net/DTD/sodipodi-0.dtd"
   xmlns:inkscape="http://www.inkscape.org/namespaces/inkscape"
   width="300"
   height="300"
   id="svg2"
   version="1.1"
   inkscape:version="0.92.4 (5da689c313, 2019-01-14)"
   sodipodi:docname="image-bigseal.svg">
  <defs
     id="defs4" />
  <sodipodi:namedview
     id="base"
     pagecolor="#ffffff"
     bordercolor="#666666"
     borderopacity="1.0"
     inkscape:pageopacity="0.0"
     inkscape:pageshadow="2"
     inkscape:zoom="1"
     inkscape:cx="227.03327"
     inkscape:cy="164.92429"
     inkscape:document-units="px"
     inkscape:current-layer="layer1"
     showgrid="false"
     inkscape:window-width="1872"
     inkscape:window-height="1016"
     inkscape:window-x="48"
     inkscape:window-y="27"
     inkscape:window-maximized="1" />
  <metadata
     id="metadata7">
    <rdf:RDF>
      <cc:Work
         rdf:about="">
        <dc:format>image/svg+xml</dc:format>
        <dc:type
           rdf:resource="http://purl.org/dc/dcmitype/StillImage" />
        <dc:title />
      </cc:Work>
    </rdf:RDF>
  </metadata>
  <g
     inkscape:label="Calque 1"
     inkscape:groupmode="layer"
     id="layer1"
     transform="translate(0,-752.36218)">
    <path
       style="fill:#000000;stroke-width:5.96058989"
       d="m 114.00329,1033.5976 c -10.27907,-19.5886 -13.09823,-51.85737 -6.63589,-75.95577 11.95234,-44.57079 11.94131,-52.89476 -0.09,-67.9636 -15.996948,-20.03554 -21.312911,-12.10443 -9.912295,14.78858 10.859605,25.61686 11.010715,26.54597 4.317375,26.54597 -2.772115,0 -8.504928,-7.32299 -12.739577,-16.27331 -7.219935,-15.25998 -8.001384,-15.53634 -12.549589,-4.43817 -2.667622,6.50932 -5.040116,25.81538 -5.272213,42.90235 -0.259772,19.12467 -3.061377,31.06722 -7.288072,31.06722 -7.785069,0 -2.697882,-76.85027 6.206935,-93.76587 2.834987,-5.38533 2.982073,-15.11734 0.326859,-21.62665 -10.20517,-25.01825 -6.401922,-47.91418 9.338184,-56.21687 11.334218,-5.97863 15.245118,-13.10671 15.970668,-29.10838 l 0.96086,-21.19092 2.47485,19.93698 c 2.367845,19.07488 3.364765,19.79464 23.054875,16.64534 11.31899,-1.8104 20.58,-0.79615 20.58,2.25388 0,3.05005 -2.70178,5.54553 -6.00392,5.54553 -3.30216,0 -6.00394,9.77621 -6.00394,21.72492 0,12.14466 -4.50198,26.62799 -10.209,32.84347 -9.62307,10.48042 -9.56052,12.30538 1.08971,31.79721 10.97585,20.08774 10.98678,21.53361 0.38287,50.59785 -9.5428,26.15593 -9.99019,33.99582 -3.55685,62.32954 7.61008,33.5162 5.5126,46.5307 -4.44182,27.5607 z M 94.714795,841.40694 c 0,-16.40169 -2.336007,-23.05814 -7.504915,-21.38528 -8.309352,2.68923 -13.318599,30.14066 -7.995049,43.81406 6.084227,15.62716 15.499964,2.00238 15.499964,-22.42878 z M 118.7305,830.06493 c 0,-11.52469 -3.04212,-17.40345 -9.00589,-17.40345 -9.0804,0 -13.156595,29.44188 -5.1665,37.31703 7.266,7.16147 14.17239,-2.54268 14.17239,-19.91358 z m 84.055,118.70055 c 0,-76.44923 -1.29855,-88.76348 -9.36022,-88.76348 -5.14814,0 -7.96885,-2.21892 -6.26828,-4.93093 1.70058,-2.712 11.99165,-3.6225 22.86906,-2.02331 10.87742,1.59918 16.39991,4.04001 12.2722,5.42405 -5.5544,1.86243 -7.50491,25.45767 -7.50491,90.7868 0,54.90189 -2.26963,88.27039 -6.00393,88.27039 -3.73577,0 -6.00392,-33.5329 -6.00392,-88.76352 z m -54.03535,-31.13767 c 0,-123.88165 -0.54443,-122.71902 57.46617,-122.71902 21.72849,0 38.59668,2.58619 38.59668,5.91755 0,3.25467 -6.75443,5.91757 -15.00983,5.91757 -20.39182,0 -18.85243,12.59623 3.03994,24.87443 20.60804,11.5579 21.7548,18.83045 8.22471,52.1591 -9.48868,23.37341 -9.10159,44.81773 1.85562,102.80255 2.79225,14.77641 1.96437,17.00691 -4.20163,11.32039 -11.24597,-10.37152 -15.2215,-92.35732 -5.83742,-120.38239 6.24717,-18.65679 6.26285,-24.77806 0.0824,-32.11801 -9.79539,-11.63294 -38.66724,-11.69406 -50.42367,-0.10676 -8.12042,8.00362 -8.088,11.32434 0.30333,31.06722 10.34518,24.33986 8.21101,98.24959 -3.40529,117.93085 -5.87978,9.96201 -6.32252,9.85721 -6.49264,-1.53666 -0.10044,-6.72524 2.60365,-27.08306 6.00906,-45.23959 4.93508,-26.31228 4.34359,-38.24201 -2.91459,-58.78307 -12.97872,-36.73058 -11.60941,-45.72724 8.69283,-57.11363 24.42682,-13.69963 23.66005,-26.15743 -1.46301,-23.76997 l -19.51277,1.85432 -3.00196,101.58525 c -1.65108,55.87188 -5.0283,103.58226 -7.50492,106.02306 -2.47661,2.4408 -4.50294,-42.41666 -4.50294,-99.68319 z"
       id="path103"
       inkscape:connector-curvature="0" />
  </g>
</svg>
