<?xml version="1.0" encoding="UTF-8" standalone="no"?>
<!-- Created with Inkscape (http://www.inkscape.org/) -->

<svg
   xmlns:dc="http://purl.org/dc/elements/1.1/"
   xmlns:cc="http://creativecommons.org/ns#"
   xmlns:rdf="http://www.w3.org/1999/02/22-rdf-syntax-ns#"
   xmlns:svg="http://www.w3.org/2000/svg"
   xmlns="http://www.w3.org/2000/svg"
   xmlns:sodipodi="http://sodipodi.sourceforge.net/DTD/sodipodi-0.dtd"
   xmlns:inkscape="http://www.inkscape.org/namespaces/inkscape"
   width="300"
   height="300"
   id="svg2"
   version="1.1"
   inkscape:version="0.48.4 r9939"
   sodipodi:docname="image-seal.svg">
  <defs
     id="defs4" />
  <sodipodi:namedview
     id="base"
     pagecolor="#ffffff"
     bordercolor="#666666"
     borderopacity="1.0"
     inkscape:pageopacity="0.0"
     inkscape:pageshadow="2"
     inkscape:zoom="1.979899"
     inkscape:cx="130.93154"
     inkscape:cy="137.35134"
     inkscape:document-units="px"
     inkscape:current-layer="layer1"
     showgrid="false"
     inkscape:window-width="1215"
     inkscape:window-height="1000"
     inkscape:window-x="65"
     inkscape:window-y="24"
     inkscape:window-maximized="1"
     fit-margin-top="10"
     fit-margin-left="10"
     fit-margin-right="10"
     fit-margin-bottom="10" />
  <metadata
     id="metadata7">
    <rdf:RDF>
      <cc:Work
         rdf:about="">
        <dc:format>image/svg+xml</dc:format>
        <dc:type
           rdf:resource="http://purl.org/dc/dcmitype/StillImage" />
        <dc:title />
      </cc:Work>
    </rdf:RDF>
  </metadata>
  <g
     inkscape:label="Calque 1"
     inkscape:groupmode="layer"
     id="layer1"
     transform="translate(0,-752.36218)">
    <path
       style="fill:#000000"
       d="m 103.4974,1040.8867 c -2.62256,-4.3125 -6.209675,-16.3631 -7.971335,-26.7792 -1.76166,-10.4162 -4.30133,-23.1897 -5.64371,-28.38569 -3.46273,-13.4032 -2.95359,-43.71998 0.92097,-54.83931 1.80565,-5.18194 6.42794,-13.54488 10.271715,-18.58435 11.51428,-15.09599 11.62001,-20.53649 0.70744,-36.40057 -10.181685,-14.80157 -13.432395,-16.58005 -17.761315,-9.7173 -2.02425,3.20916 -1.29181,6.02391 2.98104,11.45595 6.51591,8.28365 7.70196,22.17248 1.89347,22.17248 -2.07418,0 -5.85468,-3.52703 -8.40115,-7.83784 -2.54646,-4.31081 -5.3634,-7.83783 -6.25987,-7.83783 -4.7827,0 -8.51986,17.79562 -9.68568,46.12152 -1.40428,34.11941 -2.781,39.2173 -9.85768,36.50172 -4.06326,-1.55923 -4.39789,-4.95333 -3.19279,-32.38521 0.96823,-22.0399 2.94621,-35.19051 7.04498,-46.83882 5.11691,-14.54167 5.38622,-17.74293 2.63733,-31.35135 -5.59049,-27.67598 -5.71514,-29.54781 -2.48671,-37.34194 3.13117,-7.55931 21.9523,-26.14737 26.4752,-26.14737 1.24979,0 2.27234,-5.78223 2.27234,-12.84937 0,-15.04964 1.87612,-21.11459 6.53154,-21.11459 3.98076,0 6.531525,5.76225 6.531525,14.75481 0,12.88718 3.85904,16.15728 16.24154,13.76288 6.155,-1.19021 12.07265,-2.21521 13.15035,-2.27778 3.18992,-0.18524 2.23248,9.0186 -1.30631,12.55739 -1.79617,1.79617 -3.41272,9.08536 -3.59234,16.1982 -0.64699,25.62058 -0.83084,26.44572 -6.20495,27.8511 -2.87388,0.75154 -5.22523,2.26788 -5.22523,3.36962 0,1.10173 -2.35135,2.61807 -5.22522,3.36961 -6.9542,1.81856 -6.73307,10.64559 0.52727,21.0469 3.16388,4.53262 6.49833,8.82898 7.40989,9.54745 1.40306,1.10584 7.73851,17.39255 7.73851,19.89356 0,0.45404 -3.53092,4.84699 -7.84646,9.76215 -13.58658,15.47425 -16.06354,24.88637 -14.30951,54.37393 0.85829,14.42881 4.42853,37.54025 7.9339,51.35875 6.07882,23.9635 6.366,34.4314 0.94454,34.4314 -1.36122,0 -4.62069,-3.5284 -7.24329,-7.8409 z M 86.440705,847.06236 c 1.9459,-3.14854 1.79991,-38.76699 -0.16695,-40.73384 -0.59802,-0.59806 -4.01893,1.08562 -7.60197,3.74147 -7.53143,5.5825 -12.77405,22.41964 -9.53251,30.61441 1.2109,3.06117 2.86766,7.6739 3.6817,10.25048 1.18777,3.75945 2.4911,4.14368 6.5986,1.94543 2.81514,-1.50664 5.97467,-4.12471 7.02116,-5.81795 z M 110.55297,833.6717 c 2.77585,-3.34472 4.98923,-32.0387 2.65167,-34.37626 -0.64424,-0.64427 -3.76529,-0.49305 -6.93565,0.33604 -5.16417,1.35043 -5.76428,3.1983 -5.76428,17.74922 0,19.4619 3.16202,24.58843 10.04826,16.291 z m 56.92287,155.44319 c -12.40823,-1.01832 -20.65084,-8.61901 -24.60051,-22.68456 -5.23246,-18.63393 -8.64704,-59.02195 -9.18579,-108.65093 -0.58434,-53.82538 0.66849,-59.38763 14.87355,-66.03548 17.88258,-8.36888 76.04072,-7.64406 76.04072,0.94767 0,3.25409 -3.88692,3.76601 -22.91194,3.01755 -12.60154,-0.49575 -28.8882,0.53234 -36.19257,2.28462 -19.51705,4.68206 -21.17732,10.09819 -19.45958,63.481 2.13372,66.31046 5.55087,96.43694 12.57148,110.83395 2.74063,5.62015 4.27238,5.87838 34.86905,5.87838 35.48325,0 40.2677,0.95337 40.2677,8.02386 0,4.46166 -2.26054,4.80718 -28.08558,4.29254 -15.44708,-0.30779 -32.63101,-0.93267 -38.18653,-1.3886 z m 0.55098,-41.55499 c -7.20112,-0.76165 -9.90368,-2.42074 -10.98823,-6.7455 -2.67493,-10.66672 -2.37774,-54.40507 0.38847,-57.17126 3.55064,-3.55067 8.12601,-0.55243 11.10206,7.27522 3.66095,9.62899 11.95923,8.10218 15.57919,-2.86641 3.9057,-11.83437 7.01468,-11.60433 8.82765,0.65316 5.44714,36.82827 -0.28733,62.97078 -13.22797,60.30406 -1.17217,-0.24167 -6.4287,-0.89372 -11.68117,-1.44927 z m 13.46888,-25.71751 c 0,-14.32365 -0.10842,-14.53044 -7.18469,-13.71622 -6.70116,0.77106 -7.23782,1.74975 -7.97437,14.5429 l -0.78969,13.71622 7.97438,0 c 7.9357,0 7.97437,-0.0705 7.97437,-14.5429 z m 22.43317,20.72115 c -2.66881,-6.95475 -5.02471,-49.3441 -3.15622,-56.78879 2.34252,-9.33327 6.84917,-8.69444 6.84917,0.9709 0,6.63912 1.00884,7.83784 6.5962,7.83784 4.56089,0 7.33266,-1.93705 8.983,-6.27775 7.02604,-18.47995 13.15954,-6.68998 13.15954,25.29566 0,20.50117 -0.79392,25.30514 -4.77779,28.91049 -6.43264,5.82148 -25.4262,5.85696 -27.6539,0.0517 z m 19.53542,-8.13771 c 0.0917,-1.0777 0.61352,-6.07433 1.15953,-11.10361 1.49677,-13.78678 -0.66538,-18.28828 -8.78423,-18.28828 -8.24371,0 -9.66108,5.64732 -5.40968,21.55405 1.89801,7.10139 4.02865,9.7973 7.74306,9.7973 2.81848,0 5.19959,-0.88176 5.29132,-1.95946 z m -56.5471,-76.65001 c -3.66722,-4.05224 -5.19244,-10.49716 -5.92708,-25.04539 -1.14895,-22.75254 1.27736,-27.29182 11.13538,-20.83261 3.62881,2.37769 11.80292,4.30729 18.24638,4.30729 9.37807,0 11.99863,-1.02715 13.33104,-5.22523 1.70919,-5.38525 10.2486,-7.16652 13.00158,-2.71207 3.55365,5.74991 1.73953,42.25106 -2.41499,48.59169 -3.79683,5.7947 -5.91038,6.37263 -23.30498,6.37263 -16.08149,0 -19.9162,-0.86937 -24.06733,-5.45631 z m 35.64006,-10.38001 c 8.22889,-8.22889 5.70623,-16.34009 -5.97985,-19.22711 -17.62607,-4.35446 -27.3,4.93251 -21.33371,20.48038 2.41628,6.29671 20.59784,5.46245 27.31356,-1.25327 z"
       id="path3015"
       inkscape:connector-curvature="0" />
  </g>
</svg>
