<?xml version="1.0" encoding="UTF-8" standalone="no"?>
<!-- Created with Inkscape (http://www.inkscape.org/) -->

<svg
   xmlns:dc="http://purl.org/dc/elements/1.1/"
   xmlns:cc="http://creativecommons.org/ns#"
   xmlns:rdf="http://www.w3.org/1999/02/22-rdf-syntax-ns#"
   xmlns:svg="http://www.w3.org/2000/svg"
   xmlns="http://www.w3.org/2000/svg"
   xmlns:sodipodi="http://sodipodi.sourceforge.net/DTD/sodipodi-0.dtd"
   xmlns:inkscape="http://www.inkscape.org/namespaces/inkscape"
   width="300"
   height="300"
   id="svg2"
   version="1.1"
   inkscape:version="0.48.4 r9939"
   sodipodi:docname="dessin.svg">
  <defs
     id="defs4" />
  <sodipodi:namedview
     id="base"
     pagecolor="#ffffff"
     bordercolor="#666666"
     borderopacity="1.0"
     inkscape:pageopacity="0.0"
     inkscape:pageshadow="2"
     inkscape:zoom="1.979899"
     inkscape:cx="73.020464"
     inkscape:cy="149.14493"
     inkscape:document-units="px"
     inkscape:current-layer="layer1"
     showgrid="false"
     inkscape:window-width="1215"
     inkscape:window-height="1000"
     inkscape:window-x="65"
     inkscape:window-y="24"
     inkscape:window-maximized="1" />
  <metadata
     id="metadata7">
    <rdf:RDF>
      <cc:Work
         rdf:about="">
        <dc:format>image/svg+xml</dc:format>
        <dc:type
           rdf:resource="http://purl.org/dc/dcmitype/StillImage" />
        <dc:title />
      </cc:Work>
    </rdf:RDF>
  </metadata>
  <g
     inkscape:label="Calque 1"
     inkscape:groupmode="layer"
     id="layer1"
     transform="translate(0,-752.36218)">
    <path
       style="fill:#000000"
       d="m 105.69741,1037.1151 c -1.88979,-1.5086 -3.43598,-5.9316 -3.43598,-9.8288 0,-3.8972 -1.06878,-8.063 -2.375083,-9.2573 -3.857855,-3.5271 -9.998772,-33.10848 -9.831669,-47.36002 0.160627,-13.70113 6.072769,-33.66996 9.968562,-33.66996 1.231,0 2.23819,-1.12694 2.23819,-2.50433 0,-1.3774 2.36774,-5.23461 5.26163,-8.57158 8.45229,-9.74646 13.12267,-26.28595 9.11189,-32.2685 -9.14883,-13.64655 -17.697964,-17.08206 -22.963452,-9.22795 -1.68563,2.51432 -5.274305,4.59123 -7.974838,4.61535 -3.479467,0.0311 -1.78161,2.2244 5.827355,7.5279 6.331212,4.41289 10.737415,9.5538 10.737415,12.5278 0,6.61306 -3.247019,6.37216 -11.083044,-0.82223 -8.013267,-7.35709 -12.360518,-6.29286 -15.26028,3.73571 -1.247545,4.31456 -4.145503,12.98761 -6.439904,19.27345 -5.547426,15.198 -7.684295,35.737 -4.078867,39.20502 1.971383,1.89624 1.857368,4.34405 -0.35611,7.64572 -15.04691,22.44422 -11.046787,-44.62487 4.424469,-74.1839 3.354457,-6.40897 3.846744,-10.15485 1.788883,-13.6121 -16.358223,-27.48218 -17.434886,-32.48221 -11.639571,-54.05411 3.179139,-11.83371 15.417424,-24.97099 26.062417,-27.9769 3.983296,-1.12479 5.047791,-4.90232 5.726624,-20.32168 0.70028,-15.90685 1.636267,-19.06251 5.844592,-19.70443 4.433241,-0.67622 5.010791,1.33612 5.010791,17.45873 l 0,18.22305 15.96706,-0.88534 c 8.78187,-0.48697 17.35614,-1.5707 19.05393,-2.40834 1.83444,-0.90506 2.25797,-0.45228 1.04384,1.11595 -1.12368,1.4514 -0.80458,2.63893 0.70914,2.63893 1.51372,0 4.0997,-3.08577 5.74667,-6.85728 1.64695,-3.77148 4.21213,-6.85725 5.70038,-6.85725 3.69021,0 6.35672,6.11971 4.42105,10.14649 -1.12719,2.34492 1.35848,3.72944 8.65827,4.82264 14.2158,2.12896 18.8724,0.14526 18.8724,-8.04015 0,-4.41601 1.45416,-6.92898 4.00949,-6.92898 2.95524,0 3.97323,3.21915 3.87154,12.24301 -0.0759,6.73363 0.61668,13.21769 1.53898,14.40899 2.38173,3.07638 -3.13693,21.23116 -7.51657,24.7274 -2.01711,1.61022 -9.2062,2.9887 -15.97576,3.0633 -18.70473,0.20597 -26.01405,-6.72491 -26.01405,-24.66755 l 0,-13.86195 -7.87411,1.50245 c -4.33075,0.82633 -8.67254,1.85237 -9.64838,2.28006 -1.57677,0.69105 -0.35714,7.22679 4.85085,25.99498 2.08369,7.50899 -4.06928,24.64024 -10.10062,28.1225 -8.42759,4.86574 -8.41671,7.1761 0.0991,21.03935 9.17961,14.94403 10.69625,26.46849 4.06175,30.86398 -2.36223,1.56503 -4.29496,3.67981 -4.29496,4.69949 0,1.01972 -4.07289,7.08434 -9.05085,13.47694 -8.52104,10.94256 -9.04194,12.8757 -8.89843,33.02349 0.0839,11.77032 1.51613,24.86578 3.1828,29.10109 13.63953,34.65996 14.04779,50.78476 1.02258,40.38686 z M 94.563535,872.63471 c 1.940552,-1.00897 1.798848,-6.81285 -0.429325,-17.58348 -1.829312,-8.84257 -3.326024,-20.76505 -3.326024,-26.49442 0,-12.48148 -5.588783,-13.91311 -16.127403,-4.13122 -6.064295,5.62886 -6.772449,8.49565 -6.775598,27.42906 -0.0021,12.5735 1.157065,21.14324 2.859819,21.14324 1.574821,0 2.863312,2.09031 2.863312,4.64516 0,2.7203 2.669637,5.44663 6.442451,6.57926 5.416556,1.62612 6.852794,0.9774 9.01929,-4.07371 1.417254,-3.30431 3.880303,-6.68556 5.473478,-7.51389 z m 21.503155,-17.19008 c 5.75111,-4.59335 5.65662,-24.66086 -0.17666,-37.54831 -3.25126,-7.18283 -4.55238,-8.00117 -10.11158,-6.35948 -7.11138,2.10004 -7.64072,5.88974 -4.5141,32.31768 1.93969,16.39531 5.39691,19.10226 14.80249,11.59011 z m 63.04458,-24.84075 c 5.80109,-10.1639 4.25703,-16.36014 -4.40627,-17.6822 -12.07327,-1.84241 -20.90395,1.84988 -20.90395,8.74041 0,9.45552 5.01841,14.76372 13.95769,14.76372 5.82586,0 8.9416,-1.59785 11.35253,-5.82193 z m 7.22523,206.59602 c -1.35887,-1.6809 -2.59339,-12.3136 -2.74337,-23.6281 -0.15002,-11.3145 -0.47211,-27.00048 -0.71583,-34.85776 l -0.44313,-14.28597 -25.46347,0 c -24.64495,0 -28.93946,-1.22455 -28.93946,-8.25194 0,-0.56144 11.66162,-0.87225 25.91469,-0.69062 14.25309,0.18158 26.47954,-0.12062 27.16988,-0.67184 1.99816,-1.59512 3.56305,-16.38564 2.06623,-19.52897 -0.7483,-1.57144 -3.72362,-2.85719 -6.61185,-2.85719 -2.88823,0 -6.13263,-1.13839 -7.20985,-2.52978 -1.37495,-1.77601 -2.64959,-1.63721 -4.27772,0.46579 -3.60002,4.65001 -16.09704,-1.70384 -19.73449,-10.03361 -5.99094,-13.71908 -1.50302,-46.55204 7.32839,-53.61352 4.63673,-3.70747 46.38166,-7.36612 54.99803,-4.8202 3.64588,1.07727 9.30204,1.95867 12.56925,1.95867 10.37416,0 13.54126,6.53691 13.63894,28.15077 0.107,23.69954 -6.11393,35.85037 -18.35481,35.85037 -5.12608,0 -16.23504,4.55115 -19.52767,8.00015 -3.2539,3.40838 -0.34683,17.47176 4.0667,19.67322 2.11313,1.05403 10.52774,1.29605 18.69912,0.53781 17.22797,-1.59863 24.37669,-0.0747 22.07845,4.70619 -1.24175,2.58327 -6.20992,3.2742 -21.1667,2.9437 -10.74921,-0.23761 -20.27522,0.14423 -21.16891,0.84828 -1.61127,1.26943 -1.87184,5.62033 -2.3187,38.72055 -0.38674,28.645 -0.74928,31.6641 -4.12711,34.366 -2.4359,1.9484 -3.87824,1.8346 -5.72661,-0.452 z m 19.00417,-110.48678 c 0,-1.88575 1.68476,-3.42864 3.74392,-3.42864 3.67484,0 15.19894,-17.64057 12.78365,-19.56866 -0.67754,-0.54089 -7.25041,-1.642 -14.60637,-2.44685 l -13.37445,-1.46341 0,10.66833 c 0,7.16599 1.35066,11.08206 4.11418,11.92862 2.26278,0.69318 3.41344,2.71808 2.55697,4.49979 -0.85648,1.78169 -0.13082,3.23947 1.61244,3.23947 1.74332,0 3.16966,-1.54289 3.16966,-3.42865 z m -23.47942,-16.57173 -0.85873,-13.14309 -13.60074,-0.69666 -13.60073,-0.69668 0,8.75966 c 0,12.39339 6.52543,18.91986 18.91678,18.91986 l 10.00213,0 -0.85871,-13.14309 z m -5.86952,-21.56834 c 5.6925,-0.0516 6.44244,-1.22767 6.44244,-10.10258 0,-9.94778 -0.0956,-10.04409 -9.98317,-10.04409 -8.76698,0 -10.51107,1.00861 -14.31656,8.27926 -6.55993,12.53328 -5.80667,15.4092 3.54073,13.51859 4.33074,-0.87595 10.7732,-1.61899 14.31656,-1.65118 z m 45.21472,-5.86071 c -2.50692,-11.01145 -10.28139,-17.56924 -18.39258,-15.5141 -5.09577,1.29109 -6.06314,3.33508 -6.06314,12.81094 l 0,11.27474 13.20356,0 13.20357,0 -1.95141,-8.57158 z m -11.93007,-41.0051 c -4.62681,-0.72473 -6.4489,-3.11384 -7.60002,-9.96495 -1.48561,-8.84197 0.005,-32.35928 2.43523,-38.36448 2.21647,-5.48183 8.35524,-1.33578 9.81901,6.63166 2.47823,13.48902 20.04318,10.95722 20.04318,-2.88899 0,-5.19129 1.15423,-6.56881 5.0108,-5.98022 4.24472,0.64785 5.138,3.85826 5.84285,20.999 1.21409,29.52484 -4.65627,34.40724 -35.55105,29.56798 z m 21.85188,-14.47719 c 3.86283,-11.4518 2.2115,-13.6618 -10.20837,-13.6618 -9.32035,0 -9.8526,0.4252 -9.8526,7.87056 0,5.54199 1.88273,8.92324 6.36374,11.42877 9.0992,5.08776 10.23752,4.61926 13.69723,-5.63753 z"
       id="path3067"
       inkscape:connector-curvature="0" />
  </g>
</svg>
