<?xml version="1.0" encoding="UTF-8" standalone="no"?>
<!-- Created with Inkscape (http://www.inkscape.org/) -->

<svg
   xmlns:dc="http://purl.org/dc/elements/1.1/"
   xmlns:cc="http://creativecommons.org/ns#"
   xmlns:rdf="http://www.w3.org/1999/02/22-rdf-syntax-ns#"
   xmlns:svg="http://www.w3.org/2000/svg"
   xmlns="http://www.w3.org/2000/svg"
   xmlns:sodipodi="http://sodipodi.sourceforge.net/DTD/sodipodi-0.dtd"
   xmlns:inkscape="http://www.inkscape.org/namespaces/inkscape"
   width="300"
   height="300"
   id="svg2"
   version="1.1"
   inkscape:version="0.48.4 r9939"
   sodipodi:docname="image-seal.svg">
  <defs
     id="defs4" />
  <sodipodi:namedview
     id="base"
     pagecolor="#ffffff"
     bordercolor="#666666"
     borderopacity="1.0"
     inkscape:pageopacity="0.0"
     inkscape:pageshadow="2"
     inkscape:zoom="1.979899"
     inkscape:cx="130.93154"
     inkscape:cy="137.35134"
     inkscape:document-units="px"
     inkscape:current-layer="layer1"
     showgrid="false"
     inkscape:window-width="1215"
     inkscape:window-height="1000"
     inkscape:window-x="65"
     inkscape:window-y="24"
     inkscape:window-maximized="1"
     fit-margin-top="10"
     fit-margin-left="10"
     fit-margin-right="10"
     fit-margin-bottom="10" />
  <metadata
     id="metadata7">
    <rdf:RDF>
      <cc:Work
         rdf:about="">
        <dc:format>image/svg+xml</dc:format>
        <dc:type
           rdf:resource="http://purl.org/dc/dcmitype/StillImage" />
        <dc:title />
      </cc:Work>
    </rdf:RDF>
  </metadata>
  <g
     inkscape:label="Calque 1"
     inkscape:groupmode="layer"
     id="layer1"
     transform="translate(0,-752.36218)">
    <path
       style="fill:#000000"
       d="m 110.6248,1039.3939 c -6.91543,-10.5543 -11.425461,-29.3475 -13.240941,-55.17469 -1.394536,-19.83905 -0.871034,-26.62381 2.794841,-36.2228 2.48095,-6.49625 5.58804,-11.81134 6.90466,-11.81134 1.31661,0 2.39383,-1.91739 2.39383,-4.26088 0,-2.34344 2.15047,-6.16011 4.77883,-8.48147 10.7016,-9.4516 11.18256,-23.97581 1.34552,-40.63292 -2.55428,-4.32517 -3.63995,-4.57292 -7.17663,-1.63773 -4.66567,3.87215 -5.54537,12.09818 -1.55741,14.56287 1.43533,0.88708 2.60969,3.30511 2.60969,5.37339 0,4.29509 -11.824063,5.24314 -14.353265,1.15083 -2.910398,-4.70912 -5.860829,-2.75442 -10.454633,6.92631 -6.052615,12.75493 -11.727688,40.74098 -11.727688,57.83398 0,11.70335 -2.542224,21.41917 -6.904679,26.38816 -0.538064,0.6129 -2.585336,-1.0834 -4.549489,-3.76953 -3.652646,-4.99533 -3.516629,-9.94276 1.199411,-43.62711 2.508141,-17.9143 7.582909,-35.8014 14.421197,-50.83048 3.397496,-7.467 3.345564,-9.46413 -0.475014,-18.26781 -2.359234,-5.43636 -4.350686,-16.50836 -4.425426,-24.60444 -0.154486,-16.72896 5.370497,-25.89402 22.044399,-36.56839 5.959977,-3.81547 9.510437,-8.09229 9.417287,-11.34387 -0.70094,-24.46869 0.85788,-37.84044 4.41125,-37.84044 6.4573,0 9.53195,9.48529 7.65676,23.62117 l -1.74948,13.18821 13.06842,-1.73359 c 13.99219,-1.85615 19.02513,1.01841 12.75723,7.28628 -2.57532,2.57533 -3.55956,9.96111 -3.37045,25.29184 0.25939,21.02862 0.0352,21.86149 -7.75912,28.82574 l -8.02628,7.17148 5.04445,10.15442 c 2.77447,5.58498 5.61687,16.8409 6.31651,25.01322 1.1903,13.90395 0.74402,15.41125 -6.94529,23.45735 -12.18942,12.75507 -15.5961,23.34005 -15.5961,48.4589 0,16.42997 1.56185,26.69144 6.00884,39.47904 8.35559,24.0268 5.31866,38.1607 -4.86123,22.6243 z m -8.35673,-170.40822 c 3.14588,-3.55754 3.7687,-8.88846 2.81771,-24.11856 -0.67145,-10.75339 -1.63112,-19.9619 -2.13257,-20.46335 -0.50145,-0.50145 -3.380243,-0.12834 -6.397299,0.82933 -12.501539,3.96782 -17.632858,23.58004 -10.428065,39.85676 4.160438,9.3991 10.022441,10.81402 16.140224,3.89582 z m 25.11664,-31.09906 c 3.07241,-15.29871 3.846,-26.96643 1.78789,-26.96643 -0.65011,0 -4.17319,1.36284 -7.82903,3.02856 -6.07791,2.76929 -6.64701,4.40778 -6.64701,19.13771 0,8.86001 0.7829,16.89202 1.73979,17.84889 4.66798,4.66797 8.247,0.40232 10.94836,-13.04873 z m 47.33461,197.45488 c -22.19804,-3.9384 -33.385,-16.4031 -33.95097,-37.82886 -0.15159,-5.74128 -1.11004,-15.13615 -2.12975,-20.87747 -1.89381,-10.6627 1.48595,-33.19273 6.10872,-40.72186 3.72013,-6.05901 14.44938,-8.16976 47.77815,-9.39928 19.84144,-0.73199 30.73113,-0.1097 33.14557,1.89416 9.89957,8.21589 10.15104,83.00301 0.32284,96.00451 -6.29328,8.3252 -33.39288,14.1013 -51.27456,10.9288 z m 28.07728,-12.8564 c 14.09675,-4.0428 16.52512,-8.5285 19.59568,-36.19609 2.26844,-20.44018 2.11722,-27.86956 -0.76597,-37.63436 l -3.59237,-12.16662 -15.78552,-1.586 c -23.68345,-2.37957 -46.32782,2.54043 -49.47821,10.75019 -2.5792,6.72126 -4.52482,45.81973 -2.79084,56.08318 0.91308,5.4044 4.6645,12.8305 8.33652,16.5025 5.57818,5.5783 9.08903,6.6765 21.34347,6.6765 8.06689,0 18.47865,-1.0932 23.13724,-2.4293 z m -31.33939,-22.88649 c -3.83995,-0.97856 -4.56696,-4.27877 -4.56696,-20.73151 0,-13.4791 1.16005,-20.72774 3.72813,-23.29581 5.40391,-5.4039 31.10511,-5.0093 35.7176,0.54841 3.96667,4.77956 6.82077,42.54231 3.24689,42.95971 -9.61663,1.12309 -34.4298,1.46109 -38.12566,0.5192 z m 23.0597,-7.99771 c 5.11219,-3.45781 8.16373,-17.17127 5.79824,-26.05688 -2.70763,-10.17076 -10.75425,-11.3911 -21.1566,-3.20858 -5.6584,4.4509 -6.49226,6.79012 -5.34883,15.00567 0.745,5.35305 1.80476,11.20074 2.35502,12.99492 1.08053,3.52327 13.7248,4.39475 18.35217,1.26487 z m 28.40908,-76.07039 c -9.12384,-8.85721 -24.61252,-15.88105 -35.02015,-15.88105 -5.57803,0 -10.53334,0.93614 -11.01179,2.08027 -0.91989,2.19981 -20.31632,11.64373 -30.22884,14.71811 -4.65835,1.44478 -5.8718,0.80334 -5.8718,-3.10385 0,-3.59025 5.65796,-7.61176 20.87748,-14.839 14.67945,-6.97078 20.87748,-11.30695 20.87748,-14.60604 0,-2.58062 -1.46795,-5.37704 -3.26211,-6.21435 -2.59564,-1.21128 -2.58614,-1.83647 0.0467,-3.06016 1.81979,-0.8458 4.96203,-3.19114 6.98274,-5.21184 6.28245,-6.28246 11.69071,-1.86793 10.0556,8.20796 -1.36768,8.42798 -0.85926,9.14488 9.98343,14.07798 21.21707,9.65306 32.28292,17.39241 33.13587,23.17487 0.65337,4.42943 -0.49241,5.65354 -5.29185,5.65354 -3.3692,0 -8.44191,-2.24841 -11.27268,-4.99644 z M 139.44687,878.7045 c -2.07805,-3.36234 3.24249,-7.73153 19.61432,-16.10703 12.91559,-6.60738 24.06389,-16.30476 21.58923,-18.77944 -0.86991,-0.86989 -3.65548,-1.58163 -6.1902,-1.58163 -2.5347,0 -5.35401,-2.34872 -6.26513,-5.21937 -2.26217,-7.12751 -4.86953,-6.57037 -12.10224,2.58601 -11.51133,14.57296 -17.54636,6.71622 -7.49899,-9.76265 7.06722,-11.59106 18.59802,-11.88919 25.23573,-0.65242 2.54361,4.30599 5.42027,7.82906 6.39256,7.82906 3.42317,0 4.9134,-8.3554 3.2952,-18.47518 l -1.63607,-10.23135 -14.67215,-0.0399 c -8.06967,-0.0209 -16.42386,-1.14746 -18.56485,-2.50102 -7.1387,-4.51324 1.29017,-8.41971 18.16706,-8.41971 10.54229,0 16.5368,-1.13531 17.36302,-3.28846 1.4682,-3.82606 3.15524,-15.80773 3.41357,-24.24371 0.12322,-4.02275 1.78416,-5.87179 5.27465,-5.87179 4.42702,0 5.19668,2.13799 5.87179,16.31054 l 0.77696,16.31052 14.35326,0.67651 c 19.40797,0.91474 26.09685,2.67246 26.09685,6.85786 0,2.66443 -4.94984,3.48855 -20.35734,3.38931 -11.19656,-0.072 -21.76577,0.7394 -23.48718,1.80328 -3.48401,2.15322 -4.37544,25.11348 -0.97502,25.11348 1.18511,0 4.9129,-2.93591 8.28396,-6.52422 3.37102,-3.58833 8.56677,-6.4871 11.54604,-6.44175 7.19839,0.1097 19.77016,11.41642 19.77016,17.78094 0,8.2077 -6.44887,8.2842 -11.9042,0.14115 -2.78232,-4.15299 -5.73482,-7.55427 -6.56111,-7.55841 -2.23949,-0.0107 -13.91806,12.87118 -12.64372,13.94701 0.60372,0.50966 9.61176,5.93275 20.01787,12.05129 12.86707,7.5655 18.92022,12.6993 18.92022,16.04658 0,2.70705 -1.69441,4.92195 -3.76535,4.92195 -4.27407,0 -23.18218,-10.50469 -24.50622,-13.61478 -0.47847,-1.12385 -2.35316,-2.04333 -4.16604,-2.04333 -1.81284,0 -7.00133,-1.84842 -11.52999,-4.10763 -8.11156,-4.04657 -8.51848,-3.93481 -27.38961,7.52212 -22.21474,13.4869 -29.28264,16.19598 -31.76704,12.17614 z"
       id="path3067"
       inkscape:connector-curvature="0" />
  </g>
</svg>
