<?xml version="1.0" encoding="UTF-8" standalone="no"?>
<!-- Created with Inkscape (http://www.inkscape.org/) -->
<svg
   xmlns:dc="http://purl.org/dc/elements/1.1/"
   xmlns:cc="http://web.resource.org/cc/"
   xmlns:rdf="http://www.w3.org/1999/02/22-rdf-syntax-ns#"
   xmlns:svg="http://www.w3.org/2000/svg"
   xmlns="http://www.w3.org/2000/svg"
   xmlns:sodipodi="http://sodipodi.sourceforge.net/DTD/sodipodi-0.dtd"
   xmlns:inkscape="http://www.inkscape.org/namespaces/inkscape"
   width="300"
   height="300"
   id="svg2"
   sodipodi:version="0.32"
   inkscape:version="0.45.1"
   version="1.0"
   sodipodi:docbase="C:\Documents and Settings\Martin\桌面"
   sodipodi:docname="drawing.svg"
   inkscape:output_extension="org.inkscape.output.svg.inkscape">
  <defs
     id="defs4" />
  <sodipodi:namedview
     id="base"
     pagecolor="#ffffff"
     bordercolor="#666666"
     borderopacity="1.0"
     gridtolerance="10000"
     guidetolerance="10"
     objecttolerance="10"
     inkscape:pageopacity="0.0"
     inkscape:pageshadow="2"
     inkscape:zoom="0.98994949"
     inkscape:cx="197.08483"
     inkscape:cy="137.985"
     inkscape:document-units="px"
     inkscape:current-layer="layer1"
     width="300px"
     height="300px"
     inkscape:window-width="742"
     inkscape:window-height="577"
     inkscape:window-x="50"
     inkscape:window-y="0" />
  <metadata
     id="metadata7">
    <rdf:RDF>
      <cc:Work
         rdf:about="">
        <dc:format>image/svg+xml</dc:format>
        <dc:type
           rdf:resource="http://purl.org/dc/dcmitype/StillImage" />
      </cc:Work>
    </rdf:RDF>
  </metadata>
  <g
     inkscape:label="Layer 1"
     inkscape:groupmode="layer"
     id="layer1">
    <path
       style="fill:#000000"
       d="M 115.72875,287.09181 C 113.88484,284.10828 117.38086,276.29556 127.12399,261.62634 C 135.86431,248.46696 142.67563,232.60499 146.40832,216.71766 C 150.05591,201.19259 149.52352,200.58868 130.18582,198.31593 C 114.87269,196.51616 99.017441,187.22843 93.698164,176.9421 C 88.991049,167.83953 89.506931,140.06183 94.665834,124.83776 C 98.970771,112.13377 101.43295,109.89006 107.12196,113.48692 C 110.10027,115.36995 110.14431,119.27371 107.42756,140.59163 C 104.34455,164.78365 104.40067,165.64346 109.38815,170.63094 C 116.73722,177.98001 135.80916,182.56227 145.83734,179.38831 C 152.11819,177.40039 153.82247,175.49985 153.95562,170.33516 C 154.04833,166.73983 154.62518,160.49597 155.23755,156.45994 C 155.84991,152.42391 155.69698,142.34021 154.89767,134.05176 C 153.62283,120.83205 152.27617,117.75371 143.92942,108.97946 C 129.21485,96.502554 113.63984,89.713496 105.6452,70.370565 C 101.82993,52.053708 103.32423,34.38292 109.22394,28.050334 C 113.5581,21.802306 116.65319,17.7711 123.57862,14.249156 C 130.18447,11.114475 138.13963,10.099798 154.15634,10.348975 C 174.01117,10.65786 176.70389,11.304028 186.64838,18.146016 C 201.27727,28.210968 208.17489,38.552537 209.36343,52.202678 C 211.16923,72.941839 198.95629,86.632368 175.51369,90.147802 C 166.94614,91.432594 163.59999,90.951566 161.22864,88.094291 C 156.36251,82.230961 159.73344,77.954277 172.97396,73.193056 C 182.94766,69.606556 185.98745,67.086463 189.35934,59.608924 C 192.96492,51.613238 193.06904,49.456185 190.16602,42.897798 C 186.1657,33.860467 174.86111,28.002486 158.24427,26.356098 C 144.14039,24.958694 124.95813,29.874774 123.22656,35.330535 C 118.03339,49.920687 120.53727,59.741807 126.68715,71.604139 C 128.25274,75.383788 132.63057,80.305609 136.41566,82.541519 C 140.20076,84.777428 149.22408,92.170822 156.46744,98.971271 L 169.63725,111.33571 C 171.55908,131.51503 170.58794,150.51571 167.62199,170.52489 C 166.92956,178.93327 165.21398,191.8669 163.80962,199.26629 C 162.40521,206.66566 160.55476,216.85766 159.69743,221.91516 C 153.67192,243.93567 143.57686,265.06227 131.08348,284.26745 C 125.6809,290.14838 118.44086,291.4801 115.72875,287.09181 z "
       id="path2252"
       sodipodi:nodetypes="cssssssssssssccccsssssssssccscccsccc" />
  </g>
</svg>
