<?xml version="1.0" encoding="UTF-8" standalone="no"?>
<svg
   xmlns:dc="http://purl.org/dc/elements/1.1/"
   xmlns:cc="http://creativecommons.org/ns#"
   xmlns:rdf="http://www.w3.org/1999/02/22-rdf-syntax-ns#"
   xmlns:svg="http://www.w3.org/2000/svg"
   xmlns="http://www.w3.org/2000/svg"
   viewBox="0 0 300 300"
   height="300"
   width="300"
   id="svg76"
   version="1.1">
  <metadata
     id="metadata82">
    <rdf:RDF>
      <cc:Work
         rdf:about="">
        <dc:format>image/svg+xml</dc:format>
        <dc:type
           rdf:resource="http://purl.org/dc/dcmitype/StillImage" />
        <dc:title></dc:title>
      </cc:Work>
    </rdf:RDF>
  </metadata>
  <defs
     id="defs80" />
  <path
     d="m 128.66852,15.488561 c -12.2838,0.449094 -20.99097,1.187526 -25.88003,2.112369 -24.706384,4.673603 -22.630747,28.295905 -17.641194,46.275835 2.976453,10.725696 4.449648,17.969898 10.551606,16.619502 6.439908,-1.425187 3.704992,-9.644243 0.872895,-20.08064 -7.532335,-27.75696 0.984607,-32.879418 27.291603,-33.729284 3.42171,18.564127 7.92678,30.160535 18.68654,43.467154 3.53283,4.369062 9.61706,11.651883 14.54865,8.350997 4.46677,-2.989765 -1.03343,-9.865867 -4.40173,-14.01588 -9.54965,-11.765961 -13.58979,-23.06476 -16.73242,-38.041146 l 31.15158,-0.49118 c 3.07243,22.997963 15.94915,38.345261 32.56637,51.814695 4.00197,3.243887 12.89737,9.372612 16.97697,4.969224 3.04519,-3.286866 1.08138,-6.62354 -7.83511,-13.364577 -16.48556,-12.463404 -27.18668,-25.975457 -29.83894,-43.68326 0,0 5.4277,-0.06823 14.40523,-0.06823 5.76887,-0.253303 18.51932,0.854082 18.34364,-4.670286 -0.20523,-6.453632 -13.5945,-5.946212 -38.23406,-5.943527 -14.59847,0.0016 -30.67855,-0.0392 -44.8316,0.47823 z M 150.523,81.008176 c -19.0103,-0.213626 -43.55052,8.00207 -43.81773,29.675984 -0.26533,21.52087 21.30932,31.90832 39.56651,32.48159 -0.39526,11.9925 -1.20395,20.35772 -1.66126,31.03129 -22.17101,-0.28166 -46.055924,-5.41839 -46.105553,-27.01233 -0.01015,-4.41408 0.803563,-12.14838 -5.777163,-11.91562 -4.992004,0.17657 -5.294739,6.83539 -5.305803,11.75795 -0.07793,34.67533 33.849539,38.97662 56.319499,39.83982 -1.26649,20.28543 -6.65079,58.86932 -12.93694,81.05348 -1.44116,5.08594 -3.36694,15.38063 1.05988,16.85813 5.85689,1.9548 9.2109,-9.53447 10.57299,-14.54246 6.43961,-23.67642 11.45765,-52.25846 12.82832,-69.50088 34.30729,0.0886 57.02083,-21.98259 57.65572,-56.32167 0.0977,-5.28362 -0.15219,-16.47231 -5.78834,-16.62377 -6.2291,-0.16739 -6.90578,8.56117 -7.11373,14.02376 -1.11499,29.28966 -15.30762,46.51246 -43.84523,46.93074 1.00384,-16.66071 2.20112,-32.30638 2.43971,-46.06272 17.48786,-0.39533 34.59436,-12.14233 34.59737,-32.42854 0.003,-21.972227 -23.51379,-29.029284 -42.68825,-29.244754 z m -0.16191,11.621005 c 13.74465,0.362536 31.01563,5.009924 31.05047,17.525429 0.0409,14.69498 -14.60691,21.70798 -29.33494,21.73157 -15.09703,0.0242 -33.91901,-5.3454 -33.9527,-21.51997 -0.0289,-13.894295 20.96029,-17.909025 32.23717,-17.737029 z"
     style="fill:#000000;stroke-width:0.6926502"
     id="path86" />
</svg>
