<?xml version="1.0" encoding="UTF-8" standalone="no"?>
<svg
   xmlns:dc="http://purl.org/dc/elements/1.1/"
   xmlns:cc="http://creativecommons.org/ns#"
   xmlns:rdf="http://www.w3.org/1999/02/22-rdf-syntax-ns#"
   xmlns:svg="http://www.w3.org/2000/svg"
   xmlns="http://www.w3.org/2000/svg"
   viewBox="0 0 300 300"
   height="300"
   width="300"
   id="svg170"
   version="1.1">
  <metadata
     id="metadata176">
    <rdf:RDF>
      <cc:Work
         rdf:about="">
        <dc:format>image/svg+xml</dc:format>
        <dc:type
           rdf:resource="http://purl.org/dc/dcmitype/StillImage" />
        <dc:title></dc:title>
      </cc:Work>
    </rdf:RDF>
  </metadata>
  <defs
     id="defs174" />
  <path
     id="path180"
     d="m 137.85476,282.41735 c -0.89355,-5.40593 -0.36118,-11.67428 2.01558,-23.73238 2.08406,-10.57317 4.63916,-27.45443 4.2133,-27.83675 -0.0705,-0.0633 -5.32792,-0.77423 -11.68312,-1.57982 -6.35521,-0.80559 -13.19801,-2.07947 -15.20622,-2.83084 -9.56543,-3.57888 -14.21009,-11.7983 -14.19235,-25.1155 0.008,-5.42987 0.70852,-10.94895 1.49062,-11.73106 0.14204,-0.14204 1.51725,-0.45957 3.05602,-0.70563 2.78736,-0.44572 2.80225,-0.43624 4.00311,2.55112 0.66294,1.64917 1.63451,6.04092 2.15905,9.75944 0.52454,3.71852 1.4637,7.83569 2.08703,9.14926 1.48135,3.12171 5.19653,6.1319 8.82017,7.14646 2.81215,0.78735 18.57937,1.34707 19.24332,0.68311 0.1813,-0.1813 0.5528,-4.43472 0.82553,-9.45205 0.44434,-8.17379 0.37923,-9.12242 -0.62602,-9.12242 -2.30581,0 -14.07265,-4.1976 -19.38915,-6.91672 -9.07207,-4.63989 -11.36367,-7.65972 -11.36367,-14.97479 0,-8.60595 2.70023,-13.42159 10.74446,-19.16183 9.12911,-6.51441 17.4832,-8.25124 29.89527,-6.21532 17.17136,2.81657 29.34362,9.46081 30.71394,16.76522 0.78624,4.19103 -0.14035,10.76982 -2.17094,15.41364 -2.80771,6.42104 -4.87505,7.86328 -18.21839,12.70971 l -7.92014,2.87666 -0.18866,11.42543 -0.18869,11.42545 2.48999,0.46712 c 3.84214,0.72079 8.66636,-0.11525 14.37271,-2.49082 7.50719,-3.12525 10.57034,-8.18462 12.4229,-20.51877 1.1455,-7.62662 2.21823,-10.42821 4.64337,-12.12685 2.33969,-1.63878 3.61886,-1.30337 4.84637,1.27077 3.72276,7.80669 2.72312,19.05519 -2.63755,29.67925 -1.31677,2.60965 -3.10672,4.47751 -7.39144,7.71324 -7.92376,5.98384 -11.03749,7.21645 -19.61385,7.76439 -5.69974,0.36416 -7.34266,0.7132 -8.40219,1.78507 -1.08333,1.09596 -1.69141,4.34045 -3.42655,18.28287 -2.18371,17.54675 -3.15194,22.08476 -5.5394,25.96302 -1.45448,2.36268 -4.93313,4.26297 -7.80375,4.26297 -1.37601,0 -1.72548,-0.43379 -2.08066,-2.58265 z m 25.28509,-96.11276 c 2.20308,-1.0086 5.21865,-2.79458 6.70126,-3.96884 2.56755,-2.03353 2.69556,-2.32049 2.6931,-6.03721 -0.004,-6.78025 -3.12616,-9.8464 -12.459,-12.23736 -8.6027,-2.20392 -18.55261,-1.15046 -27.0257,2.86136 -7.73315,3.66147 -9.61958,7.6883 -6.20703,13.24965 1.79069,2.91824 2.47224,3.40653 6.79678,4.86962 11.58261,3.91867 22.66333,4.39298 29.50059,1.26278 z m -89.750362,44.66388 c -2.843034,-3.42565 -3.337801,-11.94056 -2.081759,-35.82691 1.105546,-21.02417 2.60936,-30.77757 6.857319,-44.47493 1.963254,-6.33042 2.190064,-6.69998 6.022585,-9.81304 14.417045,-11.71065 30.109717,-14.68976 74.118597,-14.07071 24.25377,0.34116 30.68519,0.93 42.10197,3.85471 11.69636,2.99633 21.02771,11.84437 25.16092,23.85777 2.98479,8.67544 3.75687,18.18997 3.77192,46.48234 0.0162,30.52009 0.0201,30.49591 -4.94694,30.85744 -4.59214,0.33424 -5.21085,-1.48068 -5.82379,-17.08329 -1.2422,-31.62097 -2.00428,-44.07147 -2.96995,-48.52189 -2.54827,-11.74397 -6.88421,-18.73738 -13.64582,-22.00928 -4.47827,-2.167 -18.03957,-4.90361 -29.56833,-5.96676 -13.30287,-1.22674 -48.31379,-0.44708 -57.77062,1.28649 -10.94765,2.00688 -18.41344,4.68632 -21.05004,7.5548 -5.431394,5.90904 -9.383065,17.27456 -10.522668,30.26453 -0.391906,4.46712 -0.715746,17.32753 -0.719652,28.57869 -0.0047,13.81614 -0.261643,21.01529 -0.791245,22.17762 -0.771248,1.69271 -4.300987,3.85348 -6.294866,3.85348 -0.559258,0 -1.390693,-0.45047 -1.847631,-1.00106 z M 90.236263,118.73164 c -7.776836,-1.77854 -9.7505,-2.92881 -12.330308,-7.18616 -1.295673,-2.1382 -2.980559,-5.74863 -3.744185,-8.0232 C 71.186947,94.66145 70.952449,91.290092 70.952449,57.38221 V 25.012962 l 1.721768,-3.443536 c 2.214904,-4.429795 4.466283,-4.937227 7.673917,-1.7296 l 2.151048,2.151055 -0.525259,6.676347 c -1.048792,13.330847 -0.441824,14.69407 6.746248,15.151772 2.401731,0.152931 6.613643,-0.07056 9.359808,-0.496638 6.196451,-0.961412 9.600431,-0.183013 12.078511,2.762025 4.52855,5.381868 0.63916,8.032277 -12.449966,8.483984 -4.488526,0.154899 -9.788046,0.309024 -11.776681,0.342499 l -3.615715,0.06086 0.01053,9.469727 c 0.0057,5.20835 0.297273,9.923044 0.647708,10.477099 0.504353,0.797384 3.169927,1.084508 12.787624,1.377415 l 12.15046,0.370042 2.00904,2.249165 c 5.07314,5.679503 0.60081,7.866377 -16.372385,8.005757 -7.384019,0.0606 -9.346581,0.281104 -9.869944,1.10875 -0.966049,1.527726 -0.813649,5.658335 0.406753,11.024035 l 1.081095,4.75321 3.859059,1.44387 c 2.394061,0.89572 6.624395,1.64716 11.143462,1.97939 8.24786,0.60636 11.13731,1.73587 12.43113,4.85941 1.15829,2.79636 0.6316,3.83163 -2.87488,5.65087 -3.7024,1.92091 -13.2918,2.40859 -19.489531,0.99117 z m 103.994817,0.17658 c -4.73201,-0.72796 -6.54851,-2.2977 -6.53218,-5.64483 0.0182,-3.72445 0.46394,-3.9245 10.29906,-4.62186 9.12629,-0.6471 13.76552,-1.88197 15.64911,-4.1655 0.45149,-0.54735 1.40564,-4.43685 2.12031,-8.64333 l 1.29943,-7.648128 -3.07733,-0.421798 c -1.69253,-0.231984 -7.38831,-0.421792 -12.6573,-0.421792 -7.30027,0 -10.07055,-0.253686 -11.64149,-1.066051 -2.38171,-1.231622 -3.61284,-3.880632 -3.03219,-6.524304 0.40354,-1.837393 0.42509,-1.843136 9.87849,-2.635185 5.21073,-0.436579 12.0147,-0.793779 15.11993,-0.793779 h 5.64586 V 65.700359 55.079054 l -12.91327,-0.244603 c -9.05545,-0.171527 -13.46517,-0.522874 -14.76067,-1.17606 -3.58853,-1.80934 -4.24498,-7.773701 -0.94669,-8.601519 2.50692,-0.629199 16.81237,-1.780853 22.20088,-1.787273 6.92204,-0.0082 7.10845,-0.270892 7.10845,-10.015507 0,-9.130719 1.72392,-15.472558 4.20596,-15.472558 2.07036,0 4.51059,1.898247 5.49483,4.274419 1.29454,3.12528 1.31944,65.444726 0.0293,73.205167 -1.38817,8.34987 -3.88817,15.61072 -6.09894,17.71339 -3.10243,2.95075 -8.41136,5.19318 -14.18373,5.99106 -6.08861,0.8416 -7.40141,0.83589 -13.20778,-0.0574 z m -71.17031,-7.37936 c -0.68797,-0.43607 -0.80199,-1.54617 -0.44897,-4.3716 0.46708,-3.73841 0.5823,-3.89598 8.95999,-12.25356 l 8.48683,-8.466454 -7.28576,-6.951736 c -8.23117,-7.853809 -10.50049,-11.590809 -10.49483,-17.282348 0.002,-1.893946 0.38626,-4.12155 0.85415,-4.950233 0.46791,-0.828683 4.62856,-4.958026 9.24589,-9.176318 l 8.39517,-7.66962 -4.60727,-4.005255 c -6.50445,-5.654531 -10.26339,-9.697737 -11.10998,-11.95014 -0.93954,-2.4997 -0.92765,-5.479937 0.0303,-7.582338 0.65321,-1.433666 1.06109,-1.597365 2.92701,-1.174725 4.09429,0.927387 7.00233,2.974426 14.05728,9.895285 l 7.06831,6.933973 3.60665,-3.45888 C 160.1084,22.003702 164.03463,18.904972 168.06019,16.97802 L 172.19243,15 l 1.5496,1.773526 c 1.62118,1.855463 1.96459,4.078684 0.90035,5.82896 -0.34546,0.568184 -4.4007,4.768889 -9.01162,9.334901 l -8.3835,8.30184 3.87987,2.929333 c 5.72498,4.322399 11.59845,10.321166 13.79365,14.087917 l 1.93357,3.317803 -1.51731,5.291039 c -1.4924,5.204213 -1.64738,5.422065 -9.44412,13.275578 l -7.92683,7.98454 7.54678,6.607683 c 5.65845,4.95435 7.99832,7.51386 9.35146,10.22926 0.99259,1.99186 1.8047,4.22386 1.8047,4.96 0,1.87616 -1.97459,3.1644 -4.88979,3.19016 -2.89863,0.0256 -4.54899,-1.10538 -15.41505,-10.56393 l -7.56374,-6.584 -7.58782,7.46124 c -4.17329,4.10369 -8.57966,7.9669 -9.79191,8.58492 -2.35635,1.2013 -6.84336,1.47937 -8.35995,0.51809 z m 34.63526,-40.68828 8.37906,-7.137439 -5.55017,-5.285518 c -3.05259,-2.907036 -6.82306,-6.417266 -8.37881,-7.800513 l -2.82864,-2.514994 -8.43662,7.732364 -8.43663,7.732363 7.82173,7.383357 c 4.30195,4.060846 8.09832,7.303359 8.43638,7.205586 0.33805,-0.09777 4.38523,-3.389615 8.9937,-7.315206 z"
     style="fill:#000000;stroke-width:0.68870741" />
</svg>
