<?xml version="1.0" encoding="UTF-8" standalone="no"?>
<!-- Created with Inkscape (http://www.inkscape.org/) -->

<svg
   xmlns:dc="http://purl.org/dc/elements/1.1/"
   xmlns:cc="http://creativecommons.org/ns#"
   xmlns:rdf="http://www.w3.org/1999/02/22-rdf-syntax-ns#"
   xmlns:svg="http://www.w3.org/2000/svg"
   xmlns="http://www.w3.org/2000/svg"
   xmlns:sodipodi="http://sodipodi.sourceforge.net/DTD/sodipodi-0.dtd"
   xmlns:inkscape="http://www.inkscape.org/namespaces/inkscape"
   width="300"
   height="300"
   id="svg2"
   version="1.1"
   inkscape:version="0.48.3.1 r9886"
   sodipodi:docname="Nouveau document 1">
  <defs
     id="defs4" />
  <sodipodi:namedview
     id="base"
     pagecolor="#ffffff"
     bordercolor="#666666"
     borderopacity="1.0"
     inkscape:pageopacity="0.0"
     inkscape:pageshadow="2"
     inkscape:zoom="1.979899"
     inkscape:cx="226.21455"
     inkscape:cy="107.36786"
     inkscape:document-units="px"
     inkscape:current-layer="layer1"
     showgrid="false"
     inkscape:window-width="1215"
     inkscape:window-height="1000"
     inkscape:window-x="65"
     inkscape:window-y="24"
     inkscape:window-maximized="1" />
  <metadata
     id="metadata7">
    <rdf:RDF>
      <cc:Work
         rdf:about="">
        <dc:format>image/svg+xml</dc:format>
        <dc:type
           rdf:resource="http://purl.org/dc/dcmitype/StillImage" />
        <dc:title></dc:title>
      </cc:Work>
    </rdf:RDF>
  </metadata>
  <g
     inkscape:label="Calque 1"
     inkscape:groupmode="layer"
     id="layer1"
     transform="translate(0,-752.36218)">
    <path
       style="fill:#000000"
       d="m 140.07365,1029.5096 c -0.23235,-1.6555 -0.0908,-21.4822 0.31501,-44.05944 L 141.12634,944.40068 123.75518,931.31 c -20.58435,-15.51213 -25.996914,-18.25115 -27.474917,-13.90369 -10.479119,30.82377 -25.041994,57.32226 -31.502877,57.32226 -7.844283,0 -7.863271,-5.97664 -0.07725,-24.29979 11.221721,-26.40839 13.654026,-34.99449 16.308867,-57.57071 3.15198,-26.80371 3.216084,-85.44596 0.105866,-96.92023 -2.14619,-7.91794 -1.733343,-9.02983 3.35288,-9.02983 7.161538,0 12.799927,9.17575 15.140615,24.63943 0.967441,6.39132 2.952001,12.19748 4.410131,12.9026 3.70433,1.7913 27.54166,-8.69845 34.79977,-15.31388 3.30866,-3.01568 6.16898,-7.89624 6.35628,-10.84567 0.18742,-2.94944 0.59617,-12.67676 0.90863,-21.6163 0.5009,-14.331 1.27474,-16.2537 6.54149,-16.2537 8.91322,0 10.24587,3.43387 9.863,25.41468 -0.32702,18.77536 0.14864,20.35476 7.4939,24.87546 4.31374,2.65494 11.90813,6.23504 16.87645,7.95576 4.96835,1.72075 9.03333,3.94768 9.03333,4.94876 0,1.00109 2.76976,1.82015 6.15501,1.82015 3.38526,0 6.15501,-1.23087 6.15501,-2.73527 0,-5.39259 13.9226,-30.87312 17.47066,-31.97402 7.26593,-2.25447 9.80191,4.31956 5.46509,14.16719 -2.31493,5.25654 -4.46927,15.55055 -4.78739,22.87558 -0.31812,7.32503 -1.76957,14.52009 -3.22544,15.98902 -1.5038,1.51728 -0.63794,16.07715 2.00478,33.71138 4.91563,32.80116 6.44201,39.07121 16.83398,69.15029 7.38927,21.38792 6.27164,28.1091 -4.67415,28.1091 -5.57542,0 -7.91725,-1.65133 -9.39073,-6.62188 -1.07965,-3.64203 -4.56821,-14.18514 -7.75238,-23.42917 -3.18418,-9.24402 -5.78941,-20.35072 -5.78941,-24.68155 0,-5.60377 -1.41593,-7.87425 -4.91056,-7.87425 -4.95367,0 -19.28518,7.08933 -30.29166,14.98427 -3.28126,2.35366 -7.44897,4.27937 -9.26162,4.27937 -7.83277,0 -10.4263,10.74428 -12.54283,51.96182 -2.16496,42.16132 -3.96348,49.17232 -12.61401,49.17232 -2.33167,0 -4.42964,-1.3545 -4.66211,-3.0099 z m 16.58846,-105.95009 c 3.76735,-1.65547 9.1043,-4.90621 11.85986,-7.22387 2.75557,-2.31766 6.271,-4.21392 7.81206,-4.21392 1.54109,0 4.98344,-1.89627 7.64969,-4.21393 2.66623,-2.31765 9.32684,-6.11409 14.80135,-8.43649 9.51346,-4.03583 9.8542,-4.67475 7.70533,-14.44773 -1.23657,-5.62386 -2.44704,-16.64965 -2.68992,-24.50175 -0.27697,-8.95394 -1.86466,-14.64774 -4.2585,-15.27207 -2.09929,-0.54753 -10.88439,-5.50067 -19.52245,-11.00696 -28.82323,-18.37326 -25.25154,-17.73229 -44.13754,-7.92083 -9.25842,4.80984 -17.89344,8.77962 -19.18898,8.82174 -1.2955,0.0421 -4.84565,1.55419 -7.88921,3.36016 -4.57622,2.7154 -5.77823,7.95008 -6.94688,30.253 l -1.41316,26.96947 20.00282,15.42156 c 20.81446,16.04729 24.81876,17.41964 36.21553,12.41162 z"
       id="path2996"
       inkscape:connector-curvature="0" />
  </g>
</svg>
