<?xml version="1.0" encoding="UTF-8" standalone="no"?>
<!-- Created with Inkscape (http://www.inkscape.org/) -->

<svg
   xmlns:dc="http://purl.org/dc/elements/1.1/"
   xmlns:cc="http://creativecommons.org/ns#"
   xmlns:rdf="http://www.w3.org/1999/02/22-rdf-syntax-ns#"
   xmlns:svg="http://www.w3.org/2000/svg"
   xmlns="http://www.w3.org/2000/svg"
   xmlns:sodipodi="http://sodipodi.sourceforge.net/DTD/sodipodi-0.dtd"
   xmlns:inkscape="http://www.inkscape.org/namespaces/inkscape"
   width="300"
   height="300"
   id="svg2"
   version="1.1"
   inkscape:version="0.48.4 r9939"
   sodipodi:docname="image-seal.svg">
  <defs
     id="defs4" />
  <sodipodi:namedview
     id="base"
     pagecolor="#ffffff"
     bordercolor="#666666"
     borderopacity="1.0"
     inkscape:pageopacity="0.0"
     inkscape:pageshadow="2"
     inkscape:zoom="1.979899"
     inkscape:cx="145.62149"
     inkscape:cy="130.00722"
     inkscape:document-units="px"
     inkscape:current-layer="layer1"
     showgrid="false"
     inkscape:window-width="1215"
     inkscape:window-height="1000"
     inkscape:window-x="65"
     inkscape:window-y="24"
     inkscape:window-maximized="1"
     fit-margin-top="10"
     fit-margin-left="10"
     fit-margin-right="10"
     fit-margin-bottom="10" />
  <metadata
     id="metadata7">
    <rdf:RDF>
      <cc:Work
         rdf:about="">
        <dc:format>image/svg+xml</dc:format>
        <dc:type
           rdf:resource="http://purl.org/dc/dcmitype/StillImage" />
        <dc:title />
      </cc:Work>
    </rdf:RDF>
  </metadata>
  <g
     inkscape:label="Calque 1"
     inkscape:groupmode="layer"
     id="layer1"
     transform="translate(0,-752.36218)">
    <path
       style="fill:#000000"
       d="m 223.09011,1047.7091 c -7.79397,-13.542 -7.24859,-30.0339 -9.04187,-45.1505 -4.3787,-62.8658 -1.5051,-125.95009 -4.36834,-188.86075 2.4909,-14.40099 -14.16129,-14.22785 -24.04527,-16.3129 -25.37434,-4.77374 -51.68407,-6.43845 -77.2069,-1.92416 -11.230198,2.31997 -19.360385,9.20087 -18.47375,21.8617 -2.539828,29.51998 -2.287274,59.20353 -4.288899,88.76364 -1.584702,34.62747 -3.195224,69.39997 -8.73313,103.65667 -4.918933,9.177 1.553045,29.7665 -12.904905,29.8293 -3.32734,-12.0555 3.357388,-25.7635 3.108211,-38.5656 6.970238,-65.57547 10.793839,-131.4721 11.489967,-197.41168 -0.886414,-5.12499 5.392983,-6.90094 8.150752,-10.32277 7.061844,-7.00321 16.660614,-10.71721 26.587614,-10.36536 9.5916,-4.09241 31.24318,5.48702 31.13548,-9.6896 -2.60266,-12.32341 17.63245,-19.14887 15.36415,-2.87116 -2.39299,14.7047 14.66473,15.33529 24.83144,16.6644 13.6951,2.36824 30.5004,1.6879 39.93777,13.61405 5.55408,11.03401 -0.58349,23.5137 0.29927,35.26232 1.33472,10.85339 -4.31026,21.94886 -2.71742,31.99555 3.21088,20.16952 2.09434,40.85499 2.68782,61.25097 0.37919,27.1696 -0.22731,54.48465 2.71622,81.51898 2.45115,12.0766 3.91559,25.1968 0.34044,37.1599 -0.88036,2.78 -3.8354,2.1471 -4.86865,-0.103 z m -117.37244,-18.8642 c -2.84168,-13.3661 -1.36062,-27.4869 0.39198,-40.9744 4.91857,-29.48083 4.09998,-59.6007 5.68872,-89.38562 1.34197,-20.68427 0.21197,-41.64673 3.54755,-62.1371 4.3703,-12.01873 20.46313,-8.57696 30.75354,-10.22152 17.21226,-0.11524 35.03671,-0.6801 51.59433,4.58193 1.72112,6.65241 -15.53026,3.90857 -21.52584,5.10214 -15.41779,1.10385 -31.38872,-1.25546 -46.41437,2.91138 -9.12684,7.1162 -5.54889,21.06857 -7.33698,31.3579 -2.06226,41.56061 -2.83767,83.20095 -3.87654,124.77416 -1.95246,11.45943 -1.64737,24.24123 -8.32939,34.18443 -1.12323,1.4316 -3.45733,1.2071 -4.493,-0.1933 z m 49.98904,-71.49641 c -12.75651,-5.53374 -10.59518,-21.80939 -11.4362,-33.15975 -0.0475,-18.88325 -0.51493,-37.89874 2.0017,-56.64953 10.05313,-8.03198 7.6359,13.98909 9.19411,19.94743 7.93415,6.23151 27.60423,5.67027 25.04397,-9.31093 -2.45417,-9.39992 7.67685,-21.79562 13.59724,-8.71905 1.58699,9.44742 -5.28107,16.80393 -0.16151,25.70057 0.11387,16.2502 -1.05555,32.56631 -2.08222,48.75189 -3.87614,15.06712 -23.38958,20.08818 -36.15709,13.43937 z m 23.18724,-15.60106 c 1.13315,-12.18639 3.90948,-24.94086 0.7573,-36.96661 -4.65197,-7.12951 -14.15053,-2.51133 -20.9969,-1.62374 -5.19837,-0.20379 -2.14659,6.63753 -3.23309,9.94503 -0.0509,9.67218 -2.06736,19.68587 0.75732,29.06559 5.75543,5.59979 15.79818,0.40512 22.71537,-0.42027 z"
       id="path3028"
       inkscape:connector-curvature="0" />
  </g>
</svg>
