<?xml version="1.0" encoding="UTF-8" standalone="no"?>
<svg
   xmlns:dc="http://purl.org/dc/elements/1.1/"
   xmlns:cc="http://creativecommons.org/ns#"
   xmlns:rdf="http://www.w3.org/1999/02/22-rdf-syntax-ns#"
   xmlns:svg="http://www.w3.org/2000/svg"
   xmlns="http://www.w3.org/2000/svg"
   viewBox="0 0 300 300"
   height="300"
   width="300"
   id="svg1516"
   version="1.1">
  <metadata
     id="metadata1522">
    <rdf:RDF>
      <cc:Work
         rdf:about="">
        <dc:format>image/svg+xml</dc:format>
        <dc:type
           rdf:resource="http://purl.org/dc/dcmitype/StillImage" />
        <dc:title></dc:title>
      </cc:Work>
    </rdf:RDF>
  </metadata>
  <defs
     id="defs1520" />
  <path
     id="path1526"
     d="m 66.469527,283.35712 c -0.561994,-0.85773 -1.550791,-3.5704 -2.197308,-6.02817 -1.505627,-5.72367 -1.565378,-15.81457 -0.39764,-67.16164 0.491174,-21.59807 1.167624,-54.61522 1.503217,-73.37144 0.607755,-33.96755 0.78368,-36.61253 3.870238,-58.185607 1.132656,-7.916546 3.395112,-15.856461 5.979096,-20.983238 1.255325,-2.490641 2.344315,-3.455375 6.011133,-5.325258 2.462936,-1.255969 6.338191,-2.904621 8.611668,-3.663671 6.103378,-2.037743 26.957579,-4.351369 42.115419,-4.672411 l 13.18022,-0.279155 0.41864,-2.531852 c 0.23026,-1.392519 0.42206,-5.570855 0.42623,-9.28519 0.009,-7.347566 1.65972,-16.210063 3.12545,-16.772517 1.60547,-0.616078 5.61522,1.81317 6.88514,4.171256 1.26166,2.342757 1.25889,2.864936 -0.0812,15.324906 -0.25066,2.330631 -0.24642,5.353327 0.009,6.717103 l 0.46517,2.479591 13.23075,0.0059 c 27.03155,0.01204 43.00718,2.573032 51.61417,8.274071 5.28715,3.502057 10.55049,13.163587 12.19072,22.377585 1.27456,7.159839 2.14859,25.765627 2.83179,60.281697 0.74673,37.72524 0.93063,138.84454 0.26329,144.77118 -0.43077,3.82563 -0.47516,3.8905 -2.94062,4.29826 -4.08406,0.67544 -4.55476,0.53278 -5.9716,-1.80988 -1.27793,-2.11296 -1.36303,-3.77121 -1.51154,-29.45191 -0.2921,-50.50822 -1.61266,-144.91821 -2.23085,-159.488142 -0.68205,-16.075331 -1.58058,-20.362265 -5.57135,-26.581332 -2.58278,-4.024927 -2.19672,-3.836693 -14.45147,-7.046257 l -9.27991,-2.430476 -27.98488,-0.638651 c -15.39168,-0.351257 -29.96263,-0.388568 -32.37988,-0.08291 -2.41725,0.305657 -11.21545,0.852422 -19.55154,1.215035 -13.29545,0.578337 -15.748695,0.867227 -19.979071,2.3527 -9.024501,3.168903 -9.680105,3.652717 -12.009691,8.862723 -5.11772,11.445564 -6.239753,21.046529 -6.227148,53.28436 0.01195,30.47918 -1.425351,155.39319 -1.81768,157.97646 -0.697818,4.59478 -5.933428,6.77735 -8.148425,3.39685 z m 28.115431,-33.50426 -3.012694,-0.96153 v -4.34532 -4.34532 l 2.5835,-0.80307 c 1.583901,-0.49236 11.646526,-1.00903 26.007246,-1.33537 12.88306,-0.29275 23.50125,-0.56598 23.59598,-0.60716 0.0947,-0.0412 0.17223,-6.06658 0.17223,-13.38975 0,-12.00356 0.20763,-14.39521 2.10836,-24.28491 3.83197,-19.93822 6.31968,-27.95109 11.801,-38.01071 l 2.72156,-4.99477 h -2.0622 c -3.43506,0 -5.79214,-2.66613 -8.02132,-9.07309 -2.03816,-5.8579 -4.75818,-11.1574 -8.57109,-16.69926 -2.42412,-3.52334 -11.02405,-12.26266 -11.77731,-11.96821 -1.67576,0.65507 -12.91617,15.12171 -19.78733,25.46671 -7.75302,11.6727 -8.21321,12.21406 -10.980727,12.9175 -5.608477,1.42557 -6.38106,0.84071 -6.402627,-4.84688 -0.0203,-5.35283 7.754524,-16.63674 24.797824,-35.99007 16.3009,-18.510322 21.0422,-22.266082 32.71873,-25.917736 9.24987,-2.892763 19.75205,-1.628246 31.1394,3.749354 17.45477,8.242892 24.18882,23.728382 17.60719,40.489162 -2.37272,6.0424 -3.36544,7.07977 -17.51779,18.30574 -9.70152,7.69546 -15.04268,13.3541 -17.49278,18.53253 -1.99897,4.22498 -4.69652,14.23767 -5.80523,21.54774 -0.43103,2.84184 -1.36767,8.88724 -2.08142,13.4342 -0.71376,4.54696 -1.42859,13.30503 -1.58852,19.46238 l -0.29078,11.19517 6.28216,0.0633 c 3.4552,0.0348 13.41264,0.27184 22.12765,0.52671 13.90641,0.40669 16.1159,0.62578 18.05531,1.79032 4.67082,2.80465 4.65396,7.78645 -0.0329,9.73291 -2.6206,1.08832 -7.16169,1.19575 -53.07324,1.25556 -41.19887,0.0537 -50.747989,-0.10712 -53.220124,-0.89613 z M 175.74652,143.83328 c 10.48391,-9.05554 11.48409,-10.12096 12.52407,-13.34109 4.42607,-13.7045 -4.31318,-24.97739 -22.23679,-28.68359 -4.71567,-0.97509 -5.94894,-1.00328 -9.12719,-0.20857 -4.60089,1.15043 -12.6763,4.89885 -15.3296,7.11565 l -2.00976,1.67912 5.70458,6.46376 c 6.99131,7.92172 10.36686,12.82005 12.77128,18.53271 1.99502,4.73996 3.80039,12.98192 3.80039,17.34975 0,3.34774 -1.10592,4.0563 13.90302,-8.90774 z"
     style="fill:#000000;stroke-width:0.68893367" />
</svg>
