<?xml version="1.0" encoding="UTF-8" standalone="no"?>
<svg
   xmlns:dc="http://purl.org/dc/elements/1.1/"
   xmlns:cc="http://creativecommons.org/ns#"
   xmlns:rdf="http://www.w3.org/1999/02/22-rdf-syntax-ns#"
   xmlns:svg="http://www.w3.org/2000/svg"
   xmlns="http://www.w3.org/2000/svg"
   viewBox="0 0 300 300"
   height="300"
   width="300"
   id="svg16"
   version="1.1">
  <metadata
     id="metadata22">
    <rdf:RDF>
      <cc:Work
         rdf:about="">
        <dc:format>image/svg+xml</dc:format>
        <dc:type
           rdf:resource="http://purl.org/dc/dcmitype/StillImage" />
        <dc:title></dc:title>
      </cc:Work>
    </rdf:RDF>
  </metadata>
  <defs
     id="defs20" />
  <path
     id="path26"
     d="m 63.38612,278.87907 1.064778,-99.70831 1.343891,-70.58743 C 66.205022,87.035986 66.307313,67.534263 74.967585,57.31104 87.814321,42.145806 129.37232,43.142465 144.67411,42.736853 l 0.4551,-14.824632 c 0.54478,-17.745909 11.78992,-16.682271 11.72777,0.01195 l -0.0549,14.740705 18.18403,0.390591 c 34.29751,0.736707 45.55312,4.789736 52.23622,14.091837 8.71131,12.125131 8.94848,30.308478 9.15239,50.198036 0.15656,15.27086 0.20825,144.15018 0.23917,171.60422 0.009,7.19841 -10.1081,8.05479 -10.16795,-0.80409 l -0.51776,-76.63668 c -0.37037,-54.82081 0.5314,-74.85248 -0.12538,-94.6449 -0.45626,-13.749516 -0.48467,-32.174954 -7.32425,-41.510049 -8.70573,-10.336905 -32.49078,-9.190643 -49.18952,-9.652808 -20.68514,-0.572494 -37.59123,-0.203886 -55.36552,0.794252 -11.54191,0.64815 -23.606942,-0.208579 -30.730966,10.878624 -6.211521,9.667062 -6.030732,13.675625 -6.35271,43.408071 l -1.027156,94.85078 -1.144222,72.74605 c -0.146258,9.29867 -11.186538,8.18555 -11.282356,0.50026 z m 130.21537,-14.86692 -0.3406,-34.72683 c -0.32263,-18.31504 0.13596,-39.37713 -1.51161,-56.64392 -1.34153,-14.0594 -14.5177,-20.01463 -27.95881,-22.75037 -20.46943,-4.16625 -29.59614,-12.9214 -29.71471,-25.46773 l -21.83463,0.22441 c -23.762023,0.24421 -26.286512,0.19067 -27.174518,-3.6167 -1.985246,-8.51183 11.861464,-7.8525 15.725528,-7.88969 l 32.97052,-0.22339 0.12919,-23.340331 -28.91786,-0.424548 C 89.916027,88.931981 90.380784,77.584725 106.47773,77.189277 l 75.17232,-0.217404 0.29372,-11.653891 c 0.23185,-9.198685 10.28807,-8.851836 10.30063,-0.910378 l 0.0429,24.585699 c 0.0163,9.322311 -0.72423,20.039147 -6.37959,25.495977 -8.20146,7.91355 -16.30406,8.66074 -39.46311,9.66362 0.0723,12.13976 14.37527,14.30139 24.90646,16.6168 19.30713,4.2449 29.15068,11.75776 31.37858,30.15317 0.91398,7.54661 1.32214,12.25427 1.57272,52.33633 0.14069,22.50277 -0.0291,40.20812 -0.0291,40.20812 -0.10481,11.37851 -10.5793,9.96658 -10.6717,0.54483 z M 180.81462,89.474927 h -33.8636 l -0.14922,23.336503 c 27.19392,-0.9394 34.04951,-3.0249 34.01282,-23.336503 z M 110.3259,225.12172 c -10.494712,-6.24461 -9.41945,-34.81343 -9.42563,-40.37254 l 0.31747,-17.84544 c 0.0896,-5.03642 0.94295,-11.53423 5.97287,-11.47164 4.8003,0.0597 5.01553,3.00558 5.0569,10.93407 l 0.0505,9.68683 41.17063,0.0248 0.35558,-12.09666 c 0.16863,-5.73683 1.8467,-8.82838 5.93974,-8.81266 2.99414,0.0115 5.87044,7.03922 5.11947,24.68054 -1.42404,33.45224 -0.7393,43.92718 -7.12985,43.75344 -10.03739,6.59294 -36.6456,7.93487 -47.42771,1.51927 z m 42.1237,-11.34218 0.88904,-26.70454 h -40.63733 c -0.048,17.59496 -1.38637,25.34165 4.9535,28.52446 10.73107,5.3873 25.95905,2.45455 34.79479,-1.81992 z"
     style="fill:#000000;stroke-width:0.68732446" />
</svg>
