<?xml version="1.0" encoding="UTF-8" standalone="no"?>
<!-- Created with Inkscape (http://www.inkscape.org/) -->

<svg
   xmlns:dc="http://purl.org/dc/elements/1.1/"
   xmlns:cc="http://creativecommons.org/ns#"
   xmlns:rdf="http://www.w3.org/1999/02/22-rdf-syntax-ns#"
   xmlns:svg="http://www.w3.org/2000/svg"
   xmlns="http://www.w3.org/2000/svg"
   xmlns:sodipodi="http://sodipodi.sourceforge.net/DTD/sodipodi-0.dtd"
   xmlns:inkscape="http://www.inkscape.org/namespaces/inkscape"
   width="300"
   height="300"
   id="svg2"
   version="1.1"
   inkscape:version="0.48.4 r9939"
   sodipodi:docname="dessin.svg">
  <defs
     id="defs4" />
  <sodipodi:namedview
     id="base"
     pagecolor="#ffffff"
     bordercolor="#666666"
     borderopacity="1.0"
     inkscape:pageopacity="0.0"
     inkscape:pageshadow="2"
     inkscape:zoom="1.979899"
     inkscape:cx="150.2687"
     inkscape:cy="106.5722"
     inkscape:document-units="px"
     inkscape:current-layer="layer1"
     showgrid="false"
     inkscape:window-width="1215"
     inkscape:window-height="1000"
     inkscape:window-x="65"
     inkscape:window-y="24"
     inkscape:window-maximized="1" />
  <metadata
     id="metadata7">
    <rdf:RDF>
      <cc:Work
         rdf:about="">
        <dc:format>image/svg+xml</dc:format>
        <dc:type
           rdf:resource="http://purl.org/dc/dcmitype/StillImage" />
        <dc:title />
      </cc:Work>
    </rdf:RDF>
  </metadata>
  <g
     inkscape:label="Calque 1"
     inkscape:groupmode="layer"
     id="layer1"
     transform="translate(0,-752.36218)">
    <path
       style="fill:#000000"
       d="m 225.66967,1033.7543 c -1.89494,-1.8481 -3.79361,-34.88915 -4.97848,-86.63556 -2.43418,-106.30907 -4.31727,-128.72034 -11.2877,-134.3386 -4.66093,-3.7568 -11.03313,-4.22059 -54.93898,-3.99865 -51.36453,0.25963 -70.252456,2.94085 -72.939727,10.35419 -2.110914,5.82332 -2.725637,47.37323 -1.954878,132.13262 0.391289,43.03085 -0.123827,79.3282 -1.144659,80.6607 -1.020855,1.3325 -3.754045,2.4228 -6.073698,2.4228 -3.512393,0 -4.237647,-8.492 -4.337425,-50.78636 -0.06576,-27.93251 -0.731623,-55.62601 -1.479423,-61.54113 -0.747799,-5.91512 -2.202337,-27.46934 -3.232287,-47.89826 -3.169985,-62.87508 3.162461,-73.96098 42.258657,-73.98011 23.54758,-0.0113 27.64562,-1.41496 27.64562,-9.46779 0,-7.79367 5.57779,-21.61046 8.72405,-21.61046 6.82271,0 14.97609,9.58598 14.97609,17.60746 0,4.77507 0.52532,8.68196 1.16736,8.68196 14.83467,0 62.72933,5.79684 65.34782,7.90925 6.6382,5.35522 7.79697,16.18569 9.21441,86.12362 0.77669,38.32318 2.00871,75.52578 2.73782,82.6724 5.1442,50.42382 5.33926,60.38592 1.22358,62.48812 -5.57525,2.8477 -7.32243,2.7204 -10.92815,-0.7962 z m -41.6564,-25.0944 c -2.71921,-4.1701 -6.10054,-16.63914 -12.45206,-45.91809 -1.84293,-8.49543 -2.89453,-24.449 -2.33689,-35.45233 l 1.01386,-20.00608 -9.44728,-3.20758 c -7.66456,-2.60228 -10.04122,-2.63023 -12.59481,-0.14794 -3.13474,3.04712 -2.46432,38.28511 1.33585,70.21658 1.63493,13.73739 -2.33518,29.13804 -7.51139,29.13804 -5.01391,0 -7.82838,-17.84217 -8.47682,-53.7382 -0.40324,-22.32221 -1.30241,-41.04512 -1.9982,-41.60642 -0.69577,-0.5613 -3.77265,0.81017 -6.83745,3.04774 -3.06483,2.23755 -7.34318,3.75457 -9.50742,3.37111 -3.15843,-0.5596 -3.9624,8.12895 -4.07394,44.02737 -0.12324,39.66108 -0.73802,45.2079 -5.43047,48.9939 -4.62657,3.7328 -5.66052,3.8188 -8.227333,0.6844 -1.614664,-1.9717 -2.191287,-6.8113 -1.28138,-10.75472 0.909879,-3.94341 1.598813,-43.46716 1.530941,-87.83055 -0.06784,-44.3634 0.890268,-80.64425 2.129164,-80.62413 6.446678,0.10462 9.520358,4.94717 10.288388,16.20898 0.65513,9.60633 2.09711,12.80842 6.24668,13.87149 8.2888,2.12357 40.47869,-1.54645 40.87116,-4.65979 0.19079,-1.51401 0.0797,-9.52496 -0.24737,-17.80212 -0.65045,-16.46901 3.55591,-24.09954 10.66219,-19.34172 2.22788,1.49163 4.05072,5.8068 4.05072,9.58928 0,5.74237 1.22212,6.87718 7.4063,6.87718 6.22117,0 7.4063,-1.1247 7.4063,-7.02878 0,-7.70366 2.82538,-10.33341 8.215,-7.6462 3.6564,1.82302 4.89089,6.9861 4.10446,17.16675 -0.3921,5.07598 -2.6647,6.55035 -13.80073,8.95312 -20.04776,4.32564 -17.73595,9.05184 5.28687,10.80846 22.92512,1.74916 22.06608,11.20591 -1.01793,11.20591 -13.20979,0 -14.63615,0.5246 -14.62123,5.37739 0.0207,6.5455 5.5864,23.30198 7.74063,23.30198 3.36041,0 10.01796,-7.03373 10.01796,-10.58404 0,-2.06561 1.22204,-3.75564 2.71566,-3.75564 5.79089,0 5.03998,6.42184 -1.94682,16.64918 -4.54975,6.66 -6.06553,11.00418 -4.03049,11.55143 1.79391,0.48239 3.26165,1.95598 3.26165,3.27466 0,1.31865 4.25034,7.17216 9.4452,13.00781 8.60811,9.6699 9.03038,10.94488 4.76462,14.38619 -4.26576,3.44132 -5.28351,3.1181 -11.48359,-3.64717 -11.89578,-12.9802 -16.383,-9.02651 -14.63102,12.89139 0.3152,3.94342 4.50995,18.90964 9.32165,33.25829 6.93082,20.66777 7.95419,26.49507 4.92525,28.04527 -5.66644,2.9001 -7.76428,2.4815 -10.78591,-2.1524 z M 124.31913,897.97926 c 5.70284,-6.52926 10.07445,-13.90161 9.71466,-16.38294 -0.35978,-2.48135 1.30649,-5.82425 3.70285,-7.42866 3.622,-2.42502 5.06543,-1.54929 8.55653,5.19116 4.58541,8.85342 15.1444,17.84698 17.30479,14.73929 0.7449,-1.07148 0.54395,-7.32553 -0.44651,-13.89789 l -1.80083,-11.94973 -21.86867,0.1673 c -27.25121,0.2084 -29.97543,2.51534 -29.97543,25.38399 0,8.95006 0.99985,16.22245 2.22189,16.1609 1.22204,-0.0616 6.88786,-5.45409 12.59072,-11.98337 z"
       id="path3067"
       inkscape:connector-curvature="0" />
  </g>
</svg>
