<?xml version="1.0" encoding="UTF-8" standalone="no"?>
<!-- Created with Inkscape (http://www.inkscape.org/) -->

<svg
   xmlns:dc="http://purl.org/dc/elements/1.1/"
   xmlns:cc="http://creativecommons.org/ns#"
   xmlns:rdf="http://www.w3.org/1999/02/22-rdf-syntax-ns#"
   xmlns:svg="http://www.w3.org/2000/svg"
   xmlns="http://www.w3.org/2000/svg"
   xmlns:sodipodi="http://sodipodi.sourceforge.net/DTD/sodipodi-0.dtd"
   xmlns:inkscape="http://www.inkscape.org/namespaces/inkscape"
   width="300"
   height="300"
   id="svg2"
   version="1.1"
   inkscape:version="0.48.4 r9939"
   sodipodi:docname="image-seal.svg">
  <defs
     id="defs4" />
  <sodipodi:namedview
     id="base"
     pagecolor="#ffffff"
     bordercolor="#666666"
     borderopacity="1.0"
     inkscape:pageopacity="0.0"
     inkscape:pageshadow="2"
     inkscape:zoom="2.0018437"
     inkscape:cx="232.32812"
     inkscape:cy="141.91078"
     inkscape:document-units="px"
     inkscape:current-layer="layer1"
     showgrid="false"
     inkscape:window-width="1215"
     inkscape:window-height="1000"
     inkscape:window-x="65"
     inkscape:window-y="24"
     inkscape:window-maximized="1"
     fit-margin-top="10"
     fit-margin-left="10"
     fit-margin-right="10"
     fit-margin-bottom="10" />
  <metadata
     id="metadata7">
    <rdf:RDF>
      <cc:Work
         rdf:about="">
        <dc:format>image/svg+xml</dc:format>
        <dc:type
           rdf:resource="http://purl.org/dc/dcmitype/StillImage" />
        <dc:title />
      </cc:Work>
    </rdf:RDF>
  </metadata>
  <g
     inkscape:label="Calque 1"
     inkscape:groupmode="layer"
     id="layer1"
     transform="translate(0,-752.36218)">
    <path
       style="fill:#000000"
       d="m 151.15308,1038.7874 c -0.9833,-4.7161 -3.54075,-11.3396 -5.68326,-14.7188 -2.79693,-4.4114 -3.35395,-9.2474 -1.97528,-17.1495 1.05607,-6.0531 2.12889,-13.97383 2.38405,-17.60162 0.407,-5.78711 5.46585,-17.29156 9.28145,-21.10715 0.72556,-0.72556 2.91495,-4.15323 4.86527,-7.61707 5.57804,-9.90657 12.84983,-22.85963 15.88715,-28.29937 4.44413,-7.95932 7.41085,-27.99515 5.4959,-37.117 -2.73817,-13.04343 -8.08894,-16.67196 -24.58495,-16.67196 -16.40809,0 -20.23791,2.85722 -11.53469,8.60544 3.25254,2.14823 10.48026,8.10662 16.06157,13.24086 7.79292,7.16867 9.74156,10.61518 8.39701,14.85149 -2.55737,8.05755 -5.36214,6.88399 -14.73277,-6.16434 -8.39579,-11.69097 -20.82012,-19.37099 -26.07918,-16.1207 -5.53256,3.41928 -2.62103,13.77105 6.74679,23.98796 5.24946,5.72527 10.59221,13.15823 11.87278,16.51772 3.23412,8.48437 2.90822,16.31821 -0.67881,16.31821 -3.83414,0 -9.98737,-8.02584 -10.11402,-13.19197 -0.12559,-5.11733 -12.26626,-20.30635 -14.4795,-18.11487 -0.92935,0.92019 -1.81409,11.25272 -1.96614,22.96115 -0.20922,16.11716 -1.21925,21.6499 -4.15797,22.7776 -6.03063,2.31416 -9.8366,-2.57349 -9.52052,-12.22624 0.64794,-19.78606 4.35821,-47.17267 6.5766,-48.54371 1.30326,-0.80545 2.36956,-4.21964 2.36956,-7.58707 0,-3.80916 3.86227,-9.50811 10.22162,-15.08246 11.78175,-10.32741 13.68034,-17.60408 14.80197,-56.73104 0.3923,-13.68522 1.28258,-25.45153 1.97837,-26.14736 0.69583,-0.69579 3.21597,-0.51649 5.60034,0.39848 3.70947,1.42347 4.33522,6.54665 4.33522,35.49337 l 0,33.82978 13.85157,2.96054 c 23.9081,5.10993 33.89355,25.15038 25.00367,50.18146 -1.80382,5.07891 -4.03018,10.42166 -4.94749,11.87278 -2.91176,4.6061 -13.04597,22.99276 -19.94043,36.17813 -5.45172,10.42622 -6.65823,16.43656 -6.65092,33.13206 0.005,11.2174 0.85484,26.0348 1.88872,32.9276 1.71554,11.4374 1.41384,12.5324 -3.45302,12.5324 -3.89087,0 -5.81624,-2.3186 -7.12066,-8.5748 z m 73.34738,-5.1889 c -2.88943,-3.6394 -5.28045,-35.20977 -7.45006,-98.3681 -2.9308,-85.31846 -5.59088,-130.35609 -7.84231,-132.77782 -3.28978,-3.53866 -37.69816,-7.234 -66.04863,-7.09337 -41.91073,0.2079 -54.7375,3.84195 -56.00274,15.86667 -1.34534,12.78618 -1.81054,51.47916 -0.82471,68.59824 1.03457,17.96583 -1.37922,95.54077 -3.89954,125.32378 -1.72024,20.3282 -4.22173,26.3839 -10.89876,26.3839 -3.17908,0 -3.5497,-3.9153 -2.1852,-23.0859 0.90376,-12.69733 2.22243,-64.44334 2.93039,-114.99117 1.26563,-90.36711 1.38486,-92.00854 7.12543,-98.08178 6.36235,-6.73104 27.8373,-11.85021 49.71178,-11.85021 l 12.56284,0 0.80416,-12.53237 c 0.73643,-11.47678 1.41528,-12.60269 8.05974,-13.36722 7.05672,-0.81196 7.25558,-0.47427 7.25558,12.32091 l 0,13.15577 26.79403,1.89962 c 23.92791,1.69641 27.5632,2.63625 33.98449,8.78622 l 7.19044,6.88663 1.6275,72.55584 c 0.89513,39.90571 2.47919,87.3968 3.52014,105.53576 1.04096,18.13896 1.93426,38.2148 1.98513,44.613 0.0942,11.8591 -3.56457,16.3116 -8.3997,10.2216 z M 107.66894,863.99376 c -2.35761,-2.84073 -2.48771,-4.91765 -0.46108,-7.35962 1.5529,-1.87112 3.77601,-13.9613 4.94026,-26.86708 2.06037,-22.83934 2.24701,-23.33454 6.99945,-18.57042 4.12555,4.13569 4.67666,7.79031 3.55415,23.56909 -2.2214,31.2255 -6.48892,39.52275 -15.03278,29.22803 z m 65.93094,-4.61719 c -6.01269,-9.8615 -7.24448,-36.92435 -2.18599,-48.02656 3.40115,-7.4647 5.03944,-8.11702 9.40973,-3.74673 2.01246,2.01246 2.17216,5.08084 0.49417,9.49426 -1.36355,3.58648 -1.9584,10.26256 -1.32184,14.83577 4.71684,33.88738 4.82787,36.01804 1.87675,36.01804 -1.67457,0 -5.39734,-3.85865 -8.27282,-8.57478 z"
       id="path3093"
       inkscape:connector-curvature="0" />
  </g>
</svg>
