<?xml version="1.0" encoding="UTF-8" standalone="no"?>
<!-- Created with Inkscape (http://www.inkscape.org/) -->

<svg
   xmlns:dc="http://purl.org/dc/elements/1.1/"
   xmlns:cc="http://creativecommons.org/ns#"
   xmlns:rdf="http://www.w3.org/1999/02/22-rdf-syntax-ns#"
   xmlns:svg="http://www.w3.org/2000/svg"
   xmlns="http://www.w3.org/2000/svg"
   xmlns:sodipodi="http://sodipodi.sourceforge.net/DTD/sodipodi-0.dtd"
   xmlns:inkscape="http://www.inkscape.org/namespaces/inkscape"
   width="300"
   height="300"
   id="svg2"
   version="1.1"
   inkscape:version="0.48.3.1 r9886"
   sodipodi:docname="Nouveau document 1">
  <defs
     id="defs4" />
  <sodipodi:namedview
     id="base"
     pagecolor="#ffffff"
     bordercolor="#666666"
     borderopacity="1.0"
     inkscape:pageopacity="0.0"
     inkscape:pageshadow="2"
     inkscape:zoom="1.979899"
     inkscape:cx="90.977975"
     inkscape:cy="152.80383"
     inkscape:document-units="px"
     inkscape:current-layer="layer1"
     showgrid="false"
     inkscape:window-width="1215"
     inkscape:window-height="1000"
     inkscape:window-x="65"
     inkscape:window-y="24"
     inkscape:window-maximized="1" />
  <metadata
     id="metadata7">
    <rdf:RDF>
      <cc:Work
         rdf:about="">
        <dc:format>image/svg+xml</dc:format>
        <dc:type
           rdf:resource="http://purl.org/dc/dcmitype/StillImage" />
        <dc:title></dc:title>
      </cc:Work>
    </rdf:RDF>
  </metadata>
  <g
     inkscape:label="Calque 1"
     inkscape:groupmode="layer"
     id="layer1"
     transform="translate(0,-752.36218)">
    <path
       style="fill:#000000"
       d="m 54.370156,1021.0445 c 0.240556,-10.182 6.416835,-34.40081 9.945824,-39.00022 1.462347,-1.90591 2.470976,-39.4982 2.241395,-83.53837 -0.274644,-52.6844 0.691334,-82.35884 2.824118,-86.75574 4.402476,-9.07603 17.665941,-13.71701 45.232677,-15.82733 12.73591,-0.97497 23.89952,-2.77834 24.80806,-4.00748 0.90852,-1.22917 2.15486,-6.82977 2.76965,-12.44585 0.61481,-5.61604 1.92957,-10.88974 2.92169,-11.71928 4.14387,-3.46493 12.06202,4.50321 13.44714,13.53202 l 1.49117,9.72009 26.8411,2.09101 c 27.7971,2.16546 44.67118,7.19021 49.58515,14.76539 1.7836,2.74947 1.84327,14.85456 0.15986,32.41787 -3.13012,32.65681 -2.89395,27.10533 -3.31395,77.90353 -0.18132,21.94441 0.45031,42.70432 1.40388,46.13313 0.95354,3.42881 2.4313,10.72284 3.28388,16.20892 0.8526,5.48611 2.62906,12.78014 3.94767,16.20898 9.11214,23.69443 9.98471,27.64963 6.70488,30.39213 -5.80188,4.8512 -11.56875,-1.9362 -19.82105,-23.3287 -8.39472,-21.76173 -7.91632,-10.20687 -6.97632,-168.4948 0.0719,-12.08785 -1.30418,-21.97513 -3.3442,-24.03045 -7.06779,-7.12078 -80.55661,-9.39934 -113.28346,-3.5124 -12.824814,2.30692 -17.157173,4.41703 -21.602009,10.52132 -5.119992,7.03151 -5.427123,11.87753 -3.881866,61.2498 2.060871,65.84653 -4.42235,136.58623 -13.34155,145.57233 -6.728895,6.7793 -12.25573,4.9181 -12.04371,-4.0559 z m 99.871944,-11.0213 c 1.17429,-7.9964 3.08004,-16.78322 4.23498,-19.52626 1.15495,-2.74306 2.40852,-15.36733 2.78572,-28.05392 0.7455,-25.07314 -1.39824,-27.85255 -13.94443,-18.0792 -6.42807,5.00742 -15.59875,6.74777 -15.59875,2.96022 0,-1.11493 4.02616,-5.25242 8.94703,-9.19444 4.92087,-3.942 8.94703,-8.64058 8.94703,-10.44127 0,-1.80068 1.16535,-3.27398 2.58966,-3.27398 3.51773,0 6.64275,-20.66502 3.52313,-23.29757 -3.91764,-3.30595 -14.19891,2.53589 -34.84486,19.79899 -20.32914,16.99817 -24.950124,19.0107 -24.950124,10.86626 0,-5.30719 12.323954,-17.3424 17.758494,-17.3424 1.71485,0 3.11792,-0.96457 3.11792,-2.14348 0,-1.17889 4.87297,-5.94805 10.82881,-10.59816 24.34531,-19.00778 25.52682,-20.42072 23.6472,-28.27892 -3.16439,-13.22944 -6.59394,-12.94443 -23.43567,1.94759 -9.8829,8.73876 -18.45869,14.13613 -22.46067,14.13613 -3.56055,0 -6.473737,-0.6168 -6.473737,-1.37067 0,-2.92282 9.215337,-16.08511 11.261697,-16.08511 1.18883,0 7.86464,-4.359 14.83513,-9.68665 8.86829,-6.77816 12.67364,-11.69089 12.67364,-16.36172 0,-6.43881 -0.44863,-6.61907 -12.67496,-5.09255 -14.57517,1.81977 -29.077854,-1.89567 -29.077854,-7.44942 0,-3.06816 4.750364,-3.87825 24.604344,-4.19586 50.24226,-0.80375 83.68844,0.17233 86.50168,2.52471 6.01656,5.03073 -1.67461,7.84363 -21.44654,7.84363 -13.06332,0 -21.48767,1.16109 -23.55791,3.24688 -3.10039,3.12358 -1.81411,12.76263 2.39523,17.94942 1.11308,1.37153 2.25468,6.42124 2.53696,11.22156 0.923,15.69781 3.98892,27.43051 7.16791,27.43051 3.37698,0 17.22373,-12.52541 17.22969,-15.58551 0.002,-1.02864 2.01672,-1.87026 4.47716,-1.87026 4.96274,0 5.20952,2.0241 4.40841,36.15839 -0.83706,35.66515 -0.49367,50.79323 1.71213,75.4339 1.98714,22.19786 1.83315,23.06656 -4.08856,23.06656 -3.38441,0 -7.00543,-1.1526 -8.04669,-2.5614 -1.04128,-1.4087 -2.13705,-23.76672 -2.43508,-49.68444 -0.29793,-25.91771 -1.57029,-47.98308 -2.82732,-49.03412 -1.257,-1.05104 -4.4113,-0.13341 -7.00953,2.03904 -3.76472,3.14784 -4.71067,9.70109 -4.658,32.26944 0.0363,15.57567 -1.53044,38.41882 -3.48177,50.76258 -3.24087,20.5017 -4.14292,22.5144 -10.42719,23.2667 -6.7112,0.8035 -6.82721,0.4682 -4.74431,-13.7152 z M 91.377234,986.64717 c -1.914668,-2.5904 -0.09501,-5.0746 12.823926,-17.50711 3.72818,-3.5878 8.42538,-8.27259 10.43821,-10.41059 4.79131,-5.08931 17.08025,-8.19783 17.08025,-4.32051 0,1.59511 -2.98329,6.43991 -6.62952,10.7662 -18.61752,22.08991 -28.570586,28.4291 -33.712866,21.47201 z"
       id="path2996"
       inkscape:connector-curvature="0" />
  </g>
</svg>
