<?xml version="1.0" encoding="UTF-8" standalone="no"?>
<!-- Created with Inkscape (http://www.inkscape.org/) -->

<svg
   xmlns:dc="http://purl.org/dc/elements/1.1/"
   xmlns:cc="http://creativecommons.org/ns#"
   xmlns:rdf="http://www.w3.org/1999/02/22-rdf-syntax-ns#"
   xmlns:svg="http://www.w3.org/2000/svg"
   xmlns="http://www.w3.org/2000/svg"
   xmlns:sodipodi="http://sodipodi.sourceforge.net/DTD/sodipodi-0.dtd"
   xmlns:inkscape="http://www.inkscape.org/namespaces/inkscape"
   width="300"
   height="300"
   id="svg2"
   version="1.1"
   inkscape:version="0.47 r22583"
   sodipodi:docname="Nouveau document 1">
  <defs
     id="defs4">
    <inkscape:perspective
       sodipodi:type="inkscape:persp3d"
       inkscape:vp_x="0 : 526.18109 : 1"
       inkscape:vp_y="0 : 1000 : 0"
       inkscape:vp_z="744.09448 : 526.18109 : 1"
       inkscape:persp3d-origin="372.04724 : 350.78739 : 1"
       id="perspective10" />
    <inkscape:perspective
       id="perspective2824"
       inkscape:persp3d-origin="0.5 : 0.33333333 : 1"
       inkscape:vp_z="1 : 0.5 : 1"
       inkscape:vp_y="0 : 1000 : 0"
       inkscape:vp_x="0 : 0.5 : 1"
       sodipodi:type="inkscape:persp3d" />
  </defs>
  <sodipodi:namedview
     id="base"
     pagecolor="#ffffff"
     bordercolor="#666666"
     borderopacity="1.0"
     inkscape:pageopacity="0.0"
     inkscape:pageshadow="2"
     inkscape:zoom="1.979899"
     inkscape:cx="150.60267"
     inkscape:cy="134.93076"
     inkscape:document-units="px"
     inkscape:current-layer="layer1"
     showgrid="false"
     inkscape:window-width="1280"
     inkscape:window-height="950"
     inkscape:window-x="0"
     inkscape:window-y="25"
     inkscape:window-maximized="1" />
  <metadata
     id="metadata7">
    <rdf:RDF>
      <cc:Work
         rdf:about="">
        <dc:format>image/svg+xml</dc:format>
        <dc:type
           rdf:resource="http://purl.org/dc/dcmitype/StillImage" />
        <dc:title></dc:title>
      </cc:Work>
    </rdf:RDF>
  </metadata>
  <g
     inkscape:label="Calque 1"
     inkscape:groupmode="layer"
     id="layer1"
     transform="translate(0,-752.36218)">
    <path
       style="fill:#000000"
       d="m 257.22055,1037.6375 c -17.23186,-2.1588 -18.07914,-18.3148 -26.75395,-27.4584 -8.2759,-13.21718 -12.11402,-27.95786 -22.15259,-40.53447 -18.73237,-0.22105 -34.37226,9.94326 -52.39945,12.39662 -15.7244,3.05529 -16.02777,-12.91099 -1.04621,-12.84003 15.62812,-4.42258 31.42209,-8.51024 46.81555,-13.41757 -4.74943,-13.62315 -28.48238,-12.03468 -42.70781,-11.21136 -16.50532,-3.49079 -2.17974,-22.28209 11.57091,-14.29998 17.72387,0.43332 34.48315,6.09261 46.16716,15.63456 10.39645,-6.12143 14.9012,-18.89875 9.58488,-28.48909 -11.42297,-11.31113 -34.31574,-2.25439 -50.1612,-1.8507 -13.59139,6.01861 -31.33779,-8.41127 -11.51236,-12.36726 17.61979,2.13946 9.84095,-13.52427 12.24798,-21.86612 0.91148,-14.60639 0.013,-29.71794 5.64187,-43.79364 14.55333,-10.02635 16.46603,8.73288 14.71339,16.49665 -1.16378,6.82806 -1.50534,13.25564 9.94241,10.5207 10.4067,-2.65145 29.56866,8.85515 9.84508,9.82019 -14.7325,-1.99948 -25.16541,6.43148 -20.17094,17.55761 -5.07001,15.7174 18.05518,9.55727 30.14362,8.2021 11.69188,-1.15985 25.09673,9.94914 21.80821,19.89127 0.95355,12.94261 -10.58318,23.98262 -20.39558,33.32081 -8.38589,13.00828 5.31444,25.5066 11.0951,37.26169 7.66603,12.74302 15.65256,25.39492 24.92587,37.48832 0.83791,3.6956 0.16917,11.3356 -7.20194,9.5381 z M 54.099035,1018.5813 c -4.16279,-20.10517 -1.365886,-40.57543 -0.640945,-60.80404 1.190783,-20.1807 10.841206,-40.94216 31.821989,-53.74128 13.064494,-4.93732 16.110751,-25.39418 -3.161928,-23.41289 -17.07261,-8.86311 13.014367,-12.779 21.996719,-10.75497 14.90587,1.96213 43.06067,-5.91393 47.66408,8.83817 -7.00327,10.71245 -26.32711,-2.03214 -34.47499,7.26166 -6.05474,13.23996 20.88726,14.97539 27.33914,24.72808 14.15993,12.05248 -5.92184,24.39778 -11.65237,35.59054 -6.4162,12.82646 -12.01417,29.21593 -0.53076,41.34915 0.2945,10.71031 27.1051,23.50618 9.6064,31.81928 -15.71631,-1.7347 -18.79358,-17.6361 -26.60238,-26.57832 -7.57909,-13.58035 -10.14641,-29.40078 -3.75917,-43.57892 7.7598,-9.65338 20.48865,-22.32959 15.73975,-33.5833 -12.90356,-10.72306 -34.638101,-2.81046 -42.110134,8.58702 -14.428281,15.7013 -15.208141,35.57792 -14.576972,54.10546 -0.297633,12.3893 0.344471,25.11986 -3.81719,37.15576 -2.088916,3.533 -8.7428,6.7415 -12.841239,3.0186 z M 48.152639,890.83772 c -0.644642,-14.6078 2.878206,-29.18893 8.87404,-42.99697 1.952254,-13.46381 3.296991,-30.45405 16.400273,-39.90009 15.244734,-6.75851 33.687148,-6.44887 50.685168,-6.64798 14.1828,3.29965 27.76762,-3.91608 21.8132,-15.63216 -4.98639,-11.37224 13.97344,-26.29261 19.89126,-9.79282 6.18473,10.03114 -6.55632,29.1719 15.81404,26.04026 19.77615,1.7266 39.68219,3.47156 58.85493,7.78731 13.37735,8.08273 11.14407,22.76326 14.42061,34.35917 2.47316,15.64847 5.45949,31.50384 2.83745,47.26569 -17.00003,6.93067 -15.882,-15.6444 -16.54988,-23.88212 -1.25388,-13.9554 -1.58732,-28.35748 -8.55316,-41.48523 -12.37721,-11.07922 -33.40525,-7.82004 -50.13554,-10.21681 -30.01931,-1.75396 -61.41925,-4.45513 -90.48331,3.09721 -18.670964,7.74988 -20.044023,26.14056 -22.382854,40.60072 -2.56895,11.35667 0.213355,29.0289 -16.580608,33.92899 -2.157119,0.25627 -4.264674,-0.95409 -4.905619,-2.52517 z m 39.214443,-40.64174 c -3.899212,-15.45567 25.672018,-8.00611 37.457038,-8.41447 9.33386,-1.65303 30.7343,8.57264 11.65079,11.0158 -15.14131,0.88698 -36.876956,6.12901 -49.107828,-2.60133 z"
       id="path2830" />
  </g>
</svg>
