<?xml version="1.0" encoding="UTF-8" standalone="no"?>
<!-- Created with Inkscape (http://www.inkscape.org/) -->

<svg
   xmlns:dc="http://purl.org/dc/elements/1.1/"
   xmlns:cc="http://creativecommons.org/ns#"
   xmlns:rdf="http://www.w3.org/1999/02/22-rdf-syntax-ns#"
   xmlns:svg="http://www.w3.org/2000/svg"
   xmlns="http://www.w3.org/2000/svg"
   xmlns:sodipodi="http://sodipodi.sourceforge.net/DTD/sodipodi-0.dtd"
   xmlns:inkscape="http://www.inkscape.org/namespaces/inkscape"
   version="1.0"
   width="300"
   height="300"
   id="svg2"
   inkscape:version="0.48.3.1 r9886"
   sodipodi:docname="dessin.svg">
  <metadata
     id="metadata2990">
    <rdf:RDF>
      <cc:Work
         rdf:about="">
        <dc:format>image/svg+xml</dc:format>
        <dc:type
           rdf:resource="http://purl.org/dc/dcmitype/StillImage" />
      </cc:Work>
    </rdf:RDF>
  </metadata>
  <sodipodi:namedview
     pagecolor="#ffffff"
     bordercolor="#666666"
     borderopacity="1"
     objecttolerance="10"
     gridtolerance="10"
     guidetolerance="10"
     inkscape:pageopacity="0"
     inkscape:pageshadow="2"
     inkscape:window-width="1215"
     inkscape:window-height="1000"
     id="namedview2988"
     showgrid="false"
     inkscape:zoom="2.2250294"
     inkscape:cx="136.51293"
     inkscape:cy="138.64666"
     inkscape:window-x="65"
     inkscape:window-y="24"
     inkscape:window-maximized="1"
     inkscape:current-layer="svg2" />
  <defs
     id="defs5" />
  <path
     style="fill:#000000"
     d="m 225.81715,287.33079 c -0.82764,-1.18428 -1.45321,-49.69963 -1.39013,-107.81187 0.12204,-112.471589 -1.02058,-123.242543 -13.31553,-125.511912 -29.59529,-5.462566 -41.19658,-6.701203 -62.76473,-6.701203 -44.35633,0 -71.033034,6.535312 -75.774574,18.563356 C 70.808555,70.343035 69.496731,115.43946 69.344173,176.8383 69.118149,267.79978 68.520925,280.64564 64.390788,283.38039 51.96798,291.60603 51.688026,289.08874 52.676775,178.05125 53.63517,70.423007 54.769937,58.926096 65.503145,48.100624 74.376015,39.151506 82.915402,36.77632 106.21689,36.77632 c 22.59785,0 24.15422,-0.702556 22.65163,-10.22505 -1.39351,-8.831185 3.06085,-16.098668 9.86714,-16.098668 7.2265,0 13.81644,8.823988 13.81644,18.500312 0,6.104989 4.56839,7.117947 39.13688,8.677903 34.04013,1.536111 42.28288,5.738013 46.81306,23.863816 2.19817,8.795175 3.34791,50.580897 3.32166,120.720227 l -0.0402,107.26916 -7.23075,0 c -3.97689,0 -7.90792,-0.96895 -8.7356,-2.15323 z M 86.705215,252.86639 c -7.672164,-5.53393 -7.953091,-5.22245 8.733256,-9.68281 2.150285,-0.57479 2.965803,-2.39549 1.812273,-4.04601 -3.24093,-4.6373 -3.604702,-37.4355 -0.455547,-41.07316 2.062227,-2.38215 4.367913,-2.49341 8.744663,-0.42203 5.32509,2.52019 5.83264,4.98122 4.87466,23.63602 -1.0342,20.13874 -0.84854,20.82293 5.65042,20.82293 6.5241,0 6.71974,-0.76115 6.71974,-26.14448 0,-25.85358 -0.0962,-26.20502 -8.64557,-31.58846 -4.75506,-2.9942 -9.89818,-5.44398 -11.42916,-5.44398 -1.53097,0 -4.406688,-3.15019 -6.39047,-7.00044 -2.8823,-5.59413 -2.828799,-7.43684 0.266363,-9.17299 6.323187,-3.54678 9.253237,-2.64113 16.130977,4.98584 6.38894,7.08495 7.15063,7.22883 35.78955,6.76069 26.11317,-0.42688 29.82686,-1.09554 34.51416,-6.21448 2.88886,-3.15487 5.25249,-8.42123 5.25249,-11.70309 0,-8.88473 7.08885,-13.12867 13.07995,-7.83065 5.68159,5.0243 5.74185,5.73318 1.46858,17.27855 -4.26284,11.51726 -12.97285,18.1613 -23.80856,18.1613 l -8.60042,0 0,28.62706 0,28.62704 8.61903,1.52437 c 4.7405,0.83841 13.12812,0.87732 18.63923,0.0863 7.63937,-1.09628 11.30832,-0.17926 15.44183,3.85993 5.24526,5.1254 5.24413,5.37828 -0.0346,7.76957 -3.00093,1.35946 -31.06874,2.6563 -62.3729,2.88186 -52.316299,0.37699 -57.489176,-0.003 -63.99997,-4.69904 z m 66.729195,-14.05553 c 2.45606,-9.52197 -0.10669,-47.09165 -3.41166,-50.01427 -1.66317,-1.47078 -4.95087,-2.02024 -7.30598,-1.22106 -5.91707,2.00789 -7.25985,51.66302 -1.48468,54.9023 6.60571,3.70515 10.61127,2.50142 12.20232,-3.66697 z m 30.83769,-3.94856 c -3.21616,-4.61604 -4.54221,-42.6769 -1.54398,-44.31552 8.68102,-4.7445 18.01382,22.9338 13.31521,39.48881 -1.81221,6.38502 -8.71379,9.21499 -11.77123,4.82671 z m -34.76963,-73.41971 c -6.51571,-5.20555 -13.5183,-12.44702 -15.56134,-16.0922 -2.34678,-4.1871 -9.19519,-8.50564 -18.59831,-11.72787 -19.058002,-6.53076 -27.221856,-13.38245 -29.664503,-24.89658 -2.155105,-10.158719 0.530161,-15.034188 16.209803,-29.431076 6.9918,-6.419804 8.70705,-9.600498 6.317,-11.714057 -3.36653,-2.977053 -4.63309,-15.010258 -1.57991,-15.010258 1.74208,0 4.6023,2.497543 14.17723,12.379493 5.18975,5.356166 5.20978,6.100258 0.40501,15.054193 -2.78004,5.180745 -6.70367,9.419522 -8.71919,9.419522 -6.03278,0 -13.517531,9.150361 -13.517531,16.525633 0,4.77331 3.169251,9.03544 10.289961,13.83836 5.65947,3.81728 11.51483,6.2711 13.0119,5.4529 1.49708,-0.81819 2.09344,-6.29934 1.32525,-12.18033 -1.96409,-15.036421 1.00993,-23.636563 8.17377,-23.636563 5.29097,0 5.90146,1.825443 5.94236,17.768513 0.025,9.77268 1.39627,19.54536 3.0471,21.71706 2.52188,3.31758 4.17714,2.6866 10.35824,-3.94855 7.28847,-7.82386 8.49304,-11.89959 7.50832,-25.404576 -0.65207,-8.942747 3.18192,-10.953037 11.29982,-5.924838 6.41193,3.971539 8.80657,15.246464 3.81728,17.973304 -3.37354,1.84374 -6.20131,14.67229 -3.2342,14.67229 1.23704,0 6.51145,-3.52095 11.72089,-7.82433 11.63395,-9.61047 10.43694,-15.42986 -6.16862,-29.989899 -13.02051,-11.416597 -13.43349,-12.950007 -7.09866,-26.357388 7.10147,-15.029975 19.89693,-10.271858 13.34686,4.963126 -2.47586,5.758578 -1.19973,7.986406 10.50208,18.334471 13.78462,12.189909 15.93809,18.64851 10.46356,31.38185 -4.07231,9.4718 -24.81478,21.05758 -34.03608,19.01091 -18.23823,-4.04793 -21.8664,5.72125 -6.4497,17.36641 5.65435,4.27108 9.54983,9.32163 8.70009,11.27985 -3.15493,7.27045 -10.36494,6.28694 -21.98848,-2.99937 z"
     id="path3001"
     inkscape:connector-curvature="0"
     sodipodi:nodetypes="cssssssssssssssscsccsssssssssssssssssscccsccssccsssssssssssssssssssssssssssssssssssssssss" />
</svg>
