<?xml version="1.0" encoding="UTF-8" standalone="no"?>
<!-- Created with Inkscape (http://www.inkscape.org/) -->

<svg
   xmlns:dc="http://purl.org/dc/elements/1.1/"
   xmlns:cc="http://creativecommons.org/ns#"
   xmlns:rdf="http://www.w3.org/1999/02/22-rdf-syntax-ns#"
   xmlns:svg="http://www.w3.org/2000/svg"
   xmlns="http://www.w3.org/2000/svg"
   xmlns:sodipodi="http://sodipodi.sourceforge.net/DTD/sodipodi-0.dtd"
   xmlns:inkscape="http://www.inkscape.org/namespaces/inkscape"
   width="300"
   height="300"
   viewBox="0 0 300 300"
   id="svg2"
   version="1.1"
   inkscape:version="0.91 r13725"
   sodipodi:docname="寒-seal.svg">
  <defs
     id="defs4">
    <clipPath
       clipPathUnits="userSpaceOnUse"
       id="clipPath4204">
      <rect
         style="fill:#0000ff;fill-rule:evenodd;stroke:#000000;stroke-width:1px;stroke-linecap:butt;stroke-linejoin:miter;stroke-opacity:1"
         id="rect4206"
         width="15.451179"
         height="21.584471"
         x="164.41942"
         y="794.64594" />
    </clipPath>
  </defs>
  <sodipodi:namedview
     id="base"
     pagecolor="#ffffff"
     bordercolor="#666666"
     borderopacity="1.0"
     inkscape:pageopacity="0.0"
     inkscape:pageshadow="2"
     inkscape:zoom="1.71"
     inkscape:cx="150"
     inkscape:cy="150"
     inkscape:document-units="px"
     inkscape:current-layer="layer1"
     showgrid="false"
     inkscape:window-width="1280"
     inkscape:window-height="751"
     inkscape:window-x="0"
     inkscape:window-y="1"
     inkscape:window-maximized="1"
     units="px"
     showguides="false" />
  <metadata
     id="metadata7">
    <rdf:RDF>
      <cc:Work
         rdf:about="">
        <dc:format>image/svg+xml</dc:format>
        <dc:type
           rdf:resource="http://purl.org/dc/dcmitype/StillImage" />
        <dc:title></dc:title>
      </cc:Work>
    </rdf:RDF>
  </metadata>
  <g
     inkscape:label="Layer 1"
     inkscape:groupmode="layer"
     id="layer1"
     transform="translate(0,-752.36216)">
    <path
       style="fill:#000000"
       d="m 145.7793,15 c -4.37501,-0.07409 -9.10352,4.408454 -9.10352,12.376953 0,5.88158 -0.88966,6.954528 -5.37695,6.486328 -7.26331,-0.75781 -32.266509,2.437372 -41.679689,5.326172 -5.53277,1.69795 -8.329417,4.46969 -10.185547,10.09375 -2.84603,8.6236 -3.7805,54.872547 -1.19336,59.058597 1.15037,1.86138 2.76771,1.5526 5.34375,-1.02344 2.75635,-2.75635 3.891167,-10.175659 4.472657,-29.230469 0.42858,-14.04476 1.892413,-26.875522 3.251953,-28.513672 6.09282,-7.3414 97.055666,-11.889808 110.972656,-5.548828 5.9712,2.72071 6.08594,3.257952 6.08594,28.382812 0,19.63389 0.82061,26.29297 3.51758,28.531247 2.81414,2.33553 4.28961,2.1479 7.37109,-0.93359 3.22461,-3.224601 3.65965,-8.030846 2.67969,-29.509766 -0.64388,-14.11232 -1.88055,-27.42965 -2.75,-29.59375 -1.78903,-4.45311 -14.02261,-6.752 -35.91016,-6.75 -7.88596,8.1e-4 -16.48855,-0.471025 -19.11719,-1.046875 -2.62866,-0.57581 -6.05561,-1.127816 -7.61523,-1.228516 -1.55963,-0.10055 -3.17213,-3.668897 -3.58399,-7.929687 C 152.37186,17.873269 149.18208,15.057625 145.7793,15 Z m 29.01758,31.03125 c -4.10895,0 -4.66407,1.709721 -4.66407,14.337891 0,18.54736 -5.25426,20.049155 -8.36523,2.390625 -1.75208,-9.94505 -2.97819,-11.949219 -7.31055,-11.949219 -4.13332,0 -4.58127,11.339127 -0.96289,24.367187 1.9129,6.88744 4.23095,9.47813 10.51367,11.75 5.06589,1.83186 7.60463,4.09638 6.83594,6.09961 -0.6726,1.75274 -0.60421,4.800004 0.15234,6.771484 1.66289,4.333472 8.53063,4.784382 9.10352,0.597652 0.22482,-1.642916 0.49394,-5.675133 0.59766,-8.960933 0.13987,-4.4284 1.68018,-6.185353 5.95312,-6.789063 9.42673,-1.33184 12.49923,-6.286898 11.69336,-18.861328 -0.52593,-8.2062 -1.73169,-11.390625 -4.31445,-11.390625 -2.47818,0 -3.95323,3.319336 -4.7793,10.753907 -0.82606,7.43458 -2.30109,10.753906 -4.7793,10.753906 -2.72801,0 -3.75541,-3.568847 -4.29687,-14.935547 -0.61819,-12.97777 -1.32315,-14.935547 -5.37695,-14.935547 z m -54.79883,3.583984 c -2.704,0 -3.57616,3.333888 -3.70703,14.179688 -0.10582,8.75795 -1.26629,14.545135 -3.03516,15.134766 -2.94651,0.98218 -3.81849,-0.677532 -6.29688,-11.988282 -2.2333,-10.1922 -8.524664,-8.420348 -8.480464,2.388672 0.04499,11.01854 1.466964,13.219516 11.314454,17.503906 6.35695,2.76577 7.76562,4.719279 7.76562,10.761719 0,4.060257 0.68883,8.069657 1.5293,8.910157 3.06392,3.06391 5.64063,-1.21232 5.64063,-9.359376 0,-7.25677 1.07508,-8.794268 8.25195,-11.792968 6.466,-2.70162 8.58491,-5.210761 9.78125,-11.587891 3.23708,-17.25508 -3.96576,-25.001419 -7.53125,-8.099609 -3.23038,15.31318 -8.99052,13.71938 -10.50195,-2.90625 -0.86089,-9.46976 -2.18335,-13.144532 -4.73047,-13.144532 z m 25.84765,40.982422 c -1.5992,-2.56e-4 -2.21945,1.379038 -3.04882,4.683594 -0.81825,3.26275 -0.82433,7.0067 -0.0137,8.31836 0.81067,1.31171 -0.15612,4.87145 -2.14843,7.91211 -2.97836,4.54555 -6.51914,5.81339 -19.91993,7.1289 -14.90374,1.46306 -24.699739,2.77362 -26.595699,3.55665 -0.40614,0.16773 -0.002,1.49624 0.898437,2.95312 l -0.002,0 c 1.09112,1.76545 6.916812,2.14113 17.466792,1.12695 8.70602,-0.83694 27.38856,-2.14869 41.51758,-2.91406 12.11187,-0.73702 20.93497,-3.91991 31.66406,-1.72656 4.56875,0.92439 4.70817,8.94579 0.59766,12.20898 -1.64292,1.30424 -10.13269,2.91621 -18.86719,3.58203 -8.7345,0.6658 -16.95273,1.87265 -18.26172,2.68165 -1.30901,0.80902 -3.13241,11.99149 -4.05273,24.8496 -1.66345,23.24122 -1.72168,23.40958 -9.78516,28.69532 -4.4611,2.92432 -9.48052,5.3164 -11.1543,5.3164 -1.67376,0 -4.35828,2.10798 -5.96679,4.6836 -2.43521,3.89942 -2.23216,5.08609 1.21679,7.0957 5.9352,3.45824 8.6088,3.12246 13.84766,-1.74219 2.54791,-2.36592 7.99776,-6.28391 12.10938,-8.70703 l 7.47461,-4.40625 9.25195,6.91602 c 5.08867,3.8033 9.61073,7.72129 10.04883,8.70703 1.1441,2.57421 9.41501,2.21096 11.08203,-0.48633 1.41233,-2.2852 -21.15637,-21.61914 -25.23633,-21.61914 -3.52062,0 -2.66878,-37.23846 0.91992,-40.2168 1.70163,-1.41223 11.10948,-2.88767 20.90821,-3.27929 16.50145,-0.65948 16.91583,4.28695 21.0957,-11.07813 4.46818,-14.12299 0.61507,-21.72657 -10.85156,-21.89453 -7.63271,0.41751 -15.79295,-0.32526 -22.3711,1.23828 -1.29891,0.80301 -4.50224,0.77977 -7.11914,-0.0508 -3.64305,-1.15625 -4.75781,-3.62159 -4.75781,-10.52344 0,-7.203768 -1.15619,-9.541817 -5.75391,-11.636717 -1.92293,-0.876146 -3.23383,-1.372893 -4.19336,-1.373047 z m -40.52734,48.630864 c -1.15337,0 -2.09766,8.53952 -2.09766,18.97656 0,18.18836 -2.46286,24.92189 -7.333981,20.05078 -1.17583,-1.17584 -2.739953,-6.9344 -3.476563,-12.79688 -1.5557,-12.38193 -4.97377,-17.19414 -8.43164,-11.87109 -2.66593,4.10395 -0.887269,20.09008 3.138672,28.21484 1.5464,3.12079 5.72987,6.13153 9.59375,6.9043 l 6.851562,1.37109 -1.05664,33.72071 c -0.5812,18.54605 -2.16223,38.48605 -3.513672,44.31055 -1.351371,5.8246 -1.912997,12.00743 -1.248047,13.74023 1.52845,3.9831 3.116759,3.8797 9.033199,-0.5918 4.36762,-3.3009 4.82461,-7.04693 5.64063,-46.34179 l 0.88672,-42.75196 6.82812,-2.82812 c 10.30291,-4.26762 12.15783,-7.91231 12.08203,-23.72852 -0.0803,-16.79714 -1.60724,-20.70645 -6.5039,-16.64258 -2.04034,1.69331 -3.37305,7.29877 -3.37305,14.19727 0,8.37033 -1.04277,11.8019 -3.92578,12.9082 -5.56094,2.13394 -5.86987,1.31925 -5.95117,-15.64843 -0.0686,-14.34748 -2.376,-21.19336 -7.14258,-21.19336 z m 91.48828,10.05859 c -3.85084,0.0814 -7.6691,8.06463 -7.18359,16.29297 1.02689,17.40379 -5.91437,18.07485 -10.2168,0.98828 -2.91472,-11.57536 -9.27344,-14.70248 -9.27344,-4.56055 0,10.07668 6.39632,22.625 11.53321,22.625 7.61562,0 9.30992,4.81212 10.9414,31.06641 0.85758,13.80043 2.73714,35.03781 4.17578,47.19531 2.25985,19.0973 3.22538,22.10547 7.09961,22.10547 2.46637,0 4.53762,-0.80727 4.60352,-1.79297 0.0661,-0.9857 0.52332,-6.46413 1.01562,-12.17383 0.49231,-5.7098 -0.15355,-15.92487 -1.43554,-22.70117 -3.13757,-16.58441 -6.18323,-51.93424 -4.92383,-57.15234 0.55858,-2.31445 3.6778,-4.8767 6.93164,-5.69336 8.54211,-2.14392 14.18506,-12.74545 13.06055,-24.53711 -0.73148,-7.67015 -1.90647,-9.77149 -5.46094,-9.77149 -3.75751,0 -4.52735,1.78721 -4.52735,10.49805 0,7.36825 -1.1262,10.92919 -3.77929,11.94727 -7.13432,2.73769 -8.16992,1.42794 -8.16992,-10.35547 0,-6.49407 -1.23826,-12.57423 -2.75196,-13.50977 -0.53906,-0.33316 -1.08855,-0.48232 -1.63867,-0.4707 z m -48.98828,57.10156 c -0.78532,-0.006 -1.65273,0.18459 -2.61719,0.55469 -2.66639,1.02319 -3.76133,4.72845 -3.79883,12.86328 -0.0469,10.16288 -1.23403,12.72035 -10.75195,23.14063 -10.91329,11.94794 -11.91154,13.7603 -9.10937,16.5625 2.946,2.946 5.11772,1.63954 15.79492,-9.50196 8.96689,-9.35684 11.61,-10.84925 16.86914,-9.52929 3.42982,0.86084 8.14794,3.5113 10.48437,5.89062 2.33646,2.37928 7.74212,6.74176 12.01367,9.69336 7.20312,4.9772 8.38072,8.8614 7.76758,-2 0,-5.7742 -1.68024,-8.36324 -7.76758,-11.9707 -4.27156,-2.53139 -9.06493,-5.74056 -10.65234,-7.13282 -1.58744,-1.39228 -3.94408,-2.53125 -5.23633,-2.53125 -3.35909,0 -4.76341,-2.96321 -6.38476,-13.46289 -1.36244,-8.82297 -3.20829,-12.54813 -6.61133,-12.57617 z"
       transform="translate(0,752.36216)"
       id="path5599"
       inkscape:connector-curvature="0"
       sodipodi:nodetypes="ssssscssssssssscccssssssssccscsssssssscssssscssssssscssscccsccssssssssscccssssscccssssssssssccscssccccssssssssssssscsssssssssssscssssscscsssssc" />
  </g>
</svg>
