<?xml version="1.0" encoding="UTF-8" standalone="no"?>
<!-- Created with Inkscape (http://www.inkscape.org/) -->

<svg
   xmlns:dc="http://purl.org/dc/elements/1.1/"
   xmlns:cc="http://creativecommons.org/ns#"
   xmlns:rdf="http://www.w3.org/1999/02/22-rdf-syntax-ns#"
   xmlns:svg="http://www.w3.org/2000/svg"
   xmlns="http://www.w3.org/2000/svg"
   xmlns:sodipodi="http://sodipodi.sourceforge.net/DTD/sodipodi-0.dtd"
   xmlns:inkscape="http://www.inkscape.org/namespaces/inkscape"
   width="300"
   height="300"
   viewBox="0 0 300 300"
   id="svg2"
   version="1.1"
   inkscape:version="0.91 r13725"
   sodipodi:docname="寮-seal.svg">
  <defs
     id="defs4">
    <clipPath
       clipPathUnits="userSpaceOnUse"
       id="clipPath4204">
      <rect
         style="fill:#0000ff;fill-rule:evenodd;stroke:#000000;stroke-width:1px;stroke-linecap:butt;stroke-linejoin:miter;stroke-opacity:1"
         id="rect4206"
         width="15.451179"
         height="21.584471"
         x="164.41942"
         y="794.64594" />
    </clipPath>
  </defs>
  <sodipodi:namedview
     id="base"
     pagecolor="#ffffff"
     bordercolor="#666666"
     borderopacity="1.0"
     inkscape:pageopacity="0.0"
     inkscape:pageshadow="2"
     inkscape:zoom="1.71"
     inkscape:cx="150"
     inkscape:cy="150"
     inkscape:document-units="px"
     inkscape:current-layer="layer1"
     showgrid="false"
     inkscape:window-width="1280"
     inkscape:window-height="751"
     inkscape:window-x="0"
     inkscape:window-y="1"
     inkscape:window-maximized="1"
     units="px"
     showguides="false" />
  <metadata
     id="metadata7">
    <rdf:RDF>
      <cc:Work
         rdf:about="">
        <dc:format>image/svg+xml</dc:format>
        <dc:type
           rdf:resource="http://purl.org/dc/dcmitype/StillImage" />
        <dc:title></dc:title>
      </cc:Work>
    </rdf:RDF>
  </metadata>
  <g
     inkscape:label="Layer 1"
     inkscape:groupmode="layer"
     id="layer1"
     transform="translate(0,-752.36216)">
    <path
       style="fill:#000000"
       d="m 77.782732,1035.0722 c -0.82266,-1.3311 -0.91616,-4.2995 -0.20773,-6.5964 0.70841,-2.297 1.87681,-11.1925 2.5965,-19.7678 0.71965,-8.5754 1.78756,-19.90925 2.37306,-25.1864 0.58549,-5.27714 1.28148,-43.5964 1.54661,-85.1539 0.45868,-71.89681 2.23187,-93.75555 8.0752,-99.54612 4.93799,-4.89337 14.936668,-8.12387 34.203368,-11.05086 19.15256,-2.90965 19.78929,-3.21455 19.78929,-9.47658 0,-7.60738 4.97352,-12.55734 10.49012,-10.44042 6.55336,5.14449 4.31223,6.61136 3.90209,14.17695 0,3.78906 0.11658,3.84795 9.59481,4.85176 29.20712,3.09317 41.89368,5.9927 46.52776,10.63397 4.90066,4.90827 5.04627,7.11657 5.11266,77.53841 0.0377,39.86746 0.42575,92.24723 0.86255,116.39949 0.4368,24.1523 0.2907,44.4167 -0.32471,45.0321 -0.61539,0.6154 -2.74347,0.4955 -4.72909,-0.2664 -2.8049,-1.0764 -4.07846,-8.4459 -5.70946,-33.0387 -1.15462,-17.40923 -1.98135,-39.74882 -1.83722,-49.64346 0.35808,-24.58149 3.04125,-110.69289 3.5876,-115.13768 1.69588,-13.79635 0.90635,-14.39221 -19.07049,-14.39221 -17.03314,0 -19.23773,-0.55283 -23.98702,-6.01501 -3.21584,-3.69851 -5.22998,-9.22358 -5.22998,-14.34649 0,-6.88645 -1.04011,-8.59258 -5.99676,-9.83662 -8.06818,-2.02498 -17.99026,0.70208 -17.99026,4.94459 0,12.58426 -13.50284,22.69193 -33.58182,25.13794 l -10.794158,1.31494 -0.29689,29.98377 c -0.16335,16.49107 -0.98747,47.25442 -1.83155,68.363 -0.84408,21.10857 -1.99433,52.77107 -2.55608,70.36111 -0.75981,23.79082 -1.99433,33.46682 -4.82017,37.77952 -4.05097,6.1826 -7.2714,7.3042 -9.69819,3.3775 z M 209.72458,809.82975 c 0,-7.17396 -1.03384,-8.55456 -8.39546,-11.21134 -4.6175,-1.66645 -12.44326,-3.11202 -17.39059,-3.21239 -8.70659,-0.17654 -8.99513,0.0854 -8.99513,8.16727 0,7.15698 0.94231,8.55759 6.59643,9.80462 3.62804,0.80019 9.29497,2.37462 12.59319,3.49875 11.35063,3.86867 15.59156,1.95189 15.59156,-7.04691 z m -83.44942,-1.77667 c 8.57913,-10.72087 7.31468,-13.65895 -5.26793,-12.24072 -14.25495,1.60675 -22.822278,7.37654 -22.822278,15.36997 0,6.03492 0.39524,6.20887 11.311218,4.97848 8.67978,-0.97833 12.58326,-2.86453 16.77899,-8.10773 z m -17.03253,208.87212 c -1.32614,-3.4559 3.32285,-10.6159 6.89286,-10.6159 0.82626,0 7.91958,-4.3579 15.7629,-9.68421 11.10165,-7.53898 14.26059,-11.0277 14.26059,-15.74925 0,-3.33581 1.15433,-8.22194 2.56515,-10.85811 3.56531,-6.66184 -0.9625,-11.53598 -9.69022,-10.43142 -7.21911,0.91364 -14.25354,-3.64663 -18.58044,-12.04523 -4.11001,-7.97765 0.55945,-37.50864 6.73227,-42.57695 8.74947,-7.18392 50.11417,-4.5826 58.36734,3.67056 2.64879,2.64879 3.77985,8.32746 3.77356,18.94576 -0.012,19.48231 -6.08685,30.75479 -16.57534,30.75479 -10.06684,0 -14.59881,5.63795 -14.59881,18.1616 0,5.84254 0.91933,10.62282 2.04295,10.62282 1.1236,0 5.43145,3.23824 9.57296,7.1961 4.14152,3.95786 8.99314,7.19614 10.78139,7.19614 5.91997,0 18.38063,7.4877 18.38063,11.0451 0,5.0828 -6.71154,6.8586 -11.48316,3.0383 -2.25963,-1.8091 -6.68497,-4.7401 -9.83413,-6.5132 -26.91096,-15.1526 -25.5915,-14.98136 -39.8496,-5.1715 -5.75254,3.9578 -11.44668,7.1961 -12.65361,7.1961 -1.20693,0 -4.14812,2.1588 -6.536,4.7974 -5.23387,5.7833 -7.41235,6.0217 -9.33129,1.0211 z m 60.05128,-66.73809 c 6.14622,-1.39897 7.75958,-3.13584 8.71084,-9.3776 0.64208,-4.21334 0.90172,-7.96434 0.57696,-8.33554 -2.1503,-2.45768 -14.82638,-2.51866 -31.82305,-0.15303 -18.37921,2.55802 -19.78929,3.15518 -19.78929,8.38065 0,10.0739 20.02381,14.56151 42.32454,9.48552 z m 9.89272,-26.47866 c 0.54461,-0.54461 -0.48163,-4.04038 -2.28054,-7.76839 -3.21646,-6.66578 -3.59642,-6.77278 -22.90474,-6.45078 -14.15016,0.23603 -20.66717,1.36054 -23.33301,4.02639 -4.46511,4.46513 -4.81309,10.41437 -0.70059,11.97796 3.45046,1.31188 47.72778,-0.29408 49.21888,-1.78518 z m -73.80557,66.18168 c 0,-2.93644 6.78592,-8.37439 19.78929,-15.85834 9.60941,-5.53059 11.39383,-5.93156 11.39383,-2.56028 0,5.13301 -3.54334,8.38078 -16.41791,15.04847 -11.15253,5.77584 -14.76521,6.60044 -14.76521,3.37015 z m 75.5591,-4.18686 c -5.27715,-3.23472 -10.94408,-6.51365 -12.59319,-7.28651 -3.55161,-1.66443 -3.96522,-7.20735 -0.6889,-9.23222 1.27021,-0.78502 6.64584,1.3101 11.94584,4.65583 5.30001,3.34576 10.66014,6.08318 11.9114,6.08318 2.92246,0 9.81381,6.85789 9.81381,9.76615 0,4.06292 -10.65623,1.97941 -20.38896,-3.98643 z m -73.1604,-89.81324 c 9.09357,-8.959 15.92651,-9.56361 25.81929,-14.31324 5.46122,-2.63857 10.94556,-4.7974 12.18742,-4.7974 3.15789,0 5.16992,-6.14428 5.16992,-15.78775 0,-6.09187 -1.07891,-8.27876 -4.19773,-8.50858 -2.30875,-0.17007 -7.1779,-0.4903 -10.8203,-0.71151 -8.31668,-0.50507 -12.81471,-5.1318 -14.96416,-15.39239 -1.46342,-6.98576 -1.10851,-7.89367 2.75745,-7.05365 2.44039,0.53026 4.12934,2.36289 3.75323,4.07252 -1.23932,5.63332 4.72359,9.79953 14.02561,9.79953 8.84912,0 9.18127,-0.30175 9.90076,-8.99513 0.9248,-11.17377 4.81324,-10.96242 7.76395,0.42198 1.78891,6.90183 3.37073,8.57315 8.11411,8.57315 5.5784,0 14.8502,-7.80573 14.8502,-12.5021 0,-1.19527 1.07941,-1.50612 2.3987,-0.69076 1.31929,0.81537 2.3987,3.99317 2.3987,7.06181 0,6.58604 -9.08714,13.32716 -17.96524,13.32716 -9.95399,0 -14.77809,19.4527 -6.02177,24.2822 3.30217,1.82131 15.15269,6.93165 31.78279,13.70584 6.17325,2.51466 9.3824,9.98599 4.28926,9.98599 -1.26896,0 -10.26646,-3.77796 -19.99447,-8.39546 -17.04714,-8.09158 -32.8685,-10.97813 -32.8685,-5.99675 0,1.31929 -1.94294,2.3987 -4.31766,2.3987 -2.37471,0 -5.34311,0.97769 -6.59643,2.17265 -5.49967,5.24358 -20.96463,12.21284 -26.93842,12.13976 l -6.52346,-0.0798 5.99675,-4.71676 z m 0,-21.2335 c 0,-2.53885 27.7413,-17.06676 32.58931,-17.06676 7.25881,0 2.76016,4.81019 -11.07274,11.83956 -14.62282,7.4308 -21.51657,9.10554 -21.51657,5.2272 z m 81.55585,0.10819 c 0,-1.10813 -4.33311,-3.44483 -9.62913,-5.19267 -5.29604,-1.74786 -10.81469,-4.60639 -12.26367,-6.35231 -4.73401,-5.70414 3.96138,-6.30923 14.36858,-0.99987 5.35249,2.73065 11.39393,4.9648 13.42541,4.9648 2.09448,0 3.69362,2.07702 3.69362,4.79741 0,3.19826 -1.59914,4.7974 -4.7974,4.7974 -2.63858,0 -4.79741,-0.90664 -4.79741,-2.01476 z"
       id="path4347"
       inkscape:connector-curvature="0"
       sodipodi:nodetypes="ccssssssccssssccssssssssscssssccsscsssssssssssssssssscssssssscsssssccsssssssssssssssssssssccsscsssssssssssssssssssscccssssssssssss" />
  </g>
</svg>
