<?xml version="1.0" encoding="UTF-8" standalone="no"?>
<!-- Created with Inkscape (http://www.inkscape.org/) -->

<svg
   xmlns:dc="http://purl.org/dc/elements/1.1/"
   xmlns:cc="http://creativecommons.org/ns#"
   xmlns:rdf="http://www.w3.org/1999/02/22-rdf-syntax-ns#"
   xmlns:svg="http://www.w3.org/2000/svg"
   xmlns="http://www.w3.org/2000/svg"
   xmlns:sodipodi="http://sodipodi.sourceforge.net/DTD/sodipodi-0.dtd"
   xmlns:inkscape="http://www.inkscape.org/namespaces/inkscape"
   width="300"
   height="300"
   viewBox="0 0 300 300"
   id="svg2"
   version="1.1"
   inkscape:version="0.91 r13725"
   sodipodi:docname="尊-seal.svg">
  <defs
     id="defs4">
    <clipPath
       clipPathUnits="userSpaceOnUse"
       id="clipPath4204">
      <rect
         style="fill:#0000ff;fill-rule:evenodd;stroke:#000000;stroke-width:1px;stroke-linecap:butt;stroke-linejoin:miter;stroke-opacity:1"
         id="rect4206"
         width="15.451179"
         height="21.584471"
         x="164.41942"
         y="794.64594" />
    </clipPath>
  </defs>
  <sodipodi:namedview
     id="base"
     pagecolor="#ffffff"
     bordercolor="#666666"
     borderopacity="1.0"
     inkscape:pageopacity="0.0"
     inkscape:pageshadow="2"
     inkscape:zoom="1.71"
     inkscape:cx="149.4152"
     inkscape:cy="150"
     inkscape:document-units="px"
     inkscape:current-layer="layer1"
     showgrid="false"
     inkscape:window-width="1280"
     inkscape:window-height="751"
     inkscape:window-x="0"
     inkscape:window-y="1"
     inkscape:window-maximized="1"
     units="px"
     showguides="false" />
  <metadata
     id="metadata7">
    <rdf:RDF>
      <cc:Work
         rdf:about="">
        <dc:format>image/svg+xml</dc:format>
        <dc:type
           rdf:resource="http://purl.org/dc/dcmitype/StillImage" />
        <dc:title></dc:title>
      </cc:Work>
    </rdf:RDF>
  </metadata>
  <g
     inkscape:label="Layer 1"
     inkscape:groupmode="layer"
     id="layer1"
     transform="translate(0,-752.36216)">
    <path
       style="fill:#000000"
       d="m 211.39693,1036.2256 c -1.87158,-0.7552 -2.81559,-6.3596 -2.81559,-16.7157 -0.43543,-9.4004 -5.23949,-35.64696 -14.39264,-34.19806 -7.38918,1.41253 -20.25758,-3.02801 -28.24019,-9.74492 -6.59257,-5.54729 -13.37246,-25.22967 -10.36627,-30.09381 2.53968,-4.10929 7.94973,-2.5484 7.94973,2.29362 0,11.47131 12.93061,24.62209 24.21404,24.62633 4.02628,0.002 7.31674,-0.75746 7.3121,-1.6866 -0.018,-3.79109 -8.72519,-15.60071 -15.37533,-20.85586 -7.6335,-6.0322 -9.0729,-10.64185 -3.93824,-12.6122 6.29754,-2.41658 17.60786,6.38613 25.63721,19.95325 4.09312,6.91604 6.72281,7.8052 8.60186,2.90847 1.82227,-4.74879 -3.46445,-19.23887 -7.01932,-19.23887 -1.65838,0 -4.36123,-3.04083 -6.00634,-6.75741 -3.45695,-7.80978 -3.82381,-7.89274 -14.7379,-3.33255 -6.49673,2.71452 -13.13915,3.10668 -32.02533,1.8907 -20.6388,-1.3288 -23.4684,-1.09819 -21.13842,1.72274 2.17422,2.63237 0.99097,5.40133 -6.17035,14.43969 -8.86646,11.19045 -11.38438,19.06886 -6.0927,19.0637 3.73311,-0.005 13.458,-8.60299 18.46481,-16.32765 4.94309,-7.62638 9.72497,-7.96081 11.52077,-0.8057 3.07908,12.26795 -11.56032,26.74957 -30.02594,29.70235 -10.55572,1.68793 -11.75492,3.70646 -13.08876,22.03188 -1.12927,15.5145 -2.70963,25.8532 -4.360104,28.5237 -1.94965,3.1546 -7.17227,2.7126 -8.48888,-0.7185 -1.53449,-3.9988 0.13515,-27.3876 2.89992,-40.62252 2.15847,-10.33262 1.9321,-11.29334 -4.49958,-19.09607 -5.43433,-6.5928 -6.77238,-10.33987 -6.77238,-18.96522 0.117134,-8.38382 6.325378,-18.90771 11.4979,-24.51614 5.71526,-6.1182 6.538384,-8.21394 4.50494,-11.46997 -7.591993,-14.32201 -8.344423,-45.66236 -1.83205,-60.35683 4.603374,-9.36964 12.484834,-13.51481 25.696464,-13.51481 8.73189,0 9.68705,-0.53469 9.68705,-5.42271 0,-4.99081 -1.00408,-5.48415 -12.60691,-6.19429 -9.22651,-0.63268 -37.492218,6.48556 -40.704804,-0.94624 -3.46538,-9.03064 1.96397,-9.82159 71.354234,-10.39507 36.53378,-0.30194 67.69206,0.23874 69.24064,1.20149 1.54857,0.96275 2.81558,3.21107 2.81558,4.99624 0,2.62933 -4.70568,3.24577 -24.77715,3.24577 l -24.77716,0 0,6.65534 c 0,5.8705 0.92969,6.80018 7.88364,7.88364 4.33601,0.67556 11.43894,1.78247 15.78433,2.45979 12.9312,2.01562 15.87006,8.98516 15.1104,35.8347 -0.51228,18.10597 -1.65651,24.65471 -5.73934,32.8479 l -5.0995,10.23335 7.47315,6.52171 c 14.22423,12.41326 17.567,25.93969 9.62827,38.9604 -4.78104,7.84163 -5.98501,19.59508 -2.24404,21.90713 3.73722,8.61021 2.49892,18.37851 4.59143,27.68211 1.516,6.5722 1.47304,11.0745 -0.13425,14.0779 -2.42109,4.5239 -3.50151,4.9 -8.39894,2.9238 z m -101.9242,-92.02705 c 0,-1.96863 4.84177,-6.56786 9.85597,-9.36227 3.88289,-2.16393 3.73479,-2.47747 -1.82968,-3.87407 -4.74618,-1.19121 -7.94462,-0.0225 -14.80151,5.4082 -10.744664,8.50994 -13.028124,14.55385 -7.716194,20.42345 3.85095,4.25527 4.04624,4.18277 9.212884,-3.42062 2.90319,-4.27244 5.27853,-8.40103 5.27853,-9.17469 z m 65.28075,-27.33699 c 1.82359,-1.84579 -10.50344,-10.87517 -19.08179,-13.97713 -7.28331,-2.63368 -8.43563,-2.33131 -19.49273,5.11499 -7.69004,5.17879 -10.6382,8.30792 -8.5298,9.05344 8.85299,3.13044 43.96338,2.98783 47.10432,-0.19123 z m -54.53733,-12.03981 c 2.65953,-2.47771 5.70036,-4.50493 6.7574,-4.50493 1.05706,0 3.93849,-1.77382 6.40318,-3.94182 6.29462,-5.53691 13.74031,-9.57299 17.6601,-9.57299 3.04851,0 27.64515,14.52785 34.56271,20.41425 4.23883,3.60697 9.46699,-1.46444 9.46699,-9.18315 0,-5.17433 -1.53558,-6.85143 -9.01231,-9.84304 -12.45759,-4.98453 -21.48039,-14.27164 -24.87349,-25.6021 -2.635,-8.79904 -3.47986,-9.57299 -10.45019,-9.57299 -6.70526,0 -7.74784,0.82213 -9.00332,7.09956 -1.72818,8.64094 -15.14605,22.13029 -27.59844,27.74556 -9.64601,4.34975 -10.52366,6.32687 -6.96427,15.68878 2.64028,6.94448 6.55419,7.32618 13.05164,1.27287 z m -2.919,-32.09767 c 8.46719,-5.52902 13.8072,-13.43478 11.54595,-17.09353 -1.81972,-2.94441 -17.22965,-0.57312 -21.04046,3.23769 -3.3751,3.37508 -3.82765,18.92389 -0.5508,18.92389 1.25625,0 5.77664,-2.28062 10.04531,-5.06805 z m 82.20269,-3.3787 c -0.0939,-11.08393 -4.1534,-16.01873 -13.7063,-16.6621 -18.26278,-1.22991 -17.76988,11.5778 0.84175,21.87244 9.68949,5.35954 12.943,4.04183 12.86455,-5.21034 z m -40.88631,-33.78703 c -0.55981,-4.86526 -2.04175,-6.34721 -6.90702,-6.90701 -5.56567,-0.6404 -6.19429,-0.0113 -6.19429,6.19428 0,6.20607 0.70095,6.90702 6.90702,6.90702 6.20607,0 6.83469,-0.62862 6.19429,-6.19429 z M 86.575546,815.19369 c -5.83909,-0.71302 -9.82006,-5.74465 -7.50664,-9.48782 0.62992,-1.01927 5.18915,-2.53642 10.1316,-3.37143 13.835934,-2.20932 33.627374,-11.86809 33.787034,-24.17212 0,-9.20575 5.48499,-14.12516 9.20271,-8.25379 3.84343,6.06991 2.36802,24.23388 -2.35185,28.95375 -9.78193,9.78191 -31.074584,17.81975 -43.262854,16.33141 z m 98.776764,-9.57896 c -15.94556,-2.67859 -21.25826,-7.00394 -23.01825,-18.7404 -2.14083,-14.27605 -0.87348,-18.32692 5.73368,-18.32692 4.27674,0 5.47409,1.06472 5.06619,4.50494 -1.51744,12.7979 3.84935,16.74888 27.56377,20.29235 14.1446,2.11354 16.89351,3.37197 16.89351,7.73374 0,6.45064 -11.34214,8.04658 -32.2389,4.53629 z"
       id="path4272"
       inkscape:connector-curvature="0"
       sodipodi:nodetypes="cccsssccsssssssssscssssssssccccssccsssscssssscsscccccssssssscsssccsssssssssssssssssssssssssssscccssssssssss" />
  </g>
</svg>
