<?xml version="1.0" encoding="UTF-8" standalone="no"?>
<!-- Created with Inkscape (http://www.inkscape.org/) -->

<svg
   xmlns:dc="http://purl.org/dc/elements/1.1/"
   xmlns:cc="http://creativecommons.org/ns#"
   xmlns:rdf="http://www.w3.org/1999/02/22-rdf-syntax-ns#"
   xmlns:svg="http://www.w3.org/2000/svg"
   xmlns="http://www.w3.org/2000/svg"
   xmlns:sodipodi="http://sodipodi.sourceforge.net/DTD/sodipodi-0.dtd"
   xmlns:inkscape="http://www.inkscape.org/namespaces/inkscape"
   width="300"
   height="300"
   id="svg2"
   version="1.1"
   inkscape:version="0.48.4 r9939"
   sodipodi:docname="image-seal.svg">
  <defs
     id="defs4" />
  <sodipodi:namedview
     id="base"
     pagecolor="#ffffff"
     bordercolor="#666666"
     borderopacity="1.0"
     inkscape:pageopacity="0.0"
     inkscape:pageshadow="2"
     inkscape:zoom="1.979899"
     inkscape:cx="162.37035"
     inkscape:cy="145.59431"
     inkscape:document-units="px"
     inkscape:current-layer="layer1"
     showgrid="false"
     inkscape:window-width="1215"
     inkscape:window-height="1000"
     inkscape:window-x="65"
     inkscape:window-y="24"
     inkscape:window-maximized="1"
     fit-margin-top="10"
     fit-margin-left="10"
     fit-margin-right="10"
     fit-margin-bottom="10" />
  <metadata
     id="metadata7">
    <rdf:RDF>
      <cc:Work
         rdf:about="">
        <dc:format>image/svg+xml</dc:format>
        <dc:type
           rdf:resource="http://purl.org/dc/dcmitype/StillImage" />
        <dc:title />
      </cc:Work>
    </rdf:RDF>
  </metadata>
  <g
     inkscape:label="Calque 1"
     inkscape:groupmode="layer"
     id="layer1"
     transform="translate(0,-752.36218)">
    <path
       style="fill:#000000"
       d="m 199.23445,1046.9358 c -2.85807,-3.6151 -4.80267,-10.9637 -9.05452,-34.2169 -3.32103,-18.16264 0.17346,-25.60095 23.22002,-49.42706 l 16.21626,-16.76467 0.0458,-16.92391 c 0.068,-25.11435 -3.79244,-28.34908 -33.83359,-28.34908 -25.90062,0 -28.39315,-1.31395 -35.23225,-18.57289 -2.98416,-7.53079 -2.98917,-10.77937 -0.0293,-18.97251 4.71285,-13.04533 9.73626,-16.46347 24.42008,-16.61636 11.48222,-0.11953 26.95593,-4.16564 34.55707,-9.03596 1.86337,-1.19394 3.38795,-6.81167 3.38795,-12.48386 0,-10.21431 -0.12034,-10.32958 -12.5749,-12.03667 -6.91621,-0.94795 -17.09428,-1.72357 -22.61796,-1.72357 -6.18388,0 -11.63086,-1.82263 -14.17502,-4.74313 -4.49117,-5.15553 -8.80812,-46.75368 -4.85194,-46.75368 8.50358,0 10.85409,3.84329 10.85409,17.74735 0,7.95138 1.31089,15.2672 2.91306,16.2574 1.6022,0.99023 11.05458,2.3507 21.00528,3.02327 23.48956,1.58768 30.90979,6.77311 33.7255,23.56814 1.569,9.3587 1.04251,14.67342 -2.04507,20.64418 -5.38353,10.41056 -10.89469,13.16071 -30.24294,15.09154 -24.46838,2.44184 -28.12739,3.65427 -30.57363,10.13078 -5.0434,13.35269 11.06718,23.57196 37.3955,23.72073 8.38948,0.0474 17.20055,1.57198 19.58017,3.38795 8.96564,6.84192 13.48696,20.44404 12.97546,39.03604 l -0.49619,18.03627 -20.03312,20.54598 c -11.01823,11.30032 -20.76428,23.44598 -21.65791,26.99059 -0.91987,3.64863 1.02145,14.51643 4.47472,25.04993 3.35472,10.233 5.39383,20.4442 4.53137,22.6917 -1.90354,4.9605 -8.22098,5.3318 -11.88411,0.6984 z m -81.03705,-4.107 c -9.03062,-5.8077 -28.072861,-57.90732 -28.072861,-76.80733 0,-10.939 7.84686,-37.78085 13.286581,-45.44962 15.70476,-22.13999 20.85892,-41.00555 13.27493,-48.58954 -6.21922,-6.21921 -12.11696,-3.40776 -17.341231,8.2666 -5.57873,12.46645 -38.07235,46.20589 -42.87193,44.51568 -5.63028,-1.98279 -1.04693,-11.40194 11.82529,-24.30183 13.69948,-13.72897 22.43047,-28.75647 27.09776,-46.63985 3.14659,-12.05662 3.84402,-33.87948 1.08273,-33.87948 -1.98265,0 -17.4173,11.45037 -23.11521,17.14825 -2.02314,2.02318 -6.41563,5.14337 -9.76105,6.9338 -5.00533,2.67876 -6.36211,2.5269 -7.6608,-0.85747 -1.6163,-4.21195 1.39827,-8.23383 11.39637,-15.20441 3.11974,-2.17506 11.35245,-8.72031 18.29492,-14.545 l 12.62271,-10.59037 0,-19.98621 c 0,-21.24116 3.616461,-26.93701 12.448891,-19.60673 3.32561,2.76001 4.06389,7.95669 3.39782,23.91682 l -0.85097,20.39065 8.56928,1.7526 c 10.07896,2.06136 30.64215,17.54472 30.64215,23.07244 0,5.55561 -11.02206,4.63601 -18.97251,-1.58293 -3.72674,-2.9151 -8.30047,-5.32729 -10.16385,-5.36044 -1.86337,-0.0331 -3.38794,-1.27994 -3.38794,-2.77064 0,-1.49069 -1.68726,-2.71036 -3.74943,-2.71036 -8.12091,0 -10.28015,34.19754 -2.34888,37.20084 8.5833,3.25018 22.36046,22.12042 22.36046,30.62656 0,5.51783 -4.44919,16.12503 -7.92927,18.90407 -0.93339,0.74535 -5.40334,6.23382 -9.93327,12.19661 -19.632781,25.84291 -19.619741,65.28565 0.0322,97.46249 4.58921,7.5142 9.25878,14.0686 10.3768,14.5657 3.73574,1.6604 2.0882,10.6918 -2.25442,12.3582 -5.15109,1.9769 -4.50237,2.0102 -8.2953,-0.4291 z m 18.4815,-104.22472 c 0.85945,-6.05773 1.55143,-6.18078 34.75638,-6.18078 32.07257,0 33.87948,0.28912 33.87948,5.42072 0,5.0994 -2.06025,5.46576 -34.75639,6.18078 l -34.75638,0.76004 0.87691,-6.18076 z"
       id="path3028"
       inkscape:connector-curvature="0" />
  </g>
</svg>
