<?xml version="1.0" standalone="no"?>
<!DOCTYPE svg PUBLIC "-//W3C//DTD SVG 20010904//EN"
 "http://www.w3.org/TR/2001/REC-SVG-20010904/DTD/svg10.dtd">
<svg version="1.0" xmlns="http://www.w3.org/2000/svg"
 width="70.000000pt" height="83.000000pt" viewBox="0 0 70.000000 83.000000"
 preserveAspectRatio="xMidYMid meet">
<metadata>
Created by potrace 1.12, written by Peter Selinger 2001-2015
</metadata>
<g transform="translate(0.000000,83.000000) scale(0.100000,-0.100000)"
fill="#000000" stroke="none">
<path d="M172 728 c4 -10 52 -14 179 -18 l174 -5 0 -25 0 -25 -150 -8 c-180
-10 -201 -17 -215 -66 -15 -56 -13 -524 3 -519 9 4 13 68 17 261 4 189 8 259
18 269 14 14 125 26 249 27 91 1 113 13 113 61 0 56 -13 60 -212 60 -139 0
-179 -3 -176 -12z"/>
<path d="M340 511 c-104 -16 -115 -41 -100 -241 12 -148 23 -201 40 -184 7 7
4 64 -6 157 -23 211 -14 237 81 237 38 0 40 -3 49 -95 6 -62 73 -275 87 -275
15 0 11 26 -21 129 -34 110 -53 232 -37 243 6 3 24 4 41 2 35 -5 62 8 52 25
-8 12 -110 13 -186 2z"/>
</g>
</svg>
