<?xml version="1.0" encoding="UTF-8" standalone="no"?>
<svg
   xmlns:dc="http://purl.org/dc/elements/1.1/"
   xmlns:cc="http://creativecommons.org/ns#"
   xmlns:rdf="http://www.w3.org/1999/02/22-rdf-syntax-ns#"
   xmlns:svg="http://www.w3.org/2000/svg"
   xmlns="http://www.w3.org/2000/svg"
   viewBox="0 0 300 300"
   height="300"
   width="300"
   id="svg10"
   version="1.1">
  <metadata
     id="metadata16">
    <rdf:RDF>
      <cc:Work
         rdf:about="">
        <dc:format>image/svg+xml</dc:format>
        <dc:type
           rdf:resource="http://purl.org/dc/dcmitype/StillImage" />
        <dc:title></dc:title>
      </cc:Work>
    </rdf:RDF>
  </metadata>
  <defs
     id="defs14" />
  <path
     id="path20"
     d="m 76.814927,200.54429 c -0.179283,-21.29479 3.498998,-54.19741 16.780257,-64.57726 13.363036,-10.44375 30.718886,-12.30464 56.742986,-12.49404 29.00452,-0.21109 44.35786,0.0168 57.52725,10.16482 20.27479,15.69455 19.78718,47.04907 19.64529,68.72809 -0.17213,26.29695 -1.74536,52.22521 -17.62304,66.73214 -11.33509,10.3565 -27.54498,15.8654 -58.48401,15.9014 -31.6976,0.0369 -45.06498,-1.71994 -58.067748,-17.15639 C 77.831645,249.43692 77.009374,223.64018 76.814927,200.54429 Z m 118.997953,63.87526 -46.24151,-52.37989 -44.28654,51.59233 c 7.7662,8.55075 29.26965,9.06311 45.92809,9.31811 14.89506,0.22802 34.83486,-0.80012 44.59996,-8.53055 z m -54.05952,-15.20087 c 0.0842,-7.95807 6.95405,-11.57402 12.91123,-11.24309 7.42004,0.4122 13.10278,4.73872 12.86265,11.02629 -0.29515,7.72813 -6.20127,11.93364 -12.20705,11.95217 -8.0016,0.0246 -13.64054,-4.76953 -13.56683,-11.73537 z m 63.69208,-102.28891 -47.07908,54.87894 46.35111,53.65587 c 10.10804,-13.41462 9.53004,-37.42795 9.75487,-52.67403 0.28111,-19.06266 -0.76524,-45.2183 -9.0269,-55.86078 z m -21.05579,53.14375 c 1.83725,-5.63588 8.3269,-8.59383 12.63948,-8.22239 8.20755,0.70692 13.19383,5.19443 12.62904,13.19605 -0.1041,6.6573 -6.82453,11.08094 -13.11588,10.66757 -8.39716,-0.80757 -14.11926,-9.0065 -12.15264,-15.64123 z m -42.5221,3.73691 -44.54246,-50.61912 c -8.291119,9.11466 -8.473439,32.02649 -8.707172,47.69122 -0.273957,18.36053 1.382432,39.89206 10.089834,53.28486 z m -40.77396,0.68853 c -0.0365,-8.46946 7.09227,-11.88201 13.63186,-12.03331 7.15833,-0.16563 13.14951,5.7818 13.01281,12.36777 -0.13463,6.48617 -7.80124,10.09466 -14.04721,10.27873 -6.42996,0.1895 -12.43296,-5.34917 -12.59746,-10.61319 z m 94.50258,-62.80893 c -8.95047,-6.1364 -25.20554,-6.35435 -44.82894,-6.1068 -21.58323,0.27227 -33.59857,1.26304 -43.24794,7.32476 l 43.49439,50.19351 z m -51.13929,15.63262 c -9.5e-4,-7.1437 6.31437,-10.88511 12.45797,-10.89591 6.12163,-0.0107 13.18003,3.98504 13.17304,10.37553 -0.0102,9.37815 -7.06115,12.70515 -13.92097,12.73944 -7.55719,-0.0398 -11.70865,-5.16309 -11.71004,-12.21906 z M 101.88768,99.783063 C 81.16081,99.751193 72.128119,78.953833 72.466617,56.78492 c 0.09475,-6.205121 1.269738,-15.593141 6.988496,-16.094851 4.829654,-0.423709 5.371004,6.853187 5.341264,10.609591 -0.172873,21.834997 2.49445,36.367113 16.788383,36.542003 -0.94535,-33.076742 -0.99025,-42.388777 -3.229365,-63.262355 -0.480089,-4.475508 0.194799,-9.431643 3.165225,-9.572098 5.19607,-0.245695 7.03185,5.852327 7.94215,8.471965 3.46258,20.708064 3.97676,42.216178 4.14407,63.142488 13.53641,-1.243505 14.34341,-11.592838 15.78037,-33.080713 0.35819,-5.356159 0.49506,-13.25944 6.51122,-13.428962 4.14465,1.139904 5.23247,5.115104 5.3289,9.141439 0.1183,21.758275 -4.89845,49.010386 -27.78913,50.526196 -0.1858,8.067127 0.95112,22.474897 -6.32983,22.439927 -5.63236,-0.027 -5.03511,-15.8501 -5.22069,-22.436487 z m 85.18906,0.349537 c -24.54333,-1.542007 -31.88685,-27.58317 -29.8817,-47.324808 0.62997,-5.911232 1.07485,-12.059051 5.80949,-12.290403 7.02013,-0.343032 5.57189,7.638498 5.42123,12.239482 -0.40828,13.518914 3.9001,33.537568 18.43754,33.921732 0.0844,-12.154439 1.02274,-39.496741 4.9106,-57.585244 1.25733,-5.84982 4.46574,-13.668053 9.64911,-12.567748 5.43307,1.153308 4.01811,9.519957 3.3837,13.413438 -3.48181,18.556871 -5.11956,39.832758 -5.21487,56.237143 15.19205,-2.156158 15.71469,-22.362525 17.03674,-37.030177 0.82324,-9.133636 10.2889,-10.613842 10.77552,-0.846238 0.15649,28.605196 -7.97712,48.469956 -28.49714,51.549676 -0.14028,7.517237 0.75643,21.181627 -6.47918,20.836307 -5.81847,-0.27769 -5.21823,-14.20338 -5.35104,-20.55316 z"
     style="fill:#000000;stroke-width:0.68866467" />
</svg>
