<?xml version="1.0" encoding="UTF-8" standalone="no"?>
<!-- Created with Inkscape (http://www.inkscape.org/) -->

<svg
   xmlns:dc="http://purl.org/dc/elements/1.1/"
   xmlns:cc="http://creativecommons.org/ns#"
   xmlns:rdf="http://www.w3.org/1999/02/22-rdf-syntax-ns#"
   xmlns:svg="http://www.w3.org/2000/svg"
   xmlns="http://www.w3.org/2000/svg"
   xmlns:sodipodi="http://sodipodi.sourceforge.net/DTD/sodipodi-0.dtd"
   xmlns:inkscape="http://www.inkscape.org/namespaces/inkscape"
   version="1.0"
   width="300"
   height="300"
   id="svg2"
   inkscape:version="0.48.3.1 r9886"
   sodipodi:docname="dessin.svg">
  <metadata
     id="metadata2990">
    <rdf:RDF>
      <cc:Work
         rdf:about="">
        <dc:format>image/svg+xml</dc:format>
        <dc:type
           rdf:resource="http://purl.org/dc/dcmitype/StillImage" />
      </cc:Work>
    </rdf:RDF>
  </metadata>
  <sodipodi:namedview
     pagecolor="#ffffff"
     bordercolor="#666666"
     borderopacity="1"
     objecttolerance="10"
     gridtolerance="10"
     guidetolerance="10"
     inkscape:pageopacity="0"
     inkscape:pageshadow="2"
     inkscape:window-width="1215"
     inkscape:window-height="1000"
     id="namedview2988"
     showgrid="false"
     inkscape:zoom="1.5733333"
     inkscape:cx="93.546195"
     inkscape:cy="168.26148"
     inkscape:window-x="65"
     inkscape:window-y="24"
     inkscape:window-maximized="1"
     inkscape:current-layer="svg2" />
  <defs
     id="defs5" />
  <path
     style="fill:#000000"
     d="m 96.527946,275.69007 c 0,-3.25194 1.23393,-6.60776 2.742046,-7.45737 6.451678,-3.63458 19.919448,-37.86719 24.281458,-61.71903 8.20662,-44.87466 4.22433,-69.31506 -9.28734,-56.99881 -8.53349,7.77849 -13.29752,29.32454 -11.5229,52.11379 1.75843,22.58108 -0.56939,28.74238 -7.656938,20.26648 -6.576176,-7.86435 -4.395782,-44.72145 3.919136,-66.24823 7.833542,-20.28052 15.282512,-26.23647 27.512482,-21.99803 15.41543,5.3424 16.3093,33.67989 3.08161,97.69262 -1.03234,4.99583 -2.91633,9.08334 -4.18661,9.08334 -1.27031,0 -2.30964,1.77266 -2.30964,3.93923 0,4.97268 -15.48767,33.00245 -19.55163,35.38484 -5.242407,3.07321 -7.021674,2.04474 -7.021674,-4.05883 z m 116.705664,-4.65505 c -5.23462,-4.47024 -12.35179,-11.82377 -15.81594,-16.34118 -3.46418,-4.5174 -7.0562,-8.75845 -7.98228,-9.42457 -0.92608,-0.66609 -2.99465,-3.39109 -4.59681,-6.05557 -2.52848,-4.20493 -5.65556,-4.84444 -23.68888,-4.84444 -19.4236,0 -20.83029,-0.34916 -21.61269,-5.3644 -0.90854,-5.82407 1.97286,-6.92853 22.8664,-8.76495 6.27012,-0.55113 12.20685,-1.73725 13.19267,-2.63587 3.84858,-3.50808 -4.39159,-9.93958 -14.20918,-11.09037 -13.41994,-1.57303 -15.19857,-7.75396 -3.16049,-10.98304 7.59642,-2.03762 8.63438,-3.27607 8.05089,-9.60589 -0.36844,-3.99667 0.45541,-8.85834 1.83076,-10.8037 2.14216,-3.02996 3.28582,-2.88933 7.97751,0.98098 3.0123,2.48488 5.47689,7.21667 5.47689,10.51506 0,5.58207 0.68963,5.8932 9.965,4.49572 5.48074,-0.82577 13.25342,-1.5134 17.27263,-1.52805 4.037,-0.0133 7.32589,-1.38181 7.34837,-3.05445 0.0212,-1.66527 1.12704,-4.59272 2.4548,-6.50537 3.83672,-5.52691 10.79115,1.35549 10.79115,10.67941 0,16.81198 -9.23736,30.71844 -24.53617,36.93809 l -7.26351,2.95294 5.20211,8.0369 c 2.86118,4.42026 11.26025,13.85721 18.66462,20.97095 7.40435,7.11375 13.02152,14.15629 12.48257,15.65008 -2.01336,5.58045 -11.49838,3.64857 -20.71042,-4.21828 z m -5.06478,-60.92011 c 3.8896,-3.77396 5.32807,-6.94291 3.78488,-8.33801 -3.59488,-3.24987 -25.07658,-0.12634 -25.07658,3.64649 0,11.92499 11.27592,14.40959 21.2917,4.69152 z M 67.540649,274.52435 c -3.086208,-1.78094 -3.391755,-8.04091 -1.742038,-35.69076 1.100337,-18.44208 2.468976,-43.88603 3.041393,-56.54219 0.572415,-12.65615 1.56102,-29.55117 2.196894,-37.54451 0.635871,-7.99335 1.892868,-24.88837 2.793331,-37.5445 4.18014,-58.752878 10.704522,-64.776246 70.529621,-65.113458 38.70069,-0.218147 57.65061,-2.315961 62.72809,-6.944211 3.56288,-3.247669 3.12899,-4.130144 -3.96373,-8.061888 -9.40608,-5.214087 -40.53051,-6.989304 -81.35163,-4.63998 -30.624478,1.762488 -35.873955,1.048306 -35.873955,-4.880584 0,-3.750152 3.636609,-4.498672 28.566295,-5.879772 38.14503,-2.1132295 88.74847,-0.218921 96.64863,3.617984 8.87454,4.310145 12.78345,9.648235 12.8817,17.591488 0.17059,13.787174 -7.7197,16.13897 -59.70542,17.79613 -35.71518,1.138498 -61.99766,5.126228 -69.07535,10.480506 -6.072264,4.593655 -9.142755,22.535795 -10.779537,62.989365 -3.20397,79.18538 -3.657817,88.58426 -5.086077,105.32843 -2.848021,33.38861 -4.723777,47.27126 -6.382136,47.23473 -0.925867,-0.0198 -3.367607,-1.00897 -5.426081,-2.19678 z M 197.50644,177.58989 c 0,-1.2536 1.19581,-2.95293 2.65734,-3.7763 1.46152,-0.82336 2.65733,-3.61267 2.65733,-6.1985 0,-2.58584 0.99044,-4.70151 2.20093,-4.70151 6.00618,0 10.74014,-42.14732 6.76756,-60.25286 l -1.66084,-7.569457 -20.80141,0 c -26.60179,0 -34.33817,-3.004508 -34.33817,-13.33563 0,-9.186843 5.34067,-13.867033 20.23826,-17.735414 21.23444,-5.51383 48.8523,-2.629525 48.8523,5.101947 0,0.561781 -10.60049,1.707292 -23.55663,2.545581 -24.89373,1.610674 -32.2473,3.158362 -32.2473,6.787039 0,3.953792 13.21647,6.947573 30.67104,6.947573 23.97404,0 26.17863,3.431465 25.84343,40.225221 -0.28273,31.03539 -5.65213,46.25732 -18.14742,51.44686 -8.1518,3.38559 -9.13642,3.44115 -9.13642,0.51545 z m -46.56543,-14.85487 c -1.7285,-4.96422 3.05209,-19.19924 6.44776,-19.19924 2.27063,0 7.45094,-17.38847 9.56147,-32.09449 1.64027,-11.42911 7.02242,-15.559299 10.25853,-7.87224 1.00443,2.38588 5.15383,3.63334 12.08546,3.63334 9.71827,0 16.10891,3.2983 12.59559,6.50077 -0.80494,0.73371 -6.96555,1.89931 -13.69024,2.59022 -10.58545,1.08757 -12.11913,1.94363 -11.42493,6.37707 0.67494,4.31037 2.90473,5.2397 14.08846,5.87174 14.04525,0.79375 20.13361,3.70258 15.81113,7.55408 -1.55231,1.38317 -7.53885,1.38518 -15.54573,0.005 -9.06262,-1.56192 -14.11181,-1.41921 -16.60831,0.46941 -5.46818,4.13667 -4.41896,6.05305 5.71361,10.43586 6.90227,2.98557 9.30065,5.55523 9.30065,9.9649 0,7.06203 -6.10938,7.91447 -11.14296,1.55477 -5.87734,-7.42576 -10.18098,-8.55598 -14.19396,-3.72764 -2.04856,2.4648 -3.7627,6.38895 -3.80918,8.72034 -0.11795,5.91364 -7.32346,5.31559 -9.44735,-0.78412 z M 96.527946,124.47669 c 0,-1.15694 5.381094,-7.00852 11.957984,-13.00353 7.91937,-7.21872 11.95798,-12.985918 11.95798,-17.07619 0,-8.774799 -2.60455,-13.839061 -7.11744,-13.839061 -5.69926,0 -12.23719,-6.827914 -10.49669,-10.962265 1.76375,-4.189655 8.53728,-4.738009 11.13838,-0.901713 0.99544,1.468154 5.55122,4.094292 10.12396,5.835864 7.73425,2.945678 8.37083,4.110821 9.12863,16.708432 0.50357,8.371022 -0.25829,13.541943 -1.99513,13.541943 -1.54535,0 -2.80973,1.93645 -2.80973,4.30323 0,2.39273 -4.95521,7.23199 -11.16122,10.90001 -10.99526,6.49869 -20.726724,8.60834 -20.726724,4.49328 z"
     id="path3001"
     inkscape:connector-curvature="0" />
</svg>
