<?xml version="1.0" encoding="UTF-8" standalone="no"?>
<!-- Created with Inkscape (http://www.inkscape.org/) -->

<svg
   xmlns:dc="http://purl.org/dc/elements/1.1/"
   xmlns:cc="http://creativecommons.org/ns#"
   xmlns:rdf="http://www.w3.org/1999/02/22-rdf-syntax-ns#"
   xmlns:svg="http://www.w3.org/2000/svg"
   xmlns="http://www.w3.org/2000/svg"
   xmlns:sodipodi="http://sodipodi.sourceforge.net/DTD/sodipodi-0.dtd"
   xmlns:inkscape="http://www.inkscape.org/namespaces/inkscape"
   width="300"
   height="300"
   id="svg2"
   version="1.1"
   inkscape:version="0.48.4 r9939"
   sodipodi:docname="dessin.svg">
  <defs
     id="defs4" />
  <sodipodi:namedview
     id="base"
     pagecolor="#ffffff"
     bordercolor="#666666"
     borderopacity="1.0"
     inkscape:pageopacity="0.0"
     inkscape:pageshadow="2"
     inkscape:zoom="1.979899"
     inkscape:cx="218.29155"
     inkscape:cy="144.09165"
     inkscape:document-units="px"
     inkscape:current-layer="layer1"
     showgrid="false"
     inkscape:window-width="1215"
     inkscape:window-height="1000"
     inkscape:window-x="65"
     inkscape:window-y="24"
     inkscape:window-maximized="1" />
  <metadata
     id="metadata7">
    <rdf:RDF>
      <cc:Work
         rdf:about="">
        <dc:format>image/svg+xml</dc:format>
        <dc:type
           rdf:resource="http://purl.org/dc/dcmitype/StillImage" />
        <dc:title />
      </cc:Work>
    </rdf:RDF>
  </metadata>
  <g
     inkscape:label="Calque 1"
     inkscape:groupmode="layer"
     id="layer1"
     transform="translate(0,-752.36218)">
    <path
       style="fill:#000000"
       d="m 142.27465,1040.9104 c -2.66801,-3.2267 -1.62135,-61.18279 1.23724,-68.50851 3.25411,-8.33937 12.0422,-10.17528 37.20301,-7.77201 14.00879,1.33809 16.74753,2.39191 17.42645,6.70546 0.76401,4.85402 -0.35022,5.02626 -21.61347,3.34099 -12.33047,-0.97727 -22.4878,-0.8651 -22.5719,0.24931 -0.0841,1.11439 -0.54956,5.64898 -1.03437,10.07689 -0.87277,7.97126 -3.02745,43.94657 -3.17439,53.00067 -0.0752,4.6319 -4.59315,6.3896 -7.47257,2.9072 z M 67.571084,977.06037 c 0,-3.76753 10.662187,-17.55185 13.576358,-17.55185 0.779727,0 2.658463,-3.62283 4.174981,-8.05073 1.51652,-4.42791 3.419397,-8.05074 4.228614,-8.05074 0.809216,0 3.114916,-3.32092 5.123768,-7.37984 2.008873,-4.0589 6.967085,-11.61074 11.018275,-16.78185 9.61086,-12.26768 35.10228,-50.10966 35.10228,-52.1093 0,-0.85402 -1.104,-1.55274 -2.45332,-1.55274 -1.34935,0 -5.42,-3.01903 -9.04594,-6.70895 -3.62591,-3.68991 -8.08506,-6.70894 -9.90919,-6.70894 -8.63794,0 -13.78367,-15.94796 -14.47171,-44.85164 -0.5609,-23.56268 0.51916,-27.6635 5.87114,-22.29163 2.4579,2.46705 3.38201,8.68218 3.38201,22.74558 0,10.64304 0.62088,20.10185 1.3797,21.0196 1.42758,1.72653 19.08866,-8.36453 25.63792,-14.64882 3.22436,-3.09389 5.53004,-16.89443 6.20059,-37.11325 0.22762,-6.86293 3.5775,-10.99556 7.45443,-9.1963 2.89126,1.34181 3.70571,5.25453 3.70571,17.8025 0,14.59816 0.66567,16.87353 7.21148,24.65 10.60143,12.59456 22.81329,20.59979 25.84025,16.93896 1.34801,-1.63031 2.45095,-11.02809 2.45095,-20.88392 0,-18.7377 3.19901,-26.12301 9.95687,-22.98675 4.02965,1.87013 4.38252,16.5511 1.00897,41.9799 -3.08431,23.24882 -6.24377,26.64676 -27.78342,29.88094 -9.59895,1.44126 -17.79911,3.03951 -18.22262,3.55171 -3.00022,3.62849 37.50215,56.16603 56.07613,72.73897 14.47096,12.91195 18.90458,18.04022 18.90458,21.86646 0,7.43179 -6.97956,6.72531 -15.51514,-1.57048 -4.748,-4.6146 -10.18904,-8.39021 -12.09121,-8.39021 -1.90217,0 -3.4585,-1.30228 -3.4585,-2.89397 0,-1.59167 -4.24367,-7.69407 -9.43039,-13.5609 -18.63685,-21.08048 -28.2912,-32.95037 -28.2912,-34.78358 0,-1.02601 -2.97898,-5.7223 -6.61996,-10.43618 -5.91659,-7.66006 -6.97753,-8.13828 -9.98513,-4.50088 -1.85084,2.23843 -3.36517,5.40454 -3.36517,7.03583 0,1.63126 -10.98364,16.06145 -24.40809,32.06706 -13.42445,16.0056 -24.40922,30.15423 -24.410599,31.44136 -0.0044,3.85021 -23.069594,33.24318 -26.06977,33.22144 -1.525506,-0.0112 -2.773647,-1.78264 -2.773647,-3.93686 z M 178.13051,840.10943 c 0.81891,-0.9904 -0.50653,-3.4722 -2.94542,-5.51512 -2.43889,-2.04295 -5.4628,-4.66135 -6.71979,-5.81865 -10.59347,-9.75337 -23.23211,-13.20062 -23.23211,-6.33662 0,1.04627 -3.99405,4.61718 -8.87566,7.93531 -10.76122,7.31468 -11.17882,10.31744 -1.6642,11.96685 9.65032,1.67294 41.56437,0.0332 43.43718,-2.23177 z m -40.1088,93.11159 c -8.23773,-0.43643 -14.97769,-1.90346 -14.97769,-3.26006 0,-5.60336 9.92105,-8.02253 32.90048,-8.02253 20.12661,0 24.54864,0.73144 25.66343,4.24487 0.74076,2.33465 1.34686,4.65076 1.34686,5.14693 0,1.51193 -29.02801,2.73344 -44.93308,1.89079 z"
       id="path3106"
       inkscape:connector-curvature="0" />
  </g>
</svg>
