<?xml version="1.0" encoding="UTF-8" standalone="no"?>
<!-- Created with Inkscape (http://www.inkscape.org/) -->

<svg
   xmlns:dc="http://purl.org/dc/elements/1.1/"
   xmlns:cc="http://creativecommons.org/ns#"
   xmlns:rdf="http://www.w3.org/1999/02/22-rdf-syntax-ns#"
   xmlns:svg="http://www.w3.org/2000/svg"
   xmlns="http://www.w3.org/2000/svg"
   xmlns:sodipodi="http://sodipodi.sourceforge.net/DTD/sodipodi-0.dtd"
   xmlns:inkscape="http://www.inkscape.org/namespaces/inkscape"
   width="300"
   height="300"
   id="svg2"
   version="1.1"
   inkscape:version="0.48.4 r9939"
   sodipodi:docname="dessin.svg">
  <defs
     id="defs4" />
  <sodipodi:namedview
     id="base"
     pagecolor="#ffffff"
     bordercolor="#666666"
     borderopacity="1.0"
     inkscape:pageopacity="0.0"
     inkscape:pageshadow="2"
     inkscape:zoom="1.979899"
     inkscape:cx="218.29155"
     inkscape:cy="144.09165"
     inkscape:document-units="px"
     inkscape:current-layer="layer1"
     showgrid="false"
     inkscape:window-width="1215"
     inkscape:window-height="1000"
     inkscape:window-x="65"
     inkscape:window-y="24"
     inkscape:window-maximized="1" />
  <metadata
     id="metadata7">
    <rdf:RDF>
      <cc:Work
         rdf:about="">
        <dc:format>image/svg+xml</dc:format>
        <dc:type
           rdf:resource="http://purl.org/dc/dcmitype/StillImage" />
        <dc:title />
      </cc:Work>
    </rdf:RDF>
  </metadata>
  <g
     inkscape:label="Calque 1"
     inkscape:groupmode="layer"
     id="layer1"
     transform="translate(0,-752.36218)">
    <path
       style="fill:#000000"
       d="m 74.923276,1027.3863 c -3.398407,-1.6891 -7.408885,-7.0863 -8.912165,-11.9936 -2.749286,-8.9749 -6.87227,-79.30604 -6.995358,-119.32901 -0.06097,-19.82465 3.669424,-72.09556 5.27476,-73.91081 1.668693,-1.88689 8.851737,2.78545 11.830001,7.69505 2.338327,3.85467 2.527339,10.65677 0.671061,24.15092 -2.576111,18.72706 -1.304231,108.09978 1.751541,123.07739 2.109339,10.33872 4.020845,9.91803 11.915457,-2.62235 6.533786,-10.37875 6.554786,-10.68796 3.731454,-54.92965 -1.56161,-24.47071 -2.294582,-47.18025 -1.628809,-50.46563 0.665785,-3.28542 1.734964,-26.62093 2.375983,-51.8567 0.641005,-25.23577 1.237505,-48.14154 1.325533,-50.9017 0.206126,-6.46039 8.253036,-6.48596 12.830926,-0.0407 2.51629,3.54273 2.72065,6.54522 0.7088,10.41521 -1.78482,3.43333 -2.18374,21.41713 -1.08233,48.79168 2.34211,58.20956 2.32893,53.57922 0.25488,89.64908 -1.24582,21.66649 -0.87171,32.57089 1.1618,33.86475 1.64965,1.04956 2.9993,4.21482 2.9993,7.03388 0,6.35074 7.18029,21.50559 12.2357,25.82491 5.78923,4.94631 6.58217,-6.06464 4.73135,-65.70137 -2.06824,-66.64382 -0.59248,-89.94286 5.77586,-91.18687 2.67117,-0.52178 5.37231,1.48012 6.3719,4.7225 0.95433,3.09551 1.94702,42.20548 2.20597,86.91104 0.52433,90.51828 -0.82662,99.70638 -16.00019,108.82188 -9.60483,5.7701 -43.393789,7.0199 -53.533477,1.9802 z m 49.628604,-16.9719 c 3.4844,-5.6631 3.25826,-6.4605 -4.44842,-15.68591 -3.82824,-4.58273 -6.96201,-9.86913 -6.9639,-11.74761 -0.008,-9.08466 -7.38803,-5.78029 -21.009429,9.40814 -12.051233,13.43768 -14.31828,17.46268 -11.67934,20.73618 4.315682,5.3534 40.508159,3.1287 44.101089,-2.7108 z m 23.25376,10.6359 c -4.42389,-3.3302 -4.64933,-4.619 -1.49286,-8.5344 2.04481,-2.5365 6.07138,-4.6119 8.94792,-4.6119 3.07361,0 5.28451,-2.0692 5.36214,-5.0185 0.13233,-5.03004 -0.50368,-58.54777 -1.52535,-128.32957 -0.55583,-37.9643 1.71188,-51.74343 9.54204,-57.97975 2.69188,-2.14396 14.22099,-3.52865 29.84594,-3.58463 l 25.45966,-0.0912 5.45562,12.18774 c 4.46032,9.96427 5.17774,16.11143 3.9326,33.69549 -0.83764,11.82925 -1.58775,50.54321 -1.66689,86.03102 l -0.14401,64.5233 10.61626,0.9005 c 9.11692,0.7733 10.49379,1.7858 9.74946,7.1692 -0.84988,6.1466 -1.82206,6.2814 -49.86933,6.917 -37.84683,0.5007 -50.18882,-0.2449 -54.21332,-3.2743 z m 62.72079,-10.2786 c 3.0938,0 5.36116,-54.83557 2.50864,-60.67137 -1.79125,-3.66464 -5.03923,-4.44377 -14.20193,-3.40669 -25.88978,2.93026 -24.22784,0.83327 -22.7216,28.66918 0.73792,13.6369 2.54079,27.10098 4.00638,29.92018 2.52515,4.8575 16.43751,8.5223 24.47324,6.4469 2.04037,-0.527 4.71125,-0.9582 5.93527,-0.9582 z m 5.67554,-98.5772 c 0,-18.18122 -0.0479,-18.29143 -8.70489,-20.0739 -11.03209,-2.27148 -22.99867,-2.29305 -28.67237,-0.0516 -3.30802,1.30683 -4.40617,5.83333 -4.40617,18.16209 0,9.03179 0.83566,17.28177 1.85706,18.33325 1.02137,1.05149 10.42264,1.91181 20.89171,1.91181 l 19.03466,0 0,-18.2816 z m -0.46344,-37.79254 c 0.51112,-0.44196 1.53719,-9.38261 2.28014,-19.86804 1.73477,-24.48425 -0.48531,-27.29506 -21.5587,-27.29506 -13.23899,0 -16.8121,1.03452 -19.15784,5.54688 -3.1895,6.13536 -3.98065,41.1187 -0.99933,44.18797 1.68188,1.73143 37.13288,-0.58042 39.43573,-2.57175 z"
       id="path3132"
       inkscape:connector-curvature="0" />
  </g>
</svg>
