<?xml version="1.0" encoding="UTF-8" standalone="no"?>
<!-- Created with Inkscape (http://www.inkscape.org/) -->

<svg
   xmlns:dc="http://purl.org/dc/elements/1.1/"
   xmlns:cc="http://creativecommons.org/ns#"
   xmlns:rdf="http://www.w3.org/1999/02/22-rdf-syntax-ns#"
   xmlns:svg="http://www.w3.org/2000/svg"
   xmlns="http://www.w3.org/2000/svg"
   xmlns:sodipodi="http://sodipodi.sourceforge.net/DTD/sodipodi-0.dtd"
   xmlns:inkscape="http://www.inkscape.org/namespaces/inkscape"
   width="300"
   height="300"
   id="svg2"
   version="1.1"
   inkscape:version="0.48.4 r9939"
   sodipodi:docname="image-seal.svg">
  <defs
     id="defs4" />
  <sodipodi:namedview
     id="base"
     pagecolor="#ffffff"
     bordercolor="#666666"
     borderopacity="1.0"
     inkscape:pageopacity="0.0"
     inkscape:pageshadow="2"
     inkscape:zoom="1.979899"
     inkscape:cx="130.93154"
     inkscape:cy="137.35134"
     inkscape:document-units="px"
     inkscape:current-layer="layer1"
     showgrid="false"
     inkscape:window-width="1215"
     inkscape:window-height="1000"
     inkscape:window-x="65"
     inkscape:window-y="24"
     inkscape:window-maximized="1"
     fit-margin-top="10"
     fit-margin-left="10"
     fit-margin-right="10"
     fit-margin-bottom="10" />
  <metadata
     id="metadata7">
    <rdf:RDF>
      <cc:Work
         rdf:about="">
        <dc:format>image/svg+xml</dc:format>
        <dc:type
           rdf:resource="http://purl.org/dc/dcmitype/StillImage" />
        <dc:title />
      </cc:Work>
    </rdf:RDF>
  </metadata>
  <g
     inkscape:label="Calque 1"
     inkscape:groupmode="layer"
     id="layer1"
     transform="translate(0,-752.36218)">
    <path
       style="fill:#000000"
       d="m 182.13268,1017.8507 c 0,-30.53041 2.95055,-36.8472 23.19308,-49.65357 19.60369,-12.40224 20.91122,-17.57142 20.91122,-82.67041 0,-69.00423 -1.2001,-72.6476 -23.95684,-72.73077 -12.15521,-0.0444 -17.96172,-4.42371 -11.54193,-8.70498 2.08936,-1.39332 7.52011,-1.93371 12.06836,-1.20087 36.18295,5.83014 35.23523,3.64207 34.81499,80.37904 -0.18497,33.75881 -1.56444,64.61039 -3.06571,68.55905 -3.11681,8.19782 -10.94785,16.63784 -24.85798,26.79103 -7.67305,5.60064 -10.35309,10.09781 -13.09346,21.97098 -1.8951,8.211 -3.44566,19.9164 -3.44566,26.0122 0,10.3339 -3.67054,17.6988 -8.82084,17.6988 -1.21288,0 -2.20523,-11.9027 -2.20523,-26.4505 z m -11.02607,-41.63671 c -28.16283,-10.1867 -28.99282,-12.81907 -28.27713,-89.6822 0.50432,-54.16015 1.09641,-60.96864 6.16617,-70.90624 4.11212,-8.06042 7.99344,-11.61065 14.54877,-13.30778 11.00839,-2.85001 15.73726,-11.48782 15.79111,-28.8444 0.0295,-9.54382 1.11747,-13.09346 4.01272,-13.09346 5.95767,0 7.49481,4.19232 7.64447,20.84914 0.16376,18.21275 -4.12221,24.00425 -21.57802,29.15833 -8.31814,2.45604 -12.72618,5.43668 -13.60843,9.20174 -6.47877,27.64864 -8.61801,94.09646 -3.73222,115.92839 2.52479,11.28202 5.4369,16.78265 10.97123,20.72345 4.14377,2.9506 8.84954,5.36475 10.45728,5.36475 3.81998,0 8.23055,8.68459 6.64968,13.09346 -1.31701,3.67302 -2.52139,3.8747 -9.04563,1.51482 z m -92.343345,-6.91602 c -15.29148,-5.35988 -17.210403,-8.93472 -19.389403,-36.12149 -2.58101,-32.20219 -2.159731,-103.79446 0.716723,-121.80099 1.497753,-9.37597 3.512797,-13.78259 6.302421,-13.78259 3.165005,0 4.040227,3.45942 3.835694,15.16084 -0.145814,8.33848 -0.721573,38.35999 -1.279659,66.71447 -0.558056,28.35448 -0.0692,52.49904 1.086344,53.65461 3.238275,3.23826 10.425675,-2.50294 16.283418,-13.00697 4.964152,-8.9017 5.201704,-13.909 3.738487,-78.80501 -1.302585,-57.77213 -0.913647,-69.83779 2.338201,-72.5366 7.635339,-6.33677 9.053689,6.36063 8.607669,77.05772 -0.43826,69.46419 -0.37014,70.37073 5.78959,77.04976 3.42817,3.71721 6.87125,6.12034 7.65129,5.3403 0.78005,-0.78003 1.61654,-28.53603 1.8589,-61.67998 0.24229,-33.14392 1.03284,-62.52648 1.75672,-65.29455 1.87263,-7.16105 8.92583,-6.24759 9.02866,1.16932 0.0474,3.41119 0.0119,38.02719 -0.0825,76.92443 -0.19626,82.3902 -0.84903,85.25364 -20.56392,90.21791 -14.32287,3.60656 -16.708338,3.58403 -27.678617,-0.26105 z m 24.678975,-10.89122 c 8.95763,-4.08139 8.73289,-9.70065 -0.83493,-20.87591 l -7.631865,-8.91401 -10.173476,10.73609 c -5.595401,5.90486 -10.173482,11.90747 -10.173482,13.33916 0,1.4317 4.031408,3.89634 8.958684,5.47695 12.082811,3.87607 11.875166,3.8736 19.855069,0.23761 z m 74.61918,-27.97397 c -11.35564,-6.84218 -12.28988,-10.46209 -12.38018,-47.96957 -0.0818,-33.97201 0.3173,-36.79375 5.94515,-42.03689 6.93206,-6.45819 22.76404,-7.53908 28.36647,-1.93665 9.88901,9.88905 13.69333,66.05993 5.5417,81.82346 -6.64092,12.84212 -16.76542,16.57147 -27.47314,10.11965 z m 16.60089,-16.94082 c 6.5839,-6.5839 8.49322,-15.84724 5.09283,-24.70851 -2.06766,-5.38828 -21.09717,-6.00287 -25.39834,-0.82028 -5.37986,6.48236 3.40835,32.29478 10.99523,32.29478 1.39934,0 5.58897,-3.04469 9.31028,-6.76599 z m 3.4524,-52.15659 c -0.80562,-13.8579 -0.99822,-14.14204 -10.17993,-15.01876 -11.08116,-1.05808 -13.97103,2.40916 -14.02944,16.83241 -0.0466,11.49296 6.00871,15.94771 18.4457,13.57025 6.05872,-1.15821 6.51922,-2.38734 5.76367,-15.3839 z"
       id="path3041"
       inkscape:connector-curvature="0" />
  </g>
</svg>
