<?xml version="1.0" encoding="UTF-8" standalone="no"?>
<!-- Created with Inkscape (http://www.inkscape.org/) -->

<svg
   xmlns:dc="http://purl.org/dc/elements/1.1/"
   xmlns:cc="http://creativecommons.org/ns#"
   xmlns:rdf="http://www.w3.org/1999/02/22-rdf-syntax-ns#"
   xmlns:svg="http://www.w3.org/2000/svg"
   xmlns="http://www.w3.org/2000/svg"
   xmlns:sodipodi="http://sodipodi.sourceforge.net/DTD/sodipodi-0.dtd"
   xmlns:inkscape="http://www.inkscape.org/namespaces/inkscape"
   width="300"
   height="300"
   viewBox="0 0 300 300"
   id="svg2"
   version="1.1"
   inkscape:version="0.91 r13725"
   sodipodi:docname="崑-seal.svg">
  <defs
     id="defs4">
    <clipPath
       clipPathUnits="userSpaceOnUse"
       id="clipPath4204">
      <rect
         style="fill:#0000ff;fill-rule:evenodd;stroke:#000000;stroke-width:1px;stroke-linecap:butt;stroke-linejoin:miter;stroke-opacity:1"
         id="rect4206"
         width="15.451179"
         height="21.584471"
         x="164.41942"
         y="794.64594" />
    </clipPath>
  </defs>
  <sodipodi:namedview
     id="base"
     pagecolor="#ffffff"
     bordercolor="#666666"
     borderopacity="1.0"
     inkscape:pageopacity="0.0"
     inkscape:pageshadow="2"
     inkscape:zoom="1.71"
     inkscape:cx="150"
     inkscape:cy="150"
     inkscape:document-units="px"
     inkscape:current-layer="layer1"
     showgrid="false"
     inkscape:window-width="1280"
     inkscape:window-height="751"
     inkscape:window-x="0"
     inkscape:window-y="1"
     inkscape:window-maximized="1"
     units="px"
     showguides="false" />
  <metadata
     id="metadata7">
    <rdf:RDF>
      <cc:Work
         rdf:about="">
        <dc:format>image/svg+xml</dc:format>
        <dc:type
           rdf:resource="http://purl.org/dc/dcmitype/StillImage" />
        <dc:title></dc:title>
      </cc:Work>
    </rdf:RDF>
  </metadata>
  <g
     inkscape:label="Layer 1"
     inkscape:groupmode="layer"
     id="layer1"
     transform="translate(0,-752.36216)">
    <path
       style="fill:#000000"
       d="m 95.347643,1034.1984 c -7.42174,-9.5911 -10.48981,-41.36102 -3.29995,-34.1712 3.27967,3.2797 12.684027,33.0001 11.224057,35.4713 -1.72097,2.913 -5.091937,2.3599 -7.924107,-1.3001 z m 79.258367,-4.0758 c -2.04403,-2.4063 -5.21644,-8.4704 -7.0498,-13.4759 -1.83336,-5.0055 -5.15175,-13.1963 -7.37421,-18.20179 -5.26752,-11.86363 -9.86024,-35.56264 -8.86637,-45.75137 0.60877,-6.24063 3.02383,-9.30596 10.75534,-13.65132 9.13294,-3.37328 25.91436,-10.74062 34.1181,-10.80413 5.63615,0 10.24754,1.17012 10.24754,2.60026 0,1.43013 -1.70012,2.60025 -3.77804,2.60025 -9.23843,0 -17.02398,6.06654 -17.02398,13.26519 2.9842,14.2929 16.82366,47.50124 26.52752,57.24241 5.43354,4.8924 8.95254,19.158 5.28498,21.4247 -1.38307,0.8548 -4.32851,-0.466 -6.5454,-2.935 -6.64578,-7.4016 -30.46126,-55.13562 -30.55029,-61.2328 -0.10401,-7.12617 -5.76164,-14.76324 -10.93666,-14.76324 -11.86178,0 -12.12914,18.98306 -0.61728,43.83024 3.53986,7.64043 6.46215,15.2382 6.49395,16.8838 0.0317,1.6457 2.346,5.9174 5.14268,9.4928 2.79667,3.5753 5.11087,8.4231 5.14267,10.7728 0.0835,6.1671 -6.62432,7.8198 -10.97075,2.7031 z m -39.56089,-8.7292 c -7.20824,-17.9897 -11.14276,-30.95363 -14.46193,-47.65089 -3.24703,-16.33455 -6.99199,-25.22454 -8.95739,-25.22454 -2.71365,0 -13.552777,1.58497 -19.067007,6.61053 -5.27227,4.80508 -5.77196,7.00209 -4.2901,18.86262 1.55724,12.46371 -1.34061,20.53053 -5.15695,14.35552 -3.39832,-5.49859 -2.3615,-36.20346 1.34773,-39.91272 4.72206,-4.72206 36.148867,-14.99961 45.813407,-14.9824 l 7.25704,0.013 -7.6276,6.10316 -7.62761,6.10316 4.51724,15.336 c 2.48449,8.4348 8.06881,26.3061 12.4096,39.71396 6.89516,21.2978 7.41592,24.8544 4.12132,28.149 -3.29457,3.2946 -4.34047,2.35 -8.27775,-7.4763 z M 114.12765,920.16751 c -27.681787,-3.96723 -33.343367,-10.09912 -32.792247,-35.51617 0.51376,-23.69246 4.84851,-30.69447 21.168887,-34.19457 14.92758,-3.2014 51.50265,-3.43051 72.45892,-0.45387 17.80543,2.52908 21.07239,6.86058 21.07239,27.93903 0,29.11079 -7.56829,37.57529 -38.06208,42.5692 -17.27119,2.82848 -21.96896,2.79166 -43.84587,-0.34362 z m 59.60824,-10.5143 c 7.32954,-3.33956 14.104,-19.2537 9.96006,-23.39765 -3.95457,-3.95456 -88.090337,-4.21506 -92.035047,-0.28496 -5.2703,5.25074 0.42361,16.91524 10.793487,22.11151 10.76775,5.3956 60.48268,6.49137 71.2815,1.5711 z m 10.86567,-36.45258 c 0.75278,-1.21803 0.66842,-4.421 -0.18747,-7.11767 -2.0112,-6.33666 -12.57462,-8.29332 -52.77135,-9.77487 -25.88559,-0.95406 -32.617147,-0.44789 -35.753467,2.68843 -4.70671,4.70672 -5.0605,13.69433 -0.61347,15.58417 5.375207,2.2843 87.848527,1.01009 89.325737,-1.38006 z m -58.77277,-37.99697 c -21.08524,-0.78439 -34.723277,-5.57772 -39.091227,-13.73934 -3.63838,-6.79833 -2.15902,-36.81518 1.88011,-38.14809 1.99567,-0.65857 3.37926,2.95781 3.90038,10.19462 0.79882,11.09346 0.90642,11.20722 9.908467,10.47619 7.92022,-1.08775 17.6711,-7.07213 23.65093,-11.13912 6.18382,-4.40329 7.55209,-7.26446 7.55209,-15.79219 0,-8.5137 0.83058,-10.25722 4.55045,-9.55226 3.17288,0.60128 4.79351,3.78711 5.3534,10.52348 0.59187,7.12121 2.74823,11.04629 8.20215,14.92984 6.64118,3.56834 20.04415,12.73705 25.44823,11.12942 1.78768,-0.60149 3.25032,-5.0915 3.25032,-9.97779 0,-4.88632 1.19908,-8.88421 2.66461,-8.88421 4.04555,0 7.7364,11.9543 7.7364,25.05741 0,22.16645 -12.30169,26.88266 -65.00631,24.92204 z m 35.06609,-8.91473 c 17.0523,-4.56079 15.44677,-9.8691 -6.468,-21.38499 l -18.20644,-9.56721 -8.44614,4.6947 c -4.64538,2.58208 -9.0312,5.37347 -9.74627,6.20311 -0.71507,0.82964 -5.10299,3.16297 -9.75095,5.18519 -4.80776,2.09174 -8.450817,5.59423 -8.450817,8.12469 0,4.67775 6.408897,6.49715 28.602777,8.11994 6.43562,0.47057 13.73204,1.06 16.21426,1.30985 2.48223,0.24989 9.79544,-0.9585 16.25158,-2.68528 z"
       id="path4901"
       inkscape:connector-curvature="0"
       sodipodi:nodetypes="ssssssssccssccssssscssscssssssccccsssccsssssssssssscssssccssssccsssccsssssscssssscs" />
  </g>
</svg>
