<?xml version="1.0" encoding="UTF-8" standalone="no"?>
<!-- Created with Inkscape (http://www.inkscape.org/) -->

<svg
   xmlns:dc="http://purl.org/dc/elements/1.1/"
   xmlns:cc="http://creativecommons.org/ns#"
   xmlns:rdf="http://www.w3.org/1999/02/22-rdf-syntax-ns#"
   xmlns:svg="http://www.w3.org/2000/svg"
   xmlns="http://www.w3.org/2000/svg"
   xmlns:sodipodi="http://sodipodi.sourceforge.net/DTD/sodipodi-0.dtd"
   xmlns:inkscape="http://www.inkscape.org/namespaces/inkscape"
   width="300"
   height="300"
   viewBox="0 0 300 300"
   id="svg2"
   version="1.1"
   inkscape:version="0.91 r13725"
   sodipodi:docname="崙-seal.svg">
  <defs
     id="defs4">
    <clipPath
       clipPathUnits="userSpaceOnUse"
       id="clipPath4204">
      <rect
         style="fill:#0000ff;fill-rule:evenodd;stroke:#000000;stroke-width:1px;stroke-linecap:butt;stroke-linejoin:miter;stroke-opacity:1"
         id="rect4206"
         width="15.451179"
         height="21.584471"
         x="164.41942"
         y="794.64594" />
    </clipPath>
  </defs>
  <sodipodi:namedview
     id="base"
     pagecolor="#ffffff"
     bordercolor="#666666"
     borderopacity="1.0"
     inkscape:pageopacity="0.0"
     inkscape:pageshadow="2"
     inkscape:zoom="1.71"
     inkscape:cx="150"
     inkscape:cy="150"
     inkscape:document-units="px"
     inkscape:current-layer="layer1"
     showgrid="false"
     inkscape:window-width="1280"
     inkscape:window-height="751"
     inkscape:window-x="0"
     inkscape:window-y="1"
     inkscape:window-maximized="1"
     units="px"
     showguides="false" />
  <metadata
     id="metadata7">
    <rdf:RDF>
      <cc:Work
         rdf:about="">
        <dc:format>image/svg+xml</dc:format>
        <dc:type
           rdf:resource="http://purl.org/dc/dcmitype/StillImage" />
        <dc:title></dc:title>
      </cc:Work>
    </rdf:RDF>
  </metadata>
  <g
     inkscape:label="Layer 1"
     inkscape:groupmode="layer"
     id="layer1"
     transform="translate(0,-752.36216)">
    <path
       style="fill:#000000"
       d="m 200.52762,1034.2318 c -3.64064,-4.5869 -7.34093,-18.1216 -10.67787,-39.0568 -3.01156,-18.89357 -5.30162,-22.93221 -11.62716,-20.50487 -2.81635,1.08072 -3.21086,5.04839 -1.95249,19.636 1.32922,15.40897 0.95497,18.52027 -2.38184,19.80077 -2.17738,0.8355 -4.33708,1.1023 -4.79931,0.5929 -0.46224,-0.5095 -1.4516,-9.1614 -2.19856,-19.22653 -1.42641,-19.22028 -3.7869,-24.25196 -10.21928,-21.78362 -3.20608,1.2303 -3.88639,6.31601 -3.88639,29.05355 0,20.9448 -0.74421,27.3154 -3.09974,26.5342 -2.15152,-0.7135 -3.31791,-8.9222 -3.81295,-26.8337 -0.39226,-14.19313 -1.70543,-26.79792 -2.91817,-28.01066 -1.21275,-1.21274 -5.07646,-1.48428 -8.58602,-0.60343 -6.18807,1.55309 -6.38105,2.20007 -6.38105,21.39263 0,16.50556 -0.66002,19.79116 -3.97583,19.79116 -3.31556,0 -3.87433,-2.7797 -3.36473,-16.73866 0.85116,-23.31551 0.99561,-22.93809 -8.7781,-22.93809 -8.02652,0 -8.67927,0.57018 -8.67927,7.58118 0,4.16965 -1.05151,12.25997 -2.33666,17.97847 -1.28518,5.7186 -2.92867,13.2603 -3.65217,16.7595 -1.51243,7.3145 -10.616,18.7762 -13.01098,16.3812 -0.88541,-0.8853 0.34432,-7.4807 2.73273,-14.6563 2.38839,-7.1757 4.87535,-16.9523 5.52659,-21.72591 0.65125,-4.7736 2.19286,-12.60947 3.42581,-17.41303 1.23296,-4.80359 2.08963,-24.88991 1.90369,-44.63628 -0.19293,-20.48446 0.63019,-35.66244 1.91653,-35.34343 1.24,0.30749 2.81251,5.88703 3.49446,12.39896 1.17378,11.20855 1.66401,11.88089 9.194,12.60908 7.82212,0.75646 7.98176,0.56098 9.6187,-11.77902 1.60066,-12.06625 5.58033,-17.20029 6.36293,-8.20858 0.2078,2.3868 0.63698,5.45554 0.95387,6.81943 0.31687,1.36388 0.70486,4.99058 0.86218,8.05933 0.21277,4.15112 1.80435,5.57953 6.21669,5.57953 7.51993,0 9.84141,-8.10557 7.55732,-26.38681 l -1.66047,-13.28988 -13.53496,0 c -11.55477,0 -13.413,-0.6349 -12.70145,-4.33964 0.74468,-3.87728 4.39685,-4.33964 34.27898,-4.33964 28.07612,0 33.44549,0.59716 33.44549,3.71969 0,2.70523 -3.71969,4.05784 -13.63886,4.95959 l -13.63887,1.23989 -1.25938,15.84591 c -1.50851,18.97997 2.33061,27.26181 8.77023,18.91946 2.36166,-3.05945 3.24194,-7.41188 2.3346,-11.54294 -0.85468,-3.89139 -0.2573,-7.37278 1.4457,-8.4253 3.73717,-2.3097 7.58705,3.77782 5.87341,9.2872 -1.86301,5.98969 3.21667,14.35247 8.71794,14.35247 4.62477,0 10.07451,-10.78809 10.07451,-19.94307 0,-4.7885 5.2407,-7.78065 9.18719,-5.24538 1.72231,1.10643 1.73749,6.0136 0.0474,15.26928 -3.52155,19.28372 -3.29914,65.46183 0.40009,83.07308 6.70638,31.92751 6.12487,45.02991 -1.56834,35.33711 z m -80.47617,-71.79007 c 1.63666,-1.63667 2.97575,-8.33211 2.97575,-14.87876 0,-11.87876 -0.0174,-11.90301 -8.41396,-11.90301 -5.38485,0 -8.95587,1.41214 -9.91917,3.92251 -2.02171,5.26847 -1.91862,22.11522 0.14804,24.1818 2.69439,2.69442 12.00175,1.88509 15.20939,-1.32254 z m 24.054,-13.10896 c 0,-11.25293 -0.90002,-15.00226 -3.71969,-15.49559 -7.27361,-1.2726 -10.79544,3.72785 -11.18466,15.88048 -0.47898,14.95392 0.18226,16.16361 8.31911,15.22199 6.30889,-0.73008 6.58524,-1.38502 6.58524,-15.60688 z m 21.07824,1.20595 c 0,-14.21748 -0.27553,-14.87876 -6.19948,-14.87876 -5.92396,0 -6.19949,0.66128 -6.19949,14.87876 0,14.21747 0.27553,14.87876 6.19949,14.87876 5.92395,0 6.19948,-0.66129 6.19948,-14.87876 z m 22.31814,0 c 0,-14.21748 -0.27553,-14.87876 -6.19948,-14.87876 -5.83786,0 -6.19948,0.77148 -6.19948,13.22555 0,14.41633 1.00491,16.53197 7.85268,16.53197 3.90337,0 4.54628,-2.10408 4.54628,-14.87876 z M 63.51216,907.70227 c 0,-1.73787 6.41647,-7.89041 14.25881,-13.67232 12.11672,-8.9333 18.81943,-14.52013 39.05675,-32.55468 10.36509,-9.23686 23.54802,-25.49684 22.30391,-27.50988 -0.8351,-1.35122 -6.75308,-2.46093 -13.15104,-2.46603 -15.32964,-0.0124 -27.61161,-7.30081 -28.12902,-16.69288 -0.228066,-10.67595 -4.538169,-18.95394 -4.58189,-28.34744 0,-10.33245 0.68408,-11.98566 4.95959,-11.98566 3.90719,0 4.99584,1.71014 5.13044,8.05933 0.27486,12.96533 1.88475,22.26592 4.26634,24.64751 2.64319,2.64319 24.88267,-4.27643 30.21313,-9.40055 2.00908,-1.93131 4.2409,-9.3486 4.95959,-16.48281 0.9814,-9.74227 2.38697,-13.17733 5.64632,-13.79891 3.57908,-0.68257 4.33963,1.00944 4.33963,9.65433 0,9.0713 1.35176,11.72984 10.04463,19.75505 8.79474,8.11926 21.48863,13.76503 24.42624,10.8639 0.5465,-0.53975 1.6624,-7.97358 2.47979,-16.51964 1.09972,-11.49813 2.45331,-15.53831 5.20583,-15.53831 2.86674,0 3.88787,3.83966 4.45309,16.74473 0.27541,22.39121 -7.35479,38.4116 -27.85383,39.05062 -4.52612,0 -9.45349,1.47506 -10.94973,3.27794 -4.95388,5.96904 20.16181,26.20398 54.18882,43.65823 18.9728,9.73217 23.55432,13.53211 21.10113,17.50144 -15.32447,5.25474 -25.71013,-8.04149 -35.97989,-12.36195 -10.4458,-7.73159 -21.82032,-14.9228 -30.80179,-22.31814 -9.89313,-8.18332 -19.31717,-14.87876 -20.9423,-14.87876 -1.62513,0 -10.45491,7.37997 -19.62169,16.39994 -21.4234,21.08026 -57.14666,48.07469 -63.61994,48.07469 -0.77161,0 -1.40292,-1.42189 -1.40292,-3.15975 z m 105.39122,-85.92636 7.43938,-0.38801 c -3.33645,-5.85627 -23.11674,-15.57128 -24.1396,-17.66178 -0.66984,-2.00953 -6.40535,-0.18673 -17.55604,5.57953 -9.10863,4.71027 -16.56529,9.32693 -16.57033,10.25925 -0.0149,3.00026 19.45475,3.84725 50.82659,2.21101 z"
       id="path4965"
       inkscape:connector-curvature="0"
       sodipodi:nodetypes="csssccssscsssssssssscsssscsssccssscssssscsssssssscscccssscccssssssssssssssssssscccsssssssscssccsscccsssssccscs" />
  </g>
</svg>
