<?xml version="1.0" encoding="UTF-8" standalone="no"?>
<svg
   xmlns:dc="http://purl.org/dc/elements/1.1/"
   xmlns:cc="http://creativecommons.org/ns#"
   xmlns:rdf="http://www.w3.org/1999/02/22-rdf-syntax-ns#"
   xmlns:svg="http://www.w3.org/2000/svg"
   xmlns="http://www.w3.org/2000/svg"
   viewBox="0 0 300 300"
   height="300"
   width="300"
   id="svg196"
   version="1.1">
  <metadata
     id="metadata202">
    <rdf:RDF>
      <cc:Work
         rdf:about="">
        <dc:format>image/svg+xml</dc:format>
        <dc:type
           rdf:resource="http://purl.org/dc/dcmitype/StillImage" />
        <dc:title></dc:title>
      </cc:Work>
    </rdf:RDF>
  </metadata>
  <defs
     id="defs200" />
  <path
     id="path206"
     d="m 234.18231,284.19343 c -1.68221,-2.02694 -2.65667,-5.39603 -2.86594,-10.02994 -1.23399,-27.32477 -3.30964,-46.83732 -8.29937,-74.83872 -9.68664,-1.06078 -21.40208,-3.87087 -29.47669,-10.51397 -4.63506,-3.81333 -7.41634,-11.25912 -1.07991,-10.20854 10.45335,1.73316 19.4947,5.89921 27.85495,8.65997 -2.60266,-6.93856 -11.37927,-14.94773 -16.67794,-20.85337 -3.39834,-4.19379 -16.3467,-16.64079 -5.65027,-16.02721 10.3518,0.59381 30.20567,21.37726 33.72317,31.87025 3.37061,-11.68497 -3.83851,-22.69013 -10.14137,-29.04253 -5.21611,-5.21612 -6.22801,-6.5041 -6.15971,-8.39976 0.45721,-12.69017 13.55918,-2.10199 17.11368,2.8995 12.32747,17.34583 16.83846,34.08236 1.8475,47.40914 4.99802,26.26181 6.93321,47.27209 8.04693,71.13003 0.25169,5.39154 1.03991,13.41677 0.0664,15.22457 -1.58177,2.93731 -6.72316,4.62227 -8.30143,2.72058 z m -102.95687,-0.33159 c -1.59293,-1.0121 -3.19196,-6.49368 -2.94692,-11.80559 1.23444,-26.75986 2.48809,-53.88516 8.12919,-78.07672 -13.45762,-12.10436 -12.00089,-29.41709 -3.28922,-39.58381 5.16593,-6.02877 14.4105,-16.11604 18.4972,-15.90714 12.14438,0.62078 1.49764,12.73125 -2.40959,16.94457 -5.84248,6.66382 -16.74363,17.45383 -8.83284,27.95952 3.15232,-10.31187 15.31991,-21.84447 18.98167,-25.7451 3.04848,-3.14057 15.30416,-12.67629 17.87805,-7.08112 1.79657,3.9054 1.21643,5.02721 -6.64699,13.09937 -6.7866,7.51817 -14.13865,13.91272 -18.11374,22.784 0,1.4582 10.17388,-2.20219 15.56133,-5.7895 4.8142,-3.2056 13.89212,-6.75363 14.17812,1.99318 0.26078,7.97552 -22.86975,15.55393 -34.22841,16.3514 -5.47905,20.54755 -6.56083,38.84168 -7.21966,50.3771 -1.75027,30.74718 -1.88624,32.03347 -3.56379,33.71102 -1.34687,1.34686 -4.43846,1.74471 -5.9744,0.76882 z M 80.544262,195.54698 c -18.62914,-5.50502 -19.90782,-17.13829 -22.39875,-33.54349 -0.20206,-1.33075 -0.85691,-25.12907 -1.46423,-52.8838 -0.97885,-44.734476 -0.70712,-51.216259 -0.0806,-57.404602 1.29585,-12.800255 8.31778,-15.137202 11.30687,-5.211339 1.3263,4.404221 0.42483,17.522486 0.24071,26.281378 -0.58084,27.631583 -1.0571,74.919653 1.38818,87.352943 4.90336,-11.31098 8.18156,-20.11538 12.96518,-32.36953 0.48368,-25.00892 0.98187,-50.098373 0.90658,-75.040253 -0.0482,-12.74301 0.26366,-24.920616 0.55253,-27.082206 1.36606,-10.221728 7.13587,-15.8786181 11.07976,-3.900784 0.75626,2.296812 0.92346,14.008496 0.99649,52.768867 l 0.0939,49.796296 c 4.688918,12.47833 9.715868,25.52406 14.094678,35.90705 1.49479,-26.32484 2.45447,-49.8847 1.79825,-69.073465 -0.6666,-19.002306 -1.0712,-36.742236 -0.8991,-39.422067 0.17775,-4.889492 4.97903,-15.773372 8.86328,-10.751149 2.79279,3.611005 3.78006,8.168066 3.78126,17.290379 0.003,20.611557 -1.7807,95.917792 -2.47322,104.433892 -1.72862,21.25711 -5.3103,27.29207 -19.06379,32.12151 -4.686108,1.6455 -15.975448,2.02568 -21.687808,0.73037 z m 18.12896,-11.42989 c 2.941008,-1.07991 5.332458,-2.77663 7.705728,-4.72466 -5.83481,-12.45812 -10.975898,-23.14955 -16.871998,-35.04262 -5.7917,11.32904 -10.52754,20.55416 -16.67385,33.26858 4.83591,8.33967 18.96558,9.02294 25.84012,6.4987 z M 176.56296,144.1944 c -1.36578,-3.35964 -0.87215,-10.43056 1.17086,-16.77167 2.40328,-7.45938 5.69697,-21.01234 6.8674,-26.19724 -4.45206,-1.298001 -15.90252,-1.742971 -15.53021,-5.985301 0.69881,-7.962686 12.03786,-5.426406 16.91653,-4.852024 0,-2.836341 -2.1516,-9.139501 -6.1604,-13.969149 -11.96593,-14.416065 -15.3707,-32.226978 -9.9798,-52.205923 2.15312,-6.234052 6.32841,-12.205719 10.78962,-5.920607 1.3468,1.897418 -3.84514,17.128714 -2.71092,23.989529 4.42397,-0.273655 19.80409,-2.570086 22.90118,0.599158 9.72687,9.953493 -15.87913,9.644539 -20.69036,9.671851 3.72951,15.926717 18.15874,26.691067 18.09691,39.168775 -0.0623,12.563121 -4.29138,28.895321 -13.74915,51.460761 -1.2337,2.94351 -6.50792,4.35456 -7.92173,1.01184 z M 138.3357,127.36149 c -3.37474,-4.85062 -3.84423,-9.05094 -4.54003,-32.098871 -0.43114,-18.876681 -2.60123,-38.369116 0.8206,-56.838194 1.04717,-5.652051 6.87086,-6.237372 8.20937,-2.139222 2.02211,6.527143 2.43562,14.735773 2.86388,24.269551 9.42622,0 21.57812,0.763975 21.78063,5.791886 0.14317,3.554621 -0.59932,3.457991 -3.72855,3.905376 -6.42104,0.918018 -12.1032,1.227184 -17.42287,1.784332 0.17344,5.446424 -0.054,12.050906 0.44769,19.746085 7.75054,0.960265 22.9755,2.359648 20.43439,7.994696 -2.35427,5.220731 -9.76899,4.195421 -20.00969,3.224821 -0.8905,23.663 5.17439,18.43433 20.49666,21.52173 4.10362,0.82687 7.33968,6.40457 3.95174,8.34059 -8.52413,4.87107 -28.28728,1.70767 -33.30382,-5.50278 z m 64.70049,6.96653 c -3.64047,-0.15444 -5.60896,-2.37859 -5.60896,-4.45965 0,-2.87208 1.48617,-3.58549 11.41165,-5.47804 16.60828,-1.21116 16.17574,-6.70005 16.4646,-20.42247 -0.11375,-0.15717 -4.28587,-0.43304 -9.27137,-0.61307 -10.37203,-0.37454 -12.1521,-1.14716 -12.83734,-5.828141 -0.92733,-6.334615 18.81097,-5.420133 22.58868,-5.679035 V 71.231408 c -6.31887,0.766693 -12.99417,1.782933 -18.86752,-0.01804 -2.14647,-0.658181 -3.95578,-3.643214 -3.95578,-6.314962 0,-2.25737 2.47083,-2.968181 13.4865,-3.879817 6.55631,-0.542588 7.13949,-0.850708 9.19583,-1.895016 0.62134,-5.213114 -1.01469,-29.290788 7.5564,-25.295525 4.37513,2.039388 4.35333,2.002077 4.52939,39.83397 0.14109,30.320512 -0.33718,34.699022 -1.08316,40.504782 -2.43809,18.97489 -12.20864,21.0691 -33.60892,20.16122 z"
     style="fill:#000000;stroke-width:0.69161522" />
</svg>
