<?xml version="1.0" encoding="UTF-8" standalone="no"?>
<!-- Created with Inkscape (http://www.inkscape.org/) -->

<svg
   xmlns:dc="http://purl.org/dc/elements/1.1/"
   xmlns:cc="http://creativecommons.org/ns#"
   xmlns:rdf="http://www.w3.org/1999/02/22-rdf-syntax-ns#"
   xmlns:svg="http://www.w3.org/2000/svg"
   xmlns="http://www.w3.org/2000/svg"
   xmlns:sodipodi="http://sodipodi.sourceforge.net/DTD/sodipodi-0.dtd"
   xmlns:inkscape="http://www.inkscape.org/namespaces/inkscape"
   width="300"
   height="300"
   viewBox="0 0 300 300"
   id="svg2"
   version="1.1"
   inkscape:version="0.91 r13725"
   sodipodi:docname="巂-seal.svg">
  <defs
     id="defs4">
    <clipPath
       clipPathUnits="userSpaceOnUse"
       id="clipPath4204">
      <rect
         style="fill:#0000ff;fill-rule:evenodd;stroke:#000000;stroke-width:1px;stroke-linecap:butt;stroke-linejoin:miter;stroke-opacity:1"
         id="rect4206"
         width="15.451179"
         height="21.584471"
         x="164.41942"
         y="794.64594" />
    </clipPath>
  </defs>
  <sodipodi:namedview
     id="base"
     pagecolor="#ffffff"
     bordercolor="#666666"
     borderopacity="1.0"
     inkscape:pageopacity="0.0"
     inkscape:pageshadow="2"
     inkscape:zoom="1.71"
     inkscape:cx="150"
     inkscape:cy="150"
     inkscape:document-units="px"
     inkscape:current-layer="layer1"
     showgrid="false"
     inkscape:window-width="1280"
     inkscape:window-height="751"
     inkscape:window-x="0"
     inkscape:window-y="1"
     inkscape:window-maximized="1"
     units="px"
     showguides="false" />
  <metadata
     id="metadata7">
    <rdf:RDF>
      <cc:Work
         rdf:about="">
        <dc:format>image/svg+xml</dc:format>
        <dc:type
           rdf:resource="http://purl.org/dc/dcmitype/StillImage" />
        <dc:title></dc:title>
      </cc:Work>
    </rdf:RDF>
  </metadata>
  <g
     inkscape:label="Layer 1"
     inkscape:groupmode="layer"
     id="layer1"
     transform="translate(0,-752.36216)">
    <path
       style="fill:#000000"
       d="m 84.386513,1034.9616 c 3.17083,-1.8514 4.13062,-8.0744 5.3301,-34.5591 1.5221,-33.60729 5.00799,-55.55412 9.38047,-59.05839 1.403967,-1.1252 11.144967,-2.55763 21.646627,-3.18319 10.50167,-0.62557 20.14697,-1.7882 21.434,-2.58362 3.2511,-2.00929 5.24455,-10.63988 2.80567,-12.14718 -1.10451,-0.68261 -10.49187,-0.53362 -20.86084,0.33111 -17.84522,1.48824 -19.01136,1.93083 -21.82279,8.28229 -2.943187,6.64909 -7.366217,8.69055 -9.910297,4.57413 -2.16819,-3.50819 6.85446,-43.63894 10.842477,-48.225 1.06678,-1.22674 1.95083,-3.86805 1.96459,-5.86957 0.0293,-4.27884 13.1719,-17.36183 19.93153,-19.84125 4.20723,-1.54323 4.29265,-1.94865 0.82112,-3.89791 -2.13098,-1.19655 -9.52663,-2.98536 -16.43479,-3.97511 -10.259547,-1.46993 -12.689667,-2.70155 -13.266737,-6.72387 -0.72581,-5.05905 6.455017,-9.4894 35.336927,-21.80173 8.09481,-3.45079 11.15218,-6.06435 11.15218,-9.53324 0,-4.16251 -1.49766,-4.77909 -11.60822,-4.77909 -16.00861,0 -24.90779,-7.45001 -24.26212,-20.31125 0.70902,-14.12323 2.0107,-18.4279 5.5724,-18.4279 2.21525,0 3.96462,4.4395 5.32873,13.52301 1.72368,11.47804 2.87759,13.73557 7.63044,14.92845 14.73911,3.69928 22.03442,-4.21656 22.03442,-23.90865 0,-8.84715 0.70588,-10.41238 4.69566,-10.41238 4.27825,0 4.69565,1.56523 4.69565,17.6087 l 0,17.60871 7.63044,0.25988 c 20.34333,0.69286 24.00989,-1.18873 26.32086,-13.50724 0.86512,-4.61141 2.57793,-11.02774 3.80625,-14.25849 1.84783,-4.86015 2.83453,-5.37517 5.71616,-2.98362 6.49061,5.38673 2.59707,30.42669 -5.73323,36.87133 -2.11103,1.63315 -11.08304,2.89215 -20.91438,2.93478 -12.68585,0.0549 -16.96934,0.8471 -16.27495,3.00945 1.1823,3.68158 22.68417,15.71924 28.20973,15.79299 2.25979,0.03 4.1087,0.85346 4.1087,1.82954 0,0.97609 3.16957,3.17767 7.04348,4.89245 4.29087,1.8993 7.04348,4.87592 7.04348,7.61661 0,3.82029 -1.73272,4.49886 -11.48794,4.49886 -8.56555,0 -11.87071,0.99745 -12.99257,3.92099 -1.95839,5.10347 2.45555,7.73752 13.04084,7.7822 9.39277,0.0397 14.63967,4.24957 11.54232,9.26117 -1.26266,2.04303 -3.54613,2.55286 -6.3222,1.41153 -6.70791,-2.75782 -19.73859,-5.88543 -30.94049,-7.42631 -10.06594,-1.38463 -10.1529,-1.33531 -9.39131,5.32642 l 0.76873,6.72401 21.13044,0.43386 c 11.62174,0.23863 21.92283,0.50276 22.89131,0.58695 0.96848,0.0843 1.76087,1.73789 1.76087,3.67484 0,2.85153 -3.76126,3.52175 -19.7645,3.52175 -21.49337,0 -27.19204,1.23009 -27.19204,5.86956 0,4.98139 6.54286,6.01924 28.67484,4.54857 18.78534,-1.24832 20.96006,-0.98067 20.25052,2.49224 -0.65683,3.21485 -4.53325,4.01755 -22.31466,4.62078 -21.24739,0.72081 -26.6107,1.91545 -26.6107,5.92747 0,3.48943 9.78131,5.38561 25.54434,4.95194 22.16266,-0.60973 35.89318,1.86084 35.02962,6.30297 -0.5893,3.03145 -5.6908,3.65628 -31.22612,3.82452 l -30.52175,0.20098 0,7.04348 0,7.04348 21.08482,0.68624 c 32.35102,1.05296 31.74129,-0.002 31.74129,54.89694 0,42.86191 -0.14439,44.19951 -4.76935,44.19951 -6.35837,0 -6.81276,-1.8423 -7.5285,-30.5218 l -0.6152,-24.65218 -8.45596,-0.70791 -8.45598,-0.70792 -1.54503,16.62402 c -2.33741,25.14959 -3.1584,25.87879 -29.13802,25.87879 -15.45715,0 -22.04727,-0.8552 -22.61626,-2.9348 -0.44165,-1.6141 -2.08652,-9.8022 -3.65529,-18.1956 -1.56877,-8.39353 -3.0232,-15.43175 -3.23204,-15.64057 -0.20896,-0.20872 -3.18596,0.15966 -6.61583,0.81855 -5.05698,0.9716 -6.72171,3.12665 -8.80435,11.39755 -1.41252,5.60967 -2.56824,15.33117 -2.56824,21.60327 0,13.2529 -2.875687,17.0661 -12.795657,16.9672 -5.71536,-0.057 -6.38024,-0.5272 -3.29369,-2.3294 z m 81.828507,-30.4689 0,-9.39131 -15.96522,0 c -18.78131,0 -22.14412,2.17355 -18.46073,11.93191 2.50677,6.6413 3.07255,6.8507 18.5059,6.8507 l 15.92005,0 0,-9.3913 z m 3.1497,-22.06608 c 3.71758,-5.67371 3.6119,-5.98764 -3.77117,-11.20378 -4.17777,-2.95157 -9.3614,-7.50267 -11.51919,-10.11355 -3.86506,-4.67664 -4.08273,-4.58103 -14.67392,6.44636 -5.91286,6.15638 -10.75065,11.85077 -10.75065,12.65422 0,3.87068 8.58506,6.7385 22.04494,7.36408 13.59601,0.63187 15.16713,0.19863 18.66999,-5.14733 z m -51.31688,-10.05964 c 9.31491,-6.32965 24.68891,-20.63322 24.68891,-22.96997 0,-2.37083 -25.61376,-1.24824 -31.37099,1.37494 -4.64541,2.11659 -5.95838,4.73993 -6.75664,13.5 -1.52858,16.77401 -0.365,17.4749 13.43872,8.09503 z m 76.34111,-11.05789 c 0,-12.26803 -1.53154,-13.16424 -22.49639,-13.16424 -13.01591,0 -15.06885,0.5831 -15.06885,4.28006 0,2.91722 4.67244,6.57199 14.67392,11.47797 20.83758,10.22131 22.89132,9.98862 22.89132,-2.59379 z m -47.6978,-51.55342 c 3.10474,-3.10477 -1.70471,-4.32663 -18.42706,-4.68152 -15.11132,-0.32069 -17.25928,0.16458 -18.01167,4.06841 -0.79208,4.1098 0.44773,4.34892 17.0303,3.28472 9.8365,-0.63126 18.5703,-1.83349 19.40843,-2.67161 z M 136.3898,894.96793 c 6.49129,-1.07273 8.71797,-2.5014 8.19293,-5.25679 -0.51732,-2.71496 -4.36154,-4.17822 -13.60958,-5.18036 -15.29332,-1.65722 -16.41033,-1.23311 -16.41033,6.23087 0,6.28847 4.25955,7.10934 21.82698,4.20628 z m 9.70375,-21.19647 c 0.83787,-2.18341 -0.007,-5.4571 -1.89615,-7.34612 -2.97815,-2.97814 -4.3203,-2.75757 -10.65148,1.75064 -9.65842,6.87739 -9.13006,9.53405 1.89615,9.53405 6.38863,0 9.5951,-1.18565 10.65148,-3.93857 z m 2.20095,-31.4806 c 1.6413,-8.20653 6.91907,-8.27098 8.11893,-0.0991 0.56857,3.87229 1.91801,4.87488 5.28261,3.92479 2.48543,-0.70181 6.63202,-1.87549 9.21463,-2.60818 6.73517,-1.91071 5.80599,-5.01658 -2.83807,-9.48661 -11.53279,-5.96383 -22.44838,-5.11241 -39.42281,3.07495 -13.70357,6.6097 -14.54212,7.39723 -8.2174,7.71733 3.87392,0.19605 9.15653,1.2645 11.73914,2.37429 9.79281,4.20811 14.5935,2.74989 16.12297,-4.89742 z"
       id="path4933"
       inkscape:connector-curvature="0" />
  </g>
</svg>
