<?xml version="1.0" encoding="UTF-8" standalone="no"?>
<!-- Created with Inkscape (http://www.inkscape.org/) -->

<svg
   xmlns:dc="http://purl.org/dc/elements/1.1/"
   xmlns:cc="http://creativecommons.org/ns#"
   xmlns:rdf="http://www.w3.org/1999/02/22-rdf-syntax-ns#"
   xmlns:svg="http://www.w3.org/2000/svg"
   xmlns="http://www.w3.org/2000/svg"
   xmlns:sodipodi="http://sodipodi.sourceforge.net/DTD/sodipodi-0.dtd"
   xmlns:inkscape="http://www.inkscape.org/namespaces/inkscape"
   width="300"
   height="300"
   id="svg2"
   version="1.1"
   inkscape:version="0.48.4 r9939"
   sodipodi:docname="image-seal.svg">
  <defs
     id="defs4" />
  <sodipodi:namedview
     id="base"
     pagecolor="#ffffff"
     bordercolor="#666666"
     borderopacity="1.0"
     inkscape:pageopacity="0.0"
     inkscape:pageshadow="2"
     inkscape:zoom="2.0506101"
     inkscape:cx="156.21232"
     inkscape:cy="110.79688"
     inkscape:document-units="px"
     inkscape:current-layer="layer1"
     showgrid="false"
     inkscape:window-width="1215"
     inkscape:window-height="1000"
     inkscape:window-x="65"
     inkscape:window-y="24"
     inkscape:window-maximized="1"
     fit-margin-top="10"
     fit-margin-left="10"
     fit-margin-right="10"
     fit-margin-bottom="10" />
  <metadata
     id="metadata7">
    <rdf:RDF>
      <cc:Work
         rdf:about="">
        <dc:format>image/svg+xml</dc:format>
        <dc:type
           rdf:resource="http://purl.org/dc/dcmitype/StillImage" />
        <dc:title />
      </cc:Work>
    </rdf:RDF>
  </metadata>
  <g
     inkscape:label="Calque 1"
     inkscape:groupmode="layer"
     id="layer1"
     transform="translate(0,-752.36218)">
    <path
       style="fill:#000000"
       d="m 88.769289,1043.3175 c 0,-2.2361 -1.08748,-4.0657 -2.41664,-4.0657 -3.0986,0 -5.63633,-9.5791 -9.679413,-36.5367 -3.129121,-20.86373 -1.875799,-37.806 3.813744,-51.55381 7.802029,-18.85229 11.214919,-42.91951 7.682849,-54.17827 -5.70764,-18.19353 -6.93674,-25.78081 -4.17635,-25.78081 3.60024,0 12.28233,10.02394 14.364681,16.58481 0.89009,2.80445 2.51085,5.09901 3.60168,5.09901 4.21479,0 9.12577,19.4873 6.39775,25.387 -7.54691,16.32128 -17.765871,50.88027 -18.880961,63.85272 -1.15243,13.40678 2.58522,32.57865 7.70857,39.54015 2.151851,2.9239 3.541831,13.1619 2.847541,20.974 -0.51913,5.8415 -11.263451,6.4879 -11.263451,0.6776 z m 60.233591,-10.9956 c -3.31321,-2.3207 -6.02404,-5.9964 -6.02404,-8.1682 0,-2.1718 -1.06998,-6.0667 -2.37776,-8.6554 -10.06766,-19.92807 -11.4509,-46.41534 -4.71721,-90.32835 2.19207,-14.29522 3.30486,-31.06629 2.47291,-37.26906 -1.92737,-14.36962 3.31949,-15.14354 12.38777,-1.82721 5.04685,7.41098 6.02973,11.44309 4.62052,18.9548 -0.98447,5.24775 -2.64949,9.55161 -3.70002,9.56411 -1.05049,0.0135 -2.2176,7.63573 -2.59354,16.94048 -0.37595,9.30477 -1.95729,20.05162 -3.51414,23.88193 -3.56289,8.76587 5.29926,45.3292 16.42135,67.7509 2.11132,4.2564 -1.2833,13.3754 -4.97909,13.3754 -1.08498,0 -4.68352,-1.8987 -7.99675,-4.2194 z m 52.57924,-6.1028 c -8.09129,-12.8175 -19.79014,-42.08158 -21.879,-54.72924 -0.86174,-5.21767 -0.17048,-18.63453 1.53595,-29.81524 1.70649,-11.18072 3.38333,-31.91587 3.72631,-46.07811 0.34296,-14.16225 1.62471,-25.56864 2.8483,-25.34755 1.22362,0.22118 5.1585,5.62508 8.74419,12.00888 7.01006,12.48037 7.05947,19.26721 0.35353,48.57487 -5.82696,25.46609 -4.59247,39.91481 5.18151,60.6454 4.83178,10.24819 11.19359,21.69499 14.13739,25.43749 6.46286,8.2162 6.58109,9.8784 1.09305,15.3664 -6.24925,6.2492 -8.52133,5.3741 -15.74123,-6.0629 z M 94.801089,861.1377 c -11.70271,-2.22449 -15.429169,-12.73491 -16.502442,-46.54483 -0.8698,-27.40027 -0.412421,-31.5238 3.841642,-34.63445 8.20673,-6.00089 12.04997,0.32472 12.04997,19.8331 0,12.71995 1.05836,17.77743 3.95266,18.88807 5.295921,2.03223 26.507031,-8.80455 36.657191,-18.72823 7.40817,-7.24286 8.17873,-9.6258 8.17873,-25.29271 l 0,-17.29647 8.13143,0 c 8.88254,0 9.05874,0.43514 8.2572,20.39167 -0.53751,13.38355 -0.37009,13.6907 9.82797,18.02969 5.70616,2.4278 15.2537,6.00262 21.21675,7.94403 5.96305,1.94141 12.00064,4.50056 13.41686,5.68699 1.41623,1.18643 4.63015,2.15716 7.14208,2.15716 3.75813,0 13.32203,10.39766 13.32203,14.48343 0,0.61696 -3.60152,2.61355 -8.00334,4.43684 -6.98414,2.89291 -9.02217,2.58961 -16.00369,-2.38162 -4.40016,-3.1332 -9.23502,-5.69674 -10.74411,-5.69674 -1.50908,0 -3.15039,-0.95501 -3.6473,-2.12225 -1.4603,-3.43014 -21.14419,-14.14062 -25.98789,-14.14062 -2.44526,0 -17.01212,6.276 -32.37079,13.94668 -19.8066,9.89213 -27.92483,15.35491 -27.92483,18.79068 0,2.66421 2.1345,5.49034 4.74334,6.28029 7.46061,2.25904 87.48536,2.41601 100.34847,0.19678 9.24777,-1.59547 12.66001,-1.0208 16.94048,2.85296 12.50953,11.32099 8.85445,12.1421 -54.0487,12.1421 -32.67483,0 -61.03319,0.43861 -63.01859,0.97466 -1.98537,0.53605 -6.384181,0.44728 -9.775121,-0.19732 z"
       id="path3002"
       inkscape:connector-curvature="0" />
  </g>
</svg>
