<?xml version="1.0" encoding="UTF-8" standalone="no"?>
<!-- Created with Inkscape (http://www.inkscape.org/) -->

<svg
   xmlns:dc="http://purl.org/dc/elements/1.1/"
   xmlns:cc="http://creativecommons.org/ns#"
   xmlns:rdf="http://www.w3.org/1999/02/22-rdf-syntax-ns#"
   xmlns:svg="http://www.w3.org/2000/svg"
   xmlns="http://www.w3.org/2000/svg"
   xmlns:sodipodi="http://sodipodi.sourceforge.net/DTD/sodipodi-0.dtd"
   xmlns:inkscape="http://www.inkscape.org/namespaces/inkscape"
   width="300"
   height="300"
   id="svg2"
   version="1.1"
   inkscape:version="0.48.4 r9939"
   sodipodi:docname="image-seal.svg">
  <defs
     id="defs4" />
  <sodipodi:namedview
     id="base"
     pagecolor="#ffffff"
     bordercolor="#666666"
     borderopacity="1.0"
     inkscape:pageopacity="0.0"
     inkscape:pageshadow="2"
     inkscape:zoom="2.0018437"
     inkscape:cx="145.03351"
     inkscape:cy="130.6666"
     inkscape:document-units="px"
     inkscape:current-layer="layer1"
     showgrid="false"
     inkscape:window-width="1215"
     inkscape:window-height="1000"
     inkscape:window-x="65"
     inkscape:window-y="24"
     inkscape:window-maximized="1"
     fit-margin-top="10"
     fit-margin-left="10"
     fit-margin-right="10"
     fit-margin-bottom="10" />
  <metadata
     id="metadata7">
    <rdf:RDF>
      <cc:Work
         rdf:about="">
        <dc:format>image/svg+xml</dc:format>
        <dc:type
           rdf:resource="http://purl.org/dc/dcmitype/StillImage" />
        <dc:title />
      </cc:Work>
    </rdf:RDF>
  </metadata>
  <g
     inkscape:label="Calque 1"
     inkscape:groupmode="layer"
     id="layer1"
     transform="translate(0,-752.36218)">
    <path
       style="fill:#000000"
       d="m 136.43664,1017.1629 c 0.85634,-16.9165 2.32122,-35.61078 3.25525,-41.54285 2.23685,-14.20624 -1.55386,-16.23277 -16.23759,-8.68064 -13.55076,6.96941 -21.94074,22.55712 -25.975753,48.26029 -2.50243,15.9407 -3.67257,19.0217 -7.83033,20.6171 -7.71701,2.9613 -11.21758,-0.8021 -8.98405,-9.6586 1.15692,-4.5875 3.53541,-14.8195 5.28556,-22.7379 1.75016,-7.91836 4.7773,-17.54721 6.72697,-21.39745 5.811525,-11.47665 22.202613,-25.11356 34.234853,-28.48238 7.92682,-2.21937 11.26266,-4.54742 11.26266,-7.86007 0,-3.74992 -2.96791,-5.07756 -14.59963,-6.53085 -16.23536,-2.02846 -21.66259,-6.24629 -26.988283,-20.97426 -2.98921,-8.26653 -2.90644,-10.11739 0.60973,-13.63356 3.350153,-3.35016 4.784913,-3.4739 8.126303,-0.70077 2.2318,1.85222 4.05784,5.57934 4.05784,8.28245 0,10.92888 18.20249,19.69489 27.78758,13.38203 1.81609,-1.1961 3.62096,-18.11352 4.77416,-44.74945 1.0198,-23.55446 2.50437,-44.52069 3.29906,-46.59161 0.79469,-2.07092 3.35807,-3.38725 5.6964,-2.92516 4.94504,0.97722 5.08262,4.77536 2.08545,57.57458 l -2.03833,35.90781 6.68305,1.67733 c 11.97612,3.00581 18.64267,-0.5068 21.95702,-11.56915 4.28945,-14.31687 3.95476,-15.66286 -4.1266,-16.59563 -4.32814,-0.49955 -7.5209,-2.64628 -8.04485,-5.40914 -0.73194,-3.85956 1.15849,-4.58087 12.0057,-4.58087 9.67208,0 14.08741,-1.34031 17.75095,-5.38852 7.31785,-8.0861 2.25869,-13.93302 -13.49757,-15.59925 -16.85483,-1.7824 -21.81928,-4.77057 -15.54627,-9.35754 3.05403,-2.23314 8.92676,-2.85831 17.41123,-1.85345 11.80807,1.3985 12.80278,1.08122 12.80278,-4.08359 0,-5.02721 -1.43957,-5.59989 -14.07652,-5.59989 -8.58251,0 -15.21438,-1.37107 -16.99194,-3.5129 -4.59443,-5.53597 -0.79013,-6.95766 18.61789,-6.95766 16.66942,0 18.71419,0.62561 26.06292,7.97435 7.04871,7.04873 7.75639,9.09967 6.09651,17.66907 -1.03281,5.3321 -2.52754,13.22853 -3.32165,17.54764 -1.51216,8.22465 -8.35519,15.77421 -16.69814,18.42216 -3.9574,1.25602 -4.92435,4.13789 -4.92435,14.67609 0,11.0033 -1.2311,14.34427 -7.65157,20.76471 -6.4761,6.4761 -9.72265,7.65158 -21.13305,7.65158 -11.38545,0 -13.34554,0.70603 -12.60697,4.54105 0.57059,2.9628 4.27335,5.09351 10.65392,6.13065 5.37868,0.87426 11.93741,3.54255 14.57497,5.9295 2.63753,2.38695 5.9699,4.33992 7.4052,4.33992 1.4353,0 4.93001,2.65036 7.76604,5.88969 10.48781,11.97926 12.54276,19.87095 12.65838,48.61244 0.10707,26.5882 -0.16046,27.9924 -5.47508,28.7504 -5.33724,0.7612 -5.63586,-0.4114 -6.66658,-26.1764 -1.34944,-33.73265 -5.45594,-43.35672 -21.91116,-51.35128 -12.04185,-5.8504 -19.40802,-7.26345 -19.60906,-3.76162 -0.062,1.07977 -0.69438,13.74261 -1.4053,28.13963 -2.19717,44.49477 -3.09076,51.65477 -6.7349,53.96427 -7.37322,4.6727 -8.09181,1.5631 -6.57285,-28.4423 z M 88.439057,888.24415 c -4.15354,-4.15354 -5.23528,-8.72546 -5.23528,-22.12678 0,-9.29032 1.29853,-19.74143 2.88561,-23.2247 3.30542,-7.25463 16.908133,-12.2366 33.410633,-12.2366 9.07617,0 10.82127,0.84426 10.82127,5.23528 0,4.58626 -1.7451,5.23528 -14.07652,5.23528 -9.49096,0 -15.16802,1.3152 -17.427228,4.03739 -4.833335,5.82381 -0.60148,8.61256 14.489088,9.54818 9.52821,0.59073 13.0882,1.87944 13.0882,4.73791 0,2.71949 -3.2186,4.14092 -10.47056,4.62416 -17.457718,1.16331 -22.249933,2.95906 -22.249933,8.3375 0,5.6629 8.186263,9.26315 18.813543,8.27404 8.65497,-0.80552 17.83341,3.80558 17.83341,8.95924 0,3.00223 -3.97664,3.83438 -18.32348,3.83438 -14.833293,0 -19.320663,-0.99719 -23.558753,-5.23528 z m 19.168733,-73.86022 c -7.5471,-8.25052 -13.933453,-21.51297 -13.933453,-28.9354 0,-7.05561 16.813223,-28.08638 22.453893,-28.08638 5.61084,0 4.48423,10.63112 -1.83999,17.36296 -7.49302,7.97595 -7.00218,17.34836 1.43353,27.37365 11.38218,13.52695 3.68393,25.18267 -8.11398,12.28517 z m 44.08412,-0.97463 c -8.48875,-9.13564 -13.48255,-19.42545 -13.50158,-27.82028 -0.0183,-8.44309 16.47106,-26.34675 23.09227,-25.07162 7.46085,1.43682 6.49835,9.5871 -1.97409,16.71619 -10.32952,8.69172 -10.12825,12.59925 1.23429,23.9618 5.10425,5.10424 8.9205,11.17062 8.48061,13.48087 -1.26197,6.62753 -10.63251,5.94252 -17.3315,-1.26696 z m 40.23648,-2.13356 c -7.69738,-7.05054 -9.65111,-10.94763 -10.75285,-21.44865 -1.25309,-11.94382 -0.70147,-13.51252 7.96425,-22.64879 5.53078,-5.83111 11.76893,-9.81615 15.3661,-9.81615 5.24575,0 5.90065,1.05511 4.8975,7.89011 -0.71161,4.84842 -4.06873,9.96271 -8.7084,13.26644 -9.47334,6.74563 -9.43538,9.34694 0.30258,20.72569 14.41707,16.84624 6.97135,26.7239 -9.06918,12.03135 z"
       id="path3002"
       inkscape:connector-curvature="0" />
  </g>
</svg>
