<?xml version="1.0" encoding="UTF-8" standalone="no"?>
<svg
   xmlns:dc="http://purl.org/dc/elements/1.1/"
   xmlns:cc="http://creativecommons.org/ns#"
   xmlns:rdf="http://www.w3.org/1999/02/22-rdf-syntax-ns#"
   xmlns:svg="http://www.w3.org/2000/svg"
   xmlns="http://www.w3.org/2000/svg"
   viewBox="0 0 300 300"
   height="300"
   width="300"
   id="svg212"
   version="1.1">
  <metadata
     id="metadata218">
    <rdf:RDF>
      <cc:Work
         rdf:about="">
        <dc:format>image/svg+xml</dc:format>
        <dc:type
           rdf:resource="http://purl.org/dc/dcmitype/StillImage" />
        <dc:title></dc:title>
      </cc:Work>
    </rdf:RDF>
  </metadata>
  <defs
     id="defs216" />
  <path
     id="path222"
     d="m 217.94612,282.68421 c -4.79419,-0.35607 -43.69249,-0.5987 -86.44068,-0.5392 -77.540005,0.10794 -80.252325,0.0359 -86.381585,-2.29445 -1.84167,-0.7002 -1.93595,-0.96841 -1.72985,-4.92147 l 0.21797,-4.1809 3.63196,-0.92433 c 11.9263,-3.03521 25.44695,-3.63145 52.66344,-2.32237 8.190075,0.39394 21.510295,0.50004 29.600495,0.2358 l 14.70944,-0.48043 V 149.3294 31.401938 l -13.98305,-0.06895 c -34.809675,-0.171649 -69.229945,-1.174916 -71.601515,-2.08701 -3.08059,-1.184775 -4.05512,-3.596829 -2.94724,-7.294624 1.59476,-5.322825 -3.86862,-5.024028 93.718255,-5.125529 85.81869,-0.08926 86.94722,-0.07197 90.23487,1.382308 3.32127,1.469161 6.26528,4.995862 6.27088,7.512076 0.003,1.383439 -5.00617,3.48326 -11.98276,5.023028 -5.26901,1.1629 -21.79771,1.275251 -53.20823,0.361676 L 158.01876,30.444688 V 148.85557 267.26644 l 45.57889,0.53488 c 34.24542,0.40189 46.1213,0.76468 47.76029,1.45903 2.8662,1.21424 4.6021,3.24022 5.15806,6.02002 0.41275,2.06378 0.21073,2.38034 -2.35215,3.68577 -7.65537,3.89934 -18.62036,5.02499 -36.21773,3.71807 z M 98.091395,260.70334 c -4.72105,-1.85102 -6.88163,-3.58972 -15.63626,-12.58303 -13.4136,-13.77929 -23.94264,-27.96862 -28.52529,-38.44172 -5.39535,-12.33046 -5.42534,-27.17875 -0.0902,-44.6524 1.69337,-5.54608 2.53746,-6.98422 7.93513,-13.51963 3.3221,-4.02234 8.44407,-9.27764 11.38214,-11.67842 8.92055,-7.28925 17.69728,-17.00694 19.35019,-21.42473 4.2781,-11.43425 1.60726,-24.089545 -10.37951,-49.181414 -9.71432,-20.334954 -10.07249,-21.550621 -7.92831,-26.909475 1.27107,-3.176726 2.01371,-3.431209 5.6181,-1.925201 3.53039,1.475095 7.15844,6.185419 10.2779,13.343899 1.52511,3.499767 4.80861,10.776045 7.29668,16.169508 6.884975,14.924709 9.818725,25.635458 9.911205,36.184553 0.10574,12.06305 -4.02555,24.07307 -10.796615,31.38662 l -3.92523,4.23971 1.18049,2.77495 c 0.64927,1.52622 2.12458,6.04371 3.27845,10.03887 3.634695,12.58471 13.641185,30.80732 21.340075,38.86198 10.61345,11.1039 14.94106,17.49602 14.94106,22.06879 0,3.82436 -6.19399,5.39273 -10.62553,2.69049 -2.83958,-1.73149 -13.33677,-13.45926 -20.21083,-22.5801 -8.963075,-11.89265 -12.212365,-18.02799 -16.492675,-31.14156 -2.17121,-6.65194 -4.33851,-12.06934 -4.91847,-12.29423 -1.32418,-0.51349 -7.2761,5.89279 -11.33559,12.20092 -5.10955,7.93985 -6.45226,12.29482 -6.38286,20.70218 0.0686,8.31443 1.8115,15.17028 6.75266,26.56269 2.92614,6.74657 3.16656,7.0476 15.91368,19.92576 13.89762,14.04051 17.827665,18.64666 19.971005,23.4068 1.58229,3.51407 1.23288,5.02545 -1.39256,6.02365 -2.34406,0.8912 -3.73566,0.83787 -6.508865,-0.24946 z m 98.950855,-0.19693 c -0.3107,-0.31529 -0.34702,-2.49897 -0.0807,-4.85263 l 0.48416,-4.2794 13.53264,-13.55765 c 13.68748,-13.71276 23.73847,-25.9348 26.36291,-32.05737 2.07382,-4.83802 3.46336,-11.41706 3.47552,-16.45556 0.0125,-5.16924 -2.65764,-16.31323 -5.28718,-22.06651 -1.62222,-3.5493 -11.41258,-15.25423 -12.75912,-15.25423 -0.27833,0 -1.603,3.0236 -2.9437,6.71912 -3.64924,10.05876 -10.61265,23.83644 -16.40653,32.46164 -6.74806,10.04565 -17.29138,23.48164 -20.61124,26.26615 -2.39596,2.0096 -3.01548,2.18486 -6.82282,1.9302 -2.30315,-0.15405 -4.49933,-0.59186 -4.88037,-0.97291 -0.43948,-0.43948 0.0604,-3.03491 1.36703,-7.09814 1.77639,-5.5239 2.60772,-6.97142 6.0413,-10.51914 4.7885,-4.94766 9.18373,-10.7105 14.49472,-19.00484 6.88878,-10.75843 9.13615,-15.5649 13.26649,-28.37308 l 4.0277,-12.48996 -3.24878,-4.32184 c -9.11387,-12.12412 -12.30497,-25.49234 -9.41966,-39.461025 2.23342,-10.812671 9.94327,-31.201092 17.50091,-46.280571 5.1884,-10.352183 10.33751,-13.791867 14.46592,-9.663449 3.65421,3.6542 2.238,8.836367 -8.01777,29.338676 -10.41768,20.82599 -11.56674,24.326714 -11.60085,35.343259 -0.0256,8.28765 0.085,8.95299 2.24753,13.51707 2.41012,5.08655 4.22143,7.10403 16.214,18.05939 9.59309,8.76342 14.47103,14.69942 18.4876,22.49774 5.35538,10.39766 6.61998,15.53876 6.53203,26.55534 -0.0632,7.91635 -0.3775,10.44136 -1.944,15.61743 -4.18411,13.82523 -7.27558,18.96789 -22.09361,36.75269 -11.3666,13.64234 -15.90979,18.17212 -20.39641,20.33622 -2.86901,1.38386 -11.03642,2.27869 -11.98768,1.31338 z"
     style="fill:#000000;stroke-width:0.72639227" />
</svg>
