<?xml version="1.0" encoding="UTF-8" standalone="no"?>
<!-- Created with Inkscape (http://www.inkscape.org/) -->

<svg
   xmlns:dc="http://purl.org/dc/elements/1.1/"
   xmlns:cc="http://creativecommons.org/ns#"
   xmlns:rdf="http://www.w3.org/1999/02/22-rdf-syntax-ns#"
   xmlns:svg="http://www.w3.org/2000/svg"
   xmlns="http://www.w3.org/2000/svg"
   xmlns:sodipodi="http://sodipodi.sourceforge.net/DTD/sodipodi-0.dtd"
   xmlns:inkscape="http://www.inkscape.org/namespaces/inkscape"
   width="300"
   height="300"
   id="svg2"
   version="1.1"
   inkscape:version="0.48.2 r9819"
   sodipodi:docname="Nouveau document 1">
  <defs
     id="defs4" />
  <sodipodi:namedview
     id="base"
     pagecolor="#ffffff"
     bordercolor="#666666"
     borderopacity="1.0"
     inkscape:pageopacity="0.0"
     inkscape:pageshadow="2"
     inkscape:zoom="2.8"
     inkscape:cx="151.62434"
     inkscape:cy="129.30822"
     inkscape:document-units="px"
     inkscape:current-layer="layer1"
     showgrid="false"
     inkscape:window-width="1280"
     inkscape:window-height="999"
     inkscape:window-x="0"
     inkscape:window-y="24"
     inkscape:window-maximized="1" />
  <metadata
     id="metadata7">
    <rdf:RDF>
      <cc:Work
         rdf:about="">
        <dc:format>image/svg+xml</dc:format>
        <dc:type
           rdf:resource="http://purl.org/dc/dcmitype/StillImage" />
        <dc:title></dc:title>
      </cc:Work>
    </rdf:RDF>
  </metadata>
  <g
     inkscape:label="Calque 1"
     inkscape:groupmode="layer"
     id="layer1"
     transform="translate(0,-752.36218)">
    <path
       style="fill:#000000"
       d="m 70.99933,1028.4534 c -3.65581,-2.9382 -3.697209,-10.3967 -0.221931,-39.99128 5.401086,-45.99427 10.290047,-65.08908 12.188371,-71.22808 -11.43769,-9.34391 -19.801376,-27.51788 -13.591127,-35.79104 6.892177,-8.88993 34.659487,-23.83557 42.429467,-22.83748 10.67284,1.37097 8.35048,7.42192 -5.62413,14.65375 -8.970472,4.2258 -40.38284,15.89351 -15.060446,32.26944 0.901421,-2.24989 7.825771,-3.89293 24.901196,-14.49801 11.97822,-7.43935 30.26163,-16.39115 40.62982,-19.89289 10.36818,-3.50174 20.99393,-7.796 23.61277,-9.5428 10.59329,-7.06584 33.42122,-5.82971 29.12944,1.57736 -0.99807,1.72255 -11.78342,6.6496 -23.96745,10.94901 -24.13944,10.34952 -64.23363,24.22348 -81.89438,41.50213 5.3033,2.4622 21.34639,1.85826 35.41168,-1.30774 7.64654,-1.72119 31.0079,-8.82328 51.91413,-15.78242 33.21062,-11.05495 38.64803,-12.2283 43.05263,-9.29038 7.52352,5.01828 2.74877,9.9844 -14.92851,15.5268 -30.56516,9.89783 -70.31604,22.80143 -100.24474,22.97036 l -19.309502,-2.39911 c -4.855662,21.13011 -6.838259,43.93854 -7.224343,62.64969 -0.492941,29.20399 -1.640434,36.67039 -6.146114,39.99129 -6.80552,5.0159 -9.304965,5.0942 -15.056831,0.4714 z m 29.61646,-38.21979 c 1.50771,-3.02394 -1.355455,-6.7395 2.82755,-8.33252 17.59661,-6.7013 58.68938,-1.14008 58.68938,-2.44802 0,0 0.77508,-18.69922 -0.19327,-25.63167 -0.27417,-1.96285 -7.06762,-2.89792 -21.05387,-2.89792 -20.50218,0 -26.26187,-1.59059 -21.69892,-5.99233 6.6348,-6.4004 106.06842,-10.85476 114.64261,-5.13568 6.44172,4.29671 4.98345,6.49134 -4.31329,6.49134 -7.96873,0.55625 -14.95675,4.14568 -22.06303,3.33866 -14.55221,-1.76992 -18.26602,1.44556 -19.09623,16.53386 -0.84881,15.42632 -4.88181,13.74434 35.74058,14.90574 19.56574,0.55938 36.59806,5.40759 32.9248,9.37194 -2.90351,3.1336 -153.4958,2.93777 -156.40631,-0.2034 z m 42.3818,-121.9974 c -4.7355,-3.15863 -2.49803,-54.09139 2.66901,-60.75615 12.16801,-15.69502 61.05219,-27.24186 61.05219,-14.42102 0,4.09177 -17.24794,9.49103 -30.31915,9.49103 -10.65165,0 -14.86497,10.8089 -14.86497,38.1348 0,22.9902 -2.57743,29.0969 -12.28081,29.0969 -2.16653,0 -4.98185,-0.6955 -6.25627,-1.54556 z m -91.122085,-7.91617 c -2.277867,-2.45838 14.504804,-16.03995 19.820483,-16.03995 1.487598,0 10.103551,-3.12975 19.146561,-6.955 9.043012,-3.82526 17.624401,-6.95501 19.069751,-6.95501 4.12559,0 27.29246,16.63537 27.29246,19.59781 0,1.46201 -1.79504,3.85551 -3.98897,5.31889 -3.00149,2.00203 -6.35816,0.96899 -13.55944,-4.173 -11.1354,-7.95111 -16.00639,-8.46659 -23.752334,-2.51362 -7.653301,5.88178 -28.633284,14.20733 -35.828501,14.21794 -3.232544,0.005 -6.922548,-1.11936 -8.20001,-2.49806 z m 113.134865,-7.64191 c 3.20637,-5.93017 15.71141,-16.49976 20.85421,-18.83055 5.72391,-2.55016 10.41161,-5.4191 10.41711,-6.37542 0.006,-0.95631 4.31118,-1.71052 9.56818,-1.67602 11.3067,0.0742 42.57734,17.48822 42.57734,23.7105 0,5.65195 -14.64198,5.26964 -22.59206,-0.58988 -14.3032,-8.49249 -23.77684,-9.84995 -35.55875,-1.15917 -10.77209,8.11572 -25.26603,10.9384 -25.26603,4.92054 z M 59.580748,831.14286 c -4.922454,-3.28334 -1.914224,-7.27658 7.425602,-9.85704 5.358505,-1.48047 13.892605,-5.25842 18.964666,-8.39543 5.336113,-3.30032 13.313353,-5.67278 18.931804,-5.63039 12.8498,0.0969 28.82623,9.63144 28.82623,17.20304 0,7.79615 -5.7089,7.46195 -17.90137,-1.04796 -5.48059,-3.82525 -11.36718,-6.95501 -13.08132,-6.95501 -1.71415,0 -9.668854,3.65138 -17.677132,8.11418 -14.278553,7.95704 -20.862941,9.6539 -25.48848,6.56861 z m 109.774252,0.0102 c -2.38955,-0.64314 -4.34463,-2.27858 -4.34463,-3.63432 0,-3.60997 35.59228,-24.79675 41.70842,-24.82749 2.86746,-0.0144 12.64287,3.60944 21.72314,8.05302 12.03329,5.88868 16.50958,9.64455 16.50958,13.85253 0,8.06664 -10.10564,7.47016 -20.37652,-1.20273 -10.95788,-9.253 -21.61223,-8.91076 -36.74084,1.18021 -8.7446,5.37599 -9.7273,8.92926 -18.47915,6.57878 z"
       id="path3031"
       inkscape:connector-curvature="0"
       sodipodi:nodetypes="ssccsccssssccsssccccsscscssssccssscssssssssssssssscscccsscccssssssssscssssscc" />
  </g>
</svg>
