<?xml version="1.0" encoding="UTF-8" standalone="no"?>
<!-- Created with Inkscape (http://www.inkscape.org/) -->

<svg
   xmlns:dc="http://purl.org/dc/elements/1.1/"
   xmlns:cc="http://creativecommons.org/ns#"
   xmlns:rdf="http://www.w3.org/1999/02/22-rdf-syntax-ns#"
   xmlns:svg="http://www.w3.org/2000/svg"
   xmlns="http://www.w3.org/2000/svg"
   xmlns:sodipodi="http://sodipodi.sourceforge.net/DTD/sodipodi-0.dtd"
   xmlns:inkscape="http://www.inkscape.org/namespaces/inkscape"
   width="300"
   height="300"
   id="svg2"
   version="1.1"
   inkscape:version="0.48.2 r9819"
   sodipodi:docname="Nouveau document 1">
  <defs
     id="defs4" />
  <sodipodi:namedview
     id="base"
     pagecolor="#ffffff"
     bordercolor="#666666"
     borderopacity="1.0"
     inkscape:pageopacity="0.0"
     inkscape:pageshadow="2"
     inkscape:zoom="1.979899"
     inkscape:cx="119.04134"
     inkscape:cy="171.92015"
     inkscape:document-units="px"
     inkscape:current-layer="layer1"
     showgrid="false"
     inkscape:window-width="1280"
     inkscape:window-height="999"
     inkscape:window-x="0"
     inkscape:window-y="24"
     inkscape:window-maximized="1" />
  <metadata
     id="metadata7">
    <rdf:RDF>
      <cc:Work
         rdf:about="">
        <dc:format>image/svg+xml</dc:format>
        <dc:type
           rdf:resource="http://purl.org/dc/dcmitype/StillImage" />
        <dc:title></dc:title>
      </cc:Work>
    </rdf:RDF>
  </metadata>
  <g
     inkscape:label="Calque 1"
     inkscape:groupmode="layer"
     id="layer1"
     transform="translate(0,-752.36218)">
    <path
       style="fill:#000000"
       d="m 240.59802,1039.7687 c -5.9593,-3.4306 -10.91914,-12.7028 -10.91914,-20.4127 0,-4.2645 -1.59841,-11.6564 -3.55207,-16.4263 -3.71485,-9.07033 -3.94892,-9.567 -15.4722,-32.82694 -4.01556,-8.10556 -12.21028,-18.37613 -18.68138,-23.41372 -12.78997,-9.95669 -16.09139,-10.56793 -76.16542,-14.10151 -38.746396,-2.2791 -43.945498,-3.46134 -53.811974,-12.23655 -9.285109,-8.25819 -9.917047,-31.75177 -1.147727,-42.66955 8.367714,-10.41778 18.591464,-18.21491 23.883661,-18.21491 2.842689,0 4.635676,-2.51354 4.764177,-6.6788 0.589853,-19.11717 -0.637771,-51.35219 -2.219768,-58.28774 -1.693839,-7.42574 -2.574265,-7.89314 -14.868192,-7.89314 -13.994816,0 -20.555162,-3.22824 -20.555162,-10.11491 0,-10.20373 12.992751,-10.83491 112.311195,-5.45607 45.73502,2.47689 53.25734,7.79215 56.27002,39.76034 1.07504,11.40743 0.78714,21.77902 -0.6398,23.04799 -1.42691,1.26898 -2.59438,4.87517 -2.59438,8.01375 0,6.8421 -6.94492,17.88262 -14.19561,22.56713 -9.97189,6.44263 -28.0248,9.54037 -55.81111,9.5768 -15.33949,0.0194 -36.09301,1.35555 -46.11891,2.96763 -15.640484,2.51487 -18.467481,3.80811 -19.908839,9.10746 -0.923916,3.39703 -2.779859,8.3622 -4.124254,11.03372 -3.341664,6.64036 4.759686,15.78626 13.983303,15.78626 3.991072,0 8.124124,1.0929 9.18459,2.42866 1.06047,1.33576 13.85861,2.42866 28.44032,2.42866 40.11082,0 64.60029,5.30445 78.48773,17.00059 8.04629,6.77664 25.04568,32.472 31.33139,47.35878 2.25603,5.34305 5.2957,11.90041 6.75481,14.57195 6.54674,11.98662 12.36873,42.50142 8.10893,42.50142 -0.71761,0 -3.17443,0.5349 -5.45958,1.1889 -2.28518,0.6538 -5.55875,0.3806 -7.27461,-0.6072 z M 183.45705,852.25351 c 6.171,-2.3107 8.90533,-5.58434 10.39409,-12.44407 1.11109,-5.1197 1.24503,-10.28492 0.29762,-11.47829 -2.08571,-2.62715 -73.73077,-1.4271 -76.90125,1.28809 -2.3361,2.00065 -6.07978,24.21122 -4.31275,25.58681 2.94402,2.29182 63.26059,-0.23339 70.52229,-2.95254 z m 10.85746,-50.29939 c -1.0249,-4.91659 -3.66536,-10.28948 -5.86775,-11.93978 -4.1938,-3.14248 -25.92296,-4.63467 -56.26024,-3.8635 l -17.93859,0.456 0,12.14328 0,12.14328 40.96501,0 40.965,0 -1.86343,-8.93928 z"
       id="path2996"
       inkscape:connector-curvature="0" />
  </g>
</svg>
