<?xml version="1.0" encoding="UTF-8" standalone="no"?>
<!-- Created with Inkscape (http://www.inkscape.org/) -->

<svg
   xmlns:dc="http://purl.org/dc/elements/1.1/"
   xmlns:cc="http://creativecommons.org/ns#"
   xmlns:rdf="http://www.w3.org/1999/02/22-rdf-syntax-ns#"
   xmlns:svg="http://www.w3.org/2000/svg"
   xmlns="http://www.w3.org/2000/svg"
   xmlns:sodipodi="http://sodipodi.sourceforge.net/DTD/sodipodi-0.dtd"
   xmlns:inkscape="http://www.inkscape.org/namespaces/inkscape"
   width="300"
   height="300"
   id="svg2"
   version="1.1"
   inkscape:version="0.48.4 r9939"
   sodipodi:docname="image-seal.svg">
  <defs
     id="defs4" />
  <sodipodi:namedview
     id="base"
     pagecolor="#ffffff"
     bordercolor="#666666"
     borderopacity="1.0"
     inkscape:pageopacity="0.0"
     inkscape:pageshadow="2"
     inkscape:zoom="2.0018437"
     inkscape:cx="145.03351"
     inkscape:cy="130.6666"
     inkscape:document-units="px"
     inkscape:current-layer="layer1"
     showgrid="false"
     inkscape:window-width="1215"
     inkscape:window-height="1000"
     inkscape:window-x="65"
     inkscape:window-y="24"
     inkscape:window-maximized="1"
     fit-margin-top="10"
     fit-margin-left="10"
     fit-margin-right="10"
     fit-margin-bottom="10" />
  <metadata
     id="metadata7">
    <rdf:RDF>
      <cc:Work
         rdf:about="">
        <dc:format>image/svg+xml</dc:format>
        <dc:type
           rdf:resource="http://purl.org/dc/dcmitype/StillImage" />
        <dc:title />
      </cc:Work>
    </rdf:RDF>
  </metadata>
  <g
     inkscape:label="Calque 1"
     inkscape:groupmode="layer"
     id="layer1"
     transform="translate(0,-752.36218)">
    <path
       style="fill:#000000"
       d="m 147.05567,1036.3621 c -0.0532,-6.431 -0.47297,-23.1228 -0.9326,-37.09295 -0.45962,-13.97013 -0.90234,-37.78589 -0.98379,-52.92395 l -0.14804,-27.52371 -10.28105,1.63084 c -16.70089,2.64914 -16.65319,2.4936 -16.5063,53.83148 0.10135,35.40399 -0.63305,46.94089 -3.21238,50.46829 -2.81089,3.8441 -3.95175,4.0682 -7.15948,1.406 -3.30167,-2.7402 -3.69339,-9.7352 -2.90739,-51.9187 0.49964,-26.81353 1.68,-51.19504 2.62305,-54.18114 1.7389,-5.50607 9.15146,-8.51092 28.43914,-11.52844 l 9.13862,-1.42974 -1.54717,-11.66316 c -1.6799,-12.66374 0.52129,-16.079 8.69182,-13.48578 3.95169,1.25421 4.81649,3.67113 4.81649,13.46103 l 0,11.93233 14.09275,0 c 11.72371,0 15.00396,0.96997 19.51347,5.77013 5.99874,6.38536 6.05007,6.801 8.91478,72.17685 1.60094,36.53522 1.38195,40.60122 -2.26202,41.99952 -2.21899,0.8516 -5.65356,0.2047 -7.63236,-1.4377 -2.96948,-2.4644 -3.59778,-11.616 -3.59778,-52.40402 l 0,-49.41816 -7.86261,-3.28522 c -4.32443,-1.80685 -10.83806,-2.71639 -14.47477,-2.02118 l -6.61221,1.26399 -0.6444,63.19409 c -0.5984,58.6844 -0.95567,63.2539 -5.00658,64.0331 -3.70758,0.7131 -4.37672,-0.9156 -4.45912,-10.8538 z M 70,892.91518 c 0,-5.25081 6.63338,-9.76138 14.35539,-9.76138 2.74845,0 4.99717,-1.08858 4.99717,-2.41907 0,-4.25289 4.22936,-2.58925 5.46903,2.15128 1.45471,5.56277 -0.20538,8.35914 -7.1243,12.001 C 79.03929,899.44423 70,898.43707 70,892.91518 z m 159.65861,2.62745 c 0,-1.16906 -3.53789,-3.53629 -7.86198,-5.26048 -4.32408,-1.72422 -10.75148,-5.12202 -14.28308,-7.55072 -3.5316,-2.42867 -8.14849,-4.41577 -10.25976,-4.41577 -2.11127,0 -11.4408,-3.39918 -20.7323,-7.55376 l -16.89365,-7.55377 -18.80892,7.56678 c -10.34491,4.16172 -20.71394,7.5609 -23.04229,7.55377 -2.32836,-0.007 -4.23337,0.90083 -4.23337,2.01774 0,1.7585 -10.33238,7.64552 -13.4187,7.64552 -0.602638,0 -1.095718,-2.0692 -1.095718,-4.59822 0,-3.41101 5.933418,-7.48465 22.981158,-15.77787 12.63964,-6.14884 23.14685,-12.51615 23.34937,-14.1496 1.04719,-8.44633 1.7532,-44.47566 0.91898,-46.89689 -1.50551,-4.36951 -18.66097,0.41453 -40.78806,11.37432 -20.98492,10.39405 -23.4274,10.99049 -27.66293,6.75497 -3.66755,-3.66756 5.69229,-11.99419 18.26161,-16.24582 4.94315,-1.67204 13.34187,-5.03073 18.66382,-7.46375 5.32196,-2.43303 13.48632,-5.80679 18.14303,-7.49723 13.39487,-4.86255 14.51442,-6.55266 14.51442,-21.91145 0,-12.16814 0.63865,-14.21823 4.42936,-14.21823 5.379,0 10.01575,8.68303 9.04251,16.93349 -1.37665,11.67034 0.99399,13.25444 43.37627,28.98461 2.66097,0.98764 11.64177,4.86751 19.95732,8.62196 12.22951,5.52157 15.11919,7.89712 15.11919,12.42915 0,3.08158 -0.84646,5.60288 -1.881,5.60288 -2.07353,0 -29.34184,-13.84337 -33.19551,-16.85242 -1.33049,-1.03887 -9.49485,-4.34112 -18.14303,-7.33827 -8.64817,-2.99716 -17.13081,-6.57204 -18.85031,-7.94413 -5.94985,-4.74779 -8.3693,2.49969 -9.34987,28.00758 -0.95075,24.73201 -0.84699,25.33044 5.06292,29.20274 3.31845,2.17433 8.10386,3.95334 10.6342,3.95334 7.38547,0 30.34886,10.27742 33.9209,15.18153 1.84919,2.53874 4.86632,3.88531 6.93059,3.09319 2.01066,-0.77156 8.4292,0.98115 14.26342,3.8949 7.96575,3.97828 10.60769,6.69717 10.60769,10.9166 0,4.00618 -1.38862,5.6189 -4.83814,5.6189 -2.66098,0 -4.83814,-0.95653 -4.83814,-2.12559 z M 83.4844,854.92998 c -1.95444,-5.09313 -0.51463,-6.26336 14.3349,-11.65072 18.31996,-6.64642 25.40024,-12.43516 25.40024,-20.76692 0,-5.47977 1.10012,-7.0925 4.83814,-7.0925 4.19493,0 4.83814,1.61273 4.83814,12.13091 0,10.95004 -0.72381,12.57109 -7.43577,16.65286 -4.08967,2.48709 -11.56837,5.18278 -16.61932,5.99048 -5.05094,0.80768 -10.54681,3.11112 -12.21299,5.11876 -4.02758,4.85294 -11.21452,4.64359 -13.14334,-0.38287 z m 114.7263,-3.26357 c -7.31768,-3.80108 -15.07661,-6.98008 -17.24206,-7.06441 -6.01579,-0.23416 -8.80977,-5.08614 -10.18784,-17.69157 -1.11815,-10.22793 -0.73501,-11.49059 3.4865,-11.49059 4.83587,0 5.51621,1.06858 8.04883,12.64168 1.19795,5.47421 3.5944,7.22136 14.11169,10.2882 15.64318,4.56155 29.07134,12.51458 27.77879,16.45236 -1.71781,5.23344 -12.35405,3.95049 -25.99591,-3.13567 z"
       id="path3015"
       inkscape:connector-curvature="0" />
  </g>
</svg>
