<?xml version="1.0" encoding="UTF-8" standalone="no"?>
<!-- Created with Inkscape (http://www.inkscape.org/) -->

<svg
   xmlns:dc="http://purl.org/dc/elements/1.1/"
   xmlns:cc="http://creativecommons.org/ns#"
   xmlns:rdf="http://www.w3.org/1999/02/22-rdf-syntax-ns#"
   xmlns:svg="http://www.w3.org/2000/svg"
   xmlns="http://www.w3.org/2000/svg"
   xmlns:sodipodi="http://sodipodi.sourceforge.net/DTD/sodipodi-0.dtd"
   xmlns:inkscape="http://www.inkscape.org/namespaces/inkscape"
   width="300"
   height="300"
   id="svg2"
   version="1.1"
   inkscape:version="0.48.4 r9939"
   sodipodi:docname="dessin.svg">
  <defs
     id="defs4" />
  <sodipodi:namedview
     id="base"
     pagecolor="#ffffff"
     bordercolor="#666666"
     borderopacity="1.0"
     inkscape:pageopacity="0.0"
     inkscape:pageshadow="2"
     inkscape:zoom="1.979899"
     inkscape:cx="73.020464"
     inkscape:cy="149.14493"
     inkscape:document-units="px"
     inkscape:current-layer="layer1"
     showgrid="false"
     inkscape:window-width="1215"
     inkscape:window-height="1000"
     inkscape:window-x="65"
     inkscape:window-y="24"
     inkscape:window-maximized="1" />
  <metadata
     id="metadata7">
    <rdf:RDF>
      <cc:Work
         rdf:about="">
        <dc:format>image/svg+xml</dc:format>
        <dc:type
           rdf:resource="http://purl.org/dc/dcmitype/StillImage" />
        <dc:title />
      </cc:Work>
    </rdf:RDF>
  </metadata>
  <g
     inkscape:label="Calque 1"
     inkscape:groupmode="layer"
     id="layer1"
     transform="translate(0,-752.36218)">
    <path
       style="fill:#000000"
       d="m 82.281754,1030.4708 c -2.010001,-2.1329 -2.853434,-37.04033 -2.519931,-104.29294 0.469846,-94.74579 0.184214,-101.08691 -4.553326,-101.08651 -4.018193,3.6e-4 -5.058241,2.21717 -5.072275,10.81126 -0.07652,46.85174 -2.950439,139.9346 -4.486904,145.32596 -2.029996,7.12306 -5.399693,8.52551 -8.80963,3.6664 -1.155933,-1.64714 -1.859161,-23.10978 -1.562731,-47.69472 0.296426,-24.58494 0.6391,-61.0682 0.761477,-81.07395 0.204924,-33.50249 0.699891,-36.76574 6.269432,-41.33543 3.325806,-2.72874 7.674768,-4.96137 9.664356,-4.96137 5.649088,0 6.78731,-3.26871 8.566273,-24.60021 0.913449,-10.95318 2.262332,-20.44672 2.997522,-21.09676 0.735187,-0.65005 3.54894,0.0616 6.252784,1.58119 3.883279,2.18261 4.894527,6.5172 4.813472,20.6324 l -0.102582,17.86931 10.871839,5.91744 c 5.97951,3.25459 11.79589,7.6656 12.92528,9.80228 1.12938,2.13664 2.5758,41.94521 3.21425,88.46347 1.14485,83.41429 1.08075,84.57866 -4.65569,84.57866 -9.79799,0 -11.39243,-12.66066 -11.47916,-91.15071 -0.0454,-41.0391 -0.78419,-75.23456 -1.64187,-75.98992 -0.85768,-0.75532 -3.4976,-0.71832 -5.866495,0.0821 -3.720037,1.25718 -4.287064,15.14341 -4.160261,101.88295 0.08077,55.23503 -0.713355,101.6531 -1.764666,103.1512 -2.535173,3.6125 -5.963652,3.4414 -9.66115,-0.4822 z m 97.289106,-12.6922 c -0.18725,-5.946 -0.66813,-14.2449 -1.06862,-18.442 -0.40049,-4.19714 -1.0636,-16.95819 -1.47357,-28.35783 -0.40997,-11.39965 -1.8243,-22.26406 -3.14295,-24.14309 -2.64659,-3.77132 -2.78326,-3.79369 -26.55903,-4.34534 -12.09332,-0.2807 -17.17039,-1.46999 -18.40904,-4.31274 -2.6968,-6.18917 0.34203,-7.02841 23.49612,-6.48868 l 21.72084,0.50629 0,-7.48897 c 0,-6.05131 -1.52488,-7.82379 -7.94297,-9.23279 -15.52528,-3.40837 -26.23199,-9.4409 -29.64854,-16.70501 -3.48748,-7.4149 -1.63583,-44.72762 2.46784,-49.72974 5.42415,-6.61174 16.47504,-8.72025 44.51554,-8.49364 47.36026,0.38272 53.59024,5.37141 50.69716,40.59568 -0.79581,9.68903 -0.13531,15.20317 1.82626,15.25258 1.68995,0.0426 0.47314,1.34353 -2.70405,2.8911 -3.17718,1.54756 -8.3762,4.82594 -11.55339,7.28533 -3.17719,2.45933 -11.3007,5.26531 -18.05223,6.23547 -11.5958,1.66628 -12.2755,2.23504 -12.2755,10.27196 0,10.52941 4.80713,12.22155 31.26253,11.0047 16.01359,-0.73658 19.32868,-0.19046 20.10691,3.31199 0.72847,3.2785 -2.24228,4.57844 -13.60939,5.95526 -7.9977,0.96875 -19.87919,0.96709 -26.40333,-0.003 l -11.86206,-1.76494 0.97476,41.03961 c 0.81606,34.35793 0.2694,41.43453 -3.35777,43.46533 -7.33416,4.1065 -8.6529,2.8901 -9.00552,-8.307 z m -5.43625,-123.95792 c 0,-11.28295 -0.76554,-12.83933 -6.99243,-14.2157 -10.62165,-2.34781 -17.46601,-0.33799 -18.40389,5.40421 -1.24036,7.59413 12.62701,20.29786 23.23005,21.28082 1.19145,0.11047 2.16627,-5.50074 2.16627,-12.46933 z m 38.2707,3.07202 c 10.28292,-7.95222 5.38599,-20.92651 -7.89834,-20.92651 -11.38512,0 -16.11531,4.37552 -15.40939,14.25392 1.00054,14.00123 10.36464,16.68201 23.30773,6.67259 z m -44.76949,-30.16095 c 4.83422,-1.14092 6.49879,-3.41242 6.49879,-8.86827 0,-6.42219 -1.0574,-7.33447 -8.50128,-7.33447 -9.24011,0 -18.16713,8.21372 -15.52281,14.28247 1.64612,3.77787 7.11539,4.37715 17.5253,1.92027 z m 43.12544,0.0462 c 11.09398,-2.62033 1.13873,-16.24877 -11.86933,-16.24877 -6.27972,0 -7.4272,1.14626 -7.4272,7.41919 0,9.30363 5.88626,11.99703 19.29653,8.82961 z m -76.34151,-47.49657 c -5.40059,-4.83252 -6.4988,-8.61944 -6.4988,-22.40966 0,-18.09442 4.64057,-27.10237 12.57991,-24.41927 2.9625,1.00117 4.75021,4.50733 4.75021,9.31634 0,7.90944 2.08444,8.85456 13.5547,6.14568 3.98641,-0.9414 7.01525,-4.22817 8.17247,-8.86827 2.18909,-8.77763 5.71636,-9.40767 10.31382,-1.84224 4.18433,6.88562 1.40273,37.35371 -3.82342,41.8796 -2.01661,1.74644 -10.16536,3.81381 -18.10833,4.59419 -12.44151,1.22235 -15.34188,0.61344 -20.94056,-4.39637 z m 29.2966,-8.38806 c 2.60973,-5.98937 2.12187,-13.28149 -1.00232,-14.98196 -4.74065,-2.58027 -17.18011,1.4949 -18.86912,6.18154 -0.88725,2.46189 -0.79477,6.35446 0.20551,8.65011 2.3717,5.44314 17.30996,5.5573 19.66592,0.15031 z m 34.52305,11.26485 c -7.73966,-3.37599 -9.69237,-11.62789 -7.58246,-32.0425 1.74338,-16.86817 7.68135,-21.79827 11.23518,-9.32819 1.47541,5.17709 3.1711,6.26306 7.99799,5.12218 3.3691,-0.79631 7.66271,-1.4635 9.54144,-1.48261 1.87868,-0.0211 4.24084,-2.32408 5.24927,-5.12215 1.00836,-2.7981 4.34536,-5.08744 7.41551,-5.08744 4.92226,0 5.58153,1.87921 5.57759,15.89821 -0.003,10.03831 -1.86595,19.17986 -5.05463,24.80129 -4.39935,7.75573 -6.53898,8.97083 -16.60355,9.42931 -6.35438,0.28946 -14.35373,-0.6952 -17.77634,-2.1881 z m 22.10886,-17.41609 c 0,-9.60962 -0.48139,-10.17489 -8.66507,-10.17489 -7.89482,0 -8.66504,0.7537 -8.66504,8.47907 0,10.05149 1.62303,11.8707 10.59064,11.8707 5.93714,0 6.73947,-1.21129 6.73947,-10.17488 z"
       id="path3080"
       inkscape:connector-curvature="0" />
  </g>
</svg>
