<?xml version="1.0" encoding="UTF-8" standalone="no"?>
<!-- Created with Inkscape (http://www.inkscape.org/) -->

<svg
   xmlns:dc="http://purl.org/dc/elements/1.1/"
   xmlns:cc="http://creativecommons.org/ns#"
   xmlns:rdf="http://www.w3.org/1999/02/22-rdf-syntax-ns#"
   xmlns:svg="http://www.w3.org/2000/svg"
   xmlns="http://www.w3.org/2000/svg"
   xmlns:sodipodi="http://sodipodi.sourceforge.net/DTD/sodipodi-0.dtd"
   xmlns:inkscape="http://www.inkscape.org/namespaces/inkscape"
   width="300"
   height="300"
   id="svg2"
   version="1.1"
   inkscape:version="0.48.4 r9939"
   sodipodi:docname="image-seal.svg">
  <defs
     id="defs4" />
  <sodipodi:namedview
     id="base"
     pagecolor="#ffffff"
     bordercolor="#666666"
     borderopacity="1.0"
     inkscape:pageopacity="0.0"
     inkscape:pageshadow="2"
     inkscape:zoom="1.979899"
     inkscape:cx="197.63697"
     inkscape:cy="133.25325"
     inkscape:document-units="px"
     inkscape:current-layer="layer1"
     showgrid="false"
     inkscape:window-width="1215"
     inkscape:window-height="1000"
     inkscape:window-x="65"
     inkscape:window-y="24"
     inkscape:window-maximized="1"
     fit-margin-top="10"
     fit-margin-left="10"
     fit-margin-right="10"
     fit-margin-bottom="10" />
  <metadata
     id="metadata7">
    <rdf:RDF>
      <cc:Work
         rdf:about="">
        <dc:format>image/svg+xml</dc:format>
        <dc:type
           rdf:resource="http://purl.org/dc/dcmitype/StillImage" />
        <dc:title />
      </cc:Work>
    </rdf:RDF>
  </metadata>
  <g
     inkscape:label="Calque 1"
     inkscape:groupmode="layer"
     id="layer1"
     transform="translate(0,-752.36218)">
    <path
       style="fill:#000000"
       d="m 74.454294,1043.0053 c -4.51435,-5.4395 -0.0344,-41.5915 6.12238,-49.4051 2.0023,-2.5412 1.8084,-4.182 -0.67563,-5.7172 -2.59636,-1.6046 -2.95189,-5.83122 -1.39567,-16.59114 1.14846,-7.94089 2.38658,-16.85662 2.75134,-19.81271 0.36475,-2.95609 1.52158,-34.70046 2.57072,-70.54305 1.37265,-46.89474 1.07569,-65.16835 -1.05901,-65.16835 -4.49169,0 -5.35944,7.77651 -6.89701,61.80915 -2.81121,98.79046 -5.45909,122.8919 -12.40029,112.8689 -3.24006,-4.67859 -1.10614,-143.47345 2.56266,-166.68217 2.2652,-14.32954 9.5234,-24.12 17.88142,-24.12 2.65653,0 3.82921,-5.54434 4.40516,-20.827 0.72951,-19.35801 1.21695,-20.88829 6.91075,-21.69614 6.066756,-0.86076 6.108406,-0.65969 4.316506,20.827 -1.64074,19.67363 -1.36437,21.69614 2.96464,21.69614 5.56518,0 14.70759,9.64384 15.03862,15.86348 0.12577,2.36041 0.30327,13.08185 0.39477,23.82541 0.16366,19.20784 0.26068,19.4726 5.81812,15.86971 10.07135,-6.52917 12.16507,-3.09502 10.46636,17.16712 -1.48885,17.75876 -1.28928,18.64433 4.20139,18.64433 5.44011,0 5.76448,-1.27918 5.76448,-22.73376 0,-21.05023 -0.51925,-23.21525 -7.01182,-29.23549 -5.00606,-4.64189 -7.4236,-10.15513 -8.45138,-19.27362 -1.06384,-9.43828 -2.74083,-13.11219 -6.42495,-14.07564 -2.74197,-0.71704 -4.9854,-2.32942 -4.9854,-3.58307 0,-5.62692 12.41722,-7.98475 38.26231,-7.26537 23.70913,0.65993 27.63939,1.41634 28.41526,5.46874 0.62344,3.25626 -0.81349,4.70287 -4.67138,4.70287 -5.8619,0 -6.9212,3.83644 -5.75177,20.8311 0.49864,7.24619 -0.80819,9.54022 -7.65442,13.43678 -7.16532,4.07816 -8.30852,6.29598 -8.65554,16.79185 -0.86917,26.28859 -0.17844,34.93561 2.79031,34.93561 3.71285,0 8.32497,-15.60665 8.32497,-28.17036 0,-12.5002 1.41922,-15.14525 6.98113,-13.01096 2.64943,1.01668 3.76829,6.20056 3.76829,17.45931 0,20.3971 -4.49589,29.49732 -18.19511,36.82891 -4.96153,2.65532 -5.99108,5.49916 -5.99108,16.54854 0,9.61274 1.0464,13.34223 3.74351,13.34223 2.05894,0 4.43959,-1.81397 5.29038,-4.03103 1.91409,-4.98811 8.72049,-5.28729 10.57108,-0.46467 0.7527,1.9615 1.10096,18.70766 0.77393,37.2137 -0.49415,27.96105 -1.49449,35.19255 -5.9193,42.79055 -4.83874,8.3087 -6.59987,9.2172 -19.29789,9.9554 -8.50115,0.4942 -13.97319,-0.2951 -13.97319,-2.0155 0,-1.5553 -1.72539,-2.8278 -3.83421,-2.8278 -8.42784,0 -12.28992,-15.6838 -12.28992,-49.90916 0,-18.12761 0.73402,-34.87214 1.6312,-37.21008 2.28237,-5.94776 9.11822,-5.32075 9.11822,0.83636 0,5.1046 6.13501,9.38083 9.14299,6.37284 0.88353,-0.88352 1.60642,-8.41064 1.60642,-16.7269 0,-14.74003 -0.21982,-15.18519 -8.7339,-17.69174 -9.00207,-2.65021 -9.77076,-4.54665 -10.57353,-26.08561 -0.26846,-7.2045 -4.6868,-10.71553 -5.07268,-4.03103 -0.10668,1.84756 -0.67245,17.26625 -1.25733,34.26377 -2.30094,66.86879 -5.27259,90.91665 -10.57906,85.61025 -2.06311,-2.0631 -2.17552,-67.35277 -0.2123,-123.23321 1.4054,-40.00162 -0.15695,-55.68008 -5.06027,-50.77687 -0.809,0.80901 -2.763,27.98343 -4.342216,60.38765 -1.57923,32.4042 -3.33095,64.35865 -3.89269,71.00985 -0.56176,6.6512 -1.75216,26.60481 -2.64532,44.34138 -0.89317,17.7365 -2.24733,37.3878 -3.00925,43.6695 -1.43795,11.8551 -5.77405,14.6575 -11.67591,7.5463 z m 79.917156,-38.0674 c 9.21153,-1.8423 11.69206,-7.4505 9.43831,-21.33879 l -1.48387,-9.14407 -15.78335,0.22224 -15.78331,0.22225 0,13.01437 c 0,16.9776 5.17821,20.711 23.61222,17.0242 z m 4.3852,-42.99685 c 2.33797,-0.89715 4.25083,-3.89739 4.25083,-6.66719 0,-5.83103 -8.32567,-8.63893 -21.79883,-7.35191 -7.67589,0.73325 -9.23928,2.03033 -9.95608,8.26007 -0.8158,7.08986 -0.36053,7.39023 11.20146,7.39023 6.62849,0 13.96467,-0.73406 16.30262,-1.6312 z M 161.018,818.72548 c 2.6675,-10.36426 -0.13248,-13.59823 -11.83161,-13.666 -7.40853,-0.043 -10.3651,4.09633 -10.3651,14.5112 0,8.18716 2.40322,10.03182 11.84169,9.08936 6.58776,-0.65778 8.41981,-2.41547 10.35502,-9.93456 z m 55.73657,222.07022 c 0,-0.3903 -2.41862,-7.3268 -5.37471,-15.4143 -2.95609,-8.0875 -5.37471,-17.2007 -5.37471,-20.2516 0,-3.0509 -1.18848,-6.7355 -2.64105,-8.1881 -1.4526,-1.4525 -2.96423,-10.1591 -3.35919,-19.34781 -0.39499,-9.18871 -1.70293,-16.70725 -2.90657,-16.70787 -1.20361,-6.2e-4 -1.51712,-13.00121 -0.69664,-28.89019 2.21771,-42.94744 2.22688,-48.93726 0.10105,-66.0395 -1.68272,-13.53691 -2.8895,-16.01048 -8.9318,-18.30777 -12.25716,-4.66016 -15.47333,-15.75668 -4.56687,-15.75668 3.60788,0 7.4426,-1.42841 8.5216,-3.17425 1.07898,-1.74584 2.66199,-17.16454 3.51778,-34.26377 1.54931,-30.95566 1.58492,-31.08952 8.27439,-31.08952 6.45739,0 6.6975,0.60686 6.18108,15.62157 -0.50458,14.67053 -0.17898,15.57037 5.34727,14.78045 3.42941,-0.4902 6.2392,-3.08353 6.73456,-6.21583 1.78072,-11.25937 6.73704,-20.15516 11.22954,-20.15516 3.98726,0 4.46883,2.02173 3.36073,14.10861 -1.77747,19.38792 -4.39966,23.51436 -14.94245,23.51436 -11.03495,0 -15.22338,4.12202 -15.22338,14.982 0,7.40635 1.10827,8.754 8.39799,10.21194 4.61889,0.92378 12.93598,1.6796 18.48241,1.6796 9.75375,0 18.93239,6.14275 15.02183,10.05329 -1.02372,1.02372 -5.73097,1.99334 -10.46053,2.15466 -4.72956,0.16124 -13.25441,0.50383 -18.9441,0.76109 l -10.34495,0.46773 1.4433,12.76494 c 0.79382,7.02071 1.51879,13.06726 1.61102,13.43677 0.81542,3.26605 6.02085,-1.0388 10.56109,-8.7339 5.80076,-9.83158 12.86302,-12.26842 15.51635,-5.35397 1.53502,4.00024 -3.14125,13.10618 -10.5197,20.48463 -2.08544,2.08544 -5.2221,6.46443 -6.97036,9.73107 -2.74153,5.12261 -2.16942,7.07199 4.16059,14.17636 4.03657,4.53034 11.32253,10.69882 16.19099,13.70771 14.2508,8.80748 10.43067,22.94587 -4.16943,15.43114 -3.9237,-2.01952 -7.74912,-4.27846 -8.50096,-5.01984 -12.2011,-12.03142 -16.4988,-14.46219 -18.88858,-10.68328 -3.37212,5.33232 -3.28674,47.55227 0.10051,49.64564 1.47804,0.91349 2.68735,5.16053 2.68735,9.43788 0,4.27736 1.08338,10.55488 2.40749,13.95 1.32412,3.3952 3.8606,11.6149 5.63665,18.2661 1.77602,6.6512 4.32057,14.193 5.65454,16.7595 4.48955,8.6376 2.94182,18.1761 -2.94926,18.1761 -2.95609,0 -5.37471,-0.3194 -5.37471,-0.7098 z M 127.72061,781.75259 c -2.68112,-3.23057 -2.57849,-4.49562 0.52406,-6.45881 4.75885,-3.01129 44.69215,-3.33737 46.51998,-0.37986 3.16445,5.12019 -3.71575,7.90797 -23.03065,9.33176 -16.43323,1.21135 -21.3638,0.69946 -24.01339,-2.49309 z"
       id="path3015"
       inkscape:connector-curvature="0" />
  </g>
</svg>
