<?xml version="1.0" encoding="UTF-8" standalone="no"?>
<!-- Created with Inkscape (http://www.inkscape.org/) -->

<svg
   xmlns:dc="http://purl.org/dc/elements/1.1/"
   xmlns:cc="http://creativecommons.org/ns#"
   xmlns:rdf="http://www.w3.org/1999/02/22-rdf-syntax-ns#"
   xmlns:svg="http://www.w3.org/2000/svg"
   xmlns="http://www.w3.org/2000/svg"
   xmlns:sodipodi="http://sodipodi.sourceforge.net/DTD/sodipodi-0.dtd"
   xmlns:inkscape="http://www.inkscape.org/namespaces/inkscape"
   width="300"
   height="300"
   id="svg2"
   version="1.1"
   inkscape:version="0.48.4 r9939"
   sodipodi:docname="image-seal.svg">
  <defs
     id="defs4" />
  <sodipodi:namedview
     id="base"
     pagecolor="#ffffff"
     bordercolor="#666666"
     borderopacity="1.0"
     inkscape:pageopacity="0.0"
     inkscape:pageshadow="2"
     inkscape:zoom="2.0018437"
     inkscape:cx="238.32259"
     inkscape:cy="136.91539"
     inkscape:document-units="px"
     inkscape:current-layer="layer1"
     showgrid="false"
     inkscape:window-width="1215"
     inkscape:window-height="1000"
     inkscape:window-x="65"
     inkscape:window-y="24"
     inkscape:window-maximized="1"
     fit-margin-top="10"
     fit-margin-left="10"
     fit-margin-right="10"
     fit-margin-bottom="10" />
  <metadata
     id="metadata7">
    <rdf:RDF>
      <cc:Work
         rdf:about="">
        <dc:format>image/svg+xml</dc:format>
        <dc:type
           rdf:resource="http://purl.org/dc/dcmitype/StillImage" />
        <dc:title />
      </cc:Work>
    </rdf:RDF>
  </metadata>
  <g
     inkscape:label="Calque 1"
     inkscape:groupmode="layer"
     id="layer1"
     transform="translate(0,-752.36218)">
    <path
       style="fill:#000000"
       d="m 176.42935,1040.7986 c -0.90605,-3.6101 -1.58897,-25.3226 -1.5176,-48.25007 0.0713,-22.92747 -1.01398,-42.83006 -2.4119,-44.22798 -3.38897,-3.38897 -9.87618,-0.66503 -13.94942,5.85724 -1.81661,2.90887 -3.50104,14.60862 -3.74316,25.99943 -0.24223,11.39082 -1.12716,27.99858 -1.96679,36.90618 -1.29436,13.7317 -2.37254,16.1957 -7.08712,16.1957 -4.17289,0 -5.19308,-1.4053 -4.08811,-5.6305 0.8098,-3.0969 0.22364,-6.4022 -1.30236,-7.3452 -1.57078,-0.9709 -2.07537,-7.3883 -1.1629,-14.7901 0.88648,-7.19142 2.30848,-20.04656 3.16001,-28.56686 2.91591,-29.17693 5.87168,-35.83922 17.55669,-39.57266 5.77928,-1.8465 11.64679,-4.40659 13.03894,-5.68906 3.4217,-3.15209 -5.70314,-16.70413 -11.24717,-16.70413 -7.72426,0 -18.04197,-16.18331 -18.04197,-28.29882 0,-3.0254 -1.10277,-5.50073 -2.45058,-5.50073 -4.27779,0 -9.19128,-23.38093 -8.28309,-39.41507 0.68309,-12.06013 1.95854,-15.66235 5.80457,-16.39352 3.6359,-0.6912 4.9291,0.92096 4.9291,6.14482 0,10.4753 5.67801,12.23952 12.43685,3.8643 4.71656,-5.84453 7.53305,-6.96119 14.32113,-5.67787 l 8.44989,1.59751 -5.36565,-6.04303 c -2.9511,-3.32365 -6.85624,-6.04299 -8.6781,-6.04299 -4.3407,0 -9.15489,-10.04993 -11.13126,-23.23719 -0.87065,-5.8093 -2.35743,-15.01602 -3.30396,-20.45935 -1.06412,-6.11941 -0.39495,-11.49481 1.75318,-14.08315 4.81601,-5.80293 6.88148,-5.27797 11.23432,2.85542 3.28501,6.13811 5.66557,7.04157 18.55368,7.04157 18.40957,0 23.69577,-1.95229 23.69577,-8.75124 0,-6.08544 6.29688,-7.095 10.75422,-1.72423 3.74069,4.50723 4.89948,28.39895 2.00308,41.29883 -2.71591,12.09607 -7.31237,16.7877 -19.83459,20.24526 -5.46776,1.50971 -9.82249,4.52655 -9.82249,6.80466 0,5.2942 3.99823,5.23155 8.44989,-0.13238 4.79765,-5.78079 8.44989,-5.30236 8.44989,1.10699 0,2.93254 1.99304,6.09671 4.42898,7.03147 5.84461,2.24277 15.28742,-2.97301 15.28742,-8.44409 0,-2.60293 1.95933,-3.95503 4.90832,-3.38711 3.38899,0.65267 5.66305,5.07633 7.34655,14.29116 2.98312,16.3285 1.13423,24.47132 -8.02911,35.36131 -5.22031,6.20402 -7.04239,11.63654 -7.04239,20.99693 0,13.84585 -2.80784,17.53856 -15.5072,20.3942 -16.64626,3.74316 -18.29235,4.6442 -18.29235,10.01267 0,4.4316 2.00299,5.44345 10.77555,5.44345 20.05829,0 28.65726,18.92811 28.65726,63.08058 0,26.16715 -3.70491,38.31815 -11.68338,38.31815 -4.73084,0 -5.13674,-3.0172 -5.03222,-37.40607 0.0625,-20.57331 -0.72266,-39.58556 -1.7449,-42.24944 -1.25227,-3.26335 -4.97639,-4.84345 -11.41546,-4.84345 l -9.55685,0 -0.47469,23.23719 c -0.2611,12.78046 -0.61092,33.37707 -0.77744,45.77027 -0.29279,21.7923 -2.15019,29.5746 -7.05865,29.5746 -1.28976,0 -3.08637,-2.9535 -3.99243,-6.5636 z m -1.04128,-137.78869 c 1.61064,-4.22759 -0.28774,-42.03323 -2.20702,-43.95254 -0.74157,-0.74153 -1.34827,2.61609 -1.34827,7.46136 0,8.18316 -8.7218,20.29556 -14.61425,20.29556 -4.25128,0 -2.3191,6.64277 3.8387,13.19746 6.78228,7.21939 12.28411,8.37043 14.33084,2.99816 z m 32.35674,-4.45272 c 5.39452,-6.69521 4.28663,-11.01708 -4.9291,-19.22831 -6.6782,-5.95033 -8.49141,-9.94116 -8.64787,-19.034 -0.10901,-6.32778 -1.22526,-14.04005 -2.48086,-17.13834 -1.38764,-3.42412 -2.43225,6.99315 -2.66372,26.56391 -0.39007,32.97932 1.16924,38.03348 10.7204,34.74775 2.46419,-0.84773 6.06471,-3.50767 8.00115,-5.91101 z m -52.8118,-37.09256 c 0,-6.57213 -1.25183,-8.44989 -5.63326,-8.44989 -4.02375,0 -5.63326,1.87776 -5.63326,6.57213 0,7.46302 2.08338,10.32765 7.51102,10.32765 2.29502,0 3.7555,-3.28608 3.7555,-8.44989 z m 63.14379,6.74022 c 5.71834,-2.19432 5.89582,-16.85127 0.2304,-19.02531 -10.514,-4.0346 -17.54901,9.10089 -9.29488,17.35502 3.94987,3.94988 3.39195,3.84707 9.0645,1.67029 z m -16.97076,-64.71149 c 0.9403,-2.45042 1.70967,-7.52035 1.70967,-11.26652 0,-6.37826 -0.9847,-6.8112 -15.49147,-6.8112 l -15.49146,0 0,11.26651 0,11.26652 13.7818,0 c 9.9689,0 14.25479,-1.23261 15.49146,-4.45531 z M 85.773972,1030.2171 c -1.04083,-1.6841 -1.71981,-8.3384 -1.50881,-14.7873 1.71493,-52.41886 1.83486,-188.19485 0.16702,-189.22554 -1.15138,-0.71159 -3.82135,0.78826 -5.93331,3.33297 -2.89789,3.4917 -3.95486,17.4768 -4.3084,57.00574 -0.56201,62.83886 -1.7142,86.48342 -4.3424,89.11162 -1.07936,1.07936 -3.88903,0.0358 -6.24374,-2.31879 -3.64308,-3.64309 -4.11971,-13.66485 -3.19746,-67.23027 0.59608,-34.62195 1.60796,-66.75144 2.24857,-71.39888 0.64064,-4.64744 1.38541,-10.47549 1.65505,-12.95123 0.26955,-2.4757 5.56017,-6.78754 11.75675,-9.5818 l 11.26652,-5.0805 0,-22.10524 c 0,-21.7012 0.12872,-22.10528 7.04157,-22.10528 6.881168,0 7.041578,0.47824 7.041578,20.99257 l 0,20.99259 9.45055,4.48458 c 13.95153,6.62043 15.89911,16.79925 15.89911,83.09521 0,53.0562 -2.79832,78.86563 -8.55083,78.86563 -6.08325,0 -9.01806,-9.38175 -7.28479,-23.28722 7.0674,-56.69872 3.635,-131.63216 -5.60625,-122.39091 -3.06055,3.06055 -3.99626,27.1747 -4.1774,107.65363 -0.0977,43.37609 -1.393248,83.61872 -2.879128,89.42802 -2.62031,10.2444 -8.58543,13.8251 -12.49434,7.5004 z"
       id="path3028"
       inkscape:connector-curvature="0" />
  </g>
</svg>
