<?xml version="1.0" encoding="UTF-8" standalone="no"?>
<!-- Created with Inkscape (http://www.inkscape.org/) -->

<svg
   xmlns:dc="http://purl.org/dc/elements/1.1/"
   xmlns:cc="http://creativecommons.org/ns#"
   xmlns:rdf="http://www.w3.org/1999/02/22-rdf-syntax-ns#"
   xmlns:svg="http://www.w3.org/2000/svg"
   xmlns="http://www.w3.org/2000/svg"
   xmlns:sodipodi="http://sodipodi.sourceforge.net/DTD/sodipodi-0.dtd"
   xmlns:inkscape="http://www.inkscape.org/namespaces/inkscape"
   width="300"
   height="300"
   id="svg2"
   version="1.1"
   inkscape:version="0.48.4 r9939"
   sodipodi:docname="dessin.svg">
  <defs
     id="defs4" />
  <sodipodi:namedview
     id="base"
     pagecolor="#ffffff"
     bordercolor="#666666"
     borderopacity="1.0"
     inkscape:pageopacity="0.0"
     inkscape:pageshadow="2"
     inkscape:zoom="1.979899"
     inkscape:cx="73.020464"
     inkscape:cy="149.14493"
     inkscape:document-units="px"
     inkscape:current-layer="layer1"
     showgrid="false"
     inkscape:window-width="1215"
     inkscape:window-height="1000"
     inkscape:window-x="65"
     inkscape:window-y="24"
     inkscape:window-maximized="1" />
  <metadata
     id="metadata7">
    <rdf:RDF>
      <cc:Work
         rdf:about="">
        <dc:format>image/svg+xml</dc:format>
        <dc:type
           rdf:resource="http://purl.org/dc/dcmitype/StillImage" />
        <dc:title />
      </cc:Work>
    </rdf:RDF>
  </metadata>
  <g
     inkscape:label="Calque 1"
     inkscape:groupmode="layer"
     id="layer1"
     transform="translate(0,-752.36218)">
    <path
       style="fill:#000000"
       d="m 145.71465,1035.9719 c -2.92566,-2.4298 -2.42963,-12.315 0.76094,-15.1642 1.51511,-1.353 5.90771,-9.9582 9.76134,-19.1228 l 7.00657,-16.66281 -7.42293,-4.67202 c -14.50412,-9.12891 -17.89396,-13.1252 -21.23878,-25.03864 -5.3045,-18.89322 -3.43112,-54.45709 3.40144,-64.57268 8.55142,-12.66027 7.39641,-22.8943 -3.61601,-32.04034 -8.09322,-6.72152 -9.35362,-9.66059 -9.35362,-21.81108 0,-7.72352 1.35369,-14.04278 3.00819,-14.04278 4.9055,0 9.4633,9.34526 9.4633,19.40345 0,5.59802 1.25831,8.74023 3.11787,7.78574 1.71483,-0.8802 3.11787,-6.58103 3.11787,-12.66848 0,-12.27469 1.62348,-14.83444 8.09951,-12.77052 2.92646,0.93266 4.37197,5.5825 4.37197,14.06354 0,6.96861 1.23284,12.67018 2.73962,12.67018 3.93562,0 10.71883,-14.70495 8.28923,-17.96983 -1.12377,-1.51016 0.14404,-2.74574 2.81755,-2.74574 3.56189,0 4.86083,2.6675 4.86083,9.98223 0,7.78442 -1.94964,11.34769 -8.85513,16.18405 -16.73433,11.72012 -13.55085,25.62264 5.86715,25.62264 l 9.03811,0 -0.18301,-28.05439 c -0.10068,-15.42991 -1.11122,-29.18777 -2.24562,-30.57299 -1.13441,-1.38526 -6.97322,-4.10093 -12.97512,-6.03489 -15.47823,-4.98743 -21.37163,-9.86854 -25.40097,-21.03796 -2.93005,-8.12214 -2.70093,-10.4451 1.36315,-13.82037 2.68687,-2.23147 5.55727,-4.05724 6.3787,-4.05724 0.82144,0 3.25943,5.72242 5.41775,12.71651 3.38239,10.96068 5.13412,12.86398 12.68707,13.78463 13.84613,1.68775 16.26712,-1.08083 14.46016,-16.53631 -1.82937,-15.64745 -0.61325,-20.32262 5.28654,-20.32262 5.75621,0 7.86845,6.00734 7.86845,22.37838 l 0,14.1865 11.69201,-0.80367 c 10.86485,-0.74682 11.88351,-1.53647 14.39871,-11.16147 4.30253,-16.46462 4.55102,-16.84 9.99844,-15.10391 4.13334,1.31728 4.85188,4.18663 3.64997,14.57512 -1.72643,14.92215 -9.15634,21.26176 -28.04712,23.93142 -12.41486,1.75449 -15.76692,7.47642 -5.66514,9.67037 4.39227,0.95395 6.29492,4.01481 7.01521,11.28565 0.7177,7.24496 2.5604,10.22428 6.72981,10.88102 5.12605,0.80748 5.57949,-0.52866 4.23023,-12.46569 -1.16459,-10.30352 -0.44271,-13.7106 3.14736,-14.85475 6.76815,-2.15701 10.14867,3.96499 10.32096,18.6908 l 0.15153,12.94724 6.13202,-6.11312 c 3.3726,-3.36221 6.132,-9.47977 6.132,-13.59459 0,-4.11481 1.40304,-7.48148 3.11788,-7.48148 1.71482,0 3.11786,5.60654 3.11786,12.45896 0,11.82654 -5.9937,21.40602 -15.12675,24.17644 -5.76844,1.7498 -5.24912,17.09856 0.76525,22.61802 4.79173,4.39742 6.11789,11.34525 7.73406,40.5191 1.07283,19.36637 0.94306,37.46834 -0.28839,40.22659 -1.23151,2.75825 -7.19443,6.97751 -13.25096,9.3762 -12.57497,4.98026 -13.98845,10.74846 -5.1775,21.12841 7.65858,9.02238 19.10859,28.94858 19.10859,33.25418 0,5.0243 -9.21447,4.1263 -11.63247,-1.1337 -1.14572,-2.4924 -4.38488,-6.5904 -7.19813,-9.1068 -5.1771,-4.6308 -7.50709,-8.2073 -16.94264,-26.0071 -6.03355,-11.38203 -10.64457,-13.53522 -22.15918,-10.34752 -6.06994,1.6804 -9.44829,5.33997 -12.77551,13.83884 -5.98072,15.27708 -18.61927,37.87788 -22.21311,39.72248 -1.57477,0.8084 -3.76044,0.7245 -4.85701,-0.1861 z m 64.45702,-68.53578 c 14.18423,-3.15073 22.94491,-12.75017 19.14388,-20.97671 -2.89784,-6.27174 -12.5663,-7.06116 -47.16001,-3.85059 -29.52368,2.74005 -32.19897,3.44151 -32.19897,8.44271 0,15.53037 28.79182,23.36463 60.2151,16.38459 z m 14.15479,-39.63058 c 6.03087,-4.85452 1.69797,-13.52992 -7.4857,-14.98796 -9.04076,-1.43532 -64.00187,4.93005 -67.1851,7.78114 -1.19099,1.06671 -1.08561,4.27001 0.23416,7.1184 2.23127,4.81545 4.77944,5.11941 36.30922,4.33119 22.52397,-0.56308 35.32573,-1.98763 38.12736,-4.24277 z m -20.58661,-23.54573 c 17.73716,-1.31024 21.04562,-2.30894 21.04562,-6.35293 0,-2.63906 -2.78431,-5.53222 -6.18738,-6.42927 -15.50436,-4.08687 -59.91629,-0.4452 -65.74857,5.39123 -6.26321,6.26769 1.57683,10.91126 16.65217,9.86294 7.25588,-0.50455 22.66306,-1.61695 34.23816,-2.47197 z m 9.51798,-23.80008 c 0.72154,-1.06815 2.21332,-5.07773 3.31511,-8.91018 1.678,-5.83697 0.50535,-7.70296 -7.22405,-11.495 -5.07499,-2.48977 -9.64082,-6.92825 -10.1463,-9.8633 -1.39244,-8.08526 -6.85223,-6.38297 -7.80004,2.43194 -0.45939,4.27258 -1.31957,11.84672 -1.91153,16.8314 -1.41913,11.95021 -0.50195,12.94722 11.91043,12.94722 5.79948,0 11.13487,-0.87392 11.85638,-1.94208 z M 75.66993,1007.8095 c 0.415955,-9.3565 1.935263,-17.61699 3.376281,-18.35663 1.440985,-0.73966 1.052936,-2.91301 -0.862342,-4.82966 -2.479455,-2.48121 -2.946793,-23.8548 -1.622726,-74.21603 1.022786,-38.90217 2.012523,-73.06173 2.199407,-75.91012 0.602498,-9.183 -0.427085,-11.65251 -4.858234,-11.65251 -2.388788,0 -5.492878,2.03919 -6.89801,4.53153 -1.405162,2.49234 -3.063588,34.82806 -3.685416,71.85714 -0.886972,52.81688 -2.081117,68.40092 -5.541236,72.31546 -2.425859,2.74443 -5.376987,4.18732 -6.558037,3.2064 -2.876609,-2.38907 -1.331299,-102.99672 2.044794,-133.12544 2.747717,-24.52112 5.512426,-29.53888 18.104104,-32.858 7.562179,-1.99336 9.522852,-6.74763 10.739102,-26.04022 0.625601,-9.92395 2.081272,-13.12369 6.271004,-13.78445 4.769751,-0.75224 5.456274,1.38952 5.456274,17.02209 0,17.77574 0.07514,17.93279 12.582455,26.28041 l 12.58245,8.39781 -0.60007,47.06129 c -0.66683,52.29583 -3.83106,99.32502 -6.85162,101.83366 -1.08523,0.90133 -3.93238,0.28833 -6.327,-1.36221 -3.29946,-2.2742 -4.06664,-8.47769 -3.16788,-25.6161 4.03537,-76.95085 4.14165,-100.85038 0.49512,-111.30366 -4.568,-13.0947 -8.659297,-14.2915 -8.852107,-2.58945 -1.779337,107.99479 -4.564344,161.71799 -8.592415,165.74892 -2.717193,2.71915 -2.971019,4.59645 -0.773949,5.72417 4.190543,2.151 4.213958,13.1941 0.04178,19.6688 -6.22065,9.6534 -9.46542,5.1775 -8.701635,-12.0032 z"
       id="path3080"
       inkscape:connector-curvature="0" />
  </g>
</svg>
