<?xml version="1.0" encoding="UTF-8" standalone="no"?>
<!-- Created with Inkscape (http://www.inkscape.org/) -->

<svg
   xmlns:dc="http://purl.org/dc/elements/1.1/"
   xmlns:cc="http://creativecommons.org/ns#"
   xmlns:rdf="http://www.w3.org/1999/02/22-rdf-syntax-ns#"
   xmlns:svg="http://www.w3.org/2000/svg"
   xmlns="http://www.w3.org/2000/svg"
   xmlns:sodipodi="http://sodipodi.sourceforge.net/DTD/sodipodi-0.dtd"
   xmlns:inkscape="http://www.inkscape.org/namespaces/inkscape"
   width="300"
   height="300"
   id="svg2"
   version="1.1"
   inkscape:version="0.48.3.1 r9886"
   sodipodi:docname="Nouveau document 1">
  <defs
     id="defs4" />
  <sodipodi:namedview
     id="base"
     pagecolor="#ffffff"
     bordercolor="#666666"
     borderopacity="1.0"
     inkscape:pageopacity="0.0"
     inkscape:pageshadow="2"
     inkscape:zoom="1.979899"
     inkscape:cx="130.70015"
     inkscape:cy="163.40203"
     inkscape:document-units="px"
     inkscape:current-layer="layer1"
     showgrid="false"
     inkscape:window-width="1215"
     inkscape:window-height="1000"
     inkscape:window-x="65"
     inkscape:window-y="24"
     inkscape:window-maximized="1" />
  <metadata
     id="metadata7">
    <rdf:RDF>
      <cc:Work
         rdf:about="">
        <dc:format>image/svg+xml</dc:format>
        <dc:type
           rdf:resource="http://purl.org/dc/dcmitype/StillImage" />
        <dc:title></dc:title>
      </cc:Work>
    </rdf:RDF>
  </metadata>
  <g
     inkscape:label="Calque 1"
     inkscape:groupmode="layer"
     id="layer1"
     transform="translate(0,-752.36218)">
    <path
       style="fill:#000000"
       d="m 121.12456,1033.3216 c 0,-1.9574 2.57395,-5.1452 5.71985,-7.0841 3.14593,-1.9389 10.79414,-9.901 16.99605,-17.6935 9.89523,-12.43315 15.50602,-20.8375 32.74197,-49.04399 18.44875,-30.19126 18.22608,-62.12234 -0.4333,-62.12234 -10.82345,0 -36.46837,-7.38972 -39.59225,-11.40872 -1.84772,-2.37715 -2.87055,-10.34623 -2.27295,-17.70908 l 1.08652,-13.38697 -43.529126,-0.60644 c -40.0903,-0.55853 -43.52912,-0.92835 -43.52912,-4.68111 0,-3.70409 3.814778,-4.20228 41.946249,-5.47815 75.579727,-2.52883 156.039177,-3.19004 160.437367,-1.31843 2.37219,1.00947 3.49451,3.30404 2.4941,5.09906 -2.14686,3.85207 -19.69953,5.47381 -62.08297,5.73608 -34.17563,0.21143 -38.05779,1.91648 -38.22418,16.78759 -0.10858,9.70761 0.42101,10.00016 29.0488,16.04575 7.69016,1.62401 14.00986,5.00997 18.32641,9.81891 8.22753,9.1661 11.52645,27.08393 6.94343,37.71295 -13.72958,31.84196 -17.47321,39.65107 -22.92907,47.82939 -3.3903,5.08207 -6.1642,10.17914 -6.1642,11.32682 0,4.34396 -23.66899,29.86108 -33.99644,36.65108 -11.59258,7.6216 -22.98714,9.3691 -22.98714,3.5252 z M 56.565297,815.45945 c -2.913627,-5.22789 -2.824976,-5.27105 10.824628,-5.27105 7.010399,0 21.70771,-1.1705 32.660605,-2.60109 19.26517,-2.51631 20.03892,-2.87577 23.73301,-11.02545 2.10022,-4.63341 2.98936,-9.34817 1.97584,-10.4773 -1.01348,-1.12912 -15.13984,-2.05293 -31.391882,-2.05293 -24.662709,0 -29.884046,-0.60096 -31.574479,-3.63411 -1.113947,-1.99874 -0.699741,-4.54679 0.920462,-5.66237 1.652196,-1.13758 30.54502,-1.88637 65.793199,-1.70508 112.0579,0.57635 122.81355,1.31786 114.85747,7.91848 -2.75655,2.28692 -9.84793,2.86718 -27.85408,2.27922 -13.28582,-0.4338 -25.93678,-0.32547 -28.11323,0.24076 -4.25063,1.10585 -5.38049,15.3343 -1.53441,19.32341 1.27922,1.32678 14.92675,2.94062 30.32783,3.58627 28.83626,1.20892 35.96402,3.19734 32.66707,9.113 -3.06327,5.49643 -46.83382,4.72333 -64.41819,-1.13779 -11.46222,-3.82052 -13.66251,-5.5757 -13.66251,-10.89866 0,-3.48961 -1.32996,-6.34475 -2.95549,-6.34475 -1.62549,0 -3.40623,-2.69742 -3.95719,-5.99425 -0.73671,-4.40859 -3.00063,-6.18888 -8.55808,-6.7299 -8.99726,-0.87594 -11.78737,1.75213 -14.47022,13.6297 -3.25344,14.40378 -6.83351,16.14053 -38.4045,18.63082 -38.23167,3.01568 -44.613735,2.85405 -46.865853,-1.18693 z"
       id="path2996"
       inkscape:connector-curvature="0" />
  </g>
</svg>
