<?xml version="1.0" encoding="UTF-8" standalone="no"?>
<svg
   xmlns:dc="http://purl.org/dc/elements/1.1/"
   xmlns:cc="http://creativecommons.org/ns#"
   xmlns:rdf="http://www.w3.org/1999/02/22-rdf-syntax-ns#"
   xmlns:svg="http://www.w3.org/2000/svg"
   xmlns="http://www.w3.org/2000/svg"
   viewBox="0 0 300 300"
   height="300"
   width="300"
   id="svg495"
   version="1.1">
  <metadata
     id="metadata501">
    <rdf:RDF>
      <cc:Work
         rdf:about="">
        <dc:format>image/svg+xml</dc:format>
        <dc:type
           rdf:resource="http://purl.org/dc/dcmitype/StillImage" />
        <dc:title></dc:title>
      </cc:Work>
    </rdf:RDF>
  </metadata>
  <defs
     id="defs499" />
  <path
     id="path505"
     d="m 147.14457,281.38298 c -1.90993,-6.3804 -4.43374,-21.93342 -5.17065,-31.86422 -0.39365,-5.30496 -0.91401,-20.53917 -1.15634,-33.85379 l -0.44062,-24.20841 -3.14107,-0.35404 c -1.72758,-0.19473 -5.94135,-0.0777 -9.36393,0.26013 -3.42257,0.3378 -8.41884,0.81349 -11.10282,1.05708 -7.8576,0.71316 -12.02513,-1.44953 -12.96522,-6.72816 -0.71128,-3.99388 0.96649,-4.35318 20.39316,-4.36746 9.978,-0.008 16.57867,-0.27991 16.97404,-0.70095 0.35582,-0.37893 2.8249,-7.30926 5.48685,-15.40076 5.46518,-16.61248 5.15391,-16.12763 15.18607,-23.65395 7.53734,-5.65466 9.01873,-8.02379 7.41585,-11.85999 -1.85919,-4.44969 -9.69564,-8.08518 -19.5132,-9.05258 -6.36783,-0.62747 -10.91393,0.72091 -17.11653,5.07683 -17.67989,12.41611 -32.02323,40.74582 -38.939453,76.90986 -1.19034,6.2241 -1.27383,9.04367 -0.89762,30.31407 0.49035,27.72398 0.32796,28.83243 -4.27346,29.16969 -1.85256,0.13577 -3.10451,-0.14201 -3.66076,-0.81226 -1.22405,-1.47489 -3.22796,-11.9421 -4.22235,-22.05494 -1.05367,-10.71584 -0.51987,-34.88688 0.994,-45.00944 1.18409,-7.91744 3.22827,-16.39567 5.2669,-21.8444 0.75223,-2.01053 5.62379,-11.54516 10.82565,-21.18805 l 9.457953,-17.53254 9.30091,-9.27666 c 12.93473,-12.90102 17.6315,-14.91422 33.2296,-14.24331 12.67814,0.54531 26.90533,5.21101 31.10338,10.20011 3.44007,4.08828 3.85937,9.99445 1.14766,16.16514 -0.75342,1.71446 -5.10643,6.66094 -11.51958,13.09016 -10.11877,10.14409 -12.23272,13.03255 -14.11809,19.29077 -0.50349,1.67124 -1.8403,10.38308 -1.65499,10.78536 0.027,0.0586 11.83022,0.2953 26.22941,0.52601 19.7379,0.31625 26.57614,0.64275 27.78881,1.32683 1.42493,0.80382 3.55869,4.5164 3.55869,6.19188 0,0.33934 -1.93454,1.48517 -4.29898,2.54626 -5.62879,2.52605 -12.71759,2.88072 -34.30845,1.71653 -14.81906,-0.79906 -16.43383,-0.77608 -18.44197,0.26236 l -2.20082,1.13809 v 12.70238 c 0,14.01341 2.26733,53.68773 3.50953,61.41063 0.43422,2.69957 0.66594,7.09473 0.51494,9.76702 -0.34537,6.1123 -1.5563,7.71574 -5.82696,7.71574 h -2.96683 z M 236.0158,129.84839 c -0.75785,-0.43096 -4.47821,-3.724 -8.26746,-7.31789 -12.03832,-11.4176 -28.1784,-24.23054 -37.49356,-29.76457 -8.96193,-5.32419 -20.09004,-9.17764 -30.54086,-10.57571 l -2.58359,-0.34562 -0.0165,7.70744 c -0.0258,12.13239 -1.26438,15.25409 -6.38137,16.08447 -2.30413,0.3739 -2.59573,0.23571 -3.31747,-1.5722 -0.43521,-1.09018 -1.14013,-6.47757 -1.56649,-11.972 -0.44254,-5.703 -1.07078,-9.98413 -1.46404,-9.97648 -17.37002,0.33741 -41.39442,11.29816 -58.534523,26.70543 -12.21584,10.98085 -20.63305,16.60332 -26.21151,17.50857 -2.118,0.3437 -2.45273,0.17917 -3.10021,-1.52384 -1.33265,-3.50514 0.17005,-5.87515 8.31891,-13.12021 10.73961,-9.54843 15.60485,-13.35902 25.7889,-20.19848 18.420543,-12.37097 31.581903,-18.43627 43.422133,-20.010715 9.7917,-1.302043 9.79234,-1.302261 10.58802,-3.584745 0.68833,-1.974514 0.60556,-2.117533 -1.8423,-3.184094 -1.81185,-0.789434 -5.60664,-1.230923 -12.94812,-1.506394 -9.80519,-0.367916 -10.61125,-0.505389 -14.4348,-2.461821 -3.40537,-1.742456 -4.35645,-2.659311 -5.97761,-5.762561 -1.74767,-3.345445 -1.92789,-4.353939 -1.92789,-10.788662 0,-5.588756 0.29568,-7.78806 1.39045,-10.342021 l 1.39044,-3.243774 -3.97404,0.423828 c -2.18571,0.233103 -6.477563,0.622312 -9.537433,0.864905 -5.48288,0.434694 -5.58509,0.413504 -7.06179,-1.463821 -0.82413,-1.047694 -1.49841,-2.808998 -1.49841,-3.914009 0,-2.414669 1.80564,-3.317106 11.62303,-5.809056 6.911693,-1.754395 31.856043,-4.826928 44.871383,-5.527056 12.22512,-0.657619 11.99305,-1.291448 12.35907,33.756153 l 0.0422,4.034638 6.37285,-0.432831 c 18.49101,-1.255874 17.07265,-0.973333 18.17905,-3.621315 0.54568,-1.306011 1.24682,-5.134438 1.55808,-8.507616 0.62553,-6.779014 1.81753,-9.351709 4.66392,-10.066106 2.79913,-0.702537 3.9095,0.491741 5.26764,5.665697 1.52401,5.805909 1.17038,12.833783 -0.92799,18.442171 -1.28563,3.436169 -1.79137,3.997667 -5.02612,5.580279 -4.38258,2.144197 -12.77737,3.731115 -22.71648,4.294231 l -7.4416,0.421615 0.20756,2.431125 0.20757,2.431123 7.57852,1.583691 c 18.47474,3.860681 29.85667,9.242681 47.82175,22.612751 7.84959,5.84187 26.77279,22.72423 29.03973,25.90787 0.88218,1.2389 1.68977,3.59342 1.86771,5.44531 0.27193,2.83004 0.10005,3.41213 -1.29631,4.39019 -1.86088,1.30341 -4.49344,1.42632 -6.47041,0.30211 z M 144.72913,39.731648 V 27.330439 h -5.01479 c -2.75813,0 -9.34628,0.615211 -14.64031,1.367136 -5.29405,0.751924 -9.83624,1.371985 -10.09375,1.377912 -0.25753,0.0059 0.31148,1.405818 1.26445,3.11087 1.25617,2.247525 1.87871,4.7023 2.26368,8.926016 0.31107,3.412855 0.99814,6.538841 1.6588,7.547137 1.23772,1.888995 2.44862,2.050799 17.50012,2.338408 l 7.0618,0.134938 z"
     style="fill:#000000;stroke-width:0.68895608" />
</svg>
