<?xml version="1.0" encoding="UTF-8" standalone="no"?>
<!-- Created with Inkscape (http://www.inkscape.org/) -->

<svg
   xmlns:dc="http://purl.org/dc/elements/1.1/"
   xmlns:cc="http://creativecommons.org/ns#"
   xmlns:rdf="http://www.w3.org/1999/02/22-rdf-syntax-ns#"
   xmlns:svg="http://www.w3.org/2000/svg"
   xmlns="http://www.w3.org/2000/svg"
   xmlns:sodipodi="http://sodipodi.sourceforge.net/DTD/sodipodi-0.dtd"
   xmlns:inkscape="http://www.inkscape.org/namespaces/inkscape"
   width="300"
   height="300"
   id="svg2"
   version="1.1"
   inkscape:version="0.48.4 r9939"
   sodipodi:docname="image-seal.svg">
  <defs
     id="defs4" />
  <sodipodi:namedview
     id="base"
     pagecolor="#ffffff"
     bordercolor="#666666"
     borderopacity="1.0"
     inkscape:pageopacity="0.0"
     inkscape:pageshadow="2"
     inkscape:zoom="1.979899"
     inkscape:cx="210.04556"
     inkscape:cy="155.71586"
     inkscape:document-units="px"
     inkscape:current-layer="layer1"
     showgrid="false"
     inkscape:window-width="1215"
     inkscape:window-height="1000"
     inkscape:window-x="65"
     inkscape:window-y="24"
     inkscape:window-maximized="1" />
  <metadata
     id="metadata7">
    <rdf:RDF>
      <cc:Work
         rdf:about="">
        <dc:format>image/svg+xml</dc:format>
        <dc:type
           rdf:resource="http://purl.org/dc/dcmitype/StillImage" />
        <dc:title />
      </cc:Work>
    </rdf:RDF>
  </metadata>
  <g
     inkscape:label="Calque 1"
     inkscape:groupmode="layer"
     id="layer1"
     transform="translate(0,-752.36218)">
    <path
       style="fill:#000000"
       d="m 89.89496,1044.9053 c -3.28691,-2.0802 -3.39827,-5.4712 -0.69683,-21.2202 1.76837,-10.3095 3.80365,-29.85573 4.52281,-43.43618 0.71916,-13.58045 1.90491,-30.24736 2.63499,-37.03758 1.99625,-18.56623 2.37359,-100.72823 0.47675,-103.79741 -0.91022,-1.47277 -6.58125,-2.01701 -12.60227,-1.20942 C 72.10233,839.83122 65,835.93218 65,827.64737 c 0,-4.45403 2.17904,-5.15111 16.10218,-5.15111 l 16.10216,0 1.70055,-10.28821 c 0.93529,-5.65852 1.71412,-15.45957 1.73072,-21.7801 l 0.0302,-11.49186 -12.44498,-1.86625 c -6.84474,-1.02644 -15.13814,-4.04703 -18.42979,-6.71247 -5.21657,-4.2241 -5.49506,-5.43638 -2.16947,-9.44346 3.18951,-3.84313 6.76188,-4.28171 21.77785,-2.67362 9.87935,1.05798 27.87577,2.05929 39.99202,2.22513 20.6504,0.28267 22.08447,0.688 22.90627,6.47447 0.65976,4.6454 -0.48827,6.17293 -4.63925,6.17293 -3.03379,0 -6.27897,1.23459 -7.21155,2.74353 -0.93257,1.50894 -5.94379,2.74352 -11.13602,2.74352 -9.03925,0 -9.45012,0.43718 -9.66903,10.28822 -0.29273,13.17295 -1.30515,20.06924 -3.8262,26.06348 -1.66156,3.95062 -0.56994,4.80117 6.16188,4.80117 4.49962,0 12.03924,0.77162 16.75467,1.7147 17.58613,3.51723 6.0441,17.48997 -14.4474,17.48997 l -9.04512,0 -3.33835,58.2999 c -1.83608,32.06494 -4.49793,69.67114 -5.91518,83.56937 -1.41725,13.8982 -2.5937,31.79962 -2.6143,39.78102 -0.0634,24.5812 -3.43218,30.6547 -13.47691,24.2976 z m 110.65726,-1.0797 c -4.0411,-4.6281 -9.96668,-62.72967 -10.47083,-102.6688 -0.13799,-10.93808 -1.03891,-19.88885 -2.00189,-19.89056 -0.96295,-0.002 -1.72631,-7.10196 -1.69629,-15.77836 0.17668,-51.09688 -1.19198,-65.53772 -6.52712,-68.86957 -3.44433,-2.15103 -6.87939,-2.3968 -10.01848,-0.7168 -6.18146,3.3082 -15.65224,-3.18403 -13.35975,-9.15816 1.17233,-3.05508 5.50397,-4.24709 15.43347,-4.24709 l 13.80375,0 0,-11.96294 c 0,-6.5796 0.77493,-17.6168 1.72211,-24.52708 l 1.72211,-12.56416 -13.10107,-0.8505 c -8.93196,-0.57987 -14.06356,-2.40322 -16.12562,-5.72979 -4.08033,-6.58246 2.36031,-10.63942 13.62333,-8.58131 4.62951,0.84594 21.60482,1.75147 37.72291,2.01229 28.42135,0.45987 29.30567,0.66045 29.30619,6.64712 5e-4,5.69553 -1.23612,6.17293 -15.98942,6.17293 l -15.98995,0 -3.21472,13.92693 c -1.76809,7.65981 -3.21473,18.77108 -3.21473,24.69172 l 0,10.76479 19.04912,0 c 16.41738,0 19.6233,0.81982 23.20552,5.93417 2.28604,3.26377 3.63204,6.78267 2.99107,7.81975 -0.64097,1.03711 -10.58465,1.98322 -22.09708,2.1025 -11.51246,0.11935 -21.46594,0.75107 -22.11887,1.404 -1.82692,1.82692 -1.502,103.21455 0.34033,106.19547 1.46309,2.36733 2.23938,8.6097 5.15223,41.43062 0.48212,5.43256 1.63967,11.11204 2.5723,12.62113 0.93263,1.5089 1.70313,8.1754 1.71221,14.8142 0.008,6.6389 0.24499,13.9226 0.52409,16.186 1.2978,10.5223 -0.57348,16.4564 -5.15799,16.3568 -2.64064,-0.057 -6.14925,-1.6483 -7.79693,-3.5353 z"
       id="path3472"
       inkscape:connector-curvature="0" />
  </g>
</svg>
