<?xml version="1.0" encoding="UTF-8" standalone="no"?>
<!-- Created with Inkscape (http://www.inkscape.org/) -->

<svg
   xmlns:dc="http://purl.org/dc/elements/1.1/"
   xmlns:cc="http://creativecommons.org/ns#"
   xmlns:rdf="http://www.w3.org/1999/02/22-rdf-syntax-ns#"
   xmlns:svg="http://www.w3.org/2000/svg"
   xmlns="http://www.w3.org/2000/svg"
   xmlns:sodipodi="http://sodipodi.sourceforge.net/DTD/sodipodi-0.dtd"
   xmlns:inkscape="http://www.inkscape.org/namespaces/inkscape"
   width="300"
   height="300"
   id="svg2"
   version="1.1"
   inkscape:version="0.48.4 r9939"
   sodipodi:docname="dessin.svg">
  <defs
     id="defs4" />
  <sodipodi:namedview
     id="base"
     pagecolor="#ffffff"
     bordercolor="#666666"
     borderopacity="1.0"
     inkscape:pageopacity="0.0"
     inkscape:pageshadow="2"
     inkscape:zoom="1.979899"
     inkscape:cx="66.959549"
     inkscape:cy="133.99264"
     inkscape:document-units="px"
     inkscape:current-layer="layer1"
     showgrid="false"
     inkscape:window-width="1215"
     inkscape:window-height="1000"
     inkscape:window-x="65"
     inkscape:window-y="24"
     inkscape:window-maximized="1" />
  <metadata
     id="metadata7">
    <rdf:RDF>
      <cc:Work
         rdf:about="">
        <dc:format>image/svg+xml</dc:format>
        <dc:type
           rdf:resource="http://purl.org/dc/dcmitype/StillImage" />
        <dc:title />
      </cc:Work>
    </rdf:RDF>
  </metadata>
  <g
     inkscape:label="Calque 1"
     inkscape:groupmode="layer"
     id="layer1"
     transform="translate(0,-752.36218)">
    <path
       style="fill:#000000"
       d="m 63.484793,1028.3256 c 0,-3.1624 2.143872,-15.8832 4.764143,-28.2686 4.871986,-23.02852 6.967256,-44.66313 9.054357,-93.49086 0.650424,-15.21691 2.175901,-37.41073 3.389992,-49.31962 1.21405,-11.90887 2.384838,-27.98856 2.601738,-35.73262 0.681708,-24.33885 6.272315,-28.02199 42.534287,-28.02199 27.03514,0 25.28749,0.97988 27.89102,-15.63792 0.45897,-2.92954 2.66578,-4.81167 5.64172,-4.81167 4.50961,0 6.28296,3.01721 10.2516,17.44231 0.58864,2.13958 7.85772,3.02938 25.1927,3.08379 25.19423,0.0791 33.08382,2.55765 33.08382,10.39333 0,3.50465 -3.13306,3.7395 -29.26914,2.19417 -34.53392,-2.04191 -38.66164,-2.02124 -72.86148,0.36451 -14.62663,1.02035 -27.550473,3.1177 -29.320393,4.75828 -2.199194,2.03844 -3.504376,14.6388 -4.277132,41.29158 -2.45741,84.75865 -4.665905,119.19985 -9.941718,155.04091 -1.595288,10.8374 -6.71848,21.7096 -11.360787,24.1091 -6.561276,3.3914 -7.374727,3.017 -7.374727,-3.3947 z m 153.555867,-23.7217 c -0.90348,-16.20932 -2.31233,-32.38238 -3.13078,-35.94013 -1.66795,-7.25053 -11.07536,-11.57511 -25.1797,-11.57511 -4.68859,0 -9.94899,-1.37563 -11.68982,-3.05695 -5.98059,-5.77612 -8.66463,-12.72074 -6.30731,-16.31935 1.25346,-1.91353 2.29619,-6.21526 2.31719,-9.55944 0.0224,-3.71305 2.9476,-8.54601 7.51111,-12.41355 6.01649,-5.0989 7.47298,-8.25115 7.47298,-16.17366 0,-8.8291 -0.6249,-9.84041 -6.08046,-9.84041 -6.86764,0 -10.6413,-4.05891 -7.02283,-7.55368 1.32272,-1.2775 12.83728,-2.44158 25.5879,-2.58685 21.63186,-0.24643 23.50691,0.12222 28.02529,5.51153 5.10813,6.0926 4.92571,18.12188 -0.48313,31.86188 -2.43454,6.18442 -3.28666,6.4488 -20.7845,6.4488 -18.65266,0 -24.22425,2.25691 -24.22425,9.81262 0,4.16979 7.81363,8.01247 21.64804,10.64628 4.37118,0.8322 11.37369,4.41841 15.56118,7.9694 l 7.61358,6.45629 1.53878,37.8919 1.53882,37.89193 -6.13472,0 c -6.09565,0 -6.14512,-0.1875 -7.77737,-29.4715 z m -2.20216,-93.82756 c 3.90968,-4.69493 0.75181,-18.27344 -4.63367,-19.92428 -2.57894,-0.79053 -5.81996,-0.76226 -7.20227,0.0628 -2.78719,1.66368 -3.4717,18.73531 -0.85262,21.26482 2.72132,2.62831 10.00175,1.82308 12.68856,-1.40339 z m -101.98509,86.76305 c -11.72534,-3.01393 -13.881388,-9.04878 -12.5177,-35.0376 0.89627,-17.08094 1.66211,-19.84814 5.49319,-19.84814 5.31272,0 7.34431,4.18413 5.91467,12.18166 -0.57633,3.22415 0.0978,7.48604 1.49844,9.47085 2.11007,2.99047 4.24744,1.75387 12.47503,-7.2175 5.46075,-5.95444 9.94617,-11.63823 9.96758,-12.63063 0.0224,-0.99241 -4.38238,-1.80438 -9.78616,-1.80438 -6.81365,0 -11.96722,-1.78691 -16.81419,-5.83001 -6.86504,-5.72651 -6.98205,-6.26508 -6.59082,-30.33734 0.21896,-13.47901 1.42869,-25.50247 2.68803,-26.71875 3.22156,-3.11144 29.33496,-3.92661 44.6288,-1.39319 14.99374,2.4837 15.71998,3.85779 15.7711,29.83952 0.0415,21.08902 -2.73206,28.78916 -11.74816,32.616 -15.56536,6.60659 -14.51709,15.11093 3.13436,25.42862 13.86033,8.10167 16.89941,13.16193 9.54232,15.88861 -4.31961,1.60091 -14.3759,-3.65035 -21.11461,-11.02578 -2.21577,-2.42512 -6.1994,-4.40934 -8.85255,-4.40934 -5.65483,0 -22.53953,15.91104 -19.74796,18.60918 1.04726,1.01223 11.61963,2.15 23.49413,2.52839 28.4247,0.9058 32.79947,1.94324 32.79947,7.77828 0,4.45676 -1.65589,4.74976 -25.53266,4.51716 -14.04295,-0.1366 -29.65899,-1.30927 -34.70231,-2.60561 z m 37.19331,-68.06134 c 1.78628,-0.63586 3.11374,-5.2432 3.11374,-10.80724 l 0,-9.69884 -19.92793,0 -19.92792,0 0,7.25015 c 0,13.02603 3.86123,16.00595 19.614,15.1372 7.7079,-0.42509 15.41555,-1.27165 17.12811,-1.88127 z m -9.02985,-32.53525 c 8.71913,0 12.14359,-0.94509 12.14359,-3.35135 0,-4.52593 -5.54779,-6.27199 -19.92793,-6.27199 -15.43241,0 -19.92792,1.75409 -19.92792,7.77563 0,4.1545 1.12318,4.63804 7.78435,3.35135 4.28138,-0.827 13.24895,-1.50364 19.92791,-1.50364 z m -36.1085,-23.55478 c -0.95081,-1.48585 0.55251,-11.33088 3.34069,-21.87787 3.57108,-13.50834 4.39597,-20.88713 2.79089,-24.96455 -2.4892,-6.32325 -0.2911,-12.14434 3.57588,-9.46979 1.33392,0.92254 4.31627,4.92524 6.62752,8.89488 3.65332,6.27467 5.60425,7.2175 14.9348,7.2175 10.61554,0 10.7569,-0.11135 12.96586,-10.2248 1.53953,-7.0485 3.51576,-10.22479 6.36161,-10.22479 3.52195,0 4.14243,3.09214 4.2243,21.05104 0.0529,11.57808 0.93357,24.36052 1.95734,28.40541 1.35246,5.34359 0.82423,8.18569 -1.93208,10.39505 -3.19553,2.56137 -4.40694,1.89495 -7.6851,-4.2276 -2.14039,-3.99754 -3.8916,-9.82168 -3.8916,-12.9425 0,-3.12082 -1.49911,-7.65428 -3.33133,-10.07437 -2.80699,-3.70756 -4.85347,-4.05243 -13.00213,-2.1912 -8.31909,1.90017 -9.96047,3.3919 -11.74328,10.67269 -2.53187,10.33984 -12.70925,23.44286 -15.19337,19.5609 z m 76.27572,-9.2245 c -7.26314,-3.50721 -8.09571,-4.98008 -8.09571,-14.32178 0,-20.54879 7.81663,-27.54068 30.63183,-27.39976 18.17407,0.11206 24.16996,5.32307 24.16996,21.00533 0,17.04986 -6.78279,23.61402 -24.99863,24.19291 -8.40699,0.26713 -16.70728,-1.06222 -21.70745,-3.4767 z m 30.40806,-8.49849 c 0.42356,-0.45338 1.52012,-4.20894 2.43683,-8.34567 2.06907,-9.33698 -3.29585,-15.33409 -13.71764,-15.33409 -14.62238,0 -24.06039,19.32029 -11.65427,23.85719 5.14407,1.88119 21.12739,1.75753 22.93508,-0.17755 z"
       id="path3080"
       inkscape:connector-curvature="0" />
  </g>
</svg>
