<?xml version="1.0" encoding="UTF-8" standalone="no"?>
<!-- Created with Inkscape (http://www.inkscape.org/) -->

<svg
   xmlns:dc="http://purl.org/dc/elements/1.1/"
   xmlns:cc="http://creativecommons.org/ns#"
   xmlns:rdf="http://www.w3.org/1999/02/22-rdf-syntax-ns#"
   xmlns:svg="http://www.w3.org/2000/svg"
   xmlns="http://www.w3.org/2000/svg"
   xmlns:sodipodi="http://sodipodi.sourceforge.net/DTD/sodipodi-0.dtd"
   xmlns:inkscape="http://www.inkscape.org/namespaces/inkscape"
   width="300"
   height="300"
   id="svg2"
   version="1.1"
   inkscape:version="0.48.2 r9819"
   sodipodi:docname="Nouveau document 1">
  <defs
     id="defs4" />
  <sodipodi:namedview
     id="base"
     pagecolor="#ffffff"
     bordercolor="#666666"
     borderopacity="1.0"
     inkscape:pageopacity="0.0"
     inkscape:pageshadow="2"
     inkscape:zoom="1.979899"
     inkscape:cx="233.03119"
     inkscape:cy="146.49464"
     inkscape:document-units="px"
     inkscape:current-layer="layer1"
     showgrid="false"
     inkscape:window-width="486"
     inkscape:window-height="415"
     inkscape:window-x="0"
     inkscape:window-y="24"
     inkscape:window-maximized="0" />
  <metadata
     id="metadata7">
    <rdf:RDF>
      <cc:Work
         rdf:about="">
        <dc:format>image/svg+xml</dc:format>
        <dc:type
           rdf:resource="http://purl.org/dc/dcmitype/StillImage" />
        <dc:title></dc:title>
      </cc:Work>
    </rdf:RDF>
  </metadata>
  <g
     inkscape:label="Calque 1"
     inkscape:groupmode="layer"
     id="layer1"
     transform="translate(0,-752.36218)">
    <path
       style="fill:#000000"
       d="m 107.03672,1033.461 c -0.13296,-3.9228 -0.89984,-9.4666 -1.70416,-12.3196 -2.82128,-10.0073 -1.23575,-52.01536 2.49624,-66.13688 4.00722,-15.16298 9.26068,-23.55615 20.77202,-33.18633 3.91405,-3.27442 7.11646,-8.55855 7.11646,-11.74252 0,-5.41026 -7.51341,-16.80654 -13.21897,-20.05044 -1.38917,-0.78981 -5.21375,-5.97189 -8.49906,-11.51575 -7.6002,-12.82506 -4.21417,-22.28318 12.54077,-35.02988 11.61181,-8.83393 13.48739,-11.99109 12.71152,-21.39722 -0.28853,-3.4978 -3.21294,-4.5388 -12.75054,-4.5388 -6.80687,0 -12.93539,-1.3771 -13.61892,-3.06022 -0.68354,-1.68312 -3.52742,-2.34063 -6.31974,-1.46114 -3.60868,1.13662 -5.07694,4.93203 -5.07694,13.12374 0,14.52276 -3.615388,19.20498 -22.929044,29.69499 -12.481744,6.77933 -15.51599,9.85662 -15.51599,15.73612 0,7.4378 8.008949,15.31132 21.291786,20.93174 3.88981,1.64592 7.996214,6.16847 9.125335,10.05012 1.129121,3.88165 3.452931,8.51644 5.164017,10.29955 2.071406,2.15858 1.996966,3.242 -0.22277,3.242 -1.83361,0 -4.181264,2.19152 -5.217005,4.87005 -1.035744,2.67853 -5.399329,8.22236 -9.69686,12.31962 -16.219998,15.46411 -18.767873,23.31586 -20.444503,63.0035 -1.669991,39.53045 -4.290961,45.42985 -14.50121,32.63955 -4.736212,-5.9331 -5.171553,-11.3574 -3.431423,-42.75547 1.740527,-31.40524 2.902448,-37.09803 9.172839,-44.94195 12.976309,-16.23267 19.598314,-26.37165 19.80434,-30.32251 0.111582,-2.13972 -5.160276,-7.81587 -11.715242,-12.61367 -16.959359,-12.41312 -21.068066,-26.15684 -12.18438,-40.75702 3.660131,-6.01537 10.403659,-12.95319 14.985618,-15.4174 24.308106,-13.07304 27.192747,-27.17521 5.558774,-27.17521 -7.115664,0 -11.723863,-1.44665 -12.947861,-4.06473 -2.51963,-5.38939 1.613202,-8.2886 13.15821,-9.23058 13.839229,-1.12918 17.379262,-4.29699 17.379262,-15.55189 0,-8.1383 1.141116,-10.05684 5.98166,-10.05684 7.388547,0 10.852447,6.25636 10.051837,18.15522 l -0.61078,9.07761 17.4452,-0.88261 c 14.53444,-0.73535 17.83369,-1.81722 19.77355,-6.48401 1.28059,-3.08076 2.07551,-6.40561 1.76649,-7.38854 -0.30904,-0.98293 2.32137,-2.53826 5.84531,-3.45628 9.71108,-2.52984 15.58363,3.23132 15.58258,15.28701 l -9.3e-4,10.70524 46.60895,-0.56882 c 58.00032,-0.70784 61.53878,-0.17398 60.23763,9.08849 -0.97799,6.96207 -1.25803,7.04195 -24.68821,7.04195 l -23.69899,0 -0.95531,10.74835 -0.95532,10.74834 15.81262,3.3264 c 22.99944,4.83824 24.14324,8.27049 23.42782,70.30094 -0.68782,59.63856 -2.3031,64.28675 -25.13118,72.31844 -18.71399,6.58424 -28.23334,6.34734 -47.23131,-1.17516 -20.76854,-8.22361 -29.63075,-23.74497 -29.77533,-52.1488 -0.0363,-7.1324 -1.4444,-14.71869 -3.12911,-16.85841 -2.04206,-2.59361 -3.07922,-2.80974 -3.11147,-0.6484 -0.0265,1.7831 -5.55063,7.75821 -12.27559,13.27803 -11.00886,9.03601 -12.46666,11.81415 -14.63042,27.88122 -1.32177,9.81487 -2.16107,29.34027 -1.8651,43.38976 0.53958,25.614 -1.90902,32.8115 -11.16251,32.8115 -2.58342,0 -4.45117,-2.8994 -4.59466,-7.1324 z m 128.68986,-59.09739 c 7.82977,-8.78895 4.97881,-17.68715 -10.40719,-32.48212 -8.0704,-7.76039 -15.53559,-14.1098 -16.58929,-14.1098 -1.05372,0 -8.88904,6.1488 -17.41183,13.664 l -15.496,13.664 4.26088,10.59695 c 5.11772,12.72794 11.71006,15.48033 34.31434,14.3267 12.07437,-0.61623 18.3101,-2.2709 21.32909,-5.65973 z m 10.39764,-61.6582 c -0.35956,-35.60193 -5.86592,-49.62412 -18.77083,-47.8008 -3.46536,0.48961 -5.23812,5.54467 -6.5931,18.80037 -1.01932,9.97187 -1.22567,21.22284 -0.45857,25.00215 1.65889,8.17288 18.95333,26.22897 23.10524,24.12279 1.59809,-0.81068 2.82086,-9.86671 2.71726,-20.12451 z m -62.3842,13.06533 c 9.16919,-2.77334 15.15567,-16.40809 16.73052,-38.10527 1.48472,-20.45516 1.37571,-20.84344 -5.85152,-20.84344 -13.7601,0 -17.37818,6.988 -19.50896,37.67988 -1.08659,15.65134 -0.79639,27.20473 0.6449,25.6742 1.44128,-1.53053 5.03456,-3.51295 7.98506,-4.40537 z m -25.65878,-37.70456 c 0.1347,-3.83863 2.72444,-12.81494 5.75499,-19.94735 5.06039,-11.90966 6.84274,-13.39136 21.83902,-18.15522 15.50684,-4.92605 16.33071,-5.6629 16.36408,-14.63573 0.0399,-10.74212 -1.56726,-11.55605 -24.29196,-12.3021 l -16.42743,-0.5393 -3.31811,9.84816 c -1.87165,5.55504 -8.82963,14.28675 -15.9612,20.03001 -7.0205,5.65382 -12.64308,12.67338 -12.64308,15.78438 0,6.55926 21.58889,30.37131 25.66232,28.30494 1.52706,-0.77464 2.88668,-4.54915 3.02137,-8.38779 z"
       id="path2996"
       inkscape:connector-curvature="0" />
  </g>
</svg>
