<?xml version="1.0" encoding="UTF-8" standalone="no"?>
<!-- Created with Inkscape (http://www.inkscape.org/) -->

<svg
   xmlns:dc="http://purl.org/dc/elements/1.1/"
   xmlns:cc="http://creativecommons.org/ns#"
   xmlns:rdf="http://www.w3.org/1999/02/22-rdf-syntax-ns#"
   xmlns:svg="http://www.w3.org/2000/svg"
   xmlns="http://www.w3.org/2000/svg"
   xmlns:sodipodi="http://sodipodi.sourceforge.net/DTD/sodipodi-0.dtd"
   xmlns:inkscape="http://www.inkscape.org/namespaces/inkscape"
   width="300"
   height="300"
   id="svg2"
   version="1.1"
   inkscape:version="0.48.3.1 r9886"
   sodipodi:docname="Nouveau document 1">
  <defs
     id="defs4" />
  <sodipodi:namedview
     id="base"
     pagecolor="#ffffff"
     bordercolor="#666666"
     borderopacity="1.0"
     inkscape:pageopacity="0.0"
     inkscape:pageshadow="2"
     inkscape:zoom="1.979899"
     inkscape:cx="63.215324"
     inkscape:cy="168.62536"
     inkscape:document-units="px"
     inkscape:current-layer="layer1"
     showgrid="false"
     inkscape:window-width="1215"
     inkscape:window-height="1000"
     inkscape:window-x="65"
     inkscape:window-y="24"
     inkscape:window-maximized="1" />
  <metadata
     id="metadata7">
    <rdf:RDF>
      <cc:Work
         rdf:about="">
        <dc:format>image/svg+xml</dc:format>
        <dc:type
           rdf:resource="http://purl.org/dc/dcmitype/StillImage" />
        <dc:title></dc:title>
      </cc:Work>
    </rdf:RDF>
  </metadata>
  <g
     inkscape:label="Calque 1"
     inkscape:groupmode="layer"
     id="layer1"
     transform="translate(0,-752.36218)">
    <path
       style="fill:#000000"
       d="m 211.26235,1038.6029 c -2.33165,-9.3533 -6.58769,-67.74985 -5.46148,-74.93685 0.51665,-3.29724 0.0246,-11.72149 -1.09632,-18.72062 -1.60613,-10.04024 -2.8786,-12.18218 -6.03001,-10.15005 -5.23888,3.37818 -14.0325,0.64995 -14.04717,-4.35812 -0.0155,-5.143 -11.34031,-19.52676 -15.3747,-19.52676 -1.81979,0 -3.13169,7.03182 -3.13169,16.78586 l 0,16.78585 11.75539,0 c 21.73154,0 28.53277,9.32445 10.65359,14.60601 l -7.85463,2.32028 1.98407,24.50907 c 1.09126,13.48 2.73896,29.90453 3.66155,36.49893 1.94705,13.9171 -1.72133,20.5369 -8.83759,15.9482 -6.13223,-3.9543 -8.45805,-15.2919 -10.31016,-50.25948 l -1.56332,-29.51536 -8.23183,0.73961 c -7.90515,0.71024 -8.25532,1.35819 -8.82358,16.32647 -1.23182,32.44806 -16.64475,65.75196 -27.92334,60.33606 -2.76845,-1.3295 -2.08129,-5.9159 2.76624,-18.463 4.23959,-10.9736 6.58358,-24.08973 6.84034,-38.27609 l 0.39057,-21.58182 -8.47093,-0.10728 c -9.633,-0.12185 -16.37566,-4.20966 -13.30689,-8.06758 1.13644,-1.42872 5.80694,-2.40448 10.37886,-2.16838 19.82529,1.02382 25.385,-0.33794 28.75191,-7.04229 3.90869,-7.78318 4.06239,-26.88424 0.24011,-29.85395 -6.82784,-5.30504 -13.76336,1.80704 -22.21857,22.78421 -4.07847,10.11863 -10.2876,10.68468 -11.76015,1.07208 -1.16805,-7.62482 7.64603,-21.49958 22.33671,-35.16148 6.06298,-5.63844 11.02363,-11.50479 11.02363,-13.03639 0,-6.10847 -18.36606,-9.17867 -51.727622,-8.64714 -43.623984,0.69503 -43.948356,0.66085 -43.948356,-4.63497 0,-4.77808 4.209805,-5.16332 95.634278,-8.75139 30.73406,-1.20617 34.00685,-1.94135 33.94398,-7.62496 -0.10308,-9.31062 -4.62519,-10.81204 -35.80652,-11.88845 -42.39482,-1.46347 -42.39602,-1.4646 -39.78728,-36.63076 1.12395,-15.1509 2.71326,-28.38898 3.53174,-29.41797 0.81852,-1.02902 4.21866,-1.87092 7.55587,-1.87092 4.27278,0 6.61544,2.12804 7.91945,7.19395 l 1.85178,7.19393 34.42018,0 c 47.20103,0 48.9416,1.01778 47.60117,27.83392 -0.55297,11.06245 -2.04703,20.11629 -3.32013,20.11963 -1.27312,0.002 -2.31476,5.40149 -2.31476,11.99593 l 0,11.9899 11.57371,0.37533 c 34.58827,1.12174 43.98009,3.07421 43.98009,9.14311 0,6.64411 -8.22004,9.35242 -21.24515,6.9998 -6.13867,-1.10878 -24.70246,-2.04169 -41.25287,-2.07315 l -30.09162,-0.0573 0,7.13236 c 0,5.44781 2.11777,7.98326 8.96656,10.73501 13.62555,5.47457 18.51446,10.26976 22.26292,21.83605 l 3.42299,10.5621 6.59276,-10.05852 c 5.7592,-8.78678 8.54386,-10.44266 22.02436,-13.09662 21.09649,-4.15335 25.48478,-3.90258 29.32724,1.67581 2.80855,4.07741 2.09284,5.23749 -4.71895,7.64896 -7.95442,2.81593 -8.01648,3.04601 -6.62898,24.56886 1.44466,22.40993 5.69471,53.25948 11.08449,80.45793 3.65528,18.4457 1.80823,26.3966 -6.13201,26.3966 -5.70428,0 -11.41453,-11.4927 -11.3188,-22.7808 0.1253,-14.771 -1.67099,-35.06088 -4.03364,-45.56159 -1.48371,-6.59445 -4.34467,-21.9715 -6.35763,-34.1712 -3.59069,-21.76153 -8.7,-29.76806 -9.18154,-14.38789 -0.60368,19.28292 0.72203,75.63288 1.93224,82.13078 3.78533,20.3244 3.69277,24.9898 -0.59015,29.7408 -6.12273,6.7918 -9.54328,6.3268 -11.5105,-1.5645 z M 185.63512,828.42298 c 0.87646,-1.77462 2.55739,-8.22045 3.73543,-14.32406 l 2.14189,-11.09748 -27.35577,0.0329 c -39.8186,0.0477 -41.24419,0.54771 -41.24419,14.46802 0,13.3711 -0.40706,13.22144 37.50874,13.79194 17.27597,0.25995 24.04834,-0.51125 25.2139,-2.87117 z M 71.056776,1029.6961 c -1.905927,-3.2502 -2.327272,-6.4558 -0.936298,-7.1237 9.330261,-4.4804 22.661473,-108.29073 14.339484,-111.6619 -4.46597,-1.80914 -8.573618,15.75681 -15.981315,68.34241 -0.928951,6.59444 -2.949812,13.01503 -4.490814,14.26798 -1.540969,1.25295 -2.801792,5.31129 -2.801792,9.01861 0,8.4182 -11.262021,27.4339 -17.31692,29.2391 -7.051227,2.1023 -8.259861,-4.2971 -3.059286,-16.1987 2.614825,-5.9841 6.17607,-17.14529 7.913823,-24.80259 1.737783,-7.65731 4.631519,-19.31784 6.430567,-25.91228 6.358317,-23.30668 11.888882,-52.41124 10.331462,-54.3692 -0.867688,-1.0908 -4.007897,-1.98332 -6.978235,-1.98332 -7.210604,0 -17.64015,-6.04615 -13.696325,-7.93994 1.69294,-0.81297 14.160137,-2.19617 27.704831,-3.07384 l 24.626748,-1.59572 4.069654,7.63375 c 3.07829,5.77418 3.47047,13.88162 1.60992,33.28204 -1.35286,14.10654 -2.72078,29.42507 -3.039869,34.04118 -2.16781,31.36232 -13.832897,64.74542 -22.624009,64.74542 -1.449952,0 -4.195668,-2.6591 -6.101626,-5.9093 z"
       id="path2996"
       inkscape:connector-curvature="0" />
  </g>
</svg>
