<?xml version="1.0" encoding="UTF-8" standalone="no"?>
<!-- Created with Inkscape (http://www.inkscape.org/) -->

<svg
   xmlns:dc="http://purl.org/dc/elements/1.1/"
   xmlns:cc="http://creativecommons.org/ns#"
   xmlns:rdf="http://www.w3.org/1999/02/22-rdf-syntax-ns#"
   xmlns:svg="http://www.w3.org/2000/svg"
   xmlns="http://www.w3.org/2000/svg"
   xmlns:sodipodi="http://sodipodi.sourceforge.net/DTD/sodipodi-0.dtd"
   xmlns:inkscape="http://www.inkscape.org/namespaces/inkscape"
   width="300"
   height="300"
   id="svg2"
   version="1.1"
   inkscape:version="0.48.3.1 r9886"
   sodipodi:docname="Nouveau document 1">
  <defs
     id="defs4" />
  <sodipodi:namedview
     id="base"
     pagecolor="#ffffff"
     bordercolor="#666666"
     borderopacity="1.0"
     inkscape:pageopacity="0.0"
     inkscape:pageshadow="2"
     inkscape:zoom="1.979899"
     inkscape:cx="166.50258"
     inkscape:cy="169.54058"
     inkscape:document-units="px"
     inkscape:current-layer="layer1"
     showgrid="false"
     inkscape:window-width="1215"
     inkscape:window-height="1000"
     inkscape:window-x="65"
     inkscape:window-y="24"
     inkscape:window-maximized="1" />
  <metadata
     id="metadata7">
    <rdf:RDF>
      <cc:Work
         rdf:about="">
        <dc:format>image/svg+xml</dc:format>
        <dc:type
           rdf:resource="http://purl.org/dc/dcmitype/StillImage" />
        <dc:title></dc:title>
      </cc:Work>
    </rdf:RDF>
  </metadata>
  <g
     inkscape:label="Calque 1"
     inkscape:groupmode="layer"
     id="layer1"
     transform="translate(0,-752.36218)">
    <path
       style="fill:#000000"
       d="m 225.30423,1032.2271 c -1.64211,-1.6698 -4.84478,-7.9542 -7.11696,-13.9653 -11.09621,-29.35512 -8.94738,-26.86181 -21.8107,-25.30732 -12.55538,1.51726 -30.5754,-2.42561 -27.65273,-6.05056 0.98529,-1.22206 7.4797,-2.95862 14.43201,-3.85898 14.49982,-1.87784 16.22783,-3.2025 13.7297,-10.5252 -1.31684,-3.85997 -5.02362,-5.69061 -13.66823,-6.75022 -15.4866,-1.89826 -20.43903,-4.42146 -18.04902,-9.1957 3.91284,-7.81622 32.14055,-1.43227 41.36046,9.35406 6.76901,7.91901 12.63867,7.85751 17.4176,-0.18241 3.08301,-5.18678 2.88883,-7.4203 -1.04534,-12.02286 -4.48784,-5.25026 -6.89382,-5.64512 -33.80057,-5.54713 -20.8604,0.076 -29.70047,-0.80193 -31.58275,-3.13651 -4.85715,-6.02432 2.67327,-7.38558 36.21763,-6.54704 29.89223,0.74722 34.13681,1.41796 40.11097,6.33853 10.19898,8.40031 9.82514,23.01776 -0.80624,31.5239 l -8.48784,6.79111 6.26115,19.77313 c 4.62041,14.5917 5.44417,21.4204 3.1435,26.0589 -3.54107,7.1394 -4.48042,7.4922 -8.65264,3.2497 z M 78.406196,1021.7283 c -3.382339,-3.124 -3.40417,-7.1562 -0.119764,-22.13898 2.885941,-13.16557 3.048861,-19.06035 0.579159,-20.9535 -1.890132,-1.44885 -3.436552,-7.98833 -3.436552,-14.53218 0,-18.80923 15.582254,-27.27978 53.776451,-29.23303 5.10162,-0.2609 8.20958,1.03356 8.91072,3.71121 1.04365,3.98577 -3.22804,5.21185 -26.25013,7.53442 -9.40342,0.94867 -23.763286,11.54299 -23.763286,17.53192 0,8.4616 3.441779,8.75679 12.777616,1.09595 4.82648,-3.96057 11.05496,-7.20103 13.8411,-7.20103 2.7861,0 5.06567,-1.09292 5.06567,-2.42874 0,-1.33581 4.27739,-2.42875 9.50531,-2.42875 5.98607,0 9.50531,1.24542 9.50531,3.36379 0,3.52811 -13.10545,11.2087 -19.12548,11.2087 -4.51528,0 -13.84874,7.10712 -11.59857,8.83194 0.94308,0.72292 7.66952,2.34 14.94764,3.59353 30.30115,5.2188 25.79689,15.90341 -5.44303,12.91147 -10.11232,-0.96849 -18.996337,-1.87404 -19.742282,-2.01236 -2.530188,-0.46914 -7.621457,16.86314 -9.379116,31.92944 -0.486007,4.1661 -5.079292,3.8079 -10.050668,-0.7838 z m 24.482554,-90.09186 c -1.16177,-0.89052 -2.1123,-12.91283 -2.1123,-26.71623 0,-24.50183 -1.336575,-27.95849 -8.644546,-22.35662 -2.602682,1.99507 -2.632719,3.8971 -0.110585,6.993 2.667731,3.27445 1.825433,7.34844 -3.662144,17.71246 -8.289016,15.65504 -17.543074,23.42222 -22.959329,19.27043 -3.512341,-2.69235 -2.441251,-5.22408 11.958701,-28.26667 7.081776,-11.33218 5.768713,-13.59215 -7.897112,-13.59215 -9.639531,0 -12.663076,-1.05197 -13.961344,-4.85749 -1.525666,-4.47217 -0.09727,-4.8575 18.007409,-4.8575 18.033483,0 27.26878,-2.63218 27.26878,-7.77199 0,-1.06865 -4.121405,-1.94301 -9.158651,-1.94301 -7.870877,0 -9.398413,-1.10991 -10.863499,-7.89342 -0.937636,-4.34139 -2.712753,-11.00769 -3.944674,-14.814 -1.907685,-5.89423 -1.36658,-6.79163 3.648774,-6.05125 3.238747,0.4781 9.111795,5.23177 13.051209,10.56366 l 7.162601,9.6944 0.0523,-13.10012 0.052,-13.10011 -24.555393,1.5298 c -27.218882,1.69575 -36.363915,-0.38631 -29.508459,-6.7182 3.473717,-3.20841 12.802613,-3.82821 57.620242,-3.82821 52.52859,0 53.4755,-0.0921 53.4755,-5.19728 0,-4.87203 -1.13439,-5.10753 -18.12692,-3.7632 -9.96981,0.78877 -24.22778,0.79312 -31.68438,0.01 l -13.557462,-1.42449 0,-22.48314 c 0,-17.23246 1.055819,-22.79367 4.521013,-23.81297 4.803199,-1.41287 9.009869,1.60947 12.426329,8.9278 1.81286,3.88325 4.49465,4.28632 20.29461,3.05029 10.01315,-0.78333 34.85288,-2.00098 55.19946,-2.70588 35.04825,-1.21425 37.10016,-1.02456 39.01786,3.60703 3.09801,7.48218 -0.85098,10.11075 -12.64223,8.41513 -5.82711,-0.83797 -14.98361,-0.78465 -20.34774,0.11843 -9.66934,1.62794 -9.75303,1.77719 -9.75303,17.39836 l 0,15.75631 33.26861,-1.70826 c 31.9712,-1.64163 33.2686,-1.5175 33.2686,3.18331 0,8.57692 -7.08441,10.88103 -23.63401,7.68668 -10.92269,-2.10828 -16.77298,-2.1468 -22.49557,-0.14808 -10.28817,3.59325 -9.77041,6.74335 1.38952,8.45428 20.20127,3.09702 23.7917,16.12467 7.64696,27.74628 -4.17533,3.00557 -6.09226,5.46467 -4.25983,5.46467 7.26186,0 16.00542,9.90424 16.00542,18.13017 0,8.46062 -6.88216,13.95002 -14.75972,11.7728 -2.01861,-0.55794 -4.58695,0.1226 -5.7074,1.51233 -1.14891,1.42499 3.60017,4.2558 10.8916,6.49215 13.5098,4.14357 19.08085,9.33893 19.08085,17.79409 0,6.59347 -4.41045,6.34477 -13.33765,-0.75211 -3.99147,-3.17311 -11.17815,-6.47274 -15.97042,-7.33251 -7.58676,-1.36115 -8.71321,-0.83508 -8.71321,4.06915 0,5.56343 -5.21743,11.46137 -10.13899,11.46137 -1.39411,0 -2.53476,-3.82528 -2.53476,-8.50061 0,-4.67533 -1.10853,-8.50062 -2.46342,-8.50062 -5.83377,0 -16.5472,7.95161 -16.5472,12.28144 0,5.63392 -8.0242,6.32415 -10.72811,0.92281 -2.86903,-5.73106 6.74674,-17.9347 16.42464,-20.84495 8.23075,-2.47508 8.30378,-2.65062 1.89111,-4.54484 -4.4713,-1.32074 -7.28791,-4.88756 -8.54366,-10.81928 -2.40734,-11.3715 -0.11086,-15.6644 9.94741,-18.59581 l 8.12716,-2.36859 -8.2149,-5.33879 c -10.2222,-6.64334 -13.84192,-19.42207 -6.98938,-24.67482 2.68139,-2.0554 6.30373,-3.73708 8.04967,-3.73708 1.74593,0 2.69951,-1.89046 2.11902,-4.20096 -0.85026,-3.38433 -3.82111,-4.04967 -15.28239,-3.42267 -16.23286,0.88808 -18.38142,1.76744 -13.4862,5.51982 2.53668,1.9445 1.81509,4.9541 -2.64825,11.04558 -3.37423,4.60504 -5.38165,9.30712 -4.46097,10.44907 0.92071,1.14196 -0.47778,3.72572 -3.10777,5.7417 -6.60922,5.06627 -6.07773,6.00387 3.90434,6.88703 11.69011,1.03429 14.16654,9.26913 2.78747,9.26913 l -8.00173,0 4.89317,11.53655 c 10.35842,24.42191 10.49778,25.09058 5.53312,26.55094 -6.80435,2.00152 -13.68075,-6.31785 -13.79739,-16.69261 -0.0554,-4.93045 -1.58456,-9.66741 -3.39808,-10.52657 -1.81352,-0.85918 -2.43036,-3.656 -1.37069,-6.21521 1.32073,-3.18976 0.41433,-4.6531 -2.88212,-4.6531 -9.54603,0 -12.64276,12.97808 -4.92768,20.6515 1.347,1.33975 0.61839,5.05806 -1.61917,8.2629 -2.23758,3.20487 -3.41741,7.73489 -2.62191,10.06673 2.62217,7.68633 -7.0148,17.30752 -12.85318,12.83215 z m 105.61461,-47.55007 c 0,-3.41587 -2.7568,-4.2632 -13.87003,-4.2632 -8.56129,0 -15.40403,1.41685 -17.87792,3.70182 -4.35146,4.01917 -4.27013,4.1661 4.24574,7.66817 8.2497,3.39259 27.50221,-1.5824 27.50221,-7.10679 z m -84.76239,-20.01002 c -0.91716,-3.6778 1.72737,-10.7693 6.77626,-18.17091 4.55427,-6.67649 8.28048,-12.70566 8.28048,-13.39815 0,-0.69251 -5.06079,-1.25907 -11.24619,-1.25907 l -11.24614,0 0.58001,12.75091 c 0.73457,16.14843 3.03381,26.10904 6.02682,26.10904 1.28315,0 1.65611,-2.71432 0.82876,-6.03182 z m 79.75058,-7.58614 c 2.75651,-0.81082 5.01181,-3.54315 5.01181,-6.07187 0,-3.65142 -2.32512,-4.59765 -11.29784,-4.59765 -11.917,0 -23.55498,3.55421 -23.55498,7.19362 0,3.83854 20.4931,6.22558 29.84101,3.4759 z m -42.10658,-62.17949 c 4.41747,-5.47893 -0.93029,-6.92476 -23.1013,-6.24564 -21.67216,0.66382 -32.4554,4.4108 -26.12499,9.07796 7.04845,5.19649 44.48982,3.04227 49.22629,-2.83232 z"
       id="path2996"
       inkscape:connector-curvature="0" />
  </g>
</svg>
