<?xml version="1.0" encoding="UTF-8" standalone="no"?>
<!-- Created with Inkscape (http://www.inkscape.org/) -->

<svg
   xmlns:dc="http://purl.org/dc/elements/1.1/"
   xmlns:cc="http://creativecommons.org/ns#"
   xmlns:rdf="http://www.w3.org/1999/02/22-rdf-syntax-ns#"
   xmlns:svg="http://www.w3.org/2000/svg"
   xmlns="http://www.w3.org/2000/svg"
   xmlns:sodipodi="http://sodipodi.sourceforge.net/DTD/sodipodi-0.dtd"
   xmlns:inkscape="http://www.inkscape.org/namespaces/inkscape"
   width="300"
   height="300"
   id="svg2"
   version="1.1"
   inkscape:version="0.48.4 r9939"
   sodipodi:docname="image-seal.svg">
  <defs
     id="defs4" />
  <sodipodi:namedview
     id="base"
     pagecolor="#ffffff"
     bordercolor="#666666"
     borderopacity="1.0"
     inkscape:pageopacity="0.0"
     inkscape:pageshadow="2"
     inkscape:zoom="2.0018437"
     inkscape:cx="232.32812"
     inkscape:cy="141.91078"
     inkscape:document-units="px"
     inkscape:current-layer="layer1"
     showgrid="false"
     inkscape:window-width="1215"
     inkscape:window-height="1000"
     inkscape:window-x="65"
     inkscape:window-y="24"
     inkscape:window-maximized="1"
     fit-margin-top="10"
     fit-margin-left="10"
     fit-margin-right="10"
     fit-margin-bottom="10" />
  <metadata
     id="metadata7">
    <rdf:RDF>
      <cc:Work
         rdf:about="">
        <dc:format>image/svg+xml</dc:format>
        <dc:type
           rdf:resource="http://purl.org/dc/dcmitype/StillImage" />
        <dc:title />
      </cc:Work>
    </rdf:RDF>
  </metadata>
  <g
     inkscape:label="Calque 1"
     inkscape:groupmode="layer"
     id="layer1"
     transform="translate(0,-752.36218)">
    <path
       style="fill:#000000"
       d="m 90.272832,1044.295 c 0.655731,-9.7196 15.548048,-15.1161 23.478258,-20.27 9.23255,-8.3398 21.62307,-12.5107 30.36821,-21.3314 11.56271,-4.51398 21.23649,-15.80326 34.26641,-18.04761 8.81139,-7.89967 20.45005,-11.41747 30.46376,-17.59576 6.70083,-5.51888 22.09295,0.26938 11.54564,8.15488 -21.64853,13.45569 -45.54944,22.88439 -67.64087,35.61219 -13.88628,7.2371 -26.88607,16.0025 -38.5058,26.4806 -6.21385,3.0405 -18.270226,15.8455 -23.975608,6.9971 z m -27.72893,-0.6263 c 1.210655,-13.6585 9.140953,-25.7599 11.846384,-39.192 1.764129,-11.22885 6.68446,-21.62542 8.039951,-32.72199 1.807935,-30.24832 0.272765,-60.83704 5.221793,-90.82445 3.538507,-12.33618 19.22751,-10.80312 29.36529,-12.34755 33.80114,-1.96963 67.68444,-3.4816 101.5478,-3.14196 8.28047,-3.15127 16.31608,8.607 4.337,9.11076 -33.61958,3.32405 -67.51573,0.32817 -101.2313,2.09878 -9.89357,0.44658 -25.898139,0.45852 -24.692979,14.16896 -3.872045,40.68248 -3.737559,81.92405 -11.9565,122.08195 -5.85875,8.9594 -6.044821,19.7908 -13.084552,28.6785 -2.187432,3.025 -6.511708,6.9775 -9.392887,2.089 z m 46.428968,-67.49628 c 1.6267,-13.46835 19.00094,-11.69189 27.24668,-19.79668 22.1519,-13.07046 44.06405,-27.3727 68.56686,-35.62269 15.82498,-0.68958 1.01558,16.84669 -8.00766,16.20655 -26.69128,12.38352 -53.16536,25.64813 -77.58102,42.0904 -3.43427,1.80767 -10.33783,3.00661 -10.22486,-2.87758 z m 6.63798,-39.45314 c 4.41017,-8.54366 14.18498,-13.42288 22.14659,-18.54189 11.66398,-3.02399 20.1328,-11.77782 31.67751,-15.75304 10.88966,-4.29251 20.77809,-11.50801 32.25839,-13.98506 14.92936,3.6698 -3.08485,18.75066 -11.53537,17.63068 -18.35387,6.97982 -35.85615,16.19788 -53.27287,25.25508 -5.06718,3.7662 -15.82,10.7731 -21.27425,5.39423 z m -10.94657,-75.8076 c -4.19972,-10.82143 15.93543,-14.82856 20.90815,-23.49127 7.65524,-4.29151 15.50109,-13.07866 2.67041,-16.88258 -6.73534,-3.65706 -13.64301,-6.9831 -20.47054,-10.46251 -7.04396,5.1477 -13.744824,11.80098 -22.779859,12.8486 -1.138139,8.23954 -22.160565,22.61564 -20.230964,7.23952 6.342732,-9.44561 17.266971,-16.3592 27.526761,-20.58227 5.07775,-6.60403 14.440352,-10.03299 20.561662,-14.90882 8.23595,-5.48508 21.86046,-8.13454 23.15745,-19.43075 -2.3559,-10.02099 10.20854,-25.85381 16.6309,-11.39852 -0.67034,13.73937 9.95466,21.22546 22.95283,21.91315 16.5384,4.04324 33.969,7.34372 48.71843,16.11522 5.35162,2.5044 16.36775,12.80192 6.83509,17.73416 -17.11657,-0.89385 -30.8414,-18.91208 -48.68138,-12.91849 -6.22569,3.69746 -11.42164,8.19891 -17.84965,10.75536 1.16903,11.81988 17.60158,13.84011 25.86759,20.22164 8.62775,2.4162 23.18293,18.22398 8.78736,21.85564 -11.61726,-4.73378 -19.81622,-15.27548 -31.52527,-20.09563 -9.52862,-4.80958 -22.63776,-10.68729 -30.23896,0.42721 -9.52091,7.64769 -18.75641,15.76913 -28.95335,22.49653 l -1.48532,-0.50373 -2.40019,-0.93246 -0.001,0 z m 57.9589,-53.99757 c 8.0822,-3.61113 9.02436,-13.80343 -1.63666,-12.98479 -11.59825,-2.72316 -23.89269,-0.78515 -33.67313,6.19403 -9.07106,2.88844 -8.22909,10.31176 1.15751,11.06869 11.87794,3.85287 24.52802,5.57355 34.15228,-4.27793 z"
       id="path3028"
       inkscape:connector-curvature="0" />
  </g>
</svg>
