<?xml version="1.0" encoding="UTF-8" standalone="no"?>
<svg
   xmlns:dc="http://purl.org/dc/elements/1.1/"
   xmlns:cc="http://creativecommons.org/ns#"
   xmlns:rdf="http://www.w3.org/1999/02/22-rdf-syntax-ns#"
   xmlns:svg="http://www.w3.org/2000/svg"
   xmlns="http://www.w3.org/2000/svg"
   viewBox="0 0 300 300"
   height="300"
   width="300"
   id="svg363"
   version="1.1">
  <metadata
     id="metadata369">
    <rdf:RDF>
      <cc:Work
         rdf:about="">
        <dc:format>image/svg+xml</dc:format>
        <dc:type
           rdf:resource="http://purl.org/dc/dcmitype/StillImage" />
        <dc:title></dc:title>
      </cc:Work>
    </rdf:RDF>
  </metadata>
  <defs
     id="defs367" />
  <path
     id="path373"
     d="m 97.250294,281.2255 c -1.404261,-3.06729 -2.044277,-6.58811 -3.41591,-18.79122 -2.343179,-20.84679 -2.716012,-28.86512 -1.738854,-37.39597 1.612794,-14.08 4.69397,-25.04903 11.13788,-39.65102 3.89641,-8.82932 4.68661,-13.62708 3.38263,-20.53794 -0.96048,-5.09027 -3.5315,-9.25299 -7.090744,-11.48048 l -2.2171,-1.38753 -6.421639,6.74691 c -8.002325,8.40764 -14.278281,16.61069 -16.48867,21.55162 -0.931855,2.08299 -2.634478,7.35072 -3.783615,11.70606 -1.990585,7.54448 -2.108872,8.76661 -2.502427,25.85415 -0.451277,19.5938 -0.724603,20.89488 -4.707659,22.40923 -5.524299,2.10034 -6.993933,-1.67232 -7.037046,-18.06455 -0.062,-23.57338 2.608542,-38.26087 9.427376,-51.8491 2.055729,-4.09654 4.440865,-6.80337 16.685875,-18.93627 13.481966,-13.35853 19.633449,-20.60797 21.376069,-25.19141 1.36307,-3.58514 0.93489,-10.56596 -0.9883,-16.11289 -2.11071,-6.08778 -2.22664,-10.346405 -0.39169,-14.389805 1.16636,-2.57012 1.56384,-2.91155 2.91139,-2.50077 2.56775,0.78274 3.91479,2.39302 6.42262,7.677795 4.65929,9.8185 5.45982,16.63602 3.05674,26.03198 -1.55887,6.09511 -3.93587,11.39613 -6.50796,14.5136 l -1.74848,2.1192 3.63521,4.56181 c 4.3317,5.43586 7.75101,12.05067 8.83008,17.08219 1.3271,6.18803 0.41392,11.29815 -3.58002,20.03373 -4.42665,9.68198 -8.88477,21.15162 -11.30302,29.07983 -1.52108,4.98685 -1.84166,7.35353 -1.83048,13.51361 0.0158,8.71762 0.24167,10.64382 2.86312,24.41942 2.5657,13.48264 3.00121,18.99984 2.04884,25.95553 -0.43055,3.14457 -0.83497,5.7534 -0.89872,5.7974 -0.0638,0.044 -1.75425,0.28912 -3.75669,0.54471 l -3.640777,0.4647 z m 80.967396,-24.45794 c -37.09497,-0.32228 -47.64646,-0.60679 -49.40643,-1.33217 -2.19332,-0.90399 -2.23793,-1.0096 -2.23793,-5.29849 v -4.37612 l 2.58222,-0.84122 c 1.74765,-0.56934 10.06401,-0.92923 25.73144,-1.11353 l 23.14923,-0.27229 0.33729,-20.43733 c 0.18551,-11.24053 0.28459,-20.50819 0.22016,-20.59481 -0.0645,-0.0866 -10.32349,-0.40353 -22.79792,-0.70423 -26.06161,-0.62823 -26.69221,-0.75301 -26.99201,-5.34075 -0.0988,-1.51207 0.0686,-3.12714 0.37201,-3.58905 1.27772,-1.94511 10.28224,-2.94732 26.53559,-2.95341 8.7806,-0.004 17.59153,-0.20139 19.57984,-0.44021 l 3.6151,-0.43423 v -18.49605 -18.49605 l -9.12384,-0.0499 c -17.9983,-0.0984 -34.50563,-1.02987 -36.66122,-2.06875 -2.41112,-1.16205 -4.07216,-4.18179 -3.42383,-6.22448 0.25842,-0.81421 1.84093,-2.068 3.65799,-2.89814 2.73307,-1.24864 4.51474,-1.46565 12.15422,-1.48041 4.92342,-0.009 12.37907,0.25813 16.5681,0.59476 4.18903,0.33664 9.34456,0.39614 11.45675,0.13225 l 3.84033,-0.47982 0.44465,-11.8383 c 0.24455,-6.51106 0.6138,-13.278 0.82054,-15.03764 l 0.37589,-3.19936 -4.70278,-0.70197 c -2.58653,-0.3861 -7.402,-1.0225 -10.70104,-1.41424 -7.5986,-0.90229 -12.72471,-3.28793 -15.54541,-7.23471 -5.1034,-7.140755 -8.33057,-16.609203 -10.17715,-29.859495 -2.05422,-14.740337 -1.29319,-36.212072 1.43658,-40.531311 1.06302,-1.68199 4.68961,-3.356407 6.09857,-2.815741 1.13088,0.433961 3.48222,7.27408 4.52571,13.165444 0.95065,5.367216 0.92206,11.919812 -0.0971,22.265629 -1.00307,10.182044 -0.2277,16.213083 2.91256,22.654338 3.57645,7.336033 4.44579,7.909151 15.3513,10.120541 5.23833,1.06222 9.62936,1.82617 9.75787,1.69767 0.12849,-0.1285 0.37432,-16.810203 0.54628,-37.070457 0.32725,-38.556653 0.30393,-38.265199 3.43128,-42.870958 l 1.29188,-1.902585 2.0229,1.440428 c 4.17152,2.970378 4.06789,1.882464 4.06789,42.701139 v 37.306143 l 2.58222,-0.3976 c 1.42021,-0.21868 5.37101,-0.76716 8.77954,-1.21885 8.20367,-1.08714 10.49628,-3.249358 14.22857,-13.419309 1.38657,-3.778223 1.52537,-5.748314 1.89683,-26.922919 0.38246,-21.801713 0.46691,-22.935237 1.84681,-24.789291 1.08371,-1.456096 2.12176,-1.993982 4.143,-2.146784 l 2.69699,-0.203889 1.16558,4.679732 c 2.10675,8.458394 2.59876,12.728673 2.59876,22.555494 0,14.239347 -1.69543,26.050189 -5.32065,37.065325 -1.49358,4.538191 -2.28488,5.830031 -5.14783,8.404066 -4.95454,4.45456 -9.35522,6.29546 -18.10806,7.57502 -4.16599,0.60901 -8.42665,1.27117 -9.46814,1.47147 l -1.89362,0.36417 v 14.33204 c 0,12.43372 0.14426,14.38739 1.08921,14.75001 0.59905,0.22988 7.6485,0.43156 15.66545,0.44818 17.96478,0.0373 21.25253,0.92351 23.10143,6.22729 0.65607,1.88199 0.53465,2.0844 -2.19386,3.6573 -5.05841,2.91601 -9.67964,3.43108 -19.46396,2.16938 -8.21916,-1.05987 -14.12828,-0.92792 -16.21647,0.36211 -0.74235,0.4586 -1.07798,4.57228 -1.54177,18.8976 -0.32607,10.07127 -0.46605,18.43819 -0.3111,18.59315 0.15496,0.15496 8.78813,0.46188 19.18482,0.68203 20.97511,0.44417 26.74647,1.28492 28.63806,4.17186 1.66913,2.5474 0.94917,4.59077 -2.16049,6.13185 -2.40603,1.19239 -4.14768,1.36253 -13.77182,1.34539 -6.05961,-0.0108 -15.12895,-0.1378 -20.15409,-0.28223 -6.56895,-0.18879 -9.37236,-0.0268 -9.97545,0.57625 -0.59077,0.59077 -1.0188,6.74618 -1.4474,20.81445 -0.3347,10.98658 -0.47438,20.10978 -0.31041,20.27375 0.16398,0.16398 10.03957,0.48291 21.94577,0.70875 11.90619,0.22582 23.31993,0.7285 25.36385,1.11707 4.38965,0.83452 6.95694,3.02563 6.95694,5.93758 0,3.79062 -4.88121,6.27572 -12.94722,6.59161 -2.91525,0.11419 -26.52627,0.0232 -52.46896,-0.20222 z M 64.404275,106.83871 c -0.197271,-0.32033 -0.574436,-2.02416 -0.838149,-3.78626 l -0.479488,-3.203845 5.126819,-3.45954 c 2.819747,-1.90275 9.280138,-5.845369 14.356412,-8.761389 11.676214,-6.707272 14.103316,-8.387207 17.603211,-12.184128 3.08809,-3.350186 4.21457,-5.166018 5.08274,-8.193153 C 106.16496,64.080402 101.34168,54.609703 95.148059,47.40338 84.196627,34.661338 80.841471,28.762077 81.264546,22.992433 l 0.206049,-2.810069 2.890427,0.05676 c 5.383309,0.105724 6.842467,1.548468 22.665558,22.410595 2.31531,3.052642 5.53644,8.130982 7.15806,11.2852 2.47891,4.821717 2.99814,6.538386 3.26063,10.780482 0.47967,7.75207 -1.22529,11.54875 -8.08332,18.0003 -10.800569,10.160394 -24.249498,19.175329 -32.798674,21.985219 -6.192308,2.03526 -11.633063,2.99184 -12.159001,2.13779 z"
     style="fill:#000000;stroke-width:0.68859148" />
</svg>
