<?xml version="1.0" encoding="UTF-8" standalone="no"?>
<svg
   xmlns:dc="http://purl.org/dc/elements/1.1/"
   xmlns:cc="http://creativecommons.org/ns#"
   xmlns:rdf="http://www.w3.org/1999/02/22-rdf-syntax-ns#"
   xmlns:svg="http://www.w3.org/2000/svg"
   xmlns="http://www.w3.org/2000/svg"
   xmlns:sodipodi="http://sodipodi.sourceforge.net/DTD/sodipodi-0.dtd"
   xmlns:inkscape="http://www.inkscape.org/namespaces/inkscape"
   viewBox="0 0 300 300"
   height="300"
   width="300"
   id="svg114"
   version="1.1"
   inkscape:version="0.91 r13725"
   sodipodi:docname="徙-seal.svg">
  <sodipodi:namedview
     pagecolor="#ffffff"
     bordercolor="#666666"
     borderopacity="1"
     objecttolerance="10"
     gridtolerance="10"
     guidetolerance="10"
     inkscape:pageopacity="0"
     inkscape:pageshadow="2"
     inkscape:window-width="1920"
     inkscape:window-height="1057"
     id="namedview3340"
     showgrid="false"
     inkscape:zoom="2.0930361"
     inkscape:cx="148.46069"
     inkscape:cy="166.6525"
     inkscape:window-x="-8"
     inkscape:window-y="-8"
     inkscape:window-maximized="1"
     inkscape:current-layer="svg114" />
  <metadata
     id="metadata120">
    <rdf:RDF>
      <cc:Work
         rdf:about="">
        <dc:format>image/svg+xml</dc:format>
        <dc:type
           rdf:resource="http://purl.org/dc/dcmitype/StillImage" />
        <dc:title></dc:title>
      </cc:Work>
    </rdf:RDF>
  </metadata>
  <defs
     id="defs118" />
  <path
     id="path124"
     d="m 131.08079,283.75919 c -0.62819,-0.43085 -3.1562,-3.06195 -5.61778,-5.84688 -8.02071,-9.07431 -18.4008,-16.52072 -28.682265,-20.57594 -10.318733,-4.06992 -10.437134,-4.08523 -32.231789,-4.16838 -8.426894,-0.27142 -14.995979,-0.32012 -24.842352,-1.9161 -9.530609,-2.35511 -14.210322,-8.31624 -15.84421,-18.07467 -0.634407,-2.20697 -1.743686,-32.46577 -1.758098,-47.95716 -0.0079,-8.0787 0.174717,-9.95669 1.372664,-14.14564 0.668303,-4.70739 4.826393,-7.00275 6.426613,-3.31703 1.973354,4.6323 2.239692,7.70085 2.683582,30.91828 0.575532,30.10261 1.407711,36.34098 5.262394,39.44909 1.583822,1.27707 3.453573,1.65812 12.707738,2.58976 5.000714,0.54968 9.933307,0.37647 15.070084,0.60771 0.251342,-21.44113 0.338086,-65.62368 -0.01076,-87.91386 -3.591051,-2.74868 -32.351341,3.92133 -50.662038,11.7494 -4.504746,1.92584 -8.7947572,3.50154 -9.5333517,3.50154 -1.6828428,0 -3.1209339,-2.40153 -3.1209339,-5.2118 0,-1.7495 0.4706973,-2.55302 2.5549576,-4.36157 6.257536,-5.42976 15.250407,-8.77878 34.511112,-12.85219 25.40206,-5.37224 24.644549,-5.27591 45.456256,-5.78021 17.912166,-0.43404 19.616186,-0.58059 21.986916,-1.89094 3.71889,-2.05551 4.21198,-3.04863 4.0016,-8.05944 -0.39613,-9.43521 -0.25575,-14.03793 0.49362,-16.1838 0.95597,-2.73751 2.22975,-2.86437 4.59679,-0.4578 2.71732,2.76268 3.66451,7.71634 3.34124,17.47412 -0.52746,11.36475 -1.83801,14.65636 -11.00027,18.1132 -10.522226,1.75461 -21.094056,2.63185 -31.700688,2.64992 -0.178345,14.34228 0.490609,43.4244 0.67973,57.69874 2.984747,0.3362 12.631812,0.49441 17.880657,-0.66044 9.395851,-2.06729 10.023561,-2.42064 11.883471,-6.68947 1.52996,-3.51151 1.62424,-4.17637 1.36663,-9.63698 -0.1522,-3.22591 -0.71255,-9.12567 -1.24524,-13.1106 -1.23682,-9.25234 -0.95335,-16.76508 0.70834,-18.77284 2.8337,-2.6302 5.4081,0.34643 6.32293,2.73963 1.98058,5.24323 2.9888,11.01281 3.34441,19.13835 0.53433,12.20981 -0.16619,23.86784 -3.73593,29.79707 -2.5378,4.21522 -9.06399,5.92375 -12.99624,7.13892 -3.521691,1.08828 -6.317963,1.36074 -13.965554,1.36074 l -9.562199,0 c -0.326466,6.87979 -0.380435,13.49298 -0.17986,20.46925 24.556063,2.23166 41.469773,7.15229 57.184063,29.99332 2.06774,3.1607 3.41032,6.94546 3.4181,9.63571 0.008,2.79624 -3.962,4.34408 -6.56434,2.55927 z M 13.712427,118.64604 c 2.313052,-3.36752 13.527352,-9.74637 21.945474,-12.48289 8.765955,-2.84959 31.126584,-7.602901 56.516486,-12.013981 14.692593,-2.552613 15.558053,-2.784547 16.776713,-4.495983 1.68029,-2.359713 1.65565,-5.714818 -0.0724,-9.858372 -2.13504,-5.119475 -2.27489,-6.962458 -0.79673,-10.500039 1.13549,-2.717528 1.50912,-3.08634 2.99302,-2.954542 3.17613,0.282101 6.54931,4.65779 7.81033,10.131584 0.99742,4.329519 0.86661,14.764901 -0.22306,17.795942 -0.95623,2.65983 -2.774,4.13317 -8.99729,7.292451 -5.3297,2.70566 -9.01587,3.53033 -22.298153,4.98854 -15.082772,1.65589 -11.757282,1.00327 -31.955271,6.27114 -16.338754,4.26134 -20.785554,5.81718 -27.871186,9.75155 -3.042731,1.68951 -4.832842,2.19029 -8.759765,2.45051 -4.889618,1.0396 -6.998511,-0.67754 -5.068158,-6.37591 z m -1.70363,-39.726871 c 0,-3.158883 0.14867,-3.51311 2.141582,-5.102656 5.578643,-2.503615 11.8515,-4.741284 17.275433,-6.606401 17.482518,-6.022456 34.004095,-9.426379 51.683531,-10.648299 19.429467,-1.342873 22.870007,-3.121857 22.749817,-11.763145 -0.68615,-7.23271 -3.20632,-14.885327 -2.92532,-21.002683 0.30495,-6.209226 1.5706,-9.761501 3.28494,-9.21982 1.8712,0.591246 4.9336,5.262014 6.26134,9.549827 2.40791,7.776125 3.54558,22.201364 2.29437,29.091594 -0.68824,3.789993 -2.85881,6.175453 -8.93195,9.81622 -6.454289,3.869262 -7.682852,4.098976 -33.58388,6.279446 -15.523011,2.086443 -26.01351,4.795394 -41.689476,10.461365 -4.964276,1.177009 -18.545776,7.007057 -18.560387,-0.855448 z"
     style="fill:#000000;stroke-width:0.69003123"
     inkscape:connector-curvature="0" />
  <path
     inkscape:connector-curvature="0"
     id="path416"
     d="m 277.724,274.96939 c -12.1982,-5.26466 -17.01133,-6.76301 -35.28971,-10.98591 -17.28463,-3.99331 -19.54308,-5.26838 -42.51164,-6.63067 -24.85145,-1.47396 -39.29291,-3.72571 -51.89464,-17.08465 -6.96894,-7.38771 -9.66453,-17.11077 -10.94164,-24.82835 -1.16568,-7.04425 -3.0999,-50.11562 -3.44161,-75.21425 0,0 -0.0906,-53.246743 1.10798,-59.905734 0.81084,-4.504871 1.77625,-7.087393 4.58194,-7.055355 5.9743,0.06822 6.57123,6.343715 6.30019,29.649239 0,0 -0.19064,82.96552 2.46476,105.90692 1.17215,10.1267 3.06174,18.96413 9.58712,25.06829 9.06784,8.48252 25.77445,11.1527 40.45687,11.16276 l 0.86744,-156.340902 c 0.20216,-36.43513 -0.99448,-56.823126 6.89061,-52.650834 2.73297,1.446117 4.42224,7.229544 4.17233,28.166608 -0.11904,9.972922 -0.15917,41.303538 -0.0892,69.623598 l 0.12726,51.49094 c 0,0 24.0296,-0.42289 33.32902,-4.19679 3.87915,-1.60841 5.05011,-2.48902 6.91773,-5.20239 5.00608,-7.27314 5.46047,-12.69552 5.46506,-65.21736 0.003,-26.480103 0.0918,-42.602243 0.67836,-44.196142 2.39471,-6.506865 7.54032,-4.960324 9.1777,-1.065677 1.37763,3.276789 1.57586,5.065816 1.95647,17.244712 0.85715,28.070347 1.57627,57.681787 -1.43127,86.946817 -0.76335,7.42785 -4.7125,14.0721 -9.09694,17.76225 -7.66832,6.35854 -19.66865,9.54458 -35.98342,9.55341 l -10.75032,-0.10978 -0.3472,49.15515 c 15.28904,2.42613 48.14698,8.23519 74.03982,17.17539 9.02168,3.22521 12.54237,6.1784 12.27276,9.86242 -0.46224,6.31617 -15.72156,3.13669 -18.61585,1.91618 z"
     style="fill:#000000;stroke-width:0.77951938" />
</svg>
