<?xml version="1.0" encoding="UTF-8" standalone="no"?>
<!-- Created with Inkscape (http://www.inkscape.org/) -->

<svg
   xmlns:dc="http://purl.org/dc/elements/1.1/"
   xmlns:cc="http://creativecommons.org/ns#"
   xmlns:rdf="http://www.w3.org/1999/02/22-rdf-syntax-ns#"
   xmlns:svg="http://www.w3.org/2000/svg"
   xmlns="http://www.w3.org/2000/svg"
   xmlns:sodipodi="http://sodipodi.sourceforge.net/DTD/sodipodi-0.dtd"
   xmlns:inkscape="http://www.inkscape.org/namespaces/inkscape"
   width="300"
   height="300"
   id="svg2"
   version="1.1"
   inkscape:version="0.48.4 r9939"
   sodipodi:docname="image-seal.svg">
  <defs
     id="defs4" />
  <sodipodi:namedview
     id="base"
     pagecolor="#ffffff"
     bordercolor="#666666"
     borderopacity="1.0"
     inkscape:pageopacity="0.0"
     inkscape:pageshadow="2"
     inkscape:zoom="1.979899"
     inkscape:cx="130.93154"
     inkscape:cy="137.35134"
     inkscape:document-units="px"
     inkscape:current-layer="layer1"
     showgrid="false"
     inkscape:window-width="1215"
     inkscape:window-height="1000"
     inkscape:window-x="65"
     inkscape:window-y="24"
     inkscape:window-maximized="1"
     fit-margin-top="10"
     fit-margin-left="10"
     fit-margin-right="10"
     fit-margin-bottom="10" />
  <metadata
     id="metadata7">
    <rdf:RDF>
      <cc:Work
         rdf:about="">
        <dc:format>image/svg+xml</dc:format>
        <dc:type
           rdf:resource="http://purl.org/dc/dcmitype/StillImage" />
        <dc:title />
      </cc:Work>
    </rdf:RDF>
  </metadata>
  <g
     inkscape:label="Calque 1"
     inkscape:groupmode="layer"
     id="layer1"
     transform="translate(0,-752.36218)">
    <path
       style="fill:#000000"
       d="m 97.62523,1040.5884 c -1.04898,-2.5699 -1.67566,-28.7828 -1.39263,-58.25051 l 0.51456,-53.57799 -6.05191,-3.23889 C 79.68984,919.63109 74.58786,907.7729 72.9217,884.21098 c -2.24386,-31.7311 0.29629,-60.37256 5.61846,-63.35101 2.33696,-1.30781 7.4307,-5.70721 11.31947,-9.77643 6.4991,-6.80067 7.07048,-8.83885 7.07048,-25.22056 0,-14.12373 0.74498,-17.822 3.59013,-17.822 1.97456,0 4.09014,2.4545 4.70131,5.45446 4.66681,22.90762 4.52424,21.29417 2.83828,32.12072 -0.62287,3.99994 -3.61795,8.90895 -6.65573,10.90892 -3.03777,1.99997 -8.61548,6.85628 -12.39488,10.79184 -6.75066,7.02949 -6.86431,7.61918 -6.45268,33.48082 0.55061,34.59382 4.41821,50.06808 12.55542,50.23423 0.99998,0.0194 1.81815,-17.96261 1.81815,-39.96227 0,-24.80769 0.92072,-40.13749 2.42421,-40.36302 1.33331,-0.19999 3.7828,-0.47272 5.44328,-0.60605 2.35815,-0.18933 2.84442,13.89533 2.22118,64.33652 -0.76796,62.1535 0.20824,72.21637 6.2562,64.4834 5.77671,-7.38655 7.89719,-28.37964 7.89719,-78.18402 l 0,-52.42763 5.45446,0.77466 c 5.36835,0.76243 5.44619,1.2721 4.93115,32.28932 -0.28781,17.33307 0.0739,34.24059 0.80362,37.57225 1.28437,5.86335 1.43717,5.90679 4.76565,1.35481 2.48762,-3.402 3.43876,-12.26514 3.43876,-32.04404 0,-23.33693 -0.75124,-28.68351 -5.1294,-36.50579 -2.82117,-5.04048 -5.93053,-9.70996 -6.90971,-10.37662 -4.90572,-3.34002 -7.35453,-13.62597 -7.35453,-30.89196 0,-21.54163 3.83698,-30.73395 10.5152,-25.19152 2.85722,2.37129 3.21339,4.5833 1.47443,9.15707 -1.26105,3.3168 -2.23929,11.68671 -2.17388,18.59982 0.10642,11.25148 1.09867,13.56595 9.46397,22.07585 8.26313,8.40598 9.65266,11.57488 12.0021,27.37134 5.83676,39.24354 2.30649,59.22925 -13.43335,76.04953 -4.12325,4.40628 -6.26766,10.15436 -7.23509,19.39364 -1.82477,17.42747 -6.40339,27.04017 -16.01665,33.62649 l -7.92986,5.43289 0,29.97796 c 0,25.0729 -0.67958,30.6578 -4.1533,34.1324 -3.92195,3.9228 -4.2595,3.894 -6.06051,-0.5186 z m 123.21142,-4.0666 c -5.77819,-15.5093 -12.32233,-35.2387 -13.46864,-40.60545 -5.18955,-24.29684 -9.47794,-38.78729 -11.47888,-38.78729 -1.29142,0 -10.59324,2.76772 -20.67071,6.1507 -10.07747,3.38273 -23.19928,6.81904 -29.15961,7.636 -9.71813,1.3321 -10.74589,1.01283 -9.95529,-3.09256 0.48492,-2.51802 3.05092,-4.91944 5.70222,-5.33689 2.65133,-0.41745 7.00237,-1.64555 9.66899,-2.72917 2.66663,-1.08362 13.03011,-4.63653 23.02995,-7.89563 20.35302,-6.63333 22.38744,-9.83052 16.87785,-26.52466 -3.30055,-10.0008 -6.96491,-11.75907 -24.61344,-11.81047 -11.90362,-0.0347 -16.1085,-2.6264 -11.02531,-6.7957 3.45299,-2.83217 9.94715,-3.58057 27.78942,-3.20254 11.4526,0.24266 13.01883,0.9529 16.36338,7.42056 2.0342,3.93374 3.69857,10.47909 3.69857,14.54523 0,4.06615 0.91579,7.39301 2.03507,7.39301 6.46227,0 13.11742,-38.27413 7.77455,-44.7119 -3.96467,-4.77712 -19.15835,-6.77187 -29.18547,-3.8317 -10.00458,2.93353 -24.25985,0.82767 -24.25985,-3.5838 0,-4.01439 6.77481,-5.61429 31.9765,-7.55145 20.3905,-1.56734 20.6115,-1.52317 28.74618,5.74517 7.77821,6.94984 8.1681,8.07496 7.6187,21.98648 -0.64249,16.26853 -5.07968,29.00901 -14.40516,41.36138 -5.52317,7.31581 -5.89029,9.037 -3.39796,15.9295 1.53685,4.25012 2.79426,10.04009 2.79426,12.86671 0,2.82638 1.09089,5.81349 2.4242,6.63748 1.33332,0.82398 2.42421,3.43534 2.42421,5.80306 0,3.82055 4.34466,19.13013 12.31763,43.40443 4.02074,12.2415 -5.20676,21.4288 -9.62136,9.5795 z M 190.49903,868.07443 c -0.79703,-0.79701 -1.44912,-12.72165 -1.44912,-26.49924 0,-13.77755 -0.69022,-25.05011 -1.53381,-25.05011 -5.49386,0 -12.93712,15.32127 -15.88551,32.69894 -0.44983,2.65131 -2.87799,5.21731 -5.39589,5.70222 -4.13996,0.79727 -4.4266,-0.22279 -2.99588,-10.66098 2.18278,-15.92511 12.57678,-37.03368 19.87245,-40.35783 5.38445,-2.45332 5.93864,-4.12663 5.93864,-17.93097 0,-15.89433 2.56375,-20.42526 8.68343,-15.34636 2.6757,2.22062 3.22221,5.67659 2.09081,13.2213 -1.47552,9.83951 -1.1691,10.47148 8.34045,17.20187 5.42974,3.8429 9.9198,8.62343 9.97791,10.6234 0.0582,1.99997 2.23895,6.36354 4.84628,9.69682 2.60733,3.33328 4.76485,7.7514 4.79449,9.81803 0.0296,2.06664 1.23009,4.9337 2.66765,6.37125 1.43753,1.43753 2.2557,5.74658 1.81815,9.57561 -0.58059,5.08055 -2.10578,6.96188 -5.64398,6.96188 -3.81083,0 -5.886,-3.23226 -9.69683,-15.10372 -4.52058,-14.0825 -12.25823,-26.77864 -14.78205,-24.2548 -0.60598,0.60595 -1.5217,11.34586 -2.03495,23.86645 -0.51325,12.52058 -1.03026,24.0116 -1.14888,25.53558 -0.25107,3.22594 -6.34014,6.0539 -8.46336,3.93066 z"
       id="path3069"
       inkscape:connector-curvature="0" />
  </g>
</svg>
