<?xml version="1.0" encoding="UTF-8" standalone="no"?>
<svg
   xmlns:dc="http://purl.org/dc/elements/1.1/"
   xmlns:cc="http://creativecommons.org/ns#"
   xmlns:rdf="http://www.w3.org/1999/02/22-rdf-syntax-ns#"
   xmlns:svg="http://www.w3.org/2000/svg"
   xmlns="http://www.w3.org/2000/svg"
   version="1.1"
   id="svg82"
   width="300"
   height="300"
   viewBox="0 0 300 300">
  <metadata
     id="metadata88">
    <rdf:RDF>
      <cc:Work
         rdf:about="">
        <dc:format>image/svg+xml</dc:format>
        <dc:type
           rdf:resource="http://purl.org/dc/dcmitype/StillImage" />
        <dc:title></dc:title>
      </cc:Work>
    </rdf:RDF>
  </metadata>
  <defs
     id="defs86" />
  <path
     style="fill:#000000;stroke-width:0.68796879"
     d="m 163.9138,284.00762 c -27.68745,-17.63273 -38.46565,-44.72975 -42.66491,-70.40376 -27.521152,-1.57214 -49.722827,-11.6646 -49.939075,-40.02394 -0.127136,-16.67308 7.058401,-29.25709 20.711249,-36.00982 12.357046,-6.00247 14.466946,-7.00383 15.851526,-19.80582 0.49137,-4.54335 2.50851,-7.30335 5.33761,-7.30335 2.94321,0 6.28578,5.00116 5.98563,9.82087 -0.84842,13.62349 -8.94542,22.13793 -19.665655,26.33785 -12.362824,4.84345 -17.270943,11.51193 -16.903338,24.61127 0.705775,25.14977 17.486203,29.54721 37.314103,31.5632 -0.40306,-11.55683 -1.20624,-23.21774 -1.06317,-34.69419 0.0477,-3.82766 -0.83667,-14.64665 4.87982,-14.00538 4.27314,0.47937 6.01514,3.02934 6.10175,7.62005 0.46938,24.87832 -0.20828,55.26924 9.40379,76.1935 12.26031,-19.8236 15.69115,-44.3786 16.33594,-62.70413 0.22391,-6.63014 -1.25553,-14.89858 2.42163,-17.75268 4.39966,-3.41489 7.62427,0.44889 7.78064,3.23135 0.80947,14.40344 0.42801,26.92785 -1.91375,41.9661 20.49131,-1.34789 37.51667,-7.72507 38.23414,-28.07319 0.50816,-14.41206 -7.85411,-19.69822 -17.91285,-26.31194 -14.62195,-9.59345 -16.34233,-10.85536 -18.54989,-15.14965 -3.99721,-7.77566 -2.82544,-22.47945 4.13592,-22.33023 3.81916,0.0818 4.07143,4.40371 5.07032,10.23318 1.56089,9.10931 2.81506,9.14985 15.9759,17.65073 17.04997,11.01295 23.0872,21.85186 22.82272,34.6512 -0.67103,32.47393 -28.79086,39.91178 -52.68481,41.36935 -4.22618,14.99375 -7.88634,24.09163 -16.22457,35.02633 6.69281,11.56995 13.60759,17.55334 22.19498,24.82872 5.56406,4.71396 3.13025,13.39112 -3.03565,9.46438 z M 143.88657,148.5314 c -2.60825,-0.69712 -4.71584,-9.62679 -4.72948,-20.03841 -0.012,-9.1775 1.00886,-18.08924 1.79386,-28.820724 0.93423,-12.771643 20.4683,-12.555417 33.28238,-13.040737 15.43697,-0.516121 18.16927,-0.013 19.68948,3.62534 1.39805,3.345985 0.65514,4.961477 -3.07445,6.685527 -3.02388,1.39781 -4.05899,1.05016 -18.83311,1.28019 -21.97775,0.3422 -20.44586,8.631334 -20.73019,26.341704 -0.30972,19.94401 -0.72963,22.66697 -3.66774,23.78404 -1.74606,0.66385 -1.90308,0.67155 -3.73075,0.18307 z M 69.146105,99.676186 c -3.105138,-1.84322 -4.103587,-6.189399 -1.547927,-8.870104 L 97.745794,59.18338 C 130.76048,24.553333 135.83525,19.538268 140.81732,16.618582 c 3.20246,-1.876769 3.49995,-1.92493 7.0218,-1.136772 4.854,1.086277 10.1016,4.685053 18.85586,12.931253 l 29.20937,26.565989 c 32.73509,29.772641 35.4876,32.045355 36.91255,35.266686 2.94929,6.667368 -0.64612,9.581868 -7.4151,6.010788 -4.03985,-2.13128 -63.16498,-57.135013 -63.16498,-57.135013 -4.97167,-4.017044 -12.36637,-11.156715 -15.56303,-11.201739 -1.17773,-0.01658 -62.492594,63.377133 -62.492594,63.377133 -3.968549,3.874129 -9.893619,11.085083 -15.035091,8.379279 z M 140.63301,75.813007 c -8.79608,-0.0048 -26.37666,-0.782482 -26.37666,-0.782482 -3.70686,-0.109966 -3.63853,-6.703109 0.97947,-8.685213 2.75233,-1.181333 3.63437,-1.39481 32.42168,-1.130509 31.67955,0.290856 33.26431,0.45923 34.73662,3.690618 1.4436,3.168318 0.99045,4.390718 -2.14106,5.775707 -4.18476,1.850819 -26.40798,1.139123 -39.62005,1.131879 z"
     id="path92" />
</svg>
