<?xml version="1.0" encoding="UTF-8" standalone="no"?>
<!-- Created with Inkscape (http://www.inkscape.org/) -->

<svg
   xmlns:dc="http://purl.org/dc/elements/1.1/"
   xmlns:cc="http://creativecommons.org/ns#"
   xmlns:rdf="http://www.w3.org/1999/02/22-rdf-syntax-ns#"
   xmlns:svg="http://www.w3.org/2000/svg"
   xmlns="http://www.w3.org/2000/svg"
   xmlns:sodipodi="http://sodipodi.sourceforge.net/DTD/sodipodi-0.dtd"
   xmlns:inkscape="http://www.inkscape.org/namespaces/inkscape"
   width="300"
   height="300"
   id="svg2"
   version="1.1"
   inkscape:version="0.48.4 r9939"
   sodipodi:docname="image-seal.svg">
  <defs
     id="defs4" />
  <sodipodi:namedview
     id="base"
     pagecolor="#ffffff"
     bordercolor="#666666"
     borderopacity="1.0"
     inkscape:pageopacity="0.0"
     inkscape:pageshadow="2"
     inkscape:zoom="1.979899"
     inkscape:cx="200.43343"
     inkscape:cy="134.48103"
     inkscape:document-units="px"
     inkscape:current-layer="layer1"
     showgrid="false"
     inkscape:window-width="1215"
     inkscape:window-height="1000"
     inkscape:window-x="65"
     inkscape:window-y="24"
     inkscape:window-maximized="1" />
  <metadata
     id="metadata7">
    <rdf:RDF>
      <cc:Work
         rdf:about="">
        <dc:format>image/svg+xml</dc:format>
        <dc:type
           rdf:resource="http://purl.org/dc/dcmitype/StillImage" />
        <dc:title />
      </cc:Work>
    </rdf:RDF>
  </metadata>
  <g
     inkscape:label="Calque 1"
     inkscape:groupmode="layer"
     id="layer1"
     transform="translate(0,-752.36218)">
    <path
       style="fill:#000000"
       d="m 214.39442,1039.7819 c -0.8476,-1.3714 -2.13376,-8.5557 -2.85812,-15.965 -1.8876,-19.3074 -8.29968,-39.45545 -15.1461,-47.59197 -3.25014,-3.86255 -10.88259,-9.60769 -16.96101,-12.7669 -6.0784,-3.15924 -12.86223,-7.12099 -15.07517,-8.80392 -6.89655,-5.24478 -13.2154,-16.87787 -11.53965,-21.24474 0.88116,-2.29632 0.3691,-5.66079 -1.13794,-7.47666 -2.59359,-3.12508 -1.87588,-132.48544 0.80718,-145.48347 0.60926,-2.95153 3.10903,-5.1088 5.91986,-5.1088 4.43744,0 4.92906,2.41482 5.59031,27.45983 0.81843,30.99785 2.20411,32.65122 17.55329,20.94383 l 8.54292,-6.51601 0,-27.96843 c 0,-25.65752 0.39626,-27.96844 4.79602,-27.96844 8.02351,0 9.76794,5.33421 10.29852,31.49124 l 0.50921,25.10521 9.34138,8.10203 c 16.02387,13.89792 18.81841,17.22967 17.99817,21.458 -1.43243,7.38394 -6.21101,6.15116 -21.91474,-5.65355 l -15.47615,-11.63362 -15.54822,9.11255 -15.54821,9.11258 0,17.39162 0,17.39166 17.24222,1.53636 c 9.48322,0.845 24.42647,0.93305 33.20723,0.19567 14.60953,-1.22688 15.96502,-0.91562 15.96502,3.66598 0,7.13894 -4.46786,8.10765 -37.39429,8.10765 l -29.3132,0 0.6312,14.68782 c 0.34717,8.07829 2.04679,17.56152 3.77694,21.07383 3.4362,6.97571 12.34422,15.3264 16.3493,15.3264 1.38885,0 2.52521,1.07595 2.52521,2.39095 0,1.31504 4.62412,4.9899 10.27587,8.16635 11.86237,6.66702 21.93131,24.57826 24.22067,43.08515 4.16329,33.6554 4.22485,36.4871 0.84,38.6328 -4.47992,2.8398 -6.60406,2.7757 -8.47772,-0.2559 z m -131.938892,-4.531 c -0.19225,-1.0537 -0.0689,-21.4908 0.274,-45.41574 l 0.62354,-43.50001 -7.406231,-7.9284 C 71.862104,934.03404 65.8405,922.39333 62.519955,912.45049 57.51105,897.4521 56.77571,891.44857 58.144136,876.7249 c 1.901601,-20.46052 8.182678,-41.6989 14.278669,-48.28087 2.327881,-2.51346 6.870636,-10.03495 10.095013,-16.71441 5.41975,-11.22729 5.6155,-13.10822 2.59196,-24.90543 -1.79879,-7.01853 -4.202705,-12.76095 -5.342028,-12.76095 -1.139319,0 -2.071493,-3.44844 -2.071493,-7.66321 0,-9.15258 2.415781,-9.64218 9.453141,-1.91581 16.768612,18.41041 15.545002,42.30692 -3.44573,67.29419 -3.304076,4.34739 -6.007411,10.15227 -6.007411,12.89974 0,2.74748 -1.28456,6.27997 -2.854581,7.84999 -3.795074,3.79507 -3.236714,54.52173 0.695117,63.15116 3.211639,7.04877 6.808455,8.47267 8.452805,3.3463 0.83005,-2.58779 3.45461,-59.44414 3.83221,-83.01809 0.11393,-7.11255 7.19117,-7.70643 9.75338,-0.81846 1.00843,2.71094 1.25875,32.13784 0.5563,65.39312 -0.70247,33.25529 -0.55878,61.62124 0.3193,63.03544 5.349432,8.61561 9.898302,-26.91626 9.898302,-77.31701 0,-37.4692 0.6688,-45.75241 3.91145,-48.44355 7.96986,-6.6144 10.13778,2.94049 10.13778,44.68144 0,34.33367 0.4369,38.56586 3.39825,32.91759 6.55759,-12.50743 3.33187,-79.75188 -4.07826,-85.01638 -8.70498,-6.18443 -13.36922,-17.06142 -13.36922,-31.17692 0,-8.24008 0.93217,-14.98193 2.0715,-14.98193 1.13932,0 3.5601,-5.80823 5.3795,-12.9072 2.47502,-9.657 4.3655,-12.69625 7.50752,-12.06952 4.7388,0.94524 4.89413,7.77875 0.6748,29.68563 -2.76984,14.38106 0.14176,26.55563 9.87041,41.27035 10.52494,15.91931 13.8267,58.30058 6.43907,82.65119 -4.43993,14.63458 -12.63529,28.64845 -17.94527,30.68609 -2.07896,0.79777 -3.79723,3.49815 -3.81837,6.00086 -0.0754,8.92277 -7.18314,24.86949 -13.51061,30.31216 -5.489082,4.72151 -6.856812,9.02996 -9.333842,29.40219 -2.61219,21.4839 -5.06,27.6945 -10.96293,27.815 -1.05369,0.02 -2.0731,-0.823 -2.26534,-1.8767 z"
       id="path3147"
       inkscape:connector-curvature="0" />
  </g>
</svg>
