<?xml version="1.0" encoding="UTF-8" standalone="no"?>
<!-- Created with Inkscape (http://www.inkscape.org/) -->

<svg
   xmlns:dc="http://purl.org/dc/elements/1.1/"
   xmlns:cc="http://creativecommons.org/ns#"
   xmlns:rdf="http://www.w3.org/1999/02/22-rdf-syntax-ns#"
   xmlns:svg="http://www.w3.org/2000/svg"
   xmlns="http://www.w3.org/2000/svg"
   xmlns:sodipodi="http://sodipodi.sourceforge.net/DTD/sodipodi-0.dtd"
   xmlns:inkscape="http://www.inkscape.org/namespaces/inkscape"
   width="300"
   height="300"
   id="svg2"
   version="1.1"
   inkscape:version="0.48.4 r9939"
   sodipodi:docname="image-seal.svg">
  <defs
     id="defs4" />
  <sodipodi:namedview
     id="base"
     pagecolor="#ffffff"
     bordercolor="#666666"
     borderopacity="1.0"
     inkscape:pageopacity="0.0"
     inkscape:pageshadow="2"
     inkscape:zoom="1.979899"
     inkscape:cx="154.88845"
     inkscape:cy="133.61981"
     inkscape:document-units="px"
     inkscape:current-layer="layer1"
     showgrid="false"
     inkscape:window-width="1215"
     inkscape:window-height="1000"
     inkscape:window-x="65"
     inkscape:window-y="24"
     inkscape:window-maximized="1" />
  <metadata
     id="metadata7">
    <rdf:RDF>
      <cc:Work
         rdf:about="">
        <dc:format>image/svg+xml</dc:format>
        <dc:type
           rdf:resource="http://purl.org/dc/dcmitype/StillImage" />
        <dc:title />
      </cc:Work>
    </rdf:RDF>
  </metadata>
  <g
     inkscape:label="Calque 1"
     inkscape:groupmode="layer"
     id="layer1"
     transform="translate(0,-752.36218)">
    <path
       style="fill:#000000"
       d="m 76.765329,1030.8293 c -0.927799,-2.4178 -0.795578,-27.3709 0.293847,-55.45147 l 1.980741,-51.05543 -7.174782,-7.17478 C 61.33489,906.61737 56.413734,892.42671 56.413734,872.59195 c 0,-24.42294 4.918296,-45.02805 13.869574,-58.10612 4.180972,-6.10851 9.231742,-18.34972 11.223921,-27.20271 3.105125,-13.79858 4.446221,-15.97855 9.394672,-15.27129 3.174873,0.45378 5.647543,2.38688 5.494831,4.29578 -0.152713,1.90892 -0.46508,9.56019 -0.69415,17.00284 -0.353961,11.50063 -2.001315,15.26583 -10.973445,25.08122 -8.809836,9.63782 -11.107415,14.75908 -13.882985,30.94501 -3.989942,23.26746 -4.179557,33.55684 -0.775337,42.06908 1.402904,3.50789 3.456752,8.87692 4.564115,11.93117 2.340144,6.45448 9.145888,-38.46591 9.39084,-61.98286 0.1305,-12.54242 0.889761,-14.63736 5.012979,-13.83395 5.645044,1.09995 5.811224,8.23352 2.105772,90.39395 -2.255403,50.00873 -0.959315,59.23648 6.239846,44.42556 5.952113,-12.24544 7.169423,-23.58637 8.195903,-76.35643 l 1.0397,-53.44949 6.79739,0 6.79738,0 -1.761,36.09576 c -1.16697,23.91985 -0.80207,36.09577 1.08179,36.09577 4.1351,0 8.53298,-12.63102 11.82858,-33.97258 4.21707,-27.30868 1.75728,-37.22563 -13.54507,-54.60923 -10.49407,-11.92132 -5.93575,-50.20927 5.16106,-43.35104 2.47125,1.52733 3.09901,6.53355 2.06981,16.50573 -1.49961,14.52988 0.73927,21.76818 9.07914,29.3526 2.51887,2.2907 5.57558,6.66384 6.79267,9.71809 3.6226,9.09067 5.04094,61.71443 1.71869,63.7677 -1.61082,0.99554 -2.92876,4.23528 -2.92876,7.1994 0,2.96413 -1.24947,5.38933 -2.7766,5.38933 -1.52713,0 -2.7766,1.96344 -2.7766,4.36322 0,5.05796 -4.85238,10.42771 -11.80054,13.05872 -3.64503,1.38026 -4.85904,4.99288 -4.85904,14.45944 0,6.94074 -1.1037,14.78913 -2.45265,17.44089 -1.34896,2.65176 -4.12433,8.37941 -6.16746,12.72811 -2.04316,4.34874 -7.40049,11.51017 -11.905135,15.9143 -7.183584,7.02329 -8.136763,9.80557 -7.754675,22.63588 0.239621,8.0455 -0.270717,18.0643 -1.134128,22.2639 -1.708663,8.3113 -8.614837,10.2879 -11.319493,3.2396 z m 97.934051,-7.2129 c -9.00861,-1.1978 -19.31673,-4.1024 -22.90692,-6.4548 -6.09324,-3.9924 -6.55671,-6.1667 -6.96501,-32.6732 -0.24046,-15.61786 -0.31251,-30.27033 -0.15993,-32.56102 0.15271,-2.29069 0.52547,-13.85011 0.82845,-25.68761 0.30295,-11.83746 2.05954,-23.58593 3.9035,-26.10769 4.90764,-6.71162 10.63218,-1.90875 8.77755,7.36434 -2.1252,10.62607 3.48316,17.36359 13.49254,16.20905 10.26247,-1.18375 11.82972,-6.56873 12.19078,-41.88717 l 0.27683,-27.07182 -16.74673,0 c -12.53259,0 -17.16045,-1.07818 -18.39088,-4.28465 -2.36399,-6.16043 -0.62184,-7.00543 17.2432,-8.36349 8.81478,-0.67011 16.38092,-1.57242 16.81365,-2.00515 0.43273,-0.43273 1.40827,-11.36928 2.16784,-24.30347 2.128,-36.23626 4.64827,-49.89434 9.20674,-49.89434 9.77391,0 11.1557,6.06739 8.80142,38.64634 -1.25399,17.35293 -1.55064,32.73086 -0.65924,34.17317 0.8914,1.44229 9.29028,2.37207 18.66418,2.06612 22.50512,-0.73453 23.98643,-0.51498 23.97635,3.55324 -0.006,2.36174 -5.79992,3.65639 -18.13301,4.05169 -11.05723,0.35443 -19.62682,2.08337 -21.97749,4.43403 -2.72276,2.72276 -3.99157,12.32651 -4.32533,32.73819 -0.67024,40.99179 -1.1868,38.60325 8.34868,38.60325 8.02128,0 8.32979,-0.46277 8.32979,-12.49469 0,-12.69507 2.02792,-14.57674 10.70487,-9.93297 4.21284,2.25466 4.74906,7.33011 4.47343,42.34311 -0.41371,52.55449 -3.00109,70.93534 -10.659,75.72244 -7.8794,4.9256 -27.20401,6.4859 -47.27628,3.8171 z m 35.47994,-17.6064 c 4.34088,-4.341 8.35987,-37.03967 6.81791,-55.47091 l -0.92916,-11.1064 -29.19911,-0.7815 -29.19912,-0.7815 0.53634,25.77088 c 0.29495,14.17397 0.6275,29.01597 0.73899,32.98223 0.26572,9.4524 8.14759,12.9236 29.95642,13.1928 11.59913,0.1433 18.57697,-1.1049 21.27773,-3.8056 z"
       id="path3067"
       inkscape:connector-curvature="0" />
  </g>
</svg>
