<?xml version="1.0" encoding="UTF-8" standalone="no"?>
<!-- Created with Inkscape (http://www.inkscape.org/) -->

<svg
   xmlns:dc="http://purl.org/dc/elements/1.1/"
   xmlns:cc="http://creativecommons.org/ns#"
   xmlns:rdf="http://www.w3.org/1999/02/22-rdf-syntax-ns#"
   xmlns:svg="http://www.w3.org/2000/svg"
   xmlns="http://www.w3.org/2000/svg"
   xmlns:sodipodi="http://sodipodi.sourceforge.net/DTD/sodipodi-0.dtd"
   xmlns:inkscape="http://www.inkscape.org/namespaces/inkscape"
   width="300"
   height="300"
   id="svg2"
   version="1.1"
   inkscape:version="0.92.4 (5da689c313, 2019-01-14)"
   sodipodi:docname="image-bigseal.svg">
  <defs
     id="defs4" />
  <sodipodi:namedview
     id="base"
     pagecolor="#ffffff"
     bordercolor="#666666"
     borderopacity="1.0"
     inkscape:pageopacity="0.0"
     inkscape:pageshadow="2"
     inkscape:zoom="1.4142136"
     inkscape:cx="346.33344"
     inkscape:cy="89.394805"
     inkscape:document-units="px"
     inkscape:current-layer="layer1"
     showgrid="false"
     inkscape:window-width="1872"
     inkscape:window-height="1016"
     inkscape:window-x="48"
     inkscape:window-y="27"
     inkscape:window-maximized="1" />
  <metadata
     id="metadata7">
    <rdf:RDF>
      <cc:Work
         rdf:about="">
        <dc:format>image/svg+xml</dc:format>
        <dc:type
           rdf:resource="http://purl.org/dc/dcmitype/StillImage" />
        <dc:title />
      </cc:Work>
    </rdf:RDF>
  </metadata>
  <g
     inkscape:label="Calque 1"
     inkscape:groupmode="layer"
     id="layer1"
     transform="translate(0,-752.36218)">
    <path
       style="fill:#000000;stroke-width:5.95621157"
       d="m 83.603411,995.52962 c 0,-26.37429 -2.643093,-61.39962 -2.643093,-61.39962 0,0 -6.995747,-4.6883 -9.158612,-9.0106 C 64.862068,911.25112 60,889.66502 60,872.72361 c 0,-17.3248 4.705049,-37.75509 11.801706,-51.24555 6.490941,-12.33898 11.801705,-29.91455 11.801705,-39.05677 0,-9.14229 2.655388,-16.62229 5.900848,-16.62229 9.997281,0 6.533831,35.28743 -5.900848,60.12091 -12.179238,24.32335 -14.781001,60.10851 -5.900858,81.16321 1.54876,3.67208 4.10222,4.70752 4.10222,4.70752 0,0 1.221844,-17.41092 1.383862,-33.26495 0.232502,-22.76465 -4.885924,-40.62098 6.315624,-40.5816 12.509961,0.044 5.900851,24.38238 5.900851,61.12294 0,33.61756 0.49955,59.36405 0.49955,59.36405 4.83531,0.18074 6.4162,-7.61678 7.03544,-19.3218 0.56281,-10.63828 0.33129,-24.50428 1.02674,-38.54188 1.46063,-29.48287 2.78715,-55.79394 2.94783,-58.46908 0.1605,-2.67514 2.94753,-3.19182 6.193,-1.14819 3.24547,2.04363 6.0875,20.46503 6.31557,40.93644 -1.3502,16.104 -1.48858,31.58348 -1.48858,31.58348 0,0 5.21279,-2.20938 6.97472,-6.38693 8.01537,-19.00445 6.68897,-53.72464 -2.95042,-77.22987 -10.02857,-24.45412 -11.85258,-64.05425 -2.95044,-64.05425 3.24547,0 5.90086,7.6344 5.90086,16.96528 0,9.33089 4.30462,29.8368 9.56581,45.56863 5.61732,16.79677 8.41703,38.95294 6.78274,53.67679 1.17722,13.36597 -9.8648,42.03046 -21.41082,44.0203 0,0 -1.21994,9.38306 -4.45346,20.11089 -4.32836,14.36013 -6.38639,24.57848 -17.40462,26.57274 0,0 -2.58392,23.59781 -2.58392,39.93587 0,16.3381 4.00842,30.0692 -5.900851,29.7056 -15.435454,-0.5663 -5.900848,-19.6165 -5.900848,-46.82548 z m 157.847809,43.33628 c -13.76429,0.1394 -4.69036,-35.8648 -5.01384,-74.16693 -0.8067,-95.51228 -2.14278,-99.26346 -36.15712,-101.5174 -21.59075,-1.43075 -28.60344,0.48638 -32.9909,9.01814 -3.06449,5.95924 -7.48258,45.32942 -9.81795,87.4892 -2.75054,49.65449 -6.27698,77.37109 -9.89636,77.27659 -7.54113,-0.1971 -5.64586,-23.9297 -3.99744,-77.83391 2.53668,-82.95043 10.83922,-109.16356 34.57546,-109.16356 3.9304,0 12.63411,-1.04592 12.63411,-1.04592 0,0 -0.96842,-9.16166 -0.96842,-17.14475 V 813.5867 l -17.40953,9.17253 c -19.94233,10.50721 -23.89644,11.18681 -23.89644,4.1074 0,-2.78595 9.29384,-10.16476 20.65299,-16.39737 9.18997,-5.04244 19.86759,-13.03081 19.86759,-13.03081 0,0 0.78539,-9.39658 0.78539,-14.61555 0,-8.97287 2.65538,-17.98631 5.90085,-20.02994 3.49289,-2.19941 3.93807,4.14373 3.93807,16.26951 0,7.83676 2.6335,16.79112 2.6335,16.79112 0,0 10.85724,8.80767 22.93269,13.64044 12.98188,5.19559 23.60341,12.36958 23.60341,15.9422 0,8.28141 -0.34696,8.24649 -25.83322,-2.60306 -10.30477,-4.38678 -20.36788,-11.3353 -20.36788,-11.3353 0,0 -1.00571,9.66229 -1.00571,17.53606 0,5.63948 0.59865,17.9316 0.59865,17.9316 0,0 7.24067,-0.16388 9.72783,0.61918 21.27789,6.69897 27.66107,12.90453 32.38671,31.48526 5.90989,23.23684 10.1375,159.66403 -2.88244,159.79593 z m -62.254,-81.88243 c -8.34492,-8.50224 -9.65662,-76.95475 -1.47462,-76.95475 3.08349,0 6.40272,15.55628 7.37607,34.56952 1.3268,25.91902 3.98455,34.56952 10.62094,34.56952 6.63639,0 9.29413,-8.6505 10.62094,-34.56952 2.41097,-47.09565 12.98247,-43.94772 12.98247,3.86583 0,29.50192 -2.16945,39.28354 -9.33391,42.08463 -14.00833,5.47684 -22.93113,4.44372 -30.79189,-3.56523 z"
       id="path83"
       inkscape:connector-curvature="0"
       sodipodi:nodetypes="scsscssssccsscsscccccssscccscsasssccsssscsccsccscsccsccscccssscscsss" />
  </g>
</svg>
