<?xml version="1.0" encoding="UTF-8" standalone="no"?>
<!-- Created with Inkscape (http://www.inkscape.org/) -->

<svg
   xmlns:dc="http://purl.org/dc/elements/1.1/"
   xmlns:cc="http://creativecommons.org/ns#"
   xmlns:rdf="http://www.w3.org/1999/02/22-rdf-syntax-ns#"
   xmlns:svg="http://www.w3.org/2000/svg"
   xmlns="http://www.w3.org/2000/svg"
   xmlns:sodipodi="http://sodipodi.sourceforge.net/DTD/sodipodi-0.dtd"
   xmlns:inkscape="http://www.inkscape.org/namespaces/inkscape"
   width="300"
   height="300"
   id="svg2"
   version="1.1"
   inkscape:version="0.48.4 r9939"
   sodipodi:docname="image-seal.svg">
  <defs
     id="defs4" />
  <sodipodi:namedview
     id="base"
     pagecolor="#ffffff"
     bordercolor="#666666"
     borderopacity="1.0"
     inkscape:pageopacity="0.0"
     inkscape:pageshadow="2"
     inkscape:zoom="1.979899"
     inkscape:cx="200.43343"
     inkscape:cy="134.48103"
     inkscape:document-units="px"
     inkscape:current-layer="layer1"
     showgrid="false"
     inkscape:window-width="1215"
     inkscape:window-height="1000"
     inkscape:window-x="65"
     inkscape:window-y="24"
     inkscape:window-maximized="1" />
  <metadata
     id="metadata7">
    <rdf:RDF>
      <cc:Work
         rdf:about="">
        <dc:format>image/svg+xml</dc:format>
        <dc:type
           rdf:resource="http://purl.org/dc/dcmitype/StillImage" />
        <dc:title />
      </cc:Work>
    </rdf:RDF>
  </metadata>
  <g
     inkscape:label="Calque 1"
     inkscape:groupmode="layer"
     id="layer1"
     transform="translate(0,-752.36218)">
    <path
       style="fill:#000000"
       d="m 74.368413,1036.5438 c -0.878354,-1.4212 -1.403736,-30.5093 -1.167541,-64.64028 0.516945,-74.6947 1.037783,-67.65099 -5.147577,-69.61415 -2.808023,-0.89123 -7.326569,-4.00446 -10.04121,-6.91827 -4.424584,-4.74924 -4.935681,-8.97114 -4.935681,-40.77173 l 0,-35.47391 7.453188,-8.61062 c 4.099249,-4.73583 8.617794,-9.97499 10.041211,-11.64253 1.423416,-1.66758 2.588021,-9.17177 2.588021,-16.676 0,-23.06694 10.189145,-20.03891 14.242205,4.23256 1.48077,8.86752 -3.96676,20.63403 -15.262142,32.96569 -10.081575,11.00652 -12.229665,20.40608 -10.328489,45.19504 1.204343,15.70337 6.172585,27.42237 10.002101,23.59285 0.705948,-0.70593 2.220463,-16.15265 3.365612,-34.32601 1.145125,-18.17336 2.826426,-33.78682 3.736184,-34.69657 0.909764,-0.90975 3.434594,-0.17647 5.610754,1.62961 3.37362,2.79985 3.91642,10.52836 3.68357,52.44651 -0.40188,72.3454 -0.22267,78.03124 2.45786,78.03124 1.34522,0 4.42621,-3.67131 6.84667,-8.15848 3.725291,-6.9061 4.543351,-16.75356 5.329081,-64.14981 0.83587,-50.42035 1.34103,-55.9122 5.07725,-55.19633 3.52834,0.67605 4.25484,5.20312 4.85627,30.26072 0.389,16.20613 1.3169,29.46573 2.06202,29.46573 0.74514,0 3.00921,-1.65439 5.03124,-3.67643 4.70663,-4.70662 5.60392,-43.00863 1.24637,-53.20304 -1.67699,-3.92328 -7.50508,-10.229 -12.95132,-14.01273 l -9.902211,-6.87945 0,-18.37136 c 0,-19.38311 3.540161,-28.23563 10.260281,-25.65687 2.99262,1.14836 3.818,5.53201 3.69924,19.64689 -0.15211,18.09203 -0.11014,18.20717 9.92347,27.28377 9.3423,8.45106 10.31034,10.60214 13.28826,29.52781 4.46673,28.38727 0.80285,47.04079 -11.60721,59.09466 -8.27044,8.03304 -8.98616,9.94619 -9.94283,26.57755 -1.22706,21.33186 -5.47984,32.6513 -14.930421,39.73964 -3.8316,2.87387 -8.24645,6.28823 -9.81077,7.5875 -1.78766,1.48474 -2.95902,13.29576 -3.15324,31.795 -0.28776,27.4055 -2.22127,36.1858 -7.968428,36.1858 -1.130114,0 -2.773432,-1.1627 -3.651788,-2.584 z m 57.492727,-3.9526 c -2.32149,-9.2496 1.15454,-84.88805 4.65256,-101.2389 0.84096,-7.77042 2.67949,-17.84663 10.34041,-24.01536 2.071,-2.071 5.40229,-3.76546 7.40285,-3.76546 7.59785,0 12.96905,-14.12582 9.17032,-24.11727 -1.25602,-3.30352 -3.52191,-6.00637 -5.03537,-6.00637 -3.37707,0 -8.22834,-4.69254 -11.85292,-11.46514 -1.52913,-2.85718 -3.07788,-23.18501 -3.53435,-46.3888 -0.81051,-41.20103 -0.79858,-41.30498 4.83566,-42.10517 6.23947,-0.88613 6.5618,0.11014 5.74137,17.74672 l -0.55471,11.92392 21.56835,0 21.56831,0 0,-11.46138 c 0,-13.2151 3.59706,-21.56125 8.48433,-19.68582 6.67822,2.56267 8.96024,14.03202 9.25028,46.4918 0.38234,42.78916 -1.94611,47.78528 -26.04581,55.88587 -3.50004,1.17645 -4.36627,3.65018 -3.76546,10.75303 0.66262,7.83383 1.98573,9.63515 8.77314,11.94412 14.41864,4.90501 25.9075,18.07388 25.88545,29.67072 -0.005,3.12522 -4.64923,11.80055 -10.3184,19.27847 -27.80907,36.68158 -26.58613,52.84339 5.26769,69.61652 12.73838,6.7075 18.48623,12.5581 16.75916,17.0589 -1.93267,5.0365 -15.13694,5.1287 -20.12508,0.1405 -2.071,-2.071 -4.7961,-3.7655 -6.05576,-3.7655 -1.25965,0 -7.31144,-4.8009 -13.44842,-10.6687 -10.80834,-10.3344 -18.37515,-26.25033 -16.41008,-34.51678 1.92777,-8.10969 6.97465,-18.28407 12.966,-26.13911 3.44995,-4.52313 6.27266,-9.35574 6.27266,-10.73912 0,-1.38341 1.80363,-6.13072 4.00805,-10.54957 5.4454,-10.91561 2.91526,-18.87542 -7.58342,-23.85737 -8.31041,-3.94356 -9.17468,-3.8633 -21.99234,2.04233 -7.33808,3.38098 -14.81878,8.57093 -16.62379,11.53326 -4.73883,7.77728 -7.22125,36.78406 -6.16815,72.07369 0.9307,31.18727 -1.002,40.86257 -8.16265,40.86257 -1.99612,0 -4.36757,-2.9415 -5.26989,-6.5367 z m 62.32072,-179.25509 c 5.45483,-6.73645 6.50633,-36.38452 1.35421,-38.18409 -1.72583,-0.60282 -11.89256,0.065 -22.59272,1.48387 l -19.45484,2.57989 0,10.63565 c 0,12.71785 3.66822,23.53925 9.52666,28.10406 6.48855,5.05576 25.62949,2.21878 31.16669,-4.61938 z"
       id="path3002"
       inkscape:connector-curvature="0"
       sodipodi:nodetypes="csssscsssssssssssssssssssscsssssssssssccccssssssscccsssssscsssssssssssssssccssscsss" />
  </g>
</svg>
