<?xml version="1.0" encoding="UTF-8" standalone="no"?>
<!-- Created with Inkscape (http://www.inkscape.org/) -->

<svg
   xmlns:dc="http://purl.org/dc/elements/1.1/"
   xmlns:cc="http://creativecommons.org/ns#"
   xmlns:rdf="http://www.w3.org/1999/02/22-rdf-syntax-ns#"
   xmlns:svg="http://www.w3.org/2000/svg"
   xmlns="http://www.w3.org/2000/svg"
   xmlns:sodipodi="http://sodipodi.sourceforge.net/DTD/sodipodi-0.dtd"
   xmlns:inkscape="http://www.inkscape.org/namespaces/inkscape"
   width="300"
   height="300"
   id="svg2"
   version="1.1"
   inkscape:version="0.48.4 r9939"
   sodipodi:docname="image-seal.svg">
  <defs
     id="defs4" />
  <sodipodi:namedview
     id="base"
     pagecolor="#ffffff"
     bordercolor="#666666"
     borderopacity="1.0"
     inkscape:pageopacity="0.0"
     inkscape:pageshadow="2"
     inkscape:zoom="1.979899"
     inkscape:cx="130.93154"
     inkscape:cy="137.35134"
     inkscape:document-units="px"
     inkscape:current-layer="layer1"
     showgrid="false"
     inkscape:window-width="1215"
     inkscape:window-height="1000"
     inkscape:window-x="65"
     inkscape:window-y="24"
     inkscape:window-maximized="1"
     fit-margin-top="10"
     fit-margin-left="10"
     fit-margin-right="10"
     fit-margin-bottom="10" />
  <metadata
     id="metadata7">
    <rdf:RDF>
      <cc:Work
         rdf:about="">
        <dc:format>image/svg+xml</dc:format>
        <dc:type
           rdf:resource="http://purl.org/dc/dcmitype/StillImage" />
        <dc:title />
      </cc:Work>
    </rdf:RDF>
  </metadata>
  <g
     inkscape:label="Calque 1"
     inkscape:groupmode="layer"
     id="layer1"
     transform="translate(0,-752.36218)">
    <path
       style="fill:#000000"
       d="m 187.65832,1039.1601 c -4.94475,-3.2954 -5.65303,-15.5382 -2.33308,-40.32676 4.01572,-29.98322 6.04725,-34.96503 19.99227,-49.02575 14.30724,-14.42596 16.99537,-20.18308 19.86301,-42.5403 2.22835,-17.37337 1.62603,-66.29728 -1.02837,-83.52738 -1.40314,-9.10795 -4.84045,-10.41976 -34.45012,-13.14744 -20.23234,-1.86383 -27.43696,1.46851 -31.12686,14.3972 -3.95348,13.85209 -7.35819,44.89451 -8.06655,73.54669 -0.60906,24.6349 -0.48313,25.22079 7.33551,34.12575 4.37539,4.98327 11.47025,10.51646 15.76633,12.29596 7.80776,3.23408 10.53763,11.01155 5.05447,14.40032 -3.27782,2.02582 -18.04103,-3.63007 -18.04103,-6.91163 0,-1.25637 -1.59529,-2.28431 -3.54507,-2.28431 -1.94977,0 -6.62925,-3.08418 -10.39882,-6.85376 -6.47548,-6.47551 -6.84724,-8.23322 -6.73537,-31.84641 0.12347,-26.06731 5.83862,-88.31121 9.0381,-98.43436 1.0168,-3.21714 2.88217,-5.84933 4.14523,-5.84933 1.26308,0 2.29651,-1.75481 2.29651,-3.89957 0,-3.51124 6.60298,-5.03739 19.99983,-4.62261 1.86388,0.0577 3.74335,-5.74445 4.70948,-14.53877 0.88423,-8.04915 1.84163,-16.37616 2.12751,-18.50452 0.86942,-6.47257 8.43384,-5.86712 11.52746,0.92263 2.09197,4.59129 2.11903,8.88419 0.0975,15.47076 -4.08806,13.32017 -1.80248,16.37202 13.63008,18.19979 27.62468,3.27173 31.52243,11.80899 29.87625,65.43844 -0.61492,20.03273 -1.11562,42.914 -1.1127,50.84732 0.008,19.52533 -2.68888,25.38907 -19.19683,41.75124 -16.86935,16.72035 -19.6966,24.4856 -20.64347,56.6987 -0.689,23.4398 -2.49123,28.4101 -8.78129,24.2181 z M 76.584271,1023.6042 c -0.635732,-1.0723 -0.05486,-18.9129 1.290911,-39.64557 1.345738,-20.73265 3.033442,-47.63962 3.750467,-59.79325 l 1.3037,-22.0975 -9.14088,-10.10152 c -9.090394,-10.04574 -13.526716,-24.78348 -11.045322,-36.69321 0.595827,-2.85967 1.928723,-11.63368 2.962002,-19.4978 1.88198,-14.32347 10.179697,-33.27385 16.277674,-37.17503 5.53137,-3.53868 11.0487,-16.71626 11.0487,-26.38867 0,-7.49494 0.97651,-9.22808 5.19942,-9.22808 4.617127,0 5.199407,1.73314 5.199407,15.47574 0,14.88859 -0.38843,15.78786 -10.238087,23.70327 -11.329416,9.10459 -12.886381,11.95277 -14.820459,27.11163 -0.729868,5.7204 -2.219994,16.46361 -3.311429,23.87384 -1.991323,13.52017 1.837785,29.42203 7.084722,29.42203 3.038432,0 5.635596,-21.7537 5.664426,-47.44465 0.0208,-18.6621 0.4211,-20.14773 5.42701,-20.14773 5.18138,0 5.34823,0.99243 4.04289,24.04729 -0.74888,13.226 -2.17487,43.05764 -3.16889,66.29252 -1.78412,41.70311 -0.43761,49.69854 6.129397,36.39589 5.77887,-11.70611 7.79203,-29.86129 8.43198,-76.04142 0.39405,-28.43713 3.37802,-45.49487 7.95857,-45.49487 1.32458,0 2.39811,13.31458 2.39811,29.74319 0,30.07697 3.25216,41.73367 6.00985,21.54113 2.70353,-19.79581 -0.6347,-54.39603 -6.15362,-63.78152 -8.2935,-14.10395 -5.64196,-54.64137 2.75353,-42.09664 1.43535,2.14476 2.39764,8.65874 2.13839,14.4755 -0.34516,7.74451 1.77241,14.49766 7.90958,25.22429 l 8.38094,14.64836 -2.52361,33.66791 c -2.50347,33.39942 -6.47582,47.58503 -14.14972,50.52977 -3.69258,1.417 -6.68083,11.38479 -8.38247,27.96138 -1.17608,11.45681 -6.76317,22.49431 -14.96554,29.56497 -7.937337,6.84219 -9.099287,10.80881 -11.102327,37.90139 -1.788524,24.19146 -2.317174,25.99716 -7.610749,25.99716 -1.975986,0 -4.11284,-0.8774 -4.748573,-1.9498 z M 177.14355,917.16684 c -14.46838,-2.83009 -16.78685,-13.12113 -12.72401,-56.47797 2.33932,-24.96402 6.73724,-30.11293 25.72075,-30.11293 13.14048,0 13.89933,0.38526 18.09669,9.18718 5.14924,10.79809 6.18865,56.79298 1.51521,67.05008 -2.56209,5.62319 -17.75933,12.87302 -24.7327,11.79874 -1.26395,-0.19472 -4.80813,-0.84501 -7.87594,-1.4451 z m 13.25465,-11.61671 c 3.64188,-1.65934 6.76982,-4.87648 6.95099,-7.1492 1.76926,-22.19455 1.71202,-22.33012 -9.42837,-22.33012 l -10.39884,0 -0.8006,12.55058 c -0.44801,7.023 0.55091,14.17911 2.26809,16.24817 3.692,4.44858 3.2029,4.41941 11.40873,0.68057 z m 7.82115,-50.65664 c 1.9204,-10.23671 -0.76205,-13.8067 -10.42852,-13.87892 -7.31045,-0.0546 -11.5687,4.84011 -11.5687,13.29786 0,5.29431 1.48662,7.3847 5.84934,8.22501 13.22307,2.54685 14.33479,2.02059 16.14788,-7.64395 z"
       id="path3054"
       inkscape:connector-curvature="0" />
  </g>
</svg>
