<?xml version="1.0" encoding="UTF-8" standalone="no"?>
<!-- Created with Inkscape (http://www.inkscape.org/) -->

<svg
   xmlns:dc="http://purl.org/dc/elements/1.1/"
   xmlns:cc="http://creativecommons.org/ns#"
   xmlns:rdf="http://www.w3.org/1999/02/22-rdf-syntax-ns#"
   xmlns:svg="http://www.w3.org/2000/svg"
   xmlns="http://www.w3.org/2000/svg"
   xmlns:sodipodi="http://sodipodi.sourceforge.net/DTD/sodipodi-0.dtd"
   xmlns:inkscape="http://www.inkscape.org/namespaces/inkscape"
   width="300"
   height="300"
   id="svg2"
   version="1.1"
   inkscape:version="0.48.4 r9939"
   sodipodi:docname="image-seal.svg">
  <defs
     id="defs4" />
  <sodipodi:namedview
     id="base"
     pagecolor="#ffffff"
     bordercolor="#666666"
     borderopacity="1.0"
     inkscape:pageopacity="0.0"
     inkscape:pageshadow="2"
     inkscape:zoom="2.0018437"
     inkscape:cx="145.03351"
     inkscape:cy="130.6666"
     inkscape:document-units="px"
     inkscape:current-layer="layer1"
     showgrid="false"
     inkscape:window-width="1215"
     inkscape:window-height="1000"
     inkscape:window-x="65"
     inkscape:window-y="24"
     inkscape:window-maximized="1"
     fit-margin-top="10"
     fit-margin-left="10"
     fit-margin-right="10"
     fit-margin-bottom="10" />
  <metadata
     id="metadata7">
    <rdf:RDF>
      <cc:Work
         rdf:about="">
        <dc:format>image/svg+xml</dc:format>
        <dc:type
           rdf:resource="http://purl.org/dc/dcmitype/StillImage" />
        <dc:title />
      </cc:Work>
    </rdf:RDF>
  </metadata>
  <g
     inkscape:label="Calque 1"
     inkscape:groupmode="layer"
     id="layer1"
     transform="translate(0,-752.36218)">
    <path
       style="fill:#000000"
       d="m 163.76394,1041.0752 c -10.55546,-6.2649 -25.70892,-22.1394 -25.90011,-27.1326 -0.25937,-6.7751 -11.2849,-14.58766 -20.58689,-14.58766 -9.07317,0 -19.412117,-5.46031 -31.735777,-16.76064 -3.963,-3.63391 -5.14222,-7.87026 -4.74313,-17.03967 0.77675,-17.84753 5.44661,-24.71705 23.428657,-34.46427 10.95799,-5.93979 17.58838,-11.63246 20.77811,-17.83943 2.57652,-5.01375 6.19755,-9.1159 8.04675,-9.1159 4.65373,0 5.78344,13.71585 1.90158,23.08745 -2.49165,6.0154 -4.94832,7.75844 -10.93497,7.75844 -4.24673,0 -7.72134,1.20701 -7.72134,2.68225 0,1.47523 -2.11228,2.72063 -4.69394,2.76754 -6.60547,0.12017 -12.529387,5.21135 -17.694697,15.20772 -3.55651,6.8829 -3.82978,9.92068 -1.3767,15.30458 2.8595,6.27593 22.103577,17.68292 29.831837,17.68292 3.73648,0 10.027,-23.00682 10.027,-36.67251 0,-5.32743 1.62212,-8.97427 4.4795,-10.07075 6.21866,-2.38632 9.24942,3.43873 7.57357,14.55625 -2.81652,18.68448 -2.36904,36.59993 1.12481,45.03488 1.96155,4.7356 4.39025,8.6102 5.39711,8.6102 1.00689,0 5.56144,-3.9228 10.12124,-8.7173 7.33413,-7.71173 8.59865,-11.44261 10.96112,-32.34008 1.4688,-12.99245 3.23362,-24.18575 3.92183,-24.87394 0.68821,-0.68821 2.94484,-0.60141 5.01476,0.19286 2.78485,1.06863 3.67739,6.37453 3.43242,20.40474 -0.36872,21.11902 1.84523,23.95628 14.09631,18.06499 10.76771,-5.17798 20.04129,-20.01126 17.96308,-28.73236 -2.66036,-11.16419 -6.16311,-13.73755 -18.69904,-13.73755 -15.89379,0 -22.47069,-6.67301 -22.47069,-22.79913 0,-9.72284 0.91282,-12.06214 4.69394,-12.02906 7.33762,0.0641 10.71237,3.42754 10.37173,10.33656 -0.36184,7.33888 3.68369,10.14341 17.91985,12.42276 12.7975,2.04903 20.63493,13.56841 20.64947,30.3504 0.0188,21.27328 -13.15518,35.36349 -33.06304,35.36349 -7.12722,0 -11.86059,2.73735 -22.69361,13.12402 -12.9413,12.408 -13.42818,13.3591 -8.92482,17.4346 2.61981,2.3709 6.0142,4.3107 7.54314,4.3107 4.62959,0 16.91459,10.856 16.91459,14.947 0,5.7438 -13.08729,4.3113 -24.95365,-2.7316 z M 84.109813,915.94619 c 0,-1.61767 4.82805,-8.42619 10.729,-15.13002 5.900947,-6.70383 10.910057,-14.43287 11.131337,-17.17566 0.22129,-2.74279 0.52304,-6.49563 0.67056,-8.33968 0.15182,-1.89699 -3.02094,-3.47153 -7.306876,-3.62621 -11.683751,-0.42173 -18.328891,-8.95102 -19.173801,-24.61035 -0.82098,-15.21553 1.48978,-20.89133 7.55743,-18.56295 2.8607,1.09776 4.4023,6.00821 4.96463,15.8138 0.79923,13.93617 0.99324,14.2387 9.665567,15.07205 l 8.84996,0.85038 -0.8032,-16.78357 c -0.78472,-16.39687 -1.00131,-16.83466 -9.40035,-19.00114 -4.728407,-1.21965 -10.461717,-4.87966 -12.740697,-8.13334 -5.24916,-7.49424 -5.92726,-38.18766 -0.79075,-35.79327 1.84405,0.85961 5.40964,2.29348 7.92358,3.18641 3.36837,1.19639 4.179411,3.58018 3.08306,9.0619 -1.73311,8.66555 2.872077,18.82283 8.534037,18.82283 2.83187,0 3.9332,-3.1833 3.94398,-11.39957 0.0327,-24.96414 9.60699,-41.0268 25.46642,-42.72496 11.35075,-1.2154 11.06407,7.85967 -0.43106,13.64636 -9.12341,4.59276 -11.60702,12.75008 -9.46588,31.09029 0.82095,7.03217 2.36845,9.38788 6.16703,9.38788 2.78906,0 5.16338,-1.50877 5.27625,-3.35281 0.11293,-1.84405 0.71638,-5.46509 1.34113,-8.04676 0.62475,-2.58166 1.64706,-6.80621 2.27181,-9.38787 0.62475,-2.58167 1.22826,-5.5992 1.34113,-6.70563 0.34207,-3.35319 7.59715,-2.24969 8.81728,1.34112 0.62657,1.84405 1.45853,8.57961 1.84874,14.9679 0.84556,13.84154 -5.01575,21.91305 -15.91259,21.91305 -9.65234,0 -12.61559,4.09964 -14.78526,20.45525 -1.47827,11.14374 -1.02264,13.91619 2.50981,15.27172 7.51162,2.88245 12.36075,-0.97435 12.39935,-9.86199 0.0579,-13.3273 2.86067,-20.50047 8.01014,-20.50047 5.44033,0 7.99493,7.34939 7.92482,22.79913 -0.07,15.41471 -4.65599,20.11688 -19.62008,20.11688 -11.27583,0 -12.445,0.59238 -12.445,6.30538 0,18.15686 -17.35092,41.97514 -30.577657,41.97514 -3.83562,0 -6.97385,-1.32356 -6.97385,-2.94122 z m 144.841547,-1.78552 c -6.91297,-2.269 -16.09351,-12.08006 -16.09351,-17.19881 0,-2.69333 -1.50876,-4.89699 -3.35281,-4.89704 -1.84405,-5e-5 -6.6721,-4.16009 -10.72901,-9.24457 -9.9206,-12.43338 -10.6172,-35.11316 -1.34112,-43.66393 9.59937,-8.8488 36.88095,-7.16649 36.88095,2.27423 0,1.29461 -5.79366,2.35383 -12.8748,2.35383 -14.19193,0 -19.31221,3.3183 -19.31221,12.51557 0,6.79503 7.98356,25.03595 10.95756,25.03595 3.97254,0 20.69995,18.98312 22.2821,25.28689 1.80636,7.19715 -0.21646,9.57314 -6.41715,7.53788 z m -61.89957,-10.27603 c -4.3715,-5.26732 -4.35058,-46.37792 0.0376,-73.93418 3.23863,-20.33737 11.47497,-29.0472 27.48862,-29.06876 5.43609,-0.008 13.05648,-1.21957 16.93415,-2.69387 5.91667,-2.24949 6.91514,-4.08246 6.20966,-11.39956 l -0.84062,-8.71904 -24.14026,0.30468 c -22.61465,0.28545 -27.9954,-1.20666 -28.12257,-7.79846 -0.0215,-1.17109 1.4677,-1.87972 3.31175,-1.57475 1.84405,0.30498 6.37034,-0.25347 10.05844,-1.24129 11.94219,-3.19818 32.76844,-3.84959 41.95746,-1.3124 6.30423,1.7407 9.468,4.4851 10.66404,9.25047 1.91204,7.61824 -0.6324,30.58195 -3.73203,33.68159 -1.11198,1.11198 -8.46709,2.66337 -16.34465,3.44752 -7.87755,0.78416 -17.51754,2.95608 -21.42214,4.8265 -8.38705,4.01766 -10.22346,12.26191 -12.69164,56.97718 -0.89571,16.22762 -2.52941,30.46117 -3.63042,31.63012 -1.10101,1.16895 -3.68284,0.0998 -5.73742,-2.37575 z"
       id="path3041"
       inkscape:connector-curvature="0" />
  </g>
</svg>
