<?xml version="1.0" encoding="UTF-8" standalone="no"?>
<!-- Created with Inkscape (http://www.inkscape.org/) -->

<svg
   xmlns:dc="http://purl.org/dc/elements/1.1/"
   xmlns:cc="http://creativecommons.org/ns#"
   xmlns:rdf="http://www.w3.org/1999/02/22-rdf-syntax-ns#"
   xmlns:svg="http://www.w3.org/2000/svg"
   xmlns="http://www.w3.org/2000/svg"
   xmlns:sodipodi="http://sodipodi.sourceforge.net/DTD/sodipodi-0.dtd"
   xmlns:inkscape="http://www.inkscape.org/namespaces/inkscape"
   width="300"
   height="300"
   id="svg2"
   version="1.1"
   inkscape:version="0.48.4 r9939"
   sodipodi:docname="image-seal.svg">
  <defs
     id="defs4" />
  <sodipodi:namedview
     id="base"
     pagecolor="#ffffff"
     bordercolor="#666666"
     borderopacity="1.0"
     inkscape:pageopacity="0.0"
     inkscape:pageshadow="2"
     inkscape:zoom="1.979899"
     inkscape:cx="146.08979"
     inkscape:cy="147.63167"
     inkscape:document-units="px"
     inkscape:current-layer="layer1"
     showgrid="false"
     inkscape:window-width="1215"
     inkscape:window-height="1000"
     inkscape:window-x="65"
     inkscape:window-y="24"
     inkscape:window-maximized="1" />
  <metadata
     id="metadata7">
    <rdf:RDF>
      <cc:Work
         rdf:about="">
        <dc:format>image/svg+xml</dc:format>
        <dc:type
           rdf:resource="http://purl.org/dc/dcmitype/StillImage" />
        <dc:title />
      </cc:Work>
    </rdf:RDF>
  </metadata>
  <g
     inkscape:label="Calque 1"
     inkscape:groupmode="layer"
     id="layer1"
     transform="translate(0,-752.36218)">
    <path
       style="fill:#000000"
       d="m 76.198641,1039.5258 c -2.352561,-11.4583 6.35028,-21.4572 7.558975,-32.6445 5.744503,-24.25873 8.987811,-49.07176 9.085395,-74.01105 0.0098,-13.98145 3.811782,-28.08218 1.389937,-41.98073 -5.789767,-12.75882 -24.679985,3.51964 -31.569677,-8.02163 3.759712,-10.64629 19.859448,-5.60849 29.098202,-7.8739 38.488707,-1.90528 77.021087,-3.76334 115.560147,-3.76559 10.59374,-3.21311 22.87924,14.26033 6.69538,14.45162 -9.76915,5.43497 -15.73233,-8.65486 -24.02227,0.71433 -3.68442,13.95441 -1.0207,28.78782 0.58112,42.92371 4.895,32.75614 15.27163,64.4809 28.85887,94.61044 5.98377,8.2296 -4.51941,17.6589 -9.55158,6.9681 -13.17424,-20.1055 -20.03136,-43.62553 -26.1156,-66.68255 -5.70093,-22.26108 -7.36635,-45.25473 -7.66074,-68.15052 3.78513,-13.69252 -22.30489,-16.69429 -20.1091,-3.18112 -0.27596,12.13953 4.96215,22.99157 12.84562,31.86311 5.29501,11.59875 6.19596,24.92659 5.71731,37.50239 -0.002,13.39795 -12.50327,19.20514 -17.64018,29.62523 -2.22737,7.99921 -11.54165,21.34616 -1.13308,26.61126 7.7795,2.0912 22.58242,10.6933 12.55178,18.7883 -11.58119,-2.9056 -22.0181,-9.7973 -31.6371,-16.7583 -11.97279,-6.7786 -7.75012,-21.47797 -14.64685,-31.32222 -8.46538,-9.34827 -14.61077,-20.2639 -14.61408,-33.40286 -1.74725,-11.71277 0.7986,-23.91238 8.47096,-33.1199 5.61765,-9.7845 12.96782,-21.14749 10.21947,-32.8574 -5.29416,-3.31561 -12.2823,-1.2422 -18.33583,-1.81608 -2.98862,37.48797 -4.48204,75.14653 -9.583351,112.42516 -3.219209,14.6469 -5.557153,30.6953 -15.190635,42.6836 -3.111964,3.2553 -6.165385,-0.3828 -6.823093,-3.5789 z m 68.066919,-45.04363 c 4.28358,-20.93609 0.57244,-42.52261 3.29001,-63.53578 13.35795,-2.04443 7.64395,17.96215 9.18521,25.90017 -1.45898,6.23658 3.98673,19.88238 5.19161,6.32788 1.89388,-14.14317 2.58515,-30.53106 -8.5541,-41.31997 -9.08744,-9.08442 -9.28709,-22.24968 -7.06977,-33.99574 -3.68016,-4.77586 -19.43064,-3.3698 -10.3558,4.81804 2.89195,12.42036 -0.37294,26.1419 -9.91803,34.87568 -10.53056,11.06516 -12.57184,31.04708 -1.61108,42.22985 1.59788,-11.88131 0.82808,-24.34925 5.04689,-35.70742 10.46925,-3.67976 7.04969,16.85088 10.69321,17.77718 -5.05997,12.04751 -3.4813,26.03465 -3.72603,38.91729 -0.81893,6.02579 2.59606,20.61565 6.59461,7.59461 l 0.64387,-1.87351 0.5894,-2.00825 0,-3e-5 z M 118.32477,862.44702 c -8.80861,-5.76957 -18.40156,-10.81071 -18.01305,-22.88375 -2.513061,-10.5966 -2.501711,-21.57697 -4.009519,-32.25124 -4.052581,-12.33098 -28.373459,4.19377 -28.577534,-12.9612 6.443428,-11.51918 25.634793,2.72802 29.613297,-10.25263 0.820186,-8.03744 -4.148304,-29.83483 10.904046,-19.93069 8.9332,6.1427 -1.1774,26.78076 14.39264,23.00518 16.28537,-0.5051 32.57955,-0.58055 48.87041,-0.78981 0.48523,-8.31173 -1.41099,-17.19886 2.06484,-24.99682 15.11047,-7.77615 11.09442,13.84962 15.79481,21.48698 8.44532,8.31641 24.3065,-3.87144 30.50832,8.41745 6.38229,16.58501 -15.84465,5.84675 -24.10824,10.26722 -10.20514,6.3766 -4.26558,22.27887 -7.80222,32.59563 0.10784,11.25628 -7.51474,18.99882 -16.45751,24.38872 -10.32507,6.86303 -23.86072,6.13487 -35.82623,6.73615 -5.81756,-0.24266 -12.01981,-0.17771 -17.35406,-2.83119 z m 40.78845,-18.98469 c -7.96882,-5.20027 -14.19777,-17.2912 -24.7329,-9.73793 -7.73985,1.72209 -22.07846,13.47717 -6.60236,14.7518 10.40314,-0.006 21.28872,-0.59731 31.01052,-4.4753 l 0.32474,-0.53857 0,0 z m 12.39184,-21.34959 c 2.28947,-15.88076 -16.58505,-0.865 -6.24457,5.80241 5.31336,6.9054 6.69488,-1.32843 6.24457,-5.80241 z m -44.61066,-1.29689 c -0.55609,-9.05619 -17.06103,-14.00824 -11.54976,-0.79091 0.20612,9.68337 8.35376,7.89471 11.54976,0.79091 z m 26.0229,-14.60599 c 6.6221,-8.08653 -10.69359,-4.00463 -15.96256,-4.85052 -3.14882,0.32069 -9.60083,-0.54457 -10.79744,0.47701 6.17438,5.64132 14.81193,12.51914 23.31165,7.25229 1.28735,-0.77712 2.44109,-1.765 3.44835,-2.87878 z"
       id="path3144"
       inkscape:connector-curvature="0" />
  </g>
</svg>
