<?xml version="1.0" encoding="UTF-8" standalone="no"?>
<!-- Created with Inkscape (http://www.inkscape.org/) -->

<svg
   xmlns:dc="http://purl.org/dc/elements/1.1/"
   xmlns:cc="http://creativecommons.org/ns#"
   xmlns:rdf="http://www.w3.org/1999/02/22-rdf-syntax-ns#"
   xmlns:svg="http://www.w3.org/2000/svg"
   xmlns="http://www.w3.org/2000/svg"
   xmlns:sodipodi="http://sodipodi.sourceforge.net/DTD/sodipodi-0.dtd"
   xmlns:inkscape="http://www.inkscape.org/namespaces/inkscape"
   width="300"
   height="300"
   id="svg2"
   version="1.1"
   inkscape:version="0.48.4 r9939"
   sodipodi:docname="image-seal.svg">
  <defs
     id="defs4" />
  <sodipodi:namedview
     id="base"
     pagecolor="#ffffff"
     bordercolor="#666666"
     borderopacity="1.0"
     inkscape:pageopacity="0.0"
     inkscape:pageshadow="2"
     inkscape:zoom="2.7366667"
     inkscape:cx="150"
     inkscape:cy="150"
     inkscape:document-units="px"
     inkscape:current-layer="layer1"
     showgrid="false"
     inkscape:window-width="1215"
     inkscape:window-height="1000"
     inkscape:window-x="65"
     inkscape:window-y="24"
     inkscape:window-maximized="1" />
  <metadata
     id="metadata7">
    <rdf:RDF>
      <cc:Work
         rdf:about="">
        <dc:format>image/svg+xml</dc:format>
        <dc:type
           rdf:resource="http://purl.org/dc/dcmitype/StillImage" />
        <dc:title />
      </cc:Work>
    </rdf:RDF>
  </metadata>
  <g
     inkscape:label="Calque 1"
     inkscape:groupmode="layer"
     id="layer1"
     transform="translate(0,-752.36218)">
    <path
       style="fill:#000000"
       d="m 144.83783,1044.4983 c -3.37217,-3.3722 -1.86793,-5.1015 13.52424,-15.5473 13.63407,-9.2527 50.17135,-47.90551 57.57065,-60.90405 6.48873,-11.39888 9.56068,-26.54717 6.41558,-31.63608 -2.40392,-3.88963 -4.28005,-2.30679 -16.26462,13.7222 -11.53013,15.4212 -54.2528,57.52383 -67.60741,66.62623 -6.59971,4.4983 -13.1247,7.4833 -14.49998,6.6333 -4.72672,-2.9212 -2.48716,-8.4788 5.69509,-14.1326 4.5076,-3.1147 9.98526,-7.4474 12.17254,-9.62823 2.18731,-2.18082 8.4286,-7.99887 13.86955,-12.92897 8.97755,-8.13464 45.91168,-48.29931 53.43591,-58.10984 2.53021,-3.29901 2.17303,-4.86105 -1.96862,-8.60918 -4.96396,-4.49235 -5.50021,-4.13005 -28.3606,19.16067 -12.81554,13.05677 -28.00342,27.42764 -33.75081,31.93524 -17.49321,13.71963 -25.71086,9.44617 -10.18328,-5.29564 4.60179,-4.36891 19.4642,-18.46927 33.02758,-31.33411 24.4044,-23.14754 27.47575,-28.74902 17.7994,-32.46218 -2.72923,-1.0473 -11.1869,5.72245 -27.15199,21.7332 -26.49852,26.57426 -31.35728,30.01171 -33.71954,23.85577 -1.16335,-3.0316 5.76189,-11.41799 25.25476,-30.58318 30.11777,-29.61148 33.05118,-36.30629 19.32913,-44.11406 -14.51176,-8.25712 -17.6689,-17.43019 -17.67941,-51.36758 -0.008,-26.95832 0.56504,-31.03238 5.0443,-35.8403 10.50825,-11.27927 44.84441,-13.96668 55.47932,-4.34223 6.72376,6.08493 10.04453,19.17816 10.06148,39.67084 0.0265,31.855 -9.03475,52.36221 -23.1363,52.36221 -3.91076,0 -7.266,1.41847 -7.45614,3.15217 -1.10379,10.06518 0.80693,13.99288 10.71622,22.02852 6.01108,4.87452 15.21504,13.16402 20.45324,18.42113 9.42196,9.45598 9.52399,9.77379 9.52399,29.66461 0,26.58114 1.16227,24.73155 -48.78573,77.63574 -10.94726,11.5951 -26.77543,23.0976 -31.78383,23.0976 -2.28842,0 -5.44955,-1.2888 -7.02472,-2.8639 z m 52.0947,-184.90442 c 7.52269,-3.89016 10.19134,-9.99082 10.2478,-23.42706 0.0338,-8.05555 -0.17022,-8.20121 -11.94382,-8.52117 -6.58804,-0.17904 -16.80107,-0.64581 -22.69562,-1.03721 -10.69025,-0.7099 -10.71738,-0.6895 -10.71738,8.05651 0,10.07557 3.50894,17.67384 11.08762,24.0092 6.52315,5.45295 14.65315,5.76423 24.0214,0.91973 z m -2.95689,-46.65787 c 12.88171,-0.0925 13.23911,-0.29113 13.23911,-7.35169 0,-9.37233 -4.46586,-12.86206 -19.39825,-15.15823 -16.41743,-2.52448 -25.99299,3.54945 -25.99299,16.48777 0,8.80096 0.063,8.85094 9.45651,7.48874 5.20108,-0.75425 15.41411,-1.41421 22.69562,-1.46659 z M 86.263429,1032.3238 c -4.71749,-4.7175 -5.14724,-8.3681 -5.28022,-44.85283 -0.0797,-21.84453 -0.65597,-44.66397 -1.28084,-50.70986 -1.10283,-10.67088 -7.31717,-24.97136 -12.44395,-28.63613 -1.50974,-1.0792 -2.407831,-16.82484 -2.237907,-39.23548 0.289657,-38.20188 1.462017,-43.80144 11.405097,-54.47408 2.58629,-2.77606 4.70235,-6.53559 4.70235,-8.35449 0,-1.8189 0.89398,-3.30711 1.98665,-3.30711 1.09264,0 4.21329,-7.37592 6.93475,-16.39098 5.13647,-17.01475 7.2807,-19.68721 9.37385,-11.68302 2.406191,9.20123 -2.87118,30.52132 -10.2118,41.25497 -4.05313,5.92653 -8.76041,15.31465 -10.46064,20.86247 -1.70023,5.54782 -4.01881,13.17287 -5.15238,16.94458 -1.13357,3.77168 -1.06501,11.14776 0.15231,16.39128 1.21737,5.24349 2.24046,13.7221 2.27357,18.84132 0.033,5.11923 1.03389,9.90949 2.224,10.64503 2.05115,1.26768 3.9448,-11.92027 7.02908,-48.95266 1.3169,-15.81177 4.00611,-22.69563 8.86612,-22.69563 1.32043,0 1.79558,9.99894 1.10846,23.32606 -3.40228,65.98767 -4.59824,107.80421 -3.0832,107.80421 2.87863,0 7.30294,-13.15812 9.750991,-28.99997 1.28596,-8.32172 2.84374,-34.42169 3.46172,-57.99992 1.27239,-48.54705 1.8189,-51.92125 7.49069,-46.24944 3.06691,3.06691 3.81526,11.10794 3.79667,40.79548 -0.0126,20.33661 0.92596,36.97566 2.08593,36.97566 5.61994,0 9.01115,-17.51845 8.66933,-44.78452 -0.28942,-23.08888 -1.22996,-29.68433 -5.03442,-35.3043 -9.30059,-13.73892 -11.23875,-21.65311 -10.78574,-44.04232 0.39999,-19.76975 0.95021,-22.12954 5.15975,-22.12954 5.28465,0 5.20738,-0.39367 4.74393,24.17389 -0.29973,15.88787 0.52453,19.25565 7.43267,30.36851 6.84177,11.00609 8.00313,15.64732 9.72371,38.85906 2.52098,34.01002 -2.87927,57.93661 -14.99101,66.42 -6.46843,4.53068 -12.28423,15.41242 -12.28423,22.98467 0,8.11409 -6.25401,22.03099 -14.079791,31.33138 -6.20629,7.37577 -6.57764,9.12124 -5.02736,23.63048 0.92067,8.61663 2.23035,20.96603 2.91042,27.44333 1.43547,13.6719 -1.64397,17.0346 -8.92864,9.7499 z"
       id="path3041"
       inkscape:connector-curvature="0" />
  </g>
</svg>
