<?xml version="1.0" encoding="UTF-8" standalone="no"?>
<!-- Created with Inkscape (http://www.inkscape.org/) -->

<svg
   xmlns:dc="http://purl.org/dc/elements/1.1/"
   xmlns:cc="http://creativecommons.org/ns#"
   xmlns:rdf="http://www.w3.org/1999/02/22-rdf-syntax-ns#"
   xmlns:svg="http://www.w3.org/2000/svg"
   xmlns="http://www.w3.org/2000/svg"
   xmlns:sodipodi="http://sodipodi.sourceforge.net/DTD/sodipodi-0.dtd"
   xmlns:inkscape="http://www.inkscape.org/namespaces/inkscape"
   width="300"
   height="300"
   viewBox="0 0 300 300"
   id="svg2"
   version="1.1"
   inkscape:version="0.91 r13725"
   sodipodi:docname="惡-seal.svg">
  <defs
     id="defs4" />
  <sodipodi:namedview
     id="base"
     pagecolor="#ffffff"
     bordercolor="#666666"
     borderopacity="1.0"
     inkscape:pageopacity="0.0"
     inkscape:pageshadow="2"
     inkscape:zoom="1.09"
     inkscape:cx="158.80161"
     inkscape:cy="147.2085"
     inkscape:document-units="px"
     inkscape:current-layer="layer1"
     showgrid="false"
     units="px"
     inkscape:window-width="923"
     inkscape:window-height="546"
     inkscape:window-x="263"
     inkscape:window-y="18"
     inkscape:window-maximized="0" />
  <metadata
     id="metadata7">
    <rdf:RDF>
      <cc:Work
         rdf:about="">
        <dc:format>image/svg+xml</dc:format>
        <dc:type
           rdf:resource="http://purl.org/dc/dcmitype/StillImage" />
        <dc:title></dc:title>
      </cc:Work>
    </rdf:RDF>
  </metadata>
  <g
     inkscape:label="Layer 1"
     inkscape:groupmode="layer"
     id="layer1"
     transform="translate(0,-752.36216)">
    <path
       style="fill:#000000"
       d="m 156.96665,1010.7921 c -17.33518,-15.9788 -29.82715,-22.80253 -41.74397,-22.80253 -19.410289,0 -35.874992,-15.14378 -35.874992,-32.99675 0,-10.92077 25.678982,-41.11147 34.967652,-41.11147 2.0519,0 3.36071,-6.41126 2.90851,-14.24751 -0.54543,-9.45385 -4.17858,-14.24892 -10.79813,-14.25162 -5.48694,-0.002 -9.976129,-2.56932 -9.976129,-5.70468 0,-3.13541 6.413209,-5.70055 14.251409,-5.70055 15.56071,0 18.03773,-5.33503 7.41097,-15.9618 -11.2828,-11.28286 -20.202069,-7.83041 -26.508803,10.26119 -9.733817,27.92245 -14.08506,19.59204 -10.097286,-19.33105 2.05297,-20.03802 1.288346,-42.86187 -1.699133,-50.71951 -2.98749,-7.85765 -3.907636,-15.81087 -2.044782,-17.67369 5.563555,-5.56353 18.687625,8.49247 18.687625,20.01463 0,12.31124 2.27662,12.93687 17.476589,4.80206 15.94611,-8.53408 13.93875,-22.60195 -3.22518,-22.60195 -7.8382,0 -14.251409,-2.56527 -14.251409,-5.70061 0,-3.42054 22.802469,-5.70068 57.006449,-5.70068 34.20356,0 57.00615,2.28014 57.00615,5.70068 0,3.13534 -7.69587,5.70061 -17.10203,5.70061 -19.03203,0 -21.5781,6.1105 -8.14362,19.54498 12.93714,12.93726 17.64477,11.20976 24.71379,-9.06824 9.57829,-27.47654 13.72909,-15.58519 13.23186,37.90754 -0.43019,46.26096 -7.82991,68.93043 -11.65343,35.70006 -1.8627,-16.18825 -5.1248,-18.12908 -20.53262,-12.21658 -12.91774,4.9569 -11.14466,19.34236 2.38402,19.34236 6.27081,0 11.40135,2.56514 11.40135,5.70055 0,3.13536 -3.84788,5.70063 -8.55083,5.70063 -14.81173,0 -9.58171,25.05996 8.55083,40.97098 31.69822,27.81469 19.91225,61.64042 -21.47761,61.64042 -25.32111,0 -25.9089,5.76527 -2.68079,26.29613 15.85991,14.0189 18.72492,18.8952 11.20466,19.0718 -5.55694,0.129 -21.23547,-10.0241 -34.84112,-22.5654 z m 2.1899,-51.17589 c 0,-8.96462 1.5515,-20.3422 3.44761,-25.28368 5.83682,-15.21036 13.65422,-3.88014 13.65422,19.78971 0,23.61247 0.85979,24.37156 21.37729,18.87306 18.42748,-4.93822 15.8344,-19.75824 -7.397,-42.27503 -15.21638,-14.74833 -19.42368,-22.78801 -16.9933,-32.4717 2.98199,-11.88138 1.32632,-12.8704 -21.54384,-12.8704 -24.08903,0 -24.70701,0.45679 -22.35009,16.5164 1.94908,13.27974 -0.98287,19.03532 -14.96168,29.37038 -9.56221,7.06952 -18.837505,16.63673 -20.611703,21.26022 -4.48598,11.69034 7.226883,24.06311 22.779313,24.06311 11.81633,0 12.73933,-2.02605 10.05169,-22.06342 -4.03716,-30.09944 7.33053,-35.22759 12.09162,-5.45466 2.07376,12.96918 5.13671,25.79078 6.8065,28.49252 5.60859,9.07488 13.64937,-1.49733 13.64937,-17.94651 z M 164.85709,867.3 c 0,-10.71698 17.94561,-27.52699 29.38673,-27.52699 5.78476,0 10.51769,-3.84776 10.51769,-8.55077 0,-4.70309 -4.28718,-8.55096 -9.52714,-8.55096 -13.14208,0 -30.37728,-16.67307 -30.37728,-29.38666 0,-17.81626 -20.89946,-12.77746 -27.68008,6.67349 -4.38051,12.56607 -10.66553,18.12597 -23.36007,20.66488 -22.08031,4.41607 -22.172076,12.36762 -0.23118,20.01636 10.60362,3.69641 18.44546,11.18962 20.57026,19.65561 2.42742,9.671 7.43073,13.68203 17.06749,13.68203 7.49867,0 13.63358,-3.00463 13.63358,-6.67699 z"
       id="path3349"
       inkscape:connector-curvature="0" />
  </g>
</svg>
