<?xml version="1.0" encoding="UTF-8" standalone="no"?>
<!-- Created with Inkscape (http://www.inkscape.org/) -->

<svg
   xmlns:dc="http://purl.org/dc/elements/1.1/"
   xmlns:cc="http://creativecommons.org/ns#"
   xmlns:rdf="http://www.w3.org/1999/02/22-rdf-syntax-ns#"
   xmlns:svg="http://www.w3.org/2000/svg"
   xmlns="http://www.w3.org/2000/svg"
   xmlns:sodipodi="http://sodipodi.sourceforge.net/DTD/sodipodi-0.dtd"
   xmlns:inkscape="http://www.inkscape.org/namespaces/inkscape"
   width="300"
   height="300"
   id="svg2"
   version="1.1"
   inkscape:version="0.48.4 r9939"
   sodipodi:docname="image-seal.svg">
  <defs
     id="defs4" />
  <sodipodi:namedview
     id="base"
     pagecolor="#ffffff"
     bordercolor="#666666"
     borderopacity="1.0"
     inkscape:pageopacity="0.0"
     inkscape:pageshadow="2"
     inkscape:zoom="2.0018437"
     inkscape:cx="145.03351"
     inkscape:cy="130.6666"
     inkscape:document-units="px"
     inkscape:current-layer="layer1"
     showgrid="false"
     inkscape:window-width="1215"
     inkscape:window-height="1000"
     inkscape:window-x="65"
     inkscape:window-y="24"
     inkscape:window-maximized="1"
     fit-margin-top="10"
     fit-margin-left="10"
     fit-margin-right="10"
     fit-margin-bottom="10" />
  <metadata
     id="metadata7">
    <rdf:RDF>
      <cc:Work
         rdf:about="">
        <dc:format>image/svg+xml</dc:format>
        <dc:type
           rdf:resource="http://purl.org/dc/dcmitype/StillImage" />
        <dc:title />
      </cc:Work>
    </rdf:RDF>
  </metadata>
  <g
     inkscape:label="Calque 1"
     inkscape:groupmode="layer"
     id="layer1"
     transform="translate(0,-752.36218)">
    <path
       style="fill:#000000"
       d="m 171.20843,999.24906 c 0.49051,-26.48441 1.7102,-51.0837 2.71045,-54.66511 1.00025,-3.58138 5.87338,-10.56636 10.82921,-15.52218 8.31852,-8.31853 9.64495,-8.78943 17.26998,-6.13133 15.65678,5.45797 15.61309,5.27565 15.84473,66.11793 0.18654,49.02413 -0.30705,56.06553 -4.03123,57.49463 -6.16238,2.3648 -8.14742,-2.6225 -8.92866,-22.433 -0.38186,-9.6827 -1.04447,-26.51001 -1.47247,-37.39403 -0.42798,-10.88401 -0.8789,-26.61635 -1.00202,-34.96076 -0.19182,-13.00659 -0.93125,-15.17165 -5.18084,-15.17165 -8.96972,0 -10.8418,10.23445 -15.20126,83.10384 -1.29975,21.7252 -3.32932,27.553 -9.63809,27.6748 -1.15038,0.021 -1.69028,-21.6286 -1.1998,-48.11314 z m -84.17436,36.20574 c -0.85104,-2.2177 -0.90597,-27.6971 -0.12217,-56.62093 l 1.42522,-52.58862 -8.58328,-9.37078 C 70.42253,906.68706 65,888.99016 65,868.7241 c 0,-12.50949 9.36893,-48.23667 12.64936,-48.23667 1.02946,0 4.66801,-5.27106 8.0857,-11.71347 5.24195,-9.88115 6.06671,-14.69481 5.27256,-30.77283 -1.08152,-21.89581 2.53509,-26.33042 8.986733,-11.01932 7.587777,18.00735 7.982697,31.31107 1.358117,45.75132 -3.28806,7.16727 -7.42765,13.03139 -9.19906,13.03139 -6.55593,0 -15.70834,26.90428 -16.15668,47.49387 -0.29285,13.44942 4.19492,28.214 9.15423,30.11706 4.67448,1.79376 5.86054,-4.0949 6.59746,-32.7556 0.70507,-27.42162 3.92758,-42.21678 9.19513,-42.21678 5.03395,0 6.94856,15.06289 4.37128,34.39018 -2.71536,20.36292 -4.49696,105.45289 -2.20794,105.45289 6.34843,0 9.00779,-27.46059 9.32669,-96.30702 0.18681,-40.33829 2.11949,-50.44791 8.43649,-44.13091 2.43932,2.43931 3.12716,13.7965 2.59549,42.85435 -0.45436,24.83394 0.24855,39.53551 1.89031,39.53551 4.9362,0 6.56289,-11.9265 5.93795,-43.53605 -0.53125,-26.87087 -1.56168,-33.65911 -6.80886,-44.85532 -3.40056,-7.25601 -6.94801,-15.77591 -7.88319,-18.93311 -2.29693,-7.75459 6.50556,-43.26114 11.16856,-45.0505 6.31251,-2.42234 8.37625,5.01422 4.17144,15.03149 -4.36693,10.40348 -5.51301,28.85979 -1.953,31.45097 8.32667,6.06064 14.02414,19.67555 15.75601,37.65138 1.02948,10.6854 1.8012,22.28153 1.71495,25.76919 -0.0863,3.48766 0.6194,5.12826 1.56811,3.64577 1.3634,-2.13045 47.92979,-5.81909 78.24288,-6.19782 10.76842,-0.13457 17.15057,2.89253 17.15057,8.13459 0,4.7949 -1.83002,5.22683 -22.14536,5.22683 -17.25075,0 -22.48104,0.87476 -23.66414,3.95782 -2.92829,7.63103 1.16943,11.87347 11.46842,11.87347 12.47063,0 26.75792,5.90782 30.93334,12.79095 2.07398,3.41892 3.31465,19.27565 3.54916,45.36031 0.29444,32.75101 -0.37657,40.84098 -3.65979,44.12421 -3.48173,3.48175 -4.52464,3.51605 -7.78457,0.2562 -2.86926,-2.86934 -3.8937,-13.11871 -4.30875,-43.1086 -0.29947,-21.63937 -1.05048,-40.16298 -1.66888,-41.1636 -4.42017,-7.152 -60.25816,-4.93485 -63.33204,2.51469 -0.97405,2.36063 -2.71528,17.94654 -3.86936,34.63536 -1.1541,16.68882 -3.4424,33.80695 -5.08514,38.04029 l -2.98678,7.69696 -4.03411,-5.75947 c -3.24425,-4.63184 -3.70505,-10.52992 -2.35342,-30.12465 2.38445,-34.5681 3.16227,-39.79113 7.45632,-50.0682 3.20162,-7.66255 5.81552,-9.64405 16.15726,-12.24811 11.25879,-2.83502 12.2654,-3.73421 11.51056,-10.28253 -0.74048,-6.42394 -1.93894,-7.20625 -11.4376,-7.46614 -5.83576,-0.15964 -13.25668,-1.13023 -16.49093,-2.15673 -5.52298,-1.75292 -5.88286,-1.09362 -5.91937,10.84452 -0.0478,15.5977 -4.19168,24.27002 -14.8968,31.17561 -6.57186,4.2393 -8.49256,7.62654 -9.72809,17.15571 -0.84674,6.5304 -2.25131,17.21652 -3.12132,23.74693 -1.10772,8.31454 -3.81263,13.95639 -9.02426,18.82264 -6.59349,6.15655 -7.66163,9.46706 -9.36447,29.02407 -1.94662,22.3567 -4.63783,31.3098 -9.41133,31.3098 -1.44569,0 -3.32481,-1.8145 -4.17582,-4.0322 z m 96.69789,-177.87036 c -22.8783,-12.10207 -35.80215,-41.75782 -24.4038,-55.9982 13.73617,-17.16109 35.11546,-32.74895 41.53676,-30.28489 8.90444,3.41697 1.07759,17.24057 -9.87418,17.43959 -2.53961,0.0462 -4.61746,1.19125 -4.61746,2.54464 0,1.35342 -2.16332,3.14737 -4.80738,3.98656 -2.64404,0.83919 -7.4134,6.16259 -10.59853,11.82977 -4.89933,8.71719 -5.31279,11.35397 -2.68475,17.12186 5.03465,11.04987 4.7866,11.19475 48.21787,-28.16041 8.59282,-7.78638 11.49399,-8.04311 15.69155,-1.38864 2.06609,3.27547 0.9304,5.66831 -5.0886,10.72137 -14.82336,12.4445 -32.87407,25.64553 -35.06697,25.64553 -1.2137,0 -4.15561,2.15343 -6.5375,4.7854 -3.34067,3.69141 -3.61513,5.50103 -1.20052,7.91565 5.29351,5.29351 16.28805,3.50117 29.35465,-4.7854 13.90771,-8.82001 25.49114,-10.45937 25.49114,-3.60769 0,4.23471 -9.39872,14.16188 -13.40799,14.16188 -1.1255,0 -3.66128,1.48418 -5.63504,3.29818 -11.82682,10.86945 -22.25861,12.23902 -36.36925,4.7748 z"
       id="path3028"
       inkscape:connector-curvature="0" />
  </g>
</svg>
