<?xml version="1.0" encoding="UTF-8" standalone="no"?>
<!-- Created with Inkscape (http://www.inkscape.org/) -->

<svg
   xmlns:dc="http://purl.org/dc/elements/1.1/"
   xmlns:cc="http://creativecommons.org/ns#"
   xmlns:rdf="http://www.w3.org/1999/02/22-rdf-syntax-ns#"
   xmlns:svg="http://www.w3.org/2000/svg"
   xmlns="http://www.w3.org/2000/svg"
   xmlns:sodipodi="http://sodipodi.sourceforge.net/DTD/sodipodi-0.dtd"
   xmlns:inkscape="http://www.inkscape.org/namespaces/inkscape"
   width="300"
   height="300"
   id="svg2"
   version="1.1"
   inkscape:version="0.48.4 r9939"
   sodipodi:docname="image-seal.svg">
  <defs
     id="defs4" />
  <sodipodi:namedview
     id="base"
     pagecolor="#ffffff"
     bordercolor="#666666"
     borderopacity="1.0"
     inkscape:pageopacity="0.0"
     inkscape:pageshadow="2"
     inkscape:zoom="1.979899"
     inkscape:cx="200.43343"
     inkscape:cy="134.48103"
     inkscape:document-units="px"
     inkscape:current-layer="layer1"
     showgrid="false"
     inkscape:window-width="1215"
     inkscape:window-height="1000"
     inkscape:window-x="65"
     inkscape:window-y="24"
     inkscape:window-maximized="1" />
  <metadata
     id="metadata7">
    <rdf:RDF>
      <cc:Work
         rdf:about="">
        <dc:format>image/svg+xml</dc:format>
        <dc:type
           rdf:resource="http://purl.org/dc/dcmitype/StillImage" />
        <dc:title />
      </cc:Work>
    </rdf:RDF>
  </metadata>
  <g
     inkscape:label="Calque 1"
     inkscape:groupmode="layer"
     id="layer1"
     transform="translate(0,-752.36218)">
    <path
       style="fill:#000000"
       d="m 81.902944,982.7274 0,-59.90381 -6.532987,-6.53299 c -9.120083,-9.12008 -11.61905,-17.1902 -11.699827,-37.78333 -0.145532,-37.09732 4.606408,-55.80687 17.049899,-67.13022 7.531423,-6.85341 8.863223,-9.7731 9.143515,-20.04499 0.782512,-28.67829 1.78769,-31.65037 8.750083,-25.87209 3.272503,2.71592 3.870913,6.81845 2.928953,20.07992 -1.32984,18.72227 -3.329585,25.09482 -9.637385,30.71083 -2.389134,2.12713 -6.929675,8.42397 -10.090052,13.99297 -8.05799,14.19925 -10.202476,53.76595 -3.720323,68.64152 l 4.434602,10.1767 2.061036,-7.63254 c 1.133558,-4.19786 2.613174,-18.50888 3.287993,-31.80219 1.233619,-24.30073 3.546786,-43.44464 5.483412,-45.3813 0.57338,-0.57336 2.955824,-0.30829 5.294278,0.58909 3.508599,1.34635 3.947999,3.73603 2.513929,13.67122 -2.282205,15.81065 -5.040295,54.23482 -8.056263,112.23539 -1.131398,21.758 -0.811161,30.99184 1.035275,29.85067 4.377077,-2.70518 7.975178,-26.22093 9.192948,-60.08155 1.38991,-38.64664 5.5842,-87.97443 7.78281,-91.53189 4.88839,-7.90959 6.37905,0.70768 6.26143,36.19607 -0.15955,48.10706 -0.23585,46.37826 1.95453,44.18777 4.43033,-4.43033 8.1417,-27.83157 8.24504,-51.98756 0.11323,-26.47951 -1.38052,-32.45566 -10.57021,-42.28742 -4.23775,-4.53388 -4.79723,-8.36685 -4.10816,-28.14623 0.73962,-21.23076 1.19759,-22.95456 6.29155,-23.68038 5.33762,-0.7605 5.45376,-0.19743 4.08333,19.79668 -1.25063,18.24611 -0.82782,21.21953 3.72886,26.22455 10.17735,11.17875 11.52069,17.10116 11.62554,51.25343 0.0689,22.49341 -1.0673,36.55523 -3.51015,43.43651 -3.39108,9.5524 -5.01016,12.1244 -15.32827,24.34933 -2.60626,3.08789 -4.71724,12.43706 -5.83528,25.84331 -1.78469,21.40006 -4.1192,27.21981 -15.473299,38.57391 -5.421537,5.42154 -6.410103,8.75652 -6.410103,21.62512 0,16.1292 -3.250388,28.2672 -7.56956,28.2672 -1.706251,0 -2.607144,-20.6994 -2.607144,-59.9037 z m 77.011216,26.0776 c -23.64134,-5.4443 -24.15127,-6.5305 -22.49527,-47.92039 1.2188,-30.46228 2.29563,-37.44797 7.32826,-47.53957 5.29389,-10.61557 7.05823,-12.04649 17.18679,-13.9388 12.93124,-2.41599 55.85688,-0.55181 58.11827,2.52394 0.82958,1.12831 4.61435,3.65153 8.41057,5.60714 l 6.90222,3.55563 0.0478,41.58143 c 0.0486,42.22153 -1.75174,52.51152 -9.74464,55.69382 -7.97573,3.1755 -52.57498,3.4718 -65.75408,0.4368 z m 56.96058,-11.37774 c 1.62069,-1.03126 3.68474,-5.87947 4.58673,-10.7738 4.92875,-26.743 2.63169,-31.59963 -13.70992,-28.98651 -11.52841,1.84346 -21.31997,8.103 -16.08507,10.28288 1.97217,0.8212 3.18023,6.39804 3.18023,14.68119 0,7.3463 0.76325,14.12019 1.69612,15.05302 2.27405,2.27411 16.6396,2.09261 20.33191,-0.25678 z m -35.10696,-14.67361 c 0.0927,-7.74526 0.88191,-15.23715 1.75424,-16.64857 0.87231,-1.41145 0.2801,-4.13982 -1.31601,-6.06302 -3.52434,-4.24658 -28.19448,-2.68627 -31.15549,1.9705 -3.1159,4.90032 -2.27058,27.09718 1.18122,31.01777 1.94638,2.21069 8.26035,3.64965 16.27403,3.70888 l 13.09379,0.0967 0.16813,-14.08235 z m -0.92953,-40.12717 c 0.70419,-3.06823 1.5682,-10.62109 1.92001,-16.78406 0.58907,-10.31963 0.0797,-11.36001 -6.44478,-13.16042 -8.22745,-2.27041 -19.81729,2.6953 -22.57487,9.67223 -2.19844,5.5623 -2.67307,22.22002 -0.6896,24.20347 0.79932,0.79933 7.0908,1.497 13.98108,1.55034 10.8493,0.0839 12.69932,-0.65036 13.80816,-5.48156 z m 40.80206,0.53056 c 0.93208,-2.93681 0.93975,-10.37414 0.0183,-16.52743 -1.78328,-11.89183 -6.58278,-15.16248 -19.55536,-13.32624 -5.51732,0.78095 -6.04176,2.18401 -6.73548,18.02008 l -0.75227,17.1732 12.66567,0 c 10.62993,0 12.93808,-0.85827 14.36043,-5.33961 z m -44.60284,-60.80897 c -2.09894,-1.35646 -7.06738,-2.48381 -11.041,-2.50524 -10.84016,-0.0585 -16.54578,-8.72148 -16.56527,-25.15169 -0.0204,-18.18218 6.06679,-24.92623 23.79001,-26.35218 6.99647,-0.5629 13.86575,-1.37037 15.26505,-1.79441 1.39929,-0.42401 8.95208,-0.63535 16.78391,-0.46965 21.11666,0.44679 25.19501,4.97101 25.19501,27.94962 0,10.40179 -1.08586,18.14682 -2.54419,18.14682 -1.39929,0 -2.5531,1.43111 -2.56403,3.18023 -0.0107,1.74912 -3.10135,4.61132 -6.86765,6.36045 -8.074,3.74969 -35.97143,4.17775 -41.45184,0.63605 z m 27.60088,-11.44041 c 12.80937,-2.39349 15.65012,-5.43706 15.65012,-16.76753 0,-11.95585 -2.9539,-13.77131 -26.10706,-16.04538 -17.74943,-1.74329 -25.4663,0.30556 -31.69206,8.41437 -7.0901,9.23464 -1.60841,23.11806 9.12788,23.11806 2.81597,0 5.694,0.92882 6.3956,2.06409 1.3917,2.25182 12.06103,1.93781 26.62552,-0.78361 z m -60.76465,-66.2648 c -7.00834,-8.44453 0.67819,-9.94968 48.66383,-9.52921 47.2524,0.41404 56.7431,2.2935 50.36839,9.97459 -4.50343,5.42629 -94.49507,5.02158 -99.03222,-0.44538 z"
       id="path3080"
       inkscape:connector-curvature="0" />
  </g>
</svg>
