<?xml version="1.0" encoding="UTF-8" standalone="no"?>
<!-- Created with Inkscape (http://www.inkscape.org/) -->

<svg
   xmlns:dc="http://purl.org/dc/elements/1.1/"
   xmlns:cc="http://creativecommons.org/ns#"
   xmlns:rdf="http://www.w3.org/1999/02/22-rdf-syntax-ns#"
   xmlns:svg="http://www.w3.org/2000/svg"
   xmlns="http://www.w3.org/2000/svg"
   xmlns:sodipodi="http://sodipodi.sourceforge.net/DTD/sodipodi-0.dtd"
   xmlns:inkscape="http://www.inkscape.org/namespaces/inkscape"
   width="300"
   height="300"
   viewBox="0 0 300 300"
   id="svg2"
   version="1.1"
   inkscape:version="0.91 r13725"
   sodipodi:docname="愛-seal.svg">
  <defs
     id="defs4" />
  <sodipodi:namedview
     id="base"
     pagecolor="#ffffff"
     bordercolor="#666666"
     borderopacity="1.0"
     inkscape:pageopacity="0.0"
     inkscape:pageshadow="2"
     inkscape:zoom="1.71"
     inkscape:cx="154.25731"
     inkscape:cy="150"
     inkscape:document-units="px"
     inkscape:current-layer="layer1"
     showgrid="false"
     inkscape:window-width="1280"
     inkscape:window-height="751"
     inkscape:window-x="0"
     inkscape:window-y="1"
     inkscape:window-maximized="1"
     units="px" />
  <metadata
     id="metadata7">
    <rdf:RDF>
      <cc:Work
         rdf:about="">
        <dc:format>image/svg+xml</dc:format>
        <dc:type
           rdf:resource="http://purl.org/dc/dcmitype/StillImage" />
        <dc:title></dc:title>
      </cc:Work>
    </rdf:RDF>
  </metadata>
  <g
     inkscape:label="Layer 1"
     inkscape:groupmode="layer"
     id="layer1"
     transform="translate(0,-752.36216)">
    <path
       style="fill:#000000"
       d="m 200.66461,1029.2524 c -14.07889,-10.3292 -23.481,-23.4917 -26.86935,-37.616 -4.21421,-17.56678 1.15317,-34.16068 16.38375,-50.65239 12.75844,-13.81487 18.9766,-22.79937 20.98948,-30.32724 3.26476,-12.20986 4.36105,-24.17548 2.59773,-28.35327 -0.048,-17.93223 -21.3877,-32.81743 -43.63608,-35.42063 -3.0617,0 -3.43835,-0.22999 -2.12024,6.82662 0.88158,4.71955 1.76849,8.62194 1.97086,8.67196 0.20251,0.0501 4.19499,2.06766 8.87242,4.48359 9.21723,4.76081 12.3828,12.27729 9.91072,23.53259 -2.48273,11.30375 -16.3538,23.34613 -26.96509,23.41013 -8.65705,0.0522 -15.47686,2.62135 -15.47686,5.83035 0,1.67174 4.70925,7.45339 10.465,12.84812 5.33653,8.22858 8.35593,4.3914 5.42459,13.89006 -4.13348,3.34707 -5.67575,3.56059 -8.57148,1.18665 -5.71928,-4.68871 -21.04772,-29.55273 -21.04772,-34.14119 0,-2.85178 -1.67073,-4.22268 -5.1486,-4.22455 -8.99191,-0.005 -22.31062,-15.07875 -22.31062,-25.25074 0,-6.88986 5.38462,-16.17209 13.64206,-23.51676 8.5152,-7.57396 7.98654,-12.13885 -1.2966,-11.19586 -19.146333,1.94494 -30.651603,16.14087 -30.651603,37.81986 0,28.01576 13.586713,45.02897 35.960043,45.02897 3.04131,0 7.69421,1.15843 10.33979,2.5743 6.53309,3.248 5.24583,2.34111 -0.4753,5.40297 -7.24639,3.87815 -24.79702,1.63901 -33.239063,-4.24067 -16.99428,-11.83616 -21.73854,-22.86071 -21.73854,-50.51525 1.304629,-24.14234 8.563187,-35.28201 26.377983,-43.23886 2.4825,-1.68483 10.1771,-3.26808 17.09911,-3.51833 17.42669,-0.63001 20.59441,-1.92917 20.59441,-8.44629 0,-3.06155 -0.25743,-5.59498 -0.57207,-5.62983 -0.31463,-0.0348 -8.29497,-0.66161 -17.73407,-1.39275 -18.8846,-1.46283 -26.536133,-4.97111 -29.849633,-13.68627 -2.73364,-7.19004 -2.79208,-26.12294 -0.0938,-30.38436 2.5003,-3.94866 8.926073,-1.76924 10.950183,3.71395 2.37422,6.43166 5.37292,7.41646 22.69639,7.45374 l 16.28865,0.035 1.27191,-9.48286 c 1.12645,-8.39812 4.32915,-13.2579 8.80775,-13.36479 2.31632,-0.0554 4.39576,10.65873 2.85036,14.68602 -0.76895,2.00385 -0.0483,5.2699 1.60167,7.25786 2.39502,2.88582 6.94444,3.4788 22.5666,2.9414 21.33662,-0.73396 29.86408,1.02865 29.86408,6.17279 0,2.76636 -3.55892,3.09793 -21.16648,1.97203 -11.64157,-0.7444 -22.45363,-1.76307 -24.02682,-2.26374 -5.55092,-1.76654 -9.72514,1.75691 -9.72514,8.20893 0,3.56673 0.96261,7.07986 2.1391,7.80698 1.17651,0.72712 13.27573,1.46646 26.88715,1.64298 26.03545,0.33761 35.31072,2.53295 30.59805,7.2422 -1.71729,1.71607 -12.4771,2.64835 -30.56522,2.64835 l -27.91494,0 0,5.72067 c 0,5.42089 0.86453,5.80692 16.49697,7.36624 41.49023,5.71567 57.03085,29.00668 47.90381,69.29074 -4.05078,15.20156 -8.56109,23.31594 -19.07873,34.32402 -14.81052,15.50112 -19.00697,22.79856 -19.00697,33.05222 0,17.43679 14.6029,38.06844 33.18604,46.88674 5.93792,2.8177 8.00278,5.2459 8.00278,9.4109 0,8.3712 -10.12982,7.3014 -23.45845,-2.4773 z M 150.86768,898.45714 c 3.71221,-7.89741 4.68093,-13.04917 3.65736,-19.45028 -1.05129,-6.5744 -0.61355,-8.70743 1.78689,-8.70743 5.66786,0 8.93434,6.3672 7.32623,14.28072 -5.10023,25.09813 -4.40766,26.57789 7.67916,16.4075 5.65181,-4.75569 7.04038,-7.68925 7.04038,-14.87375 0,-4.92231 -0.95052,-8.94966 -2.11226,-8.94966 -1.16173,0 -5.28061,-3.16839 -9.15307,-7.04082 -5.46928,-5.46931 -7.04081,-9.04454 -7.04081,-16.01788 0,-9.37595 -3.73855,-11.60785 -11.3646,-6.78464 -2.11177,1.33561 -4.40722,1.24962 -6.19251,-0.23203 -3.86754,-3.2098 -7.60641,-0.46681 -7.64888,5.61154 -0.0442,6.31807 -1.39458,8.12326 -11.97837,16.01229 -6.67593,4.97614 -8.581,7.9618 -8.581,13.4482 0,6.47751 6.79979,15.59775 11.62923,15.59775 0.97674,0 2.95163,-5.66347 4.38864,-12.58548 1.78972,-8.62105 3.71361,-12.58547 6.10759,-12.58547 2.91837,0 3.23511,2.2379 1.92023,13.567 -2.82437,24.33484 3.81646,30.85203 12.53579,12.30244 z m -7.43279,-91.08284 c 1.38194,-11.0322 1.60882,-10.65084 -11.3513,-10.00657 -5.38361,0.26763 -13.45852,-0.28381 -17.94414,-1.2231 -10.62033,-2.22388 -15.028573,2.11843 -11.0392,10.87412 2.41945,5.31016 4.14355,5.95641 17.80169,6.67275 8.31754,0.43622 20.23719,0.99483 21.59921,1.24132 1.36202,0.24649 0.36119,-2.98782 0.93374,-7.55852 z m -23.24602,225.0104 c -0.53048,-1.6779 -2.26275,-11.5558 -3.8495,-21.951 -2.59494,-17.00044 -3.32712,-18.76014 -7.28324,-17.5045 -11.581893,3.67594 -29.223523,4.68191 -31.613093,1.80268 -4.12529,-4.97067 -0.0316,-7.73078 11.46578,-7.73078 14.099563,0 22.463603,-3.92189 22.418363,-8.80487 -0.0778,-8.40341 -0.35737,-9.8711 -15.004303,-8.21399 -11.7063,1.32441 -14.07244,1.01339 -14.07244,-1.84981 0,-3.57302 9.04253,-6.30228 20.880453,-6.30228 4.95975,0 6.57877,-1.08022 6.57877,-4.38938 0,-6.08194 2.35646,-11.62849 4.94039,-11.62849 1.18935,0 3.23937,3.08916 4.55556,6.8648 2.26071,6.48507 3.07689,6.8648 14.75472,6.8648 10.8361,0 12.36162,-0.56476 12.36162,-4.57653 0,-4.47121 5.46784,-6.39983 7.73663,-2.72888 0.62804,1.01622 1.83187,7.04885 2.67517,13.40584 1.34095,10.1087 0.89622,12.15162 -3.54634,16.29051 -2.79374,2.60279 -10.19489,5.95947 -16.44701,7.45934 l -11.36745,2.72702 0.74936,20.66622 c 0.54502,15.0309 -0.0302,20.9366 -2.10976,21.658 -1.57255,0.5456 -3.29319,-0.3809 -3.82368,-2.0587 z m 19.66016,-53.7472 c 6.38168,-5.77533 5.04161,-9.20467 -4.18172,-10.70143 -10.50994,-1.70551 -12.22804,-0.61538 -12.22804,7.75874 0,5.76795 0.87359,6.72975 6.11256,6.72975 3.3619,0 7.99564,-1.70416 10.2972,-3.78706 z"
       id="path6609"
       inkscape:connector-curvature="0"
       sodipodi:nodetypes="csssccscssssccsscsssssccsccsscssssscscscssssssssscsccssssccsssssssssssssssssssssssssscssssssssssssscssscsccsssss" />
  </g>
</svg>
