<?xml version="1.0" encoding="UTF-8" standalone="no"?>
<!-- Created with Inkscape (http://www.inkscape.org/) -->

<svg
   xmlns:dc="http://purl.org/dc/elements/1.1/"
   xmlns:cc="http://creativecommons.org/ns#"
   xmlns:rdf="http://www.w3.org/1999/02/22-rdf-syntax-ns#"
   xmlns:svg="http://www.w3.org/2000/svg"
   xmlns="http://www.w3.org/2000/svg"
   xmlns:sodipodi="http://sodipodi.sourceforge.net/DTD/sodipodi-0.dtd"
   xmlns:inkscape="http://www.inkscape.org/namespaces/inkscape"
   width="300"
   height="300"
   id="svg2"
   version="1.1"
   inkscape:version="0.92.4 (5da689c313, 2019-01-14)"
   sodipodi:docname="image-bigseal.svg">
  <defs
     id="defs4" />
  <sodipodi:namedview
     id="base"
     pagecolor="#ffffff"
     bordercolor="#666666"
     borderopacity="1.0"
     inkscape:pageopacity="0.0"
     inkscape:pageshadow="2"
     inkscape:zoom="1.4142136"
     inkscape:cx="208.9223"
     inkscape:cy="147.6903"
     inkscape:document-units="px"
     inkscape:current-layer="layer1"
     showgrid="false"
     inkscape:window-width="1872"
     inkscape:window-height="1016"
     inkscape:window-x="48"
     inkscape:window-y="27"
     inkscape:window-maximized="1" />
  <metadata
     id="metadata7">
    <rdf:RDF>
      <cc:Work
         rdf:about="">
        <dc:format>image/svg+xml</dc:format>
        <dc:type
           rdf:resource="http://purl.org/dc/dcmitype/StillImage" />
        <dc:title />
      </cc:Work>
    </rdf:RDF>
  </metadata>
  <g
     inkscape:label="Calque 1"
     inkscape:groupmode="layer"
     id="layer1"
     transform="translate(0,-752.36218)">
    <path
       style="fill:#000000;stroke-width:5.95533276"
       d="m 156.42561,1019.8816 c -13.42117,-19.0267 -23.57558,-26.98382 -37.23012,-29.17433 -15.84446,-2.54183 -19.05014,-5.88485 -20.534713,-21.41475 -1.38274,-14.46437 1.385603,-20.12483 12.935603,-26.44962 8.37045,-4.58361 15.71601,-14.81177 17.06755,-23.76532 2.07722,-13.76082 2.48258,-13.30655 3.25484,3.64766 0.62865,13.80143 -2.50125,21.21879 -10.89275,25.81397 -14.05901,7.69868 -15.54832,27.34942 -2.46221,32.48754 13.73798,5.39408 14.23709,4.99427 14.23709,-11.40351 0,-8.28301 2.64934,-15.06002 5.88744,-15.06002 3.23809,0 5.88744,6.25888 5.88744,13.90865 0,7.64977 3.71155,19.10226 8.24791,25.45 7.69599,10.76903 8.76223,9.73753 15.93389,-15.41466 7.06156,-24.76597 7.86182,-25.57162 9.85012,-9.91655 1.55624,12.2532 4.6576,16.06044 11.04109,13.55403 4.88234,-1.91696 9.98496,-3.48544 11.33917,-3.48544 7.93519,0 0.56932,-24.70868 -8.91395,-29.90173 -14.1696,-7.75923 -21.38475,-29.34717 -12.75844,-38.17355 4.70475,-4.81391 6.47227,-3.29983 6.47227,5.54408 0,6.69153 6.62337,18.05895 14.71861,25.26096 22.87371,20.34977 16.51154,49.31826 -10.83146,49.31826 -6.28111,0 -14.72636,4.62632 -18.76721,10.28063 -5.96113,8.3415 -5.65549,12.9222 1.62032,24.2841 16.50439,25.7732 2.59561,21.1172 -16.10249,-5.3904 z m -94.742819,-8.0903 c -5.88877,-10.3952 5.044163,-232.9914 11.782113,-239.8857 8.993912,-9.20252 146.687626,-13.50251 155.148786,-4.84511 4.91323,5.02722 -2.81765,6.78243 -29.87347,6.78243 -28.52137,0 -36.50213,1.97564 -36.50213,9.03602 0,5.66546 5.59009,9.03601 14.98621,9.03601 15.17169,0 43.88818,23.83394 43.88818,36.42611 0,3.76946 -5.29869,13.74612 -11.77488,22.17022 -15.67053,20.38398 -14.85331,30.82883 3.98638,50.94939 21.68222,23.15635 12.65806,28.89181 -9.60964,6.10756 -20.77854,-21.26054 -23.04461,-42.78258 -6.15162,-58.42518 16.10041,-14.90865 14.76952,-29.45633 -3.61581,-39.52413 -29.12471,-15.94863 -84.69577,-5.3221 -84.69577,16.19585 0,5.15896 5.29869,16.27241 11.77488,24.69651 6.47618,8.42409 11.77488,20.00706 11.77488,25.73981 0,14.38473 -22.34213,42.16807 -33.909713,42.16807 -7.247849,0 -5.74811,-4.01272 6.314743,-16.89566 18.73553,-20.00929 19.48619,-29.17037 4.04521,-49.36845 -6.33219,-8.28301 -11.571963,-19.60719 -11.643963,-25.16482 -0.16078,-12.41084 26.897463,-35.07528 41.875133,-35.07528 6.03949,0 10.98091,-4.0662 10.98091,-9.03601 0,-6.80972 -7.14904,-9.03602 -29.01666,-9.03602 -43.793409,0 -47.376868,6.40208 -48.289568,86.27244 -0.936598,81.96207 -6.830531,159.87314 -11.474201,151.67594 z M 150.46322,873.23908 c 0,-31.11123 -0.87654,-33.13205 -14.37115,-33.13205 -7.90411,0 -16.00852,-2.7108 -18.00977,-6.02401 -2.29451,-3.79868 11.71374,-6.02401 37.9209,-6.02401 23.78139,0 41.55952,2.57689 41.55952,6.02401 0,3.31321 -7.94804,6.02401 -17.66232,6.02401 -17.4839,0 -17.66231,0.33494 -17.66231,33.13205 0,18.22263 -2.64935,33.13206 -5.88744,33.13206 -3.23809,0 -5.88743,-14.90943 -5.88743,-33.13206 z"
       id="path241"
       inkscape:connector-curvature="0" />
  </g>
</svg>
