<?xml version="1.0" encoding="UTF-8" standalone="no"?>
<svg
   xmlns:dc="http://purl.org/dc/elements/1.1/"
   xmlns:cc="http://creativecommons.org/ns#"
   xmlns:rdf="http://www.w3.org/1999/02/22-rdf-syntax-ns#"
   xmlns:svg="http://www.w3.org/2000/svg"
   xmlns="http://www.w3.org/2000/svg"
   viewBox="0 0 300 300"
   height="300"
   width="300"
   id="svg2"
   version="1.1">
  <metadata
     id="metadata8">
    <rdf:RDF>
      <cc:Work
         rdf:about="">
        <dc:format>image/svg+xml</dc:format>
        <dc:type
           rdf:resource="http://purl.org/dc/dcmitype/StillImage" />
        <dc:title></dc:title>
      </cc:Work>
    </rdf:RDF>
  </metadata>
  <defs
     id="defs6" />
  <path
     id="path12"
     d="m 80.186847,284.13627 c -1.870591,-2.29632 -2.155881,-11.07699 -1.532259,-47.15956 0.675723,-39.09648 1.151359,-45.03805 4.553599,-56.88314 0.947267,-3.29794 2.861778,-8.44103 4.254478,-11.42907 2.411854,-5.17465 3.012532,-5.85264 12.641965,-14.26886 9.15155,-7.99854 13.50274,-12.70807 15.77807,-17.07746 0.75708,-1.45383 0.50067,-1.69021 -4.63338,-4.27157 -10.69552,-5.37759 -11.927873,-7.13748 -14.234394,-20.32772 -2.332824,-13.34066 -3.1519,-23.064584 -3.15912,-37.504506 -0.0086,-17.88461 1.18158,-30.816393 3.959761,-43.01224 1.022767,-4.489763 1.482232,-5.343905 3.950963,-7.344744 6.31265,-5.116249 14.3367,-7.703903 26.90608,-8.67687 13.07012,-1.01173 65.02545,-1.594005 74.23112,-0.831924 6.8991,0.571132 8.01343,0.844227 9.41835,2.308184 0.8764,0.913225 1.77948,2.465456 2.00685,3.449403 0.37079,1.604523 0.0765,1.940745 -2.854,3.26066 -6.61077,2.97753 -8.54198,3.16722 -32.63418,3.205427 l -23.14792,0.03671 -0.25154,1.727457 c -0.13836,0.950101 0.48037,3.84981 1.37495,6.443799 l 1.62653,4.716343 6.22585,3.060596 c 4.16591,2.04795 9.9981,4.043074 17.62704,6.030017 l 11.40122,2.969422 0.44499,-2.109079 c 0.24474,-1.159992 0.66401,-4.262442 0.93169,-6.894332 0.40375,-3.969583 0.81941,-5.117952 2.43854,-6.73708 1.10221,-1.102209 2.70479,-1.951826 3.68161,-1.951826 1.41937,0 2.07788,0.71148 3.6695,3.964628 l 1.93972,3.964629 -0.18852,27.647824 c -0.24461,35.873982 -1.2521,46.221692 -5.42068,55.673912 -1.87116,4.24284 -5.316,7.03811 -10.26078,8.32593 -5.19239,1.35231 -6.23679,2.18211 -6.05325,4.80942 0.18727,2.68068 2.83985,5.31645 13.62792,13.54158 10.36416,7.90191 14.35045,14.16625 18.61401,29.25137 2.3085,8.16782 3.12942,13.62477 3.87742,25.77452 0.89738,14.57601 0.85777,32.6086 -0.12273,55.88149 l -0.83473,19.81305 -2.46213,0.43503 c -1.35417,0.23926 -3.00603,0.59479 -3.6708,0.79006 -1.41971,0.41703 -2.21755,-1.3084 -3.71287,-8.02953 -0.79871,-3.59004 -0.98998,-11.08547 -0.95309,-37.34918 0.0503,-35.78769 -0.53377,-45.94651 -3.16313,-55.01992 -3.4379,-11.86345 -6.78185,-16.75602 -15.73028,-23.01516 -6.45286,-4.51357 -7.60381,-5.68714 -14.27138,-14.55187 l -7.25245,-9.64236 h -20.11229 -20.11228 l -2.9372,6.50103 c -3.43731,7.60796 -5.64851,10.06532 -15.9537,17.72973 -10.470132,7.7871 -13.047275,11.41255 -15.820529,22.25587 -2.275444,8.89691 -2.787056,17.26734 -3.462226,56.64474 -0.619666,36.14084 -0.745573,38.71676 -2.034996,41.6317 -1.330765,3.00841 -1.471864,3.1072 -4.438127,3.1072 -1.68502,0 -3.380286,-0.38867 -3.767265,-0.86373 z M 177.21796,125.46183 c 12.01114,-1.54036 14.04564,-2.50441 15.22,-7.21209 2.21316,-8.87191 2.9981,-32.578417 1.5303,-46.21802 -0.42079,-3.910319 -0.87855,-7.230577 -1.01725,-7.378352 -0.13868,-0.147773 -6.03158,-1.628812 -13.09534,-3.291194 -13.12606,-3.089084 -16.31033,-4.326274 -24.38854,-9.475705 -2.53614,-1.616658 -4.94839,-3.140599 -5.36055,-3.386536 -0.41215,-0.245938 -2.38317,0.78046 -4.38005,2.280886 -5.62162,4.224004 -11.40188,6.626984 -20.43693,8.49608 -7.53795,1.559388 -17.24121,4.637884 -18.4441,5.851653 -0.26407,0.266464 -0.82351,3.869907 -1.2432,8.007654 -1.35437,13.353012 0.90358,34.509854 4.77341,44.726524 1.44763,3.82187 1.53544,3.90237 5.7735,5.2928 3.70347,1.21505 8.66859,2.11393 17.43218,3.15594 1.14013,0.13555 9.22462,0.28199 17.96555,0.32542 11.69627,0.0581 18.47453,-0.25215 25.67102,-1.17506 z m -48.12795,-15.67944 c -8.26862,-1.47458 -10.29317,-1.93296 -12.58115,-2.84844 -2.40145,-0.96086 -2.62047,-1.27206 -2.62047,-3.72336 0,-2.42052 0.26019,-2.80759 2.7364,-4.07086 2.61974,-1.33649 4.00058,-1.396 32.38981,-1.396 16.30937,0 30.65721,0.20075 31.88409,0.44613 1.47498,0.295 2.67381,1.17282 3.5387,2.59119 2.05742,3.37398 1.7061,4.46488 -1.96898,6.11394 -2.75648,1.23688 -5.21892,1.55189 -15.37437,1.96684 -21.51956,0.87929 -36.23651,1.23577 -38.00403,0.92056 z m -4.49139,-26.84505 c -2.66028,-0.530502 -6.08065,-1.409985 -7.6008,-1.954396 -2.42898,-0.869886 -2.7891,-1.282039 -2.97155,-3.400855 -0.18474,-2.145511 0.099,-2.613884 2.57638,-4.253357 l 2.78397,-1.842348 h 30.09475 c 33.84827,0 34.10661,0.03233 35.56498,4.451258 1.99836,6.055111 -0.50539,6.494769 -43.51866,7.641794 -8.72102,0.232556 -13.44066,0.05355 -16.92907,-0.642096 z m -5.87335,-33.15889 c 10.86407,-2.267448 15.9922,-4.413689 21.93811,-9.181598 1.81807,-1.457872 2.93726,-4.881768 2.93726,-8.985839 0,-3.906715 -1.25816,-4.49133 -9.58271,-4.452676 -7.90943,0.03673 -16.43402,1.56479 -20.78547,3.725872 -3.00743,1.493597 -3.2104,1.787521 -4.65693,6.744029 -0.83185,2.850303 -1.53148,7.125758 -1.55471,9.50101 -0.0417,4.262119 -0.0174,4.318569 1.85795,4.313161 1.0451,-0.003 5.47603,-0.751795 9.8465,-1.663959 z m 29.94433,215.69298 c -6.79247,-13.0621 -10.35707,-20.745 -11.64977,-25.10905 l -1.8626,-6.28808 -9.4252,-1.57912 c -5.18386,-0.86851 -10.35803,-1.96705 -11.49815,-2.44118 -3.77207,-1.56867 -7.80755,-5.75444 -10.16297,-10.54146 -2.17586,-4.4221 -2.27427,-4.96884 -2.26451,-12.58143 0.017,-13.28899 2.36473,-18.09198 14.09257,-28.83097 7.84847,-5.78151 8.42576,-8.54499 10.7369,-17.477 1.42585,-5.51059 2.83136,-10.27372 3.12335,-10.58475 0.71634,-0.76305 4.89977,1.06945 6.47192,2.83494 2.55425,2.86841 2.21175,9.81238 -0.99572,20.1875 -1.31306,4.24728 -1.87585,4.96873 -10.35535,13.27459 -5.42977,5.31858 -9.38772,9.79052 -10.03382,11.33683 -1.11883,2.67777 -1.45523,11.56008 -0.59231,15.63991 1.00409,4.74733 6.12658,8.03649 12.92146,8.29688 l 4.33304,0.16605 0.24125,-2.76393 c 0.13267,-1.52016 -0.30156,-7.44742 -0.96497,-13.1717 -0.70069,-6.04598 -0.99614,-11.52747 -0.70498,-13.07951 0.58372,-3.11148 4.33653,-7.26144 6.56653,-7.26144 3.40501,0 6.26338,11.94184 6.26338,26.16742 0,5.67324 0.42475,11.8714 1.03188,15.05801 0.96696,5.07514 4.65786,14.05318 5.7773,14.05318 0.27707,0 1.38556,-1.78792 2.46334,-3.97316 3.84521,-7.79628 4.44491,-11.22223 5.1731,-29.55304 0.6514,-16.39789 1.25451,-19.29764 4.35874,-20.95684 2.5671,-1.37209 4.19012,-0.76397 5.58688,2.09335 2.02864,4.14997 2.42238,9.07971 1.71669,21.49337 -0.72851,12.8154 -0.70816,12.89932 3.13413,12.92019 1.07152,0.006 4.22725,-0.93817 7.0127,-2.09777 4.81817,-2.0058 5.13888,-2.28128 6.59419,-5.66428 1.88235,-4.37562 2.47449,-10.21156 1.49457,-14.73018 -0.67096,-3.09402 -1.59216,-4.271 -9.96916,-12.7373 -10.64582,-10.75929 -12.7795,-14.23534 -13.4188,-21.86095 -0.22166,-2.6439 -0.0256,-7.01652 0.43794,-9.76431 l 0.83934,-4.97624 2.76765,-0.74525 c 2.39588,-0.64514 2.90315,-0.5769 3.77642,0.50795 1.98365,2.4643 3.00836,5.76263 3.01215,9.69554 0.007,7.39148 0.6569,8.51786 10.30738,17.86782 6.38087,6.18215 9.47721,9.7521 11.17681,12.88641 2.30236,4.24591 2.35085,4.50636 2.35085,12.62713 0,11.63353 -1.60377,16.68659 -6.87982,21.67646 -5.95265,5.62976 -14.75344,8.96537 -21.61422,8.19207 l -3.01795,-0.34018 -5.14623,10.27531 c -2.83042,5.65141 -5.14622,10.99759 -5.14622,11.88037 0,2.20199 2.60907,8.62259 6.45667,15.88912 4.77524,9.01842 4.21673,12.93544 -1.8419,12.918 l -2.88731,-0.009 -9.78717,-18.82096 z"
     style="fill:#000000;stroke-width:0.69098258" />
</svg>
