<?xml version="1.0" encoding="UTF-8" standalone="no"?>
<svg
   xmlns:dc="http://purl.org/dc/elements/1.1/"
   xmlns:cc="http://creativecommons.org/ns#"
   xmlns:rdf="http://www.w3.org/1999/02/22-rdf-syntax-ns#"
   xmlns:svg="http://www.w3.org/2000/svg"
   xmlns="http://www.w3.org/2000/svg"
   viewBox="0 0 300 300"
   height="300"
   width="300"
   id="svg391"
   version="1.1">
  <metadata
     id="metadata397">
    <rdf:RDF>
      <cc:Work
         rdf:about="">
        <dc:format>image/svg+xml</dc:format>
        <dc:type
           rdf:resource="http://purl.org/dc/dcmitype/StillImage" />
        <dc:title></dc:title>
      </cc:Work>
    </rdf:RDF>
  </metadata>
  <defs
     id="defs395" />
  <path
     id="path401"
     d="m 181.45554,282.06765 c -1.19867,-2.74099 -1.2955,-5.82233 -1.4833,-47.20389 l -0.20093,-44.27148 -5.66389,-0.44087 c -3.11512,-0.24247 -13.58137,-0.50215 -23.2583,-0.57705 -16.59305,-0.12843 -17.75358,-0.22139 -20.39087,-1.63329 -2.75279,-1.47374 -4.44832,-3.90693 -4.44832,-6.38358 0,-0.95566 1.19282,-1.64451 4.92665,-2.84509 5.74743,-1.84805 10.4624,-2.00382 33.12584,-1.09438 l 14.93824,0.59945 0.47333,-5.77428 c 0.26033,-3.17585 0.3689,-7.00277 0.24126,-8.50428 l -0.23206,-2.73 -11.03965,-1.95693 c -8.88394,-1.57479 -11.56475,-2.32007 -13.72877,-3.81662 -3.299,-2.28143 -7.22884,-7.51075 -9.4469,-12.57067 -1.54398,-3.52219 -1.66352,-4.63771 -1.66352,-15.52449 0,-7.41592 0.33827,-13.12523 0.91981,-15.52449 2.67211,-11.02433 3.65993,-12.59111 10.92116,-17.32198 7.53532,-4.909454 10.90543,-5.637429 27.67187,-5.977367 15.52075,-0.314671 20.35647,0.158205 28.30665,2.768065 8.35663,2.743282 15.39261,11.241702 17.42919,21.051842 1.21741,5.86432 0.46876,22.83603 -1.24015,28.1135 -2.02289,6.24707 -4.64882,10.94868 -7.19983,12.89098 -5.50354,4.19031 -12.7914,6.63207 -21.66331,7.25817 l -5.7876,0.40843 -0.33043,2.14081 c -0.18175,1.17744 -0.5256,4.85759 -0.76412,8.1781 l -0.43367,6.0373 14.72395,0.0351 c 8.09818,0.0193 19.78012,0.28576 25.95988,0.59205 10.39545,0.51523 11.36317,0.67643 12.93708,2.15504 1.20951,1.13629 1.70116,2.33074 1.70116,4.13301 0,2.27115 -0.26917,2.65071 -2.58742,3.6487 -5.72759,2.46569 -8.44304,2.73253 -22.94175,2.25435 -7.77949,-0.25657 -14.61027,-0.50016 -15.1795,-0.54131 -0.56923,-0.0411 -4.06224,-0.0258 -7.76225,0.0339 l -6.72728,0.10868 v 44.80362 c 0,25.46907 -0.27281,45.52118 -0.63219,46.46641 -1.04484,2.74813 -2.73107,3.94686 -5.55197,3.94686 -2.43969,0 -2.73108,-0.21808 -3.91809,-2.9324 z m -1.77868,-141.36386 0.1937,-8.02572 -11.57832,-0.30934 c -6.36808,-0.17015 -11.67308,-0.24143 -11.78893,-0.1584 -0.11584,0.083 0.67269,3.20402 1.75228,6.93555 l 1.96288,6.7846 4.80251,1.55122 c 3.43884,1.11075 6.17394,1.50814 9.63236,1.39951 l 4.82985,-0.1517 z m 29.97472,6.14574 c 4.19278,-1.93432 6.39718,-4.57884 7.15392,-8.58219 1.03929,-5.49825 -1.10836,-6.44228 -14.65602,-6.44228 h -9.90172 v 8.70497 8.70496 l 6.72729,-0.28175 c 5.42097,-0.22704 7.49414,-0.63554 10.67653,-2.10371 z m -36.20461,-26.75409 h 6.52016 l -0.46703,-8.79721 c -0.61625,-11.6083 -0.4619,-11.21295 -4.37578,-11.20828 -3.97073,0.005 -7.63495,0.977 -12.36368,3.28061 -3.19106,1.55453 -3.76773,2.17372 -4.93826,5.30222 -1.57765,4.21666 -2.46976,9.577 -1.85884,11.16903 0.37704,0.98256 1.17847,1.08075 5.70099,0.69845 2.89425,-0.24465 8.19634,-0.44482 11.78244,-0.44482 z m 37.14349,0.004 6.95808,-0.004 -0.57726,-4.22107 c -0.65133,-4.76256 -2.65275,-8.81715 -5.32426,-10.78611 -2.92576,-2.15635 -9.42159,-4.273 -14.58672,-4.75305 l -4.81254,-0.44728 v 10.55101 10.551 l 5.69232,-0.44311 c 3.13078,-0.24372 8.82345,-0.44498 12.65038,-0.44726 z M 78.20464,280.68769 c -1.470597,-1.10236 -3.063052,-8.72411 -4.082186,-19.53794 -0.615923,-6.5354 -0.594542,-11.07027 0.09613,-20.39355 1.144165,-15.445 1.712756,-39.79411 1.100813,-47.14043 l -0.47787,-5.7368 -5.398894,-6.19376 c -4.649808,-5.3344 -5.735318,-7.09303 -7.823586,-12.67497 -2.588498,-6.91903 -4.223726,-12.96175 -6.795239,-25.11058 -1.397913,-6.60432 -1.60279,-9.47103 -1.577904,-22.07928 0.04597,-23.31195 1.649904,-29.839633 13.884102,-56.506989 L 75.010895,48.135117 74.90735,35.989349 c -0.104257,-12.229102 0.101864,-13.660677 2.80749,-19.498736 0.764797,-1.650243 1.047326,-1.764208 2.831607,-1.142203 2.649299,0.923548 5.230444,4.112775 6.202806,7.664072 0.928326,3.390466 0.426833,19.722025 -0.820031,26.705254 -0.549367,3.076782 -3.238579,9.792204 -8.565416,21.389302 C 66.171766,95.47327 65.393054,98.45344 64.810167,119.1506 c -0.601685,21.36447 1.592237,36.47646 6.840595,47.11886 l 2.238595,4.53932 0.442088,-15.52449 c 0.243147,-8.53847 0.489553,-26.70213 0.54758,-40.36368 0.05804,-13.66156 0.386445,-26.050399 0.729841,-27.530766 0.791982,-3.414284 2.557485,-5.179799 5.687683,-5.687761 l 2.467589,-0.400435 1.556256,4.044897 1.556265,4.044896 -0.06877,47.953429 c -0.0379,26.3744 0.151049,51.05834 0.419757,54.85322 l 0.488584,6.89977 1.971805,-3.29242 c 2.441457,-4.07663 4.810716,-10.85138 6.328796,-18.09688 1.691223,-8.07182 2.3823,-34.981 1.612507,-62.78795 -0.747005,-26.983779 -0.504238,-29.214036 3.470992,-31.887305 3.55101,-2.387991 4.74942,-2.073658 6.48437,1.700788 1.50457,3.273281 1.5062,3.331059 1.30365,46.055997 -0.14963,31.56409 -9.5e-4,42.50728 0.5661,41.74364 1.17169,-1.57717 3.41259,-6.71169 5.24259,-12.01225 5.65226,-16.37164 7.17917,-45.99526 3.27508,-63.54029 -0.59109,-2.65641 -5.38943,-15.459067 -10.66297,-28.450338 l -9.588282,-23.620498 0.02128,-5.703544 c 0.05053,-13.532104 2.245956,-21.206008 6.585522,-23.019197 1.38819,-0.580017 2.92314,-0.901396 3.41102,-0.714178 1.46272,0.561299 2.37122,6.687832 3.14714,21.222966 l 0.73519,13.772287 8.19935,19.36349 c 9.23242,21.803187 9.75349,23.916832 10.98777,44.570942 1.24051,20.75824 -0.94908,38.86795 -6.44906,53.33921 -3.81078,10.02669 -4.02754,10.32736 -11.36252,15.76027 -6.78198,5.02335 -6.92154,5.18413 -8.82367,10.16614 -1.4551,3.81117 -3.85509,7.57131 -9.712188,15.2164 l -7.779513,10.15434 v 27.37422 c 0,15.05582 -0.193174,28.34008 -0.429274,29.52059 -0.880747,4.40373 -5.149791,6.92538 -8.0473,4.7534 z M 152.22907,74.502984 c -7.11953,-1.236826 -8.07016,-1.782394 -9.90095,-5.682186 -3.22631,-6.872417 -4.23747,-13.4277 -4.22383,-27.382791 0.011,-11.269094 0.20133,-13.431491 1.6244,-18.456898 1.59852,-5.645015 1.63072,-5.692314 3.87482,-5.692314 1.24458,0 2.99589,0.593592 3.89178,1.319092 1.50508,1.218838 1.62889,1.817514 1.62889,7.876955 0,3.606824 0.17982,6.737816 0.39961,6.95776 0.65211,0.652586 17.41826,1.840363 17.95927,1.272304 0.27326,-0.286914 0.84955,-3.471317 1.28064,-7.076449 0.90925,-7.603902 1.84786,-9.421394 5.18924,-10.048242 3.37632,-0.6334 3.97621,-0.237924 5.43206,3.581023 2.73066,7.163048 2.07813,26.779072 -1.42013,42.691037 -1.42618,6.487056 -1.67251,6.847734 -6.18425,9.055121 -3.21437,1.572649 -4.97565,1.945145 -9.83608,2.080259 -3.25632,0.09052 -7.62829,-0.13208 -9.71547,-0.494671 z m 12.33764,-12.068375 c 3.17857,-1.271812 3.50954,-2.151812 3.52243,-9.36566 0.008,-4.178176 -0.21727,-5.360494 -1.08198,-5.692314 -0.60027,-0.230345 -4.44818,-0.418808 -8.5509,-0.418808 -8.53791,0 -8.29712,-0.181446 -8.29712,6.252265 0,5.513324 1.61385,9.448983 4.02622,9.818673 4.15896,0.637349 7.82839,0.427337 10.38135,-0.594156 z m 41.48061,11.783149 c -3.49077,-0.774874 -4.88964,-1.472915 -6.31108,-3.149226 -6.56099,-7.737441 -8.75025,-35.322559 -3.88863,-48.997723 1.46071,-4.108817 1.74233,-4.452955 3.80712,-4.652378 1.67189,-0.161476 2.68716,0.24208 4.05813,1.613045 1.67188,1.671872 1.79442,2.162849 1.43151,5.735173 -0.21829,2.148725 -0.17068,4.986837 0.1058,6.306913 0.57653,2.752706 1.20524,2.944269 12.27245,3.739281 l 6.30046,0.452595 0.44199,-3.985985 c 1.11156,-10.024154 1.22058,-10.471564 2.98071,-12.231694 1.01433,-1.014321 2.5455,-1.758964 3.61687,-1.758964 1.547,0 2.10764,0.548442 3.35031,3.277393 0.82083,1.802566 1.79778,4.674598 2.17101,6.382292 1.56842,7.176212 0.21339,24.766069 -2.8911,37.529766 l -1.49241,6.135791 -4.52435,2.118512 c -3.83363,1.795088 -5.47237,2.146165 -10.73414,2.299631 -3.57957,0.104403 -8.1094,-0.240553 -10.69465,-0.814422 z m 16.04197,-12.111289 c 1.87964,-0.872358 1.89744,-0.943615 1.89744,-7.595822 0,-5.48689 -0.19963,-6.79181 -1.0914,-7.134012 -0.60027,-0.230345 -4.44818,-0.418808 -8.5509,-0.418808 -8.56332,0 -8.29771,-0.206148 -8.29604,6.438722 9.5e-4,5.063411 1.62533,8.813049 4.13879,9.555644 2.42715,0.717097 9.6389,0.204656 11.90211,-0.845724 z"
     style="fill:#000000;stroke-width:0.68997747" />
</svg>
