<?xml version="1.0" encoding="UTF-8" standalone="no"?>
<!-- Created with Inkscape (http://www.inkscape.org/) -->

<svg
   xmlns:dc="http://purl.org/dc/elements/1.1/"
   xmlns:cc="http://creativecommons.org/ns#"
   xmlns:rdf="http://www.w3.org/1999/02/22-rdf-syntax-ns#"
   xmlns:svg="http://www.w3.org/2000/svg"
   xmlns="http://www.w3.org/2000/svg"
   xmlns:sodipodi="http://sodipodi.sourceforge.net/DTD/sodipodi-0.dtd"
   xmlns:inkscape="http://www.inkscape.org/namespaces/inkscape"
   width="300"
   height="300"
   id="svg2"
   version="1.1"
   inkscape:version="0.48.4 r9939"
   sodipodi:docname="image-seal.svg">
  <defs
     id="defs4" />
  <sodipodi:namedview
     id="base"
     pagecolor="#ffffff"
     bordercolor="#666666"
     borderopacity="1.0"
     inkscape:pageopacity="0.0"
     inkscape:pageshadow="2"
     inkscape:zoom="2.0018437"
     inkscape:cx="123.3515"
     inkscape:cy="143.3195"
     inkscape:document-units="px"
     inkscape:current-layer="layer1"
     showgrid="false"
     inkscape:window-width="1215"
     inkscape:window-height="1000"
     inkscape:window-x="65"
     inkscape:window-y="24"
     inkscape:window-maximized="1"
     fit-margin-top="10"
     fit-margin-left="10"
     fit-margin-right="10"
     fit-margin-bottom="10" />
  <metadata
     id="metadata7">
    <rdf:RDF>
      <cc:Work
         rdf:about="">
        <dc:format>image/svg+xml</dc:format>
        <dc:type
           rdf:resource="http://purl.org/dc/dcmitype/StillImage" />
        <dc:title />
      </cc:Work>
    </rdf:RDF>
  </metadata>
  <g
     inkscape:label="Calque 1"
     inkscape:groupmode="layer"
     id="layer1"
     transform="translate(0,-752.36218)">
    <path
       style="fill:#000000"
       d="m 80.301074,999.81498 c 0,-34.83188 -2.918131,-50.77145 -10.912136,-59.60475 -17.851666,-19.72582 -19.333035,-71.47765 -3.096683,-108.18259 7.704849,-17.41811 14.008819,-38.74898 14.008819,-47.40201 0,-8.65296 2.983597,-15.7327 6.630216,-15.7327 10.59445,0 7.430066,27.43146 -6.775829,58.73841 -13.92968,30.6983 -17.149645,77.25362 -6.484604,93.75657 4.476955,6.92758 6.45797,-4.64036 6.528688,-38.12375 0.05835,-27.55823 2.930609,-48.06907 6.731745,-48.06907 3.959857,0 6.671105,26.03607 6.731745,64.64461 0.06942,44.18668 2.13552,61.49725 6.528695,54.69929 3.53494,-5.46993 6.47284,-34.56001 6.52868,-64.64461 0.0597,-31.97833 2.85559,-54.69929 6.73175,-54.69929 3.80114,0 6.67354,20.51084 6.73174,48.06907 0.0707,33.48339 2.05174,45.05133 6.52869,38.12375 10.62173,-16.43598 7.4725,-63.67435 -6.63022,-99.45325 -14.46073,-36.68718 -17.01459,-59.67195 -6.63021,-59.67195 3.64662,0 6.63021,6.61331 6.63021,14.69634 0,8.08296 4.20194,26.73045 9.33765,41.43885 5.1357,14.70834 11.8488,36.44391 14.91799,48.30113 l 5.58034,21.55861 19.89065,-16.9898 c 14.4404,-12.33439 17.39261,-18.01456 10.7741,-20.72983 -25.14256,-10.3147 -47.37461,-55.12422 -27.34964,-55.12422 3.64661,0 6.63021,5.60187 6.63021,12.44863 0,6.84669 4.53136,16.20929 10.0697,20.80569 8.17973,6.78854 12.22405,6.46592 21.5482,-1.71909 6.31318,-5.54186 18.23492,-12.13561 26.49277,-14.65284 19.47344,-5.9359 12.59061,-16.88239 -10.61519,-16.88239 -22.4866,0 -47.60889,-16.98137 -47.14771,-31.86946 0.28172,-9.09447 2.32438,-8.39339 10.75403,3.69104 7.65584,10.97513 16.9875,14.91799 35.30658,14.91799 25.65918,0 44.38799,13.70817 36.39607,26.63941 -2.49148,4.03131 -12.44503,10.70482 -22.119,14.83001 l -17.58904,7.50036 17.58524,2.41387 c 21.16524,2.90523 35.04129,30.89183 28.41216,57.30436 -5.61189,22.35954 -10.43165,17.99965 -15.62496,-14.13423 -3.31916,-20.53749 -6.93844,-25.17228 -20.51639,-26.27289 l -16.48627,-1.33632 16.57554,5.13921 16.57554,5.13928 -14.91798,4.93169 c -8.62324,2.85072 -14.91799,10.33843 -14.91799,17.74531 0,7.04745 -2.9836,12.81362 -6.63022,12.81362 -3.64661,0 -6.63021,-4.33663 -6.63021,-9.63695 0,-16.46097 -38.59159,10.13349 -46.19048,31.831 -3.63647,10.38345 -15.61645,29.13476 -26.62216,41.66959 -16.513591,18.80793 -20.010393,28.54341 -20.010393,55.71102 0,18.1062 -2.983598,32.9203 -6.630217,32.9203 -3.803775,0 -6.630216,-20.2691 -6.630216,-47.54702 z m 66.403696,-10.46736 c 0.0557,-31.90791 2.50331,-61.79839 5.43882,-66.42329 13.33466,-21.00871 68.57308,-20.70471 82.02132,0.45151 8.23707,12.95816 6.46694,125.51396 -1.89268,120.34746 -4.49475,-2.7779 -5.57873,-15.8753 -2.91612,-35.2348 3.85435,-28.0245 2.5024,-32.4761 -14.93758,-49.18464 l -19.17551,-18.37127 -17.68967,13.9147 c -15.6115,12.28003 -17.68968,18.53166 -17.68968,53.21481 0,21.7799 -2.95578,39.3001 -6.63021,39.3001 -3.92273,0 -6.58876,-23.6906 -6.52869,-58.01444 z m 37.93982,-65.27952 c -8.42982,-8.42979 -24.78092,3.76099 -24.78092,18.47576 l 0,14.94186 14.54964,-14.54961 c 8.00231,-8.00227 12.60638,-16.49293 10.23128,-18.86801 z m 36.21707,2.62398 c -3.73778,-3.73779 -10.44022,-5.58125 -14.89431,-4.09655 -5.63522,1.87841 -4.38926,6.4085 4.09654,14.89432 8.48578,8.48581 13.01589,9.73177 14.8943,4.09655 1.4847,-4.45412 -0.35876,-11.15654 -4.09653,-14.89432 z m -47.50428,81.32452 c -8.74468,-16.33958 -8.88318,-40.21718 -0.23325,-40.21718 3.64662,0 6.63022,2.9836 6.63022,6.63022 0,3.64662 5.96719,6.63021 13.26043,6.63021 7.29324,0 13.26043,-2.98359 13.26043,-6.63021 0,-3.64662 2.9836,-6.63022 6.63022,-6.63022 8.64991,0 8.51141,23.8776 -0.23325,40.21718 -3.77495,7.0535 -12.62076,12.8246 -19.6574,12.8246 -7.03663,0 -15.88245,-5.7711 -19.65737,-12.8246 z m 32.91781,-7.0661 c 0,-3.64662 -5.9672,-6.63021 -13.26044,-6.63021 -7.29323,0 -13.26043,2.98359 -13.26043,6.63021 0,3.6466 5.9672,6.6302 13.26043,6.6302 7.29324,0 13.26044,-2.9836 13.26044,-6.6302 z"
       id="path3145"
       inkscape:connector-curvature="0" />
  </g>
</svg>
