<?xml version="1.0" encoding="UTF-8" standalone="no"?>
<svg
   xmlns:dc="http://purl.org/dc/elements/1.1/"
   xmlns:cc="http://creativecommons.org/ns#"
   xmlns:rdf="http://www.w3.org/1999/02/22-rdf-syntax-ns#"
   xmlns:svg="http://www.w3.org/2000/svg"
   xmlns="http://www.w3.org/2000/svg"
   viewBox="0 0 300 300"
   height="300"
   width="300"
   id="svg198"
   version="1.1">
  <metadata
     id="metadata204">
    <rdf:RDF>
      <cc:Work
         rdf:about="">
        <dc:format>image/svg+xml</dc:format>
        <dc:type
           rdf:resource="http://purl.org/dc/dcmitype/StillImage" />
        <dc:title></dc:title>
      </cc:Work>
    </rdf:RDF>
  </metadata>
  <defs
     id="defs202" />
  <path
     id="path208"
     d="m 176.438,281.66703 c -27.66136,-16.2796 -40.08727,-31.03255 -45.29037,-40.23465 -21.11997,0.99038 -49.022062,0.96348 -48.81804,-25.82051 0.222044,-29.15004 23.49799,-29.10184 32.43107,-44.82375 3.24495,-5.711 2.75414,-8.59195 1.0152,-18.2121 -11.29269,4.17159 -24.041193,6.81412 -46.376579,9.03677 -4.380716,0.43593 -5.82141,-2.41203 -5.802164,-4.95537 0.02176,-2.87444 0.799468,-4.80576 6.641517,-5.50059 22.561107,-2.68333 32.139166,-4.5003 47.752676,-10.91162 17.81975,-7.31726 26.51308,-17.20616 26.37285,-33.88433 -0.14554,-17.308641 -12.56318,-29.75253 -35.23199,-29.617148 -22.167286,0.132386 -34.265139,9.268237 -34.156906,32.630258 0.100844,21.76715 -0.195215,29.5817 -6.637696,29.92037 -4.987833,0.2622 -4.872759,-9.89545 -4.848397,-29.95601 C 63.527851,77.489163 82.131068,66.312765 102.8868,65.881459 L 96.360872,51.181383 H 79.201384 c -12.58581,0 -15.661525,-1.128512 -15.644006,-6.067261 0.01566,-4.413298 3.180472,-5.255617 15.793347,-5.342677 l 11.892228,-0.08209 -4.746239,-10.778533 c -1.591134,-3.6134 -3.925755,-10.743683 0.603213,-12.476765 4.886843,-1.870029 6.959799,2.138538 10.429699,9.658835 L 111.1194,54.456294 127.266,25.147644 c 4.90878,-8.614177 7.55412,-11.716969 11.09677,-9.411597 5.2328,3.405228 2.86742,8.068487 -0.12837,13.253807 l -6.21989,10.765802 14.0794,0.442842 c 5.60225,0.176209 13.31311,0.247917 13.44237,5.701973 0.12122,5.115133 -10.71018,4.481168 -12.85224,4.437083 l -20.68883,-0.25649 -9.11237,15.842956 c 21.6468,0.540666 38.72328,18.347474 39.10449,39.96717 0.40789,23.13355 -12.04521,33.27026 -31.8214,43.0785 2.12232,7.58146 5.92044,18.76392 1.91286,26.63208 -10.44914,18.22088 -32.781501,17.20953 -32.620233,39.68702 0.122134,17.023 18.800613,15.04451 32.635583,14.82761 -3.02763,-6.75735 -4.39829,-17.34652 -5.11867,-34.4141 -0.27029,-6.40358 1.86909,-10.13191 5.73718,-10.08767 4.39778,0.0503 5.81666,3.34423 6.25885,11.61525 0.8328,15.57745 3.6428,29.17148 12.06171,40.64903 12.43406,-15.64046 12.13984,-24.48872 12.39724,-38.53862 0.20738,-11.3194 2.12426,-13.57008 5.93216,-13.80158 5.56312,-0.33821 6.1607,9.44891 6.23307,15.14588 0.15705,12.36226 0.0823,19.62707 -4.27886,29.48571 14.96519,0.43351 33.83121,1.22454 33.98563,-16.09255 0.10455,-11.72456 -9.0094,-17.73446 -18.96486,-25.63501 -12.11472,-9.61412 -11.80302,-18.12355 -11.42384,-31.39185 0.17884,-6.25813 2.62187,-7.84336 5.79313,-7.58601 3.07448,0.2495 4.20674,0.86192 4.35698,8.16385 0.21534,10.46527 -0.61061,15.31371 10.738,24.62498 10.16223,8.33788 21.22247,18.53023 21.22188,31.58368 -9.5e-4,29.09338 -30.374,27.13097 -52.05464,27.1419 -2.14871,2.81793 -4.13579,4.24297 -6.60273,6.55368 10.04713,9.95793 12.72035,12.33475 29.02543,22.0382 5.40017,3.21375 11.87824,8.79018 9.11527,13.44754 -2.40379,4.05191 -10.05485,1.01082 -14.06907,-1.35168 z m 43.82727,-123.51659 c -3.43216,-8.32631 -5.74038,-14.45639 -10.2883,-26.88531 -12.57156,6.52947 -23.69547,8.41587 -35.07313,9.00114 -13.26777,0.6825 -18.20275,-0.63024 -17.61298,-6.05151 0.55927,-5.14101 4.64111,-4.5428 18.07303,-5.70833 10.8339,-0.94009 21.69529,-2.28462 29.9433,-7.81273 -5.49586,-10.73575 -11.52213,-10.56498 -29.36091,-11.04659 -5.39873,-0.14575 -12.11945,-0.78949 -12.29795,-6.88114 -0.1504,-5.132763 8.0783,-5.369213 12.8858,-5.274603 21.25969,0.41838 33.81842,2.979223 39.23028,15.043953 5.291,-4.96123 7.11783,-11.73916 6.89107,-16.633563 -0.69149,-14.925204 -19.3819,-13.962214 -37.29682,-13.819424 -16.73403,0.133379 -23.96102,0.267001 -24.17374,-5.562514 -0.22296,-6.110023 5.93771,-5.383318 19.54625,-5.658428 l 0.13105,-42.329242 c 0.0147,-4.737152 -0.15937,-10.596635 6.1473,-10.21341 6.02999,0.366413 5.83427,6.694836 5.79283,9.700747 l 0.0713,15.858784 18.09221,0.01835 c 13.02973,0.01321 19.16337,0.08803 19.26669,5.675302 0.12733,6.886104 -6.16765,6.317681 -19.6041,6.17084 l -18.06897,-0.146423 0.13467,14.904001 c 22.69829,0.529864 41.17922,3.928095 41.24084,26.969057 0.0297,11.138313 -5.30291,19.355463 -13.45631,26.600743 1.65755,5.04995 3.72939,10.81533 7.91919,22.2717 8.2642,22.59717 9.97807,27.74711 6.23276,29.14854 -7.14212,2.67246 -8.7663,-3.75682 -14.36537,-17.33994 z M 92.84933,106.47305 c 0.07849,-15.244257 0.576533,-22.026018 5.204577,-21.977381 6.246793,0.06565 5.688693,8.598183 5.688693,13.431438 h 15.4171 c 0.17235,-6.282012 0.50982,-12.687521 6.04861,-12.713753 4.83598,-0.0229 5.26611,7.42637 5.36789,14.571133 0.17948,12.599983 -0.19572,19.200463 -2.05043,24.814763 -0.9782,5.80032 -8.55774,7.67798 -17.9991,7.4523 -17.344475,-0.41458 -17.741229,-13.17006 -17.67734,-25.5785 z m 26.10885,15.42263 0.11443,-13.64154 h -15.64474 c 0.12595,13.18799 0.39991,13.76423 15.53031,13.64154 z"
     style="fill:#000000;stroke-width:0.69252932" />
</svg>
