<?xml version="1.0" encoding="UTF-8" standalone="no"?>
<!-- Created with Inkscape (http://www.inkscape.org/) -->

<svg
   xmlns:dc="http://purl.org/dc/elements/1.1/"
   xmlns:cc="http://creativecommons.org/ns#"
   xmlns:rdf="http://www.w3.org/1999/02/22-rdf-syntax-ns#"
   xmlns:svg="http://www.w3.org/2000/svg"
   xmlns="http://www.w3.org/2000/svg"
   xmlns:sodipodi="http://sodipodi.sourceforge.net/DTD/sodipodi-0.dtd"
   xmlns:inkscape="http://www.inkscape.org/namespaces/inkscape"
   width="300"
   height="300"
   id="svg2"
   version="1.1"
   inkscape:version="0.48.4 r9939"
   sodipodi:docname="image-seal.svg">
  <defs
     id="defs4" />
  <sodipodi:namedview
     id="base"
     pagecolor="#ffffff"
     bordercolor="#666666"
     borderopacity="1.0"
     inkscape:pageopacity="0.0"
     inkscape:pageshadow="2"
     inkscape:zoom="2.0018437"
     inkscape:cx="238.32259"
     inkscape:cy="136.91539"
     inkscape:document-units="px"
     inkscape:current-layer="layer1"
     showgrid="false"
     inkscape:window-width="1215"
     inkscape:window-height="1000"
     inkscape:window-x="65"
     inkscape:window-y="24"
     inkscape:window-maximized="1"
     fit-margin-top="10"
     fit-margin-left="10"
     fit-margin-right="10"
     fit-margin-bottom="10" />
  <metadata
     id="metadata7">
    <rdf:RDF>
      <cc:Work
         rdf:about="">
        <dc:format>image/svg+xml</dc:format>
        <dc:type
           rdf:resource="http://purl.org/dc/dcmitype/StillImage" />
        <dc:title />
      </cc:Work>
    </rdf:RDF>
  </metadata>
  <g
     inkscape:label="Calque 1"
     inkscape:groupmode="layer"
     id="layer1"
     transform="translate(0,-752.36218)">
    <path
       style="fill:#000000"
       d="m 171.84825,1045.5589 c -1.00323,-1.0032 -1.82404,-21.7287 -1.82404,-46.05684 0,-24.32796 -0.77747,-45.01016 -1.72776,-45.96044 -2.20229,-2.2023 -10.74942,2.34875 -17.96801,9.56737 -7.53676,7.53673 -13.42681,30.87106 -11.47773,45.47081 0.8674,6.4976 0.82552,14.8083 -0.093,18.4683 -1.73298,6.9048 -8.05349,8.9161 -11.33469,3.6069 -2.7885,-4.5119 -1.36034,-47.11066 1.68141,-50.1524 1.43839,-1.43839 2.61524,-5.34727 2.61524,-8.68642 0,-11.151 9.06436,-22.92726 22.40826,-29.1125 15.14311,-7.01921 18.74809,-14.75798 8.66128,-18.59298 -3.74075,-1.42222 -8.35342,-2.58586 -10.25037,-2.58586 -6.95686,0 -15.34708,-12.43669 -15.34708,-22.74871 0,-5.5461 -1.15874,-10.08383 -2.57502,-10.08383 -1.41626,0 -3.68406,-5.23268 -5.03955,-11.62819 l -2.46452,-11.62818 -1.80057,12.99621 c -0.99031,7.14791 -2.4687,18.38405 -3.28536,24.96917 -1.03712,8.36323 -3.90132,14.34368 -9.50014,19.83632 -6.52659,6.40281 -8.02947,10.20145 -8.09136,20.4513 -0.0993,16.44582 -4.848795,29.77426 -13.202655,37.05053 -6.26398,5.45597 -6.7137,7.58155 -6.49602,30.70334 0.17975,19.1082 -0.75296,25.8284 -4.04183,29.1173 -3.21937,3.2193 -5.1865,3.5198 -7.96243,1.2159 -2.94977,-2.448 -3.39887,-13.3879 -2.24664,-54.72747 l 1.44011,-51.66776 -8.04082,-10.34802 c -11.510537,-14.8133 -15.229005,-31.68548 -13.4707,-61.12187 1.161796,-19.44999 3.109542,-28.16016 9.026714,-40.36672 4.149886,-8.56084 8.751536,-16.36759 10.225886,-17.3483 1.47435,-0.98074 2.68063,-12.36952 2.68063,-25.30841 0,-12.93889 0.51887,-23.52528 1.15305,-23.52528 6.99803,0 16.14246,30.48835 13.34289,44.48631 -0.9464,4.7319 -4.33187,11.38293 -7.52328,14.78003 l -5.80255,6.17653 7.45947,3.39877 7.45947,3.39877 -1.8628,23.53628 c -2.63711,33.31908 -3.40397,86.63813 -1.41293,98.23838 l 1.68555,9.82024 1.97271,-11.7787 c 1.08501,-6.4783 2.68472,-36.64318 3.55494,-67.03309 0.87023,-30.3899 2.18566,-56.23758 2.92322,-57.43928 0.73756,-1.20167 3.07824,-0.74311 5.201495,1.01904 2.99573,2.48621 3.86048,12.01575 3.86048,42.54152 0,24.40106 1.0389,39.33764 2.73605,39.33764 1.70132,0 2.73604,-15.37884 2.73604,-40.66443 l 0,-40.66446 -8.42379,-10.59998 c -8.868975,-11.16016 -9.325865,-17.04129 -3.751725,-48.2934 2.03381,-11.40277 2.09981,-11.45218 9.794965,-7.33389 4.41485,2.36277 5.11503,4.60209 3.63593,11.62819 -1.00752,4.78606 -2.93337,9.87157 -4.27967,11.30115 -1.34627,1.42958 -2.4478,6.52068 -2.4478,11.31352 0,6.48959 1.92087,9.97044 7.52412,13.63483 14.50812,9.48783 14.9689,10.65473 12.90497,32.68013 -1.3022,13.89635 -0.98014,20.48559 1.00128,20.48559 1.63074,0 3.28342,-6.85363 3.74151,-15.51611 0.93962,-17.7673 6.1871,-22.39926 9.75914,-8.61432 2.95543,11.40531 10.57884,13.44426 14.2421,3.80917 3.36813,-8.85879 9.90694,-9.10988 12.07698,-0.4637 2.1557,8.58896 -1.04073,40.33121 -4.50383,44.72535 -1.48247,1.88103 -5.00707,3.42005 -7.83247,3.42005 -6.43931,0 -6.47116,4.94754 -0.0854,13.24954 3.18451,4.14008 7.09651,6.07758 11.0487,5.47209 5.64008,-0.86404 6.2007,-2.64909 7.16849,-22.82569 0.57744,-12.0386 1.36687,-27.97729 1.7543,-35.41933 0.64926,-12.47226 0.0725,-13.88017 -7.37137,-17.99442 -4.44167,-2.45488 -9.49689,-7.29235 -11.23384,-10.74986 -3.36881,-6.70594 -3.21882,-54.43535 0.18851,-59.94835 3.4403,-5.56653 9.80978,3.91668 9.80978,14.60531 l 0,9.90213 16.93675,-0.81455 c 16.83721,-0.80979 16.95119,-0.87086 19.39823,-10.39073 3.10229,-12.0691 3.04658,-12.02464 10.24098,-8.17432 5.64955,3.02355 5.89062,4.4223 4.08434,23.6979 -2.30487,24.59643 -5.32508,36.01107 -10.63353,40.18844 -6.20368,4.88187 -0.84932,15.42513 7.83357,15.42513 5.01777,0 7.76126,-2.0128 9.70235,-7.11825 1.84948,-4.86447 4.06458,-6.59705 6.99617,-5.47209 2.3594,0.90538 4.80471,1.64617 5.43406,1.64617 0.62934,0 1.14273,8.92634 1.1409,19.83632 -0.003,16.92632 -0.95554,20.94346 -6.49408,27.38329 -3.56988,4.15085 -7.24338,12.25386 -8.16329,18.00673 -2.09234,13.08464 -9.15503,19.63629 -23.19846,21.51992 -7.34163,0.9847 -11.33852,3.05227 -12.18921,6.30535 -1.51561,5.7957 1.9253,12.23624 5.3925,10.09343 1.35776,-0.83915 6.33832,0.34841 11.06792,2.63902 10.16321,4.9222 18.55227,20.97808 21.27108,40.71081 1.02785,7.46005 2.46567,17.25738 3.19518,21.77191 3.24903,20.1066 3.02254,30.3508 -0.7862,35.5596 -3.40036,4.6502 -4.35899,4.8548 -6.50202,1.3872 -1.38252,-2.2369 -3.22265,-10.8495 -4.08921,-19.139 -2.58244,-24.70422 -6.86829,-45.92429 -10.80981,-53.52155 -4.7507,-9.15702 -15.01385,-18.74803 -17.43673,-16.29484 -1.02913,1.04199 -1.92708,21.17312 -1.99545,44.73583 -0.0684,23.56276 -1.12353,44.99596 -2.34476,47.62936 -2.25286,4.858 -7.43348,6.2858 -10.75515,2.9641 z M 71.740385,838.93788 c -1.89002,-9.00336 -1.92966,-9.02366 -5.35189,-2.74138 -1.89628,3.48105 -4.15559,17.25446 -5.020702,30.60761 -1.320793,20.38662 -0.747107,25.95086 3.578822,34.71151 l 5.15175,10.43306 1.77307,-31.97013 c 0.9752,-17.58355 0.91622,-36.05185 -0.13105,-41.04067 z m 130.011075,66.81281 c 1.64935,-1.10558 3.80902,-5.32264 4.7993,-9.37128 1.40961,-5.76296 0.46154,-8.29867 -4.36681,-11.67957 -5.57469,-3.90351 -6.16732,-6.5479 -6.16732,-27.51998 0,-20.27133 -0.60469,-23.20193 -4.78807,-23.20497 -4.88152,-0.003 -5.41948,4.3415 -5.41948,43.77324 0,28.84127 0.28403,30.09884 6.7875,30.0546 3.38585,-0.0219 7.50557,-0.94646 9.15488,-2.05204 z m -49.21974,-46.01307 c -0.81843,-2.13283 -3.98915,-3.87785 -7.04602,-3.87785 -4.26325,0 -5.55798,1.78459 -5.55798,7.66092 0,4.21351 1.49531,9.1562 3.32287,10.98377 2.60644,2.60644 4.12558,1.7908 7.04603,-3.78307 2.04774,-3.90828 3.05353,-8.85097 2.2351,-10.98377 z m 66.74129,5.69831 c 0,-8.81614 -0.65142,-9.57616 -8.20813,-9.57616 -9.18157,0 -9.51919,0.60499 -5.06248,9.07201 6.7852,12.89082 13.27061,13.1372 13.27061,0.50415 z M 195.7239,813.2273 c 0.91343,-2.3803 1.66076,-7.36393 1.66076,-11.07474 0,-6.53904 -0.5268,-6.72178 -17.10028,-5.93232 -16.49438,0.78571 -17.06657,1.05693 -16.14929,7.65469 1.47402,10.60228 5.57872,13.68022 18.24362,13.68022 8.13073,0 12.18957,-1.31628 13.34519,-4.32785 z"
       id="path3041"
       inkscape:connector-curvature="0" />
  </g>
</svg>
