<?xml version="1.0" encoding="UTF-8" standalone="no"?>
<!-- Created with Inkscape (http://www.inkscape.org/) -->

<svg
   xmlns:dc="http://purl.org/dc/elements/1.1/"
   xmlns:cc="http://creativecommons.org/ns#"
   xmlns:rdf="http://www.w3.org/1999/02/22-rdf-syntax-ns#"
   xmlns:svg="http://www.w3.org/2000/svg"
   xmlns="http://www.w3.org/2000/svg"
   xmlns:sodipodi="http://sodipodi.sourceforge.net/DTD/sodipodi-0.dtd"
   xmlns:inkscape="http://www.inkscape.org/namespaces/inkscape"
   width="300"
   height="300"
   id="svg2"
   version="1.1"
   inkscape:version="0.48.4 r9939"
   sodipodi:docname="image-seal.svg">
  <defs
     id="defs4" />
  <sodipodi:namedview
     id="base"
     pagecolor="#ffffff"
     bordercolor="#666666"
     borderopacity="1.0"
     inkscape:pageopacity="0.0"
     inkscape:pageshadow="2"
     inkscape:zoom="1.979899"
     inkscape:cx="200.43343"
     inkscape:cy="134.48103"
     inkscape:document-units="px"
     inkscape:current-layer="layer1"
     showgrid="false"
     inkscape:window-width="1215"
     inkscape:window-height="1000"
     inkscape:window-x="65"
     inkscape:window-y="24"
     inkscape:window-maximized="1" />
  <metadata
     id="metadata7">
    <rdf:RDF>
      <cc:Work
         rdf:about="">
        <dc:format>image/svg+xml</dc:format>
        <dc:type
           rdf:resource="http://purl.org/dc/dcmitype/StillImage" />
        <dc:title />
      </cc:Work>
    </rdf:RDF>
  </metadata>
  <g
     inkscape:label="Calque 1"
     inkscape:groupmode="layer"
     id="layer1"
     transform="translate(0,-752.36218)">
    <path
       style="fill:#000000"
       d="m 204.48195,1043.9698 c -0.1333,-1.7194 0.0315,-13.2554 0.36598,-25.6354 0.33459,-12.3801 0.81541,-34.88922 1.06848,-50.02039 0.43087,-25.76253 2.09391,-62.55215 4.99684,-110.54181 2.00747,-33.18615 1.40625,-34.43758 -21.19503,-44.1168 -3.43891,-1.47275 -8.67172,-4.78846 -11.62847,-7.36822 -2.95673,-2.57981 -7.45856,-4.47103 -10.00408,-4.20273 -9.74586,1.02721 -18.38376,-0.18931 -18.38376,-2.58922 0,-1.37556 2.74037,-2.50102 6.08973,-2.50102 9.53326,0 18.92046,-4.47215 18.92046,-9.01387 0,-3.5166 -1.87181,-3.88734 -12.50509,-2.47679 -11.45192,1.51915 -12.5051,1.23033 -12.5051,-3.42932 0,-4.16557 1.61701,-5.08818 8.91798,-5.08818 11.36806,0 18.59322,-3.86434 18.59322,-9.94446 0,-2.62155 1.0239,-5.39923 2.27533,-6.17267 3.96203,-2.44865 10.22978,1.46077 10.22978,6.38065 0,7.54347 13.2735,6.39247 17.50713,-1.5181 1.84044,-3.43889 4.20117,-6.25255 5.24601,-6.25255 4.79723,0 9.7601,8.71002 9.7601,17.12929 0,12.21257 -5.88164,20.386 -14.66991,20.386 -3.78578,0 -9.06788,1.60781 -11.73803,3.57291 -4.79372,3.52796 -4.79187,3.59456 0.14732,5.29393 15.69221,5.39915 19.08132,7.99978 23.96506,18.38949 4.72934,10.0612 4.92176,12.44702 2.21954,27.5195 -1.72639,9.62939 -3.36619,51.40051 -3.93693,100.28735 -0.53803,46.08128 -1.56482,86.31641 -2.28176,89.41141 -1.39039,6.0022 -11.02029,8.1047 -11.45472,2.501 z m -4.75966,-257.15361 c 0,-3.93123 -1.34715,-4.98378 -5.60173,-4.37679 -8.31277,1.18598 -9.04339,9.55277 -0.83419,9.55277 4.84067,0 6.43592,-1.28294 6.43592,-5.17598 z m -50.02038,253.82721 c -14.58392,-4.6692 -29.95923,-15.458 -36.26478,-25.447 -3.15514,-4.9982 -7.08987,-7.9595 -10.65659,-8.0203 -3.109996,-0.053 -10.601048,-2.4214 -16.646762,-5.2633 -12.801941,-6.01754 -17.150013,-14.1542 -15.999869,-29.94079 0.651216,-8.93841 2.071719,-11.5378 8.288952,-15.168 4.126682,-2.40956 9.521906,-4.46327 11.989411,-4.56382 3.955937,-0.16131 4.399468,-2.32604 3.751528,-18.31056 l -0.734824,-18.12778 -17.854,0.83226 c -11.601277,0.54083 -18.477129,-0.17608 -19.633325,-2.04675 -2.953279,-4.77851 0.793098,-6.23929 19.358638,-7.54831 18.784504,-1.32446 25.048581,-5.86041 12.039105,-8.71778 -12.83733,-2.81954 -17.670099,-11.74078 -17.670099,-32.61873 0,-14.87537 0.778292,-18.45145 4.310806,-19.807 2.603961,-0.99923 5.436365,-0.11477 7.153515,2.23343 1.563487,2.13822 6.376399,3.88767 10.695308,3.88767 6.708758,0 7.8526,-0.91078 7.8526,-6.25256 0,-5.59438 -1.020816,-6.25255 -9.697826,-6.25255 -11.286149,0 -14.078212,-2.73886 -16.082004,-15.7756 -2.696273,-17.54224 3.825834,-23.24792 8.162952,-7.1411 2.440294,9.06256 12.314192,17.38165 16.116842,13.579 3.451952,-3.45199 1.085291,-10.05652 -4.518617,-12.60981 -3.647661,-1.66201 -6.681897,-5.76205 -7.702288,-10.4079 -1.699092,-7.73597 -10.384607,-12.56193 -16.171515,-8.98543 -3.639558,2.24937 -13.046216,-0.9724 -11.263064,-3.85757 0.790748,-1.27947 20.446907,-2.32095 43.804146,-2.32095 34.28272,0 42.36972,0.65637 42.36972,3.43891 0,1.89139 -3.37637,4.11417 -7.50306,4.93951 -4.94136,0.98828 -7.51081,3.01628 -7.52574,5.93992 -0.0126,2.44162 -3.38885,7.09827 -7.50306,10.34811 -9.47165,7.48176 -9.46538,10.34782 0.0225,10.34782 6.59843,0 7.50305,-0.8677 7.50305,-7.19683 0,-8.9395 6.68888,-15.60161 10.19026,-10.14949 4.86191,7.57069 -3.06162,27.3504 -10.95629,27.3504 -12.22836,0 -19.07825,10.63244 -8.92579,13.85469 4.88547,1.55061 8.02452,-0.61425 10.32413,-7.12002 1.34432,-3.80318 8.91924,1.1259 10.3225,6.71699 0.77119,3.07265 0.46972,11.48525 -0.66993,18.69466 -2.35362,14.88889 -11.01932,25.91123 -23.14561,29.44007 -9.81576,2.85644 -9.22882,7.10897 1.03467,7.49651 19.23801,0.72635 19.71213,0.86009 18.86529,5.32242 -0.64742,3.41136 -4.13577,4.65261 -15.81477,5.62729 l -14.98414,1.25051 -0.77622,9.37882 c -0.81313,9.82445 2.99745,12.99977 5.25242,4.37679 1.7102,-6.53982 10.94621,-6.56838 13.01816,-0.0403 3.17349,9.99879 -4.00871,18.44031 -20.50286,24.09779 -8.498387,2.91494 -17.206761,7.05502 -19.35191,9.20018 -4.675705,4.6757 -5.146948,18.4339 -0.774015,22.59775 5.498715,5.23581 15.480282,8.51157 20.508585,6.73049 4.0535,-1.43578 4.78427,-3.80436 4.32691,-14.02437 -0.62636,-13.99679 1.85185,-19.42833 7.81959,-17.1383 3.33523,1.27988 4.05633,4.95858 3.79077,19.33893 -0.21159,11.46349 0.69546,18.09958 2.55914,18.72078 1.5879,0.5293 2.88708,2.5568 2.88708,4.5055 0,3.8897 2.2764,4.4627 6.47241,1.629 3.305,-2.2319 8.5337,-22.42522 8.5337,-32.95718 0,-6.43918 0.96365,-7.64606 6.10494,-7.64606 8.52125,0 9.92486,3.66754 6.32475,16.52593 -1.71373,6.12079 -2.54326,11.70131 -1.84342,12.40115 1.63299,1.63299 14.36265,-3.78846 20.05122,-8.53966 2.93594,-2.45215 4.37678,-7.23297 4.37678,-14.52251 l 0,-10.86695 -10.62933,-0.015 c -5.84613,-0.008 -14.8498,-1.18603 -20.00816,-2.61856 -8.71406,-2.41998 -9.37882,-3.27144 -9.37882,-12.01307 0,-10.4825 5.19964,-19.5864 9.62468,-16.85159 1.58421,0.97913 2.88042,4.86508 2.88042,8.63547 0,9.75986 4.3102,12.85769 17.88967,12.85769 6.53796,0 14.88881,1.36763 18.55745,3.03916 6.39797,2.91511 6.60868,3.62848 5.16154,17.47417 -2.42589,23.20963 -9.71478,30.19861 -34.73086,33.30161 -7.90948,0.9811 -14.38086,2.7796 -14.38086,3.9967 0,1.2171 -1.77072,2.2128 -3.9349,2.2128 -2.30897,0 -3.60079,1.6957 -3.12628,4.1037 0.52985,2.6888 7.49111,6.1929 20.19153,10.1637 14.9035,4.6596 19.38291,7.1173 19.38291,10.6349 0,2.5161 -1.78024,5.258 -3.9561,6.0929 -4.97222,1.908 -5.00636,1.9036 -18.55308,-2.4336 z m -34.2819,-156.73877 c 7.70947,-3.58038 8.79014,-6.78044 2.3939,-7.08885 -2.40723,-0.11602 -10.84817,-1.01949 -18.75764,-2.00757 -12.272477,-1.53311 -14.380861,-1.20883 -14.380861,2.21188 0,9.73552 16.601141,13.45297 30.744601,6.88454 z m 10.3465,-19.09856 c 1.99518,-3.22832 -7.62669,-5.21328 -25.45973,-5.25224 -12.24239,-0.0268 -15.631371,0.77922 -15.631371,3.71739 0,3.01972 3.874079,3.75152 19.860541,3.75152 10.92331,0 20.47705,-0.9975 21.23056,-2.21667 z m -9.72927,-58.12003 c 1.93884,-6.10869 -2.45585,-10.05872 -10.10317,-9.0809 -3.39433,0.43402 -5.25639,2.85015 -5.79341,7.51739 -0.707662,6.15008 0.002,6.8778 6.70926,6.8778 5.451,0 7.96155,-1.4522 9.18732,-5.31429 z m 38.6667,125.36321 c 0,-8.25337 -0.97919,-15.00612 -2.17599,-15.00612 -3.32255,0 -8.14314,-20.4397 -6.48833,-27.51121 0.80473,-3.4389 2.14155,-10.737 2.97071,-16.21802 1.70037,-11.23999 5.60961,-16.29524 12.6012,-16.29524 2.6201,0 5.4366,-0.67276 6.25886,-1.49502 2.99364,-2.99363 -1.33704,-8.50904 -6.68128,-8.50904 -8.39149,0 -11.4872,-4.85283 -11.4872,-18.00735 0,-9.31711 0.89237,-12.00489 3.98567,-12.00489 2.19212,0 4.58855,2.30541 5.3254,5.12314 1.92834,7.37391 9.28051,5.02653 10.23794,-3.26876 1.14242,-9.8978 11.49774,-9.65953 14.98526,0.3448 2.0907,5.99739 3.59496,6.99389 8.99824,5.961 3.71744,-0.71064 6.48787,-0.0963 6.48787,1.43901 0,1.47357 -3.95153,3.42057 -8.7812,4.32662 -4.82964,0.90604 -9.3775,2.61223 -10.10634,3.79154 -1.52655,2.46996 7.76611,5.00827 15.13601,4.13441 3.04252,-0.36075 5.00204,0.87655 5.00204,3.15844 0,2.62557 -3.1902,3.98234 -10.62933,4.52059 -13.31896,0.96364 -13.60189,5.30487 -0.7322,11.23482 7.42973,3.4234 10.19901,6.41697 11.56821,12.50511 4.13316,18.37784 -0.63828,46.77005 -7.85993,46.77005 -2.04012,0 -3.90051,4.52396 -4.8853,11.87984 -2.16542,16.17456 -2.96347,18.13238 -7.39112,18.13238 -2.97509,0 -3.83002,-3.07045 -3.83002,-13.7556 0,-13.00529 -0.34103,-13.75561 -6.25254,-13.75561 -4.91427,0 -6.25255,1.27135 -6.25255,5.93992 0,11.26722 -3.13603,21.57129 -6.56517,21.57129 -2.53576,0 -3.43891,-3.941 -3.43891,-15.0061 z m 31.888,-25.61282 c 6.99585,-5.61874 2.9457,-7.59414 -12.30251,-6.00039 -17.51098,1.83027 -20.09722,3.21663 -14.13432,7.57681 4.63242,3.38731 21.50957,2.38092 26.43683,-1.57642 z m 1.87577,-19.40553 c 0,-4.22905 -15.79811,-5.45823 -25.78594,-2.00627 -10.03452,3.46809 -3.21685,7.2806 11.62575,6.50128 10.58906,-0.55597 14.16019,-1.68959 14.16019,-4.49501 z m 0.26631,-12.93603 c 0.87517,-1.41604 -0.72575,-4.89158 -3.55758,-7.72344 -4.81074,-4.81071 -5.77392,-4.91088 -14.66903,-1.52537 -5.2361,1.99286 -9.87553,5.46843 -10.3098,7.72345 -0.65504,3.40133 1.57359,4.10002 13.07781,4.10002 7.62705,0 14.58343,-1.15857 15.4586,-2.57466 z M 169.71006,835.76 c 0,-2.08417 -2.22313,-3.75152 -5.00204,-3.75152 -2.7789,0 -5.00204,1.66735 -5.00204,3.75152 0,2.08418 2.22314,3.75153 5.00204,3.75153 2.77891,0 5.00204,-1.66735 5.00204,-3.75153 z M 81.394122,780.21303 c -16.857945,-1.85023 -9.106135,-6.85262 13.487171,-8.70353 11.581267,-0.94876 24.151867,-2.32744 27.934657,-3.06375 3.78279,-0.73629 6.87781,-0.37264 6.87781,0.80808 0,1.18073 2.43599,2.78382 5.41333,3.56241 4.25508,1.11272 4.80473,2.14894 2.56884,4.84305 -2.86514,3.45227 -34.86568,4.90427 -56.281808,2.55374 z"
       id="path3169"
       inkscape:connector-curvature="0" />
  </g>
</svg>
