<?xml version="1.0" encoding="UTF-8" standalone="no"?>
<!-- Created with Inkscape (http://www.inkscape.org/) -->

<svg
   xmlns:dc="http://purl.org/dc/elements/1.1/"
   xmlns:cc="http://creativecommons.org/ns#"
   xmlns:rdf="http://www.w3.org/1999/02/22-rdf-syntax-ns#"
   xmlns:svg="http://www.w3.org/2000/svg"
   xmlns="http://www.w3.org/2000/svg"
   xmlns:sodipodi="http://sodipodi.sourceforge.net/DTD/sodipodi-0.dtd"
   xmlns:inkscape="http://www.inkscape.org/namespaces/inkscape"
   width="300"
   height="300"
   id="svg2"
   version="1.1"
   inkscape:version="0.48.3.1 r9886"
   sodipodi:docname="戉-.svg">
  <defs
     id="defs4" />
  <sodipodi:namedview
     id="base"
     pagecolor="#ffffff"
     bordercolor="#666666"
     borderopacity="1.0"
     inkscape:pageopacity="0.0"
     inkscape:pageshadow="2"
     inkscape:zoom="1.979899"
     inkscape:cx="195.53253"
     inkscape:cy="154.73919"
     inkscape:document-units="px"
     inkscape:current-layer="layer1"
     showgrid="false"
     inkscape:window-width="1215"
     inkscape:window-height="1000"
     inkscape:window-x="65"
     inkscape:window-y="24"
     inkscape:window-maximized="1" />
  <metadata
     id="metadata7">
    <rdf:RDF>
      <cc:Work
         rdf:about="">
        <dc:format>image/svg+xml</dc:format>
        <dc:type
           rdf:resource="http://purl.org/dc/dcmitype/StillImage" />
        <dc:title></dc:title>
      </cc:Work>
    </rdf:RDF>
  </metadata>
  <g
     inkscape:label="Calque 1"
     inkscape:groupmode="layer"
     id="layer1"
     transform="translate(0,-752.36218)">
    <path
       style="fill:#000000"
       d="m 206.6445,1031.0406 c -5.64343,-5.2514 -12.56608,-12.8869 -15.38362,-16.9677 -2.81754,-4.081 -6.11749,-7.4197 -7.33323,-7.4197 -1.21572,0 -2.21041,-1.8133 -2.21041,-4.0295 0,-2.2161 -1.80737,-5.74215 -4.01639,-7.83563 -2.20902,-2.09348 -7.40737,-12.45578 -11.55193,-23.02732 -8.24345,-21.02671 -8.12918,-29.59685 0.77883,-58.41251 3.51944,-11.38477 3.88663,-16.2698 1.54037,-20.49337 -2.67878,-4.82223 -9.05999,-27.42285 -10.75563,-38.09375 -1.79708,-11.30947 -3.71681,-12.0707 -29.83743,-11.83116 -15.63146,0.14322 -25.82221,1.27809 -27.092,3.01673 -1.119478,1.53283 -2.32039,10.92405 -2.66866,20.86936 -0.439044,12.53651 -3.272678,24.90086 -9.23907,40.31416 -8.533583,22.04528 -10.710819,37.49662 -6.150772,43.65037 4.090398,5.51993 23.475832,6.31886 30.254142,1.24687 6.34119,-4.74494 16.38994,-33.52522 15.5963,-44.66892 -0.51941,-7.29366 2.59751,-9.91473 9.20907,-7.74408 6.98454,2.29314 5.80494,12.99321 -5.8994,53.51251 -2.50646,8.67715 -17.1171,19.7724 -26.03703,19.7724 -21.832951,0 -47.758837,-25.63937 -40.132283,-39.68876 9.131842,-16.8224 18.938649,-75.2436 15.597133,-92.91539 -0.87758,-4.64114 -5.427424,-13.13651 -10.110729,-18.87858 -6.040252,-7.40578 -7.640054,-11.18883 -5.504354,-13.01607 4.183055,-3.57888 15.674063,3.20926 25.276512,14.93179 7.499598,9.1554 7.917066,9.30548 28.132461,10.11435 11.28591,0.45157 24.24509,-0.0144 28.79813,-1.03699 l 8.27826,-1.85806 0.79079,-29.48476 c 0.75882,-28.29383 1.04097,-29.5152 6.98533,-30.23882 5.69282,-0.69299 6.26345,0.38108 7.04496,13.26041 0.80632,13.28766 1.25234,14.05407 8.5999,14.77739 4.26222,0.41959 7.74948,-0.39411 7.74948,-1.80825 0,-1.4141 1.78181,-2.57111 3.95958,-2.57111 2.18516,0 5.65794,-4.59185 7.74949,-10.24669 5.7197,-15.46435 12.25885,-13.72802 12.18576,3.23564 -0.0725,16.83051 -4.71905,21.46275 -21.58005,21.51387 -16.29898,0.0495 -19.83283,2.3649 -18.72727,12.27084 l 0.91353,8.18561 15.49896,-0.58992 c 19.11372,-0.72752 42.37363,1.28113 47.74891,4.12342 3.20716,1.69586 3.32289,2.84666 0.57147,5.68309 -2.58689,2.66684 -10.60645,3.63127 -32.0548,3.85492 -15.73259,0.16395 -29.17908,0.7897 -29.8811,1.39031 -1.59784,1.36704 -1.17396,11.06648 1.1328,25.92217 1.22496,7.88889 3.09178,11.45217 5.99986,11.45217 4.26741,0 20.57281,-13.37105 20.57281,-16.87048 0,-3.13565 14.68479,-5.28386 17.81461,-2.60607 2.00061,1.71166 -2.08796,6.69717 -13.08855,15.95985 -21.87278,18.41722 -21.48666,21.62188 4.73239,39.2785 9.52184,6.41227 19.53164,12.34692 22.24396,13.18811 5.78406,1.79385 6.85673,13.7357 1.2338,13.7357 -7.62619,0 -26.27788,-9.55251 -37.16319,-19.0332 -18.26146,-15.90505 -21.13495,-13.48157 -21.13495,17.82501 0,14.62828 1.50851,23.10723 5.54415,31.16221 6.98502,13.94179 26.40117,38.52473 38.81879,49.14903 10.23895,8.7601 11.10134,15.7131 2.08673,16.8243 -3.60091,0.4439 -9.31853,-2.7429 -15.88642,-8.8543 z"
       id="path3054"
       inkscape:connector-curvature="0" />
  </g>
</svg>
