<?xml version="1.0" encoding="UTF-8" standalone="no"?>
<!-- Created with Inkscape (http://www.inkscape.org/) -->

<svg
   xmlns:dc="http://purl.org/dc/elements/1.1/"
   xmlns:cc="http://creativecommons.org/ns#"
   xmlns:rdf="http://www.w3.org/1999/02/22-rdf-syntax-ns#"
   xmlns:svg="http://www.w3.org/2000/svg"
   xmlns="http://www.w3.org/2000/svg"
   xmlns:sodipodi="http://sodipodi.sourceforge.net/DTD/sodipodi-0.dtd"
   xmlns:inkscape="http://www.inkscape.org/namespaces/inkscape"
   width="300"
   height="300"
   id="svg2"
   version="1.1"
   inkscape:version="0.48.3.1 r9886"
   sodipodi:docname="戊-.svg">
  <defs
     id="defs4" />
  <sodipodi:namedview
     id="base"
     pagecolor="#ffffff"
     bordercolor="#666666"
     borderopacity="1.0"
     inkscape:pageopacity="0.0"
     inkscape:pageshadow="2"
     inkscape:zoom="1.979899"
     inkscape:cx="33.271785"
     inkscape:cy="151.87196"
     inkscape:document-units="px"
     inkscape:current-layer="layer1"
     showgrid="false"
     inkscape:window-width="1215"
     inkscape:window-height="1000"
     inkscape:window-x="65"
     inkscape:window-y="24"
     inkscape:window-maximized="1" />
  <metadata
     id="metadata7">
    <rdf:RDF>
      <cc:Work
         rdf:about="">
        <dc:format>image/svg+xml</dc:format>
        <dc:type
           rdf:resource="http://purl.org/dc/dcmitype/StillImage" />
        <dc:title></dc:title>
      </cc:Work>
    </rdf:RDF>
  </metadata>
  <g
     inkscape:label="Calque 1"
     inkscape:groupmode="layer"
     id="layer1"
     transform="translate(0,-752.36218)">
    <path
       style="fill:#000000"
       d="m 192.8872,1032.6925 c -6.78368,-9.0339 -17.95998,-30.7426 -23.4567,-45.56202 -5.87966,-15.85186 -6.69862,-61.28346 -1.36927,-75.96172 2.74263,-7.55383 3.01185,-11.82369 0.9959,-15.79483 -6.52621,-12.85583 -8.74349,-19.46273 -8.74349,-26.0533 0,-3.85957 -1.16703,-9.82231 -2.59342,-13.25053 -2.50123,-6.01155 -3.39153,-6.23312 -25.04527,-6.23312 -12.34851,0 -24.34469,0.66375 -26.65819,1.47497 -3.43351,1.20397 -4.20634,5.78311 -4.20634,24.92326 5.68832,26.22063 0.66369,46.98239 -0.70694,69.58572 -0.69475,12.02836 -1.965145,23.51 -2.823115,25.51472 -0.85797,2.00474 -1.408136,6.37869 -1.22259,9.71989 0.636114,11.45469 -6.966176,37.61066 -12.18327,41.91706 -6.834325,5.6413 -9.214693,5.3671 -12.615389,-1.4531 -2.171751,-4.3556 -1.785106,-8.5242 1.634035,-17.6173 8.768273,-23.31924 13.170722,-108.83326 8.573851,-166.54016 -1.75861,-22.07678 -1.468162,-26.04678 1.994428,-27.26095 7.837551,-2.74825 11.895954,1.19126 13.64598,13.24628 l 1.728952,11.90977 11.233888,0 c 6.17864,0 18.58938,-0.7025 27.5794,-1.56116 l 16.34552,-1.56114 0,-30.02851 0,-30.0285 7.66756,0 c 8.68832,0 10.85083,4.21422 10.91078,21.26228 0.0325,9.24476 0.69911,10.32738 6.35879,10.32738 8.5678,0 12.13025,-4.6021 13.37495,-17.2783 0.57608,-5.86651 1.16643,-11.48651 1.31194,-12.48886 0.44191,-3.04443 9.24784,-1.8918 14.78735,1.93555 3.96785,2.74146 5.02907,5.9629 4.4362,13.46643 -1.07843,13.64832 -7.37973,26.50703 -13.01141,26.55165 -6.37789,0.0506 -26.04231,6.47543 -25.22707,8.24238 0.36565,0.7925 0.66481,3.62788 0.66481,6.30086 0,4.51501 1.7728,4.85994 24.97824,4.85994 20.61473,0 25.26823,0.69056 26.63824,3.95297 3.39008,8.07271 -3.34188,10.62687 -28.00896,10.62687 l -23.60752,0 0.0159,7.89742 c 0.0159,8.76698 4.70826,26.1222 7.06185,26.1222 0.82952,0 5.70398,-4.37395 10.83214,-9.71989 9.39668,-9.79573 17.25249,-12.28568 21.0832,-6.68242 3.89081,5.69115 3.05743,8.90506 -3.97548,15.33162 -8.74711,7.99302 -16.11912,22.18868 -14.48615,27.89481 1.71032,5.97661 17.95823,21.77536 22.3944,21.77536 5.91154,0 20.89685,16.61292 20.89685,23.16653 0,13.05625 -17.37966,5.42808 -41.63225,-18.27297 -7.54064,-7.36918 -14.60033,-12.59714 -15.68817,-11.61771 -3.33668,3.00411 -2.56864,36.38171 1.13325,49.24869 4.30524,14.96401 5.52654,17.82599 16.20264,37.96918 7.50232,14.155 8.10671,16.7228 5.00434,21.2622 -4.59035,6.7167 -6.18787,6.5181 -12.22338,-1.5195 z"
       id="path3054"
       inkscape:connector-curvature="0"
       sodipodi:nodetypes="csssssssccsssssssscsscccsssscsscsssssccsssssssssssscc" />
  </g>
</svg>
