<?xml version="1.0" encoding="UTF-8" standalone="no"?>
<!-- Created with Inkscape (http://www.inkscape.org/) -->

<svg
   xmlns:dc="http://purl.org/dc/elements/1.1/"
   xmlns:cc="http://creativecommons.org/ns#"
   xmlns:rdf="http://www.w3.org/1999/02/22-rdf-syntax-ns#"
   xmlns:svg="http://www.w3.org/2000/svg"
   xmlns="http://www.w3.org/2000/svg"
   xmlns:sodipodi="http://sodipodi.sourceforge.net/DTD/sodipodi-0.dtd"
   xmlns:inkscape="http://www.inkscape.org/namespaces/inkscape"
   width="300"
   height="300"
   id="svg2"
   version="1.1"
   inkscape:version="0.47 r22583"
   sodipodi:docname="Nouveau document 1">
  <defs
     id="defs4">
    <inkscape:perspective
       sodipodi:type="inkscape:persp3d"
       inkscape:vp_x="0 : 526.18109 : 1"
       inkscape:vp_y="0 : 1000 : 0"
       inkscape:vp_z="744.09448 : 526.18109 : 1"
       inkscape:persp3d-origin="372.04724 : 350.78739 : 1"
       id="perspective10" />
    <inkscape:perspective
       id="perspective2824"
       inkscape:persp3d-origin="0.5 : 0.33333333 : 1"
       inkscape:vp_z="1 : 0.5 : 1"
       inkscape:vp_y="0 : 1000 : 0"
       inkscape:vp_x="0 : 0.5 : 1"
       sodipodi:type="inkscape:persp3d" />
  </defs>
  <sodipodi:namedview
     id="base"
     pagecolor="#ffffff"
     bordercolor="#666666"
     borderopacity="1.0"
     inkscape:pageopacity="0.0"
     inkscape:pageshadow="2"
     inkscape:zoom="1.979899"
     inkscape:cx="50.79626"
     inkscape:cy="137.67288"
     inkscape:document-units="px"
     inkscape:current-layer="layer1"
     showgrid="false"
     inkscape:window-width="1242"
     inkscape:window-height="897"
     inkscape:window-x="0"
     inkscape:window-y="48"
     inkscape:window-maximized="0" />
  <metadata
     id="metadata7">
    <rdf:RDF>
      <cc:Work
         rdf:about="">
        <dc:format>image/svg+xml</dc:format>
        <dc:type
           rdf:resource="http://purl.org/dc/dcmitype/StillImage" />
        <dc:title></dc:title>
      </cc:Work>
    </rdf:RDF>
  </metadata>
  <g
     inkscape:label="Calque 1"
     inkscape:groupmode="layer"
     id="layer1"
     transform="translate(0,-752.36218)">
    <path
       style="fill:#000000"
       d="m 249.34147,1026.3182 c -27.03088,-30.96106 -40.92671,-74.59716 -46.49089,-116.89717 -0.1261,-17.49844 -1.37097,-21.48949 -10.55501,-33.84132 l -25.47492,-45.3917 c -33.3754,1.44626 -66.75101,3.03931 -100.160752,3.3731 -19.624771,0.007 -21.86293,-0.46914 -21.86293,-4.65907 0,-4.32576 2.46439,-4.70163 33.635277,-5.12999 l 89.133495,-3.45763 0,-25.74788 0,-25.74786 7.56793,3.50465 c 5.9121,2.73785 7.56794,5.7234 7.56794,13.64545 0,7.92225 1.33252,10.32479 6.09095,10.98181 10.66459,1.47251 29.23708,-6.41529 35.06194,-14.8909 7.19469,-10.46887 9.98712,-10.10004 11.58557,1.53023 1.68012,12.2246 -4.42919,18.47246 -18.06277,18.47246 -5.69282,0 -16.20209,1.21649 -23.354,2.70331 -11.08621,2.30473 -13.00346,3.67025 -13.00346,9.26146 l 0,6.55817 39.52145,0.65752 c 32.46665,0.54018 39.52145,1.28247 39.52145,4.15837 0,2.85367 -6.6842,3.62329 -36.15792,4.16326 -34.8557,0.63857 -36.15257,0.84871 -36.00949,5.83471 0.30002,10.45046 18.35167,46.02313 23.34884,46.01106 0.95103,-0.002 5.94083,-4.63002 11.0884,-10.28383 15.45971,-16.98015 32.68489,-22.0897 32.68489,-9.6954 0,3.74775 -2.94104,6.2591 -9.55676,8.16056 -9.93401,2.85519 -21.81032,16.50374 -18.88285,21.70063 0.91663,1.62722 12.21512,7.6847 25.10773,13.46106 23.38657,10.47805 27.91927,14.66456 18.57178,17.15349 -5.02561,1.33816 -11.04309,-0.47469 -32.05755,-9.65777 -19.19965,-8.39004 -21.0097,-7.36017 -18.61607,10.59188 3.72129,27.9095 13.59886,51.8828 32.67727,79.30924 7.35024,10.5664 12.85194,21.0568 12.22605,23.312 -1.69387,6.1031 -12.92879,6.7381 -15.14559,0.8561 z m -70.50409,0.3448 c -32.85243,-32.88302 -44.48913,-86.83351 -32.3258,-131.20007 3.28944,-10.81332 0.2073,-17.29468 -19.72408,-19.87878 -11.75217,-1.52367 -12.26753,-1.30154 -14.40485,6.20932 -7.34166,36.8945 -23.43522,73.10257 -25.536977,110.95409 -0.0067,14.89054 -5.509592,24.03214 -14.469189,24.03214 -6.06471,0 -6.464466,-1.0914 -4.488057,-12.2529 9.750064,-37.32418 18.49014,-75.0658 29.056373,-112.20447 4.88492,-16.42316 4.26018,-19.20654 -4.965476,-22.12327 -6.497763,-2.05428 -18.59237,-15.43996 -18.59237,-20.57708 0,-2.89736 10.415097,-0.15428 13.219471,3.48162 4.38863,5.69001 23.718115,11.97364 36.832805,11.97364 5.69531,0 16.30354,1.6515 23.57383,3.66998 15.71226,4.36228 18.99582,10.48677 13.32374,24.85134 -2.1691,5.49326 -4.55118,20.63578 -5.29352,33.65003 -3.27035,27.21272 10.56637,50.28721 24.47733,72.52258 7.79461,11.82423 11.15905,28.71943 5.70365,28.64223 -1.38746,-0.019 -4.26157,-0.8074 -6.38688,-1.7504 z"
       id="path2830"
       sodipodi:nodetypes="cccccscccccsssssscccsssssssssssssscccsccsccssssssccsc" />
  </g>
</svg>
