<?xml version="1.0" encoding="UTF-8" standalone="no"?>
<!-- Created with Inkscape (http://www.inkscape.org/) -->
<svg
   xmlns:svg="http://www.w3.org/2000/svg"
   xmlns="http://www.w3.org/2000/svg"
   version="1.0"
   width="300"
   height="300"
   id="svg2">
  <defs
     id="defs5" />
  <path
     d="M 189.03312,277.01768 C 186.89559,274.56239 184.58925,263.01206 182.88564,246.23063 C 183.78368,226.32475 173.65739,205.80999 176.69858,185.93872 C 181.8193,169.80478 182.02473,152.23203 177.17909,144.83664 C 175.27246,141.92677 172.55673,135.25374 171.14411,130.00769 C 169.0145,122.09893 167.34924,120.20004 161.39658,118.89262 C 157.44805,118.02538 149.5851,118.01048 143.92336,118.85951 C 135.5355,120.11734 133.55906,121.34974 133.24999,125.51483 C 131.50833,148.98644 131.4551,148.66313 136.77762,146.94351 C 139.54176,146.05047 145.2189,144.78892 149.3935,144.14007 C 155.4142,143.20429 156.98367,143.77205 156.98367,146.88584 C 156.98367,151.96002 153.19505,155.53206 142.48639,160.5544 C 137.72411,162.7879 133.10738,165.78082 132.22698,167.20533 C 131.34659,168.62984 130.21648,178.84845 129.71563,189.91335 C 129.47938,204.93963 126.37839,219.61554 125.21963,234.55345 C 123.81108,255.33721 122.69077,259.37312 116.809,264.85283 C 112.94346,268.45412 111.26243,268.89013 109.80617,266.66905 C 107.73703,263.51325 109.27339,248.66372 112.64567,239.22432 C 116.42792,221.39134 116.54147,203.00918 118.64457,184.92539 C 119.54118,178.02984 119.18996,173.83207 117.71643,173.83207 C 116.41261,173.83207 110.78932,178.05713 105.22021,183.2211 C 97.463187,191.71338 85.910811,196.1431 79.605819,205.93673 C 75.933397,212.79872 69.136967,216.88004 67.038007,213.48384 C 64.337117,209.11372 68.424487,197.67933 75.088847,190.96161 C 87.148228,176.27858 111.15081,171.03741 120.20866,153.87418 C 120.72275,151.1849 120.6783,142.55517 120.10989,134.697 C 118.98661,119.16775 116.94748,116.9585 106.32172,119.75851 C 102.71577,120.70871 95.036189,121.44083 89.255979,121.38544 C 80.274029,121.29936 78.641159,120.54482 78.021739,116.19421 C 77.396199,111.80067 78.675219,110.92056 87.363489,109.76604 C 92.900069,109.03033 102.15927,108.16822 107.93948,107.85024 L 118.44895,107.27209 L 117.82567,95.5949 C 116.81783,76.712784 115.53318,73.408244 109.20053,73.408244 C 106.08959,73.408244 102.89474,74.459191 102.10088,75.743682 C 100.39473,78.504295 82.690632,78.895261 82.249659,76.21077 C 80.495631,65.532865 116.52726,57.725833 131.71843,44.941099 C 142.95421,33.246904 150.76631,33.260281 151.89007,44.975638 C 152.48789,51.208013 149.45666,53.016527 147.80305,54.005914 C 140.46836,58.394401 135.88741,60.228484 128.95842,61.614284 L 128.95842,83.721497 C 128.95842,95.88047 129.74663,106.25027 130.71,106.76552 L 166.34427,105.57622 C 167.6738,79.267643 163.5613,52.275174 167.56719,26.115631 C 169.72679,20.576332 177.34064,20.934642 179.15815,26.661107 C 179.96681,29.208976 179.91702,38.513386 179.04751,47.337573 C 177.52054,62.833943 177.65508,63.432004 182.98933,64.859849 C 190.732,66.932367 191.23832,66.845216 195.35157,62.731957 C 200.46062,55.831131 198.04964,46.864847 202.27198,39.495064 C 207.37306,32.518927 213.03418,38.779915 213.03418,51.397659 C 213.03418,70.321807 205.61238,78.07912 187.50673,78.07912 C 179.7749,78.07912 176.22074,79.912439 177.64588,90.626666 C 178.83928,99.598713 177.945,98.045008 179.3483,104.93665 L 204.94913,106.10437 C 225.62948,107.04766 230.54996,107.9454 230.54996,110.77525 C 230.54996,113.53279 226.04612,114.56369 209.3895,115.61877 C 184.18167,117.21551 181.89642,118.26879 183.8952,127.36915 C 185.70943,135.62927 191.76013,148.14333 193.93787,148.1394 C 194.80716,148.13783 198.60649,145.48079 202.38083,142.23487 C 211.04735,134.78169 219.83981,132.38774 222.58863,136.73283 C 225.71171,141.66949 223.99326,144.18668 214.0119,149.2961 C 203.99026,154.42614 199.02155,158.43984 199.02155,161.40524 C 199.02155,164.03037 214.86617,180.49754 225.41393,188.83461 C 230.82746,193.11353 234.05311,197.64002 234.05311,200.95782 C 234.05311,213.1111 225.75972,209.80049 205.22582,189.45037 C 197.69233,181.9843 190.87806,176.52621 190.08299,177.32127 C 189.28792,178.11634 188.84619,187.37778 189.10137,197.90226 C 189.52601,215.41546 191.0314,227.09574 196.92516,258.60663 C 198.07818,264.77118 199.02155,271.75265 199.02155,274.12097 C 199.02155,280.0708 193.16879,281.76813 189.03312,277.01768 z "
     style="fill:black;fill-opacity:1"
     id="path1893" />
</svg>
