<?xml version="1.0" encoding="UTF-8" standalone="no"?>
<!-- Created with Inkscape (http://www.inkscape.org/) -->

<svg
   xmlns:dc="http://purl.org/dc/elements/1.1/"
   xmlns:cc="http://creativecommons.org/ns#"
   xmlns:rdf="http://www.w3.org/1999/02/22-rdf-syntax-ns#"
   xmlns:svg="http://www.w3.org/2000/svg"
   xmlns="http://www.w3.org/2000/svg"
   xmlns:sodipodi="http://sodipodi.sourceforge.net/DTD/sodipodi-0.dtd"
   xmlns:inkscape="http://www.inkscape.org/namespaces/inkscape"
   width="300"
   height="300"
   id="svg2"
   version="1.1"
   inkscape:version="0.48.3.1 r9886"
   sodipodi:docname="Nouveau document 1">
  <defs
     id="defs4" />
  <sodipodi:namedview
     id="base"
     pagecolor="#ffffff"
     bordercolor="#666666"
     borderopacity="1.0"
     inkscape:pageopacity="0.0"
     inkscape:pageshadow="2"
     inkscape:zoom="1.979899"
     inkscape:cx="246.83901"
     inkscape:cy="147.99201"
     inkscape:document-units="px"
     inkscape:current-layer="layer1"
     showgrid="false"
     inkscape:window-width="1215"
     inkscape:window-height="1000"
     inkscape:window-x="65"
     inkscape:window-y="24"
     inkscape:window-maximized="1" />
  <metadata
     id="metadata7">
    <rdf:RDF>
      <cc:Work
         rdf:about="">
        <dc:format>image/svg+xml</dc:format>
        <dc:type
           rdf:resource="http://purl.org/dc/dcmitype/StillImage" />
        <dc:title></dc:title>
      </cc:Work>
    </rdf:RDF>
  </metadata>
  <g
     inkscape:label="Calque 1"
     inkscape:groupmode="layer"
     id="layer1"
     transform="translate(0,-752.36218)">
    <path
       style="fill:#000000"
       d="m 150.32121,1027.9435 c -1.66777,-3.2933 1.33669,-17.6811 7.67075,-36.73327 1.67775,-5.04652 4.36925,-13.30447 5.98108,-18.351 1.61183,-5.04652 3.78881,-11.23997 4.83771,-13.76323 1.86886,-4.49576 0.72024,-4.57435 -57.28079,-3.9203 -32.553309,0.36708 -59.167008,-0.14911 -59.141513,-1.14694 0.02422,-0.99791 1.338055,-3.36274 2.91683,-5.25519 2.391259,-2.86643 11.838067,-3.39176 56.589573,-3.14693 36.69804,0.20072 54.0778,1.1093 54.85115,2.86734 1.94443,4.4203 9.70892,2.8094 9.70892,-2.01429 0,-2.52326 1.36221,-4.58775 3.02715,-4.58775 1.66492,0 3.02713,-2.06449 3.02713,-4.58774 0,-2.52326 1.36222,-4.58775 3.02714,-4.58775 1.66493,0 3.02715,-1.46235 3.02715,-3.24966 0,-1.7873 1.57248,-3.64686 3.49441,-4.13231 4.3441,-1.09726 4.04844,-30.64227 -0.39526,-39.49895 -1.70455,-3.39727 -3.09915,-11.97732 -3.09915,-19.06681 0,-7.08947 -2.26588,-19.00929 -5.03526,-26.48849 l -5.03525,-13.59854 -59.29152,0.83174 c -57.639296,0.80859 -59.29151,0.70392 -59.29151,-3.75599 0,-5.49699 -4.25707,-5.14329 65.84034,-5.47009 l 56.75891,-0.26459 0,-25.23262 c 0,-23.70335 0.36692,-25.23261 6.05429,-25.23261 6.45304,0 6.88532,0.95005 6.5231,14.33671 -0.22583,8.34741 0.0832,8.60203 10.4432,8.60203 14.40833,0 21.11739,-3.11637 25.03299,-11.62782 4.47145,-9.7198 10.76339,-7.4048 11.9085,4.38148 1.26943,13.06602 -3.48962,16.03555 -27.05002,16.87857 l -19.28991,0.6902 -0.93955,8.60203 -0.9395,8.60203 29.1568,0 c 22.47001,0 30.24778,0.82668 33.91377,3.60466 4.29912,3.25776 4.30481,3.94725 0.059,7.1646 -3.94706,2.99095 -7.98473,3.20181 -25.26231,1.31926 -24.20267,-2.6371 -30.33046,-1.80995 -32.4675,4.38262 -2.62244,7.59908 5.90254,61.50518 9.73151,61.53545 2.71278,0.0207 21.55991,-16.77904 21.55991,-19.21867 0,-3.12868 12.76663,-10.83115 16.4372,-9.91701 7.66387,1.90866 4.18935,10.18808 -8.81114,20.99603 -7.5242,6.25526 -13.68034,12.47891 -13.68034,13.83032 0,1.35143 -2.72443,3.94516 -6.05429,5.76381 -7.18486,3.92416 -7.44262,7.28305 -1.79567,23.40029 5.23099,14.93 6.96842,18.72116 14.23178,31.05421 3.14971,5.34819 5.72675,10.90446 5.72675,12.34727 0,1.4428 2.63324,4.35386 5.85167,6.46904 8.15584,5.36009 11.08727,15.17508 5.05612,16.92886 -9.40769,2.7356 -22.29463,-13.89349 -36.12582,-46.61607 -4.68568,-11.08557 -9.03051,-17.46782 -12.21691,-17.9457 -3.29995,-0.49495 -4.94505,0.8405 -4.94505,4.01428 0,2.61575 -1.36222,4.75593 -3.02714,4.75593 -1.66493,0 -3.02715,2.06449 -3.02715,4.58775 0,2.52327 -1.36221,4.58774 -3.02713,4.58774 -1.66494,0 -3.02715,3.09674 -3.02715,6.88163 0,3.7849 -1.36222,6.88162 -3.02714,6.88162 -1.66493,0 -3.02715,3.55192 -3.02715,7.89317 0,4.34125 -1.23927,8.4736 -2.75397,9.18296 -1.51469,0.70937 -4.3869,8.77017 -6.3827,17.9129 -6.20145,28.40889 -11.99675,37.99799 -16.99703,28.12379 z M 91.692943,917.2328 c -8.72697,-5.99756 -9.208286,-7.26816 -9.775637,-25.80609 -0.36973,-12.08111 0.83482,-21.45216 3.166639,-24.6354 5.967638,-8.14666 19.449555,-12.05921 42.036065,-12.19916 30.19587,-0.18717 30.84903,-0.0795 36.05033,5.93575 7.03246,8.13303 4.99084,48.9934 -2.74035,54.84434 -6.67776,5.05373 -22.77509,8.04168 -43.71335,8.11398 -13.09975,0.0452 -17.434948,-1.03812 -25.023697,-6.25342 z m 54.272367,-11.8775 c 6.69191,-5.07093 10.83844,-21.74855 7.91497,-31.83472 -2.2334,-7.70544 -7.79143,-9.54071 -29.04007,-9.58903 -21.48187,-0.0489 -29.588673,3.89648 -31.905503,15.52743 -2.173514,10.91147 0.04509,22.52312 5.20314,27.23275 2.185053,1.99509 10.204503,3.08598 22.685583,3.08598 15.02898,0 20.59865,-0.97969 25.14188,-4.42241 z"
       id="path2996"
       inkscape:connector-curvature="0" />
  </g>
</svg>
