<?xml version="1.0" encoding="UTF-8" standalone="no"?>
<svg
   xmlns:dc="http://purl.org/dc/elements/1.1/"
   xmlns:cc="http://creativecommons.org/ns#"
   xmlns:rdf="http://www.w3.org/1999/02/22-rdf-syntax-ns#"
   xmlns:svg="http://www.w3.org/2000/svg"
   xmlns="http://www.w3.org/2000/svg"
   viewBox="0 0 300 300"
   height="300"
   width="300"
   id="svg354"
   version="1.1">
  <metadata
     id="metadata360">
    <rdf:RDF>
      <cc:Work
         rdf:about="">
        <dc:format>image/svg+xml</dc:format>
        <dc:type
           rdf:resource="http://purl.org/dc/dcmitype/StillImage" />
        <dc:title></dc:title>
      </cc:Work>
    </rdf:RDF>
  </metadata>
  <defs
     id="defs358" />
  <path
     id="path364"
     d="m 146.87176,281.73421 c -0.88216,-2.77158 -1.08803,-11.60419 -1.33519,-56.17243 -0.21077,-38.00408 -0.38833,-50.05951 -0.57622,-53.36182 -14.08489,-0.82216 -30.43138,-2.41098 -43.21995,-8.95513 -5.802463,-3.0083 -15.420551,-12.29758 -18.947473,-18.29972 -6.632988,-11.28806 -6.83184,-22.91021 -6.964243,-34.88791 -0.08223,-7.43886 6.72897,-8.79004 9.23379,-2.9291 3.553626,8.72905 1.504999,15.38507 4.261321,24.81821 2.120595,7.25745 9.140858,15.81171 17.265225,20.42078 12.77029,7.24476 24.87789,7.97831 38.44267,7.97831 -0.12286,-17.47086 -0.31153,-32.8393 0.15559,-52.75296 -6.43648,-0.47973 -11.8453,-1.70766 -17.81843,-3.23117 -18.9979,-4.845579 -28.597063,-11.879802 -33.757635,-29.691558 -1.322484,-4.564565 -1.559419,-6.9775 -1.517415,-15.45279 0.06017,-12.136 0.812492,-15.680323 4.422769,-16.117529 8.115521,-0.982792 7.252541,12.779386 7.365921,17.199197 0.24798,10.29754 0.39855,13.084005 3.37671,18.659165 2.42542,4.540411 5.48443,7.97143 11.10175,10.73465 7.29248,3.587244 25.13701,6.191186 27.42456,5.880476 0.0672,-20.487385 -1.03138,-44.895649 5.32976,-56.692151 4.74666,-9.028349 13.44508,-12.52174 18.78013,-14.503451 15.6211,-5.789038 30.05987,-9.930895 34.1909,-9.316978 6.92279,1.028801 7.33617,6.031223 3.40727,8.697816 -5.00558,3.397346 -10.83644,4.663149 -20.36214,7.403794 -9.77484,2.812325 -21.23212,6.467785 -25.11978,14.590937 -3.08252,6.44084 -3.91667,12.426752 -4.31556,31.192232 l -0.40354,18.983911 c 8.61283,0.41183 18.72221,-1.77927 25.30262,-5.084116 10.83198,-5.440094 14.36524,-16.665634 15.13245,-24.96246 1.71053,-18.49818 1.12925,-19.458405 3.44059,-21.348921 9.19212,-7.518519 10.45565,9.916692 10.14821,15.005321 -0.74379,10.467394 -3.73798,25.599235 -12.36235,34.050866 -10.42931,10.220409 -28.03651,13.999979 -41.47114,14.113499 0.12099,17.43196 0.11876,35.23364 0.23975,52.6656 14.42122,0.0804 34.05178,-4.95492 42.51178,-13.37253 8.88163,-9.39192 11.90296,-16.65309 12.60283,-30.28848 0.51682,-10.06915 1.10627,-11.86621 4.33031,-13.20164 3.15544,-1.30703 4.27549,-0.59814 6.0991,3.86019 3.15623,18.00263 -2.19871,34.25205 -12.03742,44.54074 -14.3028,14.95695 -33.46706,18.8316 -53.38336,19.6151 l -0.34633,54.98146 c -0.3064,48.64149 -0.30515,53.60302 -1.53286,55.49298 -3.0779,4.73817 -7.97089,3.26927 -9.09497,-0.26239 z"
     style="fill:#000000;stroke-width:0.69266087" />
</svg>
