<?xml version="1.0" encoding="UTF-8" standalone="no"?>
<!-- Created with Inkscape (http://www.inkscape.org/) -->

<svg
   xmlns:dc="http://purl.org/dc/elements/1.1/"
   xmlns:cc="http://creativecommons.org/ns#"
   xmlns:rdf="http://www.w3.org/1999/02/22-rdf-syntax-ns#"
   xmlns:svg="http://www.w3.org/2000/svg"
   xmlns="http://www.w3.org/2000/svg"
   xmlns:sodipodi="http://sodipodi.sourceforge.net/DTD/sodipodi-0.dtd"
   xmlns:inkscape="http://www.inkscape.org/namespaces/inkscape"
   width="300"
   height="300"
   id="svg2"
   version="1.1"
   inkscape:version="0.48.4 r9939"
   sodipodi:docname="image-seal.svg">
  <defs
     id="defs4" />
  <sodipodi:namedview
     id="base"
     pagecolor="#ffffff"
     bordercolor="#666666"
     borderopacity="1.0"
     inkscape:pageopacity="0.0"
     inkscape:pageshadow="2"
     inkscape:zoom="2.0506101"
     inkscape:cx="158.68577"
     inkscape:cy="132.31986"
     inkscape:document-units="px"
     inkscape:current-layer="layer1"
     showgrid="false"
     inkscape:window-width="1215"
     inkscape:window-height="1000"
     inkscape:window-x="65"
     inkscape:window-y="24"
     inkscape:window-maximized="1"
     fit-margin-top="10"
     fit-margin-left="10"
     fit-margin-right="10"
     fit-margin-bottom="10" />
  <metadata
     id="metadata7">
    <rdf:RDF>
      <cc:Work
         rdf:about="">
        <dc:format>image/svg+xml</dc:format>
        <dc:type
           rdf:resource="http://purl.org/dc/dcmitype/StillImage" />
        <dc:title />
      </cc:Work>
    </rdf:RDF>
  </metadata>
  <g
     inkscape:label="Calque 1"
     inkscape:groupmode="layer"
     id="layer1"
     transform="translate(0,-752.36218)">
    <path
       style="fill:#000000"
       d="m 189.06254,1001.6525 c 0.95485,-25.24031 2.16019,-51.43962 2.67856,-58.22062 0.83948,-10.98138 -1.26781,-31.07697 -5.09443,-48.5815 -1.14282,-5.22775 -16.58922,-16.54152 -19.04674,-13.95086 -0.46275,0.48785 -1.58768,19.38062 -2.49987,41.98394 -2.0826,51.60621 -4.16044,73.25527 -7.34978,76.57729 -1.37428,1.43145 -2.49872,5.19185 -2.49872,8.35635 0,6.4894 -4.80158,12.329 -10.13725,12.329 -4.89364,0 -4.50971,-6.0941 2.44702,-38.84063 6.59157,-31.02766 7.01599,-36.13491 7.41647,-89.24472 0.20548,-27.23841 1.13633,-36.30231 3.72845,-36.30231 1.90008,0 8.37285,4.29153 14.38393,9.53674 6.01109,5.24517 11.85393,9.56038 12.98409,9.58929 1.13017,0.0288 2.05485,-7.15309 2.05485,-15.95995 0,-15.30119 -0.60854,-16.70791 -13.69898,-31.6671 -9.89717,-11.31004 -13.69899,-17.9292 -13.69899,-23.85061 0,-8.58036 6.81034,-24.36269 10.51293,-24.36269 1.18406,0 4.54415,-2.15759 7.46685,-4.79464 2.92273,-2.63706 10.70896,-7.58993 17.30275,-11.0064 9.19999,-4.76681 12.86387,-5.4854 15.75107,-3.08926 5.21879,4.33121 4.7033,10.53334 -1.0323,12.42013 -20.83433,6.85363 -39.04211,20.32995 -39.04211,28.89661 0,3.02534 4.71461,10.85667 10.47693,17.403 11.77775,13.38024 16.92104,27.39485 16.92104,46.10709 0,6.98289 0.77854,12.69616 1.73007,12.69616 0.95153,0 7.6199,-6.33967 14.8186,-14.08817 18.99069,-20.44111 21.67717,-18.17971 22.33003,18.79681 1.06313,60.2108 -1.17679,141.90495 -3.98624,145.38635 -7.46877,9.2553 -8.55189,0.3417 -7.93944,-65.33942 0.34336,-36.82082 1.34037,-72.18675 2.2156,-78.59103 1.44513,-10.57446 1.05148,-11.64413 -4.28535,-11.64413 -3.23216,0 -6.65622,2.03147 -7.60902,4.51442 -0.95279,2.48291 -4.97851,7.72277 -8.94604,11.64413 l -7.21369,7.12972 0.12767,71.49796 c 0.10138,56.71815 -0.64963,72.43465 -3.63253,76.02935 -8.41926,10.146 -9.38586,4.91 -7.63546,-41.3603 z m -94.083286,-3.84355 c 0.12603,-26.14017 0.17699,-48.91446 0.11288,-50.60985 -0.0638,-1.69511 -3.72065,-3.80311 -8.12602,-4.68423 -13.92856,-2.78555 -18.86666,-10.97343 -19.86701,-32.94082 -1.12052,-24.60738 -0.0953,-31.89724 4.48595,-31.89724 5.30321,0 6.95207,6.42129 6.95207,27.0741 0,19.0272 2.74289,24.98199 11.50715,24.98199 4.43724,0 4.93163,-2.89668 4.93163,-28.89524 l 0,-28.8953 -8.51942,-4.66722 c -18.66262,-10.22396 -18.97482,-10.82565 -20.6838,-39.86341 -1.42497,-24.21194 -1.12019,-26.87957 2.97375,-26.02807 3.63155,0.75533 4.77374,5.03284 5.60294,20.98303 1.00068,19.24848 6.28255,33.39175 12.4703,33.39175 3.24024,0 2.8804,3.37825 4.19969,-39.42516 1.19612,-38.80682 3.14921,-44.49502 18.489336,-53.84849 10.68428,-6.51464 17.19935,-6.81621 19.46914,-0.90123 1.79084,4.66686 -5.10178,11.73756 -11.59431,11.89384 -10.40032,0.25042 -15.3182,13.96579 -14.76712,41.18408 0.78537,38.78947 4.59796,47.82727 15.22314,36.08658 3.52543,-3.89555 4.53433,-10.60129 4.53433,-30.13777 0,-23.30085 0.39832,-25.12739 5.4796,-25.12739 5.02385,0 5.47959,1.82654 5.47959,21.96153 0,31.07406 -4.14054,42.66286 -17.09496,47.84617 l -10.30301,4.12246 0,28.79004 c 0,28.53961 0.057,28.79006 6.55636,28.79006 8.40934,0 9.88242,-4.25348 9.88242,-28.53532 0,-21.22444 1.44218,-25.26871 7.28236,-20.42179 4.74023,3.93405 4.81883,33.11352 0.12548,46.58398 -4.48066,12.86019 -9.10752,18.27787 -16.51117,19.33379 -4.10008,0.58467 -5.78881,2.5639 -5.4003,6.32893 0.31088,3.01295 0.72103,21.74193 0.91139,41.61998 0.34878,36.41427 -2.29976,49.60917 -10.494006,52.28047 -2.80462,0.9143 -3.49025,-8.6958 -3.30852,-46.37425 z"
       id="path3015"
       inkscape:connector-curvature="0" />
  </g>
</svg>
