<?xml version="1.0" encoding="UTF-8" standalone="no"?>
<!-- Created with Inkscape (http://www.inkscape.org/) -->

<svg
   xmlns:dc="http://purl.org/dc/elements/1.1/"
   xmlns:cc="http://creativecommons.org/ns#"
   xmlns:rdf="http://www.w3.org/1999/02/22-rdf-syntax-ns#"
   xmlns:svg="http://www.w3.org/2000/svg"
   xmlns="http://www.w3.org/2000/svg"
   xmlns:sodipodi="http://sodipodi.sourceforge.net/DTD/sodipodi-0.dtd"
   xmlns:inkscape="http://www.inkscape.org/namespaces/inkscape"
   width="300"
   height="300"
   id="svg2"
   version="1.1"
   inkscape:version="0.48.4 r9939"
   sodipodi:docname="image-seal.svg">
  <defs
     id="defs4" />
  <sodipodi:namedview
     id="base"
     pagecolor="#ffffff"
     bordercolor="#666666"
     borderopacity="1.0"
     inkscape:pageopacity="0.0"
     inkscape:pageshadow="2"
     inkscape:zoom="1.979899"
     inkscape:cx="200.43343"
     inkscape:cy="122.13442"
     inkscape:document-units="px"
     inkscape:current-layer="layer1"
     showgrid="false"
     inkscape:window-width="1215"
     inkscape:window-height="1000"
     inkscape:window-x="65"
     inkscape:window-y="24"
     inkscape:window-maximized="1" />
  <metadata
     id="metadata7">
    <rdf:RDF>
      <cc:Work
         rdf:about="">
        <dc:format>image/svg+xml</dc:format>
        <dc:type
           rdf:resource="http://purl.org/dc/dcmitype/StillImage" />
        <dc:title />
      </cc:Work>
    </rdf:RDF>
  </metadata>
  <g
     inkscape:label="Calque 1"
     inkscape:groupmode="layer"
     id="layer1"
     transform="translate(0,-752.36218)">
    <path
       style="fill:#000000"
       d="m 188.98884,1037.9174 c -0.8327,-2.6236 1.44329,-12.6063 5.05772,-22.1839 8.57295,-22.71665 9.69953,-52.71376 2.5732,-68.51709 -2.63471,-5.84277 -6.03539,-10.60919 -7.55706,-10.59206 -1.52167,0.0177 -5.19677,7.10308 -8.16692,15.74657 -11.47048,33.38063 -17.34699,48.50038 -19.16438,49.30808 -1.03926,0.4619 -1.88957,2.4157 -1.88957,4.3417 0,6.0401 -10.93198,26.3116 -14.18924,26.3116 -7.49766,0 -6.17217,-10.749 3.90397,-31.6586 5.6569,-11.739 10.28527,-22.28206 10.28527,-23.42909 0,-1.147 1.89287,-5.8799 4.20643,-10.51753 7.24585,-14.52465 9.02324,-27.62782 9.41463,-69.40592 0.32075,-34.238 1.07813,-41.59767 4.87744,-47.3961 2.47372,-3.77541 5.8426,-6.40467 7.48642,-5.84284 3.09106,1.05654 3.13577,6.18936 0.30433,34.94427 -1.95256,19.82938 0.87194,30.12082 11.65061,42.45002 13.91546,15.9173 17.49404,25.5975 17.42643,47.13932 -0.0623,19.82043 -2.81543,37.04747 -7.76726,48.59977 -10.25401,23.9221 -15.54566,29.8589 -18.45202,20.7018 z m -96.026682,-5.7699 c -2.104496,-3.4051 -1.944234,-38.87503 0.269153,-59.57611 1.65397,-15.4688 1.582644,-15.71173 -5.53833,-18.8665 -3.967615,-1.75778 -8.904913,-4.81924 -10.971766,-6.80327 -7.258187,-6.96737 -8.35885,-63.21686 -1.237,-63.21686 6.885523,0 8.777941,6.75255 7.182363,25.62822 -1.64537,19.46468 1.012294,29.79968 7.663057,29.79968 2.459715,0 3.667842,-5.6351 4.456329,-20.78547 1.711562,-32.88761 0.341839,-40.62029 -7.836448,-44.24035 -9.252706,-4.09565 -12.779277,-16.52344 -12.73043,-44.86257 0.04319,-25.05525 2.27828,-31.55204 9.337636,-27.1418 3.759753,2.34882 4.383065,5.91786 3.873581,22.18037 -0.41586,13.2741 0.652008,22.31561 3.388937,28.69387 3.66298,8.53637 4.168658,8.86914 6.066131,3.99164 1.138514,-2.9266 2.352612,-17.09849 2.697978,-31.49312 0.889571,-37.07573 5.445991,-48.34872 23.260601,-57.54883 5.20662,-2.6889 8.22122,-2.95086 11.33752,-0.98514 6.77108,4.27109 5.20121,11.58806 -2.95418,13.76915 -16.08263,4.30116 -18.70687,11.82023 -20.77776,59.53382 -0.94166,21.69575 -0.52092,25.82437 2.63175,25.82437 7.6262,0 10.73447,-13.34436 11.29681,-48.49941 0.16351,-10.22395 0.9255,-11.96739 5.23033,-11.96739 4.71142,0 5.03862,1.67833 5.03497,25.82436 -0.005,30.7128 -4.14321,42.08275 -16.66173,45.77529 -7.75243,2.28667 -7.86681,2.56163 -9.43285,22.67505 -2.43913,31.32704 -2.06557,42.34556 1.39651,41.19152 4.48596,-1.49531 7.309,-13.5071 8.15251,-34.68822 0.68015,-17.0798 1.26945,-18.97324 6.13154,-19.70097 6.15595,-0.92136 6.08644,-1.36664 5.39926,34.58419 -0.49031,25.64988 -2.63243,30.46688 -13.54855,30.46688 -3.48143,0 -7.07406,1.20411 -7.98361,2.67577 -0.90955,1.47166 -1.88644,18.3756 -2.17088,37.56431 -0.36376,24.53772 -1.50374,36.07732 -3.84239,38.89522 -3.87872,4.6736 -6.781354,5.088 -9.121042,1.3023 z M 220.90843,899.55478 C 203.61951,874.96434 194.54019,806.602 205.55918,783.98369 c 7.93353,-16.28485 13.53627,-6.48404 9.29874,16.26616 -4.6185,24.79554 -0.44255,49.77798 14.21111,85.01697 7.2382,17.40633 1.31865,27.77053 -8.1606,14.28796 z m -83.74166,-5.48375 c 0,-3.98741 1.70062,-8.66123 3.77917,-10.38627 2.07854,-1.72505 3.77917,-5.19821 3.77917,-7.71817 0,-2.51992 1.00303,-5.20163 2.22897,-5.95928 3.7412,-2.31219 9.52107,-36.02856 11.90798,-69.46441 1.57798,-22.10437 3.8995,-28.32144 8.76041,-23.46054 5.26589,5.26591 1.40942,66.4121 -5.21381,82.66761 -12.92671,31.72624 -18.07745,41.57093 -21.7498,41.57093 -2.16747,0 -3.49209,-2.75006 -3.49209,-7.24987 z"
       id="path3262"
       inkscape:connector-curvature="0" />
  </g>
</svg>
