<?xml version="1.0" encoding="UTF-8" standalone="no"?>
<!-- Created with Inkscape (http://www.inkscape.org/) -->

<svg
   xmlns:dc="http://purl.org/dc/elements/1.1/"
   xmlns:cc="http://creativecommons.org/ns#"
   xmlns:rdf="http://www.w3.org/1999/02/22-rdf-syntax-ns#"
   xmlns:svg="http://www.w3.org/2000/svg"
   xmlns="http://www.w3.org/2000/svg"
   xmlns:sodipodi="http://sodipodi.sourceforge.net/DTD/sodipodi-0.dtd"
   xmlns:inkscape="http://www.inkscape.org/namespaces/inkscape"
   width="300"
   height="300"
   id="svg2"
   version="1.1"
   inkscape:version="0.48.2 r9819"
   sodipodi:docname="Nouveau document 1">
  <defs
     id="defs4" />
  <sodipodi:namedview
     id="base"
     pagecolor="#ffffff"
     bordercolor="#666666"
     borderopacity="1.0"
     inkscape:pageopacity="0.0"
     inkscape:pageshadow="2"
     inkscape:zoom="1.979899"
     inkscape:cx="158.13421"
     inkscape:cy="174.74214"
     inkscape:document-units="px"
     inkscape:current-layer="layer1"
     showgrid="false"
     inkscape:window-width="1280"
     inkscape:window-height="999"
     inkscape:window-x="0"
     inkscape:window-y="24"
     inkscape:window-maximized="1" />
  <metadata
     id="metadata7">
    <rdf:RDF>
      <cc:Work
         rdf:about="">
        <dc:format>image/svg+xml</dc:format>
        <dc:type
           rdf:resource="http://purl.org/dc/dcmitype/StillImage" />
        <dc:title></dc:title>
      </cc:Work>
    </rdf:RDF>
  </metadata>
  <g
     inkscape:label="Calque 1"
     inkscape:groupmode="layer"
     id="layer1"
     transform="translate(0,-752.36218)">
    <path
       style="fill:#000000"
       d="m 142.94775,996.6735 c -1.13876,-41.20293 -0.68369,-39.73622 -13.16136,-42.41947 -5.99699,-1.28962 -13.66843,-4.10445 -17.04764,-6.25518 -6.47285,-4.1197 -9.29068,-19.09622 -6.02295,-32.0115 3.23294,-12.77778 8.46265,-7.62116 8.46265,8.34439 0,14.63508 0.51375,15.65284 8.92694,17.68463 4.90981,1.18573 10.18869,2.15587 11.73085,2.15587 1.54216,0 3.89442,-7.02964 5.22726,-15.62142 2.57375,-16.59105 -0.36068,-21.95843 -12.00503,-21.95843 -12.39892,0 -20.03036,-7.14357 -21.98925,-20.58351 -2.2486,-15.4276 4.1298,-16.44347 9.83255,-1.566 4.09698,10.68831 12.90734,15.95097 19.5937,11.70382 3.65822,-2.32368 5.3567,-11.25086 6.24459,-32.82142 0.23964,-5.82181 2.64205,-7.54651 16.81031,-12.06822 18.3107,-5.84375 49.56833,-7.45812 52.15284,-2.69355 0.82405,1.51914 -0.58955,3.15584 -3.14133,3.63713 -2.55177,0.48129 -13.25296,2.4954 -23.78042,4.47581 -28.16098,5.29761 -28.0879,5.23793 -28.87678,23.58443 -0.70326,16.3551 -0.68768,16.38513 8.86423,17.08327 10.65864,0.77904 15.6679,-4.55878 18.11709,-19.30538 0.72355,-4.35652 1.44603,-8.66702 1.60551,-9.57888 0.15947,-0.91187 1.71108,-1.65794 3.44802,-1.65794 4.42132,0 6.55862,24.39083 2.64973,30.23861 -1.77091,2.64932 -10.45792,7.12574 -19.30446,9.94761 -8.84654,2.82186 -16.63547,5.31477 -17.30874,5.53979 -1.94907,0.65143 -1.09453,9.80711 1.92188,20.59138 2.11651,7.56692 4.44815,10.0829 9.74269,10.51291 12.15114,0.9869 16.7045,-2.93431 18.38886,-15.8359 1.0414,-7.97676 3.18063,-12.36165 6.03081,-12.36165 6.58253,0 7.93988,4.26841 5.36099,16.8585 -2.63227,12.85063 -8.38025,17.47999 -26.70826,21.51051 l -12.79143,2.81297 0.62545,30.48961 c 0.59424,28.96821 -1.52937,36.64681 -10.13511,36.64681 -1.49368,0 -3.05256,-12.1858 -3.46419,-27.0796 z m 106.68553,24.6557 c -0.80441,-1.7064 -3.40524,-13.0502 -5.77962,-25.20834 -4.77776,-24.46495 -8.4772,-31.3715 -14.97042,-27.94849 -7.01044,3.69567 -34.78412,9.09251 -46.96707,9.1264 -9.15108,0.0254 -11.32333,-0.77547 -10.4049,-3.83635 0.65309,-2.17656 4.95047,-4.1921 9.8256,-4.60835 4.76565,-0.4069 10.15258,-1.65035 11.97096,-2.76322 1.81838,-1.11287 6.72228,-2.0234 10.89755,-2.0234 6.73307,0 29.29819,-11.92135 29.29819,-15.47849 0,-5.7403 -29.39945,-35.34768 -40.02173,-40.30479 -1.91408,-0.89325 1.03436,-1.63932 6.5521,-1.65793 11.51669,-0.0389 19.55409,5.00967 30.85212,19.37917 l 7.72016,9.81894 4.71772,-7.34403 c 7.10658,-11.06276 -0.0248,-31.69527 -13.77515,-39.8542 -5.67611,-3.36799 -13.37261,-6.739 -17.10332,-7.49112 -7.95493,-1.60374 -9.22535,-9.91189 -1.51566,-9.91189 13.74479,0 41.69932,15.40627 45.35474,24.99585 4.846,12.71293 3.98295,26.67692 -2.69051,43.53212 -3.61033,9.11864 -5.77062,20.06101 -4.80065,24.31637 0.96997,4.25537 3.32219,14.20298 5.22714,22.1058 6.5343,27.10785 6.68564,29.91015 1.84248,34.11735 -3.70577,3.2191 -5.09279,3.4504 -6.22973,1.0386 z m -212.533576,-4.7605 c -0.713343,-1.5198 -2.122356,-4.4068 -3.131141,-6.4156 -1.008785,-2.0088 -1.013681,-4.1736 -0.01088,-4.8105 1.002801,-0.637 2.432275,-10.25921 3.176608,-21.38269 0.744333,-11.12349 3.059138,-24.2484 5.14401,-29.16649 2.596291,-6.12449 2.710827,-12.16674 0.363508,-19.17654 -6.470388,-19.32254 -3.397303,-32.56895 11.108722,-47.88369 8.514024,-8.98868 24.821827,-15.02838 29.959938,-11.09585 2.819653,2.15806 0.745612,4.29924 -8.506386,8.78172 -6.729365,3.2603 -14.399046,8.61198 -17.043733,11.89263 -6.8251,8.46633 -10.455571,28.05107 -6.099576,32.90444 3.20212,3.56775 4.037446,3.21854 7.597007,-3.17588 2.199616,-3.95141 5.41217,-7.18439 7.139007,-7.18439 1.726837,0 3.139705,-1.21178 3.139705,-2.69284 0,-4.51062 18.154365,-13.18675 22.206646,-10.61276 2.422365,1.53868 -0.429573,4.9023 -8.94144,10.54567 -13.763783,9.12541 -23.705658,20.22881 -23.705658,26.47525 0,6.38903 25.580252,17.98345 45.241959,20.50622 6.35115,0.81491 8.99772,2.75494 9.80157,7.18494 0.75958,4.18595 -0.48795,6.06859 -4.02131,6.06859 -6.89575,0 -30.681839,-8.20238 -42.514166,-14.66056 -17.019702,-9.28949 -18.04044,-7.90858 -18.68753,25.28147 -0.265434,13.61446 -1.383327,26.24456 -2.484204,28.06686 -2.432223,4.0261 -7.954611,4.3381 -9.732656,0.55 z M 52.535741,862.04448 c 0,-14.89969 35.884556,-35.03296 62.441029,-35.03296 5.67305,0 14.37548,-1.17527 19.33873,-2.61171 8.22115,-2.37932 8.93245,-3.60865 7.99409,-13.81612 l -1.03001,-11.20441 -32.19139,0.80203 c -34.047808,0.84828 -37.994609,-0.43172 -25.602405,-8.3032 6.911725,-4.39031 31.693755,-5.66869 100.820305,-5.20082 26.84193,0.18166 29.88732,0.67253 39.1517,6.31043 18.61397,11.32766 11.35004,34.20686 -11.80148,37.1711 -4.25371,0.54463 -17.13043,1.60377 -28.61492,2.35365 -11.4845,0.74988 -28.71124,2.23126 -38.28166,3.29196 -9.57041,1.0607 -24.44806,2.66165 -33.06143,3.55767 -18.574562,1.93224 -34.909696,9.6034 -45.189616,21.22156 -9.070501,10.2513 -13.972943,10.76383 -13.972943,1.46082 z M 203.95474,817.96239 c 13.82477,-4.20884 14.77813,-14.83759 1.70763,-19.03788 -9.40331,-3.02182 -43.84065,-3.91499 -46.38946,-1.20317 -0.85705,0.91187 -0.73307,6.99379 0.27549,13.51538 l 1.83377,11.85744 16.08228,-0.98157 c 8.84526,-0.53986 20.76589,-2.40745 26.49029,-4.1502 z"
       id="path2996"
       inkscape:connector-curvature="0"
       sodipodi:nodetypes="sssssssssssssssssssscsssssssssscssssssssssssssscsssssssssssscssssssssssssssssssssssssscsssssssssssssscss" />
  </g>
</svg>
