<?xml version="1.0" encoding="UTF-8" standalone="no"?>
<!-- Created with Inkscape (http://www.inkscape.org/) -->

<svg
   xmlns:dc="http://purl.org/dc/elements/1.1/"
   xmlns:cc="http://creativecommons.org/ns#"
   xmlns:rdf="http://www.w3.org/1999/02/22-rdf-syntax-ns#"
   xmlns:svg="http://www.w3.org/2000/svg"
   xmlns="http://www.w3.org/2000/svg"
   xmlns:sodipodi="http://sodipodi.sourceforge.net/DTD/sodipodi-0.dtd"
   xmlns:inkscape="http://www.inkscape.org/namespaces/inkscape"
   width="300"
   height="300"
   id="svg2"
   version="1.1"
   inkscape:version="0.48.4 r9939"
   sodipodi:docname="image-seal.svg">
  <defs
     id="defs4" />
  <sodipodi:namedview
     id="base"
     pagecolor="#ffffff"
     bordercolor="#666666"
     borderopacity="1.0"
     inkscape:pageopacity="0.0"
     inkscape:pageshadow="2"
     inkscape:zoom="1.979899"
     inkscape:cx="130.93154"
     inkscape:cy="137.35134"
     inkscape:document-units="px"
     inkscape:current-layer="layer1"
     showgrid="false"
     inkscape:window-width="1215"
     inkscape:window-height="1000"
     inkscape:window-x="65"
     inkscape:window-y="24"
     inkscape:window-maximized="1"
     fit-margin-top="10"
     fit-margin-left="10"
     fit-margin-right="10"
     fit-margin-bottom="10" />
  <metadata
     id="metadata7">
    <rdf:RDF>
      <cc:Work
         rdf:about="">
        <dc:format>image/svg+xml</dc:format>
        <dc:type
           rdf:resource="http://purl.org/dc/dcmitype/StillImage" />
        <dc:title />
      </cc:Work>
    </rdf:RDF>
  </metadata>
  <g
     inkscape:label="Calque 1"
     inkscape:groupmode="layer"
     id="layer1"
     transform="translate(0,-752.36218)">
    <path
       style="fill:#000000"
       d="m 218.01383,1036.7082 c -3.02817,-5.6732 -5.5058,-12.4974 -5.5058,-15.1648 0,-2.6675 -1.14534,-4.8499 -2.54521,-4.8499 -1.39987,0 -2.54521,-2.7958 -2.54521,-6.2128 0,-3.4171 -0.94962,-6.7998 -2.11027,-7.5171 -1.16062,-0.7173 -3.60285,-7.94329 -5.42714,-16.05776 -7.21027,-32.07121 -9.38323,-37.68351 -14.40738,-37.2112 -7.30263,0.68652 -11.61308,1.98529 -21.3239,6.4251 -16.95565,7.75215 -48.35912,12.73931 -48.35912,7.67988 0,-1.80562 6.88049,-4.04099 33.08782,-10.74972 4.89955,-1.2542 11.87522,-2.88564 15.50152,-3.62538 3.62627,-0.73975 10.33935,-4.6157 14.91794,-8.61327 8.2658,-7.21683 8.29531,-7.32514 4.17095,-15.30075 -6.7407,-13.03512 -13.11629,-15.7926 -30.77259,-13.30942 -8.80968,1.23901 -16.2944,1.18424 -17.68925,-0.12955 -4.14583,-3.90451 2.52862,-7.86399 14.52962,-8.61937 6.22479,-0.39182 13.86168,-1.51978 16.9709,-2.50661 12.5202,-3.97375 25.63959,7.77823 25.63959,22.96722 0,8.7011 8.09938,8.1889 11.95593,-0.75605 1.65974,-3.84965 3.78474,-15.09393 4.72222,-24.98732 2.34218,-24.71751 0.023,-26.9066 -26.95886,-25.4372 -11.06512,0.6026 -25.30477,1.87341 -31.64364,2.82397 -9.62234,1.44296 -11.52519,1.05029 -11.52519,-2.37851 0,-3.19118 2.69545,-4.12484 12.08977,-4.18774 19.05433,-0.12751 20.09474,-1.88272 22.23537,-37.51015 1.15197,-19.17248 0.94631,-31.12976 -0.53535,-31.12976 -5.83207,0 -15.91723,16.11652 -20.73215,33.13083 -5.82253,20.57489 -6.39188,21.59276 -10.61726,18.9813 -7.5273,-4.65211 7.41133,-43.02275 23.16955,-59.51221 4.67412,-4.89102 7.70432,-11.46115 8.86948,-19.23096 1.35049,-9.00573 2.75204,-11.61263 5.91582,-11.00335 3.00434,0.57859 4.14606,3.59239 4.14606,10.94446 0,8.52907 1.21686,10.89722 7.63565,14.85967 9.54486,5.89222 21.63433,17.13765 21.63433,20.1239 0,1.23794 1.68776,3.93857 3.75056,6.00139 4.94553,4.94551 9.65426,22.82555 7.66319,29.09881 -2.70084,8.50959 -7.92784,5.50657 -9.8397,-5.65314 -3.00815,-17.55874 -17.9463,-39.49473 -25.23988,-37.06354 -4.21978,1.40661 -7.22444,22.00512 -6.34632,43.50747 0.74089,18.14236 0.75512,18.17442 8.37782,18.91236 20.60159,1.99435 26.95931,9.33082 27.06405,31.23032 0.0908,18.99001 -3.99078,31.47414 -13.56613,41.49385 -4.13054,4.32218 -6.28028,8.26843 -4.77724,8.76947 1.50302,0.501 2.73279,3.69438 2.73279,7.09639 0,3.40201 1.03371,8.1743 2.29716,10.60508 1.26342,2.43078 3.63656,9.57366 5.27359,15.87307 1.63705,6.29941 6.33008,21.94762 10.42894,34.77372 4.09887,12.8262 7.45248,25.0711 7.45248,27.2109 0,7.9355 -4.4225,6.2182 -9.76551,-3.7917 z M 84.273528,1008.3077 c 0.76708,-11.48626 2.44529,-27.10761 3.72938,-34.714 1.28412,-7.60641 2.33473,-20.27945 2.33473,-28.16229 0,-13.89156 -0.27581,-14.46397 -8.96609,-18.60806 -11.33199,-5.40385 -14.222516,-12.96757 -14.775362,-38.66326 -0.35712,-16.59723 0.267731,-20.36174 3.379716,-20.36174 2.882483,0 4.197317,4.36487 5.366844,17.81651 1.91525,22.02861 5.820529,32.48479 11.709192,31.35074 5.9164,-1.13939 7.82384,-9.57549 8.12242,-35.92323 l 0.25376,-22.38903 -7.82425,-4.33576 c -16.817874,-9.3195 -17.290622,-10.2957 -17.929472,-37.02351 -0.35488,-14.84693 0.488478,-25.78462 2.113446,-27.40958 4.523867,-4.52388 6.15021,1.42669 6.687836,24.46986 0.530322,22.72858 4.5808,31.62643 12.93726,28.41976 3.35007,-1.28554 4.01518,-6.63255 4.01518,-32.27894 0,-28.77567 0.37461,-31.09642 5.867522,-36.34923 9.23175,-8.82824 17.27298,-12.75861 20.17198,-9.85961 3.03082,3.03081 0.4333,8.0664 -4.16089,8.0664 -7.45313,0 -11.25877,9.11852 -13.02164,31.20069 -0.97881,12.26084 -1.01567,26.36488 -0.0819,31.34233 3.51987,18.7626 14.17616,2.3318 16.12157,-24.85763 1.2396,-17.32522 4.28261,-22.37841 6.98364,-11.59692 0.78907,3.1497 0.93443,14.17062 0.323,24.49093 -1.15167,19.43875 -3.80276,24.12573 -18.33956,32.42357 -4.38774,2.50459 -4.99293,5.93573 -5.28232,29.94735 -0.18173,15.07125 0.76491,27.79342 2.13068,28.63751 5.08987,3.14573 7.97278,-4.60488 9.12663,-24.5366 0.9598,-16.58023 1.93716,-20.4302 5.03123,-19.81899 5.25254,1.03763 6.29705,12.89063 2.83173,32.13376 -2.63964,14.65821 -3.67763,16.47471 -11.56233,20.23469 -9.5675,4.56239 -10.13892,6.15343 -12.087412,33.65491 -1.99026,28.09128 -5.96668,61.74307 -7.87149,66.61507 -0.91547,2.3416 -3.25417,4.8674 -5.19707,5.613 -2.90344,1.1141 -3.2842,-2.3639 -2.13794,-19.5287 z"
       id="path3082"
       inkscape:connector-curvature="0" />
  </g>
</svg>
