<?xml version="1.0" encoding="UTF-8" standalone="no"?>
<!-- Created with Inkscape (http://www.inkscape.org/) -->

<svg
   xmlns:dc="http://purl.org/dc/elements/1.1/"
   xmlns:cc="http://creativecommons.org/ns#"
   xmlns:rdf="http://www.w3.org/1999/02/22-rdf-syntax-ns#"
   xmlns:svg="http://www.w3.org/2000/svg"
   xmlns="http://www.w3.org/2000/svg"
   xmlns:sodipodi="http://sodipodi.sourceforge.net/DTD/sodipodi-0.dtd"
   xmlns:inkscape="http://www.inkscape.org/namespaces/inkscape"
   width="300"
   height="300"
   id="svg2"
   version="1.1"
   inkscape:version="0.92.4 (5da689c313, 2019-01-14)"
   sodipodi:docname="image-bigseal.svg">
  <defs
     id="defs4" />
  <sodipodi:namedview
     id="base"
     pagecolor="#ffffff"
     bordercolor="#666666"
     borderopacity="1.0"
     inkscape:pageopacity="0.0"
     inkscape:pageshadow="2"
     inkscape:zoom="1.4"
     inkscape:cx="188.87961"
     inkscape:cy="190.47153"
     inkscape:document-units="px"
     inkscape:current-layer="layer1"
     showgrid="false"
     inkscape:window-width="1872"
     inkscape:window-height="1016"
     inkscape:window-x="48"
     inkscape:window-y="27"
     inkscape:window-maximized="1" />
  <metadata
     id="metadata7">
    <rdf:RDF>
      <cc:Work
         rdf:about="">
        <dc:format>image/svg+xml</dc:format>
        <dc:type
           rdf:resource="http://purl.org/dc/dcmitype/StillImage" />
        <dc:title />
      </cc:Work>
    </rdf:RDF>
  </metadata>
  <g
     inkscape:label="Calque 1"
     inkscape:groupmode="layer"
     id="layer1"
     transform="translate(0,-752.36218)">
    <path
       style="fill:#000000;stroke-width:6.1541872"
       d="m 96.142806,1042.3411 c -5.233289,-3.5586 -1.352014,-34.8548 -0.936973,-66.17262 0.728471,-54.96231 0.234471,-57.13911 -14.211992,-62.63159 -16.609907,-6.31513 -27.290124,-35.21082 -16.866899,-45.63411 4.557048,-4.55698 6.494881,-1.76194 6.494881,9.36791 0,8.72454 3.815838,19.02961 8.479609,22.90022 6.704065,5.56388 9.263706,4.11088 12.224306,-6.93922 6.533408,-24.3848 4.386092,-41.67042 -5.176592,-41.67042 -13.3376,0 -30.140875,-28.4947 -24.468499,-41.49326 3.851911,-8.82677 5.400731,-7.43377 8.416837,7.57008 2.138086,10.63622 8.216272,19.25787 14.41864,20.45233 9.050353,1.74293 10.722443,-2.77929 10.722443,-28.9992 0,-28.2913 1.648035,-31.91636 18.462563,-40.61149 22.48494,-11.62741 23.75664,-6.31782 3.0771,12.84736 -10.96849,10.16524 -15.38548,20.67414 -15.38548,36.60511 0,23.70796 13.45725,27.87477 17.52135,5.42522 4.13679,-22.85074 14.20719,-24.97855 12.14984,-2.5671 -1.40537,15.30867 -5.98297,23.29705 -15.82426,27.61464 -10.83021,4.75147 -13.84693,11.12007 -13.84693,29.2324 0,29.29959 14.90582,31.45903 21.78645,3.15629 l 4.86236,-20.00111 2.60285,18.30219 c 2.00436,14.09389 -1.00614,21.17982 -13.09267,30.81734 -14.7509,11.76194 -15.8165,16.40109 -17.706392,77.08771 -1.106027,35.51492 4.061812,56.11562 -3.702542,55.34132 z m 68.022664,-68.92693 c -9.19682,-9.19682 -10.38427,-105.97037 -1.23084,-100.31325 3.38481,2.09193 6.15419,12.17901 6.15419,22.4157 0,12.14548 2.67282,17.7272 7.69273,16.06507 5.31722,-1.76059 8.73581,-25.19899 11.07052,-75.90168 3.05925,-66.43574 7.11542,-83.97881 8.42293,-36.42934 0.4591,16.69538 2.86385,18.82074 25.12441,22.20492 24.2675,3.68919 20.87384,6.59298 -9.23128,7.89871 -14.76475,0.64036 -15.38547,2.28124 -15.38547,40.66952 0,36.60844 1.15631,40.16666 13.62937,41.9403 10.63038,1.51159 14.4728,-1.87383 17.46232,-15.38547 7.03498,-31.79549 7.93589,-29.91772 8.42466,17.55968 0.26709,25.95541 -1.19514,51.57222 -3.24966,56.92623 -4.5602,11.88374 -57.54251,13.69097 -68.88388,2.34961 z m 50.57641,-2.50469 c 6.56996,-2.52112 9.73462,-11.52415 9.73462,-27.69385 v -23.95831 h -27.69384 -27.69384 v 24.16552 c 0,17.83977 2.81917,24.90218 10.76982,26.9799 16.9034,4.41735 24.40825,4.52634 34.88324,0.50649 z"
       id="path27"
       inkscape:connector-curvature="0"
       sodipodi:nodetypes="ccccsccsccssscsccssccscscscsccsccscccsscscccsccc" />
  </g>
</svg>
