<?xml version="1.0" encoding="UTF-8" standalone="no"?>
<!-- Created with Inkscape (http://www.inkscape.org/) -->

<svg
   xmlns:dc="http://purl.org/dc/elements/1.1/"
   xmlns:cc="http://creativecommons.org/ns#"
   xmlns:rdf="http://www.w3.org/1999/02/22-rdf-syntax-ns#"
   xmlns:svg="http://www.w3.org/2000/svg"
   xmlns="http://www.w3.org/2000/svg"
   xmlns:sodipodi="http://sodipodi.sourceforge.net/DTD/sodipodi-0.dtd"
   xmlns:inkscape="http://www.inkscape.org/namespaces/inkscape"
   width="300"
   height="300"
   id="svg2"
   version="1.1"
   inkscape:version="0.48.4 r9939"
   sodipodi:docname="image-seal.svg">
  <defs
     id="defs4" />
  <sodipodi:namedview
     id="base"
     pagecolor="#ffffff"
     bordercolor="#666666"
     borderopacity="1.0"
     inkscape:pageopacity="0.0"
     inkscape:pageshadow="2"
     inkscape:zoom="1.979899"
     inkscape:cx="200.43343"
     inkscape:cy="122.13442"
     inkscape:document-units="px"
     inkscape:current-layer="layer1"
     showgrid="false"
     inkscape:window-width="1215"
     inkscape:window-height="1000"
     inkscape:window-x="65"
     inkscape:window-y="24"
     inkscape:window-maximized="1" />
  <metadata
     id="metadata7">
    <rdf:RDF>
      <cc:Work
         rdf:about="">
        <dc:format>image/svg+xml</dc:format>
        <dc:type
           rdf:resource="http://purl.org/dc/dcmitype/StillImage" />
        <dc:title />
      </cc:Work>
    </rdf:RDF>
  </metadata>
  <g
     inkscape:label="Calque 1"
     inkscape:groupmode="layer"
     id="layer1"
     transform="translate(0,-752.36218)">
    <path
       style="fill:#000000"
       d="m 92.988567,1031.825 c -0.84998,-3.3865 -1.04512,-27.1011 -0.43366,-52.69896 1.09628,-45.89289 1.03449,-46.54243 -4.433423,-46.60021 -6.987776,-0.0737 -15.587528,-7.18435 -19.050058,-15.75109 -1.464375,-3.62305 -2.952935,-15.62131 -3.30791,-26.66279 -0.502588,-15.63232 0.208949,-20.40322 3.214893,-21.55673 6.089071,-2.33659 7.01052,0.40317 7.01052,20.84481 0,16.67491 0.852985,20.14026 6.539931,26.56905 9.530107,10.77327 11.868797,4.89815 11.170727,-28.06257 -0.53276,-25.15489 -1.04645,-27.67545 -5.906976,-28.98441 -8.01555,-2.15866 -15.506341,-8.55984 -18.636678,-15.92586 -2.783139,-6.54894 -0.961494,-45.78274 2.275985,-49.02026 4.487838,-4.48781 7.191951,3.87425 7.191951,22.24001 0,20.84769 4.127431,32.05014 11.808565,32.05014 2.888623,0 3.419853,-5.78476 2.673533,-29.11249 -1.07949,-33.74112 1.69034,-43.2899 15.644593,-53.93333 11.45572,-8.73772 21.25477,-8.10956 21.25477,1.36249 0,5.31313 -1.47944,6.75615 -7.64811,7.45993 -14.20827,1.62096 -17.45656,9.56511 -18.75845,45.8765 -0.84622,23.60129 0.45864,27.19409 8.90311,24.51393 7.16281,-2.27341 10.91609,-12.8513 10.91609,-30.7649 0,-11.54041 0.90251,-15.60441 3.28875,-14.809 4.8045,1.60148 7.79051,27.0782 4.57382,39.02405 -2.89722,10.75951 -13.28867,20.92261 -21.39266,20.92261 -4.49824,0 -4.91454,2.45519 -4.91454,28.98441 l 0,28.98441 7.72727,0 c 9.52369,0 11.18234,-4.3231 11.18234,-29.14567 0,-17.69545 2.62638,-24.15081 7.74379,-19.03341 1.36383,1.36383 2.74267,13.29713 3.06408,26.51845 0.65302,26.86123 -0.33477,28.60659 -19.83643,35.04938 -5.43457,1.79545 -9.98424,3.96393 -10.11037,4.8189 -0.12622,0.85495 -0.58815,23.49038 -1.0267,50.30096 -0.43857,26.81065 -0.92824,49.63585 -1.08816,50.72275 -0.69097,4.6961 -8.233573,1.4249 -9.640593,-4.1811 z m 71.214203,-61.95643 c -12.38799,-7.55458 -14.13653,-20.29154 -14.43303,-105.13402 -0.23134,-66.20069 0.20053,-74.43724 3.90389,-74.43724 5.24876,0 7.04179,4.67269 7.84073,20.4332 0.3486,6.877 0.81249,13.99269 1.03082,15.81268 0.50169,4.18198 45.40118,1.3663 48.61782,-3.04882 1.16009,-1.59235 1.54384,-9.10421 0.85277,-16.69307 -1.31678,-14.46027 1.64046,-19.78386 7.5115,-13.52207 5.3775,5.7354 9.76917,140.20131 5.25086,160.77302 -1.89286,8.61807 -9.0063,13.54307 -25.45479,17.62369 -17.22591,4.27345 -25.87949,3.82812 -35.12057,-1.80737 z m 44.55819,-12.50442 c 2.04922,-0.78635 4.41941,-4.01561 5.26701,-7.17609 2.40553,-8.96926 1.87828,-51.38305 -0.65821,-52.95068 -3.31605,-2.04943 -48.82284,4.3036 -50.71889,7.08068 -1.66587,2.43994 -0.6282,29.08022 1.6557,42.50743 2.30547,13.55414 5.83147,15.54373 24.21014,13.66078 9.08509,-0.9308 18.19503,-2.33576 20.24425,-3.12212 z m -10.90576,-71.16667 15.15094,-1.76765 0,-23.35174 0,-23.35174 -16.46841,0.0159 c -9.05763,0.007 -20.68782,1.18684 -25.84485,2.61948 l -9.37643,2.60477 0.44067,21.75378 c 0.24242,11.96458 0.60815,22.79463 0.81286,24.06676 0.20472,1.27215 4.81865,1.6079 10.25324,0.74614 5.43457,-0.86177 16.69896,-2.36229 25.03198,-3.3345 z"
       id="path3028"
       inkscape:connector-curvature="0" />
  </g>
</svg>
