<?xml version="1.0" encoding="UTF-8" standalone="no"?>
<!-- Created with Inkscape (http://www.inkscape.org/) -->

<svg
   xmlns:dc="http://purl.org/dc/elements/1.1/"
   xmlns:cc="http://creativecommons.org/ns#"
   xmlns:rdf="http://www.w3.org/1999/02/22-rdf-syntax-ns#"
   xmlns:svg="http://www.w3.org/2000/svg"
   xmlns="http://www.w3.org/2000/svg"
   xmlns:sodipodi="http://sodipodi.sourceforge.net/DTD/sodipodi-0.dtd"
   xmlns:inkscape="http://www.inkscape.org/namespaces/inkscape"
   width="300"
   height="300"
   id="svg2"
   version="1.1"
   inkscape:version="0.48.4 r9939"
   sodipodi:docname="image-seal.svg">
  <defs
     id="defs4" />
  <sodipodi:namedview
     id="base"
     pagecolor="#ffffff"
     bordercolor="#666666"
     borderopacity="1.0"
     inkscape:pageopacity="0.0"
     inkscape:pageshadow="2"
     inkscape:zoom="1.979899"
     inkscape:cx="145.62149"
     inkscape:cy="130.00722"
     inkscape:document-units="px"
     inkscape:current-layer="layer1"
     showgrid="false"
     inkscape:window-width="1215"
     inkscape:window-height="1000"
     inkscape:window-x="65"
     inkscape:window-y="24"
     inkscape:window-maximized="1"
     fit-margin-top="10"
     fit-margin-left="10"
     fit-margin-right="10"
     fit-margin-bottom="10" />
  <metadata
     id="metadata7">
    <rdf:RDF>
      <cc:Work
         rdf:about="">
        <dc:format>image/svg+xml</dc:format>
        <dc:type
           rdf:resource="http://purl.org/dc/dcmitype/StillImage" />
        <dc:title />
      </cc:Work>
    </rdf:RDF>
  </metadata>
  <g
     inkscape:label="Calque 1"
     inkscape:groupmode="layer"
     id="layer1"
     transform="translate(0,-752.36218)">
    <path
       style="fill:#000000"
       d="m 142.42648,1032.8718 c 0.83112,-7.0567 3.37664,-22.7839 5.65671,-34.94917 3.40922,-18.18987 6.78144,-96.98349 7.20344,-168.31177 0.13587,-22.95603 17.29503,-33.29398 55.63848,-33.5206 20.55528,-0.12155 25.9876,0.71955 29.89567,4.62862 4.18013,4.18121 4.27045,5.11245 0.72415,7.46571 -2.22844,1.47874 -8.91377,2.04941 -14.85628,1.26816 -28.48414,-3.74483 -50.95389,1.12146 -55.13674,11.94102 -1.46005,3.77658 -3.28116,40.90091 -4.04691,82.4985 -0.76575,41.59759 -2.52862,82.31731 -3.91747,90.48827 -1.38884,8.17096 -3.35803,19.71836 -4.37598,25.66086 -3.0682,17.9114 -6.95728,25.6608 -12.87797,25.6608 -4.8752,0 -5.26679,-1.2859 -3.9071,-12.8304 z m -44.571235,-36.73511 1.208535,-44.16327 -7.934971,-1.58698 c -18.164693,-3.63295 -24.967435,-17.07422 -25.093679,-49.5816 -0.04938,-12.71722 0.938923,-16.97816 4.231029,-18.24149 7.624028,-2.9256 9.210241,0.98965 9.210241,22.73368 0,18.52681 0.786165,22.07692 5.955346,26.89276 3.27544,3.05154 7.225861,5.12474 8.778712,4.60712 1.742286,-0.58077 2.823367,-12.66295 2.823367,-31.55406 l 0,-30.61294 -8.103427,-2.60341 c -16.051151,-5.15684 -17.557424,-8.33978 -17.557424,-37.10125 0,-20.23385 0.945016,-27.04634 4.116989,-29.67885 6.721938,-5.5787 8.017181,-0.91266 7.122712,25.6592 -0.791262,23.50599 -0.469164,25.34185 4.736045,26.99392 3.071776,0.97492 6.81144,1.01466 8.310361,0.0883 1.615344,-0.99837 2.725309,-16.54352 2.725309,-38.16795 0,-39.94738 1.08258,-43.84408 15.66532,-56.38699 10.89382,-9.36999 13.68186,-9.89383 17.80457,-3.34534 2.45775,3.90388 1.65552,5.8436 -4.46866,10.80457 -11.86955,9.61512 -18.19666,31.19279 -18.19666,62.05704 0,26.75576 1.28913,29.75575 10.32462,24.02693 4.42724,-2.80706 8.42,-19.35063 8.5603,-35.46865 0.13257,-15.23182 3.37528,-21.2709 8.94113,-16.65165 3.93925,3.2693 4.05321,17.41697 0.36742,45.61495 -1.62251,12.41299 -11.70901,22.35841 -22.67555,22.35841 -5.43344,0 -5.78239,1.24801 -5.47551,19.58328 0.57455,34.32806 2.38476,42.54299 9.37462,42.54299 6.43567,0 6.27622,0.56348 11.31464,-39.98534 1.10634,-8.90374 2.48397,-11.42399 5.88786,-10.77137 3.66989,0.70362 4.54857,5.02413 5.04644,24.81383 0.51319,20.39862 -0.21709,25.11333 -4.91093,31.70522 -3.87886,5.44734 -7.81474,7.74337 -13.27385,7.74337 -4.26804,0 -8.39655,1.02984 -9.17445,2.28849 -1.74542,2.82415 -2.18745,15.75049 -1.67957,49.11459 0.43436,28.5341 -2.56256,40.4357 -10.18202,40.4357 -4.695035,0 -4.916565,-2.5889 -3.778865,-44.16322 z M 204.04673,954.61141 c -3.53928,-0.66959 -9.21249,-3.99486 -12.60712,-7.38949 -5.37963,-5.3796 -6.3703,-9.77138 -7.71584,-34.20486 -0.84908,-15.41804 -0.64568,-35.32586 0.45198,-44.23963 l 1.99576,-16.20686 14.85629,-2.00449 c 23.59734,-3.18392 30.5554,-1.05987 34.15002,10.42474 4.30273,13.74692 4.79764,72.2052 0.67648,79.90562 -4.98404,9.31278 -10.24398,13.64944 -14.55087,11.99672 -2.14268,-0.82223 -4.61419,-0.33252 -5.49226,1.0882 -0.87808,1.42075 -2.4364,2.41766 -3.46294,2.21535 -1.02654,-0.20232 -4.76222,-0.91569 -8.3015,-1.5853 z m 15.30643,-15.98636 c 4.69199,-4.692 8.08017,-24.70716 8.45814,-49.96511 0.32486,-21.71167 -5.75625,-27.98802 -26.10822,-26.94641 -5.9904,0.30658 -6.07757,0.83941 -6.07757,37.15397 0,31.92075 0.63153,37.3223 4.727,40.43121 6.44979,4.89612 13.6875,4.63948 19.00065,-0.67366 z"
       id="path3068"
       inkscape:connector-curvature="0" />
  </g>
</svg>
