<?xml version="1.0" encoding="UTF-8" standalone="no"?>
<!-- Created with Inkscape (http://www.inkscape.org/) -->

<svg
   xmlns:dc="http://purl.org/dc/elements/1.1/"
   xmlns:cc="http://creativecommons.org/ns#"
   xmlns:rdf="http://www.w3.org/1999/02/22-rdf-syntax-ns#"
   xmlns:svg="http://www.w3.org/2000/svg"
   xmlns="http://www.w3.org/2000/svg"
   xmlns:sodipodi="http://sodipodi.sourceforge.net/DTD/sodipodi-0.dtd"
   xmlns:inkscape="http://www.inkscape.org/namespaces/inkscape"
   width="300"
   height="300"
   id="svg2"
   version="1.1"
   inkscape:version="0.48.4 r9939"
   sodipodi:docname="image-seal.svg">
  <defs
     id="defs4" />
  <sodipodi:namedview
     id="base"
     pagecolor="#ffffff"
     bordercolor="#666666"
     borderopacity="1.0"
     inkscape:pageopacity="0.0"
     inkscape:pageshadow="2"
     inkscape:zoom="2.0018437"
     inkscape:cx="145.03351"
     inkscape:cy="130.6666"
     inkscape:document-units="px"
     inkscape:current-layer="layer1"
     showgrid="false"
     inkscape:window-width="1215"
     inkscape:window-height="1000"
     inkscape:window-x="65"
     inkscape:window-y="24"
     inkscape:window-maximized="1"
     fit-margin-top="10"
     fit-margin-left="10"
     fit-margin-right="10"
     fit-margin-bottom="10" />
  <metadata
     id="metadata7">
    <rdf:RDF>
      <cc:Work
         rdf:about="">
        <dc:format>image/svg+xml</dc:format>
        <dc:type
           rdf:resource="http://purl.org/dc/dcmitype/StillImage" />
        <dc:title />
      </cc:Work>
    </rdf:RDF>
  </metadata>
  <g
     inkscape:label="Calque 1"
     inkscape:groupmode="layer"
     id="layer1"
     transform="translate(0,-752.36218)">
    <path
       style="fill:#000000"
       d="m 162.41822,1039.3079 c -2.55133,-11.2428 -1.52472,-25.4766 3.01989,-41.87127 3.52457,-12.71464 4.87238,-14.46651 14.77655,-19.20641 5.99401,-2.86857 15.83701,-7.58021 21.87335,-10.47059 16.08033,-7.69959 17.24832,-12.28003 17.39739,-68.22645 0.1083,-40.61479 -0.46725,-48.36861 -3.84032,-51.74234 -2.95486,-2.95546 -9.54504,-4.08532 -25.8177,-4.42625 -14.06301,-0.29466 -22.19215,-1.4869 -22.80993,-3.34533 -1.4839,-4.46382 8.5868,-6.55303 30.29104,-6.284 18.36779,0.22776 20.21441,0.7321 25.10739,6.85806 5.77074,7.22493 9.25369,33.04389 8.50276,63.03048 -1.60977,64.27982 -0.90696,59.61551 -10.14438,67.32732 -4.625,3.86111 -9.86573,7.02013 -11.6461,7.02013 -1.78037,0 -8.79673,2.90698 -15.59194,6.46004 -12.02232,6.28632 -19.97553,16.91061 -19.28177,25.75721 0.16034,2.0445 0.11573,11.245 -0.0989,20.4455 -0.34331,14.7097 -0.96468,16.7282 -5.15,16.7282 -3.3427,0 -5.30369,-2.3977 -6.58735,-8.0543 z m -76.990845,-8.0989 c -1.29967,-3.3868 0.52474,-10.1583 6.66507,-24.7379 2.65502,-6.3042 4.84158,-22.07203 6.44208,-46.45584 0.98688,-15.0352 0.45186,-20.00317 -2.46878,-22.92378 -2.05078,-2.0508 -4.75073,-3.72872 -5.99986,-3.72872 -1.24916,0 -4.02537,-1.95162 -6.16935,-4.33693 -5.57987,-6.20789 -4.99409,-61.33661 0.65173,-61.33661 2.98311,0 3.83965,4.40556 4.33644,22.30422 0.79489,28.63892 1.9615,33.45633 8.102,33.45633 3.963985,0 4.970825,-1.78951 5.228865,-9.29342 0.1757,-5.11139 0.55606,-12.08145 0.84515,-15.48904 3.31295,-39.05226 2.80158,-42.62324 -6.742665,-47.08669 -9.88801,-4.62421 -11.21038,-9.38804 -11.52276,-41.51063 -0.23172,-23.8322 0.0592,-25.40202 4.70946,-25.40202 4.68114,0 4.9565,1.65217 4.9565,29.73895 0,28.08679 0.27535,29.73896 4.95649,29.73896 4.422555,0 4.961775,-1.66853 5.005595,-15.48904 0.0716,-22.58872 4.18325,-47.46157 9.39852,-56.85477 5.05042,-9.0963 15.19039,-15.2457 21.28366,-12.90747 5.06627,1.94411 5.19745,10.90389 0.15959,10.90389 -8.33144,0 -15.59897,7.7352 -18.1824,19.35243 -3.24452,14.58998 -5.02117,49.90204 -2.58644,51.40681 5.19696,3.21188 9.70503,-2.42747 9.72546,-12.16604 0.0411,-19.64835 3.00903,-36.28899 6.47206,-36.28899 4.95201,0 6.5788,10.05861 5.21388,32.238 -1.34504,21.85638 -3.39148,25.94846 -14.04199,28.07856 -8.36832,1.67366 -10.25424,6.10823 -10.37808,24.403 -0.24807,36.65361 0.69887,44.13264 6.0635,47.89018 8.2313,5.76542 10.03447,0.9881 10.20718,-27.04258 0.15192,-24.6585 1.63227,-31.81075 5.73533,-27.70992 1.02228,1.02171 1.85869,13.90986 1.85869,28.64031 0,29.62089 -2.46018,35.48219 -16.15567,38.49021 -6.81934,1.49778 -7.00278,1.98942 -8.60588,23.06425 -1.91336,25.15388 -7.36681,54.44929 -12.360905,66.40189 -3.65569,8.7494 -10.30333,11.1652 -12.8025,4.6524 z m 75.304175,-83.54121 c -3.05429,-2.355 -6.90429,-4.30662 -8.55555,-4.33693 -6.24377,-0.11449 -10.89365,-39.7594 -6.49511,-55.37709 1.20192,-4.26759 1.53136,-4.28357 5.94603,-0.28834 2.57049,2.32625 4.12365,5.11941 3.45148,6.20704 -1.93777,3.13535 9.22314,9.75133 16.45015,9.75133 15.14484,0 22.06257,-2.84121 22.06257,-9.06144 0,-5.51917 5.96276,-10.58434 8.94696,-7.60013 2.72184,2.72183 6.42753,36.73594 4.89325,44.9144 -2.81928,15.02794 -8.12471,19.0823 -25.65904,19.60833 -11.41766,0.34254 -16.9468,-0.66055 -21.04074,-3.81717 z m 26.50262,-9.2872 c 5.51087,-2.09524 6.35695,-3.88644 6.35695,-13.458 0,-12.51088 -1.59292,-13.32151 -23.09785,-11.75444 -13.38938,0.97568 -15.42865,3.53269 -13.02706,16.33427 1.15018,6.13098 3.12165,8.78935 7.08749,9.55684 10.05935,1.94676 16.26335,1.76111 22.68047,-0.67867 z m -20.90376,-63.79716 c -10.39389,-1.13414 -19.45387,-7.51067 -20.35905,-14.32894 -1.30073,-9.7977 3.3384,-44.04469 6.33623,-46.77542 7.54195,-6.86997 15.17746,-8.98513 32.43552,-8.98513 16.21425,0 18.94679,-0.6665 22.28769,-5.43633 3.44161,-4.91357 3.41819,-5.86678 -0.24361,-9.91299 -3.13362,-3.46261 -7.78807,-4.47665 -20.54767,-4.47665 -20.07459,0 -28.10425,-5.43217 -26.86444,-18.17405 0.97373,-10.00709 9.43352,-12.84089 9.43352,-3.15997 0,8.46745 6.42813,11.42103 24.85654,11.42103 11.46457,0 17.06293,1.27711 22.46714,5.12524 7.88244,5.6128 8.66467,10.82998 3.69048,24.61372 -2.95977,8.20168 -3.79268,8.69901 -15.30049,9.13618 -6.69367,0.25424 -19.20436,1.18628 -27.80149,2.07114 -17.97406,1.84999 -19.58806,3.96768 -21.7459,28.53181 -1.21622,13.84497 -1.10242,14.15336 6.36335,17.24577 4.37066,1.81038 12.05052,2.5722 18.06857,1.79232 14.6111,-1.89343 30.062,1.09352 31.00576,5.99403 1.24949,6.48808 -15.18763,8.47112 -44.0822,5.31824 z"
       id="path3054"
       inkscape:connector-curvature="0" />
  </g>
</svg>
