<?xml version="1.0" encoding="UTF-8" standalone="no"?>
<svg
   xmlns:dc="http://purl.org/dc/elements/1.1/"
   xmlns:cc="http://creativecommons.org/ns#"
   xmlns:rdf="http://www.w3.org/1999/02/22-rdf-syntax-ns#"
   xmlns:svg="http://www.w3.org/2000/svg"
   xmlns="http://www.w3.org/2000/svg"
   viewBox="0 0 300 300"
   height="300"
   width="300"
   id="svg4097"
   version="1.1">
  <metadata
     id="metadata4103">
    <rdf:RDF>
      <cc:Work
         rdf:about="">
        <dc:format>image/svg+xml</dc:format>
        <dc:type
           rdf:resource="http://purl.org/dc/dcmitype/StillImage" />
        <dc:title></dc:title>
      </cc:Work>
    </rdf:RDF>
  </metadata>
  <defs
     id="defs4101" />
  <path
     id="path4107"
     d="m 91.886636,283.13592 c -1.97632,-4.95231 -2.138673,-9.91855 -2.155024,-65.92087 l -0.01692,-57.80691 c -13.919872,-1.4129 -23.29353,-5.94946 -26.961125,-19.24219 -1.518193,-7.31626 -6.1429,-30.25363 3.075935,-29.84006 7.635179,0.34253 7.05594,15.31058 7.230067,18.78527 0.499446,10.39311 1.007258,11.75329 5.540056,14.83909 2.446343,1.6654 4.34358,2.94316 10.747577,3.11373 0.121898,-16.75286 0.285253,-30.08567 0.448144,-48.132725 -7.686411,-0.91231 -17.073156,-4.20447 -21.7929,-9.368445 -5.618415,-6.147235 -8.334549,-15.526585 -7.852014,-26.671992 0.378114,-8.733787 2.229012,-13.670067 5.362007,-13.475753 6.633639,0.41143 6.910887,15.369585 7.61707,21.268241 1.527953,12.762792 6.873938,15.464997 16.437708,15.934317 0.615006,-19.540633 0.72914,-44.759662 5.423885,-54.323844 2.604495,-5.305903 9.964528,-9.58266 24.071948,-14.858809 8.17344,-3.056851 10.45307,-3.180103 12.60253,-0.681376 3.16929,3.684284 2.6924,4.179963 -11.89402,12.362594 -12.6643,7.104377 -13.47936,7.684574 -14.55112,10.358243 -2.30046,5.738841 -3.10685,12.469284 -3.53911,29.539097 l -0.43149,17.039088 c 6.94605,-0.834983 10.0664,-1.376203 12.32901,-5.922562 2.10521,-4.260331 3.32257,-9.247623 4.17562,-17.106819 0.52955,-4.878806 2.28996,-11.159827 4.25788,-12.273637 7.68192,-4.347826 8.4328,8.631751 8.04479,14.000011 -0.52916,7.32126 -1.86055,16.784078 -5.0999,21.602428 -5.96049,8.865888 -13.78154,11.475448 -23.42696,12.350078 -0.006,18.977425 0.0134,29.869375 -0.30112,47.666365 14.23062,-0.19167 14.80587,-7.97164 15.45168,-17.83182 0.87385,-13.34162 4.39946,-19.76194 10.89635,-17.04962 1.95967,-3.70682 -0.19493,-0.25918 4.14081,-7.345 4.46478,-7.296745 37.481,-53.065262 42.80231,-59.334443 3.97339,-4.681153 6.6244,-6.678387 10.27762,-6.29629 4.51167,0.471883 17.43018,18.861008 21.91753,24.684581 10.46247,13.57793 15.09876,19.484745 23.83727,30.556817 3.81814,4.83776 7.35491,10.994535 9.00922,16.145365 1.91861,5.97377 -4.70626,6.94951 -7.97881,4.74991 -1.2256,-0.87973 -34.40489,-45.068527 -38.9487,-51.872621 -4.22299,-6.323671 -7.53902,-9.094253 -9.83168,-8.214478 -0.52371,0.200968 -11.31204,13.946101 -23.97405,30.544739 l -23.02183,30.17935 c -1.4762,1.93515 -4.80877,0.63537 -6.04031,-0.4804 l -0.0213,6.91046 c -0.0435,14.1008 -0.61779,19.62544 -6.28276,26.87378 -5.10793,6.53559 -10.77723,9.5607 -22.14477,11.35137 l 0.17829,60.00351 c 0.12407,41.75759 0.0285,59.79399 -0.5788,61.05096 -1.696788,3.51218 -7.521442,5.80976 -9.030601,2.14133 z m 83.801524,-77.58727 c -13.8818,-3.55919 -17.60659,-12.65765 -20.11386,-24.44143 -1.3758,-6.64505 -1.28873,-57.63484 -0.91568,-63.01358 0.43277,-6.23982 3.68373,-9.00888 8.26924,-4.46261 3.99813,3.99814 3.17898,11.19257 3.08516,16.92713 -0.10136,6.19537 -0.43994,9.38447 -0.13322,14.73001 13.67452,0.32608 22.41335,0.33151 35.66803,0.11131 0.17125,-5.65057 0.0325,-9.78622 0.0398,-14.27079 0.002,-5.93441 0.33844,-11.99483 0.74736,-13.4676 1.05822,-3.81117 3.54278,-6.09422 6.33843,-5.82436 3.51428,1.17772 5.49883,3.64034 5.45873,6.43048 l -0.36722,25.55033 c -0.38354,26.68534 -1.66381,33.95744 -3.95294,45.40814 -1.80435,9.02577 -8.02663,14.05441 -15.47898,16.1479 -3.86325,1.03196 -14.40528,1.06812 -18.64484,0.17507 z m 19.70502,-13.56527 c 6.56363,-7.00793 6.51594,-19.95414 6.34871,-33.6134 -12.85904,0.009 -21.36835,0.0473 -35.52025,0.4371 0.13565,9.00466 0.0294,22.97495 4.02202,30.24146 5.07074,9.22872 21.66197,6.20515 25.14952,2.93484 z m -24.88415,-83.09562 c -6.30207,-0.80374 -10.5002,-1.9348 -11.91198,-3.20933 -1.51547,-1.36816 -1.57736,-5.24324 -0.10721,-6.713385 3.10206,-3.10206 4.03515,-3.2076 26.4916,-2.99625 20.43442,0.19232 21.59479,0.054 23.28584,1.6514 4.17435,3.943195 1.7313,7.999875 -2.23572,9.215325 -8.36629,2.56331 -24.19395,3.49703 -35.52253,2.05224 z"
     style="fill:#000000;stroke-width:0.69054961" />
</svg>
