<?xml version="1.0" encoding="UTF-8" standalone="no"?>
<!-- Created with Inkscape (http://www.inkscape.org/) -->

<svg
   xmlns:dc="http://purl.org/dc/elements/1.1/"
   xmlns:cc="http://creativecommons.org/ns#"
   xmlns:rdf="http://www.w3.org/1999/02/22-rdf-syntax-ns#"
   xmlns:svg="http://www.w3.org/2000/svg"
   xmlns="http://www.w3.org/2000/svg"
   xmlns:sodipodi="http://sodipodi.sourceforge.net/DTD/sodipodi-0.dtd"
   xmlns:inkscape="http://www.inkscape.org/namespaces/inkscape"
   width="300"
   height="300"
   id="svg2"
   version="1.1"
   inkscape:version="0.48.4 r9939"
   sodipodi:docname="image-seal.svg">
  <defs
     id="defs4" />
  <sodipodi:namedview
     id="base"
     pagecolor="#ffffff"
     bordercolor="#666666"
     borderopacity="1.0"
     inkscape:pageopacity="0.0"
     inkscape:pageshadow="2"
     inkscape:zoom="1.979899"
     inkscape:cx="93.377566"
     inkscape:cy="122.32215"
     inkscape:document-units="px"
     inkscape:current-layer="layer1"
     showgrid="false"
     inkscape:window-width="1215"
     inkscape:window-height="1000"
     inkscape:window-x="65"
     inkscape:window-y="24"
     inkscape:window-maximized="1"
     fit-margin-top="10"
     fit-margin-left="10"
     fit-margin-right="10"
     fit-margin-bottom="10" />
  <metadata
     id="metadata7">
    <rdf:RDF>
      <cc:Work
         rdf:about="">
        <dc:format>image/svg+xml</dc:format>
        <dc:type
           rdf:resource="http://purl.org/dc/dcmitype/StillImage" />
        <dc:title />
      </cc:Work>
    </rdf:RDF>
  </metadata>
  <g
     inkscape:label="Calque 1"
     inkscape:groupmode="layer"
     id="layer1"
     transform="translate(0,-752.36218)">
    <path
       style="fill:#000000"
       d="m 76.026757,1033.2321 c -1.036166,-10.2033 -0.760676,-35.9647 0.883536,-82.61348 0.737457,-20.92263 1.534483,-49.23038 1.771168,-62.90615 0.447656,-25.86661 1.105676,-28.6955 7.215674,-31.02136 3.039682,-1.15709 2.969738,-1.43515 -0.40133,-1.59513 -4.123243,-0.1956 -3.958749,-1.78631 1.83938,-17.78624 2.093335,-5.77658 11.670744,-8.8008 32.687995,-10.3217 9.99535,-0.72333 19.07187,-2.21363 20.17003,-3.31179 1.09815,-1.09817 2.40914,-15.78165 2.91326,-32.62997 0.71383,-23.85618 1.68119,-30.7815 4.37264,-31.30313 6.68658,-1.29588 9.68366,8.81368 9.81533,33.10842 0.174,32.10011 0.91899,33.2089 21.42988,31.89284 14.91854,-0.9572 17.31359,-0.41837 26.71601,6.01076 12.70629,8.68821 12.83242,9.36648 12.47809,67.09672 -0.28187,45.92556 0.72463,61.13648 6.89795,104.24781 3.56039,24.864 3.16003,36.8725 -1.22933,36.8725 -5.75174,0 -9.77507,-26.4695 -11.56441,-76.08225 -0.46249,-12.82355 -1.41338,-32.70311 -2.11306,-44.1768 -0.69972,-11.4737 -1.76649,-33.85312 -2.37062,-49.73205 -1.18351,-31.10592 -4.17516,-38.96892 -12.95679,-34.05447 -2.48737,1.392 -15.13586,1.8223 -30.20246,1.02747 -25.52454,-1.34652 -52.85778,1.59823 -64.632655,6.96323 -9.045986,4.12161 -11.051637,15.05197 -12.556927,68.43302 -2.479872,87.94149 -3.089683,108.99475 -3.422482,118.15575 -0.420757,11.5833 -6.63899,14.5764 -7.740879,3.726 z m 71.227033,-20.0297 c 0,-26.58787 -0.28455,-28.22406 -4.90854,-28.22406 -2.69969,0 -4.90853,-1.10441 -4.90853,-2.45426 0,-1.34985 -2.67073,-2.45427 -5.93493,-2.45427 -8.33616,0 -13.69919,-2.42477 -13.69919,-6.19372 0,-1.76787 -1.05255,-3.58243 -2.33897,-4.03239 -1.28645,-0.44995 -3.08423,-5.51187 -3.99508,-11.24872 -1.36145,-8.57484 -0.96509,-10.43063 2.22775,-10.43063 2.43404,0 4.45093,2.97756 5.40288,7.97636 2.32885,12.229 9.34349,19.44741 17.58669,18.09759 3.78758,-0.62022 7.78804,-1.21847 8.8899,-1.32948 1.10188,-0.11088 1.45581,-5.4478 0.7865,-11.85957 -0.66927,-6.41177 -1.29466,-12.48609 -1.38979,-13.49848 -0.0952,-1.01238 -2.34433,-1.8407 -4.99822,-1.8407 -6.9696,0 -22.17166,-7.74392 -22.17166,-11.29423 0,-1.66228 -1.27139,-3.44611 -2.82528,-3.96408 -1.55393,-0.51798 -3.3473,-7.23653 -3.98532,-14.93011 -0.91291,-11.00849 -0.41563,-13.98837 2.33443,-13.98837 6.13614,0 9.38469,5.60113 9.38469,16.18101 0,11.21189 2.35958,13.27018 15.21258,13.27018 6.36644,0 7.25187,-0.75121 6.09583,-5.17191 -2.24027,-8.56685 2.46867,-16.53071 12.17162,-20.58486 12.98532,-5.42563 15.07972,-1.1933 4.69913,9.49587 -11.06848,11.39749 -11.28508,16.16769 -0.75159,16.55169 17.83098,0.65006 21.47482,-2.71572 21.47482,-19.83594 0,-11.77248 0.29785,-12.3736 4.90853,-9.90604 3.95641,2.11739 4.90855,5.1388 4.90855,15.5763 0,14.41479 -5.31484,22.67183 -16.02067,24.88938 -3.33724,0.69127 -8.72181,1.80325 -11.96566,2.47108 -5.15533,1.06134 -6.02389,2.83814 -6.89835,14.11203 -0.55023,7.09379 -0.73162,13.28357 -0.40311,13.75503 1.37406,1.97204 20.92627,-2.79906 23.97838,-5.85114 1.82538,-1.8254 2.81911,-5.93338 2.20827,-9.12884 -0.67488,-3.53026 0.48464,-7.1339 2.95515,-9.18423 5.67072,-4.70626 8.51413,0.32642 8.56267,15.15531 0.0535,16.36522 -4.9889,20.52025 -26.95935,22.21476 l -8.58994,0.66252 -0.61307,22.08832 c -0.74293,26.7665 -2.04882,33.1327 -6.79648,33.1327 -2.99931,0 -3.63464,-4.9336 -3.63464,-28.2241 z m -13.7127,-118.89148 c -10.83587,-2.59048 -13.35474,-4.61827 -17.21603,-13.85969 -3.57413,-8.55407 -4.72054,-33.25844 -1.68425,-36.29472 0.9607,-0.96072 3.48196,0.55369 5.60279,3.36534 3.26622,4.33011 6.65943,5.15135 22.18234,5.3687 32.28831,0.45214 34.27905,0.13078 34.27905,-5.53108 0,-3.52037 1.32358,-4.83743 4.29496,-4.27381 10.42268,1.97707 4.20498,40.09857 -7.41885,45.48599 -18.38238,8.51985 -24.65056,9.41833 -40.04001,5.73927 z m 33.97055,-15.4796 c 2.20887,-1.68731 4.74854,-6.10498 5.64366,-9.81707 l 1.62756,-6.74923 -20.51378,0.0334 c -24.22056,0.0395 -30.96864,1.4988 -32.22078,6.9676 -2.00325,8.74929 5.34111,12.63303 23.88966,12.63303 10.26789,0 19.22498,-1.2737 21.57368,-3.06782 z M 75.261984,821.36057 c -0.899907,-0.89988 -1.636187,-2.52892 -1.636187,-3.62004 0,-2.069 20.025512,-11.92364 24.229892,-11.92364 4.474971,0 12.633711,-12.94427 14.154931,-22.45755 0.83094,-5.19637 2.4352,-9.44791 3.56503,-9.44791 4.15059,0 6.899,9.38585 5.46864,18.67552 -2.55744,16.60955 -3.30175,17.33028 -28.513405,27.61064 -7.698613,3.13921 -14.813556,3.61835 -17.268901,1.16298 z M 201.48922,812.1794 c -17.03648,-5.75727 -21.93289,-10.78161 -24.79783,-25.44583 -0.9822,-5.02741 -2.20927,-10.73176 -2.72682,-12.67639 -1.23047,-4.62327 7.65859,-6.53025 10.38511,-2.22792 1.15346,1.82011 2.1141,6.97755 2.1348,11.46097 0.0456,9.8774 3.34265,13.49084 16.08041,17.62309 22.30986,7.23751 26.94616,9.44914 27.70034,13.21383 1.09207,5.4513 -8.87821,4.77644 -28.77601,-1.94775 z"
       id="path3314"
       inkscape:connector-curvature="0" />
  </g>
</svg>
