<?xml version="1.0" encoding="UTF-8" standalone="no"?>
<!-- Created with Inkscape (http://www.inkscape.org/) -->

<svg
   xmlns:dc="http://purl.org/dc/elements/1.1/"
   xmlns:cc="http://creativecommons.org/ns#"
   xmlns:rdf="http://www.w3.org/1999/02/22-rdf-syntax-ns#"
   xmlns:svg="http://www.w3.org/2000/svg"
   xmlns="http://www.w3.org/2000/svg"
   xmlns:sodipodi="http://sodipodi.sourceforge.net/DTD/sodipodi-0.dtd"
   xmlns:inkscape="http://www.inkscape.org/namespaces/inkscape"
   width="300"
   height="300"
   id="svg2"
   version="1.1"
   inkscape:version="0.48.4 r9939"
   sodipodi:docname="image-seal.svg">
  <defs
     id="defs4" />
  <sodipodi:namedview
     id="base"
     pagecolor="#ffffff"
     bordercolor="#666666"
     borderopacity="1.0"
     inkscape:pageopacity="0.0"
     inkscape:pageshadow="2"
     inkscape:zoom="2.0018437"
     inkscape:cx="145.03351"
     inkscape:cy="130.6666"
     inkscape:document-units="px"
     inkscape:current-layer="layer1"
     showgrid="false"
     inkscape:window-width="1215"
     inkscape:window-height="1000"
     inkscape:window-x="65"
     inkscape:window-y="24"
     inkscape:window-maximized="1"
     fit-margin-top="10"
     fit-margin-left="10"
     fit-margin-right="10"
     fit-margin-bottom="10" />
  <metadata
     id="metadata7">
    <rdf:RDF>
      <cc:Work
         rdf:about="">
        <dc:format>image/svg+xml</dc:format>
        <dc:type
           rdf:resource="http://purl.org/dc/dcmitype/StillImage" />
        <dc:title />
      </cc:Work>
    </rdf:RDF>
  </metadata>
  <g
     inkscape:label="Calque 1"
     inkscape:groupmode="layer"
     id="layer1"
     transform="translate(0,-752.36218)">
    <path
       style="fill:#000000"
       d="m 89.078278,1046.0358 c -2.763686,-1.7079 -3.523437,-13.0847 -3.245726,-48.60196 l 0.362586,-46.37191 -8.191504,-8.48626 c -6.94819,-7.19824 -8.685109,-12.04709 -11.443579,-31.94644 -3.601168,-25.97846 -0.905079,-39.80549 7.438963,-38.15108 3.74075,0.74167 4.57602,5.40094 4.989159,27.83018 0.313761,17.03398 1.745549,28.18868 3.893997,30.33714 6.211174,6.21117 8.60437,-3.60553 8.580463,-35.19634 l -0.02291,-30.36021 -10.974904,-8.11951 -10.974836,-8.11948 0,-22.51885 c 0,-29.92468 6.098104,-47.37186 12.779025,-36.56189 1.135601,1.83743 1.73561,14.64819 1.333351,28.46833 -0.586167,20.13875 0.132178,25.84423 3.6182,28.73737 3.887191,3.22607 4.395206,1.44672 4.778826,-16.73828 0.236092,-11.19143 0.203717,-23.04927 -0.07195,-26.35075 -0.275671,-3.30148 0.77318,-6.79031 2.330767,-7.75295 1.557583,-0.96264 2.831972,-5.51438 2.831972,-10.115 0,-5.2588 2.305894,-10.33953 6.210042,-13.68301 8.66146,-7.41761 24.67955,-14.08134 27.37326,-11.38762 2.95935,2.95935 -5.18427,14.44103 -10.24261,14.44103 -6.92963,0 -11.64605,17.55791 -12.67988,47.20369 -0.94546,27.11141 -0.69837,28.69682 4.47247,28.69682 5.96843,0 8.60547,-8.62804 11.38809,-37.26025 2.13865,-22.00585 3.06022,-24.04164 8.44552,-18.65632 3.42503,3.42502 4.33006,9.81902 4.07182,28.76751 -0.36935,27.10184 -4.00648,35.27862 -18.62907,41.88091 -10.4911,4.73689 -14.88961,18.30944 -14.88961,45.9451 0,14.77742 0.99229,20.73147 3.45003,20.70135 8.31622,-0.10184 10.7642,-5.66344 13.75957,-31.26047 2.0091,-17.16878 4.299,-26.65767 6.43314,-26.65767 6.90298,0 7.33441,26.52688 0.83044,51.06035 -4.69336,17.70373 -8.2499,21.90296 -22.89355,27.03058 -1.40821,0.49308 -2.86944,11.38014 -3.24717,24.19325 -1.020817,34.62744 -4.082658,68.65354 -6.301192,70.02464 -1.075187,0.6644 -3.578626,0.2043 -5.563199,-1.022 z m 75.632362,-19.4857 c -0.93819,-1.518 -4.11651,-2.7601 -7.06294,-2.7601 -2.94643,0 -5.35715,-1.1583 -5.35715,-2.5739 0,-1.4159 -2.23635,-3.2839 -4.96967,-4.1514 -9.22671,-2.9286 -11.59044,-17.53518 -11.59044,-71.62264 0,-30.91662 1.1684,-53.91901 2.90348,-57.16103 3.91081,-7.30743 24.27981,-21.8121 30.63085,-21.8121 3.54449,0 5.10593,2.01845 5.10593,6.60036 0,5.11009 -2.46116,7.58514 -10.90033,10.9618 -9.20678,3.68383 -11.2243,5.98168 -12.98558,14.78978 -3.65639,18.2856 -3.46327,18.63596 10.77582,19.54963 7.21055,0.46269 13.11009,1.81582 13.11009,3.00702 0,3.20305 -13.04644,8.57184 -20.83001,8.57184 -6.2742,0 -6.77018,0.9999 -6.77018,13.64887 l 0,13.6489 13.11009,0.84126 c 17.32688,1.11173 17.70694,7.53899 0.69001,11.66881 -11.9949,2.91126 -12.39534,3.34431 -11.69721,12.65358 1.53966,20.53012 9.2697,30.33922 23.90869,30.33922 l 7.05435,0 -0.27988,-76.5906 c -0.15393,-42.12478 0.21423,-78.57751 0.81817,-81.00608 2.12435,-8.5427 10.73742,-19.0446 15.61932,-19.0446 6.10874,0 17.01692,-9.82368 17.01692,-15.32506 0,-2.23849 1.48329,-6.44511 3.29622,-9.34805 2.53191,-4.05421 2.54562,-6.92549 0.0591,-12.38265 -4.39869,-9.65403 -17.71974,-9.97907 -22.02169,-0.53732 -4.23913,9.30388 -22.16998,23.63787 -35.15248,28.10104 -9.32153,3.20461 -11.60894,3.20759 -14.79713,0.0193 -3.18819,-3.18818 -2.23208,-4.50148 6.18506,-8.49566 8.6618,-4.11022 32.07063,-24.07824 32.07063,-27.35657 0,-0.64391 -3.72603,-4.89677 -8.28006,-9.4508 -8.07144,-8.07145 -11.06648,-20.4569 -5.74255,-23.74726 2.52808,-1.56244 11.26259,5.45297 11.26259,9.04594 0,2.14205 9.71067,6.31909 26.91018,11.57541 6.45155,1.97164 11.73007,4.62802 11.73007,5.90307 0,1.27505 1.58058,2.31825 3.5124,2.31825 1.93182,0 5.85541,4.35073 8.71912,9.66829 4.63962,8.61532 4.81019,10.86978 1.56587,20.70014 -2.00247,6.06752 -4.68405,11.03185 -5.9591,11.03185 -1.27502,0 -2.31825,1.56822 -2.31825,3.48494 0,4.23092 -12.27921,13.89551 -20.2496,15.93787 -3.72011,0.95325 -6.6866,4.89547 -8.30762,11.04007 -3.80107,14.40827 -5.18077,146.24818 -1.57593,150.59198 2.28687,2.7556 4.61537,2.8538 10.33261,0.436 12.46323,-5.2699 19.80054,-14.68103 19.80054,-25.3968 0,-9.23834 -0.57712,-9.84002 -11.04006,-11.51315 -8.27333,-1.32287 -11.04008,-3.04733 -11.04008,-6.88017 0,-5.01358 4.24123,-6.89867 19.32012,-8.58725 6.09951,-0.68296 6.99535,-2.23738 7.72149,-13.39757 l 0.82141,-12.62493 -11.86149,-3.57061 c -6.52383,-1.96381 -13.6217,-4.08585 -15.77305,-4.71563 -6.93449,-2.03 0.64391,-6.07384 13.57161,-7.24185 14.42637,-1.30339 17.06097,-7.0107 9.75666,-21.13562 -3.41301,-6.60006 -6.20747,-8.46688 -12.67418,-8.46688 -9.1862,0 -14.15238,-7.21157 -7.83473,-11.37713 9.81213,-6.46965 35.59242,5.95118 35.59242,17.14827 0,2.6449 1.29491,5.24056 2.87756,5.76811 1.99657,0.66553 1.99729,10.24235 0.002,31.28023 -1.58141,16.67656 -2.8763,37.93185 -2.87757,47.23395 -0.003,25.44543 -7.03079,38.42443 -27.08082,50.01763 -7.10222,4.1063 -46.36751,4.6614 -48.822,0.69 z"
       id="path3054"
       inkscape:connector-curvature="0" />
  </g>
</svg>
