<?xml version="1.0" encoding="UTF-8" standalone="no"?>
<!-- Created with Inkscape (http://www.inkscape.org/) -->

<svg
   xmlns:dc="http://purl.org/dc/elements/1.1/"
   xmlns:cc="http://creativecommons.org/ns#"
   xmlns:rdf="http://www.w3.org/1999/02/22-rdf-syntax-ns#"
   xmlns:svg="http://www.w3.org/2000/svg"
   xmlns="http://www.w3.org/2000/svg"
   xmlns:sodipodi="http://sodipodi.sourceforge.net/DTD/sodipodi-0.dtd"
   xmlns:inkscape="http://www.inkscape.org/namespaces/inkscape"
   width="300"
   height="300"
   id="svg2"
   version="1.1"
   inkscape:version="0.48.4 r9939"
   sodipodi:docname="image-seal.svg">
  <defs
     id="defs4" />
  <sodipodi:namedview
     id="base"
     pagecolor="#ffffff"
     bordercolor="#666666"
     borderopacity="1.0"
     inkscape:pageopacity="0.0"
     inkscape:pageshadow="2"
     inkscape:zoom="1.979899"
     inkscape:cx="154.69485"
     inkscape:cy="171.68677"
     inkscape:document-units="px"
     inkscape:current-layer="layer1"
     showgrid="false"
     inkscape:window-width="1215"
     inkscape:window-height="1000"
     inkscape:window-x="65"
     inkscape:window-y="24"
     inkscape:window-maximized="1" />
  <metadata
     id="metadata7">
    <rdf:RDF>
      <cc:Work
         rdf:about="">
        <dc:format>image/svg+xml</dc:format>
        <dc:type
           rdf:resource="http://purl.org/dc/dcmitype/StillImage" />
        <dc:title />
      </cc:Work>
    </rdf:RDF>
  </metadata>
  <g
     inkscape:label="Calque 1"
     inkscape:groupmode="layer"
     id="layer1"
     transform="translate(0,-752.36218)">
    <path
       style="fill:#000000"
       d="m 138.37365,1036.9775 c 0,-3.1694 1.0912,-11.5163 2.42484,-18.5487 1.33367,-7.0324 2.9369,-43.1144 3.56272,-80.18227 1.18466,-70.16777 2.81295,-95.05052 6.47647,-98.97017 1.1907,-1.27394 2.16488,-3.88817 2.16488,-5.80941 0,-1.92121 2.26474,-5.45734 5.03274,-7.85801 5.06565,-4.3934 10.76576,-5.70083 37.63493,-8.63219 19.08292,-2.08191 23.16244,-4.38689 23.16244,-13.08713 0,-13.45781 -4.73435,-15.25803 -36.46672,-13.86642 -28.47321,1.2487 -39.39457,-0.70534 -31.80154,-5.68985 4.00035,-2.62604 51.91835,-3.31118 66.21662,-0.94673 8.40979,1.39068 8.9677,2.05166 9.75262,11.55439 2.09035,25.30696 0.98989,26.84564 -21.11082,29.51677 -20.96637,2.53408 -41.56641,6.41383 -44.8587,8.44856 -4.14471,2.56158 -4.80596,11.55263 -6.28747,85.48806 -1.31742,65.74796 -5.14196,116.2308 -9.18943,121.2981 -3.80811,4.7676 -6.71358,3.5926 -6.71358,-2.715 z m -37.60788,-43.60994 c 3.32881,-65.06696 3.26249,-66.29725 -3.62673,-67.27058 -10.172115,-1.43717 -13.533084,-7.28159 -14.842883,-25.81036 -1.788385,-25.29909 -0.377719,-42.84602 3.444572,-42.84602 2.372029,0 3.508891,7.23228 4.434729,28.21222 1.254699,28.43196 3.237355,34.61104 10.242972,31.92277 3.20441,-1.22965 3.82109,-6.70129 3.82109,-33.90342 l 0,-32.43714 -8.482327,-4.56805 c -10.222366,-5.5051 -10.361098,-5.92352 -12.393735,-37.37989 -1.423539,-22.03017 -1.149126,-24.99106 2.316146,-24.99106 3.242377,0 3.931009,2.99654 3.931009,17.10547 0,21.08628 4.374702,36.53387 10.346249,36.53387 3.788428,0 4.282658,-2.71074 4.282658,-23.4891 0,-12.91902 1.27913,-27.75847 2.84252,-32.97656 3.09056,-10.3154 14.60449,-23.99336 20.19724,-23.99336 7.49198,0 6.2582,5.59766 -3.29854,14.96561 -7.54548,7.39643 -9.98861,11.68744 -9.98861,17.5437 0,4.26382 -1.02058,11.31095 -2.26794,15.6603 -1.34586,4.69276 -1.36851,7.9079 -0.0556,7.9079 1.21676,0 2.09695,3.56579 1.956,7.92398 -0.47185,14.58932 0.18067,16.85107 4.61562,15.997 5.05427,-0.97336 7.19559,-9.52024 7.82566,-31.23544 0.25291,-8.71639 1.29064,-17.96951 2.30605,-20.56245 3.53491,-9.02682 5.54858,0.85811 5.42892,26.65018 -0.13307,28.67361 -2.60681,35.36085 -13.08067,35.36085 -7.52998,0 -7.01941,-2.64056 -7.7787,40.22952 -0.45403,25.63591 0.0663,28.03873 6.07332,28.03873 6.16436,0 9.57572,-13.39593 9.59274,-37.66944 0.009,-13.21778 0.80729,-18.58962 2.50882,-16.88807 4.96486,4.96486 7.29377,35.90456 3.8519,51.17302 -1.72251,7.64128 -9.37518,13.13711 -18.29273,13.13711 -3.8228,0 -4.59055,2.96618 -5.83749,22.5529 -0.78969,12.4041 -1.55554,35.12459 -1.70188,50.48996 -0.15116,15.88139 -1.39401,29.29609 -2.87985,31.08649 -6.650495,8.0133 -7.483246,2.4818 -5.49045,-36.47064 z m 75.39923,30.00064 c -11.10516,-4.5453 -19.2041,-21.8276 -17.26328,-36.83816 0.59742,-4.62052 1.16024,-9.22379 1.25076,-10.22953 0.0905,-1.00575 1.38381,-1.82862 2.87404,-1.82862 1.78123,0 2.1555,2.95312 1.09244,8.61971 -5.11587,27.2699 19.01275,40.0905 43.60607,23.1698 7.28217,-5.0103 14.57394,-7.87422 20.80287,-8.17065 11.26747,-0.53621 14.49192,4.08105 3.59467,5.14735 -4.0889,0.4002 -11.2205,4.0647 -15.84799,8.1434 -14.39818,12.6908 -28.26452,16.8348 -40.10958,11.9867 z m 5.4423,-31.5495 c -7.69778,-3.84571 -7.87706,-4.30434 -7.73395,-19.78496 0.25121,-27.1813 3.79352,-50.788 7.85486,-52.3465 5.38933,-2.06805 5.81406,-0.62431 3.29026,11.18394 -1.25611,5.8771 -3.00943,18.9398 -3.89624,29.02818 -1.43117,16.28107 -1.05715,18.98269 3.32774,24.03854 8.62686,9.94684 13.33996,0.21431 16.39114,-33.84753 0.66067,-7.37541 1.59733,-16.15276 2.08146,-19.50522 0.48411,-3.35245 0.97042,-6.91825 1.08069,-7.92399 0.11017,-1.00574 1.98732,-1.82862 4.17122,-1.82862 4.14058,0 4.11422,2.42831 -0.46648,42.97213 -1.39543,12.35098 -1.34007,12.48155 4.79718,11.30834 6.91935,-1.32273 7.5192,-3.42507 10.09622,-35.38479 1.12454,-13.94623 2.42709,-18.89568 4.97282,-18.89568 4.96661,0 5.06547,5.31365 0.71439,38.40091 -2.26112,17.19445 -3.31653,20.11475 -7.26963,20.11475 -2.54346,0 -4.62446,1.09716 -4.62446,2.43814 0,1.34099 -1.93042,2.43815 -4.28981,2.43815 -2.3594,0 -5.57075,2.05113 -7.13634,4.55803 -3.98181,6.37587 -14.05556,7.68513 -23.36107,3.03618 z m 15.282,-93.94543 c 0,-17.07211 -3.09138,-17.52076 -16.97124,-2.46285 -6.36921,6.90975 -11.63363,10.62989 -13.84286,9.78211 -2.90328,-1.11409 -2.58985,-2.39172 1.68871,-6.88336 2.88953,-3.03346 6.91093,-7.98399 8.93641,-11.00122 2.0255,-3.0172 4.64537,-5.48584 5.82196,-5.48584 1.17655,0 4.89043,-2.39219 8.25311,-5.31601 6.17557,-5.36956 8.65944,-19.64267 3.92725,-22.56731 -1.20263,-0.74327 -7.49124,3.03206 -13.97466,8.38964 -10.86482,8.97818 -17.9728,12.17123 -17.9728,8.07377 0,-3.06929 23.78344,-24.63394 28.99161,-26.28696 2.8943,-0.9186 5.14251,-3.6922 5.14251,-6.34417 0,-2.5916 1.64576,-4.71201 3.65724,-4.71201 2.01926,0 3.65722,2.16175 3.65722,4.82678 0,4.56784 15.16776,14.67845 22.02039,14.67845 4.84054,0 10.57436,7.39097 7.84851,10.1168 -1.69306,1.69304 -5.76938,0.41796 -12.74852,-3.98777 -12.37033,-7.80904 -17.13347,-6.65008 -17.08306,4.1566 0.0469,10.03518 1.68648,12.37185 11.45195,16.32062 9.50564,3.84372 23.28871,16.56796 22.03167,20.33914 -1.66321,4.9896 -5.77838,4.44027 -8.79579,-1.17415 -2.71932,-5.05978 -19.46848,-17.9219 -20.93732,-16.07834 -0.34353,0.43119 -1.61063,6.7328 -2.81576,14.00356 -3.04365,18.36286 -8.28653,19.38311 -8.28653,1.61252 z"
       id="path3041"
       inkscape:connector-curvature="0" />
  </g>
</svg>
