<?xml version="1.0" encoding="UTF-8" standalone="no"?>
<!-- Created with Inkscape (http://www.inkscape.org/) -->

<svg
   xmlns:dc="http://purl.org/dc/elements/1.1/"
   xmlns:cc="http://creativecommons.org/ns#"
   xmlns:rdf="http://www.w3.org/1999/02/22-rdf-syntax-ns#"
   xmlns:svg="http://www.w3.org/2000/svg"
   xmlns="http://www.w3.org/2000/svg"
   xmlns:sodipodi="http://sodipodi.sourceforge.net/DTD/sodipodi-0.dtd"
   xmlns:inkscape="http://www.inkscape.org/namespaces/inkscape"
   version="1.0"
   width="300"
   height="300"
   id="svg2"
   inkscape:version="0.48.4 r9939"
   sodipodi:docname="dessin.svg">
  <metadata
     id="metadata2990">
    <rdf:RDF>
      <cc:Work
         rdf:about="">
        <dc:format>image/svg+xml</dc:format>
        <dc:type
           rdf:resource="http://purl.org/dc/dcmitype/StillImage" />
      </cc:Work>
    </rdf:RDF>
  </metadata>
  <sodipodi:namedview
     pagecolor="#ffffff"
     bordercolor="#666666"
     borderopacity="1"
     objecttolerance="10"
     gridtolerance="10"
     guidetolerance="10"
     inkscape:pageopacity="0"
     inkscape:pageshadow="2"
     inkscape:window-width="1215"
     inkscape:window-height="1000"
     id="namedview2988"
     showgrid="false"
     inkscape:zoom="2.2250294"
     inkscape:cx="129.01005"
     inkscape:cy="139.3918"
     inkscape:window-x="65"
     inkscape:window-y="24"
     inkscape:window-maximized="1"
     inkscape:current-layer="svg2"
     showguides="true"
     inkscape:guide-bbox="true" />
  <defs
     id="defs5" />
  <path
     style="fill:#000000"
     d="m 105.03099,277.1072 c -0.57808,-1.61947 -1.76546,-18.84467 -2.63861,-38.27825 -0.87316,-19.43358 -2.491909,-35.60299 -3.597232,-35.93202 -1.105323,-0.32902 -5.670476,-2.54234 -10.14478,-4.91846 -6.655008,-3.53421 -8.743753,-6.85397 -11.480352,-18.24643 -3.795996,-15.80262 -5.468463,-51.75476 -2.526768,-54.31674 4.615108,-4.01943 7.901217,4.84344 8.995235,24.2607 1.468021,26.05565 4.890824,36.1523 12.255731,36.1523 5.169976,0 5.369476,-1.06252 3.870049,-20.61137 -0.869528,-11.33625 -2.365569,-26.77283 -3.324542,-34.30346 -1.673604,-13.1423 -2.153334,-13.83489 -11.946342,-17.24752 -13.227226,-4.60939 -15.460348,-10.0143 -17.581253,-42.55279 -1.897983,-29.118583 -1.00771,-32.720931 7.008916,-28.360673 4.64213,2.52488 5.283978,5.602804 5.283978,25.339071 0,23.457123 3.648698,32.935692 12.678338,32.935692 3.466836,0 3.891768,-1.64055 2.288053,-8.833445 -3.253463,-14.592258 -1.518868,-64.757848 2.423126,-70.078642 1.919703,-2.591143 8.070883,-6.152104 13.669303,-7.913233 8.57986,-2.69903 10.54451,-2.69903 12.50589,0 3.34924,4.608771 1.64067,7.498108 -6.47079,10.942726 -4.7917,2.034849 -7.63156,5.515108 -8.64961,10.600131 -1.15919,5.789933 -0.36786,52.575071 1.07433,63.515771 0.1282,0.971682 1.91089,1.766692 3.96177,1.766692 4.59788,0 11.04476,-12.821567 8.35365,-16.613846 -1.07903,-1.520554 -2.46528,-10.957356 -3.08055,-20.970616 -0.89309,-14.534593 -0.26019,-18.826445 3.13825,-21.282872 8.30121,-6.000168 12.02104,3.343398 12.1159,30.43307 0.10355,29.564994 -3.39781,39.994554 -14.04946,41.849924 -4.1261,0.71872 -7.62483,2.49926 -7.77494,3.95677 -0.79885,7.75669 0.96774,64.14644 2.0577,65.6824 0.70431,0.99249 3.16056,0.88823 5.45835,-0.2318 3.38816,-1.65138 4.24868,-7.63041 4.55287,-31.63476 0.20637,-16.27919 1.34629,-30.4437 2.53332,-31.47669 1.18703,-1.033 4.2298,-0.74258 6.76171,0.64533 3.81244,2.08988 4.7358,7.11874 5.37353,29.26515 0.87623,30.43011 -1.09556,36.51535 -14.24605,43.96508 l -9.27244,5.25283 1.65383,40.09218 1.6538,40.09218 -5.9164,0 c -3.25404,0 -6.38942,-1.32502 -6.96751,-2.94448 z m 91.97093,-2.18148 c -0.65605,-1.71522 -2.49439,-18.48877 -4.08524,-37.27457 -5.88481,-69.49257 -5.67544,-68.31195 -12.11449,-68.31195 -9.36921,0 -10.50544,6.37471 -9.88729,55.47214 0.53433,42.43809 0.0866,48.37588 -3.74555,49.65656 -2.39383,0.80004 -5.21279,0.70611 -6.26431,-0.2087 -3.37837,-2.93916 -4.77164,-65.35169 -1.94379,-87.07215 2.57668,-19.7909 3.21082,-21.26074 10.85065,-25.15037 4.46273,-2.27209 10.24399,-4.20854 12.84725,-4.30323 3.686,-0.13404 4.7332,-2.25684 4.7332,-9.59451 0,-8.42279 -0.7013,-9.42234 -6.6109,-9.42234 -11.3648,0 -20.34455,-9.10188 -22.86255,-23.17356 -3.86875,-21.620283 3.89561,-28.652221 31.62921,-28.645649 20.69396,0.0047 33.0756,5.58382 38.07353,17.155089 3.15563,7.30603 3.24668,10.50699 0.50461,17.74313 -3.21175,8.47565 -14.73273,16.92099 -23.08328,16.92099 -3.63128,0 -6.8319,4.97064 -6.8319,10.6101 0,1.73693 4.53054,4.46027 10.06784,6.05188 16.66349,4.78963 20.40951,10.45553 24.80395,37.51646 1.78831,11.01237 4.41058,26.50477 5.82729,34.42758 1.41672,7.9228 2.57586,20.90796 2.57586,28.85591 0,12.6327 -0.64729,14.45081 -5.14479,14.45081 -7.23336,0 -11.06392,-11.21866 -11.17925,-32.74079 -0.0695,-12.98716 -5.79334,-56.92503 -7.88564,-60.53327 -0.0728,-0.12559 -2.59325,-2.69955 -5.60088,-5.71978 -9.98469,-10.02653 -11.07611,-3.84955 -7.73897,43.79997 4.44088,63.40987 4.48256,60.83646 -1.00038,61.78692 -2.60777,0.45203 -5.27813,-0.58146 -5.93418,-2.29667 z m 4.89883,-148.26987 c 6.97208,-2.76669 11.44373,-14.52252 8.26673,-21.73301 -2.71975,-6.172784 -19.2145,-8.981464 -29.90333,-5.091829 -7.86692,2.862739 -9.0999,4.425959 -9.0999,11.537159 0,8.66207 1.75084,10.39232 14.87576,14.70056 4.46272,1.4649 8.36106,2.78991 8.66296,2.94449 0.3019,0.15452 3.54089,-0.90624 7.19778,-2.35737 z m -63.1927,-43.007823 c 0,-2.351768 31.47837,-28.580309 37.11985,-30.929156 0.33365,-0.13898 1.0551,-7.556032 1.60321,-16.482473 0.59946,-9.762626 2.28004,-16.60249 4.21752,-17.164956 6.28379,-1.824236 11.15309,4.709991 11.15309,14.96663 0,9.839254 0.58395,10.534928 18.04827,21.500717 9.92656,6.232876 21.03858,13.806999 24.6934,16.831405 5.91503,4.894741 6.19813,5.888209 2.57675,9.042171 -3.62141,3.153986 -5.66585,2.554349 -18.60787,-5.457725 -7.99672,-4.950544 -16.14779,-10.34455 -18.11353,-11.986675 -6.77851,-5.662566 -10.36887,-4.538222 -41.98204,13.147225 -5.43944,3.042991 -9.88992,6.488034 -9.88992,7.655649 0,1.167593 -2.43421,2.122901 -5.40937,2.122901 -2.97515,0 -5.40936,-1.46058 -5.40936,-3.245713 z"
     id="path3043"
     inkscape:connector-curvature="0" />
</svg>
