<?xml version="1.0" encoding="UTF-8" standalone="no"?>
<!-- Created with Inkscape (http://www.inkscape.org/) -->

<svg
   xmlns:dc="http://purl.org/dc/elements/1.1/"
   xmlns:cc="http://creativecommons.org/ns#"
   xmlns:rdf="http://www.w3.org/1999/02/22-rdf-syntax-ns#"
   xmlns:svg="http://www.w3.org/2000/svg"
   xmlns="http://www.w3.org/2000/svg"
   xmlns:sodipodi="http://sodipodi.sourceforge.net/DTD/sodipodi-0.dtd"
   xmlns:inkscape="http://www.inkscape.org/namespaces/inkscape"
   width="300"
   height="300"
   id="svg2"
   version="1.1"
   inkscape:version="0.48.4 r9939"
   sodipodi:docname="image-seal.svg">
  <defs
     id="defs4" />
  <sodipodi:namedview
     id="base"
     pagecolor="#ffffff"
     bordercolor="#666666"
     borderopacity="1.0"
     inkscape:pageopacity="0.0"
     inkscape:pageshadow="2"
     inkscape:zoom="2.0018437"
     inkscape:cx="145.03351"
     inkscape:cy="130.6666"
     inkscape:document-units="px"
     inkscape:current-layer="layer1"
     showgrid="false"
     inkscape:window-width="1215"
     inkscape:window-height="1000"
     inkscape:window-x="65"
     inkscape:window-y="24"
     inkscape:window-maximized="1"
     fit-margin-top="10"
     fit-margin-left="10"
     fit-margin-right="10"
     fit-margin-bottom="10" />
  <metadata
     id="metadata7">
    <rdf:RDF>
      <cc:Work
         rdf:about="">
        <dc:format>image/svg+xml</dc:format>
        <dc:type
           rdf:resource="http://purl.org/dc/dcmitype/StillImage" />
        <dc:title />
      </cc:Work>
    </rdf:RDF>
  </metadata>
  <g
     inkscape:label="Calque 1"
     inkscape:groupmode="layer"
     id="layer1"
     transform="translate(0,-752.36218)">
    <path
       style="fill:#000000"
       d="m 169.86504,1022.3363 c 0,-24.68312 -0.0816,-25.02588 -5.95086,-25.02588 -11.48971,0 -23.23526,-6.92899 -27.7021,-16.34212 -5.70715,-12.02699 -6.67418,-39.96611 -1.38328,-39.96611 2.52056,0 4.33068,3.69997 5.50952,11.26164 5.26197,33.75324 7.64576,36.05637 35.84558,34.63235 17.18232,-0.86767 19.50477,-1.62979 25.93569,-8.51085 5.1414,-5.50127 7.67259,-11.56139 9.30208,-22.27061 2.36181,-15.52218 7.27454,-20.84704 9.83211,-10.65692 2.00425,7.9856 -5.11942,32.07825 -11.51445,38.94252 -2.78015,2.98416 -9.18971,7.1534 -14.24346,9.26498 -5.05373,2.11159 -9.97221,5.10716 -10.92996,6.6568 -0.95774,1.5497 -1.81487,10.6695 -1.90472,20.2662 -0.20145,21.5256 -1.76179,26.7739 -7.95963,26.7739 -4.45788,0 -4.83652,-1.9593 -4.83652,-25.0259 z M 90.122009,988.81997 c 0.47724,-41.73587 -0.008,-49.09513 -3.46756,-52.55436 -2.21236,-2.21236 -5.64824,-4.02248 -7.63527,-4.02248 -4.18115,0 -6.0648,-9.52698 -8.4066,-42.5183 -0.9719,-13.69231 -0.66701,-22.549 0.77626,-22.549 6.23977,0 8.38302,7.03806 8.38302,27.52847 0,21.07693 2.11346,27.52847 9.01805,27.52847 3.59306,0 5.18058,-18.34967 3.85631,-44.57417 -0.81216,-16.08281 -1.59362,-18.5829 -6.37717,-20.4016 -8.78268,-3.33918 -10.77402,-7.75743 -12.44855,-27.61999 -0.87032,-10.32318 -2.28471,-24.1187 -3.1431,-30.65671 -1.28613,-9.79586 -0.86952,-11.88729 2.36787,-11.88729 5.65613,0 6.29141,1.9646 6.90605,21.35683 0.71233,22.47542 4.43451,38.70529 8.8767,38.70529 1.90122,0 3.51464,-1.97079 3.58534,-4.37953 0.0708,-2.40875 0.44821,-17.89351 0.83891,-34.41059 0.80026,-33.83134 2.42356,-38.16675 17.255201,-46.08344 12.04293,-6.42815 14.31098,-6.51026 14.31098,-0.51806 0,2.81576 -2.87718,5.89332 -7.1732,7.67281 -11.62189,4.81393 -15.34472,16.71293 -15.70296,50.19033 -0.28853,26.96176 -0.15942,27.52848 6.2667,27.52848 5.41761,0 6.04623,-1.31246 7.49175,-15.64118 3.35089,-33.21631 4.81676,-41.77851 6.92907,-40.47304 1.20374,0.74397 2.18864,13.45877 2.18864,28.25513 0,30.33542 -1.81323,34.83435 -15.13779,37.55949 l -8.6368,1.76638 -0.17168,28.67721 c -0.19545,32.64038 0.23299,34.93365 6.52725,34.93365 5.90794,0 7.04321,-4.08382 8.64674,-31.10459 0.72936,-12.29006 1.87532,-22.89478 2.54661,-23.56605 3.23147,-3.23149 4.89033,4.42836 5.78546,26.71481 0.9653,24.03293 0.88437,24.44453 -6.24911,31.78287 -3.97489,4.08903 -9.34059,8.61754 -11.92378,10.06336 -4.25913,2.38384 -4.8047,6.93029 -5.85591,48.80047 -1.079021,42.97896 -2.607151,52.42826 -8.478621,52.42826 -1.34311,0 -2.07234,-20.2368 -1.74881,-48.53193 z m 67.701971,-21.63808 c -3.22063,-3.00048 -5.47706,-8.1154 -5.47706,-12.41547 0,-11.75095 8.34743,-17.51812 25.35587,-17.51812 12.04536,0 15.03913,0.91005 18.29753,5.56203 10.00932,14.29033 -0.69935,29.47421 -20.78715,29.47421 -8.52877,0 -13.46773,-1.44927 -17.38919,-5.10265 z m 25.64237,-4.84576 c 5.01852,-1.90803 6.41939,-4.16358 6.41939,-10.33582 l 0,-7.89516 -11.51959,1.29841 c -12.78432,1.44097 -19.50802,6.35653 -17.13905,12.52996 2.40464,6.26641 12.22419,8.21032 22.23925,4.40261 z m -33.39621,-36.89701 c -4.94169,-1.72204 -9.26641,-3.14794 -9.61052,-3.16866 -0.3441,-0.02 -0.62564,-7.18323 -0.62564,-15.91663 0,-16.51704 1.19406,-18.6829 14.35592,-26.03941 3.31353,-1.85202 14.72538,-3.12824 27.97248,-3.12824 21.19197,0 22.65,0.34882 27.56243,6.59397 8.56018,10.88251 5.76476,35.47862 -4.53687,39.91884 -8.62637,3.71817 -46.0509,4.89969 -55.1178,1.74013 z m 41.06117,-7.04574 c 9.191,-1.493 13.6337,-4.50163 13.73165,-9.29919 0.02,-1.03232 -12.3495,-1.87695 -27.49016,-1.87695 -21.71386,0 -27.52847,0.72818 -27.52847,3.44747 0,4.90535 5.06539,8.4587 13.76423,9.65561 7.69747,1.0591 10.23381,0.88151 27.52275,-1.92694 z m 8.13914,-20.26126 c 6.92936,-1.85699 7.09206,-4.46917 0.67777,-10.88345 -3.48047,-3.48048 -7.0146,-4.55369 -11.88729,-3.60981 -8.78884,1.70246 -19.75678,2.90718 -29.79144,3.27233 -6.27193,0.22824 -8.08108,1.53777 -9.03767,6.54182 l -1.19601,6.25647 22.80191,-0.0343 c 12.54104,-0.02 25.33578,-0.71323 28.43273,-1.54319 z m -38.72743,-30.78781 c -16.58701,-4.13768 -19.87258,-8.25316 -21.74299,-27.235 -1.72333,-17.48893 -0.33817,-29.12369 4.14556,-34.82136 1.33181,-1.69238 7.90235,-3.80411 14.60123,-4.69275 13.03646,-1.72934 15.59843,-4.84574 14.73927,-17.92902 -0.93091,-14.17589 0.1459,-20.59906 3.453,-20.59906 1.85429,0 4.50893,2.53387 5.8992,5.63083 2.23944,4.98856 4.35257,5.63082 18.52618,5.63082 12.55246,0 15.99845,0.80856 15.99845,3.75388 0,2.68288 -3.21302,3.94218 -11.26165,4.41387 -19.09034,1.11878 -22.52329,2.55121 -22.52329,9.39804 0,5.40497 1.11292,6.2088 8.59614,6.2088 4.72789,0 11.56966,1.13054 15.204,2.5123 12.29113,4.67308 13.74444,8.04797 13.6591,31.71953 -0.0816,22.61564 -1.60714,26.9781 -11.3326,32.40569 -6.77235,3.77951 -37.88505,6.11705 -47.9616,3.60343 z m 33.72225,-7.46968 c 3.09695,-0.11362 5.6047,-1.05119 5.57277,-2.0835 -0.12438,-4.01816 -17.47783,-20.95876 -21.80338,-21.28459 -5.41282,-0.40775 -28.29521,15.81713 -27.27381,19.33862 1.06147,3.65964 11.35329,5.64932 25.36066,4.90287 6.88211,-0.36675 15.04681,-0.75978 18.14376,-0.8734 z m -21.272,-4.36657 c -4.49032,-1.81187 -3.85549,-7.53837 1.04413,-9.41851 5.36024,-2.05693 8.96049,1.54332 6.90357,6.90356 -1.659,4.3233 -2.67184,4.64381 -7.9477,2.51495 z m 40.1245,-33.19172 c -0.84412,-6.29351 -2.67875,-10.19745 -4.79213,-10.19745 -1.8834,0 -3.42437,1.05029 -3.42437,2.33394 0,1.28368 -1.97079,3.00456 -4.37953,3.8242 -2.40874,0.81965 -7.1289,3.78444 -10.48927,6.58842 l -6.10972,5.09814 12.36619,11.21193 12.36621,11.21192 2.91519,-9.93683 c 1.60336,-5.46528 2.29971,-14.5257 1.54743,-20.13427 z m -15.68595,11.7002 c 0.02,-1.72053 0.96512,-4.58925 2.09785,-6.37492 1.65145,-2.60342 2.67827,-2.50116 5.18231,0.51601 1.71752,2.06949 2.39627,4.9382 1.50833,6.37494 -2.25919,3.65546 -8.83486,3.26936 -8.78849,-0.51603 z m -39.28956,5.22205 c 11.42659,-6.08585 11.84976,-9.97229 2.04762,-18.80693 -9.14208,-8.23975 -12.56405,-9.91045 -13.18191,-6.43583 -1.19904,6.74307 -1.47735,20.09005 -0.49571,23.77459 1.36541,5.1251 4.11268,5.47191 11.63,1.46817 z m -5.79534,-7.09899 c -2.95631,-1.82709 -3.07944,-2.92678 -0.60473,-5.40149 2.4168,-2.4168 3.77468,-2.43995 6.11042,-0.10411 4.06008,4.06008 -0.48715,8.60733 -5.50569,5.5057 z m 39.43466,-16.18076 c 9.5002,-5.75911 10.35961,-8.83151 2.48369,-8.87929 -3.09695,-0.0175 -8.16269,-0.71271 -11.25722,-1.54202 -5.18986,-1.39086 -5.50146,-0.88311 -4.016,6.54415 1.39742,6.98715 0.98314,7.92539 -3.13266,7.09473 -3.02646,-0.6108 -4.67114,-2.96687 -4.54435,-6.50998 0.1504,-4.20292 -1.21836,-5.55272 -5.63083,-5.55272 -7.73632,0 -7.36216,1.75664 2.14164,10.05438 8.40695,7.34006 9.98418,7.26046 23.95573,-1.20925 z"
       id="path3015"
       inkscape:connector-curvature="0" />
  </g>
</svg>
