<?xml version="1.0" encoding="UTF-8" standalone="no"?>
<!-- Created with Inkscape (http://www.inkscape.org/) -->

<svg
   xmlns:dc="http://purl.org/dc/elements/1.1/"
   xmlns:cc="http://creativecommons.org/ns#"
   xmlns:rdf="http://www.w3.org/1999/02/22-rdf-syntax-ns#"
   xmlns:svg="http://www.w3.org/2000/svg"
   xmlns="http://www.w3.org/2000/svg"
   xmlns:sodipodi="http://sodipodi.sourceforge.net/DTD/sodipodi-0.dtd"
   xmlns:inkscape="http://www.inkscape.org/namespaces/inkscape"
   width="300"
   height="300"
   id="svg2"
   version="1.1"
   inkscape:version="0.48.4 r9939"
   sodipodi:docname="image-seal.svg">
  <defs
     id="defs4" />
  <sodipodi:namedview
     id="base"
     pagecolor="#ffffff"
     bordercolor="#666666"
     borderopacity="1.0"
     inkscape:pageopacity="0.0"
     inkscape:pageshadow="2"
     inkscape:zoom="2.0018437"
     inkscape:cx="145.03351"
     inkscape:cy="130.6666"
     inkscape:document-units="px"
     inkscape:current-layer="layer1"
     showgrid="false"
     inkscape:window-width="1215"
     inkscape:window-height="1000"
     inkscape:window-x="65"
     inkscape:window-y="24"
     inkscape:window-maximized="1"
     fit-margin-top="10"
     fit-margin-left="10"
     fit-margin-right="10"
     fit-margin-bottom="10" />
  <metadata
     id="metadata7">
    <rdf:RDF>
      <cc:Work
         rdf:about="">
        <dc:format>image/svg+xml</dc:format>
        <dc:type
           rdf:resource="http://purl.org/dc/dcmitype/StillImage" />
        <dc:title />
      </cc:Work>
    </rdf:RDF>
  </metadata>
  <g
     inkscape:label="Calque 1"
     inkscape:groupmode="layer"
     id="layer1"
     transform="translate(0,-752.36218)">
    <path
       style="fill:#000000"
       d="m 66.570494,979.74304 c 0,-60.48115 -1.391499,-68.48818 -13.181818,-75.85135 -8.501996,-5.30957 -13.181819,-15.3702 -13.181819,-28.33801 0,-11.72555 2.747144,-18.40801 6.590909,-16.03245 3.625,2.24038 6.59091,11.31316 6.59091,20.16172 0,8.84856 2.965909,16.08828 6.590909,16.08828 3.625,0 6.590909,-11.15017 6.590909,-24.77819 0,-17.64024 -3.797359,-27.14974 -13.181818,-33.01044 -13.465999,-8.4096 -18.707492,-41.07501 -6.59091,-41.07501 3.625,0 6.59091,7.41478 6.59091,16.47728 0,9.0625 2.965909,16.47727 6.590909,16.47727 3.625,0 6.590909,-10.38068 6.590909,-23.06818 0,-24.7952 18.509839,-49.43182 37.138836,-49.43182 7.85297,0 6.06551,3.70462 -6.590897,13.66019 -13.65351,10.73982 -17.366121,19.36659 -17.366121,40.35244 0,22.97921 1.375271,25.55098 9.886361,18.48737 5.4375,-4.51273 9.886371,-13.77362 9.886371,-20.57972 0,-6.80617 3.162906,-12.37483 7.028686,-12.37483 13.40687,0 3.31261,36.05043 -11.971877,42.75609 -11.68066,5.12456 -14.829541,11.88881 -14.829541,31.85604 0,27.45509 14.715361,31.89756 18.583401,5.61024 3.101617,-21.07858 15.608367,-17.45641 13.161197,3.81173 -1.28896,11.20223 -7.74958,20.60997 -16.915057,24.63108 -13.99284,6.13897 -14.829541,10.32248 -14.829541,74.14773 0,40.7005 -2.625106,67.6417 -6.590909,67.6417 -3.965658,0 -6.590909,-26.9337 -6.590909,-67.61916 z m 85.681816,35.30926 c 0,-29.97405 -1.42938,-32.80801 -19.77273,-39.20251 -21.80299,-7.60057 -26.4771,-26.76404 -9.88636,-40.5331 5.4375,-4.51273 9.88636,-10.80771 9.88636,-13.98881 0,-3.18117 -4.44886,-5.78392 -9.88636,-5.78392 -5.4375,0 -9.88637,-3.13642 -9.88637,-6.96989 0,-4.1238 11.43805,-6.14226 28.01137,-4.94318 23.10074,1.67139 28.37376,4.57435 30.07855,16.55913 1.6532,11.62195 -2.3067,15.6658 -19.77272,20.19165 -25.97445,6.7307 -28.10651,18.62446 -5.36265,29.91594 13.94551,6.92335 16.78337,13.47241 18.46944,42.62239 1.21292,20.97 -0.72062,34.4422 -4.94318,34.4422 -3.91002,0 -6.93535,-14.0942 -6.93535,-32.3099 z m 6.59091,-92.91743 c 0,-3.625 -2.96591,-6.59091 -6.59091,-6.59091 -3.625,0 -6.59091,2.96591 -6.59091,6.59091 0,3.625 2.96591,6.59091 6.59091,6.59091 3.625,0 6.59091,-2.96591 6.59091,-6.59091 z m 27.34948,40.89138 c 1.86667,-68.16193 4.6393,-87.88918 14.4573,-102.86366 14.64057,-22.32993 6.67345,-35.54602 -14.57354,-24.17493 -11.97429,6.40841 -14.26159,5.21829 -17.91025,-9.31915 -5.03611,-20.06542 2.06222,-62.71546 10.43786,-62.71546 3.28995,0 4.34413,15.57102 2.34261,34.60227 l -3.6391,34.60227 16.89442,-19.77272 c 9.29194,-10.875 17.00109,-26.44603 17.13146,-34.60228 0.13037,-8.15625 3.20294,-14.82954 6.82794,-14.82954 3.625,0 6.59091,4.56895 6.59091,10.15323 0,5.58428 6.3979,18.80689 14.21755,29.38352 12.19328,16.4923 12.9414,20.76796 5.25452,30.0301 -7.65951,9.22911 -7.33087,11.71316 2.25972,17.08034 15.61316,8.73757 14.11334,20.61307 -1.95906,15.5119 -10.17921,-3.23073 -13.18182,-1.18439 -13.18182,8.9838 0,8.41501 5.35242,14.19847 14.82954,16.02389 l 14.82955,2.8563 -14.82955,0.89755 c -20.15378,1.21978 -21.74213,33.8521 -1.64772,33.8521 7.25,0 13.18181,2.96591 13.18181,6.59091 0,3.625 -5.93181,6.5909 -13.18181,6.5909 -9.66667,0 -13.18182,4.39397 -13.18182,16.47728 0,12.08331 3.51515,16.47727 13.18182,16.47727 7.25,0 13.18181,2.96591 13.18181,6.59091 0,3.625 -13.34659,6.59091 -29.65909,6.59091 l -29.65909,0 0,29.65914 c 0,17.1832 -3.05082,29.6591 -7.25279,29.6591 -5.01891,0 -6.54143,-25.9758 -4.94318,-84.33595 z m 31.9687,-4.64138 c 0,-10.25256 -3.73485,-16.47728 -9.88636,-16.47728 -6.15152,0 -9.88637,6.22472 -9.88637,16.47728 0,10.25255 3.73485,16.47727 9.88637,16.47727 6.15151,0 9.88636,-6.22472 9.88636,-16.47727 z m -1.18932,-44.48864 c -1.15838,-8.15625 -5.07204,-14.82954 -8.69704,-14.82954 -3.625,0 -7.53867,6.67329 -8.69704,14.82954 -1.44918,10.20385 1.26365,14.82955 8.69704,14.82955 7.43338,0 10.14621,-4.6257 8.69704,-14.82955 z m 1.18932,-42.29169 c 0,-19.32217 -1.17295,-19.06493 -12.52094,2.74624 -6.39402,12.28947 -5.98248,14.82954 2.40268,14.82954 6.56751,0 10.11826,-6.16777 10.11826,-17.57578 z m 10.77022,-56.33658 c -8.84668,-14.16578 -14.7382,-14.92953 -19.49731,-2.52749 -4.44753,11.59012 -1.76317,14.297 14.17798,14.297 10.51284,0 11.41832,-2.00343 5.31933,-11.76951 z m -103.31748,63.6952 c -6.98777,-8.41975 -6.64814,-12.04851 1.93061,-20.62724 13.85994,-13.85996 44.48029,-6.63718 44.48029,10.49207 0,20.59336 -31.94222,27.56885 -46.4109,10.13517 z m 33.22908,-9.55557 c 0,-3.625 -5.93182,-6.5909 -13.18182,-6.5909 -7.25,0 -13.18182,2.9659 -13.18182,6.5909 0,3.625 5.93182,6.59091 13.18182,6.59091 7.25,0 13.18182,-2.96591 13.18182,-6.59091 z m -35.66257,-48.61856 c -3.45439,-18.41342 3.90981,-56.83598 10.89338,-56.83598 1.05638,0 1.9207,17.79545 1.9207,39.54545 0,43.50877 -6.3006,52.01045 -12.81408,17.29053 z m 21.48684,7.42538 c -1.67057,-24.92563 1.7937,-54.08987 7.0788,-59.59355 2.75621,-2.87021 4.76784,12.70082 4.47027,34.60228 -0.51106,37.618 -9.41191,56.87868 -11.54907,24.99127 z"
       id="path3080"
       inkscape:connector-curvature="0" />
  </g>
</svg>
