<?xml version="1.0" encoding="UTF-8" standalone="no"?>
<!-- Created with Inkscape (http://www.inkscape.org/) -->

<svg
   xmlns:dc="http://purl.org/dc/elements/1.1/"
   xmlns:cc="http://creativecommons.org/ns#"
   xmlns:rdf="http://www.w3.org/1999/02/22-rdf-syntax-ns#"
   xmlns:svg="http://www.w3.org/2000/svg"
   xmlns="http://www.w3.org/2000/svg"
   xmlns:sodipodi="http://sodipodi.sourceforge.net/DTD/sodipodi-0.dtd"
   xmlns:inkscape="http://www.inkscape.org/namespaces/inkscape"
   width="300"
   height="300"
   id="svg2"
   version="1.1"
   inkscape:version="0.48.4 r9939"
   sodipodi:docname="image-seal.svg">
  <defs
     id="defs4" />
  <sodipodi:namedview
     id="base"
     pagecolor="#ffffff"
     bordercolor="#666666"
     borderopacity="1.0"
     inkscape:pageopacity="0.0"
     inkscape:pageshadow="2"
     inkscape:zoom="1.979899"
     inkscape:cx="130.93154"
     inkscape:cy="137.35134"
     inkscape:document-units="px"
     inkscape:current-layer="layer1"
     showgrid="false"
     inkscape:window-width="1215"
     inkscape:window-height="1000"
     inkscape:window-x="65"
     inkscape:window-y="24"
     inkscape:window-maximized="1"
     fit-margin-top="10"
     fit-margin-left="10"
     fit-margin-right="10"
     fit-margin-bottom="10" />
  <metadata
     id="metadata7">
    <rdf:RDF>
      <cc:Work
         rdf:about="">
        <dc:format>image/svg+xml</dc:format>
        <dc:type
           rdf:resource="http://purl.org/dc/dcmitype/StillImage" />
        <dc:title />
      </cc:Work>
    </rdf:RDF>
  </metadata>
  <g
     inkscape:label="Calque 1"
     inkscape:groupmode="layer"
     id="layer1"
     transform="translate(0,-752.36218)">
    <path
       style="fill:#000000"
       d="m 84.094202,1043.7224 c -0.47653,-3.3554 -0.25636,-21.0728 0.48927,-39.3721 1.5076,-36.99934 1.31681,-38.58044 -4.65541,-38.58044 -8.14011,0 -16.529393,-13.68537 -18.136017,-29.58515 -1.722317,-17.04471 -2.29012,-29.97506 -1.885803,-42.94457 0.23196,-7.44073 1.296691,-8.81202 6.842034,-8.81202 6.491718,0 6.567938,0.3014 6.621019,26.18177 0.04162,20.29343 1.025863,27.15366 4.376297,30.50315 3.81685,3.81579 4.62351,3.84554 6.89442,0.25433 1.4145,-2.2369 2.6502,-7.72747 2.74601,-12.20126 0.0958,-4.4738 0.56444,-18.04881 1.04142,-30.1667 l 0.86722,-22.03255 -8.45622,-3.72569 C 66.903093,867.10149 62.901416,855.2151 62.896557,819.94752 c -0.0033,-24.45412 0.797423,-30.89587 3.993194,-32.1222 2.198575,-0.84368 5.861081,0.3297 8.138902,2.60754 3.259479,3.25947 3.536049,5.73392 1.298637,11.61877 -3.218972,8.46654 -2.854037,35.92597 0.653362,49.16198 1.60118,6.04244 3.95918,8.81202 7.5025,8.81202 4.83628,0 5.17969,-2.52317 5.35887,-39.37377 0.1148,-23.6096 1.38643,-41.2872 3.17611,-44.15295 3.79017,-6.06901 20.024108,-16.79476 25.419698,-16.79476 7.36742,0 4.53732,10.19974 -3.86165,13.91746 -4.38171,1.93954 -9.26222,6.36966 -10.84556,9.84471 -3.23833,7.10737 -4.005778,76.58233 -0.84526,76.5178 6.54167,-0.13368 8.52213,-6.46781 10.2944,-32.92554 2.20206,-32.87348 4.62138,-39.40839 11.14613,-30.10734 4.1587,5.92824 4.41788,5.95573 11.40394,1.20911 3.93171,-2.67137 12.40823,-7.145 18.83672,-9.94142 13.04624,-5.67519 17.24263,-11.25284 14.97892,-19.90931 -1.01835,-3.89421 -0.061,-6.38964 2.88513,-7.52016 6.36706,-2.44328 12.47436,3.77854 12.47436,12.70824 0,8.70438 3.40618,11.11429 28.46961,20.1426 12.28978,4.42703 16.48024,7.29329 17.13477,11.72023 1.26372,8.54723 -7.75138,7.57729 -31.6988,-3.41052 -22.09496,-10.13784 -19.66577,-10.37744 -48.80542,4.81429 -10.41584,5.43024 -15.39729,6.76015 -17.48847,4.66897 -5.52823,-5.52821 -6.54308,-2.87419 -6.7265,17.59104 -0.30837,34.40479 -4.40233,44.55827 -17.96617,44.55827 -6.83666,0 -6.97445,0.38204 -7.09004,19.65759 -0.0648,10.81167 -0.56016,27.96326 -1.100718,38.11465 -0.93295,17.52001 -0.69069,18.41477 4.771828,17.62405 6.66956,-0.96545 8.79198,-8.55268 11.46284,-40.97756 1.46017,-17.72683 2.47423,-21.02318 6.24276,-20.29284 3.87062,0.75014 4.48993,5.03389 4.4318,30.65467 -0.0819,36.00963 -3.54062,45.6101 -16.89747,46.90069 l -8.79316,0.84965 0,34.94872 c 0,20.7469 -1.278658,37.7551 -3.146608,41.8548 -3.94202,8.6517 -12.42535,9.1537 -13.61101,0.8054 z m 30.693738,-19.0073 c -7.96216,-7.9622 -3.33129,-10.1384 21.98982,-10.3335 13.7942,-0.1063 29.35081,-0.6172 34.57024,-1.1353 52.88376,-5.2497 57.93679,-4.565 54.82599,7.4292 -1.01469,3.9124 -4.38666,4.7529 -19.21628,4.7901 -9.89214,0.024 -33.98171,0.5615 -53.53244,1.1926 -24.40334,0.7877 -36.51564,0.1786 -38.63733,-1.9431 z m 43.966,-26.21416 c -3.19855,-1.38607 -8.99415,-6.68749 -12.87911,-11.78089 -5.94475,-7.79398 -7.06353,-12.06664 -7.06353,-26.97563 0,-18.41046 4.68982,-33.83426 12.17719,-40.04823 2.88907,-2.39771 12.63454,-3.66621 28.9342,-3.7662 23.58686,-0.14479 24.83876,0.15265 31.04842,7.37173 5.62304,6.53719 6.47054,10.29071 6.47054,28.65778 0,24.88173 -3.35513,36.23444 -12.47446,42.20964 -7.83093,5.13101 -37.871,7.94676 -46.21325,4.3318 z m 34.6993,-17.31961 c 6.5382,-4.39064 9.30935,-8.48126 9.91125,-14.6304 0.80664,-8.24108 0.40158,-8.60075 -11.73485,-10.42071 -12.17244,-1.82539 -34.41252,-0.13557 -39.48623,3.00012 -3.63774,2.24826 -3.03535,14.61516 0.9027,18.53223 10.88721,10.82924 27.38193,12.26565 40.40713,3.51876 z m -1.09196,-35.92675 c 12.55418,-1.64302 15.30743,-7.19541 6.77848,-13.6698 -5.95137,-4.51775 -12.79768,-4.63648 -30.58574,-0.53052 -13.56618,3.13144 -20.08425,8.97794 -14.07001,12.62026 4.14152,2.50817 24.34578,3.35098 37.87727,1.58006 z m -40.58944,-44.39103 c -15.25874,-7.62408 -17.76086,-11.35368 -18.43833,-27.48375 -1.27715,-30.40714 -0.14533,-38.87596 6.15895,-46.08156 8.20708,-9.38057 27.79176,-14.43493 49.25646,-12.71195 29.1954,2.34353 36.82691,12.06512 36.82691,46.91287 0,17.85066 -0.70491,20.39869 -7.72126,27.90971 -4.24669,4.54608 -11.26241,9.00103 -15.5905,9.89988 -4.32809,0.89886 -12.28125,2.79892 -17.67369,4.2224 -13.9442,3.6809 -21.31116,3.08209 -32.81854,-2.6676 z m 40.96174,-14.59282 c 16.37841,-4.40352 20.19016,-11.1099 18.79228,-33.06303 -0.72603,-11.40213 -2.67531,-19.20357 -5.50537,-22.03364 -5.12811,-5.12808 -22.68283,-7.72993 -25.15589,-3.72843 -0.93635,1.51507 -7.12103,2.75467 -13.74371,2.75467 -20.10237,0 -25.65568,10.5094 -22.92373,43.38226 1.46992,17.6873 15.90624,21.46117 48.53642,12.68817 z m -25.89294,-5.49333 c -9.41927,-5.24888 -11.76099,-9.54603 -11.76099,-21.58184 0,-14.06415 2.9677,-17.25947 18.3084,-19.71254 23.6782,-3.7863 34.03854,6.73593 27.6447,28.0767 -3.0235,10.09155 -4.17514,11.04425 -16.23199,13.42819 -8.57196,1.69489 -14.66909,1.62342 -17.96012,-0.21041 z m 17.86308,-15.1278 c 3.24323,-3.24321 4.66435,-7.3524 3.75085,-10.84557 -1.98124,-7.57633 -15.10418,-7.54656 -22.18181,0.0504 -4.9167,5.27748 -4.97676,6.03605 -0.85872,10.84557 5.6507,6.59955 12.6581,6.58125 19.28968,-0.0504 z"
       id="path3063"
       inkscape:connector-curvature="0" />
  </g>
</svg>
