<?xml version="1.0" encoding="UTF-8" standalone="no"?>
<svg
   xmlns:dc="http://purl.org/dc/elements/1.1/"
   xmlns:cc="http://creativecommons.org/ns#"
   xmlns:rdf="http://www.w3.org/1999/02/22-rdf-syntax-ns#"
   xmlns:svg="http://www.w3.org/2000/svg"
   xmlns="http://www.w3.org/2000/svg"
   viewBox="0 0 300 300"
   height="300"
   width="300"
   id="svg463"
   version="1.1">
  <metadata
     id="metadata469">
    <rdf:RDF>
      <cc:Work
         rdf:about="">
        <dc:format>image/svg+xml</dc:format>
        <dc:type
           rdf:resource="http://purl.org/dc/dcmitype/StillImage" />
        <dc:title></dc:title>
      </cc:Work>
    </rdf:RDF>
  </metadata>
  <defs
     id="defs467" />
  <path
     id="path473"
     d="m 140.73614,281.72286 c -0.96584,-2.59921 -1.30038,-6.3698 -1.61718,-18.22722 -0.2197,-8.22252 -0.61448,-15.16434 -0.87731,-15.42623 -0.26283,-0.26189 -2.74655,-0.88808 -5.5194,-1.39152 -2.77284,-0.50345 -9.48309,-1.71498 -14.91168,-2.6923 -10.66817,-1.92059 -14.90215,-3.59716 -19.441946,-7.69859 -5.353355,-4.83643 -9.950578,-13.69781 -12.086081,-23.29652 -1.311346,-5.89423 -1.238069,-18.44069 0.115609,-19.79437 1.359681,-1.35968 6.076369,-1.60238 7.302964,-0.37577 2.156731,2.15672 3.987862,8.69557 4.613037,16.47277 0.532456,6.62388 0.920096,8.23505 2.916637,12.1227 1.79775,3.50055 3.12643,5.04802 6.0603,7.05823 4.82904,3.30873 7.25011,3.99615 18.24698,5.18088 4.97305,0.53576 9.74045,1.13671 10.59423,1.33545 1.52464,0.3549 1.55453,0.23805 1.67553,-6.55104 0.0677,-3.80182 0.14538,-7.60723 0.17249,-8.45649 0.0455,-1.42767 -0.61446,-1.68455 -8.75319,-3.40686 -5.55071,-1.17464 -9.58755,-2.42179 -10.92767,-3.37605 -2.90075,-2.06551 -5.81669,-6.24675 -7.50696,-10.76439 -1.73156,-4.62799 -3.17414,-15.52855 -2.5155,-19.00779 0.43173,-2.2806 0.79977,-2.65254 3.28781,-3.3225 1.54092,-0.41492 2.88752,-0.65638 2.99246,-0.53657 0.887,1.01268 4.73024,11.09487 6.13187,16.08609 2.28103,8.1227 4.40306,9.84532 13.69733,11.11924 l 3.08953,0.42347 0.68871,-9.56594 c 1.02904,-14.2929 3.74444,-19.71874 13.66338,-27.30175 6.97949,-5.3358 11.27981,-7.57891 13.56676,-7.07661 3.03292,0.66614 4.35086,3.1106 3.33561,6.18679 -0.63227,1.91581 -2.04125,3.32879 -6.28378,6.30161 -5.29887,3.71301 -8.47058,7.35082 -10.14347,11.63409 -1.02822,2.63264 -2.16853,10.64619 -2.18626,15.36397 -0.0128,3.417 0.0795,3.61413 1.53866,3.28347 0.85378,-0.19348 3.54618,-0.65645 5.98313,-1.02883 2.43694,-0.37237 4.64966,-0.91853 4.91715,-1.21369 0.85517,-0.94363 2.67181,-7.25934 3.77843,-13.13606 1.27369,-6.76396 3.0012,-9.98782 6.15353,-11.48369 3.2684,-1.55096 3.53843,-1.45249 5.15087,1.87837 2.64354,5.46085 1.57982,13.4495 -3.29853,24.77219 -2.54429,5.90533 -7.55136,9.2729 -15.21889,10.23566 -8.32413,1.04523 -8.0499,0.73747 -8.61503,9.66843 -0.55337,8.74524 -0.64024,8.56813 4.55259,9.28233 5.49449,0.75568 13.64168,-1.36897 22.69783,-5.91924 3.43513,-1.72598 4.04143,-2.36862 5.61423,-5.95065 1.9506,-4.44253 3.86836,-10.28579 5.97764,-18.21348 0.76516,-2.8758 2.04998,-6.98947 2.85515,-9.1415 1.42471,-3.80787 1.53381,-3.91277 4.0693,-3.91277 2.39513,0 2.71123,0.23499 3.91751,2.91221 1.86437,4.13782 1.73073,12.40696 -0.30973,19.16538 -3.75719,12.44456 -4.58228,13.96209 -10.87674,20.00504 -8.39255,8.05719 -11.89132,9.56712 -24.21525,10.4504 -5.2311,0.37491 -10.52011,0.83061 -11.75335,1.01264 l -2.24225,0.33098 -0.0442,5.6606 c -0.0243,3.11335 -0.008,8.46692 0.0374,11.89684 0.0932,7.11973 -1.04255,17.46546 -2.19502,19.99484 -0.65163,1.43017 -1.26013,1.71089 -3.70859,1.71089 -2.86346,0 -2.95634,-0.0734 -4.14681,-3.27714 z m 86.63864,-10.97751 c -2.45147,-3.86558 -3.21568,-7.50413 -4.10647,-19.55166 -0.6176,-8.35299 -7.81906,-65.47662 -10.91564,-86.58553 l -1.21452,-8.2791 -2.74797,-0.23157 c -1.51139,-0.12737 -10.636,0.29602 -20.2769,0.94087 -18.18057,1.21604 -25.21098,1.01872 -29.85091,-0.83781 -2.48066,-0.99256 -2.63969,-1.2331 -2.63969,-3.99222 0,-2.82121 0.11465,-2.97913 2.93217,-4.03872 5.64406,-2.12259 9.63421,-2.54879 23.47727,-2.50775 7.67313,0.0228 15.50347,-0.28712 17.40076,-0.68861 6.73556,-1.4253 7.24421,-1.57476 7.24421,-2.12858 0,-0.30795 -1.75308,-1.21583 -3.89573,-2.01751 -3.45335,-1.29205 -5.62748,-1.48116 -19.14541,-1.66522 -9.17511,-0.12494 -15.99447,-0.51499 -17.11941,-0.97918 -4.14827,-1.71172 -5.98452,-5.6374 -3.70376,-7.91817 2.58016,-2.58016 25.55982,-3.60019 36.6201,-1.62551 8.87722,1.58493 13.31466,3.55439 17.12379,7.60003 l 3.32529,3.53176 1.66939,-2.06977 c 3.2698,-4.05407 4.8848,-12.42597 2.8913,-14.98815 -0.47432,-0.60963 -2.41473,-1.66338 -4.31203,-2.34166 -2.90517,-1.0386 -6.6619,-1.29282 -23.80239,-1.61067 -16.45484,-0.30513 -20.65156,-0.57528 -21.91282,-1.41059 -1.93988,-1.28474 -2.4874,-2.9221 -1.9446,-5.81544 0.38049,-2.02818 0.78319,-2.34495 4.18469,-3.29172 3.3969,-0.94547 5.83311,-0.92727 24.99925,0.18672 27.14439,1.57771 30.31045,2.37906 33.2304,8.41087 1.97736,4.08468 1.88402,9.326 -0.33105,18.58982 l -1.78975,7.48506 -5.80316,4.84703 c -4.70917,3.93328 -5.73961,5.13262 -5.46606,6.3619 0.1854,0.83318 2.83262,19.5219 5.88269,41.5305 3.05007,22.00859 6.15165,43.27552 6.89239,47.25983 2.06362,11.09974 2.95061,19.11534 2.46999,22.32043 -0.59451,3.96441 -2.59442,7.01556 -5.19194,7.92107 -2.10433,0.73357 -2.22281,0.66513 -4.17348,-2.41075 z M 99.42569,162.43261 c -2.638686,-0.56549 -6.956801,-1.85965 -9.595829,-2.87592 -4.600025,-1.77145 -4.870622,-2.00453 -6.550593,-5.64236 -2.068419,-4.47899 -2.434138,-12.03957 -0.846895,-17.50821 0.810072,-2.79104 1.515913,-3.70696 4.139544,-5.37167 4.064777,-2.57913 11.00357,-4.71711 15.309313,-4.71711 2.84965,0 3.37694,-0.20329 3.37694,-1.30195 0,-1.23007 -0.98085,-1.32799 -17.765558,-1.77352 -17.863483,-0.47415 -21.867064,-0.98565 -23.457441,-2.99688 -1.505702,-1.90417 -1.063952,-5.36561 0.844331,-6.61597 4.041526,-2.64811 8.802275,-3.17874 24.328565,-2.71164 16.060703,0.48319 16.017193,0.49212 16.039543,-3.2923 0.0102,-1.71514 -0.38161,-1.89587 -9.4759,-4.37187 -5.217553,-1.42053 -10.781023,-3.1924 -12.363241,-3.9375 -3.040298,-1.43174 -5.892555,-4.63561 -7.440105,-8.357277 -2.354023,-5.661135 -1.872771,-15.0413 1.130827,-22.041079 2.407705,-5.611104 10.309896,-9.854312 21.99559,-11.81089 5.016679,-0.839961 5.084849,-0.879638 5.567699,-3.240466 0.31995,-1.564356 0.20934,-2.56787 -0.32015,-2.904666 -0.44493,-0.283015 -6.174483,-0.519326 -12.732332,-0.525137 -12.874137,-0.01141 -15.706876,-0.585356 -17.644717,-3.575042 -0.573942,-0.885476 -1.141408,-2.541355 -1.261035,-3.679731 -0.194214,-1.848253 0.119409,-2.237078 2.930331,-3.632978 3.619417,-1.797391 7.742368,-2.101281 16.948059,-1.249191 7.895184,0.730789 11.144914,0.194141 11.970274,-1.97673 0.33671,-0.885631 0.94848,-4.625885 1.35946,-8.311677 0.411,-3.685792 1.38906,-8.193355 2.1735,-10.016806 1.39152,-3.234683 1.4794,-3.300444 3.6113,-2.702159 1.20178,0.337264 2.89348,1.42363 3.75933,2.414147 1.48338,1.696974 1.56304,2.292661 1.37984,10.318528 -0.14323,6.275322 0.0414,8.755803 0.70129,9.42249 1.01048,1.020859 9.49731,1.132274 21.52685,0.282602 6.63602,-0.468716 7.43321,-0.392065 9.49537,0.912998 2.52036,1.595028 4.7272,5.543156 4.06419,7.270954 -0.23908,0.623033 -1.91307,1.8155 -3.71998,2.649928 -2.92876,1.352494 -4.14633,1.486514 -11.21943,1.234935 -11.93538,-0.424526 -19.16684,-0.447778 -19.51715,-0.06275 -0.17262,0.189729 -0.51811,1.754427 -0.76776,3.477106 l -0.45389,3.132143 10.83668,1.846647 c 12.21364,2.081295 13.75921,2.82244 18.194,8.724583 7.45977,9.92803 6.0033,25.495802 -2.95241,31.557268 -4.71226,3.18938 -10.09534,5.00901 -18.59701,6.28624 l -7.4402,1.11777 v 2.28581 2.2858 l 5.00195,0.0582 c 2.75108,0.032 10.90082,0.27419 18.11053,0.53816 11.0135,0.40323 13.54702,0.69716 15.85192,1.83909 2.82512,1.39964 3.8176,3.32994 3.25601,6.33268 -0.19913,1.06478 -1.24972,1.89621 -3.48715,2.7597 -2.83274,1.09322 -5.21271,1.21184 -20.63096,1.02829 -15.4344,-0.18373 -17.47711,-0.0816 -17.85079,0.89217 -0.23208,0.6048 -0.252,1.26962 -0.0443,1.47737 0.20775,0.20774 4.35977,1.22128 9.22672,2.25229 4.86696,1.03102 9.68755,2.4257 10.71242,3.09929 2.36588,1.55496 4.6214,6.1843 5.1379,10.54523 0.39859,3.36553 -0.63443,10.09511 -2.01469,13.12443 -1.28586,2.82216 -9.57678,6.79121 -17.6117,8.43111 -5.10767,1.04246 -17.49624,0.83199 -23.219128,-0.39447 z M 126.9908,151.0719 c 2.74643,-0.94775 2.76069,-0.97131 2.96607,-4.90134 0.39422,-7.54341 -1.77709,-8.81443 -15.05791,-8.81443 -7.93523,0 -15.296038,0.6383 -20.598988,1.78626 -1.611804,0.34892 -1.634789,0.4606 -1.166283,5.66664 0.262856,2.92089 0.710305,5.54604 0.994304,5.83368 1.846698,1.87024 27.708177,2.208 32.862807,0.42919 z M 104.9259,90.498999 c -0.74141,-3.375574 -3.28761,-4.888482 -8.212353,-4.879617 -2.320438,0.0042 -5.370841,0.198016 -6.778667,0.430761 l -2.559672,0.423173 1.278587,2.501418 1.278596,2.501411 7.490407,0.713803 c 4.119732,0.392588 7.597572,0.64764 7.728552,0.566773 0.13097,-0.08086 0.0295,-1.096835 -0.22545,-2.257722 z m 25.92902,1.916755 c 1.28986,-0.431865 3.39839,-1.567985 4.68561,-2.524711 2.19821,-1.633816 2.26355,-1.795694 1.0755,-2.664419 -0.90165,-0.659292 -3.80277,-0.924913 -10.10205,-0.924913 h -8.83716 v 3.449623 3.449626 h 5.41645 c 2.97903,0 6.47178,-0.353348 7.76165,-0.785206 z M 102.60446,74.572992 c 2.63212,0 2.65371,-0.02225 2.65371,-2.735424 0,-3.718636 -1.30494,-4.346826 -6.989132,-3.364504 -6.264828,1.082665 -10.948909,3.634655 -10.948909,5.965207 0,0.872615 0.971565,0.962305 6.315309,0.582995 3.473424,-0.246551 7.509492,-0.448274 8.969022,-0.448274 z m 31.90996,0.0036 3.38407,-0.0036 -1.3143,-1.453263 c -1.8987,-2.099455 -5.71059,-3.876706 -9.26462,-4.31952 -1.69866,-0.211644 -4.56319,-0.570704 -6.36561,-0.797909 l -3.27714,-0.413101 v 3.940915 3.940916 l 6.72677,-0.445449 c 3.69971,-0.244998 8.24958,-0.447057 10.11083,-0.449019 z m 70.43786,27.137878 c -11.28079,-0.91385 -21.64849,-2.66963 -25.61031,-4.33711 -0.80463,-0.33866 -2.27934,-2.25401 -3.27715,-4.25634 -3.7648,-7.554991 -1.73726,-18.593884 4.2531,-23.155747 4.62247,-3.520162 8.57682,-4.36257 24.46188,-5.211181 l 14.31594,-0.764786 V 59.62222 55.255124 l -7.76165,-0.0614 c -4.26891,-0.03377 -14.90237,-0.285505 -23.62993,-0.559403 -8.72754,-0.273897 -15.96301,-0.4361 -16.07883,-0.360451 -0.11582,0.07565 -0.7759,2.888725 -1.46684,6.25128 -0.69095,3.362556 -1.73599,7.257364 -2.3223,8.655131 -1.20794,2.879724 -4.41514,4.900079 -7.25737,4.571739 -1.51735,-0.175286 -2.02579,-0.764964 -2.81735,-3.267429 -0.89187,-2.819612 -0.81925,-3.718138 0.948,-11.728718 1.66998,-7.569706 1.90284,-10.029778 1.82733,-19.305394 -0.0902,-11.089256 0.73961,-15.900991 3.33614,-19.343285 1.1083,-1.469308 1.27535,-1.492293 3.64617,-0.501701 4.31369,1.802375 4.8005,3.270975 4.54318,13.705705 l -0.22639,9.180327 22.76752,0.428522 c 18.09368,0.340555 23.60328,0.662997 26.8388,1.570712 6.67431,1.872455 7.4862,2.789748 8.71386,9.84525 0.93987,5.401448 0.94553,6.696599 0.0499,11.402944 l -1.01047,5.309389 -3.84249,1.362002 c -6.86534,2.433482 -10.5917,2.988506 -19.67665,2.930747 -9.98214,-0.06346 -13.16662,0.540146 -16.16638,3.06428 -2.39394,2.014367 -4.803,7.58982 -3.73913,8.653697 2.07869,2.078688 8.46542,2.854868 27.11562,3.295364 20.16858,0.476358 21.56429,0.716707 22.78347,3.923388 1.02212,2.6884 -0.19422,4.76077 -3.34901,5.70597 -6.00973,1.80056 -17.52064,2.52847 -27.36859,1.73069 z"
     style="fill:#000000;stroke-width:0.68992466" />
</svg>
