<?xml version="1.0" encoding="UTF-8" standalone="no"?>
<!-- Created with Inkscape (http://www.inkscape.org/) -->

<svg
   xmlns:dc="http://purl.org/dc/elements/1.1/"
   xmlns:cc="http://creativecommons.org/ns#"
   xmlns:rdf="http://www.w3.org/1999/02/22-rdf-syntax-ns#"
   xmlns:svg="http://www.w3.org/2000/svg"
   xmlns="http://www.w3.org/2000/svg"
   xmlns:sodipodi="http://sodipodi.sourceforge.net/DTD/sodipodi-0.dtd"
   xmlns:inkscape="http://www.inkscape.org/namespaces/inkscape"
   width="300"
   height="300"
   id="svg2"
   version="1.1"
   inkscape:version="0.48.4 r9939"
   sodipodi:docname="image-seal.svg">
  <defs
     id="defs4" />
  <sodipodi:namedview
     id="base"
     pagecolor="#ffffff"
     bordercolor="#666666"
     borderopacity="1.0"
     inkscape:pageopacity="0.0"
     inkscape:pageshadow="2"
     inkscape:zoom="2.0018437"
     inkscape:cx="145.03351"
     inkscape:cy="130.6666"
     inkscape:document-units="px"
     inkscape:current-layer="layer1"
     showgrid="false"
     inkscape:window-width="1215"
     inkscape:window-height="1000"
     inkscape:window-x="65"
     inkscape:window-y="24"
     inkscape:window-maximized="1"
     fit-margin-top="10"
     fit-margin-left="10"
     fit-margin-right="10"
     fit-margin-bottom="10" />
  <metadata
     id="metadata7">
    <rdf:RDF>
      <cc:Work
         rdf:about="">
        <dc:format>image/svg+xml</dc:format>
        <dc:type
           rdf:resource="http://purl.org/dc/dcmitype/StillImage" />
        <dc:title />
      </cc:Work>
    </rdf:RDF>
  </metadata>
  <g
     inkscape:label="Calque 1"
     inkscape:groupmode="layer"
     id="layer1"
     transform="translate(0,-752.36218)">
    <path
       style="fill:#000000"
       d="m 129.57448,1043.8449 c 0,-26.8208 13.77878,-83.6351 22.08502,-91.06332 2.68162,-2.39815 4.87568,-5.44282 4.87568,-6.76578 0,-1.32297 2.42646,-3.92063 5.39214,-5.77256 8.33943,-5.20827 6.42948,-10.20462 -5.39214,-14.10611 -8.93796,-2.94977 -10.78428,-4.77042 -10.78428,-10.63464 0,-5.00229 2.36971,-8.4751 8.08821,-11.85301 4.44851,-2.62785 8.08821,-5.80382 8.08821,-7.05777 0,-1.25394 3.63969,-3.54883 8.08821,-5.09961 5.99385,-2.08946 8.08821,-4.51565 8.08821,-9.36992 0,-6.80381 5.91288,-13.8791 9.01029,-10.78186 0.97568,0.97571 1.789,5.51481 1.80736,10.08681 0.027,6.50858 2.06616,9.62982 9.39842,14.37922 5.15079,3.33638 10.22563,6.06616 11.27742,6.06616 3.08851,0 17.03576,14.22284 17.03576,17.37239 0,2.8856 -17.87451,9.5883 -25.5702,9.5883 -2.2476,0 -4.08656,1.01912 -4.08656,2.26443 0,2.01451 5.24431,3.92332 29.63056,10.7859 3.6927,1.03933 7.15167,4.16219 7.68663,6.93995 0.86962,4.51538 -0.23995,4.8567 -10.47426,3.22019 -6.29578,-1.00671 -14.80086,-4.21881 -18.90018,-7.13758 -8.05243,-5.734 -17.32872,-4.47116 -14.83787,2.0199 0.82664,2.15416 1.50298,6.41098 1.50298,9.45943 0,5.09827 1.1355,5.41101 14.15436,3.89744 15.61497,-1.81527 25.37911,1.54026 18.19847,6.25409 -2.22425,1.4599 -9.6584,2.6731 -16.52033,2.6961 -14.26299,0.046 -21.20585,5.247 -14.46983,10.8376 2.77445,2.3025 8.56541,2.8977 17.68528,1.8177 10.81272,-1.2806 13.88689,-0.7544 15.17334,2.5982 2.29972,5.9931 -3.92992,8.9634 -18.89796,9.0111 -12.56709,0.04 -12.95794,0.2801 -12.13232,7.45545 0.83972,7.298 1.18029,7.4266 21.74763,8.2015 20.59814,0.7764 26.59285,3.7809 14.92944,7.4826 -3.28083,1.0415 -23.60245,2.6398 -45.15917,3.5518 l -39.19407,1.6587 -0.89431,9.4254 c -0.49184,5.184 -2.15694,10.9469 -3.70019,12.8064 -3.73255,4.4973 -12.92995,4.3304 -12.92995,-0.2346 z m 38.93133,-32.929 c 10.85605,-2.0366 13.05197,-4.1765 10.66627,-10.3936 -1.69087,-4.40625 -20.19739,-6.08885 -29.15656,-2.65085 -8.96457,3.43995 -3.53132,18.65395 5.65419,15.83245 1.74824,-0.537 7.52449,-1.7915 12.8361,-2.788 z m 7.7292,-27.18745 c 2.7247,-0.8024 4.49572,-3.4122 4.01884,-5.9225 -0.64112,-3.3747 -4.3569,-4.6898 -14.98171,-5.3026 l -14.1291,-0.8148 0,8.529 c 0,8.3773 0.18037,8.4973 10.11026,6.7375 5.56064,-0.9857 12.30241,-2.4375 14.98171,-3.2266 z m 1.70348,-21.09219 c 4.26276,-2.6346 3.62603,-20.32271 -0.73157,-20.32271 -4.41768,0 -21.08901,20.25261 -18.66592,22.6756 1.95465,1.9546 14.98505,0.3739 19.39749,-2.35289 z m 1.29277,-38.13564 c 2.34555,-0.90022 4.26462,-3.9333 4.26462,-6.74018 0,-2.80714 1.81984,-5.10366 4.0441,-5.10366 2.24672,0 4.04411,2.39654 4.04411,5.39214 0,6.33523 6.00468,7.10711 10.75578,1.38228 4.91747,-5.92515 1.64989,-11.22994 -10.84349,-17.60345 -12.11099,-6.17858 -13.96545,-5.68278 -29.32728,7.83909 -7.27394,6.4029 -7.25838,6.45197 3.87479,12.25742 9.39583,4.89929 7.89709,4.6065 13.18737,2.57636 z m -86.634075,71.97753 c 1.57696,-48.68025 1.98372,-46.60131 -11.2511,-57.50826 -5.9453,-4.89984 -6.17956,-6.56871 -6.34267,-45.18559 -0.0652,-15.48057 0.79076,-20.22053 3.65223,-20.22053 2.96209,0 3.55474,4.75506 2.8563,22.9166 -0.9371,24.36654 2.68739,34.82297 10.96896,31.64512 3.33792,-1.28091 4.20927,-7.50964 4.5562,-32.57042 0.40028,-28.91346 0.0647,-31.10213 -5.01504,-32.71465 -2.99423,-0.95009 -7.90216,-4.85265 -10.9065,-8.67217 -4.63694,-5.89496 -5.46248,-10.91397 -5.46248,-33.21135 0,-18.50545 1.0546,-27.14225 3.56903,-29.22904 7.19115,-5.96813 9.58744,1.89642 8.00765,26.28083 -1.27122,19.62132 -0.80469,23.87977 2.95846,27.00289 2.45719,2.03931 4.88026,3.23178 5.38459,2.6497 0.5043,-0.58208 1.67852,-16.11845 2.60936,-34.52547 1.851625,-36.61462 4.030435,-42.61367 18.732455,-51.577 9.59159,-5.84769 13.59436,-5.61098 14.85318,0.87838 0.50414,2.59882 -3.03628,6.86134 -8.77179,10.56086 -12.19082,7.86333 -14.95562,17.34616 -14.97505,51.36245 -0.0135,23.95215 0.4359,26.28668 5.06278,26.28668 6.23329,0 7.71578,-6.02572 10.11544,-41.11512 0.98873,-14.45768 2.67909,-26.28668 3.75638,-26.28668 4.94877,0 7.80378,8.42303 8.54908,25.22211 0.80313,18.1019 0.85584,18.21486 6.20214,13.28645 14.79167,-13.63586 25.44613,-19.99721 29.59964,-17.6728 3.65771,2.04697 3.19574,3.33785 -3.2294,9.02367 -15.03181,13.302 -24.98022,19.04652 -30.14614,17.40704 -4.42665,-1.40519 -5.37887,0.19951 -6.96535,11.7341 -1.88541,13.70871 -6.37132,19.88729 -16.72763,23.03981 -5.53492,1.68477 -5.95233,3.64158 -6.74017,31.60063 -0.88377,31.36338 0.11458,36.4053 6.70755,33.87531 4.91847,-1.88725 8.11169,-19.02589 7.75058,-41.59874 -0.26718,-16.70215 2.73363,-22.91066 8.35615,-17.28828 4.51155,4.51161 4.98198,12.55102 2.08595,35.64717 -3.09391,24.67443 -6.40287,31.0749 -18.29327,35.38376 l -8.7296,3.16357 0.0499,39.23727 c 0.0545,42.84305 -1.96678,54.91655 -9.434515,56.35545 -4.61187,0.8883 -4.80323,-1.6597 -3.39327,-45.18375 z M 224.94752,896.905 c -1.39948,-0.97517 -5.23248,-5.27271 -8.51772,-9.55056 -10.52659,-13.70682 -7.09999,-29.14425 10.80393,-48.67404 5.55836,-6.06292 6.62977,-33.8787 1.95357,-50.7169 -2.80593,-10.10366 -2.81736,-10.11026 -17.50941,-10.11026 -15.66319,0 -19.27768,-3.7858 -7.78598,-8.15494 9.39031,-3.57019 23.17089,-3.1682 28.33446,0.82648 7.01439,5.4266 10.58304,20.32699 10.58304,44.18797 l 0,22.57459 -10.78428,11.6996 c -12.54368,13.60814 -13.40666,20.62979 -4.0441,32.90472 3.7071,4.86021 6.74017,10.00107 6.74017,11.42433 0,3.42401 -6.555,5.83106 -9.77368,3.58901 z M 145.7509,884.47477 c 0,-6.11253 23.29792,-42.3372 30.6634,-47.67676 2.53638,-1.83899 3.16969,-11.37284 2.25898,-34.00613 -0.481,-11.95375 -1.37294,-14.15436 -5.73702,-14.15436 -2.84209,0 -5.57186,0.98053 -6.06616,2.17899 -1.79399,4.34978 -26.21558,19.3532 -27.67038,16.99931 -0.82206,-1.3301 4.76824,-8.61583 12.42287,-16.19049 l 13.91749,-13.77209 -9.89458,0 c -8.09721,0 -9.8946,-0.97951 -9.8946,-5.39214 0,-4.82559 1.79739,-5.39214 17.10659,-5.39214 25.27557,0 27.47894,3.30034 27.01643,40.46712 -0.34801,27.9662 -0.69351,29.58222 -8.86393,41.4576 -4.67601,6.79625 -10.61707,13.48898 -13.20238,14.8726 -2.58532,1.38362 -6.4057,6.86123 -8.48971,12.17275 -2.40732,6.13518 -5.57205,9.65706 -8.67808,9.65706 -2.6889,0 -4.88892,-0.54946 -4.88892,-1.22132 z m 29.65677,-103.92546 c 0,-1.48284 -1.89146,-2.69607 -4.20323,-2.69607 -2.31177,0 -3.4534,1.21323 -2.53695,2.69607 0.91645,1.48284 2.80791,2.69607 4.20323,2.69607 1.39532,0 2.53695,-1.21323 2.53695,-2.69607 z m 18.90123,72.11992 c 0.034,-7.16669 21.69012,-31.67887 27.98765,-31.67887 2.38506,0 4.3286,1.51659 4.319,3.37014 -0.0162,3.27869 -27.94223,34.37489 -30.8697,34.37489 -0.80613,0 -1.45275,-2.72977 -1.43695,-6.06616 z m -55.61114,0.16716 c -2.65579,-4.29727 22.91778,-26.32847 30.64375,-26.39911 8.63869,-0.0782 7.54347,3.27357 -4.0441,12.37873 -17.7821,13.97293 -24.45519,17.48995 -26.59965,14.02038 z m 55.65875,-24.43233 c 0.11512,-5.08398 23.26689,-28.9828 28.07687,-28.9828 6.15734,0 5.33908,1.92216 -6.58466,15.46827 -5.93136,6.7385 -10.78428,13.29399 -10.78428,14.56816 0,1.27389 -2.42647,2.31646 -5.39214,2.31646 -2.96568,0 -5.3578,-1.51654 -5.31579,-3.37009 z m -0.0763,-22.23955 c 0,-2.22256 4.90038,-9.0905 10.88972,-15.26213 7.83516,-8.0736 11.71108,-10.39979 13.81787,-8.29301 2.10677,2.10677 -0.3146,6.38783 -8.63227,15.26213 -12.14658,12.95947 -16.07532,14.98624 -16.07532,8.29301 z"
       id="path3080"
       inkscape:connector-curvature="0" />
  </g>
</svg>
