<?xml version="1.0" standalone="no"?>
<!DOCTYPE svg PUBLIC "-//W3C//DTD SVG 20010904//EN"
 "http://www.w3.org/TR/2001/REC-SVG-20010904/DTD/svg10.dtd">
<svg version="1.0" xmlns="http://www.w3.org/2000/svg"
 width="115.000000pt" height="115.000000pt" viewBox="0 0 115.000000 115.000000"
 preserveAspectRatio="xMidYMid meet">
<metadata>
Created by potrace 1.13, written by Peter Selinger 2001-2015
</metadata>
<g transform="translate(0.000000,115.000000) scale(0.100000,-0.100000)"
fill="#000000" stroke="none">
<path d="M678 963 l-3 -128 -45 -5 c-49 -6 -64 -27 -31 -47 14 -9 29 -9 53 -3
47 14 130 12 151 -4 14 -11 17 -26 15 -81 -1 -36 -6 -69 -10 -71 -4 -3 -8 -16
-8 -30 0 -28 -16 -64 -29 -64 -4 0 -13 31 -20 69 -8 44 -18 72 -28 75 -8 3
-44 6 -80 6 -61 0 -64 -1 -61 -22 3 -21 9 -23 58 -23 l55 0 6 -52 c4 -29 9
-59 12 -66 3 -7 0 -20 -7 -28 -11 -15 -98 -39 -142 -39 -21 0 -25 -4 -22 -23
3 -19 8 -22 48 -20 25 2 62 8 83 14 20 7 39 10 41 8 6 -6 16 -67 26 -164 24
-225 31 -255 62 -255 23 0 23 -4 -3 215 -6 44 -12 115 -15 159 -5 76 -5 79 24
107 30 29 44 75 58 194 8 71 6 116 -7 130 -6 6 -38 12 -72 15 l-62 5 3 45 c2
25 8 49 13 54 5 5 35 10 66 11 76 3 73 2 73 25 0 18 -7 20 -73 20 l-73 0 0 48
c1 44 -1 47 -26 50 l-27 3 -3 -128z"/>
<path d="M370 1038 c-87 -14 -101 -34 -110 -159 -4 -57 -7 -161 -6 -230 1
-122 2 -126 29 -159 l29 -34 -7 -125 c-4 -69 -11 -142 -16 -161 -12 -46 -12
-97 1 -105 18 -11 38 51 44 135 16 217 33 270 75 243 13 -9 16 -36 16 -194 0
-163 2 -184 17 -187 10 -2 19 6 24 20 9 25 8 272 -1 329 -5 31 -2 42 22 70 46
54 52 89 55 300 3 185 2 198 -17 219 -35 39 -82 50 -155 38z m58 -59 c45 -11
51 -15 61 -49 27 -89 13 -102 -105 -96 l-88 4 3 47 c3 54 15 79 46 94 26 13
26 13 83 0z m56 -189 c5 -5 4 -25 -1 -47 l-9 -38 -79 -1 c-44 -1 -85 0 -91 3
-18 7 -16 81 3 91 18 10 164 3 177 -8z m-6 -174 c2 -26 -3 -60 -10 -76 -23
-53 -94 -66 -141 -26 -22 19 -28 35 -33 84 -8 71 -8 71 106 68 l75 -3 3 -47z"/>
</g>
</svg>
