<?xml version="1.0" encoding="UTF-8" standalone="no"?>
<!-- Created with Inkscape (http://www.inkscape.org/) -->

<svg
   xmlns:dc="http://purl.org/dc/elements/1.1/"
   xmlns:cc="http://creativecommons.org/ns#"
   xmlns:rdf="http://www.w3.org/1999/02/22-rdf-syntax-ns#"
   xmlns:svg="http://www.w3.org/2000/svg"
   xmlns="http://www.w3.org/2000/svg"
   xmlns:sodipodi="http://sodipodi.sourceforge.net/DTD/sodipodi-0.dtd"
   xmlns:inkscape="http://www.inkscape.org/namespaces/inkscape"
   width="300"
   height="300"
   id="svg2"
   version="1.1"
   inkscape:version="0.48.4 r9939"
   sodipodi:docname="image-seal.svg">
  <defs
     id="defs4" />
  <sodipodi:namedview
     id="base"
     pagecolor="#ffffff"
     bordercolor="#666666"
     borderopacity="1.0"
     inkscape:pageopacity="0.0"
     inkscape:pageshadow="2"
     inkscape:zoom="1.979899"
     inkscape:cx="169.25456"
     inkscape:cy="173.0828"
     inkscape:document-units="px"
     inkscape:current-layer="layer1"
     showgrid="false"
     inkscape:window-width="1215"
     inkscape:window-height="1000"
     inkscape:window-x="65"
     inkscape:window-y="24"
     inkscape:window-maximized="1"
     fit-margin-top="10"
     fit-margin-left="10"
     fit-margin-right="10"
     fit-margin-bottom="10" />
  <metadata
     id="metadata7">
    <rdf:RDF>
      <cc:Work
         rdf:about="">
        <dc:format>image/svg+xml</dc:format>
        <dc:type
           rdf:resource="http://purl.org/dc/dcmitype/StillImage" />
        <dc:title />
      </cc:Work>
    </rdf:RDF>
  </metadata>
  <g
     inkscape:label="Calque 1"
     inkscape:groupmode="layer"
     id="layer1"
     transform="translate(0,-752.36218)">
    <path
       style="fill:#000000"
       d="m 219.69158,1035.7353 c -2.92435,-4.1068 -5.31698,-9.0816 -5.31698,-11.0551 0,-1.9734 -0.95575,-4.6871 -2.12392,-6.0304 -1.16813,-1.3434 -3.61617,-7.6486 -5.44005,-14.0117 -1.82389,-6.36318 -4.2151,-14.46168 -5.31377,-17.99673 -1.09867,-3.53507 -3.46314,-13.07972 -5.25436,-21.21035 -1.7912,-8.13063 -3.43312,-14.78297 -3.6487,-14.78297 -0.21557,0 -4.96823,2.21102 -10.56146,4.91337 -13.25242,6.40288 -27.09102,8.73278 -31.93151,5.37607 -3.34595,-2.32031 -3.19583,-3.17832 1.13413,-6.48186 2.74479,-2.09416 6.86598,-3.80758 9.15816,-3.80758 5.3481,0 26.39085,-10.07101 28.90998,-13.83624 2.40519,-3.59493 -0.39999,-24.9011 -3.84807,-29.22718 -1.42,-1.78163 -8.14949,-3.21369 -15.10139,-3.21369 -10.82598,0 -12.53996,-0.70279 -12.53996,-5.14191 0,-5.25307 3.90967,-6.17709 24.34513,-5.75392 8.83627,0.18306 16.79009,8.46697 16.79009,17.48705 0,8.17959 5.39223,19.4493 8.79862,18.38901 6.24711,-1.94451 11.76104,-18.74516 11.76499,-35.84752 0.005,-23.01823 -4.29646,-26.30324 -31.38823,-23.96923 -11.05773,0.95265 -20.31356,0.56335 -22.57625,-0.94953 -4.81481,-3.21926 -1.18581,-7.15678 7.69137,-8.34515 l 6.42737,-0.86045 -0.86978,-35.26678 c -0.77868,-31.57362 1.83725,-53.43102 6.3947,-53.43102 4.93558,0 8.50238,9.15055 8.91401,22.86879 l 0.47095,15.69547 9.25623,0.43974 c 8.72496,0.41452 15.35935,0.92978 22.75373,1.76724 1.76753,0.20028 3.2137,2.67783 3.2137,5.50587 0,4.55869 -1.71398,5.14191 -15.1109,5.14191 -18.69352,0 -21.42218,2.81171 -20.38127,21.00163 l 0.78433,13.7062 12.33861,0.78877 c 17.92007,1.14559 22.41079,9.31752 22.17172,40.34644 -0.1941,25.20422 -4.13365,36.02134 -15.13022,41.54545 -3.26398,1.63965 -6.7351,4.27657 -7.7136,5.85983 -2.12478,3.43796 7.55667,43.45036 14.03464,58.00377 2.51763,5.6561 5.86146,13.1761 7.43074,16.7111 1.56929,3.5351 3.78198,7.1107 4.91711,7.9459 2.34259,1.7237 -3.10942,15.1927 -6.14972,15.1927 -1.09075,0 -4.37584,-3.3601 -7.30017,-7.467 z m -113.26553,-2.7581 c -2.69382,-5.0335 -2.98501,-22.5815 -1.70421,-102.70391 l 0.38735,-24.23118 -7.709868,-2.06983 C 86.297748,900.99194 83.25611,895.1991 83.25611,877.0363 c 0,-18.66358 -2.933278,-22.18926 -9.380508,-11.27498 -6.635457,11.23295 -12.275347,10.31844 -10.329106,-1.67484 0.841924,-5.18816 2.600656,-10.1051 3.908289,-10.92655 3.394026,-2.13203 38.939885,-73.37075 38.939885,-78.0408 0,-2.13813 1.64807,-4.51993 3.66239,-5.29292 3.93141,-1.50861 8.69079,4.6094 14.16545,18.2092 1.84997,4.59557 4.38015,8.35559 5.62262,8.35559 1.24247,0 2.25905,1.63476 2.25905,3.6328 0,1.99804 8.67695,12.62502 19.28213,23.6155 10.60517,10.99048 19.28213,21.3618 19.28213,23.04739 0,1.68557 -1.67063,4.45116 -3.7125,6.14578 -3.03166,2.51606 -5.88365,0.81518 -15.55139,-9.27465 -7.57971,-7.91061 -12.49037,-11.3016 -13.64977,-9.42565 -0.99599,1.61156 -5.23216,3.32371 -9.41372,3.8048 -9.31778,1.07204 -11.05156,6.15497 -11.40632,33.4401 -0.26695,20.53228 1.74129,24.29122 10.55778,19.76147 5.09329,-2.61688 9.7186,-17.32253 9.73922,-30.96477 0.0146,-9.65346 3.77743,-14.77094 7.85947,-10.6889 3.59749,3.59748 3.79073,32.56034 0.27389,41.05072 -3.45084,8.33107 -17.0602,15.17574 -24.49868,12.32134 -5.00202,-1.91944 -4.67236,-6.62964 -5.12924,73.28636 -0.25026,43.77481 -1.17364,60.47961 -3.38381,61.21631 -1.67179,0.5573 -4.33909,-1.4148 -5.92732,-4.3824 z m -0.58418,-166.55794 c 0.67042,-24.08529 0.33178,-26.3221 -3.98497,-26.3221 -2.594713,0 -6.050583,-1.33294 -7.679715,-2.96206 -2.235444,-2.23544 -3.751729,-1.22892 -6.181168,4.10313 -2.742801,6.01978 -2.607337,7.40753 0.915527,9.37904 2.93293,1.64134 4.164207,6.13131 4.236376,15.44829 0.151455,19.5543 2.644799,28.45892 7.69782,27.49181 3.58097,-0.68537 4.38074,-5.02958 4.99613,-27.13811 z m 26.26231,-40.79211 c 0,-3.36562 -15.9012,-29.23615 -17.96985,-29.23615 -1.19173,0 -3.7031,3.47078 -5.58082,7.71286 -1.87772,4.24206 -4.15362,7.71285 -5.05754,7.71285 -2.25974,0 -4.871988,10.68121 -3.25293,13.30091 1.51621,2.45327 31.86114,2.93855 31.86114,0.50953 z m 3.42873,206.64865 c -1.39618,-3.1816 -2.83851,-12.1209 -3.20517,-19.8651 -0.36667,-7.7444 -1.61656,-15.85544 -2.77753,-18.02476 -2.0893,-3.90388 -1.11408,-47.57331 1.53999,-68.9584 0.99059,-7.98175 2.43863,-10.85754 5.17817,-10.28381 3.10218,0.64971 3.99896,8.14028 4.86621,40.64623 0.58476,21.91735 2.20191,47.27054 3.59367,56.34054 3.31164,21.5815 -2.74355,34.8473 -9.19534,20.1453 z m -61.343421,-16.4785 c 0.921964,-9.6726 2.760654,-26.05809 4.085981,-36.41208 1.325329,-10.354 2.409688,-27.16126 2.409688,-37.34947 0,-18.4449 5.47264,-33.22057 10.457858,-28.23534 5.842514,5.84252 1.239612,73.1605 -7.528287,110.10209 -1.051609,4.4308 -3.793772,8.0742 -6.463975,8.5884 -4.232065,0.815 -4.490988,-0.6447 -2.961265,-16.6936 z"
       id="path3210"
       inkscape:connector-curvature="0" />
  </g>
</svg>
