<?xml version="1.0" encoding="UTF-8" standalone="no"?>
<!-- Created with Inkscape (http://www.inkscape.org/) -->

<svg
   xmlns:dc="http://purl.org/dc/elements/1.1/"
   xmlns:cc="http://creativecommons.org/ns#"
   xmlns:rdf="http://www.w3.org/1999/02/22-rdf-syntax-ns#"
   xmlns:svg="http://www.w3.org/2000/svg"
   xmlns="http://www.w3.org/2000/svg"
   xmlns:sodipodi="http://sodipodi.sourceforge.net/DTD/sodipodi-0.dtd"
   xmlns:inkscape="http://www.inkscape.org/namespaces/inkscape"
   width="300"
   height="300"
   id="svg2"
   version="1.1"
   inkscape:version="0.48.4 r9939"
   sodipodi:docname="image-seal.svg">
  <defs
     id="defs4" />
  <sodipodi:namedview
     id="base"
     pagecolor="#ffffff"
     bordercolor="#666666"
     borderopacity="1.0"
     inkscape:pageopacity="0.0"
     inkscape:pageshadow="2"
     inkscape:zoom="1.979899"
     inkscape:cx="93.377566"
     inkscape:cy="122.32215"
     inkscape:document-units="px"
     inkscape:current-layer="layer1"
     showgrid="false"
     inkscape:window-width="1215"
     inkscape:window-height="1000"
     inkscape:window-x="65"
     inkscape:window-y="24"
     inkscape:window-maximized="1"
     fit-margin-top="10"
     fit-margin-left="10"
     fit-margin-right="10"
     fit-margin-bottom="10" />
  <metadata
     id="metadata7">
    <rdf:RDF>
      <cc:Work
         rdf:about="">
        <dc:format>image/svg+xml</dc:format>
        <dc:type
           rdf:resource="http://purl.org/dc/dcmitype/StillImage" />
        <dc:title />
      </cc:Work>
    </rdf:RDF>
  </metadata>
  <g
     inkscape:label="Calque 1"
     inkscape:groupmode="layer"
     id="layer1"
     transform="translate(0,-752.36218)">
    <path
       style="fill:#000000"
       d="m 218.02345,1036.1817 c -1.72927,-0.62 -3.14413,-3.0704 -3.14413,-5.4451 0,-2.3749 -1.05295,-5.3933 -2.3399,-6.7075 -2.08865,-2.133 -8.78125,-38.39984 -12.0451,-65.27188 -0.67211,-5.53365 -1.98919,-10.88768 -2.92682,-11.89783 -0.93762,-1.01014 -8.68463,-0.5386 -17.21558,1.0479 -12.32593,2.29224 -16.31301,2.21877 -19.41761,-0.35782 -2.14871,-1.7833 -3.90678,-4.04123 -3.90678,-5.01767 0,-2.1101 22.93029,-7.66989 31.63309,-7.66989 5.75087,0 6.09634,-0.82673 6.09634,-14.58872 0,-8.02378 -1.35825,-15.94697 -3.01835,-17.60706 -1.6601,-1.6601 -8.33031,-3.01836 -14.82266,-3.01836 -12.61957,0 -18.51258,-5.50203 -10.36239,-9.67485 18.32423,-9.38191 30.36135,-5.05595 39.80292,14.30451 l 6.94203,14.23506 2.30525,-11.31883 c 2.94999,-14.48463 3.31377,-29.50492 0.93468,-38.59173 l -1.87215,-7.15053 -25.67526,0.8623 c -24.28583,0.81563 -25.67526,0.59006 -25.67526,-4.1683 0,-3.98254 2.09607,-5.29261 10.06119,-6.28824 l 10.06118,-1.25765 -0.29606,-11.31882 c -0.16274,-6.22536 -0.53981,-13.58261 -0.83772,-16.34943 -1.243,-11.54392 3.00439,-52.90315 5.59752,-54.5058 1.5461,-0.95554 4.95571,-0.58956 7.57692,0.81327 3.92706,2.10168 4.56121,4.61625 3.60324,14.28743 -0.63944,6.45526 -1.99941,14.25773 -3.02218,17.33881 -1.81318,5.46222 -1.42911,5.58771 15.397,5.03059 16.18211,-0.5358 17.30665,-0.21908 18.06036,5.08805 0.71698,5.04838 -0.26748,5.65942 -9.11796,5.65942 -5.45693,0 -13.5108,0.71781 -17.89746,1.59514 -7.93804,1.58761 -7.97222,1.6619 -7.23147,15.7206 l 0.74428,14.12544 11.09192,0.7931 c 8.47006,0.60561 12.75017,2.56822 18.10706,8.30277 9.15918,9.80492 10.63696,15.10845 7.42891,26.6607 -1.45384,5.23531 -2.64967,13.23372 -2.65737,17.77426 -0.0176,10.74078 -6.16292,25.22151 -14.31296,33.73039 -4.9253,5.14214 -6.03829,8.16859 -4.625,12.57648 1.02365,3.19258 2.78434,12.03008 3.91264,19.63885 1.12834,7.60876 3.33152,18.92759 4.89598,25.15295 1.56449,6.22535 3.76247,15.84629 4.88448,21.37999 1.122,5.5336 2.8457,11.9552 3.83049,14.2701 1.96278,4.6137 -5.02934,9.7967 -10.54731,7.8179 z m -73.73423,-17.4128 c -1.95295,-5.087 -1.99108,-9.7216 -0.13054,-15.8432 1.77179,-5.82907 1.80188,-9.65066 0.0921,-11.71076 -1.63726,-1.97279 -1.92649,-17.64728 -0.81503,-44.16846 1.97277,-47.07288 2.00866,-41.47865 -0.39817,-62.06836 -2.20904,-18.89755 -4.7557,-20.5885 -30.82045,-20.46449 -28.604772,0.13607 -30.04103,3.33908 -33.236638,74.12123 -2.527092,55.97435 -4.126242,69.07724 -9.055843,74.20114 -3.226521,3.3537 -3.897979,3.3537 -6.043174,0 -2.558156,-3.9993 -1.094128,-33.82539 2.592767,-52.82114 1.208272,-6.22535 3.458179,-26.03331 4.999778,-44.01766 3.958246,-46.17723 4.176019,-47.09587 13.605209,-57.39015 6.299708,-6.87767 10.505684,-9.26518 16.322051,-9.26518 4.45857,0 7.9429,-1.35504 8.08474,-3.14413 0.13709,-1.72926 0.68402,-15.02888 1.21536,-29.55471 1.9353,-52.90638 1.71826,-51.47976 7.96773,-52.36732 5.07358,-0.72056 5.65942,0.25583 5.65942,9.43235 0,5.62987 -1.10387,10.23612 -2.45305,10.23612 -1.59376,0 -1.59363,2.2604 3.5e-4,6.45292 1.34939,3.54913 1.54352,8.35963 0.43141,10.69001 -2.39333,5.01519 -2.0338,39.57508 0.49375,47.45952 1.4225,4.43741 4.40335,5.82316 15.51157,7.21102 7.56289,0.94492 14.47858,2.89576 15.36819,4.33521 0.88963,1.43944 1.42488,29.88718 1.18947,63.21723 -0.23542,33.33005 -0.43152,68.68359 -0.4358,78.56341 -0.005,12.7087 -1.08672,18.8588 -3.6963,21.0245 -3.04723,2.5291 -4.16852,1.811 -6.44906,-4.1291 z m -38.78915,-63.11735 c -2.74698,-0.69545 -7.556101,-4.24277 -10.686939,-7.88293 -5.136913,-5.97257 -5.668269,-9.07315 -5.444785,-31.77142 0.136328,-13.83413 1.034767,-27.98266 1.996792,-31.4412 2.52415,-9.07431 9.107252,-8.14506 8.909652,1.25765 -0.19166,9.1235 3.97859,13.83412 12.24743,13.83412 7.58198,0 11.10169,-3.98699 12.21271,-13.83412 0.52492,-4.65219 2.29826,-7.54588 4.62435,-7.54588 3.09255,0 3.90208,5.1977 4.48907,28.82302 0.76269,30.69772 -1.40572,40.41798 -10.42597,46.73602 -5.32236,3.72792 -8.94719,4.09699 -17.92231,1.82474 z M 119.2981,939.8925 c 3.81104,-3.81104 5.03059,-8.38431 5.03059,-18.86471 0,-15.12058 -0.66003,-15.58859 -17.29266,-12.26206 -7.642747,1.52853 -7.860296,1.94917 -7.860296,15.19793 0,19.87821 9.027126,27.02408 20.122366,15.92884 z m 40.22754,-92.4371 c -0.01,-1.03756 -4.03146,-4.62051 -8.93779,-7.96213 -12.17474,-8.29194 -13.99596,-12.64589 -15.48642,-37.02258 -1.35955,-22.23611 0.72706,-28.58769 9.3917,-28.58769 3.97088,0 4.41713,2.5407 4.09377,23.30665 l -0.36291,23.30663 9.64725,11.79999 c 5.30599,6.48998 8.91782,12.98022 8.02628,14.42277 -1.86652,3.02011 -6.34637,3.53781 -6.37188,0.73636 z m -93.048748,-6.3636 c 0,-1.77069 3.923988,-6.92066 8.719977,-11.44434 9.996011,-9.42852 13.883652,-20.85973 13.903648,-40.88229 0.01509,-15.41051 1.577442,-18.80344 6.699665,-14.55236 2.222139,1.84421 3.375552,8.6833 3.375552,20.01521 0,18.73845 -4.434013,31.65071 -14.823089,43.1662 -6.395969,7.08945 -17.875753,9.46404 -17.875753,3.69758 z"
       id="path3210"
       inkscape:connector-curvature="0" />
  </g>
</svg>
