<?xml version="1.0" encoding="UTF-8" standalone="no"?>
<!-- Created with Inkscape (http://www.inkscape.org/) -->

<svg
   xmlns:dc="http://purl.org/dc/elements/1.1/"
   xmlns:cc="http://creativecommons.org/ns#"
   xmlns:rdf="http://www.w3.org/1999/02/22-rdf-syntax-ns#"
   xmlns:svg="http://www.w3.org/2000/svg"
   xmlns="http://www.w3.org/2000/svg"
   xmlns:sodipodi="http://sodipodi.sourceforge.net/DTD/sodipodi-0.dtd"
   xmlns:inkscape="http://www.inkscape.org/namespaces/inkscape"
   width="300"
   height="300"
   id="svg2"
   version="1.1"
   inkscape:version="0.48.4 r9939"
   sodipodi:docname="image-seal.svg">
  <defs
     id="defs4" />
  <sodipodi:namedview
     id="base"
     pagecolor="#ffffff"
     bordercolor="#666666"
     borderopacity="1.0"
     inkscape:pageopacity="0.0"
     inkscape:pageshadow="2"
     inkscape:zoom="2.7366667"
     inkscape:cx="150"
     inkscape:cy="150"
     inkscape:document-units="px"
     inkscape:current-layer="layer1"
     showgrid="false"
     inkscape:window-width="1215"
     inkscape:window-height="1000"
     inkscape:window-x="65"
     inkscape:window-y="24"
     inkscape:window-maximized="1" />
  <metadata
     id="metadata7">
    <rdf:RDF>
      <cc:Work
         rdf:about="">
        <dc:format>image/svg+xml</dc:format>
        <dc:type
           rdf:resource="http://purl.org/dc/dcmitype/StillImage" />
        <dc:title />
      </cc:Work>
    </rdf:RDF>
  </metadata>
  <g
     inkscape:label="Calque 1"
     inkscape:groupmode="layer"
     id="layer1"
     transform="translate(0,-752.36218)">
    <path
       style="fill:#000000"
       d="m 241.10813,1041.4216 c -6.90938,-8.6029 -37.42274,-72.41424 -41.64496,-87.09034 -1.98435,-6.89742 -4.53662,-12.54077 -5.6717,-12.54077 -1.13506,0 -2.06376,0.93705 -2.06376,2.08233 0,3.59436 -28.31742,19.42524 -33.18373,18.5514 -3.28985,-0.59076 -7.00353,3.48108 -12.78791,14.02115 -10.54237,19.20994 -15.91734,25.60553 -31.5402,37.52923 -21.74225,16.5941 -43.93555,24.0468 -43.93555,14.7539 0,-2.7955 18.60701,-15.6537 22.65234,-15.6537 3.81274,0 34.48134,-32.66615 41.82632,-44.55057 3.94393,-6.38137 9.03804,-33.21161 6.99788,-36.85714 -1.85841,-3.32079 -11.78834,5.11674 -28.18078,23.94536 -10.87855,12.49532 -34.57225,31.06077 -39.64051,31.06077 -5.9364,0 -6.24614,-8.01787 -0.48727,-12.6136 3.13411,-2.5011 9.94081,-8.53667 15.12604,-13.41239 5.18522,-4.87571 11.25954,-10.22204 13.4985,-11.88072 2.23897,-1.65868 8.17933,-8.32081 13.20081,-14.8047 5.02148,-6.48392 11.20909,-14.13338 13.75024,-16.99883 4.35624,-4.91218 6.27862,-12.13473 3.22984,-12.13473 -0.76475,0 -5.40586,3.65393 -10.31357,8.11986 -4.90772,4.46594 -12.5475,10.10928 -16.97726,12.54077 -4.42977,2.43148 -10.79486,6.79704 -14.14459,9.70121 -8.9631,7.77084 -19.62703,12.75536 -22.92641,10.71623 C 66.30136,944.92331 65,941.3498 65,937.96519 c 0,-4.64333 2.75422,-7.4626 11.22068,-11.48573 6.17138,-2.93255 13.59741,-7.51864 16.5023,-10.19136 2.90486,-2.67269 10.88763,-9.0177 17.73945,-14.10001 11.5187,-8.54396 15.67651,-16.28116 10.47629,-19.49508 -1.17965,-0.72905 -5.63492,1.02779 -9.9006,3.90411 -7.74914,5.22517 -42.642,23.51145 -44.86327,23.51145 -0.64616,0 -1.17485,-3.48417 -1.17485,-7.74256 0,-5.32803 1.58774,-8.24652 5.09134,-9.3585 2.80023,-0.88876 12.04148,-7.20621 20.53609,-14.03876 l 15.44478,-12.42283 -9.97547,-9.9006 -9.97546,-9.9006 0,-27.8528 c 0,-42.90528 5.83632,-50.45447 40.05005,-51.80436 20.6002,-0.81277 22.38687,-0.44954 28.19879,5.73266 5.82945,6.20084 6.11773,8.03879 4.76251,30.36185 -3.05961,50.3972 -5.05081,56.61565 -20.16365,62.97012 l -8.67245,3.64649 5.66214,5.66214 c 7.77211,7.7721 18.80679,41.92897 18.80679,58.21467 0,12.34246 0.49313,13.39533 6.27408,13.39533 3.64938,0 10.7864,-4.24971 17.06032,-10.15847 9.94451,-9.36571 10.66424,-10.96248 9.22303,-20.46124 -0.85974,-5.66653 -2.59655,-11.43145 -3.85952,-12.81094 -1.26297,-1.37948 -2.29631,-4.57838 -2.29631,-7.10863 0,-3.52488 -2.62342,-4.7903 -11.22068,-5.41233 -9.18995,-0.66492 -11.22068,-1.76748 -11.22068,-6.09217 0,-4.41501 2.0259,-5.41101 12.36268,-6.07775 9.74523,-0.6286 13.79783,0.45044 19.14117,5.09641 3.72817,3.24158 6.81626,7.75869 6.86243,10.03797 0.0462,2.2793 1.87521,6.51454 4.06451,9.41164 3.42832,4.53672 4.3457,4.71987 6.61304,1.32008 8.62765,-12.93689 10.56896,-19.60673 9.828,-33.76612 l -0.7883,-15.06399 -10.56064,0.71519 c -5.80835,0.39336 -17.96946,2.09309 -27.02466,3.7772 -17.90005,3.32911 -18.24612,3.25083 -19.58719,-4.42995 -0.68235,-3.90802 1.24344,-5.92994 7.67144,-8.05445 4.72036,-1.56012 9.69493,-3.96436 11.05458,-5.34276 1.35963,-1.37843 2.84385,-20.6738 3.29823,-42.87863 0.80656,-39.41525 0.9678,-40.40814 6.80081,-41.87736 9.63012,-2.42565 13.82655,3.35533 13.82655,19.04744 l 0,14.03583 11.22068,1.49109 c 6.17138,0.82008 13.00279,1.29975 15.18092,1.06593 13.2483,-1.42222 17.23904,3.91177 9.05198,12.09883 -2.84248,2.84248 -9.09791,4.14883 -19.86655,4.14883 -14.44265,0 -15.92661,0.54939 -18.29254,6.77227 -6.30372,16.58003 -0.35491,29.84847 10.3248,23.02883 7.14948,-4.56537 23.12876,8.75662 26.514,22.1048 2.35331,9.27921 1.88821,13.4772 -2.9974,27.05573 -3.1806,8.83978 -10.40078,22.17355 -16.04481,29.63063 l -10.26188,13.55828 5.50587,15.10042 c 3.02823,8.30521 5.50589,16.42829 5.50589,18.05128 0,5.02475 13.05882,31.7945 16.5913,34.01116 1.83911,1.15403 6.28181,7.74163 9.87272,14.63903 3.59091,6.8974 7.42202,12.5407 8.51357,12.5407 1.09157,0 1.98466,4.7523 1.98466,10.5607 0,8.3109 -0.98423,10.5532 -4.62028,10.5256 -2.54116,-0.019 -6.75456,-2.6923 -9.36315,-5.9403 z M 138.92061,844.11002 c 3.34768,-4.70139 5.29659,-10.86511 4.80005,-15.18092 -0.81332,-7.06959 -1.28491,-7.26591 -17.45238,-7.26591 -22.93249,0 -27.54081,1.99195 -25.29641,10.93433 5.04324,20.09387 27.07828,26.77865 37.94874,11.5125 z m -5.93648,-36.93865 c 10.95501,-0.0285 11.22069,-0.23787 11.22069,-8.84585 0,-6.88591 -1.47269,-9.48776 -6.72462,-11.88073 -8.24383,-3.75613 -24.95731,-4.03992 -24.95731,-0.42377 0,1.45209 -2.37614,2.64016 -5.28032,2.64016 -4.42816,0 -5.28032,1.76012 -5.28032,10.90608 l 0,10.90611 9.9006,-1.63648 c 5.44533,-0.90005 14.94991,-1.64954 21.12128,-1.66552 z"
       id="path3093"
       inkscape:connector-curvature="0" />
  </g>
</svg>
