<?xml version="1.0" encoding="UTF-8" standalone="no"?>
<!-- Created with Inkscape (http://www.inkscape.org/) -->

<svg
   xmlns:dc="http://purl.org/dc/elements/1.1/"
   xmlns:cc="http://creativecommons.org/ns#"
   xmlns:rdf="http://www.w3.org/1999/02/22-rdf-syntax-ns#"
   xmlns:svg="http://www.w3.org/2000/svg"
   xmlns="http://www.w3.org/2000/svg"
   xmlns:sodipodi="http://sodipodi.sourceforge.net/DTD/sodipodi-0.dtd"
   xmlns:inkscape="http://www.inkscape.org/namespaces/inkscape"
   version="1.0"
   width="300"
   height="300"
   id="svg2"
   inkscape:version="0.48.3.1 r9886"
   sodipodi:docname="dessin.svg">
  <metadata
     id="metadata2990">
    <rdf:RDF>
      <cc:Work
         rdf:about="">
        <dc:format>image/svg+xml</dc:format>
        <dc:type
           rdf:resource="http://purl.org/dc/dcmitype/StillImage" />
      </cc:Work>
    </rdf:RDF>
  </metadata>
  <sodipodi:namedview
     pagecolor="#ffffff"
     bordercolor="#666666"
     borderopacity="1"
     objecttolerance="10"
     gridtolerance="10"
     guidetolerance="10"
     inkscape:pageopacity="0"
     inkscape:pageshadow="2"
     inkscape:window-width="1215"
     inkscape:window-height="1000"
     id="namedview2988"
     showgrid="false"
     inkscape:zoom="1.5733333"
     inkscape:cx="84.012296"
     inkscape:cy="168.26148"
     inkscape:window-x="65"
     inkscape:window-y="24"
     inkscape:window-maximized="1"
     inkscape:current-layer="svg2" />
  <defs
     id="defs5" />
  <path
     style="fill:#000000"
     d="m 215.94175,289.79313 c -2.82182,-3.04041 -6.68842,-10.50323 -8.59242,-16.58404 -1.90403,-6.08082 -4.41589,-12.10636 -5.58194,-13.39009 -1.16601,-1.28372 -2.12006,-4.33914 -2.12006,-6.7898 0,-2.45065 -1.0328,-6.37555 -2.29513,-8.72198 -1.26233,-2.34643 -3.60738,-12.50002 -5.21123,-22.56353 -1.60386,-10.06351 -3.48164,-18.8387 -4.17281,-19.50041 -0.69118,-0.66172 -8.45087,-0.0187 -17.24376,1.42906 -12.62293,2.0783 -16.73597,1.95657 -19.54588,-0.57846 -6.37124,-5.74798 -1.14636,-10.44076 15.5862,-13.99894 l 16.20174,-3.44529 0,-19.48535 0,-19.48535 -11.97304,0.71545 c -21.00838,1.25535 -19.4936,-9.45041 2.19107,-15.4856 21.3353,-5.93795 24.13545,-3.26653 25.42665,24.25779 0.55891,11.91397 1.66627,22.66877 2.46079,23.89955 3.07218,4.75899 11.15943,1.9912 14.84423,-5.08029 3.35399,-6.43663 8.82744,-41.35563 7.51792,-47.96207 -4.81066,-24.2696 -6.43048,-25.19216 -37.6115,-21.42179 -13.40813,1.6213 -26.23287,2.26653 -28.49939,1.43385 -6.78039,-2.49096 -3.1717,-9.171418 6.41654,-11.878469 15.53084,-4.384825 15.3773,-4.015573 15.3773,-36.985224 0,-28.279897 0.3823,-30.675626 5.29664,-33.193588 9.28093,-4.755278 13.43215,1.212448 11.44346,16.450907 -1.60942,12.332334 -1.38834,13.011231 4.71502,14.477776 3.52199,0.846283 8.73892,0.829102 11.59315,-0.03818 5.62281,-1.70854 20.84378,4.603724 20.84378,8.644082 0,3.697033 -5.78087,5.147361 -22.30833,5.596789 l -14.90285,0.405247 0,11.056031 c 0,10.492915 0.39213,11.091243 7.69886,11.747375 10.52179,0.944836 26.33317,7.748774 28.0686,12.078444 0.78369,1.95519 2.11005,15.31981 2.94746,29.69915 2.13959,36.73839 -2.75845,50.25443 -21.25703,58.6584 -9.73429,4.42231 -9.54759,3.25911 -4.66825,29.08813 4.65917,24.66354 6.92936,31.93283 13.79977,44.18775 5.56212,9.92126 6.75891,17.35033 3.93151,24.40439 -2.10298,5.24666 -4.30765,4.89788 -10.37707,-1.64172 z M 98.491119,285.8222 c -1.143538,-1.7714 -0.398083,-19.93314 1.42529,-34.72518 1.736301,-14.08585 0.864661,-14.74137 -19.601449,-14.74137 -17.173699,0 -19.24716,-0.50104 -19.24716,-4.65093 0,-6.30827 5.614599,-7.91101 21.46537,-6.12747 10.331619,1.16253 14.10242,0.6414 16.653567,-2.30149 5.734473,-6.61509 -0.167836,-12.82459 -12.643065,-13.30086 -12.12471,-0.4629 -16.653792,-3.32862 -14.348876,-9.0791 1.143903,-2.8539 5.217384,-3.85049 15.738485,-3.85049 14.010519,0 14.195119,-0.0943 14.195119,-7.25345 0,-7.18024 -0.16168,-7.26084 -16.013519,-7.98491 -12.614986,-0.57623 -16.188745,-1.61241 -16.839135,-4.88236 -0.654347,-3.28983 1.469724,-4.30915 10.239377,-4.91379 9.386624,-0.64718 11.194702,-1.64025 11.920115,-6.54704 0.571718,-3.86722 -1.619507,-8.1004 -6.611836,-12.77327 -16.914417,-15.83206 -16.15477,-43.3655 1.390084,-50.38372 4.863575,-1.94551 13.830414,-3.537289 19.926294,-3.537289 11.25259,0 19.22337,-4.814857 8.32994,-5.031801 -10.10891,-0.201318 -23.607508,-8.039402 -26.251889,-15.243401 -2.180777,-5.941057 -1.425706,-7.80586 6.217603,-15.355599 7.919646,-7.822692 9.999826,-8.593322 23.196366,-8.593322 14.87921,0 20.07132,2.840029 23.86584,13.054335 2.11303,5.687984 -4.42613,17.902188 -11.53416,21.544123 -5.21577,2.672412 -4.91239,3.138849 6.44228,9.904928 l 11.91582,7.100446 0,14.89838 c 0,14.68008 -2.82451,23.26647 -9.23974,28.08827 -1.79784,1.35129 -4.04796,6.60583 -5.00026,11.67675 -1.65862,8.83196 -1.3955,9.28418 6.25427,10.74892 14.22668,2.72405 9.28881,9.89185 -5.76532,8.36891 -11.19155,-1.13217 -17.04441,2.22995 -17.04441,9.79101 0,7.12937 0.33349,7.32388 12.5569,7.32388 9.23009,0 12.98136,1.05908 14.15916,3.9975 2.42909,6.06034 -5.89682,10.57752 -19.65877,10.66574 -10.30916,0.0661 -12.18987,0.8107 -12.18987,4.82636 0,5.40962 5.2438,7.5396 19.54996,7.94103 23.48133,0.65892 19.26261,11.87971 -4.46644,11.87971 l -15.08352,0 -0.32078,19.65517 c -0.34188,20.94796 -0.3552,21.05675 -3.38327,27.64007 -2.08554,4.53415 -7.87704,5.7672 -10.198371,2.17131 z M 117.01286,169.52808 c 1.69375,-1.62156 3.07955,-4.93836 3.07955,-7.37069 0,-5.65133 -14.80941,-6.29207 -17.03597,-0.73707 -3.604478,8.99277 6.74934,15.00765 13.95642,8.10776 z m 8.97821,-23.88937 c 6.741,-2.45368 10.12188,-8.0601 8.02112,-13.30124 -1.14906,-2.86678 -16.03163,-3.52085 -40.224231,-1.76782 -1.058593,0.0767 -1.924716,2.87187 -1.924716,6.21146 0,4.73959 1.8302,6.57792 8.340437,8.37756 11.13959,3.07933 18.2811,3.21227 25.78739,0.48004 z m 6.84201,-28.89574 c 3.05286,-2.58823 -5.10561,-9.42305 -11.73674,-9.83255 -20.94078,-1.29316 -35.279961,4.1349 -30.496711,11.54446 1.259842,1.95156 39.752751,0.39127 42.233451,-1.71191 z M 122.01712,80.022664 c 11.03286,-2.830658 5.02267,-20.266267 -7.05729,-20.473172 -2.11718,-0.03626 -7.21961,2.515797 -11.33873,5.671248 -10.976807,8.408755 -7.508007,13.922048 10.05559,15.982337 1.41146,0.165571 5.16468,-0.365615 8.34043,-1.180413 z M 62.383723,66.880613 C 59.948275,63.107949 65.104119,55.923542 73.058963,52.00521 95.54579,40.928829 103.4631,34.629928 106.20943,25.631169 c 3.76885,-12.349144 10.98579,-12.330096 17.3022,0.04567 2.5863,5.067348 6.20749,9.213359 8.04711,9.213359 1.83959,0 6.65251,1.651594 10.69536,3.670207 4.04286,2.018615 9.19488,3.677019 11.44896,3.685343 2.2541,0.0084 6.74089,2.209302 9.97064,4.891058 4.99028,4.143547 5.36308,5.463357 2.48196,8.786896 -4.53915,5.236195 -18.41129,2.793862 -31.84958,-5.607454 -17.0777,-10.676581 -26.35786,-8.382518 -51.182418,12.652337 -7.534593,6.384367 -17.883745,8.336456 -20.739939,3.912034 z"
     id="path3001"
     inkscape:connector-curvature="0" />
</svg>
