<?xml version="1.0" encoding="UTF-8" standalone="no"?>
<!-- Created with Inkscape (http://www.inkscape.org/) -->

<svg
   xmlns:dc="http://purl.org/dc/elements/1.1/"
   xmlns:cc="http://creativecommons.org/ns#"
   xmlns:rdf="http://www.w3.org/1999/02/22-rdf-syntax-ns#"
   xmlns:svg="http://www.w3.org/2000/svg"
   xmlns="http://www.w3.org/2000/svg"
   xmlns:sodipodi="http://sodipodi.sourceforge.net/DTD/sodipodi-0.dtd"
   xmlns:inkscape="http://www.inkscape.org/namespaces/inkscape"
   version="1.0"
   width="300"
   height="300"
   id="svg2"
   inkscape:version="0.48.4 r9939"
   sodipodi:docname="dessin.svg">
  <metadata
     id="metadata2990">
    <rdf:RDF>
      <cc:Work
         rdf:about="">
        <dc:format>image/svg+xml</dc:format>
        <dc:type
           rdf:resource="http://purl.org/dc/dcmitype/StillImage" />
      </cc:Work>
    </rdf:RDF>
  </metadata>
  <sodipodi:namedview
     pagecolor="#ffffff"
     bordercolor="#666666"
     borderopacity="1"
     objecttolerance="10"
     gridtolerance="10"
     guidetolerance="10"
     inkscape:pageopacity="0"
     inkscape:pageshadow="2"
     inkscape:window-width="1215"
     inkscape:window-height="1000"
     id="namedview2988"
     showgrid="false"
     inkscape:zoom="2.2250294"
     inkscape:cx="129.01005"
     inkscape:cy="139.3918"
     inkscape:window-x="65"
     inkscape:window-y="24"
     inkscape:window-maximized="1"
     inkscape:current-layer="svg2"
     showguides="true"
     inkscape:guide-bbox="true" />
  <defs
     id="defs5" />
  <path
     style="fill:#000000"
     d="m 224.89567,270.73644 c -1.52533,-5.21046 -3.52824,-12.82834 -4.4509,-16.9286 -0.92263,-4.10026 -2.7606,-11.36889 -4.08433,-16.15252 -1.32371,-4.78363 -3.8553,-16.52528 -5.62573,-26.09254 -4.70286,-25.41405 -3.17719,-24.07471 -21.12256,-18.543 -18.94952,5.84128 -26.04234,6.15391 -26.04234,1.14798 0,-2.05165 2.45603,-3.72751 5.46279,-3.72751 5.14974,0 22.27698,-7.44317 29.90037,-12.99411 4.31793,-3.14409 4.4502,-13.4494 0.31484,-24.53138 -4.41376,-11.82807 -5.73257,-12.60618 -15.95476,-9.41347 -9.82982,3.07017 -15.46052,0.63675 -11.57166,-5.00089 3.24123,-4.69876 28.02986,-7.94332 32.19265,-4.21367 1.74907,1.56708 4.74462,8.69232 6.65681,15.83386 1.91219,7.14154 4.35059,12.98462 5.41869,12.98462 6.36966,0 11.48016,-55.26641 5.42074,-58.62168 -2.76268,-1.52978 -28.42146,-1.65293 -49.43316,-0.23725 -4.5634,0.30746 -7.17539,-0.98921 -7.83074,-3.8874 -0.80755,-3.571458 1.02662,-4.34876 10.26153,-4.34876 14.21113,0 14.6673,-1.45264 13.26662,-42.245064 -1.27721,-37.196016 2.43925,-48.7869655 12.24763,-38.19822 2.47594,2.672945 3.46769,9.125365 2.92117,19.005782 -0.95065,17.185791 0.96986,19.216295 16.41926,17.359697 13.33693,-1.602738 19.62734,0.414252 17.41334,5.583512 -1.03557,2.417931 -4.49825,3.748896 -8.96738,3.446834 -4.00418,-0.270639 -11.39373,-0.323438 -16.4212,-0.117342 l -9.14086,0.374739 0.82012,16.773774 0.82012,16.773771 14.56509,0.75124 c 13.06473,0.673843 15.01653,1.533359 18.94739,8.343907 2.75804,4.77857 3.68437,10.0263 2.49927,14.15879 -1.03563,3.61136 -2.37913,12.62175 -2.98551,20.02308 -1.41228,17.23775 -6.18614,29.83274 -13.93755,36.77167 -6.61326,5.92013 -6.17685,15.62395 0.70269,15.62395 2.8057,0 3.38446,1.80377 2.07666,6.47225 -1.83117,6.5369 1.03763,22.13591 9.09251,49.44033 2.41921,8.20052 4.55545,18.82391 4.74727,23.60754 0.28787,7.17977 -0.7135,8.83294 -5.7384,9.47358 -4.98595,0.63569 -6.5888,-0.93769 -8.86045,-8.69751 z m -74.92935,-6.36733 c -2.9547,-6.96509 -6.59935,-59.82345 -6.29691,-91.32388 0.31624,-32.93687 -1.32992,-41.0561 -8.95519,-44.16893 -7.42125,-3.02952 -48.964595,1.37551 -52.229157,5.53812 -1.120744,1.42903 -2.124308,13.78077 -2.230146,27.44829 -0.232314,30.00098 -6.171429,93.21298 -9.164072,97.53639 -2.616752,3.78036 -9.155622,4.06378 -11.611661,0.50329 -0.987541,-1.43162 -0.488353,-7.86155 1.109313,-14.28877 1.597663,-6.42719 3.566303,-27.34133 4.374754,-46.47586 2.017938,-47.76078 4.628979,-71.48137 8.212237,-74.6059 7.745142,-6.75362 21.459117,-9.09386 48.393422,-8.25814 15.22535,0.4724 28.62046,1.7017 29.76692,2.73175 1.14646,1.03007 2.54007,17.80384 3.09692,37.27506 0.93232,32.60033 3.69635,64.81494 8.09966,94.40101 2.42753,16.31051 -7.0665,26.65181 -12.56609,13.68757 z M 98.390674,202.34884 c -9.472792,-4.86741 -12.307166,-10.21613 -12.236351,-23.0911 0.141481,-25.72594 10.496514,-37.51269 30.264627,-34.44915 13.28016,2.05808 14.41784,3.45966 17.10659,21.0746 2.38845,15.64763 -0.60468,29.43378 -7.89434,36.36083 -4.06084,3.85884 -19.81658,3.91947 -27.240526,0.10489 z M 117.509,191.4795 c 0.92594,-2.1619 1.68353,-11.54739 1.68353,-20.85666 0,-18.99746 -3.94325,-23.08406 -15.64551,-16.21423 -5.560091,3.26407 -6.543137,5.89104 -6.543137,17.48512 0,7.50417 1.548339,15.86528 3.440757,18.58024 4.11443,5.90279 14.69973,6.52654 17.06436,1.00553 z M 92.211145,100.45659 C 84.641138,97.183155 82.138775,90.825038 84.549732,80.990135 87.017725,70.92255 102.71316,64.517324 115.22908,68.470059 c 4.68471,1.479511 11.20852,2.690019 14.49736,2.690019 8.79916,0 15.15887,10.136453 12.9571,20.651766 -1.48861,7.109367 -3.29747,8.904536 -10.22294,10.145516 -12.69485,2.2748 -33.294486,1.50671 -40.249455,-1.50077 z M 130.28685,89.052108 c 0,-9.101139 -4.60757,-12.922023 -15.58256,-12.922023 -14.3572,0 -17.700407,2.162346 -17.700407,11.448384 l 0,8.431641 16.641487,0 c 16.37733,0 16.64148,-0.110435 16.64148,-6.958002 z M 63.720923,70.132554 c 0,-3.73233 21.154607,-18.852505 26.376502,-18.852505 7.097069,0 18.000785,-13.917135 18.000785,-22.975604 0,-15.18624 9.52688,-13.863612 11.5423,1.60243 0.51634,3.962403 2.81098,7.973278 5.09919,8.913057 2.28819,0.939781 12.32242,5.246011 22.29827,9.569406 9.97587,4.323395 19.49591,7.860718 21.15565,7.860718 4.91589,0 9.4743,6.511039 7.6084,10.867547 -0.95225,2.22336 -3.23558,4.042475 -5.07403,4.042475 -3.69353,0 -27.14826,-9.695563 -29.34682,-12.131194 -2.14731,-2.378862 -24.0137,-12.718843 -26.89705,-12.718843 -1.41149,0 -5.3826,2.350753 -8.8247,5.223898 -9.129485,7.620467 -34.300587,22.111142 -38.408273,22.111142 -1.941622,0 -3.530224,-1.580636 -3.530224,-3.512527 z"
     id="path3077"
     inkscape:connector-curvature="0" />
</svg>
