<?xml version="1.0" encoding="UTF-8" standalone="no"?>
<!-- Created with Inkscape (http://www.inkscape.org/) -->

<svg
   xmlns:dc="http://purl.org/dc/elements/1.1/"
   xmlns:cc="http://creativecommons.org/ns#"
   xmlns:rdf="http://www.w3.org/1999/02/22-rdf-syntax-ns#"
   xmlns:svg="http://www.w3.org/2000/svg"
   xmlns="http://www.w3.org/2000/svg"
   xmlns:sodipodi="http://sodipodi.sourceforge.net/DTD/sodipodi-0.dtd"
   xmlns:inkscape="http://www.inkscape.org/namespaces/inkscape"
   width="300"
   height="300"
   id="svg2"
   version="1.1"
   inkscape:version="0.48.4 r9939"
   sodipodi:docname="image-seal.svg">
  <defs
     id="defs4" />
  <sodipodi:namedview
     id="base"
     pagecolor="#ffffff"
     bordercolor="#666666"
     borderopacity="1.0"
     inkscape:pageopacity="0.0"
     inkscape:pageshadow="2"
     inkscape:zoom="2.0018437"
     inkscape:cx="123.3515"
     inkscape:cy="143.3195"
     inkscape:document-units="px"
     inkscape:current-layer="layer1"
     showgrid="false"
     inkscape:window-width="1215"
     inkscape:window-height="1000"
     inkscape:window-x="65"
     inkscape:window-y="24"
     inkscape:window-maximized="1"
     fit-margin-top="10"
     fit-margin-left="10"
     fit-margin-right="10"
     fit-margin-bottom="10" />
  <metadata
     id="metadata7">
    <rdf:RDF>
      <cc:Work
         rdf:about="">
        <dc:format>image/svg+xml</dc:format>
        <dc:type
           rdf:resource="http://purl.org/dc/dcmitype/StillImage" />
        <dc:title />
      </cc:Work>
    </rdf:RDF>
  </metadata>
  <g
     inkscape:label="Calque 1"
     inkscape:groupmode="layer"
     id="layer1"
     transform="translate(0,-752.36218)">
    <path
       style="fill:#000000"
       d="m 247.40817,1032.4181 c -3.33734,-8.7779 -9.24689,-27.7657 -13.13227,-42.19499 -7.34479,-27.27641 -10.28998,-28.25533 -49.18765,-16.34939 -4.25208,1.30149 -9.33017,-0.2209 -11.28451,-3.38324 -1.9544,-3.16227 6.55484,-7.64591 18.90936,-9.96365 12.35457,-2.31774 24.10544,-6.87177 26.11297,-10.12006 6.51974,-10.54908 -11.20256,-24.39247 -31.22718,-24.39247 -14.21967,0 -17.63305,-1.90179 -12.54519,-6.98965 9.41459,-9.41459 44.56905,-1.21796 52.5232,12.24635 5.49728,9.30542 7.05312,9.43973 12.63565,1.09082 9.66329,-14.45186 7.79388,-36.25378 -3.47959,-40.57982 -5.52222,-2.11906 -19.80416,-3.85288 -31.73765,-3.85288 -11.93342,0 -21.69719,-2.85639 -21.69719,-6.34753 0,-3.49114 2.85639,-6.34753 6.34753,-6.34753 3.76149,0 6.34753,-23.2743 6.34753,-57.12777 0,-33.85347 2.58605,-57.12777 6.34753,-57.12777 3.49114,0 6.34753,12.85375 6.34753,28.56389 0,27.50594 0.70528,28.56388 19.04259,28.56388 10.47343,0 19.04259,2.85639 19.04259,6.34753 0,3.49114 -8.56916,6.34753 -19.04259,6.34753 -17.3749,0 -19.04259,1.86522 -19.04259,21.29812 0,18.56691 2.63556,22.05398 20.55241,27.19244 29.14926,8.35995 37.46033,33.82148 19.13197,58.61201 l -13.52621,18.2951 12.78589,42.6185 c 12.33871,41.12818 12.17152,66.20348 -0.22406,33.60058 z M 50,1014.8797 c 0,-3.4912 7.14097,-6.3475 15.86882,-6.3475 14.81089,0 15.86883,-2.1159 15.86883,-31.73767 0,-18.24458 -2.87784,-31.73765 -6.76913,-31.73765 -3.72302,0 -5.86531,-7.6348 -4.76065,-16.96618 4.05321,-34.23858 68.65755,-33.35379 68.65755,0.94026 0,8.81424 -2.85639,16.02592 -6.34753,16.02592 -3.49115,0 -6.34753,14.28195 -6.34753,31.73765 0,29.62177 1.05794,31.73767 15.86882,31.73767 8.72785,0 15.86882,2.8563 15.86882,6.3475 0,3.7339 -22.21635,6.3475 -53.954,6.3475 -31.73765,0 -53.954,-2.6136 -53.954,-6.3475 z m 63.4753,-34.9114 c 0,-21.15841 -2.46849,-28.56389 -9.5213,-28.56389 -7.0528,0 -9.52129,7.40548 -9.52129,28.56389 0,21.1584 2.46849,28.5639 9.52129,28.5639 7.05281,0 9.5213,-7.4055 9.5213,-28.5639 z m 15.86882,-53.954 c 0,-12.00852 -32.31496,-16.40437 -44.74666,-6.08697 -14.00512,11.62322 -4.11478,19.68096 21.53311,17.54318 15.54262,-1.29553 23.21355,-5.08126 23.21355,-11.45621 z M 56.34753,881.58159 c 0,-3.49114 8.56916,-6.34753 19.04259,-6.34753 22.26244,0 23.89172,-7.70178 6.34753,-30.0056 -19.15507,-24.35173 -16.19007,-46.63448 9.52129,-71.55488 27.18393,-26.3477 29.31975,-19.28754 3.17377,10.49107 -29.2816,33.34992 -23.00656,49.40492 6.82797,17.46974 17.5042,-18.73677 50.29979,-37.54951 50.29979,-28.85384 0,3.17929 -7.85506,10.78477 -17.4557,16.90112 -27.39143,17.45044 -46.05381,42.86881 -38.33553,52.21351 5.04616,6.1095 11.4957,3.57023 28.2135,-11.10818 21.02017,-18.45595 34.17834,-24.02933 33.68438,-14.26759 -0.13267,2.61835 -11.55803,12.58855 -25.39012,22.15605 -33.29984,23.03303 -33.21072,36.5586 0.2412,36.5586 13.96457,0 25.39012,2.85639 25.39012,6.34753 0,3.7027 -21.15841,6.34753 -50.78024,6.34753 -29.62182,0 -50.78023,-2.64483 -50.78023,-6.34753 z"
       id="path3015"
       inkscape:connector-curvature="0" />
  </g>
</svg>
