<?xml version="1.0" encoding="UTF-8" standalone="no"?>
<!-- Created with Inkscape (http://www.inkscape.org/) -->

<svg
   xmlns:dc="http://purl.org/dc/elements/1.1/"
   xmlns:cc="http://creativecommons.org/ns#"
   xmlns:rdf="http://www.w3.org/1999/02/22-rdf-syntax-ns#"
   xmlns:svg="http://www.w3.org/2000/svg"
   xmlns="http://www.w3.org/2000/svg"
   xmlns:sodipodi="http://sodipodi.sourceforge.net/DTD/sodipodi-0.dtd"
   xmlns:inkscape="http://www.inkscape.org/namespaces/inkscape"
   width="300"
   height="300"
   viewBox="0 0 300 300"
   id="svg2"
   version="1.1"
   inkscape:version="0.91 r13725"
   sodipodi:docname="敻-seal.svg">
  <defs
     id="defs4">
    <clipPath
       clipPathUnits="userSpaceOnUse"
       id="clipPath4204">
      <rect
         style="fill:#0000ff;fill-rule:evenodd;stroke:#000000;stroke-width:1px;stroke-linecap:butt;stroke-linejoin:miter;stroke-opacity:1"
         id="rect4206"
         width="15.451179"
         height="21.584471"
         x="164.41942"
         y="794.64594" />
    </clipPath>
  </defs>
  <sodipodi:namedview
     id="base"
     pagecolor="#ffffff"
     bordercolor="#666666"
     borderopacity="1.0"
     inkscape:pageopacity="0.0"
     inkscape:pageshadow="2"
     inkscape:zoom="1.7233333"
     inkscape:cx="150"
     inkscape:cy="150"
     inkscape:document-units="px"
     inkscape:current-layer="layer1"
     showgrid="false"
     inkscape:window-width="1280"
     inkscape:window-height="755"
     inkscape:window-x="0"
     inkscape:window-y="1"
     inkscape:window-maximized="1"
     units="px"
     showguides="false" />
  <metadata
     id="metadata7">
    <rdf:RDF>
      <cc:Work
         rdf:about="">
        <dc:format>image/svg+xml</dc:format>
        <dc:type
           rdf:resource="http://purl.org/dc/dcmitype/StillImage" />
        <dc:title></dc:title>
      </cc:Work>
    </rdf:RDF>
  </metadata>
  <g
     inkscape:label="Layer 1"
     inkscape:groupmode="layer"
     id="layer1"
     transform="translate(0,-752.36216)">
    <path
       style="fill:#000000"
       d="m 83.275047,1036.969 c -0.87764,-0.1316 -1.85934,-0.9328 -2.18155,-1.7802 -1.9586,-5.1515 -2.71252,-29.3432 -1.42725,-45.79738 0.32731,-4.1903 1.38314,-31.9297 2.34629,-61.64303 1.84975,-57.06528 1.90143,-58.20285 3.50853,-77.22698 1.13218,-13.40222 2.75405,-19.83714 5.81624,-23.07647 1.01469,-1.07339 4.02663,-3.02308 6.69321,-4.33268 4.441173,-2.1811 5.917373,-2.49708 17.578073,-3.7625 7.00136,-0.75978 15.45178,-1.38143 18.77872,-1.38143 l 6.04897,0 3.385,-8.04399 c 4.14151,-9.84174 6.81526,-12.29995 17.1917,-15.80574 2.64699,-0.89432 38.95206,-5.24026 43.77599,-5.24026 0.61539,0 0.94377,-0.83672 0.94377,-2.40481 0,-2.30628 -0.14959,-2.44831 -3.65066,-3.4661 -10.49937,-3.05225 -25.40346,-4.48196 -46.91052,-4.50001 l -12.12082,-0.0103 -3.77204,9.3473 c -1.85997,5.35186 -2.42009,8.84147 -7.57013,10.76836 -6.40006,2.39456 -16.61251,3.60005 -31.25388,3.68923 -7.428343,0.0453 -14.324303,-0.14767 -15.324373,-0.42871 -1.40567,-0.39502 -1.98705,-1.17581 -2.56195,-3.44074 -0.40901,-1.61137 -0.62455,-3.04887 -0.47898,-3.19444 0.14557,-0.14558 2.38932,-1.04292 4.98612,-1.99411 3.74746,-1.37267 6.89677,-1.86606 15.266513,-2.39177 5.79978,-0.36427 13.56809,-0.87953 17.26292,-1.14501 6.73736,-0.27463 6.28521,0.574 8.67806,-5.27036 1.07811,-2.63321 1.79737,-4.95049 1.59836,-5.14951 -0.19902,-0.199 -7.30483,-0.53799 -15.7907,-0.75328 -13.08894,-0.33208 -15.709383,-0.57527 -17.278533,-1.60354 -2.35215,-1.54136 -3.42748,-3.55174 -3.15318,-5.89498 0.39767,-3.39702 2.83394,-3.61867 40.358123,-3.67171 51.29185,-0.0725 68.4574,2.15751 77.87025,10.1164 2.99892,2.53568 4.2347,5.53903 4.2347,10.2917 0,5.84354 -0.63706,6.80768 -6.34698,9.60561 -7.6907,3.76854 -13.71444,4.73199 -28.17065,4.50565 -11.92588,-0.18672 -12.33092,-0.14616 -16.07515,1.61004 -5.24567,2.46041 -8.35164,5.3609 -10.93899,10.21527 l -2.18556,4.10052 3.98076,0.58495 c 2.18942,0.32173 12.24024,0.59129 22.33516,0.59905 17.29076,0.0133 18.56942,0.10214 22.06513,1.53424 5.47308,2.24213 8.03081,4.24086 10.79161,8.4331 3.88987,5.90669 4.55094,9.13575 5.61937,27.44816 1.42358,24.3998 3.77363,118.61968 3.77363,151.29526 l 0,28.2712 -2.10907,0.8737 c -1.55106,0.6424 -2.54001,0.6772 -3.73788,0.1314 -1.80829,-0.8239 -2.09808,-2.2596 -2.8253,-13.9967 -0.22422,-3.619 -0.73443,-8.2646 -1.13378,-10.3237 l -0.72611,-3.7438 -1.71031,2.1853 c -2.13773,2.7316 -4.29131,2.823 -10.96028,0.4655 -2.66658,-0.9427 -5.73659,-1.7204 -6.82221,-1.7286 -1.13926,-0.01 -4.85082,1.6144 -8.77785,3.8379 -7.74373,4.3846 -11.32036,5.2313 -33.5416,7.9409 -14.16428,1.7271 -29.0793,1.6569 -33.97259,-0.16 -2.42992,-0.9022 -2.79614,-1.3271 -2.9793,-3.4574 -0.42289,-4.9187 1.6717,-5.3317 34.14714,-6.7326 15.81368,-0.6821 21.10744,-1.4684 26.86195,-3.9895 1.44117,-0.6314 2.37619,-1.3801 2.07786,-1.6638 -0.29834,-0.2837 -3.64361,-1.1814 -7.43393,-1.9949 -8.1135,-1.7414 -22.72558,-2.7495 -40.55289,-2.7976 -7.0474,-0.019 -14.06016,-0.3235 -15.58392,-0.6765 -3.23454,-0.74948 -5.19464,-2.84608 -5.19464,-5.55638 0,-3.2176 3.09065,-4.1597 13.61074,-4.1487 17.89233,0.019 44.04175,1.4045 52.47945,2.7811 11.28777,1.8418 10.79049,1.9059 10.79049,-1.391 0,-2.4903 -0.25077,-2.8831 -2.59732,-4.0679 -8.10535,-4.0927 -18.28779,-5.24 -41.73028,-4.7017 -10.09492,0.2317 -19.74564,0.1445 -21.44605,-0.1939 -3.5326,-0.7031 -5.56608,-2.748 -5.56608,-5.5971 0,-3.249 3.72685,-4.2523 18.35439,-4.9408 6.85693,-0.3228 12.85674,-0.7356 13.33291,-0.9174 1.22376,-0.4671 1.25513,-26.0007 0.0319,-26.0007 -1.78531,0 -13.58463,-6.2637 -17.52385,-9.3026 -11.16289,-8.61144 -16.57648,-19.66306 -16.47835,-33.63982 0.0525,-7.47505 1.60946,-14.49071 4.93563,-22.23969 2.54019,-5.91788 14.07299,-12.11164 25.72406,-13.81526 9.56429,-1.39848 26.16876,0.17089 37.56565,3.55054 5.00206,1.48331 6.86643,3.20433 11.57706,10.68691 6.73304,10.69506 7.53979,27.03389 2.04056,41.32675 -1.74952,4.5471 -2.72437,5.95311 -6.78096,9.77988 -8.55805,8.07319 -14.3258,11.32749 -22.9105,12.92659 l -5.88726,1.0967 -0.2062,4.317 -0.2062,4.317 12.18826,0 c 13.66584,0 15.58302,0.481 16.89273,4.238 1.19312,3.4226 0.98426,3.8761 -2.37601,5.1595 -2.61368,0.9981 -4.53308,1.1307 -11.38403,0.7862 -12.78473,-0.6428 -13.85692,-0.2716 -14.83135,5.1342 l -0.45143,2.5045 4.29035,0.8441 c 2.35971,0.4642 8.24951,1.2605 13.08847,1.7695 9.66358,1.0164 13.82893,2.5581 17.57653,6.505 2.20537,2.3227 3.02396,5.9187 3.11605,13.6883 l 0.0505,4.267 3.59908,1.79348 c 1.9795,0.9864 4.12993,1.7935 4.77874,1.7935 0.6488,0 2.76936,1.0698 4.71233,2.3774 l 3.5327,2.3772 -0.009,-25.06058 c -0.005,-13.7833 -0.62423,-43.9171 -1.3764,-66.96398 -0.75217,-23.04688 -1.37155,-44.12414 -1.3764,-46.83834 l -0.009,-4.9349 -2.25101,-0.48827 c -1.23805,-0.26855 -6.92618,-0.71538 -12.64029,-0.99295 -9.08711,-0.44143 -10.88195,-0.73056 -14.32,-2.30674 -5.51115,-2.5266 -9.69383,-6.62159 -12.05036,-11.79771 -1.6794,-3.68878 -2.01106,-5.42552 -2.24829,-11.77277 l -0.27827,-7.44566 -12.39051,0 c -9.44772,0 -12.39184,0.20563 -12.39606,0.86578 -0.0302,4.72521 -2.32166,17.89475 -3.51756,20.21616 -4.56163,8.85479 -14.14577,12.84191 -30.89225,12.85152 l -8.442133,0.005 -0.35832,2.94362 c -0.77377,6.35671 -3.23627,79.75864 -3.87461,115.49414 -0.82041,45.92798 -1.02979,50.62028 -2.37477,53.22128 -1.05287,2.0361 -2.86998,2.7623 -5.80848,2.3214 z M 163.5529,933.20639 c 5.8079,-2.27463 14.27826,-9.00143 16.32959,-12.96825 l 1.05552,-2.04116 -2.32078,0.47628 c -12.33959,2.53235 -27.72732,3.08811 -43.70476,1.57847 -4.85699,-0.45891 -8.83089,-0.71589 -8.83089,-0.57105 0,0.64538 4.95659,6.89089 7.04388,8.87558 2.32694,2.21256 8.50629,4.50585 15.57687,5.7809 4.54567,0.81979 11.15531,0.31646 14.85057,-1.13077 z m 20.37911,-28.82285 0.46299,-3.97154 -8.89761,0.50844 c -11.98257,0.68473 -36.12174,0.64321 -46.12587,-0.0793 l -8.13827,-0.58779 0.008,2.66564 c 0.004,1.46611 0.20617,3.86749 0.44885,5.33642 l 0.44123,2.67078 10.37655,-0.50254 c 5.70711,-0.27639 19.21898,-0.27387 30.02638,0.005 17.47985,0.45203 19.65764,0.63326 19.72071,1.64115 0.10399,1.66199 1.14217,-3.09547 1.67742,-7.68686 z m -51.13513,-13.0689 c 6.60367,-0.56881 14.14145,-0.54977 29.51491,0.0746 11.35545,0.46114 20.80199,0.68275 20.99229,0.49244 0.1903,-0.1903 -0.12381,-1.47044 -0.69804,-2.84476 -2.78444,-6.66409 -7.9528,-10.17223 -17.04519,-11.56973 -7.3645,-1.13195 -25.10279,-0.26435 -30.84272,1.50854 -5.26801,1.62712 -10.85327,5.32911 -11.49311,7.61778 -0.71208,2.54708 -0.68617,5.48506 0.0483,5.48506 0.36019,0 4.64577,-0.34375 9.52351,-0.76389 z m 71.81656,-39.12669 c 1.13346,-0.43495 1.24965,-1.0887 0.96943,-5.45502 -0.7752,-12.07941 -6.14075,-16.08549 -22.50621,-16.80379 l -8.45739,-0.37122 0.41505,6.15287 c 0.75256,11.15634 3.12455,13.59919 16.15342,16.63591 3.77246,0.87928 10.94156,0.79451 13.4257,-0.15875 z m -87.5359,-1.59578 c 7.478,-2.80298 11.08189,-7.70366 11.08189,-15.06948 0,-4.14607 -1.84501,-5.25063 -9.43603,-5.64905 -5.28122,-0.27719 -6.39015,-0.0957 -11.87383,1.94339 -3.32672,1.23702 -6.46084,2.63483 -6.964733,3.10622 -1.71754,1.6068 -4.27849,9.98831 -4.27849,14.00269 l 0,3.88248 8.830893,-0.39418 c 6.46545,-0.28861 9.85128,-0.77666 12.6403,-1.82207 z"
       id="path4321"
       inkscape:connector-curvature="0"
       sodipodi:nodetypes="ccssssssscsssssccccssscsscccsssssssssscsssssscccssccccsscssscsscsccscccsscsssssssssscccsscssccssccssccssccssssscsssccsssccsscsssscsccssccscscscccscsssssccssscssssssscscss" />
  </g>
</svg>
