<?xml version="1.0" encoding="UTF-8" standalone="no"?>
<!-- Created with Inkscape (http://www.inkscape.org/) -->

<svg
   xmlns:dc="http://purl.org/dc/elements/1.1/"
   xmlns:cc="http://creativecommons.org/ns#"
   xmlns:rdf="http://www.w3.org/1999/02/22-rdf-syntax-ns#"
   xmlns:svg="http://www.w3.org/2000/svg"
   xmlns="http://www.w3.org/2000/svg"
   xmlns:sodipodi="http://sodipodi.sourceforge.net/DTD/sodipodi-0.dtd"
   xmlns:inkscape="http://www.inkscape.org/namespaces/inkscape"
   width="300"
   height="300"
   id="svg2"
   version="1.1"
   inkscape:version="0.48.4 r9939"
   sodipodi:docname="image-seal.svg">
  <defs
     id="defs4" />
  <sodipodi:namedview
     id="base"
     pagecolor="#ffffff"
     bordercolor="#666666"
     borderopacity="1.0"
     inkscape:pageopacity="0.0"
     inkscape:pageshadow="2"
     inkscape:zoom="1.979899"
     inkscape:cx="173.92428"
     inkscape:cy="155.81638"
     inkscape:document-units="px"
     inkscape:current-layer="layer1"
     showgrid="false"
     inkscape:window-width="1215"
     inkscape:window-height="1000"
     inkscape:window-x="65"
     inkscape:window-y="24"
     inkscape:window-maximized="1" />
  <metadata
     id="metadata7">
    <rdf:RDF>
      <cc:Work
         rdf:about="">
        <dc:format>image/svg+xml</dc:format>
        <dc:type
           rdf:resource="http://purl.org/dc/dcmitype/StillImage" />
        <dc:title></dc:title>
      </cc:Work>
    </rdf:RDF>
  </metadata>
  <g
     inkscape:label="Calque 1"
     inkscape:groupmode="layer"
     id="layer1"
     transform="translate(0,-752.36218)">
    <path
       style="fill:#000000"
       d="m 65.000254,1047.3622 c -1.1e-5,0 -1.3e-5,-5e-4 -3e-6,-5e-4 9e-6,-10e-5 -4e-6,-10e-5 -8.2e-5,-10e-5 -4.5e-5,0 -8.1e-5,0 -8.1e-5,0 0,0 3.9e-5,0 9.2e-5,0 6.7e-5,0 7.8e-5,-10e-5 6.3e-5,-10e-5 l -1e-5,-10e-5 -8.4e-5,0 c -1.13e-4,0 -1.21e-4,0 -1.21e-4,0 0,-10e-5 6.3e-5,-10e-5 7.1e-5,-10e-5 7e-6,10e-5 4.8e-5,10e-5 4.8e-5,0 0,0 1.9e-5,0 4.3e-5,0 6.5e-5,0 7e-5,0 2.2e-5,-10e-5 -7.2e-5,-2e-4 -7.6e-5,-2e-4 -1.39e-4,-10e-5 -4.6e-5,0 -7.4e-5,0 -7.3e-5,0 10e-7,-10e-5 1.58e-4,-2e-4 1.89e-4,-2e-4 3e-5,0 6.3e-5,-10e-5 5.3e-5,-10e-5 -9e-6,0 -5.6e-5,-10e-5 -6.8e-5,0 -1.7e-5,0 -1.6e-4,10e-5 -1.6e-4,0 0,0 6.4e-5,0 7.7e-5,0 7e-6,0 2.1e-5,0 3e-5,-10e-5 1e-5,0 3.9e-5,0 6.5e-5,0 4.1e-5,0 4.8e-5,0 5.7e-5,-10e-5 1.2e-5,-10e-5 2.7e-5,-10e-5 5.9e-5,-10e-5 1.9e-5,10e-5 2.1e-5,10e-5 8e-6,10e-5 -9e-6,0 -1.3e-5,0 -8e-6,0 6e-6,10e-5 5.9e-5,10e-5 1.19e-4,10e-5 8e-5,10e-5 1.1e-4,10e-5 1.1e-4,10e-5 0,0 -2.5e-5,0 -8.6e-5,0 -2.5e-5,0 -6.4e-5,0 -8.7e-5,0 -3.8e-5,0 -4.1e-5,0 -4.1e-5,0 0,10e-5 7e-6,10e-5 7.4e-5,10e-5 1.12e-4,1e-4 1.45e-4,1e-4 1.35e-4,1e-4 -7e-6,0 -2.1e-5,0 -5.8e-5,0 -5.5e-5,0 -5.9e-5,0 -1.16e-4,2e-4 -4e-5,10e-5 -3.7e-5,10e-5 1.3e-5,10e-5 4.6e-5,0 1.27e-4,0 1.18e-4,10e-5 -3e-6,0 -3.2e-5,0 -6.4e-5,0 -9.1e-5,0 -9.5e-5,0 -9.5e-5,10e-5 0,10e-5 -2e-6,10e-5 1.06e-4,0 3e-5,0 5.8e-5,10e-5 6.4e-5,10e-5 1.4e-5,0 -2.2e-5,0 -4.9e-5,0 -1.2e-5,0 -4.3e-5,0 -7e-5,0 l -4.8e-5,0 10e-7,3e-4 c 2e-6,2e-4 -3e-6,3e-4 -1.7e-5,3e-4 -2.6e-5,0 -4.2e-5,0 -5.7e-5,0 z m 4.1e-5,-10e-4 c 0,0 1.3e-5,-10e-5 2.9e-5,-10e-5 4.4e-5,-10e-5 3.8e-5,-10e-5 -3.5e-5,-2e-4 -2.3e-5,0 -3.6e-5,0 -7.1e-5,1e-4 -4.1e-5,0 -5.3e-5,0 -2.9e-5,0 7e-6,0 2.1e-5,10e-5 3.2e-5,10e-5 2.2e-5,10e-5 4.1e-5,10e-5 6.1e-5,10e-5 7e-6,0 1.3e-5,0 1.3e-5,0 z m 0,-7e-4 c 0,0 -7e-6,0 -1.5e-5,0 -8e-6,0 -1.5e-5,0 -1.5e-5,0 0,10e-5 7e-6,10e-5 1.5e-5,10e-5 8e-6,0 1.5e-5,0 1.5e-5,-10e-5 z m 6.41e-4,0 c -9e-6,0 -2.1e-5,-10e-5 -2.7e-5,-10e-5 -5e-6,0 -1.6e-5,-10e-5 -2.4e-5,-2e-4 -8e-6,0 -1.9e-5,-1e-4 -2.5e-5,-1e-4 -1.2e-5,-10e-5 3e-6,-10e-5 -1.7e-4,-10e-5 l -7e-5,0 0,2e-4 c 0,2e-4 -4e-6,3e-4 -2.2e-5,3e-4 -1.8e-5,0 -2.7e-5,0 -4.5e-5,0 -1.2e-5,0 -1.9e-5,-10e-5 -1.6e-5,-10e-5 3e-6,0 1.1e-5,-2e-4 1.7e-5,-5e-4 5e-6,-3e-4 1.3e-5,-6e-4 1.8e-5,-6e-4 4e-6,0 3e-5,0 5.7e-5,0 l 5e-5,-1e-4 0,-10e-5 0,-10e-5 -6.4e-5,0 c -7.5e-5,0 -9.1e-5,0 -6.1e-5,0 1.6e-5,0 6.6e-5,0 1.96e-4,0 2.19e-4,0 2.3e-4,0 2.31e-4,10e-5 10e-7,2e-4 -2.6e-5,2e-4 -2.06e-4,2e-4 -7.3e-5,0 -1.38e-4,10e-5 -1.45e-4,10e-5 -7e-6,0 -1.3e-5,10e-5 -1.3e-5,2e-4 -1e-6,3e-4 -2e-6,3e-4 3.9e-5,3e-4 5e-5,10e-5 1.41e-4,0 1.43e-4,0 2e-6,0 -3e-6,-10e-5 -1.1e-5,-2e-4 -6e-6,0 -2.3e-5,0 -7.3e-5,0 -3.6e-5,0 -6.6e-5,0 -6.6e-5,0 0,0 1.27e-4,-10e-5 1.78e-4,0 2.1e-5,0 2.9e-5,0 2.9e-5,10e-5 0,0 6e-6,0 1.4e-5,0 2.9e-5,0 4.3e-5,-2e-4 1.6e-5,-3e-4 -7e-6,0 -6.4e-5,0 -1.25e-4,0 -1.82e-4,0 -1.26e-4,0 6.3e-5,0 1.42e-4,0 1.51e-4,0 1.51e-4,10e-5 0,2e-4 -2.3e-5,3e-4 -6.9e-5,3e-4 -1.5e-5,0 -1.9e-5,0 -1.3e-5,10e-5 5e-6,0 1.5e-5,0 2.3e-5,10e-5 7e-6,0 2e-5,1e-4 2.9e-5,1e-4 9e-6,0 2e-5,10e-5 2.4e-5,10e-5 4e-6,10e-5 1.4e-5,10e-5 2.3e-5,10e-5 1.1e-5,0 1e-5,0 -2e-6,10e-5 -1.8e-5,0 -2.8e-5,0 -5.4e-5,0 z m -1.02e-4,-0 c 5.8e-5,0 7.8e-5,0 6.7e-5,-10e-5 -7e-6,-10e-5 -1.1e-5,-10e-5 -5.9e-5,-10e-5 -9.8e-5,0 -1.04e-4,0 -1.04e-4,10e-5 0,10e-5 6e-6,10e-5 4.2e-5,2e-4 3e-6,0 2.7e-5,-1e-4 5.4e-5,-1e-4 z m -8.31e-4,7e-4 c 3e-6,0 1.8e-5,0 3.3e-5,0 1.5e-5,0 3e-5,0 3.3e-5,0 4e-6,0 -8e-6,0 -3.3e-5,0 -2.5e-5,0 -3.7e-5,0 -3.3e-5,0 z"
       id="path3114"
       inkscape:connector-curvature="0" />
    <path
       style="fill:#000000"
       d="m 217.29259,1043.7819 c -2.37961,-2.3796 -6.9622,-9.8806 -10.18357,-16.6687 -5.07085,-10.6855 -5.9856,-17.7576 -6.81536,-52.69108 l -0.95843,-40.34904 -6.37713,0 c -3.5074,0 -6.43775,0.29766 -6.51183,0.66146 -0.0741,0.3638 -1.20976,13.16305 -2.52371,28.44277 -1.31392,15.27971 -3.05761,35.52038 -3.87483,44.97919 -1.61634,18.7088 -8.50605,37.7755 -13.08484,36.2115 -2.87642,-0.9827 -4.23138,-45.39805 -1.54863,-50.76355 1.91574,-3.83147 7.26013,-52.54821 6.02285,-54.90115 -0.57391,-1.09141 -4.03257,-1.98438 -7.68595,-1.98438 -5.3751,0 -6.48114,-1.13583 -5.79698,-5.95314 0.74158,-5.22143 2.82044,-6.14229 16.91377,-7.49198 8.83755,-0.84638 17.40162,-2.36295 19.0313,-3.37014 1.63735,-1.01193 7.11051,2.3162 12.23288,7.43857 6.74488,6.74487 8.91653,10.9059 7.97276,15.27638 -3.32564,15.40082 -4.31822,54.26723 -1.43146,56.05135 1.65649,1.02388 3.01176,4.30784 3.01176,7.29824 0,5.4805 9.98691,25.9215 14.15098,28.9637 3.57585,2.6125 0.75888,11.448 -3.9383,12.3526 -2.35329,0.453 -6.22566,-1.1232 -8.60528,-3.5026 z M 78.746385,1005.1151 c 0.765862,-20.8829 2.766841,-41.4439 4.446621,-45.69094 3.496587,-8.84054 10.017464,-14.56146 16.736752,-14.68359 3.885912,-0.0706 4.630222,-2.63605 4.630222,-15.95917 0,-13.38768 0.72939,-15.87503 4.65522,-15.87503 2.56038,0 6.14235,2.38126 7.95994,5.29168 2.48554,3.97997 6.17017,5.29168 14.86459,5.29168 14.49663,0 21.51339,6.39639 13.46928,12.27841 -2.83438,2.07253 -8.14726,3.55008 -11.80641,3.28343 -12.12383,-0.88347 -18.89294,0.27861 -17.23635,2.95903 0.89937,1.45521 4.83917,2.6837 8.75512,2.72997 11.16822,0.13203 15.09007,5.21815 18.29667,23.72841 4.16775,24.0588 1.38562,74.16842 -4.11092,74.04292 -7.30519,-0.1666 -9.1388,-5.4136 -7.61071,-21.7773 2.5537,-27.34703 1.79757,-28.45307 -19.45136,-28.45307 -11.57927,0 -18.79714,1.18634 -20.1219,3.3073 -1.136176,1.81901 -2.694726,12.82037 -3.463448,24.44727 -1.190993,18.0139 -2.137663,21.2812 -6.401736,22.0943 -4.771442,0.9097 -4.939331,-0.8109 -3.611581,-37.0153 z m 51.779635,-33.35869 c 1.46902,-15.24395 -11.90278,-21.18848 -28.43326,-12.64023 -7.36074,3.80638 -12.505228,14.975 -9.29235,20.17354 0.90381,1.46238 9.49582,2.2932 19.26328,1.8627 l 17.63175,-0.77716 0.83058,-8.61885 z m 94.658,-54.02093 c -2.31392,-3.3036 -4.20715,-7.1275 -4.20715,-8.49754 0,-1.37004 -2.05373,-7.14585 -4.56383,-12.83515 -4.90645,-11.12069 -4.18718,-10.99523 -25.86331,-4.51144 -5.82085,1.74114 -15.34436,3.31227 -21.16335,3.49139 -6.32406,0.19474 -10.71441,1.65609 -10.91409,3.63298 -0.18388,1.81901 -0.48292,6.28386 -0.66482,9.92189 -0.22992,4.59709 -1.8506,6.6146 -5.31382,6.6146 -6.82589,0 -8.13344,-7.01846 -6.37218,-34.20371 2.06647,-31.89638 -0.34415,-46.1044 -8.56927,-50.50636 -5.01057,-2.68156 -8.00053,-2.78374 -13.12583,-0.4485 -7.30936,3.33037 -7.93002,5.1637 -3.74942,11.07509 2.1122,2.98665 3.13884,3.15035 4.14873,0.66146 1.74545,-4.30166 11.40352,-4.30166 11.75322,0 0.74044,9.10838 -0.4627,50.68527 -1.49665,51.71921 -0.65441,0.6544 -3.02712,0.4848 -5.2727,-0.37693 -2.94794,-1.13122 -4.20866,-5.81878 -4.53542,-16.86335 -0.24892,-8.41314 -0.54656,-17.86971 -0.66146,-21.01463 -0.11491,-3.1449 -1.10188,-6.61756 -2.19328,-7.71701 -1.09141,-1.09948 -2.12525,8.0221 -2.29742,20.27011 -0.39626,28.18919 -2.45348,37.84018 -8.30632,38.96733 -4.92171,0.94785 -5.20006,-1.59009 -5.80341,-52.91286 -0.1315,-11.18679 -0.81779,-20.91834 -1.52508,-21.6256 -0.70728,-0.70728 -5.445102,-0.43958 -10.52847,0.59494 -8.879773,1.80711 -9.316641,2.44815 -11.131511,16.33393 -1.038955,7.94916 -2.498116,22.78742 -3.242581,32.9739 -1.744328,23.86755 -3.5649,31.05444 -7.533729,29.74012 -7.833331,-2.59411 -4.03669,-77.67216 4.352036,-86.0609 2.089522,-2.08952 9.380832,-4.42829 16.202905,-5.19722 6.822078,-0.76896 12.94936,-2.81986 13.61618,-4.55756 0.66683,-1.73774 1.45864,-15.46337 1.75958,-30.50142 0.35187,-17.58334 1.61796,-27.69788 3.54736,-28.33926 4.92107,-1.63589 11.66151,7.07601 10.30645,13.32093 -2.26378,10.43288 -3.50109,40.72998 -1.77222,43.39506 0.93212,1.43687 7.35025,3.23361 14.2625,3.99275 14.49451,1.59187 15.85288,-1.01721 6.63235,-12.73923 -4.75169,-6.04077 -5.86132,-10.63074 -5.56396,-23.01515 0.20429,-8.50822 1.14638,-16.24444 2.09354,-17.1916 2.74506,-2.74506 10.85021,3.84695 9.54915,7.76641 -2.57284,7.75083 -0.20796,21.67767 4.58786,27.01862 7.4915,8.34296 8.78812,14.23146 4.15404,18.86551 -2.98318,2.98321 -3.34407,5.05292 -1.30865,7.50543 1.54572,1.86248 3.15225,15.81918 3.57005,31.01484 0.63286,23.01776 1.42196,27.45531 4.72838,26.5907 2.18282,-0.57079 9.32658,-2.11238 15.87503,-3.42575 6.54845,-1.31334 15.1805,-3.06507 19.18233,-3.89272 8.04925,-1.66468 9.45604,-7.49484 3.70592,-15.35856 -2.87216,-3.92796 -6.71212,-4.7882 -19.64175,-4.40022 -16.73067,0.50203 -21.9222,-2.36405 -16.37949,-9.0426 2.12768,-2.56369 8.33765,-3.85284 18.55966,-3.85284 15.43437,0 16.8604,0.69339 27.21499,13.23297 6.88884,8.34244 10.15317,3.53691 9.18167,-13.51663 l -0.81283,-14.26846 -24.58857,-0.24685 c -26.64185,-0.26747 -35.13409,-3.65248 -26.02889,-10.37513 5.90617,-4.36069 12.01203,-28.43044 10.25278,-40.41706 -1.60187,-10.91417 3.23542,-17.37089 10.21538,-13.63531 3.39403,1.81642 5.01383,5.55544 5.01383,11.57348 l 0,8.89018 15.97653,-0.15055 c 17.85782,-0.16827 24.02427,3.21181 18.34463,10.05535 -2.47754,2.98525 -6.01126,3.82933 -11.66185,2.78562 -4.45895,-0.8236 -11.67908,-0.53128 -16.04471,0.64963 -6.52337,1.76457 -7.93752,3.5273 -7.93752,9.89425 0,7.73543 0.0212,7.74583 14.61731,6.87995 19.29142,-1.14451 23.8769,3.61617 25.55965,26.53633 0.97988,13.34672 0.13547,18.74262 -4.24186,27.10384 l -5.46535,10.43955 6.59329,13.23105 c 7.45145,14.95306 8.31357,23.34558 2.86293,27.86922 -2.95926,2.45595 -4.60008,1.85429 -7.93751,-2.91058 z M 90.44739,897.74251 c -1.850066,-2.99347 -2.907232,-53.36511 -1.156729,-55.11562 2.751689,-2.75167 9.482829,2.13887 10.485857,7.61856 3.218472,17.58311 -4.266118,55.68916 -9.329128,47.49706 z M 67.46517,813.62347 c -1.840763,-2.21798 -2.879519,-4.38947 -2.308349,-4.82556 0.571173,-0.43608 4.753397,-3.35487 9.293836,-6.48614 9.20436,-6.34774 12.889463,-17.93093 8.977789,-28.2194 -3.5043,-9.21702 1.531273,-11.2894 9.421124,-3.87729 7.6553,7.19178 8.20179,16.26688 1.5576,25.86595 -2.673627,3.86266 -5.612829,9.10664 -6.531562,11.65326 -0.918733,2.54662 -3.493734,4.63021 -5.722221,4.63021 -2.228489,0 -4.051798,1.19063 -4.051798,2.64584 0,4.0443 -6.872669,3.14818 -10.636419,-1.38687 z"
       id="path3205"
       inkscape:connector-curvature="0" />
  </g>
</svg>
