<?xml version="1.0" encoding="UTF-8" standalone="no"?>
<svg
   xmlns:dc="http://purl.org/dc/elements/1.1/"
   xmlns:cc="http://creativecommons.org/ns#"
   xmlns:rdf="http://www.w3.org/1999/02/22-rdf-syntax-ns#"
   xmlns:svg="http://www.w3.org/2000/svg"
   xmlns="http://www.w3.org/2000/svg"
   viewBox="0 0 300 300"
   height="300"
   width="300"
   id="svg113"
   version="1.1">
  <metadata
     id="metadata119">
    <rdf:RDF>
      <cc:Work
         rdf:about="">
        <dc:format>image/svg+xml</dc:format>
        <dc:type
           rdf:resource="http://purl.org/dc/dcmitype/StillImage" />
        <dc:title></dc:title>
      </cc:Work>
    </rdf:RDF>
  </metadata>
  <defs
     id="defs117" />
  <path
     id="path123"
     d="m 213.74435,268.08903 c 0.36652,-19.45847 1.07092,-76.45951 -20.58236,-88.69532 -13.61111,-7.69135 -36.95347,-9.66186 -47.06453,-20.36039 -4.08513,-4.48986 -5.21092,-13.16524 -5.15531,-17.79186 -13.92131,4.89048 -36.01462,21.54056 -49.141271,33.6117 -5.079383,4.67095 -11.755895,10.0583 -16.052626,6.2752 -3.657322,-3.22011 1.402675,-9.42355 6.952726,-14.50963 18.144481,-16.62765 41.719671,-31.70065 58.235951,-38.72229 l 0.005,-32.084669 c -13.28344,4.674669 -34.0732,18.535929 -47.656537,29.167089 -7.612928,5.95835 -13.485679,8.8783 -16.559229,5.73935 -3.825996,-3.90741 4.880348,-12.23802 10.252747,-16.61902 14.780749,-12.05318 38.338509,-25.255791 53.979459,-31.111334 l 0.007,-27.977604 c -19.4174,4.519931 -36.21543,14.03079 -52.148946,22.378212 -7.977851,4.179523 -10.870374,5.456786 -13.168356,2.507802 -3.41973,-4.388514 0.875806,-8.855223 9.397276,-13.793973 31.999326,-18.545699 61.254196,-27.533401 95.975866,-29.220982 14.36945,-0.698399 23.14863,-0.482338 22.96317,-11.803644 -0.055,-3.35969 1.3948,-9.991916 5.16893,-10.076886 3.72402,-0.08384 5.48616,6.608126 5.54263,9.703515 0.41927,22.980931 -14.8215,22.534521 -34.02278,23.367283 -12.52247,0.543101 -18.80033,2.227099 -28.19233,4.344379 v 26.805564 c 10.7133,-3.233944 19.59174,-4.921232 30.94018,-6.326595 8.10061,-1.003158 20.76871,-2.305826 20.78286,-7.558195 0.0139,-5.146424 0.81397,-10.876283 5.55934,-11.103978 4.78193,-0.229448 5.86219,5.925954 5.89056,10.94831 0.0999,17.676152 -21.98347,18.298682 -31.50008,19.417771 -12.16444,1.430456 -19.86379,3.566502 -31.67286,7.769299 l 0.0527,30.302966 c 10.02711,-3.93111 20.94836,-6.87916 31.8416,-8.98443 8.69581,-1.6806 21.54648,-3.82004 21.70587,-11.11934 0.1267,-5.802089 0.74205,-9.847231 6.12544,-9.84429 4.44041,0.0024 4.87619,7.116061 4.88088,11.07753 0.0211,17.83785 -19.22652,19.50856 -32.51572,22.14773 -9.53908,1.89441 -21.96868,6.14202 -32.02747,10.26828 -0.2707,6.64277 -0.36987,11.42996 2.88892,15.21408 13.22789,11.33998 29.95889,9.34512 43.64118,17.46064 29.42634,17.45396 26.73128,72.36392 26.10307,99.69245 -0.37506,6.45169 0.66518,16.24173 -5.2585,16.41303 -7.36063,0.21286 -6.30073,-10.17794 -6.17397,-16.90775 z"
     style="fill:#000000;stroke-width:0.69610667" />
</svg>
