<?xml version="1.0" encoding="UTF-8" standalone="no"?>
<!-- Created with Inkscape (http://www.inkscape.org/) -->

<svg
   xmlns:dc="http://purl.org/dc/elements/1.1/"
   xmlns:cc="http://creativecommons.org/ns#"
   xmlns:rdf="http://www.w3.org/1999/02/22-rdf-syntax-ns#"
   xmlns:svg="http://www.w3.org/2000/svg"
   xmlns="http://www.w3.org/2000/svg"
   xmlns:sodipodi="http://sodipodi.sourceforge.net/DTD/sodipodi-0.dtd"
   xmlns:inkscape="http://www.inkscape.org/namespaces/inkscape"
   width="300"
   height="300"
   id="svg2"
   version="1.1"
   inkscape:version="0.48.4 r9939"
   sodipodi:docname="image-seal.svg">
  <defs
     id="defs4" />
  <sodipodi:namedview
     id="base"
     pagecolor="#ffffff"
     bordercolor="#666666"
     borderopacity="1.0"
     inkscape:pageopacity="0.0"
     inkscape:pageshadow="2"
     inkscape:zoom="2.0018437"
     inkscape:cx="145.03351"
     inkscape:cy="130.6666"
     inkscape:document-units="px"
     inkscape:current-layer="layer1"
     showgrid="false"
     inkscape:window-width="1215"
     inkscape:window-height="1000"
     inkscape:window-x="65"
     inkscape:window-y="24"
     inkscape:window-maximized="1"
     fit-margin-top="10"
     fit-margin-left="10"
     fit-margin-right="10"
     fit-margin-bottom="10" />
  <metadata
     id="metadata7">
    <rdf:RDF>
      <cc:Work
         rdf:about="">
        <dc:format>image/svg+xml</dc:format>
        <dc:type
           rdf:resource="http://purl.org/dc/dcmitype/StillImage" />
        <dc:title />
      </cc:Work>
    </rdf:RDF>
  </metadata>
  <g
     inkscape:label="Calque 1"
     inkscape:groupmode="layer"
     id="layer1"
     transform="translate(0,-752.36218)">
    <path
       style="fill:#000000"
       d="m 144.8167,1043.4666 c -0.80112,-2.0877 -0.26328,-6.8699 1.19515,-10.6273 3.51594,-9.058 14.69745,-63.23017 16.63578,-80.59704 0.84426,-7.56409 2.05494,-29.50622 2.69044,-48.76028 1.34226,-40.66605 4.0195,-48.82344 18.43797,-56.17919 11.63107,-5.93373 25.21019,-22.42376 26.27434,-31.90671 0.87691,-7.81459 -3.44133,-17.53932 -10.34889,-23.30591 -2.54908,-2.12805 -14.3869,-6.48992 -26.30624,-9.69309 -39.89781,-10.72199 -27.22599,-20.34454 14.29364,-10.85412 18.39953,4.20571 28.12348,11.82872 35.19809,27.59325 3.26054,7.2655 3.21768,9.73382 -0.38403,22.12334 -4.05575,13.95124 -13.32228,25.34234 -32.62405,40.1039 -9.36067,7.15884 -10.66798,14.31842 -12.37639,67.78034 -0.63435,19.85126 -2.25897,38.15897 -3.61021,40.68381 -1.35126,2.52485 -2.50623,9.44686 -2.56659,15.38226 -0.0603,5.93541 -1.85056,15.29254 -3.97821,20.79374 -2.12765,5.5011 -4.32991,14.2631 -4.89391,19.471 -1.76905,16.3353 -13.62967,28.4346 -17.63689,17.992 z m 84.08523,-10.5824 c -6.45114,-8.2002 -12.45698,-21.9101 -12.45698,-28.4363 0,-2.5826 -1.00306,-4.69562 -2.22902,-4.69562 -1.22596,0 -4.15955,-4.78226 -6.51907,-10.62724 -11.55652,-28.62741 -14.51734,-41.41323 -15.6492,-67.57777 -1.09071,-25.2136 -0.78629,-27.50113 4.73942,-35.61541 3.24774,-4.76918 8.15545,-8.80851 10.90602,-8.97627 15.50592,-0.94578 27.1451,3.49806 30.93223,11.80989 7.19089,15.7823 -1.06903,23.64461 -9.87368,9.39838 -4.64578,-7.51703 -6.41378,-8.57723 -12.00316,-7.19794 -3.60516,0.88966 -7.6801,2.71965 -9.05539,4.06663 -1.37528,1.34698 -2.40098,12.80102 -2.27933,25.45347 0.30844,32.08114 9.29919,59.4202 33.29597,101.24638 4.97895,8.6783 4.39786,18.0283 -1.12046,18.0283 -1.8027,0 -5.71203,-3.0944 -8.68735,-6.8765 z m -136.865762,-7.3167 c -1.02731,-2.5084 -1.81456,-14.7923 -1.74943,-27.29756 0.1104,-21.20004 0.56748,-23.18589 6.76279,-29.38119 3.654422,-3.6544 7.600872,-6.64438 8.769922,-6.64438 3.08743,0 19.34515,-15.39157 22.45058,-21.25448 2.7215,-5.13811 4.10409,-26.96381 3.24721,-51.26081 -0.26678,-7.56409 -1.05257,-12.34635 -1.74626,-10.62724 -0.86114,2.13415 -7.59296,3.12566 -21.22145,3.12566 -31.601565,0 -36.93947,-4.78538 -37.05563,-33.21995 -0.102546,-25.10272 3.218942,-30.5757 20.749138,-34.18941 7.11065,-1.46579 17.429402,-2.93297 22.930562,-3.26037 8.87772,-0.52838 10.09105,-1.36831 10.79335,-7.47175 l 0.79121,-6.87645 -16.30186,0 c -25.129292,0 -31.863603,-4.80166 -35.069849,-25.00527 -2.696833,-16.99366 9.244767,-20.81661 12.404967,-3.97129 2.3316,12.42848 6.56268,14.84971 26.345412,15.07606 16.64361,0.19054 17.67598,0.56162 24.82373,8.92501 7.79472,9.12039 9.17511,13.62842 4.9691,16.22787 -1.37529,0.84998 -2.50053,3.60006 -2.50053,6.11131 0,8.32893 -10.76437,12.63627 -31.79373,12.72216 -24.088202,0.0985 -28.232943,2.70167 -28.180624,17.69983 0.021,6.0372 0.887882,12.31287 1.926282,13.94594 3.1235,4.91229 15.05972,8.28315 29.330542,8.28315 10.18668,0 14.08655,1.06562 16.0146,4.37592 2.17744,3.73839 2.55984,3.37054 2.62478,-2.52501 0.12478,-11.32771 -7.49963,-15.69463 -25.76235,-14.75543 -11.833992,0.60857 -16.509652,-0.14203 -18.911472,-3.03609 -5.814452,-7.00598 -0.53553,-9.06664 23.017832,-8.98515 25.83737,0.0895 30.58523,2.19879 34.32872,15.25157 4.02359,14.02941 2.9836,73.23404 -1.52875,87.02975 -3.50244,10.70808 -5.68658,13.0555 -19.85931,21.34402 -18.10982,10.59104 -19.0901,12.7677 -19.63214,43.59238 -0.27914,15.8741 -1.03647,19.0475 -4.716032,19.7614 -2.47156,0.4795 -5.19816,-1.1387 -6.25131,-3.7102 z M 76.939881,946.54919 c -4.320446,-4.5989 -5.571437,-9.69492 -6.509072,-26.51519 -0.638392,-11.45219 -0.557863,-22.39315 0.178962,-24.31328 2.310525,-6.02112 7.703917,-3.8154 10.53607,4.30891 2.247297,6.44661 3.699867,7.53724 8.371327,6.28547 3.10872,-0.83302 8.6214,-1.52992 12.250382,-1.54872 5.55135,-0.0288 6.85865,-1.42263 8.24002,-8.78598 0.90304,-4.81351 2.73265,-8.75184 4.06583,-8.75184 4.60529,0 12.57597,16.03638 11.18571,22.50474 -0.73901,3.43823 -1.89305,10.75057 -2.56457,16.24963 -2.19456,17.97131 -11.23714,25.44619 -31.465192,26.01008 -6.29073,0.17529 -10.526496,-1.43833 -14.289459,-5.44382 z m 31.123869,-15.67423 c 1.84749,-2.52661 3.35906,-6.62922 3.35906,-9.11695 0,-3.86126 -2.19544,-4.52313 -15.003162,-4.52313 -14.947011,0 -15.003163,0.0275 -15.003163,7.37733 0,4.40751 1.761573,8.38279 4.375923,9.87501 6.37991,3.64154 18.391822,1.69328 22.271342,-3.61226 z"
       id="path3119"
       inkscape:connector-curvature="0" />
  </g>
</svg>
