<?xml version="1.0" encoding="UTF-8" standalone="no"?>
<!-- Created with Inkscape (http://www.inkscape.org/) -->

<svg
   xmlns:dc="http://purl.org/dc/elements/1.1/"
   xmlns:cc="http://creativecommons.org/ns#"
   xmlns:rdf="http://www.w3.org/1999/02/22-rdf-syntax-ns#"
   xmlns:svg="http://www.w3.org/2000/svg"
   xmlns="http://www.w3.org/2000/svg"
   xmlns:sodipodi="http://sodipodi.sourceforge.net/DTD/sodipodi-0.dtd"
   xmlns:inkscape="http://www.inkscape.org/namespaces/inkscape"
   width="300"
   height="300"
   id="svg2"
   version="1.1"
   inkscape:version="0.48.4 r9939"
   sodipodi:docname="image-seal.svg">
  <defs
     id="defs4" />
  <sodipodi:namedview
     id="base"
     pagecolor="#ffffff"
     bordercolor="#666666"
     borderopacity="1.0"
     inkscape:pageopacity="0.0"
     inkscape:pageshadow="2"
     inkscape:zoom="2.0018437"
     inkscape:cx="145.03351"
     inkscape:cy="130.6666"
     inkscape:document-units="px"
     inkscape:current-layer="layer1"
     showgrid="false"
     inkscape:window-width="1215"
     inkscape:window-height="1000"
     inkscape:window-x="65"
     inkscape:window-y="24"
     inkscape:window-maximized="1"
     fit-margin-top="10"
     fit-margin-left="10"
     fit-margin-right="10"
     fit-margin-bottom="10" />
  <metadata
     id="metadata7">
    <rdf:RDF>
      <cc:Work
         rdf:about="">
        <dc:format>image/svg+xml</dc:format>
        <dc:type
           rdf:resource="http://purl.org/dc/dcmitype/StillImage" />
        <dc:title />
      </cc:Work>
    </rdf:RDF>
  </metadata>
  <g
     inkscape:label="Calque 1"
     inkscape:groupmode="layer"
     id="layer1"
     transform="translate(0,-752.36218)">
    <path
       style="fill:#000000"
       d="m 203.0122,1044.7543 c -5.8852,-6.7395 -11.63252,-51.80389 -11.30539,-88.6448 0.11216,-12.63006 0.48821,-52.27213 0.83568,-88.09347 0.46129,-47.55204 -0.12086,-65.38065 -2.15728,-66.05943 -1.53401,-0.51132 -5.7963,1.15418 -9.47173,3.70113 -3.67546,2.54694 -8.37225,5.23547 -10.43734,5.97447 -3.14263,1.12462 -3.84735,7.49317 -4.32316,39.06913 l -0.56846,37.72552 8.55332,0 c 8.60015,0 10.29893,2.35166 8.73085,12.08619 -0.58776,3.64874 -1.40589,38.83565 -2.17786,93.66798 -0.39846,28.30078 -0.64067,29.61118 -5.47374,29.61118 -4.98437,0 -5.03402,-0.5456 -3.46332,-38.07153 0.87641,-20.93933 1.99738,-45.98718 2.49103,-55.66191 0.85254,-16.70819 -1.97979,-31.96296 -5.93448,-31.96296 -1.64991,0 -2.55672,7.68998 -6.41342,54.38785 -1.28493,15.55843 -10.06879,48.92125 -13.42645,50.99645 -1.12082,0.6928 -2.03785,2.9433 -2.03785,5.0013 0,2.0583 -3.31885,10.696 -7.37519,19.1953 -5.33762,11.1841 -8.67672,15.4534 -12.08619,15.4534 -5.81971,0 -5.86175,-1.1953 -0.32695,-9.2957 2.41124,-3.5289 5.89603,-11.3113 7.74401,-17.2939 1.84797,-5.9827 5.14083,-14.1409 7.31748,-18.12931 4.0526,-7.4259 7.74674,-24.75358 12.11048,-56.80511 2.42174,-17.78758 3.37872,-115.73974 1.15252,-117.96594 -0.62348,-0.62348 -3.91764,0.6906 -7.32039,2.92017 -6.19112,4.05658 -10.88472,3.43347 -10.88472,-1.44508 0,-4.16765 9.18787,-10.98731 24.52483,-18.20344 12.51626,-5.88897 14.57909,-7.85738 16.78494,-16.01664 1.38324,-5.1164 2.32893,-12.18682 2.10159,-15.71205 -0.90767,-14.07436 0.01,-17.28709 4.93339,-17.28709 4.34402,0 4.83448,1.6115 4.83448,15.88471 0,18.2713 0.54242,19.04617 21.0325,30.04593 19.40609,10.41783 28.53627,17.81593 26.35089,21.35194 -2.8746,4.65122 -7.42179,3.26827 -19.4489,-5.91513 -6.36391,-4.85917 -12.34694,-7.80762 -13.48911,-6.6474 -2.53614,2.57627 -3.69689,40.26669 -1.35669,44.05319 0.93503,1.51293 4.76594,2.75075 8.51312,2.75075 10.89838,0 12.12561,3.67173 10.5335,31.51517 -0.79534,13.90946 -1.42037,30.7287 -1.38892,37.3761 0.0788,16.67602 5.001,60.43319 8.08716,71.89453 1.90178,7.0624 1.80169,10.3479 -0.3959,12.9957 -8.87892,10.6985 -13.97637,-21.89738 -14.13811,-90.4069 -0.12642,-53.58499 -0.15518,-53.87194 -5.56595,-55.9066 -3.51633,-1.32223 -5.99207,-1.08108 -7.00407,0.68222 -2.45642,4.28006 -0.28477,127.02415 2.48599,140.50988 1.36573,6.6474 3.41732,17.0479 4.55903,23.1122 2.88173,15.307 0.58533,20.7658 -5.70522,13.562 z M 75.267575,1021.607 c -0.83373,-1.3488 -0.49012,-4.4006 0.76361,-6.7811 6.06654,-11.5198 17.22219,-37.51091 17.22219,-40.12547 0,-1.62093 2.21298,-8.91443 4.91775,-16.20782 5.041435,-13.59428 7.353015,-44.56243 3.760225,-50.37569 -3.075185,-4.97574 -8.512875,4.35286 -8.601105,14.75557 -0.0423,4.98555 -0.99245,9.06464 -2.11149,9.06464 -1.11903,0 -3.33943,4.62296 -4.93421,10.27326 -1.59477,5.65029 -6.90762,18.70337 -11.80636,29.00685 -8.7083,18.31609 -15.06614,23.99884 -15.06614,13.46643 0,-5.51232 5.02495,-21.65668 7.38901,-23.73969 0.75442,-0.66474 3.83848,-7.73516 6.85345,-15.71205 3.01497,-7.97688 6.31656,-16.13506 7.33685,-18.12928 1.02029,-1.99422 3.23136,-9.60852 4.91352,-16.92066 1.68215,-7.31215 4.0414,-15.83228 5.24279,-18.93362 1.33954,-3.45798 1.25054,-9.10668 -0.23012,-14.60553 -1.32798,-4.9317 -2.16149,-15.75585 -1.85225,-24.05364 0.30923,-8.2978 -0.55063,-15.86615 -1.91081,-16.81856 -7.10856,-4.97741 -11.13237,-15.66583 -9.74603,-25.88826 1.93925,-14.29963 7.89209,-27.81399 12.25155,-27.81399 4.60489,0 4.59703,7.19198 -0.0169,16.04004 -5.5982,10.73425 -4.31192,27.47024 2.11136,27.47024 2.65807,0 7.47724,-8.13149 12.893295,-21.75514 1.32134,-3.3237 4.73711,-11.23905 7.59059,-17.58964 2.8535,-6.35059 5.18819,-12.88743 5.18819,-14.52627 0,-1.63886 2.08274,-4.28044 4.62833,-5.87018 3.67882,-2.29747 5.19931,-2.20247 7.41145,0.46297 2.16248,2.60564 1.19665,6.48941 -4.33121,17.41673 -11.39667,22.52853 -18.65095,41.39384 -16.67643,43.36836 0.7435,0.74349 3.61124,0.63472 6.37274,-0.24175 5.35215,-1.69871 17.09854,-24.32657 17.09854,-32.93805 0,-6.90871 8.22437,-4.9834 9.24289,2.16374 0.43039,3.02022 -1.47318,10.15102 -4.23016,15.84623 -2.75701,5.69518 -5.01273,11.69056 -5.01273,13.32306 0,5.05135 -10.44754,14.14628 -19.58607,17.0503 -16.060855,5.10381 -18.282125,19.83834 -6.5964,43.75657 6.41363,13.12737 7.60257,18.23057 7.31286,31.3881 -0.69925,31.7569 -10.80118,69.82808 -26.938655,101.524 -2.24963,4.4185 -8.77539,6.0114 -10.85332,2.6493 z M 128.1649,960.04448 c -0.83895,-3.34261 -0.63198,-7.49895 0.45988,-9.23637 1.78712,-2.84368 4.11946,-16.8662 6.75732,-40.62612 0.51659,-4.65319 1.03878,-19.06597 1.16042,-32.0284 0.20716,-22.07265 0.53539,-23.56807 5.17414,-23.56807 4.69007,0 4.9309,1.28317 4.53655,24.17124 -0.41796,24.25775 -5.06217,65.14632 -8.90529,78.40386 -2.66104,9.17979 -7.24178,10.61832 -9.18302,2.88386 z"
       id="path3015"
       inkscape:connector-curvature="0" />
  </g>
</svg>
