<?xml version="1.0" encoding="UTF-8" standalone="no"?>
<!-- Created with Inkscape (http://www.inkscape.org/) -->

<svg
   xmlns:dc="http://purl.org/dc/elements/1.1/"
   xmlns:cc="http://creativecommons.org/ns#"
   xmlns:rdf="http://www.w3.org/1999/02/22-rdf-syntax-ns#"
   xmlns:svg="http://www.w3.org/2000/svg"
   xmlns="http://www.w3.org/2000/svg"
   xmlns:sodipodi="http://sodipodi.sourceforge.net/DTD/sodipodi-0.dtd"
   xmlns:inkscape="http://www.inkscape.org/namespaces/inkscape"
   width="300"
   height="300"
   viewBox="0 0 300 300"
   id="svg2"
   version="1.1"
   inkscape:version="0.91 r13725"
   sodipodi:docname="旗-seal.svg">
  <defs
     id="defs4">
    <clipPath
       clipPathUnits="userSpaceOnUse"
       id="clipPath4204">
      <rect
         style="fill:#0000ff;fill-rule:evenodd;stroke:#000000;stroke-width:1px;stroke-linecap:butt;stroke-linejoin:miter;stroke-opacity:1"
         id="rect4206"
         width="15.451179"
         height="21.584471"
         x="164.41942"
         y="794.64594" />
    </clipPath>
  </defs>
  <sodipodi:namedview
     id="base"
     pagecolor="#ffffff"
     bordercolor="#666666"
     borderopacity="1.0"
     inkscape:pageopacity="0.0"
     inkscape:pageshadow="2"
     inkscape:zoom="1.7233333"
     inkscape:cx="150"
     inkscape:cy="150"
     inkscape:document-units="px"
     inkscape:current-layer="layer1"
     showgrid="false"
     inkscape:window-width="1280"
     inkscape:window-height="755"
     inkscape:window-x="0"
     inkscape:window-y="1"
     inkscape:window-maximized="1"
     units="px"
     showguides="false" />
  <metadata
     id="metadata7">
    <rdf:RDF>
      <cc:Work
         rdf:about="">
        <dc:format>image/svg+xml</dc:format>
        <dc:type
           rdf:resource="http://purl.org/dc/dcmitype/StillImage" />
        <dc:title></dc:title>
      </cc:Work>
    </rdf:RDF>
  </metadata>
  <g
     inkscape:label="Layer 1"
     inkscape:groupmode="layer"
     id="layer1"
     transform="translate(0,-752.36216)">
    <path
       style="fill:#000000"
       d="m 207.43377,1036.8402 c -1.37136,-0.8707 -4.91152,-11.3435 -6.06377,-17.9383 -1.30158,-7.4495 -2.38096,-27.96343 -2.39344,-45.48783 -0.005,-7.2576 -0.21349,-17.4513 -0.46294,-22.6526 l -0.45354,-9.457 -10.77784,0.1898 -10.77783,0.1898 -0.9156,25.9186 c -0.86311,24.4329 -1.05268,26.6713 -3.30709,39.05073 -3.79616,20.8452 -5.73424,25.2385 -11.12425,25.2168 -1.4428,-0.01 -2.98123,-0.2391 -3.41873,-0.5184 -0.58008,-0.3703 -0.0704,-4.3441 1.88257,-14.6766 2.66682,-14.1095 2.68224,-14.2918 3.68008,-43.54323 1.20343,-35.2778 2.30581,-31.7935 -10.05889,-31.7935 -7.83642,0 -8.33359,-0.085 -9.94527,-1.6965 -1.21524,-1.21519 -1.69649,-2.45329 -1.69649,-4.36449 0,-2.37358 0.26958,-2.79661 2.44251,-3.83281 2.20968,-1.05372 6.55709,-1.16475 45.60578,-1.16475 l 43.16327,0 2.06119,1.90069 c 1.23128,1.13541 2.1401,2.73556 2.25718,3.97418 0.17327,1.83317 -0.1645,2.25973 -2.91424,3.68038 -2.78496,1.4388 -3.6162,1.5495 -7.94836,1.0591 -6.41329,-0.7261 -13.91452,-0.7342 -14.63066,-0.016 -0.3162,0.3171 -0.55736,14.0021 -0.53592,30.4111 0.0386,29.51713 0.0616,29.99343 2.16656,44.78283 1.17017,8.2216 1.97035,15.7709 1.77817,16.7763 -0.62459,3.2672 -5.07662,5.6016 -7.61245,3.9915 z M 82.582911,1025.9836 c -3.094947,-3.0949 -1.836784,-10.2652 4.153164,-23.6693 2.16118,-4.83623 5.245055,-11.74773 6.853064,-15.35913 5.834955,-13.1043 12.177041,-35.3777 17.288561,-60.71734 2.99493,-14.84686 3.79195,-22.38071 3.01896,-28.53676 -0.65668,-5.2299 -2.81038,-10.90929 -4.83004,-12.73706 -1.56967,-1.42054 -1.20405,-2.32661 -4.35454,10.79117 -2.35881,9.82139 -2.76676,10.78573 -17.543476,41.46972 -8.320677,17.27797 -16.194843,33.73467 -17.498141,36.57037 -2.615226,5.6903 -5.361048,9.2498 -8.312785,10.7762 -3.178531,1.6436 -4.567927,1.2885 -5.453284,-1.3942 -1.244766,-3.7717 -0.164589,-8.1815 3.87645,-15.8257 13.464134,-25.4691 28.559971,-56.78763 31.194804,-64.71813 5.351073,-16.10603 5.699564,-18.49251 5.699564,-39.03084 0,-16.77815 -0.09709,-18.27086 -1.209534,-18.59639 -0.665243,-0.19467 -3.853227,-0.97253 -7.084409,-1.72857 -3.231182,-0.75604 -7.021749,-1.85785 -8.423481,-2.44848 -5.110676,-2.1534 -9.309255,-8.41867 -11.697237,-17.45504 -1.98516,-7.51206 -2.169614,-22.23643 -0.354812,-28.32352 1.196495,-4.01321 1.419114,-4.29241 3.930897,-4.92997 l 2.662573,-0.67583 1.376499,4.2388 c 2.070057,6.37456 2.828883,11.66279 2.83315,19.7441 0.0048,9.02 0.818357,12.08928 4.065263,15.33619 2.473426,2.47342 8.000386,4.75336 11.522975,4.75336 2.544437,0 3.36864,-8.0209 2.798777,-27.23687 -0.508384,-17.14294 0.09206,-23.14156 3.128847,-31.2581 1.61071,-4.305 3.31772,-4.84477 6.37142,-2.0147 2.37763,2.20351 2.32258,0.30226 1.14113,39.4097 -0.48132,15.93242 -0.43428,20.83708 0.20373,21.24265 1.58181,1.0055 4.82379,0.53945 8.86588,-1.27454 4.00829,-1.79881 4.08044,-1.88204 5.43589,-6.27047 1.7558,-5.68462 2.75684,-11.87641 2.77008,-17.13392 0.0137,-5.43257 1.17813,-12.46029 2.48257,-14.98278 0.57219,-1.1065 2.03607,-2.62402 3.25307,-3.37227 l 2.21272,-1.36045 1.54494,3.34134 c 3.76487,8.1425 3.53344,20.87543 -0.63357,34.85853 -1.78491,5.98959 -3.5419,8.53421 -8.08328,11.70697 -3.48994,2.43817 -5.85867,3.19382 -13.78178,4.39652 -4.48086,0.68018 -4.84964,2.07072 -3.01508,11.36885 2.27497,11.53038 4.97876,19.21557 8.31501,23.63439 7.86775,10.42078 9.39492,23.49289 5.3141,45.48736 -4.15324,22.38481 -12.22373,50.56851 -20.8234,72.71931 -5.156764,13.28273 -11.821258,27.44343 -13.623981,28.94833 -1.868384,1.5597 -4.181965,1.6659 -5.591258,0.2565 z M 177.88673,917.05525 c -2.66097,-0.33489 -7.41717,-1.42488 -10.56932,-2.42219 -5.18532,-1.6406 -5.93035,-2.10278 -7.82229,-4.85263 -5.69171,-8.27261 -6.8358,-13.62192 -6.8358,-31.96145 0,-7.90845 -0.20146,-16.30654 -0.4477,-18.66242 -0.60309,-5.77 -2.14555,-6.65252 -10.58389,-6.05553 -4.03249,0.28529 -6.43391,0.1506 -7.58159,-0.42523 -1.96045,-0.98361 -2.99059,-4.08664 -2.11832,-6.38088 0.68674,-1.80625 4.07062,-2.71173 13.12873,-3.51307 2.85104,-0.25222 5.68643,-0.71801 6.30087,-1.03508 0.69587,-0.3591 1.29669,-1.92993 1.59326,-4.16552 0.88886,-6.70063 2.99094,-8.76497 6.83849,-6.71575 2.38434,1.2699 3.19196,2.77188 3.2156,5.9802 0.0445,6.04416 -1.70657,5.65665 25.56202,5.65665 l 24.10907,0 0.74844,-3.48983 c 0.41164,-1.9194 0.74843,-4.09656 0.74843,-4.83813 0,-3.42179 5.67879,-5.55459 7.40974,-2.78289 0.45685,0.73152 1.20439,3.35848 1.6612,5.83766 1.07641,5.84194 2.07973,6.3319 11.58582,5.65796 l 6.81215,-0.48296 1.47111,1.87021 c 0.84359,1.07245 1.47111,2.86963 1.47111,4.21318 0,2.92728 -1.35606,3.53622 -10.02185,4.50028 -3.42125,0.38061 -7.23128,0.83487 -8.46673,1.00947 l -2.24628,0.31745 0,16.46602 c 0,23.90047 -1.87417,33.68136 -7.5715,39.51395 -6.36232,6.51337 -20.53033,9.00832 -38.39077,6.76053 z m 20.07381,-10.3389 c 2.24696,-0.41538 5.08593,-1.27069 6.30881,-1.9007 l 2.22342,-1.14547 -8.83314,-8.41336 -8.83314,-8.41335 -9.46124,8.70719 c -6.71461,6.17947 -9.24784,8.92287 -8.72614,9.45011 0.4043,0.40859 4.6886,1.08603 9.52066,1.5054 12.14837,1.05437 13.16894,1.06642 17.80077,0.21018 z m -23.66242,-20.99024 c 3.30422,-3.02675 6.00768,-5.70595 6.00768,-5.9538 0,-0.24784 -3.76797,-3.97696 -8.37325,-8.28692 l -8.37326,-7.83628 0.44729,11.02543 c 0.24602,6.06399 0.62311,12.81249 0.838,14.99667 l 0.3907,3.97123 1.52758,-1.20658 c 0.84017,-0.66363 4.23103,-3.68302 7.53526,-6.70975 z m 37.17335,2.22014 c 0.0348,-2.37587 0.29173,-8.51857 0.57082,-13.65045 0.27909,-5.13188 0.39575,-9.4706 0.25925,-9.64161 -0.13649,-0.17101 -3.65454,3.08488 -7.81788,7.23531 l -7.5697,7.54623 6.72869,6.38062 c 3.70078,3.50935 6.96196,6.39616 7.24707,6.41515 0.2851,0.019 0.54689,-1.90938 0.58175,-4.28525 z M 198.60846,863.41 l 9.49915,-8.81231 -6.12533,-0.52538 c -3.36893,-0.28895 -11.86853,-0.44446 -18.888,-0.34558 l -12.76266,0.1798 8.87371,9.15789 c 4.88053,5.03684 9.10551,9.1579 9.38884,9.1579 0.28332,0 4.78975,-3.96555 10.01429,-8.81232 z m -59.31967,-31.15671 c -1.35877,-1.50142 -1.45724,-3.51251 -0.2967,-6.05961 0.59062,-1.29627 7.69761,-6.4294 23.46872,-16.95064 22.26952,-14.85645 22.63399,-15.13727 23.41923,-18.04411 0.54721,-2.0257 0.60734,-4.59332 0.1915,-8.17792 -0.71794,-6.18887 -0.15333,-10.21574 1.89765,-13.5343 1.27554,-2.06387 1.7701,-2.36044 3.3113,-1.98568 0.99649,0.24231 2.58936,1.2091 3.53971,2.14843 1.6316,1.61266 1.71261,2.04369 1.45352,7.7332 -0.44461,9.76347 -0.41521,13.52183 0.12014,15.35604 0.39057,1.33817 4.74695,4.30013 19.31428,13.13207 26.54534,16.094 28.87572,18.01309 28.87572,23.77945 0,2.22909 -0.19624,2.45888 -2.463,2.88413 -2.87304,0.53899 -6.66523,-0.93078 -11.08606,-4.29669 -1.5671,-1.19316 -11.11935,-7.03444 -21.22724,-12.98064 -20.41861,-12.01172 -18.86624,-11.54084 -26.20838,-7.94981 -5.36003,2.62159 -9.22891,5.3571 -16.31589,11.53623 -7.92151,6.90676 -14.05703,10.90837 -19.8707,12.95974 -5.75908,2.03211 -6.64756,2.08134 -8.1238,0.45011 z"
       id="path4385"
       inkscape:connector-curvature="0" />
  </g>
</svg>
