<?xml version="1.0" encoding="UTF-8" standalone="no"?>
<!-- Created with Inkscape (http://www.inkscape.org/) -->
<svg
   xmlns:dc="http://purl.org/dc/elements/1.1/"
   xmlns:cc="http://web.resource.org/cc/"
   xmlns:rdf="http://www.w3.org/1999/02/22-rdf-syntax-ns#"
   xmlns:svg="http://www.w3.org/2000/svg"
   xmlns="http://www.w3.org/2000/svg"
   xmlns:sodipodi="http://sodipodi.sourceforge.net/DTD/sodipodi-0.dtd"
   xmlns:inkscape="http://www.inkscape.org/namespaces/inkscape"
   width="300"
   height="300"
   id="svg2"
   sodipodi:version="0.32"
   inkscape:version="0.45.1"
   version="1.0"
   sodipodi:docbase="C:\Documents and Settings\Martin\桌面"
   sodipodi:docname="drawing.svg"
   inkscape:output_extension="org.inkscape.output.svg.inkscape">
  <defs
     id="defs4" />
  <sodipodi:namedview
     id="base"
     pagecolor="#ffffff"
     bordercolor="#666666"
     borderopacity="1.0"
     gridtolerance="10000"
     guidetolerance="10"
     objecttolerance="10"
     inkscape:pageopacity="0.0"
     inkscape:pageshadow="2"
     inkscape:zoom="1.2311444"
     inkscape:cx="274.39089"
     inkscape:cy="211.6069"
     inkscape:document-units="px"
     inkscape:current-layer="layer1"
     width="300px"
     height="300px"
     inkscape:window-width="1024"
     inkscape:window-height="712"
     inkscape:window-x="0"
     inkscape:window-y="22" />
  <metadata
     id="metadata7">
    <rdf:RDF>
      <cc:Work
         rdf:about="">
        <dc:format>image/svg+xml</dc:format>
        <dc:type
           rdf:resource="http://purl.org/dc/dcmitype/StillImage" />
      </cc:Work>
    </rdf:RDF>
  </metadata>
  <g
     inkscape:label="Layer 1"
     inkscape:groupmode="layer"
     id="layer1">
    <path
       style="fill:#000000"
       d="M 77.830395,281.42628 C 77.830395,279.57107 79.425305,276.71315 81.374675,275.07535 C 83.324035,273.43752 86.232765,270.9332 87.838535,269.51018 C 89.444275,268.08718 93.825005,265.33423 97.573445,263.39256 C 104.78591,259.65652 119.46425,244.86028 123.43257,237.3257 C 124.73277,234.85704 126.52347,227.45323 127.41188,220.87273 C 128.98395,209.2286 128.83955,208.81118 122.0189,205.2841 C 118.16433,203.29082 112.62069,201.65448 109.6997,201.6478 C 87.011225,201.59586 77.485505,164.36696 97.460535,153.814 C 110.16789,147.10059 112.381,146.2337 116.81223,146.2337 C 122.21577,146.2337 124.01895,141.92008 124.01895,128.99347 C 124.01895,118.50661 121.34075,116.32073 108.39636,116.24268 C 104.9936,116.22216 101.56726,113.5887 98.589935,108.7055 C 93.183055,99.837604 92.865325,95.546476 97.178805,89.647449 C 100.03642,85.739425 100.72213,85.656136 103.89736,88.831367 C 105.84222,90.776245 107.78769,94.761423 108.2206,97.687317 C 109.22797,104.49638 121.65029,107.80056 159.81507,111.41082 C 189.62777,114.23101 213.13804,117.95992 218.70547,120.75128 C 220.61075,121.70653 222.1696,125.49257 222.1696,129.16469 C 222.1696,134.42756 221.01295,136.00493 216.70704,136.61416 C 204.49554,135.62284 194.26263,128.90482 182.47032,126.66164 L 172.79359,125.08961 L 171.20603,133.55197 C 169.01843,145.21295 171.71474,165.41468 176.63399,174.22014 C 179.0269,178.50347 185.49191,184.04047 192.20957,187.55998 C 198.52611,190.86931 204.04061,194.35639 204.46399,195.30903 C 210.40715,198.71885 216.4242,200.38005 218.70547,208.19273 C 218.70547,216.59115 186.55938,203.87522 171.74693,189.61747 C 159.28875,177.62582 157.99327,173.34469 158.13045,144.6193 L 158.25508,118.52057 L 149.46707,118.52057 C 139.21462,118.52057 138.2527,120.13093 136.58262,140.09051 C 135.20373,156.5703 132.84237,160.08904 123.1588,160.09385 C 111.74283,160.09952 99.801825,167.11961 99.595245,173.94683 C 99.384005,180.92732 104.73773,187.8034 110.38402,187.8034 C 116.52012,189.44718 121.91755,192.7652 128.28541,194.63571 C 139.79064,197.76869 144.80379,203.27253 144.80379,212.77101 C 144.80379,219.13485 136.51697,240.01674 130.70236,248.30509 C 124.35245,260.15118 112.69385,265.66687 103.09654,273.82958 C 90.977295,284.56882 77.830395,288.52167 77.830395,281.42628 z M 174.05039,91.571133 C 173.6699,91.190625 162.60254,89.709169 149.45631,88.279013 C 118.91472,84.956442 110.32611,81.938706 103.7061,72.203966 C 97.403205,62.9356 97.629385,52.701891 104.13711,52.701891 C 108.1035,52.701891 110.05828,55.035583 114.77664,65.403742 C 118.66603,73.950419 132.16916,77.029639 168.31117,77.611617 C 198.34295,78.095207 203.58233,78.72629 205.72158,82.117712 C 207.33815,84.680504 207.41872,86.804455 205.95171,88.183308 C 203.86989,90.140016 175.61941,93.140136 174.05039,91.571133 z M 173.67163,60.612742 C 167.32071,59.54667 155.36942,58.117962 147.11322,57.437831 C 123.75996,55.514032 116.32388,53.196307 113.10661,46.83843 C 109.78797,40.280316 109.27226,21.887346 112.27406,17.1466 C 115.10074,12.682475 121.34742,15.606113 122.65049,22.003088 C 123.24374,24.915393 124.34298,30.192862 125.09323,33.730798 C 126.75968,41.588985 132.21482,43.890503 153.20424,45.590769 C 203.81498,49.690536 204.57207,49.804159 205.99547,53.51344 C 209.24782,61.988911 197.38775,64.593742 173.67163,60.612742 z "
       id="path2240"
       sodipodi:nodetypes="cssssssssssssssssssccccssccscccsssccsccccsssssssccsssssssc" />
  </g>
</svg>
