<?xml version="1.0" encoding="UTF-8" standalone="no"?>
<svg
   xmlns:dc="http://purl.org/dc/elements/1.1/"
   xmlns:cc="http://creativecommons.org/ns#"
   xmlns:rdf="http://www.w3.org/1999/02/22-rdf-syntax-ns#"
   xmlns:svg="http://www.w3.org/2000/svg"
   xmlns="http://www.w3.org/2000/svg"
   version="1.1"
   id="svg30"
   width="300"
   height="300"
   viewBox="0 0 300 300">
  <metadata
     id="metadata36">
    <rdf:RDF>
      <cc:Work
         rdf:about="">
        <dc:format>image/svg+xml</dc:format>
        <dc:type
           rdf:resource="http://purl.org/dc/dcmitype/StillImage" />
        <dc:title></dc:title>
      </cc:Work>
    </rdf:RDF>
  </metadata>
  <defs
     id="defs34" />
  <path
     style="fill:#000000;stroke-width:0.72639227"
     d="M 60.522396,203.07787 C 56.931826,183.8161 57.327025,148.38455 57.898104,95.432256 58.208993,66.605642 56.851934,46.396716 62.37261,34.319896 67.990669,22.030048 83.02066,20.097736 92.054346,20.077814 L 197.34418,19.845619 c 16.21686,-0.03576 32.15908,0.02236 39.70127,14.574008 4.48744,8.657908 4.39024,8.378727 5.11461,66.653943 0.2345,37.25713 1.57856,71.76821 -3.91958,104.88782 -7.10493,45.28136 -37.30888,74.31826 -83.7164,74.19555 -53.08611,-0.14037 -84.749574,-30.11803 -94.001684,-77.07907 z m 159.550254,3.94777 c 4.85574,-19.24654 4.96715,-41.14188 4.56315,-58.03494 L 73.944328,147.62865 c -1.059843,19.09447 0.966953,38.97875 4.742208,57.68221 8.775197,38.48528 41.542634,59.62414 74.734804,58.8982 36.28626,-0.79361 58.82432,-26.15978 66.65131,-57.18342 z m 5.09523,-76.8023 -0.30054,-73.096447 c -0.0347,-8.449209 -1.00178,-13.840451 -6.11722,-17.215551 -5.66303,-3.671973 -8.76431,-3.849824 -67.13157,-3.849824 L 95.041393,36.52684 C 76.769518,36.677118 75.863304,39.529362 75.650798,57.456735 l -1.288862,71.937575 z"
     id="path40" />
</svg>
