<?xml version="1.0" encoding="UTF-8" standalone="no"?>
<!-- Created with Inkscape (http://www.inkscape.org/) -->

<svg
   xmlns:dc="http://purl.org/dc/elements/1.1/"
   xmlns:cc="http://creativecommons.org/ns#"
   xmlns:rdf="http://www.w3.org/1999/02/22-rdf-syntax-ns#"
   xmlns:svg="http://www.w3.org/2000/svg"
   xmlns="http://www.w3.org/2000/svg"
   xmlns:sodipodi="http://sodipodi.sourceforge.net/DTD/sodipodi-0.dtd"
   xmlns:inkscape="http://www.inkscape.org/namespaces/inkscape"
   version="1.0"
   width="300"
   height="300"
   id="svg2"
   inkscape:version="0.48.3.1 r9886"
   sodipodi:docname="dessin.svg">
  <metadata
     id="metadata2990">
    <rdf:RDF>
      <cc:Work
         rdf:about="">
        <dc:format>image/svg+xml</dc:format>
        <dc:type
           rdf:resource="http://purl.org/dc/dcmitype/StillImage" />
      </cc:Work>
    </rdf:RDF>
  </metadata>
  <sodipodi:namedview
     pagecolor="#ffffff"
     bordercolor="#666666"
     borderopacity="1"
     objecttolerance="10"
     gridtolerance="10"
     guidetolerance="10"
     inkscape:pageopacity="0"
     inkscape:pageshadow="2"
     inkscape:window-width="1215"
     inkscape:window-height="1000"
     id="namedview2988"
     showgrid="false"
     inkscape:zoom="2.2250294"
     inkscape:cx="136.51293"
     inkscape:cy="138.64666"
     inkscape:window-x="65"
     inkscape:window-y="24"
     inkscape:window-maximized="1"
     inkscape:current-layer="svg2" />
  <defs
     id="defs5" />
  <path
     style="fill:#000000"
     d="m 159.87311,271.70203 c -34.30305,-2.16471 -68.655604,-2.55814 -102.997838,-2.92807 0.327087,-5.98383 -0.859615,-12.38935 1.108506,-18.01008 9.004461,-1.42344 18.867228,2.32685 28.270513,2.37052 45.013139,-1.9802 91.494429,7.82204 137.375899,5.74566 7.66606,-3.61983 19.66512,-3.42897 19.75467,9.81575 -5.35291,9.96788 -19.6239,3.56399 -28.53858,5.36003 -18.33326,-0.41301 -36.6613,-1.22852 -54.97317,-2.35381 z m -19.48608,-68.27785 c -17.44511,-2.52142 -36.20613,-8.12179 -48.579153,-24.00959 -7.186436,-9.29515 -0.04315,-21.87191 -6.521906,-31.64797 -3.281344,-26.06311 -0.289173,-52.702188 3.538699,-78.458905 2.772479,-16.509993 7.006859,-36.031346 21.36648,-43.255168 16.48461,-8.095991 34.67288,-9.926377 52.33198,-10.742096 16.73915,1.007488 33.7938,5.797448 48.29665,16.04704 8.11676,7.373324 13.11708,19.574965 13.9927,31.572985 0.97763,31.786693 -0.42769,63.896484 -5.49573,95.158794 -3.37486,18.19864 -12.40459,36.93123 -28.23394,42.60846 -16.29724,6.33153 -33.9222,4.46992 -50.69578,2.72645 z m 47.24582,-20.53754 c 14.54973,-7.27246 19.36243,-27.35747 19.89075,-44.57507 0.38299,-7.99328 0.70657,-15.99053 1.0647,-23.98547 -37.57458,-1.99841 -75.16034,-3.68577 -112.740875,-5.51607 0.625253,21.8677 -2.200257,46.33924 10.453585,64.40449 13.2429,17.12787 34.43498,16.86714 52.45616,17.05183 9.88153,-0.35151 19.88665,-2.27263 28.87568,-7.37971 z M 199.54578,40.207526 c -17.4169,-8.230949 -36.64148,-10.260841 -55.24586,-9.792256 -15.49542,0.568831 -32.24011,8.916615 -38.28722,27.18287 -4.69397,12.09513 -5.6778,25.469554 -7.447329,38.459938 22.680649,0.511724 45.536659,0.04124 68.022279,3.4654 14.48279,1.034552 42.48513,1.652952 42.48513,1.652952 0,0 4.03816,-51.199638 -9.527,-60.968904 z"
     id="path3001"
     inkscape:connector-curvature="0"
     sodipodi:nodetypes="ccccccccccccccccccccccccccccccccc" />
</svg>
