<?xml version="1.0" encoding="UTF-8" standalone="no"?>
<svg
   xmlns:dc="http://purl.org/dc/elements/1.1/"
   xmlns:cc="http://creativecommons.org/ns#"
   xmlns:rdf="http://www.w3.org/1999/02/22-rdf-syntax-ns#"
   xmlns:svg="http://www.w3.org/2000/svg"
   xmlns="http://www.w3.org/2000/svg"
   version="1.1"
   id="svg390"
   width="300"
   height="300"
   viewBox="0 0 300 300">
  <metadata
     id="metadata396">
    <rdf:RDF>
      <cc:Work
         rdf:about="">
        <dc:format>image/svg+xml</dc:format>
        <dc:type
           rdf:resource="http://purl.org/dc/dcmitype/StillImage" />
        <dc:title></dc:title>
      </cc:Work>
    </rdf:RDF>
  </metadata>
  <defs
     id="defs394" />
  <path
     style="fill:#000000;stroke-width:0.69066566"
     d="m 142.70443,278.34106 -0.45047,-119.65994 -20.82545,-0.24967 c -5.95958,-0.0715 -9.47176,-0.1573 -11.513,-3.50531 -2.04287,-3.35072 -1.79585,-5.03633 0.99044,-6.75835 2.37398,-1.4672 2.62628,-1.4754 38.88131,-1.26499 33.55882,0.19476 36.77365,0.13128 38.35981,1.43636 3.57393,2.94059 1.59754,7.37287 -1.06738,8.54241 -2.5822,1.13324 -4.54468,0.95016 -16.36847,1.1082 l -15.88517,0.21233 -0.18821,60.6087 c -0.19754,63.61294 -0.2146,63.74961 -3.32734,65.4155 -5.05216,2.18119 -8.58541,-0.39627 -8.60607,-5.88524 z M 83.402362,170.25187 c -8.662989,-22.02991 2.91292,-43.98322 20.098548,-52.94282 15.40219,-8.02982 25.00945,-8.8848 40.75753,-9.89515 0.32005,-0.0234 0.17586,-9.681904 -0.14455,-9.681904 C 131.21917,97.363379 108.86012,92.427178 99.192491,82.889906 91.50745,75.186231 88.266563,66.131389 88.189451,52.148053 c 1.087683,-18.131601 1.987155,-28.143137 15.705469,-32.86543 5.89317,-2.028621 11.72102,-2.784792 29.14018,-3.814125 15.05369,-0.889551 43.27365,-0.449712 50.76393,0.791213 5.72371,0.948254 13.22922,3.547623 16.50726,5.716929 7.44036,4.923804 11.58986,22.805617 8.7736,39.764186 -3.96869,23.898086 -29.69151,34.821828 -52.82219,35.547761 l -0.61745,10.100733 c 18.02092,1.23628 40.69379,6.79175 51.58406,18.36323 12.03647,12.78938 15.50493,30.04814 9.28359,45.58876 -2.16927,5.41875 -8.56924,11.84953 -16.63786,16.51003 -9.24109,5.33772 -34.93408,9.49603 -35.27216,1.19874 0.0727,-4.39333 7.7761,-5.06625 12.29449,-6.00328 15.95097,-3.30795 31.46863,-10.45988 31.3199,-26.95356 -0.21302,-23.62389 -18.93288,-30.08936 -36.15182,-34.5791 -7.65733,-1.9966 -20.66664,-2.68295 -28.66536,-2.04818 -12.88645,1.02266 -33.37197,4.78127 -41.62663,13.41828 -9.693979,10.143 -11.527228,21.50435 -7.446538,32.8414 4.072802,11.31514 18.031608,14.89713 26.626528,16.28173 5.126,0.82577 10.3737,1.53133 11.30828,2.23141 5.00575,3.74969 5.03588,6.68005 -0.0472,8.61032 -18.20724,4.10281 -41.963795,-5.19454 -48.807188,-22.59723 z M 169.60311,83.977851 c 13.82857,-4.072714 23.26746,-9.90024 27.13929,-21.993934 l -95.72842,-0.431031 c 0.7518,8.918327 8.17289,14.830888 13.80764,17.483372 6.77253,3.188078 16.90245,5.341559 23.97723,6.211914 8.67875,1.067674 24.42764,0.418218 30.80426,-1.270321 z M 197.773,50.07607 c 0.40031,-11.071838 -1.04733,-18.478903 -9.82998,-21.313293 -4.84138,-1.515009 -15.2634,-2.157373 -34.53328,-2.128466 -26.11022,0.03917 -41.07331,0.578288 -44.54793,2.380667 -8.43667,4.376317 -8.15195,11.731322 -8.42242,21.968181 z"
     id="path400" />
</svg>
