<?xml version="1.0" encoding="UTF-8" standalone="no"?>
<svg
   xmlns:dc="http://purl.org/dc/elements/1.1/"
   xmlns:cc="http://creativecommons.org/ns#"
   xmlns:rdf="http://www.w3.org/1999/02/22-rdf-syntax-ns#"
   xmlns:svg="http://www.w3.org/2000/svg"
   xmlns="http://www.w3.org/2000/svg"
   viewBox="0 0 300 300"
   height="300"
   width="300"
   id="svg88"
   version="1.1">
  <metadata
     id="metadata94">
    <rdf:RDF>
      <cc:Work
         rdf:about="">
        <dc:format>image/svg+xml</dc:format>
        <dc:type
           rdf:resource="http://purl.org/dc/dcmitype/StillImage" />
        <dc:title></dc:title>
      </cc:Work>
    </rdf:RDF>
  </metadata>
  <defs
     id="defs92" />
  <path
     id="path98"
     d="m 152.38391,272.28127 0.5465,-43.50525 c 0.1966,-15.6503 4.00426,-26.75262 18.01009,-30.955 32.37823,-9.71493 54.17514,-12.76217 54.79712,-47.9266 0.62724,-35.46142 -18.59247,-35.24418 -44.84707,-36.17735 -15.46055,-0.54952 -33.08139,-1.72119 -32.93493,-19.138715 0.20279,-24.118245 27.8958,-21.206411 48.00326,-21.302404 15.1965,-0.07255 30.95374,1.627698 31.07384,-6.611194 0.16145,-11.074208 -13.42811,-9.523914 -34.37948,-9.86904 -14.23302,-0.234456 -34.66188,0.291283 -42.56999,-8.047189 -6.39907,-6.747313 -7.23092,-17.901676 -6.65905,-25.717969 0.51143,-6.642532 2.08883,-8.025086 5.29523,-8.030554 3.38959,-0.0058 5.54749,4.152813 5.62669,8.470213 0.13839,7.543714 0.24329,14.177753 5.62827,18.295915 5.16814,3.883165 22.89146,3.353614 33.39346,3.531757 26.5947,0.451118 44.74519,-0.642095 44.68006,21.843077 -0.055,18.979761 -19.33397,18.495412 -47.37372,18.296297 -9.99772,-0.071 -31.60642,-0.381477 -31.66786,9.243801 -0.0603,9.445705 18.49148,8.486905 25.37317,8.648335 36.29137,0.85129 51.90368,8.09467 52.02048,44.49658 0.14523,45.26358 -27.10467,49.651 -52.1861,57.4915 -16.10225,5.03359 -19.662,7.09729 -19.91238,23.10208 l -0.72255,43.93706 c -0.1112,5.89026 -0.8808,12.48739 -6.05682,12.641 -5.02867,0.14924 -5.2134,-6.73142 -5.13822,-12.71635 z M 61.951938,113.21803 c -0.0069,-24.461712 1.324452,-60.201807 28.800495,-60.030883 28.361467,0.176432 30.929107,36.102825 30.960347,58.201113 0.0331,23.4387 -0.64017,62.20409 -29.244441,62.38541 -30.287851,0.19199 -30.510531,-39.81422 -30.516401,-60.55564 z m 47.919172,6.33273 -36.558116,0.21493 c -0.294255,14.53646 1.927025,43.31477 18.631242,43.10886 17.080194,-0.21055 17.693914,-28.43127 17.926874,-43.32379 z m 0.10545,-13.02729 C 109.93404,90.212808 106.65025,64.496067 90.141898,64.580077 73.147203,64.666556 72.818625,88.44485 73.249743,107.06708 Z m 31.65534,37.01845 c -0.0822,-4.45222 8.28978,-5.01703 12.30658,-5.19708 l 41.88211,-0.17168 c 5.30648,0.23087 12.55397,1.16056 12.69063,5.81118 0.14472,4.92508 -4.68576,6.97476 -13.05509,6.93267 l -42.08928,-0.21169 c -6.58495,-0.0331 -11.65053,-2.59316 -11.73495,-7.1634 z"
     style="fill:#000000;stroke-width:0.6894775" />
</svg>
