<?xml version="1.0" encoding="UTF-8" standalone="no"?>
<!-- Created with Inkscape (http://www.inkscape.org/) -->

<svg
   xmlns:dc="http://purl.org/dc/elements/1.1/"
   xmlns:cc="http://creativecommons.org/ns#"
   xmlns:rdf="http://www.w3.org/1999/02/22-rdf-syntax-ns#"
   xmlns:svg="http://www.w3.org/2000/svg"
   xmlns="http://www.w3.org/2000/svg"
   xmlns:sodipodi="http://sodipodi.sourceforge.net/DTD/sodipodi-0.dtd"
   xmlns:inkscape="http://www.inkscape.org/namespaces/inkscape"
   width="300"
   height="300"
   viewBox="0 0 300 300"
   id="svg2"
   version="1.1"
   inkscape:version="0.91 r13725"
   sodipodi:docname="明-bigseal.svg">
  <defs
     id="defs4">
    <clipPath
       clipPathUnits="userSpaceOnUse"
       id="clipPath4204">
      <rect
         style="fill:#0000ff;fill-rule:evenodd;stroke:#000000;stroke-width:1px;stroke-linecap:butt;stroke-linejoin:miter;stroke-opacity:1"
         id="rect4206"
         width="15.451179"
         height="21.584471"
         x="164.41942"
         y="794.64594" />
    </clipPath>
  </defs>
  <sodipodi:namedview
     id="base"
     pagecolor="#ffffff"
     bordercolor="#666666"
     borderopacity="1.0"
     inkscape:pageopacity="0.0"
     inkscape:pageshadow="2"
     inkscape:zoom="1.71"
     inkscape:cx="150"
     inkscape:cy="150"
     inkscape:document-units="px"
     inkscape:current-layer="layer1"
     showgrid="false"
     inkscape:window-width="1280"
     inkscape:window-height="751"
     inkscape:window-x="0"
     inkscape:window-y="1"
     inkscape:window-maximized="1"
     units="px"
     showguides="false" />
  <metadata
     id="metadata7">
    <rdf:RDF>
      <cc:Work
         rdf:about="">
        <dc:format>image/svg+xml</dc:format>
        <dc:type
           rdf:resource="http://purl.org/dc/dcmitype/StillImage" />
        <dc:title></dc:title>
      </cc:Work>
    </rdf:RDF>
  </metadata>
  <g
     inkscape:label="Layer 1"
     inkscape:groupmode="layer"
     id="layer1"
     transform="translate(0,-752.36216)">
    <path
       style="fill:#000000"
       d="m 85.784862,1035.474 c 0,-1.6911 3.38222,-3.0823 7.51605,-3.0916 4.13384,-0.01 11.038878,-1.8541 15.344548,-4.0996 4.30566,-2.2456 10.67477,-4.0829 14.15361,-4.0829 8.19937,0 13.43847,-5.4506 20.47577,-21.3023 11.70302,-26.36154 14.26627,-51.26279 12.57735,-122.18608 -0.85913,-36.07708 -2.7168,-70.27097 -4.12821,-75.9864 -1.88071,-7.61593 -1.72191,-10.11063 0.59454,-9.3394 1.73839,0.57873 3.53159,3.41016 3.98488,6.29203 0.45328,2.88185 1.86652,7.69953 3.14056,10.70596 6.4417,15.20111 8.11587,24.40314 9.6595,53.09372 0.9241,17.17583 2.1027,31.93464 2.61906,32.79735 1.59882,2.6711 -3.75868,55.47803 -7.0787,69.77196 -1.72984,7.44768 -6.81483,20.71112 -11.29995,29.47438 -4.48512,8.76328 -7.60324,16.48468 -6.92915,17.15878 3.25686,3.2569 43.0122,-14.6907 53.47758,-24.14249 11.53856,-13.03824 22.77044,-29.87386 25.36252,-45.59774 4.80238,-20.19227 4.98006,-74.15153 0.30406,-92.34832 -6.92838,-26.96216 -33.21726,-48.6438 -79.64555,-65.68736 -24.99062,-9.17393 -50.672618,-19.45795 -48.795868,-19.5397 4.603758,-0.20061 66.511518,13.819 77.507058,17.55207 34.85729,11.83435 54.0793,28.71463 64.49989,56.64212 11.77146,31.54794 4.58655,110.41627 -12.81808,140.70318 -14.79193,25.74044 -50.95743,42.82784 -106.35757,50.25184 -9.01927,1.2086 -20.395848,3.061 -25.281288,4.1164 -5.89478,1.2734 -8.88261,0.8846 -8.88261,-1.1559 z m 90.192708,-56.5501 c 0,-0.85044 1.50081,-4.23266 3.33516,-7.51606 6.01561,-10.76775 10.24622,-24.93219 10.35445,-34.66751 0.0585,-5.26124 1.15327,-14.07107 2.43283,-19.57739 3.833,-16.49445 -1.83116,-61.36292 -9.70892,-76.90892 -3.72958,-7.35994 -6.28452,-13.87822 -5.67766,-14.48508 1.38763,-1.38766 15.80699,14.87772 20.68477,23.33293 4.92267,8.53305 9.25752,55.01589 7.02591,75.33945 -2.06427,18.7998 -12.08654,43.48489 -20.68163,50.93935 -6.17632,5.3567 -7.76491,6.08161 -7.76491,3.54323 z M 83.913332,920.06321 c -11.52469,-3.33462 -24.19083,-16.33661 -26.85956,-27.5717 -6.79126,-28.59087 4.45615,-53.93399 28.38157,-63.95035 11.15766,-4.67116 18.658878,-4.83244 34.872468,-0.7498 9.54857,2.40434 13.75081,5.34553 18.54849,12.98228 9.38305,14.93551 11.37125,25.29471 8.18974,42.671 -5.21264,28.46957 -33.86315,45.08761 -63.132708,36.61857 z m 38.603048,-19.26678 c 12.12546,-13.07677 13.34243,-31.49153 3.524,-53.32374 -5.06558,-11.26381 -39.455818,-11.12035 -49.016598,0.20444 -4.3682,5.17419 -9.12955,22.42571 -8.55158,30.98448 0.12682,1.87901 0.38444,6.30296 0.57234,9.83097 0.4511,8.46973 8.429,17.37055 16.82838,18.77515 15.836308,2.64825 30.605878,0.0399 36.643458,-6.47138 z M 95.475982,880.51906 c -5.52261,-8.42854 -5.33208,-12.99049 0.77325,-18.51572 7.901048,-7.15037 15.734608,-5.65547 19.628748,3.74581 2.93619,7.0886 2.76318,9.00061 -1.21197,13.3931 -7.38837,8.16405 -14.41266,8.66801 -19.190028,1.37681 z"
       id="path5237"
       inkscape:connector-curvature="0"
       sodipodi:nodetypes="sccsssscssscsssccsscssssssssssssssssssssssscsscssccsssss" />
  </g>
</svg>
