<?xml version="1.0" encoding="UTF-8" standalone="no"?>
<!-- Created with Inkscape (http://www.inkscape.org/) -->

<svg
   xmlns:dc="http://purl.org/dc/elements/1.1/"
   xmlns:cc="http://creativecommons.org/ns#"
   xmlns:rdf="http://www.w3.org/1999/02/22-rdf-syntax-ns#"
   xmlns:svg="http://www.w3.org/2000/svg"
   xmlns="http://www.w3.org/2000/svg"
   xmlns:sodipodi="http://sodipodi.sourceforge.net/DTD/sodipodi-0.dtd"
   xmlns:inkscape="http://www.inkscape.org/namespaces/inkscape"
   width="300"
   height="300"
   viewBox="0 0 300 300"
   id="svg2"
   version="1.1"
   inkscape:version="0.91 r13725"
   sodipodi:docname="昔-seal.svg">
  <defs
     id="defs4">
    <clipPath
       clipPathUnits="userSpaceOnUse"
       id="clipPath4204">
      <rect
         style="fill:#0000ff;fill-rule:evenodd;stroke:#000000;stroke-width:1px;stroke-linecap:butt;stroke-linejoin:miter;stroke-opacity:1"
         id="rect4206"
         width="15.451179"
         height="21.584471"
         x="164.41942"
         y="794.64594" />
    </clipPath>
  </defs>
  <sodipodi:namedview
     id="base"
     pagecolor="#ffffff"
     bordercolor="#666666"
     borderopacity="1.0"
     inkscape:pageopacity="0.0"
     inkscape:pageshadow="2"
     inkscape:zoom="1.7233333"
     inkscape:cx="150"
     inkscape:cy="150"
     inkscape:document-units="px"
     inkscape:current-layer="layer1"
     showgrid="false"
     inkscape:window-width="1280"
     inkscape:window-height="755"
     inkscape:window-x="0"
     inkscape:window-y="1"
     inkscape:window-maximized="1"
     units="px"
     showguides="false" />
  <metadata
     id="metadata7">
    <rdf:RDF>
      <cc:Work
         rdf:about="">
        <dc:format>image/svg+xml</dc:format>
        <dc:type
           rdf:resource="http://purl.org/dc/dcmitype/StillImage" />
        <dc:title></dc:title>
      </cc:Work>
    </rdf:RDF>
  </metadata>
  <g
     inkscape:label="Layer 1"
     inkscape:groupmode="layer"
     id="layer1"
     transform="translate(0,-752.36216)">
    <path
       style="fill:#000000"
       d="m 106.93025,1030.7516 c -16.757274,-8.8824 -21.140444,-15.7057 -25.239264,-39.28962 -6.10956,-35.15352 -2.5577,-63.19049 9.43224,-74.45446 7.7338,-7.26554 36.056864,-11.52905 77.455424,-11.65945 35.99834,-0.11353 50.27099,6.64804 54.84384,25.98151 3.10909,13.14488 2.6276,58.62116 -0.75326,71.14602 -3.82627,14.1749 -14.34782,25.8705 -25.52227,28.3701 -4.30209,0.9624 -11.71175,2.6861 -16.46589,3.8305 -4.75413,1.1444 -20.31314,2.3091 -34.57555,2.5881 -22.51895,0.4405 -27.6746,-0.4166 -39.17527,-6.5127 z m 66.18088,-9.2495 c 15.74309,-1.6209 19.7495,-3.2783 28.09264,-11.6214 8.38308,-8.3831 9.73092,-11.6698 9.73092,-23.729 0,-17.48893 -0.40724,-17.6151 -50.42269,-15.62458 -20.60127,0.8199 -43.93978,1.70486 -51.86334,1.96657 -7.92357,0.26162 -14.874614,1.46989 -15.446784,2.68482 -2.53421,5.38122 3.20838,27.41749 9.039524,34.68749 8.26714,10.3072 26.19171,16.8622 40.98282,14.9874 6.33885,-0.8035 19.78797,-2.3116 29.88691,-3.3513 z m 24.28031,-61.82054 c 12.98047,-1.94654 13.54325,-0.42478 13.54325,-9.50896 0,-5.21293 -1.41734,-13.5438 -3.14963,-18.51308 -4.31215,-12.36987 -18.21907,-15.76401 -58.74203,-14.33667 -41.97551,1.47851 -51.543754,5.81068 -56.260664,25.47291 -1.8542,7.72922 -2.52024,15.43012 -1.4801,17.11311 34.721654,2.77564 84.757194,-4.54313 106.089174,-0.22731 z m -48.82196,-61.67429 c -0.90193,-2.35036 -3.12185,-4.27708 -4.93321,-4.28166 -1.81135,-0.006 -5.88652,-3.87961 -9.05594,-8.61122 -3.16943,-4.73164 -7.05918,-9.08245 -8.64389,-9.66851 -3.21083,-1.18744 -30.606374,2.30158 -50.225584,6.39657 -13.81625,2.8838 -21.2366,1.53685 -19.54191,-3.54725 1.21744,-3.65231 9.16155,-5.81377 38.79355,-10.55514 11.489174,-1.83836 20.889404,-4.22033 20.889404,-5.29323 0,-1.07294 -3.24146,-6.72103 -7.20324,-12.55131 -3.96178,-5.8303 -7.20324,-12.6142 -7.20324,-15.07534 0,-6.06202 9.39063,-5.67777 13.86785,0.56747 1.98812,2.77325 10.14484,14.4425 18.12604,25.93167 14.67968,21.13186 22.05093,25.62847 24.79718,15.1268 0.82884,-3.16942 2.65232,-5.76259 4.0522,-5.76259 8.06615,-7.18337 20.21365,-39.34987 28.47692,-43.11538 0.79236,-0.009 3.34164,1.18649 5.66509,2.65598 3.61635,2.28723 3.30531,4.39375 -2.16097,14.63466 -3.51198,6.57955 -6.38541,13.08993 -6.38541,14.46751 0,1.37757 12.64169,2.87576 28.09264,3.32933 25.89689,0.7602 28.09264,1.27506 28.09264,6.58725 0,5.28865 -1.65876,5.69794 -20.16908,4.97632 -11.09299,-0.43245 -26.24492,-1.51516 -33.67094,-2.406 l -13.50187,-1.61972 -9.54851,14.57049 c -10.39396,15.86058 -16.0585,19.89169 -18.60972,13.2433 z m -13.86341,-59.22148 c 1.0804,-1.74811 -0.38667,-8.39206 -3.26016,-14.76434 l -5.22454,-11.58598 -14.54896,1.89094 c -35.238894,4.57999 -50.565154,5.14884 -50.565154,1.87682 0,-4.93083 10.7012,-8.06934 35.40705,-10.38449 20.281394,-1.9005 22.218894,-2.63042 22.218894,-8.37054 0,-3.45865 -1.12918,-7.52021 -2.5093,-9.02569 -4.2383,-4.6233 -6.34467,-18.11445 -3.13767,-20.09647 5.37803,-3.3238 10.56353,4.05704 23.34905,33.23429 6.90335,15.75375 13.68921,28.29589 15.07973,27.87139 1.39051,-0.4245 8.31694,-11.73768 15.39208,-25.14041 21.52248,-40.77087 22.53151,-41.8534 29.14325,-31.26633 3.26682,5.23099 3.02415,6.92033 -1.75886,12.24551 -3.05166,3.39757 -6.34928,8.4464 -7.32803,11.21965 -1.61439,4.57421 0.77257,5.04227 25.71359,5.04227 24.63307,0 27.39211,0.52454 26.52193,5.04227 -0.83491,4.33465 -4.80695,5.11459 -28.3039,5.55762 -15.03299,0.28352 -29.46417,0.60758 -32.06929,0.72032 -2.66313,0.11525 -7.70831,6.17292 -11.52519,13.83815 -6.55838,13.17084 -7.25948,13.66098 -20.67373,14.4533 -9.55706,0.56451 -13.27284,-0.17057 -11.92079,-2.35828 z"
       id="path4244"
       inkscape:connector-curvature="0"
       sodipodi:nodetypes="sssssscssssssscsssscssssccscsssssssssssccssssssscsscscssssssssssssssssssc" />
  </g>
</svg>
