<?xml version="1.0" encoding="UTF-8" standalone="no"?>
<!-- Created with Inkscape (http://www.inkscape.org/) -->

<svg
   xmlns:dc="http://purl.org/dc/elements/1.1/"
   xmlns:cc="http://creativecommons.org/ns#"
   xmlns:rdf="http://www.w3.org/1999/02/22-rdf-syntax-ns#"
   xmlns:svg="http://www.w3.org/2000/svg"
   xmlns="http://www.w3.org/2000/svg"
   xmlns:sodipodi="http://sodipodi.sourceforge.net/DTD/sodipodi-0.dtd"
   xmlns:inkscape="http://www.inkscape.org/namespaces/inkscape"
   width="300"
   height="300"
   id="svg2"
   version="1.1"
   inkscape:version="0.48.4 r9939"
   sodipodi:docname="image-seal.svg">
  <defs
     id="defs4" />
  <sodipodi:namedview
     id="base"
     pagecolor="#ffffff"
     bordercolor="#666666"
     borderopacity="1.0"
     inkscape:pageopacity="0.0"
     inkscape:pageshadow="2"
     inkscape:zoom="1.9351156"
     inkscape:cx="152.85021"
     inkscape:cy="151.83238"
     inkscape:document-units="px"
     inkscape:current-layer="layer1"
     showgrid="false"
     inkscape:window-width="1215"
     inkscape:window-height="1000"
     inkscape:window-x="65"
     inkscape:window-y="24"
     inkscape:window-maximized="1" />
  <metadata
     id="metadata7">
    <rdf:RDF>
      <cc:Work
         rdf:about="">
        <dc:format>image/svg+xml</dc:format>
        <dc:type
           rdf:resource="http://purl.org/dc/dcmitype/StillImage" />
        <dc:title />
      </cc:Work>
    </rdf:RDF>
  </metadata>
  <g
     inkscape:label="Calque 1"
     inkscape:groupmode="layer"
     id="layer1"
     transform="translate(0,-752.36218)">
    <path
       style="fill:#000000"
       d="m 110.70248,1045.3611 c 0.0214,-1.9362 0.92436,-4.8498 2.00413,-6.4747 1.83174,-2.7566 37.20255,-25.1033 39.73399,-25.1033 0.63272,0 11.68476,-10.5216 24.56009,-23.38146 26.94278,-26.9102 32.93222,-37.70451 26.89217,-48.46564 -2.15531,-3.83995 -5.8926,-6.98174 -8.30508,-6.98174 -2.41248,0 -17.74175,12.97233 -34.06503,28.82743 -16.32331,15.85509 -32.64106,30.17716 -36.26171,31.82682 -3.62064,1.64969 -6.58298,3.87645 -6.58298,4.94839 0,1.7479 -22.005421,13.2262 -25.356421,13.2262 -0.75088,0 -1.36521,-1.9633 -1.36521,-4.3628 0,-4.2887 9.518461,-14.34237 13.578811,-14.34237 1.13984,0 3.69111,-1.5031 5.66948,-3.34021 1.97839,-1.83711 8.97849,-7.49264 15.55581,-12.56782 19.33414,-14.91863 56.0092,-51.87302 56.03013,-56.45687 0.0107,-2.32361 -3.11604,-5.90273 -6.94811,-7.95362 -6.2892,-3.36585 -7.3947,-3.20673 -11.35669,1.63478 -2.41411,2.94999 -7.14277,7.27713 -10.50815,9.61588 -3.36538,2.33873 -11.78269,9.56266 -18.70514,16.05316 -16.81288,15.76381 -27.57616,23.08179 -35.457867,24.10788 -10.000674,1.30196 -9.824314,-3.83162 0.357347,-10.40279 5.03441,-3.24916 11.55839,-8.08174 14.49777,-10.73905 2.93938,-2.65733 9.39992,-7.70133 14.35678,-11.20892 8.41325,-5.95342 30.35716,-28.06685 31.64758,-31.89205 0.31766,-0.9417 -1.12581,-3.96477 -3.20769,-6.71795 -3.62837,-4.7983 -4.26149,-4.63313 -15.27449,3.98459 -16.25423,12.71905 -15.41565,12.11543 -30.86418,22.21733 -7.71683,5.04609 -16.134141,9.76133 -18.705141,10.4783 -2.57097,0.71694 -7.38006,2.08124 -10.68686,3.03173 -8.80154,2.5299 -7.76923,-4.83883 1.33608,-9.53711 4.04165,-2.08546 8.55092,-4.71805 10.02061,-5.8502 1.46969,-1.13214 10.488241,-7.00432 20.041231,-13.04929 19.53533,-12.36167 30.85926,-23.24664 27.58051,-26.51141 -2.92022,-2.90777 -18.02895,-3.18092 -49.625861,-0.89721 -25.554,1.84695 -30.96257,0.35246 -22.71338,-6.27608 4.74471,-3.81256 55.447381,-7.24226 55.447381,-3.75065 0,1.81659 2.91626,1.89622 8.68453,0.23702 4.77649,-1.37384 27.33024,-3.26952 50.11944,-4.21266 37.2325,-1.54088 41.82237,-1.24795 45.25495,2.88807 6.0413,7.27935 -0.005,8.95143 -30.20635,8.35484 -14.89934,-0.29431 -28.59281,0.60038 -30.42992,1.98822 -5.83456,4.40771 -3.62177,11.99494 5.34432,18.32447 4.7765,3.37192 17.40247,14.90193 28.05772,25.62222 21.5725,21.70424 23.44318,27.65748 14.31063,45.54208 -6.49084,12.71126 -58.5721,61.92539 -65.69753,62.08079 -1.49842,0.033 -5.73059,2.4109 -9.40481,5.2849 -3.67423,2.874 -8.68453,5.2522 -11.13402,5.2849 -2.44947,0.033 -4.85442,1.1029 -5.34433,2.3784 -1.60426,4.1766 -12.91951,6.4067 -12.87454,2.5374 z m 16.5951,-197.93402 c -5.6698,-3.93851 -9.65565,-9.66923 -11.60638,-16.68718 -4.22352,-15.19443 -1.64814,-58.06608 4.00653,-66.69623 4.31565,-6.58648 5.29994,-6.78443 33.112,-6.65991 33.11561,0.1483 46.71444,4.62904 48.31338,15.91904 0.51926,3.66631 0.10395,20.13066 -0.92288,36.58749 -1.7597,28.20249 -2.26052,30.17936 -8.71775,34.41028 -4.39365,2.87885 -14.11033,4.85251 -27.09143,5.50286 -11.13237,0.55773 -22.0896,1.60089 -24.34939,2.31813 -2.2598,0.71723 -7.99463,-1.39527 -12.74408,-4.69448 z m 49.55508,-12.86567 c 10.66607,-3.71821 11.84332,-7.19453 12.06094,-35.61533 0.16594,-21.6631 -0.36131,-24.21731 -5.92897,-28.72576 -6.92104,-5.6043 -34.2492,-7.52104 -48.5361,-3.40417 -4.43021,1.2766 -10.42614,11.92704 -10.42614,18.51972 0,4.99782 16.17628,9.07162 35.74972,9.00308 18.59074,-0.0652 25.02697,3.99982 13.45239,8.49608 -4.45997,1.7325 -16.0931,2.5144 -27.24364,1.83113 -10.70305,-0.65585 -20.14594,-0.0826 -20.98423,1.27366 -0.83828,1.35636 -0.73746,7.71226 0.2242,14.1242 1.41945,9.4656 3.10441,12.1542 8.95949,14.29621 9.79808,3.58452 32.65787,3.69231 42.67244,0.20121 z"
       id="path3197"
       inkscape:connector-curvature="0" />
  </g>
</svg>
