<?xml version="1.0" encoding="UTF-8" standalone="no"?>
<svg
   xmlns:dc="http://purl.org/dc/elements/1.1/"
   xmlns:cc="http://creativecommons.org/ns#"
   xmlns:rdf="http://www.w3.org/1999/02/22-rdf-syntax-ns#"
   xmlns:svg="http://www.w3.org/2000/svg"
   xmlns="http://www.w3.org/2000/svg"
   viewBox="0 0 300 300"
   height="300"
   width="300"
   id="svg16"
   version="1.1">
  <metadata
     id="metadata22">
    <rdf:RDF>
      <cc:Work
         rdf:about="">
        <dc:format>image/svg+xml</dc:format>
        <dc:type
           rdf:resource="http://purl.org/dc/dcmitype/StillImage" />
        <dc:title></dc:title>
      </cc:Work>
    </rdf:RDF>
  </metadata>
  <defs
     id="defs20" />
  <path
     id="path26"
     d="m 224.88677,284.10842 c -1.5183,-0.48339 -5.24502,-2.13151 -8.28162,-3.66248 -9.02314,-4.54923 -15.11831,-6.39825 -29.67579,-9.00238 l -13.80268,-2.46912 -32.09126,-0.0919 -32.09126,-0.0919 -6.60719,-1.79191 c -3.63396,-0.98555 -9.026017,-2.79886 -11.982359,-4.02959 -4.966381,-2.06751 -5.577495,-2.55072 -8.035479,-6.35371 -6.411565,-9.91993 -7.536628,-16.23354 -7.536628,-42.29381 0,-12.62749 -0.40943,-25.0159 -1.087106,-32.89322 -1.10932,-12.8949 -0.930542,-20.27452 0.640348,-26.43242 0.828949,-3.24946 0.993675,-3.41879 4.095447,-4.21006 3.226366,-0.82306 3.233995,-0.82081 4.576883,1.35202 2.606901,4.21807 2.802638,5.92 3.168677,27.55222 0.200449,11.84591 0.657944,29.14675 1.016668,38.44631 0.920547,23.86486 2.562741,30.39282 8.735939,34.72681 3.329326,2.33741 6.90636,2.81521 26.64496,3.55907 l 12.24989,0.46165 v -58.36631 -58.36636 l -31.57366,-0.004 c -32.024795,-0.004 -38.678356,-0.40954 -40.985837,-2.49778 -1.279936,-1.15833 -1.709356,-4.56084 -0.856208,-6.78413 1.176215,-3.06516 -0.32034,-3.00821 83.791075,-3.18843 87.95114,-0.18844 82.57903,-0.44644 86.44822,4.15183 1.02611,1.21946 1.86565,2.67667 1.86565,3.23826 0,1.41042 -5.17876,3.56832 -11.56357,4.81833 -4.55925,0.8926 -10.44122,0.97515 -40.02399,0.56171 l -34.67926,-0.48465 v 31.46895 31.46894 l 2.93307,0.86545 c 4.09548,1.20845 16.2373,1.00697 23.63711,-0.3922 8.36404,-1.5815 8.14899,-1.49001 9.49397,-4.03927 2.82172,-5.34829 3.41532,-8.44388 3.93782,-20.53548 0.57768,-13.36881 1.41319,-16.66536 4.98569,-19.67141 2.68993,-2.26342 3.74352,-2.1732 5.09284,0.4361 4.45944,8.6236 4.61899,20.55513 0.50042,37.42477 -1.59723,6.54231 -2.14165,7.7917 -4.29328,9.85272 -6.45481,6.18299 -17.51761,9.18736 -33.91393,9.21015 l -10.74579,0.0151 -1.04204,19.84136 c -0.57312,10.91276 -1.01705,19.8903 -0.9865,19.95008 0.0306,0.0598 7.66429,0.59608 16.96384,1.19176 22.75709,1.45772 37.40493,4.40843 52.7953,10.63528 4.17531,1.68931 9.92069,3.97047 12.76749,5.06926 5.90881,2.28063 9.66189,5.76013 9.66189,8.95759 0,1.63425 -0.38859,2.03089 -2.58801,2.64171 -3.40524,0.94568 -8.13515,0.84551 -11.55975,-0.24482 z M 135.71501,104.94098 c -6.97004,-1.50702 -17.15584,-4.76315 -22.59738,-7.223779 C 108.59959,95.674161 97.070203,85.411512 93.986169,80.687707 85.886673,68.281769 82.124174,43.415225 86.119226,28.694661 c 1.481306,-5.458164 2.857191,-7.204639 7.499032,-9.518895 7.633292,-3.805674 11.207472,-4.161899 41.896082,-4.175571 28.11549,-0.01254 62.3952,1.197757 67.01135,2.365906 3.47968,0.880567 6.85483,3.318486 8.52107,6.154899 1.87047,3.184069 1.83221,8.665092 -0.18516,26.52259 -2.3466,20.771952 -5.45054,28.765133 -14.23544,36.658784 -9.88603,8.883067 -18.66273,14.399286 -27.98536,17.588976 -6.60453,2.25972 -23.90075,2.60097 -32.92579,0.64963 z m 29.68248,-13.014182 c 10.4605,-2.771732 16.04414,-6.60715 25.33649,-17.403757 3.46453,-4.025369 4.04537,-5.134907 4.81026,-9.188674 0.47846,-2.535778 0.7545,-4.708385 0.6134,-4.828039 -0.14108,-0.119644 -15.31871,0.02831 -33.72805,0.328701 -18.40935,0.300436 -40.06641,0.567572 -48.12682,0.593642 l -14.65529,0.04741 1.42453,3.623207 c 1.94931,4.957973 5.15579,10.063171 9.63025,15.332828 3.67516,4.328303 3.98844,4.52309 13.42486,8.347145 5.31404,2.153482 11.0594,4.17291 12.76748,4.48761 5.61607,1.03472 22.54408,0.23886 28.50289,-1.340044 z M 199.63967,44.87886 c 1.07188,-4.997999 0.92983,-11.413935 -0.30561,-13.803 -0.5791,-1.119866 -1.12258,-2.068602 -1.20773,-2.108277 -0.0851,-0.03971 -20.65181,-0.469922 -45.70369,-0.95609 -45.29161,-0.878943 -45.57492,-0.875903 -50.15819,0.537245 -3.398111,1.047735 -4.710397,1.797675 -4.994045,2.853961 -0.672727,2.505175 -0.432697,12.53057 0.354049,14.787412 l 0.757646,2.173386 h 50.25512 50.25512 z"
     style="fill:#000000;stroke-width:0.69013458" />
</svg>
