<?xml version="1.0" encoding="UTF-8" standalone="no"?>
<!-- Created with Inkscape (http://www.inkscape.org/) -->

<svg
   xmlns:dc="http://purl.org/dc/elements/1.1/"
   xmlns:cc="http://creativecommons.org/ns#"
   xmlns:rdf="http://www.w3.org/1999/02/22-rdf-syntax-ns#"
   xmlns:svg="http://www.w3.org/2000/svg"
   xmlns="http://www.w3.org/2000/svg"
   xmlns:sodipodi="http://sodipodi.sourceforge.net/DTD/sodipodi-0.dtd"
   xmlns:inkscape="http://www.inkscape.org/namespaces/inkscape"
   width="300"
   height="300"
   id="svg2"
   version="1.1"
   inkscape:version="0.48.4 r9939"
   sodipodi:docname="dessin.svg">
  <defs
     id="defs4" />
  <sodipodi:namedview
     id="base"
     pagecolor="#ffffff"
     bordercolor="#666666"
     borderopacity="1.0"
     inkscape:pageopacity="0.0"
     inkscape:pageshadow="2"
     inkscape:zoom="1.979899"
     inkscape:cx="66.959549"
     inkscape:cy="133.99264"
     inkscape:document-units="px"
     inkscape:current-layer="layer1"
     showgrid="false"
     inkscape:window-width="1215"
     inkscape:window-height="1000"
     inkscape:window-x="65"
     inkscape:window-y="24"
     inkscape:window-maximized="1" />
  <metadata
     id="metadata7">
    <rdf:RDF>
      <cc:Work
         rdf:about="">
        <dc:format>image/svg+xml</dc:format>
        <dc:type
           rdf:resource="http://purl.org/dc/dcmitype/StillImage" />
        <dc:title />
      </cc:Work>
    </rdf:RDF>
  </metadata>
  <g
     inkscape:label="Calque 1"
     inkscape:groupmode="layer"
     id="layer1"
     transform="translate(0,-752.36218)">
    <path
       style="fill:#000000"
       d="m 160.24602,1030.6463 c -6.87719,-1.1007 -31.05428,-1.7695 -53.72687,-1.4861 -37.470311,0.4684 -41.30016,0.042 -42.071753,-4.6827 -0.763293,-4.6741 1.698311,-5.1981 24.420992,-5.1981 18.011151,0 25.559331,-1.0665 26.277711,-3.7129 2.6054,-9.5983 3.73852,-103.21896 1.24927,-103.21896 -1.45387,0 -13.05326,6.01492 -25.776449,13.36649 -12.723213,7.35155 -24.487891,13.36646 -26.143768,13.36646 -1.65585,0 -3.01066,-3.27891 -3.01066,-7.28645 0,-7.4317 3.240537,-9.92567 25.007987,-19.24672 4.814028,-2.0614 14.37959,-6.20825 21.25678,-9.21517 6.8772,-3.00696 17.28677,-6.93839 23.13238,-8.73655 9.35651,-2.8781 10.6284,-4.27676 10.6284,-11.68794 0,-7.95823 -0.70023,-8.49849 -12.80555,-9.88002 -10.41262,-1.1884 -14.24558,-3.29166 -20.51195,-11.25551 -7.58466,-9.6393 -7.70117,-10.25413 -7.37632,-38.92074 0.29567,-26.09041 0.93495,-29.88907 6.13236,-36.43946 7.33407,-9.24325 29.03339,-14.18398 53.6717,-12.22048 20.97667,1.67167 27.14824,4.08982 37.92388,14.85929 7.72729,7.72288 7.98662,8.73594 7.98662,31.19994 0,39.28753 -8.49448,51.08769 -39.96262,55.51438 -12.01527,1.6902 -12.76888,2.28628 -12.05993,9.53909 0.42806,4.37931 2.38393,7.82168 4.50739,7.93316 7.41206,0.38905 19.9729,4.77848 29.78157,10.40728 5.49428,3.15295 10.99642,5.73261 12.22696,5.73261 1.23056,0 5.50503,1.85921 9.4988,4.13156 3.99377,2.27236 11.48152,6.43459 16.63942,9.24943 5.15789,2.81483 9.37799,6.15921 9.37799,7.43197 0,5.97576 -9.1432,5.19703 -22.06245,-1.87909 -23.3434,-12.7856 -36.1262,-19.13233 -36.78913,-18.26593 -1.11514,1.45741 -3.81234,38.60816 -5.27221,72.61872 l -1.42452,33.18724 10.89216,1.6059 c 5.9907,0.8833 18.76969,2.6571 28.39777,3.9419 13.01922,1.7373 17.50558,3.4778 17.50558,6.7915 0,3.6903 -4.72405,4.4556 -27.50877,4.4564 -15.12983,4e-4 -33.13558,-0.8998 -40.01277,-2.0005 z m -0.87514,-44.04053 c 0.89412,-17.15366 2.31132,-42.77518 3.14934,-56.93676 l 1.52368,-25.74825 -7.31608,-1.9086 c -7.67554,-2.00232 -25.10396,0.72695 -25.43231,3.98271 -0.10529,1.04344 -0.68122,4.57048 -1.27997,7.83784 -0.59877,3.26735 -1.80925,27.12243 -2.69001,53.01128 -1.82836,53.74181 -2.09971,52.95841 17.9157,51.72231 l 12.50399,-0.7721 1.62566,-31.18843 z M 184.51491,857.9189 c 4.90129,-3.52862 13.0836,-22.49426 10.84949,-25.14784 -3.20345,-3.80491 -69.36984,-5.83123 -78.25715,-2.3966 -12.26234,4.73892 -2.48226,29.97705 12.56442,32.42337 13.14603,2.13729 49.60249,-1.10591 54.84324,-4.87893 z m 10.62644,-40.39929 c 1.61277,-3.09944 -3.26349,-17.58007 -7.84205,-23.28789 -3.6147,-4.50625 -24.77424,-9.60832 -39.84799,-9.60832 -13.15125,0 -30.22064,7.64009 -33.543,15.01356 -3.38099,7.50349 -3.03037,16.87625 0.69815,18.6632 5.69701,2.73042 79.07808,2.01916 80.53489,-0.78055 z"
       id="path3042"
       inkscape:connector-curvature="0" />
  </g>
</svg>
