<?xml version="1.0" encoding="UTF-8" standalone="no"?>
<!-- Created with Inkscape (http://www.inkscape.org/) -->

<svg
   xmlns:dc="http://purl.org/dc/elements/1.1/"
   xmlns:cc="http://creativecommons.org/ns#"
   xmlns:rdf="http://www.w3.org/1999/02/22-rdf-syntax-ns#"
   xmlns:svg="http://www.w3.org/2000/svg"
   xmlns="http://www.w3.org/2000/svg"
   xmlns:sodipodi="http://sodipodi.sourceforge.net/DTD/sodipodi-0.dtd"
   xmlns:inkscape="http://www.inkscape.org/namespaces/inkscape"
   width="300"
   height="300"
   id="svg2"
   version="1.1"
   inkscape:version="0.48.4 r9939"
   sodipodi:docname="image-seal.svg">
  <defs
     id="defs4" />
  <sodipodi:namedview
     id="base"
     pagecolor="#ffffff"
     bordercolor="#666666"
     borderopacity="1.0"
     inkscape:pageopacity="0.0"
     inkscape:pageshadow="2"
     inkscape:zoom="2.0506101"
     inkscape:cx="150.3604"
     inkscape:cy="115.67348"
     inkscape:document-units="px"
     inkscape:current-layer="layer1"
     showgrid="false"
     inkscape:window-width="1215"
     inkscape:window-height="1000"
     inkscape:window-x="65"
     inkscape:window-y="24"
     inkscape:window-maximized="1"
     fit-margin-top="10"
     fit-margin-left="10"
     fit-margin-right="10"
     fit-margin-bottom="10" />
  <metadata
     id="metadata7">
    <rdf:RDF>
      <cc:Work
         rdf:about="">
        <dc:format>image/svg+xml</dc:format>
        <dc:type
           rdf:resource="http://purl.org/dc/dcmitype/StillImage" />
        <dc:title />
      </cc:Work>
    </rdf:RDF>
  </metadata>
  <g
     inkscape:label="Calque 1"
     inkscape:groupmode="layer"
     id="layer1"
     transform="translate(0,-752.36218)">
    <path
       style="fill:#000000"
       d="m 5.0004421,1037.3621 c -1.461e-4,0 -2.063e-4,-2e-4 -1.391e-4,-4e-4 4.4e-5,-10e-5 2.87e-5,-2e-4 -2.72e-5,-2e-4 -7.69e-5,0 -1.269e-4,0 -1.385e-4,0 -6.8e-6,10e-5 -1.78e-5,10e-5 -2.46e-5,10e-5 -9.3e-6,0 7e-6,10e-5 6.36e-5,10e-5 5.86e-5,0 7.1e-5,0 5.37e-5,0 -3.73e-5,10e-5 -1.646e-4,10e-5 -2.03e-4,0 -7.89e-5,-10e-5 2.21e-5,-2e-4 1.908e-4,-3e-4 6.61e-5,0 7.09e-5,0 6.05e-5,-10e-5 -8.5e-6,0 -2.7e-6,-10e-5 2.33e-5,-10e-5 4.7e-5,0 9.72e-5,0 9.72e-5,10e-5 0,10e-5 8e-6,10e-5 1.212e-4,10e-5 6.67e-5,0 1.588e-4,0 2.047e-4,0 7.17e-5,0 8.77e-5,0 1.134e-4,10e-5 3.69e-5,10e-5 1.59e-5,10e-5 -1.232e-4,2e-4 -5.21e-5,0 -1.171e-4,0 -1.444e-4,10e-5 -2.73e-5,0 -8.66e-5,0 -1.319e-4,0 -1.054e-4,1e-4 -1.053e-4,2e-4 2e-7,2e-4 5.99e-5,10e-5 9.96e-5,10e-5 2.425e-4,10e-5 9.4e-5,0 2.015e-4,0 2.39e-4,0 1.051e-4,-10e-5 1.062e-4,0 1.6e-6,0 -1.063e-4,10e-5 -3.627e-4,10e-5 -4.798e-4,0 z m 3.79e-5,-4e-4 c 4.93e-5,0 4.42e-5,-10e-5 -1.21e-5,-10e-5 -4.17e-5,0 -4.04e-5,0 -5.8e-5,10e-5 -1.68e-5,10e-5 2.2e-6,10e-5 7.01e-5,0 z m 2.159e-4,-10e-5 c 6.61e-5,-10e-5 7.56e-5,-10e-5 3.59e-5,-10e-5 -2.83e-5,-10e-5 -3.33e-4,-10e-5 -3.33e-4,0 0,0 3.86e-5,0 8.58e-5,0 4.72e-5,0 9.09e-5,10e-5 9.71e-5,10e-5 1.48e-5,0 4e-5,0 1.142e-4,0 z"
       id="path3223"
       inkscape:connector-curvature="0" />
    <path
       style="fill:#000000"
       d="m 5.000515,1017.3622 c -4.25e-5,0 -7.25e-5,0 -1.096e-4,0 -3.41e-5,-10e-5 -8.26e-5,-10e-5 -8.28e-5,-10e-5 -10e-8,0 -2.6e-6,0 -5.5e-6,0 -6.2e-6,0 -2.87e-5,-1e-4 -4.19e-5,-1e-4 -5.1e-6,0 -1.08e-5,0 -1.28e-5,-10e-5 -2e-6,0 -7.9e-6,0 -1.31e-5,0 -1.19e-5,0 -4.58e-5,-10e-5 -6.13e-5,-10e-5 -6.5e-6,0 -1.18e-5,0 -1.18e-5,0 0,0 -3.02e-5,-10e-5 -6.75e-5,-10e-5 -9.8e-6,0 -2.18e-5,0 -2.67e-5,0 -2.65e-5,0 -3.8e-5,10e-5 -1.72e-5,10e-5 1.28e-5,10e-5 3.97e-5,10e-5 6.99e-5,10e-5 2.39e-5,0 2.68e-5,0 1.13e-5,0 -2.27e-5,10e-5 -8.63e-5,0 -1.137e-4,0 -1.01e-5,-10e-5 -2.19e-5,-10e-5 -2.62e-5,-10e-5 -1.93e-5,0 1.02e-5,-10e-5 4.84e-5,-2e-4 2.62e-5,0 3.34e-5,0 7.02e-5,0 2.11e-5,0 3.82e-5,0 3.82e-5,-10e-5 0,0 9e-6,0 2e-5,0 1.09e-5,0 1.99e-5,0 1.99e-5,0 0,0 -8.8e-6,0 -1.97e-5,0 -1.08e-5,0 -1.97e-5,0 -1.99e-5,0 -2e-7,0 1.9e-6,-10e-5 1.79e-5,0 1.01e-5,0 1.98e-5,0 2.16e-5,0 1.9e-6,0 1.34e-5,0 2.56e-5,0 1.96e-5,0 2.62e-5,0 5.65e-5,0 7.3e-5,0 2.285e-4,0 2.734e-4,0 4.44e-5,0 1.004e-4,10e-5 1.138e-4,10e-5 2.52e-5,1e-4 2.92e-5,1e-4 1.41e-5,1e-4 -9.3e-6,0 -5.45e-5,10e-5 -6.48e-5,10e-5 -8.4e-6,0 -8.7e-6,0 -4e-7,0 3.4e-6,0 9.9e-6,-10e-5 1.44e-5,-10e-5 9.4e-6,0 3e-6,-1e-4 -2.43e-5,-1e-4 -2.28e-5,0 -8.94e-5,0 -1.302e-4,0 -3.12e-5,0 -3.28e-5,0 -2.85e-5,0 2.5e-6,0 8.4e-6,0 1.32e-5,0 4.7e-6,0 1.07e-5,0 1.31e-5,0 4.4e-6,0 7.5e-6,0 3.49e-5,1e-4 7.3e-6,0 1.55e-5,0 1.82e-5,10e-5 6.5e-6,0 4.41e-5,0 5.48e-5,10e-5 4.5e-6,0 8.3e-6,0 8.3e-6,0 0,0 3.8e-6,0 8.5e-6,0 4.7e-6,0 1.57e-5,0 2.44e-5,0 2.21e-5,10e-5 6.89e-5,10e-5 9.48e-5,10e-5 2.94e-5,0 1.248e-4,0 1.882e-4,0 2.72e-5,0 4.94e-5,0 4.94e-5,0 0,0 9e-6,0 2e-5,0 1.73e-5,0 1.99e-5,0 1.99e-5,0 0,0 -5.4e-6,0 -1.97e-5,1e-4 -1.08e-5,0 -2.35e-5,0 -2.82e-5,0 -4.7e-6,0 -1.54e-5,0 -2.37e-5,0 -8.3e-6,0 -2.64e-5,0 -4.02e-5,0 -1.38e-5,0 -3.24e-5,10e-5 -4.14e-5,10e-5 -8.9e-6,0 -1.77e-5,0 -1.95e-5,0 -1.36e-5,0 -2.117e-4,0 -2.599e-4,0 -8.7e-6,0 -3.23e-5,0 -5.24e-5,0 z m 1.396e-4,0 c 9.26e-5,-10e-5 9.51e-5,-10e-5 1.092e-4,-10e-5 1.1e-5,0 4.5e-6,0 -4.51e-5,0 -5.73e-5,0 -7.72e-5,0 -1.306e-4,0 -3.8e-5,0 -8.82e-5,0 -1.095e-4,-1e-4 -1.1e-5,0 -2.36e-5,0 -2.8e-5,0 -4.4e-6,0 -2.08e-5,0 -3.66e-5,-10e-5 -2.7e-5,0 -3.78e-5,0 -5.88e-5,-10e-5 -1.03e-5,0 -6.88e-5,-10e-5 -8.18e-5,-2e-4 -4.9e-6,0 -2.02e-5,0 -3.39e-5,0 -2.78e-5,0 -3.79e-5,0 -7.92e-5,0 -2.65e-5,0 -2.95e-5,0 -1.14e-5,0 6.9e-6,1e-4 1.89e-5,1e-4 2.66e-5,1e-4 7.7e-6,0 2.02e-5,0 2.77e-5,0 7.5e-6,0 1.82e-5,10e-5 2.39e-5,10e-5 1.35e-5,0 6.51e-5,10e-5 7.61e-5,10e-5 4.7e-6,0 1.02e-5,10e-5 1.22e-5,10e-5 2e-6,0 8.8e-6,0 1.5e-5,0 1.63e-5,0 3.44e-5,1e-4 4.02e-5,1e-4 2.7e-6,0 4.9e-6,0 4.9e-6,0 0,0 5.71e-5,0 9.52e-5,10e-5 5.7e-5,0 9.51e-5,0 1.839e-4,0 z m 1.361e-4,-10e-5 c 1.02e-5,0 7e-6,0 -1.32e-5,0 -2.59e-5,0 -7.16e-5,0 -8.08e-5,-1e-4 -2.5e-6,0 -10e-6,0 -1.67e-5,0 -6.7e-6,0 -1.22e-5,0 -1.22e-5,0 0,0 -3.9e-6,0 -8.8e-6,0 -1.01e-5,0 -6.76e-5,0 -9.99e-5,-10e-5 -3.72e-5,0 -8.2e-5,-10e-5 -1.172e-4,-2e-4 -1.36e-5,-1e-4 -1.73e-5,-1e-4 -3.25e-5,-1e-4 -3.4e-6,0 -7.8e-6,0 -9.8e-6,0 -4.4e-6,-10e-5 -2.72e-5,-10e-5 -8.83e-5,0 l -4.21e-5,0 3.23e-5,0 c 2.88e-5,0 7.4e-5,1e-4 7.4e-5,1e-4 0,0 2.3e-6,0 5.1e-6,0 5e-6,0 1.24e-5,10e-5 2.81e-5,10e-5 4.6e-6,0 1.69e-5,0 2.74e-5,10e-5 1.06e-5,0 1.92e-5,0 1.92e-5,0 0,0 5.98e-5,10e-5 8.34e-5,10e-5 3.35e-5,1e-4 8.04e-5,1e-4 1.258e-4,1e-4 4.6e-5,0 1.07e-4,0 1.262e-4,0 z"
       id="path3236"
       inkscape:connector-curvature="0" />
    <path
       style="fill:#000000"
       d=""
       id="path3080"
       inkscape:connector-curvature="0" />
    <path
       style="fill:#000000"
       d="m 133.65956,1044.9236 c -3.36919,-2.1351 -3.93235,-9.0144 -2.44914,-29.9179 1.05936,-14.9299 2.72063,-55.57387 3.69171,-90.31997 1.96593,-70.34387 4.61476,-84.31721 18.88448,-99.62169 8.26452,-8.86377 12.1507,-10.54134 24.57046,-10.60642 32.93338,-0.17268 48.45295,-8.54463 48.66732,-26.2538 0.17786,-14.68589 -5.21136,-16.21663 -48.48304,-13.77115 -37.48568,2.11849 -39.49538,1.91938 -38.39313,-3.80416 0.93573,-4.85872 6.22741,-6.83119 27.0626,-10.08767 29.12682,-4.55237 58.62235,-4.17268 67.3798,0.86744 4.08355,2.35016 6.40287,8.7841 7.70119,21.36391 1.72324,16.69653 1.18244,18.67561 -7.4632,27.31163 -14.36636,14.35038 -22.1329,17.41002 -44.19328,17.41002 -23.65117,0 -32.70355,4.86426 -37.70084,20.25835 -1.8781,5.78551 -4.37402,41.86346 -5.54645,80.17327 -1.17239,38.3098 -2.44301,74.02784 -2.82355,79.37334 -0.38057,5.3456 -0.91198,16.6442 -1.18098,25.108 -0.49694,15.6362 -1.91701,17.4641 -9.72395,12.5168 z m 92.44125,-18.9963 c -9.0141,-28.97707 -11.61771,-44.6018 -15.52067,-93.14225 -2.14908,-26.72777 -4.84372,-51.25366 -5.98806,-54.50194 -2.01326,-5.71485 -2.31595,-5.71485 -9.35171,0 -11.45114,9.3013 -14.32388,38.39886 -9.72242,98.47693 3.99102,52.10786 3.20033,61.31626 -5.26495,61.31626 -3.90517,0 -5.00279,-4.3102 -5.15645,-20.2483 -0.10724,-11.1366 -1.17311,-27.53775 -2.36841,-36.44701 -2.90302,-21.63838 -2.74133,-57.42045 0.35964,-79.59322 4.0163,-28.71774 21.96151,-44.9691 54.64893,-49.4906 7.46375,-1.0324 13.21071,-0.13185 15.31164,2.39974 4.6979,5.66061 -1.98935,11.67368 -12.98253,11.67368 -4.79856,0 -9.36441,1.82235 -10.14632,4.04966 -2.55394,7.27495 6.06941,88.93463 13.94137,132.01905 7.24776,39.6681 7.20746,38.8767 1.98067,38.8767 -3.07794,0 -6.7663,-5.827 -9.74073,-15.3887 z M 72.883735,917.89862 C 65.560255,914.34334 57.618464,907.49109 55.235316,902.67137 49.94392,891.97003 48.051785,820.23321 52.440634,796.7164 c 4.728023,-25.3342 11.521619,-32.21221 32.949721,-33.3591 16.956795,-0.90758 18.382635,-0.38206 25.292365,9.32174 8.33375,11.70365 12.60426,43.91463 8.98542,67.77371 -1.21619,8.01834 -2.31932,21.58707 -2.45141,30.15275 -0.40658,26.36946 -5.91105,42.15873 -16.89509,48.4627 -11.834145,6.79186 -10.961585,6.82906 -27.437905,-1.16958 z m 23.93362,-17.69456 c 6.473885,-4.53449 7.200335,-7.80308 7.200335,-32.3973 l 0,-27.35401 -19.438395,0 c -21.879406,0 -20.21825,-2.80469 -19.74363,33.3352 0.16555,12.60475 2.0214,23.96373 4.34673,26.60453 5.40503,6.13835 18.73194,6.04748 27.63496,-0.18855 z m 7.053505,-74.90718 c 2.90526,-2.54248 0.58283,-36.2911 -2.95191,-42.89584 -2.069515,-3.86691 -6.826185,-6.74288 -11.152255,-6.74288 -9.257,0 -24.50185,14.61034 -24.96906,23.92981 -0.513022,10.23317 0.79621,25.97829 2.37419,28.55248 1.35872,2.2165 33.788205,-0.29611 36.699035,-2.84357 z"
       id="path3005"
       inkscape:connector-curvature="0" />
  </g>
</svg>
