<?xml version="1.0" encoding="UTF-8" standalone="no"?>
<!-- Created with Inkscape (http://www.inkscape.org/) -->

<svg
   xmlns:dc="http://purl.org/dc/elements/1.1/"
   xmlns:cc="http://creativecommons.org/ns#"
   xmlns:rdf="http://www.w3.org/1999/02/22-rdf-syntax-ns#"
   xmlns:svg="http://www.w3.org/2000/svg"
   xmlns="http://www.w3.org/2000/svg"
   xmlns:sodipodi="http://sodipodi.sourceforge.net/DTD/sodipodi-0.dtd"
   xmlns:inkscape="http://www.inkscape.org/namespaces/inkscape"
   width="300"
   height="300"
   viewBox="0 0 300 300"
   id="svg2"
   version="1.1"
   inkscape:version="0.91 r13725"
   sodipodi:docname="時-seal.svg">
  <defs
     id="defs4">
    <clipPath
       clipPathUnits="userSpaceOnUse"
       id="clipPath4027">
      <rect
         style="fill:#0000ff;fill-rule:evenodd;stroke:#000000;stroke-width:1.00952923px;stroke-linecap:butt;stroke-linejoin:miter;stroke-opacity:1"
         id="rect4029"
         width="209.43353"
         height="276.638"
         x="54.159828"
         y="765.27985" />
    </clipPath>
    <clipPath
       clipPathUnits="userSpaceOnUse"
       id="clipPath4037">
      <rect
         style="fill:#0000ff;fill-rule:evenodd;stroke:#000000;stroke-width:1px;stroke-linecap:butt;stroke-linejoin:miter;stroke-opacity:1"
         id="rect4039"
         width="210.09554"
         height="265.55554"
         x="54.15506"
         y="774.40967" />
    </clipPath>
  </defs>
  <sodipodi:namedview
     id="base"
     pagecolor="#ffffff"
     bordercolor="#666666"
     borderopacity="1.0"
     inkscape:pageopacity="0.0"
     inkscape:pageshadow="2"
     inkscape:zoom="1.5326361"
     inkscape:cx="172.18066"
     inkscape:cy="151.18248"
     inkscape:document-units="px"
     inkscape:current-layer="layer1"
     showgrid="false"
     units="px"
     inkscape:window-width="1028"
     inkscape:window-height="640"
     inkscape:window-x="65"
     inkscape:window-y="50"
     inkscape:window-maximized="0" />
  <metadata
     id="metadata7">
    <rdf:RDF>
      <cc:Work
         rdf:about="">
        <dc:format>image/svg+xml</dc:format>
        <dc:type
           rdf:resource="http://purl.org/dc/dcmitype/StillImage" />
        <dc:title></dc:title>
      </cc:Work>
    </rdf:RDF>
  </metadata>
  <g
     inkscape:label="Layer 1"
     inkscape:groupmode="layer"
     id="layer1"
     transform="translate(0,-752.36216)">
    <path
       style="fill:#000000"
       d="m 208.20086,1019.4944 c -1.7029,-10.0953 -2.80794,-22.28371 -2.45596,-27.08553 0.63701,-8.68891 -4.59065,-30.43298 -8.36851,-34.808 -1.09639,-1.26986 -8.36432,-0.28803 -16.2663,2.19744 -13.99708,4.40262 -14.49259,4.37639 -24.65778,-1.30309 -17.37912,-9.71037 -35.47706,-23.93862 -35.47706,-27.89135 0,-5.39538 7.23038,-4.59386 13.8037,1.53026 14.23373,13.26053 41.64288,21.1103 51.79781,14.83412 3.62627,-2.24119 4.23867,-17.46051 0.70251,-17.46051 -1.32019,0 -8.96918,-5.35101 -16.99779,-11.891 -8.02883,-6.54025 -16.46166,-11.89131 -18.73954,-11.89131 -2.27811,0 -4.14205,-1.18913 -4.14205,-2.64245 0,-1.45326 -2.09214,-2.64251 -4.64924,-2.64251 -5.25858,0 -12.35152,-9.54971 -8.74749,-11.7772 6.38946,-3.94877 40.81711,14.82867 56.35999,30.73955 9.09661,9.31217 11.48186,9.35056 13.77314,0.22148 1.61086,-6.41835 0.0676,-8.81414 -13.58642,-21.09582 -8.47221,-7.62051 -16.84855,-13.87513 -18.61405,-13.89906 -4.82345,-0.0657 -9.00614,-9.2316 -5.7147,-12.52304 1.86362,-1.86366 0.16225,-3.61029 -5.40865,-5.55226 -4.89021,-1.70473 -8.12765,-1.83555 -8.12765,-0.32834 0,3.46913 -11.57198,3.13913 -19.69424,-0.56157 -13.47519,-6.13977 -7.724,-8.73053 17.05184,-7.682 13.52779,0.57259 22.29861,-4.29671 19.74161,-10.96006 -0.9271,-2.41618 -5.05603,-5.13339 -9.17522,-6.03808 -9.5384,-2.09497 -17.53553,-9.02569 -21.03496,-18.23008 -3.22052,-8.47033 -3.70008,-40.32189 -0.63574,-42.21576 5.05867,-3.12636 8.70499,3.76316 9.31129,17.59305 0.35804,8.16556 1.50249,15.69794 2.54325,16.73864 1.04071,1.04072 1.89217,4.04962 1.89217,6.68657 0,4.28344 11.61439,10.01613 14.48238,7.148 0.56314,-0.56299 1.5238,-13.61951 2.13463,-29.01424 1.18557,-29.87634 2.45121,-34.64511 8.57117,-32.29659 2.9571,1.13472 3.87914,6.44586 3.87914,22.34565 l 0,20.85696 8.72016,0 c 12.62034,0 15.06221,-3.94107 15.06221,-24.31063 0,-16.20725 0.51802,-17.96886 5.28484,-17.96886 4.4892,0 5.34274,1.88979 5.6691,12.55172 1.01039,33.02171 -2.41116,39.64348 -21.03288,40.7025 -6.27006,0.35679 -12.04311,1.68895 -12.82901,2.96052 -0.7859,1.27166 -1.62422,8.17624 -1.86302,15.34381 -0.52373,15.71953 -0.24946,15.85441 31.03391,15.27048 23.35063,-0.43603 29.49256,1.56767 26.74601,8.72538 -1.22512,3.19236 -5.93673,3.7716 -24.52957,3.01547 -24.81997,-1.00938 -40.18925,0.68392 -40.18925,4.42825 0,1.2896 2.45466,3.12389 5.45469,4.076 3.00006,0.95216 12.51291,8.63773 21.13978,17.07926 13.91473,13.61544 15.68516,16.52597 15.68516,25.78669 0,5.74135 -1.86653,14.18041 -4.14766,18.75341 -2.28141,4.57286 -3.49822,10.40389 -2.70406,12.95774 2.91798,9.38329 12.24058,81.15619 10.97115,84.46469 -0.72107,1.8791 -3.02459,3.4165 -5.11904,3.4165 -2.6529,0 -4.74674,-5.5675 -6.9038,-18.3548 z m -90.74895,-30.97143 c -0.969,-0.96885 -1.76166,-3.34716 -1.76166,-5.28492 0,-5.1106 66.75792,-5.08885 71.00028,0.0234 1.61869,1.95034 2.16066,4.32863 1.20444,5.28502 -2.28379,2.28369 -68.1578,2.26221 -70.44306,-0.0234 z M 71.184112,918.54076 c -5.447401,-5.57158 -8.613036,-11.9065 -9.573412,-19.15793 -1.871539,-14.13107 -0.008,-78.22636 2.442265,-84.03427 1.043665,-2.47311 6.118031,-5.88933 11.276352,-7.59184 10.084165,-3.32807 34.262573,-1.67308 38.575933,2.64021 6.55029,6.55025 9.68565,78.07454 4.15707,94.8265 -3.72147,11.27623 -7.36056,15.3703 -16.87872,18.98907 -12.649608,4.80945 -21.362963,3.16193 -29.999488,-5.67174 z m 34.516108,-13.92662 c 3.59172,-4.23431 4.51452,-9.435 4.02236,-22.67099 l -0.63855,-17.17603 -19.157951,-0.5305 c -20.549198,-0.56895 -19.944677,-1.03938 -19.354319,15.06424 0.755299,20.60254 3.271621,29.39609 9.047528,31.61759 8.130235,3.1268 20.647732,0.10087 26.080932,-6.30431 z m -1.99304,-50.02309 c 4.02071,-2.93993 4.58643,-5.72648 3.20604,-15.79698 -2.97955,-21.73715 -8.242902,-25.91637 -25.196781,-20.00622 -8.793097,3.06532 -10.652552,7.00882 -11.669076,24.74804 -0.554573,9.67797 0.005,10.61303 7.326983,12.23922 13.19309,2.92999 21.198962,2.57004 26.332834,-1.18406 z"
       id="path4153"
       inkscape:connector-curvature="0" />
  </g>
</svg>
