<?xml version="1.0" encoding="UTF-8" standalone="no"?>
<!-- Created with Inkscape (http://www.inkscape.org/) -->

<svg
   xmlns:dc="http://purl.org/dc/elements/1.1/"
   xmlns:cc="http://creativecommons.org/ns#"
   xmlns:rdf="http://www.w3.org/1999/02/22-rdf-syntax-ns#"
   xmlns:svg="http://www.w3.org/2000/svg"
   xmlns="http://www.w3.org/2000/svg"
   xmlns:sodipodi="http://sodipodi.sourceforge.net/DTD/sodipodi-0.dtd"
   xmlns:inkscape="http://www.inkscape.org/namespaces/inkscape"
   width="300"
   height="300"
   id="svg2"
   version="1.1"
   inkscape:version="0.91 r13725"
   sodipodi:docname="image-seal.svg">
  <defs
     id="defs4" />
  <sodipodi:namedview
     id="base"
     pagecolor="#ffffff"
     bordercolor="#666666"
     borderopacity="1.0"
     inkscape:pageopacity="0.0"
     inkscape:pageshadow="2"
     inkscape:zoom="2.7366667"
     inkscape:cx="150"
     inkscape:cy="150"
     inkscape:document-units="px"
     inkscape:current-layer="layer1"
     showgrid="false"
     inkscape:window-width="1231"
     inkscape:window-height="1000"
     inkscape:window-x="49"
     inkscape:window-y="24"
     inkscape:window-maximized="1"
     showguides="true"
     inkscape:guide-bbox="true" />
  <metadata
     id="metadata7">
    <rdf:RDF>
      <cc:Work
         rdf:about="">
        <dc:format>image/svg+xml</dc:format>
        <dc:type
           rdf:resource="http://purl.org/dc/dcmitype/StillImage" />
        <dc:title />
      </cc:Work>
    </rdf:RDF>
  </metadata>
  <g
     inkscape:label="Calque 1"
     inkscape:groupmode="layer"
     id="layer1"
     transform="translate(0,-752.36218)">
    <path
       style="fill:#000000"
       d="m 214.13072,1031.9172 c -18.29507,-19.2143 -25.81767,-33.69848 -25.81767,-49.70981 0,-11.41129 1.06608,-13.30069 13.05184,-23.13152 32.35896,-26.54112 34.0166,-31.60035 14.81093,-45.20426 -7.97445,-5.6485 -11.18753,-10.46932 -13.84131,-20.7669 -3.11875,-12.10178 -4.16624,-13.32736 -10.73229,-12.55655 -5.55591,0.65224 -7.67989,2.83331 -8.98365,9.22521 -2.62508,12.86966 -7.64307,20.46669 -16.56676,25.0813 -11.93207,6.17029 -21.45131,20.51872 -23.6131,35.59223 -1.0442,7.28068 -1.86423,31.53612 -1.82232,53.901 0.0689,36.809 -0.37388,40.5767 -4.67215,39.7489 -6.9416,-1.3369 -8.20139,-14.6564 -5.87089,-62.07162 2.3622,-48.05991 5.77342,-58.70812 22.52688,-70.31827 10.72452,-7.43211 18.97075,-19.13878 18.97075,-26.9316 0,-2.13403 -5.02263,-9.00389 -11.16139,-15.26634 -10.26665,-10.47357 -11.19631,-12.69008 -11.59706,-27.64993 -1.16544,-43.50558 0.22267,-60.68755 5.47725,-67.79878 8.50763,-11.51366 21.97113,-16.54524 44.6705,-16.69427 36.1134,-0.23718 45.15968,10.39697 45.15968,53.08604 0,40.54871 -8.21297,61.65773 -25.46352,65.44658 -6.69867,1.47129 -8.02063,3.16626 -8.02063,10.2839 0,8.24628 11.2122,21.68798 18.13725,21.74376 1.53469,0.0112 5.75157,4.37094 9.37081,9.68574 5.6317,8.27 6.15135,10.89432 3.60412,18.20131 -3.60562,10.34311 -7.57988,14.53109 -19.77302,20.8364 -22.06929,11.41249 -29.18757,30.98838 -16.22226,44.61268 3.45305,3.6285 11.3009,12.9324 17.43966,20.6752 6.13876,7.7429 13.35877,14.8468 16.04448,15.7866 7.90204,2.7652 5.89056,9.7124 -2.79034,9.6374 -5.62562,-0.049 -11.58108,-4.1704 -22.31579,-15.4444 z m -3.2137,-166.3715 c 12.2317,-4.2557 16.46086,-8.63353 16.46086,-17.03952 0,-6.10612 -1.46867,-6.96063 -14.64931,-8.52325 -8.05712,-0.95522 -23.12499,-0.94981 -33.48414,0.0112 -17.60075,1.63419 -18.83484,2.19265 -18.83484,8.52325 0,16.82578 25.94617,25.57298 50.50743,17.02752 z m 17.61367,-40.32484 c 0.96241,-2.50808 0.95703,-8.78636 -0.0112,-13.95173 l -1.76188,-9.39163 -26.89533,0.0379 c -37.83974,0.0536 -39.45189,0.69248 -39.45189,15.63425 l 0,12.23112 33.18561,0 c 28.1358,0 33.45189,-0.6939 34.93548,-4.56009 z m -3.24557,-33.64046 c 3.46826,-1.97816 2.35361,-13.91621 -1.6062,-17.20257 -8.9701,-7.4445 -49.39525,-5.39513 -59.78139,3.03062 -5.72071,4.64094 -4.10876,13.06479 2.79034,14.58213 16.53366,3.63626 51.9372,3.38845 58.59725,-0.41018 z M 68.535658,891.39066 c -4.51902,-4.83765 -8.23967,-10.94753 -8.26813,-13.57754 -0.58056,-53.68773 -0.24778,-74.82758 1.30906,-83.12548 3.36075,-17.91432 25.49433,-25.78198 47.115912,-16.7479 15.32109,6.40155 17.63158,14.30035 18.02725,61.62941 0.34405,41.15092 0.23271,41.96768 -6.81751,50.07958 -6.26958,7.21352 -9.42074,8.3899 -25.158712,9.392 -17.22988,1.09713 -18.33924,0.77331 -26.20787,-7.65007 z m 34.884672,-5.90582 c 10.39884,-5.03401 11.93573,-7.02757 13.44475,-17.43966 0.93709,-6.46576 0.66768,-15.52292 -0.59869,-20.12699 l -2.30248,-8.37103 -22.120272,0 -22.12027,0 0.61184,19.53242 c 1.01602,32.43567 8.42048,38.3452 33.085122,26.40526 z m 12.34374,-66.9549 c 0,-6.18804 -1.88605,-15.76498 -4.19124,-21.28205 -4.13789,-9.90335 -4.36583,-10.01427 -17.904612,-8.71338 -16.7476,1.60925 -21.15961,5.66725 -23.27023,21.40315 -2.54982,19.0102 -1.56985,19.84329 23.34186,19.84329 l 22.024222,0 0,-11.25101 z"
       id="path3418"
       inkscape:connector-curvature="0" />
  </g>
</svg>
