<?xml version="1.0" encoding="UTF-8" standalone="no"?>
<!-- Created with Inkscape (http://www.inkscape.org/) -->

<svg
   xmlns:dc="http://purl.org/dc/elements/1.1/"
   xmlns:cc="http://creativecommons.org/ns#"
   xmlns:rdf="http://www.w3.org/1999/02/22-rdf-syntax-ns#"
   xmlns:svg="http://www.w3.org/2000/svg"
   xmlns="http://www.w3.org/2000/svg"
   xmlns:sodipodi="http://sodipodi.sourceforge.net/DTD/sodipodi-0.dtd"
   xmlns:inkscape="http://www.inkscape.org/namespaces/inkscape"
   width="300"
   height="300"
   id="svg2"
   version="1.1"
   inkscape:version="0.92.4 (5da689c313, 2019-01-14)"
   sodipodi:docname="image-bigseal.svg">
  <defs
     id="defs4" />
  <sodipodi:namedview
     id="base"
     pagecolor="#ffffff"
     bordercolor="#666666"
     borderopacity="1.0"
     inkscape:pageopacity="0.0"
     inkscape:pageshadow="2"
     inkscape:zoom="1.979899"
     inkscape:cx="104.60582"
     inkscape:cy="168.6356"
     inkscape:document-units="px"
     inkscape:current-layer="layer1"
     showgrid="false"
     inkscape:window-width="1872"
     inkscape:window-height="1016"
     inkscape:window-x="48"
     inkscape:window-y="27"
     inkscape:window-maximized="1" />
  <metadata
     id="metadata7">
    <rdf:RDF>
      <cc:Work
         rdf:about="">
        <dc:format>image/svg+xml</dc:format>
        <dc:type
           rdf:resource="http://purl.org/dc/dcmitype/StillImage" />
        <dc:title />
      </cc:Work>
    </rdf:RDF>
  </metadata>
  <g
     inkscape:label="Calque 1"
     inkscape:groupmode="layer"
     id="layer1"
     transform="translate(0,-752.36218)">
    <path
       style="fill:#000000;stroke-width:5.96542454"
       d="m 103.68883,1035.683 c 0,-17.46 20.49594,-52.77278 35.91722,-61.8824 l 17.67239,-10.43931 -2.16127,-56.58593 c -1.18867,-31.12227 -3.99677,-58.42149 -6.24019,-60.6649 -6.60719,-6.60719 -15.12462,11.83546 -15.86433,34.35082 -0.92506,28.15543 -7.29768,49.32947 -15.68805,52.1263 -4.98477,1.66155 -5.38953,-2.37669 -1.4505,-14.47135 3.00503,-9.22678 6.99315,-29.30753 8.86242,-44.62394 7.13285,-58.44404 38.60655,-51.57163 38.60655,8.42986 0,31.13922 1.16332,34.82704 8.94814,28.36625 5.6582,-4.69592 8.94814,-17.85565 8.94814,-35.79254 0,-18.28337 3.27048,-31.08052 9.20095,-36.00235 13.97591,-11.59906 22.55968,0.81076 30.23348,43.70944 3.64363,20.36846 8.72247,42.40247 11.28647,48.96444 4.34378,11.1171 3.95501,11.26737 -5.69967,2.20333 -6.34721,-5.95893 -12.02367,-23.82579 -14.65215,-46.11798 -6.73652,-57.13272 -18.5851,-58.97908 -23.17657,-3.61165 -1.90601,22.98383 -6.04584,35.31137 -13.64591,40.63468 -7.41299,5.19231 -9.7861,11.93866 -7.40387,21.04823 l 3.50588,13.40669 17.10651,-16.38911 c 9.40861,-9.01399 17.10657,-13.07418 17.10657,-9.0227 0,4.05147 -6.7111,13.58595 -14.91356,21.18775 -8.20246,7.6018 -14.91356,16.34031 -14.91356,19.41895 0,3.07864 8.37671,16.9881 18.61493,30.90992 10.23828,13.9218 17.01649,26.9109 15.06276,28.8647 -4.49787,4.4978 -25.09732,-19.8568 -35.00589,-41.38721 -4.15235,-9.02271 -10.32376,-16.40492 -13.71427,-16.40492 -14.12935,0 -32.7957,19.87775 -39.41583,41.97373 -6.39243,21.3361 -17.12679,32.4932 -17.12679,17.8012 z M 56.175312,904.71514 C 52.778892,898.36889 50,874.12242 50,850.83412 c 0,-38.30399 1.264175,-42.81003 13.254692,-47.24563 7.29007,-2.69678 20.04116,-3.09766 28.33578,-0.89081 14.008728,3.72714 15.207478,6.88982 16.858888,44.48065 1.28083,29.15607 -0.84196,44.46645 -7.59435,54.77184 -11.480338,17.52129 -35.971238,19.03686 -44.679698,2.76497 z m 34.27016,-1.88352 c 3.36259,-4.10123 7.04683,-14.16788 8.18718,-22.37034 1.869448,-13.44625 -0.20103,-15.1001 -21.04518,-16.80961 -22.64669,-1.8574 -23.03265,-1.55364 -18.90803,14.88015 7.25106,28.89049 20.00376,38.64581 31.76603,24.2998 z m 7.27793,-73.45442 c 0,-20.38868 -0.79191,-21.18059 -19.38762,-19.38763 -17.04756,1.64372 -19.61327,4.20945 -21.25696,21.25696 -1.79297,18.59572 -1.00107,19.38763 19.38763,19.38763 20.38869,0 21.25695,-0.86827 21.25695,-21.25696 z m 17.896278,-7.74121 c 0,-2.82504 11.95984,-11.48111 26.5774,-19.23575 18.71258,-9.927 27.27457,-18.55748 28.93332,-29.16472 2.3051,-14.74074 2.37513,-14.7102 3.24966,1.41703 0.71931,13.26364 6.1361,19.02934 27.73827,29.52443 14.76443,7.17313 26.84441,15.19155 26.84441,17.81879 0,6.9079 -2.69047,6.21275 -33.0605,-8.54213 l -27.41417,-13.31889 -23.14197,13.31889 c -25.44355,14.64338 -29.72642,15.82233 -29.72642,8.18235 z"
       id="path348"
       inkscape:connector-curvature="0" />
  </g>
</svg>
