<?xml version="1.0" encoding="UTF-8" standalone="no"?>
<!-- Created with Inkscape (http://www.inkscape.org/) -->

<svg
   xmlns:dc="http://purl.org/dc/elements/1.1/"
   xmlns:cc="http://creativecommons.org/ns#"
   xmlns:rdf="http://www.w3.org/1999/02/22-rdf-syntax-ns#"
   xmlns:svg="http://www.w3.org/2000/svg"
   xmlns="http://www.w3.org/2000/svg"
   xmlns:sodipodi="http://sodipodi.sourceforge.net/DTD/sodipodi-0.dtd"
   xmlns:inkscape="http://www.inkscape.org/namespaces/inkscape"
   version="1.0"
   width="300"
   height="300"
   id="svg2"
   inkscape:version="0.48.3.1 r9886"
   sodipodi:docname="dessin.svg">
  <metadata
     id="metadata2990">
    <rdf:RDF>
      <cc:Work
         rdf:about="">
        <dc:format>image/svg+xml</dc:format>
        <dc:type
           rdf:resource="http://purl.org/dc/dcmitype/StillImage" />
      </cc:Work>
    </rdf:RDF>
  </metadata>
  <sodipodi:namedview
     pagecolor="#ffffff"
     bordercolor="#666666"
     borderopacity="1"
     objecttolerance="10"
     gridtolerance="10"
     guidetolerance="10"
     inkscape:pageopacity="0"
     inkscape:pageshadow="2"
     inkscape:window-width="1215"
     inkscape:window-height="1000"
     id="namedview2988"
     showgrid="false"
     inkscape:zoom="2.2250293"
     inkscape:cx="169.24678"
     inkscape:cy="125.4752"
     inkscape:window-x="65"
     inkscape:window-y="24"
     inkscape:window-maximized="1"
     inkscape:current-layer="svg2" />
  <defs
     id="defs5" />
  <path
     style="fill:#000000"
     d="m 144.20752,284.76606 c -0.73775,-1.98926 -1.6885,-19.89257 -2.11275,-39.78513 l -0.77137,-36.16831 -9.00868,-0.8666 c -6.60269,-0.63513 -11.11765,1.20899 -16.90519,6.90489 -7.55275,7.43311 -7.89653,9.07691 -7.89653,37.75823 0,16.49274 -1.02219,29.98682 -2.27153,29.98682 -7.311304,0 -12.354698,-55.87266 -6.084222,-67.40356 6.794682,-12.49491 21.718572,-20.87972 33.288862,-18.70297 12.39574,2.33209 8.65522,-9.23598 -4.31838,-13.35521 -12.34908,-3.92093 -19.01294,-15.58281 -16.48433,-28.8479 2.1683,-11.37507 9.42728,-16.01304 30.29329,-19.35528 26.43379,-4.23406 42.01721,5.22369 42.01721,25.50075 0,9.37235 -5.58072,15.21238 -19.84523,20.76742 -13.2517,5.16059 -11.95041,8.15837 4.41005,10.15922 22.01166,2.692 27.9951,5.29996 33.44319,14.57664 6.8793,11.7137 9.24626,62.68381 3.29898,71.04025 -6.67091,9.3732 -9.54685,3.64889 -9.54685,-19.00215 0,-11.7633 -1.43318,-27.96459 -3.18482,-36.00287 -3.57755,-16.41731 -9.1581,-19.66277 -27.86965,-16.20806 l -10.43557,1.9267 0.34711,28.04977 c 0.61728,49.88474 0.38039,52.64418 -4.5199,52.64418 -2.47626,0 -5.10592,-1.62757 -5.84369,-3.61683 z m 19.34693,-118.08659 c 3.37709,-3.3236 5.65533,-8.76885 5.14506,-12.29723 -0.75845,-5.2444 -3.13226,-6.48859 -13.81614,-7.24159 -18.67587,-1.31629 -29.73016,3.92218 -29.73016,14.08865 0,6.65573 1.47196,8.35663 8.08509,9.34258 18.09965,2.69841 24.44736,1.8834 30.31615,-3.89241 z M 48.764261,150.21997 c 0.03293,-3.19789 5.178313,-7.38485 13.965164,-11.36365 80.240485,-36.33396 81.916335,-37.72479 56.543715,-46.92696 -11.18936,-4.05817 -13.83365,-6.571579 -17.14249,-16.29414 -5.935663,-17.441022 -3.122725,-41.317718 5.65525,-48.002533 10.18357,-7.755272 24.81172,-11.200879 47.63097,-11.219312 17.04922,-0.01396 21.09311,1.005522 27.62022,6.961932 6.57776,6.002642 7.84345,9.996057 9.05454,28.568308 1.3879,21.284012 1.27386,21.716295 -8.04197,30.477966 -6.29521,5.920752 -13.03309,9.182293 -20.18355,9.770101 -14.34431,1.179173 -15.78536,8.589708 -2.58393,13.287798 5.42248,1.92974 12.4773,3.50862 15.67738,3.50862 3.20009,0 7.07519,1.09243 8.61137,2.42761 1.53616,1.33522 10.73111,4.18578 20.43324,6.33458 33.06994,7.32431 45.80179,15.62812 36.77331,23.98378 -2.85123,2.63873 -4.00646,2.59419 -5.04544,-0.19444 -0.74115,-1.98926 -2.99368,-3.61683 -5.0057,-3.61683 -2.01198,0 -11.59744,-3.17491 -21.30099,-7.05537 -18.48167,-7.39083 -52.81017,-16.09235 -63.4861,-16.09235 -4.92568,0 -59.035019,23.28568 -88.161913,37.93998 -7.705714,3.87692 -11.070642,3.11458 -11.013076,-2.49504 z M 171.53958,75.549197 c 3.59384,-2.477355 6.53425,-7.03456 6.53425,-10.127124 0,-5.054073 -2.15625,-5.619658 -21.31525,-5.591013 -33.54626,0.05005 -43.36551,2.367114 -43.36551,10.232737 0,8.538383 2.86351,9.486483 29.48117,9.761217 15.57998,0.160882 24.06533,-1.104897 28.66534,-4.275817 z m -3.75587,-26.97124 c 6.15976,-1.296312 8.82011,-3.567294 8.82011,-7.529236 0,-9.305037 -12.23328,-13.39893 -33.81041,-11.314733 -23.56484,2.276192 -29.40034,5.105181 -29.40034,14.252964 0,6.996123 0.43366,7.125342 22.78527,6.789519 12.5319,-0.188279 26.75432,-1.177618 31.60537,-2.198514 z"
     id="path3001"
     inkscape:connector-curvature="0"
     sodipodi:nodetypes="cscssssssssssssssssscsscsssssscsssssssssssssssssssccssssssssssss" />
</svg>
