<?xml version="1.0" encoding="UTF-8" standalone="no"?>
<!-- Created with Inkscape (http://www.inkscape.org/) -->

<svg
   xmlns:dc="http://purl.org/dc/elements/1.1/"
   xmlns:cc="http://creativecommons.org/ns#"
   xmlns:rdf="http://www.w3.org/1999/02/22-rdf-syntax-ns#"
   xmlns:svg="http://www.w3.org/2000/svg"
   xmlns="http://www.w3.org/2000/svg"
   xmlns:sodipodi="http://sodipodi.sourceforge.net/DTD/sodipodi-0.dtd"
   xmlns:inkscape="http://www.inkscape.org/namespaces/inkscape"
   width="300"
   height="300"
   id="svg2"
   version="1.1"
   inkscape:version="0.48.2 r9819"
   sodipodi:docname="Nouveau document 1">
  <defs
     id="defs4" />
  <sodipodi:namedview
     id="base"
     pagecolor="#ffffff"
     bordercolor="#666666"
     borderopacity="1.0"
     inkscape:pageopacity="0.0"
     inkscape:pageshadow="2"
     inkscape:zoom="1.979899"
     inkscape:cx="145.58164"
     inkscape:cy="158.24327"
     inkscape:document-units="px"
     inkscape:current-layer="layer1"
     showgrid="false"
     inkscape:window-width="1280"
     inkscape:window-height="999"
     inkscape:window-x="0"
     inkscape:window-y="24"
     inkscape:window-maximized="1" />
  <metadata
     id="metadata7">
    <rdf:RDF>
      <cc:Work
         rdf:about="">
        <dc:format>image/svg+xml</dc:format>
        <dc:type
           rdf:resource="http://purl.org/dc/dcmitype/StillImage" />
        <dc:title></dc:title>
      </cc:Work>
    </rdf:RDF>
  </metadata>
  <g
     inkscape:label="Calque 1"
     inkscape:groupmode="layer"
     id="layer1"
     transform="translate(0,-752.36218)">
    <path
       style="fill:#000000"
       d="m 141.89538,1031.5411 c -1.06939,-1.1822 -2.19588,-14.2868 -2.50333,-29.1212 -0.30743,-14.83437 -2.02992,-27.59274 -3.82772,-28.35192 -1.79781,-0.75917 -12.22664,-1.3072 -23.17519,-1.21785 -10.94854,0.0893 -22.219203,-1.14901 -25.045913,-2.75191 -4.190956,-2.3765 -1.340928,-3.36567 15.442713,-5.35977 l 20.58218,-2.4454 -14.76878,-10.48358 C 94.449991,941.76558 89.756029,934.46009 97.451928,934.46009 c 6.945542,0 35.681202,20.10951 33.721582,23.5987 -1.14819,2.04441 -0.13705,3.02481 2.50459,2.42842 2.81266,-0.63501 4.8145,-6.95132 5.48277,-17.29952 0.89303,-13.82864 1.96691,-16.18075 7.08443,-15.51702 4.47647,0.58059 6.31025,3.74114 7.11149,12.25677 1.36575,14.51527 7.64437,14.90499 27.2581,1.69193 15.38976,-10.36752 21.07836,-11.69501 24.44304,-5.70402 2.32621,4.14192 -10.75572,15.37226 -17.99114,15.44473 -2.29612,0.023 -6.98037,1.94777 -10.40945,4.27727 -5.943,4.03729 -5.33337,4.29206 13.0303,5.44557 13.9758,0.87789 19.26499,2.20685 19.26499,4.84052 0,2.64292 -4.81741,3.83446 -17.71109,4.38065 -9.74109,0.41265 -18.87422,1.53411 -20.29584,2.49214 -1.42161,0.95803 8.54088,8.69941 22.13886,17.20307 22.73712,14.2189 31.20822,24.3637 20.29584,24.3058 -6.47527,-0.034 -52.2477,-30.72888 -52.2477,-35.03677 0,-2.01512 -1.32207,-3.66386 -2.93792,-3.66386 -1.61586,0 -2.92568,1.90595 -2.91071,4.23545 0.24346,37.89038 -1.63564,53.85068 -6.34008,53.85068 -2.80736,0 -5.97923,-0.9672 -7.04861,-2.1495 z m 98.98922,-0.8758 c -0.82321,-1.6639 -2.06746,-24.2631 -2.76499,-50.22032 -0.69753,-25.95726 -2.50507,-49.04679 -4.01676,-51.31007 -2.31708,-3.46909 -7.54732,-4.03897 -33.31918,-3.63038 -26.61116,0.42189 -30.73355,-0.0639 -31.82833,-3.75079 -1.08207,-3.64408 1.62242,-4.24062 19.36981,-4.27251 36.79086,-0.0661 37.81895,-7.65568 1.41653,-10.45714 -32.7399,-2.51961 -34.54473,-10.1661 -2.3504,-9.95787 12.55071,0.0812 22.875,1.85546 31.85,5.47358 19.0301,7.67167 27.06748,2.26788 13.56843,-9.1225 -5.36352,-4.52569 -10.52214,-5.39073 -36.30773,-6.08839 -22.73125,-0.61503 -30.31101,-1.66875 -31.10255,-4.32382 -0.75721,-2.53992 3.65024,-3.88881 15.93998,-4.8784 32.66306,-2.63009 71.29557,6.07103 72.44184,16.31592 0.95933,8.57413 -0.91807,16.94584 -4.33357,19.32429 -4.24013,2.95268 -4.24278,17.27318 -0.005,27.36907 2.70466,6.44355 5.18657,58.89813 4.06435,85.89893 -0.28487,6.8543 -9.6892,9.5591 -12.62237,3.6304 z m -186.361688,-4.8405 c -1.237633,-10.9077 1.366633,-48.23658 3.92577,-56.27097 6.019204,-18.89725 7.064122,-41.99511 2.054648,-45.41788 -7.136801,-4.8763 -10.093533,-13.42051 -7.682688,-22.20103 1.720692,-6.26692 5.271456,-8.93513 17.161976,-12.89632 38.249872,-12.7425 62.812342,-13.48324 62.812342,-1.89425 0,0.38143 -5.97749,1.35873 -13.28332,2.17177 -7.30582,0.81304 -20.154976,2.45602 -28.553676,3.65106 -22.758873,3.23833 -38.018246,16.83014 -23.243969,20.70383 5.303978,1.39066 15.091084,-4.24784 15.377266,-8.85907 0.06196,-0.99835 3.167817,-1.81519 6.901905,-1.81519 3.734085,0 7.320581,-1.07416 7.969989,-2.38701 0.649406,-1.31286 8.752225,-3.09457 18.006275,-3.95936 13.50973,-1.26248 16.82553,-0.86863 16.82553,1.99853 0,3.77579 -13.92846,9.13584 -24.07664,9.26533 -9.128299,0.11648 -19.581332,6.48331 -17.303385,10.53931 1.63033,2.90288 3.963397,3.08562 12.217355,0.95691 12.32156,-3.17776 29.16267,-0.74966 29.16267,4.20459 0,1.97135 -2.65893,3.58427 -5.90873,3.58427 -3.2498,0 -15.72829,1.16838 -27.729992,2.5964 l -21.821264,2.5964 -4.170092,24.63149 c -2.293551,13.54733 -4.161035,33.14375 -4.149964,43.54759 0.01955,18.3761 -3.738336,28.2789 -10.731153,28.2789 -1.879673,0 -3.572058,-1.3614 -3.760853,-3.0253 z m 36.653642,-15.7317 c 4.253541,-4.9917 8.981776,-9.439 10.507186,-9.8827 1.52541,-0.4437 2.77722,-2.07738 2.78179,-3.63036 0.005,-1.55301 4.5149,-6.42624 10.02296,-10.82941 8.58828,-6.86552 10.63411,-7.49577 14.36392,-4.4251 3.44687,2.83773 3.39533,4.62434 -0.24838,8.61083 -2.5287,2.76659 -5.80821,5.03017 -7.28779,5.03017 -1.47958,0 -2.69015,1.3733 -2.69015,3.05177 0,4.8738 -22.426102,21.1838 -29.103833,21.1665 -5.452071,-0.014 -5.281361,-0.9523 1.654297,-9.0917 z m 2.654013,-139.8397 c -2.922329,-0.44986 -11.113579,-1.46163 -18.202777,-2.2484 -9.758151,-1.08296 -13.810706,-3.033 -16.681641,-8.027 -6.787802,-11.8074 -8.601983,-24.04903 -3.860719,-26.05117 5.668212,-2.39356 13.949616,5.22277 13.949616,12.82933 0,8.8439 7.847052,12.36569 34.514354,15.4902 28.59418,3.35027 37.3049,1.92778 35.69288,-5.82874 -1.15271,-5.54642 -1.41713,-5.597 -33.76152,-6.45804 -17.62065,-0.46907 -32.52113,-24.41106 -15.19241,-24.41106 4.568954,0 7.084435,1.6135 7.084435,4.54416 0,6.53831 7.277955,9.75637 26.038435,11.51332 l 16.46817,1.54226 0,-8.79987 c 0,-6.2086 -1.56459,-8.79987 -5.31332,-8.79987 -2.92233,0 -6.50883,-0.19149 -7.96999,-0.42551 -1.46117,-0.23404 -9.51196,-1.30056 -17.89067,-2.37008 -22.00833,-2.80929 -26.061499,-6.57698 -24.794918,-23.0485 0.979508,-12.73825 1.983068,-14.20951 12.564886,-18.42057 9.582772,-3.8135 19.527752,-4.64113 59.643072,-4.96361 46.64803,-0.37499 48.35301,-0.20961 54.91622,5.3267 9.55558,8.06048 9.06351,25.03944 -0.99505,34.33516 -6.01738,5.56101 -6.81587,7.83032 -3.54222,10.06708 13.28267,9.07552 -1.6929,21.04963 -28.70866,22.95475 -14.90377,1.05099 -20.01833,2.4359 -21.29271,5.76557 -2.53028,6.6111 0.55624,7.3499 23.92169,5.72595 24.92324,-1.73221 44.47489,-7.03746 44.47489,-12.06805 0,-1.93426 1.594,-3.51683 3.54222,-3.51683 1.94822,0 3.54221,-3.134 3.54221,-6.96443 0,-6.97535 7.45787,-13.75598 11.83813,-10.76313 3.84448,2.62678 2.63126,20.08051 -1.79007,25.7525 -6.1599,7.90235 -13.33487,10.68058 -34.84153,13.49104 -19.46256,2.54334 -103.30344,5.37384 -113.353003,3.82684 z m 98.183883,-34.82049 c 2.37331,-2.10856 4.36581,-6.40078 4.42777,-9.53827 0.0887,-4.49394 -1.20283,-5.33547 -6.08623,-3.96547 -3.40938,0.95648 -10.18388,1.99165 -15.05442,2.30037 -4.87055,0.30873 -10.84804,0.73179 -13.28332,0.94015 -4.41957,0.37813 -6.29538,12.81755 -2.34033,15.51989 3.77989,2.58265 27.93209,-1.34357 32.33653,-5.25667 z m 2.23459,-25.15411 c 18.55777,-8.30813 12.01676,-9.58285 -43.63012,-8.50273 -29.16121,0.56602 -53.997323,1.69664 -55.191362,2.51247 -1.194035,0.81584 -0.430514,3.70537 1.696715,6.42117 3.204507,4.09114 7.960887,5.06042 27.739177,5.65286 33.56031,1.00527 58.41959,-1.17441 69.38559,-6.08377 z m -16.29081,-17.63649 c 36.54436,-2.24934 24.69093,-10.65842 -15.0241,-10.65842 -33.54655,0 -68.840093,6.51847 -64.037994,11.82738 1.535304,1.69734 42.282024,1.09488 79.062094,-1.16896 z"
       id="path2996"
       inkscape:connector-curvature="0" />
  </g>
</svg>
