<?xml version="1.0" encoding="UTF-8" standalone="no"?>
<!-- Created with Inkscape (http://www.inkscape.org/) -->

<svg
   xmlns:dc="http://purl.org/dc/elements/1.1/"
   xmlns:cc="http://creativecommons.org/ns#"
   xmlns:rdf="http://www.w3.org/1999/02/22-rdf-syntax-ns#"
   xmlns:svg="http://www.w3.org/2000/svg"
   xmlns="http://www.w3.org/2000/svg"
   xmlns:sodipodi="http://sodipodi.sourceforge.net/DTD/sodipodi-0.dtd"
   xmlns:inkscape="http://www.inkscape.org/namespaces/inkscape"
   width="300"
   height="300"
   id="svg2"
   version="1.1"
   inkscape:version="0.48.2 r9819"
   sodipodi:docname="Nouveau document 1">
  <defs
     id="defs4" />
  <sodipodi:namedview
     id="base"
     pagecolor="#ffffff"
     bordercolor="#666666"
     borderopacity="1.0"
     inkscape:pageopacity="0.0"
     inkscape:pageshadow="2"
     inkscape:zoom="1.979899"
     inkscape:cx="218.17732"
     inkscape:cy="150.50253"
     inkscape:document-units="px"
     inkscape:current-layer="layer1"
     showgrid="false"
     inkscape:window-width="1280"
     inkscape:window-height="999"
     inkscape:window-x="0"
     inkscape:window-y="24"
     inkscape:window-maximized="1" />
  <metadata
     id="metadata7">
    <rdf:RDF>
      <cc:Work
         rdf:about="">
        <dc:format>image/svg+xml</dc:format>
        <dc:type
           rdf:resource="http://purl.org/dc/dcmitype/StillImage" />
        <dc:title></dc:title>
      </cc:Work>
    </rdf:RDF>
  </metadata>
  <g
     inkscape:label="Calque 1"
     inkscape:groupmode="layer"
     id="layer1"
     transform="translate(0,-752.36218)">
    <path
       style="fill:#000000"
       d="m 195.07632,1016.1926 c -10.43246,-8.8839 -20.41344,-18.49229 -31.79364,-26.14093 -11.32346,2.90481 -21.59904,9.5111 -33.38889,10.67413 -9.85567,7.5849 -23.32718,6.9522 -34.984744,10.0738 -14.420655,2.0972 -29.288812,6.302 -43.828134,3.2833 -13.062691,-9.9245 10.163769,-11.0461 16.866612,-12.5867 27.539944,-5.21725 55.630206,-9.98475 81.440066,-21.31677 12.40949,-7.09859 -9.79535,-15.95317 -16.99061,-16.93803 -23.70265,-1.82172 -47.502828,2.42662 -71.191509,0.51946 -13.776674,-7.67281 6.374066,-17.12897 15.244187,-13.37047 25.700462,1.21508 52.252672,0.60847 76.835042,9.20908 7.7011,6.27027 17.80843,16.25088 25.63814,3.50792 6.42543,-9.04242 15.7398,-17.53307 17.11493,-29.00599 -8.44008,-5.95825 -21.7817,-2.49453 -32.09422,-4.0275 -31.29301,-0.9233 -62.64822,0.57109 -93.90571,-1.28108 -14.815213,-2.42628 0.977615,-14.2072 9.453596,-10.1259 14.075293,-0.32683 28.268874,2.44483 42.259774,0.46251 11.86681,-5.94999 7.05837,-22.4244 9.52507,-33.3897 0.18408,-6.31096 2.93656,-26.02642 11.75928,-17.96341 1.28194,10.74492 0.45235,27.40538 16.1046,26.50897 11.04017,1.39509 22.69632,-0.87882 33.31744,2.95444 -5.65484,7.45659 -20.49397,4.11092 -29.8056,5.75294 -9.19894,-1.51664 -18.2466,2.18398 -15.46636,12.62758 -1.34048,5.2732 5.89047,2.49242 9.02568,3.56012 16.65337,1.49154 33.7572,0.69847 49.94002,5.23589 11.01062,5.34846 5.37944,19.61178 0.33753,27.45253 -6.27653,12.06323 -17.51519,20.68507 -23.89441,32.54034 7.85278,11.52776 19.69172,19.89987 30.63178,28.39597 8.7869,6.739 21.49464,11.3289 25.39658,22.431 -6.13305,12.1843 -20.33927,1.5339 -27.10613,-4.8553 -5.58242,-4.6093 -11.01804,-9.3927 -16.44037,-14.1882 z m 13.32583,-119.79853 c -5.45895,-7.74719 1.9627,-23.99868 -12.99612,-22.99018 -15.24667,-5.87647 -31.13043,-11.66448 -43.6128,-22.52944 -10.81132,-6.07254 -22.75483,1.4199 -33.2993,4.70326 -11.95519,5.18775 -25.004371,8.51849 -35.762391,16.0489 -1.699435,5.65937 -5.835052,26.52915 -13.607787,13.79894 -3.31986,-16.86403 -0.352655,-34.37571 2.350806,-51.15144 0.504208,-12.07982 10.553664,-20.8812 22.69111,-18.80457 11.911752,-1.0135 24.788662,0.89283 35.824562,-4.49583 9.0153,-9.79587 -3.92591,-21.03388 -14.70997,-18.4656 -20.582294,-1.61239 -41.449736,-0.35657 -61.850987,-3.63494 1.964072,-11.63726 18.52504,-6.76335 27.313148,-7.08986 51.138829,3.59131 102.453479,1.68554 153.643029,3.70636 6.67519,9.30615 -12.55728,10.06172 -19.35708,8.99814 -20.34582,-0.53709 -40.67955,-1.4502 -61.01911,-2.17985 -2.16448,5.29778 -8.45266,11.95388 -3.29366,17.19302 12.92477,6.72576 28.28,5.32316 42.38723,7.44412 10.00684,1.00788 23.64216,2.50911 26.61056,14.18579 4.12192,18.87552 3.65087,38.47201 3.87532,57.71171 1.92296,9.37794 -8.62484,14.80118 -15.18656,7.55147 z m -2.57624,-39.44329 c 0.9998,-8.65363 -1.07536,-17.27786 -1.98616,-25.8665 -16.62964,-4.08566 -33.7144,-10.98309 -50.97749,-7.2864 -11.45804,10.29197 3.84877,20.77503 13.85327,23.56762 11.55526,4.82425 23.09685,11.92159 35.93698,11.92745 l 2.03111,-0.81847 1.14229,-1.5237 0,0 z M 97.613297,852.19721 c 8.725713,-3.97137 16.446383,-8.14886 26.777413,-10.4281 9.24773,-2.4803 6.92217,-12.94761 7.21505,-20.19715 -14.32486,1.09912 -29.05206,-0.0248 -42.980222,3.89488 -6.320804,6.15268 -9.576936,27.05496 1.887969,29.18244 2.191333,-0.0896 6.276994,0.24971 7.09979,-2.45207 z"
       id="path2996"
       inkscape:connector-curvature="0" />
  </g>
</svg>
