<?xml version="1.0" encoding="UTF-8" standalone="no"?>
<!-- Created with Inkscape (http://www.inkscape.org/) -->

<svg
   xmlns:dc="http://purl.org/dc/elements/1.1/"
   xmlns:cc="http://creativecommons.org/ns#"
   xmlns:rdf="http://www.w3.org/1999/02/22-rdf-syntax-ns#"
   xmlns:svg="http://www.w3.org/2000/svg"
   xmlns="http://www.w3.org/2000/svg"
   xmlns:sodipodi="http://sodipodi.sourceforge.net/DTD/sodipodi-0.dtd"
   xmlns:inkscape="http://www.inkscape.org/namespaces/inkscape"
   width="300"
   height="300"
   viewBox="0 0 300 300"
   id="svg2"
   version="1.1"
   inkscape:version="0.91 r13725"
   sodipodi:docname="會-seal.svg">
  <defs
     id="defs4">
    <clipPath
       clipPathUnits="userSpaceOnUse"
       id="clipPath4204">
      <rect
         style="fill:#0000ff;fill-rule:evenodd;stroke:#000000;stroke-width:1px;stroke-linecap:butt;stroke-linejoin:miter;stroke-opacity:1"
         id="rect4206"
         width="15.451179"
         height="21.584471"
         x="164.41942"
         y="794.64594" />
    </clipPath>
  </defs>
  <sodipodi:namedview
     id="base"
     pagecolor="#ffffff"
     bordercolor="#666666"
     borderopacity="1.0"
     inkscape:pageopacity="0.0"
     inkscape:pageshadow="2"
     inkscape:zoom="1.71"
     inkscape:cx="150"
     inkscape:cy="150"
     inkscape:document-units="px"
     inkscape:current-layer="layer1"
     showgrid="false"
     inkscape:window-width="1280"
     inkscape:window-height="751"
     inkscape:window-x="0"
     inkscape:window-y="1"
     inkscape:window-maximized="1"
     units="px"
     showguides="false" />
  <metadata
     id="metadata7">
    <rdf:RDF>
      <cc:Work
         rdf:about="">
        <dc:format>image/svg+xml</dc:format>
        <dc:type
           rdf:resource="http://purl.org/dc/dcmitype/StillImage" />
        <dc:title></dc:title>
      </cc:Work>
    </rdf:RDF>
  </metadata>
  <g
     inkscape:label="Layer 1"
     inkscape:groupmode="layer"
     id="layer1"
     transform="translate(0,-752.36216)">
    <path
       style="fill:#000000"
       d="m 113.50944,1032.765 c -14.314977,-7.3974 -17.132687,-10.9067 -21.153897,-26.3461 -5.17479,-19.86853 -4.67428,-68.34706 0.72706,-70.41976 10.714697,-4.11161 16.400917,4.76603 15.048677,23.49478 -0.44184,6.11919 0.41073,12.32461 1.89456,13.78983 1.48383,1.46523 17.38704,3.40445 35.3405,4.30938 28.007,1.41166 32.88147,1.02285 34.32465,-2.73797 1.96125,-5.11093 -0.21241,-5.98951 -19.75467,-7.98507 -21.53368,-2.19894 -26.16856,-6.08628 -26.16856,-21.94799 0,-14.27511 2.5619,-17.67204 11.24861,-14.91499 4.1,1.30131 5.58663,4.25138 5.58663,11.08615 0,8.03661 1.05754,9.45574 7.71615,10.35437 14.32477,1.93325 20.34259,-0.2702 20.34259,-7.44866 0,-8.47582 3.3712,-10.50396 12.00406,-7.22176 5.88585,2.2378 7.13707,5.02998 8.78631,19.6073 2.38454,21.07666 -2.28794,48.31149 -10.41563,60.71049 -8.28687,12.6417 -22.04482,18.6902 -45.44816,19.9807 -15.41165,0.8498 -21.88876,-0.079 -30.07888,-4.3107 z m 48.11784,-15.0823 c 5.51087,-1.929 11.59808,-4.9955 13.52711,-6.8143 5.28975,-4.9874 4.3708,-17.14708 -1.40293,-18.5638 -4.07988,-1.00108 -42.36426,-0.68199 -60.32628,0.50281 -7.65978,0.50526 -6.14284,13.47889 2.51412,21.50189 5.83624,5.4089 10.44525,6.8807 21.5463,6.8807 7.76705,0 18.6308,-1.5783 24.14168,-3.5073 z m -44.69476,-96.87245 c -25.093057,-2.12907 -36.476347,-14.89361 -36.476347,-40.90229 0,-13.37178 1.21469,-17.11779 8.02061,-24.73495 7.00172,-7.8363 10.47702,-9.24936 27.357267,-11.12366 48.33925,-5.36735 79.07406,-1.2547 93.68545,12.53614 7.11112,6.71173 8.42446,10.07289 8.42446,21.56019 0,25.34711 -8.89823,37.78409 -29.03961,40.58842 -14.04923,1.95611 -58.33136,3.23351 -71.97183,2.07615 z m 18.13877,-16.76543 c 3.73475,-9.63209 4.30898,-23.94898 1.3946,-34.7721 -3.25894,-12.1028 -8.30987,-12.10002 -8.30987,0.006 0,4.22997 -1.0049,8.89036 -2.23309,10.35643 -3.98855,4.76106 -9.38971,23.59941 -7.59757,26.49914 2.88429,4.6669 14.69792,3.19387 16.74593,-2.08805 z m 37.9787,1.36331 c 0,-1.95081 -2.52529,-10.45583 -5.61175,-18.90002 -3.08646,-8.44419 -5.61174,-18.21186 -5.61174,-21.7059 0,-3.49407 -1.26265,-6.35284 -2.80588,-6.35284 -1.54323,0 -2.80587,2.98037 -2.80587,6.62307 0,3.64267 -0.77754,12.29579 -1.72786,19.2291 -1.48209,10.81316 -0.80826,13.46278 4.73789,18.62979 7.20183,6.70952 13.82521,7.89612 13.82521,2.4768 z m 26.3556,-12.11483 c 3.74157,-9.75038 1.65448,-23.44714 -4.43769,-29.12289 -13.70593,-12.769 -20.25739,-4.25833 -13.09319,17.00873 5.47306,16.24679 13.75019,21.96648 17.53088,12.11416 z m -92.30002,-10.32472 c 1.00557,-4.99779 2.45042,-11.29653 3.21081,-13.99718 1.63184,-5.79565 -7.12691,-6.88012 -12.463797,-1.54323 -4.45194,4.45194 -4.345,23.87324 0.1403,25.48215 5.339567,1.91538 7.117227,-0.0252 9.112687,-9.94174 z M 53.098903,865.00872 c -1.92904,-0.77838 -3.50734,-3.38854 -3.50734,-5.80033 0,-4.09503 77.398867,-82.12935 81.460537,-82.12935 1.02136,0 4.78875,-2.54268 8.37199,-5.65041 8.02491,-6.95997 14.64464,-5.25618 28.01415,7.21026 19.39681,17.85299 42.19956,36.27925 61.75742,49.65004 17.05135,11.60767 23.18799,19.27935 20.67016,25.84072 -2.00872,5.23461 -4.04284,5.36483 -12.68807,0.81238 -6.02486,-3.1726 -27.00443,-18.17142 -30.45728,-21.7747 -0.77162,-0.80523 -5.74901,-5.03851 -11.06087,-9.40731 -9.16518,-7.538 -9.76112,-7.66421 -11.68107,-2.47405 -2.36291,6.38757 -17.07251,9.10467 -49.28988,9.10467 -18.0519,0 -21.00724,-0.71474 -22.78091,-5.50945 -1.79057,-4.84032 -5.08228,-2.62531 -27.103557,18.23818 -13.78602,13.0612 -25.77027,23.64793 -26.6317,23.5261 -0.86143,-0.12178 -3.14454,-0.85837 -5.07358,-1.63675 z M 178.66174,812.27999 c 0,-2.15455 -13.10122,-14.5168 -22.40684,-21.14299 -8.80115,-6.26697 -8.8309,-6.26843 -14.95146,-0.72801 -3.373,3.0533 -8.97369,7.89696 -12.44596,10.7637 -12.28066,10.13902 -8.34048,12.38271 21.74552,12.38271 15.43231,0 28.05874,-0.57394 28.05874,-1.27541 z"
       id="path4577"
       inkscape:connector-curvature="0"
       sodipodi:nodetypes="csssssssssssssssscssssssssssssssscssssccsssssssssssscssscssssccsssssssscsssssss" />
  </g>
</svg>
