<?xml version="1.0" encoding="UTF-8" standalone="no"?>
<!-- Created with Inkscape (http://www.inkscape.org/) -->

<svg
   xmlns:dc="http://purl.org/dc/elements/1.1/"
   xmlns:cc="http://creativecommons.org/ns#"
   xmlns:rdf="http://www.w3.org/1999/02/22-rdf-syntax-ns#"
   xmlns:svg="http://www.w3.org/2000/svg"
   xmlns="http://www.w3.org/2000/svg"
   xmlns:sodipodi="http://sodipodi.sourceforge.net/DTD/sodipodi-0.dtd"
   xmlns:inkscape="http://www.inkscape.org/namespaces/inkscape"
   width="300"
   height="300"
   id="svg2"
   version="1.1"
   inkscape:version="0.48.4 r9939"
   sodipodi:docname="dessin.svg">
  <defs
     id="defs4" />
  <sodipodi:namedview
     id="base"
     pagecolor="#ffffff"
     bordercolor="#666666"
     borderopacity="1.0"
     inkscape:pageopacity="0.0"
     inkscape:pageshadow="2"
     inkscape:zoom="1.979899"
     inkscape:cx="218.29155"
     inkscape:cy="144.09165"
     inkscape:document-units="px"
     inkscape:current-layer="layer1"
     showgrid="false"
     inkscape:window-width="1215"
     inkscape:window-height="1000"
     inkscape:window-x="65"
     inkscape:window-y="24"
     inkscape:window-maximized="1" />
  <metadata
     id="metadata7">
    <rdf:RDF>
      <cc:Work
         rdf:about="">
        <dc:format>image/svg+xml</dc:format>
        <dc:type
           rdf:resource="http://purl.org/dc/dcmitype/StillImage" />
        <dc:title />
      </cc:Work>
    </rdf:RDF>
  </metadata>
  <g
     inkscape:label="Calque 1"
     inkscape:groupmode="layer"
     id="layer1"
     transform="translate(0,-752.36218)">
    <path
       style="fill:#000000"
       d="m 156.81379,1041.4032 c -1.34255,-3.5335 0.87391,-13.3662 7.06171,-31.3269 4.31737,-12.53168 12.97474,-22.07958 30.73514,-33.89672 9.44494,-6.28433 17.70909,-13.49804 18.36482,-16.03049 0.65572,-2.53245 2.14614,-4.60443 3.31205,-4.60443 1.16591,0 2.11984,-3.05377 2.11984,-6.78616 0,-3.73238 1.15977,-7.95746 2.57727,-9.38909 1.83377,-1.85204 1.8379,-6.71113 0.0144,-16.8442 -2.91327,-16.18802 -7.89126,-21.79211 -21.36054,-24.04727 -13.44521,-2.25111 -14.82705,-3.00003 -14.82705,-8.03588 0,-6.74776 5.46913,-7.87983 18.5185,-3.83325 13.14741,4.07698 17.38664,6.99388 23.13723,15.92006 3.47034,5.38673 3.87618,10.22124 2.64485,31.50715 -0.8,13.82925 -2.45585,25.50763 -3.67973,25.95195 -1.22387,0.44434 -2.22523,2.14891 -2.22523,3.78791 0,4.32307 -25.09964,25.69957 -30.17569,25.69957 -0.86532,0 -5.18856,3.98624 -9.60721,8.85834 -5.67559,6.25801 -8.83018,12.83881 -10.74652,22.41851 -1.49196,7.4581 -3.66857,16.0142 -4.83687,19.0134 -2.44793,6.2841 -8.89732,7.2419 -11.02671,1.6375 z m 14.7989,-74.2847 c -5.2794,-1.29545 -11.47403,-3.3389 -13.76586,-4.54098 -2.29184,-1.20209 -5.31057,-2.18561 -6.70833,-2.18561 -9.93121,0 -21.25688,-27.73291 -18.15197,-44.44829 1.57388,-8.47317 15.41757,-25.83691 20.59913,-25.83691 1.21584,0 4.96708,-2.78387 8.33602,-6.18638 6.94644,-7.01562 5.69263,-12.42855 -4.10559,-17.72465 -5.60759,-3.03098 -11.40053,-14.67518 -11.40053,-22.91587 0,-2.23811 -1.04599,-4.06929 -2.32439,-4.06929 -1.27843,0 -1.65464,-1.76281 -0.83602,-3.91737 1.25655,-3.3071 0.70857,-3.49589 -3.51714,-1.21182 -6.28255,3.39582 -6.68992,3.38022 -10.54905,-0.40373 -4.38509,-4.29969 -17.99934,-13.85609 -19.73967,-13.85609 -0.78615,0 -1.42935,5.45316 -1.42935,12.11813 0,6.66499 0.80991,12.12011 1.7998,12.12251 0.98989,0.003 8.15979,5.75291 15.93313,12.77887 11.7512,10.62143 13.84737,13.68436 12.43684,18.17284 -2.13882,6.80593 -4.5399,6.79447 -11.47914,-0.0548 -3.03863,-2.99924 -9.5601,-8.50262 -14.49213,-12.2297 l -8.96738,-6.77656 -11.662836,11.01792 c -6.414587,6.05984 -12.311699,11.01787 -13.104713,11.01787 -0.793013,0 -4.199689,2.78531 -7.570369,6.18956 -6.284403,6.347 -10.887726,6.12199 -10.887726,-0.53215 0,-3.65934 23.240534,-27.47005 26.812263,-27.47005 0.988615,0 3.742829,-2.10888 6.120451,-4.68638 5.18536,-5.62126 4.72845,-26.82079 -0.57807,-26.82079 -1.736871,0 -3.517924,0.85836 -3.95789,1.90745 -0.439942,1.04912 -5.334472,5.5496 -10.876712,10.00112 -11.588542,9.30785 -19.830739,9.10749 -14.824693,-0.36037 3.580031,-6.77088 14.791865,-17.52449 23.996903,-23.01618 6.537192,-3.90009 6.903922,-5.00124 6.903922,-20.73029 0,-15.83112 0.25312,-16.57502 5.38877,-15.83693 4.58058,0.65833 5.79213,3.05828 8.07825,16.00209 1.47922,8.37519 3.1038,15.62208 3.61019,16.10419 0.50642,0.48213 6.32012,3.87913 12.91936,7.54894 6.59925,3.66982 12.8622,8.14722 13.91767,9.94983 4.74465,8.10309 6.1908,1.81121 4.81726,-20.95887 -1.55077,-25.70833 -0.34026,-28.37745 9.46186,-20.86246 3.39933,2.60615 4.19952,7.00889 4.19952,23.10617 l 0,19.88652 23.39733,-0.99422 23.39733,-0.99426 0,-7.04133 c 0,-6.71192 -0.58668,-7.10092 -12.53994,-8.31487 -16.53092,-1.67882 -19.68119,-6.01144 -19.78005,-27.2041 -0.0687,-14.71723 0.4009,-16.35948 4.67743,-16.35948 3.01468,0 5.143,1.9949 5.8178,5.45315 0.58524,2.99925 1.96051,10.36101 3.05612,16.35949 1.91093,10.46225 2.33356,10.90633 10.38033,10.90633 7.96095,0 8.42626,-0.46306 9.13309,-9.08861 0.57164,-6.97556 1.78264,-9.0886 5.20873,-9.0886 5.67554,0 7.77451,9.02191 8.45186,36.32824 0.83767,33.76973 -7.15022,47.88153 -29.6789,52.43213 -6.38915,1.29055 -7.52387,2.59673 -7.52387,8.6608 0,8.30259 -3.92602,12.92917 -14.9142,17.5754 -17.46022,7.38294 -25.19311,19.05105 -21.04291,31.75159 2.52302,7.72101 7.1604,11.56824 7.1604,5.94038 0,-1.33298 1.72307,-2.42362 3.82908,-2.42362 2.10599,0 6.96544,-2.25553 10.79876,-5.01228 5.51469,-3.96594 6.97737,-6.87521 7.00643,-13.93587 0.0192,-4.90797 0.97936,-10.42659 2.13144,-12.26362 3.37198,-5.3767 7.43073,-0.7162 7.43073,8.5324 0,6.54096 1.92458,10.42936 8.21652,16.60053 4.51909,4.43234 10.35866,8.74546 12.97681,9.5847 5.47802,1.75598 8.07067,6.986 6.07148,12.24772 -2.02644,5.33336 -3.93841,4.64217 -16.76068,-6.05907 -6.38881,-5.33199 -12.46037,-9.69451 -13.49236,-9.69451 -4.69901,0 -23.40876,14.44031 -23.40876,18.06705 0,0.72707 2.09602,1.32196 4.65783,1.32196 2.56179,0 5.32522,1.09064 6.14094,2.42363 0.81571,1.333 5.60667,2.42363 10.64656,2.42363 9.85055,0 15.9778,4.86598 13.69449,10.87544 -1.54207,4.05861 -5.30031,4.19293 -19.5416,0.6984 z m 26.98499,-119.96284 c 9.25835,-11.57116 7.6888,-12.62324 -17.50854,-11.73617 -23.94814,0.8431 -27.8321,1.9756 -23.11488,6.7398 1.5618,1.57736 2.83967,4.7511 2.83967,7.05278 0,5.38499 5.4791,6.90847 20.39767,5.67167 9.56315,-0.79281 13.09219,-2.36146 17.38608,-7.72808 z M 84.016536,963.29787 c -4.299445,-3.51615 -5.653179,-7.87553 -6.96175,-22.41856 -0.893442,-9.9295 -1.041001,-26.23337 -0.327923,-36.23084 1.199744,-16.82074 1.719836,-18.23769 6.969262,-18.98785 l 5.672737,-0.81066 -1.571245,23.83512 c -2.056661,31.19883 0.359624,45.3618 7.925413,46.45455 9.55642,1.38022 15.87243,-1.55613 18.47086,-8.58726 2.05577,-5.56271 2.70986,-39.06762 0.93664,-47.97624 -1.27611,-6.41121 0.37531,-13.62408 2.92293,-12.76643 9.27972,3.12404 12.38521,49.00562 4.50364,66.5381 -3.69245,8.21385 -6.29597,10.62127 -13.74572,12.71053 -12.99702,3.64496 -18.678517,3.24156 -24.794844,-1.76046 z"
       id="path3254"
       inkscape:connector-curvature="0" />
  </g>
</svg>
