<?xml version="1.0" encoding="UTF-8" standalone="no"?>
<!-- Created with Inkscape (http://www.inkscape.org/) -->

<svg
   xmlns:dc="http://purl.org/dc/elements/1.1/"
   xmlns:cc="http://creativecommons.org/ns#"
   xmlns:rdf="http://www.w3.org/1999/02/22-rdf-syntax-ns#"
   xmlns:svg="http://www.w3.org/2000/svg"
   xmlns="http://www.w3.org/2000/svg"
   xmlns:sodipodi="http://sodipodi.sourceforge.net/DTD/sodipodi-0.dtd"
   xmlns:inkscape="http://www.inkscape.org/namespaces/inkscape"
   width="300"
   height="300"
   id="svg2"
   version="1.1"
   inkscape:version="0.48.3.1 r9886"
   sodipodi:docname="Nouveau document 1">
  <defs
     id="defs4" />
  <sodipodi:namedview
     id="base"
     pagecolor="#ffffff"
     bordercolor="#666666"
     borderopacity="1.0"
     inkscape:pageopacity="0.0"
     inkscape:pageshadow="2"
     inkscape:zoom="1.979899"
     inkscape:cx="144.32638"
     inkscape:cy="145.06308"
     inkscape:document-units="px"
     inkscape:current-layer="layer1"
     showgrid="false"
     inkscape:window-width="1215"
     inkscape:window-height="1000"
     inkscape:window-x="65"
     inkscape:window-y="24"
     inkscape:window-maximized="1" />
  <metadata
     id="metadata7">
    <rdf:RDF>
      <cc:Work
         rdf:about="">
        <dc:format>image/svg+xml</dc:format>
        <dc:type
           rdf:resource="http://purl.org/dc/dcmitype/StillImage" />
        <dc:title></dc:title>
      </cc:Work>
    </rdf:RDF>
  </metadata>
  <g
     inkscape:label="Calque 1"
     inkscape:groupmode="layer"
     id="layer1"
     transform="translate(0,-752.36218)">
    <path
       style="fill:#000000"
       d="m 155.30821,1035.0693 c -2.45677,-3.9247 0.24748,-97.85659 4.78333,-166.1416 2.10184,-31.64318 3.50873,-35.45931 16.80366,-45.57964 7.42253,-5.65018 8.57443,-8.11443 8.57443,-18.3429 l 0,-11.81588 -9.35021,0 c -8.75336,0 -18.30451,-5.5471 -14.76364,-8.57442 0.8746,-0.74773 17.96268,-1.52081 37.97354,-1.71792 42.3704,-0.41736 44.27545,0.48548 44.27545,20.98287 0,9.86057 -1.2886,13.18759 -6.83237,17.64033 -8.05446,6.46932 -33.6056,10.88934 -39.35716,6.80829 -2.50363,-1.77646 -3.64058,-1.80085 -3.64058,-0.0781 0,1.37785 -4.80352,4.81338 -10.6745,7.63446 l -10.6745,5.12927 -2.11133,26.38263 c -2.99458,37.41933 -3.98985,66.78528 -4.11437,121.39413 -0.0911,39.91729 -0.77751,47.89439 -4.21897,49.02349 -2.31984,0.7611 -5.22652,-0.4347 -6.67278,-2.7451 z m 73.78586,-224.72054 c 1.72563,-4.25289 1.65306,-8.39242 -0.20929,-11.94357 -2.50568,-4.77769 -4.52324,-5.35004 -16.68668,-4.73365 l -13.83642,0.70116 -1.09025,11.24241 -1.09024,11.24243 15.13599,0 c 14.02621,0 15.32962,-0.47722 17.77695,-6.50878 z m 10.30379,222.87744 c -0.89101,-2.4958 -3.9503,-8.798 -6.79838,-14.005 -5.48169,-10.022 -10.46927,-26.70516 -18.39722,-61.53752 -2.66658,-11.71579 -5.71277,-22.18556 -6.76937,-23.26616 -1.05658,-1.0806 -6.60835,-0.85821 -12.33727,0.49419 -7.13621,1.68464 -12.08821,1.69387 -15.72598,0.0293 -7.57073,-3.46407 -4.95809,-7.15636 7.63999,-10.79713 22.58171,-6.526 23.06082,-7.00431 19.39106,-19.35856 -3.17568,-10.6908 -3.61515,-11.03989 -15.34563,-12.1894 -6.64197,-0.65088 -12.58576,-2.5082 -13.20839,-4.12739 -2.63484,-6.85194 29.06813,-10.58294 35.30763,-4.1552 1.89615,1.95333 4.06838,8.26077 4.82719,14.01653 0.95557,7.24823 2.4765,10.10514 4.94796,9.29431 4.13034,-1.35508 8.22945,-26.47427 5.51392,-33.78918 -2.19255,-5.90623 -14.08907,-9.08882 -35.36081,-9.4599 -8.46511,-0.14769 -10.38127,-1.05482 -10.38127,-4.91473 0,-4.33476 1.84558,-4.73366 21.90064,-4.73366 21.05691,0 22.17676,0.28054 29.06758,7.28208 7.6998,7.8235 7.77698,8.04475 7.77883,22.30325 0.001,13.61059 -3.13567,22.30991 -12.10431,33.56199 -4.33727,5.44157 -7.88597,11.76788 -7.88597,14.0585 0,5.66295 5.46356,29.99071 10.30135,45.86913 12.81522,42.06161 15.47012,54.65151 12.12741,57.50941 -1.97959,1.6925 -3.37104,1.0462 -4.48896,-2.0849 z m -124.27668,-5.3833 c -0.80669,-1.116 -0.1578,-8.3052 1.44209,-15.9761 5.04883,-24.20812 7.97121,-46.24606 9.73265,-73.39555 l 1.70718,-26.3129 -15.53739,-0.11929 c -8.54559,-0.0656 -16.095804,0.65308 -16.778312,1.59721 -0.682468,0.94411 -2.078245,7.11361 -3.101757,13.71001 l -1.860878,11.99341 12.768197,7.51063 c 7.0225,4.13081 12.76817,8.99417 12.76817,10.80744 0,5.86871 -5.79157,6.56347 -12.14878,1.45738 -10.699643,-8.59387 -14.479861,-6.53362 -18.001661,9.81103 -1.753057,8.13597 -4.336357,19.05295 -5.740647,24.25997 -1.404304,5.20702 -3.235415,12.12996 -4.069157,15.38436 -0.833741,3.2544 -2.659632,7.4211 -4.057502,9.2595 -2.16036,2.841 -3.202086,2.7776 -6.9453,-0.4227 -4.804866,-4.108 -5.802935,-10.1849 -2.002616,-12.193 1.320645,-0.6978 3.169474,-5.81976 4.108522,-11.38211 0.939024,-5.56234 3.03274,-15.43871 4.6527,-21.94748 1.619948,-6.50878 4.126341,-21.95232 5.569755,-34.31897 3.009521,-25.78412 6.972872,-51.09413 9.080374,-57.98724 0.796009,-2.60351 1.542607,-13.5205 1.659096,-24.25997 0.189911,-17.51678 0.751142,-19.52632 5.452335,-19.52632 6.507811,0 8.601181,4.44102 8.601181,18.24728 l 0,10.75964 10.64739,-1.45564 c 12.38096,-1.69265 15.1504,-0.24835 11.30455,5.89548 -1.9888,3.17714 -5.85909,4.42246 -13.74432,4.42246 -8.52704,0 -11.023223,0.92413 -11.187771,4.14195 -0.239462,4.68361 -1.487898,10.83031 -3.797744,18.69856 -1.369303,4.66452 -0.0988,5.70779 9.697985,7.96316 8.67416,1.99694 13.17921,1.88283 19.53751,-0.49488 l 8.2638,-3.09029 -0.50143,-26.03509 c -0.69419,-36.04372 -2.54812,-39.83413 -24.956,-51.02294 -20.452942,-10.21264 -28.346648,-20.28415 -22.341481,-28.50527 1.779708,-2.43644 3.23581,-5.85988 3.23581,-7.60765 0,-4.4586 23.497641,-12.948 40.833021,-14.75245 14.15886,-1.47379 14.53378,-1.35881 14.53378,4.45663 0,5.35543 -1.63719,6.26552 -15.91796,8.84835 -21.7318,3.93042 -28.929738,8.00778 -27.85055,15.77627 0.8767,6.31088 12.93866,14.30464 22.10093,14.64683 2.5474,0.0952 8.46473,3.45015 13.14961,7.45553 l 8.51797,7.28257 0,32.55902 c 0,17.90746 -0.74767,33.19825 -1.66151,33.97955 -0.91383,0.78128 -2.18735,10.81072 -2.83004,22.28761 -0.64269,11.47689 -1.65711,25.12736 -2.25426,30.33438 -0.59713,5.20702 -1.82326,16.92281 -2.72469,26.03509 -1.51057,15.26983 -5.74713,35.19734 -9.30887,43.78624 -0.80974,1.9527 -1.22115,4.8816 -0.91427,6.5088 0.62587,3.3185 -6.85239,4.0799 -9.12971,0.9295 z"
       id="path3007"
       inkscape:connector-curvature="0" />
  </g>
</svg>
