<?xml version="1.0" encoding="UTF-8" standalone="no"?>
<!-- Created with Inkscape (http://www.inkscape.org/) -->

<svg
   xmlns:dc="http://purl.org/dc/elements/1.1/"
   xmlns:cc="http://creativecommons.org/ns#"
   xmlns:rdf="http://www.w3.org/1999/02/22-rdf-syntax-ns#"
   xmlns:svg="http://www.w3.org/2000/svg"
   xmlns="http://www.w3.org/2000/svg"
   xmlns:sodipodi="http://sodipodi.sourceforge.net/DTD/sodipodi-0.dtd"
   xmlns:inkscape="http://www.inkscape.org/namespaces/inkscape"
   width="300"
   height="300"
   id="svg2"
   version="1.1"
   inkscape:version="0.48.2 r9819"
   sodipodi:docname="Nouveau document 1">
  <defs
     id="defs4" />
  <sodipodi:namedview
     id="base"
     pagecolor="#ffffff"
     bordercolor="#666666"
     borderopacity="1.0"
     inkscape:pageopacity="0.0"
     inkscape:pageshadow="2"
     inkscape:zoom="1.979899"
     inkscape:cx="169.4226"
     inkscape:cy="109.98207"
     inkscape:document-units="px"
     inkscape:current-layer="layer1"
     showgrid="false"
     inkscape:window-width="1280"
     inkscape:window-height="999"
     inkscape:window-x="0"
     inkscape:window-y="24"
     inkscape:window-maximized="1" />
  <metadata
     id="metadata7">
    <rdf:RDF>
      <cc:Work
         rdf:about="">
        <dc:format>image/svg+xml</dc:format>
        <dc:type
           rdf:resource="http://purl.org/dc/dcmitype/StillImage" />
        <dc:title></dc:title>
      </cc:Work>
    </rdf:RDF>
  </metadata>
  <g
     inkscape:label="Calque 1"
     inkscape:groupmode="layer"
     id="layer1"
     transform="translate(0,-752.36218)">
    <path
       style="fill:#000000"
       d="m 104.06965,1032.9682 c -0.69148,-1.5698 0.0311,-5.4231 1.6058,-8.5627 17.54031,-36.76108 10.2448,-84.69315 11.93743,-115.14556 -4.261,-1.3274 -27.740491,-2.10968 -31.638836,-2.48357 -5.130724,15.69573 -4.222996,33.54089 -4.620435,42.04565 4.566916,2.59724 18.424219,9.36512 19.881311,9.36512 1.45709,0 4.34711,2.53379 6.42227,5.63064 3.06363,4.57199 3.08718,6.29065 0.12525,9.14105 -8.233957,-1.71377 -20.207086,-8.95573 -29.056939,-13.24591 -7.015154,24.85291 -12.323485,33.11272 -17.99182,47.56708 -1.973158,5.0235 -5.397792,9.1336 -7.610299,9.1336 -5.888227,0 -6.625388,-9.6951 -1.456892,-19.16096 4.187098,-7.66849 6.642206,-14.67609 13.286575,-37.9238 2.202544,-7.70639 7.363709,-64.14417 9.327054,-101.99209 0.304039,-5.86106 1.461847,-11.38251 2.572908,-12.26989 10.184367,-3.55181 11.53857,8.76004 11.232763,13.00824 4.91499,0 16.80093,1.44834 19.13394,4.432 4.78937,6.12506 2.53389,7.79566 -9.414889,6.97346 -7.54262,-0.519 -6.062746,-0.0273 -9.649776,0.0354 -1.09389,8.50213 -1.615416,19.89672 -0.542687,25.63663 10.620759,1.43378 25.776082,0.45315 30.907752,0.0339 1.02495,-5.92441 4.85259,-44.01602 -5.39666,-51.66335 -10.24925,-7.64733 -24.65347,-13.19407 -33.490847,-17.7726 -9.194365,-4.78436 -7.237379,-17.55008 -3.251411,-24.76418 6.51764,-11.62685 18.431395,-16.81496 36.480488,-15.88624 19.95471,1.02678 18.04767,6.628 -3.72287,10.93453 -18.201291,3.60048 -24.06283,7.2768 -24.210247,15.18453 -0.06381,3.42291 3.093951,6.08452 10.588786,8.92504 5.873841,2.22617 15.672661,8.0754 21.775151,12.99828 21.71845,15.03741 10.93926,49.41183 10.84714,73.27702 -0.14303,38.46752 2.68677,93.43325 -15.30458,123.12358 -3.15816,6.6986 -6.71185,8.0872 -8.76543,3.4251 z m 52.51888,-46.62412 c -1.71467,-18.26218 -2.77723,-20.98399 -0.29697,-32.29633 -11.55482,-4.67436 -17.03526,-24.85326 -17.09203,-31.71657 -0.0888,-10.73192 15.33259,-28.06866 24.9743,-28.07618 3.86692,-0.003 5.01916,8.26069 1.32621,9.51134 -5.90134,1.99853 -14.90627,15.95156 -14.90627,23.09708 0,9.26553 3.81925,11.45153 8.83204,15.4246 5.02248,-15.59794 20.6695,-28.16505 28.2879,-26.36658 5.28798,2.6102 3.02306,8.23069 -5.67137,14.07372 -7.48415,5.02968 -9.33213,11.79284 -11.53909,15.95369 4.54475,0.35995 10.25204,0.82134 17.18497,0.82134 5.24279,0 9.84114,5.74558 7.26388,9.07614 -0.77198,0.99763 -7.17653,2.50528 -14.23232,3.35035 l -12.57618,0.0213 -1.03904,37.15956 c -0.78681,28.13926 -1.63038,35.86846 -4.79654,36.70946 -5.59707,-6.445 -5.62007,-37.56171 -5.71949,-46.74287 z m 70.18138,45.44612 c -0.83868,-1.0838 -1.59112,-17.7205 -1.67209,-36.97051 -0.0864,-20.54376 2.55969,-32.7377 0.23045,-42.01396 -3.03409,1.069 -7.80461,0.63397 -12.03589,1.51771 -5.78793,1.20886 -14.39156,-2.76242 -9.49852,-4.38435 1.74255,-0.57761 15.45114,-2.75801 18.42588,-4.53667 -2.89411,-4.22393 -0.81414,-3.74697 -10.87305,-12.1053 -4.72239,-3.92402 -6.43266,-9.69097 -6.43266,-10.38406 0,-3.35453 7.37026,-0.55656 14.7249,5.59001 4.50809,3.76759 8.25122,10.13317 10.59089,12.65855 10.82486,-14.6263 -1.33879,-38.77626 -14.59468,-43.00862 -2.54038,-0.74394 -2.69486,-1.79798 -0.53427,-3.64534 2.25006,-1.92384 5.40572,-1.93996 12.15058,-0.062 20.58611,13.27739 26.39725,38.39322 7.64112,54.5582 -0.66239,8.20685 -0.20615,28.00566 0.79147,39.89298 0.60689,31.89846 -0.0297,39.98566 -3.31917,42.16606 -2.23855,1.4839 -4.75628,1.8111 -5.59496,0.7273 z m -6.18267,-168.77175 c -6.26162,-3.36405 -13.46547,-7.98792 -16.00855,-10.27526 -13.99738,-7.5102 -31.14127,1.69161 -44.96146,7.25816 -18.86692,7.65731 -27.07457,8.7024 -25.67212,3.26886 0.94486,-3.66071 2.62199,-4.49099 32.37295,-16.02653 l 17.15376,-6.65115 1.7954,-31.96746 c 0.98746,-17.58211 1.95236,-32.1921 2.14422,-32.46666 0.19185,-0.27455 2.27862,0.0923 4.63727,0.81515 3.51505,1.0773 4.28844,6.8014 4.28844,31.74032 l 0,30.42599 7.86214,4.2337 c 4.32418,2.32854 11.72174,5.73796 16.43903,7.5765 12.76834,4.97641 19.5448,10.60663 17.61079,14.63193 -2.32358,4.83612 -4.46797,4.52486 -17.66187,-2.56355 z m 8.62341,-18.46495 c -1.57494,-0.92267 -4.3398,-4.24639 -6.14414,-7.38605 -10.68923,-18.59992 -11.7606,-27.69898 -4.77222,-40.53018 4.43322,-8.13975 11.04336,-10.35669 7.993,-2.68074 -3.82156,9.61664 -2.13968,23.93933 3.92391,33.41554 8.61145,13.45801 8.08466,22.50396 -1.00055,17.18143 z m -87.19377,-4.35202 c 0,-2.09888 1.74762,-5.43833 3.88361,-7.42102 6.11441,-5.67559 10.4112,-18.14127 10.4112,-30.20461 0,-6.09191 0.53805,-11.07621 1.19566,-11.07621 0.6576,0 3.23067,0.62369 5.71792,1.38599 5.64818,1.73106 6.19905,20.72291 0.94856,32.70275 -5.83323,13.30948 -22.15695,24.07541 -22.15695,14.6131 z"
       id="path2996"
       inkscape:connector-curvature="0"
       sodipodi:nodetypes="sccccsscccssssccssccczccsssscccsccssssccscssscscccsscsscsssccsccccsscssscsscscsssssssssssssssss" />
  </g>
</svg>
