<?xml version="1.0" encoding="UTF-8" standalone="no"?>
<!-- Created with Inkscape (http://www.inkscape.org/) -->

<svg
   xmlns:dc="http://purl.org/dc/elements/1.1/"
   xmlns:cc="http://creativecommons.org/ns#"
   xmlns:rdf="http://www.w3.org/1999/02/22-rdf-syntax-ns#"
   xmlns:svg="http://www.w3.org/2000/svg"
   xmlns="http://www.w3.org/2000/svg"
   xmlns:sodipodi="http://sodipodi.sourceforge.net/DTD/sodipodi-0.dtd"
   xmlns:inkscape="http://www.inkscape.org/namespaces/inkscape"
   width="300"
   height="300"
   id="svg2"
   version="1.1"
   inkscape:version="0.48.4 r9939"
   sodipodi:docname="image-seal.svg">
  <defs
     id="defs4" />
  <sodipodi:namedview
     id="base"
     pagecolor="#ffffff"
     bordercolor="#666666"
     borderopacity="1.0"
     inkscape:pageopacity="0.0"
     inkscape:pageshadow="2"
     inkscape:zoom="1.979899"
     inkscape:cx="146.08979"
     inkscape:cy="147.63167"
     inkscape:document-units="px"
     inkscape:current-layer="layer1"
     showgrid="false"
     inkscape:window-width="1215"
     inkscape:window-height="1000"
     inkscape:window-x="65"
     inkscape:window-y="24"
     inkscape:window-maximized="1" />
  <metadata
     id="metadata7">
    <rdf:RDF>
      <cc:Work
         rdf:about="">
        <dc:format>image/svg+xml</dc:format>
        <dc:type
           rdf:resource="http://purl.org/dc/dcmitype/StillImage" />
        <dc:title />
      </cc:Work>
    </rdf:RDF>
  </metadata>
  <g
     inkscape:label="Calque 1"
     inkscape:groupmode="layer"
     id="layer1"
     transform="translate(0,-752.36218)">
    <path
       style="fill:#000000"
       d="m 214.21764,1039.3431 c -21.68609,-17.9164 -34.69304,-45.81232 -31.57532,-67.71925 1.20566,-8.47169 4.88539,-15.09897 13.85735,-24.95752 26.44091,-29.05368 27.56942,-32.5141 27.25877,-83.58537 -0.27455,-45.12283 -2.98327,-60.11783 -10.86003,-60.11783 -2.87855,0 -5.95349,1.16458 -6.8332,2.58799 -0.87971,1.42337 -1.8356,26.22735 -2.12419,55.11996 -0.28858,28.89261 -1.36046,53.88427 -2.38193,55.53703 -1.02144,1.65276 -3.26227,2.13665 -4.97958,1.07528 -2.12856,-1.3155 -3.08742,-16.09471 -3.01254,-46.43296 0.0606,-24.47674 -0.37189,-47.59813 -0.9607,-51.38086 -0.58881,-3.78273 -1.22855,-9.04415 -1.42168,-11.69206 -0.2088,-2.8633 -2.58088,-4.81438 -5.85323,-4.81438 -5.32719,0 -5.50215,1.83405 -5.50215,57.67577 0,54.86015 -0.26851,57.81951 -5.50215,60.62041 -4.53275,2.42584 -5.53931,2.07937 -5.71305,-1.96654 -0.11615,-2.70113 -0.42548,-29.29723 -0.68776,-59.10244 -0.28914,-32.85626 -1.59258,-55.30891 -3.31078,-57.03007 -1.94397,-1.94729 -6.04763,-1.95142 -13.06761,-0.0138 -11.40287,3.14858 -11.71044,4.4626 -7.68457,32.82894 2.52518,17.79253 -2.17541,44.82254 -8.97772,51.62482 -3.36613,3.36613 -9.72625,4.57531 -24.50609,4.65908 -33.649495,0.19065 -38.046367,-6.75845 -38.893369,-61.47014 L 71.161783,809.8402 59.469724,808.99425 c -9.452333,-0.68389 -11.692064,-1.86963 -11.692064,-6.18992 0,-4.49824 1.956013,-5.34396 12.360031,-5.34396 l 12.360014,0 -0.394526,-10.31652 c -0.552718,-14.45288 2.697267,-23.19106 8.234652,-22.14032 3.392699,0.64382 4.803317,4.41319 5.443738,14.54642 1.00849,15.95708 3.891813,18.69827 17.017571,16.17884 5.29582,-1.01649 12.72372,-1.97123 16.50644,-2.1216 6.29225,-0.25007 6.99478,-1.56134 8.25323,-15.40434 1.17948,-12.97434 2.23642,-15.25341 7.41574,-15.99039 5.48523,-0.78051 6.11712,0.48325 6.87768,13.75537 l 0.83748,14.61486 42.34327,1.37554 42.34323,1.37554 3.69547,12.37983 c 6.95639,23.30385 3.94853,117.77061 -3.93963,123.73065 -1.05057,0.79376 -6.61028,7.29293 -12.35494,14.44259 -5.74462,7.14962 -12.18291,14.73747 -14.30729,16.86187 -9.22918,9.22917 -7.10972,32.84637 4.10847,45.78109 3.032,3.4959 5.51273,7.1469 5.51273,8.1132 0,0.9664 4.4073,6.4295 9.79396,12.1404 6.82242,7.2331 9.53519,12.4375 8.94099,17.1535 -0.84512,6.7076 -0.9796,6.6653 -14.60833,-4.5944 z M 119.30558,877.4702 c 0,-3.50659 -10.52748,-27.73882 -12.05089,-27.73882 -0.68317,0 -5.18736,4.98126 -10.009313,11.06946 -7.163082,9.04411 -8.150439,11.81257 -5.396451,15.13092 3.694805,4.45195 27.456654,5.78339 27.456654,1.53844 z m 10.47827,-46.38128 -0.84951,-10.24381 -7.73219,10.10705 -7.7322,10.10703 7.7322,11.90157 7.73219,11.90152 0.84951,-11.76477 c 0.46721,-6.47064 0.46721,-16.3745 0,-22.00859 z m -36.238036,18.3855 c 6.430946,-9.20729 6.097736,-14.12948 -1.650526,-24.38226 l -5.106608,-6.75727 -0.935768,19.83106 c -0.514673,10.90706 -0.316769,19.80687 0.439785,19.7773 0.756541,-0.0294 4.020444,-3.84053 7.253117,-8.46883 z m 22.070766,-27.25378 c 2.68142,-4.53928 5.84636,-8.25322 7.03324,-8.25322 1.18683,0 2.15791,-2.48678 2.15791,-5.52619 0,-5.10003 -1.2198,-5.38879 -15.81867,-3.7445 -8.70028,0.97994 -16.217526,2.11179 -16.705053,2.5152 -1.648911,1.36453 13.314873,23.26193 15.896253,23.26193 1.40855,0 4.7549,-3.71395 7.43632,-8.25322 z M 76.478104,1015.4836 c 0.912524,-10.2134 2.349751,-35.15657 3.193801,-55.42935 l 1.534627,-36.85954 -13.42593,1.59009 c -11.648839,1.37964 -23.761542,-1.20747 -19.923271,-4.25533 6.769485,-5.37544 65.492459,-9.86901 101.022299,-7.73038 2.75643,0.16589 5.28938,8.08405 2.75108,8.60002 -0.37828,0.077 -6.2587,0.83091 -13.06762,1.67559 -6.8089,0.8447 -12.87391,1.99803 -13.47781,2.563 -1.04631,0.97883 6.36876,73.63248 9.73127,95.348 1.40296,9.0606 0.91691,10.3166 -3.99233,10.3166 -3.91346,0 -6.40692,-2.6814 -8.31451,-8.941 -2.32601,-7.6326 -7.49784,-55.25748 -9.48541,-87.34663 -0.53778,-8.6823 -1.46596,-9.71281 -9.44301,-10.48379 -10.991549,-1.06236 -10.926923,-1.3256 -13.041125,53.12544 -1.945596,50.10858 -3.094635,56.39698 -10.305059,56.39698 -5.016477,0 -5.293753,-1.3704 -3.757002,-18.5697 z"
       id="path3223"
       inkscape:connector-curvature="0" />
  </g>
</svg>
