<?xml version="1.0" encoding="UTF-8" standalone="no"?>
<!-- Created with Inkscape (http://www.inkscape.org/) -->

<svg
   xmlns:dc="http://purl.org/dc/elements/1.1/"
   xmlns:cc="http://creativecommons.org/ns#"
   xmlns:rdf="http://www.w3.org/1999/02/22-rdf-syntax-ns#"
   xmlns:svg="http://www.w3.org/2000/svg"
   xmlns="http://www.w3.org/2000/svg"
   xmlns:sodipodi="http://sodipodi.sourceforge.net/DTD/sodipodi-0.dtd"
   xmlns:inkscape="http://www.inkscape.org/namespaces/inkscape"
   width="300"
   height="300"
   id="svg2"
   version="1.1"
   inkscape:version="0.48.4 r9939"
   sodipodi:docname="image-seal.svg">
  <defs
     id="defs4" />
  <sodipodi:namedview
     id="base"
     pagecolor="#ffffff"
     bordercolor="#666666"
     borderopacity="1.0"
     inkscape:pageopacity="0.0"
     inkscape:pageshadow="2"
     inkscape:zoom="2.0018437"
     inkscape:cx="123.3515"
     inkscape:cy="143.3195"
     inkscape:document-units="px"
     inkscape:current-layer="layer1"
     showgrid="false"
     inkscape:window-width="1215"
     inkscape:window-height="1000"
     inkscape:window-x="65"
     inkscape:window-y="24"
     inkscape:window-maximized="1"
     fit-margin-top="10"
     fit-margin-left="10"
     fit-margin-right="10"
     fit-margin-bottom="10" />
  <metadata
     id="metadata7">
    <rdf:RDF>
      <cc:Work
         rdf:about="">
        <dc:format>image/svg+xml</dc:format>
        <dc:type
           rdf:resource="http://purl.org/dc/dcmitype/StillImage" />
        <dc:title />
      </cc:Work>
    </rdf:RDF>
  </metadata>
  <g
     inkscape:label="Calque 1"
     inkscape:groupmode="layer"
     id="layer1"
     transform="translate(0,-752.36218)">
    <path
       style="fill:#000000"
       d="m 118.03902,972.25959 c 0.11511,-107.17446 5.4835,-147.97436 19.4706,-147.97436 7.49902,0 4.54979,-12.69204 -4.7877,-20.60389 -7.18463,-6.08771 -9.38833,-10.76338 -10.77694,-22.86574 -1.81757,-15.84132 0.6328,-20.45672 9.12968,-17.19617 3.20288,1.22906 4.72994,5.55342 4.72994,13.39428 0,6.36855 1.33846,11.57921 2.97436,11.57921 1.6359,0 2.97436,-6.69231 2.97436,-14.8718 0,-8.17948 1.33846,-14.87179 2.97436,-14.87179 1.6359,0 3.9782,-0.0327 5.20513,-0.0729 1.22692,-0.0402 2.9,6.01579 3.71795,13.4576 1.914,17.41386 7.16805,17.44218 8.34245,0.0449 0.6225,-9.22171 2.23567,-13.42962 5.14846,-13.42962 5.38541,0 7.98396,10.25199 6.78169,26.75582 -0.81313,11.16217 -2.22857,13.52711 -10.53839,17.60755 -6.58583,3.2339 -9.62033,6.84489 -9.66667,11.50315 -0.0642,6.45466 0.7761,6.71881 17.03502,5.35501 9.40641,-0.78901 20.1141,-1.50202 23.79487,-1.58447 9.77586,-0.21892 8.43284,-9.54832 -2.24957,-15.62693 -8.46672,-4.81781 -8.90427,-6.02364 -8.90427,-24.53846 0,-17.48875 0.60578,-19.47167 5.94871,-19.47167 5.16855,0 5.94872,1.98292 5.94872,15.11965 0,10.78131 1.06681,14.76002 3.71795,13.86628 2.29963,-0.77524 3.71795,-6.82672 3.71795,-15.86324 0,-12.62695 0.80739,-14.60987 5.94872,-14.60987 5.07916,0 6.08012,2.28258 6.84774,15.61538 0.61177,10.62608 2.17319,15.61539 4.88691,15.61539 5.04159,0 7.59868,-6.58785 7.59868,-19.57661 0,-5.59182 1.43406,-10.16698 3.18682,-10.16698 6.91494,0 11.68497,8.99169 11.68497,22.02667 0,14.59857 -4.79746,19.88874 -21.5641,23.7787 -11.42674,2.6511 -11.12059,12.96597 0.50511,17.01874 4.77655,1.66511 9.70831,5.27625 10.9595,8.02476 2.71273,5.95916 3.49529,214.63242 0.79864,212.96772 -1.0257,-0.6333 -3.64585,-7.5318 -5.82251,-15.3301 -2.83543,-10.1584 -4.03499,-38.23253 -4.23058,-99.01001 -0.15021,-46.65717 -1.18802,-86.3118 -2.30641,-88.12137 -6.14083,-9.93608 -60.94574,-11.24575 -76.87347,-1.83699 -4.60531,2.72041 -9.74997,8.89532 -11.43257,13.722 -3.7576,10.77907 -4.05563,48.56224 -0.40085,50.82099 4.0898,2.52764 23.15705,-6.41364 25.23725,-11.83458 2.63374,-6.86337 2.67413,-6.81325 -6.33154,-7.84949 -4.86948,-0.56028 -8.17949,-2.74661 -8.17949,-5.40268 0,-3.71795 5.94872,-4.46154 35.69231,-4.46154 29.74359,0 35.6923,0.74359 35.6923,4.46154 0,3.20538 -3.5918,4.58283 -12.75702,4.89234 -15.3189,0.5173 -31.12762,6.53922 -29.2193,11.13032 0.75685,1.82087 3.78086,11.00683 6.72003,20.41324 2.93917,9.40641 6.23327,17.10256 7.32019,17.10256 1.08695,0 4.17226,-4.62778 6.85629,-10.28391 5.96742,-12.57541 9.63076,-15.10147 15.19888,-10.48036 2.92603,2.42839 3.42004,5.12857 1.57058,8.58433 -3.90093,7.28893 -3.88157,91.46611 0.0238,98.76131 2.36229,4.414 2.25867,7.1543 -0.39134,10.3473 -1.98253,2.3888 -4.23394,3.714 -5.00314,2.9448 -3.53285,-3.5329 -9.45242,-41.02408 -9.54662,-60.46321 -0.0574,-11.86026 -1.27906,-21.56411 -2.71467,-21.56411 -5.9306,0 -8.6282,8.8492 -10.42703,34.20513 -3.8252,53.91949 -6.30082,63.64659 -14.19046,55.75699 -2.59414,-2.5942 -2.59414,-8.511 0,-24.2191 3.62435,-21.94623 4.50479,-41.94814 1.84648,-41.94814 -0.87249,0 -6.27096,4.68461 -11.9966,10.41025 -21.28787,21.28789 -22.77945,6.00122 -1.59327,-16.32908 13.21689,-13.93062 20.73675,-30.79839 15.2438,-34.19323 -1.05322,-0.65094 -6.51852,2.75101 -12.14511,7.55987 -5.6266,4.80885 -11.82427,8.74649 -13.7726,8.75032 -8.61297,0.0178 -5.7837,-6.29549 7.99044,-17.82786 12.86137,-10.76813 14.60874,-13.51084 12.96907,-20.3563 -1.04225,-4.35128 -2.24386,-8.33704 -2.67026,-8.85726 -0.42641,-0.52021 -8.23309,2.82594 -17.34819,7.4359 l -16.57289,8.38174 -0.12016,58 c -0.1273,61.40119 -1.22113,71.38469 -7.82173,71.38469 -3.39678,0 -4.10057,-13.103 -4.03407,-75.10263 z m -24.521145,61.06701 c -7.13667,-8.0278 -17.20045,-45.4864 -17.20045,-64.02207 0,-9.04303 1.99946,-20.27564 4.44322,-24.96136 2.44376,-4.68571 4.45145,-14.57935 4.46154,-21.98586 0.0119,-7.54934 2.12699,-16.47694 4.81733,-20.31794 8.566509,-12.23041 13.024025,-92.94062 5.66933,-102.65226 -5.24052,-6.91997 -21.08029,-4.77623 -31.50331,4.26362 l -6.92805,6.00865 12.27717,11.56425 c 14.47683,13.63616 19.30886,21.70521 16.84412,28.12819 -2.94872,7.68425 -8.22936,5.3423 -14.54289,-6.44978 -3.27179,-6.11088 -8.29102,-11.55925 -11.15384,-12.10749 -4.40943,-0.84442 -5.20513,1.33171 -5.20513,14.23511 0,12.42678 1.36942,16.50106 7.4359,22.12328 4.08974,3.79025 7.43589,8.00311 7.43589,9.36188 0,1.35881 3.52001,6.14464 7.82227,10.63521 4.67804,4.88286 7.1067,10.02939 6.04205,12.80378 -3.24484,8.45596 -10.38375,4.81707 -17.15723,-8.74551 -3.67654,-7.36153 -7.45121,-13.38705 -8.38817,-13.39002 -2.96299,-0.009 -0.11897,36.88544 3.38194,43.87271 4.58964,9.16028 0.51492,12.13194 -6.7178,4.89925 -5.13437,-5.1344 -6.30719,-12.21323 -8.75461,-52.84083 -4.21056,-69.89657 -1.28195,-81.60879 23.326,-93.28601 7.92205,-3.75926 11.23406,-4.03388 15.61963,-1.29506 3.06115,1.91174 8.22994,3.47586 11.48623,3.47586 6.508345,0 13.245355,8.94964 16.139645,21.44034 2.4294,10.48444 -6.06975,91.21238 -10.1163,96.08815 -3.996946,4.81603 -11.858145,42.16101 -13.928535,66.16822 -1.64089,19.02697 0.0669,26.34402 11.819955,50.64619 5.47044,11.3112 5.66555,13.2553 1.72575,17.1951 -3.939806,3.9398 -4.974526,3.8431 -9.151655,-0.8556 z M 170.55999,857.82303 c -19.98987,-0.92625 -23.10771,-1.78786 -22.26695,-6.15356 0.84383,-4.38165 5.04347,-5.07655 30.68049,-5.07655 27.71995,0 29.70287,0.39714 29.70287,5.94872 0,6.71711 -1.78718,6.96473 -38.11641,5.28139 z"
       id="path3080"
       inkscape:connector-curvature="0" />
  </g>
</svg>
