<?xml version="1.0" encoding="UTF-8" standalone="no"?>
<!-- Created with Inkscape (http://www.inkscape.org/) -->

<svg
   xmlns:dc="http://purl.org/dc/elements/1.1/"
   xmlns:cc="http://creativecommons.org/ns#"
   xmlns:rdf="http://www.w3.org/1999/02/22-rdf-syntax-ns#"
   xmlns:svg="http://www.w3.org/2000/svg"
   xmlns="http://www.w3.org/2000/svg"
   xmlns:sodipodi="http://sodipodi.sourceforge.net/DTD/sodipodi-0.dtd"
   xmlns:inkscape="http://www.inkscape.org/namespaces/inkscape"
   width="300"
   height="300"
   viewBox="0 0 300.00001 300.00001"
   id="svg2"
   version="1.1"
   inkscape:version="0.91 r13725"
   sodipodi:docname="本-seal.svg">
  <defs
     id="defs4" />
  <sodipodi:namedview
     id="base"
     pagecolor="#ffffff"
     bordercolor="#666666"
     borderopacity="1.0"
     inkscape:pageopacity="0.0"
     inkscape:pageshadow="2"
     inkscape:zoom="1.33"
     inkscape:cx="147.92594"
     inkscape:cy="133.29041"
     inkscape:document-units="px"
     inkscape:current-layer="layer1"
     showgrid="false"
     units="px"
     inkscape:window-width="990"
     inkscape:window-height="650"
     inkscape:window-x="116"
     inkscape:window-y="17"
     inkscape:window-maximized="0" />
  <metadata
     id="metadata7">
    <rdf:RDF>
      <cc:Work
         rdf:about="">
        <dc:format>image/svg+xml</dc:format>
        <dc:type
           rdf:resource="http://purl.org/dc/dcmitype/StillImage" />
        <dc:title></dc:title>
      </cc:Work>
    </rdf:RDF>
  </metadata>
  <g
     inkscape:label="Layer 1"
     inkscape:groupmode="layer"
     id="layer1"
     transform="translate(0,-752.36208)">
    <path
       style="fill:#000000"
       d="m 140.23093,1028.5226 c -0.14337,-4.3245 -0.0419,-25.01 0.22561,-45.96772 0.26744,-20.95767 -0.4318,-38.2339 -1.55386,-38.39163 -7.76492,-1.09156 -37.44322,-1.00239 -39.208221,0.11779 -1.19475,0.75827 -2.861958,12.81013 -3.704928,26.7819 -0.84296,13.97177 -1.87973,29.75806 -2.30392,35.08066 -0.42419,5.3226 -0.95347,12.127 -1.17618,15.121 -0.27492,3.6956 -1.95861,5.4435 -5.24365,5.4435 -4.47352,0 -4.83871,-1.6129 -4.83871,-21.3709 0,-11.75411 0.74603,-22.11705 1.65783,-23.02886 0.9118,-0.9118 1.89265,-10.35032 2.17966,-20.97448 0.28701,-10.62415 1.78078,-25.02934 3.31949,-32.01152 1.53871,-6.98219 3.3215,-15.22863 3.96175,-18.32542 1.36984,-6.6257 18.952349,-24.6114 24.059659,-24.6114 1.94221,0 3.53979,-0.81653 3.55017,-1.81452 0.0248,-2.38388 11.92673,-7.8629 17.08038,-7.8629 2.91783,0 4.42623,-2.85206 5.43811,-10.28226 1.66254,-12.20799 -1.26031,-16.14396 -13.07294,-17.60433 -30.26613,-3.74173 -38.182819,-12.0436 -38.736079,-40.6207 -0.38849,-20.06621 0.33269,-22.41912 6.18344,-20.17397 2.749609,1.05512 3.733369,5.00086 3.733369,14.97406 0,12.94782 2.51132,21.03553 8.24501,26.55307 4.13789,3.98189 21.63429,8.99332 28.17524,8.07012 6.59638,-0.93103 6.24724,0.98652 6.78563,-37.26809 0.38373,-27.26484 3.72741,-36.32579 11.136,-30.1772 2.65557,2.20393 3.5047,5.10019 2.45581,8.37642 -0.88177,2.75425 -2.0516,17.2557 -2.59962,32.22546 l -0.99639,27.21774 10.29432,-0.009 c 10.45386,-0.009 25.36594,-7.00235 27.09526,-12.70651 0.50196,-1.65569 2.33614,-8.18171 4.07597,-14.50228 2.26433,-8.226 4.38835,-11.49193 7.47386,-11.49193 3.61815,0 4.31053,2.16289 4.31053,13.4655 0,7.40603 -1.25432,15.84353 -2.78737,18.75 -4.54367,8.61423 -13.98457,16.17159 -20.20207,16.17159 -3.19256,0 -11.35727,1.19083 -18.1438,2.64628 l -12.33915,2.64627 0.72813,11.10295 c 0.62889,9.58973 1.5719,11.32698 6.91912,12.74668 11.63278,3.08854 25.25503,10.47417 31.99939,17.34924 11.59819,11.82297 14.93555,24.23866 18.71875,69.63762 1.38607,16.63306 3.14394,36.81827 3.90638,44.85587 1.11807,11.7868 0.61521,15.2537 -2.59943,17.9216 -8.00432,6.643 -10.31886,-1.3526 -11.28364,-38.97973 -0.35266,-13.75409 -1.64346,-29.01329 -2.86844,-33.90936 l -2.22724,-8.90194 -20.91838,-0.81533 c -11.50511,-0.44843 -22.00709,0.0734 -23.33774,1.15953 -1.3879,1.13292 -2.68038,19.01613 -3.03163,41.94667 -0.57636,37.62776 -2.4568,49.30346 -7.94059,49.30346 -1.28383,0 -2.45153,-3.5384 -2.59489,-7.863 z m 1.62169,-115.54207 c 3.0493,-24.37182 1.77122,-27.45114 -9.70925,-23.39277 -16.87261,5.96451 -30.36146,21.27345 -30.36146,34.45824 0,4.84105 1.72748,5.73356 15.12097,7.81226 23.01708,3.5723 22.04927,4.30458 24.94974,-18.87773 z m 52.59791,8.87164 c -2.54423,-13.16096 -14.2327,-27.70978 -24.8073,-30.87801 -14.80004,-4.4342 -16.11389,-2.89252 -15.97087,18.74027 l 0.12568,19.0098 18.14516,1.20968 c 23.46526,1.56435 24.31321,1.25987 22.50733,-8.08174 z"
       id="path4078"
       inkscape:connector-curvature="0" />
  </g>
</svg>
