<?xml version="1.0" encoding="UTF-8" standalone="no"?>
<!-- Created with Inkscape (http://www.inkscape.org/) -->

<svg
   xmlns:dc="http://purl.org/dc/elements/1.1/"
   xmlns:cc="http://creativecommons.org/ns#"
   xmlns:rdf="http://www.w3.org/1999/02/22-rdf-syntax-ns#"
   xmlns:svg="http://www.w3.org/2000/svg"
   xmlns="http://www.w3.org/2000/svg"
   xmlns:sodipodi="http://sodipodi.sourceforge.net/DTD/sodipodi-0.dtd"
   xmlns:inkscape="http://www.inkscape.org/namespaces/inkscape"
   width="300"
   height="300"
   id="svg2"
   version="1.1"
   inkscape:version="0.48.4 r9939"
   sodipodi:docname="image-seal.svg">
  <defs
     id="defs4" />
  <sodipodi:namedview
     id="base"
     pagecolor="#ffffff"
     bordercolor="#666666"
     borderopacity="1.0"
     inkscape:pageopacity="0.0"
     inkscape:pageshadow="2"
     inkscape:zoom="1.979899"
     inkscape:cx="200.43343"
     inkscape:cy="122.13442"
     inkscape:document-units="px"
     inkscape:current-layer="layer1"
     showgrid="false"
     inkscape:window-width="1215"
     inkscape:window-height="1000"
     inkscape:window-x="65"
     inkscape:window-y="24"
     inkscape:window-maximized="1" />
  <metadata
     id="metadata7">
    <rdf:RDF>
      <cc:Work
         rdf:about="">
        <dc:format>image/svg+xml</dc:format>
        <dc:type
           rdf:resource="http://purl.org/dc/dcmitype/StillImage" />
        <dc:title />
      </cc:Work>
    </rdf:RDF>
  </metadata>
  <g
     inkscape:label="Calque 1"
     inkscape:groupmode="layer"
     id="layer1"
     transform="translate(0,-752.36218)">
    <path
       style="fill:#000000"
       d="m 179.53928,1031.3751 c -0.81456,-4.5287 -1.15124,-47.56639 -0.74818,-95.63944 0.71149,-84.85745 0.87754,-87.40554 5.69597,-87.40554 8.21366,0 9.43418,12.72664 9.64352,100.55613 0.15327,64.27315 -0.53685,83.70645 -3.0812,86.77215 -5.25184,6.3281 -9.91347,4.5933 -11.51011,-4.2833 z m -77.44575,-3.8003 c -0.0874,-2.4384 -0.0228,-24.0193 0.14586,-47.95747 0.33723,-48.13765 -1.78304,-74.9517 -5.820318,-73.60595 -7.09885,2.36627 -10.20484,21.3497 -10.56665,64.58216 -0.36201,43.25446 -2.191268,53.07306 -8.476816,45.49946 -4.230351,-5.0973 -5.725139,-49.81024 -2.686416,-80.35734 2.931683,-29.47086 7.619129,-41.71017 18.062422,-47.16253 9.666288,-5.04667 9.332618,-13.89081 -0.69142,-18.3279 -12.657031,-5.60254 -15.581366,-14.74653 -15.325103,-47.91921 0.139092,-17.98937 1.347717,-30.61795 3.136946,-32.77385 5.882596,-7.08808 8.138012,1.7493 8.291923,32.48995 0.130728,26.10625 0.807654,31.18507 4.466144,33.50655 2.37165,1.50492 5.10471,1.94359 6.07349,0.97482 0.96877,-0.96878 1.751228,-20.49762 1.738778,-43.39745 -0.0228,-44.00784 1.30069,-51.2598 8.11778,-44.44466 3.26083,3.25991 3.95998,11.17799 3.97063,44.96952 0.0126,38.57681 0.29841,41.01296 4.81885,41.01296 3.93675,0 5.12708,-2.57038 6.58163,-14.21228 0.97664,-7.81675 1.17476,-20.83964 0.44028,-28.93976 -1.53679,-16.94797 3.24016,-27.95494 9.77759,-22.52937 2.65426,2.20285 3.57198,9.72763 3.57198,29.28776 l 0,26.32324 9.50061,-5.93027 c 5.22533,-3.26165 13.21921,-7.55041 17.7642,-9.53063 10.126,-4.4118 10.98582,-6.96299 11.75929,-34.8915 0.63048,-22.76605 2.06409,-28.24946 7.38564,-28.24946 6.07081,0 8.68682,9.50179 9.08967,33.01525 0.45882,26.78183 0.12287,26.21302 22.39344,37.92256 15.82713,8.32172 23.44691,15.05687 23.44691,20.72486 0,7.83558 -6.32494,6.05983 -29.13518,-8.1798 -20.80096,-12.9853 -22.80927,-13.55604 -35.34763,-10.0455 -6.33711,1.77427 -11.522,4.08796 -11.522,5.14152 0,3.54682 -17.81793,10.40835 -22.86694,8.80587 -2.75081,-0.8731 -5.00149,-0.54497 -5.00149,0.72914 0,4.11096 -9.10185,12.95884 -16.04725,15.59947 -10.48562,3.98663 -7.5991,17.89433 3.71398,17.89433 5.69381,0 13.60541,11.24197 17.13418,24.34685 1.53524,5.70139 2.92561,31.76349 3.08973,57.91574 0.23663,37.70782 -0.418,47.99252 -3.16277,49.68942 -8.27522,5.1163 -9.7844,-3.1526 -10.87296,-59.57367 -1.03528,-53.65956 -1.94246,-59.63327 -9.05588,-59.63327 -6.47519,0 -7.29088,6.68216 -7.83176,64.15723 -0.45217,48.05111 -1.29746,61.07321 -4.14948,63.92521 -4.66871,4.6687 -5.7197,4.5172 -5.91208,-0.852 z"
       id="path3080"
       inkscape:connector-curvature="0" />
  </g>
</svg>
