<?xml version="1.0" encoding="UTF-8" standalone="no"?>
<!-- Created with Inkscape (http://www.inkscape.org/) -->

<svg
   xmlns:dc="http://purl.org/dc/elements/1.1/"
   xmlns:cc="http://creativecommons.org/ns#"
   xmlns:rdf="http://www.w3.org/1999/02/22-rdf-syntax-ns#"
   xmlns:svg="http://www.w3.org/2000/svg"
   xmlns="http://www.w3.org/2000/svg"
   xmlns:sodipodi="http://sodipodi.sourceforge.net/DTD/sodipodi-0.dtd"
   xmlns:inkscape="http://www.inkscape.org/namespaces/inkscape"
   id="svg2"
   version="1.1"
   inkscape:version="0.48.4 r9939"
   width="300"
   height="300"
   sodipodi:docname="s03959.gif">
  <metadata
     id="metadata8">
    <rdf:RDF>
      <cc:Work
         rdf:about="">
        <dc:format>image/svg+xml</dc:format>
        <dc:type
           rdf:resource="http://purl.org/dc/dcmitype/StillImage" />
        <dc:title></dc:title>
      </cc:Work>
    </rdf:RDF>
  </metadata>
  <defs
     id="defs6" />
  <sodipodi:namedview
     pagecolor="#ffffff"
     bordercolor="#666666"
     borderopacity="1"
     objecttolerance="10"
     gridtolerance="10"
     guidetolerance="10"
     inkscape:pageopacity="0"
     inkscape:pageshadow="2"
     inkscape:window-width="1024"
     inkscape:window-height="712"
     id="namedview4"
     showgrid="false"
     inkscape:zoom="1.761194"
     inkscape:cx="59.191274"
     inkscape:cy="153.45304"
     inkscape:window-x="-4"
     inkscape:window-y="-4"
     inkscape:window-maximized="1"
     inkscape:current-layer="svg2" />
  <path
     style="fill:#343434"
     d="m 139.34696,284.88924 c -2.67916,-2.50433 -1.43186,-12.0197 2.50944,-19.14398 2.16479,-3.91307 5.24098,-13.03401 6.83596,-20.26874 3.40031,-15.42356 0.98321,-19.51381 -11.54368,-19.53436 -11.91251,-0.0203 -24.39385,-4.00563 -31.31413,-10.00058 -6.02787,-5.22191 -6.328086,-6.55171 -6.328086,-28.03112 0,-20.6282 0.387176,-22.54915 4.544876,-22.54915 5.57967,0 7.45948,4.20889 7.45948,16.70182 0,5.28117 0.70399,14.40308 1.56441,20.27091 1.37661,9.38808 2.52018,11.04206 9.52637,13.77841 10.89483,4.25509 21.01152,3.90049 25.65858,-0.89936 3.22794,-3.33409 3.66668,-7.77333 2.60607,-26.36934 -1.47717,-25.90008 -1.96663,-26.63562 -25.00296,-37.57396 -15.39462,-7.30983 -16.77795,-11.47238 -17.4834,-18.66863 -1.34933,-13.76441 6.39479,-19.7697 22.37062,-23.35215 12.6675,-2.84058 16.77337,-6.89035 16.77337,-16.544171 0,-7.538817 -3.5871,-9.158378 -14.06089,-6.348426 -4.81106,1.290731 -13.36988,2.644624 -18.39041,4.701729 -6.87697,2.817764 -14.23212,6.644566 -25.641552,17.309468 -10.798892,10.09421 -17.223511,14.51512 -19.767635,13.60256 -6.3094,-2.26315 -4.245534,-9.14145 5.234148,-17.44404 13.779222,-12.068265 26.227329,-18.485887 49.313079,-25.423367 22.51383,-6.765608 25.47775,-10.539927 9.91305,-12.623518 -10.94206,-1.464773 -22.01757,-6.513484 -28.1231,-12.819765 -9.318778,-9.625179 -7.069678,-31.926883 3.21978,-31.926883 4.61604,0 4.9823,1.1152 4.44065,13.520953 -0.32469,7.436523 0.49191,14.532587 1.81467,15.76903 1.32276,1.236443 7.76018,2.840929 14.30537,3.565525 14.68929,1.626203 17.42381,-0.864418 19.1803,-17.46956 2.08735,-19.733002 3.00285,-22.118544 8.4884,-22.118544 4.66156,0 4.92171,0.868728 3.52829,11.782042 -1.89508,14.842374 0.90208,24.505649 8.06391,27.858257 10.7669,5.040217 23.55846,-5.455947 26.39993,-21.662552 0.87345,-4.981765 2.88814,-8.1033 5.53791,-8.580298 3.51513,-0.632776 4.165,1.044126 4.165,10.747231 0,6.323347 -1.54612,14.291745 -3.43582,17.70755 -3.65122,6.599934 -17.07943,13.210736 -28.95541,14.254946 -15.02928,1.321466 -5.043,8.452632 10.80306,11.267095 12.8181,2.276657 50.39861,25.982508 50.39861,33.240478 0,4.78494 -8.11193,6.20147 -10.94816,1.91182 -0.89545,-1.35431 -9.33224,-7.08834 -18.74845,-12.74228 -9.4162,-5.653953 -11.59986,-9.504961 -18.57487,-12.294892 -4.12283,-1.649091 -6.74213,-2.190965 -13.20479,-2.406062 -11.64787,-0.387671 -11.75694,-0.326233 -12.51431,7.04917 -0.9775,9.518994 2.97841,13.879644 12.59139,13.879644 10.91742,0 22.98526,11.95251 22.98526,22.76562 0,13.45035 -21.93868,30.69595 -27.79039,21.84553 -0.92019,-1.39172 1.6999,-5.45588 5.86049,-9.09054 8.0242,-7.0099 10.2777,-18.58437 4.64363,-23.85078 -4.27553,-3.99653 -38.92563,-3.48937 -47.58529,0.69649 -16.28854,7.87347 -12.99499,18.28236 7.7764,24.57644 22.39008,6.78458 23.48297,8.71814 23.48297,41.54655 0,30.76594 1.10438,33.72062 12.60376,33.72062 17.98649,0 25.81018,-11.43331 25.81018,-37.71825 0,-13.49841 3.35432,-19.64589 7.43427,-13.62479 1.15263,1.70103 2.11222,12.83457 2.13245,24.74122 0,0 -0.75723,13.1953 -3.00771,19.37181 -1.24464,3.41592 -5.67814,9.43546 -5.67814,9.43546 -7.10556,5.83163 -10.53221,4.77351 -16.20588,5.86642 -4.76615,0.9181 -10.68081,-0.48376 -14.58894,0.50457 -6.8055,1.721 -7.26566,2.65625 -10.89236,22.13847 -3.12084,16.76482 -5.10335,21.7433 -11.27492,28.31364 -4.11853,4.38466 -8.13021,7.37203 -8.91482,6.63861 z"
     id="path2995"
     inkscape:connector-curvature="0"
     sodipodi:nodetypes="csscsssssssssssssssssssssssssssssssssssssassssssssssssssasassscc" />
</svg>
