<?xml version="1.0" encoding="UTF-8" standalone="no"?>
<!-- Created with Inkscape (http://www.inkscape.org/) -->

<svg
   xmlns:dc="http://purl.org/dc/elements/1.1/"
   xmlns:cc="http://creativecommons.org/ns#"
   xmlns:rdf="http://www.w3.org/1999/02/22-rdf-syntax-ns#"
   xmlns:svg="http://www.w3.org/2000/svg"
   xmlns="http://www.w3.org/2000/svg"
   xmlns:sodipodi="http://sodipodi.sourceforge.net/DTD/sodipodi-0.dtd"
   xmlns:inkscape="http://www.inkscape.org/namespaces/inkscape"
   width="300"
   height="300"
   viewBox="0 0 300.00001 300.00001"
   id="svg2"
   version="1.1"
   inkscape:version="0.91 r13725"
   sodipodi:docname="æ‘-seal.svg">
  <defs
     id="defs4" />
  <sodipodi:namedview
     id="base"
     pagecolor="#ffffff"
     bordercolor="#666666"
     borderopacity="1.0"
     inkscape:pageopacity="0.0"
     inkscape:pageshadow="2"
     inkscape:zoom="1.33"
     inkscape:cx="147.92594"
     inkscape:cy="133.29041"
     inkscape:document-units="px"
     inkscape:current-layer="layer1"
     showgrid="false"
     units="px"
     inkscape:window-width="990"
     inkscape:window-height="650"
     inkscape:window-x="39"
     inkscape:window-y="10"
     inkscape:window-maximized="0" />
  <metadata
     id="metadata7">
    <rdf:RDF>
      <cc:Work
         rdf:about="">
        <dc:format>image/svg+xml</dc:format>
        <dc:type
           rdf:resource="http://purl.org/dc/dcmitype/StillImage" />
        <dc:title></dc:title>
      </cc:Work>
    </rdf:RDF>
  </metadata>
  <g
     inkscape:label="Layer 1"
     inkscape:groupmode="layer"
     id="layer1"
     transform="translate(0,-752.36208)">
    <path
       style="fill:#000000"
       d="m 215.57674,1032.8659 c -0.10395,-1.6689 -0.53395,-22.1509 -0.95556,-45.5156 -1.08691,-60.23365 -3.39186,-65.33013 -29.60755,-65.46529 -8.23534,-0.0425 -16.74166,-0.75577 -18.90292,-1.58512 -6.5052,-2.49628 -11.40808,-14.65535 -9.66215,-23.96197 1.82008,-9.70183 3.88181,-11.69248 16.22902,-15.66951 8.1748,-2.6331 9.10313,-3.77936 9.10313,-11.24011 0,-7.37717 -0.74794,-8.33931 -6.67563,-8.58753 -3.6716,-0.15376 -8.49051,-0.10147 -10.70871,0.11616 -5.01689,0.49221 -7.37447,-3.0338 -5.42509,-8.11381 1.23252,-3.21187 6.0638,-3.86031 28.76167,-3.86031 24.65495,0 27.72535,0.49195 31.90468,5.11188 5.7174,6.32015 6.26647,30.43191 0.77219,33.90984 -1.88668,1.19429 -11.07696,2.35454 -20.42285,2.57835 -9.34588,0.22379 -18.08488,0.66071 -19.42001,0.97091 -1.33513,0.31019 -4.26555,0.69 -6.51205,0.844 -4.85876,0.33309 -7.78254,8.04865 -5.62546,14.84501 1.3471,4.24432 3.67289,4.855 18.4904,4.855 19.71597,0 29.47573,4.07804 33.13127,13.84365 5.78736,15.46069 10.03331,96.49245 5.49991,104.96315 -2.92888,5.4727 -9.67299,6.7988 -9.97429,1.9613 z m -4.12062,-157.97993 c 5.13013,-8.06484 -0.10734,-15.88866 -10.25539,-15.31968 -4.75924,0.26684 -6.23877,1.82499 -6.85666,7.22095 -1.2702,11.09253 1.08216,14.51016 8.67558,12.60434 3.64579,-0.91504 7.4422,-2.94256 8.43647,-4.50561 z M 124.3915,1029.8133 c -0.77236,-2.0128 -0.75732,-7.2015 0.0334,-11.5307 1.4396,-7.8813 4.8104,-51.85175 4.3253,-56.42105 -2.51788,-23.71631 -6.19372,-36.25857 -12.66105,-43.20042 -2.37446,-2.54869 -5.77015,-9.58272 -7.54597,-15.63119 -2.23759,-7.62123 -5.0918,-11.82102 -9.297527,-13.68074 -14.10887,-6.23874 -17.33764,-13.91483 -16.75028,-39.82219 0.51658,-22.78533 4.47289,-32.3994 11.07723,-26.91829 2.54459,2.11182 2.95398,7.5651 1.78837,23.82238 -1.28029,17.85688 -0.8864,21.70884 2.57366,25.16891 6.440507,6.4405 8.594747,4.87543 8.577477,-6.23158 -0.009,-5.67428 1.27164,-18.77676 2.84546,-29.11663 1.57383,-10.33986 2.33481,-19.32644 1.69108,-19.97017 -0.64374,-0.64373 -7.65917,-1.33096 -15.589847,-1.52717 -19.04541,-0.47119 -22.91567,-1.64381 -22.91567,-6.94302 0,-5.90095 4.65812,-7.37863 23.2598,-7.37863 l 15.580227,0 0,-12.86575 c 0,-13.31402 2.85859,-18.69175 9.93579,-18.69175 5.71905,0 7.40509,5.91694 5.5884,19.61176 l -1.55343,11.71037 16.68276,0.72456 c 15.9834,0.69418 16.68276,0.97897 16.68276,6.79331 0,5.826 -0.72825,6.1173 -18.20626,7.2825 l -18.20626,1.21375 -1.53689,15.77875 c -0.84529,8.67831 -1.66457,22.67865 -1.82063,31.11186 l -0.28374,15.33312 6.67106,-0.76812 c 10.08868,-1.16162 16.22457,-15.6219 15.40458,-36.30352 -0.6787,-17.11819 1.74449,-21.61895 8.17655,-15.18689 3.30735,3.30735 3.67693,7.31192 2.29838,24.90418 -2.34434,29.91705 -6.28038,36.08652 -25.65032,40.20499 -5.27717,1.12204 -6.19079,2.36733 -5.02089,6.84362 1.38986,5.31797 9.87241,21.23425 12.61926,23.67825 3.30319,2.93901 6.1398,21.47896 4.64258,30.34375 -0.90198,5.3405 -0.8075,10.80238 0.20995,12.1375 2.00652,2.63299 1.87207,8.02424 -1.02921,41.26755 -1.81775,20.8279 -4.09924,27.9162 -8.98536,27.9162 -1.21355,0 -2.83839,-1.6468 -3.61075,-3.6595 z m 51.84139,-195.86327 c -6.77305,-5.61047 -7.86888,-9.78685 -7.03437,-26.80902 0.39041,-7.96362 1.5177,-9.51888 9.23739,-12.74437 16.93134,-7.07436 36.93842,-3.28361 42.06993,7.97101 4.98993,10.9441 1.43881,30.09118 -6.11875,32.99128 -1.73169,0.66451 -9.50345,1.87957 -17.27058,2.70013 -12.42488,1.31264 -14.93465,0.81882 -20.88362,-4.10903 z m 26.58287,-8.29098 c 5.64319,-1.51375 9.18168,-10.69565 6.89652,-17.89555 -2.99288,-9.42971 -29.77595,-7.54617 -30.74369,2.16208 -1.54922,15.54154 5.99851,20.52125 23.84717,15.73347 z"
       id="path3896"
       inkscape:connector-curvature="0" />
  </g>
</svg>
