<?xml version="1.0" encoding="UTF-8" standalone="no"?>
<!-- Created with Inkscape (http://www.inkscape.org/) -->

<svg
   xmlns:dc="http://purl.org/dc/elements/1.1/"
   xmlns:cc="http://creativecommons.org/ns#"
   xmlns:rdf="http://www.w3.org/1999/02/22-rdf-syntax-ns#"
   xmlns:svg="http://www.w3.org/2000/svg"
   xmlns="http://www.w3.org/2000/svg"
   xmlns:sodipodi="http://sodipodi.sourceforge.net/DTD/sodipodi-0.dtd"
   xmlns:inkscape="http://www.inkscape.org/namespaces/inkscape"
   width="300"
   height="300"
   id="svg2"
   version="1.1"
   inkscape:version="0.48.4 r9939"
   sodipodi:docname="image-seal.svg">
  <defs
     id="defs4" />
  <sodipodi:namedview
     id="base"
     pagecolor="#ffffff"
     bordercolor="#666666"
     borderopacity="1.0"
     inkscape:pageopacity="0.0"
     inkscape:pageshadow="2"
     inkscape:zoom="1.979899"
     inkscape:cx="162.37035"
     inkscape:cy="145.59431"
     inkscape:document-units="px"
     inkscape:current-layer="layer1"
     showgrid="false"
     inkscape:window-width="1215"
     inkscape:window-height="1000"
     inkscape:window-x="65"
     inkscape:window-y="24"
     inkscape:window-maximized="1"
     fit-margin-top="10"
     fit-margin-left="10"
     fit-margin-right="10"
     fit-margin-bottom="10" />
  <metadata
     id="metadata7">
    <rdf:RDF>
      <cc:Work
         rdf:about="">
        <dc:format>image/svg+xml</dc:format>
        <dc:type
           rdf:resource="http://purl.org/dc/dcmitype/StillImage" />
        <dc:title />
      </cc:Work>
    </rdf:RDF>
  </metadata>
  <g
     inkscape:label="Calque 1"
     inkscape:groupmode="layer"
     id="layer1"
     transform="translate(0,-752.36218)">
    <path
       style="fill:#000000"
       d="m 210.63255,1045.4638 c -13.9434,-8.4335 -27.0396,-23.1725 -29.94751,-33.7041 -3.12721,-11.3259 -2.45153,-12.83675 12.75778,-28.52903 18.42218,-19.00715 22.237,-27.752 22.237,-50.97433 0,-16.4445 -2.35995,-28.73232 -6.73732,-35.07982 -0.36744,-0.53281 -10.64214,-1.46063 -22.83263,-2.06178 -27.04252,-1.33357 -31.06946,-4.23065 -32.36558,-23.28459 -0.71903,-10.57036 0.0593,-13.89051 4.05866,-17.31493 5.19508,-4.44815 26.58361,-10.33905 38.19997,-10.52113 3.75169,-0.0588 9.71377,-1.42484 13.24908,-3.03565 5.69589,-2.59523 6.42782,-4.43231 6.42782,-16.13362 0,-15.92281 -0.61281,-16.26853 -28.83706,-16.26853 -25.88809,0 -28.67383,-2.35644 -30.89415,-26.13323 -1.27557,-13.6598 -0.88998,-16.76854 2.07978,-16.76854 6.00733,0 9.70239,5.54144 9.70239,14.55061 0,16.49932 2.63419,18.25663 27.36641,18.25663 25.63396,0 29.95654,2.13941 33.27931,16.4712 6.17051,26.6147 2.02406,31.76783 -29.25384,36.3559 -22.56779,3.3104 -30.99852,6.06169 -34.54196,11.27244 -2.13032,3.13276 0.0631,16.75004 3.24469,20.14476 1.1476,1.22441 11.68094,2.09544 23.40743,1.93562 19.64781,-0.26775 21.82255,0.21098 27.71344,6.10197 4.87112,4.8711 6.69704,9.81606 7.67197,20.77708 0.70369,7.91149 1.97026,19.49489 2.81459,25.74089 1.26994,9.3943 0.30702,13.71729 -5.57337,25.02145 -3.90972,7.51581 -9.33692,14.89744 -12.06045,16.40362 -2.72355,1.50618 -5.51972,3.42023 -6.21371,4.25346 -0.694,0.8332 -3.74785,2.82352 -6.78636,4.42292 -7.53272,3.96506 -10.7532,23.57033 -4.84268,29.48093 2.23198,2.2319 4.05813,4.9887 4.05813,6.1261 0,1.1372 7.37744,5.8826 16.39429,10.5451 10.68602,5.5257 16.39753,10.015 16.40362,12.8935 0.0126,6.118 -9.21737,5.6857 -20.17974,-0.9449 z m -104.6878,-17.2818 c -1.66128,-2.688 -1.00458,-112.94678 0.70311,-118.04945 0.58064,-1.73499 1.88056,-3.15454 2.88873,-3.15454 1.00817,0 1.98923,1.41955 2.18014,3.15454 0.19079,1.735 0.88194,6.56145 1.53563,10.72545 1.01188,6.44544 2.13454,75.96483 1.64036,101.5761 -0.15469,8.0141 -5.44658,11.4134 -8.94797,5.7479 z M 75.349679,975.26739 c 0.72163,-23.75007 2.0745,-44.41557 3.00635,-45.92332 0.93183,-1.50777 1.56763,-8.36135 1.41289,-15.23023 -0.33799,-15.00215 4.84623,-24.07302 16.55412,-28.96488 6.993931,-2.92227 8.310731,-4.77429 8.278261,-11.64296 -0.0495,-10.45234 -2.20215,-13.67648 -10.526361,-15.76572 -13.35176,-3.35109 -15.29728,-9.21207 -18.56867,-55.93857 -0.69738,-9.96101 -0.33547,-18.68725 0.80426,-19.39165 5.44022,-3.36224 7.66379,3.85725 8.44158,27.40805 0.89316,27.04475 3.52539,38.10793 9.62362,40.44802 8.438731,3.23825 10.229001,-5.80456 9.361931,-47.28815 -0.48078,-23.00144 0.16353,-40.65236 1.51446,-41.48726 6.0901,-3.76389 7.94604,5.77978 8.53455,43.88711 0.33781,21.87412 0.68928,40.62288 0.78101,41.66388 0.0919,1.041 2.29901,1.89272 4.90506,1.89272 9.36841,0 11.35174,-6.46991 10.8355,-35.34712 -0.48151,-26.93391 1.23497,-33.59578 6.89803,-26.7722 3.2254,3.8864 4.36997,47.91159 1.49063,57.33638 -2.87737,9.4183 -8.95847,14.87748 -16.57235,14.87748 -12.57199,0 -11.4364,14.75304 1.76354,22.91104 10.21943,6.31595 14.42946,13.27282 12.22857,20.20716 -0.88557,2.79018 -0.34442,6.59812 1.20254,8.46207 3.28945,3.9636 5.06135,20.95144 6.70852,64.31812 1.28431,33.81274 0.33746,40.92184 -4.77055,35.81784 -2.01093,-2.0094 -3.67966,-17.62537 -4.83185,-45.21651 -2.37582,-56.89273 -3.37892,-63.97864 -9.80439,-69.25775 -3.65122,-2.99984 -6.63309,-3.68163 -9.37964,-2.14456 -2.31738,1.29685 -6.48407,1.31911 -9.81573,0.0525 -3.18399,-1.21056 -7.303821,-1.61974 -9.155181,-0.90929 -6.95973,2.67069 -11.59146,19.51645 -11.74868,42.7303 -0.48762,72.00721 -1.11287,80.63851 -5.90838,81.56521 -4.31534,0.8341 -4.50105,-1.5727 -3.26364,-42.29762 z m 91.946351,-37.71535 c -7.8731,-0.86929 -15.22185,-2.48765 -16.33053,-3.59633 -3.10195,-3.10195 4.41842,-6.69987 14.24164,-6.81356 4.858,-0.0563 16.5581,-0.57837 26.00025,-1.16032 13.56309,-0.8359 17.46998,-0.26985 18.60811,2.69608 1.83062,4.77055 1.1851,5.31984 -8.01567,6.82067 -4.16399,0.67921 -10.40998,1.77472 -13.87998,2.43448 -3.47,0.65972 -12.75071,0.48827 -20.62382,-0.38102 z m -60.13246,-35.6213 c 0,-1.38799 1.13563,-2.52363 2.52363,-2.52363 1.388,0 2.52363,1.13564 2.52363,2.52363 0,1.388 -1.13563,2.52364 -2.52363,2.52364 -1.388,0 -2.52363,-1.13564 -2.52363,-2.52364 z"
       id="path3093"
       inkscape:connector-curvature="0" />
  </g>
</svg>
