<?xml version="1.0" encoding="UTF-8" standalone="no"?>
<!-- Created with Inkscape (http://www.inkscape.org/) -->

<svg
   xmlns:dc="http://purl.org/dc/elements/1.1/"
   xmlns:cc="http://creativecommons.org/ns#"
   xmlns:rdf="http://www.w3.org/1999/02/22-rdf-syntax-ns#"
   xmlns:svg="http://www.w3.org/2000/svg"
   xmlns="http://www.w3.org/2000/svg"
   xmlns:sodipodi="http://sodipodi.sourceforge.net/DTD/sodipodi-0.dtd"
   xmlns:inkscape="http://www.inkscape.org/namespaces/inkscape"
   width="300"
   height="300"
   id="svg2"
   version="1.1"
   inkscape:version="0.48.4 r9939"
   sodipodi:docname="image-seal.svg">
  <defs
     id="defs4" />
  <sodipodi:namedview
     id="base"
     pagecolor="#ffffff"
     bordercolor="#666666"
     borderopacity="1.0"
     inkscape:pageopacity="0.0"
     inkscape:pageshadow="2"
     inkscape:zoom="1.979899"
     inkscape:cx="118.51252"
     inkscape:cy="176.01095"
     inkscape:document-units="px"
     inkscape:current-layer="layer1"
     showgrid="false"
     inkscape:window-width="1215"
     inkscape:window-height="1000"
     inkscape:window-x="65"
     inkscape:window-y="24"
     inkscape:window-maximized="1" />
  <metadata
     id="metadata7">
    <rdf:RDF>
      <cc:Work
         rdf:about="">
        <dc:format>image/svg+xml</dc:format>
        <dc:type
           rdf:resource="http://purl.org/dc/dcmitype/StillImage" />
        <dc:title />
      </cc:Work>
    </rdf:RDF>
  </metadata>
  <g
     inkscape:label="Calque 1"
     inkscape:groupmode="layer"
     id="layer1"
     transform="translate(0,-752.36218)">
    <path
       style="fill:#000000"
       d="m 130.75883,1032.7321 c -0.86128,-2.7136 -0.86797,-26.0033 -0.0147,-51.75476 1.68619,-50.8993 1.59397,-51.24267 -11.74996,-43.74858 -16.56679,9.30405 -26.41491,33.55692 -26.41491,65.05164 0,16.8625 -3.53595,32.6482 -7.313064,32.6482 -5.803717,0 -7.739306,-8.3788 -7.138826,-30.9025 0.834492,-31.3005 7.175768,-53.68734 19.315894,-68.19154 3.621946,-4.32723 27.248046,-16.42528 32.076706,-16.42528 3.91252,0 2.70038,-6.72664 -1.50278,-8.33954 -2.13829,-0.82055 -7.01095,-1.49189 -10.8281,-1.49189 -10.29354,0 -25.645007,-9.19817 -30.109437,-18.04073 -10.049766,-19.90532 -7.932665,-37.45885 6.168341,-51.1434 9.072816,-8.80489 10.766626,-9.46735 24.206226,-9.46735 11.00651,0 14.45078,-0.85219 14.45078,-3.57542 0,-2.22169 -3.48974,-4.15327 -9.21697,-5.10166 -19.07033,-3.15786 -39.940205,-14.74295 -39.940205,-22.17124 0,-1.95894 -1.172792,-3.5617 -2.60624,-3.5617 -3.755264,0 -1.750241,-17.83381 2.149152,-19.11571 1.776343,-0.58393 9.539343,5.61048 17.251145,13.76541 11.810258,12.48892 15.531338,14.95202 23.595818,15.61891 l 9.57437,0.79175 -0.57647,-15.33864 c -0.7043,-18.74105 1.13516,-25.21603 7.16355,-25.21603 7.36134,0 9.92343,7.08158 10.67092,29.49431 l 0.36887,11.06036 9.39886,-0.29649 c 11.9185,-0.37596 19.87264,-4.62164 24.12617,-12.87781 6.80605,-13.21072 14.5838,-16.5652 19.05167,-8.21689 5.32896,9.95723 -15.42107,34.90941 -29.03038,34.90941 -3.85321,0 -10.72748,1.61577 -15.27609,3.59059 l -8.27023,3.59059 9.45998,0.0961 c 12.38247,0.12584 25.0026,6.28779 31.46463,15.36285 4.27576,6.00479 4.93543,9.51955 3.74887,19.97433 -3.82246,33.67964 -14.14992,45.86836 -38.86411,45.86836 -3.67108,0 -7.16328,1.69622 -8.00426,3.88782 -2.1232,5.53296 -1.95223,5.94362 2.4747,5.94362 4.72685,0 22.31853,9.30255 29.04977,15.36161 2.62814,2.36569 5.49838,4.30126 6.37832,4.30126 2.17673,0 6.58618,10.04551 13.66274,31.12629 8.89586,26.50029 8.01154,62.27235 -1.53945,62.27235 -3.19156,0 -7.27652,-12.8288 -7.27652,-22.8518 0,-13.70372 -5.73354,-40.54032 -11.05896,-51.76278 -2.35146,-4.95536 -7.54663,-11.76233 -11.54481,-15.12655 -7.02466,-5.91088 -18.24899,-10.32335 -20.50963,-8.06271 -0.60549,0.60547 -1.80534,14.28726 -2.66633,30.40393 -3.37329,63.14311 -4.322,70.97621 -8.69762,71.81291 -2.38386,0.4558 -4.7448,-1.2769 -5.65723,-4.1517 z m 2.59314,-144.04055 c 2.89995,-11.55434 0.19491,-13.52372 -18.57505,-13.52372 -19.345537,0 -22.070024,3.18919 -11.93799,13.97427 4.14864,4.41601 7.98706,5.6886 17.15819,5.6886 10.54898,0 11.97901,-0.65738 13.35485,-6.13915 z m 31.34723,3.41026 c 4.79585,-2.18514 11.44706,-11.21868 11.44706,-15.54716 0,-2.46312 -17.516,-3.60477 -23.04638,-1.50215 -5.27542,2.00574 -6.44792,4.02686 -6.44792,11.11486 0,7.55801 0.76921,8.66334 6.029,8.66334 3.31595,0 8.72415,-1.228 12.01824,-2.72889 z m -32.61175,-33.52453 c 0.10053,-1.01387 0.60608,-4.06687 1.12361,-6.78448 1.65564,-8.69396 -2.27588,-11.86126 -12.37208,-9.9672 -8.90764,1.67107 -20.886341,10.86199 -20.886341,16.0255 0,2.92712 31.845451,3.64675 32.134811,0.72618 z m 44.05881,-2.5535 c 0,-6.08622 -6.90737,-10.35026 -16.76648,-10.35026 -11.19065,0 -15.98471,6.28696 -8.80007,11.54051 5.66618,4.14321 25.56655,3.21674 25.56655,-1.19025 z"
       id="path3158"
       inkscape:connector-curvature="0" />
  </g>
</svg>
