<?xml version="1.0" encoding="UTF-8" standalone="no"?>
<svg
   xmlns:dc="http://purl.org/dc/elements/1.1/"
   xmlns:cc="http://creativecommons.org/ns#"
   xmlns:rdf="http://www.w3.org/1999/02/22-rdf-syntax-ns#"
   xmlns:svg="http://www.w3.org/2000/svg"
   xmlns="http://www.w3.org/2000/svg"
   viewBox="0 0 300 300"
   height="300"
   width="300"
   id="svg76"
   version="1.1">
  <metadata
     id="metadata82">
    <rdf:RDF>
      <cc:Work
         rdf:about="">
        <dc:format>image/svg+xml</dc:format>
        <dc:type
           rdf:resource="http://purl.org/dc/dcmitype/StillImage" />
        <dc:title></dc:title>
      </cc:Work>
    </rdf:RDF>
  </metadata>
  <defs
     id="defs80" />
  <path
     id="path86"
     d="m 93.616571,278.99592 c -0.212568,-6.01284 -0.318558,-27.98034 -0.242728,-53.48743 0.183148,-29.07336 0.393099,-87.39621 0.393099,-87.39621 -23.031892,6.71282 -22.207883,77.59331 -22.53426,94.33767 -0.393224,14.05085 0.453457,22.1367 -4.047431,24.29942 -5.851674,2.81179 -6.718506,0.13883 -6.623119,-18.41028 0.07998,-15.55271 0.446577,-31.48776 1.330919,-46.56328 1.691312,-28.8321 5.620147,-58.67602 31.80879,-65.54902 l 0.07656,-17.38726 C 81.95403,106.0737 73.89336,102.76487 67.026019,93.209778 62.472447,86.874021 61.694262,80.633228 61.325157,73.180301 60.881694,64.22596 60.761168,53.52794 62.668797,48.527877 c 1.789982,-4.691696 6.801605,-5.921988 8.526183,-2.54182 2.885736,5.656035 2.454297,8.800988 2.601776,22.81042 0.06706,6.37087 0.125171,12.090514 2.363268,15.757558 3.795052,6.218057 10.985712,11.110904 17.60003,11.161174 l 0.04039,-46.095742 c 0.0231,-26.369368 -1.351579,-36.172734 4.991171,-34.422803 4.045075,1.116016 5.704595,5.186254 5.753465,8.199574 l 0.34022,72.361721 c 8.02409,-0.91418 13.07727,-5.395629 16.07029,-11.229475 2.52219,-4.991746 3.01726,-8.13349 3.54816,-22.517318 0.3216,-8.713056 0.69567,-14.891514 1.35244,-15.731806 5.5376,-7.085063 10.03786,0.373406 10.16852,7.195733 0.21253,11.095779 0.44562,27.652256 -5.53232,38.368755 -6.67251,11.961652 -14.76023,13.998322 -25.61055,16.338282 l 0.0665,18.30205 c 28.38127,5.79832 30.84574,44.14129 31.85036,63.70249 0.76125,15.48708 1.04605,49.17095 0.37011,59.71412 -0.50851,7.93154 -8.20388,9.54698 -10.13598,3.17885 -0.87418,-2.88125 -1.03946,-8.02768 -1.06009,-27.16422 -0.0246,-22.82858 3.10114,-81.35084 -21.03898,-87.36529 l 0.62016,121.63404 c 0.0793,15.53937 -0.0391,17.6525 -1.35099,20.38053 -3.3516,6.96976 -10.347868,5.17694 -10.586344,-1.56878 z m 123.317709,-3.03943 c -2.28468,-2.1396 -3.39594,-5.76948 -3.61034,-12.05063 -0.6518,-19.09447 -3.03098,-41.61371 -8.02328,-60.93151 -10.439,3.20861 -21.42287,3.60695 -32.7619,3.49606 -6.82842,-0.0668 -15.3409,-1.87315 -17.42794,-8.8357 -0.92772,-3.09499 12.36875,-2.26874 16.7036,-2.2495 11.41416,0.0506 20.67415,0.0965 30.16213,-3.37082 -3.43267,-12.69841 -18.26256,-13.97153 -33.36127,-14.75715 -7.7756,-0.40457 -15.39031,-1.39207 -16.66256,-1.92366 -5.21516,-2.17903 -5.9357,-7.85634 -1.17534,-9.26074 4.48111,-1.32202 11.22744,-0.6173 18.31583,-0.10905 19.65269,1.40916 34.87346,4.68678 40.2564,15.83722 4.4292,-12.32324 -1.78041,-24.27518 -12.32606,-29.11862 -6.65918,-3.05845 -24.69363,-4.74112 -35.81112,-5.78691 -9.82297,-0.92401 -5.94505,-11.21988 1.5591,-10.75037 13.70844,1.25255 31.77534,2.10867 43.83047,8.51705 18.40829,9.78568 19.72403,35.52163 8.69244,50.67468 5.71017,24.03655 8.82643,51.49626 9.14015,71.31518 0.0816,5.16042 -3.4906,13.05957 -7.50031,9.30447 z m -30.1169,-158.8532 c -21.35622,-10.1934 -14.43392,-25.977403 11.98205,-34.439218 11.33469,-3.630837 14.8274,-5.21957 14.8268,-10.015668 -6.7e-4,-5.37047 -5.07816,-8.17985 -10.61644,-9.445949 -11.15947,-2.551151 -22.94181,-0.968006 -33.85217,0.318581 -0.93775,15.609383 -5.39975,29.716895 -8.326,37.880724 -6.24425,17.42056 -7.23176,19.96435 -10.74042,22.62458 -3.7673,2.85631 -7.81873,1.72462 -8.04746,-1.96083 -0.23736,-3.82469 2.1366,-9.34463 5.50544,-18.34298 8.39152,-22.414188 13.23709,-42.547842 8.32027,-62.496579 -1.81961,-7.249811 -2.10184,-10.697383 -0.12242,-14.372793 3.13011,-5.812022 6.1644,-1.139 8.38486,4.148928 2.81603,6.706296 4.05464,14.587187 4.95585,21.062012 13.19193,-0.475688 23.75898,-0.805425 34.52949,0.959374 11.06325,1.812768 21.39253,9.520007 21.28323,19.821986 -0.14508,13.673439 -16.91454,16.908338 -27.92666,20.425073 -10.04293,3.207228 -13.7303,8.402839 -5.86447,13.247259 15.13534,7.16749 24.48146,7.61518 41.29216,9.74703 10.48006,1.32904 8.38215,11.73865 -0.50246,10.83811 -16.45239,-1.66761 -30.80016,-3.18304 -45.08165,-9.99964 z"
     style="fill:#000000;stroke-width:0.69284058" />
</svg>
