<?xml version="1.0" encoding="UTF-8" standalone="no"?>
<!-- Created with Inkscape (http://www.inkscape.org/) -->

<svg
   xmlns:dc="http://purl.org/dc/elements/1.1/"
   xmlns:cc="http://creativecommons.org/ns#"
   xmlns:rdf="http://www.w3.org/1999/02/22-rdf-syntax-ns#"
   xmlns:svg="http://www.w3.org/2000/svg"
   xmlns="http://www.w3.org/2000/svg"
   xmlns:sodipodi="http://sodipodi.sourceforge.net/DTD/sodipodi-0.dtd"
   xmlns:inkscape="http://www.inkscape.org/namespaces/inkscape"
   width="300"
   height="300"
   id="svg2"
   version="1.1"
   inkscape:version="0.48.4 r9939"
   sodipodi:docname="image-seal.svg">
  <defs
     id="defs4" />
  <sodipodi:namedview
     id="base"
     pagecolor="#ffffff"
     bordercolor="#666666"
     borderopacity="1.0"
     inkscape:pageopacity="0.0"
     inkscape:pageshadow="2"
     inkscape:zoom="1.979899"
     inkscape:cx="141.86812"
     inkscape:cy="134.8223"
     inkscape:document-units="px"
     inkscape:current-layer="layer1"
     showgrid="false"
     inkscape:window-width="1215"
     inkscape:window-height="1000"
     inkscape:window-x="65"
     inkscape:window-y="24"
     inkscape:window-maximized="1" />
  <metadata
     id="metadata7">
    <rdf:RDF>
      <cc:Work
         rdf:about="">
        <dc:format>image/svg+xml</dc:format>
        <dc:type
           rdf:resource="http://purl.org/dc/dcmitype/StillImage" />
        <dc:title />
      </cc:Work>
    </rdf:RDF>
  </metadata>
  <g
     inkscape:label="Calque 1"
     inkscape:groupmode="layer"
     id="layer1"
     transform="translate(0,-752.36218)">
    <path
       style="fill:#000000"
       d="m 92.23005,1034.3939 c -0.838029,-2.7626 -1.047607,-8.7756 -0.465731,-13.3623 0.894747,-7.0529 2.363875,-106.99746 1.726407,-117.44735 -0.347616,-5.69845 -8.131442,-3.94271 -12.323886,2.77982 -2.910195,4.6664 -4.013756,18.60714 -4.346027,54.90145 -0.472097,51.56318 -3.128383,67.65588 -10.911241,66.10378 -3.416788,-0.6814 -4.394979,-3.3998 -3.805907,-10.5769 0.436042,-5.3129 1.839434,-32.17639 3.118652,-59.69662 1.279218,-27.52022 2.486076,-50.1581 2.681944,-50.30638 0.195977,-0.14844 2.54523,-2.75366 5.220808,-5.78972 2.675577,-3.03608 8.304714,-7.74957 12.509193,-10.47442 6.11544,-3.96333 7.644508,-7.05419 7.644508,-15.45253 0,-8.97298 -1.044435,-10.76035 -7.188957,-12.30254 -13.164391,-3.30403 -20.896628,-14.05925 -22.271834,-30.97909 -0.685698,-8.4362 -0.05504,-17.46787 1.401335,-20.07036 1.851278,-3.30801 1.432387,-6.07508 -1.392189,-9.19618 -4.476762,-4.94677 -2.539727,-13.60792 3.043348,-13.60792 5.261255,0 6.11805,4.70184 5.004372,27.46221 -1.159158,23.69039 3.15126,33.69385 14.518452,33.69385 l 6.885473,0 0,-41.90112 c 0,-38.40834 0.405523,-41.82332 4.864688,-40.96747 4.328152,0.83069 4.949512,5.45195 5.633942,41.90113 l 0.76929,40.96746 7.9495,0 c 7.26009,0 8.1081,-1.05753 9.77813,-12.19413 1.00575,-6.70674 1.08488,-20.46687 0.17597,-30.57803 -1.54797,-17.21837 -1.29142,-18.3839 4.04663,-18.3839 6.57428,0 6.36957,-1.18929 5.74127,33.35785 -0.41043,22.56644 -1.32772,27.31822 -6.30529,32.6629 -3.20371,3.44002 -7.85858,6.25459 -10.34407,6.25459 -6.96893,0 -11.1907,5.80193 -11.1907,15.37924 0,6.98864 2.03889,10.03436 10.3279,15.428 13.21504,8.59897 14.44372,14.53486 14.33767,69.2663 -0.0459,23.69797 0.80634,45.36068 1.89395,48.13938 1.94512,4.9697 -3.36284,18.5763 -7.24666,18.5763 -2.65415,0 -5.0933,-26.1779 -6.9456,-74.54235 -1.44757,-37.79666 -4.01843,-53.33363 -8.82368,-53.32594 -1.18452,0.003 -2.58813,27.83487 -3.11912,61.85101 -0.53104,34.01615 -1.1565,64.95808 -1.38992,68.75988 -0.50561,8.2342 -8.976119,11.0093 -11.20253,3.6701 z m 65.85695,-17.3937 c -13.44432,-8.1975 -15.71127,-14.8856 -15.10171,-44.5543 0.64893,-31.58352 2.70707,-58.31615 4.74343,-61.61108 3.36942,-5.45184 6.47834,-1.63298 8.24131,10.1233 1.80488,12.03577 2.2375,12.5092 11.43106,12.5092 l 9.55519,0 -0.83642,-31.16463 -0.83639,-31.16466 -25.96316,0.8255 c -23.93479,0.761 -25.88456,0.42676 -24.95684,-4.27808 0.85429,-4.33252 3.93681,-5.1477 20.40351,-5.39581 10.66846,-0.16067 22.40709,-0.47345 26.08581,-0.69495 l 6.68861,-0.40271 -1.80106,-41.61172 c -1.74067,-40.21536 -1.60733,-41.71542 3.97377,-44.70234 3.1762,-1.69987 6.15206,-2.67655 6.61303,-2.17046 0.46098,0.50609 1.63081,19.60577 2.59963,42.44374 0.96882,22.83795 2.40821,42.17024 3.19863,42.96066 2.90138,2.9014 14.98523,3.13974 26.6221,0.52513 8.15153,-1.83154 13.08175,-1.74397 15.51514,0.27548 6.64936,5.51847 3.60984,7.01963 -17.89381,8.83736 -12.29787,1.03953 -23.10039,3.45387 -25.30127,5.65473 -3.03336,3.03338 -3.41717,9.48898 -1.826,30.71238 l 2.01465,26.87171 8.69255,-0.84556 c 7.72645,-0.75161 8.70317,-1.83457 8.78821,-9.74399 0.11484,-10.68475 1.71112,-12.68251 8.15716,-10.20895 4.44483,1.70564 4.78345,6.02999 3.80701,48.61434 -1.22236,53.30811 -1.6929,54.43691 -25.15528,60.34481 -18.24789,4.5949 -27.24505,4.0787 -37.45886,-2.1491 z m 43.99835,-11.1913 c 2.93067,-0.1089 5.31269,-13.09369 6.8752,-37.47744 1.12808,-17.6041 0.61164,-23.2955 -2.20268,-24.27523 -3.51027,-1.222 -14.60959,-1.22757 -40.50882,-0.0194 l -11.81424,0.55069 0,23.49769 c 0,12.92371 1.41251,26.59776 3.13889,30.38679 3.80641,8.3542 18.96267,12.7624 32.99878,9.5978 5.35115,-1.2064 10.53196,-2.2234 11.51287,-2.2599 z"
       id="path3132"
       inkscape:connector-curvature="0" />
  </g>
</svg>
