<?xml version="1.0" encoding="UTF-8" standalone="no"?>
<!-- Created with Inkscape (http://www.inkscape.org/) -->

<svg
   xmlns:dc="http://purl.org/dc/elements/1.1/"
   xmlns:cc="http://creativecommons.org/ns#"
   xmlns:rdf="http://www.w3.org/1999/02/22-rdf-syntax-ns#"
   xmlns:svg="http://www.w3.org/2000/svg"
   xmlns="http://www.w3.org/2000/svg"
   xmlns:sodipodi="http://sodipodi.sourceforge.net/DTD/sodipodi-0.dtd"
   xmlns:inkscape="http://www.inkscape.org/namespaces/inkscape"
   width="300"
   height="300"
   id="svg2"
   version="1.1"
   inkscape:version="0.48.4 r9939"
   sodipodi:docname="image-seal.svg">
  <defs
     id="defs4" />
  <sodipodi:namedview
     id="base"
     pagecolor="#ffffff"
     bordercolor="#666666"
     borderopacity="1.0"
     inkscape:pageopacity="0.0"
     inkscape:pageshadow="2"
     inkscape:zoom="2.0506101"
     inkscape:cx="150.3604"
     inkscape:cy="115.67348"
     inkscape:document-units="px"
     inkscape:current-layer="layer1"
     showgrid="false"
     inkscape:window-width="1215"
     inkscape:window-height="1000"
     inkscape:window-x="65"
     inkscape:window-y="24"
     inkscape:window-maximized="1"
     fit-margin-top="10"
     fit-margin-left="10"
     fit-margin-right="10"
     fit-margin-bottom="10" />
  <metadata
     id="metadata7">
    <rdf:RDF>
      <cc:Work
         rdf:about="">
        <dc:format>image/svg+xml</dc:format>
        <dc:type
           rdf:resource="http://purl.org/dc/dcmitype/StillImage" />
        <dc:title />
      </cc:Work>
    </rdf:RDF>
  </metadata>
  <g
     inkscape:label="Calque 1"
     inkscape:groupmode="layer"
     id="layer1"
     transform="translate(0,-752.36218)">
    <path
       style="fill:#000000"
       d="m 5.0004421,1037.3621 c -1.461e-4,0 -2.063e-4,-2e-4 -1.391e-4,-4e-4 4.4e-5,-10e-5 2.87e-5,-2e-4 -2.72e-5,-2e-4 -7.69e-5,0 -1.269e-4,0 -1.385e-4,0 -6.8e-6,10e-5 -1.78e-5,10e-5 -2.46e-5,10e-5 -9.3e-6,0 7e-6,10e-5 6.36e-5,10e-5 5.86e-5,0 7.1e-5,0 5.37e-5,0 -3.73e-5,10e-5 -1.646e-4,10e-5 -2.03e-4,0 -7.89e-5,-10e-5 2.21e-5,-2e-4 1.908e-4,-3e-4 6.61e-5,0 7.09e-5,0 6.05e-5,-10e-5 -8.5e-6,0 -2.7e-6,-10e-5 2.33e-5,-10e-5 4.7e-5,0 9.72e-5,0 9.72e-5,10e-5 0,10e-5 8e-6,10e-5 1.212e-4,10e-5 6.67e-5,0 1.588e-4,0 2.047e-4,0 7.17e-5,0 8.77e-5,0 1.134e-4,10e-5 3.69e-5,10e-5 1.59e-5,10e-5 -1.232e-4,2e-4 -5.21e-5,0 -1.171e-4,0 -1.444e-4,10e-5 -2.73e-5,0 -8.66e-5,0 -1.319e-4,0 -1.054e-4,1e-4 -1.053e-4,2e-4 2e-7,2e-4 5.99e-5,10e-5 9.96e-5,10e-5 2.425e-4,10e-5 9.4e-5,0 2.015e-4,0 2.39e-4,0 1.051e-4,-10e-5 1.062e-4,0 1.6e-6,0 -1.063e-4,10e-5 -3.627e-4,10e-5 -4.798e-4,0 z m 3.79e-5,-4e-4 c 4.93e-5,0 4.42e-5,-10e-5 -1.21e-5,-10e-5 -4.17e-5,0 -4.04e-5,0 -5.8e-5,10e-5 -1.68e-5,10e-5 2.2e-6,10e-5 7.01e-5,0 z m 2.159e-4,-10e-5 c 6.61e-5,-10e-5 7.56e-5,-10e-5 3.59e-5,-10e-5 -2.83e-5,-10e-5 -3.33e-4,-10e-5 -3.33e-4,0 0,0 3.86e-5,0 8.58e-5,0 4.72e-5,0 9.09e-5,10e-5 9.71e-5,10e-5 1.48e-5,0 4e-5,0 1.142e-4,0 z"
       id="path3223"
       inkscape:connector-curvature="0" />
    <path
       style="fill:#000000"
       d="m 5.000515,1017.3622 c -4.25e-5,0 -7.25e-5,0 -1.096e-4,0 -3.41e-5,-10e-5 -8.26e-5,-10e-5 -8.28e-5,-10e-5 -10e-8,0 -2.6e-6,0 -5.5e-6,0 -6.2e-6,0 -2.87e-5,-1e-4 -4.19e-5,-1e-4 -5.1e-6,0 -1.08e-5,0 -1.28e-5,-10e-5 -2e-6,0 -7.9e-6,0 -1.31e-5,0 -1.19e-5,0 -4.58e-5,-10e-5 -6.13e-5,-10e-5 -6.5e-6,0 -1.18e-5,0 -1.18e-5,0 0,0 -3.02e-5,-10e-5 -6.75e-5,-10e-5 -9.8e-6,0 -2.18e-5,0 -2.67e-5,0 -2.65e-5,0 -3.8e-5,10e-5 -1.72e-5,10e-5 1.28e-5,10e-5 3.97e-5,10e-5 6.99e-5,10e-5 2.39e-5,0 2.68e-5,0 1.13e-5,0 -2.27e-5,10e-5 -8.63e-5,0 -1.137e-4,0 -1.01e-5,-10e-5 -2.19e-5,-10e-5 -2.62e-5,-10e-5 -1.93e-5,0 1.02e-5,-10e-5 4.84e-5,-2e-4 2.62e-5,0 3.34e-5,0 7.02e-5,0 2.11e-5,0 3.82e-5,0 3.82e-5,-10e-5 0,0 9e-6,0 2e-5,0 1.09e-5,0 1.99e-5,0 1.99e-5,0 0,0 -8.8e-6,0 -1.97e-5,0 -1.08e-5,0 -1.97e-5,0 -1.99e-5,0 -2e-7,0 1.9e-6,-10e-5 1.79e-5,0 1.01e-5,0 1.98e-5,0 2.16e-5,0 1.9e-6,0 1.34e-5,0 2.56e-5,0 1.96e-5,0 2.62e-5,0 5.65e-5,0 7.3e-5,0 2.285e-4,0 2.734e-4,0 4.44e-5,0 1.004e-4,10e-5 1.138e-4,10e-5 2.52e-5,1e-4 2.92e-5,1e-4 1.41e-5,1e-4 -9.3e-6,0 -5.45e-5,10e-5 -6.48e-5,10e-5 -8.4e-6,0 -8.7e-6,0 -4e-7,0 3.4e-6,0 9.9e-6,-10e-5 1.44e-5,-10e-5 9.4e-6,0 3e-6,-1e-4 -2.43e-5,-1e-4 -2.28e-5,0 -8.94e-5,0 -1.302e-4,0 -3.12e-5,0 -3.28e-5,0 -2.85e-5,0 2.5e-6,0 8.4e-6,0 1.32e-5,0 4.7e-6,0 1.07e-5,0 1.31e-5,0 4.4e-6,0 7.5e-6,0 3.49e-5,1e-4 7.3e-6,0 1.55e-5,0 1.82e-5,10e-5 6.5e-6,0 4.41e-5,0 5.48e-5,10e-5 4.5e-6,0 8.3e-6,0 8.3e-6,0 0,0 3.8e-6,0 8.5e-6,0 4.7e-6,0 1.57e-5,0 2.44e-5,0 2.21e-5,10e-5 6.89e-5,10e-5 9.48e-5,10e-5 2.94e-5,0 1.248e-4,0 1.882e-4,0 2.72e-5,0 4.94e-5,0 4.94e-5,0 0,0 9e-6,0 2e-5,0 1.73e-5,0 1.99e-5,0 1.99e-5,0 0,0 -5.4e-6,0 -1.97e-5,1e-4 -1.08e-5,0 -2.35e-5,0 -2.82e-5,0 -4.7e-6,0 -1.54e-5,0 -2.37e-5,0 -8.3e-6,0 -2.64e-5,0 -4.02e-5,0 -1.38e-5,0 -3.24e-5,10e-5 -4.14e-5,10e-5 -8.9e-6,0 -1.77e-5,0 -1.95e-5,0 -1.36e-5,0 -2.117e-4,0 -2.599e-4,0 -8.7e-6,0 -3.23e-5,0 -5.24e-5,0 z m 1.396e-4,0 c 9.26e-5,-10e-5 9.51e-5,-10e-5 1.092e-4,-10e-5 1.1e-5,0 4.5e-6,0 -4.51e-5,0 -5.73e-5,0 -7.72e-5,0 -1.306e-4,0 -3.8e-5,0 -8.82e-5,0 -1.095e-4,-1e-4 -1.1e-5,0 -2.36e-5,0 -2.8e-5,0 -4.4e-6,0 -2.08e-5,0 -3.66e-5,-10e-5 -2.7e-5,0 -3.78e-5,0 -5.88e-5,-10e-5 -1.03e-5,0 -6.88e-5,-10e-5 -8.18e-5,-2e-4 -4.9e-6,0 -2.02e-5,0 -3.39e-5,0 -2.78e-5,0 -3.79e-5,0 -7.92e-5,0 -2.65e-5,0 -2.95e-5,0 -1.14e-5,0 6.9e-6,1e-4 1.89e-5,1e-4 2.66e-5,1e-4 7.7e-6,0 2.02e-5,0 2.77e-5,0 7.5e-6,0 1.82e-5,10e-5 2.39e-5,10e-5 1.35e-5,0 6.51e-5,10e-5 7.61e-5,10e-5 4.7e-6,0 1.02e-5,10e-5 1.22e-5,10e-5 2e-6,0 8.8e-6,0 1.5e-5,0 1.63e-5,0 3.44e-5,1e-4 4.02e-5,1e-4 2.7e-6,0 4.9e-6,0 4.9e-6,0 0,0 5.71e-5,0 9.52e-5,10e-5 5.7e-5,0 9.51e-5,0 1.839e-4,0 z m 1.361e-4,-10e-5 c 1.02e-5,0 7e-6,0 -1.32e-5,0 -2.59e-5,0 -7.16e-5,0 -8.08e-5,-1e-4 -2.5e-6,0 -10e-6,0 -1.67e-5,0 -6.7e-6,0 -1.22e-5,0 -1.22e-5,0 0,0 -3.9e-6,0 -8.8e-6,0 -1.01e-5,0 -6.76e-5,0 -9.99e-5,-10e-5 -3.72e-5,0 -8.2e-5,-10e-5 -1.172e-4,-2e-4 -1.36e-5,-1e-4 -1.73e-5,-1e-4 -3.25e-5,-1e-4 -3.4e-6,0 -7.8e-6,0 -9.8e-6,0 -4.4e-6,-10e-5 -2.72e-5,-10e-5 -8.83e-5,0 l -4.21e-5,0 3.23e-5,0 c 2.88e-5,0 7.4e-5,1e-4 7.4e-5,1e-4 0,0 2.3e-6,0 5.1e-6,0 5e-6,0 1.24e-5,10e-5 2.81e-5,10e-5 4.6e-6,0 1.69e-5,0 2.74e-5,10e-5 1.06e-5,0 1.92e-5,0 1.92e-5,0 0,0 5.98e-5,10e-5 8.34e-5,10e-5 3.35e-5,1e-4 8.04e-5,1e-4 1.258e-4,1e-4 4.6e-5,0 1.07e-4,0 1.262e-4,0 z"
       id="path3236"
       inkscape:connector-curvature="0" />
    <path
       style="fill:#000000"
       d="m 148.89833,1040.7044 c -0.18401,-3.751 -0.74636,-12.9581 -1.24958,-20.4601 -0.50319,-7.5021 -0.91508,-15.8721 -0.91522,-18.6002 -1.8e-4,-2.72797 -0.16493,-13.33005 -0.3662,-23.56013 -0.95618,-48.6074 2.21131,-102.20075 7.00838,-118.5814 3.70845,-12.66333 12.80534,-24.23785 20.65747,-26.28374 2.04602,-0.53308 10.72254,-2.43109 19.28117,-4.21777 19.52544,-4.07609 26.61557,-10.7712 26.2481,-24.78574 -0.39092,-14.90874 -5.03012,-17.26875 -33.12917,-16.8531 -28.29883,0.4186 -29.76023,0.30951 -29.76023,-2.22157 0,-4.50508 18.07979,-8.04732 38.80375,-7.60255 19.55815,0.41976 22.68861,1.14254 28.65628,6.61634 8.60125,7.88944 10.60488,17.45361 6.89562,32.91561 -2.55569,10.65325 -4.17601,12.87359 -11.68407,16.01064 -4.7943,2.00319 -12.07814,3.64216 -16.18634,3.64216 -13.34414,0 -26.85581,5.55995 -32.75861,13.47992 -6.16198,8.26774 -10.30817,27.92076 -12.59088,59.68066 -0.78428,10.91208 -1.34574,20.95616 -1.24765,22.32017 1.54081,21.42799 1.26779,107.7756 -0.3509,110.9808 -3.27387,6.4828 -6.93302,5.2418 -7.31192,-2.48 z m 34.10199,0.8809 c -5.23356,-20.8522 -9.7779,-128.69758 -6.01985,-142.86196 4.67773,-17.63076 8.4867,-27.28022 10.76844,-27.28022 1.49203,0 7.10741,-2.101 12.47866,-4.66888 15.21713,-7.27499 24.5516,-8.60728 28.33825,-4.04469 2.79637,3.36943 2.15464,4.31769 -4.66343,6.89123 -10.092,3.80931 -11.18509,8.47747 -9.32718,39.83296 2.81457,47.50143 8.40171,82.911 15.24741,96.63346 4.86763,9.7575 4.70715,12.3544 -0.98303,15.908 -4.08613,2.5519 -5.059,2.0532 -7.30334,-3.7436 -10.65533,-27.52033 -16.90352,-60.47245 -17.72673,-93.48806 -0.87602,-35.13262 -1.76756,-44.39751 -4.35534,-45.26008 -5.96427,-1.98811 -13.31478,21.15675 -13.58637,42.78006 -0.18625,14.83104 3.66426,68.06568 5.40364,74.7069 1.11586,4.26048 1.87877,17.07668 1.69537,28.48048 -0.27369,17.0164 -1.05788,20.8746 -4.37354,21.5179 -2.58475,0.5014 -4.59942,-1.4449 -5.59296,-5.4035 z m -91.430909,-5.8409 c -0.50372,-1.023 -0.62593,-4.65 -0.27159,-8.0601 0.77268,-7.4356 5.5735,-121.553 5.63396,-133.921 l 0.0424,-8.68007 -5.84015,7.14127 c -8.31231,10.16421 -16.30166,55.85515 -16.30166,93.22887 0,20.61033 -3.13197,34.79093 -7.68402,34.79093 -2.21726,0 -2.24075,-0.3747 -2.09961,-33.48027 0.058,-13.6401 1.12134,-32.05425 2.36266,-40.92032 1.24133,-8.86607 2.8431,-20.58416 3.55948,-26.04021 1.64782,-12.55004 2.7643,-17.07778 7.77072,-31.51331 3.32781,-9.59547 5.54728,-12.16787 12.46966,-14.45246 7.44199,-2.45606 8.4213,-3.78885 8.4213,-11.46092 0,-6.93232 -1.99721,-10.54402 -9.91169,-17.92416 l -9.9117,-9.24252 -0.21229,-26.43095 c -0.22122,-27.55962 0.61103,-31.5768 6.54182,-31.5768 2.86844,0 3.57366,4.7964 3.57366,24.30575 0,22.35872 3.23032,37.62363 7.97282,37.67539 4.652019,0.0508 6.628369,-11.72089 7.101379,-42.29768 0.55424,-35.82909 1.11415,-39.52362 5.9897,-39.52362 3.26333,0 7.63575,20.49711 5.20977,24.42244 -1.63611,2.64729 -2.42776,54.81056 -0.85568,56.38265 2.4116,2.41159 9.30228,-2.16171 9.30228,-6.17384 0,-2.30929 1.28671,-5.4854 2.85934,-7.05803 1.73862,-1.73862 2.65489,-9.86059 2.33777,-20.72188 -0.50235,-17.2036 1.23634,-21.89352 8.1609,-22.01318 3.68449,-0.0637 -0.1302,51.64981 -4.27684,57.9784 -2.02566,3.09154 -7.40862,6.68311 -11.96213,7.98125 -7.20897,2.05519 -8.37721,3.52867 -9.03796,11.39943 -0.68687,8.18161 0.0595,9.42755 7.86821,13.13297 4.7449,2.25161 9.47903,5.96065 10.52027,8.24232 1.04123,2.28167 2.09135,33.9914 2.33355,70.46609 0.33963,51.14606 -0.28275,66.91766 -2.72056,68.94086 -5.53208,4.5913 -7.2796,-2.5189 -7.94765,-32.33766 -0.35144,-15.68612 -1.47057,-44.69002 -2.48696,-64.4531 -1.54431,-30.02793 -2.50023,-36.0574 -5.81703,-36.6907 -3.45023,-0.65875 -4.20088,4.52464 -5.74237,39.65291 -0.97531,22.22591 -2.2277,44.31676 -2.7831,49.0908 -0.55537,4.77403 -1.55271,19.11281 -2.21629,31.86395 -1.10837,21.298 -3.749869,30.1365 -9.006689,30.1365 -1.11648,0 -2.44212,-0.837 -2.94584,-1.86 z"
       id="path3043"
       inkscape:connector-curvature="0" />
  </g>
</svg>
