<?xml version="1.0" encoding="UTF-8" standalone="no"?>
<!-- Created with Inkscape (http://www.inkscape.org/) -->

<svg
   xmlns:dc="http://purl.org/dc/elements/1.1/"
   xmlns:cc="http://creativecommons.org/ns#"
   xmlns:rdf="http://www.w3.org/1999/02/22-rdf-syntax-ns#"
   xmlns:svg="http://www.w3.org/2000/svg"
   xmlns="http://www.w3.org/2000/svg"
   xmlns:sodipodi="http://sodipodi.sourceforge.net/DTD/sodipodi-0.dtd"
   xmlns:inkscape="http://www.inkscape.org/namespaces/inkscape"
   width="300"
   height="300"
   id="svg2"
   version="1.1"
   inkscape:version="0.48.4 r9939"
   sodipodi:docname="dessin.svg">
  <defs
     id="defs4" />
  <sodipodi:namedview
     id="base"
     pagecolor="#ffffff"
     bordercolor="#666666"
     borderopacity="1.0"
     inkscape:pageopacity="0.0"
     inkscape:pageshadow="2"
     inkscape:zoom="1.979899"
     inkscape:cx="66.959549"
     inkscape:cy="133.99264"
     inkscape:document-units="px"
     inkscape:current-layer="layer1"
     showgrid="false"
     inkscape:window-width="1215"
     inkscape:window-height="1000"
     inkscape:window-x="65"
     inkscape:window-y="24"
     inkscape:window-maximized="1" />
  <metadata
     id="metadata7">
    <rdf:RDF>
      <cc:Work
         rdf:about="">
        <dc:format>image/svg+xml</dc:format>
        <dc:type
           rdf:resource="http://purl.org/dc/dcmitype/StillImage" />
        <dc:title />
      </cc:Work>
    </rdf:RDF>
  </metadata>
  <g
     inkscape:label="Calque 1"
     inkscape:groupmode="layer"
     id="layer1"
     transform="translate(0,-752.36218)">
    <path
       style="fill:#000000"
       d="M 92.103409,1002.5856 C 91.94924,980.82987 91.554304,952.85822 91.225777,940.42639 89.99231,893.7505 90.345077,894.7816 78.84273,904.2321 l -6.383994,5.24519 0,60.64073 c 0,54.36138 -0.454053,60.72408 -4.384857,61.44518 -6.840725,1.2549 -11.000746,-28.2634 -9.402354,-66.71648 0.730553,-17.57513 1.947947,-34.21512 2.705319,-36.97775 0.757373,-2.76263 1.468509,-8.82896 1.580307,-13.48076 0.151111,-6.28779 2.759305,-10.85992 10.16575,-17.82042 5.479365,-5.14948 11.645682,-9.87923 13.702913,-10.51059 5.971653,-1.83263 1.433143,-13.87006 -5.884047,-15.6062 -17.261345,-4.09555 -24.133982,-20.38689 -23.802651,-56.4233 0.13116,-14.26666 0.890318,-26.55556 1.686987,-27.30871 0.796672,-0.75312 3.293303,-0.7001 5.548066,0.11779 3.127666,1.13459 4.099572,5.45622 4.099572,18.22894 0,9.20798 1.407763,23.96444 3.128362,32.79215 2.649989,13.59609 4.090753,16.27877 9.422047,17.54372 3.461519,0.8213 7.046326,0.78177 7.966233,-0.0879 0.919907,-0.86966 0.43049,-9.19908 -1.087601,-18.50988 -3.846654,-23.59254 -4.326316,-59.73095 -0.873744,-65.82961 3.442841,-6.08146 9.465048,-6.65907 11.712094,-1.12336 0.886918,2.18494 1.628898,20.55015 1.648848,40.81159 0.0393,39.91548 1.23204,48.14064 6.98098,48.14064 6.29066,0 9.1579,-12.24714 9.56258,-40.8455 0.42008,-29.68669 3.34767,-38.23856 11.02765,-32.21306 5.17795,4.0625 6.01144,41.22749 1.34598,60.01688 -2.86248,11.52813 -15.2802,25.59909 -22.5914,25.59909 -1.72531,0 -3.92465,1.94057 -4.88743,4.3124 -1.22527,3.01854 0.88142,6.38012 7.02161,11.20409 20.41377,16.03793 22.80889,22.61945 24.97128,68.61818 1.73847,36.98181 3.57614,43.03601 11.80005,38.87522 2.67284,-1.3523 7.24615,-2.45872 10.16294,-2.45872 6.75143,0 7.51793,-5.06915 5.12661,-33.90502 -1.03095,-12.43183 -3.01555,-39.92511 -4.41022,-61.09613 -1.39467,-21.17105 -3.26095,-39.17838 -4.14731,-40.01631 -0.88635,-0.8379 -3.02624,-0.1861 -4.75528,1.44845 -4.54826,4.29971 -15.36436,3.73985 -15.36436,-0.79532 0,-2.07197 1.14115,-3.76721 2.5359,-3.76721 1.39474,0 5.52466,-2.82543 9.17758,-6.27871 3.6529,-3.4533 8.78811,-6.31465 11.41155,-6.35858 2.62346,-0.044 7.08586,-1.73594 9.91643,-3.76002 4.65001,-3.32512 5.08649,-6.54903 4.52486,-33.4201 -0.65187,-31.18721 1.47529,-37.6361 11.24523,-34.09189 3.64475,1.32217 4.32924,6.14819 4.36981,30.80898 l 0.0481,29.24122 23.82843,11.00625 c 28.6827,13.24842 32.42872,16.5965 23.07634,20.62485 -5.75608,2.47934 -7.9266,1.97031 -15.79691,-3.70461 -5.01818,-3.6184 -10.03176,-6.57888 -11.14128,-6.57888 -1.10954,0 -1.28811,11.58422 -0.39684,25.7427 0.89129,14.15848 1.82452,44.39045 2.07391,67.18216 0.24946,22.79171 1.44094,43.34925 2.64797,45.6834 1.34159,2.59436 6.05525,4.54674 12.12709,5.02296 6.92732,0.54334 10.19827,2.10486 10.81089,5.161 0.64084,3.1969 -0.7902,4.3173 -5.29123,4.1429 -3.39329,-0.1316 -24.26285,0.6103 -46.37681,1.6483 l -40.20718,1.8876 -3.62776,7.7828 c -5.78403,12.4087 -11.55059,10.0861 -11.85483,-4.7746 -0.14133,-6.9067 -1.01,-16.51306 -1.93027,-21.34767 -0.92027,-4.8346 -2.22308,-23.74393 -2.89516,-42.02069 -1.24425,-33.83736 -4.67982,-47.13695 -12.17653,-47.13695 -3.94384,0 -8.884627,18.0107 -5.48557,19.99664 0.928,0.5422 1.97177,26.62967 2.31945,57.97215 0.63884,57.58952 -0.26602,63.93002 -9.123429,63.93002 -2.941713,0 -3.714688,-7.7603 -3.94001,-39.5559 z m 101.375081,-9.57936 c 2.69471,-3.06946 2.86056,-7.87475 0.75859,-21.97547 -1.47966,-9.92584 -2.95446,-41.78048 -3.27732,-70.78811 -0.67529,-60.67308 -1.42091,-63.02855 -17.63714,-55.71815 -5.22074,2.35353 -8.76853,5.38618 -7.88399,6.73917 2.35248,3.59835 6.41088,53.05763 8.13516,99.14184 0.83563,22.33379 2.74869,41.53813 4.3157,43.32308 3.84599,4.38087 11.41684,4.03007 15.589,-0.72236 z"
       id="path3028"
       inkscape:connector-curvature="0" />
  </g>
</svg>
