<?xml version="1.0" encoding="UTF-8" standalone="no"?>
<!-- Created with Inkscape (http://www.inkscape.org/) -->

<svg
   xmlns:dc="http://purl.org/dc/elements/1.1/"
   xmlns:cc="http://creativecommons.org/ns#"
   xmlns:rdf="http://www.w3.org/1999/02/22-rdf-syntax-ns#"
   xmlns:svg="http://www.w3.org/2000/svg"
   xmlns="http://www.w3.org/2000/svg"
   xmlns:sodipodi="http://sodipodi.sourceforge.net/DTD/sodipodi-0.dtd"
   xmlns:inkscape="http://www.inkscape.org/namespaces/inkscape"
   width="300"
   height="300"
   id="svg2"
   version="1.1"
   inkscape:version="0.48.4 r9939"
   sodipodi:docname="image-seal.svg">
  <defs
     id="defs4" />
  <sodipodi:namedview
     id="base"
     pagecolor="#ffffff"
     bordercolor="#666666"
     borderopacity="1.0"
     inkscape:pageopacity="0.0"
     inkscape:pageshadow="2"
     inkscape:zoom="1.979899"
     inkscape:cx="173.92428"
     inkscape:cy="155.81638"
     inkscape:document-units="px"
     inkscape:current-layer="layer1"
     showgrid="false"
     inkscape:window-width="1215"
     inkscape:window-height="1000"
     inkscape:window-x="65"
     inkscape:window-y="24"
     inkscape:window-maximized="1" />
  <metadata
     id="metadata7">
    <rdf:RDF>
      <cc:Work
         rdf:about="">
        <dc:format>image/svg+xml</dc:format>
        <dc:type
           rdf:resource="http://purl.org/dc/dcmitype/StillImage" />
        <dc:title />
      </cc:Work>
    </rdf:RDF>
  </metadata>
  <g
     inkscape:label="Calque 1"
     inkscape:groupmode="layer"
     id="layer1"
     transform="translate(0,-752.36218)">
    <path
       style="fill:#000000"
       d="m 139.35823,1046.2235 c -0.90492,-1.464 -1.45987,-13.2745 -1.23321,-26.2453 0.22665,-12.9708 0.31261,-35.86868 0.19098,-50.88406 -0.22083,-27.27688 -0.22617,-27.30068 -6.15285,-27.30068 -10.47026,0 -22.62822,13.97615 -29.60178,34.02864 -3.465013,9.96359 -7.29128,24.12865 -8.50282,31.4779 -1.21154,7.3492 -2.62827,15.5463 -3.14827,18.2157 -0.52,2.6694 -1.03645,6.2185 -1.14769,7.8869 -0.32426,4.8637 -9.22307,3.4921 -10.56205,-1.6281 -0.67043,-2.5638 -0.19171,-9.935 1.06371,-16.3804 1.25549,-6.4455 3.28002,-17.59089 4.49896,-24.76753 1.21895,-7.17665 5.77166,-20.12381 10.1171,-28.77145 7.83302,-15.58811 17.35259,-24.41769 34.11439,-31.64179 5.17308,-2.22953 6.6735,-4.52471 6.6735,-10.2084 0,-6.53498 -0.79446,-7.33221 -7.30664,-7.33221 -10.03296,0 -27.81918,-8.75828 -31.00327,-15.26659 -1.44242,-2.94833 -3.31959,-11.63976 -4.17152,-19.31428 -1.52605,-13.74771 -1.45747,-13.95369 4.64629,-13.95369 4.65451,0 6.50846,1.50877 7.45481,6.06682 0.69278,3.33675 1.81883,8.76665 2.50234,12.06647 1.99754,9.64372 10.7506,16.17429 20.56897,15.34626 l 8.52238,-0.71872 -0.50124,-18.92651 c -0.27567,-10.40957 0.4133,-21.32985 1.53107,-24.26728 2.01841,-5.3043 1.84851,-5.34077 -24.87653,-5.34077 l -26.90885,0 -5.563,-8.24573 C 75.66339,832.85628 75,828.91258 75,807.04832 c 0,-19.10585 0.83856,-25.52056 3.64009,-27.84564 2.88703,-2.396 4.38602,-2.40195 7.24565,-0.0286 2.76327,2.29331 3.57283,8.58683 3.46542,26.94025 -0.0772,13.17135 0.54893,25.06283 1.39112,26.42554 0.8422,1.36268 4.09884,2.47761 7.237007,2.47761 5.410813,0 5.795223,-1.07402 7.436443,-20.77665 0.95189,-11.42717 1.14862,-25.11624 0.43723,-30.42017 -1.36244,-10.15775 1.94279,-26.45847 5.36489,-26.45847 5.09263,0 7.878,8.23275 7.76506,22.95112 l -0.12182,15.87652 7.19023,0 c 5.78915,0 7.22279,-1.06395 7.3574,-5.46013 0.56271,-18.3763 3.83586,-25.43743 10.58995,-22.84563 2.91717,1.11942 3.80322,5.16031 3.80322,17.34499 0,15.31796 -0.28182,16.05739 -7.88687,20.69428 -4.33778,2.6448 -10.34393,4.81281 -13.347,4.81779 -4.93315,0.007 -5.46014,1.18019 -5.46014,12.14271 0,12.94795 -0.0798,12.88221 14.84512,12.20644 9.06227,-0.41031 13.05638,3.66376 10.39392,10.60201 -0.71645,1.86706 -0.13614,4.11554 1.28954,4.99668 1.55711,0.96235 2.59215,11.23464 2.59215,25.72611 0,23.48478 0.14464,24.11644 5.46014,23.83695 13.80301,-0.72584 30.92025,-9.27272 30.95432,-15.45593 0.0401,-7.27472 5.52959,-20.65788 8.47348,-20.65788 5.25918,0 8.03366,7.13448 6.02433,15.49138 -2.17282,9.03684 -5.14063,16.81288 -7.05416,18.48281 -0.76471,0.66735 -2.59361,3.39742 -4.06423,6.06682 -1.93634,3.51472 -7.61799,5.85751 -20.59826,8.49354 -20.13937,4.08992 -24.38947,9.15653 -12.65323,15.08416 25.28352,12.76995 36.04319,24.50689 46.23781,50.4375 1.31184,3.33675 3.50307,8.79689 4.8694,12.13364 8.23182,20.10343 10.66678,46.10803 4.31734,46.10803 -6.26411,0 -10.01052,-10.2399 -15.09389,-41.25458 -0.76565,-4.67145 -2.07007,-9.03956 -2.8987,-9.70691 -0.82863,-0.66735 -2.87164,-3.67042 -4.54002,-6.6735 -7.44622,-13.40321 -9.45899,-16.47338 -15.16705,-23.13502 -7.70141,-8.98799 -19.14312,-15.11397 -22.31141,-11.94569 -1.32732,1.32733 -2.43485,22.94326 -2.55932,49.95066 -0.19293,41.88994 -0.72421,48.06764 -4.4205,51.41264 -2.87873,2.6053 -4.71899,2.964 -5.8464,1.1398 z m 33.1685,-191.88679 c -2.92108,-2.72139 -5.31104,-6.3757 -5.31104,-8.12071 0,-1.74499 -1.81323,-6.80743 -4.02942,-11.24985 -5.51163,-11.04836 -10.32058,-35.20944 -7.79952,-39.18632 1.12624,-1.77658 2.06441,-5.21918 2.08487,-7.65026 0.0194,-2.43104 1.40219,-5.75908 3.07056,-7.39564 5.41714,-5.31379 31.76743,-12.09712 47.68873,-12.27651 23.86191,-0.26883 21.50139,6.20015 -4.61431,12.64537 -7.17702,1.77127 -8.36032,3.00674 -7.63397,7.97061 1.43519,9.80811 10.1701,24.65934 21.29691,36.20938 11.49529,11.93251 12.51719,14.83303 6.87551,19.51521 -3.15912,2.62184 -5.47638,1.27233 -15.16705,-8.83278 -10.74604,-11.20563 -17.89052,-23.17423 -24.8298,-41.59548 -5.21586,-13.84623 -16.94251,-7.92557 -16.94251,8.55407 0,6.17756 3.43001,16.52646 9.7933,29.54801 7.67331,15.70229 9.18497,20.77357 6.98305,23.42674 -3.72677,4.49046 -5.18167,4.29227 -11.46531,-1.56184 z"
       id="path3028"
       inkscape:connector-curvature="0" />
  </g>
</svg>
