<?xml version="1.0" encoding="UTF-8" standalone="no"?>
<svg
   xmlns:dc="http://purl.org/dc/elements/1.1/"
   xmlns:cc="http://creativecommons.org/ns#"
   xmlns:rdf="http://www.w3.org/1999/02/22-rdf-syntax-ns#"
   xmlns:svg="http://www.w3.org/2000/svg"
   xmlns="http://www.w3.org/2000/svg"
   viewBox="0 0 300 300"
   height="300"
   width="300"
   id="svg150"
   version="1.1">
  <metadata
     id="metadata156">
    <rdf:RDF>
      <cc:Work
         rdf:about="">
        <dc:format>image/svg+xml</dc:format>
        <dc:type
           rdf:resource="http://purl.org/dc/dcmitype/StillImage" />
        <dc:title></dc:title>
      </cc:Work>
    </rdf:RDF>
  </metadata>
  <defs
     id="defs154" />
  <path
     id="path160"
     d="m 148.76654,280.12466 c -2.06325,-7.35337 -1.73924,-15.68877 -1.67769,-38.48913 l 0.0972,-35.99462 c -12.82126,0.29437 -22.63628,11.68012 -23.36169,28.61799 l -0.8913,20.81115 c -0.34843,8.13563 -0.48711,15.187 -6.09817,14.88534 -4.31898,-0.23219 -4.21079,-10.09104 -4.25683,-14.27183 l 0.24642,-20.945 c 0.25657,-21.80739 15.05242,-40.86004 34.52793,-41.25223 l 0.1421,-10.39254 c -15.49244,-0.57227 -27.50785,-7.95906 -32.54244,-20.01738 -2.87498,-6.88586 -3.70101,-12.51849 -1.86145,-14.11941 5.28946,-4.60327 7.27413,-0.0843 9.22437,4.42939 5.91269,13.68447 15.33278,18.14714 25.54368,18.47319 l 0.15639,-19.53994 c -0.2602,-3.33363 -0.0957,-20.67223 5.02096,-18.03349 5.98133,3.08468 5.37938,9.70913 5.58484,23.62243 l 0.20842,14.11397 c 11.76894,-0.54262 19.02382,-8.93584 23.26484,-16.37851 7.89832,-13.86092 14.47614,-3.26783 10.37642,5.49193 -6.98424,14.92305 -22.0116,21.38245 -33.72092,22.11113 v 9.92217 c 20.86276,0.79382 35.66678,18.7781 37.02323,38.92138 0.67048,9.95658 0.9211,17.94263 0.80147,30.09953 -0.66204,4.73771 -0.87789,6.31126 -2.50785,7.06941 -7.9398,3.6931 -7.86643,-2.71739 -7.88019,-7.8298 0,0 -0.0618,-19.42796 -0.9406,-27.39642 -1.90496,-17.27286 -14.19067,-28.28422 -25.80637,-28.91734 l -0.0844,20.50127 c -0.16613,40.34886 -0.50015,54.10182 -1.36469,56.18899 -0.72804,1.75767 -3.18866,3.09839 -4.63065,3.18629 -2.8759,0.17533 -4.00277,-2.79418 -4.59298,-4.86792 z m -43.10773,-157.26692 -14.772406,3.66818 c -12.45155,3.09188 -15.754308,4.49725 -18.149505,0.86013 -4.52402,-6.86975 11.413131,-10.70035 16.927367,-12.24624 l 16.247724,-4.4517 0.0209,-18.086326 -18.118428,4.159483 c -8.305642,2.22807 -11.773846,1.49947 -13.5281,-3.55555 -2.044213,-5.89056 11.57357,-8.098279 15.185083,-8.977964 l 16.463835,-4.277081 0.24257,-15.5041 -14.328991,3.161677 c -8.717591,1.923527 -13.407988,2.448943 -15.503293,0.23739 -7.059498,-7.451158 9.094719,-10.71258 14.880934,-12.116673 l 14.84449,-3.60439 0.24307,-15.405262 c 0.0501,-3.178393 -0.33908,-23.026459 5.46931,-21.651119 6.98645,1.65429 6.50722,10.093476 6.57282,14.446916 l 0.35137,20.200911 12.73301,-2.72985 c 9.28363,-1.990332 12.60731,-2.63492 15.5647,2.875229 2.03579,3.793032 -8.641,6.926427 -13.33587,8.485953 l -15.16281,4.13832 -0.14973,14.529956 14.45953,-3.671746 c 4.59155,-1.165944 20.542,-5.224396 17.26226,4.369147 -0.92916,2.717863 -7.28943,4.145091 -18.917,7.819924 l -12.75942,4.032545 -0.0455,18.04318 14.62612,-3.96329 c 5.44983,-1.47676 18.4832,-4.313903 18.86545,3.7099 0.13144,2.7592 -17.92334,7.71826 -33.79089,13.21277 v 10.90682 c 0,10.6605 0.32125,11.40842 -1.6929,12.59972 -9.93968,5.87895 -10.20913,-8.03377 -10.70567,-21.21686 z m 86.81364,16.96022 c -2.16892,-2.51654 -0.41757,-5.48011 6.03923,-19.98622 10.18822,-22.889283 13.58333,-27.824782 -11.70334,-34.433648 -2.5636,11.180715 -5.591,23.304658 -11.60955,32.942808 -2.89781,4.64057 -9.49844,9.177 -13.68266,8.80477 -3.8697,-0.34426 -3.39931,-5.09207 -0.75498,-9.19479 7.83547,-12.15688 12.90535,-23.844493 14.67105,-35.22807 -9.59762,-4.256146 -14.6473,-10.173157 -13.77316,-21.627647 0.7314,-9.583851 9.11912,-13.478473 17.6265,-15.679884 9.25584,-2.395086 37.70643,-4.525973 43.20026,-3.31557 2.74023,0.603729 5.37495,2.450734 5.57271,5.572997 0.3069,4.845408 -24.42362,5.895625 -28.7624,6.347317 -12.7719,1.329625 -21.97021,3.090644 -24.3433,6.351798 -7.55729,10.385408 13.64885,13.718881 17.48201,14.708698 24.47206,6.369645 29.43019,19.142078 21.09814,40.685131 -3.99911,10.18133 -8.25369,17.89617 -12.06777,21.88248 -2.17994,2.29708 -6.42648,5.14739 -8.99274,2.16983 z"
     style="fill:#000000;stroke-width:0.68969804" />
</svg>
