<?xml version="1.0" encoding="UTF-8" standalone="no"?>
<!-- Created with Inkscape (http://www.inkscape.org/) -->

<svg
   xmlns:dc="http://purl.org/dc/elements/1.1/"
   xmlns:cc="http://creativecommons.org/ns#"
   xmlns:rdf="http://www.w3.org/1999/02/22-rdf-syntax-ns#"
   xmlns:svg="http://www.w3.org/2000/svg"
   xmlns="http://www.w3.org/2000/svg"
   xmlns:sodipodi="http://sodipodi.sourceforge.net/DTD/sodipodi-0.dtd"
   xmlns:inkscape="http://www.inkscape.org/namespaces/inkscape"
   width="300"
   height="300"
   viewBox="0 0 300.00001 300.00001"
   id="svg2"
   version="1.1"
   inkscape:version="0.91 r13725"
   sodipodi:docname="цаб-seal.svg">
  <defs
     id="defs4" />
  <sodipodi:namedview
     id="base"
     pagecolor="#ffffff"
     bordercolor="#666666"
     borderopacity="1.0"
     inkscape:pageopacity="0.0"
     inkscape:pageshadow="2"
     inkscape:zoom="1.33"
     inkscape:cx="137.94865"
     inkscape:cy="133.29041"
     inkscape:document-units="px"
     inkscape:current-layer="layer1"
     showgrid="false"
     units="px"
     inkscape:window-width="990"
     inkscape:window-height="650"
     inkscape:window-x="146"
     inkscape:window-y="22"
     inkscape:window-maximized="0" />
  <metadata
     id="metadata7">
    <rdf:RDF>
      <cc:Work
         rdf:about="">
        <dc:format>image/svg+xml</dc:format>
        <dc:type
           rdf:resource="http://purl.org/dc/dcmitype/StillImage" />
        <dc:title></dc:title>
      </cc:Work>
    </rdf:RDF>
  </metadata>
  <g
     inkscape:label="Layer 1"
     inkscape:groupmode="layer"
     id="layer1"
     transform="translate(0,-752.36208)">
    <path
       style="fill:#000000"
       d="m 207.3541,1024.1431 c 3.01894,-33.00484 3.26576,-54.64953 0.76628,-67.19149 -2.4596,-12.34215 -5.20223,-16.23035 -15.23558,-21.60012 -5.54943,-2.96988 -6.98274,-2.61115 -12.24613,3.06523 -11.48445,12.3854 -10.96951,10.02786 -18.9631,86.81528 -1.16854,11.2243 -2.42053,14.0041 -6.30785,14.0041 -4.42929,0 -4.75778,-2.2556 -3.78754,-26.0071 0.58432,-14.30492 1.77108,-29.00928 2.63737,-32.67706 0.86619,-3.66775 2.08793,-11.47006 2.71503,-17.33856 1.05568,-9.881 3.33017,-16.87392 9.31515,-28.63896 3.61275,-7.10164 3.10415,-8.38458 -7.91477,-19.96788 -12.04083,-12.65759 -15.92836,-27.67381 -9.64657,-37.26124 2.16846,-3.30949 8.72809,-8.74997 14.57711,-12.08996 l 10.63426,-6.07294 0.0198,-22.00658 c 0.0109,-12.10367 -0.99377,-22.00653 -2.2335,-22.00653 -1.23978,0 -4.42668,2.40067 -7.08209,5.33492 -2.65542,2.93428 -5.89251,5.33482 -7.19354,5.33482 -1.30117,0 -5.00451,2.4585 -8.22979,5.46345 -3.86686,3.6025 -7.9171,4.94788 -11.89194,3.95023 -4.69949,-1.17936 -6.02797,-0.37811 -6.02797,3.63577 0,4.99401 -13.90478,18.96017 -18.87698,18.96017 -5.57089,0 -2.12166,14.18365 5.09134,20.93647 4.15476,3.8896 8.46241,10.67294 9.57272,15.07422 2.33351,9.25051 2.22315,113.12146 -0.13389,126.03756 -1.16934,6.4092 -2.99156,8.6697 -6.98822,8.6697 -5.10464,0 -5.28875,-1.0059 -3.2983,-18.0056 2.38643,-20.38147 2.36426,-18.12977 0.58352,-59.35111 -0.72883,-16.87173 -1.46687,-36.37753 -1.64,-43.34626 -0.31199,-12.55298 -4.01423,-16.9964 -6.66755,-8.00234 -0.75741,2.56735 -2.17322,32.27627 -3.14603,66.0196 -1.71176,59.37471 -3.06136,68.02011 -10.617291,68.02011 -2.778502,0 -3.196017,-13.8303 -2.125125,-70.39679 0.832662,-43.98259 0.364316,-70.99545 -1.248206,-71.99212 -7.597465,-4.69554 -10.710778,14.82118 -13.438506,84.24299 -1.022787,26.03072 -2.951184,45.74972 -4.638787,47.43492 -4.97993,4.9722 -12.3849,0.1355 -10.6114,-6.9301 0.862528,-3.4372 2.224379,-26.38065 3.026349,-50.98706 1.449915,-44.48755 4.529303,-69.27389 9.859572,-79.36072 4.095204,-7.74967 9.01233,-12.05864 13.760553,-12.05864 2.905386,0 4.191734,-2.52687 4.191734,-8.23414 0,-6.6537 -1.498474,-8.79965 -7.807097,-11.18085 -10.763519,-4.06283 -13.002166,-10.59635 -13.555303,-39.56161 -0.625552,-32.75741 -0.699796,-32.24751 4.549192,-31.23667 3.805146,0.73286 4.657002,4.89503 5.345515,26.11864 0.577035,17.78763 1.979324,26.40734 4.746131,29.17413 2.159894,2.15991 4.764502,3.08974 5.787969,2.0663 1.023496,-1.02362 2.308777,-18.95383 2.856203,-39.84506 0.547403,-20.89139 1.976407,-38.96528 3.175547,-40.16439 1.19916,-1.19907 3.90564,-0.45485 6.01436,1.65389 3.05541,3.05533 3.64477,11.16949 2.90136,39.94688 -0.95771,37.07951 0.66232,43.63036 8.78225,35.5105 2.89072,-2.89065 4.15114,-9.93584 4.31635,-24.12631 0.22291,-19.14888 4.53591,-32.06554 9.16199,-27.43928 1.11865,1.11855 1.87831,10.4194 1.6883,20.66859 -0.19008,10.24927 0.41905,18.63493 1.35363,18.63493 2.90077,0 19.33038,-11.89068 19.34954,-14.0041 0.01,-1.10034 1.33341,-2.00059 2.94082,-2.00059 1.60738,0 6.40887,-2.48246 10.66986,-5.51658 5.76357,-4.10399 7.75107,-7.68975 7.76209,-14.00419 0.0255,-14.84705 5.13758,-28.91855 10.15858,-27.96501 3.53771,0.67192 4.78232,4.77609 5.83142,19.228 0.91329,12.58336 2.59469,19.03116 5.33486,20.45955 2.20076,1.14718 10.00306,4.81481 17.33858,8.15012 7.3355,3.33545 16.24635,8.74819 19.80192,12.02835 5.44269,5.02137 5.91812,6.62222 3.00756,10.12919 -4.49842,5.42038 -8.60294,5.2626 -14.97107,-0.57538 -8.39465,-7.69582 -20.73829,-15.76345 -27.17749,-17.76264 -5.85617,-1.8182 -6.00187,-1.37784 -6.00187,18.13172 0,21.40018 1.33798,24.1403 16.02395,32.81548 16.86639,9.96316 18.76492,36.14998 3.75662,51.81517 l -7.32163,7.64216 7.17509,5.6438 c 12.41192,9.76325 15.21311,21.0241 14.83882,59.65272 -0.36465,37.6338 -3.56121,52.9084 -11.38633,54.4094 -4.57386,0.8767 -4.78655,-0.5359 -3.00858,-19.9731 z m -12.01409,-115.67 c 7.79198,-7.27878 8.48178,-9.15007 7.11881,-19.31186 -2.67326,-19.93046 -21.63147,-27.19542 -37.60798,-14.41153 -13.72134,10.97939 -8.60871,29.64166 10.42182,38.04199 10.73894,4.74029 10.25931,4.84355 20.06735,-4.3186 z"
       id="path3488"
       inkscape:connector-curvature="0" />
  </g>
</svg>
