<?xml version="1.0" encoding="UTF-8" standalone="no"?>
<!-- Created with Inkscape (http://www.inkscape.org/) -->

<svg
   xmlns:dc="http://purl.org/dc/elements/1.1/"
   xmlns:cc="http://creativecommons.org/ns#"
   xmlns:rdf="http://www.w3.org/1999/02/22-rdf-syntax-ns#"
   xmlns:svg="http://www.w3.org/2000/svg"
   xmlns="http://www.w3.org/2000/svg"
   xmlns:sodipodi="http://sodipodi.sourceforge.net/DTD/sodipodi-0.dtd"
   xmlns:inkscape="http://www.inkscape.org/namespaces/inkscape"
   width="300"
   height="300"
   id="svg2"
   version="1.1"
   inkscape:version="0.48.4 r9939"
   sodipodi:docname="image-seal.svg">
  <defs
     id="defs4" />
  <sodipodi:namedview
     id="base"
     pagecolor="#ffffff"
     bordercolor="#666666"
     borderopacity="1.0"
     inkscape:pageopacity="0.0"
     inkscape:pageshadow="2"
     inkscape:zoom="2.0018437"
     inkscape:cx="232.32812"
     inkscape:cy="141.91078"
     inkscape:document-units="px"
     inkscape:current-layer="layer1"
     showgrid="false"
     inkscape:window-width="1215"
     inkscape:window-height="1000"
     inkscape:window-x="65"
     inkscape:window-y="24"
     inkscape:window-maximized="1"
     fit-margin-top="10"
     fit-margin-left="10"
     fit-margin-right="10"
     fit-margin-bottom="10" />
  <metadata
     id="metadata7">
    <rdf:RDF>
      <cc:Work
         rdf:about="">
        <dc:format>image/svg+xml</dc:format>
        <dc:type
           rdf:resource="http://purl.org/dc/dcmitype/StillImage" />
        <dc:title />
      </cc:Work>
    </rdf:RDF>
  </metadata>
  <g
     inkscape:label="Calque 1"
     inkscape:groupmode="layer"
     id="layer1"
     transform="translate(0,-752.36218)">
    <path
       style="fill:#000000"
       d="m 87.43586,1004.6833 c 0.83595,-22.95677 2.15613,-59.65552 2.93372,-81.55277 l 1.41378,-39.81317 -6.52785,7.70578 c -5.2811,6.23407 -6.5937,10.64915 -6.87278,23.11732 -0.42135,18.82452 -1.21916,32.95686 -1.95757,34.67599 -0.30341,0.70636 -0.93435,15.91078 -1.40212,33.78759 -0.89135,34.06406 -1.78263,38.13296 -8.35296,38.13296 -3.57687,0 -3.82864,-5.7552 -2.26994,-51.88319 1.98537,-58.7541 3.03417,-70.0287 7.35958,-79.11497 3.64234,-7.65135 14.63316,-17.97259 19.14325,-17.97701 4.26494,-0.005 4.26494,-19.0925 0,-22.45178 -1.7659,-1.39089 -6.26883,-3.258 -10.00646,-4.14909 -6.3631,-1.51702 -6.99574,-3.02925 -9.9376,-23.75385 -4.28552,-30.19023 -0.18725,-49.00103 9.30691,-42.7181 1.94922,1.28992 2.21913,7.12977 0.85529,18.50547 -1.13416,9.45987 -0.97787,18.51703 0.36279,21.02202 1.29549,2.42067 2.35545,6.66529 2.35545,9.43246 0,6.04151 7.72033,9.67728 10.67183,5.02571 1.15085,-1.81376 2.17326,-14.27847 2.27202,-27.69936 0.34378,-46.71678 1.13562,-50.84969 9.15307,-47.77311 4.47184,1.71603 4.40015,10.41695 -0.52753,64.01452 l -1.37515,14.95712 7.23387,-0.82986 c 6.72589,-0.77158 7.45146,-2.00237 10.33173,-17.52571 1.70379,-9.18272 3.15179,-21.60828 3.21772,-27.61236 0.083,-7.56117 1.21967,-10.91652 3.69798,-10.91652 5.34002,0 6.31285,4.8867 5.15578,25.89798 -1.86334,33.83588 -2.21166,34.70381 -16.52391,41.17214 -11.51689,5.20497 -12.75868,6.58248 -12.75868,14.15317 0,6.54064 1.64837,9.3607 7.48757,12.81001 4.11815,2.43266 8.2403,7.41044 9.16035,11.06172 0.92001,3.6513 2.26408,35.3085 2.98681,70.34933 1.29249,62.66696 0.46486,71.14046 -6.94843,71.14046 -1.15291,0 -2.45622,-29.76355 -2.89622,-66.14123 -0.59403,-49.11289 -1.68021,-67.68579 -4.21886,-72.14057 -1.88036,-3.29962 -3.77819,-5.61135 -4.21739,-5.13719 -1.53183,1.65387 -3.75433,39.77205 -5.36679,92.04716 -1.74069,56.43143 -3.99324,71.92053 -10.45931,71.92053 -3.51907,0 -3.81718,-5.0176 -2.47995,-41.7396 z m 85.94773,24.4017 c -0.49099,-16.8061 -0.42248,-36.92187 0.20343,-59.71981 0.8492,-30.93014 0.57819,-33.3936 -3.50145,-31.82812 -8.62793,3.31086 -12.76035,19.5346 -14.53913,57.08002 -1.72252,36.35821 -4.64818,47.60241 -10.13225,38.94141 -2.94681,-4.6538 -0.85036,-54.26804 3.2009,-75.75198 3.39725,-18.01564 11.1834,-31.58787 19.34564,-33.72188 4.56035,-1.19232 5.77933,-3.34847 5.77933,-10.22264 0,-7.17896 -0.96343,-8.71161 -5.47616,-8.71161 -8.42622,0 -22.05668,-9.61789 -23.87011,-16.84315 -0.89453,-3.56416 -0.86654,-12.2086 0.0622,-19.20991 1.6353,-12.32752 2.02308,-12.81594 12.27561,-15.46138 5.82285,-1.50248 12.60973,-3.31878 15.082,-4.03626 2.72425,-0.79062 4.49504,-3.81762 4.49504,-7.68394 0,-4.77759 -2.10925,-7.26077 -8.40007,-9.88924 -13.58828,-5.67756 -17.29307,-11.67712 -18.49853,-29.95684 -1.14377,-17.34416 0.89343,-24.17099 6.64119,-22.25508 2.37228,0.79077 3.47089,5.97391 3.5078,16.54952 0.0557,15.98886 4.30748,24.02275 12.71325,24.02275 3.4248,0 4.03636,-4.28099 4.03636,-28.25451 0,-28.05169 0.0439,-28.25451 6.11774,-28.25451 5.8344,0 6.12057,0.80302 6.17831,17.338 0.1441,41.24642 -0.28519,39.17102 8.10108,39.17102 4.1548,0 8.22672,-1.08818 9.04869,-2.41815 0.82198,-1.32999 2.88992,-11.1884 4.59542,-21.90757 2.39007,-15.02177 3.99585,-19.3194 7.00501,-18.74776 5.49625,1.0441 6.57919,26.27453 1.6356,38.10618 -3.70599,8.86966 -7.35958,11.58222 -24.05956,17.86266 -6.03265,2.26871 -8.34792,4.75092 -8.34792,8.94972 0,6.36327 5.66192,8.88363 20.09006,8.94294 15.28337,0.0629 22.95024,12.71026 18.4822,30.48867 -3.48558,13.86906 -8.98281,20.91825 -16.31282,20.91825 -2.85938,0 -9.03749,1.38807 -13.72915,3.0846 -6.895,2.49325 -8.53029,4.4629 -8.53029,10.27436 0,5.33209 1.25146,7.18977 4.84356,7.18977 8.46626,0 19.0175,7.14932 22.39052,15.17139 2.07738,4.94058 3.55578,23.69639 4.06827,51.61167 0.67384,36.70471 0.18057,44.23691 -3.02637,46.22021 -2.10727,1.3032 -4.60639,1.5507 -5.55355,0.55 -0.9472,-1.0008 -2.37233,-16.8458 -3.16695,-35.2112 -2.04419,-47.2449 -3.58247,-56.37038 -10.6163,-62.97832 -3.29468,-3.09518 -7.12792,-4.9245 -8.51837,-4.06518 -1.39043,0.85935 -2.28695,8.78256 -1.99228,17.60711 0.29467,8.82457 -0.4119,18.78598 -1.57018,22.13646 -1.16509,3.37014 -1.07321,7.38662 0.20575,8.99007 2.47563,3.10396 1.74273,44.60606 -0.9368,53.04856 -0.8858,2.791 -3.26647,5.0745 -5.29037,5.0745 -2.62752,0 -3.78174,-3.489 -4.03626,-12.2008 z m -0.1572,-137.29129 c 1.69527,-1.69527 3.08231,-9.2084 3.08231,-16.69584 l 0,-13.61354 -9.96274,0 c -8.63361,0 -10.38582,1.02138 -13.13393,7.65592 -4.0659,9.81595 -1.44833,20.18469 5.83553,23.11555 7.91707,3.1857 10.6191,3.09765 14.17883,-0.46209 z m 36.91778,-1.67708 c 0.95043,-0.91414 2.07252,-7.44142 2.49354,-14.50504 l 0.76549,-12.84296 -13.41005,-0.77639 -13.41008,-0.77638 0,17.05586 0,17.05586 10.91651,-1.77443 c 6.00409,-0.97594 11.69416,-2.52239 12.64459,-3.43652 z"
       id="path3158"
       inkscape:connector-curvature="0" />
  </g>
</svg>
