<?xml version="1.0" encoding="UTF-8" standalone="no"?>
<!-- Created with Inkscape (http://www.inkscape.org/) -->

<svg
   xmlns:dc="http://purl.org/dc/elements/1.1/"
   xmlns:cc="http://creativecommons.org/ns#"
   xmlns:rdf="http://www.w3.org/1999/02/22-rdf-syntax-ns#"
   xmlns:svg="http://www.w3.org/2000/svg"
   xmlns="http://www.w3.org/2000/svg"
   xmlns:sodipodi="http://sodipodi.sourceforge.net/DTD/sodipodi-0.dtd"
   xmlns:inkscape="http://www.inkscape.org/namespaces/inkscape"
   width="300"
   height="300"
   id="svg2"
   version="1.1"
   inkscape:version="0.48.4 r9939"
   sodipodi:docname="image-seal.svg">
  <defs
     id="defs4" />
  <sodipodi:namedview
     id="base"
     pagecolor="#ffffff"
     bordercolor="#666666"
     borderopacity="1.0"
     inkscape:pageopacity="0.0"
     inkscape:pageshadow="2"
     inkscape:zoom="1.979899"
     inkscape:cx="118.51252"
     inkscape:cy="130.59117"
     inkscape:document-units="px"
     inkscape:current-layer="layer1"
     showgrid="false"
     inkscape:window-width="1215"
     inkscape:window-height="1000"
     inkscape:window-x="65"
     inkscape:window-y="24"
     inkscape:window-maximized="1" />
  <metadata
     id="metadata7">
    <rdf:RDF>
      <cc:Work
         rdf:about="">
        <dc:format>image/svg+xml</dc:format>
        <dc:type
           rdf:resource="http://purl.org/dc/dcmitype/StillImage" />
        <dc:title />
      </cc:Work>
    </rdf:RDF>
  </metadata>
  <g
     inkscape:label="Calque 1"
     inkscape:groupmode="layer"
     id="layer1"
     transform="translate(0,-752.36218)">
    <path
       style="fill:#000000"
       d="m 175.28219,1046.5609 c -0.93495,-0.9351 -1.81432,-19.0074 -1.9541,-40.161 -0.13973,-21.15358 -1.0004,-41.10868 -1.91242,-44.34468 l -1.65826,-5.88365 -5.74921,5.35661 c -9.8221,9.15137 -13.37505,21.70232 -13.37505,47.24772 0,18.553 -0.81467,23.9525 -3.78598,25.0926 -7.05745,2.7082 -9.42894,-7.5017 -7.49236,-32.2571 1.00545,-12.85279 3.41578,-27.16855 5.35629,-31.81285 3.94852,-9.45014 15.07063,-21.81036 21.85894,-24.29222 6.54123,-2.39155 5.58963,-9.44063 -1.27496,-9.44435 -9.07211,-0.005 -19.11348,-10.39866 -21.04539,-21.78389 -0.94134,-5.54773 -2.26242,-12.09483 -2.93569,-14.54911 -0.92514,-3.37242 0.30822,-4.46232 5.04964,-4.46232 6.91399,0 9.36931,4.12658 9.36931,15.74669 0,5.49833 1.42797,8.05329 5.027,8.99447 8.40027,2.19671 8.95263,1.39686 10.27241,-14.87488 0.89478,-11.03223 2.56901,-16.53037 5.61496,-18.43983 6.4882,-4.06726 8.13402,-0.59761 8.27849,17.45271 0.20476,25.5807 6.45138,27.58813 16.01078,5.14529 6.80028,-15.96521 12.35275,-16.95437 11.70352,-2.08498 -0.58503,13.39831 -7.10215,23.75915 -14.9449,23.75915 -3.24466,0 -7.73954,1.84017 -9.98863,4.08928 -3.75244,3.75241 -3.18982,4.66584 6.83009,11.0887 15.3217,9.82139 19.64722,15.47927 23.77738,31.10132 3.56651,13.49013 5.85289,51.88032 3.24508,54.48812 -0.74179,0.7418 -3.07623,0.6858 -5.18765,-0.1244 -3.83783,-1.4727 -9.64049,-28.1245 -9.64049,-44.27891 0,-13.74245 -9.76919,-30.86508 -17.60983,-30.86508 -3.59118,0 -3.9883,4.98543 -3.3762,42.3852 0.47464,28.99959 -0.22719,43.49469 -2.22188,45.89819 -3.2091,3.8667 -5.65018,4.4039 -8.24087,1.8132 z m -71.52897,-9.685 c -2.26497,-3.4567 -4.118122,-7.9789 -4.118122,-10.0491 0,-2.0702 -0.928906,-4.3382 -2.06425,-5.0399 -1.135333,-0.7017 -3.648791,-8.8689 -5.585456,-18.1494 -1.936665,-9.28053 -4.450121,-17.44779 -5.585459,-18.14948 -3.595896,-2.22239 -2.102615,-62.41224 2.016935,-81.2967 10.220906,-46.85377 11.872582,-62.88317 8.801921,-85.42172 -2.41961,-17.75985 -4.35046,-23.4243 -10.691378,-31.36488 -7.102372,-8.8941 -8.317999,-17.08326 -2.535902,-17.08326 3.602789,0 17.319661,16.51206 22.119491,26.62696 3.52549,7.4294 4.02127,14.178 2.86442,38.98943 -0.76947,16.50271 -2.55093,35.74221 -3.9588,42.75444 -1.40788,7.01223 -4.28176,21.35543 -6.386408,31.87378 -4.479901,22.38907 -5.049751,41.50796 -1.689923,56.69872 1.322738,5.98052 3.777811,17.109 5.455711,24.72995 1.67791,7.62096 5.83932,19.94736 9.24758,27.39196 6.27287,13.7018 6.0981,23.7742 -0.41249,23.7742 -1.84787,0 -5.21291,-2.8282 -7.47787,-6.285 z m -34.454337,-18.8451 c -3.019519,-4.2405 -5.362413,-11.4709 -5.362413,-16.5489 0,-4.95989 -1.147456,-9.72716 -2.549903,-10.59392 -3.580069,-2.2126 -3.005179,-56.07594 0.750012,-70.27105 4.264343,-16.11979 10.519516,-25.03322 14.723544,-20.98064 2.576019,2.48322 2.31781,5.75806 -1.306828,16.57437 -6.262043,18.68659 -7.884779,47.41448 -3.910629,69.23142 1.822951,10.00747 4.190912,19.35652 5.262139,20.77562 3.296649,4.3672 3.774929,17.2246 0.68126,18.314 -1.608621,0.5664 -5.337853,-2.359 -8.287182,-6.5009 z m 52.124027,-8.6561 c -8.38574,-26.69534 -12.26859,-50.97436 -10.54416,-65.93147 0.87208,-7.56411 2.25555,-23.79314 3.07439,-36.06454 1.66825,-25.001 5.32185,-28.78113 12.7296,-13.17042 4.09929,8.6386 4.08427,10.4306 -0.27313,32.59205 -4.08882,20.79548 -4.23505,25.75149 -1.2914,43.76925 5.9371,36.34023 6.13464,41.99263 1.46759,41.99263 -2.2889,0 -4.6122,-1.4344 -5.16289,-3.1875 z M 66.853236,881.68424 c -1.869957,-2.25317 -2.028551,-5.87209 -0.474916,-10.83708 8.903463,-28.45319 8.705597,-45.97392 -0.733097,-64.91492 -6.435231,-12.91382 -6.810819,-17.76147 -1.376128,-17.76147 3.713623,0 7.745279,4.82118 14.695934,17.57384 5.077849,9.31659 6.087593,14.74504 6.006883,32.29354 -0.09795,21.29227 -3.776599,37.78403 -9.76363,43.77106 -4.074798,4.0748 -4.879536,4.06277 -8.355046,-0.12495 z m 92.928924,-1.35397 c -0.74334,-1.20276 -0.23739,-6.07188 1.12446,-10.82025 4.67063,-16.28547 3.49579,-20.1416 -6.13642,-20.1416 -9.59788,0 -17.58974,-6.61318 -12.09543,-10.00885 1.75352,-1.08374 6.06548,-1.42043 9.58213,-0.74817 10.60581,2.02743 18.77546,-4.0547 18.77546,-13.97795 0,-5.20544 -1.47805,-9.14099 -3.7622,-10.01749 -3.85724,-1.48017 -11.53721,-14.74099 -11.53721,-19.92104 0,-1.59057 3.1555,-6.56465 7.01222,-11.05351 5.14413,-5.98728 11.061,-9.18835 22.20991,-12.01573 19.84999,-5.03397 25.07354,-4.8633 32.33049,1.05624 7.43725,6.0666 5.5071,6.89649 -20.41732,8.7787 -18.78151,1.36359 -28.38579,5.89097 -28.38579,13.38077 0,5.90843 10.20713,13.05813 20.6399,14.45743 12.22734,1.64004 17.60863,5.64281 17.60863,13.09785 0,7.88023 4.78114,11.67234 14.71658,11.67234 7.28972,0 18.49214,6.24445 15.54833,8.66694 -0.51757,0.4259 -7.24052,1.80558 -14.93985,3.06594 l -13.9988,2.29157 -3.80953,15.81017 c -3.12695,12.97726 -4.89882,16.08358 -9.88868,17.33593 -3.34353,0.83917 -6.55434,1.05057 -7.13516,0.46975 -1.18058,-1.18058 3.61732,-22.76989 7.07228,-31.82339 3.68889,-9.66655 2.54292,-19.84785 -2.77579,-24.66123 -4.83592,-4.37642 -5.09465,-4.32341 -7.40436,1.51722 -1.31631,3.3287 -4.44392,15.65569 -6.95019,27.39335 -4.23396,19.8289 -8.39711,28.38188 -13.81481,28.38188 -1.21952,0 -2.82549,-0.98408 -3.56885,-2.18687 z M 121.1798,850.00589 c 2.89755,-16.26529 1.5878,-43.88445 -2.45151,-51.69559 -4.89183,-9.45978 -4.80176,-10.13953 1.3435,-10.13953 9.51524,0 15.24173,14.07596 15.2524,37.49108 0.0107,23.32543 -3.38405,33.90618 -10.87834,33.90618 -4.34541,0 -4.75556,-1.20083 -3.26605,-9.56214 z"
       id="path3223"
       inkscape:connector-curvature="0" />
  </g>
</svg>
