<?xml version="1.0" encoding="UTF-8" standalone="no"?>
<!-- Created with Inkscape (http://www.inkscape.org/) -->

<svg
   xmlns:dc="http://purl.org/dc/elements/1.1/"
   xmlns:cc="http://creativecommons.org/ns#"
   xmlns:rdf="http://www.w3.org/1999/02/22-rdf-syntax-ns#"
   xmlns:svg="http://www.w3.org/2000/svg"
   xmlns="http://www.w3.org/2000/svg"
   xmlns:sodipodi="http://sodipodi.sourceforge.net/DTD/sodipodi-0.dtd"
   xmlns:inkscape="http://www.inkscape.org/namespaces/inkscape"
   width="300"
   height="300"
   id="svg2"
   version="1.1"
   inkscape:version="0.92.4 (5da689c313, 2019-01-14)"
   sodipodi:docname="image-bigseal.svg">
  <defs
     id="defs4" />
  <sodipodi:namedview
     id="base"
     pagecolor="#ffffff"
     bordercolor="#666666"
     borderopacity="1.0"
     inkscape:pageopacity="0.0"
     inkscape:pageshadow="2"
     inkscape:zoom="1.979899"
     inkscape:cx="216.03327"
     inkscape:cy="173.92429"
     inkscape:document-units="px"
     inkscape:current-layer="layer1"
     showgrid="false"
     inkscape:window-width="1872"
     inkscape:window-height="1016"
     inkscape:window-x="48"
     inkscape:window-y="27"
     inkscape:window-maximized="1" />
  <metadata
     id="metadata7">
    <rdf:RDF>
      <cc:Work
         rdf:about="">
        <dc:format>image/svg+xml</dc:format>
        <dc:type
           rdf:resource="http://purl.org/dc/dcmitype/StillImage" />
        <dc:title />
      </cc:Work>
    </rdf:RDF>
  </metadata>
  <g
     inkscape:label="Calque 1"
     inkscape:groupmode="layer"
     id="layer1"
     transform="translate(0,-752.36218)">
    <path
       style="fill:#000000;stroke-width:6.21859121"
       d="m 136.81263,1020.7288 c 2.90331,-13.8481 5.37016,-71.31204 5.48187,-127.69769 0.16661,-84.09615 1.85832,-103.59145 9.41375,-108.48504 12.05289,-7.80659 86.00469,-7.93677 86.00469,-0.1517 0,3.30383 -18.63238,6.84453 -41.40529,7.86822 -33.68494,1.51422 -41.78749,3.91516 -43.45515,12.87674 -1.81525,9.75477 3.62677,11.01551 47.54882,11.01551 28.97007,0 49.59868,2.61797 49.59868,6.29457 0,3.63688 -19.45452,6.29457 -46.07644,6.29457 H 157.8471 l -0.0959,67.66668 c -0.0528,37.21667 -3.86635,84.08449 -8.47459,104.15074 -9.43354,41.0775 -20.6543,59.2331 -12.46392,20.1671 z m 88.61327,-22.44484 c 0,-47.54206 -6.30996,-59.98203 -33.02976,-65.11796 -32.60313,-6.26675 -36.65995,-37.53366 -5.89634,-45.44468 21.694,-5.5787 17.42984,-29.92725 -5.71864,-32.65355 -27.82178,-3.27671 -12.37133,-13.73439 20.29157,-13.73439 25.84407,0 31.74389,2.39326 40.79674,16.54932 10.2501,16.02831 10.13645,16.92013 -3.61073,28.32559 -8.53034,7.0773 -23.90783,11.77627 -38.53803,11.77627 -19.16825,0 -23.92165,2.16942 -22.35761,10.20382 1.09249,5.61211 11.59033,13.40165 23.32851,17.31007 12.06597,4.01758 24.7102,13.94595 29.09115,22.8427 9.20639,18.69595 10.61393,88.12405 1.78666,88.12405 -3.42047,0 -6.14352,-16.9234 -6.14352,-38.18124 z m 9.21529,-128.62499 c 0,-8.26308 -4.75011,-13.28036 -13.82293,-14.60058 -11.33899,-1.65 -13.82293,0.9737 -13.82293,14.60058 0,13.62688 2.48394,16.25058 13.82293,14.60058 9.07282,-1.32022 13.82293,-6.33751 13.82293,-14.60058 z M 84.124801,956.52409 c 0,-84.15349 -9.958354,-91.44965 -18.529418,-13.57595 l -5.096798,46.30774 1.132319,-52.49039 c 0.899369,-41.69205 3.329563,-54.13655 11.813102,-60.49238 14.150048,-10.60113 13.516681,-23.8023 -1.606255,-33.47894 -9.619102,-6.1549 -12.181739,-14.34263 -11.802038,-37.7079 0.522384,-32.14626 2.457453,-30.7021 8.505545,6.34789 5.74846,35.21449 15.583543,28.49679 15.583543,-10.644 0,-18.83676 2.764589,-35.9993 6.143522,-38.13895 3.840997,-2.43222 6.143539,10.60044 6.143539,34.77324 0,46.06898 13.311908,50.07271 18.794748,5.65272 2.57384,-20.85235 4.68382,-25.02421 8.40943,-16.62712 7.58455,17.09481 -1.24857,50.47323 -16.49496,62.33082 l -13.622625,10.59471 14.655555,15.98369 c 11.98664,13.07289 15.19604,24.61261 17.62344,63.36647 1.88293,30.06163 0.67217,47.38285 -3.31209,47.38285 -3.51015,0 -7.30178,-20.73256 -8.59673,-47.00668 -1.27422,-25.85364 -5.72326,-50.4969 -9.88676,-54.76279 -5.997658,-6.14509 -7.570008,8.19453 -7.570008,69.03769 0,46.99959 -2.38356,76.79379 -6.143539,76.79379 -3.745628,0 -6.143522,-28.7452 -6.143522,-73.64651 z"
       id="path167"
       inkscape:connector-curvature="0" />
  </g>
</svg>
