<?xml version="1.0" encoding="UTF-8" standalone="no"?>
<!-- Created with Inkscape (http://www.inkscape.org/) -->

<svg
   xmlns:dc="http://purl.org/dc/elements/1.1/"
   xmlns:cc="http://creativecommons.org/ns#"
   xmlns:rdf="http://www.w3.org/1999/02/22-rdf-syntax-ns#"
   xmlns:svg="http://www.w3.org/2000/svg"
   xmlns="http://www.w3.org/2000/svg"
   xmlns:sodipodi="http://sodipodi.sourceforge.net/DTD/sodipodi-0.dtd"
   xmlns:inkscape="http://www.inkscape.org/namespaces/inkscape"
   width="300"
   height="300"
   id="svg2"
   version="1.1"
   inkscape:version="0.48.4 r9939"
   sodipodi:docname="image-seal.svg">
  <defs
     id="defs4" />
  <sodipodi:namedview
     id="base"
     pagecolor="#ffffff"
     bordercolor="#666666"
     borderopacity="1.0"
     inkscape:pageopacity="0.0"
     inkscape:pageshadow="2"
     inkscape:zoom="1.979899"
     inkscape:cx="146.08979"
     inkscape:cy="147.63167"
     inkscape:document-units="px"
     inkscape:current-layer="layer1"
     showgrid="false"
     inkscape:window-width="1215"
     inkscape:window-height="1000"
     inkscape:window-x="65"
     inkscape:window-y="24"
     inkscape:window-maximized="1" />
  <metadata
     id="metadata7">
    <rdf:RDF>
      <cc:Work
         rdf:about="">
        <dc:format>image/svg+xml</dc:format>
        <dc:type
           rdf:resource="http://purl.org/dc/dcmitype/StillImage" />
        <dc:title />
      </cc:Work>
    </rdf:RDF>
  </metadata>
  <g
     inkscape:label="Calque 1"
     inkscape:groupmode="layer"
     id="layer1"
     transform="translate(0,-752.36218)">
    <path
       style="fill:#000000"
       d="m 70.734318,1038.0877 c 0,-1.4548 2.78941,-6.3021 6.19869,-10.7719 3.409279,-4.4698 6.198689,-10.499 6.198689,-13.3982 0,-2.8992 2.66504,-11.1621 5.922328,-18.36198 3.257262,-7.19991 6.581694,-16.43804 7.387573,-20.52918 0.805903,-4.09113 2.197212,-10.78572 3.091807,-14.87685 0.894595,-4.09113 2.038605,-23.89594 2.542205,-44.0107 l 0.91567,-36.57226 -20.941105,0 c -11.517611,0 -21.552546,-0.98934 -22.29986,-2.19853 -3.971674,-6.4263 7.885601,-7.5507 83.921255,-7.95807 63.44828,-0.33994 79.24898,0.22439 80.89588,2.88908 3.54418,5.73461 0.0751,7.26752 -16.44637,7.26752 -11.55123,0 -16.42544,0.98335 -17.39476,3.5094 -1.66311,4.334 2.49267,43.07026 7.4379,69.32914 3.53978,18.79604 13.82774,48.42703 24.37799,70.21253 6.43181,13.2812 4.82714,18.9888 -4.17477,14.8491 -4.02213,-1.8496 -9.03201,-8.4277 -13.56407,-17.8098 -6.80792,-14.0935 -14.294,-37.63454 -13.17018,-41.41556 0.28509,-0.95919 -1.59775,-6.68066 -4.18409,-12.71436 -2.87706,-6.71187 -4.7667,-17.10353 -4.86791,-26.77001 -0.0909,-8.68979 -1.23287,-19.44648 -2.53749,-23.90379 -2.9149,-9.95878 -2.69192,-8.06272 -2.69192,-22.88927 l 0,-12.39738 -29.60737,0 c -16.28406,0 -30.09801,0.83682 -30.69765,1.85961 -0.59965,1.02278 -1.88991,16.92242 -2.86721,35.33253 -1.60071,30.15273 -2.38759,39.67378 -4.61086,55.78819 -0.99767,7.23128 -6.70428,26.58239 -9.31277,31.57964 -1.236064,2.368 -2.247367,6.1213 -2.247367,8.3406 0,7.9876 -10.648259,23.0759 -18.124621,25.6822 -9.129828,3.1826 -9.149614,3.1825 -9.149614,-0.062 z m 66.694632,-33.9274 c -0.13811,-18.75105 -0.0525,-37.71904 0.18992,-42.1511 0.24274,-4.43207 -0.25913,-8.0583 -1.11504,-8.0583 -4.36661,0 -8.74162,19.04257 -8.74162,38.04865 0,14.41885 -1.02652,21.70355 -3.32749,23.61315 -5.53245,4.5915 -6.59041,0.5773 -6.59041,-25.00605 0,-26.54408 2.63306,-34.9954 13.58757,-43.61222 8.65548,-6.80839 8.23581,-15.74796 -0.92972,-19.80503 -5.63987,-2.49643 -7.42118,-5.14985 -8.31299,-12.38278 -1.34656,-10.92095 1.8765,-21.17604 6.20816,-19.75314 1.69626,0.5572 3.43759,5.38986 3.86966,10.7393 1.43562,17.77499 5.41313,15.37322 5.41313,-3.26864 0,-9.73824 0.89011,-18.25601 1.978,-18.92837 4.99857,-3.0893 8.54923,3.8865 9.77952,19.21329 0.91904,11.44928 2.32893,16.42918 4.6513,16.42918 3.25171,0 5.04494,-4.81691 6.45204,-17.33099 0.3988,-3.54654 2.54047,-6.52527 5.03323,-7.00038 3.65662,-0.69693 4.33909,1.09188 4.33909,11.37281 0,13.73245 -5.81493,22.87646 -14.54783,22.87646 -3.39764,0 -5.27442,1.55112 -5.25001,4.33909 0.0506,5.78375 2.36309,8.62704 10.37055,12.75112 3.89293,2.00498 8.36117,7.6236 10.68862,13.44047 5.45827,13.64155 7.93808,49.90188 3.75723,54.93938 -4.60548,5.5493 -7.49804,4.6382 -7.49804,-2.3616 0,-10.3941 -5.34534,-41.97961 -7.77059,-45.91632 -1.2602,-2.04557 -2.94689,-5.67181 -3.74821,-8.0583 -0.80132,-2.38649 -2.44257,-4.33908 -3.64723,-4.33908 -2.28759,0 -2.78708,8.86381 -2.20669,39.15888 0.19042,9.94582 -0.41426,24.17182 -1.34401,31.61332 -1.37478,11.0033 -2.56317,13.53 -6.3637,13.53 -4.33929,0 -4.69123,-2.4366 -4.92449,-34.0928 z m 5.21017,-152.20782 c -14.31898,-1.16243 -27.37086,-2.61987 -29.00422,-3.23872 -5.63312,-2.13432 -10.12226,-15.07035 -11.40278,-32.85845 -0.70638,-9.81255 -1.88661,-18.8155 -2.622719,-20.00658 -0.736107,-1.19106 -7.228912,-2.43434 -14.428442,-2.76284 -7.19953,-0.32851 -13.49715,-1.00442 -13.994731,-1.502 -0.497581,-0.49758 -0.169845,-3.22029 0.728519,-6.05049 1.35548,-4.27073 3.666153,-5.14581 13.587578,-5.14581 11.631716,0 11.997018,-0.22736 13.535631,-8.42902 2.063664,-11.00022 7.631804,-15.98099 10.852074,-9.70728 1.27016,2.47454 3.04289,7.56754 3.93937,11.31775 l 1.62995,6.81855 32.26379,0 c 28.55493,0 32.4205,-0.4988 33.62739,-4.33907 0.74999,-2.38651 2.42748,-6.98732 3.72772,-10.22408 2.28142,-5.67914 2.53451,-5.73073 7.23672,-1.47531 2.67993,2.42532 4.87262,7.02615 4.87262,10.22406 0,5.30485 1.05987,5.8144 12.09376,5.8144 12.00329,0 19.76455,4.50665 16.59459,9.63576 -0.82075,1.32801 -7.6114,3.1791 -15.09032,4.11353 l -13.59803,1.69897 0,21.89132 c 0,34.56081 -5.77586,38.18477 -54.54847,34.22531 z m 22.31528,-11.74357 c 2.50967,-0.65899 -16.23414,-15.17932 -19.60177,-15.18493 -1.91684,-0.002 -7.49565,3.06252 -12.39738,6.81273 l -8.9122,6.81856 13.63712,1.23975 c 12.15134,1.10465 23.75427,1.23819 27.27423,0.31389 z m 17.35633,-26.99062 c 0,-10.87853 -0.6612,-13.32547 -2.97537,-11.01131 -1.63646,1.63645 -4.47252,2.97537 -6.30236,2.97537 -1.82985,0 -5.72226,2.23154 -8.64983,4.95895 -5.27145,4.91113 -5.27615,5.00243 -0.48714,9.46407 6.62754,6.17446 14.20024,10.20428 16.50214,8.78163 1.05191,-0.65012 1.91256,-7.47605 1.91256,-15.16871 z m -50.22047,6.35643 c 3.12265,-3.76841 -2.33996,-11.82696 -11.24921,-16.59503 -5.07722,-2.71726 -5.47617,-2.39429 -5.47617,4.4335 0,4.05032 1.10523,10.27117 2.45605,13.82412 2.0124,5.29298 3.28091,6.01842 7.02246,4.016 2.51157,-1.34415 5.77264,-3.89952 7.24687,-5.67859 z m 24.52863,-17.08361 c 4.60151,-2.84392 7.81716,-6.05945 7.14583,-7.14566 -1.43909,-2.32848 -20.32025,-3.00048 -27.02214,-0.96176 -4.23451,1.28814 -4.03089,1.95443 2.24526,7.34738 8.33117,7.15875 7.34639,7.1163 17.63105,0.76004 z"
       id="path3275"
       inkscape:connector-curvature="0" />
  </g>
</svg>
