<?xml version="1.0" encoding="UTF-8" standalone="no"?>
<!-- Created with Inkscape (http://www.inkscape.org/) -->

<svg
   xmlns:dc="http://purl.org/dc/elements/1.1/"
   xmlns:cc="http://creativecommons.org/ns#"
   xmlns:rdf="http://www.w3.org/1999/02/22-rdf-syntax-ns#"
   xmlns:svg="http://www.w3.org/2000/svg"
   xmlns="http://www.w3.org/2000/svg"
   xmlns:sodipodi="http://sodipodi.sourceforge.net/DTD/sodipodi-0.dtd"
   xmlns:inkscape="http://www.inkscape.org/namespaces/inkscape"
   width="300"
   height="300"
   id="svg2"
   version="1.1"
   inkscape:version="0.48.4 r9939"
   sodipodi:docname="image-seal.svg">
  <defs
     id="defs4" />
  <sodipodi:namedview
     id="base"
     pagecolor="#ffffff"
     bordercolor="#666666"
     borderopacity="1.0"
     inkscape:pageopacity="0.0"
     inkscape:pageshadow="2"
     inkscape:zoom="2.0018437"
     inkscape:cx="145.03351"
     inkscape:cy="130.6666"
     inkscape:document-units="px"
     inkscape:current-layer="layer1"
     showgrid="false"
     inkscape:window-width="1215"
     inkscape:window-height="1000"
     inkscape:window-x="65"
     inkscape:window-y="24"
     inkscape:window-maximized="1"
     fit-margin-top="10"
     fit-margin-left="10"
     fit-margin-right="10"
     fit-margin-bottom="10" />
  <metadata
     id="metadata7">
    <rdf:RDF>
      <cc:Work
         rdf:about="">
        <dc:format>image/svg+xml</dc:format>
        <dc:type
           rdf:resource="http://purl.org/dc/dcmitype/StillImage" />
        <dc:title />
      </cc:Work>
    </rdf:RDF>
  </metadata>
  <g
     inkscape:label="Calque 1"
     inkscape:groupmode="layer"
     id="layer1"
     transform="translate(0,-752.36218)">
    <path
       style="fill:#000000"
       d="m 158.4741,1045.4901 c -1.89053,-5.5752 0.65847,-65.84928 3.77881,-89.35313 1.8793,-14.15589 4.51593,-23.75897 7.09486,-25.84072 2.25726,-1.8221 10.14459,-3.31291 17.52741,-3.31291 12.13989,0 13.71387,0.69682 16.46255,7.28841 1.67159,4.00862 3.75958,18.02225 4.63994,31.14138 5.1462,76.68797 5.13438,75.97747 1.30282,78.40337 -2.04192,1.2928 -4.40766,2.3689 -5.25717,2.3912 -3.34572,0.088 -6.94978,-31.4041 -7.51594,-65.6739 -0.66624,-40.32735 -2.39131,-46.31935 -12.98296,-45.09572 -6.49095,0.74988 -7.26697,2.09084 -8.911,15.39823 -0.99048,8.01725 -2.63896,31.97998 -3.66334,53.25049 -1.59388,33.0963 -2.54914,39.1026 -6.62371,41.6472 -3.58555,2.2392 -5.03064,2.179 -5.85227,-0.2439 z m -68.509441,-25.0826 c -0.17253,-12.7547 -0.28329,-23.78672 -0.24595,-24.51556 0.0374,-0.72884 0.80843,-24.27351 1.71355,-52.32148 0.90509,-28.04795 2.28972,-52.67477 3.07695,-54.72629 2.13956,-5.57555 -2.64421,-7.20155 -8.7027,-2.95803 -6.93918,4.86039 -11.05543,30.43942 -12.58449,78.20183 -1.28978,40.28913 -2.85027,48.34703 -9.12689,47.12923 -3.63697,-0.7057 -4.25975,-4.8897 -4.06272,-27.29426 0.31361,-35.66177 3.59062,-78.12312 6.59323,-85.43066 8.12607,-19.77677 15.67883,-29.81622 22.43097,-29.81622 2.33369,0 3.87224,-2.55874 3.87224,-6.43991 0,-4.98898 -2.70358,-7.79012 -11.99988,-12.43291 l -11.9999,-5.99304 0.73599,-34.61046 c 0.6932,-32.59822 1.04416,-34.61043 6.03664,-34.61043 4.98071,0 5.30617,1.79727 5.39178,29.77483 0.0604,19.72583 1.17849,30.8622 3.31291,32.99661 7.05287,7.05288 9.50878,-2.49647 10.6834,-41.5407 1.07975,-35.88985 1.50017,-38.45789 6.296001,-38.45789 4.83963,0 5.11304,1.96827 4.69387,33.79172 -0.56704,43.05187 -0.33689,48.37747 2.08859,48.32796 6.92751,-0.14153 8.99575,-6.56678 11.74756,-36.49558 2.76043,-30.02255 3.27769,-31.96435 7.86142,-29.5112 4.28847,2.29511 4.90658,6.07048 4.90658,29.9692 0,24.09657 -0.7198,28.41258 -6.06218,36.34881 -3.3342,4.95302 -9.29744,10.56138 -13.25166,12.46305 -8.19023,3.93879 -9.66135,12.99367 -2.55139,15.70406 2.55094,0.97246 7.36323,4.28646 10.69395,7.36444 5.51619,5.0976 6.24254,8.88895 8.15027,42.54176 3.44933,60.84736 1.29578,87.08062 -7.01243,85.42152 -3.95005,-0.7888 -4.5604,-4.70566 -4.67356,-29.99237 -0.29957,-66.92043 -1.1741,-82.37514 -4.95379,-87.54419 -2.06734,-2.82726 -4.46178,-4.4375 -5.32096,-3.57829 -0.85919,0.85919 -1.99326,34.25147 -2.52012,74.20508 -0.97008,73.56127 -2.748,87.21977 -11.353361,87.21977 -2.67214,0 -3.62767,-5.7349 -3.86392,-23.1904 z m 51.200211,-51.54894 c -2.00673,-2.00672 -3.17674,-12.03181 -3.17049,-27.16589 0.0132,-30.35254 4.9148,-40.42695 20.29473,-41.70682 9.04208,-0.75243 10.16272,-1.70165 11.85524,-10.04166 1.02804,-5.06589 1.22199,-10.25789 0.43095,-11.53779 -0.79102,-1.27992 -9.03509,-1.51355 -18.32015,-0.5192 -13.73616,1.47102 -17.68513,1.00466 -21.19247,-2.50265 -2.37083,-2.37083 -3.69854,-4.92259 -2.95053,-5.67062 0.74803,-0.74801 21.4632,-1.88015 46.03373,-2.51586 24.57052,-0.6357 48.25163,-1.45771 52.62467,-1.82666 5.57749,-0.47059 7.951,0.50812 7.951,3.27862 0,4.81173 -10.30401,7.24391 -32.46656,7.66343 l -16.56456,0.31359 0,10.32094 c 0,8.93194 0.80254,10.32296 5.96324,10.33576 17.30337,0.0429 35.77112,4.16365 38.54148,8.59967 1.632,2.61327 3.30515,17.42619 3.7181,32.91758 0.60242,22.59977 -0.0238,28.64552 -3.1738,30.59171 -2.15851,1.33404 -4.70874,1.58071 -5.66715,0.54814 -0.95841,-1.03257 -2.20245,-14.08383 -2.76453,-29.00281 -0.57295,-15.2072 -2.33545,-28.4389 -4.01138,-30.11483 -1.70798,-1.70798 -15.53198,-3.45439 -32.25008,-4.07422 -35.4443,-1.31406 -34.42851,-2.35442 -36.6898,37.57713 -0.86316,15.24205 -2.34379,27.71284 -3.29031,27.71284 -0.94651,0 -3.15211,-1.43118 -4.90133,-3.1804 z m 40.55006,-113.91461 c -27.84361,-14.31661 -47.1364,-38.89986 -37.079,-47.24676 2.17242,-1.80297 3.94986,-5.19764 3.94986,-7.54371 0,-5.53803 28.84904,-32.19 34.84359,-32.19 7.60748,0 8.97378,5.89021 2.41495,10.41111 -27.00835,18.61651 -37.39781,34.88387 -28.17169,44.10999 6.80528,6.80528 11.94509,4.07968 32.84327,-17.41646 20.0506,-20.62432 28.26249,-25.19678 31.25352,-17.40229 0.91789,2.39201 -7.16503,12.30801 -21.8115,26.75798 l -23.26986,22.95762 6.48894,4.98705 c 12.17724,9.35882 24.04576,6.23856 43.43071,-11.41797 12.23355,-11.14282 16.7776,-0.0567 5.48003,13.36956 -5.83475,6.93422 -26.99144,19.27316 -32.4542,18.92784 -1.10916,-0.0702 -9.17253,-3.80688 -17.91862,-8.30396 z"
       id="path3054"
       inkscape:connector-curvature="0" />
  </g>
</svg>
