<?xml version="1.0" encoding="UTF-8" standalone="no"?>
<!-- Created with Inkscape (http://www.inkscape.org/) -->

<svg
   xmlns:dc="http://purl.org/dc/elements/1.1/"
   xmlns:cc="http://creativecommons.org/ns#"
   xmlns:rdf="http://www.w3.org/1999/02/22-rdf-syntax-ns#"
   xmlns:svg="http://www.w3.org/2000/svg"
   xmlns="http://www.w3.org/2000/svg"
   xmlns:sodipodi="http://sodipodi.sourceforge.net/DTD/sodipodi-0.dtd"
   xmlns:inkscape="http://www.inkscape.org/namespaces/inkscape"
   width="300"
   height="300"
   id="svg2"
   version="1.1"
   inkscape:version="0.48.4 r9939"
   sodipodi:docname="dessin.svg">
  <defs
     id="defs4" />
  <sodipodi:namedview
     id="base"
     pagecolor="#ffffff"
     bordercolor="#666666"
     borderopacity="1.0"
     inkscape:pageopacity="0.0"
     inkscape:pageshadow="2"
     inkscape:zoom="1.979899"
     inkscape:cx="156.32962"
     inkscape:cy="101.52144"
     inkscape:document-units="px"
     inkscape:current-layer="layer1"
     showgrid="false"
     inkscape:window-width="1215"
     inkscape:window-height="1000"
     inkscape:window-x="65"
     inkscape:window-y="24"
     inkscape:window-maximized="1" />
  <metadata
     id="metadata7">
    <rdf:RDF>
      <cc:Work
         rdf:about="">
        <dc:format>image/svg+xml</dc:format>
        <dc:type
           rdf:resource="http://purl.org/dc/dcmitype/StillImage" />
        <dc:title />
      </cc:Work>
    </rdf:RDF>
  </metadata>
  <g
     inkscape:label="Calque 1"
     inkscape:groupmode="layer"
     id="layer1"
     transform="translate(0,-752.36218)">
    <path
       style="fill:#000000"
       d="m 220.19671,1038.3606 c -3.25966,-11.5423 -9.13495,-56.40418 -9.09092,-69.41581 0.0134,-4.27178 -1.50602,-9.6286 -3.37886,-11.90404 -3.04728,-3.70231 -4.5504,-3.75734 -14.30156,-0.52352 -5.99305,1.9875 -12.96936,3.63084 -15.5029,3.65186 -8.05606,0.0668 -8.26946,-4.95169 -0.32467,-7.63629 23.76487,-8.03037 28.08605,-12.05376 28.08605,-26.15065 0,-12.87937 -3.53275,-15.45961 -17.76045,-12.97172 -5.52359,0.96584 -9.60243,0.42406 -10.83819,-1.43971 -3.19416,-4.81728 2.7995,-8.2199 16.1162,-9.14914 9.96239,-0.69517 13.50142,0.21761 17.89829,4.61669 3.01431,3.01577 5.48059,6.98168 5.48059,8.81312 0,1.83145 1.15072,3.32992 2.55718,3.32992 3.62026,0 6.5723,-21.10909 4.43623,-31.72213 -1.933,-9.60406 -2.27473,-9.75596 -20.61396,-9.16256 -13.27103,0.42938 -20.87686,-2.57761 -17.89495,-7.07483 1.11403,-1.68013 10.45836,-2.823 23.08171,-2.823 28.18604,0 30.57939,2.35471 30.51413,30.02196 -0.0487,20.64381 -4.31736,35.1376 -12.97482,44.05437 -2.72451,2.80616 -3.78443,7.03885 -2.88447,11.51901 10.87013,54.11407 12.75932,92.65117 4.61287,94.09677 -2.84865,0.5054 -5.11033,-2.669 -7.2175,-10.1303 z m -83.76176,-1.6539 c -0.80723,-1.2174 -1.30471,-42.90815 -1.10547,-92.64603 0.32507,-81.15051 0.84976,-91.17969 5.11176,-97.71212 2.8766,-4.40899 7.94746,-7.87575 12.85923,-8.7914 11.88263,-2.21514 17.04103,-18.20948 11.76403,-36.47603 l -2.84809,-9.85872 -15.65329,0.0666 c -12.76442,0.0544 -15.82872,-0.75353 -16.60359,-4.37695 -0.83127,-3.88714 1.37687,-4.4386 17.63725,-4.4046 10.22311,0.0203 20.0431,0.9016 21.82218,1.95602 5.14794,3.05107 8.29821,13.40701 8.63788,28.3956 0.41325,18.2336 -3.84721,26.53239 -16.23694,31.62756 -11.79379,4.85006 -13.22586,7.56414 -15.09915,28.61603 l -1.39969,15.72985 14.51775,0.77446 c 19.42835,1.03642 19.92743,7.05012 0.89725,10.81098 l -13.62055,2.69177 0,17.75754 0,17.75756 12.25849,0.71617 c 17.54609,1.02507 20.47061,2.2673 16.31787,6.93125 -1.90385,2.13825 -7.88028,3.77866 -13.76656,3.77866 -5.72117,0 -11.3305,1.40013 -12.4652,3.11145 -1.13468,1.7113 -1.67415,15.70823 -1.19876,31.1043 1.15685,37.46648 1.15704,37.41388 -0.15631,43.22758 -2.2386,9.9096 -8.12618,14.5573 -11.67011,9.2125 z m -52.011443,-6.0386 c -1.988978,-7.5586 -2.020398,-11.4652 -0.623619,-77.53168 0.724023,-34.24567 0.175629,-57.17185 -1.389158,-58.07323 -1.422,-0.81919 -4.91552,0.68244 -7.763377,3.33688 -4.694251,4.37551 -5.275663,9.91872 -6.22429,59.34283 -1.033451,53.8434 -3.554309,70.06 -10.53891,67.7963 -1.863606,-0.604 -3.078031,-3.839 -2.698721,-7.189 0.379312,-3.3499 1.449191,-32.37075 2.377511,-64.49068 0.928321,-32.11994 2.807427,-60.40135 4.175788,-62.84756 1.368359,-2.44622 6.734188,-6.10136 11.924063,-8.12259 7.829177,-3.04911 9.436131,-4.98844 9.436131,-11.3878 0,-6.30138 -1.620215,-8.34415 -8.853354,-11.16232 -12.89325,-5.02346 -15.525544,-9.2811 -16.095836,-26.03443 -1.077905,-31.66523 0.204854,-44.21893 4.518371,-44.21893 3.343225,0 4.086164,4.35281 4.086164,23.94033 0,24.54741 2.876425,31.92044 12.453073,31.92044 4.338183,0 4.252195,0.70364 5.208264,-42.61844 0.378608,-17.15581 1.433468,-31.88686 2.344129,-32.73569 0.910659,-0.84882 3.521763,-0.0998 5.802454,1.66445 3.519361,2.72249 3.877439,8.7314 2.366866,39.71829 l -1.779841,36.51051 7.300775,0 c 10.03306,0 12.61415,-7.60535 12.61415,-37.16879 0,-21.62398 0.49731,-24.05393 4.76719,-23.29261 4.07154,0.72596 4.88373,4.36563 5.56582,24.94266 0.43926,13.25098 0.16616,26.45285 -0.60685,29.33747 -2.01505,7.51958 -9.83651,14.75994 -19.06555,17.64913 -5.308946,1.66199 -8.656574,4.86577 -10.007933,9.57786 -1.856558,6.47371 -1.147435,7.40992 8.274033,10.92366 17.41428,6.49465 18.95713,12.6968 20.86537,83.87649 1.25031,46.63855 0.96191,51.24405 -3.30459,52.77015 -2.57093,0.9195 -5.63694,0.7747 -6.81338,-0.3218 -2.70517,-2.5215 -3.67774,-76.64617 -1.08275,-82.52223 1.06072,-2.40186 0.48342,-12.35293 -1.28286,-22.1135 -2.46968,-13.64775 -4.41159,-18.10157 -8.40791,-19.28384 -10.419064,-3.08231 -10.996716,0.0253 -9.336981,50.21277 0.881085,26.64311 2.008774,49.11033 2.505976,49.92717 0.497201,0.81684 0.03926,3.70447 -1.017646,6.41701 -1.056908,2.71252 -1.024511,9.50472 0.07199,15.09382 3.126524,15.9366 -5.894669,30.8635 -9.764562,16.1569 z M 189.3392,831.98148 c 0,-2.25283 2.50384,-3.8145 6.12925,-3.82287 23.01722,-0.0531 34.83277,-10.97585 29.17088,-26.96659 -2.99097,-8.44732 -3.25877,-8.567 -19.16677,-8.567 -13.10269,0 -16.13336,-0.7782 -16.13336,-4.14261 0,-3.56932 2.81363,-3.9743 20.33212,-2.92638 11.18266,0.66894 22.2153,2.67303 24.51698,4.4535 5.28698,4.08986 5.72645,30.14928 0.61827,36.66076 -6.23464,7.94738 -45.46737,12.53027 -45.46737,5.31119 z"
       id="path3065"
       inkscape:connector-curvature="0" />
  </g>
</svg>
