<?xml version="1.0" encoding="utf-8"?>
<!-- Generator: Adobe Illustrator 19.0.0, SVG Export Plug-In . SVG Version: 6.00 Build 0)  -->
<svg version="1.1" id="Layer_1" xmlns="http://www.w3.org/2000/svg" xmlns:xlink="http://www.w3.org/1999/xlink" x="0px" y="0px"
	 viewBox="0 0 270 270" style="enable-background:new 0 0 270 270;" xml:space="preserve">
<style type="text/css">
	.st0{fill:none;stroke:#000000;stroke-width:6;stroke-linecap:round;stroke-linejoin:round;stroke-miterlimit:10;}
	.st1{display:none;fill:none;stroke:#000000;stroke-width:6;stroke-linecap:round;stroke-linejoin:round;stroke-miterlimit:10;}
</style>
<g id="XMLID_2_">
	<path id="XMLID_41_" class="st0" d="M91.7,15.4c0,79.7,0,159.4,0,239.1"/>
	<path id="XMLID_40_" class="st0" d="M121.5,222c-0.9-26.3,0.3-52.9-3.6-78.7c-2-13.1-10.2-32.1-28.6-26.1
		C79,120.5,67.4,135,65.5,146.1c-4.3,24.8-2.9,50.5-3.8,75.9"/>
	<path id="XMLID_4_" class="st0" d="M116.4,37c0.1,12.1,13.3,58-24.8,58c-33.1,0-23.4-46.8-24.3-58"/>
	<path id="XMLID_39_" class="st0" d="M132.4,145.9c12.5-9.9,25-19.7,39-30.7c4.6,6.4,12.2,15.4,17.9,25.4
		c13.9,24.4,12.9,48.3-5.3,70.6c-11.8,14.5-23.6,29-35.3,43.5"/>
	<path id="XMLID_3_" class="st1" d="M145.4,61.6c-4.1,38.9,53.4,37.1,49.5,0"/>
	<path id="XMLID_6_" class="st1" d="M145.4,60.7c-0.2-37.3,53.4-36.9,49.5,0"/>
	<path id="XMLID_36_" class="st0" d="M194.9,164.9c-19,15.4-38,30.8-57.1,46.2"/>
	<path id="XMLID_35_" class="st0" d="M184,137.7c-15.4,11.8-30.8,23.5-46.2,35.3"/>
	<path id="XMLID_34_" class="st0" d="M208.2,110.6c-14.5-0.9-72.2,0.9-86.7,0"/>
	<path id="XMLID_33_" class="st0" d="M194.9,61.6c-12.7,0-36.9,0-49.5,0"/>
	<path id="XMLID_5_" class="st0" d="M197.2,62.4c0,16.3-12.5,29.6-25.1,29.6c-12.6,0-26.7-14-26.7-30.3s14.1-28.8,26.7-28.8
		C184.7,32.8,197.2,46.1,197.2,62.4z"/>
</g>
</svg>
