<?xml version="1.0" encoding="UTF-8" standalone="no"?>
<!-- Created with Inkscape (http://www.inkscape.org/) -->

<svg
   xmlns:dc="http://purl.org/dc/elements/1.1/"
   xmlns:cc="http://creativecommons.org/ns#"
   xmlns:rdf="http://www.w3.org/1999/02/22-rdf-syntax-ns#"
   xmlns:svg="http://www.w3.org/2000/svg"
   xmlns="http://www.w3.org/2000/svg"
   xmlns:sodipodi="http://sodipodi.sourceforge.net/DTD/sodipodi-0.dtd"
   xmlns:inkscape="http://www.inkscape.org/namespaces/inkscape"
   width="300"
   height="300"
   id="svg2"
   version="1.1"
   inkscape:version="0.48.4 r9939"
   sodipodi:docname="dessin.svg">
  <defs
     id="defs4" />
  <sodipodi:namedview
     id="base"
     pagecolor="#ffffff"
     bordercolor="#666666"
     borderopacity="1.0"
     inkscape:pageopacity="0.0"
     inkscape:pageshadow="2"
     inkscape:zoom="1.979899"
     inkscape:cx="218.29155"
     inkscape:cy="144.09165"
     inkscape:document-units="px"
     inkscape:current-layer="layer1"
     showgrid="false"
     inkscape:window-width="1215"
     inkscape:window-height="1000"
     inkscape:window-x="65"
     inkscape:window-y="24"
     inkscape:window-maximized="1" />
  <metadata
     id="metadata7">
    <rdf:RDF>
      <cc:Work
         rdf:about="">
        <dc:format>image/svg+xml</dc:format>
        <dc:type
           rdf:resource="http://purl.org/dc/dcmitype/StillImage" />
        <dc:title />
      </cc:Work>
    </rdf:RDF>
  </metadata>
  <g
     inkscape:label="Calque 1"
     inkscape:groupmode="layer"
     id="layer1"
     transform="translate(0,-752.36218)">
    <path
       style="fill:#000000"
       d="m 182.81735,1037.7113 c 0.0203,-1.6282 2.30409,-11.4866 5.07273,-21.9074 3.40392,-12.8119 6.87001,-20.3587 10.70431,-23.3069 15.39801,-11.8395 22.11803,-18.65556 23.15872,-23.48961 3.53387,-16.41526 4.71187,-26.4226 5.41425,-45.99424 0.74142,-20.66037 0.45753,-22.04193 -5.71837,-27.82836 -3.5742,-3.34875 -9.25225,-6.08868 -12.61785,-6.08868 -3.36563,0 -11.24693,-1.20971 -17.51398,-2.68826 -8.50039,-2.00541 -12.12347,-2.00541 -14.26388,0 -1.57807,1.47855 -5.25881,2.68826 -8.17943,2.68826 -3.81122,0 -6.91421,3.09327 -10.99234,10.95791 -4.63747,8.94333 -5.59783,14.49488 -5.22362,30.19672 0.25228,10.58136 1.33539,21.45217 2.40717,24.15737 2.85059,7.19497 17.26307,19.94934 22.54284,19.94934 2.5034,0 5.90452,1.52733 7.5581,3.3941 2.42016,2.73222 1.78215,4.14572 -3.27174,7.2483 -7.34343,4.50815 -12.50627,2.57842 -26.2267,-9.8029 -7.19711,-6.49468 -8.61179,-9.83475 -11.03429,-26.05206 -1.52833,-10.23127 -1.97335,-23.39824 -0.98895,-29.25997 0.98442,-5.86171 2.12494,-13.70286 2.53447,-17.42476 0.93808,-8.52523 15.00497,-22.3601 23.69635,-23.30553 5.9327,-0.64534 6.66015,-1.82891 7.35438,-11.96593 0.56451,-8.24263 -0.14535,-11.24976 -2.65577,-11.24976 -6.61435,0 -16.86028,-5.97528 -19.48127,-11.36119 -1.45608,-2.99215 -2.64742,-17.64644 -2.64742,-32.5651 0,-25.54589 0.29428,-27.12481 5.05558,-27.12481 2.78057,0 5.05558,0.86206 5.05558,1.9157 0,1.05364 1.45189,3.77605 3.22642,6.04984 7.11181,9.11258 16.04648,-3.28062 14.83017,-20.57086 -0.40062,-5.69499 0.37963,-6.57138 5.27139,-5.92091 4.74747,0.63125 5.87277,2.44005 6.49895,10.44639 0.65966,8.43388 1.89349,10.19057 9.56499,13.61813 11.34753,5.07 13.69171,4.95669 13.69171,-0.66178 0,-5.97662 4.33536,-8.3849 8.8187,-4.89873 3.42652,2.66441 3.43896,7.28509 0.10515,39.10032 -0.40948,3.90781 -0.87861,9.83501 -1.04249,13.17154 -0.42826,8.71923 -9.01127,16.16769 -20.6376,17.90955 -7.79672,1.16813 -10.4007,2.77028 -11.56467,7.11536 -2.52215,9.41532 0.36056,12.03604 15.14258,13.76646 26.29872,3.07858 33.44143,15.45901 31.00433,53.73969 -3.22521,50.6602 -5.01173,55.83199 -21.86428,63.29503 -6.93035,3.06905 -12.60064,6.94386 -12.60064,8.61063 0,1.6669 -1.60763,5.9339 -3.57248,9.4823 -1.96487,3.5484 -3.11831,9.7984 -2.56318,13.8888 1.48987,10.978 -0.90682,15.7265 -7.93755,15.7265 -3.38201,0 -6.13166,-1.3322 -6.11033,-2.9605 z m 17.9105,-194.00215 c 10.19195,-3.26939 12.29384,-5.7235 12.34551,-14.41437 l 0.0386,-6.51302 -22.11817,0.0362 c -26.62494,0.0436 -29.68632,1.31504 -25.86165,10.74029 1.5246,3.75705 3.98297,8.19812 5.46307,9.86908 3.35496,3.78752 18.75478,3.93152 30.13255,0.28177 z m 11.12031,-30.81039 c 2.68446,-2.45571 -8.80501,-12.64891 -17.08191,-15.15468 -4.69414,-1.42112 -32.21003,9.9885 -32.21003,13.35607 0,4.62062 10.03116,6.55962 27.8057,5.37477 10.42714,-0.69507 20.09595,-2.30434 21.48624,-3.57616 z M 99.44596,1034.8463 c -2.32913,-2.6294 -2.62195,-17.797 -1.22305,-63.35388 2.54711,-82.94955 2.49872,-83.62906 -5.511444,-77.40496 -8.707484,6.76593 -10.831056,17.26169 -11.267454,55.68918 -0.416606,36.68473 -3.878037,62.52756 -9.0204,67.34566 -4.428464,4.1492 -11.605951,-0.1437 -9.679849,-5.7897 3.416159,-10.0135 6.343948,-29.29517 8.67121,-57.10631 4.432938,-52.97409 5.344813,-58.6734 10.465589,-65.41132 2.735297,-3.59909 7.046093,-7.16022 9.579546,-7.91361 6.582322,-1.95737 11.436512,-12.68212 7.666512,-16.9382 -1.60161,-1.80811 -4.56024,-3.28749 -6.574734,-3.28749 -4.285643,0 -8.910794,-3.96031 -13.013552,-11.14292 -3.9884,-6.98235 -3.902076,-53.31054 0.106423,-57.06613 6.152872,-5.76482 7.131356,-2.27845 6.494301,23.13911 -0.546407,21.80084 0.03792,26.62671 3.630971,29.99328 3.540223,3.31693 4.961141,3.48415 8.200741,0.96509 3.19585,-2.48503 3.91855,-9.12247 3.91855,-35.98852 0,-27.50573 0.64368,-33.17293 3.90071,-34.34394 2.14539,-0.77136 4.70478,-0.64869 5.68754,0.27261 0.98275,0.92127 1.39448,17.57232 0.91493,37.00231 -0.74827,30.31927 -0.32968,35.32726 2.95299,35.32726 8.16355,0 11.82176,-3.00993 11.82176,-9.72687 0,-3.76843 1.15916,-6.85172 2.57594,-6.85172 1.41677,0 1.9877,-2.39798 1.26872,-5.32882 -0.71898,-2.93086 -1.5938,-12.23339 -1.94402,-20.67228 -0.52791,-12.72069 0.0824,-15.47638 3.57091,-16.12118 6.44136,-1.19064 8.00192,7.81943 7.40182,42.73593 -0.19767,11.49719 -1.3311,14.71487 -7.21615,20.48464 -3.83995,3.76475 -9.81186,7.21877 -13.27091,7.67565 -5.33357,0.70448 -6.28918,2.09021 -6.28918,9.11999 0,6.71066 1.0482,8.42911 5.50397,9.02355 9.04017,1.20605 12.10039,7.25791 13.8837,27.45634 1.68041,19.03316 7.00278,71.6703 8.16542,80.75443 0.33344,2.6052 1.52234,8.81296 2.64202,13.79502 2.56424,11.4098 -1.27289,16.1938 -8.24617,10.281 -5.06941,-4.2984 -10.59473,-32.97035 -10.57289,-54.86483 0.007,-6.51303 0.007,-20.36799 0.005,-30.78882 -0.007,-23.24962 -2.6791,-35.25886 -8.05645,-36.22915 -5.65284,-1.01998 -6.46733,10.24339 -5.78384,79.98557 0.62649,63.92873 -1.53831,76.37083 -11.35891,65.28403 z m 73.48528,-74.37217 c -5.50277,-4.0166 -6.16826,-6.61174 -7.2894,-28.42558 -1.08462,-21.10413 -0.73462,-24.00547 2.8959,-24.00547 2.27131,0 4.21689,1.3322 4.3235,2.96046 0.1067,1.62826 0.391,7.22353 0.63195,12.43394 0.2409,5.21042 1.56028,10.00636 2.93181,10.65766 3.57508,1.69768 9.39444,-10.89599 10.8741,-23.53268 1.15995,-9.9063 3.80125,-14.23029 8.75036,-14.32497 1.04272,-0.0189 1.89585,6.1579 1.89585,13.72856 0,12.54801 0.67036,14.22921 7.58337,19.01787 4.17086,2.88917 7.58337,7.35266 7.58337,9.91887 0,5.92128 -2.76085,5.90195 -10.11116,-0.0708 -7.52784,-6.11709 -8.08312,-6.0438 -17.65132,2.33054 -11.47718,10.04514 -9.09926,13.06386 10.29064,13.06386 14.52275,0 16.20795,0.49251 16.20795,4.73675 0,4.18967 -1.89769,4.80573 -16.43064,5.33399 -12.86791,0.46773 -17.74374,-0.3612 -22.48628,-3.8229 z"
       id="path3189"
       inkscape:connector-curvature="0" />
  </g>
</svg>
