<?xml version="1.0" encoding="UTF-8" standalone="no"?>
<!-- Created with Inkscape (http://www.inkscape.org/) -->

<svg
   xmlns:dc="http://purl.org/dc/elements/1.1/"
   xmlns:cc="http://creativecommons.org/ns#"
   xmlns:rdf="http://www.w3.org/1999/02/22-rdf-syntax-ns#"
   xmlns:svg="http://www.w3.org/2000/svg"
   xmlns="http://www.w3.org/2000/svg"
   xmlns:sodipodi="http://sodipodi.sourceforge.net/DTD/sodipodi-0.dtd"
   xmlns:inkscape="http://www.inkscape.org/namespaces/inkscape"
   width="300"
   height="300"
   viewBox="0 0 300 300"
   id="svg2"
   version="1.1"
   inkscape:version="0.91 r13725"
   sodipodi:docname="цен-seal.svg">
  <defs
     id="defs4" />
  <sodipodi:namedview
     id="base"
     pagecolor="#ffffff"
     bordercolor="#666666"
     borderopacity="1.0"
     inkscape:pageopacity="0.0"
     inkscape:pageshadow="2"
     inkscape:zoom="1.24"
     inkscape:cx="183.73753"
     inkscape:cy="152.60298"
     inkscape:document-units="px"
     inkscape:current-layer="layer1"
     showgrid="false"
     units="px"
     inkscape:window-width="924"
     inkscape:window-height="649"
     inkscape:window-x="8"
     inkscape:window-y="30"
     inkscape:window-maximized="0" />
  <metadata
     id="metadata7">
    <rdf:RDF>
      <cc:Work
         rdf:about="">
        <dc:format>image/svg+xml</dc:format>
        <dc:type
           rdf:resource="http://purl.org/dc/dcmitype/StillImage" />
        <dc:title></dc:title>
      </cc:Work>
    </rdf:RDF>
  </metadata>
  <g
     inkscape:label="Layer 1"
     inkscape:groupmode="layer"
     id="layer1"
     transform="translate(0,-752.36216)">
    <path
       style="fill:#000000"
       d="m 136.44607,1032.5241 c -1.61873,-1.8564 -2.53063,-17.0962 -2.42542,-40.53368 l 0.16859,-37.55869 -7.97243,-0.76673 c -6.31384,-0.60721 -9.40879,0.77091 -14.87666,6.62428 -6.11694,6.5482 -8.46575,13.57347 -11.01619,32.94922 -2.152276,16.351 -4.794996,25.467 -7.382814,25.467 -1.70679,0 -3.75324,-1.6938 -4.54768,-3.7641 -0.79443,-2.0703 -0.4409,-3.1439 0.78563,-2.3859 4.38287,2.7088 4.79222,-2.9795 0.49432,-6.869 -3.95429,-3.5786 -4.09689,-5.3264 -1.46115,-17.90853 3.77002,-17.99678 7.903798,-32.62395 10.201338,-36.09689 3.249296,-4.91161 19.982096,-13.01461 26.875336,-13.01461 9.21509,0 12.53844,-4.10863 12.53844,-15.50119 0,-8.31279 -0.42826,-9.10131 -3.03178,-5.58219 -2.52805,3.4171 -8.22531,4.19935 -34.28944,4.70806 -27.351774,0.53384 -31.588004,0.088 -33.901404,-3.56766 -4.90529,-7.75143 1.09142,-9.26831 36.835644,-9.31765 28.28043,-0.039 34.38698,-0.66732 34.38698,-3.53789 0,-1.91972 -3.00147,-4.14183 -6.66992,-4.93802 -19.82397,-4.30251 -34.570366,-12.62427 -38.334504,-21.63312 -4.92726,-11.79261 -4.65061,-30.08326 0.48482,-32.05391 5.801438,-2.22623 10.563664,5.71472 10.563664,17.61475 0,5.58462 1.3643,11.18872 3.03178,12.45354 4.7219,3.58168 28.73945,10.55891 31.17187,9.05559 1.19774,-0.74025 2.17771,-4.90525 2.17771,-9.25557 0,-6.13349 -1.90627,-9.42954 -8.48898,-14.67791 -7.62134,-6.07646 -8.48899,-7.98028 -8.48899,-18.62684 l 0,-11.85861 -10.30805,-0.21553 c -5.66943,-0.11853 -15.472496,-0.0387 -21.784604,0.17747 -16.34644,0.55977 -21.26666,-1.51343 -21.26666,-8.96094 l 0,-6.24669 19.06277,1.30659 c 23.542034,1.6136 27.014444,0.0187 20.592414,-9.458 -2.57944,-3.80638 -6.8246,-11.0549 -9.43369,-16.10782 -4.142776,-8.02315 -4.283546,-9.47808 -1.111036,-11.48362 5.256386,-3.32289 7.225696,-2.91165 8.972516,1.87372 0.85216,2.33447 4.19959,7.45729 7.43874,11.38404 3.23914,3.92675 6.84642,9.65681 8.01616,12.73347 1.16974,3.07666 3.79098,5.59392 5.82497,5.59392 3.00576,0 3.69817,-3.63289 3.69817,-19.40338 0,-17.8655 0.38923,-19.40339 4.91088,-19.40339 6.81662,0 9.64166,8.92949 9.64166,30.47569 0,16.0151 0.50884,18.03278 4.54767,18.03278 5.20606,0 6.90099,-6.11473 9.20891,-33.22253 1.036,-12.16842 2.57706,-17.87585 5.08668,-18.83888 7.66109,-2.93983 9.96858,3.12686 9.02342,23.72373 l -0.91083,19.84869 6.53183,-7.55518 c 3.5925,-4.15536 9.28214,-11.13012 12.64365,-15.49947 4.86833,-6.32796 7.21232,-7.595 11.52076,-6.22755 5.2173,1.6559 7.76294,8.66611 3.14696,8.66611 -1.24409,0 -2.89173,1.91002 -3.66143,4.24449 -0.76969,2.33447 -4.69343,7.9741 -8.71941,12.53251 -4.02599,4.5584 -6.92733,9.46594 -6.44743,10.90564 1.03563,3.10691 17.33915,6.12686 25.94109,4.80515 3.33496,-0.51242 8.0954,-1.2103 10.57876,-1.55084 4.84016,-0.66372 11.0196,6.48333 8.11603,9.38689 -0.96235,0.96236 -12.9296,1.83329 -26.59387,1.93541 l -24.84414,0.18565 -0.78098,9.56866 c -0.84475,10.34981 -6.6702,17.22801 -18.01606,21.27184 -5.47952,1.95298 -6.66991,3.83034 -6.66991,10.51906 0,7.38172 0.79101,8.29021 8.47304,9.73137 17.22182,3.23083 30.33374,-4.20731 30.33374,-17.20773 0,-14.79534 2.72424,-22.96879 7.65557,-22.96879 6.62945,0 7.81865,5.42186 4.38265,19.98155 -3.00585,12.737 -9.4682,24.61071 -16.51602,30.34598 -2.08564,1.69723 -10.3305,3.03178 -18.73032,3.03178 -9.95784,0 -15.96,1.15107 -17.84488,3.42221 -4.81574,5.80261 1.77844,7.5318 26.50046,6.94921 12.67284,-0.29864 29.86303,0.64353 38.20043,2.09371 12.66946,2.20367 15.1589,3.43416 15.1589,7.49277 0,4.70448 -1.2873,4.82657 -41.23221,3.91064 l -41.23221,-0.94546 0,7.94185 c 0,5.53379 1.13242,7.94184 3.73476,7.94184 4.3324,0 22.61,8.97432 26.50614,13.01454 8.91209,9.24167 13.77294,22.64283 15.116,41.67424 1.30294,18.46285 1.03178,20.16515 -3.60765,22.64815 -9.54653,5.1091 -12.13058,1.3849 -12.12037,-17.46855 0.0126,-23.41881 -6.24961,-38.0256 -18.8701,-44.01441 -8.82346,-4.18701 -9.27642,-4.18462 -12.38403,0.0653 -3.24927,4.44363 -4.10811,18.1811 -3.27479,52.38146 0.56441,23.1644 -3.9673,33.6609 -11.03381,25.5568 z M 163.4927,851.35124 c 2.31421,0 3.43976,-2.77775 3.43976,-8.48899 l 0,-8.48898 -14.2896,0 c -13.2883,0 -14.39821,0.43271 -15.83946,6.1751 -1.9981,7.96104 0.33663,11.96727 4.81043,8.25435 2.5801,-2.14129 4.28234,-1.8563 7.37307,1.23443 2.21017,2.21017 5.60418,3.40999 7.54226,2.66628 1.93807,-0.7437 5.07167,-1.35219 6.96354,-1.35219 z"
       id="path3451"
       inkscape:connector-curvature="0" />
  </g>
</svg>
