<?xml version="1.0" encoding="UTF-8" standalone="no"?>
<!-- Created with Inkscape (http://www.inkscape.org/) -->

<svg
   xmlns:dc="http://purl.org/dc/elements/1.1/"
   xmlns:cc="http://creativecommons.org/ns#"
   xmlns:rdf="http://www.w3.org/1999/02/22-rdf-syntax-ns#"
   xmlns:svg="http://www.w3.org/2000/svg"
   xmlns="http://www.w3.org/2000/svg"
   xmlns:sodipodi="http://sodipodi.sourceforge.net/DTD/sodipodi-0.dtd"
   xmlns:inkscape="http://www.inkscape.org/namespaces/inkscape"
   version="1.0"
   width="300"
   height="300"
   id="svg2"
   inkscape:version="0.48.4 r9939"
   sodipodi:docname="dessin.svg">
  <metadata
     id="metadata2990">
    <rdf:RDF>
      <cc:Work
         rdf:about="">
        <dc:format>image/svg+xml</dc:format>
        <dc:type
           rdf:resource="http://purl.org/dc/dcmitype/StillImage" />
      </cc:Work>
    </rdf:RDF>
  </metadata>
  <sodipodi:namedview
     pagecolor="#ffffff"
     bordercolor="#666666"
     borderopacity="1"
     objecttolerance="10"
     gridtolerance="10"
     guidetolerance="10"
     inkscape:pageopacity="0"
     inkscape:pageshadow="2"
     inkscape:window-width="1215"
     inkscape:window-height="1000"
     id="namedview2988"
     showgrid="false"
     inkscape:zoom="2.2250294"
     inkscape:cx="129.01005"
     inkscape:cy="139.3918"
     inkscape:window-x="65"
     inkscape:window-y="24"
     inkscape:window-maximized="1"
     inkscape:current-layer="svg2"
     showguides="true"
     inkscape:guide-bbox="true" />
  <defs
     id="defs5" />
  <path
     style="fill:#000000"
     d="m 97.751433,229.99638 c 1.714646,-48.35702 1.338227,-58.383 -2.531937,-67.43836 -3.745913,-8.76469 -5.526839,-9.83197 -10.118982,-6.06419 -5.049699,4.1432 -5.577052,9.35307 -5.616366,55.48658 -0.0451,52.95271 -1.939847,64.87803 -9.592555,60.37592 -3.799777,-2.23542 -4.538399,-10.86148 -4.538399,-53.00255 0,-58.21642 3.560858,-74.67918 17.047416,-78.81439 7.965651,-2.44243 13.384131,-14.55728 10.12584,-22.63981 -0.847786,-2.103 -5.322268,-4.98291 -9.943282,-6.39984 -6.766184,-2.07462 -8.982171,-5.77981 -11.382688,-19.032343 -1.639427,-9.050914 -2.987923,-26.723915 -2.996594,-39.27334 -0.01423,-19.49899 0.764648,-22.817136 5.351019,-22.817136 4.354217,0 5.949309,5.06951 8.453891,26.868185 4.774916,41.558574 8.858241,41.712688 8.858241,0.33426 0,-19.889583 1.295652,-36.609321 2.959065,-38.18541 5.894573,-5.585149 11.215038,7.563763 11.254018,27.81308 0.0507,26.32242 2.53338,39.669459 7.37908,39.669459 4.69015,0 4.93407,-2.430485 4.03464,-40.20162 -0.57629,-24.200879 0.0796,-29.336317 3.7468,-29.336317 7.5358,0 10.58748,16.042536 9.72449,51.12098 l -0.82733,33.628372 -9.92205,4.88752 c -7.36944,3.63014 -10.14328,7.67134 -10.78196,15.70836 -0.71279,8.96953 0.59329,11.26636 7.63415,13.42521 6.83014,2.09427 9.10529,5.82811 11.61429,19.06065 5.04738,26.62008 7.00634,93.71128 3.0658,104.99937 -6.69397,19.17566 -9.5556,7.48685 -10.36732,-42.34725 -0.48294,-29.64924 -2.12572,-51.42617 -4.16331,-55.19017 -7.9114,-14.6144 -9.18942,-5.94828 -7.5347,51.09221 1.70203,58.67081 0.0477,73.07425 -8.39306,73.07425 -4.050323,0 -4.330207,-6.26327 -2.538207,-56.80168 z m 112.868617,-0.78442 c 0.273,-30.8911 -0.81071,-43.60151 -4.67907,-54.88195 l -5.03427,-14.68033 -19.85478,2.17793 c -28.15677,3.08857 -31.21957,8.67103 -31.21957,56.90295 0,27.58789 -1.08978,38.68833 -4.18489,42.62639 -7.13327,9.07605 -9.0283,-3.28332 -7.36996,-48.06722 1.6336,-44.11483 4.05758,-56.8753 10.80412,-56.8753 3.41993,0 4.15258,-9.35485 4.15258,-53.02268 0,-40.415513 -0.78685,-51.81638 -3.30923,-47.949303 -1.82011,2.790355 -4.05256,18.317632 -4.96103,34.505068 -1.36016,24.235475 -2.59484,29.707855 -6.99335,30.995825 -4.96142,1.45287 -5.24709,-0.93698 -4.0144,-33.582544 1.45903,-38.639706 6.34173,-52.637755 18.36073,-52.637755 4.40479,0 7.81747,-3.731228 9.9377,-10.865301 4.06294,-13.670828 6.65905,-13.670828 12.50181,0 3.99156,9.339462 6.76491,10.865301 19.7487,10.865301 19.20808,0 23.93111,8.69821 23.93111,44.072794 0,28.253395 -1.8794,38.503505 -7.05985,38.503505 -4.53985,0 -7.02587,-13.81893 -7.07581,-39.332393 -0.036,-18.413073 -3.629,-30.205543 -9.20313,-30.205543 -1.2984,0 -2.00003,22.00224 -1.55917,48.893859 l 0.80155,48.893857 8.91647,1.32796 c 13.96648,2.08006 17.11324,11.44356 20.59641,61.287 2.82467,40.41988 2.65797,46.08236 -1.5672,53.23999 -9.7798,16.56745 -12.04116,10.32699 -11.6655,-32.19211 z M 184.4178,143.09035 c 0,-19.40964 -15.00876,-29.10623 -18.05732,-11.66612 -2.71444,15.52852 -2.33037,16.29796 8.13527,16.29796 5.45712,0 9.92205,-2.08432 9.92205,-4.63184 z m -2.83488,-43.175496 c 0,-6.760632 -1.88992,-8.692237 -8.50462,-8.692237 -6.61468,0 -8.50461,1.931605 -8.50461,8.692237 0,6.760656 1.88993,8.692246 8.50461,8.692246 6.6147,0 8.50462,-1.93159 8.50462,-8.692246 z m -0.7365,-34.768965 c 0.40116,-3.585549 -0.50838,-9.452813 -2.02123,-13.038363 -3.68682,-8.738041 -12.4786,-0.616675 -13.76748,12.717612 -0.80118,8.289 0.1993,9.457332 7.06294,8.24838 4.398,-0.774644 8.32458,-4.342079 8.72577,-7.927629 z M 160.76076,239.73504 c -6.34047,-10.7411 -6.06166,-36.61145 0.49256,-45.70498 6.71539,-9.31713 29.59809,-9.736 34.52647,-0.63201 4.90103,9.05349 1.80538,40.35729 -4.74336,47.9657 -7.58584,8.81325 -24.65378,7.89509 -30.27567,-1.62871 z m 20.04325,-12.95271 c 1.91036,-1.86064 3.8239,-8.18691 4.2523,-14.0583 0.67272,-9.21976 -0.37538,-10.67534 -7.68689,-10.67534 -9.40794,0 -12.92814,11.0125 -7.01296,21.93941 3.87104,7.15087 5.52139,7.59228 10.44755,2.79423 z"
     id="path3104"
     inkscape:connector-curvature="0" />
</svg>
