<?xml version="1.0" encoding="UTF-8" standalone="no"?>
<!-- Created with Inkscape (http://www.inkscape.org/) -->

<svg
   xmlns:dc="http://purl.org/dc/elements/1.1/"
   xmlns:cc="http://creativecommons.org/ns#"
   xmlns:rdf="http://www.w3.org/1999/02/22-rdf-syntax-ns#"
   xmlns:svg="http://www.w3.org/2000/svg"
   xmlns="http://www.w3.org/2000/svg"
   xmlns:sodipodi="http://sodipodi.sourceforge.net/DTD/sodipodi-0.dtd"
   xmlns:inkscape="http://www.inkscape.org/namespaces/inkscape"
   width="300"
   height="300"
   id="svg2"
   version="1.1"
   inkscape:version="0.48.4 r9939"
   sodipodi:docname="dessin.svg">
  <defs
     id="defs4" />
  <sodipodi:namedview
     id="base"
     pagecolor="#ffffff"
     bordercolor="#666666"
     borderopacity="1.0"
     inkscape:pageopacity="0.0"
     inkscape:pageshadow="2"
     inkscape:zoom="1.979899"
     inkscape:cx="73.020464"
     inkscape:cy="149.14493"
     inkscape:document-units="px"
     inkscape:current-layer="layer1"
     showgrid="false"
     inkscape:window-width="1215"
     inkscape:window-height="1000"
     inkscape:window-x="65"
     inkscape:window-y="24"
     inkscape:window-maximized="1" />
  <metadata
     id="metadata7">
    <rdf:RDF>
      <cc:Work
         rdf:about="">
        <dc:format>image/svg+xml</dc:format>
        <dc:type
           rdf:resource="http://purl.org/dc/dcmitype/StillImage" />
        <dc:title />
      </cc:Work>
    </rdf:RDF>
  </metadata>
  <g
     inkscape:label="Calque 1"
     inkscape:groupmode="layer"
     id="layer1"
     transform="translate(0,-752.36218)">
    <path
       style="fill:#000000"
       d="m 121.83896,1024.9219 c 0.96598,-10.5366 9.61809,-18.8506 11.96097,-29.28714 11.426,-27.49855 8.33181,-58.10948 16.29153,-86.43655 2.49597,-7.07283 -4.02532,-17.40208 -2.00584,-26.50831 -1.03001,-10.73215 -0.007,-26.73475 13.97736,-27.62446 15.46218,-1.87838 31.25171,-2.70829 46.78277,-1.50216 7.39921,9.95896 -14.37921,9.62153 -21.22997,9.50793 -9.1185,1.29784 -28.42802,-3.94325 -28.61065,9.09137 9.6891,5.17581 21.30394,0.24708 31.84023,1.10697 8.45562,1.09725 16.53572,-0.28293 17.60277,-9.80391 12.42398,-10.05855 11.20259,12.66547 11.07091,20.4877 2.06575,12.74559 -6.92362,22.4235 -19.62459,21.62445 -13.85986,2.12542 -27.89461,1.96615 -41.87237,1.92381 0.46234,31.27596 -5.47014,62.28305 -12.38163,92.6601 -2.65043,10.9607 -8.81605,25.7271 -21.05576,27.6274 -1.22808,-0.5776 -2.1792,-1.65 -2.74573,-2.8672 z m 77.33235,-129.15641 c 7.03436,-1.15418 7.92701,-10.87346 6.15063,-15.20541 -15.25693,1.10186 -31.07608,-0.069 -45.67092,4.56392 -0.89966,3.06024 -4.35178,13.60357 0.90094,13.28077 12.89082,-0.16169 26.0586,0.80154 38.61935,-2.63928 z M 86.49248,1008.5161 c -0.936024,-6.6238 2.531056,-12.97914 5.999023,-16.68235 -7.25473,-9.29448 -3.282338,-22.0511 -4.284063,-32.91973 0.361829,-27.65153 0.465422,-55.40268 3.783585,-82.88388 0.609099,-12.04761 -19.638615,-5.45858 -15.428984,5.07991 -3.309871,34.01558 -3.744292,68.22149 -5.342852,102.32765 0.961622,9.4755 -8.826844,7.66683 -7.362392,-0.78265 -1.317938,-19.80179 -2.061898,-39.80394 0.05283,-59.57131 2.995579,-9.70507 -4.182865,-19.59529 2.780066,-29.15032 2.773084,-10.98282 0.0066,-24.55245 13.566126,-29.77679 12.89458,-0.7562 12.045254,-20.92496 0.226648,-22.23681 -11.771675,-2.3662 -13.730586,-15.56261 -14.597342,-25.52719 -0.145204,-10.36719 -7.123753,-25.2308 4.803275,-31.38772 6.597218,7.80528 5.74181,20.59446 7.213741,30.68734 -3.673539,9.47667 11.742368,24.85331 12.912059,8.66343 3.039046,-19.06952 2.161124,-38.52833 4.880339,-57.61061 12.290714,2.053 7.527954,17.68436 7.653754,26.51232 -0.73169,12.00928 -3.11082,24.34446 1.5516,35.9096 5.97251,9.69884 10.75226,-9.77647 11.58564,-15.36005 3.36193,-8.00436 -0.54347,-24.81511 9.26843,-26.41706 11.03339,3.86697 1.28718,18.60255 2.12374,27.20539 -0.21758,11.58593 -5.78067,25.69827 -18.75675,27.40163 -14.121961,4.16038 -4.08812,21.59616 5.94122,24.28056 13.64758,16.97389 10.42342,40.00367 10.04763,60.24366 -1.19255,21.83466 -0.94636,43.93811 -4.97136,65.48479 -6.60658,6.56898 -12.5692,-5.82768 -8.33548,-12.08923 2.22304,-30.47617 3.74088,-61.08023 3.17653,-91.63819 3.04249,-9.28871 -14.92898,-26.02611 -14.18264,-8.96233 -2.256794,32.50296 0.23787,65.28299 -3.864664,97.64845 -1.300607,8.44995 3.264164,18.34104 -0.173159,27.99489 0.799203,6.3671 -8.108582,24.2669 -10.067367,9.9055 -0.223542,-2.1079 -0.253377,-4.2317 -0.19918,-6.3489 z m 88.17256,-26.46704 c -11.54341,-6.0579 -4.56395,-22.8526 -6.5914,-33.57848 -0.67935,-10.55775 0.82727,-26.43099 14.74996,-26.35605 12.19569,-0.785 27.14972,-3.13274 36.15592,7.30701 5.1513,10.30149 2.02532,22.63178 2.93285,33.75692 2.90181,12.48444 -5.14987,22.66775 -18.24831,21.09167 -9.65506,0.5169 -19.69038,0.74114 -28.99902,-2.22107 z m 34.01753,-14.42895 c 2.83803,-10.54603 3.61117,-22.09179 1.55765,-32.81312 -8.14191,-5.70496 -24.45643,-5.03832 -30.37075,3.51067 2.05779,10.83181 -8.24862,27.66867 4.41462,33.17964 7.27412,1.89549 20.67627,5.19922 24.39848,-3.87719 z M 124.73235,846.09263 c 2.75925,-9.78107 10.88253,-17.88315 18.10255,-24.89908 6.34757,-6.49302 11.59902,-14.49629 18.82082,-20.737 8.14878,-6.53884 10.21332,-18.18365 15.64834,-25.10998 11.74616,2.51323 14.52092,16.77908 22.95499,23.89763 11.24561,12.82125 24.37362,23.81794 37.82156,34.20749 8.7962,13.44443 -11.7219,7.64922 -16.75675,2.22634 -14.24533,-8.64899 -25.90215,-20.769 -36.09943,-33.78157 -10.60116,-9.79363 -14.8504,11.07638 -23.47162,15.28551 -10.30563,11.15086 -20.59911,22.87918 -33.36886,31.19017 l -1.8985,-0.66961 -1.7531,-1.6099 0,0 z m 33.28973,-10.98896 c 5.61062,-8.6685 20.72138,-3.81382 30.13521,-5.80153 7.21864,-2.7011 26.84458,3.94013 11.23659,8.29742 -12.70964,1.58238 -25.67774,2.14079 -38.44445,1.13854 -1.858,-0.13865 -3.19976,-1.80095 -2.92735,-3.63443 z"
       id="path3002"
       inkscape:connector-curvature="0" />
  </g>
</svg>
