<?xml version="1.0" encoding="UTF-8" standalone="no"?>
<svg
   xmlns:dc="http://purl.org/dc/elements/1.1/"
   xmlns:cc="http://creativecommons.org/ns#"
   xmlns:rdf="http://www.w3.org/1999/02/22-rdf-syntax-ns#"
   xmlns:svg="http://www.w3.org/2000/svg"
   xmlns="http://www.w3.org/2000/svg"
   viewBox="0 0 300 300"
   height="300"
   width="300"
   id="svg351"
   version="1.1">
  <metadata
     id="metadata357">
    <rdf:RDF>
      <cc:Work
         rdf:about="">
        <dc:format>image/svg+xml</dc:format>
        <dc:type
           rdf:resource="http://purl.org/dc/dcmitype/StillImage" />
        <dc:title></dc:title>
      </cc:Work>
    </rdf:RDF>
  </metadata>
  <defs
     id="defs355" />
  <path
     id="path361"
     d="m 142.49357,199.0841 c -28.52773,0.64569 -33.13003,44.14621 -33.6743,80.50366 -0.0999,6.67254 -10.753678,7.03508 -10.829657,0.0245 -0.429767,-39.65445 3.575587,-90.84299 44.592377,-90.98609 l 0.0431,-10.11981 c -28.28409,-0.60375 -48.563353,-2.16594 -54.612179,-28.28435 -11.728079,-0.4328 -21.523435,-9.24424 -21.521504,-21.65865 0.0016,-10.41494 10.570678,-19.65518 18.411486,-19.59398 L 85.043505,98.083169 C 77.242014,97.726938 66.644699,88.226153 66.629087,77.108806 66.613476,65.991458 77.73805,57.258129 85.950378,56.897987 l 0.03537,-18.046083 c 0.01192,-6.083871 10.561669,-5.868976 10.545969,0.317406 l -0.04566,17.99124 c 9.452353,0.223733 19.441303,8.995645 19.253183,20.271353 -0.1855,11.118382 -11.32387,20.207782 -19.730182,20.405981 l -0.02532,11.230376 c 8.842692,0.33633 17.819012,10.07488 17.819402,20.76958 3.9e-4,10.75415 -8.5498,17.64001 -14.85807,19.16961 4.84434,18.21172 22.48779,18.14649 43.77319,18.33301 l 0.0816,-21.68338 c -13.78866,-3.99637 -19.24098,-26.6701 -19.16805,-48.037697 0.0722,-21.169833 8.2796,-41.764394 20.96275,-44.461104 l 0.2804,-26.406706 c 0.0751,-7.071126 10.08362,-7.245365 10.13616,0.563979 l 0.17478,25.986106 c 12.95468,3.754299 18.79113,23.138779 19.15649,43.245231 0.39968,21.994781 -5.89574,44.853511 -20.20817,49.060761 l -0.0376,21.7336 c 21.05555,0.16244 41.433,0.98266 44.90011,-15.5768 -6.6666,-2.25357 -13.55993,-7.99842 -13.29602,-19.43474 0.27831,-12.05965 8.52411,-19.03539 17.98267,-19.39731 l 0.0987,-12.22514 c -9.29434,-0.46032 -16.98745,-9.979602 -16.75163,-20.725831 0.23329,-10.630726 7.40895,-19.722105 17.69644,-20.017114 l 0.30267,-17.294605 c 0.11242,-6.421279 9.41104,-6.506951 9.51537,0.369119 l -0.0634,17.091534 c 11.23459,0.502757 19.12484,9.569556 19.02615,21.022838 -0.0952,11.05426 -10.35277,19.268729 -19.08119,19.596839 l -0.19261,12.24745 c 9.20582,0.36335 17.88306,9.38886 17.8116,19.7817 -0.0858,12.47413 -10.4747,20.28319 -21.61923,20.56504 -6.25333,26.2391 -33.55599,25.25321 -56.29216,25.28513 v 10.00624 c 40.40813,0.3921 46.44278,49.84938 46.36414,89.03163 -0.0169,8.42905 -11.48247,7.35556 -11.51945,0.85301 -0.19887,-34.96835 -3.53795,-78.66074 -34.90557,-79.26085 l -0.0316,82.27119 c -0.005,13.23325 -11.48087,13.2813 -11.4903,-0.16925 z m 78.78127,-66.41024 c -0.1183,-6.16818 -5.72835,-9.26775 -12.36391,-9.33897 -5.15531,-0.0554 -11.13711,2.87373 -11.12961,9.05854 0.009,6.7046 4.74561,10.2641 10.77871,10.31429 7.56133,0.0629 12.8297,-4.0429 12.71481,-10.03386 z M 101.71392,129.2128 c 0.0242,-5.40291 -5.663975,-8.95378 -11.974634,-8.88662 -5.281332,0.0562 -11.823602,2.81854 -11.826129,8.32621 -0.0027,5.81785 4.228926,10.56269 11.597036,10.5995 7.407564,0.037 12.135947,-4.84408 12.203727,-10.03909 z m 61.97564,-26.69002 -28.52334,-0.007 c -0.21712,13.55349 3.0909,31.87886 13.54307,32.15564 10.59263,0.2805 14.7597,-18.69477 14.98027,-32.14847 z m 0.0522,-11.341995 C 163.21201,78.721184 160.11237,65.122973 149.2432,65.069777 138.98045,65.313902 135.74828,78.808047 135.00019,91.213929 Z M 221.95374,80.76906 c -0.0255,-6.489326 -6.38486,-9.175924 -12.1031,-9.155317 -5.24946,0.01892 -11.79998,1.983798 -11.89395,8.769733 -0.0845,6.098807 3.89922,9.572471 10.99195,9.782522 7.3279,0.217016 13.02853,-3.446233 13.0051,-9.396938 z M 104.48338,77.417623 c -0.13439,-6.491672 -7.897336,-9.259784 -13.879717,-9.259603 -5.186081,1.58e-4 -11.676768,2.302427 -11.585004,8.522929 0.09919,6.723786 5.419822,10.489995 11.51167,10.517877 6.484136,-0.08226 14.094061,-2.969206 13.953051,-9.781203 z"
     style="fill:#000000;stroke-width:0.69226724" />
</svg>
