<?xml version="1.0" encoding="UTF-8" standalone="no"?>
<!-- Created with Inkscape (http://www.inkscape.org/) -->

<svg
   xmlns:dc="http://purl.org/dc/elements/1.1/"
   xmlns:cc="http://creativecommons.org/ns#"
   xmlns:rdf="http://www.w3.org/1999/02/22-rdf-syntax-ns#"
   xmlns:svg="http://www.w3.org/2000/svg"
   xmlns="http://www.w3.org/2000/svg"
   xmlns:sodipodi="http://sodipodi.sourceforge.net/DTD/sodipodi-0.dtd"
   xmlns:inkscape="http://www.inkscape.org/namespaces/inkscape"
   width="300"
   height="300"
   id="svg2"
   version="1.1"
   inkscape:version="0.48.2 r9819"
   sodipodi:docname="Nouveau document 1">
  <defs
     id="defs4" />
  <sodipodi:namedview
     id="base"
     pagecolor="#ffffff"
     bordercolor="#666666"
     borderopacity="1.0"
     inkscape:pageopacity="0.0"
     inkscape:pageshadow="2"
     inkscape:zoom="2.8"
     inkscape:cx="145.48442"
     inkscape:cy="178.56855"
     inkscape:document-units="px"
     inkscape:current-layer="layer1"
     showgrid="false"
     inkscape:window-width="1280"
     inkscape:window-height="999"
     inkscape:window-x="0"
     inkscape:window-y="24"
     inkscape:window-maximized="1" />
  <metadata
     id="metadata7">
    <rdf:RDF>
      <cc:Work
         rdf:about="">
        <dc:format>image/svg+xml</dc:format>
        <dc:type
           rdf:resource="http://purl.org/dc/dcmitype/StillImage" />
        <dc:title></dc:title>
      </cc:Work>
    </rdf:RDF>
  </metadata>
  <g
     inkscape:label="Calque 1"
     inkscape:groupmode="layer"
     id="layer1"
     transform="translate(0,-752.36218)">
    <path
       style="fill:#000000"
       d="m 202.46455,1008.5221 c -16.56554,-12.11223 -25.91534,-21.13086 -31.24419,-30.13754 -2.4698,-4.17441 -6.10907,-9.71506 -8.08725,-12.31256 -1.98472,-2.60608 -2.44041,-7.46557 -1.01675,-10.84262 3.40184,-8.06948 3.42942,-17.25636 0.0822,-27.38158 -5.91809,-17.90205 16.40404,-31.2488 54.14983,-32.37704 17.59675,-0.52597 19.31005,-0.16323 20.33243,4.30481 0.99833,4.36296 -0.36378,4.87918 -12.87436,4.87918 -25.71733,0 -42.39621,6.33737 -42.39621,16.10903 0,6.56156 3.05168,6.93964 14.37754,1.78129 24.35475,-11.09235 45.75942,-14.62628 49.7264,-8.20988 2.26566,3.66461 -12.47245,10.88891 -29.88473,14.64883 -25.24454,5.45118 -26.78106,14.70416 -2.44173,14.70416 3.71211,0 9.47933,0.9046 12.81605,2.01022 3.33673,1.10563 8.81815,2.53876 12.18095,3.18473 3.36279,0.64598 6.11417,3.20102 6.11417,5.67787 0,4.02283 -1.39805,4.34454 -13.1018,3.01489 -7.20599,-0.81866 -19.62442,-2.68929 -27.59651,-4.15695 -21.02238,-3.87023 -24.02957,-1.89755 -18.67772,12.25235 5.19423,13.73313 8.60294,18.16331 19.68089,25.57856 4.53795,3.03756 8.25081,6.11539 8.25081,6.83959 0,0.72422 3.14444,3.56706 6.98763,6.31736 3.8432,2.7504 6.98763,6.8031 6.98763,9.0059 0,6.8093 -11.52837,4.4953 -24.36529,-4.8906 z m -137.514761,0.9446 c -6.389808,-3.966 -0.982135,-9.91483 14.933446,-16.42793 21.321605,-8.72542 31.650745,-19.94388 31.650745,-34.37585 0,-8.79802 -1.08759,-10.63769 -6.28887,-10.63769 -3.45887,0 -7.804823,0.94091 -9.657663,2.09093 -3.772858,2.34171 -16.961062,3.23352 -39.081042,2.64271 -13.121649,-0.35047 -14.84871,-0.99562 -14.84871,-5.54684 0,-6.05433 9.802544,-7.8609 42.653646,-7.8609 15.056728,0 20.437459,-0.75009 19.444649,-2.71066 -2.2069,-4.35804 -24.312801,-10.29346 -38.350656,-10.29711 -15.991529,-0.004 -30.735267,-3.96625 -30.735267,-8.25949 0,-2.68732 4.355655,-2.99438 26.210589,-1.84773 21.892163,1.1486 36.458426,3.69755 55.020584,9.62807 1.4412,0.46046 2.62036,-2.14913 2.62036,-5.79909 0,-8.24062 -8.78807,-12.12744 -38.778012,-17.15091 -12.085774,-2.02442 -21.275686,-4.65661 -20.422026,-5.8493 0.853661,-1.19268 12.841686,-2.05481 26.640057,-1.91582 20.785011,0.20934 26.894041,1.13918 35.618281,5.42131 5.79169,2.84273 10.61733,6.40164 10.72365,7.90869 0.10632,1.50704 1.97509,4.51091 4.15281,6.67526 3.03932,3.02066 2.56498,7.17148 -2.04109,17.8609 -3.30032,7.65914 -5.84025,15.38947 -5.64428,17.1785 1.76201,16.08556 -3.05425,28.73426 -14.44995,37.94917 -22.851122,18.47808 -41.192773,26.39998 -49.371251,21.32378 z M 208.65914,874.83754 c -0.68953,-9.24333 -0.25338,-18.75773 0.96923,-21.1431 3.1237,-6.09451 0.29034,-9.75836 -7.54638,-9.75836 -4.86064,0 -6.82697,1.63487 -7.17249,5.96344 -1.17117,14.67236 -1.95415,19.51871 -4.46256,27.6213 -2.55375,8.24906 -2.91745,8.44851 -7.90842,4.33704 -5.91355,-4.87146 -4.44909,-22.7118 3.09606,-37.71698 3.40827,-6.77806 6.30306,-8.82716 13.1737,-9.32505 13.19606,-0.95627 13.28281,-8.4134 0.15132,-13.00626 -6.21397,-2.1734 -10.56171,-5.46825 -10.56171,-8.00399 0,-2.37046 -1.57222,-4.91302 -3.49382,-5.65015 -4.57467,-1.75483 -4.49387,-15.38924 0.12293,-20.74353 5.87942,-6.81862 10.35851,-4.81996 10.35851,4.62217 0,9.25637 4.89938,17.20563 10.60437,17.20563 1.90093,0 3.37089,-8.03795 3.37089,-18.43246 0,-10.13785 1.37971,-18.43245 3.06601,-18.43245 5.12808,0 11.0278,5.68095 10.39699,10.01145 -0.32719,2.24618 -0.34578,10.18293 -0.0413,17.63723 0.48985,11.99306 1.35797,13.55327 7.5412,13.55327 6.32214,0 6.98763,-1.44568 6.98763,-15.17966 0,-13.73399 0.66549,-15.17967 6.98763,-15.17967 6.32214,0 6.98763,1.44568 6.98763,15.17967 0,15.80856 -1.82488,18.13223 -20.38658,25.95887 -9.52344,4.01562 -10.03786,10.90603 -0.81421,10.90603 3.71234,0 10.00121,2.83419 13.97525,6.2982 5.94811,5.18471 7.22554,9.57098 7.22554,24.81005 0,18.19482 -3.43905,24.00625 -11.31384,19.11856 -5.05978,-3.14048 -9.12858,-20.98384 -5.6617,-24.8289 2.8795,-3.19362 -3.62231,-14.50781 -8.35461,-14.53837 -3.178,-0.0205 -3.68277,3.74652 -2.70358,20.17664 0.72426,12.15254 -4.76522,25.34544 -10.54607,25.34544 -1.53666,0 -3.35808,-7.56272 -4.0476,-16.80606 z M 83.255332,886.76443 c -0.180491,-1.49087 -0.05262,-11.73714 0.284117,-22.76951 0.575365,-18.85048 0.184085,-20.05884 -6.495273,-20.05884 -8.664708,0 -14.37515,10.85592 -14.404112,27.38315 -0.01259,7.18666 -1.858364,12.06646 -5.218863,13.79751 -7.672367,3.95215 -9.784383,-1.30739 -8.224414,-20.48121 1.439863,-17.69759 9.511609,-27.70247 23.382302,-28.98224 8.581044,-0.79172 10.12131,-6.41118 2.26984,-8.28121 -4.373313,-9.44518 -11.427057,-7.93296 -13.943242,-19.75878 -1.178674,-5.66527 -2.781426,-12.20138 -3.561671,-14.52469 -1.421114,-4.23162 3.67916,-9.8712 8.927224,-9.8712 3.836234,0 10.043235,12.36571 11.154904,22.22302 1.786244,15.83889 6.15732,7.85081 6.15732,-11.25242 0,-19.45337 2.990327,-24.40334 11.953194,-19.78643 3.459201,1.78188 4.286983,7.37049 3.213467,21.69511 -0.795301,10.61223 0.0052,19.85169 1.779235,20.53215 6.43231,2.46743 10.75772,-4.69165 11.74421,-19.43811 0.78009,-11.66097 2.18949,-15.05758 6.24803,-15.05758 8.27943,0 9.44711,34.8366 1.35373,40.38735 -3.2618,2.23706 -7.37138,4.06739 -9.13241,4.06739 -1.76103,0 -5.6536,1.52172 -8.65015,3.38161 -4.935154,3.06313 -4.767873,3.49204 1.77617,4.5542 10.98327,1.7827 22.48448,18.8146 21.06397,31.19321 -0.78412,6.83305 -0.19541,9.82067 1.19024,11.80001 3.09588,-2.07202 21.04672,-24.19242 10.08759,-29.97461 -5.8239,-3.07277 -4.46058,-7.94328 2.01513,-7.94328 3.15095,0 7.53918,1.53652 9.75162,3.41449 3.51798,2.98614 4.63192,2.70787 8.87949,-2.21822 2.67128,-3.09799 6.53718,-5.27568 8.5909,-4.83931 4.25769,0.90467 2.99381,10.19317 -1.80876,13.29297 -7.00901,4.52394 -1.48183,20.79343 8.61076,25.34614 1.68739,0.76117 1.98765,2.46888 0.66726,3.79491 -3.36737,3.38176 -12.46977,3.01261 -12.46977,-0.50572 0,-1.60418 -3.05524,-4.63283 -6.78943,-6.73034 -6.56967,-3.69021 -6.9597,-3.56071 -12.05007,4.00096 -2.89335,4.29803 -10.60338,7.18325 -13.58383,7.18325 -2.98045,0 -1.50466,0.59703 -1.50466,1.78972 0,1.19269 -3.92992,3.17868 -7.49853,3.17868 -5.61289,0 -6.74278,-2.30362 -8.37369,-17.07227 -1.63904,-14.84222 -7.56522,-28.28066 -11.417108,-25.88988 -0.690989,0.42887 -2.175772,9.9162 -3.299526,21.08293 -1.12375,11.16674 -2.882128,21.1457 -3.907503,22.17545 -2.78364,2.79554 -8.392721,2.2592 -8.767691,-0.83836 z m 46.996808,-53.7631 c -2.52711,-1.56851 -1.13652,-5.33263 4.54196,-12.2944 9.54387,-11.70068 10.13915,-17.37659 2.94348,-28.06564 -2.88239,-4.28176 -5.24072,-10.10543 -5.24072,-12.9415 0,-9.41351 11.01112,-4.93318 15.30698,6.22827 2.94848,7.66075 5.96411,7.50502 13.48439,-0.69632 5.94581,-6.48428 13.1344,-6.95937 13.1344,-0.86805 0,1.68237 -3.14443,6.53364 -6.98763,10.7806 -8.62085,9.52656 -8.62012,10.03921 0.03,21.15172 6.02069,7.73449 6.32166,9.44738 2.11835,12.05627 -4.20331,2.60889 -5.57264,2.18316 -9.6381,-2.99652 -7.02466,-8.94991 -11.94075,-8.64227 -18.24818,1.14193 -6.24768,9.69154 -6.27962,9.70969 -11.44504,6.50364 z"
       id="path2996"
       inkscape:connector-curvature="0"
       sodipodi:nodetypes="csssssssssssssssssssscsccsssssssssssssssssssssssscsssssssssssssssssssssssssssssscccssssssccsssssscssssssscssssssssssssssscssccssssssssssscc" />
  </g>
</svg>
