<?xml version="1.0" encoding="UTF-8" standalone="no"?>
<!-- Created with Inkscape (http://www.inkscape.org/) -->

<svg
   xmlns:dc="http://purl.org/dc/elements/1.1/"
   xmlns:cc="http://creativecommons.org/ns#"
   xmlns:rdf="http://www.w3.org/1999/02/22-rdf-syntax-ns#"
   xmlns:svg="http://www.w3.org/2000/svg"
   xmlns="http://www.w3.org/2000/svg"
   xmlns:sodipodi="http://sodipodi.sourceforge.net/DTD/sodipodi-0.dtd"
   xmlns:inkscape="http://www.inkscape.org/namespaces/inkscape"
   width="300"
   height="300"
   id="svg2"
   version="1.1"
   inkscape:version="0.48.4 r9939"
   sodipodi:docname="image-seal.svg">
  <defs
     id="defs4" />
  <sodipodi:namedview
     id="base"
     pagecolor="#ffffff"
     bordercolor="#666666"
     borderopacity="1.0"
     inkscape:pageopacity="0.0"
     inkscape:pageshadow="2"
     inkscape:zoom="2.0018437"
     inkscape:cx="145.03351"
     inkscape:cy="130.6666"
     inkscape:document-units="px"
     inkscape:current-layer="layer1"
     showgrid="false"
     inkscape:window-width="1215"
     inkscape:window-height="1000"
     inkscape:window-x="65"
     inkscape:window-y="24"
     inkscape:window-maximized="1"
     fit-margin-top="10"
     fit-margin-left="10"
     fit-margin-right="10"
     fit-margin-bottom="10" />
  <metadata
     id="metadata7">
    <rdf:RDF>
      <cc:Work
         rdf:about="">
        <dc:format>image/svg+xml</dc:format>
        <dc:type
           rdf:resource="http://purl.org/dc/dcmitype/StillImage" />
        <dc:title />
      </cc:Work>
    </rdf:RDF>
  </metadata>
  <g
     inkscape:label="Calque 1"
     inkscape:groupmode="layer"
     id="layer1"
     transform="translate(0,-752.36218)">
    <path
       style="fill:#000000"
       d="m 180.41334,1046.4206 c -0.8778,-0.8776 -1.596,-21.8206 -1.596,-46.5398 0,-37.69024 -0.63119,-44.94374 -3.91095,-44.94374 -8.34488,0 -17.36812,29.22425 -17.4168,56.40924 -0.0222,12.3783 -1.22551,18.6857 -4.00499,20.9925 -3.22626,2.6774 -4.29687,2.4542 -5.69429,-1.1873 -1.50651,-3.9258 -0.21346,-37.88572 2.34854,-61.6798 1.16009,-10.77415 10.7774,-23.93395 20.7015,-28.32678 8.01425,-3.54746 11.19211,-12.90717 4.3823,-12.90717 -5.32785,0 -20.65694,-8.1317 -21.944,-11.64076 -0.61404,-1.67413 -1.57885,-9.5587 -2.14403,-17.52129 -0.84493,-11.90388 -2.27268,-15.38438 -8.03188,-19.57967 -6.3151,-4.60023 -7.00428,-6.80672 -7.00428,-22.42485 0,-19.27193 2.82699,-24.04788 15.7664,-26.63573 9.38547,-1.8771 21.61262,0.61534 21.61262,4.4056 0,1.44048 -3.04594,2.61906 -6.76876,2.61906 -7.35786,0 -19.93054,7.05978 -19.93054,11.19137 0,1.41207 3.92207,2.22952 8.71572,1.81651 4.79364,-0.41299 10.20025,0.1666 12.01468,1.28797 6.64719,4.1082 3.00054,7.0636 -8.71571,7.0636 -10.11297,0 -12.01469,0.82028 -12.01469,5.18228 0,6.89331 4.52211,9.39207 17.10625,9.45236 13.00632,0.0622 15.29396,5.14583 4.07557,9.05659 -6.08082,2.11976 -7.97475,4.12531 -6.79616,7.19666 0.89866,2.34188 1.63392,8.34193 1.63392,13.33347 0,7.4981 1.18175,9.37213 6.79917,10.78198 3.73954,0.93859 7.43307,1.07259 8.20786,0.29781 0.77478,-0.77479 2.30393,-19.90604 3.39811,-42.51389 1.09418,-22.60785 2.84573,-42.49072 3.89233,-44.18418 1.0466,-1.69343 3.66664,-2.40216 5.82231,-1.57496 3.22534,1.2377 3.91939,9.25451 3.91939,45.27222 0,43.62141 0.02,43.76807 6.00734,43.72732 9.63319,-0.0657 12.53153,-3.45473 14.3595,-16.79106 1.65998,-12.11086 1.48659,-12.5373 -5.09682,-12.5373 -12.18151,0 -10.02973,-6.47068 3.15025,-9.47323 10.42795,-2.3756 12.40933,-3.86523 13.11398,-9.85931 0.78507,-6.678 0.1335,-7.1054 -12.01468,-7.88131 -15.75593,-1.00635 -15.89195,-6.16028 -0.1626,-6.16028 12.49898,0 15.36029,-2.06182 13.37848,-9.64032 -1.00768,-3.85335 -3.76703,-5.0443 -11.68743,-5.0443 -10.89174,0 -14.72521,-5.04785 -4.36098,-5.74248 22.9457,-1.53788 31.37168,4.69841 31.37168,23.219 0,15.04153 -3.69823,24.36151 -10.52679,26.5288 -4.6802,1.48544 -5.50537,3.98789 -5.5777,16.91553 -0.11267,20.12767 -8.29302,29.85679 -25.10391,29.85679 -4.97344,0 -6.85035,1.40348 -6.85035,5.12237 0,3.5497 4.02349,6.94075 13.10495,11.04507 14.04384,6.34702 13.49965,5.32115 21.43944,40.41586 6.81964,30.14375 1.52213,57.29265 -9.10561,46.66475 -3.03993,-3.0397 -4.08313,-10.0803 -4.09423,-27.6319 -0.0214,-35.07665 -6.8166,-54.25671 -19.22021,-54.25671 -4.78045,0 -5.01804,2.30618 -4.33221,42.05141 0.3991,23.1283 -0.18807,44.6436 -1.30482,47.812 -2.09445,5.9425 -8.09861,9.7725 -10.9109,6.96 z m -87.860504,-8.0483 c -3.555039,-6.2342 -4.088026,-27.1371 -2.093428,-82.10028 1.681656,-46.33985 1.450613,-62.24775 -0.941554,-64.82893 -5.360686,-5.78424 -11.448109,4.3318 -13.304896,22.11004 -0.920213,8.81077 -2.403728,36.73365 -3.296705,62.05084 -1.244788,35.29163 -2.520596,46.77573 -5.468247,49.22193 -5.361178,4.4495 -8.246665,-0.8701 -7.254602,-13.3742 0.427237,-5.3849 1.443368,-24.20849 2.25807,-41.83003 3.586889,-77.58241 5.296475,-87.72689 15.320189,-90.9083 14.808804,-4.70012 16.732959,-17.00919 3.751691,-24.00008 -10.87989,-5.85919 -11.728826,-8.57967 -12.465855,-39.94758 -0.646767,-27.52629 1.501345,-37.91064 6.913123,-33.41928 2.505182,2.07912 3.397913,10.40346 3.137603,29.25683 -0.31023,22.46882 0.384016,27.17725 4.712444,31.96011 2.791951,3.08505 5.682754,5.00273 6.42401,4.26147 0.741255,-0.74125 1.882125,-18.47028 2.535264,-39.39784 1.218554,-39.04431 3.360831,-47.51886 10.511977,-41.58393 3.17958,2.6388 3.57954,9.73855 2.25796,40.08188 -1.54836,35.55018 -1.41551,36.87503 3.69759,36.87503 7.81571,0 11.3597,-9.10228 10.75435,-27.62113 -0.90299,-27.62457 -0.21055,-33.78728 3.7963,-33.78728 5.70788,0 6.96048,6.2207 6.96048,34.56741 0,29.48126 -3.97221,38.29316 -18.72206,41.53277 -6.70447,1.47255 -7.97725,3.03611 -7.97725,9.79971 0,5.80219 1.48991,8.43722 5.33986,9.444 2.93692,0.76803 5.33986,2.45775 5.33986,3.75494 0,1.29718 1.86351,2.35853 4.14114,2.35853 10.43311,0 13.41606,33.33147 11.97896,133.85267 -0.0677,4.7346 -1.8445,7.487 -5.44038,8.4274 -2.96243,0.7745 -5.54617,0.027 -5.80326,-1.6912 -0.25487,-1.6981 -0.55524,-30.97888 -0.66749,-65.06823 -0.19869,-60.34571 -0.36059,-62.13785 -6.13725,-67.93488 -3.26325,-3.27478 -6.61903,-5.26828 -7.45729,-4.43003 -0.83826,0.83828 -1.6514,33.81192 -1.80699,73.27477 -0.15558,39.46291 -1.34759,73.85317 -2.64889,76.42297 -2.463452,4.8649 -6.378774,6.1176 -8.344724,2.6699 z M 152.30987,806.65577 c -3.04243,-8.13163 -5.53169,-17.11052 -5.53169,-19.95306 0,-9.1683 11.37957,-29.34051 16.55161,-29.34051 5.85705,0 6.06333,4.35284 0.80294,16.94274 -5.18919,12.41945 -5.06826,21.81715 0.39985,31.07393 4.78998,8.10879 3.40646,16.06166 -2.79416,16.06166 -2.28074,0 -6.19097,-6.13157 -9.42855,-14.78476 z m 65.67207,12.78231 c -14.99999,-25.04106 -16.09498,-36.06592 -5.12298,-51.58004 8.34374,-11.7978 10.08913,-12.49551 13.81996,-5.5244 2.0952,3.91492 1.26408,6.28344 -3.91097,11.14514 -3.61436,3.39551 -6.57158,8.33064 -6.57158,10.96693 0,4.42768 8.1529,21.15749 13.57064,27.84708 1.36463,1.68499 1.02718,4.16167 -0.81849,6.00734 -3.55298,3.55299 -9.17076,4.13591 -10.96658,1.13795 z m -29.83408,-2.71334 c -3.77181,-2.75286 -9.33052,-19.62049 -9.33052,-28.31301 0,-12.75477 11.33271,-31.65592 17.54976,-29.27021 5.41829,2.07918 4.71261,9.59426 -1.53017,16.29512 -6.43493,6.90706 -6.72328,13.04112 -1.13926,24.23456 6.05545,12.13844 2.53549,22.95462 -5.54981,17.05354 z"
       id="path3054"
       inkscape:connector-curvature="0" />
  </g>
</svg>
