<?xml version="1.0" encoding="UTF-8" standalone="no"?>
<!-- Created with Inkscape (http://www.inkscape.org/) -->

<svg
   xmlns:dc="http://purl.org/dc/elements/1.1/"
   xmlns:cc="http://creativecommons.org/ns#"
   xmlns:rdf="http://www.w3.org/1999/02/22-rdf-syntax-ns#"
   xmlns:svg="http://www.w3.org/2000/svg"
   xmlns="http://www.w3.org/2000/svg"
   xmlns:sodipodi="http://sodipodi.sourceforge.net/DTD/sodipodi-0.dtd"
   xmlns:inkscape="http://www.inkscape.org/namespaces/inkscape"
   width="300"
   height="300"
   id="svg2"
   version="1.1"
   inkscape:version="0.48.4 r9939"
   sodipodi:docname="image-seal.svg">
  <defs
     id="defs4" />
  <sodipodi:namedview
     id="base"
     pagecolor="#ffffff"
     bordercolor="#666666"
     borderopacity="1.0"
     inkscape:pageopacity="0.0"
     inkscape:pageshadow="2"
     inkscape:zoom="2.0018437"
     inkscape:cx="145.03351"
     inkscape:cy="130.6666"
     inkscape:document-units="px"
     inkscape:current-layer="layer1"
     showgrid="false"
     inkscape:window-width="1215"
     inkscape:window-height="1000"
     inkscape:window-x="65"
     inkscape:window-y="24"
     inkscape:window-maximized="1"
     fit-margin-top="10"
     fit-margin-left="10"
     fit-margin-right="10"
     fit-margin-bottom="10" />
  <metadata
     id="metadata7">
    <rdf:RDF>
      <cc:Work
         rdf:about="">
        <dc:format>image/svg+xml</dc:format>
        <dc:type
           rdf:resource="http://purl.org/dc/dcmitype/StillImage" />
        <dc:title />
      </cc:Work>
    </rdf:RDF>
  </metadata>
  <g
     inkscape:label="Calque 1"
     inkscape:groupmode="layer"
     id="layer1"
     transform="translate(0,-752.36218)">
    <path
       style="fill:#000000"
       d="m 232.59942,1045.3585 c -1.55317,-1.0852 -6.59196,-7.4116 -11.19731,-14.0586 -10.80392,-15.5935 -13.95952,-36.2026 -7.49147,-48.92642 7.79294,-15.33009 14.35071,-35.2534 15.71938,-47.75745 1.19638,-10.93028 0.53348,-12.76945 -6.93508,-19.24096 -9.43772,-8.17774 -11.35349,-7.20625 -19.4071,9.84114 -5.71061,12.0879 -5.73653,26.67657 -0.0628,35.33585 3.29729,5.03231 3.26912,6.23984 -0.21298,9.12983 -3.27141,2.71502 -4.7261,2.38834 -7.87211,-1.76797 -4.51696,-5.96747 -5.57536,-42.76845 -1.30593,-45.40709 5.54386,-3.42629 13.38994,-22.9222 13.38994,-33.27125 l 0,-10.68081 -9.6686,1.56899 c -6.57636,1.06721 -10.37612,0.42423 -11.88082,-2.0104 -1.63259,-2.6416 -3.14534,-2.80735 -5.77396,-0.63264 -1.95895,1.62069 -7.1874,3.35582 -11.61875,3.85578 -7.24439,0.81739 -8.05699,1.85711 -8.05699,10.3089 0,8.04722 0.97401,9.51354 6.76878,10.19011 10.45495,1.22066 13.3737,15.14806 13.3737,63.8152 0,34.20218 -0.76053,42.62239 -4.15639,46.01829 -2.28601,2.286 -4.66172,3.651 -5.27934,3.0334 -0.61765,-0.6176 -1.25891,-23.72391 -1.42504,-51.34731 -0.28657,-47.64769 -0.56687,-50.22437 -5.46332,-50.22437 -4.08409,0 -5.26637,2.10188 -5.66506,10.07124 -0.2771,5.53918 -0.82783,14.30116 -1.22383,19.47106 -0.396,5.16991 -1.07738,28.13234 -1.5142,51.02763 -0.76099,39.88675 -2.40652,50.14755 -7.53407,46.97855 -1.30268,-0.8051 -1.6689,-29.5165 -0.82267,-64.49974 1.46723,-60.65544 1.33171,-63.04874 -3.57011,-63.04874 -7.85288,0 -11.68793,22.27664 -11.68793,67.89166 0,25.20272 -0.9977,39.53482 -2.75214,39.53482 -4.71941,0 -8.29515,-13.8694 -6.87868,-26.68064 0.74562,-6.74378 2.10204,-25.55544 3.01428,-41.80371 1.90365,-33.90673 4.37549,-42.43019 13.51222,-46.59316 6.11467,-2.78603 7.20406,-5.08109 7.20406,-15.17712 0,-8.42574 -0.88874,-9.39983 -8.57614,-9.39983 -8.85565,0 -16.26626,-8.16767 -16.26626,-17.92802 0,-13.7354 12.03688,-30.22565 22.15673,-30.35421 3.32472,-0.0422 4.69992,-2.22537 4.69992,-7.46112 0,-5.62293 -1.91518,-8.24913 -7.97033,-10.9294 -5.69823,-2.52229 -8.43038,-5.98025 -9.58409,-12.13015 -2.39118,-12.746 -0.38824,-32.07494 3.45468,-33.33866 2.4736,-0.81343 3.35708,3.90241 3.35708,17.91951 0,17.23299 0.50552,19.02345 5.37133,19.02345 4.75475,0 5.41827,-1.92681 5.78038,-16.78541 0.22506,-9.23197 0.68987,-17.99395 1.03304,-19.47106 0.3432,-1.47712 0.7634,-4.80063 0.93378,-7.38558 0.17027,-2.58495 2.12261,-4.69991 4.33829,-4.69991 3.28247,0 4.02849,4.47611 4.02849,24.17098 0,19.41155 0.77286,24.17098 3.92499,24.17098 3.71033,0 6.44345,-7.28006 10.83886,-28.8709 2.95356,-14.50822 6.72147,-9.8183 6.72147,8.36622 0,18.78521 -6.50436,31.24733 -16.30891,31.24733 -3.19425,0 -5.17641,1.85113 -5.17641,4.8342 0,6.89429 5.30183,11.27979 13.6366,11.27979 10.35885,0 13.30392,5.228 13.5694,24.08781 l 0.23499,16.68533 9.03042,-1.69412 c 14.7443,-2.76604 30.67034,-14.6598 30.67034,-22.90495 0,-8.27287 4.49524,-13.65602 9.72707,-11.64837 2.4193,0.92838 3.70125,5.7995 3.70125,14.06388 0,11.73265 -0.65731,12.95702 -9.12371,16.99435 -8.14071,3.88205 -9.33115,5.85888 -11.0488,18.3476 -1.5756,11.45594 -1.13539,14.43869 2.425,16.43116 2.39249,1.33891 7.62342,5.25007 11.62425,8.69146 10.47965,9.01421 10.08891,28.74133 -1.04078,52.54341 -13.72906,29.36119 -14.8489,32.77461 -11.76417,35.85926 1.54783,1.5479 2.81422,4.5009 2.81422,6.5625 0,2.0615 2.2756,6.9561 5.0569,10.8769 5.70161,8.0376 16.42842,26.7743 16.42842,28.6958 0,1.9835 -9.09387,1.3926 -12.22377,-0.7943 z M 147.59057,856.03258 c 0.64784,-14.76616 0.0408,-18.10047 -3.29518,-18.10047 -9.80936,0 -18.45714,29.87963 -10.0812,34.83234 9.73158,5.75434 12.5442,2.2362 13.37638,-16.73187 z m 24.21223,14.49796 c 5.257,-3.33385 3.11196,-27.22869 -2.77571,-30.92013 -6.69155,-4.19547 -10.53922,0.82627 -11.3671,14.83566 -0.94232,15.94589 4.53632,22.17666 14.14281,16.08447 z M 78.462943,993.02923 c 0.083,-22.52601 1.0933,-53.56104 2.24508,-68.96671 2.15218,-28.78632 1.07738,-53.90244 -2.30661,-53.90244 -1.05208,0 -3.56251,3.32351 -5.57872,7.38558 -2.61683,5.27215 -4.11199,25.07997 -5.22496,69.22026 -1.25412,49.73864 -2.37593,63.00078 -5.73456,67.79588 -2.29649,3.2787 -4.933717,5.203 -5.860508,4.2762 -2.811944,-2.8119 0.846113,-122.30182 4.137118,-135.13827 3.4996,-13.65005 8.78435,-21.0366 17.50081,-24.46103 4.67461,-1.83649 6.04274,-4.51724 6.04274,-11.84029 0,-5.20646 -1.32411,-9.4663 -2.94249,-9.4663 -1.61839,0 -6.58888,-2.59645 -11.04558,-5.76991 l -8.10308,-5.76988 1.07045,-24.44384 c 1.11759,-25.52069 2.87565,-31.76771 8.34982,-29.66977 2.32782,0.89215 3.00614,8.06134 2.35234,24.86245 -0.74057,19.03159 -0.0959,24.2917 3.32531,27.13102 5.65709,4.69497 6.16892,2.73207 8.11009,-31.10242 1.71456,-29.88432 3.08363,-35.80758 8.27647,-35.80758 4.19629,0 6.912308,18.30148 3.6605,24.66584 -1.27115,2.48784 -2.31117,13.66691 -2.31117,24.84239 0,16.45601 0.78193,20.31904 4.1128,20.31904 2.262027,0 4.767347,-2.11496 5.567347,-4.69991 0.80004,-2.58495 2.57494,-6.79846 3.94422,-9.36338 1.36929,-2.56492 2.50812,-11.02476 2.53073,-18.79965 0.0414,-14.22215 3.3552,-23.72057 7.00301,-20.07279 2.85408,2.85411 1.44725,39.33921 -1.91171,49.57865 -1.57482,4.80063 -4.62493,8.72841 -6.778,8.72841 -7.13984,0 -17.154067,8.53851 -17.154067,14.62621 0,3.56576 2.63531,7.36184 6.57416,9.46984 7.840127,4.19592 14.857817,20.35191 14.908767,34.32266 0.0188,5.53615 0.10205,11.87856 0.18209,14.09423 0.08,2.21568 -0.46425,22.76101 -1.20925,45.6563 -0.74503,22.89529 -1.42241,47.97268 -1.50531,55.72748 -0.11334,10.614 -1.13706,14.0997 -4.14039,14.0997 -3.46472,0 -3.78539,-8.9221 -2.43734,-67.81293 1.0621,-46.40034 0.6206,-70.21404 -1.39824,-75.4169 -3.071029,-7.91455 -9.909427,-8.53163 -9.258587,-0.83548 0.20519,2.42596 -0.39911,4.4115 -1.34283,4.4123 -0.94372,8.1e-4 -2.11391,32.92552 -2.60045,73.16604 -0.84042,69.51107 -1.99185,79.91537 -8.84405,79.91537 -1.29627,0 -2.28891,-18.4304 -2.2059,-40.95637 z M 192.86601,833.42167 c -3.63717,-3.63717 -1.46363,-5.68931 7.88294,-7.44273 15.69354,-2.94413 21.47699,-6.75549 24.98911,-16.46812 3.3881,-9.36958 10.03585,-12.2032 12.64959,-5.39192 2.2287,5.80791 -6.21656,19.85681 -14.42382,23.99442 -8.73117,4.40172 -28.61097,7.79517 -31.09782,5.30835 z m -1.7561,-34.62573 c 0,-2.10895 2.02915,-3.83446 4.50923,-3.83446 16.01532,0 27.71874,-10.90898 27.71874,-25.83711 0,-5.01156 1.22829,-6.5512 4.69992,-5.89122 3.62406,0.68898 4.88452,4.08084 5.50647,14.81761 0.7002,12.08823 -0.008,14.43362 -5.37133,17.78813 -9.11445,5.70064 -37.06303,7.93049 -37.06303,2.95705 z"
       id="path3002"
       inkscape:connector-curvature="0" />
  </g>
</svg>
