<?xml version="1.0" encoding="UTF-8" standalone="no"?>
<!-- Created with Inkscape (http://www.inkscape.org/) -->

<svg
   xmlns:dc="http://purl.org/dc/elements/1.1/"
   xmlns:cc="http://creativecommons.org/ns#"
   xmlns:rdf="http://www.w3.org/1999/02/22-rdf-syntax-ns#"
   xmlns:svg="http://www.w3.org/2000/svg"
   xmlns="http://www.w3.org/2000/svg"
   xmlns:sodipodi="http://sodipodi.sourceforge.net/DTD/sodipodi-0.dtd"
   xmlns:inkscape="http://www.inkscape.org/namespaces/inkscape"
   width="300"
   height="300"
   id="svg2"
   version="1.1"
   inkscape:version="0.48.4 r9939"
   sodipodi:docname="dessin.svg">
  <defs
     id="defs4" />
  <sodipodi:namedview
     id="base"
     pagecolor="#ffffff"
     bordercolor="#666666"
     borderopacity="1.0"
     inkscape:pageopacity="0.0"
     inkscape:pageshadow="2"
     inkscape:zoom="1.979899"
     inkscape:cx="156.32962"
     inkscape:cy="101.52144"
     inkscape:document-units="px"
     inkscape:current-layer="layer1"
     showgrid="false"
     inkscape:window-width="1215"
     inkscape:window-height="1000"
     inkscape:window-x="65"
     inkscape:window-y="24"
     inkscape:window-maximized="1" />
  <metadata
     id="metadata7">
    <rdf:RDF>
      <cc:Work
         rdf:about="">
        <dc:format>image/svg+xml</dc:format>
        <dc:type
           rdf:resource="http://purl.org/dc/dcmitype/StillImage" />
        <dc:title />
      </cc:Work>
    </rdf:RDF>
  </metadata>
  <g
     inkscape:label="Calque 1"
     inkscape:groupmode="layer"
     id="layer1"
     transform="translate(0,-752.36218)">
    <path
       style="fill:#000000"
       d="m 80.345035,1034.1433 c -0.432911,-3.3241 -0.01971,-14.505 0.920035,-24.8465 0.938929,-10.34149 2.926989,-38.60283 4.417923,-62.80298 1.490936,-24.20011 2.939601,-45.20209 3.219275,-46.67107 0.279673,-1.46895 -0.812023,-3.20119 -2.42602,-3.84943 -5.263102,-2.11386 -10.613156,14.17976 -10.613156,32.32236 0,23.86429 -4.676709,71.44414 -7.609831,77.42062 -1.329002,2.708 -4.099577,4.9236 -6.156829,4.9236 -3.214027,0 -3.525501,-4.2532 -2.213076,-30.21872 0.84008,-16.62026 2.562285,-36.01972 3.827147,-43.10989 1.26486,-7.09015 2.299731,-17.6257 2.299731,-23.41228 0,-14.87812 6.476899,-28.03643 16.319807,-33.15491 6.938235,-3.60801 8.311231,-5.77287 8.305689,-13.09586 -0.0049,-7.38725 -1.464947,-9.62204 -9.237055,-14.14552 l -9.230405,-5.37221 -0.747093,-24.17494 c -0.874466,-28.29696 0.894394,-41.63463 5.521593,-41.63463 5.109298,0 6.174071,6.0977 4.61222,26.41325 -1.629022,21.189 0.207649,32.68106 5.222977,32.68106 4.108667,0 6.362803,-12.81997 8.491391,-48.29311 1.281462,-21.35593 2.232608,-25.66165 5.834522,-26.41209 6.08537,-1.26789 9.62907,10.15383 6.65678,21.45546 -1.28646,4.89144 -2.33899,18.8737 -2.33899,31.07165 0,17.66315 0.73286,22.17809 3.59989,22.17809 4.28661,0 7.71653,-13.04325 10.06551,-38.277 1.42565,-15.31521 2.40839,-18.13121 6.32728,-18.13121 4.22149,0 4.63947,2.32214 4.63947,25.77488 0,21.75215 -0.79505,26.99246 -5.09415,33.57631 -2.80182,4.29078 -7.23559,7.80145 -9.85286,7.80145 -2.61729,0 -4.75871,1.06777 -4.75871,2.37281 0,1.30504 -2.36087,3.04608 -5.24635,3.86892 -3.63258,1.03589 -4.76911,2.85233 -3.69483,5.90517 0.85334,2.42502 1.55154,6.06665 1.55154,8.09255 0,2.02588 3.83882,5.66991 8.5307,8.09783 4.69188,2.4279 9.062,6.41304 9.71135,8.85587 1.91126,7.19008 0.2111,122.34997 -1.86023,126.00477 -1.04129,1.8373 -3.49054,3.3406 -5.44273,3.3406 -2.98471,0 -3.54945,-9.5636 -3.54945,-60.1085 0,-50.57638 -0.59536,-60.64728 -3.75436,-63.50623 -2.06489,-1.86878 -4.16613,-2.92334 -4.66947,-2.34347 -0.50331,0.57988 -1.55012,10.1199 -2.326231,21.20008 -0.776111,11.08019 -2.496148,35.85951 -3.822294,55.06515 -3.917743,56.73767 -6.183753,71.18177 -11.167009,71.18177 -1.912119,0 -3.830791,-2.7197 -4.263701,-6.0437 z m 127.196735,1.3019 c -1.41157,-1.0854 -4.0349,-7.4128 -5.82959,-14.0609 -1.79469,-6.6481 -4.24222,-15.5919 -5.43893,-19.8751 -1.19672,-4.2832 -2.17585,-13.51196 -2.17585,-20.50838 0,-10.77099 -0.99253,-13.42994 -6.47532,-17.34748 -6.03705,-4.31357 -6.38074,-5.62633 -5.07765,-19.39446 0.76872,-8.12228 2.08023,-15.51204 2.91445,-16.42175 2.29222,-2.49966 6.0949,5.39378 6.1376,12.74017 0.0544,9.36919 2.43733,5.37186 3.82046,-6.40891 2.43859,-20.77012 8.53332,-18.79733 8.53332,2.76213 0,8.03827 0.70914,14.61504 1.57586,14.61504 3.3989,0 8.12432,-9.78967 8.19867,-16.98511 0.11818,-11.4424 8.44656,-8.67531 9.48838,3.1525 1.18504,13.45408 -5.68081,27.26313 -13.55525,27.26313 -6.14707,0 -6.32208,0.43904 -4.84847,12.16328 0.84088,6.68977 4.35038,21.32904 7.79894,32.53174 4.8309,15.6932 5.61839,21.2247 3.43082,24.0991 -3.19817,4.2022 -4.80005,4.518 -8.49744,1.675 z m -79.95117,-2.6848 c 0,-1.1298 2.33506,-6.8052 5.18901,-12.6119 12.01085,-24.43747 15.35021,-50.05289 7.50165,-57.54347 -2.50351,-2.38932 -5.96936,-10.82629 -7.70189,-18.74883 -2.6352,-12.0503 -2.59575,-14.78746 0.24116,-16.74702 5.65001,-3.90257 7.08607,-2.78647 7.08607,5.50725 0,8.84594 4.59905,21.61523 7.78502,21.61523 1.13731,0 2.06784,-4.68389 2.06784,-10.40866 0,-5.72476 0.68557,-14.14663 1.52347,-18.71529 1.2942,-7.05653 0.60012,-8.76543 -4.61207,-11.35517 -7.04002,-3.49789 -11.69068,-17.2536 -11.69068,-34.57854 0,-8.85263 1.52499,-12.97395 7.01668,-18.96258 6.87532,-7.49742 7.58836,-7.65552 35.3864,-7.84551 27.47164,-0.18776 28.57506,0.0301 34.85796,6.88148 5.63369,6.1435 6.48825,9.30098 6.48825,23.97322 0,16.12904 -0.40275,17.25986 -8.8524,24.855 -7.67397,6.89792 -11.60873,8.20753 -29.55857,9.83806 -19.49494,1.77086 -24.33635,4.00721 -17.9675,8.29955 1.77984,1.19951 2.1908,6.66259 1.17379,15.60362 -1.09675,9.64233 -0.82202,12.55259 0.91844,9.72872 1.3658,-2.21603 2.50026,-5.4614 2.52102,-7.21193 0.0198,-1.75054 1.14808,-6.36755 2.50522,-10.26009 2.19206,-6.28725 2.87947,-6.62804 6.15803,-3.05281 2.02979,2.21346 3.69053,7.07579 3.69053,10.8052 0,7.42752 -4.71931,20.46404 -7.40814,20.46404 -6.264,0 -17.2228,17.40323 -17.22602,27.356 -0.003,9.39215 -8.51698,31.90833 -14.72509,38.94213 -5.30654,6.0124 -12.36825,8.3946 -12.36825,4.1723 z m 73.02065,-130.91205 c 2.0343,-2.21838 3.32652,-6.14681 2.87162,-8.72984 -0.72715,-4.12883 -4.07269,-4.69642 -27.68135,-4.69642 -28.9708,0 -32.92522,2.01551 -23.24653,11.84851 4.63305,4.70692 8.65226,5.61117 24.94031,5.61117 13.9846,0 20.45205,-1.12849 23.11595,-4.03342 z m 2.35954,-35.53551 c -0.75763,-0.8262 -8.88344,-2.26297 -18.05734,-3.19285 -9.1739,-0.92986 -17.78824,-2.40672 -19.14301,-3.28193 -3.50119,-2.26181 -17.24251,6.77788 -17.24251,11.34291 0,2.97772 5.92225,4.10413 27.09536,5.15365 24.88911,1.2337 27.16172,0.9415 27.91019,-3.58826 0.44816,-2.71224 0.19484,-5.60732 -0.56269,-6.43352 z m -51.53947,-29.17529 c -0.85414,-5.73968 -4.09801,-12.14426 -8.0054,-15.80558 -5.05893,-4.74036 -6.66829,-8.85195 -6.99965,-17.88266 -0.47286,-12.8875 2.7041,-26.50057 6.18457,-26.50057 1.22225,0 2.22226,7.18113 2.22226,15.95808 0,8.77697 1.05283,16.66769 2.33964,17.53493 4.09596,2.76051 7.65425,-8.75337 6.06163,-19.61426 -1.92351,-13.11746 2.47413,-23.89872 7.78695,-19.0905 2.57298,2.32862 3.3603,8.31027 2.90725,22.08751 -0.40846,12.42021 0.35228,19.25565 2.22024,19.94942 1.89846,0.70507 2.8745,-3.57618 2.94073,-12.89911 0.10253,-14.41407 2.81814,-20.54503 7.65624,-17.28437 1.67264,1.12731 2.32547,6.3398 1.63594,13.06218 -0.63107,6.15248 -1.23279,13.93592 -1.33713,17.29654 -0.12268,3.95395 -2.38511,7.02045 -6.41086,8.68952 -6.34468,2.63052 -7.03164,3.82617 -9.63092,16.76199 -2.12505,10.57571 -7.86281,9.21907 -9.57149,-2.26312 z m 44.16122,5.40106 c -0.82233,-2.33686 -1.49514,-6.27674 -1.49514,-8.75522 0,-2.47853 -2.21689,-6.01615 -4.92642,-7.8614 -4.21424,-2.86997 -4.92644,-6.26408 -4.92644,-23.47801 0,-16.09641 0.73933,-20.12304 3.69483,-20.12304 4.12347,0 4.6312,2.22718 3.82731,16.78816 -0.3218,5.82852 0.57105,10.0729 2.11891,10.0729 1.47126,0 2.79653,-3.32407 2.94507,-7.38679 0.96316,-26.3475 2.85218,-33.49117 8.25797,-31.22906 3.01567,1.26193 3.78806,6.45588 3.78806,25.4727 0,13.13815 0.93299,23.88756 2.07332,23.88756 2.20643,0 7.77954,-17.90915 7.77954,-24.99958 0,-5.89955 5.03406,-8.68598 7.62431,-4.2202 1.94902,3.36024 1.44857,12.02903 -1.64572,28.50735 -0.67618,3.60093 -3.58122,6.67448 -7.26037,7.68145 -3.71611,1.01707 -7.69492,5.26756 -10.09601,10.78533 -4.22746,9.71483 -9.31108,11.81491 -11.75922,4.85785 z"
       id="path3262"
       inkscape:connector-curvature="0" />
  </g>
</svg>
