<?xml version="1.0" encoding="UTF-8" standalone="no"?>
<!-- Created with Inkscape (http://www.inkscape.org/) -->

<svg
   xmlns:dc="http://purl.org/dc/elements/1.1/"
   xmlns:cc="http://creativecommons.org/ns#"
   xmlns:rdf="http://www.w3.org/1999/02/22-rdf-syntax-ns#"
   xmlns:svg="http://www.w3.org/2000/svg"
   xmlns="http://www.w3.org/2000/svg"
   xmlns:sodipodi="http://sodipodi.sourceforge.net/DTD/sodipodi-0.dtd"
   xmlns:inkscape="http://www.inkscape.org/namespaces/inkscape"
   width="300"
   height="300"
   id="svg2"
   version="1.1"
   inkscape:version="0.48.4 r9939"
   sodipodi:docname="image-seal.svg">
  <defs
     id="defs4" />
  <sodipodi:namedview
     id="base"
     pagecolor="#ffffff"
     bordercolor="#666666"
     borderopacity="1.0"
     inkscape:pageopacity="0.0"
     inkscape:pageshadow="2"
     inkscape:zoom="1.979899"
     inkscape:cx="197.63697"
     inkscape:cy="133.25325"
     inkscape:document-units="px"
     inkscape:current-layer="layer1"
     showgrid="false"
     inkscape:window-width="1215"
     inkscape:window-height="1000"
     inkscape:window-x="65"
     inkscape:window-y="24"
     inkscape:window-maximized="1"
     fit-margin-top="10"
     fit-margin-left="10"
     fit-margin-right="10"
     fit-margin-bottom="10" />
  <metadata
     id="metadata7">
    <rdf:RDF>
      <cc:Work
         rdf:about="">
        <dc:format>image/svg+xml</dc:format>
        <dc:type
           rdf:resource="http://purl.org/dc/dcmitype/StillImage" />
        <dc:title />
      </cc:Work>
    </rdf:RDF>
  </metadata>
  <g
     inkscape:label="Calque 1"
     inkscape:groupmode="layer"
     id="layer1"
     transform="translate(0,-752.36218)">
    <path
       style="fill:#000000"
       d="m 80.961718,1010.5345 c 0.78821,-20.31002 2.12078,-52.06926 2.96133,-70.57612 0.9568,-21.06725 0.44925,-34.31572 -1.35745,-35.43234 -1.58713,-0.9809 -2.90554,-5.26925 -2.92978,-9.52965 -0.023,-4.26039 -1.1514,-9.49348 -2.50481,-11.62912 -3.62403,-5.71868 -5.66082,9.87472 -6.14707,47.06147 -0.97909,74.87856 -1.90852,90.42796 -5.67633,94.96806 -7.99338,9.6314 -9.45155,-1.0495 -8.91268,-65.28473 0.58725,-70.00343 2.61417,-82.77937 15.15312,-95.51232 9.98455,-10.13897 10.12845,-13.43594 0.93542,-21.42918 -3.95803,-3.44147 -7.19642,-7.56113 -7.19642,-9.15482 0,-1.59366 -1.7124,-2.8976 -3.80532,-2.8976 -2.86754,0 -3.92352,-7.05692 -4.28495,-28.63613 -0.26368,-15.74986 0.65416,-29.33684 2.03987,-30.19327 5.62596,-3.47702 8.54206,7.08792 9.24616,33.4985 0.69025,25.89041 1.10897,27.64878 5.96491,25.04996 4.59719,-2.46035 5.1978,-6.73908 5.01611,-35.7329 -0.21705,-34.64558 0.84909,-39.69793 8.07608,-38.26866 4.30749,0.85188 6.40714,12.45562 6.40947,35.42184 4.9e-4,4.74964 0.76648,13.01432 1.70219,18.36598 2.674422,15.29605 6.914612,6.77618 7.749192,-15.5706 0.6332,-16.95428 1.57115,-20.15778 6.15916,-21.03623 6.58265,-1.26041 10.31693,4.03615 10.37585,14.71676 l 0.044,7.99019 30.6965,-0.79377 c 22.57667,-0.5838 31.01591,0.15803 31.90412,2.80445 0.7501,2.235 -1.493,3.59821 -5.9207,3.59821 -7.89171,0 -10.62283,4.63832 -10.62283,18.04096 0,4.96743 -2.5518,11.65063 -5.74715,15.05191 -3.59778,3.82968 -6.30323,11.70403 -7.23404,21.05514 -1.43635,14.42957 -1.24089,14.93761 5.74712,14.93761 6.74313,0 7.23407,-0.95819 7.23407,-14.11891 l 0,-14.11895 11.51427,1.54441 c 10.59393,1.42095 11.53508,0.99639 11.77469,-5.31141 0.14336,-3.7707 0.73916,-21.10471 1.32423,-38.52005 1.2932,-38.49342 2.73444,-45.31257 9.31283,-44.06295 3.90138,0.74108 5.23603,5.00954 6.37393,20.385 0.7916,10.69622 2.4108,19.42795 3.59821,19.40388 1.18741,-0.023 3.45428,-0.0438 5.03749,-0.0438 1.58321,0 2.87857,-6.3382 2.87857,-14.08486 0,-10.21967 1.2562,-14.56691 4.57761,-15.84148 7.17967,-2.75508 9.81523,0.59201 9.81523,12.465 0,22.96458 -2.64328,28.69034 -14.7497,31.95026 -10.44753,2.81323 -11.15741,3.69329 -11.15741,13.83198 0,14.59806 3.96148,17.87217 19.11176,15.7956 10.00691,-1.37161 12.8009,-0.7615 14.29056,3.12054 2.46901,6.43411 1.83664,6.8195 -14.76273,8.99624 -16.85788,2.21065 -19.88083,4.40677 -17.29228,12.56259 2.29833,7.24138 5.21242,7.53983 14.45951,1.48091 3.83269,-2.51127 8.32087,-3.7302 9.97369,-2.70868 5.3782,3.32391 3.17232,11.96949 -4.03858,15.82867 -8.83772,4.7298 -11.08749,10.36785 -7.10583,17.80763 4.85972,9.08047 14.85217,19.69545 18.5404,19.69545 4.66017,0 12.88058,9.59294 12.88058,15.03116 0,8.35593 -8.00576,7.65529 -23.39415,-2.04738 -8.42004,-5.30898 -16.40314,-8.97659 -17.74024,-8.15024 -3.19705,1.97591 0.4608,49.12388 5.6548,72.8879 6.99921,32.02289 7.68224,39.95829 3.8382,44.59019 -5.38442,6.4877 -6.90603,5.4693 -10.88723,-7.2868 -9.96595,-31.9323 -15.53532,-73.24547 -13.76005,-102.07128 2.64944,-43.02054 2.31535,-51.71646 -2.42245,-63.05566 -4.85197,-11.61237 -16.13164,-14.917 -16.13164,-4.72612 0,10.39526 -6.37401,19.96347 -14.48585,21.74513 -8.29997,1.82297 -12.1654,10.90506 -9.30183,21.85533 1.89076,7.23024 6.51627,7.02687 6.51627,-0.28642 0,-3.83658 1.91906,-5.75713 5.75265,-5.75713 5.53338,0 5.71182,1.57241 4.68141,41.25767 -1.17549,45.27392 -4.93127,58.93938 -17.8116,64.80818 -5.85296,2.6667 -8.01609,2.319 -12.31509,-1.9802 -2.86823,-2.8682 -7.44921,-6.0723 -10.17991,-7.12012 -3.75958,-1.44274 -4.94227,-5.23295 -4.87151,-15.6122 0.12262,-17.97637 -1.37124,-33.73278 -3.52892,-37.22391 -2.01483,-3.26007 0.0322,-40.47474 2.44065,-44.37174 3.14506,-5.08885 7.04664,-2.56397 7.04664,4.56017 0,5.27736 1.53523,7.19642 5.75714,7.19642 4.78116,0 5.75714,-1.91906 5.75714,-11.32029 0,-8.55392 -1.32334,-11.74029 -5.41522,-13.03902 -15.11418,-4.79704 -23.40345,-22.30072 -17.68451,-37.34271 2.53011,-6.65464 3.76744,-7.40992 7.3153,-4.46546 2.43101,2.01759 4.27015,8.35124 4.27015,14.70571 0,9.25773 0.98609,11.16182 5.7804,11.16182 5.01533,0 5.71467,-1.73667 5.28404,-13.12169 -0.3169,-8.37808 -2.19874,-14.36167 -5.20551,-16.55177 -5.3759,-3.91569 -10.85989,-17.47152 -11.1265,-27.50362 -0.0993,-3.74119 -1.00385,-7.62521 -2.00982,-8.63118 -2.86792,-2.86792 -9.99401,8.60113 -9.99401,16.08477 0,8.40291 -7.95314,20.93781 -13.28462,20.93781 -2.51072,0 -3.986792,3.19728 -3.986792,8.6357 0,5.45762 1.474002,8.63571 4.005302,8.63571 2.20291,0 6.11097,5.26259 8.68458,11.69467 3.7949,9.48442 4.80603,24.94293 5.35005,81.79298 0.36891,38.55438 -0.11543,70.88765 -1.07616,71.85165 -0.9608,0.9643 -3.87835,0.9353 -6.48342,-0.063 -3.86655,-1.4836 -4.60312,-5.4584 -4.01022,-21.6411 0.39946,-10.90288 2.02165,-19.85033 3.60486,-19.88343 1.58321,-0.0317 1.08375,-1.19662 -1.10995,-2.58611 -3.2246,-2.04205 -3.63675,-9.71286 -2.15207,-40.05037 1.71061,-34.95382 -0.80059,-56.42152 -5.992642,-51.22947 -3.21441,3.21444 -3.85713,12.38814 -5.97098,85.2242 -1.86643,64.31208 -2.49396,70.57678 -7.15888,71.47028 -4.74267,0.9084 -5.00929,-1.6961 -3.68005,-35.9482 z m 76.338232,-26.66302 c 4.30741,-8.04847 3.66013,-22.34085 -1.09446,-24.16529 -2.24085,-0.85982 -7.74611,-0.58924 -12.23391,0.60134 -6.4013,1.69835 -8.34819,4.06223 -9.0347,10.96936 -1.52176,15.31081 15.7143,25.01792 22.36307,12.59459 z m 5.01087,-39.3339 c 0.57025,-1.73923 -1.46093,-6.24687 -4.51368,-10.01687 -4.78435,-5.90843 -6.68084,-6.457 -13.73986,-3.97449 -8.96729,3.15364 -12.50683,12.11194 -6.36961,16.12093 5.21023,3.40361 23.32276,1.8371 24.62315,-2.12957 z M 150.51554,828.95923 c 3.50101,-4.61199 5.73604,-26.62675 2.70327,-26.62675 -0.71711,0 -4.60318,1.50327 -8.63571,3.34063 -7.90892,3.60354 -9.671,12.81708 -4.35202,22.75571 3.67441,6.86565 5.40748,6.95503 10.28446,0.53041 z m -23.49429,-49.90611 c -3.1961,-5.17137 2.11445,-7.6993 20.48916,-9.75325 13.99732,-1.56461 18.19396,-1.0615 21.18251,2.53945 3.17811,3.82939 2.59356,4.92151 -3.9698,7.41692 -10.2068,3.88059 -35.26142,3.74562 -37.70187,-0.20323 z"
       id="path3028"
       inkscape:connector-curvature="0" />
  </g>
</svg>
