<?xml version="1.0" encoding="UTF-8" standalone="no"?>
<svg
   xmlns:dc="http://purl.org/dc/elements/1.1/"
   xmlns:cc="http://creativecommons.org/ns#"
   xmlns:rdf="http://www.w3.org/1999/02/22-rdf-syntax-ns#"
   xmlns:svg="http://www.w3.org/2000/svg"
   xmlns="http://www.w3.org/2000/svg"
   viewBox="0 0 300 300"
   height="300"
   width="300"
   id="svg288"
   version="1.1">
  <metadata
     id="metadata294">
    <rdf:RDF>
      <cc:Work
         rdf:about="">
        <dc:format>image/svg+xml</dc:format>
        <dc:type
           rdf:resource="http://purl.org/dc/dcmitype/StillImage" />
        <dc:title></dc:title>
      </cc:Work>
    </rdf:RDF>
  </metadata>
  <defs
     id="defs292" />
  <path
     id="path298"
     d="m 146.27306,263.5531 0.13351,-37.96504 c -30.08823,0.61719 -53.623187,0.0176 -53.950314,27.105 -0.07165,5.93244 -0.544523,17.57318 -6.720443,17.60757 -6.08171,0.0339 -5.197764,-12.40002 -5.183597,-17.77423 0.100289,-38.04632 28.184094,-37.28599 65.854874,-38.18119 l 0.14982,-9.49698 c -37.74627,-0.69007 -62.093125,-6.45381 -62.22242,-52.53586 -0.116552,-41.54068 24.57857,-43.72813 61.94962,-43.86046 l 0.0503,-10.322233 C 126.32564,98.052977 96.876921,98.713117 97.051323,78.667519 97.224502,58.762482 127.13303,60.080582 146.51292,59.889083 l 0.0665,-7.284523 c -25.93273,-0.432668 -44.86845,-1.13201 -44.82801,-23.909209 0.009,-5.083906 2.46345,-7.172944 5.46027,-7.142967 3.00327,0.03004 5.32472,2.942933 5.32773,7.26637 0.009,12.786181 9.25861,12.473941 34.0825,12.363262 l 0.16434,-13.079852 c 0.0967,-7.700531 0.35545,-13.245528 5.20976,-13.099339 4.47548,0.134779 6.02071,4.715579 6.03332,13.053585 l 0.0195,12.92855 c 24.53382,-0.08477 37.86323,0.519516 37.88481,-11.119783 0.0108,-5.817789 3.38507,-7.850286 5.70139,-7.814069 2.6529,0.04148 5.33339,3.376601 5.35938,8.113965 0.13145,23.963961 -24.46776,22.028397 -48.88206,22.622741 v 7.105919 c 25.00306,0.36687 51.74337,-0.293733 51.66396,18.827423 -0.0846,20.383161 -29.28341,18.975861 -52.03862,19.415591 l -0.0541,10.483093 c 37.86849,0.0762 61.76287,2.62885 61.81653,41.91307 0.0644,47.19499 -22.30298,53.7904 -61.91211,54.31587 l -0.10409,9.50372 c 39.33183,0.3668 60.13013,1.30746 60.66181,37.74777 0.0734,5.0295 -0.79281,18.45095 -6.58736,18.4994 -5.80066,0.0486 -5.25106,-13.3646 -5.30364,-18.06966 -0.30318,-27.12988 -17.60394,-26.15067 -48.58909,-26.86261 l -0.15512,36.67631 c -0.0735,17.3783 -1.17729,22.66111 -6.02115,22.65615 -4.67869,0.0314 -5.27303,-5.32905 -5.21635,-21.44676 z m 61.58077,-112.10317 c -0.14137,-31.43672 -16.14646,-31.34985 -56.4115,-31.17922 -39.38522,0.16691 -56.094584,1.10568 -56.221311,32.07167 -0.141394,34.54986 14.429941,41.4338 56.670441,41.36548 44.77405,-0.0725 56.12729,-5.58403 55.96237,-42.25793 z m -47.21589,26.68594 c -16.20577,0.0475 -27.41978,-5.63048 -27.45563,-20.09284 -0.0425,-17.11004 15.62654,-16.0396 27.64354,-16.11519 15.67196,-0.0986 29.24005,-0.14508 29.03623,17.86566 -0.15274,13.49631 -12.0758,18.2921 -29.22414,18.34237 z m 19.01711,-24.98046 -35.63354,-0.0938 c -0.12738,14.45801 6.29125,14.65558 17.34784,14.74687 14.84124,0.12254 18.18363,0.0959 18.2857,-14.65313 z m -68.24303,7.93109 c 0.83661,-12.64065 2.14756,-23.62821 11.58523,-30.1738 8.9662,-6.21862 28.96906,-5.1613 38.82991,-5.07094 14.64087,0.13193 28.66981,0.50379 28.7345,5.90918 0.0742,6.19891 -12.8657,5.5969 -29.7098,5.58625 -11.06042,-0.007 -25.90579,-0.48347 -31.00778,3.0902 -4.70111,3.29288 -6.13756,9.19597 -6.67369,20.08366 -0.57401,11.65691 -1.13407,17.0815 -6.50327,16.90234 -5.55617,-0.1854 -5.63267,-10.62212 -5.2551,-16.32689 z m 35.03441,-73.651577 3e-5,-16.72951 c -15.18438,-0.191966 -37.69741,-0.874682 -37.68083,7.872554 0.0186,9.787853 22.33744,8.89119 37.6808,8.856956 z m 51.96962,-8.474472 c -0.0853,-9.052497 -25.45044,-8.276415 -40.4819,-8.168545 l -0.10636,16.791166 c 14.71141,0.155401 40.67856,0.962253 40.5883,-8.622621 z"
     style="fill:#000000;stroke-width:0.69150573" />
</svg>
