<?xml version="1.0" encoding="UTF-8" standalone="no"?>
<!-- Created with Inkscape (http://www.inkscape.org/) -->

<svg
   xmlns:dc="http://purl.org/dc/elements/1.1/"
   xmlns:cc="http://creativecommons.org/ns#"
   xmlns:rdf="http://www.w3.org/1999/02/22-rdf-syntax-ns#"
   xmlns:svg="http://www.w3.org/2000/svg"
   xmlns="http://www.w3.org/2000/svg"
   xmlns:sodipodi="http://sodipodi.sourceforge.net/DTD/sodipodi-0.dtd"
   xmlns:inkscape="http://www.inkscape.org/namespaces/inkscape"
   width="300"
   height="300"
   id="svg2"
   version="1.1"
   inkscape:version="0.48.4 r9939"
   sodipodi:docname="image-seal.svg">
  <defs
     id="defs4" />
  <sodipodi:namedview
     id="base"
     pagecolor="#ffffff"
     bordercolor="#666666"
     borderopacity="1.0"
     inkscape:pageopacity="0.0"
     inkscape:pageshadow="2"
     inkscape:zoom="2.0018437"
     inkscape:cx="123.3515"
     inkscape:cy="143.3195"
     inkscape:document-units="px"
     inkscape:current-layer="layer1"
     showgrid="false"
     inkscape:window-width="1215"
     inkscape:window-height="1000"
     inkscape:window-x="65"
     inkscape:window-y="24"
     inkscape:window-maximized="1"
     fit-margin-top="10"
     fit-margin-left="10"
     fit-margin-right="10"
     fit-margin-bottom="10" />
  <metadata
     id="metadata7">
    <rdf:RDF>
      <cc:Work
         rdf:about="">
        <dc:format>image/svg+xml</dc:format>
        <dc:type
           rdf:resource="http://purl.org/dc/dcmitype/StillImage" />
        <dc:title />
      </cc:Work>
    </rdf:RDF>
  </metadata>
  <g
     inkscape:label="Calque 1"
     inkscape:groupmode="layer"
     id="layer1"
     transform="translate(0,-752.36218)">
    <path
       style="fill:#000000"
       d="m 147.67095,1038.3684 c 0,-4.9466 1.19431,-12.135 2.65402,-15.9743 1.4597,-3.8393 2.73937,-30.13235 2.84371,-58.42891 0.20554,-55.73648 2.87645,-73.70423 10.95617,-73.70423 10.2462,0 14.96636,-4.98378 14.96636,-15.80224 0,-9.78922 -0.448,-10.38131 -7.85507,-10.38131 -4.32028,0 -7.85506,0.98914 -7.85506,2.19806 0,2.61288 -11.72992,8.27536 -17.1425,8.27536 -2.09238,0 -3.80434,-2.19562 -3.80434,-4.87915 0,-3.43138 4.63535,-6.95935 15.62186,-11.88982 8.59203,-3.85586 16.33801,-8.16942 17.21333,-9.58569 3.15716,-5.10838 -1.71591,-17.90083 -7.48821,-19.65756 -11.94001,-3.63381 -14.87356,-8.84043 -14.87356,-26.39836 0,-9.1374 1.17826,-16.79023 2.61835,-17.00624 8.62568,-1.29386 9.16511,-0.54491 9.19606,12.76822 0.0209,9.34512 1.44062,15.09348 4.4745,18.12737 4.17806,4.17806 4.60512,4.01559 7.16867,-2.72709 1.49929,-3.9434 2.72597,-8.88966 2.72597,-10.9917 0,-4.1873 9.45202,-8.7562 23.28024,-11.25317 10.83629,-1.95672 15.98602,-8.71262 11.7004,-15.34971 -2.43541,-3.77171 -5.90625,-4.40318 -19.62425,-3.57036 -40.12064,2.4357 -45.46747,2.01401 -45.46747,-3.58571 0,-6.61527 11.47083,-8.85085 46.4758,-9.05775 30.28504,-0.1791 36.00238,3.12346 36.00238,20.79594 0,14.30876 -6.92435,20.94684 -21.8502,20.94684 -7.69637,0 -12.77865,1.54902 -15.71013,4.78829 -5.6657,6.26051 -5.53654,13.45636 0.24874,13.8595 2.52017,0.1757 8.70603,0.51841 13.74637,0.76179 23.94299,1.15605 24.79736,1.43509 29.45649,9.62107 6.11991,10.75256 6.51536,42.98116 0.55546,45.26818 -4.76936,1.83018 -5.22223,0.65512 -9.0726,-23.54097 l -2.96443,-18.62855 -16.04381,-1.6769 c -19.06189,-1.99238 -22.66919,0.24403 -18.44495,11.43541 1.61432,4.27682 2.35537,12.21363 1.64676,17.63731 -0.7086,5.42372 -0.039,13.10149 1.48783,17.06175 2.55389,6.62392 3.90886,7.20048 16.92136,7.20048 8.48184,0 15.28718,1.37605 16.99757,3.43693 1.60691,1.93622 3.51354,20.51471 4.3665,42.54827 0.83277,21.51117 2.69638,49.12644 4.14135,61.36725 6.00161,50.8414 5.99553,49.7488 0.27684,49.7488 -2.8594,0 -6.08637,-2.062 -7.17102,-4.5821 -1.08468,-2.5202 -3.51926,-23.2557 -5.41021,-46.07946 -3.33685,-40.27606 -3.65315,-41.68238 -10.7452,-47.78184 -4.01891,-3.45649 -9.13342,-6.28588 -11.36557,-6.28745 -2.23215,-0.002 -5.29311,-1.23796 -6.80215,-2.74692 -2.86385,-2.8639 -16.63213,1.66999 -16.63213,5.47681 0,1.04106 -2.16959,2.46021 -4.82133,3.15355 -5.07139,1.3262 -6.04275,8.13261 -9.8093,68.73631 -1.61867,26.0448 -4.77575,35.3478 -11.99537,35.3478 -3.71628,0 -4.79426,-2.0222 -4.79426,-8.9938 z m 33.20687,-116.42029 c 4.03313,-6.60289 -0.85571,-21.21373 -7.09818,-21.21373 -4.56416,0 -5.16185,1.82161 -5.16185,15.73231 0,14.65757 0.33125,15.52545 4.84901,12.70407 2.66695,-1.66554 6.0019,-4.91573 7.41102,-7.22265 z m 36.8702,-8.40105 c -1.38317,-14.39485 -4.48862,-17.94662 -15.74621,-18.0093 -6.54135,-0.0364 -7.20047,0.83083 -7.20047,9.47409 0,7.13227 1.80266,11.06457 7.20047,15.70694 3.96026,3.40601 9.41233,6.19419 12.11573,6.19594 4.33443,0.003 4.76342,-1.57682 3.63048,-13.36767 z M 104.79279,1036.4083 c -0.64437,-3.336 -1.18124,-8.4219 -1.19308,-11.3021 -0.0131,-2.8802 -0.53322,-36.22998 -1.1587,-74.11051 -1.21248,-73.43142 -3.074735,-83.93249 -11.433238,-64.47125 -3.53187,8.22331 -4.61375,21.03136 -5.40247,63.95858 -1.12344,61.14258 -1.74247,66.16088 -8.01243,64.95328 -6.99486,-1.3468 -9.33522,-22.64407 -6.27455,-57.09822 1.47118,-16.56109 2.81408,-37.76966 2.98419,-47.13028 0.1702,-9.36062 1.63679,-21.5046 3.2592,-26.98665 2.70379,-9.13578 13.54027,-20.14374 19.829953,-20.14374 3.306515,0 5.985175,-6.86043 4.344935,-11.12801 -0.69185,-1.80012 -5.662488,-5.63109 -11.045828,-8.51327 -12.26938,-6.56887 -15.98781,-16.64346 -16.18599,-43.85383 -0.13275,-18.21644 0.35926,-20.29225 4.80879,-20.29225 6.0467,0 8.12625,4.88996 8.16403,19.19723 0.0464,17.56592 2.92049,30.11826 7.27919,31.79084 6.780708,2.60199 7.760418,-2.99328 6.643188,-37.94036 -1.02087,-31.93225 -0.81321,-33.65631 4.2469,-35.26233 2.92614,-0.92873 6.50904,-0.95387 7.96202,-0.0558 1.55452,0.96075 2.64179,15.44651 2.64179,35.19622 0,26.47329 0.82051,34.24444 3.88415,36.78704 5.29656,4.39575 8.10587,-3.44803 10.54058,-29.43004 2.09334,-22.339 5.45207,-29.38879 12.68022,-26.61508 4.19688,1.61049 4.5314,4.12529 3.06646,23.05312 -2.11427,27.31753 -3.92958,39.05384 -6.44718,41.68238 -1.1107,1.15967 -6.01936,4.10532 -10.90809,6.54588 -12.36487,6.17285 -12.82253,13.74647 -1.30742,21.63675 5.02886,3.44584 9.92168,8.64432 10.87295,11.55221 2.80916,8.58729 5.66937,133.00999 3.2167,139.93109 -1.92755,5.4394 -2.75288,5.813 -5.78392,2.6184 -2.61497,-2.7561 -3.98016,-18.0425 -5.24331,-58.71188 -0.93928,-30.2419 -2.14733,-57.931 -2.68457,-61.53124 -0.53721,-3.60024 -1.07494,-9.7861 -1.19496,-13.74636 -0.1626,-5.36418 -1.54402,-7.20048 -5.41707,-7.20048 -5.05847,0 -5.21757,2.17331 -5.89129,80.47949 -0.63325,73.60137 -1.07602,80.55317 -5.181,81.34287 -2.97076,0.5716 -4.88475,-1.1875 -5.66015,-5.2017 z m 73.75377,-18.794 c -7.70746,-5.8562 -8.38711,-64.51293 -0.74748,-64.51293 3.7367,0 6.52884,5.69047 6.52884,13.30596 0,3.8351 1.8572,5.02253 7.85506,5.02253 7.20598,0 7.85507,-0.7444 7.85507,-9.0095 0,-9.27893 3.92852,-14.29281 8.00488,-10.2163 1.27153,1.27148 3.07123,14.36613 3.99933,29.09909 2.1154,33.58075 -0.74599,39.92185 -17.95586,39.79225 -6.08721,-0.044 -13.08015,-1.6121 -15.53984,-3.4811 z m 17.16099,-10.2181 c 2.93381,-2.1453 4.72139,-7.44042 5.08257,-15.05564 0.54003,-11.38618 0.30551,-11.77081 -7.64937,-12.54427 -7.54516,-0.7334 -8.28364,-0.0995 -9.16424,7.85506 -2.27012,20.50915 1.65375,27.11365 11.73104,19.74485 z"
       id="path3158"
       inkscape:connector-curvature="0" />
  </g>
</svg>
