<?xml version="1.0" encoding="UTF-8" standalone="no"?>
<!-- Created with Inkscape (http://www.inkscape.org/) -->

<svg
   xmlns:dc="http://purl.org/dc/elements/1.1/"
   xmlns:cc="http://creativecommons.org/ns#"
   xmlns:rdf="http://www.w3.org/1999/02/22-rdf-syntax-ns#"
   xmlns:svg="http://www.w3.org/2000/svg"
   xmlns="http://www.w3.org/2000/svg"
   xmlns:sodipodi="http://sodipodi.sourceforge.net/DTD/sodipodi-0.dtd"
   xmlns:inkscape="http://www.inkscape.org/namespaces/inkscape"
   width="300"
   height="300"
   viewBox="0 0 300 300"
   id="svg2"
   version="1.1"
   inkscape:version="0.91 r13725"
   sodipodi:docname="цик-seal.svg">
  <defs
     id="defs4" />
  <sodipodi:namedview
     id="base"
     pagecolor="#ffffff"
     bordercolor="#666666"
     borderopacity="1.0"
     inkscape:pageopacity="0.0"
     inkscape:pageshadow="2"
     inkscape:zoom="1.33"
     inkscape:cx="180.15639"
     inkscape:cy="147.06767"
     inkscape:document-units="px"
     inkscape:current-layer="layer1"
     showgrid="false"
     units="px"
     inkscape:window-width="937"
     inkscape:window-height="613"
     inkscape:window-x="14"
     inkscape:window-y="7"
     inkscape:window-maximized="0" />
  <metadata
     id="metadata7">
    <rdf:RDF>
      <cc:Work
         rdf:about="">
        <dc:format>image/svg+xml</dc:format>
        <dc:type
           rdf:resource="http://purl.org/dc/dcmitype/StillImage" />
        <dc:title></dc:title>
      </cc:Work>
    </rdf:RDF>
  </metadata>
  <g
     inkscape:label="Layer 1"
     inkscape:groupmode="layer"
     id="layer1"
     transform="translate(0,-752.36216)">
    <path
       style="fill:#000000"
       d="m 138.9402,1035.7206 c -0.81728,-1.3227 2.27042,-6.3774 6.86158,-11.2348 15.32376,-16.2103 25.88113,-37.70347 25.95155,-52.83241 0.034,-7.17714 -0.79151,-8.01777 -10.21871,-10.41414 -17.76461,-4.51569 -18.90675,-6.31332 -19.31198,-30.39581 -0.54802,-32.56901 5.6176,-44.28142 23.3106,-44.28142 4.96149,0 5.72708,-1.41307 6.89478,-12.72683 1.86028,-18.02465 0.0248,-25.19091 -6.89902,-26.92856 -6.2508,-1.56886 -13.04298,-14.48807 -13.04298,-24.80842 0,-3.93429 -1.64216,-6.39305 -4.82591,-7.22566 -7.09627,-1.85575 -6.31792,-10.35094 0.94835,-10.35094 6.13553,0 8.70346,-3.97381 8.70346,-13.46863 0,-4.22639 1.33042,-5.83502 4.82592,-5.83502 3.99947,0 4.82593,1.60863 4.82593,9.39368 0,10.67088 1.63887,11.77624 16.89069,11.39081 10.7786,-0.27232 10.8638,-0.34176 11.61512,-9.45767 1.23472,-14.97956 11.33969,-15.34893 12.81887,-0.46854 1.02553,10.3161 3.97856,13.27128 13.26222,13.27128 4.48242,0 8.14985,0.95286 8.14985,2.11752 0,3.05682 -6.68345,8.15288 -8.94292,6.81881 -5.23382,-3.0901 -12.24248,3.29399 -14.81003,13.49062 -2.20587,8.76028 -4.29274,11.5178 -11.19572,14.79356 -8.88805,4.2176 -9.00156,4.49377 -9.00156,21.89681 0,18.35862 -0.12785,18.09718 8.84888,18.09718 19.58127,0 25.44951,8.02597 25.44951,34.80673 0,25.91288 -10.0705,44.75418 -22.2222,41.57648 -6.243,-1.63262 -11.55917,0.50017 -11.55917,4.63738 0,9.3783 13.69554,31.92833 27.07705,44.58259 14.38276,13.6015 17.51069,21.808 8.94139,23.4586 -6.60438,1.2719 -32.89843,-27.9467 -36.97081,-41.08203 -0.72002,-2.32249 -2.46305,-4.22271 -3.87345,-4.22271 -1.41051,0 -3.17174,1.90022 -3.91398,4.22271 -3.83578,12.00213 -7.11709,17.39413 -18.92276,31.09633 -8.77298,10.1822 -16.9972,14.3984 -19.66455,10.0825 z m 55.27812,-84.38984 c 8.66872,-4.63941 11.35264,-8.5519 11.35264,-16.54936 l 0,-7.62329 -10.25506,1.69419 c -5.64023,0.93183 -10.42285,1.84164 -10.6279,2.0218 -0.20515,0.1802 -0.59159,3.5851 -0.85898,7.5664 -1.1124,16.56936 0.28199,18.29947 10.3893,12.89026 z m -22.42871,-11.61023 0,-11.99129 -8.5469,0.32132 c -4.70083,0.17668 -9.12135,1.25071 -9.82339,2.38655 -2.24289,3.62905 4.01529,18.52067 8.25273,19.63784 9.41625,2.48247 10.11756,1.76475 10.11756,-10.35442 z m -0.4798,-32.93794 c 0.5963,-8.15746 -0.11356,-10.16102 -3.9556,-11.16574 -6.52777,-1.70706 -9.16801,0.56827 -11.12445,9.58671 -2.15917,9.95351 -0.0631,13.18863 7.94561,12.26194 5.636,-0.65219 6.49533,-1.93883 7.13444,-10.68291 z m 28.83199,9.74161 c 4.33451,-0.87719 5.42916,-2.73267 5.42916,-9.2026 0,-9.7607 -4.59173,-14.13944 -13.72856,-13.09187 -5.73656,0.65785 -6.90071,2.02149 -7.55483,8.8494 -1.30939,13.6693 1.78364,16.29235 15.85423,13.44507 z m -6.80534,-83.93653 c 6.48248,-12.11254 -0.63909,-18.47755 -18.35917,-16.40887 -7.10736,0.82975 -8.01352,1.76246 -8.01352,8.24767 0,8.75956 5.67865,13.69446 15.87968,13.79974 5.39689,0.0558 8.2726,-1.48948 10.49301,-5.63854 z M 97.825755,1010.226 c 0.83851,-14.26674 1.67196,-46.57004 1.85212,-71.7855 0.30705,-42.97557 0.0504,-45.84607 -4.098402,-45.84607 -3.041088,0 -5.097067,2.64253 -6.570731,8.44535 -3.379652,13.30783 -6.84184,53.92375 -7.407798,86.90284 -0.555775,32.38498 -1.966505,38.36668 -7.889093,33.45188 -6.411775,-5.3213 -3.145119,-92.47533 4.465855,-119.14826 2.950816,-10.34128 12.860843,-22.92309 18.055306,-22.92309 2.191333,0 3.167993,-3.70526 3.167993,-12.0188 0,-10.71043 -0.63733,-12.17873 -5.854797,-13.48829 -11.87179,-2.97956 -13.668472,-7.89681 -13.641689,-37.3352 0.0246,-27.12743 2.136932,-35.10991 7.793659,-29.45319 1.61609,1.61613 2.774899,10.62138 2.774899,21.56431 0,18.25936 4.185342,34.53689 8.880248,34.53689 1.356225,0 2.192315,-13.12338 2.036925,-31.97163 -0.29155,-35.36351 2.4604,-48.14867 9.16592,-42.58353 3.29168,2.73183 3.60905,7.34278 2.23534,32.47173 -1.80003,32.92698 -0.50367,42.08343 5.95807,42.08343 3.70273,0 4.6484,-3.13249 6.37404,-21.11332 1.11452,-11.61232 1.82195,-23.55654 1.57212,-26.54253 -0.63251,-7.55914 6.00456,-6.98371 7.9299,0.68752 2.30667,9.19046 -0.76465,51.68855 -4.0189,55.60961 -1.5626,1.88298 -5.96569,3.42343 -9.78462,3.42343 -6.60101,0 -6.94341,0.52544 -6.94341,10.65614 0,9.47902 0.7862,11.00394 7.11772,13.80657 12.73156,5.63557 13.40338,9.42529 13.27203,74.87497 -0.10589,52.80504 -0.60443,60.47004 -4.16517,64.03074 -2.22472,2.225 -4.59335,3.4962 -5.26371,2.8258 -0.67041,-0.6702 -1.62976,-29.73202 -2.132,-64.58158 -0.75676,-52.50776 -1.53914,-63.98867 -4.56708,-67.01652 -3.26328,-3.26328 -3.80505,-2.01866 -5.06795,11.64021 -0.77777,8.41167 -1.47913,23.30511 -1.55861,33.09634 -0.0795,9.79137 -0.59778,18.5356 -1.15153,19.43172 -0.55389,0.89608 -1.23459,17.16625 -1.51269,36.15591 -0.50413,34.41532 -2.81596,45.99692 -9.188905,46.03272 -2.75765,0.016 -3.086456,-4.629 -1.83506,-25.9206 z M 207.9839,873.05757 c -10.32146,-5.34906 -15.68416,-9.58636 -15.68416,-12.39279 0,-6.16933 14.00357,-4.50164 27.21537,3.24103 7.83635,4.59236 10.2844,7.40943 9.72564,11.19155 -1.07705,7.29068 -3.74725,7.0344 -21.25685,-2.03979 z m -74.80153,2.86061 c 0,-1.8727 3.52893,-6.29132 7.84209,-9.81914 4.3132,-3.52785 9.75468,-7.96769 12.09238,-9.86631 5.81102,-4.71978 11.44171,-4.339 11.39699,0.77057 -0.0565,6.43584 -2.58528,9.15296 -14.9052,16.01414 -12.83811,7.14979 -16.42626,7.78342 -16.42626,2.90074 z"
       id="path3347"
       inkscape:connector-curvature="0" />
  </g>
</svg>
