<?xml version="1.0" encoding="UTF-8" standalone="no"?>
<!-- Created with Inkscape (http://www.inkscape.org/) -->

<svg
   xmlns:dc="http://purl.org/dc/elements/1.1/"
   xmlns:cc="http://creativecommons.org/ns#"
   xmlns:rdf="http://www.w3.org/1999/02/22-rdf-syntax-ns#"
   xmlns:svg="http://www.w3.org/2000/svg"
   xmlns="http://www.w3.org/2000/svg"
   xmlns:sodipodi="http://sodipodi.sourceforge.net/DTD/sodipodi-0.dtd"
   xmlns:inkscape="http://www.inkscape.org/namespaces/inkscape"
   width="300"
   height="300"
   id="svg2"
   version="1.1"
   inkscape:version="0.48.4 r9939"
   sodipodi:docname="image-seal.svg">
  <defs
     id="defs4" />
  <sodipodi:namedview
     id="base"
     pagecolor="#ffffff"
     bordercolor="#666666"
     borderopacity="1.0"
     inkscape:pageopacity="0.0"
     inkscape:pageshadow="2"
     inkscape:zoom="1.979899"
     inkscape:cx="200.43343"
     inkscape:cy="134.48103"
     inkscape:document-units="px"
     inkscape:current-layer="layer1"
     showgrid="false"
     inkscape:window-width="1215"
     inkscape:window-height="1000"
     inkscape:window-x="65"
     inkscape:window-y="24"
     inkscape:window-maximized="1" />
  <metadata
     id="metadata7">
    <rdf:RDF>
      <cc:Work
         rdf:about="">
        <dc:format>image/svg+xml</dc:format>
        <dc:type
           rdf:resource="http://purl.org/dc/dcmitype/StillImage" />
        <dc:title />
      </cc:Work>
    </rdf:RDF>
  </metadata>
  <g
     inkscape:label="Calque 1"
     inkscape:groupmode="layer"
     id="layer1"
     transform="translate(0,-752.36218)">
    <path
       style="fill:#000000"
       d="m 205.40243,1036.5847 c -2.03568,-2.0357 -2.85106,-17.0572 -2.85106,-52.52352 0,-46.38891 -0.27483,-49.55689 -4.15777,-47.92475 -10.27257,4.31789 -14.84923,4.15614 -14.84923,-0.52481 0,-2.8909 3.55952,-6.59179 9.61135,-9.99312 l 9.61136,-5.4019 -0.70183,-14.63658 -0.70181,-14.63658 -9.96539,-0.72412 c -11.42745,-0.83037 -10.07351,-4.3446 -15.06274,39.09642 -2.62255,22.83479 -3.20761,24.54012 -11.00379,32.07433 -8.86561,8.56771 -13.95454,18.00138 -15.82739,29.34017 -2.27068,13.74736 -8.63549,39.90386 -10.05557,41.32396 -2.58274,2.5828 -7.84596,-7.1733 -6.70646,-12.4312 0.61196,-2.8237 1.56003,-10.4727 2.1068,-16.9979 0.90636,-10.8158 2.45809,-15.86 8.58276,-27.89978 1.15427,-2.26906 2.09868,-5.07409 2.09868,-6.23341 0,-1.1593 4.08556,-6.57737 9.07901,-12.04013 8.86607,-9.69934 9.14467,-10.5624 11.87938,-36.79751 1.54022,-14.77589 2.80039,-33.27302 2.80039,-41.10473 0,-13.10953 -0.60054,-14.73702 -7.56756,-20.50878 -7.29393,-6.04262 -7.78788,-6.12522 -13.66128,-2.28472 -6.62323,4.33078 -12.03343,9.26817 -12.03343,10.98183 0,0.5943 1.94129,1.5882 4.31399,2.20868 3.42772,0.89637 4.10648,2.90572 3.3039,9.78061 -1.37704,11.79515 5.44863,12.16997 7.6529,0.42025 0.84941,-4.52774 2.69164,-8.94128 4.09385,-9.80792 5.15401,-3.18533 6.95284,5.55291 6.03596,29.32148 -0.88038,22.82302 -1.34108,24.72112 -7.35265,30.29242 -3.52736,3.26906 -7.16018,5.90975 -8.07288,5.8682 -3.05045,-0.13893 -9.97507,-6.35589 -9.97507,-8.95569 0,-1.41223 -1.11447,-3.25645 -2.47653,-4.09827 -1.69207,-1.04577 -1.96838,5.20058 -0.87237,19.71946 1.21866,16.14318 0.87073,21.70334 -1.44771,23.13623 -1.87942,1.16156 -4.23815,0.26387 -6.13965,-2.3366 -3.66636,-5.01404 -4.37886,-73.97165 -0.78724,-76.19138 1.22098,-0.75463 2.22249,-6.38738 2.22554,-12.51723 0.004,-8.97986 1.40094,-12.76076 7.18765,-19.46076 6.22649,-7.20918 7.09503,-9.8961 6.52808,-20.19494 -0.6275,-11.39868 -0.95387,-11.90858 -8.06516,-12.60072 -8.0922,-0.78766 -10.31057,2.95366 -10.37544,17.49844 -0.0373,8.37299 -7.02118,16.95141 -15.54139,19.08984 -8.018484,2.0125 -7.577504,9.34071 1.0469,17.39709 10.97681,10.25388 12.7786,21.75219 11.00777,70.24707 -1.70153,46.59646 -4.02475,60.61937 -10.04308,60.61937 -3.23914,0 -3.58722,-2.1381 -2.32072,-14.25532 0.81948,-7.84039 0.56855,-14.25526 -0.55764,-14.25526 -1.12618,0 -1.66834,-4.54387 -1.20481,-10.09747 2.73177,-32.72932 2.55442,-73.2042 -0.3381,-77.15996 -1.69166,-2.31349 -3.68457,-3.59753 -4.428684,-2.8534 -0.74411,0.74413 -1.84557,15.17588 -2.44768,32.07059 -2.60172,73.0022 -4.45102,97.72422 -7.63598,102.07992 -7.551055,10.3267 -8.417635,0.9228 -5.714244,-62.00938 1.448241,-33.71352 3.255272,-63.77598 4.015622,-66.80546 1.481692,-5.90355 -1.845788,-7.42164 -5.563633,-2.5383 -2.671911,3.50954 -7.411232,46.42867 -9.37919,84.93758 -1.443931,28.25476 -4.175667,39.19106 -8.24034,32.98926 -3.233418,-4.9334 1.849374,-100.52658 6.301877,-118.52081 1.697024,-6.85829 10.112938,-16.63113 14.321972,-16.63113 1.579982,0 3.379256,-2.6499 3.998396,-5.8887 0.8524,-4.45907 -0.37816,-6.8384 -5.068754,-9.80054 -13.341933,-8.42549 -14.400167,-11.63928 -14.457183,-43.90565 -0.02906,-16.44305 0.506869,-30.45613 1.190946,-31.14022 0.684075,-0.68409 4.046207,-0.70806 7.471398,-0.0532 l 6.227624,1.19048 -1.554222,29.07279 c -1.506437,28.17897 -1.400802,29.11291 3.435954,30.37775 4.342837,1.13567 4.794797,0.52649 3.484027,-4.69605 -0.83521,-3.32769 -0.28378,-7.47384 1.23783,-9.30728 1.50919,-1.81846 2.21826,-4.67629 1.57572,-6.35073 -0.64255,-1.67445 0.0397,-15.31966 1.5161,-30.32267 2.44045,-24.79954 3.11615,-27.27825 7.436124,-27.27825 3.60727,0 4.64099,1.43061 4.29185,5.93969 -3.06009,39.52087 -3.52289,71.2763 -1.0388,71.2763 4.39375,0 7.45132,-10.85091 9.3001,-33.00473 1.42046,-17.02123 2.41505,-20.53274 6.01072,-21.22156 2.55471,-0.48939 4.13262,0.46629 3.87628,2.34771 -0.23777,1.74521 -0.30564,7.1824 -0.15086,12.08265 0.24883,7.87572 0.9796,8.90953 6.29777,8.90953 7.76692,0 10.32029,-6.77331 7.95599,-21.10496 -2.7014,-16.37489 -2.57987,-16.90906 3.8468,-16.90906 5.30992,0 5.9397,0.97245 5.9397,9.17191 0,12.81724 2.70982,31.21799 4.59738,31.21799 1.97999,0 7.282,-14.41777 7.282,-19.80191 0,-4.4531 4.68392,-13.74627 8.20212,-16.27344 4.60856,-3.31038 6.55709,1.3628 5.01697,12.03223 -2.96298,20.52642 -2.97515,20.4522 3.41205,20.83916 3.26683,0.1979 7.27612,0.46519 8.90953,0.59397 1.63342,0.12869 2.96985,2.3724 2.96985,4.98586 0,4.069 -1.58393,4.75176 -11.02351,4.75176 -7.71227,0 -11.97154,1.2489 -14.1797,4.15778 -4.22248,5.56243 -4.30249,19.60098 -0.11173,19.60098 5.3515,0 10.55347,7.67133 15.005,22.12779 3.77697,12.26583 4.81448,13.61585 9.55042,12.4272 6.76581,-1.69811 24.51829,5.2938 24.51829,9.6567 0,1.81821 1.06915,3.30584 2.37587,3.30584 1.31228,0 2.37587,-6.20184 2.37587,-13.85378 0,-14.95049 -0.98731,-16.12606 -17.81907,-21.21677 l -7.12762,-2.15573 0.72595,-34.2501 c 0.85232,-40.21243 1.4278,-43.10171 8.38765,-42.11023 4.40096,0.62697 5.24406,2.49935 5.85257,12.99747 0.69514,11.99326 0.90535,12.31098 9.48739,14.34058 5.13894,1.21533 9.09008,3.70389 9.53308,6.00428 0.59312,3.07976 -1.45702,4.08812 -9.48739,4.66644 l -10.24399,0.73774 -0.70619,13.44786 c -0.69428,13.22174 -0.58629,13.47419 6.42209,15.01349 3.92056,0.86111 9.85133,3.70761 13.17954,6.32555 5.5768,4.38673 6.05126,6.2392 6.05126,23.62675 0,10.37673 -1.00458,20.72329 -2.23238,22.99234 -1.2278,2.26907 -2.80239,6.86854 -3.49912,10.22107 -0.6967,3.35256 -3.50671,8.67824 -6.24446,11.83491 -4.77495,5.50552 -4.95546,7.92713 -4.43094,59.43812 0.59654,58.58473 -0.48278,65.16303 -9.25257,56.39323 z M 151.40592,913.7163 c 1.68939,-5.32283 -0.76064,-16.83317 -3.58307,-16.83317 -2.59473,0 -3.82331,6.80469 -2.68099,14.84922 1.07533,7.57262 4.17834,8.55539 6.26406,1.98395 z m -15.94177,-17.43051 c 0.43561,-13.65339 -0.0939,-18.51665 -1.74552,-16.03379 -2.74095,4.12025 -3.32616,35.63981 -0.66163,35.63476 0.98005,-10e-4 2.06326,-8.82229 2.40715,-19.60097 z"
       id="path3104"
       inkscape:connector-curvature="0" />
  </g>
</svg>
