<?xml version="1.0" encoding="UTF-8" standalone="no"?>
<!-- Created with Inkscape (http://www.inkscape.org/) -->

<svg
   xmlns:dc="http://purl.org/dc/elements/1.1/"
   xmlns:cc="http://creativecommons.org/ns#"
   xmlns:rdf="http://www.w3.org/1999/02/22-rdf-syntax-ns#"
   xmlns:svg="http://www.w3.org/2000/svg"
   xmlns="http://www.w3.org/2000/svg"
   xmlns:sodipodi="http://sodipodi.sourceforge.net/DTD/sodipodi-0.dtd"
   xmlns:inkscape="http://www.inkscape.org/namespaces/inkscape"
   width="300"
   height="300"
   id="svg2"
   version="1.1"
   inkscape:version="0.48.4 r9939"
   sodipodi:docname="image-seal.svg">
  <defs
     id="defs4" />
  <sodipodi:namedview
     id="base"
     pagecolor="#ffffff"
     bordercolor="#666666"
     borderopacity="1.0"
     inkscape:pageopacity="0.0"
     inkscape:pageshadow="2"
     inkscape:zoom="2.0018437"
     inkscape:cx="145.03351"
     inkscape:cy="130.6666"
     inkscape:document-units="px"
     inkscape:current-layer="layer1"
     showgrid="false"
     inkscape:window-width="1215"
     inkscape:window-height="1000"
     inkscape:window-x="65"
     inkscape:window-y="24"
     inkscape:window-maximized="1"
     fit-margin-top="10"
     fit-margin-left="10"
     fit-margin-right="10"
     fit-margin-bottom="10" />
  <metadata
     id="metadata7">
    <rdf:RDF>
      <cc:Work
         rdf:about="">
        <dc:format>image/svg+xml</dc:format>
        <dc:type
           rdf:resource="http://purl.org/dc/dcmitype/StillImage" />
        <dc:title />
      </cc:Work>
    </rdf:RDF>
  </metadata>
  <g
     inkscape:label="Calque 1"
     inkscape:groupmode="layer"
     id="layer1"
     transform="translate(0,-752.36218)">
    <path
       style="fill:#000000"
       d="m 143.84896,1037.0542 c -0.0952,-6.0612 -0.46296,-16.1823 -0.81727,-22.4912 -0.81905,-14.58454 2.8934,-49.68701 6.4157,-60.66266 1.48381,-4.62364 5.55886,-11.26762 9.05565,-14.76441 5.1417,-5.14172 5.76785,-7.06866 3.2735,-10.07417 -1.69637,-2.044 -4.25125,-3.71637 -5.67751,-3.71637 -4.03484,0 -9.35715,-8.30241 -9.44686,-14.7364 -0.0499,-3.58048 3.8026,-9.38544 10.02666,-15.10814 7.73985,-7.11635 10.49487,-11.87506 11.76027,-20.31336 1.01098,-6.74169 2.98977,-11.01988 5.09702,-11.01988 4.15413,0 8.72202,7.8951 8.72202,15.07507 0,3.50781 3.3032,6.89907 10.09474,10.36387 5.55211,2.83246 11.43975,5.14995 13.08365,5.14995 4.59535,0 12.84897,10.73081 11.31941,14.71677 -0.74791,1.94905 -1.35984,5.03674 -1.35984,6.86155 0,1.8248 -2.29417,3.91774 -5.09815,4.65101 -2.80398,0.73327 -5.09815,3.16121 -5.09815,5.39545 0,3.00429 2.52275,4.06225 9.68648,4.06225 9.3063,0 15.80426,3.49009 15.80426,8.48855 0,2.20268 -4.4479,1.85786 -31.22616,-2.42081 l -9.55902,-1.52735 0,9.55467 0,9.55469 14.94859,-1.3555 c 13.93905,-1.26395 23.87043,0.9142 20.32661,4.45803 -1.49693,1.49692 -13.8726,3.05374 -28.44254,3.57801 -5.8777,0.21157 -7.03883,1.27234 -6.37268,5.82241 0.78064,5.33215 12.61029,11.10509 15.93769,7.77771 3.02981,-3.0298 17.75931,-3.07184 19.62321,-0.0561 2.85663,4.62224 -2.59964,7.02397 -16.05708,7.06807 -15.85973,0.051 -19.9638,1.9503 -19.9638,9.23351 0,5.84809 0.73078,6.09994 17.69308,6.09994 17.23518,0 24.93784,3.35564 17.81188,7.75964 -1.86136,1.1504 -13.19238,2.1522 -25.18004,2.2259 -11.98767,0.074 -25.6529,1.2554 -30.36718,2.626 -4.71429,1.3704 -9.87617,2.2478 -11.47084,1.9501 -1.84707,-0.3452 -3.36199,5.9261 -4.17394,17.2784 -1.02531,14.3357 -2.1468,17.9857 -5.73541,18.6676 -3.67139,0.6977 -4.49151,-1.1027 -4.63395,-10.1728 z m 26.5061,-37.97634 c 7.10329,-1.97248 9.36086,-3.76193 8.28449,-6.56693 -0.81376,-2.12057 -1.47956,-4.79965 -1.47956,-5.95361 0,-1.86542 -20.24421,-0.54704 -22.61053,1.47234 -1.58463,1.35228 2.18806,13.78904 4.17831,13.77374 1.02478,0 6.25706,-1.2343 11.62729,-2.72554 z m 8.07947,-30.39822 c 0,-5.54309 -0.99551,-6.27796 -7.64723,-5.64497 -11.69915,1.1133 -14.0199,2.4807 -14.0199,8.2606 0,4.68798 1.29556,5.23093 10.83356,4.5409 9.6474,-0.69802 10.83357,-1.48158 10.83357,-7.15653 z m -3.18635,-16.29381 c 4.86174,-3.69057 6.1761,-16.84415 1.68314,-16.84415 -3.99718,0 -12.33208,10.68133 -12.4319,15.93171 -0.10005,5.26257 4.50341,5.65336 10.74876,0.91244 z m 3.23453,-39.83139 c 0.0717,-9.4145 9.86309,-8.80417 10.95469,0.68284 0.97262,8.45294 7.91852,9.4429 12.68651,1.80811 4.12915,-6.61181 2.59768,-8.93251 -10.20493,-15.4639 -7.91037,-4.03559 -11.66647,-4.68956 -15.75876,-2.7438 -2.9551,1.40508 -7.40633,3.2062 -9.89161,4.00253 -7.61114,2.43875 -8.37742,9.37526 -1.61461,14.61573 8.04993,6.23786 13.76825,5.03804 13.82871,-2.90151 z m -80.291656,78.4296 c -0.314711,-18.57638 -0.583175,-47.54023 -0.596585,-64.36412 -0.01351,-16.82389 -0.506723,-31.39911 -1.096248,-32.38937 -2.255135,-3.78808 -8.419708,1.31973 -10.905266,9.03585 -1.427821,4.43249 -2.864818,28.70658 -3.193327,53.94241 -0.546934,42.01515 -2.813349,59.90329 -7.589671,59.90329 -4.902323,0 -5.837152,-18.31334 -3.798875,-74.42014 1.473938,-40.57236 3.386835,-47.35353 17.038071,-60.39939 9.677398,-9.24822 10.536625,-21.91844 1.637856,-24.15189 -3.246439,-0.81481 -8.408313,-3.65463 -11.470832,-6.31074 -5.171512,-4.48525 -5.568217,-7.10406 -5.568217,-36.75828 0,-25.04042 0.771164,-32.22488 3.574398,-33.30059 1.96592,-0.7544 4.260086,-0.68593 5.098148,0.15218 0.838061,0.83806 1.523749,13.45888 1.523749,28.04626 0,20.53949 0.88992,27.41241 3.944995,30.4675 2.169747,2.16975 4.400222,3.48976 4.956611,2.93337 0.556386,-0.55638 1.362077,-18.98922 1.790421,-40.96186 0.805803,-41.33514 2.81572,-49.52458 10.574378,-43.08546 2.97987,2.47308 3.40034,10.39438 2.32153,43.73604 -1.13563,35.09774 -0.78921,40.71597 2.51049,40.71597 5.79267,0 10.1488,-19.48583 9.17108,-41.02408 -0.79283,-17.46544 -0.47524,-18.87915 4.24114,-18.87915 3.6667,0 5.32462,1.96824 5.90473,7.00995 0.98499,8.56048 5.40853,8.94508 12.76899,1.11025 6.96985,-7.41908 6.94201,-8.84139 -0.19294,-9.85472 -3.76451,-0.53464 -5.73542,-2.56646 -5.73542,-5.9127 0,-3.70478 1.4565,-4.89899 5.32909,-4.3695 2.931,0.40077 8.14244,-0.34096 11.58098,-1.64828 4.26458,-1.62139 8.72664,-1.33643 14.03722,0.89651 6.79696,2.85792 8.06098,5.00885 9.95656,16.94275 3.49245,21.98732 2.42018,45.00874 -2.34146,50.27028 -2.28244,2.52208 -4.14989,5.36601 -4.14989,6.31987 0,0.95387 -3.56149,5.45188 -7.91442,9.99558 -4.35292,4.54373 -10.64074,13.63008 -13.97292,20.19196 -3.33219,6.56185 -8.52462,13.65796 -11.53874,15.76915 -3.81582,2.67271 -4.92684,5.24268 -3.65815,8.46193 1.00215,2.54288 1.72833,28.66939 1.61374,58.05886 -0.16977,43.54057 -0.9059,54.13297 -3.97537,57.20257 -2.07185,2.0716 -4.44157,3.0923 -5.26602,2.2679 -0.82446,-0.8244 -1.44654,-26.27893 -1.3824,-56.56522 0.0702,-33.16559 -0.8466,-55.06619 -2.30528,-55.06619 -1.33205,0 -1.74049,-1.77573 -0.90765,-3.94606 1.44511,-3.7659 -5.2877,-11.08947 -10.35844,-11.26732 -1.36767,-0.0479 -1.5947,24.8459 -0.55601,60.96643 1.87326,65.14296 1.14909,74.05346 -6.01831,74.05346 -4.057643,0 -4.566874,-3.3847 -5.081736,-33.77526 z M 136.37481,871.90663 c 4.90697,-6.9291 9.78207,-12.6521 10.83356,-12.71777 1.05149,-0.0658 1.91181,-1.85047 1.91181,-3.9662 0,-2.11576 3.44125,-7.44776 7.64722,-11.84891 4.20597,-4.40113 7.64722,-8.88521 7.64722,-9.96461 0,-1.07938 0.69627,-3.77697 1.54726,-5.99461 2.71806,-7.08316 -3.76967,-4.34344 -14.59708,6.1642 -10.09067,9.79265 -17.53906,13.03489 -17.53906,7.63463 0,-3.14857 25.11903,-28.02722 28.29802,-28.02722 1.25997,0 2.42658,1.43385 2.59245,3.18634 0.16587,1.75249 1.07192,-0.25491 2.01343,-4.46088 1.63688,-7.3124 -0.26471,-25.56466 -2.94241,-28.24236 -0.70124,-0.70123 -5.72206,2.82733 -11.15736,7.84125 -5.43531,5.01396 -11.69923,10.79505 -13.91982,12.84688 -2.2206,2.05185 -5.37508,3.73062 -7.00996,3.73062 -1.63487,0 -2.9725,3.35374 -2.9725,7.45275 0,17.1635 -5.47857,31.95226 -14.24649,38.45681 -4.70516,3.49055 -8.58641,8.46718 -8.625,11.05915 -0.075,5.03608 13.81901,19.52191 18.68019,19.4759 1.60422,-0.0153 6.93155,-5.69688 11.83852,-12.62597 z m -2.54907,-49.9059 c 0,-2.48739 16.49913,-23.82035 19.34921,-25.01806 4.29708,-1.80579 9.03331,2.17176 7.39566,6.21097 -0.80718,1.9909 -6.40693,7.34783 -12.44389,11.9043 -10.61998,8.01556 -14.30098,9.79232 -14.30098,6.90279 z m 82.93142,69.75487 c -7.12314,-4.21706 -16.65551,-14.12424 -16.65551,-17.3104 0,-1.48476 -1.31489,-4.80501 -2.92197,-7.37837 -3.91288,-6.26552 -0.90369,-17.1488 6.89901,-24.95151 3.47532,-3.47531 8.14893,-9.11194 10.3858,-12.52582 6.50473,-9.92749 -0.61758,-7.7447 -17.17526,5.26376 -15.64117,12.2884 -17.64894,13.24127 -17.4564,8.28449 0.18433,-4.74489 27.64606,-26.25956 32.28702,-25.29499 5.99536,1.24611 8.292,-4.34059 8.33536,-20.2762 0.0504,-18.53727 -3.08259,-21.30126 -21.66909,-19.11681 -10.94425,1.28629 -13.97891,0.88382 -13.97891,-1.85391 0,-2.47778 4.96296,-3.89527 17.02917,-4.86384 9.36604,-0.7518 18.39589,-0.84247 20.06633,-0.20138 6.05809,2.32471 8.74186,52.4332 3.36636,62.85305 -1.57982,3.06231 -6.83948,9.07208 -11.68813,13.35506 -13.18122,11.64343 -11.29282,20.02718 6.9133,30.69238 7.71095,4.51711 14.01991,9.75145 14.01991,11.63193 0,4.43259 -11.30816,5.51051 -17.75699,1.69266 z m -31.94995,-73.27269 c 0,-3.5475 21.01548,-20.80842 24.08777,-19.78433 5.02698,1.67566 2.68802,7.15563 -4.89214,11.46183 -4.1633,2.36516 -9.12034,5.73412 -11.01564,7.4866 -4.05261,3.74725 -8.17999,4.16902 -8.17999,0.8359 z m 0,-17.85657 c 0,-3.44212 18.57511,-18.20985 21.62691,-17.19399 6.35764,2.11629 3.15705,8.5162 -6.91593,13.82916 -11.93515,6.29514 -14.71098,6.93007 -14.71098,3.36483 z"
       id="path3093"
       inkscape:connector-curvature="0" />
  </g>
</svg>
