<?xml version="1.0" encoding="UTF-8" standalone="no"?>
<!-- Created with Inkscape (http://www.inkscape.org/) -->

<svg
   xmlns:dc="http://purl.org/dc/elements/1.1/"
   xmlns:cc="http://creativecommons.org/ns#"
   xmlns:rdf="http://www.w3.org/1999/02/22-rdf-syntax-ns#"
   xmlns:svg="http://www.w3.org/2000/svg"
   xmlns="http://www.w3.org/2000/svg"
   xmlns:sodipodi="http://sodipodi.sourceforge.net/DTD/sodipodi-0.dtd"
   xmlns:inkscape="http://www.inkscape.org/namespaces/inkscape"
   width="300"
   height="300"
   id="svg2"
   version="1.1"
   inkscape:version="0.48.4 r9939"
   sodipodi:docname="image-seal.svg">
  <defs
     id="defs4" />
  <sodipodi:namedview
     id="base"
     pagecolor="#ffffff"
     bordercolor="#666666"
     borderopacity="1.0"
     inkscape:pageopacity="0.0"
     inkscape:pageshadow="2"
     inkscape:zoom="1.979899"
     inkscape:cx="118.51252"
     inkscape:cy="115.06794"
     inkscape:document-units="px"
     inkscape:current-layer="layer1"
     showgrid="false"
     inkscape:window-width="1215"
     inkscape:window-height="1000"
     inkscape:window-x="65"
     inkscape:window-y="24"
     inkscape:window-maximized="1" />
  <metadata
     id="metadata7">
    <rdf:RDF>
      <cc:Work
         rdf:about="">
        <dc:format>image/svg+xml</dc:format>
        <dc:type
           rdf:resource="http://purl.org/dc/dcmitype/StillImage" />
        <dc:title />
      </cc:Work>
    </rdf:RDF>
  </metadata>
  <g
     inkscape:label="Calque 1"
     inkscape:groupmode="layer"
     id="layer1"
     transform="translate(0,-752.36218)">
    <path
       style="fill:#000000"
       d="m 174.99548,1008.6161 0.5426,-23.14099 -10.21568,-9.91398 c -10.05679,-9.75979 -10.2216,-10.18514 -10.59661,-27.34707 -0.65718,-30.07581 0.96835,-33.54119 15.73343,-33.54119 4.7792,0 8.68946,-0.71866 8.68946,-1.59701 0,-2.36308 36.8898,-0.28213 39.49638,2.22802 1.22727,1.18183 2.7195,11.44875 3.3161,22.81535 1.17255,22.34004 -0.8719,29.36118 -11.26858,38.69895 -5.59153,5.02203 -5.70378,5.84224 -4.02996,29.45142 1.50712,21.2581 1.24819,24.2855 -2.07722,24.2855 -2.08944,0 -3.91492,-1.3524 -4.05663,-3.0053 -0.5444,-6.3502 -1.40378,-22.7184 -1.7672,-33.6587 -0.36053,-10.85351 -0.71796,-11.41993 -7.20602,-11.41993 -8.62,0 -11.80234,6.58206 -10.97299,22.69563 0.33621,6.5322 -0.90544,15.1873 -2.75919,19.2335 -3.13534,6.8436 -3.33265,5.7424 -2.82789,-15.7842 z m 31.6651,-41.10506 c 6.81733,-9.73307 4.99305,-11.63772 -10.08149,-10.52566 -7.60326,0.56087 -17.8812,1.11518 -22.83985,1.23181 -7.34227,0.17262 -9.01574,1.10454 -9.01574,5.02042 0,3.49514 1.60279,4.80839 5.8686,4.80839 3.22773,0 6.53725,1.08188 7.35448,2.40419 0.81724,1.32231 6.77012,2.4042 13.22863,2.4042 9.4092,0 12.4865,-1.06184 15.48537,-5.34335 z m 4.34368,-18.43101 c 0.99173,-0.14714 1.80315,-2.43137 1.80315,-5.07598 0,-3.30897 -1.68688,-4.88703 -5.40944,-5.06059 -8.98823,-0.41908 -46.23331,0.63038 -46.9384,1.32257 -1.77351,1.74105 2.75242,8.38557 6.27178,9.20761 3.34685,0.78175 38.45591,0.46961 44.27291,-0.39361 z m -1.42614,-18.41455 c 2.25414,-5.87424 -6.41504,-10.54307 -19.73231,-10.62693 -11.16492,-0.0702 -25.05874,3.98892 -25.10355,7.33424 -0.0272,2.03219 21.10436,6.29716 33.11437,6.68342 7.29563,0.23465 10.7092,-0.75282 11.72149,-3.39073 z M 96.914815,1021.7488 c -3.278663,-6.3821 -3.994863,-118.97462 -0.84915,-133.49312 1.780282,-8.2166 1.553112,-8.77036 -3.098884,-7.55384 -2.760999,0.72203 -6.024364,2.54821 -7.251922,4.05818 -3.51456,4.32318 -5.985666,25.12269 -5.324748,44.81886 1.254694,37.39129 -0.05931,75.53572 -2.712177,78.73222 -4.642921,5.5944 -6.910935,-1.5725 -6.275148,-19.82945 0.32234,-9.25615 -0.03109,-17.91125 -0.785384,-19.23356 -0.754299,-1.3223 -1.132229,-13.22307 -0.83984,-26.44614 1.069222,-48.35516 6.176605,-68.80726 17.603009,-70.48991 4.338106,-0.63882 5.217084,-2.36034 5.217084,-10.21783 0,-8.76718 -0.490583,-9.44956 -6.7935,-9.44956 -7.551977,0 -19.440819,-10.38223 -15.01856,-13.11534 1.833021,-1.13288 1.846958,-2.99284 0.04763,-6.35494 -1.399138,-2.61432 -1.88133,-6.84082 -1.071542,-9.39225 0.809788,-2.55141 1.513212,-9.91536 1.563166,-16.36432 0.08468,-10.93019 2.795108,-19.81172 5.252899,-17.21259 0.588989,0.62285 1.661316,9.24663 2.382949,19.16393 1.514119,20.80835 5.433466,33.65873 10.265869,33.65873 2.742179,0 3.371102,-6.72802 3.371102,-36.06293 0,-29.22212 0.635286,-36.06292 3.349069,-36.06292 5.346913,0 6.267713,5.69124 6.267713,38.7392 0,26.04972 0.61524,31.36945 3.76789,32.57925 6.70192,2.57176 8.56556,-2.91423 9.34783,-27.517 0.80736,-25.39178 1.81946,-29.37628 7.46182,-29.37628 2.80212,0 3.46268,4.94077 3.45542,25.8451 -0.0103,29.96064 -4.06331,40.52227 -16.07862,41.90013 -5.34253,0.61267 -6.91105,2.15443 -7.51287,7.38468 -0.60886,5.29139 0.51693,7.0961 5.64209,9.04468 3.52149,1.33887 6.96514,4.58506 7.65256,7.21376 0.68742,2.6287 2.20556,4.77944 3.37364,4.77944 1.16809,0 2.12379,3.18181 2.12379,7.07069 0,3.88888 0.99255,7.68412 2.20566,8.43387 2.22866,1.37739 3.46567,27.64793 3.68501,78.25904 0.0961,22.18412 -0.54697,27.64822 -3.25413,27.64822 -2.44653,0 -3.55799,-3.9651 -4.04348,-14.42515 -3.32396,-71.6155 -4.88172,-86.15836 -10.895,-101.7128 -4.54559,-11.758 -6.12029,-1.71749 -5.09645,32.49582 0.58524,19.55704 0.90357,40.96769 0.70738,47.57923 -0.19618,6.61154 -0.57804,20.89207 -0.84857,31.7345 -0.43232,17.3267 -3.971657,29.0528 -6.993593,23.1704 z M 162.09112,901.0484 c -4.75358,-1.01525 -12.3268,-3.99272 -16.82937,-6.61656 -7.84159,-4.56968 -8.21609,-5.4338 -8.88908,-20.51058 l -0.7026,-15.73987 19.93615,-1.83142 c 10.96489,-1.00729 30.97125,-1.98257 44.45857,-2.16731 27.21719,-0.37282 30.32089,0.97302 31.29283,13.56947 0.6601,8.55491 -3.84344,25.76383 -6.74232,25.76383 -1.01623,0 -3.44118,1.5935 -5.38879,3.54111 -4.1595,4.15952 -43.48513,6.9067 -57.13539,3.99133 z m 26.67434,-7.23807 c 0,-4.01155 -7.16695,-8.03886 -11.38932,-6.39997 -3.74179,1.45233 -3.53426,2.03681 1.77254,4.99217 7.06384,3.93386 9.61678,4.30757 9.61678,1.4078 z m 21.63775,-12.37661 c -3.30577,-2.55212 -7.27218,-4.66425 -8.81423,-4.69366 -1.54205,-0.0293 -4.21499,-3.24177 -5.93988,-7.13856 -5.25795,-11.8785 -22.29458,-12.62659 -25.18608,-1.10593 -0.81632,3.25252 -3.61622,7.05466 -6.22198,8.44923 -6.14784,3.29022 -7.99352,1.34864 -3.23832,-3.40655 7.46071,-7.46072 4.65189,-11.27683 -8.30019,-11.27683 l -12.02098,0 0,8.30539 c 0,5.69306 1.92489,10.23031 6.11977,14.42517 7.36467,7.36467 13.93956,7.77762 20.88024,1.31139 2.83866,-2.64461 6.58004,-4.80839 8.31416,-4.80839 1.73412,0 3.15296,-1.08188 3.15296,-2.40419 0,-4.02946 5.99842,-2.69066 11.68612,2.60824 2.95913,2.75684 8.28661,6.52029 11.83885,8.36323 5.60738,2.90915 6.93849,2.86712 10.09935,-0.31877 3.25427,-3.28005 3.00275,-4.16205 -2.36979,-8.30977 z m 12.02098,-12.03518 c 0,-8.52674 -2.9217,-10.05307 -14.42517,-7.5359 l -8.41469,1.84128 6.9626,6.49135 c 9.5955,8.94603 15.87726,8.63082 15.87726,-0.79673 z m -91.35942,-28.43999 c 0,-1.13812 5.59707,-2.7322 12.43792,-3.54239 13.98714,-1.65658 15.14144,-2.45381 17.39985,-12.01765 1.53312,-6.49239 1.23882,-6.78486 -6.30113,-6.26204 -12.58515,0.87265 -18.72825,0.0346 -18.72825,-2.55475 0,-1.41292 8.36739,-2.40419 20.29377,-2.40419 20.98559,0 24.35805,-1.49291 21.77282,-9.6383 -1.11064,-3.49928 -3.64264,-4.78687 -9.41321,-4.78687 -12.96642,0 -22.30946,-4.46127 -25.50633,-12.17919 -2.30972,-5.57617 -2.29558,-7.81568 0.0673,-10.66282 4.18079,-5.03756 7.21078,-4.48929 7.21078,1.30478 0,6.77795 6.94424,13.44988 16.0202,15.39199 8.42401,1.80261 8.77326,1.28196 11.68453,-17.41863 1.70532,-10.95424 7.09716,-12.93883 7.23215,-2.66198 0.16445,12.51994 3.29721,16.61015 12.70798,16.59176 7.77038,-0.0144 9.64664,-1.2579 15.33373,-10.15618 5.26127,-8.23199 6.7806,-9.3555 8.07831,-5.97371 0.8791,2.29084 -0.13655,7.82131 -2.2571,12.28991 -3.65782,7.70828 -11.66282,11.5894 -25.10256,12.17066 -4.06583,0.17575 -8.38525,7.76009 -6.32142,11.09945 0.86522,1.39996 7.68558,2.38469 15.15633,2.18827 23.54267,-0.61901 31.61468,-0.0329 31.61468,2.29528 0,1.24223 -7.57321,3.00486 -16.82936,3.91694 -13.25567,1.30618 -16.82155,2.48577 -16.79256,5.55502 0.0666,7.04171 3.45031,9.48216 14.42243,10.40177 19.8537,1.66401 23.73044,9.12219 4.7417,9.12219 -17.90743,0 -26.31057,-5.55302 -26.37671,-17.43042 -0.0346,-6.19885 -0.69294,-6.61153 -10.54843,-6.61153 -10.32794,0 -10.53732,0.16108 -11.98506,9.21451 -1.08253,6.76987 -3.10759,9.95906 -7.63298,12.02097 -7.11236,3.24062 -32.37941,3.81584 -32.37941,0.73715 z"
       id="path3067"
       inkscape:connector-curvature="0" />
  </g>
</svg>
