<?xml version="1.0" encoding="UTF-8" standalone="no"?>
<svg
   xmlns:dc="http://purl.org/dc/elements/1.1/"
   xmlns:cc="http://creativecommons.org/ns#"
   xmlns:rdf="http://www.w3.org/1999/02/22-rdf-syntax-ns#"
   xmlns:svg="http://www.w3.org/2000/svg"
   xmlns="http://www.w3.org/2000/svg"
   viewBox="0 0 300 300"
   height="300"
   width="300"
   id="svg30"
   version="1.1">
  <metadata
     id="metadata36">
    <rdf:RDF>
      <cc:Work
         rdf:about="">
        <dc:format>image/svg+xml</dc:format>
        <dc:type
           rdf:resource="http://purl.org/dc/dcmitype/StillImage" />
        <dc:title></dc:title>
      </cc:Work>
    </rdf:RDF>
  </metadata>
  <defs
     id="defs34" />
  <path
     id="path40"
     d="m 134.86055,284.7433 c -3.73269,-1.0701 -4.53374,-11.459 -2.9918,-38.80115 1.19113,-21.12142 4.80621,-37.3708 11.37997,-51.15175 6.60615,-11.36231 13.48611,-15.89774 22.7232,-22.41194 -4.67302,-4.42565 -8.94185,-9.44419 -13.87677,-13.53253 -5.75184,4.93597 -11.24815,16.3432 -19.31578,16.58976 -4.21257,0 -5.45728,-4.417 -2.58277,-9.16523 2.50045,-4.13034 20.45412,-21.9617 25.75536,-25.5799 8.08747,-5.16541 14.32699,-6.29766 22.90838,-9.04718 -0.74105,-9.75132 -1.5609,-20.67349 -1.8421,-29.47911 -0.63219,-20.481928 -1.56362,-27.20279 -5.44501,-39.289377 -1.6148,-5.028452 -2.13631,-5.950942 -3.25777,-5.762633 -9.84865,2.911179 -37.83283,13.544521 -44.30293,9.444077 -1.42039,-0.930669 -1.65887,-1.571002 -1.48218,-3.979713 0.20936,-2.854147 0.24421,-2.887708 6.08611,-5.860298 14.2091,-4.871092 20.13813,-7.170824 33.7583,-10.690182 -2.72929,-9.122083 -14.82879,-19.476678 -12.37664,-28.309613 1.65249,-6.881548 9.79998,1.24322 11.70446,3.237251 8.38388,11.634758 13.24793,22.73857 21.52182,38.34676 5.92108,-8.895759 11.85263,-18.980502 20.42297,-26.607218 6.73857,-5.56879 14.64566,-10.021634 20.74142,-10.021634 3.12846,0.207933 4.84264,5.545024 2.87186,7.110871 -12.67142,9.760874 -20.34832,16.132641 -20.0394,16.632511 0.51656,0.835783 10.65754,5.495601 19.02018,8.739829 4.01867,1.398039 23.72547,11.305375 15.22136,14.98287 -5.66855,2.368471 -13.87627,-0.0083 -27.82384,-8.057146 -14.7827,-8.530789 -7.39912,-4.116849 -14.33006,-7.666497 -5.85124,6.571195 -7.5025,15.142494 -8.13958,20.241528 -0.26755,2.141421 -0.56973,13.950525 -0.67153,26.242464 -0.16761,20.2393 -0.52829,25.35412 -2.14967,30.48399 13.14407,6.48913 33.10418,13.12047 32.01689,27.48894 -1.10362,8.76306 -12.02266,12.2204 -18.4666,15.52778 13.55569,2.77886 27.95922,2.72426 40.2203,2.77068 1.75191,0.68808 3.73063,6.26699 2.67421,7.53988 -3.94347,4.75159 -33.16575,5.10108 -49.99173,0.59788 -3.7076,-0.99228 -6.85878,-1.6752 -7.00262,-1.51761 -0.0544,5.0204 -0.0771,8.30422 -0.061,13.67976 7.9093,0.59043 15.03078,0.7693 22.44521,0.80371 15.70956,0.0528 19.70034,1.39168 19.70034,6.60941 0,2.43609 -0.24608,2.80079 -2.65519,3.93515 -13.43304,1.25435 -28.19851,0.92114 -39.6145,1.47093 -0.57282,3.86168 -0.0626,8.88598 0.11669,9.06527 0.17928,0.17928 8.97714,0.68872 20.50394,0.97324 16.82733,0.41534 21.46838,0.73557 23.54841,1.62478 3.13229,1.33906 4.4048,3.6953 3.48535,6.45363 -1.1446,3.43382 -4.23219,3.9185 -26.96486,4.23289 l -20.19769,0.27933 c -0.4526,4.25845 -1.92501,8.63081 -1.79683,12.86943 0.0976,0.10486 11.65266,0.43883 25.67789,0.74214 28.45738,0.61545 29.38436,0.77085 30.56574,5.12424 0.77577,2.85877 0.58955,3.13784 -3.25361,4.876 -3.15251,1.42579 -3.7909,1.43509 -48.92771,1.23539 l -47.29322,-0.20925 c -0.1518,6.77595 -0.47331,10.27946 -0.61064,14.11128 -0.39771,11.63817 -0.68592,12.55184 -4.17305,13.22939 -0.95045,0.18467 -2.49542,0.11578 -3.43326,-0.15308 z m 40.47897,-38.98074 c -0.32007,-3.13837 0.0407,-8.54232 -0.37875,-13.42278 -9.92769,-0.56145 -19.22615,-0.41643 -29.69231,-0.56804 -0.78621,5.24759 -1.14307,9.86173 -1.60761,15.08633 10.88949,-0.28184 20.70618,-0.51988 31.67867,-1.09551 z m -0.68918,-26.04946 c 0.48977,-3.24332 0.12996,-6.37445 0.01,-9.47307 -9.01756,-0.32521 -15.89329,-0.40366 -25.59858,-0.58797 -0.69656,4.19972 -1.20612,7.49161 -1.81941,11.539 9.44681,-0.40983 17.60992,-0.76623 27.4081,-1.47796 z m 0.68002,-22.32816 c -0.0629,-4.00163 -0.52649,-9.11585 -0.55814,-14.10559 -2.74334,-1.26296 -19.18476,10.0973 -19.88866,14.04712 6.42604,0.63849 11.09382,0.47996 20.4468,0.0584 z m 19.5725,-33.27621 c 5.6185,-1.97013 13.32362,-5.96074 13.70225,-7.09666 -5.76317,-8.70161 -18.7724,-11.70141 -27.80005,-12.62691 -8.68533,0.16038 -11.06993,2.24682 -18.97416,6.61357 -0.69411,0.64544 14.12214,14.70637 15.81768,15.01131 4.12423,0.7417 12.27967,-0.15697 17.25428,-1.90131 z M 82.649004,278.08481 c -0.657826,-41.51794 -0.693674,-90.82046 -0.896242,-135.82863 -2.637892,0 -6.423184,6.3468 -9.804377,16.43898 -4.045851,12.07606 -4.337309,15.36425 -4.521036,51.00593 -0.14689,28.49513 -0.307588,32.80777 -1.2935,34.71432 -2.089976,4.04157 -6.329756,4.87665 -8.596559,1.69321 -2.636674,-3.70286 -3.057751,-7.18452 -2.271,-18.77759 0.328823,-28.47584 1.228764,-60.49542 9.86761,-83.55179 2.390075,-6.27343 3.712841,-10.08099 16.064593,-13.75184 0.338922,-5.76287 0.553675,-7.5192 0.452868,-19.22264 C 68.878884,105.68108 62.060792,93.227947 60.43065,82.809554 58.6306,75.540508 58.633122,60.13387 60.43545,53.596691 c 0.786184,-3.971507 1.657109,-5.187199 5.074377,-5.742336 7.412046,-0.0926 5.823386,13.081754 5.794724,15.879944 -0.119826,10.836025 0.756537,18.184413 2.831525,23.742568 1.357058,3.635099 6.246919,10.53997 7.464147,10.53997 1.167899,-26.612992 0.8919,-45.700905 1.048814,-74.999527 1.873293,-3.868171 3.701678,-7.992315 7.323975,-6.539457 4.552335,1.885641 4.390267,0.442711 4.782224,42.576727 0.195317,20.996147 0.557499,38.377187 0.804841,38.624537 0.864468,0.86446 3.178357,-1.02822 5.300933,-4.33597 4.13028,-6.43649 4.4371,-8.083728 4.53717,-24.358389 0.0782,-12.721855 0.2655,-15.184177 1.30063,-17.101675 3.78352,-5.896079 8.29698,-4.299078 9.98971,-0.06211 2.36861,40.43806 -2.63356,51.721777 -21.597167,60.461227 -0.128902,5.83317 -0.257793,11.66635 -0.386685,17.49952 15.401092,7.59811 19.439382,11.39915 23.500622,26.64876 2.77854,10.60815 3.15492,17.10681 3.11367,53.76032 -0.0393,34.9049 -0.0478,35.10897 -1.5169,36.57811 -5.22916,3.64664 -7.60499,-0.70873 -8.88483,-4.89959 -0.97818,-3.25693 -1.05875,-6.52747 -0.6386,-25.92149 0.94808,-43.76216 -1.6471,-59.38262 -11.736341,-70.64118 l -3.043372,-3.39609 c -0.209478,32.06868 -0.354481,65.48778 -0.412817,95.73671 -0.05424,29.53922 -0.285101,39.684 -0.947343,41.63639 -1.068255,3.14936 -3.728881,5.36792 -6.437516,5.36792 -3.332979,-1.10899 -3.475387,-3.15265 -5.052195,-6.56677 z M 144.86059,131.22239 c -5.88127,-1.25088 -8.48862,-2.77891 -10.74693,-6.29819 -4.7985,-7.47781 -7.37752,-19.93029 -6.64649,-32.091669 0.76789,-5.724143 1.97655,-21.086042 8.01469,-20.137003 3.61412,0.578272 5.13286,2.775109 4.59712,6.649691 -0.52734,3.986099 -0.87331,7.583911 -1.26825,11.572958 6.6031,-0.144182 12.29646,-0.138579 19.69126,-0.08972 1.22049,-6.074932 -1.00384,-18.279228 5.32177,-18.387505 8.69188,1.610165 7.49778,26.231605 7.01588,32.142658 -1.15069,16.42708 -8.54328,29.95047 -25.97905,26.63878 z m 9.57801,-12.51372 c 2.13893,-1.68248 4.35146,-10.49803 4.03128,-14.36341 -0.47841,-0.14578 -14.98514,0.10043 -19.31349,0.10499 0,2.43485 2.19819,10.10001 3.33469,12.32773 2.88843,3.94059 8.20003,4.79452 11.94752,1.93069 z m 45.94344,5.34294 c -4.29009,-6.92469 -6.41279,-16.45716 -6.41314,-28.799743 -2.7e-4,-9.328112 0.89117,-14.256375 3.53221,-19.527521 1.93951,-3.871011 4.07365,-4.350583 6.87852,-1.545706 2.81418,5.374411 1.29053,7.82933 0.78697,14.689382 6.4597,0.538365 13.02366,0.79958 19.404,1.626861 0.55255,-4.973455 -0.83442,-13.561937 2.41326,-16.386942 3.32263,-2.562063 6.06986,-1.350452 7.23619,1.270785 2.47428,5.630086 3.14475,10.995994 2.72365,21.798121 -0.40119,10.291803 -1.93438,18.468043 -4.5648,24.343253 -6.47188,10.67239 -26.42573,10.67421 -31.99686,2.53151 z m 24.61807,-22.07143 c -6.9519,-0.3829 -10.70862,-0.25564 -20.13457,-0.68111 -1.81909,7.52083 3.34831,16.5261 7.53969,17.66133 9.8825,1.34438 11.51007,-5.93051 12.59488,-16.98022 z"
     style="fill:#000000;stroke-width:0.69123983" />
</svg>
