<?xml version="1.0" encoding="UTF-8" standalone="no"?>
<!-- Created with Inkscape (http://www.inkscape.org/) -->

<svg
   xmlns:dc="http://purl.org/dc/elements/1.1/"
   xmlns:cc="http://creativecommons.org/ns#"
   xmlns:rdf="http://www.w3.org/1999/02/22-rdf-syntax-ns#"
   xmlns:svg="http://www.w3.org/2000/svg"
   xmlns="http://www.w3.org/2000/svg"
   xmlns:sodipodi="http://sodipodi.sourceforge.net/DTD/sodipodi-0.dtd"
   xmlns:inkscape="http://www.inkscape.org/namespaces/inkscape"
   width="300"
   height="300"
   id="svg2"
   version="1.1"
   inkscape:version="0.48.4 r9939"
   sodipodi:docname="image-seal.svg">
  <defs
     id="defs4" />
  <sodipodi:namedview
     id="base"
     pagecolor="#ffffff"
     bordercolor="#666666"
     borderopacity="1.0"
     inkscape:pageopacity="0.0"
     inkscape:pageshadow="2"
     inkscape:zoom="2.0018437"
     inkscape:cx="145.03351"
     inkscape:cy="130.6666"
     inkscape:document-units="px"
     inkscape:current-layer="layer1"
     showgrid="false"
     inkscape:window-width="1215"
     inkscape:window-height="1000"
     inkscape:window-x="65"
     inkscape:window-y="24"
     inkscape:window-maximized="1"
     fit-margin-top="10"
     fit-margin-left="10"
     fit-margin-right="10"
     fit-margin-bottom="10" />
  <metadata
     id="metadata7">
    <rdf:RDF>
      <cc:Work
         rdf:about="">
        <dc:format>image/svg+xml</dc:format>
        <dc:type
           rdf:resource="http://purl.org/dc/dcmitype/StillImage" />
        <dc:title />
      </cc:Work>
    </rdf:RDF>
  </metadata>
  <g
     inkscape:label="Calque 1"
     inkscape:groupmode="layer"
     id="layer1"
     transform="translate(0,-752.36218)">
    <path
       style="fill:#000000"
       d="m 223.98423,1039.0201 c -4.44698,-4.5881 -8.08541,-9.2505 -8.08541,-10.3608 0,-1.1103 -2.33761,-5.3017 -5.19469,-9.314 -6.07149,-8.5267 -7.48755,-13.6165 -9.27415,-33.33487 -1.34672,-14.86374 -0.1619,-19.68871 10.79816,-43.97789 7.02277,-15.56336 9.65042,-28.78206 6.62894,-33.34793 -1.36493,-2.06267 -5.86974,-3.02882 -11.79504,-2.52973 -8.93183,0.75234 -9.64205,1.4123 -10.39723,9.66153 -3.06081,33.43518 -6.62618,43.16918 -22.00653,60.08098 -12.40302,13.63801 -12.86308,0.25171 -0.49993,-14.54592 4.86972,-5.82867 8.9099,-11.34367 8.9782,-12.25553 0.0683,-0.91189 1.07865,-17.31509 2.24526,-36.45161 2.13572,-35.03298 5.70417,-47.42243 13.65882,-47.42243 5.55242,0 16.42316,-13.51559 17.29482,-21.50267 0.61404,-5.62662 2.13661,-7.58918 5.88769,-7.58918 4.06916,0 5.37749,2.22813 6.68442,11.38377 2.12277,14.87119 -1.96557,21.18923 -16.48557,25.47648 -11.2294,3.31564 -14.11116,7.02586 -14.19672,18.27785 -0.0288,3.78814 1.85288,4.44587 11.31721,3.95596 12.96945,-0.67134 22.64272,6.12169 24.80199,17.41714 1.07855,5.64207 -9.20861,32.08496 -21.15088,54.36777 -7.09745,13.24299 1.60834,43.17608 17.25116,59.31448 8.31272,8.5761 11.22909,21.0387 4.92325,21.0387 -1.81407,0 -6.93676,-3.7539 -11.38377,-8.3421 z m -145.942115,-36.0775 -9.829403,-9.00338 -2.205534,-52.34245 c -1.213042,-28.78838 -1.536712,-55.92217 -0.719264,-60.29733 1.887435,-10.102 17.277322,-23.66672 26.85114,-23.66672 13.060846,0 11.601306,11.62978 -1.774451,14.13907 -10.005697,1.87708 -13.600693,7.12284 -13.600693,19.84592 0,9.78938 1.442536,10.55986 11.333356,6.05331 5.064525,-2.30757 7.199577,-2.2656 9.605497,0.18871 2.449107,2.49846 1.512605,4.46828 -4.495636,9.45602 -4.174048,3.46511 -9.86593,7.22611 -12.648628,8.35778 -4.458214,1.81308 -4.953924,3.97063 -4.171442,18.15604 l 0.888012,16.09844 5.531331,-6.93694 c 5.926727,-7.43283 11.362483,-8.75791 16.176928,-3.94346 1.646432,1.64645 3.565042,2.42199 4.263582,1.72345 0.69854,-0.69853 1.35527,-23.87545 1.4594,-51.50422 0.22935,-60.85066 1.00259,-63.51221 21.34286,-73.46379 15.75638,-7.70886 21.18956,-15.89875 16.85637,-25.40902 -2.79001,-6.12343 -14.2709,-9.28789 -25.52843,-7.03638 -5.80479,1.16097 -7.8306,3.24351 -9.16657,9.42323 -3.96171,18.32551 -9.323252,26.29938 -21.194424,31.52111 -6.334387,2.78629 -15.126428,5.80425 -19.537865,6.70658 -6.77674,1.38611 -7.917052,0.93372 -7.351929,-2.9167 0.401984,-2.73888 4.093749,-5.53951 9.252408,-7.019 4.720946,-1.35393 10.306067,-3.90567 12.411381,-5.67048 2.105311,-1.76484 5.762836,-4.65335 8.127831,-6.41895 2.458901,-1.83572 4.625161,-7.47124 5.059451,-13.16219 l 0.75946,-9.95196 -13.28106,0.65304 c -10.066219,0.495 -13.28106,-0.21249 -13.28106,-2.92302 0,-6.93633 12.456174,-9.44764 46.860637,-9.44764 33.13744,0 34.0726,0.15052 37.98072,6.11513 2.81571,4.2973 3.52816,8.99728 2.39667,15.81079 -3.09667,18.64734 -5.97542,22.95875 -17.62677,26.399 -5.99728,1.77078 -12.44489,4.42882 -14.32802,5.90676 -6.40411,5.02613 -9.02846,20.3377 -8.69873,50.75194 0.99792,92.04472 1.76679,116.6973 3.73657,119.80619 1.83653,2.89852 3.68338,2.89852 11.75612,0 18.66267,-6.70097 25.06062,-29.75037 11.73227,-42.26704 -16.31904,-15.32526 -20.88384,-32.68252 -5.10303,-19.40383 9.43527,7.93924 12.24479,6.42034 12.24479,-6.61984 0,-7.97878 -1.67491,-11.83912 -7.78985,-17.95404 -15.7113,-15.7113 -19.63618,-27.00422 -6.36267,-18.30707 8.91137,5.83896 14.1614,3.25244 14.11376,-6.95336 -0.0531,-11.36229 -3.0807,-15.24418 -14.35752,-18.40813 -14.32928,-4.02039 -12.77186,-10.10585 2.61755,-10.22781 10.02011,-0.0794 13.13261,1.02029 17.07564,6.03305 4.43051,5.63248 4.82199,10.93155 4.82199,65.27188 0,58.513 -0.66762,63.99429 -8.90625,73.12171 -6.08103,6.7369 -14.83224,8.7189 -38.49788,8.7189 l -24.969215,0 -9.8294,-9.0034 z m 26.801955,-8.07227 c 0.8148,-14.24691 -0.95311,-47.74391 -2.61059,-49.46347 -2.947502,-3.05788 -24.088699,14.1078 -24.987407,20.28863 -1.102092,7.57961 3.966446,25.04046 8.619423,29.69344 5.537668,5.53767 18.652714,5.17927 18.978574,-0.5186 z m 55.40079,-155.24976 c 0,-5.31071 8.67807,-9.65258 19.45607,-9.73439 5.83112,-0.0443 11.3056,-1.21882 12.1655,-2.61017 0.8599,-1.39135 3.61951,-2.52972 6.13246,-2.52972 8.08384,0 17.89993,-9.81157 17.89993,-17.89169 0,-9.13757 4.32902,-9.65611 7.65179,-0.91657 3.71002,9.75814 2.974,20.2951 -1.68975,24.1904 -2.28629,1.90954 -13.95465,4.76281 -25.92969,6.3406 -11.97507,1.57782 -24.90335,3.59224 -28.72956,4.47651 -4.51326,1.04305 -6.95675,0.57766 -6.95675,-1.32497 z m 2.50941,-36.40141 c -1.72089,-2.07357 -2.68887,-3.77013 -2.15102,-3.77013 0.53784,0 7.20683,-2.27675 14.81996,-5.05945 7.61314,-2.7827 15.79672,-5.05945 18.18577,-5.05945 2.38902,0 7.24321,-1.3211 10.78703,-2.93577 5.59666,-2.55002 6.44336,-4.5249 6.44336,-15.02908 0,-6.6513 0.90812,-12.65452 2.01807,-13.34051 4.46109,-2.75709 8.30847,3.24873 9.64296,15.05276 1.72992,15.30215 -2.15303,21.52396 -13.63659,21.85048 -4.47883,0.12724 -8.14334,1.19666 -8.14334,2.37627 0,1.17961 -2.9208,2.14475 -6.49062,2.14475 -3.56985,0 -8.40795,0.9809 -10.75133,2.17979 -9.25812,4.73643 -17.58301,5.37529 -20.72425,1.59034 z"
       id="path3067"
       inkscape:connector-curvature="0" />
  </g>
</svg>
