<?xml version="1.0" encoding="UTF-8" standalone="no"?>
<!-- Created with Inkscape (http://www.inkscape.org/) -->

<svg
   xmlns:dc="http://purl.org/dc/elements/1.1/"
   xmlns:cc="http://creativecommons.org/ns#"
   xmlns:rdf="http://www.w3.org/1999/02/22-rdf-syntax-ns#"
   xmlns:svg="http://www.w3.org/2000/svg"
   xmlns="http://www.w3.org/2000/svg"
   xmlns:sodipodi="http://sodipodi.sourceforge.net/DTD/sodipodi-0.dtd"
   xmlns:inkscape="http://www.inkscape.org/namespaces/inkscape"
   version="1.0"
   width="300"
   height="300"
   id="svg2"
   inkscape:version="0.48.4 r9939"
   sodipodi:docname="dessin.svg">
  <metadata
     id="metadata2990">
    <rdf:RDF>
      <cc:Work
         rdf:about="">
        <dc:format>image/svg+xml</dc:format>
        <dc:type
           rdf:resource="http://purl.org/dc/dcmitype/StillImage" />
      </cc:Work>
    </rdf:RDF>
  </metadata>
  <sodipodi:namedview
     pagecolor="#ffffff"
     bordercolor="#666666"
     borderopacity="1"
     objecttolerance="10"
     gridtolerance="10"
     guidetolerance="10"
     inkscape:pageopacity="0"
     inkscape:pageshadow="2"
     inkscape:window-width="1215"
     inkscape:window-height="1000"
     id="namedview2988"
     showgrid="false"
     inkscape:zoom="2.2250294"
     inkscape:cx="129.01005"
     inkscape:cy="139.3918"
     inkscape:window-x="65"
     inkscape:window-y="24"
     inkscape:window-maximized="1"
     inkscape:current-layer="svg2" />
  <defs
     id="defs5" />
  <path
     style="fill:#000000"
     d="m 243.0905,286.71384 c -8.41498,-1.23419 -13.70473,-9.25275 -19.83333,-30.06473 -7.44762,-25.29117 -7.11589,-62.52587 0.63355,-71.10918 1.36189,-1.50845 3.20471,-9.70076 4.09513,-18.2051 1.57172,-15.01138 1.40778,-15.54828 -5.61984,-18.40406 -3.98133,-1.61788 -7.79109,-2.94159 -8.46614,-2.94159 -0.67505,0 -1.22739,5.38825 -1.22739,11.97389 0,21.38887 -20.23972,60.52909 -31.30008,60.52909 -4.45167,0 -5.11084,-2.75917 -1.47234,-6.16275 6.87373,-6.42993 13.9345,-22.01519 16.60798,-36.65883 1.64568,-9.01407 4.14768,-19.10804 5.56001,-22.4311 2.46338,-5.79618 -0.28138,-27.43177 -3.8882,-30.64858 -3.43026,-3.05938 -15.31467,6.70174 -15.31467,12.57854 0,6.05639 -3.70006,8.00595 -6.77439,3.56944 -2.68032,-3.86793 -7.58644,-2.82723 -15.58109,3.3051 -9.21054,7.06498 -9.25674,8.84907 -0.41999,16.21194 12.99336,10.82618 14.50329,16.38742 15.9108,58.6019 1.08931,32.672 0.63096,40.31342 -2.55989,42.67526 -8.06865,5.97234 -9.54373,0.005 -9.54373,-38.60946 0,-35.58562 -2.20825,-50.76654 -7.38476,-50.76697 -1.15465,-7e-5 -1.66802,21.06769 -1.1408,46.81733 0.6795,33.18734 0.0135,48.3904 -2.28335,52.22012 -7.10346,11.83781 -9.49207,0.99781 -10.39888,-47.19267 -0.8206,-43.60689 -3.18147,-56.26812 -7.57853,-40.64304 -0.98562,3.50242 -0.96444,21.28083 0.0472,39.50761 1.56079,28.12394 1.21388,33.60244 -2.29219,36.19758 -6.27081,4.64161 -7.32842,-0.31237 -7.82276,-36.64318 -0.49802,-36.59931 4.12912,-59.86817 12.28327,-61.76997 2.69105,-0.62763 4.89125,-2.91753 4.88932,-5.08862 -0.002,-3.30092 -3.33181,-3.94747 -20.32344,-3.94747 -19.26606,0 -20.31989,0.282 -20.31964,5.43772 1.9e-4,3.794 1.60965,5.43772 5.32445,5.43772 9.73648,0 11.87434,8.76276 12.08729,49.5437 0.20026,38.34806 -1.29499,48.82755 -6.55332,45.92912 -1.64612,-0.90737 -2.72888,-16.68792 -2.72888,-39.77128 0,-31.78571 -0.68844,-38.50267 -4.06464,-39.65816 -3.52469,-1.2063 -4.06463,4.67961 -4.06463,44.30898 0,26.25042 -1.09539,46.30387 -2.573808,47.11878 -6.135103,3.38173 -8.27516,-10.12123 -8.485301,-53.53922 -0.196457,-40.56356 -0.62197,-44.69045 -3.942423,-38.22295 -2.692711,5.24487 -3.756127,19.07625 -3.844546,50.00527 -0.0672,23.51522 -1.20343,43.35095 -2.524924,44.07937 -1.321494,0.72843 -3.841809,-0.22211 -5.600712,-2.11229 -3.67077,-3.94478 -1.098887,-87.83022 2.993711,-97.64393 1.300872,-3.11937 4.789303,-6.23697 7.752095,-6.92798 3.804795,-0.88741 5.386885,-3.30297 5.386885,-8.22482 0,-6.52878 -0.68985,-6.96842 -10.934351,-6.96842 -10.094678,0 -10.711636,-0.37119 -8.033936,-4.83353 1.899214,-3.165 5.673739,-4.83354 10.934351,-4.83354 7.125274,0 8.033936,-0.82242 8.033936,-7.27142 l 0,-7.27139 -14.903654,1.56222 c -15.619897,1.63733 -17.674325,0.38272 -10.672589,-6.51756 3.186699,-3.14054 6.918981,-3.84822 15.120869,-2.86706 10.658958,1.27509 10.870861,1.15655 9.995149,-5.59201 -0.631563,-4.86729 -2.734522,-7.27819 -7.151532,-8.19871 -8.205681,-1.71008 -8.935337,-5.929314 -1.194947,-6.909748 8.61629,-1.091412 8.198689,-11.180299 -0.677439,-16.367331 -6.343267,-3.706884 -6.774389,-5.261276 -6.774389,-24.42477 0,-15.29434 0.855931,-20.213539 3.387195,-19.467047 2.185064,0.644388 3.66974,7.148778 4.183347,18.327141 1.151971,25.072913 5.978234,21.454192 5.978234,-4.482479 0,-21.041012 -0.239,-21.891776 -6.774387,-24.107841 -3.725914,-1.263423 -6.774389,-4.014955 -6.774389,-6.114516 0,-3.046278 2.599984,-3.668589 12.871339,-3.080775 l 12.871336,0.73661 0.76618,27.188617 c 0.63701,22.604747 1.47151,27.188618 4.9497,27.188618 3.11787,0 3.97855,-2.12158 3.3789,-8.329053 -0.4425,-4.580981 -0.0217,-9.028283 0.93763,-9.882892 0.95822,-0.854612 1.06732,-5.263121 0.24252,-9.796692 -1.19294,-6.556531 -0.5957,-8.242854 2.91941,-8.242854 3.73559,0 4.40585,3.084171 4.33301,19.938321 -0.0875,20.240639 -2.36838,26.042497 -11.43029,29.075102 -2.60814,0.87284 -4.74207,3.796185 -4.74207,6.496341 0,4.415891 1.71847,4.909394 17.09549,4.909394 10.79504,0 19.03403,-1.302396 22.35549,-3.533867 5.08537,-3.416559 4.93738,-3.80155 -4.45799,-11.598134 -9.25416,-7.679438 -9.80156,-9.031367 -11.47004,-28.328299 -0.96365,-11.145201 -1.13425,-20.815042 -0.37909,-21.488532 3.97399,-3.544316 9.66103,7.748002 11.17256,22.184498 2.36212,22.560266 7.96774,21.539062 6.76301,-1.232055 -0.67107,-12.684085 -2.35514,-19.048022 -6.19171,-23.398085 -4.44665,-5.041777 -4.69346,-6.489385 -1.57984,-9.266347 2.77535,-2.475264 5.48573,-2.682214 10.93378,-0.834835 7.18689,2.437003 7.24369,2.646278 7.24369,26.683746 0,19.924358 0.72193,24.227477 4.06464,24.227477 3.16371,0 4.06463,-3.230784 4.06463,-14.576446 0,-11.135806 1.02396,-14.926894 4.3381,-16.061144 5.56822,-1.905692 9.67491,3.705076 7.83114,10.69927 -1.58245,6.002828 -0.77115,6.439896 6.15838,3.31763 7.60598,-3.427068 23.63365,-7.546971 29.35998,-7.546971 9.16911,0 17.34652,-6.900408 17.34652,-14.637635 0,-5.644503 1.19053,-7.113258 5.76585,-7.113258 5.24495,0 5.6032,0.907096 3.96562,10.040738 -0.99015,5.522406 -2.44875,10.976607 -3.24138,12.120448 -3.76818,5.437812 -45.57316,15.65064 -55.03283,13.444353 -4.81429,-1.12284 -5.65237,-0.229303 -5.65237,6.026454 0,6.843754 -8.1259,16.370397 -13.96339,16.370397 -1.26231,0 -2.29514,2.775439 -2.29514,6.167636 0,4.689663 1.96176,6.777554 8.18647,8.712877 8.90786,2.769541 13.49158,8.423108 13.49158,16.640548 0,4.22462 1.19491,4.99857 6.09695,3.94904 3.35331,-0.71795 10.68313,-2.04669 16.28844,-2.95273 5.60535,-0.90605 10.85973,-2.61163 11.67639,-3.79017 0.8167,-1.17853 3.7024,-2.14277 6.41267,-2.14277 6.44708,0 11.27194,-5.40375 13.49995,-15.119702 1.88677,-8.227761 5.27158,-9.441363 9.53188,-3.417622 1.62784,2.301582 1.33811,7.155126 -0.80848,13.545174 -2.766,8.2339 -5.19956,10.62005 -14.05328,13.77958 -8.88117,3.16932 -10.70795,4.96923 -10.70795,10.55054 0,6.74217 4.03562,9.66322 13.35043,9.66322 2.62784,0 6.9241,2.1151 9.54725,4.70025 5.37604,5.29815 5.01343,11.19298 -2.90716,47.26021 -8.3741,38.13222 -5.29275,61.72882 11.37276,87.0916 7.14298,10.87067 6.51119,12.83071 -3.65502,11.33966 z M 140.86397,131.48859 c 0,-5.82385 -0.70908,-6.06756 -19.64572,-6.75199 l -19.64573,-0.71007 0,7.46206 0,7.46205 19.64573,-0.71007 c 18.93664,-0.68445 19.64572,-0.92816 19.64572,-6.75198 z m 20.32317,-2.67534 c 0,-1.18702 -1.82909,-2.1582 -4.06464,-2.1582 -2.23555,0 -4.06463,1.59717 -4.06463,3.54929 0,2.16204 1.5887,3.00559 4.06463,2.1582 2.23555,-0.7651 4.06464,-2.36229 4.06464,-3.54929 z m -18.96829,-19.07556 0,-7.2503 -20.32317,0 -20.32316,0 0,7.2503 0,7.2503 20.32316,0 20.32317,0 0,-7.2503 z m 23.04791,4.8119 c 2.95999,-4.27156 -1.54302,-12.0622 -6.97199,-12.0622 -3.67977,0 -5.2369,1.67671 -5.2369,5.63912 0,3.1015 0.81292,6.36414 1.80651,7.25029 2.69672,2.40517 8.48124,1.94516 10.40238,-0.82721 z m 13.46043,-26.668671 c -2.9158,-4.207735 3.76393,-8.998369 14.40335,-10.32991 27.33214,-3.420715 35.80049,-8.225099 35.80049,-20.310899 0,-5.430223 1.27832,-7.921576 4.06462,-7.921576 2.23555,0 4.16991,0.815659 4.29854,1.812576 2.20975,17.122914 1.40713,25.264805 -2.60147,26.38998 -2.42377,0.680295 -6.8456,2.133375 -9.82633,3.229064 -4.91596,1.807016 -39.92824,9.65341 -43.07563,9.65341 -0.72353,0 -2.10211,-1.135203 -3.06357,-2.522645 z"
     id="path3077"
     inkscape:connector-curvature="0" />
</svg>
