<?xml version="1.0" encoding="UTF-8" standalone="no"?>
<!-- Created with Inkscape (http://www.inkscape.org/) -->

<svg
   xmlns:dc="http://purl.org/dc/elements/1.1/"
   xmlns:cc="http://creativecommons.org/ns#"
   xmlns:rdf="http://www.w3.org/1999/02/22-rdf-syntax-ns#"
   xmlns:svg="http://www.w3.org/2000/svg"
   xmlns="http://www.w3.org/2000/svg"
   xmlns:sodipodi="http://sodipodi.sourceforge.net/DTD/sodipodi-0.dtd"
   xmlns:inkscape="http://www.inkscape.org/namespaces/inkscape"
   version="1.0"
   width="300"
   height="300"
   id="svg2"
   inkscape:version="0.48.4 r9939"
   sodipodi:docname="dessin.svg">
  <metadata
     id="metadata2990">
    <rdf:RDF>
      <cc:Work
         rdf:about="">
        <dc:format>image/svg+xml</dc:format>
        <dc:type
           rdf:resource="http://purl.org/dc/dcmitype/StillImage" />
      </cc:Work>
    </rdf:RDF>
  </metadata>
  <sodipodi:namedview
     pagecolor="#ffffff"
     bordercolor="#666666"
     borderopacity="1"
     objecttolerance="10"
     gridtolerance="10"
     guidetolerance="10"
     inkscape:pageopacity="0"
     inkscape:pageshadow="2"
     inkscape:window-width="1215"
     inkscape:window-height="1000"
     id="namedview2988"
     showgrid="false"
     inkscape:zoom="2.2250294"
     inkscape:cx="129.01005"
     inkscape:cy="139.3918"
     inkscape:window-x="65"
     inkscape:window-y="24"
     inkscape:window-maximized="1"
     inkscape:current-layer="svg2"
     showguides="true"
     inkscape:guide-bbox="true" />
  <defs
     id="defs5" />
  <path
     style="fill:#000000"
     d="m 229.84204,283.54144 c -6.69826,-9.24215 -14.53749,-33.71101 -14.53749,-45.37636 0,-5.52902 2.94205,-18.85634 6.5379,-29.61634 7.28865,-21.81009 6.77538,-28.85458 -2.46432,-33.82173 -8.89204,-4.78026 -13.31668,-2.08358 -15.21684,9.27417 -2.01287,12.0314 -14.50612,32.49043 -23.42466,38.36031 -9.68064,6.3715 -12.70953,1.23804 -4.74987,-8.05022 8.58659,-10.01991 16.76961,-28.04006 18.90828,-41.63874 1.96626,-12.50225 -0.67063,-13.89325 -10.94605,-5.77428 -6.34102,5.01026 -17.22583,7.04654 -17.1478,3.20794 0.0708,-3.47934 3.65044,-6.97931 14.01265,-13.70048 12.88208,-8.35562 19.68505,-12.94377 36.14841,-24.37971 12.88227,-8.9484 13.10439,-9.3203 10.72863,-17.96329 -4.2432,-15.43667 2.32411,-16.604849 10.20395,-1.81505 5.98923,11.24124 3.75594,17.03055 -9.17723,23.79008 -18.89917,9.87764 -24.7117,18.55642 -18.75543,28.00394 1.4019,2.2236 4.81792,3.06505 9.10286,2.24225 14.34578,-2.75469 24.90934,18.93842 15.95469,32.7642 -5.83547,9.00985 -10.08529,24.73517 -10.08529,37.31793 0,12.05168 5.06395,28.05331 8.87785,28.05331 1.06216,0 1.9312,1.36916 1.9312,3.04256 0,1.67337 2.44483,5.65659 5.43295,8.85161 6.0603,6.47986 4.90346,13.8138 -2.15919,13.68867 -2.50316,-0.0444 -6.63201,-2.95171 -9.1752,-6.46077 z M 72.231991,220.33213 c 0,-87.03163 0.598151,-88.04891 53.561919,-91.09289 27.11978,-1.55866 27.27649,-1.53401 32.47697,5.10703 4.68466,5.98234 5.27847,10.72129 5.73549,45.77221 0.28038,21.50443 0.92433,39.77274 1.43099,40.5962 0.50666,0.82346 1.54408,10.45426 2.30538,21.40172 1.55406,22.34738 -1.40703,34.97129 -7.09137,30.2325 -5.39182,-4.49493 -6.77234,-19.56422 -6.79482,-74.16994 -0.0115,-27.79057 -1.0967,-52.26058 -2.41169,-54.37781 -5.28468,-8.50874 -66.127149,-1.9932 -66.518287,7.12335 -0.04387,1.02237 -0.485575,29.18058 -0.981582,62.57376 -0.496004,33.39322 -1.677659,61.97589 -2.625895,63.51705 -0.948236,1.54121 -3.380748,2.80215 -5.405585,2.80215 -3.099562,0 -3.68152,-9.40316 -3.68152,-59.48533 z m 37.890959,-0.2361 c -11.515478,-4.58604 -13.560307,-11.70525 -10.205797,-35.53226 2.023097,-14.37002 4.352067,-22.00127 7.430937,-24.34871 6.53877,-4.9854 22.096,-4.45675 26.74622,0.90885 4.89589,5.64904 7.12007,22.70227 5.28737,40.53926 -1.27542,12.41307 -2.217,14.12282 -9.75682,17.71677 -9.38139,4.47176 -10.01317,4.49496 -19.50191,0.71609 z m 16.07768,-12.13632 c 1.42106,0 2.1394,-8.36875 1.70718,-19.88918 l -0.74618,-19.88918 -8.10114,-0.78904 c -8.02412,-0.78154 -8.11767,-0.65609 -9.84061,13.19578 -2.47644,19.9098 2.19287,31.92549 11.12482,28.62782 1.8714,-0.69091 4.50656,-1.2562 5.85593,-1.2562 z m -25.0786,-90.36189 C 89.571383,113.79674 85.531459,101.87761 90.06347,84.971384 c 3.559893,-13.279838 12.00207,-16.651812 37.5643,-15.00396 21.9999,1.418213 26.35997,4.613255 26.35997,19.316513 0,16.208563 -7.58695,24.804553 -24.23896,27.462703 -5.63846,0.90006 -12.55113,2.06365 -15.36149,2.58574 -2.81035,0.52209 -8.77972,-0.25846 -13.26526,-1.73456 z m 33.03136,-12.93344 c 3.85866,-2.99277 5.45992,-9.859064 4.78794,-20.530766 -0.24026,-3.815404 -2.93238,-4.491105 -17.89352,-4.491105 -13.70184,0 -17.95494,0.90103 -19.16151,4.059411 -2.555781,6.690191 -1.75745,17.80355 1.51507,21.09077 4.03281,4.05093 25.47898,3.96144 30.75202,-0.12832 z m 40.27328,12.41101 c 0,-1.99575 7.66932,-7.93684 17.04291,-13.20241 9.37363,-5.265567 20.25287,-12.44667 24.17609,-15.958003 6.36637,-5.697927 6.96876,-7.589282 5.60361,-17.593737 -1.81124,-13.273966 1.50478,-14.626182 9.21049,-3.755879 6.82869,9.633092 7.04151,22.436239 0.40811,24.55106 -2.68159,0.854925 -8.71747,4.926684 -13.41305,9.048349 -9.39915,8.25031 -32.7544,20.53927 -39.03503,20.53927 -2.19622,0 -3.99313,-1.63289 -3.99313,-3.62865 z m -3.70456,-39.649323 c 1.33492,-1.219046 11.62465,-8.368172 22.86607,-15.886952 25.7471,-17.220861 26.8261,-18.343348 26.8261,-27.907514 0,-4.335291 1.10491,-7.882346 2.45533,-7.882346 3.43964,0 12.87387,10.570227 12.87387,14.424059 0,6.083183 -51.66989,39.469195 -61.08453,39.469195 -3.74315,0 -5.36442,-0.912778 -3.93684,-2.216442 z M 67.122257,69.193816 c 0,-1.512309 1.437113,-4.165646 3.193584,-5.896299 4.251824,-4.189331 24.421593,-17.562088 33.213269,-22.020728 5.79591,-2.939354 7.02589,-5.25779 7.02589,-13.243393 0,-5.324146 1.04594,-10.329594 2.3243,-11.123218 4.45167,-2.763644 10.45003,1.731079 10.45003,7.830475 0,7.667958 7.86158,15.803737 17.18036,17.779584 3.89999,0.826907 9.08723,2.588565 11.52722,3.914795 2.44,1.326232 6.17649,2.41133 8.30332,2.41133 2.12684,0 3.86697,1.154857 3.86697,2.566347 0,1.41149 1.60153,2.566346 3.55896,2.566346 2.96935,0 6.66051,5.094128 6.66051,9.192101 0,0.590304 -2.64502,1.07328 -5.87782,1.07328 -6.73076,0 -19.6212,-5.471211 -19.65092,-8.340622 -0.011,-1.058617 -2.31931,-1.924759 -5.12967,-1.924759 -2.81035,0 -5.10973,-0.872274 -5.10973,-1.938387 0,-4.308009 -18.20481,-7.759538 -25.77936,-4.88762 -4.08865,1.550227 -7.43391,3.720261 -7.43391,4.822302 0,1.102036 -1.72453,2.003705 -3.8323,2.003705 -2.107765,0 -3.834356,0.866142 -3.836868,1.924759 -0.0069,2.914534 -21.651324,16.039657 -26.450713,16.039657 -2.311718,0 -4.203122,-1.237344 -4.203122,-2.749655 z"
     id="path3180"
     inkscape:connector-curvature="0" />
</svg>
