<?xml version="1.0" encoding="UTF-8" standalone="no"?>
<!-- Created with Inkscape (http://www.inkscape.org/) -->

<svg
   xmlns:dc="http://purl.org/dc/elements/1.1/"
   xmlns:cc="http://creativecommons.org/ns#"
   xmlns:rdf="http://www.w3.org/1999/02/22-rdf-syntax-ns#"
   xmlns:svg="http://www.w3.org/2000/svg"
   xmlns="http://www.w3.org/2000/svg"
   xmlns:sodipodi="http://sodipodi.sourceforge.net/DTD/sodipodi-0.dtd"
   xmlns:inkscape="http://www.inkscape.org/namespaces/inkscape"
   width="300"
   height="300"
   id="svg2"
   version="1.1"
   inkscape:version="0.48.4 r9939"
   sodipodi:docname="image-seal.svg">
  <defs
     id="defs4" />
  <sodipodi:namedview
     id="base"
     pagecolor="#ffffff"
     bordercolor="#666666"
     borderopacity="1.0"
     inkscape:pageopacity="0.0"
     inkscape:pageshadow="2"
     inkscape:zoom="1.979899"
     inkscape:cx="130.93154"
     inkscape:cy="137.35134"
     inkscape:document-units="px"
     inkscape:current-layer="layer1"
     showgrid="false"
     inkscape:window-width="1215"
     inkscape:window-height="1000"
     inkscape:window-x="65"
     inkscape:window-y="24"
     inkscape:window-maximized="1"
     fit-margin-top="10"
     fit-margin-left="10"
     fit-margin-right="10"
     fit-margin-bottom="10" />
  <metadata
     id="metadata7">
    <rdf:RDF>
      <cc:Work
         rdf:about="">
        <dc:format>image/svg+xml</dc:format>
        <dc:type
           rdf:resource="http://purl.org/dc/dcmitype/StillImage" />
        <dc:title />
      </cc:Work>
    </rdf:RDF>
  </metadata>
  <g
     inkscape:label="Calque 1"
     inkscape:groupmode="layer"
     id="layer1"
     transform="translate(0,-752.36218)">
    <path
       style="fill:#000000"
       d="m 216.24653,1038.0697 c -11.38819,-13.6799 -21.90162,-39.53646 -21.90162,-53.86437 0,-8.18433 2.76138,-19.48273 8.13099,-33.26864 5.40323,-13.87217 7.83231,-24.25334 7.83231,-33.47273 0,-8.14014 -1.5221,-11.14787 -7.96239,-15.73375 l -7.96239,-5.66972 -2.96608,7.48397 c -1.63135,4.11619 -4.03452,9.5629 -5.34037,12.10383 -1.30585,2.54093 -2.37427,7.09005 -2.37427,10.10919 0,11.16319 -15.60903,34.49113 -23.07844,34.49113 -1.93989,0 -3.52707,-0.5423 -3.52707,-1.20509 0,-3.39441 6.47469,-14.75821 8.40873,-14.75821 1.22843,0 2.23347,-2.39449 2.23347,-5.3211 0,-2.9266 1.19725,-5.3211 2.66056,-5.3211 1.4633,0 2.66055,-3.49197 2.66055,-7.75995 0,-4.26795 1.20911,-8.16297 2.68691,-8.65557 1.4778,-0.4926 3.26907,-3.8848 3.98061,-7.53821 4.68629,-24.062 4.68574,-23.93618 0.10509,-23.93618 -2.45398,0 -6.90615,1.30817 -9.89365,2.90703 -8.24707,4.41369 -12.54647,-1.20523 -6.24772,-8.16526 2.67984,-2.96119 6.36116,-5.38397 8.18074,-5.38397 4.66442,0 33.9474,-15.68517 36.35725,-19.47446 1.09838,-1.72712 2.01539,-6.43265 2.03779,-10.45673 0.0213,-4.02409 1.1099,-7.31652 2.41663,-7.31652 3.36893,0 5.60576,6.93638 5.60576,17.38337 0,7.63898 -1.78068,10.19164 -12.02721,17.24146 -11.15994,7.67824 -13.52456,13.26508 -5.61442,13.26508 1.8308,0 7.14775,3.73382 11.81545,8.29735 7.45103,7.28475 8.48673,10.03488 8.48673,22.53511 0,10.55562 -2.06419,18.29982 -7.98165,29.94462 -14.03861,27.62615 -9.06088,60.01552 12.20857,79.43932 4.47374,4.0856 6.41528,8.7155 6.41528,15.2982 0,5.1918 -1.08575,9.4395 -2.4128,9.4395 -1.32703,0 -7.14701,-5.6869 -12.93328,-12.6376 z M 107.87703,966.36737 C 84.427337,965.33399 79.510507,964.19714 73.097191,958.32565 61.267506,947.4954 60.247078,941.49756 60.840969,886.28654 c 0.510549,-47.46329 1.945788,-87.00123 3.158172,-87.00123 0.25645,0 1.036428,-4.19037 1.733279,-9.31192 0.696852,-5.12156 2.856253,-10.93963 4.79867,-12.92906 5.474328,-5.60676 27.342267,-8.72157 49.31841,-7.02481 32.77777,2.53077 37.2477,3.64203 37.2477,9.26 0,4.70858 -2.38044,5.00667 -37.43926,4.68834 -42.877544,-0.38937 -42.160611,-0.75962 -42.540066,21.96883 -0.134358,8.04816 -0.681335,16.4289 -1.215483,18.62385 -0.534146,2.19496 -1.64877,6.98395 -2.476938,10.6422 -0.828169,3.65826 -1.529939,28.06208 -1.55949,54.23069 -0.04156,36.80638 0.806102,48.89161 3.743756,53.37501 5.239698,7.99679 20.997478,12.11907 46.326291,12.11907 24.89636,0 29.84009,1.36952 29.84009,8.26631 0,5.42292 2.70576,5.22731 -43.89907,3.17355 z m 17.29357,-43.36646 c -3.88015,-3.88015 -5.3211,-8.86849 -5.3211,-18.42088 0,-14.84364 5.20286,-40.11123 8.2593,-40.11123 2.73662,0 5.75376,10.00101 3.91484,12.97646 -1.6928,2.73901 6.1566,5.32757 11.10567,3.66238 1.82913,-0.61544 3.32569,-4.61095 3.32569,-8.87889 0,-5.98624 1.21627,-7.75995 5.3211,-7.75995 4.87405,0 5.3211,1.77371 5.3211,21.1112 0,30.13132 -5.83123,42.74201 -19.76408,42.74201 -3.76277,0 -9.23592,-2.3945 -12.16252,-5.3211 z m 17.58081,-9.97707 c 4.18052,-5.50715 4.85508,-20.92384 1.01923,-23.29453 -1.47639,-0.91246 -5.06814,-0.90243 -7.98165,0.0213 -4.19875,1.33256 -5.29729,4.03486 -5.29729,13.03098 0,15.52739 5.04669,19.74317 12.25971,10.2412 z m -59.557623,8.49594 c -5.062986,-3.54627 -5.89105,-6.51063 -5.759765,-20.61927 0.201989,-21.70655 3.068005,-37.06208 7.172805,-38.43034 2.24358,-0.74786 3.31607,2.03255 3.31607,8.59685 0,9.3434 0.31978,9.67139 8.64679,8.86852 7.592823,-0.73208 8.808933,-1.94298 9.977063,-9.93415 0.73165,-5.00524 2.82683,-9.59469 4.65596,-10.19877 2.47442,-0.81722 3.30946,4.23626 3.26223,19.74264 -0.0726,23.82345 -3.27913,40.56304 -8.39092,43.80413 -5.58775,3.54281 -16.450093,2.67422 -22.880233,-1.82961 z m 19.077493,-13.36951 c 0.88821,-2.31462 1.61492,-8.38038 1.61492,-13.47946 0,-8.54425 -0.57357,-9.20505 -7.316513,-8.42918 -6.14607,0.70717 -7.45291,2.26561 -8.16911,9.74192 -0.46893,4.89501 -0.20721,10.58194 0.58164,12.63761 1.94679,5.07328 11.288593,4.74225 13.289063,-0.47089 z m -1.82324,-66.34936 c -7.090673,-6.23875 -7.393573,-7.47551 -6.651373,-27.1577 0.63363,-16.8033 1.60411,-20.77906 5.24159,-21.47339 3.178513,-0.60673 4.710813,1.30032 5.321103,6.62251 0.78969,6.88662 1.85126,7.53843 13.49472,8.28554 10.84584,0.69595 12.63762,0.10802 12.63762,-4.14745 0,-2.72709 1.66633,-7.23718 3.70293,-10.0224 3.14615,-4.30262 4.34627,-4.53012 7.98165,-1.51303 2.35331,1.95306 4.26451,7.2955 4.24714,11.87204 -0.0497,13.09337 -7.35376,37.22243 -12.3801,40.8978 -7.81787,5.71656 -25.2598,3.9701 -33.59528,-3.36392 z m 26.851,-7.13028 c 1.75596,-1.75596 3.19266,-6.54495 3.19266,-10.6422 0,-7.16574 -0.50676,-7.44954 -13.30275,-7.44954 -11.44096,0 -13.30275,0.73021 -13.30275,5.21745 0,6.16343 9.82088,16.06695 15.93286,16.06695 2.35805,0 5.72401,-1.43669 7.47998,-3.19266 z m 26.13991,11.71241 c -2.66941,-4.31919 2.90122,-7.90388 26.27293,-16.9066 22.52353,-8.67598 23.99359,-9.71564 24.7639,-17.51377 0.4504,-4.55965 2.67513,-9.83078 4.94386,-11.71365 3.43602,-2.85166 4.74336,-2.57765 7.82787,1.64065 10.61533,14.51735 -0.87013,29.2776 -28.89581,37.13471 -9.14181,2.56294 -18.7004,5.74466 -21.24133,7.0705 -5.70741,2.97808 -11.92791,3.1092 -13.67142,0.28816 z m 3.65825,-42.89605 c 0,-3.30563 2.96021,-4.6035 31.92661,-13.99793 18.33263,-5.94567 20.02732,-7.10777 20.8547,-14.30094 0.93997,-8.17212 4.74637,-14.48079 8.73714,-14.48079 3.5327,0 2.63086,24.6786 -1.07553,29.43093 -3.97127,5.09197 -10.26749,7.77737 -25.85576,11.02782 -22.25849,4.64131 -34.58716,5.46858 -34.58716,2.32091 z"
       id="path3158"
       inkscape:connector-curvature="0" />
  </g>
</svg>
