<?xml version="1.0" encoding="UTF-8" standalone="no"?>
<!-- Created with Inkscape (http://www.inkscape.org/) -->

<svg
   xmlns:dc="http://purl.org/dc/elements/1.1/"
   xmlns:cc="http://creativecommons.org/ns#"
   xmlns:rdf="http://www.w3.org/1999/02/22-rdf-syntax-ns#"
   xmlns:svg="http://www.w3.org/2000/svg"
   xmlns="http://www.w3.org/2000/svg"
   xmlns:sodipodi="http://sodipodi.sourceforge.net/DTD/sodipodi-0.dtd"
   xmlns:inkscape="http://www.inkscape.org/namespaces/inkscape"
   width="300"
   height="300"
   id="svg2"
   version="1.1"
   inkscape:version="0.48.4 r9939"
   sodipodi:docname="image-seal.svg">
  <defs
     id="defs4" />
  <sodipodi:namedview
     id="base"
     pagecolor="#ffffff"
     bordercolor="#666666"
     borderopacity="1.0"
     inkscape:pageopacity="0.0"
     inkscape:pageshadow="2"
     inkscape:zoom="2.0018437"
     inkscape:cx="145.03351"
     inkscape:cy="130.6666"
     inkscape:document-units="px"
     inkscape:current-layer="layer1"
     showgrid="false"
     inkscape:window-width="1215"
     inkscape:window-height="1000"
     inkscape:window-x="65"
     inkscape:window-y="24"
     inkscape:window-maximized="1"
     fit-margin-top="10"
     fit-margin-left="10"
     fit-margin-right="10"
     fit-margin-bottom="10" />
  <metadata
     id="metadata7">
    <rdf:RDF>
      <cc:Work
         rdf:about="">
        <dc:format>image/svg+xml</dc:format>
        <dc:type
           rdf:resource="http://purl.org/dc/dcmitype/StillImage" />
        <dc:title />
      </cc:Work>
    </rdf:RDF>
  </metadata>
  <g
     inkscape:label="Calque 1"
     inkscape:groupmode="layer"
     id="layer1"
     transform="translate(0,-752.36218)">
    <path
       style="fill:#000000"
       d="m 234.67189,1043.808 c -1.61949,-1.8943 -8.33339,-13.2949 -14.91978,-25.3348 -10.78112,-19.70768 -11.9701,-23.81661 -11.92375,-41.20694 0.0429,-16.04644 1.48604,-21.91901 8.52559,-34.69026 9.89642,-17.95418 10.59492,-25.87485 2.89623,-32.84204 -7.41599,-6.71138 -13.32482,-3.96955 -15.80775,7.33507 -4.09814,18.65877 -19.74484,40.68201 -32.36206,45.55072 -12.22072,4.7157 -12.78839,-1.84292 -1.18861,-13.73245 20.43823,-20.94871 21.676,-23.55558 25.53548,-53.77956 l 1.49257,-11.68859 -15.5091,0.22423 -15.50912,0.22422 -1.84156,26.19865 c -1.99419,28.36956 -9.58046,47.98157 -20.22318,52.28088 -3.12708,1.26324 -10.71357,6.86515 -16.85884,12.44864 -6.14528,5.58352 -12.32104,10.15185 -13.72393,10.15185 -1.40291,0 -2.15811,11.18983 -1.67823,24.86628 0.94531,26.9414 -1.08216,34.4778 -7.77997,28.9191 -5.484166,-4.5515 -5.443956,-42.76865 0.0563,-53.40477 4.50669,-8.71495 26.74245,-28.77336 31.91427,-28.78916 6.66204,-0.0199 19.75729,-35.70215 19.29858,-52.58456 -0.4067,-14.96826 -5.05786,-32.68142 -8.58157,-32.68142 -2.09602,0 -7.22629,-3.41535 -11.40062,-7.58965 -6.74047,-6.7405 -7.546,-9.60215 -7.1996,-25.57677 l 0.39001,-17.98712 -21.47221,0 c -18.356666,0 -22.459546,-0.92778 -28.277016,-6.39419 -7.01107,-6.58801 -8.35968,-12.28793 -7.59843,-32.11513 0.4125,-10.74352 1.3286,-11.94239 13.72938,-17.96717 11.43444,-5.55527 17.603746,-6.42861 44.239286,-6.26258 32.0399,0.19978 34.80955,1.10682 41.48969,13.58873 10.1741,19.01051 -5.17347,49.15034 -25.02794,49.15034 -6.0289,0 -7.16843,3.51405 -5.95135,18.35255 0.46212,5.63414 4.67424,12.22397 12.77375,19.98441 6.64635,6.36813 12.73163,13.45554 13.52284,15.74984 1.21736,3.53004 4.45331,3.15802 21.04669,-2.41968 32.12297,-10.79783 35.24388,-12.60719 37.64247,-21.82321 2.89009,-11.10449 10.60399,-12.76866 12.52818,-2.70281 2.1466,11.22923 -0.34176,17.22456 -8.77746,21.14781 -4.16666,1.93781 -9.49398,4.46485 -11.83852,5.61561 -7.73157,3.79482 -6.56831,13.28329 2.41249,19.6782 4.62629,3.2942 9.60728,5.98945 11.06888,5.98945 3.43843,0 9.25353,12.78466 9.25353,20.34416 0,3.22705 -4.47593,14.15467 -9.94652,24.28355 -5.75747,10.66003 -9.94652,22.45024 -9.94652,27.99465 0,13.48152 10.43373,39.79092 20.18436,50.89632 9.38406,10.6878 11.22525,24.3232 3.26101,24.1501 -2.73529,-0.059 -6.2983,-1.658 -7.91783,-3.5524 z M 100.03862,805.19968 c 0.53367,-7.5072 -0.791906,-32.02163 -1.785656,-33.02273 -0.57422,-0.57846 -4.13752,-0.27538 -7.91845,0.67361 -12.20182,3.06247 -12.90015,26.76662 -0.95876,32.54305 8.32004,4.02462 10.36561,3.98742 10.662866,-0.19381 z m 28.1661,-10.84381 c 0,-17.71654 -3.80326,-25.38994 -12.58433,-25.38994 -7.73524,0 -10.32992,4.66349 -7.11518,12.78838 1.23687,3.12605 2.33871,9.62681 2.44858,14.44613 0.24042,10.54175 1.94082,12.55157 10.6199,12.55157 6.07411,0 6.63103,-1.20904 6.63103,-14.39614 z m 24.1029,8.7709 c 6.18489,-6.83423 6.95281,-27.90437 1.15092,-31.5787 -5.79191,-3.66802 -13.84496,-3.1163 -14.16174,0.97019 -0.58457,7.54153 0.65658,26.51944 2.04444,31.26049 1.88731,6.44736 4.69251,6.28058 10.96638,-0.65198 z M 73.568284,967.36629 c -5.9878,-7.49545 -4.0264,-17.64223 5.36894,-27.7747 9.5039,-10.24952 8.32174,-14.76942 -6.14883,-23.50996 C 61.720914,909.39663 60,907.07821 60,898.85314 c 0,-8.93538 9.845104,-21.89641 16.632324,-21.89641 3.52116,0 11.78632,-9.83353 11.78632,-14.02283 0,-1.99584 -3.1971,-7.42832 -7.10466,-12.07221 -7.5433,-8.96469 -9.33384,-20.5035 -3.72005,-23.97299 1.86153,-1.1505 3.87232,-0.62865 4.46843,1.15965 0.59611,1.78833 4.30946,8.00473 8.25192,13.81424 12.351296,18.20065 12.996596,22.47897 4.85083,32.15966 -3.98844,4.74003 -8.85809,8.61821 -10.82145,8.61821 -4.90568,0 -12.9762,9.37434 -12.9762,15.07253 0,2.77772 5.12556,7.01343 12.61603,10.42571 6.93883,3.16101 13.4534,7.10216 14.47684,8.75814 3.327086,5.38332 -1.38969,16.58128 -11.05592,26.24751 -7.53793,7.53793 -8.99106,10.723 -7.1557,15.68444 2.40393,6.49843 5.29823,7.29833 16.01611,4.42637 3.845066,-1.03031 7.149846,-4.72366 8.229556,-9.19723 3.25092,-13.46938 23.0254,-37.31512 30.94417,-37.31512 2.27349,0 4.13363,2.55768 4.13363,5.68373 0,3.12605 -1.69534,5.68373 -3.76743,5.68373 -5.1893,0 -15.06728,11.29421 -17.39854,19.89304 -3.91814,14.45201 -8.35212,19.9297 -18.38927,22.71791 -15.125106,4.20158 -21.008186,3.45534 -26.448656,-3.35493 z m 29.597606,-61.23434 c -13.942546,-1.69298 -9.597026,-7.36986 8.21867,-10.73667 20.43217,-3.86127 22.27364,-11.36538 5.67193,-23.11353 -14.34785,-10.15324 -14.63571,-13.5716 -0.92968,-11.04141 22.64859,4.18107 31.0062,24.18267 15.63024,37.40671 -4.29831,3.69675 -8.66967,6.72294 -9.71411,6.72484 -1.04441,0.002 -3.60209,0.43075 -5.68373,0.95299 -2.0816,0.52225 -8.0186,0.43543 -13.19332,-0.19296 z m 67.66692,-63.27749 c -2.72779,-1.68585 -3.22091,-3.50499 -1.39734,-5.15469 3.92748,-3.55301 30.9253,-11.8776 38.87538,-11.98695 8.96617,-0.12334 15.76669,-5.83219 16.95152,-14.23029 0.67292,-4.76987 2.79372,-6.99331 6.67036,-6.99331 4.97815,0 5.56357,1.572 4.71596,12.66323 -1.20296,15.74105 -4.72195,18.39776 -30.12187,22.74078 -11.03516,1.88686 -22.63221,3.91123 -25.77124,4.49859 -3.13904,0.58735 -7.60429,-0.1043 -9.92277,-1.53736 z m 14.20918,-45.4699 c 0,-3.7435 1.89455,-5.68373 5.54999,-5.68373 3.0525,0 8.48756,-1.19034 12.07792,-2.64518 3.59035,-1.45486 10.04473,-3.39747 14.34305,-4.31693 6.64243,-1.4209 7.81512,-3.10394 7.81512,-11.21618 0,-11.87467 5.13966,-16.90272 12.08596,-11.82346 6.41773,4.69274 6.30363,14.98381 -0.28592,25.78929 -4.30192,7.05424 -8.2383,9.19729 -22.18489,12.07792 -24.19019,4.99639 -29.40123,4.60973 -29.40123,-2.18173 z"
       id="path3028"
       inkscape:connector-curvature="0" />
  </g>
</svg>
