<?xml version="1.0" encoding="UTF-8" standalone="no"?>
<svg
   xmlns:dc="http://purl.org/dc/elements/1.1/"
   xmlns:cc="http://creativecommons.org/ns#"
   xmlns:rdf="http://www.w3.org/1999/02/22-rdf-syntax-ns#"
   xmlns:svg="http://www.w3.org/2000/svg"
   xmlns="http://www.w3.org/2000/svg"
   viewBox="0 0 300 300"
   height="300"
   width="300"
   id="svg406"
   version="1.1">
  <metadata
     id="metadata412">
    <rdf:RDF>
      <cc:Work
         rdf:about="">
        <dc:format>image/svg+xml</dc:format>
        <dc:type
           rdf:resource="http://purl.org/dc/dcmitype/StillImage" />
        <dc:title></dc:title>
      </cc:Work>
    </rdf:RDF>
  </metadata>
  <defs
     id="defs410" />
  <path
     id="path416"
     d="m 224.88139,282.8887 c -14.56219,-5.89001 -20.3081,-7.56635 -42.1288,-12.29086 -20.63436,-4.46765 -23.3305,-5.89418 -50.75033,-7.41828 -29.66762,-1.64904 -46.907824,-4.16827 -61.951736,-19.11403 -8.319518,-8.26525 -11.53751,-19.14325 -13.062121,-27.77756 -1.391594,-7.88099 -3.700654,-56.06853 -4.108596,-84.14847 0,0 -0.108124,-59.571588 1.322715,-67.021559 0.967975,-5.039976 2.12048,-7.92926 5.469907,-7.893416 7.13211,0.07632 7.844728,7.097245 7.521165,33.171081 0,0 -0.227594,92.820474 2.942427,118.486934 1.399299,11.32959 3.655095,21.21677 11.445074,28.046 10.825189,9.49011 30.769505,12.47746 48.297365,12.48871 L 130.914,74.505602 c 0.24134,-40.76303 -1.1872,-63.572788 8.226,-58.904896 3.26262,1.617892 5.27927,8.088296 4.98092,31.512343 -0.14211,11.157542 -0.19001,46.209731 -0.10645,77.893741 l 0.15192,57.60723 c 0,0 28.6865,-0.47313 39.78814,-4.6953 4.63092,-1.79946 6.02881,-2.78468 8.25837,-5.82035 5.97626,-8.13707 6.51871,-14.20354 6.52419,-72.964116 0.003,-29.62551 0.10953,-47.662698 0.80982,-49.445926 2.8588,-7.279775 9.00162,-5.54953 10.95633,-1.192262 1.64461,3.666018 1.88126,5.667552 2.33562,19.293103 1.02327,31.404644 1.88175,64.533441 -1.70864,97.274681 -0.91129,8.31015 -5.62578,15.74363 -10.85991,19.87211 -9.15444,7.11384 -23.48041,10.67832 -42.95696,10.6882 l -12.83371,-0.12282 -0.41449,54.99399 c 18.25203,2.71431 57.47779,9.21339 88.38862,19.21554 10.77007,3.60831 14.97307,6.9123 14.65121,11.03392 -0.55182,7.06642 -18.76838,3.50927 -22.22358,2.14379 z"
     style="fill:#000000;stroke-width:0.77951938" />
</svg>
