<?xml version="1.0" encoding="UTF-8" standalone="no"?>
<!-- Created with Inkscape (http://www.inkscape.org/) -->

<svg
   xmlns:dc="http://purl.org/dc/elements/1.1/"
   xmlns:cc="http://creativecommons.org/ns#"
   xmlns:rdf="http://www.w3.org/1999/02/22-rdf-syntax-ns#"
   xmlns:svg="http://www.w3.org/2000/svg"
   xmlns="http://www.w3.org/2000/svg"
   xmlns:sodipodi="http://sodipodi.sourceforge.net/DTD/sodipodi-0.dtd"
   xmlns:inkscape="http://www.inkscape.org/namespaces/inkscape"
   width="300"
   height="300"
   viewBox="0 0 300.00001 300.00001"
   id="svg2"
   version="1.1"
   inkscape:version="0.91 r13725"
   sodipodi:docname="正-seal.svg">
  <defs
     id="defs4" />
  <sodipodi:namedview
     id="base"
     pagecolor="#ffffff"
     bordercolor="#666666"
     borderopacity="1.0"
     inkscape:pageopacity="0.0"
     inkscape:pageshadow="2"
     inkscape:zoom="1.33"
     inkscape:cx="147.92594"
     inkscape:cy="133.29041"
     inkscape:document-units="px"
     inkscape:current-layer="layer1"
     showgrid="false"
     units="px"
     inkscape:window-width="990"
     inkscape:window-height="650"
     inkscape:window-x="39"
     inkscape:window-y="10"
     inkscape:window-maximized="0" />
  <metadata
     id="metadata7">
    <rdf:RDF>
      <cc:Work
         rdf:about="">
        <dc:format>image/svg+xml</dc:format>
        <dc:type
           rdf:resource="http://purl.org/dc/dcmitype/StillImage" />
        <dc:title></dc:title>
      </cc:Work>
    </rdf:RDF>
  </metadata>
  <g
     inkscape:label="Layer 1"
     inkscape:groupmode="layer"
     id="layer1"
     transform="translate(0,-752.36208)">
    <path
       style="fill:#000000"
       d="m 249.55269,1028.3424 c -2.0124,-2.0125 -42.13953,-5.699 -89.17117,-8.192 -113.377335,-6.0098 -110.773942,-2.8983 -105.083704,-125.60037 2.780877,-59.96573 6.412359,-88.03821 11.174129,-86.37941 4.741784,1.65189 6.445787,29.17856 5.19793,83.96854 -2.161434,94.90165 1.821247,107.36302 34.313635,107.36302 l 22.3348,0 0,-102.85547 0,-102.85544 -46.218718,-1.89389 c -29.815496,-1.22182 -47.164326,-4.75358 -48.883081,-9.95166 -2.057274,-6.22159 20.590476,-8.03519 99.399209,-7.95893 96.8895,0.0934 134.1511,5.28509 108.52294,15.11978 -5.9053,2.26584 -27.90421,4.11989 -48.88631,4.11989 l -38.14965,0 0,62.06203 0,62.06198 27.15406,-4.34214 c 14.93464,-2.38813 28.70163,-5.88965 30.59307,-7.78116 1.89155,-1.89149 3.45081,-24.2394 3.46505,-49.66226 0.0413,-74.36929 19.84441,-60.58466 21.82468,15.19215 1.07501,41.13745 -11.60744,56.46943 -51.03774,61.70007 l -31.99912,4.24483 0,30.62104 0,30.62103 56.40364,5.61367 c 41.72272,4.1525 56.40345,7.9906 56.40345,14.7457 0,9.691 -11.21712,16.1792 -17.3571,10.039 z"
       id="path3629"
       inkscape:connector-curvature="0" />
  </g>
</svg>
