<?xml version="1.0" encoding="UTF-8" standalone="no"?>
<!-- Created with Inkscape (http://www.inkscape.org/) -->

<svg
   xmlns:dc="http://purl.org/dc/elements/1.1/"
   xmlns:cc="http://creativecommons.org/ns#"
   xmlns:rdf="http://www.w3.org/1999/02/22-rdf-syntax-ns#"
   xmlns:svg="http://www.w3.org/2000/svg"
   xmlns="http://www.w3.org/2000/svg"
   xmlns:sodipodi="http://sodipodi.sourceforge.net/DTD/sodipodi-0.dtd"
   xmlns:inkscape="http://www.inkscape.org/namespaces/inkscape"
   width="300"
   height="300"
   id="svg2"
   version="1.1"
   inkscape:version="0.48.3.1 r9886"
   sodipodi:docname="Nouveau document 1">
  <defs
     id="defs4" />
  <sodipodi:namedview
     id="base"
     pagecolor="#ffffff"
     bordercolor="#666666"
     borderopacity="1.0"
     inkscape:pageopacity="0.0"
     inkscape:pageshadow="2"
     inkscape:zoom="1.979899"
     inkscape:cx="176.12622"
     inkscape:cy="150.74464"
     inkscape:document-units="px"
     inkscape:current-layer="layer1"
     showgrid="false"
     inkscape:window-width="1215"
     inkscape:window-height="1000"
     inkscape:window-x="65"
     inkscape:window-y="24"
     inkscape:window-maximized="1" />
  <metadata
     id="metadata7">
    <rdf:RDF>
      <cc:Work
         rdf:about="">
        <dc:format>image/svg+xml</dc:format>
        <dc:type
           rdf:resource="http://purl.org/dc/dcmitype/StillImage" />
        <dc:title></dc:title>
      </cc:Work>
    </rdf:RDF>
  </metadata>
  <g
     inkscape:label="Calque 1"
     inkscape:groupmode="layer"
     id="layer1"
     transform="translate(0,-752.36218)">
    <path
       style="fill:#000000"
       d="m 148.30182,1030.4693 c -16.71422,-0.4074 -31.70496,-1.8489 -33.31279,-3.2033 -1.60784,-1.3543 -5.31122,-2.4624 -8.22976,-2.4624 -2.91853,0 -9.067894,-2.7254 -13.665216,-6.0564 -8.336584,-6.0403 -8.360922,-6.157 -9.160739,-43.94671 -0.843894,-39.87201 1.527201,-50.43993 9.989723,-44.52393 3.648437,2.55057 4.467172,9.59154 4.116496,35.4016 -0.24065,17.71981 -0.33213,34.22043 -0.202918,36.66804 0.287797,5.4527 18.332354,12.2069 32.612294,12.2069 l 10.33861,0 -0.24307,-59.30071 c -0.13356,-32.61539 0.99157,-60.34065 2.50053,-61.61171 6.06155,-5.1059 9.426,5.75854 10.49709,33.89711 0.61716,16.21256 2.15967,30.89161 3.42788,32.62006 1.30058,1.77268 8.6458,3.14265 16.84924,3.14265 12.63237,0 15.00737,-0.85768 18.07404,-6.52715 1.94182,-3.58993 3.53057,-12.85158 3.53057,-20.58146 0,-14.60496 5.47769,-20.55496 13.05065,-14.1759 3.73925,3.14972 4.339,36.59152 0.82358,45.92141 -2.07088,5.49605 -17.15597,8.89077 -41.25461,9.28387 l -10.64792,0.17375 -2.50564,17.53622 c -1.3781,9.64496 -1.59568,18.29376 -0.48349,19.21976 1.11216,0.9259 16.61442,1.7315 34.44943,1.7902 43.55207,0.1433 43.07518,0.059 43.07518,7.5811 0,6.0863 -0.91268,6.4226 -18.25359,6.7269 -10.03947,0.1761 -22.01839,0.4645 -26.61981,0.6407 -4.60143,0.176 -22.04149,-0.013 -38.75569,-0.4205 z M 37.225974,930.86014 c 0,-5.13868 5.709233,-11.43959 23.219895,-25.62631 12.770943,-10.34672 24.978032,-18.8122 27.126867,-18.8122 2.148823,0 4.363312,-0.89215 4.921054,-1.98259 0.557741,-1.09039 11.28172,-6.44403 23.83107,-11.89694 28.4991,-12.3834 31.28756,-14.1877 27.64305,-17.88678 -1.57008,-1.59353 -4.47804,-8.32793 -6.46216,-14.96532 l -3.6075,-12.06795 -41.491047,-0.71111 c -39.181459,-0.67151 -41.491036,-0.99639 -41.491036,-5.83636 0,-4.82997 2.260415,-5.15909 39.232059,-5.71212 21.577664,-0.32279 39.604334,-0.90043 40.059314,-1.28367 0.45496,-0.38324 -0.40652,-9.9212 -1.91438,-21.19549 -3.12338,-23.3534 -1.80525,-29.46787 6.35246,-29.46787 4.13257,0 6.29109,2.46698 7.70219,8.8029 1.07829,4.84163 1.05357,10.03911 -0.0551,11.54995 -3.52106,4.79897 7.47032,6.09404 24.49051,2.8856 12.49202,-2.35485 16.47133,-4.22301 16.47133,-7.73268 0,-2.54524 2.15788,-6.13623 4.79529,-7.97997 3.97408,-2.77823 5.26857,-2.72226 7.55908,0.32686 4.0192,5.35034 3.46806,16.75596 -0.94586,19.57379 -5.69729,3.63717 -27.55861,8.45035 -38.38128,8.45035 -8.56559,0 -9.53441,0.78118 -9.53441,7.6879 0,4.33365 1.6592,7.77642 3.80284,7.89082 2.09155,0.11141 20.23106,0.0358 40.31001,-0.16838 39.44653,-0.40113 47.15472,0.78999 47.1559,7.28679 6.7e-4,3.70854 -5.16698,4.21043 -43.35228,4.21043 l -43.35306,0 0.98989,11.53183 c 1.12542,13.11049 7.07624,20.31484 13.3082,16.11156 6.62046,-4.46536 45.3941,-9.13872 49.20289,-5.93041 6.27275,5.28381 -2.35784,11.50725 -18.18165,13.11062 -17.8942,1.81311 -25.54462,4.37471 -25.54462,8.55313 0,7.60514 49.90103,37.34608 62.66136,37.34608 4.35744,0 13.39527,9.70932 13.39527,14.39051 0,6.38542 -9.82603,5.61664 -26.61191,-2.08211 -9.62551,-4.41471 -18.18544,-8.75736 -19.02207,-9.65035 -0.83661,-0.893 -6.31269,-4.35527 -12.16906,-7.69391 -5.85635,-3.33865 -16.55746,-11.06708 -23.78022,-17.17428 -7.22276,-6.10721 -14.45407,-11.10403 -16.06961,-11.10403 -4.28357,0 -20.70386,6.69031 -34.68565,14.13237 -6.69299,3.56245 -14.22259,7.23763 -16.732469,8.16704 -2.509863,0.92939 -6.61692,3.60691 -9.126796,5.95002 -2.509849,2.34311 -7.317731,5.48804 -10.684164,6.98874 -3.366432,1.50071 -11.580547,8.55457 -18.25359,15.67527 -13.666107,14.58291 -22.780734,17.11884 -22.780734,6.33821 z"
       id="path2996"
       inkscape:connector-curvature="0" />
  </g>
</svg>
