<?xml version="1.0" encoding="UTF-8" standalone="no"?>
<!-- Created with Inkscape (http://www.inkscape.org/) -->

<svg
   xmlns:dc="http://purl.org/dc/elements/1.1/"
   xmlns:cc="http://creativecommons.org/ns#"
   xmlns:rdf="http://www.w3.org/1999/02/22-rdf-syntax-ns#"
   xmlns:svg="http://www.w3.org/2000/svg"
   xmlns="http://www.w3.org/2000/svg"
   xmlns:sodipodi="http://sodipodi.sourceforge.net/DTD/sodipodi-0.dtd"
   xmlns:inkscape="http://www.inkscape.org/namespaces/inkscape"
   width="300"
   height="300"
   id="svg2"
   version="1.1"
   inkscape:version="0.91 r13725"
   sodipodi:docname="image-seal.svg">
  <defs
     id="defs4" />
  <sodipodi:namedview
     id="base"
     pagecolor="#ffffff"
     bordercolor="#666666"
     borderopacity="1.0"
     inkscape:pageopacity="0.0"
     inkscape:pageshadow="2"
     inkscape:zoom="2.77"
     inkscape:cx="150"
     inkscape:cy="150"
     inkscape:document-units="px"
     inkscape:current-layer="layer1"
     showgrid="false"
     inkscape:window-width="1231"
     inkscape:window-height="1000"
     inkscape:window-x="49"
     inkscape:window-y="24"
     inkscape:window-maximized="1"
     showguides="true"
     inkscape:guide-bbox="true" />
  <metadata
     id="metadata7">
    <rdf:RDF>
      <cc:Work
         rdf:about="">
        <dc:format>image/svg+xml</dc:format>
        <dc:type
           rdf:resource="http://purl.org/dc/dcmitype/StillImage" />
        <dc:title />
      </cc:Work>
    </rdf:RDF>
  </metadata>
  <g
     inkscape:label="Calque 1"
     inkscape:groupmode="layer"
     id="layer1"
     transform="translate(0,-752.36218)">
    <path
       style="fill:#000000"
       d="m 222.83097,1025.8732 c -0.22462,-11.8191 -1.71596,-23.0647 -3.31409,-24.9904 -2.06504,-2.4882 -2.10836,-5.78851 -0.14975,-11.40705 1.69911,-4.87408 1.80538,-8.49341 0.27711,-9.43794 -1.3634,-0.84264 -2.4789,-3.35504 -2.4789,-5.58313 0,-7.37644 -10.5865,-19.36502 -17.10027,-19.36502 -9.6112,0 -14.53609,2.74443 -14.53609,8.10036 0,3.88911 2.71917,5.26058 13.18182,6.64849 17.45112,2.31496 17.8728,8.38851 0.65909,9.49307 -11.67941,0.74941 -12.46003,1.2474 -11.59193,7.39445 1.11064,7.86451 4.56054,10.45083 14.01267,10.50509 3.86891,0.0211 8.83603,0.73172 11.03808,1.57673 6.24238,2.39545 1.91904,9.05485 -5.83939,8.99475 -3.82818,-0.03 -8.73988,-0.037 -10.91488,-0.016 -16.02237,0.1526 -40.5821,-2.5877 -42.76599,-4.7716 -4.59112,-4.59171 0.51088,-8.38006 11.28522,-8.38006 9.78671,0 10.38986,-0.45913 10.38986,-7.90909 0,-7.20606 -0.78116,-7.90909 -8.78787,-7.90909 -10.06129,0 -12.53206,-1.60832 -10.52115,-6.84867 0.83132,-2.16641 5.12172,-3.69679 10.36381,-3.69679 7.9026,0 8.94521,-0.80839 8.94521,-6.93585 0,-6.45819 -0.63734,-6.83243 -9.25422,-5.4341 -17.5417,2.84661 -19.99297,9.37947 -26.65137,71.02905 -1.34982,12.4978 -2.50729,15.1591 -6.5931,15.1591 -11.94718,0 -2.2383,-71.6452 11.84787,-87.42953 6.27302,-7.02929 17.71798,-12.75231 25.50213,-12.75231 8.46771,0 5.81292,-6.18841 -5.4023,-12.59296 -18.19036,-10.38774 -23.7398,-25.35174 -17.98459,-48.49532 2.12514,-8.54588 4.94365,-13.18594 9.20816,-15.1591 3.38008,-1.56394 9.11151,-4.23036 12.73651,-5.92538 8.10415,-3.78943 8.30873,-6.35873 0.82518,-10.36381 -9.14365,-4.89354 -14.94784,-11.22092 -20.49963,-22.34751 -2.83849,-5.68874 -5.34272,-8.56364 -5.56494,-6.38864 -0.22224,2.175 -0.76025,11.07272 -1.19564,19.77272 -1.53334,30.63924 -3.74422,38.21908 -12.74922,43.71004 -4.54868,2.77364 -10.39634,5.04743 -12.99482,5.05283 -4.20097,0.008 -4.63921,2.27418 -3.95455,20.44168 0.73871,19.60197 1.03768,20.46179 7.36089,21.16987 14.43222,1.61617 18.45455,3.41037 18.45455,8.23196 0,12.20426 -37.72959,9.87543 -52.202226,-3.22213 -9.20151,-8.32725 -11.87893,-29.13462 -10.55381,-82.01854 0.83791,-33.44001 2.24945,-50.14095 4.42139,-52.31289 6.67883,-6.67883 8.03508,4.80464 6.46705,54.75595 -1.34082,42.71379 -0.94263,51.59216 2.70085,60.2189 2.35045,5.56521 5.67259,9.6522 7.38253,9.08222 3.798626,-1.26622 3.920456,-3.01589 5.004516,-71.87969 0.74854,-47.54985 3.33534,-78.72203 6.87954,-82.90138 0.52505,-0.61915 2.68418,1.1604 4.7981,3.95455 4.30803,5.69433 5.05726,32.77074 1.73451,62.68352 -2.63117,23.68686 -1.16587,33.3513 5.05663,33.3513 2.64986,0 5.40979,-0.95766 6.13318,-2.12816 0.72339,-1.17046 1.96536,-17.27632 2.75991,-35.79079 0.79454,-18.51445 2.12224,-34.75906 2.95046,-36.09912 3.0784,-4.98094 6.34314,-2.1431 9.03495,7.85356 2.24992,8.35562 3.74184,10.03614 7.93603,8.93933 3.83051,-1.00171 5.99746,0.59709 8.38604,6.18723 4.19777,9.82444 10.09242,16.76522 14.23831,16.76522 1.82091,0 5.86865,-5.28385 8.99493,-11.74192 3.12631,-6.45806 7.97758,-12.46981 10.78065,-13.35948 2.80306,-0.88964 5.09646,-2.64403 5.09646,-3.8986 0,-1.25457 2.31203,-3.01487 5.13787,-3.91173 10.50328,-3.33363 9.70237,-17.01235 -1.28931,-22.02049 -5.84424,-2.66281 -7.64358,-1.65242 -20.49114,11.50654 -8.52133,8.72784 -16.34656,14.42568 -19.8118,14.42568 -8.64666,0 -6.91534,-5.68413 4.81801,-15.81818 11.88497,-10.265 12.67967,-13.06954 5.53555,-19.53488 -6.09066,-5.51197 -8.92517,-14.73785 -4.52798,-14.73785 1.73264,0 7.80424,2.37273 13.49243,5.27273 5.68819,2.9 12.24119,5.27272 14.56225,5.27272 8.63092,0 25.95779,10.63082 29.76473,18.26204 3.75078,7.5186 3.56067,8.18652 -5.26419,18.49639 -5.03551,5.88286 -10.24037,10.69612 -11.56636,10.69612 -1.32598,0 -5.3858,2.58667 -9.02182,5.74817 -11.81307,10.27132 -6.03406,24.72506 7.07966,17.70679 9.72038,-5.2022 20.09606,-15.8868 21.72325,-22.3701 0.87761,-3.49666 2.61416,-6.35759 3.859,-6.35759 4.05702,0 7.90461,6.65049 6.91547,11.95338 -0.5317,2.85065 -1.05752,5.91199 -1.16846,6.80301 -0.11099,0.89101 -3.46421,5.19761 -7.45171,9.57023 -7.77709,8.52819 -20.42968,13.8552 -32.90857,13.8552 -12.89551,0 -6.91381,6.37154 8.25939,8.79765 11.52818,1.84329 14.63864,3.5801 18.8858,10.54546 5.8542,9.60087 7.03811,36.80086 2.07587,47.69179 -2.83153,6.21454 -16.44669,13.19634 -29.70765,15.23394 -6.49104,0.99738 -8.74134,7.36752 -2.60262,7.36752 8.69328,0 23.45815,6.52311 29.16351,12.88439 7.021,7.82818 8.80943,17.17541 10.54514,55.11425 1.3012,28.4418 -0.36622,37.4559 -6.9285,37.4559 -1.05212,0 -2.0967,-9.6701 -2.32132,-21.4892 z M 176.07946,913.85462 c 3.06488,-7.98695 -0.92678,-14.12859 -9.18266,-14.12859 -9.4302,0 -10.38786,6.30491 -2.05531,13.53166 6.97194,6.04676 9.10323,6.15997 11.23797,0.59693 z m 29.95384,0.22198 c 9.26133,-6.48688 7.54844,-13.38651 -3.77973,-15.22479 -12.00655,-1.94841 -14.0882,-0.69252 -14.0882,8.49958 0,11.79641 6.91302,14.39834 17.86793,6.72523 z m -29.36677,-31.48686 c 0.83464,-2.175 0.85112,-5.69112 0.0366,-7.81357 -1.19129,-3.10451 -3.05059,-3.3118 -9.50931,-1.06027 -4.41567,1.53929 -8.02849,4.37971 -8.02849,6.31201 0,3.02449 2.63568,4.19005 13.92364,6.15736 1.13303,0.19746 2.7429,-1.42053 3.57752,-3.59553 z m 31.60111,1.31818 c 1.99375,0 3.60684,-0.88977 3.58464,-1.97727 -0.0941,-4.61031 -4.45986,-8.02414 -12.48927,-9.76614 -7.41976,-1.60974 -8.88766,-1.03275 -10.89501,4.28243 -3.20708,8.49193 -1.01084,10.89809 8.25575,9.04475 4.3554,-0.87105 9.55014,-1.58377 11.54389,-1.58377 z"
       id="path3639"
       inkscape:connector-curvature="0" />
  </g>
</svg>
