<?xml version="1.0" encoding="UTF-8" standalone="no"?>
<!-- Created with Inkscape (http://www.inkscape.org/) -->

<svg
   xmlns:dc="http://purl.org/dc/elements/1.1/"
   xmlns:cc="http://creativecommons.org/ns#"
   xmlns:rdf="http://www.w3.org/1999/02/22-rdf-syntax-ns#"
   xmlns:svg="http://www.w3.org/2000/svg"
   xmlns="http://www.w3.org/2000/svg"
   xmlns:sodipodi="http://sodipodi.sourceforge.net/DTD/sodipodi-0.dtd"
   xmlns:inkscape="http://www.inkscape.org/namespaces/inkscape"
   width="300"
   height="300"
   id="svg2"
   version="1.1"
   inkscape:version="0.48.3.1 r9886"
   sodipodi:docname="dessin.svg">
  <defs
     id="defs4" />
  <sodipodi:namedview
     id="base"
     pagecolor="#ffffff"
     bordercolor="#666666"
     borderopacity="1.0"
     inkscape:pageopacity="0.0"
     inkscape:pageshadow="2"
     inkscape:zoom="1.4"
     inkscape:cx="313.75175"
     inkscape:cy="82.228714"
     inkscape:document-units="px"
     inkscape:current-layer="layer1"
     showgrid="false"
     inkscape:window-width="1215"
     inkscape:window-height="1000"
     inkscape:window-x="65"
     inkscape:window-y="24"
     inkscape:window-maximized="1" />
  <metadata
     id="metadata7">
    <rdf:RDF>
      <cc:Work
         rdf:about="">
        <dc:format>image/svg+xml</dc:format>
        <dc:type
           rdf:resource="http://purl.org/dc/dcmitype/StillImage" />
        <dc:title></dc:title>
      </cc:Work>
    </rdf:RDF>
  </metadata>
  <g
     inkscape:label="Calque 1"
     inkscape:groupmode="layer"
     id="layer1"
     transform="translate(0,-752.36218)">
    <path
       style="fill:#000000"
       d="m 197.45592,1042.5708 c -4.80798,-1.6355 -4.96747,-16.1121 -0.17762,-16.1121 2.16574,0 1.7093,-1.2617 -1.14955,-3.1778 -6.71875,-4.503 -8.64098,-19.3494 -8.64098,-66.73898 0,-30.0194 -1.14593,-43.44041 -4.15687,-48.6847 -2.28626,-3.98215 -5.08052,-13.18879 -6.20942,-20.45921 -1.1289,-7.27042 -4.02141,-14.59653 -6.42781,-16.28018 -3.20715,-2.24397 -15.67256,-2.62799 -46.69117,-1.43841 -23.27378,0.89254 -43.577368,2.28005 -45.119094,3.08335 -1.541757,0.80331 -2.803188,8.19484 -2.803188,16.4256 0,8.23077 -1.30169,29.04154 -2.8926,46.24616 -1.590941,17.20463 -3.629809,45.51556 -4.530823,62.91322 -1.533857,29.61725 -3.376776,35.54375 -11.10109,35.69885 -4.415328,0.089 -4.714138,-8.6766 -1.862972,-54.64724 1.646727,-26.55141 3.349123,-62.5755 3.783029,-80.05353 1.268217,-51.08216 1.24958,-50.91506 5.843158,-52.40113 2.374047,-0.76803 8.474098,1.19506 13.555711,4.36238 8.08648,5.04028 12.345121,5.68375 34.131759,5.15722 27.66061,-0.66848 43.06391,-0.56971 51.87636,0.33268 6.79378,0.69566 9.23178,-7.56649 11.9433,-40.47447 3.50868,-42.58251 6.11639,-48.97244 18.36813,-45.00891 4.89193,1.58258 6.18339,13.63784 1.88238,17.57114 -1.45252,1.32833 -3.53475,8.42123 -4.62719,15.76199 -1.80987,12.16178 -1.45733,13.34686 3.97075,13.34686 3.27632,0 6.79564,-1.14402 7.82068,-2.54226 1.02505,-1.39823 4.39998,-2.54226 7.49984,-2.54226 4.57178,0 6.0284,-2.64687 7.71333,-14.016 2.25286,-15.2014 5.2365,-18.62979 12.0588,-13.85641 3.04374,2.12959 4.39124,8.29065 4.39124,20.07755 0,20.87804 -6.03338,28.1135 -23.48795,28.16763 -21.22638,0.0659 -25.18482,2.09256 -24.16545,12.37248 l 0.91248,9.20201 22.61657,-0.8568 c 21.06897,-0.79819 23.11607,-0.40744 29.91603,5.71004 4.01468,3.61179 6.27188,7.42939 5.01596,8.48359 -1.25595,1.0542 -14.71814,1.91672 -29.91602,1.91672 -25.90373,0 -27.57971,0.31811 -26.78789,5.0845 4.66993,28.11178 7.44227,29.98065 20.82248,14.0367 9.19469,-10.9565 13.22963,-12.31493 19.04192,-6.41073 3.03194,3.07992 2.80632,4.912 -1.17398,9.53347 -19.11237,22.19095 -20.40839,24.37488 -17.33657,29.21376 1.69023,2.66255 8.92148,8.19001 16.06943,12.28324 23.16555,13.26564 28.15951,18.01411 23.70459,22.53951 -5.73415,5.8248 -7.72492,5.20711 -28.17323,-8.7416 -10.24887,-6.99121 -19.67168,-12.71129 -20.9396,-12.71129 -5.57043,0 -0.93593,57.03451 7.05812,86.86056 2.28871,8.5393 2.23763,13.3482 -0.18244,17.1603 -3.43615,5.4128 -4.84404,5.8572 -11.44272,3.6125 z M 82.86528,998.144 c -7.813121,-6.65206 -4.363038,-11.83666 9.046629,-13.59478 22.806071,-2.9901 23.370461,-3.3328 23.370461,-14.19149 0,-9.3201 -0.58836,-9.99771 -8.68079,-9.99771 -11.43792,0 -16.918941,-10.69483 -16.937577,-33.04936 -0.01206,-14.8337 0.60341,-16.52467 6.017336,-16.52467 5.256781,0 6.224651,2.11854 7.538861,16.50185 1.19554,13.08473 2.60054,16.67681 6.78497,17.34666 4.5923,0.73515 5.2772,-1.32398 5.2772,-15.8663 0,-17.96768 -2.56954,-21.82247 -19.612491,-29.42237 -16.533801,-7.37284 -12.199802,-9.31638 24.469631,-10.97311 19.36231,-0.8748 36.36786,-0.98421 37.79009,-0.2433 1.42225,0.74105 2.58592,3.56789 2.58592,6.28184 0,4.1437 -2.14611,4.93448 -13.39197,4.93448 -7.42435,0 -14.42485,1.40889 -15.7098,3.1617 -2.35065,3.20647 -3.59821,60.48707 -1.49535,68.65708 1.69829,6.59819 9.21354,5.3892 12.55482,-2.01974 1.60451,-3.55778 3.03496,-15.85595 3.17883,-27.32926 0.30855,-24.60545 2.05458,-32.30076 7.32889,-32.30076 6.22731,0 7.42086,6.04061 7.3037,36.96408 -0.15438,40.7476 0.90099,39.91003 -67.618845,53.66376 -3.317097,0.6658 -7.727329,-0.23365 -9.800515,-1.99871 z M 74.102594,831.72816 c -7.687554,-9.89129 -9.637375,-41.82201 -2.84405,-46.5751 9.005981,-6.30124 13.868393,0.86543 13.868393,20.44051 l 0,17.48454 9.04663,0 c 9.018733,0 9.048593,-0.0491 9.685023,-15.88911 0.35113,-8.73901 0.69038,-20.46517 0.75389,-26.05815 0.14081,-12.41196 2.90438,-16.43104 10.19277,-14.82421 3.96945,0.8751 5.66304,3.80294 5.95232,10.29017 0.22224,4.9869 1.06156,9.62115 1.86484,10.29836 0.80328,0.6772 7.55472,1.3733 15.0032,1.54687 25.85009,0.60238 23.73212,11.1541 -2.74387,13.66994 l -13.56829,1.2893 0,10.19407 0,10.1941 16.83859,-1.46515 c 19.61828,-1.707 25.37902,-0.40076 25.37902,5.75466 0,4.86341 -11.49887,6.67659 -59.30253,9.351 -24.368269,1.36329 -24.680891,1.3041 -30.125936,-5.7018 z"
       id="path3073"
       inkscape:connector-curvature="0" />
  </g>
</svg>
