<?xml version="1.0" encoding="UTF-8" standalone="no"?>
<!-- Created with Inkscape (http://www.inkscape.org/) -->

<svg
   xmlns:dc="http://purl.org/dc/elements/1.1/"
   xmlns:cc="http://creativecommons.org/ns#"
   xmlns:rdf="http://www.w3.org/1999/02/22-rdf-syntax-ns#"
   xmlns:svg="http://www.w3.org/2000/svg"
   xmlns="http://www.w3.org/2000/svg"
   xmlns:sodipodi="http://sodipodi.sourceforge.net/DTD/sodipodi-0.dtd"
   xmlns:inkscape="http://www.inkscape.org/namespaces/inkscape"
   width="300"
   height="300"
   id="svg2"
   version="1.1"
   inkscape:version="0.48.4 r9939"
   sodipodi:docname="image-seal.svg">
  <defs
     id="defs4" />
  <sodipodi:namedview
     id="base"
     pagecolor="#ffffff"
     bordercolor="#666666"
     borderopacity="1.0"
     inkscape:pageopacity="0.0"
     inkscape:pageshadow="2"
     inkscape:zoom="1.979899"
     inkscape:cx="210.04556"
     inkscape:cy="115.30976"
     inkscape:document-units="px"
     inkscape:current-layer="layer1"
     showgrid="false"
     inkscape:window-width="1215"
     inkscape:window-height="1000"
     inkscape:window-x="65"
     inkscape:window-y="24"
     inkscape:window-maximized="1" />
  <metadata
     id="metadata7">
    <rdf:RDF>
      <cc:Work
         rdf:about="">
        <dc:format>image/svg+xml</dc:format>
        <dc:type
           rdf:resource="http://purl.org/dc/dcmitype/StillImage" />
        <dc:title />
      </cc:Work>
    </rdf:RDF>
  </metadata>
  <g
     inkscape:label="Calque 1"
     inkscape:groupmode="layer"
     id="layer1"
     transform="translate(0,-752.36218)">
    <path
       style="fill:#000000"
       d="m 178.12005,1045.2797 c -2.07782,-1.3215 -3.25829,-11.1912 -3.3494,-28.0042 -0.16179,-29.87095 -2.7656,-70.83318 -4.70154,-73.96557 -5.78984,-9.36817 -10.91142,7.42822 -13.05319,42.8085 -1.83459,30.30577 -3.8414,42.21887 -7.11194,42.21887 -2.80058,0 -6.37251,-15.2605 -6.05666,-25.8761 0.72341,-24.31191 4.36235,-58.09371 6.92539,-64.2911 1.613,-3.90026 7.00298,-9.88038 11.97772,-13.28913 9.72894,-6.66635 9.04502,-3.21304 9.04502,-45.67151 0,-1.12357 -3.9333,-2.04285 -8.74069,-2.04285 -7.78836,0 -8.96093,1.03864 -10.76242,9.53328 -1.11196,5.24331 -2.77225,18.08906 -3.68952,28.54609 -1.53303,17.47666 -4.08142,23.05377 -10.58467,23.16433 -2.79519,0.0474 -0.20782,-45.92537 3.29364,-58.5199 2.23945,-8.05541 6.94176,-11.50341 24.35512,-17.85862 7.90015,-2.88325 8.85234,-4.36154 8.85234,-13.7436 0,-11.37468 -1.61701,-12.41113 -21.79037,-13.96705 -7.5381,-0.58136 -9.71545,-2.01789 -10.40367,-6.8638 -0.76057,-5.35525 0.33404,-6.12854 8.67501,-6.12854 5.24998,0 12.68949,1.19537 16.53222,2.65638 4.53967,1.72596 6.98681,1.72596 6.98681,0 0,-1.46101 3.37069,-2.69982 7.49043,-2.75291 11.08136,-0.14273 20.08625,-5.84336 17.03337,-10.78304 -1.86836,-3.02309 -9.85873,-4.25869 -32.56638,-5.03589 -28.14999,-0.96352 -30.09056,-1.38884 -30.09056,-6.5948 0,-5.39107 1.01627,-5.51021 32.54372,-3.81501 32.38154,1.74114 37.06304,0.74897 34.00969,-7.20798 -2.13448,-5.56237 -9.5341,-7.41852 -36.59166,-9.17886 -12.73375,-0.82844 -23.63337,-1.94602 -24.22135,-2.4835 -0.58802,-0.53752 0.48135,-2.84544 2.37634,-5.12877 2.65276,-3.19638 9.51256,-4.15153 29.8156,-4.15153 26.25311,0 26.40875,0.0398 35.07581,8.98202 5.24592,5.4124 8.70571,11.78994 8.70571,16.04748 0,5.39682 1.72929,7.49951 7.32219,8.90325 8.3075,2.08503 14.50503,9.10641 12.54542,14.21306 -0.91601,2.38708 -4.88085,2.9429 -13.02747,1.82628 -10.14018,-1.38987 -11.94597,-0.86388 -13.46495,3.92199 -0.96485,3.03992 -7.22321,8.09782 -13.90748,11.23983 -11.37795,5.34825 -12.15325,6.40015 -12.15325,16.48893 0,10.4089 0.39459,10.8747 11.57613,13.66509 16.06919,4.01008 18.68709,5.84014 24.56978,17.17582 5.10703,9.84104 10.10841,36.13368 8.04871,42.3128 -0.58731,1.76197 -3.41714,3.20359 -6.28846,3.20359 -3.95454,0 -5.22062,-1.93128 -5.22062,-7.96359 0,-18.42062 -5.87089,-34.34145 -14.82899,-40.21362 -13.94107,-9.13858 -17.85655,-4.82747 -17.85655,19.66082 0,19.84045 0.14844,20.27593 7.49044,21.99437 7.76104,1.81647 16.91526,9.75833 21.82482,18.93447 4.42409,8.26876 11.77472,74.10812 9.34836,83.73322 -0.68596,2.7212 -3.19703,4.525 -5.64931,4.0581 -3.57531,-0.6807 -4.74483,-6.0128 -6.15246,-28.05081 -1.60107,-25.06654 -3.81334,-37.45297 -9.23816,-51.72449 -2.09122,-5.50155 -11.81024,-14.80852 -15.58085,-14.9203 -1.12356,-0.0332 -2.04284,26.29215 -2.04284,58.50103 0,32.20887 -0.91928,58.54287 -2.04285,58.51997 -1.12357,-0.022 -3.48676,-0.9601 -5.25153,-2.0825 z M 77.824502,1003.2571 c -9.70891,-5.56809 -11.68042,-11.1254 -12.33032,-34.7567 -0.91612,-33.31231 -0.77299,-35.73927 2.28861,-38.80087 6.30883,-6.30883 8.67982,1.61505 8.67982,29.00818 0,29.23016 2.80556,36.8621 12.22237,33.24852 3.41494,-1.31041 4.1204,-8.31964 4.1204,-40.93889 0,-41.48959 0.95989,-47.97467 7.100913,-47.97467 4.605245,0 4.704505,0.62734 4.955615,31.32365 0.18521,22.63144 0.61892,24.51416 5.64814,24.51416 5.97372,0 6.12034,-0.52531 8.55299,-30.6427 1.6212,-20.07146 2.78541,-22.30048 8.60692,-16.47897 4.04781,4.04781 4.44091,46.65113 0.49843,54.01772 -1.52356,2.8468 -7.72477,6.51014 -13.78047,8.14077 -10.24049,2.75749 -10.95146,3.57337 -10.1679,11.66866 0.76416,7.89519 1.72816,8.73472 10.37572,9.03589 15.67471,0.5459 16.34278,0.81068 16.34278,6.47745 0,5.0389 -1.78826,5.4414 -23.83321,5.3648 -13.108268,-0.046 -26.284628,-1.4887 -29.280808,-3.207 z m -11.00133,-89.49099 c -3.23467,-5.23382 -1.43816,-132.63756 1.97598,-140.13081 3.97274,-8.71916 23.78645,-16.21666 43.003338,-16.27241 11.16909,-0.0324 15.11905,0.99307 15.7388,4.0861 0.59534,2.97114 -3.22751,5.07214 -13.62925,7.49044 -7.95116,1.84858 -16.933508,3.36105 -19.960708,3.36105 -6.81964,0 -12.04113,4.9608 -12.04113,11.43994 0,4.35808 2.72379,4.90283 24.514158,4.90283 22.23646,0 24.51416,0.47909 24.51416,5.15618 0,2.8359 -1.6668,5.7958 -3.70401,6.57753 -2.07316,0.79556 -4.52404,7.6029 -5.56643,15.46094 -1.70371,12.84316 -2.68929,14.38505 -11.56543,18.09374 -5.33665,2.22978 -12.330978,3.8478 -15.542978,3.59555 -14.0278,-1.10162 -18.09706,0.1558 -18.09706,5.59198 0,4.61168 1.98523,5.52557 12.93802,5.95574 16.161348,0.63472 27.500068,1.20261 35.409348,1.77338 7.81364,0.56388 8.35031,10.12108 0.68095,12.12666 -4.46553,1.16775 -5.4476,3.71529 -5.4476,14.13122 0,17.36003 -3.89549,20.48891 -25.508908,20.48891 l -17.72666,0 -0.85352,8.64257 c -0.89,9.01187 -5.7419,13.01223 -9.13107,7.52846 z m 41.816608,-40.00424 0.85353,-8.85234 -16.515348,0 -16.51535,0 0,9.33358 c 0,10.59104 3.08379,12.07014 20.42846,9.79822 9.950518,-1.30339 10.969188,-2.19467 11.748708,-10.27946 z m -2.31125,-57.7016 c 6.72391,-12.56375 -0.5748,-18.03487 -18.970738,-14.2205 -8.24087,1.70872 -9.64899,3.16377 -10.38682,10.73287 l -0.85352,8.75616 13.69573,0 c 10.752858,0 14.301588,-1.13206 16.515348,-5.26853 z"
       id="path3028"
       inkscape:connector-curvature="0" />
  </g>
</svg>
