<?xml version="1.0" encoding="UTF-8" standalone="no"?>
<!-- Created with Inkscape (http://www.inkscape.org/) -->

<svg
   xmlns:dc="http://purl.org/dc/elements/1.1/"
   xmlns:cc="http://creativecommons.org/ns#"
   xmlns:rdf="http://www.w3.org/1999/02/22-rdf-syntax-ns#"
   xmlns:svg="http://www.w3.org/2000/svg"
   xmlns="http://www.w3.org/2000/svg"
   xmlns:sodipodi="http://sodipodi.sourceforge.net/DTD/sodipodi-0.dtd"
   xmlns:inkscape="http://www.inkscape.org/namespaces/inkscape"
   width="300"
   height="300"
   id="svg2"
   version="1.1"
   inkscape:version="0.48.4 r9939"
   sodipodi:docname="dessin.svg">
  <defs
     id="defs4" />
  <sodipodi:namedview
     id="base"
     pagecolor="#ffffff"
     bordercolor="#666666"
     borderopacity="1.0"
     inkscape:pageopacity="0.0"
     inkscape:pageshadow="2"
     inkscape:zoom="1.979899"
     inkscape:cx="73.020464"
     inkscape:cy="149.14493"
     inkscape:document-units="px"
     inkscape:current-layer="layer1"
     showgrid="false"
     inkscape:window-width="1215"
     inkscape:window-height="1000"
     inkscape:window-x="65"
     inkscape:window-y="24"
     inkscape:window-maximized="1" />
  <metadata
     id="metadata7">
    <rdf:RDF>
      <cc:Work
         rdf:about="">
        <dc:format>image/svg+xml</dc:format>
        <dc:type
           rdf:resource="http://purl.org/dc/dcmitype/StillImage" />
        <dc:title />
      </cc:Work>
    </rdf:RDF>
  </metadata>
  <g
     inkscape:label="Calque 1"
     inkscape:groupmode="layer"
     id="layer1"
     transform="translate(0,-752.36218)">
    <path
       style="fill:#000000"
       d="m 191.75813,1043.8046 c -1.99453,-2.0449 -3.32976,-8.4757 -2.96719,-14.2907 0.36259,-5.8151 0.48402,-23.7613 0.26996,-39.88052 l -0.38939,-29.30775 -22.71112,1.68571 c -18.81781,1.39669 -23.36221,1.01816 -26.50915,-2.20822 -5.40465,-5.54113 -1.93449,-7.25272 15.28199,-7.53757 34.41226,-0.56938 33.93828,-0.44857 33.93828,-8.65032 0,-7.60282 -0.80979,-8.16943 -15.6642,-10.96005 -4.62847,-0.86953 -12.13107,-4.96546 -16.67243,-9.10205 -7.78812,-7.09397 -8.25707,-8.76076 -8.25707,-29.34855 0,-30.68814 1.55476,-32.77172 27.36578,-36.67401 15.67987,-2.37054 22.67503,-2.48853 27.13479,-0.45768 3.30482,1.50493 10.10211,2.73624 15.10513,2.73624 14.63419,0 17.09276,4.16926 17.72693,30.06184 0.46814,19.11203 -0.39967,24.48713 -4.92323,30.49351 -7.32905,9.73139 -12.905,13.28663 -20.98655,13.38106 -5.58094,0.0652 -6.56144,1.2108 -5.79909,6.77549 0.82877,6.04967 2.58086,6.97928 18.12466,9.61663 9.46392,1.60576 18.92372,2.35908 21.02174,1.67407 2.17782,-0.7111 3.81456,0.45562 3.81456,2.71919 0,2.18057 -2.28339,4.04721 -5.07421,4.14805 -2.79083,0.10096 -8.18094,0.67115 -11.97809,1.26742 -3.7971,0.59622 -8.76124,-0.22748 -11.03138,-1.83066 -3.2581,-2.30073 -5.27745,-1.91808 -9.5861,1.81653 -4.75613,4.12246 -5.62198,9.75519 -6.72898,43.77464 -1.26673,38.9271 -3.46468,47.3163 -10.50554,40.0977 z m 22.78094,-124.78357 c 3.02084,0 8.92693,-11.50283 8.92693,-17.38623 0,-5.0225 -4.81997,-5.96589 -16.6724,-3.26321 -5.2818,1.20437 -6.52401,3.23357 -6.52401,10.65736 0,10.25194 2.12967,13.23854 8.05945,11.30237 2.20718,-0.72064 5.00169,-1.31029 6.21003,-1.31029 z m -27.31744,-9.69115 c 0,-7.31058 -1.17969,-8.72729 -8.69866,-10.44635 -12.42782,-2.84138 -18.84707,-0.43025 -18.84707,7.07918 0,8.1004 7.7355,13.20189 18.84707,12.42944 7.83531,-0.54468 8.69866,-1.44412 8.69866,-9.06227 z m 0.65898,-32.45038 c 0,-9.04556 -0.62262,-9.92624 -6.12858,-8.66877 -3.37073,0.76983 -8.85498,1.41484 -12.1872,1.43339 -6.27684,0.035 -14.28836,10.77572 -11.20442,15.02153 0.91174,1.25524 7.92677,2.28226 15.58896,2.28226 l 13.93124,0 0,-10.06841 z m 30.99892,8.57088 c 7.4711,-2.43941 5.69275,-13.06967 -2.63723,-15.76445 -10.88402,-3.52101 -15.97271,-0.68852 -15.97271,8.89087 0,7.20891 0.97347,8.37111 7.01173,8.37111 3.85646,0 9.07566,-0.67386 11.59821,-1.49753 z M 116.53646,1017.9458 c -3.27559,-1.7653 -3.79803,-13.8719 -2.89954,-67.1924 l 1.09594,-65.03907 -19.518036,-0.0485 c -11.71662,-0.0291 -20.013394,1.04984 -20.757302,2.69939 -0.681599,1.51133 -1.251303,21.51714 -1.266031,44.4574 -0.02609,42.75274 -2.214099,82.22958 -4.670569,84.31968 -0.759305,0.6461 -3.531594,0.4724 -6.160675,-0.386 -4.136035,-1.3505 -4.535361,-4.4665 -2.963804,-23.12602 0.998982,-11.8609 2.462792,-50.98619 3.252919,-86.94507 1.520465,-69.19543 2.77516,-81.41635 8.358737,-81.41635 1.909847,0 5.941962,-1.53649 8.960279,-3.41441 4.766658,-2.9657 5.385218,-6.20327 4.706957,-24.63659 -0.429483,-11.6722 0.03915,-22.35118 1.041431,-23.73106 3.731403,-5.13721 12.53281,2.30768 14.511964,12.27529 l 1.9659,9.90081 14.24287,0 c 10.64587,0 14.24288,0.92276 14.24288,3.65375 0,3.66576 -12.12339,7.70745 -16.50762,5.50328 -4.63505,-2.33029 -15.387428,3.09895 -15.387428,7.76966 0,4.76309 5.264038,7.74494 13.672658,7.74494 2.47482,0 7.67418,3.05312 11.55407,6.7847 l 7.05438,6.78469 -2.1517,48.10966 c -1.18342,26.46032 -1.96168,64.76301 -1.7294,85.11709 0.42859,37.56563 -0.92024,53.07453 -4.61009,53.00633 -1.12382,-0.02 -3.84127,-1.0068 -6.03879,-2.1912 z m -4.85982,-146.63188 c 6.56876,-4.08692 7.72702,-21.48039 2.22048,-33.34405 -3.14158,-6.7684 -4.99352,-8.00634 -10.20004,-6.81839 -3.49883,0.79834 -8.971121,1.48366 -12.160626,1.52296 -10.328431,0.12733 -12.399232,3.37885 -14.531475,22.81715 l -2.097389,19.12052 15.734005,0 c 8.65371,0 18.119465,-1.48417 21.035045,-3.29819 z m 39.69322,-31.28086 c -8.11549,-7.22573 -8.32611,-8.06164 -7.30446,-28.98917 0.57861,-11.85187 1.06568,-23.49178 1.08238,-25.86641 0.0182,-2.37465 1.89964,-4.31754 4.18427,-4.31754 5.14353,0 8.46067,8.19147 5.99452,14.80298 -1.5036,4.03093 -0.52105,4.93431 5.36654,4.93431 10.88672,0 16.38009,-2.50307 16.38009,-7.46365 0,-11.14721 8.91493,-16.84769 12.81694,-8.19553 3.51214,7.78761 4.89921,39.87192 1.79435,41.50469 -1.65721,0.87147 -3.01309,3.71166 -3.01309,6.31154 0,3.19974 -4.16441,6.34128 -12.88892,9.72306 -7.08888,2.74777 -13.60153,4.99599 -14.47251,4.99599 -0.871,0 -5.34406,-3.34812 -9.94011,-7.44027 z m 27.33109,-8.3953 c 4.45846,-3.79358 3.88968,-17.46408 -0.89606,-21.53615 -1.62052,-1.37887 -7.45899,-1.71546 -13.37527,-0.77108 -9.96069,1.58997 -10.46359,2.1368 -9.80122,10.65751 0.38401,4.93985 2.00297,10.32711 3.59772,11.97167 3.98041,4.10473 15.48496,3.92384 20.47485,-0.32195 z m 26.72968,5.7578 c -5.97148,-6.87459 -6.51227,-9.79746 -5.59201,-30.22274 0.56034,-12.43667 1.35216,-22.91582 1.75964,-23.28701 2.48507,-2.26365 10.26955,3.24756 10.26955,7.27061 0,3.8182 1.6759,4.67017 7.97375,4.05358 6.26296,-0.61318 8.17062,-2.23636 8.89125,-7.56537 0.64816,-4.79306 2.56325,-6.78469 6.52398,-6.78469 6.26469,0 6.18226,-0.4051 6.18823,30.41518 0.004,19.26589 -0.75736,22.46988 -6.59328,27.75558 -9.44226,8.55201 -21.13684,7.90207 -29.42111,-1.63514 z m 24.42507,-11.50991 c 0.55868,-2.37465 0.49579,-7.43135 -0.13973,-11.23717 -0.97254,-5.8237 -2.36265,-6.80058 -8.77695,-6.16793 -5.95124,0.58702 -7.82762,2.28424 -8.56252,7.74485 -0.51761,3.84621 -0.23225,8.56467 0.63388,10.48544 2.29678,5.09278 15.60642,4.44078 16.84535,-0.82519 z"
       id="path3197"
       inkscape:connector-curvature="0" />
  </g>
</svg>
