<?xml version="1.0" encoding="UTF-8" standalone="no"?>
<!-- Created with Inkscape (http://www.inkscape.org/) -->

<svg
   xmlns:dc="http://purl.org/dc/elements/1.1/"
   xmlns:cc="http://creativecommons.org/ns#"
   xmlns:rdf="http://www.w3.org/1999/02/22-rdf-syntax-ns#"
   xmlns:svg="http://www.w3.org/2000/svg"
   xmlns="http://www.w3.org/2000/svg"
   xmlns:sodipodi="http://sodipodi.sourceforge.net/DTD/sodipodi-0.dtd"
   xmlns:inkscape="http://www.inkscape.org/namespaces/inkscape"
   width="300"
   height="300"
   id="svg2"
   version="1.1"
   inkscape:version="0.48.3.1 r9886"
   sodipodi:docname="殸-.svg">
  <defs
     id="defs4" />
  <sodipodi:namedview
     id="base"
     pagecolor="#ffffff"
     bordercolor="#666666"
     borderopacity="1.0"
     inkscape:pageopacity="0.0"
     inkscape:pageshadow="2"
     inkscape:zoom="1.979899"
     inkscape:cx="136.16721"
     inkscape:cy="166.49271"
     inkscape:document-units="px"
     inkscape:current-layer="layer1"
     showgrid="false"
     inkscape:window-width="1215"
     inkscape:window-height="1000"
     inkscape:window-x="65"
     inkscape:window-y="24"
     inkscape:window-maximized="1" />
  <metadata
     id="metadata7">
    <rdf:RDF>
      <cc:Work
         rdf:about="">
        <dc:format>image/svg+xml</dc:format>
        <dc:type
           rdf:resource="http://purl.org/dc/dcmitype/StillImage" />
        <dc:title></dc:title>
      </cc:Work>
    </rdf:RDF>
  </metadata>
  <g
     inkscape:label="Calque 1"
     inkscape:groupmode="layer"
     id="layer1"
     transform="translate(0,-752.36218)">
    <path
       style="fill:#000000"
       d="m 233.33258,1033.603 c -17.29417,-14.2587 -20.02695,-17.0171 -20.02695,-20.2147 0,-1.8944 -0.95616,-3.4444 -2.12481,-3.4444 -3.22406,0 -9.10442,-18.70542 -11.8718,-37.76423 -1.35894,-9.35896 -2.77356,-17.33529 -3.14359,-17.72521 -0.37004,-0.38994 -8.30692,-1.52 -17.63748,-2.51126 -23.06491,-2.45037 -23.6804,-6.97655 -1.24987,-9.19145 16.05708,-1.58556 17.49633,-2.17496 17.49633,-7.16494 0,-6.98041 -6.86577,-13.5167 -14.1981,-13.5167 -6.20772,0 -18.18419,-5.08893 -18.21345,-7.73908 -0.0325,-2.94587 14.05542,-4.9743 22.69108,-3.26712 4.81859,0.95254 11.25073,4.75995 14.97034,8.86143 3.58698,3.95523 7.52148,6.5402 8.74335,5.74446 2.99336,-1.94945 2.81944,-14.94821 -0.2817,-21.05424 -3.22422,-6.34841 -19.51374,-14.13311 -29.92634,-14.30165 -7.78275,-0.12593 -7.92189,-0.28327 -3.4746,-3.92788 5.48667,-4.49641 26.92489,-3.42164 37.23728,1.8668 18.36342,9.41718 19.68537,43.91602 2.19723,57.34015 -5.94746,4.56533 -6.16272,5.39017 -3.77349,14.45847 1.39359,5.28935 2.53961,14.22247 2.54672,19.85142 0.0139,10.40727 5.2962,22.54263 15.59659,35.82573 6.0358,7.7836 13.00007,21.05 11.74475,22.3728 -0.44553,0.4695 -3.73118,-1.5548 -7.30149,-4.4984 z m -168.276715,-2.9561 c 0,-2.0385 2.864858,-9.4528 6.366348,-16.4763 6.596543,-13.2318 7.153944,-16.80817 11.881414,-76.23438 3.379008,-42.47552 4.436782,-48.31449 8.457971,-46.68845 1.792526,0.72483 3.820205,0.36125 4.505955,-0.80795 0.685748,-1.16924 -0.06266,-2.59027 -1.663119,-3.15787 -4.640147,-1.64561 1.904639,-8.43054 11.275876,-11.6896 5.91627,-2.05752 12.91286,-2.09733 26.63358,-0.15159 21.60133,3.06338 21.79164,3.15458 26.46561,12.67897 4.10541,8.36577 2.73057,20.42321 -3.17533,27.848 -4.94158,6.21245 -17.55254,7.17274 -25.16558,1.9163 -5.97447,-4.12508 -6.23642,-8.05164 -1.64843,-24.70942 1.36981,-4.97335 0.86058,-5.60057 -3.96355,-4.88187 -4.80374,0.71569 -5.73214,2.52432 -7.02483,13.68517 -1.70592,14.72847 -4.9984,20.09216 -12.33348,20.09216 -10.030621,0 -12.814872,6.93119 -12.824003,31.92439 -0.0069,19.23176 -1.07512,25.99386 -6.524037,41.30375 -5.99221,16.83639 -17.447283,39.05499 -20.135253,39.05499 -0.621027,0 -1.129142,-1.6678 -1.129142,-3.7063 z M 102.88988,914.13707 c 7.62928,-8.44313 11.06985,-26.24007 5.07283,-26.24007 -4.62652,0 -9.641863,9.00845 -11.211423,20.13772 -1.326087,9.4029 1.035161,11.75019 6.138593,6.10235 z m 46.44122,-14.42526 c 1.71418,-9.03169 2.00688,-8.51611 -6.04328,-10.6452 -5.27903,-1.39617 -6.74399,-0.65804 -8.98628,4.52783 -3.75118,8.67558 -1.20438,13.83005 6.83336,13.83005 5.70291,0 6.9562,-1.17936 8.1962,-7.71268 z m 84.56374,-14.25576 c -16.89649,-17.37411 -14.45162,-16.15198 -42.17648,-21.08308 -9.75968,-1.73585 -18.71122,-11.91488 -13.47624,-15.32421 1.53494,-0.99966 2.17434,-3.51033 1.42091,-5.57929 -2.58942,-7.11071 8.18279,-15.02075 24.28792,-17.83473 13.80625,-2.41227 18.62029,-5.95754 18.62029,-13.71272 0,-5.96291 -0.93432,-6.57741 -12.26961,-8.06981 -13.66384,-1.79897 -20.16003,-0.16794 -20.16003,5.06133 0,9.49273 -12.30927,20.60225 -28.12215,25.38115 l -6.38697,1.93023 7.98082,-8.40988 c 11.91896,-12.55974 14.64203,-18.02959 16.29478,-32.7314 1.85012,-16.45762 4.58803,-20.88565 9.62924,-15.57339 1.96264,2.06815 3.68329,6.1566 3.82366,9.08546 0.2366,4.93612 1.48177,5.34173 17.04356,5.55177 20.52004,0.27693 26.06511,4.22651 26.06511,18.56528 0,16.71657 -13.51863,26.14638 -37.71422,26.30724 -14.82632,0.0987 -14.33864,10.26706 0.65178,13.58963 22.67518,5.02587 34.3003,12.55801 41.52204,26.90299 8.07798,16.04581 5.17532,18.49832 -7.03441,5.94343 z M 83.587088,871.66801 c 0,-0.87084 7.817859,-9.74174 17.373022,-19.71311 17.35458,-18.11054 20.19211,-22.64041 14.18204,-22.64041 -4.26754,0 -7.6575,-4.61365 -9.70434,-13.20734 -1.77304,-7.44417 -0.52577,-7.74314 11.15802,-2.67455 3.33484,1.44672 4.0537,0.44974 4.0537,-5.62199 0,-4.05931 1.30298,-7.88399 2.8955,-8.49933 2.3164,-0.89499 2.3164,-1.76559 0,-4.35299 -1.59252,-1.77883 -2.8955,-5.53119 -2.8955,-8.33858 0,-2.8334 -4.13106,-9.10688 -9.28517,-14.10055 l -9.28517,-8.99619 7.54787,1.36946 c 21.145,3.83649 23.75446,7.62997 22.90643,33.3001 -0.35294,10.68352 0.34973,16.47634 1.99857,16.47634 4.27401,0 13.9143,-11.68173 13.9143,-16.86077 0,-5.69203 4.66206,-17.31236 6.9457,-17.31236 2.9631,0 2.13688,15.97365 -1.32829,25.68078 -1.90698,5.34204 -4.05027,11.5451 -4.76288,13.78458 -0.71261,2.23949 -4.32354,5.3934 -8.0243,7.00872 -10.65549,4.65094 -7.69296,16.8721 5.51602,22.75494 8.66927,3.861 20.18496,15.38417 20.18496,20.19804 0,1.8307 -0.53532,3.32856 -1.18961,3.32856 -1.61793,0 -11.27092,-5.74841 -12.70879,-7.56814 -0.63702,-0.8062 -5.32772,-4.36435 -10.42381,-7.90704 -5.09609,-3.54265 -11.62877,-8.24699 -14.51709,-10.45405 -4.98603,-3.81 -5.48147,-3.71878 -9.80177,1.8047 -10.22986,13.07878 -17.24461,19.24266 -21.89897,19.24266 -1.82128,0 -3.955643,1.09842 -4.743033,2.44094 -1.577199,2.68916 -8.107409,3.37991 -8.107409,0.85758 z"
       id="path3028"
       inkscape:connector-curvature="0" />
  </g>
</svg>
