<?xml version="1.0" encoding="UTF-8" standalone="no"?>
<!-- Created with Inkscape (http://www.inkscape.org/) -->

<svg
   xmlns:dc="http://purl.org/dc/elements/1.1/"
   xmlns:cc="http://creativecommons.org/ns#"
   xmlns:rdf="http://www.w3.org/1999/02/22-rdf-syntax-ns#"
   xmlns:svg="http://www.w3.org/2000/svg"
   xmlns="http://www.w3.org/2000/svg"
   xmlns:sodipodi="http://sodipodi.sourceforge.net/DTD/sodipodi-0.dtd"
   xmlns:inkscape="http://www.inkscape.org/namespaces/inkscape"
   width="300"
   height="300"
   id="svg2"
   version="1.1"
   inkscape:version="0.48.4 r9939"
   sodipodi:docname="image-seal.svg">
  <defs
     id="defs4" />
  <sodipodi:namedview
     id="base"
     pagecolor="#ffffff"
     bordercolor="#666666"
     borderopacity="1.0"
     inkscape:pageopacity="0.0"
     inkscape:pageshadow="2"
     inkscape:zoom="2.0018437"
     inkscape:cx="238.32259"
     inkscape:cy="136.91539"
     inkscape:document-units="px"
     inkscape:current-layer="layer1"
     showgrid="false"
     inkscape:window-width="1215"
     inkscape:window-height="1000"
     inkscape:window-x="65"
     inkscape:window-y="24"
     inkscape:window-maximized="1"
     fit-margin-top="10"
     fit-margin-left="10"
     fit-margin-right="10"
     fit-margin-bottom="10" />
  <metadata
     id="metadata7">
    <rdf:RDF>
      <cc:Work
         rdf:about="">
        <dc:format>image/svg+xml</dc:format>
        <dc:type
           rdf:resource="http://purl.org/dc/dcmitype/StillImage" />
        <dc:title />
      </cc:Work>
    </rdf:RDF>
  </metadata>
  <g
     inkscape:label="Calque 1"
     inkscape:groupmode="layer"
     id="layer1"
     transform="translate(0,-752.36218)">
    <path
       style="fill:#000000"
       d="m 209.78216,1044.5558 c -1.73903,-2.8138 -4.84212,-24.5585 -8.68292,-60.84493 -1.02754,-9.7077 -2.50048,-18.2826 -3.27317,-19.05532 -0.77273,-0.7727 -10.12167,0.41257 -20.77546,2.63397 -10.65379,2.22137 -22.4269,3.68434 -26.16247,3.25101 l -6.79194,-0.78781 -0.75413,24.12177 c -0.52054,16.64941 -1.89156,25.06571 -4.42588,27.16901 -7.081,5.8767 -9.7761,-6.7413 -10.5964,-49.61013 -0.43351,-22.65522 -1.63292,-43.26565 -2.66539,-45.80092 -2.21457,-5.43809 -8.68945,-5.84126 -15.14228,-0.94285 -4.05343,3.07698 -4.60958,8.60237 -4.60958,45.79657 0,42.61963 -0.93637,50.63043 -5.918034,50.63043 -7.69497,0 -9.45709,-9.472 -8.3304,-44.77877 1.40235,-43.94549 2.87785,-57.72087 6.67226,-62.29283 4.577764,-5.51588 32.089154,-4.73544 37.059074,1.05127 5.76247,6.70952 7.99677,14.46218 4.74684,16.47074 -1.9826,1.22531 -2.0092,3.8928 -0.0893,8.94272 1.50486,3.9581 2.73612,10.16257 2.73612,13.7877 0,5.03898 1.08551,6.27108 4.60958,5.23208 3.87792,-1.14333 43.16231,-6.89809 47.08922,-6.89809 0.69892,0 0.90949,-5.63027 0.46792,-12.51172 l -0.80283,-12.51171 -19.54818,-1.31703 c -28.12096,-1.89458 -28.0343,-10.25507 0.15014,-14.48119 13.66525,-2.04902 21.21621,0.7918 30.46171,11.46021 l 5.79553,6.68747 2.76512,-7.27281 c 1.52082,-4.00003 2.76512,-11.93691 2.76512,-17.63752 l 0,-10.3647 -19.53991,0 c -22.71311,0 -27.87291,-1.45405 -27.87291,-7.8547 0,-6.22675 10.80277,-8.17587 30.4694,-5.49746 8.59452,1.17046 16.98698,1.60987 18.64996,0.97644 1.66295,-0.63344 5.51524,1.52282 8.56065,4.79167 5.95083,6.38745 6.57919,8.29798 3.68203,11.19514 -1.94941,1.9494 -2.14227,3.879 -2.93001,29.31448 -0.39095,12.62306 -1.81433,17.34479 -7.07136,23.4576 -6.42267,7.46817 -7.75879,10.68224 -6.67349,16.05308 0.29278,1.44873 1.08441,7.96799 1.7592,14.48725 0.67479,6.51926 2.31915,17.18715 3.65411,23.70648 3.18791,15.568 3.76442,31.7923 1.33375,37.5351 -2.19245,5.18 -8.05178,6.1092 -10.77172,1.7083 z M 56.042704,1026.5561 c -3.122411,-1.976 -3.255244,-4.7754 -0.779254,-16.4225 8.600356,-40.45614 13.762446,-91.42234 13.762446,-135.87902 0,-33.67069 4.106716,-54.59265 11.69133,-59.56228 3.14923,-2.06346 14.84553,-5.22289 25.991774,-7.02097 l 20.2659,-3.26924 0,-10.51145 0,-10.51145 -11.19469,1.82655 c -27.332724,4.4597 -44.642547,4.89635 -46.992587,1.18545 -1.273306,-2.01064 -2.333254,-4.45053 -2.355438,-5.42194 -0.0674,-2.95163 13.637081,-4.998 35.148675,-5.24847 20.88005,-0.24312 24.87261,-1.9228 30.77205,-12.94604 1.49021,-2.78448 4.31894,-5.06269 6.28607,-5.06269 3.84081,0 8.14513,7.52623 6.77893,11.8532 -0.45743,1.44873 -1.65352,9.80711 -2.65799,18.57419 -1.00449,8.76707 -3.49701,19.43496 -5.53895,23.70641 -3.52296,7.36948 -4.65336,7.8061 -22.12511,8.54571 -23.156594,0.98029 -30.028924,5.57114 -32.163534,21.48583 -1.47818,11.02064 -1.30596,11.37744 4.79186,9.92853 3.47883,-0.82659 14.622394,-2.22084 24.763464,-3.09829 10.14108,-0.87748 24.66125,-2.23794 32.26706,-3.02328 11.26097,-1.16275 13.82874,-0.68203 13.82874,2.58892 0,3.58842 -14.08142,9.47546 -22.76608,9.51781 -4.75053,0.0237 -6.11149,6.72991 -3.37603,16.63695 2.1828,7.90551 4.06088,9.50203 14.17282,12.04826 20.13641,5.0704 18.28792,13.35595 -2.99712,13.43389 -9.17583,0.0337 -11.92501,-1.23721 -16.46279,-7.60991 -2.99609,-4.20763 -5.44744,-10.49059 -5.44744,-13.96213 0,-9.35202 -6.01579,-20.70497 -10.53618,-19.88378 -2.83757,0.51551 -4.15066,4.79367 -4.65927,15.18037 -0.98236,20.06134 -4.46794,25.86199 -16.126454,26.83745 l -9.50581,0.79535 -1.60012,27.65748 c -3.52925,61.00149 -10.42157,100.20699 -17.589382,100.05349 -1.035572,-0.021 -3.576673,-1.1123 -5.64689,-2.4224 z M 95.436066,881.38194 c 1.58901,-2.9691 2.51971,-8.59937 2.06821,-12.51172 -0.68841,-5.9653 -2.09629,-7.11337 -8.72304,-7.11337 -7.5584,0 -7.93706,0.54424 -8.70497,12.51171 -0.75897,11.82819 -0.44026,12.51172 5.83393,12.51172 3.99431,0 7.78707,-2.14938 9.52587,-5.39834 z m 79.569024,-24.23601 c -8.36828,-8.90764 -10.76181,-17.5359 -7.44452,-26.83627 4.59699,-12.88822 7.32973,-14.17733 45.50377,-21.46507 6.33448,-1.20929 9.7766,-8.47978 7.1971,-15.20184 -3.63182,-9.46439 -40.60563,-3.24083 -40.60563,6.83487 0,3.46029 -17.9384,20.45152 -21.59158,20.45152 -1.37013,0 -4.26911,1.77798 -6.44219,3.95107 -5.05608,5.05608 -8.59927,5.01675 -10.56938,-0.11721 -1.04524,-2.7239 3.33439,-8.47149 13.25291,-17.39234 l 14.81406,-13.32401 0,-18.34223 0,-18.34223 7.24363,0.83347 c 6.42691,0.73948 7.33249,2.0457 8.03194,11.58503 l 0.78832,10.7516 21.31806,-1.23408 c 20.07936,-1.16238 21.59894,-0.86879 26.15207,5.05268 6.08115,7.90869 6.20661,20.3136 0.28301,27.98449 -3.2369,4.19172 -8.35388,6.32253 -17.72123,7.37947 -24.533,2.76809 -32.21796,6.23697 -34.04396,15.36697 -1.21443,6.0721 -0.46457,9.07602 2.87525,11.51815 3.64133,2.6626 16.60663,4.63242 24.79003,3.76634 0.83789,-0.0888 7.65348,-0.97441 15.14576,-1.96829 12.3233,-1.63474 13.62231,-1.32258 13.62231,3.27357 0,9.49634 -5.29494,11.40233 -31.67622,11.40233 -22.88951,0 -25.89591,-0.57633 -30.92351,-5.92794 z"
       id="path3002"
       inkscape:connector-curvature="0" />
  </g>
</svg>
