<?xml version="1.0" encoding="UTF-8" standalone="no"?>
<!-- Created with Inkscape (http://www.inkscape.org/) -->

<svg
   xmlns:dc="http://purl.org/dc/elements/1.1/"
   xmlns:cc="http://creativecommons.org/ns#"
   xmlns:rdf="http://www.w3.org/1999/02/22-rdf-syntax-ns#"
   xmlns:svg="http://www.w3.org/2000/svg"
   xmlns="http://www.w3.org/2000/svg"
   xmlns:sodipodi="http://sodipodi.sourceforge.net/DTD/sodipodi-0.dtd"
   xmlns:inkscape="http://www.inkscape.org/namespaces/inkscape"
   width="300"
   height="300"
   id="svg2"
   version="1.1"
   inkscape:version="0.48.3.1 r9886"
   sodipodi:docname="æ¯-.svg">
  <defs
     id="defs4" />
  <sodipodi:namedview
     id="base"
     pagecolor="#ffffff"
     bordercolor="#666666"
     borderopacity="1.0"
     inkscape:pageopacity="0.0"
     inkscape:pageshadow="2"
     inkscape:zoom="1.4"
     inkscape:cx="160.32004"
     inkscape:cy="132.70336"
     inkscape:document-units="px"
     inkscape:current-layer="layer1"
     showgrid="false"
     inkscape:window-width="1215"
     inkscape:window-height="1000"
     inkscape:window-x="65"
     inkscape:window-y="24"
     inkscape:window-maximized="1" />
  <metadata
     id="metadata7">
    <rdf:RDF>
      <cc:Work
         rdf:about="">
        <dc:format>image/svg+xml</dc:format>
        <dc:type
           rdf:resource="http://purl.org/dc/dcmitype/StillImage" />
        <dc:title></dc:title>
      </cc:Work>
    </rdf:RDF>
  </metadata>
  <g
     inkscape:label="Calque 1"
     inkscape:groupmode="layer"
     id="layer1"
     transform="translate(0,-752.36218)">
    <path
       style="fill:#000000"
       d="m 206.37049,1029.3418 c -2.09046,-0.9875 -6.66595,-2.9013 -10.16773,-4.2529 -8.0223,-3.0963 -27.55127,-18.2064 -34.91365,-27.01367 -3.73892,-4.47269 -5.59635,-9.83262 -5.59635,-16.14929 0,-9.56299 1.61436,-11.70198 25.77518,-34.15149 2.33041,-2.16536 5.58174,-6.65599 7.22517,-9.97916 2.58089,-5.21883 2.16531,-7.28504 -3.04996,-15.16399 -5.43298,-8.20788 -6.91862,-9.08394 -14.82683,-8.7432 -11.13296,0.47967 -25.2591,2.94233 -25.2591,4.40349 0,0.61429 1.90542,2.28387 4.23428,3.71019 5.45012,3.33796 6.52639,9.47979 1.9206,10.96015 -1.96804,0.63254 -7.64392,-0.85911 -12.61306,-3.31479 -9.56709,-4.72791 -18.88068,-5.88347 -18.88068,-2.34253 0,1.16729 -2.14088,2.12233 -4.75751,2.12233 -2.61663,0 -5.91839,1.19382 -7.33725,2.65293 -5.78021,5.94416 -13.532596,34.53134 -14.962911,55.17615 -1.602759,23.13378 -3.675417,29.18668 -9.994256,29.18668 -3.401412,0 -3.821842,-3.8758 -3.110026,-28.67076 0.773841,-26.95543 1.301163,-29.53786 8.813724,-43.16262 4.94816,-8.97398 11.550329,-16.94947 17.339659,-20.94644 l 9.34903,-6.45462 -9.60193,-8.747 c -5.88661,-5.3625 -11.848277,-8.74702 -15.407429,-8.74702 -3.193025,0 -5.805499,0.7225 -5.805499,1.60559 0,1.56108 -17.602421,6.88374 -22.765066,6.88374 -6.859069,0 -1.256615,-6.46391 9.462165,-10.9171 12.927977,-5.37102 12.605145,-4.55182 9.498144,-24.10143 -0.837781,-5.27143 -0.132268,-9.76055 1.861249,-11.84293 3.456258,-3.61033 39.725066,-12.56394 50.893366,-12.56394 6.22274,0 6.79563,-0.70555 6.79563,-8.3694 l 0,-8.36938 -14.88286,0.17678 c -20.23424,0.2403 -29.507138,-3.49338 -33.012222,-13.29219 -4.081132,-11.40922 -3.516448,-20.39184 1.380864,-21.9659 5.48869,-1.76413 5.598935,-1.60733 7.321668,10.41307 1.86476,13.01147 6.16915,15.78605 24.62271,15.87153 l 14.56984,0.0676 0,-21.22337 0,-21.22336 6.45998,0 c 7.02211,0 6.7706,-1.3254 6.14182,32.36563 l -0.18814,10.0811 10.43001,0 c 18.00686,0 26.24074,-5.53341 24.03794,-16.1542 -1.54294,-7.4392 3.15998,-12.32182 9.80966,-10.18455 3.11087,0.99986 4.12199,4.16966 4.12199,12.92223 0,11.86241 -3.63531,17.66118 -11.07196,17.66118 -2.10774,0 -4.53697,0.95505 -5.39829,2.12234 -0.86132,1.16729 -7.7484,2.12233 -15.3046,2.12233 -12.64546,0 -13.86875,0.43452 -15.37502,5.46124 -2.65764,8.86904 0.75029,9.65807 31.8432,7.37272 15.77438,-1.15943 29.6624,-1.59985 30.86228,-0.97873 4.88647,2.52948 1.56191,4.71935 -9.22089,6.0737 -8.86356,1.1133 -11.40249,2.32048 -11.40249,5.42157 0,2.19417 1.10718,4.56251 2.46043,5.26301 1.35322,0.70052 3.22341,6.09113 4.15593,11.97913 1.41198,8.91523 2.80141,11.0743 8.30859,12.91103 13.27236,4.42657 19.35797,7.04292 22.86081,9.82844 7.26486,5.77715 -7.53828,8.00535 -16.24773,2.44564 -1.39363,-0.88963 -5.95463,-2.18885 -10.13554,-2.88717 -5.83959,-0.97536 -9.21691,-0.072 -14.56984,3.89779 -3.83251,2.84212 -6.96292,5.92956 -6.95648,6.86102 0.005,0.93144 3.23947,4.5774 7.18445,8.10213 4.29425,3.83676 7.83918,9.8995 8.83345,15.10743 1.48887,7.7986 0.69176,9.77106 -7.70222,19.05945 -5.14964,5.69835 -10.3342,10.69683 -11.52123,11.10774 -11.53693,3.99381 -17.01281,20.36565 -10.23074,30.58794 5.3462,8.05806 20.66417,20.66211 25.11106,20.66211 1.70199,0 3.47459,0.8543 3.93913,1.8984 0.46456,1.0442 4.83552,3.7527 9.71325,6.0189 9.9228,4.6102 12.12221,11.9562 3.80083,12.6946 -2.78728,0.2474 -6.77815,-0.3582 -8.8686,-1.3458 z M 142.54461,909.02661 c 9.13537,-1.53034 12.22091,-6.42594 7.06597,-11.21106 -2.01877,-1.87394 -4.39329,-9.61499 -5.27672,-17.20235 -2.89659,-24.87751 -2.22148,-23.98404 -17.32962,-22.93464 -7.27998,0.50565 -17.09128,2.53012 -21.80289,4.49883 -4.71161,1.96872 -10.101749,3.57947 -11.978089,3.57947 -4.048676,0 -4.483022,7.09146 -0.78849,12.87354 3.540946,5.54171 7.038572,5.20365 24.146239,-2.3339 9.40757,-4.1449 15.4872,-5.70804 17.06402,-4.38731 4.51195,3.77912 -0.4807,8.64929 -14.61181,14.25336 -7.70999,3.05758 -14.01817,5.96839 -14.01817,6.46842 0,1.45122 10.82845,10.05891 17.66753,14.04417 6.93027,4.03843 8.60677,4.2369 19.86203,2.35147 z m 36.5866,-14.33715 c 9.38995,-6.76415 8.79543,-9.25358 -3.16735,-13.26271 -11.85912,-3.97439 -14.38808,-10.63234 -3.16736,-8.33863 3.8325,0.78342 9.53375,1.94555 12.66943,2.58248 4.92271,0.99994 5.70124,0.31501 5.70124,-5.01589 0,-3.39567 -1.42531,-8.74453 -3.16736,-11.88634 -2.89896,-5.22834 -4.40201,-5.71383 -17.7372,-5.72899 l -14.56985,-0.017 -0.29145,6.89759 c -0.69091,16.35094 0.9784,34.68801 3.3811,37.14088 4.05371,4.13836 12.71236,3.12913 20.3488,-2.37186 z"
       id="path2996"
       inkscape:connector-curvature="0" />
  </g>
</svg>
