<?xml version="1.0" encoding="UTF-8" standalone="no"?>
<!-- Created with Inkscape (http://www.inkscape.org/) -->

<svg
   xmlns:dc="http://purl.org/dc/elements/1.1/"
   xmlns:cc="http://creativecommons.org/ns#"
   xmlns:rdf="http://www.w3.org/1999/02/22-rdf-syntax-ns#"
   xmlns:svg="http://www.w3.org/2000/svg"
   xmlns="http://www.w3.org/2000/svg"
   xmlns:sodipodi="http://sodipodi.sourceforge.net/DTD/sodipodi-0.dtd"
   xmlns:inkscape="http://www.inkscape.org/namespaces/inkscape"
   width="300"
   height="300"
   id="svg2"
   version="1.1"
   inkscape:version="0.48.4 r9939"
   sodipodi:docname="image-seal.svg">
  <defs
     id="defs4" />
  <sodipodi:namedview
     id="base"
     pagecolor="#ffffff"
     bordercolor="#666666"
     borderopacity="1.0"
     inkscape:pageopacity="0.0"
     inkscape:pageshadow="2"
     inkscape:zoom="1.979899"
     inkscape:cx="118.51252"
     inkscape:cy="162.88219"
     inkscape:document-units="px"
     inkscape:current-layer="layer1"
     showgrid="false"
     inkscape:window-width="1215"
     inkscape:window-height="1000"
     inkscape:window-x="65"
     inkscape:window-y="24"
     inkscape:window-maximized="1" />
  <metadata
     id="metadata7">
    <rdf:RDF>
      <cc:Work
         rdf:about="">
        <dc:format>image/svg+xml</dc:format>
        <dc:type
           rdf:resource="http://purl.org/dc/dcmitype/StillImage" />
        <dc:title />
      </cc:Work>
    </rdf:RDF>
  </metadata>
  <g
     inkscape:label="Calque 1"
     inkscape:groupmode="layer"
     id="layer1"
     transform="translate(0,-752.36218)">
    <path
       style="fill:#000000"
       d="m 194.44976,1038.3096 c -39.7142,-8.2588 -46.66114,-12.6107 -52.28745,-32.7557 l -3.35302,-12.00552 -20.17685,-3.49214 c -33.231567,-5.75158 -39.88357,-11.47707 -43.671663,-37.58886 -1.758753,-12.1233 -1.613284,-12.4924 4.923796,-12.4924 4.959823,0 6.736091,1.37298 6.736091,5.20673 0,9.23744 7.999043,25.53115 13.944486,28.40434 7.69777,3.72001 31.51243,5.99762 35.69334,3.41367 2.02616,-1.25224 2.99769,-6.06161 2.48624,-12.30764 l -0.83949,-10.25221 -15.36445,-2.30697 c -13.22625,-1.98592 -16.06138,-3.44992 -20.37249,-10.51991 -2.754443,-4.51712 -5.012483,-11.46754 -5.017893,-15.44538 -0.008,-5.47586 -1.28735,-7.23244 -5.26979,-7.23244 -6.397079,0 -7.271509,-9.18526 -1.099887,-11.55353 2.288037,-0.87802 15.10014,-1.59637 28.47132,-1.59637 22.73392,0 24.72493,0.44034 30.68715,6.78681 3.50673,3.73276 6.08001,7.28324 5.71838,7.88995 -0.36162,0.6067 -0.65749,5.24533 -0.65749,10.30804 0,8.80166 0.41152,9.20491 9.39278,9.20491 5.16604,0 10.78762,-1.52512 12.4924,-3.38917 4.86356,-5.31789 9.67456,-14.59151 9.67456,-18.64856 0,-4.52167 7.9009,-7.93304 11.059,-4.77494 3.70735,3.70734 -0.63206,22.9682 -6.73835,29.9088 -3.56196,4.04863 -11.20001,7.71524 -20.75802,9.96475 -14.40968,3.39135 -15.77986,4.65511 -15.77986,14.5539 0,8.36181 0.94647,9.20492 10.33321,9.20492 10.65764,0 27.14398,-5.11297 27.14398,-8.41827 0,-1.15591 1.68854,-2.10164 3.75235,-2.10164 4.83039,0 12.02751,-14.40554 12.02751,-24.07388 0,-5.73253 1.23199,-7.48586 5.25997,-7.48586 4.49192,0 5.25995,1.75333 5.25995,12.0078 0,22.21006 -12.40054,34.94302 -38.22555,39.25027 -15.14318,2.52567 -24.89393,6.73311 -24.89393,10.74176 0,14.28744 11.60749,21.65584 45.12346,28.64414 20.60779,4.2969 24.79793,6.7435 22.37275,13.0633 -1.82344,4.7519 -4.71014,4.7403 -28.04654,-0.1128 z m -55.22952,-107.53953 0,-11.8349 -15.77988,0 c -17.06585,0 -18.52426,1.61914 -12.79148,14.20121 2.8369,6.22635 5.94442,7.39934 23.96889,9.04769 3.76381,0.3442 4.60247,-1.73566 4.60247,-11.414 z m -74.154598,-25.4655 c -0.667496,-1.90535 -1.510847,-18.68629 -1.874112,-37.29096 -0.659159,-33.75891 -0.645894,-33.84196 6.616415,-41.42216 5.103449,-5.32687 9.832884,-7.59546 15.834563,-7.59546 4.706717,0 9.264599,-1.14383 10.128629,-2.54187 0.86403,-1.39802 1.65888,-11.75356 1.76636,-23.01232 0.20921,-21.9182 2.989763,-29.24411 9.156953,-24.12581 2.51094,2.08391 3.59603,9.54779 3.59603,24.73587 0,23.3209 0.96751,24.94413 14.86783,24.94413 9.06686,0 12.78561,4.56709 16.11399,19.79008 3.7522,17.16143 6.26171,49.6846 4.24019,54.95261 -1.28329,3.34423 -8.42493,6.09303 -9.09109,3.49916 -0.0929,-0.36162 -0.78892,-11.89242 -1.54677,-25.62396 -0.75784,-13.73156 -2.98845,-28.82105 -4.95689,-33.53222 -3.5056,-8.39008 -3.91887,-8.56494 -20.15057,-8.52549 -16.892833,0.041 -26.345382,2.93224 -20.797312,6.36115 1.60092,0.98942 2.910759,4.68783 2.910759,8.21868 0,5.85525 1.04063,6.41973 11.834913,6.41973 10.79427,0 11.8349,-0.56448 11.8349,-6.41973 0,-3.53085 1.31581,-7.23297 2.92402,-8.22688 5.38713,-3.32943 7.89549,5.29887 6.48405,22.30395 -1.67714,20.20628 -8.23175,29.16236 -21.34278,29.16236 -11.534303,0 -22.739638,-11.29857 -22.020577,-22.20383 1.033554,-15.67494 -0.267862,-30.39574 -2.687184,-30.39574 -4.343538,0 -6.162652,11.07868 -6.5725,40.02745 -0.228387,16.13189 -1.617199,29.5265 -3.228495,31.13782 -2.016941,2.01693 -3.175664,1.83441 -4.041322,-0.63656 z m 47.197308,-35.89419 c 5.33806,-6.62512 3.88639,-8.33474 -7.07722,-8.33474 -12.234863,0 -15.5332,3.69875 -9.370673,10.50826 4.797613,5.3013 11.095823,4.46902 16.447893,-2.17352 z m 105.85662,28.48496 c 0,-2.89298 -1.04863,-5.25996 -2.33032,-5.25996 -1.28167,0 -4.32981,-4.21368 -6.7737,-9.36372 -4.92024,-10.36869 -10.72397,-13.93994 -15.26854,-9.39534 -3.06014,3.06014 -31.36425,4.22525 -34.18241,1.40707 -2.95493,-2.95492 1.24995,-8.94779 6.27821,-8.94779 10.0266,0 25.97698,-6.52966 25.97698,-10.63427 0,-7.64237 -6.1272,-10.40555 -23.07365,-10.40555 -14.54451,0 -16.64563,-0.60882 -15.88417,-4.60247 0.71543,-3.75235 4.1965,-4.74714 18.84616,-5.38567 16.48153,-0.71838 18.44517,-0.22855 23.72635,5.91745 3.16673,3.68536 7.00942,6.70066 8.5393,6.70066 3.89297,0 8.88584,-11.89157 8.88584,-21.16357 l 0,-7.76619 -25.97775,0 c -18.52365,0 -26.81826,-1.01275 -28.90695,-3.52945 -3.47449,-4.18654 -1.3272,-6.99047 5.35344,-6.99047 3.9551,0 4.87761,-2.24513 5.13306,-12.49239 0.17121,-6.87082 0.0981,-13.59959 -0.16253,-14.95282 -1.2804,-6.64493 2.97314,-14.63444 7.79123,-14.63444 4.06903,0 5.20983,1.77937 5.20983,8.12601 l 0,8.126 17.75236,-0.52779 c 24.7463,-0.73571 26.95727,-0.43065 26.95727,3.71924 0,5.04806 -5.89581,6.85633 -22.35481,6.85633 -17.19906,0 -22.35482,1.80618 -22.35482,7.83149 0,3.80784 3.22972,4.95701 18.03069,6.41544 15.60582,1.53777 18.50239,2.65817 21.53844,8.33107 3.76776,7.04011 1.58745,22.34652 -5.70747,40.06845 -3.38771,8.22989 -3.0916,9.63939 5.15023,24.51741 4.80951,8.68203 8.09618,17.47521 7.30371,19.54038 -2.1833,5.68956 -9.49591,4.53051 -9.49591,-1.50511 z M 57.598805,818.93907 c -4.180326,-2.58358 -1.346025,-10.463 3.763641,-10.463 7.103264,0 14.738306,-13.12687 14.738306,-25.33947 0,-8.05944 1.091643,-11.48022 3.663588,-11.48022 4.836238,0 6.856324,5.81533 6.856324,19.73762 0,9.13318 -1.550269,12.96777 -7.748523,19.16602 -8.510204,8.51021 -16.175797,11.52951 -21.273336,8.37905 z m 81.882235,-6.74764 c -12.91568,-5.48017 -15.86241,-10.82061 -15.95703,-28.9193 -0.0897,-17.15206 0.97321,-19.94426 6.74842,-17.72811 2.48841,0.9549 3.68784,5.7237 3.68784,14.66245 0,12.025 0.90998,14.04119 9.86242,21.85159 11.97529,10.44765 9.57922,16.04003 -4.34165,10.13337 z"
       id="path3002"
       inkscape:connector-curvature="0" />
  </g>
</svg>
