<?xml version="1.0" encoding="UTF-8" standalone="no"?>
<svg
   xmlns:dc="http://purl.org/dc/elements/1.1/"
   xmlns:cc="http://creativecommons.org/ns#"
   xmlns:rdf="http://www.w3.org/1999/02/22-rdf-syntax-ns#"
   xmlns:svg="http://www.w3.org/2000/svg"
   xmlns="http://www.w3.org/2000/svg"
   version="1.1"
   id="svg40"
   width="300"
   height="300"
   viewBox="0 0 300 300">
  <metadata
     id="metadata46">
    <rdf:RDF>
      <cc:Work
         rdf:about="">
        <dc:format>image/svg+xml</dc:format>
        <dc:type
           rdf:resource="http://purl.org/dc/dcmitype/StillImage" />
        <dc:title></dc:title>
      </cc:Work>
    </rdf:RDF>
  </metadata>
  <defs
     id="defs44" />
  <path
     style="fill:#000000;stroke-width:0.688905"
     d="m 178.92326,275.67226 c -5.12833,-7.74935 -12.2491,-19.76337 -17.44878,-31.08317 -13.69394,-29.81193 -16.81483,-56.03041 -15.78541,-78.87944 1.30353,-28.93298 8.0141,-61.06349 9.94549,-83.394942 2.55735,-29.568908 -4.83427,-42.720079 -24.47844,-58.65089 -3.42322,-2.776121 2.22679,-10.463877 5.69825,-8.277727 32.80488,25.309571 33.68954,44.077172 29.37334,86.104209 10.59331,1.39248 24.88892,0.59989 29.51879,-6.657263 10.07139,-15.786554 1.75426,-34.478157 -3.27846,-47.709616 -5.15909,-13.457967 -6.98281,-18.91723 -6.83813,-22.220739 0.27867,-6.362809 6.75859,-5.264032 8.46031,-1.938403 4.26074,8.326603 11.25021,22.853178 15.02535,36.450653 4.10671,14.791694 4.83361,33.037608 -4.96102,44.141538 -9.12557,10.34544 -25.24743,9.99516 -40.22781,9.71903 -4.05055,28.4118 -9.2612,55.89458 -4.89662,83.39744 3.9502,24.89169 10.57197,41.94273 27.58199,70.39911 7.23032,12.09572 8.84994,15.73173 6.45797,16.95403 -7.10632,3.63135 -11.07091,-3.72811 -14.14682,-8.35382 z m -58.798,2.80814 c -2.96501,-5.15431 -6.81197,-12.49392 -12.57164,-38.17717 -9.235677,-40.37183 -8.058622,-76.07177 0.31549,-109.84491 0.92991,-3.72757 3.54342,-5.75728 6.46803,-5.02326 3.99505,1.00269 5.56952,5.50423 3.46843,17.28727 -5.48727,30.77284 -6.48809,56.29967 -0.7345,87.29476 2.82445,15.2156 10.35283,39.30704 11.87189,44.88302 1.62206,5.95401 -6.48023,7.64371 -8.8177,3.58029 z m 77.92521,-96.96337 c -3.29774,-20.29439 -6.06565,-61.52585 -0.78622,-61.67671 5.24354,-0.14984 8.64432,5.28651 8.7248,16.10659 0.69264,41.84106 8.49683,85.0115 24.93185,116.3551 3.26867,6.07244 -6.61012,9.10594 -8.38011,5.81996 -13.18127,-24.4709 -20.19052,-50.14387 -24.49032,-76.60494 z M 68.55806,126.73422 c -1.249213,-3.65609 6.267695,-8.42493 13.318986,-13.74068 C 109.32969,92.297869 122.93734,86.536807 101.20746,59.178951 95.090319,51.477482 89.610724,44.704908 91.644831,39.920586 c 1.890932,-4.447566 7.596444,0.598247 13.549849,7.713552 14.87374,17.104258 26.29992,37.429964 7.66209,54.781582 -5.92384,5.51503 -39.589002,34.47135 -44.29871,24.3185 z"
     id="path50" />
</svg>
