<?xml version="1.0" encoding="UTF-8" standalone="no"?>
<svg
   xmlns:dc="http://purl.org/dc/elements/1.1/"
   xmlns:cc="http://creativecommons.org/ns#"
   xmlns:rdf="http://www.w3.org/1999/02/22-rdf-syntax-ns#"
   xmlns:svg="http://www.w3.org/2000/svg"
   xmlns="http://www.w3.org/2000/svg"
   viewBox="0 0 300 300"
   height="300"
   width="300"
   id="svg228"
   version="1.1">
  <metadata
     id="metadata234">
    <rdf:RDF>
      <cc:Work
         rdf:about="">
        <dc:format>image/svg+xml</dc:format>
        <dc:type
           rdf:resource="http://purl.org/dc/dcmitype/StillImage" />
        <dc:title></dc:title>
      </cc:Work>
    </rdf:RDF>
  </metadata>
  <defs
     id="defs232" />
  <path
     id="path238"
     d="m 122.65777,282.94223 c -3.85496,-5.4138 -6.20349,-14.53416 -11.02547,-42.81672 -10.76225,-63.12426 -10.78664,-76.3519 -3.85284,-113.47547 6.6959,-35.849948 5.0609,-54.666428 -6.26333,-90.754798 -1.45371,-4.632711 -7.426309,-17.592678 -2.816994,-20.287334 2.973024,-1.738059 6.981184,0.338279 9.415814,5.110525 1.49649,2.933383 7.6535,22.759386 9.3325,30.051355 4.66873,19.562644 7.20949,36.729483 6.06125,52.963242 5.22485,-0.70402 10.81495,-1.37574 13.22698,-6.262943 5.28439,-10.985547 5.34112,-19.136595 0.31697,-45.553194 -2.93122,-15.412085 -2.88446,-19.353159 1.75529,-20.495445 5.99737,-1.476525 8.68765,10.650902 9.63954,14.174686 2.45843,9.333225 3.84039,21.241942 3.82653,32.974258 -0.0182,15.465245 -2.31835,23.871648 -7.95253,29.065038 -8.39585,6.31883 -13.27336,6.538 -22.73175,8.43661 -12.41956,51.07947 -9.04813,61.47457 3.08999,127.98474 5.55034,31.8421 7.3499,37.60288 4.96033,39.76541 -2.06906,1.87248 -5.31352,1.46358 -6.98228,-0.87996 z M 224.6011,271.32459 c -1.526,-2.45763 -1.30464,-2.93231 -1.623,-25.64809 -0.3403,-24.2818 0.67801,-43.09205 -13.35833,-62.0004 -3.68278,-4.96108 -7.49489,-7.44813 -12.87376,-10.75728 -11.98738,-7.37479 -18.17642,-12.94179 -21.948,-26.05189 -2.88664,-10.03402 -3.47274,-23.5392 -3.45592,-35.39294 0.0306,-21.55617 3.30285,-36.649299 6.46726,-64.344369 0,0 -8.60835,-1.417074 -13.65159,-2.665315 -3.6186,-2.479387 -4.92858,-7.786286 -1.37061,-9.639953 5.84231,-3.043792 40.42831,2.583384 53.46129,8.675946 14.81228,6.924338 18.29909,22.222749 12.72533,36.046366 -3.44248,8.537779 -10.03909,14.924382 -12.87439,23.729705 -3.7183,11.54755 -1.13402,19.09806 12.65228,31.60267 6.12442,6.21492 13.82114,15.11113 5.98849,16.64619 -3.55555,0.69682 -7.54872,-1.8506 -15.20481,-9.60359 -7.5515,-7.64705 -13.43833,-16.1755 -14.8832,-20.6479 -6.93325,-21.460923 17.9952,-38.765422 14.5833,-56.541985 -0.9144,-4.76422 -2.98191,-7.315442 -7.83344,-10.086328 -3.23291,-1.846419 -16.56409,-5.507048 -21.16446,-5.875243 -4.16366,27.547785 -6.93509,52.031086 -6.79535,71.671466 -0.42034,22.95471 6.46763,35.07748 20.43631,44.32976 4.28391,2.8303 9.5087,6.71778 11.61065,8.63885 9.11573,8.33127 15.40183,21.70182 17.80174,37.86439 2.49394,16.79584 2.83784,49.83103 0.84998,56.09877 -1.77934,5.61031 -7.03267,7.98888 -9.53977,3.95117 z M 82.592368,241.85006 c -4.233034,-36.02195 -7.305581,-59.93156 0.443336,-108.05411 1.087124,-6.75129 3.670218,-7.92264 7.640214,-6.62198 3.375084,1.27043 4.185014,1.55933 0.338194,26.63489 -4.773655,31.11714 -2.426417,62.78446 2.697533,91.29543 1.67108,9.29831 4.89887,25.2734 -1.432775,26.62235 -6.052407,1.28944 -8.512991,-19.89032 -9.686502,-29.87658 z m 66.476302,10.88705 c -10.61465,-27.96533 -14.35412,-44.74696 -16.11893,-72.28107 -0.69578,-10.85543 -2.91202,-52.6945 6.66234,-50.7018 5.75688,1.19816 3.18056,16.85306 3.35464,25.10838 0.86739,41.13314 1.98669,56.2354 11.242,81.46925 1.14866,4.41645 5.98801,16.33767 0.61552,19.29951 -2.02426,1.11595 -4.91174,-0.67114 -5.75557,-2.89427 z M 62.615594,125.27796 c -1.878841,-2.26386 0.08357,-5.31364 6.970984,-13.60804 C 83.496139,94.918847 86.823944,88.5493 81.184736,69.739851 77.210364,56.483429 76.213098,52.969854 76.405722,47.884703 c 0.364359,-9.618839 8.701386,-3.22574 10.634735,2.769891 7.25698,22.505078 8.949452,28.515794 5.913963,42.256353 -2.745064,12.425913 -11.648902,21.212113 -21.52241,32.078873 -3.0702,1.57786 -7.62257,1.72664 -8.816416,0.28814 z"
     style="fill:#000000;stroke-width:0.68982053" />
</svg>
