<?xml version="1.0" encoding="UTF-8" standalone="no"?>
<!-- Created with Inkscape (http://www.inkscape.org/) -->

<svg
   xmlns:dc="http://purl.org/dc/elements/1.1/"
   xmlns:cc="http://creativecommons.org/ns#"
   xmlns:rdf="http://www.w3.org/1999/02/22-rdf-syntax-ns#"
   xmlns:svg="http://www.w3.org/2000/svg"
   xmlns="http://www.w3.org/2000/svg"
   xmlns:sodipodi="http://sodipodi.sourceforge.net/DTD/sodipodi-0.dtd"
   xmlns:inkscape="http://www.inkscape.org/namespaces/inkscape"
   width="300"
   height="300"
   id="svg2"
   version="1.1"
   inkscape:version="0.48.4 r9939"
   sodipodi:docname="dessin.svg">
  <defs
     id="defs4" />
  <sodipodi:namedview
     id="base"
     pagecolor="#ffffff"
     bordercolor="#666666"
     borderopacity="1.0"
     inkscape:pageopacity="0.0"
     inkscape:pageshadow="2"
     inkscape:zoom="1.979899"
     inkscape:cx="218.29155"
     inkscape:cy="144.09165"
     inkscape:document-units="px"
     inkscape:current-layer="layer1"
     showgrid="false"
     inkscape:window-width="1215"
     inkscape:window-height="1000"
     inkscape:window-x="65"
     inkscape:window-y="24"
     inkscape:window-maximized="1" />
  <metadata
     id="metadata7">
    <rdf:RDF>
      <cc:Work
         rdf:about="">
        <dc:format>image/svg+xml</dc:format>
        <dc:type
           rdf:resource="http://purl.org/dc/dcmitype/StillImage" />
        <dc:title />
      </cc:Work>
    </rdf:RDF>
  </metadata>
  <g
     inkscape:label="Calque 1"
     inkscape:groupmode="layer"
     id="layer1"
     transform="translate(0,-752.36218)">
    <path
       style="fill:#000000"
       d="m 155.54253,1037.3513 c -0.80407,-1.2749 0.35359,-8.1372 2.5726,-15.2494 9.85529,-31.58782 16.06994,-76.75611 16.89499,-122.79335 l 0.55595,-31.02332 -9.21944,1.69486 c -13.89013,2.55354 -15.14117,-2.9769 -3.17578,-14.0391 l 10.08594,-9.32462 -1.77721,-19.2191 c -1.9193,-20.7551 1.10404,-36.89908 8.63744,-46.12205 14.81096,-18.13276 25.17842,-22.16022 26.88157,-10.44268 0.63093,4.34082 -2.34565,8.89151 -10.727,16.39973 -11.53241,10.33101 -11.59811,10.4925 -11.23364,27.61187 0.20168,9.47105 0.99459,17.83545 1.7621,18.58755 0.76752,0.75212 5.06806,-0.49358 9.55677,-2.76821 9.82034,-4.97646 23.63226,-5.37924 28.27998,-0.82477 3.23649,3.17157 8.24704,17.10744 7.47529,20.79108 -4.65055,22.19799 -10.52149,63.36375 -12.11644,84.95801 -0.92118,12.47192 4.39458,41.36824 9.29183,50.51015 8.70844,16.25635 12.25391,22.03795 15.41261,25.13335 3.82463,3.7479 3.92166,20.2768 0.11908,20.2768 -5.35032,0 -21.26244,-20.2981 -21.26244,-27.1232 0,-2.1859 -0.96961,-4.3685 -2.1547,-4.85027 -1.18509,-0.48179 -4.96639,-9.68711 -8.40291,-20.4563 -5.51002,-17.26714 -6.03994,-22.70018 -4.48538,-45.98915 0.96955,-14.52487 2.93027,-33.50434 4.35714,-42.17657 1.42685,-8.67225 3.35693,-23.56764 4.28906,-33.10089 2.04662,-20.93188 -0.51045,-22.98399 -17.93189,-14.39066 l -11.87493,5.85742 -0.37898,25.45258 c -0.20837,13.99892 -1.09971,29.2795 -1.98056,33.95682 -0.88084,4.67735 -2.2584,21.65576 -3.06121,37.72984 -0.80281,16.07406 -2.62685,33.21365 -4.05338,38.08798 -1.42656,4.87428 -2.59931,11.82661 -2.60615,15.44959 -0.0161,7.92351 -12.01024,37.66991 -15.67289,38.86631 -1.4275,0.4663 -3.25331,-0.1952 -4.05738,-1.4703 z m -44.18729,-18.326 C 97.649091,992.22804 92.374038,940.30166 99.808918,905.36634 c 6.592222,-30.97567 8.616302,-45.66519 10.150932,-73.6693 1.4413,-26.30104 -0.3309,-38.67083 -8.31624,-58.04621 -1.08592,-2.63487 -0.17029,-4.85587 2.39998,-5.82247 13.88937,-5.22291 21.60157,56.10301 12.69143,100.91961 -2.99836,15.0813 -6.88172,39.24633 -8.62968,53.70006 -2.91544,24.10776 -2.68953,28.55989 2.73383,53.87303 3.25154,15.17644 7.01422,28.71694 8.36147,30.09004 3.29126,3.3544 3.14012,22.469 -0.17753,22.469 -1.44498,0 -4.89545,-4.4347 -7.66773,-9.8548 z m -34.79333,0.1584 c -5.024928,-9.4034 -8.546655,-33.05899 -8.546655,-57.40806 0,-33.84061 6.360976,-56.40934 15.898937,-56.40934 3.858124,0 3.635219,4.49845 -1.405344,28.36128 -4.380073,20.73595 -3.951368,43.05434 1.272491,66.24502 1.465119,6.5042 3.042551,14.1456 3.505448,16.981 1.106946,6.7806 -7.353168,8.5399 -10.724877,2.2302 z m 64.74841,-6.7283 c -13.56072,-18.17753 -19.5525,-70.58671 -11.22838,-98.21322 3.74728,-12.43663 5.2567,-13.56467 10.2544,-7.66361 2.54418,3.00405 2.54756,5.93295 0.0161,13.45113 -4.5561,13.5282 -1.87746,51.21892 5.09878,71.7444 3.13435,9.2219 5.69882,18.3869 5.69882,20.3666 0,4.5028 -6.55824,4.7125 -9.83915,0.3147 z M 74.896114,887.25049 c -0.814528,-1.29148 0.407197,-7.50001 2.714923,-13.79675 9.280299,-25.3218 7.95286,-56.45186 -3.337679,-78.27298 -3.646373,-7.04727 -2.556672,-10.70023 3.191925,-10.70023 9.466789,0 17.278696,25.14554 17.327075,55.7737 0.03325,21.01947 -1.005843,27.66247 -5.857502,37.44831 -5.585413,11.26588 -10.743006,14.77361 -14.038742,9.54795 z m 54.971796,-2.74773 c -2.72669,-1.69074 -3.05364,-3.40441 -1.12054,-5.87263 5.70774,-7.28765 9.429,-33.00187 8.49088,-58.67224 -0.52823,-14.45376 -1.53632,-27.98316 -2.24028,-30.06538 -0.71928,-2.12763 0.71064,-4.21412 3.26458,-4.76358 7.16335,-1.54115 10.90532,17.13941 9.31065,46.48014 -1.54428,28.41316 -3.50692,40.87693 -7.78663,49.44871 -3.27146,6.55239 -4.32001,6.91659 -9.91866,3.44498 z"
       id="path3054"
       inkscape:connector-curvature="0" />
  </g>
</svg>
