<?xml version="1.0" encoding="UTF-8" standalone="no"?>
<!-- Created with Inkscape (http://www.inkscape.org/) -->

<svg
   xmlns:dc="http://purl.org/dc/elements/1.1/"
   xmlns:cc="http://creativecommons.org/ns#"
   xmlns:rdf="http://www.w3.org/1999/02/22-rdf-syntax-ns#"
   xmlns:svg="http://www.w3.org/2000/svg"
   xmlns="http://www.w3.org/2000/svg"
   xmlns:sodipodi="http://sodipodi.sourceforge.net/DTD/sodipodi-0.dtd"
   xmlns:inkscape="http://www.inkscape.org/namespaces/inkscape"
   width="300"
   height="300"
   id="svg2"
   version="1.1"
   inkscape:version="0.48.4 r9939"
   sodipodi:docname="image-seal.svg">
  <defs
     id="defs4" />
  <sodipodi:namedview
     id="base"
     pagecolor="#ffffff"
     bordercolor="#666666"
     borderopacity="1.0"
     inkscape:pageopacity="0.0"
     inkscape:pageshadow="2"
     inkscape:zoom="1.979899"
     inkscape:cx="200.43343"
     inkscape:cy="122.13442"
     inkscape:document-units="px"
     inkscape:current-layer="layer1"
     showgrid="false"
     inkscape:window-width="1215"
     inkscape:window-height="1000"
     inkscape:window-x="65"
     inkscape:window-y="24"
     inkscape:window-maximized="1" />
  <metadata
     id="metadata7">
    <rdf:RDF>
      <cc:Work
         rdf:about="">
        <dc:format>image/svg+xml</dc:format>
        <dc:type
           rdf:resource="http://purl.org/dc/dcmitype/StillImage" />
        <dc:title />
      </cc:Work>
    </rdf:RDF>
  </metadata>
  <g
     inkscape:label="Calque 1"
     inkscape:groupmode="layer"
     id="layer1"
     transform="translate(0,-752.36218)">
    <path
       style="fill:#000000"
       d="m 188.39237,1031.8998 c -2.77499,-18.561 -1.50222,-37.56925 -1.73804,-56.32483 0.39072,-19.98793 0.21308,-40.06222 2.47218,-59.94579 4.66801,-5.20771 -4.77189,-8.89806 -1.91227,-16.6478 0.11945,-17.58206 -0.53472,-35.34595 1.94816,-52.78089 7.35119,-10.7506 11.21707,8.7278 9.58734,14.84147 0.80904,54.49824 1.04282,109.04744 -0.92144,163.52144 0.55975,4.9607 -4.32663,12.4292 -9.43593,7.3364 z m -81.22299,-26.7806 c -6.68377,-20.58135 -10.543188,-42.06724 -12.700849,-63.5442 0.960273,-28.93995 11.637619,-56.24608 17.074619,-84.38863 2.82455,-25.09957 2.92015,-50.87426 -2.37251,-75.6568 -2.93479,-6.64469 -9.674419,-28.31026 3.20343,-15.53772 10.91374,12.68396 11.64424,29.97331 11.24245,45.85844 -0.4242,19.78598 0.75398,40.21213 -6.10503,59.11778 -9.78121,35.50519 -15.60763,73.58454 -5.67565,109.76198 1.83409,11.85087 7.56257,22.63265 11.13141,33.64515 2.1829,9.4208 -11.06144,16.8299 -11.38525,4.1177 -1.52722,-4.4391 -2.98619,-8.9013 -4.41262,-13.3737 z m -27.361951,7.1534 c -6.396391,-14.60925 -6.663909,-30.6344 -8.730488,-46.1817 -2.786074,-12.38954 0.531336,-25.22443 1.354381,-37.73696 2.757234,-9.79184 -0.582205,-25.79252 9.028592,-30.85764 3.473044,9.88599 1.012111,21.05735 1.135088,31.42784 -1.46053,22.8927 0.287136,45.80096 3.672202,68.44457 0.921063,4.73219 2.24314,26.51339 -6.459775,14.90389 z m 53.458941,-18.73748 c -12.15488,-28.5681 -13.12863,-61.71929 -3.84957,-91.26774 0.0845,-9.63879 12.86952,-9.96409 9.45198,0.42171 -4.82755,16.96 -7.47617,34.72795 -5.0568,52.335 1.07372,13.91537 6.5244,26.80305 11.83295,39.46481 3.811,9.3232 -7.85924,12.6462 -10.20286,3.14647 l -1.11434,-1.97897 -1.06136,-2.12128 0,0 z M 78.809428,872.02319 c -0.554561,-10.97555 7.278546,-19.855 7.773725,-30.82649 3.90771,-18.49773 1.719448,-37.8755 -5.751593,-55.20952 -5.767525,-12.81171 12.165648,-10.24165 12.703215,-0.11162 7.493575,22.2372 6.403778,46.77301 1.036991,69.37475 -3.615619,8.50705 -4.964191,22.78779 -13.963495,26.19017 -2.001825,-2.60911 -1.634842,-6.30738 -1.798843,-9.41729 z m 54.724922,-3.47558 c 3.25004,-24.37075 9.40848,-49.05001 6.03857,-73.73068 -1.49429,-7.18621 -8.05587,-27.93473 5.87736,-21.18894 7.18563,9.64236 4.66602,22.90495 5.50345,34.21449 -0.58119,21.09092 0.13316,43.04765 -7.43987,63.07036 -2.32561,7.85487 -14.10081,7.6564 -9.97951,-2.36523 z m 22.41075,-18.08316 c 4.15433,-15.19074 19.52473,-22.93607 28.79779,-34.53868 5.82021,-12.84694 1.7541,-27.97968 6.61652,-41.05071 12.56837,-6.58459 10.08424,12.54471 10.67683,20.00793 0.22244,6.28259 0.44488,12.56517 0.66732,18.84776 11.62047,8.93224 23.80432,17.31034 34.15314,27.72468 -0.66925,11.02988 -15.66307,7.61119 -19.55226,-0.62367 -8.75225,-6.64857 -21.63692,-19.82544 -30.83285,-6.8096 -9.06349,7.4047 -16.62559,16.93559 -27.1678,22.34664 -4.45793,2.2626 -4.27673,-3.33222 -3.35869,-5.90435 z"
       id="path3093"
       inkscape:connector-curvature="0" />
  </g>
</svg>
