<?xml version="1.0" encoding="UTF-8" standalone="no"?>
<!-- Created with Inkscape (http://www.inkscape.org/) -->

<svg
   xmlns:dc="http://purl.org/dc/elements/1.1/"
   xmlns:cc="http://creativecommons.org/ns#"
   xmlns:rdf="http://www.w3.org/1999/02/22-rdf-syntax-ns#"
   xmlns:svg="http://www.w3.org/2000/svg"
   xmlns="http://www.w3.org/2000/svg"
   xmlns:sodipodi="http://sodipodi.sourceforge.net/DTD/sodipodi-0.dtd"
   xmlns:inkscape="http://www.inkscape.org/namespaces/inkscape"
   width="300"
   height="300"
   id="svg2"
   version="1.1"
   inkscape:version="0.48.4 r9939"
   sodipodi:docname="image-seal.svg">
  <defs
     id="defs4" />
  <sodipodi:namedview
     id="base"
     pagecolor="#ffffff"
     bordercolor="#666666"
     borderopacity="1.0"
     inkscape:pageopacity="0.0"
     inkscape:pageshadow="2"
     inkscape:zoom="1.979899"
     inkscape:cx="118.51252"
     inkscape:cy="162.88219"
     inkscape:document-units="px"
     inkscape:current-layer="layer1"
     showgrid="false"
     inkscape:window-width="1215"
     inkscape:window-height="1000"
     inkscape:window-x="65"
     inkscape:window-y="24"
     inkscape:window-maximized="1" />
  <metadata
     id="metadata7">
    <rdf:RDF>
      <cc:Work
         rdf:about="">
        <dc:format>image/svg+xml</dc:format>
        <dc:type
           rdf:resource="http://purl.org/dc/dcmitype/StillImage" />
        <dc:title />
      </cc:Work>
    </rdf:RDF>
  </metadata>
  <g
     inkscape:label="Calque 1"
     inkscape:groupmode="layer"
     id="layer1"
     transform="translate(0,-752.36218)">
    <path
       style="fill:#000000"
       d="m 223.16959,1033.6576 c -1.39912,-2.6142 -3.04773,-12.8583 -3.66361,-22.7646 -0.61588,-9.9064 -1.73084,-19.03906 -2.47772,-20.29501 -0.74687,-1.25592 -1.49109,-10.8596 -1.65382,-21.34149 -0.16264,-10.4819 -1.69606,-27.5487 -3.40743,-37.92625 -2.73849,-16.60614 -3.9797,-19.348 -10.35268,-22.86959 -18.49287,-10.21892 -24.43223,-22.17946 -19.42872,-39.12529 2.68996,-9.11037 4.98632,-11.8074 13.0148,-15.28557 5.36169,-2.32288 12.02765,-4.22339 14.81322,-4.22339 2.80792,0 5.0647,-1.69842 5.0647,-3.8116 0,-2.09637 1.14348,-3.81159 2.54106,-3.81159 3.55084,0 3.1795,-24.55483 -0.52627,-34.80302 -2.44793,-6.76955 -5.09553,-9.02876 -13.10995,-11.18683 -11.07503,-2.9822 -25.37483,-1.24957 -33.65643,4.07797 -7.39294,4.75588 -8.51565,14.34224 -10.0661,85.95002 -1.95586,90.33183 -4.4851,127.73624 -8.9553,132.43884 -1.26211,1.3277 -2.29472,4.4723 -2.29472,6.9879 0,2.545 -1.84837,4.5739 -4.16709,4.5739 -4.30028,0 -4.29803,-1.0647 0.0746,-35.57485 1.63907,-12.9358 4.06114,-61.00598 4.48123,-88.93729 0.19973,-13.27708 0.96325,-25.20831 1.69682,-26.51386 0.73358,-1.30558 1.42201,-19.65329 1.52985,-40.77271 0.19515,-38.23763 0.22489,-38.42786 7.07352,-45.27621 6.35762,-6.35749 8.5241,-6.89505 28.66589,-7.11281 22.90028,-0.24751 31.38565,2.69005 36.75624,12.72508 3.30878,6.1825 5.25171,43.2071 2.53978,48.39775 -1.12638,2.15593 -2.57138,5.67097 -3.21109,7.81127 -0.66297,2.21801 -7.02582,5.36374 -14.79663,7.31531 -16.58225,4.16447 -19.98617,6.65625 -19.98617,14.63056 0,6.09067 5.091,12.28594 18.69904,22.75507 8.33462,6.4121 13.29628,24.53429 17.3075,63.21452 6.08144,58.64327 5.14663,85.05037 -2.50461,70.75377 z M 94.172044,1014.3604 c -3.211446,-10.0959 -4.648378,-63.83103 -2.327303,-87.03149 0.699103,-6.98792 3.509845,-25.2836 6.24609,-40.65704 7.138469,-40.10699 7.197469,-72.70181 0.161005,-88.93447 -3.028436,-6.98639 -8.283581,-16.34382 -11.678109,-20.79426 -7.112508,-9.32497 -7.511174,-10.97188 -2.655952,-10.97188 5.240589,0 21.551925,19.15436 23.207375,27.25238 0.79288,3.87862 2.30353,10.48244 3.357,14.67519 4.67201,18.59452 0.95928,66.93559 -7.5137,97.83103 -3.582872,13.06436 -4.32045,68.55673 -1.27501,95.92514 1.74862,15.7144 1.48013,18.4227 -1.826358,18.4227 -2.131998,0 -4.694762,-2.5728 -5.695038,-5.7173 z m -28.324822,-8.1874 c -5.193226,-5.9047 -7.936233,-55.17823 -4.389164,-78.84409 2.527843,-16.86566 10.174433,-34.30439 15.041903,-34.30439 4.862217,0 4.976432,5.72224 0.322015,16.13291 -1.968934,4.40397 -4.375758,11.43766 -5.348492,15.63042 -2.244478,9.6743 -2.216621,51.37841 0.04712,70.51457 1.727901,14.60658 0.195307,17.54318 -5.673364,10.87058 z m 57.064868,-11.96523 c -8.01929,-19.6384 -10.12421,-37.4325 -6.97439,-58.95888 4.60254,-31.45452 8.59594,-42.03589 15.92074,-42.18545 1.04819,-0.0203 1.9058,3.39153 1.9058,7.58429 0,4.19276 -0.94166,7.62319 -2.09256,7.62319 -2.91084,0 -7.33132,26.83355 -6.69773,40.65706 0.28827,6.28913 1.8414,18.29566 3.4514,26.68117 4.28751,22.3311 4.38083,24.75315 0.99961,25.94825 -1.6878,0.5966 -4.6186,-2.71073 -6.51287,-7.34963 z M 69.186473,873.62201 c -0.809443,-2.10938 -0.272211,-6.07651 1.193851,-8.81589 1.466063,-2.73936 2.725264,-14.08294 2.798226,-25.20795 0.103629,-15.80136 -1.037623,-22.47253 -5.215744,-30.48842 -2.941624,-5.64362 -5.348405,-10.79767 -5.348405,-11.45341 0,-3.44767 7.495915,-0.3848 12.752742,5.21082 5.189685,5.52419 6.166864,9.57042 7.118565,29.47609 0.704098,14.72679 -0.06417,26.60984 -2.123856,32.85079 -3.487974,10.56866 -8.812901,14.58447 -11.175379,8.42797 z m 59.050917,-5.37286 c -0.57061,-2.44578 -0.4181,-17.02515 0.33889,-32.3986 0.92319,-18.74841 0.41764,-29.62503 -1.53539,-33.03385 -4.82525,-8.42197 -6.57543,-16.51692 -3.57104,-16.51692 2.86995,0 7.81512,10.20167 12.3176,25.41065 3.29131,11.11772 2.33659,44.67203 -1.53638,53.99765 -3.38139,8.14198 -4.58802,8.65184 -6.01368,2.54107 z m 45.40357,-38.25412 c -2.67581,-0.5394 -4.25505,-2.69182 -3.78465,-5.15827 1.17406,-6.15572 36.9155,-7.69947 39.22002,-1.694 0.85125,2.21828 1.12059,4.41859 0.59852,4.88953 -1.52218,1.37319 -30.99482,2.97853 -36.03389,1.96274 z"
       id="path3028"
       inkscape:connector-curvature="0" />
  </g>
</svg>
