<?xml version="1.0" encoding="UTF-8" standalone="no"?>
<!-- Created with Inkscape (http://www.inkscape.org/) -->

<svg
   xmlns:dc="http://purl.org/dc/elements/1.1/"
   xmlns:cc="http://creativecommons.org/ns#"
   xmlns:rdf="http://www.w3.org/1999/02/22-rdf-syntax-ns#"
   xmlns:svg="http://www.w3.org/2000/svg"
   xmlns="http://www.w3.org/2000/svg"
   xmlns:sodipodi="http://sodipodi.sourceforge.net/DTD/sodipodi-0.dtd"
   xmlns:inkscape="http://www.inkscape.org/namespaces/inkscape"
   width="300"
   height="300"
   id="svg2"
   version="1.1"
   inkscape:version="0.91 r13725"
   sodipodi:docname="image-seal.svg">
  <defs
     id="defs4" />
  <sodipodi:namedview
     id="base"
     pagecolor="#ffffff"
     bordercolor="#666666"
     borderopacity="1.0"
     inkscape:pageopacity="0.0"
     inkscape:pageshadow="2"
     inkscape:zoom="2.7366667"
     inkscape:cx="150"
     inkscape:cy="150"
     inkscape:document-units="px"
     inkscape:current-layer="layer1"
     showgrid="false"
     inkscape:window-width="1231"
     inkscape:window-height="1000"
     inkscape:window-x="49"
     inkscape:window-y="24"
     inkscape:window-maximized="1"
     showguides="true"
     inkscape:guide-bbox="true" />
  <metadata
     id="metadata7">
    <rdf:RDF>
      <cc:Work
         rdf:about="">
        <dc:format>image/svg+xml</dc:format>
        <dc:type
           rdf:resource="http://purl.org/dc/dcmitype/StillImage" />
        <dc:title />
      </cc:Work>
    </rdf:RDF>
  </metadata>
  <g
     inkscape:label="Calque 1"
     inkscape:groupmode="layer"
     id="layer1"
     transform="translate(0,-752.36218)">
    <path
       style="fill:#000000"
       d="m 196.37081,1041.4989 c -1.92905,-4.2339 -3.08806,-29.6313 -3.22779,-70.73094 -0.20418,-60.03054 -1.10416,-76.68263 -4.43619,-82.07417 -0.7499,-1.21324 -6.13422,-2.20589 -11.96516,-2.20589 -8.57781,0 -10.6017,-0.96441 -10.6017,-5.05097 0,-6.85334 5.80539,-11.17851 12.61445,-9.39792 3.08503,0.80676 6.51019,0 7.61142,-1.77279 2.26895,-3.67126 1.86503,-76.00722 -0.45821,-82.06149 -1.01081,-2.63417 -5.4321,-3.94143 -13.33018,-3.94143 -9.76168,0 -11.81771,-0.87754 -11.81771,-5.04397 0,-6.00265 7.35266,-7.84933 40.35176,-10.13469 22.03717,-1.52619 23.09748,-1.33376 29.2525,5.30857 5.80003,6.25925 6.22746,8.44939 4.65455,23.84931 -2.87428,28.14156 -2.88965,29.54446 -0.59845,54.61877 2.78331,30.45953 8.47888,48.52152 18.24293,57.85273 8.58661,8.20566 11.27382,25.42486 3.50242,22.4426 -6.34079,-2.43297 -19.12143,-22.54402 -24.20597,-38.08913 -4.46705,-13.65719 -7.32887,-16.67927 -10.6721,-11.26971 -0.91442,1.47929 -5.16502,2.69012 -9.44581,2.69012 -7.66858,0 -7.79502,0.24749 -8.58411,16.81323 -0.44051,9.24728 -0.0134,33.761 0.94856,54.47491 3.76388,81.02636 3.70179,88.68646 -0.72555,89.53896 -2.25493,0.4344 -5.45429,-2.1831 -7.10966,-5.8161 z m 28.25173,-210.22367 c 0.30901,-41.3682 0.25045,-41.80217 -6.1997,-46.02853 -4.09746,-2.68476 -9.06075,-3.62684 -13.38702,-2.541 -6.83368,1.71513 -6.87261,1.88655 -6.41798,28.27254 0.25153,14.6008 1.2182,33.62921 2.14806,42.28533 1.65962,15.44938 1.86355,15.76896 11.10607,17.40186 5.17848,0.91491 10.09563,1.82283 10.92699,2.01759 0.83138,0.19369 1.65197,-18.43871 1.82358,-41.40779 z M 123.62175,1029.7367 c -10.61584,-23.4842 -22.23008,-71.42291 -19.854,-81.9488 0.23807,-1.0548 1.14324,-11.94977 2.01145,-24.21109 0.86818,-12.26128 2.69604,-25.31965 4.06184,-29.01856 1.36582,-3.69891 4.23585,-21.88868 6.37783,-40.42136 4.64417,-40.18185 3.46162,-47.75351 -12.23218,-78.3205 -9.237429,-17.99181 -9.301049,-18.45426 -2.53877,-18.45426 5.79489,0 19.8637,18.57652 22.41078,29.59129 0.85535,3.69891 2.82107,11.5675 4.36829,17.48576 3.95154,15.1151 3.52699,37.14635 -1.14042,59.18159 -2.19365,10.35647 -3.98847,21.91725 -3.98847,25.69067 0,3.77343 -1.35666,8.21751 -3.01479,9.87542 -1.91472,1.91483 -3.00919,15.60834 -2.99946,37.52717 0.0134,29.90254 0.9374,37.25248 6.91842,55.02581 3.79673,11.28206 9.41337,25.32906 12.48142,31.21536 6.00359,11.518 4.99504,19.5595 -2.45309,19.5595 -2.92249,0 -6.76487,-4.7171 -10.40885,-12.778 z m -33.474259,-8.0704 c -11.26077,-25.84878 -16.07283,-69.3703 -10.96653,-99.18436 3.89454,-22.73903 4.93599,-25.23357 10.53385,-25.23357 6.3444,0 7.45607,7.40697 2.94232,19.60476 -7.83989,21.18605 -6.34001,55.41537 3.43776,78.45435 8.677399,20.44592 9.413599,36.44682 1.67699,36.44682 -1.77631,0 -5.20729,-4.5396 -7.62439,-10.088 z m 61.104329,-20.1759 c -5.40663,-8.93949 -5.91178,-10.42174 -13.06512,-38.33413 -4.68813,-18.29334 -5.69291,-51.29653 -1.63802,-53.80238 1.47957,-0.91464 2.69012,-4.01231 2.69012,-6.88427 0,-3.42802 1.84795,-5.22125 5.38024,-5.22125 4.19001,0 5.38023,1.79323 5.38023,8.10667 0,4.45886 -1.44236,10.4164 -3.20527,13.23941 -2.48261,3.97518 -2.46983,9.86304 0.0568,26.11434 1.79409,11.54007 4.447,22.16684 5.89539,23.6152 1.44839,1.44835 2.63341,5.41789 2.63341,8.82089 0,3.403 1.21055,6.18727 2.69012,6.18727 1.47956,0 2.69011,2.179 2.69011,4.84221 0,2.66322 1.08407,5.99224 2.40906,7.39782 2.67209,2.83458 -0.90337,14.66112 -4.43248,14.66112 -1.20824,0 -4.57627,-3.9343 -7.4845,-8.7429 z m -5.31169,-120.42175 c -1.02413,-1.65711 -0.40363,-10.74244 1.37895,-20.18957 4.25431,-22.547 -0.17082,-58.87314 -9.43384,-77.44108 -5.7431,-11.5123 -5.15771,-15.8509 2.00088,-14.82997 11.35986,1.62009 17.99307,25.26894 19.85931,70.80268 0.86108,21.00882 0.20875,31.48015 -2.24907,36.1042 -4.0054,7.53529 -8.8829,9.87945 -11.55623,5.55374 z m -65.020299,-4.28078 c -0.91171,-2.37591 0.95437,-11.75775 4.14684,-20.84852 8.4602,-24.09099 6.84043,-40.77766 -6.45375,-66.48576 -5.22004,-10.09448 -5.0097,-11.09709 2.11583,-10.08509 10.15215,1.44182 19.316359,23.6065 20.376079,49.28174 0.77241,18.71482 -0.0414,23.53785 -6.242229,36.98911 -7.29194,15.81856 -11.0099,18.79141 -13.94277,11.14852 z"
       id="path3397"
       inkscape:connector-curvature="0" />
  </g>
</svg>
