<?xml version="1.0" encoding="UTF-8" standalone="no"?>
<!-- Created with Inkscape (http://www.inkscape.org/) -->

<svg
   xmlns:dc="http://purl.org/dc/elements/1.1/"
   xmlns:cc="http://creativecommons.org/ns#"
   xmlns:rdf="http://www.w3.org/1999/02/22-rdf-syntax-ns#"
   xmlns:svg="http://www.w3.org/2000/svg"
   xmlns="http://www.w3.org/2000/svg"
   xmlns:sodipodi="http://sodipodi.sourceforge.net/DTD/sodipodi-0.dtd"
   xmlns:inkscape="http://www.inkscape.org/namespaces/inkscape"
   width="300"
   height="300"
   id="svg2"
   version="1.1"
   inkscape:version="0.92.4 (5da689c313, 2019-01-14)"
   sodipodi:docname="image-bigseal.svg">
  <defs
     id="defs4" />
  <sodipodi:namedview
     id="base"
     pagecolor="#ffffff"
     bordercolor="#666666"
     borderopacity="1.0"
     inkscape:pageopacity="0.0"
     inkscape:pageshadow="2"
     inkscape:zoom="1"
     inkscape:cx="38.424632"
     inkscape:cy="210.4578"
     inkscape:document-units="px"
     inkscape:current-layer="layer1"
     showgrid="false"
     inkscape:window-width="1872"
     inkscape:window-height="1016"
     inkscape:window-x="48"
     inkscape:window-y="27"
     inkscape:window-maximized="1" />
  <metadata
     id="metadata7">
    <rdf:RDF>
      <cc:Work
         rdf:about="">
        <dc:format>image/svg+xml</dc:format>
        <dc:type
           rdf:resource="http://purl.org/dc/dcmitype/StillImage" />
        <dc:title />
      </cc:Work>
    </rdf:RDF>
  </metadata>
  <g
     inkscape:label="Calque 1"
     inkscape:groupmode="layer"
     id="layer1"
     transform="translate(0,-752.36218)">
    <path
       style="fill:#000000;stroke-width:5.88463497"
       d="m 155.7643,921.75306 c 0,-113.211 0.69716,-120.98339 11.36531,-126.71004 14.5618,-7.81671 76.7716,-7.98474 76.7716,-0.20745 0,3.24143 -13.00432,5.8935 -28.8984,5.8935 -50.39458,0 -47.48692,-7.61658 -47.48692,124.39383 0,74.23052 -2.15554,117.2393 -5.8758,117.2393 -3.72579,0 -5.87579,-44.13209 -5.87579,-120.60926 z m 83.16193,99.25824 c -3.20671,-12.5676 -7.55856,-34.78451 -9.67068,-49.3709 -3.98051,-27.48978 -10.50879,-48.50709 -10.50879,-48.50709 0,0 -5.68709,2.90101 -9.74642,4.19328 -12.11683,3.85729 -29.73286,-1.68718 -29.73286,-9.35815 0,-2.89465 7.93231,-5.26295 17.62737,-5.26295 7.70498,0 20.00876,-4.06726 20.00876,-4.06726 0,0 -2.38138,-4.28055 -2.38138,-9.48777 0,-16.72495 -10.23897,-27.64193 -26.14728,-27.87862 -4.475,-0.0666 -7.31596,1.92882 -8.15412,-0.67426 -0.84512,-16.52617 40.09588,-2.60942 43.72824,10.0458 2.16226,8.64103 6.42517,18.70551 6.42517,18.70551 0,0 7.65117,-18.13118 7.65117,-33.50861 0,-25.03354 -6.13133,-29.75016 -38.67324,-29.75016 -21.72851,0 -27.04723,-8.77623 -8.83278,-14.57466 12.7182,-4.04876 40.86931,1.49082 51.91286,10.21542 9.95236,7.86257 9.2307,50.68832 -1.19185,70.72901 -2.84521,5.47077 -8.24823,15.10614 -8.24823,15.10614 0,0 4.73065,27.12064 10.72372,58.5625 10.64189,55.83137 6.91504,90.75507 -4.78966,44.88277 z m -117.02403,8.2331 C 104.592,1008.1347 90.402975,951.90517 98.265172,871.85834 100.41415,849.97917 84.093235,766.87301 90.237792,762.4215 c 14.764648,-2.10708 24.369718,52.59806 24.395938,56.64103 0,15.14895 0.32181,28.22652 0.32181,28.22652 0,0 10.53811,-0.3676 13.94609,-9.27541 2.07544,-5.42484 2.05811,-21.33726 -0.0412,-35.36094 -4.00359,-26.77991 4.99142,-36.39649 11.4464,-12.23713 8.80534,32.95587 0.047,69.24851 -16.70853,69.24851 -2.63146,0 -9.5978,1.71835 -9.5978,1.71835 0,0 -6.3557,95.09932 9.90805,143.14787 9.50127,28.0697 8.71133,37.7874 -2.00894,24.7141 z m -39.396189,-20.3735 c -7.93033,-19.70951 -11.17153,-135.37987 -3.919512,-139.87536 4.768565,-2.956 6.677609,9.81732 6.701054,44.83549 0.01765,26.93301 2.873903,59.23235 6.346447,71.77629 6.691763,24.17268 -0.938136,43.61808 -9.127989,23.26358 z m 44.482519,-45.08011 c -7.72801,-44.51105 -8.43558,-90.43124 -1.46002,-94.75535 2.76046,-1.71118 6.68825,17.35981 8.7285,42.37996 2.04019,25.02023 5.41583,55.43653 7.50138,67.59186 2.34621,13.67472 1.48865,22.10054 -2.24948,22.10054 -3.32282,0 -8.957,-16.79263 -12.52038,-37.31701 z M 50,860.61004 c 0,-2.72108 6.610267,-7.96835 14.689487,-11.66062 15.795132,-7.21841 18.951255,-23.32755 8.43264,-43.04092 -10.162532,-19.04606 -2.602677,-27.01258 8.909882,-9.38921 14.445344,22.11272 13.420957,45.38123 -2.569485,58.36854 C 65.731617,866.03989 50,869.09531 50,860.61004 Z"
       id="path104"
       inkscape:connector-curvature="0"
       sodipodi:nodetypes="ccssssccccccsscsscccssccccsccsccccccsccccscccsccccscscsccs" />
  </g>
</svg>
