<?xml version="1.0" encoding="UTF-8" standalone="no"?>
<!-- Created with Inkscape (http://www.inkscape.org/) -->

<svg
   xmlns:dc="http://purl.org/dc/elements/1.1/"
   xmlns:cc="http://creativecommons.org/ns#"
   xmlns:rdf="http://www.w3.org/1999/02/22-rdf-syntax-ns#"
   xmlns:svg="http://www.w3.org/2000/svg"
   xmlns="http://www.w3.org/2000/svg"
   xmlns:sodipodi="http://sodipodi.sourceforge.net/DTD/sodipodi-0.dtd"
   xmlns:inkscape="http://www.inkscape.org/namespaces/inkscape"
   width="300"
   height="300"
   viewBox="0 0 300 300"
   id="svg2"
   version="1.1"
   inkscape:version="0.91 r13725"
   sodipodi:docname="決-seal.svg">
  <defs
     id="defs4" />
  <sodipodi:namedview
     id="base"
     pagecolor="#ffffff"
     bordercolor="#666666"
     borderopacity="1.0"
     inkscape:pageopacity="0.0"
     inkscape:pageshadow="2"
     inkscape:zoom="1.24"
     inkscape:cx="183.73753"
     inkscape:cy="152.60298"
     inkscape:document-units="px"
     inkscape:current-layer="layer1"
     showgrid="false"
     units="px"
     inkscape:window-width="924"
     inkscape:window-height="649"
     inkscape:window-x="8"
     inkscape:window-y="30"
     inkscape:window-maximized="0" />
  <metadata
     id="metadata7">
    <rdf:RDF>
      <cc:Work
         rdf:about="">
        <dc:format>image/svg+xml</dc:format>
        <dc:type
           rdf:resource="http://purl.org/dc/dcmitype/StillImage" />
        <dc:title></dc:title>
      </cc:Work>
    </rdf:RDF>
  </metadata>
  <g
     inkscape:label="Layer 1"
     inkscape:groupmode="layer"
     id="layer1"
     transform="translate(0,-752.36216)">
    <path
       style="fill:#000000"
       d="m 214.95105,1030.6181 c -1.35045,-1.694 -3.8978,-7.4 -5.66078,-12.68 -1.76298,-5.28 -3.96504,-10.68 -4.89347,-12 -0.92843,-1.32 -2.97602,-11.57995 -4.5502,-22.79995 -1.57419,-11.22 -3.92375,-23.28169 -5.22126,-26.80375 l -2.3591,-6.40375 -16.45857,7.00375 c -16.73198,7.1201 -26.32167,8.84049 -26.32167,4.72213 0,-1.2549 9.72,-6.885 21.6,-12.51134 20.35133,-9.63834 21.6,-10.65958 21.6,-17.66583 0,-4.2417 -2.16964,-9.76495 -5.05058,-12.85728 -4.2973,-4.6126 -6.53454,-5.17547 -15,-3.77384 -5.47218,0.90603 -11.86174,2.65185 -14.19902,3.87961 -4.87445,2.5605 -8.9504,0.79605 -8.9504,-3.87457 0,-4.23414 5.41141,-6.23569 22.8,-8.43313 18.80557,-2.37651 23.54658,-0.36399 27.52247,11.68307 1.7852,5.40921 4.08921,9.83493 5.12003,9.83493 6.14226,0 11.26963,-22.10333 8.21184,-35.4 -2.1953,-9.54614 -2.88763,-10.21703 -10.8,-10.46566 -10.95164,-0.34413 -17.99773,0.0718 -31.25434,1.8449 -17.98292,2.40526 -20.4,2.21815 -20.4,-1.57924 0,-2.37763 4.68573,-4.786 13.8,-7.0929 l 13.8,-3.4929 0,-13.9071 c 0,-12.16615 -0.58315,-13.9071 -4.65836,-13.9071 -2.5621,0 -5.30067,1.03927 -6.08571,2.3095 -1.44705,2.34137 -13.27453,-1.67468 -13.23721,-4.49474 0.0103,-0.77812 2.91861,-2.76145 6.46291,-4.40741 4.93375,-2.29122 6.85533,-2.32739 8.19835,-0.15432 2.63432,4.26241 9.32002,-2.15829 9.32002,-8.95061 0,-10.80495 -2.35961,-13.10242 -13.45677,-13.10242 -7.71148,0 -10.54323,-0.95462 -10.54323,-3.55428 0,-3.29628 3.31655,-4.69991 15.6,-6.60219 4.19835,-0.65018 4.8,-2.59114 4.8,-15.48511 0,-8.10796 0.72,-15.4655 1.6,-16.35008 0.88,-0.88459 3.85,0.64166 6.6,3.39166 3.61959,3.61959 5,8.05258 5,16.05677 0,9.09631 0.67312,10.79848 3.79629,9.6 2.08796,-0.80122 5.86796,-1.45677 8.4,-1.45677 3.51523,0 4.60371,-1.70233 4.60371,-7.2 0,-4.51557 1.23265,-7.2 3.30613,-7.2 5.87346,0 8.02373,5.62879 9.38448,24.56586 1.61545,22.4817 -1.24426,27.41383 -17.49061,30.16596 l -10.8,1.82952 0,13.11933 c 0,12.35207 0.3509,13.12851 6,13.27638 21.04318,0.55082 31.2,10.2251 31.2,29.71773 0,5.3847 -1.01477,11.6657 -2.25503,13.95779 -1.24027,2.29208 -2.89152,7.17996 -3.66945,10.86194 -0.77793,3.68198 -4.5429,9.96817 -8.3666,13.96931 -5.75654,6.02367 -6.76086,8.79352 -5.83968,16.10549 1.21212,9.62127 5.28505,31.68145 7.61236,41.23069 0.80426,3.29996 1.53619,7.20365 1.62652,8.67465 0.0903,1.4711 1.51402,4.3012 3.16378,6.289 3.84772,4.6363 4.95034,21.4201 1.4883,22.6548 -1.45188,0.5178 -3.7447,-0.4446 -5.09515,-2.1385 z M 202.286,829.53815 c 2.66667,-2.66667 4.8,-8 4.8,-12 0,-6.8 -0.53333,-7.2 -9.6,-7.2 l -9.6,0 0,12 c 0,10.4 0.64,12 4.8,12 2.64,0 6.96,-2.16 9.6,-4.8 z m -80.4,184.05885 c -2.64,-1.5724 -5.05759,-2.9365 -5.37242,-3.0313 -0.31483,-0.095 -3.85245,-12.51479 -7.86138,-27.59997 -6.2776,-23.62188 -7.30596,-31.74822 -7.41139,-58.56631 -0.0794,-20.20627 0.78473,-31.44112 2.46139,-32 1.42109,-0.4737 2.5838,-4.33527 2.5838,-8.58127 0,-4.246 1.16492,-8.88492 2.58871,-10.30871 3.33656,-3.33656 3.25332,-55.18855 -0.10863,-67.67393 -2.46673,-9.16076 -9.107282,-19.47174 -17.350733,-26.94101 -2.33312,-2.11401 -3.54168,-4.54401 -2.68569,-5.4 7.319901,-7.3199 22.393063,10.38539 29.929093,35.15542 5.83934,19.19323 4.90453,38.98071 -3.31114,70.08823 -7.14377,27.04891 -7.06521,67.9614 0.17523,91.25774 2.86189,9.20825 6.46217,21.06226 8.00062,26.34226 1.53844,5.27995 3.68938,10.62595 4.77986,11.87995 2.47576,2.847 2.6005,8.5685 0.18269,8.3789 -0.99,-0.077 -3.96,-1.4276 -6.6,-3 z M 80.932077,993.76389 c -7.93335,-27.28978 -4.31808,-99.13564 5.17173,-102.77723 4.89748,-1.87933 6.85262,4.47083 3.81615,12.39459 -4.10643,10.71584 -5.35218,43.50308 -2.48325,65.3569 3.66591,27.92462 3.74927,36.58095 0.36342,37.73785 -1.76744,0.6039 -4.42919,-4.3228 -6.86805,-12.71211 z m 52.102383,-7.62574 c -8.18164,-20.50167 -10.83299,-83.65674 -3.89693,-92.8248 1.92438,-2.54364 4.28083,-3.84284 5.23654,-2.88713 0.95572,0.95572 1.4264,13.92881 1.04596,28.82908 -0.46094,18.05296 0.59451,33.31839 3.16355,45.75591 3.66395,17.73833 3.31518,27.72694 -0.96814,27.72694 -1.07091,0 -3.13235,-2.97 -4.58098,-6.6 z m -49.666353,-116.4 c 4.66281,-15.33499 5.61992,-22.67525 4.56912,-35.04134 -1.69768,-19.97875 -2.49185,-22.50693 -9.38628,-29.88044 -6.25578,-6.69049 -6.48433,-13.67822 -0.44736,-13.67822 1.74253,0 6.87075,6.10913 11.39605,13.57584 7.723351,12.74347 8.220061,14.84167 8.101191,34.22141 -0.12108,19.74206 -2.89261,30.2385 -9.074121,34.366 -4.85461,3.24151 -6.81578,1.88685 -5.1586,-3.56325 z m 50.864583,-1.23904 c -0.62512,-1.01147 -0.22298,-6.7293 0.89364,-12.7063 4.28189,-22.9198 2.21134,-51.08527 -5.05502,-68.76306 -3.65471,-8.89126 -1.71427,-12.47915 4.12846,-7.6336 6.297,5.22228 10.2757,17.10045 12.12262,36.19129 2.09259,21.63026 2.09044,22.00211 -0.21214,36.75071 -2.31334,14.81757 -7.9597,22.50018 -11.87755,16.16096 z"
       id="path3760"
       inkscape:connector-curvature="0" />
  </g>
</svg>
