<?xml version="1.0" encoding="UTF-8" standalone="no"?>
<svg
   xmlns:dc="http://purl.org/dc/elements/1.1/"
   xmlns:cc="http://creativecommons.org/ns#"
   xmlns:rdf="http://www.w3.org/1999/02/22-rdf-syntax-ns#"
   xmlns:svg="http://www.w3.org/2000/svg"
   xmlns="http://www.w3.org/2000/svg"
   viewBox="0 0 300 300"
   height="300"
   width="300"
   id="svg439"
   version="1.1">
  <metadata
     id="metadata445">
    <rdf:RDF>
      <cc:Work
         rdf:about="">
        <dc:format>image/svg+xml</dc:format>
        <dc:type
           rdf:resource="http://purl.org/dc/dcmitype/StillImage" />
        <dc:title></dc:title>
      </cc:Work>
    </rdf:RDF>
  </metadata>
  <defs
     id="defs443" />
  <path
     id="path449"
     d="m 217.61674,270.70694 c -0.24523,-26.34393 -0.58137,-40.79268 -13.57794,-49.77558 -10.59862,-7.3255 -48.22462,-5.99209 -48.14993,-32.13202 0.0602,-21.07801 17.16629,-22.73015 27.2259,-23.17834 11.58462,-0.51613 20.62369,-1.93496 20.76117,-13.28787 0.0937,-7.74217 -6.52406,-11.24707 -12.30481,-11.31222 V 157.394 c 0,7.1108 -11.03447,7.30733 -11.05819,0.37007 L 180.05627,24.151327 c -0.0338,-9.883474 10.7786,-9.968822 10.83547,0.502337 l 0.57242,105.400626 c 14.52897,0.84161 24.14238,8.99681 24.03847,22.73251 -0.15029,19.86506 -15.72793,24.0457 -32.67256,24.33682 -10.76432,0.18494 -16.43379,3.2558 -16.16728,11.40016 0.53292,16.28554 30.10497,13.60295 44.39294,23.37813 14.82714,10.14405 17.85418,26.25578 17.82494,50.17494 -0.0147,12.03427 -1.69461,22.95345 -5.71101,22.92309 -6.33698,-0.0479 -5.51235,-9.93472 -5.55292,-14.293 z M 100.91846,112.97969 c 9.57963,-45.210732 8.29426,-55.827191 -4.512966,-91.417417 -2.401986,-6.674921 7.908216,-9.610529 10.690156,-2.246179 13.67479,36.842778 13.44615,48.495427 9.11324,75.009842 7.8629,-0.58884 10.89688,-2.491948 12.543,-7.562879 4.85392,-14.952623 0.73697,-34.43892 -2.44832,-49.148359 -4.37538,-20.205268 5.059,-20.58538 10.46188,-1.804714 4.54754,15.807486 7.42482,38.104233 2.55275,53.230112 -4.03352,12.522494 -11.60305,16.654694 -25.18034,17.168414 -1.30653,7.00457 -1.85666,9.68151 -2.70724,14.49453 -11.645214,58.74973 -13.676978,94.18097 14.55692,151.42255 7.6592,15.5283 -4.79664,15.00885 -9.84251,4.99815 C 85.158929,215.64907 86.879433,179.23639 100.91846,112.97969 Z M 78.869291,254.6962 C 64.037809,211.579 62.729901,175.7153 71.637156,132.2946 c 2.577841,-12.56635 12.633311,-8.26273 10.754708,1.72428 -7.731878,41.10415 -7.914629,76.12063 6.404577,115.40885 5.373637,12.65874 -4.314357,18.80618 -9.92715,5.26847 z m 59.076979,-9.48033 c -19.78376,-34.12738 -22.83963,-67.92598 -18.19253,-104.97021 0.78934,-6.29214 1.60875,-15.49326 6.04728,-14.53752 4.57803,1.03252 6.47551,2.4506 5.11138,15.42037 -3.7813,35.9514 -0.85011,68.96306 15.07514,96.98365 4.74543,8.34962 -3.03749,15.73533 -8.04127,7.10371 z m 1.4577,-91.36994 c 9.9557,-13.17981 15.70097,-29.45405 19.02811,-49.84359 2.70067,-17.396969 0.24621,-35.53892 -1.71736,-52.610876 -0.65847,-5.724974 -1.24055,-17.213352 3.45068,-17.632279 5.92582,-0.529174 8.08365,14.387838 8.4161,17.870041 2.57643,21.309838 4.16555,40.156327 -0.4764,62.180254 -4.08312,19.37256 -12.84215,37.33951 -18.91279,45.20588 -10.22313,13.24719 -18.15284,5.90387 -9.78834,-5.16943 z m 69.89752,-98.626471 c 1.16843,-5.130089 4.82612,-20.61616 9.87568,-19.538213 6.39576,1.365325 2.1234,14.577365 1.0189,19.842764 -6.33603,29.931441 1.48303,62.14288 15.75827,90.47113 1.65127,3.27685 10.23363,18.95315 4.6086,20.4033 -5.1564,1.32933 -8.20485,-2.69539 -15.6204,-17.66374 C 210.50013,119.58259 202.80079,83.761217 209.30149,55.219459 Z M 59.558743,125.89197 c -5.700046,-4.88832 2.28585,-11.24944 4.773969,-13.47868 C 85.717606,93.253406 86.96088,74.399199 76.912805,51.527812 70.887382,37.812769 67.653569,29.93193 73.425559,28.825075 c 2.75729,-0.528747 5.975746,3.293918 10.085583,12.085399 16.133466,34.511597 13.251572,55.503192 -9.790082,78.711626 -4.628684,4.66219 -11.350044,8.68165 -14.162317,6.26987 z"
     style="fill:#000000;stroke-width:0.69772881" />
</svg>
