<?xml version="1.0" encoding="UTF-8" standalone="no"?>
<!-- Created with Inkscape (http://www.inkscape.org/) -->

<svg
   xmlns:dc="http://purl.org/dc/elements/1.1/"
   xmlns:cc="http://creativecommons.org/ns#"
   xmlns:rdf="http://www.w3.org/1999/02/22-rdf-syntax-ns#"
   xmlns:svg="http://www.w3.org/2000/svg"
   xmlns="http://www.w3.org/2000/svg"
   xmlns:sodipodi="http://sodipodi.sourceforge.net/DTD/sodipodi-0.dtd"
   xmlns:inkscape="http://www.inkscape.org/namespaces/inkscape"
   width="300"
   height="300"
   id="svg2"
   version="1.1"
   inkscape:version="0.48.4 r9939"
   sodipodi:docname="image-seal.svg">
  <defs
     id="defs4" />
  <sodipodi:namedview
     id="base"
     pagecolor="#ffffff"
     bordercolor="#666666"
     borderopacity="1.0"
     inkscape:pageopacity="0.0"
     inkscape:pageshadow="2"
     inkscape:zoom="2.0018442"
     inkscape:cx="168.83149"
     inkscape:cy="136.20087"
     inkscape:document-units="px"
     inkscape:current-layer="layer1"
     showgrid="false"
     inkscape:window-width="1215"
     inkscape:window-height="1000"
     inkscape:window-x="65"
     inkscape:window-y="24"
     inkscape:window-maximized="1" />
  <metadata
     id="metadata7">
    <rdf:RDF>
      <cc:Work
         rdf:about="">
        <dc:format>image/svg+xml</dc:format>
        <dc:type
           rdf:resource="http://purl.org/dc/dcmitype/StillImage" />
        <dc:title />
      </cc:Work>
    </rdf:RDF>
  </metadata>
  <g
     inkscape:label="Calque 1"
     inkscape:groupmode="layer"
     id="layer1"
     transform="translate(0,-752.36218)">
    <path
       style="fill:#000000"
       d="m 225.8074,1045.7875 c -7.43239,-2.8454 -33.79582,-24.4089 -39.99886,-32.7164 -5.99055,-8.0229 -13.45195,-37.94162 -15.71708,-63.02236 -0.75729,-8.38517 -3.53981,-13.0786 -14.27433,-24.07717 -7.34432,-7.52501 -13.48446,-16.29725 -13.66942,-19.52904 -0.18461,-3.22706 -0.81683,-8.79672 -1.40481,-12.37704 -3.23641,-19.70684 -3.59184,-44.55018 -0.83634,-58.45715 5.68733,-28.70394 13.31771,-39.44924 29.08815,-40.96269 l 8.64105,-0.82925 1.30194,-18.22711 c 1.23993,-17.35916 1.61192,-18.22711 7.81161,-18.22711 6.21102,0 6.54466,0.79051 7.27171,17.22938 l 0.76205,17.22941 17.32559,4.27551 c 18.44367,4.55144 19.81683,5.66418 24.49924,19.85283 4.11729,12.4762 5.5677,92.49658 1.88789,104.1549 -3.16272,10.02007 -12.93503,20.83098 -18.8297,20.83098 -4.06603,0 -9.48192,12.74054 -9.48192,22.30561 0,5.99479 -7.77243,24.90617 -13.47942,32.7972 -2.5551,3.53297 -1.96725,6.0236 3.20237,13.5682 3.48261,5.0825 9.27018,10.6921 12.86131,12.4658 13.00127,6.4214 23.45446,15.5787 23.45446,20.5468 0,5.0673 -3.04028,5.9923 -10.41549,3.1687 z m -29.8879,-78.0488 c 2.94488,-7.04811 3.89849,-17.40561 3.53606,-38.40712 -1.31003,-75.91556 -1.13333,-78.32219 6.29593,-85.75146 3.73992,-3.73991 8.54427,-6.79983 10.67635,-6.79983 6.10613,0 12.05548,-10.47749 10.25191,-18.05481 -2.4021,-10.09206 -5.89811,-13.19166 -14.87871,-13.19166 -4.4885,0 -11.80473,-1.04504 -16.25827,-2.32229 -5.06932,-1.45384 -12.66958,-1.276 -20.32418,0.47563 -16.95762,3.88044 -21.9238,11.56515 -23.28159,36.02611 -0.58619,10.55995 -1.40159,20.37168 -1.81204,21.80381 -0.41042,1.43213 0.1742,11.58601 1.29923,22.5642 2.13559,20.83993 8.77721,36.02293 15.7578,36.02293 4.4074,0 4.70653,-2.21537 4.51652,-33.44703 -0.163,-26.79405 -1.7322,-33.44437 -8.39009,-35.55752 -8.03623,-2.55059 -6.44747,-9.11162 2.20634,-9.11162 15.05619,0 16.3726,4.65197 17.81708,62.96294 1.15921,46.79583 3.77475,72.43843 7.38869,72.43843 0.64165,0 2.98118,-4.34282 5.19897,-9.65071 z m 25.01228,-44.12712 c 6.18037,-7.44385 9.9808,-31.97819 7.40018,-47.7732 -1.28691,-7.87671 -2.08846,-16.66421 -1.78123,-19.52779 0.63066,-5.87801 -7.30316,-8.19236 -13.76269,-4.01468 -3.19709,2.06768 -3.7984,8.713 -3.31392,36.62216 0.32553,18.75286 1.27347,35.19897 2.10656,36.54694 2.23172,3.61097 5.32291,2.99828 9.3511,-1.85343 z M 100.1999,1023.6082 c -2.103459,-3.2223 -4.567039,-9.9598 -5.474643,-14.9723 -5.01808,-27.71338 -7.06147,-42.53899 -8.56122,-62.1147 -1.62247,-21.17776 -1.12696,-25.16382 8.30127,-66.77701 6.972913,-30.77629 7.376853,-52.64481 1.485074,-80.40214 -3.002734,-14.14642 -6.751224,-27.27721 -8.329974,-29.17949 -3.89995,-4.69916 -0.94476,-8.70162 5.23212,-7.08634 7.739903,2.02405 17.003603,36.95742 16.437673,61.98665 -0.37118,16.41746 -4.99477,57.64452 -8.7607,78.11617 -5.390119,29.30101 -3.532049,59.98161 5.51935,91.13554 5.15101,17.72922 5.99167,35.15232 1.69606,35.15232 -2.04631,0 -5.44158,-2.6364 -7.54501,-5.8587 z m -29.080703,-5.0348 c -0.68518,-3.3174 -2.64251,-12.3541 -4.34961,-20.08156 -3.05049,-13.80849 -2.06354,-50.6323 2.23977,-83.56824 1.4414,-11.03191 2.97933,-14.50633 6.73864,-15.22372 4.32295,-0.82494 4.6601,0.19737 2.99656,9.08644 -3.36264,17.96813 -4.37468,66.92143 -1.60544,77.65573 1.4865,5.76201 3.02911,16.31295 3.42805,23.44645 0.58887,10.53 -0.11457,13.1343 -3.73843,13.8434 -2.94537,0.5762 -4.88752,-1.1785 -5.70954,-5.1585 z m 55.219653,-14.9393 c -9.00344,-10.51522 -11.2466,-20.88842 -14.12153,-65.30278 -1.64745,-25.45124 7.9233,-52.1489 14.87524,-41.49453 1.3416,2.05612 1.81748,6.08186 1.05754,8.94612 -5.9042,22.25272 -2.98193,66.16156 5.49412,82.55239 3.87527,7.49395 3.21466,20.3006 -1.04715,20.3006 -1.08657,0 -3.90276,-2.2508 -6.25822,-5.0018 z M 65.805607,881.26678 c -0.90813,-1.46937 0.37506,-6.51416 2.8515,-11.21064 5.49404,-10.41926 7.79737,-50.07476 3.89391,-67.04 -2.51706,-10.93965 -0.6976,-18.3133 4.51884,-18.3133 9.98949,0 12.92322,73.33104 3.57415,89.33887 -4.98899,8.54231 -11.93425,11.92409 -14.8384,7.22507 z m 49.224203,-6.0859 c -0.77973,-2.03194 0.47625,-9.27292 2.79107,-16.09108 7.02634,-20.69555 11.66196,-46.49013 8.94357,-49.7656 -1.35459,-1.63218 -1.79224,-3.63823 -0.97257,-4.45791 0.81967,-0.81967 0.38597,-3.64123 -0.96375,-6.27009 -3.9106,-7.6167 -6.09181,-29.51659 -2.93982,-29.51659 12.2683,0 17.26891,33.88997 11.59741,78.59771 -2.37335,18.70905 -14.75195,37.15595 -18.45591,27.50356 z"
       id="path3069"
       inkscape:connector-curvature="0" />
  </g>
</svg>
