<?xml version="1.0" standalone="no"?>
<!DOCTYPE svg PUBLIC "-//W3C//DTD SVG 20010904//EN"
 "http://www.w3.org/TR/2001/REC-SVG-20010904/DTD/svg10.dtd">
<svg version="1.0" xmlns="http://www.w3.org/2000/svg"
 width="210.000000pt" height="249.000000pt" viewBox="0 0 210.000000 249.000000"
 preserveAspectRatio="xMidYMid meet">
<metadata>
Created by potrace 1.10, written by Peter Selinger 2001-2011
</metadata>
<g transform="translate(0.000000,249.000000) scale(0.100000,-0.100000)"
fill="#000000" stroke="none">
<path d="M643 2195 c-8 -24 4 -74 36 -140 49 -103 63 -165 63 -287 0 -62 -7
-165 -15 -228 -9 -63 -24 -173 -33 -245 -11 -75 -18 -197 -18 -290 -1 -158 2
-180 46 -365 6 -25 14 -68 18 -97 12 -77 33 -139 81 -236 50 -102 77 -137 104
-137 35 0 40 33 15 88 -77 165 -83 181 -120 282 -7 19 -16 58 -20 85 -5 28
-14 75 -21 105 -21 86 -18 459 5 590 9 58 22 132 27 165 16 94 14 92 70 98 94
11 143 61 156 158 5 37 -12 168 -39 289 -5 25 -12 56 -15 70 -2 14 -15 38 -28
55 -24 28 -24 29 -44 10 -25 -21 -26 -50 -7 -119 8 -28 23 -80 33 -116 10 -37
18 -98 18 -141 0 -99 -16 -121 -84 -117 l-46 3 3 40 c5 52 -26 259 -45 310
-27 70 -47 109 -76 148 -30 39 -54 47 -64 22z"/>
<path d="M1391 2181 c-22 -14 -30 -92 -30 -309 -1 -230 7 -212 -95 -226 -60
-9 -117 -44 -144 -88 -36 -60 -56 -212 -56 -438 0 -230 13 -317 66 -426 55
-115 137 -164 272 -164 94 0 163 20 222 65 60 45 73 68 110 190 43 145 44 514
2 700 -21 95 -76 142 -193 164 -38 8 -76 18 -82 24 -10 7 -13 68 -13 244 0
265 -7 297 -59 264z m-35 -611 c14 -14 7 -341 -6 -354 -6 -6 -50 -12 -99 -14
l-90 -4 -7 37 c-15 81 16 254 53 295 15 17 89 47 119 49 11 1 25 -4 30 -9z
m219 -14 c28 -8 48 -23 67 -51 24 -35 29 -56 38 -154 14 -146 15 -144 -119
-149 l-98 -4 -6 33 c-9 55 -6 299 3 325 10 25 24 25 115 0z m-222 -445 c8 -8
12 -479 4 -488 -14 -14 -74 13 -111 51 -59 59 -83 137 -92 298 -4 69 -4 133
-1 141 4 12 23 14 99 10 51 -3 96 -8 101 -12z m328 -2 c8 -16 8 -53 -1 -143
-12 -131 -37 -222 -76 -274 -29 -37 -96 -75 -127 -70 -22 3 -22 6 -25 228 -1
124 0 235 3 247 5 20 13 22 78 26 39 1 86 4 104 5 24 1 35 -4 44 -19z"/>
<path d="M464 2035 c-15 -23 -13 -29 35 -128 53 -109 59 -140 39 -198 -19 -56
-48 -87 -135 -145 -45 -31 -84 -62 -87 -71 -15 -38 40 -55 96 -30 55 24 154
124 182 182 38 81 37 172 -4 258 -16 35 -30 67 -30 71 0 13 -50 74 -66 80 -8
3 -20 -5 -30 -19z"/>
<path d="M517 1428 c-17 -33 -27 -99 -48 -318 -12 -122 -5 -364 12 -453 5 -29
14 -85 19 -126 19 -144 60 -214 100 -167 13 17 0 158 -25 276 -31 144 -35 175
-35 268 0 95 9 182 36 358 8 50 14 109 14 131 0 68 -43 86 -73 31z"/>
<path d="M909 1397 c-35 -49 -65 -344 -50 -487 16 -148 55 -292 113 -415 35
-76 58 -92 78 -55 11 20 0 82 -21 123 -20 38 -39 107 -49 178 -6 41 -13 82
-16 92 -3 9 -11 63 -17 120 -10 80 -10 128 0 225 7 67 17 131 23 142 17 32 12
78 -9 90 -27 14 -34 13 -52 -13z"/>
</g>
</svg>
