<?xml version="1.0" encoding="UTF-8" standalone="no"?>
<!-- Created with Inkscape (http://www.inkscape.org/) -->

<svg
   xmlns:dc="http://purl.org/dc/elements/1.1/"
   xmlns:cc="http://creativecommons.org/ns#"
   xmlns:rdf="http://www.w3.org/1999/02/22-rdf-syntax-ns#"
   xmlns:svg="http://www.w3.org/2000/svg"
   xmlns="http://www.w3.org/2000/svg"
   xmlns:sodipodi="http://sodipodi.sourceforge.net/DTD/sodipodi-0.dtd"
   xmlns:inkscape="http://www.inkscape.org/namespaces/inkscape"
   version="1.0"
   width="300"
   height="300"
   id="svg2"
   inkscape:version="0.48.3.1 r9886"
   sodipodi:docname="dessin.svg">
  <metadata
     id="metadata2990">
    <rdf:RDF>
      <cc:Work
         rdf:about="">
        <dc:format>image/svg+xml</dc:format>
        <dc:type
           rdf:resource="http://purl.org/dc/dcmitype/StillImage" />
      </cc:Work>
    </rdf:RDF>
  </metadata>
  <sodipodi:namedview
     pagecolor="#ffffff"
     bordercolor="#666666"
     borderopacity="1"
     objecttolerance="10"
     gridtolerance="10"
     guidetolerance="10"
     inkscape:pageopacity="0"
     inkscape:pageshadow="2"
     inkscape:window-width="1215"
     inkscape:window-height="1000"
     id="namedview2988"
     showgrid="false"
     inkscape:zoom="2.2250294"
     inkscape:cx="136.51293"
     inkscape:cy="138.64666"
     inkscape:window-x="65"
     inkscape:window-y="24"
     inkscape:window-maximized="1"
     inkscape:current-layer="svg2" />
  <defs
     id="defs5" />
  <path
     style="fill:#000000"
     d="m 108.27804,287.2654 c -4.10213,-1.48782 -7.31154,-7.64452 -14.527809,-27.8691 -7.775634,-21.79227 -8.395954,-64.55638 -1.471013,-101.40985 2.684169,-14.28476 5.501905,-32.40041 6.26164,-40.25702 0.759732,-7.85662 2.115292,-18.797745 3.012342,-24.313606 2.07385,-12.751745 -3.380535,-46.40423 -9.825845,-60.623584 -9.77007,-21.554282 2.884583,-18.766148 14.181495,3.124536 4.33353,8.397339 5.48879,15.865718 6.02637,38.958402 0.36579,15.713227 -0.40393,34.997632 -1.7105,42.854252 -1.30655,7.85661 -4.158,24.81245 -6.33654,37.67965 -8.94942,52.85827 -8.107823,68.31672 5.76008,105.8011 6.53433,17.66205 5.95325,28.71141 -1.37022,26.05522 z m 58.82738,-9.56397 c -21.19585,-5.78577 -23.67959,-13.83748 -23.62877,-76.59903 0.0408,-50.30797 1.47094,-58.33742 9.46912,-53.16172 3.51553,2.27494 4.39237,5.80158 3.87452,15.58336 -0.83079,15.69323 1.82886,20.38112 10.33223,18.21157 7.26522,-1.85364 8.94023,-7.22039 8.22296,-26.3464 -0.26786,-7.14237 -0.66517,-20.29083 -0.88294,-29.2188 l -0.39593,-16.23266 -16.09602,0 c -8.85281,0 -17.36068,-1.28561 -18.90638,-2.8569 -2.04386,-2.07771 -3.95759,1.28703 -7.01671,12.33682 -6.01171,21.71485 -5.99877,21.6868 -10.0033,21.6868 -5.97013,0 -6.62373,-6.40222 -2.29393,-22.46981 4.76097,-17.66766 5.39497,-69.856092 0.90409,-74.421332 -2.8605,-2.907867 -3.97317,-17.386845 -1.33612,-17.386845 8.40562,0 18.98115,28.606412 18.97369,51.323088 l -0.006,17.503426 17.89024,-0.862435 c 16.30315,-0.78592 17.91044,-1.361934 18.11824,-6.493069 0.12545,-3.09685 0.58429,-18.115527 1.0197,-33.374842 0.85303,-29.895439 1.74161,-33.290622 8.71267,-33.290622 8.16746,0 10.04885,9.82935 7.36212,38.463715 -3.03272,32.32155 -2.01456,34.35427 16.9847,33.909027 17.0637,-0.399895 24.97921,2.151101 23.93553,7.713889 -0.65445,3.48811 -4.50686,4.47316 -19.94297,5.09937 -10.52254,0.42688 -19.90146,1.59564 -20.84206,2.59723 -0.94062,1.0016 -2.09166,16.9982 -2.55791,35.54801 -0.77384,30.78807 -0.44742,33.8054 3.74613,34.62771 8.33907,1.63521 12.59333,-4.67872 10.95666,-16.26127 -1.65684,-11.72533 1.17353,-18.53755 6.79148,-16.34603 4.17437,1.62836 6.29296,20.72501 8.56818,77.23204 1.28417,31.89449 0.95599,35.79187 -3.63219,43.13406 -4.21261,6.74119 -7.1972,8.36191 -18.10826,9.83327 -7.18539,0.96897 -14.48747,2.14674 -16.22686,2.6173 -1.73942,0.47056 -8.03317,-0.47394 -13.98614,-2.09892 z m 27.73672,-14.57053 c 8.27951,-2.33788 9.44481,-3.76478 11.1237,-13.62094 2.05417,-12.05923 1.89142,-44.63778 -0.25981,-52.01055 -1.19373,-4.09123 -4.12464,-4.55194 -24.78511,-3.89585 l -23.43131,0.74405 -0.77738,22.07643 c -0.42755,12.14203 -0.0872,25.87949 0.7564,30.52768 3.02463,16.666 15.90397,22.24156 37.37351,16.17918 z m -122.942499,7.98817 c 0,-2.77265 -1.149716,-5.76348 -2.554925,-6.64634 -1.405208,-0.88284 -2.554924,-4.45809 -2.554924,-7.94495 0,-3.48689 -1.149716,-6.33979 -2.554924,-6.33979 -3.646126,0 -2.951666,-62.43383 0.924338,-83.10077 2.397276,-12.7823 4.301532,-17.09413 7.856763,-17.79014 4.276085,-0.83714 4.513841,0.31453 2.678754,12.97564 -4.807379,33.16831 -1.906111,81.6264 6.093063,101.76864 3.412028,8.59166 1.977402,12.1189 -4.92908,12.1189 -3.20552,0 -4.959065,-1.78257 -4.959065,-5.04119 z m 51.796119,-17.56155 c -7.39805,-11.4634 -10.68491,-28.98897 -10.80457,-57.60995 -0.10215,-24.43088 3.42865,-47.11396 7.3177,-47.01166 6.80555,0.17895 7.77978,5.61585 7.2286,40.34059 -0.46453,29.26631 0.29622,38.67149 3.95437,48.88799 6.88686,19.23364 1.60293,29.8021 -7.6961,15.39303 z M 70.72332,130.88191 c -0.812836,-1.33697 -0.15235,-7.47292 1.467756,-13.63544 6.640854,-25.260342 5.038493,-58.477026 -3.29061,-68.213699 -3.569602,-4.172844 -2.337791,-11.817381 1.904208,-11.817381 6.186671,0 11.337207,6.629089 16.666563,21.450997 5.959703,16.575018 6.086432,25.667621 0.670956,48.140353 -5.107609,21.19516 -12.748905,31.75644 -17.418873,24.07517 z"
     id="path3001"
     inkscape:connector-curvature="0" />
</svg>
