<?xml version="1.0" encoding="UTF-8" standalone="no"?>
<!-- Created with Inkscape (http://www.inkscape.org/) -->

<svg
   xmlns:dc="http://purl.org/dc/elements/1.1/"
   xmlns:cc="http://creativecommons.org/ns#"
   xmlns:rdf="http://www.w3.org/1999/02/22-rdf-syntax-ns#"
   xmlns:svg="http://www.w3.org/2000/svg"
   xmlns="http://www.w3.org/2000/svg"
   xmlns:sodipodi="http://sodipodi.sourceforge.net/DTD/sodipodi-0.dtd"
   xmlns:inkscape="http://www.inkscape.org/namespaces/inkscape"
   width="300"
   height="300"
   id="svg2"
   version="1.1"
   inkscape:version="0.48.4 r9939"
   sodipodi:docname="image-seal.svg">
  <defs
     id="defs4" />
  <sodipodi:namedview
     id="base"
     pagecolor="#ffffff"
     bordercolor="#666666"
     borderopacity="1.0"
     inkscape:pageopacity="0.0"
     inkscape:pageshadow="2"
     inkscape:zoom="1.979899"
     inkscape:cx="200.43343"
     inkscape:cy="134.48103"
     inkscape:document-units="px"
     inkscape:current-layer="layer1"
     showgrid="false"
     inkscape:window-width="1215"
     inkscape:window-height="1000"
     inkscape:window-x="65"
     inkscape:window-y="24"
     inkscape:window-maximized="1" />
  <metadata
     id="metadata7">
    <rdf:RDF>
      <cc:Work
         rdf:about="">
        <dc:format>image/svg+xml</dc:format>
        <dc:type
           rdf:resource="http://purl.org/dc/dcmitype/StillImage" />
        <dc:title />
      </cc:Work>
    </rdf:RDF>
  </metadata>
  <g
     inkscape:label="Calque 1"
     inkscape:groupmode="layer"
     id="layer1"
     transform="translate(0,-752.36218)">
    <path
       style="fill:#000000"
       d="m 213.79723,1033.7006 c -14.42825,-11.7269 -14.99845,-12.393 -21.72103,-25.3736 -8.99501,-17.36841 -7.88658,-31.16051 4.61989,-57.48447 5.80788,-12.22452 10.55976,-24.10275 10.55976,-26.39604 0,-6.21688 -15.47105,-19.48764 -22.71865,-19.48764 -3.4764,0 -6.32069,1.03483 -6.32069,2.29964 0,1.2648 -4.12361,5.12518 -9.16357,8.57862 -15.17723,10.39961 -19.42007,22.5847 -21.49086,61.7201 -1.95757,36.99579 -2.48638,45.93129 -3.2028,54.11879 -0.29452,3.3659 -2.37595,5.2799 -5.74187,5.2799 -4.94208,0 -5.27434,-1.7312 -5.19351,-27.0594 0.17556,-54.95932 5.58995,-77.1743 23.52515,-96.52068 7.421,-8.00493 13.72537,-17.63456 14.69071,-22.4395 0.93008,-4.62934 2.27643,-10.49591 2.99185,-13.03686 0.96982,-3.44455 -0.25555,-4.62072 -4.817,-4.62313 -3.36476,-0.002 -9.27572,-2.71929 -13.13544,-6.03893 -7.63104,-6.56327 -8.50893,-10.92998 -11.65574,-57.97639 -1.6709,-24.98072 -1.55722,-25.73942 3.856,-25.73942 4.87143,0 5.57762,1.5431 5.57762,12.18763 0,11.35071 0.40789,12.07834 5.93986,10.59582 3.26693,-0.87551 13.95869,-1.60806 23.75946,-1.62789 l 17.81961,-0.0358 0,-10.27731 c 0,-6.81251 1.3687,-10.80254 4.05985,-11.83523 6.42918,-2.46713 7.80452,4.97499 7.81249,42.27458 0.008,33.74237 -0.17134,34.83362 -6.59247,40.29072 -3.62992,3.08493 -9.86677,6.33725 -13.85968,7.22734 -5.36418,1.19576 -7.25984,3.21479 -7.25984,7.73238 0,3.36274 -1.18798,6.84828 -2.63994,7.74565 -1.45197,0.89735 -2.63994,2.51078 -2.63994,3.58536 0,2.26226 15.64088,8.29435 21.50678,8.29435 6.67856,0 15.81038,12.11166 17.22064,22.84001 1.10873,8.43434 -0.0848,12.11018 -7.0288,21.64959 -9.36348,12.86299 -15.85898,29.16564 -15.85898,39.80357 0,9.96528 13.25753,29.68734 26.03666,38.73254 7.11744,5.0378 10.82902,9.6802 10.86615,13.5912 0.081,8.5372 -7.29409,7.5705 -19.80167,-2.5953 z M 199.95559,853.7392 c 1.06676,-1.59452 1.95774,-10.98022 1.97997,-20.85711 l 0.0404,-17.95802 -22.24933,0.75363 c -20.81787,0.70515 -22.32373,1.14275 -23.40543,6.80128 -0.63583,3.32619 -0.12746,6.68334 1.12982,7.46037 1.25724,0.77703 2.2859,7.20724 2.2859,14.28941 0,12.55775 0.21252,12.90194 8.5798,13.89924 12.09161,1.44113 29.33921,-0.95136 31.63887,-4.3888 z M 94.09402,1025.5046 c -1.585443,-1.9104 -4.84908,-8.1341 -7.252526,-13.8306 -13.550661,-32.11704 -15.37728,-80.51153 -4.725398,-125.19474 3.634364,-15.24565 8.308452,-40.78708 10.386859,-56.75871 3.899718,-29.96751 3.682083,-31.94031 -5.92781,-53.73288 -4.892508,-11.09485 -1.312663,-15.63567 6.550993,-8.30955 12.877732,11.99745 14.052742,48.28295 3.248632,100.32156 -2.863808,13.79368 -5.222523,28.64381 -5.2416,33.00023 -0.01901,4.35645 -1.654993,15.6651 -3.63538,25.13033 -2.419488,11.56392 -2.922727,22.20551 -1.534026,32.43889 2.350816,17.32327 10.076657,43.54707 13.442292,45.62717 2.981864,1.8428 2.907264,21.4834 -0.0887,23.3349 -1.287446,0.7957 -3.637968,-0.1162 -5.223411,-2.0266 z m -39.49321,-20.888 c -4.653079,-13.24878 -5.789545,-22.3437 -5.768087,-46.16109 0.03358,-37.27822 6.632919,-68.53776 13.924294,-65.95612 3.9052,1.38269 3.32751,19.4889 -0.779704,24.43779 -4.241729,5.11098 -2.82443,67.29432 1.842537,80.84029 3.709364,10.76653 2.996796,23.33873 -1.322793,23.33873 -1.15579,0 -4.709102,-7.4248 -7.896247,-16.4996 z m 61.05593,-7.91983 c -11.71371,-15.53842 -19.260243,-89.36452 -9.92668,-97.11065 5.88052,-4.8804 9.50666,0.0164 6.99117,9.4391 -3.89658,14.59739 -0.48945,44.10045 7.56182,65.47976 3.45106,9.16393 4.13129,14.58736 2.40055,19.13958 -2.76291,7.26704 -3.58148,7.62264 -7.02686,3.05221 z m -4.32122,-126.71714 c 0.89399,-4.71889 2.90914,-10.20625 4.47808,-12.19412 1.77539,-2.24944 2.63017,-16.04952 2.26354,-36.54329 -0.62625,-35.00314 0.24683,-39.87242 6.25563,-34.88562 4.48267,3.72028 5.46763,67.05469 1.08493,69.76335 -1.45196,0.89737 -2.63994,4.61626 -2.63994,8.26419 0,6.79139 -5.36797,14.17531 -10.30519,14.17531 -1.69014,0 -2.13151,-3.33059 -1.13705,-8.57982 z m -51.016599,-5.27987 c 0.81255,-4.7189 2.793359,-16.30163 4.401798,-25.73943 3.138265,-18.41434 1.648712,-39.63603 -3.343107,-47.62921 -4.938845,-7.90834 0.233371,-9.45765 7.457263,-2.23377 5.659914,5.65991 6.822321,9.74257 8.045657,28.2584 1.404424,21.25666 -2.888857,43.37607 -10.214062,52.62388 -4.785742,6.04182 -7.857135,3.48705 -6.347549,-5.27987 z"
       id="path3134"
       inkscape:connector-curvature="0" />
  </g>
</svg>
