<?xml version="1.0" encoding="UTF-8" standalone="no"?>
<!-- Created with Inkscape (http://www.inkscape.org/) -->

<svg
   xmlns:dc="http://purl.org/dc/elements/1.1/"
   xmlns:cc="http://creativecommons.org/ns#"
   xmlns:rdf="http://www.w3.org/1999/02/22-rdf-syntax-ns#"
   xmlns:svg="http://www.w3.org/2000/svg"
   xmlns="http://www.w3.org/2000/svg"
   xmlns:sodipodi="http://sodipodi.sourceforge.net/DTD/sodipodi-0.dtd"
   xmlns:inkscape="http://www.inkscape.org/namespaces/inkscape"
   width="300"
   height="300"
   id="svg2"
   version="1.1"
   inkscape:version="0.92.4 (5da689c313, 2019-01-14)"
   sodipodi:docname="image-bigseal.svg">
  <defs
     id="defs4" />
  <sodipodi:namedview
     id="base"
     pagecolor="#ffffff"
     bordercolor="#666666"
     borderopacity="1.0"
     inkscape:pageopacity="0.0"
     inkscape:pageshadow="2"
     inkscape:zoom="1"
     inkscape:cx="394.02697"
     inkscape:cy="150.65276"
     inkscape:document-units="px"
     inkscape:current-layer="layer1"
     showgrid="false"
     inkscape:window-width="1872"
     inkscape:window-height="1016"
     inkscape:window-x="48"
     inkscape:window-y="27"
     inkscape:window-maximized="1" />
  <metadata
     id="metadata7">
    <rdf:RDF>
      <cc:Work
         rdf:about="">
        <dc:format>image/svg+xml</dc:format>
        <dc:type
           rdf:resource="http://purl.org/dc/dcmitype/StillImage" />
        <dc:title />
      </cc:Work>
    </rdf:RDF>
  </metadata>
  <g
     inkscape:label="Calque 1"
     inkscape:groupmode="layer"
     id="layer1"
     transform="translate(0,-752.36218)">
    <path
       style="fill:#000000;stroke-width:6.00389767"
       d="m 136.43631,839.12939 c 4.31395,-5.3427 5.39095,-18.21335 2.92898,-34.99999 -3.11812,-21.25945 -2.40219,-25.11088 3.59268,-19.32848 4.11773,3.97173 7.48673,18.80056 7.48673,32.95301 0,24.53817 -9.83139,44.55305 -25.02812,36.31457 -6.62663,-3.59244 6.00857,-8.73279 11.01973,-14.93911 z m -21.95321,72.83959 c -1.49944,36.96817 0.89764,56.60825 10.27339,84.1722 13.82089,40.63272 14.60352,46.22102 6.47257,46.22102 -3.16608,0 -10.45571,-15.75 -16.19912,-35 -10.44639,-35.01266 -11.12807,-54.14904 -6.73674,-189.11184 1.92658,-59.21341 2.49591,-61.66887 9.94786,-42.90917 4.34729,10.94409 6.993,31.67483 5.87926,46.06835 0.3694,32.69019 -8.45972,62.40681 -9.63722,90.55944 z M 80.490152,1017.6206 c -6.173275,-10.2668 -10.648944,-99.33332 -6.212979,-123.63787 7.265117,-39.80563 12.371719,-23.15869 12.371719,40.3308 0,34.31805 2.178216,68.55947 4.840544,76.09207 4.970397,14.063 -3.529295,19.6384 -10.999284,7.215 z m 64.001808,-13.3019 c -16.34084,-21.48161 -24.33969,-79.15605 -15.61768,-112.60873 7.19503,-27.59623 12.37499,-12.59073 9.56897,27.71969 -2.37947,34.18355 -0.66927,45.87535 9.79403,66.95653 11.79225,23.75871 9.3999,35.21321 -3.74532,17.93251 z m 40.07779,-10.25203 c -6.94226,-13.33324 -7.69272,-35.5254 -2.32925,-68.8784 5.9611,-37.06938 11.78873,-26.16152 11.38202,21.30434 -0.36975,43.1181 -0.0356,44.13043 14.42678,44.13043 14.67523,0 14.79191,-0.42396 13.31846,-48.39747 -1.77435,-57.76913 7.43526,-55.54572 13.39489,3.23379 3.3541,33.08159 2.33982,41.8229 -5.82716,50.21734 -13.37204,13.7446 -36.81385,12.8939 -44.36574,-1.61003 z m 50.12845,-107.1106 c -10.95512,-9.22995 -26.87849,-20.14852 -26.87849,-20.14852 0,0 -15.70729,9.58592 -28.04291,17.31649 -21.26927,13.32918 -25.02522,14.45502 -25.02522,7.50114 0,-2.55746 10.65952,-11.42149 23.68786,-19.69779 10.57357,-6.71689 23.72116,-14.50978 23.72116,-14.50978 0,0 -0.0333,-12.66091 -0.0333,-20.40543 0,-8.86762 -0.49371,-21.19893 -0.49371,-21.19893 0,0 -10.43227,2.96334 -23.19422,10.46195 -8.1427,4.78452 -17.12988,8.79608 -19.97157,8.91473 -9.89094,0.41237 8.63911,-16.7859 26.08996,-24.21566 6.84179,-2.91295 17.19771,-10.62821 17.19771,-10.62821 0,0 0.37183,-8.36553 0.37183,-17.41797 0,-11.31127 2.66487,-20.56591 5.92193,-20.56591 3.25712,0 5.922,9.5502 5.922,21.22266 0,8.68179 -0.0228,15.47751 -0.0228,15.47751 0,0 10.9091,10.4205 20.02669,14.3362 20.41542,8.76775 33.35287,22.00708 21.50532,22.00708 -3.61108,0 -14.42787,-4.17901 -24.03744,-9.28672 l -17.12782,-10.70094 -0.34397,22.81889 c -0.13531,8.97645 0.46058,20.48027 0.46058,20.48027 0,0 11.71736,9.03278 20.19302,14.67608 11.35947,7.5633 20.68654,17.17547 20.72689,21.36028 0.0944,9.77011 0.28132,9.84069 -20.65359,-7.79742 z M 60,861.82244 c 0,-2.44546 6.986411,-11.94166 15.525272,-21.10267 13.880018,-14.89123 14.837668,-18.68379 9.036857,-35.78752 -5.007785,-14.76564 -4.834308,-18.57291 0.760142,-16.68447 9.928272,3.35128 12.670661,45.9059 3.676242,57.04539 C 79.969196,856.47603 60,867.85848 60,861.82244 Z"
       id="path27"
       inkscape:connector-curvature="0"
       sodipodi:nodetypes="cccsscccscccccccscccccsccscsssccscssscscccccssscssccsccccsscccss" />
  </g>
</svg>
