<?xml version="1.0" encoding="UTF-8" standalone="no"?>
<!-- Created with Inkscape (http://www.inkscape.org/) -->

<svg
   xmlns:dc="http://purl.org/dc/elements/1.1/"
   xmlns:cc="http://creativecommons.org/ns#"
   xmlns:rdf="http://www.w3.org/1999/02/22-rdf-syntax-ns#"
   xmlns:svg="http://www.w3.org/2000/svg"
   xmlns="http://www.w3.org/2000/svg"
   xmlns:sodipodi="http://sodipodi.sourceforge.net/DTD/sodipodi-0.dtd"
   xmlns:inkscape="http://www.inkscape.org/namespaces/inkscape"
   width="300"
   height="300"
   id="svg2"
   version="1.1"
   inkscape:version="0.48.4 r9939"
   sodipodi:docname="image-seal.svg">
  <defs
     id="defs4" />
  <sodipodi:namedview
     id="base"
     pagecolor="#ffffff"
     bordercolor="#666666"
     borderopacity="1.0"
     inkscape:pageopacity="0.0"
     inkscape:pageshadow="2"
     inkscape:zoom="1.979899"
     inkscape:cx="173.92428"
     inkscape:cy="155.81638"
     inkscape:document-units="px"
     inkscape:current-layer="layer1"
     showgrid="false"
     inkscape:window-width="1215"
     inkscape:window-height="1000"
     inkscape:window-x="65"
     inkscape:window-y="24"
     inkscape:window-maximized="1" />
  <metadata
     id="metadata7">
    <rdf:RDF>
      <cc:Work
         rdf:about="">
        <dc:format>image/svg+xml</dc:format>
        <dc:type
           rdf:resource="http://purl.org/dc/dcmitype/StillImage" />
        <dc:title />
      </cc:Work>
    </rdf:RDF>
  </metadata>
  <g
     inkscape:label="Calque 1"
     inkscape:groupmode="layer"
     id="layer1"
     transform="translate(0,-752.36218)">
    <path
       style="fill:#000000"
       d="m 222.76478,1042.047 c -4.58858,-8.3171 -7.90451,-32.5346 -9.2705,-67.70554 -0.60795,-15.65327 -1.6872,-29.04236 -2.39837,-29.7535 -0.71114,-0.71117 -5.53142,0.10585 -10.71173,1.81543 -22.05621,7.27922 -43.0533,2.78175 -43.0533,-9.22179 0,-2.37018 -1.07184,-4.3094 -2.38189,-4.3094 -2.32334,0 -3.58073,-25.5171 -3.71615,-75.41446 -0.14863,-54.76434 0.38289,-61.70275 4.72687,-61.70275 4.89925,0 4.49023,-2.26901 5.55643,30.82516 0.4733,14.69139 -0.29488,27.42572 -1.70708,28.29852 -1.4122,0.87278 -1.75812,2.89668 -0.76874,4.49758 0.98941,1.6009 1.70643,17.55005 1.59336,35.44255 -0.16125,25.52898 0.68389,33.42128 3.92638,36.6638 5.20543,5.20543 16.78934,5.82871 12.5106,0.67313 -1.75395,-2.11336 -3.46193,-32.24854 -4.3909,-77.47122 -0.8362,-40.70683 -2.15096,-77.09105 -2.92172,-80.85382 -1.84429,-9.0038 0.68627,-16.46851 5.58289,-16.46851 4.59213,0 4.64942,0.70711 5.33087,65.81626 0.73451,70.17968 0.19114,65.81625 8.19604,65.81625 5.16126,0 6.95623,-1.52515 7.26189,-6.17027 0.22323,-3.39365 0.53183,-8.02136 0.68559,-10.28379 0.15384,-2.26244 1.27793,-5.65609 2.49816,-7.54145 1.22024,-1.88536 1.22024,-3.42746 0,-3.42691 -1.22023,5.5e-4 -1.98814,-12.64852 -1.70647,-28.10903 0.28166,-15.46051 0.59018,-33.9718 0.68558,-41.13618 0.12889,-9.67345 1.23219,-13.02613 4.28697,-13.02613 4.65313,0 4.96463,4.22582 4.19447,56.90364 -0.27012,18.47654 0.19306,33.59371 1.02939,33.59371 0.83628,0 3.88678,-4.6277 6.77886,-10.28379 5.37653,-10.51494 17.01493,-22.35775 27.47135,-27.95386 8.82928,-4.72531 11.52144,4.49155 3.26479,11.17736 -5.61492,4.54669 -6.15344,7.26935 -6.01772,30.42425 0.15165,25.87278 2.6932,46.49227 10.57086,85.76223 2.42053,12.06631 4.80922,29.34308 5.30822,38.39281 l 0.90725,16.45402 -5.14319,-10.9693 c -2.82875,-6.03319 -6.44116,-15.90562 -8.02755,-21.93878 -3.75095,-14.26507 -12.42087,-75.61827 -13.17587,-93.2397 -0.3231,-7.54145 -0.70473,-16.48834 -0.84804,-19.88199 -0.36015,-8.52872 -5.24397,-7.75124 -7.4886,1.19218 -3.27362,13.04316 0.7726,94.46895 6.99287,140.72409 4.42625,32.9144 4.5295,36.4238 1.10642,37.6062 -1.78323,0.616 -4.81547,-1.7317 -6.73832,-5.217 z m -10.629,-126.59058 c -0.057,-22.85036 -1.47651,-24.4664 -15.74602,-17.92473 -10.01334,4.59047 -11.68074,6.5655 -11.96035,14.16703 -0.77529,21.07602 0.42257,22.79451 15.07634,21.62904 l 12.67202,-1.00784 -0.042,-16.8635 z M 108.99674,1032.2822 c -0.84818,-2.6395 -2.60531,-7.8843 -3.90471,-11.655 -7.034341,-20.4128 -7.357901,-57.56001 -0.74046,-85.01266 5.01923,-20.82248 5.75829,-111.53821 0.98143,-120.46385 -1.56695,-2.92789 -2.849,-7.62662 -2.849,-10.44164 0,-6.27174 -6.090851,-19.87267 -8.912621,-19.90204 -1.13121,-0.011 -2.05675,-2.4895 -2.05675,-5.50608 0,-3.01658 1.01894,-5.48469 2.26432,-5.48469 4.26344,0 14.189741,12.68902 14.189741,18.1391 0,2.99478 1.21223,6.65729 2.69381,8.13887 1.4816,1.4816 3.14607,7.71457 3.69879,13.85103 0.55274,6.13649 1.8632,12.54584 2.91215,14.24305 3.28033,5.30769 1.51904,74.76589 -2.51545,99.19922 -5.00019,30.28162 -5.60968,58.60022 -1.59357,74.04329 1.76508,6.7873 3.94672,17.5853 4.84811,23.9955 1.36291,9.6927 0.87173,11.655 -2.91739,11.655 -2.50593,0 -5.25022,-2.1596 -6.0984,-4.7991 z m -30.342231,-6.8559 c -4.72958,-6.3273 -8.82143,-30.71419 -7.70727,-45.93425 1.67771,-22.91849 4.42214,-38.25998 7.14534,-39.94304 1.34896,-0.8337 2.45267,-5.51537 2.45267,-10.40371 0,-8.20729 3.96954,-15.46951 8.45566,-15.46951 3.93239,0 4.80648,12.11831 1.36552,18.931 -9.29029,18.39362 -11.54088,54.80978 -5.39742,87.33481 1.71613,9.0857 -1.52107,11.8975 -6.3145,5.4847 z m 54.694161,-13.7117 c -1.49323,-1.8854 -4.25589,-13.56112 -6.1392,-25.94615 -3.43948,-22.61872 -0.84889,-51.90336 5.70707,-64.514 1.36157,-2.61905 2.47559,-6.62973 2.47559,-8.91262 0,-5.30328 3.84216,-5.32067 8.22703,-0.0373 2.26035,2.72355 2.51761,5.2718 0.76133,7.54144 -5.89776,7.62163 -9.47614,29.6197 -8.31522,51.11765 0.662,12.25875 2.01543,23.10038 3.00761,24.09256 2.6983,2.69831 2.17665,20.08622 -0.60263,20.08622 -1.32359,0 -3.62832,-1.5425 -5.12158,-3.4279 z M 83.335149,895.90784 c -2.55063,-3.07332 -2.632,-6.16287 -0.3358,-12.74976 6.95252,-19.944 -1.38047,-61.25659 -15.12897,-75.00508 -5.29283,-5.29284 -2.81545,-13.1386 3.75397,-11.88867 6.37938,1.21379 19.64922,26.31704 20.54781,38.87144 0.39251,5.48373 1.8094,9.97289 3.14865,9.97591 1.37221,0.003 1.60644,9.28195 0.53667,21.25867 -2.99485,33.52974 -5.09596,38.48573 -12.52233,29.53749 z m 48.305731,-11.07147 c -0.92656,-2.41455 -0.60115,-9.56253 0.7231,-15.88437 4.85743,-23.18877 1.71802,-62.40585 -5.78514,-72.26727 -1.48202,-1.94783 -1.13374,-3.98024 0.89721,-5.23543 4.79321,-2.96237 13.32171,8.76828 13.81846,19.0068 0.2298,4.73485 0.70442,9.84287 1.05487,11.35116 0.35041,1.50829 0.90442,3.9764 1.23109,5.48469 1.24258,5.73696 -0.3417,41.54509 -2.23553,50.52832 -2.17877,10.33472 -7.07278,13.87311 -9.70406,7.0161 z"
       id="path3067"
       inkscape:connector-curvature="0" />
  </g>
</svg>
