<?xml version="1.0" encoding="UTF-8" standalone="no"?>
<!-- Created with Inkscape (http://www.inkscape.org/) -->

<svg
   xmlns:dc="http://purl.org/dc/elements/1.1/"
   xmlns:cc="http://creativecommons.org/ns#"
   xmlns:rdf="http://www.w3.org/1999/02/22-rdf-syntax-ns#"
   xmlns:svg="http://www.w3.org/2000/svg"
   xmlns="http://www.w3.org/2000/svg"
   xmlns:sodipodi="http://sodipodi.sourceforge.net/DTD/sodipodi-0.dtd"
   xmlns:inkscape="http://www.inkscape.org/namespaces/inkscape"
   width="300"
   height="300"
   viewBox="0 0 300 300"
   id="svg2"
   version="1.1"
   inkscape:version="0.91 r13725"
   sodipodi:docname="泳-seal.svg">
  <defs
     id="defs4" />
  <sodipodi:namedview
     id="base"
     pagecolor="#ffffff"
     bordercolor="#666666"
     borderopacity="1.0"
     inkscape:pageopacity="0.0"
     inkscape:pageshadow="2"
     inkscape:zoom="1.09"
     inkscape:cx="179.90252"
     inkscape:cy="147.2085"
     inkscape:document-units="px"
     inkscape:current-layer="layer1"
     showgrid="false"
     units="px"
     inkscape:window-width="923"
     inkscape:window-height="546"
     inkscape:window-x="393"
     inkscape:window-y="39"
     inkscape:window-maximized="0" />
  <metadata
     id="metadata7">
    <rdf:RDF>
      <cc:Work
         rdf:about="">
        <dc:format>image/svg+xml</dc:format>
        <dc:type
           rdf:resource="http://purl.org/dc/dcmitype/StillImage" />
        <dc:title></dc:title>
      </cc:Work>
    </rdf:RDF>
  </metadata>
  <g
     inkscape:label="Layer 1"
     inkscape:groupmode="layer"
     id="layer1"
     transform="translate(0,-752.36216)">
    <path
       style="fill:#000000"
       d="m 227.41233,1033.3618 c -1.76438,-0.6329 -3.20796,-3.296 -3.20796,-5.9181 0,-2.6221 -1.15487,-5.4812 -2.56637,-6.3535 -1.41151,-0.8724 -2.56637,-4.337 -2.56637,-7.6992 0,-3.3621 -1.15487,-6.8267 -2.56638,-7.6991 -1.4115,-0.8723 -2.56637,-4.4811 -2.56637,-8.01932 0,-3.53825 -1.32574,-8.91035 -2.94608,-11.938 -4.39115,-8.20493 -2.91725,-42.47389 2.538,-59.00985 4.40623,-13.35616 4.46455,-15.51137 0.82746,-30.57701 -5.29386,-21.92835 -5.01694,-51.17803 0.66368,-70.10186 3.45808,-11.51988 4.28556,-20.44505 3.28534,-35.43563 -1.29378,-19.3902 -1.15848,-20.0119 4.18887,-19.24779 11.34514,1.62116 11.63893,42.4426 0.53492,74.32559 -5.19253,14.90935 -4.94547,22.26441 1.1733,34.9288 6.49781,13.44892 6.51816,29.03061 0.0631,48.32712 -2.7883,8.33525 -5.09804,21.81011 -5.13275,29.94413 -0.0611,14.3279 6.79919,44.63192 12.52665,55.33382 3.21214,6.0019 3.74517,17.5844 0.8837,19.2023 -1.05863,0.5986 -3.36836,0.5705 -5.13274,-0.062 z m -70.02071,-4.6775 c -6.63243,-7.9915 -13.67981,-61.34229 -11.53907,-87.35415 1.03103,-12.52798 3.79917,-22.86572 8.91797,-33.30453 7.20688,-14.69705 7.75435,-19.10366 2.37341,-19.10366 -3.96042,0 -9.93071,6.8328 -9.93071,11.36536 0,2.21808 -1.0817,4.03287 -2.40377,4.03287 -1.32207,0 -2.76566,3.75332 -3.20797,8.34071 -0.9753,10.11532 -8.12756,11.55927 -9.25881,1.86924 -1.32838,-11.37857 7.60564,-27.9138 20.55443,-38.04247 3.76643,-2.94614 5.52338,-2.64284 12.19026,2.10439 10.38181,7.39251 10.40938,18.87672 0.0905,37.67917 -7.08704,12.91354 -7.69185,16.00549 -7.6077,38.89287 0.0514,13.99091 1.84879,31.59776 4.11008,40.26229 6.39652,24.50951 6.90397,30.75411 2.77747,34.17881 -2.96151,2.4578 -4.41972,2.2678 -7.06605,-0.9209 z m 31.35612,-8.5852 c -3.08293,-5.4853 -5.60532,-11.8371 -5.60532,-14.115 0,-2.278 -1.15486,-4.1418 -2.56637,-4.1418 -1.4115,0 -2.58376,-3.7533 -2.60501,-8.34069 -0.0213,-4.58739 -1.60101,-12.82877 -3.51057,-18.31418 -4.21403,-12.10528 -2.85603,-46.57177 2.46712,-62.61622 3.85167,-11.60924 4.76052,-32.84561 1.99703,-46.66303 -1.53385,-7.66927 -2.21904,-8.13855 -9.62389,-6.59138 -23.01616,4.80899 -27.22025,4.71303 -27.22025,-0.62129 0,-3.63738 3.89006,-6.94372 13.55198,-11.51842 7.45359,-3.52911 15.10164,-8.28378 16.99565,-10.56593 1.89402,-2.28216 4.90739,-4.14937 6.69637,-4.14937 5.62066,0 13.088,-20.86984 13.77392,-38.49558 0.35705,-9.17478 1.73587,-17.78679 3.06405,-19.1378 2.75288,-2.8002 9.24735,2.74365 10.39367,8.87231 2.31966,12.40187 -8.7915,52.5251 -17.08265,61.68672 -3.81044,4.21049 -3.78514,5.25062 0.31974,13.1463 4.7447,9.12634 6.09369,44.9439 1.93735,51.43913 -12.55043,19.61289 -11.19193,56.49938 3.4954,94.90883 9.19117,24.0362 4.57395,34.8821 -6.47822,15.2174 z m -84.64957,-3.3718 c -1.6938,-1.6938 -3.07964,-4.9274 -3.07964,-7.1858 0,-2.2584 -0.91911,-5.2033 -2.042471,-6.5444 -3.3748,-4.02834 -7.62783,-19.31144 -10.744472,-38.60971 -2.40777,-14.9089 -2.19725,-23.04464 1.162122,-44.9115 2.25639,-14.6874 5.39162,-31.90127 6.96717,-38.25304 1.57555,-6.35177 3.33339,-26.35585 3.906321,-44.45351 0.92835,-29.32533 0.48834,-33.84265 -4.044821,-41.52578 -7.86957,-13.33794 -8.164272,-24.37469 -0.65084,-24.37469 6.712511,0 9.421081,4.23364 13.135191,20.53097 1.76923,7.76327 4.22776,17.46326 5.4634,21.55553 3.06858,10.16267 2.8426,39.36614 -0.31974,41.32057 -1.41151,0.87236 -2.56637,4.71705 -2.56637,8.54375 0,3.82671 -2.40454,15.59594 -5.34342,26.15385 -4.53955,16.30832 -5.13732,23.82925 -3.97345,49.99267 1.51923,34.15177 3.599,49.37971 7.03405,51.50268 1.25555,0.77597 2.28282,3.66811 2.28282,6.42697 0,2.75889 1.33712,7.15724 2.97139,9.77414 5.71585,9.1525 -2.71455,17.5 -10.15724,10.0573 z m -29.839573,-6.8242 c -2.08691,-4.0357 -4.13758,-14.42251 -4.55705,-23.08181 -0.41947,-8.6593 -1.70312,-15.75122 -2.85257,-15.75981 -2.68557,-0.0201 -0.7084,-49.79285 2.44733,-61.60854 1.75584,-6.57421 4.01112,-9.2139 8.41231,-9.84616 5.13564,-0.73777 5.81217,0.0113 4.63526,5.13274 -0.75793,3.29813 -2.76039,15.81297 -4.44992,27.81076 -2.64697,18.79687 -2.46803,24.65396 1.29371,42.34513 7.00486,32.94339 7.65038,42.34519 2.90739,42.34519 -2.22314,0 -5.74954,-3.3019 -7.83646,-7.3375 z m 50.485613,-13.83512 c -2.33232,-2.91524 -5.32178,-10.62614 -5.94756,-15.34094 -0.13633,-1.02712 -1.86874,-7.95632 -3.84979,-15.39823 -6.50578,-24.43918 -2.00054,-63.81095 7.51637,-65.68638 3.74941,-0.73887 4.03109,1.90568 2.61143,24.51764 -1.44245,22.97501 -0.96158,27.22076 5.14089,45.39008 7.85659,23.39205 8.11173,26.0809 2.67273,28.16804 -5.31193,2.03836 -5.17004,2.06716 -8.14407,-1.65021 z M 74.503147,881.92108 c -0.72711,-1.1765 0.098,-13.22192 1.83359,-26.76761 1.73559,-13.54569 2.30584,-26.79119 1.26722,-29.43444 -1.03862,-2.64326 -1.96957,-9.15234 -2.06877,-14.46463 -0.0992,-5.3123 -1.59505,-11.92396 -3.32408,-14.69258 -3.76401,-6.02714 0.0556,-11.31863 6.41015,-8.88018 9.766992,3.74794 12.375882,13.08787 12.510812,44.78908 0.10553,24.79624 -0.77064,32.42391 -4.615532,40.18105 -4.7534,9.59007 -9.53499,13.27945 -12.01339,9.26931 z m 46.727923,-1.33983 c -0.9432,-9.50208 0.89839,-32.9455 3.40467,-43.34124 2.20166,-9.13226 2.09111,-15.57207 -0.47489,-27.66362 -1.83952,-8.66824 -4.33448,-16.37221 -5.54434,-17.11995 -1.20986,-0.74774 -2.19975,-3.6011 -2.19975,-6.3408 0,-3.62903 1.77727,-4.98129 6.54688,-4.98129 10.84452,0 13.98409,12.00351 13.98409,53.46528 0,32.19587 -0.51745,36.32337 -5.31901,42.42756 -5.72678,7.28043 -9.88662,8.70232 -10.39765,3.55406 z m 19.70935,-53.02061 c -2.56864,-4.15615 1.33226,-9.95399 8.77008,-13.03484 3.99367,-1.65423 9.84764,-5.76082 13.00883,-9.12575 4.85306,-5.16585 5.4993,-7.92972 4.15215,-17.75825 -1.39889,-10.20603 -1.00784,-11.64019 3.17394,-11.64019 15.54307,0 15.99904,31.72197 0.65121,45.30483 -8.37094,7.40831 -26.66637,11.25366 -29.75621,6.2542 z"
       id="path3598"
       inkscape:connector-curvature="0" />
  </g>
</svg>
