<?xml version="1.0" encoding="UTF-8" standalone="no"?>
<!-- Created with Inkscape (http://www.inkscape.org/) -->

<svg
   xmlns:dc="http://purl.org/dc/elements/1.1/"
   xmlns:cc="http://creativecommons.org/ns#"
   xmlns:rdf="http://www.w3.org/1999/02/22-rdf-syntax-ns#"
   xmlns:svg="http://www.w3.org/2000/svg"
   xmlns="http://www.w3.org/2000/svg"
   xmlns:sodipodi="http://sodipodi.sourceforge.net/DTD/sodipodi-0.dtd"
   xmlns:inkscape="http://www.inkscape.org/namespaces/inkscape"
   width="300"
   height="300"
   id="svg2"
   version="1.1"
   inkscape:version="0.48.4 r9939"
   sodipodi:docname="image-seal.svg">
  <defs
     id="defs4" />
  <sodipodi:namedview
     id="base"
     pagecolor="#ffffff"
     bordercolor="#666666"
     borderopacity="1.0"
     inkscape:pageopacity="0.0"
     inkscape:pageshadow="2"
     inkscape:zoom="1.979899"
     inkscape:cx="118.51252"
     inkscape:cy="130.59117"
     inkscape:document-units="px"
     inkscape:current-layer="layer1"
     showgrid="false"
     inkscape:window-width="1215"
     inkscape:window-height="1000"
     inkscape:window-x="65"
     inkscape:window-y="24"
     inkscape:window-maximized="1" />
  <metadata
     id="metadata7">
    <rdf:RDF>
      <cc:Work
         rdf:about="">
        <dc:format>image/svg+xml</dc:format>
        <dc:type
           rdf:resource="http://purl.org/dc/dcmitype/StillImage" />
        <dc:title />
      </cc:Work>
    </rdf:RDF>
  </metadata>
  <g
     inkscape:label="Calque 1"
     inkscape:groupmode="layer"
     id="layer1"
     transform="translate(0,-752.36218)">
    <path
       style="fill:#000000"
       d="m 80.807759,1035.1126 c -5.410293,-3.3437 -9.945681,-31.3312 -10.168557,-62.74921 -0.207647,-29.2719 1.624826,-39.68881 16.156227,-91.8417 5.317599,-19.08476 6.786354,-73.34913 2.224142,-82.17281 -12.924108,-24.99619 -12.788692,-36.17231 0.279934,-23.10367 6.784877,6.78487 8.528149,11.78756 13.411275,38.48659 3.87414,21.18229 -2.62601,68.19699 -15.876154,114.83017 -2.20808,7.77122 -4.764968,22.39523 -5.681975,32.49783 -0.917004,10.10258 -2.112632,19.79117 -2.656957,21.53023 -0.544323,1.73904 1.626518,13.57938 4.824091,26.31187 5.611271,22.3437 4.807131,30.7342 -2.512034,26.2107 z m -31.877051,-10.0877 c -3.394481,-8.9282 -8.077839,-49.09652 -6.963672,-59.72625 3.213612,-30.65953 4.998764,-41.26395 7.172546,-42.60744 1.359401,-0.84014 2.471641,-3.75276 2.471641,-6.47246 0,-2.7197 1.769872,-7.36534 3.933048,-10.32366 3.291362,-4.5012 4.653876,-4.78054 8.351144,-1.7121 2.948252,2.44684 3.629742,5.23179 2.048448,8.37105 -11.452323,22.7357 -15.704105,52.1114 -11.704555,80.86709 3.793495,27.27427 3.830275,38.28617 0.12787,38.28617 -1.592714,0 -4.039125,-3.0071 -5.43647,-6.6824 z m 54.246342,-22.2919 c -4.998205,-16.08113 -6.150764,-25.49612 -5.367023,-43.84192 0.548938,-12.8496 1.823664,-24.18852 2.832723,-25.19759 1.00905,-1.00904 1.83465,-6.7093 1.83465,-12.66726 0,-5.95793 1.27165,-10.8326 2.82589,-10.8326 1.55425,0 2.8259,-2.54331 2.8259,-5.6518 0,-6.7064 7.89287,-7.63809 10.35483,-1.22231 0.93487,2.43619 -0.057,7.71204 -2.20417,11.72402 -4.51113,8.42913 -5.31514,55.26187 -1.50558,87.69826 1.93966,16.5152 1.66569,20.4861 -1.41295,20.479 -2.2686,-0.01 -6.40339,-8.3232 -10.18427,-20.4878 z m 72.7737,15.0326 c -16.20349,-2.3701 -23.43662,-6.4251 -32.38295,-18.15439 -7.11854,-9.33287 -7.17965,-9.87956 -7.18322,-64.25124 -0.004,-54.11367 3.54196,-97.37458 8.90636,-108.67157 5.51125,-11.60621 27.02969,-14.27213 67.39649,-8.34979 26.55828,3.89646 24.78305,-1.99143 23.72918,78.70198 -1.201,91.96034 -1.76401,95.81686 -16.00529,109.63761 -6.41702,6.2275 -14.01445,10.8996 -17.72416,10.8996 -3.57108,0 -8.18644,0.4608 -10.25636,1.0239 -2.06993,0.5632 -9.48594,0.1868 -16.48005,-0.8361 z m 28.73792,-15.5222 c 5.30577,-2.2168 11.09058,-6.98554 12.85512,-10.59707 6.25335,-12.79883 11.12398,-130.30653 6.20206,-149.63042 -2.04671,-8.03563 -4.3072,-10.58626 -10.47538,-11.81991 -9.11974,-1.82394 -54.21135,-0.13335 -56.46161,2.11699 -4.0287,4.02872 -8.92863,58.78762 -9.01763,100.7764 -0.0938,44.26502 0.26532,47.45843 6.35666,56.51797 10.12382,15.05694 31.78522,20.47264 50.54078,12.63604 z m -28.68222,-41.98743 c -12.15137,-6.14828 -14.0351,-14.13789 -12.44693,-52.79231 1.83376,-44.63176 3.66944,-48.13621 25.21446,-48.13621 14.32946,0 15.92771,0.67233 20.85377,8.77258 4.42998,7.28457 5.17541,13.15634 4.39461,34.61725 -0.51719,14.21458 -1.02911,30.67117 -1.13762,36.57024 -0.36384,19.77903 -18.66418,30.18433 -36.87829,20.96845 z m 22.4802,-17.37699 c 4.18391,-11.00453 5.93126,-52.93464 2.62804,-63.06376 -2.70399,-8.29164 -4.07228,-9.18418 -14.07949,-9.18418 -12.43522,0 -11.9156,-1.72529 -11.9156,39.56259 0,40.75326 -0.32479,39.56257 10.79174,39.56257 7.95201,0 10.48785,-1.3868 12.57531,-6.87722 z M 55.905546,875.57637 c 1.017106,-3.49705 3.01028,-10.49115 4.429277,-15.54245 1.418996,-5.05128 3.808612,-13.31704 5.310262,-18.36834 3.611269,-12.14771 1.706554,-25.12085 -5.934571,-40.42072 -6.533763,-13.08257 -5.491092,-18.69468 2.532924,-13.63325 8.585926,5.41588 17.462472,26.97464 17.547164,42.61743 0.07437,13.73898 -1.447422,19.78605 -9.456423,37.57611 -6.300244,13.99447 -18.08467,20.34152 -14.428633,7.77122 z m 59.202864,-4.23885 c 6.00971,-23.51256 5.9752,-44.91037 -0.12988,-80.53811 -1.83188,-10.69037 1.16654,-13.95149 6.49563,-7.06474 10.69565,13.82189 12.20571,72.63818 2.25485,87.82513 -6.49247,9.90876 -11.17918,9.78792 -8.62061,-0.2224 z"
       id="path3093"
       inkscape:connector-curvature="0" />
  </g>
</svg>
