<?xml version="1.0" encoding="UTF-8" standalone="no"?>
<!-- Created with Inkscape (http://www.inkscape.org/) -->

<svg
   xmlns:dc="http://purl.org/dc/elements/1.1/"
   xmlns:cc="http://creativecommons.org/ns#"
   xmlns:rdf="http://www.w3.org/1999/02/22-rdf-syntax-ns#"
   xmlns:svg="http://www.w3.org/2000/svg"
   xmlns="http://www.w3.org/2000/svg"
   xmlns:sodipodi="http://sodipodi.sourceforge.net/DTD/sodipodi-0.dtd"
   xmlns:inkscape="http://www.inkscape.org/namespaces/inkscape"
   width="300"
   height="300"
   id="svg2"
   version="1.1"
   inkscape:version="0.48.4 r9939"
   sodipodi:docname="image-seal.svg">
  <defs
     id="defs4" />
  <sodipodi:namedview
     id="base"
     pagecolor="#ffffff"
     bordercolor="#666666"
     borderopacity="1.0"
     inkscape:pageopacity="0.0"
     inkscape:pageshadow="2"
     inkscape:zoom="1.979899"
     inkscape:cx="200.43343"
     inkscape:cy="134.48103"
     inkscape:document-units="px"
     inkscape:current-layer="layer1"
     showgrid="false"
     inkscape:window-width="1215"
     inkscape:window-height="1000"
     inkscape:window-x="65"
     inkscape:window-y="24"
     inkscape:window-maximized="1" />
  <metadata
     id="metadata7">
    <rdf:RDF>
      <cc:Work
         rdf:about="">
        <dc:format>image/svg+xml</dc:format>
        <dc:type
           rdf:resource="http://purl.org/dc/dcmitype/StillImage" />
        <dc:title />
      </cc:Work>
    </rdf:RDF>
  </metadata>
  <g
     inkscape:label="Calque 1"
     inkscape:groupmode="layer"
     id="layer1"
     transform="translate(0,-752.36218)">
    <path
       style="fill:#000000"
       d="m 143.01792,994.36348 c -0.2081,-40.05959 -1.02156,-44.81503 -10.92149,-63.84384 -2.308,-4.43632 0.0879,-17.76409 4.7642,-26.50181 7.89732,-14.75629 22.26149,-25.00424 27.01659,-19.2747 1.989,2.3966 0.21128,5.17885 -7.25413,11.3534 -11.14236,9.21569 -17.09941,19.11529 -17.09941,28.41624 0,8.21582 3.22817,8.00498 7.57068,-0.49452 4.74555,-9.28842 13.998,-17.8958 19.23697,-17.8958 2.3858,0 6.4559,1.54877 9.04463,3.44172 4.43141,3.2403 4.02035,3.85423 -7.02393,10.49064 -11.3618,6.82719 -16.32939,14.88823 -12.74692,20.68476 0.98279,1.59018 4.31816,2.16058 7.68818,1.31473 6.14947,-1.5434 15.72459,2.06711 15.72459,5.92929 0,1.2063 -5.83157,3.12308 -12.95903,4.2595 l -12.95902,2.06622 0.90342,40.08462 0.90343,40.08467 -5.8402,0 -5.8402,0 -0.20835,-40.10759 z m 75.43589,39.49802 c -0.032,-0.3394 -0.62475,-12.8356 -1.31713,-27.7693 -0.69238,-14.93384 -2.05466,-32.15084 -3.02723,-38.26009 -1.65041,-10.36693 -2.34267,-11.19005 -10.37969,-12.34193 -11.07259,-1.58695 -13.47586,-9.13996 -3.28131,-10.31253 13.25991,-1.52516 8.95227,-19.64125 -6.17402,-25.9653 -9.01702,-3.76985 -9.35402,-8.92956 -0.66644,-10.20278 5.99297,-0.8783 15.71699,6.23347 14.40222,10.53324 -0.94091,3.07722 12.07649,16.27121 14.07834,14.26936 0.74814,-0.74814 1.36028,-5.12047 1.36028,-9.71629 0,-12.35595 -9.42186,-27.19596 -20.36418,-32.07495 -9.02769,-4.02525 -12.65579,-10.58235 -5.85534,-10.58235 10.24776,0 27.05678,10.9953 33.00759,21.59127 4.9462,8.8072 3.83989,30.2113 -2.06192,39.89212 -3.84634,6.30922 -4.72312,10.57626 -3.50612,17.06347 3.1391,16.73279 3.8037,67.71156 0.92794,71.17666 -2.36331,2.8476 -6.96488,4.5866 -7.14299,2.6994 z M 79.959606,1003.2073 c -5.486184,-13.58876 -7.564841,-29.63202 -8.759424,-67.60614 -1.045824,-33.24527 -0.674865,-38.84444 2.762549,-41.69723 2.183823,-1.8124 4.652698,-2.61318 5.486391,-1.77951 0.83369,0.8337 1.698031,18.48669 1.920755,39.22886 0.229117,21.33825 1.825012,43.6077 3.675519,51.28915 4.31782,17.92327 4.53943,25.20757 0.80606,26.49487 -1.688658,0.5823 -4.339992,-2.0862 -5.89185,-5.93 z m 35.464344,-2.1999 c -3.03651,-4.6322 -5.52091,-9.65477 -5.52091,-11.16125 0,-1.50646 -2.06695,-5.68747 -4.59321,-9.29107 -2.52627,-3.60358 -5.984754,-12.44765 -7.685524,-19.6534 -4.08173,-17.29343 -4.05364,-69.44543 0.0474,-88.10245 4.400804,-20.02049 4.188494,-76.00834 -0.33696,-88.86192 -1.91195,-5.43045 -4.87494,-11.35156 -6.58444,-13.15802 -3.88986,-4.11051 -1.78694,-7.82326 4.43114,-7.82326 10.035604,0 19.589804,25.92796 19.631604,53.27572 0.0247,16.13341 -1.12001,25.21487 -7.44106,59.03586 -5.9426,31.79601 -6.16249,38.77098 -2.24652,71.25872 2.19852,18.2394 4.09773,25.35393 7.55943,28.31793 2.54279,2.17722 4.62326,5.01269 4.62326,6.3011 0,1.28839 1.51698,4.09615 3.37106,6.23948 5.10825,5.90517 6.93745,16.50766 3.36016,19.47656 -2.29513,1.9048 -4.5209,0.3924 -8.61548,-5.854 z m 12.44323,-28.85562 c -6.92673,-8.95194 -10.93386,-29.13135 -12.25764,-61.72789 -0.93007,-22.9014 -0.52507,-26.76573 2.94447,-28.09714 6.44531,-2.47329 7.86923,1.75764 6.34706,18.85893 -1.65895,18.63831 3.21848,52.14221 8.83973,60.72132 5.81741,8.87849 0.39171,18.34199 -5.87362,10.24478 z m 37.11256,-101.20385 c -6.5968,-7.29093 -10.64573,-19.80788 -10.64573,-32.9105 0,-9.70192 -0.5607,-10.63996 -6.78806,-11.3565 -10.09375,-1.16141 -7.66686,-6.55196 4.62849,-10.28073 3.10559,-0.94181 4.41234,-6.02938 5.78682,-22.52971 1.49572,-17.95607 2.41908,-21.19018 5.86211,-20.53218 3.36008,0.64212 4.21297,4.57594 4.79662,22.12314 0.78764,23.68014 1.45638,24.56688 16.61644,22.03338 l 9.82595,-1.6421 -0.73201,-18.4261 c -0.54524,-13.72429 0.24215,-19.68581 3.08548,-23.36287 3.72938,-4.82281 3.90067,-4.82929 7.42064,-0.28129 2.46926,3.19044 3.53619,10.40677 3.39036,22.93173 -0.11694,10.05197 0.51922,19.0083 1.41391,19.903 0.89472,0.89472 6.58909,1.32157 12.65418,0.9486 9.73342,-0.59856 11.02744,-0.077 11.02744,4.44507 0,4.50226 -1.49589,5.12321 -12.34193,5.12321 l -12.34194,0 0,12.04049 c 0,6.62227 -1.64207,15.97047 -3.64901,20.77377 -6.52839,15.62463 -29.98917,22.07456 -40.00976,10.99959 z m 26.02213,-10.48578 c 3.40054,-3.22084 5.86869,-24.0234 3.56309,-30.03164 -0.81664,-2.12817 -5.54538,-3.29643 -13.34279,-3.29643 l -12.07784,0 0,12.46451 c 0,16.64525 5.72168,27.86189 13.08736,25.65616 2.98403,-0.89357 6.93061,-3.05026 8.77018,-4.7926 z m -124.707581,9.68516 c -1.382725,-3.60332 1.586395,-16.69968 6.84001,-30.17035 4.06772,-10.42994 2.582817,-33.18461 -2.734669,-41.90609 -5.090892,-8.34984 -6.426457,-15.36776 -2.924601,-15.36776 3.996344,0 12.91782,10.29644 16.639729,19.20422 3.885838,9.30012 3.750688,12.64067 -1.819438,44.97383 -3.783118,21.96006 -11.947029,33.83071 -16.001031,23.26615 z m 54.343161,-14.70957 c -0.78134,-2.03617 -0.61122,-6.73823 0.37806,-10.44904 2.50037,-9.3789 2.54532,-44.0249 0.074,-57.06045 -2.88013,-15.19204 3.39299,-12.74376 9.16572,3.57718 4.04126,11.42577 4.41814,28.63948 1.10422,50.43897 -0.51597,3.39403 -1.11164,7.99599 -1.32372,10.22654 -0.52095,5.47883 -7.6046,7.94108 -9.39831,3.2668 z"
       id="path3120"
       inkscape:connector-curvature="0" />
  </g>
</svg>
