<?xml version="1.0" encoding="UTF-8" standalone="no"?>
<!-- Created with Inkscape (http://www.inkscape.org/) -->

<svg
   xmlns:dc="http://purl.org/dc/elements/1.1/"
   xmlns:cc="http://creativecommons.org/ns#"
   xmlns:rdf="http://www.w3.org/1999/02/22-rdf-syntax-ns#"
   xmlns:svg="http://www.w3.org/2000/svg"
   xmlns="http://www.w3.org/2000/svg"
   xmlns:sodipodi="http://sodipodi.sourceforge.net/DTD/sodipodi-0.dtd"
   xmlns:inkscape="http://www.inkscape.org/namespaces/inkscape"
   width="300"
   height="300"
   id="svg2"
   version="1.1"
   inkscape:version="0.48.4 r9939"
   sodipodi:docname="image-seal.svg">
  <defs
     id="defs4" />
  <sodipodi:namedview
     id="base"
     pagecolor="#ffffff"
     bordercolor="#666666"
     borderopacity="1.0"
     inkscape:pageopacity="0.0"
     inkscape:pageshadow="2"
     inkscape:zoom="1.979899"
     inkscape:cx="200.43343"
     inkscape:cy="122.13442"
     inkscape:document-units="px"
     inkscape:current-layer="layer1"
     showgrid="false"
     inkscape:window-width="1215"
     inkscape:window-height="1000"
     inkscape:window-x="65"
     inkscape:window-y="24"
     inkscape:window-maximized="1" />
  <metadata
     id="metadata7">
    <rdf:RDF>
      <cc:Work
         rdf:about="">
        <dc:format>image/svg+xml</dc:format>
        <dc:type
           rdf:resource="http://purl.org/dc/dcmitype/StillImage" />
        <dc:title />
      </cc:Work>
    </rdf:RDF>
  </metadata>
  <g
     inkscape:label="Calque 1"
     inkscape:groupmode="layer"
     id="layer1"
     transform="translate(0,-752.36218)">
    <path
       style="fill:#000000"
       d="m 147.86438,1030.6421 c -3.82185,-7.1412 -1.90067,-117.97484 2.41774,-139.48098 1.64872,-8.21081 2.52405,-15.40235 1.94516,-15.98122 -0.57887,-0.57889 -4.30679,1.07979 -8.28423,3.68589 -4.67276,3.06173 -8.17274,3.79738 -9.89111,2.079 -1.71839,-1.71835 4.3939,-9.61557 17.27357,-22.31792 l 19.93296,-19.65852 0.42102,-26.74678 c 0.70659,-44.88822 0.87274,-47.30615 3.25085,-47.30615 5.17818,0 8.66375,15.35328 8.66375,38.16192 0,27.32081 0.47473,28.12405 29.46846,49.86104 10.58325,7.93442 14.39156,12.58619 14.39156,17.57893 0,9.87547 -5.12839,8.52735 -26.31274,-6.91685 -10.34028,-7.53844 -19.44367,-13.66522 -20.22981,-13.61506 -0.78613,0.0502 -4.34206,2.51773 -7.90204,5.48348 -5.42046,4.51567 -6.17573,6.97523 -4.64595,15.12975 2.05701,10.9648 2.3237,11.11349 24.37413,13.58903 15.0185,1.68609 16.23942,2.37675 19.96535,11.29412 3.7806,9.04823 3.56783,10.25011 -4.4917,25.37132 -5.87996,11.03194 -8.55311,19.97985 -8.76462,29.33807 -0.34634,15.32223 3.33434,23.61941 17.12075,38.59449 20.23221,21.97664 26.18759,34.29814 18.08087,37.40904 -6.94232,2.664 -30.48193,-23.982 -42.9143,-48.57748 -6.28004,-12.42405 -5.04225,-41.84265 2.29213,-54.47795 3.30849,-5.69969 6.01542,-13.87204 6.01542,-18.16078 0,-6.54044 -1.38121,-8.07395 -8.5664,-9.51099 -4.71154,-0.9423 -12.60664,-1.71328 -17.54471,-1.71328 -8.53364,0 -9.16155,0.71278 -12.67827,14.39156 -3.94625,15.34939 -4.47225,75.9641 -0.90393,104.16332 1.40777,11.1251 0.98968,16.9683 -1.422,19.8741 -4.62545,5.5734 -7.46618,5.1776 -11.06191,-1.5411 z m -48.615093,-3.2519 c -6.628181,-8.1739 -12.464767,-33.27125 -15.140647,-65.10471 -2.561506,-30.47306 -2.213358,-38.96843 3.145457,-76.75503 3.314166,-23.36917 5.886616,-48.6572 5.716513,-56.19564 -0.348567,-15.44868 -6.785441,-37.50495 -14.123522,-48.39506 -2.696652,-4.00196 -4.903006,-8.62782 -4.903006,-10.2797 0,-4.93334 7.818246,-3.4089 13.946503,2.71938 15.893255,15.89325 21.048415,53.8996 13.724815,101.18601 -6.46107,41.71721 -8.599852,67.54142 -6.810992,82.23754 1.009348,8.29228 2.1984,18.16079 2.64229,21.93 0.443915,3.76923 2.191573,11.78738 3.883692,17.81814 6.46063,23.02587 7.8695,29.92227 6.54928,32.05837 -1.97776,3.2001 -5.44376,2.7104 -8.630383,-1.2193 z m -32.208452,-2.8455 c -9.459893,-11.2592 -15.619152,-101.13544 -7.48833,-109.27004 1.884611,-1.88553 3.426564,-5.73906 3.426564,-8.56342 0,-3.42956 1.593417,-4.81587 4.797187,-4.17367 3.554389,0.71247 4.553097,3.0726 3.854951,9.11005 -1.957278,16.92654 -1.473832,77.46227 0.771089,96.55378 2.263832,19.2525 0.808973,23.6874 -5.361461,16.3433 z m 54.189855,-19.0845 c -7.34206,-15.18437 -13.58613,-65.22736 -10.85965,-87.03473 2.41405,-19.30836 5.46959,-24.98998 10.65222,-19.80732 2.36031,2.3603 2.47455,6.47319 0.42827,15.41554 -2.91486,12.7379 0.65608,46.29485 7.32252,68.81118 1.78554,6.03076 3.88338,14.97408 4.66189,19.87403 1.1879,7.4767 0.56027,8.9091 -3.90373,8.9091 -2.92555,0 -6.66123,-2.7755 -8.30152,-6.1678 z M 61.610763,885.53422 c -0.930526,-1.50563 0.230237,-10.2402 2.579465,-19.41018 6.660011,-25.99653 5.174614,-50.16568 -4.232778,-68.87184 -3.338462,-6.63837 1.434964,-8.47983 6.751892,-2.60468 11.03757,12.19638 17.48359,68.48174 9.5656,83.52471 -4.926843,9.36025 -11.415801,12.61795 -14.664179,7.36199 z m 51.690447,-15.50125 c 4.64491,-29.84206 4.98642,-54.88601 0.95673,-70.16577 -4.19661,-15.91264 -2.39433,-22.10008 4.44274,-15.25249 5.82239,5.83136 10.08383,27.76223 9.85773,50.73118 -0.25438,25.84893 -4.82205,42.90578 -11.85216,44.25965 -4.40968,0.84925 -4.83923,-0.3584 -3.40504,-9.57255 z m 24.11843,-33.52583 c -3.04356,-1.9268 -2.91938,-3.81361 0.71336,-10.83852 2.41913,-4.67809 5.18359,-17.79417 6.14325,-29.14691 1.79089,-21.18625 3.20395,-23.71093 9.21625,-16.46658 2.48711,2.9968 2.95169,9.69449 1.64656,23.73734 -2.54714,27.40607 -8.56238,38.51178 -17.71942,32.71467 z m 77.03733,-9.54532 C 203.2081,814.60015 194.5591,796.25584 194.5591,784.75893 c 0,-15.10986 8.21868,-10.47704 12.73136,7.17659 2.55684,10.00235 6.84649,17.77726 13.45359,24.38434 9.30062,9.30061 11.37197,16.9475 5.15158,19.01824 -1.61101,0.5363 -6.75841,-3.23303 -11.43866,-8.37628 z"
       id="path3186"
       inkscape:connector-curvature="0" />
  </g>
</svg>
