<?xml version="1.0" encoding="UTF-8" standalone="no"?>
<!-- Created with Inkscape (http://www.inkscape.org/) -->

<svg
   xmlns:dc="http://purl.org/dc/elements/1.1/"
   xmlns:cc="http://creativecommons.org/ns#"
   xmlns:rdf="http://www.w3.org/1999/02/22-rdf-syntax-ns#"
   xmlns:svg="http://www.w3.org/2000/svg"
   xmlns="http://www.w3.org/2000/svg"
   xmlns:sodipodi="http://sodipodi.sourceforge.net/DTD/sodipodi-0.dtd"
   xmlns:inkscape="http://www.inkscape.org/namespaces/inkscape"
   width="300"
   height="300"
   viewBox="0 0 300 300"
   id="svg2"
   version="1.1"
   inkscape:version="0.91 r13725"
   sodipodi:docname="活-seal.svg">
  <defs
     id="defs4" />
  <sodipodi:namedview
     id="base"
     pagecolor="#ffffff"
     bordercolor="#666666"
     borderopacity="1.0"
     inkscape:pageopacity="0.0"
     inkscape:pageshadow="2"
     inkscape:zoom="1.01"
     inkscape:cx="163.14457"
     inkscape:cy="147.29765"
     inkscape:document-units="px"
     inkscape:current-layer="layer1"
     showgrid="false"
     units="px"
     inkscape:window-width="861"
     inkscape:window-height="648"
     inkscape:window-x="124"
     inkscape:window-y="8"
     inkscape:window-maximized="0" />
  <metadata
     id="metadata7">
    <rdf:RDF>
      <cc:Work
         rdf:about="">
        <dc:format>image/svg+xml</dc:format>
        <dc:type
           rdf:resource="http://purl.org/dc/dcmitype/StillImage" />
        <dc:title></dc:title>
      </cc:Work>
    </rdf:RDF>
  </metadata>
  <g
     inkscape:label="Layer 1"
     inkscape:groupmode="layer"
     id="layer1"
     transform="translate(0,-752.36216)">
    <path
       style="fill:#000000"
       d="m 173.56616,1038.043 c -20.82319,-7.0191 -22.72965,-11.899 -23.10523,-59.12538 -0.28162,-35.40767 0.0721,-38.56428 4.23008,-37.76404 3.07363,0.59159 4.58899,3.41842 4.69675,8.76241 0.22835,11.31267 2.87665,14.19868 13.02876,14.19868 8.18892,0 8.97008,-0.66757 8.97008,-7.66661 0,-4.21667 1.1731,-8.39163 2.60671,-9.27759 1.43391,-0.88625 2.60693,-3.85874 2.60693,-6.60587 0,-3.33859 3.67327,-6.68464 11.07894,-10.09149 14.87285,-6.84221 20.20283,-13.76029 20.20283,-26.22245 0,-15.13728 -4.62919,-23.55426 -12.95425,-23.55426 -9.58468,0 -15.0232,-4.77627 -19.14601,-16.81495 -3.6852,-10.76039 -11.91346,-15.42111 -22.38859,-12.68198 -4.13511,1.08138 -5.20278,4.16932 -6.00252,17.36124 -1.49273,24.62886 0.20103,26.79462 22.29659,28.51127 10.254,0.79646 20.69654,2.25561 23.20562,3.24249 6.95828,2.73686 5.66221,11.2884 -2.00241,13.21185 -8.45126,2.12124 -35.14466,-1.17706 -35.14466,-4.34251 0,-1.33058 -2.20267,-2.41928 -4.89458,-2.41928 -2.69199,0 -6.18657,-1.55696 -7.766,-3.45991 -6.81731,-8.21449 -9.30934,-57.88588 -4.33833,-86.4753 2.89676,-16.65986 4.08734,-19.5512 8.05055,-19.5512 2.05397,0 3.73457,-1.17309 3.73457,-2.60696 0,-1.43367 2.3462,-2.60677 5.21379,-2.60677 2.86734,0 5.21353,-1.21402 5.21353,-2.69797 0,-1.73214 9.55437,-2.43217 26.68928,-1.95516 22.49978,0.62633 26.82032,1.42661 27.52307,5.09834 0.66706,3.48541 -2.06092,4.71721 -13.65518,6.16576 l -14.48896,1.81026 0,19.25085 0,19.25065 17.02614,0 c 13.05416,0 17.39186,0.95318 18.59389,4.08555 2.54926,6.64326 -2.83034,9.42209 -19.94045,10.30025 -8.86641,0.45509 -16.63557,1.3423 -17.26492,1.97164 -3.07095,3.07098 3.05149,9.79049 11.44472,12.56038 17.05583,5.62902 20.01095,10.4982 21.01926,34.63494 1.00394,24.03142 0.13821,25.39081 -21.02014,33.00557 -6.84888,2.46499 -10.48188,5.7522 -12.38249,11.20418 -5.05921,14.513 -3.78834,17.36504 7.73766,17.36504 9.80137,0 10.4272,-0.46012 10.4272,-7.66661 0,-18.20604 12.84461,-8.80071 13.3946,9.808 0.73936,25.01676 0.21993,44.78044 -1.4044,53.43904 -1.4182,7.5598 -3.35965,9.5381 -12.69764,12.9443 -12.48588,4.5525 -32.54466,7.3752 -38.39479,5.4036 z m 28.71381,-14.2918 c 9.00876,-2.6989 9.89273,-3.8405 11.38132,-14.7003 0.88773,-6.4764 1.61396,-16.69667 1.61396,-22.71185 l 0,-10.93677 -26.1362,-0.42076 -26.13635,-0.421 -2.95969,7.15961 c -1.62791,3.93761 -2.61621,8.33239 -2.19636,9.7663 0.41985,1.43368 1.24069,7.29898 1.82404,13.03387 1.93545,19.0248 18.43685,26.4738 42.60928,19.2309 z M 175.11186,838.98712 c 9.47863,0 11.48838,-3.25917 11.48838,-18.63227 0,-15.13502 -3.79623,-20.88569 -12.48668,-18.91496 -9.96378,2.2595 -15.28316,9.38997 -17.36582,23.27836 -1.93814,12.9245 2.07542,22.2341 7.32342,16.98626 1.4944,-1.49451 6.46287,-2.71739 11.0407,-2.71739 z m -74.48347,184.43198 c -1.752575,-4.6579 -4.167215,-10.8181 -5.366115,-13.6851 -1.19899,-2.8675 -3.59172,-15.31761 -5.317299,-27.66702 -3.111363,-22.26664 -0.820965,-57.55398 5.395249,-83.12281 5.344735,-21.9841 8.009205,-45.08028 8.420585,-72.99108 0.38574,-26.16478 -0.28617,-31.45005 -5.282115,-41.54694 -3.14822,-6.36289 -5.724068,-13.19401 -5.724068,-15.18049 0,-6.94716 8.400843,-1.83395 14.315703,8.71351 5.17515,9.22827 6.00951,14.58764 6.2905,40.40565 0.19377,17.816 -1.32017,38.13879 -3.77108,50.62073 -8.01967,40.84326 -9.04939,47.14071 -10.657215,65.17064 -0.89515,10.03636 -2.79485,19.71422 -4.22178,21.50637 -1.68682,2.11863 -1.69678,3.25851 -0.0285,3.25851 1.41138,0 3.32799,7.43665 4.25913,16.52596 0.93125,9.0892 4.632785,24.02676 8.225545,33.19407 3.59278,9.1679 5.96231,18.1544 5.26581,19.9703 -2.34345,6.1067 -8.59262,3.3682 -11.80443,-5.1723 z m -25.639136,-9.1229 c -11.513755,-29.93881 -10.81461,-95.81041 1.208374,-113.84716 3.103422,-4.65578 3.464799,-4.68953 5.081748,-0.47587 0.95741,2.49502 0.380281,7.09662 -1.282486,10.2258 -4.474476,8.42066 -5.270439,58.09452 -1.156325,72.16351 1.886691,6.45197 3.443043,15.44546 3.458555,19.98562 0.01562,4.5401 1.494561,8.7483 3.286753,9.3504 2.540381,0.8566 2.470031,2.0539 -0.31919,5.4336 -4.978555,6.0295 -7.091993,5.4481 -10.277429,-2.8359 z m 46.103976,-7.8202 c -1.55732,-3.9433 -3.74155,-8.98739 -4.85399,-11.20947 -6.40464,-12.79358 -8.38871,-33.35095 -5.41355,-56.0919 3.53668,-27.03301 7.43445,-37.62375 13.84714,-37.62375 5.52524,0 5.54565,0.53237 0.63886,16.7069 -5.535,18.24594 -4.91101,48.3744 1.47334,71.12677 2.9456,10.49696 4.63598,20.24915 3.75639,21.67235 -2.82786,4.5755 -6.54276,2.7751 -9.44819,-4.5809 z m 2.23026,-127.3617 c -1.91316,-1.91308 0.69298,-27.61993 3.07051,-30.28744 1.68469,-1.89053 -3.08031,-46.48194 -6.41385,-60.02096 -1.50658,-6.11852 -0.95673,-7.16859 3.75259,-7.16859 5.08041,0 7.27961,5.35305 5.73461,13.96006 -0.2201,1.22631 0.85642,3.74354 2.39205,5.59404 1.53922,1.85464 2.99535,16.11891 3.24439,31.78581 0.35641,22.39859 -0.5182,30.46648 -4.12647,38.07039 -4.84753,10.21556 -5.16773,10.55283 -7.65383,8.06669 z m -46.209794,-9.62725 c 0,-3.29766 1.227924,-7.22365 2.728725,-8.72441 4.544583,-4.54472 3.599928,-53.76685 -1.210427,-63.06899 -5.185436,-10.02755 -5.266123,-16.05634 -0.214888,-16.05634 3.307522,0 4.700745,4.60323 3.676674,12.14797 -0.12847,0.94628 1.582411,2.73701 3.801961,3.97902 2.25755,1.26349 3.356381,4.02831 2.494009,6.27568 -0.847851,2.20937 -0.105034,6.70128 1.65077,9.98201 5.008465,9.35818 0.288668,55.23221 -6.118189,59.46575 -4.974057,3.28665 -6.808635,2.20884 -6.808635,-4.00069 z"
       id="path3460"
       inkscape:connector-curvature="0" />
  </g>
</svg>
