<?xml version="1.0" encoding="UTF-8" standalone="no"?>
<!-- Created with Inkscape (http://www.inkscape.org/) -->

<svg
   xmlns:dc="http://purl.org/dc/elements/1.1/"
   xmlns:cc="http://creativecommons.org/ns#"
   xmlns:rdf="http://www.w3.org/1999/02/22-rdf-syntax-ns#"
   xmlns:svg="http://www.w3.org/2000/svg"
   xmlns="http://www.w3.org/2000/svg"
   xmlns:sodipodi="http://sodipodi.sourceforge.net/DTD/sodipodi-0.dtd"
   xmlns:inkscape="http://www.inkscape.org/namespaces/inkscape"
   width="300"
   height="300"
   id="svg2"
   version="1.1"
   inkscape:version="0.48.4 r9939"
   sodipodi:docname="image-seal.svg">
  <defs
     id="defs4" />
  <sodipodi:namedview
     id="base"
     pagecolor="#ffffff"
     bordercolor="#666666"
     borderopacity="1.0"
     inkscape:pageopacity="0.0"
     inkscape:pageshadow="2"
     inkscape:zoom="2.0018437"
     inkscape:cx="145.03351"
     inkscape:cy="130.6666"
     inkscape:document-units="px"
     inkscape:current-layer="layer1"
     showgrid="false"
     inkscape:window-width="1215"
     inkscape:window-height="1000"
     inkscape:window-x="65"
     inkscape:window-y="24"
     inkscape:window-maximized="1"
     fit-margin-top="10"
     fit-margin-left="10"
     fit-margin-right="10"
     fit-margin-bottom="10" />
  <metadata
     id="metadata7">
    <rdf:RDF>
      <cc:Work
         rdf:about="">
        <dc:format>image/svg+xml</dc:format>
        <dc:type
           rdf:resource="http://purl.org/dc/dcmitype/StillImage" />
        <dc:title />
      </cc:Work>
    </rdf:RDF>
  </metadata>
  <g
     inkscape:label="Calque 1"
     inkscape:groupmode="layer"
     id="layer1"
     transform="translate(0,-752.36218)">
    <path
       style="fill:#000000"
       d="m 159.39651,1040.0062 c 0.9643,-4.3904 1.90914,-28.557 2.09965,-53.70342 l 0.34637,-45.72082 -10.37767,-8.71259 -10.37766,-8.71257 -1.60009,-26.32391 c -1.74131,-28.64763 -1.19773,-32.97958 4.13836,-32.97958 4.59373,0 6.27072,5.99612 6.70129,23.9605 0.36767,15.33847 4.22291,29.28505 8.09527,29.28505 2.64261,0 0.76253,-40.12603 -2.43241,-51.91441 -1.23956,-4.57361 -5.08405,-9.40599 -8.99597,-11.30763 -4.86404,-2.36444 -7.70062,-6.77291 -9.84982,-15.30809 -3.34339,-13.2779 -7.06475,-16.71165 -4.25698,-3.92801 2.41519,10.99636 -3.68917,33.83241 -9.44629,35.33793 -4.10627,1.07381 -4.49843,-2.09662 -4.20483,-33.99473 0.20499,-22.27482 -0.76224,-36.55491 -2.63694,-38.92998 -1.6284,-2.06305 -3.74779,-7.04556 -4.7097,-11.07225 -1.31476,-5.50362 -0.76018,-7.32126 2.23379,-7.32126 5.80262,0 11.11314,9.78168 15.17639,27.95391 l 3.57166,15.97367 0.797,-16.80915 c 0.67082,-14.14723 1.51402,-16.67286 5.32456,-15.94872 3.50382,0.66587 4.67967,4.16556 5.20039,15.47801 0.785,17.05511 5.65917,37.24694 8.99112,37.24694 2.89733,0 2.88652,-11.64427 -0.0213,-24.15288 -2.18623,-9.40095 1.66544,-37.29366 5.70809,-41.3363 1.07534,-1.07535 1.95517,-3.96589 1.95517,-6.42341 0,-5.56267 8.2443,-13.2803 14.18659,-13.2803 5.9007,0 5.65622,1.76869 -2.31411,16.74089 -5.74652,10.79487 -6.769,16.2061 -6.80047,35.99013 -0.041,25.76872 1.51098,32.46187 7.52693,32.46187 3.39302,0 3.8505,-3.65683 2.8477,-22.76287 -1.14624,-21.83845 0.70072,-28.71163 6.22963,-23.18272 3.90029,3.90026 7.71874,35.81594 5.3532,44.74362 -1.22361,4.61802 -5.02952,9.2896 -9.23118,11.33079 -7.13866,3.46799 -7.14918,3.51791 -7.14918,33.94404 0,19.02972 1.02437,30.47091 2.72817,30.47091 4.69693,0 7.62868,-12.19405 6.49609,-27.01913 -1.39729,-18.28998 0.7596,-28.8887 5.87903,-28.8887 2.21712,0 4.8175,2.69556 5.77861,5.99013 1.3027,4.46549 2.10035,2.60208 3.13392,-7.32127 0.76256,-7.32126 0.35547,-14.76179 -0.90464,-16.5345 -3.42741,-4.8217 8.62959,-27.39308 14.6326,-27.39308 2.66896,0 4.85267,-1.05831 4.85267,-2.35177 0,-1.29347 2.39605,-2.97835 5.32455,-3.74418 4.34974,-1.13748 5.32456,-3.6314 5.32456,-13.62189 l 0,-12.22949 -21.29822,0 c -17.03512,0 -21.29823,-0.78918 -21.29823,-3.9427 0,-5.03535 10.49159,-7.76696 30.22178,-7.86857 20.56977,-0.10596 25.77319,5.51735 24.55975,26.54152 -0.86133,14.92292 -4.67759,22.54164 -11.29125,22.54164 -2.07831,0 -6.42421,2.46883 -9.65755,5.48631 -5.85983,5.46861 -5.87881,5.80606 -5.87881,104.4944 0,54.45444 -1.02668,101.10462 -2.28155,103.66702 -1.25483,2.5625 -3.95039,4.659 -5.99012,4.659 -3.083,0 -3.70858,-12.7725 -3.70858,-75.71775 0,-47.60677 -0.9884,-76.32867 -2.66228,-77.36318 -1.64955,-1.01947 -2.66228,3.83336 -2.66228,12.757 0,19.29009 -4.26622,30.80351 -12.1469,32.78145 l -6.2903,1.57875 1.03342,40.33607 c 1.26011,49.18356 -2.34898,71.80486 -11.67353,73.16816 -5.45096,0.7969 -5.87762,0.092 -4.29836,-7.0979 z m -50.18274,-9.7606 C 89.675767,987.87544 90.075587,991.06333 92.852097,899.79406 c 0.62362,-20.49954 1.15924,-41.17314 1.19028,-45.94133 0.0312,-4.76819 1.23644,-10.87431 2.67865,-13.56912 1.442214,-2.69481 1.625724,-5.98171 0.40778,-7.3042 -1.21794,-1.32251 -3.44078,-10.9619 -4.93967,-21.42085 -2.74497,-19.1537 -9.82835,-38.22269 -14.19824,-38.22269 -1.29741,0 -2.35894,-2.39605 -2.35894,-5.32456 0,-9.59373 11.98696,-6.76487 18.92869,4.46709 11.005053,17.80657 11.957673,31.41174 10.032903,143.28933 -1.01705,59.11518 0.30344,70.8952 10.74356,95.84197 9.98983,23.8708 10.45647,27.9539 3.19463,27.9539 -3.14524,0 -6.62651,-3.4813 -9.31797,-9.318 z m 130.0327,6.4687 c -2.49408,-4.0354 -11.41955,-40.74852 -14.51738,-59.71419 -1.43502,-8.78551 -3.9948,-21.36478 -5.68838,-27.95391 -1.69361,-6.58914 -3.57741,-25.46517 -4.18624,-41.94672 -1.01375,-27.44289 -0.58893,-30.91796 5.04461,-41.2653 6.77055,-12.43577 17.96867,-23.76759 22.12523,-22.38944 5.84123,1.93673 3.92604,10.12116 -4.07938,17.43297 -7.91085,7.22545 -8.54138,9.15123 -9.81435,29.97464 -1.42291,23.27608 2.91815,68.75798 7.35369,77.04591 1.42011,2.6535 3.64356,11.77707 4.941,20.27458 1.29746,8.49754 4.29479,22.43646 6.66078,30.97546 2.36599,8.539 3.62184,16.6257 2.79076,17.9704 -2.05861,3.3309 -8.47262,3.0869 -10.63034,-0.4044 z M 75.587287,1022.205 c -1.70296,-2.0519 -3.72924,-8.45 -4.5029,-14.2179 -0.96404,-7.1876 -3.19226,-11.35195 -7.08193,-13.23564 -4.21603,-2.04175 -4.56538,-2.79478 -1.35858,-2.92864 3.71776,-0.15521 4.20451,-3.59719 3.50803,-24.80625 -0.44476,-13.54434 0.48384,-32.71274 2.06358,-42.59644 2.40548,-15.05004 3.7147,-17.97038 8.05645,-17.97038 4.6539,0 5.00634,1.29363 3.44528,12.64582 -2.42877,17.66222 -2.13458,30.60557 1.25551,55.24226 6.04387,43.92257 6.20334,48.33897 1.80619,50.02637 -2.25247,0.8643 -5.48871,-0.1073 -7.19163,-2.1592 z m 51.070343,-28.50322 c -1.95308,-4.79317 -4.55543,-11.11089 -5.78303,-14.03939 -3.81699,-9.10576 -5.71237,-20.52126 -6.99857,-42.15078 -1.42387,-23.9453 2.39648,-39.81572 9.26606,-38.49294 3.74481,0.72108 4.44028,5.02832 4.64461,28.76564 0.18636,21.66123 1.56965,31.65188 6.17212,44.58107 3.26246,9.16492 5.55037,19.33591 5.08423,22.60218 -1.32683,9.29664 -8.37505,8.57634 -12.38542,-1.26578 z M 66.214127,871.17457 c 1.06278,-6.22307 2.81408,-18.50283 3.89177,-27.28834 1.07766,-8.78552 2.35308,-17.17169 2.83426,-18.63595 1.03192,-3.14026 -1.18773,-9.53167 -8.17732,-23.54651 -6.11826,-12.26775 -6.13099,-12.39423 -1.24661,-12.39423 2.12186,0 7.06414,4.20357 10.98285,9.34126 6.14653,8.05853 7.19853,12.17138 7.66086,29.95063 0.76916,29.57803 -1.00442,42.02109 -6.88989,48.33839 -8.289,8.8972 -11.23926,7.01898 -9.05592,-5.76525 z"
       id="path3106"
       inkscape:connector-curvature="0" />
  </g>
</svg>
