<?xml version="1.0" encoding="UTF-8" standalone="no"?>
<!-- Created with Inkscape (http://www.inkscape.org/) -->

<svg
   xmlns:dc="http://purl.org/dc/elements/1.1/"
   xmlns:cc="http://creativecommons.org/ns#"
   xmlns:rdf="http://www.w3.org/1999/02/22-rdf-syntax-ns#"
   xmlns:svg="http://www.w3.org/2000/svg"
   xmlns="http://www.w3.org/2000/svg"
   xmlns:sodipodi="http://sodipodi.sourceforge.net/DTD/sodipodi-0.dtd"
   xmlns:inkscape="http://www.inkscape.org/namespaces/inkscape"
   width="300"
   height="300"
   id="svg2"
   version="1.1"
   inkscape:version="0.48.4 r9939"
   sodipodi:docname="image-seal.svg">
  <defs
     id="defs4" />
  <sodipodi:namedview
     id="base"
     pagecolor="#ffffff"
     bordercolor="#666666"
     borderopacity="1.0"
     inkscape:pageopacity="0.0"
     inkscape:pageshadow="2"
     inkscape:zoom="1.979899"
     inkscape:cx="130.93154"
     inkscape:cy="137.35134"
     inkscape:document-units="px"
     inkscape:current-layer="layer1"
     showgrid="false"
     inkscape:window-width="1215"
     inkscape:window-height="1000"
     inkscape:window-x="65"
     inkscape:window-y="24"
     inkscape:window-maximized="1"
     fit-margin-top="10"
     fit-margin-left="10"
     fit-margin-right="10"
     fit-margin-bottom="10" />
  <metadata
     id="metadata7">
    <rdf:RDF>
      <cc:Work
         rdf:about="">
        <dc:format>image/svg+xml</dc:format>
        <dc:type
           rdf:resource="http://purl.org/dc/dcmitype/StillImage" />
        <dc:title />
      </cc:Work>
    </rdf:RDF>
  </metadata>
  <g
     inkscape:label="Calque 1"
     inkscape:groupmode="layer"
     id="layer1"
     transform="translate(0,-752.36218)">
    <path
       style="fill:#000000"
       d="m 227.23461,1039.4845 c -3.84777,-13.8448 -10.17562,-25.343 -15.47752,-28.124 -3.12404,-1.6386 -14.59536,-3.4119 -25.49186,-3.9406 -10.8965,-0.5288 -22.83713,-1.7707 -26.5347,-2.7597 -6.82131,-1.8247 -15.6404,-12.06368 -10.39066,-12.06368 1.50867,0 0.36799,-3.26896 -2.53484,-7.26434 -3.94088,-5.42416 -5.73432,-13.51374 -7.07981,-31.93464 l -1.80197,-24.67027 6.34035,0.89609 c 5.85138,0.82703 6.40204,2.22033 7.14023,18.06638 0.43993,9.44362 1.70035,18.07404 2.80092,19.17868 1.10059,1.10465 7.64741,-3.40169 14.54848,-10.01408 10.59757,-10.15427 12.42005,-13.33824 11.72774,-20.48899 -0.77419,-7.99644 -1.57478,-8.58581 -14.42268,-10.61736 -20.44228,-3.23242 -23.19657,-7.68257 -24.29211,-39.24924 -0.97464,-28.08338 1.6794,-39.29232 10.81949,-45.69428 4.3744,-3.06394 4.93315,-5.49771 3.4629,-15.08385 -0.96421,-6.28674 -1.98932,-15.29374 -2.27807,-20.01556 -0.28872,-4.72182 -1.57736,-8.58512 -2.86363,-8.58512 -3.65285,0 -14.83157,-13.04399 -14.83157,-17.30633 0,-2.31516 2.59501,-3.82627 6.57079,-3.82627 4.82718,0 8.39752,2.89371 13.45484,10.90501 l 6.88402,10.905 13.62131,-1.63654 c 7.49172,-0.90009 16.67137,-1.64686 20.39922,-1.65949 5.23243,-0.0185 8.18769,-2.58285 12.96068,-11.24965 3.4005,-6.17468 6.42103,-11.55185 6.71226,-11.94927 1.46867,-2.00406 9.21044,3.07172 9.21044,6.03872 0,3.15008 -7.94657,20.89439 -13.58972,30.34513 -5.94109,9.94974 -10.40022,22.04336 -9.24132,25.06342 0.69947,1.82274 4.48311,4.12009 8.40811,5.10519 13.93117,3.4965 15.64556,7.75225 15.51483,38.51384 -0.14635,34.45828 -4.40962,44.40314 -21.02168,49.03836 -8.51547,2.37608 -10.60582,4.24768 -11.2996,10.11722 -1.0904,9.22475 2.19759,13.0082 17.49557,20.13192 15.57211,7.25138 21.70502,12.61285 19.87698,17.3767 -1.96488,5.1204 -9.48038,4.64991 -17.01362,-1.06511 -3.46491,-2.6286 -10.93271,-7.44675 -16.59518,-10.70701 l -10.29537,-5.92773 -9.47983,8.72583 c -5.21387,4.79919 -9.89253,9.61734 -10.39694,10.707 -1.50129,3.24298 -10.4954,2.24766 -11.9353,-1.32079 -0.73283,-1.81608 -1.42624,-0.26019 -1.54094,3.45748 -0.38032,12.32821 4.48342,15.06956 30.16959,17.00451 30.23634,2.27769 38.98804,6.33152 46.03524,21.32372 6.45381,13.7299 7.37601,30.1972 1.69111,30.1972 -2.08138,0 -4.52766,-2.6746 -5.43618,-5.9435 z M 206.37079,909.47052 c 2.30491,-2.30492 4.81609,-8.85311 5.58042,-14.55154 1.24105,-9.25275 0.71876,-10.52553 -4.88383,-11.90157 -5.08908,-1.2499 -23.60442,-0.84926 -46.55751,1.00743 -2.09805,0.16959 -3.30197,4.4833 -3.30197,11.83073 0,16.57957 6.0066,20.18587 31.07117,18.65484 8.18182,-0.49979 15.62509,-2.57329 18.09172,-5.03989 z m 5.74949,-45.00959 c 0.41803,-2.91626 -0.94043,-7.62789 -3.01882,-10.47026 -3.269,-4.47062 -6.71728,-5.11416 -25.55703,-4.76949 -11.97799,0.21899 -22.67856,1.36461 -23.77906,2.54552 -1.10048,1.1809 -2.82397,6.05167 -3.83,10.82394 l -1.8291,8.67682 28.62696,-0.75208 c 26.35365,-0.69239 28.68733,-1.17319 29.38705,-6.05445 z m -20.91607,-37.62327 c 7.66479,-18.9492 4.07173,-24.07138 -14.4483,-20.59699 -9.79475,1.8375 -11.53974,7.58148 -6.40554,21.08542 3.75693,9.88145 16.78269,9.57637 20.85384,-0.48843 z M 56.171478,1006.2894 c -2.22475,-16.58671 0.313507,-59.39666 3.643742,-61.45484 1.635044,-1.01052 2.18114,-3.11824 1.213539,-4.68386 -2.104617,-3.40535 5.357118,-30.94817 10.660177,-39.34893 5.03819,-7.98118 11.55484,-7.69665 11.55484,0.50449 0,3.54643 -1.05166,7.09802 -2.337,7.89239 -4.10208,2.53522 -10.28482,39.43019 -12.42623,74.15236 -1.09987,17.83379 -2.64485,24.98189 -6.183266,28.60779 -4.55067,4.6632 -4.766732,4.4633 -6.125802,-5.6694 z m 51.102172,3.7854 c -6.88193,-8.2922 -3.32223,-71.10686 5.10719,-90.1216 1.28814,-2.90574 2.6887,-8.13352 3.11236,-11.61731 0.99099,-8.14918 8.60216,-13.30633 13.0596,-8.84891 2.35434,2.35436 2.44431,4.75909 0.34368,9.18613 -1.56506,3.29833 -4.96048,18.2408 -7.5454,33.2055 -2.58491,14.96471 -5.59105,27.75937 -6.68028,28.43257 -1.08926,0.67318 -0.87932,5.06339 0.4665,9.75602 4.14804,14.46342 2.55377,33.6619 -2.79537,33.6619 -1.11952,0 -3.40026,-1.6444 -5.06828,-3.6543 z m -17.271994,26.3675 c -8.26798,0.2757 -11.0129,-63.39345 -10.73485,-66.29918 1.81245,-18.94002 5.40826,-38.42746 12.34697,-66.9142 8.16257,-33.51128 8.582364,-44.0593 3.48945,-87.681 -1.71916,-14.72485 -2.44051,-17.19531 -10.31416,-35.32449 -6.10575,-14.05853 -1.74371,-18.51172 8.5101,-8.68797 12.327304,11.81033 16.416254,31.34871 16.555974,79.11038 0.11276,38.58478 -1.63686,52.40486 -8.32871,65.78399 -2.696504,5.39117 -7.441224,33.61298 -8.360414,49.72813 -0.67468,11.82845 5.23356,70.00444 -3.16436,70.28434 z M 71.173296,880.8042 c -0.88788,-2.31378 -0.25131,-9.90503 1.41459,-16.86942 4.44512,-18.58308 4.83278,-26.19393 2.09999,-41.22944 -2.22319,-12.23173 -10.499733,-28.18795 -15.783247,-30.42828 -4.689058,-1.98826 -1.611342,-5.72341 4.716023,-5.72341 8.905704,0 13.837104,5.26545 19.916804,21.26594 8.54021,22.476 5.34013,62.63027 -5.79438,72.70685 -4.47966,4.05406 -5.11044,4.08073 -6.56978,0.27776 z m 49.851504,-8.80669 c -0.92226,-2.40334 -0.2906,-9.55265 1.40367,-15.88736 6.1041,-22.82248 2.07782,-57.25816 -7.95364,-68.02566 -5.99189,-6.43155 -6.27504,-14.73873 -0.50238,-14.73873 4.74046,0 12.78522,8.21946 18.09804,18.49103 3.37719,6.52935 5.11633,29.69097 4.3829,58.37086 -0.26152,10.22842 -1.89823,16.53761 -5.3107,20.47221 -5.92458,6.83111 -7.90331,7.0888 -10.11789,1.31765 z"
       id="path3041"
       inkscape:connector-curvature="0"
       sodipodi:nodetypes="ssssssscsssssssssssssscscscssssssssssscsccsssssssscssssscsscssssssssssscssssssssscsssssssssssssssssssssssssssss" />
  </g>
</svg>
