<?xml version="1.0" encoding="UTF-8" standalone="no"?>
<!-- Created with Inkscape (http://www.inkscape.org/) -->

<svg
   xmlns:dc="http://purl.org/dc/elements/1.1/"
   xmlns:cc="http://creativecommons.org/ns#"
   xmlns:rdf="http://www.w3.org/1999/02/22-rdf-syntax-ns#"
   xmlns:svg="http://www.w3.org/2000/svg"
   xmlns="http://www.w3.org/2000/svg"
   xmlns:sodipodi="http://sodipodi.sourceforge.net/DTD/sodipodi-0.dtd"
   xmlns:inkscape="http://www.inkscape.org/namespaces/inkscape"
   width="300"
   height="300"
   id="svg2"
   version="1.1"
   inkscape:version="0.48.4 r9939"
   sodipodi:docname="image-seal.svg">
  <defs
     id="defs4" />
  <sodipodi:namedview
     id="base"
     pagecolor="#ffffff"
     bordercolor="#666666"
     borderopacity="1.0"
     inkscape:pageopacity="0.0"
     inkscape:pageshadow="2"
     inkscape:zoom="1.979899"
     inkscape:cx="90.878804"
     inkscape:cy="121.06726"
     inkscape:document-units="px"
     inkscape:current-layer="layer1"
     showgrid="false"
     inkscape:window-width="1215"
     inkscape:window-height="1000"
     inkscape:window-x="65"
     inkscape:window-y="24"
     inkscape:window-maximized="1"
     fit-margin-top="10"
     fit-margin-left="10"
     fit-margin-right="10"
     fit-margin-bottom="10" />
  <metadata
     id="metadata7">
    <rdf:RDF>
      <cc:Work
         rdf:about="">
        <dc:format>image/svg+xml</dc:format>
        <dc:type
           rdf:resource="http://purl.org/dc/dcmitype/StillImage" />
        <dc:title />
      </cc:Work>
    </rdf:RDF>
  </metadata>
  <g
     inkscape:label="Calque 1"
     inkscape:groupmode="layer"
     id="layer1"
     transform="translate(0,-752.36218)">
    <path
       style="fill:#000000"
       d="m 190.55593,1043.3269 c -0.78993,-1.2782 -2.21213,-12.7658 -3.1604,-25.528 -0.94822,-12.7622 -2.20719,-23.98573 -2.79768,-24.94113 -0.59047,-0.95541 -1.2174,-19.51678 -1.39315,-41.24747 -0.17601,-21.73066 -0.94303,-41.13503 -1.70502,-43.12079 -0.76201,-1.98575 -6.72995,-4.41192 -13.26212,-5.39148 -14.54154,-2.18063 -18.05326,-8.36635 -18.05326,-31.79977 0,-14.61888 0.6194,-16.4625 5.53087,-16.4625 4.69632,0 5.53087,1.84362 5.53087,12.21827 0,17.17506 2.05403,20.96697 11.35763,20.96697 7.3887,0 9.53182,-2.91688 8.42389,-11.46512 -0.12725,-0.98237 -0.75899,-9.45188 -1.40375,-18.82116 -0.64473,-9.36928 -1.62127,-17.46474 -2.17006,-17.98991 -0.54882,-0.5252 -5.9709,-1.38901 -12.04909,-1.91963 -10.63256,-0.9282 -11.26122,-0.51479 -16.59263,10.91181 -4.02942,8.63616 -7.59936,12.31111 -13.08426,13.46909 -4.14861,0.8759 -8.96766,3.30924 -10.709,5.40741 -1.74134,2.09818 -5.64383,3.81489 -8.6722,3.81489 -4.7804,0 -5.24143,-1.1846 -3.49776,-8.98768 1.10461,-4.94321 2.57551,-21.24026 3.26867,-36.21565 0.97331,-21.02791 0.27259,-29.3094 -3.07722,-36.36861 -8.40607,-17.71447 -4.02735,-23.45587 8.40623,-11.02232 5.52705,5.52706 7.42373,11.08283 9.2049,26.96301 1.23389,11.00085 1.3406,20.99896 0.23714,22.218 -2.35082,2.59703 -0.29262,15.75888 2.4643,15.75888 1.77301,0 15.02819,-25.42697 32.21076,-61.78883 4.19976,-8.88755 9.5044,-16.87617 11.7882,-17.75252 2.70475,-1.03795 8.09262,3.09043 15.45541,11.84239 6.21671,7.38968 19.70312,21.88598 29.96981,32.21398 14.96324,15.05267 18.66669,20.4729 18.66669,27.31992 l 0,8.54169 -8.10216,-5.76925 c -4.9845,-3.54926 -8.77176,-4.68585 -9.84223,-2.95373 -0.95705,1.54849 -7.88888,2.81549 -15.40405,2.81549 l -13.66398,0 0,24.70256 c 0,22.27381 0.54381,24.87518 5.53087,26.458 3.04198,0.9655 8.01977,0.9655 11.06175,0 4.68841,-1.48804 5.53087,-4.18419 5.53087,-17.70077 0,-17.98484 1.33176,-20.5945 8.54091,-16.73626 6.69272,3.58182 9.22099,18.44187 5.49313,32.28606 -3.18487,11.82776 -9.82762,16.32854 -26.47849,17.94045 -7.92875,0.76755 -8.28124,1.35452 -7.95628,13.24761 1.14173,41.78174 4.51492,109.5238 5.53597,111.1759 0.66373,1.0739 0.4116,5.121 -0.56033,8.9934 -1.71085,6.8165 -7.64108,9.4619 -10.57375,4.7168 z m 25.99884,-217.83581 c 0,-1.95007 -20.48349,-26.78492 -29.81267,-36.14582 l -6.30645,-6.32789 -2.81752,7.56346 c -1.54966,4.15992 -5.86729,13.4517 -9.59479,20.64837 -3.72753,7.19672 -6.7773,13.73007 -6.7773,14.51854 0,0.78852 12.44448,1.43364 27.65438,1.43364 15.2099,0 27.65435,-0.76063 27.65435,-1.6903 z M 92.890551,1036.6632 c -9.480729,-20.2051 -14.190205,-110.26278 -6.710403,-128.32062 2.530137,-6.10829 3.287605,-21.83483 2.659722,-55.22129 -0.835605,-44.43186 -1.244261,-47.42667 -8.482849,-62.16619 -8.963536,-18.25198 -9.584415,-24.61331 -2.402304,-24.61331 7.36117,0 19.642813,17.29554 23.993693,33.78894 3.66554,13.89543 3.41726,65.1302 -0.45272,93.42113 -3.801712,27.79194 -4.284322,32.9538 -5.688223,60.8396 -1.209664,24.02773 -0.461981,32.7257 4.333993,50.41844 7.3812,27.2297 7.58979,38.0755 0.73228,38.0755 -2.784963,0 -6.377402,-2.8 -7.983189,-6.2222 z m 63.811079,-63.40852 c 0.44023,-42.98584 1.49206,-58.86641 3.95339,-59.68683 5.84562,-1.94856 8.47096,13.38045 10.78062,62.94711 1.70925,36.68164 -1.69323,55.30874 -10.10287,55.30874 -4.9852,0 -5.20278,-2.7516 -4.63114,-58.56902 z m 69.45188,55.67372 c -4.03428,-6.5277 -8.85751,-49.05984 -9.25985,-81.65559 -0.39364,-31.89024 -0.0229,-34.70779 4.45539,-33.84789 3.94564,0.75766 4.98747,4.12121 5.41899,17.49545 1.11047,34.41724 6.49064,81.28763 9.54771,83.17703 1.29938,0.803 2.36252,5.12 2.36252,9.5932 0,6.207 -1.27116,8.1331 -5.36768,8.1331 -2.95221,0 -6.1729,-1.3029 -7.15708,-2.8953 z M 58.654169,1007.6261 c -5.131774,-23.80245 -4.951749,-94.55506 0.26631,-104.66392 4.201901,-8.14026 7.996935,-12.05662 11.757513,-12.13341 3.284392,-0.0673 2.410461,16.29812 -1.225802,22.95431 -5.07911,9.29732 -3.408176,82.85362 2.125211,93.55402 3.34228,6.4633 3.564917,9.1621 1.009801,12.2408 -6.355017,7.6573 -10.465557,4.1313 -13.933038,-11.9518 z m 63.468201,2.7983 c -2.50564,-0.5612 -5.26099,-3.1316 -6.123,-5.7118 -0.86201,-2.5803 -3.48301,-9.66921 -5.82444,-15.75317 -5.00493,-13.00484 -6.22279,-69.63965 -1.59698,-74.26545 1.58963,-1.58962 2.89023,-6.84453 2.89023,-11.67754 0,-9.94853 5.4117,-15.92879 12.09395,-13.36456 5.05805,1.94096 5.86785,10.00156 1.77338,17.65214 -4.21018,7.86681 -6.06241,52.26156 -2.87643,68.94312 1.56957,8.21811 4.7165,18.676 6.99318,23.23972 2.27668,4.56374 4.13941,8.59554 4.13941,8.95964 0,1.6362 -7.34208,2.9024 -11.4693,1.9779 z M 63.25777,863.82342 c 4.548552,-25.76253 3.114028,-42.49691 -5.024848,-58.61713 -4.182388,-8.28382 -7.604341,-16.06163 -7.604341,-17.28397 0,-4.62009 10.318932,-1.97145 15.582799,3.99977 9.389136,10.65078 12.071565,20.85021 12.071565,45.89984 0,26.42831 -3.923587,39.08179 -12.128994,39.11575 -4.705151,0.0183 -4.988498,-1.26358 -2.896181,-13.11426 z"
       id="path3041"
       inkscape:connector-curvature="0" />
  </g>
</svg>
