<?xml version="1.0" encoding="UTF-8" standalone="no"?>
<!-- Created with Inkscape (http://www.inkscape.org/) -->

<svg
   xmlns:dc="http://purl.org/dc/elements/1.1/"
   xmlns:cc="http://creativecommons.org/ns#"
   xmlns:rdf="http://www.w3.org/1999/02/22-rdf-syntax-ns#"
   xmlns:svg="http://www.w3.org/2000/svg"
   xmlns="http://www.w3.org/2000/svg"
   xmlns:sodipodi="http://sodipodi.sourceforge.net/DTD/sodipodi-0.dtd"
   xmlns:inkscape="http://www.inkscape.org/namespaces/inkscape"
   width="300"
   height="300"
   id="svg2"
   version="1.1"
   inkscape:version="0.48.4 r9939"
   sodipodi:docname="image-seal.svg">
  <defs
     id="defs4" />
  <sodipodi:namedview
     id="base"
     pagecolor="#ffffff"
     bordercolor="#666666"
     borderopacity="1.0"
     inkscape:pageopacity="0.0"
     inkscape:pageshadow="2"
     inkscape:zoom="2.0018437"
     inkscape:cx="232.32812"
     inkscape:cy="141.91078"
     inkscape:document-units="px"
     inkscape:current-layer="layer1"
     showgrid="false"
     inkscape:window-width="1215"
     inkscape:window-height="1000"
     inkscape:window-x="65"
     inkscape:window-y="24"
     inkscape:window-maximized="1"
     fit-margin-top="10"
     fit-margin-left="10"
     fit-margin-right="10"
     fit-margin-bottom="10" />
  <metadata
     id="metadata7">
    <rdf:RDF>
      <cc:Work
         rdf:about="">
        <dc:format>image/svg+xml</dc:format>
        <dc:type
           rdf:resource="http://purl.org/dc/dcmitype/StillImage" />
        <dc:title />
      </cc:Work>
    </rdf:RDF>
  </metadata>
  <g
     inkscape:label="Calque 1"
     inkscape:groupmode="layer"
     id="layer1"
     transform="translate(0,-752.36218)">
    <path
       style="fill:#000000"
       d="m 197.18625,1043.0519 c -2.54185,-3.0634 -3.64947,-11.89 -3.56391,-28.4003 l 0.12415,-23.95553 10.13373,-9.56062 c 5.57357,-5.2583 13.30661,-14.54698 17.18454,-20.64146 6.61352,-10.39361 7.06065,-13.16424 7.20906,-44.67113 0.17548,-37.27056 -2.46907,-47.482 -14.07252,-54.33632 -5.36942,-3.17178 -10.16342,-3.77694 -18.23194,-2.30152 -20.80027,3.8036 -22.09159,7.62044 -5.47035,16.16906 12.4797,6.41854 16.18508,12.12302 21.92303,33.75072 3.06281,11.54457 3.00834,14.00357 -0.38691,17.46694 -5.0911,5.19322 -7.95568,1.08548 -10.3425,-14.83102 -1.87777,-12.5218 -6.93225,-19.08048 -21.77313,-28.25264 -9.68531,-5.98586 -10.13797,-6.02539 -13.67067,-1.19414 -5.82509,7.96626 -4.36864,17.50899 3.73618,24.47951 4.06442,3.49559 8.79355,6.35711 10.50916,6.35891 1.71563,0.002 5.70086,5.33604 8.85608,11.85387 7.51442,15.5227 7.14049,50.67108 -0.55469,52.13945 -4.15378,0.7926 -4.70382,-1.55635 -4.71269,-20.12567 -0.0108,-23.34817 -5.41534,-36.47097 -16.17847,-39.28559 -5.94403,-1.55443 -5.97695,-1.38672 -4.60195,23.451 1.45919,26.35855 -0.0965,32.9297 -7.15416,30.22138 -3.67789,-1.41133 -4.30203,-7.45279 -4.30203,-41.6425 0,-22.5044 1.32582,-43.98592 3.03202,-49.12614 3.32477,-10.01638 18.1664,-25.35549 31.4679,-32.52266 l 8.49563,-4.57766 0,-41.86124 c 0,-35.25105 0.65479,-42.11254 4.14673,-43.4525 2.2807,-0.8752 4.63207,-1.1059 5.2253,-0.51267 0.59323,0.59321 1.63727,19.53551 2.32012,42.09398 l 1.24152,41.01541 10.32828,7.55819 c 19.28985,14.11616 19.80843,15.33051 20.32287,47.58886 0.2569,16.10414 0.22922,38.10687 -0.0613,48.89493 l -0.52812,19.61468 -15.87312,15.82389 c -17.80918,17.75398 -20.36492,24.72313 -16.50986,45.02003 3.75147,19.7516 0.0269,27.7477 -8.26812,17.7505 z m -95.60852,-28.4736 c -7.059305,-15.20725 -8.643645,-21.83749 -10.221385,-42.77511 -0.95676,-12.69707 -0.39677,-29.95177 1.29357,-39.85701 1.63942,-9.60681 3.93826,-22.90856 5.10854,-29.55943 1.17026,-6.65087 4.144775,-16.77487 6.610005,-22.49774 2.46526,-5.7229 4.48226,-14.41858 4.48226,-19.32378 0,-4.90518 1.22897,-9.67806 2.73105,-10.60639 1.50208,-0.92835 1.93872,-2.96991 0.9703,-4.53683 -0.96842,-1.56695 -2.00915,-10.39855 -2.31278,-19.6258 -0.45957,-13.96745 -2.42447,-20.24819 -11.733655,-37.50687 -11.66893,-21.63342 -12.29148,-27.85205 -2.25613,-22.53633 13.652055,7.23153 22.781135,24.41357 24.686135,46.46236 0.64558,7.47206 1.8702,17.0667 2.7214,21.32141 1.75492,8.77216 -2.31284,30.81842 -9.7616,52.90556 -2.77458,8.22725 -5.04472,17.35708 -5.04472,20.28852 0,2.93143 -1.19178,6.52167 -2.64844,7.97833 -6.783845,6.78384 -4.69367,55.12426 3.68482,85.22046 2.38593,8.57045 4.33806,16.73285 4.33806,18.13875 0,5.1257 -9.91848,2.3886 -12.64743,-3.4901 z m -32.219065,-11.9647 c -1.42428,-5.61275 -2.87439,-24.47196 -3.22249,-41.90942 -0.52704,-26.40179 0.33206,-34.60421 5.13657,-49.04179 3.48253,-10.46495 7.28044,-17.33731 9.58124,-17.33731 4.83654,0 4.7822,2.5526 -0.4363,20.50366 -3.92789,13.51143 -4.22047,54.44459 -0.63085,88.25506 0.60094,5.6603 -0.41752,8.2424 -3.49527,8.8613 -3.07448,0.6183 -5.09981,-2.1077 -6.9329,-9.3315 z m 58.840045,-1.3371 c -1.77356,-1.77355 -3.22466,-5.30055 -3.22466,-7.83774 0,-2.53717 -1.24633,-5.02849 -2.76964,-5.53627 -1.69185,-0.56394 -2.84058,-14.04189 -2.95194,-34.63431 -0.20503,-37.89506 3.55544,-56.25587 11.52138,-56.25587 5.9486,0 6.11074,3.15917 0.92602,18.04109 -2.16969,6.22769 -3.2789,13.05855 -2.46494,15.17971 0.81399,2.12118 0.26792,4.60576 -1.21352,5.52132 -4.39573,2.7167 4.31845,46.54571 10.82921,54.46705 1.71625,2.08803 1.59602,5.10003 -0.34853,8.73347 -3.40066,6.35425 -5.74297,6.88195 -10.30338,2.32155 z M 79.409225,874.84273 c 0.0648,-1.84747 1.86055,-8.19603 3.99039,-14.10791 2.12981,-5.91189 3.87626,-14.98126 3.88096,-20.15416 0.0108,-12.09347 -6.38164,-36.11088 -11.82127,-44.41279 -5.12545,-7.82242 -5.25419,-9.33164 -0.79606,-9.33164 3.64586,0 7.7156,4.17508 17.43063,17.88176 4.92234,6.94486 6.00796,12.0922 6.00796,28.48665 0,27.02863 -6.64354,44.99712 -16.63694,44.99712 -1.19549,0 -2.12054,-1.51157 -2.05567,-3.35903 z m 52.176735,-9.40528 c 4.73663,-26.14782 4.47092,-42.87147 -1.03254,-64.98386 -6.6408,-26.68207 -6.48706,-24.36625 -1.61755,-24.36625 11.17645,0 20.82202,48.41532 15.13298,75.95894 -3.03833,14.71012 -7.69529,23.46825 -12.47881,23.46825 -1.00625,0 -1.00808,-4.53468 -0.003,-10.07708 z m 29.19572,-30.64641 c 7.99311,-19.36095 10.15082,-32.62263 7.397,-45.46319 -3.73402,-17.41118 -3.66676,-18.61495 1.03999,-18.61495 11.17636,0 14.95323,40.03033 5.32349,56.42286 -5.29823,9.0191 -17.01447,15.53711 -13.76048,7.65528 z m 69.8534,-8.25671 c -6.26042,-13.647 -8.92106,-26.14462 -8.92106,-41.90431 0,-14.81285 0.57985,-16.60434 5.37444,-16.60434 5.89372,0 6.0186,0.47478 5.41905,20.60266 -0.2483,8.33156 1.33754,17.27088 3.96481,22.35147 4.66061,9.01262 4.58061,19.15938 -0.16338,20.71848 -1.57961,0.51914 -4.13284,-1.80466 -5.67391,-5.16396 z"
       id="path3186"
       inkscape:connector-curvature="0" />
  </g>
</svg>
