<?xml version="1.0" encoding="UTF-8" standalone="no"?>
<!-- Created with Inkscape (http://www.inkscape.org/) -->

<svg
   xmlns:dc="http://purl.org/dc/elements/1.1/"
   xmlns:cc="http://creativecommons.org/ns#"
   xmlns:rdf="http://www.w3.org/1999/02/22-rdf-syntax-ns#"
   xmlns:svg="http://www.w3.org/2000/svg"
   xmlns="http://www.w3.org/2000/svg"
   xmlns:sodipodi="http://sodipodi.sourceforge.net/DTD/sodipodi-0.dtd"
   xmlns:inkscape="http://www.inkscape.org/namespaces/inkscape"
   width="300"
   height="300"
   id="svg2"
   version="1.1"
   inkscape:version="0.48.4 r9939"
   sodipodi:docname="image-seal.svg">
  <defs
     id="defs4" />
  <sodipodi:namedview
     id="base"
     pagecolor="#ffffff"
     bordercolor="#666666"
     borderopacity="1.0"
     inkscape:pageopacity="0.0"
     inkscape:pageshadow="2"
     inkscape:zoom="2.0018437"
     inkscape:cx="232.32812"
     inkscape:cy="101.94762"
     inkscape:document-units="px"
     inkscape:current-layer="layer1"
     showgrid="false"
     inkscape:window-width="1215"
     inkscape:window-height="1000"
     inkscape:window-x="65"
     inkscape:window-y="24"
     inkscape:window-maximized="1"
     fit-margin-top="10"
     fit-margin-left="10"
     fit-margin-right="10"
     fit-margin-bottom="10" />
  <metadata
     id="metadata7">
    <rdf:RDF>
      <cc:Work
         rdf:about="">
        <dc:format>image/svg+xml</dc:format>
        <dc:type
           rdf:resource="http://purl.org/dc/dcmitype/StillImage" />
        <dc:title />
      </cc:Work>
    </rdf:RDF>
  </metadata>
  <g
     inkscape:label="Calque 1"
     inkscape:groupmode="layer"
     id="layer1"
     transform="translate(0,-752.36218)">
    <path
       style="fill:#000000"
       d="m 187.68568,1045.6092 c -0.95427,-1.544 -1.57033,-25.9533 -1.36904,-54.24295 0.40953,-57.55598 -0.77743,-62.41022 -13.11279,-53.62667 -4.09482,2.91578 -8.63282,9.75828 -10.28332,15.5055 -2.69163,9.37239 -7.90662,69.28922 -6.50561,74.74492 1.20372,4.6874 -2.77559,12.5559 -6.34988,12.5559 -2.02903,0 -4.3781,-2.1706 -5.22009,-4.8236 -2.94596,-9.2819 1.68012,-57.90471 8.15387,-85.70176 2.86981,-12.32247 11.06722,-22.30781 21.37273,-26.03432 9.01248,-3.25896 13.56014,-8.71902 10.87741,-13.05977 -0.72266,-1.16932 -6.57295,-3.45026 -13.0006,-5.06874 -17.45736,-4.39583 -28.93894,-16.48458 -28.93894,-30.46928 0,-9.84715 10.33683,-28.3218 17.73164,-31.6911 3.76358,-1.71479 11.04171,-3.11782 16.1736,-3.11782 8.17009,0 9.33073,-0.84672 9.33073,-6.8071 0,-5.78197 -0.9496,-6.56879 -6.30545,-5.22455 -4.84068,1.21496 -8.60707,-0.71907 -16.21349,-8.32549 -9.34505,-9.34505 -9.90803,-10.89074 -9.90803,-27.20242 0,-15.49288 0.56295,-17.29439 5.40449,-17.29439 4.78749,0 5.4045,1.80151 5.4045,15.77972 0,14.28717 0.65102,16.07638 6.88276,18.91574 10.94883,4.98862 14.7129,3.90723 14.9504,-4.29517 0.11836,-4.08715 0.42233,-14.97121 0.67556,-24.18679 0.48367,-17.60298 3.95123,-24.25803 11.19174,-21.47958 3.74269,1.43622 4.09366,5.1991 2.55376,27.38129 l -1.78524,25.71626 6.9325,0 c 8.83576,0 15.33307,-9.09695 15.38709,-21.5437 0.0513,-11.82003 3.47433,-17.59079 9.14376,-15.41521 3.4098,1.30845 4.32611,5.76206 4.32611,21.0263 0,17.29054 -0.73901,20.05113 -6.89484,25.75617 -3.91569,3.62896 -10.24198,6.38993 -14.64135,6.38993 -20.45131,0 -21.8384,8.68067 -2.10848,13.19502 21.7412,4.97457 29.04916,13.41993 29.04916,33.57035 0,9.13167 -1.49175,13.00651 -6.77618,17.60125 -3.72689,3.24051 -7.98293,5.89182 -9.45787,5.89182 -1.47491,0 -2.68168,1.07165 -2.68168,2.38146 0,1.30978 -5.47205,3.75931 -12.16012,5.44338 -13.9687,3.51736 -15.90054,9.25828 -4.45773,13.24726 10.28359,3.58488 21.59244,15.2364 23.5716,24.2858 0.88241,4.03475 2.20373,9.15994 2.93629,11.3893 3.0594,9.31065 9.02569,56.10094 9.02569,70.78344 0,11.8003 -1.06701,16.2676 -4.16992,17.4583 -2.29345,0.8801 -4.64354,1.1265 -5.22244,0.5476 -0.57888,-0.5789 -2.38166,-14.4092 -4.00614,-30.7341 -5.45678,-54.83616 -9.48929,-71.76758 -18.79429,-78.91173 -10.86544,-8.34219 -11.43778,-5.82183 -11.02593,48.55453 0.21672,28.6101 0.30143,54.0162 0.18835,56.4581 -0.24483,5.286 -7.4026,8.6762 -9.87431,4.6769 z m 36.55285,-165.26074 c 4.60671,-13.21477 -1.28117,-22.01051 -15.41978,-23.03528 l -11.46437,-0.83094 0,15.82841 c 0,19.36593 2.61477,22.66413 14.96332,18.87426 6.44683,-1.97859 9.93989,-5.15389 11.92083,-10.83645 z m -39.04427,-7.17182 0,-17.39448 -12.59042,-0.23671 c -12.37464,-0.23267 -12.64495,-0.0546 -15.77134,10.38033 -5.21529,17.40707 1.75387,26.03216 20.25502,25.06781 l 8.10674,-0.42258 0,-17.39445 z M 96.521172,1025.1242 c -6.61086,-15.1319 -12.53792,-48.15136 -12.51108,-69.69917 0.0243,-20.31403 3.05989,-37.07389 11.04135,-60.98048 2.7621,-8.27326 5.022018,-18.71069 5.022018,-23.19429 0,-4.48362 0.75585,-8.90788 1.67964,-9.83167 3.15033,-3.15033 0.75376,-60.53794 -3.138928,-75.16402 -7.34839,-27.61021 -3.34674,-38.11744 7.465958,-19.60356 13.22226,22.63967 10.52006,94.69522 -5.60992,149.59143 -5.839718,19.87466 -5.066338,49.0481 2.21238,83.45409 5.10749,24.14267 5.40417,28.58967 2.12616,31.86767 -3.27805,3.278 -4.43453,2.3793 -8.287578,-6.44 z m -30.71824,-14.9786 c -3.77217,-5.8921 -4.45973,-87.71044 -0.85342,-101.55981 4.81776,-18.50181 10.76705,-30.64701 14.38325,-29.36279 4.21524,1.49694 3.00893,18.50486 -2.57756,36.34158 -3.56256,11.37474 -4.10761,20.47453 -2.75151,45.93821 0.93011,17.46455 2.45577,34.49622 3.39037,37.84817 2.69012,9.64804 -6.71668,18.40844 -11.59113,10.79464 z m 51.405618,-9.3935 c -2.31391,-5.53801 -5.26195,-17.39412 -6.55119,-26.34696 -3.10559,-21.56589 1.92432,-62.56417 8.48003,-69.11988 2.60785,-2.60786 4.55339,-6.93883 4.32338,-9.62435 -0.23159,-2.70317 1.69271,-5.31897 4.31073,-5.85999 3.29742,-0.6814 4.72893,0.71877 4.72893,4.62541 0,3.08143 -0.91995,5.60263 -2.0443,5.60263 -2.43505,0 -8.76469,19.32158 -8.76469,26.75474 0,2.87202 -1.04317,5.62718 -2.31817,6.12261 -2.55606,0.99319 0.49021,25.91437 6.64658,54.37455 2.18252,10.08954 3.24572,19.51364 2.36268,20.94244 -3.13201,5.0677 -7.02149,2.4671 -11.17398,-7.4712 z M 71.694132,867.58391 c -0.9466,-2.98239 -0.27325,-12.39665 1.49632,-20.92053 4.12917,-19.89017 1.50523,-48.92947 -5.55742,-61.50392 -6.54446,-11.65187 -6.75473,-14.83839 -0.97908,-14.83839 5.64859,0 14.17348,9.79956 16.3011,18.73849 0.90757,3.81306 2.58356,8.14887 3.7244,9.63511 3.94155,5.13484 -0.26455,52.92665 -5.88593,66.88063 -3.54189,8.7919 -6.72354,9.49424 -9.09939,2.00861 z m 56.334758,-39.72718 c 0.30271,-29.71478 -0.51456,-41.98331 -2.95964,-44.42895 -4.48454,-4.48562 -4.50516,-19.33737 -0.0243,-17.84391 6.74041,2.24681 12.37019,17.06772 13.09053,34.46192 1.56317,37.74619 0.005,55.85814 -5.37718,62.50488 -5.11068,6.31143 -5.14413,6.06595 -4.72893,-34.69394 z"
       id="path3210"
       inkscape:connector-curvature="0" />
  </g>
</svg>
