<?xml version="1.0" encoding="UTF-8" standalone="no"?>
<!-- Created with Inkscape (http://www.inkscape.org/) -->

<svg
   xmlns:dc="http://purl.org/dc/elements/1.1/"
   xmlns:cc="http://creativecommons.org/ns#"
   xmlns:rdf="http://www.w3.org/1999/02/22-rdf-syntax-ns#"
   xmlns:svg="http://www.w3.org/2000/svg"
   xmlns="http://www.w3.org/2000/svg"
   xmlns:sodipodi="http://sodipodi.sourceforge.net/DTD/sodipodi-0.dtd"
   xmlns:inkscape="http://www.inkscape.org/namespaces/inkscape"
   width="300"
   height="300"
   id="svg2"
   version="1.1"
   inkscape:version="0.48.4 r9939"
   sodipodi:docname="image-seal.svg">
  <defs
     id="defs4" />
  <sodipodi:namedview
     id="base"
     pagecolor="#ffffff"
     bordercolor="#666666"
     borderopacity="1.0"
     inkscape:pageopacity="0.0"
     inkscape:pageshadow="2"
     inkscape:zoom="1.979899"
     inkscape:cx="118.51252"
     inkscape:cy="130.59117"
     inkscape:document-units="px"
     inkscape:current-layer="layer1"
     showgrid="false"
     inkscape:window-width="1215"
     inkscape:window-height="1000"
     inkscape:window-x="65"
     inkscape:window-y="24"
     inkscape:window-maximized="1" />
  <metadata
     id="metadata7">
    <rdf:RDF>
      <cc:Work
         rdf:about="">
        <dc:format>image/svg+xml</dc:format>
        <dc:type
           rdf:resource="http://purl.org/dc/dcmitype/StillImage" />
        <dc:title />
      </cc:Work>
    </rdf:RDF>
  </metadata>
  <g
     inkscape:label="Calque 1"
     inkscape:groupmode="layer"
     id="layer1"
     transform="translate(0,-752.36218)">
    <path
       style="fill:#000000"
       d="m 96.685016,1030.9853 c -10.604061,-17.9724 -13.91903,-32.27831 -13.489857,-58.21576 0.437005,-26.41065 3.385457,-43.88786 9.689727,-57.43671 2.17739,-4.67951 5.03781,-17.6729 6.35649,-28.87419 1.318694,-11.20127 3.183194,-25.85044 4.143374,-32.55374 3.29699,-23.01746 -5.813624,-56.95892 -20.251102,-75.44501 -2.688985,-3.44304 -4.889062,-7.87261 -4.889062,-9.84348 0,-12.79009 23.319904,10.04801 28.504684,27.91573 1.88518,6.49669 4.61806,15.99221 6.07308,21.10113 4.4016,15.45512 -0.31046,59.21199 -11.15459,103.58289 -3.175564,12.99339 -6.267734,34.84591 -6.871514,48.56114 -1.03019,23.40128 -0.60378,26.02429 6.924834,42.5975 4.41245,9.7133 8.02263,20.049 8.02263,22.9682 0,8.4504 -6.85048,6.1646 -13.058694,-4.3577 z m 76.394604,-0.068 c -19.20134,-1.4463 -26.21892,-6.4153 -26.37699,-18.6762 -0.0684,-5.3082 -0.72508,-13.78544 -1.4592,-18.83843 -2.02359,-13.92838 -2.14222,-98.35445 -0.1481,-105.38868 5.54751,-19.56856 6.54443,-20.6078 19.76889,-20.6078 16.11881,0 20.00537,-4.17571 15.78605,-16.96043 -1.68611,-5.10885 -4.07111,-9.28884 -5.30007,-9.28884 -1.22894,0 -6.56508,-4.0843 -11.85808,-9.07623 -9.06367,-8.54815 -9.51402,-9.73181 -7.74021,-20.34319 1.03588,-6.19682 2.62467,-11.85755 3.53064,-12.5794 3.42716,-2.73066 7.83454,-12.62465 6.3051,-14.15411 -0.87751,-0.87748 -5.53285,-1.59545 -10.34521,-1.59545 -8.2413,0 -12.28444,-5.38043 -6.65676,-8.85851 3.15057,-1.94716 68.58175,-2.71443 70.46984,-0.82634 0.90098,0.90098 2.18002,4.92518 2.84229,8.94264 4.82186,29.25027 2.24369,36.20866 -14.25363,38.46988 -12.14087,1.66407 -24.40253,-0.078 -24.40253,-3.46685 0,-3.33719 12.37852,-7.71517 17.80324,-6.29659 10.03048,2.62304 18.51989,-19.46532 10.54596,-27.43925 -3.42261,-3.42261 -25.40514,-4.26823 -29.66167,-1.14103 -1.44371,1.06068 -6.0173,8.51747 -10.16356,16.57064 -8.68499,16.86865 -7.84221,23.92912 3.4128,28.59112 13.10393,5.4278 18.56293,12.42832 18.56293,23.80465 0,6.47352 1.23829,10.46429 3.28116,10.5746 12.00965,0.6484 22.21326,3.0693 27.47915,6.51965 l 6.11062,4.00381 -0.20868,69.06799 c -0.20842,69.03895 -0.21131,69.07205 -6.71792,78.64735 -4.92274,7.2444 -8.32574,9.5793 -13.96139,9.5793 -4.0986,0 -10.84802,0.4113 -14.99869,0.914 -4.15067,0.5027 -13.8914,0.436 -21.6461,-0.1496 z m 5.12688,-8.6404 c 4.59267,0 5.03516,-2.0876 5.03516,-23.75535 l 0,-23.75535 -15.09334,0.78724 -15.09332,0.78721 -0.76551,17.25103 c -0.70015,15.77782 -0.15645,17.86022 6.36773,24.38432 3.92327,3.9233 8.79393,6.4961 10.82367,5.717 2.02973,-0.7788 5.95625,-1.4161 8.72561,-1.4161 z m 36.28992,-8.9271 c 4.65962,-4.96 5.94908,-9.4704 6.05429,-21.17758 0.0735,-8.18145 -1.04801,-16.05699 -2.49223,-17.50123 -1.44424,-1.44424 -7.21111,-2.24998 -12.81526,-1.79057 l -10.1894,0.8353 -0.80493,15.68654 c -0.44269,8.62762 -2.21452,16.58274 -3.93738,17.67814 -2.19332,1.3944 -2.24054,2.0036 -0.1575,2.0317 1.63627,0.021 3.59281,2.4026 4.34788,5.29 1.91789,7.334 12.64642,6.7693 19.99447,-1.0523 z m -31.78817,-62.32808 0.77904,-14.81927 -12.59122,-1.1658 c -15.4284,-1.42852 -19.72018,2.64788 -18.61385,17.67966 0.71594,9.72762 1.44836,10.6224 9.96002,12.16819 18.35861,3.33408 19.6064,2.48888 20.46601,-13.86278 z m 36.75238,-0.1142 c 0.89563,-17.09326 -2.5377,-20.80424 -17.18826,-18.57841 -8.47932,1.28826 -8.53101,1.38703 -8.53101,16.31025 0,8.25778 0.84307,15.8572 1.87347,16.88762 1.03041,1.03041 6.64119,1.52259 12.4684,1.09372 l 10.59494,-0.77975 0.78246,-14.93343 z M 182.11838,919.2485 c 0.36231,-2.5265 -0.41795,-4.59362 -1.7339,-4.59362 -1.31598,0 -2.39268,-1.77183 -2.39268,-3.93739 0,-2.16557 -1.18122,-3.9374 -2.62493,-3.9374 -1.44371,0 -2.62493,-1.23489 -2.62493,-2.74425 0,-2.97911 -12.91511,-16.78286 -14.27051,-15.2524 -0.45527,0.51403 -1.37573,7.83467 -2.0455,16.26806 -1.08701,13.68734 -0.62886,15.57818 4.26798,17.61366 8.86479,3.68482 20.67618,1.80119 21.42447,-3.41666 z m 37.17043,-9.00274 c -0.7191,-6.37989 -2.026,-12.31831 -2.9042,-13.19654 -2.58871,-2.58867 -17.3934,14.46902 -17.3934,20.04037 0,3.83064 2.13268,5.32882 8.53102,5.99298 12.18134,1.26446 13.22737,0.12337 11.76658,-12.83681 z M 201.28456,897.4747 c 4.51351,-9.44893 8.20637,-18.33922 8.20637,-19.75618 0,-1.45161 -7.16202,-2.40729 -16.4058,-2.18914 -20.48364,0.48342 -25.59303,1.75758 -25.59303,6.38233 0,4.10924 20.69998,32.74287 23.67067,32.74287 1.05349,0 5.60831,-7.73094 10.12179,-17.17988 z M 65.700158,1024.2453 c -9.046214,-18.2232 -9.843139,-49.5284 -1.987951,-78.09155 2.1837,-7.9404 3.984381,-18.64089 4.001517,-23.77887 0.03672,-11.00975 6.122211,-20.93912 10.309281,-16.82111 2.705961,2.66133 2.20838,6.98827 -5.423479,47.1623 -3.14661,16.56371 -2.968459,31.99192 0.627725,54.36273 2.687434,16.7176 1.979902,23.0726 -2.568801,23.0726 -1.114548,0 -3.345781,-2.6578 -4.958292,-5.9061 z m 61.681532,-7.8747 c -2.17778,-4.6921 -4.82321,-12.6653 -5.87871,-17.71831 -1.05552,-5.05299 -3.24443,-10.02835 -4.86426,-11.05635 -1.956,-1.24136 -2.90697,-14.15807 -2.83146,-38.45875 0.1192,-38.36053 1.88679,-44.98226 12.00742,-44.98226 6.21262,0 6.13583,3.64738 -0.37906,18.00489 -5.55514,12.24245 -6.70999,30.38499 -2.76862,43.49451 1.33298,4.43363 3.84275,14.41154 5.57727,22.17308 1.73454,7.76156 4.77091,17.21129 6.7475,20.99949 1.97658,3.7881 3.60107,8.9546 3.60996,11.4811 0.0269,7.6282 -6.99585,5.1636 -11.22004,-3.9374 z M 74.17949,876.2009 c 3.867686,-25.55493 1.264769,-52.61254 -6.63399,-68.96108 -5.575276,-11.5395 -6.298635,-15.95675 -2.613043,-15.95675 5.649946,0 14.506566,12.5276 20.413133,28.87419 7.190776,19.90066 1.670243,65.97032 -8.128364,67.83247 -4.521536,0.8593 -4.792722,-0.19319 -3.037736,-11.78883 z m 50.43095,-33.07553 c -0.62674,-22.01657 -1.99496,-44.4597 -3.04046,-49.8736 -2.64972,-13.72088 2.06888,-12.55859 9.01605,2.22085 4.93635,10.50165 5.61409,16.18298 5.2323,43.86076 -0.40832,29.59994 -3.00242,43.82213 -7.99311,43.82213 -1.14138,0 -2.58803,-18.01356 -3.21478,-40.03014 z"
       id="path3132"
       inkscape:connector-curvature="0" />
  </g>
</svg>
