<?xml version="1.0" encoding="UTF-8" standalone="no"?>
<!-- Created with Inkscape (http://www.inkscape.org/) -->

<svg
   xmlns:dc="http://purl.org/dc/elements/1.1/"
   xmlns:cc="http://creativecommons.org/ns#"
   xmlns:rdf="http://www.w3.org/1999/02/22-rdf-syntax-ns#"
   xmlns:svg="http://www.w3.org/2000/svg"
   xmlns="http://www.w3.org/2000/svg"
   xmlns:sodipodi="http://sodipodi.sourceforge.net/DTD/sodipodi-0.dtd"
   xmlns:inkscape="http://www.inkscape.org/namespaces/inkscape"
   width="300"
   height="300"
   id="svg2"
   version="1.1"
   inkscape:version="0.48.4 r9939"
   sodipodi:docname="image-seal.svg">
  <defs
     id="defs4" />
  <sodipodi:namedview
     id="base"
     pagecolor="#ffffff"
     bordercolor="#666666"
     borderopacity="1.0"
     inkscape:pageopacity="0.0"
     inkscape:pageshadow="2"
     inkscape:zoom="1.979899"
     inkscape:cx="209.738"
     inkscape:cy="123.37505"
     inkscape:document-units="px"
     inkscape:current-layer="layer1"
     showgrid="false"
     inkscape:window-width="1215"
     inkscape:window-height="1000"
     inkscape:window-x="65"
     inkscape:window-y="24"
     inkscape:window-maximized="1" />
  <metadata
     id="metadata7">
    <rdf:RDF>
      <cc:Work
         rdf:about="">
        <dc:format>image/svg+xml</dc:format>
        <dc:type
           rdf:resource="http://purl.org/dc/dcmitype/StillImage" />
        <dc:title />
      </cc:Work>
    </rdf:RDF>
  </metadata>
  <g
     inkscape:label="Calque 1"
     inkscape:groupmode="layer"
     id="layer1"
     transform="translate(0,-752.36218)">
    <path
       style="fill:#000000"
       d="m 71.446702,1040.6213 c -1.86112,-1.8611 -3.383858,-5.4022 -3.383858,-7.869 0,-2.4668 -1.12178,-5.6834 -2.492842,-7.1481 -8.287255,-8.8531 -12.42694,-42.54217 -11.714507,-95.33356 0.220494,-16.33864 6.537208,-27.8861 11.410296,-20.85893 1.60643,2.31653 2.109858,8.61074 1.121034,14.01597 -4.982813,27.23769 -0.551136,67.47246 11.114211,100.90492 3.538364,10.1408 3.707172,13.2949 0.863711,16.1384 -2.760432,2.7604 -4.275034,2.7933 -6.918045,0.1502 z m 25.184997,-4.365 c -1.620551,-4.2398 -4.296465,-12.4392 -5.946473,-18.2208 -1.650011,-5.7815 -4.261456,-14.7012 -5.803213,-19.82138 -5.114854,-16.98644 -3.393435,-85.33337 2.917228,-115.82499 3.438627,-16.61464 5.82754,-39.38034 5.988967,-57.07327 0.229891,-25.19534 -0.593817,-30.95946 -5.720421,-40.03079 -9.944588,-17.59656 -5.581995,-29.52213 6.084038,-16.6313 15.461895,17.08519 17.952995,52.87994 7.552405,108.5212 -3.458266,18.50108 -6.939938,41.83767 -7.737049,51.8591 -1.450989,18.24207 3.331597,66.5426 7.633029,77.08793 3.51271,8.6116 8.51056,28.1453 8.51056,33.2627 0,7.7103 -10.245188,5.3324 -13.479071,-3.1284 z m 28.534991,-11.2128 c -11.5952,-28.54088 -15.52846,-48.42393 -15.30659,-77.37679 0.21557,-28.13171 4.18885,-46.66459 10.00446,-46.66459 6.55481,0 7.95095,5.64208 4.20488,16.9928 -2.95285,8.94724 -2.79744,16.43272 0.91046,43.85155 2.45912,18.18447 6.59248,39.60513 9.18525,47.60133 4.85728,14.9801 4.05067,23.3045 -2.25815,23.3045 -1.98467,0 -5.0178,-3.4689 -6.74031,-7.7088 z m 38.20478,-20.0196 c -4.27369,-1.1835 -9.32138,-6.34389 -12.93719,-13.22594 -5.50742,-10.4824 -6.02983,-16.8311 -7.34398,-89.24769 l -1.41478,-77.96254 7.34398,-8.07081 c 6.83594,-7.51252 9.38014,-8.24011 36.77752,-10.51765 26.43441,-2.19751 30.51618,-1.89763 40.05848,2.94308 5.97276,3.02991 11.94058,8.71507 13.62969,12.98412 3.08707,7.80221 4.32064,92.0811 1.39066,95.01108 -0.89148,0.89148 -0.47118,3.76909 0.934,6.39471 3.7913,7.08409 -0.73908,52.71083 -6.27202,63.16731 -3.88813,7.34801 -13.0879,15.38713 -21.19055,18.51713 -7.45715,2.8806 -40.58334,2.8853 -50.97581,0.01 z m 52.40373,-15.71674 c 9.05334,-6.34119 12.06974,-26.69294 12.06974,-81.43503 l 0,-48.91793 -13.85054,0 c -7.61778,0 -14.62892,1.25948 -15.58029,2.79882 -0.95137,1.53934 -2.47022,11.63085 -3.37521,22.42556 -1.56871,18.7117 -1.36508,19.62674 4.36753,19.62674 5.14632,0 6.01296,-1.61607 6.01296,-11.21279 0,-9.30803 0.9433,-11.21277 5.55298,-11.21277 7.97591,0 9.52156,9.64997 7.34456,45.85447 -1.75501,29.18655 -2.35913,31.63009 -9.21828,37.28703 -7.74661,6.38884 -25.14644,9.47757 -34.30493,6.08962 -11.18479,-4.13751 -13.03531,-14.98596 -11.76929,-68.99595 0.25229,-10.76339 1.57207,-15.27483 4.83474,-16.52683 5.82322,-2.23459 9.87984,4.4129 6.5219,10.68726 -1.66354,3.10835 -1.59236,5.51866 0.19561,6.62368 6.06915,3.75092 8.41715,-2.60232 8.41715,-22.77524 0,-19.84969 -0.32262,-20.94502 -5.66938,-19.24802 -7.74781,2.45908 -22.90929,-1.18096 -21.57963,-5.18091 0.59394,-1.78676 6.96795,-4.3312 14.16445,-5.6543 l 13.08456,-2.40564 0,-13.71273 c 0,-13.25073 -0.27286,-13.71273 -8.09904,-13.71273 -13.44909,0 -19.89456,7.66716 -22.387,26.63035 -2.2271,16.94425 -2.08518,31.10397 0.92449,92.24333 2.02785,41.19437 3.11806,45.6632 12.36561,50.68762 10.05916,5.46537 42.19295,5.48877 49.97731,0.0364 z m -15.82637,-35.18018 c 4.69739,-4.69737 5.59,-8.65041 4.9056,-21.72476 l -0.83664,-15.98252 -14.33969,-0.83421 c -13.98246,-0.81346 -14.38226,-0.62141 -16.04829,7.70878 -1.82003,9.10016 0.12601,23.5975 4.25109,31.66936 3.39202,6.63737 15.03532,6.19595 22.06793,-0.83665 z m 27.89611,-112.85777 c 0,-11.87221 -4.70263,-18.11977 -16.08056,-21.36346 -10.55813,-3.00992 -11.4156,-2.08453 -13.7327,14.82061 l -1.73781,12.67865 13.67314,1.06451 c 7.52023,0.58551 14.61922,1.29191 15.77554,1.56983 1.15632,0.27778 2.10239,-3.66867 2.10239,-8.77014 z M 60.445053,879.27736 c 0.785463,-4.23984 3.341728,-17.82652 5.68059,-30.19261 4.362079,-23.06335 4.229631,-24.48934 -5.267076,-56.70642 -2.318281,-7.86465 -0.333678,-7.94959 8.395845,-0.35937 4.160749,3.61771 7.593085,10.48128 8.7614,17.51996 1.056442,6.36469 2.411681,14.09502 3.01164,17.17854 2.140194,10.99959 -5.394173,47.49663 -11.139697,53.96151 -7.542671,8.48702 -11.174774,7.94791 -9.442702,-1.40161 z m 58.255757,0.91824 c -2.50922,-3.02343 -2.55156,-8.16558 -0.17512,-21.27083 3.12052,-17.20864 2.27693,-40.16031 -2.1626,-58.83766 -2.93118,-12.33164 -1.45811,-19.62236 3.96463,-19.62236 10.60052,0 12.20861,6.64402 12.20861,50.44155 0,48.2826 -3.70796,61.49226 -13.83552,49.2893 z"
       id="path3015"
       inkscape:connector-curvature="0" />
  </g>
</svg>
