<?xml version="1.0" encoding="UTF-8" standalone="no"?>
<!-- Created with Inkscape (http://www.inkscape.org/) -->

<svg
   xmlns:dc="http://purl.org/dc/elements/1.1/"
   xmlns:cc="http://creativecommons.org/ns#"
   xmlns:rdf="http://www.w3.org/1999/02/22-rdf-syntax-ns#"
   xmlns:svg="http://www.w3.org/2000/svg"
   xmlns="http://www.w3.org/2000/svg"
   xmlns:sodipodi="http://sodipodi.sourceforge.net/DTD/sodipodi-0.dtd"
   xmlns:inkscape="http://www.inkscape.org/namespaces/inkscape"
   version="1.0"
   width="300"
   height="300"
   id="svg2"
   inkscape:version="0.48.4 r9939"
   sodipodi:docname="dessin.svg">
  <metadata
     id="metadata2990">
    <rdf:RDF>
      <cc:Work
         rdf:about="">
        <dc:format>image/svg+xml</dc:format>
        <dc:type
           rdf:resource="http://purl.org/dc/dcmitype/StillImage" />
      </cc:Work>
    </rdf:RDF>
  </metadata>
  <sodipodi:namedview
     pagecolor="#ffffff"
     bordercolor="#666666"
     borderopacity="1"
     objecttolerance="10"
     gridtolerance="10"
     guidetolerance="10"
     inkscape:pageopacity="0"
     inkscape:pageshadow="2"
     inkscape:window-width="1215"
     inkscape:window-height="1000"
     id="namedview2988"
     showgrid="false"
     inkscape:zoom="2.2250294"
     inkscape:cx="129.01005"
     inkscape:cy="139.3918"
     inkscape:window-x="65"
     inkscape:window-y="24"
     inkscape:window-maximized="1"
     inkscape:current-layer="svg2"
     showguides="true"
     inkscape:guide-bbox="true" />
  <defs
     id="defs5" />
  <path
     style="fill:#000000"
     d="m 177.16618,282.52138 c -2.11055,-2.10615 -2.55121,-17.9739 -1.47632,-53.16211 1.4967,-48.99724 1.4135,-50.06627 -3.58968,-46.12422 -14.68316,11.56895 -16.63872,16.96523 -20.14829,55.59807 -3.67652,40.47064 -3.77546,40.92037 -9.48311,43.10606 -6.15148,2.35562 -9.14059,-3.70255 -9.18879,-18.62339 -0.0299,-9.26968 -1.10151,-12.78636 -3.8961,-12.78636 -2.40402,0 -5.44688,-5.82533 -8.08504,-15.47821 -2.32664,-8.51302 -5.50766,-19.36449 -7.06895,-24.11433 -4.8408,-14.72703 -3.815,-55.60931 1.60233,-63.86004 5.46319,-8.32054 9.14147,-7.8289 14.6727,1.96114 3.68808,6.52776 3.57984,7.41094 -1.34873,11.00404 -8.52062,6.21177 -7.1831,49.4989 2.22852,72.12316 3.48849,8.38588 7.24891,7.42499 7.24891,-1.85228 0,-8.92411 6.78351,-34.05408 11.81174,-43.7574 4.49015,-8.66491 9.14949,-11.39826 19.42982,-11.39826 5.81192,0 6.52306,-1.17387 6.52306,-10.76746 0,-7.05812 -1.21197,-10.76745 -3.51809,-10.76745 -1.93496,0 -9.21814,-3.60734 -16.18485,-8.01632 -12.0827,-7.6467 -12.66673,-8.58571 -12.66673,-20.36594 0,-13.11496 2.37496,-19.25615 11.49462,-29.722881 5.14388,-5.90366 7.73307,-6.4996 28.23914,-6.4996 26.77684,0 37.17893,4.27976 42.75166,17.589441 8.99922,21.49338 0.77668,39.13992 -21.24834,45.60143 -15.83674,4.64604 -16.69285,12.4092 -2.28123,20.68624 11.61691,6.67195 19.94306,18.29036 20.85736,29.1046 0.9533,11.27567 4.4852,57.47077 4.94528,64.68131 0.49495,7.75711 -5.62718,18.84304 -10.40594,18.84304 -2.31168,0 -3.97902,-13.11021 -5.75908,-45.2835 -2.01909,-36.49397 -3.38426,-46.16006 -7.03329,-49.79948 -5.32222,-5.30821 -12.8355,-5.95349 -13.404,-1.15115 -1.08588,9.17288 -2.27964,33.23367 -2.97159,59.89397 -0.89174,34.35828 -3.57726,41.79 -12.04699,33.33788 z m 30.68236,-148.36284 c 3.27005,-3.26325 3.78347,-7.2273 2.31554,-17.87825 -1.73516,-12.58982 -2.59704,-13.8812 -10.76689,-16.13232 -8.3611,-2.303811 -24.20414,-0.668841 -34.21623,3.53106 -2.46047,1.03213 -6.01486,5.58981 -7.89864,10.12817 -4.2409,10.21717 0.71147,21.00362 11.06406,24.09788 10.71808,3.20351 34.82919,0.91672 39.50216,-3.74654 z M 104.16457,271.39138 c -3.88917,-4.7415 -16.733372,-43.34321 -20.796729,-62.50207 -1.874233,-8.83706 -3.087349,-21.55614 -2.695811,-28.26456 1.154638,-19.78305 3.853947,-38.72869 6.340134,-44.49954 7.081158,-16.43651 13.499676,-44.151421 15.507556,-66.96104 0.78934,-8.966954 1.55209,-16.950437 1.69499,-17.741075 C 105.3368,45.215148 99.0911,29.382503 92.587946,21.949609 83.452574,11.508188 82.73608,8.2616865 89.567044,8.2616865 c 9.104286,0 20.948406,14.8805165 24.519736,30.8056945 4.02625,17.953783 1.17695,40.862205 -10.90003,87.636319 -12.181101,47.17739 -11.309736,69.90916 4.49941,117.37891 7.5927,22.79839 5.58014,38.40517 -3.52159,27.30877 z M 65.896779,256.09012 c -1.535808,-2.86371 -2.792379,-7.4668 -2.792379,-10.22907 0,-2.76229 -1.271226,-6.29092 -2.824946,-7.84141 -4.036929,-4.02853 -3.525796,-74.91648 0.642506,-89.10806 2.414338,-8.21998 4.789589,-11.44044 8.437902,-11.44044 4.513288,0 4.876483,1.4212 3.267643,12.78637 -4.388981,31.00465 -4.483768,68.34623 -0.216579,85.32578 4.081135,16.23928 3.562427,25.7136 -1.407792,25.7136 -1.272682,0 -3.570537,-2.34306 -5.106346,-5.20677 z M 117.94181,119.74644 c -0.9021,-2.34595 -0.23683,-10.52249 1.47835,-18.17007 4.30017,-19.173315 8.5789,-66.567813 6.668,-73.859916 -1.9039,-7.265383 1.99579,-7.783043 8.08119,-1.072726 3.21498,3.54513 4.46428,9.948178 4.46428,22.880841 0,22.127167 2.62654,22.777081 19.62864,4.856984 14.83413,-15.635075 23.53092,-30.296504 23.53092,-39.669463 0,-5.0654075 1.22736,-6.6125745 4.72058,-5.9506045 3.52711,0.668392 4.924,4.0123925 5.52514,13.2266475 0.72566,11.12257 1.78392,12.861647 10.78989,17.731416 19.06368,10.308227 31.58332,17.584164 34.93696,20.30401 4.02456,3.263982 4.48272,14.531853 0.68607,16.873432 -2.3603,1.45572 -17.92443,-7.356678 -41.03893,-23.236226 -9.92509,-6.818485 -12.74653,-6.373434 -23.7784,3.750784 -13.09915,12.021434 -25.96718,20.838592 -30.41245,20.838592 -4.76947,0 -9.98336,11.382748 -9.98336,21.795249 0,9.07874 -6.79819,23.96644 -10.94382,23.96644 -1.49208,0 -3.45095,-1.91943 -4.35306,-4.26539 z M 63.1044,115.22527 c 0,-0.39103 2.427725,-7.33913 5.394944,-15.440211 2.967221,-8.10109 5.394946,-17.400382 5.394946,-20.665078 0,-3.264707 1.213862,-6.684476 2.697473,-7.599502 4.409195,-2.71936 3.079192,-16.968746 -2.697473,-28.900209 -2.96722,-6.128666 -5.394946,-12.126847 -5.394946,-13.329283 0,-4.513306 10.797366,-1.957987 16.35434,3.87044 5.159637,5.411677 5.62451,8.206749 4.36515,26.245671 C 87.861826,78.844747 81.11133,105.5724 75.791336,112.57141 73.671792,115.35989 63.1044,117.57039 63.1044,115.22527 z"
     id="path3069"
     inkscape:connector-curvature="0" />
</svg>
