<?xml version="1.0" encoding="UTF-8" standalone="no"?>
<!-- Created with Inkscape (http://www.inkscape.org/) -->

<svg
   xmlns:dc="http://purl.org/dc/elements/1.1/"
   xmlns:cc="http://creativecommons.org/ns#"
   xmlns:rdf="http://www.w3.org/1999/02/22-rdf-syntax-ns#"
   xmlns:svg="http://www.w3.org/2000/svg"
   xmlns="http://www.w3.org/2000/svg"
   xmlns:sodipodi="http://sodipodi.sourceforge.net/DTD/sodipodi-0.dtd"
   xmlns:inkscape="http://www.inkscape.org/namespaces/inkscape"
   width="300"
   height="300"
   id="svg2"
   version="1.1"
   inkscape:version="0.48.4 r9939"
   sodipodi:docname="image-seal.svg">
  <defs
     id="defs4" />
  <sodipodi:namedview
     id="base"
     pagecolor="#ffffff"
     bordercolor="#666666"
     borderopacity="1.0"
     inkscape:pageopacity="0.0"
     inkscape:pageshadow="2"
     inkscape:zoom="2.0018437"
     inkscape:cx="145.03351"
     inkscape:cy="130.6666"
     inkscape:document-units="px"
     inkscape:current-layer="layer1"
     showgrid="false"
     inkscape:window-width="1215"
     inkscape:window-height="1000"
     inkscape:window-x="65"
     inkscape:window-y="24"
     inkscape:window-maximized="1"
     fit-margin-top="10"
     fit-margin-left="10"
     fit-margin-right="10"
     fit-margin-bottom="10" />
  <metadata
     id="metadata7">
    <rdf:RDF>
      <cc:Work
         rdf:about="">
        <dc:format>image/svg+xml</dc:format>
        <dc:type
           rdf:resource="http://purl.org/dc/dcmitype/StillImage" />
        <dc:title />
      </cc:Work>
    </rdf:RDF>
  </metadata>
  <g
     inkscape:label="Calque 1"
     inkscape:groupmode="layer"
     id="layer1"
     transform="translate(0,-752.36218)">
    <path
       style="fill:#000000"
       d="m 99.007532,1038.0764 c -4.72229,-10.6683 -5.01053,-12.4282 -8.81955,-53.84577 -2.94514,-32.024 -1.25599,-48.34371 8.45407,-81.68006 3.634798,-12.4789 8.095518,-28.13424 9.912718,-34.78965 6.08677,-22.2927 3.03859,-86.21784 -4.11119,-86.21784 -1.44477,0 -2.62687,-2.64232 -2.62687,-5.87183 0,-3.22951 -1.36133,-6.71319 -3.025178,-7.74152 -4.31528,-2.66697 -3.74809,-10.59211 0.75629,-10.56749 5.230518,0.0272 17.300688,18.47261 21.167178,32.34485 6.60704,23.70479 6.1899,62.22683 -0.96564,89.17426 -3.67766,13.85001 -7.6592,26.54315 -8.84786,28.207 -8.15294,11.41243 -13.250078,95.38715 -6.0596,99.83115 1.66385,1.0283 3.02519,5.1286 3.02519,9.1118 0,3.9831 1.56148,10.6691 3.46995,14.8578 2.6782,5.8779 2.59367,8.6716 -0.3704,12.2431 -5.45814,6.5766 -7.12136,5.8735 -11.959108,-5.0558 z m 83.803638,5.5334 c -4.53669,-2.0121 -12.19782,-7.442 -17.02475,-12.0665 -7.3834,-7.0738 -9.17164,-11.8554 -11.26777,-30.1293 -1.37035,-11.94662 -2.23482,-23.76315 -1.92102,-26.25893 0.3138,-2.49578 1.00466,-23.69651 1.53525,-47.1127 0.87595,-38.65738 1.60175,-43.46955 7.88775,-52.29744 5.33341,-7.49006 8.42022,-9.29413 13.4433,-7.85693 3.58615,1.02609 8.8062,2.49938 11.60011,3.27401 3.89563,1.08009 6.02388,-1.93391 9.1292,-12.92859 3.50988,-12.42708 6.66174,-16.19712 23.65942,-28.30008 15.70396,-11.18176 19.78996,-15.76549 20.51316,-23.01197 1.1198,-11.22033 -5.88823,-17.88518 -21.27512,-20.23327 -10.59115,-1.61623 -11.61064,-1.06184 -16.32805,8.87941 -7.77219,16.37867 -21.66745,28.81836 -30.97995,27.73468 -11.87936,-1.38239 -11.54717,-9.8285 0.61354,-15.59911 10.50058,-4.98287 20.17609,-16.49867 20.17609,-24.01363 0,-2.26429 -3.40333,-7.31418 -7.56296,-11.22194 -4.15964,-3.90778 -7.56297,-8.90975 -7.56297,-11.11547 0,-5.71546 9.90861,-4.95946 16.8244,1.28362 7.47514,6.74804 24.84659,12.85704 36.56011,12.85704 14.61904,0 22.24517,10.6473 22.24517,31.05782 0,16.63205 -0.31849,17.27802 -12.85705,26.07708 -17.4333,12.23398 -27.9111,21.83496 -31.75493,29.09749 -4.68565,8.85312 -5.16584,158.04381 -0.52666,163.63371 10.08283,12.1491 32.797,-2.8659 33.39632,-22.0763 0.63296,-20.28857 -0.21116,-21.97544 -16.24066,-32.45832 -4.5756,-2.99228 -8.31927,-7.32598 -8.31927,-9.63038 0,-6.10235 10.09587,-5.12509 18.9424,1.83362 9.32771,7.33714 11.30948,4.19016 11.30948,-17.95911 0,-11.51193 -1.59192,-16.05794 -7.79558,-22.26157 -4.28757,-4.28757 -10.64727,-8.21686 -14.13268,-8.73181 -3.4854,-0.51492 -6.89751,-2.63787 -7.58248,-4.71769 -1.71758,-5.21545 8.88283,-4.78016 16.07549,0.6601 9.55121,7.22418 13.43525,5.57439 13.43525,-5.70675 0,-15.80826 -2.3477,-19.04328 -16.94859,-23.35441 -16.6528,-4.91699 -17.15508,-12.74049 -0.90559,-14.1053 8.62146,-0.72411 12.84925,0.97175 20.69604,8.30175 l 9.86123,9.21175 -1.12806,64.30278 c -1.46347,83.42394 -1.57513,83.69764 -39.01651,95.64514 -13.44925,4.2917 -26.05557,4.0508 -36.77306,-0.7025 z m 7.86837,-58.62287 c 2.38248,-53.75023 3.02536,-106.51367 1.31858,-108.22049 -0.68339,-0.68335 -5.23545,-0.17455 -10.11571,1.13058 -11.12107,2.97421 -19.71451,17.04339 -17.44604,28.56267 1.57905,8.01862 1.94819,8.18918 7.27996,3.36398 4.58395,-4.14841 6.46129,-4.3819 10.2111,-1.26983 6.52218,5.41294 5.69037,12.14785 -1.50032,12.14785 -9.08639,0 -18.08187,16.91852 -18.09533,34.03336 -0.006,7.9033 0.72628,14.36964 1.62776,14.36964 0.9015,0 4.56153,-2.72267 8.1334,-6.05037 3.57189,-3.32771 8.27963,-6.05038 10.46167,-6.05038 7.07038,0 4.20846,8.94542 -5.69204,17.79149 -8.50744,7.60139 -9.63223,10.43039 -9.43172,23.72174 0.2523,16.73433 7.63663,31.09123 15.99111,31.09123 4.69482,0 5.49885,-4.9434 7.25758,-44.62147 z M 67.061372,1030.766 c -7.26844,-15.3171 -9.17183,-53.11733 -4.55784,-90.51603 3.91353,-31.72124 8.90073,-45.12554 14.58924,-39.21199 1.86705,1.9409 1.33168,12.78377 -1.49363,30.25187 -4.2591,26.3328 -4.02601,62.96837 0.61109,96.04965 2.43074,17.3411 -1.79497,18.9237 -9.14886,3.4265 z m 62.467598,-20.9636 c -1.93091,-4.238 -3.51076,-10.93117 -3.51076,-14.87386 0,-3.9427 -1.43055,-7.64538 -3.17898,-8.22818 -3.62947,-1.20983 -4.5723,-42.88418 -1.3905,-61.46088 3.44197,-20.0956 4.71941,-22.68891 11.17637,-22.68891 5.32442,0 5.86248,1.17395 3.81313,8.31927 -2.8961,10.0975 -2.78641,72.34895 0.16275,92.26816 2.32952,15.7351 -1.35631,19.2086 -7.07183,6.6644 z M 72.791612,883.23287 c -0.86317,-2.24937 1.33541,-9.26152 4.88571,-15.58252 8.89992,-15.84554 8.90876,-53.39698 0.0181,-70.82687 -7.24305,-14.19754 -7.81082,-21.33078 -1.69782,-21.33078 10.06988,0 19.66656,28.34924 19.72458,58.26783 0.0339,17.51799 -1.54644,26.86503 -6.22565,36.81962 -6.56076,13.95737 -14.03137,19.61628 -16.70351,12.65272 z m 64.358628,-6.06997 c -0.80821,-2.10611 -0.17667,-13.93184 1.40371,-26.27935 4.12878,-32.26069 2.43092,-58.51581 -4.92421,-76.14714 -1.68845,-4.04749 -0.73503,-5.29408 4.04897,-5.29408 4.76452,0 7.1401,3.06742 9.95716,12.85704 4.08675,14.2019 5.36671,74.81434 1.84561,87.39676 -2.47721,8.85209 -10.04193,13.43265 -12.33124,7.46677 z"
       id="path3080"
       inkscape:connector-curvature="0" />
  </g>
</svg>
