<?xml version="1.0" encoding="UTF-8" standalone="no"?>
<!-- Created with Inkscape (http://www.inkscape.org/) -->

<svg
   xmlns:dc="http://purl.org/dc/elements/1.1/"
   xmlns:cc="http://creativecommons.org/ns#"
   xmlns:rdf="http://www.w3.org/1999/02/22-rdf-syntax-ns#"
   xmlns:svg="http://www.w3.org/2000/svg"
   xmlns="http://www.w3.org/2000/svg"
   xmlns:sodipodi="http://sodipodi.sourceforge.net/DTD/sodipodi-0.dtd"
   xmlns:inkscape="http://www.inkscape.org/namespaces/inkscape"
   width="300"
   height="300"
   id="svg2"
   version="1.1"
   inkscape:version="0.48.4 r9939"
   sodipodi:docname="image-seal.svg">
  <defs
     id="defs4" />
  <sodipodi:namedview
     id="base"
     pagecolor="#ffffff"
     bordercolor="#666666"
     borderopacity="1.0"
     inkscape:pageopacity="0.0"
     inkscape:pageshadow="2"
     inkscape:zoom="2.0506101"
     inkscape:cx="156.21232"
     inkscape:cy="110.79688"
     inkscape:document-units="px"
     inkscape:current-layer="layer1"
     showgrid="false"
     inkscape:window-width="1215"
     inkscape:window-height="1000"
     inkscape:window-x="65"
     inkscape:window-y="24"
     inkscape:window-maximized="1"
     fit-margin-top="10"
     fit-margin-left="10"
     fit-margin-right="10"
     fit-margin-bottom="10" />
  <metadata
     id="metadata7">
    <rdf:RDF>
      <cc:Work
         rdf:about="">
        <dc:format>image/svg+xml</dc:format>
        <dc:type
           rdf:resource="http://purl.org/dc/dcmitype/StillImage" />
        <dc:title />
      </cc:Work>
    </rdf:RDF>
  </metadata>
  <g
     inkscape:label="Calque 1"
     inkscape:groupmode="layer"
     id="layer1"
     transform="translate(0,-752.36218)">
    <path
       style="fill:#000000"
       d="m 132.27982,1038.257 c 7.5e-4,-4.7738 2.27392,-14.6888 5.05151,-22.0333 3.34426,-8.8429 5.47318,-23.05798 6.30243,-42.08226 1.18783,-27.25 0.92799,-29.10587 -5.04824,-36.05451 -3.46527,-4.0293 -6.42241,-8.52757 -6.57141,-9.99645 -3.04543,-30.02354 -3.29877,-54.75295 -0.56092,-54.75138 4.8708,0.003 5.68761,2.74428 6.38629,21.43487 0.64714,17.31177 4.01258,29.31045 8.22121,29.31045 1.23312,0 2.24203,-13.4259 2.24203,-29.83525 0,-24.2879 -0.84098,-30.76438 -4.52305,-34.83304 -7.6759,-8.48179 -11.41903,-23.84147 -11.46096,-47.02957 -0.0358,-19.74839 0.48137,-22.12767 4.63351,-21.31984 4.0458,0.78714 4.67374,4.20385 4.67374,25.43032 0,16.05393 1.15273,25.67501 3.33838,27.86307 2.67092,2.67386 3.33838,-2.46693 3.33838,-25.71256 0,-32.50163 3.07216,-44.65416 14.05023,-55.57804 7.56747,-7.53016 12.65682,-7.6164 12.65682,-0.21446 0,4.55895 -6.2639,11.66978 -10.27987,11.66978 -4.23758,0 -6.37366,14.91284 -6.28104,43.85071 0.0473,14.80764 0.18748,28.42525 0.31143,30.26136 0.35884,5.31841 5.56666,3.86093 5.56666,-1.55791 0,-2.69298 0.69705,-5.59336 1.54901,-6.44532 0.85198,-0.85198 1.9263,-12.54235 2.38742,-25.97864 0.8691,-25.32499 1.71171,-28.55293 6.65558,-25.49743 3.87448,2.39455 1.69056,61.67814 -2.45616,66.67466 -1.65744,1.9971 -5.96879,4.37279 -9.58076,5.27934 -4.41895,1.10909 -6.63641,3.5973 -6.77875,7.60646 -0.11645,3.27701 -0.71145,17.60857 -1.32246,31.84786 -0.73703,17.17611 -0.11591,26.50488 1.84549,27.71685 5.79089,3.57901 7.66553,-4.48732 11.63078,-50.0453 0.21313,-2.44802 1.61453,-6.05348 3.11434,-8.01212 4.10549,-5.36152 14.32115,-30.66554 14.32115,-35.47332 0,-2.31817 1.13457,-6.30174 2.52125,-8.85237 4.23886,-7.79677 13.50298,-40.07067 13.50298,-47.0411 0,-18.45009 8.18942,-19.92426 12.94755,-2.3307 1.88696,6.97722 4.55296,14.77271 5.92445,17.32334 1.37151,2.55063 2.49364,6.22678 2.49364,8.16923 0,1.94246 4.20636,10.51708 9.34747,19.05474 9.14329,15.18394 13.04663,36.24152 6.71794,36.24152 -3.35422,0 -21.37894,-36.95001 -21.49175,-44.05734 -0.0467,-2.94288 -1.81637,-7.63835 -3.93259,-10.43439 -3.7826,-4.99777 -3.87551,-4.99777 -5.49863,0 -0.90807,2.79604 -2.73253,7.48732 -4.0544,10.42509 -1.32189,2.93778 -5.97143,15.4558 -10.33234,27.81783 -4.36089,12.36205 -8.99956,23.1784 -10.30812,24.03634 -5.6432,3.69994 -8.84287,14.44755 -7.19859,24.17984 0.94796,5.61116 0.46157,17.23887 -1.08086,25.83961 -2.28108,12.71896 -4.559,17.18545 -12.20547,23.93245 -8.88517,7.84013 -9.40099,9.22035 -9.40099,25.15297 0,17.82242 -4.03902,47.06901 -8.19765,59.35911 -8.65979,25.5923 -13.16911,30.6228 -13.16666,14.6888 z m -38.412193,-1.3951 c -5.65711,-10.9398 -10.34155,-49.97265 -8.77866,-73.14796 1.47968,-21.94198 5.72052,-51.21424 7.9399,-54.80527 0.80092,-1.29609 1.75383,-11.331 2.1176,-22.30039 0.36378,-10.96927 1.51331,-21.74685 2.55453,-23.95018 2.894063,-6.12425 -4.35057,-60.45918 -10.80626,-81.04693 -6.13909,-19.57819 -5.59827,-23.90062 2.11686,-16.91854 11.905893,10.77472 22.218183,88.48027 16.368003,123.33716 -13.458463,80.18883 -13.984423,115.22711 -2.08951,139.19321 3.33304,6.7155 2.22024,14.8409 -2.23572,16.3244 -1.749933,0.5825 -4.983973,-2.4258 -7.186743,-6.6855 z m -22.31088,-7.4711 c -10.39711,-20.0791 -12.60525,-75.2914 -4.20286,-105.08899 2.65855,-9.42839 6.47625,-17.68754 8.48376,-18.35388 3.89562,-1.29289 3.81697,0 -2.29571,37.63878 -3.08077,18.97162 -0.64006,56.44429 4.76256,73.12119 2.0514,6.332 1.88253,9.6859 -0.66297,13.1671 -3.22568,4.4112 -3.56374,4.3845 -6.08478,-0.4842 z m 42.947213,-11.164 c -1.67982,-4.0395 -3.94357,-10.9499 -5.03054,-15.3566 -3.36894,-13.65798 -4.41062,-63.3662 -1.56536,-74.69693 1.48687,-5.92122 3.395,-14.07061 4.24034,-18.11005 0.89954,-4.29877 3.30286,-7.34444 5.79521,-7.34444 3.33889,0 3.92661,1.87403 2.72204,8.67979 -5.98692,33.82528 -7.0641,50.81203 -4.2284,66.68056 6.93043,38.78267 5.95164,59.10827 -1.93329,40.14767 z m 82.77759,-8.5057 c -4.64275,-2.831 -9.08787,-7.3332 -9.87808,-10.00498 -1.4906,-5.0402 -2.65727,-52.88584 -2.05588,-84.31149 0.25772,-13.46329 1.28688,-18.02726 4.06532,-18.02726 4.92956,0 6.9625,5.91214 6.9625,20.24848 l 0,11.79998 11.60424,0 c 14.24746,0 21.80684,-6.81217 19.71317,-17.76446 -1.52009,-7.95203 0.0422,-14.284 3.52386,-14.284 3.40499,0 5.41344,19.11237 6.17443,58.75551 0.88801,46.26062 -0.61856,51.50182 -15.98529,55.61182 -14.92708,3.9924 -14.15151,4.0573 -24.12427,-2.0236 z m 26.5529,-13.28568 c 1.14805,-1.1073 2.82061,-14.04898 3.71679,-28.75922 l 1.62945,-26.74604 -9.15309,-1.48518 c -5.03423,-0.81697 -12.41541,-0.86184 -16.40264,-0.0988 l -7.24955,1.38583 0,28.84388 c 0,20.53073 0.96215,29.25673 3.33838,30.27613 4.11302,1.76458 21.26813,-0.665 24.12066,-3.4158 z M 71.241367,884.69141 c 1.61017,-4.03944 3.00657,-21.16533 3.10312,-38.05754 0.16611,-29.06849 -0.2644,-31.60822 -8.04064,-47.42937 -8.29604,-16.87875 -8.39758,-21.539 -0.34094,-15.64785 10.61947,7.76515 23.25177,44.57842 23.49048,68.45634 0.0515,5.16183 -2.30982,15.96123 -5.24759,23.99863 -2.93778,8.03741 -5.34141,14.93095 -5.34141,15.31874 0,0.38805 -2.37389,0.7056 -5.27531,0.7056 -4.68413,0 -4.94722,-0.82311 -2.34771,-7.34455 z m 45.012893,-34.89634 c 0,-14.41911 -1.10111,-32.74682 -2.44688,-40.72825 -5.22905,-31.0118 -5.39239,-34.54199 -1.59839,-34.54199 3.55704,0 7.46965,9.40788 10.55175,25.3717 2.83415,14.67945 3.55126,58.63648 1.10014,67.4353 -4.52188,16.23244 -7.60662,9.12073 -7.60662,-17.53676 z m 75.64211,16.59956 c -3.09164,-8.05669 8.02317,-10.86128 29.18306,-7.36375 14.71842,2.4328 12.49735,7.92646 -4.00606,9.90877 -20.52821,2.46573 -23.36421,2.17905 -25.177,-2.54502 z"
       id="path3145"
       inkscape:connector-curvature="0" />
  </g>
</svg>
