<?xml version="1.0" encoding="UTF-8" standalone="no"?>
<!-- Created with Inkscape (http://www.inkscape.org/) -->

<svg
   xmlns:dc="http://purl.org/dc/elements/1.1/"
   xmlns:cc="http://creativecommons.org/ns#"
   xmlns:rdf="http://www.w3.org/1999/02/22-rdf-syntax-ns#"
   xmlns:svg="http://www.w3.org/2000/svg"
   xmlns="http://www.w3.org/2000/svg"
   xmlns:sodipodi="http://sodipodi.sourceforge.net/DTD/sodipodi-0.dtd"
   xmlns:inkscape="http://www.inkscape.org/namespaces/inkscape"
   width="300"
   height="300"
   id="svg2"
   version="1.1"
   inkscape:version="0.48.4 r9939"
   sodipodi:docname="dessin.svg">
  <defs
     id="defs4" />
  <sodipodi:namedview
     id="base"
     pagecolor="#ffffff"
     bordercolor="#666666"
     borderopacity="1.0"
     inkscape:pageopacity="0.0"
     inkscape:pageshadow="2"
     inkscape:zoom="1.979899"
     inkscape:cx="73.020464"
     inkscape:cy="149.14493"
     inkscape:document-units="px"
     inkscape:current-layer="layer1"
     showgrid="false"
     inkscape:window-width="1215"
     inkscape:window-height="1000"
     inkscape:window-x="65"
     inkscape:window-y="24"
     inkscape:window-maximized="1" />
  <metadata
     id="metadata7">
    <rdf:RDF>
      <cc:Work
         rdf:about="">
        <dc:format>image/svg+xml</dc:format>
        <dc:type
           rdf:resource="http://purl.org/dc/dcmitype/StillImage" />
        <dc:title />
      </cc:Work>
    </rdf:RDF>
  </metadata>
  <g
     inkscape:label="Calque 1"
     inkscape:groupmode="layer"
     id="layer1"
     transform="translate(0,-752.36218)">
    <path
       style="fill:#000000"
       d="m 122.32111,1038.0665 c -4.4581,-1.6074 -3.87138,-9.1673 1.6672,-21.4819 15.5339,-34.53828 16.50535,-40.10282 15.95749,-91.40513 -0.48442,-45.36123 -0.22559,-48.3647 4.61834,-53.59088 7.25391,-7.82629 15.15169,-10.25768 33.31971,-10.25768 14.08069,0 16.70903,0.82153 23.73504,7.41864 5.95639,5.59282 8.40412,10.6182 9.94544,20.41886 4.05796,25.80268 -4.78796,36.29315 -32.9547,39.08132 -24.88892,2.4637 -24.3909,2.13723 -24.3909,15.98956 0,21.76155 -7.69515,55.5014 -17.59451,77.14421 -7.48784,16.3706 -9.30177,18.4863 -14.30311,16.683 z m 54.89325,-123.00301 c 9.30075,-1.54569 19.53453,-8.83798 19.53453,-13.91972 0,-1.8417 -4.30821,-2.19324 -13.13432,-1.07167 -27.70607,3.5207 -29.39584,4.12857 -29.39584,10.57482 0,6.56667 4.66581,7.46279 22.99563,4.41657 z m 14.41715,-30.08003 c 3.17224,-3.03896 3.01183,-3.96254 -1.25089,-7.20261 -6.02077,-4.5763 -10.41852,-4.72492 -24.868,-0.84034 -7.52139,2.02204 -11.29389,4.40199 -11.29389,7.12492 0,2.24876 0.5424,4.63386 1.20534,5.30023 2.56251,2.57574 32.75939,-1.079 36.20744,-4.3822 z M 92.619216,1015.3138 c -6.5944,-4.3334 -10.916805,-36.902 -9.599165,-72.32815 0.707373,-19.01855 1.807371,-35.42693 2.444438,-36.46303 3.565513,-5.79888 8.946499,-42.04077 9.160274,-61.69604 0.264464,-24.31601 -2.66558,-36.91053 -12.090654,-51.97057 -6.194263,-9.8976 -7.363635,-15.79953 -3.594353,-18.1411 6.947025,-4.31564 18.575681,11.7691 24.039644,33.25159 5.34614,21.01919 3.4719,69.89536 -3.44457,89.82719 -9.235081,26.61362 -6.92349,99.9947 3.3842,107.43071 1.67312,1.207 1.61775,3.2615 -0.16539,6.137 -3.228315,5.206 -6.365124,6.4294 -10.134424,3.9524 z m -24.108944,-9.5389 C 59.124524,987.37201 56.941444,946.61706 63.10173,904.80538 c 1.960145,-13.30409 6.756784,-17.98327 12.508343,-12.20206 3.246163,3.26293 3.558,5.51806 1.512349,10.9371 -7.059989,18.70225 -8.233363,65.38392 -2.210478,87.94194 2.812241,10.53294 2.903575,14.07944 0.449473,17.45294 -2.774427,3.8138 -3.454081,3.5003 -6.851145,-3.1604 z m 109.111118,-0.3332 c -15.48542,-3.0446 -21.5711,-28.49959 -11.38664,-47.62756 6.42253,-12.06245 24.12125,-17.12868 36.17707,-10.35564 14.19421,7.97443 16.85342,12.21219 16.84366,26.8424 -0.0176,26.5983 -13.4892,36.6745 -41.63409,31.1408 z m 17.76452,-12.39513 c 6.72082,-2.59233 11.15128,-14.00291 9.19585,-23.68375 -1.64302,-8.13423 -2.46137,-8.75351 -12.53666,-9.48714 -8.10545,-0.59017 -11.6314,0.34539 -14.21599,3.77201 -4.26094,5.64914 -4.64826,23.86822 -0.59406,27.94334 3.25443,3.2712 11.68981,3.94765 18.15086,1.45554 z m -82.08059,-2.00163 c -7.53007,-11.55159 -8.72704,-83.01206 -1.58339,-94.53024 3.47187,-5.59794 11.38793,0.27248 10.63172,7.88431 -0.32609,3.28242 -1.64985,16.15247 -2.94169,28.60011 -1.57819,15.20684 -1.48595,25.93214 0.28114,32.69077 3.59783,13.76061 3.84156,29.5119 0.47451,30.66634 -1.52843,0.52406 -4.61645,-1.86604 -6.86229,-5.31129 z M 115.5938,884.2111 c -0.6922,-1.12579 -1.25123,-18.02111 -1.24228,-37.54512 0.0118,-25.45915 -1.14085,-39.49917 -4.07533,-49.6455 -4.63233,-16.0168 -2.60266,-21.23678 6.12676,-15.75705 7.53564,4.73035 10.984,17.24835 12.70459,46.11938 l 1.49863,25.14675 4.64773,-10.05869 c 2.55625,-5.53229 5.74883,-12.88771 7.09462,-16.34539 1.34579,-3.45767 3.44133,-8.25162 4.65677,-10.65324 1.21544,-2.40161 2.20989,-6.04489 2.20989,-8.09619 0,-2.05132 2.15532,-7.58682 4.7896,-12.30111 2.63428,-4.71431 5.16734,-11.24388 5.62899,-14.51017 0.95508,-6.75728 8.03599,-9.16428 13.51461,-4.59398 2.02325,1.68781 5.58531,7.15636 7.91566,12.15233 2.33035,4.99599 5.40553,10.45883 6.83371,12.13969 6.95698,8.18773 8.59788,10.51731 12.18381,17.29739 2.12584,4.01936 8.52568,12.35719 14.22186,18.52849 12.3603,13.39128 15.82297,19.37695 13.9888,24.18139 -4.23483,11.09265 -24.58323,-7.72189 -47.12709,-43.57462 -10.29555,-16.37357 -13.61332,-18.71499 -16.03479,-11.31604 -0.79211,2.42037 -3.00838,7.96651 -4.92504,12.32475 -5.09104,11.57644 -4.62604,12.30694 8.19113,12.86764 15.86352,0.69397 20.84713,2.60725 20.84713,8.00354 0,3.748 -2.81462,4.86992 -15.69587,6.2565 -8.63273,0.92926 -17.48611,0.99902 -19.67418,0.15517 -2.90976,-1.12232 -5.35582,1.41112 -9.1068,9.43212 -5.75886,12.31464 -11.54899,18.20856 -15.48551,15.76309 -1.54042,-0.95693 -3.2667,1.50537 -4.14299,5.90946 -1.47348,7.4054 -7.06089,12.1587 -9.54441,8.11954 z M 70.297679,870.76094 c 0.947552,-3.11191 2.335736,-13.59638 3.084855,-23.29886 1.230755,-15.94051 0.615584,-19.29559 -6.38238,-34.80887 -6.81717,-15.11246 -7.303655,-17.61104 -4.063147,-20.86825 4.632633,-4.65652 7.653498,-2.80459 12.094624,7.41461 9.891386,22.7604 12.68652,60.94848 5.242917,71.63051 -5.302152,7.60892 -12.300011,7.56043 -9.976869,-0.0692 z"
       id="path3002"
       inkscape:connector-curvature="0" />
  </g>
</svg>
