<?xml version="1.0" encoding="UTF-8" standalone="no"?>
<!-- Created with Inkscape (http://www.inkscape.org/) -->
<svg
   xmlns:svg="http://www.w3.org/2000/svg"
   xmlns="http://www.w3.org/2000/svg"
   version="1.0"
   width="300"
   height="300"
   id="svg2">
  <defs
     id="defs5" />
  <path
     d="M 79.160988,272.65474 C 75.421328,266.9473 74.904448,259.77588 74.904448,213.59805 C 74.904448,160.34699 76.621828,148.68677 84.464928,148.68677 C 88.612608,148.68677 90.744618,155.48216 88.129828,160.36794 C 84.696988,166.78226 83.433918,217.60617 86.143748,240.28433 C 89.554338,268.82695 89.583228,277.04364 86.276988,278.17371 C 84.704288,278.71125 81.502088,276.22772 79.160988,272.65474 z M 105.13211,271.41673 C 99.377488,265.23987 97.919548,255.68969 96.147648,212.56402 C 94.937528,183.11149 95.400908,176.44306 99.789348,160.15621 C 104.20966,147.82156 104.4814,134.98992 106.04786,122.17168 C 108.58278,102.4582 108.64903,90.856949 106.32588,73.486289 C 104.51202,59.923679 96.829998,40.484738 92.083268,37.446167 C 88.652618,35.250062 91.839638,28.163658 96.257968,28.163658 C 101.66517,28.163658 111.54682,44.557054 115.66114,60.353013 C 120.8744,80.368079 120.402,124.84101 114.71457,149.4649 C 108.06814,178.24081 104.16784,201.14412 105.53339,203.37865 C 108.78793,219.76325 108.52705,236.65947 112.22601,252.99979 C 115.12599,263.11141 115.07123,276.44127 112.12972,276.44127 C 110.85561,276.44127 107.70669,274.18023 105.13211,271.41673 z M 131.92084,268.60726 C 130.60116,266.95007 128.16577,261.25535 126.50887,255.95234 C 119.09038,241.13603 119.20549,224.7324 115.65242,208.94979 C 114.30794,206.77437 118.74806,176.61515 122.30654,163.75216 C 124.24055,156.7612 126.45937,153.50769 129.29304,153.50769 C 135.92299,153.50769 136.78174,157.69347 132.46875,168.98688 C 127.88845,180.98022 128.56764,218.57213 133.71336,237.87387 C 140.18045,262.13211 139.2649,277.82952 131.92084,268.60726 z M 148.19276,256.04524 C 148.19276,251.6021 165.92993,246.60379 175.15193,248.44821 L 181.93922,249.80566 L 181.93922,221.00063 C 176.36896,219.97179 153.28451,224.83306 153.46298,216.78233 C 154.09623,213.45482 157.18776,212.41136 168.1025,211.84111 C 181.51181,211.14053 181.93922,210.90766 181.93922,204.30226 C 181.93922,196.8407 188.04397,189.94354 191.49775,193.503 C 192.66531,194.70628 193.97522,198.94491 194.40867,202.92217 C 194.4901,220.22576 227.97437,202.3785 230.14847,216.28531 C 225.87677,226.1146 205.78189,219.39204 196.20113,222.00381 L 196.90207,248.03149 C 207.16991,248.63114 231.67066,240.80213 234.96939,254.31773 C 234.96939,257.70764 215.63233,259.56803 180.39756,259.56803 C 153.75554,259.56803 148.19276,258.95953 148.19276,256.04524 z M 136.68632,198.13326 C 138.25103,196.98658 157.64869,187.48075 169.24682,182.17698 C 182.65313,176.04634 182.39362,176.57473 182.73515,154.71292 C 182.88373,145.20191 182.73243,145.03279 171.58505,142.2498 C 154.43931,137.96929 152.75042,135.18377 152.24529,110.35225 C 152.00503,98.541499 152.59577,88.079319 153.55805,87.102959 C 156.20675,84.415499 162.65553,90.791139 162.65553,96.097259 C 162.65553,100.02121 164.10166,100.64885 171.69476,100.02042 C 179.53013,99.371929 180.73399,98.469719 180.73399,93.246139 C 180.73399,88.647499 179.30647,87.022519 174.70784,86.386399 C 165.16102,85.065809 162.65553,81.429059 162.65553,68.892289 C 162.65553,58.14785 162.1083,57.036504 156.02676,55.430069 C 152.38093,54.467026 148.0421,53.951556 146.38491,54.284578 C 144.72772,54.617603 143.37183,52.738587 143.37183,50.108993 C 143.37183,46.324159 145.25537,45.172021 152.41107,44.579785 C 161.18523,43.8536 161.47203,43.531253 162.19151,33.587198 C 162.79074,25.30517 163.82967,23.342733 167.61505,23.342733 C 171.45865,23.342733 172.29738,25.043384 172.29738,32.836886 C 172.29738,42.237411 172.40406,42.347037 183.11485,43.953219 C 198.37052,46.240948 201.22292,44.54748 201.22292,33.202493 C 201.22292,27.936108 202.35515,22.927497 203.73897,22.072244 C 208.37626,19.206243 213.27523,26.20206 213.27523,35.690193 C 213.27523,40.830878 214.08876,45.110099 215.08308,45.199573 C 238.87711,47.340688 242.34759,51.842879 222.2697,54.522638 L 212.07,55.883973 L 211.34822,68.342649 C 210.56227,81.908959 207.75364,85.727749 197.96612,86.537789 C 194.45434,86.828429 191.58107,87.320959 191.58107,87.632299 C 191.58107,87.943639 192.83989,90.961179 194.37845,94.337949 C 196.66907,99.365309 198.8524,100.47752 206.43076,100.47752 C 215.37062,100.47752 215.6857,100.19515 215.6857,92.183159 C 215.6857,83.055169 217.81998,80.454109 222.78966,83.525539 C 225.1542,84.986899 226.03488,91.676809 226.00082,107.91845 C 225.95838,128.16065 225.43811,130.71542 220.55276,134.67134 C 217.58213,137.07681 212.64873,139.04492 209.58965,139.04492 C 197.69096,139.04492 196.402,140.94903 196.402,158.52626 L 196.402,175.08136 L 207.26451,180.02981 C 213.23889,182.75145 222.18773,186.30859 227.15082,187.93456 C 236.47315,190.98868 239.36649,197.42052 232.05173,198.82922 C 229.78414,199.26592 224.3606,198.07732 219.99942,196.1879 C 201.87165,188.33428 198.15625,187.25416 189.26894,187.25416 C 177.55238,185.55915 134.70515,220.18022 136.68632,198.13326 z M 181.93922,119.76122 C 181.93922,110.11937 181.93922,110.11937 172.29738,110.11937 C 162.97692,110.11937 162.65553,110.3872 162.65553,118.15425 C 162.65553,122.57343 163.37867,126.91226 164.26251,127.79609 C 165.14634,128.67993 169.48517,129.40307 173.90435,129.40307 C 181.6714,129.40307 181.93922,129.08168 181.93922,119.76122 z M 212.88832,123.2635 C 218.31185,111.36014 216.7052,107.70891 206.04385,107.70891 L 196.402,107.70891 L 196.402,118.55599 C 196.402,128.86507 196.74148,129.40307 203.24647,129.40307 C 208.2418,129.40307 210.8467,127.74436 212.88832,123.2635 z M 197.77477,70.537399 C 200.69017,58.921507 198.43507,55.93998 186.13585,55.149286 C 176.53715,54.5322 174.66212,55.110974 174.42224,58.764979 C 173.4885,72.988179 175.83682,76.372899 186.63857,76.372899 C 194.86036,76.372899 196.5297,75.498149 197.77477,70.537399 z M 138.55091,170.81562 C 138.55091,168.51305 149.79382,158.35396 152.4294,158.27502 C 153.41363,158.24554 156.93068,156.10024 160.24507,153.50769 C 167.33849,147.95913 177.1183,147.15917 177.1183,152.12751 C 177.1183,156.37397 166.2514,165.17064 158.64818,167.07892 C 153.37887,169.24326 151.90438,172.49584 145.78229,172.79139 C 141.80503,172.79139 138.55091,171.90229 138.55091,170.81562 z M 220.50662,165.6976 C 218.51799,164.60345 213.90798,162.31453 210.26216,160.61111 C 206.61633,158.90769 203.63338,156.03617 203.63338,154.22995 C 208.62968,143.98126 234.32244,157.32694 234.96939,163.14954 C 234.96939,168.27284 227.5598,169.57827 220.50662,165.6976 z M 123.08798,139.64753 C 123.9838,134.67596 125.82705,129.21118 127.18409,127.50359 C 128.54114,125.796 130.16378,113.75925 130.78997,100.75524 C 131.74411,80.940699 131.03969,74.117649 126.44036,58.624765 C 123.42189,48.457006 121.60404,39.48611 122.40071,38.689442 C 124.94885,36.141304 137.96986,48.430877 139.34165,54.678742 C 140.06935,57.993128 141.7088,65.524089 142.98486,71.414209 C 149.55007,101.71829 139.11042,148.68677 125.80954,148.68677 C 122.09992,148.68677 121.6991,147.3555 123.08798,139.64753 z M 78.593748,139.24162 C 75.836848,137.53062 76.094768,134.61805 80.134278,121.84512 C 82.802778,113.40733 85.683148,101.56512 86.535098,95.529099 C 88.342698,82.722309 84.299188,61.076673 79.328598,56.951449 C 74.347338,52.817369 75.090708,47.447355 80.644248,47.447355 C 89.515448,47.447355 99.883978,69.486499 99.947218,88.477379 C 99.967178,94.471969 97.923158,106.80692 95.404938,115.88839 C 90.452298,133.74915 84.057468,142.63251 78.593748,139.24162 z "
     style="fill:black;fill-opacity:1"
     id="path1875" />
</svg>
