<?xml version="1.0" encoding="UTF-8" standalone="no"?>
<!-- Created with Inkscape (http://www.inkscape.org/) -->

<svg
   xmlns:dc="http://purl.org/dc/elements/1.1/"
   xmlns:cc="http://creativecommons.org/ns#"
   xmlns:rdf="http://www.w3.org/1999/02/22-rdf-syntax-ns#"
   xmlns:svg="http://www.w3.org/2000/svg"
   xmlns="http://www.w3.org/2000/svg"
   xmlns:sodipodi="http://sodipodi.sourceforge.net/DTD/sodipodi-0.dtd"
   xmlns:inkscape="http://www.inkscape.org/namespaces/inkscape"
   width="300"
   height="300"
   id="svg2"
   version="1.1"
   inkscape:version="0.48.4 r9939"
   sodipodi:docname="image-seal.svg">
  <defs
     id="defs4" />
  <sodipodi:namedview
     id="base"
     pagecolor="#ffffff"
     bordercolor="#666666"
     borderopacity="1.0"
     inkscape:pageopacity="0.0"
     inkscape:pageshadow="2"
     inkscape:zoom="1.979899"
     inkscape:cx="118.51252"
     inkscape:cy="130.59117"
     inkscape:document-units="px"
     inkscape:current-layer="layer1"
     showgrid="false"
     inkscape:window-width="1215"
     inkscape:window-height="1000"
     inkscape:window-x="65"
     inkscape:window-y="24"
     inkscape:window-maximized="1" />
  <metadata
     id="metadata7">
    <rdf:RDF>
      <cc:Work
         rdf:about="">
        <dc:format>image/svg+xml</dc:format>
        <dc:type
           rdf:resource="http://purl.org/dc/dcmitype/StillImage" />
        <dc:title />
      </cc:Work>
    </rdf:RDF>
  </metadata>
  <g
     inkscape:label="Calque 1"
     inkscape:groupmode="layer"
     id="layer1"
     transform="translate(0,-752.36218)">
    <path
       style="fill:#000000"
       d="m 235.14941,1030.5323 c -1.76338,-1.0898 -3.01535,-11.1466 -3.3077,-26.5698 -0.53157,-28.04223 -5.71412,-64.67812 -9.85533,-69.66794 -1.51654,-1.82736 -5.98477,-4.03132 -9.92938,-4.8977 -3.94459,-0.86638 -10.02225,-3.81727 -13.50594,-6.55753 -5.21323,-4.10072 -6.33396,-7.09116 -6.33396,-16.90077 0,-8.15288 1.57143,-13.91626 4.97374,-18.24157 5.01455,-6.37497 6.57228,-21.70206 3.4063,-33.51588 -1.18041,-4.4047 -3.29012,-5.59547 -9.91352,-5.59547 -4.63924,0 -8.414,-1.27161 -8.414,-2.83444 0,-6.16639 9.05211,-9.44328 26.30037,-9.52083 15.34061,-0.0689 18.30431,0.67456 23.11931,5.79991 4.84735,5.15973 5.4328,8.1163 4.78552,24.16679 l -0.73748,18.28782 -12.43435,3.84003 c -19.31912,5.96617 -21.63248,7.93966 -20.70537,17.66319 0.68473,7.18162 1.87087,8.62164 7.64929,9.28651 3.76139,0.43281 6.8389,1.83168 6.8389,3.10859 0,1.27693 1.75856,2.32169 3.90794,2.32169 7.4908,0 14.70663,12.03936 17.14086,28.59901 2.75112,18.71532 4.31574,80.22329 2.07591,81.60759 -1.22309,0.7559 -3.50059,0.5852 -5.06111,-0.3792 z M 222.22303,878.34061 c 8.91235,-4.76975 4.01364,-32.17887 -5.75894,-32.22243 -3.68873,-0.0174 -4.35202,2.38112 -4.35202,15.73076 0,19.26841 1.21615,21.25204 10.11096,16.49167 z M 107.44132,1023.3256 c -1.42227,-3.7408 -4.05171,-10.1756 -5.84323,-14.2995 -5.363757,-12.34685 -8.855821,-27.34833 -8.855821,-38.04337 0,-5.54037 -1.068011,-10.44644 -2.373345,-10.90239 -1.305358,-0.45592 -3.100059,-14.8176 -3.988245,-31.91483 -1.90079,-36.58953 -1.611468,-49.94975 1.370316,-63.28134 1.207202,-5.39748 1.68677,-10.63585 1.065674,-11.64079 -0.621096,-1.00495 0.01989,-2.53792 1.426269,-3.40659 1.559419,-0.96379 2.238334,-10.96653 1.741756,-25.66227 -0.696797,-20.62059 -1.773413,-25.7938 -7.488715,-35.98373 -8.161959,-14.55214 -8.275436,-16.69814 -0.882864,-16.69814 4.540007,0 7.093576,2.77637 11.812637,12.84329 5.259528,11.21982 6.009298,16.32815 5.931388,40.41165 -0.049,15.1626 -1.596349,38.19973 -3.438449,51.19363 -4.965734,35.0275 -3.216171,78.32261 3.969569,98.2314 1.9747,5.47112 5.2522,16.65724 7.28335,24.85809 2.03115,8.20079 4.76094,15.97849 6.06617,17.28359 1.30526,1.3053 2.3732,4.9472 2.3732,8.093 0,8.0309 -6.98766,7.2876 -10.16966,-1.0817 z m 46.68851,-2.5242 c -0.61565,-2.3936 -1.32648,-13.8643 -1.57961,-25.49038 -0.25312,-11.62612 -1.22369,-21.84253 -2.15679,-22.70313 -0.93313,-0.86062 -5.77755,-2.86764 -10.76539,-4.46008 -6.14829,-1.96295 -9.88489,-5.06295 -11.60287,-9.62619 -6.17341,-16.39757 -5.63925,-32.84298 1.06677,-32.84298 2.51107,0 3.44026,3.68522 3.44026,13.64441 0,13.057 0.34797,13.7869 8.08233,16.9536 12.9555,5.3044 29.69796,2.6709 33.07332,-5.20226 1.00387,-2.34153 2.32182,-9.29326 2.92879,-15.44826 1.34084,-13.59699 2.53349,-15.09126 7.08124,-8.87184 3.57224,4.8853 3.32317,20.26349 -0.48601,30.01024 -2.48546,6.35962 -10.95996,13.48822 -16.16188,13.59505 -3.47399,0.0714 -3.92301,3.25009 -3.26116,23.08629 0.85328,25.57213 -0.14225,31.70763 -5.14449,31.70763 -1.86731,0 -3.89887,-1.9585 -4.51451,-4.3521 z m -75.143389,-9.3257 c -0.640966,-2.0518 -1.824915,-5.6888 -2.63096,-8.0823 -3.463216,-10.284 -8.395128,-50.68986 -8.423454,-69.01071 -0.03208,-20.72439 3.44444,-38.5465 7.519029,-38.5465 2.898125,0 2.837022,-0.97701 2.384561,38.12963 -0.339533,29.34651 1.476853,44.80502 7.681794,65.3765 2.430171,8.05688 0.920989,15.86368 -3.066734,15.86368 -1.264375,0 -2.823295,-1.6787 -3.464236,-3.7303 z M 118.60523,990.959 c -0.86588,-3.07751 -2.42303,-5.59546 -3.46031,-5.59546 -1.03727,0 -2.74175,-3.63705 -3.7877,-8.08233 -1.04593,-4.44528 -2.08263,-8.64188 -2.30376,-9.32577 -1.29828,-4.01532 -4.5843,-33.49604 -5.26672,-47.25054 -0.92626,-18.66894 0.35209,-24.86871 5.12777,-24.86871 2.5864,0 3.66585,6.11524 4.49952,25.49043 1.20027,27.89555 3.80094,43.00893 9.80937,57.00599 3.37856,7.87054 3.43919,9.76217 0.43848,13.67779 -3.3193,4.33136 -3.55597,4.28214 -5.05665,-1.0514 z m 29.70378,-39.60412 c -11.13471,-2.26817 -10.07232,-22.09745 1.5518,-28.964 8.91924,-5.26871 10.5407,-5.2241 17.10706,0.47088 6.17749,5.35771 7.24595,18.68856 1.92437,24.01014 -4.04788,4.04788 -13.07139,6.01318 -20.58323,4.48298 z m 13.64859,-14.15631 c 1.3208,-6.85844 -3.04987,-10.01447 -9.26344,-6.68908 -5.80635,3.10747 -6.94728,8.97159 -2.13215,10.95887 5.5354,2.28453 10.49092,0.42777 11.39559,-4.26979 z m -34.38986,-28.91499 c -7.82532,-10.98964 -10.19239,-40.1333 -3.83065,-47.16297 6.67722,-7.37824 38.47596,-12.8169 49.71706,-8.5033 6.7627,2.5951 11.30233,14.84517 11.30233,30.49913 0,23.66907 -2.00203,26.65016 -19.0735,28.40098 -7.97457,0.81787 -18.53407,2.22071 -23.46551,3.11742 -8.09287,1.47161 -9.51989,0.85293 -14.64973,-6.35126 z m 41.62822,-11.45282 c 6.39626,-6.39627 5.19908,-25.63105 -1.95592,-31.42481 -6.2089,-5.02766 -19.12827,-5.71237 -28.36602,-1.50337 -10.88414,4.95915 -13.61882,28.78988 -4.18846,36.49923 5.57614,4.55849 28.78215,2.15719 34.5104,-3.57105 z m -28.80398,-7.32875 c -4.06039,-8.91163 -3.61931,-12.82751 2.08771,-18.53453 10.35373,-10.35374 24.62469,-4.06917 24.78962,10.91677 0.0955,8.67219 -5.89212,13.76562 -16.30813,13.87286 -5.86115,0.0605 -8.36755,-1.42302 -10.5692,-6.2551 z m 17.00893,-8.58705 c 0,-3.31581 -1.65792,-4.97374 -4.97374,-4.97374 -3.31582,0 -4.97375,1.65793 -4.97375,4.97374 0,3.31583 1.65793,4.97375 4.97375,4.97375 3.31582,0 4.97374,-1.65792 4.97374,-4.97375 z m -85.50884,-6.3629 c -0.818056,-2.13182 -0.530027,-8.5666 0.640096,-14.29951 1.170097,-5.73291 1.941376,-15.45939 1.713951,-21.61439 -1.185815,-32.093 -1.502642,-33.98977 -6.589262,-39.44962 -5.009776,-5.37737 -5.002764,-12.77467 0.01244,-12.77467 1.34112,0 5.497775,4.01108 9.237034,8.91349 6.48004,8.4958 6.806466,10.27313 6.965452,37.92478 0.111163,19.33546 -0.970601,31.70691 -3.243501,37.09363 -3.738762,8.86079 -6.449004,10.16575 -8.735856,4.20629 z m 36.19272,-30.31844 c -0.0542,-17.43918 -1.17783,-36.49292 -2.49699,-42.34167 -2.48304,-11.00892 -1.41721,-20.45182 2.30842,-20.45182 3.04833,0 8.82093,9.89703 10.85591,18.61227 l 1.73285,7.42134 12.50637,-13.11033 c 8.75366,-9.17638 12.13061,-14.54727 11.25409,-17.89911 -1.7294,-6.61318 4.06357,-11.17717 8.06586,-6.3547 1.667,2.00863 2.27858,4.86937 1.35903,6.35722 -2.95274,4.77765 5.39303,13.85261 15.94092,17.33374 5.63348,1.8592 11.36506,4.73278 12.73688,6.3857 3.17533,3.82606 0.48337,11.09632 -4.10864,11.09632 -3.41609,0 -13.38737,-4.80312 -15.86484,-7.642 -2.29559,-2.63047 -11.15528,-5.58258 -14.92123,-4.97188 -2.05166,0.3327 -6.03063,3.44683 -8.84216,6.92027 -3.0781,3.80277 -7.65847,6.31533 -11.51285,6.31533 -6.38275,0 -6.40602,0.078 -8.18053,27.45687 -1.60642,24.78565 -4.54237,36.58005 -9.1058,36.58005 -0.8958,0 -1.67307,-14.26842 -1.72729,-31.7076 z m 31.90803,2.44791 c -13.45306,-4.44226 -16.82272,-20.7389 -6.19826,-29.97673 4.74341,-4.12435 9.43258,-5.42222 19.59044,-5.42222 7.71976,0 14.38747,1.31163 15.80285,3.10859 7.29683,9.26412 5.14566,27.49251 -3.56217,30.1847 -7.3013,2.25731 -21.61311,3.43297 -25.63286,2.10566 z m 18.34171,-14.22016 c 7.38861,-5.59496 3.29928,-11.2313 -8.14861,-11.2313 -7.65906,0 -10.20847,1.10447 -11.42948,4.95148 -0.86433,2.72332 -0.87371,6.0806 -0.0199,7.46062 2.25341,3.6461 14.17298,2.92796 19.59893,-1.1808 z m 31.99391,-16.1713 c -1.69679,-2.71701 -3.08508,-10.1475 -3.08508,-16.51222 0,-14.19919 4.35592,-18.17953 19.89497,-18.17953 16.15721,0 19.89497,3.80134 19.89497,20.23348 0,12.18841 -0.66836,13.93068 -6.3342,16.5122 -10.48914,4.77919 -26.79185,3.67664 -30.37066,-2.05393 z m 21.94711,-10.06872 c 10.16715,-5.4413 2.8499,-19.24027 -8.66948,-16.34908 -8.09243,2.03105 -11.0321,11.21549 -5.00124,15.62535 5.43294,3.97268 7.40493,4.07708 13.67072,0.72373 z"
       id="path3002"
       inkscape:connector-curvature="0" />
  </g>
</svg>
