<?xml version="1.0" encoding="UTF-8" standalone="no"?>
<!-- Created with Inkscape (http://www.inkscape.org/) -->

<svg
   xmlns:dc="http://purl.org/dc/elements/1.1/"
   xmlns:cc="http://creativecommons.org/ns#"
   xmlns:rdf="http://www.w3.org/1999/02/22-rdf-syntax-ns#"
   xmlns:svg="http://www.w3.org/2000/svg"
   xmlns="http://www.w3.org/2000/svg"
   xmlns:sodipodi="http://sodipodi.sourceforge.net/DTD/sodipodi-0.dtd"
   xmlns:inkscape="http://www.inkscape.org/namespaces/inkscape"
   width="300"
   height="300"
   id="svg2"
   version="1.1"
   inkscape:version="0.48.4 r9939"
   sodipodi:docname="image-seal.svg">
  <defs
     id="defs4" />
  <sodipodi:namedview
     id="base"
     pagecolor="#ffffff"
     bordercolor="#666666"
     borderopacity="1.0"
     inkscape:pageopacity="0.0"
     inkscape:pageshadow="2"
     inkscape:zoom="2.0018437"
     inkscape:cx="145.03351"
     inkscape:cy="130.6666"
     inkscape:document-units="px"
     inkscape:current-layer="layer1"
     showgrid="false"
     inkscape:window-width="1215"
     inkscape:window-height="1000"
     inkscape:window-x="65"
     inkscape:window-y="24"
     inkscape:window-maximized="1"
     fit-margin-top="10"
     fit-margin-left="10"
     fit-margin-right="10"
     fit-margin-bottom="10" />
  <metadata
     id="metadata7">
    <rdf:RDF>
      <cc:Work
         rdf:about="">
        <dc:format>image/svg+xml</dc:format>
        <dc:type
           rdf:resource="http://purl.org/dc/dcmitype/StillImage" />
        <dc:title />
      </cc:Work>
    </rdf:RDF>
  </metadata>
  <g
     inkscape:label="Calque 1"
     inkscape:groupmode="layer"
     id="layer1"
     transform="translate(0,-752.36218)">
    <path
       style="fill:#000000"
       d="m 176.3452,1042.4824 c -1.06904,-2.6839 -2.36732,-24.7615 -2.88503,-49.06104 -0.5177,-24.29976 -1.66443,-44.90448 -2.54826,-45.78833 -0.88386,-0.88384 -4.50047,1.11128 -8.0369,4.43359 -7.94419,7.46318 -12.31482,24.7832 -14.72388,58.34848 -1.58446,22.0759 -2.55956,25.7932 -6.76623,25.7932 -6.25759,0 -9.21559,-11.1923 -5.52408,-20.9014 1.53613,-4.0405 2.8377,-13.2248 2.89233,-20.40988 0.18571,-24.41158 9.86599,-53.49643 17.80527,-53.49643 5.33293,0 15.55693,-13.15852 15.55693,-20.02209 0,-6.52132 -1.18554,-7.86251 -6.94996,-7.86251 -11.37237,0 -20.93464,-10.43158 -20.93464,-22.83783 0,-7.17856 -1.80297,-12.22202 -5.50111,-15.38849 -3.02559,-2.59059 -6.99142,-11.36969 -8.81296,-19.5091 -3.77351,-16.86188 -5.56685,-16.88711 -7.81304,-0.10986 -1.14199,8.52976 -3.00847,12.03825 -6.79113,12.76554 -4.64156,0.89245 -4.98593,-0.17902 -3.12536,-9.72305 2.83826,-14.55959 3.27772,-73.02633 0.62029,-82.52885 -1.78531,-6.38396 -1.2765,-7.66827 3.03797,-7.66827 8.13074,0 11.62326,11.97452 12.0343,41.261 0.20886,14.88095 0.92354,24.23297 1.58817,20.78225 1.83988,-9.55243 9.18594,-7.87996 9.18594,2.09135 0,7.10957 1.06829,8.36538 7.11621,8.36538 5.42635,0 7.82049,-2.02029 10.08202,-8.50776 4.66476,-13.38132 11.73286,-9.70791 13.73386,7.13774 l 1.65328,13.9181 0.43807,-16.35996 c 0.41924,-15.65657 -0.0415,-16.82535 -10.71575,-27.1844 -11.05948,-10.73287 -11.15384,-11.00139 -11.15384,-31.74099 0,-18.6258 0.57514,-20.91655 5.2517,-20.91655 2.90658,0 5.90292,2.49035 6.7101,5.57692 1.23646,4.7282 3.80348,5.57692 16.86806,5.57692 13.10619,0 15.682,-0.85795 17.23133,-5.73949 1.23749,-3.89896 3.75678,-5.46379 7.85618,-4.8798 5.51317,0.7854 6.10505,2.73503 6.85066,22.56573 0.78328,20.83253 0.48332,22.03885 -7.45378,29.97595 -4.54843,4.54845 -10.24862,8.26991 -12.66708,8.26991 -3.41464,0 -4.45161,3.27117 -4.64076,14.63942 -0.13384,8.05168 -0.75347,25.30528 -1.37669,38.34133 -1.36132,28.47504 0.10847,31.88201 11.97084,27.7468 6.6048,-2.30246 8.88183,-5.00919 9.86833,-11.73072 1.80009,-12.26479 -0.47738,-18.80454 -6.5487,-18.80454 -6.49789,0 -8.69043,-8.12923 -7.56091,-28.03365 0.63886,-11.25797 1.94406,-15.18749 5.04455,-15.18749 2.30048,0 4.00841,2.19591 3.7954,4.8798 -0.2987,3.76367 1.77413,4.87981 9.0625,4.87981 7.49502,0 9.44979,-1.11959 9.44979,-5.41235 0,-7.11777 4.80011,-9.85751 9.88174,-5.64013 2.86294,2.37602 4.06056,9.25593 4.06056,23.32642 0,16.75759 -0.89393,20.60073 -5.57692,23.97605 -3.67068,2.64566 -5.57692,7.21846 -5.57692,13.37814 0,11.09738 -11.65549,24.33063 -24.04175,27.29624 -4.41405,1.05683 -9.59406,3.15696 -11.51113,4.66691 -8.12867,6.40253 -0.58028,18.79331 11.44878,18.79331 4.56376,0 9.72676,3.34771 14.96637,9.70423 8.26642,10.02859 11.38327,21.3805 17.87464,65.10134 2.93779,19.7863 2.85597,23.5917 -0.55342,25.7411 -6.31726,3.9827 -10.39243,-4.2229 -12.33119,-24.8298 -0.96007,-10.2044 -2.92919,-21.43578 -4.37585,-24.95872 -1.44668,-3.52294 -2.6303,-11.14659 -2.6303,-16.94185 0,-11.82357 -8.8992,-22.66246 -18.60698,-22.66246 -5.57092,0 -5.67404,1.13178 -4.57274,50.19238 1.08179,48.19155 0.91121,50.19225 -4.27923,50.19225 -2.97325,0 -6.28059,-2.1959 -7.34965,-4.8798 z m -4.41857,-164.51929 c -0.16006,-20.68723 -0.6779,-23.33852 -3.40429,-17.42788 -1.76856,3.83413 -6.07547,9.52073 -9.57089,12.63686 -3.49542,3.11613 -6.35532,8.19384 -6.35532,11.28381 0,7.43343 8.51158,17.82292 14.63942,17.86932 4.29269,0.0326 4.8571,-2.8986 4.69108,-24.36211 z m -16.54204,-21.44599 c 0,-8.19666 -2.61711,-10.1761 -10.66994,-8.07023 -4.0835,1.06784 -6.06083,3.75319 -6.06083,8.23087 0,5.52539 1.41044,6.64593 8.36539,6.64593 7.01016,0 8.36538,-1.10269 8.36538,-6.80657 z m 63.5769,3.46042 c 1.84039,-1.84038 3.34616,-5.60481 3.34616,-8.36538 0,-3.99679 -2.2721,-5.01923 -11.15385,-5.01923 -10.53419,0 -11.15384,0.46475 -11.15384,8.36538 0,7.30312 0.99144,8.36538 7.80769,8.36538 4.29423,0 9.31346,-1.50577 11.15384,-3.34615 z m -24.66583,-62.0292 c 5.98987,-7.21734 2.45368,-16.77794 -6.58707,-17.80906 -12.61798,-1.43915 -26.74708,2.06212 -26.74708,6.62809 0,12.14851 25.4473,20.68405 33.33415,11.18097 z m -92.7519,229.19746 C 78.652731,978.20418 75.551841,938.40788 88.778941,863.32369 c 6.72886,-38.1967 5.00769,-63.51391 -6.20123,-91.21565 -1.99313,-4.92585 -2.77862,-9.80136 -1.74552,-10.83445 4.0861,-4.0861 15.90056,7.66012 19.196819,19.08595 4.25478,14.7482 4.3234,50.20498 0.14723,75.993 -8.152839,50.34273 -9.318639,62.96353 -7.858989,85.08202 1.75901,26.65503 9.079309,58.89804 17.898459,78.83494 5.51621,12.4703 5.70976,21.5157 0.46037,21.5157 -1.25676,0 -5.36625,-6.5877 -9.13221,-14.6394 z M 69.612441,1015.9614 C 61.674939,1005.9901 55,970.19209 55,937.59398 c 0,-32.58171 3.400458,-46.38568 11.426621,-46.38568 5.85681,0 7.51242,10.61865 2.44562,15.68545 -3.8022,3.80218 -3.89345,50.57239 -0.11804,60.50235 1.63711,4.30594 2.97656,11.43771 2.97656,15.8485 0,4.41051 1.25481,8.79452 2.78846,9.7426 3.44824,2.13094 3.71053,22.8029 0.31595,24.9007 -1.35988,0.8407 -3.71011,-0.028 -5.22273,-1.9265 z m 50.916389,-11.2373 c -8.36017,-10.10872 -10.26577,-19.44867 -10.69932,-52.43964 -0.46919,-35.70061 4.16066,-61.07616 11.14352,-61.07616 5.48541,0 7.30571,5.46137 3.39205,10.17704 -4.64677,5.59901 -4.81946,71.43488 -0.20188,76.99869 4.03593,4.86308 5.57335,27.67777 1.94263,28.82827 -1.53365,0.486 -4.04326,-0.6336 -5.57692,-2.4882 z M 62.004583,863.42901 c -0.95514,-3.00936 -0.276671,-8.19955 1.507728,-11.53371 4.38619,-8.19568 1.78277,-44.07991 -4.045657,-55.76325 -5.244113,-10.51208 -2.045988,-16.97604 5.358637,-10.83074 9.60631,7.97251 12.48239,18.75086 12.48239,46.77866 0,23.18831 -0.81369,28.3273 -5.09937,32.20577 -6.56244,5.93892 -8.08752,5.81087 -10.203728,-0.85673 z"
       id="path3093"
       inkscape:connector-curvature="0" />
  </g>
</svg>
