<?xml version="1.0" encoding="UTF-8" standalone="no"?>
<!-- Created with Inkscape (http://www.inkscape.org/) -->

<svg
   xmlns:dc="http://purl.org/dc/elements/1.1/"
   xmlns:cc="http://creativecommons.org/ns#"
   xmlns:rdf="http://www.w3.org/1999/02/22-rdf-syntax-ns#"
   xmlns:svg="http://www.w3.org/2000/svg"
   xmlns="http://www.w3.org/2000/svg"
   xmlns:sodipodi="http://sodipodi.sourceforge.net/DTD/sodipodi-0.dtd"
   xmlns:inkscape="http://www.inkscape.org/namespaces/inkscape"
   width="300"
   height="300"
   id="svg2"
   version="1.1"
   inkscape:version="0.48.4 r9939"
   sodipodi:docname="image-seal.svg">
  <defs
     id="defs4" />
  <sodipodi:namedview
     id="base"
     pagecolor="#ffffff"
     bordercolor="#666666"
     borderopacity="1.0"
     inkscape:pageopacity="0.0"
     inkscape:pageshadow="2"
     inkscape:zoom="1.979899"
     inkscape:cx="144.1876"
     inkscape:cy="145.59431"
     inkscape:document-units="px"
     inkscape:current-layer="layer1"
     showgrid="false"
     inkscape:window-width="1215"
     inkscape:window-height="1000"
     inkscape:window-x="65"
     inkscape:window-y="24"
     inkscape:window-maximized="1"
     fit-margin-top="10"
     fit-margin-left="10"
     fit-margin-right="10"
     fit-margin-bottom="10" />
  <metadata
     id="metadata7">
    <rdf:RDF>
      <cc:Work
         rdf:about="">
        <dc:format>image/svg+xml</dc:format>
        <dc:type
           rdf:resource="http://purl.org/dc/dcmitype/StillImage" />
        <dc:title />
      </cc:Work>
    </rdf:RDF>
  </metadata>
  <g
     inkscape:label="Calque 1"
     inkscape:groupmode="layer"
     id="layer1"
     transform="translate(0,-752.36218)">
    <path
       style="fill:#000000"
       d="m 88.841483,1039.6182 c -10.03078,-23.3996 -10.98476,-30.604 -10.71538,-80.92186 0.20073,-37.496 1.36411,-53.99586 4.54234,-64.42281 2.34987,-7.70933 6.24831,-20.42534 8.6632,-28.25779 2.54878,-8.26679 4.48632,-24.48203 4.61864,-38.65369 0.20805,-22.28077 -0.55018,-26.0273 -8.68213,-42.89862 -9.45469,-19.6157 -9.73845,-28.59534 -0.75159,-23.78571 7.00543,3.74919 12.28843,12.52485 18.062357,30.00372 6.75233,20.44058 5.69978,41.69544 -4.30141,86.86259 -7.954487,35.92381 -9.241887,48.19832 -8.961787,85.44499 0.22894,30.43778 1.42479,43.67828 4.74694,52.55738 8.997167,24.0467 2.3157,46.3193 -7.22118,24.0718 z m -26.97805,-5.5887 c -10.81362,-16.9618 -12.98382,-87.97712 -3.6009,-117.83179 7.84372,-24.95712 14.05272,-16.31296 8.70449,12.11833 -4.4905,23.87173 -2.33895,66.205 5.08557,100.06166 2.35508,10.7394 -4.51586,14.5506 -10.18916,5.6518 z m 68.760997,-1.4182 c -6.87843,-4.7557 -1.16482,-10.4441 12.3625,-12.3079 7.21807,-0.9945 26.92771,-2.5637 43.79921,-3.4871 33.75948,-1.8477 44.3928,0.7398 41.91883,10.2002 -1.10368,4.2205 -3.88593,5.1423 -15.52145,5.1423 -7.7972,0 -28.71093,0.6908 -46.47494,1.535 -19.03934,0.905 -33.85238,0.4606 -36.08415,-1.0825 z m -24.31409,-26.2786 c -4.80353,-14.63257 -5.80671,-24.18206 -5.80671,-55.27492 0,-29.95799 0.81878,-38.26601 4.03425,-40.93461 6.18636,-5.13421 12.24099,-1.24465 12.24099,7.86373 0,4.43446 -1.22065,8.81706 -2.71254,9.7391 -3.32446,2.05464 -3.64378,43.8612 -0.35054,45.89652 1.29909,0.80289 3.06278,7.28331 3.91934,14.40093 0.85654,7.11762 2.39566,18.12885 3.42025,24.46945 1.66864,10.3262 1.29979,11.5282 -3.53773,11.5282 -4.24667,0 -6.6413,-3.7794 -11.20731,-17.6884 z m 47.43108,-12.70558 c -10.46793,-7.80202 -15.26224,-20.35283 -15.26224,-39.95446 0,-15.00902 0.74386,-17.01581 9.5843,-25.85625 9.46945,-9.46942 9.86105,-9.58429 32.67378,-9.58429 20.898,0 23.72137,0.63191 29.7475,6.65806 3.66193,3.6619 6.74665,8.23931 6.85491,10.17202 2.9003,51.77109 0.83752,56.64908 -26.05782,61.62097 -22.21287,4.10623 -28.63185,3.58373 -37.54043,-3.05605 z m 41.02295,-15.68941 c 5.89511,-3.5943 8.81575,-7.47383 8.81575,-11.71003 0,-6.24438 -0.33931,-6.31829 -23.73471,-5.16937 -25.48374,1.25146 -29.79554,2.9217 -25.83086,10.00618 6.70233,11.9764 26.81586,15.36892 40.74982,6.87322 z m -8.17687,-29.57435 c 16.97133,-2.41774 19.0796,-4.01893 13.12807,-9.97046 -6.84149,-6.84148 -23.1356,-9.80838 -32.75473,-5.96408 -7.7788,3.10881 -17.35027,12.01351 -17.54126,16.31936 -0.11121,2.50954 18.18061,2.32015 37.16792,-0.38482 z m -35.90189,-44.15217 c -9.74344,-5.70699 -17.62391,-16.99533 -17.66973,-25.31089 -0.0665,-12.05927 -4.23761,-17.23176 -6.19188,-7.67828 -2.2462,10.98069 -8.92724,19.26904 -12.61073,15.6446 -2.09785,-2.06422 -1.60797,-10.63617 1.72363,-30.16005 4.75505,-27.86556 4.63225,-30.47014 -3.58945,-76.13582 -1.33978,-7.44153 -0.77357,-8.81576 3.63225,-8.81576 5.14959,0 14.36186,14.74575 14.36186,22.98853 0,2.09918 1.21815,4.56954 2.70698,5.48969 2.69857,1.66781 17.14352,-5.24624 23.70665,-11.34715 1.90103,-1.76713 5.89049,-3.98553 8.86544,-4.92974 4.17463,-1.32496 5.40902,-4.10944 5.40902,-12.20133 0,-8.08656 1.23527,-10.87663 5.4008,-12.19872 7.24438,-2.29928 11.29382,0.60959 10.73436,7.71086 -0.94762,12.02813 0.41141,14.47638 11.24657,20.25987 6.10859,3.26055 12.32852,5.92831 13.8221,5.92831 5.64151,0 18.47204,11.43295 18.47204,16.45993 0,7.44259 -11.15817,8.03243 -18.22705,0.96352 -2.11895,-2.11892 -7.12405,-4.63307 -11.12244,-5.58699 -3.99839,-0.95389 -8.49044,-2.61494 -9.98233,-3.69117 -1.4919,-1.07625 -6.80549,-2.73358 -11.80801,-3.68292 -9.33949,-1.7724 -20.14343,2.533 -31.34475,12.491 -2.93681,2.61082 -7.55076,4.74694 -10.25323,4.74694 -2.70248,0 -4.99772,1.52581 -5.1005,3.39068 -0.10281,1.86487 -0.62985,6.74744 -1.17122,10.85015 -1.13165,8.57578 2.58622,9.8765 6.6305,2.31971 3.90988,-7.30568 17.13265,-11.15404 37.85487,-11.01733 44.34115,0.29255 54.52416,8.34535 54.52416,43.11807 0,23.80416 -3.08552,30.50253 -17.19628,37.33154 -13.20917,6.39269 -53.7631,8.36975 -62.82363,3.06275 z m 59.51794,-21.07724 c 6.94139,-7.24525 7.52388,-9.35371 6.38344,-23.10601 -1.53895,-18.55773 -5.53065,-22.02986 -28.10573,-24.44744 -19.29182,-2.06598 -29.45077,-0.0483 -38.24208,7.59579 -11.88589,10.33464 -7.09245,40.86384 7.22778,46.03334 2.23784,0.80782 13.30042,1.56516 24.5835,1.68294 19.28819,0.20127 20.97134,-0.26257 28.15309,-7.75862 z m -44.55053,-2.01721 c -7.65069,-3.29606 -10.8986,-8.65007 -10.8986,-17.9658 0,-10.70471 2.38342,-13.0822 18.06849,-18.02336 11.1024,-3.49752 20.06219,-2.72024 28.00203,2.42924 5.38328,3.49139 4.78045,22.92438 -0.88697,28.59177 -4.58848,4.5885 -27.46994,7.90418 -34.28495,4.96815 z m 22.78628,-13.35681 c 6.17246,-2.36859 5.2853,-11.23496 -1.33438,-13.33596 -5.93501,-1.8837 -21.50035,3.21232 -21.50035,7.03912 0,5.70911 14.17793,9.61877 22.83473,6.29684 z m -127.763287,8.24506 c 0.91291,-5.62565 2.7238,-10.9375 4.02419,-11.80419 4.35127,-2.89997 8.67853,-19.87664 8.62889,-33.85284 -0.0363,-10.20151 -2.17389,-17.6908 -8.13762,-28.51028 -4.44865,-8.07081 -8.08847,-16.31015 -8.08847,-18.30964 0,-6.5973 7.31572,-3.78945 15.69964,6.02577 16.36692,19.161 17.90094,53.27549 3.62447,80.60376 -4.08593,7.82136 -9.63009,14.57734 -12.40043,15.11087 -4.37858,0.84325 -4.80117,-0.32507 -3.35067,-9.26345 z"
       id="path3128"
       inkscape:connector-curvature="0" />
  </g>
</svg>
