<?xml version="1.0" encoding="UTF-8" standalone="no"?>
<!-- Created with Inkscape (http://www.inkscape.org/) -->

<svg
   xmlns:dc="http://purl.org/dc/elements/1.1/"
   xmlns:cc="http://creativecommons.org/ns#"
   xmlns:rdf="http://www.w3.org/1999/02/22-rdf-syntax-ns#"
   xmlns:svg="http://www.w3.org/2000/svg"
   xmlns="http://www.w3.org/2000/svg"
   xmlns:sodipodi="http://sodipodi.sourceforge.net/DTD/sodipodi-0.dtd"
   xmlns:inkscape="http://www.inkscape.org/namespaces/inkscape"
   width="300"
   height="300"
   id="svg2"
   version="1.1"
   inkscape:version="0.48.4 r9939"
   sodipodi:docname="image-seal.svg">
  <defs
     id="defs4" />
  <sodipodi:namedview
     id="base"
     pagecolor="#ffffff"
     bordercolor="#666666"
     borderopacity="1.0"
     inkscape:pageopacity="0.0"
     inkscape:pageshadow="2"
     inkscape:zoom="1.979899"
     inkscape:cx="200.43343"
     inkscape:cy="134.48103"
     inkscape:document-units="px"
     inkscape:current-layer="layer1"
     showgrid="false"
     inkscape:window-width="1215"
     inkscape:window-height="1000"
     inkscape:window-x="65"
     inkscape:window-y="24"
     inkscape:window-maximized="1" />
  <metadata
     id="metadata7">
    <rdf:RDF>
      <cc:Work
         rdf:about="">
        <dc:format>image/svg+xml</dc:format>
        <dc:type
           rdf:resource="http://purl.org/dc/dcmitype/StillImage" />
        <dc:title />
      </cc:Work>
    </rdf:RDF>
  </metadata>
  <g
     inkscape:label="Calque 1"
     inkscape:groupmode="layer"
     id="layer1"
     transform="translate(0,-752.36218)">
    <path
       style="fill:#000000"
       d="m 234.90278,1041.6401 c -1.64957,-6.1261 -2.9839,-33.8697 -2.96518,-61.65252 0.0305,-45.15099 -1.7916,-58.51424 -6.35634,-46.61872 -1.63086,4.24993 -17.30321,12.91886 -23.35566,12.91886 -2.07516,0 -3.77302,1.26108 -3.77302,2.80239 0,1.54132 2.38326,2.80239 5.29614,2.80239 9.78493,0 17.42712,22.42145 19.13958,56.1536 1.11198,21.9044 0.60391,30.502 -1.89382,32.0457 -7.09545,4.3852 -9.86138,-4.7067 -10.87697,-35.7536 -0.76894,-23.50772 -2.13976,-32.68039 -5.43956,-36.39819 -7.14371,-8.04874 -8.93399,-0.95008 -9.02776,35.79659 -0.0864,33.8208 -2.07828,43.145 -8.3846,39.2474 -2.55213,-1.5773 -2.94175,-11.5069 -1.55347,-39.5924 1.01916,-20.61794 0.83475,-37.46786 -0.40983,-37.44426 -8.73598,0.16562 -14.87358,18.21217 -14.87358,43.73316 0,18.257 -2.80146,26.2836 -9.17353,26.2836 -2.68595,0 -1.30591,-41.51923 1.79871,-54.11585 2.68043,-10.87545 13.36812,-26.79827 19.28496,-28.73128 5.76883,-1.88466 6.58783,-6.82925 1.13116,-6.82925 -6.24999,0 -21.31132,-8.51179 -23.93068,-13.52423 -3.09086,-5.91477 -0.6281,-22.99922 3.97962,-27.60693 1.91694,-1.91694 8.66961,-5.10334 15.00592,-7.0809 16.25348,-5.07268 15.55669,-7.756 -3.07148,-11.82835 -8.76091,-1.91523 -19.03961,-19.54437 -14.21082,-24.37316 1.88806,-1.88806 4.76064,0.4766 8.70957,7.16954 9.01362,15.27696 15.5035,12.63246 18.47484,-7.52817 3.27179,-22.19933 12.49665,-15.84579 10.17217,7.00598 -0.3597,3.53577 1.52469,4.90416 6.7533,4.90416 5.84115,0 7.58449,-1.66161 8.96018,-8.54008 2.00853,-10.04257 10.24325,-10.45413 11.65247,-0.58236 1.22882,8.60815 -6.27275,18.34835 -16.8868,21.92625 -12.65048,4.26436 -13.34835,9.61529 -1.254,9.61529 7.71765,0 11.33677,1.91409 16.78729,8.87858 l 6.94852,8.87858 1.87032,-15.18395 c 1.0287,-8.35116 1.4612,-21.48931 0.96117,-29.19589 -0.89605,-13.80937 -1.08335,-14.06705 -12.95726,-17.82401 -17.39798,-5.50485 -19.61197,-10.68685 -20.52164,-48.03208 -0.64072,-26.30577 -0.0714,-32.06697 3.09892,-31.35422 2.13614,0.48027 5.34743,2.87475 7.13619,5.32104 1.7888,2.44629 6.91532,4.83058 11.39226,5.29841 4.89522,0.51155 11.50049,4.53444 16.5704,10.0921 l 8.43042,9.24149 -1.9659,36.43102 c -1.08124,20.03707 -2.09108,76.47013 -2.24409,125.40681 -0.16254,52.01756 -1.34793,88.97586 -2.85353,88.97586 -1.41644,0 -3.925,-5.0123 -5.57459,-11.1384 z M 187.24303,921.06625 c 0,-7.70658 -1.13631,-14.01194 -2.52512,-14.01194 -1.38881,0 -2.3346,6.30399 -2.10178,14.00888 0.55173,18.25783 4.6269,18.26052 4.6269,0.003 z m 16.81432,0 c 0,-7.70658 -1.26107,-14.01194 -2.80239,-14.01194 -1.5413,0 -2.80238,4.31063 -2.80238,9.57915 0,5.26854 -0.76544,11.57391 -1.70102,14.01194 -1.11622,2.90884 -0.15273,4.43278 2.80238,4.43278 3.53584,0 4.50341,-3.01052 4.50341,-14.01193 z m -29.17623,4.20985 c 0.96626,-3.84983 0.97537,-9.03619 0.0196,-11.52519 -2.42916,-6.33045 -10.07736,0.19085 -10.07736,8.5926 0,11.57813 7.34943,13.72114 10.05718,2.93259 z m 42.23413,-11.0611 c -0.91984,-2.39706 -2.97309,-4.35831 -4.56279,-4.35831 -3.28953,0 -3.81566,8.33982 -0.99057,15.70189 1.7254,4.49629 2.14425,4.40292 4.56279,-1.01723 1.46468,-3.28241 1.91042,-7.92928 0.99057,-10.32635 z m 17.76835,-79.83193 c 0,-5.89315 -13.559,-17.00514 -20.7499,-17.00514 -5.37506,0 -5.90584,8.989 -0.99507,16.85236 4.84617,7.75994 21.74497,7.87867 21.74497,0.15272 z m -2.80238,-29.34175 c 0,-5.04797 -2.23389,-7.51053 -8.93087,-9.84513 -14.44053,-5.034 -18.15139,5.93457 -4.32678,12.78909 10.01156,4.96393 13.25765,4.2431 13.25765,-2.94396 z m -99.69155,238.99538 c -1.0663,-1.7254 -1.13048,-28.5232 -0.14264,-59.55079 0.98792,-31.02752 2.49544,-79.74357 3.35003,-108.25785 2.00763,-66.98678 4.10003,-78.16188 15.97609,-85.32447 4.97593,-3.00106 12.83034,-6.78427 17.45429,-8.40716 5.42217,-1.90307 8.72512,-5.18947 9.30265,-9.25609 1.24063,-8.7354 8.4257,-7.90156 12.07345,1.4012 3.50594,8.94106 1.56891,51.42155 -2.87475,63.045 -2.24805,5.88034 -5.93764,8.49886 -15.62631,11.0902 -6.97586,1.86574 -12.6834,4.39182 -12.6834,5.61344 0,1.22164 -2.52215,2.22116 -5.60478,2.22116 -3.08262,0 -5.69876,1.57634 -5.81363,3.50298 -0.11491,1.92666 -0.64971,25.57179 -1.18853,52.54477 -1.20445,60.29811 -4.10064,123.03541 -5.98325,129.61041 -1.59874,5.5836 -5.37947,6.3945 -8.23931,1.7672 z m 39.46181,-206.29331 c 4.29729,-3.12588 6.84074,-7.79459 6.89631,-12.6589 0.0936,-8.18852 -2.57844,-9.44174 -10.4589,-4.90537 -2.67639,1.54063 -8.3341,4.03156 -12.57271,5.5354 -6.19729,2.19876 -7.70656,4.46289 -7.70656,11.56105 0,8.33823 0.47145,8.73252 8.51679,7.12348 4.68424,-0.93686 11.58052,-3.93192 15.32507,-6.65566 z m 0.67903,-31.09362 c 3.46794,-2.1606 6.30536,-5.60054 6.30536,-7.64425 0,-11.31069 -23.24101,-5.35268 -27.57087,7.06797 -1.53876,4.41407 -2.14435,8.67897 -1.34578,9.47754 1.60599,1.60599 12.85281,-2.82147 22.61129,-8.90126 z m -71.2361,228.70713 c -1.495017,-1.978 -4.337747,-9.2712 -6.317187,-16.2071 -1.97947,-6.9359 -4.63453,-15.3007 -5.90017,-18.5885 -8.07704,-20.98144 -3.75812,-129.10356 5.87607,-147.10522 3.51029,-6.55903 3.35037,-54.90868 -0.18888,-57.09605 -1.54132,-0.95259 -2.80239,-4.57243 -2.80239,-8.04415 0,-3.47167 -2.52214,-9.01933 -5.60477,-12.32817 -9.86312,-10.5868 -5.18305,-19.82654 5.60477,-11.06542 16.994967,13.80215 21.606347,57.35991 11.042017,104.29979 -1.73442,7.70658 -3.766297,32.92805 -4.515227,56.04775 -1.17073,36.1401 -0.50434,45.96626 4.751217,70.05967 3.36211,15.4131 6.29845,31.0535 6.52522,34.7563 0.4678,7.6388 -4.39426,10.6644 -8.47069,5.2711 z m -32.525189,-15.1845 c -7.256333,-14.3743 -10.052782,-53.53203 -6.411299,-89.77589 2.461779,-24.50253 3.828005,-28.94698 8.898278,-28.94698 3.427729,0 3.812676,3.24724 2.242467,18.91612 -3.02602,30.19571 -2.920121,42.28325 0.644465,73.56265 3.487741,30.605 1.565751,39.9911 -5.373911,26.2441 z m 43.218869,-25.5435 c -10.87793,-27.28149 -11.2458,-93.17937 -0.52017,-93.17937 5.57316,0 7.65478,6.79431 5.29684,17.28865 -1.39085,6.19031 -1.7605,17.12823 -0.82145,24.30648 0.93908,7.17829 2.12602,18.09571 2.63771,24.26096 0.51169,6.16526 2.26277,14.66655 3.89132,18.89179 3.32203,8.61906 1.52936,16.13809 -3.84763,16.13809 -1.96007,0 -4.94655,-3.46799 -6.63662,-7.7066 z m -1.34426,-108.38749 c -0.89391,-2.32953 0.94692,-11.52561 4.09075,-20.43576 4.88259,-13.83814 5.50243,-20.69502 4.25094,-47.02652 -0.8058,-16.95444 -2.31855,-33.66367 -3.36166,-37.13163 -3.32302,-11.04776 6.59822,-7.45048 11.59341,4.20358 6.1497,14.34751 4.07802,65.74435 -3.52208,87.38027 -5.51648,15.70432 -10.21874,20.3917 -13.05136,13.01006 z m -44.837553,-3.47446 c -2.596605,-2.59658 -2.351257,-14.94605 0.296895,-14.94605 3.64172,0 9.044396,-28.53194 9.044396,-47.76413 0,-12.99574 -1.644614,-21.24347 -5.771296,-28.94295 -6.671566,-12.44766 -5.445462,-15.42005 4.225689,-10.2442 8.971562,4.80143 10.067662,8.17487 11.945682,36.76484 2.48496,37.82987 -9.0353,75.83856 -19.741366,65.13249 z"
       id="path3221"
       inkscape:connector-curvature="0" />
  </g>
</svg>
