<?xml version="1.0" encoding="UTF-8" standalone="no"?>
<!-- Created with Inkscape (http://www.inkscape.org/) -->

<svg
   xmlns:dc="http://purl.org/dc/elements/1.1/"
   xmlns:cc="http://creativecommons.org/ns#"
   xmlns:rdf="http://www.w3.org/1999/02/22-rdf-syntax-ns#"
   xmlns:svg="http://www.w3.org/2000/svg"
   xmlns="http://www.w3.org/2000/svg"
   xmlns:sodipodi="http://sodipodi.sourceforge.net/DTD/sodipodi-0.dtd"
   xmlns:inkscape="http://www.inkscape.org/namespaces/inkscape"
   width="300"
   height="300"
   id="svg2"
   version="1.1"
   inkscape:version="0.48.4 r9939"
   sodipodi:docname="image-seal.svg">
  <defs
     id="defs4" />
  <sodipodi:namedview
     id="base"
     pagecolor="#ffffff"
     bordercolor="#666666"
     borderopacity="1.0"
     inkscape:pageopacity="0.0"
     inkscape:pageshadow="2"
     inkscape:zoom="1.9351156"
     inkscape:cx="152.85021"
     inkscape:cy="151.83238"
     inkscape:document-units="px"
     inkscape:current-layer="layer1"
     showgrid="false"
     inkscape:window-width="1215"
     inkscape:window-height="1000"
     inkscape:window-x="65"
     inkscape:window-y="24"
     inkscape:window-maximized="1" />
  <metadata
     id="metadata7">
    <rdf:RDF>
      <cc:Work
         rdf:about="">
        <dc:format>image/svg+xml</dc:format>
        <dc:type
           rdf:resource="http://purl.org/dc/dcmitype/StillImage" />
        <dc:title />
      </cc:Work>
    </rdf:RDF>
  </metadata>
  <g
     inkscape:label="Calque 1"
     inkscape:groupmode="layer"
     id="layer1"
     transform="translate(0,-752.36218)">
    <path
       style="fill:#000000"
       d="m 224.51795,1041.3484 c -5.42205,-3.7067 -14.76558,-12.8131 -20.7634,-20.2367 -5.99778,-7.4235 -11.57324,-14.123 -12.38989,-14.8878 -4.69048,-4.3925 -8.21499,-15.09948 -9.71664,-29.51752 -2.36582,-22.71519 -3.41068,-25.23088 -15.50089,-37.32109 -13.23649,-13.23649 -16.5569,-24.7945 -16.57667,-57.70168 -0.0222,-38.03241 5.13158,-47.60443 27.83566,-51.69215 l 9.77448,-1.75981 -0.36807,-15.2924 c -0.20246,-8.41082 -0.53371,-16.93915 -0.73616,-18.95184 -0.42511,-4.22655 -19.81869,-15.80775 -26.47124,-15.80775 -2.46847,0 -4.48814,-1.89199 -4.48814,-4.20441 0,-3.35103 2.399,-3.86966 11.81937,-2.55526 27.53459,3.84182 33.65347,11.24719 32.34193,39.14193 -0.70196,14.92961 -0.25669,16.35973 5.34678,17.1744 5.8438,0.84964 6.11248,-0.0528 6.11248,-20.53149 0,-18.07265 0.88339,-22.18637 5.65266,-26.32273 6.82008,-5.915 32.44288,-14.67323 36.17663,-12.36565 4.62713,2.85974 2.88977,9.66321 -2.46763,9.66321 -7.63086,0 -22.31302,8.03147 -25.47177,13.93359 -1.52116,2.84238 -2.76578,11.97063 -2.76578,20.28501 l 0,15.11706 12.41295,3.47539 c 18.86042,5.28062 21.11459,10.69953 21.41674,51.48516 0.32057,43.2672 -1.74695,48.94195 -21.3206,58.51841 -12.28016,6.00814 -15.41777,9.14091 -19.27773,19.24814 -2.53571,6.63959 -7.6877,15.39251 -11.44887,19.45089 -4.71766,5.09045 -6.3504,9.32376 -5.26463,13.6499 1.67031,6.65497 21.18084,25.42599 37.38727,35.97019 10.88258,7.0804 13.12662,16.766 4.17155,18.0049 -3.05914,0.4232 -9.9983,-2.2633 -15.42039,-5.9699 z m -24.15219,-77.64669 c 4.11698,-6.28332 9.90591,-31.47834 9.71886,-42.29913 -0.0528,-3.05913 0.14155,-20.5796 0.432,-38.93438 0.7372,-46.58271 1.15619,-43.62559 -6.03639,-42.60409 -5.23211,0.74306 -6.55913,3.16689 -8.09943,14.79381 -1.01319,7.64783 -1.99272,25.1683 -2.17677,38.93439 -0.1841,13.76609 -1.40328,33.31092 -2.70942,43.433 -2.41487,18.71473 -1.30421,33.04526 2.56114,33.04526 1.17531,0 4.01483,-2.86599 6.31001,-6.36886 z m 32.78837,-34.14081 c 6.55827,-2.38593 10.95575,-23.32623 10.95575,-52.17027 0,-22.38625 -0.78025,-26.69295 -5.81499,-32.09712 -3.19824,-3.4329 -7.89122,-5.84297 -10.42886,-5.35571 -4.04305,0.77636 -4.70833,6.67592 -5.3775,47.68723 -0.60596,37.13645 -0.0317,46.46193 2.78102,45.15799 1.94956,-0.90378 5.49762,-2.35375 7.88458,-3.22212 z m -52.06668,-10.24409 c 2.22432,-12.88561 3.371,-76.56933 1.41391,-78.52643 -3.041,-3.04102 -15.62529,4.69983 -18.73462,11.52403 -6.14398,13.48459 -2.23236,62.84702 5.74154,72.45497 5.1419,6.19563 9.96009,3.92678 11.57917,-5.45257 z M 55,1041.3273 c 0,-2.1071 1.95971,-5.4575 4.35492,-7.4453 2.39519,-1.9878 6.3242,-7.4598 8.73112,-12.1599 2.40693,-4.7001 5.20539,-9.1713 6.21885,-9.9361 2.86229,-2.16 10.29131,-19.17929 16.3881,-37.54389 7.9059,-23.814 9.12052,-41.60698 9.10781,-133.42239 -0.008,-67.82576 0.65409,-81.87996 3.92467,-83.13501 2.16475,-0.83069 4.9146,-6.9e-4 6.11075,1.84446 1.19617,1.84516 2.23814,44.6531 2.31551,95.12875 0.0795,51.84545 1.37597,97.21869 2.98001,104.28854 3.24657,14.30944 10.9615,31.39099 23.23718,51.44904 12.21325,19.956 14.74451,26.7547 11.25902,30.2402 -2.03229,2.0323 -5.30751,0.2949 -10.81806,-5.7384 -8.70678,-9.5327 -26.36322,-42.37633 -29.24378,-54.39788 -2.41722,-10.08782 -7.00989,-9.73679 -9.0963,0.69526 -0.91774,4.58869 -2.76364,8.34308 -4.10201,8.34308 -1.33837,0 -2.4334,2.46485 -2.4334,5.47746 0,3.0126 -2.38524,9.72418 -5.30053,14.91468 -2.91532,5.1904 -6.98255,12.4109 -9.03834,16.0454 C 71.61569,1040.0832 55,1050.4544 55,1041.3273 z M 75.28523,941.00304 c -2.35722,-2.67612 -2.5893,-6.47184 -0.78119,-12.7764 1.41479,-4.93307 2.46875,-36.39792 2.34213,-69.92187 -0.12654,-33.52396 0.48379,-61.66665 1.35647,-62.53936 0.87272,-0.87269 3.54564,-0.83501 5.93989,0.0837 3.80061,1.45842 4.30686,10.33541 3.98852,69.9353 -0.31462,58.89761 -0.99088,69.00314 -4.92848,73.64531 -3.81785,4.50099 -5.112,4.75815 -7.91734,1.57329 z m 55.09739,-9.31588 c -1.47503,-2.75611 -2.81223,-34.06592 -2.97161,-69.57739 -0.25308,-56.39251 0.26531,-64.77928 4.09445,-66.24869 2.41132,-0.92531 5.05223,-1.01436 5.86869,-0.19801 1.16689,1.16689 2.13722,105.87647 1.24899,134.77774 -0.23111,7.52204 -4.53361,8.17269 -8.24052,1.24624 z"
       id="path3251"
       inkscape:connector-curvature="0" />
  </g>
</svg>
