<?xml version="1.0" encoding="UTF-8" standalone="no"?>
<!-- Created with Inkscape (http://www.inkscape.org/) -->

<svg
   xmlns:dc="http://purl.org/dc/elements/1.1/"
   xmlns:cc="http://creativecommons.org/ns#"
   xmlns:rdf="http://www.w3.org/1999/02/22-rdf-syntax-ns#"
   xmlns:svg="http://www.w3.org/2000/svg"
   xmlns="http://www.w3.org/2000/svg"
   xmlns:sodipodi="http://sodipodi.sourceforge.net/DTD/sodipodi-0.dtd"
   xmlns:inkscape="http://www.inkscape.org/namespaces/inkscape"
   width="300"
   height="300"
   id="svg2"
   version="1.1"
   inkscape:version="0.48.4 r9939"
   sodipodi:docname="image-seal.svg">
  <defs
     id="defs4" />
  <sodipodi:namedview
     id="base"
     pagecolor="#ffffff"
     bordercolor="#666666"
     borderopacity="1.0"
     inkscape:pageopacity="0.0"
     inkscape:pageshadow="2"
     inkscape:zoom="1.979899"
     inkscape:cx="200.43343"
     inkscape:cy="134.48103"
     inkscape:document-units="px"
     inkscape:current-layer="layer1"
     showgrid="false"
     inkscape:window-width="1215"
     inkscape:window-height="1000"
     inkscape:window-x="65"
     inkscape:window-y="24"
     inkscape:window-maximized="1" />
  <metadata
     id="metadata7">
    <rdf:RDF>
      <cc:Work
         rdf:about="">
        <dc:format>image/svg+xml</dc:format>
        <dc:type
           rdf:resource="http://purl.org/dc/dcmitype/StillImage" />
        <dc:title />
      </cc:Work>
    </rdf:RDF>
  </metadata>
  <g
     inkscape:label="Calque 1"
     inkscape:groupmode="layer"
     id="layer1"
     transform="translate(0,-752.36218)">
    <path
       style="fill:#000000"
       d="m 219.92457,1040.3022 c -0.15532,-1.0503 -0.75241,-11.0761 -1.32694,-22.2795 -0.57453,-11.2034 -1.4606,-28.39038 -1.96905,-38.19336 -0.50843,-9.80299 -1.05712,-20.40167 -1.21928,-23.55262 -0.26069,-5.06502 -1.64747,-5.72902 -11.96507,-5.72902 -14.15963,0 -14.29852,-5.15151 -0.22865,-8.47896 5.63129,-1.33176 9.35258,-3.73105 9.35258,-6.02998 0,-7.69471 -8.14477,-20.85151 -13.38799,-21.62653 -6.70308,-0.99079 -8.76329,-6.62664 -3.20244,-8.76053 6.65714,-2.55458 15.69416,3.88387 20.54251,14.63559 4.96665,11.01407 7.39578,12.14051 11.13082,5.16152 3.40794,-6.36782 -1.14827,-23.23241 -7.82085,-28.94836 -2.82229,-2.41767 -10.76696,-5.14333 -17.65478,-6.05704 -19.54603,-2.59285 -14.93539,-8.64389 6.58629,-8.64389 8.17776,0 13.09305,1.71539 18.88847,6.5919 7.57829,6.37673 7.83403,7.27548 7.83403,27.52841 0,17.85818 -0.79926,21.79441 -5.43614,26.7715 -4.85424,5.21043 -5.25188,7.64669 -3.71475,22.75962 4.11745,40.48275 4.71256,69.08555 1.5175,72.93525 -3.38625,4.0803 -7.46072,5.0652 -7.92631,1.916 z m -71.01209,-49.01483 c 0,-25.20767 -1.00677,-45.83213 -2.23731,-45.83213 -2.98558,0 -7.24545,-11.44576 -9.33046,-25.06992 -1.22779,-8.02265 -2.46082,-10.29829 -4.4839,-8.27523 -1.53471,1.53473 -4.32004,2.79041 -6.18959,2.79041 -2.73739,0 -3.34138,-10.5338 -3.10239,-54.10737 0.3471,-63.29164 1.00492,-68.69006 8.2385,-67.60989 4.96658,0.74164 5.13574,2.24351 4.38894,38.96482 -0.74071,36.42199 -0.83028,65.79623 -0.21746,71.2944 0.15609,1.40043 3.53708,-1.14293 7.51326,-5.65191 3.97622,-4.50896 10.33441,-9.37862 14.12936,-10.82147 8.01609,-3.04768 21.85375,-3.50012 21.82837,-0.71366 -0.0229,2.63945 -16.11945,13.36771 -20.0553,13.36771 -7.78833,0 -14.57551,13.85856 -11.93657,24.37293 2.14449,8.54427 5.10524,7.79233 15.76169,-4.0031 5.83652,-6.46035 11.42098,-10.18492 15.27076,-10.18492 7.52092,0 7.7522,2.80846 0.63518,7.71313 -19.32776,13.31966 -20.27453,27.93407 -1.80963,27.93407 3.45393,0 4.80137,1.42088 4.22567,4.4559 -0.61655,3.25042 -3.76692,4.66773 -11.64472,5.23887 -12.41429,0.90001 -11.20161,-4.51227 -10.80706,48.23199 0.24214,32.3861 0.0435,33.7375 -4.96252,33.7375 -5.06252,0 -5.21486,-1.3389 -5.21486,-45.83213 z m -91.664224,16.44403 c 0,-2.1592 2.075054,-6.1531 4.611207,-8.8754 10.308767,-11.06512 35.408347,-66.00327 31.802377,-69.60923 -0.70064,-0.70065 -0.0229,-5.07456 1.50854,-9.71978 1.69706,-5.15122 2.96208,-36.46515 3.24291,-80.27434 0.47858,-74.66262 0.81326,-76.87577 11.03265,-72.95422 3.45195,1.32464 5.36905,11.10547 4.17312,21.29062 -1.52254,12.96674 -3.16983,45.87117 -4.45458,88.98062 -1.91831,64.36713 1.26115,80.43366 22.81829,115.30684 6.12633,9.91059 6.88205,12.72799 4.26121,15.88589 -1.75224,2.1113 -4.20741,3.2074 -5.45596,2.4358 -4.50407,-2.7837 -22.61728,-31.46927 -22.70541,-35.95817 -0.0497,-2.52759 -1.5736,-7.26974 -3.38663,-10.5381 l -3.29638,-5.9425 -4.25208,6.48948 c -2.33863,3.5692 -4.25207,7.67558 -4.25207,9.12527 0,1.4497 -0.95216,2.63581 -2.11597,2.63581 -1.16377,0 -3.70679,3.15096 -5.65115,7.00213 -8.1752,16.19257 -18.13457,28.64508 -22.90995,28.64508 -2.780307,0 -4.970124,-1.7297 -4.970124,-3.9258 z M 72.35169,911.71771 c -0.74844,-13.69596 0.77349,-117.93824 1.73593,-118.90072 0.67568,-0.67567 3.15079,-0.0153 5.50025,1.46607 3.66073,2.30915 4.21589,7.21316 3.88109,34.28402 -0.21491,17.37423 -0.47342,43.90687 -0.57456,58.96145 -0.17212,25.61318 -0.51106,27.37197 -5.27632,27.37197 -2.80086,0 -5.17073,-1.43226 -5.26639,-3.18279 z m 95.02096,-52.80635 c -8.07017,-4.92048 -8.27524,-5.48808 -8.27524,-22.90653 0,-16.81352 -0.336,-17.86333 -5.72902,-17.90002 -7.03266,-0.0479 -11.12394,-2.73837 -10.58837,-6.96315 0.22204,-1.75053 0.54668,-4.41963 0.72173,-5.93133 0.19785,-1.7083 3.20927,-2.11355 7.95697,-1.07079 l 7.63869,1.67774 0,-15.16792 c 0,-16.01685 3.59568,-22.27553 11.13532,-19.38231 4.72684,1.81386 5.25449,8.65746 1.63938,21.26263 -1.37648,4.79948 -1.93563,9.29343 -1.24255,9.98648 2.17155,2.17156 32.61215,0.51037 35.03437,-1.91189 1.2676,-1.26758 2.26134,-7.90713 2.2083,-14.75455 -0.11153,-14.40697 2.49189,-20.02113 8.25836,-17.80833 3.16186,1.21333 4.07631,5.29496 4.07631,18.19464 l 0,16.63039 8.9118,0 c 7.21433,0 8.9118,0.96999 8.9118,5.09246 0,4.12247 -1.69747,5.09246 -8.9118,5.09246 l -8.9118,0 0,12.56539 c 0,15.80805 -3.40329,24.85572 -12.19315,32.4155 -9.02234,7.75974 -28.65939,8.18452 -40.6411,0.87913 z m 31.17073,-8.60978 c 3.26192,-2.38519 5.27726,-8.07909 6.36847,-17.99291 1.83619,-16.682 -0.50475,-19.37296 -15.25969,-17.54133 -21.48867,2.66756 -21.11535,2.36067 -19.77978,16.26017 0.68305,7.10877 3.21808,14.8451 5.79887,17.69683 5.31123,5.86885 15.9954,6.60563 22.87213,1.57724 z"
       id="path3146"
       inkscape:connector-curvature="0" />
  </g>
</svg>
