<?xml version="1.0" standalone="no"?>
<!DOCTYPE svg PUBLIC "-//W3C//DTD SVG 20010904//EN"
 "http://www.w3.org/TR/2001/REC-SVG-20010904/DTD/svg10.dtd">
<svg version="1.0" xmlns="http://www.w3.org/2000/svg"
 width="70.000000pt" height="83.000000pt" viewBox="0 0 70.000000 83.000000"
 preserveAspectRatio="xMidYMid meet">
<metadata>
Created by potrace 1.10, written by Peter Selinger 2001-2011
</metadata>
<g transform="translate(0.000000,83.000000) scale(0.100000,-0.100000)"
fill="#000000" stroke="none">
<path d="M200 679 c0 -63 -15 -74 -22 -16 -4 39 -22 34 -26 -7 -2 -26 2 -38
22 -54 32 -24 32 -36 4 -56 -16 -12 -22 -28 -26 -71 -3 -33 -1 -55 6 -55 14 0
22 25 22 65 0 19 5 37 10 40 6 4 10 -19 10 -60 0 -49 3 -66 13 -63 7 3 13 28
15 67 3 66 22 77 22 13 0 -20 5 -44 10 -52 9 -13 11 -13 20 0 5 8 10 11 10 6
0 -6 13 3 30 19 l29 28 20 -24 c11 -13 20 -27 21 -31 0 -5 5 -8 10 -8 17 0 11
26 -11 54 l-21 27 26 28 c32 34 33 48 1 91 l-25 34 26 27 c19 20 22 29 13 34
-7 5 -20 -1 -32 -16 l-19 -24 -20 28 c-11 15 -24 27 -29 27 -15 0 -10 -23 10
-49 19 -25 19 -25 -6 -57 -26 -35 -25 -56 4 -103 14 -22 13 -25 -11 -50 l-26
-26 0 32 c0 19 -10 43 -25 61 -30 36 -31 46 -5 63 27 18 40 89 17 89 -10 0
-17 -11 -19 -32 -5 -55 -23 -41 -23 19 0 36 -4 58 -12 60 -10 4 -13 -12 -13
-58z m179 -80 l23 -30 -25 -23 -25 -23 -24 26 -23 27 24 27 c13 15 25 27 26
27 1 0 11 -14 24 -31z"/>
<path d="M476 724 c-4 -9 -3 -40 0 -68 7 -47 6 -50 -9 -37 -10 8 -17 28 -17
47 0 42 -16 45 -25 4 -9 -40 1 -65 31 -79 26 -12 24 -26 -7 -48 -19 -15 -31
-65 -23 -99 10 -37 24 -28 24 15 0 43 8 71 20 71 5 0 6 -18 3 -39 -6 -45 3
-91 17 -91 6 0 10 30 10 66 0 59 2 65 16 54 8 -8 14 -25 14 -39 -3 -43 0 -61
9 -61 16 0 22 51 11 86 -7 19 -20 39 -31 44 -25 14 -24 36 1 43 28 7 42 50 28
85 l-11 27 -7 -38 c-13 -71 -30 -68 -30 6 0 64 -11 86 -24 51z"/>
<path d="M356 399 c-2 -8 -7 -44 -10 -81 -6 -81 -20 -109 -80 -168 -43 -41
-58 -70 -37 -70 14 0 121 120 121 136 0 24 16 15 32 -18 23 -48 97 -138 114
-138 22 0 18 8 -30 61 -60 66 -79 111 -85 201 -6 74 -16 105 -25 77z"/>
<path d="M227 378 c-3 -7 -2 -34 1 -60 3 -31 -1 -61 -12 -89 -18 -45 -15 -59
8 -40 20 17 36 97 29 149 -6 44 -18 62 -26 40z"/>
<path d="M466 364 c-17 -44 10 -141 51 -186 32 -35 33 -17 3 42 -20 40 -30 74
-30 104 0 46 -13 68 -24 40z"/>
</g>
</svg>
