<?xml version="1.0" encoding="UTF-8" standalone="no"?>
<!-- Created with Inkscape (http://www.inkscape.org/) -->

<svg
   xmlns:dc="http://purl.org/dc/elements/1.1/"
   xmlns:cc="http://creativecommons.org/ns#"
   xmlns:rdf="http://www.w3.org/1999/02/22-rdf-syntax-ns#"
   xmlns:svg="http://www.w3.org/2000/svg"
   xmlns="http://www.w3.org/2000/svg"
   xmlns:sodipodi="http://sodipodi.sourceforge.net/DTD/sodipodi-0.dtd"
   xmlns:inkscape="http://www.inkscape.org/namespaces/inkscape"
   width="300"
   height="300"
   id="svg2"
   version="1.1"
   inkscape:version="0.48.3.1 r9886"
   sodipodi:docname="Nouveau document 1">
  <defs
     id="defs4" />
  <sodipodi:namedview
     id="base"
     pagecolor="#ffffff"
     bordercolor="#666666"
     borderopacity="1.0"
     inkscape:pageopacity="0.0"
     inkscape:pageshadow="2"
     inkscape:zoom="1.979899"
     inkscape:cx="145.86475"
     inkscape:cy="172.43648"
     inkscape:document-units="px"
     inkscape:current-layer="layer1"
     showgrid="false"
     inkscape:window-width="1215"
     inkscape:window-height="1000"
     inkscape:window-x="65"
     inkscape:window-y="24"
     inkscape:window-maximized="1" />
  <metadata
     id="metadata7">
    <rdf:RDF>
      <cc:Work
         rdf:about="">
        <dc:format>image/svg+xml</dc:format>
        <dc:type
           rdf:resource="http://purl.org/dc/dcmitype/StillImage" />
        <dc:title></dc:title>
      </cc:Work>
    </rdf:RDF>
  </metadata>
  <g
     inkscape:label="Calque 1"
     inkscape:groupmode="layer"
     id="layer1"
     transform="translate(0,-752.36218)">
    <path
       style="fill:#000000"
       d="m 57.545268,1042.2183 c -3.082879,-10.9609 18.234986,-12.0735 25.629647,-17.5961 15.578424,-7.7571 32.128395,-15.2359 44.320525,-27.95519 8.24638,-13.48772 4.51861,-30.26601 5.06979,-45.25685 1.84511,-10.52182 -5.21373,-27.35343 5.63792,-32.9618 14.18699,0.44426 5.68061,22.35847 8.25818,31.85676 -1.75249,13.49334 5.22603,24.28069 7.11459,36.83998 3.99869,11.98095 16.12579,18.5426 25.28745,26.2946 9.09727,7.9468 23.21209,7.4372 30.01635,18.6005 3.76971,15.041 -19.451,5.2059 -25.4447,0.042 -14.67097,-8.1044 -26.94198,-20.234 -42.18657,-27.1794 -12.77262,6.8864 -23.12075,17.9191 -36.75068,23.657 -13.812586,6.828 -27.793878,14.2482 -43.070026,17.1073 -1.448617,-0.9662 -2.630761,-2.2554 -3.882476,-3.4485 z m 185.021942,-7.2989 c -12.62082,-5.9107 -14.2488,-21.2659 -21.29731,-32.0308 -5.02638,-11.14015 -9.1289,-22.6318 -7.41682,-35.5116 -0.1053,-18.66669 3.17507,-37.08459 8.66015,-54.86751 2.18676,-11.38378 8.3788,-27.04843 -4.2398,-34.5865 -7.37897,-5.98813 -22.98073,-21.50543 -25.93756,-3.55697 -6.68451,14.68208 -17.35475,31.68847 -34.87675,33.63014 -10.76288,-2.578 8.90017,-14.82006 11.6929,-20.72181 10.91649,-11.39824 13.34371,-28.056 13.31028,-43.17446 0.2045,-14.17019 -27.39026,1.7467 -21.06867,-12.62439 7.52515,-7.81472 26.2336,-0.59796 22.17732,-17.19803 1.06464,-16.23058 -0.70316,-33.35581 5.14748,-48.79142 12.85883,-7.84273 13.73447,15.72516 13.01502,24.00822 2.55279,8.88516 -5.81007,30.36828 6.94855,30.49059 12.69263,-0.0374 20.83164,-8.07865 17.92902,-21.12918 -3.06038,-14.81914 21.24354,-20.81303 16.70766,-2.75956 -3.41582,20.64113 1.4719,41.17202 6.96521,60.9587 -1.6,12.79777 -17.76815,-1.43483 -17.52672,-9.40636 -3.34489,-12.56618 -13.88389,-22.26214 -27.09508,-15.56519 -10.87126,4.14508 -12.42202,26.15612 2.1917,26.95438 14.97523,6.33696 33.56493,17.00367 33.06501,35.60761 -1.64037,22.61901 -17.88901,42.25846 -14.86938,65.54527 1.55395,22.46568 11.61326,43.18157 23.7871,61.71557 2.9132,3.2556 6.49317,19.9929 0.21056,17.3693 -2.49329,-1.452 -4.98658,-2.904 -7.47987,-4.356 z m -168.678962,-33.429 c 0.233059,-13.38772 16.238243,-20.57685 16.716674,-34.18267 2.808948,-8.65031 -6.898202,-34.19875 9.036696,-29.16413 6.326542,8.94691 3.536582,21.77179 1.985572,32.10235 -3.401774,13.93449 -12.154679,28.2417 -25.748412,33.68285 l -0.728208,-0.4304 -1.262322,-2.008 0,0 z m 110.957522,-6.78855 c -8.07189,-7.92417 -11.35299,-19.30089 -14.32763,-30.37559 -2.60886,-9.41431 -11.08429,-28.97979 4.88884,-29.88161 7.7971,8.92122 5.42483,22.47087 10.8573,32.79895 2.21443,9.98862 18.77159,26.70244 4.61097,32.5586 -2.83645,-0.1877 -5.01,-2.63119 -6.02948,-5.10035 z M 38.752755,966.68424 c -6.135073,-10.96987 9.126914,-21.31954 15.735887,-29.41422 12.887379,-12.08375 26.282923,-23.99776 41.302079,-33.31326 9.695049,-3.55926 18.203539,-10.27869 27.715469,-16.03983 10.10541,-6.35931 19.36011,-15.98791 16.98034,-28.98416 -0.52187,-18.11732 2.70923,-37.74217 -6.0871,-54.38618 -5.38162,-10.71699 -20.36003,-18.24208 -31.05065,-11.11038 -3.03617,9.0245 7.07273,14.9669 8.46859,22.7539 8.97799,6.94003 12.53765,22.11861 10.08643,33.00633 -14.84575,9.24575 -11.08248,-16.69041 -16.23261,-24.13389 -3.34781,-12.73599 -16.701749,-25.54271 -26.986304,-11.26015 -7.029371,11.04277 12.743543,20.89346 17.725931,30.54811 4.356363,6.9321 6.045373,33.8548 -6.67913,19.62063 -6.186964,-7.80998 -7.446312,-23.56007 -20.396682,-23.12952 -5.824231,9.57344 -0.237006,33.77156 -17.346292,30.54492 -8.417023,-9.34594 3.248066,-23.46885 4.381454,-34.25376 3.924069,-12.35825 8.582016,-24.69765 14.76301,-36.03667 9.450474,-11.82668 23.227051,-20.08162 38.420213,-21.49017 14.38446,-3.0187 29.60072,6.67285 35.70903,19.59506 8.98239,18.17286 10.29022,39.07036 10.86863,59.02124 0.82304,16.05264 -8.40232,31.35154 -22.92658,38.20205 -14.81217,7.17016 -29.81032,14.22955 -42.459134,25.01695 -14.163933,10.82476 -27.166232,23.36679 -36.462763,38.67723 -4.162593,4.76057 -8.576024,12.73614 -15.529818,6.56577 z"
       id="path3011"
       inkscape:connector-curvature="0" />
  </g>
</svg>
