<?xml version="1.0" encoding="UTF-8" standalone="no"?>
<!-- Created with Inkscape (http://www.inkscape.org/) -->

<svg
   xmlns:dc="http://purl.org/dc/elements/1.1/"
   xmlns:cc="http://creativecommons.org/ns#"
   xmlns:rdf="http://www.w3.org/1999/02/22-rdf-syntax-ns#"
   xmlns:svg="http://www.w3.org/2000/svg"
   xmlns="http://www.w3.org/2000/svg"
   xmlns:sodipodi="http://sodipodi.sourceforge.net/DTD/sodipodi-0.dtd"
   xmlns:inkscape="http://www.inkscape.org/namespaces/inkscape"
   width="300"
   height="300"
   id="svg2"
   version="1.1"
   inkscape:version="0.92.4 (5da689c313, 2019-01-14)"
   sodipodi:docname="image-bigseal.svg">
  <defs
     id="defs4" />
  <sodipodi:namedview
     id="base"
     pagecolor="#ffffff"
     bordercolor="#666666"
     borderopacity="1.0"
     inkscape:pageopacity="0.0"
     inkscape:pageshadow="2"
     inkscape:zoom="1.4"
     inkscape:cx="188.87961"
     inkscape:cy="190.47153"
     inkscape:document-units="px"
     inkscape:current-layer="layer1"
     showgrid="false"
     inkscape:window-width="1872"
     inkscape:window-height="1016"
     inkscape:window-x="48"
     inkscape:window-y="27"
     inkscape:window-maximized="1" />
  <metadata
     id="metadata7">
    <rdf:RDF>
      <cc:Work
         rdf:about="">
        <dc:format>image/svg+xml</dc:format>
        <dc:type
           rdf:resource="http://purl.org/dc/dcmitype/StillImage" />
        <dc:title />
      </cc:Work>
    </rdf:RDF>
  </metadata>
  <g
     inkscape:label="Calque 1"
     inkscape:groupmode="layer"
     id="layer1"
     transform="translate(0,-752.36218)">
    <path
       style="fill:#000000;stroke-width:6.13786364"
       d="m 139.21835,1028.2267 c -9.0021,-9.5045 -20.57488,-25.2136 -25.71727,-34.90881 l -9.34982,-17.62776 -21.218347,29.90347 c -11.670095,16.4469 -24.238598,30.9524 -27.930002,32.2342 -8.144356,2.8283 -3.901981,-4.9124 23.593582,-43.04916 19.2292,-26.67117 20.50642,-31.54537 20.50642,-78.25777 0,-29.11808 2.550127,-49.81502 6.137857,-49.81502 3.59407,0 6.14737,20.98634 6.16081,50.63738 0.0239,52.74026 7.5524,73.74189 38.49586,107.38847 6.97315,7.5823 11.10569,15.3587 9.18342,17.281 -1.92228,1.9223 -10.86041,-4.2815 -19.86251,-13.786 z m 41.0425,-36.04266 c -12.00248,-8.40691 -13.64144,-15.00033 -13.64144,-54.87858 0,-24.92801 2.76204,-47.0307 6.13786,-49.11709 3.58097,-2.21319 6.13786,4.02816 6.13786,14.98241 0,10.32671 2.76204,18.77584 6.13787,18.77584 3.73609,0 6.13786,-27.62038 6.13786,-70.58543 0,-42.96504 2.40175,-70.58543 6.13788,-70.58543 3.40995,0 6.13787,16.36766 6.13787,36.82718 v 36.82718 h 21.48252 c 11.81539,0 21.48252,2.76204 21.48252,6.13787 0,3.37582 -9.66713,6.13786 -21.48252,6.13786 -21.36885,0 -21.48252,0.14608 -21.48252,27.62039 0,23.52845 1.81865,27.62038 12.27572,27.62038 9.60042,0 12.27573,-4.09193 12.27573,-18.77584 0,-10.95425 2.55691,-17.1956 6.13787,-14.98241 3.37582,2.08639 6.13786,22.9647 6.13786,46.39624 0,34.41899 -2.35811,44.96089 -12.27573,54.87851 -14.74689,14.74688 -29.3771,15.58078 -47.73721,2.72092 z m 40.28235,-7.91496 c 4.3394,-2.75332 9.53437,-15.14021 11.54434,-27.52642 l 3.6546,-22.52031 h -31.49245 c -34.40283,0 -36.30891,2.76517 -24.75412,35.91129 6.8391,19.61864 23.4114,25.32556 41.04763,14.13544 z M 62.427646,961.44316 c 3.29227,-8.6593 5.985945,-29.37459 5.985945,-46.03398 0,-16.65938 2.762039,-30.28974 6.137862,-30.28974 3.37583,0 6.12246,10.35765 6.10363,23.01699 -0.0423,28.60355 -10.888461,69.05097 -18.515942,69.05097 -3.429697,0 -3.314869,-6.26664 0.28848,-15.74424 z m 76.175394,8.96564 c -2.30417,-3.7282 -5.64087,-24.86092 -7.41491,-46.96159 -2.35762,-29.37097 -1.32784,-39.01018 3.82716,-35.8242 3.87896,2.39733 7.05266,14.57166 7.05266,27.05405 0,12.48239 2.56923,31.65364 5.70941,42.60279 5.46795,19.06562 -0.35508,27.39875 -9.17432,13.12895 z M 50,873.25734 c 0,-3.14835 5.452031,-7.45468 12.115621,-9.5696 23.089832,-7.32842 36.987292,-33.02692 36.987292,-68.39507 0,-18.1118 2.762027,-32.9305 6.137857,-32.9305 3.42276,0 6.13786,16.60316 6.13786,37.53383 0,35.43389 1.26899,38.69616 22.68197,58.30971 28.4374,26.04762 16.2463,27.63475 -13.2616,1.72646 -11.93285,-10.47721 -21.696087,-16.22655 -21.696087,-12.77634 0,5.90524 -36.832734,31.82575 -45.223992,31.82575 C 51.745516,878.98158 50,876.40564 50,873.25734 Z m 89.70494,-33.95595 c -10.93398,-16.68731 -13.54891,-58.52563 -3.65791,-58.52563 3.65887,0 4.60498,6.57341 2.27964,15.83833 -2.80027,11.15716 -0.11368,21.06128 9.08985,33.50972 14.3083,19.353 15.86382,24.30631 7.63308,24.30631 -2.98758,0 -9.89268,-6.80793 -15.34466,-15.12873 z M 58.2555,830.92984 c 5.586954,-6.17353 10.158091,-20.14674 10.158091,-31.05158 0,-11.655 2.529806,-18.26345 6.137862,-16.03357 14.62161,9.03665 -2.036265,58.30971 -19.712926,58.30971 -3.707613,0 -2.169974,-5.05104 3.416973,-11.22456 z"
       id="path83"
       inkscape:connector-curvature="0" />
  </g>
</svg>
