<?xml version="1.0" encoding="UTF-8" standalone="no"?>
<!-- Created with Inkscape (http://www.inkscape.org/) -->

<svg
   xmlns:dc="http://purl.org/dc/elements/1.1/"
   xmlns:cc="http://creativecommons.org/ns#"
   xmlns:rdf="http://www.w3.org/1999/02/22-rdf-syntax-ns#"
   xmlns:svg="http://www.w3.org/2000/svg"
   xmlns="http://www.w3.org/2000/svg"
   xmlns:sodipodi="http://sodipodi.sourceforge.net/DTD/sodipodi-0.dtd"
   xmlns:inkscape="http://www.inkscape.org/namespaces/inkscape"
   width="300"
   height="300"
   id="svg2"
   version="1.1"
   inkscape:version="0.48.2 r9819"
   sodipodi:docname="囪-oracle.svg">
  <defs
     id="defs4" />
  <sodipodi:namedview
     id="base"
     pagecolor="#ffffff"
     bordercolor="#666666"
     borderopacity="1.0"
     inkscape:pageopacity="0.0"
     inkscape:pageshadow="2"
     inkscape:zoom="1.979899"
     inkscape:cx="212.47492"
     inkscape:cy="127.32131"
     inkscape:document-units="px"
     inkscape:current-layer="layer1"
     showgrid="false"
     inkscape:window-width="1280"
     inkscape:window-height="999"
     inkscape:window-x="0"
     inkscape:window-y="24"
     inkscape:window-maximized="1" />
  <metadata
     id="metadata7">
    <rdf:RDF>
      <cc:Work
         rdf:about="">
        <dc:format>image/svg+xml</dc:format>
        <dc:type
           rdf:resource="http://purl.org/dc/dcmitype/StillImage" />
        <dc:title></dc:title>
      </cc:Work>
    </rdf:RDF>
  </metadata>
  <g
     inkscape:label="Calque 1"
     inkscape:groupmode="layer"
     id="layer1"
     transform="translate(0,-752.36218)">
    <path
       style="fill:#000000"
       d="m 53.211651,1027.9509 c -7.553089,-2.0954 -4.016111,-8.395 6.353555,-11.3162 22.992664,-6.477 63.521724,-20.2293 67.075774,-22.76007 4.90143,-3.49023 11.7983,-19.22033 9.53237,-21.74105 -0.95929,-1.06715 -0.75752,-7.78492 0.44838,-14.92839 1.83083,-10.8454 3.20225,-12.98813 8.31282,-12.98813 8.39183,0 12.11463,7.90675 11.92028,25.31708 -0.15162,13.58208 0.49393,14.94739 9.84341,20.81846 5.50312,3.45572 10.76892,6.28312 11.70178,6.28312 0.93287,0 5.49068,1.83292 10.12847,4.07318 4.63779,2.2403 17.66969,6.3095 28.95979,9.0428 24.62389,5.9615 31.09357,9.5813 25.46232,14.2463 -6.34972,5.2601 -18.3473,3.7365 -45.62135,-5.7942 -14.18045,-4.9552 -26.49741,-9.6332 -27.37103,-10.3955 -0.87361,-0.7622 -6.83663,-3.2784 -13.25114,-5.5912 l -11.66277,-4.20538 -12.88915,5.86428 c -7.08904,3.2254 -14.23023,5.8644 -15.86931,5.8644 -1.63909,0 -3.45668,0.7625 -4.03909,1.6945 -1.40088,2.2417 -47.135209,18.0115 -51.59326,17.79 -1.908982,-0.095 -5.257814,-0.6681 -7.441849,-1.274 z m 5.592936,-34.56355 c -4.691132,-3.88619 -2.067374,-9.8563 4.331679,-9.8563 5.517844,0 31.232263,-8.95312 34.501626,-12.0126 1.283659,-1.20126 2.355829,-5.40922 2.382588,-9.35102 0.0568,-8.37669 8.30878,-11.98182 14.37348,-6.27952 6.04624,5.68494 -1.41425,27.64314 -9.392,27.64314 -2.15476,0 -11.651274,2.93075 -21.103372,6.51275 -20.029389,7.59047 -19.976041,7.58337 -25.094001,3.34355 z m 151.421503,-1.92324 c -27.0482,-6.93743 -33.91431,-12.30116 -33.91431,-26.49357 0,-8.65151 1.29676,-11.89181 5.16782,-12.9131 8.06372,-2.12743 14.1095,2.90024 13.30941,11.06811 -0.92745,9.46816 6.79318,14.73711 27.58605,18.8261 16.22657,3.19104 22.48864,8.9712 13.81387,12.75082 -5.25152,2.28812 -3.62454,2.49105 -25.96284,-3.23836 z M 38.162534,959.55098 c -2.533569,-2.81844 3.914352,-10.96569 8.678494,-10.96569 5.748257,0 73.750062,-17.76112 79.965762,-20.88594 3.41874,-1.71871 6.426,-7.43489 7.93587,-15.08448 2.64252,-13.38804 8.78247,-19.60217 17.17928,-17.38686 4.20204,1.10861 5.32918,4.29646 5.32918,15.0723 l 0,13.66631 15.08969,3.87983 c 8.29933,2.1339 16.51924,4.54751 18.26647,5.36359 1.74723,0.81606 9.60975,2.746 17.47228,4.28873 7.86251,1.54274 17.57924,3.68548 21.59272,4.76164 4.01347,1.07616 9.91402,1.95665 13.11233,1.95665 7.6602,0 13.56261,5.0914 11.07315,9.55168 -1.0907,1.95414 -5.30648,3.55299 -9.36842,3.55299 -8.07748,0 -48.45103,-9.78713 -72.69695,-17.62279 -8.41803,-2.7205 -19.42838,-4.94634 -24.46745,-4.94634 -8.77731,0 -24.65232,4.37496 -28.38145,7.82158 -1.66956,1.54309 -71.936496,19.04278 -76.663076,19.09262 -1.207305,0.0127 -3.060351,-0.93938 -4.11788,-2.11582 z m 6.312978,-30.62268 c -2.481271,-2.76026 0.781126,-6.52663 5.746846,-6.63461 8.837518,-0.19217 38.985123,-12.33323 41.876401,-16.8645 6.036845,-9.46104 20.677471,-8.89877 20.677471,0.79413 0,6.39395 -9.30514,13.15911 -27.474447,19.97484 -13.524812,5.07347 -37.291111,6.66278 -40.826271,2.73014 z M 186.53303,895.99971 c 1.59642,-0.12514 6.44386,0.87375 7.20319,4.15866 1.792,7.75231 8.9705,13.26095 17.52011,13.44458 5.57292,0.11969 25.20741,4.74175 31.0254,7.30354 8.25382,3.63432 -0.31964,5.8357 -22.47674,5.77128 -12.56429,-0.0365 -25.70326,-1.20143 -29.19771,-2.58866 -12.05928,-4.78733 -16.51153,-8.31736 -14.73744,-20.37461 0.33672,-2.28844 0.96151,-4.59167 2.65165,-6.17084 2.45088,-2.28995 8.01154,-1.54395 8.01154,-1.54395 z m -49.54301,-4.20129 c -42.81547,0.20044 -54.095895,-1.97308 -69.878068,-12.22306 -8.640222,-5.61152 -9.043818,-6.6801 -7.504059,-19.86827 2.239574,-19.18218 10.088424,-23.8504 43.395047,-25.80984 31.07374,-1.82807 35.18751,-2.71332 35.18751,-7.57198 0,-3.27878 -4.10328,-4.49954 -22.16396,-6.59396 -21.767621,-2.52431 -22.221744,-2.71334 -25.396495,-10.57186 -6.608689,-16.35862 -2.067704,-26.43227 9.925795,-22.01924 3.90819,1.43802 5.86688,4.59591 5.86688,9.45883 0,8.45665 5.29574,12.24202 17.98818,12.85786 8.26075,0.40082 9.0369,-0.20174 9.28322,-7.20699 0.55213,-15.70277 4.395,-24.02522 11.09359,-24.02522 7.72151,0 8.96782,2.16979 10.03632,17.47288 0.79471,11.382 1.30744,12.04956 9.76699,12.71646 12.10409,0.9542 16.08644,-1.86074 21.31764,-15.06847 4.46157,-11.26454 10.3404,-15.39185 16.19268,-11.36827 6.2576,4.30224 2.10668,23.90513 -6.28337,29.6735 -3.22435,2.21681 -13.4617,5.19079 -22.74967,6.60883 -17.6031,2.68756 -20.87776,4.76138 -15.96271,10.10911 1.90864,2.07668 7.14372,2.98649 15.03805,2.61348 15.4273,-0.72892 52.18003,4.14618 57.36688,7.60949 11.3904,7.60547 13.41526,25.20689 4.31123,37.47603 -4.98088,6.71251 -9.13072,8.84613 -23.93395,12.3056 -10.08556,2.35697 -14.80435,3.44583 -24.70884,3.44229 z m -5.05761,-14.27584 c 2.22764,-1.84541 4.735,-10.69106 5.57192,-19.65699 l 1.52165,-16.3017 -9.55911,0 c -13.01591,0 -17.73399,4.51624 -15.32274,14.6672 1.07991,4.54628 0.62221,11.40444 -1.01714,15.24037 -2.46146,5.75962 -2.05993,7.14209 2.30528,7.93705 9.79512,1.78384 12.43443,1.48217 16.50014,-1.88593 z m 44.37937,-4.28909 c 0,-2.86137 -1.55616,-5.86371 -3.45813,-6.67189 -2.05332,-0.87248 -3.02121,-6.4702 -2.38259,-13.77958 1.03727,-11.87198 0.79285,-12.31018 -6.86639,-12.31018 -9.60255,0 -11.09546,4.53226 -8.01251,24.32482 1.82946,11.74511 3.08243,13.74454 9.03916,14.42416 9.58412,1.09348 11.68046,0.019 11.68046,-5.98733 z m -84.494887,3.62133 c 2.835614,-3.15444 7.592938,-27.37844 5.953627,-30.31552 -2.493443,-4.46741 -13.03339,-3.2259 -18.023195,2.12295 -4.310916,4.62111 -4.422081,13.29368 -0.32196,25.11726 1.67499,4.83019 9.147041,6.6846 12.391528,3.07531 z m 122.337077,-1.20598 c 2.02158,-1.6747 4.52979,-8.00359 5.57381,-14.06419 2.24427,-13.02811 -1.26368,-16.46094 -18.82313,-18.42004 l -11.88576,-1.32609 0,13.04419 c 0,19.06763 13.61105,30.31282 25.13508,20.76613 z"
       id="path3137"
       inkscape:connector-curvature="0"
       sodipodi:nodetypes="ssssssssssssscccssscsssssssssssssssssssssscsssssssssscssssssssssssssssssssssssssssssssssssssssssscsssssssssssssssssssscss" />
  </g>
</svg>
