<?xml version="1.0" encoding="UTF-8" standalone="no"?>
<!-- Created with Inkscape (http://www.inkscape.org/) -->

<svg
   xmlns:dc="http://purl.org/dc/elements/1.1/"
   xmlns:cc="http://creativecommons.org/ns#"
   xmlns:rdf="http://www.w3.org/1999/02/22-rdf-syntax-ns#"
   xmlns:svg="http://www.w3.org/2000/svg"
   xmlns="http://www.w3.org/2000/svg"
   xmlns:sodipodi="http://sodipodi.sourceforge.net/DTD/sodipodi-0.dtd"
   xmlns:inkscape="http://www.inkscape.org/namespaces/inkscape"
   width="300"
   height="300"
   id="svg2"
   version="1.1"
   inkscape:version="0.48.4 r9939"
   sodipodi:docname="image-seal.svg">
  <defs
     id="defs4" />
  <sodipodi:namedview
     id="base"
     pagecolor="#ffffff"
     bordercolor="#666666"
     borderopacity="1.0"
     inkscape:pageopacity="0.0"
     inkscape:pageshadow="2"
     inkscape:zoom="2.0018437"
     inkscape:cx="145.03351"
     inkscape:cy="130.6666"
     inkscape:document-units="px"
     inkscape:current-layer="layer1"
     showgrid="false"
     inkscape:window-width="1215"
     inkscape:window-height="1000"
     inkscape:window-x="65"
     inkscape:window-y="24"
     inkscape:window-maximized="1"
     fit-margin-top="10"
     fit-margin-left="10"
     fit-margin-right="10"
     fit-margin-bottom="10" />
  <metadata
     id="metadata7">
    <rdf:RDF>
      <cc:Work
         rdf:about="">
        <dc:format>image/svg+xml</dc:format>
        <dc:type
           rdf:resource="http://purl.org/dc/dcmitype/StillImage" />
        <dc:title />
      </cc:Work>
    </rdf:RDF>
  </metadata>
  <g
     inkscape:label="Calque 1"
     inkscape:groupmode="layer"
     id="layer1"
     transform="translate(0,-752.36218)">
    <path
       style="fill:#000000"
       d="m 194.47707,996.96025 0,-50.44591 -7.80666,0.9087 c -7.33743,0.85405 -10.37157,4.65293 -17.92799,22.44658 -1.00611,2.36917 -2.19782,19.16875 -2.64825,37.33248 -0.4504,18.1636 -2.05598,34.3062 -3.56794,35.8725 -8.16367,8.4568 -10.8023,-25.4993 -5.17028,-66.5358 2.59317,-18.89447 4.47817,-23.91599 11.86392,-31.60451 4.82949,-5.02747 12.54785,-10.70119 17.15194,-12.60827 12.78861,-5.29721 9.49701,-12.50644 -6.22179,-13.62693 -16.73301,-1.19274 -18.91078,-3.37341 -19.76038,-19.78677 -0.43194,-8.34387 -2.33184,-14.62628 -4.84933,-16.03515 -6.98906,-3.91125 -11.93204,-17.08393 -12.41337,-33.0806 -0.25242,-8.39034 0.25501,-16.41063 1.1279,-17.82286 2.62154,-4.24176 10.01812,0.26478 10.01812,6.10394 0,4.12574 2.07677,5.43619 8.61516,5.43619 7.21949,0 8.61517,-1.13562 8.61517,-7.00981 0,-3.8554 1.03092,-7.64697 2.29092,-8.42569 5.6197,-3.47318 8.66597,3.99281 9.22719,22.61481 0.85138,28.24922 0.62238,29.55861 -5.50937,31.50475 -7.20237,2.28594 -9.35602,8.51055 -5.99926,17.33945 2.04909,5.38951 4.80646,7.15438 11.17775,7.15438 8.26223,0 8.50058,-0.41479 10.31445,-17.94826 1.02124,-9.87155 1.44714,-28.9326 0.94652,-42.3579 -0.71681,-19.22139 -1.82587,-24.46926 -5.21787,-24.69018 -2.36917,-0.15421 -6.47441,-0.47734 -9.12277,-0.71793 -8.02942,-0.72936 -13.851,-16.7895 -13.851,-38.21099 0,-17.74636 0.55926,-19.66085 5.74344,-19.66085 3.1589,0 5.74345,1.29228 5.74345,2.87172 0,1.63634 8.50351,2.87173 19.76712,2.87173 17.35198,0 19.95063,-0.70174 21.26907,-5.74345 0.93113,-3.56068 3.91706,-5.74344 7.85677,-5.74344 6.19149,0 6.32451,0.69355 5.17465,26.98425 -1.32396,30.27102 -4.23726,36.19329 -17.8048,36.19433 l -8.98145,6.8e-4 -0.99052,43.07515 -0.99051,43.07514 9.97197,0 c 11.87282,0 15.55057,-3.75624 16.87019,-17.23033 0.86462,-8.82836 0.23261,-9.97389 -5.19495,-9.41692 -9.27905,0.95217 -12.03162,-4.52558 -13.72356,-27.31045 -1.26815,-17.07779 -0.79121,-20.70708 2.72125,-20.70708 2.34238,0 4.25888,1.67474 4.25888,3.72167 0,2.74542 3.57802,3.31038 13.64068,2.15379 11.38388,-1.30847 13.79251,-2.63687 14.55834,-8.02925 0.98896,-6.96338 5.68087,-8.72492 7.6488,-2.87172 0.6638,1.97431 1.73392,11.3433 2.37802,20.81999 1.1693,17.20351 -1.26402,26.1667 -8.57574,31.58894 -2.12984,1.57945 -4.84606,8.59271 -6.03605,15.58504 -2.38361,14.00619 -12.47033,22.57777 -27.03422,22.97332 -15.85509,0.43064 -11.9409,9.35929 8.05602,18.37664 16.62319,7.496 23.67333,19.64712 24.80364,42.74975 0.51777,10.5825 1.85932,20.15886 2.98128,21.28078 3.00689,3.007 2.39719,36.275 -0.75622,41.2628 -4.47968,7.0856 -8.75559,-0.3405 -10.04186,-17.4402 -2.79852,-37.20327 -6.26802,-61.94707 -9.49986,-67.75139 -3.20487,-5.75588 -18.25542,-15.29471 -24.13232,-15.29471 -1.41423,0 -1.65018,22.07726 -0.53994,50.52256 1.63479,41.88414 1.28044,50.96034 -2.07241,53.08294 -2.2244,1.4082 -5.01356,2.5801 -6.19815,2.6043 -1.18458,0.023 -2.15379,-22.6567 -2.15379,-50.40195 z M 172.63191,867.68861 c 3.76793,-9.81908 1.88948,-12.68788 -8.30792,-12.68788 -7.76428,0 -10.05103,1.17603 -10.05103,5.1691 0,10.73344 14.79953,16.79447 18.35895,7.51878 z m 67.03154,2.20195 c 1.95053,-1.23892 4.38914,-6.46629 5.41917,-11.61635 l 1.87276,-9.36377 -14.03434,0.89136 c -13.54901,0.86054 -14.01337,1.18102 -13.42805,9.26805 0.83578,11.54739 10.69733,16.83774 20.17046,10.82071 z m -21.12537,-65.15384 c 1.88043,-2.57163 3.37428,-8.79077 3.31965,-13.82031 -0.0982,-9.03627 -0.28458,-9.15511 -15.74028,-10.03219 -8.60256,-0.48816 -18.77271,-0.10166 -22.60031,0.85911 -6.37364,1.59969 -6.80067,2.7389 -5.07407,13.53641 1.03689,6.48437 2.66091,13.04477 3.60892,14.5787 2.7416,4.43597 32.55778,0.2507 36.48609,-5.12172 z M 59.601521,1029.4579 c 0.0525,-1.9743 3.8714,-8.7587 8.48652,-15.0765 11.52884,-15.78232 21.91089,-38.0168 27.09762,-58.03302 3.58862,-13.84897 4.1136,-32.20746 2.99423,-104.70773 -1.19429,-77.35128 -0.82579,-88.1184 3.066919,-89.61215 2.43335,-0.93377 4.93307,-0.10425 5.55488,1.84347 0.62185,1.94769 1.83302,37.78652 2.69153,79.64187 1.80987,88.23884 3.42142,113.04831 7.43018,114.38455 1.58889,0.52963 2.88889,3.45735 2.88889,6.50606 0,3.04871 1.1596,7.78705 2.57691,10.52966 1.41731,2.74261 4.92966,10.66804 7.8052,17.6121 2.87554,6.94408 6.96281,14.36019 9.08283,16.48019 4.85154,4.8516 6.01947,18.7034 1.70657,20.24 -3.97291,1.4155 -21.17151,-23.9069 -21.17151,-31.17191 0,-2.88809 -1.08542,-5.25109 -2.41207,-5.25109 -1.32665,0 -4.11805,-5.1691 -6.2031,-11.48689 -2.08507,-6.31779 -4.55337,-11.44637 -5.48516,-11.39683 -0.93179,0.0494 -6.152779,9.09543 -11.602239,20.10206 -5.44947,11.00666 -10.94164,20.01206 -12.20482,20.01206 -1.26319,0 -2.33756,1.6153 -2.38747,3.5896 -0.11688,4.6224 -13.06441,19.3842 -17.00183,19.3842 -1.65523,0 -2.96654,-1.6154 -2.91408,-3.5897 z m 14.05599,-122.04824 c -0.29019,-35.18787 -2.50957,-81.85448 -4.10237,-86.26036 -1.61287,-4.46142 6.52992,-8.15615 10.09425,-4.58019 1.38977,1.3943 3.30463,26.97293 4.25523,56.8414 1.723,54.13846 1.08752,58.89954 -7.88609,59.08276 -1.18459,0.023 -2.24704,-11.26344 -2.36102,-25.08361 z m 51.729879,21.53792 c -0.0925,-1.97431 -0.65659,-24.98886 -1.25333,-51.14342 -0.59674,-26.15458 -1.32016,-48.7694 -1.60759,-50.25514 -1.38417,-7.1549 0.57575,-12.7524 4.46513,-12.7524 3.225,0 4.42032,3.78904 4.7562,15.07654 0.24668,8.2921 0.74268,18.30723 1.10202,22.25585 4.46283,49.03615 4.82059,75.37786 1.05614,77.76101 -5.62525,3.56117 -8.32136,3.26288 -8.51857,-0.94244 z"
       id="path3106"
       inkscape:connector-curvature="0" />
  </g>
</svg>
