<?xml version="1.0" encoding="UTF-8" standalone="no"?>
<!-- Created with Inkscape (http://www.inkscape.org/) -->

<svg
   xmlns:dc="http://purl.org/dc/elements/1.1/"
   xmlns:cc="http://creativecommons.org/ns#"
   xmlns:rdf="http://www.w3.org/1999/02/22-rdf-syntax-ns#"
   xmlns:svg="http://www.w3.org/2000/svg"
   xmlns="http://www.w3.org/2000/svg"
   xmlns:sodipodi="http://sodipodi.sourceforge.net/DTD/sodipodi-0.dtd"
   xmlns:inkscape="http://www.inkscape.org/namespaces/inkscape"
   width="300"
   height="300"
   id="svg2"
   version="1.1"
   inkscape:version="0.48.4 r9939"
   sodipodi:docname="image-seal.svg">
  <defs
     id="defs4" />
  <sodipodi:namedview
     id="base"
     pagecolor="#ffffff"
     bordercolor="#666666"
     borderopacity="1.0"
     inkscape:pageopacity="0.0"
     inkscape:pageshadow="2"
     inkscape:zoom="1.979899"
     inkscape:cx="200.43343"
     inkscape:cy="134.48103"
     inkscape:document-units="px"
     inkscape:current-layer="layer1"
     showgrid="false"
     inkscape:window-width="1215"
     inkscape:window-height="1000"
     inkscape:window-x="65"
     inkscape:window-y="24"
     inkscape:window-maximized="1" />
  <metadata
     id="metadata7">
    <rdf:RDF>
      <cc:Work
         rdf:about="">
        <dc:format>image/svg+xml</dc:format>
        <dc:type
           rdf:resource="http://purl.org/dc/dcmitype/StillImage" />
        <dc:title />
      </cc:Work>
    </rdf:RDF>
  </metadata>
  <g
     inkscape:label="Calque 1"
     inkscape:groupmode="layer"
     id="layer1"
     transform="translate(0,-752.36218)">
    <path
       style="fill:#000000"
       d="m 223.40888,1037.7319 c -0.91415,-3.6423 -1.78905,-32.6984 -1.9442,-64.56916 -0.15524,-31.87079 -0.41197,-63.30169 -0.57064,-69.84647 l -0.28851,-11.89959 -17.61653,-7.21989 -17.6165,-7.21991 0,-21.96996 c 0,-12.08348 0.99202,-21.96996 2.20451,-21.96996 1.2125,0 4.32939,2.34796 6.92649,5.2177 2.59707,2.86975 6.81868,5.21771 9.38136,5.21771 2.56268,0 5.38496,1.17399 6.27176,2.60886 0.8868,1.43486 4.34302,2.60885 7.68047,2.60885 11.74297,0 13.98218,8.40922 14.2913,53.67008 0.15602,22.85421 0.9838,60.04102 1.83938,82.63736 0.85557,22.59638 0.78432,45.19558 -0.15836,50.22048 -1.99928,10.657 -7.99311,12.1058 -10.40053,2.5139 z m -4.12127,-161.36155 c 0,-1.92008 -24.05274,-12.3237 -25.3931,-10.98334 -2.81876,2.81872 1.8573,9.03711 7.62381,10.13839 8.43984,1.61186 17.76929,2.05547 17.76929,0.84495 z m 0,-14.44965 c 0,-7.44505 -16.80342,-15.37854 -25.4305,-12.00663 -3.98769,1.55858 -3.57211,2.59211 3.25524,8.09497 7.64857,6.16477 22.17526,8.72724 22.17526,3.91166 z m -98.10635,173.4816 c -3.51082,-9.0649 -1.27654,-116.25415 3.23931,-155.40598 0.91026,-7.89178 1.95184,-17.64534 2.31468,-21.67456 0.83627,-9.28728 7.11951,-13.87297 21.75769,-15.87937 6.36297,-0.87213 13.15496,-2.9019 15.09332,-4.51058 7.03767,-5.84075 10.38746,1.37425 8.72262,18.78733 -1.78211,18.63947 -6.62923,24.20046 -25.16125,28.86686 -6.28763,1.58326 -11.95927,3.73172 -12.60364,4.77432 -1.36456,2.20792 -4.83256,107.34826 -4.17586,126.60088 0.27349,8.0182 -1.03472,15.0547 -3.39526,18.262 -3.76988,5.1221 -3.87595,5.1254 -5.79161,0.1792 z m 30.53907,-158.44216 c 8.55527,-2.92909 12.65758,-6.40525 12.74138,-10.79664 0.0208,-1.15113 -6.12345,-1.73812 -13.65652,-1.30442 -12.77475,0.73548 -13.75205,1.27137 -14.52198,7.96289 -0.93574,8.13232 1.70408,8.83998 15.43709,4.13817 z m 11.99958,-22.16926 c 2.2026,-5.73982 -0.35562,-6.64118 -13.32783,-4.69585 -11.13516,1.66981 -16.33636,7.14319 -9.08492,9.56033 5.9615,1.98715 21.03932,-1.28534 22.41275,-4.86448 z m 7.84394,179.93722 c -1.07702,-1.7072 -2.39653,-13.2261 -2.93227,-25.5977 -0.53573,-12.37152 -1.74045,-23.26007 -2.67711,-24.19673 -0.93668,-0.93668 -3.70123,-0.44778 -6.14343,1.08646 -2.98435,1.8748 -4.97415,7.83272 -6.06828,18.16977 -0.89536,8.4591 -3.22976,18.9021 -5.1876,23.2067 -3.49592,7.6863 -3.57442,7.5241 -4.38134,-9.0505 -1.13328,-23.27872 0.67609,-28.39987 14.62958,-41.40655 11.59788,-10.81096 11.9206,-11.49086 7.12034,-15.00092 -2.7655,-2.02216 -7.47756,-3.67668 -10.47119,-3.67668 -8.8346,0 -17.04868,-7.33845 -16.95645,-15.14884 0.12731,-10.78732 5.72677,-15.98079 19.22451,-17.83086 8.02442,-1.09986 13.09982,-3.33576 14.80517,-6.52221 2.18134,-4.07589 1.63335,-4.84861 -3.43855,-4.84861 -5.94798,0 -17.11236,-6.20498 -20.85095,-11.58864 -2.73651,-3.94059 -2.44468,-11.89105 0.43646,-11.89105 1.33819,0 3.15922,2.28792 4.04672,5.08427 0.88754,2.79633 3.90159,5.81042 6.69794,6.69795 2.79636,0.88751 5.08428,3.29552 5.08428,5.35114 0,7.89359 5.06002,3.26352 6.60718,-6.04572 2.28209,-13.73166 3.28523,-16.30534 6.35519,-16.30534 1.47991,0 2.69075,4.14577 2.69075,9.21287 0,11.6062 6.60393,15.04159 13.21658,6.8753 4.44646,-5.49114 12.87196,-7.80556 12.87196,-3.53584 0,4.86017 -10.65902,12.99748 -19.0995,14.58092 -7.40366,1.38892 -8.82558,2.64961 -7.7269,6.85085 0.74052,2.83178 2.67697,5.22794 4.30319,5.32478 21.886,1.30325 27.74091,4.82719 27.74091,16.69659 0,10.81842 -6.94912,17.04244 -19.02782,17.04244 -6.70559,0 -10.27687,1.47775 -12.18427,5.04176 -2.23528,4.17668 -1.39857,5.96721 4.87644,10.43542 4.16609,2.96651 8.58541,5.39365 9.82069,5.39365 3.6348,0 11.29726,24.56782 11.29726,36.22192 0,8.9982 -0.84517,10.7375 -5.2177,10.7375 -4.23984,0 -5.21772,-1.7393 -5.21772,-9.2802 0,-14.2818 -5.37476,-32.36198 -10.42365,-35.06405 -6.77994,-3.62853 -7.80895,-1.02074 -8.147,20.64715 -0.35932,23.0309 -2.79278,36.8991 -5.67342,32.333 z m -0.78697,-92.46755 c 1.88521,-11.78932 1.49579,-13.32551 -2.68629,-10.59751 -4.43809,2.89505 -6.55977,21.3812 -2.45391,21.3812 1.98617,0 4.13754,-4.51339 5.1402,-10.78369 z m 15.35223,7.35727 c 1.81777,-4.73705 -0.85534,-17.44441 -3.66959,-17.44441 -1.26759,0 -2.30472,4.69594 -2.30472,10.43541 0,10.11584 3.29757,13.9845 5.97431,7.009 z m -31.67152,-4.40014 c 0.21523,-2.86974 0.50872,-6.58735 0.65221,-8.26138 0.47335,-5.5224 -5.85088,-5.20668 -8.87451,0.44307 -2.23871,4.18302 -2.20368,6.46218 0.1427,9.28949 4.36081,5.25448 7.61958,4.66106 8.07949,-1.47118 z m 48.70613,-3.05671 c -1.229,-8.35225 -7.3558,-9.24678 -7.3558,-1.07397 0,4.38419 1.43104,6.73953 4.09473,6.73953 2.71931,0 3.8147,-1.90306 3.26107,-5.66556 z M 39.276668,1030.0055 c 0,-2.1523 0.880488,-3.9225 1.95664,-3.9337 1.076153,-0.01 3.27844,-2.6526 4.89397,-5.8699 17.504217,-34.8589 19.662214,-40.38558 27.241682,-69.76651 1.295549,-5.02205 2.820763,-31.43669 3.389363,-58.69923 0.568599,-27.26252 1.619734,-61.30806 2.335848,-75.65677 0.716114,-14.34869 1.442008,-30.49097 1.613096,-35.87173 0.257833,-8.10853 1.251238,-9.7832 5.803427,-9.7832 5.411743,0 5.469555,0.58403 3.938601,39.78501 -5.14279,131.68505 -5.110597,140.29531 0.60708,162.36494 2.968745,11.45905 6.620593,21.24225 8.115259,21.74047 1.494636,0.4982 2.743626,2.2755 2.775536,3.9495 0.0318,1.674 2.35378,5.97862 5.15971,9.56582 6.02184,7.6985 7.07177,23.4797 1.5621,23.4797 -4.41112,0 -13.375018,-14.5432 -15.817139,-25.6621 -0.971747,-4.4244 -4.480602,-13.66732 -7.79743,-20.53988 L 79.02381,972.61237 74.803365,982.7133 c -2.321247,5.55554 -4.220448,10.91107 -4.220448,11.90118 0,3.0455 -10.81831,24.54612 -16.166613,32.12992 -5.401827,7.6597 -15.139636,9.7573 -15.139636,3.2611 z m 11.376607,-91.3158 c -0.827148,-2.15551 -0.667349,-7.14495 0.355107,-11.08763 1.900358,-7.32793 3.822621,-56.35629 4.097461,-104.50788 0.135763,-23.78612 0.663002,-26.80157 4.554241,-26.04741 4.007387,0.77667 4.333971,6.44521 3.654118,63.42428 -0.840332,70.42845 -1.893995,82.13776 -7.391175,82.13776 -2.071215,0 -4.442602,-1.76361 -5.269752,-3.91912 z m 47.624695,-7.16851 c -3.581304,-30.03514 2.51149,-129.79049 7.92726,-129.79049 4.5882,0 6.4631,13.58652 5.04023,36.52396 -0.66755,10.76153 -1.9472,37.17618 -2.84365,58.69922 -0.89645,21.52304 -2.10469,40.60028 -2.68498,42.39388 -2.23694,6.91411 -6.175314,2.77046 -7.43886,-7.82657 z m 46.33902,-106.87941 c -1.35235,-4.77412 -4.99058,-9.70089 -8.22329,-11.13565 -6.68871,-2.96866 -13.63369,-16.06642 -13.63369,-25.71222 0,-14.11128 8.85883,-10.5016 11.24171,4.58063 3.37982,21.39269 12.33701,18.35803 10.2397,-3.46914 -1.17967,-12.2771 2.34231,-23.69866 7.30776,-23.69866 1.40712,0 2.51708,9.20357 2.51708,20.87084 0,11.47896 1.09011,20.87084 2.42251,20.87084 6.82932,0 12.25887,-11.31271 10.86167,-22.63075 -0.57608,-4.66651 4.76705,-6.88044 8.70924,-3.60869 2.761,2.29143 2.91206,5.23982 0.71318,13.92107 -3.13143,12.36302 -6.31528,16.39266 -15.80164,19.99937 -4.36452,1.6594 -6.81055,4.84256 -7.37082,9.59214 -1.20355,10.20252 -6.14691,10.43374 -8.98341,0.42022 z m 56.49638,-2.69246 c -1.31559,-3.22845 -5.45253,-8.68952 -9.19318,-12.13569 -5.74627,-5.29386 -6.68039,-8.12652 -6.02226,-18.26197 0.92766,-14.28554 5.45949,-14.91881 7.30114,-1.02025 1.49775,11.30336 9.83639,15.86889 9.98912,5.46918 0.1487,-10.12457 2.53429,-20.88111 5.22859,-23.57544 4.58439,-4.58434 7.80136,6.36436 5.7634,19.61527 -1.09379,7.11182 -0.8833,13.1258 0.48903,13.97394 3.72429,2.30177 12.44497,-8.54538 12.44497,-15.47961 0,-7.92025 2.29399,-10.17472 6.42576,-6.31507 7.21572,6.74049 -7.50661,33.10294 -18.51355,33.15119 -1.62623,0.008 -3.57082,2.36092 -4.32126,5.23067 -1.81704,6.94831 -6.62787,6.62118 -9.59176,-0.65222 z"
       id="path3234"
       inkscape:connector-curvature="0" />
  </g>
</svg>
