<?xml version="1.0" encoding="UTF-8" standalone="no"?>
<svg
   xmlns:dc="http://purl.org/dc/elements/1.1/"
   xmlns:cc="http://creativecommons.org/ns#"
   xmlns:rdf="http://www.w3.org/1999/02/22-rdf-syntax-ns#"
   xmlns:svg="http://www.w3.org/2000/svg"
   xmlns="http://www.w3.org/2000/svg"
   viewBox="0 0 300 300"
   height="300"
   width="300"
   id="svg646"
   version="1.1">
  <metadata
     id="metadata652">
    <rdf:RDF>
      <cc:Work
         rdf:about="">
        <dc:format>image/svg+xml</dc:format>
        <dc:type
           rdf:resource="http://purl.org/dc/dcmitype/StillImage" />
        <dc:title></dc:title>
      </cc:Work>
    </rdf:RDF>
  </metadata>
  <defs
     id="defs650" />
  <path
     id="path656"
     d="m 89.120131,282.75327 c -1.20667,-2.83637 -1.148888,-9.15593 0.365523,-46.72713 0.649035,-16.10227 0.993998,-29.46294 0.766573,-29.69037 -25.122468,-0.71414 -30.937628,-0.65926 -36.795834,-2.39949 -5.267032,-1.56462 -5.807291,-9.13804 -1.393896,-10.40165 10.641994,-3.04692 20.126428,-2.48293 38.637388,-3.04803 1.04384,-15.28815 1.37798,-23.71774 1.964687,-38.17825 -11.240847,-0.46627 -29.935074,-0.10627 -32.811032,-3.56232 -2.945958,-3.54018 -1.134335,-6.28425 1.538806,-7.60639 3.45987,-1.71124 16.333154,-1.22155 32.115011,-1.29855 0.746769,-16.77237 -0.294955,-31.10585 11.359403,-37.04611 13.52343,-6.892931 23.67851,-5.864641 38.93913,-6.642821 0.58693,-10.893836 0.06,-15.373971 7.49607,-13.294728 -9.26763,-17.957779 -15.21553,-36.916518 -18.08509,-56.32908 -17.10065,-0.13755 -41.011861,-0.05345 -44.039987,10.117745 -4.322941,14.520363 3.098395,29.069792 6.326258,37.751875 4.649339,12.47095 5.247659,16.543976 2.729774,18.582828 -3.943111,3.19293 -7.077436,0.97023 -11.755419,-8.336339 -9.45809,-18.81628 -15.8719,-38.766593 -8.251242,-56.042813 2.702641,-6.126953 8.392623,-9.908069 16.651304,-11.239588 22.939862,-3.698517 65.032002,-2.172973 100.069672,-1.271603 18.07585,0.46298 26.78608,0.799602 28.61459,1.577027 5.40714,2.298944 6.39986,6.667587 2.48486,9.350704 -1.88681,1.293106 -13.55099,1.071635 -32.78517,1.235676 4.78497,12.013004 11.37966,27.736322 17.13495,36.278268 5.50334,8.168012 10.45546,12.866541 10.10626,17.664234 -0.73112,10.044683 -11.92458,0.127957 -13.73396,-2.424099 C 193.84763,61.54755 186.37583,47.001114 178.84654,27.965581 162.27337,27.372286 158.72818,27.101309 145.2696,26.978774 c 1.71999,14.94108 8.67815,30.769677 13.75753,43.758001 4.70573,12.032885 5.57046,14.139705 -3.81812,14.232843 1.36191,3.546448 1.48534,5.786986 1.49528,10.754841 20.10513,1.38823 27.97761,1.11531 35.68829,5.310671 13.86609,7.54449 14.25849,24.83156 15.02083,37.09638 18.2966,0.0391 22.44407,-0.18365 25.09432,1.30341 4.56258,2.56008 6.45862,8.1783 2.52319,10.39627 -3.59236,2.02463 -17.4014,1.24182 -26.63165,1.78847 0.12559,15.88162 0.41753,24.42328 1.10433,38.98763 0.3315,0.3487 7.99897,0.67446 17.03884,0.7239 15.58908,0.0853 16.9565,0.28186 19.39693,1.63815 6.63698,3.68857 6.45663,7.41667 0.45506,10.48037 -3.32141,1.69552 -3.80829,1.72865 -18.62004,1.76297 -18.19634,0.0421 -9.45301,-0.015 -18.31989,0.11669 1.07116,27.35379 1.97865,43.76415 2.28719,63.94638 0.14557,9.52209 -0.0183,15.56246 -5.30264,15.72362 -7.11631,0.21703 -8.46043,-55.73716 -9.44304,-79.05248 -31.31854,-0.42626 -65.8663,-0.4146 -93.70461,-0.42392 l -1.53447,27.47118 c -2.520997,45.13262 -2.727538,48.70365 -4.690361,50.4304 -2.69825,2.37371 -6.834938,1.94138 -7.946438,-0.67128 z m 54.248509,-91.83984 c -0.14316,-15.31353 -0.007,-25.51923 -0.40762,-39.31811 -12.50371,0.12248 -25.00742,0.24499 -37.51113,0.36748 -0.4017,13.05291 -1.04871,26.09642 -1.5082,39.14671 15.2939,0.0182 24.81437,-0.15958 39.42695,-0.19608 z m 52.4575,0.4394 c -0.0851,-13.9221 -0.86631,-24.058 -1.55521,-39.74113 -14.51193,-0.0918 -21.10142,0.006 -37.33418,0.006 -2.5e-4,13.24607 -5.2e-4,26.49212 -8e-4,39.73818 14.17181,0.20066 23.83,0.23084 38.89019,-0.003 z m -52.25882,-52.08808 c -0.14593,-6.63744 0.0299,-21.22038 -0.0303,-31.07693 -12.22011,-0.54454 -24.60213,0.51864 -31.57627,4.75812 -6.23422,3.7897 -5.95245,19.18524 -6.17905,26.7927 15.99065,0.026 23.32565,-0.0989 37.78572,-0.47389 z m 50.86995,-0.77814 c -0.0433,-8.16733 -0.17727,-17.65995 -4.81944,-23.48075 -4.87815,-6.11669 -17.38955,-6.85773 -32.68108,-6.92764 0,10.43883 -0.0615,20.5088 -0.0615,30.94763 14.46281,-0.30965 21.91752,0.0141 37.562,-0.53924 z"
     style="fill:#000000;stroke-width:0.69109893" />
</svg>
