<?xml version="1.0" encoding="UTF-8" standalone="no"?>
<!-- Created with Inkscape (http://www.inkscape.org/) -->

<svg
   xmlns:dc="http://purl.org/dc/elements/1.1/"
   xmlns:cc="http://creativecommons.org/ns#"
   xmlns:rdf="http://www.w3.org/1999/02/22-rdf-syntax-ns#"
   xmlns:svg="http://www.w3.org/2000/svg"
   xmlns="http://www.w3.org/2000/svg"
   xmlns:sodipodi="http://sodipodi.sourceforge.net/DTD/sodipodi-0.dtd"
   xmlns:inkscape="http://www.inkscape.org/namespaces/inkscape"
   width="300"
   height="300"
   id="svg2"
   version="1.1"
   inkscape:version="0.48.2 r9819"
   sodipodi:docname="Nouveau document 1">
  <defs
     id="defs4" />
  <sodipodi:namedview
     id="base"
     pagecolor="#ffffff"
     bordercolor="#666666"
     borderopacity="1.0"
     inkscape:pageopacity="0.0"
     inkscape:pageshadow="2"
     inkscape:zoom="1.979899"
     inkscape:cx="163.99207"
     inkscape:cy="171.42347"
     inkscape:document-units="px"
     inkscape:current-layer="layer1"
     showgrid="false"
     inkscape:window-width="1280"
     inkscape:window-height="999"
     inkscape:window-x="0"
     inkscape:window-y="24"
     inkscape:window-maximized="1" />
  <metadata
     id="metadata7">
    <rdf:RDF>
      <cc:Work
         rdf:about="">
        <dc:format>image/svg+xml</dc:format>
        <dc:type
           rdf:resource="http://purl.org/dc/dcmitype/StillImage" />
        <dc:title></dc:title>
      </cc:Work>
    </rdf:RDF>
  </metadata>
  <g
     inkscape:label="Calque 1"
     inkscape:groupmode="layer"
     id="layer1"
     transform="translate(0,-752.36218)">
    <path
       style="fill:#000000"
       d="m 53.696352,1033.8486 c -3.399655,-4.6362 -3.530912,-7.8388 -0.574907,-14.0275 2.106795,-4.4108 3.827719,-12.0432 3.824253,-16.9607 -0.0032,-4.91756 3.272704,-25.10153 7.280373,-44.85326 2.826239,-21.13529 3.514695,-33.42151 20.587649,-44.69542 7.315569,-4.83075 19.30212,-12.66894 26.63683,-17.41821 8.7144,-5.64259 11.89851,-9.16747 9.18823,-10.1715 -2.28121,-0.84506 -23.285224,-0.75446 -46.675608,0.20137 -50.722557,2.07271 -55.393012,1.39416 -48.107844,-6.98942 1.953019,-2.24746 14.766193,-3.58748 41.625327,-4.35321 21.342064,-0.60846 43.396795,-1.57069 49.010485,-2.13827 5.61369,-0.56758 11.35496,-1.12278 12.7584,-1.23371 1.40341,-0.11098 2.55166,-4.14187 2.55166,-8.95759 l 0,-8.75586 -33.171811,0.68585 c -31.194232,0.64495 -33.171813,0.39041 -33.171813,-4.26985 0,-4.19087 3.150516,-5.24839 20.413427,-6.85213 11.227384,-1.04302 44.909537,-1.60643 74.849217,-1.252 51.87331,0.61409 54.4358,0.87822 54.4358,5.61059 0,4.54056 -2.26817,4.96616 -26.46689,4.96616 -28.20175,0 -32.91596,1.86114 -33.02017,13.03617 -0.0582,6.25351 -1.41122,6.13374 63.3061,5.60366 29.47016,-0.24136 34.75873,0.32571 36.65411,3.93058 1.21825,2.317 1.53064,4.71218 0.69423,5.32261 -0.8364,0.61047 -24.0218,1.47891 -51.52307,1.92987 -27.50127,0.451 -51.52638,1.93232 -53.38918,3.29183 -1.86275,1.35953 -5.16701,5.07787 -7.34277,8.26296 -2.17576,3.18513 -8.99606,8.02807 -15.15621,10.76214 -18.39845,8.16575 -36.002828,21.64366 -43.791024,33.5264 -5.976293,9.1183 -7.704164,17.56898 -9.392376,45.93697 -2.145156,36.04527 -3.052461,40.92007 -9.358809,50.28237 -4.790191,7.1114 -7.209174,7.031 -12.673609,-0.4209 z m 185.116008,-1.9911 c -5.18866,-4.4776 -13.22797,-14.2868 -17.86514,-21.7981 -4.63723,-7.5113 -11.12921,-15.89169 -14.42665,-18.62308 -3.29742,-2.7314 -6.56275,-7.20094 -7.25627,-9.93231 -1.38347,-5.44877 3.14037,-5.30467 -70.37517,-2.24213 -23.53566,0.98044 -36.469159,0.56579 -38.955622,-1.24892 -6.703837,-4.8927 1.985825,-7.27318 31.660992,-8.67329 15.90546,-0.75047 37.49776,-2.23134 47.98291,-3.29085 l 19.06385,-1.92637 -6.29236,-10.77031 c -8.58327,-18.104 -18.37182,-10.45558 -38.45583,-9.93232 -22.53303,0.58708 -33.43705,-0.0914 -36.41705,-2.26585 -8.085379,-5.89988 2.84809,-9.26889 33.06683,-10.18914 27.08938,-3.92673 38.66657,1.62823 54.19976,13.99676 4.67806,3.68208 8.62993,8.38221 8.78192,10.4447 0.15208,2.0625 2.37942,0.39784 4.94987,-3.69924 5.50802,-8.77922 6.47133,-27.58987 1.52712,-29.82002 -5.13464,-2.31606 -29.56288,-4.24862 -52.65788,-4.16584 -21.48427,0.077 -29.76617,-2.53325 -26.67731,-8.40803 2.21091,-4.20499 51.85765,-5.10572 61.57076,-1.11708 12.05735,0.44888 31.58373,1.66697 37.67461,13.81761 5.66385,15.48917 5.5223,37.17734 -9.80018,43.40806 -6.83894,2.67127 -6.77562,2.94602 3.88229,16.84813 37.64017,49.09772 37.849,49.49322 28.97131,54.87052 -3.73609,2.263 -6.68363,1.1627 -14.15276,-5.2829 z M 80.515543,830.65695 c -4.609053,-12.41876 -5.607607,-34.1976 -1.775489,-38.72298 6.021173,-7.11036 29.396176,-10.72074 97.290236,-15.02682 39.33119,-2.49454 51.03356,-1.34356 51.03356,5.01937 0,3.65028 -2.52831,4.65578 -11.70702,4.65578 -6.43887,0 -12.59224,1.04529 -13.67411,2.32289 -2.2785,2.69072 8.77931,17.88788 18.63151,25.60598 14.28394,11.1899 3.15499,22.16578 -11.96404,11.79945 -10.39557,-7.12768 -23.1165,-26.72767 -21.06432,-32.45513 1.34406,-3.75114 -0.21706,-4.20438 -10.79607,-3.13445 -20.99544,2.12344 -20.96139,2.096 -18.65386,15.01376 1.16776,6.53728 3.54895,13.21127 5.29151,14.83112 3.39008,3.15128 -2.10078,13.19488 -7.2137,13.19488 -7.8627,0 -19.3505,-25.02774 -16.49384,-35.9341 1.39232,-5.31583 0.38305,-6.27824 -6.58391,-6.27824 -13.98436,0 -37.905036,5.29642 -39.747562,8.80075 -0.962994,1.83154 -0.301775,7.01825 1.469742,11.52598 4.416647,11.23949 4.039273,22.778 -0.862028,26.35515 -6.693028,4.88479 -9.062161,3.52352 -13.180609,-7.57339 z"
       id="path3007"
       inkscape:connector-curvature="0"
       sodipodi:nodetypes="sscccsssssscscsssssscsscscsssssssssssssscccscccsssscccssssssssssssssssssscss" />
  </g>
</svg>
