<?xml version="1.0" encoding="UTF-8" standalone="no"?>
<!-- Created with Inkscape (http://www.inkscape.org/) -->

<svg
   xmlns:dc="http://purl.org/dc/elements/1.1/"
   xmlns:cc="http://creativecommons.org/ns#"
   xmlns:rdf="http://www.w3.org/1999/02/22-rdf-syntax-ns#"
   xmlns:svg="http://www.w3.org/2000/svg"
   xmlns="http://www.w3.org/2000/svg"
   xmlns:sodipodi="http://sodipodi.sourceforge.net/DTD/sodipodi-0.dtd"
   xmlns:inkscape="http://www.inkscape.org/namespaces/inkscape"
   width="300"
   height="300"
   id="svg2"
   version="1.1"
   inkscape:version="0.48.2 r9819"
   sodipodi:docname="Nouveau document 1">
  <defs
     id="defs4" />
  <sodipodi:namedview
     id="base"
     pagecolor="#ffffff"
     bordercolor="#666666"
     borderopacity="1.0"
     inkscape:pageopacity="0.0"
     inkscape:pageshadow="2"
     inkscape:zoom="1.979899"
     inkscape:cx="219.71102"
     inkscape:cy="137.02497"
     inkscape:document-units="px"
     inkscape:current-layer="layer1"
     showgrid="false"
     inkscape:window-width="1280"
     inkscape:window-height="999"
     inkscape:window-x="0"
     inkscape:window-y="24"
     inkscape:window-maximized="1" />
  <metadata
     id="metadata7">
    <rdf:RDF>
      <cc:Work
         rdf:about="">
        <dc:format>image/svg+xml</dc:format>
        <dc:type
           rdf:resource="http://purl.org/dc/dcmitype/StillImage" />
        <dc:title></dc:title>
      </cc:Work>
    </rdf:RDF>
  </metadata>
  <g
     inkscape:label="Calque 1"
     inkscape:groupmode="layer"
     id="layer1"
     transform="translate(0,-752.36218)">
    <path
       style="fill:#000000"
       d="m 96.728818,1013.4632 c 0.958014,-5.7712 2.515974,-12.4819 3.462122,-14.91265 2.6733,-6.86802 3.7378,-50.2361 1.27011,-51.74468 -1.20978,-0.73957 -12.377947,3.68274 -24.818152,9.82735 -23.161535,11.44024 -34.850905,14.68219 -42.257908,11.71991 -7.175399,-2.86965 -1.368592,-7.17127 20.799194,-15.40783 11.748377,-4.36517 23.154027,-8.83608 25.345891,-9.93535 15.073313,-7.55962 31.191835,-14.7326 38.152275,-16.97834 18.12331,-5.84735 22.85275,-11.75774 23.19847,-28.99115 0.17642,-8.79417 -0.0137,-19.587 -0.42258,-23.98409 -0.40885,-4.39708 -0.86096,-20.8666 -1.00468,-36.59893 -0.22642,-24.78404 -0.93356,-28.47784 -5.29484,-27.65785 -17.78458,3.34379 -39.489686,8.98138 -50.157753,13.02776 -12.095475,4.58779 -12.272636,4.82139 -6.575346,8.66998 11.668614,7.8823 15.877089,7.95859 29.146329,0.52839 11.0683,-6.19777 12.99768,-6.63968 17.35607,-3.97526 4.35839,2.66442 3.73863,3.73236 -5.57516,9.60688 -5.76326,3.63508 -10.46531,7.46582 -10.44899,8.51275 0.0164,1.04694 4.42998,4.02842 9.80815,6.62552 6.8173,3.29204 9.77848,6.46961 9.77848,10.49303 0,7.74557 -8.99202,7.63152 -19.16696,-0.24311 -4.24827,-3.28783 -9.804068,-5.97788 -12.346226,-5.97788 -2.542155,0 -11.281479,4.07108 -19.420715,9.04684 -14.170597,8.66291 -20.992536,9.93268 -20.992536,3.90733 0,-1.53962 5.889504,-6.47247 13.087785,-10.96189 12.540973,-7.82155 12.89322,-8.38858 8.430946,-13.57179 -6.417732,-7.45461 -16.836914,-12.40458 -26.110391,-12.40458 -12.2173,0 -13.812861,-6.16587 -2.968442,-11.47122 5.057137,-2.47407 11.769434,-4.50278 14.916216,-4.50824 3.146781,-0.005 5.721421,-0.84872 5.721421,-1.87391 0,-1.0252 3.310251,-2.46731 7.356113,-3.20469 4.045863,-0.73738 15.447838,-3.41948 25.337729,-5.96021 9.88988,-2.54074 22.76308,-5.8152 28.6071,-7.27658 9.35227,-2.33868 10.6255,-3.56411 10.6255,-10.22659 0,-5.18052 1.69698,-7.96762 5.37685,-8.83088 5.92653,-1.3903 15.32511,4.76908 12.97939,8.50606 -2.2873,3.64389 1.88851,5.90482 20.87636,11.30321 15.85569,4.50789 60.07153,15.15141 76.01317,18.29769 5.55638,1.09662 8.51288,11.25925 3.26939,11.23814 -3.26267,-0.0132 -52.35537,-10.85372 -63.75298,-14.07785 -4.94495,-1.39881 -8.99081,-3.2701 -8.99081,-4.15843 0,-0.88832 -1.95312,-1.15694 -4.34027,-0.59694 -2.38716,0.56 -8.32453,0.0921 -13.19418,-1.03971 -6.60129,-1.53432 -9.21856,-1.42795 -10.28718,0.4181 -0.7883,1.36179 -2.06772,22.71255 -2.84315,47.44614 -0.77543,24.73358 -1.72342,45.86956 -2.10663,46.96883 -0.38322,1.09927 -0.52253,5.23687 -0.30958,9.19467 0.36802,6.84008 1.47866,7.51862 22.4555,13.71885 59.0446,17.45211 72.82373,22.30355 78.59683,27.67286 4.44194,4.13126 4.43876,4.93805 -0.0304,7.6701 -5.94664,3.63544 -11.71725,2.06128 -35.83365,-9.77504 -8.41433,-4.12975 -18.53436,-7.50863 -22.48895,-7.50863 -7.12122,0 -7.16753,0.21568 -4.82808,22.48508 1.29915,12.36679 3.16973,26.53239 4.15683,31.47911 3.39289,17.00302 2.7201,22.41142 -3.06885,24.66982 -3.06054,1.194 -6.70677,1.4726 -8.10274,0.6193 -3.26117,-1.9937 -6.90094,-25.11034 -9.33167,-59.26658 -1.70085,-23.90024 -2.68561,-27.38159 -8.62173,-30.47977 -8.43167,-4.40066 -18.87299,-4.43908 -33.67513,-0.12392 -11.1644,3.25469 -11.55008,3.73087 -10.927,13.49105 0.35523,5.56451 -0.3427,17.31251 -1.55094,26.10667 -5.6799,41.34075 -9.38177,50.96615 -19.60115,50.96615 -5.786744,0 -6.24843,-1.0354 -4.678472,-10.493 z M 56.564063,922.89182 c 0,-2.67859 8.283631,-10.2418 16.273992,-14.85866 12.751623,-7.36793 13.588536,-10.67 4.725302,-18.64384 -4.356967,-3.91976 -7.921759,-8.07396 -7.921759,-9.23155 0,-3.93558 11.052501,-2.12335 20.685008,3.39164 6.747106,3.86298 10.057024,4.72059 11.137984,2.88587 2.30953,-3.91995 14.56389,-10.3809 19.68925,-10.3809 5.15582,0 3.47311,5.24576 -4.90836,15.30155 -4.86258,5.83395 -4.84007,6.69678 0.29987,11.49237 3.05641,2.85167 6.99443,5.18486 8.75114,5.18486 1.75671,0 3.19401,2.69821 3.19401,5.99602 0,3.29781 -1.6448,5.99602 -3.65512,5.99602 -2.01032,0 -8.68201,-2.69821 -14.82599,-5.99602 -6.14397,-3.29781 -12.344662,-5.99602 -13.779307,-5.99602 -1.434641,0 -7.337667,3.59761 -13.117836,7.9947 -7.10919,5.40809 -13.103981,7.99469 -18.528788,7.99469 -4.410666,0 -8.019396,-0.50883 -8.019396,-1.13073 z m 109.038957,-5.91721 c -1.34983,-2.1504 0.72978,-4.86239 5.85621,-7.637 4.37213,-2.36635 11.44335,-6.76404 15.71383,-9.77264 l 7.76449,-5.47019 -10.13354,-5.92022 c -14.42943,-8.42996 -18.75871,-13.85071 -12.27637,-15.3714 3.27414,-0.76808 9.0342,1.44152 16.16591,6.20135 12.3953,8.27283 19.52122,7.81468 27.93483,-1.79603 5.85939,-6.69307 8.3681,-6.4953 14.60825,1.15165 6.5655,8.04563 6.46913,9.67157 -0.57788,9.74986 -3.14679,0.035 -8.41786,1.31281 -11.71349,2.83966 -5.64154,2.61371 -5.21122,3.23936 7.35611,10.69526 8.91771,5.29066 13.34818,9.65526 13.34818,13.14972 0,2.87682 -0.83233,5.23057 -1.84962,5.23057 -4.7733,0 -16.37272,-5.05319 -23.52147,-10.24693 -9.11232,-6.62033 -14.99083,-7.22489 -21.03224,-2.16299 -2.34966,1.96871 -9.05966,5.63021 -14.91111,8.13667 -9.54593,4.08899 -10.85403,4.2146 -12.73209,1.22266 z m 0.67471,-48.46608 c -3.24125,-1.98147 -1.99861,-3.76221 7.98415,-11.44155 11.93839,-9.18371 12.2346,-12.92047 1.63469,-20.62157 -14.87517,-10.80718 -7.94184,-15.61981 9.22667,-6.40452 12.94633,6.94901 20.544,7.67307 23.3713,2.22731 2.36524,-4.55575 11.38362,-7.07494 15.75678,-4.40149 1.98664,1.21449 0.59679,4.08048 -3.81608,7.86908 -3.81742,3.27738 -6.94076,6.52934 -6.94076,7.22657 0,0.69723 5.88489,5.01173 13.07754,9.58779 14.20219,9.03561 14.33172,9.20561 10.11537,13.27541 -4.16897,4.02407 -20.55259,-0.81932 -27.38317,-8.09513 -7.04951,-7.50901 -10.51314,-7.15256 -21.17854,2.17954 -8.46504,7.40682 -17.79251,11.07778 -21.84795,8.59856 z"
       id="path2996"
       inkscape:connector-curvature="0" />
  </g>
</svg>
