<?xml version="1.0" encoding="UTF-8" standalone="no"?>
<svg
   xmlns:dc="http://purl.org/dc/elements/1.1/"
   xmlns:cc="http://creativecommons.org/ns#"
   xmlns:rdf="http://www.w3.org/1999/02/22-rdf-syntax-ns#"
   xmlns:svg="http://www.w3.org/2000/svg"
   xmlns="http://www.w3.org/2000/svg"
   version="1.1"
   id="svg102"
   width="300"
   height="300"
   viewBox="0 0 300 300">
  <metadata
     id="metadata108">
    <rdf:RDF>
      <cc:Work
         rdf:about="">
        <dc:format>image/svg+xml</dc:format>
        <dc:type
           rdf:resource="http://purl.org/dc/dcmitype/StillImage" />
        <dc:title></dc:title>
      </cc:Work>
    </rdf:RDF>
  </metadata>
  <defs
     id="defs106" />
  <path
     style="fill:#000000;stroke-width:0.69241172"
     d="m 182.88014,282.05721 c -0.39789,-0.90983 -0.69398,-1.93146 -0.91761,-5.13952 l -0.87889,-135.26502 c -32.41731,0.9279 -30.57776,53.4141 -30.87687,101.26904 -0.0426,6.81425 -11.14495,7.74376 -11.21737,0.68655 -0.52382,-51.0413 -1.32366,-112.08377 41.96637,-112.83596 l -0.055,-27.53041 c -43.43612,-1.80402 -40.90701,-28.984539 -40.54266,-63.419692 0.1006,-9.506706 10.77561,-8.707146 10.87817,0.06402 0.38199,32.665946 -1.53857,50.110732 29.41929,51.378015 l -0.0872,-61.168024 c -0.0239,-16.787335 12.47597,-15.23968 12.52858,0.224036 l 0.20806,61.150651 c 31.80231,-0.534369 28.86544,-18.056662 29.66923,-52.380944 0.19656,-8.393535 10.82725,-7.265691 11.34192,-0.550797 -0.24221,36.005531 0.8497,63.534355 -41.48324,64.436565 l 0.0361,27.3428 c 43.2548,0.28194 42.90127,65.66021 42.66904,114.41732 -0.03,6.3017 -10.69375,5.86185 -10.73902,-0.67579 -0.31252,-45.12996 -1.64282,-102.17809 -32.04912,-102.93027 l 0.1632,137.40931 C 192.87932,282.4061 189.1489,285 186.38568,285 c -1.94678,0 -2.37644,-0.36068 -3.50562,-2.94275 z m -78.46909,-4.83174 1.31136,-92.19178 -26.278529,-0.62168 c -0.825405,26.23407 -0.699008,28.80572 -4.141173,63.48765 -0.766637,7.72434 -11.584291,6.33766 -10.839931,-1.15406 3.557202,-35.80198 3.849331,-65.65618 4.35772,-102.96281 0.08967,-6.57982 10.3851,-6.26749 10.404425,0.46834 l -0.07021,28.57814 h 26.619448 l -0.79524,-83.940871 -25.109659,0.05275 c -0.560608,11.469091 -1.563731,14.085681 -4.112488,33.352801 -1.156777,8.74456 -11.784374,8.00267 -10.432882,-1.34886 4.492155,-31.083082 4.595694,-43.836669 0.272446,-79.446226 -0.587973,-5.606005 9.048468,-5.765297 9.64775,-2.237855 3.951843,23.261019 4.385806,28.571203 4.953295,38.262891 l 24.687278,-0.07472 -1.56205,-55.569913 c -0.2391,-8.506319 9.88028,-8.955828 10.02698,-2.279207 1.84276,83.86744 4.59268,176.46708 0.99451,257.89581 -0.15254,8.74126 -10.03955,7.21611 -9.93305,-0.2704 z"
     id="path112" />
</svg>
