<?xml version="1.0" encoding="UTF-8" standalone="no"?>
<!-- Created with Inkscape (http://www.inkscape.org/) -->

<svg
   xmlns:dc="http://purl.org/dc/elements/1.1/"
   xmlns:cc="http://creativecommons.org/ns#"
   xmlns:rdf="http://www.w3.org/1999/02/22-rdf-syntax-ns#"
   xmlns:svg="http://www.w3.org/2000/svg"
   xmlns="http://www.w3.org/2000/svg"
   xmlns:sodipodi="http://sodipodi.sourceforge.net/DTD/sodipodi-0.dtd"
   xmlns:inkscape="http://www.inkscape.org/namespaces/inkscape"
   width="300"
   height="300"
   id="svg2"
   version="1.1"
   inkscape:version="0.48.4 r9939"
   sodipodi:docname="dessin.svg">
  <defs
     id="defs4" />
  <sodipodi:namedview
     id="base"
     pagecolor="#ffffff"
     bordercolor="#666666"
     borderopacity="1.0"
     inkscape:pageopacity="0.0"
     inkscape:pageshadow="2"
     inkscape:zoom="1.979899"
     inkscape:cx="73.020464"
     inkscape:cy="149.14493"
     inkscape:document-units="px"
     inkscape:current-layer="layer1"
     showgrid="false"
     inkscape:window-width="1215"
     inkscape:window-height="1000"
     inkscape:window-x="65"
     inkscape:window-y="24"
     inkscape:window-maximized="1" />
  <metadata
     id="metadata7">
    <rdf:RDF>
      <cc:Work
         rdf:about="">
        <dc:format>image/svg+xml</dc:format>
        <dc:type
           rdf:resource="http://purl.org/dc/dcmitype/StillImage" />
        <dc:title />
      </cc:Work>
    </rdf:RDF>
  </metadata>
  <g
     inkscape:label="Calque 1"
     inkscape:groupmode="layer"
     id="layer1"
     transform="translate(0,-752.36218)">
    <path
       style="fill:#000000"
       d="m 127.28209,1036.2085 c -1.82581,-2.2382 -1.96216,-5.0073 -0.37247,-7.5645 1.37923,-2.2187 2.52629,-7.1904 2.54908,-11.0483 0.0216,-3.8579 1.12,-8.1903 2.43828,-9.6276 4.90699,-5.3498 8.41805,-40.16776 8.41805,-83.47859 0,-62.65173 0.89689,-63.99343 43.14429,-64.54206 l 29.41082,-0.38195 6.97888,8.25224 c 11.99733,14.18631 8.99637,49.09319 -4.80402,55.87982 -3.18162,1.56466 -17.30565,3.62235 -31.38678,4.57268 -14.08113,0.95035 -25.78798,1.9724 -26.01525,2.27123 -0.22739,0.29885 -1.2321,8.58928 -2.23294,18.42319 -2.84917,27.99481 -5.97947,46.65381 -11.07541,66.01784 -6.26715,23.8145 -10.57095,29.1716 -17.05253,21.226 z m 74.5429,-125.7241 c 14.73237,-9.13869 11.0938,-11.30124 -17.57428,-10.44504 l -26.36141,0.78729 -0.85551,7.56455 -0.85555,7.56455 18.42982,-0.0115 c 13.60057,-0.008 20.73231,-1.43867 27.21693,-5.46116 z m 8.78713,-28.3628 c 0,-7.67224 -6.76564,-10.17775 -27.48297,-10.17775 -17.73441,0 -21.41379,0.79802 -23.69772,5.13982 -1.48705,2.82689 -1.93544,5.92147 -0.99637,6.87685 0.93905,0.95537 13.06303,1.73704 26.94222,1.73704 18.90302,0 25.23484,-0.89726 25.23484,-3.57596 z m -124.371772,149.859 c 0,-2.7543 2.433362,-16.5926 5.407469,-30.7518 2.974108,-14.1592 5.407469,-32.94883 5.407469,-41.75479 0,-15.95598 -0.02781,-16.01084 -8.111203,-16.01084 -5.439779,0 -8.111202,1.37122 -8.111202,4.16344 0,2.28989 -1.084333,6.31285 -2.409649,8.93992 -1.325317,2.62707 -4.685761,12.20348 -7.467688,21.28093 -3.957022,12.91177 -6.228105,16.50445 -10.433088,16.50445 -6.977364,0 -6.643669,-9.62401 1.239851,-35.75965 3.194463,-10.59036 6.662975,-29.1434 7.707806,-41.229 1.470102,-17.00462 2.883803,-22.16537 6.251385,-22.8209 5.44816,-1.06056 11.162934,12.1164 10.007223,23.07431 -0.669742,6.35 0.319987,8.13516 4.877185,8.79688 6.818113,0.99004 8.119018,-3.88837 10.609644,-39.78681 1.72246,-24.82648 -0.6688,-44.66223 -5.51213,-45.72382 -1.487056,-0.32594 -3.101537,3.12089 -3.587722,7.65961 -0.486186,4.53873 -2.007036,9.42817 -3.379668,10.86544 -1.372631,1.43726 -2.495682,5.8873 -2.495682,9.88894 0,8.77303 -8.828502,17.74478 -15.065369,15.30984 -3.539458,-1.3818 -4.067902,-3.84622 -2.578523,-12.02426 1.030338,-5.65743 2.988356,-10.69886 4.351146,-11.20315 1.36279,-0.50432 2.47781,-18.0704 2.47781,-39.03576 0,-20.96535 1.018389,-38.75919 2.263106,-39.54183 1.244719,-0.78265 4.768684,0.3625 7.831069,2.54474 4.457214,3.17625 5.604327,7.06614 5.750301,19.49946 0.202511,17.24692 0.946037,18.98687 7.088976,16.58863 3.543866,-1.38357 3.981916,-5.16754 2.666456,-23.03344 -1.177107,-15.98661 -0.62478,-22.68556 2.19007,-26.56303 3.64826,-5.0255 3.94434,-4.98833 9.61697,1.20636 5.25294,5.73643 5.8528,9.43941 5.8528,36.13097 0,16.35671 0.99591,29.73949 2.21317,29.73949 1.90094,0 19.88171,-23.23592 32.93537,-42.56118 5.72583,-8.47679 16.90821,-21.43478 22.15354,-25.67122 3.86385,-3.12067 6.8592,-1.18742 22.91455,14.78931 10.1583,10.10857 22.72805,21.62274 27.93273,25.58703 10.69709,8.14773 24.35456,22.03925 24.29221,24.70854 -0.10842,4.63496 -5.49649,9.83895 -7.39387,7.14111 -1.11529,-1.58582 -6.28618,-5.89584 -11.49087,-9.57788 -10.77628,-7.62362 -19.79822,-15.28992 -38.62044,-32.81727 l -13.17591,-12.2695 -8.22552,9.51876 c -4.52405,5.23533 -11.41733,13.85117 -15.31838,19.14635 -3.90109,5.29518 -7.73958,10.24653 -8.52999,11.00298 -0.79041,0.75645 -5.53767,6.73324 -10.54951,13.28175 -6.44627,8.4228 -10.57887,11.51616 -14.12474,10.5728 -3.68514,-0.98044 -5.08983,0.23711 -5.30502,4.5981 -0.93652,18.98078 -5.25449,84.97886 -6.32709,96.70616 -1.64544,17.99079 -7.4798,49.92223 -13.193308,72.20703 -2.112183,8.2383 -4.419898,11.6906 -7.814544,11.6906 -2.856415,0 -4.81719,-2.0383 -4.81719,-5.0078 z m 100.038162,-21.6147 c -12.49741,-5.1441 -18.67661,-12.44285 -20.39305,-24.08785 -2.57631,-17.47885 0.36701,-26.79243 11.26225,-35.63709 13.35203,-10.83908 33.2301,-11.41723 43.21675,-1.25696 12.2132,12.42556 14.15121,45.45898 3.29317,56.1327 -3.9989,3.931 -31.07588,7.4438 -37.37912,4.8492 z m 23.732,-16.16994 c 4.69887,-3.34846 6.00907,-6.98648 6.00907,-16.6853 0,-6.82179 -1.25947,-14.79751 -2.79884,-17.72386 -5.6308,-10.70417 -33.78,-3.50365 -35.5374,9.09041 -1.79298,12.84894 0.95877,23.47237 6.82855,26.36213 8.58016,4.22412 18.68708,3.81055 25.49862,-1.04338 z M 163.32979,842.05425 c -9.97652,-2.20613 -12.20988,-9.99206 -3.5436,-12.3537 3.41787,-0.9314 15.57178,-1.71036 27.00868,-1.73102 21.21266,-0.0382 27.66204,2.92374 20.75749,9.53345 -4.37335,4.18662 -32.69185,7.10107 -44.22257,4.55127 z"
       id="path3172"
       inkscape:connector-curvature="0" />
  </g>
</svg>
