<?xml version="1.0" encoding="UTF-8" standalone="no"?>
<!-- Created with Inkscape (http://www.inkscape.org/) -->

<svg
   xmlns:dc="http://purl.org/dc/elements/1.1/"
   xmlns:cc="http://creativecommons.org/ns#"
   xmlns:rdf="http://www.w3.org/1999/02/22-rdf-syntax-ns#"
   xmlns:svg="http://www.w3.org/2000/svg"
   xmlns="http://www.w3.org/2000/svg"
   xmlns:sodipodi="http://sodipodi.sourceforge.net/DTD/sodipodi-0.dtd"
   xmlns:inkscape="http://www.inkscape.org/namespaces/inkscape"
   width="300"
   height="300"
   id="svg2"
   version="1.1"
   inkscape:version="0.48.4 r9939"
   sodipodi:docname="image-seal.svg">
  <defs
     id="defs4" />
  <sodipodi:namedview
     id="base"
     pagecolor="#ffffff"
     bordercolor="#666666"
     borderopacity="1.0"
     inkscape:pageopacity="0.0"
     inkscape:pageshadow="2"
     inkscape:zoom="1.979899"
     inkscape:cx="130.93154"
     inkscape:cy="137.35134"
     inkscape:document-units="px"
     inkscape:current-layer="layer1"
     showgrid="false"
     inkscape:window-width="1215"
     inkscape:window-height="1000"
     inkscape:window-x="65"
     inkscape:window-y="24"
     inkscape:window-maximized="1"
     fit-margin-top="10"
     fit-margin-left="10"
     fit-margin-right="10"
     fit-margin-bottom="10" />
  <metadata
     id="metadata7">
    <rdf:RDF>
      <cc:Work
         rdf:about="">
        <dc:format>image/svg+xml</dc:format>
        <dc:type
           rdf:resource="http://purl.org/dc/dcmitype/StillImage" />
        <dc:title />
      </cc:Work>
    </rdf:RDF>
  </metadata>
  <g
     inkscape:label="Calque 1"
     inkscape:groupmode="layer"
     id="layer1"
     transform="translate(0,-752.36218)">
    <path
       style="fill:#000000"
       d="m 82.398142,1040.4152 c -1.312012,-3.419 7.350479,-34.4598 11.206875,-40.1582 1.709919,-2.52664 4.22979,-22.84949 6.128561,-49.42725 l 1.156462,-16.18724 -7.855262,0.75437 c -7.120249,0.68376 -8.115072,1.75407 -10.632028,11.43864 -1.527242,5.87637 -2.927152,10.6843 -3.11091,10.6843 -0.183773,0 -0.848259,5.22806 -1.476663,11.61789 -0.628404,6.38985 -2.166681,13.53153 -3.41838,15.87037 -1.25173,2.33885 -2.275863,6.99376 -2.275863,10.34427 0,4.50894 -1.233847,6.09185 -4.748573,6.09185 -7.045015,0 -6.681057,-3.46006 5.091811,-48.4049 2.355767,-8.99358 3.883934,-17.00681 3.395872,-17.80715 -2.111933,-3.46343 -3.853355,-47.75382 -1.877596,-47.75382 5.475141,0 9.412821,9.06575 9.779554,22.51548 0.442028,16.21111 2.216428,19.05555 10.578032,16.95691 5.767896,-1.44766 5.969476,-2.18855 6.703106,-24.63747 0.41603,-12.72972 0.39036,-34.15495 -0.057,-47.6116 l -0.81343,-24.46668 -8.683713,0.7238 -8.683729,0.72378 -1.503308,15.43287 c -0.826833,8.48809 -2.813032,18.93946 -4.413752,23.22529 -2.424215,6.49059 -3.495353,7.307 -6.411564,4.88673 -2.616641,-2.17162 -3.154138,-5.93963 -2.127606,-14.91528 0.755423,-6.60526 2.036432,-29.90579 2.846698,-51.77891 0.81025,-21.87314 2.393682,-39.76933 3.51877,-39.76933 1.125055,0 3.821036,2.70969 5.991071,6.02157 3.188729,4.86663 3.705004,9.87587 2.691748,26.11717 l -1.253721,20.09559 9.234408,0 9.234418,0 0.16787,-16.02644 c 0.0923,-8.81455 0.20561,-21.63571 0.25181,-28.49146 0.0672,-9.96335 0.86731,-12.45773 3.98715,-12.42866 11.14808,0.10376 11.50499,6.73328 6.32545,117.49091 -0.61069,13.05859 -1.72912,38.7009 -2.4854,56.98292 -1.9104,46.18097 -6.64934,76.84238 -14.104814,91.25968 -2.001606,3.8706 -3.639238,8.6932 -3.639238,10.7168 0,4.8269 -6.857746,4.7586 -8.717113,-0.087 z M 148.7778,1022.553 c -10.87649,-3.1441 -19.76435,-15.8288 -20.90745,-29.8391 -3.36054,-41.18761 -1.45695,-60.53597 6.91437,-70.2783 4.9769,-5.79195 7.22265,-6.39504 27.76487,-7.45618 12.29253,-0.635 28.2264,-0.40482 35.40862,0.51149 12.25867,1.56397 13.34837,2.24778 17.78895,11.16317 4.03243,8.09587 4.70282,14.05476 4.54366,40.38638 -0.22058,36.49684 -1.2943,39.56464 -18.4978,52.85504 -5.86251,4.5291 -9.62586,5.2607 -26.11717,5.0774 -10.59723,-0.1177 -22.70135,-1.2067 -26.89805,-2.4199 z m 37.31809,-10.3027 c 11.97373,-3.5927 17.78584,-8.4997 20.95264,-17.68973 3.36495,-9.76496 3.65503,-38.67197 0.48917,-48.74362 -1.26055,-4.01028 -2.88354,-10.22962 -3.60665,-13.82072 l -1.31472,-6.52929 -25.47836,0.0125 c -22.83555,0.0125 -26.16896,0.5647 -32.13591,5.34215 -6.45522,5.16837 -6.6836,6.12744 -7.5153,31.55833 -1.12312,34.34132 0.38795,41.14774 10.67389,48.07944 8.85249,5.9657 21.96053,6.5848 37.93524,1.7916 z m -25.02158,-22.56249 c -7.21669,-2.92521 -9.837,-7.27716 -11.55928,-19.19826 -1.1103,-7.68499 -0.47244,-12.94617 2.22512,-18.35354 4.26918,-8.55782 6.11733,-10.04118 17.46788,-14.02017 9.15236,-3.2084 15.97374,-0.20016 22.6495,9.98828 4.46726,6.8179 4.94659,27.21448 0.75853,32.27734 -8.18214,9.89125 -20.86607,13.63362 -31.54175,9.30635 z m 16.27922,-10.77555 c 7.57452,-3.16486 8.38254,-4.35322 7.66832,-11.27788 -1.57227,-15.24411 -3.64025,-18.42457 -11.97987,-18.42457 -8.92737,0 -11.86249,2.84279 -14.1952,13.74865 -1.17369,5.48713 -0.5322,9.5512 2.15485,13.65215 4.48563,6.84593 5.22634,6.95019 16.3519,2.30165 z M 119.60671,907.3447 c 0,-3.81058 8.4574,-12.74351 12.06513,-12.74351 1.01277,0 3.25327,-1.35129 4.97885,-3.00285 1.72561,-1.65157 8.2125,-5.65635 14.41534,-8.89951 10.40244,-5.43895 11.27786,-6.58808 11.27786,-14.8043 0,-7.27896 -0.85505,-8.90767 -4.67635,-8.90767 -4.99242,0 -19.97811,7.62771 -26.69456,13.58748 -4.47644,3.97217 -11.36627,2.58483 -11.36627,-2.28874 0,-1.70282 4.00661,-5.16396 8.90358,-7.69143 4.89697,-2.52746 11.57464,-6.35412 14.83929,-8.50369 3.26466,-2.14956 8.8739,-4.61867 12.46502,-5.48691 l 6.52929,-1.5786 0,-23.30193 c 0,-12.81608 -0.6747,-23.97664 -1.49931,-24.80128 -1.45688,-1.45688 -8.67226,1.58499 -13.784,5.81109 -8.05146,6.65645 -20.97038,13.7762 -22.86856,12.60309 -4.79658,-2.96447 0.35681,-12.11581 8.79406,-15.61638 1.19671,-0.49651 8.26148,-4.64226 15.69948,-9.21276 10.5222,-6.46569 13.54579,-9.62738 13.62341,-14.24574 0.15954,-9.49188 2.7938,-16.88619 5.67937,-15.94184 1.46607,0.47979 4.02917,4.96705 5.69579,9.97168 3.58667,10.77024 5.4403,12.32127 30.20981,25.2784 17.95964,9.39484 22.43472,12.75316 22.51939,16.89966 0.0987,4.84181 -11.69931,0.58375 -27.95924,-10.09072 -25.26865,-16.58861 -26.0917,-16.34363 -27.03218,8.04629 -0.42241,10.95478 -0.46313,21.37197 -0.0904,23.14932 0.37264,1.77736 12.39248,9.00775 26.71073,16.06756 24.46882,12.06466 30.56743,17.62601 22.65734,20.66139 -3.81237,1.46293 -11.81798,-2.30513 -18.8844,-8.88851 -2.61373,-2.43509 -6.62459,-4.42743 -8.91301,-4.42743 -2.28843,0 -4.82108,-1.06843 -5.62814,-2.37428 -0.80707,-1.30587 -4.60964,-2.37429 -8.45015,-2.37429 -6.07649,0 -6.98273,0.86885 -6.98273,6.6947 0,6.41301 8.85312,17.04817 14.19157,17.04817 1.25621,0 6.3231,2.24364 11.2598,4.98584 4.93669,2.74222 12.98242,7.2127 17.87938,9.93437 5.203,2.89176 8.90358,6.74046 8.90358,9.25989 0,5.70963 -5.01148,5.44251 -15.95421,-0.85038 -26.94885,-15.49762 -33.30312,-18.49897 -39.24799,-18.53812 -3.5911,-0.0237 -6.52929,1.02542 -6.52929,2.33127 0,1.30587 -1.16093,2.3743 -2.57982,2.3743 -1.41892,0 -10.30755,5.34214 -19.75249,11.87143 -18.90141,13.06654 -20.40487,13.65561 -20.40487,7.99494 z m 1.58286,-64.18643 c -2.65576,-2.65574 -1.88079,-4.23834 6.24921,-12.76178 13.99799,-14.67544 15.36856,-15.37352 20.70392,-10.54507 2.58722,2.34138 4.70405,5.69413 4.70405,7.45054 0,1.75638 1.06842,3.19345 2.37427,3.19345 3.42385,0 2.92791,6.52515 -0.59356,7.80995 -1.63233,0.59555 -5.30133,-1.0381 -8.15338,-3.6303 l -5.18552,-4.71311 -7.87307,7.3786 c -8.25924,7.74054 -9.64412,8.39954 -12.22592,5.81772 z m 82.94991,-10.47356 c -8.11669,-8.18818 -11.08763,-8.57383 -16.86556,-2.1893 -2.36359,2.61172 -5.73446,4.74857 -7.49086,4.74857 -5.62169,0 -3.4326,-7.18634 4.86971,-15.98639 l 8.06318,-8.5465 10.33756,8.0773 c 15.12199,11.81562 16.87639,13.83359 15.39128,17.70376 -1.99354,5.19506 -6.59559,3.97021 -14.30531,-3.80744 z"
       id="path3015"
       inkscape:connector-curvature="0" />
  </g>
</svg>
