<?xml version="1.0" encoding="UTF-8" standalone="no"?>
<!-- Created with Inkscape (http://www.inkscape.org/) -->

<svg
   xmlns:dc="http://purl.org/dc/elements/1.1/"
   xmlns:cc="http://creativecommons.org/ns#"
   xmlns:rdf="http://www.w3.org/1999/02/22-rdf-syntax-ns#"
   xmlns:svg="http://www.w3.org/2000/svg"
   xmlns="http://www.w3.org/2000/svg"
   xmlns:sodipodi="http://sodipodi.sourceforge.net/DTD/sodipodi-0.dtd"
   xmlns:inkscape="http://www.inkscape.org/namespaces/inkscape"
   width="300"
   height="300"
   id="svg2"
   version="1.1"
   inkscape:version="0.48.4 r9939"
   sodipodi:docname="image-seal.svg">
  <defs
     id="defs4" />
  <sodipodi:namedview
     id="base"
     pagecolor="#ffffff"
     bordercolor="#666666"
     borderopacity="1.0"
     inkscape:pageopacity="0.0"
     inkscape:pageshadow="2"
     inkscape:zoom="1.979899"
     inkscape:cx="93.377566"
     inkscape:cy="122.32215"
     inkscape:document-units="px"
     inkscape:current-layer="layer1"
     showgrid="false"
     inkscape:window-width="1215"
     inkscape:window-height="1000"
     inkscape:window-x="65"
     inkscape:window-y="24"
     inkscape:window-maximized="1"
     fit-margin-top="10"
     fit-margin-left="10"
     fit-margin-right="10"
     fit-margin-bottom="10" />
  <metadata
     id="metadata7">
    <rdf:RDF>
      <cc:Work
         rdf:about="">
        <dc:format>image/svg+xml</dc:format>
        <dc:type
           rdf:resource="http://purl.org/dc/dcmitype/StillImage" />
        <dc:title />
      </cc:Work>
    </rdf:RDF>
  </metadata>
  <g
     inkscape:label="Calque 1"
     inkscape:groupmode="layer"
     id="layer1"
     transform="translate(0,-752.36218)">
    <path
       style="fill:#000000"
       d="m 210.26039,1039.2274 c -6.41883,-4.7084 -10.84709,-19.6676 -14.41409,-48.69272 -2.98848,-24.31741 -5.24218,-34.88406 -7.77394,-36.44877 -1.15494,-0.71378 -6.21775,1.13181 -11.25075,4.10135 -22.56473,13.31353 -49.73171,19.25321 -52.69853,11.52181 -2.07423,-5.40536 3.68819,-11.66268 10.74024,-11.66268 9.58564,0 33.22064,-10.69968 42.26314,-19.13272 6.66883,-6.21933 8.44696,-9.95876 8.44696,-17.76403 0,-5.43753 -1.16958,-9.8864 -2.59906,-9.8864 -1.42949,0 -2.59907,-2.21404 -2.59907,-4.92005 0,-5.68288 -4.81817,-8.05882 -16.4567,-8.11506 -4.52893,-0.0208 -9.98877,-1.21371 -12.133,-2.64848 -6.01293,-4.0234 3.86896,-10.30704 16.2093,-10.30704 11.16246,0 20.7138,7.49241 26.20753,20.55814 2.66164,6.33018 3.84503,7.04347 7.38768,4.45301 4.82748,-3.52995 9.93812,-19.8686 9.95948,-31.84036 0.0234,-12.89868 -4.58659,-14.75927 -35.34077,-14.26472 -25.00812,0.40212 -27.35302,0.0333 -26.55492,-4.17712 0.61712,-3.25563 3.74163,-4.85601 10.58999,-5.42424 11.93799,-0.99053 12.35702,-2.30321 13.47641,-42.21904 1.22623,-43.72595 0.86951,-41.44449 6.47986,-41.44449 5.56463,0 8.59857,6.76698 7.88766,17.59277 -1.30832,19.92342 -1.50458,19.70073 15.77218,17.89495 12.94622,-1.35315 15.96452,-0.91783 17.27265,2.49113 2.28042,5.94268 -3.74871,8.71897 -19.0333,8.76451 -14.88216,0.0444 -15.88907,1.48923 -15.40934,22.11205 l 0.24145,10.37648 14.21551,2.26277 c 18.46947,2.93988 23.109,8.16416 21.70751,24.44336 -1.84688,21.45229 -6.88073,40.59774 -13.24486,50.37457 -5.4087,8.30904 -5.94465,11.32565 -4.38686,24.6911 0.97605,8.37411 2.80217,17.93331 4.05803,21.24272 1.25587,3.30939 2.28339,11.55492 2.28339,18.3234 0,6.7685 1.13017,13.4364 2.51149,14.8178 1.38133,1.3813 2.80647,6.3824 3.16697,11.1136 0.36051,4.7313 1.52538,9.1399 2.58861,9.797 2.07694,1.2836 -2.88467,14.0309 -5.43543,13.9647 -0.84266,-0.02 -2.70353,-0.8991 -4.13531,-1.9493 z M 98.212645,1024.0838 c -1.632586,-6.5047 -0.15449,-38.49596 3.196265,-69.17864 0.89117,-8.16034 0.79063,-21.47752 -0.22341,-29.5937 l -1.843725,-14.7567 -16.582285,1.54847 c -12.988377,1.21288 -17.449834,0.68093 -20.585129,-2.45434 -6.521935,-6.52194 -2.128469,-8.78191 17.072411,-8.78191 20.400663,0 20.204863,0.19103 21.188598,-20.68062 l 0.66848,-14.18294 -11.695783,-6.47782 c -6.432684,-3.56278 -13.22181,-7.97957 -15.086944,-9.81506 -4.024284,-3.96032 -4.739448,-49.61373 -0.838316,-53.51485 5.292554,-5.29257 8.128069,1.60666 8.128069,19.7768 0,20.20915 4.279973,30.31416 12.839564,30.31416 6.62847,0 7.8766,-6.87578 7.91745,-43.61591 0.0299,-26.84866 0.69657,-32.17377 4.19639,-33.51678 7.30372,-2.8027 8.85722,4.84016 8.27829,40.72731 -0.4934,30.58606 -0.026,35.17284 3.65741,35.88219 2.32273,0.44729 6.66868,-1.81169 9.65765,-5.01997 4.60951,-4.94773 5.43452,-9.11263 5.43452,-27.43522 0,-19.61817 0.46128,-21.60197 5.02298,-21.60197 6.98302,0 8.57998,7.19192 6.72559,30.28892 -2.13011,26.53119 -5.75824,33.22552 -21.49506,39.66112 -5.78205,2.36458 -8.45598,5.19984 -8.47556,8.98696 -0.0158,3.04291 -0.75355,9.9185 -1.6396,15.27906 l -1.611,9.74649 13.98515,0.0826 c 12.08745,0.0715 26.46788,5.49588 22.89214,8.63516 -4.44074,3.89867 -12.86825,6.37353 -17.5418,5.15137 -3.06715,-0.80208 -8.41345,-0.74632 -11.88065,0.12398 l -6.30404,1.5822 -0.31285,56.36629 c -0.20255,36.49295 -1.31408,57.57265 -3.15264,59.78805 -4.53861,5.4686 -9.7626,3.975 -11.592165,-3.3146 z"
       id="path3054"
       inkscape:connector-curvature="0" />
  </g>
</svg>
