<?xml version="1.0" encoding="UTF-8" standalone="no"?>
<!-- Created with Inkscape (http://www.inkscape.org/) -->

<svg
   xmlns:dc="http://purl.org/dc/elements/1.1/"
   xmlns:cc="http://creativecommons.org/ns#"
   xmlns:rdf="http://www.w3.org/1999/02/22-rdf-syntax-ns#"
   xmlns:svg="http://www.w3.org/2000/svg"
   xmlns="http://www.w3.org/2000/svg"
   xmlns:sodipodi="http://sodipodi.sourceforge.net/DTD/sodipodi-0.dtd"
   xmlns:inkscape="http://www.inkscape.org/namespaces/inkscape"
   width="300"
   height="300"
   id="svg2"
   version="1.1"
   inkscape:version="0.48.4 r9939"
   sodipodi:docname="image-seal.svg">
  <defs
     id="defs4" />
  <sodipodi:namedview
     id="base"
     pagecolor="#ffffff"
     bordercolor="#666666"
     borderopacity="1.0"
     inkscape:pageopacity="0.0"
     inkscape:pageshadow="2"
     inkscape:zoom="1.979899"
     inkscape:cx="200.43343"
     inkscape:cy="172.47673"
     inkscape:document-units="px"
     inkscape:current-layer="layer1"
     showgrid="false"
     inkscape:window-width="1215"
     inkscape:window-height="1000"
     inkscape:window-x="65"
     inkscape:window-y="24"
     inkscape:window-maximized="1" />
  <metadata
     id="metadata7">
    <rdf:RDF>
      <cc:Work
         rdf:about="">
        <dc:format>image/svg+xml</dc:format>
        <dc:type
           rdf:resource="http://purl.org/dc/dcmitype/StillImage" />
        <dc:title />
      </cc:Work>
    </rdf:RDF>
  </metadata>
  <g
     inkscape:label="Calque 1"
     inkscape:groupmode="layer"
     id="layer1"
     transform="translate(0,-752.36218)">
    <path
       style="fill:#000000"
       d="m 183.4343,1040.5029 c -1.95067,-1.9507 -1.99657,-20.9592 -0.0737,-30.573 1.39942,-6.9972 6.18193,-12.51338 23.79587,-27.44641 10.55036,-8.94453 13.85101,-23.07735 11.18997,-47.91368 -2.62827,-24.53054 -4.6004,-26.29692 -29.62377,-26.53305 -20.47731,-0.19326 -32.49783,3.55147 -36.5033,11.37169 -3.91129,7.63639 -4.99255,24.16101 -2.48555,37.98628 2.56901,14.16718 7.10579,20.70126 16.42778,23.65996 2.96938,0.94244 4.23149,3.09741 3.75454,6.41063 -1.81893,12.63548 -24.73081,-1.79572 -29.36889,-18.49824 -3.10055,-11.16568 -3.22098,-48.42022 -0.1626,-50.3104 1.26844,-0.78394 2.30624,-2.99493 2.30624,-4.91331 0,-7.97934 15.19307,-14.30316 36.70388,-15.27728 l 12.4884,-0.56554 0.40287,-11.72994 c 0.49263,-14.34373 1.44792,-15.98376 12.63451,-21.69073 11.07679,-5.65095 16.1824,-15.55771 16.1824,-31.39978 0,-25.59126 -12.66834,-39.14902 -31.79346,-34.02565 -5.06772,1.35759 -5.24623,2.22649 -4.61247,22.45433 0.52652,16.80481 1.35095,21.04208 4.09413,21.04208 2.48827,0 4.07717,-4.40916 5.76559,-15.9992 2.28084,-15.65685 2.42332,-15.90618 6.65757,-11.65207 3.68274,3.69999 4.12032,6.59672 2.93951,19.45856 -1.45692,15.86899 -6.33277,23.18326 -15.45446,23.18326 -3.20913,0 -4.38894,2.06819 -4.93355,8.64839 -0.94637,11.43459 -7.31375,12.01276 -8.38635,0.7615 -0.47814,-5.01516 -3.12595,-10.10458 -7.27194,-13.97751 -7.55012,-7.05287 -12.29369,-20.75487 -11.1933,-32.33217 1.22798,-12.9196 7.39262,-10.56167 9.04433,3.45935 2.97426,25.24827 9.01967,26.52928 9.01967,1.91126 0,-13.3889 0.95001,-18.74148 3.90612,-22.00792 3.77556,-4.17199 3.56363,-4.26383 -6.34216,-2.74821 -21.8322,3.34035 -25.0708,7.7096 -25.16547,33.95111 -0.0855,23.69283 3.4109,32.66614 14.34064,36.80484 3.89997,1.47677 5.85807,10.89796 2.26503,10.89796 -1.33866,0 -14.75911,-8.21718 -20.78724,-12.72779 -4.31958,-3.23218 -6.45263,-52.27889 -2.67067,-61.40931 3.17889,-7.67451 11.09243,-13.84068 23.38506,-18.22136 7.43094,-2.64815 8.62363,-4.10492 9.22493,-11.2677 0.95383,-11.36131 8.26014,-11.46772 11.91917,-0.17367 2.38385,7.35807 3.60361,8.2114 14.14007,9.89213 12.15787,1.93936 23.18597,9.60689 28.92106,20.10805 2.01465,3.68889 3.18797,13.73963 3.25754,27.90414 l 0.10867,22.13857 -8.41776,8.41909 c -5.16724,5.16804 -10.62934,8.41907 -14.14501,8.41907 -5.87359,0 -8.4726,4.68187 -8.53995,15.38384 -0.0238,3.76284 1.7938,5.4067 7.31936,6.62032 13.70938,3.01108 19.628,13.73605 21.67775,39.28162 2.43058,30.29197 -2.65628,41.77191 -27.50638,62.07592 -8.15824,6.66577 -8.44092,7.40327 -8.44092,22.02457 0,16.4026 -4.3643,24.7547 -9.99368,19.1253 z m -84.08539,-26.2312 c -1.616511,-2.5885 -2.250126,-5.8211 -1.408004,-7.1837 1.957373,-3.1671 1.693677,-82.67248 -0.280738,-84.64565 -0.814216,-0.8137 -6.323056,-1.36192 -12.241874,-1.21832 -9.626486,0.23358 -14.080544,-1.78763 -14.185547,-6.43731 -0.01846,-0.86006 5.755029,-2.28718 12.832132,-3.17141 7.07708,-0.88422 13.231181,-2.77506 13.675755,-4.20187 0.444573,-1.4268 1.285311,-9.13167 1.868328,-17.12193 0.979938,-13.43067 0.634928,-14.80627 -4.568702,-18.21581 -11.33896,-7.42959 -15.770994,-24.47622 -15.770994,-60.65904 0,-15.8874 0.655686,-19.603 3.459357,-19.603 2.634505,0 3.816083,4.12429 4.955479,17.29677 4.039028,46.69578 5.558009,53.36876 10.374399,45.57569 0.970558,-1.57041 1.491583,-21.80767 1.157801,-44.97162 -0.593141,-41.16443 -0.499646,-42.11634 4.137038,-42.11634 4.40665,0 4.76218,1.43453 5.00113,20.17958 0.14137,11.09876 0.56505,24.3308 0.94124,29.40452 0.37622,5.07372 0.77935,16.23014 0.89588,24.79204 0.11646,8.56191 1.13615,15.56711 2.26579,15.56711 2.90729,0 4.80189,-13.36096 6.01515,-42.41973 0.5769,-13.81761 1.44336,-25.51736 1.92542,-25.99945 0.4821,-0.48207 2.58178,-0.2221 4.66596,0.57764 3.24138,1.24382 3.78945,5.7139 3.78945,30.90683 0,31.68245 -2.31791,41.34918 -12.31088,51.34216 -3.60979,3.60979 -5.85343,9.13696 -6.6778,16.45062 -1.94446,17.25129 -0.62697,19.53943 11.71114,20.33908 8.01572,0.51949 10.88742,1.70434 11.46182,4.72909 0.61616,3.24477 -0.87878,4.03591 -7.62616,4.03591 -17.17583,0 -17.01297,-0.44694 -17.20328,47.21138 -0.14252,35.70176 -1.94342,54.26306 -5.26472,54.26306 -0.36049,0 -1.97806,-2.1178 -3.59457,-4.7063 z m 81.77916,-24.50605 c -0.84562,-0.8456 -1.5375,-5.96248 -1.5375,-11.37078 0,-8.44165 -0.73438,-9.93759 -5.18903,-10.57026 -7.71626,-1.09588 -13.253,-14.10888 -13.25728,-31.15848 -0.002,-13.61556 2.5053,-19.81954 5.83555,-14.43111 0.84995,1.37526 2.09745,8.91627 2.77222,16.75784 1.18782,13.804 3.615,20.02297 7.81469,20.02297 1.11311,0 2.02385,-10.37807 2.02385,-23.06237 0,-18.03058 0.69188,-23.06237 3.17107,-23.06237 3.9603,0 6.05389,10.06917 6.05389,29.11624 0,11.37425 0.76469,14.70226 3.37821,14.70226 5.01137,0 8.98496,-9.00847 9.15546,-20.75613 0.0829,-5.70793 1.11376,-10.89697 2.29093,-11.53118 3.60656,-1.94308 5.77973,11.41428 4.0818,25.089 -1.50117,12.09043 -2.19235,13.24864 -10.25803,17.18977 -6.96716,3.40434 -8.64837,5.49723 -8.64837,10.766 0,11.02933 -3.44514,16.54094 -7.68746,12.2986 z"
       id="path3039"
       inkscape:connector-curvature="0" />
  </g>
</svg>
