<?xml version="1.0" encoding="UTF-8" standalone="no"?>
<svg
   xmlns:dc="http://purl.org/dc/elements/1.1/"
   xmlns:cc="http://creativecommons.org/ns#"
   xmlns:rdf="http://www.w3.org/1999/02/22-rdf-syntax-ns#"
   xmlns:svg="http://www.w3.org/2000/svg"
   xmlns="http://www.w3.org/2000/svg"
   viewBox="0 0 300 300"
   height="300"
   width="300"
   id="svg52"
   version="1.1">
  <metadata
     id="metadata58">
    <rdf:RDF>
      <cc:Work
         rdf:about="">
        <dc:format>image/svg+xml</dc:format>
        <dc:type
           rdf:resource="http://purl.org/dc/dcmitype/StillImage" />
        <dc:title></dc:title>
      </cc:Work>
    </rdf:RDF>
  </metadata>
  <defs
     id="defs56" />
  <path
     id="path62"
     d="m 95.454113,281.37763 c -1.147607,-3.38931 -1.213386,-7.89198 -1.022415,-69.98749 l 0.204107,-66.36511 -2.993119,-0.80597 c -2.085912,-0.56168 -6.292492,-0.65588 -13.878606,-0.31079 -11.945241,0.54339 -14.250439,0.12279 -15.603569,-2.84702 -1.035124,-2.27185 -0.991231,-5.57258 0.08302,-6.24048 0.474363,-0.29493 7.462802,-0.71935 15.529879,-0.94315 8.067087,-0.22379 14.942017,-0.69941 15.277633,-1.05691 0.335625,-0.35751 0.72128,-4.64459 0.857015,-9.52686 l 0.246785,-8.87683 -4.594382,-1.55325 C 75.324705,108.05099 70.659995,102.57558 67.212927,86.632381 66.340932,82.599303 66.010094,77.767474 65.984619,68.693047 65.950609,56.601459 66.5113,51.360895 68.650518,43.773328 c 0.96588,-3.425877 1.082134,-3.542159 3.921992,-3.923064 1.60964,-0.215895 3.016988,-0.302162 3.127458,-0.191693 0.110469,0.11046 0.707525,2.341569 1.326799,4.958019 0.890688,3.763173 1.139933,8.793913 1.19285,24.076457 0.06449,18.634473 0.123225,19.441573 1.655794,22.769158 2.562317,5.563415 6.364074,8.834725 11.661679,10.034575 2.193826,0.49688 2.216575,0.47465 2.759898,-2.69686 0.544092,-3.17604 0.575437,-17.994969 0.103839,-49.081161 -0.23001,-15.161635 -0.141454,-16.628787 1.363949,-22.596663 1.224917,-4.855955 1.88494,-6.381647 2.759898,-6.37968 1.922566,0.0047 5.627996,2.64959 6.341976,4.527482 0.40656,1.069339 0.67277,16.348748 0.67277,38.613974 0,35.243588 0.0559,36.874338 1.28625,37.532808 0.96262,0.51518 2.03837,0.30429 4.27552,-0.8382 3.40421,-1.73847 6.6248,-6.03136 9.04468,-12.056116 1.53488,-3.821343 1.59084,-4.674445 1.59923,-24.380119 0.007,-16.600823 0.19169,-20.640768 0.98693,-21.599372 1.16076,-1.399179 2.50882,-2.137148 4.98149,-2.726975 1.67925,-0.400568 1.92992,-0.154714 3.24421,3.181932 2.05226,5.21015 2.7636,8.416115 3.25181,14.655633 0.66961,8.557777 -2.06385,28.593881 -5.52549,40.501507 -0.98918,3.40265 -1.52606,4.02617 -7.17804,8.33654 -4.25279,3.2433 -7.55404,5.14596 -10.86524,6.26213 l -4.75636,1.60332 -0.19468,8.50745 c -0.14512,6.34172 0.0305,8.65034 0.68997,9.06878 0.48656,0.30875 5.45807,0.56611 11.04781,0.57192 11.5634,0.012 15.05858,0.88761 16.77235,4.20167 1.58848,3.07177 1.24466,3.81705 -2.50521,5.43019 -3.45197,1.485 -8.24582,1.93904 -21.82991,2.06759 l -4.29936,0.0407 -0.18547,68.92518 c -0.17942,66.67117 -0.22847,68.97266 -1.49987,70.37738 -0.94474,1.0438 -2.14191,1.4522 -4.256886,1.4522 -2.933951,0 -2.946062,-0.0104 -4.169013,-3.62237 z m 89.187317,-4.31092 c -0.56845,-0.56846 -1.96084,-3.44048 -3.0942,-6.38226 -4.48346,-11.63753 -7.90023,-26.29364 -9.22968,-39.59051 l -0.80454,-8.04678 2.70649,-8.63874 2.7065,-8.63874 5.97445,-5.328 c 5.79508,-5.16803 6.27191,-5.43555 15.88227,-8.91044 12.0209,-4.3465 13.18785,-4.93849 17.65909,-8.95853 5.12253,-4.60559 6.04574,-7.08621 8.22979,-22.11308 1.71969,-11.83193 1.9064,-14.99225 1.91592,-32.42878 0.01,-17.41252 -0.1366,-19.94233 -1.48018,-25.63187 -2.32624,-9.850643 -3.88032,-12.49859 -8.9491,-15.248182 -8.74684,-4.744793 -20.39408,-6.68832 -37.66053,-6.284286 l -10.51564,0.246072 -10.94755,5.352013 c -14.77197,7.221683 -17.92159,7.560913 -20.17293,2.172701 -0.97869,-2.342338 -0.96148,-2.393849 1.53737,-4.60179 4.70225,-4.154841 11.62574,-8.960967 15.25511,-10.589738 1.98624,-0.891381 7.57504,-2.284681 12.41955,-3.096226 4.84451,-0.811545 8.90457,-1.560884 9.02236,-1.665189 0.4647,-0.4115 -8.89494,-18.275624 -9.57524,-18.275624 -0.3996,0 -4.89448,1.707686 -9.98865,3.794862 -10.93676,4.480986 -14.52268,4.902346 -16.82386,1.976867 -2.94804,-3.747833 -2.44993,-4.262071 10.24081,-10.572345 l 11.67082,-5.803141 -4.42609,-8.832744 c -2.43436,-4.858007 -4.4261,-9.551298 -4.4261,-10.429533 0,-2.977731 2.2839,-3.867146 7.33098,-2.854885 1.77871,0.35675 3.12433,2.456008 13.02327,20.31733 l 11.03958,19.919469 3.37427,-6.690333 c 1.85585,-3.679681 4.52823,-9.795214 5.93862,-13.590075 2.94186,-7.91546 5.99044,-14.173482 9.42321,-19.343605 2.26712,-3.414516 2.51167,-3.579298 4.60977,-3.106104 6.41669,1.447195 6.69605,3.380777 1.8382,12.722838 -1.89743,3.648915 -3.44987,7.039704 -3.44987,7.535087 0,0.495392 5.04543,3.830348 11.21208,7.411024 14.01566,8.138222 16.38962,10.20546 16.89785,14.714572 0.43217,3.834129 -0.18979,4.533419 -4.04657,4.54971 -4.12497,0.01738 -8.1896,-1.860301 -14.74333,-6.810948 -7.6277,-5.761917 -11.48653,-8.357916 -12.42362,-8.357916 -0.56116,0 -4.58257,7.441287 -11.22652,20.773825 -0.29475,0.591471 6.30396,2.360081 16.40002,4.395594 14.35289,2.893734 21.65652,7.432501 25.56016,15.884055 1.53299,3.318979 2.27699,6.876045 3.75222,17.939325 2.29613,17.21947 2.85379,30.38363 1.79755,42.43343 -1.30613,14.9008 -3.25314,22.9311 -8.48788,35.00752 -2.04271,4.71251 -2.49768,5.23113 -8.08097,9.21148 -6.64585,4.73785 -11.71058,7.44671 -17.30097,9.25338 -8.93393,2.88721 -13.8124,6.83592 -16.94721,13.71731 -3.75519,8.24322 -3.79943,7.3754 1.66221,32.60823 4.97398,22.97981 5.62268,27.57402 4.10742,29.08928 -1.19303,1.19303 -7.13372,1.04741 -8.38671,-0.20558 z m -9.33604,-90.90553 c -0.39007,-1.99231 -0.89684,-7.50347 -1.12615,-12.24705 -0.22931,-4.74357 -0.57782,-9.47852 -0.77447,-10.5221 l -0.35754,-1.89743 h -9.84304 -9.84304 l -0.83743,7.07223 c -1.05159,8.88093 -1.85324,11.96429 -3.55234,13.66339 -1.34528,1.34527 -5.09835,1.80988 -6.58757,0.81551 -2.66913,-1.78223 -3.1909,-8.50208 -1.4055,-18.10126 1.45802,-7.83904 3.42712,-46.58567 2.85775,-56.23291 -0.37711,-6.38943 0.16738,-12.94226 1.1431,-13.7572 0.12856,-0.10738 1.49775,-0.38847 3.04264,-0.62466 l 2.80888,-0.4294 1.5066,4.30075 c 0.95888,2.73724 1.75733,7.41632 2.1963,12.8708 0.37935,4.71353 0.76604,8.62908 0.85933,8.70122 0.0933,0.0722 4.09432,0.32141 8.89118,0.55394 l 8.72155,0.42274 0.48602,-3.24098 c 0.26731,-1.78255 0.2651,-7.95471 -0.005,-13.71592 -0.47982,-10.23799 -0.45186,-10.55831 1.23594,-14.162677 0.94977,-2.028265 2.17284,-4.26759 2.71794,-4.976275 0.93355,-1.213709 1.11717,-1.223312 3.16303,-0.165352 3.02006,1.561729 3.59281,2.999634 3.59281,9.019864 0,3.59018 0.27175,5.3265 0.86246,5.51054 0.47436,0.14778 4.34462,0.46451 8.60057,0.70385 l 7.73811,0.43516 0.98542,-2.27796 c 1.48643,-3.43612 2.63225,-4.63364 5.10928,-5.339832 2.14309,-0.610991 2.31453,-0.518597 3.55704,1.916922 2.3029,4.51405 3.05117,10.48798 2.59159,20.69013 -0.23373,5.18856 -0.71134,10.59565 -1.06135,12.01573 -0.4116,1.66999 -0.25143,10.78223 0.45348,25.7979 l 1.08985,23.21593 -1.58516,1.28358 c -0.87184,0.70598 -2.47028,1.2836 -3.55206,1.2836 -1.73409,0 -2.05738,-0.34709 -2.73138,-2.9324 -0.42048,-1.61281 -1.41262,-5.33867 -2.20477,-8.27969 l -1.44027,-5.3473 -6.44651,-0.13416 c -3.54558,-0.0738 -7.4556,-0.15141 -8.68893,-0.1725 l -2.24241,-0.0384 -0.34499,12.3084 -0.34498,12.30842 -1.93591,1.66357 c -1.21819,1.04678 -2.79898,1.66359 -4.2635,1.66359 -2.25776,0 -2.34878,-0.10857 -3.03674,-3.62236 z m -2.14852,-45.02083 v -7.9347 h -8.92789 -8.92789 l -0.21427,7.93605 -0.21426,7.93607 9.14216,-9.5e-4 9.14215,-9.5e-4 z m 28.96552,7.07224 c -0.008,-0.47436 -0.46327,-3.96736 -1.01309,-7.76221 -0.54982,-3.79486 -1.00952,-7.15495 -1.02154,-7.46687 -0.012,-0.31192 -1.72957,-0.38954 -3.81675,-0.1725 -2.08717,0.21705 -5.50254,0.57223 -7.58971,0.78927 l -3.79486,0.39463 v 7.08009 c 0,3.89405 0.20699,7.28709 0.45999,7.54007 0.25298,0.25299 4.13408,0.45999 8.62467,0.45999 6.07893,0 8.16127,-0.22033 8.15129,-0.86247 z m -1.53903,-28.49742 c 1.22973,-0.37884 1.0684,-4.83433 -0.22179,-6.12451 -0.84007,-0.84007 -2.62698,-1.08424 -7.9347,-1.08424 h -6.85046 v 4.11098 4.11098 l 7.07224,-0.37376 c 3.88973,-0.20557 7.46035,-0.49332 7.93471,-0.63945 z"
     style="fill:#000000;stroke-width:0.68997437" />
</svg>
