<?xml version="1.0" encoding="UTF-8" standalone="no"?>
<!-- Created with Inkscape (http://www.inkscape.org/) -->

<svg
   xmlns:dc="http://purl.org/dc/elements/1.1/"
   xmlns:cc="http://creativecommons.org/ns#"
   xmlns:rdf="http://www.w3.org/1999/02/22-rdf-syntax-ns#"
   xmlns:svg="http://www.w3.org/2000/svg"
   xmlns="http://www.w3.org/2000/svg"
   xmlns:sodipodi="http://sodipodi.sourceforge.net/DTD/sodipodi-0.dtd"
   xmlns:inkscape="http://www.inkscape.org/namespaces/inkscape"
   width="300"
   height="300"
   id="svg2"
   version="1.1"
   inkscape:version="0.48.4 r9939"
   sodipodi:docname="dessin.svg">
  <defs
     id="defs4" />
  <sodipodi:namedview
     id="base"
     pagecolor="#ffffff"
     bordercolor="#666666"
     borderopacity="1.0"
     inkscape:pageopacity="0.0"
     inkscape:pageshadow="2"
     inkscape:zoom="1.979899"
     inkscape:cx="156.32962"
     inkscape:cy="101.52144"
     inkscape:document-units="px"
     inkscape:current-layer="layer1"
     showgrid="false"
     inkscape:window-width="1215"
     inkscape:window-height="1000"
     inkscape:window-x="65"
     inkscape:window-y="24"
     inkscape:window-maximized="1" />
  <metadata
     id="metadata7">
    <rdf:RDF>
      <cc:Work
         rdf:about="">
        <dc:format>image/svg+xml</dc:format>
        <dc:type
           rdf:resource="http://purl.org/dc/dcmitype/StillImage" />
        <dc:title />
      </cc:Work>
    </rdf:RDF>
  </metadata>
  <g
     inkscape:label="Calque 1"
     inkscape:groupmode="layer"
     id="layer1"
     transform="translate(0,-752.36218)">
    <path
       style="fill:#000000"
       d="m 89.384907,1032.0918 c -1.454076,-1.694 -3.310947,-6.9608 -4.126376,-11.704 -0.815432,-4.7431 -2.882306,-14.1679 -4.593061,-20.9439 -1.71075,-6.77598 -3.626277,-24.15128 -4.256725,-38.61177 -1.250027,-28.67175 -0.02343,-32.65709 17.551787,-57.02325 11.556328,-16.02171 9.888948,-29.35388 -3.962534,-31.68399 -3.369929,-0.56689 -6.440318,2.13813 -10.269267,9.04729 -3.004117,5.42079 -6.350803,10.22558 -7.437081,10.6773 -1.086276,0.45175 -2.012499,2.11495 -2.058268,3.69599 -0.112971,3.9028 -12.120172,16.42664 -15.748976,16.42664 -3.336046,0 -1.640066,-14.66278 1.967022,-17.00615 8.369938,-5.43751 24.398768,-39.41675 24.398768,-51.72253 0,-4.78656 -1.207426,-5.47137 -8.596464,-4.87573 -19.957237,1.60882 -20.446455,-10.05122 -0.586566,-13.9802 l 13.133128,-2.59818 1.316698,-26.16216 c 0.724185,-14.38916 2.262312,-27.04553 3.418058,-28.12526 3.703162,-3.45957 11.09937,3.15052 10.376167,9.27332 -0.379205,3.21046 -1.423817,13.87598 -2.321359,23.70116 l -1.63189,17.86395 8.122722,0 c 7.14311,0 8.45348,-1.11435 10.86522,-9.23997 1.50836,-5.08199 2.74911,-10.62597 2.75717,-12.31997 0.008,-1.69399 2.50408,-3.08 5.54665,-3.08 5.09286,0 5.3912,0.929 3.75839,11.70398 -2.32906,15.36949 -2.93484,36.68328 -1.34604,47.3587 0.95896,6.44345 0.25255,8.74434 -2.86637,9.33605 -5.46035,1.03594 -10.34473,-9.33549 -10.34473,-21.96589 0,-9.67993 -0.2368,-9.95244 -7.24185,-8.33367 -10.121543,2.33892 -11.122226,3.74155 -12.945432,18.14539 -1.260508,9.95836 -0.813084,12.74996 2.045032,12.75952 8.63089,0.0288 18.14979,10.94864 19.8241,22.74153 1.51154,10.64663 0.96722,12.32525 -6.23066,19.21378 -4.33779,4.1514 -11.140381,13.76504 -15.116855,21.36362 -8.938506,17.08051 -8.379336,28.69536 3.890532,80.8125 6.238043,26.4965 6.276043,28.3359 0.585298,28.3359 -2.877856,0 -6.422163,-1.386 -7.876238,-3.08 z m 24.742763,-24.7049 c -2.72588,-1.865 -3.93071,-4.769 -2.96028,-7.1352 1.44564,-3.525 8.356,-3.9483 59.26435,-3.631 59.01417,0.3678 65.79316,1.4619 62.27121,10.0495 -1.36949,3.3393 -9.18593,3.8617 -57.78115,3.8617 -41.42085,0 -57.40606,-0.827 -60.79413,-3.145 z m 35.04513,-36.57722 c -15.09011,-8.04558 -15.87699,-10.7208 -15.80481,-53.73151 0.0761,-45.30502 3.13351,-62.72838 11.95698,-68.13781 9.29547,-5.69883 68.05492,-4.4859 73.8685,1.52481 5.00502,5.17468 10.48936,61.21787 6.36813,65.07399 -1.37932,1.29059 -2.50786,5.98002 -2.50786,10.42092 0,11.115 -7.79458,15.26302 -31.78729,16.91616 -17.36221,1.19626 -20.29403,0.75797 -26.05069,-3.89452 -7.82412,-6.32339 -10.26597,-20.86587 -7.43137,-44.25757 2.39487,-19.7631 10.02245,-27.90321 23.85035,-25.45296 14.45146,2.56075 15.3442,4.33809 14.52016,28.90728 -0.60273,17.97144 -1.5353,22.41761 -4.70195,22.41761 -4.89287,0 -6.92499,-14.87354 -2.68521,-19.65355 2.02748,-2.28583 2.08328,-3.81162 0.17962,-4.91244 -1.51872,-0.87821 -2.76128,-4.30334 -2.76128,-7.61135 0,-4.99075 -1.2968,-6.01455 -7.61844,-6.01455 -8.72862,0 -10.13778,2.36397 -12.46817,20.91667 -1.10513,8.79798 -0.46,15.6128 1.96285,20.7343 3.46429,7.32292 4.24342,7.62574 19.42496,7.55054 24.7424,-0.12265 25.414,-1.1447 25.21575,-38.37488 -0.0961,-18.03988 -1.32325,-32.59112 -2.87069,-34.03899 -3.20811,-3.00176 -24.47962,-3.81265 -44.71345,-1.70459 -13.67737,1.425 -14.65867,1.98911 -17.6268,10.13298 -4.87216,13.36812 -4.44495,77.27487 0.57735,86.36214 4.43656,8.02748 2.31428,7.65016 45.96544,8.17182 23.19173,0.27713 27.7333,0.96891 28.43833,4.33175 1.20978,5.77041 -4.95372,7.18752 -36.15748,8.31335 -24.27841,0.87595 -28.96058,0.37301 -37.14299,-3.9896 z M 137.17938,819.75644 c -0.92316,-2.25095 -1.2358,-4.47899 -0.69479,-4.95122 1.2294,-1.07308 68.59181,-6.34893 79.70438,-6.2425 10.15603,0.0973 19.6759,6.16818 15.62134,9.9619 -1.64983,1.54371 -21.42487,3.18626 -47.88155,3.97715 -40.39462,1.20752 -45.24505,0.92268 -46.74938,-2.74533 z"
       id="path3158"
       inkscape:connector-curvature="0" />
  </g>
</svg>
