<?xml version="1.0" encoding="UTF-8" standalone="no"?>
<svg
   xmlns:dc="http://purl.org/dc/elements/1.1/"
   xmlns:cc="http://creativecommons.org/ns#"
   xmlns:rdf="http://www.w3.org/1999/02/22-rdf-syntax-ns#"
   xmlns:svg="http://www.w3.org/2000/svg"
   xmlns="http://www.w3.org/2000/svg"
   viewBox="0 0 300 300"
   height="300"
   width="300"
   id="svg512"
   version="1.1">
  <metadata
     id="metadata518">
    <rdf:RDF>
      <cc:Work
         rdf:about="">
        <dc:format>image/svg+xml</dc:format>
        <dc:type
           rdf:resource="http://purl.org/dc/dcmitype/StillImage" />
        <dc:title></dc:title>
      </cc:Work>
    </rdf:RDF>
  </metadata>
  <defs
     id="defs516" />
  <path
     id="path522"
     d="m 218.17353,280.34946 c -6.49571,-22.02698 -8.9222,-42.70779 -10.86997,-57.72901 l -35.57227,-0.29048 c -1.13334,16.03953 -3.04548,29.41081 -5.86007,48.08926 -1.16573,7.73611 -3.21263,13.58244 -7.57872,13.69944 -7.35917,0.19722 -3.92196,-19.05175 -3.48104,-22.39746 5.81001,-43.63143 10.24293,-83.52975 8.68221,-129.77298 l -10.87779,-0.17179 c -5.22711,-0.0826 -11.09502,-0.23971 -12.02154,-4.41782 -0.83701,-3.77449 1.6467,-4.90518 3.66739,-5.57299 3.55206,-1.16562 5.91434,-1.28711 22.03784,-1.13337 l 19.19803,-0.16635 -0.23971,-16.95785 h -14.20655 c -15.49899,0 -17.5804,-0.39169 -20.2732,-3.815017 -2.26843,-2.88383 -1.94993,-4.69686 1.09468,-6.231365 2.20839,-1.113044 4.86104,-1.375355 17.8169,-1.76182 l 15.4897,-0.03228 -0.13915,-10.82305 c -9.44491,-1.018273 -19.78662,-3.036086 -25.05754,-7.873316 -6.79681,-6.237568 -7.85931,-11.134749 -6.91163,-31.355512 0.56906,-12.1421 1.00086,-13.861258 5.36166,-13.982133 6.12524,-0.169782 5.43305,16.166863 5.44663,18.60656 0.0663,13.325289 -0.10733,15.60261 3.51071,18.820558 5.39665,4.799885 10.77951,4.802235 17.62027,4.970489 l -0.13038,-33.700762 c -0.0656,-16.955529 0.33739,-24.043898 6.72888,-20.431866 2.84506,2.082799 3.33061,1.418678 3.74746,26.599396 l 0.44807,27.066632 c 7.10159,0.01208 15.32703,-0.262957 18.12967,-6.031616 2.78315,-5.728554 3.2826,-8.329163 3.79655,-18.837969 0.17216,-4.145944 0.25623,-17.98043 7.06388,-17.297967 3.35639,0.336476 4.62981,6.646044 4.45202,14.197943 -0.23923,10.161773 -0.012,24.324441 -7.94762,31.483955 -7.58703,5.981416 -14.7636,6.513627 -25.31654,7.268977 l 0.17703,11.267723 15.9323,0.119234 c 16.0869,0.01153 18.08351,0.38214 20.82291,3.864729 2.07325,2.6357 1.63587,4.402297 -1.49033,6.019677 -3.94049,2.03866 -9.92611,1.41349 -18.41021,1.37237 l -16.71206,-0.0483 0.12416,17.51109 20.58827,0.0537 c 17.87442,0.0467 21.28822,0.58727 23.02395,1.10731 5.43115,1.6272 6.22982,6.57037 1.41299,8.74528 -2.05913,0.92974 -4.57507,1.42255 -13.44491,1.42641 l -12.19357,-0.0531 c -2.01076,46.12849 2.31465,89.19302 9.9584,130.30876 0.82338,4.43074 1.66961,9.01647 2.52328,13.82849 1.31734,7.42573 -7.37466,13.77109 -10.12104,4.45811 z M 206.24636,210.0707 c -1.47729,-18.27949 -2.10402,-33.91496 -2.30662,-48.57169 l -29.04089,-0.0528 c -0.47053,17.51077 -0.90985,30.45818 -2.17965,48.87836 l 33.52717,-0.25394 z m -20.8194,-15.9847 c -3.61231,-1.81732 -6.02347,-5.20622 -6.26886,-10.3858 -0.38847,-8.19986 6.52145,-9.92114 12.01328,-9.16681 4.92913,0.67704 7.92533,5.4402 7.92385,9.45411 -9.5e-4,4.31153 -2.46319,7.38155 -5.50791,9.31681 -2.30615,1.46582 -5.7193,2.00977 -8.16036,0.78169 z m 19.20469,-62.18946 h -29.06058 v 18.6818 l 28.6297,-0.0615 z m -86.59492,152.20463 c -1.60473,-0.93683 -7.13111,-10.00183 -10.51297,-18.34711 -14.044665,-34.6574 -13.942632,-60.9797 -6.04668,-89.31637 6.03128,-21.64478 7.06261,-27.29549 6.05575,-32.87821 -1.29124,-7.15945 -7.0118,-11.9624 -12.990042,-14.59609 -6.380674,11.59466 -17.385976,27.47315 -30.299948,39.42423 -2.034218,1.88254 -5.56397,2.70938 -7.279215,1.14445 -4.323039,-3.94415 1.144639,-10.11646 4.482522,-13.54682 8.878884,-9.28747 17.948893,-22.0905 23.333691,-32.79006 5.94776,-11.81816 8.452926,-23.10107 8.452926,-35.644138 l -26.461498,3.717016 c -7.23897,1.016849 -11.38964,-7.032956 -8.43099,-8.845897 2.515057,-1.409962 26.184603,-5.705007 26.184603,-5.705007 l 8.89708,-1.467317 C 90.918951,58.713623 88.268639,46.793298 83.63896,32.260286 c -4.158817,-13.05493 7.703736,-11.178995 11.304587,-1.70663 5.387793,14.173075 7.824223,28.113848 9.783753,42.993875 l 14.93805,-2.390294 c 0.70079,-14.727054 0.57662,-26.283719 3.98623,-38.473394 1.51714,-5.423924 7.73394,-5.65821 9.29137,-1.793397 1.30345,3.234537 0.37101,9.009853 -0.24214,15.290928 -2.33469,23.916515 -2.92572,46.638195 1.7881,69.864356 1.69988,8.37572 -6.27441,8.91852 -8.33082,4.16859 -5.0579,-11.68286 -5.89888,-26.293897 -6.12323,-37.220829 l -14.15408,2.120399 c -0.49329,11.117033 -2.34224,24.03409 -6.234547,32.88185 7.066417,5.02574 14.933897,10.63562 17.916917,18.74912 3.09599,8.42072 0.98549,17.49555 -1.56184,26.87013 -6.77687,24.70986 -9.53571,48.26578 -7.52806,64.27717 0.48844,3.89531 3.23289,16.09663 8.65621,30.07187 2.17613,5.60762 9.71818,23.44529 6.38197,25.61184 -1.74109,1.34017 -3.74891,1.53284 -5.4747,0.5253 z"
     style="fill:#000000;stroke-width:0.69191855" />
</svg>
