<?xml version="1.0" encoding="UTF-8" standalone="no"?>
<!-- Created with Inkscape (http://www.inkscape.org/) -->

<svg
   xmlns:dc="http://purl.org/dc/elements/1.1/"
   xmlns:cc="http://creativecommons.org/ns#"
   xmlns:rdf="http://www.w3.org/1999/02/22-rdf-syntax-ns#"
   xmlns:svg="http://www.w3.org/2000/svg"
   xmlns="http://www.w3.org/2000/svg"
   xmlns:sodipodi="http://sodipodi.sourceforge.net/DTD/sodipodi-0.dtd"
   xmlns:inkscape="http://www.inkscape.org/namespaces/inkscape"
   width="300"
   height="300"
   id="svg2"
   version="1.1"
   inkscape:version="0.92.4 (5da689c313, 2019-01-14)"
   sodipodi:docname="image-bigseal.svg">
  <defs
     id="defs4" />
  <sodipodi:namedview
     id="base"
     pagecolor="#ffffff"
     bordercolor="#666666"
     borderopacity="1.0"
     inkscape:pageopacity="0.0"
     inkscape:pageshadow="2"
     inkscape:zoom="1.979899"
     inkscape:cx="104.60582"
     inkscape:cy="168.6356"
     inkscape:document-units="px"
     inkscape:current-layer="layer1"
     showgrid="false"
     inkscape:window-width="1872"
     inkscape:window-height="1016"
     inkscape:window-x="48"
     inkscape:window-y="27"
     inkscape:window-maximized="1" />
  <metadata
     id="metadata7">
    <rdf:RDF>
      <cc:Work
         rdf:about="">
        <dc:format>image/svg+xml</dc:format>
        <dc:type
           rdf:resource="http://purl.org/dc/dcmitype/StillImage" />
        <dc:title />
      </cc:Work>
    </rdf:RDF>
  </metadata>
  <g
     inkscape:label="Calque 1"
     inkscape:groupmode="layer"
     id="layer1"
     transform="translate(0,-752.36218)">
    <path
       style="fill:#000000;stroke-width:6.09326267"
       d="m 150.53884,1036.3564 c 0,-3.4627 6.48792,-19.229 14.41763,-35.0362 13.26723,-26.4472 14.17183,-34.05793 11.33713,-95.38223 -3.05663,-66.12574 -3.16826,-66.53338 -14.41764,-52.64104 -8.73286,10.78465 -11.43553,24.69319 -11.76542,60.54851 -0.29126,31.66583 -2.10248,42.65156 -5.66497,34.36125 -10.09074,-23.48246 -6.77101,-78.02612 6.02648,-99.01552 21.4121,-35.11834 34.0856,-22.6358 31.46476,30.9907 -1.54257,31.5631 -0.49416,35.32362 9.32842,33.45177 9.03954,-1.72269 11.39861,-9.07257 12.88043,-40.1306 1.51996,-31.85722 3.5896,-38.02171 12.76544,-38.02171 24.85589,0 39.58921,40.66588 32.87346,90.73526 -5.09537,37.98918 -13.17095,29.92535 -10.01403,-9.99953 2.81045,-35.54341 -5.34849,-61.99469 -20.68249,-67.05246 -5.48284,-1.80848 -7.61657,7.00384 -7.61657,31.45677 0,27.37003 -2.36742,35.44756 -12.18653,41.5797 -6.70259,4.18583 -12.18653,12.43501 -12.18653,18.33146 0,13.20843 2.56545,13.31323 21.54079,0.88011 18.01071,-11.80107 20.01837,-2.66586 2.83227,12.88731 -17.15875,15.52844 -15.50303,22.84663 12.48576,55.18505 13.56976,15.6787 23.23288,29.946 21.47363,31.7052 -4.70016,4.7002 -21.48118,-10.5729 -40.73559,-37.0754 l -16.93086,-23.30428 -15.66883,30.92088 c -15.30176,30.1965 -21.55674,37.3419 -21.55674,24.625 z M 95.54123,1024.0767 C 81.30725,997.48041 81.23711,944.73773 95.38829,909.12346 107.43631,878.80229 107.70253,875.35186 98.679079,866.47062 88.10952,856.06778 86.74219,857.02284 67.47109,888.26958 54.71021,908.96053 53.00666,892.69243 65.27514,867.29955 81.14632,834.44998 80.75678,823.39516 63.70984,822.88241 L 50,822.46989 64.31234,815.58902 c 12.03621,-5.78653 13.7826,-10.14553 10.9811,-27.40908 -2.33336,-14.37876 -1.14486,-19.81079 3.96744,-18.13319 4.01431,1.31724 8.16632,9.72393 9.22673,18.68158 1.34643,11.37314 5.48247,16.28656 13.70984,16.28656 9.09316,0 11.93414,-4.51913 12.44945,-19.8031 0.64192,-19.042 0.84489,-18.86639 5.28182,4.56994 9.60006,50.70923 11.40507,70.07253 6.5321,70.07253 -2.76762,0 -6.86449,-9.76787 -9.10419,-21.70634 -2.99526,-15.96624 -6.80008,-21.18652 -14.38796,-19.74083 -15.61283,2.97467 -16.71485,28.81181 -1.67808,39.34395 15.90731,11.1419 15.86692,19.55499 -0.30649,63.91266 -12.66838,34.74422 -12.73322,36.575 -2.577941,72.76825 10.879521,38.77435 9.524681,52.79455 -2.864749,29.64465 z m 51.95098,-216.47345 c 6.70258,-5.06594 18.35595,-10.75991 25.89636,-12.65333 9.43633,-2.36943 13.70984,-7.98504 13.70984,-18.01516 0,-8.0149 2.74197,-14.57259 6.09327,-14.57259 3.35129,0 6.09326,5.42818 6.09326,12.06271 0,7.98614 8.43631,16.36657 24.96349,24.79812 31.7593,16.20235 26.00434,23.57886 -6.84054,8.7679 -23.23367,-10.47694 -25.88211,-10.53184 -45.96831,-0.95341 -26.41758,12.5977 -40.30047,12.92564 -23.94737,0.56545 z"
       id="path139"
       inkscape:connector-curvature="0" />
  </g>
</svg>
