<?xml version="1.0" encoding="UTF-8" standalone="no"?>
<!-- Created with Inkscape (http://www.inkscape.org/) -->

<svg
   xmlns:dc="http://purl.org/dc/elements/1.1/"
   xmlns:cc="http://creativecommons.org/ns#"
   xmlns:rdf="http://www.w3.org/1999/02/22-rdf-syntax-ns#"
   xmlns:svg="http://www.w3.org/2000/svg"
   xmlns="http://www.w3.org/2000/svg"
   xmlns:sodipodi="http://sodipodi.sourceforge.net/DTD/sodipodi-0.dtd"
   xmlns:inkscape="http://www.inkscape.org/namespaces/inkscape"
   width="300"
   height="300"
   id="svg2"
   version="1.1"
   inkscape:version="0.48.4 r9939"
   sodipodi:docname="dessin.svg">
  <defs
     id="defs4" />
  <sodipodi:namedview
     id="base"
     pagecolor="#ffffff"
     bordercolor="#666666"
     borderopacity="1.0"
     inkscape:pageopacity="0.0"
     inkscape:pageshadow="2"
     inkscape:zoom="1.979899"
     inkscape:cx="73.020464"
     inkscape:cy="149.14493"
     inkscape:document-units="px"
     inkscape:current-layer="layer1"
     showgrid="false"
     inkscape:window-width="1215"
     inkscape:window-height="1000"
     inkscape:window-x="65"
     inkscape:window-y="24"
     inkscape:window-maximized="1" />
  <metadata
     id="metadata7">
    <rdf:RDF>
      <cc:Work
         rdf:about="">
        <dc:format>image/svg+xml</dc:format>
        <dc:type
           rdf:resource="http://purl.org/dc/dcmitype/StillImage" />
        <dc:title />
      </cc:Work>
    </rdf:RDF>
  </metadata>
  <g
     inkscape:label="Calque 1"
     inkscape:groupmode="layer"
     id="layer1"
     transform="translate(0,-752.36218)">
    <path
       style="fill:#000000"
       d="m 168.4124,1035.9139 c -3.83169,-1.3949 -9.37077,-2.758 -12.30903,-3.029 -2.93829,-0.2711 -9.04025,-4.0001 -13.55996,-8.2868 -7.26848,-6.8937 -8.02443,-8.9885 -6.54489,-18.136 0.91999,-5.6881 4.20046,-12.64133 7.2899,-15.45151 11.68137,-10.62557 4.59036,-21.82302 -13.81989,-21.82302 -8.81161,0 -12.54273,1.85812 -24.78731,12.34438 -7.927853,6.78942 -16.268721,12.34439 -18.535248,12.34439 -2.266527,0 -4.120957,0.80705 -4.120957,1.79346 0,3.51081 -11.586917,7.8526 -17.041166,6.3856 -7.043832,-1.8946 -3.769081,-5.59328 14.094186,-15.91897 14.249934,-8.23705 27.119535,-19.57945 29.670615,-26.14969 2.47828,-6.38289 -2.56381,-9.63066 -9.833089,-6.33381 -8.229875,3.73252 -23.85727,2.23626 -23.85727,-2.28424 0,-2.54326 6.287525,-4.5924 22.293519,-7.26555 l 22.29352,-3.72322 1.57381,-9.81174 c 1.82194,-11.3587 3.50214,-13.38117 9.49698,-11.43172 3.40982,1.10885 3.94763,3.51559 2.49994,11.18768 l -1.84448,9.77492 15.03704,-1.71422 c 18.20569,-2.07543 20.90121,-3.72974 23.23191,-14.25796 1.37297,-6.20206 3.20538,-8.18124 7.5745,-8.18124 5.02231,0 5.52656,0.98688 3.92151,7.675 -4.46369,18.6 -4.86102,23.76609 -2.19611,28.55422 12.73036,22.87318 14.04612,27.53226 7.7752,27.53226 -5.36404,0 -14.34997,-11.07606 -18.80926,-23.18428 -3.51123,-9.53396 -4.04359,-9.87722 -15.31785,-9.87722 -16.15581,0 -25.97646,3.54909 -25.97646,9.38769 0,3.55076 1.82885,4.78151 7.1051,4.78151 9.33928,0 22.6367,5.95139 26.31655,11.77819 3.02276,4.78637 1.87054,7.74478 -11.32154,29.06929 -6.50304,10.5119 -5.77176,12.084 7.97518,17.1455 5.68245,2.0922 12.50919,4.7774 15.1706,5.967 2.66139,1.1897 7.36394,2.163 10.45009,2.163 3.75339,0 5.6112,1.5638 5.6112,4.7231 0,2.5977 -1.15147,4.7231 -2.55877,4.7231 -1.40734,0 -4.22887,0.4649 -6.27005,1.0331 -2.04123,0.5682 -6.84631,-0.1082 -10.67802,-1.5032 z m 51.90901,-34.3626 c -3.71746,-50.38521 -4.85541,-60.94276 -7.44528,-69.0749 -1.44777,-4.54597 -2.6393,-12.62324 -2.64783,-17.94952 -0.0196,-11.68998 -4.92757,-24.5715 -9.34489,-24.52257 -4.42145,0.0489 -23.57497,5.80768 -25.91671,7.79213 -1.0504,0.89015 -4.22585,1.61845 -7.05657,1.61845 -2.83069,0 -7.60643,1.30174 -10.61275,2.89279 -4.0854,2.16213 -6.26688,2.2141 -8.63679,0.20569 -3.78482,-3.20739 -1.05943,-7.82162 4.61984,-7.82162 7.70665,0 43.62278,-14.57464 45.08654,-18.29596 0.4626,-1.17607 -2.26602,-4.97941 -6.0636,-8.45191 -5.1993,-4.75423 -9.57603,-6.31363 -17.72006,-6.31363 -12.96829,0 -15.67923,-1.72585 -10.11619,-6.44015 7.02577,-5.95388 27.37197,-1.88826 38.73337,7.73977 5.23859,4.43936 10.16297,7.19636 10.94308,6.12667 0.78014,-1.06966 2.75967,-7.01678 4.39901,-13.21579 4.37681,-16.55054 2.16147,-17.82587 -30.96458,-17.82587 -28.26899,0 -35.26865,-2.68136 -19.30815,-7.39635 11.00691,-3.25165 14.57356,-13.19135 13.85234,-38.60429 -0.31582,-11.12836 0.20204,-20.89118 1.15074,-21.69517 4.23363,-3.58771 10.21968,5.11071 10.21968,14.8504 l 0,10.33776 16.42198,0 c 12.2063,0 16.84416,0.9323 18.06652,3.6317 1.91191,4.22225 -0.45345,5.05283 -18.60269,6.53205 -7.35595,0.59952 -13.79624,1.48035 -14.31178,1.95739 -0.51553,0.47702 -1.84826,5.53647 -2.96163,11.24322 l -2.02429,10.3759 13.68411,-1.5383 c 19.29213,-2.16874 23.01262,0.82847 25.95085,20.90595 2.51423,17.18029 1.22099,21.62775 -9.07687,31.2148 -4.38295,4.08045 -5.15872,6.89885 -3.57504,12.98844 1.11242,4.27746 3.15857,15.21605 4.54704,24.30796 1.38847,9.09191 3.73428,23.43824 5.21295,31.88074 5.03869,28.76887 8.57788,66.11462 6.82605,72.02952 -1.0272,3.4683 -3.74878,5.9012 -6.60155,5.9012 -4.19675,0 -5.10734,-3.4365 -6.72685,-25.3865 z M 88.832509,932.25805 c -1.239744,-1.69989 5.107556,-8.35894 16.411091,-17.2172 15.01291,-11.76515 18.12776,-15.43101 16.78889,-19.75864 -0.90411,-2.92241 -3.39564,-5.31346 -5.53668,-5.31346 -4.40651,0 -14.19437,4.38147 -20.098721,8.99707 -2.176321,1.70131 -8.808364,4.87438 -14.737882,7.05131 -5.92952,2.17693 -10.780952,4.77007 -10.780952,5.76253 0,0.99243 -3.762031,1.80444 -8.360069,1.80444 -13.046084,0 -9.972281,-5.18898 7.670029,-12.94794 17.922653,-7.88228 34.763655,-19.69618 32.500665,-22.79912 -0.81728,-1.12065 -6.368982,-2.0375 -12.337125,-2.0375 -17.937197,0 -24.971583,-4.0115 -25.511336,-14.5483 -0.255541,-4.98688 -0.568932,-10.91224 -0.696674,-13.16743 -0.127638,-2.25517 2.124991,-4.48503 5.00601,-4.9552 4.61044,-0.75243 5.011416,0.16979 3.345616,7.69456 -2.879068,13.00536 3.394133,16.58485 27.643129,15.7732 6.18266,-0.20688 9.26733,-1.93533 11.84343,-6.63606 5.57358,-10.17031 4.42975,-12.49921 -6.13894,-12.49921 -5.29226,0 -12.816318,-1.23327 -16.720136,-2.74061 -6.49165,-2.50653 -7.090259,-3.96873 -7.009222,-17.12114 0.08109,-13.15881 0.436229,-13.99108 4.180034,-9.79647 2.250281,2.52121 4.091418,6.41941 4.091418,8.66261 0,8.02361 3.39469,11.54946 11.119896,11.54946 8.77559,0 11.9155,-5.71233 9.2794,-16.88189 -1.268,-5.37278 -3.08286,-6.73346 -8.98081,-6.73346 -4.065414,0 -10.019735,-1.55992 -13.231756,-3.46648 -6.934873,-4.11629 -13.873424,-24.33082 -9.595744,-27.95587 3.409543,-2.88935 12.167273,2.44521 10.490828,6.39025 -2.279624,5.3645 6.481451,15.58595 13.359112,15.58595 7.09427,0 8.70046,-4.49488 10.5484,-29.51921 1.18702,-16.07479 6.19688,-10.40877 7.66426,8.66819 0.76634,9.96288 2.40494,18.96745 3.64138,20.01015 1.23638,1.04271 5.62542,0.29576 9.75341,-1.65992 6.23975,-2.95615 7.64863,-5.43447 8.35474,-14.69669 0.85577,-11.22512 6.40775,-15.33693 9.99926,-7.4055 6.50255,14.36007 -3.73656,34.04913 -17.70693,34.04913 -8.79633,0 -11.25517,3.39561 -11.25517,15.54313 0,6.57192 1.06518,8.07222 5.73112,8.07222 4.22587,0 7.44787,-3.25625 12.26764,-12.39805 l 6.5366,-12.39807 3.04967,6.62694 c 4.09451,8.89727 -2.52503,19.79218 -14.62934,24.07806 -7.87778,2.78938 -9.02273,4.34531 -9.42068,12.80242 l -0.45301,9.62714 17.96581,0 c 9.88122,0 17.96586,0.44444 17.96586,0.98761 0,6.44412 -4.5373,8.46118 -19.10832,8.49468 -21.43471,0.0494 -24.51651,2.05476 -16.55572,10.7735 3.46607,3.79602 7.20254,7.23837 8.30328,7.64963 4.24589,1.58632 -3.76299,12.74664 -17.84761,24.87066 -15.47056,13.31703 -25.369548,17.8298 -28.798151,13.12858 z"
       id="path3067"
       inkscape:connector-curvature="0" />
  </g>
</svg>
