<?xml version="1.0" encoding="UTF-8" standalone="no"?>
<!-- Created with Inkscape (http://www.inkscape.org/) -->

<svg
   xmlns:dc="http://purl.org/dc/elements/1.1/"
   xmlns:cc="http://creativecommons.org/ns#"
   xmlns:rdf="http://www.w3.org/1999/02/22-rdf-syntax-ns#"
   xmlns:svg="http://www.w3.org/2000/svg"
   xmlns="http://www.w3.org/2000/svg"
   xmlns:sodipodi="http://sodipodi.sourceforge.net/DTD/sodipodi-0.dtd"
   xmlns:inkscape="http://www.inkscape.org/namespaces/inkscape"
   width="300"
   height="300"
   id="svg2"
   version="1.1"
   inkscape:version="0.48.4 r9939"
   sodipodi:docname="dessin.svg">
  <defs
     id="defs4" />
  <sodipodi:namedview
     id="base"
     pagecolor="#ffffff"
     bordercolor="#666666"
     borderopacity="1.0"
     inkscape:pageopacity="0.0"
     inkscape:pageshadow="2"
     inkscape:zoom="1.979899"
     inkscape:cx="218.29155"
     inkscape:cy="144.09165"
     inkscape:document-units="px"
     inkscape:current-layer="layer1"
     showgrid="false"
     inkscape:window-width="1215"
     inkscape:window-height="1000"
     inkscape:window-x="65"
     inkscape:window-y="24"
     inkscape:window-maximized="1" />
  <metadata
     id="metadata7">
    <rdf:RDF>
      <cc:Work
         rdf:about="">
        <dc:format>image/svg+xml</dc:format>
        <dc:type
           rdf:resource="http://purl.org/dc/dcmitype/StillImage" />
        <dc:title />
      </cc:Work>
    </rdf:RDF>
  </metadata>
  <g
     inkscape:label="Calque 1"
     inkscape:groupmode="layer"
     id="layer1"
     transform="translate(0,-752.36218)">
    <path
       style="fill:#000000"
       d="m 216.10978,1031.5917 c -2.76697,-1.544 -9.55863,-5.5088 -15.09256,-8.8105 -5.53395,-3.3018 -11.79079,-6.6247 -13.90409,-7.3843 -5.09521,-1.8314 -18.17164,-24.58481 -19.92305,-34.66681 -0.76386,-4.39712 -3.44065,-9.17071 -5.94844,-10.60798 -3.7399,-2.14346 -5.43548,-1.55407 -9.43197,3.27865 -2.6798,3.24052 -5.76503,6.95241 -6.85602,8.24861 -1.09102,1.29622 -2.25833,6.59891 -2.59401,11.78376 -0.83147,12.84217 -2.6755,17.67557 -6.74353,17.67557 -9.16303,0 -7.35084,-20.17498 3.26568,-36.35696 8.02432,-12.23085 18.52259,-18.85498 26.79826,-16.90895 4.81792,1.13296 6.59959,4.21509 10.04003,17.36854 5.59878,21.40512 7.60923,24.32447 12.54067,18.21032 2.08587,-2.58611 3.82846,-7.14888 3.87247,-10.13947 0.15271,-10.37218 5.77105,-26.54388 9.94998,-28.63929 4.24319,-2.12763 20.31514,3.35044 20.31514,6.92434 0,0.94503 2.54688,4.2993 5.65972,7.4539 6.78707,6.87812 11.94828,16.9979 11.94828,23.42744 0,7.70923 -9.09251,1.34191 -14.62444,-10.24133 -2.62273,-5.49166 -7.17559,-11.98716 -10.11746,-14.43444 -7.50166,-6.24041 -11.92643,-2.05694 -14.09961,13.33054 -3.80562,26.94656 -4.26321,25.70696 12.42952,33.66946 24.00747,11.4516 24.23772,11.6147 22.47179,15.9263 -1.89355,4.6233 -12.42658,5.0944 -19.95636,0.8926 z M 103.5014,1016.4114 c -2.18186,-2.2683 -4.777278,-7.3059 -5.767576,-11.1945 -0.9903,-3.8887 -2.572503,-8.13081 -3.516015,-9.42703 -4.907574,-6.74208 -8.426178,-24.5346 -8.494422,-42.95396 -0.07371,-19.8971 0.320843,-21.35777 10.444356,-38.66471 12.507657,-21.38291 13.720547,-32.72655 4.565497,-42.69986 -3.272114,-3.5646 -6.578769,-6.48107 -7.348137,-6.48107 -0.769344,0 -2.782919,3.97703 -4.474594,8.83781 -3.099811,8.90694 -21.886405,28.87019 -27.168525,28.87019 -4.847607,0 -3.156938,-6.05582 4.071016,-14.58203 15.446461,-18.22093 27.539904,-51.01173 20.349052,-55.17557 -1.692102,-0.97982 -3.516492,-0.53287 -4.05995,0.9946 -1.445766,4.06372 -12.853733,3.38342 -17.584144,-1.04861 -3.763053,-3.52566 -3.711739,-4.07492 0.660426,-7.07025 2.60724,-1.78618 8.202909,-3.26387 12.434813,-3.28371 4.231904,-0.0189 8.986616,-0.81524 10.566053,-1.76756 1.579435,-0.95233 4.321629,-13.66253 6.093772,-28.24491 2.887887,-23.76333 3.734932,-26.51344 8.166238,-26.51344 4.71391,0 4.86858,1.20715 3.32167,25.92424 l -1.62245,25.92426 6.05989,0 c 4.53549,0 6.75458,-1.86705 8.8214,-7.42192 1.51882,-4.08208 2.76149,-9.38477 2.76149,-11.78376 0,-2.72744 1.80653,-4.36182 4.82124,-4.36182 6.65353,0 7.74595,4.4205 3.49444,14.14049 -3.45587,7.90095 -3.76873,30.50942 -0.45656,32.99449 0.86379,0.64811 2.36888,4.626 3.34459,8.83975 1.39196,6.01124 0.86355,7.98875 -2.45328,9.18124 -5.40197,1.94217 -6.91638,-0.51752 -11.03942,-17.93001 -2.94801,-12.45007 -4.10659,-14.23148 -9.25592,-14.23148 -6.6725,0 -9.86148,4.41041 -12.416901,17.17266 -1.584141,7.91151 -0.956843,9.51167 5.988201,15.27547 13.53388,11.23197 18.77369,28.95617 12.00588,40.61112 -20.883678,35.96414 -19.848732,33.20366 -19.733348,52.6335 0.111427,18.76791 1.61508,24.31939 12.200798,45.04515 9.31649,18.24073 6.28721,29.89683 -4.77958,18.39123 z m 52.65785,-70.8571 c -5.95075,-6.16072 -7.84738,-18.09259 -4.19064,-26.36381 2.5417,-5.74917 5.1189,-7.41763 13.51739,-8.75117 5.70733,-0.90622 11.50889,-1.30244 12.89236,-0.8805 1.38349,0.42194 8.00163,0.61861 14.70699,0.43708 15.87478,-0.42983 28.0605,6.27804 30.27821,16.66725 3.36233,15.75109 -10.80912,23.17011 -44.25831,23.17011 -14.98146,0 -19.65462,-0.87145 -22.946,-4.27896 z m 42.85305,-8.04602 c 15.6208,-6.43404 13.62717,-15.24413 -4.13834,-18.28789 -11.36726,-1.94751 -29.45617,1.10677 -34.978,5.90597 -6.16468,5.35796 0.61994,12.52359 12.8341,13.5548 5.87353,0.49589 12.60682,1.08689 14.96282,1.31334 2.35598,0.22649 7.44973,-0.89232 11.31942,-2.48622 z m -73.01914,-23.98319 c -2.13376,-5.20975 6.89499,-11.14103 29.23497,-19.20538 23.06623,-8.3265 27.44634,-13.68818 13.22444,-16.18794 -11.91865,-2.0949 -21.15135,-10.21164 -21.65026,-19.03337 -0.70301,-12.43049 0.0686,-17.67563 2.60073,-17.67563 2.26152,0 3.05674,2.22411 6.57752,18.3965 1.04294,4.79059 2.4397,5.34901 11.79046,4.71351 l 10.60734,-0.72088 0.75104,-10.83555 0.75103,-10.83557 -10.55486,-2.12655 c -14.72077,-2.96591 -20.66695,-11.12785 -21.7419,-29.84377 -1.28676,-22.40389 1.57967,-24.65617 35.44113,-27.84759 29.66616,-2.79601 35.68354,-2.19177 43.7926,4.39753 7.77237,6.3157 10.05895,25.49108 4.37738,36.70881 -2.38634,4.7116 -5.34176,8.56657 -6.56761,8.56657 -3.52764,0 -2.59233,6.21046 1.4032,9.31727 4.00569,3.11473 2.77996,24.74478 -1.70486,30.0844 -1.32672,1.57961 -9.14742,4.11352 -17.37926,5.63086 -20.18084,3.7199 -19.37465,8.97432 2.14433,13.97605 8.57764,1.99371 16.40152,4.37991 17.3864,5.30269 0.9849,0.92272 3.38081,1.67771 5.32426,1.67771 1.94347,0 5.28874,1.64443 7.43393,3.65429 3.52345,3.30119 3.44532,3.97709 -0.80854,6.99531 -2.58989,1.83754 -5.45086,3.37472 -6.35772,3.41596 -1.41893,0.0646 -11.53732,-4.29307 -27.87327,-12.00386 -6.02486,-2.8438 -32.10584,-2.60412 -32.10584,0.29506 0,1.2962 -2.19708,2.35675 -4.88239,2.35675 -2.68532,0 -5.58198,1.06054 -6.43703,2.35674 -0.85504,1.29622 -4.60067,2.38035 -8.3236,2.40916 -3.72293,0.0288 -9.59882,2.12632 -13.05754,4.66109 -7.48378,5.48463 -11.54907,5.90943 -13.39608,1.39983 z m 86.97233,-51.81553 c 2.90652,-2.06718 4.40201,-6.34519 4.40201,-12.59255 0,-8.65578 -0.65155,-9.58388 -7.64841,-10.89498 -12.24842,-2.29515 -17.50588,2.37533 -17.50588,15.55141 0,11.0991 0.0858,11.21605 8.17515,11.14188 4.49633,-0.0412 10.15603,-1.4838 12.57713,-3.20576 z m -42.08066,-54.88014 c -1.48003,-11.09867 -2.34419,-12.54163 -7.51091,-12.54163 -6.80151,0 -9.08943,4.12802 -7.43014,13.406 1.98416,11.09448 6.35976,19.29111 10.73491,20.10938 5.24419,0.98077 6.37918,-4.67874 4.20614,-20.97375 z m 22.58762,5.72318 c -1.9296,-18.66065 -3.39849,-21.5053 -10.42489,-20.18868 -4.62575,0.8668 -5.30539,6.48662 -2.37031,19.59948 0.58025,2.59242 1.14935,7.62998 1.26465,11.19456 0.17331,5.35908 1.34248,6.48107 6.75346,6.48107 l 6.54387,0 -1.76678,-17.08643 z m 23.79703,9.5718 c 6.22738,-6.26265 6.8878,-21.13845 1.17605,-26.4899 -2.17403,-2.03692 -6.70181,-3.70347 -10.06171,-3.70347 -5.73651,0 -6.10889,0.79957 -6.10889,13.11707 0,13.06569 3.10789,22.23417 7.53679,22.23417 1.28091,0 4.63693,-2.32104 7.45776,-5.15787 z"
       id="path3340"
       inkscape:connector-curvature="0" />
  </g>
</svg>
