<?xml version="1.0" encoding="UTF-8" standalone="no"?>
<!-- Created with Inkscape (http://www.inkscape.org/) -->

<svg
   xmlns:dc="http://purl.org/dc/elements/1.1/"
   xmlns:cc="http://creativecommons.org/ns#"
   xmlns:rdf="http://www.w3.org/1999/02/22-rdf-syntax-ns#"
   xmlns:svg="http://www.w3.org/2000/svg"
   xmlns="http://www.w3.org/2000/svg"
   xmlns:sodipodi="http://sodipodi.sourceforge.net/DTD/sodipodi-0.dtd"
   xmlns:inkscape="http://www.inkscape.org/namespaces/inkscape"
   width="300"
   height="300"
   id="svg2"
   version="1.1"
   inkscape:version="0.48.4 r9939"
   sodipodi:docname="image-seal.svg">
  <defs
     id="defs4" />
  <sodipodi:namedview
     id="base"
     pagecolor="#ffffff"
     bordercolor="#666666"
     borderopacity="1.0"
     inkscape:pageopacity="0.0"
     inkscape:pageshadow="2"
     inkscape:zoom="2.0018437"
     inkscape:cx="145.03351"
     inkscape:cy="130.6666"
     inkscape:document-units="px"
     inkscape:current-layer="layer1"
     showgrid="false"
     inkscape:window-width="1215"
     inkscape:window-height="1000"
     inkscape:window-x="65"
     inkscape:window-y="24"
     inkscape:window-maximized="1"
     fit-margin-top="10"
     fit-margin-left="10"
     fit-margin-right="10"
     fit-margin-bottom="10" />
  <metadata
     id="metadata7">
    <rdf:RDF>
      <cc:Work
         rdf:about="">
        <dc:format>image/svg+xml</dc:format>
        <dc:type
           rdf:resource="http://purl.org/dc/dcmitype/StillImage" />
        <dc:title />
      </cc:Work>
    </rdf:RDF>
  </metadata>
  <g
     inkscape:label="Calque 1"
     inkscape:groupmode="layer"
     id="layer1"
     transform="translate(0,-752.36218)">
    <path
       style="fill:#000000"
       d="m 230.3214,1042.4472 c -2.44656,-2.7034 -4.44826,-6.3319 -4.44826,-8.0633 0,-1.7315 -0.91425,-3.1481 -2.03167,-3.1481 -1.11741,0 -3.62291,-3.9309 -5.56779,-8.7353 -1.94488,-4.8044 -6.06577,-14.4599 -9.15755,-21.4566 -8.50308,-19.2427 -7.60595,-46.91852 2.2014,-67.91226 10.46018,-22.3912 10.8873,-32.84722 1.66575,-40.77828 -9.20426,-7.91622 -19.36354,-8.37917 -19.36354,-0.88237 0,2.95656 -1.06278,5.37556 -2.36171,5.37556 -1.29892,0 -3.87481,3.653 -5.7242,8.11778 -3.32683,8.03169 -16.89191,21.44785 -21.68595,21.44785 -5.40613,0 -1.99485,-11.34223 6.92639,-23.02969 5.17436,-6.77878 10.14348,-15.25578 11.04249,-18.83773 0.89904,-3.58199 2.67502,-6.51269 3.94664,-6.51269 1.27164,0 1.69362,-1.6116 0.93779,-3.58129 -0.75586,-1.96971 -0.27982,-8.4523 1.05781,-14.40574 l 2.43209,-10.82443 -14.41238,0.2083 -14.41238,0.2083 0,30.16549 c 0,16.59102 -1.07246,30.82829 -2.38323,31.63839 -5.294,3.27186 -8.21514,-6.82375 -9.32092,-32.21339 -0.64025,-14.70129 -1.40466,-27.33439 -1.6987,-28.07353 -0.29402,-0.73914 -0.34138,-6.31683 -0.1051,-12.39487 0.599,-15.41625 -4.91767,-20.31428 -21.74148,-19.30348 -17.27256,1.03775 -17.55693,6.92919 -0.38777,8.03298 9.60157,0.61727 12.96297,1.97869 13.63599,5.52283 0.75559,3.97892 -1.20773,4.70362 -12.74281,4.70362 -7.49978,0 -13.63599,1.20951 -13.63599,2.68779 0,1.47828 5.29467,2.68778 11.76591,2.68778 12.63436,0 18.96433,4.58875 16.21462,11.75435 -1.30266,3.3947 -5.44631,4.37235 -18.53173,4.37235 -17.95297,0 -21.74227,-2.18089 -23.302122,-13.41145 -1.06794,-7.68889 -7.05159,-9.80234 -13.61457,-4.80876 -3.69339,2.81015 -4.78393,10.03046 -5.97642,39.56899 -1.52368,37.74237 -4.07662,45.93823 -11.3503,36.43858 -3.39854,-4.43861 -3.83022,-10.99725 -2.47658,-37.62898 2.40369,-47.29029 4.57797,-52.41178 22.25096,-52.41178 11.42529,0 12.302202,-7.51602 1.13744,-9.74897 -4.31443,-0.86289 -8.90675,-4.1129 -10.3492,-7.32421 -10.79578,-24.03449 -9.12928,-45.8643 3.1418,-41.15543 3.22967,1.23933 4.21235,5.71181 4.21235,19.17139 0,9.65522 1.18163,17.55494 2.62583,17.55494 4.0237,0 11.515622,-12.81551 9.44783,-16.16127 -3.90806,-6.32338 1.55593,-16.44612 11.009252,-20.39595 14.12422,-5.90149 49.57835,-7.90864 55.83285,-3.16086 4.72606,3.58757 4.74749,4.05097 0.38871,8.40975 -2.64212,2.64212 -6.69095,3.95344 -9.47673,3.06927 -6.04805,-1.91959 -18.75984,1.07866 -18.75984,4.42473 0,1.36443 2.11663,3.14597 4.70362,3.95897 13.33364,4.19034 16.61938,6.44394 15.11422,10.36636 -1.08678,2.83212 -5.27002,4.11344 -13.42944,4.11344 -11.08826,0 -12.14572,-0.64865 -16.43136,-10.07919 -2.51926,-5.54356 -4.88946,-10.55391 -5.26714,-11.13415 -0.37769,-0.58024 -2.53018,0.47499 -4.78332,2.34493 -2.38146,1.97644 -4.09664,7.76345 -4.09664,13.82193 l 0,10.42204 16.79865,0.003 c 13.55958,0.003 18.1409,1.1687 23.75993,6.04752 6.50339,5.64668 11.99349,18.31509 10.91069,25.17644 -0.33275,2.1083 2.94656,2.34383 10.98524,0.789 6.30274,-1.21907 12.82785,-2.26919 14.50019,-2.33356 4.87322,-0.18761 9.05106,-22.08447 9.09554,-47.67153 0.0462,-26.53942 2.44279,-33.45316 9.96152,-28.73639 4.11932,2.58417 4.70214,6.62557 4.21592,29.2339 -0.31033,14.42934 -1.21746,26.8884 -2.01583,27.68678 -0.79838,0.79846 -1.45162,4.95162 -1.45162,9.22931 0,7.34394 0.56204,7.73112 10.07919,6.94346 l 10.07919,-0.83421 1.81793,-18.39261 c 2.04492,-20.68887 3.22349,-22.96741 9.73406,-18.81933 3.3977,2.16477 4.37657,5.94374 3.80458,14.68775 -3.46568,52.9791 -3.4957,60.06902 -0.27996,66.07769 2.81339,5.25688 2.7009,7.01549 -0.66388,10.38028 -2.22809,2.22809 -5.82712,3.36959 -7.99783,2.53659 -5.3722,-2.0615 -10.58586,-16.2831 -7.2078,-19.66116 1.68172,-1.68172 1.56943,-3.24531 -0.31681,-4.41106 -1.60708,-0.99324 -2.92197,-5.96777 -2.92197,-11.05451 0,-7.86916 -0.92559,-9.24861 -6.20574,-9.24861 -9.0741,0 -14.45536,5.44806 -16.05704,16.25629 -1.24041,8.37021 -0.54054,9.92719 5.72114,12.72789 9.2904,4.15542 21.91721,15.14373 21.91721,19.07319 0,1.69591 1.47006,5.43741 3.26681,8.31447 4.00647,6.41536 -0.16261,20.18536 -10.93796,36.12691 -6.07025,8.98064 -7.09578,13.31012 -7.00318,29.56562 0.0957,16.81612 1.42557,21.71727 11.36551,41.89044 6.19136,12.5654 12.68494,24.7984 14.43014,27.1845 3.74841,5.1249 1.36981,13.1323 -3.90094,13.1323 -2.0347,0 -5.70116,-2.2119 -8.14769,-4.9153 z M 69.548448,1015.781 c -0.50087,-8.5001 -0.30592,-29.90504 0.43322,-47.56649 l 1.34389,-32.11174 8.96333,-5.22589 c 6.73478,-3.92658 14.92967,-5.38755 32.960222,-5.87611 13.19828,-0.35764 24.65732,0.41838 25.46455,1.72448 0.80719,1.30608 3.66718,2.37471 6.35548,2.37471 9.85478,0 11.2466,6.21128 11.40244,50.88623 0.10805,30.99831 -0.80677,44.37211 -3.23583,47.29891 -5.06811,6.1067 -6.51752,2.7645 -7.99613,-18.4386 l -1.34389,-19.2714 -9.98861,-0.8288 c -8.6545,-0.7181 -10.20702,0.0414 -11.62383,5.68641 -0.89936,3.58338 -1.40158,8.18959 -1.11603,10.23609 1.07743,7.7212 -0.28971,19.9893 -2.64179,23.7064 -2.02363,3.198 -3.16726,3.2567 -6.67829,0.3428 -3.10538,-2.5772 -4.23653,-8.4516 -4.23653,-22.0014 0,-19.8435 -0.52176,-20.41194 -17.304582,-18.85329 -7.31002,0.67888 -7.33015,0.72809 -8.29186,20.26869 -0.93688,19.0361 -2.33141,23.1038 -7.92077,23.1038 -2.52695,0 -3.9118,-4.7091 -4.54499,-15.4548 z m 62.829642,-40.69405 c 4.19499,-0.16933 8.45865,-2.4655 10.0299,-5.40145 2.43449,-4.54886 1.74085,-5.10679 -6.34871,-5.10679 -4.99498,0 -11.75239,-0.84762 -15.01641,-1.88357 -5.78561,-1.83629 -24.183362,5.64475 -24.183362,9.83363 0,2.39818 9.713622,4.01733 20.158382,3.36016 4.43484,-0.27904 11.34694,-0.63993 15.3602,-0.80198 z M 95.020368,958.30153 c 8.301382,-4.31537 8.299472,-4.31072 3.695,-8.91519 -7.89993,-7.89994 -16.88541,-2.08024 -13.28945,8.6073 1.38733,4.12328 2.20436,4.14951 9.59445,0.30789 z m 44.843682,-5.01151 c 0,-1.47828 -1.28089,-2.68778 -2.84641,-2.68778 -1.56553,0 -2.09889,1.2095 -1.18526,2.68778 0.91363,1.47828 2.19452,2.68778 2.84642,2.68778 0.65189,0 1.18525,-1.2095 1.18525,-2.68778 z M 127.6792,942.68421 c 1.86191,-3.01263 -17.01432,-8.75239 -20.89542,-6.35376 -3.79919,2.34802 5.97357,8.89622 13.27698,8.89622 3.32592,0 6.75421,-1.14411 7.61844,-2.54246 z M 96.365758,914.7376 c -2.48899,-1.89214 -5.32622,-6.63082 -6.30495,-10.53039 -1.38692,-5.52587 -0.20077,-8.66901 5.37689,-14.24654 6.561742,-6.56174 8.584622,-7.06546 24.344312,-6.06195 9.45336,0.60193 18.00404,1.91056 19.0015,2.90802 3.52137,3.52137 1.80431,23.13895 -2.39264,27.33589 -5.21693,5.21691 -33.39429,5.63578 -40.025112,0.59497 z m 32.747162,-12.22791 c 0,-7.82737 -15.1708,-11.42169 -24.17697,-5.7281 -3.44724,2.17931 -3.25617,3.11662 1.34389,6.59281 2.94936,2.22879 9.29337,4.09078 14.09778,4.13782 6.80899,0.0667 8.7353,-1.03654 8.7353,-5.00253 z M 90.811998,875.98424 c -2.587,-0.56876 -4.70363,-2.11238 -4.70363,-3.43025 0,-5.14905 11.32958,-7.96084 32.076722,-7.96084 19.8871,0 21.67896,0.44431 21.67896,5.37556 0,2.95657 -0.90712,5.50891 -2.01583,5.67187 -6.42241,0.94406 -43.086962,1.21193 -47.036222,0.34366 z"
       id="path3054"
       inkscape:connector-curvature="0" />
  </g>
</svg>
