<?xml version="1.0" encoding="UTF-8" standalone="no"?>
<!-- Created with Inkscape (http://www.inkscape.org/) -->

<svg
   xmlns:dc="http://purl.org/dc/elements/1.1/"
   xmlns:cc="http://creativecommons.org/ns#"
   xmlns:rdf="http://www.w3.org/1999/02/22-rdf-syntax-ns#"
   xmlns:svg="http://www.w3.org/2000/svg"
   xmlns="http://www.w3.org/2000/svg"
   xmlns:sodipodi="http://sodipodi.sourceforge.net/DTD/sodipodi-0.dtd"
   xmlns:inkscape="http://www.inkscape.org/namespaces/inkscape"
   width="300"
   height="300"
   id="svg2"
   version="1.1"
   inkscape:version="0.48.4 r9939"
   sodipodi:docname="image-seal.svg">
  <defs
     id="defs4" />
  <sodipodi:namedview
     id="base"
     pagecolor="#ffffff"
     bordercolor="#666666"
     borderopacity="1.0"
     inkscape:pageopacity="0.0"
     inkscape:pageshadow="2"
     inkscape:zoom="1.979899"
     inkscape:cx="200.43343"
     inkscape:cy="122.13442"
     inkscape:document-units="px"
     inkscape:current-layer="layer1"
     showgrid="false"
     inkscape:window-width="1215"
     inkscape:window-height="1000"
     inkscape:window-x="65"
     inkscape:window-y="24"
     inkscape:window-maximized="1" />
  <metadata
     id="metadata7">
    <rdf:RDF>
      <cc:Work
         rdf:about="">
        <dc:format>image/svg+xml</dc:format>
        <dc:type
           rdf:resource="http://purl.org/dc/dcmitype/StillImage" />
        <dc:title />
      </cc:Work>
    </rdf:RDF>
  </metadata>
  <g
     inkscape:label="Calque 1"
     inkscape:groupmode="layer"
     id="layer1"
     transform="translate(0,-752.36218)">
    <path
       style="fill:#000000"
       d="m 178.18488,1039.3249 c -1.08321,-1.7526 -4.10692,-107.55352 -4.60451,-161.11287 -0.11619,-12.51172 1.14846,-26.26907 2.81042,-30.57194 2.68232,-6.94463 3.47141,-7.37367 7.02533,-3.81977 4.18175,4.18178 4.1373,2.53087 3.89166,144.50292 -0.0715,41.34196 -0.75975,50.15276 -4.01507,51.40196 -2.16079,0.8292 -4.45934,0.649 -5.10783,-0.4003 z M 46.827508,958.6824 c -3.12314,-5.05335 4.114363,-11.41353 11.016579,-9.68119 3.395238,0.85213 11.011706,0.77565 16.925481,-0.16995 l 10.752346,-1.71938 0,-31.63374 0,-31.63373 -14.050596,-0.80893 c -10.345681,-0.59563 -14.050597,-1.86748 -14.050597,-4.82339 0,-2.752 3.355899,-4.28758 10.671282,-4.88295 15.397981,-1.25321 17.429911,-4.0186 17.429911,-23.7219 0,-22.71928 -2.727046,-27.68709 -14.178523,-25.82877 -6.23413,1.01167 -9.885973,0.14452 -12.461435,-2.9586 -6.3206,-7.61589 0.29608,-9.62201 35.675028,-10.81645 28.755226,-0.9708 34.283676,-0.51556 35.606676,2.93211 2.44124,6.36176 -2.81218,9.53232 -16.12797,9.73364 -10.68084,0.16138 -12.53303,1.06371 -14.649985,7.13639 -1.332826,3.82334 -1.586674,9.35398 -0.564085,12.29028 1.022563,2.93631 1.62037,8.95175 1.32846,13.36766 -0.291928,4.41591 0.65995,9.53433 2.1153,11.37429 3.97576,5.0265 12.61123,4.02319 14.78934,-1.71829 2.11265,-5.56883 35.06496,-36.53235 46.74909,-43.92755 7.01703,-4.44126 7.35984,-5.64529 7.35984,-25.84906 0,-21.99297 1.7374,-25.69109 10.72917,-22.83722 4.67591,1.48406 5.32865,4.07085 5.32865,21.11666 0,16.84479 0.82289,20.19849 6.19418,25.24455 3.40679,3.20052 7.21986,5.81912 8.47347,5.81912 1.25363,0 4.18684,1.7787 6.51828,3.95267 2.33142,2.17398 7.49613,6.99133 11.47713,10.70521 3.981,3.71391 8.6656,6.75255 10.41018,6.75255 4.68,0 10.27026,8.45201 10.36774,15.6751 0.0629,4.66904 -1.01483,5.88594 -4.14825,4.68352 -2.32833,-0.89345 -5.70587,-1.62448 -7.50563,-1.62448 -1.79979,0 -11.53036,-7.7464 -21.62348,-17.21426 -27.43505,-25.73537 -28.66461,-25.68053 -60.30817,2.68979 -14.19829,12.7296 -17.39598,17.09685 -17.39598,23.75849 0,7.95925 -0.34897,8.18205 -14.0506,8.97089 -7.72783,0.44491 -14.15509,1.64925 -14.2828,2.6763 -0.12766,1.02707 -0.86228,6.08255 -1.632356,11.23444 -1.800751,12.04708 -1.667631,19.50406 0.657006,36.79917 l 1.88856,14.0506 14.37917,0 c 12.59496,0 14.37916,0.66415 14.37916,5.35261 0,4.03477 -1.81204,5.37316 -7.35983,5.43611 -4.04791,0.046 -22.56106,0.78238 -41.140309,1.63662 -24.150942,1.11039 -34.325205,0.67169 -35.691433,-1.53888 z"
       id="path3120"
       inkscape:connector-curvature="0" />
  </g>
</svg>
