<?xml version="1.0" encoding="UTF-8" standalone="no"?>
<!-- Created with Inkscape (http://www.inkscape.org/) -->

<svg
   xmlns:dc="http://purl.org/dc/elements/1.1/"
   xmlns:cc="http://creativecommons.org/ns#"
   xmlns:rdf="http://www.w3.org/1999/02/22-rdf-syntax-ns#"
   xmlns:svg="http://www.w3.org/2000/svg"
   xmlns="http://www.w3.org/2000/svg"
   xmlns:sodipodi="http://sodipodi.sourceforge.net/DTD/sodipodi-0.dtd"
   xmlns:inkscape="http://www.inkscape.org/namespaces/inkscape"
   width="300"
   height="300"
   id="svg2"
   version="1.1"
   inkscape:version="0.48.4 r9939"
   sodipodi:docname="image-seal.svg">
  <defs
     id="defs4" />
  <sodipodi:namedview
     id="base"
     pagecolor="#ffffff"
     bordercolor="#666666"
     borderopacity="1.0"
     inkscape:pageopacity="0.0"
     inkscape:pageshadow="2"
     inkscape:zoom="1.979899"
     inkscape:cx="162.37035"
     inkscape:cy="138.01817"
     inkscape:document-units="px"
     inkscape:current-layer="layer1"
     showgrid="false"
     inkscape:window-width="1215"
     inkscape:window-height="1000"
     inkscape:window-x="65"
     inkscape:window-y="24"
     inkscape:window-maximized="1"
     fit-margin-top="10"
     fit-margin-left="10"
     fit-margin-right="10"
     fit-margin-bottom="10" />
  <metadata
     id="metadata7">
    <rdf:RDF>
      <cc:Work
         rdf:about="">
        <dc:format>image/svg+xml</dc:format>
        <dc:type
           rdf:resource="http://purl.org/dc/dcmitype/StillImage" />
        <dc:title />
      </cc:Work>
    </rdf:RDF>
  </metadata>
  <g
     inkscape:label="Calque 1"
     inkscape:groupmode="layer"
     id="layer1"
     transform="translate(0,-752.36218)">
    <path
       style="fill:#000000"
       d="m 157.46508,1041.271 c -0.81952,-4.0976 -2.46788,-7.4502 -3.66302,-7.4502 -2.80692,0 -2.78919,-6.3133 0.0333,-11.8299 1.21339,-2.3717 3.43022,-11.0174 4.92628,-19.2127 1.93184,-10.58249 4.29909,-15.97272 8.16911,-18.6009 6.40934,-4.35254 21.50514,-9.86756 27.1556,-9.92086 6.44166,-0.0608 19.45196,-7.48535 22.23757,-12.69032 3.03212,-5.66554 1.05781,-47.54629 -2.56006,-54.30637 -3.05256,-5.70373 -16.25317,-8.19993 -32.18634,-6.0863 -11.8596,1.57324 -12.84529,1.24277 -21.19323,-7.10517 -12.15043,-12.1504 -11.57736,-23.61107 1.92174,-38.4318 4.11112,-4.51367 7.7508,-5.59032 18.93603,-5.60152 7.61568,-0.007 17.99626,-1.16631 23.06797,-2.57487 7.71062,-2.14146 9.64088,-4.07171 11.78234,-11.78231 6.13798,-22.10061 2.9822,-26.47372 -17.89511,-24.79789 -17.76236,1.4258 -32.40337,-2.29347 -37.97498,-9.64678 -4.33965,-5.72743 -4.95432,-39.47297 -0.76616,-42.0614 4.70625,-2.90861 9.86587,6.95072 9.22707,17.63175 -1.01512,16.97357 1.59551,18.99839 26.79255,20.78018 23.83932,1.68579 37.29463,7.27424 34.57543,14.36039 -0.79005,2.05884 -1.43646,10.96927 -1.43646,19.80095 0,14.17443 -0.77062,16.77178 -6.57113,22.14753 -5.72867,5.30914 -8.89767,6.08992 -24.7172,6.08992 -18.77924,0 -30.79678,3.46805 -30.79678,8.88744 0,1.71784 -0.59616,4.67695 -1.32482,6.57578 -0.72863,1.89881 0.67087,5.75343 3.11002,8.56578 3.78356,4.3625 7.5269,5.15342 25.49073,5.38596 16.43053,0.21258 22.43011,1.29771 27.31169,4.93915 6.14153,4.58136 6.26828,5.34955 6.94017,42.0602 l 0.68438,37.39362 -7.27626,5.18115 c -4.00193,2.84953 -9.55224,5.1812 -12.33397,5.1812 -2.78176,0 -5.74841,1.11753 -6.59257,2.4834 -0.84416,1.36588 -4.21012,2.48341 -7.47992,2.48341 -16.63104,0 -26.04604,13.85888 -26.04604,38.33978 0,7.373 -0.67835,15.1731 -1.50741,17.3337 -2.49897,6.5122 -8.45117,4.4242 -10.04042,-3.522 z m 26.44826,-94.36941 c -2.04881,-1.32405 -12.38598,-2.42447 -22.97149,-2.44538 l -19.24639,-0.038 0,-7.45021 0,-7.45021 31.98019,0 c 25.27547,0 32.62282,0.77435 35.04548,3.69346 4.38249,5.28059 1.23197,11.20696 -5.95776,11.20696 -3.37693,0 -6.83055,1.11754 -7.67471,2.48341 -1.92814,3.1198 -6.34776,3.1198 -11.17532,0 z M 63.056788,930.58279 c -2.17295,-5.66261 3.38104,-8.43264 16.99702,-8.47722 17.78135,-0.0581 19.37798,-2.93926 18.29532,-33.01321 -0.50264,-13.96165 -1.01311,-26.14896 -1.1344,-27.08292 -0.12144,-0.93396 -3.24407,-1.14984 -6.93945,-0.47972 -10.33811,1.87465 -18.11514,-0.94225 -18.11514,-6.5614 0,-4.24528 1.69524,-4.9195 12.36971,-4.9195 11.42031,0 12.50215,-0.52418 14.09526,-6.82937 0.94903,-3.75614 1.808492,-12.41702 1.909862,-19.24638 l 0.18427,-12.41702 -8.691922,-0.67037 c -4.78055,-0.36871 -11.12821,-1.20855 -14.10591,-1.86631 -6.32665,-1.39748 -13.78843,-8.17949 -12.06589,-10.96664 0.65522,-1.06016 16.75741,-2.06867 35.782632,-2.24114 27.40007,-0.24839 34.86578,0.40161 35.91149,3.12668 1.92094,5.00589 -0.49246,6.40927 -11.02199,6.40927 -5.15523,0 -9.86034,0.83814 -10.45576,1.86255 -0.59544,1.0244 -1.85155,9.25344 -2.79137,18.28677 -1.41283,13.58003 -0.99041,17.14255 2.43945,20.57238 2.28148,2.2815 6.10803,3.52613 8.50342,2.76586 6.43321,-2.04183 12.50521,1.08818 12.50521,6.44623 0,3.91608 -1.86613,4.7011 -11.17532,4.7011 -6.14642,0 -11.19541,0.27939 -11.21997,0.62086 -0.0248,0.34146 -0.73382,13.3135 -1.57614,28.82673 -1.72465,31.76369 -0.93513,33.47828 14.30098,31.05689 7.51185,-1.1938 9.16332,-0.62686 10.24717,3.51784 1.14557,4.3806 -0.29257,5.11649 -12.68018,6.48827 -7.68475,0.85101 -24.33176,2.13054 -36.993342,2.84337 -19.75847,1.11242 -23.24129,0.72218 -24.57506,-2.7536 z"
       id="path3215"
       inkscape:connector-curvature="0" />
  </g>
</svg>
