<?xml version="1.0" encoding="UTF-8" standalone="no"?>
<!-- Created with Inkscape (http://www.inkscape.org/) -->

<svg
   xmlns:dc="http://purl.org/dc/elements/1.1/"
   xmlns:cc="http://creativecommons.org/ns#"
   xmlns:rdf="http://www.w3.org/1999/02/22-rdf-syntax-ns#"
   xmlns:svg="http://www.w3.org/2000/svg"
   xmlns="http://www.w3.org/2000/svg"
   xmlns:sodipodi="http://sodipodi.sourceforge.net/DTD/sodipodi-0.dtd"
   xmlns:inkscape="http://www.inkscape.org/namespaces/inkscape"
   width="300"
   height="300"
   viewBox="0 0 300 300"
   id="svg2"
   version="1.1"
   inkscape:version="0.91 r13725"
   sodipodi:docname="玕-seal.svg">
  <defs
     id="defs4">
    <clipPath
       clipPathUnits="userSpaceOnUse"
       id="clipPath4204">
      <rect
         style="fill:#0000ff;fill-rule:evenodd;stroke:#000000;stroke-width:1px;stroke-linecap:butt;stroke-linejoin:miter;stroke-opacity:1"
         id="rect4206"
         width="15.451179"
         height="21.584471"
         x="164.41942"
         y="794.64594" />
    </clipPath>
  </defs>
  <sodipodi:namedview
     id="base"
     pagecolor="#ffffff"
     bordercolor="#666666"
     borderopacity="1.0"
     inkscape:pageopacity="0.0"
     inkscape:pageshadow="2"
     inkscape:zoom="1.71"
     inkscape:cx="150"
     inkscape:cy="150"
     inkscape:document-units="px"
     inkscape:current-layer="layer1"
     showgrid="false"
     inkscape:window-width="1280"
     inkscape:window-height="751"
     inkscape:window-x="0"
     inkscape:window-y="1"
     inkscape:window-maximized="1"
     units="px"
     showguides="false" />
  <metadata
     id="metadata7">
    <rdf:RDF>
      <cc:Work
         rdf:about="">
        <dc:format>image/svg+xml</dc:format>
        <dc:type
           rdf:resource="http://purl.org/dc/dcmitype/StillImage" />
        <dc:title></dc:title>
      </cc:Work>
    </rdf:RDF>
  </metadata>
  <g
     inkscape:label="Layer 1"
     inkscape:groupmode="layer"
     id="layer1"
     transform="translate(0,-752.36216)">
    <path
       style="fill:#000000"
       d="m 185.61607,1034.6233 c -0.97435,-1.5765 -1.40255,-29.0651 -0.95156,-61.08562 0.45096,-32.02058 -0.14331,-60.99899 -1.32091,-64.39646 -2.01643,-5.8181 -3.64639,-6.1772 -28.03741,-6.1772 -24.06622,0 -25.89651,-0.38806 -25.89651,-5.49084 0,-5.03701 1.83029,-5.49085 22.14387,-5.49085 31.17977,0 32.7669,-1.23522 32.7543,-25.49175 l -0.011,-21.80774 -12.07811,-2.96641 c -16.21164,-3.98161 -17.80154,-12.63562 -17.20046,-45.77656 0.40602,-22.38453 1.14572,-26.16523 5.2767,-26.96917 4.3056,-0.83793 4.80449,1.7876 4.80449,25.2845 0,24.62872 0.3988,26.48084 6.57285,30.52625 9.62242,4.34488 38.25394,5.01596 45.99976,1.09153 5.35775,-2.86738 5.58276,-4.54692 3.79802,-28.35196 -1.58826,-21.18451 -1.19868,-25.88366 2.39299,-28.86448 6.47665,-5.37515 9.63803,5.8701 10.11881,35.99327 0.38677,24.2355 0.0988,25.54655 -6.93832,31.59971 -4.5881,3.94652 -10.88851,6.31519 -16.79771,6.31519 -5.56027,0 -9.59042,1.41381 -9.78243,3.43178 -1.21524,12.77185 -0.99094,41.05347 0.33208,41.87114 0.88293,0.54568 8.96439,1.25078 17.95878,1.56686 20.90667,0.73476 25.96245,2.03285 25.96245,6.66597 0,5.48541 -8.52934,7.30459 -25.60349,5.46084 -10.5752,-1.14196 -15.70813,-0.60759 -17.18967,1.78961 -1.16175,1.87973 -1.82529,13.98949 -1.47454,26.91058 0.35076,12.92106 0.47353,24.7283 0.2729,26.23829 -0.2007,1.50998 -1.19404,18.80615 -2.20749,38.43592 -1.01342,19.6298 -2.84209,37.2348 -4.06369,39.1223 -2.70628,4.1814 -6.45238,4.4211 -8.83538,0.5653 z M 58.71503,950.72483 c -1.88748,-0.85039 -3.43178,-3.91412 -3.43178,-6.80824 0,-4.539 2.16921,-5.30558 15.78618,-5.57875 8.6824,-0.17406 17.02163,-0.60372 18.53161,-0.95456 1.50998,-0.35081 4.32558,-0.82601 6.25688,-1.05602 2.69748,-0.32122 3.3339,-8.85067 2.74542,-36.79502 l -0.76603,-36.37686 -12.53489,0.89084 c -9.01676,0.64078 -13.5689,-0.35507 -16.21892,-3.54813 -5.0988,-6.14368 -0.0675,-10.62778 11.46725,-10.22014 18.15461,0.6416 18.65927,-0.0917 18.65927,-27.11622 l 0,-24.52379 -16.47254,0 c -14.64225,0 -16.47254,-0.61009 -16.47254,-5.49085 0,-5.00793 1.87134,-5.50169 21.27703,-5.61398 11.70237,-0.0678 27.45424,-0.70889 35.00415,-1.42482 16.4794,-1.56269 23.46714,1.63757 17.98884,8.23852 -1.99184,2.4 -5.00098,4.20094 -6.68703,4.00209 -1.68605,-0.19877 -6.463,-0.21524 -10.61545,-0.0362 l -7.54992,0.32528 0,24.65651 c 0,26.84359 -0.99689,25.2725 17.84525,28.12359 9.76105,1.47698 6.26338,8.77319 -5.09045,10.61872 -5.81969,0.94596 -11.39167,1.03117 -12.38216,2.63381 -0.99047,1.60261 -2.16032,19.65735 -2.59964,37.67719 l -0.79878,32.7633 14.15798,1.67682 c 15.49959,1.8357 23.76062,6.50792 19.33385,10.9347 -2.89568,2.89568 -81.66676,5.60049 -87.43358,3.00225 z"
       id="path4174"
       inkscape:connector-curvature="0"
       sodipodi:nodetypes="cscsssccssssccsssssssssssscsscccscccscsssscssssscccssssscsscc" />
  </g>
</svg>
