<?xml version="1.0" encoding="UTF-8" standalone="no"?>
<!-- Created with Inkscape (http://www.inkscape.org/) -->

<svg
   xmlns:dc="http://purl.org/dc/elements/1.1/"
   xmlns:cc="http://creativecommons.org/ns#"
   xmlns:rdf="http://www.w3.org/1999/02/22-rdf-syntax-ns#"
   xmlns:svg="http://www.w3.org/2000/svg"
   xmlns="http://www.w3.org/2000/svg"
   xmlns:sodipodi="http://sodipodi.sourceforge.net/DTD/sodipodi-0.dtd"
   xmlns:inkscape="http://www.inkscape.org/namespaces/inkscape"
   width="300"
   height="300"
   id="svg2"
   version="1.1"
   inkscape:version="0.48.4 r9939"
   sodipodi:docname="image-seal.svg">
  <defs
     id="defs4" />
  <sodipodi:namedview
     id="base"
     pagecolor="#ffffff"
     bordercolor="#666666"
     borderopacity="1.0"
     inkscape:pageopacity="0.0"
     inkscape:pageshadow="2"
     inkscape:zoom="1.979899"
     inkscape:cx="173.92428"
     inkscape:cy="155.81638"
     inkscape:document-units="px"
     inkscape:current-layer="layer1"
     showgrid="false"
     inkscape:window-width="1215"
     inkscape:window-height="1000"
     inkscape:window-x="65"
     inkscape:window-y="24"
     inkscape:window-maximized="1" />
  <metadata
     id="metadata7">
    <rdf:RDF>
      <cc:Work
         rdf:about="">
        <dc:format>image/svg+xml</dc:format>
        <dc:type
           rdf:resource="http://purl.org/dc/dcmitype/StillImage" />
        <dc:title />
      </cc:Work>
    </rdf:RDF>
  </metadata>
  <g
     inkscape:label="Calque 1"
     inkscape:groupmode="layer"
     id="layer1"
     transform="translate(0,-752.36218)">
    <path
       style="fill:#000000"
       d="m 238.04096,1043.2628 c -2.07987,-2.3624 -3.78159,-5.7326 -3.78159,-7.4891 0,-1.7567 -1.20254,-5.558 -2.67231,-8.4471 -10.22947,-20.109 -19.74101,-52.21883 -24.40776,-82.39768 -1.92973,-12.47924 -4.68584,-26.77364 -6.12466,-31.76534 -4.15046,-14.39911 -3.87715,-69.03621 0.39498,-78.96245 9.51351,-22.10441 26.94959,-36.27923 41.78364,-33.96834 9.23945,1.43936 8.94597,6.35089 -0.65439,10.95223 -7.85951,3.76695 -8.3195,5.11576 -8.3195,24.39421 0,11.22372 1.12465,21.70005 2.49924,23.28075 1.37459,1.5807 4.18183,9.00018 6.23835,16.48772 2.05649,7.48755 5.85852,19.73989 8.44891,27.22743 2.59042,7.48755 5.43151,17.01715 6.31359,21.1769 0.88208,4.15974 2.56591,8.24386 3.74183,9.07581 1.17593,0.83194 3.0342,6.39088 4.12953,12.35317 1.59217,8.66677 1.04236,10.84057 -2.74192,10.84057 -10.55862,0 -20.20457,-22.27857 -31.6548,-73.1107 -1.874,-8.31949 -4.61541,-19.89115 -6.09201,-25.7148 -1.47661,-5.82364 -3.47295,-14.38921 -4.43632,-19.0346 -1.57571,-7.59797 -2.21855,-7.97921 -6.40132,-3.79645 -9.03403,9.03404 -1.31303,89.3765 13.53267,140.81659 1.68069,5.82364 4.28829,15.35324 5.79463,21.17689 1.50631,5.82359 5.73525,17.12959 9.39758,25.12449 8.55014,18.6647 5.18909,33.3394 -4.98837,21.7798 z m -55.21118,-53.55399 c -42.94767,-9.01845 -53.58017,-15.67489 -58.67826,-36.73546 -1.57949,-6.52496 -3.32486,-8.11066 -7.24803,-6.5851 -2.84215,1.10519 -19.338621,2.6599 -36.658803,3.45491 -23.27434,1.06829 -32.10272,0.45609 -33.83469,-2.34627 -3.661,-5.92363 -0.25049,-8.61851 10.90725,-8.61851 5.64718,0 13.73506,-1.57989 17.9731,-3.51089 7.56045,-3.44475 7.70552,-4.12211 7.70552,-35.97957 0,-34.46735 -1.36222,-37.592 -14.85066,-34.06469 -3.49715,0.91454 -8.41004,-0.0399 -10.91757,-2.12093 -6.51089,-5.40358 -0.78097,-11.12839 13.56411,-13.55197 11.37664,-1.92207 11.67394,-2.29993 12.68323,-16.11918 0.56845,-7.78302 0.58684,-18.05977 0.0408,-22.83725 -0.95057,-8.31786 -1.53868,-8.62474 -13.86611,-7.23527 -15.98741,1.80201 -26.82093,-4.27482 -19.79423,-11.10316 3.19747,-3.10717 14.73731,-4.52886 42.21617,-5.20093 36.397633,-0.89018 37.850063,-0.6877 38.727663,5.39908 0.7699,5.33964 -1.05295,6.58747 -11.71106,8.01703 -6.94257,0.93121 -14.02416,3.09437 -15.73682,4.80703 -1.7127,1.71267 -3.24957,11.69007 -3.415291,22.17197 l -0.30132,19.05799 12.101081,0 12.10108,0 0.92973,-14.55772 c 0.83152,-13.0198 1.62896,-14.45798 7.54817,-13.61372 6.52106,0.93012 6.60314,1.60158 5.57938,45.65435 -0.73955,31.82421 0.0121,45.97845 2.61257,49.11021 2.91152,3.50816 2.37943,6.55597 -2.62551,15.03874 -3.45241,5.85139 -4.96166,10.63888 -3.35388,10.63888 1.60781,0 2.92326,2.81223 2.92326,6.24942 0,7.70112 5.24337,17.95274 9.18224,17.95274 1.60536,0 2.91884,-5.44549 2.91884,-12.10108 0,-6.9306 1.45089,-12.10108 3.39568,-12.10108 2.20751,0 1.94286,-1.76005 -0.75631,-5.02988 -3.23692,-3.92132 -3.31857,-5.31038 -0.37042,-6.30263 4.73252,-1.59284 4.98571,-11.96407 0.32994,-13.516 -2.58023,-0.86006 -2.6076,-15.24458 -0.10861,-56.97591 1.83873,-30.70395 3.25298,-63.9936 3.1428,-73.977 -0.28316,-25.6541 -0.26713,-25.71479 6.76635,-25.71479 5.9721,0 6.23723,1.12243 4.46606,18.90794 -1.03561,10.39936 -2.19093,41.20366 -2.5674,68.45402 -0.53708,38.87751 0.18031,49.87791 3.3317,51.08698 2.2089,0.84747 6.05269,-0.49566 8.54176,-2.98473 3.66554,-3.66554 4.54117,-14.58346 4.60761,-57.4513 0.0451,-29.10918 1.16908,-54.68463 2.49769,-56.83436 1.32861,-2.14972 4.49628,-3.11019 7.03926,-2.13435 3.96005,1.51962 4.48427,9.50636 3.65262,55.65202 -0.53405,29.63276 -1.1159,57.40749 -1.293,61.72162 -0.25019,6.09129 -3.33621,9.3941 -13.81217,14.7821 -11.92326,6.13235 -13.6974,8.38378 -15.27429,19.38357 -2.24799,15.68086 -0.0605,37.77262 4.15763,41.99088 1.76933,1.76932 10.82599,3.84796 20.12591,4.61919 16.03644,1.32988 16.86146,1.79943 15.98913,9.10022 -1.10105,9.21498 -2.94422,9.75695 -20.58406,6.05284 z m -57.48013,-90.61755 -1.51264,-37.35727 -10.21682,-0.97668 c -5.61923,-0.5372 -11.328,0.1434 -12.68614,1.51263 -1.358131,1.36912 -2.722501,17.46441 -3.031921,35.76729 l -0.56261,33.27797 11.013191,1.79816 c 6.05726,0.98896 11.86874,2.65368 12.9144,3.69933 4.68705,4.68705 5.49676,-2.79453 4.08254,-37.72143 z"
       id="path3080"
       inkscape:connector-curvature="0" />
  </g>
</svg>
