<?xml version="1.0" encoding="UTF-8" standalone="no"?>
<svg
   xmlns:dc="http://purl.org/dc/elements/1.1/"
   xmlns:cc="http://creativecommons.org/ns#"
   xmlns:rdf="http://www.w3.org/1999/02/22-rdf-syntax-ns#"
   xmlns:svg="http://www.w3.org/2000/svg"
   xmlns="http://www.w3.org/2000/svg"
   viewBox="0 0 300 300"
   height="300"
   width="300"
   id="svg10"
   version="1.1">
  <metadata
     id="metadata16">
    <rdf:RDF>
      <cc:Work
         rdf:about="">
        <dc:format>image/svg+xml</dc:format>
        <dc:type
           rdf:resource="http://purl.org/dc/dcmitype/StillImage" />
        <dc:title></dc:title>
      </cc:Work>
    </rdf:RDF>
  </metadata>
  <defs
     id="defs14" />
  <path
     id="path20"
     d="m 72.083428,279.04802 c 0.256585,-2.21992 2.108748,-3.18977 7.527932,-9.83257 14.045574,-17.21697 34.85604,-40.28139 26.25568,-60.06906 C 100.75562,197.38607 91.563258,191.83464 78.221154,179.93028 61.999382,165.45656 58.414197,150.01905 65.082885,133.43875 72.290404,115.51876 82.796053,107.91581 102.89872,99.736662 l 0.10462,-25.589907 -15.525938,-0.08358 c -10.107339,-0.05442 -14.140587,-0.60944 -15.845688,-1.321878 -4.602465,-1.923033 -6.222261,-7.176145 -2.659479,-8.624882 3.893279,-1.583125 9.67882,-2.159054 21.688962,-2.159054 H 103.00538 V 43.773278 l -12.980105,0.01644 C 76.030202,43.807438 73.152716,43.475251 70.74231,41.064839 69.010659,39.333188 68.14429,35.320704 68.974994,33.818942 70.764689,30.583501 74.714677,30.93474 102.39555,30.927696 l 30.33641,-0.0077 c 4.78269,0.04037 8.71054,7.250082 5.77653,9.417486 -2.55721,1.88906 -6.67491,3.424263 -13.72931,3.494302 l -10.53712,0.06115 0.12715,18.002973 8.35267,0.06147 c 11.97856,0.08816 15.31053,1.580845 14.70357,7.088682 -0.48537,4.404321 -8.81279,4.850623 -12.43436,4.936565 l -10.62188,0.108596 v 23.247832 c 9.45356,-1.94302 17.76726,-2.68631 27.46785,-2.95656 l 0.51186,-27.702588 c 0.52981,-28.673438 0.0964,-37.075508 1.17948,-44.802188 1.29197,-11.510385 9.31967,-6.478099 9.91129,-0.05884 0.13593,1.474805 0.26324,18.469429 -0.007,37.80562 l -0.40957,34.555236 c 10.68023,0.11287 19.39787,0.80216 30.21137,3.02915 l 0.12435,-22.049018 -11.88012,-0.04771 c -12.86432,-0.05166 -15.2641,-1.565356 -15.2641,-6.859976 0,-4.141324 0.39947,-5.062908 13.7214,-5.546293 0,0 13.21254,0.0912 13.36915,-0.08416 l 0.11366,-19.893043 -8.89196,-0.246172 c -7.01348,-0.194166 -15.71515,-0.632829 -15.66371,-6.11485 0.018,-1.912796 0.49538,-3.720982 4.67206,-5.470444 4.03139,-1.688606 4.31776,-1.691568 26.19427,-1.702662 l 28.70034,0.474617 c 7.43111,0.122888 13.07031,7.304954 5.73029,10.664992 -4.21309,1.928625 -4.70921,1.948776 -18.22093,2.123681 l -9.85208,0.127533 -0.13615,19.982692 19.28511,0.226618 c 9.50568,0.1117 11.80005,-0.239548 13.35726,0.731879 5.52605,3.447265 4.89568,7.637959 0.91091,9.66409 -3.75185,1.907693 -3.77993,1.853696 -18.14985,1.865942 l -15.45859,0.01338 -0.25748,24.548434 c 20.17755,6.328478 34.37011,18.580538 39.76183,33.375938 7.82442,21.47093 -2.67206,36.54413 -15.26151,48.4939 -17.18883,16.22002 -22.88917,20.75937 -26.42201,29.34851 -8.68789,21.12225 15.93929,45.10634 34.88075,66.43452 5.18613,5.51796 -5.01287,10.04949 -8.46254,6.43109 -15.50591,-16.26438 -31.39638,-36.05148 -36.07783,-48.3466 -4.5451,-11.93704 -5.46689,-22.56297 3.93393,-35.90774 10.49175,-14.89336 30.92611,-27.86096 37.82011,-42.72137 8.69368,-18.73973 -11.40101,-40.43949 -30.08319,-45.52282 l -0.24573,26.86642 13.46226,0.0896 c 9.83809,0.22069 10.8107,1.01575 11.79852,5.22104 0.85999,3.66113 -3.41877,5.3121 -5.82646,5.69054 -4.05996,0.60553 -11.68335,0.30668 -29.54534,0.0915 -28.94474,-0.34872 -29.63758,-0.80407 -28.93738,-5.89022 0.74254,-5.39367 11.66316,-5.16126 15.44107,-5.19562 l 11.2913,0.0556 0.0653,-29.34556 c -20.70593,-4.41344 -45.16181,-4.29491 -68.75715,0.46645 l 0.11384,29.97507 14.2446,0.12499 c 8.58428,6.9e-4 11.03184,-0.0434 12.82298,1.2093 8.20615,5.73926 3.56076,9.59026 -3.57181,9.59259 l -53.801275,0.0176 c -4.123981,9.5e-4 -5.487966,-0.36048 -5.322358,-4.31143 0.236284,-5.63708 6.917922,-6.15822 11.873801,-6.31781 l 12.080652,-0.1174 0.0908,-27.10618 c -17.62808,6.75095 -35.379335,25.4631 -29.595337,43.04954 6.209961,18.8816 25.947302,24.79891 37.610247,40.51174 9.93185,13.38061 10.6697,24.52486 6.57721,37.45083 -3.16242,9.98836 -21.753,35.49532 -30.520812,45.2791 -6.563705,7.32428 -16.02199,9.33295 -14.993712,0.43653 z"
     style="fill:#000000;stroke-width:0.69102842" />
</svg>
