<?xml version="1.0" encoding="UTF-8" standalone="no"?>
<!-- Created with Inkscape (http://www.inkscape.org/) -->

<svg
   xmlns:dc="http://purl.org/dc/elements/1.1/"
   xmlns:cc="http://creativecommons.org/ns#"
   xmlns:rdf="http://www.w3.org/1999/02/22-rdf-syntax-ns#"
   xmlns:svg="http://www.w3.org/2000/svg"
   xmlns="http://www.w3.org/2000/svg"
   xmlns:sodipodi="http://sodipodi.sourceforge.net/DTD/sodipodi-0.dtd"
   xmlns:inkscape="http://www.inkscape.org/namespaces/inkscape"
   width="300"
   height="300"
   id="svg2"
   version="1.1"
   inkscape:version="0.48.4 r9939"
   sodipodi:docname="image-seal.svg">
  <defs
     id="defs4" />
  <sodipodi:namedview
     id="base"
     pagecolor="#ffffff"
     bordercolor="#666666"
     borderopacity="1.0"
     inkscape:pageopacity="0.0"
     inkscape:pageshadow="2"
     inkscape:zoom="2.0018437"
     inkscape:cx="145.03351"
     inkscape:cy="130.6666"
     inkscape:document-units="px"
     inkscape:current-layer="layer1"
     showgrid="false"
     inkscape:window-width="1215"
     inkscape:window-height="1000"
     inkscape:window-x="65"
     inkscape:window-y="24"
     inkscape:window-maximized="1"
     fit-margin-top="10"
     fit-margin-left="10"
     fit-margin-right="10"
     fit-margin-bottom="10" />
  <metadata
     id="metadata7">
    <rdf:RDF>
      <cc:Work
         rdf:about="">
        <dc:format>image/svg+xml</dc:format>
        <dc:type
           rdf:resource="http://purl.org/dc/dcmitype/StillImage" />
        <dc:title />
      </cc:Work>
    </rdf:RDF>
  </metadata>
  <g
     inkscape:label="Calque 1"
     inkscape:groupmode="layer"
     id="layer1"
     transform="translate(0,-752.36218)">
    <path
       style="fill:#000000"
       d="m 230.04462,1045.1248 c -2.53178,-1.9361 -6.43951,-8.2079 -8.68383,-13.9374 -2.2443,-5.7295 -5.18408,-11.8801 -6.53285,-13.668 -1.34874,-1.7879 -2.5628,-11.8331 -2.69789,-22.32274 -0.13513,-10.4895 -1.53081,-23.2464 -3.10161,-28.34866 -1.57084,-5.10226 -3.32644,-29.21079 -3.90139,-53.57452 -0.57494,-24.36372 -1.35823,-44.96735 -1.74063,-45.78585 -0.38238,-0.8185 -0.35815,-2.82754 0.0539,-4.46454 0.41202,-1.637 1.08625,-6.99445 1.4983,-11.90545 6.68928,-79.72802 11.02736,-100.23429 19.42737,-91.83429 3.0383,3.0383 1.20409,26.69202 -5.73646,73.97611 -1.44172,9.822 -3.48773,23.88531 -4.54672,31.25181 -2.01815,14.03857 1.69706,24.60787 6.7917,19.32147 1.56444,-1.62331 3.62488,-13.66638 4.57881,-26.76238 3.45865,-47.48333 6.44555,-58.03906 16.42294,-58.03906 3.9982,0 3.89332,6.62321 -0.63623,40.18089 -4.31656,31.97955 -4.28837,69.41022 0.0661,87.59907 5.23575,21.87084 -0.92359,28.14603 -11.15519,11.36497 -4.21388,-6.91126 -5.90103,-14.98453 -5.90897,-28.27544 -0.006,-10.40986 -1.32193,-18.60226 -2.9875,-18.60226 -7.97861,0 -0.0342,87.02561 11.78253,129.07107 6.58847,23.4424 5.63264,31.3505 -2.99217,24.7552 z m -93.83044,-10.2169 c 1.08259,-4.5018 3.01556,-12.8728 4.29546,-18.6023 1.27992,-5.7295 4.48359,-15.105 7.11928,-20.8344 3.55502,-7.72792 5.39977,-25.40078 7.14574,-68.45633 1.29448,-31.92148 2.05503,-64.06619 1.69012,-71.43269 -0.36487,-7.3665 -1.38829,-32.47955 -2.27421,-55.80679 -1.52883,-40.25545 -1.32299,-42.41316 4.04646,-42.41316 4.47386,0 6.05314,2.88853 7.54999,13.80904 1.04098,7.59496 1.89273,18.77198 1.89273,24.83777 0,10.86081 6.86361,20.88043 14.30347,20.88043 1.8796,0 5.59901,3.32948 8.26536,7.39882 4.09243,6.24587 4.56514,13.08698 3.03333,43.90134 -0.99801,20.0764 -2.60593,61.95042 -3.57316,93.05341 -0.96913,31.16465 -3.11946,58.20626 -4.79012,60.23846 -7.49532,9.1175 -8.82167,-1.3605 -6.82197,-53.89238 3.10154,-81.47801 1.37129,-138.7942 -4.18992,-138.7942 -5.45338,0 -9.20336,33.99006 -9.20336,83.41999 0,37.47558 -1.30793,58.22375 -4.42469,70.18973 -2.43356,9.3431 -5.21262,23.80666 -6.17568,32.14106 -2.23927,19.3794 -6.75479,28.5472 -14.06045,28.5472 -4.81668,0 -5.46395,-1.3837 -3.82838,-8.185 z M 53.653857,963.79134 c -6.0999,-6.09994 -1.3365,-9.98921 12.23431,-9.98921 23.02553,0 24.50939,-4.47055 17.91749,-53.98127 l -3.51234,-26.38051 -12.68201,0 c -6.97511,0 -13.56483,-1.42847 -14.64388,-3.17438 -2.79189,-4.51737 -0.87845,-5.64205 13.84907,-8.14002 12.84711,-2.17905 13.08489,-2.43306 14.54875,-15.54087 0.8185,-7.32908 1.01849,-19.01791 0.4444,-25.97515 l -1.04381,-12.64954 -14.40645,0 c -15.78395,0 -20.23382,-3.14929 -12.96905,-9.17851 5.60276,-4.64988 53.397953,-8.63547 62.947163,-5.24911 11.66847,4.13789 8.26798,11.45125 -5.3245,11.45125 l -12.021343,0 0.85999,26.04317 c 0.839593,25.42701 1.036003,26.05383 8.300853,26.49397 4.0925,0.24793 9.21333,0.58277 11.37959,0.74409 8.73142,0.65019 1.75433,10.73809 -8.43701,12.19874 l -10.38348,1.48818 -1.488173,28.68844 c -2.13852,41.22509 -0.99536,45.51141 12.436363,46.63088 22.20783,1.85091 21.73631,15.52515 -0.53092,15.39752 -5.7295,-0.0327 -20.543503,0.66799 -32.920023,1.55741 -12.37652,0.88943 -23.42626,0.69364 -24.55499,-0.43508 z m 75.084653,-30.07965 c -0.13661,-1.22775 -0.10268,-30.32589 0.0756,-64.66254 0.31237,-60.18919 2.03134,-72.32646 9.22461,-65.13319 4.16125,4.16125 3.97237,118.42394 -0.20864,126.23629 -3.06095,5.71941 -8.60913,7.89162 -9.09145,3.55944 z"
       id="path3208"
       inkscape:connector-curvature="0" />
  </g>
</svg>
