<?xml version="1.0" encoding="UTF-8" standalone="no"?>
<!-- Created with Inkscape (http://www.inkscape.org/) -->

<svg
   xmlns:dc="http://purl.org/dc/elements/1.1/"
   xmlns:cc="http://creativecommons.org/ns#"
   xmlns:rdf="http://www.w3.org/1999/02/22-rdf-syntax-ns#"
   xmlns:svg="http://www.w3.org/2000/svg"
   xmlns="http://www.w3.org/2000/svg"
   xmlns:sodipodi="http://sodipodi.sourceforge.net/DTD/sodipodi-0.dtd"
   xmlns:inkscape="http://www.inkscape.org/namespaces/inkscape"
   width="300"
   height="300"
   id="svg2"
   version="1.1"
   inkscape:version="0.48.4 r9939"
   sodipodi:docname="dessin.svg">
  <defs
     id="defs4" />
  <sodipodi:namedview
     id="base"
     pagecolor="#ffffff"
     bordercolor="#666666"
     borderopacity="1.0"
     inkscape:pageopacity="0.0"
     inkscape:pageshadow="2"
     inkscape:zoom="1.979899"
     inkscape:cx="156.32962"
     inkscape:cy="101.52144"
     inkscape:document-units="px"
     inkscape:current-layer="layer1"
     showgrid="false"
     inkscape:window-width="1215"
     inkscape:window-height="1000"
     inkscape:window-x="65"
     inkscape:window-y="24"
     inkscape:window-maximized="1" />
  <metadata
     id="metadata7">
    <rdf:RDF>
      <cc:Work
         rdf:about="">
        <dc:format>image/svg+xml</dc:format>
        <dc:type
           rdf:resource="http://purl.org/dc/dcmitype/StillImage" />
        <dc:title />
      </cc:Work>
    </rdf:RDF>
  </metadata>
  <g
     inkscape:label="Calque 1"
     inkscape:groupmode="layer"
     id="layer1"
     transform="translate(0,-752.36218)">
    <path
       style="fill:#000000"
       d="m 222.52222,1035.8174 c -0.81325,-2.2921 -2.24408,-10.6041 -3.17966,-18.4711 -0.93555,-7.867 -3.08135,-22.51688 -4.76842,-32.55536 -2.94927,-17.54882 -3.33594,-18.18259 -10.03967,-16.45538 -3.83475,0.98807 -9.02713,2.93343 -11.53861,4.32315 -7.24097,4.00666 -23.9012,3.09528 -23.9012,-1.30748 0,-3.5412 6.22602,-7.10252 29.05521,-16.6196 8.77679,-3.65889 12.74953,-10.43523 10.54506,-17.98674 -0.65486,-2.24318 -1.92579,-7.70732 -2.82433,-12.14249 -1.48194,-7.3149 -2.74734,-8.06397 -13.62243,-8.06397 -20.92862,0 -19.87721,-9.66901 1.40806,-12.94872 14.27271,-2.1992 21.59884,2.67476 26.07492,17.34724 4.06248,13.31665 7.38533,10.63171 10.14509,-8.19752 3.12003,-21.2873 -0.76535,-27.02051 -17.81347,-26.28522 -11.02149,0.47536 -21.27854,-3.13958 -21.27854,-7.49931 0,-1.20394 5.18516,-3.82197 11.52258,-5.81778 13.98495,-4.40428 25.65857,-1.38578 36.43417,9.42096 6.70964,6.72901 7.49691,9.45406 7.17032,24.81905 -0.39637,18.6496 -3.27491,26.8434 -13.6693,38.90995 -5.31395,6.16885 -6.71388,10.96952 -6.84092,23.4588 -0.0879,8.63652 0.55035,17.68209 1.4182,20.10127 1.64133,4.57523 4.34922,24.43485 5.38769,39.51335 0.64336,9.342 -6.88123,14.3587 -9.68475,6.4569 z m -89.57683,-15.6693 c -0.99412,-1.0752 -1.80747,-19.5944 -1.80747,-41.15389 l 0,-39.19899 -14.23378,2.12747 c -23.390437,3.49609 -55.614276,2.87502 -59.329861,-1.1435 -4.580702,-4.95415 -2.028869,-6.92086 12.891465,-9.93564 7.029346,-1.42034 13.490885,-3.34989 14.35901,-4.28786 0.868152,-0.93797 2.013767,-18.28188 2.54584,-38.54204 l 0.967381,-36.83664 -10.456568,1.79809 c -12.188534,2.09591 -21.234899,-2.04231 -14.57886,-6.66901 2.206236,-1.53358 8.611437,-3.6289 14.23378,-4.65627 l 10.222456,-1.86797 0,-23.03242 0,-23.03245 -11.522584,-0.90169 c -8.01199,-0.62697 -11.522582,-2.22914 -11.522582,-5.2587 0,-3.40695 6.79873,-5.09025 31.178754,-7.71959 17.148319,-1.84939 32.255779,-2.28667 33.572149,-0.97171 3.99979,3.99559 -0.47625,11.56072 -7.05291,11.92038 -3.4019,0.18592 -7.40531,0.64482 -8.89647,1.01954 -1.49115,0.3747 -4.23624,0.88227 -6.10019,1.12793 -2.37324,0.31277 -3.38899,7.03826 -3.38899,22.43925 l 0,21.99261 8.94695,0 c 9.99295,0 15.76479,4.50858 13.59629,10.62057 -0.87241,2.45889 -5.49492,4.04119 -11.80582,4.04119 -12.69547,0 -12.79636,0.30784 -13.93449,42.51906 l -0.869725,32.25583 15.460105,1.48979 c 18.11137,1.74521 17.0764,3.67195 19.92233,-37.08762 2.28328,-32.70097 11.81938,-56.43922 24.5536,-61.12141 9.75913,-3.58833 17.98778,-13.03363 16.06819,-18.44401 -0.79549,-2.2421 -1.44634,-9.90663 -1.44634,-17.03228 l 0,-12.95575 -20.0439,0 c -15.00098,0 -20.42313,-1.06886 -21.55121,-4.24841 -2.0003,-5.63785 5.15566,-7.85541 26.47756,-8.20512 22.00489,-0.36092 26.63143,4.01433 28.67359,27.11605 2.40328,27.18689 -3.31651,43.98447 -14.97725,43.98447 -13.41881,0 -30.39036,26.99652 -23.01441,36.60892 2.33447,3.04231 4.93763,3.39761 9.91055,1.35268 9.8722,-4.05957 18.80862,-3.39229 22.71304,1.69598 4.68243,6.10222 3.24135,7.01181 -16.57817,10.46403 -9.48303,1.65177 -18.06565,4.44483 -19.07248,6.2068 -1.00685,1.76198 -1.64482,11.2517 -1.41773,21.08826 0.45006,19.49553 -0.39766,18.8251 19.39123,15.33603 12.29213,-2.1673 19.20714,1.18437 16.74732,8.11741 -1.13138,3.18887 -5.0412,4.69445 -12.19085,4.69445 -5.78893,0 -14.37865,1.45286 -19.0883,3.22858 l -8.56295,3.22855 0.97601,31.22656 c 0.53681,17.17459 0.41744,32.87599 -0.26517,34.89199 -1.33491,3.9419 -6.75198,4.8973 -9.69846,1.7105 z m 65.80094,-178.60808 c -4.71911,-6.14998 0.60807,-9.93332 14.07328,-9.99482 12.94396,-0.0593 16.85339,-5.80072 16.93932,-24.87793 0.0908,-20.19108 -3.43431,-24.51094 -20.89487,-25.60501 -10.28774,-0.64464 -14.01304,-2.0474 -14.01304,-5.27659 0,-3.27661 3.82932,-4.61809 15.01318,-5.25934 12.07995,-0.69264 16.84731,0.4737 24.40076,5.96974 9.17522,6.67604 9.40537,7.33409 10.17338,29.08744 0.71987,20.39005 0.18789,23.02525 -6.34119,31.41771 -6.32742,8.13308 -8.73563,9.16084 -21.4656,9.16084 -9.74605,0 -15.47456,-1.48041 -17.88522,-4.62204 z"
       id="path3078"
       inkscape:connector-curvature="0" />
  </g>
</svg>
