<?xml version="1.0" encoding="UTF-8" standalone="no"?>
<!-- Created with Inkscape (http://www.inkscape.org/) -->

<svg
   xmlns:dc="http://purl.org/dc/elements/1.1/"
   xmlns:cc="http://creativecommons.org/ns#"
   xmlns:rdf="http://www.w3.org/1999/02/22-rdf-syntax-ns#"
   xmlns:svg="http://www.w3.org/2000/svg"
   xmlns="http://www.w3.org/2000/svg"
   xmlns:sodipodi="http://sodipodi.sourceforge.net/DTD/sodipodi-0.dtd"
   xmlns:inkscape="http://www.inkscape.org/namespaces/inkscape"
   width="300"
   height="300"
   id="svg2"
   version="1.1"
   inkscape:version="0.48.4 r9939"
   sodipodi:docname="image-seal.svg">
  <defs
     id="defs4" />
  <sodipodi:namedview
     id="base"
     pagecolor="#ffffff"
     bordercolor="#666666"
     borderopacity="1.0"
     inkscape:pageopacity="0.0"
     inkscape:pageshadow="2"
     inkscape:zoom="2.0018437"
     inkscape:cx="145.03351"
     inkscape:cy="130.6666"
     inkscape:document-units="px"
     inkscape:current-layer="layer1"
     showgrid="false"
     inkscape:window-width="1215"
     inkscape:window-height="1000"
     inkscape:window-x="65"
     inkscape:window-y="24"
     inkscape:window-maximized="1"
     fit-margin-top="10"
     fit-margin-left="10"
     fit-margin-right="10"
     fit-margin-bottom="10" />
  <metadata
     id="metadata7">
    <rdf:RDF>
      <cc:Work
         rdf:about="">
        <dc:format>image/svg+xml</dc:format>
        <dc:type
           rdf:resource="http://purl.org/dc/dcmitype/StillImage" />
        <dc:title />
      </cc:Work>
    </rdf:RDF>
  </metadata>
  <g
     inkscape:label="Calque 1"
     inkscape:groupmode="layer"
     id="layer1"
     transform="translate(0,-752.36218)">
    <path
       style="fill:#000000"
       d="m 111.56418,1045.817 c -0.84982,-0.8498 -0.87941,-21.3535 -0.0658,-45.5638 l 1.47937,-44.01868 -28.537558,0 c -22.09371,0 -29.350939,-0.98008 -32.139779,-4.34044 -4.829662,-5.81938 -2.504086,-7.51258 11.285249,-8.21663 6.38203,-0.32587 12.91646,-1.90522 14.52095,-3.50972 1.76049,-1.76047 2.5975,-16.37372 2.11085,-36.85322 l -0.80643,-33.93597 -9.96708,-1.42387 c -7.59397,-1.08484 -9.967082,-2.77993 -9.967082,-7.11934 0,-4.22291 2.208842,-5.93619 8.543212,-6.62654 4.69877,-0.51208 9.79653,-2.14985 11.32836,-3.63947 1.53183,-1.48962 2.90865,-12.82119 3.05958,-25.18126 0.25658,-21.00963 -0.16517,-22.67319 -6.47882,-25.54984 -3.71428,-1.69232 -8.47806,-3.07697 -10.58618,-3.07697 -4.19173,0 -7.923904,-6.96007 -5.195316,-9.68866 3.324006,-3.32402 56.466314,-1.80467 59.985974,1.71499 5.48167,5.4817 4.0932,7.54255 -7.40226,10.98666 -14.372505,4.30612 -18.955628,14.34943 -15.744918,34.50312 2.174053,13.64664 3.097578,14.99707 11.797778,17.25122 13.16378,3.41062 11.48701,12.0997 -2.3721,12.29223 l -9.914718,0.13783 -1.45648,34.0351 c -0.80104,18.71932 -1.01869,35.54742 -0.4836,37.39577 0.88035,3.04119 14.998808,9.45415 20.813718,9.45415 1.29862,0 2.10909,-5.79213 1.80096,-12.8714 -0.46546,-10.69542 0.72752,-14.06543 7.0567,-19.93416 6.2045,-5.75317 10.54406,-7.06276 23.40367,-7.06276 l 15.78686,0 0,-11.34123 0,-11.34123 -21.46158,0.66222 c -20.77333,0.64097 -26.73407,-1.5781 -26.90636,-10.0168 -0.0387,-1.89426 83.1441,-3.44793 116.71362,-2.17995 14.62282,0.55232 19.51008,3.65957 14.7594,9.38381 -2.42394,2.92067 -9.214,3.5712 -27.34289,2.61969 -31.18682,-1.63691 -38.67577,0.20732 -38.67577,9.5234 0,9.08998 8.87346,12.69009 31.27823,12.69009 15.88986,0 16.94882,0.45313 22.66198,9.69723 5.4707,8.85176 6.11651,15.05909 7.40713,71.19342 1.39249,60.56581 1.32554,61.49621 -4.42646,61.49621 -3.21222,0 -6.38588,-1.6018 -7.05259,-3.5597 -0.66671,-1.9578 -1.83312,-28.0035 -2.59196,-57.87938 -0.84173,-33.13795 -2.70851,-57.23604 -4.78727,-61.79843 -6.36968,-13.97997 -38.7413,-13.97743 -45.11143,0.003 -3.08128,6.76266 -2.41491,8.37123 7.88521,19.03473 13.20681,13.67267 16.51167,25.91207 17.28238,64.00478 0.46409,22.9368 -0.0721,25.9206 -5.14526,28.6357 -9.86844,5.2814 -10.5153,2.6886 -11.32511,-45.39598 -0.3478,-20.65071 -1.37321,-25.41238 -6.98177,-32.42146 -5.73093,-7.16195 -7.36843,-7.79061 -12.76706,-4.90136 -8.03404,4.29969 -8.90895,8.85746 -10.0532,52.3704 -0.96618,36.7422 -3.75223,46.892 -10.90751,39.7367 -3.01305,-3.013 -3.74082,-44.2378 -1.24364,-70.44672 0.4477,-4.69877 1.01459,-11.31848 1.25973,-14.71047 0.24519,-3.392 5.57168,-11.02456 11.8367,-16.96127 11.34072,-10.74645 15.29508,-23.95784 8.43921,-28.19502 -4.72135,-2.91796 -33.77325,7.41358 -35.24282,12.53318 -1.49848,5.22036 -3.62594,29.09749 -6.08445,68.28794 -1.55119,24.72726 -1.24696,26.94746 4.21719,30.77466 7.4814,5.2402 7.57831,12.4365 0.19336,14.3677 -3.13251,0.8192 -5.69548,2.6214 -5.69548,4.005 0,2.7265 -9.46451,3.4928 -11.98683,0.9705 z m 84.61845,-185.65516 c -5.96925,-1.50956 -26.50189,-14.93758 -37.96463,-24.82831 -10.88112,-9.38885 -16.75329,-19.26651 -18.82246,-31.66157 -1.88685,-11.30272 -1.48771,-12.05384 15.59634,-29.35134 13.82497,-13.99768 19.08297,-17.56695 24.86337,-16.8778 10.20236,1.21636 11.0337,6.84203 2.12851,14.40389 -18.75895,15.92924 -29.95537,27.63355 -29.95537,31.31423 0,6.28535 13.2297,17.33545 17.58753,14.68999 4.1149,-2.49803 22.63205,-19.12631 40.28839,-36.17873 11.9378,-11.52952 19.90771,-12.73913 21.27493,-3.22894 0.57354,3.98934 -1.67387,7.11672 -7.11934,9.90699 -4.3766,2.24257 -13.0921,9.3039 -19.3678,15.69189 -6.2757,6.38796 -14.9257,13.9178 -19.22223,16.73299 -14.91328,9.77155 -6.79014,21.30626 15.11243,21.45935 13.20265,0.0923 19.79178,-3.51126 19.79178,-10.82396 0,-6.27798 10.89814,-14.31077 17.18501,-12.66671 7.68265,2.00905 7.01625,6.6919 -2.2344,15.70128 -4.3072,4.19486 -12.26355,12.16912 -17.6808,17.72056 -9.92225,10.1681 -11.11517,10.61258 -21.46126,7.99619 z"
       id="path3119"
       inkscape:connector-curvature="0" />
  </g>
</svg>
