<?xml version="1.0" encoding="UTF-8" standalone="no"?>
<!-- Created with Inkscape (http://www.inkscape.org/) -->

<svg
   xmlns:dc="http://purl.org/dc/elements/1.1/"
   xmlns:cc="http://creativecommons.org/ns#"
   xmlns:rdf="http://www.w3.org/1999/02/22-rdf-syntax-ns#"
   xmlns:svg="http://www.w3.org/2000/svg"
   xmlns="http://www.w3.org/2000/svg"
   xmlns:sodipodi="http://sodipodi.sourceforge.net/DTD/sodipodi-0.dtd"
   xmlns:inkscape="http://www.inkscape.org/namespaces/inkscape"
   width="300"
   height="300"
   id="svg2"
   version="1.1"
   inkscape:version="0.48.4 r9939"
   sodipodi:docname="image-seal.svg">
  <defs
     id="defs4" />
  <sodipodi:namedview
     id="base"
     pagecolor="#ffffff"
     bordercolor="#666666"
     borderopacity="1.0"
     inkscape:pageopacity="0.0"
     inkscape:pageshadow="2"
     inkscape:zoom="2.0018437"
     inkscape:cx="145.03351"
     inkscape:cy="130.6666"
     inkscape:document-units="px"
     inkscape:current-layer="layer1"
     showgrid="false"
     inkscape:window-width="1215"
     inkscape:window-height="1000"
     inkscape:window-x="65"
     inkscape:window-y="24"
     inkscape:window-maximized="1"
     fit-margin-top="10"
     fit-margin-left="10"
     fit-margin-right="10"
     fit-margin-bottom="10" />
  <metadata
     id="metadata7">
    <rdf:RDF>
      <cc:Work
         rdf:about="">
        <dc:format>image/svg+xml</dc:format>
        <dc:type
           rdf:resource="http://purl.org/dc/dcmitype/StillImage" />
        <dc:title />
      </cc:Work>
    </rdf:RDF>
  </metadata>
  <g
     inkscape:label="Calque 1"
     inkscape:groupmode="layer"
     id="layer1"
     transform="translate(0,-752.36218)">
    <path
       style="fill:#000000"
       d="m 179.31396,1044.3545 c -0.57947,-1.7224 -0.67504,-19.478 -0.21239,-39.457 0.46266,-19.97901 0.23101,-38.86199 -0.51478,-41.96218 -2.76876,-11.50954 -26.31255,-4.74061 -26.31255,7.56496 0,2.22161 -1.07442,4.70303 -2.3876,5.5147 -1.41087,0.87207 -1.8592,12.97421 -1.09593,29.58392 1.41153,30.7171 -0.91234,39.8378 -7.8375,30.7612 -4.37652,-5.7362 -5.4214,-60.17175 -1.205,-62.77767 1.37787,-0.85152 2.50521,-3.6363 2.50521,-6.1881 0,-6.80789 13.34892,-16.88666 24.96511,-18.84921 9.10196,-1.53777 10.10775,-2.43363 10.10775,-9.00311 0,-6.49514 -0.8557,-7.2954 -7.80082,-7.2954 -11.44644,0 -27.27204,-9.62234 -27.27204,-16.58205 0,-3.10124 -1.08426,-8.49044 -2.40948,-11.97603 -1.34924,-3.54877 -1.44872,-6.9312 -0.22607,-7.68682 4.68031,-2.89258 9.62867,1.90038 11.06884,10.7212 1.59761,9.78516 9.27031,15.50288 20.80353,15.50288 l 5.69109,0 -0.15259,-49.04396 c -0.0839,-26.97416 0.46374,-49.66029 1.21703,-50.41359 0.75329,-0.75329 3.10926,-0.70206 5.23547,0.11374 3.27608,1.25717 3.87107,8.08828 3.90006,44.77688 0.0404,51.15407 0.65014,54.59587 9.65249,54.48714 9.47654,-0.11449 14.49011,-4.90276 17.72949,-16.93287 2.98754,-11.09483 4.7383,-12.46097 9.66085,-7.53844 3.77289,3.77289 3.82317,10.6627 0.15182,20.81542 -2.30276,6.36815 -4.97244,8.46007 -13.81458,10.82498 -6.02813,1.61228 -13.19873,2.93142 -15.93468,2.93142 -3.64448,0 -4.97446,1.68533 -4.97446,6.30355 0,6.38789 3.05159,8.43617 24.21083,16.2507 8.3904,3.09874 11.54719,8.62022 15.75139,27.54979 3.41185,15.36217 3.34471,54.37495 -0.0972,56.50215 -4.62345,2.8574 -7.93608,-3.0238 -8.80331,-15.6294 -1.17387,-17.0633 -3.28083,-32.56149 -6.46077,-47.52356 -2.88649,-13.58122 -9.33728,-19.80021 -18.63492,-17.96508 -4.42944,0.87432 -4.65693,3.37902 -3.77617,41.57788 0.69056,29.95046 0.11536,41.63796 -2.18566,44.41056 -3.79702,4.5752 -9.10861,4.8931 -10.5425,0.6313 z M 70.94756,939.91186 c -3.138407,-5.07805 1.530876,-7.66525 13.834001,-7.66525 l 12.378172,0 0,-31.04702 c 0,-34.26088 0.0844,-34.0883 -16.672417,-34.0883 -6.976856,0 -8.578874,-0.88722 -7.916185,-4.38411 0.580641,-3.06391 3.653525,-4.61823 10.204512,-5.16164 l 9.373682,-0.77752 0,-17.38521 0,-17.3852 -10.020819,0 c -10.535599,0 -12.502002,-2.3377 -6.297676,-7.48686 4.188643,-3.47624 45.78994,-4.9749 50.65565,-1.82481 3.52376,2.28129 1.37396,10.00183 -2.17439,7.80883 -1.31179,-0.81074 -5.13935,-0.78278 -8.5057,0.0621 -5.16689,1.29678 -6.12063,3.04141 -6.12063,11.19611 0,5.31295 0.70459,13.18288 1.56575,17.4887 1.31795,6.58979 2.70562,7.82877 8.76821,7.82877 5.53234,0 7.20247,1.16184 7.20247,5.0104 0,3.85483 -1.67013,5.01041 -7.24153,5.01041 -8.70891,0 -9.55322,4.07074 -8.18593,39.46729 l 0.89553,23.18347 9.88956,1.58139 c 7.28029,1.16416 9.68521,2.64862 9.11506,5.62638 -0.64958,3.3926 -5.47861,4.17017 -29.94052,4.82095 -18.658306,0.49638 -29.757148,-0.18063 -30.8068,-1.87891 z m 82.57928,-50.75627 c -11.95596,-6.81363 -16.27757,-15.10443 -16.28077,-31.23391 -0.002,-8.49896 0.69722,-17.27755 1.55312,-19.508 2.52753,-6.58659 14.30143,-11.40134 22.51141,-9.20563 10.77834,2.88257 9.02277,8.58383 -3.39965,11.04048 -8.14626,1.611 -10.64712,3.24783 -10.64712,6.96856 0,4.0934 1.78405,4.86297 11.27342,4.86297 6.20038,0 11.27342,0.90188 11.27342,2.00417 0,4.37183 -6.42513,8.01665 -14.13181,8.01665 -4.46564,0 -8.61717,0.84551 -9.22564,1.87891 -2.58251,4.38601 3.37455,12.24021 11.78725,15.54109 5.7762,2.2664 9.06499,5.20495 9.06499,8.09965 0,5.17414 -6.18409,5.86313 -13.77862,1.53506 z m 45.09368,0.50254 c -2.42721,-3.92733 1.00613,-7.51561 7.19108,-7.51561 8.40897,0 17.0471,-9.18227 16.1261,-17.14191 -0.72955,-6.30495 -1.40057,-6.61242 -12.67006,-5.80559 -9.23001,0.6608 -11.89972,0.0175 -11.89972,-2.86347 0,-5.03519 6.5101,-7.17235 16.2703,-5.34133 5.91965,1.11051 8.47098,0.50272 9.53561,-2.27161 2.03233,-5.2962 -3.80395,-9.37841 -15.68684,-10.97225 -11.45008,-1.53576 -13.71068,-7.21624 -3.85606,-9.6896 8.68422,-2.17958 18.17514,0.63482 24.93426,7.39396 4.61829,4.61829 5.74107,8.56116 5.85636,20.56605 0.16885,17.57614 -4.47039,28.70135 -13.76717,33.01506 -8.1072,3.76174 -19.88908,4.09664 -22.03386,0.6263 z m -48.29523,-78.32184 c -2.93014,-3.11897 -7.07322,-9.8489 -9.20684,-14.95539 -3.6782,-8.80316 -3.56902,-9.98614 2.10594,-22.81825 6.85043,-15.49003 10.55347,-18.75559 15.57454,-13.73454 3.04811,3.04811 2.64126,4.7389 -2.9347,12.19617 -7.65302,10.23508 -7.24921,23.7283 0.97427,32.55515 2.79863,3.00397 4.48695,7.02911 3.75184,8.94477 -1.86111,4.84999 -4.102,4.37238 -10.26505,-2.18791 z m 65.65466,0.86395 c -4.03624,-2.50102 -10.01256,-7.45273 -13.28073,-11.00383 -5.0687,-5.50752 -5.69764,-8.04209 -4.27885,-17.24342 0.97828,-6.34452 4.65796,-14.39786 8.93494,-19.55508 6.84912,-8.25869 7.52168,-8.52108 11.57368,-4.51544 4.06131,4.01487 3.85884,4.66678 -3.61913,11.65224 -12.29731,11.48741 -10.92756,19.45397 5.44395,31.66218 11.69602,8.72172 7.51063,16.61529 -4.77386,9.00335 z m -38.84553,-7.98852 c -7.69571,-10.8076 -9.82362,-34.45084 -3.65572,-40.61876 5.29948,-5.29948 16.3736,-5.60226 16.3736,-0.44766 0,2.0668 -1.14557,3.75781 -2.54573,3.75781 -1.40016,0 -4.41213,3.91386 -6.69326,8.69747 -3.99299,8.37337 -3.92877,9.12281 1.72339,20.11241 4.09604,7.96399 5.07661,12.20926 3.24349,14.0424 -1.83312,1.8331 -4.38643,0.15708 -8.44577,-5.54367 z"
       id="path3067"
       inkscape:connector-curvature="0" />
  </g>
</svg>
