<?xml version="1.0" encoding="UTF-8" standalone="no"?>
<!-- Created with Inkscape (http://www.inkscape.org/) -->

<svg
   xmlns:dc="http://purl.org/dc/elements/1.1/"
   xmlns:cc="http://creativecommons.org/ns#"
   xmlns:rdf="http://www.w3.org/1999/02/22-rdf-syntax-ns#"
   xmlns:svg="http://www.w3.org/2000/svg"
   xmlns="http://www.w3.org/2000/svg"
   xmlns:sodipodi="http://sodipodi.sourceforge.net/DTD/sodipodi-0.dtd"
   xmlns:inkscape="http://www.inkscape.org/namespaces/inkscape"
   width="300"
   height="300"
   id="svg2"
   version="1.1"
   inkscape:version="0.48.4 r9939"
   sodipodi:docname="image-seal.svg">
  <defs
     id="defs4" />
  <sodipodi:namedview
     id="base"
     pagecolor="#ffffff"
     bordercolor="#666666"
     borderopacity="1.0"
     inkscape:pageopacity="0.0"
     inkscape:pageshadow="2"
     inkscape:zoom="2.0018437"
     inkscape:cx="145.03351"
     inkscape:cy="130.6666"
     inkscape:document-units="px"
     inkscape:current-layer="layer1"
     showgrid="false"
     inkscape:window-width="1215"
     inkscape:window-height="1000"
     inkscape:window-x="65"
     inkscape:window-y="24"
     inkscape:window-maximized="1"
     fit-margin-top="10"
     fit-margin-left="10"
     fit-margin-right="10"
     fit-margin-bottom="10" />
  <metadata
     id="metadata7">
    <rdf:RDF>
      <cc:Work
         rdf:about="">
        <dc:format>image/svg+xml</dc:format>
        <dc:type
           rdf:resource="http://purl.org/dc/dcmitype/StillImage" />
        <dc:title />
      </cc:Work>
    </rdf:RDF>
  </metadata>
  <g
     inkscape:label="Calque 1"
     inkscape:groupmode="layer"
     id="layer1"
     transform="translate(0,-752.36218)">
    <path
       style="fill:#000000"
       d="m 188.98412,1044.4918 c -0.20384,-1.9784 -1.12597,-18.3523 -2.04933,-36.3864 l -1.67885,-32.78936 -14.70169,-0.83826 c -8.08596,-0.46105 -23.35655,0.50457 -33.93466,2.14581 -20.11316,3.12067 -24.71541,1.49667 -23.06414,-8.13866 0.81678,-4.76607 21.15029,-7.55157 21.15029,-2.8974 0,1.59358 3.074,2.8974 6.8311,2.8974 3.75711,0 6.83111,-1.2296 6.83111,-2.73245 0,-1.50284 4.7647,-2.73244 10.58822,-2.73244 19.56135,0 27.66599,-2.79764 27.66599,-9.55 0,-5.00611 -2.38731,-6.77733 -12.97911,-9.62962 -16.45996,-4.43257 -24.50223,-11.69215 -28.50159,-25.72773 -3.52554,-12.37278 -3.31957,-56.20486 0.28103,-59.80546 1.26946,-1.26946 4.60332,0.11941 7.40855,3.08663 4.22835,4.4723 7.55332,5.15262 19.44579,3.97882 11.48539,-1.13361 14.34533,-2.39939 14.34533,-6.349 0,-5.08898 -2.77097,-6.4163 -19.1271,-9.16213 -14.78107,-2.48141 -24.18571,-12.13235 -24.98251,-25.63682 -0.74561,-12.63619 0.87651,-15.66824 7.10377,-13.27861 2.45683,0.94275 4.21652,4.91935 4.21652,9.52849 0,4.9037 2.73813,10.64864 7.2037,15.11422 7.77094,7.77093 10.65137,8.74004 13.28963,4.47126 0.92881,-1.50285 4.07538,-2.73245 6.99237,-2.73245 3.26265,0 5.30362,-1.8709 5.30362,-4.86167 0,-4.39716 -3.19786,-7.81897 -12.89183,-13.79463 -1.83055,-1.12842 -3.63451,-6.07056 -4.0088,-10.98254 -0.86585,-11.36349 -3.6078,-13.50357 -18.67474,-14.57551 -8.67338,-0.61704 -12.24239,-2.06583 -12.24239,-4.96963 0,-2.98855 3.33033,-4.1855 12.296,-4.41923 58.53738,-1.52607 92.6624,-1.51692 95.15816,0.0246 1.63411,1.00996 2.27847,3.64128 1.43191,5.84743 -1.06309,2.77048 -5.67507,4.01128 -14.90911,4.01128 -8.86616,0 -13.37501,1.15055 -13.38512,3.41555 -0.0432,9.66957 -5.96586,22.84848 -11.36361,25.28562 -8.91763,4.0264 -8.95468,8.39033 -0.10247,12.05707 6.09759,2.52568 9.4783,2.51128 15.13143,-0.0645 7.14037,-3.25336 7.82476,-5.22216 8.43005,-24.25027 0.1328,-4.17004 2.05745,-7.14133 4.9975,-7.71456 4.12094,-0.80351 4.76978,1.2667 4.69489,14.97955 -0.11914,21.79364 -8.26578,30.89224 -27.741,30.98219 -11.53856,0.0533 -16.69023,3.33689 -15.45235,9.84912 0.76099,4.00352 3.79529,5.31963 13.74734,5.9628 12.37395,0.79967 12.79772,0.57209 13.63762,-7.32344 0.79793,-7.50075 1.28165,-7.84313 6.08275,-4.30535 3.83881,2.82871 5.40043,7.79754 5.91492,18.82017 0.38448,8.23717 1.24646,15.95118 1.91552,17.1422 0.6691,1.19104 0.8411,7.69871 0.38227,14.46151 -0.45886,6.7628 -0.90138,14.43711 -0.98343,17.05403 -0.23636,7.539 -15.51107,20.20081 -28.88745,23.94596 -10.86127,3.04096 -16.84133,8.18399 -9.51592,8.18399 1.50284,0 2.73244,2.53522 2.73244,5.63384 0,5.26364 1.48134,5.61049 22.54266,5.27834 32.57348,-0.51367 32.10621,-0.59349 32.10621,5.48248 0,5.10309 -1.82164,5.46489 -27.5153,5.46489 l -27.51532,0 0.65204,36.20497 0.65205,36.2048 -7.29227,0.8646 c -4.52219,0.5362 -7.43304,-0.5018 -7.66278,-2.7324 z m 27.01182,-119.69602 c 7.00453,-4.27075 8.88043,-7.23931 8.88043,-14.05301 l 0,-8.63848 -32.03647,1.9153 c -37.0603,2.21569 -42.86046,5.92757 -31.49284,20.15429 4.15138,5.19552 7.48345,5.98787 25.2751,6.01044 15.65346,0.0191 22.59062,-1.25277 29.37378,-5.38854 z m 4.09866,-32.74016 c 3.48451,-0.0577 4.78177,-2.3251 4.78177,-8.35808 l 0,-8.27895 -34.83864,0.76473 c -34.39085,0.75492 -34.85053,0.84858 -35.76083,7.28685 -0.5072,3.58715 0.7224,7.64193 2.73244,9.01059 2.01004,1.36868 15.9506,1.85073 30.97904,1.07122 15.02844,-0.77948 29.47624,-1.45286 32.10622,-1.49636 z m -18.57256,-79.75858 c 7.05804,-3.21584 8.2943,-6.5662 5.3011,-14.36634 -1.1066,-2.88379 -5.08721,-4.32215 -11.96141,-4.32215 -12.92432,0 -17.54969,4.91473 -13.83082,14.69606 2.99421,7.87537 9.28076,9.10021 20.49113,3.99243 z M 56.148,939.23213 C 52.7666,938.58082 50,936.36164 50,934.30061 c 0,-6.04714 4.89096,-7.32617 7.9463,-2.07802 1.54951,2.66156 2.85469,3.30224 2.90038,1.42368 0.0571,-2.3437 5.22796,-3.41555 16.47775,-3.41555 l 16.39466,0 0,-32.4505 0,-32.4505 -10.98464,0.74528 c -8.21613,0.55742 -11.63523,-0.47042 -13.56606,-4.07823 -3.56141,-6.65456 -1.05308,-8.27447 12.81265,-8.27447 l 11.94312,0 -0.78563,-25.2751 -0.78566,-25.2751 -12.12806,-0.86539 c -15.2558,-1.08858 -23.11005,-9.07685 -11.59258,-11.79041 4.02929,-0.94934 19.35316,-1.87154 34.05305,-2.04934 21.77276,-0.2634 27.027,0.45829 28.34511,3.89322 2.20373,5.7428 0.61039,6.78944 -11.00027,7.22594 -5.49131,0.20658 -11.21422,1.85741 -12.71758,3.66886 -1.50334,1.81141 -2.41029,13.60021 -2.0154,26.1973 l 0.71795,22.9038 14.34533,0.82591 c 11.96955,0.68912 14.34533,1.68368 14.34533,6.0052 0,4.32152 -2.37578,5.31608 -14.34533,6.0052 l -14.34533,0.82591 -0.77555,29.37377 c -0.42656,16.15557 0.18827,29.42021 1.36622,29.47697 9.33023,0.44957 24.44181,3.55777 26.41346,5.4328 1.32669,1.26171 1.67269,4.22103 0.76889,6.57631 -1.38418,3.60707 -7.15031,4.22368 -36.56772,3.91024 C 78.01197,940.58373 59.5294,939.8834 56.148,939.23213 z m 97.68485,-174.09676 c 0,-2.76955 5.28251,-4.46225 18.44398,-5.91 34.34589,-3.77802 52.59954,-1.78448 52.59954,5.74458 0,3.36634 -5.97159,4.04661 -35.52177,4.04661 -28.86862,0 -35.52176,-0.72694 -35.52176,-3.88119 z"
       id="path3054"
       inkscape:connector-curvature="0" />
  </g>
</svg>
