<?xml version="1.0" encoding="UTF-8" standalone="no"?>
<!-- Created with Inkscape (http://www.inkscape.org/) -->

<svg
   xmlns:dc="http://purl.org/dc/elements/1.1/"
   xmlns:cc="http://creativecommons.org/ns#"
   xmlns:rdf="http://www.w3.org/1999/02/22-rdf-syntax-ns#"
   xmlns:svg="http://www.w3.org/2000/svg"
   xmlns="http://www.w3.org/2000/svg"
   xmlns:sodipodi="http://sodipodi.sourceforge.net/DTD/sodipodi-0.dtd"
   xmlns:inkscape="http://www.inkscape.org/namespaces/inkscape"
   width="300"
   height="300"
   id="svg2"
   version="1.1"
   inkscape:version="0.48.4 r9939"
   sodipodi:docname="dessin.svg">
  <defs
     id="defs4" />
  <sodipodi:namedview
     id="base"
     pagecolor="#ffffff"
     bordercolor="#666666"
     borderopacity="1.0"
     inkscape:pageopacity="0.0"
     inkscape:pageshadow="2"
     inkscape:zoom="1.979899"
     inkscape:cx="66.959549"
     inkscape:cy="133.99264"
     inkscape:document-units="px"
     inkscape:current-layer="layer1"
     showgrid="false"
     inkscape:window-width="1215"
     inkscape:window-height="1000"
     inkscape:window-x="65"
     inkscape:window-y="24"
     inkscape:window-maximized="1" />
  <metadata
     id="metadata7">
    <rdf:RDF>
      <cc:Work
         rdf:about="">
        <dc:format>image/svg+xml</dc:format>
        <dc:type
           rdf:resource="http://purl.org/dc/dcmitype/StillImage" />
        <dc:title />
      </cc:Work>
    </rdf:RDF>
  </metadata>
  <g
     inkscape:label="Calque 1"
     inkscape:groupmode="layer"
     id="layer1"
     transform="translate(0,-752.36218)">
    <path
       style="fill:#000000"
       d="m 226.98309,973.81418 c 0.20309,-35.67727 0.20516,-66.92789 0.005,-69.44575 -0.36679,-4.60661 -15.14999,-17.69986 -19.98435,-17.69986 -3.90781,0 -11.18015,-9.00437 -11.18015,-13.84289 0,-7.65152 -5.92218,-17.60815 -10.47329,-17.60815 -2.44935,0 -5.90634,-1.76912 -7.68219,-3.9314 -3.99852,-4.86862 0.65428,-11.79413 7.92374,-11.79413 5.49288,0 7.54839,-5.58346 6.75411,-18.34645 -0.33185,-5.33255 -1.89517,-9.06348 -3.73391,-8.91113 -1.73965,0.14425 -5.28113,0.43901 -7.86992,0.65524 -2.61349,0.21832 -6.6447,4.49946 -9.06387,9.62589 -2.39634,5.07802 -7.20061,10.32531 -10.67619,11.66061 -7.4374,2.85744 -9.16549,11.46197 -10.01589,49.87149 l -0.55127,24.89876 6.48409,0 6.4841,0 0,-27.29973 c 0,-17.91714 1.00441,-27.63858 2.92249,-28.28565 4.18878,-1.41318 5.63307,3.96534 7.30198,27.19244 1.7056,23.73777 -2.73204,36.43337 -14.7735,42.26539 -6.05246,2.93136 -7.14203,5.1013 -7.2534,14.44546 -0.0721,6.04772 -0.77366,18.36723 -1.55906,27.37664 l -1.428,16.38076 10.35929,0 c 10.44599,0 16.51039,5.8771 11.39666,11.0446 -2.69465,2.72301 -39.38696,-5.1457 -39.38696,-8.44656 0,-1.223 -1.95507,-4.19928 -4.34463,-6.61398 -3.72848,-3.76768 -4.45415,-12.06454 -5.11681,-58.5027 -0.45738,-32.05223 0.25646,-55.71506 1.751,-58.04371 5.64066,-8.78879 7.34805,4.55639 6.27138,49.01795 -0.6038,24.93436 -0.1053,45.33519 1.10778,45.33519 1.21308,0 1.7157,2.65369 1.11695,5.89708 -1.16254,6.29736 5.35464,17.60181 8.38328,14.54131 0.99667,-1.00717 2.33606,-31.38183 2.97641,-67.49929 0.99038,-55.86028 0.58538,-66.25306 -2.71165,-69.58477 -2.13174,-2.15417 -4.9835,-3.91668 -6.33723,-3.91668 -4.64527,0 -9.29279,-8.32631 -10.73284,-19.22853 -1.3328,-10.09015 -2.08905,-10.97489 -10.04013,-11.74611 -4.72931,-0.45874 -10.12012,0.44186 -11.97958,2.00127 -4.795661,4.02193 -5.641113,49.53423 -0.95119,51.20448 17.67418,6.29446 18.21733,6.66828 15.13754,10.41825 -1.68595,2.05281 -6.18957,4.09723 -10.00805,4.54319 l -6.942713,0.81081 0,38.00333 0,38.00336 8.432513,0.82153 c 7.45242,0.72605 8.12008,1.41145 5.74444,5.89707 -2.36806,4.47128 -5.61066,5.07554 -27.236403,5.07554 -22.819225,0 -24.548318,-0.3692 -24.548318,-5.24184 0,-4.52502 1.729093,-5.24184 12.643991,-5.24184 12.074493,0 12.716684,-0.36729 14.257916,-8.1545 2.413663,-12.19527 -1.180561,-66.22277 -4.554841,-68.46731 -1.592124,-1.05906 -6.1044,-1.94362 -10.02728,-1.96569 -4.348438,-0.0236 -7.132507,-1.46523 -7.132507,-3.69109 0,-4.22575 5.523637,-6.83271 14.477142,-6.83271 6.233013,0 6.271972,-0.16985 6.271972,-27.36145 l 0,-27.36147 -9.726147,-0.81344 c -7.8126,-0.6534 -9.889208,-1.97365 -10.554948,-6.71051 -0.816669,-5.81076 -0.408625,-5.89707 27.881623,-5.89707 22.53074,0 28.71042,-0.77013 28.71042,-3.57793 0,-7.51918 10.40617,-16.93408 20.65002,-18.683 15.18095,-2.59177 19.60179,-0.0236 27.28853,15.85285 l 6.9585,14.37225 17.29174,-1.70646 c 21.3378,-2.10579 23.89157,-3.43349 27.43454,-14.26343 6.30993,-19.28777 14.24631,-6.50551 13.10718,21.11031 -0.98133,23.78998 -5.93547,34.54865 -18.70662,40.62427 -6.42403,3.05611 -11.65309,7.59902 -12.54035,10.89482 -2.4694,9.17291 7.75167,24.18878 16.61161,24.40427 11.08763,0.26964 15.37291,19.4947 14.62377,65.60636 -1.42736,87.85476 -1.71146,91.73226 -6.72103,91.73226 -1.65842,0 -2.45301,-23.2581 -2.21616,-64.86782 z m -7.23436,-143.04796 c 1.06233,-1.68761 1.94936,-7.49117 1.97122,-12.89682 0.0365,-9.05954 -0.53655,-9.82845 -7.32607,-9.82845 -6.27041,0 -7.86549,1.53004 -10.72605,10.28882 -4.52846,13.86571 -2.16844,19.64338 7.06704,17.30103 3.89532,-0.98793 7.95154,-3.177 9.01386,-4.86458 z m -59.69761,-12.9485 c 4.424,-5.83844 4.70937,-17.5786 0.73135,-30.0889 -1.57211,-4.94405 -3.73388,-5.89707 -13.37637,-5.89707 -10.67242,0 -11.77205,0.65499 -15.25934,9.08903 -2.06696,4.99898 -3.75812,11.50175 -3.75812,14.45063 0,5.69568 4.76643,15.7357 9.07774,19.1214 4.41323,3.46576 17.92719,-0.52841 22.58474,-6.67509 z m 27.73977,163.74048 -8.58759,-7.75373 -0.1193,-30.89788 c -0.0837,-21.68763 0.8027,-31.20915 2.97392,-31.94212 1.82945,-0.61756 3.80186,2.77255 4.82752,8.29732 1.58273,8.52554 2.50194,9.34152 10.52332,9.34152 8.5512,0 8.78909,-0.28893 8.78909,-10.67586 0,-8.7554 0.8165,-10.5176 4.53887,-9.79605 3.53427,0.68509 4.69952,3.98859 5.26477,14.92588 0.39925,7.72532 1.89922,16.2615 3.3333,18.96925 1.53689,2.90192 1.68884,6.80632 0.37014,9.50982 -1.23051,2.52264 -2.52605,9.89398 -2.87902,16.38076 -0.71538,13.14667 -3.51501,17.20389 -13.59248,19.69816 -5.3485,1.32381 -8.74205,-0.009 -15.44251,-6.05707 z m 18.40694,-24.12477 0,-18.34644 -7.73152,0 c -9.14737,0 -12.07574,7.31692 -9.17712,22.93033 2.38122,12.82652 3.10061,13.76256 10.57761,13.76256 6.10932,0 6.33103,-0.64247 6.33103,-18.34645 z"
       id="path3082"
       inkscape:connector-curvature="0" />
  </g>
</svg>
