<?xml version="1.0" encoding="UTF-8" standalone="no"?>
<!-- Created with Inkscape (http://www.inkscape.org/) -->

<svg
   xmlns:dc="http://purl.org/dc/elements/1.1/"
   xmlns:cc="http://creativecommons.org/ns#"
   xmlns:rdf="http://www.w3.org/1999/02/22-rdf-syntax-ns#"
   xmlns:svg="http://www.w3.org/2000/svg"
   xmlns="http://www.w3.org/2000/svg"
   xmlns:sodipodi="http://sodipodi.sourceforge.net/DTD/sodipodi-0.dtd"
   xmlns:inkscape="http://www.inkscape.org/namespaces/inkscape"
   width="300"
   height="300"
   id="svg2"
   version="1.1"
   inkscape:version="0.48.4 r9939"
   sodipodi:docname="image-seal.svg">
  <defs
     id="defs4" />
  <sodipodi:namedview
     id="base"
     pagecolor="#ffffff"
     bordercolor="#666666"
     borderopacity="1.0"
     inkscape:pageopacity="0.0"
     inkscape:pageshadow="2"
     inkscape:zoom="2.0018437"
     inkscape:cx="145.03351"
     inkscape:cy="130.6666"
     inkscape:document-units="px"
     inkscape:current-layer="layer1"
     showgrid="false"
     inkscape:window-width="1215"
     inkscape:window-height="1000"
     inkscape:window-x="65"
     inkscape:window-y="24"
     inkscape:window-maximized="1"
     fit-margin-top="10"
     fit-margin-left="10"
     fit-margin-right="10"
     fit-margin-bottom="10" />
  <metadata
     id="metadata7">
    <rdf:RDF>
      <cc:Work
         rdf:about="">
        <dc:format>image/svg+xml</dc:format>
        <dc:type
           rdf:resource="http://purl.org/dc/dcmitype/StillImage" />
        <dc:title />
      </cc:Work>
    </rdf:RDF>
  </metadata>
  <g
     inkscape:label="Calque 1"
     inkscape:groupmode="layer"
     id="layer1"
     transform="translate(0,-752.36218)">
    <path
       style="fill:#000000"
       d="m 174.06065,1045.2904 c -0.89363,-0.8937 -1.63721,-23.1292 -1.65239,-49.41235 -0.0153,-26.28314 -0.74618,-49.66012 -1.62446,-51.94889 -1.71066,-4.45794 -15.0491,-5.72258 -20.94037,-1.98541 -2.1843,1.38562 -3.60479,9.81697 -4.18405,24.83443 -1.35569,35.14732 -4.43202,64.83022 -6.71895,64.83022 -5.88321,0 -6.20131,-5.7314 -3.70853,-66.81655 0.96372,-23.61515 4.57185,-29.3771 20.46175,-32.67581 9.90139,-2.05552 13.86066,-4.14584 14.82302,-7.82586 1.32052,-5.04968 -3.99139,-12.58482 -8.87169,-12.58482 -12.8273,0 -29.73508,-19.32234 -22.894,-26.16342 4.62417,-4.62417 3.43746,-7.96378 -4.41746,-12.43172 -6.17929,-3.51481 -7.57376,-6.30891 -9.05152,-18.13665 -1.76674,-14.14052 -0.0153,-27.45542 3.6118,-27.45542 1.08735,0 2.57743,2.29602 3.31129,5.10226 1.09,4.16813 3.47977,5.10225 13.05318,5.10225 10.7994,0 11.71891,-0.5004 11.71891,-6.37781 0,-3.5078 1.148,-6.37782 2.55113,-6.37782 1.4549,0 2.55112,7.58384 2.55112,17.64923 0,9.70709 0.69924,19.47141 1.55384,21.69849 1.12189,2.92357 -1.00573,5.11871 -7.65338,7.89628 -5.06396,2.11585 -9.20722,4.31043 -9.20722,4.87686 0,0.5664 2.28823,6.36802 5.08493,12.8925 4.49083,10.47669 5.90668,11.7682 12.11786,11.05381 7.83045,-0.90065 7.72519,0.32404 5.32762,-61.98079 -0.87981,-22.86359 -0.89519,-22.90966 -8.51699,-25.4963 -12.13771,-4.11923 -14.65286,-8.19075 -15.91983,-25.77113 -1.67609,-23.25764 -0.0844,-26.17483 9.76079,-17.89055 5.73323,4.82418 10.74905,6.60017 18.64061,6.60017 12.65971,0 18.74716,-3.90539 19.88262,-12.75563 0.45004,-3.5078 2.43783,-6.37782 4.41733,-6.37782 5.12621,0 10.01108,15.41128 10.23803,32.3001 0.17603,13.10668 -0.53176,15.05296 -7.65504,21.04681 -4.317,3.63252 -9.36022,6.60458 -11.20713,6.60458 -5.48232,0 -6.45502,6.32731 -6.45502,41.98988 0,36.39788 1.49802,40.90218 13.03846,39.20425 3.71778,-0.54699 6.61686,-3.62143 8.43158,-8.94168 3.72434,-10.91857 5.63658,-12.34559 10.29757,-7.68463 10.12515,10.12514 -1.33291,25.83927 -20.99029,28.78707 -10.51861,1.57736 -11.01666,2.03863 -10.27801,9.51918 0.72957,7.3888 1.43312,7.87711 11.70133,8.12149 15.6052,0.37139 22.55855,8.22371 24.7514,27.9514 0.93032,8.36951 2.12991,15.92669 2.66577,16.79374 2.28053,3.68995 1.77543,58.99926 -0.5601,61.33486 -5.12225,5.1222 -7.91972,-4.3996 -9.43634,-32.1188 -0.84447,-15.43433 -2.4017,-35.52446 -3.46052,-44.64474 l -1.92514,-16.58233 -12.11785,-0.77756 -12.11786,-0.77756 -0.37948,9.70651 c -0.20868,5.33856 -0.20434,26.92661 0.0102,47.97341 0.4656,45.79757 -1.09036,55.08977 -8.05789,48.12227 z M 150.53507,863.23394 c 5.28015,0 7.2565,-8.40188 2.75126,-11.69621 -6.36335,-4.653 -16.71817,-1.43807 -16.71817,5.1906 0,6.94729 2.43543,9.64702 7.09098,7.86051 1.94195,-0.74518 5.03613,-1.3549 6.87593,-1.3549 z m 38.06247,-59.43951 c 3.01586,-2.20527 4.24642,-5.83425 3.6765,-10.84229 -0.79649,-6.99892 -1.5733,-7.50649 -11.06115,-7.22704 -22.05741,0.64962 -21.68458,0.51005 -21.68458,8.11817 0,3.92874 1.3776,8.52077 3.06135,10.20451 4.06706,4.06706 20.31583,3.90876 26.00788,-0.25333 z M 58.112125,952.13188 c -6.59767,-6.59768 -3.15689,-9.156 14.67784,-10.91339 l 17.85789,-1.75967 -0.0281,-19.61676 c -0.0153,-10.78923 -0.75906,-24.0414 -1.65249,-29.44928 -1.61359,-9.76694 -1.68931,-9.82214 -11.35446,-8.27662 -8.09098,1.2938 -10.19606,0.68508 -12.49667,-3.61362 -4.1077,-7.67532 -0.6998,-10.65129 11.13256,-9.72153 l 10.57246,0.83075 0.38297,-16.58233 c 0.21073,-9.12028 -0.2199,-19.73935 -0.95667,-23.59793 -1.18694,-6.21592 -2.46648,-7.0156 -11.22527,-7.0156 -8.18486,0 -9.88562,-0.87782 -9.88562,-5.10226 0,-2.80624 1.43501,-5.14524 3.18891,-5.19779 1.7539,-0.0525 11.22496,-0.60166 21.0468,-1.2202 22.718105,-1.43075 36.991355,0.64002 36.991355,5.36667 0,3.39479 -3.22546,4.1339 -20.40902,4.67658 -6.323435,0.19975 -6.376005,0.39377 -6.165105,22.74833 0.233175,24.72989 2.020675,27.90142 14.336115,25.43833 5.90805,-1.1816 7.13576,-0.55053 7.13576,3.66794 0,3.97157 -2.25022,5.45492 -10.20451,6.72686 l -10.20451,1.63178 0,29.17449 0,29.17449 13.39342,0.7711 c 9.86179,0.56778 13.39342,1.78016 13.39342,4.5978 0,2.83813 -3.27364,3.92254 -12.67212,4.19765 -14.39244,0.42134 -40.929215,3.15689 -48.563805,5.0062 -2.81108,0.68095 -6.54211,-0.19286 -8.29116,-1.94199 z M 194.00544,870.94707 c -0.84687,-1.37026 -2.01279,-6.24929 -2.59095,-10.84229 -0.57816,-4.593 -1.78263,-12.69564 -2.67662,-18.00589 -1.02637,-6.09645 -0.48193,-11.03281 1.47718,-13.39342 4.01948,-4.84316 7.58017,-4.77601 7.58017,0.14287 0,2.13476 2.72481,5.12289 6.05512,6.64028 7.70882,3.51236 16.21734,-0.60498 17.36464,-8.40291 0.44876,-3.05018 2.11335,-5.97252 3.69905,-6.49407 3.39188,-1.11561 5.89199,10.45301 6.35361,29.39988 0.43494,17.8508 -5.057,23.44685 -23.01068,23.44685 -6.99147,0 -13.40465,-1.12112 -14.25152,-2.49138 z m 25.18305,-13.45123 c -0.28384,-10.56562 -0.51324,-10.84423 -8.92895,-10.84423 -7.88028,0 -8.70771,0.72697 -9.43705,8.29116 -0.7447,7.72375 -0.26458,8.29117 7.0156,8.29117 4.29826,0 7.81502,1.14801 7.81502,2.55113 0,1.40312 0.86101,2.55199 1.91335,2.55306 1.05234,10e-4 1.78224,-4.87796 1.62203,-10.84229 z"
       id="path3119"
       inkscape:connector-curvature="0" />
  </g>
</svg>
