<?xml version="1.0" encoding="UTF-8" standalone="no"?>
<!-- Created with Inkscape (http://www.inkscape.org/) -->

<svg
   xmlns:dc="http://purl.org/dc/elements/1.1/"
   xmlns:cc="http://creativecommons.org/ns#"
   xmlns:rdf="http://www.w3.org/1999/02/22-rdf-syntax-ns#"
   xmlns:svg="http://www.w3.org/2000/svg"
   xmlns="http://www.w3.org/2000/svg"
   xmlns:sodipodi="http://sodipodi.sourceforge.net/DTD/sodipodi-0.dtd"
   xmlns:inkscape="http://www.inkscape.org/namespaces/inkscape"
   width="300"
   height="300"
   id="svg2"
   version="1.1"
   inkscape:version="0.48.4 r9939"
   sodipodi:docname="image-seal.svg">
  <defs
     id="defs4" />
  <sodipodi:namedview
     id="base"
     pagecolor="#ffffff"
     bordercolor="#666666"
     borderopacity="1.0"
     inkscape:pageopacity="0.0"
     inkscape:pageshadow="2"
     inkscape:zoom="1.979899"
     inkscape:cx="93.377566"
     inkscape:cy="122.32215"
     inkscape:document-units="px"
     inkscape:current-layer="layer1"
     showgrid="false"
     inkscape:window-width="1215"
     inkscape:window-height="1000"
     inkscape:window-x="65"
     inkscape:window-y="24"
     inkscape:window-maximized="1"
     fit-margin-top="10"
     fit-margin-left="10"
     fit-margin-right="10"
     fit-margin-bottom="10" />
  <metadata
     id="metadata7">
    <rdf:RDF>
      <cc:Work
         rdf:about="">
        <dc:format>image/svg+xml</dc:format>
        <dc:type
           rdf:resource="http://purl.org/dc/dcmitype/StillImage" />
        <dc:title />
      </cc:Work>
    </rdf:RDF>
  </metadata>
  <g
     inkscape:label="Calque 1"
     inkscape:groupmode="layer"
     id="layer1"
     transform="translate(0,-752.36218)">
    <path
       style="fill:#000000"
       d="m 107.90091,1027.9497 c 0,-5.3248 1.17859,-12.7814 2.61908,-16.5701 1.4405,-3.7888 3.23665,-20.38103 3.99145,-36.8716 l 1.37237,-29.98291 -30.384563,0.4204 c -27.995545,0.38731 -30.456646,0.0553 -31.301189,-4.22197 -0.826287,-4.18484 0.327099,-4.5228 11.704304,-3.42959 6.941502,0.66699 13.103271,0.43221 13.692817,-0.52168 2.088086,-3.37859 3.706824,-50.5008 1.833094,-53.36221 -1.046596,-1.59829 -6.867044,-3.25906 -12.934328,-3.69062 -7.816704,-0.55598 -11.031425,-1.86013 -11.031425,-4.47526 0,-2.62445 3.553925,-4.04599 12.302049,-4.92082 l 12.30205,-1.2302 0.704199,-23.989 0.704199,-23.98899 -8.499302,0 c -10.657784,0 -16.28299,-2.09483 -16.28299,-6.06377 0,-3.245 19.844139,-6.17345 42.802995,-6.31653 7.11647,-0.0442 14.62532,-1.64326 17.33219,-3.69062 2.62681,-1.9868 7.70819,-3.61237 11.29203,-3.61237 7.09282,0 12.22671,-7.73591 12.22671,-18.42364 0,-7.71137 4.83918,-10.52522 8.79564,-5.1144 3.60766,4.93373 2.12235,19.62459 -2.78191,27.51551 -2.40751,3.87365 -6.49565,5.52083 -15.95925,6.43017 -6.99748,0.67236 -13.57489,2.60142 -14.61651,4.2868 -1.04164,1.68535 -7.01312,3.6413 -13.27,4.34656 l -11.376169,1.28224 0,24.28411 0,24.28413 9.841639,0 c 6.77191,0 9.84164,1.06905 9.84164,3.42738 0,3.9141 -5.89133,6.80583 -10.45674,5.13268 -7.22443,-2.64768 -9.180505,2.92017 -9.816718,27.94269 -0.717798,28.23017 0.302534,30.16031 15.235278,28.82066 l 8.72879,-0.78307 0.62955,-40.2665 c 0.59638,-38.14649 3.47673,-59.62584 8.40412,-62.67111 1.21419,-0.75044 9.57592,-2.40789 18.58164,-3.68324 9.00571,-1.27538 16.81116,-2.756 17.34547,-3.29031 0.53429,-0.5343 1.56011,-13.51852 2.27959,-28.85384 0.71947,-15.33529 2.1018,-28.74903 3.07186,-29.80831 0.97007,-1.05928 3.47605,-1.26891 5.56887,-0.4658 3.15383,1.21023 3.63813,5.33013 2.82942,24.06964 -0.53664,12.43523 -1.49951,24.97397 -2.13971,27.86391 -1.6764,7.5674 2.73702,10.03275 22.13234,12.36313 15.80568,1.89907 17.47883,2.66128 20.73686,9.44696 2.4606,5.1249 3.31015,13.77425 2.77916,28.29472 -1.6163,44.19711 0.13531,116.09752 3.6413,149.46987 1.65617,15.7646 1.39687,17.838 -2.23083,17.838 -8.52921,0 -9.59836,-11.2534 -9.46982,-99.67674 0.0895,-61.6834 -0.68585,-87.25369 -2.73108,-90.0507 -3.51037,-4.80074 -14.34973,-7.24579 -38.8373,-8.76061 -23.51707,-1.45477 -38.56178,2.19284 -40.17202,9.73978 -0.63929,2.99627 -1.75696,29.2522 -2.48371,58.34654 -1.64686,65.92763 -4.91054,122.89613 -7.36492,128.55643 -1.02688,2.3681 -3.96296,4.3057 -6.52461,4.3057 -3.78074,0 -4.65761,-1.8227 -4.65761,-9.6815 z m 33.21553,-31.11176 -7.38123,-6.34154 -0.80573,-33.02202 c -0.54791,-22.45599 0.0426,-33.02202 1.84531,-33.02202 1.45808,0 2.65104,-2.16233 2.65104,-4.80518 0,-5.98328 12.68397,-9.92527 31.98532,-9.94054 10.66922,-0.007 14.95565,1.21347 20.25996,5.77541 6.67103,5.73744 6.73067,6.06488 7.08333,38.88904 0.47557,44.26949 -2.59864,48.81731 -32.99497,48.81141 -12.84954,0 -16.42845,-1.0054 -22.64303,-6.34456 z m 16.19501,-5.33941 c 0.11125,-1.01493 0.74443,-5.16686 1.40701,-9.22654 0.66259,-4.05967 0.49437,-12.14899 -0.37381,-17.97627 -1.55886,-10.46316 -1.69123,-10.58566 -10.63357,-9.84164 -8.93665,0.74356 -9.05834,0.89814 -9.30751,11.82524 -0.24634,10.80284 1.79037,17.3801 7.35143,23.74046 2.98099,3.40944 11.22905,4.46485 11.55645,1.47875 z m 26.7756,-5.37417 c 1.40084,-2.61749 2.54698,-10.79224 2.54698,-18.16613 0,-11.80369 -0.65695,-13.57882 -5.49348,-14.84362 -3.02142,-0.79011 -6.35284,-0.57721 -7.40315,0.47309 -2.50018,2.50016 -5.18052,29.0602 -3.40074,33.69827 1.98484,5.17242 10.75714,4.43133 13.75039,-1.16161 z m -26.38208,-45.06423 c 0.61727,-1.69154 0.61461,-7.22746 -0.004,-12.30205 -1.94079,-15.8711 -14.51432,-10.21496 -19.14307,8.61143 -1.60578,6.53111 -1.32158,6.76613 8.18158,6.76613 5.63724,0 10.32481,-1.3145 10.96744,-3.07551 z m 28.92906,-5.33468 c 0,-12.73559 -2.15801,-16.19391 -10.10508,-16.19391 -6.97294,0 -7.10729,0.25106 -6.58293,12.30205 0.52886,12.15526 0.63164,12.30205 8.61164,12.30205 7.55306,0 8.07637,-0.54496 8.07637,-8.41019 z m -31.69584,-40.09124 c -3.22388,-0.62391 -8.57375,-3.84652 -11.8886,-7.16141 -5.49993,-5.49993 -5.89502,-7.34181 -4.51754,-21.0603 1.89437,-18.86608 3.06358,-20.69773 9.61009,-15.05492 7.62348,6.57109 28.30741,6.25672 32.06185,-0.48732 1.50668,-2.70644 2.98948,-5.35539 3.29508,-5.88653 0.30561,-0.53115 2.15118,0.35849 4.10131,1.97692 4.32149,3.58655 2.89201,39.13486 -1.75388,43.61567 -3.35368,3.23447 -22.30591,5.72268 -30.90831,4.05789 z m 21.81441,-12.07347 c 1.14232,-1.19106 2.449,-5.4871 2.90368,-9.54678 l 0.82672,-7.38123 -16.60777,-0.72753 -16.60776,-0.7275 0,8.80312 c 0,6.83144 1.23993,9.30014 5.53592,11.02211 6.4357,2.57962 20.92903,1.70684 23.94921,-1.44219 z m 25.87408,-70.4659 c -13.52328,-3.56016 -16.06824,-7.73449 -15.36065,-25.19523 0.45449,-11.21602 1.48482,-14.76246 4.28882,-14.76246 2.75502,0 3.69601,2.93692 3.7118,11.58512 0.0258,14.13473 1.90371,16.18563 15.72091,17.16937 12.14763,0.86486 19.26363,7.59651 12.55262,11.87463 -4.44787,2.83543 -8.02935,2.72045 -20.9135,-0.67143 z"
       id="path3106"
       inkscape:connector-curvature="0" />
  </g>
</svg>
