<?xml version="1.0" encoding="UTF-8" standalone="no"?>
<svg
   xmlns:dc="http://purl.org/dc/elements/1.1/"
   xmlns:cc="http://creativecommons.org/ns#"
   xmlns:rdf="http://www.w3.org/1999/02/22-rdf-syntax-ns#"
   xmlns:svg="http://www.w3.org/2000/svg"
   xmlns="http://www.w3.org/2000/svg"
   viewBox="0 0 300 300"
   height="300"
   width="300"
   id="svg236"
   version="1.1">
  <metadata
     id="metadata242">
    <rdf:RDF>
      <cc:Work
         rdf:about="">
        <dc:format>image/svg+xml</dc:format>
        <dc:type
           rdf:resource="http://purl.org/dc/dcmitype/StillImage" />
        <dc:title></dc:title>
      </cc:Work>
    </rdf:RDF>
  </metadata>
  <defs
     id="defs240" />
  <path
     id="path246"
     d="m 229.99155,284.35287 c -1.33308,-0.49998 -6.31915,-3.51526 -11.08016,-6.70062 -23.81987,-15.93673 -29.08915,-20.30919 -36.44664,-30.24353 -5.45721,-7.36849 -7.55058,-11.6405 -17.59768,-35.91194 -9.75181,-23.55814 -11.29594,-26.23203 -15.08639,-26.12425 -8.33058,0.23686 -16.21877,9.47104 -27.6404,32.35684 -3.04139,6.09408 -7.01691,14.61605 -8.8345,18.9377 -2.63484,6.26484 -3.74203,8.12423 -5.46224,9.17317 -6.49461,3.9603 -9.755569,-1.00849 -6.42264,-9.7863 0.94565,-2.49054 5.97485,-13.39758 11.176,-24.23785 l 9.45661,-19.70959 8.18094,-8.07659 c 4.49951,-4.44212 9.20344,-8.60534 10.45318,-9.25161 3.42257,-1.76987 9.42424,-2.0855 14.05549,-0.73915 3.22383,0.93719 4.33378,1.68014 6.07584,4.06693 2.61982,3.58938 6.4279,11.07405 10.29423,20.23301 2.76511,6.55028 6.17974,12.83978 6.94011,12.78318 0.76919,-0.0573 5.01665,-6.46821 7.20008,-10.86755 1.27905,-2.57712 3.29746,-7.84711 4.48537,-11.71109 2.94208,-9.5699 8.11366,-16.23036 15.63837,-20.14064 2.50562,-1.30207 11.71735,-0.80511 14.82038,0.79954 5.47442,2.83092 12.38737,13.96762 15.29202,24.63524 3.22914,11.85938 4.83895,32.1902 3.56416,45.01315 -0.98553,9.91344 -1.86618,11.44633 -6.54006,11.38384 -1.75136,-0.0234 -3.31613,-0.17922 -3.47724,-0.34625 -0.16112,-0.16703 -1.60317,-12.76887 -3.20455,-28.00409 -3.23071,-30.73624 -3.96,-33.91436 -8.99774,-39.21012 -2.73073,-2.87059 -5.00406,-3.38292 -8.72822,-1.96699 -3.51453,1.33622 -6.05668,6.06013 -10.57154,19.64446 -2.73063,8.21592 -3.9053,10.69953 -7.30917,15.45383 -2.72222,3.80221 -4.7288,5.89934 -6.10297,6.37838 l -2.0473,0.71369 2.58022,4.68721 c 1.41912,2.57796 3.48416,6.29973 4.58898,8.27061 3.65159,6.51408 18.27742,18.87552 38.32367,32.39035 4.95145,3.33817 9.70252,6.89347 10.55795,7.90065 2.08766,2.45805 2.75875,6.12409 1.37444,7.5084 -1.43354,1.43354 -6.54666,1.80888 -9.5086,0.69798 z M 70.021751,176.78844 c -6.228909,-0.57171 -12.882405,-1.7079 -16.029803,-2.73739 -2.898239,-0.94797 -3.263546,-1.3078 -3.672592,-3.61755 -0.249837,-1.41067 -0.598317,-3.05941 -0.77442,-3.66388 -0.528846,-1.81532 4.65594,-2.91912 15.74516,-3.35202 5.58651,-0.21808 10.402404,-0.64185 10.701976,-0.94169 0.299573,-0.29984 0.675253,-11.70587 0.834844,-25.34671 l 0.290173,-24.80155 -1.64327,-0.43983 c -0.90379,-0.2419 -5.599161,-0.44408 -10.434151,-0.44928 -8.116191,-0.009 -8.928516,-0.12903 -10.584151,-1.5676 -1.062334,-0.92305 -1.957868,-2.59233 -2.197084,-4.09542 -0.626459,-3.93629 1.852188,-4.92378 13.608262,-5.42154 5.141884,-0.21771 9.73842,-0.637933 10.214516,-0.933823 0.665728,-0.41375 0.865637,-6.125984 0.865637,-24.734964 V 50.488214 l -9.868267,-0.0039 C 55.285842,50.479714 52.450115,49.847478 50.598041,46.810002 48.514749,43.393336 48.882888,42.07931 52.547109,39.85289 l 3.256881,-1.978913 24.941017,0.335102 c 16.082667,0.216085 25.856103,0.621046 27.517493,1.140188 2.95012,0.921834 4.69487,3.018467 4.69487,5.641759 0,2.814533 -2.58155,3.627086 -12.92738,4.068943 -5.015207,0.214193 -9.256914,0.545257 -9.426011,0.735698 -0.169097,0.19044 -0.498872,11.293757 -0.732844,24.674038 l -0.425387,24.327792 2.147232,0.42944 c 1.180979,0.2362 5.723183,0.42944 10.09379,0.42944 h 7.94654 l 2.40258,2.402583 c 1.77413,1.77413 2.34472,2.88922 2.18141,4.26297 -0.29771,2.50414 -3.38139,3.51437 -13.66051,4.47519 -4.415656,0.41274 -8.729627,0.88553 -9.586608,1.05063 l -1.558155,0.30019 -0.0038,18.85771 c -0.0019,10.37173 -0.200462,21.37905 -0.440403,24.46069 -0.385117,4.9464 -0.293681,5.65769 0.780255,6.06981 0.669065,0.25674 4.996335,0.64162 9.616153,0.85527 15.361138,0.71043 18.013578,1.81105 17.618688,7.31081 -0.21265,2.96177 -0.27836,3.03451 -3.79486,4.20151 -1.96814,0.65316 -5.55188,1.5248 -7.96386,1.93699 -4.5345,0.77493 -29.702195,1.45246 -35.202093,0.94768 z m 101.452709,-7.93625 c -1.90441,-0.37667 -5.95559,-1.4916 -9.00263,-2.47762 -4.84216,-1.56691 -6.00386,-2.28364 -9.2216,-5.68942 -7.40051,-7.83297 -10.25492,-13.70258 -9.62617,-19.79456 0.84082,-8.14674 3.14047,-10.28491 13.81381,-12.84372 10.31513,-2.47295 37.73264,-1.43077 45.27585,1.72099 7.26967,3.03746 10.11482,10.46148 7.83404,20.44179 -1.19844,5.24417 -10.53267,13.44317 -19.41211,17.05121 -4.92995,2.00322 -13.90579,2.7297 -19.66119,1.59133 z m 16.83853,-13.67499 c 2.02446,-0.77345 5.37448,-2.7129 7.44448,-4.30989 3.63876,-2.80729 3.76364,-3.01491 3.76364,-6.2576 0,-2.76034 -0.27328,-3.50022 -1.54402,-4.1803 -0.84921,-0.45448 -6.96368,-1.15028 -13.58772,-1.5462 -11.46844,-0.68547 -12.42835,-0.64191 -20.09691,0.912 -4.42927,0.89753 -8.43132,1.76712 -8.89345,1.93243 -0.53096,0.18993 0.66464,2.53864 3.24804,6.38072 l 4.08827,6.08015 4.36957,1.11155 c 2.40326,0.61137 4.99282,1.25794 5.75459,1.43684 2.97048,0.6976 11.90557,-0.2042 15.45351,-1.5597 z m -77.55823,-17.08444 c -0.5878,-1.29006 -0.58858,-2.38926 -0.003,-4.32819 0.73802,-2.44401 1.97285,-3.34134 20.7124,-15.05126 18.17902,-11.35967 20.74793,-12.74723 29.27648,-15.8134 5.14188,-1.8486 9.42896,-3.440683 9.52681,-3.537943 0.0979,-0.0973 -0.0155,-1.14462 -0.25218,-2.32745 -0.40394,-2.01972 -0.73088,-2.2197 -5.37175,-3.28564 -3.0061,-0.690448 -7.92533,-1.129811 -12.55926,-1.121736 -9.09399,0.01585 -12.04387,-0.649228 -15.21019,-3.429282 -2.72812,-2.395053 -5.21916,-8.298222 -5.21916,-12.367413 0,-3.443425 1.38579,-9.825271 2.36327,-10.88337 0.41416,-0.448318 1.86644,-1.017997 3.22727,-1.265953 l 2.47427,-0.450829 1.16141,3.596133 c 0.63879,1.977874 1.16143,4.069545 1.16143,4.648158 0,0.578613 0.34205,2.193705 0.76013,3.589093 1.5414,5.144783 8.23853,7.360317 19.78744,6.546043 l 6.35112,-0.447791 0.43388,-5.968592 c 0.23865,-3.282724 0.58736,-7.059293 0.77493,-8.392375 l 0.34103,-2.423785 -12.31326,-2.5739 c -14.65402,-3.063247 -20.09147,-5.42654 -26.34336,-11.449774 -7.54055,-7.264774 -9.92791,-15.008393 -7.44968,-24.163717 l 1.23545,-4.564125 4.92185,-2.326295 c 8.37403,-3.957958 17.80907,-5.041631 45.77994,-5.258106 24.03321,-0.186 29.27457,0.179769 38.78055,2.706316 10.27104,2.729884 14.88897,7.680099 14.88897,15.960317 0,8.427845 -3.24457,14.662309 -9.94532,19.110016 -9.61181,6.379952 -17.34738,9.076505 -30.49292,10.629569 l -9.62157,1.136726 0.41743,8.301941 c 0.28128,5.594419 0.70898,8.503899 1.31143,8.921206 1.14934,0.796115 14.33405,0.212455 19.06957,-0.84417 3.61018,-0.805535 3.63884,-0.832896 4.59792,-4.389492 0.53079,-1.968396 1.23324,-5.135024 1.56098,-7.036951 0.48436,-2.810766 0.95696,-3.630194 2.52482,-4.377724 2.71543,-1.294675 5.39692,-0.257182 6.93491,2.683188 1.70583,3.261249 1.39233,12.293554 -0.56343,16.232744 -3.03654,6.116034 -13.65887,10.0414 -27.17278,10.0414 h -6.92826 l -0.69252,2.72827 c -0.58258,2.29521 -0.51351,2.79838 0.43515,3.169933 0.62022,0.24292 4.55558,1.70547 8.74526,3.25011 10.80933,3.98518 31.22217,12.85569 45.09652,19.59692 12.56966,6.10732 14.50971,7.67539 15.26656,12.33933 0.34318,2.11472 0.16393,2.41783 -2.05152,3.46913 -1.33517,0.63357 -3.15954,1.1517 -4.05418,1.15141 -1.76213,-5.9e-4 -9.30299,-3.36323 -12.26161,-5.46773 -3.50357,-2.49212 -28.88017,-15.25258 -35.07067,-17.63506 -12.19657,-4.69398 -21.03157,-5.86631 -29.53994,-3.91969 -7.99309,1.82873 -22.66413,9.76353 -37.35925,20.20566 -7.96294,5.65835 -10.53956,6.81736 -15.15584,6.81736 -3.05982,0 -3.59866,-0.21732 -4.28753,-1.72923 z m 68.85669,-86.594913 c 3.3327,-0.242801 6.05579,-0.491387 6.05131,-0.552416 -0.0502,-0.683796 -6.11415,-22.038824 -6.30772,-22.213574 -0.14464,-0.130571 -3.7891,-0.376921 -8.0988,-0.547444 -7.65237,-0.302784 -7.82801,-0.276361 -7.5024,1.128613 0.18338,0.79126 1.37227,6.359733 2.642,12.374385 l 2.30858,10.935731 2.42378,-0.34192 c 1.33308,-0.188056 5.15055,-0.540575 8.48325,-0.783375 z m -24.67583,-3.606545 c -0.37236,-1.259832 -4.58271,-19.677126 -4.58271,-20.046106 0,-0.604732 -4.17717,-0.04315 -9.37396,1.260239 l -5.86126,1.470052 v 3.216764 c 0,4.52142 2.33954,7.668883 8.27865,11.137506 5.8512,3.417286 7.4304,4.072936 9.9464,4.129542 1.54262,0.03471 1.87608,-0.209808 1.59288,-1.167997 z m 48.8781,-0.219464 c 4.41749,-1.488147 8.81608,-4.175985 11.42032,-6.978601 1.48443,-1.597505 3.34404,-7.761349 2.6704,-8.851313 -0.71056,-1.14971 -8.66428,-2.79165 -16.93083,-3.495148 -4.7239,-0.40201 -8.67983,-0.639992 -8.79098,-0.528849 -0.18143,0.18143 4.18309,18.307469 4.91679,20.419629 0.41852,1.204857 1.80526,1.088015 6.7143,-0.565718 z"
     style="fill:#000000;stroke-width:0.69251001" />
</svg>
