<?xml version="1.0" encoding="UTF-8" standalone="no"?>
<!-- Created with Inkscape (http://www.inkscape.org/) -->

<svg
   xmlns:dc="http://purl.org/dc/elements/1.1/"
   xmlns:cc="http://creativecommons.org/ns#"
   xmlns:rdf="http://www.w3.org/1999/02/22-rdf-syntax-ns#"
   xmlns:svg="http://www.w3.org/2000/svg"
   xmlns="http://www.w3.org/2000/svg"
   xmlns:sodipodi="http://sodipodi.sourceforge.net/DTD/sodipodi-0.dtd"
   xmlns:inkscape="http://www.inkscape.org/namespaces/inkscape"
   width="300"
   height="300"
   id="svg2"
   version="1.1"
   inkscape:version="0.48.4 r9939"
   sodipodi:docname="dessin.svg">
  <defs
     id="defs4" />
  <sodipodi:namedview
     id="base"
     pagecolor="#ffffff"
     bordercolor="#666666"
     borderopacity="1.0"
     inkscape:pageopacity="0.0"
     inkscape:pageshadow="2"
     inkscape:zoom="1.979899"
     inkscape:cx="227.07871"
     inkscape:cy="107.23575"
     inkscape:document-units="px"
     inkscape:current-layer="layer1"
     showgrid="false"
     inkscape:window-width="1215"
     inkscape:window-height="1000"
     inkscape:window-x="65"
     inkscape:window-y="24"
     inkscape:window-maximized="1" />
  <metadata
     id="metadata7">
    <rdf:RDF>
      <cc:Work
         rdf:about="">
        <dc:format>image/svg+xml</dc:format>
        <dc:type
           rdf:resource="http://purl.org/dc/dcmitype/StillImage" />
        <dc:title />
      </cc:Work>
    </rdf:RDF>
  </metadata>
  <g
     inkscape:label="Calque 1"
     inkscape:groupmode="layer"
     id="layer1"
     transform="translate(0,-752.36218)">
    <path
       style="fill:#000000"
       d="m 124.64185,1039.9593 c -0.40856,-0.6976 -0.96326,-7.3916 -3.24797,-39.1943 -1.05035,-14.62059 -2.16139,-28.75784 -2.46896,-31.41613 -0.3076,-2.65828 -0.69702,-7.13179 -0.86546,-9.94111 -0.52589,-8.77253 -10.79128,-16.51531 -26.570535,-20.04118 -17.102181,-3.82145 -21.722259,-8.76976 -21.722259,-23.2655 0,-10.87919 4.901398,-17.88926 16.864888,-24.12043 6.269352,-3.26538 7.128408,-4.99655 7.128408,-14.36506 0,-9.82415 -0.512929,-10.71166 -6.598157,-11.4169 -4.724207,-0.54749 -6.598155,-2.12552 -6.598155,-5.55626 0,-4.19185 2.53062,-5.11869 20.21855,-7.40517 l 20.21858,-2.61355 7.97354,7.05135 c 6.63038,5.8635 7.97156,8.73932 7.96165,17.07164 -0.0144,13.17266 -7.69429,22.8459 -19.18271,24.16566 -28.283252,3.24911 -35.989945,7.52242 -35.989945,19.95615 0,4.15806 1.850818,5.55899 8.997485,6.81034 31.57429,5.52853 39.52386,17.959 42.83417,66.97824 1.81479,26.87301 -0.14708,44.54651 -5.15988,46.48401 -1.91612,0.7406 -3.62307,1.1088 -3.79324,0.8182 z m -4.96913,-159.30054 c 1.58356,-1.59497 2.87919,-5.9449 2.87919,-9.66651 0,-5.84191 -0.94259,-6.76654 -6.89807,-6.76654 -5.79579,0 -7.13598,1.19813 -8.38695,7.49808 -0.81889,4.12392 -0.89013,8.47384 -0.15835,9.6665 1.90259,3.10065 9.18007,2.67692 12.56413,-0.73153 z m 80.25758,154.31204 c -2.96918,-2.9569 -5.3985,-7.0236 -5.3985,-9.0371 0,-2.0134 -0.92739,-4.6939 -2.06087,-5.9565 -2.61566,-2.9139 -7.53644,-33.81019 -7.53644,-47.31936 0,-11.63659 -7.22709,-24.23718 -16.74365,-29.1929 -7.48651,-3.8986 -13.61388,-8.65891 -21.11861,-16.40699 -5.2488,-5.41898 -5.73186,-7.56947 -4.6875,-20.86796 1.04588,-13.31793 7.21481,-29.7716 11.9583,-31.89501 0.98973,-0.44306 1.7995,-1.82206 1.7995,-3.06444 0,-1.24242 4.3188,-9.41904 9.59732,-18.17029 5.27853,-8.75128 9.59732,-16.90247 9.59732,-18.11381 0,-2.78207 5.36429,-12.5418 7.9443,-14.45378 1.07028,-0.79316 1.61014,-6.74838 1.19966,-13.23383 -0.60615,-9.5772 -1.81063,-12.32354 -6.4136,-14.62374 -3.46804,-1.73306 -8.22205,-2.09407 -12.25076,-0.93032 -3.62092,1.04594 -9.49129,1.34185 -13.04525,0.65756 -9.60656,-1.84964 -6.82156,-8.09062 5.44801,-12.20862 12.30881,-4.1312 24.1316,-1.35116 35.2774,8.29516 6.08795,5.26895 6.65319,7.13204 6.2818,20.70521 -0.22458,8.20337 -1.42746,15.94191 -2.67328,17.19672 -2.52477,2.54296 0.96275,6.99929 7.3965,9.4512 2.1845,0.83253 7.31306,6.40501 11.39682,12.38331 10.05712,14.72293 10.12401,28.46339 0.22698,46.62708 -3.9589,7.26566 -7.198,14.74141 -7.198,16.61284 0,1.87142 -2.39767,7.51371 -5.32812,12.53842 -4.69544,8.05103 -5.33387,12.58082 -5.37658,38.14782 -0.0449,26.83702 2.48453,43.17323 8.49411,54.86023 1.16619,2.2679 2.81852,8.5209 3.67179,13.8956 1.81159,11.4106 -1.7273,12.7991 -10.45868,4.1035 z M 188.2987,921.53608 c 5.36755,-16.1896 5.08252,-17.46125 -6.36338,-28.39029 -7.8453,-7.49103 -11.80278,-9.58008 -17.15887,-9.05772 -6.08572,0.59352 -7.38956,2.16334 -10.3617,12.47551 -2.41212,8.36908 -2.65506,12.54685 -0.8361,14.37891 1.41014,1.4203 2.56388,4.29976 2.56388,6.39879 0,5.6731 23.07359,20.47394 26.75768,17.16403 0.86059,-0.77321 3.28991,-6.60935 5.39849,-12.96923 z m 16.85436,-38.34867 c 4.56345,-9.2136 4.9412,-25.48229 0.68278,-29.40498 -4.97007,-4.57822 -13.34591,-8.88971 -17.2698,-8.88971 -1.99735,0 -3.6341,1.35934 -3.6372,3.02077 -0.003,1.66143 -3.2544,6.82697 -7.22514,11.47896 l -7.21954,8.4582 12.27766,11.47896 c 6.75269,6.31343 13.70389,11.47897 15.44708,11.47897 1.74318,0 4.86805,-3.42953 6.94416,-7.62117 z M 66.166256,854.20557 c -1.043492,-4.18759 0.737338,-10.36479 5.848702,-20.2875 4.041958,-7.84666 7.349027,-16.19972 7.349027,-18.56238 0,-2.36264 0.897252,-4.29572 1.993891,-4.29572 1.096637,0 3.148424,-2.44683 4.559542,-5.43741 6.780576,-14.37011 12.641202,-28.56725 12.641202,-30.62276 0,-3.82182 9.60183,-5.61048 13.34068,-2.48516 1.93218,1.61515 6.79416,9.86111 10.8044,18.32435 4.01024,8.46326 8.09092,15.38773 9.06822,15.38773 0.97727,0 3.44783,3.53431 5.49014,7.85403 2.04231,4.31972 6.82662,13.53848 10.63182,20.48618 5.31736,9.70868 6.26306,13.29234 4.08629,15.48479 -2.17679,2.19249 -3.68871,2.13676 -6.53294,-0.2407 -2.03537,-1.70137 -3.7395,-4.31962 -3.78696,-5.81831 -0.0475,-1.49867 -2.62059,-5.84586 -5.71808,-9.66041 -4.95992,-6.10816 -5.89923,-6.45415 -7.87383,-2.90031 -3.20193,5.76276 -35.08259,4.573 -36.203173,-1.35108 -1.105107,-5.84221 21.237733,-10.02873 32.486223,-6.08712 7.05967,2.47381 6.8541,-0.81075 -0.5969,-9.53709 -3.29747,-3.86188 -6.03264,-8.10908 -6.07815,-9.43823 -0.0456,-1.32913 -2.30972,-5.11265 -5.03156,-8.40781 -4.8798,-5.90764 -4.99889,-5.92448 -8.53893,-1.20831 -1.97455,2.63059 -6.258847,10.76403 -9.520659,18.07432 -11.561385,25.91114 -16.429913,35.1104 -21.643032,40.8954 l -5.275622,5.85437 -1.500301,-6.0208 z"
       id="path3195"
       inkscape:connector-curvature="0" />
  </g>
</svg>
