<?xml version="1.0" encoding="UTF-8" standalone="no"?>
<!-- Created with Inkscape (http://www.inkscape.org/) -->

<svg
   xmlns:dc="http://purl.org/dc/elements/1.1/"
   xmlns:cc="http://creativecommons.org/ns#"
   xmlns:rdf="http://www.w3.org/1999/02/22-rdf-syntax-ns#"
   xmlns:svg="http://www.w3.org/2000/svg"
   xmlns="http://www.w3.org/2000/svg"
   xmlns:sodipodi="http://sodipodi.sourceforge.net/DTD/sodipodi-0.dtd"
   xmlns:inkscape="http://www.inkscape.org/namespaces/inkscape"
   width="300"
   height="300"
   id="svg2"
   version="1.1"
   inkscape:version="0.48.4 r9939"
   sodipodi:docname="image-seal.svg">
  <defs
     id="defs4" />
  <sodipodi:namedview
     id="base"
     pagecolor="#ffffff"
     bordercolor="#666666"
     borderopacity="1.0"
     inkscape:pageopacity="0.0"
     inkscape:pageshadow="2"
     inkscape:zoom="2.0018437"
     inkscape:cx="145.03351"
     inkscape:cy="130.6666"
     inkscape:document-units="px"
     inkscape:current-layer="layer1"
     showgrid="false"
     inkscape:window-width="1215"
     inkscape:window-height="1000"
     inkscape:window-x="65"
     inkscape:window-y="24"
     inkscape:window-maximized="1"
     fit-margin-top="10"
     fit-margin-left="10"
     fit-margin-right="10"
     fit-margin-bottom="10" />
  <metadata
     id="metadata7">
    <rdf:RDF>
      <cc:Work
         rdf:about="">
        <dc:format>image/svg+xml</dc:format>
        <dc:type
           rdf:resource="http://purl.org/dc/dcmitype/StillImage" />
        <dc:title></dc:title>
      </cc:Work>
    </rdf:RDF>
  </metadata>
  <g
     inkscape:label="Calque 1"
     inkscape:groupmode="layer"
     id="layer1"
     transform="translate(0,-752.36218)">
    <path
       style="fill:#000000"
       d="m 220.44266,1041.474 c -1.58449,-3.2272 -5.55917,-11.1669 -8.83262,-17.6438 -3.27348,-6.4769 -6.98194,-13.8209 -8.24104,-16.3202 -1.25911,-2.4993 -2.28928,-7.4346 -2.28928,-10.96745 0,-3.53287 -1.17762,-7.15118 -2.61692,-8.04072 -1.43931,-0.88954 -2.61692,-4.64966 -2.61692,-8.35582 0,-10.96342 -5.71202,-26.76732 -10.21281,-28.25656 -6.04018,-1.99862 -19.80386,-14.71938 -23.56,-21.77479 -2.61323,-4.90861 -2.41552,-9.25753 1.04883,-23.07125 8.34805,-33.2869 19.47932,-64.37453 27.52239,-76.8651 6.80966,-10.5751 14.45543,-36.28262 11.62688,-39.0933 -1.37495,-1.36626 -9.55018,-3.24183 -18.16719,-4.16796 -17.58058,-1.88947 -19.66111,-2.69326 -19.66111,-7.59597 0,-7.17588 36.96218,-9.33732 46.41776,-2.71437 8.25627,5.78291 10.188,19.75746 4.2146,30.48947 -2.65997,4.77899 -5.53818,9.27789 -6.39606,9.99754 -0.85785,0.71965 -2.25979,4.25249 -3.11542,7.85075 -1.30186,5.47491 -0.19757,7.18274 6.76882,10.46767 11.43226,5.39083 20.87376,20.06559 19.36239,30.09456 -0.65072,4.31791 -6.62774,23.07587 -13.28227,41.68438 -9.77231,27.32696 -12.09155,37.14071 -12.05973,51.0299 0.0359,15.6914 4.14722,34.03131 8.63478,38.51891 0.98643,0.98639 1.79348,3.73201 1.79348,6.10141 0,2.3693 2.89426,10.3074 6.43165,17.64 9.63322,19.9688 10.91682,26.9057 4.97395,26.8808 -2.6748,-0.01 -6.1597,-2.6609 -7.74416,-5.8881 z M 201.02154,921.27065 c 0.0319,-3.87314 1.23579,-7.76989 2.67509,-8.65943 1.43931,-0.88954 2.61692,-4.79323 2.61692,-8.67485 0,-7.73053 -8.95572,-13.39323 -22.70901,-14.35887 -7.18967,-0.50478 -7.42566,-0.10206 -8.89828,15.18296 -1.84246,19.12373 0.34368,25.99081 9.89716,31.08857 6.82709,3.64296 7.61986,3.52135 11.83852,-1.81593 2.48677,-3.14622 4.5476,-8.88931 4.5796,-12.76245 z m 13.98905,-43.33359 c 0.63534,-1.07948 1.91637,-5.51845 2.84676,-9.86437 2.34411,-10.94939 -2.87549,-16.99641 -16.21521,-18.78565 -10.48727,-1.40664 -11.03009,-1.14812 -11.03009,5.25297 0,3.70283 -1.17762,7.46023 -2.61692,8.34977 -6.30908,3.89923 -2.46951,11.29535 7.19652,13.86263 12.47312,3.3128 18.3593,3.66465 19.81894,1.18465 z M 92.4443,1007.3988 c -2.89695,-1.4264 -7.6074,-5.6729 -10.46767,-9.43673 -4.578124,-6.02433 -5.276844,-11.56217 -5.838408,-46.27347 -0.498484,-30.81216 0.17795,-40.53553 3.094978,-44.4876 6.70476,-9.08387 9.98131,-1.09494 9.56538,23.3225 -0.20854,12.24243 0.59724,22.86241 1.79061,23.59994 1.19337,0.73755 11.29432,0.6509 22.44661,-0.19261 19.9671,-1.51009 20.26475,-1.63751 19.48622,-8.342 -0.64018,-5.51301 -2.35677,-6.96063 -9.02156,-7.60809 -12.74143,-1.23777 -16.76633,-7.69693 -17.10289,-27.44662 -0.23867,-14.00972 -1.06436,-17.11679 -4.48933,-16.89451 -2.308211,0.14995 -9.6579,-2.16673 -16.33262,-5.14789 -13.730551,-6.13252 -16.452381,-11.75044 -18.970774,-39.15621 -1.028261,-11.18981 -0.374698,-18.31319 2.121692,-23.12497 6.537419,-12.60091 12.991292,-14.97089 44.562082,-16.36411 27.80197,-1.22689 29.65792,-0.98684 34.76674,4.49683 8.65831,9.29362 14.00009,48.63079 8.14846,60.00556 -4.54132,8.82765 -5.83992,9.7207 -23.81819,16.38002 l -15.04728,5.57364 0,14.04241 c 0,13.85807 0.10311,14.04241 7.85075,14.04241 7.54452,0 7.85076,-0.45331 7.85076,-11.62168 0,-12.04581 2.02675,-15.53002 7.18079,-12.34466 4.11189,2.54129 5.72503,13.37507 7.15499,48.05245 1.51481,36.73417 0.2337,44.05819 -9.43568,53.94839 -6.96684,7.1258 -9.23252,7.8558 -23.96145,7.7202 -8.94687,-0.082 -18.63727,-1.3168 -21.53421,-2.7432 z m 36.44023,-16.30776 c 3.46941,-2.62545 5.07439,-7.21427 5.23384,-14.96406 l 0.23002,-11.17741 -22.2438,0 -22.24379,0 -0.26869,10.07069 c -0.36846,13.81057 6.62571,20.0503 22.3517,19.94065 6.5653,-0.0458 14.18867,-1.78723 16.9408,-3.86987 z M 127.34089,871.0347 c 0.46382,-3.93414 -0.55173,-8.8339 -2.2568,-10.88839 -1.72916,-2.08349 -3.05581,-11.41743 -2.99991,-21.10657 0.14446,-25.02626 -4.37059,-17.34569 -6.13981,10.44464 -1.01782,15.9878 -0.50813,24.19807 1.66473,26.81621 4.46634,5.38162 8.74974,3.06387 9.73179,-5.26589 z m -24.58251,-0.98422 c -0.10285,-3.21873 -0.3972,-14.09553 -0.65423,-24.17066 -0.5198,-20.37601 -4.77824,-25.47578 -4.91669,-5.88807 -0.0483,6.8367 -0.98442,18.13945 -2.08022,25.11723 -1.81365,11.54895 -1.55149,12.60198 2.92286,11.7403 3.13826,-0.60437 4.84763,-3.06229 4.72828,-6.7988 z m 41.11494,-6.50647 c 0.81098,-13.05457 -1.12734,-27.02593 -4.39713,-31.6942 -3.19154,-4.55655 -3.59962,-4.19575 -5.25904,4.64953 -1.88342,10.03965 2.99203,32.93274 7.01355,32.93274 1.25225,0 2.44143,-2.64963 2.64262,-5.88807 z M 85.93534,845.72537 c 0,-8.62011 -1.16596,-15.54706 -2.61692,-15.54706 -1.4393,0 -2.74601,1.47202 -2.9038,3.27115 -0.15777,1.79913 -0.67551,7.39279 -1.1505,12.43036 -1.044378,11.07636 0.93065,18.94049 4.24271,16.89351 1.33568,-0.82548 2.42851,-8.49708 2.42851,-17.04796 z M 65,802.99884 c 0,-4.645 2.513222,-7.43374 9.813441,-10.88933 12.463089,-5.89942 16.168399,-10.80601 16.272509,-21.5482 0.0524,-5.40236 1.63701,-9.18336 4.27272,-10.19478 8.16403,-3.13284 9.64306,5.70415 4.91055,29.34018 -1.07957,5.39174 -23.759021,19.53626 -31.324669,19.53626 C 66.531873,809.24297 65,806.81805 65,802.99884 z m 78.42303,2.75339 c -8.9607,-4.67653 -20.85085,-16.84248 -20.85085,-21.3345 0,-2.00858 -1.17761,-4.37977 -2.61691,-5.26932 -4.223,-2.60995 -3.1542,-19.58496 1.3418,-21.31024 5.97235,-2.29182 11.74279,3.97311 11.74279,12.74905 0,7.74105 6.77365,15.2816 19.50336,21.71152 6.43422,3.24998 8.50681,11.55136 3.65214,14.62789 -4.60889,2.92079 -4.99331,2.88544 -12.77233,-1.1744 z"
       id="path3121"
       inkscape:connector-curvature="0" />
  </g>
</svg>
