<?xml version="1.0" encoding="UTF-8" standalone="no"?>
<!-- Created with Inkscape (http://www.inkscape.org/) -->

<svg
   xmlns:dc="http://purl.org/dc/elements/1.1/"
   xmlns:cc="http://creativecommons.org/ns#"
   xmlns:rdf="http://www.w3.org/1999/02/22-rdf-syntax-ns#"
   xmlns:svg="http://www.w3.org/2000/svg"
   xmlns="http://www.w3.org/2000/svg"
   xmlns:sodipodi="http://sodipodi.sourceforge.net/DTD/sodipodi-0.dtd"
   xmlns:inkscape="http://www.inkscape.org/namespaces/inkscape"
   width="300"
   height="300"
   id="svg2"
   version="1.1"
   inkscape:version="0.48.4 r9939"
   sodipodi:docname="image-seal.svg">
  <defs
     id="defs4" />
  <sodipodi:namedview
     id="base"
     pagecolor="#ffffff"
     bordercolor="#666666"
     borderopacity="1.0"
     inkscape:pageopacity="0.0"
     inkscape:pageshadow="2"
     inkscape:zoom="2.0018437"
     inkscape:cx="145.03351"
     inkscape:cy="130.6666"
     inkscape:document-units="px"
     inkscape:current-layer="layer1"
     showgrid="false"
     inkscape:window-width="1215"
     inkscape:window-height="1000"
     inkscape:window-x="65"
     inkscape:window-y="24"
     inkscape:window-maximized="1"
     fit-margin-top="10"
     fit-margin-left="10"
     fit-margin-right="10"
     fit-margin-bottom="10" />
  <metadata
     id="metadata7">
    <rdf:RDF>
      <cc:Work
         rdf:about="">
        <dc:format>image/svg+xml</dc:format>
        <dc:type
           rdf:resource="http://purl.org/dc/dcmitype/StillImage" />
        <dc:title />
      </cc:Work>
    </rdf:RDF>
  </metadata>
  <g
     inkscape:label="Calque 1"
     inkscape:groupmode="layer"
     id="layer1"
     transform="translate(0,-752.36218)">
    <path
       style="fill:#000000"
       d="m 225.87494,1042.8483 c -2.31664,-2.5599 -4.21207,-5.9957 -4.21207,-7.6353 0,-1.6395 -1.03586,-2.9809 -2.30189,-2.9809 -2.54243,0 -15.78861,-26.7208 -20.18671,-40.72148 -1.53904,-4.8993 -3.55041,-15.36487 -4.46972,-23.25679 -1.47616,-12.6724 -2.83182,-15.3087 -11.60222,-22.56257 -12.17632,-10.07088 -14.5889,-14.39351 -16.33908,-29.27497 -1.82231,-15.49474 7.07993,-50.76167 18.6273,-73.79352 10.2508,-20.44579 19.54843,-52.10064 16.26681,-55.38226 -1.21469,-1.21469 -8.35359,-2.77934 -15.86424,-3.477 -12.19289,-1.13259 -17.41949,-3.82056 -17.53821,-9.0197 -0.12196,-5.34032 35.85575,-4.87334 46.0792,0.59809 7.20674,3.85694 8.12517,11.82208 2.70357,23.44732 -9.14383,19.6067 -9.12129,23.68195 0.16704,30.20204 4.55168,3.19513 9.67128,7.56933 11.37693,9.72044 5.34822,6.74508 6.52625,19.30592 2.54572,27.14399 -2.04131,4.01949 -6.22636,14.75257 -9.30012,23.85127 -3.07378,9.0987 -6.53888,18.83368 -7.70025,21.63328 -12.19057,29.38649 -7.59773,72.88011 10.52991,99.71716 3.95248,5.8514 7.18632,11.8641 7.18632,13.3617 0,1.4975 0.85897,2.7317 1.90882,2.7426 3.08679,0.032 8.09301,12.7545 6.57524,16.7098 -1.94221,5.0613 -9.42536,4.5315 -14.45235,-1.0232 z m -29.663,-117.49143 c 0,-2.48984 1.71088,-7.80742 3.80196,-11.81689 5.76538,-11.05462 4.67832,-17.23311 -4.92741,-28.0059 -9.79798,-10.98841 -13.06681,-10.09394 -15.24997,4.17288 -0.74971,4.8993 -2.07048,12.54409 -2.93505,16.98843 -1.2534,6.44316 -0.14087,9.87414 5.49011,16.93122 7.21305,9.03984 13.82036,9.86704 13.82036,1.73026 z m 18.49449,-54.89716 c 1.24824,-4.11193 2.93207,-9.19415 3.74183,-11.29385 2.19257,-5.6852 0.73543,-10.94068 -4.36026,-15.72632 -7.14032,-6.70586 -17.87606,-7.12048 -17.87606,-0.69038 0,2.16921 -1.76521,7.35755 -3.92268,11.52967 -3.53352,6.83306 -3.53352,7.97479 0,11.50829 2.15747,2.15748 3.92268,4.81117 3.92268,5.89706 0,2.44807 10.58801,7.7003 13.83893,6.8649 1.31232,-0.33725 3.40732,-3.97747 4.65556,-8.08937 z M 148.474,1022.488 c -2.36358,-1.5006 -2.79643,-7.6376 -1.65771,-23.50311 4.02741,-56.11313 1.46955,-167.67966 -4.08218,-178.05317 -2.22085,-4.1497 -5.35614,-5.03241 -17.87428,-5.03241 -11.27929,0 -15.181,0.91119 -15.181,3.54534 0,4.25669 5.47375,6.63503 15.27055,6.63503 10.53366,0 15.27055,2.4529 15.27055,7.90757 0,4.19179 -1.98442,4.81788 -15.27055,4.81788 -8.48364,0 -15.27055,1.13114 -15.27055,2.54509 0,1.3998 5.72645,2.54509 12.72545,2.54509 10.94186,0 12.72546,0.69912 12.72546,4.98803 0,3.61693 -2.8073,5.8291 -10.21296,8.04788 -12.46223,3.73378 -22.33899,-0.37283 -26.358935,-10.95965 -3.918186,-10.31881 -11.034523,-10.87385 -15.388956,-1.20023 -3.674738,8.16363 -7.193782,62.96217 -8.034036,125.106 -0.689949,51.02756 -0.791239,52.17436 -4.608107,52.17436 -1.936438,0 -4.020122,-2.0043 -4.630407,-4.4539 -3.048625,-12.237 2.293916,-147.36725 6.817231,-172.42994 2.416869,-13.39133 2.721402,-13.77213 15.553066,-19.44819 7.642576,-3.38067 10.576812,-6.02079 9.579627,-8.61943 -0.790617,-2.06031 -2.833249,-3.74602 -4.539183,-3.74602 -1.705931,0 -5.591917,-2.65071 -8.635523,-5.89049 -4.690731,-4.99306 -5.533828,-8.87058 -5.533828,-25.45091 0,-17.86369 0.441538,-19.56043 5.090183,-19.56043 4.463876,0 5.090183,1.69674 5.090183,13.78984 0,16.13015 1.734981,21.84144 6.635025,21.84144 2.557682,0 3.54534,-3.54506 3.54534,-12.72546 0,-6.999 1.14529,-12.72545 2.54509,-12.72545 1.3998,0 2.54509,-2.29059 2.54509,-5.09019 0,-3.34185 1.69673,-5.09018 4.93998,-5.09018 2.71699,0 5.64781,-1.14529 6.51294,-2.54509 0.86512,-1.3998 10.96484,-2.54509 22.44381,-2.54509 18.11451,0 21.29069,0.67223 24.04973,5.09018 1.74838,2.7996 2.3102,5.18158 1.24849,5.29328 -1.06171,0.11173 -7.0842,0.41775 -13.3833,0.6801 -10.37044,0.43193 -11.45291,1.07423 -11.45291,6.7959 0,5.13284 1.43316,6.4806 7.63528,7.18037 9.22475,1.04081 13.998,4.62112 13.998,10.49959 0,3.71375 -1.64904,4.12481 -10.9097,2.71938 -14.09565,-2.13917 -16.41397,-3.72698 -20.81264,-14.25447 -6.63072,-15.86956 -19.17949,-9.3825 -19.17949,9.91479 0,9.57046 3.03822,11.89252 15.56045,11.89252 11.21544,0 24.95262,6.63651 27.4239,13.24865 1.20038,3.21176 2.44575,16.7198 2.76749,30.01791 0.32174,13.2981 0.92439,28.75953 1.33922,34.35873 0.41483,5.5992 1.48852,39.28893 2.38597,74.86605 1.29815,51.46161 0.9602,65.11171 -1.6531,66.76971 -4.07675,2.5864 -5.02971,2.592 -9.02876,0.053 z m -43.88536,-22.0696 c 0,-15.63064 -0.88273,-21.62242 -3.18136,-21.59428 -7.387249,0.0906 -9.831534,4.94723 -11.298965,22.45078 -1.368323,16.3213 -3.929606,22.7157 -6.304586,15.7399 -1.635297,-4.8033 1.717792,-63.29953 3.743931,-65.31468 1.125962,-1.11987 3.002175,-0.49092 4.169361,1.39764 2.50644,4.0555 7.781439,1.52603 7.781439,-3.73136 0,-2.2152 -2.519516,-3.66743 -6.362728,-3.66743 -5.259699,0 -6.362729,-1.22546 -6.362729,-7.06896 0,-3.88796 1.78288,-9.61442 3.961954,-12.72546 3.393287,-4.84461 6.30285,-5.65649 20.271183,-5.65649 22.85726,0 23.16533,0.70043 24.06693,54.71946 0.6537,39.16678 0.4005,41.99398 -3.76096,41.99398 -2.91587,0 -3.88887,-3.4567 -4.11919,-14.6343 -0.16586,-8.0488 -0.11565,-16.06583 0.11158,-17.81559 0.60683,-4.67309 -11.71339,-3.9045 -13.53573,0.84444 -0.84967,2.21418 -1.54485,11.37651 -1.54485,20.36075 0,12.8232 -0.82072,16.3349 -3.81764,16.3349 -3.09403,0 -3.81764,-4.1004 -3.81764,-21.6333 z m 8.5183,-34.02117 c 4.19902,-1.6524 4.27996,-2.19893 0.7584,-5.12156 -4.59139,-3.81051 -13.26088,-1.76915 -15.32443,3.60838 -1.558547,4.06151 6.0751,4.85453 14.56603,1.51318 z m 11.84244,-19.42571 c 0,-7.41357 -1.39412,-7.87729 -6.95729,-2.31413 -3.43864,3.43865 -3.50711,4.39138 -0.45448,6.32377 5.76997,3.65248 7.41177,2.7643 7.41177,-4.00964 z m -13.05918,-9.77827 c 4.80681,-5.79184 -2.23581,-9.08946 -9.53644,-4.46531 -3.988532,2.52628 -1.71513,7.88085 3.346,7.88085 1.84569,0 4.63139,-1.53698 6.19044,-3.41554 z m -9.84665,-23.85774 c -6.262244,-2.33013 -12.725455,-10.33818 -12.725455,-15.76709 0,-8.46281 5.622002,-18.04183 10.588891,-18.04183 2.574914,0 4.681654,-1.14529 4.681654,-2.54509 0,-1.3998 -4.00852,-2.54509 -8.907817,-2.54509 -7.211091,0 -8.90782,-0.96955 -8.90782,-5.09018 0,-4.76925 1.696729,-5.09018 26.910077,-5.09018 24.25448,0 26.82652,0.43953 26.06335,4.45391 -0.6551,3.44592 -3.88035,4.62852 -14.25119,5.2255 -13.69261,0.78817 -16.48651,5.59113 -3.25239,5.59113 8.32105,0 11.66477,3.36385 13.9142,13.99801 2.35709,11.14312 -7.92267,21.70757 -20.85476,21.43234 -5.19261,-0.11046 -11.15904,-0.84016 -13.25874,-1.62143 z m 20.09532,-13.2303 c 6.83086,-4.32525 1.04014,-10.39825 -9.91495,-10.39825 -7.13311,0 -10.82505,1.26371 -11.90365,4.07449 -1.881565,4.90327 3.21389,8.57301 11.90365,8.57301 3.4995,0 7.96123,-1.01216 9.91495,-2.24925 z"
       id="path3119"
       inkscape:connector-curvature="0" />
  </g>
</svg>
