<?xml version="1.0" encoding="UTF-8" standalone="no"?>
<!-- Created with Inkscape (http://www.inkscape.org/) -->

<svg
   xmlns:dc="http://purl.org/dc/elements/1.1/"
   xmlns:cc="http://creativecommons.org/ns#"
   xmlns:rdf="http://www.w3.org/1999/02/22-rdf-syntax-ns#"
   xmlns:svg="http://www.w3.org/2000/svg"
   xmlns="http://www.w3.org/2000/svg"
   xmlns:sodipodi="http://sodipodi.sourceforge.net/DTD/sodipodi-0.dtd"
   xmlns:inkscape="http://www.inkscape.org/namespaces/inkscape"
   width="300"
   height="300"
   id="svg2"
   version="1.1"
   inkscape:version="0.48.3.1 r9886"
   sodipodi:docname="dessin.svg">
  <defs
     id="defs4" />
  <sodipodi:namedview
     id="base"
     pagecolor="#ffffff"
     bordercolor="#666666"
     borderopacity="1.0"
     inkscape:pageopacity="0.0"
     inkscape:pageshadow="2"
     inkscape:zoom="1.979899"
     inkscape:cx="206.13338"
     inkscape:cy="141.32597"
     inkscape:document-units="px"
     inkscape:current-layer="layer1"
     showgrid="false"
     inkscape:window-width="1215"
     inkscape:window-height="1000"
     inkscape:window-x="65"
     inkscape:window-y="24"
     inkscape:window-maximized="1" />
  <metadata
     id="metadata7">
    <rdf:RDF>
      <cc:Work
         rdf:about="">
        <dc:format>image/svg+xml</dc:format>
        <dc:type
           rdf:resource="http://purl.org/dc/dcmitype/StillImage" />
        <dc:title />
      </cc:Work>
    </rdf:RDF>
  </metadata>
  <g
     inkscape:label="Calque 1"
     inkscape:groupmode="layer"
     id="layer1"
     transform="translate(0,-752.36218)">
    <path
       style="fill:#000000"
       d="m 190.2684,1026.9984 c -24.62307,-5.3542 -50.54488,-4.2148 -74.33383,-13.4501 -10.47462,-3.2459 -20.060329,-11.2319 -21.654053,-22.62257 -5.692474,-22.23776 -5.662418,-45.5541 -6.01009,-68.2736 2.288829,-14.93033 -17.323095,-8.29764 -25.657255,-7.86249 -10.748978,-0.60711 -9.927972,-14.81708 1.554547,-11.924 45.410471,-2.01136 90.886451,-1.71525 136.326021,-2.47133 5.51785,0.88955 25.42451,-2.20157 18.9986,6.84947 -12.06271,4.19022 -25.09926,1.42371 -37.5116,3.00262 -12.71411,5.52252 -6.26326,23.98882 -6.61618,35.10535 2.20391,17.56942 23.45027,6.44184 33.09611,14.68781 2.73491,15.03941 -18.31268,13.81375 -27.56577,10.0087 -15.23259,-2.28031 -17.35968,-18.2741 -17.08514,-30.86201 -1.70955,-8.29652 3.14935,-30.49661 -10.63305,-26.80818 -8.04421,9.96686 -3.80034,23.93337 -6.28269,35.71119 -0.9682,11.31496 -13.39084,14.20788 -21.77549,18.65086 -7.15717,3.29613 -14.44022,6.75997 -20.21647,12.24472 -1.73133,11.23636 10.3618,19.90505 19.03785,23.78316 17.51373,3.397 35.33571,4.9171 52.9583,7.6251 15.55691,1.6206 32.31895,1.8534 45.89936,10.5881 6.26706,11.6721 -14.57442,6.2416 -21.20351,7.5518 -3.81275,-0.1193 -7.63841,-0.5226 -11.32566,-1.5346 z m -71.51642,-70.71306 c 14.10281,-1.99821 16.96034,-18.17209 16.39151,-29.9258 -0.58365,-7.33412 4.04926,-20.66078 -8.10456,-16.10515 -9.39001,2.53602 -28.924392,-4.93521 -25.07893,10.52897 -0.49735,13.43841 -1.50307,27.00081 0.6322,40.35545 5.79518,0.29384 10.79876,-3.2427 16.15978,-4.85347 z m 2.01376,-75.07021 c -15.9676,-2.98817 -31.668274,-16.37199 -30.765784,-33.76323 -1.250406,-24.53959 -1.610607,-49.52245 3.028701,-73.70431 9.763243,-9.47518 13.970623,9.42326 11.730143,16.84861 -0.13928,10.69696 18.16128,4.31959 26.01148,6.82587 16.54749,0.45516 33.09753,-0.20039 49.6294,-0.87772 -0.96367,-6.88372 -0.33669,-25.15717 10.38313,-17.13439 4.34814,11.39739 1.23723,24.28283 1.78872,36.28624 -0.70714,17.65496 -0.45532,36.02893 -6.94174,52.7118 -8.32333,12.64461 -25.40221,12.63353 -38.89732,14.16213 -8.66655,0.53874 -17.41961,0.25398 -25.96673,-1.355 z m 47.15911,-15.20426 c 13.73611,-4.50731 12.95062,-21.41079 12.23918,-33.11636 2.4801,-11.94968 -1.47735,-28.30839 -17.045,-24.99873 -19.65906,-1.36202 -39.35438,0.38296 -58.90752,2.37171 -1.41917,14.99294 -5.562452,31.59798 3.46232,45.14368 6.14415,12.9544 21.76552,13.79991 34.21123,13.26455 8.72995,0.18664 17.64713,0.0216 26.03979,-2.66485 z m -51.82311,-26.96591 c -12.8461,-9.10638 8.09896,-14.41109 15.54125,-11.17593 10.49482,1.60504 30.19633,-3.47035 34.03242,7.99096 -9.60677,5.13712 -22.01924,1.02344 -32.70218,3.46568 -5.61319,0.39975 -11.29321,0.63242 -16.87149,-0.28071 z"
       id="path3002"
       inkscape:connector-curvature="0" />
  </g>
</svg>
