<?xml version="1.0" encoding="UTF-8" standalone="no"?>
<!-- Created with Inkscape (http://www.inkscape.org/) -->

<svg
   xmlns:dc="http://purl.org/dc/elements/1.1/"
   xmlns:cc="http://creativecommons.org/ns#"
   xmlns:rdf="http://www.w3.org/1999/02/22-rdf-syntax-ns#"
   xmlns:svg="http://www.w3.org/2000/svg"
   xmlns="http://www.w3.org/2000/svg"
   xmlns:sodipodi="http://sodipodi.sourceforge.net/DTD/sodipodi-0.dtd"
   xmlns:inkscape="http://www.inkscape.org/namespaces/inkscape"
   width="300"
   height="300"
   id="svg2"
   version="1.1"
   inkscape:version="0.48.2 r9819"
   sodipodi:docname="甬-seal.svg">
  <defs
     id="defs4" />
  <sodipodi:namedview
     id="base"
     pagecolor="#ffffff"
     bordercolor="#666666"
     borderopacity="1.0"
     inkscape:pageopacity="0.0"
     inkscape:pageshadow="2"
     inkscape:zoom="1.979899"
     inkscape:cx="154.99606"
     inkscape:cy="141.50652"
     inkscape:document-units="px"
     inkscape:current-layer="layer1"
     showgrid="false"
     inkscape:window-width="1280"
     inkscape:window-height="999"
     inkscape:window-x="0"
     inkscape:window-y="24"
     inkscape:window-maximized="1" />
  <metadata
     id="metadata7">
    <rdf:RDF>
      <cc:Work
         rdf:about="">
        <dc:format>image/svg+xml</dc:format>
        <dc:type
           rdf:resource="http://purl.org/dc/dcmitype/StillImage" />
        <dc:title></dc:title>
      </cc:Work>
    </rdf:RDF>
  </metadata>
  <g
     inkscape:label="Calque 1"
     inkscape:groupmode="layer"
     id="layer1"
     transform="translate(0,-752.36218)">
    <path
       style="fill:#000000"
       d="m 223.24764,1033.0891 c -1.50515,-3.351 -2.97541,-11.4678 -8.44492,-46.62117 -2.12104,-13.63229 -5.24361,-25.41719 -6.93905,-26.18873 -1.69546,-0.7715 -12.56564,-1.62432 -24.15597,-1.89514 l -21.0733,-0.49235 -0.26983,11.3374 c -0.1485,6.23558 -0.3305,20.33938 -0.40456,31.34179 -0.13763,20.4711 -3.79696,30.7477 -10.94818,30.7477 -6.93098,0 -8.35643,-7.1139 -8.20676,-40.9573 l 0.14518,-32.8309 -12.23534,1.45968 c -6.72943,0.8028 -18.32503,1.47134 -25.76801,1.48562 l -13.532647,0.026 -4.077526,24.1958 c -2.242641,13.3077 -4.379611,25.2581 -4.748807,26.5564 -0.369196,1.2982 -1.807345,6.344 -3.195903,11.2126 -1.715498,6.0153 -4.294692,8.8522 -8.04789,8.8522 -7.615385,0 -13.918801,-4.939 -10.322116,-8.0879 1.592458,-1.394 3.283267,-7.3148 3.757423,-13.1572 0.474127,-5.8424 1.917467,-12.21595 3.207448,-14.1634 3.791168,-5.72356 6.548032,-39.63866 8.346865,-102.68465 0.926114,-32.45779 3.025899,-59.99822 4.666197,-61.20092 1.821892,-1.33585 5.697481,-0.41729 9.959832,2.36057 6.525667,4.25286 6.901322,6.38156 5.801069,32.87411 l -1.176374,28.32681 22.895109,-0.84343 c 12.59233,-0.46387 24.73492,-1.92177 26.98356,-3.23974 4.61807,-2.70678 5.68257,-26.79478 1.27107,-28.76254 -1.55517,-0.69367 -1.34661,-6.62519 0.46558,-13.23989 4.05097,-14.78663 0.30974,-20.78158 -18.58593,-29.78278 -13.91514,-6.62859 -31.448188,-18.92657 -30.921741,-21.68897 2.035089,-10.6782 -0.279643,-12.209 -18.461308,-12.209 -13.482328,0 -17.989039,-0.85216 -17.989039,-3.40152 0,-1.87084 1.269548,-3.96783 2.821214,-4.65995 10.563246,-4.71174 140.490954,-7.83184 154.294624,-3.70526 5.02169,1.5012 10.93367,5.87159 13.13775,9.71198 3.6588,6.37506 3.16305,7.73546 -5.69827,15.63725 -10.31262,9.19587 -34.03193,19.28848 -45.59081,19.39894 -3.82725,0.0366 -8.60147,-1.36214 -10.60936,-3.10828 -2.89356,-2.5163 0.92407,-5.16189 18.40621,-12.75548 18.07396,-7.85068 21.89466,-10.56232 21.15829,-15.01645 -0.49427,-2.98963 -2.62341,-6.20502 -4.73141,-7.14529 -5.40593,-2.41131 -88.93333,0.50863 -92.71962,3.2413 -4.36244,3.14848 15.81506,21.05481 28.94454,25.68653 18.45876,6.51173 25.38317,13.86998 27.5928,29.32168 l 1.84339,12.89042 21.9198,0 21.91982,0 3.78846,-9.126 c 2.08365,-5.0193 3.78845,-10.64924 3.78845,-12.511 0,-5.8091 6.86429,-9.09179 13.584,-6.49625 7.21541,2.78696 7.56636,8.99231 1.34526,23.78659 -3.99573,9.50221 -10.79518,49.73791 -12.10358,71.6228 -1.1981,20.04057 5.48787,64.78849 13.82343,92.51732 1.63642,5.4436 2.97528,13.1449 2.97528,17.114 0,6.148 -1.22613,7.2167 -8.2795,7.2167 -4.5537,0 -8.87588,-1.3278 -9.60482,-2.9507 z m -96.7401,-84.39025 15.65974,0 2.13581,-11.62029 c 1.17473,-6.39114 1.1986,-15.85047 0.053,-21.0207 -2.37559,-10.72216 -7.78898,-12.43607 -32.84207,-10.39803 -17.85355,1.45236 -20.835774,5.43838 -20.835774,27.84902 0,13.46233 0.722048,15.19 6.348434,15.19 3.49163,0 7.44069,1.27551 8.77566,2.83446 1.88865,2.20553 2.71765,2.20553 3.73632,0 0.77559,-1.67933 7.69097,-2.83446 16.96882,-2.83446 z m 81.91712,-22.42538 0,-22.42539 -20.8152,0 -20.81518,0 -2.07995,10.95203 c -1.14395,6.02361 -2.07993,15.51978 -2.07993,21.10262 0,11.09819 -0.0362,11.0854 35.16038,12.39933 l 10.62988,0.39679 0,-22.42538 z m 2.02588,-46.62119 -0.4894,-14.75354 -20.10014,-0.6973 c -19.70976,-0.68374 -20.13362,-0.56914 -21.82344,5.90141 -1.47164,5.63511 -1.17508,16.30278 0.62638,22.53256 0.2816,0.97373 9.90884,1.77043 21.39399,1.77043 l 20.88201,0 -0.4894,-14.75356 z"
       id="path2996"
       inkscape:connector-curvature="0" />
  </g>
</svg>
