<?xml version="1.0" encoding="UTF-8" standalone="no"?>
<svg
   xmlns:dc="http://purl.org/dc/elements/1.1/"
   xmlns:cc="http://creativecommons.org/ns#"
   xmlns:rdf="http://www.w3.org/1999/02/22-rdf-syntax-ns#"
   xmlns:svg="http://www.w3.org/2000/svg"
   xmlns="http://www.w3.org/2000/svg"
   viewBox="0 0 300 300"
   height="300"
   width="300"
   id="svg70"
   version="1.1">
  <metadata
     id="metadata76">
    <rdf:RDF>
      <cc:Work
         rdf:about="">
        <dc:format>image/svg+xml</dc:format>
        <dc:type
           rdf:resource="http://purl.org/dc/dcmitype/StillImage" />
        <dc:title></dc:title>
      </cc:Work>
    </rdf:RDF>
  </metadata>
  <defs
     id="defs74" />
  <path
     id="path80"
     d="M 51.949731,140.19332 C 51.954315,63.535603 72.045772,21.837855 149.15361,21.613411 233.62411,21.95046 247.99143,61.98803 248.05006,139.61652 248.11326,223.2509 233.87954,278.57604 150.47065,278.3861 59.322736,278.17853 51.945456,211.67772 51.949731,140.19332 Z m 90.940579,123.47953 -0.55829,-118.56497 -76.317117,0.53301 c 0.582,62.36386 7.821115,116.49808 76.875407,118.03196 z m 91.16185,-118.10899 -76.21211,-0.34535 -0.77223,119.00756 c 66.86149,-1.45254 76.32352,-58.44194 76.98434,-118.66221 z M 142.06141,131.77994 141.63848,35.938437 C 81.65261,37.863709 67.841273,73.897301 66.362055,132.13791 Z m 16.70408,-96.367482 -0.64003,96.610162 H 234.0654 C 232.70468,68.299575 222.03852,36.427314 158.76549,35.412458 Z"
     style="fill:#000000;stroke-width:0.72639227" />
</svg>
