<?xml version="1.0" encoding="UTF-8" standalone="no"?>
<!-- Created with Inkscape (http://www.inkscape.org/) -->

<svg
   xmlns:dc="http://purl.org/dc/elements/1.1/"
   xmlns:cc="http://creativecommons.org/ns#"
   xmlns:rdf="http://www.w3.org/1999/02/22-rdf-syntax-ns#"
   xmlns:svg="http://www.w3.org/2000/svg"
   xmlns="http://www.w3.org/2000/svg"
   xmlns:sodipodi="http://sodipodi.sourceforge.net/DTD/sodipodi-0.dtd"
   xmlns:inkscape="http://www.inkscape.org/namespaces/inkscape"
   width="300"
   height="300"
   id="svg2"
   version="1.1"
   inkscape:version="0.48.2 r9819"
   sodipodi:docname="鬼-oracle.svg">
  <defs
     id="defs4" />
  <sodipodi:namedview
     id="base"
     pagecolor="#ffffff"
     bordercolor="#666666"
     borderopacity="1.0"
     inkscape:pageopacity="0.0"
     inkscape:pageshadow="2"
     inkscape:zoom="1.979899"
     inkscape:cx="202.69582"
     inkscape:cy="137.35013"
     inkscape:document-units="px"
     inkscape:current-layer="layer1"
     showgrid="false"
     inkscape:window-width="1280"
     inkscape:window-height="999"
     inkscape:window-x="0"
     inkscape:window-y="24"
     inkscape:window-maximized="1" />
  <metadata
     id="metadata7">
    <rdf:RDF>
      <cc:Work
         rdf:about="">
        <dc:format>image/svg+xml</dc:format>
        <dc:type
           rdf:resource="http://purl.org/dc/dcmitype/StillImage" />
        <dc:title></dc:title>
      </cc:Work>
    </rdf:RDF>
  </metadata>
  <g
     inkscape:label="Calque 1"
     inkscape:groupmode="layer"
     id="layer1"
     transform="translate(0,-752.36218)">
    <path
       style="fill:#000000"
       d="m 247.8043,1029.294 c -19.32397,-12.4395 -35.66226,-34.17974 -33.34986,-58.31384 4.90612,-14.04767 -3.66322,-34.35751 -20.54293,-25.8738 4.65245,11.83531 -2.6876,41.68213 -17.72271,32.72819 -4.66751,-15.66459 0.37494,-38.74812 -23.55038,-36.25772 7.45769,-13.22285 30.52151,-6.24149 44.5704,-7.77039 16.35869,-3.45509 48.44821,7.34703 34.84132,27.81048 -6.29197,15.33273 -2.80355,36.3311 11.12288,46.86688 8.32809,4.1361 30.98078,30.02 4.63128,20.8102 z m -140.57487,-23.6178 c -18.24426,-3.2931 -31.975223,-18.20118 -27.723451,-37.40353 -0.545431,-10.80415 -3.301864,-44.38401 14.732554,-29.59286 7.226797,15.86325 -0.520375,37.15627 10.527277,50.75782 5.79058,0.48135 21.24445,5.6902 22.40601,-1.16191 -1.31621,-20.72173 0.27297,-41.85666 -4.2151,-62.19737 -11.95084,-13.32483 -33.746255,-0.15974 -49.96947,-2.64776 -9.524023,0.76371 -44.314225,4.93136 -30.023292,-10.25425 36.309364,-6.89428 73.708352,-0.51388 110.276272,-5.5196 34.53373,-2.12609 69.25248,-4.58494 103.82645,-3.25578 17.33552,12.13085 -11.60638,13.70113 -20.87105,12.40141 -30.37739,1.00802 -60.73866,2.4305 -91.105,3.71706 -6.07224,22.96094 0.3707,46.40118 1.31804,69.60512 18.71182,1.16772 37.97559,-0.9347 56.19752,3.71616 16.75981,15.48569 -19.51191,10.52549 -27.95482,12.24709 -22.43299,0.4874 -45.06546,1.7928 -67.42194,-0.4116 z m 9.42961,-113.71503 c -16.0866,-5.10176 -40.007722,-1.72093 -46.532941,-21.2959 -4.507459,-17.32079 -5.921116,-36.74262 -0.455818,-53.96459 14.861852,-12.90038 35.940579,-11.21338 54.315759,-11.02692 22.88872,7.66153 6.92157,-31.04241 28.45666,-25.58002 5.80292,10.64766 6.86057,25.63749 24.13077,22.85342 16.55745,2.58042 38.82262,-1.81305 49.21805,14.56165 5.4243,16.27914 6.27769,35.25429 0.78446,51.58294 -7.33602,19.95157 -29.45528,22.2451 -47.68268,22.45296 -20.71183,1.01846 -41.52073,1.73679 -62.23426,0.41646 z m 27.02468,-19.96213 c 4.86635,-28.22572 -28.54541,-18.61349 -45.109661,-19.42464 -26.144517,-5.78643 -10.190952,27.45604 7.251691,25.52021 10.26856,0.48221 36.57371,10.14749 37.85797,-6.09557 z m 31.52797,5.94924 c 16.21871,-1.08299 37.62454,-2.82427 35.71207,-24.77077 -2.66197,-3.20263 -11.90002,-0.85496 -17.05578,-1.9528 -12.70003,0.53563 -38.82554,-6.38945 -35.85121,14.39887 -0.38654,11.22555 5.11915,20.94346 17.19492,12.3247 z m -35.01593,-40.12591 c 4.09848,-19.41632 -13.82993,-26.04839 -29.40384,-19.46974 -11.739205,-2.5631 -35.630113,11.13468 -23.449442,21.48663 17.602272,0.20493 35.386092,0.2309 52.853282,-2.01689 z m 69.27196,-7.03323 c -1.42974,-18.09561 -23.91777,-14.14705 -37.02094,-14.71877 -5.05987,1.23447 -15.64585,-3.54148 -13.89675,5.0987 -0.5141,5.86448 -1.02818,11.72897 -1.54227,17.59346 17.48665,0 34.97331,0 52.45996,0 0,-2.6578 0,-5.31559 0,-7.97339 z"
       id="path3126"
       inkscape:connector-curvature="0" />
  </g>
</svg>
