<?xml version="1.0" encoding="UTF-8" standalone="no"?>
<!-- Created with Inkscape (http://www.inkscape.org/) -->

<svg
   xmlns:dc="http://purl.org/dc/elements/1.1/"
   xmlns:cc="http://creativecommons.org/ns#"
   xmlns:rdf="http://www.w3.org/1999/02/22-rdf-syntax-ns#"
   xmlns:svg="http://www.w3.org/2000/svg"
   xmlns="http://www.w3.org/2000/svg"
   xmlns:sodipodi="http://sodipodi.sourceforge.net/DTD/sodipodi-0.dtd"
   xmlns:inkscape="http://www.inkscape.org/namespaces/inkscape"
   version="1.0"
   width="300"
   height="300"
   id="svg2"
   inkscape:version="0.48.3.1 r9886"
   sodipodi:docname="dessin.svg">
  <metadata
     id="metadata2990">
    <rdf:RDF>
      <cc:Work
         rdf:about="">
        <dc:format>image/svg+xml</dc:format>
        <dc:type
           rdf:resource="http://purl.org/dc/dcmitype/StillImage" />
      </cc:Work>
    </rdf:RDF>
  </metadata>
  <sodipodi:namedview
     pagecolor="#ffffff"
     bordercolor="#666666"
     borderopacity="1"
     objecttolerance="10"
     gridtolerance="10"
     guidetolerance="10"
     inkscape:pageopacity="0"
     inkscape:pageshadow="2"
     inkscape:window-width="1215"
     inkscape:window-height="1000"
     id="namedview2988"
     showgrid="false"
     inkscape:zoom="2.2250293"
     inkscape:cx="169.24678"
     inkscape:cy="161.42978"
     inkscape:window-x="65"
     inkscape:window-y="24"
     inkscape:window-maximized="1"
     inkscape:current-layer="svg2" />
  <defs
     id="defs5" />
  <path
     style="fill:#000000"
     d="M 126.36182,283.13909 C 101.45128,276.24798 97.428152,274.63212 91.104578,268.97836 78.660516,257.8524 77.136982,252.4075 77.341591,219.79113 c 0.187244,-29.84934 2.61857,-41.42568 10.411537,-49.57292 10.324244,-10.79359 86.769552,-18.64386 102.485302,-10.52434 15.64364,8.08224 17.49023,12.31821 18.09698,41.51374 0.84851,40.82798 -1.9676,55.8945 -12.69952,67.94374 -7.22888,8.11623 -12.15122,10.77814 -24.90339,13.4673 -18.7959,3.96365 -31.38984,4.11138 -44.37068,0.52044 z m 10.84839,-32.98076 c 0,-26.24761 -3.13734,-29.4521 -25.81424,-26.36666 -8.92278,1.21404 -17.748801,1.62644 -19.613367,0.91643 -3.938689,-1.49981 -4.157663,2.20634 -0.946211,16.01457 2.484107,10.68091 13.733238,23.9186 20.325568,23.9186 2.21725,0 4.78564,1.21933 5.70753,2.70962 0.92189,1.4903 5.8757,2.70962 11.00845,2.70962 l 9.33227,0 0,-19.90218 z m 39.78604,15.04676 c 14.00027,-7.53721 20.32474,-17.66339 19.36037,-30.99812 l -0.83635,-11.5648 -21.38653,0.43464 c -14.47963,0.29428 -22.15315,1.60692 -23.76028,4.06443 -1.7335,2.65075 -1.55146,34.40857 0.24213,42.24187 0.58997,2.5766 19.354,-0.39513 26.38066,-4.17802 z m -40.67023,-63.64748 c 0.31476,-4.14506 -0.32012,-12.68036 -1.41084,-18.96734 -1.97644,-11.39237 -2.01932,-11.42773 -12.7265,-10.49865 -12.54477,1.08853 -18.78984,5.94596 -26.137764,20.33003 -8.245887,16.14187 -5.840115,18.38952 18.693224,17.46454 20.82113,-0.78502 21.01471,-0.85972 21.58188,-8.32858 z m 60.5503,-5.59168 c 0,-18.48037 -4.72792,-22.999 -27.41677,-26.20312 -9.42139,-1.33049 -17.66283,-1.88653 -18.31431,-1.23563 -2.39464,2.39245 -2.00377,35.25594 0.45831,38.53468 1.65799,2.20793 9.98088,3.38702 23.90809,3.38702 l 21.36468,0 0,-14.48295 z m -69.15844,-55.16681 c -6.54084,-0.66297 -14.40801,-4.01989 -19.81315,-8.4543 -8.015258,-6.57575 -8.976358,-8.84882 -9.074136,-21.46131 -0.167421,-21.594593 9.103436,-28.642256 41.690836,-31.693158 28.26245,-2.64599 39.34625,-0.137975 45.74856,10.351869 8.99198,14.732869 5.33223,41.405449 -6.47402,47.183079 -6.90923,3.38116 -36.25983,5.67712 -52.07809,4.07382 z m 36.61329,-14.47723 c 13.38959,-3.44461 17.06451,-10.30807 12.53484,-23.41061 l -3.57147,-10.330858 -21.25159,-0.800327 c -11.96613,-0.450642 -24.58927,0.580927 -28.89054,2.360946 -4.20143,1.738705 -7.63896,3.326224 -7.63896,3.527837 0,0.201594 -1.12343,4.280122 -2.4965,9.063362 -2.01777,7.02913 -1.48625,9.97995 2.77177,15.38821 7.22615,9.17816 23.66627,10.60109 48.54245,4.20144 z M 46.80701,89.419199 c -0.994436,-0.993526 -1.808065,-2.647702 -1.808065,-3.675947 0,-2.76703 29.829325,-21.613837 34.208778,-21.613837 2.068312,0 3.760567,-1.219329 3.760567,-2.70962 0,-1.49029 1.86547,-2.709619 4.145485,-2.709619 2.280016,0 11.398534,-3.657987 20.263375,-8.128859 8.86485,-4.470873 17.86398,-8.128859 19.99807,-8.128859 4.93274,0 9.65516,-13.266396 7.93068,-22.279157 -1.46795,-7.672123 1.90248,-11.1066776 8.43981,-8.600363 3.01359,1.15537 4.31289,5.149951 4.31289,13.259643 l 0,11.606144 26.33138,12.714826 c 14.48224,6.993154 31.87355,14.555963 38.64737,16.806243 14.03244,4.661629 20.57713,9.841252 17.90102,14.167322 -2.96594,4.794631 -7.82062,3.577689 -30.6408,-7.680884 -35.00266,-17.268921 -55.64723,-24.962867 -58.72638,-21.886517 -1.50355,1.502173 -4.94708,2.731222 -7.6523,2.731222 -2.70521,0 -7.03778,1.174343 -9.62794,2.609656 -12.37203,6.855852 -71.624909,35.32502 -73.521966,35.32502 -1.184652,0 -2.967541,-0.812886 -3.961974,-1.806414 z"
     id="path3001"
     inkscape:connector-curvature="0" />
</svg>
