<?xml version="1.0" encoding="UTF-8" standalone="no"?>
<!-- Created with Inkscape (http://www.inkscape.org/) -->

<svg
   xmlns:dc="http://purl.org/dc/elements/1.1/"
   xmlns:cc="http://creativecommons.org/ns#"
   xmlns:rdf="http://www.w3.org/1999/02/22-rdf-syntax-ns#"
   xmlns:svg="http://www.w3.org/2000/svg"
   xmlns="http://www.w3.org/2000/svg"
   xmlns:sodipodi="http://sodipodi.sourceforge.net/DTD/sodipodi-0.dtd"
   xmlns:inkscape="http://www.inkscape.org/namespaces/inkscape"
   width="300"
   height="300"
   id="svg2"
   version="1.1"
   inkscape:version="0.48.2 r9819"
   sodipodi:docname="Nouveau document 1">
  <defs
     id="defs4" />
  <sodipodi:namedview
     id="base"
     pagecolor="#ffffff"
     bordercolor="#666666"
     borderopacity="1.0"
     inkscape:pageopacity="0.0"
     inkscape:pageshadow="2"
     inkscape:zoom="1.979899"
     inkscape:cx="154.88178"
     inkscape:cy="143.49634"
     inkscape:document-units="px"
     inkscape:current-layer="layer1"
     showgrid="false"
     inkscape:window-width="1280"
     inkscape:window-height="999"
     inkscape:window-x="0"
     inkscape:window-y="24"
     inkscape:window-maximized="1" />
  <metadata
     id="metadata7">
    <rdf:RDF>
      <cc:Work
         rdf:about="">
        <dc:format>image/svg+xml</dc:format>
        <dc:type
           rdf:resource="http://purl.org/dc/dcmitype/StillImage" />
        <dc:title></dc:title>
      </cc:Work>
    </rdf:RDF>
  </metadata>
  <g
     inkscape:label="Calque 1"
     inkscape:groupmode="layer"
     id="layer1"
     transform="translate(0,-752.36218)">
    <path
       style="fill:#000000"
       d="m 183.54065,1023.1588 c -2.19105,-3.3776 -5.98243,-17.3644 -8.42529,-31.08162 -2.44286,-13.71726 -5.92639,-25.52512 -7.74117,-26.23968 -5.38168,-2.11903 -33.64339,-1.47787 -37.29097,0.84599 -1.85193,1.17986 -4.86478,9.51273 -6.69523,18.51748 -7.16188,35.23253 -10.17153,41.74523 -19.29136,41.74523 -8.734401,0 -9.154892,-5.7132 -1.69543,-23.0359 8.14318,-18.9104 9.51982,-37.72598 2.87428,-39.28519 -2.38089,-0.55862 -16.786922,-0.14836 -32.01341,0.91169 -19.280389,1.34227 -30.581759,1.16279 -37.228454,-0.59123 -18.463587,-4.87244 -8.109056,-10.8086 18.853591,-10.8086 l 20.086048,0 0,-11.6936 c 0,-6.43148 -1.41154,-12.63681 -3.136758,-13.78962 -8.334373,-5.56913 -17.641912,-19.59113 -17.641912,-26.57791 0,-12.35199 12.896071,-23.96677 29.209298,-26.30718 37.070587,-5.31842 40.545387,-5.50304 47.251287,-2.5106 6.08847,2.71692 6.23805,3.33671 1.42012,5.88416 -2.96184,1.56606 -13.51506,3.26368 -23.4516,3.77251 -9.936534,0.50883 -21.400695,1.95827 -25.475908,3.221 -10.176721,3.15331 -16.110881,11.93037 -11.653565,17.23648 1.91347,2.27785 3.479038,6.19252 3.479038,8.69927 0,6.1847 4.92094,5.73298 11.944699,-1.09645 6.721432,-6.53548 35.126516,-18.61556 43.772586,-18.61556 6.52509,0 10.69433,4.71388 7.1641,8.09996 -1.25231,1.20117 -9.38525,4.42032 -18.0732,7.15367 -29.597058,9.31165 -30.060502,18.54346 -1.03553,20.62775 16.45827,1.18187 22.79486,4.40244 19.48242,9.90193 -1.9287,3.20212 -13.90051,2.97595 -36.9512,-0.69806 -10.005632,-1.59478 -10.047598,-1.55929 -7.940097,6.7147 1.165285,4.57487 2.712475,8.69624 3.438198,9.1586 2.579519,1.64341 104.845849,1.665 109.015979,0.023 2.33387,-0.91896 4.2434,-5.08722 4.2434,-9.26281 l 0,-7.59197 -25.97333,0 c -19.80543,0 -25.97334,-0.72481 -25.97334,-3.05218 0,-3.3632 10.29362,-5.69658 25.33523,-5.74305 5.36317,-0.0165 12.76557,-1.05792 16.44978,-2.3141 16.46627,-5.6144 -1.0883,-19.77942 -24.51244,-19.77942 -12.9573,0 -23.16536,-4.53577 -19.26255,-8.55896 3.34642,-3.44965 23.02903,-5.39572 27.26667,-2.69594 2.09739,1.33625 6.61857,2.42954 10.04705,2.42954 3.42848,0 6.2336,0.99285 6.2336,2.20634 0,1.21349 2.04374,2.20634 4.54166,2.20634 2.49791,0 8.11738,2.12236 12.4877,4.71635 6.48938,3.85174 8.50394,4.15509 10.98932,1.65475 3.70021,-3.72249 3.98711,-13.20426 0.49896,-16.48981 -4.07997,-3.843 -24.76079,-7.532 -42.22496,-7.532 -18.8344,0 -32.91157,-5.08143 -24.38691,-8.80294 10.35003,-4.51837 21.64001,-4.92819 38.75438,-1.40674 9.59793,1.97486 21.83571,3.59066 27.19506,3.59066 12.15856,0 20.52571,5.12634 20.9639,12.84405 1.08719,19.14798 -2.07435,27.43236 -13.47703,35.31474 -2.92362,2.02102 -4.12859,7.80834 -3.46311,16.63286 l 1.02059,13.53339 14.09745,-0.70261 c 15.45594,-0.77032 24.64198,3.50275 20.89685,9.7206 -1.77917,2.95387 -7.28665,3.47365 -32.42122,3.05986 -50.06842,-0.82429 -46.06548,-2.0907 -43.76732,13.84663 1.09365,7.5843 4.29497,18.47337 7.11403,24.19798 6.66252,13.5294 5.12008,22.4874 -4.01402,23.3121 -4.80756,0.434 -8.14481,-1.2532 -10.90996,-5.5159 z M 126.06073,863.63358 c -34.706184,-3.49239 -42.050886,-7.48925 -47.764844,-25.99277 -9.700155,-31.41206 7.472855,-48.26797 50.355604,-49.42579 3.80942,-0.10285 26.20185,0.38333 49.76095,1.08041 l 42.83472,1.26741 6.99828,7.32312 c 5.89911,6.17293 6.90947,10.72651 6.4328,28.9921 -0.61636,23.61876 -5.00541,31.09409 -20.45351,34.83599 -12.60761,3.05387 -65.45667,4.20451 -88.164,1.91953 z m 17.47509,-17.73683 c 0.56755,-3.10499 -0.56268,-8.31747 -2.51161,-11.58328 -3.30572,-5.53936 -4.94367,-5.93783 -24.4079,-5.93783 -22.60769,0 -24.03363,1.02107 -17.26512,12.36301 5.20611,8.72384 13.5655,11.96066 29.3003,11.3453 12.01545,-0.46991 13.98929,-1.2904 14.88433,-6.1872 z m 55.22415,5.36125 c 5.26498,-0.89898 9.07501,-4.0969 11.80997,-9.91263 2.22063,-4.72203 3.04288,-9.21917 1.82723,-9.99366 -1.21565,-0.77449 -10.10457,-1.89143 -19.75316,-2.48208 -14.37102,-0.87975 -18.43488,-0.32339 -22.47623,3.07713 -7.18404,6.04487 -6.62232,17.92419 0.90683,19.17772 9.29737,1.54793 19.12408,1.59532 27.68536,0.13353 z m -54.52448,-42.73942 0,-8.82535 -14.71822,0.0325 c -20.02737,0.0443 -31.773736,4.15779 -33.129593,11.60188 l -1.095808,6.01631 24.471811,0 24.47181,0 0,-8.82536 z m 68.64677,2.71198 c 0.87931,-3.94728 -1.4849,-5.70259 -11.14388,-8.27377 -6.74299,-1.79496 -17.75321,-3.26356 -24.46717,-3.26356 -12.04455,0 -12.19989,0.11881 -11.65871,8.91784 l 0.54848,8.91783 22.80259,-0.64406 c 20.71495,-0.5851 22.90478,-1.10277 23.91869,-5.65428 z"
       id="path2996"
       inkscape:connector-curvature="0" />
  </g>
</svg>
