<?xml version="1.0" encoding="UTF-8" standalone="no"?>
<!-- Created with Inkscape (http://www.inkscape.org/) -->

<svg
   xmlns:dc="http://purl.org/dc/elements/1.1/"
   xmlns:cc="http://creativecommons.org/ns#"
   xmlns:rdf="http://www.w3.org/1999/02/22-rdf-syntax-ns#"
   xmlns:svg="http://www.w3.org/2000/svg"
   xmlns="http://www.w3.org/2000/svg"
   xmlns:sodipodi="http://sodipodi.sourceforge.net/DTD/sodipodi-0.dtd"
   xmlns:inkscape="http://www.inkscape.org/namespaces/inkscape"
   width="300"
   height="300"
   id="svg2"
   version="1.1"
   inkscape:version="0.48.4 r9939"
   sodipodi:docname="image-seal.svg">
  <defs
     id="defs4" />
  <sodipodi:namedview
     id="base"
     pagecolor="#ffffff"
     bordercolor="#666666"
     borderopacity="1.0"
     inkscape:pageopacity="0.0"
     inkscape:pageshadow="2"
     inkscape:zoom="1.979899"
     inkscape:cx="93.377566"
     inkscape:cy="122.32215"
     inkscape:document-units="px"
     inkscape:current-layer="layer1"
     showgrid="false"
     inkscape:window-width="1215"
     inkscape:window-height="1000"
     inkscape:window-x="65"
     inkscape:window-y="24"
     inkscape:window-maximized="1"
     fit-margin-top="10"
     fit-margin-left="10"
     fit-margin-right="10"
     fit-margin-bottom="10" />
  <metadata
     id="metadata7">
    <rdf:RDF>
      <cc:Work
         rdf:about="">
        <dc:format>image/svg+xml</dc:format>
        <dc:type
           rdf:resource="http://purl.org/dc/dcmitype/StillImage" />
        <dc:title />
      </cc:Work>
    </rdf:RDF>
  </metadata>
  <g
     inkscape:label="Calque 1"
     inkscape:groupmode="layer"
     id="layer1"
     transform="translate(0,-752.36218)">
    <path
       style="fill:#000000"
       d="m 106.48871,1035.9453 c -11.645619,-4.9447 -15.296484,-12.7163 -18.700323,-39.80739 -3.909992,-31.11966 -1.989362,-45.49534 6.852304,-51.28862 9.374649,-6.1425 29.318789,-9.64191 58.623089,-10.28604 14.37849,-0.31602 27.0794,-1.1535 28.22422,-1.86103 1.14482,-0.70756 7.08625,-0.48616 13.20316,0.49198 14.69452,2.34975 17.63485,9.18 19.28415,44.7962 2.26069,48.8191 -5.98865,56.2499 -65.25619,58.782 -20.12983,0.86 -39.13351,0.4878 -42.23041,-0.8271 z m 33.48311,-15.9548 c 2.98443,-7.7773 1.84263,-25.72617 -1.81031,-28.45763 -1.93555,-1.4473 -5.41956,-2.42884 -7.74223,-2.18121 -2.32268,0.24776 -10.38187,0.64318 -17.90933,0.87905 l -13.6863,0.42881 1.9258,10.26538 c 3.42353,18.249 8.81511,23.5189 24.06168,23.5189 9.66914,0 13.93235,-1.2523 15.16069,-4.4533 z m 47.11627,0.044 c 9.49283,-4.909 17.74343,-21.11779 15.05729,-29.58094 -1.49062,-4.69652 -4.45275,-5.42407 -22.08394,-5.42407 -11.19933,0 -21.71718,1.35478 -23.37301,3.0106 -2.68823,2.68822 -2.30102,23.54781 0.61043,32.88521 1.53873,4.9349 19.56595,4.3959 29.78923,-0.8908 z m -47.98697,-45.00468 c 1.43647,-0.88777 2.3947,-7.3524 2.12942,-14.36583 -0.47482,-12.55316 -0.61206,-12.72577 -8.81408,-11.08537 -4.58246,0.91651 -12.62807,1.66635 -17.87914,1.66635 -8.09088,0 -10.24563,1.46421 -14.1243,9.59788 -7.602031,15.94162 -4.092552,19.42929 17.581,17.47168 10.17244,-0.91882 19.67065,-2.39692 21.1071,-3.28471 z m 45.82474,-0.23705 c 12.95316,-1.77542 13.06208,-1.88021 13.06208,-12.57005 0,-13.39896 -5.13288,-16.60855 -26.56085,-16.60855 -8.61826,0 -15.74836,0.31673 -15.84466,0.70384 -0.0963,0.38711 -0.81219,6.27921 -1.59089,13.09357 -1.97319,17.26745 2.1641,19.3246 30.93432,15.38121 z M 60.3314,941.74755 c -1.764763,-2.12641 -2.638494,-5.61042 -1.941625,-7.74225 0.696873,-2.13181 2.037267,-19.71245 2.978655,-39.06805 1.806687,-37.14674 5.308202,-50.45017 13.430881,-51.02842 8.846684,-0.62979 17.454244,-4.13675 27.900959,-11.36766 4.11016,-2.84493 12.02836,-5.17258 17.59601,-5.17258 11.62816,0 11.02826,2.01841 10.31536,-34.70656 -0.53242,-27.42807 -0.48061,-27.66016 5.96984,-26.74593 6.19663,0.87825 6.51699,2.06335 6.71815,24.85279 0.32924,37.29745 -2.21131,33.92035 24.42317,32.46512 40.25772,-2.19959 57.32055,5.85719 59.6307,28.1565 0.63643,6.14354 2.48537,20.67193 4.10871,32.28529 3.68804,26.38393 3.81673,42.40827 0.38418,47.8376 -4.25083,6.72365 -7.9762,0.2196 -9.66181,-16.86863 -0.84011,-8.51647 -2.25043,-23.08596 -3.13406,-32.37664 -3.36495,-35.37907 -4.63642,-38.81311 -15.40396,-41.60327 -15.9665,-4.13734 -105.339084,1.42736 -108.637428,6.76419 -0.837027,1.35432 -3.784563,2.46242 -6.550083,2.46242 -11.790087,0 -14.17061,7.99239 -14.716297,49.40863 -0.570908,43.3304 -3.909343,53.89667 -13.411352,42.44745 z m 72.90323,-21.45089 c -2.32267,-1.4894 -6.26356,-2.07413 -8.75752,-1.29939 -2.49398,0.77472 -7.19478,-0.83786 -10.44623,-3.58348 -5.11213,-4.31685 -5.99949,-8.50515 -6.56063,-30.96585 -0.3569,-14.28559 0.33999,-26.95471 1.54865,-28.15361 1.20866,-1.19888 5.04095,1.37793 8.51619,5.72631 5.93293,7.42352 7.50713,7.87071 25.78973,7.32611 24.27376,-0.72311 26.50951,-1.55825 26.50951,-9.90273 0,-3.70543 1.22233,-6.73719 2.7163,-6.73719 5.55442,0 9.29893,12.88931 9.62103,33.11735 0.29788,18.70627 -0.34747,21.38754 -6.31467,26.23581 -3.97117,3.22651 -10.98692,5.40014 -17.42985,5.40014 -5.93086,0 -11.56638,1.26692 -12.52338,2.81536 -2.18139,3.52957 -7.18481,3.53792 -12.66913,0.0197 z m 25.33825,-13.47189 c 8.80333,-1.83263 11.16374,-5.30712 11.21834,-16.51319 0.0556,-11.41471 -4.14737,-12.85998 -27.55305,-9.47473 -10.37152,1.50009 -19.80748,2.75252 -20.96882,2.78318 -3.77385,0.0996 -2.22665,16.43062 1.95259,20.60985 2.36484,2.36485 7.07342,3.48885 11.26145,2.68825 4.54766,-0.86933 7.19733,-0.10755 7.19733,2.06893 0,2.19276 1.79068,2.69209 4.92688,1.37383 2.70979,-1.13901 8.09416,-2.73028 11.96528,-3.53612 z M 46.641557,829.54227 c 0.633788,-1.90135 11.191391,-8.76751 23.461341,-15.25815 23.93771,-12.66272 24.558613,-13.73195 19.785607,-34.07282 -2.053904,-8.75303 -1.783879,-9.14993 6.22491,-9.14993 6.748685,0 8.408885,1.22823 8.562415,6.33456 0.10476,3.48401 0.98885,10.89711 1.96466,16.47358 1.61871,9.25046 0.83171,10.91591 -8.980184,19.00369 -5.914906,4.87555 -13.632998,8.86466 -17.151316,8.86466 -3.518317,0 -6.396939,1.14298 -6.396939,2.53994 0,2.97035 -15.283899,8.72151 -23.177619,8.72151 -3.05267,0 -4.938894,-1.51898 -4.292875,-3.45704 z M 210.65706,813.10214 c -19.02759,-3.07947 -34.68372,-8.39082 -35.89632,-12.17779 -0.54895,-1.71439 -0.4978,-10.4018 0.11366,-19.30538 0.91352,-13.30173 2.01562,-16.18832 6.18071,-16.18832 6.67443,0 8.76256,6.11381 5.71611,16.73616 -3.23456,11.27825 2.06193,14.18756 29.62381,16.27209 14.9206,1.12842 21.16977,2.7677 22.3583,5.86495 3.32111,8.65465 -7.6861,12.10156 -28.09628,8.79829 z"
       id="path3067"
       inkscape:connector-curvature="0" />
  </g>
</svg>
