<?xml version="1.0" encoding="UTF-8"?>
<!DOCTYPE svg PUBLIC "-//W3C//DTD SVG 1.1//EN" "http://www.w3.org/Graphics/SVG/1.1/DTD/svg11.dtd">
<svg width="300" height="300" version="1.1" viewBox="0 0 79.375 79.375" xmlns="http://www.w3.org/2000/svg">
 <path id="a" d="m33.106 13.694h-7.9741c-4.7937 0-7.6053-0.09219-7.6053 1.475 0 1.5672 2.6273 1.7054 7.8819 1.7054 0 0 7.421 0.09219 7.421 0.09219-0.02028 0.89236-0.28024 2.9407-0.6158 3.4773-0.21756 0.26918-0.85917 0.44065-1.4123 0.50887-0.96795 0.14012-9.4491 0.14565-10.279 0.20834-1.0638 0.0719-2.6826 0.18622-3.2376 0.53652-0.73011 0.44987-0.57524 1.2021 0 1.6944 0.6619 0.55496 1.6999 0.61764 2.5222 0.62686 0.71536 0 4.7255-0.13828 6.5231-0.13828 0 0.8518-0.01659 2.9665-0.04978 3.6377-0.55312 0.16778-1.9359 0.413-3.1011 1.1228-0.81308 0.50887-2.3895 1.7589-3.7538 2.95-1.7847 1.5561-3.3924 2.9315-3.5547 3.3519-0.13459 0.35215-0.32265 1.4252 0.03319 1.6759 0.60105 0.42221 2.583-1.0528 3.1177-1.4086 1.9451-1.2722 4.4176-3.6026 5.1938-4.0285 0.55127-0.30237 1.3109-0.73011 2.1479-0.69692l-0.03318 11.095h-6.8218c-0.89236 0.0021-4.5355 0.09034-4.0562 1.6133 0.42959 1.0491 1.3127 1.038 2.5812 1.038s3.2966 0.06822 3.2966 0.06822c-0.01844 2.6181-0.15303 8.73-0.53099 13.229-0.39824 4.731-1.003 9.9266-1.1855 11.155-0.24337 1.3367-0.79649 4.0101-0.83705 4.7937 0 0.54021 0.09772 1.5303 0.62502 1.829 0.71352 0.40562 1.4842-0.54758 1.7663-1.0933 0.61212-1.1818 0.83705-4.2756 1.0288-5.7137 0.22862-1.805 0.77989-6.2041 1.1376-10.832 0.48305-6.2391 0.64899-7.7897 0.71721-13.337 0 0 6.335 0.09956 6.335 0.09956 0 4.8951 0.14381 7.1131 0.61396 13.684 0.34109 4.7605 1.0159 9.2315 1.1523 10.386 0.21387 1.5635 0.4849 4.1096 1.0159 5.5312 0.22309 0.5992 0.67111 1.4694 1.4418 1.368 0.79833-0.10324 1.038-1.073 0.9993-1.7368-0.01475-0.59921-0.53099-3.7206-0.8223-5.5312-0.17147-1.2224-0.89974-5.5514-1.2666-10.264-0.48305-6.2133-0.59921-13.015-0.59921-13.474 1.1984 0.02397 2.9297-0.02948 4.0691-0.06272 0.56971 0 2.6144-0.30606 2.6144-0.99745 0-1.0196-1.3828-1.5672-2.5812-1.5893-2.95-0.07007-8.282-0.16225-8.282-0.16225l0.01844-11.029c0.68771 0 1.8234 0.54942 2.548 1.0177 2.0557 1.3275 3.2505 2.8449 4.978 4.4729 0.53652 0.50518 2.135 1.7921 2.548 0.44249 0.29499-0.96611-1.5432-3.2781-2.1867-3.9363-1.0251-1.0472-3.6874-3.0587-4.9873-3.8073-0.59183-0.33925-2.4466-1.0896-2.9168-1.3238 0-0.50333-0.01659-3.7206-0.01659-3.7206 0.57524-0.07006 1.4473-0.28025 1.8898-0.39087 0.95505-0.23968 2.2825-0.54205 3.1214-1.0675 1.2648-0.79279 1.3201-2.6881 1.5782-4.0728 0.64161-3.4422 0.64346-7.7197 0.60105-11.247-0.01107-0.85917-0.32265-2.9499-1.3828-2.9499-1.0601 0-1.3164 2.2457-1.333 2.8485-0.03318 0.97348-0.04425 3.1823-0.04978 4.342 0 0.57524 0 1.7054-0.0461 2.5351zm18.299 17.008c-1.7718 0-4.283-0.03317-5.096-1.6593-0.6619-1.2556-0.73749-3.1509-0.83705-3.6874-0.13459-0.93845-0.43696-2.3471-0.97164-2.3471-0.53652 0-0.7338 0.49043-0.9403 0.90527-0.34846 0.70799-0.39271 2.0594-0.40193 2.8504-0.03318 2.8246 0.73196 4.9504 3.6045 6.1009 0.7043 0.28209 4.0396 0.61949 4.7125 0.60289 0.36874 0.59921 0.13644 2.7656 0.41668 4.2074 0.25075 1.1173 1.864 1.1173 2.2125 0 0.34293-1.4418-0.09587-3.516 0.25074-4.1613 0.65452-0.1014 2.6273-0.59368 3.5031-0.78727 2.0189-0.44249 3.1564-1.3644 3.8552-3.315 0.5439-1.5155 0.71905-3.0698 0.18253-4.6093-0.18068-0.51993-0.46462-1.5893-1.1579-1.5672-0.68955 0.02209-0.93108 0.9108-1.0583 1.4289-0.33371 1.3404-0.26734 2.9204-0.88498 4.1945-0.75961 1.5708-2.6881 1.8437-4.4858 1.8437 0 0 0.06822-8.1824 0.06822-8.1824 0.4849-0.06822 2.6974-0.57524 3.8497-1.215 1.0601-0.53099 4.0101-1.5727 4.0562-5.4906-0.0461-2.7656-1.5727-4.1723-3.02-4.8619-2.242-1.073-5.4371-1.5708-6.6134-1.5911-1.9359-0.03317-5.3357 0.57893-7.0061 1.7054-1.6354 1.1044-3.0956 2.5738-3.0882 4.7015 0.0092 2.6863 2.7656 5.0702 5.1624 5.9331 2.3968 0.86286 3.1564 0.75039 3.6653 0.84258 0 0 0.02212 8.1585 0.02212 8.1585zm1.1523-18.575c3.964 0.04613 7.2366 1.7976 7.2827 3.5953 0.0461 1.7976-2.4429 3.964-7.1905 3.964-4.7476 0-7.3288-1.7976-7.3288-3.8718 0-2.0742 3.2726-3.7335 7.2366-3.6874zm-10.002 26.135c-1.2906 0.50703-0.92186 4.5816-0.92186 7.1905 0 3.5418-0.27656 11.702 0.27656 14.75 0.30052 1.652 1.0841 4.0617 2.218 5.3081 0.83889 0.9237 3.1011 1.6464 4.3272 1.9212 2.6826 0.59736 6.394 0.33002 9.2186 0.33002 2.4946 0 5.8538 0.23047 6.2686-0.92185 0.32265-1.7515-2.8449-1.8437-4.6093-1.8437l-4.7715 0.02216s0.02397-7.5814 0.02397-7.5814c2.1516 0 5.0887-0.45171 6.5415-2.2161 0.60843-0.74118 0.99008-1.7939 1.2021-2.7158 0.35215-1.5413 0.78358-4.6093 0.6914-7.6053-0.0018-1.4399-0.23968-2.8854-0.74118-4.2406-0.19728-0.53099-0.5439-1.333-1.2685-1.0472-1.1708 0.46278-0.98639 2.3839-0.94767 3.8128 0.05347 4.5632 0.83705 7.928-0.68402 9.8178-0.78358 1.1081-3.2468 1.4289-4.672 1.3625 0 0 0-5.7837 0.01659-8.046-0.04978-1.9267-0.0461-2.9721-0.38534-4.5079-0.23968-1.086-0.9827-2.9887-2.1461-1.2076-0.4554 0.69877-0.56602 2.1867-0.56971 3.0163l-0.01107 21.114c-1.7147 0-4.1447 0.01847-5.5533-1.0841-1.5063-1.18-1.84-4.2719-1.8437-6.0843 0-5.5772 0.18437-8.4811 0.13828-11.477 0.0037-2.3636 0.59921-8.5733-1.7976-8.0663z"/>
</svg>
