<?xml version="1.0" encoding="UTF-8" standalone="no"?>
<svg
   xmlns:dc="http://purl.org/dc/elements/1.1/"
   xmlns:cc="http://creativecommons.org/ns#"
   xmlns:rdf="http://www.w3.org/1999/02/22-rdf-syntax-ns#"
   xmlns:svg="http://www.w3.org/2000/svg"
   xmlns="http://www.w3.org/2000/svg"
   viewBox="0 0 300 300"
   height="300"
   width="300"
   id="svg593"
   version="1.1">
  <metadata
     id="metadata599">
    <rdf:RDF>
      <cc:Work
         rdf:about="">
        <dc:format>image/svg+xml</dc:format>
        <dc:type
           rdf:resource="http://purl.org/dc/dcmitype/StillImage" />
        <dc:title></dc:title>
      </cc:Work>
    </rdf:RDF>
  </metadata>
  <defs
     id="defs597" />
  <path
     id="path603"
     d="m 64.272344,283.98068 c 9.789598,-29.43411 19.271522,-61.61421 21.426102,-90.47806 l -20.360058,-1.11408 c -0.94957,13.03212 -2.19264,21.19021 -4.907042,38.18814 -1.567926,9.81855 -13.165928,10.58975 -11.71423,-1.68698 3.018615,-25.52786 5.417339,-48.33764 6.284533,-72.26465 0.463277,-14.9162 12.58557,-11.48636 12.34136,0.19832 l -0.879793,20.44835 20.63635,1.11782 c 2.459236,-29.56592 3.390397,-55.3486 3.474784,-82.087349 L 71.459518,96.098517 c -0.181555,9.394483 -0.914921,16.585103 -1.818422,27.637283 -0.861002,10.53231 -12.604746,10.6999 -11.733504,0.10376 2.047174,-24.897955 2.531293,-38.211017 1.10663,-63.214233 -0.6611,-11.60248 10.476378,-8.43252 11.4022,-0.672215 1.137386,9.533648 1.017664,13.383942 1.392314,23.078725 l 18.68504,0.05888 C 90.246074,56.20819 87.760567,40.667485 83.706577,18.797916 81.110664,4.7940589 92.530226,6.6304292 95.108145,16.319624 c 2.20749,8.296922 3.804154,17.388026 4.832771,24.418573 l 144.607414,0.36319 c 8.62754,0.02167 8.0636,13.105557 -0.63801,13.14313 l -142.58025,0.61565 c 1.72947,44.171612 -0.11597,91.151233 -2.651227,129.828773 -2.451129,37.39408 -11.057315,68.71422 -22.752341,99.77853 -3.378657,8.97438 -14.070936,6.77967 -11.654158,-0.48679 z"
     style="fill:#000000;stroke-width:0.72639227" />
</svg>
