<?xml version="1.0" encoding="UTF-8" standalone="no"?>
<!-- Created with Inkscape (http://www.inkscape.org/) -->

<svg
   xmlns:dc="http://purl.org/dc/elements/1.1/"
   xmlns:cc="http://creativecommons.org/ns#"
   xmlns:rdf="http://www.w3.org/1999/02/22-rdf-syntax-ns#"
   xmlns:svg="http://www.w3.org/2000/svg"
   xmlns="http://www.w3.org/2000/svg"
   xmlns:sodipodi="http://sodipodi.sourceforge.net/DTD/sodipodi-0.dtd"
   xmlns:inkscape="http://www.inkscape.org/namespaces/inkscape"
   width="300"
   height="300"
   id="svg2"
   version="1.1"
   inkscape:version="0.48.4 r9939"
   sodipodi:docname="image-seal.svg">
  <defs
     id="defs4" />
  <sodipodi:namedview
     id="base"
     pagecolor="#ffffff"
     bordercolor="#666666"
     borderopacity="1.0"
     inkscape:pageopacity="0.0"
     inkscape:pageshadow="2"
     inkscape:zoom="2.0018437"
     inkscape:cx="232.32812"
     inkscape:cy="141.91078"
     inkscape:document-units="px"
     inkscape:current-layer="layer1"
     showgrid="false"
     inkscape:window-width="1215"
     inkscape:window-height="1000"
     inkscape:window-x="65"
     inkscape:window-y="24"
     inkscape:window-maximized="1"
     fit-margin-top="10"
     fit-margin-left="10"
     fit-margin-right="10"
     fit-margin-bottom="10" />
  <metadata
     id="metadata7">
    <rdf:RDF>
      <cc:Work
         rdf:about="">
        <dc:format>image/svg+xml</dc:format>
        <dc:type
           rdf:resource="http://purl.org/dc/dcmitype/StillImage" />
        <dc:title />
      </cc:Work>
    </rdf:RDF>
  </metadata>
  <g
     inkscape:label="Calque 1"
     inkscape:groupmode="layer"
     id="layer1"
     transform="translate(0,-752.36218)">
    <path
       style="fill:#000000"
       d="m 206.56163,1036.1755 c -4.40706,-5.9124 -8.7331,-11.3949 -9.61345,-12.1832 -4.39232,-3.9333 -14.19853,-32.39615 -14.19853,-41.21181 0,-5.52714 -1.12398,-10.74397 -2.49773,-11.59301 -1.37378,-0.84901 -13.77122,-0.16483 -27.54987,1.52069 -18.70832,2.28841 -25.87928,2.22463 -28.31865,-0.25169 -5.74406,-5.8314 5.30113,-10.59175 28.6775,-12.35969 12.07296,-0.91308 22.88877,-3.17776 24.03511,-5.03259 4.51086,-7.29872 -4.53471,-19.97099 -11.27983,-15.80229 -1.14556,0.70803 -10.70406,2.11283 -21.24108,3.12183 -17.78404,1.70292 -19.15825,1.42853 -19.15825,-3.82562 0,-6.4805 8.91015,-8.9348 34.58602,-9.52671 21.69745,-0.5002 27.23058,1.7637 30.27765,12.38825 1.42349,4.96333 4.05672,9.51377 5.85167,10.1121 3.73136,1.24378 17.97839,-12.04929 18.49015,-17.25216 1.64396,-16.71311 -4.36922,-19.02328 -49.78919,-19.12834 -31.73651,-0.0734 -39.4163,-0.8692 -39.4163,-4.08442 0,-2.19631 2.04048,-4.77628 4.53443,-5.73328 7.66571,-2.94163 78.63136,-1.92397 84.4902,1.21159 3.03333,1.6234 7.4635,6.71928 9.84479,11.3242 9.61098,18.58563 1.94716,36.60203 -19.16275,45.04856 -9.51274,3.80624 -11.05806,5.53313 -9.48052,10.59453 1.03663,3.32587 2.90821,10.92152 4.15909,16.87918 1.25086,5.95768 4.3757,13.15418 6.94412,15.99218 2.56843,2.8381 4.66985,6.08 4.66985,7.2043 0,1.1242 2.57997,4.8134 5.73328,8.1981 3.1533,3.3847 5.73328,7.8457 5.73328,9.9133 0,2.0677 1.28998,3.7595 2.86664,3.7595 1.57665,0 2.86664,2.5799 2.86664,5.7332 0,10.1826 -12.91468,7.245 -22.05427,-5.0166 z M 95.752116,1019.1718 c -1.07462,-1.0746 -1.09128,-21.06941 -0.037,-44.4329 l 1.91686,-42.47905 -10.16731,0 c -12.79591,0 -13.64736,2.22251 -13.64736,35.62317 0,22.23013 -0.8667,27.33868 -5.32226,31.3709 -8.23594,7.45338 -11.79594,0.70301 -8.87457,-16.82787 1.31366,-7.88326 2.46539,-33.401 2.55939,-56.70612 0.14563,-36.10485 0.84976,-42.63342 4.76014,-44.13396 6.98342,-2.67979 9.99251,4.58963 9.10973,22.00748 l -0.79911,15.76652 10.35711,0.8663 10.35712,0.86627 1.85901,-36.69927 c 3.737704,-73.78723 4.523164,-65.24069 -6.09006,-66.26399 l -9.31658,-0.89829 0,16.74364 c 0,16.14847 -5.2602,29.48586 -11.6291,29.48586 -1.57332,0 -2.7041,-17.85298 -2.7041,-42.6929 0,-36.95761 0.63275,-42.93573 4.71026,-44.5004 6.30598,-2.41985 6.83493,-1.57889 9.13925,14.53042 1.87008,13.0734 2.49527,13.89676 10.55236,13.89676 l 8.564494,0 1.43332,-23.68238 c 0.78833,-13.02532 2.40081,-23.66772 3.5833,-23.64978 1.18249,0.0172 3.55621,0.0327 5.27494,0.0327 3.12182,0 2.85282,26.40437 -1.94198,190.63157 -1.01273,34.68634 -3.02855,65.32352 -4.47964,68.08272 -2.7756,5.2776 -5.907204,6.3237 -9.168234,3.0627 z M 175.24562,886.65565 c -10.69391,-6.52092 -14.52876,-18.34025 -8.78691,-27.08201 2.33777,-3.55919 9.93443,-7.73586 18.04731,-9.92247 19.15494,-5.16271 28.17732,-10.50959 29.23396,-17.32483 1.31611,-8.48843 -8.37156,-12.35226 -25.97052,-10.35806 -25.93676,2.939 -27.57806,3.71947 -33.90599,16.12328 -6.61492,12.9663 -15.45801,22.81845 -25.12518,27.99216 -5.14511,2.75358 -6.5843,2.54641 -8.00358,-1.15213 -0.98509,-2.56713 0.57666,-6.63584 3.62584,-9.44624 13.97929,-12.88457 22.63319,-31.69211 23.65876,-51.41769 0.47987,-9.22986 8.79347,-5.07544 10.89773,5.44579 1.25542,6.27705 2.84634,7.92895 6.30586,6.54752 2.54478,-1.01614 14.57457,-2.55776 26.73288,-3.42584 29.03961,-2.07329 36.66012,2.1757 36.66012,20.44072 0,14.52799 -2.98168,17.70237 -18.63316,19.83727 -27.65548,3.7723 -34.37624,6.16081 -35.29029,12.54198 -1.3352,9.32094 9.12385,13.44781 35.29029,13.92459 30.55371,0.55673 30.09972,0.45095 30.09972,7.01392 0,5.34198 -1.90752,5.73254 -27.94974,5.72256 -22.40687,-0.009 -29.72216,-1.0915 -36.8871,-5.46052 z M 125.41685,783.35779 c 0,-3.24308 0.96749,-5.98637 2.14998,-6.09625 1.18249,-0.10979 27.70852,-0.64858 58.94669,-1.19717 48.76949,-0.85646 57.03284,-0.38221 58.46719,3.35569 0.91876,2.39422 0.21099,5.25513 -1.57275,6.35755 -1.78377,1.10242 -29.06151,2.33568 -60.61717,2.74057 -56.23086,0.72147 -57.37394,0.61865 -57.37394,-5.16039 z"
       id="path3078"
       inkscape:connector-curvature="0" />
  </g>
</svg>
