<?xml version="1.0" encoding="UTF-8" standalone="no"?>
<!-- Created with Inkscape (http://www.inkscape.org/) -->

<svg
   xmlns:dc="http://purl.org/dc/elements/1.1/"
   xmlns:cc="http://creativecommons.org/ns#"
   xmlns:rdf="http://www.w3.org/1999/02/22-rdf-syntax-ns#"
   xmlns:svg="http://www.w3.org/2000/svg"
   xmlns="http://www.w3.org/2000/svg"
   xmlns:sodipodi="http://sodipodi.sourceforge.net/DTD/sodipodi-0.dtd"
   xmlns:inkscape="http://www.inkscape.org/namespaces/inkscape"
   width="300"
   height="300"
   id="svg2"
   version="1.1"
   inkscape:version="0.48.4 r9939"
   sodipodi:docname="image-seal.svg">
  <defs
     id="defs4" />
  <sodipodi:namedview
     id="base"
     pagecolor="#ffffff"
     bordercolor="#666666"
     borderopacity="1.0"
     inkscape:pageopacity="0.0"
     inkscape:pageshadow="2"
     inkscape:zoom="2.0018437"
     inkscape:cx="145.03351"
     inkscape:cy="130.6666"
     inkscape:document-units="px"
     inkscape:current-layer="layer1"
     showgrid="false"
     inkscape:window-width="1215"
     inkscape:window-height="1000"
     inkscape:window-x="65"
     inkscape:window-y="24"
     inkscape:window-maximized="1"
     fit-margin-top="10"
     fit-margin-left="10"
     fit-margin-right="10"
     fit-margin-bottom="10" />
  <metadata
     id="metadata7">
    <rdf:RDF>
      <cc:Work
         rdf:about="">
        <dc:format>image/svg+xml</dc:format>
        <dc:type
           rdf:resource="http://purl.org/dc/dcmitype/StillImage" />
        <dc:title />
      </cc:Work>
    </rdf:RDF>
  </metadata>
  <g
     inkscape:label="Calque 1"
     inkscape:groupmode="layer"
     id="layer1"
     transform="translate(0,-752.36218)">
    <path
       style="fill:#000000"
       d="m 164.03414,1045.7841 c -2.95123,-2.9513 -1.76871,-44.7364 1.42797,-50.45763 3.64883,-6.53052 28.8839,-31.20129 31.91495,-31.20129 7.05141,0 13.58141,-15.55911 15.42214,-36.7465 6.14799,-70.76589 5.16127,-72.60422 -37.85848,-70.53267 -25.83343,1.24397 -33.29698,-0.3314 -27.7674,-5.86099 4.66576,-4.66576 53.06862,-5.98799 61.24717,-1.6731 15.68419,8.27478 17.67441,12.60256 17.67441,38.43366 0,28.80018 -3.75976,60.80452 -8.46642,72.06914 -2.20347,5.27368 -8.84021,12.04793 -18.3138,18.69329 -8.17188,5.73223 -16.22216,12.83347 -17.8895,15.78052 -3.93251,6.95077 -8.99395,33.53057 -6.38502,33.53057 2.66106,0 1.79325,12.6469 -1.13463,16.5359 -2.50849,3.332 -7.27804,4.0224 -9.87139,1.4291 z m -65.579435,-35.5462 c -0.13866,-3.1303 -0.17467,-21.33776 -0.0796,-40.46091 0.16438,-33.07658 -0.074,-34.84762 -4.893815,-36.3774 -2.78664,-0.88444 -6.01974,-0.65495 -7.18468,0.50999 -1.16494,1.16494 -2.26564,14.77879 -2.44604,30.25298 -0.31882,27.35163 -2.02275,34.25936 -8.45079,34.25936 -3.69046,0 -7.31797,-12.36309 -4.24462,-14.46622 1.17126,-0.80149 2.42157,-24.60756 2.77848,-52.90237 0.35693,-28.29481 1.40097,-52.226 2.3201,-53.18043 0.91913,-0.95443 3.20672,-0.78628 5.08354,0.37366 2.44006,1.50803 3.48129,7.92444 3.65417,22.51821 0.19059,16.08895 1.01964,20.54671 3.91644,21.05874 8.611885,1.52216 9.404555,-2.46662 10.457265,-52.6209 0.57197,-27.25177 0.59405,-49.9946 0.049,-50.53962 -0.54503,-0.54503 -3.131905,-0.43109 -5.748625,0.25321 -4.07291,1.06508 -4.75769,3.45725 -4.75769,16.61983 0,11.79516 -0.9072,15.7238 -3.89572,16.87061 -2.14266,0.82219 -4.68758,1.00553 -5.65543,0.40737 -0.96783,-0.59816 -1.88493,-15.45051 -2.03801,-33.00522 -0.15311,-17.55471 -0.98647,-33.06347 -1.852,-34.46393 -2.63808,-4.2685 1.24781,-12.30151 5.95073,-12.30151 4.88209,0 7.49043,8.63724 7.49043,24.80389 0,7.74933 0.86955,9.49285 4.73444,9.49285 6.148405,0 7.76883,-5.65764 8.6308,-30.13387 0.45936,-13.04438 1.67596,-20.00047 3.47012,-19.84138 1.51952,0.13474 3.87732,0.41034 5.23954,0.61244 1.64514,0.244 2.00126,28.12794 1.06065,83.04711 -0.77885,45.4738 -1.47005,98.11317 -1.53603,116.97637 -0.15139,43.31154 -1.82223,56.01044 -7.51336,57.10454 -3.039695,0.5844 -4.360515,-0.8318 -4.539395,-4.8674 z m 49.247645,-58.36155 c 0,-1.34738 -1.48274,-2.44977 -3.29496,-2.44977 -5.61175,0 -11.40364,-8.57835 -11.40364,-16.88987 0,-4.36144 -1.1789,-10.13268 -2.61976,-12.82497 -1.89423,-3.5394 -1.83583,-5.83968 0.21093,-8.30584 1.55685,-1.87591 2.08965,-4.60973 1.18397,-6.07513 -0.90568,-1.4654 -0.30311,-4.28329 1.33902,-6.26195 3.72203,-4.48476 9.68493,-0.39735 9.68493,6.6388 0,6.75817 5.1109,7.80868 26.37221,5.42067 16.06057,-1.80388 19.03888,-2.8591 19.8204,-7.0224 1.25232,-6.67116 5.36524,-8.81142 9.32445,-4.85221 4.20547,4.20549 4.30544,32.04732 0.14503,40.37383 -4.61769,9.24148 -17.76329,14.6904 -35.45144,14.69481 -8.57673,0.002 -15.31104,-1.07369 -15.31104,-2.44597 z m 33.44454,-11.57873 c 3.27392,-0.71389 5.73172,-3.55334 6.48453,-7.49146 2.34365,-12.25989 0.40083,-13.31008 -22.93021,-12.39501 -11.82289,0.46371 -22.14283,1.49114 -22.93322,2.28318 -0.79037,0.79206 -0.23298,4.89422 1.2388,9.11595 2.16503,6.21065 4.38841,7.9615 11.64744,9.17207 4.93439,0.82288 10.074,1.86974 11.42137,2.32633 1.34738,0.45661 4.10336,0.22464 6.12442,-0.51563 2.02106,-0.74022 6.04715,-1.86317 8.94687,-2.49543 z m -31.41486,-54.08895 c -12.65221,-1.05342 -17.31253,-8.98917 -17.67178,-30.0921 -0.41254,-24.23332 3.28234,-27.42909 36.12715,-31.247 13.94584,-1.62108 26.89256,-2.36959 28.77051,-1.66332 3.84486,1.446 10.32719,-10.15894 7.88335,-14.11316 -0.96261,-1.55753 -11.4848,-1.89712 -28.71666,-0.92674 -34.15122,1.92314 -37.12049,1.16271 -40.01695,-10.24848 -3.82587,-15.07268 -0.94889,-16.68475 9.05243,-5.07237 l 9.10767,10.57482 23.64261,-3.24604 c 31.59871,-4.33837 38.38547,-1.95634 38.38547,13.47249 0,9.60272 -0.7571,10.9532 -7.96174,14.20184 -4.37896,1.97449 -14.02492,4.17886 -21.43547,4.89855 -25.37255,2.4642 -37.97298,4.63222 -41.03359,7.06028 -1.82314,1.44632 -3.06221,8.22061 -3.06221,16.74176 0,15.92375 3.03269,19.38437 16.98732,19.38437 4.1307,0 7.51035,1.23737 7.51035,2.74971 0,1.8983 0.94818,1.9766 3.06221,0.25282 1.68421,-1.37329 9.12538,-2.88627 16.53592,-3.36216 12.41462,-0.79725 13.53526,-0.43199 14.25655,4.64672 0.84321,5.93708 3.18411,5.47324 -32.6298,6.4654 -5.38949,0.14944 -13.84647,-0.0654 -18.79334,-0.47739 z M 126.83039,775.41392 c -0.95093,-1.5386 -0.61002,-3.9164 0.75754,-5.28395 2.67867,-2.67868 9.93557,-3.35849 63.59779,-5.95759 34.63924,-1.67775 34.90918,-1.64999 34.90918,3.59008 0,5.74596 0.007,5.74404 -24.49767,6.58409 -8.75792,0.30025 -28.77423,1.29267 -44.48069,2.20538 -20.36683,1.18353 -29.05309,0.85715 -30.28615,-1.13801 z"
       id="path3262"
       inkscape:connector-curvature="0" />
  </g>
</svg>
