<?xml version="1.0" encoding="UTF-8" standalone="no"?>
<!-- Created with Inkscape (http://www.inkscape.org/) -->

<svg
   xmlns:dc="http://purl.org/dc/elements/1.1/"
   xmlns:cc="http://creativecommons.org/ns#"
   xmlns:rdf="http://www.w3.org/1999/02/22-rdf-syntax-ns#"
   xmlns:svg="http://www.w3.org/2000/svg"
   xmlns="http://www.w3.org/2000/svg"
   xmlns:sodipodi="http://sodipodi.sourceforge.net/DTD/sodipodi-0.dtd"
   xmlns:inkscape="http://www.inkscape.org/namespaces/inkscape"
   width="300"
   height="300"
   id="svg2"
   version="1.1"
   inkscape:version="0.48.4 r9939"
   sodipodi:docname="image-seal.svg">
  <defs
     id="defs4" />
  <sodipodi:namedview
     id="base"
     pagecolor="#ffffff"
     bordercolor="#666666"
     borderopacity="1.0"
     inkscape:pageopacity="0.0"
     inkscape:pageshadow="2"
     inkscape:zoom="2.0018437"
     inkscape:cx="145.03351"
     inkscape:cy="130.6666"
     inkscape:document-units="px"
     inkscape:current-layer="layer1"
     showgrid="false"
     inkscape:window-width="1215"
     inkscape:window-height="1000"
     inkscape:window-x="65"
     inkscape:window-y="24"
     inkscape:window-maximized="1"
     fit-margin-top="10"
     fit-margin-left="10"
     fit-margin-right="10"
     fit-margin-bottom="10" />
  <metadata
     id="metadata7">
    <rdf:RDF>
      <cc:Work
         rdf:about="">
        <dc:format>image/svg+xml</dc:format>
        <dc:type
           rdf:resource="http://purl.org/dc/dcmitype/StillImage" />
        <dc:title />
      </cc:Work>
    </rdf:RDF>
  </metadata>
  <g
     inkscape:label="Calque 1"
     inkscape:groupmode="layer"
     id="layer1"
     transform="translate(0,-752.36218)">
    <path
       style="fill:#000000"
       d="m 97.023824,1044.8854 c -0.86712,-1.403 -0.96907,-23.7862 -0.22665,-49.74047 l 1.35006,-47.1894 -7.69891,0 c -9.11175,0 -9.71135,2.21958 -12.48339,46.21072 -1.32595,21.04235 -2.83042,29.12585 -5.62006,30.19625 -7.06741,2.7121 -8.83793,-10.1242 -6.15434,-44.61855 1.41771,-18.22302 2.86653,-45.23179 3.21952,-60.01949 0.61141,-25.61063 0.92899,-26.92751 6.69138,-27.74589 5.81644,-0.82607 6.04952,-0.075 6.04952,19.49288 l 0,20.35204 8.06601,0 8.06602,0 0.0653,-38.31358 c 0.0358,-21.07248 0.7621,-44.51924 1.61379,-52.1039 1.684346,-14.99959 -0.94582,-19.14996 -9.3017,-14.67803 -3.67227,1.96534 -5.4743,6.85883 -6.6225,17.9837 -1.6488,15.97534 -4.71413,21.78841 -9.82406,18.6303 -2.11719,-1.3085 -2.56481,-11.71404 -1.48772,-34.58405 2.08119,-44.19003 3.25474,-50.73337 8.90601,-49.65723 3.58978,0.68357 4.72109,4.41294 5.35237,17.64398 0.75377,15.79859 1.18506,16.77721 7.39385,16.77721 3.62634,0 6.721976,-1.51238 6.879176,-3.36084 0.15729,-1.84846 0.55519,-5.17569 0.88444,-7.39385 0.32926,-2.21815 0.80558,-12.84277 1.05853,-23.61025 0.34921,-14.86495 1.45858,-19.96049 4.60887,-21.16938 2.28193,-0.87567 4.91551,-0.82555 5.85241,0.11132 1.73621,1.73623 1.27367,88.80753 -0.60149,113.22947 -0.56774,7.39385 -1.76938,48.53054 -2.67036,91.41484 -0.90097,42.8843 -2.14077,79.4839 -2.75511,81.3324 -1.31258,3.9494 -8.339236,4.4857 -10.611026,0.8098 z m 120.493916,-6.0355 c -5.68888,-4.8843 -11.14485,-10.0925 -12.12438,-11.5737 -0.97951,-1.4815 -4.37539,-5.6801 -7.54638,-9.3302 -5.6371,-6.4892 -9.50381,-14.0379 -16.22601,-31.67691 -3.45228,-9.05868 -8.05505,-11.74735 -8.05505,-4.70518 0,2.21815 -1.12838,4.03301 -2.50748,4.03301 -1.37913,0 -3.28784,2.45879 -4.24162,5.46365 -0.95375,3.00513 -4.66501,8.39484 -8.24721,11.97693 -3.58217,3.5822 -6.51307,7.1731 -6.51307,7.9797 0,0.8066 -2.11733,3.6247 -4.70517,6.2625 -2.58785,2.6379 -7.72994,8.6764 -11.42686,13.4189 -6.94807,8.9135 -17.83789,11.6729 -20.33943,5.1539 -0.74797,-1.9493 6.97065,-11.8406 17.30924,-22.1815 21.78217,-21.78743 34.32058,-44.38734 36.92631,-66.55794 l 1.79698,-15.28957 -17.66346,0 c -16.42805,0 -18.05239,-0.54618 -23.22392,-7.8089 -6.24452,-8.76964 -6.84794,-14.58199 -2.7379,-26.37203 3.64611,-10.45929 13.53736,-14.91369 28.22563,-12.71105 9.80341,1.47011 11.92195,0.922 14.41083,-3.72855 5.66571,-10.58646 1.23063,-13.90761 -18.57225,-13.90761 -14.44422,0 -18.59857,-0.92039 -19.94067,-4.41784 -2.57564,-6.71203 -0.11588,-7.61645 20.80583,-7.65014 l 19.29989,-0.0309 1.4301,-14.23351 c 2.01906,-20.09535 0.30692,-21.36688 -16.58333,-12.31573 -7.9322,4.25068 -14.82547,8.63596 -15.31839,9.74504 -1.41467,3.18298 -16.58015,2.34756 -16.58015,-0.91337 0,-3.08692 10.6501,-12.95991 14.14483,-13.11271 3.6801,-0.16078 27.44751,-11.88815 30.88,-15.23671 1.84271,-1.79767 4.56851,-6.47239 6.05734,-10.38828 3.41319,-8.97739 11.75517,-8.10046 12.94184,1.36047 0.60598,4.83109 4.15823,8.38533 12.74109,12.74821 6.54546,3.32723 13.72925,6.04951 15.96399,6.04951 2.23472,0 4.06312,1.20991 4.06312,2.68868 0,1.47877 1.57366,2.68867 3.49697,2.68867 7.14507,0 17.97114,6.87596 17.99144,11.42686 0.0336,7.53143 -11.27003,5.74394 -32.30763,-5.10899 -12.77584,-6.59083 -19.91362,-8.92457 -21.73259,-7.1056 -1.48971,1.48971 -2.33689,9.23333 -1.88258,17.20802 l 0.82598,14.49944 17.47638,1.53397 c 25.89848,2.27319 27.29255,3.31258 26.34337,19.64033 -0.73632,12.66596 -1.54069,14.14771 -9.96231,18.35177 -6.22963,3.1098 -10.63169,3.78641 -13.75598,2.11432 -2.93017,-1.56817 -7.69148,-1.29005 -13.14314,0.76773 -7.32726,2.76573 -8.43491,4.38423 -7.75341,11.32904 0.7677,7.82323 1.27158,8.11019 14.62807,8.33126 26.77093,0.44306 35.91873,8.73423 32.09931,29.09348 -3.85956,20.57313 -16.65224,34.21411 -28.00215,29.85873 -3.23966,-1.24324 -2.73887,-2.91829 2.64512,-8.84788 7.59279,-8.36231 13.03315,-19.91352 13.03315,-27.6726 0,-5.81087 -9.59926,-10.78346 -17.82337,-9.23285 -2.7667,0.52165 -8.35758,1.04103 -12.42419,1.15416 -6.44943,0.17934 -7.39385,1.28202 -7.39385,8.63196 0,23.75687 16.31854,58.42677 37.74181,80.18511 16.1305,16.3829 19.3376,24.6879 10.21211,26.4455 -2.42738,0.4673 -9.06795,-3.1463 -14.7568,-8.0305 z M 169.53292,908.98179 c 0,-10.51392 -0.25005,-10.79542 -11.74819,-13.22098 -10.73646,-2.26491 -12.17845,-1.91864 -16.7444,4.02099 -10.27487,13.36596 -4.30989,21.52804 15.04922,20.59238 l 13.44337,-0.64972 0,-10.74267 z m 46.81914,-25.11973 c 1.45487,-2.71846 1.96128,-7.55807 1.12535,-10.75469 -1.2893,-4.93025 -3.46196,-5.81202 -14.32046,-5.81202 -14.02659,0 -19.21724,3.84751 -16.23849,12.03659 3.35509,9.22366 25.12823,12.57474 29.4336,4.53012 z m -85.8049,-102.60424 c 0,-4.97601 1.85615,-5.39159 24.87022,-5.56843 13.67863,-0.10513 35.75935,-1.16583 49.06828,-2.35718 24.50948,-2.19399 33.60841,-0.47345 33.60841,6.35516 0,2.69803 -6.6642,3.93662 -26.21456,4.87219 -14.41801,0.68997 -27.46503,0.29853 -28.99341,-0.86983 -1.52837,-1.16837 -4.55313,-1.00215 -6.72168,0.36939 -2.16855,1.37155 -13.31958,2.51224 -24.78004,2.53488 -19.0585,0.0376 -20.83722,-0.41787 -20.83722,-5.33618 z"
       id="path3106"
       inkscape:connector-curvature="0" />
  </g>
</svg>
