<?xml version="1.0" encoding="UTF-8" standalone="no"?>
<!-- Created with Inkscape (http://www.inkscape.org/) -->

<svg
   xmlns:dc="http://purl.org/dc/elements/1.1/"
   xmlns:cc="http://creativecommons.org/ns#"
   xmlns:rdf="http://www.w3.org/1999/02/22-rdf-syntax-ns#"
   xmlns:svg="http://www.w3.org/2000/svg"
   xmlns="http://www.w3.org/2000/svg"
   xmlns:sodipodi="http://sodipodi.sourceforge.net/DTD/sodipodi-0.dtd"
   xmlns:inkscape="http://www.inkscape.org/namespaces/inkscape"
   width="300"
   height="300"
   id="svg2"
   version="1.1"
   inkscape:version="0.48.4 r9939"
   sodipodi:docname="dessin.svg">
  <defs
     id="defs4" />
  <sodipodi:namedview
     id="base"
     pagecolor="#ffffff"
     bordercolor="#666666"
     borderopacity="1.0"
     inkscape:pageopacity="0.0"
     inkscape:pageshadow="2"
     inkscape:zoom="1.979899"
     inkscape:cx="156.32962"
     inkscape:cy="101.52144"
     inkscape:document-units="px"
     inkscape:current-layer="layer1"
     showgrid="false"
     inkscape:window-width="1215"
     inkscape:window-height="1000"
     inkscape:window-x="65"
     inkscape:window-y="24"
     inkscape:window-maximized="1" />
  <metadata
     id="metadata7">
    <rdf:RDF>
      <cc:Work
         rdf:about="">
        <dc:format>image/svg+xml</dc:format>
        <dc:type
           rdf:resource="http://purl.org/dc/dcmitype/StillImage" />
        <dc:title />
      </cc:Work>
    </rdf:RDF>
  </metadata>
  <g
     inkscape:label="Calque 1"
     inkscape:groupmode="layer"
     id="layer1"
     transform="translate(0,-752.36218)">
    <path
       style="fill:#000000"
       d="m 90.881409,1018.8928 c -0.144641,-5.3114 -0.04482,-24.30321 0.221782,-42.204 0.50064,-33.61512 -0.619401,-37.47149 -10.026378,-34.52125 -3.991779,1.25194 -5.102152,5.28022 -6.535869,23.71145 -0.949939,12.21184 -2.399658,24.85097 -3.221609,28.08698 -1.389623,5.47105 -8.133356,10.39072 -10.728319,7.82652 -0.963126,-0.9517 -0.791902,-62.89825 0.262647,-95.01531 0.327228,-9.96566 4.919642,-15.27965 11.159922,-12.91343 2.36875,0.89819 3.494004,6.16332 3.494004,16.34879 0,15.82099 2.087859,19.2301 10.215925,16.68096 4.537789,-1.42316 5.039419,-4.97624 5.931685,-42.01384 0.536084,-22.25256 0.514999,-41.90778 -0.04691,-43.67826 -1.459232,-4.59827 -10.034041,-3.98325 -11.912706,0.85444 -0.87006,2.2404 -1.59986,11.22154 -1.621802,19.9581 -0.04718,18.80968 -2.747632,24.94184 -8.798366,19.97975 -5.656789,-4.63906 -5.689601,-88.50717 -0.03649,-93.14324 6.783113,-5.56272 11.480842,1.84963 11.480842,18.11517 0,15.86006 1.109018,18.54659 6.770161,16.39996 2.736579,-1.03766 3.654412,-6.85669 3.654412,-23.16899 0,-23.69183 2.644687,-31.74566 10.424574,-31.74566 8.11042,0 10.28326,7.54089 7.83218,27.18177 -2.11358,16.93641 -2.45733,33.65284 -3.49236,169.82393 -0.23689,31.16037 -1.3794,58.10376 -2.53903,59.87426 -1.15963,1.7705 -4.384731,3.2191 -7.166893,3.2191 -4.061179,0 -5.110308,-1.904 -5.321458,-9.6572 z m 115.557581,4.888 c -5.20361,-3.1779 -13.92319,-29.46291 -15.43845,-46.53887 -0.94035,-10.59723 -3.19537,-18.86344 -6.02512,-22.08624 -5.42213,-6.17531 -8.40865,-19.99572 -6.19999,-28.69132 2.04741,-8.06078 7.49319,-6.38759 7.49319,2.30226 0,3.63941 0.87957,7.49262 1.9546,8.56275 1.07504,1.07011 1.95461,-2.74102 1.95461,-8.46916 0,-10.72477 5.21732,-18.08843 10.5211,-14.84939 1.70823,1.04322 2.5713,6.75574 2.06878,13.69292 -0.6772,9.34864 0.0412,12.07777 3.34801,12.71767 2.81132,0.54402 4.73623,-1.57897 5.79311,-6.38933 0.87059,-3.96221 2.78747,-8.94231 4.25973,-11.06688 2.3794,-3.43363 2.96198,-3.43363 5.24309,0 3.98344,5.99613 3.10271,22.35798 -1.44542,26.85219 -2.25031,2.22362 -6.94136,4.74974 -10.42458,5.61361 -3.4832,0.86386 -6.3331,2.09216 -6.3331,2.72962 0,7.94571 6.64892,39.85298 9.40909,45.15287 6.69835,12.8618 2.75537,25.9233 -6.17865,20.4673 z m -78.80859,-3.4175 c 0,-3.6171 4.99443,-19.7193 7.9325,-25.57457 1.76156,-3.5107 3.45084,-25.17779 2.71424,-34.81395 -0.12224,-1.59862 -3.58835,-4.2844 -7.70253,-5.96835 -9.23145,-3.77844 -14.48159,-13.87376 -10.77463,-20.71815 1.43997,-2.65869 2.61813,-7.26425 2.61813,-10.23458 0,-6.49745 7.44135,-10.00866 10.57917,-4.99182 1.22906,1.96511 1.56994,6.18997 0.7575,9.38859 -2.01361,7.9278 1.16757,19.29117 5.04783,18.03106 1.73888,-0.56467 3.74796,-7.31043 4.46464,-14.99054 1.10282,-11.81784 2.10413,-13.96387 6.51536,-13.96387 4.59594,0 5.16989,1.59871 4.85371,13.51999 -0.48712,18.36661 4.95741,18.70206 8.20169,0.50532 1.87955,-10.54202 2.48428,-11.24446 7.90946,-9.18731 3.43554,1.30273 3.8984,3.70713 2.41589,12.55052 -2.41097,14.38183 -5.45592,19.70989 -12.85204,22.48853 -4.9261,1.85069 -6.3361,4.66545 -7.35591,14.68436 -2.79632,27.47192 -12.48752,52.31097 -20.40967,52.31097 -2.70343,0 -4.91534,-1.3663 -4.91534,-3.0362 z m 6.99376,-115.91839 c -6.41953,-5.23878 -7.40001,-7.92481 -7.81843,-21.41862 -0.39402,-12.70695 0.61795,-16.87234 5.73644,-23.61231 6.89551,-9.07995 5.9751,-15.97041 -2.42316,-18.14057 -7.52827,-1.94536 -12.10528,-13.00064 -10.42502,-25.18057 1.75664,-12.73354 8.03177,-13.78989 11.47355,-1.93143 3.45535,11.90523 5.51482,10.36433 6.03055,-4.51204 0.40865,-11.78769 -0.0508,-12.87082 -5.45989,-12.87082 -3.24835,0 -7.83101,-2.10174 -10.18366,-4.67057 -8.52042,-9.3033 -1.35449,-10.78085 52.28639,-10.78085 43.00418,0 50.6063,0.58182 51.92357,3.97393 0.8488,2.18565 0.71662,4.79308 -0.2937,5.79429 -1.63466,1.61987 -41.04374,3.64395 -67.21822,3.45238 l -9.77304,-0.0716 0,15.31497 c 0,11.89649 0.87259,15.31499 3.90921,15.31499 3.67459,0 4.28776,-1.7276 4.94662,-13.93637 0.38931,-7.21419 6.4341,-8.04089 8.98434,-1.22869 3.55788,9.50384 -1.78791,24.93234 -10.37563,29.94507 -11.43997,6.67764 -7.63229,9.68475 12.26303,9.68475 20.81484,0 24.23351,-3.96803 12.99032,-15.0779 -7.1092,-7.02488 -8.31198,-15.04981 -3.95347,-26.37761 2.05434,-5.33924 3.43023,-6.30645 5.73352,-4.03051 4.19063,4.14093 7.20035,3.7442 7.20035,-0.94908 0,-5.38054 7.80164,-7.95491 10.64768,-3.51349 1.26677,1.97687 2.32116,7.94002 2.34313,13.25144 0.0503,12.17231 4.11674,12.58244 6.38331,0.64381 1.26254,-6.65015 3.04684,-9.01333 6.8054,-9.01333 4.35387,0 5.0942,1.81326 5.0942,12.47706 0,13.09003 -4.29241,19.59009 -14.11782,21.37898 -7.85502,1.43016 -7.55709,5.93888 0.93453,14.14257 8.45168,8.16507 9.01059,10.29314 8.38392,31.92233 -0.58443,20.17246 -7.15616,23.75291 -45.97796,25.05025 -26.9522,0.90066 -29.15944,0.59263 -36.05006,-5.03056 z m 54.2132,-7.76618 c 8.79595,-2.32467 11.76505,-4.36307 11.76505,-8.07715 0,-4.71205 -1.4424,-4.87383 -28.01604,-3.14234 -29.56099,1.92613 -34.90968,3.80966 -29.41077,10.35684 4.12443,4.91069 28.59561,5.373 45.66176,0.86265 z m 11.67286,-24.35825 c 0.666,-0.60889 -0.0701,-3.07947 -1.63553,-5.49019 -2.38249,-3.66872 -6.93214,-4.33114 -27.91244,-4.06404 -25.29792,0.32208 -32.90728,2.76192 -32.90728,10.55119 0,3.24098 4.51572,3.52939 30.62218,1.95584 16.8422,-1.01517 31.16708,-2.34393 31.83307,-2.9528 z m -10.33239,-56.22764 c 0,-2.12457 -1.17277,-3.86285 -2.60615,-3.86285 -1.43337,0 -2.60614,1.73828 -2.60614,3.86285 0,2.12458 1.17277,3.86286 2.60614,3.86286 1.43338,0 2.60615,-1.73828 2.60615,-3.86286 z"
       id="path3210"
       inkscape:connector-curvature="0" />
  </g>
</svg>
