<?xml version="1.0" encoding="UTF-8" standalone="no"?>
<!-- Created with Inkscape (http://www.inkscape.org/) -->

<svg
   xmlns:dc="http://purl.org/dc/elements/1.1/"
   xmlns:cc="http://creativecommons.org/ns#"
   xmlns:rdf="http://www.w3.org/1999/02/22-rdf-syntax-ns#"
   xmlns:svg="http://www.w3.org/2000/svg"
   xmlns="http://www.w3.org/2000/svg"
   xmlns:sodipodi="http://sodipodi.sourceforge.net/DTD/sodipodi-0.dtd"
   xmlns:inkscape="http://www.inkscape.org/namespaces/inkscape"
   width="300"
   height="300"
   id="svg2"
   version="1.1"
   inkscape:version="0.48.4 r9939"
   sodipodi:docname="dessin.svg">
  <defs
     id="defs4" />
  <sodipodi:namedview
     id="base"
     pagecolor="#ffffff"
     bordercolor="#666666"
     borderopacity="1.0"
     inkscape:pageopacity="0.0"
     inkscape:pageshadow="2"
     inkscape:zoom="1.979899"
     inkscape:cx="73.020464"
     inkscape:cy="149.14493"
     inkscape:document-units="px"
     inkscape:current-layer="layer1"
     showgrid="false"
     inkscape:window-width="1215"
     inkscape:window-height="1000"
     inkscape:window-x="65"
     inkscape:window-y="24"
     inkscape:window-maximized="1" />
  <metadata
     id="metadata7">
    <rdf:RDF>
      <cc:Work
         rdf:about="">
        <dc:format>image/svg+xml</dc:format>
        <dc:type
           rdf:resource="http://purl.org/dc/dcmitype/StillImage" />
        <dc:title />
      </cc:Work>
    </rdf:RDF>
  </metadata>
  <g
     inkscape:label="Calque 1"
     inkscape:groupmode="layer"
     id="layer1"
     transform="translate(0,-752.36218)">
    <path
       style="fill:#000000"
       d="m 83.508833,1040.9193 c -1.321315,-1.7795 -2.402379,-22.61 -2.402379,-46.28982 l 0,-43.05426 -6.948175,0.67598 c -3.821493,0.37178 -7.924093,2.03246 -9.116884,3.69036 -1.192791,1.65791 -2.105533,18.20552 -2.028314,36.77246 0.144492,34.74448 -0.634182,38.81908 -7.418461,38.81908 -3.319303,0 -3.866131,-11.4753 -3.36897,-70.69894 0.535111,-63.74462 1.056655,-70.77653 5.302088,-71.487 6.749875,-1.12959 9.151404,7.464 8.280238,29.62984 -0.748158,19.03603 -0.73753,19.06688 6.56737,19.06688 4.024207,0 7.490982,-0.83033 7.703925,-1.84518 0.212955,-1.01485 0.664203,-25.42941 1.002774,-54.25455 l 0.615581,-52.40934 -8.781785,0.74421 -8.781776,0.74426 -0.954612,18.45183 c -0.894732,17.29438 -3.618069,24.60243 -9.168065,24.60243 -2.745931,0 -1.115657,-79.77532 1.711583,-83.75396 1.265937,-1.78151 3.790371,-1.18792 7.557259,1.777 4.379919,3.44742 5.334792,6.53709 4.231439,13.69161 -1.363762,8.84311 -1.072368,9.2395 6.792134,9.2395 4.519358,0 8.309687,-0.83033 8.422951,-1.84518 0.11324,-1.01485 0.209605,-9.59496 0.21408,-19.06689 0.01101,-24.5751 1.336234,-28.77181 8.78636,-27.83746 6.117095,0.76718 6.168383,1.18498 5.22975,42.59893 -0.521357,23.00327 -1.355959,45.69902 -1.854632,50.435 -1.370401,13.0147 -1.417421,125.85947 -0.06371,152.94101 1.034569,20.6971 0.520244,24.3042 -3.969398,27.838 -4.155228,3.2705 -5.625002,3.4308 -7.560345,0.8242 z m 75.043657,-6.1305 c -0.18924,-1.114 -0.71253,-15.1202 -1.16286,-31.1247 -0.45037,-16.00458 -1.68392,-29.84345 -2.74122,-30.75307 -1.05732,-0.90961 -11.64133,-1.65385 -23.52008,-1.65385 -18.3089,0 -21.74736,-0.65563 -22.58072,-4.30544 -0.87031,-3.81166 1.60138,-4.30541 21.55157,-4.30541 24.05783,0 25.96867,-1.00411 25.96867,-13.64601 0,-6.29744 -7.19058,-10.95644 -16.90991,-10.95644 -3.28178,0 -9.1805,-2.59168 -13.10826,-5.75926 -6.02502,-4.85895 -7.30998,-8.41647 -8.2198,-22.75725 -1.69182,-26.66645 5.2433,-40.37032 20.43024,-40.37032 3.61326,0 8.87018,-1.2496 11.68205,-2.7769 3.81482,-2.07204 11.35116,-2.00666 29.6909,0.25753 32.23277,3.97942 35.83814,7.46352 35.83814,34.6331 0,10.53194 -0.79075,20.94111 -1.75716,23.13153 -2.38233,5.39948 -17.00795,11.81136 -30.77327,13.49102 -11.07295,1.35116 -11.33398,1.61245 -12.20619,12.21829 l -0.89128,10.83763 26.78823,-1.53044 c 21.83364,-1.24739 27.43567,-0.85192 30.28887,2.13812 1.92535,2.01769 2.95636,4.1419 2.29113,4.72048 -0.66521,0.57855 -13.25767,1.74754 -27.98323,2.59773 -14.72555,0.85018 -27.85013,2.44869 -29.16572,3.55227 -1.31562,1.10357 -2.58854,15.66806 -2.82873,32.36559 -0.38525,26.7787 -1.02052,30.457 -5.387,31.1902 -2.72266,0.4572 -5.10513,-0.08 -5.29435,-1.1944 z m -4.13038,-108.07924 c 5.60332,-1.8701 6.03838,-16.45726 0.60773,-20.37717 -6.34416,-4.57931 -25.64516,0.0222 -26.70461,6.36669 -1.62872,9.75366 13.88932,18.08474 26.09688,14.01048 z m 34.80915,-2.22676 c 5.92113,-2.56907 9.12987,-6.13733 10.3705,-11.53239 2.33512,-10.15465 0.11764,-11.5624 -15.2466,-9.67967 -11.94381,1.46361 -12.78525,2.06771 -13.63579,9.78985 -1.70287,15.46025 2.80064,18.23902 18.51189,11.42221 z M 152.2353,893.7595 c 6.21569,0 6.91818,-0.91583 6.13329,-7.9958 -0.79861,-7.20388 -1.86696,-8.05939 -10.78694,-8.63788 -12.27031,-0.7958 -16.24243,1.36196 -17.99678,9.77641 -1.3983,6.70659 3.44661,9.88995 11.86347,7.79497 2.07201,-0.51574 6.92615,-0.9377 10.78696,-0.9377 z m 46.6913,-7.2872 c -1.17217,-7.19651 -7.92427,-12.20824 -16.59347,-12.31652 -7.44979,-0.0931 -13.17152,7.93052 -10.62724,14.90255 1.52837,4.18818 3.8482,4.83933 15.00755,4.21248 12.22501,-0.68668 13.12687,-1.18871 12.21316,-6.79851 z m -22.87337,-36.8369 c -6.05066,-5.26249 -6.67502,-8.01735 -6.3681,-28.09857 0.22318,-14.59773 2.24239,-16.77162 8.68185,-9.34667 4.16559,4.80304 6.53299,5.43584 15.10421,4.03733 6.84327,-1.11655 10.65049,-3.27524 11.65218,-6.6068 0.81831,-2.72161 3.1631,-4.44888 5.21066,-3.83838 2.4841,0.74066 3.68027,5.53385 3.59497,14.40558 -0.23535,24.48772 -3.54657,29.2113 -23.02494,32.8468 -7.02622,1.31139 -10.29482,0.56323 -14.85083,-3.39929 z m 21.87984,-8.03308 c 3.73239,-3.24619 4.64452,-15.80151 1.27292,-17.52163 -4.19328,-2.13934 -20.16019,1.37486 -21.6566,4.76645 -0.84075,1.90551 -0.0855,6.21922 1.67827,9.58602 3.45942,6.60355 12.91474,8.2055 18.70541,3.16916 z m -72.93077,8.51328 c -8.26081,-2.82012 -11.36484,-7.83551 -11.32682,-18.30153 0.0707,-19.50066 5.03845,-26.69821 12.39083,-17.95308 4.34347,5.16627 21.51534,2.25529 21.51534,-3.64727 0,-5.48486 2.45155,-7.45471 7.27445,-5.84506 2.79767,0.93371 3.8424,5.96231 3.71415,17.87724 -0.19603,18.21483 -0.7318,19.46812 -10.91084,25.52661 -7.03228,4.1856 -14.88206,4.99738 -22.65711,2.34309 z m 18.13419,-11.88732 c 2.44482,-2.12634 4.44516,-6.00122 4.44516,-8.61086 0,-3.89538 -2.02551,-4.74475 -11.31493,-4.74475 -10.61447,0 -11.31492,0.44423 -11.31492,7.17572 0,9.90599 9.99504,13.30271 18.18469,6.17989 z m -30.37451,-42.44095 c -8.44536,-0.84229 -9.19341,-5.73663 -1.03598,-6.77794 2.66988,-0.34078 29.52879,-1.33359 59.68646,-2.20621 52.98415,-1.5331 63.13166,-0.49805 54.63534,5.57282 -3.30838,2.3639 -95.84751,5.15049 -113.28582,3.41133 z"
       id="path3184"
       inkscape:connector-curvature="0" />
  </g>
</svg>
