<?xml version="1.0" encoding="UTF-8" standalone="no"?>
<!-- Created with Inkscape (http://www.inkscape.org/) -->

<svg
   xmlns:dc="http://purl.org/dc/elements/1.1/"
   xmlns:cc="http://creativecommons.org/ns#"
   xmlns:rdf="http://www.w3.org/1999/02/22-rdf-syntax-ns#"
   xmlns:svg="http://www.w3.org/2000/svg"
   xmlns="http://www.w3.org/2000/svg"
   xmlns:sodipodi="http://sodipodi.sourceforge.net/DTD/sodipodi-0.dtd"
   xmlns:inkscape="http://www.inkscape.org/namespaces/inkscape"
   width="300"
   height="300"
   viewBox="0 0 300.00001 300.00001"
   id="svg2"
   version="1.1"
   inkscape:version="0.91 r13725"
   sodipodi:docname="百-seal.svg">
  <defs
     id="defs4" />
  <sodipodi:namedview
     id="base"
     pagecolor="#ffffff"
     bordercolor="#666666"
     borderopacity="1.0"
     inkscape:pageopacity="0.0"
     inkscape:pageshadow="2"
     inkscape:zoom="1.33"
     inkscape:cx="147.92594"
     inkscape:cy="133.29041"
     inkscape:document-units="px"
     inkscape:current-layer="layer1"
     showgrid="false"
     units="px"
     inkscape:window-width="990"
     inkscape:window-height="650"
     inkscape:window-x="39"
     inkscape:window-y="10"
     inkscape:window-maximized="0" />
  <metadata
     id="metadata7">
    <rdf:RDF>
      <cc:Work
         rdf:about="">
        <dc:format>image/svg+xml</dc:format>
        <dc:type
           rdf:resource="http://purl.org/dc/dcmitype/StillImage" />
        <dc:title></dc:title>
      </cc:Work>
    </rdf:RDF>
  </metadata>
  <g
     inkscape:label="Layer 1"
     inkscape:groupmode="layer"
     id="layer1"
     transform="translate(0,-752.36208)">
    <path
       style="fill:#000000"
       d="m 106.26958,1031.8911 c -21.466571,-4.6008 -31.619341,-26.2637 -35.868414,-76.53029 -5.058524,-59.84237 2.480507,-153.68528 12.092863,-150.52673 3.89441,1.2798 8.45899,18.03756 10.1435,37.23963 l 3.06287,34.91309 14.429881,-10.15625 c 15.48331,-10.89742 31.51302,-43.19283 31.51302,-63.48974 0,-11.40725 -3.84157,-12.4481 -45.942901,-12.4481 -36.01058,0 -45.942867,-1.91665 -45.942867,-8.8657 0,-7.23564 16.050071,-9.20672 87.291608,-10.72003 48.01037,-1.01991 93.65978,0.20794 101.44313,2.72839 25.77023,8.34553 7.21159,16.85734 -36.75461,16.85734 l -43.32012,0 3.67857,22.6677 c 2.19968,13.55489 11.14099,30.13039 22.24145,41.23074 l 18.56317,18.56324 0,-35.6156 c 0,-25.7781 2.11492,-34.90648 7.65709,-33.04814 5.70335,1.9125 7.65713,27.79277 7.65713,101.42784 0,93.84351 -0.6873,99.54701 -13.54497,112.39231 -10.38015,10.3695 -21.83042,13.8635 -49.00585,14.9502 -19.50337,0.7796 -41.73089,0.06 -49.39455,-1.5699 z m 85.00684,-30.4165 c 3.93098,-4.7366 8.53877,-28.06099 10.23944,-51.83205 l 3.09248,-43.22024 -26.66337,-27.16794 -26.66335,-27.16807 -32.38483,31.98279 c -28.715991,28.35925 -32.345681,34.78213 -32.039101,56.69457 0.19012,13.59179 3.63588,34.3602 7.65715,46.15223 6.403781,18.77831 10.353231,21.82191 31.814231,24.51611 32.77216,4.1142 56.25728,0.5135 64.94735,-9.9574 z m -76.01129,-55.2303 c -8.98039,-8.98044 4.63449,-14.45998 35.92834,-14.45998 25.54292,0 33.32996,2.14679 33.32996,9.18859 0,7.01905 -7.71385,9.18866 -32.67052,9.18866 -17.96873,0 -34.43327,-1.76275 -36.58778,-3.91727 z"
       id="path4013"
       inkscape:connector-curvature="0" />
  </g>
</svg>
