<?xml version="1.0" encoding="UTF-8" standalone="no"?>
<svg
   xmlns:dc="http://purl.org/dc/elements/1.1/"
   xmlns:cc="http://creativecommons.org/ns#"
   xmlns:rdf="http://www.w3.org/1999/02/22-rdf-syntax-ns#"
   xmlns:svg="http://www.w3.org/2000/svg"
   xmlns="http://www.w3.org/2000/svg"
   version="1.1"
   id="svg21"
   width="300"
   height="300"
   viewBox="0 0 300 300">
  <metadata
     id="metadata27">
    <rdf:RDF>
      <cc:Work
         rdf:about="">
        <dc:format>image/svg+xml</dc:format>
        <dc:type
           rdf:resource="http://purl.org/dc/dcmitype/StillImage" />
        <dc:title></dc:title>
      </cc:Work>
    </rdf:RDF>
  </metadata>
  <defs
     id="defs25" />
  <path
     style="fill:#000000;stroke-width:0.69036818"
     d="m 101.05211,278.82205 c -5.045451,-22.10302 -13.611062,-60.01601 -5.234263,-78.39313 9.423243,-20.67282 43.794093,-20.31477 59.232533,-30.92222 3.21093,-2.20616 3.92074,-7.26432 4.71594,-11.07281 0,0 -2.52671,0.91427 -15.63747,0.82721 -42.20436,-0.28025 -52.79554,-22.67016 -52.868546,-53.45218 -0.07754,-32.693163 9.762636,-52.216288 45.865586,-52.726369 l -0.068,-30.416701 c -0.0111,-4.95266 1.33554,-7.651431 6.03484,-7.665801 4.46084,-0.01364 6.19926,2.845667 6.18966,7.72918 l -0.0592,30.131497 c 39.66593,0.199083 51.3248,19.349164 51.2757,52.236204 -0.0435,29.15707 -8.32413,43.7267 -28.63817,51.2318 -1.42904,10.5077 -2.74415,17.14454 -8.30825,21.8596 4.74093,31.90428 24.27484,67.00367 43.11627,87.5227 5.38131,5.86045 -0.6884,14.29239 -7.19011,7.73387 -22.52448,-22.72131 -41.66295,-62.31146 -45.73091,-90.4218 -11.4522,6.39267 -43.40648,11.43696 -47.52096,21.77694 -7.556979,18.9912 -1.13875,43.44385 5.25452,71.94185 2.16759,9.66204 -8.28591,11.46907 -10.42911,2.08016 z m 88.18102,-166.9948 h -86.80452 c 0.11487,27.94367 16.8199,35.90395 41.65085,35.62567 27.79661,-0.31152 44.88939,-6.70098 45.15367,-35.62567 z m -0.11619,-12.749666 c 0.15529,-33.271255 -18.18098,-34.889614 -45.38593,-34.827551 -25.16293,0.05741 -42.11622,3.755919 -41.82216,35.150591 z"
     id="path31" />
</svg>
