<?xml version="1.0" encoding="UTF-8" standalone="no"?>
<!-- Created with Inkscape (http://www.inkscape.org/) -->

<svg
   xmlns:dc="http://purl.org/dc/elements/1.1/"
   xmlns:cc="http://creativecommons.org/ns#"
   xmlns:rdf="http://www.w3.org/1999/02/22-rdf-syntax-ns#"
   xmlns:svg="http://www.w3.org/2000/svg"
   xmlns="http://www.w3.org/2000/svg"
   xmlns:sodipodi="http://sodipodi.sourceforge.net/DTD/sodipodi-0.dtd"
   xmlns:inkscape="http://www.inkscape.org/namespaces/inkscape"
   width="300"
   height="300"
   viewBox="0 0 79.374999 79.374999"
   version="1.1"
   id="svg20"
   inkscape:version="0.92.4 (5da689c313, 2019-01-14)"
   sodipodi:docname="绘图.svg">
  <defs
     id="defs14" />
  <sodipodi:namedview
     id="base"
     pagecolor="#ffffff"
     bordercolor="#666666"
     borderopacity="1.0"
     inkscape:pageopacity="0.0"
     inkscape:pageshadow="2"
     inkscape:zoom="0.9899495"
     inkscape:cx="236.79641"
     inkscape:cy="59.557319"
     inkscape:document-units="mm"
     inkscape:current-layer="layer1"
     showgrid="false"
     inkscape:window-width="1600"
     inkscape:window-height="877"
     inkscape:window-x="-8"
     inkscape:window-y="-8"
     inkscape:window-maximized="1"
     fit-margin-top="0"
     fit-margin-left="0"
     fit-margin-right="0"
     fit-margin-bottom="0"
     showguides="true"
     units="px"
     inkscape:snap-page="true">
    <sodipodi:guide
       position="35.279577,483.2233"
       orientation="0,1"
       id="guide20"
       inkscape:locked="false" />
  </sodipodi:namedview>
  <metadata
     id="metadata17">
    <rdf:RDF>
      <cc:Work
         rdf:about="">
        <dc:format>image/svg+xml</dc:format>
        <dc:type
           rdf:resource="http://purl.org/dc/dcmitype/StillImage" />
        <dc:title></dc:title>
        <cc:license
           rdf:resource="http://creativecommons.org/publicdomain/zero/1.0/" />
      </cc:Work>
      <cc:License
         rdf:about="http://creativecommons.org/publicdomain/zero/1.0/">
        <cc:permits
           rdf:resource="http://creativecommons.org/ns#Reproduction" />
        <cc:permits
           rdf:resource="http://creativecommons.org/ns#Distribution" />
        <cc:permits
           rdf:resource="http://creativecommons.org/ns#DerivativeWorks" />
      </cc:License>
    </rdf:RDF>
  </metadata>
  <g
     inkscape:label="Layer 1"
     inkscape:groupmode="layer"
     id="layer1"
     transform="translate(49.873959,-256.91563)">
    <path
       style="fill:#000000;stroke-width:0.22052619"
       d="m -32.479026,332.02131 c -0.939552,-0.17784 -2.317843,-0.57104 -3.062871,-0.87377 -4.06421,-1.65144 -4.899293,-2.97811 -5.723515,-9.09277 -0.45577,-3.38122 -0.466235,-4.02016 -0.360459,-22.00652 0.09593,-16.31206 0.153145,-18.71323 0.479113,-20.10709 0.367958,-1.57339 0.375954,-1.58483 1.336342,-1.91208 l 0.966169,-0.32919 0.452568,1.36076 c 0.707658,2.12776 0.907679,4.32752 0.655117,7.2047 -0.12244,1.39483 -0.193008,3.82613 -0.156819,5.4029 l 0.06579,2.86683 1.612787,-2.40334 c 2.563307,-3.81978 4.30018,-7.57303 5.139027,-11.10502 0.365654,-1.5396 1.643325,-14.99788 1.442864,-15.19834 -0.02956,-0.0296 -2.728971,-0.11599 -5.998686,-0.19208 -8.013085,-0.18644 -8.922039,-0.45971 -8.922039,-2.6824 0,-0.84726 0.08432,-0.99597 0.853294,-1.50486 l 0.853292,-0.56467 14.758866,0.0654 c 13.618913,0.0604 14.804344,0.0951 15.347619,0.45129 0.833907,0.54662 1.102049,1.1617 0.935694,2.14635 -0.12734,0.75372 -0.258581,0.89511 -1.211354,1.30497 -1.828844,0.78675 -3.68802,0.92545 -7.32843,0.54672 -1.89319,-0.24848 -3.71433,-0.26544 -5.574527,0.0304 l -0.05995,4.40243 c -0.122162,8.96996 1.017865,13.3117 5.176133,19.71306 l 1.77227,2.72828 0.152687,-1.0182 c 0.08398,-0.56001 0.03722,-2.82881 -0.1039,-5.04176 -0.141123,-2.21296 -0.195906,-4.46627 -0.121739,-5.00738 0.191688,-1.39851 0.89016,-2.71172 1.695283,-3.18732 0.803105,-0.47441 0.836532,-0.4447 1.516027,1.34727 0.709009,1.86978 0.885853,3.64148 0.8868,8.88424 4.41e-4,2.72902 0.109752,9.46903 0.242791,14.97782 0.316315,13.0974 -0.03468,17.89549 -1.689177,23.09147 -0.523833,1.6451 -0.720527,1.97325 -1.692379,2.8234 -1.263951,1.10568 -3.255848,2.13515 -5.143303,2.65821 -1.859845,0.5154 -6.983536,0.63822 -9.191387,0.22033 z m 8.975585,-4.93062 c 0.60092,-0.26626 1.608965,-0.874 2.2401,-1.35051 1.12474,-0.84919 1.156476,-0.90485 1.598697,-2.80417 0.782453,-3.36059 0.912565,-5.44156 0.912565,-14.59519 v -8.92005 l -1.728109,-2.11205 c -1.268494,-1.55033 -2.507233,-3.5197 -4.657558,-7.40468 -1.611198,-2.91095 -2.948485,-5.31532 -2.971746,-5.34306 -0.02326,-0.0278 -0.372233,0.76615 -0.775493,1.76421 -1.153077,2.85382 -3.913763,8.1911 -5.338738,10.32145 -0.71483,1.06868 -1.906417,2.48352 -2.647971,3.14408 l -1.348278,1.201 3.74e-4,7.90825 c 2.2e-4,4.88652 0.100125,8.6245 0.261452,9.78273 0.335944,2.41195 0.98687,4.81826 1.66581,6.15808 0.520193,1.02655 0.594502,1.07846 2.367742,1.65392 4.072022,1.32147 8.245224,1.56014 10.421159,0.59599 z m -6.720084,-13.71404 c -1.605963,-0.14153 -3.768363,-0.66429 -4.369407,-1.05629 -0.163183,-0.10636 -0.346401,-0.77207 -0.412179,-1.49749 l -0.118414,-1.30589 0.888441,-0.61569 0.888442,-0.61568 4.595835,0.0714 c 3.918733,0.0608 4.702869,0.12975 5.322302,0.46794 0.855401,0.46703 1.587077,1.56958 1.588237,2.3933 0.002,1.47877 -4.10296,2.53572 -8.383257,2.15849 z m 34.9574926,18.65406 c -1.5896322,-0.25317 -4.95565356,-1.23609 -5.54559246,-1.61937 -0.38028954,-0.24708 -1.37638454,-1.94673 -1.86010004,-3.17393 -0.2481468,-0.62956 -0.6929266,-2.5717 -0.9884014,-4.31589 -0.5176898,-3.05594 -0.5371422,-3.55344 -0.5350401,-13.68383 0.0011,-5.78193 0.1005608,-11.90192 0.2208012,-13.59997 0.1202416,-1.69805 0.2641753,-5.56829 0.3198498,-8.60052 0.1189117,-6.47628 0.3940025,-8.46965 1.2213781,-8.85039 1.422136,-0.65444 1.43786614,-0.64689 2.00435274,0.96203 0.4953963,1.40701 0.5258755,1.78763 0.5287005,6.60194 0.00149,2.80986 0.062386,5.16823 0.1349642,5.24082 0.3040979,0.30412 2.74313176,-3.96939 3.72712816,-6.53043 1.3683835,-3.56148 2.4235851,-10.89275 2.4253711,-16.85088 l 5.36e-4,-1.78482 -3.4732899,-0.14406 c -1.9103092,-0.0793 -4.6213095,-0.14438 -6.0244475,-0.14478 -2.6420247,-7.7e-4 -4.540823,-0.37115 -5.0503993,-0.98515 -0.1467277,-0.1768 -0.3206323,-0.72296 -0.3864546,-1.21372 -0.1090978,-0.81337 -0.047033,-0.96078 0.7018535,-1.66707 l 0.8215306,-0.7748 14.9522822,0.0596 c 14.3593336,0.0573 14.9707176,0.0763 15.4173156,0.48054 0.548617,0.4966 0.987433,1.94662 0.783526,2.58909 -0.191843,0.60443 -1.680866,1.23487 -3.537793,1.49783 -1.121185,0.15879 -2.363331,0.12652 -4.770382,-0.1239 -1.893179,-0.24846 -3.714335,-0.26545 -5.574532,0.0304 l -0.06606,4.1881 c -0.09271,5.87808 0.387585,9.63179 1.736934,13.5747 0.710883,2.07724 1.535481,3.62557 3.544438,6.65527 l 1.792215,2.70284 -0.145054,-5.9542 -0.145051,-5.95421 0.538836,-1.14342 c 0.358966,-0.76172 0.77213,-1.26405 1.237701,-1.50481 0.384377,-0.19877 0.731959,-0.3283 0.772408,-0.28785 0.04045,0.0405 0.343628,0.86647 0.673735,1.8356 0.565949,1.66153 0.610658,2.08917 0.78367,7.49574 0.100916,3.15353 0.285945,6.5772 0.411178,7.60815 0.370541,3.05042 0.5345,18.13565 0.240627,22.13923 -0.284254,3.87253 -0.885146,7.74713 -1.593974,10.27808 -0.368218,1.31475 -0.627241,1.80054 -1.263192,2.36904 -1.220736,1.09127 -3.681958,2.22889 -5.615839,2.59574 -2.06281,0.39131 -5.9697876,0.39284 -8.4157312,0.003 z m 7.9409584,-4.70853 c 1.24724,-0.38345 2.460536,-1.04876 3.569866,-1.95755 0.417926,-0.34238 0.530511,-0.80606 0.81926,-3.37403 0.532753,-4.73803 0.852615,-11.97182 0.754106,-17.05444 l -0.09095,-4.69243 -1.891387,-2.41326 c -1.349412,-1.72176 -2.699277,-3.88456 -4.710758,-7.54773 -1.5506526,-2.82394 -2.9012946,-5.10639 -3.0014266,-5.0721 -0.100137,0.0343 -2.058273,3.25319 -4.351425,7.15312 l -4.16936516,7.09077 -0.1559106,9.22817 c -0.1852263,10.96324 0.017659,13.28892 1.4496744,16.61772 0.40317496,0.93721 0.59520666,1.11914 1.59651096,1.51253 1.2582966,0.49437 2.5541189,0.8588 3.5640014,1.00229 1.394247,0.19812 5.3212756,-0.0944 6.6177986,-0.49306 z M 5.9427724,313.38626 C 4.348821,313.23654 2.1661633,312.7077 1.5925593,312.33223 1.441547,312.23343 1.2560167,311.55955 1.1802679,310.83482 l -0.1377261,-1.31768 0.8651983,-0.59959 0.8651972,-0.59958 4.2884101,0.009 c 4.4338976,0.0103 5.4901076,0.17426 6.3967686,0.99478 0.578357,0.5234 0.916258,1.8026 0.621598,2.35317 -0.327025,0.61106 -2.274322,1.45102 -3.709886,1.60027 -2.4517046,0.25488 -2.7969236,0.26348 -4.4270556,0.11038 z"
       id="path825"
       inkscape:connector-curvature="0"
       sodipodi:nodetypes="ccssccccsccssccsccccsccccscccccccscccccccssccccccccccssccccccccccccccccscsscsccsscccccccccccccccccccccccscscccccccssccscscsccccccccccccccccc" />
  </g>
</svg>
