<?xml version="1.0" encoding="UTF-8" standalone="no"?>
<!-- Created with Inkscape (http://www.inkscape.org/) -->

<svg
   xmlns:dc="http://purl.org/dc/elements/1.1/"
   xmlns:cc="http://creativecommons.org/ns#"
   xmlns:rdf="http://www.w3.org/1999/02/22-rdf-syntax-ns#"
   xmlns:svg="http://www.w3.org/2000/svg"
   xmlns="http://www.w3.org/2000/svg"
   xmlns:sodipodi="http://sodipodi.sourceforge.net/DTD/sodipodi-0.dtd"
   xmlns:inkscape="http://www.inkscape.org/namespaces/inkscape"
   width="300"
   height="300"
   id="svg2"
   version="1.1"
   inkscape:version="0.48.4 r9939"
   sodipodi:docname="dessin.svg">
  <defs
     id="defs4" />
  <sodipodi:namedview
     id="base"
     pagecolor="#ffffff"
     bordercolor="#666666"
     borderopacity="1.0"
     inkscape:pageopacity="0.0"
     inkscape:pageshadow="2"
     inkscape:zoom="1.979899"
     inkscape:cx="150.2687"
     inkscape:cy="106.5722"
     inkscape:document-units="px"
     inkscape:current-layer="layer1"
     showgrid="false"
     inkscape:window-width="1215"
     inkscape:window-height="1000"
     inkscape:window-x="65"
     inkscape:window-y="24"
     inkscape:window-maximized="1" />
  <metadata
     id="metadata7">
    <rdf:RDF>
      <cc:Work
         rdf:about="">
        <dc:format>image/svg+xml</dc:format>
        <dc:type
           rdf:resource="http://purl.org/dc/dcmitype/StillImage" />
        <dc:title />
      </cc:Work>
    </rdf:RDF>
  </metadata>
  <g
     inkscape:label="Calque 1"
     inkscape:groupmode="layer"
     id="layer1"
     transform="translate(0,-752.36218)">
    <path
       style="fill:#000000"
       d="m 212.20981,1039.5672 c -7.92788,-9.5748 -22.86345,-45.75152 -26.47644,-64.13071 -0.5283,-2.68738 -1.7491,-7.63461 -2.71291,-10.99385 -4.41081,-15.37338 -6.01373,-45.39744 -4.36947,-81.843 0.48305,-10.70631 -4.20554,-43.88888 -7.16283,-50.6938 -1.65415,-3.80628 -6.33657,-4.2754 -42.67473,-4.2754 l -40.816729,0 -0.182262,15.26922 c -0.228819,19.17194 -10.94314,84.08826 -14.795746,89.64505 -0.984203,1.41957 -3.736434,2.58104 -6.116057,2.58104 -4.305052,0 -4.163484,-6.03489 0.802351,-34.20306 2.770698,-15.71647 6.987236,-54.51533 7.925411,-72.92638 0.571746,-11.22013 1.843031,-21.11459 2.825077,-21.98767 0.982042,-0.87309 4.777256,1.51109 8.43381,5.29813 l 6.648272,6.88554 38.212253,0.35354 c 21.01676,0.19445 39.04293,-0.38694 40.05815,-1.29193 1.62508,-1.44863 2.73721,-13.82067 3.62417,-40.31728 0.20501,-6.12858 1.47046,-7.94 5.54615,-7.94 6.17258,0 8.2099,5.80906 5.3541,15.26614 -1.41027,4.67013 -0.77475,7.83241 2.08657,10.38307 8.00321,7.13416 14.68561,1.91072 14.68561,-11.47936 0,-9.53109 4.0223,-12.0501 10.30232,-6.45201 4.33206,3.86165 1.20853,24.40483 -4.30556,28.31752 -2.36708,1.67961 -8.38456,3.05385 -13.37225,3.05385 -7.17899,0 -9.06849,0.99748 -9.06849,4.78735 0,4.31022 2.25344,4.85805 22.61047,5.49691 17.91731,0.56229 22.61048,1.47022 22.61048,4.37419 0,2.83473 -4.03414,3.768 -17.81433,4.12115 -9.79786,0.25112 -19.97257,0.52594 -22.61048,0.61076 -3.87652,0.12456 -4.78811,2.37933 -4.75418,11.75884 0.022,6.38254 1.28142,13.25369 2.79633,15.26921 2.8508,3.79292 3.71951,3.1429 17.64738,-13.20486 3.28868,-3.8601 4.68483,-4.12166 8.18371,-1.53316 5.92341,4.3822 5.35304,6.59484 -3.99075,15.48128 -4.51511,4.29413 -8.215,9.73144 -8.22199,12.08289 -0.008,2.35146 -1.24595,4.27539 -2.75333,4.27539 -6.58804,0 -1.66352,9.88708 11.62118,23.33229 7.89902,7.99444 16.53213,15.97194 19.18465,17.72774 5.71831,3.78516 6.7725,18.36185 1.23973,17.14213 -3.86581,-0.85224 -27.82206,-23.87779 -35.17181,-33.80541 -2.47312,-3.34053 -5.38452,-5.31071 -6.46976,-4.37822 -3.87093,3.3261 -4.84555,34.25595 -1.51099,47.95081 1.85794,7.63052 4.61023,19.3706 6.11617,26.08905 1.50595,6.71845 4.92966,16.6129 7.60825,21.98766 2.67861,5.37479 7.65785,16.91835 11.06497,25.65235 3.40713,8.7339 7.41021,17.2402 8.89578,18.9027 3.44367,3.8538 0.70826,10.4141 -4.34227,10.4141 -2.12379,0 -4.9993,-1.3742 -6.38999,-3.0538 z m -160.28094,-6.8256 c -3.511013,-0.7307 -6.788897,-3.2044 -7.284179,-5.4969 -0.99339,-4.5982 -0.734841,-4.629 36.876571,-4.4015 26.849988,0.1624 25.208378,3.3692 23.689678,-46.27699 -0.87799,-28.70166 -1.95457,-36.07907 -6.019615,-41.25045 -2.722718,-3.46373 -6.505692,-12.17103 -8.406604,-19.34954 -3.051558,-11.52374 -2.924174,-13.52598 1.087992,-17.10152 3.959486,-3.52861 4.866778,-3.58457 7.051141,-0.43505 1.378816,1.98804 3.336646,7.99238 4.350736,13.34295 3.00997,15.88142 6.09172,18.467 22.01072,18.467 20.9469,0 28.48732,-6.15212 28.48732,-23.24235 0,-7.21349 1.17141,-13.76079 2.60313,-14.54955 4.50541,-2.48214 8.35952,7.62661 8.35952,21.9258 0,13.77413 -1.70261,16.81565 -12.44874,22.23823 -4.86523,2.45504 -5.41321,5.75841 -5.87631,35.42457 -0.28091,17.9944 -1.07743,36.7661 -1.77007,41.7149 -1.52192,10.8739 0.33497,11.7683 24.43024,11.7683 13.80861,0 17.59019,0.7878 17.59019,3.6646 0,2.9944 -5.13797,3.7342 -28.09181,4.0448 -66.993414,0.9066 -100.682255,0.7528 -106.63991,-0.4873 z m 80.83257,-22.4913 c 0.85014,-7.0544 1.30057,-25.46905 1.00095,-40.9215 l -0.54475,-28.09536 -7.79321,0 -7.79322,0 -0.72841,40.92151 -0.72842,40.92145 7.52067,0 c 7.04919,0 7.61759,-0.8041 9.06639,-12.8261 z m -53.787684,-1.2215 c -0.618448,-1.0078 -1.335213,-15.32495 -1.592818,-31.81592 -0.398028,-25.48035 0.190093,-30.2088 3.915881,-31.48326 2.411336,-0.82486 6.355398,0.25737 8.764577,2.40496 3.56536,3.17822 4.254187,8.80112 3.702339,30.22212 -0.372891,14.47454 -1.97403,27.7094 -3.558089,29.4109 -3.1794,3.415 -9.476259,4.122 -11.23189,1.2612 z m 76.764284,-2.4431 c -2.02807,-3.3821 -1.68285,-56.66883 0.37445,-57.80223 6.24313,-3.43951 8.81269,4.04623 9.63094,28.05737 0.4774,14.0082 0.31389,26.84366 -0.36332,28.52326 -1.34373,3.3328 -7.87961,4.1608 -9.64207,1.2216 z M 126.04253,902.93413 c -0.50298,-20.22356 -2.16252,-39.24488 -3.53034,-40.46419 -0.68328,-0.60909 -6.79272,2.29669 -13.57655,6.45728 -13.335919,8.17909 -20.938939,9.64037 -20.938939,4.02443 0,-3.38038 16.083759,-16.0043 20.390579,-16.0043 1.1324,0 5.64086,-2.27364 10.0188,-5.0525 5.68735,-3.61004 7.9599,-7.09754 7.9599,-12.21538 0,-5.45985 1.2639,-7.16288 5.31589,-7.16288 4.16447,0 5.50012,1.98436 6.1665,9.16154 0.64443,6.94096 1.95284,8.99986 5.39823,8.49454 2.5012,-0.36684 6.99524,2.10676 9.98675,5.49692 2.99152,3.39014 7.18418,6.16391 9.31704,6.16391 2.13285,0 6.27188,1.58189 9.19789,3.51529 4.82807,3.19027 4.92393,3.87408 1.03666,7.39558 -3.8932,3.52688 -5.21453,3.53343 -14.50773,0.072 -5.62343,-2.0945 -10.91935,-5.4225 -11.76872,-7.39558 -0.84936,-1.97309 -3.22057,-3.58742 -5.26936,-3.58742 -2.86007,0 -3.90568,6.09176 -4.50293,26.2341 -0.67363,22.71795 -1.42073,26.34384 -5.57406,27.05296 -4.05161,0.69174 -4.84637,-1.20006 -5.11961,-12.18641 z"
       id="path3106"
       inkscape:connector-curvature="0" />
  </g>
</svg>
