<?xml version="1.0" encoding="UTF-8" standalone="no"?>
<svg
   xmlns:dc="http://purl.org/dc/elements/1.1/"
   xmlns:cc="http://creativecommons.org/ns#"
   xmlns:rdf="http://www.w3.org/1999/02/22-rdf-syntax-ns#"
   xmlns:svg="http://www.w3.org/2000/svg"
   xmlns="http://www.w3.org/2000/svg"
   viewBox="0 0 300 300"
   height="300"
   width="300"
   id="svg552"
   version="1.1">
  <metadata
     id="metadata558">
    <rdf:RDF>
      <cc:Work
         rdf:about="">
        <dc:format>image/svg+xml</dc:format>
        <dc:type
           rdf:resource="http://purl.org/dc/dcmitype/StillImage" />
        <dc:title></dc:title>
      </cc:Work>
    </rdf:RDF>
  </metadata>
  <defs
     id="defs556" />
  <path
     id="path562"
     d="M 83.42137,253.6077 C 72.292528,239.06798 66.12092,217.04746 63.898777,200.8374 c -1.565003,-11.41636 -1.28872,-40.33235 -0.81493,-79.33607 0.56827,-46.781679 0.658515,-58.792643 5.254555,-73.742893 4.739793,-16.186234 13.986837,-20.932196 29.628044,-24.504472 23.325774,-5.327344 79.641694,-5.238174 103.576534,-1.233049 16.16902,2.705636 28.83347,9.860392 32.34558,27.330352 2.70271,13.44383 2.96771,39.527028 3.26764,61.498952 0.16267,33.98159 0.48538,71.74127 -1.33609,87.48362 -2.88795,24.95954 -10.9621,47.66271 -26.10198,62.40343 -19.26258,18.75473 -37.19639,20.0767 -62.00248,20.13777 -27.62966,0.068 -50.233696,-8.89732 -64.29428,-27.26734 z m 117.94742,-7.33692 c 13.65194,-17.40325 19.34628,-37.8024 19.74319,-60.58216 l -141.620921,0.27416 c -0.209771,24.88015 6.517016,41.93973 16.055177,56.2954 12.324484,17.50047 33.202884,23.10484 53.270834,23.18802 21.15096,0.0877 42.61357,-6.50644 52.55172,-19.17542 z m 19.68737,-76.41895 0.1548,-62.89502 c -0.0493,-0.43648 -141.13188,1.5646 -141.13188,1.5646 l -0.561704,61.46917 z M 218.83315,53.182159 C 216.67496,42.38265 211.58119,38.4953 199.82194,36.757001 170.07698,32.359983 139.32494,32.15658 109.96976,36.266803 97.720276,37.981939 87.062222,40.426849 83.691752,52.374007 80.13888,64.967718 80.030916,72.714121 80.122696,92.258175 H 221.7036 c 0.21459,-13.262108 -0.82158,-28.823579 -2.87045,-39.076016 z"
     style="fill:#000000;stroke-width:0.72639227" />
</svg>
