<?xml version="1.0" encoding="UTF-8" standalone="no"?>
<!-- Created with Inkscape (http://www.inkscape.org/) -->

<svg
   xmlns:dc="http://purl.org/dc/elements/1.1/"
   xmlns:cc="http://creativecommons.org/ns#"
   xmlns:rdf="http://www.w3.org/1999/02/22-rdf-syntax-ns#"
   xmlns:svg="http://www.w3.org/2000/svg"
   xmlns="http://www.w3.org/2000/svg"
   xmlns:sodipodi="http://sodipodi.sourceforge.net/DTD/sodipodi-0.dtd"
   xmlns:inkscape="http://www.inkscape.org/namespaces/inkscape"
   width="300"
   height="300"
   id="svg2"
   version="1.1"
   inkscape:version="0.48.4 r9939"
   sodipodi:docname="image-seal.svg">
  <defs
     id="defs4" />
  <sodipodi:namedview
     id="base"
     pagecolor="#ffffff"
     bordercolor="#666666"
     borderopacity="1.0"
     inkscape:pageopacity="0.0"
     inkscape:pageshadow="2"
     inkscape:zoom="2.0506101"
     inkscape:cx="156.21232"
     inkscape:cy="110.79688"
     inkscape:document-units="px"
     inkscape:current-layer="layer1"
     showgrid="false"
     inkscape:window-width="1215"
     inkscape:window-height="1000"
     inkscape:window-x="65"
     inkscape:window-y="24"
     inkscape:window-maximized="1"
     fit-margin-top="10"
     fit-margin-left="10"
     fit-margin-right="10"
     fit-margin-bottom="10" />
  <metadata
     id="metadata7">
    <rdf:RDF>
      <cc:Work
         rdf:about="">
        <dc:format>image/svg+xml</dc:format>
        <dc:type
           rdf:resource="http://purl.org/dc/dcmitype/StillImage" />
        <dc:title />
      </cc:Work>
    </rdf:RDF>
  </metadata>
  <g
     inkscape:label="Calque 1"
     inkscape:groupmode="layer"
     id="layer1"
     transform="translate(0,-752.36218)">
    <path
       style="fill:#000000"
       d="m 122.2261,1045.0939 c -13.01207,-3.7466 -20.93655,-11.0791 -25.204297,-23.3216 -3.80479,-10.9145 -4.34531,-91.35489 -0.67865,-100.99893 3.184399,-8.37565 7.785987,-10.21267 32.639777,-13.03037 11.14876,-1.26393 26.02277,-3.04492 33.05335,-3.95777 10.03215,-1.30253 15.42778,-0.3793 25.07398,4.29034 18.49299,8.9523 20.25182,14.38057 20.25182,62.50332 0,67.19571 -4.44385,72.92261 -59.46005,76.62691 -8.17575,0.5505 -19.72992,-0.3997 -25.67593,-2.1119 z m 58.49369,-14.2786 c 4.99351,-1.4688 9.76839,-11.9555 10.97297,-24.0992 l 0.80431,-8.10812 -41.15673,-0.34909 c -32.59759,-0.27651 -41.81985,0.4499 -44.34536,3.49291 -2.41519,2.9101 -2.4297,4.601 -0.06,6.9708 1.7208,1.7208 3.12873,5.1059 3.12873,7.5225 0,6.377 10.87679,15.5077 20.27047,17.0163 8.66244,1.3911 43.00843,-0.2763 50.3855,-2.4461 z m 10.74832,-46.61484 c 0.92058,-0.99488 1.1048,-6.25639 0.40939,-11.69228 l -1.2644,-9.88342 -25.68763,-0.9275 c -14.12822,-0.51011 -33.16397,-0.31938 -42.30169,0.42387 -16.52073,1.34377 -16.61889,1.40169 -17.47414,10.31178 -1.5294,15.93313 0.86168,16.73298 45.04593,15.06831 21.77932,-0.82052 40.35197,-2.30586 41.27254,-3.30076 z m -2.34945,-35.40687 c 3.71339,-0.34092 2.08902,-16.4981 -2.33789,-23.25439 -4.16491,-6.35647 -5.62025,-6.66128 -31.75707,-6.65163 -30.80912,0.0108 -43.34227,4.76607 -46.58138,17.67169 -1.94772,7.76043 0.21162,10.99646 8.37832,12.55542 4.22267,0.80606 62.85722,0.54565 72.29802,-0.32109 z m -88.84829,-71.20484 c -9.053677,-4.64158 -11.365807,-10.62007 -12.911877,-33.38624 -3.51812,-51.80444 -3.25457,-61.02023 1.83612,-64.20821 6.88196,-4.30974 10.231539,1.99889 9.881889,18.6117 -0.642869,30.54452 -0.921769,30.38014 27.369888,16.13267 21.87465,-11.01589 25.28252,-16.50548 24.59186,-39.61401 -0.48005,-16.06259 2.49003,-21.13267 9.14445,-15.60999 2.60143,2.15899 3.93571,8.47668 3.93571,18.63521 0,8.45289 1.52029,17.42114 3.37841,19.92944 3.3782,4.56029 45.24894,23.49988 51.95238,23.49988 3.67817,0 6.83199,5.71646 6.83199,12.38334 0,6.37309 -17.26742,3.25822 -24.32457,-4.38794 -0.74325,-0.80527 -10.17972,-5.36613 -20.96993,-10.13523 -19.43901,-8.59171 -27.64009,-10.5573 -27.72122,-6.64404 -0.0403,1.93888 -8.74525,6.34455 -39.71245,20.09863 -13.06508,5.80284 -14.083548,6.93393 -14.147948,15.71253 -0.13027,17.75307 9.757848,22.90888 39.437678,20.56345 11.67188,-0.92233 35.38149,-2.27943 52.68804,-3.01576 27.6583,-1.17671 31.67593,-0.79295 33.19706,3.17101 0.95179,2.48037 0.41622,5.82668 -1.19018,7.43623 -4.04806,4.05604 -115.5103,4.80416 -123.2673,0.82733 z"
       id="path3184"
       inkscape:connector-curvature="0" />
  </g>
</svg>
