<?xml version="1.0" encoding="UTF-8" standalone="no"?>
<!-- Created with Inkscape (http://www.inkscape.org/) -->

<svg
   xmlns:dc="http://purl.org/dc/elements/1.1/"
   xmlns:cc="http://creativecommons.org/ns#"
   xmlns:rdf="http://www.w3.org/1999/02/22-rdf-syntax-ns#"
   xmlns:svg="http://www.w3.org/2000/svg"
   xmlns="http://www.w3.org/2000/svg"
   xmlns:sodipodi="http://sodipodi.sourceforge.net/DTD/sodipodi-0.dtd"
   xmlns:inkscape="http://www.inkscape.org/namespaces/inkscape"
   width="300"
   height="300"
   id="svg2"
   version="1.1"
   inkscape:version="0.92.4 (5da689c313, 2019-01-14)"
   sodipodi:docname="image-bigseal.svg">
  <defs
     id="defs4" />
  <sodipodi:namedview
     id="base"
     pagecolor="#ffffff"
     bordercolor="#666666"
     borderopacity="1.0"
     inkscape:pageopacity="0.0"
     inkscape:pageshadow="2"
     inkscape:zoom="1"
     inkscape:cx="615.90051"
     inkscape:cy="376.71805"
     inkscape:document-units="px"
     inkscape:current-layer="layer1"
     showgrid="false"
     inkscape:window-width="1872"
     inkscape:window-height="1016"
     inkscape:window-x="48"
     inkscape:window-y="27"
     inkscape:window-maximized="1" />
  <metadata
     id="metadata7">
    <rdf:RDF>
      <cc:Work
         rdf:about="">
        <dc:format>image/svg+xml</dc:format>
        <dc:type
           rdf:resource="http://purl.org/dc/dcmitype/StillImage" />
        <dc:title />
      </cc:Work>
    </rdf:RDF>
  </metadata>
  <g
     inkscape:label="Calque 1"
     inkscape:groupmode="layer"
     id="layer1"
     transform="translate(0,-752.36218)">
    <path
       style="fill:#000000;stroke-width:5.91864014"
       d="m 135.41615,1032.7957 c -5.00409,-13.2848 -3.63218,-184.01106 1.79124,-222.90881 6.0345,-43.2805 15.10824,-49.3192 70.83799,-47.14354 24.21246,0.9453 44.02264,4.18049 44.02264,7.18939 0,3.00884 -20.37045,6.16003 -45.26765,7.00258 -24.8972,0.84255 -47.98656,3.24379 -51.30968,5.33606 -3.84274,2.41946 -6.04202,50.42652 -6.04202,131.88892 0,115.9487 -3.59525,146.3441 -14.03252,118.6354 z m 105.00966,1.982 c -1.36301,-4.107 -9.48776,-34.3495 -18.05499,-67.20553 -8.56724,-32.85605 -16.41593,-63.25458 -16.41593,-63.25458 0,0 -10.52988,3.34993 -21.47434,6.5476 -12.67782,3.70408 -21.93665,3.73807 -25.51402,0.0938 -3.57737,-3.64439 -2.59919,-6.81088 2.69551,-8.72573 22.69654,-8.20822 39.63613,-15.11553 39.63613,-15.11553 0,0 -1.97851,-6.50671 -5.02073,-12.29765 -3.53036,-6.72014 -14.19168,-13.80211 -23.69182,-15.73775 -22.6282,-4.61042 -22.2269,-13.9735 0.59891,-13.9735 11.6581,0 22.72507,5.33481 31.83049,15.34378 5.62224,6.18017 8.40316,21.40795 8.40316,21.40795 0,0 8.23066,-11.15651 11.84071,-18.02832 3.45689,-6.58029 6.28526,-18.81021 6.28526,-27.17763 0,-15.86284 -1.59709,-16.66602 -48.37769,-24.32835 -12.09442,-1.98099 -21.98986,-6.50108 -21.98986,-10.04464 0,-8.88451 61.15854,-3.2807 72.94407,6.6837 12.84608,10.86108 9.47488,46.09643 -2.76716,70.92003 -3.50834,7.11398 -7.36984,14.22987 -13.10174,19.84195 l 18.98762,65.18695 C 247.62959,1000.5852 255,1032.8336 255,1036.1732 c 0,8.6474 -11.61017,7.5359 -14.57419,-1.3953 z M 61.971425,929.23352 C 47.899305,914.89777 40.7394,861.61714 47.682438,822.90165 c 5.790217,-32.2871 24.845404,-46.90763 52.065015,-39.94794 21.243987,5.43182 27.561817,26.42421 25.260567,83.9339 -1.50238,37.54532 -4.49896,51.53274 -13.11795,61.23173 -13.923138,15.66786 -35.16719,16.142 -49.918645,1.11418 z m 37.214706,-9.87868 c 5.068149,-5.16306 9.214809,-14.57184 9.214809,-20.9084 0,-3.40037 0.29679,-11.29356 0.29679,-11.29356 0,0 -11.418602,-0.22738 -23.752648,-0.22738 -12.881501,0 -23.416327,0.1224 -23.416327,0.1224 0,0 -0.03952,8.26707 -0.03952,11.39854 0,11.74503 14.362545,30.29585 23.45585,30.29585 2.764442,0 9.172915,-4.22433 14.241049,-9.38745 z m 9.214809,-62.29848 c 0,-7.72023 -0.23883,-18.70111 -0.23883,-18.70111 0,0 -11.168621,0.77962 -23.217028,0.77962 -12.251265,0 -22.838271,-0.0959 -22.838271,-0.0959 0,0 -0.617579,10.45212 -0.617579,18.01736 0,8.44301 0.275395,17.76608 0.275395,17.76608 0,0 12.078032,0.1554 23.180455,0.1554 11.831861,0 23.754068,0.0544 23.754068,0.0544 0,0 -0.29821,-10.09025 -0.29821,-17.97593 z m -1.05815,-43.31025 c -1.53562,-11.01515 -5.57822,-13.44112 -22.397708,-13.44112 -16.819493,0 -20.862078,2.42597 -22.397704,13.44112 -0.753022,5.40148 -0.752128,13.44005 -0.752128,13.44005 0,0 11.087236,10e-4 23.149832,10e-4 12.85532,0 23.301598,-0.5033 23.301598,-0.5033 0,0 -0.21207,-7.97533 -0.90389,-12.93781 z"
       id="path96"
       inkscape:connector-curvature="0"
       sodipodi:nodetypes="sscsscsscscccccscsccsssssscssccsssscscscscsscscscscscsssscscs" />
  </g>
</svg>
