<?xml version="1.0" encoding="utf-8"?>
<!-- Generator: Adobe Illustrator 19.0.0, SVG Export Plug-In . SVG Version: 6.00 Build 0)  -->
<svg version="1.1" id="Layer_1" xmlns="http://www.w3.org/2000/svg" xmlns:xlink="http://www.w3.org/1999/xlink" x="0px" y="0px"
	 viewBox="0 0 270 270" style="enable-background:new 0 0 270 270;" xml:space="preserve">
<style type="text/css">
	.st0{fill:none;stroke:#000000;stroke-width:6;stroke-linecap:round;stroke-linejoin:round;stroke-miterlimit:10;}
</style>
<g id="XMLID_1_">
	<path id="XMLID_36_" class="st0" d="M79,85.4c0,23.7,0.5,56.4,2.5,80c1.3,15.1,12.2,19.9,33,20.7c26.4,1.1,51-0.2,76.5-1.1"/>
	<path id="XMLID_35_" class="st0" d="M117.2,186.5c0,35.7-7.7,45.1-9.4,65.3"/>
	<path id="XMLID_34_" class="st0" d="M151.4,186.5c0,47.1,5.1,46.9,6.9,67.1"/>
	<path id="XMLID_32_" class="st0" d="M161.2,138.2c-15,0-30.1,0-45.1,0"/>
	<path id="XMLID_6_" class="st0" d="M162.3,116.4c-15,0-30.1,0-45.1,0"/>
	<path id="XMLID_7_" class="st0" d="M86.1,16.4c-0.3,62.9-10.7,55.4,100.7,52.9"/>
	<path id="XMLID_9_" class="st0" d="M169.9,22.5c8.4,38.2-53.9,22.1-84,25.4"/>
	<path id="XMLID_5_" class="st0" d="M171.6,127.2c-0.6,21.9-14.3,39.7-32,39.7s-31.9-12.3-32-39.7c-0.1-37.2,10.9-39.7,32-39.7
		C160.8,87.5,172.6,92.9,171.6,127.2z"/>
</g>
</svg>
