<?xml version="1.0" encoding="UTF-8" standalone="no"?>
<!-- Created with Inkscape (http://www.inkscape.org/) -->

<svg
   xmlns:dc="http://purl.org/dc/elements/1.1/"
   xmlns:cc="http://creativecommons.org/ns#"
   xmlns:rdf="http://www.w3.org/1999/02/22-rdf-syntax-ns#"
   xmlns:svg="http://www.w3.org/2000/svg"
   xmlns="http://www.w3.org/2000/svg"
   xmlns:sodipodi="http://sodipodi.sourceforge.net/DTD/sodipodi-0.dtd"
   xmlns:inkscape="http://www.inkscape.org/namespaces/inkscape"
   width="300"
   height="300"
   id="svg2"
   version="1.1"
   inkscape:version="0.48.4 r9939"
   sodipodi:docname="image-seal.svg">
  <defs
     id="defs4" />
  <sodipodi:namedview
     id="base"
     pagecolor="#ffffff"
     bordercolor="#666666"
     borderopacity="1.0"
     inkscape:pageopacity="0.0"
     inkscape:pageshadow="2"
     inkscape:zoom="2.7366667"
     inkscape:cx="150"
     inkscape:cy="150"
     inkscape:document-units="px"
     inkscape:current-layer="layer1"
     showgrid="false"
     inkscape:window-width="1215"
     inkscape:window-height="1000"
     inkscape:window-x="65"
     inkscape:window-y="24"
     inkscape:window-maximized="1" />
  <metadata
     id="metadata7">
    <rdf:RDF>
      <cc:Work
         rdf:about="">
        <dc:format>image/svg+xml</dc:format>
        <dc:type
           rdf:resource="http://purl.org/dc/dcmitype/StillImage" />
        <dc:title />
      </cc:Work>
    </rdf:RDF>
  </metadata>
  <g
     inkscape:label="Calque 1"
     inkscape:groupmode="layer"
     id="layer1"
     transform="translate(0,-752.36218)">
    <path
       style="fill:#000000"
       d="m 141.25653,1043.4637 c 0,-4.5162 10.37695,-15.0282 14.8351,-15.0282 1.62758,0 4.71919,-2.4418 6.87031,-5.4263 2.15108,-2.9845 5.16773,-5.4594 6.7036,-5.4998 3.66024,-0.096 19.89689,-15.3679 28.91782,-27.19909 3.92317,-5.14543 10.93979,-13.62856 15.59245,-18.85142 11.83349,-13.28368 14.77781,-25.11177 9.17548,-36.86001 -2.42973,-5.09518 -5.5214,-9.26398 -6.87036,-9.26398 -1.34896,0 -7.66152,5.18895 -14.02791,11.531 -39.34786,39.19749 -70.59037,64.4379 -79.76104,64.4379 -11.20963,0 -6.32689,-9.16082 10.74629,-20.16183 9.10406,-5.86616 17.94513,-11.97628 19.64678,-13.57809 1.70168,-1.60177 9.80906,-8.37888 18.01641,-15.06024 8.20736,-6.68133 17.06881,-14.61189 19.6921,-17.62343 2.62329,-3.01155 7.81223,-8.85421 11.53099,-12.98366 7.51965,-8.35015 8.37501,-14.55744 2.9845,-21.65852 -6.55012,-8.62872 -6.27767,-8.80573 -49.07229,31.87981 -12.8448,12.21176 -28.0678,23.062 -32.3562,23.062 -5.80166,0 1.05982,-9.47045 17.79111,-24.55593 41.0955,-37.05303 49.08179,-46.94738 46.34408,-57.41644 -1.80713,-6.91049 -10.59055,-5.9933 -18.51753,1.93368 -3.73062,3.73062 -7.56444,6.78294 -8.51962,6.78294 -0.9552,0 -4.25724,2.32562 -7.33792,5.16806 -3.08067,2.84243 -9.87446,7.52301 -15.09733,10.40128 -7.70203,4.24452 -9.78048,7.24076 -11.0013,15.85906 -1.85367,13.0857 -6.94717,22.83512 -11.93005,22.83512 -2.06153,0 -4.22301,1.42441 -4.80333,3.16538 -2.41719,7.25158 -31.739928,0.38407 -39.367188,-9.21997 -4.98125,-6.27224 -6.6463,-24.59196 -6.42176,-70.65536 0.23686,-48.60649 2.06354,-56.9109 14.42194,-65.5671 8.43179,-5.90582 34.196828,-5.55408 42.037738,0.57395 5.57504,4.35712 6.13045,7.70824 7.87557,47.51617 1.03263,23.55566 2.86923,43.44139 4.08132,44.1905 1.21211,0.74914 6.82507,-1.66119 12.47325,-5.35624 5.64821,-3.69505 12.09643,-7.09824 14.3294,-7.56263 9.17012,-1.90709 15.18551,-18.47998 6.70759,-18.47998 -2.2852,0 -4.83984,-1.78492 -5.67699,-3.96647 -0.83713,-2.18159 -3.54968,-4.61004 -6.02789,-5.39659 -6.73318,-2.13701 -11.41873,-20.63389 -9.79264,-38.6579 4.26492,-47.27351 4.81464,-47.94564 40.17608,-49.12327 23.00171,-0.76604 25.36331,-0.34593 32.27866,5.74203 7.33797,6.46002 7.46123,7.09154 7.46123,38.2281 0,36.10144 -2.22301,41.9059 -19.40667,50.67236 -5.74105,2.92888 -10.43826,6.83959 -10.43826,8.69049 0,3.86438 24.16188,40.8323 27.57907,42.19621 1.24622,0.49743 2.26586,3.24452 2.26586,6.10465 0,2.86014 1.22093,5.20026 2.71318,5.20026 1.49224,0 2.71317,2.44186 2.71317,5.42635 0,2.98449 1.02496,5.42635 2.27766,5.42635 3.25741,0 8.57504,12.64687 8.57504,20.39397 0,6.42841 -6.00933,18.91886 -16.94779,35.22614 -7.01687,10.46089 -55.73607,58.33329 -59.36513,58.33329 -1.51623,0 -4.58817,1.8313 -6.82654,4.0697 -5.28418,5.2842 -17.24804,5.3575 -17.24804,0.1058 z m -28.1886,-122.88624 c 1.97859,-2.60628 3.738,-7.791 3.90983,-11.52161 0.17174,-3.73062 0.6705,-9.83527 1.10822,-13.56588 0.9819,-8.36858 -2.34261,-15.66667 -5.10245,-11.20113 -1.0407,1.68388 -7.21445,3.0616 -13.719454,3.0616 -18.598904,0 -20.410604,1.48793 -20.410604,16.76314 0,13.13229 2.70976,18.60799 10.90116,22.02836 6.43034,2.68501 19.400818,-0.41081 23.313298,-5.56448 z m 2.21458,-44.9554 c 3.99922,-2.92432 4.5535,-5.68755 2.99328,-14.92247 l -1.91482,-11.33361 -17.237024,0 c -9.480384,0 -17.801104,0.9157 -18.490494,2.03488 -0.68939,1.11919 -1.67715,6.9186 -2.19501,12.88759 l -0.94155,10.8527 14.92246,1.59263 c 8.207368,0.87598 15.604818,1.79168 16.438788,2.03488 0.83398,0.24338 3.72495,-1.17274 6.42437,-3.1466 z m 75.75171,-34.23374 c 5.74015,-1.33203 13.11988,-4.94262 16.39935,-8.02354 6.79572,-6.38427 9.34356,-24.00805 3.77569,-26.11687 -1.91396,-0.7249 -14.46829,-0.39661 -27.89851,0.72952 l -24.41858,2.0475 0.92403,10.8527 c 0.982,11.53355 9.28853,23.10655 16.50625,22.99726 2.35132,-0.0355 8.97161,-1.15456 14.71177,-2.48657 z m -81.65751,-2.64741 c 7.09949,-0.21651 7.46124,-0.87595 7.46124,-13.59971 0,-16.34257 -4.76152,-21.89921 -18.765524,-21.89921 -13.201424,0 -18.031144,5.65873 -20.327984,23.81723 l -1.81146,14.3211 12.99126,-1.2059 c 7.14518,-0.66324 16.348788,-1.30832 20.452468,-1.43351 z m 98.9565,-42.4822 c 5.19033,-1.05204 5.79841,-2.44579 4.36588,-10.00709 -3.33154,-17.58504 -5.29414,-19.13443 -22.21049,-17.53428 -8.42455,0.79689 -18.67493,2.75607 -22.77861,4.35375 -6.38616,2.48628 -7.46123,4.44565 -7.46123,13.5986 0,6.01528 1.48375,11.29333 3.39147,12.06425 3.47284,1.40336 33.86054,-0.27959 44.69298,-2.47523 z"
       id="path3173"
       inkscape:connector-curvature="0" />
  </g>
</svg>
