<?xml version="1.0" encoding="UTF-8" standalone="no"?>
<!-- Created with Inkscape (http://www.inkscape.org/) -->

<svg
   xmlns:dc="http://purl.org/dc/elements/1.1/"
   xmlns:cc="http://creativecommons.org/ns#"
   xmlns:rdf="http://www.w3.org/1999/02/22-rdf-syntax-ns#"
   xmlns:svg="http://www.w3.org/2000/svg"
   xmlns="http://www.w3.org/2000/svg"
   xmlns:sodipodi="http://sodipodi.sourceforge.net/DTD/sodipodi-0.dtd"
   xmlns:inkscape="http://www.inkscape.org/namespaces/inkscape"
   width="300"
   height="300"
   id="svg2"
   version="1.1"
   inkscape:version="0.92.4 (5da689c313, 2019-01-14)"
   sodipodi:docname="image-bigseal.svg">
  <defs
     id="defs4" />
  <sodipodi:namedview
     id="base"
     pagecolor="#ffffff"
     bordercolor="#666666"
     borderopacity="1.0"
     inkscape:pageopacity="0.0"
     inkscape:pageshadow="2"
     inkscape:zoom="1"
     inkscape:cx="216.03327"
     inkscape:cy="173.92429"
     inkscape:document-units="px"
     inkscape:current-layer="layer1"
     showgrid="false"
     inkscape:window-width="1872"
     inkscape:window-height="1016"
     inkscape:window-x="48"
     inkscape:window-y="27"
     inkscape:window-maximized="1" />
  <metadata
     id="metadata7">
    <rdf:RDF>
      <cc:Work
         rdf:about="">
        <dc:format>image/svg+xml</dc:format>
        <dc:type
           rdf:resource="http://purl.org/dc/dcmitype/StillImage" />
        <dc:title />
      </cc:Work>
    </rdf:RDF>
  </metadata>
  <g
     inkscape:label="Calque 1"
     inkscape:groupmode="layer"
     id="layer1"
     transform="translate(0,-752.36218)">
    <path
       style="fill:#000000;stroke-width:6.37301302"
       d="m 127.39788,929.35589 c 2.94293,-135.00551 5.19222,-152.2726 20.93067,-160.67858 15.67991,-8.37465 95.83678,-8.4394 95.83678,-0.0777 0,3.62022 -18.71307,6.36657 -43.38034,6.36657 -25.23428,0 -46.58257,3.19577 -51.03569,7.63989 -5.28088,5.27018 -7.65535,37.57754 -7.65535,104.15985 0,98.82886 -4.6103,155.59628 -12.63659,155.59628 -2.48759,0 -3.41435,-50.853 -2.05948,-113.00666 z m 27.45499,42.97436 c 0,-3.50161 8.61227,-6.36657 19.13838,-6.36657 16.82698,0 19.13838,-2.2106 19.13838,-18.30389 0,-15.3323 -3.1757,-18.93775 -19.56114,-22.20826 -22.03572,-4.39822 -19.62617,-16.787 3.26493,-16.787 11.6207,0 15.45866,-4.15151 17.65702,-19.09971 2.64072,-17.95622 1.53828,-19.09972 -18.41432,-19.09972 -11.67279,0 -21.22325,-2.86495 -21.22325,-6.36657 0,-3.50161 8.61227,-6.36657 19.13838,-6.36657 17.01191,0 19.13838,-2.12217 19.13838,-19.09971 0,-16.12863 -2.4809,-19.09972 -15.94865,-19.09972 -8.77176,0 -15.94865,-2.86496 -15.94865,-6.36657 0,-3.50161 7.17689,-6.36657 15.94865,-6.36657 11.69566,0 15.94865,-3.39549 15.94865,-12.73315 0,-7.00322 2.87076,-12.73314 6.37947,-12.73314 3.5087,0 6.37946,5.72992 6.37946,12.73314 0,9.90359 4.25299,12.73315 19.13838,12.73315 10.52611,0 19.13839,2.86496 19.13839,6.36657 0,3.50161 -8.61228,6.36657 -19.13839,6.36657 -17.01191,0 -19.13838,2.12217 -19.13838,19.09972 0,17.58383 1.77208,19.09971 22.32812,19.09971 12.28046,0 22.32811,2.86496 22.32811,6.36657 0,3.50162 -10.22953,6.36657 -22.73232,6.36657 -21.80379,0 -22.65066,0.84517 -20.73325,20.69136 1.70625,17.66074 4.48559,20.69136 18.97571,20.69136 9.3371,0 19.14553,2.14872 21.79645,4.77493 2.65093,2.62621 -2.11779,4.81879 -10.59711,4.8724 -22.59428,0.14261 -32.76543,8.89206 -30.32898,26.08881 1.87683,13.24712 6.04,15.44537 32.45544,17.1369 53.13996,3.40293 32.62878,13.97596 -27.11271,13.97596 -34.02378,0 -57.41515,-2.5938 -57.41515,-6.36657 z M 44.023589,945.27232 C 23.679977,913.07867 26.064901,794.07318 47.323085,780.6303 c 17.12382,-10.82852 48.96289,-6.27394 59.322085,8.486 13.2393,18.86351 13.69531,117.33254 0.68726,148.4023 -8.071315,19.27836 -12.098135,22.07851 -31.750235,22.07851 -16.4051,0 -24.960565,-3.88342 -31.558606,-14.32479 z m 53.591346,-11.47199 c 3.411235,-6.36103 6.202245,-17.48381 6.202245,-24.71726 0,-11.34281 -3.948455,-13.15168 -28.707575,-13.15168 -27.088065,0 -28.702069,0.98771 -28.609892,17.50807 0.113045,20.26435 5.567962,30.20983 19.040692,34.71533 13.26703,4.43667 24.75443,-0.70434 32.07453,-14.35446 z m 6.202245,-72.88508 c 0,-22.16509 -0.1519,-22.283 -28.707575,-22.283 -28.555692,0 -28.70758,0.11778 -28.70758,22.283 0,22.16509 0.151895,22.283 28.70758,22.283 28.555675,0 28.707575,-0.11778 28.707575,-22.283 z m 0,-46.96977 c 0,-16.91057 -15.324555,-27.51403 -36.296125,-25.11421 -14.19034,1.62386 -18.350254,5.70279 -19.947902,19.55976 -1.941321,16.83774 -0.903293,17.50807 27.112712,17.50807 24.24507,0 29.131315,-2.00502 29.131315,-11.95362 z"
       id="path189"
       inkscape:connector-curvature="0" />
  </g>
</svg>
