<?xml version="1.0" encoding="UTF-8" standalone="no"?>
<!-- Created with Inkscape (http://www.inkscape.org/) -->

<svg
   xmlns:dc="http://purl.org/dc/elements/1.1/"
   xmlns:cc="http://creativecommons.org/ns#"
   xmlns:rdf="http://www.w3.org/1999/02/22-rdf-syntax-ns#"
   xmlns:svg="http://www.w3.org/2000/svg"
   xmlns="http://www.w3.org/2000/svg"
   xmlns:sodipodi="http://sodipodi.sourceforge.net/DTD/sodipodi-0.dtd"
   xmlns:inkscape="http://www.inkscape.org/namespaces/inkscape"
   width="300"
   height="300"
   id="svg2"
   version="1.1"
   inkscape:version="0.48.4 r9939"
   sodipodi:docname="image-seal.svg">
  <defs
     id="defs4" />
  <sodipodi:namedview
     id="base"
     pagecolor="#ffffff"
     bordercolor="#666666"
     borderopacity="1.0"
     inkscape:pageopacity="0.0"
     inkscape:pageshadow="2"
     inkscape:zoom="2.0018437"
     inkscape:cx="145.03351"
     inkscape:cy="130.6666"
     inkscape:document-units="px"
     inkscape:current-layer="layer1"
     showgrid="false"
     inkscape:window-width="1215"
     inkscape:window-height="1000"
     inkscape:window-x="65"
     inkscape:window-y="24"
     inkscape:window-maximized="1"
     fit-margin-top="10"
     fit-margin-left="10"
     fit-margin-right="10"
     fit-margin-bottom="10" />
  <metadata
     id="metadata7">
    <rdf:RDF>
      <cc:Work
         rdf:about="">
        <dc:format>image/svg+xml</dc:format>
        <dc:type
           rdf:resource="http://purl.org/dc/dcmitype/StillImage" />
        <dc:title />
      </cc:Work>
    </rdf:RDF>
  </metadata>
  <g
     inkscape:label="Calque 1"
     inkscape:groupmode="layer"
     id="layer1"
     transform="translate(0,-752.36218)">
    <path
       style="fill:#000000"
       d="m 84.03195,1042.004 c -8.87272,-9.9655 1.78429,-12.8949 43.60425,-11.9859 l 39.05689,0.8489 1.00485,-14.0639 c 0.55269,-7.7351 0.15465,-17.45084 -0.88419,-21.59046 -1.81206,-7.21981 -2.84399,-7.4732 -25.31606,-6.21553 -26.63221,1.49049 -33.99331,-1.02261 -28.55091,-9.74739 2.89921,-4.64779 8.0172,-5.65913 28.63819,-5.65913 l 25.10812,0 0.93491,-23.06966 c 0.75535,-18.63862 0.0331,-23.06965 -3.76086,-23.06965 -2.58266,0 -7.81247,-4.37703 -11.62179,-9.72674 -6.71216,-9.42635 -7.12003,-9.55115 -13.20746,-4.04212 -3.45475,3.12653 -8.238,10.36738 -10.62938,16.09078 -4.6299,11.08091 -12.26971,13.71098 -15.4854,5.331 -1.58099,-4.11992 -4.10058,-2.92211 -13.386726,6.36404 -15.448334,15.44833 -30.255554,15.7946 -46.935704,1.09764 -10.34033,-9.11092 -11.80495,-12.23487 -12.30774,-26.25167 -1.18766,-33.10858 1.43366,-102.2965 4.30868,-113.72524 3.67549,-14.61066 8.89982,-16.30417 47.85664,-15.51302 16.97974,0.3448 18.15639,0.88244 19.95315,9.11697 1.05016,4.8128 2.09654,19.17899 2.32529,31.92489 0.23961,13.35931 1.72179,22.73904 3.49921,22.14658 1.69582,-0.56528 6.65892,-7.41395 11.02917,-15.21928 9.80734,-17.51617 19.90249,-25.10275 19.94271,-14.98704 0.0191,5.07523 14.7655,23.62135 17.01398,21.39957 0.9296,-0.91855 1.9312,-13.08978 2.22579,-27.04718 0.55161,-26.13282 5.41335,-39.69619 14.22898,-39.69619 2.58482,0 4.69969,-1.2742 4.69969,-2.83158 0,-1.55738 6.50819,-5.89081 14.4626,-9.62985 12.65639,-5.9492 15.04081,-6.22005 19.09213,-2.1687 8.67861,8.67858 5.91951,11.76418 -22.83508,25.53731 -12.2425,5.86402 -13.41231,11.60944 -13.3283,65.46133 0.034,21.87639 -0.0159,49.79863 -0.10756,62.04941 -0.39721,52.13277 -0.001,55.70993 6.55245,59.21744 3.42561,1.83335 14.16117,2.86255 23.85682,2.28714 14.17263,-0.8411 18.33239,0.0633 21.21944,4.61295 5.55113,8.74817 -2.97939,12.44889 -24.14709,10.47543 -10.00561,-0.93281 -20.15428,-0.94302 -22.5526,-0.0223 -5.98017,2.29481 -7.37602,38.14995 -1.56957,40.31715 2.27146,0.8477 14.15328,1.1861 26.40406,0.7518 24.53736,-0.8698 33.41122,2.0513 33.41122,10.9983 0,5.6081 -4.02271,5.8833 -79.77651,5.4566 -66.50277,-0.3746 -80.48359,-1.2435 -84.02616,-5.2224 z M 94.30211,928.65211 c 2.23604,-2.20835 3.97753,-11.69039 3.97753,-21.65667 l 0,-17.72841 -22.27415,0 -22.27414,0 0,15.30193 c 0,17.96311 4.40127,25.20972 17.5048,28.82118 10.2617,2.82825 16.75547,1.49434 23.06596,-4.73803 z m 35.70171,-24.27048 c 5.26831,-9.18809 10.19996,-18.13752 10.95919,-19.88763 0.76445,-1.76214 2.83035,-1.05223 4.62981,1.59101 8.28277,12.16655 17.29823,22.27415 19.86743,22.27415 1.55311,0 2.82385,-9.8622 2.82385,-21.91598 0,-20.53928 -0.59784,-22.38819 -9.5172,-29.4337 -5.23446,-4.13475 -9.53019,-9.22308 -9.54606,-11.30744 -0.0563,-7.41095 -6.82417,-7.82385 -12.92582,-0.7886 -3.40734,3.92872 -6.19517,8.81363 -6.19517,10.8554 0,2.04178 -3.57977,6.8249 -7.95505,10.62916 -7.16461,6.22954 -7.95506,9.29026 -7.95506,30.80305 0,13.47401 1.35901,23.88619 3.11765,23.88619 1.71473,0 7.42811,-7.51752 12.69643,-16.70561 z M 98.87815,869.3794 c 0.572604,-3.93775 0.50056,-11.15929 -0.16006,-16.04789 -1.16328,-8.60759 -1.66662,-8.82823 -15.93442,-6.98581 -28.68057,3.70356 -29.05232,3.90406 -29.05232,15.66961 0,12.74107 2.18859,13.94107 26.03036,14.27242 16.40491,0.22783 18.1715,-0.41042 19.11644,-6.90833 z M 98.2895,825.62661 c 1.117024,-4.37528 1.155594,-11.53483 0.0856,-15.91011 -1.71205,-7.00146 -3.87077,-8.0682 -18.00865,-8.89906 -18.49887,-1.08714 -22.7755,2.25714 -25.66624,20.07066 -2.39505,14.75895 0.28001,16.40794 23.26226,14.33991 16.22604,-1.4601 18.52572,-2.54632 20.32691,-9.6014 z m 136.04601,98.69983 c -5.70132,-8.71912 -11.79795,-15.87456 -13.54806,-15.90097 -1.75011,-0.0255 -6.04584,4.23947 -9.54606,9.47975 -3.50023,5.24028 -7.43798,9.53187 -8.75056,9.5369 -1.31259,0.006 -2.38652,2.15703 -2.38652,4.78219 0,2.65168 -2.82846,4.77304 -6.36404,4.77304 -3.50022,0 -6.36404,-1.44907 -6.36404,-3.22015 0,-4.45133 29.0045,-47.69219 31.99029,-47.69219 1.33008,0 7.20562,5.89581 13.05672,13.10184 5.8511,7.20601 12.42824,14.97921 14.61588,17.27383 4.71544,4.94597 5.36441,23.71869 0.81998,23.71869 -1.73669,0 -7.8223,-7.13381 -13.52359,-15.85293 z m -43.38975,-53.81427 c -3.58547,-2.2959 -2.8033,-6.04209 4.28771,-20.53562 4.77026,-9.75006 11.47134,-20.95367 14.89125,-24.89687 l 6.21805,-7.16947 13.3594,14.39524 c 23.05991,24.84783 24.71501,27.23349 22.64176,32.63624 -3.56313,9.28542 -10.70215,5.60704 -20.72176,-10.67689 -5.38427,-8.75056 -10.51117,-15.91011 -11.3931,-15.91011 -2.77597,0 -13.54408,14.15058 -13.65485,17.94412 -0.21192,7.25144 -11.07369,17.12987 -15.62846,14.21336 z"
       id="path3080"
       inkscape:connector-curvature="0" />
  </g>
</svg>
