<?xml version="1.0" encoding="UTF-8" standalone="no"?>
<!-- Created with Inkscape (http://www.inkscape.org/) -->

<svg
   xmlns:dc="http://purl.org/dc/elements/1.1/"
   xmlns:cc="http://creativecommons.org/ns#"
   xmlns:rdf="http://www.w3.org/1999/02/22-rdf-syntax-ns#"
   xmlns:svg="http://www.w3.org/2000/svg"
   xmlns="http://www.w3.org/2000/svg"
   xmlns:sodipodi="http://sodipodi.sourceforge.net/DTD/sodipodi-0.dtd"
   xmlns:inkscape="http://www.inkscape.org/namespaces/inkscape"
   width="300"
   height="300"
   id="svg2"
   version="1.1"
   inkscape:version="0.92.4 (5da689c313, 2019-01-14)"
   sodipodi:docname="image-bigseal.svg">
  <defs
     id="defs4" />
  <sodipodi:namedview
     id="base"
     pagecolor="#ffffff"
     bordercolor="#666666"
     borderopacity="1.0"
     inkscape:pageopacity="0.0"
     inkscape:pageshadow="2"
     inkscape:zoom="1.4142136"
     inkscape:cx="191.75747"
     inkscape:cy="126.04698"
     inkscape:document-units="px"
     inkscape:current-layer="layer1"
     showgrid="false"
     inkscape:window-width="1872"
     inkscape:window-height="1016"
     inkscape:window-x="48"
     inkscape:window-y="27"
     inkscape:window-maximized="1" />
  <metadata
     id="metadata7">
    <rdf:RDF>
      <cc:Work
         rdf:about="">
        <dc:format>image/svg+xml</dc:format>
        <dc:type
           rdf:resource="http://purl.org/dc/dcmitype/StillImage" />
        <dc:title />
      </cc:Work>
    </rdf:RDF>
  </metadata>
  <g
     inkscape:label="Calque 1"
     inkscape:groupmode="layer"
     id="layer1"
     transform="translate(0,-752.36218)">
    <path
       style="fill:#000000;stroke-width:6.01555109"
       d="m 125.52994,1025.7846 c -7.15171,-7.9025 -9.95568,-22.2077 -9.95568,-50.79114 0,-34.29869 1.84515,-41.08254 13.36962,-49.15463 16.1129,-11.2859 40.99875,-12.13704 53.94488,-1.84497 19.29638,15.34044 17.65871,94.96494 -2.21228,107.56394 -14.00841,8.8818 -44.80124,5.6582 -55.14654,-5.7732 z m 48.99672,-8.2489 c 6.28007,-6.2801 7.34954,-17.0923 7.34954,-17.0923 0,0 -13.17176,0.2487 -27.20086,0.2487 -14.88849,0 -25.56998,1.3125 -25.56998,1.3125 0,0 0.84254,10.9673 4.4692,14.2489 5.3654,4.8548 13.54139,8.5008 21.10078,8.5008 6.94796,0 15.88106,-3.2484 19.85132,-7.2186 z m 7.21866,-40.90577 c 0,-4.48727 -0.56868,-12.4038 -0.56868,-12.4038 0,0 -13.53807,0.3727 -26.5013,0.3727 -12.40928,0 -25.77191,0.84016 -25.77191,0.84016 0,0 -1.29807,6.45748 -1.29807,11.19094 0,4.73673 0.30469,11.94464 0.30469,11.94464 0,0 14.36336,0.0865 26.76529,0.0865 12.80236,0 27.11592,0.45803 27.11592,0.45803 0,0 -0.0459,-7.93037 -0.0459,-12.48914 z m -1.11065,-24.15189 c 0,0 -3.14832,-13.24468 -5.41757,-15.57142 -7.31728,-7.50264 -19.77478,-9.31128 -32.10569,-3.69297 -14.99982,6.8344 -13.51636,20.6785 -13.51636,20.6785 0,0 14.29264,-1.32442 25.58157,-1.32442 18.4921,0 25.45805,-0.0897 25.45805,-0.0897 z m 58.43447,71.15366 c -1.51069,-4.3454 -7.07103,-32.26367 -12.35631,-62.04065 -7.68422,-43.29243 -14.64754,-80.71012 -14.64754,-80.71012 0,0 -13.51311,6.13976 -27.90611,8.29811 -29.4134,4.41084 -37.94056,-6.05664 -9.9333,-12.19353 10.97182,-1.37833 32.65749,-6.69425 32.65749,-6.69425 0,0 -5.57337,-14.00425 -19.0535,-16.96497 -9.88776,-2.17173 -19.7831,-6.86976 -21.98972,-10.44017 -6.43364,-10.40985 41.85921,-0.34529 49.68291,10.35439 3.28167,4.48793 6.39791,11.91638 6.39791,11.91638 0,0 4.87205,-8.13925 8.04122,-11.95848 5.89175,-7.09913 6.10729,-12.74611 0.92092,-24.12892 -5.76626,-12.65545 -10.85975,-14.86063 -34.32497,-14.86063 -16.83747,0 -26.10798,-2.33963 -23.83614,-6.01556 6.61151,-10.69763 54.34707,-7.04986 65.23871,4.98533 13.49691,14.91388 12.54423,40.25878 -2.02333,53.83058 -4.69392,4.37304 -10.92637,9.14081 -10.92637,9.14081 5.25227,17.72641 4.48846,30.99907 12.9971,75.5353 7.72497,40.43429 11.74537,74.94018 8.92876,76.68098 -2.81654,1.7407 -6.35705,-0.3904 -7.86773,-4.7358 z M 108.31836,878.87723 106.55093,835.26448 80.984836,833.4147 c -32.40662,-2.34468 -33.64317,-13.1891 -1.50389,-13.1891 12.682986,0 25.267454,-1.27023 25.267454,-1.27023 0,0 -1.20524,-11.23533 -1.20524,-22.29996 0,-27.86097 5.1605,-43.83935 12.66141,-39.20353 2.96188,1.83053 5.38524,10.03845 5.38524,18.23981 0,5.65922 0.37697,13.01319 0.37697,13.01319 0,0 7.43297,0.89919 13.15802,0.16677 7.44425,-0.95239 14.2959,0.97542 15.2259,4.28397 0.93001,3.30855 -5.16074,6.87211 -13.53499,7.91899 -5.27426,0.65936 -15.05271,0.0609 -15.05271,0.0609 l 1.03474,17.93834 c 0,0 13.00094,1.15176 22.85428,1.15176 13.23421,0 24.0622,2.707 24.0622,6.01555 0,3.30855 -10.82799,6.01555 -24.0622,6.01555 h -24.06221 v 45.11664 c 0,57.83892 -10.9382,59.07843 -13.27145,1.50389 z m -29.371954,33.44056 c -0.29416,-2.67667 -0.0914,-18.40169 0.45056,-34.94445 1.4687,-44.83727 12.11502,-48.84971 12.11502,-4.56593 0,20.31777 -2.70699,38.61443 -6.01555,40.65923 -3.30855,2.04481 -6.25611,1.52783 -6.55009,-1.14885 z m 64.341434,-11.37426 c -5.82479,-15.17922 -4.22345,-55.59211 2.36418,-59.6635 3.60361,-2.22714 6.04845,5.46928 6.09766,19.1955 0.0421,12.60234 1.71443,29.0041 3.70943,36.44835 4.09069,15.26452 -6.51244,18.76629 -12.17127,4.01965 z"
       id="path55"
       inkscape:connector-curvature="0"
       sodipodi:nodetypes="cscsccccscsscscscscscscsccsccsccccccccccsccccscccscsscscsccccccssscssccccccccccccc" />
  </g>
</svg>
