<?xml version="1.0" encoding="UTF-8" standalone="no"?>
<!-- Created with Inkscape (http://www.inkscape.org/) -->

<svg
   xmlns:dc="http://purl.org/dc/elements/1.1/"
   xmlns:cc="http://creativecommons.org/ns#"
   xmlns:rdf="http://www.w3.org/1999/02/22-rdf-syntax-ns#"
   xmlns:svg="http://www.w3.org/2000/svg"
   xmlns="http://www.w3.org/2000/svg"
   xmlns:sodipodi="http://sodipodi.sourceforge.net/DTD/sodipodi-0.dtd"
   xmlns:inkscape="http://www.inkscape.org/namespaces/inkscape"
   width="300"
   height="300"
   id="svg2"
   version="1.1"
   inkscape:version="0.48.4 r9939"
   sodipodi:docname="image-seal.svg">
  <defs
     id="defs4" />
  <sodipodi:namedview
     id="base"
     pagecolor="#ffffff"
     bordercolor="#666666"
     borderopacity="1.0"
     inkscape:pageopacity="0.0"
     inkscape:pageshadow="2"
     inkscape:zoom="2.0018437"
     inkscape:cx="123.3515"
     inkscape:cy="143.3195"
     inkscape:document-units="px"
     inkscape:current-layer="layer1"
     showgrid="false"
     inkscape:window-width="1215"
     inkscape:window-height="1000"
     inkscape:window-x="65"
     inkscape:window-y="24"
     inkscape:window-maximized="1"
     fit-margin-top="10"
     fit-margin-left="10"
     fit-margin-right="10"
     fit-margin-bottom="10" />
  <metadata
     id="metadata7">
    <rdf:RDF>
      <cc:Work
         rdf:about="">
        <dc:format>image/svg+xml</dc:format>
        <dc:type
           rdf:resource="http://purl.org/dc/dcmitype/StillImage" />
        <dc:title />
      </cc:Work>
    </rdf:RDF>
  </metadata>
  <g
     inkscape:label="Calque 1"
     inkscape:groupmode="layer"
     id="layer1"
     transform="translate(0,-752.36218)">
    <path
       style="fill:#000000"
       d="m 222.66449,1044.5243 c -0.52925,-1.6759 -1.5452,-20.1134 -2.2577,-40.972 -0.71247,-20.85889 -1.98213,-39.71465 -2.82147,-41.90187 -0.8393,-2.18725 -4.60178,-4.65235 -8.36107,-5.47803 -3.75929,-0.82568 -16.39171,-6.98091 -28.07206,-13.67831 -21.0701,-12.08138 -21.28779,-12.14344 -27.69885,-7.89832 -11.3624,7.52369 -32.81553,17.90449 -37.00171,17.90449 -2.22833,0 -5.86697,2.00608 -8.08591,4.45796 -3.379,3.73377 -4.04698,10.5649 -4.11192,42.05063 -0.0765,37.14215 -1.83948,46.12485 -9.052178,46.12485 -2.44028,0 -1.90339,-119.12169 0.58852,-130.57804 2.70992,-12.45864 19.469148,-20.56075 42.529938,-20.56075 9.26849,0 9.89028,-0.44062 9.89028,-7.00846 0,-3.85465 0.71176,-10.56728 1.58169,-14.91699 l 1.58172,-7.90853 -9.50432,1.31101 c -11.16136,1.53957 -27.39747,5.29332 -32.84388,7.59341 -2.11078,0.8914 -6.628,6.78796 -10.038228,13.10344 -7.33975,13.5926 -14.250651,16.64602 -13.979625,6.17656 0.248482,-9.59854 7.411295,-20.86881 15.857793,-24.95137 3.91732,-1.89337 9.31637,-4.57177 11.99786,-5.95194 7.39991,-3.80877 28.8544,-6.16444 32.15732,-3.53085 2.09815,1.67296 3.67334,-0.53851 5.67293,-7.96443 3.40082,-12.62965 1.44849,-14.36716 -16.20248,-14.41989 -17.52766,-0.0524 -28.98552,-5.35004 -32.33176,-14.94909 -3.762258,-10.79246 -3.537088,-31.39475 0.34367,-31.44229 2.25204,-0.0275 2.30628,-0.50868 0.20769,-1.84375 -2.09858,-1.33511 -1.90283,-3.07435 0.75021,-6.66639 3.58502,-4.85385 3.59313,-4.85382 6.38925,0.0146 1.53984,2.68149 3.18879,12.42522 3.66434,21.65273 0.50897,9.87583 2.23607,18.1487 4.19856,20.11122 2.13508,2.13513 9.02226,3.334 19.15251,3.334 l 15.81855,0 4.46679,-9.14146 c 4.34107,-8.88419 4.94704,-9.19829 21.53085,-11.16012 9.38523,-1.11024 18.02586,-2.94964 19.20141,-4.08752 1.17554,-1.13788 1.42889,-4.89164 0.56299,-8.34167 -1.50961,-6.01472 -2.29958,-6.27292 -19.20143,-6.27578 -15.01687,-0.002 -18.61972,-0.85673 -24.33077,-5.7685 -5.02544,-4.32211 -6.70374,-7.98313 -6.70374,-14.62337 0,-11.10153 6.4077,-12.18276 10.06273,-1.69797 2.21701,6.35973 4.36289,7.58449 19.20206,10.95959 9.18839,2.08986 18.20782,3.2235 20.04321,2.51919 8.53049,-3.27347 19.54846,22.75988 14.01135,33.10611 -1.91103,3.57075 -4.7003,4.11529 -16.357,3.19322 -15.22997,-1.20472 -25.63676,2.42946 -26.9836,9.42295 -0.65097,3.38022 0.66638,3.841 7.71249,2.69756 4.67365,-0.75843 14.34152,-0.0895 21.48412,1.48679 7.14263,1.57616 15.42311,3.36433 18.40108,3.97373 7.98062,1.63308 10.4178,8.28629 11.86308,32.38467 1.09495,18.25657 0.65007,22.30268 -2.83539,25.78813 -2.27376,2.27377 -4.98436,3.24086 -6.02356,2.14912 -1.03918,-1.09175 -2.26153,-12.22113 -2.71631,-24.73192 -0.89272,-24.55815 -3.63282,-29.66414 -15.91914,-29.66414 -4.73452,0 -5.62838,1.26889 -5.62838,7.98962 0,12.76557 -5.57127,18.44413 -18.93836,19.30308 l -11.53318,0.74112 -0.7201,13.64876 -0.72011,13.64879 20.5082,1.57638 c 27.80106,2.13695 36.57882,6.05518 40.10272,17.90108 4.46925,15.02381 7.65016,45.56899 9.126,87.63426 1.19822,34.1522 0.86188,39.8563 -2.55144,43.2696 -4.73052,4.7304 -5.87691,4.8725 -7.13634,0.8844 z M 131.40328,934.91675 c 13.41333,-6.8651 19.2448,-14.09565 19.2448,-23.86202 0,-10.4287 -32.07359,-8.07533 -42.05072,3.08542 -2.94877,3.29858 -4.26602,8.84301 -4.26602,17.95598 0,13.16095 0.0122,13.18094 6.69499,11.50352 3.68225,-0.92419 12.85187,-4.8315 20.37695,-8.6829 z m 85.06332,1.4117 c 0,-10.38743 -5.30529,-25.07736 -9.54237,-26.42216 -4.40952,-1.39952 -15.35921,-3.19693 -32.50835,-5.3363 -11.04488,-1.37785 -11.57918,-1.17001 -11.57918,4.50389 0,3.34136 3.00978,8.83195 6.86738,12.52778 9.18529,8.80006 31.73757,20.55754 40.05879,20.88439 5.68306,0.22329 6.70373,-0.71428 6.70373,-6.1576 z m -35.48522,-86.75498 c 6.50635,-9.28911 4.90972,-12.0072 -6.5655,-11.17693 -9.72444,0.7036 -10.40722,1.23587 -11.12421,8.6722 -0.70877,7.351 -0.23499,7.9226 6.5655,7.9226 4.81055,0 8.63354,-1.86194 11.12421,-5.41787 z m -36.7341,167.17253 c -12.72979,-2.7625 -19.96356,-21.49807 -20.33439,-52.66655 -0.11214,-9.42205 8.31707,-9.21984 11.62838,0.27899 2.80572,8.04856 7.47835,9.40357 27.90486,8.09224 13.39102,-0.85968 14.0169,-1.19455 14.0169,-7.49987 0,-6.22838 3.77923,-12.45055 7.56224,-12.45055 3.42241,0 7.0641,15.70862 7.0641,30.47154 0,16.4244 -3.4357,29.3975 -8.27758,31.2555 -4.94667,1.8983 -33.92313,3.7429 -39.56451,2.5187 z m 33.12997,-15.3311 c 6.97145,-13.02624 0.54008,-19.66196 -19.05639,-19.66196 -17.54731,0 -19.8614,1.4307 -19.8614,12.27978 0,10.50148 1.37171,11.18278 23.68202,11.76548 10.28098,0.2683 13.19491,-0.5697 15.23577,-4.3833 z"
       id="path3028"
       inkscape:connector-curvature="0" />
  </g>
</svg>
