<?xml version="1.0" encoding="UTF-8" standalone="no"?>
<!-- Created with Inkscape (http://www.inkscape.org/) -->

<svg
   xmlns:dc="http://purl.org/dc/elements/1.1/"
   xmlns:cc="http://creativecommons.org/ns#"
   xmlns:rdf="http://www.w3.org/1999/02/22-rdf-syntax-ns#"
   xmlns:svg="http://www.w3.org/2000/svg"
   xmlns="http://www.w3.org/2000/svg"
   xmlns:sodipodi="http://sodipodi.sourceforge.net/DTD/sodipodi-0.dtd"
   xmlns:inkscape="http://www.inkscape.org/namespaces/inkscape"
   width="300"
   height="300"
   id="svg2"
   version="1.1"
   inkscape:version="0.91 r13725"
   sodipodi:docname="image-seal.svg">
  <defs
     id="defs4" />
  <sodipodi:namedview
     id="base"
     pagecolor="#ffffff"
     bordercolor="#666666"
     borderopacity="1.0"
     inkscape:pageopacity="0.0"
     inkscape:pageshadow="2"
     inkscape:zoom="2.7366667"
     inkscape:cx="150"
     inkscape:cy="150"
     inkscape:document-units="px"
     inkscape:current-layer="layer1"
     showgrid="false"
     inkscape:window-width="1231"
     inkscape:window-height="1000"
     inkscape:window-x="49"
     inkscape:window-y="24"
     inkscape:window-maximized="1"
     showguides="true"
     inkscape:guide-bbox="true" />
  <metadata
     id="metadata7">
    <rdf:RDF>
      <cc:Work
         rdf:about="">
        <dc:format>image/svg+xml</dc:format>
        <dc:type
           rdf:resource="http://purl.org/dc/dcmitype/StillImage" />
        <dc:title />
      </cc:Work>
    </rdf:RDF>
  </metadata>
  <g
     inkscape:label="Calque 1"
     inkscape:groupmode="layer"
     id="layer1"
     transform="translate(0,-752.36218)">
    <path
       style="fill:#000000"
       d="m 218.84251,1029.6158 c -21.82838,-21.8284 -26.90098,-31.29037 -27.36077,-51.0366 -0.33713,-14.47769 0.34441,-16.03774 11.48529,-26.28908 18.78986,-17.28958 19.01524,-32.03667 0.60795,-39.77634 -7.60351,-3.19705 -10.9812,-2.957 -23.72353,1.68597 -8.27728,3.01602 -19.19783,10.00003 -24.65708,15.76886 -9.39862,9.93166 -9.78903,11.24168 -9.54692,32.03542 0.13878,11.92416 1.20516,23.22184 2.36964,25.10596 1.16445,1.88412 3.06114,8.69936 4.21485,15.14501 1.15373,6.4456 3.01225,14.643 4.13001,18.2165 2.40695,7.6947 -5.03526,12.0916 -11.4522,6.766 -5.26926,-4.3731 -10.47213,-34.79777 -10.84242,-63.40312 -0.40797,-31.51393 5.95235,-43.67868 28.67716,-54.84798 13.64119,-6.70469 16.93689,-9.72832 17.68434,-16.22443 0.66595,-5.78765 -0.36872,-7.98404 -3.76107,-7.98404 -2.57385,0 -8.21317,-3.53145 -12.53184,-7.84765 -7.66045,-7.65615 -7.87669,-8.83036 -8.8611,-48.11688 -0.555,-22.14809 -0.15736,-44.80856 0.88335,-50.35663 3.43735,-18.3226 25.17857,-25.89356 51.6136,-17.97342 18.8445,5.64594 20.88566,11.51416 20.31208,58.39598 -0.28597,23.3763 -1.77327,42.0342 -3.48734,43.74824 -1.64376,1.64376 -2.98865,5.13784 -2.98865,7.76459 0,6.41383 -9.20557,14.38577 -16.61189,14.38577 -15.05161,0 -8.03247,15.21553 11.2719,24.43443 20.09805,9.5979 19.75677,29.18691 -0.84561,48.53824 -9.32766,8.76122 -11.22319,12.45647 -11.16956,21.77467 0.0383,6.64449 2.38061,14.18364 5.74201,18.48094 3.1226,3.99199 5.7065,8.67059 5.74201,10.39679 0.0354,1.7262 3.65739,4.9923 8.04861,7.2581 11.55776,5.9636 24.48547,20.317 22.63715,25.1336 -0.87357,2.2765 -1.5883,4.6855 -1.5883,5.3533 0,0.6678 -1.8552,1.2142 -4.12267,1.2142 -2.26747,0 -12.10852,-7.9859 -21.869,-17.7464 z M 206.47847,867.79845 c 2.05809,-1.30576 4.01781,-6.18505 4.35494,-10.84286 0.61198,-8.4556 0.58405,-8.47014 -17.95264,-9.34403 -22.29476,-1.05108 -26.44188,0.22326 -24.52913,7.53772 2.68928,10.28389 28.4068,18.81607 38.12683,12.64917 z m 6.41953,-42.83142 0,-10.1123 -22.5005,0.84796 -22.50049,0.84794 0,8.70987 c 0,8.7085 0.003,8.7101 20.32303,10.17585 11.17766,0.80627 21.30288,1.05581 22.50049,0.55447 1.19761,-0.50131 2.17747,-5.46201 2.17747,-11.02379 z m 0,-35.8661 c 0,-13.99023 -0.2642,-14.43446 -9.63074,-16.19162 -17.37151,-3.25891 -29.18656,-0.62272 -32.94275,7.3502 -1.88072,3.99203 -2.71736,10.85105 -1.85921,15.24227 1.53369,7.84809 1.92529,7.98405 22.99649,7.98405 l 21.43621,0 0,-14.3849 z M 66.048197,930.50473 c 2.19489,-103.4788 4.73982,-149.68073 8.57216,-155.6222 4.22859,-6.55586 19.51827,-11.34985 43.194913,-13.54352 21.22003,-1.96608 22.50049,-1.7562 22.50049,3.68808 0,5.11324 -2.6626,6.00504 -23.30554,7.80575 -29.004273,2.53007 -34.671613,7.23712 -34.943943,29.02296 -1.46035,116.81553 -4.74121,215.6014 -7.29791,219.7382 -0.86402,1.398 -3.62638,2.5418 -6.13857,2.5418 -4.10124,0 -4.36483,-9.5597 -2.5816,-93.63107 z m 31.29888,-37.59759 c -4.5212,-4.52121 -4.74824,-71.85685 -0.27552,-81.67371 2.44881,-5.37451 6.213763,-7.45394 15.899783,-8.78155 14.64616,-2.00748 20.24846,-0.47492 23.17295,6.33919 1.14633,2.67093 2.58175,21.48469 3.18984,41.80832 l 1.10557,36.95205 -10.5781,4.41982 c -12.68639,5.30071 -27.71718,5.73333 -32.514663,0.93588 z m 27.230243,-19.01655 c 3.95591,-8.72906 3.16435,-58.53315 -0.95547,-60.11725 -11.35308,-4.36533 -18.10224,10.93588 -18.12936,41.10161 -0.0116,14.09259 1.08702,18.64385 5.06456,20.96056 7.43912,4.33289 11.42586,3.77985 14.02027,-1.94492 z"
       id="path3483"
       inkscape:connector-curvature="0" />
  </g>
</svg>
