<?xml version="1.0" encoding="UTF-8" standalone="no"?>
<!-- Created with Inkscape (http://www.inkscape.org/) -->

<svg
   xmlns:dc="http://purl.org/dc/elements/1.1/"
   xmlns:cc="http://creativecommons.org/ns#"
   xmlns:rdf="http://www.w3.org/1999/02/22-rdf-syntax-ns#"
   xmlns:svg="http://www.w3.org/2000/svg"
   xmlns="http://www.w3.org/2000/svg"
   xmlns:sodipodi="http://sodipodi.sourceforge.net/DTD/sodipodi-0.dtd"
   xmlns:inkscape="http://www.inkscape.org/namespaces/inkscape"
   width="300"
   height="300"
   id="svg2"
   version="1.1"
   inkscape:version="0.92.4 (5da689c313, 2019-01-14)"
   sodipodi:docname="image-bigseal.svg">
  <defs
     id="defs4" />
  <sodipodi:namedview
     id="base"
     pagecolor="#ffffff"
     bordercolor="#666666"
     borderopacity="1.0"
     inkscape:pageopacity="0.0"
     inkscape:pageshadow="2"
     inkscape:zoom="1.979899"
     inkscape:cx="104.60582"
     inkscape:cy="168.6356"
     inkscape:document-units="px"
     inkscape:current-layer="layer1"
     showgrid="false"
     inkscape:window-width="1872"
     inkscape:window-height="1016"
     inkscape:window-x="48"
     inkscape:window-y="27"
     inkscape:window-maximized="1" />
  <metadata
     id="metadata7">
    <rdf:RDF>
      <cc:Work
         rdf:about="">
        <dc:format>image/svg+xml</dc:format>
        <dc:type
           rdf:resource="http://purl.org/dc/dcmitype/StillImage" />
        <dc:title />
      </cc:Work>
    </rdf:RDF>
  </metadata>
  <g
     inkscape:label="Calque 1"
     inkscape:groupmode="layer"
     id="layer1"
     transform="translate(0,-752.36218)">
    <path
       style="fill:#000000;stroke-width:5.97454214"
       d="m 225.11989,1013.1865 c -3.75757,-28.32587 -23.71863,-66.27293 -37.18221,-70.68531 -8.4816,-2.7796 -18.56632,22.09601 -25.94224,63.99091 l -5.78526,32.86 2.07069,-40.32666 c 1.221,-23.7788 6.01285,-46.34315 11.67761,-54.98867 7.29095,-11.12741 8.18971,-18.38952 3.72818,-30.1243 -3.23331,-8.50422 -5.46148,-26.11096 -4.95149,-39.12602 1.19505,-30.49873 -3.4758,-34.57647 -16.62263,-14.51187 -6.69784,10.22221 -10.40865,26.82725 -10.12956,45.32748 0.24227,16.05754 -1.93744,29.19556 -4.84374,29.19556 -7.48352,0 -6.55884,-42.17155 1.45422,-66.32208 14.42376,-43.47167 40.73254,-41.67769 41.4623,2.82733 0.31581,19.26055 1.53069,22.04385 5.54833,12.71114 2.82919,-6.572 6.76016,-19.45771 8.7355,-28.63491 4.63781,-21.54683 19.07607,-26.88705 33.55302,-12.41008 7.97527,7.97524 12.32783,23.02864 14.49183,50.12008 3.45545,43.25933 -1.53329,38.04475 -11.40422,-11.92041 -7.5796,-38.36672 -21.55237,-44.74227 -28.0825,-12.81348 -2.27093,11.10363 -7.53824,26.55869 -11.70513,34.3446 -8.4691,15.82465 -3.25304,26.1995 7.67693,15.26949 3.88842,-3.88841 11.23711,-7.01005 16.33041,-6.93698 6.58729,0.0944 5.11913,3.31689 -5.08593,11.16284 l -14.34646,11.02996 15.81127,20.72969 c 8.69619,11.40127 18.51278,34.97467 21.81464,52.38519 7.24013,38.1771 7.19182,35.9993 0.79854,35.9993 -2.86266,0 -6.94511,-13.1187 -9.0721,-29.1528 z M 56.289157,999.02394 c 2.072145,-17.25149 3.790906,-69.16422 3.819471,-115.36165 0.03704,-59.7738 2.310278,-87.08379 7.883432,-94.70552 9.274772,-12.68401 60.06676,-20.4732 66.4243,-10.18647 2.78903,4.51269 -4.28819,6.66376 -21.92468,6.66376 -14.323726,0 -29.26939,3.22626 -33.212587,7.16945 -4.110969,4.11097 -7.179786,23.86364 -7.193677,46.3027 -0.05019,80.87212 -7.951865,191.48409 -13.67906,191.48409 -3.59444,0 -4.418437,-12.2076 -2.117199,-31.36636 z M 92.605506,890.42385 c -10.917902,-7.98336 -15.084536,-53.73073 -6.202668,-68.10189 6.898003,-11.16122 32.445002,-8.20681 39.267482,4.54113 18.88826,35.29306 -6.08105,83.29181 -33.064814,63.56076 z M 118.7397,855.58122 c 1.72729,-26.86787 1.03558,-28.32536 -13.44272,-28.32536 -13.391649,0 -15.263712,2.50476 -15.263712,20.42224 0,27.82768 5.61273,40.26363 17.181752,38.06912 7.00346,-1.3285 10.21042,-9.72273 11.52468,-30.166 z m 19.08991,-27.67258 c 0,-3.33535 10.75417,-14.70652 23.89817,-25.26933 13.174,-10.58695 24.16541,-24.78873 24.49371,-31.64787 0.56047,-11.7095 0.82452,-11.64623 4.4809,1.07303 2.13695,7.43371 12.45155,18.71615 22.92132,25.07211 18.74683,11.38072 37.17137,36.09382 26.9093,36.09382 -2.89232,0 -10.35033,-5.62611 -16.57335,-12.50245 -22.73714,-25.12426 -31.55333,-25.94911 -59.88498,-5.60286 -14.43479,10.36625 -26.24507,16.11889 -26.24507,12.78355 z"
       id="path320"
       inkscape:connector-curvature="0" />
  </g>
</svg>
