<?xml version="1.0" encoding="UTF-8" standalone="no"?>
<!-- Created with Inkscape (http://www.inkscape.org/) -->

<svg
   xmlns:dc="http://purl.org/dc/elements/1.1/"
   xmlns:cc="http://creativecommons.org/ns#"
   xmlns:rdf="http://www.w3.org/1999/02/22-rdf-syntax-ns#"
   xmlns:svg="http://www.w3.org/2000/svg"
   xmlns="http://www.w3.org/2000/svg"
   xmlns:sodipodi="http://sodipodi.sourceforge.net/DTD/sodipodi-0.dtd"
   xmlns:inkscape="http://www.inkscape.org/namespaces/inkscape"
   width="300"
   height="300"
   id="svg2"
   version="1.1"
   inkscape:version="0.48.4 r9939"
   sodipodi:docname="dessin.svg">
  <defs
     id="defs4" />
  <sodipodi:namedview
     id="base"
     pagecolor="#ffffff"
     bordercolor="#666666"
     borderopacity="1.0"
     inkscape:pageopacity="0.0"
     inkscape:pageshadow="2"
     inkscape:zoom="1.979899"
     inkscape:cx="218.29155"
     inkscape:cy="144.09165"
     inkscape:document-units="px"
     inkscape:current-layer="layer1"
     showgrid="false"
     inkscape:window-width="1215"
     inkscape:window-height="1000"
     inkscape:window-x="65"
     inkscape:window-y="24"
     inkscape:window-maximized="1" />
  <metadata
     id="metadata7">
    <rdf:RDF>
      <cc:Work
         rdf:about="">
        <dc:format>image/svg+xml</dc:format>
        <dc:type
           rdf:resource="http://purl.org/dc/dcmitype/StillImage" />
        <dc:title />
      </cc:Work>
    </rdf:RDF>
  </metadata>
  <g
     inkscape:label="Calque 1"
     inkscape:groupmode="layer"
     id="layer1"
     transform="translate(0,-752.36218)">
    <path
       style="fill:#000000"
       d="m 182.49645,1043.0365 c -0.89079,-1.0036 -1.61965,-15.2793 -1.61965,-31.7238 l 0,-29.89915 6.84225,-5.48895 c 3.76323,-3.01892 8.52577,-5.48894 10.5834,-5.48894 5.76799,0 15.19791,-10.54362 17.58561,-19.66251 2.81973,-10.76886 1.72952,-41.77468 -1.80709,-51.39373 -1.74735,-4.75259 -5.71655,-8.77909 -10.62541,-10.77892 -12.21901,-4.97783 -14.6559,-2.53536 -13.21613,13.24637 1.11287,12.1981 2.07256,14.07975 9.44741,18.52317 4.51479,2.7202 9.55042,4.94582 11.19027,4.94582 1.63987,0 2.98157,1.92218 2.98157,4.27155 0,4.38505 -2.0506,4.34559 -22.80668,-0.43876 -5.80482,-1.33801 -8.71785,-0.44241 -12.9256,3.974 -7.35403,7.71871 -2.96863,10.67779 15.90388,10.73132 15.3843,0.0435 17.85947,1.12461 15.88026,6.9354 -0.94446,2.77279 -6.15866,3.71829 -20.45136,3.70846 -16.447,-0.0114 -20.07437,-0.86322 -25.42719,-5.97173 -5.43904,-5.1908 -6.44031,-8.63481 -7.77096,-26.72937 -1.51248,-20.56702 -1.47434,-20.76232 3.88765,-19.9058 4.37229,0.69846 5.64195,2.90949 6.59303,11.48145 0.64786,5.83905 1.97302,10.31785 2.94481,9.9529 0.97178,-0.36494 2.72332,-0.66353 3.89226,-0.66353 2.76671,0 7.29802,-14.74766 7.29802,-23.75216 0,-3.8695 1.27216,-8.46868 2.82702,-10.22039 2.19878,-2.47716 1.96793,-3.18493 -1.03888,-3.18493 -2.12625,0 -4.52112,1.19436 -5.32191,2.6541 -0.8008,1.45977 -5.59267,2.65411 -10.64858,2.65411 -12.6211,0 -17.97175,7.07186 -19.9611,26.38241 -2.47358,24.01055 4.99112,47.79048 15.07284,48.01697 5.44274,0.12228 12.74019,7.04112 10.92201,10.35541 -2.2492,4.10001 -7.74572,3.48547 -16.22433,-1.81397 -20.2303,-12.64471 -25.7158,-29.15196 -20.53686,-61.80048 3.29425,-20.76723 8.20777,-27.46339 23.89438,-32.56336 13.40625,-4.3586 15.48619,-12.65679 4.46188,-17.80136 -10.88631,-5.08012 -14.19272,-12.94636 -16.36907,-38.94329 -1.0774,-12.86946 -2.67262,-27.65579 -3.54497,-32.85857 -1.18223,-7.05102 -0.62599,-10.35727 2.18465,-12.98521 2.07392,-1.9391 4.36791,-2.85289 5.09775,-2.03063 2.10233,2.36851 5.50885,20.9878 5.57048,30.44717 l 0.0563,8.62584 15.01854,0 c 21.09355,0 30.14076,-2.37083 29.21468,-7.65574 -0.57836,-3.30057 -3.00236,-4.08711 -10.52852,-3.41631 -14.15674,1.26174 -19.56961,-5.58633 -19.56961,-24.75837 0,-12.78139 0.58064,-14.59759 4.66682,-14.59759 4.61315,0 6.158,3.76124 7.6308,18.57873 0.53238,5.35583 2.13591,6.79564 8.31606,7.46696 5.74598,0.62418 7.6565,-0.22453 7.6565,-3.40094 0,-6.33161 6.82471,-8.10882 10.34006,-2.69265 3.00086,4.62347 4.95335,25.30572 4.66649,49.43045 -0.17198,14.46154 -6.639,23.51838 -20.46363,28.65855 -13.93688,5.18192 -10.93795,16.08546 4.42416,16.08546 9.68517,0 23.80262,7.88198 26.62733,14.86644 3.48235,8.61055 3.47412,62.53295 -0.0118,71.14999 -2.53464,6.26713 -19.43686,17.4937 -26.33774,17.4937 -5.72659,0 -8.62485,11.58724 -9.24034,36.94281 -0.55902,23.0302 -2.63576,30.2205 -7.23264,25.0416 z m 18.15301,-198.88794 c 0.78648,-2.30902 1.42997,-7.84994 1.42997,-12.31317 l 0,-8.11493 -12.36819,1.67367 c -6.80252,0.92054 -15.81364,1.68407 -20.02472,1.69675 -6.6249,0.0213 -7.65651,0.93218 -7.65651,6.77035 0,11.33338 4.40339,14.27405 21.53955,14.3846 12.15434,0.0784 15.96933,-0.83677 17.0799,-4.09727 z M 71.599427,1003.5059 c -3.533066,-2.9105 -4.037123,-5.65603 -2.753751,-14.99883 2.950512,-21.47907 3.470401,-38.01749 3.68384,-117.19011 0.258319,-95.81037 -1.624522,-90.15252 30.471914,-91.56636 20.0775,-0.88438 30.75841,1.77039 30.75841,7.64513 0,1.4084 -5.68276,2.56074 -12.62837,2.56074 -6.94561,0 -17.4876,0.75037 -23.426721,1.66746 l -10.798361,1.66747 -1.790658,14.9207 c -0.984861,8.20638 -1.600303,19.69807 -1.367664,25.5371 0.90434,22.69734 0.586559,128.3299 -0.43708,145.28601 -1.304339,21.60609 -5.230549,29.80969 -11.711559,24.47069 z M 101.35994,903.49428 c -7.088228,-3.85092 -9.563235,-16.07502 -9.930747,-49.0478 -0.267625,-24.01274 0.244254,-27.6918 4.523488,-32.51279 6.051239,-6.81736 19.417069,-7.15969 30.739609,-0.78736 7.91614,4.45522 8.29251,5.3296 9.42339,21.89225 1.90386,27.88374 -0.8874,55.9248 -5.98489,60.12408 -5.13248,4.22808 -21.25673,4.41395 -28.77085,0.33162 z m 16.97603,-10.45373 c 5.86013,-3.00807 6.00046,-3.7143 6.00046,-30.19722 0,-29.6173 -2.13509,-35.04542 -12.61876,-32.08109 -4.69528,1.32765 -5.87332,3.80271 -7.20895,15.14596 -1.78726,15.17873 -0.0235,35.2126 3.89641,44.24076 3.03572,6.99298 2.33714,6.78957 9.93084,2.89159 z"
       id="path3202"
       inkscape:connector-curvature="0" />
  </g>
</svg>
