<?xml version="1.0" encoding="UTF-8" standalone="no"?>
<!-- Created with Inkscape (http://www.inkscape.org/) -->

<svg
   xmlns:dc="http://purl.org/dc/elements/1.1/"
   xmlns:cc="http://creativecommons.org/ns#"
   xmlns:rdf="http://www.w3.org/1999/02/22-rdf-syntax-ns#"
   xmlns:svg="http://www.w3.org/2000/svg"
   xmlns="http://www.w3.org/2000/svg"
   xmlns:sodipodi="http://sodipodi.sourceforge.net/DTD/sodipodi-0.dtd"
   xmlns:inkscape="http://www.inkscape.org/namespaces/inkscape"
   width="300"
   height="300"
   id="svg2"
   version="1.1"
   inkscape:version="0.48.4 r9939"
   sodipodi:docname="image-seal.svg">
  <defs
     id="defs4" />
  <sodipodi:namedview
     id="base"
     pagecolor="#ffffff"
     bordercolor="#666666"
     borderopacity="1.0"
     inkscape:pageopacity="0.0"
     inkscape:pageshadow="2"
     inkscape:zoom="2.0018437"
     inkscape:cx="145.03351"
     inkscape:cy="130.6666"
     inkscape:document-units="px"
     inkscape:current-layer="layer1"
     showgrid="false"
     inkscape:window-width="1215"
     inkscape:window-height="1000"
     inkscape:window-x="65"
     inkscape:window-y="24"
     inkscape:window-maximized="1"
     fit-margin-top="10"
     fit-margin-left="10"
     fit-margin-right="10"
     fit-margin-bottom="10" />
  <metadata
     id="metadata7">
    <rdf:RDF>
      <cc:Work
         rdf:about="">
        <dc:format>image/svg+xml</dc:format>
        <dc:type
           rdf:resource="http://purl.org/dc/dcmitype/StillImage" />
        <dc:title />
      </cc:Work>
    </rdf:RDF>
  </metadata>
  <g
     inkscape:label="Calque 1"
     inkscape:groupmode="layer"
     id="layer1"
     transform="translate(0,-752.36218)">
    <path
       style="fill:#000000"
       d="m 67.416558,1044.726 c -2.55971,-3.0843 -3.03285,-8.2987 -1.67068,-18.4128 2.73182,-20.2834 3.78007,-37.71634 5.46989,-90.96669 3.33049,-104.95179 4.47747,-133.73299 5.53461,-138.8817 1.42178,-6.92467 11.35079,-11.01475 35.499622,-14.62343 21.37975,-3.1949 27.84395,-2.00497 27.84395,5.12557 0,4.05019 -3.58865,5.03782 -24.15012,6.64631 -19.285332,1.50868 -24.401522,2.80101 -25.398072,6.4155 -3.28297,11.90739 -4.55343,40.13201 -4.81644,107.00206 -0.15749,40.04648 -1.0307,74.0253 -1.94041,75.5085 -0.90974,1.48321 -1.73451,5.73056 -1.83284,9.43857 -1.08395,40.87461 -1.56132,44.82261 -6.13932,50.77351 -4.35366,5.6594 -5.18083,5.8538 -8.40019,1.9746 z m 59.758912,-15.7907 c -3.41598,-1.5604 -5.80687,-4.7247 -5.34934,-7.08 0.66339,-3.4146 4.96641,-4.31 21.71743,-4.5176 11.48953,-0.1429 21.57973,-0.949 22.42262,-1.792 0.84289,-0.8427 2.12705,-8.9785 2.85368,-18.07897 1.27985,-16.02929 1.01317,-16.88739 -8.53192,-27.45268 -9.53586,-10.55506 -9.79846,-11.39717 -8.15686,-26.15776 3.7181,-33.43165 5.91715,-35.5018 37.5962,-35.39234 23.20875,0.0801 24.79928,0.45852 29.59715,7.04033 5.52474,7.57892 9.0276,41.41609 4.28745,41.41609 -1.43879,0 -2.61597,1.98134 -2.61597,4.40298 0,2.42161 -2.35645,6.4467 -5.23659,8.94463 -4.15453,3.60321 -5.35372,8.55258 -5.80337,23.95227 -0.31174,10.67585 0.27075,20.24815 1.29441,21.27185 1.02367,1.0236 5.1521,0.6367 9.17428,-0.86 6.8525,-2.5498 23.15328,-0.9711 26.71137,2.5869 0.87768,0.8778 0.0607,3.4454 -1.81541,5.7061 -2.8306,3.4108 -11.87692,4.1103 -53.14787,4.1103 -27.35514,0 -51.78052,1.0623 -54.27861,2.3607 -2.72389,1.4158 -7.01447,1.2314 -10.71865,-0.4608 z m 64.12514,-12.6105 c 2.85376,-1.8044 4.02287,-7.443 4.04509,-19.50995 0.0278,-15.03752 -0.56793,-16.97226 -5.22505,-16.97226 -4.34454,0 -5.80933,3.04065 -8.44425,17.52876 -2.36733,13.01655 -2.40263,18.03875 -0.13726,19.51005 3.93636,2.5562 4.92722,2.4999 9.76136,-0.5566 z m 12.87134,-59.40443 c 5.69444,0 6.50292,-10.48279 2.2358,-28.98987 -2.28631,-9.9161 -4.69695,-10.44266 -25.65708,-5.60448 -9.1484,2.1117 -13.75784,4.57171 -13.89573,7.41601 -0.11353,2.34087 -0.71536,6.68317 -1.33749,9.64958 -1.99745,9.52399 1.28027,16.77046 8.92553,19.73285 12.32194,4.77451 18.01622,5.12013 22.49469,1.36538 2.34159,-1.96322 5.59701,-3.56947 7.23428,-3.56947 z m -102.10489,-55.5732 c -5.614142,-5.97599 -6.116272,-8.74669 -5.448772,-30.06595 1.42873,-45.63386 3.16413,-49.19746 23.958222,-49.19746 18.25386,0 19.51744,2.6548 19.51744,41.00667 0,40.32135 -2.01136,44.8393 -19.96205,44.8393 -9.10945,0 -13.32334,-1.53547 -18.06484,-6.58256 z m 22.78472,-9.86336 c 3.98337,-2.91271 4.55181,-7.35021 3.88634,-30.33823 -0.7461,-25.77445 -1.03859,-26.9396 -6.83597,-27.23198 -10.90731,-0.55008 -13.44464,4.37504 -15.06295,29.23802 -1.23373,18.95469 -0.73316,24.33806 2.57028,27.64151 4.99659,4.99658 9.29094,5.18864 15.4423,0.69068 z m 23.33237,-1.93331 c -3.12738,-2.00367 -3.3689,-3.67972 -1.06454,-7.38767 2.54027,-4.0876 8.71473,-5.06072 41.79935,-6.58777 41.71049,-1.92514 48.25735,-1.29855 48.25735,4.6188 0,5.12962 -6.51337,6.25071 -44.49608,7.65864 -17.79844,0.65976 -34.18108,1.89483 -36.40589,2.7446 -2.2248,0.84977 -5.86539,0.37881 -8.09019,-1.0466 z m 37.75425,-29.17975 c -3.70801,-2.5178 -8.95874,-7.31483 -11.66828,-10.66004 -2.70957,-3.34519 -6.38775,-7.59255 -8.17377,-9.43857 -11.40364,-11.78666 -20.21146,-39.76223 -12.51874,-39.76223 1.4832,0 2.69673,-1.58037 2.69673,-3.51193 0,-3.86156 36.7165,-39.63579 40.67975,-39.63579 5.78934,0 2.12869,13.08396 -4.94805,17.68539 -7.75458,5.04219 -22.13073,20.09305 -22.20497,23.24715 -0.0243,1.00648 -1.91344,3.70032 -4.19946,5.98634 -3.74406,3.74404 -3.73281,4.97555 0.11353,12.41336 4.21993,8.16047 4.35809,8.20486 11.819,3.79759 4.15202,-2.45268 17.07166,-13.4129 28.71033,-24.35605 21.71869,-20.42087 27.13745,-23.19839 30.11589,-15.43677 1.17407,3.05955 -1.60437,7.44517 -8.84901,13.96773 -42.62589,38.37719 -46.96574,43.21257 -42.65402,47.52429 5.03097,5.03097 12.86951,5.37966 17.8097,0.79222 1.99656,-1.85401 9.06105,-7.57334 15.69884,-12.70965 6.63779,-5.13627 12.4732,-10.29377 12.96762,-11.46111 1.65991,-3.91919 5.46414,-2.17062 7.20402,3.31127 1.33828,4.2165 -1.94742,9.0491 -14.66817,21.57385 -9.01602,8.87713 -18.205,16.14021 -20.41998,16.14021 -2.21496,0 -4.02722,1.21353 -4.02722,2.69674 0,3.97414 -5.81939,3.04018 -13.48366,-2.164 z"
       id="path3119"
       inkscape:connector-curvature="0" />
  </g>
</svg>
