<?xml version="1.0" encoding="UTF-8" standalone="no"?>
<svg
   xmlns:dc="http://purl.org/dc/elements/1.1/"
   xmlns:cc="http://creativecommons.org/ns#"
   xmlns:rdf="http://www.w3.org/1999/02/22-rdf-syntax-ns#"
   xmlns:svg="http://www.w3.org/2000/svg"
   xmlns="http://www.w3.org/2000/svg"
   viewBox="0 0 300 300"
   height="300"
   width="300"
   id="svg121"
   version="1.1">
  <metadata
     id="metadata127">
    <rdf:RDF>
      <cc:Work
         rdf:about="">
        <dc:format>image/svg+xml</dc:format>
        <dc:type
           rdf:resource="http://purl.org/dc/dcmitype/StillImage" />
        <dc:title></dc:title>
      </cc:Work>
    </rdf:RDF>
  </metadata>
  <defs
     id="defs125" />
  <path
     id="path131"
     d="M 145.17111,270.10878 144.70815,60.006118 64.716548,59.428248 C 50.279583,59.323954 52.435975,46.074663 64.276869,45.456204 L 233.24917,45.166125 c 15.77931,-0.02709 16.29262,14.131319 0.69946,14.44609 -36.12381,0.72921 -78.17084,0.702313 -78.17084,0.702313 l 0.71153,209.116082 c -0.22205,3.73942 -0.089,15.23144 -5.89288,15.56352 -5.13086,0.29357 -5.3364,-10.50339 -5.42533,-14.88535 z M 71.695295,246.62179 c 19.520628,-40.44682 23.029666,-85.82712 24.822096,-133.1626 0.30378,-8.02239 0.05437,-36.270375 5.520429,-36.338577 8.05671,-0.100526 7.72632,29.800577 7.72088,36.681427 -1.44637,47.68962 -7.06657,93.96912 -23.736742,133.29918 -6.238377,14.71824 -20.778338,16.38222 -14.326663,-0.47943 z m 149.158155,3.82949 c -17.50342,-46.32583 -23.7414,-82.79412 -25.30517,-138.60272 -0.27057,-9.65614 -1.51202,-37.128442 5.49703,-37.154944 6.35876,-0.02404 6.18398,25.765484 6.45627,36.672664 2.40055,53.77611 7.88808,93.55222 25.79414,136.54078 4.66167,11.19166 -8.11546,13.99587 -12.44227,2.54422 z M 224.84928,28.319587 82.362323,28.891857 C 65.676325,28.958873 68.091253,15.122806 79.324144,15 l 144.440176,0.148036 c 9.95558,0.0102 10.06597,13.13548 1.08496,13.171551 z"
     style="fill:#000000;stroke-width:0.69109499" />
</svg>
