<?xml version="1.0" encoding="UTF-8" standalone="no"?>
<!-- Created with Inkscape (http://www.inkscape.org/) -->

<svg
   xmlns:dc="http://purl.org/dc/elements/1.1/"
   xmlns:cc="http://creativecommons.org/ns#"
   xmlns:rdf="http://www.w3.org/1999/02/22-rdf-syntax-ns#"
   xmlns:svg="http://www.w3.org/2000/svg"
   xmlns="http://www.w3.org/2000/svg"
   xmlns:sodipodi="http://sodipodi.sourceforge.net/DTD/sodipodi-0.dtd"
   xmlns:inkscape="http://www.inkscape.org/namespaces/inkscape"
   width="300"
   height="300"
   id="svg2"
   version="1.1"
   inkscape:version="0.48.4 r9939"
   sodipodi:docname="image-seal.svg">
  <defs
     id="defs4" />
  <sodipodi:namedview
     id="base"
     pagecolor="#ffffff"
     bordercolor="#666666"
     borderopacity="1.0"
     inkscape:pageopacity="0.0"
     inkscape:pageshadow="2"
     inkscape:zoom="1.979899"
     inkscape:cx="141.86812"
     inkscape:cy="134.8223"
     inkscape:document-units="px"
     inkscape:current-layer="layer1"
     showgrid="false"
     inkscape:window-width="1215"
     inkscape:window-height="1000"
     inkscape:window-x="65"
     inkscape:window-y="24"
     inkscape:window-maximized="1" />
  <metadata
     id="metadata7">
    <rdf:RDF>
      <cc:Work
         rdf:about="">
        <dc:format>image/svg+xml</dc:format>
        <dc:type
           rdf:resource="http://purl.org/dc/dcmitype/StillImage" />
        <dc:title />
      </cc:Work>
    </rdf:RDF>
  </metadata>
  <g
     inkscape:label="Calque 1"
     inkscape:groupmode="layer"
     id="layer1"
     transform="translate(0,-752.36218)">
    <path
       style="fill:#000000"
       d="m 98.481545,1032.7941 c -0.84161,-1.3617 -1.491969,-44.76482 -1.445283,-96.45128 0.04664,-51.68645 0.02883,-95.52394 -0.03982,-97.41668 -0.09432,-2.60276 -5.391401,-3.29908 -21.738773,-2.8576 -20.354376,0.54968 -21.662796,0.25413 -22.451197,-5.0733 -0.826074,-5.58191 -0.295706,-5.65991 39.953178,-5.87532 22.434693,-0.11996 45.145903,-0.31658 50.469353,-0.43664 10.44594,-0.23554 14.42888,4.00453 6.80597,7.24548 -2.58252,1.098 -12.94813,2.71694 -23.03467,3.59764 l -18.33916,1.60131 -0.5443,14.40933 c -0.83538,22.11491 -0.72631,56.14653 0.37935,118.35423 0.92854,52.24323 0.62948,57.13073 -3.73757,61.08293 -2.66607,2.4127 -5.417625,3.2105 -6.277076,1.8199 z m -47.387532,-21.3307 c -0.856728,-1.3862 -0.437913,-4.6315 0.930712,-7.2117 13.773707,-25.96764 18.1258,-53.93971 18.563215,-119.31118 0.209853,-31.35627 0.954109,-38.64324 3.946956,-38.64324 2.028624,0 4.54667,1.38873 5.59567,3.08606 2.829891,4.57888 1.658856,98.32716 -1.347693,107.89011 -2.838822,9.02945 -5.305466,21.25978 -7.339673,36.39212 -0.810119,6.02639 -2.733556,9.82453 -4.975336,9.82453 -2.010052,0 -3.654628,1.1375 -3.654628,2.5277 0,3.8511 -9.870138,8.4375 -11.719223,5.4456 z m 85.706077,-2.698 c -1.78753,-2.8623 -3.25008,-7.5085 -3.25008,-10.32488 0,-2.81639 -0.99901,-5.73811 -2.22001,-6.49273 -3.38589,-2.09261 -6.56634,-50.00727 -6.7099,-101.08733 -0.11635,-41.40439 0.30793,-45.90681 4.40056,-46.69497 4.12196,-0.79383 4.55942,2.73848 4.8637,39.273 0.18391,22.07988 0.78639,42.50316 1.33884,45.38503 0.55246,2.88187 2.04471,16.43975 3.3161,30.12862 1.27141,13.68888 3.38385,28.42571 4.69431,32.74851 2.19244,7.23226 2.34081,9.59045 1.19495,18.99415 -0.58873,4.8317 -3.93458,3.9855 -7.62847,-1.9294 z m 26.9331,-6.2925 c -8.49681,-8.49681 -9.58398,-16.89049 -8.68667,-67.06635 0.68331,-38.20879 1.28675,-43.29348 5.22792,-44.0502 3.75028,-0.72008 4.57956,1.75828 5.23976,15.65965 0.64832,13.65175 1.62747,16.67585 5.64738,17.44212 9.15397,1.74487 11.98112,-5.44506 12.10456,-30.78418 0.0394,-8.04546 -0.37705,-19.34393 -0.92499,-25.10767 l -0.99627,-10.47953 -17.58008,-0.77995 c -14.53654,-0.64494 -17.31306,-1.47579 -16.03778,-4.79908 0.84824,-2.2105 1.54228,-4.51215 1.54228,-5.11477 0,-0.6026 6.94752,-1.09566 15.43898,-1.09566 10.06731,0 15.88338,-1.15812 16.71628,-3.32858 0.70251,-1.83072 1.47192,-16.43375 1.7098,-32.45118 0.59154,-39.8301 2.22077,-48.05641 9.51759,-48.05641 3.12462,0 3.77519,6.99778 3.77519,40.60815 0,30.60783 0.80648,40.66913 3.27486,40.85586 1.80115,0.13616 11.2464,0.54289 20.98942,0.90366 19.55755,0.72422 21.15088,1.3739 18.74512,7.64323 -1.32521,3.45341 -5.46429,4.30479 -20.92855,4.30479 -15.77042,0 -19.67848,0.83391 -21.486,4.5848 -2.67215,5.54514 -2.3821,55.90082 0.34742,60.31732 2.30315,3.7266 15.2659,3.29193 18.01175,-0.60396 1.05862,-1.50203 1.94282,-9.5099 1.96492,-17.79528 0.0297,-11.11048 0.99796,-15.06431 3.68963,-15.06431 2.00724,0 4.37913,1.9013 5.27086,4.22513 2.60834,6.79728 1.49066,97.6833 -1.22195,99.35978 -1.35227,0.83574 -2.45868,3.61863 -2.45868,6.18415 0,7.08337 -11.24326,10.74547 -32.99087,10.74547 -17.21634,0 -20.41842,-0.7735 -25.90188,-6.257 z m 48.2132,-15.48591 c 3.4442,-9.05892 6.2332,-39.74697 4.19571,-46.16648 -1.68463,-5.30783 -3.19835,-5.59442 -25.81659,-4.88789 l -24.027,0.75054 -0.75677,24.49777 c -0.48843,15.81093 0.32208,25.79768 2.28571,28.16372 2.10567,2.53717 9.01375,3.66594 22.43564,3.66594 17.8237,0 19.57846,-0.48748 21.6833,-6.0236 z M 64.517887,784.81397 c -0.811692,-2.11523 -0.289497,-4.57907 1.160424,-5.47516 2.070491,-1.27964 59.704449,-2.32638 75.076369,-1.36356 1.80117,0.11287 3.27485,2.56303 3.27485,5.4449 0,5.00521 -1.7466,5.23976 -39.01791,5.23976 -31.887452,0 -39.287618,-0.70283 -40.493733,-3.84594 z"
       id="path3171"
       inkscape:connector-curvature="0" />
  </g>
</svg>
