<?xml version="1.0" encoding="UTF-8" standalone="no"?>
<!-- Created with Inkscape (http://www.inkscape.org/) -->

<svg
   xmlns:dc="http://purl.org/dc/elements/1.1/"
   xmlns:cc="http://creativecommons.org/ns#"
   xmlns:rdf="http://www.w3.org/1999/02/22-rdf-syntax-ns#"
   xmlns:svg="http://www.w3.org/2000/svg"
   xmlns="http://www.w3.org/2000/svg"
   xmlns:sodipodi="http://sodipodi.sourceforge.net/DTD/sodipodi-0.dtd"
   xmlns:inkscape="http://www.inkscape.org/namespaces/inkscape"
   width="300"
   height="300"
   viewBox="0 0 300 300"
   id="svg2"
   version="1.1"
   inkscape:version="0.91 r13725"
   sodipodi:docname="神-seal.svg">
  <defs
     id="defs4">
    <clipPath
       clipPathUnits="userSpaceOnUse"
       id="clipPath4204">
      <rect
         style="fill:#0000ff;fill-rule:evenodd;stroke:#000000;stroke-width:1px;stroke-linecap:butt;stroke-linejoin:miter;stroke-opacity:1"
         id="rect4206"
         width="15.451179"
         height="21.584471"
         x="164.41942"
         y="794.64594" />
    </clipPath>
  </defs>
  <sodipodi:namedview
     id="base"
     pagecolor="#ffffff"
     bordercolor="#666666"
     borderopacity="1.0"
     inkscape:pageopacity="0.0"
     inkscape:pageshadow="2"
     inkscape:zoom="1.71"
     inkscape:cx="150"
     inkscape:cy="150"
     inkscape:document-units="px"
     inkscape:current-layer="layer1"
     showgrid="false"
     inkscape:window-width="1280"
     inkscape:window-height="751"
     inkscape:window-x="0"
     inkscape:window-y="1"
     inkscape:window-maximized="1"
     units="px"
     showguides="false" />
  <metadata
     id="metadata7">
    <rdf:RDF>
      <cc:Work
         rdf:about="">
        <dc:format>image/svg+xml</dc:format>
        <dc:type
           rdf:resource="http://purl.org/dc/dcmitype/StillImage" />
        <dc:title></dc:title>
      </cc:Work>
    </rdf:RDF>
  </metadata>
  <g
     inkscape:label="Layer 1"
     inkscape:groupmode="layer"
     id="layer1"
     transform="translate(0,-752.36216)">
    <path
       style="fill:#000000"
       d="m 153.82392,1035.3823 c -0.79403,-1.2848 -1.29885,-16.6868 -1.12185,-34.2268 2.40392,-39.85092 -3.99957,-61.95812 5.38464,-101.1666 3.98682,-13.28502 7.37807,-15.49571 26.51157,-17.28243 21.0012,-1.96111 30.00483,-7.32184 32.10627,-19.11597 0.89082,-4.99959 2.29821,-28.42283 3.12757,-52.05162 0.82936,-23.62879 1.87785,-43.38622 2.32998,-43.90542 0.45215,-0.51918 2.57695,-0.27058 4.72179,0.55248 3.23188,1.24017 3.89971,6.99855 3.89971,33.62569 0,17.67108 -1.29974,42.264 -2.8883,54.65092 -3.3679,26.26159 -7.55055,32.1542 -22.82339,32.1542 -11.33565,0 -32.50452,5.16639 -36.46021,8.89835 -5.35213,5.04939 -7.49677,55.16537 -4.97243,116.1953 0.64025,15.4792 -5.40005,28.816 -9.81535,21.6719 z m -53.44166,-21.0402 c 0.84088,-7.2971 2.2302,-38.28619 3.08739,-68.86462 -0.0103,-34.31094 0.73446,-70.18917 0.95678,-100.80413 l 0,-31.63996 -17.032088,-0.74725 c -14.37952,-0.63088 -17.17442,-1.49319 -17.94601,-5.53685 -0.79228,-4.15222 0.17109,-4.57259 7.23941,-3.15893 4.48434,0.89686 22.79496,1.63067 40.690298,1.63067 27.237,0 32.53697,0.61748 32.53697,3.79071 0,4.00719 -4.54466,4.82419 -21.83709,3.92579 -5.75572,-0.29904 -11.18769,0.62575 -12.07106,2.05505 -0.88336,1.42933 -1.73688,12.92576 -1.89667,25.54767 -1.16814,45.47932 0.2054,97.97573 -2.38698,137.15831 0.30126,4.68112 0.36668,8.57171 0.46656,27.73654 0.0708,13.572 -3.56636,22.1745 -9.37523,22.1745 -3.287918,0 -3.701328,-2.2549 -2.43233,-13.2675 z M 72.837132,999.81106 c -0.85902,-1.38993 -0.88541,-3.62168 -0.0586,-4.95942 3.08193,-4.98666 6.28372,-58.77443 6.81273,-114.4481 0.52056,-54.78943 0.77403,-57.49251 5.39113,-57.49251 4.68024,0 4.7926,1.99659 3.30709,58.75608 -2.1064,80.48307 -3.83908,108.30583 -7.16076,114.98502 -3.0471,6.12717 -5.80722,7.17867 -8.29156,3.15893 z m 56.860738,-89.5283 c 0,-83.15982 0.10032,-84.84459 5.05428,-84.84459 4.81805,0 5.06235,1.74227 5.22682,37.27537 0.0948,20.50145 -0.0513,46.94168 -0.32492,58.75608 -0.27359,11.81439 -0.63552,32.83737 -0.80431,46.71773 -0.26608,21.88162 -0.89486,25.3502 -4.72937,26.08851 -4.14101,0.79731 -4.4225,-4.54909 -4.4225,-83.9931 z m 47.24408,75.2344 c -9.50234,-2.69391 -2.02786,-7.23802 14.23136,-8.65191 9.2663,-0.8058 17.58505,-2.2023 18.4861,-3.10335 0.90108,-0.90106 2.19778,-7.46096 2.8816,-14.57755 l 1.2433,-12.93925 -19.29893,1.80845 c -18.54049,1.73738 -19.29894,1.59816 -19.29894,-3.54273 0,-4.92555 1.36694,-5.3512 17.18458,-5.3512 19.56914,0 23.24972,-2.32164 23.24972,-14.66547 l 0,-8.60032 -19.54354,0.89254 c -17.02107,0.77734 -19.65438,0.32173 -20.40244,-3.52997 -0.89089,-4.58707 0.35327,-4.8481 25.9779,-5.45019 8.33715,-0.19585 10.61051,-1.41444 13.40538,-7.18553 4.08445,-8.43393 7.55444,-8.85546 10.4018,-1.26357 3.5171,9.3776 0.55211,65.05436 -4.03739,75.8143 -3.59804,8.4355 -5.0413,9.47985 -13.13515,9.50461 -5.00114,0.0152 -13.07324,0.50182 -17.938,1.08119 -4.86475,0.57937 -10.89805,0.47134 -13.40735,-0.24008 z M 160.27329,851.71665 c -4.10792,-5.2224 -4.95727,-9.25006 -4.13016,-19.58536 0.5727,-7.15604 1.80079,-23.53021 2.72914,-36.38705 1.70175,-23.56827 4.31606,-28.67497 8.73275,-17.05822 1.32111,3.47482 3.28311,6.42764 4.35995,6.5618 2.95499,0.36821 26.44089,1.85417 32.91541,2.0826 3.35066,0.11827 5.68607,1.80054 5.68607,4.09599 0,3.2208 -3.21976,3.77174 -18.59232,3.18145 -19.82119,-0.7611 -26.89626,2.09942 -26.89626,10.87445 0,4.80293 7.83516,8.18003 16.7844,7.23437 13.41426,-1.41744 23.64989,0.26027 23.64989,3.87649 0,2.08489 -0.2843,3.86832 -0.63178,3.96319 -0.34748,0.0948 -8.59229,0.7937 -18.32179,1.55296 -18.66631,1.45664 -21.37963,3.17303 -21.44203,13.56378 -0.0601,10.0059 4.48394,12.50936 22.7056,12.50936 15.35184,0 22.74429,2.62843 22.74429,8.08686 0,1.11194 -10.15239,2.02171 -22.56087,2.02171 -21.28969,0 -22.85225,-0.37042 -27.73229,-6.57438 z m -71.785788,-73.7614 c -2.66727,-0.56009 -4.22098,-2.70981 -3.73544,-5.16839 0.64634,-3.27278 3.34945,-4.09751 12.1482,-3.70649 6.224278,0.2766 19.079208,0.54663 28.566508,0.60005 15.08649,0.0849 17.14209,0.65569 16.39204,4.55136 -0.74533,3.87103 -3.99663,4.46918 -24.83106,4.56834 -13.18542,0.0627 -26.028518,-0.31746 -28.540248,-0.84487 z"
       id="path4193"
       inkscape:connector-curvature="0"
       sodipodi:nodetypes="sccssscsssssssccccsssssscccssccccssssccssssssscssscsssscsssssscsccssssccssssscsssssssssssss" />
  </g>
</svg>
