<?xml version="1.0" encoding="UTF-8" standalone="no"?>
<svg
   xmlns:dc="http://purl.org/dc/elements/1.1/"
   xmlns:cc="http://creativecommons.org/ns#"
   xmlns:rdf="http://www.w3.org/1999/02/22-rdf-syntax-ns#"
   xmlns:svg="http://www.w3.org/2000/svg"
   xmlns="http://www.w3.org/2000/svg"
   viewBox="0 0 300 300"
   height="300"
   width="300"
   id="svg2"
   version="1.1">
  <metadata
     id="metadata8">
    <rdf:RDF>
      <cc:Work
         rdf:about="">
        <dc:format>image/svg+xml</dc:format>
        <dc:type
           rdf:resource="http://purl.org/dc/dcmitype/StillImage" />
        <dc:title></dc:title>
      </cc:Work>
    </rdf:RDF>
  </metadata>
  <defs
     id="defs6" />
  <path
     id="path12"
     d="m 142.85939,283.10455 c -1.60713,-4.2271 -1.46957,-12.74577 0.42792,-26.49938 1.30567,-9.46386 2.02336,-18.4786 2.39847,-30.12642 0.81303,-25.2462 0.97837,-59.867 0.36733,-76.92005 -0.58297,-16.26978 -0.17766,-21.04565 2.47495,-29.16255 1.51815,-4.64547 3.67501,-6.82571 9.12225,-9.22112 4.3678,-1.92074 17.10289,-4.16313 23.64345,-4.16313 h 5.75121 l 0.84448,-9.365571 c 0.46446,-5.15107 0.66008,-10.21542 0.4347,-11.25412 -0.22538,-1.0387 -0.10972,-6.71916 0.25703,-12.62325 1.11525,-17.95463 4.11536,-24.56599 12.39556,-27.31623 2.82305,-0.93767 5.60265,-1.12324 14.21541,-0.94904 5.88841,0.1191 10.93317,-0.007 11.21057,-0.28012 0.27741,-0.27316 -0.0827,-3.70134 -0.80027,-7.61817 l -1.30464,-7.12152 -4.73061,-1.5806 c -7.61812,-2.54538 -14.54006,-3.18685 -25.08939,-2.32512 -5.0745,0.41451 -11.43507,1.25602 -14.13458,1.87001 -4.83293,1.09922 -4.93463,1.16848 -6.63043,4.51498 -0.94722,1.86924 -2.39007,5.97175 -3.20633,9.11669 -1.36305,5.25164 -1.49281,7.63883 -1.59078,29.26516 -0.12448,27.47786 -0.14272,27.57428 -5.28313,27.90895 -1.99429,0.12983 -3.43576,-0.12728 -3.88299,-0.69257 -1.10823,-1.4008 -3.00591,-11.98365 -3.45219,-19.25193 -0.71931,-11.71466 1.81009,-32.65814 5.6807,-47.03638 2.54258,-9.44494 2.7474,-9.74601 8.64622,-12.70897 8.07065,-4.05384 13.69746,-4.82563 32.78147,-4.49634 14.39756,0.24841 16.47431,0.43355 20.23598,1.80399 10.22881,3.72654 12.54044,8.22864 15.26935,29.73842 1.81373,14.29618 1.61921,48.10576 -0.29459,51.20236 -0.27141,0.43915 -2.09868,1.01138 -4.06061,1.27164 l -3.56712,0.4732 -1.61408,-3.02521 c -1.55573,-2.91583 -1.62216,-3.6949 -1.83748,-21.55121 l -0.2234,-18.52602 -3.93197,0.003 c -2.16259,0.002 -7.41971,0.20412 -11.68251,0.44976 l -7.75055,0.44661 -1.40521,3.26649 c -2.28596,5.31389 -2.88311,11.79688 -2.67831,29.07696 l 0.19289,16.275201 4.2017,0.83165 c 2.31093,0.45743 8.59323,1.11492 13.96065,1.46111 9.26024,0.59728 9.9834,0.75196 14.15118,3.02677 3.50827,1.91485 4.84908,3.15399 6.66227,6.15707 1.24852,2.06786 2.64519,5.00636 3.10371,6.52999 0.62787,2.08635 0.77969,16.36271 0.61493,57.82888 l -0.21878,55.05863 2.24719,13.15867 c 2.42145,14.17905 2.96457,25.92624 1.44525,31.25902 -0.86082,3.02146 -1.94556,3.68758 -6.03487,3.70588 -2.08264,0.01 -2.13481,-0.0783 -3.62841,-6.09245 -2.05099,-8.2585 -4.10883,-20.95961 -4.95844,-30.60386 -1.39249,-15.80644 -2.27129,-50.73692 -1.74238,-69.25613 0.28828,-10.09409 0.5427,-25.36507 0.56538,-33.93551 0.0364,-13.77803 -0.11558,-16.02063 -1.31285,-19.36469 -1.0323,-2.88331 -1.93008,-4.11761 -3.77804,-5.19421 -2.32223,-1.35289 -3.49947,-1.4115 -28.04874,-1.39654 -21.67878,0.0133 -26.41727,0.19813 -30.77124,1.20087 -2.83055,0.65189 -5.40488,1.57982 -5.72072,2.06206 -0.31583,0.48225 -1.27227,3.05839 -2.12541,5.72475 -1.36953,4.2802 -1.55119,6.30779 -1.55119,17.31403 0,8.00294 0.37194,14.57372 1.03884,18.35288 0.79727,4.51783 1.03028,11.52357 1.002,30.12642 -0.0354,23.27766 -0.56148,33.17981 -2.72283,51.24955 -0.54674,4.57091 -1.29059,13.45567 -1.653,19.74391 -0.7146,12.39925 -1.70879,16.30267 -4.7644,18.70622 -0.95973,0.75491 -2.80049,1.37215 -4.09213,1.37215 -1.92121,0 -2.47864,-0.34437 -3.06844,-1.89564 z m -49.331212,-7.89379 c -2.80338,-4.37046 -2.79058,-3.83239 -2.59695,-109.14896 l 0.18621,-101.278071 -1.97339,-0.79236 c -2.34292,-0.94073 -9.27427,-1.05385 -20.67255,-0.33737 -7.74344,0.48675 -8.46713,0.42335 -10.60184,-0.92868 -1.28681,-0.81501 -2.8727,-2.73501 -3.61793,-4.38016 l -1.32684,-2.92907 3.61793,-1.73141 3.61794,-1.7314 h 38.43716 c 41.480562,0 42.341912,0.0713 43.689632,3.61604 0.34887,0.91759 0.63429,2.53366 0.63429,3.59129 0,1.75613 -0.37549,2.0376 -4.3285,3.24458 -4.55945,1.39214 -9.66145,1.58159 -25.91946,0.96243 -4.63776,-0.17661 -8.62386,-0.12955 -8.85802,0.1046 -0.23414,0.23415 -0.64692,47.516191 -0.91729,105.071221 -0.49047,104.41054 -0.49477,104.64869 -1.91809,106.07163 -0.78459,0.78438 -2.545942,1.6078 -3.914132,1.82983 -2.09832,0.34051 -2.65201,0.14737 -3.53817,-1.23414 z m -33.55696,-28.82087 c -1.48821,-3.33856 -1.44473,-16.00052 0.10074,-29.34119 0.60084,-5.18653 2.06839,-28.40466 3.26121,-51.59583 1.86034,-36.16951 2.11066,-45.18397 1.76025,-63.38976 l -0.40851,-21.223981 1.69578,-1.11111 c 2.40709,-1.57719 3.26451,-1.40661 5.72894,1.13969 4.30372,4.44674 4.53109,5.74176 4.89414,27.875601 0.78562,47.89463 0.0859,69.31533 -3.0313,92.80323 -2.55254,19.23297 -5.84726,44.73397 -5.84726,45.25753 0,0.56851 -4.56726,2.18293 -6.1756,2.18293 -0.45138,0 -1.34165,-1.1687 -1.97839,-2.59711 z m 66.254322,-2.33044 c -1.54363,-0.56646 -2.02133,-1.48993 -3.28562,-6.35152 -3.37247,-12.96818 -4.51356,-20.91177 -5.99043,-41.70188 -0.56822,-7.99909 -1.49338,-18.59527 -2.0559,-23.54709 -1.36665,-12.03052 -2.81697,-45.93222 -2.68132,-62.67681 0.11443,-14.126901 1.49913,-26.008521 3.36247,-28.852331 1.81152,-2.76474 3.80025,-2.77509 6.31332,-0.0328 3.57757,3.90381 3.95121,6.48367 3.48979,24.095701 -0.62216,23.74671 2.19452,81.4167 5.37541,110.05883 1.33252,11.99863 2.59813,23.06812 2.81244,24.59887 0.35419,2.52973 0.20481,2.89239 -1.64014,3.98223 -2.25632,1.33284 -3.06596,1.39347 -5.70002,0.42686 z m 62.75164,-1.58048 c -0.38091,-0.13974 -2.59637,-0.79437 -4.92324,-1.45471 -3.92883,-1.11496 -4.39108,-1.46527 -6.47865,-4.90974 -2.9542,-4.87441 -5.41526,-11.05586 -6.68029,-16.77892 -2.13918,-9.67765 -1.87034,-40.55595 0.45242,-51.96583 0.3607,-1.77185 0.82624,-8.83129 1.03452,-15.68766 0.46291,-15.23811 1.21351,-19.70038 3.71736,-22.09922 1.82088,-1.74451 1.87267,-1.75153 4.19501,-0.56825 5.1797,2.63918 6.12579,6.99738 3.88979,17.91848 -0.67635,3.30343 -1.07029,7.89348 -0.95102,11.08099 l 0.20361,5.44155 11.99427,0.1897 11.99429,0.1897 -0.47808,-13.00209 c -0.5193,-14.12336 -0.0675,-17.58039 2.62593,-20.0946 0.86132,-0.80401 2.42468,-1.67493 3.47413,-1.93541 1.78734,-0.44362 2.02116,-0.22658 3.69516,3.42993 1.58478,3.46161 1.85816,5.25389 2.41486,15.83174 0.34527,6.56053 0.93593,13.64231 1.31258,15.73731 1.15465,6.42231 2.21678,26.9627 1.77268,34.2818 -0.86332,14.22859 -2.4543,23.80026 -5.62742,33.8557 -1.43788,4.55658 -3.39094,6.27644 -10.06027,8.859 -3.40213,1.31742 -15.43235,2.46757 -17.57764,1.68053 z m 13.55128,-12.92408 c 1.35866,-0.68393 2.79542,-1.65584 3.19279,-2.15982 0.86911,-1.10226 2.64631,-11.81924 3.75722,-22.65695 0.88227,-8.6073 0.52357,-20.26089 -0.81971,-26.63066 l -0.85353,-4.04736 -9.41402,0.43776 c -5.17772,0.24076 -10.85973,0.60621 -12.6267,0.81209 l -3.21268,0.37433 -0.48639,18.12534 c -0.54366,20.2594 0.01,25.18731 3.62949,32.32285 1.73365,3.41747 2.25093,3.89316 5.03125,4.62678 3.71005,0.97895 8.4197,0.49836 11.80228,-1.20436 z M 75.743388,35.248139 c -0.95227,-0.14627 -3.99089,-0.62093 -6.75248,-1.05482 l -5.02106,-0.78886 -0.11543,-2.326 c -0.0635,-1.2793 -0.1414,-2.82074 -0.17315,-3.42543 -0.0365,-0.69622 1.33928,-1.70201 3.75138,-2.74244 3.7829,-1.63169 3.99046,-1.64318 30.19622,-1.6708 17.962032,-0.019 27.138782,0.22394 28.741292,0.76068 3.71801,1.2453 5.47071,3.22489 5.47071,6.17893 0,2.27929 -0.29434,2.71691 -2.59711,3.86151 -2.37547,1.18072 -4.69529,1.29867 -27.18304,1.38203 -13.522262,0.0502 -25.365062,-0.0285 -26.317332,-0.1748 z"
     style="fill:#000000;stroke-width:0.69256145" />
</svg>
