<?xml version="1.0" encoding="UTF-8" standalone="no"?>
<!-- Created with Inkscape (http://www.inkscape.org/) -->

<svg
   xmlns:dc="http://purl.org/dc/elements/1.1/"
   xmlns:cc="http://creativecommons.org/ns#"
   xmlns:rdf="http://www.w3.org/1999/02/22-rdf-syntax-ns#"
   xmlns:svg="http://www.w3.org/2000/svg"
   xmlns="http://www.w3.org/2000/svg"
   xmlns:sodipodi="http://sodipodi.sourceforge.net/DTD/sodipodi-0.dtd"
   xmlns:inkscape="http://www.inkscape.org/namespaces/inkscape"
   width="300"
   height="300"
   id="svg2"
   version="1.1"
   inkscape:version="0.47 r22583"
   sodipodi:docname="ä¹-oracle.svg">
  <defs
     id="defs4">
    <inkscape:perspective
       sodipodi:type="inkscape:persp3d"
       inkscape:vp_x="0 : 526.18109 : 1"
       inkscape:vp_y="0 : 1000 : 0"
       inkscape:vp_z="744.09448 : 526.18109 : 1"
       inkscape:persp3d-origin="372.04724 : 350.78739 : 1"
       id="perspective10" />
    <inkscape:perspective
       id="perspective2824"
       inkscape:persp3d-origin="0.5 : 0.33333333 : 1"
       inkscape:vp_z="1 : 0.5 : 1"
       inkscape:vp_y="0 : 1000 : 0"
       inkscape:vp_x="0 : 0.5 : 1"
       sodipodi:type="inkscape:persp3d" />
    <inkscape:perspective
       id="perspective2884"
       inkscape:persp3d-origin="0.5 : 0.33333333 : 1"
       inkscape:vp_z="1 : 0.5 : 1"
       inkscape:vp_y="0 : 1000 : 0"
       inkscape:vp_x="0 : 0.5 : 1"
       sodipodi:type="inkscape:persp3d" />
    <inkscape:perspective
       id="perspective2923"
       inkscape:persp3d-origin="0.5 : 0.33333333 : 1"
       inkscape:vp_z="1 : 0.5 : 1"
       inkscape:vp_y="0 : 1000 : 0"
       inkscape:vp_x="0 : 0.5 : 1"
       sodipodi:type="inkscape:persp3d" />
    <inkscape:perspective
       id="perspective2962"
       inkscape:persp3d-origin="0.5 : 0.33333333 : 1"
       inkscape:vp_z="1 : 0.5 : 1"
       inkscape:vp_y="0 : 1000 : 0"
       inkscape:vp_x="0 : 0.5 : 1"
       sodipodi:type="inkscape:persp3d" />
    <inkscape:perspective
       id="perspective2999"
       inkscape:persp3d-origin="0.5 : 0.33333333 : 1"
       inkscape:vp_z="1 : 0.5 : 1"
       inkscape:vp_y="0 : 1000 : 0"
       inkscape:vp_x="0 : 0.5 : 1"
       sodipodi:type="inkscape:persp3d" />
    <inkscape:perspective
       id="perspective3026"
       inkscape:persp3d-origin="0.5 : 0.33333333 : 1"
       inkscape:vp_z="1 : 0.5 : 1"
       inkscape:vp_y="0 : 1000 : 0"
       inkscape:vp_x="0 : 0.5 : 1"
       sodipodi:type="inkscape:persp3d" />
    <inkscape:perspective
       id="perspective3066"
       inkscape:persp3d-origin="0.5 : 0.33333333 : 1"
       inkscape:vp_z="1 : 0.5 : 1"
       inkscape:vp_y="0 : 1000 : 0"
       inkscape:vp_x="0 : 0.5 : 1"
       sodipodi:type="inkscape:persp3d" />
    <inkscape:perspective
       id="perspective3105"
       inkscape:persp3d-origin="0.5 : 0.33333333 : 1"
       inkscape:vp_z="1 : 0.5 : 1"
       inkscape:vp_y="0 : 1000 : 0"
       inkscape:vp_x="0 : 0.5 : 1"
       sodipodi:type="inkscape:persp3d" />
    <inkscape:perspective
       id="perspective3142"
       inkscape:persp3d-origin="0.5 : 0.33333333 : 1"
       inkscape:vp_z="1 : 0.5 : 1"
       inkscape:vp_y="0 : 1000 : 0"
       inkscape:vp_x="0 : 0.5 : 1"
       sodipodi:type="inkscape:persp3d" />
    <inkscape:perspective
       id="perspective3181"
       inkscape:persp3d-origin="0.5 : 0.33333333 : 1"
       inkscape:vp_z="1 : 0.5 : 1"
       inkscape:vp_y="0 : 1000 : 0"
       inkscape:vp_x="0 : 0.5 : 1"
       sodipodi:type="inkscape:persp3d" />
    <inkscape:perspective
       id="perspective3218"
       inkscape:persp3d-origin="0.5 : 0.33333333 : 1"
       inkscape:vp_z="1 : 0.5 : 1"
       inkscape:vp_y="0 : 1000 : 0"
       inkscape:vp_x="0 : 0.5 : 1"
       sodipodi:type="inkscape:persp3d" />
    <inkscape:perspective
       id="perspective3255"
       inkscape:persp3d-origin="0.5 : 0.33333333 : 1"
       inkscape:vp_z="1 : 0.5 : 1"
       inkscape:vp_y="0 : 1000 : 0"
       inkscape:vp_x="0 : 0.5 : 1"
       sodipodi:type="inkscape:persp3d" />
    <inkscape:perspective
       id="perspective3292"
       inkscape:persp3d-origin="0.5 : 0.33333333 : 1"
       inkscape:vp_z="1 : 0.5 : 1"
       inkscape:vp_y="0 : 1000 : 0"
       inkscape:vp_x="0 : 0.5 : 1"
       sodipodi:type="inkscape:persp3d" />
    <inkscape:perspective
       id="perspective3329"
       inkscape:persp3d-origin="0.5 : 0.33333333 : 1"
       inkscape:vp_z="1 : 0.5 : 1"
       inkscape:vp_y="0 : 1000 : 0"
       inkscape:vp_x="0 : 0.5 : 1"
       sodipodi:type="inkscape:persp3d" />
    <inkscape:perspective
       id="perspective3366"
       inkscape:persp3d-origin="0.5 : 0.33333333 : 1"
       inkscape:vp_z="1 : 0.5 : 1"
       inkscape:vp_y="0 : 1000 : 0"
       inkscape:vp_x="0 : 0.5 : 1"
       sodipodi:type="inkscape:persp3d" />
  </defs>
  <sodipodi:namedview
     id="base"
     pagecolor="#ffffff"
     bordercolor="#666666"
     borderopacity="1.0"
     inkscape:pageopacity="0.0"
     inkscape:pageshadow="2"
     inkscape:zoom="0.7"
     inkscape:cx="348.74647"
     inkscape:cy="54.417264"
     inkscape:document-units="px"
     inkscape:current-layer="layer1"
     showgrid="false"
     inkscape:window-width="1280"
     inkscape:window-height="950"
     inkscape:window-x="0"
     inkscape:window-y="25"
     inkscape:window-maximized="1" />
  <metadata
     id="metadata7">
    <rdf:RDF>
      <cc:Work
         rdf:about="">
        <dc:format>image/svg+xml</dc:format>
        <dc:type
           rdf:resource="http://purl.org/dc/dcmitype/StillImage" />
        <dc:title></dc:title>
      </cc:Work>
    </rdf:RDF>
  </metadata>
  <g
     inkscape:label="Calque 1"
     inkscape:groupmode="layer"
     id="layer1"
     transform="translate(0,-752.36218)">
    <path
       style="fill:#000000"
       d="m 240.07176,1033.3275 c -6.3786,-4.7234 -11.34499,-11.4814 -12.82133,-17.4465 -1.32538,-5.3551 -3.88032,-14.6658 -5.67763,-20.69029 -8.64945,-28.99264 -8.69605,-49.081 -0.17922,-77.2557 5.29847,-17.528 2.48318,-21.76406 -15.44273,-23.23602 -8.52791,-0.70026 -23.11225,-0.70124 -32.40965,-0.002 -16.19592,1.21776 -17.07331,1.66537 -20.93549,10.68062 -5.93579,23.93061 -21.30916,31.17653 -22.37571,59.38638 0,0 -3.67151,10.53549 -0.0324,14.89621 2.77578,3.3262 12.79139,4.44432 12.79139,4.44432 19.72579,3.54914 23.786,0.35395 24.89947,-19.59464 1.12648,-20.18179 7.58559,-31.28695 21.17517,-36.40652 12.8951,-4.85794 21.83236,-1.10985 15.35918,6.44132 -2.19744,2.56339 -5.71611,4.66072 -7.81925,4.66072 -9.24098,0 -14.61626,11.95149 -14.61626,32.49806 3.90955,17.79599 3.84544,20.73336 -12.13479,24.69358 -15.29288,5.28676 -31.39296,3.61176 -46.62209,-4.85051 -6.24684,-3.47114 -12.34435,-9.17447 -13.55001,-12.67405 -2.02234,-5.87006 3.2078,-26.2215 8.94298,-34.79878 13.92743,-20.82924 21.54048,-46.24888 13.8513,-46.24888 -6.52695,1.42156 -37.927059,4.23441 -35.36976,11.7163 3.10957,5.01985 3.12187,11.59064 0.06008,32.09843 -2.48105,34.12239 -23.551213,47.91177 -39.070081,72.29375 -5.834322,9.9684 -17.436037,14.9162 -24.690824,10.5299 -4.52272,-2.7345 -3.74396,-4.4505 6.518225,-14.3633 18.904705,-18.60057 32.335891,-41.23253 38.325315,-66.84045 3.190211,-14.91741 3.199647,-20.61585 0.04334,-26.16713 -3.99118,-7.0196 -14.075891,-9.59467 -18.260029,-4.66259 -1.13576,1.33878 -7.34903,2.43415 -13.807267,2.43415 -16.095036,0 -13.992219,-6.59207 3.783457,-11.86066 26.776085,-7.93626 26.717252,-7.87341 18.437886,-19.69635 -7.526948,-10.74848 -5.800659,-16.14367 4.265094,-13.32973 8.313346,4.26049 14.01449,12.83589 17.86448,20.90438 6.369668,7.18897 38.645344,-0.0762 47.716734,-4.06206 3.23212,-2.35721 5.83166,-78.24439 2.75702,-80.4843 -0.76562,-0.55776 -12.84815,-0.30862 -26.85008,0.55365 -25.026102,1.54115 -25.551907,1.71184 -30.989914,10.0604 -5.120647,7.86133 -5.045538,23.08878 0.132481,26.86103 1.032579,0.75225 11.025195,2.1535 22.205813,3.11389 22.29314,1.91495 27.64279,4.17953 24.40302,10.33015 -4.28263,8.13045 -54.195567,2.98608 -63.343476,-6.52861 -6.430583,-6.68842 -6.334734,-29.02074 0.163849,-38.17585 6.612944,-9.31621 17.652116,-13.11572 49.227177,-16.94324 23.29409,-2.82369 25.89484,-3.68562 25.89484,-8.58195 0,-7.43865 9.35222,-13.171 13.56857,-8.31673 1.6695,1.92209 3.05847,5.43508 3.08661,7.80666 0.065,5.4768 8.60832,7.84218 41.38818,11.45912 33.9633,-2.24063 59.44524,31.51237 33.99344,52.49582 -4.7791,3.48162 -12.09881,5.9804 -17.54167,5.98831 -12.95481,-1.64241 -28.35932,8.73807 -40.24515,1.6396 -13.02149,-11.21969 32.36789,-10.78107 41.76391,-14.35657 5.7657,-7.6421 6.88741,-25.57973 0,-33.00798 -6.36545,-3.79912 -48.51786,-6.46497 -53.60364,-3.39005 -3.20786,1.9395 -4.06031,11.90202 -3.40899,39.8402 l 0.86851,37.25397 32.58949,0.70335 c 48.41669,1.04493 54.76046,7.13013 41.50398,39.81229 -8.13368,20.05257 -8.63124,34.27118 -1.82432,52.13239 3.02978,7.95007 6.30122,17.74076 7.26988,21.75711 0.96866,4.01638 6.06223,11.88128 11.31905,17.47768 11.04965,11.7633 13.05649,25.2403 3.71064,24.9189 -3.21597,-0.1105 -10.53242,-3.6705 -16.25877,-7.911 l -3e-5,-2e-4 z"
       id="path3372"
       sodipodi:nodetypes="csssssccscssssccsssccccsccssssscccssssssssssssccccccscccssssscc" />
  </g>
</svg>
