<?xml version="1.0" encoding="UTF-8" standalone="no"?>
<svg
   xmlns:dc="http://purl.org/dc/elements/1.1/"
   xmlns:cc="http://creativecommons.org/ns#"
   xmlns:rdf="http://www.w3.org/1999/02/22-rdf-syntax-ns#"
   xmlns:svg="http://www.w3.org/2000/svg"
   xmlns="http://www.w3.org/2000/svg"
   viewBox="0 0 300 300"
   height="300"
   width="300"
   id="svg64"
   version="1.1">
  <metadata
     id="metadata70">
    <rdf:RDF>
      <cc:Work
         rdf:about="">
        <dc:format>image/svg+xml</dc:format>
        <dc:type
           rdf:resource="http://purl.org/dc/dcmitype/StillImage" />
        <dc:title></dc:title>
      </cc:Work>
    </rdf:RDF>
  </metadata>
  <defs
     id="defs68" />
  <path
     id="path74"
     d="m 194.47155,284.49818 c -2.49417,-1.68844 -2.99071,-48.5135 -3.03129,-72.80174 l -0.10946,-65.53228 c -9.34797,3.39794 -14.61617,10.27926 -17.58348,16.39952 -7.74368,15.97175 -9.09006,32.00651 -10.68103,78.05876 -0.91035,26.35088 -0.60551,28.37832 -1.70833,30.60697 -2.13109,4.30662 -7.32517,5.55644 -9.05024,2.17771 -2.53851,-4.97191 -2.13741,-17.34336 -1.83149,-32.09082 0.63267,-30.4997 1.53738,-64.23772 9.42235,-81.87938 8.24135,-18.43903 16.75665,-22.48065 31.44431,-26.1939 l 0.0654,-15.26087 c -17.41377,-1.47435 -26.08131,-8.41521 -30.19662,-19.622859 -1.84453,-5.02339 -4.00012,-28.198827 -3.59225,-37.618925 l 0.35299,-8.152805 c -5.88171,0.424362 -17.04737,3.34155 -18.55768,-1.875064 -1.30946,-4.522881 -1.07441,-4.877368 4.06826,-7.467185 6.3627,-3.204207 10.35405,-3.856498 24.65525,-6.575432 9.06882,-1.724158 26.04788,-4.514804 31.28491,3.369439 3.67421,5.531468 4.01275,8.652665 4.43245,38.220898 l 0.38902,27.407293 c 18.44703,-1.12466 21.73387,-14.600886 22.80233,-29.013415 0.48179,-6.964624 0.44412,-26.966553 5.4749,-27.146239 7.03375,-0.251227 6.63447,6.229983 6.52221,16.262959 -0.0859,7.676541 -0.44528,15.165079 -1.69172,21.630016 -1.75549,9.1052 -4.49241,17.722449 -11.4769,23.372649 -5.26896,4.2624 -12.41101,5.99003 -21.62275,7.01738 l -0.008,15.44739 c 33.44116,6.37881 38.55146,42.6191 39.28239,74.77521 l 0.73975,47.38332 c 0.12456,7.97819 -0.43475,19.27784 -4.62091,19.38838 -6.32483,0.16701 -6.23451,-23.33255 -6.65163,-31.3873 -1.92631,-36.40637 -0.28835,-62.12312 -7.84833,-79.62577 -5.39682,-11.06303 -11.31415,-14.08487 -21.02472,-17.34152 l -0.22348,66.61221 c -0.23836,71.0491 -0.29509,69.59379 -3.43957,71.27666 -1.53467,0.82134 -4.88945,0.9215 -5.98664,0.17874 z M 191.56573,80.862174 c 0.20292,-31.538692 0.19054,-31.792109 -1.62746,-33.305073 -0.80249,-0.667833 -2.49232,-1.214241 -3.75518,-1.214241 -2.00779,0 -18.3591,3.231268 -18.85358,3.725751 1.1933,6.98671 2.1673,14.873966 2.58602,21.599973 0.99284,15.947953 1.98431,20.129556 6.45123,26.966377 4.73553,5.400199 8.7722,6.671319 15.0416,6.685539 z M 121.2529,235.57368 c -8.67455,-13.54059 -15.84176,-27.55342 -22.47552,-42.00397 -8.584082,23.12094 -17.519541,40.49641 -29.778618,60.42076 -3.012456,4.89606 -11.008404,11.60697 -12.892256,4.67221 -1.085969,-3.99763 -0.07203,-6.8938 5.298633,-15.25574 8.420276,-13.11008 19.987951,-38.82978 24.424124,-54.30488 4.752973,-16.58023 4.766046,-16.74411 6.680567,-83.78147 0.964536,-33.773432 1.584738,-72.160994 1.584738,-72.160994 -0.0073,-9.853811 0.194279,-11.004224 1.435151,-14.731236 2.275018,-6.83312 10.625891,-1.913684 10.762301,1.529737 l -0.15112,48.752486 c -0.10463,33.753947 -0.19459,52.142887 -0.21551,56.740787 -0.16182,35.57169 1.42256,63.6563 18.19206,92.5968 l 14.67492,25.32573 c 3.18755,5.50101 7.64077,12.94208 3.67672,17.65116 -4.22356,5.01738 -17.83983,-19.54336 -21.21619,-25.45138 z m -65.140058,-58.00537 3.164345,-17.43313 c 4.690161,-25.83921 6.665382,-52.40941 4.162136,-73.534909 -1.265058,-10.67612 -0.982124,-15.099036 0.701756,-20.65599 1.883117,-6.214452 8.085277,-2.033707 8.858471,1.010094 5.502144,28.310486 4.950376,71.013825 -2.679745,104.048275 -3.119511,13.2023 -3.614585,14.66279 -6.182357,16.16102 -7.577407,4.42122 -9.140117,-3.44975 -8.024606,-9.59536 z m 79.200038,8.66155 c -3.92876,-4.2954 -5.62183,-10.32189 -8.01328,-28.52317 -3.08081,-23.44803 -3.5323,-29.92935 -3.50421,-50.30454 0.29508,-8.907129 -0.0234,-48.576119 9.77519,-43.966264 3.97013,1.867785 4.61321,4.029038 4.14461,13.711179 -0.22355,4.619252 -0.98668,19.490206 -1.01866,33.377445 -0.0304,13.1875 0.51615,25.24353 2.00598,38.16205 0.96971,8.40857 6.9887,48.70758 -3.38963,37.5433 z"
     style="fill:#000000;stroke-width:0.69385564" />
</svg>
