<?xml version="1.0" encoding="UTF-8" standalone="no"?>
<!-- Created with Inkscape (http://www.inkscape.org/) -->

<svg
   xmlns:dc="http://purl.org/dc/elements/1.1/"
   xmlns:cc="http://creativecommons.org/ns#"
   xmlns:rdf="http://www.w3.org/1999/02/22-rdf-syntax-ns#"
   xmlns:svg="http://www.w3.org/2000/svg"
   xmlns="http://www.w3.org/2000/svg"
   xmlns:sodipodi="http://sodipodi.sourceforge.net/DTD/sodipodi-0.dtd"
   xmlns:inkscape="http://www.inkscape.org/namespaces/inkscape"
   width="300"
   height="300"
   viewBox="0 0 300 300"
   id="svg2"
   version="1.1"
   inkscape:version="0.91 r13725"
   sodipodi:docname="科-seal.svg">
  <defs
     id="defs4" />
  <sodipodi:namedview
     id="base"
     pagecolor="#ffffff"
     bordercolor="#666666"
     borderopacity="1.0"
     inkscape:pageopacity="0.0"
     inkscape:pageshadow="2"
     inkscape:zoom="1.24"
     inkscape:cx="107.83009"
     inkscape:cy="150"
     inkscape:document-units="px"
     inkscape:current-layer="layer1"
     showgrid="false"
     units="px"
     inkscape:window-width="1129"
     inkscape:window-height="625"
     inkscape:window-x="29"
     inkscape:window-y="13"
     inkscape:window-maximized="0" />
  <metadata
     id="metadata7">
    <rdf:RDF>
      <cc:Work
         rdf:about="">
        <dc:format>image/svg+xml</dc:format>
        <dc:type
           rdf:resource="http://purl.org/dc/dcmitype/StillImage" />
        <dc:title></dc:title>
      </cc:Work>
    </rdf:RDF>
  </metadata>
  <g
     inkscape:label="Layer 1"
     inkscape:groupmode="layer"
     id="layer1"
     transform="translate(0,-752.36216)">
    <path
       style="fill:#000000"
       d="m 212.89359,991.48216 0,-44.41562 -8.06321,-4.43853 c -18.61937,-10.24934 -26.71323,-22.74564 -29.03295,-44.82463 -0.5798,-5.51841 -2.2019,-6.63892 -10.61415,-7.33204 -7.6687,-0.63185 -9.74032,-1.81845 -9.09778,-5.21111 0.56804,-2.99927 3.92169,-4.64932 10.57084,-5.20102 7.98297,-0.66237 10.04307,-2.02021 11.42624,-7.53118 2.73746,-10.9069 -1.85984,-19.70305 -11.61955,-22.23204 -11.00725,-2.85227 -9.54515,-7.32722 3.59197,-10.99367 9.05895,-2.52828 10.36854,-3.89843 11.11252,-11.62635 0.46385,-4.81817 0.13666,-11.57606 -0.7271,-15.01752 -1.37493,-5.47814 -2.63618,-6.05728 -10.1299,-4.65145 -5.8838,1.10381 -9.53536,0.42985 -11.68142,-2.15599 -4.61196,-5.55707 0.27853,-8.2462 22.29289,-12.25817 19.6774,-3.58608 29.36605,-9.59017 29.36605,-18.19826 0,-6.94286 4.04178,-8.66604 8.90938,-3.79844 4.88895,4.88895 5.22777,13.92641 0.72655,19.3795 -4.13056,5.00403 -13.71759,10.42221 -18.44125,10.42221 -4.96019,0 -6.82801,5.78273 -6.82801,21.13932 0,14.74493 4.79046,18.88478 13.12482,11.34229 3.58694,-3.24613 5.11406,-8.0088 5.11406,-15.94933 0,-8.26149 1.04286,-11.32117 3.8587,-11.32117 6.80481,0 8.22636,18.83386 2.46272,32.6282 -3.28878,7.87115 -4.97056,9.06068 -12.8102,9.06068 -6.68699,0 -10.10131,1.64355 -13.18213,6.34547 -5.87599,8.9679 -4.07356,20.78584 3.33068,21.83818 7.07463,1.0055 18.94579,-10.04935 18.94579,-17.643 0,-6.49971 7.70145,-7.23231 8.09276,-0.76982 0.58537,9.66754 -0.8747,20.31674 -3.16881,23.1121 -1.31759,1.60548 -7.11423,3.55194 -12.88141,4.32549 -15.89552,2.13203 -18.93504,5.8377 -16.96562,20.68387 2.13038,16.05964 3.81774,20.27435 8.1168,20.27435 5.52194,0 21.36833,10.22318 23.4088,15.10201 2.0324,4.85957 1.65036,88.91191 -0.41936,92.26081 -0.70378,1.1387 -2.96915,2.0704 -5.03416,2.0704 -3.1222,0 -3.75456,-7.4806 -3.75456,-44.41554 z m -109.61178,11.19474 c -0.0982,-12.53918 -0.0337,-42.91513 0.14326,-67.50206 0.34439,-47.8503 -1.03765,-53.08789 -11.301215,-42.82888 -5.34014,5.33777 -5.62997,8.21473 -6.25282,62.06959 -0.359222,31.0598 -1.722682,57.54185 -3.029922,58.84915 -6.25857,6.2586 -7.27813,-3.4353 -6.17649,-58.72518 0.97133,-48.7503 1.87542,-59.28855 5.64904,-65.84707 2.47095,-4.29448 6.774162,-8.23128 9.562682,-8.74843 8.285965,-1.53671 11.583935,-5.72281 11.583935,-14.70342 0,-7.15215 -1.11821,-8.70385 -7.165285,-9.943 -10.833462,-2.21996 -12.993522,-8.2582 -11.284972,-31.54605 2.068412,-28.19277 7.530622,-29.85951 8.566592,-2.61401 0.59422,15.62773 1.76258,20.72622 5.25222,22.91955 7.780415,4.89021 10.137995,-1.43001 10.655265,-28.56467 l 0.49007,-25.70833 -9.79961,-1.6043 c -11.554095,-1.89152 -13.523865,-3.40849 -11.448505,-8.81678 1.84204,-4.80028 14.240465,-5.32112 23.731065,-0.99692 7.36903,3.35756 7.71365,5.56767 6.73983,43.22481 -0.55068,21.29472 -0.49543,21.49583 5.90551,21.49583 7.94289,0 9.62448,-4.04742 9.62448,-23.1651 0,-8.81386 1.52019,-16.99259 3.71369,-19.97994 3.58171,-4.87798 3.81326,-4.79688 6.51583,2.2823 1.68042,4.40172 2.13379,14.53146 1.13253,25.30452 -1.8567,19.97743 -6.80774,27.80541 -19.14725,30.27331 -7.18899,1.4378 -11.47704,8.3332 -8.18016,13.15412 0.89915,1.31479 5.34485,3.89016 9.87934,5.72306 12.79295,5.17106 14.76947,13.42317 14.31691,59.77426 -0.73023,74.79204 -1.95992,85.99574 -8.33266,75.91904 -2.18927,-3.4617 -4.13844,-34.5777 -2.76996,-44.21895 0.30511,-2.14958 0.54008,-18.9868 0.52216,-37.41603 -0.0253,-25.98184 -0.94898,-34.90629 -4.11268,-39.73471 -4.62931,-7.06521 -10.49124,-8.1238 -12.7267,-2.29828 -0.82917,2.1608 -1.61737,32.3247 -1.75153,67.03088 -0.23281,60.22359 -1.3299,69.74029 -8.03966,69.74029 -1.25759,0 -2.36683,-10.2593 -2.46499,-22.7986 z"
       id="path3579"
       inkscape:connector-curvature="0" />
  </g>
</svg>
