<?xml version="1.0" encoding="UTF-8" standalone="no"?>
<!-- Created with Inkscape (http://www.inkscape.org/) -->

<svg
   xmlns:dc="http://purl.org/dc/elements/1.1/"
   xmlns:cc="http://creativecommons.org/ns#"
   xmlns:rdf="http://www.w3.org/1999/02/22-rdf-syntax-ns#"
   xmlns:svg="http://www.w3.org/2000/svg"
   xmlns="http://www.w3.org/2000/svg"
   xmlns:sodipodi="http://sodipodi.sourceforge.net/DTD/sodipodi-0.dtd"
   xmlns:inkscape="http://www.inkscape.org/namespaces/inkscape"
   width="300"
   height="300"
   id="svg2"
   version="1.1"
   inkscape:version="0.48.4 r9939"
   sodipodi:docname="image-seal.svg">
  <defs
     id="defs4" />
  <sodipodi:namedview
     id="base"
     pagecolor="#ffffff"
     bordercolor="#666666"
     borderopacity="1.0"
     inkscape:pageopacity="0.0"
     inkscape:pageshadow="2"
     inkscape:zoom="2.0506101"
     inkscape:cx="150.3604"
     inkscape:cy="115.67348"
     inkscape:document-units="px"
     inkscape:current-layer="layer1"
     showgrid="false"
     inkscape:window-width="1215"
     inkscape:window-height="1000"
     inkscape:window-x="65"
     inkscape:window-y="24"
     inkscape:window-maximized="1"
     fit-margin-top="10"
     fit-margin-left="10"
     fit-margin-right="10"
     fit-margin-bottom="10" />
  <metadata
     id="metadata7">
    <rdf:RDF>
      <cc:Work
         rdf:about="">
        <dc:format>image/svg+xml</dc:format>
        <dc:type
           rdf:resource="http://purl.org/dc/dcmitype/StillImage" />
        <dc:title />
      </cc:Work>
    </rdf:RDF>
  </metadata>
  <g
     inkscape:label="Calque 1"
     inkscape:groupmode="layer"
     id="layer1"
     transform="translate(0,-752.36218)">
    <path
       style="fill:#000000"
       d="m 5.0004421,1037.3621 c -1.461e-4,0 -2.063e-4,-2e-4 -1.391e-4,-4e-4 4.4e-5,-10e-5 2.87e-5,-2e-4 -2.72e-5,-2e-4 -7.69e-5,0 -1.269e-4,0 -1.385e-4,0 -6.8e-6,10e-5 -1.78e-5,10e-5 -2.46e-5,10e-5 -9.3e-6,0 7e-6,10e-5 6.36e-5,10e-5 5.86e-5,0 7.1e-5,0 5.37e-5,0 -3.73e-5,10e-5 -1.646e-4,10e-5 -2.03e-4,0 -7.89e-5,-10e-5 2.21e-5,-2e-4 1.908e-4,-3e-4 6.61e-5,0 7.09e-5,0 6.05e-5,-10e-5 -8.5e-6,0 -2.7e-6,-10e-5 2.33e-5,-10e-5 4.7e-5,0 9.72e-5,0 9.72e-5,10e-5 0,10e-5 8e-6,10e-5 1.212e-4,10e-5 6.67e-5,0 1.588e-4,0 2.047e-4,0 7.17e-5,0 8.77e-5,0 1.134e-4,10e-5 3.69e-5,10e-5 1.59e-5,10e-5 -1.232e-4,2e-4 -5.21e-5,0 -1.171e-4,0 -1.444e-4,10e-5 -2.73e-5,0 -8.66e-5,0 -1.319e-4,0 -1.054e-4,1e-4 -1.053e-4,2e-4 2e-7,2e-4 5.99e-5,10e-5 9.96e-5,10e-5 2.425e-4,10e-5 9.4e-5,0 2.015e-4,0 2.39e-4,0 1.051e-4,-10e-5 1.062e-4,0 1.6e-6,0 -1.063e-4,10e-5 -3.627e-4,10e-5 -4.798e-4,0 z m 3.79e-5,-4e-4 c 4.93e-5,0 4.42e-5,-10e-5 -1.21e-5,-10e-5 -4.17e-5,0 -4.04e-5,0 -5.8e-5,10e-5 -1.68e-5,10e-5 2.2e-6,10e-5 7.01e-5,0 z m 2.159e-4,-10e-5 c 6.61e-5,-10e-5 7.56e-5,-10e-5 3.59e-5,-10e-5 -2.83e-5,-10e-5 -3.33e-4,-10e-5 -3.33e-4,0 0,0 3.86e-5,0 8.58e-5,0 4.72e-5,0 9.09e-5,10e-5 9.71e-5,10e-5 1.48e-5,0 4e-5,0 1.142e-4,0 z"
       id="path3223"
       inkscape:connector-curvature="0" />
    <path
       style="fill:#000000"
       d="m 5.000515,1017.3622 c -4.25e-5,0 -7.25e-5,0 -1.096e-4,0 -3.41e-5,-10e-5 -8.26e-5,-10e-5 -8.28e-5,-10e-5 -10e-8,0 -2.6e-6,0 -5.5e-6,0 -6.2e-6,0 -2.87e-5,-1e-4 -4.19e-5,-1e-4 -5.1e-6,0 -1.08e-5,0 -1.28e-5,-10e-5 -2e-6,0 -7.9e-6,0 -1.31e-5,0 -1.19e-5,0 -4.58e-5,-10e-5 -6.13e-5,-10e-5 -6.5e-6,0 -1.18e-5,0 -1.18e-5,0 0,0 -3.02e-5,-10e-5 -6.75e-5,-10e-5 -9.8e-6,0 -2.18e-5,0 -2.67e-5,0 -2.65e-5,0 -3.8e-5,10e-5 -1.72e-5,10e-5 1.28e-5,10e-5 3.97e-5,10e-5 6.99e-5,10e-5 2.39e-5,0 2.68e-5,0 1.13e-5,0 -2.27e-5,10e-5 -8.63e-5,0 -1.137e-4,0 -1.01e-5,-10e-5 -2.19e-5,-10e-5 -2.62e-5,-10e-5 -1.93e-5,0 1.02e-5,-10e-5 4.84e-5,-2e-4 2.62e-5,0 3.34e-5,0 7.02e-5,0 2.11e-5,0 3.82e-5,0 3.82e-5,-10e-5 0,0 9e-6,0 2e-5,0 1.09e-5,0 1.99e-5,0 1.99e-5,0 0,0 -8.8e-6,0 -1.97e-5,0 -1.08e-5,0 -1.97e-5,0 -1.99e-5,0 -2e-7,0 1.9e-6,-10e-5 1.79e-5,0 1.01e-5,0 1.98e-5,0 2.16e-5,0 1.9e-6,0 1.34e-5,0 2.56e-5,0 1.96e-5,0 2.62e-5,0 5.65e-5,0 7.3e-5,0 2.285e-4,0 2.734e-4,0 4.44e-5,0 1.004e-4,10e-5 1.138e-4,10e-5 2.52e-5,1e-4 2.92e-5,1e-4 1.41e-5,1e-4 -9.3e-6,0 -5.45e-5,10e-5 -6.48e-5,10e-5 -8.4e-6,0 -8.7e-6,0 -4e-7,0 3.4e-6,0 9.9e-6,-10e-5 1.44e-5,-10e-5 9.4e-6,0 3e-6,-1e-4 -2.43e-5,-1e-4 -2.28e-5,0 -8.94e-5,0 -1.302e-4,0 -3.12e-5,0 -3.28e-5,0 -2.85e-5,0 2.5e-6,0 8.4e-6,0 1.32e-5,0 4.7e-6,0 1.07e-5,0 1.31e-5,0 4.4e-6,0 7.5e-6,0 3.49e-5,1e-4 7.3e-6,0 1.55e-5,0 1.82e-5,10e-5 6.5e-6,0 4.41e-5,0 5.48e-5,10e-5 4.5e-6,0 8.3e-6,0 8.3e-6,0 0,0 3.8e-6,0 8.5e-6,0 4.7e-6,0 1.57e-5,0 2.44e-5,0 2.21e-5,10e-5 6.89e-5,10e-5 9.48e-5,10e-5 2.94e-5,0 1.248e-4,0 1.882e-4,0 2.72e-5,0 4.94e-5,0 4.94e-5,0 0,0 9e-6,0 2e-5,0 1.73e-5,0 1.99e-5,0 1.99e-5,0 0,0 -5.4e-6,0 -1.97e-5,1e-4 -1.08e-5,0 -2.35e-5,0 -2.82e-5,0 -4.7e-6,0 -1.54e-5,0 -2.37e-5,0 -8.3e-6,0 -2.64e-5,0 -4.02e-5,0 -1.38e-5,0 -3.24e-5,10e-5 -4.14e-5,10e-5 -8.9e-6,0 -1.77e-5,0 -1.95e-5,0 -1.36e-5,0 -2.117e-4,0 -2.599e-4,0 -8.7e-6,0 -3.23e-5,0 -5.24e-5,0 z m 1.396e-4,0 c 9.26e-5,-10e-5 9.51e-5,-10e-5 1.092e-4,-10e-5 1.1e-5,0 4.5e-6,0 -4.51e-5,0 -5.73e-5,0 -7.72e-5,0 -1.306e-4,0 -3.8e-5,0 -8.82e-5,0 -1.095e-4,-1e-4 -1.1e-5,0 -2.36e-5,0 -2.8e-5,0 -4.4e-6,0 -2.08e-5,0 -3.66e-5,-10e-5 -2.7e-5,0 -3.78e-5,0 -5.88e-5,-10e-5 -1.03e-5,0 -6.88e-5,-10e-5 -8.18e-5,-2e-4 -4.9e-6,0 -2.02e-5,0 -3.39e-5,0 -2.78e-5,0 -3.79e-5,0 -7.92e-5,0 -2.65e-5,0 -2.95e-5,0 -1.14e-5,0 6.9e-6,1e-4 1.89e-5,1e-4 2.66e-5,1e-4 7.7e-6,0 2.02e-5,0 2.77e-5,0 7.5e-6,0 1.82e-5,10e-5 2.39e-5,10e-5 1.35e-5,0 6.51e-5,10e-5 7.61e-5,10e-5 4.7e-6,0 1.02e-5,10e-5 1.22e-5,10e-5 2e-6,0 8.8e-6,0 1.5e-5,0 1.63e-5,0 3.44e-5,1e-4 4.02e-5,1e-4 2.7e-6,0 4.9e-6,0 4.9e-6,0 0,0 5.71e-5,0 9.52e-5,10e-5 5.7e-5,0 9.51e-5,0 1.839e-4,0 z m 1.361e-4,-10e-5 c 1.02e-5,0 7e-6,0 -1.32e-5,0 -2.59e-5,0 -7.16e-5,0 -8.08e-5,-1e-4 -2.5e-6,0 -10e-6,0 -1.67e-5,0 -6.7e-6,0 -1.22e-5,0 -1.22e-5,0 0,0 -3.9e-6,0 -8.8e-6,0 -1.01e-5,0 -6.76e-5,0 -9.99e-5,-10e-5 -3.72e-5,0 -8.2e-5,-10e-5 -1.172e-4,-2e-4 -1.36e-5,-1e-4 -1.73e-5,-1e-4 -3.25e-5,-1e-4 -3.4e-6,0 -7.8e-6,0 -9.8e-6,0 -4.4e-6,-10e-5 -2.72e-5,-10e-5 -8.83e-5,0 l -4.21e-5,0 3.23e-5,0 c 2.88e-5,0 7.4e-5,1e-4 7.4e-5,1e-4 0,0 2.3e-6,0 5.1e-6,0 5e-6,0 1.24e-5,10e-5 2.81e-5,10e-5 4.6e-6,0 1.69e-5,0 2.74e-5,10e-5 1.06e-5,0 1.92e-5,0 1.92e-5,0 0,0 5.98e-5,10e-5 8.34e-5,10e-5 3.35e-5,1e-4 8.04e-5,1e-4 1.258e-4,1e-4 4.6e-5,0 1.07e-4,0 1.262e-4,0 z"
       id="path3236"
       inkscape:connector-curvature="0" />
    <path
       style="fill:#000000"
       d=""
       id="path3080"
       inkscape:connector-curvature="0" />
    <path
       style="fill:#000000"
       d="m 156.01806,1023.5472 c -0.98846,-13.0982 -2.61264,-56.31096 -3.60925,-96.02822 l -1.81206,-72.21327 10.23218,-15.36451 c 10.19964,-15.31571 10.31989,-15.38405 37.85957,-21.52039 15.19508,-3.38573 29.35593,-7.27006 31.46855,-8.63185 2.11262,-1.36176 3.84113,-7.20227 3.84113,-12.97889 0,-17.12867 -9.44838,-21.17528 -43.92689,-18.81333 -29.86785,2.04613 -40.8095,-0.5148 -33.48029,-7.83611 4.37966,-4.37495 63.29823,-5.60181 77.86833,-1.62145 10.94983,2.99135 15.08669,15.47071 11.49736,34.68342 -2.83651,15.18309 -5.72872,18.87905 -16.56786,21.17214 -3.3802,0.7151 -14.91258,3.0899 -25.62755,5.27731 -12.67406,2.58736 -22.06971,6.56511 -26.88789,11.38329 l -7.40616,7.40619 0,95.76267 c 0,93.3425 -0.90352,103.138 -9.51346,103.138 -1.17618,0 -2.94725,-10.7167 -3.93571,-23.815 z m 83.05311,18.1814 c -10.14491,-11.2099 -17.47218,-49.02503 -21.10248,-108.90671 -3.52615,-58.1639 -5.39107,-64.59518 -13.94262,-48.08109 -2.75,5.3109 -3.81786,26.34583 -3.73161,73.5072 0.0664,36.33707 0.0716,68.4873 0.0123,71.445 -0.13644,6.7045 -8.01327,7.0907 -10.53591,0.5169 -1.02595,-2.6735 -1.86528,-36.34753 -1.86528,-74.83168 0,-67.50398 0.24368,-70.32921 6.91403,-80.12992 10.48631,-15.40754 21.79582,-22.42734 36.63578,-22.73964 9.79506,-0.20619 13.36618,0.98966 14.12595,4.72997 0.66267,3.2625 -1.76449,5.70392 -6.96866,7.01021 l -7.98553,2.00415 0.30545,52.91138 c 0.31433,54.45337 2.65462,72.7036 12.64967,98.64663 9.37594,24.3362 7.04674,36.688 -4.51017,23.9176 z m -146.910574,-7.4262 c -0.26611,-3.8028 -0.31562,-8.9883 -0.1097,-11.5234 1.39952,-17.231 0.50859,-132.85975 -1.04307,-135.37031 -1.10065,-1.78074 -4.45473,0.0983 -7.82684,4.38534 -5.37207,6.82953 -5.90083,13.00452 -5.90083,68.91445 0,49.85142 -0.81118,61.72422 -4.30891,63.06642 -2.36992,0.9093 -5.13553,0.8269 -6.14581,-0.1844 -1.01031,-1.0103 -1.83173,-30.29973 -1.8254,-65.08745 0.009,-57.63412 0.55221,-64.13731 6.10064,-73.2374 3.52852,-5.7872 8.61635,-9.98693 12.09875,-9.98693 7.20003,0 8.03266,-1.25467 10.72139,-16.15425 1.83609,-10.17499 1.24581,-11.86537 -4.97399,-14.24376 -11.83746,-4.52657 -17.85817,-13.99667 -20.94106,-32.93875 -3.26173,-20.04076 -1.77398,-28.85037 4.87212,-28.85037 4.57783,0 5.78164,4.91735 4.68061,19.1195 -0.81407,10.50131 8.22779,30.04693 13.89985,30.04693 3.31053,0 4.25923,-6.07638 4.25923,-27.27987 0,-29.15936 -1.21171,-31.78303 -16.35104,-35.40423 -11.30779,-2.70474 -9.04156,-8.79609 4.28919,-11.52867 7.01251,-1.43747 13.79942,-0.60585 20.335114,2.49172 8.70845,4.12731 9.48464,5.50434 6.91403,12.26556 -1.59262,4.18891 -2.89569,19.28006 -2.89569,33.53587 0,23.11711 0.61117,25.91962 5.65255,25.91962 6.47005,0 12.7652,-11.75886 12.82681,-23.95957 0.0658,-13.02333 3.35816,-22.13396 7.99871,-22.13396 3.15212,0 4.25096,4.81809 4.25096,18.63943 0,25.64051 -8.19356,39.42266 -23.57085,39.64799 -4.86637,0.0713 -7.21324,2.57172 -8.67945,9.24738 -2.87909,13.10836 0.45903,20.59241 10.06268,22.56091 15.94972,3.26926 17.48319,9.96143 18.61008,81.21374 0.92492,58.48256 0.5027,65.49776 -4.04725,67.24376 -2.79398,1.0721 -6.31789,0.7114 -7.83093,-0.8017 -1.51306,-1.5131 -2.91077,-31.76093 -3.10606,-67.21766 -0.35132,-63.79161 -1.63331,-72.20092 -11.00707,-72.20092 -3.47751,0 -4.23308,13.11853 -4.23308,73.4983 0,40.42405 -0.83936,75.68558 -1.86522,78.35908 -2.79311,7.2787 -10.356764,5.8551 -10.910464,-2.0534 z"
       id="path3095"
       inkscape:connector-curvature="0" />
  </g>
</svg>
