<?xml version="1.0" encoding="UTF-8" standalone="no"?>
<!-- Created with Inkscape (http://www.inkscape.org/) -->

<svg
   xmlns:dc="http://purl.org/dc/elements/1.1/"
   xmlns:cc="http://creativecommons.org/ns#"
   xmlns:rdf="http://www.w3.org/1999/02/22-rdf-syntax-ns#"
   xmlns:svg="http://www.w3.org/2000/svg"
   xmlns="http://www.w3.org/2000/svg"
   xmlns:sodipodi="http://sodipodi.sourceforge.net/DTD/sodipodi-0.dtd"
   xmlns:inkscape="http://www.inkscape.org/namespaces/inkscape"
   width="300"
   height="300"
   id="svg2"
   version="1.1"
   inkscape:version="0.48.4 r9939"
   sodipodi:docname="image-seal.svg">
  <defs
     id="defs4" />
  <sodipodi:namedview
     id="base"
     pagecolor="#ffffff"
     bordercolor="#666666"
     borderopacity="1.0"
     inkscape:pageopacity="0.0"
     inkscape:pageshadow="2"
     inkscape:zoom="1.979899"
     inkscape:cx="90.878804"
     inkscape:cy="121.06726"
     inkscape:document-units="px"
     inkscape:current-layer="layer1"
     showgrid="false"
     inkscape:window-width="1215"
     inkscape:window-height="1000"
     inkscape:window-x="65"
     inkscape:window-y="24"
     inkscape:window-maximized="1"
     fit-margin-top="10"
     fit-margin-left="10"
     fit-margin-right="10"
     fit-margin-bottom="10" />
  <metadata
     id="metadata7">
    <rdf:RDF>
      <cc:Work
         rdf:about="">
        <dc:format>image/svg+xml</dc:format>
        <dc:type
           rdf:resource="http://purl.org/dc/dcmitype/StillImage" />
        <dc:title />
      </cc:Work>
    </rdf:RDF>
  </metadata>
  <g
     inkscape:label="Calque 1"
     inkscape:groupmode="layer"
     id="layer1"
     transform="translate(0,-752.36218)">
    <path
       style="fill:#000000"
       d="m 87.174563,1045.4727 c -1.277927,-2.0677 0.305585,-122.90405 1.872918,-142.9242 0.798736,-10.2025 -0.857057,-16.17858 -4.482686,-16.17858 -7.063677,0 -9.25281,9.39606 -8.713702,37.40069 0.398532,20.70383 -0.375537,28.06919 -3.128867,29.77106 -2.548742,1.57545 -2.753221,2.82083 -0.674104,4.10577 3.175184,1.9624 4.32046,56.92456 1.347598,64.67176 -0.900186,2.3459 -3.411208,4.2652 -5.58002,4.2652 -3.376615,0 -3.813272,-9.3972 -3.038313,-65.3885 0.97092,-70.15207 2.513555,-78.76148 15.098257,-84.2635 12.27524,-5.3667 11.236792,-26.48903 -1.437715,-29.24352 -4.097567,-0.89052 -9.003858,-2.65652 -10.902835,-3.92451 -4.831587,-3.22611 -5.978489,-49.50301 -1.266078,-51.08643 2.440679,-0.82008 3.456337,3.57877 3.681575,15.94486 0.170949,9.39257 0.592944,18.29079 0.937499,19.77384 0.34457,1.48303 0.811303,4.21316 1.037182,6.06697 0.226223,1.85614 4.045232,3.37053 8.500016,3.37053 l 8.089291,0 0.406629,-20.89734 c 0.774194,-39.78763 -1.183824,-45.27167 -15.343316,-42.97388 -8.849229,1.43601 -17.364642,-1.79781 -13.888218,-5.27424 3.412412,-3.41239 30.990606,-2.56035 34.626302,1.06982 2.414168,2.41046 3.178045,12.27552 2.663494,34.39775 -0.601932,25.8793 -0.03423,31.28171 3.42684,32.60983 8.12396,3.11749 13.08146,-6.2678 13.41237,-25.39164 0.24376,-14.09163 1.19574,-18.03143 4.35665,-18.03143 2.89473,0 4.44479,3.97771 5.4521,13.99083 0.77412,7.69496 2.35844,14.94178 3.52074,16.10408 2.93086,2.93083 34.08648,-31.33335 40.23656,-44.25116 1.58862,-3.33683 4.00348,-6.06698 5.36627,-6.06698 1.36284,0 9.35848,7.00877 17.76811,15.57505 8.40963,8.5663 18.6066,17.25411 22.65993,19.30631 8.94263,4.52765 18.24643,12.91843 18.24643,16.45589 0,1.42526 -2.73013,2.5693 -6.06698,2.54232 -5.91551,-0.0477 -14.17467,-5.68463 -34.49842,-23.54472 -5.4847,-4.81986 -11.32395,-8.76339 -12.97609,-8.76339 -1.65212,0 -12.94368,9.75459 -25.09237,21.67683 -12.14867,11.92224 -23.53262,21.12266 -25.29771,20.44535 -1.76506,-0.67733 -9.43737,1.74919 -17.04961,5.3923 -11.004929,5.26674 -13.840419,7.95735 -13.840419,13.13317 0,9.68213 5.635339,20.24531 10.800649,20.24531 12.88775,0 16.5844,15.90904 20.67485,88.97723 2.96644,52.98987 2.12539,62.02297 -5.77477,62.02297 -3.21361,0 -4.1593,-3.4381 -4.26477,-15.5045 -0.2575,-29.4754 -4.37622,-97.44528 -6.79215,-112.08969 -1.69908,-10.29904 -8.15326,-16.06286 -11.650469,-10.40426 -1.02041,1.65103 -1.476216,30.64595 -1.012907,64.43318 0.463294,33.78721 0.813914,62.94807 0.779181,64.80187 -0.187128,9.9799 -0.467187,13.5837 -1.67685,21.5715 -1.285071,8.4856 -6.987128,11.7837 -10.512072,6.0802 z m 87.106767,-6.0802 c -0.28547,-1.8538 -0.62835,-16.1112 -0.76195,-31.6831 -0.1335,-15.57195 -0.50672,-45.60345 -0.82916,-66.73674 l -0.58625,-38.42416 -11.82383,0 c -15.97921,0 -21.03301,-7.46983 -20.22386,-29.89222 0.32114,-8.89955 1.44078,-16.71058 2.48808,-17.35786 1.93242,-1.19427 8.87227,15.77699 11.74793,28.7293 1.08633,4.89313 3.74244,7.50962 8.55776,8.43013 8.99177,1.71886 9.65328,-0.40226 8.6961,-27.88478 l -0.7904,-22.69428 -12.80805,0.61239 c -12.76364,0.61025 -15.83785,-1.57075 -9.43752,-6.69548 3.48652,-2.79165 51.99398,-6.21517 57.99008,-4.09279 6.87071,2.43194 -0.0141,6.13123 -11.41107,6.13123 -6.46254,0 -12.15454,1.19992 -12.64891,2.66645 -1.54465,4.58243 1.69568,48.02965 3.73349,50.05964 1.06474,1.06065 5.61495,0.40452 10.11161,-1.45807 7.33025,-3.03629 8.21824,-4.67724 8.58646,-15.86743 0.22596,-6.86448 0.69263,-13.69431 1.03719,-15.17734 0.34457,-1.48305 0.76645,-4.21318 0.93751,-6.06698 0.44597,-4.8329 7.51887,-4.16399 9.46005,0.89465 0.90019,2.34584 1.63671,11.25826 1.63671,19.80532 0,18.22843 -4.72856,24.21253 -22.52687,28.50832 -10.55209,2.54683 -11.16215,3.22691 -10.88636,12.13554 0.16071,5.19063 1.09558,33.29038 2.07757,62.44388 1.29359,38.40428 0.90816,54.93178 -1.39907,59.99568 -3.30957,7.2637 -10.02352,9.4871 -10.92724,3.6187 z m -29.48356,-5.279 c -1.04395,-3.6147 -1.11786,-38.11494 -0.19387,-90.44441 0.506,-28.65556 0.84307,-30.33485 6.08873,-30.33485 5.44388,0 5.54103,1.07389 4.93949,54.60274 -0.33749,30.03151 -1.38579,57.55722 -2.32954,61.16822 -1.92449,7.3632 -6.96723,10.3328 -8.50489,5.0083 z m 68.89973,1.122 c -1.56888,-1.0505 -5.66045,-11.8839 -9.09237,-24.0742 -10.25221,-36.41623 -8.33383,-100.52349 3.0081,-100.52349 2.96572,0 2.87401,23.44375 -0.13271,33.92761 -2.45503,8.56015 0.0189,26.4155 9.22573,66.61568 4.64179,20.2652 3.61323,28.4885 -3.00877,24.0544 z"
       id="path3106"
       inkscape:connector-curvature="0" />
  </g>
</svg>
