<?xml version="1.0" encoding="UTF-8" standalone="no"?>
<!-- Created with Inkscape (http://www.inkscape.org/) -->

<svg
   xmlns:dc="http://purl.org/dc/elements/1.1/"
   xmlns:cc="http://creativecommons.org/ns#"
   xmlns:rdf="http://www.w3.org/1999/02/22-rdf-syntax-ns#"
   xmlns:svg="http://www.w3.org/2000/svg"
   xmlns="http://www.w3.org/2000/svg"
   xmlns:sodipodi="http://sodipodi.sourceforge.net/DTD/sodipodi-0.dtd"
   xmlns:inkscape="http://www.inkscape.org/namespaces/inkscape"
   width="300"
   height="300"
   id="svg2"
   version="1.1"
   inkscape:version="0.91 r13725"
   sodipodi:docname="image-seal.svg">
  <defs
     id="defs4" />
  <sodipodi:namedview
     id="base"
     pagecolor="#ffffff"
     bordercolor="#666666"
     borderopacity="1.0"
     inkscape:pageopacity="0.0"
     inkscape:pageshadow="2"
     inkscape:zoom="2.77"
     inkscape:cx="150"
     inkscape:cy="150"
     inkscape:document-units="px"
     inkscape:current-layer="layer1"
     showgrid="false"
     inkscape:window-width="1231"
     inkscape:window-height="1000"
     inkscape:window-x="49"
     inkscape:window-y="24"
     inkscape:window-maximized="1"
     showguides="true"
     inkscape:guide-bbox="true" />
  <metadata
     id="metadata7">
    <rdf:RDF>
      <cc:Work
         rdf:about="">
        <dc:format>image/svg+xml</dc:format>
        <dc:type
           rdf:resource="http://purl.org/dc/dcmitype/StillImage" />
        <dc:title />
      </cc:Work>
    </rdf:RDF>
  </metadata>
  <g
     inkscape:label="Calque 1"
     inkscape:groupmode="layer"
     id="layer1"
     transform="translate(0,-752.36218)">
    <path
       style="fill:#000000"
       d="m 102.12493,1041.6204 c -0.93427,-2.9436 -1.33209,-40.1283 -0.88408,-82.63274 0.6296,-59.73238 0.0279,-77.54358 -2.650118,-78.43836 -6.36773,-2.12765 -8.63638,12.09382 -10.38128,65.0778 -1.78086,54.07545 -4.8113,74.7077 -10.6827,72.7315 -2.31486,-0.7792 -2.99131,-7.3964 -2.22514,-21.76757 0.60545,-11.35645 1.34942,-25.6619 1.65331,-31.78992 4.03625,-81.39635 6.17,-91.60162 19.87139,-95.04044 8.869698,-2.22617 9.788978,-17.77084 1.05093,-17.77084 -13.25179,0 -22.53683,-23.31893 -18.29278,-45.94157 3.40857,-18.16928 11.1806,-7.81348 10.35312,13.795 -0.57737,15.07755 1.74353,21.00471 8.22481,21.00471 5.145748,0 5.432148,-1.74475 4.686848,-28.551 l -0.79381,-28.551 -10.537738,-1.39274 c -5.79574,-0.766 -10.61075,-2.64619 -10.7,-4.17819 -0.22534,-3.86937 18.473586,-7.91181 26.860478,-5.80683 6.8777,1.72621 6.91185,1.89971 6.91185,35.10726 0,18.35487 1.09998,33.3725 2.44439,33.3725 5.20508,0 9.16498,-8.67045 11.49794,-25.17538 2.68235,-18.97684 4.15658,-21.90556 8.72622,-17.33592 1.88548,1.88548 2.62302,10.21444 1.90417,21.5037 -0.98937,15.53787 -2.33327,19.50181 -8.57324,25.28783 -4.06998,3.77389 -9.33484,6.86163 -11.69973,6.86163 -2.84654,0 -4.29975,2.62126 -4.29975,7.75582 0,5.64095 2.24898,9.08434 8.24768,12.62784 10.7954,6.37701 11.42845,10.63217 12.09306,81.28577 0.47395,50.38294 -0.0293,58.49484 -3.62796,58.49484 -3.53712,0 -4.41209,-9.1887 -5.70256,-59.88757 -1.47357,-57.89127 -3.70233,-72.42206 -11.10821,-72.42206 -1.56089,0 -2.88719,14.88783 -3.16393,35.51466 -0.26211,19.53307 -0.75553,37.39485 -1.09663,39.69286 -0.34111,2.29801 -0.75344,23.92017 -0.91628,48.04931 -0.27214,40.316 -2.62291,52.9095 -7.19026,38.5191 z m 47.2376,-0.293 c -2.30261,-3.7257 -1.21628,-60.22973 1.43936,-74.86646 2.36839,-13.05354 7.00563,-17.44775 20.85852,-19.76534 11.04551,-1.84791 13.41302,-11.14186 2.8382,-11.14186 -15.86921,0 -25.03815,-8.51026 -27.60406,-25.62103 -2.62382,-17.49686 3.38342,-32.05375 14.16843,-34.33321 18.04075,-3.81299 21.56099,-9.85864 8.58065,-14.73638 -14.90001,-5.59909 -21.20248,-12.56935 -22.15561,-24.50317 -1.0692,-13.38672 5.63282,-15.08568 9.76586,-2.47564 3.29613,10.05656 6.44392,12.43579 16.52725,12.49195 7.23917,0.0404 7.66002,-0.65297 7.66002,-12.61855 0,-9.72881 1.58348,-14.24469 6.83704,-19.49824 3.76037,-3.76038 8.85663,-6.83706 11.325,-6.83706 9.13102,0 15.26353,-5.63502 15.26353,-14.02531 0,-6.17947 -1.29778,-8.2584 -5.15528,-8.2584 -6.98135,0 -22.69936,5.63117 -22.69936,8.13235 0,3.43183 -27.78458,14.77427 -32.11793,13.11141 -7.21176,-2.76742 -4.42114,-7.02776 8.44149,-12.88737 6.89402,-3.14058 12.53459,-7.01594 12.53459,-8.61188 0,-1.59593 -3.13365,-7.01009 -6.96366,-12.0315 -3.83002,-5.02141 -6.96366,-10.57836 -6.96366,-12.34874 0,-4.92949 7.5915,-3.82553 11.68028,1.69855 5.22534,7.05959 17.474,11.79532 30.50791,11.79532 9.03373,0 12.89867,1.7264 19.36719,8.65098 8.63162,9.24017 9.71698,13.728 5.31101,21.96063 -2.82889,5.28581 -17.61413,13.95581 -23.79931,13.95581 -4.94069,0 -12.42698,12.52615 -12.42698,20.79299 0,8.11578 5.28285,9.04067 22.38034,3.91814 7.85857,-2.35446 10.89211,-4.97628 12.08579,-10.44549 2.69081,-12.32843 6.15688,-15.90959 11.28171,-11.65635 5.73171,4.75687 5.52817,10.78807 -0.71085,21.06716 -4.2439,6.99201 -8.2209,9.07593 -24.35815,12.76338 -13.48569,3.08156 -19.55697,5.80421 -20.18671,9.05276 -0.755,3.89461 1.63903,4.64576 14.80681,4.64576 26.55937,0 34.61821,7.29639 34.75083,31.4631 0.0741,13.49368 -1.03349,17.26508 -6.74846,22.98007 -4.11153,4.11152 -10.05304,6.83704 -14.9044,6.83704 -11.31879,0 -25.61145,5.42633 -25.61145,9.7236 0,5.07913 6.48782,6.98918 23.73987,6.98918 8.21032,0 15.70364,1.25527 16.65184,2.78947 0.9482,1.53421 2.30605,15.00889 3.01746,29.94374 0.71141,14.93485 1.90869,31.88049 2.66062,37.65689 1.3422,10.3106 -4.55983,27.1012 -9.52631,27.1012 -1.27045,0 -2.53951,-8.3445 -2.82009,-18.5433 -0.60163,-21.869 -1.02344,-22.8389 -9.28409,-21.3497 -3.48358,0.628 -18.24164,2.0268 -32.79569,3.1083 l -26.46191,1.9664 -0.82797,15.7689 c -0.54896,10.4546 -2.16166,16.2807 -4.78538,17.2875 -2.17656,0.8352 -4.68498,0.3413 -5.57429,-1.0976 z m 33.47136,-53.54621 c 0,-4.21301 -0.9401,-7.66002 -2.0891,-7.66002 -1.14901,0 -5.76502,0 -10.25778,0 -5.71009,0 -8.69847,1.66921 -9.92892,5.54599 -2.67876,8.43999 0.86984,11.55829 12.08908,10.62315 9.04997,-0.75433 10.18672,-1.7039 10.18672,-8.50912 z m 43.86941,-10.16204 c -0.3839,-9.80216 -2.1042,-19.51644 -3.82289,-21.58734 -4.4798,-5.39784 -23.6936,-4.9037 -25.83024,0.66427 -2.73661,7.13151 1.09569,10.11929 10.6747,8.32224 4.91312,-0.92171 9.77252,-0.83625 10.79869,0.18997 2.75861,2.75864 -3.60943,9.342 -9.03646,9.342 -8.74845,0 -15.08262,6.92183 -13.19962,14.42425 1.58961,6.33356 3.01348,6.91436 16.42716,6.70068 l 14.68667,-0.23398 -0.69801,-17.82206 z m -44.42514,-12.37426 c 0.78817,-2.05394 0.45202,-5.32174 -0.74695,-7.26176 -3.69595,-5.98014 -19.38769,1.17071 -19.54566,8.90708 -0.0766,3.75219 18.80899,2.22096 20.29261,-1.64532 z m -0.83701,-49.36251 c 0,-7.84172 -0.52316,-8.18327 -12.53458,-8.18327 -13.13792,0 -14.80731,1.64052 -9.05276,8.89632 3.66486,4.62095 7.87668,6.43743 16.418,7.08085 3.95081,0.29759 5.16934,-1.53961 5.16934,-7.7939 z m 37.31945,5.36675 c 7.48332,-3.40963 11.56107,-10.40613 8.03565,-13.78732 -1.97322,-1.8925 -16.55836,-3.53963 -25.06249,-2.83039 -4.57774,0.3818 -9.94302,10.91269 -8.05994,15.81993 1.82677,4.76044 15.43961,5.19333 25.08678,0.79778 z m -37.31945,-31.65554 c 0,-4.78958 -1.52186,-6.95179 -4.87456,-6.92564 -10.45635,0.0816 -17.40915,3.5335 -17.40915,8.64324 0,4.26343 2.08698,5.24606 11.14186,5.24606 10.02767,0 11.14185,-0.69637 11.14185,-6.96366 z m 44.56742,0.29802 c 0,-7.89487 -4.52401,-10.04714 -21.1188,-10.04714 -11.03581,0 -12.30676,0.67121 -12.30676,6.4994 0,9.19524 1.85116,10.21338 18.56977,10.21338 13.81208,0 14.85579,-0.46829 14.85579,-6.66564 z"
       id="path3509"
       inkscape:connector-curvature="0" />
  </g>
</svg>
