<?xml version="1.0" encoding="UTF-8" standalone="no"?>
<!-- Created with Inkscape (http://www.inkscape.org/) -->

<svg
   xmlns:dc="http://purl.org/dc/elements/1.1/"
   xmlns:cc="http://creativecommons.org/ns#"
   xmlns:rdf="http://www.w3.org/1999/02/22-rdf-syntax-ns#"
   xmlns:svg="http://www.w3.org/2000/svg"
   xmlns="http://www.w3.org/2000/svg"
   xmlns:sodipodi="http://sodipodi.sourceforge.net/DTD/sodipodi-0.dtd"
   xmlns:inkscape="http://www.inkscape.org/namespaces/inkscape"
   width="300"
   height="300"
   id="svg2"
   version="1.1"
   inkscape:version="0.48.4 r9939"
   sodipodi:docname="image-seal.svg">
  <defs
     id="defs4" />
  <sodipodi:namedview
     id="base"
     pagecolor="#ffffff"
     bordercolor="#666666"
     borderopacity="1.0"
     inkscape:pageopacity="0.0"
     inkscape:pageshadow="2"
     inkscape:zoom="1.979899"
     inkscape:cx="130.93154"
     inkscape:cy="137.35134"
     inkscape:document-units="px"
     inkscape:current-layer="layer1"
     showgrid="false"
     inkscape:window-width="1215"
     inkscape:window-height="1000"
     inkscape:window-x="65"
     inkscape:window-y="24"
     inkscape:window-maximized="1"
     fit-margin-top="10"
     fit-margin-left="10"
     fit-margin-right="10"
     fit-margin-bottom="10" />
  <metadata
     id="metadata7">
    <rdf:RDF>
      <cc:Work
         rdf:about="">
        <dc:format>image/svg+xml</dc:format>
        <dc:type
           rdf:resource="http://purl.org/dc/dcmitype/StillImage" />
        <dc:title />
      </cc:Work>
    </rdf:RDF>
  </metadata>
  <g
     inkscape:label="Calque 1"
     inkscape:groupmode="layer"
     id="layer1"
     transform="translate(0,-752.36218)">
    <path
       style="fill:#000000"
       d="m 84.998161,1046.1621 c -1.700366,-53.00276 1.927644,-106.03683 1.522658,-159.00181 -17.758214,-10.59746 -18.841437,23.39372 -19.086839,34.79427 -2.666866,31.62038 -3.835731,63.45068 -3.60248,95.12884 -6.418438,21.0516 -11.135081,-9.1713 -9.046616,-17.34774 0.0078,-35.74266 0.858311,-71.79272 6.421876,-107.1286 1.237658,-18.16201 27.355263,-13.58453 28.028286,-31.71097 -1.527202,-13.29236 -23.248683,-16.553 -20.349304,-33.69774 2.23277,-10.05469 -5.678195,-37.73325 8.306344,-33.81126 4.589198,14.1415 -7.42852,38.62691 8.53339,45.7932 9.069433,-16.48713 5.868661,-45.99923 1.806381,-61.49931 -13.858192,2.5458 -22.812959,-7.92518 -4.578844,-9.26215 21.582867,-4.33357 20.556647,20.18037 16.539309,34.37039 -0.732976,9.68767 -6.517067,45.2024 10.505828,32.36673 9.10076,-12.15627 -3.02591,-38.89341 12.5822,-42.62964 3.61409,14.41724 3.26421,31.06261 -0.099,45.73345 -5.89875,12.21199 -34.330782,12.03877 -22.0847,31.21595 26.57868,6.06969 16.18335,36.61833 18.75659,56.09865 -0.26156,31.50563 0.85305,63.2017 -2.09175,94.56894 -9.27711,11.8406 -6.79734,-17.3413 -7.5787,-23.68564 -0.447,-35.67211 2.60069,-71.4606 1.19741,-107.0557 -9.84069,-18.28639 -15.338932,1.25135 -13.573678,12.17437 -3.407203,45.54713 -1.97556,91.31559 -4.899892,136.85957 -0.239223,3.7087 -1.948335,10.333 -7.208439,7.7262 z M 135.9571,993.76599 c 0.18231,-22.87264 -2.66361,-47.56397 10.27486,-67.84855 10.51086,-4.86655 26.28312,-2.19001 38.85862,-3.16989 12.27458,1.71733 29.95774,-2.09462 36.80511,10.90614 4.73383,18.28564 1.27741,37.67726 2.06863,56.38889 -0.47207,17.94002 -0.40372,44.90452 -23.53082,47.98912 -17.4655,2.3785 -36.37041,3.9191 -52.8465,-3.3573 -17.8728,13.5191 -8.6359,-20.7865 -11.5186,-30.769 -0.0472,-3.3797 -0.0799,-6.75954 -0.1113,-10.13941 z m 62.62649,32.18941 c 16.30549,-7.8868 12.62031,-29.46479 14.50315,-44.4203 -1.34697,-16.26432 6.52781,-44.87211 -16.56847,-47.89424 -14.1496,-1.14348 -30.18768,-3.57186 -43.02897,3.7261 -8.50205,10.81289 -5.58501,26.42855 -7.42659,39.44756 -0.034,14.24654 -1.02622,28.96538 2.22737,42.85618 9.51985,14.4695 29.767,8.332 44.06078,7.6708 l 3.13279,-0.6148 3.09994,-0.7713 0,0 z m -32.90823,-20.3376 c -7.38752,-14.01212 -8.05166,-31.22981 -5.06238,-46.43272 6.46746,-11.13803 30.1137,-15.72774 34.92045,-0.96497 0.80585,14.14406 4.148,29.92342 -2.18654,43.21329 -5.41372,8.2523 -20.1868,9.3146 -27.67153,4.1844 z m 16.35494,-6.68544 c 6.83984,-11.48562 11.69117,-42.62061 -9.31423,-38.72371 -11.45777,6.40769 -9.35886,49.94225 9.31423,38.72371 z m -52.79815,-83.18604 c 4.21477,-15.82354 25.06543,-15.72016 34.82567,-27.114 13.34767,-8.57086 3.18643,-29.17044 -9.80599,-15.10846 -3.93963,7.17831 -31.72094,17.37917 -20.7319,2.9693 9.5166,-7.95991 32.70038,-13.26958 32.55794,-24.63043 -10.49728,0.38534 -14.25177,-26.43467 -24.31991,-9.31188 -6.22056,8.63654 -20.57389,4.864 -8.04845,-3.46581 6.51135,-9.86007 22.25935,-22.27457 27.61692,-4.12147 18.38557,16.73741 12.20777,-16.2588 13.26636,-26.60479 -0.05,-25.05908 -25.52764,1.09834 -35.23633,8.05205 -18.86766,8.26736 0.41134,-16.37367 8.63101,-18.79321 11.96365,-7.14648 25.73635,-14.45915 26.85821,-30.29895 7.42078,-18.67443 12.22778,11.39312 17.71933,17.13789 17.34084,7.92596 34.89188,18.94851 48.40327,32.34479 -1.87156,15.87321 -25.27331,-3.29926 -32.06462,-9.60499 -8.32078,-10.28059 -26.08312,-15.19856 -23.42589,3.82664 0.82287,8.47903 -3.04754,38.85513 10.17531,19.46032 7.33799,-23.4086 26.57548,2.87838 33.71835,12.58546 -10.31627,10.41728 -19.82685,-18.554 -30.29833,-2.06202 -9.6719,3.98562 -18.07103,9.05427 -3.63324,15.81468 12.69087,8.49081 39.62546,9.36792 40.95514,26.28519 -15.69201,2.17894 -29.94484,-10.79622 -44.70256,-15.67881 -19.19376,4.87372 1.71882,26.53689 14.56294,27.24114 9.53328,6.43648 33.66343,12.12829 31.56287,22.39683 -17.51569,3.10316 -29.34565,-13.89232 -45.85037,-17.2949 -15.09817,-9.02748 -30.66972,2.58749 -43.3651,10.59765 -5.73967,4.12054 -11.74732,11.78973 -19.37063,5.37778 z"
       id="path3093"
       inkscape:connector-curvature="0" />
  </g>
</svg>
