<?xml version="1.0" encoding="UTF-8" standalone="no"?>
<!-- Created with Inkscape (http://www.inkscape.org/) -->

<svg
   xmlns:dc="http://purl.org/dc/elements/1.1/"
   xmlns:cc="http://creativecommons.org/ns#"
   xmlns:rdf="http://www.w3.org/1999/02/22-rdf-syntax-ns#"
   xmlns:svg="http://www.w3.org/2000/svg"
   xmlns="http://www.w3.org/2000/svg"
   xmlns:sodipodi="http://sodipodi.sourceforge.net/DTD/sodipodi-0.dtd"
   xmlns:inkscape="http://www.inkscape.org/namespaces/inkscape"
   width="300"
   height="300"
   viewBox="0 0 300 300"
   id="svg2"
   version="1.1"
   inkscape:version="0.91 r13725"
   sodipodi:docname="空-seal.svg">
  <defs
     id="defs4">
    <clipPath
       clipPathUnits="userSpaceOnUse"
       id="clipPath4204">
      <rect
         style="fill:#0000ff;fill-rule:evenodd;stroke:#000000;stroke-width:1px;stroke-linecap:butt;stroke-linejoin:miter;stroke-opacity:1"
         id="rect4206"
         width="15.451179"
         height="21.584471"
         x="164.41942"
         y="794.64594" />
    </clipPath>
  </defs>
  <sodipodi:namedview
     id="base"
     pagecolor="#ffffff"
     bordercolor="#666666"
     borderopacity="1.0"
     inkscape:pageopacity="0.0"
     inkscape:pageshadow="2"
     inkscape:zoom="1.71"
     inkscape:cx="150"
     inkscape:cy="150"
     inkscape:document-units="px"
     inkscape:current-layer="layer1"
     showgrid="false"
     inkscape:window-width="1280"
     inkscape:window-height="751"
     inkscape:window-x="0"
     inkscape:window-y="1"
     inkscape:window-maximized="1"
     units="px"
     showguides="false" />
  <metadata
     id="metadata7">
    <rdf:RDF>
      <cc:Work
         rdf:about="">
        <dc:format>image/svg+xml</dc:format>
        <dc:type
           rdf:resource="http://purl.org/dc/dcmitype/StillImage" />
        <dc:title></dc:title>
      </cc:Work>
    </rdf:RDF>
  </metadata>
  <g
     inkscape:label="Layer 1"
     inkscape:groupmode="layer"
     id="layer1"
     transform="translate(0,-752.36216)">
    <path
       style="fill:#000000"
       d="m 150.14011,767.37198 c -1.05366,-0.0475 -2.26985,0.0761 -3.66992,0.34375 -5.51903,1.05503 -6.40821,2.57137 -6.40821,10.91601 0,11.27613 -0.3307,11.43546 -28.49414,13.84961 -36.488664,3.12781 -39.109967,9.42042 -35.974607,86.33398 1.19566,29.33113 2.104332,75.89915 2.019532,103.48438 -0.11529,37.48359 0.618194,50.15629 2.902344,50.15629 8.779069,0 9.388097,-6.2893 8.429687,-86.97465 -0.51848,-43.64956 -1.949981,-80.09367 -3.181641,-80.98828 -1.23167,-0.89459 -1.465321,-5.75149 -0.519531,-10.79297 1.26149,-6.72439 3.00864,-9.16797 6.5625,-9.16797 4.61512,0 9.250146,-1.57679 26.802736,-9.125 11.1698,-4.80339 17.30581,-12.42998 15.51367,-19.2832 -0.82278,-3.14643 -0.84227,-8.327 -0.043,-11.51172 1.26505,-5.04033 3.062,-5.78906 13.875,-5.78906 l 12.42383,0 0,11.30664 c 0,21.30821 4.8997,26.29036 31.23633,31.75781 12.19766,2.53223 14.48952,3.87541 14.57812,8.53906 0.92658,48.72032 4.26772,124.86011 6.62729,131.18832 0.95569,29.11442 -0.31688,34.85342 5.00162,51.47582 1.89154,6.4383 5.69416,5.45 7.55469,-1.9629 0.0939,-26.4679 -4.08331,-55.09644 -5.49024,-78.03131 -1.15097,-18.50654 -2.15622,-59.47111 -2.23242,-91.03126 -0.10049,-41.68427 -0.99663,-58.4167 -3.2793,-61.16796 -3.18064,-3.83354 -18.37496,-7.81539 -43.83984,-11.48828 -13.37976,-1.92981 -13.97316,-2.3405 -14.13086,-9.75 -0.18457,-8.67751 -1.69783,-12.08128 -6.26367,-12.28711 z m -34.04688,32.48242 c 4.76389,-0.0741 6.18831,2.22272 6.15625,7.37109 -0.0744,11.94288 -3.18013,16.74983 -14.1582,21.91016 -16.490447,7.75141 -21.366618,7.06272 -21.324218,-3.01367 0.06907,-16.43897 2.196864,-19.45043 16.738278,-23.67774 5.66899,-1.64802 9.72956,-2.5454 12.58789,-2.58984 z m 58.25196,2.77734 12.69726,0.72461 c 18.80137,1.07324 19.04492,1.29201 19.04492,16.97266 0,15.20068 -0.19044,15.33791 -15.23632,11.06054 -13.43162,-3.81843 -18.14864,-9.21267 -17.26368,-19.74023 z m -3.94336,68.85547 c -4.67883,0.0509 -10.43571,0.46659 -17.28321,1.24414 -10.67348,1.212 -24.54874,2.50588 -30.83398,2.875 -8.1667,0.47961 -11.42774,1.75823 -11.42774,4.48047 0,2.89184 3.76182,3.98962 15.61915,4.55859 l 15.61914,0.74805 -0.38282,24.64648 -0.38086,24.64454 -19.04296,0.75976 c -19.82927,0.79022 -27.034129,3.77305 -20.29883,8.40625 5.60974,3.85896 91.51595,1.10481 94.0625,-3.01562 2.76345,-4.47136 0.56381,-8.73424 -6.44336,-12.48438 -5.14085,-2.75128 -6.69913,-2.59383 -10.33985,1.04688 -2.82859,2.82859 -7.41835,4.02524 -13.49414,3.51757 l -9.20703,-0.76953 -0.73047,-23.49023 c -0.71464,-22.9908 -0.60553,-23.48871 5.08008,-23.50391 10.13473,-0.0247 24.85547,-5.17562 24.85547,-8.69726 0,-3.42797 -5.07769,-5.07883 -15.37109,-4.9668 z"
       id="path5793"
       inkscape:connector-curvature="0"
       sodipodi:nodetypes="sssssssscsssssscsscccccssscsscsssscsssccsssscccccssssccccsss" />
  </g>
</svg>
