<?xml version="1.0" encoding="UTF-8" standalone="no"?>
<!-- Created with Inkscape (http://www.inkscape.org/) -->

<svg
   xmlns:dc="http://purl.org/dc/elements/1.1/"
   xmlns:cc="http://creativecommons.org/ns#"
   xmlns:rdf="http://www.w3.org/1999/02/22-rdf-syntax-ns#"
   xmlns:svg="http://www.w3.org/2000/svg"
   xmlns="http://www.w3.org/2000/svg"
   xmlns:sodipodi="http://sodipodi.sourceforge.net/DTD/sodipodi-0.dtd"
   xmlns:inkscape="http://www.inkscape.org/namespaces/inkscape"
   width="300"
   height="300"
   id="svg2"
   version="1.1"
   inkscape:version="0.48.2 r9819"
   sodipodi:docname="Nouveau document 1">
  <defs
     id="defs4" />
  <sodipodi:namedview
     id="base"
     pagecolor="#ffffff"
     bordercolor="#666666"
     borderopacity="1.0"
     inkscape:pageopacity="0.0"
     inkscape:pageshadow="2"
     inkscape:zoom="3.959798"
     inkscape:cx="192.76978"
     inkscape:cy="175.59016"
     inkscape:document-units="px"
     inkscape:current-layer="layer1"
     showgrid="false"
     inkscape:window-width="1280"
     inkscape:window-height="999"
     inkscape:window-x="0"
     inkscape:window-y="24"
     inkscape:window-maximized="1" />
  <metadata
     id="metadata7">
    <rdf:RDF>
      <cc:Work
         rdf:about="">
        <dc:format>image/svg+xml</dc:format>
        <dc:type
           rdf:resource="http://purl.org/dc/dcmitype/StillImage" />
        <dc:title></dc:title>
      </cc:Work>
    </rdf:RDF>
  </metadata>
  <g
     inkscape:label="Calque 1"
     inkscape:groupmode="layer"
     id="layer1"
     transform="translate(0,-752.36217)">
    <path
       style="fill:#000000"
       d="m 41.974705,1016.5083 c 7.532614,-46.335 9.267493,-73.56152 8.455561,-132.69832 -0.700949,-51.05332 0.08792,-66.18578 3.4913,-66.97208 2.418274,-0.55872 4.396862,-2.54042 4.396862,-4.40379 0,-5.9105 14.939615,-10.34695 44.883862,-13.32868 31.59228,-3.14582 28.74787,-1.40305 34.54738,-21.16723 3.48887,-11.88975 19.05847,-4.20278 19.05847,9.40949 0,10.43494 0.50284,10.57286 48.07185,13.1856 45.47429,2.49769 42.61497,-3.41746 44.60319,92.272 0.91679,44.12355 2.46894,81.86559 3.44923,83.87121 0.98029,2.00562 2.73692,14.3128 3.90363,27.3493 1.72892,19.3185 1.21688,23.7027 -2.76829,23.7027 -6.81437,0 -11.97344,-21.0952 -14.75086,-60.31565 -1.26032,-17.79724 -2.8077,-34.20682 -3.43861,-36.46574 -0.63091,-2.25892 -1.26822,-22.29844 -1.41624,-44.53227 l -0.26913,-40.42514 -9.67309,-2.52478 c -5.32021,-1.38863 -17.54971,-3.17529 -27.17667,-3.97036 -21.33531,-1.76204 -25.48909,-4.41535 -30.97819,-19.78794 -4.08417,-11.43799 -4.8768,-12.02231 -17.27415,-12.73446 -12.57912,-0.72259 -13.06242,-0.45119 -15.152,8.50867 -1.18713,5.09029 -2.82071,11.52896 -3.63016,14.30816 -1.63211,5.60366 -15.025,10.74873 -27.97952,10.74873 -4.631342,0 -9.398888,1.09398 -10.59455,2.43105 -1.195661,1.33708 -7.620557,2.43105 -14.27755,2.43105 l -12.103622,0 -0.244366,43.15113 c -0.607815,107.33072 -5.015876,137.64875 -20.522171,141.14855 -4.031904,0.9101 -4.51115,-1.5101 -2.612166,-13.1912 z m 50.35112,-183.51328 c 19.206195,-2.31157 22.279055,-3.39929 22.320465,-7.90091 0.0264,-2.87117 1.06712,-7.85261 2.31267,-11.06987 2.25318,-5.81999 2.1603,-5.84109 -18.366815,-4.1737 -24.597593,1.99804 -33.238737,6.59778 -33.238737,17.6932 0,4.47253 1.057495,8.13189 2.349989,8.13189 1.292494,0 12.372587,-1.20628 24.622428,-2.68061 z m 141.136805,-7.04579 c 1.53398,-9.0682 -6.4539,-14.73452 -22.92373,-16.26128 -21.74246,-2.01553 -32.62582,0.54873 -32.62582,7.68706 0,4.31764 3.09037,6.88922 11.43184,9.51273 25.93077,8.1556 42.63948,7.80016 44.11771,-0.93851 z m -37.9621,187.91607 c -23.75541,-11.4802 -45.77891,-32.0852 -45.67441,-42.7326 0.0623,-6.34352 6.46064,-19.13239 15.26898,-30.51915 13.76036,-17.78836 4.32541,-32.00644 -21.23911,-32.00644 -23.78107,0 -29.3814,11.89907 -30.3208,64.42282 -0.58557,32.74057 -1.53075,38.89677 -5.97191,38.89677 -4.42982,0 -5.36886,-5.8498 -5.85363,-36.46572 -0.79329,-50.09984 2.66419,-63.06587 26.33063,-78.08892 4.55029,-2.88845 7.53123,-3.59662 11.06317,-4.14758 1.15301,-3.40578 0.82044,-13.3256 0.58349,-15.04235 -2.62238,0.0512 -11.86213,-0.0478 -26.84742,-0.17938 -32.40229,-0.28457 -33.416153,-0.42001 -33.416153,-4.46391 0,-2.68901 6.035952,-3.4864 26.962173,-3.56191 14.8292,-0.0535 31.98472,-2.3877 34.30725,-2.0023 0.93357,-2.64506 0.0459,-8.51033 1.00168,-15.65753 0.9558,-7.1472 2.39946,-13.46895 3.20814,-14.04835 3.76966,-2.70091 8.62701,4.90129 9.92791,15.53809 0.7877,6.44061 0.30522,10.53945 0.183,13.12342 3.53145,0.15106 11.59988,1.65697 18.92161,0.91428 4.55691,-0.46224 8.5914,-1.26276 11.36425,-1.41079 -0.0963,-3.36297 0.62527,-5.36131 1.74452,-8.49183 2.28797,-6.39942 5.3164,-9.10583 10.79263,-9.645 9.88774,-0.97353 15.42667,8.85214 6.85832,12.16618 -6.97096,2.69621 -7.15064,11.2812 -0.5925,28.30984 4.76094,12.36208 4.2416,19.83417 -1.37857,19.83417 -4.15266,0 -10.82919,-11.92262 -13.10629,-23.40456 -1.0057,-5.07112 -2.58682,-6.7439 -3.58311,-9.83945 -3.77852,0.14627 -10.44662,-0.82498 -21.26771,1.78214 -3.1238,0.75261 -7.05852,0.49039 -10.20215,0.85804 -0.57175,2.96447 -1.67952,5.87184 -2.63395,9.17004 -1.69396,5.85377 -1.91144,4.43377 -1.56309,7.24155 3.98195,0.89483 9.70526,4.34618 15.57718,8.17929 5.08788,3.3213 26.03838,14.79993 26.03838,21.75204 0,2.22684 -4.57741,8.64692 -10.17201,14.26685 -12.49403,12.55057 -19.64353,28.25625 -16.63457,36.542 2.8576,7.86895 15.39349,16.56058 35.81487,24.83186 12.08548,4.89499 15.72704,7.72929 14.92128,11.61379 -1.3875,6.6889 -9.41429,7.5794 -20.41208,2.2646 z"
       id="path2996"
       inkscape:connector-curvature="0"
       sodipodi:nodetypes="ssssssssssssssscssssssssscscsssssssssssssssssssssccssscssscscsssssscscscsssssss" />
  </g>
</svg>
