<?xml version="1.0" encoding="UTF-8" standalone="no"?>
<!-- Created with Inkscape (http://www.inkscape.org/) -->

<svg
   xmlns:dc="http://purl.org/dc/elements/1.1/"
   xmlns:cc="http://creativecommons.org/ns#"
   xmlns:rdf="http://www.w3.org/1999/02/22-rdf-syntax-ns#"
   xmlns:svg="http://www.w3.org/2000/svg"
   xmlns="http://www.w3.org/2000/svg"
   xmlns:sodipodi="http://sodipodi.sourceforge.net/DTD/sodipodi-0.dtd"
   xmlns:inkscape="http://www.inkscape.org/namespaces/inkscape"
   width="300"
   height="300"
   id="svg2"
   version="1.1"
   inkscape:version="0.48.4 r9939"
   sodipodi:docname="image-seal.svg">
  <defs
     id="defs4" />
  <sodipodi:namedview
     id="base"
     pagecolor="#ffffff"
     bordercolor="#666666"
     borderopacity="1.0"
     inkscape:pageopacity="0.0"
     inkscape:pageshadow="2"
     inkscape:zoom="2.0018437"
     inkscape:cx="145.03351"
     inkscape:cy="130.6666"
     inkscape:document-units="px"
     inkscape:current-layer="layer1"
     showgrid="false"
     inkscape:window-width="1215"
     inkscape:window-height="1000"
     inkscape:window-x="65"
     inkscape:window-y="24"
     inkscape:window-maximized="1"
     fit-margin-top="10"
     fit-margin-left="10"
     fit-margin-right="10"
     fit-margin-bottom="10" />
  <metadata
     id="metadata7">
    <rdf:RDF>
      <cc:Work
         rdf:about="">
        <dc:format>image/svg+xml</dc:format>
        <dc:type
           rdf:resource="http://purl.org/dc/dcmitype/StillImage" />
        <dc:title />
      </cc:Work>
    </rdf:RDF>
  </metadata>
  <g
     inkscape:label="Calque 1"
     inkscape:groupmode="layer"
     id="layer1"
     transform="translate(0,-752.36218)">
    <path
       style="fill:#000000"
       d="m 236.83759,1044.5068 c -2.4106,-7.3948 -8.95499,-91.0146 -13.22699,-169.00499 -1.24417,-22.71414 -3.11529,-42.67861 -4.15805,-44.36601 -1.04273,-1.68711 -10.67514,-3.88743 -21.40534,-4.88948 -22.52507,-2.10337 -29.0154,-7.29073 -32.12106,-25.67296 l -1.95344,-11.56224 -17.31189,0 c -19.00194,0 -17.66144,-1.4867 -21.7789,24.15431 -1.58593,9.87618 -2.95045,11.2566 -14.09436,14.25714 -6.78613,1.82753 -16.017758,3.78814 -20.514728,4.35717 -4.49694,0.56932 -9.64437,1.9421 -11.43868,3.05107 -3.16925,1.95885 -2.34806,49.99255 2.26777,132.64441 0.98792,17.6896 0.56122,30.1113 -1.03435,30.1113 -6.01267,0 -9.34391,-14.9493 -10.80138,-48.47176 -0.84297,-19.38868 -2.41513,-53.21371 -3.49372,-75.1664 -1.0786,-21.95269 -1.02047,-47.44235 0.12925,-56.64374 3.15616,-25.26093 8.20409,-28.46577 52.118078,-33.08882 l 16.69063,-1.75711 1.92547,-11.39679 c 1.05904,-6.26824 3.19032,-12.1785 4.73625,-13.13392 4.32626,-2.67376 11.36641,4.61042 11.36641,11.76038 0,11.40286 5.43168,13.4474 35.72523,13.4474 39.38829,0 39.25839,-0.16245 41.77304,52.26114 3.88376,80.96597 4.86894,96.56564 7.64566,121.06206 4.61942,40.75236 6.14393,83.39304 3.14796,88.04784 -2.45035,3.8072 -2.95169,3.8072 -4.19274,0 z M 102.20924,821.0907 c 6.55869,-2.2864 10.05235,-6.05485 12.50617,-13.49012 4.40337,-13.34235 1.1635,-16.40368 -14.67935,-13.87031 -9.754588,1.55982 -13.759768,4.02318 -18.091698,11.12722 -8.17759,13.41068 -7.31594,19.4059 2.78909,19.4059 4.60605,0 12.47019,-1.42771 17.475788,-3.17269 z M 216.7899,806.24487 c 0.80892,-9.68703 0.0206,-10.97755 -8.51698,-13.95398 -5.17461,-1.80388 -14.49892,-3.27977 -20.72069,-3.27977 -12.33678,0 -14.13438,3.94574 -8.52235,18.70667 2.81092,7.39297 11.83908,10.30597 29.52447,9.52543 6.25026,-0.27614 7.47695,-1.91419 8.23555,-10.99835 z M 75.147542,1042.0682 c -1.68514,-2.7265 -2.61824,-24.5446 -1.43124,-33.4654 1.01324,-7.6154 5.30874,-6.2376 8.74694,2.8057 4.77817,12.5674 -1.705,39.7383 -7.3157,30.6597 z M 107.30311,1024.76 c 10.41749,-24.3863 18.94795,-86.95089 13.83298,-101.45481 -1.8315,-5.19352 -3.5182,-16.71333 -3.74822,-25.59981 -0.23002,-8.88649 -0.63245,-23.30932 -0.89431,-32.05038 -0.50511,-16.86081 5.64874,-25.17562 7.39058,-9.98576 0.80366,7.00842 2.45038,8.39618 10.92168,9.20522 5.48644,0.52379 11.60639,2.58339 13.59989,4.5769 2.15588,2.15597 4.31011,16.05442 5.31629,34.29976 0.93046,16.87139 2.38296,37.28503 3.22784,45.36364 0.8449,8.07862 2.14248,21.29816 2.88357,29.37676 0.74105,8.0787 2.87208,21.0253 4.73559,28.77018 5.64655,23.4679 -2.62928,31.212 -8.81312,8.2469 -3.90233,-14.4921 -6.36243,-39.26138 -8.78246,-88.42643 -2.1307,-43.28671 -3.76502,-49.94055 -12.26616,-49.94055 -5.38988,0 -5.62877,2.49497 -5.15319,53.82974 0.41389,44.67686 -0.39192,56.54036 -4.73892,69.76984 -2.88069,8.7669 -7.0301,16.9971 -9.22091,18.2894 -2.19083,1.292 -3.98331,4.2664 -3.98331,6.6098 0,2.3431 -1.46341,4.2605 -3.25198,4.2605 -1.9753,0 -2.38981,-2.0185 -1.05584,-5.1409 z m 81.24514,-32.68488 c -8.15138,-14.5033 -18.89765,-75.76395 -14.67717,-83.66895 1.9807,-3.71 1.88569,-6.48376 -0.29674,-8.66616 -6.74091,-6.7408 -1.3508,-51.97518 6.19336,-51.97518 1.29114,0 2.44927,16.19395 2.57365,35.98657 0.12426,19.79261 0.59767,39.95244 1.05186,44.79961 0.9932,10.60003 12.64994,53.31211 16.52639,60.55551 8.77203,16.39048 -2.21557,19.25918 -11.37135,2.9686 z M 95.430602,964.53758 c 3.642169,-20.48914 4.637798,-69.29457 1.45377,-71.26252 -3.14711,-1.94504 -4.10285,-30.82184 -1.02011,-30.82184 1.03365,0 3.635529,2.31342 5.781908,5.14094 4.78962,6.30955 5.83118,93.31686 1.15172,96.209 -1.61572,0.99852 -2.937679,4.38126 -2.937679,7.51756 0,3.1359 -1.496009,5.702 -3.324479,5.702 -2.30085,0 -2.64112,-3.8445 -1.10513,-12.48514 z M 210.5416,955.72454 c -13.97613,-32.04714 -21.70872,-90.00109 -13.15043,-98.55914 7.01999,-7.02017 8.2255,-3.0026 8.2255,27.41295 0,23.51231 1.46578,35.32296 6.10688,49.20613 3.35876,10.04746 7.32463,19.52382 8.81303,21.05876 4.14169,4.27109 3.21911,10.42876 -1.56252,10.42876 -2.34779,0 -6.14239,-4.29636 -8.43246,-9.54746 z"
       id="path3260"
       inkscape:connector-curvature="0" />
  </g>
</svg>
