<?xml version="1.0" encoding="UTF-8" standalone="no"?>
<svg
   xmlns:dc="http://purl.org/dc/elements/1.1/"
   xmlns:cc="http://creativecommons.org/ns#"
   xmlns:rdf="http://www.w3.org/1999/02/22-rdf-syntax-ns#"
   xmlns:svg="http://www.w3.org/2000/svg"
   xmlns="http://www.w3.org/2000/svg"
   viewBox="0 0 300 300"
   height="300"
   width="300"
   id="svg80"
   version="1.1">
  <metadata
     id="metadata86">
    <rdf:RDF>
      <cc:Work
         rdf:about="">
        <dc:format>image/svg+xml</dc:format>
        <dc:type
           rdf:resource="http://purl.org/dc/dcmitype/StillImage" />
        <dc:title></dc:title>
      </cc:Work>
    </rdf:RDF>
  </metadata>
  <defs
     id="defs84" />
  <path
     id="path90"
     d="m 93.789402,272.01121 c -0.132826,-25.12375 -0.746834,-51.82712 18.833448,-64.74157 11.55878,-7.62376 11.19853,-14.65936 11.10408,-26.64542 -15.46392,-2.1527 -25.94203,-11.48559 -28.288282,-23.26973 -2.365553,-12.47018 -2.437163,-37.35694 -0.714122,-45.41494 0.471777,-2.20633 3.269159,-4.11743 6.356544,-3.93443 3.97339,0.23552 5.45974,5.95458 6.24952,11.26707 l 35.67309,0.44336 0.24376,-12.90256 c -11.96725,-0.10934 -28.01044,-0.5038 -42.08328,-2.27882 -17.630348,-2.22375 -18.889944,-20.938231 -16.780403,-33.475041 1.302131,-7.646344 1.423611,-7.799107 6.218386,-7.81978 2.030587,-0.0087 3.610606,1.92166 3.945084,8.443234 0.556853,10.857397 0.160424,18.035654 10.189333,20.060202 12.86307,2.596684 24.32688,2.483914 39.14995,2.439664 l -0.0138,-9.455501 C 121.48564,83.246957 113.48592,77.591892 113.3963,57.030305 H 95.530413 c -5.425377,0 -27.758325,0.495592 -28.119836,-7.419242 0.213367,-3.942242 3.704131,-5.589996 8.190246,-5.596567 l 73.572567,-0.107769 c 56.14994,-0.08225 74.43315,-0.172288 76.85422,0.736887 7.73553,2.904897 8.60673,8.757339 2.74578,11.131713 -3.86088,1.564105 -4.4419,1.279743 -23.37177,1.413544 l -19.49667,0.137806 c 0.16475,19.253647 -13.17741,26.594954 -27.91009,27.733839 l 0.0298,8.982393 c 7.89816,-0.05 26.32165,0.59194 35.69846,-3.268437 9.22442,-3.797637 8.15104,-13.193773 8.12466,-22.539604 -0.009,-3.137976 3.62234,-5.286763 6.74209,-5.004925 5.80133,0.524092 5.99519,9.917856 5.98439,14.331306 -0.33464,9.456817 -2.8059,18.01979 -9.144,22.00988 -14.03694,8.836821 -33.98938,7.035201 -47.60309,7.245431 l -0.17451,12.07551 35.35887,0.47905 c 1.00048,-7.9411 7.89318,-16.95484 11.40624,-7.61617 1.90324,5.05933 1.45425,14.22012 1.40866,21.35316 -0.0538,8.40668 -0.97394,16.61192 -2.06558,23.1899 -2.82941,17.04921 -16.41477,24.61972 -30.33945,25.03936 0.29777,11.62543 7.81753,12.52999 21.71187,17.48295 19.25074,6.86239 13.0106,22.64155 4.07865,30.12954 -9.82821,8.23936 -14.27229,15.30745 -11.3396,19.69069 6.26598,9.36518 28.9217,20.50671 28.9217,20.50671 9.59251,6.21358 13.07075,7.71685 12.60307,11.07732 -1.50767,10.83315 -22.60104,-1.02103 -29.63616,-5.77293 -16.88819,-11.27611 -38.242,-27.34481 -18.75682,-45.75764 15.45182,-14.60143 15.10796,-16.84762 -0.53172,-22.05347 -19.29784,-6.45085 -19.68603,-12.91488 -19.80525,-24.89433 l -24.33929,-0.22973 c -0.2227,20.62142 -3.84311,27.67281 -19.62266,38.77097 -11.04164,7.76588 -10.10582,30.77148 -10.42151,38.91274 -0.87047,22.66584 -0.7857,23.68588 -2.39682,24.62635 -8.398397,4.90244 -10.071054,-6.82672 -10.097428,-11.81533 z m 98.086998,-115.29199 -82.30159,0.3165 c 3.49247,14.41313 26.93128,12.33966 43.12599,12.11761 13.36412,-0.18324 38.02657,1.17587 39.1756,-12.43411 z m 1.59349,-12.89365 V 132.804 l -86.10609,-0.90716 v 12.83954 z M 172.20687,57.3087 128.71811,56.846236 c -0.59678,16.656896 8.45884,15.172705 22.07245,15.594048 11.79756,0.365138 21.3134,-0.638956 21.41631,-15.131584 z M 131.12908,27.253292 C 107.51498,27.030376 106.80693,26.731701 105.82921,25.126805 101.9388,18.740747 109.69427,15.051042 113.90786,15 l 35.13129,0.01603 c 36.7022,0.01675 41.3869,0.339684 44.39307,3.060233 3.40504,3.081524 2.24306,7.309606 -2.44815,8.908062 -3.75236,1.27856 -13.27267,0.708705 -59.85499,0.268971 z"
     style="fill:#000000;stroke-width:0.68884873" />
</svg>
