<?xml version="1.0" encoding="UTF-8" standalone="no"?>
<!-- Created with Inkscape (http://www.inkscape.org/) -->

<svg
   xmlns:dc="http://purl.org/dc/elements/1.1/"
   xmlns:cc="http://creativecommons.org/ns#"
   xmlns:rdf="http://www.w3.org/1999/02/22-rdf-syntax-ns#"
   xmlns:svg="http://www.w3.org/2000/svg"
   xmlns="http://www.w3.org/2000/svg"
   xmlns:sodipodi="http://sodipodi.sourceforge.net/DTD/sodipodi-0.dtd"
   xmlns:inkscape="http://www.inkscape.org/namespaces/inkscape"
   width="300"
   height="300"
   id="svg2"
   version="1.1"
   inkscape:version="0.48.3.1 r9886"
   sodipodi:docname="dessin.svg">
  <defs
     id="defs4" />
  <sodipodi:namedview
     id="base"
     pagecolor="#ffffff"
     bordercolor="#666666"
     borderopacity="1.0"
     inkscape:pageopacity="0.0"
     inkscape:pageshadow="2"
     inkscape:zoom="1.979899"
     inkscape:cx="66.959549"
     inkscape:cy="133.99264"
     inkscape:document-units="px"
     inkscape:current-layer="layer1"
     showgrid="false"
     inkscape:window-width="1215"
     inkscape:window-height="1000"
     inkscape:window-x="65"
     inkscape:window-y="24"
     inkscape:window-maximized="1" />
  <metadata
     id="metadata7">
    <rdf:RDF>
      <cc:Work
         rdf:about="">
        <dc:format>image/svg+xml</dc:format>
        <dc:type
           rdf:resource="http://purl.org/dc/dcmitype/StillImage" />
        <dc:title />
      </cc:Work>
    </rdf:RDF>
  </metadata>
  <g
     inkscape:label="Calque 1"
     inkscape:groupmode="layer"
     id="layer1"
     transform="translate(0,-752.36218)">
    <path
       style="fill:#000000"
       d="m 137.40268,1009.4088 c 0.19073,-16.08398 -0.0588,-29.63645 -0.55479,-30.1166 -0.4959,-0.48012 -17.22183,-1.94942 -37.168741,-3.26512 -27.031488,-1.78297 -37.28614,-3.39369 -40.26879,-6.32505 -2.200939,-2.16308 -4.001707,-4.55034 -4.001707,-5.30499 0,-0.75465 18.120967,-1.68348 40.268803,-2.06408 l 40.268805,-0.69199 0.79353,-9.423 0.79352,-9.42298 -11.57298,0 c -15.05802,0 -28.493639,-6.46408 -34.609232,-16.651 -3.907733,-6.50923 -4.921065,-13.23073 -5.041392,-33.43981 -0.148625,-24.95905 -0.07081,-25.29299 5.894687,-25.29299 3.324923,0 7.623795,2.20633 9.553087,4.90299 2.69115,3.76155 6.78153,4.98137 17.56991,5.2398 19.81192,0.47457 20.45399,0.3514 20.45399,-3.92301 0,-4.54433 -7.43091,-7.63576 -24.3471,-10.12886 -17.964901,-2.64772 -29.34464,-13.38928 -29.34464,-27.69909 0,-5.88408 0.698367,-12.48692 1.551929,-14.67301 1.841235,-4.71571 10.982152,-5.33325 12.34061,-0.83373 0.521581,1.72755 2.334511,8.41993 4.028791,14.87193 3.20323,12.19822 4.73512,13.25107 23.78741,16.34861 9.53661,1.55048 15.32631,-3.09398 11.83932,-9.49746 -1.42613,-2.61893 -4.07774,-4.76171 -5.89248,-4.76171 -5.41113,0 -14.87099,-11.63542 -16.72101,-20.56639 l -1.72565,-8.33074 -19.078773,-0.63581 c -25.422134,-0.84722 -30.584136,-2.2038 -30.584136,-8.03749 0,-6.55286 5.473587,-7.69187 29.402614,-6.11854 20.614815,1.35543 49.090815,2.28366 104.013195,3.39049 30.97538,0.62422 34.78708,2.06253 31.02191,11.70568 -1.26196,3.23211 -4.01808,3.79562 -13.34267,2.72813 -6.46373,-0.73997 -17.21726,-0.72986 -23.89677,0.0227 -10.57293,1.19084 -12.14456,2.11734 -12.14456,7.15948 0,11.76172 -4.3018,17.64822 -15.25397,20.87317 -7.71468,2.27163 -10.40551,4.29596 -9.80989,7.38007 1.03039,5.33544 21.86634,7.0726 27.62061,2.30285 5.82509,-4.82846 10.227,-13.61965 10.227,-20.42466 0,-6.53628 3.65528,-8.91788 10.86618,-7.07983 3.6018,0.9181 4.47432,3.93177 4.47432,15.45405 0,12.35717 -0.96103,15.2058 -7.03106,20.84123 -5.81722,5.40068 -10.45186,6.83423 -26.84588,8.30373 -16.59021,1.48715 -19.8148,2.50166 -19.8148,6.23413 0,2.70757 2.61546,5.10311 6.6611,6.10104 9.34128,2.30422 29.27105,-1.03977 30.88865,-5.18274 2.06994,-5.30144 10.49653,-4.10039 13.80052,1.96699 3.86245,7.09304 1.87084,41.16599 -2.98731,51.10712 -4.78182,9.7849 -18.21127,16.07125 -34.65549,16.22232 -13.03142,0.11962 -13.15245,0.19446 -14.86617,9.17222 -0.95029,4.97835 -1.35543,9.41753 -0.90031,9.8648 1.40361,1.37949 33.01238,4.08786 52.90128,4.53279 15.02021,0.33601 19.46579,1.33657 21.73236,4.89137 4.62031,7.24614 -0.45742,8.19027 -36.78014,6.83863 -18.57002,-0.69102 -34.53371,-0.69102 -35.47487,0 -0.94115,0.69102 -2.06169,11.1096 -2.49012,23.15237 -1.00923,28.3678 -3.04693,35.6801 -10.23058,36.7121 -5.58826,0.8029 -5.66029,0.4178 -5.31812,-28.4298 z m 49.88926,-87.82462 c 1.99345,-2.68271 3.62443,-5.81962 3.62443,-6.97094 0,-1.15131 -19.27149,-1.78325 -42.82555,-1.40433 -36.0511,0.57998 -42.82555,1.28519 -42.82555,4.45815 0,6.13547 20.49994,9.90596 50.70652,9.32628 24.09782,-0.46244 28.16662,-1.16514 31.32015,-5.40916 z m 3.07184,-18.60506 c 4.78449,-2.98365 0.9283,-10.42045 -5.47364,-10.5561 -3.01351,-0.0639 -19.86086,-0.47801 -37.43851,-0.92033 -32.42301,-0.81587 -46.0215,0.20806 -46.0215,3.46557 0,3.79347 20.24049,7.09503 45.95715,7.49635 14.72981,0.22993 27.28984,0.91756 27.91116,1.52823 1.86349,1.83144 11.54787,1.17981 15.06534,-1.01372 z m -29.48921,-78.08131 c 3.30124,-0.35144 2.08779,-12.75231 -1.27838,-13.06428 -1.75776,-0.16282 -6.64755,-0.51547 -10.86618,-0.7835 -4.21864,-0.26798 -9.39606,-0.98276 -11.50537,-1.58838 -2.61273,-0.75017 -4.08495,1.01957 -4.61893,5.55228 -1.05763,8.97785 7.77405,12.06577 28.26886,9.88388 z m -38.99044,-35.38324 c 0,-1.38204 -4.88977,-2.54876 -10.86618,-2.59271 -12.677975,-0.0932 -21.218538,-5.26444 -18.823862,-11.3976 1.470815,-3.76701 6.390773,-4.03623 49.734532,-2.72164 26.45622,0.80242 50.02727,2.18495 52.3801,3.0723 4.9863,1.88053 5.75378,10.22237 1.08196,11.75976 -1.75776,0.57844 -17.12991,0.52607 -34.16037,-0.11644 -21.42666,-0.80825 -31.51424,-0.29374 -32.74943,1.6705 -2.20906,3.51288 -6.59675,3.72955 -6.59675,0.32577 z"
       id="path3002"
       inkscape:connector-curvature="0" />
  </g>
</svg>
