<?xml version="1.0" encoding="UTF-8" standalone="no"?>
<!-- Created with Inkscape (http://www.inkscape.org/) -->

<svg
   xmlns:dc="http://purl.org/dc/elements/1.1/"
   xmlns:cc="http://creativecommons.org/ns#"
   xmlns:rdf="http://www.w3.org/1999/02/22-rdf-syntax-ns#"
   xmlns:svg="http://www.w3.org/2000/svg"
   xmlns="http://www.w3.org/2000/svg"
   xmlns:sodipodi="http://sodipodi.sourceforge.net/DTD/sodipodi-0.dtd"
   xmlns:inkscape="http://www.inkscape.org/namespaces/inkscape"
   width="300"
   height="300"
   id="svg2"
   version="1.1"
   inkscape:version="0.91 r13725"
   sodipodi:docname="image-seal.svg">
  <defs
     id="defs4" />
  <sodipodi:namedview
     id="base"
     pagecolor="#ffffff"
     bordercolor="#666666"
     borderopacity="1.0"
     inkscape:pageopacity="0.0"
     inkscape:pageshadow="2"
     inkscape:zoom="2.7366667"
     inkscape:cx="150"
     inkscape:cy="150"
     inkscape:document-units="px"
     inkscape:current-layer="layer1"
     showgrid="false"
     inkscape:window-width="1231"
     inkscape:window-height="1000"
     inkscape:window-x="49"
     inkscape:window-y="24"
     inkscape:window-maximized="1"
     showguides="true"
     inkscape:guide-bbox="true" />
  <metadata
     id="metadata7">
    <rdf:RDF>
      <cc:Work
         rdf:about="">
        <dc:format>image/svg+xml</dc:format>
        <dc:type
           rdf:resource="http://purl.org/dc/dcmitype/StillImage" />
        <dc:title />
      </cc:Work>
    </rdf:RDF>
  </metadata>
  <g
     inkscape:label="Calque 1"
     inkscape:groupmode="layer"
     id="layer1"
     transform="translate(0,-752.36218)">
    <path
       style="fill:#000000"
       d="m 56.728933,1044.8056 c -7.37995,-8.8923 10.01514,-45.43722 30.38925,-63.84399 11.80206,-10.66248 20.959437,-15.43211 41.002357,-21.35619 14.37842,-4.24983 15.86739,-10.94218 2.43453,-10.94218 -11.42457,0 -31.617807,-6.84331 -38.457057,-13.03271 -18.11189,-16.39105 -17.24253,-48.59833 1.65512,-61.31718 5.43925,-3.66083 15.621157,-6.54281 27.417437,-7.76051 25.82339,-2.66567 24.46005,-9.6293 -1.88525,-9.6293 -13.16457,0 -28.095927,-6.27931 -31.901837,-13.41615 -2.68261,-5.0304 -3.84292,-14.08975 -3.35551,-26.19872 0.61188,-15.20135 16.987657,-6.72977 16.987657,8.78813 0,11.22861 11.17081,14.76067 47.95818,15.16371 40.61625,0.445 50.89226,-2.60232 53.55752,-15.88225 3.25523,-16.21947 4.47801,-18.49456 9.94008,-18.49456 11.50199,0 14.00424,28.9992 3.33138,38.60841 -7.02042,6.32078 -22.92286,11.42398 -35.7548,11.47399 -11.19458,0.0437 -20.50579,3.81087 -17.31225,7.00438 0.98409,0.98412 12.14706,2.49921 24.80652,3.36693 19.7294,1.35227 24.01862,2.57897 30.02738,8.58773 6.17136,6.17135 7.01878,9.39464 7.08283,26.94053 0.0431,11.8402 -1.49702,22.86475 -3.79444,27.15912 -5.08123,9.49795 -21.60038,15.8482 -41.36392,15.90102 -28.91755,0.0773 -30.48046,7.72626 -3.03831,14.86995 8.61869,2.24361 19.87766,6.20902 25.01992,8.81204 11.14709,5.64268 27.41949,21.95103 27.41949,27.48007 0,2.16252 0.93825,4.34883 2.08499,4.85853 1.14675,0.5096 4.89974,6.101 8.33998,12.4251 6.59466,12.1229 8.15471,24.5292 3.4501,27.4368 -4.28149,2.6461 -13.87507,-1.2799 -13.87507,-5.6781 0,-8.4116 -20.04579,-38.8107 -33.32898,-50.54285 -6.82807,-6.03077 -32.59328,-16.40837 -34.93194,-14.06973 -0.64952,0.64952 -1.94828,5.01769 -2.88616,9.70704 l -1.70519,8.52606 16.9662,1.96915 c 15.51243,1.80041 16.9662,2.54128 16.9662,8.64613 0,6.3156 -0.91287,6.677 -16.86459,6.677 -16.75768,0 -16.85903,0.048 -15.98495,7.645 0.87586,7.6122 0.98281,7.6484 24.95092,8.4445 24.87208,0.8261 32.52667,4.2573 29.14681,13.065 -1.36959,3.5691 -10.44534,4.2054 -59.983,4.2054 -53.408737,0 -58.597337,-0.4262 -61.053067,-5.0148 -4.03752,-7.5442 0.53723,-12.2699 11.152737,-11.5207 5.17298,0.3651 15.97313,0.482 24.00035,0.2597 14.27348,-0.3952 14.59495,-0.5878 14.59495,-8.7441 l 0,-8.34 -19.1625,0 c -14.95212,0 -19.53525,-0.9713 -20.858967,-4.4208 -2.54847,-6.64121 -0.20099,-8.50706 11.406057,-9.06609 5.8,-0.27933 13.04747,-1.01631 16.10546,-1.63775 3.05799,-0.62141 7.12372,-1.22558 9.03497,-1.34257 1.9605,-0.12009 3.47498,-3.84745 3.47498,-8.55266 0,-7.19126 -1.02581,-8.33998 -7.44759,-8.33998 -8.99875,0 -25.91229,5.80821 -25.91229,8.89845 0,1.22183 -1.19412,2.22152 -2.65365,2.22152 -3.59091,0 -16.806287,13.4246 -16.806287,17.07238 0,1.6058 -1.74367,6.2402 -3.87478,10.2986 -2.13114,4.0584 -6.81048,13.3027 -10.39853,20.5429 -7.11861,14.3646 -11.4979,17.65 -16.11344,12.0886 z M 186.30294,930.40417 c 12.05924,-2.1628 20.35234,-8.25448 20.35234,-14.94979 0,-3.84178 -3.46587,-4.52966 -22.34136,-4.43411 -23.20503,0.11759 -27.55986,2.22869 -27.65591,13.40762 -0.0439,5.11574 9.96099,10.79309 15.74498,8.93458 1.80266,-0.57924 8.05764,-1.91046 13.89995,-2.9583 z M 137.974,924.27482 c 7.11174,-7.85837 1.78667,-11.68158 -17.66556,-12.68323 -23.047157,-1.18678 -25.679637,-0.27717 -21.605697,7.46463 4.522487,8.59434 7.711907,10.05679 22.036957,10.10452 8.73895,0.0292 14.18301,-1.51426 17.2343,-4.88592 z m 67.81045,-29.9472 c 0.52509,-1.59819 -1.61489,-5.66393 -4.75551,-9.03497 -4.74886,-5.09731 -8.73414,-6.12918 -23.67184,-6.12918 l -17.96166,0 0,8.20731 c 0,8.10411 0.21851,8.22032 17.37494,9.24049 23.75294,1.4124 27.90719,1.08542 29.01407,-2.28365 z m -63.06895,-6.82418 c 0,-7.96003 -0.53824,-8.3395 -11.81497,-8.32958 -12.5854,0.0111 -31.385837,9.21195 -28.46844,13.93237 0.93041,1.50545 10.37482,2.73718 20.98754,2.73718 l 19.29587,0 0,-8.33997 z m 0.93557,-55.38237 c -15.13024,-2.50633 -19.56604,-6.54048 -21.81255,-19.83743 -2.06721,-12.23568 0.67662,-11.35215 -37.172177,-11.96975 -18.73969,-0.30577 -23.8958,-1.31724 -26.34745,-5.16864 -2.02224,-3.17686 -2.11701,-5.71958 -0.28153,-7.55507 1.69955,-1.69955 38.53382,-3.00245 95.503107,-3.37808 88.23833,-0.58182 92.92353,-0.35567 96.59304,4.66266 7.03871,9.62599 3.1063,11.05897 -30.3485,11.05897 l -32.26226,0 -1.83897,13.38221 c -1.39736,10.16887 -3.27238,13.92213 -7.80866,15.63077 -10.72562,4.03991 -22.4398,5.12644 -34.22405,3.17436 z m 21.48711,-16.99519 c 15.4774,-8.28326 -8.41706,-21.78212 -26.3653,-14.89472 -5.20264,1.99645 -5.77098,9.72691 -1.06137,14.43652 4.09551,4.09551 20.12978,4.36336 27.42667,0.4582 z M 93.803613,767.66743 c -8.35298,-9.21581 0.64407,-10.72918 60.743297,-10.21741 56.60912,0.48205 57.30765,0.56092 60.14647,6.79149 1.85628,4.07405 1.91107,6.89777 0.15484,7.98313 -1.49449,0.92365 -28.4301,1.28108 -59.85687,0.79427 -48.18247,-0.74634 -57.774177,-1.58523 -61.187787,-5.35148 z"
       id="path4153"
       inkscape:connector-curvature="0" />
  </g>
</svg>
