<?xml version="1.0" encoding="UTF-8" standalone="no"?>
<!-- Created with Inkscape (http://www.inkscape.org/) -->

<svg
   xmlns:dc="http://purl.org/dc/elements/1.1/"
   xmlns:cc="http://creativecommons.org/ns#"
   xmlns:rdf="http://www.w3.org/1999/02/22-rdf-syntax-ns#"
   xmlns:svg="http://www.w3.org/2000/svg"
   xmlns="http://www.w3.org/2000/svg"
   xmlns:sodipodi="http://sodipodi.sourceforge.net/DTD/sodipodi-0.dtd"
   xmlns:inkscape="http://www.inkscape.org/namespaces/inkscape"
   width="300"
   height="300"
   id="svg2"
   version="1.1"
   inkscape:version="0.48.4 r9939"
   sodipodi:docname="image-seal.svg">
  <defs
     id="defs4" />
  <sodipodi:namedview
     id="base"
     pagecolor="#ffffff"
     bordercolor="#666666"
     borderopacity="1.0"
     inkscape:pageopacity="0.0"
     inkscape:pageshadow="2"
     inkscape:zoom="2.0018437"
     inkscape:cx="145.03351"
     inkscape:cy="130.6666"
     inkscape:document-units="px"
     inkscape:current-layer="layer1"
     showgrid="false"
     inkscape:window-width="1215"
     inkscape:window-height="1000"
     inkscape:window-x="65"
     inkscape:window-y="24"
     inkscape:window-maximized="1"
     fit-margin-top="10"
     fit-margin-left="10"
     fit-margin-right="10"
     fit-margin-bottom="10" />
  <metadata
     id="metadata7">
    <rdf:RDF>
      <cc:Work
         rdf:about="">
        <dc:format>image/svg+xml</dc:format>
        <dc:type
           rdf:resource="http://purl.org/dc/dcmitype/StillImage" />
        <dc:title />
      </cc:Work>
    </rdf:RDF>
  </metadata>
  <g
     inkscape:label="Calque 1"
     inkscape:groupmode="layer"
     id="layer1"
     transform="translate(0,-752.36218)">
    <path
       style="fill:#000000"
       d="m 150.10568,1042.9162 c -0.93837,-2.4456 0.23501,-11.9869 2.60727,-21.2029 2.37239,-9.2162 5.47068,-21.2087 6.88512,-26.64974 1.41446,-5.44108 2.57172,-20.29031 2.57172,-32.99827 0,-19.10148 0.9216,-24.09459 5.31819,-28.8138 2.92503,-3.13963 6.50954,-6.14184 7.96559,-6.67153 1.45604,-0.52971 3.06404,-5.23554 3.57329,-10.45734 1.11007,-11.38225 -3.42014,-13.28304 -17.56853,-7.37147 l -9.45599,3.95095 -1.44959,32.44793 c -1.61869,36.23224 -3.07427,42.0234 -10.56246,42.0234 -4.58818,0 -5.17899,-2.18469 -5.17899,-19.15094 l 0,-19.15094 -42.40565,0 C 68.47724,948.87155 50,947.77696 50,946.35946 c 0,-7.8335 3.95513,-11.16981 13.28799,-11.20904 5.48171,-0.0219 11.35853,-0.94639 13.05963,-2.05189 3.23432,-2.10189 7.41858,-88.03829 4.63928,-95.28107 -1.18054,-3.07643 -2.95044,-2.7588 -9.12452,1.63752 -9.43895,6.72113 -13.67357,6.92878 -13.59399,0.66659 0.0791,-6.2289 6.22895,-13.38361 23.87783,-27.77951 l 14.36321,-11.71586 0,-20.2641 c 0,-20.76082 1.72867,-23.61628 9.55752,-15.78743 3.36993,3.36993 4.02862,7.12866 2.6643,15.20396 -2.73677,16.19879 2.23768,24.77305 20.51827,35.36645 16.28631,9.43774 23.43689,16.98097 20.54017,21.66797 -2.72985,4.417 -11.1201,2.92777 -16.4048,-2.91179 -3.27971,-3.62401 -5.93852,-4.60815 -7.6975,-2.84917 -1.5451,1.5451 -2.74212,23.15765 -2.8165,50.85226 -0.10561,39.28826 0.60473,48.62949 3.85366,50.68466 7.95801,5.03399 10.43956,2.51785 12.31413,-12.48576 2.20808,-17.67295 9.79749,-25.00046 27.38018,-26.43538 9.98856,-0.81515 10.8628,-1.55369 11.66123,-9.85094 l 0.86313,-8.96973 -13.17445,1.16224 c -16.47107,1.4531 -34.26721,-1.35958 -35.6945,-5.64148 -2.20461,-6.61378 19.4591,-9.33797 67.6265,-8.504 41.45588,0.71778 47.95563,1.41834 48.69105,5.24799 0.70484,3.67044 -2.72622,4.64905 -20.24079,5.77307 -16.31781,1.0472 -21.92657,2.49824 -24.78922,6.41313 -5.63295,7.70352 -3.06963,10.5484 11.64738,12.92667 25.40424,4.10533 26.28756,5.82169 30.17436,58.63175 1.62334,22.05614 1.28543,25.45934 -2.67895,26.98061 -9.86916,3.78715 -12.67444,-3.56309 -12.67444,-33.20899 0,-32.02559 -2.33773,-36.79437 -18.0371,-36.79437 -7.34715,0 -10.11164,1.47695 -12.47555,6.66516 -3.75254,8.23594 -1.31925,15.27952 5.93373,17.1762 6.52639,1.70668 7.68984,6.14135 9.17694,34.97938 0.62076,12.03774 2.40059,27.42688 3.95521,34.19814 5.03867,21.9465 8.20068,33.2319 9.74334,34.7746 2.49953,2.4995 -3.67052,11.7349 -7.83995,11.7349 -3.92075,0 -8.59683,-8.8871 -15.01303,-28.5327 -1.93093,-5.9122 -4.34417,-25.39054 -5.36275,-43.28491 -1.35572,-23.81701 -2.91026,-33.20477 -5.80131,-35.03393 -10.64965,-6.73796 -14.31175,-0.2372 -18.09441,32.12023 -1.90254,16.27433 -4.7484,35.12981 -6.32416,41.90111 -1.57577,6.7712 -3.29057,15.0556 -3.81069,18.4098 -1.00868,6.5048 -6.47613,14.4204 -9.96048,14.4204 -1.15948,0 -2.8759,-2.0007 -3.81427,-4.446 z M 109.4632,897.57439 c 2.98985,-32.10912 2.68179,-71.90896 -0.5977,-77.21528 -0.95459,-1.54455 -3.9788,-2.80829 -6.7205,-2.80829 -4.34445,0 -5.19685,3.25131 -6.63465,25.3066 -1.52565,23.40234 -2.81306,75.51987 -2.06124,83.44338 0.17837,1.88089 3.18113,3.41981 6.67262,3.41981 6.11027,0 6.4603,-1.20451 9.34147,-32.14622 z m 78.01319,-48.96532 c -4.89033,-2.41077 -8.89151,-5.27217 -8.89151,-6.35871 0,-1.75732 -3.85815,-6.94337 -14.02721,-18.85522 -7.00545,-8.20599 -13.70464,-25.87106 -12.15409,-32.04896 2.07377,-8.26254 33.76606,-33.98403 41.87284,-33.98403 12.09336,0 6.79259,11.72139 -8.99216,19.88401 -4.44411,2.29814 -10.33073,6.66521 -13.08135,9.70463 -5.95279,6.57775 -5.09341,17.87081 1.45487,19.11849 4.36349,0.8314 32.57879,-19.07171 34.56545,-24.38251 0.50159,-1.34081 2.65607,-2.43783 4.78774,-2.43783 2.13169,0 3.87579,-1.0994 3.87579,-2.44314 0,-3.45858 7.44072,-5.88695 12.31132,-4.01792 8.54233,3.27801 4.36929,13.07787 -8.94579,21.00811 -7.11755,4.23909 -18.46624,12.43638 -25.21932,18.21618 -12.18071,10.42523 -12.23715,10.55428 -7.09958,16.23127 2.84834,3.14735 7.46695,5.72247 10.26359,5.72247 4.69044,0 15.47078,-4.81017 18.68978,-8.33936 0.75236,-0.82486 5.4964,-4.38494 10.54232,-7.91131 7.5206,-5.25581 9.60898,-5.72523 11.58544,-2.60403 4.19849,6.63016 2.76471,9.9784 -7.76455,18.13235 -12.59035,9.75007 -29.21725,19.89496 -32.46914,19.81099 -1.32713,-0.0342 -6.41411,-2.03473 -11.30444,-4.44548 z"
       id="path3158"
       inkscape:connector-curvature="0" />
  </g>
</svg>
