<?xml version="1.0" encoding="UTF-8" standalone="no"?>
<svg
   xmlns:dc="http://purl.org/dc/elements/1.1/"
   xmlns:cc="http://creativecommons.org/ns#"
   xmlns:rdf="http://www.w3.org/1999/02/22-rdf-syntax-ns#"
   xmlns:svg="http://www.w3.org/2000/svg"
   xmlns="http://www.w3.org/2000/svg"
   viewBox="0 0 300 300"
   height="300"
   width="300"
   id="svg861"
   version="1.1">
  <metadata
     id="metadata867">
    <rdf:RDF>
      <cc:Work
         rdf:about="">
        <dc:format>image/svg+xml</dc:format>
        <dc:type
           rdf:resource="http://purl.org/dc/dcmitype/StillImage" />
        <dc:title></dc:title>
      </cc:Work>
    </rdf:RDF>
  </metadata>
  <defs
     id="defs865" />
  <path
     id="path871"
     d="m 195.74796,283.7611 c -0.61714,-0.68193 -1.64903,-2.61963 -2.29308,-4.306 -1.28004,-3.35164 -1.53633,-16.71826 -2.66778,-139.13579 -0.32156,-34.79238 -0.76701,-55.782248 -1.19525,-56.322502 -1.39643,-1.761665 -2.45734,-0.702898 -5.5228,5.511683 -5.43358,11.015439 -6.71717,16.529869 -9.18116,39.442969 -0.61123,5.68393 -1.30767,10.64444 -1.54766,11.02337 -0.23998,0.37893 -0.60862,12.16015 -0.81918,26.18049 -0.32365,21.55128 -0.55752,25.8871 -1.51302,28.05062 -1.2573,2.84686 -3.12092,3.64723 -6.3882,2.74352 -3.73415,-1.03283 -4.04155,-4.79376 -3.16445,-38.71718 0.41639,-16.10445 1.06997,-31.91609 1.4524,-35.13697 1.74197,-14.67087 4.65765,-26.621017 9.3379,-38.272281 l 2.50483,-6.235627 7.86737,-5.032755 c 4.32706,-2.768015 8.15586,-5.5718 8.50846,-6.230635 0.93544,-1.747887 1.09449,-11.101591 0.42232,-24.837067 -0.61975,-12.664207 0.0241,-18.705939 2.66146,-24.974814 1.13648,-2.701386 1.91185,-3.014658 4.77098,-1.927619 3.35517,1.275629 3.44509,2.058113 3.26039,28.370443 l -0.17229,24.548182 1.94412,1.375899 c 1.06927,0.756743 4.31308,2.496974 7.20847,3.867178 6.24235,2.95412 8.91318,5.739527 11.94754,12.460137 4.29447,9.511522 7.12785,20.878579 8.7657,35.166549 1.20706,10.52997 1.24227,70.1757 0.043,72.86991 -1.02184,2.29567 -3.48617,3.36361 -6.13004,2.65652 -3.43952,-0.91987 -3.99698,-4.24875 -3.82159,-22.82096 0.1272,-13.46875 -0.19972,-20.01269 -1.94462,-38.92626 -2.91893,-31.63901 -4.92819,-41.741447 -9.49273,-47.728751 -1.84886,-2.425182 -6.69391,-6.354633 -7.83529,-6.354633 -0.89895,0 -0.68332,60.329014 0.43463,121.601494 1.47816,81.01405 1.47042,76.11601 0.12433,78.6933 -1.89853,3.635 -5.43153,4.75475 -7.56474,2.39758 z m -97.957292,-2.12178 -2.066875,-0.4428 -0.08641,-91.27965 C 95.589964,139.71306 95.279853,94.973223 94.94842,90.495026 l -0.602591,-8.142188 -3.089817,4.697387 c -1.699391,2.58356 -4.080379,7.177648 -5.291071,10.209068 -3.785946,9.479527 -4.356602,14.020547 -4.700697,37.406467 -0.171199,11.63534 -0.622727,24.25548 -1.003395,28.04476 -0.380668,3.78929 -0.700112,10.8002 -0.709891,15.57982 -0.01992,9.73509 -0.854485,15.40582 -2.541668,17.27014 -0.75979,0.83957 -2.106787,1.25359 -4.078511,1.25359 -2.939798,0 -2.946096,-0.006 -4.371464,-3.81514 -1.309077,-3.49882 -1.42664,-5.28383 -1.418056,-21.53001 0.02542,-48.11168 3.069359,-69.91582 12.299023,-88.099955 2.285553,-4.502947 3.096039,-5.368855 9.280112,-9.914662 6.471877,-4.757371 6.758722,-5.076909 6.394122,-7.122959 -1.128251,-6.33145 -1.945329,-21.899686 -1.594955,-30.389522 0.420399,-10.18666 2.301118,-18.63028 4.322428,-19.405932 1.660039,-0.637018 5.111061,1.207663 6.200471,3.314346 1.06376,2.057067 1.18985,4.041725 2.06033,32.428173 l 0.47985,15.647629 4.56048,1.501962 c 5.44372,1.792849 10.75453,5.155325 14.2454,9.019304 6.35509,7.034317 11.28358,24.177276 13.52927,47.059356 0.9791,9.97638 1.04163,51.12965 0.0958,63.0325 -0.53809,6.7714 -0.68279,7.278 -2.29667,8.04075 -2.29548,1.08488 -5.36926,0.40968 -6.33304,-1.39115 -0.42878,-0.80117 -1.02119,-6.42132 -1.31648,-12.48922 -0.29528,-6.06789 -0.87278,-13.78294 -1.28331,-17.14454 -0.41055,-3.3616 -1.04435,-15.29784 -1.40848,-26.52497 -0.81894,-25.25055 -1.92972,-34.25897 -5.48913,-44.516507 -2.40704,-6.93663 -6.87995,-11.858645 -11.92796,-13.125615 l -1.6894,-0.424014 -0.39528,82.899896 c -0.40652,85.25884 -1.01816,110.23626 -2.8041,114.51062 -0.81971,1.96186 -3.09971,4.12458 -3.99466,3.78923 -0.119645,-0.0449 -1.147633,-0.28078 -2.28442,-0.52432 z"
     style="fill:#000000;stroke-width:0.68896037" />
</svg>
