<?xml version="1.0" encoding="UTF-8" standalone="no"?>
<!-- Created with Inkscape (http://www.inkscape.org/) -->

<svg
   xmlns:dc="http://purl.org/dc/elements/1.1/"
   xmlns:cc="http://creativecommons.org/ns#"
   xmlns:rdf="http://www.w3.org/1999/02/22-rdf-syntax-ns#"
   xmlns:svg="http://www.w3.org/2000/svg"
   xmlns="http://www.w3.org/2000/svg"
   xmlns:sodipodi="http://sodipodi.sourceforge.net/DTD/sodipodi-0.dtd"
   xmlns:inkscape="http://www.inkscape.org/namespaces/inkscape"
   width="300"
   height="300"
   id="svg2"
   version="1.1"
   inkscape:version="0.48.4 r9939"
   sodipodi:docname="image-seal.svg">
  <defs
     id="defs4" />
  <sodipodi:namedview
     id="base"
     pagecolor="#ffffff"
     bordercolor="#666666"
     borderopacity="1.0"
     inkscape:pageopacity="0.0"
     inkscape:pageshadow="2"
     inkscape:zoom="2.7366667"
     inkscape:cx="150"
     inkscape:cy="150"
     inkscape:document-units="px"
     inkscape:current-layer="layer1"
     showgrid="false"
     inkscape:window-width="1215"
     inkscape:window-height="1000"
     inkscape:window-x="65"
     inkscape:window-y="24"
     inkscape:window-maximized="1" />
  <metadata
     id="metadata7">
    <rdf:RDF>
      <cc:Work
         rdf:about="">
        <dc:format>image/svg+xml</dc:format>
        <dc:type
           rdf:resource="http://purl.org/dc/dcmitype/StillImage" />
        <dc:title />
      </cc:Work>
    </rdf:RDF>
  </metadata>
  <g
     inkscape:label="Calque 1"
     inkscape:groupmode="layer"
     id="layer1"
     transform="translate(0,-752.36218)">
    <path
       style="fill:#000000"
       d="m 102.19999,1045.6349 c 0,-2.7257 12.23849,-19.5401 17.98742,-24.7129 2.86691,-2.5796 5.21257,-5.9222 5.21257,-7.4281 0,-1.5059 2.28375,-5.3233 5.075,-8.4831 6.44096,-7.29132 15.10242,-21.38459 17.19201,-27.97362 0.8852,-2.79125 2.76225,-5.075 4.17122,-5.075 1.40896,0 2.56177,-2.10607 2.56177,-4.68014 0,-2.5741 2.46543,-9.42534 5.47874,-15.22499 3.0133,-5.79968 8.9293,-21.53346 13.14668,-34.96396 6.04664,-19.25588 6.88106,-24.92135 3.94626,-26.79452 -2.04693,-1.30651 -5.45965,-1.73666 -7.58387,-0.95593 -2.1242,0.78077 -4.95677,1.41955 -6.29457,1.41955 -1.33783,0 -3.2585,3.76116 -4.26816,8.35815 -1.00966,4.59696 -7.63834,19.82451 -14.7304,33.83896 -7.09207,14.01448 -12.89468,26.68464 -12.89468,28.15592 0,3.36667 -22.64612,36.26435 -30.57927,44.42208 -3.261106,3.3534 -9.45986,6.9832 -13.775,8.0662 -12.21262,3.0652 -9.88906,-5.837 6.05862,-23.21223 13.89251,-15.13611 26.69566,-35.92812 26.69566,-43.35314 0,-2.24176 0.98643,-4.07595 2.19208,-4.07595 1.20564,0 3.92503,-4.24125 6.0431,-9.425 2.11808,-5.18374 4.91495,-12.03499 6.21525,-15.22499 7.14783,-17.5354 9.3523,-25.01395 7.82388,-26.54236 -0.93853,-0.9385 -7.60342,-0.82207 -14.81093,0.25868 -9.81668,1.47209 -14.57963,4.03677 -18.98395,10.22206 -3.2337,4.54128 -5.87943,10.33916 -5.87943,12.8842 0,2.54504 -0.97875,4.63751 -2.175,4.64995 -2.604366,0.0261 -9.425,14.07036 -9.425,19.40552 0,2.07452 -1.21707,3.77186 -2.70457,3.77186 -1.48752,0 -3.49882,2.50238 -4.46953,5.56086 -3.08792,9.72921 -13.11363,20.3618 -17.58258,18.64691 -6.703,-2.57218 -4.83198,-13.06653 4.53736,-25.44938 4.74063,-6.26539 8.61932,-12.53574 8.61932,-13.93412 0,-1.39838 5.23914,-10.2575 11.64254,-19.68691 l 11.64255,-17.14442 -8.39112,-4.33921 c -9.08701,-4.69907 -11.99397,-9.75539 -11.99397,-20.86216 0,-12.06652 18.62998,-27.19155 33.49271,-27.19155 3.70132,0 10.24639,-1.33705 14.54457,-2.9712 11.5674,-4.39793 76.40843,-4.22353 86.0877,0.23171 4.38625,2.01884 7.975,4.76615 7.975,6.10514 0,2.86389 2.21365,2.76625 -55.42184,2.44432 -45.30831,-0.25317 -55.47188,1.43579 -67.10314,11.15038 -7.53301,6.2917 -6.39093,16.30922 2.31144,20.27431 4.73118,2.15565 26.14628,3.36547 59.5724,3.36547 37.44984,0 53.43841,1.02362 56.62139,3.625 16.59739,13.56466 16.50714,13.34531 14.62951,35.55771 -3.40506,40.28177 -23.35059,81.93424 -53.10137,110.89224 -14.74255,14.3497 -20.84531,17.6215 -25.04175,13.425 -2.24034,-2.2403 8.25221,-17.8879 21.84879,-32.5832 10.67928,-11.54224 34.05188,-55.1596 34.12824,-63.68928 0.0232,-2.68261 1.86044,-10.09748 4.08097,-16.47748 4.95349,-14.23241 3.99324,-32.27496 -2.03876,-38.30696 -6.09316,-6.09316 -19.48588,-2.76587 -19.48588,4.84106 0,3.0655 -1.305,6.38014 -2.9,7.36591 -1.595,0.98577 -2.9,4.15126 -2.9,7.03441 0,2.88318 -2.75004,12.2674 -6.11122,20.85387 -3.36116,8.58643 -7.06646,18.22171 -8.234,21.41171 -3.0671,8.38019 -27.37023,57.73266 -29.2755,59.44996 -0.88479,0.7975 -4.77995,6.0175 -8.65591,11.6 -11.32123,16.3059 -19.4461,23.2 -27.34155,23.2 -4.06,0 -7.3818,-0.7773 -7.3818,-1.7273 z M 87.87855,819.92736 c -1.88738,-2.27418 -3.19757,-5.86293 -2.91149,-7.975 C 87.15378,795.8078 81.17641,793.93298 67.91689,806.6045 59.39974,814.74396 50,815.95772 50,808.91806 c 0,-3.46016 20.29614,-22.55585 23.97386,-22.55585 4.55036,0 10.82613,-8.14786 10.82613,-14.05565 0,-7.9422 2.96,-14.94434 6.31742,-14.94434 4.22295,0 11.08258,7.7294 11.08258,12.48777 0,5.90472 6.20162,10.38893 22.32501,16.14265 10.21438,3.64504 14.17192,6.67467 14.85168,11.36939 1.17345,8.10442 0.0856,8.03149 -18.9236,-1.26887 -9.17006,-4.4865 -16.73149,-6.59257 -18.22087,-5.075 -2.05726,2.09618 -4.266646,14.16337 -5.651866,30.86905 -0.29406,3.54641 -5.014304,2.4833 -8.701794,-1.95985 z m 100.21008,-3.27831 c -0.98376,-2.56365 -1.78866,-8.46947 -1.78866,-13.12403 0,-10.60167 -5.84556,-11.05361 -15.68636,-1.21281 -8.47275,8.47276 -16.21363,9.45757 -16.21363,2.06274 0,-3.18254 6.16421,-8.92318 15.95,-14.85397 12.79358,-7.75373 15.95878,-11.17489 15.99439,-17.28774 0.0232,-4.19157 1.22998,-9.4946 2.67899,-11.78455 3.94693,-6.23749 11.77661,1.35297 11.77661,11.41678 0,6.35743 1.92867,8.71841 9.425,11.53758 23.85444,8.97104 28.15267,12.18122 28.23059,21.08416 0.0629,7.18603 -4.32039,6.34108 -18.80559,-3.625 -6.95475,-4.785 -13.92644,-8.7 -15.49261,-8.7 -1.56618,0 -3.71682,5.14486 -4.77917,11.43305 -2.23413,13.22373 -8.46133,20.42403 -11.28956,13.05379 z"
       id="path3119"
       inkscape:connector-curvature="0" />
  </g>
</svg>
