<?xml version="1.0" encoding="UTF-8" standalone="no"?>
<!-- Created with Inkscape (http://www.inkscape.org/) -->

<svg
   xmlns:dc="http://purl.org/dc/elements/1.1/"
   xmlns:cc="http://creativecommons.org/ns#"
   xmlns:rdf="http://www.w3.org/1999/02/22-rdf-syntax-ns#"
   xmlns:svg="http://www.w3.org/2000/svg"
   xmlns="http://www.w3.org/2000/svg"
   xmlns:sodipodi="http://sodipodi.sourceforge.net/DTD/sodipodi-0.dtd"
   xmlns:inkscape="http://www.inkscape.org/namespaces/inkscape"
   width="300"
   height="300"
   id="svg2"
   version="1.1"
   inkscape:version="0.48.4 r9939"
   sodipodi:docname="dessin.svg">
  <defs
     id="defs4" />
  <sodipodi:namedview
     id="base"
     pagecolor="#ffffff"
     bordercolor="#666666"
     borderopacity="1.0"
     inkscape:pageopacity="0.0"
     inkscape:pageshadow="2"
     inkscape:zoom="1.979899"
     inkscape:cx="227.07871"
     inkscape:cy="107.23575"
     inkscape:document-units="px"
     inkscape:current-layer="layer1"
     showgrid="false"
     inkscape:window-width="1215"
     inkscape:window-height="1000"
     inkscape:window-x="65"
     inkscape:window-y="24"
     inkscape:window-maximized="1" />
  <metadata
     id="metadata7">
    <rdf:RDF>
      <cc:Work
         rdf:about="">
        <dc:format>image/svg+xml</dc:format>
        <dc:type
           rdf:resource="http://purl.org/dc/dcmitype/StillImage" />
        <dc:title />
      </cc:Work>
    </rdf:RDF>
  </metadata>
  <g
     inkscape:label="Calque 1"
     inkscape:groupmode="layer"
     id="layer1"
     transform="translate(0,-752.36218)">
    <path
       style="fill:#000000"
       d="m 192.60992,1021.4297 c -5.22416,-7.8163 -11.15521,-17.1743 -13.1801,-20.7955 -8.63383,-15.44035 -17.63319,-18.80211 -50.3328,-18.80211 -27.90713,0 -39.547134,-3.94329 -44.913221,-15.2153 -2.685461,-5.64106 -2.688497,-8.98141 -0.01399,-15.49391 5.702092,-13.88538 12.867623,-17.59216 34.13699,-17.6592 l 18.97465,-0.0597 0,-11.03945 0,-11.03943 -20.38017,0.65013 c -24.87501,0.79349 -27.40783,0.55942 -27.40783,-2.53291 0,-3.72766 22.369,-5.74905 69.73287,-6.3014 48.74368,-0.56847 48.21773,-0.78718 48.28855,20.07919 0.0618,18.2098 -3.2642,19.34417 -57.12927,19.48447 -43.32947,0.11299 -44.66655,0.2862 -49.8963,6.46758 -2.955547,3.49337 -5.373732,8.34411 -5.373732,10.77938 0,6.39353 18.514592,11.11885 43.565282,11.11885 11.64094,0 23.3619,1.10971 26.04655,2.46602 2.68467,1.35634 8.9924,3.92463 14.01717,5.70735 5.02477,1.78271 9.13595,4.21861 9.13595,5.41315 0,1.19454 1.58344,3.77175 3.51877,5.72712 5.69245,5.75148 18.01323,24.68233 20.03818,30.78873 2.34637,7.0756 -0.46368,14.4686 -5.49945,14.4686 -2.10621,0 -8.1038,-6.3952 -13.32798,-14.2115 z m 0.35951,-99.46031 c 0.86476,-10.00017 0.7779,-10.09158 -9.83871,-10.35687 -5.89113,-0.14719 -16.0873,-0.7332 -22.65814,-1.30218 l -11.94701,-1.03453 0,10.4946 c 0,5.8481 1.55572,11.12043 3.51382,11.90816 1.9326,0.77746 11.73618,1.18102 21.78571,0.8968 l 18.27188,-0.51676 0.87245,-10.08922 z M 47.327431,909.67489 c 0,-2.59193 8.718867,-10.04698 22.488471,-19.22871 5.411301,-3.60831 11.736185,-8.44742 14.055308,-10.7536 2.319124,-2.30619 8.866755,-7.50248 14.550323,-11.54735 5.683537,-4.04488 17.639847,-14.01983 26.569537,-22.16658 18.18955,-16.59469 27.91294,-19.14632 30.81331,-8.08609 0.97013,3.69939 3.43383,6.72615 5.47488,6.72615 2.04108,0 5.43156,1.51339 7.53439,3.36307 3.75109,3.29955 6.75521,5.074 27.16824,16.04741 21.40982,11.50926 48.11969,30.71253 48.11969,34.59603 0,7.56499 -25.13287,0.30368 -33.88544,-9.79006 -1.84071,-2.12278 -4.98389,-3.85957 -6.98488,-3.85957 -2.00098,0 -4.16966,-1.51338 -4.81929,-3.36308 -0.93411,-2.65972 -3.1877,-2.68725 -10.77571,-0.13163 -9.89105,3.33128 -74.34754,5.64241 -77.34525,2.77328 -0.9258,-0.88606 -0.78831,-2.99694 0.3055,-4.69085 1.29947,-2.01231 10.89687,-2.90617 27.68933,-2.57883 26.72249,0.52093 43.97243,-1.75337 43.97243,-5.79747 0,-1.29479 -1.58121,-2.35701 -3.51382,-2.36048 -1.9326,-0.003 -7.82686,-3.53439 -13.09835,-7.84651 -19.39969,-15.86907 -19.91857,-15.86773 -41.39363,0.10715 -10.61408,7.89552 -19.93081,14.99395 -20.70385,15.77429 -0.77304,0.78031 -6.039697,4.72302 -11.703673,8.76154 -5.664002,4.03851 -11.988886,8.91428 -14.055296,10.83506 -12.495115,11.61441 -30.46222,19.41002 -30.46222,13.21702 z m 55.793009,-79.18108 c -0.23556,-3.32945 -0.72205,-7.26425 -1.08127,-8.744 -0.3592,-1.47975 -0.81838,-5.71722 -1.02042,-9.41659 -0.75136,-13.75972 -4.447793,-14.75453 -16.016708,-4.31056 -10.521653,9.49857 -15.226789,10.91999 -17.218357,5.20161 -1.171142,-3.3627 10.667494,-15.52983 25.223466,-25.92337 5.79781,-4.13986 10.541469,-9.28148 10.541469,-11.4258 0,-2.14432 2.52996,-3.89876 5.62212,-3.89876 3.71049,0 5.62212,1.79364 5.62212,5.27516 0,3.36232 5.09659,8.46852 14.0553,14.0818 10.0242,6.28088 14.0553,10.55516 14.0553,14.90326 0,3.35316 -0.71568,6.09666 -1.59037,6.09666 -3.72083,0 -13.9975,-6.59564 -18.43146,-11.82947 -6.34414,-7.48857 -7.61331,-5.67593 -8.3181,11.8801 -0.3256,8.11079 -1.12493,16.86561 -1.7763,19.45519 -1.71579,6.82132 -9.16245,5.78504 -9.66679,-1.34523 z m 83.77331,4.01176 c -0.81793,-1.26669 -2.35851,-8.58972 -3.42349,-16.2734 -1.06497,-7.68367 -2.53079,-13.97034 -3.2574,-13.97034 -0.72657,0 -4.86605,3.63212 -9.19882,8.07139 -8.40869,8.61533 -16.86635,10.65445 -16.86635,4.06643 0,-5.82885 8.50396,-14.53042 18.81964,-19.25697 7.34212,-3.36411 9.13748,-5.91301 9.83871,-13.96806 1.1222,-12.89096 10.59024,-14.10126 13.93784,-1.78167 1.51242,5.56586 6.5854,10.81851 16.3423,16.92112 14.55108,9.10123 17.04096,13.75362 10.24822,19.14922 -3.07645,2.4437 -5.59921,1.3762 -11.93786,-5.0515 -11.57479,-11.73738 -15.08297,-10.5807 -15.08297,4.97289 0,12.30231 -5.76512,22.78063 -9.41982,17.12089 z"
       id="path3143"
       inkscape:connector-curvature="0" />
  </g>
</svg>
