<?xml version="1.0" encoding="UTF-8" standalone="no"?>
<!-- Created with Inkscape (http://www.inkscape.org/) -->

<svg
   xmlns:dc="http://purl.org/dc/elements/1.1/"
   xmlns:cc="http://creativecommons.org/ns#"
   xmlns:rdf="http://www.w3.org/1999/02/22-rdf-syntax-ns#"
   xmlns:svg="http://www.w3.org/2000/svg"
   xmlns="http://www.w3.org/2000/svg"
   xmlns:sodipodi="http://sodipodi.sourceforge.net/DTD/sodipodi-0.dtd"
   xmlns:inkscape="http://www.inkscape.org/namespaces/inkscape"
   width="300"
   height="300"
   id="svg2"
   version="1.1"
   inkscape:version="0.48.4 r9939"
   sodipodi:docname="image-seal.svg">
  <defs
     id="defs4" />
  <sodipodi:namedview
     id="base"
     pagecolor="#ffffff"
     bordercolor="#666666"
     borderopacity="1.0"
     inkscape:pageopacity="0.0"
     inkscape:pageshadow="2"
     inkscape:zoom="1.979899"
     inkscape:cx="130.93154"
     inkscape:cy="137.35134"
     inkscape:document-units="px"
     inkscape:current-layer="layer1"
     showgrid="false"
     inkscape:window-width="1215"
     inkscape:window-height="1000"
     inkscape:window-x="65"
     inkscape:window-y="24"
     inkscape:window-maximized="1"
     fit-margin-top="10"
     fit-margin-left="10"
     fit-margin-right="10"
     fit-margin-bottom="10" />
  <metadata
     id="metadata7">
    <rdf:RDF>
      <cc:Work
         rdf:about="">
        <dc:format>image/svg+xml</dc:format>
        <dc:type
           rdf:resource="http://purl.org/dc/dcmitype/StillImage" />
        <dc:title />
      </cc:Work>
    </rdf:RDF>
  </metadata>
  <g
     inkscape:label="Calque 1"
     inkscape:groupmode="layer"
     id="layer1"
     transform="translate(0,-752.36218)">
    <path
       style="fill:#000000"
       d="m 103.70996,1037.5211 c -13.448524,-3.7176 -14.313568,-4.9618 -18.503898,-26.6157 -5.504692,-28.44593 -5.101407,-37.2412 1.707507,-37.2412 4.121339,0 5.598798,1.86628 5.598798,7.07208 0,3.88961 1.508795,15.0257 3.35287,24.74682 3.322193,17.513 3.461855,17.707 15.255413,21.1892 7.58184,2.2386 24.91039,3.23 47.73615,2.7311 76.52181,-1.6729 75.0252,-1.7616 75.0252,4.4479 0,5.4131 -1.99616,5.6117 -60.18707,5.9885 -33.10288,0.2144 -64.59612,-0.8291 -69.98497,-2.3187 z m 10.01828,-23.7008 c -1.97314,-5.1419 8.16175,-17.7609 14.26458,-17.7609 2.04112,0 3.71114,-1.25973 3.71114,-2.7994 0,-1.53966 1.74472,-2.7994 3.87713,-2.7994 4.49533,0 12.91926,-11.80042 12.91926,-18.09761 0,-2.54062 -2.57504,-4.36638 -6.29865,-4.46585 -47.09899,-1.25839 -58.724689,-5.83092 -62.31531,-24.50946 -2.67464,-13.91351 -2.017196,-37.64436 1.283388,-46.32554 3.228843,-8.49251 24.246392,-16.47762 27.882982,-10.59351 1.15683,1.87179 4.04457,2.65833 6.41724,1.74787 2.41379,-0.92627 4.98628,0.0969 5.84046,2.32285 1.16228,3.02884 -1.14177,3.97822 -9.65478,3.97822 -12.566323,0 -17.859843,4.03355 -20.750361,15.81132 l -1.975475,8.0493 34.684186,-1.81849 c 19.07634,-1.00017 44.13218,-2.73276 55.6797,-3.85021 l 20.99548,-2.03174 -0.591,-8.16574 c -0.32506,-4.49113 -2.21466,-9.19582 -4.19911,-10.45485 -1.98446,-1.25906 -17.85439,-2.30847 -35.26653,-2.33205 -20.38248,-0.028 -31.04223,-1.03994 -29.92831,-2.84225 0.95157,-1.53967 -0.35827,-2.79941 -2.91073,-2.79941 -2.5525,0 -7.9807,-3.54198 -12.06267,-7.87109 -4.082,-4.3291 -13.08354,-10.94268 -20.003467,-14.69684 -6.919923,-3.75416 -14.991537,-8.99372 -17.936893,-11.64346 -5.142157,-4.62603 -5.151867,-4.89574 -0.244104,-6.77907 2.994911,-1.14924 8.487259,-0.0252 13.264824,2.71815 14.36566,8.24477 89.23084,4.73104 98.58905,-4.62717 6.20134,-6.20137 14.08827,-4.98732 14.08827,2.16861 0,3.68361 -2.77346,6.10117 -8.78709,7.65946 -5.90316,1.52964 -8.65946,3.885 -8.39821,7.17645 0.24048,3.02763 -1.30797,4.62536 -4.05266,4.18194 -4.9348,-0.79721 -12.07105,12.04387 -9.2394,16.62557 0.98538,1.5944 6.33769,2.24103 11.93298,1.44163 11.97435,-1.71073 25.18897,4.83491 30.40055,15.05843 3.57839,7.01967 4.20809,32.31317 1.10974,44.57537 -2.99052,11.83552 -7.96079,17.97505 -14.81058,18.29482 -3.60445,0.16825 -9.31267,1.7936 -12.68496,3.61187 -3.37231,1.81824 -10.93069,4.30304 -16.7964,5.52176 -7.77104,1.61459 -10.66495,3.63925 -10.66495,7.46155 0,5.3246 13.23961,14.92094 21.10122,15.29456 7.79493,0.37047 23.43889,15.56661 21.42587,20.81251 -1.72118,4.4853 -2.40368,4.4919 -10.98359,0.1063 -5.03158,-2.5719 -10.11134,-6.3159 -11.2884,-8.3199 -1.17703,-2.0041 -7.74703,-6.44398 -14.59998,-9.86652 l -12.45994,-6.22278 -11.26765,7.8085 c -6.19723,4.29469 -14.11412,11.4133 -17.59311,15.8191 -7.30881,9.2561 -9.24906,9.8242 -11.70382,3.4272 z m 59.08007,-60.29127 c 22.55946,-2.99465 26.07334,-4.21517 28.69383,-9.9665 6.98059,-15.32071 0.56487,-26.08681 -13.11036,-22.00021 -2.69443,0.80515 -21.90529,1.68305 -42.69084,1.95082 -42.40534,0.54628 -55.987963,3.18248 -55.987963,10.86648 0,19.38495 29.722103,26.23447 83.095333,19.14941 z m -8.7372,-86.8765 c 3.17507,-3.62828 6.52097,-7.80419 7.43533,-9.27981 1.73536,-2.80057 -53.22884,-2.78703 -56.02968,0.0148 -0.82629,0.82631 3.10278,6.10747 8.73121,11.7359 12.07579,12.07579 30.32346,17.06251 32.69057,8.93363 0.76983,-2.64366 3.99749,-7.77527 7.17257,-11.40355 z M 93.932783,819.84799 c -1.070175,-7.78124 -2.772383,-14.11194 -3.782651,-14.06825 -1.010285,0.0436 -7.459973,5.08263 -14.332695,11.1976 -13.399993,11.92258 -18.171468,13.5333 -20.685117,6.98282 -1.004689,-2.61818 2.574115,-7.49659 9.754863,-13.29714 23.264597,-18.79305 27.075359,-23.37335 25.649989,-30.82964 -1.506491,-7.8808 1.986453,-11.41945 8.721076,-8.83515 2.963872,1.13734 4.451712,5.1839 4.451712,12.10738 0,9.76919 0.84783,10.78224 13.99701,16.72491 9.73449,4.39945 13.99699,7.96143 13.99699,11.69662 0,2.95393 -1.25974,5.37076 -2.79941,5.37076 -1.53967,0 -2.79939,-1.12317 -2.79939,-2.49591 0,-3.26309 -12.41086,-6.33521 -17.57994,-4.35167 -2.57769,0.98917 -3.91763,5.23809 -3.72169,11.80155 0.22226,7.44154 -0.96045,10.51494 -4.30941,11.19984 -3.618104,0.73996 -5.036018,-2.11343 -6.561337,-13.20372 z m 82.561537,3.41383 c 0,-12.99271 -5.11931,-15.66326 -14.65095,-7.64292 -9.45752,7.95798 -13.34302,8.67977 -13.34302,2.47873 0,-5.01496 3.20356,-8.51356 16.09654,-17.57903 7.9336,-5.57838 9.09804,-7.98505 9.09804,-18.8038 0,-12.42244 1.30232,-13.87969 9.56894,-10.70746 2.98853,1.1468 4.42805,5.24205 4.42805,12.59729 0,10.24271 0.50504,10.89808 8.3982,10.89808 4.61901,0 8.39819,1.25973 8.39819,2.7994 0,1.53967 1.9067,2.79939 4.23709,2.79939 4.81874,0 15.81254,5.6829 18.66261,9.64707 1.04734,1.4567 0.59701,5.09115 -1.00073,8.07655 -1.65338,3.08936 -3.67992,4.22096 -4.70363,2.62642 -2.438,-3.79738 -24.35882,-14.75124 -29.52013,-14.75124 -2.87907,0 -4.41326,3.63552 -5.01048,11.87329 -0.62794,8.66111 -2.18615,12.1247 -5.75976,12.80257 -3.74462,0.71029 -4.89896,-0.96604 -4.89896,-7.11434 z"
       id="path3158"
       inkscape:connector-curvature="0" />
  </g>
</svg>
