<?xml version="1.0" encoding="UTF-8" standalone="no"?>
<!-- Created with Inkscape (http://www.inkscape.org/) -->

<svg
   xmlns:dc="http://purl.org/dc/elements/1.1/"
   xmlns:cc="http://creativecommons.org/ns#"
   xmlns:rdf="http://www.w3.org/1999/02/22-rdf-syntax-ns#"
   xmlns:svg="http://www.w3.org/2000/svg"
   xmlns="http://www.w3.org/2000/svg"
   xmlns:sodipodi="http://sodipodi.sourceforge.net/DTD/sodipodi-0.dtd"
   xmlns:inkscape="http://www.inkscape.org/namespaces/inkscape"
   width="300"
   height="300"
   id="svg2"
   version="1.1"
   inkscape:version="0.48.4 r9939"
   sodipodi:docname="image-seal.svg">
  <defs
     id="defs4" />
  <sodipodi:namedview
     id="base"
     pagecolor="#ffffff"
     bordercolor="#666666"
     borderopacity="1.0"
     inkscape:pageopacity="0.0"
     inkscape:pageshadow="2"
     inkscape:zoom="1.979899"
     inkscape:cx="209.738"
     inkscape:cy="123.37505"
     inkscape:document-units="px"
     inkscape:current-layer="layer1"
     showgrid="false"
     inkscape:window-width="1215"
     inkscape:window-height="1000"
     inkscape:window-x="65"
     inkscape:window-y="24"
     inkscape:window-maximized="1" />
  <metadata
     id="metadata7">
    <rdf:RDF>
      <cc:Work
         rdf:about="">
        <dc:format>image/svg+xml</dc:format>
        <dc:type
           rdf:resource="http://purl.org/dc/dcmitype/StillImage" />
        <dc:title />
      </cc:Work>
    </rdf:RDF>
  </metadata>
  <g
     inkscape:label="Calque 1"
     inkscape:groupmode="layer"
     id="layer1"
     transform="translate(0,-752.36218)">
    <path
       style="fill:#000000"
       d="m 131.4565,1032.2654 c -22.59527,-2.0934 -43.981536,-8.0885 -48.840946,-13.6914 -7.74553,-8.9307 -10.98301,-38.1302 -11.99627,-108.19783 -0.70998,-49.09333 0.97656,-56.30122 14.49512,-61.94965 13.369376,-5.58607 57.061386,-11.0734 69.002896,-8.66613 4.98539,1.00499 11.1038,1.64022 13.59649,1.41162 10.87334,-0.99717 53.29905,-0.0474 57.56022,1.28841 10.82039,3.39234 14.59452,30.08693 15.24788,107.84802 0.28976,34.48246 -2.22115,56.75386 -6.39838,56.75386 -1.40373,0 -3.33851,2.4772 -4.29948,5.505 -3.71945,11.719 -22.40269,18.2022 -56.13559,19.4793 -17.41129,0.6592 -36.41567,0.7577 -42.23194,0.2188 z m 72.98703,-16.5508 c 16.76287,-5.1437 20.64832,-16.83511 21.45172,-64.54898 0.77237,-45.87377 -2.38506,-91.95205 -6.58891,-96.1559 -1.62019,-1.62019 -16.27071,-3.58754 -32.55669,-4.3719 l -29.61091,-1.42606 1.04696,15.47501 1.04699,15.47499 28.41206,0 c 16.9271,0 28.41208,1.22136 28.41208,3.02145 0,3.22994 -9.51242,4.29869 -28.1568,3.16357 -6.34639,-0.38642 -15.52401,0.94816 -20.39472,2.96566 -8.37323,3.46831 -8.85584,4.63622 -8.85584,21.4303 l 0,17.76208 10.48866,0 c 9.16423,0 10.79125,-1.16782 12.88519,-9.24863 1.31812,-5.08675 3.73638,-9.24594 5.37391,-9.24265 4.58141,0.009 6.8781,11.74981 7.20834,36.84861 0.26377,20.05426 -0.54089,23.67828 -6.49706,29.25776 -20.34704,19.06024 -60.35809,15.89598 -70.84178,-5.60247 -1.98814,-4.0769 -4.02762,-18.93662 -4.53217,-33.02157 l -0.91743,-25.60898 8.30897,-0.95604 c 7.40793,-0.85238 8.30896,0.0151 8.30896,7.9857 0,9.06088 5.35674,13.74704 11.42627,9.99586 1.82857,-1.13014 3.74477,-10.86178 4.25818,-21.6259 0.77567,-16.26261 0.16739,-19.34037 -3.59869,-18.20602 -9.3845,2.82661 -40.95435,3.22492 -44.953346,0.56715 -8.56791,-5.69436 0.2955,-9.48588 22.175276,-9.48588 22.16928,0 22.18956,-0.006 25.50392,-9.51518 1.82438,-5.23337 3.31703,-12.20459 3.31703,-15.49162 0,-5.36523 -1.46775,-5.79446 -14.35184,-4.19705 -35.016926,4.34153 -43.155386,6.04421 -46.152686,9.65571 -6.12023,7.37443 -3.59539,96.40946 3.70414,130.6218 3.75794,17.61328 6.50168,20.87078 22.093526,26.23098 12.89707,4.4338 76.34002,3.2334 92.58669,-1.7518 z m -33.66071,-42.62384 c 11.16983,-3.48607 12.03817,-4.55763 12.03817,-14.85539 0,-6.12582 1.69218,-11.71881 3.7768,-12.48317 2.9695,-1.08881 2.99068,-2.21938 0.0991,-5.28916 -3.78547,-4.01873 -53.7073,-5.43412 -57.51085,-1.63055 -3.14589,3.14586 -0.67792,29.26825 3.18022,33.66106 4.57153,5.20512 22.74704,5.48766 38.41658,0.59721 z m 17.73654,-143.53812 c -0.18944,-1.24635 -0.8037,-6.21145 -1.36493,-11.03355 -1.49912,-12.88016 -5.684,-15.68312 -14.64703,-9.81031 -7.9289,5.19518 -16.87937,6.62753 -16.87937,2.7012 0,-1.25408 6.0216,-7.03259 13.38134,-12.84113 10.15012,-8.0108 13.86226,-13.29702 15.3728,-21.89142 2.97234,-16.91149 16.56747,-13.3164 16.56747,4.38108 0,7.38574 1.15101,8.46004 9.06431,8.46004 4.98538,0 9.06432,1.35965 9.06432,3.02144 0,1.66179 3.05921,3.06468 6.79825,3.11752 3.73903,0.0529 9.17762,1.9023 12.08576,4.10991 6.49244,4.92846 6.95391,13.92265 0.71435,13.92265 -4.79097,0 -16.91332,-5.98722 -19.73042,-9.74486 -0.90357,-1.2052 -4.98251,-2.56485 -9.06432,-3.02145 -6.64469,-0.74327 -7.52418,0.43089 -8.40203,11.21728 -0.97359,11.96273 -4.88034,19.67767 -9.96449,19.67767 -1.45833,0 -2.80654,-1.01973 -2.99601,-2.26607 z m -88.28441,-2.76967 c -1.10786,-1.10784 -2.0143,-7.22625 -2.0143,-13.59648 0,-14.44881 -4.580106,-14.95771 -22.660796,-2.51786 -15.610127,10.74005 -20.404059,11.38353 -19.094148,2.56297 0.62284,-4.19407 7.336538,-10.35974 18.917418,-17.37329 13.92939,-8.43579 18.51869,-13.07226 20.48114,-20.69161 2.891456,-11.22631 10.908066,-13.15105 16.627826,-3.99226 2.84276,4.55196 2.83651,6.16272 -0.0302,7.35945 -4.26268,1.78053 4.046,9.63522 18.66208,17.64237 10.92495,5.98496 13.13169,17.51381 3.35247,17.51381 -3.32359,0 -6.04288,-1.7124 -6.04288,-3.80535 0,-4.94476 -11.42528,-12.0667 -15.40854,-9.60492 -1.69231,1.04593 -2.84617,4.83102 -2.56408,8.41133 1.06917,13.57065 -0.29096,20.10614 -4.18461,20.10614 -2.21574,0 -4.93504,-0.90642 -6.04288,-2.0143 z"
       id="path3041"
       inkscape:connector-curvature="0" />
  </g>
</svg>
