<?xml version="1.0" encoding="UTF-8" standalone="no"?>
<!-- Created with Inkscape (http://www.inkscape.org/) -->

<svg
   xmlns:dc="http://purl.org/dc/elements/1.1/"
   xmlns:cc="http://creativecommons.org/ns#"
   xmlns:rdf="http://www.w3.org/1999/02/22-rdf-syntax-ns#"
   xmlns:svg="http://www.w3.org/2000/svg"
   xmlns="http://www.w3.org/2000/svg"
   xmlns:sodipodi="http://sodipodi.sourceforge.net/DTD/sodipodi-0.dtd"
   xmlns:inkscape="http://www.inkscape.org/namespaces/inkscape"
   width="300"
   height="300"
   id="svg2"
   version="1.1"
   inkscape:version="0.48.4 r9939"
   sodipodi:docname="image-seal.svg">
  <defs
     id="defs4" />
  <sodipodi:namedview
     id="base"
     pagecolor="#ffffff"
     bordercolor="#666666"
     borderopacity="1.0"
     inkscape:pageopacity="0.0"
     inkscape:pageshadow="2"
     inkscape:zoom="2.0018437"
     inkscape:cx="145.03351"
     inkscape:cy="130.6666"
     inkscape:document-units="px"
     inkscape:current-layer="layer1"
     showgrid="false"
     inkscape:window-width="1215"
     inkscape:window-height="1000"
     inkscape:window-x="65"
     inkscape:window-y="24"
     inkscape:window-maximized="1"
     fit-margin-top="10"
     fit-margin-left="10"
     fit-margin-right="10"
     fit-margin-bottom="10" />
  <metadata
     id="metadata7">
    <rdf:RDF>
      <cc:Work
         rdf:about="">
        <dc:format>image/svg+xml</dc:format>
        <dc:type
           rdf:resource="http://purl.org/dc/dcmitype/StillImage" />
        <dc:title />
      </cc:Work>
    </rdf:RDF>
  </metadata>
  <g
     inkscape:label="Calque 1"
     inkscape:groupmode="layer"
     id="layer1"
     transform="translate(0,-752.36218)">
    <path
       style="fill:#000000"
       d="m 215.64022,1045.3916 c -0.68962,-1.1157 -1.50647,-16.4262 -1.8152,-34.0233 -0.75163,-42.83806 -1.66636,-48.46239 -7.57666,-46.58668 -6.90323,2.19121 -24.78851,2.5543 -26.79843,0.5445 -2.65864,-2.65862 4.07379,-9.50298 9.34756,-9.50298 8.99473,0 17.88846,-5.76452 17.09917,-11.08277 -0.89949,-6.0612 -21.77687,-19.44968 -30.32866,-19.44968 -1.39088,0 -1.82126,-1.14497 -0.95637,-2.5444 2.55569,-4.13519 14.80615,-2.91951 26.23799,2.60368 5.86047,2.83163 10.6918,5.98029 10.7363,6.99702 0.0445,1.01699 1.76195,4.07151 3.81656,6.78788 3.65435,4.8315 3.81205,4.83456 7.24619,0.13739 4.19045,-5.73094 1.37414,-16.16439 -6.21771,-23.03498 -6.31548,-5.71545 -6.32067,-11.30235 -0.0102,-11.30235 5.1554,0 13.56435,10.00299 17.82131,21.19973 2.98793,7.8588 -0.58305,20.55674 -8.12879,28.90507 -4.30456,4.76205 -4.82695,7.92546 -3.57145,21.62716 4.70319,51.32841 4.81771,55.55741 1.70773,63.06551 -3.1492,7.6029 -6.17735,9.5931 -8.60909,5.6585 z m -123.341986,-9.9853 c -2.04642,-3.8237 -1.78674,-61.84583 0.30942,-69.13749 0.24349,-0.84728 -2.76991,-6.95682 -6.69653,-13.57702 -5.52259,-9.31088 -6.74976,-13.81034 -5.41901,-19.86925 1.68272,-7.66136 16.81537,-25.34248 21.689736,-25.34248 4.9962,0 2.21044,9.14597 -5.190936,17.04248 -6.7767,7.23009 -7.29713,8.86103 -4.66854,14.63014 3.48879,7.65703 10.589686,8.50151 13.838516,1.64544 3.42548,-7.22907 28.62415,-26.13296 33.566,-25.18123 8.44986,1.62727 5.70588,8.40645 -6.41657,15.8528 -11.78532,7.23899 -23.30298,18.35077 -23.48867,22.66068 -0.10788,2.50392 27.08433,0.8399 33.79246,-2.06755 5.20057,-2.25432 10.86144,1.83373 8.2934,5.98868 -2.51223,4.06489 -18.98205,7.91911 -33.90815,7.93488 l -13.35795,0.0254 0,32.68243 c 0,28.99969 -0.5506,33.18089 -4.886266,37.10459 -4.65017,4.2083 -5.01043,4.1898 -7.45691,-0.3814 z M 118.63446,906.49816 c -4.19874,-1.82991 -9.12892,-5.12825 -10.95593,-7.32967 -3.5764,-4.3093 -8.655836,-46.56937 -7.10521,-59.11427 0.51892,-4.19821 1.07406,-10.27264 1.23361,-13.4987 0.22467,-4.54219 3.51045,-7.33993 14.56327,-12.40007 12.8991,-5.90541 17.38081,-6.54148 46.55342,-6.60702 22.86003,-0.0514 34.47313,0.98584 39.79471,3.55426 l 7.51449,3.62679 -0.16055,33.01734 c -0.1837,37.77356 -3.10985,49.80663 -13.26469,54.54743 -3.81135,1.77933 -8.91785,4.24653 -11.34782,5.48266 -6.91868,3.51956 -58.06098,2.54092 -66.82527,-1.27875 z m 60.83811,-9.67214 c 7.64243,-2.04402 12.17955,-4.96249 14.03055,-9.02502 6.09181,-13.37003 6.01062,-13.39776 -39.24647,-13.39776 -39.12657,0 -41.98212,0.31964 -41.98212,4.69942 0,5.11612 6.05339,12.62973 14.02989,17.41419 6.60997,3.96482 38.80026,4.15201 53.16815,0.30917 z m 15.3304,-32.8756 c 0.54009,-0.54826 1.78398,-5.29048 2.76425,-10.53825 l 1.78226,-9.54139 -39.72092,0 c -36.32843,0 -40.15555,0.43463 -44.80966,5.08874 -2.79881,2.79881 -5.08874,7.33237 -5.08874,10.07459 0,4.48894 2.09205,5.05949 20.99106,5.72484 26.76132,0.94213 62.80521,0.48737 64.08175,-0.80853 z m 6.44364,-32.42887 c -0.0445,-2.30406 -1.78403,-6.44189 -3.86561,-9.19521 -3.4136,-4.51522 -6.86555,-4.99559 -35.20672,-4.89949 -33.41815,0.11322 -47.35538,3.36905 -47.35538,11.06231 0,2.39581 0.62429,4.98028 1.38727,5.74329 0.763,0.763 20.22744,1.40775 43.25431,1.43278 37.22486,0.0405 41.85806,-0.41898 41.78613,-4.14368 z m -88.97208,-37.26601 c 0,-10.71135 -4.25071,-11.5615 -12.721866,-2.54437 -3.28669,3.49851 -8.72256,6.36093 -12.07976,6.36093 -9.86348,0 -5.99344,-7.75166 8.87126,-17.76903 7.301916,-4.92079 13.169086,-10.66432 13.038096,-12.76343 -0.53854,-8.63234 0.67314,-10.17749 7.98101,-10.17749 6.71124,0 7.63311,0.88346 7.63311,7.31507 0,5.92225 1.33226,7.59905 6.99703,8.80655 11.29937,2.40858 23.63588,11.18852 21.93792,15.61334 -2.13045,5.55186 -11.87275,4.80199 -15.62262,-1.2025 -1.79658,-2.87679 -5.93355,-5.08874 -9.51732,-5.08874 -5.6997,0 -6.33938,1.02698 -6.33938,10.17748 0,8.48123 -0.84811,10.17749 -5.08874,10.17749 -4.11946,0 -5.08874,-1.69626 -5.08874,-8.9053 z m 78.02739,7.20904 c -0.93294,-0.93292 -1.69625,-4.36782 -1.69625,-7.63311 0,-3.58095 -1.51451,-5.93686 -3.81656,-5.93686 -2.09911,0 -3.81656,1.06782 -3.81656,2.37291 0,3.72928 -10.38739,6.06804 -13.43133,3.02411 -3.05472,-3.05472 5.50562,-11.97847 15.02197,-15.65972 3.52851,-1.36492 5.99963,-5.24959 7.11231,-11.18073 0.93783,-4.99895 2.30752,-9.08903 3.04375,-9.08903 2.64032,0 8.60911,7.33619 8.65013,10.63184 0.0229,1.84922 6.89283,6.75795 15.26623,10.9083 9.80366,4.85927 15.22437,9.109 15.22437,11.93562 0,7.76629 -4.78212,7.6896 -16.33937,-0.26199 -6.21137,-4.27353 -11.9017,-7.77005 -12.64517,-7.77005 -0.74349,0 -2.585,4.57987 -4.09229,10.17748 -2.64294,9.81514 -4.89514,12.06735 -8.48123,8.48123 z"
       id="path3002"
       inkscape:connector-curvature="0" />
  </g>
</svg>
