<?xml version="1.0" encoding="UTF-8" standalone="no"?>
<!-- Created with Inkscape (http://www.inkscape.org/) -->

<svg
   xmlns:dc="http://purl.org/dc/elements/1.1/"
   xmlns:cc="http://creativecommons.org/ns#"
   xmlns:rdf="http://www.w3.org/1999/02/22-rdf-syntax-ns#"
   xmlns:svg="http://www.w3.org/2000/svg"
   xmlns="http://www.w3.org/2000/svg"
   xmlns:sodipodi="http://sodipodi.sourceforge.net/DTD/sodipodi-0.dtd"
   xmlns:inkscape="http://www.inkscape.org/namespaces/inkscape"
   width="300"
   height="300"
   id="svg2"
   version="1.1"
   inkscape:version="0.48.4 r9939"
   sodipodi:docname="image-seal.svg">
  <defs
     id="defs4" />
  <sodipodi:namedview
     id="base"
     pagecolor="#ffffff"
     bordercolor="#666666"
     borderopacity="1.0"
     inkscape:pageopacity="0.0"
     inkscape:pageshadow="2"
     inkscape:zoom="2.7366667"
     inkscape:cx="150"
     inkscape:cy="150"
     inkscape:document-units="px"
     inkscape:current-layer="layer1"
     showgrid="false"
     inkscape:window-width="1215"
     inkscape:window-height="1000"
     inkscape:window-x="65"
     inkscape:window-y="24"
     inkscape:window-maximized="1"
     showguides="true"
     inkscape:guide-bbox="true" />
  <metadata
     id="metadata7">
    <rdf:RDF>
      <cc:Work
         rdf:about="">
        <dc:format>image/svg+xml</dc:format>
        <dc:type
           rdf:resource="http://purl.org/dc/dcmitype/StillImage" />
        <dc:title />
      </cc:Work>
    </rdf:RDF>
  </metadata>
  <g
     inkscape:label="Calque 1"
     inkscape:groupmode="layer"
     id="layer1"
     transform="translate(0,-752.36218)">
    <path
       style="fill:#000000"
       d="m 218.71255,1043.1594 c -2.25246,-2.714 -3.17806,-11.5257 -2.61318,-24.8774 1.0661,-25.19927 -5.47587,-80.04274 -10.3416,-86.69704 -2.93906,-4.0194 -4.29129,-4.21822 -7.96321,-1.17078 -2.43264,2.01891 -8.6483,4.11422 -13.81256,4.65623 -5.16427,0.54202 -17.06604,2.51211 -26.44839,4.37798 -9.38235,1.86586 -29.85293,4.20019 -45.49018,5.18741 -15.637252,0.9872 -29.97179,2.79364 -31.854531,4.01426 -4.753371,3.08176 -17.900354,-0.62578 -17.900354,-5.04799 0,-4.75586 11.664213,-7.05695 49.754885,-9.81547 47.18591,-3.4172 78.18625,-9.22445 78.18625,-14.64653 0,-2.73362 -23.02796,-6.44519 -38.38234,-6.18633 -17.21834,0.29029 -48.75652,3.4147 -71.80136,7.11316 -15.034834,2.41294 -21.474927,2.46008 -23.761112,0.174 -5.231888,-5.23188 5.456882,-8.73235 33.11613,-10.84523 45.649542,-3.4871 91.272782,-3.6743 103.448482,-0.42439 13.47063,3.59551 17.1604,0.86002 17.23861,-12.78018 0.0345,-6.01605 -1.58005,-7.92414 -7.77509,-9.18856 -15.24938,-3.1125 -48.43921,-1.51827 -117.99015,5.66753 -10.957123,1.13205 -16.348033,0.6647 -16.348033,-1.41725 0,-1.70844 3.12302,-3.10626 6.940047,-3.10626 3.817027,0 7.730766,-1.27942 8.697202,-2.84314 0.966436,-1.56372 8.635119,-2.84314 17.041524,-2.84314 8.4064,0 18.49817,-1.22189 22.42614,-2.71528 3.92797,-1.49344 25.99614,-2.94222 49.04037,-3.21954 40.809,-0.49112 42.03896,-0.33091 47.29543,6.16057 4.33209,5.3499 5.02023,9.21037 3.48799,19.56754 -1.04987,7.09653 -3.07362,13.32925 -4.49723,13.85048 -3.3413,1.2234 -3.37891,16.70852 -0.0456,18.76865 2.90205,1.79357 5.02581,14.55194 8.66792,52.07201 1.40404,14.46399 3.41445,30.22129 4.46759,35.01619 1.88466,8.5808 -2.84715,25.4013 -7.14572,25.4013 -1.18254,0 -3.71962,-1.8912 -5.63795,-4.2026 z M 93.265497,1013.4257 c -6.860923,-3.2813 -9.588127,-6.4427 -9.427683,-10.9285 0.124159,-3.47138 -0.834631,-6.31158 -2.130647,-6.31158 -1.296018,0 -2.278716,-4.15809 -2.183778,-9.2402 0.09493,-5.0821 -0.690746,-13.39828 -1.745967,-18.48038 -1.760217,-8.47747 -1.330352,-9.24019 5.207766,-9.24019 3.919494,0 7.862784,1.91911 8.76287,4.2647 1.334031,3.47642 8.21198,4.2647 37.210792,4.2647 l 35.57426,0 1.9135,-7.81862 c 4.82061,-19.69716 15.25366,-12.08927 15.25366,11.12314 0,20.08716 -8.11381,38.56943 -17.80418,40.55573 -3.49937,0.7173 -12.75954,2.6247 -20.57816,4.2387 -19.45456,4.0159 -38.51263,3.0916 -50.052433,-2.4275 z m 44.366163,-9.0639 c 20.6179,-3.5037 25.6442,-6.85887 28.28468,-18.8809 1.5971,-7.27158 0.99994,-9.59377 -2.84666,-11.06987 -2.67725,-1.02734 -6.93723,-0.59322 -9.46661,0.96473 -2.52938,1.55796 -9.43719,2.25487 -15.3507,1.54869 -5.9135,-0.70615 -19.02747,-0.39767 -29.14214,0.68551 -20.616511,2.20783 -22.362026,4.91982 -13.023381,20.23414 6.145421,10.0778 13.658141,11.2564 41.544811,6.5177 z M 96.406178,868.47865 c 0,-6.76405 -1.968041,-9.25691 -10.66176,-13.5049 -9.833677,-4.80501 -10.729066,-6.25856 -11.528323,-18.71454 -0.521241,-8.12321 0.328499,-13.5049 2.132352,-13.5049 1.649403,0 2.998915,2.49863 2.998915,5.5525 0,9.24202 6.284442,20.03573 11.665435,20.03573 3.927947,0 5.26289,-2.71526 5.940691,-12.08333 1.053009,-14.5539 8.896432,-17.27692 10.236692,-3.55392 1.45422,14.8899 2.56277,16.30038 9.78655,12.45231 8.26347,-4.40189 13.34224,-11.06887 13.45667,-17.66472 0.0506,-2.91606 1.65611,-4.66291 3.64434,-3.96515 4.61065,1.61817 3.11749,22.03303 -1.9925,27.24193 -2.07659,2.11678 -8.07521,4.72297 -13.33028,5.79156 -7.30464,1.48534 -9.78955,3.59187 -10.55208,8.94541 -0.93882,6.59116 -4.84299,11.12528 -9.664349,11.22374 -1.172794,0.0227 -2.132353,-3.68934 -2.132353,-8.25172 z m 90.156562,-8.76357 c -1.0005,-3.82592 -3.87808,-5.68627 -8.79546,-5.68627 -12.21126,0 -23.49897,-26.68849 -14.46037,-34.18985 4.84606,-4.02187 6.34409,-1.21376 7.62203,14.2879 0.74021,8.9789 1.65355,9.95097 9.34976,9.95097 8.33986,0 8.52941,-0.3159 8.52941,-14.21568 0,-10.74074 1.04248,-14.21568 4.2647,-14.21568 3.05971,0 4.50694,3.75183 5.12202,13.27838 0.89494,13.86132 5.54662,20.60035 12.40337,17.96917 5.54949,-2.12954 10.51258,-16.38639 8.80822,-25.30224 -1.15333,-6.03322 -0.32867,-7.36688 4.55528,-7.36688 6.75428,0 10.57076,10.07474 7.87909,20.79922 -2.59884,10.35462 -12.29249,19.71547 -20.41638,19.71547 -4.13174,0 -8.83876,2.34423 -10.70395,5.33088 -4.37788,7.0101 -12.28349,6.81165 -14.15772,-0.35539 z M 95.458467,812.32947 c -1.042484,-1.04247 -1.895425,-6.16011 -1.895425,-11.37255 0,-9.58495 -3.090583,-11.78954 -9.36019,-6.67682 -18.245948,14.8791 -21.102802,16.51723 -24.809962,14.22606 -5.252063,-3.24595 1.456385,-10.84244 20.192232,-22.86518 7.948592,-5.10062 13.999565,-11.24372 14.51521,-14.73626 1.314459,-8.90297 7.552958,-9.38152 10.804678,-0.82886 1.97511,5.19492 7.64252,9.61017 18.49788,14.41092 9.22569,4.08004 15.65033,8.72339 15.65033,11.31113 0,7.2738 -8.34486,8.21903 -15.25437,1.72786 -9.26044,-8.69971 -16.02012,-7.89178 -16.02012,1.91482 0,10.53923 -7.16951,18.03965 -12.320263,12.88888 z m 96.589333,-8.60669 c -0.99997,-0.99998 -1.81812,-5.44312 -1.81812,-9.8737 0,-10.56102 -5.75047,-10.39706 -16.62142,0.47387 -9.6467,9.6467 -14.64444,10.85731 -14.67155,3.55392 -0.0202,-5.43215 19.08621,-23.45587 24.86484,-23.45587 2.0879,0 3.58499,-3.56188 3.58499,-8.52941 0,-6.76112 1.23404,-8.52941 5.95245,-8.52941 3.56135,0 6.54976,2.28418 7.43943,5.68627 0.81785,3.12745 3.2569,5.68627 5.4201,5.68627 2.16321,0 3.93311,1.27942 3.93311,2.84314 0,1.56373 2.55882,2.84314 5.68627,2.84314 3.12745,0 5.68627,1.27941 5.68627,2.84313 0,1.56373 2.41709,2.84314 5.3713,2.84314 8.33273,0 18.64598,9.64264 16.44574,15.37639 -1.67229,4.35793 -3.88104,3.80676 -20.31573,-5.0696 -10.14169,-5.47747 -18.95584,-9.07776 -19.58701,-8.00058 -0.63116,1.07718 -2.03616,6.10191 -3.12221,11.16608 -2.04436,9.53258 -5.10069,13.29097 -8.24846,10.14322 z"
       id="path3055"
       inkscape:connector-curvature="0" />
  </g>
</svg>
