<?xml version="1.0" encoding="UTF-8" standalone="no"?>
<!-- Created with Inkscape (http://www.inkscape.org/) -->

<svg
   xmlns:dc="http://purl.org/dc/elements/1.1/"
   xmlns:cc="http://creativecommons.org/ns#"
   xmlns:rdf="http://www.w3.org/1999/02/22-rdf-syntax-ns#"
   xmlns:svg="http://www.w3.org/2000/svg"
   xmlns="http://www.w3.org/2000/svg"
   xmlns:sodipodi="http://sodipodi.sourceforge.net/DTD/sodipodi-0.dtd"
   xmlns:inkscape="http://www.inkscape.org/namespaces/inkscape"
   width="300"
   height="300"
   viewBox="0 0 300 300"
   id="svg2"
   version="1.1"
   inkscape:version="0.91 r13725"
   sodipodi:docname="箸-seal.svg">
  <defs
     id="defs4">
    <clipPath
       clipPathUnits="userSpaceOnUse"
       id="clipPath4204">
      <rect
         style="fill:#0000ff;fill-rule:evenodd;stroke:#000000;stroke-width:1px;stroke-linecap:butt;stroke-linejoin:miter;stroke-opacity:1"
         id="rect4206"
         width="15.451179"
         height="21.584471"
         x="164.41942"
         y="794.64594" />
    </clipPath>
  </defs>
  <sodipodi:namedview
     id="base"
     pagecolor="#ffffff"
     bordercolor="#666666"
     borderopacity="1.0"
     inkscape:pageopacity="0.0"
     inkscape:pageshadow="2"
     inkscape:zoom="1.7233333"
     inkscape:cx="150"
     inkscape:cy="150"
     inkscape:document-units="px"
     inkscape:current-layer="layer1"
     showgrid="false"
     inkscape:window-width="1280"
     inkscape:window-height="755"
     inkscape:window-x="0"
     inkscape:window-y="1"
     inkscape:window-maximized="1"
     units="px"
     showguides="false" />
  <metadata
     id="metadata7">
    <rdf:RDF>
      <cc:Work
         rdf:about="">
        <dc:format>image/svg+xml</dc:format>
        <dc:type
           rdf:resource="http://purl.org/dc/dcmitype/StillImage" />
        <dc:title></dc:title>
      </cc:Work>
    </rdf:RDF>
  </metadata>
  <g
     inkscape:label="Layer 1"
     inkscape:groupmode="layer"
     id="layer1"
     transform="translate(0,-752.36216)">
    <path
       style="fill:#000000"
       d="m 209.89292,1034.0133 c -0.67894,-2.2862 -1.07954,-6.3444 -1.08077,-10.9484 -0.001,-4.0236 -0.31561,-9.9633 -0.69897,-13.1993 -0.38336,-3.2361 -0.98979,-13.67111 -1.34762,-23.18901 -0.93049,-24.7499 -3.09037,-33.6526 -9.42349,-38.8421 -5.05316,-4.1407 -8.68651,-5.2997 -18.29288,-5.8354 -4.75893,-0.2654 -9.20923,-0.7164 -9.88956,-1.0023 -1.33137,-0.5594 -3.26238,-3.79055 -3.26238,-5.4589 0,-0.56234 0.85661,-1.7067 1.90357,-2.54301 1.8194,-1.45334 2.33205,-1.50226 11.59447,-1.1064 10.6146,0.45365 16.09362,1.59229 21.30163,4.42685 6.38021,3.47256 12.22784,11.75516 15.17571,21.49506 1.27283,4.2055 1.46825,7.6693 2.09135,37.0696 0.7324,34.55781 0.51264,41.01421 -1.41441,41.55371 -5.40799,1.514 -5.49798,1.4813 -6.65665,-2.4204 z m -127.850818,-1.7521 c -1.961722,-0.5483 -2.772512,-5.6776 -3.157109,-19.9729 -0.385091,-14.31391 0.705484,-43.41371 1.945635,-51.91561 1.008249,-6.912 4.520287,-19.9057 6.9761,-25.80987 1.885462,-4.53298 2.516104,-5.3277 6.227982,-7.84839 8.98682,-6.10283 22.05563,-10.26966 41.20562,-13.1379 3.12618,-0.46823 5.96682,-1.0329 6.31253,-1.25482 1.20753,-0.77514 1.97972,-24.19464 1.33707,-40.5515 -0.69357,-17.65276 -0.29679,-31.07386 1.10505,-37.3792 1.30793,-5.88291 3.36906,-12.11362 4.00721,-12.11362 0.29794,0 1.63843,0.96293 2.97886,2.13985 3.95905,3.47609 4.16487,5.10439 3.92928,31.08609 -0.11564,12.75392 0.0122,30.15649 0.28411,38.67238 l 0.49436,15.48343 10.46883,-0.33837 c 11.01348,-0.35597 16.62873,-1.54812 26.84483,-5.69929 4.81289,-1.95565 5.44615,-2.5973 8.20753,-8.31623 2.67671,-5.54357 3.43939,-10.9494 3.44564,-24.42254 0.007,-14.55896 0.98396,-17.42082 5.95691,-17.4454 1.81583,-0.009 2.3213,0.38727 3.29771,2.58518 2.84822,6.4114 2.76599,15.78571 -0.28083,32.01459 -2.41051,12.83957 -2.95656,14.28832 -6.60274,17.51813 -10.66842,9.45017 -22.36602,13.63422 -43.05787,15.40114 -7.04585,0.60166 -7.76287,1.33165 -7.76157,7.90192 6.9e-4,4.28613 2.2342,15.20882 4.56428,22.32262 1.62211,4.9523 8.31392,10.5238 16.64261,13.8562 l 2.85108,1.1408 0.42268,-2.5565 c 0.23248,-1.406 0.42611,-3.5893 0.4303,-4.8516 0.0103,-3.1113 0.93532,-4.6159 3.4877,-5.6731 2.82159,-1.1688 3.69233,-0.2984 5.96477,5.9621 2.50931,6.913 3.42669,18.3613 2.45292,30.6105 -0.68204,8.5793 -1.0604,10.38081 -3.42977,16.33081 -2.53082,6.3553 -2.93642,6.9302 -8.16136,11.5688 -9.2162,8.1819 -14.7175,9.8795 -32.14818,9.9199 -13.36426,0.031 -17.27478,-0.6632 -25.61166,-4.5459 -6.31913,-2.9431 -12.67819,-9.927 -14.91768,-16.3836 -2.95522,-8.52001 -3.9837,-17.10421 -3.57664,-29.85251 0.36284,-11.3633 0.83957,-14.4043 3.10321,-19.7951 1.40314,-3.3415 1.95488,-3.7828 4.7467,-3.7965 2.15527,-0.011 2.16494,0.01 3.39341,5.8599 1.55305,7.4006 2.1324,7.6656 9.06606,4.1462 10.17713,-5.1656 13.44987,-10.7853 15.54259,-26.68828 0.7643,-5.8081 1.23069,-10.97439 1.03641,-11.48067 -0.78636,-2.04921 -11.82171,-0.41425 -24.67494,3.65577 -12.71949,4.02767 -14.51843,5.01665 -17.61723,9.6852 -8.276833,12.46958 -10.271034,26.52908 -9.85726,69.49569 0.171972,17.8572 0.09761,19.207 -1.201097,21.8045 -1.122809,2.2456 -1.776827,2.7892 -3.461037,2.8771 -1.142142,0.06 -2.587996,-0.035 -3.213004,-0.2094 z m 83.325978,-17.478 c 5.25278,-2.0488 12.101,-6.6776 13.26687,-8.9672 2.43628,-4.7844 5.18092,-21.22601 4.30792,-25.80641 -0.42226,-2.2154 -0.76352,-2.4488 -6.84146,-4.6789 -13.1639,-4.8302 -17.06092,-7.4625 -23.16916,-15.6502 -1.70414,-2.2842 -3.29996,-4.0178 -3.54626,-3.8523 -0.2463,0.1655 -1.71256,2.1887 -3.25835,4.496 -3.55658,5.3085 -7.28601,8.1538 -13.24748,10.107 -2.58952,0.8483 -7.27802,2.7569 -10.41891,4.2412 l -5.71071,2.6988 0,8.8336 c 0,10.659 1.11646,15.62341 4.69718,20.88631 2.85935,4.2026 4.10991,4.9883 10.59932,6.6589 13.47138,3.4679 26.07694,3.8587 33.32104,1.0332 z M 136.402,995.96009 c -7.50015,-1.2545 -9.75754,-3.3005 -8.53332,-7.7342 0.6563,-2.377 1.01004,-2.6434 5.24881,-3.9526 3.84979,-1.1891 6.44341,-1.4038 16.95414,-1.4038 8.91455,0 13.04542,0.2659 14.66881,0.9442 2.64861,1.1066 6.00226,4.8368 6.00226,6.676 0,1.8149 -3.2995,3.9426 -8.02092,5.1723 -4.44742,1.1584 -20.11539,1.3359 -26.31978,0.2981 z m -25.6115,-89.54737 c -3.46838,-0.89666 -7.44637,-2.21527 -8.83998,-2.93024 -5.461118,-2.80172 -13.14412,-14.96454 -15.655497,-24.78391 -2.787255,-10.89808 -2.413886,-25.90566 0.723066,-29.06382 1.274914,-1.28353 1.478942,-1.29998 3.259569,-0.26288 3.517285,2.04861 5.018074,6.37321 6.085623,17.53599 1.034483,10.81711 1.639597,13.86397 3.886029,19.56701 1.30109,3.30308 1.81146,3.8173 5.67743,5.72027 4.02816,1.9828 8.64098,3.10715 19.33952,4.71389 5.25071,0.78857 7.7718,2.11616 8.95658,4.71645 1.11774,2.45317 0.0656,3.82124 -4.0329,5.24395 -4.78207,1.65998 -11.85607,1.49345 -19.39944,-0.45671 z m 8.38988,-19.90332 c -1.00102,-2.90912 -1.34987,-6.80096 -1.69341,-18.89244 -0.42355,-14.90724 -0.47424,-15.31419 -2.40236,-19.28701 -1.75138,-3.60862 -2.40117,-4.26076 -5.8626,-5.88376 -3.85229,-1.80628 -4.05893,-1.82533 -19.81366,-1.82758 -14.523458,-0.002 -16.163777,-0.12357 -18.689596,-1.38442 -2.669508,-1.33256 -2.768829,-1.50467 -2.768829,-4.79794 l 0,-3.41581 3.461037,-0.95051 c 2.653233,-0.72866 6.773026,-0.85995 17.651284,-0.56251 21.481824,0.58738 29.078354,2.56104 33.017604,8.57831 4.97873,7.6051 6.72369,17.48567 6.28108,35.56554 -0.32219,13.16082 -0.59142,14.8118 -2.50259,15.34609 -5.24131,1.46528 -5.32888,1.43266 -6.67796,-2.48796 z m 53.79368,1.04921 c -0.99581,-2.2006 -1.19191,-4.81075 -1.1862,-15.7884 0.007,-13.45392 0.72623,-19.73718 3.17109,-27.70302 1.08092,-3.52184 1.80185,-4.56654 4.6504,-6.73887 7.04086,-5.36942 14.44477,-7.17575 32.31968,-7.88501 15.61899,-0.61975 21.11232,0.86403 21.11232,5.70253 0,1.22736 -0.73988,2.02503 -2.94188,3.17166 -2.7228,1.41782 -4.17902,1.56092 -19.55485,1.92159 -16.41569,0.38508 -16.65984,0.41267 -20.5591,2.32356 -3.4717,1.70136 -4.17318,2.40825 -5.83472,5.8798 l -1.88859,3.94595 -0.0491,16.61298 c -0.0579,19.61804 -0.30438,20.63373 -5.09103,20.97996 -2.82638,0.20444 -3.00697,0.099 -4.14807,-2.42273 z m 18.16407,-65.0507 c -1.76224,-3.72505 -1.85125,-4.42362 -1.76661,-13.86316 0.0503,-5.60835 -0.21804,-10.51439 -0.6157,-11.25743 -0.69202,-1.29305 -0.78784,-1.29324 -5.27215,-0.0109 -4.28328,1.22491 -4.98343,1.73405 -11.25851,8.18711 -5.48149,5.63696 -7.25018,7.03149 -9.78317,7.71355 -5.25018,1.41372 -6.7474,-1.19023 -4.41452,-7.67773 1.0364,-2.88215 2.49323,-4.54936 9.2227,-10.55459 7.43156,-6.63175 8.4772,-7.3171 14.91395,-9.77526 3.80714,-1.45391 7.01481,-2.7182 7.12817,-2.80951 0.11335,-0.0913 0.53853,-2.30566 0.94483,-4.92076 0.40632,-2.6151 1.343,-6.04191 2.08153,-7.61514 1.27243,-2.71058 1.45864,-2.83261 3.5545,-2.32946 5.24485,1.25914 6.02092,2.63415 4.60497,8.15887 -1.59875,6.23802 -0.5414,7.41084 8.85998,9.82754 3.53448,0.90857 15.80326,8.98966 20.4654,13.47997 5.11737,4.92877 7.49112,11.43172 4.94439,13.54532 -1.50002,1.2449 -5.13461,0.98569 -6.95865,-0.49628 -0.849,-0.68978 -3.98613,-3.38634 -6.9714,-5.99234 -6.3235,-5.52013 -9.81937,-7.69784 -15.90117,-9.90541 l -4.40906,-1.60039 0,13.77961 0,13.77961 -1.79205,2.12973 c -1.22605,1.45707 -2.41262,2.12973 -3.75687,2.12973 -1.70884,0 -2.2066,-0.51107 -3.82056,-3.92272 z m -87.98043,2.70076 c -0.51032,-0.32976 -0.947,-4.88911 -1.24206,-12.96829 -0.25027,-6.85285 -0.62089,-13.60734 -0.82361,-15.00997 l -0.36856,-2.55025 -5.64071,2.37895 c -4.232861,1.78519 -6.681502,3.38626 -9.810798,6.4149 -7.578487,7.3347 -13.661262,11.14068 -17.858325,11.1739 -1.463622,0.0116 -2.092282,-0.43609 -2.6417,-1.88117 -1.463639,-3.84966 -0.327233,-5.89135 7.369098,-13.23948 8.613402,-8.2237 12.874021,-10.92161 21.984181,-13.92078 7.659844,-2.52171 8.088964,-3.01522 8.088964,-9.30265 0,-2.01233 0.33231,-4.61203 0.73846,-5.77711 0.68376,-1.96143 0.8959,-2.07317 2.86421,-1.50867 3.50747,1.00593 4.70336,2.56146 4.70768,6.12348 0.002,1.74938 0.31685,4.30747 0.69938,5.68463 0.64893,2.33618 1.12399,2.68347 7.09127,5.18409 7.77523,3.25827 17.41886,9.47467 22.35363,14.40944 2.72188,2.72189 3.9354,4.59784 4.75111,7.34462 1.66221,5.59727 1.71675,5.51438 -3.62843,5.51438 l -4.72396,0 -4.44778,-3.87534 c -5.16871,-4.50348 -11.23974,-8.93199 -16.38081,-11.949 -3.62183,-2.12546 -3.62696,-2.12622 -3.96332,-0.59316 -0.18524,0.84427 -0.42479,6.67469 -0.53234,12.95647 -0.23556,13.7578 -0.94757,15.92773 -5.22058,15.91017 -1.4179,-0.006 -2.93215,-0.23946 -3.365,-0.51916 z"
       id="path4193"
       inkscape:connector-curvature="0" />
  </g>
</svg>
