<?xml version="1.0" encoding="UTF-8" standalone="no"?>
<!-- Created with Inkscape (http://www.inkscape.org/) -->

<svg
   xmlns:dc="http://purl.org/dc/elements/1.1/"
   xmlns:cc="http://creativecommons.org/ns#"
   xmlns:rdf="http://www.w3.org/1999/02/22-rdf-syntax-ns#"
   xmlns:svg="http://www.w3.org/2000/svg"
   xmlns="http://www.w3.org/2000/svg"
   xmlns:sodipodi="http://sodipodi.sourceforge.net/DTD/sodipodi-0.dtd"
   xmlns:inkscape="http://www.inkscape.org/namespaces/inkscape"
   version="1.0"
   width="300"
   height="300"
   id="svg2"
   inkscape:version="0.48.4 r9939"
   sodipodi:docname="dessin.svg">
  <metadata
     id="metadata2990">
    <rdf:RDF>
      <cc:Work
         rdf:about="">
        <dc:format>image/svg+xml</dc:format>
        <dc:type
           rdf:resource="http://purl.org/dc/dcmitype/StillImage" />
      </cc:Work>
    </rdf:RDF>
  </metadata>
  <sodipodi:namedview
     pagecolor="#ffffff"
     bordercolor="#666666"
     borderopacity="1"
     objecttolerance="10"
     gridtolerance="10"
     guidetolerance="10"
     inkscape:pageopacity="0"
     inkscape:pageshadow="2"
     inkscape:window-width="1215"
     inkscape:window-height="1000"
     id="namedview2988"
     showgrid="false"
     inkscape:zoom="2.2250294"
     inkscape:cx="129.01005"
     inkscape:cy="139.3918"
     inkscape:window-x="65"
     inkscape:window-y="24"
     inkscape:window-maximized="1"
     inkscape:current-layer="svg2"
     showguides="true"
     inkscape:guide-bbox="true" />
  <defs
     id="defs5" />
  <path
     style="fill:#000000"
     d="m 65.111687,273.76563 c -1.057572,-2.42621 -1.169258,-27.9189 -0.248179,-56.65044 1.928085,-60.14411 2.839702,-62.28783 28.103021,-66.0862 32.169151,-4.83667 104.957221,-1.81492 122.315261,5.07783 8.63836,3.43024 10.90802,14.88928 12.17474,61.46748 1.3371,49.16598 0.19494,58.09895 -7.59656,59.41992 -4.37798,0.74223 -5.06235,-1.67187 -5.16373,-18.21485 -0.24788,-40.45581 -2.13011,-79.30815 -4.22102,-87.13064 -1.25094,-4.67997 -4.99901,-9.29608 -8.77905,-10.8123 -10.19765,-4.09037 -89.72573,-3.86007 -103.081078,0.2985 -6.153219,1.91597 -12.462637,4.606 -14.020933,5.97783 -1.558298,1.37183 -3.721911,24.99065 -4.808027,52.48626 -1.725987,43.6942 -2.653576,50.53286 -7.363166,54.28497 -5.009602,3.99113 -5.523585,3.9828 -7.311267,-0.11849 z m 68.355363,-43.30481 c -21.40795,-2.92248 -24.02417,-4.60332 -27.40415,-17.60636 -3.75221,-14.43512 0.72733,-26.78617 11.62403,-32.04988 9.56903,-4.62236 49.80593,-4.5538 59.69597,0.10172 7.06499,3.32569 7.84981,5.15799 7.84981,18.32688 0,25.67867 -17.05368,35.96631 -51.76566,31.22764 z m 33.18834,-18.09467 c 4.13659,-7.1308 2.3879,-20.14026 -3.43182,-25.53111 -2.97881,-2.75928 -7.36304,-2.79691 -23.36945,-0.20053 -18.80967,3.05109 -19.82891,3.5982 -22.48614,12.07028 -5.70616,18.19311 4.54354,24.71202 33.76299,21.47358 8.71046,-0.96541 12.72427,-2.98524 15.52442,-7.81222 z m -41.28626,-73.15047 c -23.92611,-2.31821 -28.877552,-5.95135 -28.877552,-21.18904 0,-10.48589 0.756264,-11.61835 9.613622,-14.39587 29.65709,-9.299931 76.28929,-8.714416 87.4353,1.09785 5.26125,4.63166 5.27683,20.61262 0.0254,26.18287 -8.18431,8.68145 -33.05137,11.70946 -68.19691,8.30419 z m 25.91968,-10.51328 c 20.71643,0.59596 30.98586,-3.01737 30.98586,-10.90245 0,-11.52372 -23.67163,-15.5708 -52.46272,-8.96942 -15.26268,3.49952 -22.63396,8.06514 -20.80784,12.88795 1.37294,3.62594 20.35127,9.82248 24.15653,7.88724 1.45838,-0.74169 9.61606,-1.14819 18.12817,-0.90332 z M 55.81856,108.82562 c -16.718874,-2.47331 0.203246,-14.380295 33.277923,-23.415494 11.388437,-3.111049 25.463787,-6.895053 31.278547,-8.4089 7.63227,-1.987032 11.9292,-5.257458 15.45181,-11.760517 5.26004,-9.710487 10.66658,-10.020908 15.45091,-0.887127 1.98555,3.79061 8.93829,7.122933 22.1228,10.603052 10.57499,2.79132 27.21394,7.324162 36.9755,10.072977 9.76149,2.748817 19.93524,4.985988 22.60831,4.971491 4.87635,-0.02645 8.45108,5.009205 8.45108,11.904948 0,2.03122 -1.6639,3.68774 -3.69754,3.68114 -3.10795,-0.0102 -32.17657,-9.168045 -53.98421,-17.007551 -3.25384,-1.169706 -14.49398,-3.479653 -24.9781,-5.133218 -17.8714,-2.818698 -20.45802,-2.565215 -41.41252,4.05835 -12.29278,3.885659 -29.671654,10.49397 -38.619719,14.685139 -8.948063,4.19116 -19.26422,7.17723 -22.924791,6.63571 z M 177.57329,57.423838 c -2.09161,-7.336441 -7.55707,-8.427313 -13.04684,-2.604072 -5.00991,5.314223 -8.87412,4.911715 -8.87412,-0.924355 0,-2.656756 4.14342,-7.852299 9.2076,-11.545653 5.33463,-3.890599 10.04997,-10.341071 11.21025,-15.335375 2.69624,-11.605588 11.52866,-13.210066 13.95392,-2.534838 1.2756,5.614803 4.38591,8.726138 11.0632,11.066884 5.1088,1.790901 12.94932,5.475048 17.42335,8.186992 9.65672,5.853461 11.00911,14.992453 2.21853,14.992453 -3.25384,0 -5.91608,-1.038312 -5.91608,-2.307362 0,-2.088716 -17.62437,-10.713001 -21.89283,-10.713001 -0.97431,0 -1.77148,2.247826 -1.77148,4.995166 0,13.333763 -10.24437,18.407212 -13.5755,6.723161 z m -77.53207,0.781222 c -1.952301,-1.718688 -3.549642,-6.406019 -3.549642,-10.41629 0,-8.979387 -2.57039,-9.127741 -13.590589,-0.784402 -9.481356,7.178288 -15.989788,8.403816 -15.989788,3.010852 0,-4.167907 9.372439,-12.121926 14.283598,-12.121926 1.905544,0 3.464628,-0.983735 3.464628,-2.186079 0,-1.202345 3.13844,-3.444936 6.974314,-4.983539 4.374896,-1.754808 7.681904,-5.912075 8.872819,-11.154083 1.60567,-7.067656 2.58309,-7.856452 6.33686,-5.113899 2.44108,1.783501 4.43835,5.280072 4.43835,7.770154 0,2.706618 5.33589,7.019385 13.26766,10.723664 13.21027,6.169433 17.83449,11.085685 14.66871,15.595069 -2.59547,3.697043 -5.64953,2.86863 -14.72012,-3.992825 -4.6256,-3.499045 -9.31671,-5.868684 -10.42467,-5.265859 -1.10797,0.602822 -2.87063,5.809342 -3.91701,11.570045 -1.99024,10.956914 -4.19627,12.5597 -10.11512,7.349118 z"
     id="path3263"
     inkscape:connector-curvature="0" />
</svg>
