<?xml version="1.0" encoding="UTF-8" standalone="no"?>
<!-- Created with Inkscape (http://www.inkscape.org/) -->

<svg
   xmlns:dc="http://purl.org/dc/elements/1.1/"
   xmlns:cc="http://creativecommons.org/ns#"
   xmlns:rdf="http://www.w3.org/1999/02/22-rdf-syntax-ns#"
   xmlns:svg="http://www.w3.org/2000/svg"
   xmlns="http://www.w3.org/2000/svg"
   xmlns:sodipodi="http://sodipodi.sourceforge.net/DTD/sodipodi-0.dtd"
   xmlns:inkscape="http://www.inkscape.org/namespaces/inkscape"
   width="300"
   height="300"
   id="svg2"
   version="1.1"
   inkscape:version="0.48.4 r9939"
   sodipodi:docname="image-seal.svg">
  <defs
     id="defs4" />
  <sodipodi:namedview
     id="base"
     pagecolor="#ffffff"
     bordercolor="#666666"
     borderopacity="1.0"
     inkscape:pageopacity="0.0"
     inkscape:pageshadow="2"
     inkscape:zoom="2.0018437"
     inkscape:cx="145.03351"
     inkscape:cy="130.6666"
     inkscape:document-units="px"
     inkscape:current-layer="layer1"
     showgrid="false"
     inkscape:window-width="1215"
     inkscape:window-height="1000"
     inkscape:window-x="65"
     inkscape:window-y="24"
     inkscape:window-maximized="1"
     fit-margin-top="10"
     fit-margin-left="10"
     fit-margin-right="10"
     fit-margin-bottom="10" />
  <metadata
     id="metadata7">
    <rdf:RDF>
      <cc:Work
         rdf:about="">
        <dc:format>image/svg+xml</dc:format>
        <dc:type
           rdf:resource="http://purl.org/dc/dcmitype/StillImage" />
        <dc:title />
      </cc:Work>
    </rdf:RDF>
  </metadata>
  <g
     inkscape:label="Calque 1"
     inkscape:groupmode="layer"
     id="layer1"
     transform="translate(0,-752.36218)">
    <path
       style="fill:#000000"
       d="m 155.63451,1042.7712 c -0.86242,-3.4362 -1.80091,-13.9198 -2.08554,-23.2971 l -0.51751,-17.0494 -14.49755,-0.81 c -7.97366,-0.4455 -15.62442,-1.92823 -17.00168,-3.29492 -1.37727,-1.36673 -5.0591,-2.48488 -8.18185,-2.48488 -6.82041,0 -18.727492,-10.47014 -22.152843,-19.47971 -1.359633,-3.57589 -3.831414,-21.53952 -5.492861,-39.91895 -3.113231,-34.43955 -2.045868,-40.53348 6.523453,-37.24512 3.424297,1.31404 4.131066,6.84883 4.131066,32.3513 0,26.34797 0.82615,32.42028 5.753055,42.28545 4.5448,9.09998 7.75329,12.05801 15.27731,14.08398 13.2112,3.55744 54.80306,3.71269 65.93758,0.24514 5.06458,-1.57681 11.96974,-2.86682 15.34482,-2.86682 14.01874,0 18.77974,-15.45835 18.87508,-61.28516 0.0393,-18.8478 1.09631,-30.97205 2.70037,-30.97205 1.44976,0 2.63592,1.77924 2.63592,3.95388 0,2.17463 1.29737,3.95388 2.88306,3.95388 1.99584,0 2.60424,11.748 1.97694,38.17412 l -0.90612,38.17399 -8.06457,8.06064 c -8.04261,8.03877 -29.21548,15.65973 -43.68741,15.72483 -8.22523,0.037 -10.10338,4.9796 -10.15615,26.7267 -0.0237,9.7471 -1.3546,15.9283 -3.88126,18.0252 -3.15543,2.6188 -4.12658,2.0705 -5.41331,-3.0563 z m -19.72595,-64.58247 c -12.07267,-1.61924 -15.82609,-5.04435 -15.82609,-14.44209 0,-6.388 1.65575,-8.41133 9.59915,-11.73029 8.43497,-3.52436 10.06795,-3.54199 13.46459,-0.14524 3.39665,3.39664 2.55215,4.08731 -6.96323,5.69493 -5.95578,1.00623 -10.82867,2.82668 -10.82867,4.04545 0,4.18631 8.28936,10.5004 14.02686,10.68465 17.60544,0.56514 35.77338,-0.13707 43.30439,-1.67197 7.67775,-1.56547 8.56674,-2.69312 8.56674,-10.8665 0,-7.26116 0.94012,-8.94172 4.61286,-8.24597 5.91734,1.12095 7.48661,14.83728 2.48024,21.67907 -3.10896,4.24884 -7.5425,5.1266 -28.45228,5.63348 -13.62317,0.33029 -28.91622,0.0448 -33.98456,-0.63552 z m 19.09984,-23.75285 c -11.60176,-2.2346 -5.68715,-6.04751 9.3809,-6.04751 9.3824,0 17.29311,1.49866 20.42837,3.87006 4.68923,3.54676 3.90559,3.84705 -9.38089,3.59489 -7.97366,-0.1513 -17.16643,-0.78916 -20.42838,-1.41744 z M 120.91376,937.8263 c -7.41447,-2.98737 -11.37497,-10.53807 -11.37497,-21.68645 0,-9.85299 3.89355,-15.19803 11.07086,-15.19803 5.75103,0 6.27449,4.12076 0.79078,6.22507 -2.17463,0.83448 -3.95388,3.33586 -3.95388,5.55863 0,3.38837 4.36574,3.99175 27.01818,3.73422 14.85999,-0.16896 32.35591,-1.08357 38.87981,-2.03255 11.00019,-1.60014 11.80652,-2.24818 11.10289,-8.92336 -0.906,-8.59483 5.66867,-9.99021 9.89173,-2.09937 4.66337,8.71358 3.16123,21.0242 -3.4331,28.13588 -5.3468,5.76629 -9.04943,6.8361 -27.99552,8.08887 -17.71098,1.17112 -21.60784,0.76563 -20.63714,-2.14732 0.65814,-1.9751 4.06337,-3.85714 7.56714,-4.18234 16.26265,-1.5094 36.6836,-7.3932 36.6836,-10.56951 0,-2.45942 -2.06208,-2.8892 -7.24878,-1.5108 -3.98683,1.05953 -10.21419,1.67447 -13.83858,1.36651 -13.42213,-1.14037 -53.50811,-0.37962 -55.83697,1.0597 -4.83894,2.99063 3.98443,8.92833 13.32602,8.96776 13.63703,0.0575 18.86346,4.03017 8.12712,6.17744 -10.41792,2.08359 -12.86524,1.96639 -20.13919,-0.96435 z m 21.57403,-36.88448 c 11.6593,-2.96678 17.13347,-2.96678 17.13347,0 0,1.44976 -5.63428,2.49559 -12.52062,2.32404 -11.17616,-0.27838 -11.67148,-0.52792 -4.61285,-2.32404 z m 21.08735,0 c 0.896,-1.44975 6.30375,-2.63592 12.01721,-2.63592 5.71346,0 10.38811,1.18617 10.38811,2.63592 0,1.44976 -5.40775,2.63592 -12.01721,2.63592 -7.34025,0 -11.38317,-1.02587 -10.38811,-2.63592 z M 99.838213,885.3609 c -6.756731,-4.19546 -8.732037,-7.53493 -10.184007,-17.21738 -2.227035,-14.8509 0.472674,-34.29297 5.320551,-38.31635 1.995971,-1.65652 10.537543,-3.52067 18.981233,-4.14259 28.15141,-2.07341 29.84976,-2.89374 29.84976,-14.4179 0,-11.91546 2.57964,-14.4068 9.49637,-9.17123 2.97506,2.25194 11.20456,3.81958 20.31329,3.86945 17.07377,0.0936 18.11027,3.92161 1.80756,6.67597 -5.79143,0.97845 -10.52987,2.94084 -10.52987,4.36086 0,1.42 2.42834,1.81112 5.39633,0.86912 2.96797,-0.942 13.71715,-0.22564 23.88705,1.59175 22.97707,4.10623 27.537,8.96418 28.39834,30.25442 1.38267,34.17649 -7.1042,39.07092 -69.54336,40.10602 -40.7885,0.67619 -45.56305,0.27569 -53.193247,-4.46214 z m 53.707277,-0.60966 c 26.69309,-0.27959 41.19761,-3.26957 51.52121,-10.62065 6.342,-4.51591 7.27127,-6.92717 7.25985,-18.83786 -0.0105,-10.3555 -1.50545,-15.52422 -6.18344,-21.37058 l -6.17035,-7.71152 -35.30838,0.48665 c -49.0519,0.67608 -54.49816,3.3833 -31.22191,15.51968 12.61741,6.57878 20.53284,6.56582 38.04043,-0.0622 5.79902,-2.19544 14.69789,-4.77036 19.77525,-5.72208 l 9.23159,-1.73038 0.78604,14.33537 c 0.60114,10.96358 -0.16475,14.70021 -3.25631,15.88655 -2.22332,0.85317 -3.38843,3.25536 -2.58916,5.33824 2.08293,5.42804 -2.97538,7.62748 -6.83803,2.97329 -1.79152,-2.15866 -5.18788,-3.99323 -7.54745,-4.07679 -2.35954,-0.0836 -10.06088,-2.88211 -17.11408,-6.21898 l -12.82398,-6.06704 -16.17113,5.21785 c -27.00128,8.71235 -26.33903,8.76773 -29.84224,-2.49484 -3.19363,-10.26728 -1.12543,-16.13333 4.46909,-12.67574 1.7154,1.06019 2.61728,5.34564 2.00414,9.52323 -1.23327,8.40289 1.99152,9.64146 11.84651,4.55 3.24229,-1.67508 7.53762,-3.79394 9.54524,-4.70857 6.61819,-3.01515 3.74488,-6.64634 -11.33474,-14.32454 -14.35163,-7.30751 -15.07632,-7.41168 -20.07674,-2.88636 -3.92705,3.55391 -5.187705,8.11858 -5.187705,18.78383 0,7.74894 1.186164,14.08901 2.635919,14.08901 1.449756,0 2.635926,1.71029 2.635926,3.80068 0,3.6332 22.83552,12.30073 26.87322,10.20006 1.00761,-0.5242 12.27616,-1.06251 25.04123,-1.1962 z m -13.69362,-12.80453 c -0.89601,-1.44976 0.88324,-2.63592 3.95388,-2.63592 3.07063,0 4.84988,1.18616 3.95387,2.63592 -0.896,1.44975 -2.67524,2.63592 -3.95387,2.63592 -1.27864,0 -3.05788,-1.18617 -3.95388,-2.63592 z m 14.49755,0 c 0,-1.44976 3.03542,-2.63592 6.74537,-2.63592 3.82567,0 6.04021,1.14093 5.11627,2.63592 -0.896,1.44975 -3.93142,2.63592 -6.74537,2.63592 -2.81395,0 -5.11627,-1.18617 -5.11627,-2.63592 z m -14.49755,-36.90287 c 0.896,-1.44976 4.45449,-2.63592 7.90775,-2.63592 3.45327,0 7.01176,1.18616 7.90776,2.63592 0.97139,1.57174 -2.22108,2.63592 -7.90776,2.63592 -5.68668,0 -8.87914,-1.06418 -7.90775,-2.63592 z m 19.76939,0 c 0,-1.44976 1.70924,-2.63592 3.79831,-2.63592 2.08907,0 4.53141,1.18616 5.42741,2.63592 0.896,1.44975 -0.81323,2.63592 -3.79831,2.63592 -2.98507,0 -5.42741,-1.18617 -5.42741,-2.63592 z m 34.26696,20.20872 c 0,-6.28229 -0.65329,-12.07562 -1.45176,-12.87407 -2.03891,-2.03893 -23.98192,6.59381 -24.90702,9.79882 -0.686,2.37668 19.5798,14.4042 24.38184,14.47033 1.08731,0.0158 1.97694,-5.11281 1.97694,-11.39508 z M 99.417072,800.14447 c -1.681822,-1.68182 -3.057877,-5.19297 -3.057877,-7.80253 0,-6.54678 -3.839691,-5.93717 -11.622006,1.84514 C 77.632964,801.29128 70,802.91398 70,797.32003 c 0,-4.61027 8.486369,-13.48602 18.559351,-19.41094 4.936576,-2.90367 8.754653,-7.68167 9.635604,-12.05814 1.918715,-9.53191 7.250945,-9.22216 11.343835,0.65898 1.80152,4.34927 5.20739,7.99445 7.56857,8.10042 5.75258,0.25805 19.48079,8.46765 20.8055,12.44172 1.35352,4.06058 -13.02158,4.29966 -17.03787,0.28336 -4.73749,-4.73748 -13.97212,-0.19453 -13.97212,6.87372 0,7.51527 -3.29405,10.12707 -7.485798,5.93532 z m 88.375578,-3.70586 c -0.99672,-0.99672 -1.81219,-5.17299 -1.81219,-9.28065 0,-5.71114 -1.24044,-7.46843 -5.27184,-7.46843 -2.89951,0 -5.27184,0.99577 -5.27184,2.2128 0,3.01665 -13.45611,8.94805 -15.49718,6.83112 -0.89995,-0.93341 4.59106,-7.29939 12.20228,-14.14662 7.61122,-6.84722 13.83858,-13.80075 13.83858,-15.45231 0,-3.95891 8.33467,-0.79539 12.27337,4.65851 1.67623,2.32104 9.08975,7.05001 16.47449,10.50886 7.38477,3.45883 13.42685,7.86527 13.42685,9.7921 0,4.71719 -2.30445,4.42919 -13.78209,-1.72247 -11.99549,-6.42919 -17.30094,-4.7223 -18.35765,5.9061 -0.79228,7.96867 -4.61805,11.76571 -8.22278,8.16099 z"
       id="path3132"
       inkscape:connector-curvature="0" />
  </g>
</svg>
