<?xml version="1.0" encoding="UTF-8" standalone="no"?>
<svg
   xmlns:dc="http://purl.org/dc/elements/1.1/"
   xmlns:cc="http://creativecommons.org/ns#"
   xmlns:rdf="http://www.w3.org/1999/02/22-rdf-syntax-ns#"
   xmlns:svg="http://www.w3.org/2000/svg"
   xmlns="http://www.w3.org/2000/svg"
   viewBox="0 0 300 300"
   height="300"
   width="300"
   id="svg4044"
   version="1.1">
  <metadata
     id="metadata4050">
    <rdf:RDF>
      <cc:Work
         rdf:about="">
        <dc:format>image/svg+xml</dc:format>
        <dc:type
           rdf:resource="http://purl.org/dc/dcmitype/StillImage" />
        <dc:title></dc:title>
      </cc:Work>
    </rdf:RDF>
  </metadata>
  <defs
     id="defs4048" />
  <path
     id="path4054"
     d="m 145.37785,279.1079 c -1.34998,-47.42873 -1.51834,-125.69186 -1.32727,-158.91953 -11.83372,-0.0505 -15.25266,9.6e-4 -29.22744,-0.0686 -26.313823,-0.13157 -27.125268,-0.12511 -29.010788,-1.52804 -2.528629,-2.18857 -2.919245,-6.12283 -0.434683,-7.41645 4.224746,-2.15759 9.328205,-2.54283 33.686771,-2.54283 h 24.86509 c 0.30892,-17.687688 0.88205,-34.626238 1.05475,-49.102488 0.42194,-37.857504 0.44904,-38.428942 1.97872,-41.74422 3.44966,-5.531651 6.78582,-1.589329 8.32087,1.236167 1.02516,1.918125 1.11508,6.311883 0.9232,45.107876 -0.20436,41.316175 -0.22656,42.997485 -0.0776,44.411345 55.21398,0.56064 56.90307,0.14231 58.1423,1.6314 2.32158,5.3108 1.74726,6.94843 -1.94885,8.69905 -4.14788,1.58186 -3.88761,0.64349 -56.28111,1.08667 l 0.0899,68.8181 c 0.0832,63.67715 -0.41177,93.25732 -1.31857,94.72066 -5.94593,3.39329 -8.00587,0.6588 -9.43527,-4.38902 z m 62.83675,-7.43453 c -3.61366,-3.9876 -6.79939,-13.28364 -9.50436,-23.1215 -6.19905,-21.93048 -8.98761,-43.34361 -10.49856,-56.92938 -2.79096,-25.16171 -3.08306,-29.30987 -2.87318,-40.80348 0.59936,-9.94301 4.37801,-28.83684 10.86685,-18.74411 0.4966,0.9279 0.90775,10.46625 1.17257,27.20323 -0.12314,18.23919 2.19558,35.15997 5.54536,52.74609 4.34807,22.82719 5.72515,28.71754 8.96158,38.33262 4.44651,13.21003 5.50105,20.17404 3.30649,21.83518 -2.01482,1.52509 -5.3493,1.27721 -6.97675,-0.51865 z M 91.56673,260.58718 c 19.764,-37.00009 15.62542,-80.11414 16.3325,-114.95506 1.04106,-7.49587 -0.70405,-22.64341 9.04894,-11.4145 3.02276,3.59235 3.39705,6.15618 3.73353,25.57414 0.76019,43.86938 -4.44734,73.52708 -18.00114,102.51932 -7.01039,13.45364 -16.708189,9.25043 -11.11383,-1.7239 z M 110.84341,98.085699 c -3.5391,-17.25412 -5.50127,-37.750086 -10.78202,-51.814199 -1.098847,-2.917835 -2.198129,-7.008677 -2.442833,-9.09076 -0.789573,-4.013007 1.804557,-6.467885 4.993583,-5.284475 4.27757,1.626327 6.21535,4.845212 10.18232,16.914053 5.82151,17.710926 8.7926,34.515824 7.51969,42.532435 -1.52975,9.000987 -8.37874,11.160037 -9.47074,6.742946 z m 73.04523,-0.24358 c -5.14556,-17.03022 2.32891,-40.626373 8.25638,-56.317641 2.46021,-6.379522 6.44507,-10.783823 9.04004,-9.991568 2.24133,0.684284 4.04907,2.386922 4.04907,3.813643 -6.11622,19.092369 -9.63212,41.117828 -12.2843,57.366228 -0.29441,5.838298 -7.67149,8.134149 -9.06119,5.129338 z"
     style="fill:#000000;stroke-width:0.69158435" />
</svg>
