<?xml version="1.0" encoding="UTF-8" standalone="no"?>
<svg
   xmlns:dc="http://purl.org/dc/elements/1.1/"
   xmlns:cc="http://creativecommons.org/ns#"
   xmlns:rdf="http://www.w3.org/1999/02/22-rdf-syntax-ns#"
   xmlns:svg="http://www.w3.org/2000/svg"
   xmlns="http://www.w3.org/2000/svg"
   viewBox="0 0 300 300"
   height="300"
   width="300"
   id="svg166"
   version="1.1">
  <metadata
     id="metadata172">
    <rdf:RDF>
      <cc:Work
         rdf:about="">
        <dc:format>image/svg+xml</dc:format>
        <dc:type
           rdf:resource="http://purl.org/dc/dcmitype/StillImage" />
        <dc:title></dc:title>
      </cc:Work>
    </rdf:RDF>
  </metadata>
  <defs
     id="defs170" />
  <path
     id="path176"
     d="m 103.90661,284.30236 c -0.65742,-0.39867 -1.74321,-2.49603 -2.41285,-4.6608 -1.09215,-3.53058 -1.19581,-6.68013 -1.0065,-30.58061 l 0.21104,-26.64468 -3.657981,-0.27005 c -2.01189,-0.14853 -8.001133,0.27918 -13.309426,0.95048 -13.188914,1.6679 -16.138427,1.61755 -19.028594,-0.32485 -1.587785,-1.06711 -2.547786,-2.39801 -2.979769,-4.13097 -0.350525,-1.40615 -0.469091,-2.72487 -0.263487,-2.93048 0.792711,-0.79271 28.674588,-5.83375 32.286932,-5.83748 2.427274,-0.003 4.402968,-0.41885 5.442395,-1.14689 1.60809,-1.12634 1.6259,-1.26768 1.22616,-9.72764 -0.22308,-4.72158 -0.500585,-8.65754 -0.616655,-8.74659 -0.11607,-0.089 -7.485747,0.42906 -16.377058,1.15135 -15.092887,1.22607 -16.362898,1.23805 -19.131843,0.18058 -3.249197,-1.24088 -4.36341,-3.39115 -3.14351,-6.06653 0.609211,-1.33606 2.740957,-1.90843 19.474387,-5.22884 l 18.790295,-3.72856 -0.407687,-4.19942 c -0.224234,-2.30967 -0.597147,-7.45677 -0.828699,-11.43799 -0.23156,-3.98123 -0.533636,-7.60584 -0.671269,-8.05471 -0.158616,-0.5173 -5.24985,1.47361 -13.904808,5.43743 -18.253897,8.35998 -22.271926,8.70936 -22.271926,1.93657 0,-2.24094 0.399364,-2.96505 2.585207,-4.68734 7.845164,-6.18143 22.511772,-13.46737 48.429546,-24.05838 3.2229,-1.31699 11.40965,-3.91276 18.19279,-5.76837 6.78314,-1.85561 12.47176,-3.51261 12.64137,-3.68223 0.79838,-0.79837 1.52491,-10.83228 1.55274,-21.44449 0.03,-11.440865 0.70564,-16.476071 2.71444,-20.229551 1.0082,-1.883835 2.92113,-1.510592 5.72901,1.11783 2.96444,2.774969 3.52604,5.543368 3.02543,14.913945 -0.24487,4.583756 -0.63429,12.056806 -0.86536,16.606776 l -0.42013,8.27267 9.9097,2.64404 c 8.10381,2.16222 14.62083,4.71711 35.76177,14.01987 14.21865,6.25671 28.12797,12.62634 30.90962,14.15474 5.49468,3.01913 7.68932,5.66967 7.69358,9.29178 0.003,2.6009 -1.2178,3.17333 -6.76798,3.17333 -3.19671,0 -4.88819,-0.61834 -12.76211,-4.66537 -4.99233,-2.56596 -11.13728,-5.52593 -13.65544,-6.5777 l -4.57849,-1.91232 0.68756,2.49012 c 0.62686,2.27029 -0.0349,12.50832 -1.28433,19.87125 -0.35199,2.07425 -0.22832,2.20948 2.96976,3.24768 4.03176,1.30883 9.93564,2.28409 19.32136,3.19165 8.13749,0.78688 11.94093,2.10355 14.35134,4.96816 5.94519,7.06546 -3.69258,9.47349 -24.47587,6.11539 -5.11871,-0.82706 -9.80091,-1.64511 -10.40489,-1.81788 -0.95933,-0.27442 -1.15633,1.09762 -1.55859,10.85523 -0.35628,8.64234 -0.2638,11.29418 0.40875,11.72113 0.47807,0.30349 7.38393,0.56336 15.34637,0.57749 12.63432,0.0224 14.83849,0.18978 17.31573,1.31473 2.9664,1.34709 5.08941,3.70105 5.08941,5.64307 0,0.70849 -1.37095,1.76019 -3.61929,2.77651 -3.49261,1.57875 -4.15277,1.63141 -18.85964,1.50453 l -15.24033,-0.13149 -0.44844,5.83404 c -0.24943,3.24498 0.0442,14.01118 0.66159,24.26009 1.51402,25.13234 1.0516,29.90784 -2.99549,30.93539 -2.89173,0.73421 -4.59295,-0.24542 -5.82028,-3.35158 -2.83271,-7.16916 -2.95645,-8.53655 -2.96302,-32.74327 -0.006,-20.2252 -0.15639,-23.7357 -1.05915,-24.6397 -0.57902,-0.5798 -4.76706,-1.99903 -9.30676,-3.15385 -13.42492,-3.41505 -15.63578,-5.42556 -19.68866,-17.9045 -4.0992,-12.62152 -4.3481,-30.91694 -0.63543,-46.70609 1.20207,-5.11217 1.74441,-6.37685 2.73462,-6.37685 0.67934,0 2.17004,-0.18697 3.31267,-0.41549 1.89064,-0.37814 2.14704,-0.20484 2.85044,1.92649 0.43107,1.30617 0.69374,5.57935 0.59388,9.66162 -0.0985,4.02581 0.0488,7.54891 0.32726,7.82913 0.27847,0.28022 4.77673,1.65982 9.99614,3.06576 7.48474,2.01617 9.60146,2.36693 10.01826,1.66012 0.29065,-0.49287 1.01122,-4.09431 1.60127,-8.00321 0.59005,-3.90888 1.79999,-9.43374 2.68874,-12.27746 1.23243,-3.94332 1.42504,-5.36335 0.8116,-5.98336 -1.59339,-1.61042 -11.26834,-6.35203 -17.16017,-8.41006 -16.14507,-5.63947 -34.35217,-5.88304 -51.37495,-0.68725 -4.64996,1.41928 -17.30015,7.21631 -19.72597,9.03954 -1.23167,0.92573 -1.19234,1.12527 0.98021,4.97484 2.09099,3.70503 2.30027,4.64648 2.74805,12.36215 0.39855,6.8675 0.98814,10.84655 1.59264,10.7486 1.5543,-0.25187 18.56638,-4.77895 18.78678,-4.99935 0.17409,-0.17408 0.48898,-3.53755 0.69975,-7.47438 0.47414,-8.85569 1.10614,-11.02721 3.64609,-12.52759 3.27275,-1.93326 4.5617,-1.54431 5.80076,1.75042 2.13404,5.67456 2.70813,9.92168 2.67908,19.81993 -0.0336,11.4493 -1.34325,21.30123 -3.91259,29.43292 -2.52412,7.98858 -4.76859,9.74365 -22.60321,17.67463 l -3.96399,1.76277 v 27.1749 c 0,26.56012 -0.45101,33.62466 -2.2623,35.43595 -1.22386,1.22388 -4.76406,1.72211 -6.1716,0.86858 z m 85.48894,-85.19002 0.1882,-11.79073 -9.42032,-1.87961 c -7.69738,-1.53585 -9.53289,-1.71196 -10.03584,-0.96297 -0.79505,1.18399 0.0266,12.43834 1.19083,16.31124 1.49812,4.98363 3.5809,7.36244 7.84503,8.9601 2.21877,0.83132 5.14889,1.37821 6.94166,1.29562 l 3.10225,-0.14292 z m -71.77786,6.9718 c 4.18186,-1.24187 8.79548,-4.4573 10.12917,-7.05943 0.53824,-1.05018 1.52472,-4.16978 2.19217,-6.93245 0.94662,-3.91819 1.04332,-5.39665 0.43965,-6.72155 -0.96999,-2.12889 -1.4374,-2.12339 -11.32576,0.13309 -6.54557,1.49369 -8.05134,2.06053 -7.80813,2.93939 0.16572,0.59885 0.51129,5.04419 0.76794,9.87854 0.32876,6.19279 0.71467,8.7897 1.30616,8.7897 0.46175,0 2.39621,-0.46227 4.2988,-1.02729 z M 66.967435,137.42965 c -1.13178,-1.81226 -1.021433,-5.84702 0.193124,-7.06157 1.378698,-1.3787 10.858549,-4.74857 24.583121,-8.73876 6.302859,-1.83244 12.73178,-3.98066 14.28651,-4.77382 4.49279,-2.29206 7.40697,-5.65567 8.36696,-9.65738 0.94567,-3.94198 0.56024,-6.37159 -1.40764,-8.873356 -2.13169,-2.71001 -2.87249,-6.492585 -1.97196,-10.068954 0.75417,-2.995071 0.85598,-3.087965 2.94787,-2.689981 2.83011,0.538426 6.68831,2.4877 8.17256,4.129004 3.71476,4.107861 5.45566,13.470317 3.97183,21.360347 -0.77345,4.11272 -1.24526,5.04287 -3.70846,7.31093 -9.56913,8.8111 -27.89963,17.06015 -42.409311,19.08496 -9.973665,1.3918 -12.144266,1.38823 -13.024604,-0.0214 z m 152.573035,-0.60389 c -6.02515,-1.58675 -18.46555,-6.15147 -25.49398,-9.35443 -5.42389,-2.47175 -12.55443,-7.4052 -15.3448,-10.61671 -2.01055,-2.31398 -3.81051,-8.33224 -3.24355,-10.84493 1.49494,-6.625256 5.87328,-15.958657 8.80147,-18.762228 l 2.42645,-2.3232 2.63943,1.289116 c 3.60413,1.760278 3.84711,4.606875 0.95557,11.194976 -1.54765,3.526176 -2.10778,5.853246 -2.10778,8.756726 0,3.73568 0.15392,4.09643 2.78368,6.52422 4.27287,3.94468 10.33614,6.54266 24.89486,10.66687 17.92612,5.07813 20.31948,6.08238 21.25558,8.91876 0.7532,2.28223 0.35952,4.45875 -0.97132,5.37003 -1.40577,0.96259 -11.77309,0.45084 -16.59561,-0.8192 z m -0.36921,-41.666526 c -13.1653,-6.71154 -21.6014,-9.989384 -34.10023,-13.249634 -26.28212,-6.855544 -39.88128,-7.424494 -61.70029,-2.581365 -12.49316,2.773084 -21.39918,6.044716 -35.503518,13.042233 -13.5288,6.711976 -20.169078,8.769422 -24.662737,7.641582 -1.695873,-0.425636 -1.878728,-0.772326 -1.878728,-3.562066 0,-2.97636 0.151479,-3.20206 4.099904,-6.108726 8.572163,-6.310464 25.304093,-13.719369 42.089139,-18.637078 10.97324,-3.21496 12.69775,-3.561364 24.71656,-4.964824 10.16447,-1.186927 10.61366,-1.305476 11.32956,-2.990091 0.46844,-1.102267 0.7726,-8.927637 0.81848,-21.057046 0.0695,-18.370564 0.14875,-19.49371 1.6411,-23.253767 0.86246,-2.172986 1.835,-4.115832 2.1612,-4.317437 0.91798,-0.567341 3.66708,0.945814 5.00151,2.752915 2.7369,3.70636 3.30124,8.696608 3.18059,28.124604 -0.064,10.299311 0.16102,18.720632 0.50847,19.032836 0.34277,0.307983 5.27658,1.094088 10.96404,1.746901 16.32982,1.874356 28.36919,5.392311 47.91252,14.000242 18.63593,8.208262 23.16927,11.03506 23.49733,14.651941 0.2804,3.09141 -0.0319,3.90307 -1.81402,4.715056 -3.82367,1.74219 -6.49118,1.01381 -18.26088,-4.986276 z M 66.358795,73.717766 c -0.924896,-1.939526 -0.964424,-2.656272 -0.24257,-4.398987 1.262703,-3.048414 9.856656,-6.495071 26.843512,-10.765742 9.417803,-2.367733 15.080113,-5.010874 19.408963,-9.060003 l 3.5399,-3.311161 -0.45791,-3.812994 c -0.28001,-2.331658 -1.12987,-4.797763 -2.18757,-6.347817 -2.11515,-3.099738 -2.69697,-6.878959 -1.65484,-10.74911 0.65877,-2.446489 1.06446,-2.916701 2.51651,-2.916701 2.03117,0 5.50452,1.645072 7.68777,3.641132 3.56879,3.262793 5.79063,14.476492 4.40081,22.210946 -0.65353,3.636903 -1.13824,4.499567 -4.01445,7.144679 -12.33628,11.345041 -30.788122,18.749385 -50.737949,20.360083 -3.974249,0.320871 -4.003613,0.309394 -5.102176,-1.994325 z m 156.136375,1.352856 c -6.86733,-1.2791 -18.69134,-5.599654 -29.23035,-10.680913 -6.95294,-3.352279 -8.88959,-4.640366 -11.56443,-7.691628 -6.22264,-7.098327 -7.29349,-12.091608 -4.29921,-20.046695 2.68033,-7.120989 5.01945,-11.100328 7.49171,-12.745011 2.88057,-1.916312 4.93084,-1.968838 6.72733,-0.172347 1.91622,1.916221 1.73212,3.924862 -0.86174,9.401695 -2.811,5.935367 -3.16244,12.701584 -0.8225,15.835687 2.07259,2.776005 8.64651,6.199218 16.5061,8.595147 27.20595,8.29351 29.76024,9.333138 30.91709,12.583645 0.58195,1.635145 -0.12224,4.406164 -1.22752,4.830296 -2.42078,0.928943 -8.90296,0.971785 -13.63648,0.09012 z"
     style="fill:#000000;stroke-width:0.68938875" />
</svg>
