<?xml version="1.0" encoding="UTF-8" standalone="no"?>
<!-- Created with Inkscape (http://www.inkscape.org/) -->

<svg
   xmlns:dc="http://purl.org/dc/elements/1.1/"
   xmlns:cc="http://creativecommons.org/ns#"
   xmlns:rdf="http://www.w3.org/1999/02/22-rdf-syntax-ns#"
   xmlns:svg="http://www.w3.org/2000/svg"
   xmlns="http://www.w3.org/2000/svg"
   xmlns:sodipodi="http://sodipodi.sourceforge.net/DTD/sodipodi-0.dtd"
   xmlns:inkscape="http://www.inkscape.org/namespaces/inkscape"
   width="300"
   height="300"
   id="svg2"
   version="1.1"
   inkscape:version="0.48.4 r9939"
   sodipodi:docname="image-seal.svg">
  <defs
     id="defs4" />
  <sodipodi:namedview
     id="base"
     pagecolor="#ffffff"
     bordercolor="#666666"
     borderopacity="1.0"
     inkscape:pageopacity="0.0"
     inkscape:pageshadow="2"
     inkscape:zoom="1.979899"
     inkscape:cx="118.51252"
     inkscape:cy="130.59117"
     inkscape:document-units="px"
     inkscape:current-layer="layer1"
     showgrid="false"
     inkscape:window-width="1215"
     inkscape:window-height="1000"
     inkscape:window-x="65"
     inkscape:window-y="24"
     inkscape:window-maximized="1" />
  <metadata
     id="metadata7">
    <rdf:RDF>
      <cc:Work
         rdf:about="">
        <dc:format>image/svg+xml</dc:format>
        <dc:type
           rdf:resource="http://purl.org/dc/dcmitype/StillImage" />
        <dc:title />
      </cc:Work>
    </rdf:RDF>
  </metadata>
  <g
     inkscape:label="Calque 1"
     inkscape:groupmode="layer"
     id="layer1"
     transform="translate(0,-752.36218)">
    <path
       style="fill:#000000"
       d="m 94.326904,1026.6675 c -2.973599,-7.8859 -5.617493,-20.1952 -7.757316,-36.11627 -0.705238,-5.24708 -2.440946,-13.09628 -3.857128,-17.44268 -4.128888,-12.67184 -3.015237,-58.49621 1.82838,-75.23287 2.386222,-8.2454 5.251326,-21.12458 6.366886,-28.62039 1.115543,-7.49582 3.314155,-16.74633 4.885832,-20.55673 3.896467,-9.44679 2.263687,-36.83479 -3.056108,-51.26282 -2.403687,-6.51918 -7.460274,-14.28356 -11.236832,-17.25422 -7.00633,-5.51117 -6.91899,-10.41616 0.185342,-10.41616 6.005598,0 19.00381,13.87276 22.44005,23.94989 4.17725,12.25004 2.43546,58.84249 -2.82392,75.54004 -14.281481,45.34103 -13.600932,93.42077 1.94602,137.48561 5.87634,16.6552 5.49391,27.4224 -0.974,27.4224 -3.083967,0 -6.245098,-2.9815 -7.947331,-7.4958 z m 72.393026,1.3629 c -0.35291,-1.874 -0.65955,-24.2592 -0.68144,-49.74505 l -0.0399,-46.33778 -18.24262,0 c -20.22431,0 -28.54096,-4.19582 -18.72714,-9.44803 3.33126,-1.78283 12.11387,-2.5975 20.3312,-1.88591 7.95658,0.689 15.64461,0.45453 17.08451,-0.52102 1.43992,-0.97558 2.72819,-11.40478 2.86278,-23.17597 0.26413,-23.0937 3.6808,-30.82857 9.87553,-22.35677 2.60005,3.55577 3.2907,10.83745 2.37751,25.06673 -1.01335,15.79025 -0.48626,20.10963 2.47858,20.31159 2.07111,0.14119 12.32756,0.44772 22.79215,0.68144 15.56926,0.34772 19.19256,1.27193 19.94061,5.08628 0.79791,4.06864 -2.14111,4.7618 -23.11511,5.45149 l -24.02924,0.79017 -1.36288,46.33778 c -1.30619,44.41015 -2.67759,53.15225 -8.33813,53.15225 -1.41069,0 -2.85364,-1.5333 -3.20655,-3.4072 z m 47.53411,-12.9301 c -2.55381,-4.488 -5.56324,-8.1678 -6.6876,-8.1773 -1.12438,-0.01 -2.04433,-1.906 -2.04433,-4.2144 0,-2.3085 -2.46505,-9.02919 -5.47791,-14.93489 -7.02586,-13.77182 -8.89769,-44.92312 -2.69934,-44.92312 2.85834,0 4.60963,4.10099 5.82008,13.62874 1.60414,12.62659 17.15128,47.90057 22.02546,49.97217 1.17576,0.4997 2.13773,4.4861 2.13773,8.8587 0,10.5993 -6.98719,10.4871 -13.07409,-0.2099 z m -154.305405,-0.6987 c -6.431881,-23.37423 -9.677121,-100.00861 -4.576211,-108.06442 1.373555,-2.16925 4.358717,-3.05617 6.945403,-2.06357 2.495076,0.95746 3.751323,3.01125 2.791681,4.56398 -3.207538,5.18991 -2.056595,71.83653 1.442184,83.51103 3.509708,11.71098 1.940329,25.46018 -2.906133,25.46018 -1.517656,0 -3.181269,-1.5332 -3.696924,-3.4072 z m 61.075185,1.3225 c 0,-1.1465 2.25313,-6.3595 5.00696,-11.5844 2.75381,-5.22494 7.14805,-16.24608 9.76495,-24.49147 2.61688,-8.2454 5.9967,-18.6714 7.5107,-23.1689 1.51401,-4.49748 2.84386,-9.71048 2.95523,-11.58444 0.33066,-5.56355 10.19693,-4.02111 10.19693,1.59413 0,5.88298 -9.37454,35.85287 -15.48783,49.51371 -6.3516,14.19337 -19.94694,27.63497 -19.94694,19.72137 z m -8.17726,-22.21997 c 0,-4.37256 -1.28368,-8.37802 -2.85269,-8.90101 -2.79493,-0.93164 -4.61687,-77.44073 -1.90862,-80.14895 0.6904,-0.69043 3.41204,-0.42769 6.04807,0.58386 4.07697,1.56447 4.4708,3.71122 2.63692,14.37435 -3.65056,21.22626 -1.328,51.53216 5.81742,75.90891 1.46406,4.99461 0.72691,6.13301 -3.97169,6.13301 -4.55666,0 -5.76941,-1.67122 -5.76941,-7.95017 z m 38.5776,-87.08946 c -3.22774,-2.7994 -5.86858,-6.90501 -5.86858,-9.1236 0,-2.21861 -2.58575,-5.18763 -5.74614,-6.59783 -4.83318,-2.15661 -5.13383,-3.07216 -1.89232,-5.7624 5.24304,-4.35133 24.03607,11.64747 24.01066,20.44065 -0.0219,7.46621 -2.78173,7.74035 -10.50362,1.04318 z m 42.11695,2.82494 c -1.90473,-3.08189 16.02169,-29.31955 21.45714,-31.40535 6.17217,-2.36846 8.34762,5.33282 3.01327,10.66717 -2.41707,2.41704 -7.58813,8.58151 -11.49128,13.69881 -7.17241,9.40353 -10.42706,11.16873 -12.97913,7.03937 z M 58.331533,877.32395 c 0,-2.30846 2.49897,-9.09562 5.55328,-15.08254 7.911529,-15.50787 8.051873,-41.60669 0.292117,-54.31553 -7.178355,-11.75661 -7.257693,-13.62876 -0.577574,-13.62876 2.897299,0 6.044123,2.44592 6.99293,5.43536 0.948807,2.98945 3.674537,7.38477 6.057148,9.76741 7.749639,7.74964 7.620646,28.0517 -0.30411,47.86047 -3.910946,9.77576 -7.110775,19.21115 -7.110775,20.96748 0,1.75633 -2.453188,3.19333 -5.451507,3.19333 -3.091303,0 -5.451509,-1.81717 -5.451509,-4.19722 z m 137.587187,-4.52488 c -0.81988,-2.13653 0.97854,-9.32756 3.9965,-15.98007 3.01796,-6.6525 5.51411,-14.60998 5.54704,-17.68326 0.033,-3.07329 1.15828,-6.75305 2.50083,-8.17727 1.39934,-1.48446 1.43682,-5.20656 0.0877,-8.7224 -1.80369,-4.70091 -4.52328,-6.13293 -11.64733,-6.13293 -11.13493,0 -12.80721,2.0125 -19.25207,23.16888 -8.07034,26.4924 -10.25067,31.34615 -14.08081,31.34615 -2.75346,0 -3.23992,-3.28955 -2.0154,-13.62876 l 1.61413,-13.62876 -11.28268,0 c -8.21187,0 -11.28267,-1.1128 -11.28267,-4.08863 0,-2.94618 3.01681,-4.08863 10.79682,-4.08863 7.68647,0 12.44278,-1.76673 16.51033,-6.13273 l 5.71351,-6.13274 -11.05881,-10.01044 c -16.29007,-14.74574 -13.7768,-31.10417 5.99417,-39.01495 12.70122,-5.08203 49.99971,-6.30853 54.51557,-1.79268 4.41313,4.41314 1.68354,5.85018 -13.25634,6.97904 -27.31884,2.06424 -44.7283,5.17351 -47.47092,8.47816 -1.96391,2.36635 -1.83629,5.57462 0.41865,10.52364 3.16099,6.93762 3.89564,7.11943 28.7684,7.11943 24.89189,0 25.5905,0.17337 28.18326,6.99287 1.77243,4.66176 1.7079,8.76937 -0.19353,12.3222 -4.01903,7.50965 -0.78714,11.08636 9.15151,10.1279 6.3508,-0.61244 8.77545,0.39592 9.4919,3.94749 0.78497,3.89118 -0.99393,4.77007 -9.65472,4.77007 -10.0767,0 -10.92496,0.6814 -16.66833,13.38957 -7.10765,15.72682 -13.14161,22.00406 -15.42686,16.04885 z m -83.07216,-7.57725 c 0,-1.46881 1.99989,-7.66883 4.44421,-13.7778 3.44759,-8.61628 4.01596,-15.50548 2.53451,-30.71984 -3.33292,-34.22917 -2.0701,-43.86476 5.37444,-41.00803 3.20366,1.22937 4.00135,7.91704 4.00135,33.54612 0,30.87277 -3.09384,48.34283 -9.30516,52.5441 -4.14381,2.80278 -7.04935,2.56185 -7.04935,-0.58455 z"
       id="path3299"
       inkscape:connector-curvature="0" />
  </g>
</svg>
