<?xml version="1.0" encoding="UTF-8" standalone="no"?>
<!-- Created with Inkscape (http://www.inkscape.org/) -->

<svg
   xmlns:dc="http://purl.org/dc/elements/1.1/"
   xmlns:cc="http://creativecommons.org/ns#"
   xmlns:rdf="http://www.w3.org/1999/02/22-rdf-syntax-ns#"
   xmlns:svg="http://www.w3.org/2000/svg"
   xmlns="http://www.w3.org/2000/svg"
   xmlns:sodipodi="http://sodipodi.sourceforge.net/DTD/sodipodi-0.dtd"
   xmlns:inkscape="http://www.inkscape.org/namespaces/inkscape"
   width="300"
   height="300"
   id="svg2"
   version="1.1"
   inkscape:version="0.48.3.1 r9886"
   sodipodi:docname="Nouveau document 1">
  <defs
     id="defs4" />
  <sodipodi:namedview
     id="base"
     pagecolor="#ffffff"
     bordercolor="#666666"
     borderopacity="1.0"
     inkscape:pageopacity="0.0"
     inkscape:pageshadow="2"
     inkscape:zoom="1.979899"
     inkscape:cx="173.40817"
     inkscape:cy="124.24111"
     inkscape:document-units="px"
     inkscape:current-layer="layer1"
     showgrid="false"
     inkscape:window-width="1215"
     inkscape:window-height="1000"
     inkscape:window-x="65"
     inkscape:window-y="24"
     inkscape:window-maximized="1" />
  <metadata
     id="metadata7">
    <rdf:RDF>
      <cc:Work
         rdf:about="">
        <dc:format>image/svg+xml</dc:format>
        <dc:type
           rdf:resource="http://purl.org/dc/dcmitype/StillImage" />
        <dc:title></dc:title>
      </cc:Work>
    </rdf:RDF>
  </metadata>
  <g
     inkscape:label="Calque 1"
     inkscape:groupmode="layer"
     id="layer1"
     transform="translate(0,-752.36218)">
    <path
       style="fill:#000000"
       d="m 138.38267,1030.4944 c 0,-2.2634 2.24443,-5.9496 4.98762,-8.1917 2.7432,-2.2421 8.09831,-9.1805 11.90025,-15.4187 3.80194,-6.2383 7.70334,-11.90945 8.66974,-12.60259 4.13656,-2.96686 9.50825,-22.9278 6.81183,-25.31242 -1.5401,-1.36205 -10.41521,-3.32675 -19.7224,-4.36604 l -16.92215,-1.88961 0.38767,-10.05118 c 0.21318,-5.52819 0.8545,-12.24599 1.42503,-14.92847 1.46768,-6.90032 -10.9337,-8.69433 -43.572796,-6.30329 -25.717586,1.88398 -37.708122,-0.20492 -31.696095,-5.5217 2.834195,-2.50651 142.927521,-4.89881 169.773971,-2.89915 15.73048,1.17167 19.19566,2.20054 18.45926,5.4809 -1.01113,4.50402 -3.40288,4.59343 -56.1427,2.09861 -34.32193,-1.62357 -42.95895,0.0105 -42.95895,8.11975 0,2.60827 -1.5096,5.18731 -3.35467,5.73121 -6.84453,2.01769 1.07887,6.74484 16.38189,9.7735 11.68253,2.31212 17.25069,4.94952 21.44345,10.15685 l 5.66337,7.03383 -13.35975,24.28702 c -7.34786,13.35788 -16.49203,27.57908 -20.32036,31.60278 -7.60086,7.9885 -17.85421,9.8264 -17.85421,3.2004 z M 82.47137,899.89925 c -0.986864,-2.27435 -1.315223,-4.55326 -0.729703,-5.0642 0.585546,-0.51097 28.956123,-1.31274 63.045763,-1.78168 34.08965,-0.46897 61.98471,-1.70334 61.98905,-2.74305 0.012,-2.64933 9.1339,-2.288 14.23442,0.56377 10.11262,5.65414 -3.10601,7.87816 -52.97281,8.91267 -28.06702,0.58224 -58.39778,1.77619 -67.4017,2.65317 -13.625513,1.32712 -16.671612,0.90108 -18.16502,-2.54068 z M 231.485,889.2601 c -1.04503,-0.92417 -1.9824,-11.98292 -2.08304,-24.57499 -0.18867,-23.60819 -4.49704,-46.54605 -10.52693,-56.04588 -1.8941,-2.98409 -9.00064,-7.80457 -15.79226,-10.71218 -14.57251,-6.23872 -46.88436,-7.14267 -82.74707,-2.31491 -22.273156,2.99835 -22.333553,3.0274 -27.545567,13.24934 -5.654308,11.08942 -7.049474,16.70081 -12.260544,49.31232 -2.472067,15.47042 -4.554527,21.42434 -7.493493,21.42434 -5.750645,0 -8.54973,-11.57728 -5.89751,-24.3928 1.24001,-5.99191 3.847027,-18.83397 5.793312,-28.53794 5.688628,-28.36266 15.579656,-36.89237 46.659602,-40.23782 22.64187,-2.43718 24.49132,-3.29756 24.49132,-11.39368 0,-3.84081 1.92378,-8.39525 4.27509,-10.12103 6.49869,-4.76975 13.27627,1.38493 12.23482,11.11038 l -0.83452,7.79346 22.80056,2.62822 c 12.54032,1.44551 26.37837,3.98656 30.75124,5.64675 9.68246,3.67604 21.76204,15.37325 21.88501,21.19228 0.0495,2.34418 1.23012,4.88529 2.62355,5.64689 4.18527,2.28753 7.11665,60.43936 3.35967,66.64765 -3.32609,5.49618 -6.34381,6.64172 -9.69324,3.6796 z m -81.70205,-23.21616 c 0,-21.88751 -2.31879,-23.86701 -25.26819,-21.57081 -18.17065,1.81804 -31.733232,0.1125 -31.733232,-3.99092 0,-1.4503 11.698832,-2.47251 28.297132,-2.47251 l 28.29713,0 0,-13.79735 c 0,-11.49089 1.23625,-14.89062 7.39538,-20.33755 7.76955,-6.87116 17.23738,-7.48509 17.23738,-1.11774 0,2.06044 -2.88569,4.10871 -6.41265,4.55168 -3.52697,0.44297 -6.51813,1.57721 -6.64702,2.52053 -0.12887,0.9433 -0.84716,5.05287 -1.59613,9.13235 -0.74894,4.07949 -0.58401,10.15775 0.36658,13.50717 1.68799,5.94776 2.30729,6.06879 26.53424,5.18528 23.26425,-0.84838 24.85809,-0.58191 25.64574,4.28792 0.80578,4.98211 -0.20492,5.14836 -24.93812,4.10258 -28.43239,-1.20218 -27.59229,-1.74708 -25.85539,16.77013 0.64927,6.92175 -5.20103,20.56422 -8.81856,20.56422 -1.37734,0 -2.50429,-7.80074 -2.50429,-17.33498 z m 45.60113,10.06062 c 0,-1.22831 -4.23592,-4.01097 -9.41312,-6.18364 -12.01679,-5.04296 -20.58929,-13.14933 -16.35362,-15.46442 4.69783,-2.56769 20.23679,1.1767 22.02959,5.30845 0.86782,1.99997 5.27001,5.32482 9.78267,7.38861 10.23689,4.68157 10.86462,11.18434 1.07967,11.18434 -3.91885,0 -7.12519,-1.00501 -7.12519,-2.23334 z m -99.752484,-2.5626 c 0,-2.79612 27.517604,-19.08239 36.338414,-21.50684 8.39519,-2.30747 8.47036,2.70888 0.13623,9.10114 -6.20495,4.75922 -29.17418,14.68112 -33.986961,14.68112 -1.368252,0 -2.487758,-1.02394 -2.487758,-2.27542 z M 125.55735,825.3052 c -1.56754,-1.30374 -7.1294,-5.40032 -12.35964,-9.10353 -8.2665,-5.85294 -8.88779,-7.04086 -4.7527,-9.08739 7.71002,-3.81582 22.89176,0.0177 27.00776,6.81867 6.01082,9.93261 -1.3942,18.44276 -9.89542,11.37225 z m 49.87624,-4.49971 c 0,-4.1016 13.31372,-13.04193 19.42167,-13.04193 7.60926,0 8.34116,6.8481 1.24135,11.6144 -5.48958,3.68534 -20.66302,4.73362 -20.66302,1.42753 z"
       id="path2996"
       inkscape:connector-curvature="0" />
  </g>
</svg>
