<?xml version="1.0" encoding="UTF-8" standalone="no"?>
<!-- Created with Inkscape (http://www.inkscape.org/) -->

<svg
   xmlns:dc="http://purl.org/dc/elements/1.1/"
   xmlns:cc="http://creativecommons.org/ns#"
   xmlns:rdf="http://www.w3.org/1999/02/22-rdf-syntax-ns#"
   xmlns:svg="http://www.w3.org/2000/svg"
   xmlns="http://www.w3.org/2000/svg"
   xmlns:sodipodi="http://sodipodi.sourceforge.net/DTD/sodipodi-0.dtd"
   xmlns:inkscape="http://www.inkscape.org/namespaces/inkscape"
   width="300"
   height="300"
   id="svg2"
   version="1.1"
   inkscape:version="0.92.4 (5da689c313, 2019-01-14)"
   sodipodi:docname="image-bigseal.svg">
  <defs
     id="defs4" />
  <sodipodi:namedview
     id="base"
     pagecolor="#ffffff"
     bordercolor="#666666"
     borderopacity="1.0"
     inkscape:pageopacity="0.0"
     inkscape:pageshadow="2"
     inkscape:zoom="2"
     inkscape:cx="138.73469"
     inkscape:cy="166.09729"
     inkscape:document-units="px"
     inkscape:current-layer="layer1"
     showgrid="false"
     inkscape:window-width="1872"
     inkscape:window-height="1016"
     inkscape:window-x="48"
     inkscape:window-y="27"
     inkscape:window-maximized="1" />
  <metadata
     id="metadata7">
    <rdf:RDF>
      <cc:Work
         rdf:about="">
        <dc:format>image/svg+xml</dc:format>
        <dc:type
           rdf:resource="http://purl.org/dc/dcmitype/StillImage" />
        <dc:title />
      </cc:Work>
    </rdf:RDF>
  </metadata>
  <g
     inkscape:label="Calque 1"
     inkscape:groupmode="layer"
     id="layer1"
     transform="translate(0,-752.36218)">
    <path
       style="fill:#000000;stroke-width:6.2735548"
       d="m 225.37214,888.87349 c 20.10615,11.07999 19.10556,50.86151 0.51245,74.2769 -8.3752,10.54728 -14.98828,30.41446 -17.42714,52.35491 -2.67731,24.0865 -5.4075,31.7117 -8.56449,23.9201 h -6e-5 c -9.50338,-23.4548 -4.70338,-56.4762 11.59617,-79.7752 33.83724,-48.36798 4.7446,-83.35416 -47.06741,-56.60224 -24.99245,12.90433 -25.60059,12.93711 -18.05848,0.97375 4.29278,-6.80913 10.59036,-12.38026 25.23071,-20.18525 l 10.97147,-6.35811 3.20867,-19.43679 c 2.76807,-10.03392 2.38072,-21.76937 2.38072,-21.76937 0,0 -5.62655,-0.7712 -7.76346,-1.95584 -13.06635,-7.24353 -13.18328,-25.27522 -0.32399,-49.909 8.45218,-16.19103 11.34203,-17.85399 18.44997,-10.6169 4.63542,4.71971 10.3632,19.08831 12.72843,31.93025 3.38133,18.35851 2.13233,24.17316 -5.84344,27.20499 -2.4005,0.91248 -8.22007,3.91223 -8.22007,3.91223 l 1.56775,37.54582 c 0,0 8.19786,4.63593 9.42594,4.13269 z m 2.90517,-64.38917 c 10.52985,3.4636 20.34189,31.84295 15.41073,44.57257 -2.15112,5.55309 -10.67855,12.46347 -18.11804,10.09659 l -15.75369,-5.01205 c -7.24851,-14.15075 9.67621,-52.54664 18.461,-49.65711 z m -75.73901,57.43712 c -16.59075,-11.51135 -17.7936,-25.85685 -3.8247,-45.6127 12.13871,-17.16746 34.88087,-11.20031 27.39135,18.85128 l -6.0253,24.17644 c -5.81288,5.80499 -9.83662,7.93095 -17.54135,2.58498 z M 163.74229,856.931 c 0,-5.35396 -2.83647,-7.99792 -6.30326,-5.87546 -3.4668,2.12245 -6.30327,6.50299 -6.30327,9.7345 0,3.23151 2.83647,5.87546 6.30327,5.87546 3.46679,0 6.30326,-4.38053 6.30326,-9.7345 z m 69.3359,0.3684 c 0,-5.15129 -2.83647,-9.36598 -6.30326,-9.36598 -3.4668,0 -6.30327,4.21469 -6.30327,9.36598 0,5.15129 2.83647,9.36598 6.30327,9.36598 3.46679,0 6.30326,-4.21469 6.30326,-9.36598 z m -31.61282,-45.2689 c -0.12291,-5.97781 -12.28424,-24.82915 -12.41353,-19.24266 -0.0504,2.29479 -1.81816,8.61683 -3.92251,14.04897 -2.51065,6.4812 -0.34353,9.87668 6.30326,9.87668 5.57114,0 10.08585,-2.10735 10.03278,-4.68299 z m -78.0199,48.39089 c -3.516,0 -13.04956,1.66473 -13.04956,1.66473 0,0 -3.38299,33.89981 -3.38299,95.62776 0,107.83752 -11.774725,100.84592 -14.004465,-8.31568 -1.14706,-56.15675 -2.091481,-86.70259 -2.091481,-86.70259 0,0 -9.293913,-0.50736 -13.832582,-1.14593 -12.044843,-1.69468 -13.162413,-3.85928 -7.45083,-14.4311 0.76893,-1.42323 1.414298,-2.98316 7.022595,-3.3034 5.482596,2.51832 13.935086,-1.12575 13.935086,-1.12575 0,0 3.665512,-24.95155 3.718651,-42.77838 0.05037,-17.82683 2.932971,-34.14899 6.399756,-36.27145 7.44252,-4.55648 8.60578,1.35901 9.09044,46.22717 0.20045,18.55657 0.68105,35.00944 0.68105,35.00944 0,0 14.44412,-2.66579 18.75376,2.01257 9.54172,10.35809 -0.79986,13.53261 -5.78943,13.53261 z m -2.45898,-32.8935 c -1.69835,-14.41044 1.53618,-25.25268 10.74241,-36.00945 0,0 7.29068,-18.75111 13.17237,-15.39086 5.44073,3.10832 -6.33768,17.57744 -6.33768,17.57744 -3.48571,9.66757 -6.33762,28.63368 -6.33762,42.14691 0,2.87641 -0.0807,5.48707 -5.76718,6.03685 -4.76516,-4.98028 -4.71842,-7.96397 -5.4723,-14.36089 z M 70.385665,806.96544 c -3.282045,-15.24376 -3.818833,-27.71587 -1.192888,-27.71587 9.153471,0 20.308415,37.3494 16.281263,54.51369 -1.529532,6.51919 -2.123206,8.25263 -6.798896,8.05192 -2.536832,-9.68866 -4.953447,-19.35537 -8.289479,-34.84974 z m 74.470415,217.48696 c -0.063,-20.4135 21.17612,-56.07024 40.98646,-68.81022 31.53019,-20.27697 34.08389,-17.34566 8.15952,9.36598 -12.49868,12.87823 -28.66435,33.24927 -35.92363,45.26884 -7.25935,12.0197 -13.20943,18.3986 -13.22235,14.1754 z M 63.144599,957.20318 c 3.1614,-13.73677 5.901943,-40.42981 6.090032,-59.31787 0.225652,-22.65287 2.211689,-31.15399 5.834862,-24.97594 13.031057,22.21972 9.922221,75.9323 -5.471293,94.52908 0,0 -6.441044,17.53579 -12.201607,14.74068 -7.741212,-3.75616 5.748006,-24.97595 5.748006,-24.97595 z m 63.272721,-0.9755 c -8.0521,-28.72571 -8.64518,-64.51967 -1.26021,-76.06099 3.33128,-5.20624 7.03835,10.88208 9.8411,42.70943 4.99678,56.74341 1.63676,69.80271 -8.58089,33.35156 z m 31.45468,-3.71629 c 8.08166,-17.57052 43.05243,-39.2266 56.2872,-34.85649 5.19843,1.71653 0.21242,7.89246 -13.1408,16.27601 -11.83488,7.43047 -28.0388,18.2478 -36.00877,24.03853 -14.37498,10.44451 -14.43203,10.40086 -7.13763,-5.45805 z m -13.0395,-16.25397 c 0,-10.53355 38.22381,-38.37767 52.48551,-38.23312 13.49094,0.13675 13.46598,0.31595 -1.64301,11.82018 -26.14972,19.91051 -50.8425,32.73853 -50.8425,26.41294 z"
       id="path250"
       inkscape:connector-curvature="0"
       sodipodi:nodetypes="scccccccccccccccccccsccscccssccscsssssssscccscscsscccccccscssccssscccsccccssscsccssssccsscccssscs" />
  </g>
</svg>
