<?xml version="1.0" encoding="UTF-8" standalone="no"?>
<!-- Created with Inkscape (http://www.inkscape.org/) -->

<svg
   xmlns:dc="http://purl.org/dc/elements/1.1/"
   xmlns:cc="http://creativecommons.org/ns#"
   xmlns:rdf="http://www.w3.org/1999/02/22-rdf-syntax-ns#"
   xmlns:svg="http://www.w3.org/2000/svg"
   xmlns="http://www.w3.org/2000/svg"
   xmlns:sodipodi="http://sodipodi.sourceforge.net/DTD/sodipodi-0.dtd"
   xmlns:inkscape="http://www.inkscape.org/namespaces/inkscape"
   width="300"
   height="300"
   id="svg2"
   version="1.1"
   inkscape:version="0.48.4 r9939"
   sodipodi:docname="image-seal.svg">
  <defs
     id="defs4" />
  <sodipodi:namedview
     id="base"
     pagecolor="#ffffff"
     bordercolor="#666666"
     borderopacity="1.0"
     inkscape:pageopacity="0.0"
     inkscape:pageshadow="2"
     inkscape:zoom="2.0018437"
     inkscape:cx="145.03351"
     inkscape:cy="130.6666"
     inkscape:document-units="px"
     inkscape:current-layer="layer1"
     showgrid="false"
     inkscape:window-width="1215"
     inkscape:window-height="1000"
     inkscape:window-x="65"
     inkscape:window-y="24"
     inkscape:window-maximized="1"
     fit-margin-top="10"
     fit-margin-left="10"
     fit-margin-right="10"
     fit-margin-bottom="10" />
  <metadata
     id="metadata7">
    <rdf:RDF>
      <cc:Work
         rdf:about="">
        <dc:format>image/svg+xml</dc:format>
        <dc:type
           rdf:resource="http://purl.org/dc/dcmitype/StillImage" />
        <dc:title />
      </cc:Work>
    </rdf:RDF>
  </metadata>
  <g
     inkscape:label="Calque 1"
     inkscape:groupmode="layer"
     id="layer1"
     transform="translate(0,-752.36218)">
    <path
       style="fill:#000000"
       d="m 140.95317,1039.1329 c 0,-4.526 1.79187,-16.2039 3.98195,-25.9507 2.19006,-9.7468 4.86683,-21.70899 5.94835,-26.58265 2.11881,-9.54803 11.94434,-29.51921 15.64964,-31.80922 3.33518,-2.06127 2.7671,-11.23092 -0.6958,-11.23092 -1.63095,0 -5.01218,-1.85234 -7.51385,-4.11633 -6.10613,-5.52595 -2.90814,-11.08126 11.68714,-20.30216 10.19335,-6.43986 11.44238,-8.24836 11.4464,-16.57338 0.003,-5.1396 1.19373,-10.0797 2.6472,-10.978 3.96921,-2.45311 10.53473,4.14168 9.20096,9.24199 -1.17398,4.48931 2.33498,8.39247 12.8068,14.24544 9.28421,5.1892 11.01652,3.65112 5.70309,-5.06354 -7.40548,-12.14588 -6.32644,-17.04807 7.29976,-33.16361 11.83594,-13.9982 12.34996,-15.25391 12.69147,-31.00244 0.19571,-9.02734 0.47615,-17.22378 0.62312,-18.21436 0.14685,-0.99055 0.13242,-9.30841 -0.0327,-18.48409 -0.27469,-15.28515 -0.84017,-16.92928 -6.74839,-19.62124 -3.54668,-1.616 -10.26059,-2.93817 -14.91973,-2.93817 -7.85941,0 -13.38259,-4.91354 -9.68243,-8.61367 0.83237,-0.83237 9.12202,-1.51342 18.42145,-1.51342 22.91411,0 24.74618,2.34379 23.74808,30.38127 -2.39063,67.15395 -2.82113,69.05885 -18.47397,81.74503 -6.30277,5.10824 -5.5425,10.85394 3.04945,23.04625 4.7837,6.78826 4.84928,7.54309 0.90564,10.42672 -3.78926,2.77078 -3.83212,3.45666 -0.39443,6.30969 5.60388,4.65079 0.43671,9.66732 -10.93482,10.61607 -6.442,0.53747 -9.53719,2.12938 -10.12003,5.2049 -0.55861,2.94771 0.75528,4.4306 3.92566,4.4306 2.6209,0 6.97681,1.63226 9.67978,3.62722 3.88035,2.86394 4.26328,4.28766 1.81976,6.76581 -2.45921,2.49407 -4.91948,2.15588 -11.98083,-1.6469 -7.09111,-3.81882 -9.52295,-4.14861 -12.03898,-1.63259 -5.31596,5.31597 0.96853,11.83488 11.7095,12.14623 5.15099,0.14938 10.5681,1.47418 12.03805,2.94413 4.1064,4.1064 -0.11773,8.49852 -7.62347,7.92667 -14.07286,-1.07218 -18.12491,0.11596 -18.12491,5.31424 0,4.3884 1.68785,5.06355 12.65886,5.06355 10.971,0 12.65886,0.67515 12.65886,5.06354 0,4.39726 -1.68786,5.06355 -12.82702,5.06355 -12.49949,0 -12.80659,0.17773 -12.02592,6.96239 0.76776,6.6725 1.4599,6.9938 16.62468,7.7161 13.74942,0.655 15.82358,1.4017 15.82358,5.6965 0,4.4957 -1.77475,4.9234 -19.62124,4.7291 -10.79168,-0.1175 -26.15017,-1.0296 -34.12999,-2.0268 -16.87046,-2.1084 -22.20194,0.02 -22.20194,8.8621 0,8.3779 -4.31139,16.1644 -8.95028,16.1644 -2.4963,0 -3.70859,-2.69 -3.70859,-8.2293 z m 43.04014,-33.7739 c 0,-6.51778 -1.18039,-7.3107 -14.21168,-9.54666 -6.55696,-1.12507 -8.35004,-0.32577 -10.66456,4.75406 -3.2695,7.1758 -1.34642,8.9824 12.13137,11.3968 11.18345,2.0033 12.74487,1.1942 12.74487,-6.6042 z m -1.26589,-22.55711 c 0,-4.02367 -1.94977,-5.22492 -9.49415,-5.84933 -7.90528,-0.65427 -9.49414,0.0177 -9.49414,4.00865 0,6.8071 2.52384,8.51704 11.30198,7.65715 5.74748,-0.56299 7.68631,-2.03018 7.68631,-5.81647 z m 1.26589,-18.78122 c 0,-1.2786 -0.71042,-4.17604 -1.57872,-6.43873 -1.44566,-3.7674 -1.97896,-3.75181 -6.32943,0.18532 -6.46695,5.85253 -5.96533,8.57811 1.57871,8.57811 3.48119,0 6.32944,-1.04613 6.32944,-2.3247 z m 2.53177,-33.12012 c 0,-8.99209 3.27059,-9.7452 8.69415,-2.00195 3.15449,4.50367 4.53889,4.97028 7.10596,2.39508 2.56455,-2.57271 1.95012,-4.15099 -3.14125,-8.06886 -6.3943,-4.92044 -17.72241,-6.76082 -17.72241,-2.87918 0,1.15717 -2.84824,3.62829 -6.32943,5.49137 -7.7934,4.17089 -7.89293,5.62025 -0.63294,9.21588 9.6041,4.75656 12.02592,3.92034 12.02592,-4.15234 z m -88.3484,98.90205 c -2.81812,-1.7417 -3.30245,-10.8792 -2.51061,-47.36529 l 0.98109,-45.20733 -15.82358,-2.25214 C 71.02706,933.58355 65,931.51696 65,929.55223 c 0,-4.52159 6.00098,-6.247 21.72714,-6.247 l 13.71767,0 0.29154,-13.2918 c 0.16026,-7.31049 0.0889,-15.28558 -0.15925,-17.72241 -0.24786,-2.43683 0.89974,-4.4306 2.55023,-4.4306 2.25799,0 2.2274,-0.93205 -0.12355,-3.76477 -3.84055,-4.6276 -1.28845,-16.48941 3.54775,-16.48941 4.82616,0 6.55207,5.7232 6.55207,21.72714 0,14.41014 3.5515,18.0243 7.50182,7.63418 1.27211,-3.34591 3.43486,-6.7769 4.80609,-7.62436 1.37123,-0.84746 3.24097,-4.94569 4.15499,-9.10714 1.72209,-7.84064 7.98458,-10.24826 10.3851,-3.99255 1.73303,4.51615 -13.72175,36.9142 -18.48014,38.74017 -1.95116,0.74872 -5.05939,-0.70616 -6.90713,-3.23313 -3.08891,-4.22433 -3.35956,-4.02977 -3.35956,2.41514 0,3.85525 1.56654,7.4888 3.48119,8.07455 1.91465,0.58575 5.47496,1.80974 7.91179,2.71999 2.43683,0.91022 6.13955,1.48422 8.22826,1.27553 4.51184,-0.45083 11.83089,3.8049 9.88695,5.74885 -0.74766,0.74765 -5.68679,1.91343 -10.97584,2.59061 -19.43029,2.48767 -19.16529,2.14965 -19.16529,24.44522 0,23.07513 -4.57188,68.47116 -7.16525,71.14676 -0.95607,0.9864 -3.30956,0.8223 -5.22998,-0.3646 z m -24.09792,-7.4062 c -0.74095,-1.1989 -0.16609,-15.1553 1.27756,-31.01426 1.44359,-15.85895 3.00698,-33.39162 3.47422,-38.96152 0.46724,-5.5699 1.53405,-9.84227 2.3707,-9.49415 0.83663,0.34812 2.72903,0.63294 4.20533,0.63294 3.43126,0 0.30265,73.28399 -3.32364,77.85199 -2.92614,3.6861 -6.0939,4.0759 -8.00417,0.985 z m 48.29652,0.312 c -4.5901,-7.4269 -6.23183,-75.4587 -1.92731,-79.86492 1.06484,-1.09001 3.86379,-1.24209 6.21988,-0.33799 3.81249,1.46298 4.20727,5.97574 3.58808,41.01613 -0.47777,27.03778 -1.61449,39.67768 -3.62844,40.34708 -1.61299,0.5361 -3.52648,0.015 -4.25221,-1.1603 z M 84.25917,909.17341 c -0.84523,-2.20259 -1.53676,-6.62955 -1.53676,-9.83768 0,-3.20814 -1.70194,-9.09625 -3.78207,-13.08473 -4.82517,-9.25186 -4.85951,-16.11299 -0.0805,-16.11299 3.97542,0 11.458,12.31809 11.458,18.86257 0,2.15785 1.13929,3.92338 2.53177,3.92338 3.56129,0 3.16284,13.54686 -0.50636,17.21606 -4.08347,4.08347 -6.24527,3.825 -8.08397,-0.96661 z m 68.56169,-0.16203 c -0.95732,-0.95734 -1.7406,-6.69353 -1.7406,-12.74712 0,-11.4084 8.43273,-28.21068 14.55769,-29.00634 1.7406,-0.22609 4.58884,-0.52504 6.32944,-0.66429 7.39432,-0.59155 11.56123,-13.59319 13.38758,-41.77191 1.64213,-25.33674 1.35513,-28.76772 -2.78948,-33.3475 -3.67836,-4.06453 -7.35549,-4.9943 -18.04174,-4.56197 -15.0323,0.60815 -18.18924,-0.93377 -13.49427,-6.59087 4.00293,-4.82322 37.92823,-5.47705 42.58456,-0.82072 1.94964,1.94964 3.03813,11.92746 3.03813,27.8495 0,27.04335 0.69722,28.08986 14.08675,21.14328 3.88865,-2.01744 8.1614,-2.99372 9.49501,-2.1695 3.40592,2.10497 -8.35758,10.50261 -15.98645,11.4123 -4.97374,0.59306 -6.4869,2.38156 -7.0647,8.35004 -1.45362,15.01584 -5.5394,20.69093 -20.33092,28.23944 l -14.37862,7.33778 -1.26589,13.66198 c -1.18033,12.73856 -4.27829,17.7941 -8.38649,13.6859 z m -68.4905,-55.49663 c -5.70223,-5.53795 -8.54392,-10.18697 -7.35075,-12.02592 1.06983,-1.64884 2.06127,-4.70682 2.20323,-6.79553 0.14203,-2.08871 0.42678,-5.79143 0.63294,-8.22826 0.21545,-2.54815 2.43658,-4.4306 5.22743,-4.4306 4.06142,0 4.85254,1.85252 4.85254,11.36285 0,7.13007 1.53818,12.90097 4.12922,15.49201 5.20642,5.20644 5.937573,4.3948 8.52699,-9.46576 2.72806,-14.60261 1.04094,-18.87216 -9.73411,-24.6338 -8.18195,-4.37502 -8.88695,-5.71165 -9.61208,-18.22422 -0.95974,-16.56134 0.99737,-25.16653 5.72368,-25.16653 4.37822,0 6.09595,5.50513 6.11755,19.60589 0.0177,12.20168 1.58324,15.83892 6.81313,15.83892 2.90009,0 3.64823,-4.56891 3.64823,-22.2796 0,-22.60125 2.84599,-30.81625 8.92741,-25.76911 1.95989,1.62656 2.6256,8.7175 1.95521,20.82687 -1.13925,20.57928 0.98099,26.08725 9.05547,23.52452 4.11656,-1.30655 5.45002,-3.89653 5.67945,-11.03099 0.16481,-5.12792 0.10481,-10.35841 -0.13368,-11.62329 -0.72589,-3.85123 5.78892,-6.44153 9.16142,-3.64258 3.59618,2.98455 2.11719,21.74397 -2.61426,33.1589 -2.29695,5.54159 -4.53752,6.96237 -10.97961,6.96237 -4.45157,0 -8.90518,1.31293 -9.89693,2.91762 -1.73373,2.80523 -1.78462,27.55039 -0.0602,29.27478 2.93503,2.93506 9.51174,-3.84272 11.73294,-12.09164 2.94994,-10.95519 5.02916,-13.09884 9.82829,-10.13282 2.69132,1.66333 2.71175,4.65996 0.11114,16.2812 -2.96316,13.24077 -3.82702,14.42037 -12.28049,16.76861 -5.00121,1.38926 -14.33,2.53228 -20.73065,2.54003 -9.92488,0.0127 -13.00559,-1.31452 -20.93343,-9.01392 z m 114.13023,7.46075 c -1.97015,-1.97015 4.43387,-8.55979 8.31867,-8.55979 1.59139,0 4.67565,-1.78219 6.85386,-3.96043 2.95544,-2.95544 4.67628,-3.22869 6.78153,-1.07691 2.08648,2.13261 0.84323,4.47926 -4.77419,9.01138 -7.41078,5.97901 -14.02194,7.74371 -17.17987,4.58575 z m -56.16474,-3.37199 c -1.68649,-2.72879 24.60262,-20.37844 30.35365,-20.37844 6.92017,0 3.84113,4.38313 -9.56524,13.61643 -13.72851,9.45521 -18.22081,10.91645 -20.78841,6.76201 z m 3.72087,-26.47062 c 0,-2.26014 3.70272,-6.36692 8.22826,-9.1262 8.25418,-5.03268 22.15301,-6.87212 22.15301,-2.93184 0,1.15717 -3.13307,3.71876 -6.96238,5.69246 -3.8293,1.97367 -7.54344,4.35444 -8.25363,5.29062 -0.71018,0.93617 -4.4129,2.48562 -8.22826,3.44321 -5.42733,1.36219 -6.937,0.8468 -6.937,-2.36825 z m 55.69899,-18.90907 c 0,-4.16748 7.2489,-7.70715 18.35535,-8.96298 4.82792,-0.5459 1.82156,5.2057 -4.73378,9.05643 -9.68332,5.68818 -13.62157,5.66114 -13.62157,-0.0934 z m -53.16722,-1.40726 c 0,-4.95324 21.09615,-15.29003 26.76527,-13.11458 4.25029,1.63099 3.90665,2.3688 -3.19882,6.86766 -11.3507,7.18674 -23.56645,10.42485 -23.56645,6.24692 z"
       id="path3041"
       inkscape:connector-curvature="0" />
  </g>
</svg>
