<?xml version="1.0" encoding="UTF-8" standalone="no"?>
<svg
   xmlns:dc="http://purl.org/dc/elements/1.1/"
   xmlns:cc="http://creativecommons.org/ns#"
   xmlns:rdf="http://www.w3.org/1999/02/22-rdf-syntax-ns#"
   xmlns:svg="http://www.w3.org/2000/svg"
   xmlns="http://www.w3.org/2000/svg"
   version="1.1"
   id="svg30"
   width="300"
   height="300"
   viewBox="0 0 300 300">
  <metadata
     id="metadata36">
    <rdf:RDF>
      <cc:Work
         rdf:about="">
        <dc:format>image/svg+xml</dc:format>
        <dc:type
           rdf:resource="http://purl.org/dc/dcmitype/StillImage" />
        <dc:title></dc:title>
      </cc:Work>
    </rdf:RDF>
  </metadata>
  <defs
     id="defs34" />
  <path
     style="fill:#000000;stroke-width:0.6910665"
     d="m 143.80953,277.73015 c -0.17569,-5.5842 -0.12136,-8.18167 0.13445,-42.88382 l 0.27756,-37.65285 c -27.72806,6.64691 -30.24469,32.00749 -30.55299,57.06863 0,8.85067 -1.29753,11.16386 -6.26208,11.16386 -2.49703,0.0588 -3.74405,-3.02735 -4.26469,-7.36929 0.40815,-37.53653 3.53738,-63.39571 41.0073,-71.87012 l 0.13461,-11.81326 c -16.39096,-2.07978 -37.80393,-6.97236 -37.96428,-27.12432 -0.15357,-19.30023 24.69818,-27.31755 38.25097,-28.91053 l 0.0317,-15.09734 c -17.1512,-2.14284 -39.16039,-7.447095 -38.82734,-27.245546 0.33481,-19.902866 23.96135,-27.216069 39.10834,-28.626144 0.44381,-24.630066 -0.39667,-27.75901 2.87012,-31.022376 5.51441,-5.508638 8.37938,7.529619 8.36474,9.505989 0,0 -0.29341,13.015185 -0.37168,21.665813 16.43783,1.137428 36.76614,10.409203 37.22597,29.538171 0.41976,17.461939 -24.67123,25.477513 -36.96357,26.142433 l 0.11356,15.13375 c 14.77155,1.672 36.93599,9.63022 36.90042,28.43622 -0.0361,19.12965 -21.54571,25.97309 -36.69479,27.07641 l 0.0494,12.35834 c 42.31409,7.6407 40.59062,45.06201 40.43198,74.93671 -0.024,3.46836 -1.5145,4.29162 -4.26112,4.1464 -6.89775,-0.36471 -6.22894,-12.3974 -6.31866,-15.75584 -0.61115,-22.87446 -1.08976,-43.73753 -29.71483,-52.34137 l -0.0597,22.88812 c -0.0811,31.04874 -0.6967,57.82722 -0.97325,60.97466 -0.49207,6.06871 -11.40163,5.27487 -11.67213,-3.3227 z M 182.2976,146.64604 c -0.42691,-13.63644 -19.82744,-17.70327 -31.37176,-17.74013 -11.87367,-0.0379 -33.59306,4.62825 -33.5381,17.76064 0.0548,13.0875 21.47732,16.5527 33.84903,16.68964 12.8529,0.14226 31.41946,-5.25512 31.06083,-16.71015 z m -1.00735,-70.054325 c -0.14257,-13.869826 -17.30484,-18.262493 -31.0188,-18.250812 -12.89604,0.01098 -33.31535,5.619006 -33.1857,16.889384 0.15858,13.786292 21.45269,17.550789 32.41686,17.609826 12.07083,-0.04391 31.90847,-4.493397 31.78764,-16.248398 z"
     id="path40" />
</svg>
