<?xml version="1.0" encoding="UTF-8" standalone="no"?>
<svg
   xmlns:dc="http://purl.org/dc/elements/1.1/"
   xmlns:cc="http://creativecommons.org/ns#"
   xmlns:rdf="http://www.w3.org/1999/02/22-rdf-syntax-ns#"
   xmlns:svg="http://www.w3.org/2000/svg"
   xmlns="http://www.w3.org/2000/svg"
   version="1.1"
   id="svg92"
   width="300"
   height="300"
   viewBox="0 0 300 300">
  <metadata
     id="metadata98">
    <rdf:RDF>
      <cc:Work
         rdf:about="">
        <dc:format>image/svg+xml</dc:format>
        <dc:type
           rdf:resource="http://purl.org/dc/dcmitype/StillImage" />
        <dc:title></dc:title>
      </cc:Work>
    </rdf:RDF>
  </metadata>
  <defs
     id="defs96" />
  <path
     style="fill:#000000;stroke-width:0.69088972"
     d="m 99.403516,279.06704 0.295075,-86.32954 c -21.222892,0.31176 -25.637693,31.42523 -25.616906,56.73125 0.01077,13.10494 -10.324523,13.29185 -10.2889,0.53636 0.07495,-26.83502 2.429988,-68.85985 36.034325,-68.93647 l 0.08535,-7.99697 C 91.313999,172.89822 84.994292,172.08247 79.367737,168.00683 67.568143,159.4597 69.74644,144.5121 74.885618,136.94926 84.06625,123.439 92.834364,119.56689 100.55937,117.71924 l 0.1886,-15.47559 C 92.667107,101.83229 85.040453,100.95897 79.554876,96.559299 69.627995,88.597499 71.590984,74.57107 75.611145,68.304111 85.229058,53.310917 95.244477,48.765264 101.34015,47.878528 l 0.38875,-20.376566 c 0.14043,-5.345706 0.52733,-12.583908 4.69395,-12.50126 5.19331,0.103013 5.6262,9.782279 5.57875,12.486129 l -0.34193,20.354109 c 5.69365,1.058617 15.06013,4.50959 23.65482,18.988629 4.99018,8.406703 5.45185,23.016805 -2.92333,29.00665 -6.74995,4.827501 -13.35249,6.022701 -20.92832,6.470651 l -0.13014,15.68918 c 6.5295,1.24366 14.55012,5.09577 22.08545,16.21555 6.99019,10.31535 8.85443,24.96439 -1.17669,32.33315 -7.06666,5.19109 -11.59942,5.76789 -21.16055,6.35403 l -0.0456,8.17739 c 31.13565,0.53397 33.76663,42.46683 33.33364,71.61306 -0.15185,10.2215 -10.37571,10.89736 -10.40489,-0.38041 -0.0704,-27.2221 -2.77498,-59.2356 -22.99146,-59.39651 l 0.048,86.05012 c 0.005,8.01259 -11.644282,8.0524 -11.617116,0.10461 z M 123.998,159.57957 c 6.07392,-5.01737 5.27802,-12.86653 -0.80547,-21.26026 -9.3861,-12.95054 -26.249648,-12.89801 -36.670561,1.21694 -5.655522,7.6603 -6.630656,15.27727 0.205578,20.48241 6.38668,4.86286 31.158573,4.60963 37.270453,-0.43909 z m 1.09762,-89.145098 C 114.74674,54.702941 99.325185,54.423411 86.604347,69.944886 c -4.432888,5.408839 -5.80402,14.654183 -0.605144,18.655793 7.885056,6.06918 30.889667,5.93324 38.112087,0.591102 5.16703,-3.821843 4.6442,-13.193874 0.98433,-18.757309 z m 39.21935,149.285088 c -0.0822,-13.87527 6.91333,-20.114 34.32522,-32.01879 19.77828,-8.58957 25.86521,-16.65355 25.63958,-35.09487 -0.20977,-17.14569 -3.44941,-22.52928 -31.10867,-23.34884 -12.48509,-0.36994 -18.08445,-0.58267 -18.14099,-6.11915 -0.0661,-6.47085 7.89589,-5.97321 19.41977,-5.76484 28.09135,0.50795 41.91977,9.33174 41.75599,34.86456 -0.15429,24.05427 -7.95296,35.0497 -28.08997,44.00622 -24.03024,10.68815 -31.05182,16.30956 -30.78314,22.8005 0.59145,14.2889 28.5442,35.74736 38.03343,43.98108 12.49854,10.84487 0.31632,15.5593 -8.91146,8.42905 -13.08179,-10.10821 -42.04452,-35.65432 -42.13976,-51.73492 z m 20.76154,-57.37514 c -33.5508,-0.45674 -36.50274,-9.8124 -36.77739,-34.8432 -0.30526,-27.821191 3.23927,-47.185679 35.93663,-48.22889 14.47065,-0.461688 29.77432,1.21407 30.17237,-13.764924 0.28779,-10.829906 -12.76664,-10.01518 -18.11412,-10.169524 -21.34474,-0.61607 -46.15206,-5.168455 -49.58258,-25.091648 -2.709,-15.732879 7.47106,-16.844361 10.36958,-3.221728 3.17363,14.915598 22.757,16.619 39.6707,17.336121 16.99363,0.720509 29.91136,6.294932 29.76152,20.585458 -0.25154,23.992014 -18.4625,24.453635 -34.77887,25.092669 -31.82476,1.246424 -32.38224,10.084436 -32.67217,37.240006 0.41341,23.50146 3.84904,24.31296 26.96292,24.67545 18.01654,0 19.22625,0.79784 19.25364,5.12091 0.0331,5.22502 -8.79888,5.42453 -20.20223,5.2693 z"
     id="path102" />
</svg>
