<?xml version="1.0" encoding="UTF-8" standalone="no"?>
<!-- Created with Inkscape (http://www.inkscape.org/) -->

<svg
   xmlns:dc="http://purl.org/dc/elements/1.1/"
   xmlns:cc="http://creativecommons.org/ns#"
   xmlns:rdf="http://www.w3.org/1999/02/22-rdf-syntax-ns#"
   xmlns:svg="http://www.w3.org/2000/svg"
   xmlns="http://www.w3.org/2000/svg"
   xmlns:sodipodi="http://sodipodi.sourceforge.net/DTD/sodipodi-0.dtd"
   xmlns:inkscape="http://www.inkscape.org/namespaces/inkscape"
   width="300"
   height="300"
   id="svg2"
   version="1.1"
   inkscape:version="0.48.4 r9939"
   sodipodi:docname="dessin.svg">
  <defs
     id="defs4" />
  <sodipodi:namedview
     id="base"
     pagecolor="#ffffff"
     bordercolor="#666666"
     borderopacity="1.0"
     inkscape:pageopacity="0.0"
     inkscape:pageshadow="2"
     inkscape:zoom="1.979899"
     inkscape:cx="227.07871"
     inkscape:cy="107.23575"
     inkscape:document-units="px"
     inkscape:current-layer="layer1"
     showgrid="false"
     inkscape:window-width="1215"
     inkscape:window-height="1000"
     inkscape:window-x="65"
     inkscape:window-y="24"
     inkscape:window-maximized="1" />
  <metadata
     id="metadata7">
    <rdf:RDF>
      <cc:Work
         rdf:about="">
        <dc:format>image/svg+xml</dc:format>
        <dc:type
           rdf:resource="http://purl.org/dc/dcmitype/StillImage" />
        <dc:title />
      </cc:Work>
    </rdf:RDF>
  </metadata>
  <g
     inkscape:label="Calque 1"
     inkscape:groupmode="layer"
     id="layer1"
     transform="translate(0,-752.36218)">
    <path
       style="fill:#000000"
       d="m 87.184958,1023.2125 c -2.806863,-4.0911 -3.424666,-8.6448 -2.036268,-15.0088 3.430106,-15.72285 2.286309,-60.71183 -1.575491,-61.96841 -1.878339,-0.61122 -4.120586,1.04198 -4.982773,3.67368 -0.862176,2.63174 -2.70779,6.82458 -4.101356,9.31745 -1.393566,2.49289 -2.533758,6.82832 -2.533758,9.63433 0,2.80602 -1.095232,5.74824 -2.43385,6.5383 -1.338618,0.7901 -2.575531,10.43751 -2.748696,21.43874 -0.309348,19.65311 -3.008505,27.02731 -9.892752,27.02731 -5.679968,0 -6.06218,-5.1897 -2.40297,-32.62792 5.363028,-40.21411 7.193148,-44.34346 24.434105,-55.1316 9.208099,-5.76179 8.41348,-9.7925 -2.686111,-13.62547 -8.505099,-2.93703 -9.698561,-4.63358 -12.578213,-17.88032 -4.311441,-19.83314 -1.112437,-30.34858 9.774675,-32.13037 6.786893,-1.11077 8.239166,-2.69934 8.956791,-9.79754 0.625265,-6.18463 -0.260483,-8.47183 -3.280787,-8.47183 -2.275499,0 -5.390968,-2.05557 -6.923259,-4.56792 -2.206414,-3.61764 -2.823422,-3.75338 -2.965956,-0.65254 -0.110288,2.39912 -1.692634,1.38834 -4.086182,-2.61025 -5.003748,-8.35908 -5.404063,-38.39046 -0.567888,-42.6027 1.942616,-1.69197 5.933301,-4.3749 8.868186,-5.96203 3.510651,-1.8985 6.098649,-7.25626 7.565,-15.66138 2.823589,-16.18492 4.881041,-18.05774 12.712277,-11.57155 5.027517,4.16405 6.015161,7.01946 4.8334,13.974 -1.362515,8.01818 -0.740119,8.99786 7.530898,11.85406 11.60306,4.00682 16.41541,14.59217 14.06832,30.94502 -2.13885,14.90219 -7.76416,23.59241 -15.99358,24.70763 -8.10908,1.09891 -10.851136,15.15026 -2.98218,15.28181 12.2817,0.20543 19.61494,11.99834 18.37241,29.54569 -0.97704,13.79784 -4.34365,19.28495 -13.9786,22.78326 -8.425647,3.05919 -7.898562,8.54511 1.2543,13.05531 4.13409,2.03713 9.14187,5.17212 11.12837,6.96666 1.98652,1.79453 4.75397,3.26278 6.14988,3.26278 1.39594,0 2.53805,2.27988 2.53805,5.06641 0,2.78652 1.02377,5.67068 2.27504,6.40919 3.99532,2.35805 9.58552,45.6526 6.3721,49.3501 -1.72175,1.9812 -1.9101,4.78 -0.4713,7.0032 3.0773,4.7551 1.0157,7.8678 -5.21089,7.8678 -4.14038,0 -5.21289,-3.1788 -6.82542,-20.22928 -2.88916,-30.54924 -3.41441,-33.24025 -8.4762,-43.42699 -2.92833,-5.89315 -6.60957,-9.4302 -9.8147,-9.4302 -4.8246,0 -5.076007,2.28341 -4.23891,38.50091 0.48945,21.17546 0.346,39.96916 -0.318757,41.76366 -1.902501,5.1359 -8.31481,3.8208 -12.726955,-2.6102 z M 105.04551,901.33588 c 4.31962,-8.73644 4.0493,-16.78559 -0.76218,-22.69424 -4.23812,-5.2045 -24.196569,2.18313 -28.85977,10.6825 -7.179152,13.08505 2.39582,22.71714 21.12248,21.24847 2.25012,-0.17645 6.07488,-4.33298 8.49947,-9.23673 z m -5.289285,-64.50691 c 3.325425,-2.87394 4.998465,-7.97581 4.998465,-15.24239 0,-8.92004 -1.17315,-11.43297 -6.399026,-13.70684 -3.568245,-1.55262 -10.507994,-1.98181 -15.687263,-0.97023 -8.242656,1.60992 -9.486033,2.9764 -11.04562,12.1392 -2.711511,15.93057 0.926774,22.10017 13.032742,22.10017 5.564554,0 12.34744,-1.9404 15.100702,-4.31991 z m 80.376395,186.38353 c -2.89924,-13.5339 -3.3879,-30.28687 -1.00213,-34.35806 1.61616,-2.7579 1.48833,-9.13348 -0.34695,-17.30583 -2.06369,-9.18944 -2.04998,-16.75029 0.0473,-26.08941 2.14812,-9.56529 2.12423,-14.10389 -0.0876,-16.64899 -2.11048,-2.4285 -2.20726,-5.59244 -0.31635,-10.342 2.85043,-7.15967 6.02249,-8.01583 26.0926,-7.04263 24.8013,1.20263 27.74981,6.5853 4.84397,8.84293 -8.76402,0.86381 -16.91532,3.18829 -18.51732,5.2805 -3.10464,4.05471 -3.24624,85.45859 -0.15683,90.23209 2.10127,3.2469 -2.97378,13.3044 -6.71341,13.3044 -1.42177,0 -3.1512,-2.6428 -3.84315,-5.873 z M 126.62095,898.7439 c 0,-1.34218 1.32282,-5.74694 2.93961,-9.78837 1.61677,-4.04142 4.15935,-13.61946 5.65013,-21.28451 1.49082,-7.66505 5.08008,-17.96525 7.97617,-22.88935 2.89607,-4.92409 5.02128,-9.81144 4.72268,-10.86075 -1.59789,-5.61537 22.23279,-55.9819 28.13608,-59.46608 3.31333,-1.95556 5.35869,-0.51714 6.34458,4.46187 2.61879,13.2255 37.93942,74.45037 48.38358,83.86827 5.1257,4.622 7.5335,21.82567 2.65142,18.94421 -4.9253,-2.90694 -28.22419,-34.19843 -33.609,-45.13845 -3.00588,-6.10676 -6.94219,-11.10324 -8.74739,-11.10324 -1.80522,0 -4.87027,-5.91735 -6.81123,-13.14961 -2.81235,-10.47925 -4.26928,-12.56295 -7.17423,-10.26059 -2.00487,1.589 -4.43699,6.33172 -5.40471,10.53941 -1.26349,5.49354 -3.43204,7.70842 -7.69222,7.85641 -3.263,0.1132 -4.39526,0.79852 -2.51614,1.52262 4.8614,1.87332 4.32048,5.07877 -3.53188,20.93006 -3.82167,7.71467 -6.39467,14.88242 -5.7178,15.92831 0.67687,1.04589 -1.11622,6.50936 -3.98465,12.14102 -2.86841,5.63168 -5.21531,11.31658 -5.21531,12.63315 0,1.31658 -2.54371,5.80527 -5.65268,9.97485 -5.55834,7.45455 -10.74701,9.93653 -10.74701,5.14077 z m 30.60608,-19.12532 c -2.91143,-3.35015 -0.44434,-4.34596 17.85723,-7.20794 11.67947,-1.82641 26.57832,-3.86151 33.10856,-4.52244 l 11.87317,-1.20167 -4.67099,6.80791 c -3.78166,5.51169 -6.82291,6.81224 -15.97312,6.83059 -6.21613,0.0131 -17.49287,0.73324 -25.05937,1.60169 -10.38402,1.19183 -14.58564,0.62588 -17.13548,-2.30814 z"
       id="path3197"
       inkscape:connector-curvature="0" />
  </g>
</svg>
