<?xml version="1.0" encoding="UTF-8" standalone="no"?>
<!-- Created with Inkscape (http://www.inkscape.org/) -->

<svg
   xmlns:dc="http://purl.org/dc/elements/1.1/"
   xmlns:cc="http://creativecommons.org/ns#"
   xmlns:rdf="http://www.w3.org/1999/02/22-rdf-syntax-ns#"
   xmlns:svg="http://www.w3.org/2000/svg"
   xmlns="http://www.w3.org/2000/svg"
   xmlns:sodipodi="http://sodipodi.sourceforge.net/DTD/sodipodi-0.dtd"
   xmlns:inkscape="http://www.inkscape.org/namespaces/inkscape"
   width="300"
   height="300"
   id="svg2"
   version="1.1"
   inkscape:version="0.48.4 r9939"
   sodipodi:docname="image-seal.svg">
  <defs
     id="defs4" />
  <sodipodi:namedview
     id="base"
     pagecolor="#ffffff"
     bordercolor="#666666"
     borderopacity="1.0"
     inkscape:pageopacity="0.0"
     inkscape:pageshadow="2"
     inkscape:zoom="1.979899"
     inkscape:cx="173.92428"
     inkscape:cy="155.81638"
     inkscape:document-units="px"
     inkscape:current-layer="layer1"
     showgrid="false"
     inkscape:window-width="1215"
     inkscape:window-height="1000"
     inkscape:window-x="65"
     inkscape:window-y="24"
     inkscape:window-maximized="1" />
  <metadata
     id="metadata7">
    <rdf:RDF>
      <cc:Work
         rdf:about="">
        <dc:format>image/svg+xml</dc:format>
        <dc:type
           rdf:resource="http://purl.org/dc/dcmitype/StillImage" />
        <dc:title />
      </cc:Work>
    </rdf:RDF>
  </metadata>
  <g
     inkscape:label="Calque 1"
     inkscape:groupmode="layer"
     id="layer1"
     transform="translate(0,-752.36218)">
    <path
       style="fill:#000000"
       d="m 81.973634,1046.1242 c -0.98537,-0.9854 -1.79161,-4.4082 -1.79161,-7.6062 0,-9.9642 21.373136,-42.83036 27.852896,-42.83036 1.8804,0 3.41889,-1.17269 3.41889,-2.60598 0,-1.43329 1.57889,-2.60599 3.50861,-2.60599 1.92973,0 7.20682,-1.84493 11.72692,-4.09983 10.46093,-5.21861 10.85449,-11.53605 0.71863,-11.53605 -4.12483,0 -11.58547,-1.70716 -16.57921,-3.79366 -10.27099,-4.29148 -13.116116,-13.11148 -10.12479,-31.38709 1.70444,-10.4134 1.7219,-10.42664 17.30344,-13.10515 14.95768,-2.57124 15.59724,-2.9987 15.59724,-10.42392 0,-6.97223 -0.90764,-7.81547 -9.12093,-8.47392 -9.60359,-0.76992 -20.84233,-5.29455 -24.06542,-9.68858 -2.768096,-3.77369 -2.424856,-23.28947 0.54708,-31.10627 1.77738,-4.67484 4.46864,-6.6846 8.95129,-6.6846 11.17377,0 19.03268,-4.48956 20.90292,-11.94118 1.10045,-4.38449 0.63078,-7.82222 -1.22539,-8.9694 -1.65532,-1.02305 -13.15708,-1.28863 -25.55944,-0.59015 -20.085216,1.13115 -23.055016,0.70779 -27.173066,-3.87371 -8.062466,-8.96987 -9.500243,-52.80501 -1.73198,-52.80501 5.872,0 8.92657,6.31078 8.09151,16.71714 -0.47838,5.96144 0.17564,14.89994 1.45359,19.86329 1.83633,7.13257 3.79405,9.19711 9.33921,9.84884 l 7.015846,0.82458 0.0399,-33.39935 c 0.0433,-36.31967 1.66869,-43.0454 8.70235,-36.01175 2.93251,2.93251 4.28765,8.78474 4.28765,18.5162 0,15.54507 3.34908,19.24601 12.82627,14.17396 4.2421,-2.27028 5.4156,-5.4196 5.4156,-14.53356 0,-9.63444 0.83926,-11.63523 4.88043,-11.63523 3.9821,0 5.12193,2.5137 6.19262,13.65669 0.72173,7.5112 0.75508,15.10868 0.074,16.8833 -0.68097,1.77459 -6.98575,3.989 -14.01057,4.92087 -12.96877,1.72039 -13.25767,2.04948 -13.47907,15.35577 -0.209,12.56451 0.45422,13.46089 9.17608,12.40101 4.65819,-0.5661 10.95385,-2.2377 13.99037,-3.7147 7.40979,-3.6042 15.0688,-1.83792 16.13957,3.72202 0.64623,3.35573 -0.86646,4.53055 -5.83354,4.53055 -7.12199,0 -8.20478,2.4753 -4.29028,9.8078 1.32866,2.48881 3.09283,6.68663 3.92041,9.32853 1.2865,4.107 3.29769,4.5656 13.87164,3.16303 10.57518,-1.40275 13.36749,-0.76574 19.27264,4.39663 13.72232,11.99627 8.43202,41.05953 -7.47398,41.05953 -2.84289,0 -8.86198,1.28741 -13.37572,2.8609 -6.66272,2.32264 -8.20684,4.28392 -8.20684,10.42393 0,8.14494 2.11478,8.75018 26.63193,7.62197 8.4,-0.38654 10.39758,0.70959 14.97465,8.21695 6.93314,11.37185 6.72648,22.67676 -0.56555,30.93826 -6.00806,6.80683 -22.08611,12.90548 -34.02312,12.90548 -15.12196,0 -9.12151,6.62943 11.78532,13.02068 18.03607,5.51368 46.47153,36.04063 42.70768,45.84903 -2.57744,6.7168 -9.05114,3.8042 -16.89966,-7.6032 -8.75117,-12.7194 -21.99016,-23.6429 -35.49133,-29.28404 l -9.11992,-3.81055 0,24.47269 c 0,18.2471 -0.96533,25.2739 -3.7948,27.6221 -5.72857,4.7543 -9.2351,0.9191 -9.2351,-10.1007 0,-20.9868 -3.33785,-41.92414 -6.68359,-41.92414 -8.31712,0 -25.85433,17.62694 -34.816156,34.99444 -9.04786,17.5342 -12.94008,21.7542 -16.64623,18.0481 z m 83.246606,-84.87059 c 0.69673,-1.12735 3.9926,-2.04971 7.32413,-2.04971 6.65149,0 9.55403,-7.76825 7.30277,-19.54486 -1.24433,-6.50941 -1.27156,-6.51496 -31.89429,-6.51496 -34.71259,0 -37.34437,1.27211 -36.01568,17.40851 0.77588,9.42291 1.37609,10.04003 11.24356,11.56029 14.21925,2.19074 40.48632,1.65386 42.03951,-0.85927 z m -0.043,-70.16593 c 6.28537,-2.9994 7.6484,-5.39881 8.31842,-14.64316 l 0.80134,-11.05596 -25.03608,0 c -36.49677,0 -45.06555,5.66577 -37.73373,24.94993 2.67869,7.04553 2.68502,7.04702 24.40617,5.69185 11.94975,-0.74549 25.10949,-2.96969 29.24388,-4.94266 z m 4.56998,-66.09001 c -12.41287,-18.69513 -14.65531,-37.26788 -5.61581,-46.51247 15.0665,-15.40838 37.79788,-23.30732 49.32302,-17.13928 7.10919,3.80474 3.07977,7.86071 -10.00731,10.0733 -9.42516,1.59345 -9.87039,2.1111 -9.19151,10.68671 0.57806,7.3023 3.95807,12.06939 17.81491,25.12586 16.80866,15.83777 20.57094,24.50506 11.40349,26.27056 -5.14721,0.99123 -23.41688,-16.92275 -23.41688,-22.96099 0,-2.60653 -2.34539,-5.48354 -5.21197,-6.39336 -2.86657,-0.90983 -5.21196,-3.85136 -5.21196,-6.53677 0,-2.68541 -1.17269,-5.60731 -2.60598,-6.49314 -1.43329,-0.88583 -2.60598,-3.92357 -2.60598,-6.75053 0,-6.27779 -6.57836,-9.24931 -11.47661,-5.18411 -7.7682,6.44704 -6.37017,18.13075 4.28303,35.79396 9.46818,15.69846 11.13685,24.35134 4.69601,24.35134 -1.46363,0 -6.94304,-6.449 -12.17645,-14.33108 z"
       id="path3171"
       inkscape:connector-curvature="0" />
  </g>
</svg>
