<?xml version="1.0" encoding="UTF-8" standalone="no"?>
<svg
   xmlns:dc="http://purl.org/dc/elements/1.1/"
   xmlns:cc="http://creativecommons.org/ns#"
   xmlns:rdf="http://www.w3.org/1999/02/22-rdf-syntax-ns#"
   xmlns:svg="http://www.w3.org/2000/svg"
   xmlns="http://www.w3.org/2000/svg"
   viewBox="0 0 300 300"
   height="300"
   width="300"
   id="svg32"
   version="1.1">
  <metadata
     id="metadata38">
    <rdf:RDF>
      <cc:Work
         rdf:about="">
        <dc:format>image/svg+xml</dc:format>
        <dc:type
           rdf:resource="http://purl.org/dc/dcmitype/StillImage" />
        <dc:title></dc:title>
      </cc:Work>
    </rdf:RDF>
  </metadata>
  <defs
     id="defs36" />
  <path
     id="path42"
     d="M 85.141321,282.20842 C 83.76858,279.31455 83.503587,231.6474 83.503587,231.6474 l 0.139143,-48.26576 c -18.412031,3.70058 -17.722775,44.87467 -17.839318,50.80657 -0.363878,21.12172 -0.733654,23.09161 -4.226809,24.48866 -6.265409,2.50578 -7.634303,-13.58669 -7.316489,-22.50171 0.45513,-12.76686 0.516438,-25.20022 4.049987,-37.58142 5.362509,-17.41416 11.521903,-23.19898 25.315675,-29.19997 l 0.08005,-13.10798 c -7.619786,-0.56986 -16.994339,-0.45712 -23.176108,-4.54334 -4.613812,-3.04978 -1.276974,-16.88649 2.035846,-24.31437 4.233005,-9.49108 10.263847,-17.56497 21.376582,-22.69431 l 0.08121,-10.670797 C 65.12125,93.299763 53.926366,89.454026 59.128937,71.38006 64.69372,57.602044 72.157377,48.441985 84.245735,42.350741 c 0.04473,-5.232696 0.05082,-0.458646 0.07028,-10.844809 0.0145,-7.712309 0.201862,-9.060351 1.709909,-12.299522 1.564669,-3.639253 2.657163,-3.919249 5.722321,-2.479084 3.807183,1.806627 4.331427,3.89907 3.889832,15.525707 l -0.379542,9.993328 c 12.821875,5.039181 20.947285,21.601982 24.921315,36.229945 3.30993,12.183463 -13.40438,14.873177 -24.59447,16.035157 l 0.0713,9.913737 c 11.30396,4.84598 22.92287,23.62013 24.68242,38.56621 1.39342,11.83614 -14.27228,11.59268 -24.496958,12.60769 l 0.04124,14.40359 c 27.450088,7.84258 30.323008,44.38789 30.219048,67.65017 -0.0858,6.88103 0.29664,22.25666 -6.53522,22.39575 -5.91624,0.12046 -2.62922,-39.05187 -8.84538,-59.43016 -2.34777,-7.69664 -6.31534,-14.90418 -14.62329,-17.40942 l -0.346469,78.81558 c -0.05908,13.43885 -0.508273,22.86876 -6.054233,22.95554 -3.967146,0.0621 -3.167273,0.15693 -4.556507,-2.77173 z M 107.45111,134.61516 c -4.54937,-12.14505 -8.88971,-19.20187 -17.588907,-19.28138 -9.732907,-0.089 -16.845514,12.23749 -20.069996,21.20924 -2.522126,7.01752 1.896245,8.05603 21.503272,8.46252 13.179951,-0.27275 19.451021,-1.59297 16.155631,-10.39038 z M 95.640633,83.202784 C 105.70056,81.810333 111.72613,82.092894 108.59561,73.467378 103.96143,60.698841 98.546905,51.985241 89.166966,52.092512 79.338231,52.204916 73.69213,61.993978 68.838812,72.815343 c -2.607539,5.81399 -0.733439,7.87428 6.620214,9.274542 3.694085,0.703417 12.785852,2.136588 20.181607,1.112899 z M 149.17364,278.10378 c -2.19702,-5.92495 3.31664,-9.70077 6.30894,-12.15814 19.78714,-16.23874 23.64774,-22.23944 25.13066,-38.42652 0.38619,-4.21555 2.58021,-16.33334 6.78488,-16.28414 4.00316,0.0468 5.30509,5.65533 6.44299,15.98158 1.46561,13.24462 2.25599,14.99881 9.12955,22.60494 2.65958,2.94304 8.3657,8.20182 12.43507,11.91638 3.53604,3.35562 12.74436,10.5135 9.63004,15.85567 -1.48261,2.54318 -5.64672,2.09742 -8.82723,-0.2704 -11.10775,-8.26947 -19.98519,-18.16271 -29.11146,-28.28273 -7.36835,9.03853 -16.46349,22.17485 -26.55598,27.28807 -4.61382,2.33754 -10.49034,4.14073 -11.36746,1.77529 z m 37.87232,-89.88295 c -1.31025,1.93402 -2.39235,3.91067 -3.85996,5.66042 -9.84332,11.73567 -28.44739,35.84712 -36.07067,27.35004 -2.0932,-2.33313 1.10133,-6.51406 7.28221,-11.9886 7.32005,-6.48352 17.02032,-17.25485 19.96537,-22.1699 4.47839,-7.47401 6.23253,-15.75413 6.26088,-29.55368 0.29324,-5.12884 2.4533,-21.77458 8.83951,-16.67338 3.55358,2.83854 4.28256,5.55427 5.04312,19.19887 1.11907,20.07641 2.54857,23.08536 20.08116,42.26879 7.00834,7.66822 10.45892,12.51246 11.75347,16.50055 1.18955,3.66466 -0.29637,5.51122 -4.74988,5.32676 -5.25908,-0.21781 -25.43677,-24.75661 -34.54521,-35.91987 z m -59.11395,11.905 c -1.67249,-4.35391 -0.91592,-6.64773 7.88341,-24.32289 4.31129,-8.65867 15.7751,-31.75662 15.9382,-46.81831 l -11.47513,-0.39442 c -13.60524,-0.46764 -15.72368,-0.74174 -15.76033,-6.84719 -0.0148,-2.4634 2.75297,-3.14376 14.54209,-3.57464 l 12.65829,-0.0439 c 0.21748,-13.18682 -4.76386,-25.186311 -6.13478,-38.164638 -0.61346,-6.16185 0.69275,-13.390061 3.21906,-17.813465 7.57198,-11.974069 20.23287,-17.374184 31.1001,-18.142851 1.02957,-16.481089 0.79185,-25.777747 4.37844,-28.208244 3.85253,-2.610711 7.58261,1.842228 7.77735,4.20907 l 1.29737,23.543865 c 8.64697,1.039682 16.01474,5.50581 21.23364,9.526617 8.3878,6.501945 12.45347,14.287092 12.47275,23.770661 0.0281,13.782129 -7.59569,27.094385 -7.27802,40.756395 0,0 18.77646,0.48713 23.38469,0.68835 2.23122,0.0974 3.07613,5.00691 2.37044,7.05942 -0.95001,2.7631 -12.06668,2.68632 -25.94393,2.98772 1.09826,15.33996 8.91498,31.6971 14.70887,43.83348 11.29499,23.65942 12.36914,27.63561 7.70644,28.80587 -3.47346,0.87179 -4.7101,0.0946 -7.79673,-4.89976 -12.65471,-22.43224 -25.98456,-51.70288 -26.48319,-67.0552 l -43.97813,-0.15909 c -0.83467,15.71822 -9.25247,30.7334 -13.54675,40.79845 -5.35283,12.53025 -10.56575,24.12886 -11.51077,25.81682 -1.77566,3.17158 -9.21798,8.67092 -10.76338,4.64785 z M 207.976,117.69536 c 0.66068,-14.79689 8.42967,-30.900084 7.83884,-45.579097 -0.33502,-8.323504 -16.55769,-18.187545 -29.62707,-18.577335 -14.8344,-0.442432 -30.65341,10.278358 -30.49927,18.968817 0.25665,14.468969 7.49394,31.223165 7.87575,45.123005 l 44.41175,0.0646 z"
     style="fill:#000000;stroke-width:0.69293088" />
</svg>
