<?xml version="1.0" encoding="UTF-8" standalone="no"?>
<!-- Created with Inkscape (http://www.inkscape.org/) -->

<svg
   xmlns:dc="http://purl.org/dc/elements/1.1/"
   xmlns:cc="http://creativecommons.org/ns#"
   xmlns:rdf="http://www.w3.org/1999/02/22-rdf-syntax-ns#"
   xmlns:svg="http://www.w3.org/2000/svg"
   xmlns="http://www.w3.org/2000/svg"
   xmlns:sodipodi="http://sodipodi.sourceforge.net/DTD/sodipodi-0.dtd"
   xmlns:inkscape="http://www.inkscape.org/namespaces/inkscape"
   width="300"
   height="300"
   id="svg2"
   version="1.1"
   inkscape:version="0.48.4 r9939"
   sodipodi:docname="image-seal.svg">
  <defs
     id="defs4" />
  <sodipodi:namedview
     id="base"
     pagecolor="#ffffff"
     bordercolor="#666666"
     borderopacity="1.0"
     inkscape:pageopacity="0.0"
     inkscape:pageshadow="2"
     inkscape:zoom="2.0018437"
     inkscape:cx="145.03351"
     inkscape:cy="130.6666"
     inkscape:document-units="px"
     inkscape:current-layer="layer1"
     showgrid="false"
     inkscape:window-width="1215"
     inkscape:window-height="1000"
     inkscape:window-x="65"
     inkscape:window-y="24"
     inkscape:window-maximized="1"
     fit-margin-top="10"
     fit-margin-left="10"
     fit-margin-right="10"
     fit-margin-bottom="10" />
  <metadata
     id="metadata7">
    <rdf:RDF>
      <cc:Work
         rdf:about="">
        <dc:format>image/svg+xml</dc:format>
        <dc:type
           rdf:resource="http://purl.org/dc/dcmitype/StillImage" />
        <dc:title />
      </cc:Work>
    </rdf:RDF>
  </metadata>
  <g
     inkscape:label="Calque 1"
     inkscape:groupmode="layer"
     id="layer1"
     transform="translate(0,-752.36218)">
    <path
       style="fill:#000000"
       d="m 96.326472,1023.3732 c -1.74015,-70.94166 -1.62215,-69.38326 -5.24672,-69.29104 -1.78296,0.0454 -5.51155,1.79915 -8.28572,3.89732 -4.40054,3.32817 -5.31536,8.68223 -7.17126,41.9701 -1.94689,34.92012 -4.31135,46.01422 -8.84148,41.48412 -0.93096,-0.9308 -1.73165,-17.775 -1.77931,-37.4314 -0.10037,-41.32463 3.58048,-53.54463 18.18555,-60.37622 5.4565,-2.5523 8.87987,-6.37926 9.95465,-11.1282 1.73312,-7.65786 -2.15911,-14.80585 -8.06209,-14.80585 -4.57409,0 -6.7838,-4.00451 -9.1916,-16.65729 -3.2563,-17.11146 -0.13589,-30.03318 8.42919,-34.90471 6.04378,-3.43756 7.3806,-5.95451 7.39403,-13.92148 0.013,-7.59668 -0.99254,-9.72526 -4.59336,-9.72526 -2.53539,0 -7.20352,-1.81674 -10.37362,-4.03716 -4.90993,-3.43906 -5.75821,-6.41673 -5.72564,-20.09889 0.0472,-19.80762 4.13093,-28.74625 13.63724,-29.84936 6.60647,-0.76664 7.07177,-1.6416 7.07177,-13.29784 0,-8.01494 1.41364,-13.65044 3.95279,-15.75773 5.363838,-4.45161 7.260468,-1.91604 10.357408,13.8465 2.05899,10.47971 3.80567,13.60448 7.93798,14.2007 7.81398,1.12746 13.12307,12.7831 13.67689,30.0265 0.54474,16.96092 -1.74282,21.28936 -12.49988,23.652 -4.51257,0.99113 -7.89624,3.74898 -8.78918,7.16361 -1.42837,5.46205 2.08131,12.3055 6.3109,12.3055 1.1869,0 5.22872,3.07075 8.98189,6.8239 14.74055,14.74057 10.22261,47.77656 -7.00507,51.22208 -6.16146,1.2323 -7.3633,2.76641 -7.3633,9.39909 0,5.1755 1.57511,8.51366 4.53846,9.61842 8.37359,3.12171 21.39559,19.57082 21.39559,27.02644 0,3.9162 1.0162,7.74842 2.25826,8.51605 5.04609,3.11867 8.72084,51.2403 4.62542,60.5708 -3.92517,8.9429 -8.11007,5.4016 -8.7675,-7.4194 -1.1695,-22.8072 -5.36918,-49.18414 -8.41539,-52.85461 -1.7129,-2.06391 -2.46719,-4.7997 -1.6762,-6.07952 2.65433,-4.2948 -4.53483,-18.64749 -9.34041,-18.64749 -5.17488,0 -5.31191,1.78178 -4.63718,60.29672 0.26585,23.0565 -0.50494,33.0658 -2.54634,33.0658 -1.61019,0 -2.20636,1.1673 -1.32481,2.5934 0.88155,1.4264 -0.21655,2.5934 -2.44035,2.5934 -3.328138,0 -4.147238,-4.2423 -4.631608,-23.989 z M 112.64583,904.63377 c 3.88202,-2.07761 5.01632,-5.47891 5.01632,-15.04175 0,-14.16489 -3.20526,-18.58128 -13.4857,-18.58128 -11.461268,0 -17.635158,8.1713 -17.635158,23.34064 l 0,12.96703 10.54411,0 c 5.799268,0 12.801468,-1.20809 15.560428,-2.68464 z m -7.0149,-72.1928 c 5.88353,-2.31339 11.81418,-18.45135 10.09187,-27.46104 -1.17473,-6.14523 -2.25818,-6.58453 -16.239348,-6.58453 -17.10553,0 -18.12897,1.17248 -18.12897,20.76918 0,9.7857 1.00383,12.82709 4.53846,13.75078 6.91651,1.80747 14.391558,1.62783 19.737988,-0.47439 z m 62.95929,191.23143 c -10.21773,-8.8134 -12.59677,-21.2309 -13.73229,-71.67608 -0.87514,-38.87709 -0.47174,-45.00048 3.05374,-46.35333 6.48164,-2.48723 7.60414,0.79711 6.82182,19.95993 l -0.73583,18.02316 7.67565,0 c 4.2216,0 8.30359,1.63643 9.07111,3.63655 1.91717,4.99606 -0.42234,6.73706 -9.05301,6.73706 -8.65899,0 -8.89475,1.73331 -4.32227,31.77401 3.54791,23.3092 7.21866,27.9123 23.74457,29.775 16.98226,1.9141 19.91102,-3.6002 19.91102,-37.48872 0,-28.90002 0.66017,-27.80877 -16.20878,-26.79319 -7.39621,0.44529 -9.72527,-0.39951 -9.72527,-3.5276 0,-3.05903 2.61776,-4.11311 10.21472,-4.11311 l 10.2147,0 1.5972,-12.31868 c 2.79605,-21.56507 3.71995,-23.98899 9.14364,-23.98899 5.49701,0 5.39745,-0.80074 6.61046,53.1648 0.22433,9.98461 0.71762,24.13972 1.09597,31.45579 0.78428,15.1655 -4.85796,27.3363 -14.76539,31.8504 -3.3838,1.5418 -12.30558,3.5265 -19.82619,4.4103 -11.95301,1.4049 -14.56884,0.8351 -20.78557,-4.5273 z m 56.68817,-131.1309 c -9.32915,-4.70698 -27.18251,-16.37792 -31.94439,-20.88241 -5.06241,-4.78875 -6.4685,-4.30873 -24.68937,8.42857 -15.43297,10.7884 -25.04843,14.50911 -25.04843,9.69246 0,-1.08783 3.20934,-4.2877 7.13186,-7.11086 18.28289,-13.15865 22.69634,-20.22908 25.71748,-41.19976 3.2325,-22.43783 4.24351,-24.46266 9.87916,-19.78548 2.66776,2.21404 3.95279,7.9339 3.95279,17.59428 0,12.42008 0.99706,15.2666 7.53641,21.51595 4.14501,3.96122 14.63616,10.50625 23.31364,14.54452 12.24495,5.69846 15.78328,8.61443 15.80424,13.02439 0.0371,7.81883 -2.57891,8.75684 -11.65339,4.17834 z m -86.869,-67.86438 c 0,-1.28949 3.10843,-4.38127 6.90764,-6.8706 9.10031,-5.96276 22.86901,-19.83382 26.59129,-26.78902 1.63338,-3.05197 3.52667,-11.05273 4.20734,-17.77947 2.16474,-21.39344 7.55082,-21.11187 9.94687,0.52003 1.52051,13.72751 3.98695,19.45053 8.38253,19.45053 1.98694,0 3.61264,1.16704 3.61264,2.59341 0,1.42637 2.82033,2.5934 6.26741,2.5934 3.44705,0 6.65639,0.99198 7.13186,2.2044 0.47545,1.21241 6.1161,3.92965 12.53478,6.0383 12.51562,4.11158 17.57753,13.49151 9.04725,16.76488 -4.80589,1.8442 -24.17707,-8.00145 -29.05311,-14.76658 -1.73177,-2.40274 -6.87086,-5.11306 -11.42019,-6.02293 -6.59503,-1.319 -10.86704,0.0104 -21.07779,6.56352 -7.04348,4.51979 -14.1698,9.58126 -15.83624,11.2477 -3.98702,3.98702 -17.24228,7.25614 -17.24228,4.25243 z"
       id="path3132"
       inkscape:connector-curvature="0" />
  </g>
</svg>
