<?xml version="1.0" encoding="UTF-8" standalone="no"?>
<svg
   xmlns:dc="http://purl.org/dc/elements/1.1/"
   xmlns:cc="http://creativecommons.org/ns#"
   xmlns:rdf="http://www.w3.org/1999/02/22-rdf-syntax-ns#"
   xmlns:svg="http://www.w3.org/2000/svg"
   xmlns="http://www.w3.org/2000/svg"
   xmlns:sodipodi="http://sodipodi.sourceforge.net/DTD/sodipodi-0.dtd"
   xmlns:inkscape="http://www.inkscape.org/namespaces/inkscape"
   sodipodi:docname="綠-seal.svg"
   inkscape:version="1.0beta2 (2b71d25, 2019-12-03)"
   version="1.1"
   id="svg2"
   viewBox="0 0 300 300"
   height="300"
   width="300">
  <defs
     id="defs4">
    <clipPath
       id="clipPath4204"
       clipPathUnits="userSpaceOnUse">
      <rect
         y="794.64594"
         x="164.41942"
         height="21.584471"
         width="15.451179"
         id="rect4206"
         style="fill:#0000ff;fill-rule:evenodd;stroke:#000000;stroke-width:1px;stroke-linecap:butt;stroke-linejoin:miter;stroke-opacity:1" />
    </clipPath>
  </defs>
  <sodipodi:namedview
     inkscape:document-rotation="0"
     showguides="false"
     units="px"
     inkscape:window-maximized="0"
     inkscape:window-y="23"
     inkscape:window-x="0"
     inkscape:window-height="855"
     inkscape:window-width="1440"
     showgrid="false"
     inkscape:current-layer="layer1"
     inkscape:document-units="px"
     inkscape:cy="150"
     inkscape:cx="150"
     inkscape:zoom="1.71"
     inkscape:pageshadow="2"
     inkscape:pageopacity="0.0"
     borderopacity="1.0"
     bordercolor="#666666"
     pagecolor="#ffffff"
     id="base" />
  <metadata
     id="metadata7">
    <rdf:RDF>
      <cc:Work
         rdf:about="">
        <dc:format>image/svg+xml</dc:format>
        <dc:type
           rdf:resource="http://purl.org/dc/dcmitype/StillImage" />
        <dc:title></dc:title>
      </cc:Work>
    </rdf:RDF>
  </metadata>
  <g
     transform="translate(0,-752.36216)"
     id="layer1"
     inkscape:groupmode="layer"
     inkscape:label="Layer 1">
    <path
       sodipodi:nodetypes="csscccccscccccccccccccccccccccccccscscsccccsscscccsccccccccccccccccscscccccccccccccscccssccssccccscccccsccssscsscscsccccccsscsccccscsccccccccccsscsccscccscccsscscccccccccccccccccccccccccccccsccscc"
       inkscape:connector-curvature="0"
       id="path83"
       d="m 173.16008,1035.0617 c -2.31228,-3.7413 -3.06784,-8.9288 -2.58462,-17.7453 0.24064,-4.3905 0.77644,-28.84532 1.19066,-54.34412 l 0.75316,-46.36146 2.12597,-5.06468 c 1.75473,-4.18029 2.89015,-5.7356 6.5021,-8.90673 5.11006,-4.48637 6.92665,-7.15921 7.56071,-11.12431 0.42172,-2.63733 0.26822,-3.05246 -1.87244,-5.06373 -3.47846,-3.26824 -8.26718,-6.18673 -10.15128,-6.18673 -1.0037,0 -3.06406,1.25699 -5.18279,3.16189 -4.8518,4.36219 -15.66886,11.45517 -22.18575,14.54769 -4.24937,2.0165 -6.5203,2.64649 -10.44836,2.89859 l -5.01889,0.3221 -0.73453,-2.89386 c -0.72965,-2.87459 -0.7166,-2.90681 1.96415,-4.84875 1.48429,-1.07522 6.872,-4.00472 11.97269,-6.51002 13.45231,-6.60738 20.97044,-13.19894 26.66053,-23.37471 l 2.17742,-3.89394 -1.57501,-0.42197 c -0.86625,-0.23208 -6.64569,-0.42623 -12.84319,-0.43142 -11.86245,-0.01 -14.50258,-0.52492 -16.98512,-3.31304 -0.75837,-0.85171 -1.17313,-2.19267 -1.03809,-3.35627 0.37264,-3.21103 4.13502,-3.90896 18.23172,-3.38202 7.2707,0.27177 12.47221,0.17643 13.59152,-0.24913 1.65438,-0.629 1.92986,-1.31484 3.14473,-7.82928 l 1.33149,-7.13988 -2.81198,-1.31735 c -1.66114,-0.77821 -6.1145,-1.68105 -10.88154,-2.20604 -10.64812,-1.1727 -14.28136,-2.895 -16.3753,-7.76251 -4.38033,-10.18232 -4.38958,-39.60364 -0.0163,-50.80446 0.72629,-1.86009 0.76279,-1.86963 3.2549,-0.85091 4.75745,1.94475 5.12888,2.95632 4.57996,12.47349 -0.33756,5.85243 -0.24371,8.84934 0.30946,9.88296 l 0.79389,1.48345 h 32.57088 c 35.43766,0 36.14317,0.0721 37.87461,3.87225 1.32158,2.90054 0.92043,3.75705 -2.49933,5.33645 -3.0348,1.40161 -4.45031,1.52779 -18.42957,1.64281 -8.32825,0.0686 -15.38718,0.37995 -15.68649,0.69206 -0.29932,0.31212 -0.76251,4.01694 -1.02935,8.23296 l -0.48513,7.6655 3.43096,1.47596 c 4.40181,1.8936 8.71405,2.87852 12.6963,2.89983 7.82597,0.0418 15.17429,4.29931 18.22552,10.55938 3.32028,6.81208 4.59014,13.65497 5.34642,28.80997 0.38678,7.75076 0.59033,16.62642 0.45235,19.72371 -0.13794,3.09729 0.28702,32.9792 0.94444,66.40426 0.81299,41.33345 0.99259,63.91311 0.56148,70.59011 -0.52864,5.5527 0.94666,13.1516 -3.94034,14.2103 -3.75501,0.8009 -3.78672,0.7754 -5.46391,-4.3931 -1.21566,-3.7462 -1.53593,-17.2148 -2.99508,-125.95483 -0.37285,-27.78618 -0.99063,-52.22064 -1.37286,-54.2988 -1.90775,-10.37246 -3.85967,-13.26788 -10.4213,-15.45858 -3.41892,-1.14145 -16.44436,-2.95861 -17.02748,-2.37548 -0.76412,0.76413 -2.19339,12.63505 -1.59711,13.26496 0.338,0.35707 4.7952,0.72076 9.90487,0.80823 5.16658,0.0885 9.92848,0.50054 10.72802,0.92842 1.70927,0.91479 3.77245,4.63006 3.28157,5.90929 -0.76713,1.99909 -7.42693,3.46319 -15.7687,3.46658 -7.07339,0.003 -8.24667,0.17219 -9.61391,1.38738 -1.52001,1.35098 -4.80118,7.5375 -4.81464,9.07783 -0.003,0.42522 1.25726,1.60961 2.80217,2.63199 4.18269,2.76796 10.70624,9.67167 12.35243,13.07224 1.70741,3.52705 1.93775,9.77192 0.48432,13.13044 -0.53008,1.22482 -4.24035,5.89961 -8.24507,10.3884 l -7.28133,8.16143 -0.42732,5.67975 c -0.23504,3.12387 -0.49545,29.03678 -0.57871,57.58426 -0.14512,49.76899 -0.20588,51.99459 -1.47684,54.09469 -1.2894,2.1306 -3.64577,3.6922 -5.57123,3.6922 -0.52199,0 -1.58886,-1.0351 -2.37083,-2.3004 z m 7.38705,-222.09985 -0.19568,-7.78568 -10.86532,-0.19041 -10.8653,-0.19042 -0.45417,2.42091 c -0.50393,2.68611 0.6449,8.3477 2.08683,10.28424 0.69785,0.93722 2.7294,1.48232 8.09265,2.17136 3.93849,0.506 8.33895,0.95503 9.77878,0.99784 l 2.61789,0.0779 z M 97.294359,1033.0368 c -1.09245,-2.6814 -1.193864,-6.6096 -1.147947,-44.46482 0.02769,-22.83798 -0.167575,-44.55885 -0.433963,-48.2686 l -0.48433,-6.74503 -2.139385,1.30461 c -2.405945,1.46714 -7.256481,10.27226 -10.201174,18.51806 -3.330862,9.32715 -4.095202,15.2099 -4.542743,34.96326 -0.414971,18.31582 -0.431099,18.47162 -2.095958,20.24272 -1.84806,1.966 -4.928687,2.3761 -6.214123,0.8273 -1.605121,-1.9341 -2.835032,-11.58754 -2.835032,-22.25191 0,-20.0888 3.522289,-37.98898 9.984694,-50.74192 2.18287,-4.30768 12.074914,-12.79885 16.206461,-13.91135 l 2.875349,-0.77427 v -7.48752 -7.48754 l -9.51072,-1.89766 c -10.379858,-2.07107 -12.472914,-2.87731 -14.647914,-5.64237 -3.262744,-4.14791 -3.265064,-10.05401 -0.0078,-20.06572 1.153969,-3.547 2.38538,-5.30194 7.674827,-10.93782 4.482885,-4.77647 7.453211,-7.29493 10.29692,-8.73042 l 3.996595,-2.01747 0.486913,-5.19606 c 0.267799,-2.85783 0.325898,-5.61564 0.12911,-6.12845 -0.213134,-0.55543 -3.949681,-1.72179 -9.24182,-2.88486 -9.703663,-2.13258 -11.703369,-3.18734 -14.088517,-7.43114 -1.395322,-2.48264 -1.528536,-3.44877 -1.208193,-8.76229 0.567358,-9.41073 2.278624,-13.03838 9.785418,-20.74384 4.168621,-4.27894 7.629777,-7.1422 10.229325,-8.46224 2.160915,-1.09732 4.18519,-2.39136 4.498388,-2.87567 0.313204,-0.48432 0.742794,-6.01911 0.954646,-12.29954 0.512885,-15.20474 1.64947,-17.3554 7.338694,-13.88636 2.92716,1.78486 3.25823,3.21238 2.55948,11.036 -1.21104,13.5595 -1.02692,14.05686 7.32079,19.77611 7.6001,5.20701 11.40961,9.61266 13.97363,16.16032 2.11367,5.3976 2.34217,18.84498 0.37136,21.85428 -1.72291,2.63075 -7.41174,5.09969 -15.14262,6.57188 l -6.42563,1.22364 -0.20015,5.2013 -0.20014,5.2013 2.62236,1.74219 c 7.33411,4.87251 15.05888,13.17785 18.21639,19.58547 2.64711,5.37185 3.61743,10.60803 3.05207,16.47015 -0.39384,4.08369 -0.74111,4.97615 -2.62935,6.7572 -3.46825,3.27136 -7.27591,4.80106 -11.95062,4.80106 -6.15244,0 -6.4232,0.37626 -6.64579,9.23496 l -0.18859,7.50481 4.67195,1.86455 c 7.43846,2.96864 14.12787,10.3931 17.07064,18.9464 0.73308,2.13075 2.30757,10.04699 3.49885,17.59165 1.19128,7.54467 2.30673,14.13495 2.47876,14.64514 0.21641,0.64189 1.34463,0.0637 3.66202,-1.87652 4.67175,-3.91139 12.83454,-8.83481 16.86988,-10.17515 3.26969,-1.08602 9.76298,-1.70016 10.43489,-0.98696 0.17929,0.19033 0.53703,1.62442 0.79494,3.18686 l 0.46897,2.84084 -11.9819,6.94346 -11.98189,6.9435 -3.94535,-0.35136 c -3.8284,-0.34098 -3.95927,-0.29593 -4.41461,1.51818 -0.25807,1.02826 -0.0757,5.72941 0.40532,10.44705 1.27654,12.52001 0.39731,15.69611 -4.60503,16.63451 -5.16443,0.9689 -5.83331,-1.6444 -6.4821,-25.32505 -0.64922,-23.69682 -1.69381,-29.5552 -7.0676,-39.63746 -2.1167,-3.97134 -9.6521,-12.31288 -10.02123,-11.09331 -0.0926,0.30604 -0.25394,22.45987 -0.35849,49.23073 l -0.19008,48.67439 -2.26011,2.019 c -1.38654,1.2386 -3.02933,2.0191 -4.25023,2.0191 -1.691968,0 -2.169641,-0.4407 -3.18843,-2.9413 z M 110.02941,896.14637 c 2.43122,-0.3945 5.4502,-1.14753 6.70883,-1.67342 l 2.28843,-0.95617 -1.41668,-5.06895 c -2.23591,-8.00014 -5.25738,-14.67244 -7.68913,-16.97984 -2.90326,-2.75482 -6.13309,-4.35249 -8.79887,-4.35249 -5.680891,0 -15.46918,8.02888 -18.325374,15.03145 -1.94814,4.77628 -2.271981,9.26756 -0.776096,10.76345 1.069932,1.06994 8.033152,2.42461 16.685115,3.24606 3.035585,0.28821 5.830685,0.56522 6.211315,0.61558 0.38064,0.0504 2.68124,-0.23119 5.11246,-0.62567 z m 4.23035,-62.48948 3.80633,-0.79833 -0.11458,-3.31682 c -0.14988,-4.33839 -2.44628,-11.68195 -5.07371,-16.22497 -2.39934,-4.14862 -7.81196,-7.7772 -11.61717,-7.78807 -3.094986,-0.008 -8.023807,2.64099 -12.663913,6.80839 -3.077598,2.76408 -4.316772,4.55025 -6.093898,8.78389 -1.608852,3.83275 -2.10681,5.87853 -1.786192,7.33827 0.7235,3.29408 1.734053,3.66371 15.549578,5.68752 3.776985,0.55327 14.398735,0.26412 17.993545,-0.48988 z m 92.04393,146.03706 c -5.5781,-2.31327 -17.40361,-9.24605 -19.20466,-11.25884 -1.93884,-2.16677 -1.94834,-3.0552 -0.0584,-5.45783 1.39576,-1.77443 1.74979,-1.8758 5.15413,-1.47567 2.01048,0.23628 5.92961,1.24035 8.70918,2.23126 9.54976,3.40445 15.00057,7.41408 17.79553,13.09042 4.56164,6.24924 -9.89407,3.82636 -12.39576,2.87066 z M 139.76418,946.4093 c -1.44513,-3.17168 -0.17629,-6.37392 3.76837,-9.51059 5.79954,-4.61159 11.83465,-7.16673 16.70237,-7.07144 3.36242,0.0658 4.33325,0.36153 5.36347,1.6338 1.44759,1.78771 1.66069,5.0711 0.39282,6.0528 -0.99903,0.77353 -24.12746,10.58836 -24.92898,10.57891 -0.29362,-0.003 -0.87776,-0.76103 -1.29805,-1.68348 z m 60.65701,-3.47868 c -10.7971,-4.95828 -12.55011,-6.47399 -11.84355,-10.24029 0.62612,-3.33752 3.58652,-4.21202 9.83382,-2.90492 11.01925,2.30554 18.25791,7.67354 18.26857,13.54751 0.005,2.39723 -0.13713,2.54876 -3.07015,3.28729 -1.69108,0.42581 -3.17035,0.77096 -3.28729,0.76697 -0.11688,-0.003 -4.57256,-2.00942 -9.9014,-4.45656 z"
       style="fill:#000000;stroke-width:0.692059" />
  </g>
</svg>
