<?xml version="1.0" encoding="UTF-8" standalone="no"?>
<svg
   xmlns:dc="http://purl.org/dc/elements/1.1/"
   xmlns:cc="http://creativecommons.org/ns#"
   xmlns:rdf="http://www.w3.org/1999/02/22-rdf-syntax-ns#"
   xmlns:svg="http://www.w3.org/2000/svg"
   xmlns="http://www.w3.org/2000/svg"
   version="1.1"
   id="svg175"
   width="300"
   height="300"
   viewBox="0 0 300 300">
  <metadata
     id="metadata181">
    <rdf:RDF>
      <cc:Work
         rdf:about="">
        <dc:format>image/svg+xml</dc:format>
        <dc:type
           rdf:resource="http://purl.org/dc/dcmitype/StillImage" />
        <dc:title></dc:title>
      </cc:Work>
    </rdf:RDF>
  </metadata>
  <defs
     id="defs179" />
  <path
     style="fill:#000000;stroke-width:0.69001007"
     d="m 82.408744,278.24817 -0.152769,-94.88319 c -18.043174,3.97163 -16.241052,35.40507 -16.559952,51.26379 -0.366994,18.25033 0.120859,23.97152 -6.197683,24.00952 -4.325061,0.026 -4.619621,-12.17898 -4.780852,-27.2756 -0.255995,-23.96976 2.629989,-55.11339 27.4757,-61.50973 l 0.01986,-13.78481 c -8.647199,-0.66138 -21.54287,-2.23095 -24.047629,-10.59046 -5.488517,-18.31764 11.975378,-35.23995 23.822546,-38.1704 l 0.05411,-12.071585 C 70.658471,94.325895 56.143865,92.464896 56.00774,77.344561 55.867785,61.798654 70.152842,46.934423 81.847774,43.037402 l -0.001,-19.162884 c -4.42e-4,-8.104286 10.340679,-7.842311 10.478473,-0.916862 l -0.0061,20.305064 c 13.507653,4.704623 22.777273,19.83272 22.844293,32.72505 0.0728,14.00063 -10.71593,18.056885 -22.460063,18.971165 l 0.149689,12.121445 c 13.972424,3.6821 26.795214,22.41552 20.647744,38.16099 -2.82364,7.23217 -10.8018,8.96704 -20.255154,10.4251 l 0.112323,14.26426 c 27.009391,6.81317 27.845201,40.90744 27.876191,61.938 0.0224,15.19153 0.16844,26.84651 -5.72543,26.77858 -5.21701,-0.0601 -4.89985,-7.3431 -5.26405,-25.39856 -0.43998,-21.81233 -3.187,-47.59862 -16.736271,-51.06058 l 0.447835,95.33226 c 0.0283,5.53972 -3.348856,7.64535 -6.685755,7.46947 -2.766788,-0.14582 -4.871191,-2.54111 -4.861741,-6.74173 z M 103.93041,137.92561 c 0.86391,-9.5604 -9.51561,-20.65967 -17.625875,-20.85515 -7.90471,-0.19053 -19.042922,10.54507 -18.081819,20.97361 0.580044,6.29383 12.660108,7.72879 19.498513,7.75282 7.426718,0.0261 15.672831,-1.93575 16.209181,-7.87128 z m 0.38851,-60.819144 C 104.29112,66.56726 96.160622,53.75134 86.264877,53.753294 c -9.904246,0.002 -18.076975,12.18903 -18.315517,23.049927 -0.168645,7.678445 13.010755,7.824709 17.864462,7.795759 6.398888,-0.03817 18.524228,-0.242798 18.505098,-7.492514 z m 48.00549,178.567604 c 7.31158,-29.44197 10.00597,-57.03428 2.3428,-82.0123 -3.3042,9.74949 -5.85033,15.07383 -14.78039,27.1947 -8.64338,11.73174 -20.25455,7.217 -11.94305,-4.37063 12.64796,-17.63338 16.40795,-25.02781 19.72072,-39.31233 -4.49924,-10.82481 -13.47149,-18.40509 -19.21828,-24.10103 -4.63904,-4.598 -10.47349,-8.87665 -7.89222,-12.28771 3.61509,-4.77721 9.69398,-0.34839 12.30372,1.2429 6.95766,4.94305 13.66749,10.91028 18.71391,18.18282 3.19698,-13.32046 4.67042,-33.08875 -1.19626,-49.163787 l -11.0518,5.876002 c -6.11946,3.253585 -10.58604,5.789515 -12.92202,1.92901 -2.56989,-4.2471 2.5389,-7.961123 8.71908,-12.072996 l 11.0706,-7.365619 c -5.60369,-13.650588 -7.96536,-20.02024 -11.83851,-27.555323 -2.62642,-5.315681 -1.23821,-8.37805 1.76957,-9.716075 3.38751,-1.506952 7.35918,1.676322 9.46196,5.846964 4.0656,8.063697 7.76377,17.206129 11.16935,25.757945 12.17518,-7.690383 18.16322,-11.284886 19.61083,-14.042315 1.30251,-2.481036 0.86364,-5.775395 1.08869,-19.893042 0.10294,-6.457957 -0.69224,-24.96894 5.25583,-24.810239 6.13104,0.163584 6.02444,17.654618 5.97314,24.699908 -0.10939,15.024946 -0.0358,17.779301 0.5721,19.02942 2.42719,4.991352 4.8322,6.043196 19.28055,15.074829 2.03484,-7.701826 4.22457,-13.757256 9.45296,-24.733472 1.79325,-3.764685 5.36148,-8.332462 8.81046,-6.907388 3.67851,1.519918 3.59815,6.04368 1.45599,11.851353 -3.51954,9.541898 -7.48353,19.563804 -8.98286,25.920872 l 15.16404,8.926202 c 11.53389,6.789346 5.36913,15.237031 -4.04278,10.418056 l -14.17365,-7.256998 c -3.67145,13.428373 -5.24825,36.029843 -2.71034,48.390393 3.26568,-4.72009 11.42925,-13.11916 19.73926,-18.69399 11.77756,-7.90105 16.10809,2.16235 7.60203,8.02119 -9.26842,6.38394 -16.9506,14.20577 -24.08454,27.35178 5.25202,15.08046 10.58477,25.2862 19.90215,37.69463 8.96709,11.94193 0.35126,18.67962 -10.1393,5.62861 -9.08294,-11.29985 -13.006,-17.65804 -17.25785,-26.847 -9.40297,25.44258 -7.60797,50.95888 2.63217,80.37964 5.51843,15.85489 4.73845,20.7003 -0.56271,20.7003 -4.07976,0 -7.66782,-6.58629 -11.37686,-19.66529 -11.00367,-38.80164 -10.95328,-66.7636 4.09231,-98.9565 -6.63259,-25.37032 -3.41454,-52.24511 1.05657,-70.066063 L 182.75315,72.476401 161.03649,85.606492 c 6.91016,17.707088 6.47775,46.049288 -0.6232,70.570748 14.259,30.76238 13.18489,59.47015 5.99498,91.27852 -1.8152,8.0305 -6.79837,29.85154 -13.78701,28.55532 -6.32383,-1.17293 -1.41331,-15.84128 -0.29685,-20.33701 z"
     id="path185" />
</svg>
