<?xml version="1.0" encoding="UTF-8" standalone="no"?>
<!-- Created with Inkscape (http://www.inkscape.org/) -->

<svg
   xmlns:dc="http://purl.org/dc/elements/1.1/"
   xmlns:cc="http://creativecommons.org/ns#"
   xmlns:rdf="http://www.w3.org/1999/02/22-rdf-syntax-ns#"
   xmlns:svg="http://www.w3.org/2000/svg"
   xmlns="http://www.w3.org/2000/svg"
   xmlns:sodipodi="http://sodipodi.sourceforge.net/DTD/sodipodi-0.dtd"
   xmlns:inkscape="http://www.inkscape.org/namespaces/inkscape"
   width="300"
   height="300"
   id="svg2"
   version="1.1"
   inkscape:version="0.91 r13725"
   sodipodi:docname="image-seal.svg">
  <defs
     id="defs4" />
  <sodipodi:namedview
     id="base"
     pagecolor="#ffffff"
     bordercolor="#666666"
     borderopacity="1.0"
     inkscape:pageopacity="0.0"
     inkscape:pageshadow="2"
     inkscape:zoom="2.77"
     inkscape:cx="150"
     inkscape:cy="150"
     inkscape:document-units="px"
     inkscape:current-layer="layer1"
     showgrid="false"
     inkscape:window-width="1231"
     inkscape:window-height="1000"
     inkscape:window-x="49"
     inkscape:window-y="24"
     inkscape:window-maximized="1"
     showguides="true"
     inkscape:guide-bbox="true" />
  <metadata
     id="metadata7">
    <rdf:RDF>
      <cc:Work
         rdf:about="">
        <dc:format>image/svg+xml</dc:format>
        <dc:type
           rdf:resource="http://purl.org/dc/dcmitype/StillImage" />
        <dc:title />
      </cc:Work>
    </rdf:RDF>
  </metadata>
  <g
     inkscape:label="Calque 1"
     inkscape:groupmode="layer"
     id="layer1"
     transform="translate(0,-752.36218)">
    <path
       style="fill:#000000"
       d="m 156.48724,1044.2613 c -0.49715,-1.4894 -0.29378,-10.3007 0.45197,-19.5807 l 1.35587,-16.8726 12.88084,0.8032 12.88084,0.8032 0,-12.40771 c 0,-12.37243 -0.0271,-12.40773 -9.49114,-12.40773 -7.54843,0 -9.49115,1.06475 -9.49115,5.20172 0,7.67177 -2.93216,13.96442 -5.70766,12.24912 -3.45724,-2.1367 -3.01201,-37.60707 0.57072,-45.47033 1.6491,-3.61935 7.3462,-8.87025 12.66025,-11.66866 12.78707,-6.73377 14.02683,-11.45722 3.55676,-13.55124 -4.60258,-0.92053 -8.36832,-2.74142 -8.36832,-4.04646 0,-1.30502 -2.19544,-2.37278 -4.87874,-2.37278 -6.81549,0 -12.31178,-16.35858 -10.03135,-29.85626 1.6262,-9.62544 3.19441,-11.29813 16.48889,-17.58742 8.08045,-3.82269 14.69174,-8.68767 14.69174,-10.81105 0,-3.47091 -14.98334,-9.48504 -23.72787,-9.52403 -3.44736,-0.0162 -3.62933,-0.61177 -4.55484,-14.9298 -0.28921,-4.47439 -1.0606,-9.89321 -1.71417,-12.04185 -0.65358,-2.14859 0.82867,-4.35076 3.29386,-4.89369 3.37677,-0.74363 4.93383,1.6861 6.31347,9.85193 3.66607,21.69935 16.95416,22.63673 21.70685,1.53124 2.15006,-9.5479 6.18364,-16.9293 13.33657,-24.40581 17.1003,-17.87387 17.56405,-26.1978 1.65422,-29.69221 -7.90229,-1.73563 -19.01984,4.65563 -19.01984,10.93411 0,5.78048 -26.15847,25.66636 -33.76228,25.66636 -4.95705,0 0.51056,-8.10962 13.99859,-20.76283 l 15.48912,-14.53049 -6.67591,-4.56814 c -7.0375,-4.81556 -10.63307,-8.96137 -10.70206,-12.33984 -0.062,-3.0452 12.93836,-2.45263 14.87315,0.67793 0.92178,1.49148 8.2581,2.71177 16.30296,2.71177 23.04424,0 36.31582,7.89049 36.48872,21.69404 0.0602,4.80756 -3.77247,10.10126 -13.17713,18.20033 -10.78468,9.28752 -13.88083,14.00047 -16.5748,25.23012 -1.82199,7.59503 -2.6839,14.43802 -1.91531,15.20663 0.76861,0.7686 6.43104,-0.11059 12.58317,-1.95386 10.05712,-3.0132 11.48543,-4.54163 14.15632,-15.14872 3.39021,-13.46367 6.28162,-16.28062 11.91348,-11.60662 5.29363,4.39335 4.98544,8.60232 -1.66606,22.75278 -5.20855,11.08072 -6.54265,12.0728 -18.43405,13.70827 -15.75862,2.16739 -20.6321,4.97117 -18.46351,10.62244 1.21354,3.16243 5.27046,4.34131 14.94001,4.34131 10.71548,0 14.64763,1.37353 20.39994,7.12582 6.18032,6.1803 6.89679,8.60908 5.39979,18.30435 -3.5704,23.12369 -9.95835,30.29843 -28.82234,32.37245 -18.89935,2.07792 -17.30088,6.94822 3.35193,10.21298 8.48139,1.34076 16.27469,4.67247 20.84738,8.9125 7.17159,6.64988 7.31954,7.46776 8.24865,45.59635 1.02634,42.11848 0.0341,51.02788 -5.68205,51.02788 -4.9872,0 -7.01786,-6.057 -7.01786,-20.9328 l 0,-12.3541 -23.72787,1.8306 c -38.04195,2.9348 -40.72322,3.7057 -39.27314,11.2913 2.27506,11.9011 -4.70173,27.2083 -7.95661,17.457 z m 58.90977,-38.2902 c 11.6999,-2.9461 12.04785,-3.3418 12.04785,-13.70053 l 0,-10.66679 -14.20236,0.81966 -14.20234,0.81964 -1.77612,10.84703 c -2.66955,16.30349 -1.77034,16.89269 18.13297,11.88099 z m -31.34025,-40.12846 c 0,-11.14917 -3.64945,-14.65706 -11.21302,-10.77809 -4.81611,2.46992 -8.9151,14.63956 -6.33632,18.8121 0.87939,1.42286 5.18775,2.58705 9.57412,2.58705 7.46832,0 7.97522,-0.6751 7.97522,-10.62106 z m 36.72691,7.86437 c 5.79687,-2.20399 6.62146,-3.51487 4.11249,-6.53799 -2.33488,-2.81337 -2.34985,-4.26847 -0.0586,-5.68462 5.08237,-3.14106 -0.70457,-6.16858 -13.66337,-7.14817 l -12.20291,-0.92246 -0.83386,11.52496 c -0.80867,11.17694 -0.5888,11.52497 7.2808,11.52497 4.46306,0 11.37746,-1.24052 15.36532,-2.75669 z m -40.60084,-49.92886 c 2.13066,-2.13068 3.87393,-7.01184 3.87393,-10.84703 0,-6.1614 -1.1048,-6.97308 -9.49114,-6.97308 -10.90267,0 -12.34238,4.54981 -4.74558,14.99729 5.65089,7.77137 5.4649,7.72071 10.36279,2.82282 z m 40.48263,-12.8435 c 0,-2.3023 -4.07153,-3.91826 -11.18143,-4.43781 -8.68858,-0.6349 -11.59324,0.25599 -13.02844,3.99609 -3.0513,7.95158 5.25064,12.03424 15.61206,7.67758 4.72879,-1.9883 8.59781,-5.24442 8.59781,-7.23586 z m -40.89813,-14.75788 c 7.12308,-2.73337 5.32773,-11.91278 -2.32991,-11.91278 -7.47137,0 -10.86098,3.78293 -8.62073,9.62102 1.64208,4.27918 4.31422,4.83839 10.95064,2.29176 z m 42.25401,-2.47978 c 0,-2.26916 -3.3558,-5.60012 -7.45733,-7.40212 -4.10153,-1.80201 -8.15731,-4.24528 -9.01284,-5.42946 -2.53246,-3.50532 -11.44936,8.24427 -9.70551,12.78875 2.25967,5.88859 26.17568,5.92775 26.17568,0.0429 z M 105.57437,1014.4283 c 0.29168,-12.6775 0.32961,-23.66009 0.0844,-24.40582 -0.24542,-0.74573 -0.8056,-11.20834 -1.24507,-23.25022 -0.43947,-12.04191 -1.74144,-23.41922 -2.89329,-25.28292 -3.744976,-6.05953 -9.367896,6.06058 -10.706706,23.07821 -0.69074,8.78009 -2.14441,27.29129 -3.23032,41.13605 -1.28124,16.3349 -3.01968,24.8205 -4.95176,24.1703 -2.7735,-0.9333 -3.27881,-17.3338 -1.87282,-60.78364 0.55944,-17.28798 5.99,-31.02409 15.09773,-38.18821 8.114546,-6.38291 8.749316,-12.45098 1.8132,-17.33293 -13.62775,-9.59172 -11.37322,-45.27647 3.210836,-50.82134 8.03276,-3.05406 9.92048,-19.16012 2.24564,-19.16012 -2.55131,0 -7.350856,-1.89964 -10.665626,-4.22139 -12.21888,-8.55844 -5.44605,-51.26673 8.443826,-53.2455 4.86006,-0.69236 6.0159,-2.92332 6.73223,-12.99422 1.32411,-18.61545 11.3381,-21.86944 11.3381,-3.68425 0,6.90322 2.09431,11.63859 7.45733,16.86146 4.10153,3.99437 8.99256,9.97452 10.86899,13.28926 3.71988,6.57126 3.88947,30.43586 0.2164,30.43586 -1.24963,0 -2.27207,2.24471 -2.27207,4.98821 0,2.74354 -3.05073,6.37825 -6.7794,8.07716 -8.98442,4.09358 -8.55724,11.08403 1.35589,22.18745 9.50459,10.64584 10.16173,13.79592 6.90941,33.12115 -1.23837,7.3583 -3.66665,11.01621 -9.01458,13.57941 -8.79559,4.21561 -11.0039,11.87465 -4.0593,14.07879 8.15999,2.58989 14.71035,16.46724 13.49751,28.59547 -0.59317,5.93185 0.003,11.14588 1.32594,11.58668 1.32244,0.44081 2.49024,12.98817 2.5951,27.88297 0.24161,34.32143 0.29764,33.86093 -4.11989,33.86093 -4.43328,0 -6.99677,-13.3839 -7.27158,-37.96462 -0.27713,-24.79063 -5.96954,-52.87924 -10.71645,-52.87924 -3.0677,0 -3.99631,8.8701 -4.8261,46.09984 -0.8058,36.15302 -1.89816,46.97752 -5.06258,50.16752 -3.57457,3.6033 -3.97457,1.4368 -3.50476,-18.9823 z M 124.4816,897.52732 c 0.79165,-1.19267 0.96856,-7.10544 0.39313,-13.13945 -1.02126,-10.70856 -1.29229,-10.9709 -11.3354,-10.9709 l -10.28913,0 -1.17007,12.88085 c -0.64349,7.08445 -0.74402,13.71571 -0.22344,14.7361 1.21555,2.38218 20.72299,-0.64127 22.62483,-3.5066 z m -0.0835,-81.05723 0,-18.98229 -10.79537,0 c -11.53868,0 -11.12576,-0.58894 -14.713936,20.98644 -2.30915,13.88455 0.16839,16.97814 13.596536,16.97814 l 11.91277,0 0,-18.98229 z"
       id="path3522"
       inkscape:connector-curvature="0" />
  </g>
</svg>
