<?xml version="1.0" encoding="UTF-8" standalone="no"?>
<svg
   xmlns:dc="http://purl.org/dc/elements/1.1/"
   xmlns:cc="http://creativecommons.org/ns#"
   xmlns:rdf="http://www.w3.org/1999/02/22-rdf-syntax-ns#"
   xmlns:svg="http://www.w3.org/2000/svg"
   xmlns="http://www.w3.org/2000/svg"
   xmlns:sodipodi="http://sodipodi.sourceforge.net/DTD/sodipodi-0.dtd"
   xmlns:inkscape="http://www.inkscape.org/namespaces/inkscape"
   sodipodi:docname="緣-seal.svg"
   inkscape:version="1.0beta2 (2b71d25, 2019-12-03)"
   version="1.1"
   id="svg2"
   viewBox="0 0 300 300"
   height="300"
   width="300">
  <defs
     id="defs4">
    <clipPath
       id="clipPath4204"
       clipPathUnits="userSpaceOnUse">
      <rect
         y="794.64594"
         x="164.41942"
         height="21.584471"
         width="15.451179"
         id="rect4206"
         style="fill:#0000ff;fill-rule:evenodd;stroke:#000000;stroke-width:1px;stroke-linecap:butt;stroke-linejoin:miter;stroke-opacity:1" />
    </clipPath>
  </defs>
  <sodipodi:namedview
     inkscape:document-rotation="0"
     showguides="false"
     units="px"
     inkscape:window-maximized="0"
     inkscape:window-y="23"
     inkscape:window-x="0"
     inkscape:window-height="855"
     inkscape:window-width="1440"
     showgrid="false"
     inkscape:current-layer="layer1"
     inkscape:document-units="px"
     inkscape:cy="150"
     inkscape:cx="150"
     inkscape:zoom="1.71"
     inkscape:pageshadow="2"
     inkscape:pageopacity="0.0"
     borderopacity="1.0"
     bordercolor="#666666"
     pagecolor="#ffffff"
     id="base" />
  <metadata
     id="metadata7">
    <rdf:RDF>
      <cc:Work
         rdf:about="">
        <dc:format>image/svg+xml</dc:format>
        <dc:type
           rdf:resource="http://purl.org/dc/dcmitype/StillImage" />
        <dc:title></dc:title>
      </cc:Work>
    </rdf:RDF>
  </metadata>
  <g
     transform="translate(0,-752.36216)"
     id="layer1"
     inkscape:groupmode="layer"
     inkscape:label="Layer 1">
    <path
       sodipodi:nodetypes="csssssscscccsscccscccssscscscscscssccscscccccssccscccscscsscccsccscscsssccsccccccccssccsscccscsscscccccscssccccscscscccscsccccsssscccssccccsccccccccssssscccsscccsss"
       inkscape:connector-curvature="0"
       id="path117"
       d="m 180.07651,1035.5863 c -1.16194,-3.0561 -0.7423,-10.4941 1.02559,-18.1782 2.0538,-8.9268 7.43756,-37.87627 9.35729,-50.31586 1.2731,-8.24955 1.96051,-25.26947 1.02059,-25.26947 -0.6553,0 -38.63408,30.87266 -40.46354,32.89249 -3.4528,3.81209 -6.96784,5.87712 -10.00397,5.87712 -1.5802,0 -3.24693,-0.37384 -3.70386,-0.83077 -1.32772,-1.32772 -0.9632,-5.01236 0.72693,-7.34774 2.73676,-3.78156 33.11717,-29.3395 43.67446,-36.7417 9.93682,-6.96716 10.18067,-7.1982 9.84066,-9.3238 -0.19176,-1.19879 -0.69917,-5.76234 -1.1276,-10.14123 -0.42842,-4.37889 -0.92117,-8.19527 -1.095,-8.48085 -0.5713,-0.93858 -1.31308,-0.55549 -4.97211,2.5678 -12.63557,10.78553 -37.41572,22.5286 -47.53969,22.5286 h -2.96825 l -0.24406,-3.06858 -0.24405,-3.06859 26.49262,-15.01442 c 14.57094,-8.25793 26.62402,-15.22704 26.78463,-15.4869 0.2562,-0.41454 -6.78608,-17.14306 -7.52995,-17.88692 -0.15772,-0.15773 -2.79429,1.88005 -5.85904,4.52841 -6.90051,5.96295 -16.89202,12.85771 -21.71275,14.98315 -6.46607,2.85086 -14.62078,4.01957 -16.30374,2.33661 -0.45693,-0.45693 -0.83078,-1.95953 -0.83078,-3.3391 0,-2.49489 0.062,-2.54702 11.57046,-9.72702 18.43547,-11.50171 24.64742,-16.50899 33.73202,-27.19041 2.46039,-2.89286 3.17331,-4.16905 2.54565,-4.55695 -0.47949,-0.29635 -11.07014,-0.70111 -23.53477,-0.89947 -18.66211,-0.29699 -23.03144,-0.5512 -24.75014,-1.43997 -2.69054,-1.39133 -3.61002,-2.53909 -4.13435,-5.16074 -0.36874,-1.8437 -0.16159,-2.26217 1.55359,-3.13831 4.12985,-2.10961 9.3797,-2.56397 29.62498,-2.56397 h 20.30845 l 0.41745,-1.5577 c 0.56777,-2.11862 0.54974,-12.9809 -0.0215,-12.9809 -2.09846,0 -28.83192,-3.59987 -30.77381,-4.14393 -3.0377,-0.85108 -8.47705,-6.43914 -10.3086,-10.59043 -2.2242,-5.04127 -3.1088,-12.02169 -3.08973,-24.38139 0.0164,-10.6233 0.1726,-12.15698 1.60441,-15.75015 1.18335,-2.96969 1.93405,-3.98081 2.95553,-3.98081 2.12716,0 5.44536,1.98148 5.53667,3.30627 0.0453,0.65658 0.12314,3.73716 0.17308,6.84576 0.0499,3.10859 0.25354,5.81559 0.45245,6.01555 0.97805,0.98323 19.32601,1.81944 40.13873,1.82931 13.87063,0.007 24.23275,0.29989 25.78056,0.72975 2.80395,0.77871 3.98895,2.30803 3.98895,5.14801 0,2.99148 -3.25759,3.86966 -13.55473,3.65408 -7.63251,-0.15979 -8.81863,-0.0323 -9.59779,1.03202 -1.25488,1.71404 -2.28418,43.38708 -1.08986,44.12521 1.50814,0.93209 11.29517,1.40255 19.76153,0.94994 10.64823,-0.56925 14.65386,0.26778 17.65861,3.69 1.17085,1.33352 2.03391,2.93956 1.91791,3.56897 -0.116,0.6294 -1.90236,2.00111 -3.9697,3.04824 -4.32563,2.19097 -7.64903,2.39046 -18.15608,1.08984 -4.47471,-0.5539 -7.79274,-0.61332 -10.03856,-0.17976 -3.3131,0.63961 -3.42049,0.74505 -8.68193,8.52367 l -5.32733,7.87605 3.66779,7.35487 c 4.69825,9.42121 7.5688,19.34998 10.87493,37.61467 0.46236,2.5543 1.06006,4.9992 1.32823,5.4331 0.35991,0.58235 2.85525,0.46591 9.53002,-0.44467 4.64593,-0.80924 7.9279,-2.00596 11.73761,0.63417 4.92332,3.41186 6.75701,8.85988 8.52648,25.33271 1.85444,17.26394 -1.03506,43.42149 -6.71047,60.74724 -1.82634,5.5755 -1.89114,5.6635 -4.69121,6.3759 -2.27226,0.5782 -3.04002,0.5224 -3.8444,-0.2794 -1.51556,-1.5107 -1.72181,-9.0092 -0.44986,-16.35483 0.61641,-3.55975 2.23002,-16.90888 3.58581,-29.66478 2.48884,-23.41608 2.58933,-28.289 0.67812,-32.88493 -1.58398,-3.80906 -2.34719,-4.03535 -9.16493,-2.71745 -3.35813,0.64914 -6.37453,1.42112 -6.70311,1.7155 -0.32858,0.29438 -1.18444,6.09222 -1.9019,12.8841 -0.71746,6.79186 -3.33748,24.72834 -5.82227,39.85887 -2.48479,15.13042 -4.80965,29.81192 -5.16636,32.62532 -1.80395,14.2281 -4.1944,19.1347 -9.3223,19.1347 -2.03958,0 -2.6164,-0.3233 -3.16867,-1.7759 z m 0.9559,-219.47073 c 1.16306,-0.45118 1.24342,-1.06322 0.84733,-6.45398 -0.24066,-3.27554 -0.61445,-7.43534 -0.83064,-9.24401 l -0.39308,-3.2885 h -15.91733 -15.91733 l 0.48344,5.36544 c 0.69169,7.67671 2.28751,10.284 7.16175,11.70098 9.09354,2.64356 20.41893,3.52876 24.56586,1.92007 z M 95.235027,1032.4203 c -1.097637,-3.2563 -1.267171,-6.6021 -1.380786,-27.2508 -0.07124,-12.94623 -0.365328,-34.53668 -0.653538,-47.97865 l -0.524013,-24.44 -1.959152,2.28594 c -2.629119,3.06765 -7.155006,11.79382 -8.514635,16.41671 -0.605962,2.06033 -1.575334,9.6931 -2.154164,16.9617 -0.57883,7.26861 -1.35959,16.28621 -1.735018,20.03904 -0.375429,3.75289 -0.682599,8.76899 -0.682599,11.14681 0,7.44585 -1.620377,10.06855 -6.220641,10.06855 -1.838107,0 -2.319276,-0.3847 -3.247844,-2.5962 -2.510556,-5.9794 -1.704219,-31.39901 1.490322,-46.98214 1.720215,-8.39131 4.255561,-16.40533 8.092188,-25.57875 1.310014,-5.3267 4.859558,-6.6177 9.294436,-9.34353 l 7.250469,-4.45637 -0.194768,-7.27201 -0.194776,-7.27202 -9.787552,-2.07694 c -5.383153,-1.14232 -10.339303,-2.54425 -11.013666,-3.11541 -1.854496,-1.57068 -3.743662,-6.24232 -3.760735,-9.29976 -0.01529,-2.73806 4.595862,-17.32234 6.91274,-21.8638 1.760181,-3.45024 10.160283,-10.68177 14.782229,-12.72581 l 3.905455,-1.72718 0.0094,-3.67275 c 0.0055,-2.02001 0.183449,-4.32072 0.396108,-5.11268 0.356701,-1.3284 -0.381299,-1.64523 -9.528779,-4.09077 -7.241796,-1.93606 -10.451777,-3.13455 -11.904553,-4.44473 -5.285104,-4.76639 -5.17633,-11.95111 0.385637,-25.4721 1.979076,-4.81109 2.336667,-5.2151 10.209127,-11.53435 9.361875,-7.51477 9.048416,-6.86526 9.048416,-18.74886 0,-8.83978 1.35218,-14.92557 3.315313,-14.92128 1.998781,0.004 5.677862,2.6618 6.466572,4.67085 0.53701,1.36793 0.53087,3.36456 -0.0218,7.0959 -1.80731,12.20127 -1.26479,13.92124 5.4571,17.30094 8.2102,4.12801 13.94917,11.39019 16.69216,21.12251 1.92311,6.82338 0.71044,20.13791 -2.03239,22.31442 -3.20703,2.54487 -6.85885,3.87045 -10.82857,3.93066 -3.82763,0.058 -4.21509,0.21076 -5.07266,1.99928 -0.51067,1.06504 -1.09581,3.55763 -1.30032,5.53911 l -0.37183,3.60269 4.07205,3.16223 c 7.62058,5.91791 13.51327,14.24878 15.85198,22.41092 1.31693,4.5961 1.10988,14.84999 -0.38178,18.90724 -0.94584,2.57265 -3.19728,3.42359 -14.36486,5.42929 l -6.40391,1.15015 v 7.48103 7.48103 l 5.86057,3.53995 c 8.36479,5.05257 12.12509,10.20432 15.93594,21.83279 4.20362,12.82698 6.70514,37.96021 5.26081,52.85625 -0.49138,5.1681 0.43355,8.8123 -4.31148,9.8875 -2.49396,0.5604 -3.11521,0.4809 -3.82478,-0.4895 -2.47588,-3.386 -4.38101,-19.64813 -4.38188,-37.40364 -6.9e-4,-17.03915 -2.33006,-24.97339 -10.15418,-34.58898 l -3.34653,-4.11277 -0.4276,10.72813 c -0.23519,5.90047 -0.46885,28.23497 -0.51924,49.63219 l -0.0917,38.90417 -1.55771,1.7927 c -0.91751,1.056 -2.59125,1.9572 -4.072542,2.1929 l -2.514832,0.4002 z M 116.20431,889.37996 c -0.9389,-11.04556 -5.6925,-20.28763 -11.88045,-23.09828 -5.358069,-2.43371 -7.887502,-1.47849 -15.433271,5.82821 -3.673952,3.55755 -5.359585,5.79163 -6.321217,8.37791 -1.717957,4.6204 -2.395843,8.87945 -1.826138,11.4733 l 0.459475,2.09198 h 17.699417 17.699414 z m -2.86458,-56.20328 c 3.647,-1.61324 3.60481,-0.61625 0.54402,-12.85507 -2.67271,-10.687 -5.05371,-13.98432 -11.4841,-15.90376 -2.711928,-0.80951 -3.231883,-0.74721 -6.189775,0.74153 -10.325778,5.19712 -17.296267,17.26072 -14.223189,24.61563 0.896429,2.14546 1.504932,2.60092 4.400114,3.29347 10.162378,2.43093 21.59823,2.47683 26.95293,0.1082 z"
       style="fill:#000000;stroke-width:0.692314" />
  </g>
</svg>
