<?xml version="1.0" encoding="UTF-8" standalone="no"?>
<!-- Created with Inkscape (http://www.inkscape.org/) -->

<svg
   xmlns:dc="http://purl.org/dc/elements/1.1/"
   xmlns:cc="http://creativecommons.org/ns#"
   xmlns:rdf="http://www.w3.org/1999/02/22-rdf-syntax-ns#"
   xmlns:svg="http://www.w3.org/2000/svg"
   xmlns="http://www.w3.org/2000/svg"
   xmlns:sodipodi="http://sodipodi.sourceforge.net/DTD/sodipodi-0.dtd"
   xmlns:inkscape="http://www.inkscape.org/namespaces/inkscape"
   width="300"
   height="300"
   id="svg2"
   version="1.1"
   inkscape:version="0.48.4 r9939"
   sodipodi:docname="image-seal.svg">
  <defs
     id="defs4" />
  <sodipodi:namedview
     id="base"
     pagecolor="#ffffff"
     bordercolor="#666666"
     borderopacity="1.0"
     inkscape:pageopacity="0.0"
     inkscape:pageshadow="2"
     inkscape:zoom="1.979899"
     inkscape:cx="93.377566"
     inkscape:cy="122.32215"
     inkscape:document-units="px"
     inkscape:current-layer="layer1"
     showgrid="false"
     inkscape:window-width="1215"
     inkscape:window-height="1000"
     inkscape:window-x="65"
     inkscape:window-y="24"
     inkscape:window-maximized="1"
     fit-margin-top="10"
     fit-margin-left="10"
     fit-margin-right="10"
     fit-margin-bottom="10" />
  <metadata
     id="metadata7">
    <rdf:RDF>
      <cc:Work
         rdf:about="">
        <dc:format>image/svg+xml</dc:format>
        <dc:type
           rdf:resource="http://purl.org/dc/dcmitype/StillImage" />
        <dc:title />
      </cc:Work>
    </rdf:RDF>
  </metadata>
  <g
     inkscape:label="Calque 1"
     inkscape:groupmode="layer"
     id="layer1"
     transform="translate(0,-752.36218)">
    <path
       style="fill:#000000"
       d="m 78.273806,1036.5841 c -0.739318,-3.8676 -0.825016,-28.4283 -0.190285,-54.57919 1.083864,-44.66293 0.87224,-47.49364 -3.488232,-46.66321 -4.868289,0.92716 -5.931145,6.0989 -10.812388,52.61202 -1.195455,11.39139 -3.374502,23.62418 -4.842331,27.18398 l -2.668779,6.4723 -1.858298,-7.1366 c -1.022062,-3.9251 -1.151111,-10.9153 -0.286775,-15.53366 0.864337,-4.6184 2.254633,-17.13479 3.089549,-27.8142 2.0432,-26.13461 5.220084,-37.44043 12.827013,-45.64844 7.218332,-7.7887 7.934386,-11.97556 2.90781,-17.00213 -6.151919,-6.15192 -9.470219,-14.45599 -9.470219,-23.69928 0,-9.9112 7.293012,-24.93286 12.117462,-24.95869 6.231938,-0.0333 4.893741,-11.65369 -2.322872,-20.17082 -10.642607,-12.56051 -9.635427,-32.15359 2.264571,-44.05357 1.911015,-1.91101 3.490455,-7.76017 3.5099,-12.99818 0.04844,-13.07323 2.520745,-21.17392 6.461982,-21.17392 4.808251,0 5.948141,4.82888 4.744047,20.09717 -0.957782,12.14499 -0.535005,13.55918 4.053654,13.55918 6.633985,0 13.183435,9.46174 13.183435,19.0456 0,13.55792 -5.73671,27.89612 -12.134451,30.32855 -8.211081,3.12186 -7.510688,9.25147 1.595169,13.96027 8.779802,4.54022 11.822302,11.59848 11.026822,25.5808 -0.68218,11.99146 -4.49005,19.82074 -9.639977,19.82074 -2.085797,0 -3.792325,1.65045 -3.792325,3.66768 0,2.0172 -1.456274,4.2642 -3.23619,4.99331 -2.096423,0.85879 -0.264594,3.89816 5.201236,8.62985 4.640586,4.0173 8.426926,9.27421 8.414096,11.68205 -0.0122,2.40783 1.14169,5.0979 2.56562,5.97794 3.60004,2.22493 3.43799,72.95475 -0.17223,75.18595 -1.51865,0.9386 -3.21982,1.2479 -3.78038,0.6874 -0.56056,-0.5606 -1.70557,-15.53129 -2.54449,-33.26835 -1.55656,-32.90981 -4.934128,-50.54182 -10.053624,-52.48306 -2.023781,-0.76737 -3.005487,13.45096 -3.339546,48.36843 -0.479967,50.16638 -1.899053,66.36208 -5.814733,66.36208 -1.1934,0 -2.774731,-3.1644 -3.514084,-7.032 z M 89.547234,901.22386 c 3.144642,0 10.178835,-17.21515 10.178835,-24.91121 0,-5.45628 -1.177409,-6.1562 -10.355804,-6.1562 -5.695701,0 -10.355803,-1.2338 -10.355803,-2.74176 0,-1.50795 -1.16503,-2.0217 -2.58896,-1.14167 -6.82559,4.21844 -0.119102,39.1329 6.992663,36.40392 2.082654,-0.79922 4.840735,-1.45308 6.129069,-1.45308 z m 1.515218,-70.54892 c 9.675848,-10.87308 6.289857,-25.24227 -5.948141,-25.24227 -9.572786,0 -13.356742,10.59616 -7.88303,22.07464 5.034823,10.55816 6.878648,10.98043 13.831171,3.16763 z M 220.14903,1032.6131 c -4.21773,-10.526 -6.81754,-18.2831 -14.32993,-42.75654 -3.66955,-11.95448 -5.08126,-12.22944 -21.70265,-4.22744 -9.33496,4.49412 -23.97202,4.71203 -25.71886,0.38288 -0.71822,-1.7799 -1.39782,7.54032 -1.51023,20.7116 -0.11234,13.1713 -1.22676,23.9478 -2.47634,23.9478 -4.80485,0 -7.52517,-7.1337 -9.37878,-24.5951 -2.6762,-25.20979 -1.777,-136.0679 1.34813,-166.20567 2.22286,-21.43681 2.0043,-25.80213 -1.56467,-31.24905 -9.65057,-14.72864 -11.51995,2.66504 -13.15236,122.37521 -0.67958,49.8373 -2.21042,91.61211 -3.40186,92.83291 -1.19143,1.2208 -3.52518,-0.3195 -5.18606,-3.4229 -2.19165,-4.0951 -2.68424,-27.42461 -1.79622,-85.0661 0.67298,-43.68291 1.90011,-84.0836 2.72695,-89.77928 6.1896,-42.63656 6.30767,-46.45361 1.60196,-51.77904 -6.2343,-7.05535 -8.65679,-15.96797 -4.961,-18.25209 1.81711,-1.12304 10.09852,5.40028 20.90641,16.46811 l 17.89734,18.3278 -1.49358,16.32313 c -0.82148,8.97772 -1.94887,20.40072 -2.50535,25.38445 -1.04245,9.33677 -1.87089,66.72142 -1.54345,106.91154 l 0.18564,22.77065 9.70855,-1.60362 c 14.505,-2.39587 32.06197,-11.73498 31.14238,-16.56561 -0.4263,-2.23931 -3.67577,-4.44023 -7.22104,-4.89094 -11.26188,-1.43166 -25.86305,-5.78514 -25.86305,-7.71133 0,-2.22849 18.62982,-8.2974 25.47067,-8.2974 2.66235,0 7.98337,2.91257 11.82448,6.47238 8.3382,7.72761 7.21675,7.5972 14.08774,1.63804 3.15588,-2.73709 5.57405,-7.89036 5.57405,-11.87871 l 0,-7.04441 -18.7699,0.50565 c -28.94557,0.77979 -38.18704,0.1698 -38.18704,-2.5204 0,-1.35939 4.13477,-3.24732 9.18834,-4.19536 14.53884,-2.72752 16.70117,-6.58101 16.70117,-29.76323 0,-16.40261 0.77033,-20.52668 3.8341,-20.52668 2.10876,0 4.53612,3.20383 5.39414,7.11961 2.8086,12.8178 3.46775,13.592 11.57231,13.592 8.74716,0 18.03372,3.97681 18.03372,7.72264 0,1.29941 -6.11639,2.71471 -13.59199,3.14511 -12.56348,0.72331 -13.592,1.27231 -13.592,7.25491 0,5.83166 1.15331,6.5481 11.65029,7.23743 9.69536,0.63671 12.1933,1.91798 14.88647,7.63578 5.04151,10.70358 3.89137,18.35589 -4.66436,31.03309 -8.42103,12.47759 -8.59698,19.70401 -0.84899,34.86985 1.96439,3.84507 3.57164,11.05773 3.57164,16.02813 0,4.9704 1.16501,9.7571 2.58894,10.6371 3.20572,1.9813 3.46151,22.0061 0.28111,22.0061 -1.26931,0 -4.29186,-4.9513 -6.71675,-11.003 z m -57.6146,-165.13379 c 1.44674,-31.40048 5.18441,-43.92398 13.10921,-43.92398 7.46497,0 17.24502,-6.67305 17.26444,-11.77973 0.0104,-2.91904 1.47651,-6.87631 3.25641,-8.79388 2.45401,-2.6439 2.46885,-3.05414 0.0613,-1.69743 -4.49369,2.53239 -32.64106,-4.22507 -30.31916,-7.982 1.04259,-1.68692 28.08044,-3.84932 40.65239,-4.86943 21.94581,-1.78065 22.61452,-1.67127 22.61452,3.69902 0,3.04368 -1.45629,5.54044 -3.23619,5.54839 -1.77992,0.007 -7.6753,1.24711 -13.10083,2.7537 -8.64299,2.40007 -9.76516,3.60062 -9.06133,9.69415 0.62378,5.40058 2.38142,7.13666 7.86508,7.76846 10.87958,1.25348 16.59802,11.78839 18.68146,34.41624 2.98191,32.38589 -3.96107,51.37996 -10.01109,27.38759 -1.31543,-5.21662 -4.41309,-10.12187 -6.888,-10.90735 -2.47365,-0.7851 -6.37611,-4.2946 -8.67223,-7.79888 -2.2961,-3.50431 -5.36692,-6.37144 -6.82406,-6.37144 -5.46606,0 -25.68911,22.03453 -25.69942,28.00142 -0.0121,7.45848 -4.41926,16.01075 -8.24922,16.01075 -2.03245,0 -2.45679,-9.15933 -1.44336,-31.1556 z m 19.22814,-13.50382 c 4.20569,-4.64822 11.16573,-19.81662 11.16573,-24.33411 0,-2.64475 -13.84949,-0.37328 -17.0131,2.79035 -3.92652,3.9265 -5.26345,27.36891 -1.56087,27.36891 1.17573,0 4.50942,-2.62132 7.40824,-5.82515 z m 31.65249,-23.35598 c -7.4813,-6.05796 -11.24543,-4.56969 -12.19104,4.82019 -0.57539,5.7138 1.35389,9.77618 7.76686,16.35423 l 8.53245,8.75204 0.8143,-12.6405 c 0.67666,-10.50374 -0.15556,-13.42579 -4.92257,-17.28596 z"
       id="path3002"
       inkscape:connector-curvature="0"
       sodipodi:nodetypes="csssscsssssscsssssssssssscscsccssssccssssscssssscsssssssssssssssscssscsssssssscssssssssssssssscscccscccssscsssssssscsccsssssssscss" />
  </g>
</svg>
