<?xml version="1.0" encoding="UTF-8" standalone="no"?>
<!-- Created with Inkscape (http://www.inkscape.org/) -->

<svg
   xmlns:dc="http://purl.org/dc/elements/1.1/"
   xmlns:cc="http://creativecommons.org/ns#"
   xmlns:rdf="http://www.w3.org/1999/02/22-rdf-syntax-ns#"
   xmlns:svg="http://www.w3.org/2000/svg"
   xmlns="http://www.w3.org/2000/svg"
   xmlns:sodipodi="http://sodipodi.sourceforge.net/DTD/sodipodi-0.dtd"
   xmlns:inkscape="http://www.inkscape.org/namespaces/inkscape"
   width="300"
   height="300"
   id="svg2"
   version="1.1"
   inkscape:version="0.48.4 r9939"
   sodipodi:docname="image-seal.svg">
  <defs
     id="defs4" />
  <sodipodi:namedview
     id="base"
     pagecolor="#ffffff"
     bordercolor="#666666"
     borderopacity="1.0"
     inkscape:pageopacity="0.0"
     inkscape:pageshadow="2"
     inkscape:zoom="2.0018437"
     inkscape:cx="123.3515"
     inkscape:cy="143.3195"
     inkscape:document-units="px"
     inkscape:current-layer="layer1"
     showgrid="false"
     inkscape:window-width="1215"
     inkscape:window-height="1000"
     inkscape:window-x="65"
     inkscape:window-y="24"
     inkscape:window-maximized="1"
     fit-margin-top="10"
     fit-margin-left="10"
     fit-margin-right="10"
     fit-margin-bottom="10" />
  <metadata
     id="metadata7">
    <rdf:RDF>
      <cc:Work
         rdf:about="">
        <dc:format>image/svg+xml</dc:format>
        <dc:type
           rdf:resource="http://purl.org/dc/dcmitype/StillImage" />
        <dc:title />
      </cc:Work>
    </rdf:RDF>
  </metadata>
  <g
     inkscape:label="Calque 1"
     inkscape:groupmode="layer"
     id="layer1"
     transform="translate(0,-752.36218)">
    <path
       style="fill:#000000"
       d="m 191.92617,1044.3301 c -2.1693,-6.2165 1.06699,-56.73382 4.03323,-62.95744 3.45344,-7.24582 7.71998,-12.89495 17.65039,-23.37003 3.84957,-4.06071 6.99922,-8.92138 6.99922,-10.80147 0,-1.88011 1.772,-4.88899 3.93776,-6.68641 3.40235,-2.82371 3.83493,-12.06499 3.18146,-67.9672 -0.70873,-60.63008 -1.06701,-64.92612 -5.6968,-68.30832 -2.71728,-1.98508 -9.07384,-3.6092 -14.12569,-3.6092 -5.05186,0 -10.49692,-1.31173 -12.10012,-2.91494 -4.53188,-4.53187 -24.36076,2.09371 -32.88155,10.98694 l -7.21688,7.53233 -0.21634,46.29701 c -0.11886,25.46338 0.69559,54.88055 1.81005,65.37148 2.31244,21.76756 6.3408,26.95271 23.01067,29.61831 7.34584,1.17465 9.78979,2.68791 9.2185,5.70793 -1.05701,5.58746 -14.51759,6.60436 -25.68076,1.94008 -14.69033,-6.13801 -17.70936,-21.27596 -17.84072,-89.45665 -0.0906,-47.07135 0.57137,-57.49996 4.15484,-65.4463 4.13839,-9.17687 12.23801,-16.09194 15.28249,-13.04743 3.38136,3.38136 17.13576,-13.42806 18.65378,-22.79704 1.14596,-7.07261 2.6681,-9.44736 5.67547,-8.85449 2.95815,0.5832 4.10951,3.64703 4.10951,10.93581 l 0,10.12562 14.28178,2.54662 c 28.83089,5.14091 30.26835,9.09977 30.22005,83.22936 -0.0468,71.83524 -0.666,74.67613 -21.67907,99.46779 -12.78444,15.08331 -13.91467,18.68526 -13.91467,44.34444 0,16.1957 -1.09022,26.2764 -3.0542,28.2405 -3.91427,3.9142 -6.4164,3.8735 -7.81245,-0.1273 z m -91.91421,-18.9541 c -0.790762,-3.9237 -1.097322,-25.50785 -0.681244,-47.96482 0.887474,-47.89989 -0.0886,-59.70336 -4.937548,-59.70336 -5.81681,0 -8.35684,19.39172 -8.54879,65.2658 -0.1097,26.24408 -0.76017,31.14808 -4.31139,32.51078 -2.30012,0.8827 -4.76657,1.0204 -5.48103,0.3059 -2.28067,-2.2807 -0.55319,-63.05291 2.31988,-81.6115 3.01439,-19.47143 4.92072,-23.083 15.89269,-30.10874 l 7.276902,-4.65967 -8.549482,-5.07125 c -13.14346,-7.79621 -14.67667,-10.98447 -13.01671,-27.0678 1.66467,-16.12925 4.9174,-20.82827 14.4176,-20.82827 4.76636,0 6.911812,-1.65583 8.056912,-6.21828 2.06912,-8.24406 -0.77615,-12.31353 -7.467992,-10.68121 -11.80424,2.87938 -15.97363,-6.42477 -14.81443,-33.05882 0.40458,-9.29547 1.41198,-10.89432 8.72916,-13.85394 10.27946,-4.15779 12.001552,-6.5867 12.050592,-16.99687 0.0257,-5.48734 1.27355,-8.2718 3.70651,-8.2718 4.52067,0 6.84874,3.58774 8.92937,13.76089 0.99813,4.88038 3.42025,8.19211 6.41306,8.76846 9.06335,1.74545 12.04109,7.53849 12.04109,23.42526 0,16.41581 -2.76652,22.00337 -11.51083,23.24847 -4.15412,0.59149 -5.73798,2.81297 -6.32523,8.87164 -0.6875,7.09273 0.33881,8.61509 8.3803,12.43104 l 9.16373,4.34847 -0.74479,16.83841 c -0.73754,16.67458 -0.83764,16.88379 -10.28918,21.50208 -11.50913,5.62368 -12.13295,10.30745 -1.97184,14.8052 4.16488,1.84356 8.65556,6.23454 9.97927,9.75772 3.37737,8.9892 6.17777,98.49541 3.14039,100.37251 -1.32917,0.8216 -4.23799,0.7946 -6.4641,-0.058 -3.50251,-1.3441 -4.04743,-8.0379 -4.04743,-49.71888 0,-41.06445 -0.57905,-48.388 -3.92753,-49.67293 -2.16013,-0.82893 -4.48978,-0.94487 -5.177,-0.25764 -0.68722,0.68719 -1.32501,22.30357 -1.41733,48.03633 -0.17892,49.90812 -1.72168,66.13922 -6.43538,67.71032 -1.61725,0.539 -3.58742,-2.2301 -4.3782,-6.154 z m 17.476,-145.81113 c 4.28507,-3.55629 5.33617,-21.72804 1.3976,-24.16221 -1.35403,-0.83683 -8.17697,-0.76338 -15.16208,0.16314 -12.670392,1.68078 -12.704092,1.71048 -14.343632,12.64387 -0.9039,6.02749 -0.88221,12.1908 0.0481,13.69619 2.20134,3.56184 23.042492,1.82303 28.059932,-2.34107 z m 0.74525,-60.71314 c 4.4105,-2.79895 7.20255,-27.14822 3.38362,-29.50844 -1.59678,-0.98689 -9.10254,-1.01977 -16.67943,-0.073 -13.601572,1.69938 -13.797162,1.84545 -15.432282,11.52351 -2.771,16.4015 -0.21303,20.20373 13.561322,20.15868 6.55491,-0.0204 13.37996,-0.96673 15.16677,-2.10066 z m 69.79763,128.88909 c -1.67981,-1.67982 -3.0542,-5.68846 -3.0542,-8.9081 0,-4.77107 -1.37386,-5.85389 -7.42734,-5.85389 -9.99544,0 -15.47919,-2.35064 -15.47919,-6.63523 0,-2.43433 3.16248,-3.54544 10.09114,-3.54544 7.54859,0 10.79048,-1.30677 12.86685,-5.18647 4.03058,-7.53126 0.8199,-14.72801 -6.98367,-15.65386 -9.59292,-1.13815 -15.25432,-12.64784 -14.121,-28.70827 1.54041,-21.82992 2.59118,-24.04411 13.47736,-28.39991 13.82638,-5.53221 13.79815,-12.60893 -0.0596,-14.95018 -5.79846,-0.97963 -10.18068,-3.14985 -10.18068,-5.04175 0,-4.42826 5.16568,-6.17776 13.52345,-4.58008 6.4302,1.22921 6.83791,0.74209 6.83791,-8.16994 0,-7.59621 0.799,-9.1705 4.02592,-7.93223 2.21425,0.84968 4.5049,1.54489 5.09034,1.54489 0.58541,0 1.06442,3.43598 1.06442,7.63551 0,7.21131 0.56558,7.63551 10.18067,7.63551 5.59938,0 10.18068,1.18126 10.18068,2.62504 0,2.74916 -1.85044,3.59655 -13.36214,6.11897 -9.72321,2.13053 -9.50216,10.48047 0.3295,12.44679 12.37566,2.47513 15.57781,7.86139 15.57781,26.20303 0,20.29599 -5.0235,31.50642 -14.11836,31.50642 -4.35675,0 -7.29112,2.06085 -9.34133,6.56058 -4.20409,9.22695 0.0758,15.07336 11.03496,15.07336 4.73384,0 8.89331,0.859 9.24327,1.90888 1.76067,5.28204 -0.26432,6.7717 -10.18068,7.48916 -9.87592,0.71456 -10.82725,1.39076 -10.93509,7.77272 -0.14991,8.87477 -4.11742,13.208 -8.28094,9.04449 z m -0.50903,-65.66537 c 0,-9.61509 -0.42421,-10.18068 -7.63551,-10.18068 -6.95679,0 -7.63551,0.75413 -7.63551,8.48389 0,10.05723 1.43018,11.87746 9.3323,11.87746 5.23172,0 5.93872,-1.21198 5.93872,-10.18067 z m 21.30233,4.45404 c 3.01047,-11.23354 1.90452,-14.63472 -4.75873,-14.63472 -5.72663,0 -6.36293,1.01807 -6.36293,10.18068 0,8.27373 0.89786,10.18067 4.7935,10.18067 2.81951,0 5.42546,-2.35822 6.32816,-5.72663 z m -21.76161,-29.26945 c 0.6045,-4.25646 -0.45894,-5.72663 -4.14239,-5.72663 -5.97921,0 -11.78172,6.32175 -9.37572,10.21474 3.02461,4.8939 12.63901,1.70185 13.51811,-4.48811 z m 20.27054,4.84789 c 4.5442,-2.88337 1.0439,-10.57452 -4.81256,-10.57452 -3.44244,0 -4.81803,1.81664 -4.81803,6.36293 0,6.4266 3.63466,8.01608 9.63059,4.21159 z"
       id="path3171"
       inkscape:connector-curvature="0" />
  </g>
</svg>
