<?xml version="1.0" encoding="UTF-8" standalone="no"?>
<!-- Created with Inkscape (http://www.inkscape.org/) -->

<svg
   xmlns:dc="http://purl.org/dc/elements/1.1/"
   xmlns:cc="http://creativecommons.org/ns#"
   xmlns:rdf="http://www.w3.org/1999/02/22-rdf-syntax-ns#"
   xmlns:svg="http://www.w3.org/2000/svg"
   xmlns="http://www.w3.org/2000/svg"
   xmlns:sodipodi="http://sodipodi.sourceforge.net/DTD/sodipodi-0.dtd"
   xmlns:inkscape="http://www.inkscape.org/namespaces/inkscape"
   width="300"
   height="300"
   id="svg2"
   version="1.1"
   inkscape:version="0.48.4 r9939"
   sodipodi:docname="image-seal.svg">
  <defs
     id="defs4" />
  <sodipodi:namedview
     id="base"
     pagecolor="#ffffff"
     bordercolor="#666666"
     borderopacity="1.0"
     inkscape:pageopacity="0.0"
     inkscape:pageshadow="2"
     inkscape:zoom="1.979899"
     inkscape:cx="200.43343"
     inkscape:cy="161.42993"
     inkscape:document-units="px"
     inkscape:current-layer="layer1"
     showgrid="false"
     inkscape:window-width="1215"
     inkscape:window-height="1000"
     inkscape:window-x="65"
     inkscape:window-y="24"
     inkscape:window-maximized="1" />
  <metadata
     id="metadata7">
    <rdf:RDF>
      <cc:Work
         rdf:about="">
        <dc:format>image/svg+xml</dc:format>
        <dc:type
           rdf:resource="http://purl.org/dc/dcmitype/StillImage" />
        <dc:title />
      </cc:Work>
    </rdf:RDF>
  </metadata>
  <g
     inkscape:label="Calque 1"
     inkscape:groupmode="layer"
     id="layer1"
     transform="translate(0,-752.36218)">
    <path
       style="fill:#000000"
       d="m 84.247891,1007.5984 c -0.336672,-16.62073 -0.636906,-37.42528 -0.667194,-46.23229 -0.03025,-8.807 -0.95577,-16.31298 -2.05665,-16.67994 -5.784579,-1.92818 -7.339175,0.38014 -7.339175,10.89756 0,6.36063 -0.819174,12.38393 -1.820396,13.38515 -1.001202,1.00122 -2.053565,11.10927 -2.338555,22.46233 -0.646982,25.77229 -0.412312,24.64509 -5.130967,24.64509 -5.717233,0 -7.218084,-9.2358 -5.944151,-36.57827 0.99389,-21.33102 1.988081,-25.28843 8.496584,-33.82153 4.054045,-5.31514 8.289337,-9.66389 9.41177,-9.66389 1.122413,0 2.672983,-2.41762 3.445704,-5.37251 0.967529,-3.69983 -0.389636,-6.31692 -4.359107,-8.40588 -8.670799,-4.56311 -9.681917,-7.34188 -9.726387,-26.73001 -0.04267,-18.5923 2.651409,-24.16502 13.318883,-27.55075 7.345505,-2.33136 7.614671,-17.34212 0.310971,-17.34212 -8.298671,0 -11.248512,-6.59284 -11.607319,-25.94223 -0.38014,-20.50111 0.917049,-24.0007 10.205404,-27.53212 5.435468,-2.06656 6.412732,-4.23485 6.412732,-14.2282 0,-8.69794 1.206406,-12.25302 4.599968,-13.55525 7.107209,-2.72729 11.967044,5.99164 9.96284,17.87406 -1.282025,7.60101 -0.789848,10.00795 2.046514,10.00795 2.05401,0 6.41766,2.49973 9.69704,5.55493 5.13443,4.78344 5.85295,7.83552 5.17362,21.97581 -0.72581,15.10742 -1.45885,16.85114 -9.16458,21.80016 -10.075243,6.47082 -10.172998,13.27589 -0.33207,23.11682 5.87136,5.87136 6.85411,8.95429 6.15591,19.31093 -0.45699,6.77827 0.20468,12.32415 1.47046,12.32415 4.13686,0 -3.87188,14.51862 -11.83175,21.44919 l -7.77643,6.77084 10.95052,11.39729 c 11.46285,11.93055 14.88282,20.72142 18.58076,47.76138 1.60251,11.71775 1.28962,18.05895 -1.11086,22.51305 -3.68328,6.8344 -3.55658,7.0458 -8.70102,-14.52083 -1.66818,-6.99326 -3.03304,-15.75984 -3.03304,-19.48126 0,-6.62402 -5.70737,-20.12421 -11.675884,-27.61799 -4.431982,-5.56457 -5.948158,8.81553 -4.336852,41.13279 1.669979,33.49389 0.171872,45.02079 -6.004767,46.20199 -4.197412,0.8028 -4.732377,-2.1671 -5.282526,-29.3264 z M 99.684179,903.02202 c 0.870011,-3.46645 1.193121,-10.37196 0.718031,-15.34554 -0.769071,-8.0507 -1.821614,-9.13505 -9.593393,-9.8833 -7.652591,-0.7368 -9.178702,0.22792 -12.370605,7.8191 -2.631378,6.25821 -2.913503,10.74668 -1.017348,16.18599 2.180826,6.25593 4.147894,7.52645 11.652571,7.52645 7.263977,0 9.338074,-1.232 10.610744,-6.3027 z m 2.848041,-80.84833 c 1.2546,-12.00355 0.78169,-16.75746 -1.82747,-18.37 -2.095028,-1.29481 -3.94407,-0.90383 -4.567254,0.96572 -0.57591,1.72773 -4.117265,3.1413 -7.869654,3.1413 -18.563109,0 -18.288475,30.67651 0.291881,32.60328 4.570441,0.47392 9.203101,0.18489 10.294866,-0.6421 1.091744,-0.82705 2.746661,-8.79125 3.677631,-17.6982 z m 104.76977,206.57941 c -5.15447,-4.7705 -10.18107,-10.8424 -11.17017,-13.4932 -2.14889,-5.7589 4.27393,-22.19083 11.80898,-30.21152 3.24422,-3.45331 6.57855,-12.63186 8.35384,-22.99591 2.65974,-15.52749 2.42982,-18.14713 -2.30404,-26.25266 -4.11222,-7.04104 -7.70662,-9.48811 -16.48761,-11.22461 -8.57365,-1.69554 -11.22894,-3.44569 -11.22894,-7.40118 0,-6.93451 10.2571,-6.86378 24.03617,0.16567 13.81625,7.04851 15.99565,11.87804 15.99565,35.44622 0,23.80437 -3.36029,34.64221 -12.20925,39.37803 -13.73916,7.35298 -10.55818,20.71266 7.46704,31.36046 4.07604,2.4078 7.41101,6.5207 7.41101,9.1399 0,7.7438 -11.27862,5.7083 -21.67268,-3.9114 z m -52.4545,-19.5554 c -20.05839,-9.59957 -23.77486,-19.76123 -22.37407,-61.17554 0.48475,-14.33116 8.37654,-27.71092 17.0967,-28.98571 6.09488,-0.89101 13.3578,-9.08584 16.69259,-18.83442 3.80175,-11.11368 8.79153,-11.64209 9.88944,-1.0473 1.31767,12.71521 -4.54311,23.37782 -13.87574,25.24435 -9.87027,1.97406 -15.77576,8.5343 -19.28785,21.42637 -6.54673,24.03149 -0.0785,45.65836 15.32136,51.22698 9.8989,3.57947 15.46588,10.66857 12.34431,15.71937 -1.355,2.1924 -5.90948,1.1626 -15.80674,-3.5741 z m 20.75139,-18.12025 c 0,-2.00671 -4.85974,-6.86455 -10.79938,-10.79526 l -10.79941,-7.14669 0.79143,-16.55984 c 0.60166,-12.58895 1.75137,-16.55987 4.79462,-16.55987 2.50616,0 4.27684,2.99403 4.735,8.00637 2.0256,22.16162 7.60017,26.87817 6.27373,5.30809 -0.89321,-14.52491 1.44601,-22.65521 6.51826,-22.65521 4.02732,0 4.72559,4.03715 4.26977,24.6863 -0.15405,6.97221 0.75515,12.67675 2.02013,12.67675 2.7104,0 6.57988,-8.04572 5.92548,-12.32073 -0.25086,-1.63899 1.36115,-4.48819 3.58228,-6.33154 2.22111,-1.8434 4.0384,-5.07688 4.0384,-7.18552 0,-2.10865 1.22914,-3.07425 2.73144,-2.14579 1.50227,0.92845 2.44658,8.90065 2.09845,17.71597 -0.66531,16.84666 -3.66355,20.94277 -15.3296,20.94277 -4.34638,0 -5.51303,1.69426 -5.51303,8.00637 0,4.4035 -1.20096,8.00637 -2.66877,8.00637 -1.46784,0 -2.6688,-1.64185 -2.6688,-3.64854 z m 30.03243,-85.08872 c -4.72443,-3.30264 -8.61065,-7.50598 -8.63601,-9.34076 -0.0266,-1.83479 -1.76777,-3.33599 -3.87203,-3.33599 -2.17364,0 -4.21939,-3.16948 -4.73699,-7.33917 -0.72338,-5.82699 1.71459,-9.95289 11.8323,-20.02446 l 12.74335,-12.6853 0,-27.68695 c 0,-21.20075 -0.92622,-28.45567 -3.95367,-30.96824 -5.92067,-4.91371 -48.44892,-4.27872 -60.42554,0.90218 -10.97771,4.74882 -12.20711,7.80894 -14.63184,36.41978 -2.05912,24.29679 2.89828,40.03185 12.61218,40.03185 8.18702,0 15.41792,7.14311 13.73715,13.57042 -1.02166,3.90673 -2.83612,4.83674 -7.04966,3.61329 -14.37976,-4.17532 -20.4186,-8.29306 -23.17768,-15.80437 -1.62659,-4.42822 -3.87464,-9.85275 -4.99565,-12.0545 -1.12105,-2.20176 -1.75401,-12.40987 -1.4066,-22.68471 1.17742,-34.82498 9.725,-52.0414 25.8375,-52.0414 9.84615,0 20.75319,-7.21836 20.75319,-13.73466 0,-6.12884 7.68876,-9.77891 10.61739,-5.04032 1.1398,1.84421 1.479,5.62206 0.75377,8.39526 -1.17277,4.48465 0.27726,5.04215 13.11506,5.04215 12.90055,0 15.51307,1.01821 24.59719,9.58661 8.8614,8.3583 9.94449,10.66639 8.45359,18.01432 -1.56802,7.72791 -1.81989,11.88572 -1.39987,23.10606 0.61002,16.29531 -8.80471,35.53328 -18.96797,38.759 -10.9663,3.48054 -5.2937,19.74564 8.34923,23.93986 9.21566,2.83314 13.19497,6.55885 13.19497,12.35402 0,7.11569 -12.50414,6.58322 -23.34336,-0.99397 z m -39.00096,-33.21001 c -0.93862,-0.93868 -1.70664,-5.61443 -1.70664,-10.39057 0,-7.41464 -1.13257,-8.93268 -7.74858,-10.38579 -7.07654,-1.55426 -7.99643,-3.109 -10.6063,-17.92542 -1.57176,-8.92296 -2.21736,-17.25969 -1.43468,-18.52609 3.07564,-4.97649 8.31946,-1.91661 8.63147,5.03661 0.92122,20.52964 11.02717,33.84191 11.31188,14.90075 0.21429,-14.24996 2.06806,-30.68895 3.63798,-32.25885 0.72359,-0.72359 2.9952,-0.67112 5.04796,0.11658 2.90855,1.11613 3.44554,5.90125 2.43292,21.68 -1.11053,17.30452 -0.68013,20.24779 2.96084,20.24779 6.82731,0 10.27177,-9.61429 8.25727,-23.04794 -1.63218,-10.88407 -1.30667,-12.06971 3.08159,-11.22461 9.3799,1.80641 11.26624,35.2058 2.53338,44.85553 -5.16899,5.71166 -12.09299,7.2925 -12.09299,2.76096 0,-6.08494 -5.04549,-2.06761 -6.66525,5.30698 -1.83482,8.35382 -4.75601,11.73885 -7.64085,8.85403 z"
       id="path3052"
       inkscape:connector-curvature="0" />
  </g>
</svg>
