<?xml version="1.0" encoding="UTF-8" standalone="no"?>
<!-- Created with Inkscape (http://www.inkscape.org/) -->

<svg
   xmlns:dc="http://purl.org/dc/elements/1.1/"
   xmlns:cc="http://creativecommons.org/ns#"
   xmlns:rdf="http://www.w3.org/1999/02/22-rdf-syntax-ns#"
   xmlns:svg="http://www.w3.org/2000/svg"
   xmlns="http://www.w3.org/2000/svg"
   xmlns:sodipodi="http://sodipodi.sourceforge.net/DTD/sodipodi-0.dtd"
   xmlns:inkscape="http://www.inkscape.org/namespaces/inkscape"
   version="1.0"
   width="300"
   height="300"
   id="svg2"
   inkscape:version="0.48.4 r9939"
   sodipodi:docname="dessin.svg">
  <metadata
     id="metadata2990">
    <rdf:RDF>
      <cc:Work
         rdf:about="">
        <dc:format>image/svg+xml</dc:format>
        <dc:type
           rdf:resource="http://purl.org/dc/dcmitype/StillImage" />
      </cc:Work>
    </rdf:RDF>
  </metadata>
  <sodipodi:namedview
     pagecolor="#ffffff"
     bordercolor="#666666"
     borderopacity="1"
     objecttolerance="10"
     gridtolerance="10"
     guidetolerance="10"
     inkscape:pageopacity="0"
     inkscape:pageshadow="2"
     inkscape:window-width="1215"
     inkscape:window-height="1000"
     id="namedview2988"
     showgrid="false"
     inkscape:zoom="2.2250294"
     inkscape:cx="129.01005"
     inkscape:cy="139.3918"
     inkscape:window-x="65"
     inkscape:window-y="24"
     inkscape:window-maximized="1"
     inkscape:current-layer="svg2" />
  <defs
     id="defs5" />
  <path
     style="fill:#000000"
     d="m 141.3767,277.83096 c -0.15931,-8.63435 -0.8662,-24.29906 -1.57085,-34.81046 -0.70464,-10.51137 -1.76042,-29.55473 -2.34617,-42.31857 -1.30426,-28.42105 -1.10706,-27.30231 -4.81247,-27.30231 -1.99884,0 -2.6637,18.03839 -1.93714,52.55695 0.60844,28.90633 0.4764,54.12406 -0.29342,56.03941 -1.86488,4.64 -9.56988,-0.98592 -9.90132,-7.22954 -0.1502,-2.82943 -0.78333,-3.20387 -1.74291,-1.03082 -0.82889,1.87701 -3.81479,3.41278 -6.63535,3.41278 -4.40148,0 -5.76923,-5.60295 -9.65071,-39.53364 -2.487351,-21.7435 -5.445753,-40.37732 -6.574243,-41.40852 -5.196953,-4.74881 -6.496731,5.40939 -6.015213,47.01092 0.518208,44.77162 -0.897478,51.36234 -9.612917,44.75291 -3.485238,-2.64308 -4.350944,-12.19642 -4.350944,-48.01411 0,-24.59296 -1.179912,-44.7145 -2.622027,-44.7145 -7.573565,0 -10.031302,10.13528 -11.570769,47.71587 -1.168233,28.51825 -2.645447,39.65152 -5.26114,39.65152 -9.853864,0 -8.093722,-70.87292 2.168113,-87.30011 3.26004,-5.2187 8.483006,-11.12424 11.606585,-13.12343 8.684737,-5.55848 7.281325,-13.71501 -2.537425,-14.74737 -8.033712,-0.84468 -8.23629,-1.30811 -9.097958,-20.81315 -0.846753,-19.16739 -0.524726,-20.2536 8.216665,-27.71514 8.471513,-7.23119 12.219612,-16.49605 6.673476,-16.49605 -1.333463,0 -5.367098,-2.505065 -8.963634,-5.566814 -5.474537,-4.660506 -6.539153,-8.555498 -6.539153,-23.924061 0,-16.27346 0.827524,-18.925104 7.290141,-23.359827 5.525835,-3.791896 7.782977,-8.606972 9.326548,-19.895963 1.513002,-11.065424 3.170237,-14.682906 6.447796,-14.074495 2.950846,0.547768 4.782831,5.159963 5.533287,13.930579 1.339736,15.657512 2.822551,18.285965 10.315853,18.285965 8.089419,0 11.880309,8.21904 11.880309,25.757705 0,15.400545 -3.609,21.57923 -16.435805,28.138481 -4.242858,2.16968 -4.549239,3.67832 -1.725957,8.49877 1.887939,3.22345 5.354819,5.86082 7.704177,5.86082 6.444505,0 9.706795,7.92144 10.059065,24.42533 0.35641,16.69835 -5.36565,27.44907 -14.609757,27.44907 -9.176757,0 -7.415263,9.85313 2.476789,13.8542 9.499958,3.84247 15.335628,17.09847 15.817188,35.92951 0.16379,6.40555 1.37432,14.718 2.69004,18.47207 2.88055,8.21891 2.8596,8.412 3.80702,-35.05111 0.65492,-30.04339 0.91698,-31.14597 8.89147,-37.40972 11.21845,-8.81179 10.66867,-15.84798 -1.49394,-19.11988 -5.34082,-1.43675 -9.71059,-3.84088 -9.71059,-5.34251 0,-1.50163 4.36977,-3.11522 9.71059,-3.58577 9.66791,-0.85178 11.55642,-3.85835 7.89699,-12.57232 -1.16068,-2.76388 -5.46334,-4.31864 -11.95151,-4.31864 -12.58156,0 -14.02438,-7.3085 -1.92124,-9.73183 14.08818,-2.82078 15.68636,-3.62861 15.68636,-7.92898 0,-3.057723 -3.21099,-4.181039 -11.9515,-4.181039 -8.22368,0 -11.95152,-1.186279 -11.95152,-3.803242 0,-4.401985 6.36324,-7.117682 16.67771,-7.117682 8.85967,0 10.1694,-9.699115 1.6436,-12.171756 -13.12913,-3.807698 -22.17284,-24.675263 -14.54426,-33.559613 4.95876,-5.775035 7.3318,-3.863702 9.32184,7.508136 2.66431,15.224937 10.80413,15.08971 10.80413,-0.17948 0,-14.491273 -4.4274,-21.662359 -13.37424,-21.662359 -7.51545,0 -12.48401,-4.034003 -8.05162,-6.537157 1.41606,-0.799701 8.02257,-2.25004 14.68116,-3.222977 15.30169,-2.235845 17.16687,1.051333 18.31866,32.284539 0.56843,15.414304 6.35331,12.306858 6.35331,-3.412787 0,-11.831002 0.79678,-13.651157 5.97576,-13.651157 4.81029,0 5.97575,1.820155 5.97575,9.332513 0,5.132877 0.71728,11.040501 1.59394,13.128049 2.04518,4.870075 -8.21074,15.762673 -14.84134,15.762673 -3.72711,0 -4.82544,1.903898 -4.13136,7.161482 0.89306,6.764724 2.02139,7.225621 20.36666,8.319179 14.04891,0.837457 21.07421,0.04324 25.39694,-2.871142 5.97578,-4.02884 5.97578,-4.02884 0,-5.984772 -10.60924,-3.472527 -16.29636,-12.65251 -16.36689,-26.418923 -0.0581,-11.333081 0.71713,-12.968596 6.14672,-12.968596 5.32158,0 5.93617,1.1524 4.28292,8.03056 -1.91642,7.972949 2.31039,19.271749 7.20944,19.271749 3.68877,0 5.75899,-19.380227 2.84354,-26.619751 -1.37948,-3.425493 -4.98826,-6.143021 -8.15774,-6.143021 -6.29268,0 -13.45987,-6.304207 -10.37347,-9.124455 1.0813,-0.988059 7.56515,-1.796469 14.40858,-1.796469 10.00142,0 13.17965,1.258464 16.19938,6.41437 2.06626,3.527903 3.48318,8.749469 3.14872,11.603482 -2.54409,21.708814 4.746,27.809747 7.83173,6.554229 2.35135,-16.196813 8.93875,-18.356443 11.90604,-3.9033 2.84912,13.877507 -1.87441,26.423208 -11.54823,30.672029 -10.43484,4.583066 -10.38372,10.854042 0.10726,13.144065 13.31506,2.906518 15.68636,6.19529 15.68636,21.755643 0,11.79164 1.1448,15.14575 5.97576,17.50826 6.16168,3.01328 8.11307,12.12186 3.19231,14.90082 -1.5309,0.86456 -4.72376,-0.95939 -7.09527,-4.05321 -4.19124,-5.46786 -4.61462,-5.49317 -15.14382,-0.90512 -5.95759,2.59601 -10.832,6.43574 -10.832,8.53275 0,2.09701 4.59748,8.93954 10.2166,15.20564 13.89186,15.4913 16.15258,25.81602 18.77205,85.73146 1.39773,31.97076 1.00829,36.34077 -3.3756,37.87798 -2.72558,0.95571 -5.4546,1.27873 -6.06442,0.71781 -0.60985,-0.56091 -1.91432,-15.14878 -2.89883,-32.4175 -2.51305,-44.07986 -5.8648,-74.4926 -8.65069,-78.49413 -6.61924,-9.50751 -7.99911,0.28006 -7.99911,56.73796 0,51.69593 -0.64808,60.37803 -4.61069,61.76749 -2.53587,0.8892 -5.1274,1.14455 -5.75899,0.56743 -0.63157,-0.57711 -1.65822,-27.72544 -2.28142,-60.32961 -0.62321,-32.60418 -2.13839,-60.19895 -3.36709,-61.32171 -5.74599,-5.2505 -7.79688,10.06691 -7.83909,58.54817 -0.0382,43.92111 -0.7532,52.55695 -4.35122,52.55695 -2.36802,0 -5.01336,-1.04657 -5.87853,-2.32575 -0.86516,-1.27914 -1.76813,-23.70117 -2.00661,-49.82672 -0.46369,-50.79794 1.19119,-58.6764 14.62722,-69.63667 4.56615,-3.7248 6.69772,-8.04252 6.04361,-12.24199 -0.91581,-5.87962 -2.27066,-6.41098 -14.45598,-5.66939 -19.09657,1.16219 -35.85453,6.12723 -35.85453,10.62296 0,2.11169 3.84114,6.79286 8.53588,10.40258 10.63025,8.17346 13.04448,22.04287 13.52882,77.72152 0.29151,33.50934 -0.34383,39.58833 -4.13744,39.58833 -3.64656,0 -4.77795,-6.10579 -6.07083,-32.76276 -0.87396,-18.01953 -2.70507,-34.92851 -4.06912,-37.57547 -1.50367,-2.91786 -1.12252,-6.3074 0.96807,-8.60917 2.62275,-2.88771 2.41013,-7.29095 -0.88817,-18.39431 l -4.33635,-14.59775 -0.62532,31.39765 c -0.34392,17.26872 -0.43983,32.39112 -0.21312,33.60535 1.4004,7.50041 0.34661,53.22695 -1.31764,57.17483 -3.95573,9.38376 -7.35522,4.52454 -7.6402,-10.92091 z M 96.197708,145.7914 c 1.169915,-15.56108 -1.462297,-21.53595 -9.487609,-21.53595 -10.997674,0 -19.191409,10.53225 -17.523238,22.52441 1.387412,9.97381 1.743875,10.23827 13.795799,10.23436 12.358702,-0.003 12.37247,-0.0163 13.215048,-11.22282 z m 81.923102,-13.6368 c 18.63699,-3.55683 20.6293,-4.84881 18.56861,-12.04158 -1.70898,-5.96516 -12.56018,-6.83879 -36.34881,-2.92648 -13.16998,2.16595 -16.66656,7.8114 -9.11304,14.71356 4.41248,4.03199 6.97306,4.05622 26.89324,0.25451 z m 17.91281,-29.02049 c 6.32228,-6.960992 0.23155,-11.655663 -14.6841,-11.318404 -28.71876,0.649361 -42.67796,7.42603 -27.2349,13.221494 9.50033,3.56528 38.13303,2.26538 41.919,-1.90309 z m 23.31756,-0.72051 c 0,-3.00325 -1.34454,-5.460459 -2.98787,-5.460459 -1.64334,0 -2.98788,2.457209 -2.98788,5.460459 0,3.00326 1.34454,5.46047 2.98788,5.46047 1.64333,0 2.98787,-2.45721 2.98787,-5.46047 z M 93.246001,83.708859 C 95.375444,81.229946 96.718204,74.298755 96.233879,68.285716 95.389588,57.803519 94.903918,57.330739 84.14445,56.517137 c -9.883099,-0.747335 -11.582415,0.04787 -14.358126,6.719008 -3.287469,7.90109 -1.594839,18.92727 3.820886,24.890117 3.824945,4.211358 14.238649,1.868978 19.638791,-4.417403 z"
     id="path3140"
     inkscape:connector-curvature="0" />
</svg>
