<?xml version="1.0" encoding="UTF-8" standalone="no"?>
<!-- Created with Inkscape (http://www.inkscape.org/) -->

<svg
   xmlns:dc="http://purl.org/dc/elements/1.1/"
   xmlns:cc="http://creativecommons.org/ns#"
   xmlns:rdf="http://www.w3.org/1999/02/22-rdf-syntax-ns#"
   xmlns:svg="http://www.w3.org/2000/svg"
   xmlns="http://www.w3.org/2000/svg"
   xmlns:sodipodi="http://sodipodi.sourceforge.net/DTD/sodipodi-0.dtd"
   xmlns:inkscape="http://www.inkscape.org/namespaces/inkscape"
   width="300"
   height="300"
   id="svg2"
   version="1.1"
   inkscape:version="0.92.4 (5da689c313, 2019-01-14)"
   sodipodi:docname="image-bigseal.svg">
  <defs
     id="defs4" />
  <sodipodi:namedview
     id="base"
     pagecolor="#ffffff"
     bordercolor="#666666"
     borderopacity="1.0"
     inkscape:pageopacity="0.0"
     inkscape:pageshadow="2"
     inkscape:zoom="1.4142136"
     inkscape:cx="208.9223"
     inkscape:cy="147.6903"
     inkscape:document-units="px"
     inkscape:current-layer="layer1"
     showgrid="false"
     inkscape:window-width="1872"
     inkscape:window-height="1016"
     inkscape:window-x="48"
     inkscape:window-y="27"
     inkscape:window-maximized="1" />
  <metadata
     id="metadata7">
    <rdf:RDF>
      <cc:Work
         rdf:about="">
        <dc:format>image/svg+xml</dc:format>
        <dc:type
           rdf:resource="http://purl.org/dc/dcmitype/StillImage" />
        <dc:title />
      </cc:Work>
    </rdf:RDF>
  </metadata>
  <g
     inkscape:label="Calque 1"
     inkscape:groupmode="layer"
     id="layer1"
     transform="translate(0,-752.36218)">
    <path
       style="fill:#000000;stroke-width:6.03398037"
       d="m 88.543586,989.67018 c -0.173,-50.75527 -1.05269,-55.08411 -9.04225,-44.50057 -4.99536,6.61714 -8.93043,25.03333 -9.03387,42.27859 -0.14768,24.6477 -1.42982,28.4061 -6.63128,19.4413 -9.15872,-15.78511 -0.79982,-63.14166 13.27667,-75.21758 13.93526,-11.95475 15.20118,-25.40545 2.39102,-25.40545 -15.80742,0 -17.16581,-18.09596 -2.81799,-37.53988 l 13.68707,-18.54853 -13.1968,-9.97364 c -13.45981,-10.17235 -12.38457,-20.47558 5.08162,-48.69413 3.08419,-4.98283 7.63697,-14.49552 10.11726,-21.1393 4.18301,-11.20467 4.69389,-11.0004 7.05362,2.81944 1.399264,8.1945 7.703634,21.47106 14.009814,29.50358 14.91905,19.00308 14.46302,27.51551 -2.09755,39.15179 -9.04515,6.35556 -11.353884,11.1279 -6.93059,14.32622 20.65943,14.93823 24.59841,50.09445 5.61276,50.09445 -12.964474,0 -11.484854,13.50167 2.82486,25.77769 9.64079,8.27066 12.05633,17.81704 12.05633,47.64743 0,43.82941 -8.63606,42.37271 -9.494,-1.60151 -0.3219,-16.48884 -3.74247,-33.1434 -7.60176,-37.01008 -5.33709,-5.3474 -7.01689,5.4636 -7.01689,45.15933 0,28.70437 -2.712684,53.86957 -6.028174,55.92257 -3.84898,2.3834 -6.09749,-16.5923 -6.21987,-52.49172 z m 21.213304,-95.35846 c 5.0636,-8.20893 -8.28534,-31.55753 -16.477924,-28.82144 -3.68304,1.23007 -9.60287,6.90838 -13.15528,12.61859 -4.90252,7.88043 -4.27999,11.77368 2.58344,16.15743 11.69868,7.47208 22.457504,7.49014 27.049764,0.0483 z m 3.09106,-68.84302 c 0,-4.57606 -4.06901,-11.70362 -9.04225,-15.83901 -7.214024,-5.99867 -10.870464,-5.99867 -18.084494,0 -15.11992,12.57262 -10.7833,24.15919 9.04225,24.15919 11.341934,0 18.084494,-3.1021 18.084494,-8.32018 z m 30.87591,97.6197 c -0.69281,-117.92231 -0.0651,-125.47266 10.92497,-131.36563 14.9278,-8.00449 82.89677,-8.16901 87.80473,-0.2126 2.17363,3.52374 -3.95617,6.0398 -14.71464,6.0398 -24.01899,0 -24.44591,14.69761 -0.783,26.95774 24.24101,12.5597 27.93025,29.21873 14.9463,67.49065 -9.60221,28.3037 -10.08319,37.42259 -3.88449,73.64061 3.89118,22.73519 8.80582,45.85613 10.92141,51.38003 2.11558,5.5238 0.96656,10.0433 -2.55341,10.0433 -14.24143,0 -21.84783,-117.91708 -10.24077,-158.75633 9.06552,-31.8969 -30.45304,-54.19989 -54.084,-30.52333 -7.23573,7.24969 -8.88028,15.20985 -5.92696,28.68905 12.81613,58.4937 6.35508,160.59061 -10.1627,160.59061 -3.77014,0 -4.79101,-6.6753 -2.54009,-16.6095 14.63729,-64.59973 16.21065,-90.52194 7.08756,-116.77224 -5.0985,-14.67007 -9.30948,-32.36698 -9.35777,-39.32634 -0.0904,-13.01148 16.97574,-32.64505 28.37579,-32.64505 5.42343,0 13.73367,-13.0903 13.73367,-21.6333 0,-5.74977 -40.32464,-1.98612 -46.65289,4.35434 -4.77835,4.78756 -5.93419,31.88379 -3.80004,89.08703 1.68681,45.21376 0.49613,98.51426 -2.64582,118.44556 -4.66477,29.591 -5.84762,13.2874 -6.44785,-88.87452 z m 60.27131,106.9939 c -1.06771,-6.6438 -1.42988,-46.73289 -0.80482,-89.08698 1.09834,-74.42186 0.71392,-77.00744 -11.44803,-77.00744 -6.92149,0 -12.58452,-2.71791 -12.58452,-6.0398 0,-3.32189 12.20704,-6.0398 27.12675,-6.0398 14.91972,0 27.12675,2.71791 27.12675,6.0398 0,3.32189 -5.35283,6.0398 -11.8952,6.0398 -11.22053,0 -11.99967,5.05241 -13.73741,89.08704 -1.01327,48.99778 -2.71587,83.65118 -3.78352,77.00738 z"
       id="path325"
       inkscape:connector-curvature="0" />
  </g>
</svg>
