<?xml version="1.0" encoding="UTF-8" standalone="no"?>
<!-- Created with Inkscape (http://www.inkscape.org/) -->

<svg
   xmlns:dc="http://purl.org/dc/elements/1.1/"
   xmlns:cc="http://creativecommons.org/ns#"
   xmlns:rdf="http://www.w3.org/1999/02/22-rdf-syntax-ns#"
   xmlns:svg="http://www.w3.org/2000/svg"
   xmlns="http://www.w3.org/2000/svg"
   xmlns:sodipodi="http://sodipodi.sourceforge.net/DTD/sodipodi-0.dtd"
   xmlns:inkscape="http://www.inkscape.org/namespaces/inkscape"
   width="300"
   height="300"
   id="svg2"
   version="1.1"
   inkscape:version="0.92.4 (5da689c313, 2019-01-14)"
   sodipodi:docname="image-bigseal.svg">
  <defs
     id="defs4" />
  <sodipodi:namedview
     id="base"
     pagecolor="#ffffff"
     bordercolor="#666666"
     borderopacity="1.0"
     inkscape:pageopacity="0.0"
     inkscape:pageshadow="2"
     inkscape:zoom="2"
     inkscape:cx="360.79834"
     inkscape:cy="105.95006"
     inkscape:document-units="px"
     inkscape:current-layer="layer1"
     showgrid="false"
     inkscape:window-width="1872"
     inkscape:window-height="1016"
     inkscape:window-x="48"
     inkscape:window-y="27"
     inkscape:window-maximized="1" />
  <metadata
     id="metadata7">
    <rdf:RDF>
      <cc:Work
         rdf:about="">
        <dc:format>image/svg+xml</dc:format>
        <dc:type
           rdf:resource="http://purl.org/dc/dcmitype/StillImage" />
        <dc:title />
      </cc:Work>
    </rdf:RDF>
  </metadata>
  <g
     inkscape:label="Calque 1"
     inkscape:groupmode="layer"
     id="layer1"
     transform="translate(0,-752.36218)">
    <path
       style="fill:#000000;stroke-width:5.95641375"
       d="m 149.12693,851.87758 c -5.32969,-0.0727 -12.79626,-3.87791 -16.59227,-8.45568 -1.7617,-2.12443 -5.43094,-4.38709 -4.09248,-12.06879 1.22814,-7.04859 2.47846,-7.44629 6.97283,-11.94435 13.63898,-13.65021 34.51264,-1.59995 30.80976,17.78631 -0.5796,3.03442 -0.77166,5.63997 -5.83828,10.54495 -5.86843,2.41773 -9.22516,4.16537 -11.25956,4.13756 z m 19.48151,-3.64396 c 1.58562,-0.98077 6.97301,-4.66058 6.97301,-4.66058 l -0.93512,-25.90227 c 0,0 -7.61749,-6.33266 -10.01008,-9.9872 -10.62384,-16.2274 -6.51537,-31.4337 9.90181,-36.64859 24.05331,-7.64051 38.82637,23.99008 20.00313,42.82877 -2.63009,2.63225 -7.67699,6.70672 -7.67699,6.70672 l 3.13066,24.44579 c 0,0 8.66569,4.73414 13.71443,6.82711 40.15148,16.64492 48.40302,65.42054 17.62476,104.18173 -19.64007,24.7341 -21.81957,40.0032 -8.93095,62.5681 4.67993,8.1934 8.6039,16.9083 8.71993,19.3663 0.35605,7.5444 -9.82833,4.9642 -17.65357,-4.4724 -4.07811,-4.9179 -8.68529,-20.3364 -10.23808,-34.26354 -2.42935,-21.78756 -0.17088,-28.64871 16.18091,-49.15732 16.26035,-20.3939 18.54722,-27.26822 15.83815,-47.60998 -5.61328,-42.14874 -45.28498,-57.09875 -76.49831,-28.82783 -5.9657,5.40326 -12.79966,7.86951 -15.18666,5.48054 -1.94656,-9.85313 26.60603,-25.44596 35.04297,-30.87535 z m -66.85335,1.12256 c 0,0 5.85816,7.75185 12.40753,14.30659 15.45274,15.46545 15.09224,27.66938 -1.07303,36.3279 -4.18355,2.24081 -9.80226,4.91609 -9.80226,4.91609 l 0.37705,9.54823 c 0,0 5.99117,0.33142 7.96268,2.26339 16.55659,16.22453 20.39746,32.80221 20.39746,66.50952 0,41.5371 -9.95432,36.6346 -13.06717,-6.43551 -1.42473,-19.71298 -5.76565,-39.01969 -9.64656,-42.9038 -1.81879,-1.82028 -6.75466,-3.29324 -6.75466,-3.29324 0,0 -0.30145,21.47647 -0.30145,48.07342 0,30.58883 -2.440885,51.84213 -5.953955,51.84213 -3.513088,0 -5.953973,-21.2533 -5.953973,-51.84213 0,-25.25977 -0.567502,-48.24272 -0.567502,-48.24272 -5.598889,-2.19267 -14.828976,11.04917 -17.121085,47.63093 -1.661292,26.51402 -5.453659,34.34932 -8.837719,26.74552 -8.30036,-18.65089 -3.079489,-63.54979 15.700621,-85.68354 2.650987,-3.12438 11.56624,-4.14871 11.56624,-4.14871 l 1.766535,-10.055 -13.161486,-3.44464 c -16.810489,-4.39967 -17.477216,-26.09303 -1.25355,-40.78727 3.203676,-2.90166 10.780686,-8.86624 10.780686,-8.86624 l 0.915379,-10.34058 c 0,0 -4.385181,-1.64919 -7.528279,-1.64919 -4.257093,0 -10.829913,-3.09229 -14.60628,-6.87175 -7.759685,-7.76607 2.137224,-34.58844 20.279718,-38.12608 0,0 2.066722,-9.83572 2.066722,-17.86629 0,-8.03058 2.679279,-14.60106 5.953973,-14.60106 3.27468,0 5.953955,6.28815 5.953955,13.97359 0,4.58027 1.82991,17.96402 1.82991,17.96402 0,0 7.43184,4.39824 10.07803,6.79498 6.54936,5.93199 11.90794,14.58354 11.90794,19.22579 0,2.83441 -1.87124,7.96655 -4.24794,11.15758 -4.03792,5.4214 -19.56494,10.73389 -19.56494,10.73389 z m 4.96465,39.18912 c 5.85745,-3.72238 5.61804,-7.19198 -1.12465,-16.29563 -7.973785,-10.76593 -9.258525,-10.88428 -18.565952,-1.71013 -15.926335,15.69832 0.165514,30.41348 19.690602,18.00576 z m 49.12066,-54.67683 c 0,-3.27737 -4.17707,-5.95886 -9.28237,-5.95886 -5.10528,0 -7.62643,2.68149 -5.60255,5.95886 2.02386,3.27738 6.20093,5.95886 9.28235,5.95886 3.08142,0 5.60257,-2.68148 5.60257,-5.95886 z m -41.67778,-11.18811 c 0,-9.28295 -17.442445,-20.04233 -26.717064,-16.48042 -16.604838,6.37711 -10.350856,21.70967 8.855169,21.70967 9.824025,0 17.861895,-2.35315 17.861895,-5.22925 z m 76.26813,-29.03419 c -2.4169,-12.56033 -12.9837,-11.76833 -15.6765,1.17497 -1.12322,5.3986 2.15884,9.25303 7.87901,9.25303 6.13234,0 9.05259,-3.90543 7.79749,-10.428 z m -42.95521,227.25413 c -4.91368,-12.8154 7.08094,-56.23658 19.32414,-69.95441 13.4221,-15.03873 41.21951,-28.83474 45.17913,-22.42271 1.77572,2.87551 -5.9629,11.5314 -17.19679,19.23532 -23.03036,15.7936 -32.98765,33.55613 -32.98765,58.8457 0,19.6896 -8.85939,28.5349 -14.31883,14.2961 z m -5.63561,-82.90975 c 3.18901,-8.31725 48.44006,-38.57462 57.68985,-38.57462 11.62333,0 0.46322,12.30076 -26.22312,28.90357 -34.59,21.52001 -36.19959,22.01471 -31.46673,9.67105 z m -6.35889,-25.88034 c -4.18291,-6.77367 28.44068,-33.07811 48.6407,-39.21907 20.50999,-6.23517 16.19373,6.92402 -5.95397,18.15206 -10.64271,5.39545 -23.77317,13.68345 -29.17872,18.41776 -6.11455,5.35523 -11.21878,6.35632 -13.50801,2.64925 z m 69.41005,-67.28744 c -9.64936,-9.65729 -9.3023,-14.13091 1.97154,-25.41401 12.83943,-12.84998 33.79788,-1.86738 31.20611,16.35261 -2.11967,14.90155 -21.93483,20.31345 -33.17765,9.0614 z m 22.39693,-10.9543 c 0,-3.27737 -2.67929,-5.95886 -5.95397,-5.95886 -3.27469,0 -5.95397,2.68149 -5.95397,5.95886 0,3.27738 2.67928,5.95886 5.95397,5.95886 3.27468,0 5.95397,-2.68148 5.95397,-5.95886 z"
       id="path278"
       inkscape:connector-curvature="0"
       sodipodi:nodetypes="ccsssccccccssccssccccsscccccsccassccssscscaccssccsccsssccssccccccsscssscssccscssccsscssccssccsscssssss" />
  </g>
</svg>
