<?xml version="1.0" encoding="UTF-8" standalone="no"?>
<!-- Created with Inkscape (http://www.inkscape.org/) -->

<svg
   xmlns:dc="http://purl.org/dc/elements/1.1/"
   xmlns:cc="http://creativecommons.org/ns#"
   xmlns:rdf="http://www.w3.org/1999/02/22-rdf-syntax-ns#"
   xmlns:svg="http://www.w3.org/2000/svg"
   xmlns="http://www.w3.org/2000/svg"
   xmlns:sodipodi="http://sodipodi.sourceforge.net/DTD/sodipodi-0.dtd"
   xmlns:inkscape="http://www.inkscape.org/namespaces/inkscape"
   width="300"
   height="300"
   id="svg2"
   version="1.1"
   inkscape:version="0.48.4 r9939"
   sodipodi:docname="image-seal.svg">
  <defs
     id="defs4" />
  <sodipodi:namedview
     id="base"
     pagecolor="#ffffff"
     bordercolor="#666666"
     borderopacity="1.0"
     inkscape:pageopacity="0.0"
     inkscape:pageshadow="2"
     inkscape:zoom="2.0018437"
     inkscape:cx="123.3515"
     inkscape:cy="143.3195"
     inkscape:document-units="px"
     inkscape:current-layer="layer1"
     showgrid="false"
     inkscape:window-width="1215"
     inkscape:window-height="1000"
     inkscape:window-x="65"
     inkscape:window-y="24"
     inkscape:window-maximized="1"
     fit-margin-top="10"
     fit-margin-left="10"
     fit-margin-right="10"
     fit-margin-bottom="10" />
  <metadata
     id="metadata7">
    <rdf:RDF>
      <cc:Work
         rdf:about="">
        <dc:format>image/svg+xml</dc:format>
        <dc:type
           rdf:resource="http://purl.org/dc/dcmitype/StillImage" />
        <dc:title />
      </cc:Work>
    </rdf:RDF>
  </metadata>
  <g
     inkscape:label="Calque 1"
     inkscape:groupmode="layer"
     id="layer1"
     transform="translate(0,-752.36218)">
    <path
       style="fill:#000000"
       d="m 97.84085,1033.0034 c -1.00889,-8.1544 -2.65406,-28.5426 -3.65592,-45.30723 -1.54096,-25.78558 -2.51528,-30.34801 -6.32511,-29.61791 -5.34172,1.02362 -9.80198,30.01638 -8.95398,58.20284 0.58661,19.4986 -3.31793,28.348 -10.04448,22.7654 C 66.00315,1036.6746 65,1027.3627 65,1003.2024 c 0,-27.48156 0.97212,-34.79074 6.15149,-46.25096 4.08257,-9.03339 7.88175,-13.61116 11.29615,-13.61116 8.8134,0 6.60353,-13.54561 -3.12034,-19.12633 -9.20687,-5.28403 -10.80974,-10.25239 -10.07116,-31.21705 0.53888,-15.29618 4.74469,-23.0816 12.46905,-23.0816 7.00797,0 11.51519,-5.74793 11.51519,-14.68499 0,-6.79481 -1.1227,-7.90731 -7.97986,-7.90731 -13.38269,0 -20.27594,-10.19576 -20.17072,-29.8344 0.0932,-17.39825 4.27786,-26.64635 12.05704,-26.64635 6.44623,0 8.86538,-5.34051 8.95474,-19.76827 0.0666,-10.75512 0.99623,-12.83912 6.04903,-13.56029 5.19648,-0.74171 6.16764,0.89827 7.492454,12.65194 1.251586,11.10398 3.327476,15.01982 11.680026,22.03241 9.07442,7.61866 10.15789,9.97896 10.15778,22.12817 -1.2e-4,14.7569 -3.60497,23.85061 -11.74444,29.62687 -8.20171,5.82045 -6.59599,17.9561 3.24832,24.5502 4.63761,3.10644 9.21706,7.5543 10.17659,9.88413 6.61257,16.05604 2.37408,40.64149 -7.44939,43.21041 -7.8033,2.04059 -6.96981,12.08462 1.72427,20.77867 3.98839,3.98839 8.57632,10.60243 10.1954,14.69785 8.84734,22.37903 15.56206,69.44846 10.92905,76.61166 -5.07781,7.8508 -9.38331,-1.6668 -10.8099,-23.896 -0.75521,-11.76771 -2.47491,-22.07689 -3.82158,-22.90913 -1.34664,-0.83253 -2.44844,-5.09569 -2.44844,-9.4738 0,-9.77117 -7.49528,-28.41871 -11.42269,-28.41871 -5.72032,0 -6.25423,9.70212 -2.83158,51.45584 2.89549,35.3234 2.84327,42.8971 -0.30943,44.8954 -6.39709,4.0545 -7.179966,2.9904 -9.0762,-12.3362 z m 12.34375,-139.413 0,-15.20299 -10.590136,0.0432 c -15.067574,0.0616 -18.192764,2.9263 -17.139654,15.71148 1.01431,12.31424 8.75525,18.27847 20.74795,15.98592 6.39653,-1.22276 6.98184,-2.60916 6.98184,-16.53765 z m -6.22838,-65.36769 c 2.01063,-2.69721 3.28144,-9.35189 2.82403,-14.78816 -0.80024,-9.51034 -1.3001,-9.91768 -13.21754,-10.77128 -6.81223,-0.48791 -13.69407,0.4211 -15.29301,2.02004 -3.98412,3.98412 -2.7954,26.22429 1.55732,29.13599 5.19143,3.47269 19.913984,0.0579 24.1292,-5.59659 z m 50.22198,200.54459 c -3.71135,-35.16579 -5.05303,-119.31547 -1.90236,-119.31547 1.70134,0 3.09337,-1.77028 3.09337,-3.93391 0,-4.74089 6.07992,-7.36224 17.07582,-7.36224 5.13568,0 9.21218,-2.00001 11.04083,-5.4169 3.49012,-6.52133 0.73922,-22.82348 -3.85134,-22.82348 -1.79798,0 -11.79098,7.07357 -22.20668,15.71902 -10.4157,8.64548 -20.25976,14.90194 -21.87564,13.90324 -4.3961,-2.71692 18.1201,-28.17347 29.8372,-33.73361 10.66755,-5.06208 16.65329,-15.71921 13.82827,-24.62004 -1.2057,-3.79887 -3.32661,-4.88053 -7.17478,-3.65916 -5.85672,1.85884 -20.62968,-5.96705 -28.21245,-14.94537 -4.00623,-4.74354 -11.05354,-26.67547 -11.05354,-34.39969 0,-1.64204 1.77025,-2.98552 3.93392,-2.98552 4.19683,0 7.36223,5.89368 7.36223,13.70771 0,7.23939 16.58459,25.82882 23.04322,25.82882 3.69856,0 6.78207,-2.89907 8.81665,-8.28934 1.72088,-4.55913 6.37605,-9.9601 10.34484,-12.00216 3.96876,-2.04206 9.6795,-5.93675 12.69052,-8.65489 3.01102,-2.71813 7.14117,-4.94206 9.17812,-4.94206 2.03695,0 3.70356,-2.45019 3.70356,-5.44486 0,-4.48742 -2.7542,-5.789 -15.66262,-7.4018 -8.61442,-1.0763 -22.2757,-2.2435 -30.35841,-2.5938 -28.06209,-1.2162 -27.40395,-1.0145 -27.40395,-8.39719 0,-3.79138 0.95311,-7.47681 2.11803,-8.18979 1.16491,-0.71299 10.37834,-0.45529 20.47427,0.57263 10.09594,1.02795 24.07492,1.05644 31.06442,0.0633 14.78443,-2.10069 29.09083,2.6588 33.66114,11.19849 5.23523,9.78213 3.73027,24.12943 -3.01548,28.74769 -3.33677,2.28442 -9.37007,6.90014 -13.40734,10.25719 l -7.34052,6.10367 7.05326,5.60227 c 3.87929,3.08125 10.0301,8.21047 13.66845,11.39827 3.63838,3.18777 7.50276,6.18041 8.58753,6.65027 1.08477,0.46986 6.05056,6.95439 11.03504,14.41008 11.55718,17.28689 12.42283,35.27135 1.1554,24.00392 -1.86386,-1.86386 -3.38884,-5.05249 -3.38884,-7.08579 0,-2.03334 -3.81246,-7.68633 -8.47212,-12.56223 -4.65966,-4.87587 -8.47211,-9.84394 -8.47211,-11.04009 0,-1.19618 -4.20669,-4.77477 -9.34819,-7.95238 -11.59264,-7.16467 -26.53036,-5.02789 -20.66495,2.95601 1.8988,2.58461 7.19376,5.12625 11.76655,5.64807 9.75335,1.11307 13.84883,10.83295 4.56444,10.83295 -12.30261,0 -14.55823,2.83364 -14.55823,18.2889 l 0,14.86053 10.59014,1.75046 c 5.82458,0.96274 14.14558,1.76443 18.4911,1.78151 4.83359,0.0198 10.51846,2.85547 14.64325,7.30618 7.25654,7.82993 7.26055,7.865 11.54718,101.07799 2.75993,60.0151 -7.56167,52.0883 -11.69326,-8.98013 -1.25323,-18.524 -3.37479,-30.52551 -5.83006,-32.98078 -2.12294,-2.12294 -3.8599,-5.2215 -3.8599,-6.88565 0,-1.66418 -1.25912,-3.02576 -2.79808,-3.02576 -1.53893,0 -5.66909,-4.43213 -9.17812,-9.84917 -3.50901,-5.41704 -8.60397,-9.8649 -11.32211,-9.88413 -2.71813,-0.0198 -4.94206,-1.30578 -4.94206,-2.859 0,-6.32517 -5.8923,-2.07471 -14.5321,10.48282 -5.03546,7.31878 -12.74079,17.05866 -17.12296,21.64419 -5.40346,5.65423 -7.41446,10.08006 -6.24884,13.75273 2.43401,7.66895 2.44466,55.93348 0.0141,63.55158 -3.4558,10.8319 -6.69799,7.0553 -8.48572,-9.8841 z m 20.35515,-90.13189 c 6.49286,-10.17165 11.8328,-34.83166 7.54255,-34.83166 -1.26576,0 -6.52174,1.52611 -11.67999,3.39136 -9.37002,3.38823 -9.37863,3.40898 -9.37863,22.5923 0,22.22947 3.5083,24.52609 13.51607,8.848 z m 56.83359,-15.33834 c 1.90673,-6.36408 3.061,-11.8467 2.56504,-12.18355 -0.49595,-0.33685 -6.09181,-2.25316 -12.43522,-4.25845 -12.40899,-3.92276 -21.29497,-3.41757 -22.86539,1.29996 -1.31673,3.9556 13.20557,21.19147 20.27193,24.05979 8.64927,3.51081 8.76471,3.42824 12.46364,-8.91775 z m -45.63933,94.67703 c -7.10533,-3.8548 -7.7661,-5.6173 -7.7661,-20.71433 0,-9.07561 -0.71432,-20.15459 -1.58737,-24.62024 -0.97991,-5.01182 0.0198,-10.28046 2.61306,-13.76704 4.11349,-5.53113 4.26184,-5.4873 7.16557,2.11803 4.67243,12.23782 19.99292,10.31635 24.16029,-3.03028 1.90041,-6.08625 2.41057,-6.23257 7.06032,-2.02461 7.20864,6.52375 10.17351,38.29282 4.58268,49.10407 -4.7395,9.1654 -15.95135,17.428 -23.42093,17.2606 -2.77278,-0.062 -8.53616,-2.009 -12.80752,-4.3262 z m 24.45289,-22.01 c 2.73562,-14.5822 -0.0915,-18.73551 -12.75287,-18.73551 -10.6318,0 -10.99401,0.31827 -10.99401,9.65341 0,15.088 2.38998,18.587 12.69603,18.587 8.28536,0 9.45671,-1.0074 11.05085,-9.5049 z"
       id="path3197"
       inkscape:connector-curvature="0" />
  </g>
</svg>
