<?xml version="1.0" encoding="UTF-8" standalone="no"?>
<!-- Created with Inkscape (http://www.inkscape.org/) -->

<svg
   xmlns:dc="http://purl.org/dc/elements/1.1/"
   xmlns:cc="http://creativecommons.org/ns#"
   xmlns:rdf="http://www.w3.org/1999/02/22-rdf-syntax-ns#"
   xmlns:svg="http://www.w3.org/2000/svg"
   xmlns="http://www.w3.org/2000/svg"
   xmlns:sodipodi="http://sodipodi.sourceforge.net/DTD/sodipodi-0.dtd"
   xmlns:inkscape="http://www.inkscape.org/namespaces/inkscape"
   width="300"
   height="300"
   id="svg2"
   version="1.1"
   inkscape:version="0.48.4 r9939"
   sodipodi:docname="dessin.svg">
  <defs
     id="defs4" />
  <sodipodi:namedview
     id="base"
     pagecolor="#ffffff"
     bordercolor="#666666"
     borderopacity="1.0"
     inkscape:pageopacity="0.0"
     inkscape:pageshadow="2"
     inkscape:zoom="1.979899"
     inkscape:cx="218.29155"
     inkscape:cy="144.09165"
     inkscape:document-units="px"
     inkscape:current-layer="layer1"
     showgrid="false"
     inkscape:window-width="1215"
     inkscape:window-height="1000"
     inkscape:window-x="65"
     inkscape:window-y="24"
     inkscape:window-maximized="1" />
  <metadata
     id="metadata7">
    <rdf:RDF>
      <cc:Work
         rdf:about="">
        <dc:format>image/svg+xml</dc:format>
        <dc:type
           rdf:resource="http://purl.org/dc/dcmitype/StillImage" />
        <dc:title />
      </cc:Work>
    </rdf:RDF>
  </metadata>
  <g
     inkscape:label="Calque 1"
     inkscape:groupmode="layer"
     id="layer1"
     transform="translate(0,-752.36218)">
    <path
       style="fill:#000000"
       d="m 207.74753,1032.9531 c -5.43119,-2.1343 -16.89501,-10.408 -25.47522,-18.3861 -14.69629,-13.665 -15.71845,-15.49896 -17.63877,-31.64783 -1.12113,-9.42826 -3.26205,-17.82331 -4.75756,-18.65568 -4.45421,-2.47915 -10.53424,3.83162 -12.44991,12.92238 -0.98539,4.67607 -3.80561,11.97834 -6.26718,16.22725 -3.06857,5.29666 -3.52524,8.58108 -1.4526,10.44768 4.58663,4.1306 3.61322,14.8514 -1.5092,16.6216 -2.49268,0.8614 -5.08402,1.0693 -5.75853,0.4618 -2.6926,-2.4249 -2.20126,-22.98034 0.93755,-39.22385 3.89403,-20.15158 13.44694,-29.72132 28.44354,-28.49365 8.23956,0.67453 8.85853,1.49318 9.54461,12.62374 0.82982,13.46295 6.43861,31.73982 9.74028,31.73982 1.20523,0 3.13077,-6.24877 4.27899,-13.88617 3.31024,-22.01768 3.8337,-23.5439 9.37295,-27.32796 8.98462,-6.13773 17.29749,-4.32772 26.21198,5.70733 19.87321,22.37118 26.94447,43.44174 14.57903,43.44174 -3.72326,0 -16.45662,-24.5195 -16.45662,-31.68905 0,-2.41198 -11.49383,-10.63069 -14.86698,-10.63069 -4.18668,0 -8.62891,14.49603 -8.62891,28.15809 0,12.85755 1.08029,15.59305 8.6837,21.98955 4.77602,4.0179 12.70588,8.8057 17.62192,10.6395 10.86867,4.0544 12.53461,13.3899 2.33,13.0567 -3.63452,-0.1187 -11.05191,-1.962 -16.48307,-4.0962 z M 83.166717,1022.4174 c -0.990998,-0.8924 -1.039428,-20.0871 -0.107493,-42.65476 1.411574,-34.18788 1.018106,-40.83337 -2.358928,-39.84053 -7.541623,2.21722 -12.184205,16.13748 -13.426961,40.25913 -1.556368,30.20846 -2.877542,35.92396 -8.304035,35.92396 -4.876924,0 -5.178083,-2.3601 -4.37329,-34.27005 0.648868,-25.72835 7.325255,-41.86794 20.927524,-50.59066 8.713451,-5.58765 11.578803,-15.64876 4.4567,-15.64876 -2.205177,0 -7.656458,-2.58354 -12.113981,-5.74122 -7.693611,-5.45013 -8.01151,-6.54284 -6.269731,-21.55043 2.085554,-17.96983 5.436449,-22.96305 15.410249,-22.96305 6.022408,0 6.98286,-1.2733 6.98286,-9.25744 0,-5.0916 -1.448022,-9.25745 -3.21785,-9.25745 -1.769828,0 -7.056402,-2.46153 -11.747944,-5.47007 -7.607441,-4.8784 -8.530094,-7.01069 -8.530094,-19.71294 0,-16.46233 4.723172,-27.71668 11.631962,-27.71668 8.028311,0 11.863926,-5.75618 11.863926,-17.80443 0,-8.06451 1.392102,-11.93753 4.701881,-13.08132 6.845203,-2.3656 10.203442,4.1647 8.742085,16.99958 -1.084599,9.52617 -0.465101,11.24118 4.060643,11.24118 2.93729,0 8.19813,2.08389 11.69076,4.63086 5.59664,4.0813 6.24519,6.82275 5.46509,23.1012 -0.83889,17.50591 -1.37224,18.74876 -10.21452,23.80272 -7.60033,4.34409 -9.005436,6.55308 -7.58135,11.91866 2.1632,8.15028 7.58899,13.25112 14.09542,13.25112 4.27211,0 4.78993,2.49831 3.7972,18.32061 -1.22426,19.512 -7.0962,29.2891 -17.59049,29.2891 -8.693719,0 -6.305273,7.10626 6.32917,18.83082 l 11.74795,10.90189 0,24.27942 c 0,15.35737 -1.29513,25.44578 -3.52439,27.45341 -2.74118,2.46864 -2.74118,3.17393 0,3.17393 1.93841,0 3.52439,2.4678 3.52439,5.4839 0,3.7979 -1.58022,5.2109 -5.13973,4.5956 -4.49555,-0.777 -5.24725,-4.8623 -5.99759,-32.59499 -0.62702,-23.17509 -1.99119,-32.73184 -5.0698,-35.51669 -2.31654,-2.09553 -5.234617,-2.88902 -6.484598,-1.76331 -1.249982,1.12571 -2.27267,18.90849 -2.27267,39.51734 0,20.60885 -1.069239,38.95835 -2.37608,40.77685 -2.584518,3.5963 -5.893415,4.2347 -8.726167,1.6835 z M 103.20151,896.10482 c 1.02096,-4.90103 1.41125,-11.74493 0.86735,-15.20867 -0.88309,-5.62352 -2.24652,-6.19891 -12.736881,-5.37495 -6.461369,0.50752 -12.193926,1.30591 -12.739001,1.77421 -2.375669,2.041 -5.750618,20.76279 -4.339778,24.07386 0.990704,2.32499 6.181415,3.64653 14.322946,3.64653 12.173404,0 12.855714,-0.41574 14.625364,-8.91098 z m 1.51258,-69.89356 c 6.73419,-20.24199 1.37548,-26.68758 -19.285276,-23.19694 -9.125422,1.54174 -9.848303,2.46938 -11.779753,15.1164 -2.377695,15.56921 -0.103088,18.01204 16.830781,18.07499 10.081908,0.0376 11.145158,-0.70908 14.234248,-9.99445 z m 58.57405,110.97713 c -17.85749,-3.04924 -20.83172,-5.98907 -21.2105,-20.96505 -0.18856,-7.45465 1.22373,-15.25381 3.1384,-17.33148 8.02843,-8.71192 61.15939,-6.50285 71.68989,2.9807 4.87344,4.3889 5.53411,7.31829 3.88458,17.2244 -1.09315,6.56487 -3.63217,13.16535 -5.64228,14.66773 -4.66977,3.49027 -38.42115,5.71846 -51.86009,3.4237 z m 38.18082,-16.51164 c 0,-2.79455 1.32164,-5.08102 2.93699,-5.08102 4.35719,0 3.56118,-4.34996 -1.65579,-9.04827 -3.20916,-2.89007 -8.29678,-3.78958 -16.88767,-2.98574 -6.76221,0.63274 -16.59024,1.21875 -21.8401,1.30226 -9.07961,0.14442 -9.54521,0.64641 -9.54521,10.29092 0,5.57653 0.54481,10.63506 1.21068,11.24118 0.66588,0.60615 11.23903,0.7105 23.49589,0.23197 19.68638,-0.76871 22.28521,-1.46273 22.28521,-5.95119 z m 16.15342,-31.29551 c -41.91998,-17.99472 -36.18164,-17.16391 -56.70612,-8.21019 -10.05434,4.38618 -19.58118,7.97484 -21.1708,7.97484 -1.58961,0 -2.89019,1.19024 -2.89019,2.64499 0,1.45474 -2.6433,2.64498 -5.87398,2.64498 -6.97431,0 -7.72069,-5.90696 -1.3482,-10.66985 2.48919,-1.86045 11.38088,-6.24289 19.75938,-9.73874 22.61849,-9.43744 26.35741,-16.57089 8.75595,-16.70531 -17.58119,-0.13435 -30.59454,-13.01112 -24.13463,-23.88145 4.103,-6.90428 9.89826,-5.33494 11.12595,3.01288 1.14252,7.7687 8.09457,13.01773 17.24125,13.01773 6.15489,0 6.78112,-1.18913 6.78112,-12.87665 l 0,-12.87667 -11.54543,-1.39461 c -6.5941,-0.79651 -14.97514,-4.25864 -19.54277,-8.07287 -7.84739,-6.55308 -7.93333,-6.96535 -4.5835,-21.98712 1.87765,-8.41983 4.77055,-16.5306 6.42872,-18.02391 2.80115,-2.52264 15.36848,-2.89731 60.08133,-1.79107 25.81306,0.63863 32.331,5.92196 31.42267,25.47076 -0.40836,8.78819 -2.45306,16.58317 -4.93666,18.81985 -2.33179,2.09993 -12.75592,4.53427 -23.16474,5.40963 -18.46196,1.55261 -18.95831,1.79314 -20.28021,9.82839 -1.59241,9.67959 -0.20295,13.93481 5.15482,15.78636 7.85826,2.7157 16.52307,-1.78262 20.67609,-10.73399 5.73361,-12.35813 14.84311,-11.20976 14.1323,1.78158 -0.64552,11.79777 -10.23154,18.45898 -26.6755,18.53646 -22.26584,0.10498 -15.33459,7.12574 16.59421,16.80865 26.22273,7.95248 39.25244,15.99159 32.60031,20.11387 -6.28068,3.8921 -8.25002,3.54706 -27.90137,-4.88854 z m -29.63586,-76.5523 c 1.42673,-2.07899 -0.36874,-8.35456 -7.85787,-27.46508 -1.56052,-3.98204 -3.85066,-6.67604 -5.08925,-5.98668 -2.70972,1.50819 -1.70832,28.43985 1.21592,32.70095 2.42547,3.53434 9.50981,3.98774 11.7312,0.75081 z m -31.88039,-23.23596 c -1.97871,-7.09996 -8.92148,-8.33511 -11.59417,-2.06266 -3.57978,8.40127 -1.64651,16.76253 4.82549,20.87006 6.41473,4.07119 6.63607,3.94871 7.55887,-4.18349 0.52284,-4.60759 0.16741,-11.18837 -0.79019,-14.62391 z m 59.94443,17.73227 c 1.67218,-2.81384 3.04031,-9.36017 3.04031,-14.54742 0,-8.21169 -0.91845,-9.43133 -7.10224,-9.43133 -3.90625,0 -9.02228,-0.66351 -11.36896,-1.47449 -6.50654,-2.24855 -7.59087,4.11869 -3.06636,18.00565 4.47083,13.72213 12.7803,17.06777 18.49725,7.44759 z"
       id="path3171"
       inkscape:connector-curvature="0" />
  </g>
</svg>
