<?xml version="1.0" encoding="UTF-8" standalone="no"?>
<!-- Created with Inkscape (http://www.inkscape.org/) -->

<svg
   xmlns:dc="http://purl.org/dc/elements/1.1/"
   xmlns:cc="http://creativecommons.org/ns#"
   xmlns:rdf="http://www.w3.org/1999/02/22-rdf-syntax-ns#"
   xmlns:svg="http://www.w3.org/2000/svg"
   xmlns="http://www.w3.org/2000/svg"
   xmlns:sodipodi="http://sodipodi.sourceforge.net/DTD/sodipodi-0.dtd"
   xmlns:inkscape="http://www.inkscape.org/namespaces/inkscape"
   width="300"
   height="300"
   id="svg2"
   version="1.1"
   inkscape:version="0.48.4 r9939"
   sodipodi:docname="image-seal.svg">
  <defs
     id="defs4" />
  <sodipodi:namedview
     id="base"
     pagecolor="#ffffff"
     bordercolor="#666666"
     borderopacity="1.0"
     inkscape:pageopacity="0.0"
     inkscape:pageshadow="2"
     inkscape:zoom="1.979899"
     inkscape:cx="118.51252"
     inkscape:cy="115.06794"
     inkscape:document-units="px"
     inkscape:current-layer="layer1"
     showgrid="false"
     inkscape:window-width="1215"
     inkscape:window-height="1000"
     inkscape:window-x="65"
     inkscape:window-y="24"
     inkscape:window-maximized="1" />
  <metadata
     id="metadata7">
    <rdf:RDF>
      <cc:Work
         rdf:about="">
        <dc:format>image/svg+xml</dc:format>
        <dc:type
           rdf:resource="http://purl.org/dc/dcmitype/StillImage" />
        <dc:title />
      </cc:Work>
    </rdf:RDF>
  </metadata>
  <g
     inkscape:label="Calque 1"
     inkscape:groupmode="layer"
     id="layer1"
     transform="translate(0,-752.36218)">
    <path
       style="fill:#000000"
       d="m 160.5591,1041.8014 c -1.03378,-1.8942 1.66432,-25.2047 4.53467,-39.1777 1.44578,-7.0381 0.93414,-8.03938 -4.84975,-9.49106 -9.2867,-2.33079 -11.56711,-8.54551 -11.00357,-29.98752 0.76679,-29.17421 2.53973,-33.32946 15.72543,-36.85611 25.03152,-6.6949 50.49426,-2.0353 53.67042,9.82153 5.12433,19.12948 -1.1349,55.96416 -9.50988,55.96416 -4.48572,0 -4.48586,0.11313 -0.0315,23.3943 2.63951,13.7955 2.91027,20.2395 1.00033,23.8082 -4.04475,7.5577 -6.47966,2.496 -9.49521,-19.7387 -3.72138,-27.43877 -4.11596,-28.24386 -12.97399,-26.47226 -4.02626,0.80524 -8.13045,1.4641 -9.12041,1.4641 -0.98996,0 -3.19035,10.22156 -4.88973,22.71466 -2.77746,20.4189 -5.06542,26.2433 -10.35489,26.3605 -0.93323,0.02 -2.14913,-0.7912 -2.70196,-1.8041 z m 32.0247,-58.68482 c 11.56464,-1.38909 12.89211,-2.15897 12.89211,-7.47684 0,-5.7189 -0.49881,-5.886 -14.11992,-4.73035 -7.76594,0.6589 -17.71132,1.2705 -22.10076,1.35911 -6.0433,0.12203 -7.98082,1.25404 -7.98082,4.66308 0,2.47613 0.73667,5.23872 1.63708,6.1391 2.04272,2.0427 12.90815,2.05948 29.67231,0.0459 z m 17.8034,-24.27009 c 0,-2.0683 -1.48616,-4.33082 -3.30257,-5.02786 -6.14397,-2.35766 -46.59093,2.49584 -47.65845,5.71884 -0.7705,2.32632 5.27595,3.06955 24.97217,3.06955 21.70082,0 25.98885,-0.62047 25.98885,-3.76053 z m -2.30299,-15.055 c 1.45809,-1.45806 1.09831,-3.99401 -0.9674,-6.81907 -2.59864,-3.55386 -6.33662,-4.43387 -17.81259,-4.19354 -20.94471,0.43862 -28.02981,2.38948 -28.02981,7.71786 0,2.48134 1.10293,4.87987 2.45095,5.33008 5.43412,1.81482 42.19544,0.12808 44.35885,-2.03533 z M 88.739649,1002.5111 c 4.69702,-84.11145 4.744119,-79.19432 -0.758565,-79.19432 -2.748517,0 -5.891298,1.38129 -6.983956,3.06955 -3.189947,4.92875 -7.370238,35.70697 -7.921202,58.32145 -0.510144,20.93892 -2.307103,26.58212 -7.452026,23.40232 -3.647074,-2.254 -3.32439,-54.78713 0.43788,-71.2873 3.161772,-13.86656 8.914978,-21.57048 19.330354,-25.88469 9.308163,-3.85557 9.194305,-10.72448 -0.242569,-14.63336 -7.082447,-2.93367 -7.36692,-3.64857 -7.36692,-18.51438 0,-19.83339 1.128179,-22.41252 11.267527,-25.75879 12.301258,-4.0598 11.597048,-12.46452 -1.540772,-18.38884 l -9.918362,-4.47256 0.709713,-18.61508 c 0.689883,-18.09487 0.891284,-18.63606 7.207451,-19.36743 8.592423,-0.99493 15.193748,-8.6378 15.193748,-17.59092 0,-6.81021 4.64653,-11.3618 8.90931,-8.72728 1.05474,0.65187 1.40452,5.62813 0.77726,11.05837 -1.0438,9.03642 -0.65282,9.87569 4.61369,9.90351 3.79824,0.0202 7.54466,2.79627 11.02177,8.16738 4.69044,7.24539 5.00252,9.5956 2.84822,21.44833 -2.64389,14.54632 -4.72055,16.91691 -14.86887,16.97346 -6.21221,0.0346 -6.75301,0.80858 -6.75301,9.66504 0,8.59238 0.75393,9.79302 7.01259,11.16767 5.40831,1.18787 7.7275,3.70645 10.13764,11.00928 2.74073,8.30447 2.5578,10.63066 -1.48739,18.91391 -2.98158,6.10535 -6.56462,9.72213 -10.13359,10.22903 -6.86735,0.97537 -10.57566,12.30456 -5.04135,15.40171 13.33957,7.46523 15.37017,11.11945 15.42263,27.75421 0.0281,8.91935 0.87991,16.21838 1.89286,16.22004 2.98223,0.004 2.10499,45.85134 -1.00807,52.68369 -3.07674,6.7527 -6.51587,8.0977 -8.14457,3.1851 -0.55972,-1.6882 -1.42051,-21.03778 -1.91288,-42.99907 -0.85727,-38.23756 -2.69415,-47.57899 -8.63399,-43.90798 -1.27823,0.79002 -3.04358,14.45146 -3.923,30.35877 -0.87942,15.90732 -2.028431,33.34254 -2.553361,38.74496 -0.524929,5.40241 -1.065941,16.72902 -1.202246,25.17022 -0.223955,13.8687 -0.744092,15.3478 -5.397526,15.3478 -5.02841,0 -5.111749,-0.6796 -3.538426,-28.8538 z M 105.68899,886.18735 c 3.94938,-1.79948 6.55367,-5.50637 7.53189,-10.72075 2.37745,-12.67286 -0.13069,-15.99645 -12.07169,-15.99645 -13.34108,0 -17.134174,4.23274 -14.824752,16.54302 2.420575,12.90278 7.508676,15.57605 19.364552,10.17418 z m 11.3839,-75.82999 0,-14.73385 -14.73384,0 c -15.867329,0 -15.470529,-0.40939 -15.470529,15.96166 0,13.56883 -0.07194,13.50602 15.470529,13.50602 l 14.73384,0 0,-14.73383 z m 51.56843,107.97306 c -22.52146,-4.46643 -26.65001,-8.80294 -28.63684,-30.07951 -2.93682,-31.44982 0.16601,-33.69205 46.6233,-33.69205 41.36865,0 43.40454,1.09326 43.40454,23.30795 0,26.67295 -6.88451,36.82098 -26.64264,39.27224 -22.07404,2.73859 -26.2284,2.88102 -34.74836,1.19137 z m 33.92846,-13.95667 c -0.49961,-2.59429 -4.49282,-5.08 -10.40838,-6.47899 -7.65697,-1.81083 -11.25367,-1.37804 -17.78673,2.14023 -4.50394,2.42553 -8.18899,5.34109 -8.18899,6.479 0,1.13793 8.36881,2.06896 18.59737,2.06896 16.24153,0 18.49466,-0.53319 17.78673,-4.2092 z m -36.14591,-8.30332 c 3.2455,-2.8301 9.08865,-6.80311 12.98476,-8.82892 6.6369,-3.45086 7.92902,-3.25566 20.47847,3.09378 10.84006,5.48457 13.79017,6.137 15.46879,3.42094 2.88966,-4.67558 0.94471,-6.91283 -9.71916,-11.17969 -6.20191,-2.48151 -10.81729,-6.68624 -14.02467,-12.7769 -5.92269,-11.24686 -12.35309,-13.12456 -14.57869,-4.25699 -1.55607,6.19981 -14.83939,18.48389 -19.98744,18.48389 -5.32662,0 -8.51852,6.81384 -5.67811,12.12125 3.44349,6.43417 7.61327,6.41273 15.05605,-0.0774 z m -5.92164,-22.29449 c 7.48623,-7.03296 7.57151,-12.92894 0.15819,-10.94228 -3.03884,0.8144 -6.77758,1.49578 -8.30833,1.51423 -1.53074,0.0182 -3.41122,2.43538 -4.17891,5.37096 -2.7391,10.47435 3.3613,12.48181 12.32897,4.05709 z m 59.70753,1.7714 c 0,-1.96235 -1.28242,-6.38249 -2.8498,-9.82256 -2.25144,-4.94132 -4.62689,-6.25463 -11.31311,-6.25463 -6.70854,0 -8.15425,0.80535 -6.97274,3.8843 0.8198,2.13636 1.49053,4.83868 1.49053,6.00509 0,2.35057 11.75867,9.08647 16.57557,9.49524 1.68824,0.14324 3.06955,-1.34509 3.06955,-3.30744 z m -85.49412,-35.03458 c 0.54552,-2.83273 4.44584,-4.91468 11.84434,-6.32236 10.74211,-2.04387 18.2997,-7.74043 15.7476,-11.8698 -0.69583,-1.12589 -6.77707,-1.92288 -13.51387,-1.77111 -11.87194,0.26746 -16.89414,-1.28097 -13.89195,-4.28316 0.80189,-0.80188 9.86759,-1.3715 20.14606,-1.26584 14.91421,0.15334 18.98978,-0.5941 20.1821,-3.70115 1.69575,-4.41905 -3.71734,-8.86117 -8.60823,-7.0641 -3.88544,1.42764 -12.7736,-2.98082 -16.93348,-8.39892 -1.64529,-2.14294 -3.02659,-8.59268 -3.06954,-14.33274 -0.0631,-8.42591 0.76992,-10.43646 4.32386,-10.43646 3.12477,0 5.23718,3.12268 7.28049,10.76248 2.25983,8.44918 4.26712,11.11098 9.33894,12.38392 10.05625,2.52398 13.35756,-2.10166 13.35756,-18.71586 0,-12.59212 0.59435,-14.5 4.29737,-13.7946 3.4371,0.65476 4.4424,3.8346 5.02178,15.88423 0.58736,12.21559 1.58116,15.28961 5.25334,16.24992 6.76479,1.76902 10.73382,-1.77346 13.65593,-12.18835 3.35582,-11.96071 9.3535,-12.36709 11.20462,-0.75918 0.75379,4.7271 0.44478,10.51711 -0.68674,12.86669 -2.65174,5.50631 -14.63944,11.6897 -22.66267,11.6897 -3.9283,0 -6.26107,1.3724 -6.26107,3.68345 0,2.7152 3.06622,3.76219 11.66428,3.98293 30.23386,0.77618 31.19539,0.91986 31.96048,4.77526 0.64441,3.24744 -1.57724,3.6776 -14.25672,2.76045 l -15.02006,-1.08645 0.80684,7.06211 c 0.77297,6.76551 1.39982,7.09304 14.92677,7.79855 12.11062,0.63166 14.11992,1.41792 14.11992,5.5252 0,3.99886 -1.72143,4.78647 -10.43646,4.77504 -5.74006,-0.008 -14.58037,-1.16452 -19.64512,-2.57107 -7.33308,-2.03649 -9.20866,-3.74332 -9.20866,-8.38021 0,-10.5437 -2.53682,-13.59141 -11.31309,-13.59141 -4.58261,0 -8.47015,1.10504 -8.63899,2.45562 -0.16869,1.35061 -0.44507,3.46811 -0.6139,4.70556 -0.1687,1.23743 -2.82637,5.65759 -5.90564,9.82256 -5.18037,7.0068 -6.70763,7.57264 -20.4391,7.57264 -12.71305,0 -14.72377,-0.60544 -14.02699,-4.22354 z"
       id="path3028"
       inkscape:connector-curvature="0" />
  </g>
</svg>
