<?xml version="1.0" encoding="UTF-8" standalone="no"?>
<!-- Created with Inkscape (http://www.inkscape.org/) -->

<svg
   xmlns:dc="http://purl.org/dc/elements/1.1/"
   xmlns:cc="http://creativecommons.org/ns#"
   xmlns:rdf="http://www.w3.org/1999/02/22-rdf-syntax-ns#"
   xmlns:svg="http://www.w3.org/2000/svg"
   xmlns="http://www.w3.org/2000/svg"
   xmlns:sodipodi="http://sodipodi.sourceforge.net/DTD/sodipodi-0.dtd"
   xmlns:inkscape="http://www.inkscape.org/namespaces/inkscape"
   width="300"
   height="300"
   id="svg2"
   version="1.1"
   inkscape:version="0.48.4 r9939"
   sodipodi:docname="image-seal.svg">
  <defs
     id="defs4" />
  <sodipodi:namedview
     id="base"
     pagecolor="#ffffff"
     bordercolor="#666666"
     borderopacity="1.0"
     inkscape:pageopacity="0.0"
     inkscape:pageshadow="2"
     inkscape:zoom="1.979899"
     inkscape:cx="141.86812"
     inkscape:cy="134.8223"
     inkscape:document-units="px"
     inkscape:current-layer="layer1"
     showgrid="false"
     inkscape:window-width="1215"
     inkscape:window-height="1000"
     inkscape:window-x="65"
     inkscape:window-y="24"
     inkscape:window-maximized="1" />
  <metadata
     id="metadata7">
    <rdf:RDF>
      <cc:Work
         rdf:about="">
        <dc:format>image/svg+xml</dc:format>
        <dc:type
           rdf:resource="http://purl.org/dc/dcmitype/StillImage" />
        <dc:title />
      </cc:Work>
    </rdf:RDF>
  </metadata>
  <g
     inkscape:label="Calque 1"
     inkscape:groupmode="layer"
     id="layer1"
     transform="translate(0,-752.36218)">
    <path
       style="fill:#000000"
       d="m 202.68161,1031.6441 c -1.07697,-1.7426 -0.47293,-42.07569 1.95626,-130.62398 1.02519,-37.36999 2.14642,-107.46766 1.77921,-111.23264 -0.52915,-5.42499 -31.43688,-13.69434 -51.18431,-13.69434 -5.42308,0 -10.5294,-1.43411 -11.34739,-3.18692 -1.18978,-2.54952 -1.78469,-2.54952 -2.97445,0 -1.00828,2.16063 -8.06562,3.18692 -21.91481,3.18692 -25.65664,0 -35.237162,5.32025 -35.237162,19.56785 0,7.17991 -0.823601,8.7065 -4.032822,7.47499 -2.218041,-0.85113 -4.512617,-1.54754 -5.099061,-1.54754 -2.58716,0 -0.716366,-13.67741 2.801221,-20.47969 6.63765,-12.83581 13.754945,-14.68202 58.133574,-15.07978 22.14596,-0.19836 43.92989,0.79767 48.40874,2.21368 4.47887,1.41604 11.31277,3.21348 15.18648,3.99435 3.87371,0.78087 10.57532,5.11592 14.89253,9.63342 6.73744,7.05009 7.61754,9.47998 6.21272,17.15277 -2.50657,13.69038 -6.69252,153.22791 -6.71182,223.73701 -0.003,8.9335 -0.85078,10.8355 -4.83284,10.8355 -2.65643,0 -5.37266,-0.8782 -6.03607,-1.9516 z m -144.403728,-6.3344 c 0.0077,-3.155 1.050176,-9.7519 2.316375,-14.6598 1.266199,-4.9078 3.023768,-29.00089 3.905728,-53.54012 0.881933,-24.53922 2.696027,-57.81059 4.031266,-73.93637 1.33524,-16.12578 3.184746,-39.98309 4.110021,-53.01626 1.408488,-19.83983 2.346384,-23.56148 5.762601,-22.8662 2.562508,0.52153 3.928827,3.17179 3.673057,7.12471 -0.369375,5.70904 -1.636187,33.66903 -4.79021,105.72593 -3.371728,77.03042 -4.289023,90.17001 -6.986019,100.06911 -2.067515,7.5886 -4.313295,10.8355 -7.494599,10.8355 -3.015201,0 -4.537654,-1.9287 -4.52822,-5.7365 z m 65.891998,-38.51025 c -18.90377,-5.93141 -20.01468,-8.50952 -20.01468,-46.44824 0,-18.59824 0.69638,-35.62976 1.54754,-37.8478 2.70342,-7.04499 8.65058,-4.64165 8.65058,3.49581 0,12.22516 4.73695,20.12526 11.10399,18.5188 8.32246,-2.09984 9.21102,-5.02953 9.25322,-30.5091 l 0.039,-23.58316 -19.75887,-0.039 c -21.292886,-0.0421 -30.449397,-3.00825 -23.583155,-7.63952 2.312475,-1.55978 11.635415,-1.93357 23.583155,-0.94556 l 19.75887,1.63393 0,-9.43466 c 0,-11.53505 5.92329,-18.77528 11.54396,-14.11053 2.06424,1.71318 3.75322,6.96808 3.75322,11.67749 0,9.71756 2.16566,10.72281 25.4714,11.82313 10.98848,0.51881 14.18095,1.6203 14.84676,5.12259 0.75066,3.94864 -1.50134,4.46169 -19.58452,4.46169 -11.238,0 -20.97173,0.87214 -21.63053,1.9381 -0.6588,1.06594 -1.90222,12.53882 -2.76321,25.4953 l -1.56538,23.5572 10.26132,0 10.26132,0 0,-11.47288 c 0,-9.55708 0.80595,-11.47289 4.8263,-11.47289 2.65447,0 5.31186,1.43412 5.90537,3.18691 0.59348,1.75281 0.42942,17.57876 -0.36461,35.16878 -1.66889,36.97074 -5.1465,45.7788 -18.07441,45.7788 -4.1744,0 -7.58981,1.1473 -7.58981,2.54954 0,3.30748 -14.0139,2.81751 -25.87688,-0.90471 z m 37.07596,-20.84526 c 2.68128,-6.65538 3.04404,-14.90388 1.22987,-27.96588 -0.42593,-3.06663 -4.93893,-3.82429 -22.77924,-3.82429 -24.65343,0 -25.40857,0.52065 -25.26208,17.41785 0.14201,16.37283 9.02343,23.01081 29.92738,22.36761 12.78937,-0.39352 14.06479,-0.9975 16.88407,-7.99529 z m 15.61003,-134.4091 -9.45363,-10.78493 -4.62475,5.71135 c -5.21504,6.44031 -12.73075,7.62272 -12.73075,2.00288 0,-2.03961 2.98635,-6.69474 6.6363,-10.34469 6.14126,-6.14127 6.33145,-6.97317 2.54954,-11.15217 -2.24772,-2.48369 -4.08678,-5.85961 -4.08678,-7.50198 0,-1.64239 -1.14728,-2.98617 -2.54952,-2.98617 -1.40224,0 -2.54954,-1.72093 -2.54954,-3.82429 0,-5.91766 6.72985,-4.52181 12.29215,2.54953 6.35168,8.07484 10.82732,8.0487 17.91657,-0.10476 3.09814,-3.56318 6.74691,-5.79004 8.10838,-4.94859 4.57041,2.82467 2.38213,10.10073 -4.95909,16.48881 l -7.28195,6.33652 7.35823,10.6948 c 4.047,5.88215 7.35819,11.85448 7.35819,13.27189 0,6.53085 -5.32242,4.47233 -13.98335,-5.4083 z m -55.80111,-7.56013 -6.41576,-8.19783 -9.7542,5.20652 c -14.438271,7.70672 -18.322863,4.70426 -7.329467,-5.66502 10.309717,-9.72442 10.637427,-10.79826 5.406177,-17.71457 -8.808117,-11.64539 -1.2779,-15.75511 7.90005,-4.3116 l 5.62317,7.01122 7.35978,-7.01122 c 7.91728,-7.54231 13.45458,-9.05022 13.45458,-3.66389 0,3.74273 -11.94102,15.6554 -17.84671,17.80434 -3.12108,1.13569 -3.03792,1.42857 0.45234,1.59284 5.33997,0.25138 14.84484,12.02727 14.84484,18.39182 0,7.30797 -6.57464,5.65525 -13.6948,-3.44261 z"
       id="path3210"
       inkscape:connector-curvature="0" />
  </g>
</svg>
