<?xml version="1.0" encoding="UTF-8" standalone="no"?>
<!-- Created with Inkscape (http://www.inkscape.org/) -->

<svg
   xmlns:dc="http://purl.org/dc/elements/1.1/"
   xmlns:cc="http://creativecommons.org/ns#"
   xmlns:rdf="http://www.w3.org/1999/02/22-rdf-syntax-ns#"
   xmlns:svg="http://www.w3.org/2000/svg"
   xmlns="http://www.w3.org/2000/svg"
   xmlns:sodipodi="http://sodipodi.sourceforge.net/DTD/sodipodi-0.dtd"
   xmlns:inkscape="http://www.inkscape.org/namespaces/inkscape"
   width="300"
   height="300"
   id="svg2"
   version="1.1"
   inkscape:version="0.48.4 r9939"
   sodipodi:docname="image-seal.svg">
  <defs
     id="defs4" />
  <sodipodi:namedview
     id="base"
     pagecolor="#ffffff"
     bordercolor="#666666"
     borderopacity="1.0"
     inkscape:pageopacity="0.0"
     inkscape:pageshadow="2"
     inkscape:zoom="1.979899"
     inkscape:cx="200.43343"
     inkscape:cy="122.13442"
     inkscape:document-units="px"
     inkscape:current-layer="layer1"
     showgrid="false"
     inkscape:window-width="1215"
     inkscape:window-height="1000"
     inkscape:window-x="65"
     inkscape:window-y="24"
     inkscape:window-maximized="1" />
  <metadata
     id="metadata7">
    <rdf:RDF>
      <cc:Work
         rdf:about="">
        <dc:format>image/svg+xml</dc:format>
        <dc:type
           rdf:resource="http://purl.org/dc/dcmitype/StillImage" />
        <dc:title />
      </cc:Work>
    </rdf:RDF>
  </metadata>
  <g
     inkscape:label="Calque 1"
     inkscape:groupmode="layer"
     id="layer1"
     transform="translate(0,-752.36218)">
    <path
       style="fill:#000000"
       d="m 192.10622,1040.7 c 0,-1.9458 1.06929,-4.7011 2.3762,-6.123 5.05486,-5.4997 18.39521,-71.1481 20.15701,-99.19351 0.58858,-9.36909 0.40932,-9.53844 -10.96743,-10.36158 -6.36118,-0.46022 -11.56578,-1.99099 -11.56578,-3.4017 0,-1.41066 -0.96438,-2.56487 -2.14308,-2.56487 -1.17871,0 -2.34022,4.94316 -2.58113,10.98476 -0.24084,6.04163 -1.64941,14.92007 -3.12999,19.72985 -1.48057,4.80981 -4.70251,17.92967 -7.15986,29.15527 -2.45735,11.22561 -6.11015,24.08398 -8.11734,28.57418 -2.00717,4.4903 -4.39545,10.774 -5.30728,13.9639 -2.33723,8.1767 -10.8431,17.3318 -16.10257,17.3318 -5.00517,0 -5.62676,-3.2829 -1.9393,-10.2421 1.37715,-2.599 4.86598,-11.4608 7.75302,-19.6929 2.88703,-8.2321 6.81156,-19.25355 8.72119,-24.49216 3.02272,-8.29208 6.03639,-21.65895 12.63807,-56.05541 1.30135,-6.78023 0.1856,-9.8643 -5.6967,-15.74663 -6.46568,-6.46567 -7.09546,-8.64633 -5.42411,-18.78194 1.04,-6.30684 3.08861,-12.95149 4.55249,-14.7659 6.46701,-8.01557 48.51779,-18.74733 48.38717,-12.34887 -0.10559,5.16656 -5.21103,8.07674 -19.76453,11.26594 -17.98186,3.94044 -25.14875,11.41049 -22.20402,23.14322 0.97893,3.90035 2.56556,7.22844 3.52587,7.39574 0.96028,0.16737 5.89784,0.7787 10.9723,1.35864 23.17106,2.64809 41.23922,12.02066 41.06443,21.30152 -0.0797,4.23558 -7.44294,44.66062 -10.43968,57.31573 -1.41772,5.98698 -3.71313,16.39612 -5.10089,23.13152 -3.78701,18.3797 -11.38139,32.6563 -17.37141,32.6563 -2.82294,0 -5.13265,-1.592 -5.13265,-3.5378 z m -98.596173,-61.09444 -0.7334,-59.18954 -12.833816,-0.82566 c -7.058601,-0.45411 -15.324735,0.50743 -18.369174,2.13676 -4.668274,2.4984 -5.535345,2.14815 -5.535345,-2.23587 0,-5.24675 9.076048,-8.59999 23.277333,-8.59999 9.757972,0 14.821672,-7.07863 14.821672,-20.71944 0,-15.67654 -3.74532,-19.68051 -16.2674,-17.39068 -11.657373,2.1317 -16.388898,0.89094 -16.388898,-4.2977 0,-2.1204 0.306154,-3.91751 0.680351,-3.99358 0.374183,-0.0762 6.191088,-0.793 12.926453,-1.59324 19.238634,-2.28575 22.038644,-10.16425 11.664641,-32.8211 -3.362168,-7.34294 -5.65093,-8.82841 -14.675445,-9.52476 -13.286472,-1.02519 -14.85707,-5.17017 -3.112254,-8.21354 9.930371,-2.57324 10.620422,-5.38504 4.762371,-19.40531 -5.108398,-12.2261 -5.232196,-20.82992 -0.299701,-20.82992 4.228093,0 15.267182,21.50719 15.267182,29.74466 0,2.92148 1.2246,6.06863 2.72136,6.99367 1.49674,0.92505 2.72134,4.05886 2.72134,6.96401 0,6.99804 8.259253,6.86664 10.096933,-0.16055 0.78282,-2.9935 2.19893,-5.44517 3.14692,-5.44819 0.948,-0.003 2.03346,-4.34511 2.41211,-9.64915 0.8793,-12.31641 10.42343,-31.16575 15.78039,-31.16575 7.09393,0 7.5923,8.02029 1.26306,20.32638 -7.40479,14.39728 -5.61492,18.55401 6.9725,16.19258 5.12191,-0.96085 9.31254,-0.63106 9.31254,0.73292 0,5.30202 -6.98479,9.01121 -16.96912,9.01121 -9.80689,0 -10.76105,0.75394 -15.78389,12.4717 -2.94029,6.85947 -5.34599,16.65635 -5.34599,21.77088 l 0,9.29915 13.31563,0 c 9.17694,0 13.79056,1.23764 14.84365,3.98194 1.4949,3.89563 -2.814,5.33749 -22.50335,7.53024 -7.42041,0.8264 -8.80891,6.53364 -6.34634,26.08554 l 1.47927,11.74477 15.08022,-0.69853 c 18.79579,-0.87065 22.01378,4.38143 4.31106,7.03615 -22.39729,3.35866 -20.86376,-0.99708 -20.06204,56.98233 0.94187,68.11795 1.0382,66.94715 -5.507763,66.94715 -5.18427,0 -5.4176,-2.2554 -6.12306,-59.18948 z M 136.66465,877.55462 c 1.11548,-1.87093 5.27989,-7.68783 9.25423,-12.92645 3.97434,-5.23862 8.86155,-15.03551 10.8605,-21.77087 1.99892,-6.73535 4.32188,-13.47072 5.16209,-14.96746 0.84025,-1.49675 1.60336,-6.39519 1.69587,-10.88545 1.04056,-50.52247 1.01697,-50.34512 6.69803,-50.34512 5.01284,0 5.4427,1.81424 5.4427,22.97093 0,12.63401 -1.2246,23.72779 -2.72134,24.65285 -1.49676,0.92504 -2.74826,8.03884 -2.78112,15.80842 -0.0675,15.93635 -7.10376,33.78354 -17.36475,44.04453 -7.05947,7.05947 -20.04628,9.79224 -16.24621,3.41862 z m 97.44302,1.31901 c -5.74484,-3.95935 -19.24972,-26.71767 -22.17966,-37.37701 -9.55972,-34.77893 -12.0391,-75.78577 -4.7513,-78.58234 5.27353,-2.02365 6.14026,0.66465 7.78781,24.15517 2.27835,32.48396 9.3033,55.45587 23.30186,76.19805 8.62983,12.78714 6.0109,22.61502 -4.15871,15.60613 z"
       id="path3381"
       inkscape:connector-curvature="0" />
  </g>
</svg>
