<?xml version="1.0" encoding="UTF-8" standalone="no"?>
<!-- Created with Inkscape (http://www.inkscape.org/) -->

<svg
   xmlns:dc="http://purl.org/dc/elements/1.1/"
   xmlns:cc="http://creativecommons.org/ns#"
   xmlns:rdf="http://www.w3.org/1999/02/22-rdf-syntax-ns#"
   xmlns:svg="http://www.w3.org/2000/svg"
   xmlns="http://www.w3.org/2000/svg"
   xmlns:sodipodi="http://sodipodi.sourceforge.net/DTD/sodipodi-0.dtd"
   xmlns:inkscape="http://www.inkscape.org/namespaces/inkscape"
   width="300"
   height="300"
   id="svg2"
   version="1.1"
   inkscape:version="0.48.4 r9939"
   sodipodi:docname="image-seal.svg">
  <defs
     id="defs4" />
  <sodipodi:namedview
     id="base"
     pagecolor="#ffffff"
     bordercolor="#666666"
     borderopacity="1.0"
     inkscape:pageopacity="0.0"
     inkscape:pageshadow="2"
     inkscape:zoom="1.979899"
     inkscape:cx="144.1876"
     inkscape:cy="145.59431"
     inkscape:document-units="px"
     inkscape:current-layer="layer1"
     showgrid="false"
     inkscape:window-width="1215"
     inkscape:window-height="1000"
     inkscape:window-x="65"
     inkscape:window-y="24"
     inkscape:window-maximized="1"
     fit-margin-top="10"
     fit-margin-left="10"
     fit-margin-right="10"
     fit-margin-bottom="10" />
  <metadata
     id="metadata7">
    <rdf:RDF>
      <cc:Work
         rdf:about="">
        <dc:format>image/svg+xml</dc:format>
        <dc:type
           rdf:resource="http://purl.org/dc/dcmitype/StillImage" />
        <dc:title />
      </cc:Work>
    </rdf:RDF>
  </metadata>
  <g
     inkscape:label="Calque 1"
     inkscape:groupmode="layer"
     id="layer1"
     transform="translate(0,-752.36218)">
    <path
       style="fill:#000000"
       d="m 82.647213,1045.352 c -1.74886,-4.5575 0.26543,-79.32384 2.91646,-108.25488 0.65601,-7.15914 -0.28843,-13.78734 -2.17526,-15.26386 -6.00196,-4.69717 -19.19616,-6.60813 -20.41336,-2.95653 -1.65862,4.9759 -17.25838,0.44528 -17.25838,-5.01233 0,-3.23804 3.53175,-4.42185 13.19199,-4.42185 21.2286,0 22.63788,-1.32102 22.63788,-21.22022 l 0,-17.59548 -17.91494,0 c -15.92437,0 -17.91493,-0.66351 -17.91493,-5.97165 0,-5.17237 1.99056,-5.97164 14.87223,-5.97164 12.96791,0 15.08984,-0.86712 16.57186,-6.77191 0.9348,-3.72457 -0.0687,-12.1222 -2.22964,-18.66139 -3.58092,-10.83534 -4.85169,-11.88949 -14.33251,-11.88949 -18.27378,0 -25.21809,-9.36333 -8.16384,-11.00765 10.64798,-1.02668 9.95363,2.15907 7.46456,-34.24736 -0.41363,-6.04976 0.74953,-11.43006 2.60853,-12.06634 4.61575,-1.57983 19.03868,26.85831 19.03868,37.53911 0,5.47394 1.90573,9.42427 5.14643,10.66784 6.53787,2.5088 12.76851,-5.62055 12.76851,-16.65955 0,-4.51582 1.343617,-9.04098 2.985817,-10.05592 1.6422,-1.01495 2.98582,-5.12511 2.98582,-9.1337 0,-9.98862 10.9194,-20.81258 16.40409,-16.2607 4.30719,3.57466 3.03243,22.88296 -1.86384,28.23093 -1.42833,1.56009 -2.59695,5.6899 -2.59695,9.17734 0,4.76517 2.65177,7.02809 10.67157,9.10673 14.36804,3.72407 13.20468,8.52226 -2.34928,9.68939 -15.19548,1.14019 -20.26559,4.77767 -20.26559,14.53925 0,4.01238 -1.48234,10.06503 -3.29407,13.4503 -4.009987,7.49274 0.93483,11.80722 12.19613,10.64141 12.76173,-1.32114 11.03942,8.13022 -2.07172,11.3687 l -11.30907,2.79339 -0.88455,18.49215 -0.884517,18.49216 14.320717,0.91569 c 10.33203,0.66065 14.32076,2.16314 14.32076,5.39443 0,3.07698 -3.73802,4.77481 -11.9433,5.42473 -6.56881,0.52028 -13.22922,2.2093 -14.8009,3.75336 -1.661697,1.6325 -2.584497,25.60283 -2.204967,57.27755 0.46901,39.14539 -0.40712,56.50399 -3.11403,61.69899 -4.71808,9.0546 -10.64491,11.2096 -13.11639,4.769 z m 34.754167,-1.3843 c -3.63679,-2.3682 -3.74727,-3.6078 -0.6023,-6.7569 2.91073,-2.9146 19.66663,-3.8566 68.60167,-3.8566 59.29053,0 64.83559,0.4406 65.7629,5.2252 0.93677,4.8336 -3.42292,5.2282 -58.17629,5.2659 -32.55389,0.024 -61.87616,0.7118 -65.16056,1.5318 -3.28441,0.82 -7.97585,0.1857 -10.42542,-1.4094 z m 47.89098,-34.9985 c -5.66918,-2.4696 -12.00862,-6.7267 -14.08771,-9.46041 -4.89612,-6.4377 -5.05141,-34.50116 -0.23767,-42.96459 7.91858,-13.92253 10.02237,-14.68619 40.01066,-14.52367 37.75349,0.20453 39.89435,1.9719 39.76516,32.82644 -0.0612,14.6348 -1.5701,24.62405 -4.25438,28.16633 -8.09487,10.6826 -42.6294,14.0436 -61.196,5.9559 z m 48.01855,-15.11744 c 1.86482,-1.86483 2.5094,-5.68695 1.43238,-8.49359 -1.71956,-4.48113 -4.9493,-4.85352 -26.50365,-3.05596 -13.50004,1.12586 -25.67485,3.17638 -27.05523,4.55675 -1.38032,1.38035 0.62666,4.77179 4.46001,7.53658 7.97367,5.75096 41.75715,5.36555 47.66649,-0.54378 z m -7.56169,-22.86 c 5.72746,1.4375 7.66404,0.25171 10.11447,-6.19343 1.6669,-4.38426 3.0307,-8.5557 3.0307,-9.26991 0,-0.71421 -11.94884,-1.29853 -26.55295,-1.29853 -21.45842,0 -26.90068,0.90617 -28.36532,4.72294 -5.09503,13.27742 0.34087,16.44012 21.6637,12.60427 7.1641,-1.28877 16.21335,-1.5432 20.1094,-0.56534 z m -33.13508,-42.68228 c -21.85025,-4.90717 -24.67875,-6.95613 -28.04231,-20.31407 -4.0626,-16.13396 -4.32825,-42.35772 -0.4534,-44.75253 1.57045,-0.9706 2.15117,-3.59992 1.29044,-5.84293 -2.05347,-5.35134 9.50367,-15.94674 19.39773,-17.78353 22.38985,-4.15659 35.79428,-4.86176 37.57724,-1.97688 1.06364,1.72099 7.32503,3.12908 13.91423,3.12908 19.55281,0 26.83855,13.22442 26.97873,48.96958 0.097,24.71008 -1.77005,28.86688 -16.19785,36.06442 -8.64091,4.31066 -40.00498,5.75424 -54.46481,2.50686 z m 46.62228,-14.24817 c 7.89882,-3.21385 11.60127,-15.53001 11.60127,-38.59167 0,-19.66582 -0.66056,-22.10216 -6.89743,-25.44004 -9.80043,-5.24502 -57.6002,-0.92083 -66.48219,6.01428 -2.65395,2.07225 -3.24609,19.00217 -1.53322,43.83731 0.1469,2.13117 3.66483,7.02362 7.81745,10.8721 6.70147,6.21075 9.97382,6.90018 29.11178,6.13339 11.85885,-0.47516 23.73093,-1.74656 26.38234,-2.82537 z m -50.91088,-22.07466 c -9.06442,-21.88343 13.44298,-40.56772 36.31498,-30.14654 9.97188,4.5435 15.16476,22.5358 9.15251,31.71162 -3.95261,6.03243 -6.97301,6.93335 -23.24511,6.93335 -17.74069,0 -18.88318,-0.43692 -22.22238,-8.49843 z m 29.07093,-1.05621 c 10.32856,-10.32855 -1.15871,-24.36786 -14.21918,-17.37811 -7.04021,3.76781 -7.52036,6.79952 -2.38035,15.02997 4.17665,6.68792 11.25804,7.68963 16.59953,2.34814 z m -66.88611,-53.63669 c -2.35238,-3.80624 3.67705,-9.45342 29.7631,-27.87627 12.94492,-9.14214 17.6157,-14.5246 19.91482,-22.94916 1.65196,-6.05321 2.81581,-12.0995 2.58632,-13.4362 -1.17797,-6.86133 0.70677,-12.87561 4.0222,-12.83501 8.29799,0.10152 12.43031,5.73377 11.73894,15.99951 -0.86529,12.8482 5.19623,19.08182 31.31946,32.20875 18.06211,9.07622 25.50365,17.99389 19.7863,23.71123 -1.59631,1.59631 -8.51924,-1.00655 -17.02612,-6.40145 -7.88475,-5.00036 -20.1838,-11.8404 -27.33117,-15.20005 l -12.99526,-6.10849 -12.77371,6.98417 c -7.02552,3.84129 -19.51408,12.01695 -27.75233,18.16816 -16.40787,12.25113 -18.08423,12.86123 -21.25255,7.73481 z"
       id="path3141"
       inkscape:connector-curvature="0" />
  </g>
</svg>
