<?xml version="1.0" encoding="UTF-8" standalone="no"?>
<!-- Created with Inkscape (http://www.inkscape.org/) -->

<svg
   xmlns:dc="http://purl.org/dc/elements/1.1/"
   xmlns:cc="http://creativecommons.org/ns#"
   xmlns:rdf="http://www.w3.org/1999/02/22-rdf-syntax-ns#"
   xmlns:svg="http://www.w3.org/2000/svg"
   xmlns="http://www.w3.org/2000/svg"
   xmlns:sodipodi="http://sodipodi.sourceforge.net/DTD/sodipodi-0.dtd"
   xmlns:inkscape="http://www.inkscape.org/namespaces/inkscape"
   width="300"
   height="300"
   id="svg2"
   version="1.1"
   inkscape:version="0.48.3.1 r9886"
   sodipodi:docname="Nouveau document 1">
  <defs
     id="defs4" />
  <sodipodi:namedview
     id="base"
     pagecolor="#ffffff"
     bordercolor="#666666"
     borderopacity="1.0"
     inkscape:pageopacity="0.0"
     inkscape:pageshadow="2"
     inkscape:zoom="1.4"
     inkscape:cx="239.61235"
     inkscape:cy="146.56854"
     inkscape:document-units="px"
     inkscape:current-layer="layer1"
     showgrid="false"
     inkscape:window-width="1215"
     inkscape:window-height="1000"
     inkscape:window-x="65"
     inkscape:window-y="24"
     inkscape:window-maximized="1" />
  <metadata
     id="metadata7">
    <rdf:RDF>
      <cc:Work
         rdf:about="">
        <dc:format>image/svg+xml</dc:format>
        <dc:type
           rdf:resource="http://purl.org/dc/dcmitype/StillImage" />
        <dc:title></dc:title>
      </cc:Work>
    </rdf:RDF>
  </metadata>
  <g
     inkscape:label="Calque 1"
     inkscape:groupmode="layer"
     id="layer1"
     transform="translate(0,-752.36218)">
    <path
       style="fill:#000000"
       d="m 133.07195,1026.0593 c 2.63568,-11.4576 17.29072,-33.36 26.50563,-39.61365 11.43632,-7.76121 31.04257,-17.98416 34.49118,-17.98416 1.67912,0 3.05294,-0.81813 3.05294,-1.81807 0,-0.99994 3.30495,-3.17407 7.34436,-4.83143 4.03939,-1.65735 9.17601,-6.37412 11.41468,-10.48175 4.7197,-8.65987 5.48388,-41.23115 1.24201,-52.93683 -2.40361,-6.63292 -4.5062,-8.06487 -14.96588,-10.19235 -33.18147,-6.74913 -49.48087,-6.825 -86.90348,-0.40452 -15.68385,2.69082 -18.22624,5.08638 -22.339068,21.04868 -1.347047,5.22802 -3.366878,7.1102 -7.630208,7.1102 -5.145001,0 -5.574107,-0.9157 -3.809112,-8.12849 4.519876,-18.4708 14.122344,-25.68307 37.170688,-27.91839 23.8088,-2.30907 27.10989,-3.19946 27.10989,-7.31231 0,-5.00266 5.43032,-9.14688 11.98544,-9.14688 3.72378,0 5.13661,1.68547 5.13661,6.12786 0,5.94355 0.66515,6.21219 22.11596,8.93287 40.56336,5.14479 44.18228,8.93629 45.89768,48.08664 0.65184,14.87718 0.0623,27.67553 -1.3104,28.44079 -1.37259,0.76523 -3.86557,3.29454 -5.53999,5.62063 -1.67442,2.32612 -5.52687,5.27959 -8.56102,6.56327 -3.03413,1.28368 -6.1587,2.8262 -6.94347,3.42784 -0.78476,0.60163 -7.16437,3.49256 -14.17691,6.42428 -16.45344,6.8787 -28.08818,14.88264 -33.59374,23.11037 -2.41553,3.6098 -5.25924,7.0555 -6.3194,7.6571 -1.06017,0.6017 -3.77721,6.5086 -6.03792,13.1266 -3.33098,9.7511 -5.35726,12.1684 -10.68652,12.7488 -6.15304,0.6703 -6.45221,0.1774 -4.64995,-7.6571 z m -61.511863,-16.6052 c 0,-2.6502 13.557288,-13.67398 44.312153,-36.03126 7.89168,-5.73691 16.88076,-11.92101 19.97571,-13.74245 24.00067,-14.12501 31.43529,-18.78159 32.2614,-20.20664 0.52319,-0.90243 2.61322,-1.64079 4.64452,-1.64079 2.0313,0 5.36982,-1.5487 7.4189,-3.44154 3.39153,-3.13296 23.13664,-11.87274 26.8231,-11.87274 0.84728,0 1.54052,2.46122 1.54052,5.46938 0,3.00817 -1.34214,5.46938 -2.98254,5.46938 -3.97709,0 -45.1135,21.35941 -53.46006,27.75827 -3.6287,2.78192 -7.62269,5.05803 -8.87557,5.05803 -1.25288,0 -15.89288,10.33713 -32.53337,22.97141 -28.091635,21.32855 -39.124763,27.02745 -39.124763,20.20895 z m 0.863521,-38.04747 c -1.760144,-3.51654 1.588641,-6.39171 26.409722,-22.67447 4.61872,-3.02991 12.89221,-7.88958 18.38553,-10.79929 5.49332,-2.90969 14.48239,-8.09472 19.97571,-11.52224 11.48472,-7.16583 13.54515,-8.2848 22.65225,-12.30174 19.82738,-8.74545 26.29868,-11.27999 28.80067,-11.27999 4.87202,0 2.95589,8.83606 -2.22706,10.2698 -7.51056,2.07764 -44.80523,20.61888 -45.89657,22.81772 -0.52319,1.0541 -2.5283,1.91654 -4.45584,1.91654 -1.92754,0 -5.99508,1.72284 -9.03895,3.82855 -3.0439,2.10572 -10.19337,6.4951 -15.88774,9.75414 -5.69433,3.25907 -15.59535,9.90438 -22.002246,14.76734 -13.118421,9.95716 -14.180072,10.28894 -16.715476,5.22364 z m -5.679037,-30.57199 c -1.137246,-2.27207 0.703288,-5.09962 5.083505,-7.80963 13.226146,-8.18287 73.557964,-38.29893 82.261524,-41.06278 4.8334,-1.53486 8.78803,-3.71383 8.78803,-4.84213 0,-1.1283 1.28415,-1.443 2.85367,-0.69935 7.30723,3.46226 2.04231,9.04941 -14.27493,15.14856 -9.4135,3.51863 -17.11547,7.14412 -17.11547,8.05664 0,0.91251 -2.53436,2.27579 -5.63187,3.02946 -6.8299,1.66189 -35.367028,16.41647 -36.69761,18.97381 -0.523192,1.00552 -2.465659,1.82822 -4.316608,1.82822 -1.850979,0 -5.776291,2.46123 -8.722937,5.46939 -6.222035,6.3519 -9.72897,6.8991 -12.227304,1.90781 z M 191.41436,865.2085 c 0,-7.20272 1.4655,-10.33364 5.9735,-12.76188 3.28544,-1.76972 8.30228,-4.69439 11.14853,-6.4993 2.84626,-1.80489 7.8631,-4.72957 11.14853,-6.49928 3.28544,-1.76972 5.97351,-4.39502 5.97351,-5.83401 0,-1.43898 1.50383,-3.00065 3.34183,-3.47036 3.99539,-1.02099 3.5279,-24.92485 -0.72846,-37.24935 -2.61996,-7.58619 -3.63105,-8.21195 -13.42463,-8.30879 -16.66678,-0.16473 -40.99213,-2.03199 -43.79922,-3.36202 -7.05588,-3.34317 3.47152,-5.27736 28.38243,-5.2147 39.34624,0.0991 39.06958,-0.1398 39.06958,33.70745 0,23.5033 -0.70794,27.62201 -5.43622,31.62672 -2.98991,2.5324 -7.16341,4.60434 -9.27443,4.60434 -2.11102,0 -3.83823,0.74417 -3.83823,1.65371 0,0.90954 -3.60547,2.8772 -8.01214,4.37261 -6.04773,2.05229 -8.67148,4.96287 -10.70127,11.87117 -3.75617,12.7838 -9.82331,13.62607 -9.82331,1.36369 z m -89.69988,3.30259 c -2.55589,-5.10626 9.46612,-21.71065 18.23688,-25.18815 21.10549,-8.36806 25.80422,-15.7914 25.80422,-40.76686 0,-18.00307 -0.47148,-19.63778 -5.98258,-20.74266 -9.2356,-1.85159 -13.29763,0.30422 -11.81056,6.26806 0.96392,3.86578 0.0747,5.35978 -3.18994,5.35978 -2.48951,0 -9.09903,1.96897 -14.68783,4.3755 -5.5888,2.40653 -12.155646,4.37551 -14.592967,4.37551 -8.126776,0 -2.26302,-5.4109 11.238477,-10.37059 19.98492,-7.34127 17.406,-10.18634 -7.90328,-8.71889 -15.787,0.91535 -22.054722,0.48444 -24.394762,-1.67722 -4.252344,-3.92806 -1.507481,-4.87097 20.056527,-6.88966 30.690455,-2.87306 52.671865,-0.79733 59.023775,5.57367 4.76604,4.78036 4.55925,38.50412 -0.30174,49.20975 -3.75147,8.26212 -14.01873,16.47978 -20.71445,16.57934 -5.71465,0.0848 -20.98474,15.29954 -20.98474,20.90845 0,6.16709 -6.95734,7.37719 -9.79703,1.70397 z M 65.859533,847.58814 c 0.0029,-1.50407 7.387588,-5.65107 16.40862,-9.21556 9.021003,-3.56447 17.043907,-7.0483 17.828667,-7.74186 3.30829,-2.92379 32.68274,-12.77009 34.92605,-11.70718 3.7245,1.76471 -3.12312,6.98099 -14.63005,11.14465 -5.66947,2.05144 -19.15401,7.44796 -29.965645,11.99227 -21.314882,8.95902 -24.577972,9.6932 -24.567642,5.52768 z m 97.018097,1.48455 c 0,-1.83077 5.80973,-5.84926 17.12203,-11.84297 5.49333,-2.91058 10.62994,-5.96623 11.4147,-6.7903 3.3173,-3.48354 28.33157,-12.76952 29.72893,-11.03619 1.90477,2.36282 -3.38006,5.87635 -26.87527,17.86767 -10.20188,5.20675 -18.97692,10.27346 -19.50009,11.25937 -1.06452,2.00604 -11.8903,2.49991 -11.8903,0.54242 z M 68.780039,825.71061 c 0.07078,-2.62669 18.578267,-10.39182 24.768084,-10.39182 1.647911,0 4.641387,-1.51975 6.652197,-3.37723 5.63104,-5.20169 26.56804,-11.96387 29.71738,-9.59805 3.9174,2.94279 0.64479,4.76177 -28.91929,16.0738 -27.795777,10.6354 -32.336029,11.66318 -32.218371,7.2933 z m 99.804931,-2.73469 c 0,-1.80489 1.97994,-3.28163 4.39983,-3.28163 2.4199,0 7.09462,-1.92472 10.38827,-4.27716 7.12574,-5.08949 28.59578,-13.16602 31.45947,-11.8343 4.17823,1.94301 -1.24335,6.43272 -13.51137,11.18902 -6.98311,2.70734 -14.49977,4.92244 -16.70373,4.92244 -2.20394,0 -4.7463,1.47674 -5.64976,3.28163 -0.90341,1.80491 -3.60909,3.28164 -6.01266,3.28164 -2.40352,0 -4.37005,-1.47673 -4.37005,-3.28164 z M 67.779941,809.50376 c -3.528795,-2.70535 4.466112,-7.31149 12.690569,-7.31149 10.159589,0 10.591065,2.842 0.943167,6.2121 -8.326247,2.9084 -10.993518,3.12348 -13.633736,1.09939 z m 100.856309,-4.57681 c 0.0888,-2.84179 26.94937,-15.25488 36.48399,-16.86037 15.77841,-2.65683 10.57648,3.6625 -9.37686,11.39099 -17.86965,6.92144 -27.21141,8.80633 -27.10713,5.46938 z"
       id="path2996"
       inkscape:connector-curvature="0" />
  </g>
</svg>
