<?xml version="1.0" encoding="UTF-8" standalone="no"?>
<!-- Created with Inkscape (http://www.inkscape.org/) -->

<svg
   xmlns:dc="http://purl.org/dc/elements/1.1/"
   xmlns:cc="http://creativecommons.org/ns#"
   xmlns:rdf="http://www.w3.org/1999/02/22-rdf-syntax-ns#"
   xmlns:svg="http://www.w3.org/2000/svg"
   xmlns="http://www.w3.org/2000/svg"
   xmlns:sodipodi="http://sodipodi.sourceforge.net/DTD/sodipodi-0.dtd"
   xmlns:inkscape="http://www.inkscape.org/namespaces/inkscape"
   width="300"
   height="300"
   id="svg2"
   version="1.1"
   inkscape:version="0.48.4 r9939"
   sodipodi:docname="image-seal.svg">
  <defs
     id="defs4" />
  <sodipodi:namedview
     id="base"
     pagecolor="#ffffff"
     bordercolor="#666666"
     borderopacity="1.0"
     inkscape:pageopacity="0.0"
     inkscape:pageshadow="2"
     inkscape:zoom="2.0018437"
     inkscape:cx="123.3515"
     inkscape:cy="143.3195"
     inkscape:document-units="px"
     inkscape:current-layer="layer1"
     showgrid="false"
     inkscape:window-width="1215"
     inkscape:window-height="1000"
     inkscape:window-x="65"
     inkscape:window-y="24"
     inkscape:window-maximized="1"
     fit-margin-top="10"
     fit-margin-left="10"
     fit-margin-right="10"
     fit-margin-bottom="10" />
  <metadata
     id="metadata7">
    <rdf:RDF>
      <cc:Work
         rdf:about="">
        <dc:format>image/svg+xml</dc:format>
        <dc:type
           rdf:resource="http://purl.org/dc/dcmitype/StillImage" />
        <dc:title />
      </cc:Work>
    </rdf:RDF>
  </metadata>
  <g
     inkscape:label="Calque 1"
     inkscape:groupmode="layer"
     id="layer1"
     transform="translate(0,-752.36218)">
    <path
       style="fill:#000000"
       d="m 153.17342,1023.3116 c 1.45778,-25.6937 3.2899,-33.15093 8.14456,-33.15093 1.67426,0 5.04772,-2.34006 7.4966,-5.20014 2.91147,-3.40037 7.67004,-5.20013 13.7491,-5.20013 24.11192,0 32.25427,-15.52805 32.31623,-61.62929 0.0208,-16.02063 -1.25992,-31.97952 -2.84765,-35.46421 -4.01997,-8.82288 -12.79613,-12.10937 -32.33648,-12.10937 -9.45203,0 -16.77808,-1.13529 -16.77808,-2.60007 0,-1.43004 3.44103,-2.60007 7.64675,-2.60007 4.20571,0 8.37144,-1.17255 9.25715,-2.60571 1.69956,-2.74991 17.63049,-1.27463 31.46428,2.91377 4.70431,1.42429 9.35154,5.26139 11.14832,9.20484 4.0559,8.90177 4.49351,87.45353 0.49461,88.7865 -1.54527,0.5151 -2.80961,2.96811 -2.80961,5.45113 0,6.89285 -11.70018,15.56582 -25.39583,18.82511 -24.16488,5.75081 -26.57595,7.2588 -26.93054,16.84347 -0.17863,4.8316 -0.61752,9.9548 -0.97503,11.3849 -0.35751,1.43 -0.79627,9.0352 -0.97502,16.9004 -0.30991,13.6353 -0.64383,14.3004 -7.17947,14.3004 l -6.85445,0 1.36456,-24.0506 z m -28.57069,-31.79146 c -14.73599,-2.92716 -36.921933,-14.22708 -37.199563,-18.94683 -0.0619,-1.05224 -1.65363,-14.8363 -3.537192,-30.63127 -3.693793,-30.97503 -2.160558,-52.86776 4.717662,-67.36252 3.52513,-7.42868 5.68781,-8.76842 16.445873,-10.1879 35.64726,-4.70357 36.97152,-5.2993 37.04781,-16.66628 0.0468,-6.97169 7.34623,-10.73508 10.6627,-5.49743 3.86913,6.1105 2.64289,19.49105 -2.17265,23.7075 -2.50256,2.19121 -10.40027,4.69939 -17.55046,5.57374 -32.95841,4.03021 -35.889773,5.05134 -38.321183,13.34875 -2.32806,7.94475 -0.38365,68.46063 2.43575,75.80788 1.23281,3.21264 3.726553,3.63646 12.217043,2.07639 5.86742,-1.07809 16.50601,-2.66265 23.6413,-3.52127 9.5183,-1.14533 13.20434,-2.77285 13.841,-6.1112 0.70373,-3.6901 -1.01117,-4.55197 -9.07315,-4.55985 -5.4675,-0.005 -13.61131,-2.24781 -18.09733,-4.98326 -6.65069,-4.05536 -8.38392,-7.05357 -9.38854,-16.2407 -2.05725,-18.81295 1.8882,-23.87269 20.79961,-26.67392 22.98151,-3.40414 21.74606,-8.82856 -1.9606,-8.60834 -10.0136,0.0931 -19.04743,-0.67183 -20.07524,-1.69963 -2.74064,-2.74063 4.76887,-6.72487 12.28104,-6.5158 11.74162,0.32675 27.24003,-3.65658 30.5508,-7.85205 2.94445,-3.73131 3.58965,-3.68115 6.86119,0.53327 2.80511,3.61355 7.88317,4.77425 22.7506,5.20014 15.03583,0.43073 19.13949,1.38448 19.13949,4.44838 0,3.03787 -4.16742,4.06898 -18.8505,4.66403 -18.63981,0.75539 -27.21231,5.73624 -9.87261,5.73624 15.5743,0 21.523,4.44461 24.92415,18.62216 4.39866,18.33571 0.57599,26.12382 -16.25586,33.11881 -7.22674,3.00329 -14.97252,5.46053 -17.2129,5.46053 -2.94686,0 -3.28737,0.786 -1.23126,2.84211 2.0423,2.04233 6.76166,2.06102 16.77044,0.0666 15.52623,-3.0941 23.45059,-2.83082 26.10708,0.86741 3.63497,5.06044 -1.30211,6.62433 -20.91243,6.62433 -20.77712,0 -26.36724,2.3152 -26.36724,10.92028 0,8.08161 -9.92277,5.82837 -10.87759,-2.47006 -0.69071,-6.00281 -1.86578,-6.98995 -7.32289,-6.15156 -3.57509,0.54924 -13.81286,1.08005 -22.75059,1.17953 -27.816833,0.30966 -18.437313,10.45321 12.23649,13.23322 18.75226,1.69957 23.4652,4.38284 18.40575,10.47911 -1.83055,2.20567 -4.0625,3.87083 -4.95994,3.70037 -0.89741,-0.17057 -8.92816,-1.75929 -17.84606,-3.53074 z m 22.21901,-58.04611 c 0.58575,-3.86817 -0.82828,-5.54966 -5.20013,-6.18379 -11.25352,-1.6323 -20.305,0.83316 -20.305,5.53068 0,6.76431 2.39947,7.94529 14.04333,6.91181 8.34942,-0.74104 10.83152,-2.0964 11.4618,-6.2587 z m 36.42732,-2.46491 c 0.73798,-5.19621 -0.27924,-5.84571 -9.10024,-5.81035 -12.31462,0.0494 -17.14082,2.886 -14.88994,8.7517 1.31647,3.43063 4.22067,4.29271 12.43839,3.69223 8.8498,-0.64669 10.86595,-1.80445 11.55179,-6.63358 z M 140.1671,917.39425 c 5.40497,-0.0268 7.15019,-1.30474 7.15019,-5.23563 0,-4.3177 -1.73339,-5.20014 -10.21455,-5.20014 -10.44281,0 -19.79097,6.02382 -16.81664,10.83641 0.88956,1.43932 4.11791,1.946 7.17408,1.12591 3.0562,-0.82006 8.77432,-1.50703 12.70692,-1.52655 z m 43.55114,-5.23563 c 0,-4.42974 -1.73338,-5.20014 -11.7003,-5.20014 -8.0169,0 -11.70031,1.09138 -11.70031,3.46675 0,5.50149 2.77456,6.93353 13.43367,6.93353 8.23356,0 9.96694,-0.90438 9.96694,-5.20014 z M 81.448881,853.22373 c -3.739236,-3.73923 -1.360878,-7.54519 6.716846,-10.74863 10.64028,-4.21968 29.844533,-12.98175 38.351013,-17.49791 3.5751,-1.89803 8.34053,-6.75181 10.5899,-10.78615 4.27436,-7.66633 6.43891,-31.23951 3.66966,-39.96461 -2.14885,-6.77042 -13.19644,-6.81774 -14.96254,-0.0642 -0.72022,2.75409 -7.20905,7.99698 -14.41964,11.65085 -7.21056,3.65388 -13.847003,7.8357 -14.747623,9.29293 -0.90061,1.45721 -3.92437,2.6495 -6.71945,2.6495 -2.79508,0 -7.376951,1.43323 -10.181931,3.18498 -3.863218,2.41263 -5.829935,2.45501 -8.110167,0.17472 -3.343368,-3.34337 -1.087538,-12.31226 2.533819,-10.07414 1.259611,0.77848 10.920629,-2.94994 21.468929,-8.28541 l 19.178743,-9.70085 -15.600423,-0.79279 c -29.191173,-1.48342 -26.096645,-10.36122 3.903573,-11.19881 10.72338,-0.29939 21.60279,-1.59867 24.17647,-2.88729 5.95847,-2.98335 19.52966,2.73394 21.54237,9.07538 6.17046,19.44141 1.74779,51.48034 -8.45971,61.28444 -3.48139,3.34382 -17.57828,10.65651 -31.32643,16.25043 -28.592413,11.63387 -25.386804,10.65401 -27.603409,8.4374 z m 85.816859,-4.53704 c -1.87194,-4.8782 -0.0416,-5.75156 15.88423,-7.57943 6.12262,-0.7027 16.65289,-4.01661 23.40062,-7.36425 9.58913,-4.7573 12.44824,-7.64821 13.09129,-13.23679 0.89367,-7.7668 0.1196,-8.32683 -6.70815,-4.85347 -2.48317,1.26319 -7.43991,3.45026 -11.01501,4.86017 -3.57509,1.40992 -12.35032,4.99616 -19.50051,7.96947 -19.90953,8.27906 -24.70065,9.21626 -24.70065,4.83168 0,-2.08616 4.38762,-5.6417 9.75026,-7.90121 5.36264,-2.25952 16.77044,-7.06127 25.35066,-10.67055 8.58023,-3.60929 18.62362,-6.56775 22.31865,-6.57438 6.58909,-0.013 6.70215,-0.32111 5.88151,-16.08964 -0.48335,-9.28757 -2.22259,-16.94522 -4.11817,-18.13202 -2.03333,-1.27299 -3.6038,-0.58356 -4.12893,1.81256 -0.9775,4.46032 -13.59053,11.59992 -20.47395,11.58929 -2.5736,-0.003 -9.47106,2.53067 -15.32772,5.63252 -6.87929,3.64348 -12.40126,4.95064 -15.60041,3.69293 -4.20998,-1.65512 -3.19886,-2.87102 6.74838,-8.1151 6.43516,-3.39256 13.74786,-6.22115 16.25042,-6.28576 2.50257,-0.0645 4.55012,-1.15108 4.55012,-2.41432 0,-1.26325 2.63257,-3.2425 5.85015,-4.39831 4.1884,-1.50455 0.49566,-2.36159 -13.00034,-3.01722 -15.67833,-0.76164 -18.85015,-1.66227 -18.84841,-5.35195 0.002,-3.8539 3.5,-4.51479 26.6507,-5.03491 34.64986,-0.77846 40.82487,1.59208 41.32564,15.86453 0.89138,25.4055 -0.58296,50.14479 -3.30011,55.37503 -3.789,7.29353 -25.48197,16.24897 -44.06507,18.1913 -12.12969,1.26779 -14.8863,0.79323 -16.2652,-2.80017 z M 74.515365,835.39226 c 0,-2.18045 2.632569,-5.11371 5.850153,-6.51832 3.217585,-1.40464 14.010859,-7.81084 23.985052,-14.23603 17.38782,-11.20091 31.61498,-15.32795 29.34296,-8.51189 -0.58122,1.74366 -7.99141,6.67474 -16.46709,10.95801 -8.4757,4.28325 -16.87982,9.21516 -18.675833,10.95978 -1.79602,1.74462 -5.59862,3.91256 -8.45023,4.81762 -2.8516,0.90506 -5.18474,2.73675 -5.18474,4.07043 0,1.33365 -2.340061,2.42485 -5.200136,2.42485 -2.926481,0 -5.200136,-1.73339 -5.200136,-3.96445 z m 0,-20.65999 c 0,-2.11716 6.500274,-6.79718 14.563712,-10.48548 8.01005,-3.66388 18.811933,-9.54833 24.004183,-13.07655 12.38592,-8.41644 18.63362,-8.38787 18.63362,0.0853 0,4.6731 -1.40107,6.50017 -4.98459,6.50017 -6.33717,0 -27.205113,8.89889 -36.666553,15.63603 -8.564795,6.09869 -15.550372,6.70092 -15.550372,1.34062 z m 84.350255,0.97794 c -2.67804,-4.33315 1.54998,-7.12461 23.79211,-15.70829 24.98382,-9.64175 32.26133,-11.45871 32.26133,-8.05467 0,2.75318 -25.66259,16.20864 -30.91353,16.20864 -1.70201,0 -7.66435,2.33135 -13.24972,5.18079 -6.84424,3.49169 -10.72086,4.26552 -11.89019,2.37353 z"
       id="path3184"
       inkscape:connector-curvature="0" />
  </g>
</svg>
