<?xml version="1.0" encoding="UTF-8" standalone="no"?>
<!-- Created with Inkscape (http://www.inkscape.org/) -->

<svg
   xmlns:dc="http://purl.org/dc/elements/1.1/"
   xmlns:cc="http://creativecommons.org/ns#"
   xmlns:rdf="http://www.w3.org/1999/02/22-rdf-syntax-ns#"
   xmlns:svg="http://www.w3.org/2000/svg"
   xmlns="http://www.w3.org/2000/svg"
   xmlns:sodipodi="http://sodipodi.sourceforge.net/DTD/sodipodi-0.dtd"
   xmlns:inkscape="http://www.inkscape.org/namespaces/inkscape"
   width="300"
   height="300"
   id="svg2"
   version="1.1"
   inkscape:version="0.48.3.1 r9886"
   sodipodi:docname="Nouveau document 1">
  <defs
     id="defs4" />
  <sodipodi:namedview
     id="base"
     pagecolor="#ffffff"
     bordercolor="#666666"
     borderopacity="1.0"
     inkscape:pageopacity="0.0"
     inkscape:pageshadow="2"
     inkscape:zoom="1.979899"
     inkscape:cx="229.68384"
     inkscape:cy="132.3013"
     inkscape:document-units="px"
     inkscape:current-layer="layer1"
     showgrid="false"
     inkscape:window-width="1215"
     inkscape:window-height="1000"
     inkscape:window-x="65"
     inkscape:window-y="24"
     inkscape:window-maximized="1" />
  <metadata
     id="metadata7">
    <rdf:RDF>
      <cc:Work
         rdf:about="">
        <dc:format>image/svg+xml</dc:format>
        <dc:type
           rdf:resource="http://purl.org/dc/dcmitype/StillImage" />
        <dc:title></dc:title>
      </cc:Work>
    </rdf:RDF>
  </metadata>
  <g
     inkscape:label="Calque 1"
     inkscape:groupmode="layer"
     id="layer1"
     transform="translate(0,-752.36218)">
    <path
       style="fill:#000000"
       d="m 231.96793,1033.7552 c -9.66822,-9.1032 -19.30483,-37.05042 -19.44744,-56.39985 -0.13254,-17.97566 3.40009,-46.8975 6.17474,-50.55312 3.38498,-4.45976 3.47234,-29.29676 0.12796,-36.34618 -2.83115,-5.96734 -5.36725,-7.09118 -19.4748,-8.63007 -20.1934,-2.20273 -74.16969,-1.73282 -106.422024,0.92648 -27.160581,2.23946 -32.17196,1.52987 -30.879156,-4.37256 0.74885,-3.4189 6.751846,-4.256 38.06822,-5.30853 42.02929,-1.41256 48.51264,-3.30312 45.63655,-13.30772 -1.86962,-6.50359 -2.51595,-6.6884 -23.79564,-6.80518 -27.85204,-0.15295 -39.196829,-4.78019 -48.153719,-19.64112 -8.456159,-14.03016 -9.078517,-30.22103 -1.161676,-30.22103 4.39801,0 6.235886,3.0742 9.330729,15.60738 3.453539,13.98587 4.891929,16.05054 13.844868,19.87283 6.009718,2.56576 17.079798,4.31331 27.780648,4.3855 14.6569,0.099 18.30419,-0.71929 20.71132,-4.64612 4.25049,-6.93392 -3.82282,-13.84539 -22.15017,-18.96244 -15.92891,-4.44742 -22.258172,-10.18062 -25.143397,-22.77555 -1.182486,-5.16197 -0.344269,-8.50322 2.683563,-10.69712 3.761884,-2.72575 5.048594,-1.84192 8.834174,6.06819 2.43703,5.09223 4.43096,10.58225 4.43096,12.20005 0,3.55657 16.07104,8.94372 26.68105,8.94372 7.44664,0 7.66856,-0.42513 7.66856,-14.68868 0,-8.82212 -1.42906,-15.63422 -3.57808,-17.05618 -4.89433,-3.2385 -25.59934,-8.24089 -34.10923,-8.24089 -6.99664,0 -13.837107,-4.0678 -13.837107,-8.22844 0,-2.14169 16.405347,-1.31303 42.273127,2.13523 16.58058,2.21025 20.70116,8.01084 20.70116,29.14126 l 0,16.9377 9.85634,0 c 12.19828,0 18.76834,-7.19336 18.76834,-20.54896 0,-7.77428 1.01036,-9.44035 5.72493,-9.44035 4.86783,0 5.72494,1.66607 5.72494,11.1284 0,6.12063 -1.46659,13.93861 -3.25909,17.37334 -3.47103,6.65105 -18.07124,13.98311 -27.84434,13.98311 -6.96393,0 -12.59855,7.84723 -9.95435,13.86323 1.54127,3.50662 4.35052,3.96652 16.44892,2.69267 27.13184,-2.85666 36.17462,-6.18904 40.30866,-14.85415 2.08597,-4.37225 4.71392,-13.34008 5.83989,-19.92856 3.01922,-17.66616 8.5603,-13.52327 8.31184,6.21447 -0.27165,21.58713 -7.05249,30.32874 -26.72102,34.4482 -7.73548,1.62014 -16.43478,2.71181 -19.33176,2.4259 -2.897,-0.2859 -9.45362,0.32911 -14.57028,1.3667 -7.77363,1.57639 -9.30302,3.04001 -9.30302,8.90304 0,8.55879 2.24317,9.25058 35.70914,11.01285 22.89373,1.20555 26.43512,2.0539 32.53028,7.79285 7.38254,6.95107 7.42825,10.59875 0.63959,51.02539 -8.33263,49.62097 -7.74844,55.14642 9.0537,85.63431 4.36773,7.9253 7.94132,16.0123 7.94132,17.971 0,6.6542 -5.35605,6.4847 -12.66911,-0.401 z m -139.995825,-2.4069 c -3.857146,-3.3675 -1.613573,-5.7701 11.688395,-12.5167 17.7506,-9.003 41.41802,-29.88348 45.62182,-40.24971 3.82826,-9.44021 0.25905,-17.77976 -11.38058,-26.59083 -10.01274,-7.57959 -13.48835,-14.67173 -13.48835,-27.52365 l 0,-11.41029 -31.487139,0 c -25.900236,0 -31.487143,-0.65669 -31.487143,-3.70104 0,-5.20313 5.616705,-5.79797 70.410322,-7.45677 58.90331,-1.50802 66.98813,-0.88317 66.98813,5.17743 0,3.28883 -11.55925,4.99462 -27.19345,4.01289 -3.14872,-0.19768 -11.1994,0.23291 -17.89042,0.95713 -9.39926,1.01724 -12.16549,2.37095 -12.16549,5.95345 0,2.55027 -1.59499,5.10101 -3.54442,5.66833 -4.03703,1.17487 0.82262,12.67911 8.18559,19.3779 17.47494,15.89852 20.62326,23.65871 15.30556,37.72613 -8.71292,23.04923 -59.11702,59.69553 -69.562825,50.57573 z"
       id="path2996"
       inkscape:connector-curvature="0" />
  </g>
</svg>
