<?xml version="1.0" encoding="UTF-8" standalone="no"?>
<!-- Created with Inkscape (http://www.inkscape.org/) -->

<svg
   xmlns:dc="http://purl.org/dc/elements/1.1/"
   xmlns:cc="http://creativecommons.org/ns#"
   xmlns:rdf="http://www.w3.org/1999/02/22-rdf-syntax-ns#"
   xmlns:svg="http://www.w3.org/2000/svg"
   xmlns="http://www.w3.org/2000/svg"
   xmlns:sodipodi="http://sodipodi.sourceforge.net/DTD/sodipodi-0.dtd"
   xmlns:inkscape="http://www.inkscape.org/namespaces/inkscape"
   width="300"
   height="300"
   viewBox="0 0 79.374999 79.374999"
   version="1.1"
   id="svg20"
   inkscape:version="0.92.4 (5da689c313, 2019-01-14)"
   sodipodi:docname="绘图.svg">
  <defs
     id="defs14" />
  <sodipodi:namedview
     id="base"
     pagecolor="#ffffff"
     bordercolor="#666666"
     borderopacity="1.0"
     inkscape:pageopacity="0.0"
     inkscape:pageshadow="2"
     inkscape:zoom="1.4"
     inkscape:cx="193.70147"
     inkscape:cy="150.99856"
     inkscape:document-units="mm"
     inkscape:current-layer="layer1"
     showgrid="false"
     inkscape:window-width="1600"
     inkscape:window-height="877"
     inkscape:window-x="-8"
     inkscape:window-y="-8"
     inkscape:window-maximized="1"
     fit-margin-top="0"
     fit-margin-left="0"
     fit-margin-right="0"
     fit-margin-bottom="0"
     showguides="true"
     units="px"
     inkscape:snap-page="true">
    <sodipodi:guide
       position="35.279577,483.2233"
       orientation="0,1"
       id="guide20"
       inkscape:locked="false" />
  </sodipodi:namedview>
  <metadata
     id="metadata17">
    <rdf:RDF>
      <cc:Work
         rdf:about="">
        <dc:format>image/svg+xml</dc:format>
        <dc:type
           rdf:resource="http://purl.org/dc/dcmitype/StillImage" />
        <dc:title></dc:title>
        <cc:license
           rdf:resource="http://creativecommons.org/publicdomain/zero/1.0/" />
      </cc:Work>
      <cc:License
         rdf:about="http://creativecommons.org/publicdomain/zero/1.0/">
        <cc:permits
           rdf:resource="http://creativecommons.org/ns#Reproduction" />
        <cc:permits
           rdf:resource="http://creativecommons.org/ns#Distribution" />
        <cc:permits
           rdf:resource="http://creativecommons.org/ns#DerivativeWorks" />
      </cc:License>
    </rdf:RDF>
  </metadata>
  <g
     inkscape:label="Layer 1"
     inkscape:groupmode="layer"
     id="layer1"
     transform="translate(49.873959,-256.91563)">
    <path
       style="fill:#000000;stroke-width:0.18283077"
       d="m 5.2204734,331.49434 c -0.327265,-0.98723 -0.36685,-1.63422 -0.311665,-5.09399 0.02085,-1.30724 -0.05477,-2.99386 -0.168032,-3.74804 -0.113269,-0.75417 -0.276733,-5.19696 -0.363254,-9.87286 -0.196296,-10.60858 -0.425193,-12.46285 -1.753403,-14.20423 -0.637538,-0.83586 -2.13388691,-1.81258 -4.922335,-3.21302 -1.7784743,-0.8932 -2.4572537,-1.33207 -2.6966723,-1.74356 -0.4371849,-0.7514 -0.4034235,-1.04121 0.1742376,-1.49559 0.5390198,-0.424 1.1079658,-0.40408 2.8654147,0.10028 2.45642509,0.70497 5.870341,3.04415 7.323298,5.01785 0.926791,1.25896 0.846536,0.96151 1.56546,5.8019 0.9805737,5.40396 0.549795,10.94049 0.549795,16.40906 0,11.97961 -0.018319,12.70759 -0.319953,12.70939 -0.1759744,10e-4 -0.618815,0.0515 -0.984089,0.11185 -0.659598,0.10909 -0.666146,0.10377 -0.958802,-0.77904 z m -33.2062474,-0.6633 c -0.189766,-0.429 -0.426466,-1.1489 -0.526004,-1.59978 -0.301152,-1.36415 -0.347928,-24.62721 -0.0533,-26.5075 0.351373,-2.24244 1.184445,-5.32518 1.949654,-7.21461 0.573686,-1.41653 0.814134,-1.77535 1.776494,-2.65105 3.074954,-2.79804 5.856305,-4.00574 9.868364,-4.28497 1.641748,-0.11426 2.508429,-0.34007 2.747341,-0.71581 0.07592,-0.1194 0.139304,-5.57681 0.140843,-12.12755 0.0027,-11.32365 0.02052,-11.96783 0.362493,-13.075 0.197833,-0.64051 0.474485,-1.32154 0.614784,-1.51341 0.25092,-0.34315 0.264919,-0.34311 0.856581,0.003 0.33082,0.19331 0.7740641,0.68056 0.9849864,1.08279 0.4297839,0.8196 0.421924,0.5201 0.4574791,17.43179 l 0.017424,8.29025 0.9598615,-0.12474 c 0.5279239,-0.0686 2.576634,-0.65466 4.5526915,-1.30236 l 3.59283099,-1.17762 0.72854791,-0.95448 c 1.722558,-2.25673 2.06476,-3.59138 2.213585,-8.63336 0.100572,-3.40728 0.155187,-3.91095 0.485202,-4.47467 0.481624,-0.82269 1.424631,-1.14769 1.818734,-0.62681 0.714604,0.94448 0.915205,2.09654 0.904201,5.19289 -0.02005,5.64308 -1.197936,9.31073 -3.706412,11.54096 -1.81832291,1.61663 -5.4438623,2.86853 -9.4313084,3.25663 -1.0976684,0.10684 -2.017287,0.21578 -2.0435963,0.24208 -0.026311,0.0263 -0.074368,2.36345 -0.1067952,5.19364 l -0.058957,5.1458 2.8926589,1.9543 c 1.5909623,1.07487 2.948481,1.89829 3.0167079,1.82982 0.068227,-0.0685 0.124049,-1.55116 0.124049,-3.29486 0,-2.92926 0.029062,-3.20962 0.3821041,-3.68664 0.42836,-0.57878 1.259905,-1.05358 1.54097509,-0.87987 0.101584,0.0628 0.363914,0.45823 0.582952,0.87878 0.429901,0.82539 0.556768,2.30954 0.804677,9.41355 0.179995,5.15789 -0.421531,9.27469 -1.73550209,11.87765 -0.92187,1.82621 -3.5359477,3.67228 -6.1386808,4.33513 -2.2730179,0.57889 -5.8424416,0.24777 -8.9772596,-0.83279 l -1.688088,-0.58188 -1.392483,-1.90336 c -1.133069,-1.54878 -1.458151,-2.149 -1.744992,-3.22189 -0.689303,-2.57825 -0.821793,-4.09374 -0.81856,-9.36308 0.0029,-4.83148 0.163885,-7.17419 0.647789,-9.43056 0.174235,-0.81243 0.249394,-0.90625 0.862341,-1.0765 0.927216,-0.25753 0.897119,-0.26923 1.290355,0.50158 0.649617,1.27335 0.826023,2.76812 0.595279,5.0441 -0.286228,2.82327 -0.281495,2.92053 0.136797,2.81115 0.189964,-0.0496 1.622069,-0.96417 3.182456,-2.03222 l 2.837063,-1.94189 0.109445,-1.69143 c 0.0602,-0.93028 0.129592,-3.25463 0.154209,-5.16522 l 0.04476,-3.47378 -0.975162,-0.0558 c -1.185406,-0.0678 -4.045951,0.61781 -6.384918,1.53038 -1.636313,0.63843 -1.668688,0.66321 -2.564116,1.9628 -1.134519,1.64661 -1.692202,2.75546 -2.297819,4.56881 -1.068431,3.19911 -1.124624,3.85421 -1.124624,13.11076 0,4.67589 0.07369,10.27348 0.163751,12.43907 0.09006,2.16558 0.105648,4.32488 0.03464,4.79844 -0.1767,1.17832 -0.849585,1.95972 -1.687565,1.95972 -0.570381,0 -0.668528,-0.0782 -0.978961,-0.77998 z m 19.8736726,-10.11566 c 1.8197988,-0.47401 3.4272414,-1.51101 3.9409501,-2.54242 0.6127613,-1.23028 1.5987718,-5.65963 1.5987718,-7.18198 0,-1.81691 -0.061016,-1.9141 -2.0205642,-3.21877 -0.9888292,-0.65838 -2.3779133,-1.6452 -3.0868544,-2.19296 -0.708939,-0.54776 -1.6586114,-1.13708 -2.1103809,-1.30961 l -0.821398,-0.3137 -1.010229,0.5266 c -0.555624,0.28963 -1.884181,1.16447 -2.952348,1.94409 -1.068166,0.77961 -2.477836,1.68121 -3.132602,2.00355 l -1.190481,0.58607 0.114936,2.47581 c 0.179324,3.86276 0.796414,5.96984 2.243471,7.66039 0.685063,0.80035 2.278651,1.58287 3.744938,1.83894 1.173131,0.20488 3.3218883,0.0782 4.6817906,-0.27601 z m -5.2073186,-7.01341 c -2.55896,-0.40454 -2.782434,-0.53722 -2.782434,-1.65199 0,-0.6075 0.08779,-0.75761 0.644209,-1.10149 0.620711,-0.38362 0.792446,-0.39571 4.70789,-0.33141 3.4735595,0.0571 4.1620252,0.11513 4.7408876,0.40006 0.8320682,0.40957 1.0260244,0.63414 1.1701571,1.3548 0.111759,0.5588 0.1028204,0.56633 -1.1416062,0.96106 -0.9778393,0.31018 -1.8183362,0.41149 -3.8138789,0.45973 -1.4077966,0.0341 -2.9941476,-0.007 -3.5252246,-0.0908 z m -6.439047,-27.53321 c -1.543617,-0.35019 -3.298047,-0.92061 -4.629368,-1.50517 -0.949729,-0.417 -1.119919,-0.57769 -1.582579,-1.49422 -1.16967,-2.31709 -1.375527,-3.41285 -1.375527,-7.32174 0,-3.89129 0.09485,-4.33578 1.046075,-4.90164 0.480929,-0.28609 0.515948,-0.2784 1.046387,0.22979 0.918725,0.8802 1.102661,1.80157 1.060386,5.31176 -0.03537,2.93713 -0.01249,3.16848 0.415999,4.20511 0.412364,0.99763 0.544501,1.14198 1.458998,1.59384 1.212798,0.59925 2.791943,0.86978 5.119258,0.87701 2.163304,0.007 3.127966,0.37449 3.604737,1.37429 1.052057,2.04628 -5.363736,1.80062 -6.164368,1.63097 z m 1.776708,-4.51625 c -0.642755,-0.4827 -0.907698,-2.37149 -0.931486,-6.64063 l -0.02248,-4.03528 -0.548492,-1.07201 c -0.502649,-0.98241 -0.632538,-1.10285 -1.554061,-1.44096 -0.895193,-0.32845 -1.597583,-0.37993 -6.399075,-0.46904 -5.597273,-0.10387 -5.990929,-0.1602 -6.394887,-0.915 -0.376927,-0.7043 -0.223254,-1.35612 0.408335,-1.73201 0.531574,-0.31635 1.058195,-0.36105 5.080698,-0.43125 6.272079,-0.10946 8.47783,0.27124 9.969107,1.7206 1.686749,1.63934 2.420604,4.02361 2.58173,8.38796 0.139424,3.77654 -0.13305,5.95952 -0.81035,6.49228 -0.532986,0.41925 -0.946896,0.45987 -1.379036,0.13534 z m 14.3604598,0.0277 c -0.2382996,-0.0882 -0.499751,-0.49487 -0.7146978,-1.11178 -0.5127726,-1.47169 -0.4645913,-7.19169 0.082141,-9.75147 0.5996043,-2.80731 0.77536,-3.20033 1.7693728,-3.95662 1.84635169,-1.40479 4.5038876,-1.89115 10.3334636,-1.89115 3.5121556,0 4.1958446,0.045 4.6755006,0.3079 0.723911,0.39674 0.964687,0.69696 1.099481,1.37093 0.103392,0.51696 0.05577,0.57122 -0.867361,0.98814 -0.946833,0.42764 -1.122403,0.44187 -5.7303596,0.46429 -5.028359,0.0245 -6.54782091,0.18949 -7.41219791,0.80498 -0.94505209,0.67293 -1.12504209,1.68585 -1.25136909,7.04232 -0.09516,4.03484 -0.159485,4.83419 -0.421122,5.23293 -0.337129,0.51381 -0.9739905,0.71736 -1.5628516,0.49953 z"
       id="path848"
       inkscape:connector-curvature="0"
       sodipodi:nodetypes="cscsssccccccsccccsscccccccsscccccscsssccscccscccssccccscsccsccccsccccssscsccccsccccccscsccccscccccccccccsccccccccccccsscccsssccccscsscscccscc" />
  </g>
</svg>
