<?xml version="1.0" encoding="UTF-8" standalone="no"?>
<!-- Created with Inkscape (http://www.inkscape.org/) -->

<svg
   xmlns:dc="http://purl.org/dc/elements/1.1/"
   xmlns:cc="http://creativecommons.org/ns#"
   xmlns:rdf="http://www.w3.org/1999/02/22-rdf-syntax-ns#"
   xmlns:svg="http://www.w3.org/2000/svg"
   xmlns="http://www.w3.org/2000/svg"
   xmlns:sodipodi="http://sodipodi.sourceforge.net/DTD/sodipodi-0.dtd"
   xmlns:inkscape="http://www.inkscape.org/namespaces/inkscape"
   width="300"
   height="300"
   id="svg2"
   version="1.1"
   inkscape:version="0.48.4 r9939"
   sodipodi:docname="image-seal.svg">
  <defs
     id="defs4" />
  <sodipodi:namedview
     id="base"
     pagecolor="#ffffff"
     bordercolor="#666666"
     borderopacity="1.0"
     inkscape:pageopacity="0.0"
     inkscape:pageshadow="2"
     inkscape:zoom="2.0506101"
     inkscape:cx="180.10765"
     inkscape:cy="122.98837"
     inkscape:document-units="px"
     inkscape:current-layer="layer1"
     showgrid="false"
     inkscape:window-width="1215"
     inkscape:window-height="1000"
     inkscape:window-x="65"
     inkscape:window-y="24"
     inkscape:window-maximized="1"
     fit-margin-top="10"
     fit-margin-left="10"
     fit-margin-right="10"
     fit-margin-bottom="10" />
  <metadata
     id="metadata7">
    <rdf:RDF>
      <cc:Work
         rdf:about="">
        <dc:format>image/svg+xml</dc:format>
        <dc:type
           rdf:resource="http://purl.org/dc/dcmitype/StillImage" />
        <dc:title />
      </cc:Work>
    </rdf:RDF>
  </metadata>
  <g
     inkscape:label="Calque 1"
     inkscape:groupmode="layer"
     id="layer1"
     transform="translate(0,-752.36218)">
    <path
       style="fill:#000000"
       d="m 156.40093,1043.5969 c -1.9812,-2.3872 -2.09844,-6.2268 -0.35358,-11.5793 1.43576,-4.4043 4.60872,-32.11305 7.05105,-61.57494 2.4423,-29.4619 5.11751,-56.95186 5.94491,-61.08882 1.22692,-6.13461 0.35215,-7.82305 -4.74342,-9.15557 -5.28863,-1.383 -5.70186,-2.29159 -2.69184,-5.91847 1.95578,-2.35653 4.95798,-4.28761 6.67158,-4.29126 2.05804,-0.006 3.11565,-7.6923 3.11565,-22.64813 0,-21.68295 -0.28377,-22.7095 -6.7031,-24.24749 -9.93211,-2.37958 -10.32504,-8.13353 -0.68707,-10.06113 10.1026,-2.02049 11.44728,-6.22582 11.49721,-35.95586 0.0401,-23.85924 4.0676,-32.97828 10.91907,-24.72279 3.72248,4.48535 1.26299,29.22004 -2.9055,29.22004 -1.34722,0 -2.44945,1.31683 -2.44945,2.92627 0,1.60945 1.17405,2.20066 2.60903,1.31379 1.45935,-0.90193 2.98134,4.20093 3.45398,11.58046 0.81437,12.71544 1.21923,13.28541 11.18536,15.74741 5.68724,1.40494 10.87609,2.01881 11.5308,1.3641 0.65469,-0.65471 2.60135,-14.01312 4.32588,-29.68536 3.51127,-31.90981 4.88501,-37.11958 9.37401,-35.54946 2.10842,0.7375 2.85393,10.22869 2.30936,29.40134 -0.8651,30.45822 1.30685,37.00761 11.48228,34.62389 7.13657,-1.67181 14.247,2.39997 11.61832,6.65326 -1.04426,1.68966 -5.24475,3.09115 -9.33438,3.11442 -13.74655,0.0782 -18.15066,7.86483 -17.77702,31.43037 0.24095,15.18871 3.76474,19.05596 15.17918,16.65815 5.49319,-1.15394 8.07824,-0.35328 9.32173,2.88725 2.39452,6.23999 -0.17933,7.9624 -11.27549,7.54527 -5.26622,-0.19785 -10.28674,0.79174 -11.1567,2.19936 -2.5376,4.10593 -1.71356,81.76423 1.18775,111.9365 2.79323,29.0481 1.01658,36.5638 -6.79636,28.7508 -3.33204,-3.332 -4.7017,-17.7532 -6.812,-71.72445 -1.45277,-37.15462 -2.67571,-67.75542 -2.71762,-68.00176 -0.042,-0.24648 -5.20383,-1.31423 -11.4709,-2.37305 -14.39463,-2.43194 -16.14075,0.10721 -16.19137,23.54487 -0.0461,21.32335 -8.2398,92.49879 -12.93954,112.39999 -1.74423,7.3861 -7.77801,10.0926 -11.77181,5.2803 z m 52.62603,-168.10846 c 0.18072,-9.49846 0.4916,-20.3785 0.6908,-24.17789 0.32843,-6.26508 -0.65487,-6.90796 -10.56604,-6.90796 -12.87377,0 -14.60803,3.58288 -15.04666,31.08585 l -0.27549,17.26992 12.43434,0 12.43435,0 0.32865,-17.26992 z M 99.22084,1037.9581 c -0.84684,-2.2069 -0.77243,-5.254 0.16551,-6.7714 0.93783,-1.5175 2.43445,-23.0263 3.32586,-47.7974 l 1.62069,-45.03835 -7.47948,6.90797 c -11.29234,10.42945 -12.84788,14.91952 -15.41748,44.50223 -2.49706,28.74775 -5.63867,38.39345 -12.50477,38.39345 -3.3313,0 -3.90157,-2.6565 -2.81749,-13.1252 1.95498,-18.87855 4.34929,-33.82081 7.19495,-44.9018 1.36601,-5.31914 3.19441,-13.10616 4.06313,-17.30449 1.71415,-8.28406 16.55346,-24.14332 22.59058,-24.14332 2.30784,0 3.73497,-3.16744 3.73497,-8.28956 0,-7.23692 -0.98248,-8.28956 -7.73692,-8.28956 -4.25531,0 -9.22905,-1.49212 -11.05275,-3.31582 -4.299,-4.299 -4.299,-27.75398 0,-32.05298 5.95458,-5.95458 7.73692,-3.53571 7.73692,10.50012 0,11.9738 0.73686,13.81593 5.52638,13.81593 5.00976,0 5.52637,-1.84213 5.52637,-19.70614 l 0,-19.70614 -10.36195,1.60141 c -5.69908,0.88079 -12.84882,2.30411 -15.88833,3.16296 -5.91084,1.67016 -14.86384,-2.52826 -11.83992,-5.55221 0.99881,-0.99878 10.28853,-4.01336 20.64388,-6.69907 15.57879,-4.04044 18.98749,-5.95378 19.75264,-11.08731 1.37994,-9.25806 -2.25584,-10.96961 -17.27141,-8.13065 -22.80215,4.31115 -20.23601,-3.96946 3.05335,-9.85276 12.09339,-3.055 13.37258,-4.15716 14.17114,-12.21019 0.86831,-8.75582 0.77093,-8.83197 -8.95662,-7.00708 -10.8722,2.03965 -14.47053,2.3182 -21.62545,1.6741 -12.8394,-1.15578 1.4281,-9.059 23.48709,-13.01021 10.27931,-1.84123 10.36195,-1.96198 10.36195,-15.13846 0,-17.55762 2.02122,-22.02398 9.96679,-22.02398 6.15086,0 6.61234,1.03235 6.61234,14.79192 l 0,14.79189 13.81593,-1.32751 c 11.06767,-1.06347 13.81594,-0.49724 13.81594,2.84652 0,4.3253 -7.82477,7.47868 -18.7199,7.54408 -4.18527,0.0249 -7.18603,2.4061 -8.98036,7.12557 -4.54837,11.96314 -3.61425,13.01984 9.73954,11.0173 11.09251,-1.66341 12.43434,-1.28812 12.43434,3.47788 0,4.02337 -2.55854,5.77042 -10.36195,7.07556 -15.15881,2.53528 -18.34842,5.35273 -16.11841,14.23776 1.85777,7.402 2.23442,7.52869 17.16514,5.7739 13.63121,-1.60209 15.16652,-1.2712 14.33922,3.09046 -0.59455,3.13462 -3.88788,5.17214 -9.1924,5.68711 -4.54627,0.44137 -11.59105,2.10743 -15.65509,3.7024 -6.97185,2.73613 -7.43999,4.07644 -8.28956,23.73409 -0.68463,15.84157 0.0166,21.18469 2.92915,22.29685 7.22927,2.76111 12.72141,-3.85968 14.13116,-17.03511 0.75987,-7.10183 2.31416,-12.88192 3.45398,-12.84462 1.13981,0.0373 3.31582,0.0677 4.83558,0.0677 1.51975,0 2.76318,6.69589 2.76318,14.87973 0,12.76596 -0.96753,15.5137 -6.81075,19.34231 -3.74592,2.45443 -9.96309,4.46258 -13.81594,4.46258 -11.0913,0 -9.46168,12.17303 3.12961,23.37747 7.05995,6.28233 11.21467,13.11627 13.694,22.52479 6.75215,25.62284 2.68822,71.90488 -6.58526,74.99598 -2.55078,0.8503 -3.5602,-5.8082 -3.94597,-26.0288 -0.2851,-14.94425 -0.67684,-31.52338 -0.87051,-36.84251 -0.54783,-15.04561 -13.44719,-36.41218 -16.37053,-27.11621 -0.62769,1.99602 -1.98038,16.68518 -3.00596,32.64258 -1.02559,15.95741 -2.34581,36.24544 -2.93379,45.08444 -0.588,8.839 -1.78678,17.2322 -2.66396,18.6515 -2.38175,3.8538 -6.76295,3.1164 -8.50829,-1.4318 z"
       id="path3067"
       inkscape:connector-curvature="0" />
  </g>
</svg>
