<?xml version="1.0" encoding="UTF-8" standalone="no"?>
<!-- Created with Inkscape (http://www.inkscape.org/) -->

<svg
   xmlns:dc="http://purl.org/dc/elements/1.1/"
   xmlns:cc="http://creativecommons.org/ns#"
   xmlns:rdf="http://www.w3.org/1999/02/22-rdf-syntax-ns#"
   xmlns:svg="http://www.w3.org/2000/svg"
   xmlns="http://www.w3.org/2000/svg"
   xmlns:sodipodi="http://sodipodi.sourceforge.net/DTD/sodipodi-0.dtd"
   xmlns:inkscape="http://www.inkscape.org/namespaces/inkscape"
   width="300"
   height="300"
   id="svg2"
   version="1.1"
   inkscape:version="0.48.4 r9939"
   sodipodi:docname="image-seal.svg">
  <defs
     id="defs4" />
  <sodipodi:namedview
     id="base"
     pagecolor="#ffffff"
     bordercolor="#666666"
     borderopacity="1.0"
     inkscape:pageopacity="0.0"
     inkscape:pageshadow="2"
     inkscape:zoom="2.0018437"
     inkscape:cx="123.3515"
     inkscape:cy="143.3195"
     inkscape:document-units="px"
     inkscape:current-layer="layer1"
     showgrid="false"
     inkscape:window-width="1215"
     inkscape:window-height="1000"
     inkscape:window-x="65"
     inkscape:window-y="24"
     inkscape:window-maximized="1"
     fit-margin-top="10"
     fit-margin-left="10"
     fit-margin-right="10"
     fit-margin-bottom="10" />
  <metadata
     id="metadata7">
    <rdf:RDF>
      <cc:Work
         rdf:about="">
        <dc:format>image/svg+xml</dc:format>
        <dc:type
           rdf:resource="http://purl.org/dc/dcmitype/StillImage" />
        <dc:title />
      </cc:Work>
    </rdf:RDF>
  </metadata>
  <g
     inkscape:label="Calque 1"
     inkscape:groupmode="layer"
     id="layer1"
     transform="translate(0,-752.36218)">
    <path
       style="fill:#000000"
       d="m 217.3487,1033.0266 c -5.28405,-7.9582 -9.60735,-16.2687 -9.60735,-18.4676 0,-2.199 -1.05195,-3.998 -2.33764,-3.998 -3.33096,0 -10.09601,-15.18699 -13.46852,-30.23586 -2.84233,-12.68296 -1.3273,-21.84355 8.08915,-48.91118 1.26198,-3.62758 2.91549,-12.15789 3.67446,-18.95624 1.42446,-12.75928 0.0712,-14.75956 -16.46374,-24.33483 -3.90707,-2.26256 -16.42904,23.63404 -16.42904,33.97677 0,3.50055 -1.02701,6.99938 -2.28223,7.77515 -2.91003,1.79849 -5.31328,17.65036 -7.23289,47.7083 -0.834,13.05928 -2.5893,27.89939 -3.90063,32.97789 -1.31134,5.0786 -2.39088,13.6159 -2.39895,18.9716 -0.0185,11.5704 -3.50015,14.849 -7.0838,6.6686 -1.69902,-3.8784 -1.45554,-17.425 0.72166,-40.15042 5.80668,-60.60905 6.57629,-65.16465 14.26213,-84.4236 8.40498,-21.06089 13.19119,-43.60323 13.19119,-62.12843 l 0,-13.06134 -10.20558,0 c -11.21116,0 -9.93578,-2.5665 -15.35844,30.90685 -1.38516,8.55032 -7.45967,16.09602 -10.50567,13.04999 -0.90479,-0.90479 -0.11477,-12.32139 1.75556,-25.37022 3.12146,-21.77746 2.65567,-39.7786 -1.62439,-62.77709 -1.36539,-7.33689 -0.83762,-8.57427 3.6572,-8.57427 8.17759,0 10.82939,5.40704 11.6946,23.84531 0.77435,16.50228 1.03701,17.07454 8.21462,17.89756 13.23599,1.51768 15.35528,-2.91343 14.81423,-30.9743 -0.26807,-13.90338 -1.49144,-27.95009 -2.71859,-31.21491 -3.1075,-8.26747 2.1152,-7.68717 9.64107,1.07123 4.22387,4.91564 5.46075,8.65629 4.14369,12.53163 -1.03261,3.0384 -1.82321,15.02201 -1.75686,26.63026 l 0.12057,21.1059 9.89339,0.8188 c 9.77784,0.80925 9.89339,0.70615 9.89339,-8.82778 0,-11.48298 7.1386,-37.3691 10.95586,-39.72832 1.4823,-0.9161 4.0006,-0.36012 5.59623,1.23551 2.10938,2.10938 1.68663,6.75405 -1.54899,17.01864 -4.93904,15.66839 -5.82931,36.48688 -1.87618,43.87336 1.41568,2.64523 2.86228,8.59345 3.21469,13.21831 0.35239,4.62485 1.56854,8.98222 2.70251,9.68307 3.79539,2.34568 2.11465,10.93098 -2.48554,12.69625 -6.32013,2.42525 -10.03931,-3.62932 -13.71923,-22.334 l -3.10486,-15.78178 -10.52604,0 -10.52604,0 0.6346,18.46767 c 0.41357,12.03561 1.71517,18.46766 3.73712,18.46766 5.34525,0 24.44097,19.83458 26.32584,27.34443 1.7965,7.15786 -2.87658,29.78201 -7.13066,34.52223 -1.23712,1.37848 -2.24931,5.90855 -2.24931,10.06683 0,4.15829 -1.24211,9.88144 -2.76025,12.7181 -4.17388,7.79897 2.0116,34.502 11.41399,49.27477 13.42857,21.0987 17.72864,29.588 17.72864,35.0009 0,9.3372 -6.98033,5.4786 -16.77503,-9.2734 z m -108.04606,9.9944 c -0.72372,-1.1708 -1.31017,-18.1544 -1.30321,-37.7408 0.008,-19.58648 -0.10526,-37.09581 -0.24931,-38.90959 -0.16832,-2.11848 -4.56948,-3.2978 -12.30738,-3.2978 -11.72053,0 -20.31699,-2.96498 -26.48788,-9.13587 -4.01231,-4.01232 -6.47344,-20.5367 -8.03029,-53.91642 -0.97309,-20.8635 -0.4471,-28.02178 2.19567,-29.88102 2.72955,-1.92027 2.76765,-2.73211 0.17756,-3.78305 C 60.91805,865.39083 60,856.23702 60,833.47423 c 0,-41.10506 3.76313,-49.81362 24.31835,-56.27722 15.26099,-4.79882 44.54036,-4.69398 46.14111,0.16515 0.58767,1.78385 -4.87264,3.60927 -14.00801,4.68295 -8.2341,0.96776 -20.60548,3.60246 -27.49199,5.85494 -11.35925,3.71543 -12.66465,4.99434 -14.0702,13.78471 -0.8521,5.32913 -0.84729,12.37354 0.0105,15.65422 1.58867,6.07462 3.90032,7.00096 24.45742,9.80047 6.4107,0.87304 13.11354,3.58085 14.89517,6.01737 3.77046,5.15641 4.65052,29.34192 4.91791,135.15049 0.17175,67.95049 -0.22874,75.22889 -4.18103,75.99529 -2.40401,0.4662 -4.9631,-0.1108 -5.68682,-1.2817 z m -5.43928,-94.32814 c 5.00017,-3.50224 5.37573,-5.90037 4.42586,-28.25975 -0.57089,-13.43802 -1.52385,-24.9186 -2.11769,-25.51244 -2.99588,-2.99587 -29.94484,-2.78041 -32.46781,0.25961 -2.7606,3.32629 1.70876,42.31355 6.04391,52.72266 2.39314,5.74616 16.38538,6.20448 24.11573,0.78992 z m 4.64332,-86.53263 c -0.95884,-11.971 -2.25239,-22.3387 -2.87454,-23.03931 -0.62217,-0.70061 -8.7695,-1.91478 -18.10517,-2.69815 l -16.97397,-1.42433 0,19.3606 c 0,27.42208 1.63777,29.56665 22.57957,29.56665 l 17.11746,0 -1.74335,-21.76546 z"
       id="path3132"
       inkscape:connector-curvature="0" />
  </g>
</svg>
