<?xml version="1.0" encoding="UTF-8" standalone="no"?>
<!-- Created with Inkscape (http://www.inkscape.org/) -->

<svg
   xmlns:dc="http://purl.org/dc/elements/1.1/"
   xmlns:cc="http://creativecommons.org/ns#"
   xmlns:rdf="http://www.w3.org/1999/02/22-rdf-syntax-ns#"
   xmlns:svg="http://www.w3.org/2000/svg"
   xmlns="http://www.w3.org/2000/svg"
   xmlns:sodipodi="http://sodipodi.sourceforge.net/DTD/sodipodi-0.dtd"
   xmlns:inkscape="http://www.inkscape.org/namespaces/inkscape"
   width="300"
   height="300"
   id="svg2"
   version="1.1"
   inkscape:version="0.92.4 (5da689c313, 2019-01-14)"
   sodipodi:docname="image-bigseal.svg">
  <defs
     id="defs4" />
  <sodipodi:namedview
     id="base"
     pagecolor="#ffffff"
     bordercolor="#666666"
     borderopacity="1.0"
     inkscape:pageopacity="0.0"
     inkscape:pageshadow="2"
     inkscape:zoom="2.0000001"
     inkscape:cx="190.86636"
     inkscape:cy="95.119679"
     inkscape:document-units="px"
     inkscape:current-layer="layer1"
     showgrid="false"
     inkscape:window-width="1872"
     inkscape:window-height="1016"
     inkscape:window-x="48"
     inkscape:window-y="27"
     inkscape:window-maximized="1" />
  <metadata
     id="metadata7">
    <rdf:RDF>
      <cc:Work
         rdf:about="">
        <dc:format>image/svg+xml</dc:format>
        <dc:type
           rdf:resource="http://purl.org/dc/dcmitype/StillImage" />
        <dc:title />
      </cc:Work>
    </rdf:RDF>
  </metadata>
  <g
     inkscape:label="Calque 1"
     inkscape:groupmode="layer"
     id="layer1"
     transform="translate(0,-752.36218)">
    <path
       style="fill:#000000;stroke-width:5.98525953"
       d="m 108.15503,974.06851 c 0,-36.89555 -1.66645,-59.40195 -5.42425,-69.35789 -2.66077,-7.04946 -12.878195,-3.10112 -12.878195,-3.10112 0,0 -3.33971,31.45626 -4.607889,64.94364 -3.304488,87.25816 -14.002503,89.97786 -12.728433,3.23579 0.38212,-26.01379 4.3209,-68.87186 4.3209,-68.87186 0,0 -6.635709,-6.08721 -7.349331,-7.23568 -5.799434,-9.33347 35.604148,-8.42848 43.428858,0.94923 7.62325,9.1363 8.1804,147.73158 0.59388,147.73158 -2.94554,0 -5.35554,-30.7321 -5.35554,-68.29369 z m 54.0121,0 c 0,-27.15012 -1.12874,-47.59366 -2.96788,-59.80038 -2.18987,-14.53451 -12.61735,-10.40618 -12.61735,-10.40618 1.97482,27.65483 -3.01638,56.54774 -3.08561,81.97123 0,24.36282 -2.55057,45.86382 -5.66797,47.78012 -3.42928,2.1081 -5.66791,-23.2962 -5.66791,-64.32017 0,-21.60628 -0.56941,-38.71465 -1.69304,-51.16671 0.4474,-4.54024 0.70456,-17.07273 0.70456,-17.07273 0,0 -9.09405,-7.78559 -8.77402,-10.95132 0.31009,-2.208 5.28664,-2.93984 16.36398,-2.93984 11.55259,0 24.24542,3.22338 28.20632,7.16306 9.06286,9.01436 10.19003,148.03661 1.20026,148.03661 -3.65121,0 -6.00134,-26.744 -6.00134,-68.29369 z m 58.5131,64.83049 c -2.47555,-2.4727 -4.50102,-33.5956 -4.50102,-69.1623 0,-35.56657 -2.45814,-64.66652 -5.4626,-64.66652 -1.3136,0 -8.05182,-1.90414 -8.05182,-1.90414 0,0 -4.9609,93.86414 -2.85201,112.33466 0.74968,6.5662 -1.33752,12.549 -4.63826,13.2952 -3.75762,0.8496 -5.69018,-23.1413 -5.16902,-64.16909 0.4579,-36.03922 1.09831,-64.81873 -1.83508,-64.81873 -2.93334,0 -7.99926,-3.39326 -7.99926,-6.67633 0,-9.03746 33.55747,-7.14486 41.47067,2.33892 7.74539,9.28273 6.79411,151.17473 -0.9616,143.42833 z M 120.15772,861.65347 c 0,0 -10.26231,1.63218 -22.805105,1.63218 -12.542807,0 -26.045829,-3.22338 -30.006716,-7.16306 -11.62465,-11.56244 -8.894957,-61.06284 4.259217,-77.23704 10.583662,-13.01343 16.554819,-14.24667 78.017464,-16.11247 85.9735,-2.60986 87.83686,7.86498 2.32486,13.06907 -35.32745,2.14993 -66.924521,6.58739 -70.215698,9.86097 -2.287374,2.27511 -2.941194,5.75736 -2.941194,5.75736 0,0 10.429127,0.19454 15.732857,0.19454 27.842925,0 37.637005,13.31435 37.637005,51.16475 0,17.82235 -2.70262,32.51916 -6.00135,32.40432 -5.07802,-0.17678 -6.00134,-13.57062 -6.00134,-13.57062 z m 0,-30.55988 c 0,-21.39439 -7.43746,-27.50013 -33.498225,-27.50013 -3.627042,0 -9.974744,-1.02294 -9.974744,-1.02294 l -3.471407,17.75494 c 0,0 3.562322,0.5856 5.359399,0.73562 4.844846,0.40444 7.117662,0.44004 14.578932,0.44004 11.552585,0 21.004695,2.68615 21.004695,5.96922 0,3.28307 -9.45211,5.96922 -21.004695,5.96922 -7.12608,0 -20.805434,-1.82874 -20.805434,-1.82874 0,0 -1.949035,10.03702 3.801631,15.75689 2.200489,2.18874 13.002903,3.9795 24.005358,3.9795 9.18151,0 19.71002,-0.19961 19.71002,-0.19961 0,0 0.29447,-10.37525 0.29447,-20.05401 z m 105.02496,32.19654 c -1.79204,-5.616 -9.7706,-16.4347 -9.7706,-16.4347 0,0 -5.47552,6.38675 -9.15268,8.34416 -14.20561,7.56193 -58.9386,8.52756 -58.9386,1.04556 0,-3.09432 14.32122,-5.03779 28.34936,-6.04731 16.4712,-1.18536 28.83611,-10.96352 28.83611,-10.96352 0,0 -12.81492,-3.4669 -30.33646,-4.67959 -14.85332,-1.02802 -29.70664,-4.61206 -33.00738,-7.96449 -4.07426,-4.13805 6.04642,-5.45462 31.51797,-4.10002 14.53307,0.77284 36.4911,2.41821 36.4911,2.41821 0,0 1.02045,-5.28498 1.0173,-7.24588 -0.012,-8.99716 -14.25847,-14.06939 -39.51051,-14.06939 -11.28258,0 -20.51384,-2.68614 -20.51384,-5.96921 0,-7.85574 45.55337,-7.69737 60.40795,0.21011 7.1934,3.8292 11.60816,12.47609 11.60816,22.73598 0,3.45434 -2.01123,9.41696 -2.01123,9.41696 0,0 7.81459,14.77145 10.8224,18.72683 4.84614,6.37286 8.89706,14.94472 9.00202,19.04856 0.30486,11.92023 -10.63432,8.61698 -14.81107,-4.47244 z"
       id="path323"
       inkscape:connector-curvature="0"
       sodipodi:nodetypes="sscsccccsssscccscccscsscssccccsscccsccssccssscssccasssccscscccsccsccccsscscsccc" />
  </g>
</svg>
