<?xml version="1.0" encoding="UTF-8" standalone="no"?>
<svg
   xmlns:dc="http://purl.org/dc/elements/1.1/"
   xmlns:cc="http://creativecommons.org/ns#"
   xmlns:rdf="http://www.w3.org/1999/02/22-rdf-syntax-ns#"
   xmlns:svg="http://www.w3.org/2000/svg"
   xmlns="http://www.w3.org/2000/svg"
   viewBox="0 0 300 300"
   height="300"
   width="300"
   id="svg201"
   version="1.1">
  <metadata
     id="metadata207">
    <rdf:RDF>
      <cc:Work
         rdf:about="">
        <dc:format>image/svg+xml</dc:format>
        <dc:type
           rdf:resource="http://purl.org/dc/dcmitype/StillImage" />
        <dc:title></dc:title>
      </cc:Work>
    </rdf:RDF>
  </metadata>
  <defs
     id="defs205" />
  <path
     id="path211"
     d="m 145.00731,283.86801 c -3.05591,-3.05592 -3.34456,-3.19569 -3.06388,-53.44912 l 0.26614,-47.65009 c -18.93503,5.05487 -15.86286,61.27533 -15.81067,72.21304 0.0195,5.81377 -9.49977,4.92252 -9.71531,0.86403 -0.52956,-14.43238 -0.25799,-28.39225 0.3891,-42.33768 1.63585,-20.92867 4.09342,-36.70786 25.32531,-42.84523 l 0.24234,-14.06169 c 0,0 -16.1583,-1.82721 -20.51216,-6.86862 -4.18843,-4.84987 -4.69919,-15.31264 0.0345,-23.81549 4.84192,-8.69734 12.32282,-15.30067 20.22475,-21.13821 l -0.0765,-8.720346 c -7.78664,-1.29101 -19.70935,-3.413799 -23.10718,-10.281341 -1.78693,-3.611663 -1.89589,-8.87021 -0.39142,-14.646261 3.18203,-10.449943 8.45346,-16.663522 17.74913,-23.091152 5.81982,-4.024214 6.34706,-3.956124 6.31195,-16.670114 -0.0252,-9.118325 4.94489,-22.8338233 10.18255,-12.926958 1.81667,3.436164 0.50149,25.714667 0.50149,25.714667 10.0569,7.505245 18.63226,17.794807 20.06316,28.3076 2.16508,18.042648 -6.3277,19.357656 -19.0622,23.708719 -0.98116,5.167796 -0.48981,9.272426 2.12656,11.070646 14.94488,10.27153 25.8316,39.12183 12.9679,45.0595 -4.66837,2.15484 -9.42326,2.28975 -14.36119,3.85838 l -0.34207,14.72848 c 23.36524,5.96867 24.55849,39.13508 23.90473,60.58934 -0.73165,24.01083 0.0862,27.61289 -6.03529,27.77112 -5.34011,0.13803 -5.3572,-19.58409 -5.30032,-28.11004 0.0841,-12.61302 1.8885,-44.10777 -12.46905,-48.68402 l -0.66229,64.07934 c -9.5e-4,33.96767 -0.0972,34.97613 -3.53852,37.38655 -2.07809,1.45555 -4.35211,1.43412 -5.84128,-0.055 z m 14.3468,-140.16068 c 4.44597,-1.57881 4.75003,-2.10093 4.05138,-6.95701 -1.56399,-10.87079 -6.84671,-17.85842 -14.60092,-19.31312 -2.24579,-0.42131 -6.42678,2.15947 -8.83614,4.4004 -4.27604,3.97712 -8.22682,8.98653 -8.92369,15.07601 -0.58931,5.14963 0.0555,6.24307 4.16014,7.05498 8.52361,1.68598 18.98441,1.57282 24.14923,-0.26126 z m 3.41652,-63.222678 c 0.16331,-10.506285 -7.77541,-22.886344 -15.2163,-24.921952 -8.0252,2.552735 -13.76988,8.570887 -16.05244,14.434814 -1.27604,3.683643 -3.17796,9.587871 0.16568,11.023344 10.00802,4.296589 20.08749,4.336495 31.10306,-0.536206 z m 48.56222,199.903358 c -0.99694,-3.42935 -1.10447,-8.93003 -0.94154,-48.16338 0.10117,-24.36052 0.0223,-48.63657 0.0223,-48.63657 -16.95456,5.41937 -15.23572,42.87733 -15.24329,52.11787 -0.0167,20.41909 -0.81817,23.67375 -5.8778,23.73632 -4.52192,0.0559 -4.76119,-9.97292 -4.7084,-16.27962 0.29841,-35.32608 1.25975,-66.39588 25.53402,-72.05935 l 0.45076,-13.1334 c -14.21586,-1.4768 -26.71146,-7.64396 -22.63043,-22.47063 3.65138,-12.03415 11.10317,-22.05374 22.34289,-26.23608 l -0.20269,-9.988606 c -12.01223,-1.24255 -20.44096,-4.48006 -23.25248,-10.835632 -5.08727,-11.500029 5.70463,-28.970557 18.00446,-37.707537 5.86021,-4.16249 5.71209,-4.350155 6.10062,-14.86868 0.27458,-7.433874 0.007,-8.630379 1.4304,-11.542873 2.01614,-6.278103 7.6515,-4.243823 8.68179,0.137396 1.45167,6.173028 1.01991,12.024477 0.81344,20.945885 10.25314,8.013758 17.48848,19.144791 20.19193,29.024712 4.45038,16.264213 -6.73757,23.172629 -21.18057,24.725339 -0.34231,8.972656 -0.77996,9.479326 2.23947,11.476876 10.94595,7.24148 16.05031,16.29657 18.51058,24.5323 4.95933,16.60136 -5.64806,21.05137 -18.58024,22.81175 l -0.35892,13.24646 c 25.76415,8.06051 25.16866,47.46405 23.96616,75.64451 -0.16776,13.72065 -6.05995,16.03724 -9.08402,6.39093 -3.63978,-11.61031 3.47554,-61.968 -15.04257,-69.62219 l -0.39147,66.37096 c -9.5e-4,32.64293 -0.055,32.72201 -4.23092,34.2793 -4.09271,1.52627 -5.55879,-0.51362 -6.56344,-3.89606 z m 20.6497,-137.20592 c -1.00125,-10.05292 -6.69686,-22.28593 -15.30562,-22.87609 -6.91501,-0.21524 -13.7549,7.13236 -16.18918,13.00202 -2.06618,5.03127 -2.73304,8.59113 -0.90263,9.52041 9.2237,4.68281 24.76337,3.80907 32.39743,0.35366 z m -0.71768,-58.12174 c 1.47415,-11.418685 -8.14308,-25.084111 -16.75014,-25.690343 -7.43652,-0.150234 -15.61131,11.816428 -16.39242,18.76893 -0.54165,5.220039 0.0924,6.872011 2.69386,7.518163 9.52734,2.36639 20.50572,2.193122 30.4487,-0.59675 z M 101.19369,278.31077 c -2.431783,-4.65107 -2.819165,-8.04849 -3.525518,-16.41666 -2.759004,-32.68595 -4.126622,-57.54536 -4.102854,-89.70955 -8.161427,-0.14617 -24.599694,-1.33111 -26.881536,-2.11726 -7.073494,-2.43703 -12.289159,-7.29387 -12.43089,-16.00973 L 52.911401,71.562053 c 0.336213,-14.344394 0.526174,-24.326321 6.077347,-30.788633 8.250519,-9.604716 23.207637,-9.098358 31.694391,-9.239195 5.321682,-0.08832 22.531671,0.02999 22.919961,6.775355 0.26887,4.670893 -18.468652,4.506774 -22.464892,4.526267 -25.097577,0.177044 -25.153786,3.956285 -25.352787,24.942763 l 15.675601,0.867136 c 13.714226,0.758637 19.890648,3.378849 22.916608,14.717102 1.0282,3.852669 1.12852,12.759986 1.03613,72.073292 -0.0847,54.36968 -0.32345,76.27852 3.65684,114.31376 0.68677,6.56271 -5.10824,13.85629 -7.87691,8.56087 z m -7.501006,-117.65394 0.04628,-37.22874 -28.58244,0.22256 c 0,0 -1.462304,30.49689 2.99326,33.94928 4.611509,3.57322 12.670962,3.13039 25.542903,3.0569 z M 90.534497,81.901979 C 86.453654,79.221465 74.295296,79.854928 65.73448,79.755662 l -0.368946,31.796468 h 28.40508 c 0,0 0.427515,-27.243683 -3.236117,-29.650151 z"
     style="fill:#000000;stroke-width:0.69122756" />
</svg>
