<?xml version="1.0" encoding="UTF-8" standalone="no"?>
<!-- Created with Inkscape (http://www.inkscape.org/) -->

<svg
   xmlns:dc="http://purl.org/dc/elements/1.1/"
   xmlns:cc="http://creativecommons.org/ns#"
   xmlns:rdf="http://www.w3.org/1999/02/22-rdf-syntax-ns#"
   xmlns:svg="http://www.w3.org/2000/svg"
   xmlns="http://www.w3.org/2000/svg"
   xmlns:sodipodi="http://sodipodi.sourceforge.net/DTD/sodipodi-0.dtd"
   xmlns:inkscape="http://www.inkscape.org/namespaces/inkscape"
   width="300"
   height="300"
   id="svg2"
   version="1.1"
   inkscape:version="0.48.4 r9939"
   sodipodi:docname="image-seal.svg">
  <defs
     id="defs4" />
  <sodipodi:namedview
     id="base"
     pagecolor="#ffffff"
     bordercolor="#666666"
     borderopacity="1.0"
     inkscape:pageopacity="0.0"
     inkscape:pageshadow="2"
     inkscape:zoom="1.979899"
     inkscape:cx="197.63697"
     inkscape:cy="133.25325"
     inkscape:document-units="px"
     inkscape:current-layer="layer1"
     showgrid="false"
     inkscape:window-width="1215"
     inkscape:window-height="1000"
     inkscape:window-x="65"
     inkscape:window-y="24"
     inkscape:window-maximized="1"
     fit-margin-top="10"
     fit-margin-left="10"
     fit-margin-right="10"
     fit-margin-bottom="10" />
  <metadata
     id="metadata7">
    <rdf:RDF>
      <cc:Work
         rdf:about="">
        <dc:format>image/svg+xml</dc:format>
        <dc:type
           rdf:resource="http://purl.org/dc/dcmitype/StillImage" />
        <dc:title></dc:title>
      </cc:Work>
    </rdf:RDF>
  </metadata>
  <g
     inkscape:label="Calque 1"
     inkscape:groupmode="layer"
     id="layer1"
     transform="translate(0,-752.36218)">
    <path
       style="fill:#000000"
       d="m 98.15721,1024.0181 c 0.71426,-53.90156 0.8079,-53.18922 -6.992524,-53.18922 -8.87383,0 -29.03247,-19.37876 -31.49432,-30.27587 -0.99655,-4.41119 -2.94969,-12.5847 -4.34032,-18.16336 -3.11765,-12.50697 -1.32253,-106.60248 2.4042,-126.02127 3.70064,-19.28293 5.53191,-22.82142 13.74806,-26.56494 10.91402,-4.97275 37.032804,-4.17707 39.092714,1.19095 2.01106,5.24077 -13.286264,12.60859 -26.178384,12.60859 -10.90653,0 -14.0094,4.33385 -15.11838,21.11627 l -0.92223,13.95647 11.34703,0.97287 c 26.542904,2.27576 28.771004,5.72228 29.880664,46.22032 0.58508,21.35229 0.59813,137.23459 0.0198,176.58809 -0.0874,5.9468 -1.50268,7.8011 -5.95438,7.8011 -5.49933,0 -5.819494,-1.5296 -5.49204,-26.24 z m 1.58849,-77.29194 c 1.85953,-9.91217 -0.60057,-52.43211 -3.183014,-55.01455 -2.26095,-2.26098 -28.01671,-0.18268 -30.69449,2.47666 -3.62736,3.60251 3.57323,39.3005 10.45231,51.819 4.5754,8.32624 7.55349,10.63783 13.70502,10.63783 6.73472,0 8.125634,-1.41937 9.720174,-9.91894 z m -14.765064,-65.64067 13.161334,-1.80398 0,-19.03205 c 0,-23.80384 -4.191994,-28.84144 -22.011154,-26.45139 l -12.02992,1.61355 0,23.73891 c 0,26.18644 -1.17008,24.95721 20.87974,21.93496 z M 213.4002,1043.8754 c -0.94079,-3.5105 -1.72796,-10.4484 -1.74926,-15.4175 -0.0199,-4.9692 -1.49616,-12.6284 -3.27748,-17.0206 -1.99327,-4.9148 -3.53386,-31.98519 -4.00618,-70.39436 -0.47989,-39.02358 -2.18943,-68.72444 -4.56232,-79.26387 -3.47909,-15.45255 -4.56216,-17.05282 -13.01436,-19.22921 -11.57394,-2.98024 -12.01508,-7.88527 -0.70919,-7.88527 9.66491,0 9.25015,1.69343 8.61858,-35.18973 -0.49048,-28.64466 3.64412,-43.69172 10.45285,-38.04099 3.24527,2.69336 3.74687,7.32343 2.27862,21.0337 -1.25807,11.74763 -0.83562,18.22723 1.27331,19.53064 5.34013,3.30039 11.05064,-4.08187 12.94877,-16.7395 2.22345,-14.82702 5.19021,-19.96977 10.37294,-17.98098 3.05924,1.17394 3.58847,5.47415 2.31411,18.80313 -1.71385,17.9256 -7.02957,25.60629 -17.85545,25.79947 -5.48424,0.0979 -10.69434,10.50891 -8.34599,16.67729 1.08168,2.8413 5.17035,3.38124 15.9386,2.10479 16.30436,-1.93266 25.26474,1.44768 19.39538,7.31704 -1.95314,1.95314 -9.16732,3.77453 -16.03153,4.04757 -6.86424,0.2729 -13.83038,1.33078 -15.48035,2.35051 -2.54786,1.57465 -1.51749,17.70561 1.34953,21.1277 0.48599,0.58006 4.92396,-2.98565 9.86212,-7.92382 9.76664,-9.76664 14.90832,-10.11048 16.24562,-1.08642 0.54219,3.65862 -2.32426,8.46082 -7.80107,13.06924 -11.48702,9.66571 -10.92095,15.983 2.68881,30.00693 7.09155,7.30737 11.34703,14.35081 11.34703,18.78097 0,9.4403 -2.90161,8.95603 -17.02159,-2.84087 -6.53668,-5.46124 -12.81777,-9.35299 -13.95794,-8.64831 -2.42912,1.50127 -1.69357,20.63556 2.67696,69.63944 6.61699,74.19181 6.60516,73.75571 2.00437,73.75571 -2.33443,0 -5.01414,-2.8723 -5.95489,-6.3827 z m -80.4727,-43.3421 c -7.4348,-5.20753 -8.99056,-13.19807 -10.33232,-53.06752 -0.73702,-21.90029 0.0113,-31.86074 2.66048,-35.45945 3.96198,-5.37999 5.4588,-3.55528 7.50305,9.14675 0.49932,3.10251 3.12715,6.06834 5.8396,6.5907 7.299,1.40567 7.26786,-27.14524 -0.0326,-29.85349 -6.1997,-2.29992 -14.18565,-11.14014 -16.41829,-18.17455 -0.93157,-2.93511 -2.77188,-5.33657 -4.08956,-5.33657 -2.56278,0 -2.05696,-7.91486 1.31439,-20.56648 2.08876,-7.83852 8.05894,-10.35796 11.46917,-4.84004 1.00651,1.62855 0.3816,4.70626 -1.3887,6.83933 -2.21265,2.66607 -2.28898,4.45291 -0.24425,5.71666 1.63599,1.01108 2.97451,4.84995 2.97451,8.53081 0,9.6343 2.84759,15.66675 7.3954,15.66675 3.04837,0 3.95162,-5.18741 3.95162,-22.69405 0,-18.12389 -0.84373,-22.69405 -4.18974,-22.69405 -5.57559,0 -11.76105,-10.2964 -14.05931,-23.40324 -1.38447,-7.89551 -3.2516,-10.63783 -7.24289,-10.63783 -6.77136,0 -10.46207,-5.57479 -5.65683,-8.54459 1.99052,-1.23022 15.87687,-2.41896 30.85855,-2.64168 14.98167,-0.22268 29.6551,-0.6691 32.6076,-0.99201 2.95252,-0.32294 5.93112,1.00855 6.61912,2.95882 0.72297,2.04947 -1.07576,3.54595 -4.26214,3.54595 -4.60258,0 -5.78157,2.60178 -7.13904,15.7542 -1.28134,12.41518 -3.16917,16.96809 -8.90713,21.48157 -6.64944,5.23044 -7.28116,7.55541 -7.28116,26.79713 0,16.11831 0.92864,21.06978 3.95163,21.06978 5.07842,0 7.39539,-6.22132 7.39539,-19.85729 0,-13.63598 2.31698,-19.8573 7.3954,-19.8573 3.72611,0 4.35487,2.6901 4.64147,19.8573 0.36869,22.0844 -0.46588,24.25332 -12.06061,31.34323 -10.13848,6.19947 -11.29134,8.0264 -10.63784,16.85802 0.50429,6.81499 2.28166,10.19856 5.69726,10.84585 3.85515,0.73058 4.96432,-1.00716 4.96432,-7.7775 0,-8.38123 6.00187,-12.23516 9.71013,-6.23508 0.84408,1.36576 1.76702,19.88963 2.05098,41.16417 0.49382,36.99646 0.22751,38.98843 -6.1169,45.74164 -5.20442,5.53986 -9.44586,7.06076 -19.69128,7.06076 -7.18196,0 -15.84425,-1.9515 -19.24955,-4.3367 z m 32.12436,-21.90334 3.42118,-13.47459 -18.145,0 c -20.24712,0 -20.99653,0.99269 -13.78291,18.25733 4.02686,9.63763 5.15841,10.3728 14.72381,9.56591 9.78094,-0.82507 10.5535,-1.62932 13.78292,-14.34865 z m -2.72828,-24.82162 c 2.44276,0 3.90054,-3.18059 3.90054,-8.51026 0,-7.48246 -0.98498,-8.51027 -8.15568,-8.51027 -17.66201,0 -25.88539,3.20074 -25.88539,10.07525 0,7.33852 5.76267,9.93055 18.08432,8.13425 4.48562,-0.65392 9.91091,-1.18897 12.05621,-1.18897 z M 156.50508,821.19 c 0.95485,-4.2906 2.36832,-10.1188 3.14106,-12.95155 1.20743,-4.42636 -0.12596,-5.02461 -9.48311,-4.25514 -10.61786,0.87313 -10.90974,1.19456 -11.7604,12.95155 -0.84867,11.7299 -0.639,12.05622 7.74704,12.05622 7.09087,0 8.92719,-1.38338 10.35541,-7.80108 z m -35.66906,-45.64193 c 0,-4.5918 14.59599,-8.96563 29.91941,-8.96563 11.27914,0 15.46869,1.06285 15.46869,3.92429 0,2.15834 -2.87222,4.694 -6.3827,5.63476 -9.61079,2.5756 -39.0054,2.12839 -39.0054,-0.59342 z"
       id="path3095"
       inkscape:connector-curvature="0" />
  </g>
</svg>
