<?xml version="1.0" encoding="UTF-8" standalone="no"?>
<!-- Created with Inkscape (http://www.inkscape.org/) -->

<svg
   xmlns:dc="http://purl.org/dc/elements/1.1/"
   xmlns:cc="http://creativecommons.org/ns#"
   xmlns:rdf="http://www.w3.org/1999/02/22-rdf-syntax-ns#"
   xmlns:svg="http://www.w3.org/2000/svg"
   xmlns="http://www.w3.org/2000/svg"
   xmlns:sodipodi="http://sodipodi.sourceforge.net/DTD/sodipodi-0.dtd"
   xmlns:inkscape="http://www.inkscape.org/namespaces/inkscape"
   width="300"
   height="300"
   id="svg2"
   version="1.1"
   inkscape:version="0.48.4 r9939"
   sodipodi:docname="image-seal.svg">
  <defs
     id="defs4" />
  <sodipodi:namedview
     id="base"
     pagecolor="#ffffff"
     bordercolor="#666666"
     borderopacity="1.0"
     inkscape:pageopacity="0.0"
     inkscape:pageshadow="2"
     inkscape:zoom="2.0506101"
     inkscape:cx="158.68577"
     inkscape:cy="132.31986"
     inkscape:document-units="px"
     inkscape:current-layer="layer1"
     showgrid="false"
     inkscape:window-width="1215"
     inkscape:window-height="1000"
     inkscape:window-x="65"
     inkscape:window-y="24"
     inkscape:window-maximized="1"
     fit-margin-top="10"
     fit-margin-left="10"
     fit-margin-right="10"
     fit-margin-bottom="10" />
  <metadata
     id="metadata7">
    <rdf:RDF>
      <cc:Work
         rdf:about="">
        <dc:format>image/svg+xml</dc:format>
        <dc:type
           rdf:resource="http://purl.org/dc/dcmitype/StillImage" />
        <dc:title />
      </cc:Work>
    </rdf:RDF>
  </metadata>
  <g
     inkscape:label="Calque 1"
     inkscape:groupmode="layer"
     id="layer1"
     transform="translate(0,-752.36218)">
    <path
       style="fill:#000000"
       d="m 183.56952,1044.8114 c -0.91094,-1.474 -0.89438,-12.7393 0.0368,-25.0341 0.93116,-12.2948 2.15466,-44.88472 2.71888,-72.42216 0.56423,-27.53743 1.83417,-55.69424 2.82208,-62.57067 2.2781,-15.85682 -1.39021,-18.39192 -12.3729,-8.55065 -10.39659,9.31607 -13.36998,21.34326 -13.45456,54.42279 -0.072,28.11394 -7.13789,88.17249 -11.28542,95.92219 -4.28374,8.0043 -9.09761,3.7874 -8.85108,-7.7535 0.12422,-5.8171 2.25969,-26.64912 4.74542,-46.29337 2.4857,-19.64421 4.69265,-56.59111 4.90432,-82.10419 0.30977,-37.3413 1.13511,-46.67532 4.23224,-47.8638 5.48556,-2.10502 9.57842,2.99832 9.53939,11.89466 -0.049,11.1976 1.74205,12.53707 9.75648,7.29621 11.81173,-7.72398 13.95789,-10.96961 13.95789,-21.10842 0,-10.50417 -7.50715,-20.43088 -15.56169,-20.57724 -10.81711,-0.19648 -19.62126,-12.94895 -19.62126,-28.42039 0,-7.60493 1.96004,-11.74856 8.40534,-17.76939 8.14618,-7.60967 9.26262,-7.85179 36.20478,-7.85179 21.60483,0 28.56226,0.91917 31.22285,4.12499 1.88288,2.26873 2.8031,4.74526 2.04499,5.5034 -0.75814,0.75814 -12.98535,1.6421 -27.17158,1.96437 -21.02845,0.47773 -26.84435,1.53834 -31.4838,5.74159 -6.64958,6.02438 -7.86082,20.55499 -1.71343,20.55499 4.90764,0 23.71545,10.33486 26.42811,14.5222 1.09357,1.68811 2.00697,9.35856 2.02979,17.04544 0.0363,12.26974 1.19213,15.16107 9.46594,23.68084 5.18351,5.33758 10.055,9.70468 10.82553,9.70468 0.77056,0 1.41966,-5.78489 1.44245,-12.85531 0.0517,-16.03377 3.21499,-22.07363 9.03225,-17.24571 3.40552,2.8263 4.12295,14.1144 4.37524,68.83868 0.1659,36.00191 0.45481,76.4435 0.64185,89.87021 0.41486,29.78065 -1.70213,39.88555 -8.09812,38.65415 -4.23302,-0.815 -4.66334,-7.1251 -4.91184,-72.02957 l -0.27234,-71.1364 -9.05428,-9.34164 c -4.97988,-5.13791 -9.96273,-9.34165 -11.07305,-9.34165 -1.1103,0 -2.03931,14.91893 -2.06448,33.15318 -0.0617,44.75702 -5.94021,132.48048 -9.15859,136.67218 -3.12649,4.0721 -6.43648,4.3401 -8.68421,0.7032 z M 86.5333,1037.329 c -3.41302,-5.5224 -3.90558,-17.8271 -1.45671,-36.3898 3.24543,-24.6009 5.88083,-31.46212 20.73921,-53.99429 9.89056,-14.99866 12.30765,-21.31938 14.48916,-37.88934 2.90073,-22.03308 3.59426,-99.26761 0.97554,-108.6417 -5.08039,-18.18608 -13.3381,-28.97352 -22.17907,-28.97352 -12.26261,0 -21.54095,7.13018 -24.51253,18.83725 -2.74368,10.80923 -2.65994,11.00675 6.50971,15.35801 12.96706,6.15329 33.44178,30.16425 33.44178,39.21761 0,3.95971 -1.7349,7.8652 -3.85532,8.6789 -3.85954,1.48104 -7.4622,-2.90338 -15.15422,-18.44266 -7.03267,-14.20726 -24.0744,-26.04473 -24.42209,-16.96403 -0.0712,1.86063 -0.68455,9.73772 -1.36291,17.5046 -1.19332,13.66322 -0.77962,14.69094 12.74379,31.65839 19.45872,24.41429 26.89461,47.54189 16.56045,51.50747 -5.73807,2.20189 -11.57351,-5.00177 -11.57351,-14.2871 0,-8.55094 -10.79773,-30.22595 -15.05752,-30.22595 -3.84331,0 -7.29616,20.00525 -5.13829,29.7702 0.82234,3.72127 2.20016,12.97155 3.06181,20.55619 1.33693,11.76818 0.83346,14.07156 -3.43361,15.70897 C 56.66212,944.2503 55,935.92141 55,880.64208 c 0,-52.75571 3.59489,-90.61198 9.16432,-96.5058 1.67539,-1.77298 4.2569,-6.70595 5.73666,-10.96214 2.00725,-5.77337 5.95835,-8.9728 15.55859,-12.59862 20.94092,-7.90902 32.34331,-1.72399 44.62474,24.20585 6.48265,13.68682 6.94584,17.28401 6.75686,52.47108 -0.25278,47.08441 -5.29877,92.20206 -11.70827,104.68993 -2.67396,5.20979 -8.28245,13.12595 -12.46329,17.59148 -10.66712,11.39343 -14.36751,24.05581 -14.36751,49.16414 0,17.9009 -0.90374,22.5339 -5.14407,26.3714 -2.82925,2.5604 -5.81038,3.5772 -6.62473,2.2596 z"
       id="path3054"
       inkscape:connector-curvature="0" />
  </g>
</svg>
