<?xml version="1.0" encoding="UTF-8" standalone="no"?>
<!-- Created with Inkscape (http://www.inkscape.org/) -->

<svg
   xmlns:dc="http://purl.org/dc/elements/1.1/"
   xmlns:cc="http://creativecommons.org/ns#"
   xmlns:rdf="http://www.w3.org/1999/02/22-rdf-syntax-ns#"
   xmlns:svg="http://www.w3.org/2000/svg"
   xmlns="http://www.w3.org/2000/svg"
   xmlns:sodipodi="http://sodipodi.sourceforge.net/DTD/sodipodi-0.dtd"
   xmlns:inkscape="http://www.inkscape.org/namespaces/inkscape"
   width="300"
   height="300"
   id="svg2"
   version="1.1"
   inkscape:version="0.48.4 r9939"
   sodipodi:docname="image-seal.svg">
  <defs
     id="defs4" />
  <sodipodi:namedview
     id="base"
     pagecolor="#ffffff"
     bordercolor="#666666"
     borderopacity="1.0"
     inkscape:pageopacity="0.0"
     inkscape:pageshadow="2"
     inkscape:zoom="2.0506101"
     inkscape:cx="156.21232"
     inkscape:cy="110.79688"
     inkscape:document-units="px"
     inkscape:current-layer="layer1"
     showgrid="false"
     inkscape:window-width="1215"
     inkscape:window-height="1000"
     inkscape:window-x="65"
     inkscape:window-y="24"
     inkscape:window-maximized="1"
     fit-margin-top="10"
     fit-margin-left="10"
     fit-margin-right="10"
     fit-margin-bottom="10" />
  <metadata
     id="metadata7">
    <rdf:RDF>
      <cc:Work
         rdf:about="">
        <dc:format>image/svg+xml</dc:format>
        <dc:type
           rdf:resource="http://purl.org/dc/dcmitype/StillImage" />
        <dc:title />
      </cc:Work>
    </rdf:RDF>
  </metadata>
  <g
     inkscape:label="Calque 1"
     inkscape:groupmode="layer"
     id="layer1"
     transform="translate(0,-752.36218)">
    <path
       style="fill:#000000"
       d="m 153.23329,1042.5637 c -10.55254,-11.6605 -12.85475,-59.62932 -3.48439,-72.60054 2.50049,-3.4613 4.54635,-7.32908 4.54635,-8.59473 0,-1.26588 1.46132,-3.13728 3.24734,-4.15881 5.11199,-2.92406 24.6252,-29.95578 24.6252,-34.11343 0,-2.06048 0.92332,-3.74607 2.05181,-3.74607 1.12849,0 2.81397,-2.35174 3.74552,-5.2261 2.66261,-8.21589 3.15131,-18.00101 0.899,-18.00101 -1.128,0 -2.05091,-1.89348 -2.05091,-4.20736 0,-7.92347 -26.36523,-30.42415 -39.48609,-33.69862 -7.08745,-1.76874 -23.22711,0.56749 -23.22711,3.36215 0,1.11421 1.1706,2.02585 2.60132,2.02585 4.87816,0 22.9485,21.05586 22.9485,26.74 0,3.02696 1.04522,6.14984 2.32271,6.93933 5.54441,3.4267 1.44166,27.29697 -5.46292,31.78398 -4.86599,3.16238 -6.22029,-1.02965 -4.88197,-15.11086 1.77767,-18.70363 -3.11308,-28.34033 -18.40454,-36.26379 -10.78418,-5.58798 -10.96421,-5.60162 -15.3235,-1.16136 -2.4261,2.47116 -5.06305,7.16859 -5.85985,10.43873 -1.23195,5.05608 -0.24565,6.59371 6.58995,10.27498 11.14618,6.00258 18.69761,22.84688 16.9684,37.84974 -2.58167,22.3986 -3.45406,26.62547 -6.0262,29.19764 -4.20725,4.20713 -7.43744,-3.04832 -5.53175,-12.42534 2.57477,-12.66923 2.63751,-23.75205 0.17745,-31.3566 -2.45257,-7.58133 -9.72454,-15.09763 -14.606884,-15.09763 -4.291345,0 -5.287675,4.67167 -6.935035,32.51796 -1.66346,28.11805 -2.58163,32.51796 -6.78606,32.51796 -4.14469,0 -5.85165,-7.49911 -5.88944,-25.87384 -0.0518,-25.19631 10.45926,-71.68006 16.20857,-71.68006 0.98978,0 2.308805,-1.9471 2.931135,-4.32693 2.079594,-7.95241 21.015034,-18.63676 38.274424,-21.59641 l 16.04044,-2.75065 11.4027,7.84526 c 21.87941,15.05345 29.8808,24.54066 35.73403,42.36981 3.86706,11.77917 -1.96736,30.6275 -13.65977,44.12873 -4.67662,5.40007 -11.03021,13.4766 -14.11911,17.94782 -3.08891,4.47122 -7.47372,10.15559 -9.74406,12.6323 -2.27033,2.47647 -4.12787,6.33426 -4.12787,8.57288 0,2.2389 -1.04522,4.7165 -2.32271,5.506 -3.72805,2.3041 -2.69444,18.67462 2.45169,38.82992 6.05473,23.714 3.90394,31.2721 -5.83637,20.5091 z M 136.68671,831.08707 c -20.6159,-1.02251 -24.57303,-1.92897 -33.09863,-7.58177 -5.325844,-3.53122 -9.736149,-7.7121 -9.800699,-9.29085 -0.0646,-1.57874 -0.69467,-9.42609 -1.40029,-17.43861 -1.6023,-18.19452 0.19929,-26.07927 5.958825,-26.07927 5.115824,0 7.364114,4.57194 5.588104,11.36343 -1.45785,5.57488 3.94596,25.79996 6.89332,25.79996 1.08468,0 1.35126,1.95623 0.59241,4.34718 -1.11679,3.51865 0.29212,4.76293 7.39228,6.52847 12.09812,3.00838 69.42206,3.64138 80.7761,0.89199 7.32021,-1.77258 10.45624,-1.48621 14.78528,1.35015 4.62055,3.02735 4.98998,4.08785 2.32271,6.66752 -3.68358,3.56265 -43.25339,5.26482 -80.00941,3.4418 z m 58.25599,-24.34538 c -23.80442,-10.7401 -29.8172,-12.818 -37.09107,-12.818 -9.02706,0 -26.78349,6.32667 -26.78349,9.54304 0,4.03397 -4.12195,2.00039 -5.33313,-2.63114 -0.95661,-3.65809 0.69326,-5.68258 7.4333,-9.12108 11.88221,-6.06186 14.44088,-9.80932 13.25047,-19.40686 -0.58228,-4.69473 0.2833,-10.01304 2.01516,-12.38151 4.63804,-6.34288 10.50674,-0.24461 10.50674,10.91776 0,4.87814 1.0216,9.50073 2.27022,10.27243 2.92696,1.80897 31.53429,12.51007 41.04953,15.35535 7.25364,2.16902 11.32623,7.5293 8.81171,11.59788 -1.79752,2.90843 -7.84323,2.41069 -16.12944,-1.32787 z"
       id="path3028"
       inkscape:connector-curvature="0" />
  </g>
</svg>
