<?xml version="1.0" encoding="UTF-8" standalone="no"?>
<!-- Created with Inkscape (http://www.inkscape.org/) -->

<svg
   xmlns:dc="http://purl.org/dc/elements/1.1/"
   xmlns:cc="http://creativecommons.org/ns#"
   xmlns:rdf="http://www.w3.org/1999/02/22-rdf-syntax-ns#"
   xmlns:svg="http://www.w3.org/2000/svg"
   xmlns="http://www.w3.org/2000/svg"
   xmlns:sodipodi="http://sodipodi.sourceforge.net/DTD/sodipodi-0.dtd"
   xmlns:inkscape="http://www.inkscape.org/namespaces/inkscape"
   width="300"
   height="300"
   id="svg2"
   version="1.1"
   inkscape:version="0.48.4 r9939"
   sodipodi:docname="dessin.svg">
  <defs
     id="defs4" />
  <sodipodi:namedview
     id="base"
     pagecolor="#ffffff"
     bordercolor="#666666"
     borderopacity="1.0"
     inkscape:pageopacity="0.0"
     inkscape:pageshadow="2"
     inkscape:zoom="1.979899"
     inkscape:cx="227.07871"
     inkscape:cy="107.23575"
     inkscape:document-units="px"
     inkscape:current-layer="layer1"
     showgrid="false"
     inkscape:window-width="1215"
     inkscape:window-height="1000"
     inkscape:window-x="65"
     inkscape:window-y="24"
     inkscape:window-maximized="1" />
  <metadata
     id="metadata7">
    <rdf:RDF>
      <cc:Work
         rdf:about="">
        <dc:format>image/svg+xml</dc:format>
        <dc:type
           rdf:resource="http://purl.org/dc/dcmitype/StillImage" />
        <dc:title />
      </cc:Work>
    </rdf:RDF>
  </metadata>
  <g
     inkscape:label="Calque 1"
     inkscape:groupmode="layer"
     id="layer1"
     transform="translate(0,-752.36218)">
    <path
       style="fill:#000000"
       d="m 189.67548,1022.6638 c -2.71652,-4.2015 -4.93913,-8.8239 -4.93913,-10.2721 0,-1.4483 -2.03325,-7.1834 -4.51832,-12.74487 -8.13096,-18.19654 -17.50346,-57.04358 -18.74562,-77.69666 -1.66745,-27.72391 0.26043,-29.73128 28.55404,-29.73128 22.05111,0 25.63662,1.75819 25.72068,12.61247 0.0304,3.91185 -1.30142,4.44554 -7.76211,3.11076 -16.03479,-3.31286 -30.50948,-2.7079 -32.84909,1.37286 -4.97885,8.68414 6.74523,58.61153 21.88067,93.17952 7.85854,17.9483 8.00682,18.9929 3.41402,24.0509 -4.60397,5.0703 -5.07764,4.8994 -10.75514,-3.8816 z M 103.3574,1011.525 c -3.548046,-7.3012 -6.623812,-18.34908 -10.366572,-37.23602 -3.25744,-16.43783 -1.360637,-38.50271 4.567998,-53.13823 1.757974,-4.33978 5.015464,-13.21661 7.238864,-19.72627 2.22339,-6.50967 6.07312,-16.85306 8.55497,-22.9853 2.48186,-6.13227 4.51246,-14.05155 4.51246,-17.59841 0,-3.5469 0.95596,-7.09954 2.12437,-7.89483 1.16841,-0.79526 2.71619,-5.30349 3.43952,-10.01834 0.72334,-4.71484 2.52355,-15.67389 4.00048,-24.35344 1.47694,-8.67955 1.99155,-20.9669 1.14357,-27.30521 l -1.54181,-11.52421 -12.87062,1.46292 c -9.4377,1.07272 -14.482152,3.23772 -18.912611,8.11694 -7.738362,8.5222 -7.607916,10.41461 1.428586,20.72544 4.108835,4.68828 10.104525,12.86592 13.323785,18.17255 4.79466,7.90358 5.372,10.63859 3.19252,15.12348 -3.80665,7.83329 -6.52875,6.82665 -11.86603,-4.3881 -2.581734,-5.42472 -7.290208,-13.34798 -10.463296,-17.60721 -5.469972,-7.34231 -5.893266,-7.47876 -8.159031,-2.63018 -1.314354,2.81266 -3.035142,10.57262 -3.823961,17.24441 -1.365247,11.54747 -0.974385,12.62195 8.133023,22.35644 5.261978,5.62424 11.10373,13.3617 12.981689,17.19434 3.010996,6.14499 2.966246,7.37807 -0.378753,10.43537 -3.231171,2.95327 -4.479394,2.50532 -8.424152,-3.02314 -9.57011,-13.41228 -11.547492,-15.69572 -13.591817,-15.69572 -2.798179,0 -5.053745,15.96947 -5.086083,36.0096 -0.02843,17.54794 -3.384783,23.22679 -8.879258,15.02299 -3.214858,-4.80013 -3.12783,-16.38527 0.294401,-39.19682 0.651063,-4.33978 2.355731,-17.95091 3.78816,-30.24694 2.752921,-23.63116 6.684878,-41.74595 9.962189,-45.89646 1.085154,-1.37426 1.972989,-4.62009 1.972989,-7.21295 0,-12.74198 20.346122,-25.82564 40.05167,-25.7554 12.65936,0.0452 15.34966,1.3905 19.29727,9.64996 5.98363,12.51947 0.24484,53.74745 -12.74637,91.57128 -3.47801,10.12615 -7.98678,23.70338 -10.01949,30.17161 -2.03272,6.46827 -6.38341,18.23124 -9.66822,26.13994 -7.426864,17.88146 -6.37598,32.94074 4.45775,63.8791 6.0353,17.23531 6.79994,21.56521 4.13642,23.42351 -5.31466,3.7079 -8.89698,2.7166 -11.80461,-3.2667 z m 57.49636,-149.55305 c 0,-4.90966 1.59218,-5.26034 23.88259,-5.26034 22.2904,0 23.88257,0.35068 23.88257,5.26034 0,4.90966 -1.59217,5.26033 -23.88257,5.26033 -22.29041,0 -23.88259,-0.35067 -23.88259,-5.26033 z m -20.14912,-4.73612 c -0.84962,-2.94808 2.93972,-13.91676 9.78113,-28.31251 6.14242,-12.92501 14.09172,-30.05054 17.6651,-38.05676 3.57336,-8.0062 8.09336,-16.01574 10.04442,-17.799 3.75107,-3.42846 11.31757,-1.70767 11.31757,2.57385 0,2.43745 13.66817,25.7708 16.67525,28.46682 0.80676,0.7233 4.0674,5.45759 7.24588,10.52068 3.17846,5.06307 8.76398,12.75632 12.41224,17.09609 7.83731,9.32287 8.9401,19.72627 2.09106,19.72627 -4.26333,0 -16.93011,-13.6592 -16.93011,-18.25658 0,-1.13958 -3.20697,-6.07896 -7.12662,-10.9764 -3.91965,-4.89746 -7.14378,-9.63176 -7.16478,-10.52068 -0.0618,-2.62372 -13.98731,-19.43171 -14.95855,-18.055 -0.4889,0.69301 -8.74804,15.77863 -18.35367,33.5236 -9.60562,17.74497 -18.33039,32.85276 -19.38838,33.57284 -1.05797,0.72012 -2.54773,-0.85634 -3.31054,-3.50322 z"
       id="path3236"
       inkscape:connector-curvature="0" />
  </g>
</svg>
