<?xml version="1.0" encoding="UTF-8" standalone="no"?>
<!-- Created with Inkscape (http://www.inkscape.org/) -->

<svg
   xmlns:dc="http://purl.org/dc/elements/1.1/"
   xmlns:cc="http://creativecommons.org/ns#"
   xmlns:rdf="http://www.w3.org/1999/02/22-rdf-syntax-ns#"
   xmlns:svg="http://www.w3.org/2000/svg"
   xmlns="http://www.w3.org/2000/svg"
   xmlns:sodipodi="http://sodipodi.sourceforge.net/DTD/sodipodi-0.dtd"
   xmlns:inkscape="http://www.inkscape.org/namespaces/inkscape"
   width="300"
   height="300"
   id="svg2"
   version="1.1"
   inkscape:version="0.48.3.1 r9886"
   sodipodi:docname="Nouveau document 1">
  <defs
     id="defs4" />
  <sodipodi:namedview
     id="base"
     pagecolor="#ffffff"
     bordercolor="#666666"
     borderopacity="1.0"
     inkscape:pageopacity="0.0"
     inkscape:pageshadow="2"
     inkscape:zoom="1.979899"
     inkscape:cx="182.61171"
     inkscape:cy="154.4775"
     inkscape:document-units="px"
     inkscape:current-layer="layer1"
     showgrid="false"
     inkscape:window-width="1215"
     inkscape:window-height="1000"
     inkscape:window-x="65"
     inkscape:window-y="24"
     inkscape:window-maximized="1" />
  <metadata
     id="metadata7">
    <rdf:RDF>
      <cc:Work
         rdf:about="">
        <dc:format>image/svg+xml</dc:format>
        <dc:type
           rdf:resource="http://purl.org/dc/dcmitype/StillImage" />
        <dc:title></dc:title>
      </cc:Work>
    </rdf:RDF>
  </metadata>
  <g
     inkscape:label="Calque 1"
     inkscape:groupmode="layer"
     id="layer1"
     transform="translate(0,-752.36218)">
    <path
       style="fill:#000000"
       d="m 192.72513,1041.6104 c -2.56493,-2.5574 -6.1929,-7.2258 -8.0621,-10.3741 -4.2032,-7.0793 -4.51167,-34.89611 -0.387,-34.89611 1.65638,0 3.01327,-1.47411 3.01527,-3.27583 0.002,-1.80172 3.39009,-6.70234 7.52903,-10.89028 4.13894,-4.18796 7.52535,-8.42688 7.52535,-9.4199 0,-0.99298 3.31213,-5.15964 7.3603,-9.25922 15.8174,-16.01827 14.44435,-61.70223 -2.06551,-68.72394 -14.32026,-6.09046 -29.9425,-8.87795 -40.80525,-7.28095 -20.11793,2.95769 -20.71537,5.39997 -3.15035,12.87817 12.00711,5.11194 18.75468,10.30456 26.1308,20.10911 10.82447,14.38818 15.33882,29.49159 9.7184,32.5143 -4.73982,2.5491 -12.24644,-3.31615 -12.24644,-9.56867 0,-6.48962 -15.56423,-26.31141 -24.67528,-31.42511 -3.82064,-2.14437 -10.10287,-4.59629 -13.96053,-5.44871 -5.77981,-1.27713 -7.71953,-0.0894 -11.02437,6.75016 -4.75507,9.84093 -4.20583,10.90496 8.3785,16.23069 14.1916,6.00594 18.71366,9.52087 24.25502,18.85287 4.38731,7.3885 7.08956,26.99199 3.72074,26.99199 -6.16852,0 -10.78693,-4.33995 -10.78693,-10.13653 0,-9.26034 -17.32266,-26.59237 -26.55547,-26.56982 -6.75089,0.0153 -6.95246,0.66129 -6.14009,19.64268 0.94708,22.12961 -3.38704,30.33166 -11.17552,21.14894 -3.19375,-3.76548 -4.25747,-12.95666 -4.09456,-35.37901 0.18282,-25.15111 1.19954,-31.62619 5.99124,-38.15393 3.17413,-4.3241 7.32852,-10.45858 9.23196,-13.6322 5.99585,-9.99664 21.61231,-14.39893 50.1266,-14.13064 18.76663,0.17666 27.95161,1.44984 33.58639,4.65608 17.91428,10.19325 21.3181,16.90626 21.26268,41.9343 -0.0642,28.93835 -6.84474,43.68719 -28.91412,62.89168 -13.33755,11.60619 -15.40886,19.80638 -8.76435,34.69758 6.36585,14.2667 7.28234,21.5885 2.87051,22.9322 -1.77731,0.5414 -5.33003,-1.1083 -7.89492,-3.6658 z M 59.19146,1024.4337 c -1.587057,-5.5025 0.351093,-19.1985 6.200812,-43.8175 0.856229,-3.60341 2.185915,-40.75137 2.954899,-82.551 1.553418,-84.44143 2.396096,-92.19367 11.502507,-105.81901 11.559244,-17.29535 14.637206,-18.05415 81.839292,-20.17554 24.84577,-0.78432 46.99177,-1.94833 49.21338,-2.58673 4.74731,-1.36419 24.57101,6.31356 24.57101,9.51637 0,4.73343 -21.87089,6.88983 -75.29021,7.42346 -49.56872,0.49516 -56.33642,1.08938 -61.350544,5.38683 -11.060044,9.47927 -4.290156,10.60028 64.014924,10.60028 64.62751,0 65.64511,0.0858 72.10089,6.06541 8.29007,7.67888 9.14399,31.50466 1.54223,43.0306 -4.53777,6.88017 -7.28399,7.86932 -29.36317,10.57597 -13.39651,1.64227 -45.94227,3.05199 -72.32396,3.13277 -26.38169,0.0807 -48.706921,0.79097 -49.611637,1.57825 -0.904716,0.78727 -1.907345,16.4005 -2.22808,34.69603 -0.320738,18.29554 -1.314508,36.6572 -2.208414,40.8037 -0.893876,4.14647 -1.862468,21.83596 -2.152426,39.31 -0.400483,24.13421 -1.729808,33.61731 -5.530488,39.45221 -6.534046,10.0314 -11.606016,11.2656 -13.881015,3.3779 z M 205.87558,851.37873 c 7.73878,-0.25133 13.51026,-0.94461 12.82545,-1.54051 -0.68479,-0.59588 0.21502,-2.6144 1.99971,-4.48562 8.16084,-8.55676 0.0572,-9.50219 -66.10682,-7.71243 -66.880213,1.80912 -69.554763,2.30401 -69.654861,12.88835 -0.04398,4.63989 2.549286,4.79002 53.409951,3.09198 29.40081,-0.9816 59.78777,-1.99038 67.52657,-2.24177 z M 220.54917,824.308 c 2.50604,-2.18073 1.85851,-3.87551 -2.49305,-6.52502 -6.36696,-3.87658 -73.85961,-4.69622 -94.01227,-1.14171 -5.79734,1.02252 -15.62271,1.78538 -21.83416,1.69522 -6.211441,-0.0901 -11.29353,0.93732 -11.29353,2.28323 0,3.8562 5.398132,5.75678 7.589046,2.67196 1.259058,-1.77275 3.257344,-1.89119 5.478414,-0.32475 5.5282,3.8989 12.11895,4.34191 64.17247,4.31361 32.22433,-0.0191 50.1671,-1.03552 52.39308,-2.97254 z"
       id="path2996"
       inkscape:connector-curvature="0" />
  </g>
</svg>
