<?xml version="1.0" standalone="no"?>
<!DOCTYPE svg PUBLIC "-//W3C//DTD SVG 20010904//EN"
 "http://www.w3.org/TR/2001/REC-SVG-20010904/DTD/svg10.dtd">
<svg version="1.0" xmlns="http://www.w3.org/2000/svg"
 width="70.000000pt" height="83.000000pt" viewBox="0 0 70.000000 83.000000"
 preserveAspectRatio="xMidYMid meet">
<metadata>
Created by potrace 1.10, written by Peter Selinger 2001-2011
</metadata>
<g transform="translate(0.000000,83.000000) scale(0.100000,-0.100000)"
fill="#000000" stroke="none">
<path d="M397 733 c-4 -3 -7 -28 -7 -54 0 -46 -2 -49 -40 -69 l-39 -20 -17 32
c-25 50 -45 68 -74 68 -83 0 -128 -122 -100 -270 16 -85 30 -130 40 -130 14 0
12 37 -4 98 -16 63 -5 68 44 17 23 -23 37 -32 44 -25 13 13 -47 76 -80 84 -21
6 -24 12 -24 56 0 28 3 50 6 50 16 0 53 -26 81 -59 34 -40 56 -35 32 7 -13 24
-38 44 -94 77 -15 9 -15 12 5 38 28 36 65 33 94 -6 17 -24 21 -43 21 -111 0
-77 -3 -89 -44 -176 -44 -92 -45 -93 -34 -154 14 -81 40 -143 54 -129 7 7 4
31 -10 78 -12 37 -21 79 -21 94 0 14 19 63 41 108 36 72 41 92 43 155 l1 73
46 21 c50 23 59 40 59 112 0 39 -8 51 -23 35z"/>
<path d="M487 734 c-10 -11 -8 -79 3 -109 13 -34 100 -73 100 -45 0 5 -17 18
-37 27 -36 17 -38 21 -41 68 -3 50 -12 71 -25 59z"/>
<path d="M440 516 c0 -42 -4 -76 -9 -76 -16 0 -30 25 -33 64 -5 58 -28 59 -28
1 0 -35 6 -51 25 -70 13 -14 29 -25 35 -25 5 0 10 -9 10 -20 0 -18 -7 -20 -62
-20 -59 -1 -62 -2 -43 -16 12 -9 32 -14 50 -11 54 8 55 7 55 -145 0 -107 3
-139 13 -135 9 3 12 42 14 143 l2 139 38 1 c62 1 75 3 68 14 -3 6 -28 10 -56
10 -43 0 -49 3 -49 20 0 12 10 25 25 32 28 13 50 67 41 104 -10 37 -26 28 -26
-14 0 -33 -22 -72 -41 -72 -2 0 -4 32 -4 72 0 48 -4 73 -12 75 -10 4 -13 -15
-13 -71z"/>
</g>
</svg>
