<?xml version="1.0" encoding="UTF-8" standalone="no"?>
<!-- Created with Inkscape (http://www.inkscape.org/) -->

<svg
   xmlns:dc="http://purl.org/dc/elements/1.1/"
   xmlns:cc="http://creativecommons.org/ns#"
   xmlns:rdf="http://www.w3.org/1999/02/22-rdf-syntax-ns#"
   xmlns:svg="http://www.w3.org/2000/svg"
   xmlns="http://www.w3.org/2000/svg"
   xmlns:sodipodi="http://sodipodi.sourceforge.net/DTD/sodipodi-0.dtd"
   xmlns:inkscape="http://www.inkscape.org/namespaces/inkscape"
   width="300"
   height="300"
   id="svg2"
   version="1.1"
   inkscape:version="0.48.4 r9939"
   sodipodi:docname="image-seal.svg">
  <defs
     id="defs4" />
  <sodipodi:namedview
     id="base"
     pagecolor="#ffffff"
     bordercolor="#666666"
     borderopacity="1.0"
     inkscape:pageopacity="0.0"
     inkscape:pageshadow="2"
     inkscape:zoom="2.0506101"
     inkscape:cx="180.10765"
     inkscape:cy="122.98837"
     inkscape:document-units="px"
     inkscape:current-layer="layer1"
     showgrid="false"
     inkscape:window-width="1215"
     inkscape:window-height="1000"
     inkscape:window-x="65"
     inkscape:window-y="24"
     inkscape:window-maximized="1"
     fit-margin-top="10"
     fit-margin-left="10"
     fit-margin-right="10"
     fit-margin-bottom="10" />
  <metadata
     id="metadata7">
    <rdf:RDF>
      <cc:Work
         rdf:about="">
        <dc:format>image/svg+xml</dc:format>
        <dc:type
           rdf:resource="http://purl.org/dc/dcmitype/StillImage" />
        <dc:title />
      </cc:Work>
    </rdf:RDF>
  </metadata>
  <g
     inkscape:label="Calque 1"
     inkscape:groupmode="layer"
     id="layer1"
     transform="translate(0,-752.36218)">
    <path
       style="fill:#000000"
       d="m 208.28278,1038.7313 c -1.84083,-4.8948 -4.28412,-11.3643 -5.42956,-14.3765 -5.39826,-14.1964 -8.31823,-25.70088 -8.31823,-32.77303 0,-6.81037 9.38672,-21.17062 22.83498,-34.93416 3.35798,-3.43664 6.33772,-10.6027 12.26893,-29.50555 3.17954,-10.13323 2.57539,-72.46011 -0.88924,-91.7359 -3.68962,-20.52762 -6.85377,-22.97201 -29.73612,-22.97201 -17.75545,0 -20.98885,0.79706 -26.34001,6.49314 -5.29327,5.63442 -6.17936,9.86956 -6.70014,32.02389 -0.33006,14.04191 0.21523,38.92436 1.2116,55.29432 1.48661,24.42231 2.68137,30.25023 6.65764,32.47547 2.66527,1.49154 8.6171,6.08146 13.22629,10.19977 6.42672,5.74226 7.85328,8.70478 6.11928,12.70789 -1.24358,2.871 -2.01491,6.29587 -1.71401,7.61079 0.30089,1.31494 -5.25841,-1.77929 -12.35403,-6.87609 -21.23413,-15.25247 -23.26352,-21.23921 -24.82536,-73.23545 -1.69664,-56.48366 0.0137,-71.62375 9.12033,-80.73031 3.78059,-3.78058 10.20175,-7.60474 14.26926,-8.49811 6.65129,-1.46087 7.30122,-2.64944 6.45906,-11.81186 -1.11222,-12.10027 6.03918,-30.72542 11.79748,-30.72542 4.07814,0 5.77375,12.42222 4.25732,31.18985 -0.73595,9.10834 3.25172,12.4978 14.87463,12.64326 4.51834,0.0567 11.29584,2.46696 15.06112,5.35642 9.15187,7.02314 12.49676,28.02806 13.40218,84.16189 0.82129,50.91748 -2.26961,62.82731 -21.45662,82.67603 -12.93115,13.37696 -13.01073,14.1919 -4.84382,49.59597 2.81884,12.2198 3.23288,18.8724 1.32083,21.2225 -4.35614,5.3538 -6.66317,4.124 -10.27379,-5.4768 z m -117.654029,-4.5074 c -6.72729,-12.5702 -4.50782,-43.26648 4.77245,-66.00606 1.53668,-3.76528 8.877879,-13.62347 16.313819,-21.90708 17.69802,-19.71553 21.37129,-33.81383 20.69086,-79.41317 -0.74848,-50.15914 -2.64591,-62.23663 -10.59599,-67.44572 -5.05698,-3.31344 -8.98974,-3.75202 -16.89033,-1.88357 -14.396159,3.40461 -14.549019,9.72853 -0.48141,19.91904 16.22841,11.75581 23.60649,24.66176 19.78773,34.61325 -2.03968,5.31534 -11.84244,4.87993 -11.84244,-0.52599 0,-6.70352 -23.098259,-36.7502 -25.809699,-33.57378 -8.74955,10.24996 -9.21494,27.64211 -0.88956,33.24397 9.97227,6.70997 25.566909,22.02669 28.996929,28.4801 1.74851,3.28974 3.1791,9.2334 3.1791,13.20811 0,10.07414 -7.56709,8.02961 -13.87688,-3.74937 -6.223829,-11.61847 -18.069129,-25.02443 -22.111199,-25.02443 -3.05571,0 -2.97704,2.00967 2.12499,54.28693 1.91802,19.65287 -0.7598,24.97538 -8.88259,17.65543 -9.17471,-8.26784 -12.17562,-36.7279 -8.72498,-82.74543 3.1794,-42.39992 7.45467,-56.61263 19.32985,-64.2599 9.59754,-6.18054 24.179439,-7.61737 37.617579,-3.70665 20.18584,5.87441 22.26074,12.97343 22.39985,76.63877 0.0635,29.03505 -0.59639,55.717 -1.46632,59.29325 -2.04489,8.40651 -9.078,19.11721 -18.20709,27.72754 -3.99215,3.76528 -10.85978,12.30551 -15.2614,18.97833 -7.36645,11.16749 -8.02604,14.2164 -8.29361,38.33753 -0.15992,14.4126 -0.46794,27.7453 -0.6846,29.6279 -0.6037,5.246 -8.072369,4.0657 -11.195059,-1.769 z M 196.20809,934.92482 c -15.1313,-8.78775 -22.56531,-21.57677 -16.22669,-27.91539 1.03218,-1.03218 3.28618,-5.97659 5.00887,-10.98753 3.62389,-10.54125 1.23183,-19.26218 -7.14366,-26.04426 -6.68264,-5.41127 -8.00873,-19.85551 -2.94518,-32.08002 5.74669,-13.87373 34.90652,-19.85819 42.16171,-8.65283 7.92749,12.24368 8.09918,20.202 0.62742,29.08168 -3.8312,4.55311 -9.28009,9.01293 -12.10868,9.91068 -4.08493,1.29652 -5.0492,4.05237 -4.68756,13.39686 0.27559,7.12085 -1.59988,15.58084 -4.75138,21.43283 -6.29971,11.69786 -4.32314,18.59845 5.32723,18.59845 6.07018,0 7.02127,-1.0987 6.51897,-7.53056 -1.04568,-13.38914 0.13829,-18.90053 5.35114,-24.91106 7.11961,-8.20897 11.46268,-7.48762 9.8429,1.63479 -0.73542,4.1418 -1.68126,13.69192 -2.10185,21.22248 -1.25344,22.44153 -10.67189,31.09157 -24.87324,22.84388 z m 2.61718,-77.9366 c 15.0462,-11.4763 11.89829,-22.3182 -5.53066,-19.04851 -7.12566,1.33677 -9.40851,3.32035 -10.52142,9.14202 -1.31248,6.86581 1.79386,17.07747 5.19491,17.07747 0.80054,0 5.68628,-3.22694 10.85717,-7.17098 z"
       id="path3186"
       inkscape:connector-curvature="0" />
  </g>
</svg>
