<?xml version="1.0" encoding="UTF-8" standalone="no"?>
<!-- Created with Inkscape (http://www.inkscape.org/) -->

<svg
   xmlns:dc="http://purl.org/dc/elements/1.1/"
   xmlns:cc="http://creativecommons.org/ns#"
   xmlns:rdf="http://www.w3.org/1999/02/22-rdf-syntax-ns#"
   xmlns:svg="http://www.w3.org/2000/svg"
   xmlns="http://www.w3.org/2000/svg"
   xmlns:sodipodi="http://sodipodi.sourceforge.net/DTD/sodipodi-0.dtd"
   xmlns:inkscape="http://www.inkscape.org/namespaces/inkscape"
   width="300"
   height="300"
   id="svg2"
   version="1.1"
   inkscape:version="0.92.4 (5da689c313, 2019-01-14)"
   sodipodi:docname="image-bigseal.svg">
  <defs
     id="defs4" />
  <sodipodi:namedview
     id="base"
     pagecolor="#ffffff"
     bordercolor="#666666"
     borderopacity="1.0"
     inkscape:pageopacity="0.0"
     inkscape:pageshadow="2"
     inkscape:zoom="1"
     inkscape:cx="155.66038"
     inkscape:cy="149.35732"
     inkscape:document-units="px"
     inkscape:current-layer="layer1"
     showgrid="false"
     inkscape:window-width="1872"
     inkscape:window-height="1016"
     inkscape:window-x="48"
     inkscape:window-y="27"
     inkscape:window-maximized="1" />
  <metadata
     id="metadata7">
    <rdf:RDF>
      <cc:Work
         rdf:about="">
        <dc:format>image/svg+xml</dc:format>
        <dc:type
           rdf:resource="http://purl.org/dc/dcmitype/StillImage" />
        <dc:title />
      </cc:Work>
    </rdf:RDF>
  </metadata>
  <g
     inkscape:label="Calque 1"
     inkscape:groupmode="layer"
     id="layer1"
     transform="translate(0,-752.36218)">
    <path
       style="fill:#000000;stroke-width:6.04405451"
       d="m 168.32992,823.68352 c 10.40216,-10.06596 24.94257,-18.93126 24.94257,-18.93126 0,0 -0.65674,-17.78115 -0.65674,-24.76232 0,-11.9297 2.48451,-18.67108 6.07147,-16.47418 3.33929,2.04523 6.07145,12.45142 6.07145,23.12494 0,6.23002 0.6565,16.4643 0.6565,16.4643 0,0 9.14192,8.678 17.51416,13.57902 20.55704,12.03397 35.66556,34.07499 23.3575,34.07499 -4.10885,0 -15.13365,-7.27543 -24.49942,-16.16762 l -17.02874,-16.16762 v 16.86268 c 0,5.95109 0.66879,18.65515 0.66879,18.65515 0,0 15.63154,12.9733 25.13224,21.57956 29.23297,26.48092 17.94,33.75538 -12.71686,8.19172 L 199.63806,868.5325 177.0653,883.71288 c -24.11031,16.21431 -33.02121,18.72884 -33.02121,9.31806 0,-3.22427 8.11548,-10.02112 18.03442,-15.10421 12.41314,-6.36128 30.21219,-23.29665 30.21219,-23.29665 0,0 0.32505,-14.86956 0.32505,-22.65154 0,-6.0425 0.54555,-12.91528 0.54555,-12.91528 0,0 -8.27992,6.7037 -17.57429,15.52813 -9.36577,8.89219 -22.05508,17.83152 -25.50774,11.31345 -2.01794,-3.80954 5.10018,-9.49592 18.25065,-22.22132 z m -26.35965,54.00272 c -2.04839,14.80999 -10.86003,40.45114 -19.58149,56.98031 -14.32221,27.14414 -15.25441,32.83811 -9.63054,58.82529 3.42466,15.82466 8.059,33.50426 10.29864,39.28806 5.70013,14.7206 -7.44434,13.2907 -15.53455,-1.6899 -3.62545,-6.7132 -8.137028,-25.1357 -10.025678,-40.93898 -2.811149,-23.52174 -0.491184,-34.48845 12.791648,-60.4645 26.06053,-50.96473 26.86171,-113.76783 1.65241,-129.52625 -7.95319,-4.97154 -17.050081,1.40481 -23.241906,6.50305 -5.049179,4.15741 -8.73267,17.49279 -8.73267,17.49279 l 14.539782,5.04888 c 19.132434,9.80464 35.367394,31.58603 28.566384,38.32572 -2.05767,2.03914 -10.58606,-3.60784 -18.95199,-12.54889 -8.36592,-8.94099 -26.750199,-21.20611 -26.750199,-21.20611 -3.144551,11.80928 -5.267466,23.28107 -2.759203,33.22304 0,0 39.075892,27.41346 39.075892,35.33954 0,12.52073 -10.68334,10.50006 -18.214369,-3.44508 -3.574272,-6.61845 -20.007701,-14.15487 -20.007701,-14.15487 0,0 -0.17823,15.83246 3.112474,29.62171 4.441954,20.63925 3.546419,33.80965 -1.020771,33.15965 -1.601587,-0.22793 -3.654683,-2.15538 -6.087449,-6.05624 -7.915002,-12.69143 -13.72229,-80.57082 -9.115751,-106.55065 6.212129,-35.03466 18.196406,-50.33833 39.419857,-50.33833 13.97679,0 20.93687,4.50747 30.19463,19.55452 6.61703,10.75498 12.04122,24.84224 12.05367,31.30498 3.73469,13.83733 -0.25084,28.9858 -2.05112,42.25226 z m 33.91758,103.93763 C 165.237,968.43088 161.49115,948.17403 165.645,926.23169 c 6.08494,-32.14348 13.9949,-25.62713 16.04274,13.21627 1.50633,28.57306 3.84869,34.92088 13.56242,36.75491 18.1862,3.43378 27.80096,-14.89783 23.63012,-45.05331 -3.81895,-27.6114 5.73291,-37.38884 12.4089,-12.70183 10.63003,39.30855 -3.66759,70.69711 -32.20283,70.69711 -9.41969,0 -19.85901,-3.38444 -23.1985,-7.52097 z"
       id="path145"
       inkscape:connector-curvature="0"
       sodipodi:nodetypes="ccscsccsccscccccsscsccscccccccccaccccccssccsscssccccccsssc" />
  </g>
</svg>
