<?xml version="1.0" encoding="UTF-8" standalone="no"?>
<!-- Created with Inkscape (http://www.inkscape.org/) -->

<svg
   xmlns:dc="http://purl.org/dc/elements/1.1/"
   xmlns:cc="http://creativecommons.org/ns#"
   xmlns:rdf="http://www.w3.org/1999/02/22-rdf-syntax-ns#"
   xmlns:svg="http://www.w3.org/2000/svg"
   xmlns="http://www.w3.org/2000/svg"
   xmlns:sodipodi="http://sodipodi.sourceforge.net/DTD/sodipodi-0.dtd"
   xmlns:inkscape="http://www.inkscape.org/namespaces/inkscape"
   width="300"
   height="300"
   id="svg2"
   version="1.1"
   inkscape:version="0.48.3.1 r9886"
   sodipodi:docname="Nouveau document 1">
  <defs
     id="defs4" />
  <sodipodi:namedview
     id="base"
     pagecolor="#ffffff"
     bordercolor="#666666"
     borderopacity="1.0"
     inkscape:pageopacity="0.0"
     inkscape:pageshadow="2"
     inkscape:zoom="1.979899"
     inkscape:cx="112.10813"
     inkscape:cy="140.99784"
     inkscape:document-units="px"
     inkscape:current-layer="layer1"
     showgrid="false"
     inkscape:window-width="1215"
     inkscape:window-height="1000"
     inkscape:window-x="65"
     inkscape:window-y="24"
     inkscape:window-maximized="1" />
  <metadata
     id="metadata7">
    <rdf:RDF>
      <cc:Work
         rdf:about="">
        <dc:format>image/svg+xml</dc:format>
        <dc:type
           rdf:resource="http://purl.org/dc/dcmitype/StillImage" />
        <dc:title></dc:title>
      </cc:Work>
    </rdf:RDF>
  </metadata>
  <g
     inkscape:label="Calque 1"
     inkscape:groupmode="layer"
     id="layer1"
     transform="translate(0,-752.36218)">
    <path
       style="fill:#000000"
       d="m 194.85593,1027.6761 c -4.18434,-9.6074 -7.78147,-57.56349 -6.87158,-91.61035 0.58221,-21.78541 -0.2683,-29.21975 -3.89301,-34.03028 -2.55083,-3.38539 -4.63793,-8.28191 -4.63793,-10.88115 0,-2.59924 -1.24355,-5.82677 -2.76347,-7.17229 -1.5199,-1.34553 -3.18567,-7.0817 -3.70172,-12.74706 l -0.93825,-10.30065 -58.09492,-0.23744 c -31.952214,-0.13055 -60.166969,-0.92878 -62.699458,-1.77384 -2.941508,-0.98155 -4.028025,-3.45352 -3.008317,-6.84435 1.450295,-4.82263 3.843539,-5.30785 26.180346,-5.30785 28.458199,0 33.952679,-1.2948 33.952679,-8.00101 0,-4.23147 -2.30302,-4.87481 -17.451445,-4.87481 -12.611335,0 -17.914109,-1.04845 -19.11963,-3.78028 -2.27256,-5.14984 1.40458,-6.65992 20.359621,-8.36112 14.571014,-1.30772 16.211454,-2.06776 16.211454,-7.51096 0,-5.86802 -0.7301,-6.04918 -23.526077,-5.83699 -24.923129,0.23203 -29.778758,-0.88531 -29.778758,-6.85218 0,-2.70375 4.219077,-3.83029 15.547245,-4.15124 31.02567,-0.879 37.75759,-2.86761 37.75759,-11.15364 0,-10.54849 5.3407,-19.30783 11.77224,-19.30783 4.94646,0 6.00397,1.69042 6.0414,9.65686 0.0699,14.86569 2.94923,16.95316 23.38516,16.95316 15.13869,0 18.02879,0.71642 18.02879,4.46922 0,5.40308 -14.01425,10.12337 -30.05569,10.12337 -9.42936,0 -11.40363,0.89166 -11.40363,5.15033 0,4.4636 1.97427,5.15033 14.8069,5.15033 12.74617,0 14.80689,0.70443 14.80689,5.06164 0,4.12942 -2.72691,5.37619 -14.80689,6.76967 -13.13517,1.51519 -14.8069,2.40965 -14.8069,7.92247 0,6.09934 0.42535,6.20057 22.9507,5.46237 l 22.9507,-0.75211 2.02847,-27.0392 c 3.11975,-41.58533 4.80544,-48.92811 11.23241,-48.92811 7.4829,0 8.48896,3.58659 6.68167,23.82026 l -1.5526,17.38235 8.57332,-0.0205 c 9.92844,-0.0231 15.97673,-8.49648 15.97673,-22.3822 0,-9.5101 2.79167,-10.67169 9.59674,-3.99314 3.42884,3.36509 4.19269,7.99462 3.01575,18.27794 -1.36972,11.96787 -2.78364,14.41169 -10.79604,18.66032 -5.07095,2.68888 -12.73334,4.89323 -17.02758,4.89851 -6.433,0.008 -8.04062,1.38977 -9.13072,7.84851 -0.72768,4.31136 -0.1069,8.49242 1.3793,9.2912 1.48632,0.79877 11.22048,0.65909 21.63147,-0.31043 20.70114,-1.92776 30.94489,-0.29664 30.94489,4.92745 0,6.68064 -8.60065,9.33736 -30.5507,9.43702 -23.72319,0.10756 -26.64789,1.6977 -24.11992,13.11262 0.71891,3.24606 2.57807,6.27032 4.13147,6.72059 1.5534,0.45029 2.14206,2.36482 1.30813,4.25458 -3.5783,8.10875 5.79358,6.06237 16.46399,-3.595 14.42989,-13.05995 26.84427,-14.56935 26.84427,-3.26385 0,7.86447 -4.68532,13.39086 -11.3529,13.39086 -4.71953,0 -18.2516,12.57691 -18.2573,16.96857 -0.002,3.30161 19.30213,19.08372 23.34527,19.08372 1.5274,0 6.32886,3.67058 10.66995,8.15682 15.18159,15.68928 -4.00181,14.45702 -30.13753,-1.93588 -6.26843,-3.93171 -6.54636,-3.77522 -8.37857,4.71754 -1.04228,4.83127 -1.22771,16.22449 -0.41201,25.31824 5.47372,61.02482 5.70018,69.25612 2.01169,73.12082 -5.34204,5.5973 -7.80145,4.9121 -11.31369,-3.1521 z m -83.43148,-3.0844 c -5.01036,-8.141 -3.45718,-32.70596 3.14794,-49.78766 3.40566,-8.80744 7.2585,-17.17234 8.56188,-18.58868 3.98912,-4.33488 12.24534,-27.54694 15.02694,-42.24784 2.07608,-10.97213 1.63856,-15.74526 -2.06533,-22.53268 -2.58466,-4.7364 -6.43749,-8.61164 -8.56183,-8.61164 -2.12434,0 -5.63719,-0.56722 -7.80637,-1.26054 -2.16917,-0.69329 -5.88987,-0.18464 -8.26824,1.13036 -3.70183,2.04676 -3.52918,3.15495 1.19932,7.69847 3.038,2.91914 7.16061,5.30753 9.16134,5.30753 3.67007,0 7.17484,7.78107 7.24942,16.09476 0.0631,7.03976 -4.03003,5.43956 -18.68606,-7.30503 -7.47069,-6.49639 -14.975452,-11.06329 -16.677244,-10.1487 -4.958094,2.66466 -3.570514,14.54559 2.228716,19.08305 2.927589,2.29066 8.527038,8.22069 12.443178,13.17787 3.91616,4.9572 8.51713,9.8822 10.22435,10.94446 2.04118,1.27003 1.58303,2.79963 -1.33801,4.4671 -6.83335,3.90076 -8.32847,3.28743 -15.52003,-6.3666 C 90.737448,920.87 84.689263,924.64629 84.689263,946.29461 c 0,12.87856 -4.073544,21.50897 -10.152186,21.50897 -4.557988,0 -8.034695,-6.1169 -6.220553,-10.94444 0.665308,-1.77042 1.920914,-12.43446 2.790233,-23.69783 2.505806,-32.46668 7.088376,-46.27105 18.573887,-55.95142 9.058205,-7.63453 11.763166,-8.46425 27.594506,-8.46425 16.58772,0 18.12689,0.54591 28.01954,9.93763 11.90786,11.30486 12.73133,16.86525 6.33392,42.76833 -5.20016,21.05548 -11.76771,37.24387 -16.71535,41.20166 -5.34252,4.27367 -9.12998,24.41683 -8.2622,43.94124 0.94077,21.1664 0.72625,22.0271 -5.60212,22.4763 -3.86009,0.274 -7.83875,-1.5776 -9.62449,-4.4791 z"
       id="path2996"
       inkscape:connector-curvature="0" />
  </g>
</svg>
