<?xml version="1.0" encoding="UTF-8" standalone="no"?>
<!-- Created with Inkscape (http://www.inkscape.org/) -->

<svg
   xmlns:dc="http://purl.org/dc/elements/1.1/"
   xmlns:cc="http://creativecommons.org/ns#"
   xmlns:rdf="http://www.w3.org/1999/02/22-rdf-syntax-ns#"
   xmlns:svg="http://www.w3.org/2000/svg"
   xmlns="http://www.w3.org/2000/svg"
   xmlns:sodipodi="http://sodipodi.sourceforge.net/DTD/sodipodi-0.dtd"
   xmlns:inkscape="http://www.inkscape.org/namespaces/inkscape"
   width="300"
   height="300"
   id="svg2"
   version="1.1"
   inkscape:version="0.48.4 r9939"
   sodipodi:docname="image-seal.svg">
  <defs
     id="defs4" />
  <sodipodi:namedview
     id="base"
     pagecolor="#ffffff"
     bordercolor="#666666"
     borderopacity="1.0"
     inkscape:pageopacity="0.0"
     inkscape:pageshadow="2"
     inkscape:zoom="2.0018437"
     inkscape:cx="145.03351"
     inkscape:cy="130.6666"
     inkscape:document-units="px"
     inkscape:current-layer="layer1"
     showgrid="false"
     inkscape:window-width="1215"
     inkscape:window-height="1000"
     inkscape:window-x="65"
     inkscape:window-y="24"
     inkscape:window-maximized="1"
     fit-margin-top="10"
     fit-margin-left="10"
     fit-margin-right="10"
     fit-margin-bottom="10" />
  <metadata
     id="metadata7">
    <rdf:RDF>
      <cc:Work
         rdf:about="">
        <dc:format>image/svg+xml</dc:format>
        <dc:type
           rdf:resource="http://purl.org/dc/dcmitype/StillImage" />
        <dc:title />
      </cc:Work>
    </rdf:RDF>
  </metadata>
  <g
     inkscape:label="Calque 1"
     inkscape:groupmode="layer"
     id="layer1"
     transform="translate(0,-752.36218)">
    <path
       style="fill:#000000"
       d="m 142.69473,1032.6742 c 2.31562,-8.0783 9.26779,-32.3134 15.44932,-53.85573 8.25938,-28.7837 11.23907,-63.66545 11.23907,-131.57055 0,-50.82147 1.85655,-91.25414 4.12574,-89.8503 2.26919,1.40384 6.24661,22.42194 8.8388,46.70696 4.17451,39.10893 10.49456,53.5142 23.62446,53.84653 2.17205,0.0522 5.71125,-20.91789 7.86483,-46.60636 6.80214,-81.13586 14.29788,-60.75815 14.29788,38.87 0,72.38675 2.9981,107.66768 12.20286,143.60069 6.71154,26.20026 10.77899,49.06076 9.03863,50.80116 -5.54336,5.5433 -17.54509,-31.5095 -27.65587,-85.38203 l -9.80135,-52.22375 2.68867,63.64769 c 2.78444,65.91349 -4.41963,86.45889 -11.69753,33.36079 -2.28322,-16.65794 -4.15126,-54.84655 -4.15126,-84.86365 0,-30.01717 -2.40288,-54.57662 -5.33975,-54.57662 -2.93687,0 -8.69441,25.07255 -12.79456,55.71673 -8.31918,62.177 -26.72537,127.06644 -36.04299,127.06644 -3.35345,0 -4.20257,-6.6096 -1.88695,-14.688 z m -50.796767,-19.5839 c -5.97437,-22.29333 -4.00872,-57.43521 4.8381,-86.49557 6.663237,-21.88763 6.318057,-28.99952 -2.13367,-43.96156 -9.51158,-16.83837 -25.0931,-28.06779 -30.895071,-22.26586 -1.442975,1.44301 0.82334,16.31261 5.036251,33.0436 8.48968,33.71552 3.63301,48.28412 -6.879077,20.63523 -21.133606,-55.58565 -13.096424,-125.575 16.659207,-145.07163 20.59523,-13.49455 33.827347,-7.60554 45.458367,20.23142 14.1414,33.84516 11.58143,71.28267 -8.20253,119.95546 -13.27926,32.66987 -17.342817,52.9197 -16.270567,81.08103 1.505957,39.55238 -1.06559,47.27208 -7.61101,22.84788 z M 120.32337,840.52412 c 0.1662,-56.27305 -17.68843,-83.3053 -38.477607,-58.25592 -5.94694,7.16562 -3.36205,13.25504 12.25663,28.87373 10.886137,10.8861 19.792967,23.53273 19.792967,28.10362 0,4.57088 -9.687,-1.07829 -21.526677,-12.55374 -26.42731,-25.61438 -30.697076,-25.93823 -30.697076,-2.32846 0,13.46589 4.490306,20.58203 16.416066,26.01578 9.02884,4.11379 19.8199,14.95022 23.980137,24.08096 10.49248,23.02851 18.12925,8.83221 18.25556,-33.93597 z m 127.56555,91.24813 c -8.10284,-20.15184 -12.04201,-116.85977 -5.25403,-128.98919 4.64504,-8.30018 7.41969,9.09516 9.99941,62.68984 1.96374,40.79778 2.75839,75.03887 1.76588,76.09131 -0.99251,1.05243 -3.92259,-3.35394 -6.51126,-9.79196 z M 137.2416,918.43477 c 2.84774,-9.87356 5.42425,-40.52831 5.72559,-68.12164 0.30133,-27.59333 2.69621,-52.31801 5.32191,-54.94369 5.72764,-5.72764 6.48305,115.91191 0.81169,130.69136 -7.01869,18.29039 -17.40726,11.60999 -11.85919,-7.62603 z"
       id="path3299"
       inkscape:connector-curvature="0" />
  </g>
</svg>
