<?xml version="1.0" encoding="UTF-8" standalone="no"?>
<!-- Created with Inkscape (http://www.inkscape.org/) -->

<svg
   xmlns:dc="http://purl.org/dc/elements/1.1/"
   xmlns:cc="http://creativecommons.org/ns#"
   xmlns:rdf="http://www.w3.org/1999/02/22-rdf-syntax-ns#"
   xmlns:svg="http://www.w3.org/2000/svg"
   xmlns="http://www.w3.org/2000/svg"
   xmlns:sodipodi="http://sodipodi.sourceforge.net/DTD/sodipodi-0.dtd"
   xmlns:inkscape="http://www.inkscape.org/namespaces/inkscape"
   width="300"
   height="300"
   id="svg2"
   version="1.1"
   inkscape:version="0.48.4 r9939"
   sodipodi:docname="image-seal.svg">
  <defs
     id="defs4" />
  <sodipodi:namedview
     id="base"
     pagecolor="#ffffff"
     bordercolor="#666666"
     borderopacity="1.0"
     inkscape:pageopacity="0.0"
     inkscape:pageshadow="2"
     inkscape:zoom="2.0018437"
     inkscape:cx="145.03351"
     inkscape:cy="130.6666"
     inkscape:document-units="px"
     inkscape:current-layer="layer1"
     showgrid="false"
     inkscape:window-width="1215"
     inkscape:window-height="1000"
     inkscape:window-x="65"
     inkscape:window-y="24"
     inkscape:window-maximized="1"
     fit-margin-top="10"
     fit-margin-left="10"
     fit-margin-right="10"
     fit-margin-bottom="10" />
  <metadata
     id="metadata7">
    <rdf:RDF>
      <cc:Work
         rdf:about="">
        <dc:format>image/svg+xml</dc:format>
        <dc:type
           rdf:resource="http://purl.org/dc/dcmitype/StillImage" />
        <dc:title />
      </cc:Work>
    </rdf:RDF>
  </metadata>
  <g
     inkscape:label="Calque 1"
     inkscape:groupmode="layer"
     id="layer1"
     transform="translate(0,-752.36218)">
    <path
       style="fill:#000000"
       d="m 93.87839,1043.737 c -1.78902,-2.1629 -5.01673,-12.4873 -7.17261,-22.943 -4.61517,-22.38294 -1.13811,-44.90523 11.03886,-71.50324 12.76258,-27.87719 17.51961,-65.06037 16.92435,-132.28928 -0.292,-32.98916 -4.48185,-40.35829 -21.97342,-38.64771 -5.61734,0.54935 -11.23988,1.08618 -12.49457,1.19297 -1.25469,0.10677 -2.28126,3.58006 -2.28126,7.71832 0,4.8534 4.82152,12.34569 13.58337,21.10752 13.61745,13.61747 19.01268,25.17724 15.73607,33.71593 -3.21098,8.36772 -9.46117,4.64011 -17.91226,-10.68289 -11.44763,-20.7561 -17.49054,-20.17298 -17.49054,1.68783 0,15.29849 5.73065,29.38447 15.41815,37.89782 0.9518,0.83646 4.85476,8.05704 8.67319,16.04577 5.58413,11.68275 6.21418,15.4026 3.21992,19.01048 -6.56132,7.90587 -8.42101,6.00498 -18.67374,-19.08744 -2.22155,-5.437 -5.75817,-9.88545 -7.85918,-9.88545 -3.97697,0 -4.49837,4.55886 -4.00069,34.9793 0.32506,19.86796 -3.34496,29.62865 -9.01021,23.9634 -4.43687,-4.43686 -6.37962,-91.17966 -2.58038,-115.21375 1.58669,-10.03754 4.21549,-24.14505 5.84179,-31.35 3.00591,-13.3171 14.48246,-27.96272 21.9121,-27.96272 2.25084,0 5.61174,-1.51929 7.46865,-3.37621 4.65988,-4.65988 30.63688,13.41575 34.74342,24.17557 3.09372,8.10613 1.26622,112.39469 -2.35386,134.32622 -1.69072,10.24264 -15.69555,42.48324 -19.82195,45.63214 -2.56225,1.95528 -7.16416,24.87503 -5.80042,28.88898 0.5684,1.67292 1.57678,9.20114 2.24087,16.72924 0.66408,7.5282 2.66432,16.5874 4.44498,20.1316 6.42613,12.7906 -3.41781,25.8973 -11.82063,15.7386 z m 74.05887,-28.3458 c -16.26714,-8.49 -16.81613,-10.7699 -16.92052,-70.26681 -0.0797,-45.38497 0.71033,-55.80798 4.46579,-58.92473 6.04458,-5.01655 13.68756,0.98669 13.68756,10.75097 0,5.72787 2.02518,7.2561 11.40629,8.60737 6.27346,0.90365 16.88131,1.10473 23.573,0.44688 6.6917,-0.65785 13.87766,-1.27687 15.96882,-1.37563 2.09115,-0.0988 3.80209,-3.43381 3.80209,-7.41129 0,-3.97745 2.20127,-9.05864 4.89166,-11.29147 10.11787,-8.39707 12.93173,3.33635 12.85185,53.59023 -0.11072,69.59758 -2.92114,74.49208 -45.11861,78.57408 -14.74889,1.4268 -22.01561,0.7411 -28.60793,-2.6996 z m 39.6536,-14.2473 c 14.44666,-2.97 15.86314,-4.05971 19.03409,-14.64341 2.03498,-6.79216 2.39323,-14.22626 0.88236,-18.31051 -2.38665,-6.45173 -4.07676,-6.83535 -27.3987,-6.21886 -22.64527,0.5986 -24.85517,0.14174 -24.85517,-5.13812 0,-9.98252 28.18754,-14.85714 47.80904,-8.26789 5.45613,1.83227 8.01905,-4.17234 3.89949,-9.13608 -1.96097,-2.36281 -2.75874,-5.60122 -1.77284,-7.19646 0.98593,-1.59524 0.95731,-5.07711 -0.0636,-7.73745 -1.50286,-3.91643 -6.96992,-4.837 -28.72628,-4.837 -14.7786,0 -27.5608,1.11748 -28.40492,2.48326 -3.61282,5.84568 -5.1492,52.24061 -2.10442,63.54811 4.73556,17.58651 14.22429,21.10301 41.70092,15.45441 z M 167.45114,868.58336 c -6.68831,-4.51896 -10.54233,-21.42802 -11.15982,-48.96263 l -0.64046,-28.55795 12.57606,-11.16028 c 13.22869,-11.73942 33.49557,-18.41164 55.92542,-18.41164 9.64167,0 11.93467,1.09573 11.93467,5.70314 0,3.75298 -2.86025,6.32499 -8.36462,7.52168 -15.95165,3.46797 -17.57515,6.05902 -13.00898,20.76149 5.10697,16.44383 19.39048,45.70304 27.98727,57.3308 5.39673,7.29948 5.84391,9.60528 2.61691,13.49361 -2.14065,2.57934 -5.43545,4.68966 -7.32175,4.6896 -3.90722,-9e-5 -16.9489,-16.02533 -22.27844,-27.37501 -9.35988,-19.93273 -16.08174,-37.70939 -17.87652,-47.27638 -1.67855,-8.94743 -3.21268,-10.51551 -10.2878,-10.51551 -4.57332,0 -10.75818,2.69955 -13.74416,5.99901 -5.41507,5.98359 -5.45099,13.92109 -0.20014,44.18868 4.20299,24.22688 1.63061,37.83355 -6.1577,32.57139 z"
       id="path3106"
       inkscape:connector-curvature="0" />
  </g>
</svg>
