<?xml version="1.0" encoding="UTF-8" standalone="no"?>
<!-- Created with Inkscape (http://www.inkscape.org/) -->

<svg
   xmlns:dc="http://purl.org/dc/elements/1.1/"
   xmlns:cc="http://creativecommons.org/ns#"
   xmlns:rdf="http://www.w3.org/1999/02/22-rdf-syntax-ns#"
   xmlns:svg="http://www.w3.org/2000/svg"
   xmlns="http://www.w3.org/2000/svg"
   xmlns:sodipodi="http://sodipodi.sourceforge.net/DTD/sodipodi-0.dtd"
   xmlns:inkscape="http://www.inkscape.org/namespaces/inkscape"
   width="300"
   height="300"
   id="svg2"
   version="1.1"
   inkscape:version="0.91 r13725"
   sodipodi:docname="image-seal.svg">
  <defs
     id="defs4" />
  <sodipodi:namedview
     id="base"
     pagecolor="#ffffff"
     bordercolor="#666666"
     borderopacity="1.0"
     inkscape:pageopacity="0.0"
     inkscape:pageshadow="2"
     inkscape:zoom="2.77"
     inkscape:cx="150"
     inkscape:cy="150"
     inkscape:document-units="px"
     inkscape:current-layer="layer1"
     showgrid="false"
     inkscape:window-width="1231"
     inkscape:window-height="1000"
     inkscape:window-x="49"
     inkscape:window-y="24"
     inkscape:window-maximized="1"
     showguides="true"
     inkscape:guide-bbox="true" />
  <metadata
     id="metadata7">
    <rdf:RDF>
      <cc:Work
         rdf:about="">
        <dc:format>image/svg+xml</dc:format>
        <dc:type
           rdf:resource="http://purl.org/dc/dcmitype/StillImage" />
        <dc:title />
      </cc:Work>
    </rdf:RDF>
  </metadata>
  <g
     inkscape:label="Calque 1"
     inkscape:groupmode="layer"
     id="layer1"
     transform="translate(0,-752.36218)">
    <path
       style="fill:#000000"
       d="m 145.54593,1046.0763 c -0.85027,-0.8503 -0.93726,-17.2046 -0.19345,-36.3429 1.41594,-36.42517 6.73455,-55.72778 16.32666,-59.25332 2.31899,-0.85233 4.81016,-2.24558 5.53592,-3.09606 0.72576,-0.85048 4.78533,-2.71853 9.02127,-4.15117 11.49058,-3.88631 10.93001,-7.87096 -1.69242,-12.02947 -12.03656,-3.96548 -22.94303,-14.09182 -23.08016,-21.42923 -0.0459,-2.45448 -1.20787,-5.15768 -2.58221,-6.00708 -3.08574,-1.90708 7.5583,-22.58451 13.05529,-25.3616 2.17727,-1.09995 7.81838,-3.42969 12.5358,-5.17718 9.32867,-3.45563 12.23801,-13.08553 3.95868,-13.10321 -2.54015,-0.005 -8.47817,-2.36317 -13.19559,-5.23944 -6.62357,-4.03846 -8.57713,-7.04172 -8.57713,-13.18572 0,-4.37589 -1.1876,-7.95614 -2.63911,-7.95614 -1.45152,0 -2.63912,-2.96901 -2.63912,-6.5978 0,-4.83837 1.40752,-6.59779 5.27823,-6.59779 4.10531,0 5.27824,1.75942 5.27824,7.91735 0,15.83853 18.92534,25.38427 22.23728,11.21625 2.79791,-11.96911 7.27396,-21.77271 9.94081,-21.77271 1.3791,0 4.28706,-1.77961 6.46217,-3.95472 2.17508,-2.17508 7.13757,-4.64949 11.02773,-5.49865 12.63913,-2.75896 13.67081,-3.49319 13.67081,-9.72937 0,-9.139 -4.95206,-12.49372 -18.34186,-12.42544 -9.73298,0.0496 -13.83151,1.67465 -21.63289,8.57713 -18.60237,16.45896 -21.19552,18.05689 -27.99008,17.24795 -8.98459,-1.06969 -10.62488,-6.73326 -2.84605,-9.82678 3.38387,-1.34574 9.66935,-6.26265 13.96771,-10.9265 l 7.81519,-8.47972 -9.79463,-8.22336 c -5.38708,-4.52284 -9.79461,-10.30163 -9.79453,-12.84178 1.3e-4,-5.41747 3.47825,-5.96459 8.38872,-1.31956 7.91577,7.48786 36.15311,15.17492 55.74306,15.17492 8.80425,0 20.31146,11.10462 20.31685,19.606 0.0105,15.34275 -10.99317,27.89811 -24.44849,27.89811 -5.75708,0 -15.61265,4.80747 -18.39354,8.9722 -3.89626,5.8352 -2.21034,17.40203 2.59871,17.8294 15.2912,1.35896 24.41183,-2.85916 24.41183,-11.29006 0,-3.19565 1.87415,-4.95507 5.27824,-4.95507 4.21274,0 5.26129,1.73144 5.19431,8.57713 -0.1346,13.75444 -5.08682,17.85753 -22.69723,18.80545 -11.30421,0.60847 -15.69852,1.91924 -16.27284,4.85402 -0.77939,3.98264 16.0714,9.98927 28.02346,9.98927 7.16098,0 11.35612,6.01254 13.97462,20.02863 1.91022,10.22497 1.35899,13.60897 -3.62836,22.2747 -6.62344,11.50847 -13.90229,15.75724 -26.99489,15.75724 -4.92634,0 -9.65413,1.12801 -10.5062,2.50671 -1.83033,2.96154 6.76039,8.04839 13.60003,8.05298 5.3647,0.003 16.4312,9.12841 20.96201,17.28405 1.63596,2.94481 3.84741,17.77699 4.91435,32.96044 1.06692,15.1834 2.26814,31.3132 2.66934,35.8439 0.84742,9.5697 -2.09322,15.6603 -6.30443,13.0576 -1.70923,-1.0563 -3.02121,-10.287 -3.14266,-22.1108 -0.27297,-26.57588 -5.29795,-54.47974 -11.01275,-61.15415 -4.08097,-4.76621 -17.49418,-7.40209 -20.80735,-4.08891 -0.68139,0.68139 -0.7494,5.4318 -0.15122,10.55647 1.0368,8.88105 1.56882,9.31758 11.35551,9.31758 5.64724,0 10.26772,1.22487 10.26772,2.72194 0,2.85064 -1.91874,3.72931 -13.85536,6.34483 -6.39418,1.40108 -7.25757,2.80609 -7.25757,11.81034 0,8.611 1.00579,10.4725 6.38809,11.8234 3.51343,0.8818 8.11058,0.9423 10.21589,0.1343 2.10533,-0.8079 4.53297,0.3687 5.3948,2.6146 2.19121,5.7102 -7.92859,8.0294 -35.19437,8.0659 -18.19391,0.024 -22.43249,-0.718 -22.43249,-3.9287 0,-2.5969 3.17362,-4.2598 9.2263,-4.834 12.28467,-1.1655 15.84531,-4.5997 15.84531,-15.28239 0,-8.25909 -0.62996,-8.92737 -8.57713,-9.09925 -4.71742,-0.10214 -10.77058,-1.04863 -13.45145,-2.10362 -4.62943,-1.82175 -4.6422,-2.11076 -0.25414,-5.75251 2.54107,-2.10891 5.03142,-3.53749 5.53409,-3.17462 0.50267,0.36288 4.28582,0.65978 8.40702,0.65978 6.56324,0 7.43816,-0.92282 7.05066,-7.43658 -1.17396,-19.73355 -12.74601,-18.51771 -24.59839,2.58446 -4.7635,8.48104 -8.66412,34.42183 -9.42513,62.68163 -0.28629,10.6306 -3.56429,15.894 -7.46767,11.9907 z m 40.16401,-130.55906 c 3.22727,-6.0302 2.13431,-6.73632 -14.06185,-9.08529 -9.29354,-1.34788 -10.01611,-0.99791 -9.23691,4.47391 0.77176,5.41969 4.3228,7.25894 18.56651,9.61652 1.03754,0.1718 3.16707,-2.08058 4.73225,-5.00514 z m 32.7962,2.7436 c 14.78713,-5.62206 1.3355,-15.97186 -15.32416,-11.79055 -7.4454,1.86868 -8.86915,6.09784 -3.76959,11.19741 3.83802,3.83801 10.0514,4.03104 19.09375,0.59314 z m -35.9325,-28.43583 c 0.6108,-4.30065 -0.4808,-5.92809 -3.95868,-5.90199 -10.22663,0.0768 -16.67803,3.3061 -16.67803,8.34845 0,4.3139 1.57397,4.99947 9.89669,4.31063 7.94958,-0.65793 10.06261,-1.98733 10.74002,-6.75709 z m 39.1215,3.26528 c 2.61743,-6.82091 -4.33192,-12.18246 -14.66734,-11.31606 -7.38704,0.61921 -9.64138,2.04679 -10.27688,6.50801 -0.86122,6.04569 2.71779,7.93725 16.07183,8.49421 4.33982,0.18104 7.96665,-1.32582 8.87239,-3.68616 z M 94.633852,1039.5859 c -0.90017,-1.4565 -1.05577,-6.5039 -0.34577,-11.2163 0.70997,-4.7124 2.01502,-14.5061 2.9001,-21.7637 2.03193,-16.66152 11.624778,-48.08509 17.321628,-56.74098 12.42887,-18.88454 18.58068,-55.13891 14.02981,-82.68195 -1.21091,-7.32867 -3.37889,-10.75598 -7.88832,-12.47049 -3.42017,-1.30031 -6.21847,-4.17505 -6.21847,-6.38824 0,-2.21319 -1.18761,-4.024 -2.63912,-4.024 -1.45152,0 -2.63912,-2.3752 -2.63912,-5.27823 0,-2.90303 -1.04353,-5.27823 -2.31894,-5.27823 -1.2754,0 -3.7947,-3.56281 -5.59841,-7.91735 -5.300318,-12.79608 -7.917348,-9.20274 -7.917348,10.87102 0,16.75961 0.98173,20.40449 9.091838,33.75515 11.77495,19.38366 15.30904,28.96376 13.43674,36.42367 -2.01377,8.02347 -5.04802,7.6247 -9.25704,-1.21656 -10.056908,-21.12515 -12.123148,-24.41183 -15.346988,-24.41183 -1.93287,0 -2.93402,0.93889 -2.22481,2.08641 0.70921,1.14754 1.60873,14.41728 1.99895,29.48833 0.59821,23.10412 0.0264,27.83281 -3.64626,30.14941 -2.39565,1.51113 -5.08001,2.02325 -5.96522,1.13804 -0.88521,-0.88522 -1.51184,-27.20846 -1.39253,-58.49611 0.36573,-95.89224 1.07412,-100.98354 15.94444,-114.5921 5.172348,-4.73346 9.135138,-5.87998 18.342178,-5.30676 17.01227,1.05916 20.43141,8.28648 22.19516,46.91574 0.76215,16.69242 2.22976,42.56722 3.26136,57.49958 2.4178,34.9973 -1.86535,58.82792 -15.07421,83.87003 -9.93659,18.83833 -19.62223,55.74215 -16.88956,64.35205 1.66481,5.2453 -5.41734,23.8815 -9.075468,23.8815 -1.34637,0 -3.18447,-1.1916 -4.08462,-2.6481 z M 127.98427,812.63084 c 1.18301,-6.27479 -3.09996,-27.29311 -6.50954,-31.94514 -1.7069,-2.32894 -5.67323,-5.05003 -8.81404,-6.04687 -4.49914,-1.428 -7.15623,0.0829 -12.52568,7.12263 -9.443598,12.38123 -8.779178,20.02443 2.5628,29.48126 5.15784,4.30054 11.98127,12.01331 15.16318,17.13945 l 5.78528,9.32028 1.79584,-10.55647 c 0.98769,-5.80605 2.13167,-12.33787 2.54216,-14.51514 z"
       id="path3548"
       inkscape:connector-curvature="0" />
  </g>
</svg>
