<?xml version="1.0" encoding="UTF-8" standalone="no"?>
<!-- Created with Inkscape (http://www.inkscape.org/) -->

<svg
   xmlns:dc="http://purl.org/dc/elements/1.1/"
   xmlns:cc="http://creativecommons.org/ns#"
   xmlns:rdf="http://www.w3.org/1999/02/22-rdf-syntax-ns#"
   xmlns:svg="http://www.w3.org/2000/svg"
   xmlns="http://www.w3.org/2000/svg"
   xmlns:sodipodi="http://sodipodi.sourceforge.net/DTD/sodipodi-0.dtd"
   xmlns:inkscape="http://www.inkscape.org/namespaces/inkscape"
   width="300"
   height="300"
   id="svg2"
   version="1.1"
   inkscape:version="0.48.4 r9939"
   sodipodi:docname="image-seal.svg">
  <defs
     id="defs4" />
  <sodipodi:namedview
     id="base"
     pagecolor="#ffffff"
     bordercolor="#666666"
     borderopacity="1.0"
     inkscape:pageopacity="0.0"
     inkscape:pageshadow="2"
     inkscape:zoom="1.979899"
     inkscape:cx="93.377566"
     inkscape:cy="122.32215"
     inkscape:document-units="px"
     inkscape:current-layer="layer1"
     showgrid="false"
     inkscape:window-width="1215"
     inkscape:window-height="1000"
     inkscape:window-x="65"
     inkscape:window-y="24"
     inkscape:window-maximized="1"
     fit-margin-top="10"
     fit-margin-left="10"
     fit-margin-right="10"
     fit-margin-bottom="10" />
  <metadata
     id="metadata7">
    <rdf:RDF>
      <cc:Work
         rdf:about="">
        <dc:format>image/svg+xml</dc:format>
        <dc:type
           rdf:resource="http://purl.org/dc/dcmitype/StillImage" />
        <dc:title />
      </cc:Work>
    </rdf:RDF>
  </metadata>
  <g
     inkscape:label="Calque 1"
     inkscape:groupmode="layer"
     id="layer1"
     transform="translate(0,-752.36218)">
    <path
       style="fill:#000000"
       d="m 230.01797,1035.927 c -3.10546,-2.6998 -12.12126,-15.0067 -20.03512,-27.3487 -7.91384,-12.34194 -15.66412,-23.96447 -17.22283,-25.82776 -1.5587,-1.86333 -2.83403,-5.33452 -2.83403,-7.71374 0,-2.37926 -1.06019,-4.32589 -2.35602,-4.32589 -1.29582,0 -4.0392,-5.10005 -6.09641,-11.33344 -2.75573,-8.34994 -4.88812,-10.89298 -8.10034,-9.66034 -8.91175,3.41976 -43.81531,6.58265 -46.23081,4.18934 -1.36191,-1.34938 -1.77443,-4.28225 -0.91669,-6.51743 1.50358,-3.9183 9.40452,-6.0249 35.10692,-9.3605 11.08758,-1.43888 12.00857,-2.17654 11.21998,-8.9863 -0.84259,-7.27619 -1.25807,-7.41873 -21.62429,-7.41873 -14.04341,0 -21.15413,-1.12941 -21.96671,-3.48899 -1.67632,-4.86774 11.08402,-9.1335 27.32149,-9.1335 7.52227,0 14.46393,-1.27355 15.42593,-2.8301 3.38694,-5.4802 -1.67404,-13.34981 -9.60551,-14.93612 -10.86029,-2.17204 -19.74573,-16.88836 -17.79662,-29.4753 1.50833,-9.7404 13.7721,-20.04627 23.88037,-20.06786 2.69981,-0.005 4.90875,-1.27273 4.90875,-2.81549 0,-1.54274 -3.68966,-2.80499 -8.19922,-2.80499 -18.06213,0 -32.11709,-26.05888 -21.55751,-39.96916 4.55817,-6.00453 26.94219,-10.52074 52.14479,-10.52074 20.3883,0 24.98123,2.64696 30.7021,17.69399 4.04419,10.63699 -2.49592,23.08432 -15.34949,29.21376 -9.78553,4.66639 -12.76055,9.19215 -6.04246,9.19215 14.29127,0 28.81478,17.14782 25.87187,30.54681 -2.10294,9.5746 -11.19221,14.27731 -31.70613,16.40441 -15.88396,1.64702 -18.43525,3.31461 -15.75547,10.29805 1.26818,3.30484 5.58235,4.46061 16.65005,4.46061 12.47484,0 15.23198,-0.92514 16.71889,-5.60999 0.9793,-3.0855 4.21998,-5.60999 7.2015,-5.60999 4.86592,0 5.42097,2.10947 5.42097,20.6027 0,21.60812 -4.15106,29.8872 -14.98514,29.8872 -2.59928,0 -7.54886,1.57782 -10.99912,3.50625 -3.45025,1.92843 -6.70461,3.7273 -7.23193,3.99748 -1.83533,0.94041 6.30875,20.54622 8.53474,20.54622 1.23281,0 2.2415,2.01408 2.2415,4.47574 0,5.29918 8.64022,18.0207 22.35979,32.92165 13.49583,14.658 18.10649,22.759 16.03121,28.167 -2.27412,5.9263 -8.06498,5.793 -15.129,-0.3483 z M 205.17086,931.5104 c 4.94276,-1.87923 7.19509,-4.8261 7.19509,-9.41386 0,-6.48745 -0.38934,-6.60134 -13.62316,-3.9847 -13.07228,2.58473 -13.4976,2.96448 -10.51873,9.39199 3.42684,7.394 6.2695,8.06608 16.9468,4.00657 z m 1.58511,-55.87412 c 10.45556,-2.90836 9.04277,-11.8529 -2.805,-17.75895 -10.77016,-5.36888 -34.63383,-5.92098 -42.77617,-0.98965 -6.74651,4.08591 -6.15271,11.65402 1.32539,16.89187 6.48161,4.53988 30.92321,5.56534 44.25578,1.85673 z m -5.66678,-58.10215 c 14.01093,-5.60606 15.06911,-13.25208 2.44322,-17.65348 -18.65765,-6.50411 -50.11521,-1.65374 -50.0284,7.71372 0.0948,10.22761 2.12466,11.12976 31.45647,13.9803 2.66858,0.25945 9.92651,-1.55891 16.12871,-4.04054 z M 77.726206,1015.0887 c 0,-22.29858 2.290812,-34.02725 10.037394,-51.39027 4.091337,-9.17027 12.87708,-24.40946 15.36282,-26.64746 3.22563,-2.90409 7.15742,-35.94213 7.01013,-58.90489 -0.13857,-21.61988 -0.67587,-23.92397 -5.7629,-24.71677 -3.28161,-0.51143 -9.993011,-7.7876 -16.17048,-17.53122 -5.808246,-9.16128 -11.803923,-16.6569 -13.323725,-16.6569 -1.519774,0 -2.763228,6.99515 -2.763228,15.54475 0,11.66757 1.399244,17.04669 5.609989,21.56639 3.085495,3.31189 5.60999,7.67697 5.60999,9.70018 0,2.02322 1.125196,3.67859 2.500428,3.67859 2.970238,0 11.543057,20.46247 11.481597,27.40547 -0.0224,2.66859 -1.18968,6.66416 -2.59122,8.8791 -3.653311,5.77352 -11.390805,-1.13128 -11.390805,-10.165 0,-3.76937 -1.397926,-9.46545 -3.106504,-12.65795 -5.315408,-9.93195 -8.251424,-0.2042 -7.747815,25.67046 0.469695,24.13179 -1.848829,29.52762 -8.99029,20.92268 -4.368413,-5.26362 -5.717841,-53.34846 -2.828415,-100.78763 1.508357,-24.76462 2.709148,-29.6895 10.088836,-41.37757 6.902055,-10.9316 20.585211,-21.67436 27.606843,-21.67436 3.676339,0 16.258509,15.17427 20.479029,24.69806 3.68771,8.32138 4.56957,19.79291 4.47386,58.19682 -0.17054,68.47293 -5.41223,96.14333 -23.08555,121.86973 -6.693194,9.74304 -11.280005,30.20859 -11.280005,50.32949 0,15.1204 -0.617435,16.9904 -5.609989,16.9904 -5.15272,0 -5.60999,-1.87 -5.60999,-22.9421 z M 105.77615,814.94568 c 0,-17.55961 -0.82859,-21.43123 -4.90874,-22.93662 -2.699809,-0.9961 -5.819489,-3.16542 -6.932625,-4.82071 -2.365229,-3.51715 -9.983846,0.37169 -14.379161,7.33972 -2.095302,3.32173 -0.632302,6.43746 6.123781,13.04174 4.882234,4.77253 8.876766,10.33237 8.876766,12.35522 0,3.71712 7.679769,16.14613 9.976529,16.14613 0.68391,0 1.24345,-9.50646 1.24345,-21.12548 z m 43.47742,-37.62555 c -3.08549,-1.24126 -6.56797,-1.70222 -7.73884,-1.02431 -3.73557,2.16282 -13.29862,-2.17403 -13.29862,-6.03095 0,-5.98259 4.91228,-6.59046 57.77487,-7.14941 60.6142,-0.64092 57.22992,-0.87664 57.22992,3.98678 0,4.56018 -11.26863,6.51796 -41.33786,7.18187 -11.16519,0.24656 -24.41046,1.62699 -29.43391,3.06768 -10.68433,3.06424 -15.51627,3.05765 -23.19556,-0.0318 z"
       id="path3002"
       inkscape:connector-curvature="0" />
  </g>
</svg>
