<?xml version="1.0" encoding="UTF-8" standalone="no"?>
<!-- Created with Inkscape (http://www.inkscape.org/) -->

<svg
   xmlns:dc="http://purl.org/dc/elements/1.1/"
   xmlns:cc="http://creativecommons.org/ns#"
   xmlns:rdf="http://www.w3.org/1999/02/22-rdf-syntax-ns#"
   xmlns:svg="http://www.w3.org/2000/svg"
   xmlns="http://www.w3.org/2000/svg"
   xmlns:sodipodi="http://sodipodi.sourceforge.net/DTD/sodipodi-0.dtd"
   xmlns:inkscape="http://www.inkscape.org/namespaces/inkscape"
   width="300"
   height="300"
   id="svg2"
   version="1.1"
   inkscape:version="0.48.4 r9939"
   sodipodi:docname="image-seal.svg">
  <defs
     id="defs4" />
  <sodipodi:namedview
     id="base"
     pagecolor="#ffffff"
     bordercolor="#666666"
     borderopacity="1.0"
     inkscape:pageopacity="0.0"
     inkscape:pageshadow="2"
     inkscape:zoom="1.979899"
     inkscape:cx="162.37035"
     inkscape:cy="145.59431"
     inkscape:document-units="px"
     inkscape:current-layer="layer1"
     showgrid="false"
     inkscape:window-width="1215"
     inkscape:window-height="1000"
     inkscape:window-x="65"
     inkscape:window-y="24"
     inkscape:window-maximized="1"
     fit-margin-top="10"
     fit-margin-left="10"
     fit-margin-right="10"
     fit-margin-bottom="10" />
  <metadata
     id="metadata7">
    <rdf:RDF>
      <cc:Work
         rdf:about="">
        <dc:format>image/svg+xml</dc:format>
        <dc:type
           rdf:resource="http://purl.org/dc/dcmitype/StillImage" />
        <dc:title />
      </cc:Work>
    </rdf:RDF>
  </metadata>
  <g
     inkscape:label="Calque 1"
     inkscape:groupmode="layer"
     id="layer1"
     transform="translate(0,-752.36218)">
    <path
       style="fill:#000000"
       d="m 81.230047,1034.9974 c 0,-19.9805 12.77359,-70.80273 24.127093,-95.99436 5.62207,-12.47446 6.84966,-42.38584 4.23933,-103.29443 -1.74413,-40.69691 -4.70813,-51.10372 -14.555023,-51.10372 -6.83586,0 -27.002059,18.64566 -22.282258,20.60219 4.370249,1.81162 29.952341,40.45256 29.952341,45.2421 0,4.11851 -6.149253,6.83073 -9.960793,4.39339 -1.51846,-0.97099 -6.07007,-8.32544 -10.11469,-16.34322 C 73.36294,820.117 68.959241,815.31423 66.722334,821.14352 c -2.688544,7.00624 -1.802873,38.64656 1.081789,38.64656 1.476852,0 2.685185,1.27919 2.685185,2.84264 0,1.56345 3.524171,7.30303 7.83149,12.75463 12.458829,15.76862 19.020359,29.47012 19.020359,39.71746 0,8.21678 -0.78637,9.38706 -5.80915,8.64517 -4.2805,-0.63225 -7.78657,-5.4509 -13.323753,-18.31175 -4.133037,-9.59954 -7.686659,-16.84954 -7.896941,-16.11112 -1.37931,4.84357 -2.742404,25.66546 -2.713431,41.4489 0.03421,18.63416 -2.578194,25.68073 -9.520695,25.68073 -3.043926,0 -3.69899,-11.97329 -3.69899,-67.61027 0,-66.32088 0.786289,-74.06211 9.637495,-94.88371 3.695188,-8.69256 12.303537,-17.59024 21.698345,-22.4276 7.6751,-3.9519 26.210013,5.53768 30.274273,15.49996 1.6621,4.07412 3.11973,34.28949 3.5098,72.75496 0.68641,67.68761 0.35314,70.62912 -10.95198,96.66666 -2.2443,5.16899 -5.01326,13.62732 -6.15324,18.7963 -1.13999,5.16898 -3.908873,17.25231 -6.153073,26.85186 -2.24421,9.5995 -4.12282,21.8861 -4.1747,27.3035 -0.12011,12.5429 -2.36388,18.3446 -7.09458,18.3446 -2.67225,0 -3.74049,-3.6428 -3.74049,-12.7556 z m 72.852333,-10.2405 c -8.11625,-9.3346 -10.3501,-16.136 -10.69593,-32.56595 -0.16138,-7.66793 -0.45989,-14.91793 -0.66329,-16.11111 -1.8273,-10.71916 5.85998,-11.29685 8.35318,-0.62772 1.17855,5.04348 3.55626,6.71038 10.5332,7.38437 9.28298,0.89677 13.48503,-2.43372 13.56088,-10.74813 0.0642,-7.02036 -6.88806,-12.28408 -18.90593,-14.31451 -8.4172,-1.42207 -12.20787,-3.84239 -16.15429,-10.31444 -5.11106,-8.38207 -7.1597,-25.91007 -3.0283,-25.91007 3.85115,0 8.5926,6.32895 8.5926,11.46958 0,7.33412 5.95598,12.11722 16.3626,13.14038 7.80135,0.76702 9.27442,-10e-4 10.01531,-5.22328 0.58169,-4.1 -1.85766,-8.66933 -7.38426,-13.83195 -5.11895,-4.78183 -8.25291,-10.35928 -8.25291,-14.68761 0,-6.58375 -0.75897,-6.97823 -13.42593,-6.97823 -10.06727,0 -13.42592,-0.99481 -13.42592,-3.97663 0,-3.93847 7.0858,-6.4307 17.4537,-6.13882 2.9537,0.0832 23.69955,-0.6707 46.10192,-1.6752 29.4949,-1.32256 41.25682,-0.97647 42.63566,1.25454 2.44341,3.95353 -3.56847,7.7571 -12.34406,7.80981 -8.71657,0.0524 -13.28971,4.63713 -13.29892,13.33278 -0.005,5.16146 -2.48455,8.17067 -10.06944,12.2228 -7.5062,4.01008 -10.0622,7.07949 -10.0622,12.08333 0,14.26674 24.2969,7.43668 25.99654,-7.30784 0.51792,-4.49314 2.70887,-7.77149 5.55439,-8.3111 3.81608,-0.72371 4.69907,1.05187 4.69907,9.449 0,11.23809 -6.06277,22.27584 -12.23558,22.27584 -2.13156,0 -3.87553,1.26132 -3.87553,2.80291 0,1.54159 -1.51042,2.60675 -3.35648,2.36702 -1.84607,-0.23979 -6.6794,-0.29269 -10.74074,-0.11762 -6.77182,0.29178 -7.38426,1.20898 -7.38426,11.05891 0,10.14404 0.44754,10.74074 8.05555,10.74074 6.09033,0 8.05556,-1.22995 8.05556,-5.04159 0,-5.60291 6.21583,-12.01419 8.97392,-9.25611 3.43432,3.43433 1.81985,41.3137 -2.08247,48.86 -4.52983,8.7597 -18.45633,13.771 -38.26966,13.771 -10.93029,0 -14.36865,-1.2273 -19.28798,-6.885 z m 46.28856,-15.2677 c 4.0556,-15.1334 3.60529,-15.43986 -22.68759,-15.43986 l -24.38,0 1.87171,8.72686 c 1.02944,4.7998 2.40509,9.6331 3.057,10.7407 0.65191,1.1077 10.03556,2.0139 20.85256,2.0139 18.12578,0 19.79414,-0.4735 21.28632,-6.0416 z m -4.21496,-93.84727 c 1.77222,-1.77222 3.22222,-5.39722 3.22222,-8.05556 0,-4.11727 -2.38683,-4.83333 -16.11111,-4.83333 -15.08819,0 -16.11111,0.39781 -16.11111,6.26542 0,3.44601 0.80555,7.07101 1.79013,8.05556 3.05682,3.05684 23.81338,1.9644 27.20987,-1.43209 z m -55.77409,-34.12701 c -7.08427,-4.72859 -1.68345,-7.19375 21.25133,-9.70002 12.20038,-1.33322 16.79503,-4.88392 15.56036,-12.02482 -0.53264,-3.08064 -5.42539,-4.19885 -20.80683,-4.75533 -25.13701,-0.90939 -28.59035,-1.96346 -24.11181,-7.35977 2.38337,-2.87178 8.84513,-3.99601 22.96803,-3.99601 20.49491,0 24.13616,-1.83995 21.30353,-10.76478 -1.51635,-4.77759 -4.08884,-5.34634 -24.18152,-5.34634 -12.36656,0 -23.19398,-1.1477 -24.06092,-2.55046 -2.77901,-4.49648 7.66191,-7.74813 25.14748,-7.83178 9.35414,-0.0448 17.45999,-0.53381 18.01303,-1.08683 0.55302,-0.55301 -0.49227,-4.3269 -2.32284,-8.38639 -3.30587,-7.3311 -3.45973,-7.36901 -22.79594,-5.61695 -16.8363,1.52553 -19.46759,1.1796 -19.46759,-2.55939 0,-5.01233 10.30279,-9.56079 21.65629,-9.56079 9.10009,0 10.04764,-4.13196 3.74323,-16.32332 -4.69019,-9.06983 -3.32488,-13.21371 4.35357,-13.21371 3.22917,0 6.4341,2.8591 8.2774,7.38425 1.65437,4.06135 5.25346,12.50652 7.99799,18.76703 2.74453,6.26054 4.99004,12.60429 4.99004,14.09722 0,1.49297 1.82257,2.71446 4.05014,2.71446 2.41732,0 8.54821,-9.20157 15.20744,-22.82408 7.97135,-16.30667 12.56549,-22.82407 16.08875,-22.82407 5.8831,0 6.5033,7.27489 1.26536,14.84233 -2.01636,2.91311 -4.56422,8.17218 -5.66195,11.68684 -1.95138,6.24778 -1.7237,6.34947 10.21007,4.55988 10.55873,-1.58338 12.59746,-1.09886 15.10698,3.59025 2.56481,4.79236 1.88414,5.69415 -5.87269,7.78046 -4.85226,1.30508 -11.55223,1.34485 -14.9902,0.0889 -3.41905,-1.24901 -7.25983,-2.27092 -8.53505,-2.27092 -4.17839,0 -10.75774,8.32851 -10.75774,13.61773 0,4.62145 2.02219,5.17857 18.7963,5.17857 17.00616,0 18.79629,0.51147 18.79629,5.37037 0,4.85393 -1.79013,5.37037 -18.61534,5.37037 -16.22918,0 -18.83287,0.68531 -20.31222,5.34634 -2.77315,8.7374 0.74114,10.76477 18.65987,10.76477 12.4762,0 17.41098,1.05029 18.52055,3.9418 2.2522,5.86914 -1.97748,7.24597 -20.00041,6.51042 -16.89216,-0.68939 -21.08615,1.62814 -21.1743,11.70056 -0.0346,3.95775 2.50055,4.69907 16.07,4.69907 14.32098,0 16.11111,0.59671 16.11111,5.37037 0,5.03551 -1.79999,5.37223 -28.86574,5.39994 -15.87616,0.0161 -33.09491,0.66421 -38.26389,1.43993 -5.16898,0.77572 -11.17566,0.22394 -13.34816,-1.22614 z"
       id="path3065"
       inkscape:connector-curvature="0" />
  </g>
</svg>
