<?xml version="1.0" encoding="UTF-8" standalone="no"?>
<!-- Created with Inkscape (http://www.inkscape.org/) -->

<svg
   xmlns:dc="http://purl.org/dc/elements/1.1/"
   xmlns:cc="http://creativecommons.org/ns#"
   xmlns:rdf="http://www.w3.org/1999/02/22-rdf-syntax-ns#"
   xmlns:svg="http://www.w3.org/2000/svg"
   xmlns="http://www.w3.org/2000/svg"
   xmlns:sodipodi="http://sodipodi.sourceforge.net/DTD/sodipodi-0.dtd"
   xmlns:inkscape="http://www.inkscape.org/namespaces/inkscape"
   width="300"
   height="300"
   id="svg2"
   version="1.1"
   inkscape:version="0.92.4 (5da689c313, 2019-01-14)"
   sodipodi:docname="image-bigseal.svg">
  <defs
     id="defs4" />
  <sodipodi:namedview
     id="base"
     pagecolor="#ffffff"
     bordercolor="#666666"
     borderopacity="1.0"
     inkscape:pageopacity="0.0"
     inkscape:pageshadow="2"
     inkscape:zoom="2.0000001"
     inkscape:cx="291.2043"
     inkscape:cy="219.43059"
     inkscape:document-units="px"
     inkscape:current-layer="layer1"
     showgrid="false"
     inkscape:window-width="1872"
     inkscape:window-height="1016"
     inkscape:window-x="48"
     inkscape:window-y="27"
     inkscape:window-maximized="1" />
  <metadata
     id="metadata7">
    <rdf:RDF>
      <cc:Work
         rdf:about="">
        <dc:format>image/svg+xml</dc:format>
        <dc:type
           rdf:resource="http://purl.org/dc/dcmitype/StillImage" />
        <dc:title />
      </cc:Work>
    </rdf:RDF>
  </metadata>
  <g
     inkscape:label="Calque 1"
     inkscape:groupmode="layer"
     id="layer1"
     transform="translate(0,-752.36218)">
    <path
       style="fill:#000000;stroke-width:6.46267748"
       d="m 249.22735,1035.574 c -15.2439,-18.0609 -27.79455,-107.85329 -25.65438,-183.54131 2.04318,-72.25758 1.79742,-73.73729 -12.58012,-75.74513 -6.64624,-0.92814 -14.28707,-0.68226 -14.28707,-0.68226 0,0 -0.37698,17.89164 -0.37698,36.09689 0,70.84958 -22.88575,226.17591 -33.32472,226.17591 -7.89962,0 -7.27616,-13.4271 3.57079,-76.90158 5.11971,-29.95955 11.29226,-84.03094 13.71688,-120.15864 2.71367,-40.43474 2.51528,-65.97644 2.51528,-65.97644 0,0 -6.93586,0.28972 -11.84461,0.28972 -7.55577,0 -13.73773,-2.88381 -13.73773,-6.40846 0,-9.46959 68.81255,-7.92772 76.95924,1.72445 4.18382,4.95701 6.52719,43.12055 6.00092,97.72903 -0.67546,70.08293 1.74977,98.35731 11.13561,129.82363 12.23712,41.02519 11.53023,53.71499 -2.09311,37.57419 z M 50.057924,953.14212 c -7.63932,-10.72443 -10.12361,-30.90865 -10.05661,-81.70788 0.10689,-81.09164 2.77105,-92.6072 23.58083,-101.93035 19.90568,-8.91815 78.409666,-9.46306 83.866516,-0.78119 2.39708,3.8138 -5.36345,6.40846 -19.1674,6.40846 -12.20273,0 -22.73047,0.18554 -22.73047,0.18554 0,0 -0.46492,13.82938 -0.46492,25.4483 0,11.81493 -0.71343,26.11013 -0.71343,26.11013 0,0 8.51018,-0.47629 12.44466,-0.47629 17.38081,0 27.37288,12.86621 27.37288,35.24654 0,22.38033 -9.99207,35.24654 -27.37288,35.24654 -4.21267,0 -12.78043,0.20882 -12.78043,0.20882 0,0 1.0492,15.48724 1.0492,28.62925 0,15.5956 -0.28667,28.04574 -0.28667,28.04574 0,0 12.88144,0.79233 23.48206,0.79233 13.80395,0 21.56448,2.59466 19.1674,6.40846 -2.21537,3.52466 -22.75181,6.40847 -45.63652,6.40847 -35.608986,0 -43.071546,-2.05372 -51.754216,-14.24287 z m 41.99325,-27.83778 c 0,-14.53696 1.264462,-27.24146 1.264462,-27.24146 0,0 -10.853884,-0.93733 -19.187192,0.006 -6.849539,0.77496 -20.940613,1.49708 -20.940613,1.49708 0,0 0.77423,9.73946 0.979333,14.61911 0.634015,15.08401 7.584572,40.38349 25.07858,40.38349 4.994554,0 14.005049,-0.37114 14.005049,-0.37114 0,0 -1.199619,-15.4897 -1.199619,-28.89258 z M 120.8462,880.18512 c 5.67003,-2.1394 10.30908,-10.45451 10.30908,-18.47796 0,-16.30813 -14.29027,-22.26255 -53.768146,-22.40392 -12.187219,-0.0437 -23.371593,-0.69211 -23.371593,-0.69211 0,0 -1.068477,12.557 -1.068477,23.03425 0,10.96692 -0.466099,21.43639 -0.466099,21.43639 0,0 14.776729,0.99322 29.261119,0.99322 15.8373,0 33.434156,-1.75047 39.104116,-3.88987 z m -30.030976,-77.818 c -1.007769,-11.97321 -1.530353,-24.67702 -1.530353,-24.67702 0,0 -9.170437,2.11753 -13.527077,2.85665 -16.46512,2.79332 -15.41335,1.47248 -20.29881,25.4919 -2.020914,9.93572 -2.478783,19.64272 -2.478783,19.64272 0,0 9.38054,0.71747 19.097693,0.71747 8.767736,0 20.573146,-0.30669 20.573146,-0.30669 0,0 -0.740975,-10.71783 -1.835816,-23.72503 z"
       id="path27"
       inkscape:connector-curvature="0"
       sodipodi:nodetypes="csccsssscsscsscssccscscssscscscssscscsscscsccscsccccccscc" />
  </g>
</svg>
