<?xml version="1.0" encoding="UTF-8" standalone="no"?>
<!-- Created with Inkscape (http://www.inkscape.org/) -->

<svg
   xmlns:dc="http://purl.org/dc/elements/1.1/"
   xmlns:cc="http://creativecommons.org/ns#"
   xmlns:rdf="http://www.w3.org/1999/02/22-rdf-syntax-ns#"
   xmlns:svg="http://www.w3.org/2000/svg"
   xmlns="http://www.w3.org/2000/svg"
   xmlns:sodipodi="http://sodipodi.sourceforge.net/DTD/sodipodi-0.dtd"
   xmlns:inkscape="http://www.inkscape.org/namespaces/inkscape"
   width="300"
   height="300"
   id="svg2"
   version="1.1"
   inkscape:version="0.92.4 (5da689c313, 2019-01-14)"
   sodipodi:docname="image-bigseal.svg">
  <defs
     id="defs4" />
  <sodipodi:namedview
     id="base"
     pagecolor="#ffffff"
     bordercolor="#666666"
     borderopacity="1.0"
     inkscape:pageopacity="0.0"
     inkscape:pageshadow="2"
     inkscape:zoom="2.8284273"
     inkscape:cx="192.95219"
     inkscape:cy="140.24223"
     inkscape:document-units="px"
     inkscape:current-layer="layer1"
     showgrid="false"
     inkscape:window-width="1872"
     inkscape:window-height="1016"
     inkscape:window-x="48"
     inkscape:window-y="27"
     inkscape:window-maximized="1" />
  <metadata
     id="metadata7">
    <rdf:RDF>
      <cc:Work
         rdf:about="">
        <dc:format>image/svg+xml</dc:format>
        <dc:type
           rdf:resource="http://purl.org/dc/dcmitype/StillImage" />
        <dc:title />
      </cc:Work>
    </rdf:RDF>
  </metadata>
  <g
     inkscape:label="Calque 1"
     inkscape:groupmode="layer"
     id="layer1"
     transform="translate(0,-752.36218)">
    <path
       style="fill:#000000;stroke-width:6.07735348"
       d="M 88.192064,995.74481 C 88.161744,980.69024 87.637532,950.8095 87.637532,950.8095 l -10.241668,-0.65938 c 0,0 -1.24444,23.11308 -1.2962,30.55682 -0.0491,7.44375 -2.8571,13.53408 -6.23422,13.53408 -3.58176,0 -6.1402,-20.05047 -6.1402,-48.12117 0,-28.07069 2.55844,-48.12116 6.1402,-48.12116 3.37712,0 6.14022,6.60728 6.14022,14.68285 0,4.06469 1.380753,22.18897 1.380753,22.18897 L 88.145864,933.832 c 0,0 0.1402,-14.71787 0.1402,-41.49344 0,-24.29728 -0.1402,-42.46103 -0.1402,-42.46103 l -11.758692,-0.41084 c 0,0 -0.381508,14.56709 -0.381508,18.45627 0,9.92499 -2.36233,18.04544 -5.24964,18.04544 -6.11521,0 -14.35045,-83.49129 -9.06208,-91.87376 5.33958,-8.46361 14.11031,8.32262 14.2177,27.21095 0.0491,9.09791 1.0796,16.54165 1.0796,16.54165 l 9.930591,-0.43823 c 0,0 0.840759,-18.01796 -0.978871,-33.18499 -3.09786,-25.82061 -2.22533,-33.04047 3.75977,-31.11201 4.28647,1.38114 8.64326,13.80481 9.68175,27.60807 l 1.888106,25.09687 h 33.41807 l 35.91807,0.75 -2.5,-34.18831 c -1.51405,-20.70516 2.32799,-32.02879 6.1402,-29.72071 3.37712,2.04467 6.14021,10.52331 6.14021,18.84147 0,6.21276 2.28179,15.95073 2.28179,15.95073 0,0 4.90989,-2.18357 8.34524,-2.8317 6.23361,-1.17601 10.67598,-7.54335 10.74537,-15.40142 0.18666,-21.16133 12.18874,-18.69139 14.3195,2.94689 1.57804,16.02501 -0.8875,20.75952 -13.81545,26.52992 -5.70022,2.5443 -16.66862,2.73924 -16.66862,2.73924 l 0.64213,14.75706 c 0,0 8.78931,-0.37317 15.64088,-0.37317 8.44278,0 15.35051,2.70682 15.35051,6.01514 0,3.30833 -6.90773,6.01515 -15.35051,6.01515 -6.06771,0 -15.4237,0.51933 -15.4237,0.51933 0,0 0.2941,20.92442 5.40718,44.26673 l 3.8811,17.71786 7.54122,-16.21407 c 4.14765,-8.91775 10.36356,-16.21413 13.81307,-16.21413 8.62705,0 8.0277,3.12271 -5.63407,29.35662 -6.28593,12.07046 -11.57659,24.5368 -11.57659,24.5368 0,0 5.34398,9.06624 8.91438,15.82579 5.08404,9.6252 15.05775,23.58009 22.16381,31.01078 7.10606,7.43069 10.79761,15.55114 8.20343,18.04544 -2.5941,2.4943 -12.67909,-4.76935 -22.41101,-16.1414 -9.73192,-11.372 -19.45315,-18.95343 -21.60284,-16.84753 -2.14962,2.10585 -0.89665,20.57884 2.78441,41.05108 7.04815,39.19806 3.62763,56.92946 -7.30114,37.84766 -3.55917,-6.2145 -7.11012,-37.01377 -7.89103,-68.44291 -0.32473,-13.0692 4.21911,-38.25861 4.21911,-38.25861 0,0 -8.62434,-42.35976 -10.03763,-53.47235 l -4.39871,-34.58709 h -35.98216 -35.98222 v 102.25747 c 0,64.16159 -2.287526,102.25749 -6.140196,102.25749 -3.55721,0 -6.17975,-19.6107 -6.23421,-46.61739 z m 37.522046,-15.84896 c -8.75427,-10.33347 -15.96196,-81.02941 -10.45327,-102.53067 4.593,-17.9273 29.95137,-30.53925 44.91241,-22.33718 6.56824,3.60091 7.36794,6.51344 2.5838,9.40997 -2.28999,1.38647 -8.3425,2.17846 -8.3425,2.17846 l 1.87941,30.97218 c 0,0 7.10583,1.96927 8.74467,2.58534 5.06566,1.90428 9.2103,10.39928 9.2103,18.87775 0,8.47847 -4.14464,16.97348 -9.2103,18.87775 -2.33209,0.87668 -8.50935,0.77538 -8.50935,0.77538 l 0.4835,37.34148 c 0,0 5.15585,0.14927 8.02585,0.14927 5.06566,0 9.2103,2.70682 9.2103,6.01514 0,9.12318 -40.48034,7.19244 -48.53482,-2.31487 z m 22.16482,-4.60065 -3.15031,-35.46639 c 0,0 -5.59791,0.2759 -7.32092,0.2759 -3.3771,0 -6.1402,6.76703 -6.1402,15.03787 0,8.27082 2.44149,11.08376 6.1402,15.03786 2.65365,2.83688 10.47123,5.11476 10.47123,5.11476 z m 14.0896,-56.2435 c 0,-5.61412 -5.79906,-9.02272 -15.35052,-9.02272 -5.30338,0 -15.44802,-0.58892 -15.44802,-0.58892 0,0 0.0975,7.11472 0.0975,9.61164 0,2.93173 0.56364,9.64796 0.56364,9.64796 0,0 10.22324,-0.62524 14.78687,-0.62524 9.55146,0 15.35052,-3.4086 15.35052,-9.02272 z M 143.5479,882.96083 c 0,-4.77734 -0.35145,-16.31257 -0.35145,-16.31257 0,0 -4.3623,1.2747 -5.78875,1.2747 -3.3771,0 -6.1402,6.76705 -6.1402,15.03787 0,6.10754 -0.14594,15.51097 -0.14594,15.51097 0,0 5.40284,-0.47311 6.28614,-0.47311 1.78823,0 8.02912,-0.66065 8.02912,-0.66065 0,0 -1.88892,-10.48588 -1.88892,-14.37721 z"
       id="path251"
       inkscape:connector-curvature="0"
       sodipodi:nodetypes="ccccssssccsccssccccccccccscsccccsccsssccccsccsscccccscccccssccccsccccscccsscccssacsscscssscsscscs" />
  </g>
</svg>
