<?xml version="1.0" encoding="UTF-8" standalone="no"?>
<!-- Created with Inkscape (http://www.inkscape.org/) -->

<svg
   xmlns:dc="http://purl.org/dc/elements/1.1/"
   xmlns:cc="http://creativecommons.org/ns#"
   xmlns:rdf="http://www.w3.org/1999/02/22-rdf-syntax-ns#"
   xmlns:svg="http://www.w3.org/2000/svg"
   xmlns="http://www.w3.org/2000/svg"
   xmlns:sodipodi="http://sodipodi.sourceforge.net/DTD/sodipodi-0.dtd"
   xmlns:inkscape="http://www.inkscape.org/namespaces/inkscape"
   width="300"
   height="300"
   id="svg2"
   version="1.1"
   inkscape:version="0.48.4 r9939"
   sodipodi:docname="image-seal.svg">
  <defs
     id="defs4" />
  <sodipodi:namedview
     id="base"
     pagecolor="#ffffff"
     bordercolor="#666666"
     borderopacity="1.0"
     inkscape:pageopacity="0.0"
     inkscape:pageshadow="2"
     inkscape:zoom="2.0018437"
     inkscape:cx="145.03351"
     inkscape:cy="130.6666"
     inkscape:document-units="px"
     inkscape:current-layer="layer1"
     showgrid="false"
     inkscape:window-width="1215"
     inkscape:window-height="1000"
     inkscape:window-x="65"
     inkscape:window-y="24"
     inkscape:window-maximized="1"
     fit-margin-top="10"
     fit-margin-left="10"
     fit-margin-right="10"
     fit-margin-bottom="10" />
  <metadata
     id="metadata7">
    <rdf:RDF>
      <cc:Work
         rdf:about="">
        <dc:format>image/svg+xml</dc:format>
        <dc:type
           rdf:resource="http://purl.org/dc/dcmitype/StillImage" />
        <dc:title />
      </cc:Work>
    </rdf:RDF>
  </metadata>
  <g
     inkscape:label="Calque 1"
     inkscape:groupmode="layer"
     id="layer1"
     transform="translate(0,-752.36218)">
    <path
       style="fill:#000000"
       d="m 124.32633,1043.6879 c -24.03197,-5.1557 -38.647176,-14.2223 -38.647176,-23.975 0,-2.6731 -1.24223,-5.628 -2.76051,-6.5664 -1.70379,-1.053 -2.76051,-24.74776 -2.76051,-61.89796 l 0,-60.19192 7.14514,-7.14514 c 11.76741,-11.76743 44.115226,-13.57295 41.987336,-2.34354 -0.53606,2.82897 -4.04462,4.90317 -9.12865,5.39675 -15.32441,1.48772 -22.730586,5.99936 -24.517796,14.9355 -4.41646,22.08216 -0.35933,27.14591 14.088876,17.58454 11.57856,-7.66232 20.11431,-7.25125 20.11431,0.96872 0,2.64369 -4.12324,6.68064 -9.38745,9.19096 -12.57706,5.99758 -23.900296,21.43916 -25.731226,35.08981 -0.82222,6.12997 -0.3997,11.14248 0.93893,11.13892 1.33863,-0.003 6.781666,-3.72733 12.095646,-8.27505 10.12645,-8.66624 17.63846,-10.48089 20.98329,-5.06888 1.86299,3.0144 -0.0461,5.09704 -18.56414,20.2517 -7.23414,5.92022 -13.461196,17.88909 -13.461196,25.87359 0,7.232 10.805056,15.7475 24.076496,18.9748 8.43348,2.0507 12.35716,1.9669 14.19784,-0.3034 1.399,-1.7255 3.36551,-33.57196 4.37,-70.76986 1.78812,-66.21627 4.50701,-91.28484 10.80785,-99.64958 1.72607,-2.29147 10.28114,-9.52829 19.01126,-16.08181 12.81118,-9.6171 15.87295,-13.43022 15.87295,-19.76824 0,-8.81896 -5.72006,-13.07481 -18.9255,-14.08102 -7.18484,-0.54746 -10.64715,1.74224 -22.40967,14.8202 -17.48978,19.44574 -34.05837,27.67132 -53.470176,26.54566 -12.21535,-0.70834 -14.35643,-1.67911 -15.09159,-6.84248 -0.75157,-5.27884 0.7724,-6.22865 12.42231,-7.74213 23.122656,-3.00388 26.191016,-4.23924 37.106856,-14.93942 12.73493,-12.48337 13.24386,-17.96677 2.85048,-30.7136 -10.18538,-12.49173 -15.04606,-26.21225 -10.59479,-29.90648 3.43518,-2.85097 12.89879,2.14116 12.9052,6.80762 0.002,1.35091 2.86193,5.77982 6.35569,9.84202 4.76097,5.53558 12.15901,8.83105 29.53105,13.1547 25.01728,6.22645 35.88321,11.72864 35.88321,18.17027 0,2.24242 1.24223,4.07714 2.76051,4.07714 3.60247,0 3.56857,18.17668 -0.0464,24.93148 -1.54385,2.88471 -11.219,10.15781 -21.50034,16.16242 -10.28133,6.00461 -20.10152,13.81114 -21.82267,17.3478 -2.91386,5.98758 -5.55609,46.32087 -7.56447,115.47057 -1.27414,43.87044 4.90278,53.48764 28.02985,43.64134 20.26956,-8.6297 26.10026,-24.6211 13.89924,-38.12031 -6.69905,-7.41178 -16.66331,-13.80256 -21.52049,-13.80256 -4.84635,0 -11.39992,-7.97126 -9.32017,-11.33635 2.24277,-3.62892 23.20072,-1.53758 25.75069,2.56957 0.91988,1.48167 4.157,3.12865 7.19356,3.65997 4.9342,0.86335 5.43515,-0.3451 4.71297,-11.3692 -0.95348,-14.5556 -4.71758,-19.33375 -22.12137,-28.08104 -13.74508,-6.9084 -17.58261,-10.39631 -15.37268,-13.97203 1.96579,-3.18071 22.47761,-2.71325 24.49955,0.55832 0.93835,1.51828 4.62015,2.76051 8.18177,2.76051 6.00414,0 6.37076,-0.8543 5.03473,-11.73218 -1.49573,-12.17808 -6.67315,-18.63345 -14.94467,-18.63345 -9.56862,0 -18.92756,-5.19485 -17.24735,-9.57343 1.99641,-5.20255 31.3059,-5.94996 40.49401,-1.03263 12.88218,6.89433 13.02943,7.61565 12.69367,62.18118 -0.41245,67.03063 -4.92006,87.43803 -21.14647,95.73653 -7.02873,3.5947 -48.5115,10.4775 -58.36294,9.6836 -2.41559,-0.1946 -11.22424,-1.8197 -19.57479,-3.6111 z"
       id="path3002"
       inkscape:connector-curvature="0" />
  </g>
</svg>
