<?xml version="1.0" encoding="UTF-8" standalone="no"?>
<!-- Created with Inkscape (http://www.inkscape.org/) -->

<svg
   xmlns:dc="http://purl.org/dc/elements/1.1/"
   xmlns:cc="http://creativecommons.org/ns#"
   xmlns:rdf="http://www.w3.org/1999/02/22-rdf-syntax-ns#"
   xmlns:svg="http://www.w3.org/2000/svg"
   xmlns="http://www.w3.org/2000/svg"
   xmlns:sodipodi="http://sodipodi.sourceforge.net/DTD/sodipodi-0.dtd"
   xmlns:inkscape="http://www.inkscape.org/namespaces/inkscape"
   width="300"
   height="300"
   id="svg2"
   version="1.1"
   inkscape:version="0.48.2 r9819"
   sodipodi:docname="Nouveau document 1">
  <defs
     id="defs4" />
  <sodipodi:namedview
     id="base"
     pagecolor="#ffffff"
     bordercolor="#666666"
     borderopacity="1.0"
     inkscape:pageopacity="0.0"
     inkscape:pageshadow="2"
     inkscape:zoom="1.4"
     inkscape:cx="222.45207"
     inkscape:cy="188.74985"
     inkscape:document-units="px"
     inkscape:current-layer="layer1"
     showgrid="false"
     inkscape:window-width="1280"
     inkscape:window-height="999"
     inkscape:window-x="0"
     inkscape:window-y="24"
     inkscape:window-maximized="1" />
  <metadata
     id="metadata7">
    <rdf:RDF>
      <cc:Work
         rdf:about="">
        <dc:format>image/svg+xml</dc:format>
        <dc:type
           rdf:resource="http://purl.org/dc/dcmitype/StillImage" />
        <dc:title></dc:title>
      </cc:Work>
    </rdf:RDF>
  </metadata>
  <g
     inkscape:label="Calque 1"
     inkscape:groupmode="layer"
     id="layer1"
     transform="translate(0,-752.36218)">
    <path
       style="fill:#000000"
       d="m 62.000045,1014.2993 c -0.35031,-11.1132 1.113024,-26.42525 3.251866,-34.02681 3.500814,-12.44204 3.20506,-14.6722 -2.964044,-22.35213 -10.510576,-13.0846 -12.881383,-29.04179 -5.487147,-36.93248 12.862688,-13.72629 18.43828,-15.84172 49.87915,-18.92463 8.94375,-0.87696 14.25813,-0.11744 18.13217,2.59132 9.83169,6.87452 4.10275,9.70577 -20.45313,10.10798 -28.728174,0.47052 -36.041838,4.52726 -36.924913,20.48138 -0.800287,14.45876 3.05871,16.37532 14.672344,7.28695 5.294924,-4.14357 12.439493,-8.54099 15.876855,-9.77204 9.187154,-3.29021 27.521384,-5.36268 33.425994,-3.77838 9.81736,2.63413 5.20693,7.57958 -8.58502,9.20883 -14.55075,1.71891 -33.898747,11.28678 -33.898747,16.76339 0,5.08812 11.526717,8.19705 30.391477,8.19705 9.47762,0 17.23201,0.44764 17.23201,0.99471 0,0.54711 0.90454,2.64291 2.01009,4.65735 1.69363,3.08604 -2.45643,3.77192 -26.36301,4.35693 l -28.373086,0.69432 -1.794186,27.35286 c -1.911507,29.141 -3.566285,33.2992 -13.251642,33.2992 -5.387206,0 -6.218203,-2.4777 -6.777031,-20.2058 z m 163.222795,15.7497 c -1.99757,-2.6099 -3.65541,-15.2513 -3.68405,-28.0921 -0.0272,-12.84077 -1.21035,-24.62059 -2.626,-26.17739 -1.63065,-1.79328 -10.60713,-2.66489 -24.49575,-2.37851 -17.9464,0.37007 -22.12969,-0.25779 -23.06766,-3.46215 -0.92369,-3.15543 2.84675,-4.23814 19.45144,-5.58567 11.32847,-0.91934 21.42993,-2.6136 22.44768,-3.76504 1.01774,-1.15144 -1.569,-5.32744 -5.74833,-9.28002 -5.26825,-4.98239 -10.48339,-7.18648 -17.00408,-7.18648 -9.69982,0 -26.73375,-4.42527 -26.73375,-6.94519 0,-0.7835 2.86143,-2.67407 6.35873,-4.20123 6.68102,-2.91738 34.46141,0.31651 34.46141,4.01165 0,0.99033 4.73363,3.17159 10.51921,4.84726 12.21526,3.53784 16.55349,0.89329 16.64213,-10.14485 0.0636,-7.93409 -9.68532,-12.86918 -29.87337,-15.12227 -10.91622,-1.21832 -14.353,-2.60394 -13.57194,-5.47186 1.18933,-4.36702 14.60786,-6.47447 20.7233,-3.25473 2.23568,1.17705 9.28521,2.35962 15.6656,2.62792 6.38043,0.26829 13.60284,2.3308 16.0498,4.58337 5.50658,5.06906 5.99989,26.43741 0.81859,35.45599 -2.22787,3.87783 -4.01735,22.62423 -4.2521,44.54409 -0.28676,26.78361 -1.58104,38.12521 -4.42709,38.79531 -2.21197,0.5209 -5.65616,-1.1883 -7.65377,-3.7981 z M 137.24987,905.60417 c -3.96698,-2.77378 -1.9588,-25.91964 3.05545,-35.21639 3.38446,-6.27505 16.69376,-11.86791 28.38728,-11.92897 11.77735,-0.0614 14.65632,-3.01262 16.69636,-17.11484 2.539,-17.55125 -1.40207,-20.65126 -24.29839,-19.11293 -9.21047,0.6188 -19.76164,-0.003 -23.4471,-1.3824 -13.94355,-5.2178 -20.41894,-39.58177 -8.44395,-44.81089 6.97065,-3.04387 10.65739,-1.8714 16.21213,5.15585 3.20189,4.0507 7.87382,4.85959 31.46552,5.44784 24.25295,0.60474 27.70531,1.23495 27.70531,5.05741 0,3.64697 -2.66276,4.33907 -16.15797,4.19979 -33.02388,-0.34088 -44.3217,0.71398 -46.30239,4.32305 -3.51879,6.41176 1.53437,10.70188 12.64955,10.73941 17.23218,0.0582 39.23305,5.66888 45.06737,11.49314 3.85009,3.84342 4.90383,8.61121 3.65929,16.55698 -3.53486,22.56844 -9.56274,28.78815 -28.03038,28.92242 -17.92204,0.13033 -23.06664,4.76896 -24.65696,22.23209 -1.40547,15.43337 -6.03338,20.70196 -13.56112,15.43844 z m 55.91243,-14.9992 c -8.35082,-5.83904 -3.84019,-8.32464 15.10681,-8.32464 15.20874,0 17.23869,-0.6379 20.37303,-6.4022 1.91468,-3.52125 3.02484,-10.74598 2.46707,-16.05496 -0.89869,-8.55374 -2.07921,-9.73843 -10.36875,-10.40534 -6.60863,-0.5317 -9.35463,-2.10266 -9.35463,-5.35166 0,-3.52435 2.38466,-4.59903 10.20504,-4.59903 9.54857,0 10.20503,-0.58141 10.20503,-9.03835 0,-10.81485 -4.7919,-14.74677 -17.97219,-14.74677 -13.19551,0 -10.42627,-5.16639 4.62098,-8.62108 8.79636,-2.01957 11.91403,-4.20455 12.72673,-8.91942 0.7179,-4.16484 3.12825,-6.24461 7.23728,-6.24461 10.19205,0 13.35175,5.26519 12.15137,20.24832 -4.82708,60.25058 -6.37845,74.7962 -8.19069,76.79489 -1.13811,1.25519 -11.40386,3.03227 -22.81278,3.94907 -16.98135,1.36455 -21.7684,0.95029 -26.3943,-2.28422 z m -122.449397,-9.40031 -9.000908,-5.83271 0,-43.86155 c 0,-36.79391 0.822176,-44.08216 5.102518,-45.23066 8.804116,-2.36227 14.88077,0.98468 15.964032,8.79275 0.933535,6.72892 2.211741,7.53633 12.045587,7.60874 13.615418,0.10031 22.073188,4.95105 14.482918,8.30639 -2.79073,1.23366 -9.19331,2.25945 -14.227931,2.27947 -5.034618,0.019 -10.212375,1.23395 -11.506111,2.69764 -4.065237,4.59923 -4.19471,16.35039 -0.184365,16.72914 2.109752,0.19932 5.366616,0.61096 7.237554,0.91492 1.870922,0.30392 6.032461,0.67607 9.24787,0.82697 9.986093,0.46863 2.997883,6.83587 -9.268522,8.44492 -9.276103,1.21679 -11.657963,2.73179 -12.520662,7.96397 -1.046285,6.34549 3.077054,17.76579 8.587634,23.78485 1.656215,1.80905 7.88044,2.77794 15.279993,2.37851 10.7087,-0.57805 12.64014,0.0875 13.57244,4.6777 1.01264,4.98546 -0.17553,5.35165 -17.362097,5.35165 -14.868464,0 -20.196009,-1.13202 -27.450026,-5.8327 z m 37.598617,-35.41558 c -1.14433,-2.0851 -0.93985,-4.28404 0.45439,-4.88657 2.29416,-0.99137 42.00838,-2.04006 60.94936,-1.60941 8.992,0.20455 10.63416,7.29331 1.70085,7.34206 -3.27412,0.019 -18.34394,0.6878 -33.48847,1.48874 -23.31881,1.23325 -27.85417,0.87569 -29.61613,-2.33482 z"
       id="path2996"
       inkscape:connector-curvature="0" />
  </g>
</svg>
