<?xml version="1.0" encoding="UTF-8" standalone="no"?>
<!-- Created with Inkscape (http://www.inkscape.org/) -->

<svg
   xmlns:dc="http://purl.org/dc/elements/1.1/"
   xmlns:cc="http://creativecommons.org/ns#"
   xmlns:rdf="http://www.w3.org/1999/02/22-rdf-syntax-ns#"
   xmlns:svg="http://www.w3.org/2000/svg"
   xmlns="http://www.w3.org/2000/svg"
   xmlns:sodipodi="http://sodipodi.sourceforge.net/DTD/sodipodi-0.dtd"
   xmlns:inkscape="http://www.inkscape.org/namespaces/inkscape"
   width="300"
   height="300"
   viewBox="0 0 300 300"
   id="svg2"
   version="1.1"
   inkscape:version="0.91 r13725"
   sodipodi:docname="舒-seal.svg">
  <defs
     id="defs4">
    <clipPath
       clipPathUnits="userSpaceOnUse"
       id="clipPath4204">
      <rect
         style="fill:#0000ff;fill-rule:evenodd;stroke:#000000;stroke-width:1px;stroke-linecap:butt;stroke-linejoin:miter;stroke-opacity:1"
         id="rect4206"
         width="15.451179"
         height="21.584471"
         x="164.41942"
         y="794.64594" />
    </clipPath>
  </defs>
  <sodipodi:namedview
     id="base"
     pagecolor="#ffffff"
     bordercolor="#666666"
     borderopacity="1.0"
     inkscape:pageopacity="0.0"
     inkscape:pageshadow="2"
     inkscape:zoom="1.71"
     inkscape:cx="150"
     inkscape:cy="150"
     inkscape:document-units="px"
     inkscape:current-layer="layer1"
     showgrid="false"
     inkscape:window-width="1280"
     inkscape:window-height="751"
     inkscape:window-x="0"
     inkscape:window-y="1"
     inkscape:window-maximized="1"
     units="px"
     showguides="false" />
  <metadata
     id="metadata7">
    <rdf:RDF>
      <cc:Work
         rdf:about="">
        <dc:format>image/svg+xml</dc:format>
        <dc:type
           rdf:resource="http://purl.org/dc/dcmitype/StillImage" />
        <dc:title></dc:title>
      </cc:Work>
    </rdf:RDF>
  </metadata>
  <g
     inkscape:label="Layer 1"
     inkscape:groupmode="layer"
     id="layer1"
     transform="translate(0,-752.36216)">
    <path
       style="fill:#000000"
       d="m 179.05796,1032.823 c 0,-2.8432 1.73896,-8.5323 3.86436,-12.6423 6.54774,-12.662 10.77154,-33.1417 10.77154,-52.22755 0,-17.33092 -0.31062,-18.35436 -6.25709,-20.61519 -3.44139,-1.30842 -11.53968,-2.37894 -17.99621,-2.37894 -7.12028,0 -12.86109,-1.3519 -14.59071,-3.43598 -3.83922,-4.62597 -1.20929,-24.6976 6.18857,-47.23121 3.20263,-9.75503 5.82295,-20.238 5.82295,-23.29549 0,-3.05749 1.0218,-6.60189 2.27068,-7.87643 3.02976,-3.09201 -6.21416,-23.05156 -10.67591,-23.05156 -1.86164,0 -3.75314,1.10501 -4.20334,2.45557 -0.52696,1.58094 -3.65883,1.38348 -8.79276,-0.55436 -6.30391,-2.37948 -8.97835,-2.38287 -12.7679,-0.0171 -2.63652,1.64662 -7.58875,2.99378 -11.00494,2.99378 l -6.21128,0 0.68972,27.24357 c 0.71303,28.16468 2.56226,32.73803 10.16385,25.13641 3.04125,-3.04124 3.94211,-8.91924 3.94211,-25.72173 0,-19.7431 0.43178,-21.77962 4.61765,-21.77962 2.53972,0 5.05732,1.37212 5.59465,3.04915 1.73682,5.42046 0.65386,49.29866 -1.2944,52.44533 -1.03832,1.67703 -4.63948,3.04915 -8.00257,3.04915 -12.5347,0 -15.55124,3.80194 -15.55124,19.60036 0,14.54055 0.005,14.55009 7.31796,14.55009 6.20379,0 7.31795,-0.94012 7.31795,-6.17487 0,-7.09619 5.87839,-10.48802 10.84862,-6.1282 4.88775,4.28747 2.54034,40.05448 -1.26603,57.33736 -0.4028,20.19866 -33.13826,23.39336 -53.209521,15.55786 -8.06853,-5.03884 -10.03806,-13.30178 -10.03806,-42.11337 0,-21.84021 0.78349,-28.28891 3.73447,-30.73804 3.17126,-2.6319 4.17197,-1.94026 6.63539,4.58604 2.93564,7.7774 10.42967,12.32546 14.047591,8.52537 1.84715,-1.94019 3.47573,-18.74155 2.74265,-28.29448 -0.22832,-2.9746 -2.40488,-4.2688 -7.179331,-4.2688 -13.9086,0 -15.94748,-4.04473 -16.12745,-31.99363 -0.0898,-13.9317 0.72816,-28.62342 1.81748,-32.64829 l 1.98063,-7.31796 -10.62618,10.3671 c -5.84438,5.70191 -11.40788,10.3671 -12.36331,10.3671 -4.05964,0 -1.16822,-9.58522 6.46577,-21.4344 4.51164,-7.00275 10.82338,-17.91447 14.02608,-24.24829 3.20273,-6.33378 7.12335,-12.92279 8.71249,-14.64222 1.58914,-1.71943 3.59738,-5.58955 4.46275,-8.60025 3.19761,-11.12468 8.979671,-21.66544 12.658921,-23.07731 3.88986,-1.49267 9.92519,4.77681 15.7717,16.38362 3.66698,7.2799 21.56237,34.09893 25.63581,38.41926 4.78133,5.0711 8.29385,3.52537 6.92884,-3.04915 -0.69638,-3.35406 -1.76931,-8.57723 -2.38429,-11.60703 -0.615,-3.0298 -0.25969,-6.89778 0.78956,-8.5955 2.60051,-4.2077 26.4425,-7.8184 51.7389,-7.8355 19.04112,-0.0122 21.42153,0.52101 26.51956,5.94759 4.45829,4.74565 5.27771,7.60672 4.01699,14.02608 -0.87105,4.43541 -2.22878,13.55283 -3.01716,20.26095 -0.78839,6.70812 -2.9347,15.12428 -4.76958,18.70259 -2.83156,5.52201 -2.81531,8.10451 0.10733,17.07522 5.05881,15.52702 8.3674,32.70638 10.10109,52.44829 l 1.53558,17.48588 -8.19179,4.42731 c -4.50549,2.43503 -12.03374,5.57563 -16.72943,6.97906 -7.91507,2.3657 -8.65543,3.43585 -10.15339,14.67657 -0.88869,6.66866 -1.7357,19.80868 -1.88225,29.20005 -0.31748,20.34724 -10.25855,43.33604 -19.32403,44.68714 -3.94716,0.5883 -5.23009,-0.4885 -5.23009,-4.3899 z m -54.79172,-42.5732 c 5.44415,-3.56713 6.00536,-5.54742 6.00536,-21.19059 l 0,-17.25574 -18.65561,1.32929 c -10.2606,0.73111 -19.770351,2.444 -21.132811,3.80645 -5.16994,5.16994 -1.24778,32.86559 5.21878,36.85156 5.395431,3.32571 21.045261,1.3857 28.564281,-3.54097 z m 98.49939,-58.58338 c 2.492,-1.54016 2.89998,-6.07698 1.70381,-18.94723 -2.57062,-27.65913 -10.66506,-37.43214 -18.64822,-22.51544 -4.24273,7.92756 -9.71963,7.52934 -18.20114,-1.32345 l -6.98652,-7.29237 -3.44805,7.9022 c -1.89642,4.3462 -4.42592,9.77561 -5.62111,12.06535 -1.19522,2.28974 -2.81305,10.1683 -3.59519,17.50786 -1.40134,13.15002 -1.32194,13.36175 5.44316,14.51297 10.35425,1.76194 45.62027,0.39721 49.35326,-1.90989 z M 103.76224,896.78249 c 1.21559,-6.88241 1.69055,-37.40235 0.68328,-43.90772 -1.06727,-6.89314 -2.17485,-7.92778 -8.486481,-7.92778 l -7.25897,0 1.19309,17.68505 c 0.65623,9.72678 1.22827,21.8014 1.27123,26.8325 0.0693,8.11022 0.7696,9.14744 6.17642,9.14744 3.354061,0 6.243701,-0.82327 6.421431,-1.82949 z m 96.20416,-35.8057 c 4.39472,-4.39474 4.40699,-7.34907 0.0456,-10.96878 -2.72828,-2.26425 -4.24102,-1.70954 -7.31795,2.6834 -2.13333,3.04573 -3.87876,6.93998 -3.87876,8.65392 0,4.18484 6.82328,3.95935 11.15117,-0.36854 z m -11.15117,-25.78707 c 6.35476,-8.92447 10.67909,-9.20672 18.11574,-1.18244 l 5.68622,6.13555 3.95459,-8.33369 c 2.17502,-4.5835 3.95458,-11.18642 3.95458,-14.67313 8.72816,-13.3645 -23.42575,-13.51315 -36.35384,-12.07753 -11.72648,1.22566 -14.87184,2.42676 -14.87184,5.679 0,2.26852 0.82327,4.94787 1.82949,5.95409 1.00622,1.00622 1.83337,2.56128 1.83808,3.45568 0.022,4.28854 7.09722,22.36042 8.75337,22.36042 1.03551,0 4.22765,-3.29308 7.09361,-7.31795 z m -59.77595,-7.29746 c 0.8222,-1.33034 -1.85725,-7.291 -5.95435,-13.24591 -4.09708,-5.95492 -7.44924,-12.41589 -7.44924,-14.35773 0,-1.94184 -1.63356,-4.88635 -3.63011,-6.54335 -2.96975,-2.46469 -3.88962,-2.18621 -5.05671,1.53082 -2.423,7.71705 -10.391931,22.06814 -15.096521,27.18712 -1.67703,1.82473 -3.04915,4.33699 -3.04915,5.5828 0,3.05485 38.343611,2.90835 40.236081,-0.15368 z"
       id="path4174"
       inkscape:connector-curvature="0"
       sodipodi:nodetypes="cssssssssscscscsssscssssssccsssscssscsssssssssssscsssssscsssssccsscsssssssscsssssssscssssccssccsscsccsscsscsssssscc" />
  </g>
</svg>
