<?xml version="1.0" encoding="UTF-8" standalone="no"?>
<!-- Created with Inkscape (http://www.inkscape.org/) -->

<svg
   xmlns:dc="http://purl.org/dc/elements/1.1/"
   xmlns:cc="http://creativecommons.org/ns#"
   xmlns:rdf="http://www.w3.org/1999/02/22-rdf-syntax-ns#"
   xmlns:svg="http://www.w3.org/2000/svg"
   xmlns="http://www.w3.org/2000/svg"
   xmlns:sodipodi="http://sodipodi.sourceforge.net/DTD/sodipodi-0.dtd"
   xmlns:inkscape="http://www.inkscape.org/namespaces/inkscape"
   width="300"
   height="300"
   id="svg2"
   version="1.1"
   inkscape:version="0.48.4 r9939"
   sodipodi:docname="image-seal.svg">
  <defs
     id="defs4" />
  <sodipodi:namedview
     id="base"
     pagecolor="#ffffff"
     bordercolor="#666666"
     borderopacity="1.0"
     inkscape:pageopacity="0.0"
     inkscape:pageshadow="2"
     inkscape:zoom="1.979899"
     inkscape:cx="169.25456"
     inkscape:cy="173.0828"
     inkscape:document-units="px"
     inkscape:current-layer="layer1"
     showgrid="false"
     inkscape:window-width="1215"
     inkscape:window-height="1000"
     inkscape:window-x="65"
     inkscape:window-y="24"
     inkscape:window-maximized="1"
     fit-margin-top="10"
     fit-margin-left="10"
     fit-margin-right="10"
     fit-margin-bottom="10" />
  <metadata
     id="metadata7">
    <rdf:RDF>
      <cc:Work
         rdf:about="">
        <dc:format>image/svg+xml</dc:format>
        <dc:type
           rdf:resource="http://purl.org/dc/dcmitype/StillImage" />
        <dc:title />
      </cc:Work>
    </rdf:RDF>
  </metadata>
  <g
     inkscape:label="Calque 1"
     inkscape:groupmode="layer"
     id="layer1"
     transform="translate(0,-752.36218)">
    <path
       style="fill:#000000"
       d="m 107.22876,1043.1742 c -2.45118,-2.4511 -1.83222,-8.6758 3.9452,-39.6742 1.14543,-6.14568 2.27856,-24.86196 2.5181,-41.59175 l 0.43551,-30.41783 -12.11262,0 c -15.020225,0 -18.082269,2.93019 -18.034048,17.25746 0.04544,13.54097 0.864165,14.82334 13.618966,21.33481 7.349172,3.75185 10.136682,6.81939 10.718052,11.79467 0.95018,8.13167 0.22497,8.19729 -13.704461,1.24059 -11.845122,-5.91575 -15.51155,-4.33526 -15.600767,6.72503 -0.05363,6.6649 -6.876365,39.04612 -9.905583,47.01372 -4.670986,12.2856 -12.743677,5.6315 -9.757839,-8.043 1.101671,-5.0456 3.253341,-14.7605 4.781483,-21.589 5.065002,-22.63292 7.987919,-56.53738 9.093365,-105.47936 0.747261,-33.08317 2.007079,-48.93351 3.986597,-50.15693 4.823547,-2.98109 11.698346,5.53136 11.698346,14.48505 0,7.96201 0.390715,8.30595 9.435734,8.30595 5.189655,0 10.776605,1.34087 12.415435,2.9797 2.31754,2.31754 2.97765,1.076 2.97042,-5.58694 -0.01,-9.6358 -8.08046,-24.70673 -13.22969,-24.70673 -7.187149,0 -19.30556,-8.20717 -23.179276,-15.6981 -4.579881,-8.85651 -4.818506,-28.92553 -0.47139,-39.6455 3.813602,-9.40435 21.031727,-19.14902 33.834846,-19.14902 8.35792,0 11.06797,1.26685 15.23814,7.12333 l 5.07228,7.12334 -15.4563,3.17866 c -20.303316,4.1755 -23.167582,5.83234 -28.118312,16.26522 -3.540511,7.46107 -3.680209,9.71223 -0.922542,14.86501 1.787401,3.33981 4.907102,6.07236 6.932656,6.07236 2.025555,0 8.371088,3.59909 14.101178,7.99795 9.29221,7.13342 10.85385,9.88463 14.44665,25.45166 6.1153,26.49627 5.44656,122.78546 -1.12141,161.47285 -3.68713,21.7182 -7.33186,27.3479 -13.62872,21.051 z m -2.8004,-123.2099 9.31158,-1.53911 0,-16.12555 0,-16.12557 -7.75965,1.55193 c -4.26781,0.85356 -9.716398,1.55193 -12.107958,1.55193 -3.494673,0 -4.591329,2.80294 -5.586228,14.27775 -1.692248,19.51762 -1.828594,19.37901 16.142256,16.40862 z m 37.12288,122.6229 c -3.01937,-3.6382 -2.57482,-58.78684 0.68537,-85.02436 1.4649,-11.78916 3.45014,-16.58278 9.51217,-22.96856 4.21353,-4.43852 9.02471,-8.07003 10.69152,-8.07003 3.95256,0 5.65022,-5.21575 3.23287,-9.93235 -1.04993,-2.04855 -2.51416,-5.68006 -3.25384,-8.07003 -0.76767,-2.48042 -3.78311,-4.34542 -7.02595,-4.34542 -4.45212,0 -6.34899,-2.14012 -8.76872,-9.89323 -4.77183,-15.28944 -4.09452,-27.35308 1.5357,-27.35308 3.62104,0 5.22311,2.98634 7.38977,13.77486 2.44997,12.19936 7.2233,20.98837 11.39882,20.98837 0.78041,0 1.41891,-9.35813 1.41891,-20.79586 l 0,-20.79585 -7.44926,-1.48986 c -5.41738,-1.08348 -7.44926,-2.90133 -7.44926,-6.66465 0,-6.93552 -3.4513,-4.39855 -8.50538,6.25213 -4.47976,9.44041 -11.35932,11.76616 -11.35932,3.84022 0,-2.68988 2.23478,-8.86948 4.96617,-13.73251 6.8787,-18.44656 16.6975,-32.71605 24.86018,-49.04099 5.94736,-11.94985 12.25887,-21.72701 14.02559,-21.72701 1.76672,0 5.17893,3.07282 7.58268,6.8285 2.40375,3.75566 5.78167,8.30502 7.5065,10.10971 1.72485,1.80466 3.13606,4.23898 3.13606,5.40959 0,1.17059 1.58871,3.71704 3.53046,5.65882 3.50284,3.50282 29.2346,41.16543 22.71168,47.13358 -4.00695,3.66617 -25.50408,-30.1899 -30.10342,-37.20937 -2.43784,-3.72062 -6.38958,-8.8655 -8.78163,-11.43306 -4.22207,-4.53188 -4.52488,-4.38858 -10.36029,4.90243 -8.85419,6.76138 -8.90628,22.98332 -13.08925,29.0726 -6.06347,8.65683 -4.40207,9.71414 12.43171,7.91138 18.70114,-2.00271 26.14383,-0.30447 26.14383,5.9654 0,2.95355 -2.4324,4.97494 -7.113,5.91106 -7.99383,1.59877 -10.26862,8.09077 -10.26862,29.3056 0,11.20398 0.45467,12.10505 6.10805,12.10505 4.94922,0 6.59208,-1.76659 8.65937,-9.31157 1.40322,-5.12138 2.8448,-12.09363 3.20354,-15.49392 0.36769,-3.48542 2.48606,-6.53177 4.85605,-6.98331 5.0058,-0.95376 8.4525,12.85474 5.91628,23.70246 -4.24447,18.1541 -6.57654,20.68024 -24.35601,26.38275 -5.3777,1.72482 -3.08048,9.01756 2.84055,9.01756 2.31739,0 7.75259,3.65149 12.07826,8.11445 9.726,10.03468 12.85249,27.97916 12.92486,74.1826 0.0415,26.4366 -0.57431,31.6329 -3.8995,32.909 -6.58601,2.5272 -8.2051,-0.4805 -8.25118,-15.328 -0.085,-27.36321 -4.60291,-71.92179 -8.01411,-79.03904 -1.89324,-3.95012 -5.1033,-7.18204 -7.13344,-7.18204 -3.16341,0 -3.63169,7.54432 -3.2753,52.76561 0.38821,49.25637 0.11944,52.76567 -4.04135,52.76567 -7.45825,0 -9.9681,-5.8772 -9.63229,-22.5551 0.17654,-8.763 0.15892,-31.1923 -0.0393,-49.8428 -0.33827,-31.86312 -0.64151,-33.83636 -5.02352,-32.69046 -9.54674,2.49654 -14.26811,25.83083 -14.97552,74.01296 -0.40363,27.4921 -2.09416,34.0752 -7.17758,27.9501 z"
       id="path3145"
       inkscape:connector-curvature="0"
       sodipodi:nodetypes="ssscssssscsssssssscssssscssssssssscccsssscssssssssssscssssccsscsssssccssssssssssssssssssscssscc" />
  </g>
</svg>
