<?xml version="1.0" encoding="UTF-8" standalone="no"?>
<!-- Created with Inkscape (http://www.inkscape.org/) -->

<svg
   xmlns:dc="http://purl.org/dc/elements/1.1/"
   xmlns:cc="http://creativecommons.org/ns#"
   xmlns:rdf="http://www.w3.org/1999/02/22-rdf-syntax-ns#"
   xmlns:svg="http://www.w3.org/2000/svg"
   xmlns="http://www.w3.org/2000/svg"
   xmlns:sodipodi="http://sodipodi.sourceforge.net/DTD/sodipodi-0.dtd"
   xmlns:inkscape="http://www.inkscape.org/namespaces/inkscape"
   version="1.0"
   width="300"
   height="300"
   id="svg2"
   inkscape:version="0.48.3.1 r9886"
   sodipodi:docname="dessin.svg">
  <metadata
     id="metadata2990">
    <rdf:RDF>
      <cc:Work
         rdf:about="">
        <dc:format>image/svg+xml</dc:format>
        <dc:type
           rdf:resource="http://purl.org/dc/dcmitype/StillImage" />
      </cc:Work>
    </rdf:RDF>
  </metadata>
  <sodipodi:namedview
     pagecolor="#ffffff"
     bordercolor="#666666"
     borderopacity="1"
     objecttolerance="10"
     gridtolerance="10"
     guidetolerance="10"
     inkscape:pageopacity="0"
     inkscape:pageshadow="2"
     inkscape:window-width="1215"
     inkscape:window-height="1000"
     id="namedview2988"
     showgrid="false"
     inkscape:zoom="2.2250293"
     inkscape:cx="143.13491"
     inkscape:cy="147.04429"
     inkscape:window-x="65"
     inkscape:window-y="24"
     inkscape:window-maximized="1"
     inkscape:current-layer="svg2" />
  <defs
     id="defs5" />
  <path
     style="fill:#000000"
     d="M 111.73701,283.10949 C 100.402,280.60595 88.267616,273.43057 89.340309,260.15902 87.067678,243.65731 85.566478,226.82306 86.901642,210.2112 c 6.958384,-12.4187 19.417558,3.52822 15.418258,12.9119 -1.59232,8.11901 -1.68797,27.21025 11.42355,18.1785 12.57649,-5.67272 27.9455,-13.25651 28.12302,-29.13302 4.7266,-14.88824 -11.73844,-19.65697 -23.03766,-20.219 -13.57346,-0.0307 -25.027732,-8.77367 -32.143885,-19.80335 -7.554369,-11.12347 -6.296429,-25.246 -6.991618,-38.06526 -0.08303,-10.25476 0.547548,-20.74889 7.374579,-28.97901 C 91.665555,91.200265 107.12131,93.926888 116.26049,86.382247 121.27741,76.038528 113.8849,63.743487 113.2536,52.656153 108.40708,41.376998 102.22496,30.66308 96.737121,19.632845 c 8.346529,-9.268015 17.906459,9.190879 23.438689,15.060045 3.60442,13.892295 16.855,12.093693 27.93634,12.36446 11.98555,3.83003 25.21009,-3.443211 26.88606,-16.287919 1.8053,-8.226745 14.55261,-24.3904883 21.72855,-13.052858 -0.61873,16.620739 -17.41614,27.802957 -16.79889,44.851676 1.60858,8.152174 -7.42792,25.265543 5.02261,25.069299 12.03244,1.895659 27.13492,5.065424 31.86245,17.933242 3.54767,14.04247 0.73107,28.71228 0.41177,42.97636 -2.56349,13.33933 -4.95433,29.50378 -15.6981,38.45528 -10.65436,2.54436 -19.90276,8.24198 -30.69859,8.8099 -6.53912,-1.10974 -16.68383,-4.17801 -13.15457,6.60823 -0.0532,8.93089 -2.36778,21.1401 7.5957,25.83726 10.84838,7.69894 24.09199,11.93809 34.05966,20.7525 7.10246,13.12486 -16.02812,10.19584 -20.46405,2.78705 -10.92269,-3.27104 -21.84335,-19.29327 -32.78116,-12.85991 -12.31428,6.92508 -25.08799,13.18171 -36.44234,21.66906 -0.68017,15.08757 20.20599,10.76864 30.23788,12.00089 26.21143,0.67285 52.4827,-0.92507 78.64874,1.26677 13.08721,5.29744 -1.79191,16.18634 -10.32613,11.59006 -28.68716,0.14783 -57.50095,3.1389 -86.11125,0.14783 -3.50807,-0.56729 -6.98107,-1.377 -10.35348,-2.50247 z m 73.08293,-104.42161 c 9.70394,-6.2509 21.28213,-18.88754 18.08005,-30.84576 -8.65173,-7.11038 -21.2789,-3.16128 -31.71167,-4.84208 -26.30135,-0.8142 -52.71662,-1.04906 -78.901966,1.93588 -0.685339,13.69932 3.826607,29.56298 17.426176,35.49968 14.62779,6.3849 31.14697,3.90567 46.62243,3.71155 9.6577,-0.61769 19.46986,-1.72151 28.48498,-5.45927 z m 20.39771,-51.09716 c 2.87366,-10.44346 -5.14398,-22.54595 -15.15561,-25.63173 -24.10941,-8.033185 -51.04691,-8.184355 -75.22361,-0.32542 -10.41262,3.66344 -20.639083,11.62743 -23.229279,22.74298 4.059409,9.89403 18.917139,3.58351 27.741319,6.15694 27.57847,1.04848 55.3244,1.21608 82.77743,-1.83992 l 1.58737,-0.41668 1.50238,-0.68617 0,0 z M 164.10719,79.026375 c 7.60712,-14.600702 -11.91487,-20.665938 -22.95461,-18.086594 -8.38471,-1.958715 -13.37665,-0.430366 -11.35424,8.32369 0,5.310375 0,10.620753 0,15.931127 10.88143,-1.652019 25.62143,3.948098 33.81496,-4.517218 l 0.49389,-1.651005 0,0 z"
     id="path3043"
     inkscape:connector-curvature="0" />
</svg>
