<?xml version="1.0" encoding="UTF-8" standalone="no"?>
<svg
   xmlns:dc="http://purl.org/dc/elements/1.1/"
   xmlns:cc="http://creativecommons.org/ns#"
   xmlns:rdf="http://www.w3.org/1999/02/22-rdf-syntax-ns#"
   xmlns:svg="http://www.w3.org/2000/svg"
   xmlns="http://www.w3.org/2000/svg"
   version="1.1"
   id="svg51"
   width="300"
   height="300"
   viewBox="0 0 300 300">
  <metadata
     id="metadata57">
    <rdf:RDF>
      <cc:Work
         rdf:about="">
        <dc:format>image/svg+xml</dc:format>
        <dc:type
           rdf:resource="http://purl.org/dc/dcmitype/StillImage" />
        <dc:title></dc:title>
      </cc:Work>
    </rdf:RDF>
  </metadata>
  <defs
     id="defs55" />
  <path
     style="fill:#000000;stroke-width:0.69152427"
     d="m 221.30599,284.03691 c -1.40993,-0.89595 -2.90266,-9.03874 -3.97116,-21.6626 -0.98238,-11.60664 -6.5895,-50.63711 -8.0821,-56.25869 -6.42575,-19.24915 -25.40438,-21.36856 -39.08831,-22.1317 -19.40628,-0.89717 -52.93109,-5.24125 -59.69932,-7.73574 -9.9832,-3.67937 -14.380426,-11.08318 -13.68787,-23.04683 0.574847,-9.93004 5.32157,-16.13439 15.00898,-19.61792 12.12523,-2.76032 24.08184,-3.20944 36.71272,-3.89282 v -26.27792 c -7.82656,-0.077 -15.83311,-0.15066 -22.47454,-0.21189 -16.06237,-0.14809 -17.96303,-0.58488 -20.0425,-4.606158 -4.55317,-10.093718 33.49246,-6.813997 42.76037,-7.497041 1.71224,-29.085777 13.5465,-26.861601 29.70281,-28.49357 21.84699,-2.040854 22.80731,-2.295777 25.89208,-6.873291 5.51169,-11.237991 -3.26246,-14.849844 -11.23491,-17.052152 -4.39648,-1.186582 -7.18499,-1.291048 -30.38767,-1.138418 -14.05083,0.09243 -25.80048,0.421549 -26.11031,0.731382 -3.13305,25.9956 -5.31516,26.442338 -21.17114,35.057368 -10.99629,5.342801 -12.90214,5.657131 -18.56582,15.390542 -4.726466,9.60738 -7.212798,19.949408 -9.529623,30.423618 -2.756775,12.46316 -5.659919,24.12432 -6.451452,25.91369 -3.448495,6.02515 -8.733839,3.77433 -9.009513,-0.71934 3.323095,-28.99851 8.296487,-70.202415 37.284118,-80.73965 16.31609,-7.562116 14.40602,-11.774274 15.27216,-26.314674 -12.99964,-3.278505 -28.271532,-6.659598 -39.035639,-15.29428 -6.493318,-14.1654191 18.995809,-2.460581 19.881319,-2.180721 16.91497,6.401629 31.38628,7.59891 49.09821,6.78208 19.44175,0.372885 55.29575,-5.059741 62.70067,16.496747 3.06944,10.576435 -0.95517,21.092814 -10.07131,25.459078 -4.0939,1.874255 -16.92118,4.110811 -29.41712,5.129156 -14.48925,0.545245 -15.12029,6.171883 -16.45702,17.493185 0.0938,0.09377 5.82243,0.24856 12.64686,0.845142 12.55712,1.369295 41.13395,2.879198 45.69645,18.885497 4.20854,19.08345 -6.26222,23.29799 -22.56979,27.78257 -7.04877,0.99062 -10.86129,1.4482 -25.93216,1.53098 -38.74325,0.21279 -57.11406,2.29946 -61.17955,8.96772 -2.40484,6.07377 -2.24318,11.86889 2.57246,14.28835 27.32958,12.00803 52.29102,4.35221 78.99608,12.70923 14.66028,4.66791 26.69154,16.98761 29.70001,30.41205 2.53697,11.3204 6.12681,44.22754 6.68242,61.25574 0.0394,3.46308 2.65591,21.4738 -6.43931,16.19128 z m -36.49887,-155.0236 c 7.36617,-0.25345 23.18668,-1.53819 24.79811,-9.05471 3.62966,-18.70286 -34.25154,-16.48177 -48.65887,-16.54587 v 26.27792 c 7.96226,0.0224 16.12598,-0.0919 23.86076,-0.67731 z"
     id="path61" />
</svg>
