<?xml version="1.0" encoding="UTF-8" standalone="no"?>
<!-- Created with Inkscape (http://www.inkscape.org/) -->

<svg
   xmlns:dc="http://purl.org/dc/elements/1.1/"
   xmlns:cc="http://creativecommons.org/ns#"
   xmlns:rdf="http://www.w3.org/1999/02/22-rdf-syntax-ns#"
   xmlns:svg="http://www.w3.org/2000/svg"
   xmlns="http://www.w3.org/2000/svg"
   xmlns:sodipodi="http://sodipodi.sourceforge.net/DTD/sodipodi-0.dtd"
   xmlns:inkscape="http://www.inkscape.org/namespaces/inkscape"
   width="300"
   height="300"
   id="svg2"
   version="1.1"
   inkscape:version="0.48.4 r9939"
   sodipodi:docname="image-seal.svg">
  <defs
     id="defs4" />
  <sodipodi:namedview
     id="base"
     pagecolor="#ffffff"
     bordercolor="#666666"
     borderopacity="1.0"
     inkscape:pageopacity="0.0"
     inkscape:pageshadow="2"
     inkscape:zoom="1.979899"
     inkscape:cx="200.43343"
     inkscape:cy="122.13442"
     inkscape:document-units="px"
     inkscape:current-layer="layer1"
     showgrid="false"
     inkscape:window-width="1215"
     inkscape:window-height="1000"
     inkscape:window-x="65"
     inkscape:window-y="24"
     inkscape:window-maximized="1" />
  <metadata
     id="metadata7">
    <rdf:RDF>
      <cc:Work
         rdf:about="">
        <dc:format>image/svg+xml</dc:format>
        <dc:type
           rdf:resource="http://purl.org/dc/dcmitype/StillImage" />
        <dc:title />
      </cc:Work>
    </rdf:RDF>
  </metadata>
  <g
     inkscape:label="Calque 1"
     inkscape:groupmode="layer"
     id="layer1"
     transform="translate(0,-752.36218)">
    <path
       style="fill:#000000"
       d="m 141.011,1039.1378 c -3.69457,-32.764 -1.95468,-65.92581 -5.13707,-98.75828 2.16448,-12.06602 1.54829,-22.26654 -0.63139,-34.14938 1.52117,-9.31371 -5.38649,-28.80816 8.21181,-29.74249 10.35192,4.61934 6.54184,18.09066 7.83222,27.17212 1.17992,44.45046 2.53853,88.97991 0.55605,133.41923 0.41194,6.1179 -9.15483,8.6001 -10.83162,2.0588 z M 60.382108,907.62159 c -8.580954,-9.6588 12.537702,-13.83785 17.176171,-20.85687 16.979792,-12.69774 36.198741,-21.89221 53.929621,-33.40108 3.68686,2.24704 10.94934,6.19547 8.92604,-2.89243 -6.42469,-6.19747 -7.95698,-19.63892 1.40671,-24.92171 16.44599,0.90145 2.0323,23.89179 16.05035,27.34721 12.80786,10.57165 28.71801,16.41104 42.45133,25.55764 8.41277,5.26026 30.00988,7.54468 26.70084,19.8706 -9.60546,9.18337 -21.54011,-4.58163 -31.23966,-7.79688 -16.83713,-8.80559 -31.97276,-20.84405 -49.60205,-28.07858 -12.07741,1.33527 -22.13818,10.47087 -32.34562,16.68865 -8.79629,6.87419 -19.806997,10.36659 -28.549423,17.47698 -7.54436,4.24997 -15.329325,15.05665 -24.904309,11.00647 z m 113.934122,-61.1182 c -3.58659,-9.92457 3.01853,-26.38485 -12.81198,-26.87371 -11.86774,-9.93904 -11.65081,-27.74284 -8.92434,-41.70937 1.37503,-10.55032 9.75868,-5.44282 8.13198,2.96423 6.67942,7.98451 -5.48158,26.62277 8.89493,27.02233 6.01993,-8.70756 1.73562,-21.73212 3.13279,-32.11508 -1.26088,-6.02557 1.09099,-20.9231 9.41513,-12.24116 3.81002,14.75433 -1.47059,30.22328 0.77967,45.14341 13.62542,5.56655 13.56476,-17.52728 13.54357,-26.48367 -1.50134,-9.23524 9.47155,-12.46361 8.68418,-1.344 0.74314,11.0365 2.78216,23.34188 -2.78142,33.43991 -9.37997,3.51661 -20.2967,7.87273 -19.80471,20.63883 -0.7528,3.49491 -2.07496,16.54828 -8.2598,11.55828 z m -69.36016,-3.65569 c -4.49614,-9.44423 -0.16986,-22.27492 -13.634469,-24.9979 -10.734854,-7.63631 -7.931064,-22.28675 -9.381853,-33.70403 -1.267603,-5.8729 0.721214,-25.48539 7.855284,-13.96497 3.861922,11.42778 1.74212,23.94743 5.411654,35.32803 12.389414,7.72695 7.286344,-14.57896 9.159774,-21.50542 0.99759,-6.49972 -1.15544,-26.62625 9.81256,-20.14416 2.83479,14.3261 0.43863,29.19237 2.75783,43.5852 8.8535,8.96537 12.06671,-13.18635 11.29509,-19.77672 1.01767,-6.23204 -1.31755,-20.87162 5.63236,-21.54311 4.88628,12.28935 3.68761,26.21544 2.70895,39.16981 1.68053,14.40298 -15.62936,12.77317 -20.1098,21.26913 0.39075,6.03795 -1.7906,26.02434 -11.50738,16.28414 z"
       id="path3066"
       inkscape:connector-curvature="0" />
  </g>
</svg>
