<?xml version="1.0" encoding="UTF-8" standalone="no"?>
<!-- Created with Inkscape (http://www.inkscape.org/) -->

<svg
   xmlns:dc="http://purl.org/dc/elements/1.1/"
   xmlns:cc="http://creativecommons.org/ns#"
   xmlns:rdf="http://www.w3.org/1999/02/22-rdf-syntax-ns#"
   xmlns:svg="http://www.w3.org/2000/svg"
   xmlns="http://www.w3.org/2000/svg"
   xmlns:sodipodi="http://sodipodi.sourceforge.net/DTD/sodipodi-0.dtd"
   xmlns:inkscape="http://www.inkscape.org/namespaces/inkscape"
   width="300"
   height="300"
   id="svg2"
   version="1.1"
   inkscape:version="0.48.4 r9939"
   sodipodi:docname="image-seal.svg">
  <defs
     id="defs4" />
  <sodipodi:namedview
     id="base"
     pagecolor="#ffffff"
     bordercolor="#666666"
     borderopacity="1.0"
     inkscape:pageopacity="0.0"
     inkscape:pageshadow="2"
     inkscape:zoom="1.979899"
     inkscape:cx="200.43343"
     inkscape:cy="122.13442"
     inkscape:document-units="px"
     inkscape:current-layer="layer1"
     showgrid="false"
     inkscape:window-width="1215"
     inkscape:window-height="1000"
     inkscape:window-x="65"
     inkscape:window-y="24"
     inkscape:window-maximized="1" />
  <metadata
     id="metadata7">
    <rdf:RDF>
      <cc:Work
         rdf:about="">
        <dc:format>image/svg+xml</dc:format>
        <dc:type
           rdf:resource="http://purl.org/dc/dcmitype/StillImage" />
        <dc:title />
      </cc:Work>
    </rdf:RDF>
  </metadata>
  <g
     inkscape:label="Calque 1"
     inkscape:groupmode="layer"
     id="layer1"
     transform="translate(0,-752.36218)">
    <path
       style="fill:#000000"
       d="m 212.14778,1014.3053 c 0.60724,-25.82563 0.15767,-29.3448 -5.00853,-39.21415 -6.54389,-12.50108 -14.9502,-17.46321 -37.41468,-22.08532 -20.91472,-4.30325 -25.52115,-9.02552 -24.0221,-24.62624 1.45352,-15.12723 8.76324,-22.27916 25.28826,-24.74238 15.49513,-2.30971 21.38773,-6.655 24.23465,-17.871 2.03053,-7.9997 1.69777,-10.15768 -2.2137,-14.35615 -6.60895,-7.09388 -14.13111,-8.47038 -46.72546,-8.55044 -31.64041,-0.0777 -43.29768,2.87041 -45.56016,11.52218 -1.328099,5.07867 0.17878,9.06731 9.75963,25.8331 8.6527,15.14162 8.9104,26.62316 1.09733,48.89145 -10.18856,29.03881 -15.840509,43.90793 -17.210889,45.2783 -0.66401,0.66401 -3.81744,6.09685 -7.00762,12.07305 -7.903022,14.8048 -9.766901,16.9023 -15.019511,16.9023 -6.154567,0 -5.743265,-2.565 2.710266,-16.9023 3.984105,-6.75708 7.243827,-12.79287 7.243827,-13.41292 0,-0.62005 2.095048,-5.73347 4.655668,-11.36315 7.61346,-16.7387 19.490419,-53.77904 19.490419,-60.78423 0,-6.33149 -3.7841,-15.82586 -7.280929,-18.26789 -0.95083,-0.66402 -4.10773,-5.89926 -7.01534,-11.63386 -6.60351,-13.02397 -4.07154,-23.14132 7.81451,-31.22545 7.484129,-5.09025 10.491069,-5.43264 47.679519,-5.42913 32.96366,0.003 41.11847,0.71938 48.10918,4.22557 10.9702,5.50209 15.05264,13.58571 13.44926,26.6306 -2.02801,16.49927 -15.0706,27.0907 -33.3602,27.0907 -12.33076,0 -21.10383,7.23154 -21.10383,17.39562 0,5.00159 2.12138,7.21581 10.83944,11.31377 5.96168,2.80232 12.9733,5.09514 15.58134,5.09514 4.52796,0 11.04002,2.18483 24.28601,8.14812 14.30661,6.44077 16.68239,12.79269 17.87617,47.79391 1.07868,31.6264 -0.59312,40.6423 -7.53626,40.6424 -3.92178,10e-5 -4.24422,-2.5157 -3.63627,-28.3716 z M 183.2352,836.91129 c -0.71294,-12.30507 -0.93338,-12.64473 -9.51815,-14.66451 -10.00211,-2.35325 -11.76275,-6.92647 -11.69888,-30.38747 0.0437,-16.10278 2.68193,-21.96139 7.92841,-17.60721 2.4815,2.05945 3.15324,6.02228 2.30161,13.57789 -1.81745,16.12437 1.02556,27.8736 6.74469,27.8736 3.95008,0 4.80206,-1.87047 5.22434,-11.46941 1.11943,-25.44666 1.4159,-28.54048 3.13377,-32.70145 1.68903,-4.09112 2.03919,-4.10211 6.35196,-0.19897 3.23436,2.92704 4.23378,6.29957 3.42979,11.57364 -4.05789,26.61929 -4.08171,30.41043 -0.20041,31.89981 7.08959,2.72053 13.34106,-5.99389 13.34106,-18.59713 0,-14.44989 1.77507,-19.14013 7.24382,-19.14013 7.24405,0 8.22597,9.45606 3.44062,33.13404 -1.66941,8.26041 -10.58429,15.15815 -19.59087,15.15815 -7.64859,0 -7.99584,0.39849 -7.99584,9.17551 0,8.49621 -3.28703,14.97057 -7.60056,14.97057 -0.993,0 -2.13392,-5.66855 -2.53534,-12.59682 z m -74.41239,-1.28719 c -0.0449,-11.02008 -1.51975,-13.25156 -10.828759,-16.3851 -10.20722,-3.43591 -16.132258,-16.87945 -15.20576,-34.50092 0.54352,-10.33728 1.67518,-13.83981 4.65465,-14.40633 3.23741,-0.61558 4.11599,2.06948 4.94688,15.11842 0.7788,12.23082 2.22223,17.07881 6.29871,21.1553 7.806989,7.807 10.843429,2.87497 11.679749,-18.97107 0.3912,-10.21865 1.747,-19.61513 3.01291,-20.88102 5.24032,-5.24033 7.55164,1.65601 7.55164,22.53202 0,11.87392 0.89717,21.58896 1.99371,21.58896 6.0273,0 12.24101,-11.58513 12.9508,-24.14608 0.64536,-11.42046 1.42678,-13.28036 5.57967,-13.28036 4.42883,0 4.78925,1.44904 4.34709,17.47643 -0.54114,19.61569 -4.50562,26.3184 -18.35299,31.02952 -4.54031,1.54467 -8.01321,4.53133 -8.42324,7.24383 -1.81754,12.02409 -3.28963,15.48118 -6.59217,15.48118 -2.51585,0 -3.58686,-2.68424 -3.61289,-9.05478 z"
       id="path3055"
       inkscape:connector-curvature="0" />
  </g>
</svg>
