<?xml version="1.0" encoding="UTF-8" standalone="no"?>
<!-- Created with Inkscape (http://www.inkscape.org/) -->

<svg
   xmlns:dc="http://purl.org/dc/elements/1.1/"
   xmlns:cc="http://creativecommons.org/ns#"
   xmlns:rdf="http://www.w3.org/1999/02/22-rdf-syntax-ns#"
   xmlns:svg="http://www.w3.org/2000/svg"
   xmlns="http://www.w3.org/2000/svg"
   xmlns:sodipodi="http://sodipodi.sourceforge.net/DTD/sodipodi-0.dtd"
   xmlns:inkscape="http://www.inkscape.org/namespaces/inkscape"
   width="300"
   height="300"
   id="svg2"
   version="1.1"
   inkscape:version="0.48.4 r9939"
   sodipodi:docname="image-seal.svg">
  <defs
     id="defs4" />
  <sodipodi:namedview
     id="base"
     pagecolor="#ffffff"
     bordercolor="#666666"
     borderopacity="1.0"
     inkscape:pageopacity="0.0"
     inkscape:pageshadow="2"
     inkscape:zoom="1.979899"
     inkscape:cx="118.51252"
     inkscape:cy="162.88219"
     inkscape:document-units="px"
     inkscape:current-layer="layer1"
     showgrid="false"
     inkscape:window-width="1215"
     inkscape:window-height="1000"
     inkscape:window-x="65"
     inkscape:window-y="24"
     inkscape:window-maximized="1" />
  <metadata
     id="metadata7">
    <rdf:RDF>
      <cc:Work
         rdf:about="">
        <dc:format>image/svg+xml</dc:format>
        <dc:type
           rdf:resource="http://purl.org/dc/dcmitype/StillImage" />
        <dc:title />
      </cc:Work>
    </rdf:RDF>
  </metadata>
  <g
     inkscape:label="Calque 1"
     inkscape:groupmode="layer"
     id="layer1"
     transform="translate(0,-752.36218)">
    <path
       style="fill:#000000"
       d="m 205.3782,1039.3191 c -0.4835,-1.5522 -2.01529,-16.0303 -3.40398,-32.1733 -3.2008,-37.20796 -3.44857,-38.25868 -9.69285,-41.10377 -2.85715,-1.3018 -16.20271,-2.54273 -29.65681,-2.75765 -28.33578,-0.45263 -33.97596,-2.86206 -37.52138,-16.0288 -4.95595,-18.40496 3.1358,-24.25553 44.04253,-31.84404 8.69243,-1.61251 17.14468,-4.23561 18.78276,-5.82911 7.80335,-7.59088 9.85832,-35.90968 3.05276,-42.06865 -2.27089,-2.05513 -5.31888,-3.73659 -6.77333,-3.73659 -1.45443,0 -2.64444,-1.13864 -2.64444,-2.53033 0,-3.26332 -51.68303,-1.31572 -63.79681,2.40407 -16.1708,4.96562 -16.62928,6.35381 -18.521418,56.08007 -4.082173,107.2805 -4.283206,109.8813 -8.557168,110.6978 -4.750693,0.9075 -4.744765,0.9706 -4.003671,-42.47403 0.316208,-18.53588 1.52929,-33.34776 2.796397,-34.14394 1.377236,-0.86538 1.464836,-3.03618 0.227785,-5.64443 -1.105591,-2.33102 -1.786985,-9.31822 -1.514251,-15.5271 2.851825,-64.92162 3.65938,-67.91945 20.607836,-76.49902 8.58162,-4.34419 15.89112,-5.72783 37.30974,-7.06256 l 26.6372,-1.6599 -0.67279,-11.55698 c -0.58759,-10.0928 -1.46477,-11.93512 -6.9235,-14.54131 -9.30586,-4.44294 -13.32619,-12.31489 -14.63843,-28.66278 -1.11182,-13.85068 -0.90698,-14.67497 3.64669,-14.67497 3.93543,0 4.82698,1.3524 4.83725,7.33776 0.0229,13.30007 4.23392,24.27108 9.3162,24.27108 4.29143,0 4.57291,-1.25327 4.18346,-18.62664 -0.62197,-27.74608 -0.75358,-27.05919 4.54994,-23.7471 3.95725,2.47135 4.51554,5.26518 4.51554,22.59687 0,17.53921 0.45982,19.77687 4.064,19.77687 6.95419,0 9.48265,-4.93652 9.48265,-18.51375 0,-9.86112 0.79881,-13.09509 3.23452,-13.09509 4.25769,0 5.92854,5.81634 6.11325,21.28063 0.17746,14.86484 -1.65591,17.69291 -13.83651,21.34231 -8.72976,2.61549 -9.05791,3.06223 -9.05791,12.3316 0,5.28977 -1.18589,10.80369 -2.63531,12.25311 -2.00857,2.00856 -1.87431,2.86232 0.56444,3.58982 14.98487,4.47001 21.58006,7.99038 24.02633,12.82466 3.41881,6.75616 3.83031,43.59228 0.55537,49.71159 -3.3761,6.30827 -12.35965,10.06981 -31.54192,13.20706 -31.9151,5.2197 -40.63993,8.8553 -40.63993,16.93453 0,7.45449 10.46539,10.86521 38.1789,12.44272 38.65888,2.20056 39.12712,2.79323 42.9589,54.37489 1.86619,25.1216 0.69806,33.8666 -4.52379,33.8666 -1.23705,0 -2.64478,-1.27 -3.12825,-2.8222 z M 114.59592,887.35147 c -2.40852,-6.2765 3.82244,-7.69247 30.91697,-7.02576 26.40235,0.64967 31.53503,1.76981 31.53503,6.88214 0,2.12191 -7.74933,2.97238 -30.51416,3.34894 -26.5177,0.43861 -30.70062,0.018 -31.93784,-3.20532 z m -3.729,-40.83683 c -0.85371,-0.85374 -1.55222,-5.90736 -1.55222,-11.23026 0,-9.27151 -0.41869,-9.86325 -9.966901,-14.08686 -5.481781,-2.42488 -11.17673,-6.66947 -12.655432,-9.43247 -3.080977,-5.75683 -5.144423,-35.35831 -2.575449,-36.94606 4.303509,-2.65969 7.283624,3.30276 7.596626,15.19892 0.363844,13.82891 4.757191,20.64542 12.353186,19.16657 3.60018,-0.70089 4.11908,-3.21459 4.11908,-19.95344 0,-17.64629 0.3549,-19.15147 4.51555,-19.15147 4.12181,0 4.57242,1.72264 5.16788,19.75553 0.35881,10.86553 1.42561,19.75552 2.37067,19.75552 3.96585,0 7.13901,-5.94707 7.16782,-13.43376 0.0427,-11.0877 2.2243,-18.17508 5.5947,-18.17508 5.77777,0 7.86066,29.08896 2.46896,34.48066 -1.7569,1.75691 -6.28129,4.47301 -10.05418,6.03579 -6.33767,2.62514 -6.91082,3.7985 -7.53006,15.41518 -0.62051,11.64063 -3.2539,16.36756 -7.02023,12.60123 z"
       id="path3041"
       inkscape:connector-curvature="0" />
  </g>
</svg>
