<?xml version="1.0" encoding="utf-8"?>
<!-- Generator: Adobe Illustrator 22.0.1, SVG Export Plug-In . SVG Version: 6.00 Build 0)  -->
<svg version="1.1" id="Layer_1" xmlns="http://www.w3.org/2000/svg" xmlns:xlink="http://www.w3.org/1999/xlink" x="0px" y="0px"
	 viewBox="0 0 240 240" style="enable-background:new 0 0 240 240;" xml:space="preserve">
<style type="text/css">
	.st0{fill:#FFFFFF;}
	.st1{fill:none;stroke:#000000;stroke-width:3;stroke-linecap:round;stroke-linejoin:round;stroke-miterlimit:10;}
</style>
<ellipse transform="matrix(0.56 -0.8285 0.8285 0.56 -25.4388 208.3668)" class="st0" cx="183.4" cy="128.1" rx="6.5" ry="3.4"/>
<ellipse transform="matrix(0.3342 -0.9425 0.9425 0.3342 3.3538 210.1964)" class="st0" cx="150.5" cy="102.7" rx="3.4" ry="6.5"/>
<g>
	<path class="st1" d="M88.3,89.3c-1.4,29.9-3.9,55.7,1.4,86.1c4.5,26,10.3,25.4,37.6,25.7"/>
	<path class="st1" d="M128.8,63.6c0,51.6,0,103.2,0,154.8"/>
	<path class="st1" d="M171.7,90.6c3.5,18.8,4.1,36,0.4,54.8c-5.1,25.7-7.9,32.4-42.5,34.4"/>
	<path class="st1" d="M141.7,24.9c0,28,6.2,34.7,30.1,32.2c17.8-1.8,20.7-12.9,17.2-32.2"/>
	<path class="st1" d="M167.5,12c-1.3,21.5,1.6,38.6-0.1,61.2"/>
	<path class="st1" d="M58,219.5c48,0,84,0,132,0"/>
	<path class="st1" d="M71,28.1c0,28,6.2,34.7,30.1,32.2c17.8-1.8,15.9-13.4,13.2-32.2"/>
	<path class="st1" d="M96.8,15.2c-1.3,21.5,1.6,38.6-0.1,61.2"/>
	<path class="st1" d="M141.7,24.9c0,28,6.2,34.7,30.1,32.2c17.8-1.8,20.7-12.9,17.2-32.2"/>
	<path class="st1" d="M167.5,12c-1.3,21.5,1.6,38.6-0.1,61.2"/>
</g>
</svg>
