<?xml version="1.0" encoding="UTF-8" standalone="no"?>
<!-- Created with Inkscape (http://www.inkscape.org/) -->

<svg
   xmlns:dc="http://purl.org/dc/elements/1.1/"
   xmlns:cc="http://creativecommons.org/ns#"
   xmlns:rdf="http://www.w3.org/1999/02/22-rdf-syntax-ns#"
   xmlns:svg="http://www.w3.org/2000/svg"
   xmlns="http://www.w3.org/2000/svg"
   xmlns:sodipodi="http://sodipodi.sourceforge.net/DTD/sodipodi-0.dtd"
   xmlns:inkscape="http://www.inkscape.org/namespaces/inkscape"
   width="300"
   height="300"
   id="svg2"
   version="1.1"
   inkscape:version="0.48.4 r9939"
   sodipodi:docname="image-seal.svg">
  <defs
     id="defs4" />
  <sodipodi:namedview
     id="base"
     pagecolor="#ffffff"
     bordercolor="#666666"
     borderopacity="1.0"
     inkscape:pageopacity="0.0"
     inkscape:pageshadow="2"
     inkscape:zoom="2.0018437"
     inkscape:cx="232.32812"
     inkscape:cy="141.91078"
     inkscape:document-units="px"
     inkscape:current-layer="layer1"
     showgrid="false"
     inkscape:window-width="1215"
     inkscape:window-height="1000"
     inkscape:window-x="65"
     inkscape:window-y="24"
     inkscape:window-maximized="1"
     fit-margin-top="10"
     fit-margin-left="10"
     fit-margin-right="10"
     fit-margin-bottom="10" />
  <metadata
     id="metadata7">
    <rdf:RDF>
      <cc:Work
         rdf:about="">
        <dc:format>image/svg+xml</dc:format>
        <dc:type
           rdf:resource="http://purl.org/dc/dcmitype/StillImage" />
        <dc:title />
      </cc:Work>
    </rdf:RDF>
  </metadata>
  <g
     inkscape:label="Calque 1"
     inkscape:groupmode="layer"
     id="layer1"
     transform="translate(0,-752.36218)">
    <path
       style="fill:#000000"
       d="m 210.79158,1044.1685 c -1.60658,-1.6066 -2.92105,-3.7799 -2.92105,-4.8297 0,-1.0497 -3.28619,-8.6925 -7.30264,-16.984 -4.01645,-8.2915 -7.30263,-16.0549 -7.30263,-17.2521 0,-1.1972 -1.61892,-3.7956 -3.59762,-5.7743 -1.97868,-1.9787 -4.56018,-5.31766 -5.73666,-7.41992 -1.94211,-3.47033 -3.92083,-3.46127 -21.48859,0.0983 -18.35067,3.71833 -84.783892,6.01104 -87.765992,3.02894 -0.70892,-0.70892 -0.64032,-2.97929 0.15238,-5.04525 1.19513,-3.11445 7.17331,-3.80423 34.988222,-4.03704 18.45076,-0.15433 34.64221,-0.47991 35.98103,-0.72328 1.33882,-0.24342 7.6508,-1.33879 14.02666,-2.43431 6.37583,-1.09549 12.16704,-2.92156 12.86936,-4.05793 1.36009,-2.20067 -13.89,-12.70838 -22.0276,-15.17762 -4.26581,-1.29442 -34.75998,-4.58348 -41.3816,-4.46337 -1.33881,0.0243 -10.286682,0.81451 -19.884172,1.75611 -19.55733,1.91869 -25.76793,0.61658 -23.63016,-4.95433 1.21608,-3.16907 7.90539,-3.74345 43.597902,-3.74345 l 42.16138,0 16.43786,8.56799 c 9.04081,4.71239 17.32536,7.68047 18.41009,6.59574 1.08473,-1.08474 2.6659,-7.03298 3.51369,-13.21828 1.49086,-10.87699 1.27197,-11.39294 -6.67072,-15.72401 -7.11868,-3.88177 -14.10085,-4.47854 -52.43747,-4.48183 -24.32391,-0.002 -45.063392,-0.84189 -46.087732,-1.86623 -4.50838,-4.50838 5.18458,-6.24324 41.628822,-7.45081 41.30672,-1.36868 57.03964,0.52689 66.94082,8.0653 5.3706,4.08896 6.01715,6.23036 5.50351,18.22782 -0.32013,7.47699 -2.29352,16.90416 -4.38531,20.94924 -3.9857,7.70751 -2.96667,15.34753 2.81875,21.13292 4.24568,4.2457 18.47552,28.701 22.62244,38.8788 4.96358,12.1822 -1.01813,20.3515 -9.03307,12.3365 z M 126.32443,905.27299 c -11.57178,-3.04637 -15.6402,-7.66017 -15.74496,-17.85558 -0.12537,-12.19493 6.60535,-16.13234 30.98077,-18.1237 21.61351,-1.7657 24.92869,-1.4098 24.92869,2.67627 0,1.2598 -6.29853,2.39974 -13.99672,2.53319 -19.82347,0.34366 -25.73366,2.5076 -28.52475,10.44408 -4.0155,11.41796 2.40203,13.93153 34.43706,13.48804 14.96656,-0.20715 30.84984,-1.15813 35.29619,-2.11319 7.94459,-1.70643 19.03824,1.20187 19.03824,4.99106 0,6.58985 -65.09396,9.57268 -86.41452,3.95983 z M 71.554668,880.11816 c 0,-2.13356 2.19079,-4.45212 4.86842,-5.15232 2.67764,-0.70023 4.86843,-2.24077 4.86843,-3.42343 0,-1.18266 2.01258,-2.15031 4.47242,-2.15031 6.57315,0 23.148632,-19.07952 27.068972,-31.15823 5.18222,-15.96667 9.11773,-16.76232 12.04784,-2.43572 0.9038,4.4191 2.69375,8.00167 3.97767,7.96129 1.28395,-0.0404 11.75111,-0.94628 23.26041,-2.01307 20.92149,-1.93922 20.92575,-1.94104 19.93453,-8.4463 -2.3503,-15.42509 -3.12611,-16.85125 -9.90417,-18.20686 -8.88621,-1.77724 -12.06782,-8.64666 -14.02895,-30.28997 -1.35315,-14.93362 -1.02475,-17.64803 2.13522,-17.64803 4.44392,0 6.8044,6.5147 7.7387,21.35809 0.6541,10.39165 4.4409,15.97524 9.70309,14.30703 3.50429,-1.11093 5.83604,-17.98478 4.31994,-31.26158 -1.22528,-10.73001 -0.99082,-11.33696 3.88654,-10.0615 5.6572,1.47939 6.06063,3.48282 5.43764,27.00359 -0.31458,11.87707 0.44278,15.58508 3.41629,16.72615 7.14797,2.74291 13.37602,-6.12784 13.37602,-19.05175 0,-8.63834 1.06102,-12.27734 3.89698,-13.3656 5.62076,-2.15691 8.3215,3.83072 6.7822,15.03637 -2.42501,17.65341 -5.6076,22.88266 -15.55724,25.56183 -9.30492,2.50555 -12.05488,6.78244 -12.1282,18.86253 -0.0253,4.18546 1.36078,5.47698 5.87843,5.47698 10.99521,0 16.97193,12.62372 12.04969,25.45083 -1.51476,3.94744 -15.60646,11.06234 -21.90993,11.06234 -4.18297,0 -4.49087,-9.70792 -0.31128,-9.81425 5.62376,-0.14313 11.69599,-6.47917 10.12724,-10.56728 -1.29768,-3.38173 -6.22513,-3.96058 -33.71383,-3.96058 l -32.19403,0 -7.56354,9.4118 c -4.6426,5.77712 -13.671232,12.3575 -23.379042,17.03949 -18.31297,8.83219 -18.55646,8.88136 -18.55646,3.74846 z m 26.01564,-39.07447 c -0.92045,-0.92045 -1.67352,-6.22256 -1.67352,-11.78249 0,-9.0679 -0.81473,-10.46755 -7.91119,-13.59101 -4.64708,-2.04539 -9.66723,-6.99724 -12.16729,-12.00181 -4.75946,-9.52743 -5.78371,-32.85219 -1.55728,-35.46427 4.0949,-2.53078 6.95164,3.82383 6.99322,15.5559 0.0385,10.86479 4.13,17.47416 10.81734,17.47416 2.83968,0 3.88717,-2.66536 4.06577,-10.3454 0.76821,-33.03325 1.74499,-36.49229 9.004472,-31.887 4.17065,2.64577 4.4863,9.84655 1.5613,35.61938 -1.92916,16.99859 12.01227,14.41642 14.90103,-2.75986 2.42958,-14.44634 3.64871,-17.40345 7.17486,-17.40345 5.2838,0 5.77685,2.75013 3.05547,17.04258 -2.96779,15.58655 -7.09916,21.23633 -17.48314,23.90873 -6.83493,1.75903 -7.60864,2.98125 -8.71772,13.77119 -1.14364,11.12619 -4.24198,15.68467 -8.063322,11.86335 z"
       id="path3208"
       inkscape:connector-curvature="0" />
  </g>
</svg>
