<?xml version="1.0" encoding="UTF-8" standalone="no"?>
<svg
   xmlns:dc="http://purl.org/dc/elements/1.1/"
   xmlns:cc="http://creativecommons.org/ns#"
   xmlns:rdf="http://www.w3.org/1999/02/22-rdf-syntax-ns#"
   xmlns:svg="http://www.w3.org/2000/svg"
   xmlns="http://www.w3.org/2000/svg"
   viewBox="0 0 300 300"
   height="300"
   width="300"
   id="svg1776"
   version="1.1">
  <metadata
     id="metadata1782">
    <rdf:RDF>
      <cc:Work
         rdf:about="">
        <dc:format>image/svg+xml</dc:format>
        <dc:type
           rdf:resource="http://purl.org/dc/dcmitype/StillImage" />
        <dc:title></dc:title>
      </cc:Work>
    </rdf:RDF>
  </metadata>
  <defs
     id="defs1780" />
  <path
     id="path1786"
     d="m 145.12132,283.67724 c -2.74741,-5.1336 -3.97747,-17.1867 -2.81329,-27.56716 2.09887,-18.71477 2.39247,-28.8717 1.46175,-50.56798 -0.81509,-19.00061 -0.79573,-22.37213 0.17305,-30.1458 0.59993,-4.81391 1.91116,-11.32313 2.91387,-14.46491 1.5732,-4.92942 2.17349,-5.94336 4.37971,-7.39782 6.02905,-3.97463 13.15172,-5.70635 29.68747,-7.2178 9.6082,-0.87823 13.28447,-3.27909 13.28447,-8.67568 0,-5.06485 -3.35392,-7.2665 -11.0695,-7.2665 -5.69041,0 -17.9964,-1.65482 -23.15209,-3.11331 -1.91308,-0.5412 -5.21629,-2.20144 -7.34045,-3.68942 l -3.86212,-2.70542 -2.44987,3.28149 c -1.34743,1.80483 -3.82041,4.40456 -5.49549,5.77717 -5.34454,4.37944 -8.17193,5.20201 -23.12442,6.72757 -13.09446,1.33599 -14.14667,1.55788 -25.275205,5.33014 -11.447063,3.88024 -11.62678,3.9165 -12.657469,2.55441 -1.524226,-2.01431 -0.732972,-5.77569 1.621227,-7.70687 3.788813,-3.10801 12.285348,-7.02726 17.610332,-8.12323 2.928765,-0.60278 7.902945,-1.10056 11.053745,-1.10618 9.92609,-0.0177 20.58856,-3.60634 25.27453,-8.5066 4.56079,-4.76937 5.2864,-7.28329 5.7174,-19.80844 0.31922,-9.276805 0.66956,-12.156853 1.88164,-15.468553 0.81916,-2.238151 1.60991,-4.189888 1.75722,-4.337201 0.49954,-0.499539 4.25127,1.237148 5.79358,2.681867 2.83582,2.656377 3.20221,5.310411 2.2336,16.180017 l -0.88579,9.94014 1.66778,1.77618 c 2.27013,2.41769 10.17011,6.10024 16.86669,7.86232 3.03977,0.79986 9.10208,1.71265 13.47176,2.0284 4.36969,0.31575 9.04239,1.03637 10.38377,1.60139 3.57965,1.5078 6.83986,5.11242 9.21552,10.18907 4.22949,9.03821 2.95145,16.63913 -3.48242,20.71105 -5.61741,3.5552 -9.69158,4.4064 -21.64375,4.52195 -9.25821,0.0895 -11.23775,0.31056 -14.61783,1.63237 -2.15023,0.84086 -4.19495,1.90571 -4.54381,2.36632 -0.34888,0.46062 -1.45349,3.63547 -2.45468,7.05523 l -1.82037,6.21774 -0.26752,52.16547 c -0.23545,45.9126 -0.39875,52.41926 -1.36244,54.28282 -1.40557,2.71808 -2.54394,3.63547 -5.1606,4.1588 -1.74112,0.34822 -2.26701,0.14051 -2.97,-1.17304 z M 87.55851,267.36215 c -2.116418,-0.54354 -0.953538,-5.41775 3.642308,-15.26676 4.983041,-10.67879 5.861101,-13.67847 7.621718,-26.03772 2.190134,-15.37436 2.858134,-25.96745 2.750914,-43.62467 -0.095,-15.64757 -0.0175,-16.72443 1.53425,-21.31615 1.47169,-4.35483 1.80249,-4.81725 3.32466,-4.64737 2.02861,0.22641 3.91878,1.83421 5.46168,4.64574 2.41046,4.39243 1.77353,47.21441 -0.97493,65.54614 -2.44326,16.29619 -8.75842,33.09378 -14.395257,38.28961 -3.147736,2.90149 -5.056931,3.41497 -8.965343,2.41118 z m 113.32973,-1.75275 c -2.16089,-2.88671 -3.43524,-5.49117 -4.94251,-10.1013 -0.66729,-2.04096 -2.4592,-6.39338 -3.98203,-9.67203 -7.74192,-16.66846 -10.89527,-33.5008 -10.86969,-58.0216 0.0125,-11.9206 0.93407,-18.68292 3.13619,-23.01103 0.64498,-1.26768 1.25971,-2.40551 1.36607,-2.52852 0.69442,-0.8032 4.71894,2.47631 6.01457,4.9012 1.51844,2.84185 1.55573,3.39217 1.36069,20.08537 -0.19716,16.87474 -0.16411,17.34449 1.96429,27.92444 3.01556,14.98977 6.29038,26.52403 9.98938,35.18347 1.73577,4.06351 3.40136,9.18254 3.70127,11.37563 l 0.54533,3.98743 -3.11421,1.06113 c -1.71281,0.58361 -3.19844,1.06111 -3.30141,1.06111 -0.10295,0 -0.94353,-1.01038 -1.86794,-2.2453 z m -99.2358,-157.08672 c -0.42751,-1.47104 -0.99535,-6.06459 -1.26187,-10.2079 L 99.905992,90.781493 93.132593,88.362489 C 86.557561,86.014331 86.267927,85.820172 83.243205,81.73315 76.746809,72.955141 72.757926,60.408098 73.558576,51.270141 c 0.663029,-7.56725 1.492346,-9.767418 4.012851,-10.646071 1.188217,-0.414214 2.51321,-0.753116 2.94445,-0.753116 1.972862,0 5.914457,13.993728 5.922208,21.025393 0.0019,1.925072 0.320696,4.640888 0.707949,6.035146 0.932367,3.356876 5.916825,8.807047 10.173096,11.123599 l 3.42132,1.862121 0.49505,-19.191228 c 0.42105,-16.322527 0.32619,-20.092361 -0.63458,-25.219672 -1.020541,-5.446302 -1.028178,-6.377229 -0.0791,-9.640363 0.57777,-1.986557 1.45281,-4.15694 1.94449,-4.823074 1.49272,-2.022267 5.30817,0.365859 7.45389,4.665452 1.71138,3.429257 1.7274,3.636422 2.20907,28.576885 0.26686,13.817422 0.60407,25.241461 0.74936,25.386752 0.66361,0.663602 7.88997,-2.052372 9.03472,-3.395629 3.6872,-4.326571 6.37608,-12.149261 7.05183,-20.515605 0.61909,-7.664967 2.00299,-11.999664 4.50246,-14.102825 1.16801,-0.982824 2.513,-1.786952 2.98885,-1.786952 1.26571,0 3.80761,5.936097 4.55889,10.646337 1.14045,7.150293 -1.19186,18.215156 -5.61957,26.660094 -1.47943,2.821703 -3.39568,4.909519 -7.44483,8.111378 -4.57629,3.618703 -6.21327,4.485131 -10.18562,5.391097 -2.60316,0.593698 -5.12162,1.588577 -5.59659,2.210848 -0.55372,0.725452 -0.86357,3.535392 -0.86357,7.831422 0,8.15491 -0.79041,9.56386 -5.67399,10.11431 l -3.20145,0.36085 z m 84.94888,-1.81104 c -1.07749,-1.76719 -1.37178,-3.49569 -1.38214,-8.1176 -0.008,-3.22977 -0.26323,-6.266279 -0.56887,-6.747801 -0.30563,-0.481522 -4.955,-2.460753 -10.33191,-4.398297 -9.67466,-3.48621 -9.79854,-3.557617 -11.92737,-6.875109 -1.18314,-1.843769 -2.71991,-4.849101 -3.41503,-6.678514 -2.8167,-7.412965 -3.42846,-20.433309 -1.34822,-28.694697 0.71282,-2.830877 0.99549,-3.131048 3.30836,-3.513139 3.08173,-0.50911 3.62838,0.100949 5.73754,6.403035 1.04837,3.132434 1.65674,7.070777 1.94113,12.565886 0.5302,10.244967 1.6851,12.309491 9.01291,16.11166 5.83978,3.030089 5.9827,3.007071 6.9384,-1.117537 0.49811,-2.149703 1.05723,-12.611278 1.35835,-25.415675 0.51338,-21.830366 0.67705,-23.266072 3.56378,-31.261407 C 190.65416,15.743257 191.21247,15 192.47227,15 c 3.60805,0 7.38537,5.991587 6.27057,9.946392 -1.40476,4.983456 -3.92048,54.303572 -2.76993,54.303572 1.96109,0 13.20766,-3.814686 13.88829,-4.710718 1.82336,-2.400397 3.77395,-9.890353 4.64529,-17.837122 0.51377,-4.685664 1.43355,-9.341351 2.13933,-10.828672 1.09866,-2.315258 3.97679,-4.620778 5.7684,-4.620778 0.35205,0 1.34972,1.632156 2.21704,3.627014 3.11985,7.175732 2.36441,19.405727 -1.84877,29.930058 -3.24772,8.112657 -11.25745,13.638416 -21.70197,14.971776 -5.23341,0.668109 -5.43321,0.761444 -5.86806,2.741263 -0.24758,1.127285 -0.23495,4.768635 0.0281,8.091895 0.56418,7.12814 -0.0974,8.34226 -4.54596,8.34226 -2.33212,0 -2.9213,-0.32319 -4.09323,-2.2453 z"
     style="fill:#000000;stroke-width:0.69085985" />
</svg>
