<?xml version="1.0" encoding="UTF-8" standalone="no"?>
<!-- Created with Inkscape (http://www.inkscape.org/) -->

<svg
   xmlns:dc="http://purl.org/dc/elements/1.1/"
   xmlns:cc="http://creativecommons.org/ns#"
   xmlns:rdf="http://www.w3.org/1999/02/22-rdf-syntax-ns#"
   xmlns:svg="http://www.w3.org/2000/svg"
   xmlns="http://www.w3.org/2000/svg"
   xmlns:sodipodi="http://sodipodi.sourceforge.net/DTD/sodipodi-0.dtd"
   xmlns:inkscape="http://www.inkscape.org/namespaces/inkscape"
   width="300"
   height="300"
   id="svg2"
   version="1.1"
   inkscape:version="0.48.4 r9939"
   sodipodi:docname="dessin.svg">
  <defs
     id="defs4" />
  <sodipodi:namedview
     id="base"
     pagecolor="#ffffff"
     bordercolor="#666666"
     borderopacity="1.0"
     inkscape:pageopacity="0.0"
     inkscape:pageshadow="2"
     inkscape:zoom="1.979899"
     inkscape:cx="227.07871"
     inkscape:cy="107.23575"
     inkscape:document-units="px"
     inkscape:current-layer="layer1"
     showgrid="false"
     inkscape:window-width="1215"
     inkscape:window-height="1000"
     inkscape:window-x="65"
     inkscape:window-y="24"
     inkscape:window-maximized="1" />
  <metadata
     id="metadata7">
    <rdf:RDF>
      <cc:Work
         rdf:about="">
        <dc:format>image/svg+xml</dc:format>
        <dc:type
           rdf:resource="http://purl.org/dc/dcmitype/StillImage" />
        <dc:title />
      </cc:Work>
    </rdf:RDF>
  </metadata>
  <g
     inkscape:label="Calque 1"
     inkscape:groupmode="layer"
     id="layer1"
     transform="translate(0,-752.36218)">
    <path
       style="fill:#000000"
       d="m 148.34294,1025.1028 c -5.08257,-22.0568 -6.15547,-44.88313 -7.8795,-67.4164 -1.10374,-9.70974 -0.40163,-27.37228 13.70352,-24.75749 11.02925,0.90227 22.78823,-0.004 33.05787,4.63128 -0.86527,10.90898 -20.25702,3.99842 -28.76225,5.3277 -10.33805,4.61701 -7.1431,20.16115 -6.50511,29.65001 1.41412,15.94739 4.40488,31.7648 6.80965,47.506 0.64795,6.0759 -7.09113,13.7759 -10.42418,5.0589 z M 57.444179,935.73062 c 15.725471,-17.64603 34.459963,-32.47674 50.038171,-50.32532 5.23519,-4.83456 10.87636,-2.66295 10.66542,-11.21303 7.42277,-12.0364 15.92886,-24.07446 27.30686,-32.65066 9.36042,4.06484 14.38584,16.88464 20.59992,25.13111 19.71038,19.35051 41.18673,36.82052 62.27961,54.57169 7.88849,4.95626 2.48452,16.23608 -4.90823,7.54726 -22.93468,-17.57219 -45.12947,-36.43862 -64.13991,-58.26864 -5.90908,-7.84169 -18.10687,-17.72234 -23.60935,-3.99322 -8.8344,11.70098 -21.05752,20.40936 -29.66609,32.23277 -5.75971,7.95873 -13.843381,14.40215 -19.905389,22.3485 -7.295119,7.59262 -16.003769,16.11024 -27.235344,16.04128 l -1.050517,-0.50184 -0.375151,-0.9199 0,0 z m 63.309771,-28.34616 c -7.12339,-7.65616 12.69378,-5.55435 17.34763,-6.44534 11.27097,-0.0149 22.8733,-1.16513 33.88294,1.74732 4.55752,7.13002 -13.61244,5.38861 -18.30836,6.31705 -10.88508,0.055 -22.32966,1.26356 -32.92221,-1.61903 z M 102.6222,847.43879 c -1.50027,-9.46953 0.20186,-20.31755 -11.448683,-22.58595 -8.741021,-7.31921 -10.228288,-19.75646 -12.564447,-30.28586 -4.487753,-8.07609 4.655648,-21.88378 7.537616,-7.36288 2.589445,10.43693 0.119276,24.71591 9.971846,31.61915 10.257048,-2.17239 7.886818,-17.90338 8.433478,-26.30206 0.42409,-6.35259 -6.588208,-25.55501 4.09268,-21.51822 6.23538,8.4511 2.66918,19.90572 2.83917,29.69733 -1.73214,6.76038 -0.28563,24.39541 9.88378,14.367 7.08094,-10.28449 3.96026,-23.76574 8.45743,-34.7631 9.7451,4.11162 5.01967,18.67217 5.63404,27.45205 -2.19657,11.23497 -12.99887,19.10923 -23.31728,21.54264 -4.15857,6.84156 3.02277,22.8072 -6.08296,24.42427 -1.91543,-1.55518 -2.88028,-3.95265 -3.43667,-6.28437 z m 75.18602,-6.20801 c -1.09735,-14.13484 -21.2476,-13.85899 -22.16479,-28.64522 -2.13541,-10.1511 -3.99684,-20.78331 -2.93755,-31.12566 10.79129,-5.08135 6.63771,13.724 9.70201,19.82841 -0.51987,7.72987 12.08549,26.89444 15.78389,12.4919 1.31472,-15.03815 -1.04606,-30.38651 1.57067,-45.25741 10.98335,-3.60959 5.92724,16.30507 6.84461,23.1026 1.86586,8.50843 -6.51387,29.5913 8.13872,27.49425 11.75945,-3.50365 7.00377,-19.23928 8.32595,-28.52489 -2.01803,-8.18395 4.18486,-18.90914 8.22674,-6.18469 1.71317,11.39685 3.01021,24.09939 -2.05471,34.82864 -4.68885,10.48482 -24.42777,7.13863 -23.34142,20.75448 -0.42318,6.00527 -5.13752,18.22116 -8.09412,1.23759 z"
       id="path3249"
       inkscape:connector-curvature="0" />
  </g>
</svg>
