<?xml version="1.0" encoding="UTF-8" standalone="no"?>
<!-- Created with Inkscape (http://www.inkscape.org/) -->

<svg
   xmlns:dc="http://purl.org/dc/elements/1.1/"
   xmlns:cc="http://creativecommons.org/ns#"
   xmlns:rdf="http://www.w3.org/1999/02/22-rdf-syntax-ns#"
   xmlns:svg="http://www.w3.org/2000/svg"
   xmlns="http://www.w3.org/2000/svg"
   xmlns:sodipodi="http://sodipodi.sourceforge.net/DTD/sodipodi-0.dtd"
   xmlns:inkscape="http://www.inkscape.org/namespaces/inkscape"
   width="300"
   height="300"
   id="svg2"
   version="1.1"
   inkscape:version="0.48.4 r9939"
   sodipodi:docname="image-seal.svg">
  <defs
     id="defs4" />
  <sodipodi:namedview
     id="base"
     pagecolor="#ffffff"
     bordercolor="#666666"
     borderopacity="1.0"
     inkscape:pageopacity="0.0"
     inkscape:pageshadow="2"
     inkscape:zoom="1.979899"
     inkscape:cx="130.93154"
     inkscape:cy="137.35134"
     inkscape:document-units="px"
     inkscape:current-layer="layer1"
     showgrid="false"
     inkscape:window-width="1215"
     inkscape:window-height="1000"
     inkscape:window-x="65"
     inkscape:window-y="24"
     inkscape:window-maximized="1"
     fit-margin-top="10"
     fit-margin-left="10"
     fit-margin-right="10"
     fit-margin-bottom="10" />
  <metadata
     id="metadata7">
    <rdf:RDF>
      <cc:Work
         rdf:about="">
        <dc:format>image/svg+xml</dc:format>
        <dc:type
           rdf:resource="http://purl.org/dc/dcmitype/StillImage" />
        <dc:title />
      </cc:Work>
    </rdf:RDF>
  </metadata>
  <g
     inkscape:label="Calque 1"
     inkscape:groupmode="layer"
     id="layer1"
     transform="translate(0,-752.36218)">
    <path
       style="fill:#000000"
       d="m 217.41035,1045.5083 c -9.59958,-10.0387 -18.70944,-22.2786 -18.75499,-25.1988 -0.0241,-1.5479 -0.94336,-3.1764 -2.04269,-3.6189 -1.09936,-0.4422 -6.65965,-10.575 -12.35626,-22.51721 -5.69657,-11.94221 -11.14912,-23.34157 -12.11678,-25.33194 -2.14902,-4.4203 -14.15093,-6.18104 -17.7308,-2.60118 -1.43065,1.43065 -5.09819,2.60118 -8.15008,2.60118 -3.0519,0 -5.54891,1.08566 -5.54891,2.41257 0,1.32691 -2.24267,2.41257 -4.98374,2.41257 -2.74106,0 -6.84503,0.99612 -9.11993,2.21362 -2.27491,1.21748 -12.03801,3.30872 -21.69581,4.64697 -9.6578,1.33849 -19.03938,3.66155 -20.84796,5.16241 -2.50277,2.07722 -4.43565,1.7467 -8.09081,-1.38288 -5.54268,-4.74576 -4.35056,-10.64012 2.15191,-10.64012 2.44712,0 10.74478,-1.74586 18.43928,-3.87968 7.69447,-2.13381 19.41825,-4.74588 26.05281,-5.80458 14.19803,-2.26565 18.27674,-3.56957 31.96651,-10.2194 14.39473,-6.99227 13.06835,-15.79732 -3.6837,-24.45359 -6.37608,-3.29469 -9.64361,-3.60242 -16.88797,-1.59048 -4.94026,1.37203 -13.37918,2.50067 -18.75317,2.50806 -5.374,0.007 -11.00071,1.24326 -12.50381,2.74637 -4.11195,4.11195 -10.29495,0.5931 -10.29495,-5.85902 0,-5.08615 1.63005,-5.99048 15.35671,-8.51972 19.26411,-3.54953 31.36111,-3.58367 42.37361,-0.11942 14.04577,4.41833 20.48906,8.51658 23.82547,15.15413 3.84028,7.64002 6.02411,7.76758 15.78075,0.92177 11.40758,-8.0042 13.48073,-11.67487 13.56483,-24.01747 0.0707,-10.36009 -0.61856,-11.69262 -8.59665,-16.62338 -10.41322,-6.43572 -36.80787,-9.03449 -52.21372,-5.14089 -5.656,1.42947 -19.26387,3.23023 -30.2397,4.00168 -16.8776,1.18625 -20.18349,0.80997 -21.4303,-2.43921 -2.50965,-6.54003 1.99647,-8.08777 25.71041,-8.83089 24.45103,-0.7662 30.89618,-3.37983 26.91467,-10.91447 -1.2436,-2.35344 -2.28443,-8.62158 -2.31293,-13.92923 -0.0868,-16.15732 -0.0721,-16.12157 -5.91009,-14.48635 -7.72923,2.16501 -16.96037,6.74662 -20.67743,10.26265 -1.75247,1.6577 -8.2664,5.94818 -14.47541,9.53444 -6.20898,3.58623 -11.8319,7.16769 -12.49536,7.95879 -3.86124,4.6041 -17.22882,12.13654 -19.28408,10.86633 -6.47048,-3.999 0.88845,-13.04659 21.69665,-26.6754 5.9711,-3.91089 11.21844,-7.92497 11.66073,-8.92015 0.44232,-0.99518 2.12576,-1.80943 3.74103,-1.80943 4.2809,0 15.92077,-5.72463 15.9428,-7.84084 0.01,-0.99518 1.43086,-1.80942 3.15667,-1.80942 1.72583,0 6.05998,-1.35707 9.63145,-3.01571 5.55248,-2.57865 6.49632,-4.50173 6.51241,-13.26912 0.0121,-6.97133 1.0575,-10.25341 3.26375,-10.25341 5.05394,0 11.23047,8.18733 11.23047,14.88662 0,5.02589 1.72369,6.57914 10.07899,9.08247 5.54345,1.66084 12.32879,4.41454 15.07854,6.11933 2.74977,1.70477 8.39344,3.72067 12.54152,4.47976 4.14807,0.75906 12.44793,4.69114 18.44414,8.73793 5.9962,4.04679 12.47635,7.3578 14.40038,7.3578 5.01336,0 11.48372,7.92318 11.48372,14.06222 0,2.88107 -0.61419,5.23832 -1.36489,5.23832 -2.5041,0 -11.54577,-5.42705 -16.08091,-9.65218 -7.82702,-7.29196 -61.31979,-30.60221 -64.02305,-27.89898 -0.52828,0.52831 -0.96054,6.10375 -0.96054,12.38989 0,6.28614 -1.02556,14.12676 -2.27901,17.42361 -2.97722,7.83066 -1.87422,8.56319 6.41705,4.26163 3.83419,-1.98921 7.98793,-2.67988 9.40609,-1.56402 1.3968,1.09909 6.88228,2.75245 12.18993,3.67412 22.71314,3.94424 26.80722,6.21082 33.45652,18.52239 3.49296,6.46744 6.34066,13.66683 6.32821,15.99865 -0.0429,8.04854 -14.50351,29.45636 -25.22426,37.34283 -5.91438,4.35077 -10.79578,9.50718 -10.84753,11.4587 -0.17226,6.49239 5.79921,29.02142 7.69218,29.02142 1.0252,0 1.864,1.05188 1.864,2.3373 0,4.13755 21.45233,35.64764 25.26532,37.11064 2.02702,0.7781 3.68549,3.077 3.68549,5.1089 0,2.0321 0.95904,3.6946 2.13119,3.6946 3.7159,0 4.74523,9.3593 1.3401,12.1854 -2.51732,2.089 -4.5389,1.3836 -8.79807,-3.0705 z M 103.71715,822.47903 c -0.88461,-0.88459 -1.60838,-5.04376 -1.60838,-9.24259 0,-5.88994 -1.51587,-8.41639 -6.63456,-11.05759 -13.1636,-6.79232 -17.49112,-14.22983 -17.49112,-30.06114 0,-9.28856 0.67185,-11.01547 3.81618,-9.80888 2.09888,0.80542 4.27019,1.46441 4.82513,1.46441 0.55492,0 1.00896,2.03871 1.00896,4.53051 0,7.66063 7.09862,22.00773 10.88893,22.00773 2.83202,0 3.58648,-3.55258 3.58648,-16.88797 0,-15.27959 0.45954,-16.88797 4.82513,-16.88797 4.1562,0 4.82513,1.60838 4.82513,11.60172 0,6.38095 1.56137,13.70912 3.46969,16.28483 3.42857,4.62762 3.51342,4.62593 7.16098,-0.1421 2.0302,-2.65383 3.7258,-9.43917 3.76802,-15.07855 0.0422,-5.63937 1.04623,-10.25341 2.23116,-10.25341 2.80054,0 4.33271,4.20421 6.29077,17.26151 1.41871,9.46059 0.86862,11.36778 -4.96004,17.19642 -3.60563,3.60565 -8.57897,6.55572 -11.05185,6.55572 -3.50959,0 -4.49616,1.80952 -4.49616,8.24666 0,13.44755 -4.76846,19.95663 -10.45445,14.27062 z m 80.4189,-9.24358 c 0,-5.89677 -4.72523,-13.2737 -8.50237,-13.2737 -0.88512,0 -4.6121,-2.13816 -8.28215,-4.75148 -10.95694,-7.80203 -16.4354,-36.26217 -6.22618,-32.34452 2.04059,0.78305 3.71016,3.3463 3.71016,5.69612 0,7.40569 7.15095,21.74961 10.84297,21.74961 4.04084,0 5.7201,-5.76531 6.62086,-22.7308 0.34673,-6.53084 1.91789,-12.2978 3.49147,-12.81546 3.44932,-1.13478 7.96325,13.85072 7.98205,26.49913 0.0121,7.26357 0.91381,9.04713 4.58047,9.04713 5.54396,0 7.92348,-5.05578 8.94416,-19.00375 0.42502,-5.80789 1.44742,-11.23445 2.27204,-12.05904 3.17199,-3.172 8.34246,8.3509 8.34246,18.59196 0,11.56216 -2.56929,14.90894 -16.12955,21.01047 -6.01774,2.70775 -7.85014,5.16246 -8.44399,11.31178 -0.97945,10.14258 -9.2024,12.88808 -9.2024,3.07255 z"
       id="path3148"
       inkscape:connector-curvature="0" />
  </g>
</svg>
