<?xml version="1.0" encoding="UTF-8" standalone="no"?>
<!-- Created with Inkscape (http://www.inkscape.org/) -->

<svg
   xmlns:dc="http://purl.org/dc/elements/1.1/"
   xmlns:cc="http://creativecommons.org/ns#"
   xmlns:rdf="http://www.w3.org/1999/02/22-rdf-syntax-ns#"
   xmlns:svg="http://www.w3.org/2000/svg"
   xmlns="http://www.w3.org/2000/svg"
   xmlns:sodipodi="http://sodipodi.sourceforge.net/DTD/sodipodi-0.dtd"
   xmlns:inkscape="http://www.inkscape.org/namespaces/inkscape"
   width="300"
   height="300"
   id="svg2"
   version="1.1"
   inkscape:version="0.48.4 r9939"
   sodipodi:docname="dessin.svg">
  <defs
     id="defs4" />
  <sodipodi:namedview
     id="base"
     pagecolor="#ffffff"
     bordercolor="#666666"
     borderopacity="1.0"
     inkscape:pageopacity="0.0"
     inkscape:pageshadow="2"
     inkscape:zoom="1.979899"
     inkscape:cx="227.07871"
     inkscape:cy="107.23575"
     inkscape:document-units="px"
     inkscape:current-layer="layer1"
     showgrid="false"
     inkscape:window-width="1215"
     inkscape:window-height="1000"
     inkscape:window-x="65"
     inkscape:window-y="24"
     inkscape:window-maximized="1" />
  <metadata
     id="metadata7">
    <rdf:RDF>
      <cc:Work
         rdf:about="">
        <dc:format>image/svg+xml</dc:format>
        <dc:type
           rdf:resource="http://purl.org/dc/dcmitype/StillImage" />
        <dc:title />
      </cc:Work>
    </rdf:RDF>
  </metadata>
  <g
     inkscape:label="Calque 1"
     inkscape:groupmode="layer"
     id="layer1"
     transform="translate(0,-752.36218)">
    <path
       style="fill:#000000"
       d="m 203.33756,1005.9006 c -9.6629,-19.13433 -16.23909,-27.14791 -24.24846,-29.54851 -2.85048,-0.85436 -14.71794,-2.30276 -26.37214,-3.21869 -25.43822,-1.99923 -35.12163,-4.27779 -44.09694,-10.37625 -5.92283,-4.0244 -6.76114,-5.82738 -6.76114,-14.54124 0,-6.96685 1.28527,-11.26368 4.2897,-14.34094 5.59871,-5.73446 18.61634,-9.74605 26.65048,-8.21275 3.50475,0.66886 7.86653,0.66894 9.69281,1.9e-4 4.01969,-1.47187 4.34592,-11.00495 0.64205,-18.76195 -2.64443,-5.53831 -2.89596,-5.59541 -19.77909,-4.49118 -16.92109,1.10672 -17.10059,1.06551 -17.10059,-3.92597 0,-4.8986 0.52419,-5.05217 18.13083,-5.31206 9.97197,-0.14721 20.10876,-0.5211 22.5262,-0.8309 8.83508,-1.13225 24.48727,-0.87141 37.17468,0.61945 12.36803,1.45332 13.12465,1.88166 15.55864,8.80741 1.76463,5.02113 1.89077,9.25036 0.40659,13.63109 -5.24247,15.47386 -4.64884,15.10045 -26.42949,16.62496 -56.30485,3.94095 -58.57674,4.48605 -58.57674,14.0545 0,11.06167 20.60155,18.66225 50.58453,18.66225 8.29752,0 15.69759,0.94368 16.44463,2.09708 0.74704,1.15342 3.20072,2.0971 5.45264,2.0971 5.14274,0 17.10582,13.30503 23.89996,26.58092 2.84798,5.56499 6.55974,12.62819 8.24839,15.69599 3.62184,6.5798 1.98307,12.2475 -3.54129,12.2475 -2.75521,0 -6.57908,-5.2468 -12.79625,-17.558 z m -19.61519,-85.61259 c 4.6373,-1.6826 6.04361,-3.58042 6.04361,-8.15594 0,-7.44259 -4.19413,-9.69494 -19.7939,-10.62984 l -12.07242,-0.72352 -0.68372,9.06761 c -0.89914,11.92446 2.31567,15.48741 12.52589,13.88228 4.3653,-0.68625 10.65656,-2.2345 13.98054,-3.44059 z M 71.091397,900.7087 c 0,-1.94528 38.051183,-36.62911 40.185303,-36.62911 1.12123,0 10.8885,-8.49321 21.70504,-18.87382 10.81652,-10.3806 20.39135,-18.87383 21.27736,-18.87383 0.88601,0 5.4894,4.48254 10.22975,9.96118 4.74034,5.47866 11.13073,12.05518 14.20086,14.6145 16.74053,13.95515 29.12106,23.49833 40.2133,30.99726 8.74763,5.91383 12.43903,9.80206 12.51338,13.1806 0.0934,4.24001 -0.43131,4.51812 -4.55262,2.41342 -2.56196,-1.30836 -5.13179,-4.10734 -5.71075,-6.21996 -0.63498,-2.31704 -2.31908,-3.37739 -4.24438,-2.67239 -1.76465,0.64616 -7.31785,-1.98432 -12.42009,-5.88328 -5.07559,-3.87859 -10.7118,-8.18653 -12.52488,-9.57317 -16.68429,-12.76018 -23.51316,-18.72797 -29.06412,-25.3994 -3.56382,-4.28321 -6.93011,-8.22063 -7.48065,-8.74981 -0.55052,-0.52918 -3.67891,1.56418 -6.95196,4.65192 -18.86772,17.79944 -39.70465,35.79037 -44.9598,38.81897 -3.32399,1.91567 -6.043612,4.17792 -6.043612,5.02724 0,2.41088 -19.065248,14.32823 -22.922173,14.32823 -1.897475,0 -3.449958,-0.50334 -3.449958,-1.11855 z m 52.906643,-22.8113 c -1.41544,-1.62743 -1.74293,-3.44875 -0.72782,-4.04743 1.01513,-0.59866 13.15584,-1.56355 26.97937,-2.14418 25.60441,-1.07546 31.64377,0.23324 29.19356,6.32618 -1.02199,2.54136 -4.9776,3.04889 -20.19789,2.59154 -10.40988,-0.3128 -19.6536,-1.568 -20.54163,-2.78932 -1.06886,-1.47003 -1.62598,-1.33457 -1.64826,0.40078 -0.0459,3.57715 -9.87355,3.32307 -13.05733,-0.33757 z m 60.20457,-37.41008 c -0.56656,-1.44176 -1.39265,-5.67118 -1.83578,-9.39869 -0.78177,-6.57617 -7.39928,-13.85577 -14.79165,-16.2715 -4.31448,-1.40995 -8.57668,-14.30677 -8.57668,-25.95187 0,-7.17995 0.73198,-8.66934 4.2607,-8.66934 3.41126,0 4.5541,1.98592 5.73241,9.96119 1.65403,11.1951 6.57022,20.07146 10.43567,18.84193 1.74992,-0.55661 2.3523,-6.14937 1.89219,-17.56772 -0.5339,-13.24976 0.0486,-17.3242 2.78692,-19.49279 2.76949,-2.19325 4.12127,-2.21945 6.75843,-0.13111 2.45019,1.94041 3.29652,7.12105 3.29652,20.17914 0,15.83947 0.40942,17.56851 4.16023,17.56851 5.01611,0 6.84429,-3.97253 8.19843,-17.81456 1.22987,-12.5719 3.34327,-15.13572 8.45539,-10.25755 3.09479,2.95314 3.59159,5.97312 2.59044,15.74704 -1.60423,15.66201 -4.56475,19.83218 -16.30637,22.96916 -7.84087,2.09482 -9.42922,3.32219 -8.53277,6.5934 1.31364,4.79339 -2.52986,16.31598 -5.44235,16.31598 -1.12841,0 -2.51519,-1.17961 -3.08173,-2.62137 z m -74.37533,-4.78702 c -0.75646,-1.88107 -1.37536,-5.70841 -1.37536,-8.50519 0,-4.69999 -3.68154,-8.95436 -13.914402,-16.07939 -2.42105,-1.68575 -5.215111,-8.19557 -7.011866,-16.33685 -2.538955,-11.50424 -2.52867,-13.97923 0.06857,-16.4999 4.387531,-4.2581 9.869265,0.59973 9.869265,8.74598 0,9.20972 4.650087,22.53025 7.865117,22.53025 3.49272,0 5.77976,-9.68548 5.60689,-23.74478 -0.16241,-13.20297 1.25816,-18.19705 5.17601,-18.19705 2.75128,0 3.54308,4.8637 5.54777,34.07774 0.26803,3.90591 7.56878,5.12309 9.82588,1.63818 0.72375,-1.11744 1.68015,-5.12813 2.12534,-8.91263 1.01447,-8.62399 3.38893,-19.09271 4.59055,-20.23933 0.50164,-0.47871 2.39052,0.30047 4.19747,1.73147 2.47874,1.96301 3.03564,5.66688 2.26818,15.08532 -1.31827,16.17862 -3.78022,20.19034 -15.40082,25.09539 -8.8914,3.75308 -9.62583,4.67668 -10.25101,12.89148 -0.70689,9.28827 -6.46195,13.49719 -9.18762,6.71931 z"
       id="path3312"
       inkscape:connector-curvature="0" />
  </g>
</svg>
