<?xml version="1.0" encoding="UTF-8" standalone="no"?>
<svg
   xmlns:dc="http://purl.org/dc/elements/1.1/"
   xmlns:cc="http://creativecommons.org/ns#"
   xmlns:rdf="http://www.w3.org/1999/02/22-rdf-syntax-ns#"
   xmlns:svg="http://www.w3.org/2000/svg"
   xmlns="http://www.w3.org/2000/svg"
   viewBox="0 0 300 300"
   height="300"
   width="300"
   id="svg4487"
   version="1.1">
  <metadata
     id="metadata4493">
    <rdf:RDF>
      <cc:Work
         rdf:about="">
        <dc:format>image/svg+xml</dc:format>
        <dc:type
           rdf:resource="http://purl.org/dc/dcmitype/StillImage" />
        <dc:title></dc:title>
      </cc:Work>
    </rdf:RDF>
  </metadata>
  <defs
     id="defs4491" />
  <path
     id="path4497"
     d="m 135.73835,284.65442 c -16.06228,-1.33182 -30.45174,-3.90771 -41.683524,-7.46184 -6.73577,-2.13144 -7.15117,-2.38879 -12.71677,-7.87816 -4.88,-4.81318 -6.05991,-6.45987 -7.77146,-10.84598 -5.11672,-13.11227 -7.58121,-28.59733 -7.57488,-47.59492 0.005,-15.26324 1.19484,-24.07031 4.74707,-35.13991 2.47076,-7.69941 2.84688,-8.37991 6.52425,-11.80399 8.86269,-8.25223 19.02119,-13.62935 30.574974,-16.18402 6.24246,-1.38028 10.25295,-1.64801 31.47731,-2.10136 35.23563,-0.75262 46.9914,0.36417 61.29199,5.82269 4.30981,1.64506 6.57197,3.09658 10.51415,6.74643 11.27469,10.43863 16.17177,22.45628 17.02784,41.78705 0.9022,20.37243 -2.64401,43.61783 -9.17573,60.14699 -2.1063,5.33021 -2.61108,6.00497 -6.63018,8.86306 -12.292,8.74113 -25.11718,13.32598 -43.01054,15.37577 -5.86254,0.67158 -26.72116,0.8381 -33.5945,0.26819 z m 3.21315,-14.29385 2.3189,-0.46378 -0.28067,-25.60699 c -0.15436,-14.08383 -0.47091,-25.79721 -0.70341,-26.02973 -0.23252,-0.23251 -13.87486,-0.62568 -30.31632,-0.87371 l -29.893554,-0.45095 0.41211,10.31157 c 0.4004,10.0182 1.68474,18.3205 3.48834,22.54947 0.48555,1.13849 2.26388,4.19614 3.95182,6.79478 2.63341,4.05418 3.6549,4.98759 7.1968,6.57619 5.030034,2.25607 15.158864,5.20939 22.383004,6.52634 5.76376,1.05072 17.67188,1.42102 21.44298,0.66681 z m 38.38417,-1.32153 c 11.92828,-1.92925 20.88254,-5.84992 27.72536,-12.13963 2.75079,-2.52846 3.41632,-3.77486 5.36135,-10.04074 4.20763,-13.55482 5.34693,-22.37176 3.55502,-27.51204 l -0.81192,-2.32907 -26.19419,0.45255 c -14.40679,0.24889 -27.88429,0.62826 -29.94999,0.843 l -3.75581,0.39047 v 17.36335 c 0,9.54984 0.21287,21.32237 0.47305,26.1612 l 0.47306,8.79786 8.33035,-0.4708 c 4.58168,-0.25893 11.23886,-0.9412 14.79372,-1.51615 z m -58.23022,-65.22067 21.99835,-0.47188 v -22.06176 -22.06175 l -6.61738,0.0147 c -7.52411,0.0166 -25.7601,1.73294 -30.58307,2.87828 -4.422584,1.05027 -12.775214,5.18179 -15.419754,7.62718 -1.68256,1.55587 -2.89638,4.15642 -5.27894,11.30995 -3.13985,9.42722 -4.2001,16.01347 -3.32702,20.66739 l 0.48257,2.5723 8.37345,-9.8e-4 c 4.6054,-6.9e-4 18.272704,-0.21361 30.371794,-0.47315 z m 95.18444,-1.705 c 0.5557,-2.12495 -0.80351,-15.35046 -2.08754,-20.31258 -2.97159,-11.48365 -9.22605,-17.36369 -22.10819,-20.78475 -3.98222,-1.05753 -21.384,-2.42278 -31.64206,-2.48244 l -4.47122,-0.026 v 22.5349 22.53488 h 29.96309 c 29.58805,0 29.96787,-0.0183 30.34592,-1.464 z M 91.435066,134.49081 c -0.61831,-0.61829 -1.15946,-1.18167 -1.20257,-1.25193 -0.0431,-0.0702 -0.29285,-5.55205 -0.55499,-12.18175 -0.41543,-10.5064 -0.64419,-12.17652 -1.78176,-13.00833 -0.71781,-0.52489 -4.24047,-1.6302 -7.82811,-2.45623 -7.74571,-1.7834 -11.37362,-3.7604 -15.67039,-8.539438 -7.80896,-8.685445 -12.71761,-23.075258 -12.71761,-37.281905 0,-9.307152 1.14497,-14.004979 3.93133,-16.130238 4.04378,-3.084339 7.37312,-2.103335 9.14614,2.694945 2.28877,6.194048 2.7535,9.024898 3.33458,20.312093 0.68542,13.313953 1.58909,16.194234 6.4565,20.579044 2.76565,2.491429 9.36652,6.055925 13.35567,7.212119 1.52487,0.441955 1.52861,0.406954 2.05532,-19.258148 0.29021,-10.835503 0.31806,-23.642085 0.0619,-28.459075 -0.25619,-4.81699 -0.64716,-12.138397 -0.86886,-16.269793 -0.35195,-6.559338 -0.2081,-8.029802 1.1348,-11.598938 1.50289,-3.994383 1.58978,-4.077353 3.82129,-3.649421 5.982384,1.147223 7.140664,2.5271 8.295814,9.882908 0.89724,5.71345 3.64542,52.858054 3.64542,62.536482 v 6.411849 l 3.75582,-1.268406 c 4.32181,-1.459546 7.30286,-4.843828 11.24644,-12.767697 3.60286,-7.239275 4.2954,-10.803061 4.30488,-22.152858 l 0.009,-10.164232 2.75081,-2.891697 c 3.22122,-3.386205 6.29703,-3.870542 8.63606,-1.359892 2.58147,2.770881 4.3528,9.572933 4.34125,16.670787 -0.009,5.623067 -0.37996,7.576286 -2.80838,14.792738 -1.53882,4.572838 -4.26327,11.232083 -6.05433,14.798312 -3.17587,6.323514 -3.42073,6.598477 -9.88985,11.105191 -3.75355,2.61491 -9.15202,5.5912 -12.43483,6.85557 l -5.80147,2.23444 -0.45823,4.38407 c -0.25202,2.41123 -0.45872,6.67081 -0.45933,9.46572 -9.8e-4,8.01965 -2.69174,11.8411 -8.353664,11.86736 -1.25067,0.006 -2.77982,-0.49534 -3.39812,-1.11365 z M 195.09007,130.4284 c -1.54594,-3.32057 -1.74985,-4.75065 -1.75956,-12.34053 -0.006,-4.7216 -0.32779,-9.71147 -0.71501,-11.0886 -0.69177,-2.46025 -0.89097,-2.57069 -11.43177,-6.33795 -10.43651,-3.729995 -10.85361,-3.958719 -15.36395,-8.424879 -10.96695,-10.859564 -16.46664,-28.669259 -13.77927,-44.621553 1.37142,-8.140759 2.86622,-10.00878 8.00911,-10.00878 h 3.12738 l 2.13609,5.544298 c 2.99041,7.761759 3.93289,13.641076 3.38393,21.109528 -0.28231,3.840927 -0.15412,7.402926 0.33132,9.205698 1.46404,5.437015 9.21295,12.02025 18.32362,15.567164 l 3.68225,1.433547 0.9591,-4.789466 c 0.95472,-4.767653 1.12606,-15.231879 0.64653,-39.486049 -0.20277,-10.255833 -0.0349,-12.535614 1.27967,-17.38228 1.34486,-4.958269 4.38569,-12.148466 5.71919,-13.52334 0.97145,-1.001601 6.2307,0.810286 7.87081,2.711604 1.51281,1.75376 1.62942,2.417782 1.29425,7.370235 -0.49483,7.311507 -2.50495,54.391561 -2.55743,59.898995 l -0.0417,4.378629 6.61739,-1.330431 c 6.20387,-1.247295 6.788,-1.520919 9.34759,-4.378637 3.85302,-4.301789 6.77978,-9.602629 7.60786,-13.779098 0.39006,-1.967332 1.20614,-8.566835 1.8135,-14.665564 0.60738,-6.098728 1.43514,-11.912546 1.83947,-12.919595 0.84167,-2.09625 3.55622,-3.852885 6.94162,-4.492059 2.10872,-0.398133 2.53101,-0.166219 4.40302,2.41801 5.89242,8.13424 4.33739,24.844861 -3.90222,41.934078 l -3.15893,6.551722 -8.26423,6.049766 c -8.08965,5.921977 -8.42244,6.084897 -15.75464,7.712377 l -7.49045,1.66259 v 4.5227 c 0,2.48747 0.49691,7.61069 1.10424,11.38493 1.67634,10.41749 -0.20005,13.86875 -7.54016,13.86875 -2.83565,0 -2.98634,-0.12095 -4.67861,-3.75581 z"
     style="fill:#000000;stroke-width:0.71539336" />
</svg>
