<?xml version="1.0" encoding="UTF-8" standalone="no"?>
<!-- Created with Inkscape (http://www.inkscape.org/) -->

<svg
   xmlns:dc="http://purl.org/dc/elements/1.1/"
   xmlns:cc="http://creativecommons.org/ns#"
   xmlns:rdf="http://www.w3.org/1999/02/22-rdf-syntax-ns#"
   xmlns:svg="http://www.w3.org/2000/svg"
   xmlns="http://www.w3.org/2000/svg"
   xmlns:sodipodi="http://sodipodi.sourceforge.net/DTD/sodipodi-0.dtd"
   xmlns:inkscape="http://www.inkscape.org/namespaces/inkscape"
   width="300"
   height="300"
   id="svg2"
   version="1.1"
   inkscape:version="0.48.2 r9819"
   sodipodi:docname="Nouveau document 1">
  <defs
     id="defs4" />
  <sodipodi:namedview
     id="base"
     pagecolor="#ffffff"
     bordercolor="#666666"
     borderopacity="1.0"
     inkscape:pageopacity="0.0"
     inkscape:pageshadow="2"
     inkscape:zoom="1.979899"
     inkscape:cx="192.86297"
     inkscape:cy="142.64283"
     inkscape:document-units="px"
     inkscape:current-layer="layer1"
     showgrid="false"
     inkscape:window-width="1280"
     inkscape:window-height="999"
     inkscape:window-x="0"
     inkscape:window-y="24"
     inkscape:window-maximized="1" />
  <metadata
     id="metadata7">
    <rdf:RDF>
      <cc:Work
         rdf:about="">
        <dc:format>image/svg+xml</dc:format>
        <dc:type
           rdf:resource="http://purl.org/dc/dcmitype/StillImage" />
        <dc:title></dc:title>
      </cc:Work>
    </rdf:RDF>
  </metadata>
  <g
     inkscape:label="Calque 1"
     inkscape:groupmode="layer"
     id="layer1"
     transform="translate(0,-752.36218)">
    <path
       style="fill:#000000"
       d="m 231.3837,1026.8348 c -1.99366,-3.5176 -5.99161,-24.795 -8.88435,-47.28324 -5.35415,-41.62343 -9.33065,-62.16553 -12.45479,-64.33989 -0.95714,-0.66615 -5.82476,-0.13038 -10.81693,1.19062 -12.56902,3.32593 -123.762731,3.08414 -140.013252,-0.30446 -7.138074,-1.48845 -12.978316,-3.59125 -12.978316,-4.67288 0,-1.88428 19.249651,-3.21296 36.927249,-2.54885 38.942409,1.46299 107.294809,0.87433 113.786919,-0.97995 l 8.0407,-2.29659 -7.83446,-5.07993 c -4.30894,-2.79397 -9.81558,-5.07994 -12.23697,-5.07994 -2.4214,0 -4.40253,-0.83738 -4.40253,-1.86086 0,-3.78926 -48.65126,-7.4849 -98.534972,-7.4849 -28.276622,0 -52.347211,-0.65086 -53.490198,-1.44637 -1.142986,-0.7955 0.216636,-3.04351 3.021382,-4.99557 4.307121,-2.9977 12.828014,-3.31645 54.835493,-2.05133 47.382035,1.42699 68.719775,2.6239 93.529335,5.24642 6.25774,0.66148 16.87379,4.79823 24.30534,9.47105 11.86364,7.45965 13.41886,7.8588 15.41657,3.95675 1.22202,-2.38692 4.32301,-6.04956 6.8911,-8.13921 4.00778,-3.26113 3.86869,-4.96778 -0.98188,-12.04717 -9.89169,-14.4369 -31.97212,-18.01994 -111.34155,-18.06763 -60.870762,-0.0366 -72.689741,-1.31651 -63.132538,-6.83692 3.875114,-2.23833 18.37354,-2.64312 59.746058,-1.66808 66.42374,1.56543 107.77079,3.84258 110.02013,6.05926 0.92318,0.90978 4.0622,2.26357 6.9756,3.00843 17.13207,4.3801 18.45075,32.58765 2.09394,44.79074 -9.16502,6.83761 -11.39362,11.81789 -6.27381,14.02014 2.66732,1.14733 8.73854,35.34484 12.48681,70.33466 0.96361,8.99529 2.62214,22.2651 3.68561,29.4884 2.13671,14.5128 -2.55882,19.898 -8.38569,9.6173 z M 73.130214,993.81145 c -12.340015,-7.45179 -18.566782,-50.46095 -8.174672,-56.46361 4.385262,-2.53301 5.813652,-2.48197 8.341154,0.29802 1.677366,1.84493 3.072891,5.19437 3.101164,7.4432 0.052,4.13639 2.233769,4.47817 28.5861,4.47817 55.01071,0 58.74789,-0.29362 58.74789,-4.61572 0,-2.32448 2.1643,-6.26722 4.80954,-8.76165 8.89285,-8.38585 12.77998,-1.00048 12.25793,23.28954 -0.26463,12.31282 -1.23912,23.76171 -2.16554,25.44197 -0.92642,1.68025 -6.54667,5.10217 -12.48944,7.60425 -14.76744,6.21753 -83.278952,7.16463 -93.014126,1.28583 z m 81.498346,-10.50143 c 7.44133,-4.79979 15.73948,-21.01613 12.02403,-23.4975 -0.68322,-0.4563 -22.0138,-1.43979 -47.40129,-2.18554 -37.352425,-1.09722 -46.159057,-0.75749 -46.159057,1.78069 0,1.72513 0.940339,7.91142 2.089643,13.74732 2.645525,13.43338 8.083065,15.37788 43.579214,15.5842 24.20855,0.14072 28.15939,-0.45732 35.86746,-5.42917 z M 88.828286,844.86549 c -1.269374,-0.88347 -2.307953,-5.63666 -2.307953,-10.56266 0,-8.71233 -0.326665,-8.95636 -11.989367,-8.95636 -19.162745,0 -23.020491,-5.2425 -21.920982,-29.78961 0.272983,-6.09448 1.739234,-7.59344 7.427775,-7.59344 6.232675,0 6.831132,0.95167 4.961129,7.88924 -3.078165,11.41976 2.573376,20.14805 13.045799,20.14805 8.359302,0 8.475646,-0.25758 8.475646,-18.76485 0,-14.75762 1.106257,-19.06031 5.180316,-20.14839 2.849175,-0.76094 5.828342,-0.93251 6.620374,-0.38127 0.792029,0.55124 1.665033,9.61802 1.940007,20.14839 0.43365,16.60749 1.28559,19.14612 6.42521,19.14612 6.83307,0 16.76134,-12.92898 16.76134,-21.82729 0,-7.65395 5.89131,-10.12038 12.75806,-5.34122 4.56285,3.17568 4.77306,4.96426 1.35636,11.54043 -2.22384,4.28027 -4.04335,10.01369 -4.04335,12.74093 0,6.16154 -11.93789,12.23291 -24.05309,12.23291 -8.31282,0 -9.2236,0.87358 -10.16337,9.74829 -0.977071,9.22693 -5.368795,13.32381 -10.473904,9.77073 z m 100.710674,-2.33644 c -1.26937,-0.88347 -2.30795,-5.11097 -2.30795,-9.39444 0,-7.02221 -0.95001,-7.78814 -9.66002,-7.78814 -5.31301,0 -11.21365,-1.31424 -13.11254,-2.92055 -5.8593,-4.95648 -12.24011,-32.05671 -8.20849,-34.86266 6.15969,-4.28706 10.83892,0.32785 10.83892,10.68992 0,10.56053 7.24416,17.74753 17.8887,17.74753 4.03084,0 5.69402,-2.13791 5.90727,-7.59343 1.37161,-35.09032 1.76393,-36.20523 11.79691,-33.52567 4.95282,1.32278 5.39287,4.01655 3.48222,21.31661 -1.85883,16.83081 -1.42102,19.80249 2.91743,19.80249 6.82377,0 18.40565,-13.58798 18.42132,-21.61207 0.009,-4.79947 1.66125,-6.42522 6.52848,-6.42522 10.10613,0 11.23109,3.76145 5.08181,16.9917 -6.05473,13.02683 -15.6326,20.25493 -26.95153,20.3394 -5.19161,0.0387 -7.7518,2.23416 -10.07107,8.63616 -3.04935,8.41725 -7.96917,11.78757 -12.55146,8.59837 z"
       id="path2996"
       inkscape:connector-curvature="0" />
  </g>
</svg>
