<?xml version="1.0" encoding="UTF-8" standalone="no"?>
<!-- Created with Inkscape (http://www.inkscape.org/) -->

<svg
   xmlns:dc="http://purl.org/dc/elements/1.1/"
   xmlns:cc="http://creativecommons.org/ns#"
   xmlns:rdf="http://www.w3.org/1999/02/22-rdf-syntax-ns#"
   xmlns:svg="http://www.w3.org/2000/svg"
   xmlns="http://www.w3.org/2000/svg"
   xmlns:sodipodi="http://sodipodi.sourceforge.net/DTD/sodipodi-0.dtd"
   xmlns:inkscape="http://www.inkscape.org/namespaces/inkscape"
   width="300"
   height="300"
   id="svg2"
   version="1.1"
   inkscape:version="0.48.4 r9939"
   sodipodi:docname="image-seal.svg">
  <defs
     id="defs4" />
  <sodipodi:namedview
     id="base"
     pagecolor="#ffffff"
     bordercolor="#666666"
     borderopacity="1.0"
     inkscape:pageopacity="0.0"
     inkscape:pageshadow="2"
     inkscape:zoom="2.0018437"
     inkscape:cx="138.54008"
     inkscape:cy="168.92159"
     inkscape:document-units="px"
     inkscape:current-layer="layer1"
     showgrid="false"
     inkscape:window-width="1215"
     inkscape:window-height="1000"
     inkscape:window-x="65"
     inkscape:window-y="24"
     inkscape:window-maximized="1"
     fit-margin-top="10"
     fit-margin-left="10"
     fit-margin-right="10"
     fit-margin-bottom="10" />
  <metadata
     id="metadata7">
    <rdf:RDF>
      <cc:Work
         rdf:about="">
        <dc:format>image/svg+xml</dc:format>
        <dc:type
           rdf:resource="http://purl.org/dc/dcmitype/StillImage" />
        <dc:title />
      </cc:Work>
    </rdf:RDF>
  </metadata>
  <g
     inkscape:label="Calque 1"
     inkscape:groupmode="layer"
     id="layer1"
     transform="translate(0,-752.36218)">
    <path
       style="fill:#000000"
       d="m 186.92478,1044.326 c -2.20042,-1.7665 -8.75539,-9.7763 -14.56657,-17.7997 -5.81117,-8.0233 -11.82218,-15.3645 -13.35779,-16.3134 -1.53561,-0.9492 -9.05936,2.4356 -16.71946,7.5215 -7.6601,5.0862 -14.57171,9.2473 -15.35917,9.2473 -0.78746,0 -3.914,2.3128 -6.9479,5.139 -5.8025,5.4061 -17.39479,7.0388 -17.39479,2.4501 0,-1.4788 3.56637,-4.6586 7.92523,-7.0662 4.35888,-2.4074 11.5857,-7.5385 16.0596,-11.4024 4.47392,-3.8638 8.94902,-7.0436 9.94472,-7.0662 0.9957,-0.026 4.7011,-2.9319 8.23421,-6.465 8.16506,-8.16497 10.74392,-8.06476 19.11658,0.7418 3.74682,3.9412 10.48879,9.7433 14.98222,12.8938 9.8782,6.9259 19.85943,22.3215 17.85604,27.5423 -1.77778,4.6329 -4.51943,4.7948 -9.77292,0.5771 z m 34.62615,-47.53416 c -3.95835,-5.29864 -9.36255,-11.94731 -12.00935,-14.77483 -2.64678,-2.82778 -8.66931,-11.08113 -13.38335,-18.3411 -4.71405,-7.25996 -10.06439,-14.77586 -11.88963,-16.70198 -3.35767,-3.54334 -8.20276,-12.92677 -10.56766,-20.46621 -0.83322,-2.65638 -5.59987,-4.70692 -13.43932,-5.78145 -24.07218,-3.29947 -25.66627,-2.79908 -29.48514,9.25544 -1.9028,6.00629 -5.30933,13.81126 -7.57009,17.34424 -2.26078,3.53312 -5.72942,9.6409 -7.70812,13.57255 -1.9787,3.93191 -8.87477,11.40849 -15.32461,16.61488 -6.449854,5.2064 -12.305154,10.23858 -13.011774,11.18262 -3.55655,4.75159 -20.50814,12.1776 -22.06135,9.66427 -1.5788,-2.55436 15.89718,-20.04211 20.13705,-20.15054 3.41046,-0.0874 22.480594,-21.09898 22.480594,-24.76956 0,-1.94951 0.95864,-3.54468 2.1303,-3.54468 3.20465,0 14.45197,-25.38491 12.23538,-27.61491 -1.05767,-1.06405 -11.94942,-2.51278 -24.203954,-3.2194 -17.52126,-1.01031 -22.28094,-2.10812 -22.28094,-5.13907 0,-3.08509 4.1025,-3.90166 20.55629,-4.09155 27.783784,-0.32068 26.980144,-0.064 26.980144,-8.61358 0,-5.89091 -2.84422,-10.01543 -12.84643,-18.62913 -13.846104,-11.92401 -15.331624,-16.85976 -8.93407,-29.68401 5.62137,-11.26831 14.40287,-16.06782 29.39871,-16.06782 13.47963,0 14.47219,-1.03118 13.31482,-13.83256 -0.4509,-4.98724 3.84328,-11.86281 7.40903,-11.86281 1.1096,0 3.49919,5.78146 5.31023,12.84768 l 3.29276,12.84769 14.50318,0 c 7.97677,0 15.046,-0.54279 15.70943,-1.20622 0.66342,-0.66343 0.73732,-5.22284 0.16419,-10.13199 -0.86501,-7.40949 -2.3103,-9.20431 -8.50794,-10.56555 -8.61332,-1.89179 -10.70042,-5.17448 -15.03446,-23.64685 -2.69971,-11.50662 -2.58773,-13.99496 0.78139,-17.36408 4.74681,-4.74678 5.68934,-3.40859 8.11666,11.52396 2.32694,14.31517 5.47434,20.55629 10.36653,20.55629 3.00824,0 3.76391,-4.35449 3.76391,-21.68941 0,-22.07591 2.27897,-27.56519 9.09544,-21.90799 2.90558,2.41141 3.37501,6.92976 2.12136,20.41843 -0.98367,10.5841 -0.60888,17.94043 0.9636,18.91225 4.60132,2.84379 13.51497,-7.46743 13.51497,-15.63395 0,-9.62639 5.6503,-15.2252 10.03427,-9.94285 3.85415,4.64397 5.77757,14.4263 2.83653,14.4263 -1.2382,0 -2.6172,3.14334 -3.06437,6.98518 -0.77115,6.62519 -2.62137,8.11583 -20.08458,16.18138 -2.25335,1.04074 -4.43294,6.70176 -5.24738,13.62902 -1.26375,10.74873 -0.73031,12.33889 5.74505,17.12632 14.77558,10.92408 10.80503,29.74647 -8.9028,42.20369 -10.51634,6.64731 -14.57824,12.45973 -14.68562,21.01451 -0.0231,1.79308 8.94985,2.97016 25.0179,3.28207 27.73131,0.53832 34.81509,1.88671 33.33637,6.34555 -0.65207,1.96624 -10.40246,3.24419 -28.40633,3.72318 -23.94815,0.63712 -27.40197,1.28675 -27.32244,5.13907 0.1773,8.58814 10.84442,22.86353 39.09439,52.31864 18.44069,19.22733 21.87392,27.89233 11.05129,27.89233 -4.27897,0 -8.59646,-3.0832 -13.49006,-9.63346 z m -48.90314,-95.71741 c 2.41624,-9.5642 15.18342,-24.6787 22.92024,-27.13426 3.40569,-1.08092 4.65346,-4.07006 4.65346,-11.14775 0,-14.34886 -6.24791,-16.67668 -45.07317,-16.79333 -28.54503,-0.0858 -32.47714,0.44692 -36.95548,5.00625 -2.75637,2.80622 -5.75363,8.14517 -6.6606,11.86435 -1.45782,5.97815 -0.36151,7.47236 9.45602,12.88802 10.19785,5.62546 11.27806,7.21282 13.22286,19.43081 2.06285,12.95943 2.36357,13.33227 11.58065,14.35872 20.9476,2.33281 24.40142,1.24314 26.85602,-8.47281 z m 10.22933,96.36828 c -1.76656,-2.0063 -3.21192,-4.26184 -3.21192,-5.01188 0,-1.36469 -2.97013,-5.14499 -15.89441,-20.22945 l -6.90106,-8.05473 -9.80093,8.33275 c -18.77367,15.96119 -29.08581,22.11292 -32.06853,19.1302 -2.00501,-2.00501 2.35611,-7.81216 15.52097,-20.66729 10.07025,-9.83336 18.30952,-19.16977 18.30952,-20.74747 0,-5.17248 5.09529,-3.01381 12.24659,5.18867 3.86371,4.43168 9.70139,10.50221 12.97261,13.49006 22.79282,20.81916 26.56901,25.10103 25.22473,28.60434 -1.84488,4.80759 -12.15321,4.78549 -16.39757,-0.036 z M 114.54798,832.53117 c -0.92989,-0.92992 -1.69073,-6.12318 -1.69073,-11.54064 0,-8.47744 -0.80555,-9.86126 -5.78146,-9.93159 -9.681604,-0.13695 -13.569804,-5.58805 -16.436764,-23.04411 -2.98148,-18.15347 -2.28879,-23.12583 3.22161,-23.12583 4.00922,0 4.54441,2.2709 3.73729,15.85833 -0.39553,6.65846 1.01093,11.00586 4.779904,14.77483 8.42053,8.42053 10.47942,6.47053 10.47942,-9.92522 0,-8.39606 1.15629,-15.9802 2.56954,-16.85364 1.41324,-0.87343 2.56953,-3.83241 2.56953,-6.57549 0,-6.63421 3.74829,-6.34429 6.81439,0.52706 1.56025,3.49668 1.57047,11.04171 0.028,20.61986 -2.81927,17.50602 -0.77865,21.48464 6.36438,12.4087 10.53194,-13.38188 12.50806,-15.41721 14.96875,-15.41721 3.247,0 0.5726,14.91682 -3.99092,22.26015 -1.89979,3.057 -6.96221,6.32866 -11.24982,7.2704 -6.75934,1.4846 -7.79569,2.83882 -7.79569,10.1868 0,8.27724 -5.21791,15.87711 -8.58744,12.5076 z"
       id="path3041"
       inkscape:connector-curvature="0"
       sodipodi:nodetypes="ssccscscscscsssccscsssscssccssssssssssssscsssssssssssssssssssscsssssscsssssssssscsccssssscccccscssssssssssssssc" />
  </g>
</svg>
