<?xml version="1.0" encoding="UTF-8" standalone="no"?>
<!-- Created with Inkscape (http://www.inkscape.org/) -->

<svg
   xmlns:dc="http://purl.org/dc/elements/1.1/"
   xmlns:cc="http://creativecommons.org/ns#"
   xmlns:rdf="http://www.w3.org/1999/02/22-rdf-syntax-ns#"
   xmlns:svg="http://www.w3.org/2000/svg"
   xmlns="http://www.w3.org/2000/svg"
   xmlns:sodipodi="http://sodipodi.sourceforge.net/DTD/sodipodi-0.dtd"
   xmlns:inkscape="http://www.inkscape.org/namespaces/inkscape"
   width="300"
   height="300"
   id="svg2"
   version="1.1"
   inkscape:version="0.48.4 r9939"
   sodipodi:docname="image-seal.svg">
  <defs
     id="defs4" />
  <sodipodi:namedview
     id="base"
     pagecolor="#ffffff"
     bordercolor="#666666"
     borderopacity="1.0"
     inkscape:pageopacity="0.0"
     inkscape:pageshadow="2"
     inkscape:zoom="2.0018437"
     inkscape:cx="145.03351"
     inkscape:cy="130.6666"
     inkscape:document-units="px"
     inkscape:current-layer="layer1"
     showgrid="false"
     inkscape:window-width="1215"
     inkscape:window-height="1000"
     inkscape:window-x="65"
     inkscape:window-y="24"
     inkscape:window-maximized="1"
     fit-margin-top="10"
     fit-margin-left="10"
     fit-margin-right="10"
     fit-margin-bottom="10" />
  <metadata
     id="metadata7">
    <rdf:RDF>
      <cc:Work
         rdf:about="">
        <dc:format>image/svg+xml</dc:format>
        <dc:type
           rdf:resource="http://purl.org/dc/dcmitype/StillImage" />
        <dc:title />
      </cc:Work>
    </rdf:RDF>
  </metadata>
  <g
     inkscape:label="Calque 1"
     inkscape:groupmode="layer"
     id="layer1"
     transform="translate(0,-752.36218)">
    <path
       style="fill:#000000"
       d="m 206.65616,1042.2401 c -12.3008,-6.5613 -34.20011,-25.9408 -34.20011,-30.265 0,-1.2141 -1.91556,-4.2971 -4.25678,-6.8509 -7.85333,-8.56649 -14.90528,-19.72087 -14.90528,-23.57638 0,-2.10207 -1.07787,-3.82194 -2.39526,-3.82194 -1.31739,0 -2.39526,-2.02375 -2.39526,-4.49724 0,-2.47346 -1.65886,-5.87396 -3.68635,-7.55663 -3.13379,-2.60082 -5.73688,-0.93023 -17.36562,11.14482 -7.5236,7.81232 -15.72922,18.75786 -18.23474,24.32347 -2.50551,5.5655 -5.46964,10.1192 -6.58696,10.1192 -1.11731,0 -2.03148,2.5068 -2.03148,5.5706 0,6.9282 -10.373944,17.1141 -15.447294,15.1673 -6.99178,-2.683 -3.70388,-11.7231 13.52272,-37.18097 16.820074,-24.85708 33.629614,-43.24559 39.649874,-43.37436 3.39301,-0.0726 3.96483,-9.1953 0.88134,-14.0605 -1.19042,-1.87824 -5.413,-2.9797 -10.14317,-2.64587 -19.81669,1.39856 -29.700124,-0.16384 -36.155344,-5.71574 -12.88091,-11.07833 -12.81566,-20.68978 0.21749,-32.04229 4.89509,-4.26385 9.568914,-5.43235 23.951524,-5.98815 17.2071,-0.66494 17.95246,-0.9399 20.10409,-7.4161 1.76931,-5.3254 1.31066,-7.75024 -2.20301,-11.64747 -3.79881,-4.21347 -6.33366,-4.72675 -17.61144,-3.56622 -7.24564,0.74559 -15.32963,1.94188 -17.964444,2.65835 -2.63478,0.71649 -6.83671,-0.2773 -9.33762,-2.20843 -3.75919,-2.90274 -4.01965,-4.14672 -1.50317,-7.1789 3.51418,-4.23433 17.678974,-4.73576 33.126804,-1.17272 8.32208,1.91952 11.01102,1.67661 13.94761,-1.25997 10.91291,-10.91292 -5.31522,-16.41691 -42.386344,-14.37586 -15.42577,0.84929 -21.67344,0.28183 -25.15021,-2.28438 -3.38469,-2.49823 -3.916507,-4.13494 -1.98202,-6.09979 1.93611,-1.96646 10.39731,-2.01214 31.60583,-0.17054 35.212254,3.05752 41.200884,1.57349 41.200884,-10.20991 0,-8.54022 7.277,-17.70639 11.82536,-14.89534 1.40041,0.86548 2.54618,7.43828 2.54618,14.60619 l 0,13.03255 33.33773,0 c 36.69805,0 40.91526,0.7683 40.91526,7.45406 0,4.2525 -1.5865,4.46347 -24.55139,3.26512 -13.50327,-0.70463 -30.16976,-1.79258 -37.03667,-2.41765 -10.74681,-0.97825 -12.84673,-0.46111 -15.08112,3.71389 -1.42772,2.66772 -2.03051,5.7651 -1.33955,6.88311 0.69096,1.11801 10.90887,2.78784 22.70645,3.71074 18.6179,1.45646 22.26186,2.48972 27.59756,7.82542 7.65342,7.65343 8.27921,20.12917 1.35689,27.05149 -4.12037,4.12037 -7.98419,4.79052 -27.62063,4.79052 -24.88781,0 -26.43557,0.88251 -23.10475,13.17392 1.93592,7.1439 2.08588,7.19973 25.73752,9.58103 13.08462,1.31739 26.21191,3.77864 29.17175,5.46942 9.52817,5.44292 18.82495,28.99692 12.89231,32.66349 -1.14724,0.70904 -2.70075,4.36344 -3.45224,8.12088 -1.4367,7.18354 -13.68202,22.01105 -18.17785,22.01105 -3.57928,0 -3.33365,-8.47526 0.36219,-12.49663 10.78455,-11.73442 12.75968,-29.88123 4.23948,-38.95056 -5.23316,-5.57043 -7.31356,-6.03899 -26.81314,-6.03899 -19.54295,0 -21.1398,0.36185 -21.1398,4.79051 0,4.35501 1.59685,4.79052 17.56524,4.79052 18.60519,0 21.20354,0.84471 19.13995,6.22233 -0.88011,2.29358 -5.29234,3.3587 -13.91321,3.3587 -17.3432,0 -20.56343,4.05105 -13.59618,17.10396 2.84667,5.33311 5.17575,10.74958 5.17575,12.03658 0,1.28699 1.34733,3.71222 2.99407,5.38937 1.64674,1.67716 6.7666,7.5848 11.37747,13.12814 14.2057,17.0784 20.30408,22.8019 30.09297,28.2432 9.10885,5.0632 13.47227,13.4947 9.03278,17.4541 -1.09959,0.9807 -7.62758,-1.2192 -14.50666,-4.8885 z m -68.20736,-129.785 -0.72399,-12.5751 -11.97629,0.76476 c -16.9945,1.08522 -29.940724,4.85255 -29.940724,8.7127 0,5.93411 2.83934,10.88223 6.244414,10.88223 1.83515,0 3.33662,1.07787 3.33662,2.39526 0,1.3704 7.2275,2.39526 16.892,2.39526 l 16.89196,0 -0.72399,-12.57511 z m 50.97465,-27.47427 c 3.16771,-8.33167 -0.67337,-11.41029 -18.9771,-15.21013 -15.4577,-3.20902 -20.37008,-1.30508 -21.51712,8.33959 -1.27081,10.68522 3.06425,13.38631 21.48414,13.38631 15.78803,0 16.64441,-0.29352 19.01008,-6.51577 z m -7.38637,-62.94671 c 0,-5.69824 -1.03909,-7.18577 -5.01958,-7.18577 -2.76075,0 -8.15008,-2.22912 -11.97628,-4.95361 -6.43283,-4.58059 -6.95672,-6.10311 -6.95672,-20.21834 0,-21.98816 6.12767,-24.1413 8.67031,-3.04658 1.40956,11.69429 4.42945,16.24224 10.78505,16.24224 3.87651,0 4.49906,-1.90097 4.51058,-13.77273 0.012,-13.2577 3.65696,-31.73717 6.25848,-31.73717 0.69086,0 2.94506,1.68895 5.00932,3.75321 2.94406,2.94403 3.45336,6.96382 2.36249,18.64571 -1.76602,18.91195 0.35754,23.07879 8.90689,17.47705 5.13356,-3.36364 6.19255,-5.89138 6.19255,-14.78097 0,-8.91599 0.76253,-10.72345 4.52395,-10.72345 5.4374,0 8.48709,12.4083 6.13334,24.95485 -1.19183,6.35301 -3.22916,8.81759 -9.09077,10.99708 -16.45379,6.118 -18.33332,7.17732 -18.33332,10.333 0,3.27432 -7.33756,11.20126 -10.36845,11.20126 -0.88431,0 -1.60784,-3.2336 -1.60784,-7.18578 z m -68.30039,-2.5571 c -1.58396,-7.21174 -3.88013,-9.18735 -12.07625,-10.39027 -5.822874,-0.85463 -14.683554,-9.98751 -15.885274,-16.37329 -0.55999,-2.97582 -0.5689,-10.0477 -0.0192,-15.71531 0.77104,-7.95817 1.8929,-10.13462 4.92659,-9.55775 2.97724,0.56615 4.09968,3.99453 4.63658,14.16187 0.61728,11.69032 1.48716,13.76974 6.766434,16.17515 3.33195,1.51814 7.05519,2.144 8.27387,1.39083 1.21875,-0.75319 2.21583,-9.86513 2.21583,-20.24877 0,-10.38363 1.08615,-19.55059 2.41365,-20.37104 6.14331,-3.79679 11.22957,12.33915 6.29824,19.98093 -1.23622,1.91568 -0.99559,4.274 0.59881,5.86838 1.46609,1.46609 2.66559,4.60577 2.66559,6.97708 0,2.3713 1.50149,4.31146 3.33664,4.31146 3.73533,0 6.2019,-4.97694 6.32928,-12.77101 0.0467,-2.85637 1.58554,-7.88809 3.41968,-11.18157 2.94842,-5.29436 3.52503,-5.498 4.97677,-1.75766 1.87194,4.82292 -0.5339,27.78801 -3.39626,32.41943 -1.04526,1.69127 -5.04223,3.94089 -8.88212,4.99916 -4.78955,1.32001 -6.85103,3.32498 -6.56573,6.38581 0.48999,5.25673 -3.26994,13.04419 -6.29797,13.04419 -1.16637,0 -2.84689,-3.30644 -3.7345,-7.34762 z"
       id="path3132"
       inkscape:connector-curvature="0" />
  </g>
</svg>
