<?xml version="1.0" encoding="UTF-8" standalone="no"?>
<!-- Created with Inkscape (http://www.inkscape.org/) -->

<svg
   xmlns:dc="http://purl.org/dc/elements/1.1/"
   xmlns:cc="http://creativecommons.org/ns#"
   xmlns:rdf="http://www.w3.org/1999/02/22-rdf-syntax-ns#"
   xmlns:svg="http://www.w3.org/2000/svg"
   xmlns="http://www.w3.org/2000/svg"
   xmlns:sodipodi="http://sodipodi.sourceforge.net/DTD/sodipodi-0.dtd"
   xmlns:inkscape="http://www.inkscape.org/namespaces/inkscape"
   width="300"
   height="300"
   id="svg2"
   version="1.1"
   inkscape:version="0.48.4 r9939"
   sodipodi:docname="image-seal.svg">
  <defs
     id="defs4" />
  <sodipodi:namedview
     id="base"
     pagecolor="#ffffff"
     bordercolor="#666666"
     borderopacity="1.0"
     inkscape:pageopacity="0.0"
     inkscape:pageshadow="2"
     inkscape:zoom="1.979899"
     inkscape:cx="169.25456"
     inkscape:cy="173.0828"
     inkscape:document-units="px"
     inkscape:current-layer="layer1"
     showgrid="false"
     inkscape:window-width="1215"
     inkscape:window-height="1000"
     inkscape:window-x="65"
     inkscape:window-y="24"
     inkscape:window-maximized="1"
     fit-margin-top="10"
     fit-margin-left="10"
     fit-margin-right="10"
     fit-margin-bottom="10" />
  <metadata
     id="metadata7">
    <rdf:RDF>
      <cc:Work
         rdf:about="">
        <dc:format>image/svg+xml</dc:format>
        <dc:type
           rdf:resource="http://purl.org/dc/dcmitype/StillImage" />
        <dc:title />
      </cc:Work>
    </rdf:RDF>
  </metadata>
  <g
     inkscape:label="Calque 1"
     inkscape:groupmode="layer"
     id="layer1"
     transform="translate(0,-752.36218)">
    <path
       style="fill:#000000"
       d="m 144.67841,1030.9729 c -1.11584,-3.1871 -1.71045,-22.9621 -1.32134,-43.94426 0.52687,-28.40964 -0.0716,-38.39174 -2.34433,-39.09856 -1.67849,-0.52202 -7.30908,-1.65769 -12.51246,-2.52369 -16.61503,-2.76527 -30.264986,-23.61175 -25.43179,-38.83987 3.44256,-10.84655 11.19195,-3.91879 11.19195,10.00532 0,8.27108 6.93788,13.57896 20.58201,15.74649 l 9.35546,1.48622 -0.0382,-17.93038 c -0.0479,-22.46767 -1.84173,-25.41473 -15.4698,-25.41473 -7.83663,0 -10.6873,-0.99817 -10.6873,-3.74219 0,-3.08224 4.61973,-3.76043 26.19528,-3.84554 14.40742,-0.0568 28.15995,0.82462 30.56118,1.95885 2.67441,1.26327 4.36587,1.06169 4.36587,-0.52034 0,-1.4204 2.24532,-2.58255 4.98958,-2.58255 2.74428,0 4.98958,0.89813 4.98958,1.99583 0,4.72553 -6.14478,7.48215 -13.88025,6.22687 -4.56609,-0.74098 -11.16958,-0.62751 -14.67438,0.25215 -6.24161,1.56653 -6.37242,2.05929 -6.37242,24.00493 0,20.12093 0.46969,22.40559 4.60629,22.40559 13.73676,0 25.33118,-13.11194 25.33118,-28.64657 0,-6.72962 1.92639,-8.8368 6.4809,-7.08907 8.95629,3.43685 -2.38066,40.68585 -12.39966,40.74058 -1.54714,0.008 -5.93502,1.64387 -9.75083,3.63429 -3.81582,1.9904 -8.58712,2.98601 -10.60285,2.2125 -3.475,-1.33348 -5.07699,5.94312 -4.20188,19.08574 0.13696,2.0582 0.4409,18.3367 0.67524,36.17449 0.36831,28.0351 -0.1185,32.5414 -3.59107,33.2375 -2.39655,0.4804 -4.83562,-1.5326 -6.04598,-4.9896 z m 50.31489,-0.8844 c -9.92984,-10.7703 -18.3223,-47.32967 -16.16057,-70.39867 0.6453,-6.88626 4.36939,-2.45065 7.33111,8.73177 1.72624,6.51763 4.21664,15.29792 5.53424,19.51175 1.3176,4.21382 2.39562,9.56713 2.39562,11.89613 0,2.32912 2.83613,9.65872 6.30249,16.28792 3.53534,6.7612 5.60886,13.8609 4.72266,16.1702 -2.01567,5.2528 -3.56565,4.9162 -10.12555,-2.1991 z m -99.738236,-3.0394 c 5.489506,-18.5905 11.521006,-49.46177 11.521006,-58.96847 0,-12.69246 3.51903,-14.97155 7.98445,-5.17107 4.7398,10.40276 -4.27305,58.92424 -12.03723,64.80364 -6.353226,4.811 -9.015016,4.5742 -7.468226,-0.6641 z M 59.484177,901.06229 c 0.06012,-1.71517 13.812517,-12.09973 30.561167,-23.0768 16.748646,-10.97708 36.544346,-25.85226 43.990446,-33.05597 14.48567,-14.01408 20.86802,-16.07325 25.13086,-8.10806 1.46868,2.74426 3.90248,4.98958 5.40843,4.98958 1.50593,0 4.55373,2.03514 6.77288,4.52258 5.27565,5.91342 26.62993,20.42531 30.0559,20.42531 1.46796,0 2.669,1.12266 2.669,2.49479 0,1.37213 1.02164,2.49479 2.27031,2.49479 1.24869,0 8.54595,3.60452 16.21613,8.01008 11.68357,6.71067 13.94582,9.13885 13.94582,14.96873 0,9.01323 -4.93491,8.99379 -15.50561,-0.0611 -4.50718,-3.86087 -12.12418,-9.71786 -16.92665,-13.01556 -4.80247,-3.2977 -10.21526,-7.4361 -12.02846,-9.19643 -1.81316,-1.76032 -4.16452,-3.20059 -5.22523,-3.20059 -1.06071,0 -5.19045,-2.80527 -9.17726,-6.23392 -3.98679,-3.42867 -8.65202,-6.23531 -10.3672,-6.23698 -1.71516,-0.002 -3.11848,-0.9455 -3.11848,-2.09739 0,-3.25351 -12.49618,-8.15864 -15.77939,-6.19389 -1.61234,0.96488 -10.89005,7.71508 -20.61715,15.00044 -9.72708,7.28537 -18.85152,13.24611 -20.27654,13.24611 -1.42501,0 -4.03805,1.74369 -5.80676,3.87486 -3.793316,4.57067 -35.727996,23.56783 -39.618087,23.56783 -1.475768,0 -2.634123,-1.40332 -2.574126,-3.11849 z m 44.797103,-65.48822 c 0,-12.73107 -0.42221,-13.72135 -5.850306,-13.72135 -9.65919,0 -13.97725,-7.45867 -15.64402,-27.02223 -1.26007,-14.79028 -0.88687,-17.88398 2.1575,-17.88398 2.59629,0 4.14903,3.98114 5.26887,13.50909 2.08901,17.77432 3.67883,21.41797 9.3453,21.41797 4.163876,0 4.726706,-1.99244 4.756746,-16.83984 0.0409,-20.2022 1.86043,-28.06637 6.49386,-28.06637 2.68276,0 3.45121,4.99933 3.45121,22.4531 0,17.14521 0.79324,22.45311 3.35552,22.45311 6.52,0 11.92489,-9.5059 13.37087,-23.51621 0.79766,-7.72857 2.35615,-14.61178 3.46332,-15.29606 3.43924,-2.12556 6.59867,7.20471 5.53958,16.35916 -0.55562,4.80247 -1.23936,12.09973 -1.51948,16.21614 -0.42483,6.24296 -2.47488,8.45933 -12.35956,13.36231 -11.38021,5.64481 -11.85025,6.30218 -11.85025,16.57291 0,9.60619 -2.68094,13.72359 -8.93581,13.72359 -0.57383,0 -1.04335,-6.17461 -1.04335,-13.72134 z m 79.68602,10.60285 c -0.0811,-0.34303 -0.46658,-4.7875 -0.85684,-9.87663 -0.87287,-11.38252 -4.58732,-16.13015 -14.28665,-18.26048 -7.99865,-1.75681 -11.19295,-7.25779 -13.44408,-23.15254 -1.5166,-10.70844 4.72619,-21.9995 8.65169,-15.64792 1.19513,1.93376 1.59511,7.07682 0.88887,11.42898 -0.99625,6.13903 0.14769,9.45792 5.10214,14.80395 9.72554,10.49401 12.19376,7.52681 13.4545,-16.17443 0.61681,-11.59571 1.54679,-21.52375 2.06663,-22.0623 0.51987,-0.53858 2.6563,0.44087 4.74766,2.17655 2.80519,2.32808 3.80248,8.2012 3.80248,22.39283 l 0,19.23704 7.48437,0 c 5.57291,0 7.48437,-1.15898 7.48437,-4.53799 0,-8.68342 6.0588,-27.12216 8.6342,-26.27649 4.21668,1.38461 4.58524,23.89973 0.49346,30.14461 -2.00052,3.05317 -8.24062,6.9304 -13.86687,8.61606 -8.85098,2.65184 -10.27157,4.05996 -10.54137,10.44907 -0.17164,4.06132 -0.59252,8.50689 -0.93555,9.87902 -0.34304,1.37213 -0.76404,3.61744 -0.93555,4.98958 -0.26088,2.08709 -7.49043,3.79001 -7.94346,1.87109 z"
       id="path3002"
       inkscape:connector-curvature="0" />
  </g>
</svg>
