<?xml version="1.0" encoding="UTF-8" standalone="no"?>
<!-- Created with Inkscape (http://www.inkscape.org/) -->

<svg
   xmlns:dc="http://purl.org/dc/elements/1.1/"
   xmlns:cc="http://creativecommons.org/ns#"
   xmlns:rdf="http://www.w3.org/1999/02/22-rdf-syntax-ns#"
   xmlns:svg="http://www.w3.org/2000/svg"
   xmlns="http://www.w3.org/2000/svg"
   xmlns:sodipodi="http://sodipodi.sourceforge.net/DTD/sodipodi-0.dtd"
   xmlns:inkscape="http://www.inkscape.org/namespaces/inkscape"
   width="300"
   height="300"
   id="svg2"
   version="1.1"
   inkscape:version="0.48.4 r9939"
   sodipodi:docname="image-seal.svg">
  <defs
     id="defs4" />
  <sodipodi:namedview
     id="base"
     pagecolor="#ffffff"
     bordercolor="#666666"
     borderopacity="1.0"
     inkscape:pageopacity="0.0"
     inkscape:pageshadow="2"
     inkscape:zoom="2.0018437"
     inkscape:cx="232.32812"
     inkscape:cy="141.91078"
     inkscape:document-units="px"
     inkscape:current-layer="layer1"
     showgrid="false"
     inkscape:window-width="1215"
     inkscape:window-height="1000"
     inkscape:window-x="65"
     inkscape:window-y="24"
     inkscape:window-maximized="1"
     fit-margin-top="10"
     fit-margin-left="10"
     fit-margin-right="10"
     fit-margin-bottom="10" />
  <metadata
     id="metadata7">
    <rdf:RDF>
      <cc:Work
         rdf:about="">
        <dc:format>image/svg+xml</dc:format>
        <dc:type
           rdf:resource="http://purl.org/dc/dcmitype/StillImage" />
        <dc:title />
      </cc:Work>
    </rdf:RDF>
  </metadata>
  <g
     inkscape:label="Calque 1"
     inkscape:groupmode="layer"
     id="layer1"
     transform="translate(0,-752.36218)">
    <path
       style="fill:#000000"
       d="m 153.1982,1043.4237 c -0.79837,-2.5155 -1.56189,-13.0937 -1.69669,-23.507 -0.21491,-16.6016 0.52857,-20.15888 6.03701,-28.88484 3.45516,-5.47334 7.22457,-9.95151 8.37648,-9.95151 3.18018,0 28.78565,-26.70499 28.78565,-30.02173 0,-1.59573 0.98291,-3.25832 2.18425,-3.69466 1.20134,-0.43632 3.16159,-6.22051 4.3561,-12.85375 3.25543,-18.07783 -2.90281,-34.93963 -17.54297,-48.03407 -10.70566,-9.57535 -12.07862,-10.11087 -25.73794,-10.03923 -12.45808,0.0655 -22.75895,3.47831 -22.75895,7.54068 0,0.62793 4.55172,2.60693 10.11492,4.39777 5.5632,1.79087 10.65041,3.84262 11.30491,4.55945 0.65449,0.71685 4.93846,4.12106 9.51992,7.56491 15.56564,11.70063 19.03984,15.68117 19.03984,21.81483 0,10.68028 -4.67105,9.61845 -17.93603,-4.07717 -7.0937,-7.32401 -13.79056,-13.31639 -14.8819,-13.31639 -1.09132,0 -4.06041,-1.91391 -6.59797,-4.25312 -5.03106,-4.63785 -19.62629,-11.2774 -21.24092,-9.66277 -0.55258,0.55258 -1.72327,5.49837 -2.60153,10.99065 -1.35628,8.48182 -0.9246,10.20369 2.86599,11.43138 16.36187,5.29922 36.59256,23.61554 36.59256,33.1299 0,8.9254 -7.49813,7.58742 -16.96831,-3.02789 -10.6124,-11.89566 -21.12716,-19.83949 -23.9506,-18.09449 -1.35968,0.84033 -1.6274,8.37039 -0.66337,18.65805 1.42425,15.19886 1.1154,17.44133 -2.59846,18.86646 -7.72994,2.96626 -9.37248,-2.6006 -9.26015,-31.38435 0.0959,-24.60062 0.74679,-28.95267 5.58703,-37.36374 9.43346,-16.39285 16.87544,-22.54141 34.16897,-28.23025 3.61264,-1.18842 4.16497,-4.66012 4.16497,-26.17997 0,-19.8577 0.71259,-25.0833 3.56997,-26.17979 9.07746,-3.48333 10.70991,0.45639 10.70991,25.84709 l 0,24.47714 6.54494,1.63331 c 10.54741,2.63212 32.0119,20.31466 39.08989,32.20245 2.41383,4.05408 3.48082,12.12043 3.34868,25.3153 -0.15636,15.61336 -1.34671,21.68933 -6.14387,31.36012 -3.27247,6.59714 -8.62743,13.58585 -11.8999,15.53049 -7.95035,4.72445 -24.5524,20.67707 -29.7087,28.54657 -3.35446,5.11957 -3.98563,10.33707 -3.28644,27.16637 0.825,19.8572 0.62489,20.8642 -4.28513,21.5636 -3.40161,0.4846 -5.64346,-0.8193 -6.60216,-3.8398 z m 55.78233,-170.63245 c -4.58146,-3.12156 -10.19074,-5.7373 -12.46505,-5.81274 -4.03828,-0.13399 -12.16079,-11.28097 -17.97494,-24.66802 -3.48232,-8.01796 0.0759,-17.13048 5.82738,-14.92345 1.97015,0.75602 4.03,1.37458 4.57744,1.37458 0.54742,0 1.02939,3.48072 1.07101,7.73493 0.0416,4.25422 1.38037,9.38074 2.97498,11.39228 4.3254,5.45637 17.4345,14.19251 21.29668,14.19251 1.86048,0 5.70386,2.47078 8.54087,5.49062 3.99508,4.25257 4.51794,6.13083 2.31884,8.32993 -3.93444,3.93444 -6.57208,3.42695 -16.16721,-3.11064 z M 90.000075,867.4363 c 0.0167,-3.84284 9.48982,-10.09973 15.330795,-10.1263 4.11251,-0.019 20.21472,-15.98185 22.69102,-22.49504 3.07355,-8.08401 6.2657,-7.6461 8.01484,1.09952 2.25598,11.27994 -2.3439,17.55445 -19.76916,26.96623 -17.836745,9.63404 -26.296665,11.10125 -26.267495,4.55559 z M 192.81366,828.30262 c -1.58014,-1.58014 -2.87297,-6.31904 -2.87297,-10.53089 0,-6.48723 -1.3644,-8.32463 -8.92493,-12.0189 -7.7936,-3.80819 -9.32274,-5.9888 -12.06321,-17.20257 -2.70916,-11.08564 -2.65304,-13.32682 0.41045,-16.39031 5.60907,-5.60906 10.96507,-1.90786 10.61752,7.33708 -0.35081,9.33159 1.68726,13.56488 6.53067,13.56488 3.18224,0 4.80437,-5.12293 3.39118,-10.70991 -0.95339,-3.76912 0.15589,-20.87466 1.49415,-23.03997 0.66716,-1.07948 3.29002,-0.85112 5.82855,0.50746 3.88913,2.08141 4.61552,5.07888 4.61552,19.04627 0,12.26485 0.82916,16.57614 3.18794,16.57614 3.87532,0 8.71196,-9.97191 8.71196,-17.96183 0,-7.1156 7.0247,-8.00002 11.14455,-1.40312 3.20014,5.12424 1.48472,22.94089 -2.52826,26.25903 -1.46649,1.21256 -5.86663,2.56717 -9.7781,3.01025 -6.19744,0.702 -7.30009,1.97379 -8.57654,9.8921 -1.80762,11.21333 -6.98917,17.26359 -11.18848,13.06429 z m -72.63614,-3.45804 c -0.89994,-0.89995 -1.63624,-4.67072 -1.63624,-8.37953 0,-5.07336 -1.13665,-6.74327 -4.58996,-6.74327 -4.56439,0 -6.9741,-1.8755 -15.168285,-11.80566 -5.78758,-7.01368 -4.85523,-27.04071 1.313405,-28.21212 3.30486,-0.62757 4.16496,0.87967 4.16496,7.29866 0,7.3674 7.59468,18.43924 12.64829,18.43924 0.89737,0 1.63159,-6.87386 1.63159,-15.27522 0,-17.40379 1.4694,-22.80447 6.20459,-22.80447 2.51242,0 3.31533,3.96412 3.31533,16.36846 0,11.64577 1.02994,17.22322 3.56974,19.33105 3.00555,2.49439 4.13397,1.61218 7.13994,-5.5821 1.9636,-4.69958 3.57021,-11.3351 3.57021,-14.74562 0,-4.62059 1.06144,-5.99909 4.16496,-5.4091 3.24472,0.61685 4.32764,3.65532 4.90124,13.75189 0.92824,16.33904 -2.80067,23.88503 -11.80302,23.88503 -5.38032,0 -6.96241,1.28316 -8.06951,6.54494 -2.43436,11.56989 -7.35104,17.34399 -11.35724,13.33782 z"
       id="path3238"
       inkscape:connector-curvature="0" />
  </g>
</svg>
