<?xml version="1.0" encoding="UTF-8" standalone="no"?>
<!-- Created with Inkscape (http://www.inkscape.org/) -->

<svg
   xmlns:dc="http://purl.org/dc/elements/1.1/"
   xmlns:cc="http://creativecommons.org/ns#"
   xmlns:rdf="http://www.w3.org/1999/02/22-rdf-syntax-ns#"
   xmlns:svg="http://www.w3.org/2000/svg"
   xmlns="http://www.w3.org/2000/svg"
   xmlns:sodipodi="http://sodipodi.sourceforge.net/DTD/sodipodi-0.dtd"
   xmlns:inkscape="http://www.inkscape.org/namespaces/inkscape"
   width="300"
   height="300"
   id="svg2"
   version="1.1"
   inkscape:version="0.48.4 r9939"
   sodipodi:docname="image-seal.svg">
  <defs
     id="defs4" />
  <sodipodi:namedview
     id="base"
     pagecolor="#ffffff"
     bordercolor="#666666"
     borderopacity="1.0"
     inkscape:pageopacity="0.0"
     inkscape:pageshadow="2"
     inkscape:zoom="1.979899"
     inkscape:cx="130.93154"
     inkscape:cy="137.35134"
     inkscape:document-units="px"
     inkscape:current-layer="layer1"
     showgrid="false"
     inkscape:window-width="1215"
     inkscape:window-height="1000"
     inkscape:window-x="65"
     inkscape:window-y="24"
     inkscape:window-maximized="1"
     fit-margin-top="10"
     fit-margin-left="10"
     fit-margin-right="10"
     fit-margin-bottom="10" />
  <metadata
     id="metadata7">
    <rdf:RDF>
      <cc:Work
         rdf:about="">
        <dc:format>image/svg+xml</dc:format>
        <dc:type
           rdf:resource="http://purl.org/dc/dcmitype/StillImage" />
        <dc:title />
      </cc:Work>
    </rdf:RDF>
  </metadata>
  <g
     inkscape:label="Calque 1"
     inkscape:groupmode="layer"
     id="layer1"
     transform="translate(0,-752.36218)">
    <path
       style="fill:#000000"
       d="m 121.26595,1032.5034 c -3.1552,-0.5547 -6.71771,-1.9537 -7.91669,-3.1089 -1.19897,-1.1552 -3.5961,-2.1004 -5.32696,-2.1004 -4.09132,0 -8.211183,-4.2266 -12.83448,-13.1671 -2.722811,-5.2654 -3.678986,-13.1093 -3.550529,-29.12649 0.175544,-21.90126 1.226741,-25.32111 7.090846,-23.07084 2.359473,0.90542 2.904593,5.42093 2.240953,18.56308 -0.48235,9.55165 0.10486,18.34848 1.30485,19.54845 3.00933,3.0093 12.90474,-1.58937 39.13859,-18.18882 1.61502,-1.02189 3.76258,-7.08437 4.77236,-13.47215 l 1.83593,-11.61414 -16.32436,-1.37991 c -31.783023,-2.68667 -37.970679,-9.56122 -37.958219,-42.1722 0.01147,-27.2181 3.439971,-34.74373 18.027299,-39.55799 8.10826,-2.67595 9.50041,-4.07053 9.50041,-9.51677 0,-3.50975 -1.03261,-7.01955 -2.29469,-7.79956 -1.26208,-0.78001 -2.29469,-3.93879 -2.29469,-7.01951 0,-5.87193 -0.94835,-6.20023 -18.35753,-6.35468 -9.584877,-0.0851 -16.4491,-5.32123 -11.271934,-8.59848 1.782286,-1.12821 6.080196,-2.06713 9.550916,-2.08645 5.675408,-0.0317 6.310398,-0.84332 6.310398,-8.06655 0,-6.99596 -0.72567,-8.03142 -5.628737,-8.03142 -11.286024,0 -17.036174,-4.58415 -18.568638,-14.80335 -1.872118,-12.48417 -0.617478,-22.46851 2.971487,-23.64697 2.045533,-0.67168 2.868364,2.45131 2.868364,10.88673 0,13.24252 3.441003,18.38483 12.302273,18.38483 7.066981,0 8.771361,-4.59195 8.076761,-21.76065 -0.29948,-7.40225 0.61546,-13.91984 2.17261,-15.47702 5.06916,-5.06913 7.80064,1.88016 7.73866,19.68813 l -0.0601,17.26927 5.37596,-2.44945 c 4.41271,-2.01058 5.71318,-4.96631 7.25813,-16.49637 1.356,-10.11984 2.8445,-14.04693 5.32423,-14.04693 2.77873,0 3.30644,2.87436 2.73839,14.91549 -0.58129,12.32203 -1.66227,15.78013 -6.21698,19.88813 -3.22232,2.9063 -7.3278,4.49819 -9.8797,3.83085 -5.45228,-1.4258 -6.8172,2.21218 -5.52431,14.72411 0.88447,8.55941 2.03686,10.25241 9.37187,13.76815 12.87996,6.17352 34.89162,4.57522 47.5735,-3.45438 8.3454,-5.28394 9.97174,-7.50791 10.04196,-13.73203 0.0704,-6.24431 -1.10377,-7.92336 -7.37397,-10.54433 -10.56427,-4.41593 -14.05824,-9.62003 -14.20973,-21.16483 -0.1666,-12.7015 3.85838,-13.43323 6.31147,-1.14739 1.10125,5.51522 3.68307,10.26502 6.35783,11.69652 7.53896,4.03471 9.70873,0.44641 8.23808,-13.62395 -1.57909,-15.10794 0.72237,-21.09605 6.32194,-16.44882 2.52811,2.09815 3.61692,6.98791 3.61692,16.24345 0,9.26027 0.9701,13.61392 3.22645,14.47975 4.59349,1.76269 9.8858,-5.04199 11.75501,-15.11423 2.74847,-14.81007 9.33935,-12.75731 8.30595,2.58692 -0.71153,10.5656 -7.83921,20.04931 -16.34737,21.75093 -5.8882,1.17766 -6.94004,2.44006 -6.94004,8.32946 0,4.00462 1.21357,6.9563 2.86836,6.97657 11.15468,0.13653 9.79204,11.39812 -1.39285,11.51129 -11.79285,0.11932 -18.65295,7.82861 -20.1766,22.67416 -0.76757,7.47883 -0.32566,7.99571 9.80948,11.47345 17.85221,6.12577 18.07037,6.56195 18.07037,36.1292 0,34.80215 -3.08425,39.70154 -28.55323,45.35731 -10.35279,2.29901 -11.57565,3.25156 -12.97824,10.1094 -1.29492,6.33144 -0.55765,8.49816 4.50232,13.23183 3.32797,3.11335 8.63235,6.23986 11.78755,6.94784 3.1552,0.70798 11.15794,3.76017 17.78386,6.78267 8.81232,4.01982 12.04712,6.75502 12.04712,10.18649 0,4.9919 -6.33991,8.9031 -8.83667,5.4515 -0.81918,-1.1325 -4.32912,-3.5227 -7.79984,-5.3115 -3.47071,-1.7889 -6.31039,-4.11057 -6.31039,-5.15937 0,-1.0489 -2.06523,-1.907 -4.58939,-1.907 -3.05958,0 -4.58938,-1.5298 -4.58938,-4.58936 0,-4.82959 -3.62079,-6.34781 -5.03322,-2.11048 -0.57404,1.72212 -2.74004,1.60695 -7.09491,-0.37727 -5.11603,-2.33101 -7.42522,-2.26008 -12.55939,0.38581 -3.45993,1.78307 -6.80711,3.76157 -7.43815,4.39663 -0.63104,0.63507 -3.76795,2.50107 -6.9709,4.14657 -3.20297,1.6456 -10.31177,6.54357 -15.79734,10.88447 l -9.97378,7.8925 8.26589,3.4537 c 4.54624,1.8995 13.72709,3.4537 20.40186,3.4537 6.6748,0 15.40743,0.9382 19.40586,2.085 3.99843,1.1467 7.87136,1.4835 8.60653,0.7483 0.73518,-0.7352 3.65258,-1.5115 6.48315,-1.7251 2.83054,-0.2137 12.41363,-1.1785 21.29574,-2.1442 12.64092,-1.3742 16.72515,-1.0618 18.79994,1.4382 1.54853,1.8658 1.85287,4.4846 0.73198,6.2982 -1.47707,2.39 -11.34871,3.2198 -42.89417,3.6056 -22.53655,0.2756 -43.55708,0.047 -46.71228,-0.5073 z m 51.56904,-92.38116 c 10.73498,-4.60155 14.97699,-10.82576 14.97699,-21.97532 l 0,-5.58734 -42.45178,0 -42.45178,0 0,9.28306 c 0,11.62034 7.30648,19.63044 19.82216,21.73111 4.87381,0.81803 9.89409,1.83683 11.15617,2.26397 5.54551,1.87682 29.40386,-1.62428 38.94824,-5.71548 z m 12.64717,-48.78855 c -0.0207,-7.00895 -0.80998,-10.82628 -1.88792,-9.12784 -1.45811,2.29744 -4.01669,1.97557 -12.01199,-1.51112 -9.08014,-3.95981 -12.59654,-4.20473 -33.10612,-2.30589 -26.40294,2.44446 -33.99803,6.28337 -35.13943,17.76111 l -0.71904,7.23087 41.4498,0 41.44983,0 -0.0351,-12.04713 z m -25.43094,-27.30503 c 3.51538,-10.08427 3.38999,-17.50913 -0.23447,-13.88467 -1.5145,1.5145 -8.20678,2.75363 -14.87177,2.75363 -11.00938,0 -12.24975,0.52443 -13.55667,5.73159 -2.56071,10.2027 0.064,12.62594 13.67539,12.62594 11.92193,0 12.57874,-0.31669 14.98752,-7.22649 z"
       id="path3171"
       inkscape:connector-curvature="0" />
  </g>
</svg>
