<?xml version="1.0" encoding="UTF-8" standalone="no"?>
<!-- Created with Inkscape (http://www.inkscape.org/) -->

<svg
   xmlns:dc="http://purl.org/dc/elements/1.1/"
   xmlns:cc="http://creativecommons.org/ns#"
   xmlns:rdf="http://www.w3.org/1999/02/22-rdf-syntax-ns#"
   xmlns:svg="http://www.w3.org/2000/svg"
   xmlns="http://www.w3.org/2000/svg"
   xmlns:sodipodi="http://sodipodi.sourceforge.net/DTD/sodipodi-0.dtd"
   xmlns:inkscape="http://www.inkscape.org/namespaces/inkscape"
   width="300"
   height="300"
   id="svg2"
   version="1.1"
   inkscape:version="0.48.4 r9939"
   sodipodi:docname="image-seal.svg">
  <defs
     id="defs4" />
  <sodipodi:namedview
     id="base"
     pagecolor="#ffffff"
     bordercolor="#666666"
     borderopacity="1.0"
     inkscape:pageopacity="0.0"
     inkscape:pageshadow="2"
     inkscape:zoom="1.979899"
     inkscape:cx="154.69485"
     inkscape:cy="171.68677"
     inkscape:document-units="px"
     inkscape:current-layer="layer1"
     showgrid="false"
     inkscape:window-width="1215"
     inkscape:window-height="1000"
     inkscape:window-x="65"
     inkscape:window-y="24"
     inkscape:window-maximized="1" />
  <metadata
     id="metadata7">
    <rdf:RDF>
      <cc:Work
         rdf:about="">
        <dc:format>image/svg+xml</dc:format>
        <dc:type
           rdf:resource="http://purl.org/dc/dcmitype/StillImage" />
        <dc:title />
      </cc:Work>
    </rdf:RDF>
  </metadata>
  <g
     inkscape:label="Calque 1"
     inkscape:groupmode="layer"
     id="layer1"
     transform="translate(0,-752.36218)">
    <path
       style="fill:#000000"
       d="m 99.862148,1041.7695 c 0,-0.5686 2.225692,-5.4449 4.945942,-10.8361 6.87854,-13.6324 13.49882,-39.96098 14.79276,-58.8302 l 1.08909,-15.8822 -28.899044,0.58413 c -24.247877,0.49014 -28.899043,-0.0313 -28.899043,-3.24037 0,-4.22265 13.709954,-5.80432 73.940587,-8.5302 18.23019,-0.82505 43.61155,-2.27301 56.40305,-3.21769 17.37474,-1.28317 25.27471,-0.82462 31.23352,1.81302 13.95073,6.17521 7.78728,13.41734 -10.56717,12.41655 -4.52547,-0.24682 -14.35943,-0.33241 -21.85321,-0.19047 l -13.62505,0.25833 1.82705,13.28408 c 1.00485,7.30622 2.70798,15.05086 3.78471,17.2103 1.07675,2.15942 4.64936,9.66302 7.93912,16.67462 3.28978,7.0116 6.63572,13.322 7.4354,14.0232 0.7997,0.7012 3.00614,5.1097 4.90321,9.7968 2.93159,7.2431 2.90986,8.8633 -0.14487,10.7971 -7.21811,4.5694 -9.6502,2.9748 -21.96366,-14.4001 -3.05177,-4.3062 -6.92032,-13.4851 -8.59678,-20.3975 -1.67647,-6.91231 -4.03949,-13.65786 -5.25113,-14.99006 -1.21167,-1.33221 -2.20303,-9.07685 -2.20303,-17.21032 l 0,-14.78812 -15.24949,0 c -13.72928,0 -15.37905,0.5719 -16.54947,5.73678 -1.17734,5.19527 -3.20472,16.68675 -8.88407,50.35602 -3.52071,20.8719 -9.75945,30.5962 -19.62953,30.5962 -3.28844,0 -5.979008,-0.4653 -5.979008,-1.0339 z M 139.38212,931.1787 c -6.95179,-0.67334 -13.61608,-2.91155 -24.22192,-8.13491 -2.72507,-1.3421 -4.55749,-9.13659 -6.37418,-27.11355 l -2.54968,-25.22996 -20.397412,0.74105 c -21.335458,0.77512 -31.556112,-2.22677 -24.221919,-7.11416 2.103477,-1.40174 7.840249,-2.37038 12.748374,-2.15254 16.05238,0.71243 30.255737,-2.95816 31.936377,-8.25338 0.85417,-2.69126 2.52925,-4.89321 3.72237,-4.89321 5.07322,0 10.23542,3.35236 10.23542,6.64699 0,2.8296 5.95153,3.55172 29.2727,3.55172 29.0978,0 29.28224,-0.038 30.87252,-6.37419 2.01404,-8.02458 5.78389,-8.01221 13.42558,0.0441 5.2623,5.54778 8.17709,6.33013 23.5845,6.33013 13.927,0 17.58012,0.79473 17.58012,3.82452 0,2.9252 -3.22251,3.8245 -13.7045,3.8245 -7.53748,0 -17.00316,0.6569 -21.03484,1.45979 l -7.33031,1.45979 0.85529,17.88356 c 0.79015,16.52111 -2.7063,32.74007 -7.05804,32.74007 -0.96775,0 -4.05057,2.13438 -6.85068,4.74306 -5.08987,4.74192 -24.25229,7.58941 -40.48977,6.01667 z m 25.49676,-15.58392 c 0,-1.95214 -3.19658,-5.93593 -7.10349,-8.85286 -5.84458,-4.36361 -7.87794,-4.74841 -11.47355,-2.1712 -2.40353,1.7228 -6.09107,3.90184 -8.19455,4.84236 -4.14224,1.85215 -7.54771,5.97365 -7.60999,9.21012 -0.0205,1.11581 7.70559,1.6895 17.17127,1.27485 12.64422,-0.5539 17.21031,-1.6956 17.21031,-4.30327 z M 132.19533,904.4835 c 4.63472,-3.15523 8.43463,-7.60847 8.44422,-9.89608 0.0152,-3.62796 -14.9973,-17.51294 -18.93505,-17.51294 -0.79473,0 -1.44495,7.4578 -1.44495,16.57289 0,9.1151 0.78951,16.5729 1.75449,16.5729 0.96498,0 5.54654,-2.58155 10.18129,-5.73677 z m 48.75228,-14.04711 c 0.42385,-7.34904 -0.14993,-13.34358 -1.27485,-13.32119 -1.12502,0.0229 -5.98541,3.51296 -10.80088,7.75679 l -8.75539,7.71607 6.20571,6.15002 c 9.63864,9.55213 13.7296,7.23005 14.62541,-8.30169 z m -21.92763,-8.84233 c 3.64719,-1.72121 7.90139,-5.16327 9.4538,-7.64902 2.6136,-4.18505 1.31111,-4.51959 -17.59652,-4.51959 -22.40255,0 -25.13202,2.30069 -12.13255,10.22665 9.7226,5.92799 11.47356,6.09568 20.27527,1.94196 z M 99.862148,838.66172 c 0,-8.13892 -4.754094,-15.13043 -10.288403,-15.13043 -2.7553,0 -5.009647,-1.14736 -5.009647,-2.54968 0,-1.40232 -1.643737,-2.54967 -3.652697,-2.54967 -4.122647,0 -5.515284,-3.68024 -7.968599,-21.05799 -1.141522,-8.08588 -0.680186,-13.37863 1.382805,-15.86441 4.73649,-5.70709 9.74721,0.84486 10.712414,14.00745 0.758463,10.34302 7.097188,18.74339 11.113049,14.72753 0.898093,-0.89808 2.117225,-11.67852 2.709201,-23.95653 0.59202,-12.27799 1.605569,-22.85282 2.252349,-23.49961 0.64679,-0.64679 2.92473,0.27535 5.06209,2.04921 2.87991,2.39012 3.88614,8.42584 3.88614,23.31041 0,18.2243 0.46136,20.08524 4.97951,20.08524 5.11677,0 10.27354,-12.4408 10.30431,-24.85935 0.0101,-4.03224 1.52936,-5.73677 5.11359,-5.73677 4.4242,0 5.09935,1.69978 5.09935,12.83808 0,15.03908 -4.46971,23.02753 -17.03126,30.43902 -4.93029,2.90893 -8.42906,6.69567 -7.77502,8.41495 1.89503,4.98158 -2.70495,14.59952 -6.98251,14.59952 -2.24833,0 -3.906672,-2.23579 -3.906672,-5.26697 z m 81.589632,-6.92479 c 0,-6.18626 -1.44136,-7.51798 -11.28184,-10.42351 -6.20501,-1.83212 -12.96614,-5.23782 -15.02475,-7.56825 -4.64366,-5.25672 -7.89357,-33.42243 -4.45812,-38.63641 3.98108,-6.04202 7.75503,-0.0289 9.56308,15.23742 1.00703,8.50279 3.51401,15.49749 6.69438,18.67786 4.83845,4.83844 5.24465,4.86534 8.39583,0.55588 2.19129,-2.99679 2.91134,-9.51083 2.12877,-19.25794 -1.41168,-17.58286 2.24442,-30.04989 7.52685,-25.66588 3.76218,3.12234 7.98846,25.30837 6.96549,36.56552 -0.49225,5.41646 0.46692,7.01162 4.21599,7.01162 6.14054,0 10.77107,-9.95108 10.77107,-23.14709 0,-6.80414 1.29925,-10.65731 3.93448,-11.66854 5.82198,-2.23411 6.45069,-0.57786 6.80849,17.93622 0.27562,14.26213 -0.56483,17.84748 -5.38678,22.98021 -3.14236,3.34487 -9.07507,6.75392 -13.1838,7.57568 -6.28514,1.25701 -7.47044,2.71782 -7.47044,9.20684 0,6.01299 -1.12382,7.71278 -5.09935,7.71278 -3.87722,0 -5.09935,-1.69979 -5.09935,-7.09241 z"
       id="path3483"
       inkscape:connector-curvature="0" />
  </g>
</svg>
