<?xml version="1.0" encoding="UTF-8" standalone="no"?>
<!-- Created with Inkscape (http://www.inkscape.org/) -->

<svg
   xmlns:dc="http://purl.org/dc/elements/1.1/"
   xmlns:cc="http://creativecommons.org/ns#"
   xmlns:rdf="http://www.w3.org/1999/02/22-rdf-syntax-ns#"
   xmlns:svg="http://www.w3.org/2000/svg"
   xmlns="http://www.w3.org/2000/svg"
   xmlns:sodipodi="http://sodipodi.sourceforge.net/DTD/sodipodi-0.dtd"
   xmlns:inkscape="http://www.inkscape.org/namespaces/inkscape"
   width="300"
   height="300"
   viewBox="0 0 300 300"
   id="svg2"
   version="1.1"
   inkscape:version="0.91 r13725"
   sodipodi:docname="èˆ-seal.svg">
  <defs
     id="defs4">
    <clipPath
       clipPathUnits="userSpaceOnUse"
       id="clipPath4204">
      <rect
         style="fill:#0000ff;fill-rule:evenodd;stroke:#000000;stroke-width:1px;stroke-linecap:butt;stroke-linejoin:miter;stroke-opacity:1"
         id="rect4206"
         width="15.451179"
         height="21.584471"
         x="164.41942"
         y="794.64594" />
    </clipPath>
  </defs>
  <sodipodi:namedview
     id="base"
     pagecolor="#ffffff"
     bordercolor="#666666"
     borderopacity="1.0"
     inkscape:pageopacity="0.0"
     inkscape:pageshadow="2"
     inkscape:zoom="1.7233333"
     inkscape:cx="150"
     inkscape:cy="150"
     inkscape:document-units="px"
     inkscape:current-layer="layer1"
     showgrid="false"
     inkscape:window-width="1280"
     inkscape:window-height="755"
     inkscape:window-x="0"
     inkscape:window-y="1"
     inkscape:window-maximized="1"
     units="px"
     showguides="false" />
  <metadata
     id="metadata7">
    <rdf:RDF>
      <cc:Work
         rdf:about="">
        <dc:format>image/svg+xml</dc:format>
        <dc:type
           rdf:resource="http://purl.org/dc/dcmitype/StillImage" />
        <dc:title></dc:title>
      </cc:Work>
    </rdf:RDF>
  </metadata>
  <g
     inkscape:label="Layer 1"
     inkscape:groupmode="layer"
     id="layer1"
     transform="translate(0,-752.36216)">
    <path
       style="fill:#000000"
       d="m 99.777829,1035.929 c -2.394349,-2.3943 -3.326152,-5.6254 -4.405122,-15.2752 -0.566217,-5.0639 -1.522853,-12.3182 -2.125863,-16.1206 -1.529427,-9.64418 -2.140326,-32.69698 -1.046201,-39.47938 1.011951,-6.2731 3.373641,-14.3178 5.769663,-19.6534 2.516124,-5.6031 8.531974,-10.58915 18.463774,-15.3031 9.33527,-4.43081 9.74007,-4.97543 10.19137,-13.71138 l 0.30358,-5.87648 -3.00219,-1.14641 c -1.65122,-0.63053 -5.19865,-1.78819 -7.88318,-2.57258 -9.03106,-2.63878 -12.91886,-7.15315 -15.84983,-18.40424 -3.121472,-11.98235 -1.276284,-39.00543 3.65852,-53.5797 1.08795,-3.21309 1.86436,-4.20776 5.00944,-6.41764 4.82266,-3.38863 14.92039,-6.50949 22.95162,-7.09357 3.32712,-0.24196 6.04932,-0.58485 6.04932,-0.76198 0,-0.17712 -1.14423,-2.95656 -2.54272,-6.17653 l -2.54273,-5.8545 -3.83733,-1.11555 c -5.39594,-1.56864 -15.66949,-0.89971 -33.049263,2.15188 -7.68478,1.34932 -15.180925,2.45331 -16.658107,2.45331 -3.257946,0 -4.974139,-1.63413 -4.974139,-4.73629 0,-1.87419 0.486122,-2.51596 3.218165,-4.24858 1.769994,-1.12249 4.824009,-2.50773 6.786706,-3.0783 3.988494,-1.15948 16.623298,-2.35903 30.957668,-2.9391 5.22835,-0.21159 9.50608,-0.5072 9.50608,-0.65693 0,-0.8933 -4.36772,-9.60148 -6.80153,-13.56063 -4.1396,-6.73398 -4.80956,-10.8919 -2.28954,-14.20936 2.34216,-3.08333 7.21346,0.002 10.46281,6.62682 2.00798,4.09386 19.99315,34.74502 21.12088,35.99516 0.66576,0.73802 2.72657,-2.49218 10.36517,-16.24674 5.2438,-9.44236 10.29579,-18.17419 11.22664,-19.40408 1.73364,-2.29055 4.88507,-4.51687 7.5212,-5.31334 4.05738,-1.22587 4.97722,5.22135 1.6196,11.35193 -2.86007,5.22212 -6.90472,13.04618 -6.90472,13.35664 0,0.14052 6.18227,0.46806 13.73837,0.72787 23.73459,0.81609 35.18096,2.26346 39.31339,4.97113 2.18527,1.43185 2.19099,5.44833 0.009,6.61927 -2.53645,1.36141 -14.61481,1.49194 -26.0985,0.28205 -5.89377,-0.62095 -16.03286,-1.31638 -22.53131,-1.54538 l -11.81537,-0.41638 -3.85527,7.17376 c -2.1204,3.94557 -3.72453,7.3853 -3.56473,7.64385 0.43523,0.70422 8.53503,1.87117 18.26075,2.63086 11.45528,0.89478 16.1152,2.28918 19.72983,5.90382 3.91304,3.91304 5.31766,9.68609 7.59175,31.20252 0.60928,5.76473 -0.71343,16.0363 -3.5061,27.22668 l -2.3292,9.33324 -4.01685,3.80243 c -4.72374,4.47159 -10.99626,7.95047 -15.49097,8.59167 l -3.20668,0.45745 -0.49392,4.61217 c -0.29642,2.76797 -0.2311,4.69978 0.16337,4.83127 0.36151,0.12051 4.71022,2.57577 9.6638,5.45615 10.03457,5.83482 14.92979,9.33532 17.03547,12.18182 1.97688,2.67242 2.35302,9.70482 0.81665,15.26832 -1.12553,4.0757 -1.37958,4.3958 -6.03071,7.5989 l -4.85569,3.3441 0.4644,3.2238 c 0.98834,6.8608 3.38331,14.5499 7.1057,22.8129 3.11336,6.911 4.77088,9.6128 8.42008,13.72468 5.35177,6.0305 9.52432,12.5965 10.16082,15.9893 0.55936,2.9817 -0.85052,4.2766 -4.65629,4.2766 -2.31517,0 -3.0454,-0.5098 -7.18059,-5.0123 -7.64617,-8.3255 -17.24502,-23.61398 -20.93108,-33.33788 -0.58069,-1.5319 -1.72355,-6.511 -2.53969,-11.0647 -1.47497,-8.2296 -1.49694,-8.2832 -3.65558,-8.9022 -2.40937,-0.691 -14.25333,1.0109 -17.39241,2.4992 -2.7786,1.3174 -5.07777,6.7984 -5.45302,12.9995 -0.44566,7.3645 1.28406,13.534 9.26881,33.05948 7.41017,18.1205 7.99199,20.8145 4.98328,23.0745 -4.00216,3.0061 -6.70268,-0.042 -13.09349,-14.7762 -6.44641,-14.8629 -10.88452,-30.07538 -11.48692,-39.37358 -0.35147,-5.4251 -0.18684,-6.5546 1.86635,-12.8045 1.32632,-4.0373 2.85711,-7.3619 3.72455,-8.089 3.7487,-3.1422 8.16234,-4.6912 17.21172,-6.0404 9.4049,-1.4022 20.39761,-3.2152 23.14949,-3.818 1.41367,-0.3097 1.55333,-0.7336 1.53124,-4.6485 l -0.0243,-4.3078 -10.17313,-5.8147 c -15.46726,-8.84067 -18.11298,-11.39158 -18.13386,-17.48408 -0.006,-1.63491 -0.4026,-3.75034 -0.88222,-4.70095 -0.83426,-1.65355 -1.29026,-1.76335 -10.53291,-2.53608 -14.18379,-1.18586 -13.21449,-1.27924 -13.76665,1.32621 -0.26189,1.23579 -0.7422,4.95841 -1.06737,8.27248 -0.4321,4.40387 -1.07969,6.91579 -2.40621,9.33323 -1.6509,3.00862 -2.67261,3.79002 -11.3008,8.64289 -9.85559,5.5431 -13.54321,8.6385 -15.88201,13.3312 -3.24592,6.5129 -5.33434,25.8623 -4.27234,39.5838 0.59401,7.6747 1.38066,14.14188 3.68354,30.28248 0.62805,4.4019 0.78875,8.0652 0.43795,9.9836 -0.85556,4.6787 -4.10843,6.2632 -6.974324,3.3973 z M 159.88612,901.16233 c 10.41008,-1.0965 20.08144,-4.59355 24.91616,-9.00938 2.20714,-2.01591 2.86977,-4.96641 1.32919,-5.91854 -0.74763,-0.46205 -73.9239,-0.42319 -74.3866,0.0395 -0.1109,0.1109 0.84701,2.50274 2.12869,5.31521 l 2.33033,5.11357 4.7801,1.17661 c 9.54505,2.34946 15.50367,3.10167 30.70576,3.87623 0.9506,0.0485 4.63897,-0.21851 8.19637,-0.59321 z m 11.00959,-26.02489 20.24298,-0.45626 -0.1938,-8.01152 -0.19382,-8.01152 -40.27119,-0.17841 -40.27119,-0.17841 0,8.64746 0,8.64746 20.22202,-10e-4 c 11.1221,-6.9e-4 29.33135,-0.20659 40.465,-0.45753 z m -10.80044,-27.88659 29.61878,0 0,-1.64395 c 0,-2.12023 -1.54229,-5.7903 -3.455,-8.22162 -1.57296,-1.99944 -4.32403,-3.66891 -7.9119,-4.80128 -5.80482,-1.83207 -39.65775,-1.71301 -52.53412,0.18477 -2.87538,0.42378 -6.35418,1.53947 -8.70188,2.79079 -3.90775,2.0828 -3.91213,2.0888 -4.71557,6.44921 -0.44231,2.40046 -0.80419,4.76572 -0.80419,5.25613 0,0.70656 1.96018,0.79765 9.44255,0.4388 5.1934,-0.24907 22.771,-0.45285 39.06133,-0.45285 z"
       id="path4257"
       inkscape:connector-curvature="0" />
  </g>
</svg>
