<?xml version="1.0" encoding="UTF-8" standalone="no"?>
<!-- Created with Inkscape (http://www.inkscape.org/) -->

<svg
   xmlns:dc="http://purl.org/dc/elements/1.1/"
   xmlns:cc="http://creativecommons.org/ns#"
   xmlns:rdf="http://www.w3.org/1999/02/22-rdf-syntax-ns#"
   xmlns:svg="http://www.w3.org/2000/svg"
   xmlns="http://www.w3.org/2000/svg"
   xmlns:sodipodi="http://sodipodi.sourceforge.net/DTD/sodipodi-0.dtd"
   xmlns:inkscape="http://www.inkscape.org/namespaces/inkscape"
   version="1.0"
   width="300"
   height="300"
   id="svg2"
   inkscape:version="0.48.3.1 r9886"
   sodipodi:docname="dessin.svg">
  <metadata
     id="metadata2990">
    <rdf:RDF>
      <cc:Work
         rdf:about="">
        <dc:format>image/svg+xml</dc:format>
        <dc:type
           rdf:resource="http://purl.org/dc/dcmitype/StillImage" />
      </cc:Work>
    </rdf:RDF>
  </metadata>
  <sodipodi:namedview
     pagecolor="#ffffff"
     bordercolor="#666666"
     borderopacity="1"
     objecttolerance="10"
     gridtolerance="10"
     guidetolerance="10"
     inkscape:pageopacity="0"
     inkscape:pageshadow="2"
     inkscape:window-width="1215"
     inkscape:window-height="1000"
     id="namedview2988"
     showgrid="false"
     inkscape:zoom="2.2250294"
     inkscape:cx="136.51293"
     inkscape:cy="138.64666"
     inkscape:window-x="65"
     inkscape:window-y="24"
     inkscape:window-maximized="1"
     inkscape:current-layer="svg2" />
  <defs
     id="defs5" />
  <path
     style="fill:#000000"
     d="m 187.83542,259.5748 0,-30.31376 -7.0191,1.38103 c -4.68347,0.92149 -9.59147,-0.20512 -14.74972,-3.38597 -7.01771,-4.32737 -7.73062,-6.25104 -7.73062,-20.85953 0,-12.62206 1.01847,-16.39891 4.72262,-17.51321 6.97007,-2.09674 9.81992,3.40973 7.9998,15.45716 -1.75385,11.60882 4.07315,19.40445 13.44765,17.99084 3.91358,-0.59013 4.8623,-4.05142 5.11704,-18.66825 0.17197,-9.86912 1.18971,-18.63136 2.26163,-19.47164 4.49574,-3.52437 8.38247,4.47098 9.16417,18.8516 0.92989,17.10687 2.45554,19.59924 9.79008,15.99366 3.6448,-1.79174 5.42518,-6.79024 6.49588,-18.23732 1.54816,-16.55147 5.95386,-21.2258 11.85657,-12.57957 8.28223,12.13168 -6.95863,49.0823 -16.99844,41.2118 -5.58937,-4.38168 -9.07195,5.14374 -10.8945,29.79804 -1.92644,26.06016 -3.32947,30.65889 -9.35375,30.65889 -3.30347,0 -4.10931,-5.94465 -4.10931,-30.31377 z m -78.91101,19.53205 c -2.57686,-0.81514 -3.68742,-7.60734 -3.68742,-22.55209 0,-20.99265 -0.14898,-21.44599 -8.112358,-24.66713 -14.870604,-6.01519 -21.387091,-14.34628 -21.387091,-27.34266 0,-11.32842 2.380898,-16.4083 7.690479,-16.4083 3.053156,0 4.109302,3.54519 4.109302,13.79388 0,11.47414 1.002456,14.21448 5.960859,16.29476 7.787099,3.26704 12.686859,0.71987 10.560179,-5.48979 -2.79503,-8.16135 4.10332,-31.39893 8.89341,-29.95796 3.00259,0.90323 4.085,6.06531 4.085,19.48179 0,16.36253 0.57788,18.25292 5.58008,18.25292 5.91005,0 7.36179,-2.88398 10.76785,-21.39102 1.6417,-8.92022 3.1319,-10.98458 7.92943,-10.98458 5.38838,0 5.75654,1.08726 4.18753,12.36724 -2.46177,17.69815 -5.94656,23.31224 -17.90316,28.8425 -11.459,5.30013 -11.15096,4.23422 -10.98034,37.99486 0.0664,13.1583 -0.50892,14.03829 -7.69375,11.76558 z m -25.812,-101.95261 c -32.112738,-0.80035 -36.007752,-1.60726 -30.926387,-6.40702 3.137502,-2.96362 17.34897,-3.3743 99.155337,-2.86538 74.06024,0.46073 95.49294,1.24332 95.49294,3.4868 0,2.02808 -6.83381,3.0262 -22.86206,3.33913 -23.36899,0.45629 -40.96438,0.9207 -87.76084,2.31634 -14.60223,0.43549 -38.496774,0.49405 -53.09899,0.13021 z m 48.11464,-23.10837 c -1.04723,-9.89729 -4.60542,-11.15265 -24.86148,-8.77143 -11.898507,1.39877 -12.928365,2.06119 -12.928365,8.31577 0,5.25423 -1.338417,6.79594 -5.899883,6.79594 -5.408221,0 -5.899883,-1.54171 -5.899883,-18.50035 0,-19.1581 0.110105,-19.36207 15.949635,-29.52954 3.146826,-2.01995 4.223236,-5.77978 3.451936,-12.05729 -0.93655,-7.622425 -0.1145,-9.372441 5.00125,-10.645266 4.00576,-0.99666 7.33191,-0.226167 9.62198,2.229014 2.35791,2.527888 7.9659,3.752217 17.18693,3.752217 11.7204,0 13.68703,0.664556 13.68703,4.625085 0,3.92721 -1.96663,4.62509 -13.03348,4.62509 -15.83541,0 -22.36585,1.76028 -22.36585,6.02878 0,2.31457 4.06313,3.22139 14.43411,3.22139 17.28877,0 18.01528,0.9792 18.01528,24.2817 0,18.847 -1.68142,24.28171 -7.51239,24.28171 -2.41146,0 -4.28518,-3.34511 -4.84682,-8.65282 z m -4.91228,-16.78516 c 4.81795,0 5.68302,-1.3212 4.92113,-7.51576 -0.92215,-7.49754 -0.96014,-7.51394 -15.6741,-6.75827 -14.41045,0.74011 -22.124595,4.61054 -22.124595,11.1007 0,2.8309 15.399595,5.46111 23.103345,3.946 2.16077,-0.42497 6.55918,-0.77267 9.77422,-0.77267 z m 51.65229,18.55501 c -1.06227,-4.16375 -1.93142,-16.28582 -1.93142,-26.93797 0,-17.40485 -0.56128,-19.36756 -5.53869,-19.36756 -6.15535,0 -13.19879,-5.35321 -10.16875,-7.72854 3.55494,-2.786844 55.61487,-1.68769 59.36662,1.25342 2.30989,1.81077 3.53993,11.3289 3.53993,27.3921 0,20.62872 -0.84731,25.21817 -5.22978,28.32729 -6.51663,4.6232 -16.31301,1.40684 -10.23277,-3.35961 2.36091,-1.85078 3.66277,-10.08893 3.66277,-23.17768 0,-19.88551 -0.15722,-20.33727 -7.59086,-21.79986 -4.17496,-0.82144 -8.75051,-0.58109 -10.16786,0.53409 -1.41736,1.11517 -3.50245,11.65947 -4.63345,23.43175 -2.29561,23.89382 -7.75336,34.45506 -11.07574,21.43257 z M 189.3703,79.595112 c -1.05362,-2.602419 -1.04129,-5.84079 0.0265,-7.196357 1.06871,-1.355567 1.1291,-5.007141 0.13429,-8.114598 -1.37584,-4.297145 -3.77315,-5.649913 -10.01258,-5.649913 -11.97529,0 -15.28896,-3.997878 -15.23835,-18.384719 0.0501,-14.253938 3.07862,-19.945916 9.57287,-17.992325 3.27458,0.985073 3.96991,4.101456 2.88678,12.93824 -1.08787,8.875424 -0.25665,12.557988 3.49947,15.502479 7.10337,5.568534 8.72872,2.851921 9.18986,-15.359981 0.42589,-16.819728 3.57062,-22.245278 11.50948,-19.857091 3.87611,1.166029 4.37223,4.268584 2.97823,18.625777 -1.6609,17.106392 -1.62504,17.217254 5.13479,15.876766 9.62974,-1.909582 11.13602,-4.597082 11.18714,-19.959884 0.0452,-13.561518 0.0537,-13.574675 6.68252,-10.12413 5.56284,2.89572 6.65642,5.589694 6.75485,16.640598 0.0977,10.9458 -1.09826,14.138544 -7.03965,18.796167 -3.93641,3.085857 -9.52245,5.610646 -12.41346,5.610646 -8.39392,0 -14.32204,2.471069 -12.94165,5.394609 1.86822,3.956669 -2.90881,16.133411 -6.71997,17.129285 -1.80194,0.47088 -4.13836,-1.273125 -5.19198,-3.875569 z m -82.37704,-0.465677 c -0.69494,-1.733112 -2.02572,-5.895158 -2.95729,-9.248992 C 102.69348,65.047366 99.559439,63.138476 88.925983,60.677191 74.380548,57.310405 74.292362,57.181412 71.514322,35.203949 70.316608,25.728696 70.967696,21.464645 73.903885,19.554368 82.103106,14.219932 86.034554,18.854454 86.891909,34.865 c 0.827241,15.449176 3.698305,19.725624 12.445194,18.537092 3.461457,-0.470349 4.611107,-5.034453 5.280067,-20.961794 0.74596,-17.760355 1.4994,-20.264099 5.89988,-19.60551 4.14938,0.621011 5.19766,3.931485 5.90629,18.652141 0.81845,17.000476 1.20553,17.897142 7.72639,17.897142 5.64097,0 7.19078,-1.546027 8.69327,-8.672037 1.00567,-4.76962 1.8431,-12.054131 1.86094,-16.187802 0.0265,-5.965599 1.24937,-7.515766 5.93237,-7.515766 5.31953,0 5.89989,1.541679 5.89989,15.672822 0,14.635184 -0.60601,16.089704 -9.15317,21.969161 -5.03423,3.462987 -11.67161,6.296338 -14.74972,6.296338 -4.39079,0 -5.59654,1.682815 -5.59654,7.810731 0,8.332579 -7.68081,16.264509 -10.04351,10.371917 z"
     id="path3014"
     inkscape:connector-curvature="0" />
</svg>
