<?xml version="1.0" encoding="UTF-8" standalone="no"?>
<!-- Created with Inkscape (http://www.inkscape.org/) -->

<svg
   xmlns:dc="http://purl.org/dc/elements/1.1/"
   xmlns:cc="http://creativecommons.org/ns#"
   xmlns:rdf="http://www.w3.org/1999/02/22-rdf-syntax-ns#"
   xmlns:svg="http://www.w3.org/2000/svg"
   xmlns="http://www.w3.org/2000/svg"
   xmlns:sodipodi="http://sodipodi.sourceforge.net/DTD/sodipodi-0.dtd"
   xmlns:inkscape="http://www.inkscape.org/namespaces/inkscape"
   width="300"
   height="300"
   id="svg2"
   version="1.1"
   inkscape:version="0.48.4 r9939"
   sodipodi:docname="dessin.svg">
  <defs
     id="defs4" />
  <sodipodi:namedview
     id="base"
     pagecolor="#ffffff"
     bordercolor="#666666"
     borderopacity="1.0"
     inkscape:pageopacity="0.0"
     inkscape:pageshadow="2"
     inkscape:zoom="1.979899"
     inkscape:cx="156.32962"
     inkscape:cy="101.52144"
     inkscape:document-units="px"
     inkscape:current-layer="layer1"
     showgrid="false"
     inkscape:window-width="1215"
     inkscape:window-height="1000"
     inkscape:window-x="65"
     inkscape:window-y="24"
     inkscape:window-maximized="1" />
  <metadata
     id="metadata7">
    <rdf:RDF>
      <cc:Work
         rdf:about="">
        <dc:format>image/svg+xml</dc:format>
        <dc:type
           rdf:resource="http://purl.org/dc/dcmitype/StillImage" />
        <dc:title />
      </cc:Work>
    </rdf:RDF>
  </metadata>
  <g
     inkscape:label="Calque 1"
     inkscape:groupmode="layer"
     id="layer1"
     transform="translate(0,-752.36218)">
    <path
       style="fill:#000000"
       d="m 229.18163,1027.7001 c -9.06781,-7.8984 -12.35734,-14.9109 -18.83407,-40.14962 -3.56917,-13.90832 -7.42278,-16.25259 -20.92974,-12.73218 -5.94306,1.54896 -19.90967,3.50217 -31.03689,4.34047 -17.44344,1.31413 -20.23137,0.99114 -20.23137,-2.34379 0,-2.89333 3.08721,-3.87686 12.25225,-3.90339 19.69664,-0.0569 49.82579,-9.14979 49.82579,-15.03709 0,-1.72261 -3.18552,-6.05097 -7.07892,-9.61858 -6.33849,-5.80808 -8.64533,-6.36342 -22.05404,-5.30928 -17.84858,1.40318 -23.4059,0.26432 -20.97652,-4.29879 1.31663,-2.4731 7.62464,-3.37062 23.5041,-3.34424 23.74123,0.0395 27.00967,0.91677 32.76574,8.79508 5.12176,7.01013 7.72969,6.6846 12.81737,-1.59997 8.37845,-13.64296 -11.26625,-22.28719 -47.87192,-21.065 -14.06306,0.46954 -18.48115,-0.17051 -18.48115,-2.67699 0,-4.61247 12.06692,-6.53148 42.78486,-6.80411 21.74293,-0.19312 27.41059,0.53146 31.85582,4.07188 2.97404,2.36865 5.40729,5.19948 5.40729,6.29073 0,1.09126 2.22606,3.75705 4.94678,5.92397 4.36317,3.47503 4.38607,4.88614 0.19441,11.96027 -2.61388,4.41123 -8.66783,11.00674 -13.4532,14.65672 -7.02064,5.35486 -8.31497,8.08321 -6.70306,14.1298 1.09869,4.12142 2.91617,12.02172 4.03887,17.55619 1.12267,5.53449 3.31649,10.63076 4.87511,11.3251 1.55866,0.69431 2.83394,3.20362 2.83394,5.57612 0,2.3726 2.84033,8.8865 6.31186,14.4754 8.16499,13.1449 4.0052,19.1609 -6.76324,9.7813 z m -168.304373,-8.9053 c -1.170759,-2.1991 -1.079472,-22.68714 0.202897,-45.52901 4.079376,-72.66494 5.355668,-83.19874 10.532713,-86.93023 2.655665,-1.91412 14.924538,-4.62608 27.264245,-6.02655 20.210548,-2.29379 22.593918,-3.13979 24.029948,-8.52968 2.59218,-9.72932 -2.80956,-11.86734 -30.082425,-11.90681 -25.613198,-0.0369 -35.61877,-2.17375 -31.68152,-6.76557 1.411654,-1.64631 14.713929,-2.61825 35.834051,-2.61825 32.823134,0 33.675474,0.13676 37.380704,5.99822 2.08547,3.29902 3.79173,11.27328 3.79173,17.72055 0,10.27984 -0.98711,11.99284 -8.02162,13.92058 -4.4119,1.209 -15.4128,1.56726 -24.44646,0.79611 -20.926962,-1.78644 -26.342683,1.21262 -26.342683,14.58774 0,11.89009 2.625313,13.0038 24.545523,10.41283 23.45301,-2.77214 26.81265,-2.61811 28.91226,1.3256 4.09717,7.69579 -0.71524,9.43158 -24.70033,8.90907 -12.89619,-0.28095 -25.056916,0.45188 -27.023907,1.62851 -1.966958,1.17662 -3.021044,6.33606 -2.342368,11.46542 1.441811,10.89725 6.612585,12.39281 37.365545,10.80737 15.0634,-0.7766 18.78678,-0.27339 18.78678,2.53904 0,1.92916 -1.83784,3.54055 -4.08408,3.58089 -13.77734,0.24743 -50.093674,2.99621 -51.459423,3.89501 -0.898498,0.5913 -3.103901,14.95665 -4.900896,31.92305 -2.204391,20.81271 -4.59531,31.16451 -7.349615,31.82111 -2.245296,0.5353 -5.040278,-0.826 -6.211036,-3.025 z M 155.3027,890.19905 c -2.24624,-1.63507 -4.08408,-3.66965 -4.08408,-4.52133 0,-1.4752 24.74709,-4.12796 54.75541,-5.8695 15.67391,-0.90964 20.41433,-2.42383 20.34165,-6.49757 -0.12708,-7.12502 -6.62156,-9.057 -37.53125,-11.16482 -17.62667,-1.202 -32.76426,-2.70138 -33.6391,-3.33192 -0.87485,-0.63057 -0.01,-2.51888 1.92098,-4.19624 2.38125,-2.06807 14.6067,-3.23708 37.98038,-3.63172 30.53648,-0.51555 35.20083,-0.0544 40.88534,4.04296 4.98379,3.59222 6.00357,6.62522 4.56702,13.58341 -3.47791,16.84606 -7.3289,18.91878 -37.67264,20.27653 -14.90682,0.66705 -30.77897,1.90359 -35.27146,2.74793 -4.91097,0.92296 -9.79676,0.34963 -12.25225,-1.43773 z M 92.407863,840.04464 c 0,-9.53969 -5.865262,-17.81556 -12.626246,-17.81556 -3.439383,0 -9.517084,-1.90484 -13.505989,-4.23297 -6.163368,-3.59722 -7.321777,-6.7507 -7.713293,-20.99778 -0.495612,-18.03327 0.647343,-20.41487 8.725099,-18.18066 3.838545,1.06168 5.475675,5.28372 6.185357,15.95147 0.912678,13.71931 1.408942,14.50761 9.133278,14.50761 8.059263,0 8.189955,-0.31398 9.801794,-23.54968 0.898498,-12.95232 2.736334,-23.28475 4.084081,-22.96094 1.347746,0.3238 4.029716,0.58874 5.959946,0.58874 2.08334,0 3.29308,4.5457 2.97694,11.18609 -1.23607,25.96279 -0.0977,33.55831 5.02985,33.55831 5.81302,0 10.8484,-8.45579 13.57561,-22.79722 2.06923,-10.88137 4.36415,-12.27101 10.89618,-6.59806 5.13953,4.46361 2.21853,25.37356 -4.59097,32.86433 -2.61405,2.87557 -9.2775,6.57915 -14.8077,8.23022 -8.48065,2.53195 -10.05488,4.27404 -10.05488,11.12685 0,7.14898 -5.810469,14.85337 -11.202044,14.85337 -1.026868,0 -1.867013,-2.58033 -1.867013,-5.73412 z m 91.483407,-5.77239 c 0,-10.75597 -0.71984,-11.75274 -11.03587,-15.28112 -15.88172,-5.43202 -21.78397,-13.17309 -20.92265,-27.44103 0.73648,-12.19996 6.29974,-19.22199 10.94072,-13.80951 1.33916,1.56177 2.18598,7.58146 1.88186,13.37704 -0.56089,10.68824 3.50976,16.98164 10.98398,16.98164 2.75535,0 4.89214,-6.03621 6.46079,-18.25101 2.30545,-17.95203 6.1506,-25.34077 11.86318,-22.79602 1.59337,0.70979 2.89705,10.76562 2.89705,22.34628 0,21.5824 1.18684,23.2843 13.0473,18.70913 4.27561,-1.64929 6.75235,-6.20701 8.33521,-15.3384 2.51619,-14.51551 6.13629,-17.65365 13.90528,-12.05393 4.44084,3.20086 4.64544,5.00362 1.32011,11.63194 -2.1644,4.31421 -3.98201,9.88826 -4.03915,12.38675 -0.16827,7.36335 -8.17738,12.9034 -20.78566,14.37815 l -11.78309,1.3782 0,12.6442 c 0,11.07421 -0.81137,12.6442 -6.53453,12.6442 -5.64295,0 -6.53453,-1.56999 -6.53453,-11.50651 z"
       id="path3091"
       inkscape:connector-curvature="0" />
  </g>
</svg>
