<?xml version="1.0" encoding="UTF-8" standalone="no"?>
<!-- Created with Inkscape (http://www.inkscape.org/) -->

<svg
   xmlns:dc="http://purl.org/dc/elements/1.1/"
   xmlns:cc="http://creativecommons.org/ns#"
   xmlns:rdf="http://www.w3.org/1999/02/22-rdf-syntax-ns#"
   xmlns:svg="http://www.w3.org/2000/svg"
   xmlns="http://www.w3.org/2000/svg"
   xmlns:sodipodi="http://sodipodi.sourceforge.net/DTD/sodipodi-0.dtd"
   xmlns:inkscape="http://www.inkscape.org/namespaces/inkscape"
   width="300"
   height="300"
   id="svg2"
   version="1.1"
   inkscape:version="0.48.4 r9939"
   sodipodi:docname="image-seal.svg">
  <defs
     id="defs4" />
  <sodipodi:namedview
     id="base"
     pagecolor="#ffffff"
     bordercolor="#666666"
     borderopacity="1.0"
     inkscape:pageopacity="0.0"
     inkscape:pageshadow="2"
     inkscape:zoom="2.0018437"
     inkscape:cx="123.3515"
     inkscape:cy="143.3195"
     inkscape:document-units="px"
     inkscape:current-layer="layer1"
     showgrid="false"
     inkscape:window-width="1215"
     inkscape:window-height="1000"
     inkscape:window-x="65"
     inkscape:window-y="24"
     inkscape:window-maximized="1"
     fit-margin-top="10"
     fit-margin-left="10"
     fit-margin-right="10"
     fit-margin-bottom="10" />
  <metadata
     id="metadata7">
    <rdf:RDF>
      <cc:Work
         rdf:about="">
        <dc:format>image/svg+xml</dc:format>
        <dc:type
           rdf:resource="http://purl.org/dc/dcmitype/StillImage" />
        <dc:title />
      </cc:Work>
    </rdf:RDF>
  </metadata>
  <g
     inkscape:label="Calque 1"
     inkscape:groupmode="layer"
     id="layer1"
     transform="translate(0,-752.36218)">
    <path
       style="fill:#000000"
       d="m 148.38049,1025.8637 c 0,-36.11981 9.2345,-49.41488 41.83796,-60.23452 2.20653,-0.73222 4.01186,-2.12239 4.01186,-3.08913 0,-0.96674 1.82767,-2.23564 4.06149,-2.81976 4.35856,-1.13983 8.2353,-13.83269 11.0419,-36.15249 2.27294,-18.07574 1.55076,-78.34297 -1.01981,-85.10405 -1.43591,-3.77672 -5.16267,-6.66088 -10.99355,-8.50801 -11.12175,-3.52317 -36.46143,-6.9263 -45.50111,-6.11079 -32.54154,2.93565 -37.70253,4.05443 -40.84794,8.85495 -5.94487,9.07299 -9.55504,72.21738 -5.32629,93.16039 2.42849,12.02711 17.68031,35.69468 24.37072,37.81821 2.5354,0.80466 4.60983,2.29616 4.60983,3.31448 0,1.01833 3.09486,2.47039 6.87747,3.22691 4.77306,0.9546 6.87747,2.72096 6.87747,5.7725 0,12.00783 -20.47586,6.19064 -39.28116,-11.15985 -12.160705,-11.21973 -15.511525,-22.61091 -16.041165,-54.53219 -0.24502,-14.76814 -1.29644,-27.42021 -2.3365,-28.1157 -1.04006,-0.69552 -0.94442,-4.3062 0.21251,-8.02372 1.15695,-3.71755 3.22246,-14.34279 4.59,-23.6117 1.36754,-9.26888 3.92979,-18.91318 5.693895,-21.43176 4.45247,-6.35678 14.19432,-11.00425 23.06674,-11.00425 15.66267,0 21.69822,-2.52465 25.57712,-10.69883 4.38019,-9.23057 8.01571,-8.91563 10.98465,0.95159 2.45867,8.1714 6.21609,9.67138 24.33804,9.71592 10.09712,0.0248 14.91731,1.41655 23.28456,6.72291 5.80335,3.68039 11.38747,9.0964 12.40914,12.03558 4.60804,13.25656 -0.35701,113.99342 -5.85645,118.82228 -0.71796,0.63043 -2.44801,3.20939 -3.84453,5.73113 -1.39649,2.52174 -8.6229,7.67985 -16.05864,11.46246 -18.11446,9.21512 -27.60356,16.60955 -30.5711,23.8231 -2.2852,5.55494 -3.99366,21.55174 -4.49484,42.08604 -0.18524,7.5858 -0.88394,8.5968 -5.94106,8.5968 -5.70587,0 -5.73123,-0.094 -5.73123,-21.4985 z m 0,-70.20103 c 0,-12.4692 0.28306,-12.2629 -16.04743,-11.69602 -19.06241,0.66173 -21.72688,-7.81819 -3.24087,-10.31439 16.04448,-2.1665 19.2883,-3.24473 19.2883,-6.41127 0,-1.71433 -3.35276,-4.3678 -7.45059,-5.89661 -4.09783,-1.52882 -9.74322,-3.68211 -12.54534,-4.7851 -7.20495,-2.83604 -12.09894,-16.32086 -12.09894,-33.33719 0,-12.83825 0.65185,-14.99548 5.48875,-18.16474 3.01882,-1.978 9.46645,-4.15298 14.32807,-4.83328 12.99895,-1.81897 14.62958,-2.60968 13.17877,-6.39043 -0.94457,-2.46149 -5.61105,-3.61494 -16.58193,-4.09865 -11.74353,-0.51778 -15.26741,-1.46685 -15.26741,-4.11188 0,-2.67284 3.64229,-3.58757 16.353,-4.10689 16.08783,-0.65732 16.37501,-0.77814 17.70949,-7.45059 0.96709,-4.83546 2.68914,-6.78245 5.99879,-6.78245 3.62977,0 4.64229,1.50002 4.64229,6.87747 0,7.47059 -1.74025,6.99396 28.60547,7.83461 4.57494,0.12678 7.08802,1.51245 7.61871,4.20097 0.70168,3.55492 -1.31612,4.01186 -17.71617,4.01186 -16.97968,0 -18.50801,0.3786 -18.50801,4.58498 0,3.69976 1.52833,4.58498 7.91586,4.58498 18.83049,0 25.2047,8.32773 23.7585,31.03985 -0.94632,14.86155 -1.32992,15.70143 -11.08612,24.27206 -5.55823,4.8828 -11.94862,8.87784 -14.20081,8.87784 -2.5666,0 -4.09494,1.71123 -4.09494,4.58498 0,4.17403 1.52834,4.58498 17.0512,4.58498 15.41921,0 17.01939,0.42257 16.71864,4.41502 -0.2752,3.65319 -2.72296,4.6706 -14.18559,5.89619 -19.87656,2.12521 -21.38518,2.8426 -23.12837,10.99825 -1.85735,8.68975 -4.99314,13.07781 -9.34529,13.07781 -2.26129,0 -3.15803,-3.25465 -3.15803,-11.46236 z m 1.18188,-48.25455 c 0.87962,-2.77148 -0.0289,-7.01676 -2.21627,-10.355 -3.10607,-4.74046 -4.46153,-5.254 -8.36037,-3.16739 -3.28434,1.75772 -5.51523,1.77498 -7.58326,0.0587 -2.7125,-2.25115 -5.95062,-1.20385 -5.94409,1.92249 0.005,2.38579 10.21518,13.18993 13.75215,14.55213 6.34612,2.44409 8.85179,1.71529 10.35184,-3.01089 z m 26.90114,-0.78653 c 4.90318,-3.72204 5.43753,-15.14867 0.70842,-15.14867 -1.81689,0 -3.94102,1.03163 -4.72028,2.2925 -2.49084,4.03026 -4.81423,2.46474 -4.81423,-3.24388 0,-4.22964 1.51504,-5.83936 6.41897,-6.82016 3.53044,-0.70609 6.41898,-2.30102 6.41898,-3.54431 0,-3.57002 -9.63537,-11.60905 -13.9143,-11.60905 -3.35735,0 -3.87979,2.77838 -3.87979,20.63241 0,19.54954 0.25639,20.62859 4.88519,20.55952 2.68684,-0.0401 6.69052,-1.44335 8.89704,-3.11836 z m -27.81039,-26.97375 c 2.76818,-4.36754 2.47263,-8.25691 -0.78014,-10.26724 -3.82438,-2.3636 -15.70679,-1.2555 -19.3994,1.80908 -3.82369,3.1734 -3.91527,10.35174 -0.15245,11.94307 4.8657,2.05772 18.27578,-0.24078 20.33192,-3.48491 z m -32.3675,-73.68482 c 0,-6.60398 -4.0332,-10.77471 -10.41939,-10.77471 -7.441015,0 -12.505525,-7.15464 -12.505525,-17.66662 0,-10.25248 5.64247,-17.84338 9.102255,-12.24534 1.03141,1.66888 2.5072,6.986 3.27952,11.81582 0.86624,5.41717 3.15483,9.71837 5.97368,11.22697 4.3081,2.30562 4.58459,1.68692 4.8339,-10.81699 0.39335,-19.728 0.50518,-20.13994 5.46679,-20.13994 4.05959,0 4.63299,1.66799 5.00398,14.55603 0.23046,8.00582 0.99785,15.13487 1.70532,15.84233 2.64858,2.64858 10.48438,-7.27607 10.48438,-13.27928 0,-7.20541 5.46016,-13.24328 8.10547,-8.96309 2.54329,4.11514 1.52815,22.91042 -1.42992,26.47467 -1.45857,1.7575 -3.86741,3.19544 -5.35296,3.19544 -5.69038,0 -15.04255,5.89823 -15.05965,9.49781 -0.009,2.07163 -1.64968,4.39278 -3.64412,5.15811 -5.31753,2.04052 -5.54373,1.88215 -5.54373,-3.88121 z m 66.17789,-0.21091 c -1.37421,-3.01605 -6.35536,-6.99873 -11.0692,-8.85037 -7.3528,-2.88826 -8.77325,-4.63365 -9.99636,-12.28307 -1.84681,-11.55008 0.28346,-19.65628 4.93039,-18.76136 2.49553,0.4806 3.80936,3.81851 4.28216,10.87931 0.76178,11.37582 3.22671,15.14523 8.56452,13.09691 2.40099,-0.92135 3.70868,-4.63461 3.94201,-11.19375 0.19211,-5.39827 0.58887,-10.84664 0.88183,-12.10751 0.29293,-1.26087 0.65161,-3.58202 0.79705,-5.15811 0.14534,-1.57609 2.32768,-2.86561 4.84942,-2.86561 4.06628,0 4.58498,1.52833 4.58498,13.50967 0,9.1803 0.98495,13.88763 3.0735,14.68909 5.1846,1.98951 8.10331,-1.53388 9.73777,-11.75523 1.16635,-7.29393 2.50601,-9.60432 5.26587,-9.0815 2.59205,0.49105 3.91679,3.69687 4.41969,10.6955 0.82954,11.54391 -4.85189,19.56369 -15.34632,21.66258 -3.77197,0.75439 -7.35323,3.60489 -8.96025,7.13191 -3.34749,7.34695 -6.72743,7.47985 -9.95706,0.39154 z"
       id="path3210"
       inkscape:connector-curvature="0" />
  </g>
</svg>
