<?xml version="1.0" encoding="UTF-8" standalone="no"?>
<!-- Created with Inkscape (http://www.inkscape.org/) -->

<svg
   xmlns:dc="http://purl.org/dc/elements/1.1/"
   xmlns:cc="http://creativecommons.org/ns#"
   xmlns:rdf="http://www.w3.org/1999/02/22-rdf-syntax-ns#"
   xmlns:svg="http://www.w3.org/2000/svg"
   xmlns="http://www.w3.org/2000/svg"
   xmlns:sodipodi="http://sodipodi.sourceforge.net/DTD/sodipodi-0.dtd"
   xmlns:inkscape="http://www.inkscape.org/namespaces/inkscape"
   width="300"
   height="300"
   id="svg2"
   version="1.1"
   inkscape:version="0.48.4 r9939"
   sodipodi:docname="image-seal.svg">
  <defs
     id="defs4" />
  <sodipodi:namedview
     id="base"
     pagecolor="#ffffff"
     bordercolor="#666666"
     borderopacity="1.0"
     inkscape:pageopacity="0.0"
     inkscape:pageshadow="2"
     inkscape:zoom="2.0018437"
     inkscape:cx="123.3515"
     inkscape:cy="143.3195"
     inkscape:document-units="px"
     inkscape:current-layer="layer1"
     showgrid="false"
     inkscape:window-width="1215"
     inkscape:window-height="1000"
     inkscape:window-x="65"
     inkscape:window-y="24"
     inkscape:window-maximized="1"
     fit-margin-top="10"
     fit-margin-left="10"
     fit-margin-right="10"
     fit-margin-bottom="10" />
  <metadata
     id="metadata7">
    <rdf:RDF>
      <cc:Work
         rdf:about="">
        <dc:format>image/svg+xml</dc:format>
        <dc:type
           rdf:resource="http://purl.org/dc/dcmitype/StillImage" />
        <dc:title />
      </cc:Work>
    </rdf:RDF>
  </metadata>
  <g
     inkscape:label="Calque 1"
     inkscape:groupmode="layer"
     id="layer1"
     transform="translate(0,-752.36218)">
    <path
       style="fill:#000000"
       d="m 212.43348,1041.0284 c -3.86912,-10.1766 -3.27789,-67.78738 0.71218,-69.39741 2.52304,-1.01807 2.5,-1.35271 -0.1042,-1.51205 -2.63257,-0.16097 -3.26696,-12.02778 -2.981,-55.76299 0.19986,-30.55709 -0.47896,-56.92109 -1.50836,-58.5867 -4.73841,-7.66693 -19.46661,-10.2757 -58.01294,-10.2757 -37.89978,0 -48.98585,1.70578 -55.877852,8.59776 -2.3817,2.3817 -3.83221,15.91722 -4.86511,45.3988 -0.80943,23.10293 -2.00066,42.86123 -2.64718,43.9073 -0.6465,1.04609 -1.55114,17.64672 -2.01028,36.89029 -0.92035,38.5751 -5.05055,57.0213 -12.76751,57.0213 -3.15775,0 -3.16285,-25.5031 -0.008,-35.2546 2.32076,-7.17132 4.59743,-52.19362 5.99444,-118.5443 l 0.64585,-30.67409 7.99911,-6.91134 c 4.39952,-3.80126 10.08873,-8.11475 12.64273,-9.58553 7.893742,-4.54584 2.989732,-18.28379 -8.98738,-25.17693 -8.36742,-4.81568 -10.20522,-7.45402 -11.58048,-16.62484 -1.49857,-9.99322 2.04863,-21.62259 6.59536,-21.62259 0.84378,0 2.60446,5.53154 3.91264,12.29233 4.36121,22.539 13.482212,15.56667 15.252742,-11.65957 0.70847,-10.894 2.69223,-12.65367 8.13227,-7.21361 3.19056,3.19057 4.27989,8.22489 3.95186,18.26339 -0.2491,7.62227 0.50453,14.45038 1.67471,15.17358 5.09886,3.15129 13.54446,-9.17837 13.54446,-19.77344 0,-7.96226 2.48733,-10.39652 6.8898,-6.7428 4.74271,3.9361 4.38228,20.91811 -0.66878,31.51033 -2.76025,5.78829 -6.8546,9.5023 -12.24148,11.10434 -6.29582,1.87238 -8.46901,4.27878 -9.78175,10.8315 -1.5558,7.76591 -1.15615,8.43806 5.11318,8.60022 3.7405,0.0967 17.88211,0.38835 31.42583,0.64803 l 24.62493,0.47212 0.0347,-6.48024 c 0.0358,-6.67772 -5.49592,-15.5526 -9.69401,-15.5526 -8.07076,0 -15.59205,-20.32895 -11.74801,-31.75321 3.41465,-10.14812 7.13641,-8.81435 7.23314,2.5921 0.0923,10.8807 4.81594,18.79272 11.21975,18.79272 3.6243,0 4.25039,-3.43645 4.25039,-23.32889 0,-12.83089 0.96934,-23.32889 2.15409,-23.32889 4.53086,0 8.295,12.34409 8.89064,29.15587 0.38804,10.95191 1.71965,17.49338 3.56172,17.49667 4.30382,0.008 11.31454,-11.78184 11.31454,-19.02691 0,-6.72326 6.03907,-13.45266 9.92007,-11.05409 4.07475,2.51836 5.72848,17.28599 2.59466,23.17015 -3.7906,7.11742 -8.97848,11.37032 -19.78738,16.22126 -7.95611,3.57064 -8.51206,4.61969 -7.7763,14.67397 0.72369,9.88933 1.51737,10.97552 9.15182,12.52471 4.59766,0.93298 11.30472,3.62617 14.90457,5.98487 l 6.54515,4.28858 0.33208,61.50257 c 0.39509,73.17807 1.1511,98.21046 3.42375,113.36576 1.11483,7.4341 0.54963,13.1206 -1.6549,16.6508 -4.42184,7.0803 -6.88078,6.7618 -9.94138,-1.288 z m -70.61992,-3.9218 c -0.81573,-3.453 -0.67413,-17.1623 0.31471,-30.4655 0.98883,-13.30317 1.17357,-24.57359 0.41051,-25.04517 -0.76307,-0.47161 -9.32109,6.62188 -19.01784,15.76338 -17.00664,16.03269 -23.0968,19.32749 -26.260972,14.20779 -1.72976,-2.7989 6.296622,-11.60014 19.493332,-21.37546 5.07961,-3.76272 14.29455,-11.42058 20.47766,-17.01752 9.57006,-8.66279 10.9841,-11.20398 9.50769,-17.08644 -2.00545,-7.99038 -7.62253,-8.98416 -12.50501,-2.21244 -1.86292,2.58378 -7.43818,7.54117 -12.38951,11.01642 -4.95129,3.47528 -10.57524,7.77674 -12.49762,9.55881 -4.53508,4.20407 -8.30913,4.13393 -8.30913,-0.15449 0,-1.86701 4.71259,-7.40762 10.47239,-12.31247 5.7598,-4.90482 15.09138,-12.84927 20.73679,-17.65429 10.86491,-9.24752 13.58846,-19.24253 6.03342,-22.14166 -4.22519,-1.62136 -25.97309,10.58523 -32.17655,18.05993 -1.7098,2.06018 -4.71555,3.74579 -6.679472,3.74579 -6.6941,0 -3.59157,-7.49687 6.113592,-14.77265 9.34039,-7.00235 13.74009,-10.61377 30.49317,-25.0298 l 7.77629,-6.69151 -18.47531,-0.0819 c -20.81334,-0.0923 -28.216272,-4.30654 -20.72477,-11.79804 3.17937,-3.17936 5.2531,-3.45887 9.35909,-1.26142 2.9011,1.55262 6.71957,2.63663 8.48552,2.40894 1.76594,-0.22784 18.66617,-0.27582 37.55609,-0.10679 28.46648,0.25454 34.34531,0.96418 34.34531,4.14588 0,4.85077 -10.58121,7.59405 -22.08862,5.72665 -7.31654,-1.18732 -10.25888,-0.11639 -17.01114,6.19109 -7.58241,7.08304 -7.93869,8.17173 -4.99783,15.27161 1.74163,4.2047 3.33614,12.93769 3.54335,19.40669 0.50162,15.66112 6.61174,15.70752 14.63325,0.1112 3.82361,-7.4343 7.73153,-11.66445 10.77593,-11.66445 2.62717,0 4.85692,1.45806 4.95495,3.24012 0.098,1.78207 0.24651,18.70091 0.32984,37.59744 0.0835,18.89653 0.96502,38.14276 1.95924,42.76966 2.4083,11.2075 -1.58854,22.669 -7.90512,22.669 -5.67006,0 -5.4374,2.2395 -4.98181,-47.95399 l 0.32938,-36.28939 -8.24204,8.1528 c -10.21298,10.10237 -11.35768,15.71196 -12.42702,60.89878 -0.23562,9.9521 -1.8751,16.5057 -5.13725,20.5343 l -4.79134,5.917 -1.48315,-6.2778 z M 107.2346,870.95657 c -0.80262,-1.29867 -0.0612,-4.04604 1.64795,-6.10525 2.47395,-2.98092 9.41964,-3.5596 34.07817,-2.83923 27.97313,0.81718 39.91918,3.59485 35.30501,8.20899 -2.53922,2.53925 -69.48793,3.23246 -71.03113,0.73549 z"
       id="path3041"
       inkscape:connector-curvature="0" />
  </g>
</svg>
