<?xml version="1.0" encoding="UTF-8" standalone="no"?>
<!-- Created with Inkscape (http://www.inkscape.org/) -->

<svg
   xmlns:dc="http://purl.org/dc/elements/1.1/"
   xmlns:cc="http://creativecommons.org/ns#"
   xmlns:rdf="http://www.w3.org/1999/02/22-rdf-syntax-ns#"
   xmlns:svg="http://www.w3.org/2000/svg"
   xmlns="http://www.w3.org/2000/svg"
   xmlns:sodipodi="http://sodipodi.sourceforge.net/DTD/sodipodi-0.dtd"
   xmlns:inkscape="http://www.inkscape.org/namespaces/inkscape"
   width="300"
   height="300"
   id="svg2"
   version="1.1"
   inkscape:version="0.48.4 r9939"
   sodipodi:docname="image-seal.svg">
  <defs
     id="defs4" />
  <sodipodi:namedview
     id="base"
     pagecolor="#ffffff"
     bordercolor="#666666"
     borderopacity="1.0"
     inkscape:pageopacity="0.0"
     inkscape:pageshadow="2"
     inkscape:zoom="2.0018437"
     inkscape:cx="203.18921"
     inkscape:cy="112.31204"
     inkscape:document-units="px"
     inkscape:current-layer="layer1"
     showgrid="false"
     inkscape:window-width="1215"
     inkscape:window-height="1000"
     inkscape:window-x="65"
     inkscape:window-y="24"
     inkscape:window-maximized="1"
     fit-margin-top="10"
     fit-margin-left="10"
     fit-margin-right="10"
     fit-margin-bottom="10" />
  <metadata
     id="metadata7">
    <rdf:RDF>
      <cc:Work
         rdf:about="">
        <dc:format>image/svg+xml</dc:format>
        <dc:type
           rdf:resource="http://purl.org/dc/dcmitype/StillImage" />
        <dc:title />
      </cc:Work>
    </rdf:RDF>
  </metadata>
  <g
     inkscape:label="Calque 1"
     inkscape:groupmode="layer"
     id="layer1"
     transform="translate(0,-752.36218)">
    <path
       style="fill:#000000"
       d="m 153.07355,1040.3626 c -2.81687,-7.2957 -1.16723,-32.1242 2.83352,-42.64706 1.23409,-3.24588 7.46479,-9.49373 13.84599,-13.88412 6.3812,-4.39038 11.60217,-9.75511 11.60217,-11.92161 0,-3.36597 -8.26307,-17.31014 -12.60393,-21.26947 -5.22018,-4.76137 -7.75857,-15.21486 -7.75857,-31.95093 l 0,-19.29345 -6.99961,0.80539 c -6.23841,0.7178 -7.04227,1.89865 -7.39187,10.85838 -0.7123,18.25483 -3.45132,29.54108 -9.49122,39.10889 -6.43386,10.19191 -8.40335,19.18058 -10.69968,48.83266 -1.93904,25.03862 -5.40115,38.17972 -10.05869,38.17972 -3.19221,0 -4.57149,-2.4833 -4.24113,-7.6359 3.09026,-48.19839 5.12048,-60.35422 12.27543,-73.49839 3.33467,-6.12601 6.06302,-12.58026 6.06302,-14.34281 0,-3.61661 -10.82194,-11.42607 -15.83366,-11.42607 -4.97407,0 -10.93586,-14.97361 -7.37825,-18.53122 1.56717,-1.56718 2.8494,-4.80894 2.8494,-7.2039 0,-5.1915 18.82697,-14.98988 28.80205,-14.98988 4.37631,0 6.83233,-1.37246 6.83233,-3.81797 0,-2.09989 1.14539,-3.81797 2.54532,-3.81797 1.39992,0 2.54531,-1.67319 2.54531,-3.71819 0,-2.49708 5.01546,-4.75411 15.27188,-6.87253 11.84079,-2.44569 15.27187,-4.18363 15.27187,-7.73574 0,-3.70961 -2.10721,-4.58136 -11.07409,-4.58136 -16.34697,0 -27.0227,4.54761 -39.74993,16.93259 -6.25441,6.0862 -13.41311,11.06585 -15.9082,11.06585 -5.97604,0 -6.04273,-9.76598 -0.0822,-12.04162 2.44987,-0.93532 6.54204,-3.63923 9.09372,-6.00872 4.46677,-4.14779 4.37738,-4.55112 -2.40158,-10.83695 -5.91396,-5.4837 -6.38285,-6.78135 -2.92935,-8.10659 2.26144,-0.8678 6.40322,-0.35143 9.20396,1.14748 2.96839,1.58866 16.88138,2.46659 33.35856,2.105 30.69235,-0.67357 33.92798,0.64816 32.60243,13.31792 -0.56116,5.36373 -3.02846,7.00762 -16.56757,11.03853 -18.36575,5.46792 -21.80674,11.92439 -6.36328,11.93979 13.52073,0.0127 25.21865,7.88459 28.29925,19.04151 2.13109,7.7182 1.66198,10.50667 -3.02546,17.98342 -3.34299,5.33228 -8.32926,9.46757 -12.54723,10.40583 -8.82768,1.96363 -8.7605,3.80738 0.63633,17.4652 9.02334,13.11498 9.48425,18.5989 2.32784,27.69679 l -5.30809,6.74816 6.68804,11.41234 c 3.67843,6.2767 7.73133,11.4123 9.00643,11.4123 3.98174,0 7.87212,18.2985 4.70239,22.1178 -2.26321,2.727 -3.68411,2.3393 -7.48421,-2.0423 -2.57985,-2.9746 -5.37453,-7.5631 -6.21039,-10.1966 -0.83585,-2.6336 -2.58794,-4.7883 -3.89354,-4.7883 -1.30556,0 -2.37378,-1.6904 -2.37378,-3.7565 0,-2.066 -2.14524,-7.284 -4.76722,-11.5955 -4.40118,-7.23714 -5.0849,-7.52135 -8.90478,-3.7015 -5.67973,5.6798 -7.64876,15.0046 -5.53048,26.1913 3.68992,19.4865 3.41658,23.4059 -1.63223,23.4059 -2.82369,0 -5.83852,-2.8337 -7.44698,-6.9996 z M 136.2302,913.86479 c -0.25642,-6.7152 -0.94139,-12.68462 -1.52215,-13.26538 -1.80371,-1.80371 -14.4234,4.88667 -14.7419,7.81551 -0.67931,6.24635 1.05084,10.46175 6.08638,14.82904 7.8862,6.83967 10.69803,4.24841 10.17767,-9.37917 z m 51.44856,6.30866 c 4.89257,-9.46118 4.1793,-13.02821 -3.43284,-17.16722 -10.81218,-5.87898 -13.07194,-4.31794 -13.07194,9.03019 0,6.7663 0.7636,13.06595 1.69689,13.99922 3.99209,3.99212 11.18446,1.14478 14.80789,-5.86219 z m 33.45867,115.09855 c -3.31188,-22.7377 -4.16461,-38.76774 -5.44987,-102.44885 -0.74875,-37.09794 -2.00398,-70.62556 -2.78938,-74.50584 -1.71035,-8.44986 -10.44973,-12.68126 -34.18531,-16.55177 -40.48555,-6.60188 -78.53698,-0.005 -85.579295,14.83663 -2.37183,4.99859 -6.25289,104.14813 -5.77328,147.48973 0.0387,3.4998 -0.65015,13.522 -1.53085,22.2715 -1.31074,13.0217 -2.43164,15.9082 -6.17766,15.9082 -6.99976,0 -11.13663,-6.606 -9.1561,-14.6209 2.17164,-8.7883 3.36002,-22.0965 5.28573,-59.19317 0.83572,-16.09911 2.48246,-44.16118 3.65942,-62.36017 1.17695,-18.19899 2.25405,-38.35443 2.39356,-44.78984 0.29195,-13.46743 5.73856,-21.28862 17.73841,-25.47179 6.930245,-2.41589 7.731845,-3.6298 6.289035,-9.5239 -0.90944,-3.71532 -2.3354,-7.06144 -3.16876,-7.43583 -19.866625,-8.92529 -27.610025,-19.45382 -28.047335,-38.1353 -0.15552,-6.63993 0.81086,-8.27227 4.89698,-8.27227 3.85424,0 5.09294,1.70004 5.10014,6.99961 0.0127,8.48015 8.7349,23.54415 13.63412,23.54415 4.140535,0 6.718865,-10.86635 6.718865,-28.31661 0,-6.82462 0.91631,-12.4084 2.03625,-12.4084 5.1233,0 8.145,7.19372 8.145,19.39073 0,13.54213 1.74736,21.33428 4.78412,21.33428 2.58535,0 10.15076,-15.73144 11.0041,-22.88181 0.41766,-3.49973 2.66934,-6.70173 5.0288,-7.15123 3.58174,-0.68237 4.27248,1.45574 4.27248,13.22476 0,16.35613 -6.42867,26.98953 -16.31716,26.98953 -7.28321,0 -11.88343,11.77604 -6.01663,15.40192 5.00538,3.09349 31.56287,5.45463 50.69586,4.50719 14.64565,-0.72524 16.63347,-1.44292 17.31945,-6.25297 0.56051,-3.93009 -1.76456,-7.0032 -8.40223,-11.10551 -12.28566,-7.59295 -16.0681,-14.0976 -17.02419,-29.27642 -0.62811,-9.9719 0.0255,-12.72656 3.01634,-12.72656 2.38491,0 4.79662,4.05654 6.42532,10.8075 2.86681,11.88297 10.12629,22.09153 14.00499,19.69433 1.36264,-0.84214 2.47751,-11.1318 2.47751,-22.86589 0,-20.86243 2.53559,-27.75364 8.14706,-22.14216 1.43709,1.43708 3.34172,11.58853 4.23253,22.55877 1.22781,15.12046 2.5251,19.94589 5.36244,19.94589 5.19002,0 10.17405,-10.86235 10.21889,-22.27149 0.0387,-9.86309 3.81375,-12.38651 9.70971,-6.49055 3.686,3.686 4.03137,20.90792 0.54974,27.41336 -1.37752,2.57397 -8.1067,8.12693 -14.95372,12.33993 -9.74269,5.99477 -12.44907,9.09784 -12.44907,14.27393 0,5.07276 1.55694,6.95273 6.68145,8.06783 11.79276,2.56614 12.93792,3.27536 17.55981,10.87544 3.96226,6.51541 4.61544,14.91998 5.10029,65.62728 0.30585,31.98521 1.86144,73.23954 3.45689,91.67634 1.59546,18.4367 2.20631,35.3312 1.35745,37.5433 -2.90721,7.5761 -8.83797,4.3904 -10.2819,-5.5229 z"
       id="path3028"
       inkscape:connector-curvature="0" />
  </g>
</svg>
