<?xml version="1.0" encoding="UTF-8" standalone="no"?>
<!-- Created with Inkscape (http://www.inkscape.org/) -->

<svg
   xmlns:dc="http://purl.org/dc/elements/1.1/"
   xmlns:cc="http://creativecommons.org/ns#"
   xmlns:rdf="http://www.w3.org/1999/02/22-rdf-syntax-ns#"
   xmlns:svg="http://www.w3.org/2000/svg"
   xmlns="http://www.w3.org/2000/svg"
   xmlns:sodipodi="http://sodipodi.sourceforge.net/DTD/sodipodi-0.dtd"
   xmlns:inkscape="http://www.inkscape.org/namespaces/inkscape"
   width="300"
   height="300"
   id="svg2"
   version="1.1"
   inkscape:version="0.92.4 (5da689c313, 2019-01-14)"
   sodipodi:docname="image-bigseal.svg">
  <defs
     id="defs4" />
  <sodipodi:namedview
     id="base"
     pagecolor="#ffffff"
     bordercolor="#666666"
     borderopacity="1.0"
     inkscape:pageopacity="0.0"
     inkscape:pageshadow="2"
     inkscape:zoom="2"
     inkscape:cx="213.44097"
     inkscape:cy="153.37648"
     inkscape:document-units="px"
     inkscape:current-layer="layer1"
     showgrid="false"
     inkscape:window-width="1872"
     inkscape:window-height="1016"
     inkscape:window-x="48"
     inkscape:window-y="27"
     inkscape:window-maximized="1" />
  <metadata
     id="metadata7">
    <rdf:RDF>
      <cc:Work
         rdf:about="">
        <dc:format>image/svg+xml</dc:format>
        <dc:type
           rdf:resource="http://purl.org/dc/dcmitype/StillImage" />
        <dc:title />
      </cc:Work>
    </rdf:RDF>
  </metadata>
  <g
     inkscape:label="Calque 1"
     inkscape:groupmode="layer"
     id="layer1"
     transform="translate(0,-752.36218)">
    <path
       style="fill:#000000;stroke-width:6.02359486"
       d="m 71.31335,1036.3789 c 0,-3.2918 12.2765,-5.985 27.28111,-5.985 h 27.28111 v -30.46181 c 0,-23.71209 -2.81736,-32.71397 -12.715,-40.6261 -8.52862,-6.81778 -11.87904,-15.01575 -10.17598,-24.89921 l 2.53896,-14.73488 6.99476,16.45867 c 6.40658,15.07483 9.75142,16.45867 39.78125,16.45867 28.82728,0 33.21403,-1.61373 36.32625,-13.36294 2.62281,-9.9013 5.30721,-11.61815 10.36246,-6.62752 7.40319,7.30855 -1.96091,31.9604 -12.14021,31.9604 -2.90847,0 -6.22265,14.81645 -7.36481,32.92548 l -2.07671,32.92554 25.7655,-0.01 c 14.17102,0 25.76549,2.6853 25.76549,5.977 0,3.6831 -30.31234,5.985 -78.81209,5.985 -48.49975,0 -78.81209,-2.3019 -78.81209,-5.985 z m 90.93703,-38.90238 c 0,-25.26986 -2.11271,-32.91734 -9.09371,-32.91734 -6.98105,0 -9.0937,7.64748 -9.0937,32.91734 0,25.26988 2.11265,32.91738 9.0937,32.91738 6.981,0 9.09371,-7.6475 9.09371,-32.91738 z m -70.36701,17.46538 c 2.02395,-5.2068 3.67985,-18.67297 3.67985,-29.92483 0,-11.25181 2.72811,-20.45789 6.06247,-20.45789 6.62137,0 8.28582,35.19594 2.38261,50.38272 -2.0239,5.2069 -6.40797,9.467 -9.74232,9.467 -3.33436,0 -4.40651,-4.2601 -2.38261,-9.467 z m 104.72102,5.477 c -6.45575,-6.3732 -4.66549,-55.85972 2.0208,-55.85972 3.33435,0 6.06247,13.46618 6.06247,29.92485 0,30.34337 -0.85123,33.07457 -8.08327,25.93487 z m -70.72882,-91.76954 c 0,-3.29174 10.75142,-5.98497 23.89206,-5.98497 13.14065,0 25.57816,2.69323 27.63891,5.98497 2.28859,3.65568 -7.00991,5.98497 -23.89206,5.98497 -15.2014,0 -27.63891,-2.69324 -27.63891,-5.98497 z m 77.43361,-10.05715 c -33.99997,-23.05452 -70.0645,-24.95708 -105.23446,-5.55153 -15.73283,8.6809 -30.23644,14.16564 -32.23014,12.18839 -6.41404,-6.36113 24.94748,-26.89149 51.98306,-34.02995 14.4294,-3.80997 26.23533,-10.40846 26.23533,-14.66335 0,-10.19456 -23.38531,-9.51054 -42.43728,1.24134 -17.4162,9.8287 -30.31234,11.37833 -30.31234,3.64233 0,-6.5214 44.32683,-24.58973 60.32569,-24.58973 7.17286,0 12.60193,-5.12547 14.26388,-13.46618 l 2.68326,-13.46618 4.33788,12.82405 c 2.71877,8.0377 11.373,14.21317 23.18694,16.54575 21.41591,4.22844 46.76406,19.044 46.76406,27.33276 0,3.05491 -11.59446,0.3585 -25.76549,-5.99149 -31.21383,-13.98735 -40.92166,-14.65905 -40.92166,-2.83131 0,4.9376 4.40499,8.97746 9.78888,8.97746 15.41516,0 69.02321,30.95289 69.02321,39.85349 0,11.10147 -5.5782,9.69051 -31.69082,-8.01585 z M 189.58877,848.7509 c -2.66766,-6.08923 -11.27419,-17.41303 -19.12562,-25.16411 -14.75987,-14.57118 -18.81573,-35.09999 -8.21277,-41.56921 3.33435,-2.03441 6.06247,-1.02205 6.06247,2.24963 0,3.27175 3.27537,13.53035 7.27859,22.79688 7.19458,16.65383 7.31704,16.50822 10.60932,-12.61243 1.8319,-16.20341 6.63507,-30.53257 10.67371,-31.8425 5.4384,-1.76395 6.35917,5.8776 3.54988,29.46072 -3.48059,29.21892 -2.96176,31.16572 6.29757,23.62848 5.54989,-4.51775 10.09067,-13.27077 10.09067,-19.45115 0,-6.18044 2.72812,-11.23714 6.06247,-11.23714 11.9715,0 5.86702,29.20785 -8.42385,40.30536 -7.96748,6.18709 -15.72963,16.48219 -17.24918,22.87803 -2.64749,11.14318 -2.9654,11.16646 -7.61326,0.5572 z M 87.98514,833.51514 c -10.0965,-9.71301 -16.67179,-22.44076 -16.67179,-32.27174 0,-20.97468 10.72809,-21.16608 13.23788,-0.2364 1.05506,8.79844 5.73516,17.23641 10.40017,18.75109 6.74183,2.18894 7.67193,-2.24652 4.53369,-21.62089 -2.17146,-13.40615 -1.49997,-25.86847 1.49222,-27.69413 6.98129,-4.2595 12.77331,10.70933 12.77331,33.01124 0,9.60594 2.72812,17.4654 6.06247,17.4654 3.33437,0 6.06248,-6.57413 6.06248,-14.60919 0,-15.90021 9.57748,-25.85286 13.55167,-14.08258 4.74273,14.04631 -2.86943,34.32213 -14.22092,37.87894 -6.30066,1.97414 -11.4557,7.44776 -11.4557,12.16356 0,12.00405 -6.47241,9.80463 -25.76548,-8.75548 z"
       id="path335"
       inkscape:connector-curvature="0" />
  </g>
</svg>
