<?xml version="1.0" encoding="UTF-8" standalone="no"?>
<!-- Created with Inkscape (http://www.inkscape.org/) -->

<svg
   xmlns:dc="http://purl.org/dc/elements/1.1/"
   xmlns:cc="http://creativecommons.org/ns#"
   xmlns:rdf="http://www.w3.org/1999/02/22-rdf-syntax-ns#"
   xmlns:svg="http://www.w3.org/2000/svg"
   xmlns="http://www.w3.org/2000/svg"
   xmlns:sodipodi="http://sodipodi.sourceforge.net/DTD/sodipodi-0.dtd"
   xmlns:inkscape="http://www.inkscape.org/namespaces/inkscape"
   width="300"
   height="300"
   id="svg2"
   version="1.1"
   inkscape:version="0.48.4 r9939"
   sodipodi:docname="image-seal.svg">
  <defs
     id="defs4" />
  <sodipodi:namedview
     id="base"
     pagecolor="#ffffff"
     bordercolor="#666666"
     borderopacity="1.0"
     inkscape:pageopacity="0.0"
     inkscape:pageshadow="2"
     inkscape:zoom="1.979899"
     inkscape:cx="130.93154"
     inkscape:cy="137.35134"
     inkscape:document-units="px"
     inkscape:current-layer="layer1"
     showgrid="false"
     inkscape:window-width="1215"
     inkscape:window-height="1000"
     inkscape:window-x="65"
     inkscape:window-y="24"
     inkscape:window-maximized="1"
     fit-margin-top="10"
     fit-margin-left="10"
     fit-margin-right="10"
     fit-margin-bottom="10" />
  <metadata
     id="metadata7">
    <rdf:RDF>
      <cc:Work
         rdf:about="">
        <dc:format>image/svg+xml</dc:format>
        <dc:type
           rdf:resource="http://purl.org/dc/dcmitype/StillImage" />
        <dc:title />
      </cc:Work>
    </rdf:RDF>
  </metadata>
  <g
     inkscape:label="Calque 1"
     inkscape:groupmode="layer"
     id="layer1"
     transform="translate(0,-752.36218)">
    <path
       style="fill:#000000"
       d="m 105.91496,1037.2436 c -19.381937,-9.7736 -21.885055,-15.3095 -21.885055,-48.40049 0,-34.83313 0.05024,-35.06577 8.664439,-40.15448 10.684666,-6.31178 59.974226,-8.4725 85.104606,-3.73073 25.33779,4.78088 27.61269,8.1023 27.49913,40.14899 -0.16877,47.61871 -11.75753,58.02201 -64.00557,57.45831 -20.02874,-0.2163 -27.4741,-1.3361 -35.37755,-5.3216 z m 72.62868,-8.339 c 10.03334,-6.5741 14.43765,-17.4584 15.86289,-39.20199 1.59026,-24.26088 -1.55425,-30.30864 -17.89884,-34.42426 -16.86412,-4.24643 -61.79916,-3.66044 -72.83306,0.94982 -8.536643,3.56684 -9.120423,4.53327 -9.48157,15.69646 -1.254148,38.76707 2.259688,54.38807 12.84232,57.09127 25.54493,6.5251 61.46522,6.4692 71.50826,-0.1113 z m -60.83057,-19.3422 c -3.97465,-4.8098 -5.91064,-19.87048 -3.60495,-28.04402 1.52619,-5.4102 4.51728,-8.17331 11.44361,-10.57125 11.45431,-3.96558 40.63069,-1.80805 45.82759,3.38885 5.60041,5.60042 4.65431,27.23012 -1.45841,33.34282 -4.26848,4.2685 -8.37146,5.0229 -27.31827,5.0229 -14.77845,0 -23.17002,-1.0585 -24.88957,-3.1393 z m 41.69487,-8.2374 c 2.0583,-1.73486 0.92632,-16.79454 -1.4403,-19.16113 -4.16017,-4.16018 -23.88054,-5.23946 -28.44153,-1.55658 -4.75139,3.83664 -7.83094,14.65088 -5.32622,18.70365 2.25221,3.64406 14.18016,5.45106 25.62955,3.88276 4.83452,-0.6622 9.14483,-1.5032 9.5785,-1.8687 z m 38.13873,-66.65206 c -29.69483,-15.51896 -51.90426,-23.66487 -56.00089,-20.53982 -1.65978,1.26616 -11.49387,4.81259 -21.85353,7.88093 -10.35966,3.06835 -21.431761,6.64601 -24.604658,7.95032 -3.172898,1.30432 -7.976009,2.37149 -10.673595,2.37149 -2.697571,0 -4.904674,1.13015 -4.904674,2.51144 0,1.38128 -2.193616,2.51143 -4.874656,2.51143 -2.681068,0 -5.57312,1.13014 -6.426803,2.51142 -2.629019,4.25385 -8.790015,2.77612 -8.790015,-2.10831 0,-4.83845 9.423257,-10.44885 17.549973,-10.44885 2.616063,0 5.454969,-1.13014 6.308648,-2.51142 0.853665,-1.3813 4.809174,-2.51144 8.790014,-2.51144 3.980826,0 7.936336,-1.13015 8.790016,-2.51143 0.85366,-1.3813 3.53421,-2.51144 5.95676,-2.51144 7.86232,0 29.74758,-12.0768 31.07349,-17.1471 2.42127,-9.25898 -1.1201,-10.92994 -17.16125,-8.09732 -27.503076,4.85658 -35.188809,6.79539 -43.628412,11.00562 -10.961425,5.46828 -18.298662,5.48075 -17.23553,0.0293 0.453521,-2.32554 5.247006,-5.55491 10.857737,-7.31491 12.183832,-3.82179 40.115565,-11.07983 49.600815,-12.88872 8.71972,-1.66287 8.6727,-3.9673 -0.27192,-13.32699 -8.50906,-8.90393 -8.97982,-8.95599 -22.392335,-2.47577 -12.260485,5.92362 -20.978646,7.3291 -22.316899,3.59775 -0.930879,-2.59546 20.387344,-13.65629 26.320574,-13.65629 1.63027,0 2.96412,-1.13015 2.96412,-2.51143 0,-1.38129 2.85548,-2.51144 6.34551,-2.51144 6.96639,0 23.79169,13.7107 23.79169,19.38749 0,1.93152 0.97057,2.91198 2.15683,2.17884 1.18628,-0.73316 2.36058,-9.40474 2.60954,-19.2702 l 0.45269,-17.93716 -8.26026,1.43732 c -15.76032,2.7424 -33.426616,6.36803 -43.420313,8.91113 -23.593431,6.00383 -23.858623,6.0276 -23.858623,2.13917 0,-2.4498 3.637135,-4.32054 10.548981,-5.42576 5.801942,-0.92778 11.735199,-2.62545 13.185021,-3.77263 2.784933,-2.20356 7.327534,-3.2627 34.742184,-8.10039 12.90454,-2.27721 16.94667,-3.96887 16.66296,-6.97363 -0.82423,-8.72952 0.37604,-12.7571 3.80176,-12.7571 1.97882,0 4.24401,1.97776 5.03374,4.395 1.82076,5.57331 17.30937,15.69647 24.01582,15.69647 2.80071,0 7.05459,1.01529 9.45309,2.25624 2.39852,1.24092 13.67502,6.04404 25.05893,10.67358 14.79805,6.018 20.70407,9.67012 20.71931,12.81236 0.0251,5.14298 -6.52708,5.73275 -16.81266,1.51331 -9.97639,-4.09261 -48.82454,-21.99047 -54.35853,-25.04375 -2.55176,-1.40786 -5.25406,-1.94526 -6.00514,-1.19422 -1.49531,1.4953 -1.03434,37.11351 0.50018,38.64801 0.52182,0.52185 4.35728,-2.30852 8.52323,-6.28973 4.16593,-3.98119 10.32019,-8.70804 13.67612,-10.50409 5.56227,-2.97682 7.1864,-2.44015 18.37061,6.07034 12.07138,9.18551 17.40922,17.03299 14.63701,21.51853 -2.61378,4.22918 -6.17642,2.3247 -17.2281,-9.20945 l -11.00836,-11.48897 -9.00977,5.83825 c -10.82621,7.01526 -11.38789,10.65744 -2.16548,14.04222 3.79854,1.39412 15.9476,5.92342 26.9979,10.06513 11.05031,4.14166 22.91682,8.3761 26.37004,9.40983 10.3184,3.08883 13.13088,9.93059 5.12657,12.47105 -2.95467,0.93778 -12.23207,-1.61166 -23.23076,-6.38384 -10.07137,-4.36982 -21.70202,-9.40446 -25.84588,-11.18811 -4.14387,-1.78364 -9.79459,-3.79219 -12.55717,-4.46345 -2.76258,-0.67122 -7.00062,-2.03462 -9.41788,-3.02976 -3.54214,-1.45823 -4.395,-0.50401 -4.395,4.91732 0,6.89224 5.01103,13.90217 9.93794,13.90217 1.51934,0 9.47885,3.39044 17.68782,7.53431 8.20894,4.14386 16.41123,7.5343 18.22731,7.5343 1.81606,0 10.04183,2.61066 18.2795,5.80146 12.58636,4.87523 14.97757,6.77428 14.97757,11.89489 0,3.50616 -1.59957,6.31889 -3.76715,6.62441 -2.07193,0.292 -14.50353,-5.08007 -27.62576,-11.93795 z M 175.85196,825.59997 c -0.79507,-2.07194 -0.79832,-5.45396 -0.007,-7.51561 0.79113,-2.06167 -0.27237,-5.16957 -2.36331,-6.90645 -12.28822,-10.20756 -13.60619,-12.87041 -13.60619,-27.49014 0,-8.05575 1.12525,-14.59504 2.51144,-14.59504 1.38128,0 2.54737,4.23803 2.59129,9.41787 0.0804,9.48149 4.55185,18.20789 9.3298,18.20789 1.41753,0 3.55323,-6.40808 4.74598,-14.24013 3.16415,-20.77691 8.44725,-20.64058 8.44725,0.21799 0,12.65484 0.84168,16.53359 3.58777,16.53359 5.67625,0 11.11869,-6.90844 14.06643,-17.85548 3.38481,-12.57023 8.94283,-11.67118 8.14676,1.3178 -0.72443,11.81976 -7.48646,23.34312 -14.77082,25.17139 -8.02114,2.01317 -13.54157,8.29298 -13.54157,15.4043 0,6.81164 -6.75683,8.53609 -9.13754,2.33204 z m -76.251182,-8.79001 c 0,-7.95228 -0.930276,-10.04574 -4.464068,-10.04574 -11.896125,0 -19.499507,-14.35276 -16.345036,-30.85429 1.944628,-10.17268 5.740516,-8.22883 5.740516,2.93969 0,7.72328 1.354042,10.64408 6.496477,14.01355 3.573059,2.34115 6.88506,3.86808 7.359994,3.39314 0.474919,-0.47493 1.370769,-6.49848 1.990769,-13.38569 2.38247,-26.46575 9.26708,-29.23842 9.26708,-3.73216 0,12.43232 0.91925,17.55665 3.1393,17.50016 6.26276,-0.15923 11.54805,-6.66818 14.98443,-18.45339 2.66149,-9.12759 4.13688,-11.22283 6.1114,-8.6789 3.89295,5.01567 1.07756,23.54069 -4.48506,29.51145 -2.82195,3.02901 -8.01083,5.235 -12.31362,5.235 -7.13929,0 -7.43645,0.45161 -7.43645,11.30146 0,9.62714 -0.74413,11.30144 -5.02286,11.30144 -4.18572,0 -5.022872,-1.6743 -5.022872,-10.04572 z"
       id="path3108"
       inkscape:connector-curvature="0" />
  </g>
</svg>
