<?xml version="1.0" encoding="UTF-8" standalone="no"?>
<!-- Created with Inkscape (http://www.inkscape.org/) -->

<svg
   xmlns:dc="http://purl.org/dc/elements/1.1/"
   xmlns:cc="http://creativecommons.org/ns#"
   xmlns:rdf="http://www.w3.org/1999/02/22-rdf-syntax-ns#"
   xmlns:svg="http://www.w3.org/2000/svg"
   xmlns="http://www.w3.org/2000/svg"
   xmlns:sodipodi="http://sodipodi.sourceforge.net/DTD/sodipodi-0.dtd"
   xmlns:inkscape="http://www.inkscape.org/namespaces/inkscape"
   width="300"
   height="300"
   id="svg2"
   version="1.1"
   inkscape:version="0.48.4 r9939"
   sodipodi:docname="image-seal.svg">
  <defs
     id="defs4" />
  <sodipodi:namedview
     id="base"
     pagecolor="#ffffff"
     bordercolor="#666666"
     borderopacity="1.0"
     inkscape:pageopacity="0.0"
     inkscape:pageshadow="2"
     inkscape:zoom="2.0018437"
     inkscape:cx="145.03351"
     inkscape:cy="130.6666"
     inkscape:document-units="px"
     inkscape:current-layer="layer1"
     showgrid="false"
     inkscape:window-width="1215"
     inkscape:window-height="1000"
     inkscape:window-x="65"
     inkscape:window-y="24"
     inkscape:window-maximized="1"
     fit-margin-top="10"
     fit-margin-left="10"
     fit-margin-right="10"
     fit-margin-bottom="10" />
  <metadata
     id="metadata7">
    <rdf:RDF>
      <cc:Work
         rdf:about="">
        <dc:format>image/svg+xml</dc:format>
        <dc:type
           rdf:resource="http://purl.org/dc/dcmitype/StillImage" />
        <dc:title />
      </cc:Work>
    </rdf:RDF>
  </metadata>
  <g
     inkscape:label="Calque 1"
     inkscape:groupmode="layer"
     id="layer1"
     transform="translate(0,-752.36218)">
    <path
       style="fill:#000000"
       d="m 97.11818,1043.2695 c -1.92312,-6.2388 -2.11358,-21.7206 -0.39564,-32.1573 3.4702,-21.08198 9.13121,-43.71538 11.58758,-46.32851 1.43955,-1.53144 4.04873,-5.56274 5.79818,-8.95845 1.74945,-3.39572 5.95912,-7.60539 9.35484,-9.35484 14.58721,-7.51521 14.86472,-12.56081 0.82989,-15.08873 -17.62714,-3.17496 -18.95728,-9.42511 -4.01489,-18.86524 5.78602,-3.65541 10.5219,-7.43551 10.5242,-8.40023 0.002,-0.96472 1.38437,-1.75403 3.07126,-1.75403 1.68689,0 5.55228,-2.31532 8.58975,-5.14516 8.07861,-7.52637 18.11511,-6.60014 31.67764,2.92339 14.93638,10.48824 22.1494,17.56813 22.1494,21.74057 0,1.84824 -4.36609,5.10739 -9.70244,7.24256 -12.36464,4.94736 -9.64991,7.83494 9.22015,9.80724 12.03989,1.25844 14.51455,2.25775 14.51455,5.86135 0,3.70091 -1.88444,4.34424 -12.72487,4.34424 -6.99868,0 -13.37532,-1.05242 -14.17029,-2.33871 -0.79497,-1.28629 -5.06677,-2.33871 -9.49287,-2.33871 -7.38249,0 -8.04745,0.57977 -8.04745,7.01613 0,7.68234 1.25289,7.99067 28.64919,7.05056 9.84466,-0.33783 11.10887,0.17727 11.10887,4.52659 0,4.60974 -1.15261,4.88685 -18.97839,4.5629 -19.46064,-0.35369 -23.90005,1.53732 -22.50405,9.58576 0.47913,2.76237 5.20129,3.65101 22.21482,4.18051 20.05022,0.62399 25.49067,2.49763 18.96434,6.53111 -1.45309,0.89806 -10.58634,1.74949 -20.2961,1.89206 -17.44158,0.25611 -17.67603,0.34129 -19.47647,7.07574 -3.14505,11.764 -0.0248,13.8397 21.69308,14.4305 10.75367,0.2926 22.62856,1.7263 26.38862,3.1862 6.36676,2.4718 6.57004,2.9206 2.95842,6.5322 -3.542,3.542 -7.68095,3.6323 -47.76389,1.0429 -60.69365,-3.9213 -58.4481,-4.0579 -60.05743,3.657 -0.73786,3.5373 -1.57157,9.8518 -1.85263,14.0323 -0.36515,5.4309 -1.65934,7.6008 -4.53341,7.6008 -2.2123,0 -4.59006,-1.8417 -5.28396,-4.0927 z m 52.39802,-42.4957 c 0,-10.32027 -1.8288,-11.17472 -24.87735,-11.6231 -11.82115,-0.22989 -12.03252,-0.11155 -13.13845,7.35581 -1.86325,12.58089 -0.61814,13.43629 19.55634,13.43629 l 18.45946,0 0,-9.169 z m -0.0248,-22.37379 c 6.04755,-7.28686 1.09454,-10.55397 -16.00007,-10.55397 -13.43802,0 -16.35104,0.69181 -17.23309,4.09274 -2.14069,8.25382 0.50942,9.93952 15.62609,9.93952 10.17563,0 15.61159,-1.07387 17.60707,-3.47829 z m 4.2815,-26.35071 c 0.44136,-3.10827 -0.71499,-5.83422 -2.81705,-6.64086 -3.81948,-1.46567 -22.48812,7.91253 -22.48812,11.29692 0,1.11667 5.5252,1.71217 12.27823,1.32339 10.70427,-0.61628 12.3742,-1.38279 13.02694,-5.97945 z m -1.07607,-33.43347 c 1.17044,-5.85216 2.45425,-7.08765 6.73352,-6.48012 3.45435,0.49043 5.55278,2.62312 6.05294,6.15172 0.57207,4.036 2.04973,5.21815 5.84677,4.67742 8.40223,-1.19661 5.77301,-7.00589 -6.41061,-14.16419 l -11.49184,-6.75185 -6.53847,4.83411 c -3.59614,2.65874 -7.18246,4.83409 -7.96957,4.83409 -0.7871,0 -3.12464,1.69353 -5.19449,3.7634 -3.45874,3.45872 -3.39786,3.97939 0.75171,6.43146 5.59457,3.3059 13.38689,5.68958 15.32194,4.687 0.79857,-0.41374 2.10273,-4.00611 2.8981,-7.98304 z M 75.75061,906.88397 c -1.96267,-3.17564 5.15285,-8.44435 13.73044,-10.16674 6.6294,-1.3312 14.25168,-4.36586 34.76364,-13.84044 9.54876,-4.41064 18.10748,-14.18395 15.07597,-17.21545 -0.55864,-0.55867 -6.12325,1.62287 -12.36578,4.84786 -25.63911,13.24559 -49.75041,20.91214 -54.96333,17.47641 -2.54187,-1.67529 -2.27184,-2.76162 1.37883,-5.54691 2.49686,-1.90499 6.29787,-3.46363 8.44668,-3.46363 3.44711,0 26.23702,-9.30504 41.57451,-16.97473 2.99643,-1.49838 7.85323,-2.52529 10.79289,-2.28199 4.96992,0.41131 5.43406,-0.66134 6.61658,-15.29158 0.77917,-9.63965 0.30144,-16.91 -1.23338,-18.77021 -3.06715,-3.7174 -12.49515,-2.63802 -11.6846,1.33774 0.32158,1.57732 0.84779,4.13992 1.16936,5.69464 0.35918,1.73652 -7.0825,4.83012 -19.29436,8.02087 C 84.90301,847.20405 70,848.49158 70,844.14465 c 0,-2.64394 5.63133,-5.03728 17.54032,-7.45473 18.65283,-3.7864 23.44316,-5.16121 26.53722,-7.61613 5.40198,-4.28608 -3.09673,-5.46701 -22.32548,-3.10223 -13.93836,1.71416 -17.99008,1.51607 -19.51677,-0.95414 -3.41309,-5.52252 0.0304,-6.8488 17.78177,-6.8488 15.84315,0 17.40229,-0.41907 17.40229,-4.67742 0,-2.57258 0.005,-5.46673 0.0117,-6.43145 0.007,-0.96472 -3.08962,-2.55747 -6.87922,-3.53945 -10.60252,-2.7474 -16.51887,-12.91697 -16.51887,-28.39416 0,-11.31266 0.60428,-13.08655 4.45795,-13.08655 3.55094,0 4.77195,2.283 6.0012,11.22071 1.92107,13.96773 3.26772,16.15349 10.58924,17.18746 5.72352,0.8083 5.86125,0.46828 6.53391,-16.12994 0.60932,-15.03576 1.20516,-16.95565 5.26209,-16.95565 4.15956,0 4.57496,1.69882 4.57496,18.70968 0,17.21667 0.37726,18.70967 4.72757,18.70967 5.52237,0 8.43072,-6.00575 10.47606,-21.63306 0.79967,-6.10988 2.23139,-11.10887 3.1816,-11.10887 7.09106,0 9.63029,16.12082 4.74611,30.13161 -2.11368,6.06331 -4.49736,7.95145 -12.8629,10.18889 -8.72154,2.33265 -10.26844,3.64268 -10.26844,8.69612 0,5.54688 0.81177,5.97741 11.98912,6.3589 6.59401,0.22499 13.09979,1.51984 14.45727,2.87732 3.53491,3.53491 2.83445,49.69526 -0.85933,56.62781 -5.25169,9.85653 -17.50375,16.69948 -51.39104,28.70261 -12.37405,4.38297 -17.75675,4.72414 -19.89702,1.26115 z m 105.45464,-6.67196 c -1.63906,-2.65205 3.09652,-7.53418 13.61171,-14.03292 7.54659,-4.66406 16.95373,-15.89034 14.97417,-17.86989 -0.49786,-0.49786 -5.79583,1.6983 -11.7733,4.88035 -5.97746,3.18202 -12.33323,5.78552 -14.12398,5.78552 -1.79072,0 -6.37378,1.55541 -10.18454,3.45648 -9.74919,4.86355 -18.34641,5.50775 -18.34641,1.37471 0,-1.84487 4.73589,-5.0927 10.5242,-7.21742 16.90403,-6.20495 19.34304,-7.39282 29.97554,-14.59886 9.677,-6.55842 10.28439,-6.67278 14.61694,-2.75184 2.48623,2.25 4.60812,3.13848 4.7153,1.97441 0.10712,-1.16409 0.58571,-4.74756 1.06339,-7.96328 0.47766,-3.21573 0.28306,-10.90496 -0.43245,-17.08718 -1.13925,-9.84353 -1.92534,-11.15139 -6.32546,-10.52419 -3.07599,0.43846 -4.79045,2.16235 -4.42089,4.44518 0.63047,3.89454 -5.28445,6.98741 -30.79568,16.10286 -13.28453,4.74672 -21.88452,4.84249 -19.02262,0.21189 1.94873,-3.1531 12.76613,-8.25403 25.44006,-11.9962 14.80048,-4.37004 14.38646,-8.86406 -0.68323,-7.41607 -13.84834,1.33068 -19.24054,-0.2918 -17.34932,-5.22026 0.91486,-2.38406 4.44961,-3.59658 10.48476,-3.59658 7.49115,0 9.10462,-0.81434 9.10462,-4.59515 0,-4.80209 -6.3241,-9.43711 -12.87621,-9.43711 -7.03537,0 -10.03194,-5.98542 -10.83734,-21.64687 -0.4365,-8.48759 -0.0407,-16.18478 0.87926,-17.10485 3.57706,-3.57708 8.06771,4.1016 8.21815,14.05237 0.19435,12.85729 1.63818,15.34451 8.9074,15.34451 5.50039,0 5.70874,-0.58835 5.70874,-16.12075 0,-10.7641 0.97139,-16.47799 2.92339,-17.19581 6.79061,-2.49723 8.77016,1.07653 8.77016,15.83311 0,8.17777 1.09852,15.5476 2.44117,16.3774 4.0799,2.52153 9.2141,-3.67767 10.69001,-12.90745 0.76766,-4.80072 2.24137,-10.09682 3.27489,-11.76909 3.31042,-5.3564 9.23398,3.22646 8.87202,12.85502 -0.37008,9.8441 -10.27531,22.28241 -17.74457,22.28241 -5.93625,0 -10.36923,5.33843 -8.493,10.22776 1.11835,2.91438 4.66515,3.8045 15.15966,3.8045 16.51828,0 18.07582,1.96776 18.63241,23.53995 0.84668,32.81551 -3.34981,41.31985 -26.19545,53.08611 -16.0703,8.27672 -17.38861,8.64516 -19.3835,5.41732 z M 73.4119,864.78722 c -2.0358,-3.29403 -2.36547,-3.11469 16.46713,-8.95782 9.00403,-2.79363 18.47581,-5.96462 21.04839,-7.0466 15.29081,-6.4311 16.62013,-6.66785 20.69802,-3.68599 3.76869,2.75572 3.48611,3.3182 -3.39054,6.74872 -4.12607,2.05834 -8.93315,3.74245 -10.68241,3.74245 -1.74926,0 -5.00792,0.95531 -7.24148,2.12291 -5.26769,2.75372 -28.24289,9.57063 -32.25607,9.57063 -1.70581,0 -3.79517,-1.12244 -4.64304,-2.4943 z m 82.11478,0.42059 c -2.08652,-3.37606 4.27811,-7.17116 18.03646,-10.75476 7.10032,-1.84941 16.72928,-5.50787 21.39763,-8.12994 9.95139,-5.58935 15.36181,-6.09323 15.36181,-1.43061 0,3.73258 -12.41415,10.69548 -19.069,10.69548 -2.37496,0 -4.3181,0.81918 -4.3181,1.82038 0,1.0012 -6.10349,3.63225 -13.5633,5.84677 -15.69728,4.65988 -16.14226,4.70857 -17.8455,1.95268 z"
       id="path3158"
       inkscape:connector-curvature="0" />
  </g>
</svg>
