<?xml version="1.0" encoding="UTF-8" standalone="no"?>
<!-- Created with Inkscape (http://www.inkscape.org/) -->

<svg
   xmlns:dc="http://purl.org/dc/elements/1.1/"
   xmlns:cc="http://creativecommons.org/ns#"
   xmlns:rdf="http://www.w3.org/1999/02/22-rdf-syntax-ns#"
   xmlns:svg="http://www.w3.org/2000/svg"
   xmlns="http://www.w3.org/2000/svg"
   xmlns:sodipodi="http://sodipodi.sourceforge.net/DTD/sodipodi-0.dtd"
   xmlns:inkscape="http://www.inkscape.org/namespaces/inkscape"
   width="300"
   height="300"
   id="svg2"
   version="1.1"
   inkscape:version="0.48.4 r9939"
   sodipodi:docname="image-seal.svg">
  <defs
     id="defs4" />
  <sodipodi:namedview
     id="base"
     pagecolor="#ffffff"
     bordercolor="#666666"
     borderopacity="1.0"
     inkscape:pageopacity="0.0"
     inkscape:pageshadow="2"
     inkscape:zoom="1.979899"
     inkscape:cx="200.43343"
     inkscape:cy="134.48103"
     inkscape:document-units="px"
     inkscape:current-layer="layer1"
     showgrid="false"
     inkscape:window-width="1215"
     inkscape:window-height="1000"
     inkscape:window-x="65"
     inkscape:window-y="24"
     inkscape:window-maximized="1" />
  <metadata
     id="metadata7">
    <rdf:RDF>
      <cc:Work
         rdf:about="">
        <dc:format>image/svg+xml</dc:format>
        <dc:type
           rdf:resource="http://purl.org/dc/dcmitype/StillImage" />
        <dc:title />
      </cc:Work>
    </rdf:RDF>
  </metadata>
  <g
     inkscape:label="Calque 1"
     inkscape:groupmode="layer"
     id="layer1"
     transform="translate(0,-752.36218)">
    <path
       style="fill:#000000"
       d="m 64.949627,1033.3551 c 1.250085,-10.6035 1.945999,-87.5456 1.133426,-125.31416 -0.582558,-27.07731 2.678323,-65.65222 5.709921,-67.54584 1.765449,-1.10277 11.381974,-4.51136 21.370052,-7.57462 14.105624,-4.32611 19.018864,-7.06743 22.006384,-12.27832 4.48563,-7.82394 5.76838,-8.13589 11.18449,-2.71975 3.22338,3.22334 3.89095,8.18935 3.3693,25.06281 -0.95283,30.81905 -2.14169,32.40251 -33.440274,44.53912 -3.089161,1.19787 -8.315683,2.17795 -11.61449,2.17795 -5.605631,0 -5.99771,0.83943 -5.995853,12.83706 0.0011,7.06038 -0.273978,40.45105 -0.611288,74.20147 -0.633367,63.37668 -1.593311,69.45128 -10.97502,69.45128 -2.965335,0 -3.36617,-2.4081 -2.136648,-12.837 z M 102.53749,874.55628 c 12.63015,-5.84799 15.16128,-8.31076 15.21813,-14.80712 0.0413,-4.71009 -10.72355,-6.18213 -13.41091,-1.83385 -0.83115,1.34482 -4.13211,2.44515 -7.335462,2.44515 -3.20334,0 -6.504298,1.10032 -7.33545,2.44515 -0.831168,1.34484 -3.6469,2.44515 -6.257197,2.44515 -3.643233,0 -4.745997,1.70445 -4.745997,7.33546 0,6.20289 0.947937,7.33547 6.139531,7.33547 3.376736,0 11.354046,-2.41443 17.727355,-5.36541 z m -1.86051,-23.97644 c 5.2722,-2.68967 11.28011,-4.8903 13.35093,-4.8903 4.15872,0 5.15266,-6.18933 1.36944,-8.52748 -2.80526,-1.73375 -23.265865,4.79199 -31.225159,9.959 -13.383906,8.68855 0.535714,11.60559 16.504789,3.45878 z m 32.99079,193.13676 c -0.84144,-1.3615 -1.37307,-9.889 -1.18135,-18.9499 0.69012,-32.61365 0.21689,-37.25829 -3.79688,-37.25829 -8.84407,0 -15.96666,10.89149 -18.41125,28.15349 -2.62438,18.5316 -3.08265,19.5994 -7.29386,16.9968 -2.0009,-1.2366 -2.54742,-7.4194 -1.75171,-19.818 1.03523,-16.131 1.9,-18.66699 8.24713,-24.1848 3.89984,-3.3903 9.84142,-6.83763 13.20351,-7.66071 13.92694,-3.40954 16.51241,-11.78527 4.27901,-13.86199 -30.977498,-5.25872 -33.48818,-7.03771 -34.238879,-24.26049 -0.795708,-18.25483 2.512958,-21.50985 23.583419,-23.20117 19.64052,-1.57657 22.17405,-6.79033 4.54258,-9.34817 -6.38795,-0.92671 -13.51483,-2.66981 -15.83744,-3.87359 -5.734454,-2.97198 -9.310791,-10.2078 -6.940677,-14.0427 1.464113,-2.36899 3.505497,-1.58261 8.276297,3.18818 4.04105,4.04106 9.02759,6.33279 13.77938,6.33279 4.09563,0 8.27185,0.0364 9.28049,0.0809 1.00862,0.0446 2.38401,-3.99564 3.05644,-8.97817 1.3926,-10.31907 4.26769,-12.22377 11.00976,-7.29385 4.05775,2.96709 4.2398,3.98956 1.33376,7.49114 -2.87062,3.45885 -2.82216,4.59828 0.32955,7.74999 3.29648,3.2965 4.89386,3.11249 14.81269,-1.70648 11.5067,-5.59037 19.90135,-5.05537 17.53265,1.11738 -1.44943,3.77718 -9.16482,7.38642 -23.01205,10.765 -12.59842,3.0739 -10.42755,6.49894 5.00094,7.89009 15.41519,1.38995 25.924,7.19489 29.35318,16.21429 6.96367,18.31584 -8.8061,34.01913 -33.07764,32.93823 -6.69453,-0.29815 -13.00453,-1.85164 -14.0222,-3.45222 -2.59697,-4.08445 -2.36679,-0.72225 0.45944,6.71131 1.31156,3.44962 4.12072,6.27206 6.2426,6.27206 6.12245,0 20.84026,11.1145 24.79296,18.72296 1.98617,3.82312 3.70009,10.01632 3.80873,13.76252 0.1085,3.7463 1.1293,7.3872 2.2681,8.0911 5.00785,3.095 0.43576,18.1071 -5.51472,18.1071 -2.42417,0 -7.08562,-14.2011 -7.08562,-21.5864 0,-15.91438 -11.16593,-30.12316 -20.77465,-26.43594 -3.2555,1.24925 -3.92812,5.0162 -3.65995,20.49744 0.58323,33.6726 0.2384,37.3055 -3.54033,37.3055 -1.93789,0 -4.21193,-1.114 -5.05341,-2.4755 z m -1.20379,-90.23657 c 0,-2.57758 1.15596,-5.07185 2.5688,-5.54279 4.11221,-1.37074 -3.06492,-20.12838 -8.07041,-21.09224 -3.56501,-0.6865 -4.27901,1.01784 -4.27901,10.21419 0,6.071 -1.10032,11.71819 -2.44515,12.54936 -5.36224,3.31405 -2.36569,8.55803 4.8903,8.55803 5.59904,0 7.33547,-1.10936 7.33547,-4.68655 z m 22.29608,-0.81504 c 0.791,-15.02105 -2.04702,-23.84024 -7.67175,-23.84024 -3.97303,0 -4.83774,1.64825 -4.81035,9.16931 0.0506,13.90011 2.4098,20.17252 7.58726,20.17252 3.05974,0 4.70236,-1.84621 4.89484,-5.50159 z m 22.64869,-6.6808 c 1.86698,-11.67543 0.22569,-16.28636 -6.41582,-18.02313 -6.43434,-1.68262 -9.18712,-0.0619 -9.18712,5.40927 0,2.34133 -1.32039,5.57734 -2.93418,7.19115 -2.28214,2.28213 -2.01046,2.93419 1.22258,2.93419 2.3727,0 4.15675,1.889 4.15675,4.40126 0,5.60112 4.56618,10.24055 8.56763,8.70504 1.69476,-0.65034 3.76035,-5.42833 4.59016,-10.61778 z m -65.99019,3.42437 c 0.81629,-2.12724 1.48419,-7.62883 1.48419,-12.22576 0,-6.70115 -0.96021,-8.35805 -4.84373,-8.35805 -5.62241,0 -8.734666,8.94872 -6.37796,18.33863 1.71775,6.84398 7.46434,8.16897 9.7375,2.24518 z m 99.10323,94.94974 c -0.26561,-2.6036 -1.6247,-7.7177 -5.03611,-18.95 -1.97135,-6.4907 -3.03179,-30.63763 -3.15268,-71.78755 l -0.18216,-62.00694 -8.55803,-3.08529 c -4.70692,-1.69691 -15.6585,-4.41693 -24.33684,-6.04449 -20.35673,-3.81777 -23.72634,-7.76449 -25.80118,-30.22009 -2.45511,-26.57119 -1.06008,-37.13881 4.90267,-37.13881 3.50225,0 5.10769,1.88538 5.65611,6.64235 0.6424,5.57174 2.21883,6.87027 9.78061,8.05624 4.95816,0.77763 11.76562,1.98143 15.1277,2.67511 3.36209,0.69373 9.41384,1.86754 13.44834,2.60852 9.16346,1.68298 16.87737,9.51914 20.17124,20.49088 1.42132,4.73438 2.67442,36.30003 2.85839,72.00394 0.29946,58.11552 1.33878,92.11113 2.99566,97.98573 1.21215,4.2979 -3.02369,20.6042 -5.35228,20.6042 -1.2839,0 -2.41854,-0.8252 -2.52144,-1.8338 z m -9.59353,-171.28286 c 0,-6.37597 -0.97584,-7.0478 -14.20684,-9.7806 -21.5451,-4.45008 -29.80591,-3.93183 -29.80591,1.86991 0,6.05365 6.96908,9.86662 18.03358,9.86662 4.71598,0 9.25452,1.10033 10.08567,2.44515 0.83117,1.34484 4.74722,2.44517 8.70236,2.44517 6.24587,0 7.19114,-0.89995 7.19114,-6.84625 z m -5.02019,-25.0534 c -4.4479,-3.85764 -7.82713,-4.74659 -13.79072,-3.6278 -6.01956,1.12927 -9.08503,0.29603 -12.88279,-3.50173 -8.14484,-8.14483 -16.78503,-5.42198 -13.69441,4.31564 1.28858,4.06002 15.26612,8.36015 35.60749,10.95457 9.30423,1.18671 11.39418,-2.38726 4.76043,-8.14068 z M 93.154436,818.36085 c -0.747727,-12.93242 -4.035204,-17.29536 -13.032146,-17.29536 -7.923249,0 -11.439966,-4.26897 -13.700559,-16.63117 -1.445282,-7.90362 -0.996474,-10.24512 2.302112,-12.01044 5.986492,-3.2039 9.440564,0.0347 10.359136,9.71304 0.688432,7.25356 1.820881,8.65296 7.534377,9.31037 l 6.724159,0.77369 0,-16.31751 c 0,-13.87484 0.57899,-16.09532 3.86772,-14.83333 2.127238,0.81633 4.327875,1.48419 4.890315,1.48419 0.56241,0 1.02258,6.60192 1.02258,14.67092 0,12.76008 0.60236,14.67091 4.62481,14.67091 3.11328,0 5.90386,-3.19662 8.53824,-9.7806 5.00395,-12.50611 11.28848,-13.12734 11.28848,-1.11588 0,10.04459 -7.48473,19.24574 -17.57301,21.60288 -5.2238,1.22057 -6.7267,3.15751 -7.33547,9.45394 -0.50404,5.21332 -2.22758,8.19584 -5.044641,8.7295 -2.35346,0.44582 -4.363207,-0.6455 -4.466103,-2.42515 z m 81.999164,0.26932 c -0.88644,-1.4343 -1.00377,-3.21578 -0.26072,-3.95882 1.74166,-1.74166 -4.58248,-8.10426 -8.05529,-8.10426 -3.39079,0 -13.04313,-5.36876 -15.38625,-8.55805 -2.47021,-3.36225 -2.26364,-18.82382 0.30564,-22.8787 2.62963,-4.15006 5.18153,-0.75022 8.89915,11.85607 3.8918,13.19699 9.96949,12.44802 12.96515,-1.5977 1.36881,-6.41792 1.95615,-12.53068 1.30522,-13.58392 -0.65095,-1.05326 -0.47046,-3.06875 0.40104,-4.47889 3.46096,-5.59997 8.48465,3.24866 8.48465,14.94475 0,6.48012 1.10875,12.46729 2.46391,13.30484 3.7198,2.29898 9.76186,-4.98188 9.76186,-11.76331 0,-6.29266 6.23203,-13.39573 9.17284,-10.45492 0.94556,0.94557 1.71918,6.17059 1.71918,11.61115 0,7.7874 -1.44774,11.13727 -6.80492,15.7453 -3.74272,3.21936 -8.28643,5.85338 -10.09715,5.85338 -1.81071,0 -4.44289,3.30096 -5.84935,7.33545 -2.61775,7.50935 -6.1592,9.3645 -9.02496,4.72763 z"
       id="path3273"
       inkscape:connector-curvature="0" />
  </g>
</svg>
