<?xml version="1.0" encoding="UTF-8" standalone="no"?>
<!-- Created with Inkscape (http://www.inkscape.org/) -->

<svg
   xmlns:dc="http://purl.org/dc/elements/1.1/"
   xmlns:cc="http://creativecommons.org/ns#"
   xmlns:rdf="http://www.w3.org/1999/02/22-rdf-syntax-ns#"
   xmlns:svg="http://www.w3.org/2000/svg"
   xmlns="http://www.w3.org/2000/svg"
   xmlns:sodipodi="http://sodipodi.sourceforge.net/DTD/sodipodi-0.dtd"
   xmlns:inkscape="http://www.inkscape.org/namespaces/inkscape"
   width="300"
   height="300"
   id="svg2"
   version="1.1"
   inkscape:version="0.48.4 r9939"
   sodipodi:docname="image-seal.svg">
  <defs
     id="defs4" />
  <sodipodi:namedview
     id="base"
     pagecolor="#ffffff"
     bordercolor="#666666"
     borderopacity="1.0"
     inkscape:pageopacity="0.0"
     inkscape:pageshadow="2"
     inkscape:zoom="1.979899"
     inkscape:cx="141.86812"
     inkscape:cy="134.8223"
     inkscape:document-units="px"
     inkscape:current-layer="layer1"
     showgrid="false"
     inkscape:window-width="1215"
     inkscape:window-height="1000"
     inkscape:window-x="65"
     inkscape:window-y="24"
     inkscape:window-maximized="1" />
  <metadata
     id="metadata7">
    <rdf:RDF>
      <cc:Work
         rdf:about="">
        <dc:format>image/svg+xml</dc:format>
        <dc:type
           rdf:resource="http://purl.org/dc/dcmitype/StillImage" />
        <dc:title />
      </cc:Work>
    </rdf:RDF>
  </metadata>
  <g
     inkscape:label="Calque 1"
     inkscape:groupmode="layer"
     id="layer1"
     transform="translate(0,-752.36218)">
    <path
       style="fill:#000000"
       d="m 173.0713,1031.9644 c -21.14099,-4.7461 -24.44912,-19.5577 -20.92334,-93.68076 0.92038,-19.34919 2.67562,-36.18254 3.90051,-37.40743 4.03452,-4.03452 7.95997,4.46155 8.78434,19.0125 0.71773,12.66899 1.50504,14.41419 6.84402,15.17104 11.1169,1.57596 13.01332,-3.00254 13.39995,-32.35153 0.19838,-15.06573 0.95535,-28.94152 1.68197,-30.83507 0.72664,-1.89355 0.26878,-6.28767 -1.01748,-9.76474 -2.24192,-6.06048 -3.1928,-6.28679 -22.99586,-5.47318 -11.36148,0.46678 -21.03853,1.21796 -21.50456,1.66926 -0.46601,0.45133 0.838,4.16894 2.89782,8.26138 10.64644,21.15221 5.9107,41.2891 -10.4313,44.35488 -7.83779,1.47037 -10.22374,0.63118 -16.54793,-5.82017 -8.44086,-8.6106 -11.22616,-20.07238 -5.1702,-21.27591 2.30065,-0.45724 5.40788,2.57869 7.50562,7.33341 4.48951,10.1758 9.97367,12.43054 14.78391,6.0782 4.35247,-5.74775 4.91525,-16.24911 1.37048,-25.57255 -2.07618,-5.46073 -4.80586,-6.9138 -15.7038,-8.35947 -7.25496,-0.96241 -13.19081,-2.77587 -13.19081,-4.02992 0,-1.25406 -1.17778,-2.28011 -2.61729,-2.28011 -1.43952,0 -2.6173,1.58779 -2.6173,3.52845 0,1.94062 -4.711139,5.65286 -10.469199,8.24939 -5.758056,2.59651 -10.469194,5.71983 -10.469194,6.94072 0,1.22089 -1.498848,2.21982 -3.330774,2.21982 -4.728961,0 -12.955706,16.37452 -10.907853,21.7111 1.911964,4.98252 20.551682,6.45192 23.399172,1.84459 2.900199,-4.69264 10.877618,-2.75631 13.478608,3.27162 2.85451,6.6154 1.7938,15.04946 -1.89267,15.04946 -1.333979,0 -2.425399,1.6763 -2.425399,3.72513 0,2.04884 -2.67958,7.05443 -5.95466,11.12351 -11.420454,14.1894 -19.131433,37.59914 -14.955219,45.40249 2.916638,5.44982 15.166379,8.25517 21.423719,4.90633 2.472529,-1.32325 5.290109,-6.8083 6.261279,-12.18897 3.07768,-17.05138 13.58631,-32.03009 22.47139,-32.03009 6.27607,0 6.13199,7.37255 -0.25231,12.9096 -2.76684,2.3997 -7.52939,12.09755 -10.58344,21.55082 -6.7767,20.9762 -15.59443,30.5776 -24.290229,26.449 -3.244112,-1.5403 -9.687143,-4.22395 -14.317824,-5.96362 -11.679171,-4.38763 -14.679983,-8.90944 -14.484706,-21.82639 0.172742,-11.42217 6.931654,-26.27989 16.625184,-36.54577 8.406999,-8.90338 13.309196,-19.51943 9.967276,-21.58487 -1.559675,-0.96392 -4.146482,-0.44188 -5.748478,1.16012 -8.521191,8.5212 -30.656076,-2.60992 -30.656076,-15.41623 0,-16.06128 8.713614,-29.34782 26.827308,-40.90626 10.921596,-6.96912 11.571076,-10.09452 5.63876,-27.13426 -3.419448,-9.82185 -3.598051,-14.32743 -1.076076,-27.1463 3.1177,-15.84701 10.045692,-33.05294 13.308802,-33.05294 4.433739,0 4.692109,9.08121 0.50923,17.89603 -5.53912,11.67281 -5.58699,27.0229 -0.12773,40.99318 4.553949,11.65384 13.712109,18.2568 29.280679,21.11112 8.71755,1.59828 10.00032,1.25992 8.64209,-2.27956 -1.6823,-4.38399 6.16944,-6.37084 32.15817,-8.13747 16.29174,-1.10745 21.93018,-3.7281 18.0585,-8.3932 -3.73992,-4.50631 -1.5408,-60.43363 2.5366,-64.51107 1.90678,-1.90675 4.01911,-1.67609 6.95359,0.75931 3.52592,2.92626 4.11528,8.80712 3.60565,35.9794 -0.45701,24.36568 0.24131,33.00698 2.7944,34.58495 1.872,1.15698 10.05017,1.50089 18.17371,0.76428 11.71124,-1.06195 15.51736,-0.43887 18.37852,3.0086 6.18527,7.45282 -0.65731,10.66932 -22.69724,10.66932 l -19.93177,0 0.21802,37.57896 c 0.11986,20.66842 1.36091,38.72171 2.75761,40.1184 1.39672,1.39672 5.92184,2.15294 10.05589,1.68054 6.91314,-0.79001 7.57182,-1.80423 8.20665,-12.63679 1.02064,-17.41597 2.8873,-23.55569 7.16166,-23.55569 5.22454,0 6.16745,6.09765 7.3997,47.8538 0.58554,19.84176 1.63147,36.64284 2.32432,37.33566 3.54579,3.54579 -3.41667,27.66445 -10.17601,35.25065 -12.92008,14.5006 -27.92486,18.1295 -52.31843,12.6533 z m 38.37527,-17.9322 c 5.35333,-5.3534 5.6918,-7.9639 6.27786,-48.4201 l 0.26539,-18.32108 -27.48163,0 -27.48163,0 0.39453,28.04464 c 0.23844,16.94282 1.78638,31.18914 3.91053,35.98784 3.41513,7.7153 4.02336,7.9433 21.19819,7.9433 14.19245,0 18.71527,-1.0331 22.91676,-5.2346 z"
       id="path3236"
       inkscape:connector-curvature="0" />
  </g>
</svg>
