<?xml version="1.0" encoding="UTF-8" standalone="no"?>
<!-- Created with Inkscape (http://www.inkscape.org/) -->

<svg
   xmlns:dc="http://purl.org/dc/elements/1.1/"
   xmlns:cc="http://creativecommons.org/ns#"
   xmlns:rdf="http://www.w3.org/1999/02/22-rdf-syntax-ns#"
   xmlns:svg="http://www.w3.org/2000/svg"
   xmlns="http://www.w3.org/2000/svg"
   xmlns:sodipodi="http://sodipodi.sourceforge.net/DTD/sodipodi-0.dtd"
   xmlns:inkscape="http://www.inkscape.org/namespaces/inkscape"
   width="300"
   height="300"
   id="svg2"
   version="1.1"
   inkscape:version="0.48.2 r9819"
   sodipodi:docname="蜀-seal.svg">
  <defs
     id="defs4" />
  <sodipodi:namedview
     id="base"
     pagecolor="#ffffff"
     bordercolor="#666666"
     borderopacity="1.0"
     inkscape:pageopacity="0.0"
     inkscape:pageshadow="2"
     inkscape:zoom="1.979899"
     inkscape:cx="264.53568"
     inkscape:cy="135.40359"
     inkscape:document-units="px"
     inkscape:current-layer="layer1"
     showgrid="false"
     inkscape:window-width="1280"
     inkscape:window-height="999"
     inkscape:window-x="0"
     inkscape:window-y="24"
     inkscape:window-maximized="1" />
  <metadata
     id="metadata7">
    <rdf:RDF>
      <cc:Work
         rdf:about="">
        <dc:format>image/svg+xml</dc:format>
        <dc:type
           rdf:resource="http://purl.org/dc/dcmitype/StillImage" />
        <dc:title></dc:title>
      </cc:Work>
    </rdf:RDF>
  </metadata>
  <g
     inkscape:label="Calque 1"
     inkscape:groupmode="layer"
     id="layer1"
     transform="translate(0,-752.36218)">
    <path
       style="fill:#000000"
       d="M 86.050328,823.62454 C 65.88899,808.80628 75.520861,798.40489 75.755093,783.78635 c 0,-12.17917 12.855297,-14.65396 74.782417,-14.39639 29.65192,0.12326 55.93357,0.7253 58.4037,1.33774 2.4701,0.61243 10.82586,2.29909 18.56841,3.74809 16.12289,3.01744 24.0742,11.37329 24.0742,25.29907 0,14.03631 -28.07667,30.43001 -52.25099,30.50887 -10.72986,0.035 2.87735,18.68793 17.70513,24.27042 21.18802,4.2205 35.15081,25.1317 35.47301,46.83053 -5.90158,32.70902 -29.72832,42.76909 -54.00752,52.49907 -28.04711,11.16076 -30.0491,13.58762 -33.32349,40.39532 -1.61292,13.20493 -2.98584,27.55663 -3.05093,31.89253 -0.093,6.1899 -1.51863,7.8835 -6.63667,7.8835 -3.58509,0 -8.20352,-2.3023 -10.26316,-5.1163 l 1.3e-4,0 c -5.11319,-6.9857 -1.97668,-38.78618 5.47661,-55.52593 7.14909,-16.05665 19.38,-25.47276 37.79744,-29.09887 7.75978,-1.5278 19.70212,-6.84403 27.59791,-12.28548 18.84718,-12.23055 13.9264,-8.78106 13.71208,-31.52194 -0.23189,-24.62046 -2.12318,-27.01244 -30.58548,-38.68234 -7.84046,-3.21467 -14.80726,-8.04976 -15.55006,-10.79201 -5.32091,-19.64386 -3.55323,-18.29807 -24.21847,-18.43808 -10.4569,-0.0709 -27.58293,-0.73868 -38.06113,-1.4355 l -22.259454,-1.4803 c -3.739351,-0.24868 -7.089839,-1.86229 -13.088448,-6.05381 z m 37.238092,22.33759 c 5.92235,0.16014 8.35864,1.31496 14.22485,1.31496 21.38521,0.32306 47.39957,7.97657 52.52936,27.8954 1.74971,8.30889 0.76724,10.70017 -6.83893,16.64575 -7.67583,6 -10.66372,6.76829 -21.99873,5.65665 -19.32284,-1.89504 -41.03054,-18.20307 -32.45504,-24.38208 13.50262,-0.49716 18.71722,12.82748 33.64809,12.99528 10.07687,0 10.36881,-0.29093 8.54361,-8.5147 -2.20515,-9.93582 -9.02518,-15.74218 -18.49044,-15.74218 -18.50385,-3.09052 -25.82449,-5.17013 -39.66922,0.0593 -10.08973,4.35015 -29.071704,11.19981 -35.071825,17.62226 -5.705322,6.61327 2.760372,9.97592 27.710175,11.00673 21.70413,0.8967 23.12014,1.32018 26.9356,8.05523 4.37073,7.71525 5.54305,6.13856 -19.57316,26.32433 -11.31272,9.09199 -12.15325,13.71628 -3.23902,17.82067 6.64263,3.05847 16.26439,-0.1288 31.20096,-10.33565 12.92302,-8.83083 22.20363,-12.33639 32.65923,-12.33639 12.0929,0 10.78116,6.2549 -2.27005,10.82459 -5.93007,2.07633 -17.07642,8.17821 -24.76962,13.55969 -11.16048,7.80691 -17.19533,10.06003 -29.85772,11.14744 -13.84282,1.18881 -17.035412,0.57052 -24.993211,-4.84015 -14.114598,-9.59682 -12.429576,-18.82022 5.805655,-31.77854 19.272786,-13.69563 19.272786,-16.6664 0,-14.55321 -13.606679,2.21295 -40.307208,-11.49155 -41.464986,-24.61263 0.006,-6.29051 14.253441,-17.96092 21.945844,-17.97577 3.436993,-0.007 11.487001,-3.73977 16.201625,-5.86531 l 12.983023,-5.85325 c -5.80659,-2.6927 -20.566396,-15.55386 -7.209167,-17.37764 3.169617,0 6.712777,-1.00734 9.528117,0.26996 10.39308,1.66302 6.77637,8.91308 13.98498,12.96926 z m -1.08788,-40.9362 c 0,-18.06525 -1.97728,-20.81675 -14.95923,-20.81675 -9.278954,0 -11.482553,1.15506 -14.573959,7.63904 -2.00311,4.20147 -3.64204,9.31602 -3.64204,11.36568 0,6.31888 13.744399,14.95493 23.800949,14.95493 9.13393,0 9.37428,-0.33698 9.37428,-13.1429 z m 59.56902,8.89794 c -0.24815,-7.19406 -8.25582,-27.1257 -11.99693,-29.86109 -1.94854,-1.42473 -10.09041,-2.24753 -18.09303,-1.82845 -16.17476,0.84708 -15.89138,0.21978 -11.02749,24.41248 l 2.31646,11.52202 c 7.24794,-0.35137 38.78134,1.8367 38.80099,-4.24496 z m 39.23399,-3.63852 c 4.32805,-3.8515 5.75371,-16.28827 2.5026,-21.83121 -1.84433,-3.14451 -6.36107,-4.24496 -17.42335,-4.24496 -13.80591,0 -14.79825,0.41212 -13.14164,5.4578 0.98553,3.00181 2.80639,9.55116 4.04638,14.55414 1.96337,7.92184 3.43938,9.09633 11.43162,9.09633 5.04741,0 10.7104,-1.36445 12.58439,-3.0321 z"
       id="path2996"
       inkscape:connector-curvature="0"
       sodipodi:nodetypes="ccssssscccscsccssccsssssccccssccscccssssssssssscccsccccsssssscsssccsssssss" />
  </g>
</svg>
