<?xml version="1.0" encoding="UTF-8" standalone="no"?>
<!-- Created with Inkscape (http://www.inkscape.org/) -->

<svg
   xmlns:dc="http://purl.org/dc/elements/1.1/"
   xmlns:cc="http://creativecommons.org/ns#"
   xmlns:rdf="http://www.w3.org/1999/02/22-rdf-syntax-ns#"
   xmlns:svg="http://www.w3.org/2000/svg"
   xmlns="http://www.w3.org/2000/svg"
   xmlns:sodipodi="http://sodipodi.sourceforge.net/DTD/sodipodi-0.dtd"
   xmlns:inkscape="http://www.inkscape.org/namespaces/inkscape"
   width="300"
   height="300"
   id="svg2"
   version="1.1"
   inkscape:version="0.91 r13725"
   sodipodi:docname="image-seal.svg">
  <defs
     id="defs4" />
  <sodipodi:namedview
     id="base"
     pagecolor="#ffffff"
     bordercolor="#666666"
     borderopacity="1.0"
     inkscape:pageopacity="0.0"
     inkscape:pageshadow="2"
     inkscape:zoom="2.7366667"
     inkscape:cx="150"
     inkscape:cy="150"
     inkscape:document-units="px"
     inkscape:current-layer="layer1"
     showgrid="false"
     inkscape:window-width="1231"
     inkscape:window-height="1000"
     inkscape:window-x="49"
     inkscape:window-y="24"
     inkscape:window-maximized="1"
     showguides="true"
     inkscape:guide-bbox="true" />
  <metadata
     id="metadata7">
    <rdf:RDF>
      <cc:Work
         rdf:about="">
        <dc:format>image/svg+xml</dc:format>
        <dc:type
           rdf:resource="http://purl.org/dc/dcmitype/StillImage" />
        <dc:title />
      </cc:Work>
    </rdf:RDF>
  </metadata>
  <g
     inkscape:label="Calque 1"
     inkscape:groupmode="layer"
     id="layer1"
     transform="translate(0,-752.36218)">
    <path
       style="fill:#000000"
       d="m 236.80446,1044.0622 c -8.227,-4.9573 -19.30943,-17.8785 -23.37849,-27.2573 -6.78995,-15.6501 -3.33292,-41.61591 5.54063,-41.61591 1.26275,0 2.46554,-3.77379 2.67285,-8.38621 0.2072,-4.61242 1.20165,-13.65715 2.2096,-20.09938 2.07379,-13.25445 0.50028,-15.38048 -14.62842,-19.76489 -8.68443,-2.51682 -10.22638,-2.11155 -18.77462,4.93463 -14.7145,12.12894 -16.92041,20.51887 -16.92041,64.35495 0,31.96041 -0.66063,38.72491 -3.90344,39.96931 -6.61925,2.5401 -11.83635,-4.0559 -10.26958,-12.9838 0.77497,-4.4159 2.38097,-22.599 3.56895,-40.40688 2.43484,-36.49936 6.72845,-49.48395 21.92502,-66.30474 9.72197,-10.76106 12.05295,-18.7242 5.48097,-18.7242 -5.3494,0 -13.84701,-7.5817 -18.79862,-16.77243 -6.26096,-11.62104 -7.61847,-34.50248 -4.97367,-83.83308 1.38357,-25.80588 1.78949,-27.33568 8.72639,-32.88694 7.36149,-5.8911 15.86721,-7.33817 36.94958,-6.28631 27.22578,1.35836 31.36349,9.66856 32.43997,65.15253 0.72981,37.61681 0.28949,42.87228 -4.43363,52.92028 -3.2893,6.99772 -8.04338,12.39509 -12.75455,14.48047 -4.13087,1.82848 -7.51067,4.20224 -7.51067,5.275 0,1.07277 -2.20875,1.95048 -4.90833,1.95048 -3.13376,0 -5.88395,2.79873 -7.60689,7.74112 -2.63185,7.54976 -2.49458,7.7412 5.55343,7.74427 13.80267,0.005 27.93491,15.88987 26.39789,29.67115 -1.14099,10.23038 -4.63894,21.93318 -6.55583,21.93318 -2.32615,0 -4.63489,6.61048 -9.01208,25.80373 -2.98609,13.09337 -2.82461,14.79127 2.08613,21.93317 2.92753,4.2576 9.75244,12.049 15.16648,17.3141 5.41404,5.2652 9.84369,10.6565 9.84369,11.9808 0,1.9013 -6.64986,6.0692 -8.59727,5.3885 -0.23868,-0.083 -2.72952,-1.535 -5.53508,-3.2256 z M 218.27617,879.43063 c 7.03435,-3.20508 12.01765,-12.23234 12.01765,-21.77005 0,-6.29714 -0.13212,-6.32952 -25.80374,-6.32952 l -25.80374,0 0.0395,9.6764 c 0.0206,5.32202 0.92538,11.07001 2.00813,12.77334 4.85476,7.63726 26.14736,10.84164 37.54219,5.64983 z m 13.58391,-45.08305 c -0.86146,-2.24487 -1.56626,-6.12258 -1.56626,-8.61711 0,-6.40799 -9.8673,-10.02075 -20.64299,-7.55809 -4.96722,1.13518 -13.84892,1.39846 -19.73713,0.58502 -10.29597,-1.42235 -10.77249,-1.17531 -12.44795,6.45308 -0.9582,4.36263 -1.00702,9.12154 -0.10838,10.57537 0.94798,1.53388 13.05749,2.64334 28.85139,2.64334 23.75885,0 27.01866,-0.51871 25.65145,-4.08161 z m -1.56626,-38.26939 c 0,-4.95749 -1.30384,-11.87527 -2.89743,-15.37279 -2.51011,-5.50912 -4.8831,-6.47387 -17.75263,-7.21743 -8.17037,-0.47208 -18.18792,-0.27215 -22.26122,0.44426 -6.65855,1.17111 -7.48755,2.43789 -8.2139,12.55197 -1.26361,17.59518 -1.07462,17.72534 26.41015,18.18991 l 24.71503,0.41774 0,-9.01366 z M 86.437997,980.33175 c -3.19322,-1.31784 -5.80584,-3.67762 -5.80584,-5.24391 0,-1.56631 -1.47448,-4.32233 -3.27664,-6.12449 -5.89719,-5.89719 -2.37371,-26.04149 6.10723,-34.91596 4.12,-4.31119 7.4909,-8.30687 7.4909,-8.8793 0,-0.57243 3.4835,-4.7699 7.74112,-9.32769 4.257613,-4.55779 7.741113,-10.48643 7.741113,-13.17477 0,-4.15105 -1.96253,-4.88785 -13.019163,-4.88785 -14.49383,0 -24.03917,-6.73044 -27.15567,-19.14753 -4.06296,-16.1881 0.86404,-24.80637 27.02706,-47.27552 8.370653,-7.18881 8.762793,-8.29822 8.306663,-23.49992 -0.26333,-8.77518 -1.604117,-18.91484 -2.979553,-22.53255 -3.56456,-9.37545 -3.12063,-26.24604 0.72464,-27.53984 1.774003,-0.59689 5.278793,-0.55266 7.788413,0.0983 3.87332,1.00464 4.31356,3.06372 2.91281,13.62321 -1.15222,8.68582 -0.29437,16.57258 2.84279,26.13549 6.47522,19.73831 7.3461,21.00579 15.9678,23.23988 11.17051,2.89459 30.99317,24.96604 33.25619,37.02901 3.03637,16.18531 -5.78218,34.70873 -16.52402,34.70873 -6.59618,0 -22.69325,-16.12269 -24.25528,-24.29386 -1.82972,-9.57153 2.25202,-14.4448 5.51395,-6.5832 6.75397,16.27798 18.91628,20.89401 23.47304,8.90887 3.94864,-10.38575 -5.56362,-26.97845 -19.58034,-34.15494 -14.56616,-7.45779 -16.42767,-7.32888 -24.97786,1.73009 -3.912,4.14478 -10.570133,9.06635 -14.795883,10.93684 -9.48649,4.19912 -16.21448,20.7813 -12.13527,29.90924 2.11661,4.73625 4.77996,5.85322 14.45704,6.06305 19.013573,0.41227 24.219923,2.77839 26.636853,12.10567 2.37786,9.17648 2.61033,8.75642 -16.56484,29.93203 -18.772853,20.73128 -21.691493,33.81122 -8.850153,39.66214 8.666383,3.94867 17.256053,-1.14408 23.678243,-14.03865 9.68113,-19.43787 17.59763,-29.17654 23.73268,-29.19517 7.08622,-0.0206 7.62438,5.98729 1.15792,12.92824 -6.42676,6.89832 -15.99507,25.3017 -15.99507,30.7644 0,6.73382 -8.58991,13.23466 -17.0517,12.90476 -4.10401,-0.15998 -9.78418,0.34409 -12.622593,1.12019 -2.83841,0.7761 -7.77337,0.33284 -10.96658,-0.98498 z"
       id="path3587"
       inkscape:connector-curvature="0" />
  </g>
</svg>
