<?xml version="1.0" encoding="UTF-8" standalone="no"?>
<!-- Created with Inkscape (http://www.inkscape.org/) -->

<svg
   xmlns:dc="http://purl.org/dc/elements/1.1/"
   xmlns:cc="http://creativecommons.org/ns#"
   xmlns:rdf="http://www.w3.org/1999/02/22-rdf-syntax-ns#"
   xmlns:svg="http://www.w3.org/2000/svg"
   xmlns="http://www.w3.org/2000/svg"
   xmlns:sodipodi="http://sodipodi.sourceforge.net/DTD/sodipodi-0.dtd"
   xmlns:inkscape="http://www.inkscape.org/namespaces/inkscape"
   width="300"
   height="300"
   id="svg2"
   version="1.1"
   inkscape:version="0.48.4 r9939"
   sodipodi:docname="dessin.svg">
  <defs
     id="defs4" />
  <sodipodi:namedview
     id="base"
     pagecolor="#ffffff"
     bordercolor="#666666"
     borderopacity="1.0"
     inkscape:pageopacity="0.0"
     inkscape:pageshadow="2"
     inkscape:zoom="1.979899"
     inkscape:cx="218.29155"
     inkscape:cy="144.09165"
     inkscape:document-units="px"
     inkscape:current-layer="layer1"
     showgrid="false"
     inkscape:window-width="1215"
     inkscape:window-height="1000"
     inkscape:window-x="65"
     inkscape:window-y="24"
     inkscape:window-maximized="1" />
  <metadata
     id="metadata7">
    <rdf:RDF>
      <cc:Work
         rdf:about="">
        <dc:format>image/svg+xml</dc:format>
        <dc:type
           rdf:resource="http://purl.org/dc/dcmitype/StillImage" />
        <dc:title />
      </cc:Work>
    </rdf:RDF>
  </metadata>
  <g
     inkscape:label="Calque 1"
     inkscape:groupmode="layer"
     id="layer1"
     transform="translate(0,-752.36218)">
    <path
       style="fill:#000000"
       d="m 192.30432,1039.9139 c -3.63668,-4.769 -3.94288,-23.6349 -0.58705,-36.1714 1.91875,-7.16794 6.13501,-13.65846 12.20832,-18.79343 14.93297,-12.62579 18.53956,-16.671 18.53956,-20.79426 0,-2.1368 -1.73798,-3.88509 -3.86216,-3.88509 -2.12419,0 -3.86217,1.16553 -3.86217,2.59006 0,3.74323 -36.46951,3.09993 -41.37839,-0.72987 -4.86607,-3.79643 -10.88104,-30.67162 -9.68654,-43.27985 0.58021,-6.12403 2.31162,-9.32119 5.36269,-9.9026 3.81136,-0.7263 4.50586,1.16666 4.50586,12.28155 0,9.90071 0.94363,13.14017 3.82761,13.14017 5.46733,0 11.99363,-17.49219 11.09612,-29.7404 l -0.76247,-10.40545 -10.29909,0.83742 c -12.99978,1.05703 -17.21933,4.93245 -21.59261,19.83168 -3.72191,12.68016 -2.71154,25.29142 3.47293,43.34857 3.90973,11.41537 7.56966,14.59801 21.96188,19.09784 6.19295,1.93624 9.03166,4.37846 9.03166,7.77017 0,12.13691 -30.32479,4.63306 -38.62161,-9.55693 -4.41953,-7.55863 -5.14955,-13.46964 -5.14955,-41.69531 l 0,-32.88808 -6.57783,6.34001 c -3.61779,3.48701 -8.55828,6.34004 -10.97888,6.34004 -6.75,0 -22.28458,-11.11621 -22.32041,-15.97201 -0.0181,-2.37421 -1.48018,-4.90789 -3.25034,-5.63044 -2.44785,-0.99912 -2.32541,-1.93874 0.5113,-3.92415 2.77315,-1.9409 5.21808,-0.99501 9.53245,3.6879 3.22053,3.49564 8.72179,6.29837 12.36257,6.29837 5.61873,0 6.55988,-1.15151 6.55988,-8.02604 0,-8.37703 -12.41051,-23.05461 -19.49369,-23.05461 -3.06481,0 -19.12869,9.20075 -32.645482,18.69805 -6.913191,4.85741 -5.723388,14.63522 2.147156,17.64534 3.65914,1.39947 7.765363,1.85292 9.124922,1.00768 1.359557,-0.84523 5.317604,0.33881 8.795654,2.63123 4.68058,3.08504 6.32371,6.47631 6.32371,13.05166 0,9.55805 -4.61462,22.07763 -8.13764,22.07763 -1.1888,0 -2.16146,1.74829 -2.16146,3.88508 0,2.1368 -1.05682,3.88507 -2.348455,3.88507 -1.291661,0 -3.15397,4.79604 -4.13846,10.65785 -3.234278,19.25711 13.009795,27.27582 19.180855,9.46844 1.5151,-4.37196 2.7547,-9.82747 2.7547,-12.1234 0,-6.08689 16.71947,-24.65961 20.23275,-22.47539 4.0636,2.52635 3.67943,9.35787 -0.80662,14.34433 -2.06075,2.29061 -5.51897,11.00888 -7.68492,19.37389 -2.16596,8.36503 -4.2455,15.41917 -4.62118,15.6759 -10.99007,7.5102 -14.43421,9.10933 -19.61919,9.10933 -3.41212,0 -10.106197,-2.42612 -14.875761,-5.39136 -7.921061,-4.92455 -8.671916,-6.48112 -8.671916,-17.97752 0,-6.92241 1.158648,-13.30652 2.574774,-14.18692 1.416126,-0.88042 2.574775,-3.7659 2.574775,-6.41215 0,-2.64628 0.868986,-5.19992 1.93108,-5.67478 1.062095,-0.47484 4.505648,-5.86591 7.652331,-11.98015 4.048237,-7.86605 4.801157,-11.37415 2.574775,-11.99682 -1.730557,-0.48401 -7.78107,-1.89182 -13.445573,-3.1285 -9.073659,-1.98096 -10.741804,-3.5367 -14.019903,-13.07525 -3.419068,-9.94889 -3.314687,-11.59959 1.287387,-20.35736 2.754519,-5.24184 6.695932,-10.20246 8.758712,-11.02366 7.224327,-2.87602 15.560287,-11.86777 15.560287,-16.78442 0,-2.72906 -1.877911,-11.46003 -4.173142,-19.4022 -3.456686,-11.96115 -3.663467,-16.73124 -1.204428,-27.78453 3.10989,-13.97894 8.947472,-24.61884 13.507162,-24.61884 2.59612,0 2.32436,4.76658 -1.88509,33.06368 -1.14362,7.68783 -0.38539,13.71523 2.49292,19.81686 2.27504,4.82273 4.13645,10.04938 4.13645,11.61475 0,1.56539 1.70272,2.84614 3.78384,2.84614 5.3575,0 21.09741,9.26975 29.83307,17.56972 5.25777,4.99549 7.58661,9.90512 8.03076,16.93038 0.70126,11.09192 3.5452,14.67562 5.84978,7.37146 1.54996,-4.91257 11.50826,-10.79089 18.28043,-10.79089 6.48691,0 4.75952,-15.24005 -2.05223,-18.10594 -15.27518,-6.42679 -18.93895,-17.20768 -19.75979,-58.14433 -0.52003,-25.93525 0.41964,-30.53617 5.81135,-28.45488 2.13291,0.82332 3.48799,7.74838 3.905,19.95634 0.35126,10.28252 1.5338,19.59595 2.62787,20.69651 1.09407,1.10057 10.01721,0.83385 19.82921,-0.59276 9.81197,-1.42658 19.28828,-2.61686 21.05843,-2.64506 1.77016,-0.0282 3.21847,-2.38236 3.21847,-5.23142 0,-4.21317 -1.71653,-5.18011 -9.19562,-5.18011 -5.05758,0 -10.98868,-1.8037 -13.18019,-4.00821 -5.10218,-5.13246 -8.15725,-37.43268 -3.54053,-37.43268 5.34603,0 10.89711,7.50902 9.29795,12.57745 -2.2881,7.25197 0.76056,12.64055 7.93175,14.01952 5.49225,1.05614 6.99046,-0.21031 10.40566,-8.7965 4.48683,-11.28018 9.49474,-12.81013 14.02971,-4.28613 3.8875,7.30696 5.84154,63.26482 2.2864,65.47506 -1.42256,0.8844 -2.62334,3.57892 -2.66836,5.98777 -0.14085,7.53892 -6.19128,12.89339 -16.41604,14.52803 -12.44299,1.98924 -14.39937,3.2497 -14.39937,9.27712 0,6.78041 3.38953,8.26283 19.87421,8.69201 12.17683,0.31703 15.07914,1.37776 19.28633,7.04876 7.22213,9.73498 9.41944,22.99523 8.03015,48.45996 -1.57458,28.86084 -6.20588,40.94326 -20.06681,52.35173 -10.93623,9.00122 -13.73768,16.23337 -15.55115,40.14587 -0.94064,12.4036 -1.39741,14.2453 -3.53316,14.2453 -1.24271,0 -3.37048,-1.4569 -4.72834,-3.2376 z m 19.1979,-94.93334 c -6.55951,-8.44136 -9.38495,-10.61138 -13.81632,-10.61138 -4.51054,0 -18.99192,12.11081 -18.99192,15.88299 0,2.95243 23.61911,3.88472 30.23347,1.19337 4.82835,-1.96463 5.24971,-3.02265 2.57477,-6.46498 z m 10.43499,-26.56063 c -1.23419,-17.16388 -5.16023,-22.82576 -16.3967,-23.64631 -7.3183,-0.53441 -7.52179,-0.22767 -7.05282,10.63633 0.39183,9.07675 2.307,13.07728 10.15419,21.21071 5.3192,5.51325 10.73405,9.36336 12.03298,8.55584 1.29892,-0.80755 1.86699,-8.34801 1.26235,-16.75657 z m -31.4952,-72.11262 c 12.74884,0 14.03809,-0.54694 15.54726,-6.59575 0.90514,-3.62766 1.04893,-7.19603 0.3196,-7.92971 -1.62488,-1.63451 -43.23825,-1.70247 -44.85787,-0.0733 -0.63807,0.64188 0.74159,4.86641 3.06592,9.38784 2.82288,5.49123 5.52052,7.72108 8.12476,6.71584 2.14429,-0.82773 10.15443,-1.50496 17.80033,-1.50496 z"
       id="path3332"
       inkscape:connector-curvature="0" />
  </g>
</svg>
