<?xml version="1.0" encoding="UTF-8" standalone="no"?>
<!-- Created with Inkscape (http://www.inkscape.org/) -->

<svg
   xmlns:dc="http://purl.org/dc/elements/1.1/"
   xmlns:cc="http://creativecommons.org/ns#"
   xmlns:rdf="http://www.w3.org/1999/02/22-rdf-syntax-ns#"
   xmlns:svg="http://www.w3.org/2000/svg"
   xmlns="http://www.w3.org/2000/svg"
   xmlns:sodipodi="http://sodipodi.sourceforge.net/DTD/sodipodi-0.dtd"
   xmlns:inkscape="http://www.inkscape.org/namespaces/inkscape"
   width="300"
   height="300"
   id="svg2"
   version="1.1"
   inkscape:version="0.48.4 r9939"
   sodipodi:docname="image-seal.svg">
  <defs
     id="defs4" />
  <sodipodi:namedview
     id="base"
     pagecolor="#ffffff"
     bordercolor="#666666"
     borderopacity="1.0"
     inkscape:pageopacity="0.0"
     inkscape:pageshadow="2"
     inkscape:zoom="1.979899"
     inkscape:cx="154.88845"
     inkscape:cy="133.61981"
     inkscape:document-units="px"
     inkscape:current-layer="layer1"
     showgrid="false"
     inkscape:window-width="1215"
     inkscape:window-height="1000"
     inkscape:window-x="65"
     inkscape:window-y="24"
     inkscape:window-maximized="1" />
  <metadata
     id="metadata7">
    <rdf:RDF>
      <cc:Work
         rdf:about="">
        <dc:format>image/svg+xml</dc:format>
        <dc:type
           rdf:resource="http://purl.org/dc/dcmitype/StillImage" />
        <dc:title />
      </cc:Work>
    </rdf:RDF>
  </metadata>
  <g
     inkscape:label="Calque 1"
     inkscape:groupmode="layer"
     id="layer1"
     transform="translate(0,-752.36218)">
    <path
       style="fill:#000000"
       d="m 232.65337,1041.1552 c -0.93896,-1.5193 -0.93896,-4.0054 0,-5.5246 0.93896,-1.5193 0.60085,-2.7623 -0.75135,-2.7623 -1.35219,0 -4.16305,-3.4184 -6.24635,-7.5963 -7.66798,-15.3779 -16.80139,-22.789 -28.08528,-22.789 -5.81342,0 -12.7283,-1.1218 -15.36641,-2.49304 -2.6381,-1.37118 -10.1222,-4.07033 -16.63139,-5.9981 -12.53204,-3.71151 -15.99997,-8.63123 -22.24823,-31.56211 -3.7579,-13.79129 -4.04899,-153.45121 -0.34885,-167.35937 3.55865,-13.37627 11.4748,-16.70436 48.24341,-20.28229 35.21636,-3.42688 45.57789,-2.80142 45.57789,2.7513 0,3.17791 -5.52831,3.95998 -27.99305,3.95998 -34.00049,0 -48.76366,3.81564 -52.765,13.63748 -2.86333,7.02853 -3.68185,87.31167 -1.50516,147.63555 1.31415,36.42051 1.23939,36.33245 41.63191,49.04882 35.19944,11.08148 40.6313,15.99818 40.6313,36.77818 0,15.2156 -0.87007,17.8522 -4.14344,12.5558 z M 77.441692,992.063 c -3.32624,-2.62492 -6.869493,-8.15173 -7.87392,-12.2818 -2.889914,-11.88313 4.275703,-34.48169 14.161021,-44.66026 9.285315,-9.5608 14.552489,-24.77039 9.631383,-27.81181 -1.58567,-0.97998 -6.80671,2.49349 -11.602368,7.71882 -7.726082,8.41838 -9.662121,9.23025 -16.995409,7.12708 -14.589784,-4.1843 -19.372838,-10.63932 -17.222583,-23.24282 1.038208,-6.08544 2.540151,-15.1043 3.337627,-20.04192 0.797474,-4.9376 2.253564,-8.97744 3.235725,-8.97744 0.982191,0 3.378095,-3.5973 5.324271,-7.99396 1.946148,-4.39669 7.318013,-9.55951 11.937455,-11.47295 4.619437,-1.91343 10.275824,-6.3434 12.569715,-9.84433 3.8978,-5.94876 3.522266,-7.41593 -5.738559,-22.41965 -7.7618,-12.57514 -9.909292,-18.92537 -9.909292,-29.30235 0,-15.8445 3.767385,-23.93402 11.14636,-23.93402 5.770881,0 7.760782,9.28104 2.665123,12.43033 -4.646516,2.87171 -2.956043,18.93134 2.762288,26.24182 2.970971,3.79815 5.429385,8.03143 5.463164,9.4073 0.138671,5.64629 14.816647,21.29812 23.295167,24.84066 14.35407,5.99753 22.2307,19.35632 21.97875,37.27608 -0.17955,12.77023 -1.34078,16.05305 -7.57535,21.41581 -6.09139,5.2396 -8.48024,5.82469 -13.82982,3.38726 -6.40534,-2.91848 -15.520422,-18.17776 -15.520422,-25.98229 0,-2.22735 1.864542,-4.04971 4.143442,-4.04971 2.27889,0 4.14345,2.23745 4.14345,4.97212 0,6.66937 5.32371,11.60163 12.52239,11.60163 7.76205,0 9.79151,-2.34976 6.81796,-7.89411 -1.33809,-2.49494 -3.11623,-7.64379 -3.95145,-11.44195 -2.9517,-13.42299 -26.438092,-33.05415 -26.438092,-22.09836 0,1.51925 -1.855101,2.76229 -4.122424,2.76229 -4.060415,0 -13.825729,7.27073 -23.916014,17.80654 -8.411466,8.78291 -13.291974,32.8225 -8.95702,44.11919 2.719038,7.08571 10.907864,5.04384 21.250372,-5.29866 10.842507,-10.8425 13.466188,-11.55234 19.691214,-5.32728 5.210364,5.21032 5.662794,15.94513 0.887894,21.06621 -1.899077,2.03675 -7.580849,11.85042 -12.626154,21.80815 -14.493632,28.60563 -9.059951,51.72221 9.679193,41.17835 6.189421,-3.48256 7.450861,-6.22287 7.908591,-17.18062 0.91841,-21.98588 14.26833,-42.69035 20.796,-32.25265 1.62103,2.59202 0.70264,5.21317 -2.80263,7.99883 -3.28662,2.61195 -5.83213,9.24851 -6.88678,17.95493 -2.76555,22.83048 -4.82972,30.13598 -9.52498,33.7108 -6.48827,4.93999 -22.841752,4.21955 -29.855288,-1.31526 z m 144.945578,-8.22545 c -2.31915,-2.65871 -5.6194,-7.54914 -7.33387,-10.8676 -3.52168,-6.81635 -4.20377,-20.20824 -1.02925,-20.20824 1.14838,0 3.77254,-3.8057 5.83145,-8.4571 3.58251,-8.09344 3.35257,-8.80608 -5.3478,-16.57378 -10.24373,-9.14556 -12.76682,-9.632 -20.31998,-3.91753 -4.71652,3.56837 -4.89802,4.80815 -1.60495,10.96134 2.04216,3.81583 4.74604,6.93789 6.00857,6.93789 1.26254,0 2.29553,1.24304 2.29553,2.76229 0,1.51927 -2.48608,2.76231 -5.5246,2.76231 -3.03853,0 -5.52459,-1.24304 -5.52459,-2.76231 0,-1.51925 -1.70917,-2.76229 -3.79815,-2.76229 -3.97161,0 -7.25104,11.50402 -7.25104,25.43613 0,8.72529 -4.36799,9.3989 -9.38384,1.44712 -2.01854,-3.20007 -1.8719,-8.29672 0.49321,-17.13958 3.74842,-14.01489 4.06921,-27.6673 0.8441,-35.92189 -2.64871,-6.77926 1.34302,-25.52111 6.54321,-30.7213 2.12907,-2.12903 6.30097,-3.87099 9.27087,-3.87099 3.60022,0 5.85047,-2.35705 6.75182,-7.0722 1.04068,-5.44391 -0.31613,-8.13859 -5.89312,-11.70394 -12.69612,-8.11655 -15.12139,-11.91323 -15.98749,-25.0276 -1.26377,-19.13616 5.15205,-31.50596 18.50219,-35.67251 13.69983,-4.27567 27.6858,-4.21302 33.05579,0.14805 9.766,7.93127 14.74832,42.47434 7.49911,51.99211 -1.8559,2.4367 -8.54453,7.06796 -14.86363,10.29176 -8.73041,4.4539 -11.16081,7.11758 -10.12128,11.0928 1.06663,4.07872 3.75236,5.16886 12.1892,4.94763 5.95165,-0.15607 10.82119,-1.48567 10.82119,-2.95469 0,-1.46901 1.43897,-1.23199 3.19769,0.52675 2.3594,2.35937 2.38969,4.17122 0.11575,6.91133 -1.69513,2.04254 -2.42101,6.24164 -1.61304,9.33135 0.95131,3.63772 -1.17163,8.7559 -6.02344,14.52198 l -7.4925,8.9043 8.67014,8.94531 c 8.49261,8.76214 10.7329,14.21088 6.59843,16.04845 -4.08687,1.81637 -12.01991,18.94996 -10.16424,21.95249 1.04201,1.68599 0.18149,4.15049 -1.91222,5.47662 -3.11089,1.97042 -3.01833,2.41887 0.50641,2.45346 5.66458,0.0555 16.98031,10.68666 14.92115,14.01843 -2.51103,4.06292 -8.30647,3.06026 -12.92663,-2.23638 z m -27.48886,-69.08739 c 5.09426,-1.10023 6.05884,-2.615 4.61103,-7.24109 -1.00695,-3.21742 -2.49687,-8.64664 -3.31095,-12.065 -2.79107,-11.71962 -16.52964,-6.81953 -17.42567,6.21517 -1.10226,16.03546 -0.32313,18.68845 4.8498,16.51408 2.6587,-1.11755 7.73282,-2.65796 11.27579,-3.42316 z m 26.88018,-18.49402 c 6.96564,-10.63089 -0.27071,-16.39056 -12.42198,-9.88735 -3.46375,1.85375 -4.57127,4.79551 -3.63983,9.66805 1.74069,9.10587 10.16377,9.22088 16.06181,0.21932 z m -4.31785,-52.44209 c 0,-5.22774 -0.93228,-10.02895 -2.07173,-10.66927 -1.13943,-0.64036 -9.84068,-0.56432 -19.33606,0.16904 -18.84066,1.45499 -21.49341,4.72709 -11.73976,14.48073 4.05137,4.05138 9.20764,5.52459 19.33607,5.52459 l 13.81148,0 0,-9.505 z m 0,-23.54537 c 0,-10.64621 -20.84492,-15.03289 -32.53292,-6.84629 -11.98316,8.39334 -7.81096,12.27371 13.19684,12.27371 17.37913,0 19.33608,-0.54929 19.33608,-5.42742 z"
       id="path3132"
       inkscape:connector-curvature="0" />
  </g>
</svg>
