<?xml version="1.0" encoding="UTF-8" standalone="no"?>
<svg
   xmlns:dc="http://purl.org/dc/elements/1.1/"
   xmlns:cc="http://creativecommons.org/ns#"
   xmlns:rdf="http://www.w3.org/1999/02/22-rdf-syntax-ns#"
   xmlns:svg="http://www.w3.org/2000/svg"
   xmlns="http://www.w3.org/2000/svg"
   viewBox="0 0 300 300"
   height="300"
   width="300"
   id="svg4159"
   version="1.1">
  <metadata
     id="metadata4165">
    <rdf:RDF>
      <cc:Work
         rdf:about="">
        <dc:format>image/svg+xml</dc:format>
        <dc:type
           rdf:resource="http://purl.org/dc/dcmitype/StillImage" />
        <dc:title></dc:title>
      </cc:Work>
    </rdf:RDF>
  </metadata>
  <defs
     id="defs4163" />
  <path
     id="path4169"
     d="m 191.08753,284.19457 c -5.65904,-1.07372 -10.18828,-2.68539 -16.82345,-5.98641 -3.4214,-1.70215 -4.70176,-2.85612 -7.00253,-6.31126 -5.13853,-7.71669 -7.93955,-14.60739 -10.25438,-25.22658 -1.813,-8.31696 -1.83766,-39.19191 -0.0391,-48.8814 2.69678,-14.52817 6.18532,-23.44954 10.49936,-26.85035 10.22392,-8.05968 23.64097,-10.91872 46.78401,-9.96921 11.64669,0.47784 16.34431,1.41702 22.41445,4.48122 8.98461,4.5354 13.15164,11.09805 14.74124,23.21584 3.50493,26.7189 3.94253,37.60019 2.05603,51.12582 -1.69357,12.14231 -6.59293,27.02398 -10.16606,30.87912 -4.32562,4.66699 -14.75462,10.21788 -23.5379,12.52816 -7.25877,1.9093 -21.28726,2.39616 -28.67173,0.99505 z m 5.89589,-13.84568 c 0.95551,-0.36665 1.08902,-2.67716 1.08902,-18.84687 0,-10.13594 -0.19363,-19.39716 -0.43029,-20.58046 l -0.4303,-2.15147 H 183.13258 169.0533 l 0.43794,6.36835 c 1.25733,18.28374 2.18281,22.37518 6.27479,27.74005 2.10825,2.76407 4.05481,3.91158 10.57232,6.2325 4.4413,1.58158 8.51498,2.0553 10.64507,1.2379 z m 27.87858,-2.10248 c 2.04919,-1.00136 5.19543,-3.24497 6.99163,-4.98578 2.79335,-2.70721 3.52247,-4.01177 5.03967,-9.01714 2.3281,-7.68058 4.52847,-18.21805 4.54199,-21.75144 l 0.0108,-2.81851 -10.43653,-0.45172 c -5.74009,-0.24846 -12.24613,-0.45173 -14.45787,-0.45173 h -4.02137 v 21.09643 21.09642 l 4.30294,-0.44794 c 2.43861,-0.25386 5.91722,-1.23678 8.02874,-2.26859 z m -37.01562,-52.55726 h 10.22606 v -21.06296 -21.06295 l -3.61447,0.48945 c -6.24506,0.84566 -14.17741,3.48114 -17.688,5.87675 -3.01179,2.05523 -3.53723,2.80568 -4.82792,6.89522 -1.77017,5.60882 -2.7732,13.88461 -2.78015,22.93845 l -0.006,6.81067 4.23182,-0.44231 c 2.3275,-0.24328 8.83355,-0.44232 14.45788,-0.44232 z m 43.45026,0 h 10.30269 l -0.45739,-2.43809 c -0.25157,-1.34094 -0.59361,-7.1499 -0.76009,-12.90881 -0.36571,-12.65113 -0.55132,-13.61299 -3.52443,-18.26475 -2.98643,-4.67263 -6.28256,-6.21452 -15.06015,-7.04496 -3.54985,-0.33585 -7.24204,-0.80835 -8.20485,-1.05 l -1.75057,-0.43937 v 16.14982 c 0,8.88241 0.20366,18.55919 0.45259,21.50398 l 0.45259,5.35415 4.12347,-0.43098 c 2.2679,-0.23705 8.75966,-0.43099 14.42614,-0.43099 z M 88.442739,269.40574 c -7.13492,-1.2856 -9.983706,-2.6837 -12.526487,-6.14767 -5.796265,-7.89607 -7.005821,-16.03297 -3.896003,-26.20897 2.399957,-7.85322 4.234328,-10.86282 10.501239,-17.22913 12.973656,-13.17944 17.901382,-20.396 18.899482,-27.67793 0.68743,-5.01535 -0.004,-6.74559 -2.695069,-6.74559 -1.83839,0 -2.991666,0.75917 -6.355227,4.18348 -5.742421,5.84613 -14.7546,12.77738 -19.347327,14.88 -3.054846,1.39855 -4.982963,1.77913 -9.12001,1.80016 -7.262863,0.0369 -9.591935,-0.88418 -12.278022,-4.85561 -8.709358,-12.87699 -8.305105,-24.96666 1.686316,-50.43155 5.455362,-13.90396 6.922681,-16.28014 14.505197,-23.48986 3.768667,-3.58338 9.135894,-8.08553 11.927177,-10.00477 4.620887,-3.17726 5.743682,-3.61541 12.546798,-4.8961 4.109466,-0.77362 7.812647,-1.74748 8.229307,-2.16413 1.08329,-1.08329 -0.4007,-9.07283 -3.287753,-17.700653 L 94.8943,85.730251 87.863494,78.93665 C 69.931973,61.61011 64.539762,52.998549 61.46852,36.782885 59.619885,27.022427 60.345715,21.973751 64.224886,17.610206 L 66.545352,15 l 2.334276,2.473461 c 2.903568,3.076708 4.803185,8.069378 6.700214,17.609865 1.547379,7.782065 4.088046,16.102677 6.183676,20.251338 0.685881,1.357832 6.672956,7.547529 13.304607,13.754882 l 12.057525,11.286096 1.68406,7.243469 c 0.92623,3.983903 2.54328,11.016576 3.59345,15.628149 l 1.9094,8.38469 10.22528,4.86725 c 9.33084,4.4415 10.73743,5.35893 16.08023,10.48823 14.23165,13.66296 21.55277,28.4865 19.60189,39.68923 -1.06221,6.09966 -3.12527,11.26165 -5.35103,13.38877 -4.58282,4.37973 -11.5141,5.686 -18.806,3.54417 -7.12321,-2.09228 -11.526,-5.00757 -17.03014,-11.27645 -6.27659,-7.14864 -7.98826,-10.62439 -7.53827,-15.30736 0.39657,-4.12728 0.79247,-4.55594 4.67774,-5.06495 l 3.07031,-0.40223 6.0839,7.60573 c 7.33004,9.1636 9.85442,11.47095 13.67571,12.49991 3.2889,0.8856 7.38326,0.45162 8.24003,-0.87341 1.32001,-2.04141 1.95592,-6.04784 1.37224,-8.64558 -0.33248,-1.47976 -2.84433,-6.61117 -5.58189,-11.40315 -5.4173,-9.48271 -9.22169,-13.58058 -18.09216,-19.48779 -12.27216,-8.17255 -22.63334,-9.06967 -37.578914,-3.25379 -4.152174,1.61577 -5.61609,2.63063 -8.382455,5.81119 -8.386218,9.64185 -14.911905,20.55792 -18.270197,30.56212 -3.451649,10.28228 -2.98396,26.2617 0.857062,29.28305 3.486178,2.74223 5.063213,2.00197 14.303033,-6.7138 13.238223,-12.4874 18.329794,-15.20447 26.978561,-14.39684 2.38658,0.22287 4.9463,0.7301 5.68827,1.12719 2.16373,1.15799 5.53911,9.03043 5.97535,13.9364 0.31352,3.52585 0.0394,5.41066 -1.48002,10.17908 -2.79665,8.7763 -4.01288,10.74043 -11.29746,18.24446 -7.794954,8.02979 -13.736089,15.33294 -15.793722,19.41445 -2.243581,4.45038 -3.207687,11.44801 -2.221336,16.12283 0.75634,3.58466 1.023911,3.96136 3.657178,5.1488 9.219376,4.15736 17.5117,-2.75279 22.95102,-19.12552 3.78826,-11.40294 4.73227,-13.30586 8.66218,-17.46116 7.14629,-7.55615 25.58527,-16.93665 28.16024,-14.32601 0.319,0.32341 0.76527,2.13708 0.99171,4.03038 l 0.41172,3.44235 -11.00918,9.1992 -11.00919,9.19919 -2.85699,8.70104 c -1.57134,4.78557 -4.13911,10.98195 -5.70613,13.76973 -3.54169,6.30075 -9.99964,12.54696 -14.58908,14.11073 -4.116485,1.40263 -10.709371,1.90853 -14.939311,1.14635 z M 198.76091,147.90006 c -0.56799,-0.13497 -3.3563,-0.61605 -6.19623,-1.06903 -6.19802,-0.98864 -18.5565,-4.89027 -22.35842,-7.05866 -3.20561,-1.82829 -7.28099,-7.36951 -9.43199,-12.82453 -3.13107,-7.94047 -1.26779,-25.42301 3.09792,-29.066773 2.79425,-2.33217 10.42768,-5.953308 15.26731,-7.24249 4.13046,-1.100271 7.32863,-1.277271 22.3753,-1.238358 25.08528,0.06486 34.22851,1.398125 41.04501,5.985128 4.13049,2.77952 7.28778,6.881243 9.17078,11.914023 2.54127,6.79215 2.71302,10.17865 0.88811,17.51167 -0.89523,3.59726 -2.08594,7.24894 -2.64603,8.11486 -1.47177,2.2754 -8.54728,7.30482 -13.70471,9.74158 -8.34818,3.94433 -13.359,4.97537 -25.45882,5.23847 -6.05854,0.13172 -11.48024,0.12908 -12.04823,-0.007 z m 28.14451,-14.3593 c 6.24114,-2.17265 12.28116,-6.08222 13.25883,-8.58215 1.12423,-2.87468 0.30153,-11.8174 -1.39266,-15.1383 -1.58769,-3.11214 -4.6303,-5.68309 -8.34104,-7.04807 -3.40733,-1.25335 -36.31129,-1.79672 -43.31231,-0.71525 -10.61427,1.63964 -13.19624,3.12954 -14.39066,8.30404 -1.37339,5.94987 -1.04918,10.95989 0.97168,15.01522 2.0865,4.18707 2.31711,4.3362 10.34523,6.6903 9.08759,2.66477 17.86158,3.73423 28.48583,3.47217 7.81962,-0.19289 10.10052,-0.5099 14.3751,-1.99796 z M 192.22044,73.074506 c -5.67988,-0.316339 -13.14378,-0.397732 -16.58645,-0.180874 -6.46067,0.406968 -13.74052,-0.557178 -15.84919,-2.099073 -0.68627,-0.501816 -1.26392,-2.170794 -1.46092,-4.220943 -0.32238,-3.355163 -0.29685,-3.40723 2.42123,-4.93487 l 2.74705,-1.543928 h 40.95631 c 22.52598,0 41.94309,0.197356 43.14916,0.438569 3.26905,0.653809 6.36518,4.046628 6.10572,6.690809 -0.1817,1.851752 -0.64242,2.29069 -3.52315,3.356605 -6.83362,2.528538 -14.34008,3.288511 -31.37171,3.176147 -8.94355,-0.059 -20.90816,-0.366103 -26.58805,-0.682442 z"
     style="fill:#000000;stroke-width:0.68847054" />
</svg>
