<?xml version="1.0" encoding="UTF-8" standalone="no"?>
<!-- Created with Inkscape (http://www.inkscape.org/) -->

<svg
   xmlns:dc="http://purl.org/dc/elements/1.1/"
   xmlns:cc="http://creativecommons.org/ns#"
   xmlns:rdf="http://www.w3.org/1999/02/22-rdf-syntax-ns#"
   xmlns:svg="http://www.w3.org/2000/svg"
   xmlns="http://www.w3.org/2000/svg"
   xmlns:sodipodi="http://sodipodi.sourceforge.net/DTD/sodipodi-0.dtd"
   xmlns:inkscape="http://www.inkscape.org/namespaces/inkscape"
   width="300"
   height="300"
   id="svg2"
   version="1.1"
   inkscape:version="0.48.4 r9939"
   sodipodi:docname="dessin.svg">
  <defs
     id="defs4" />
  <sodipodi:namedview
     id="base"
     pagecolor="#ffffff"
     bordercolor="#666666"
     borderopacity="1.0"
     inkscape:pageopacity="0.0"
     inkscape:pageshadow="2"
     inkscape:zoom="1.979899"
     inkscape:cx="156.32962"
     inkscape:cy="101.52144"
     inkscape:document-units="px"
     inkscape:current-layer="layer1"
     showgrid="false"
     inkscape:window-width="1215"
     inkscape:window-height="1000"
     inkscape:window-x="65"
     inkscape:window-y="24"
     inkscape:window-maximized="1" />
  <metadata
     id="metadata7">
    <rdf:RDF>
      <cc:Work
         rdf:about="">
        <dc:format>image/svg+xml</dc:format>
        <dc:type
           rdf:resource="http://purl.org/dc/dcmitype/StillImage" />
        <dc:title />
      </cc:Work>
    </rdf:RDF>
  </metadata>
  <g
     inkscape:label="Calque 1"
     inkscape:groupmode="layer"
     id="layer1"
     transform="translate(0,-752.36218)">
    <path
       style="fill:#000000"
       d="m 147.9587,1034.8991 c -1.30813,-3.4559 -0.0966,-23.2532 2.77429,-45.33804 1.46874,-11.29817 1.00492,-13.38576 -4.1312,-18.59271 -3.18217,-3.22596 -5.47204,-6.81966 -5.08861,-7.98577 0.38339,-1.1661 -0.41057,-3.47328 -1.76437,-5.12702 -2.70422,-3.30335 -3.73556,-12.44685 -3.04791,-27.02115 0.34932,-7.4031 1.34487,-9.30265 4.54738,-8.6766 3.17003,0.61968 4.29362,4.16193 4.95299,15.61502 0.85287,14.81415 5.45328,25.60273 5.78703,13.57137 0.52159,-18.80244 3.94654,-32.10342 8.26652,-32.10342 4.24407,0 5.55363,7.81293 3.61837,21.58701 -0.80609,5.73726 -0.72469,11.64676 0.18095,13.13223 2.92598,4.79964 7.41669,-3.7575 8.9758,-17.10356 0.96826,-8.28818 2.62731,-12.65762 4.80603,-12.65762 2.45962,0 3.30705,4.04052 3.24957,15.49392 -0.0819,16.295 -1.94764,20.35039 -12.51274,27.19636 -6.04209,3.91512 -6.57128,5.74489 -7.8762,27.23508 -0.76942,12.6711 -1.43635,25.6319 -1.48209,28.8021 -0.16457,11.4022 -8.22591,19.9772 -11.25574,11.9728 z m 60.04211,-10.4611 c -1.31161,-3.4974 -2.38476,-14.9909 -2.38476,-25.54142 0,-17.00415 -0.7749,-20.29357 -6.82429,-28.96719 -8.37248,-12.00444 -12.64776,-24.65792 -11.75367,-34.78693 1.48015,-16.76812 8.77649,-16.98417 8.83021,-0.26144 0.0386,12.02026 2.25225,21.93781 4.57214,20.48426 0.88233,-0.55282 1.58252,-9.65224 1.55596,-20.22096 l -0.0482,-19.21578 -17.11698,0.46119 c -20.03768,0.53991 -27.13604,-2.46971 -34.0236,-14.42556 -6.98629,-12.12726 -6.26327,-43.0453 1.19479,-51.0936 3.27619,-3.53547 4.14366,-6.06163 2.44667,-7.1249 -1.44606,-0.90604 -2.62919,-5.01401 -2.62919,-9.12882 0,-5.00739 -2.42594,-9.94088 -7.33584,-14.91857 -6.73813,-6.83109 -7.33586,-8.8355 -7.33586,-24.59956 0,-10.13717 1.03237,-17.16252 2.52202,-17.16252 3.25394,0 4.75766,4.16571 6.84571,18.96435 1.15979,8.21976 2.84729,12.02351 5.3342,12.02351 2.00073,0 3.33614,-1.47493 2.96757,-3.2776 -1.40477,-6.87097 -0.9999,-32.40788 0.55424,-34.95724 3.36332,-5.51706 6.22909,-2.34216 6.22909,6.90099 0,17.68078 2.94694,32.57335 6.44558,32.57335 2.16985,0 3.33555,-2.97592 3.33555,-8.5152 0,-4.68339 1.14127,-11.5584 2.53616,-15.27786 3.64171,-9.71062 8.1707,-4.02349 6.43789,8.08422 -3.42114,23.90461 -4.27883,25.72548 -14.16212,30.06634 -8.5918,3.77362 -13.08432,10.43278 -7.03834,10.43278 1.34491,0 2.44528,1.57815 2.44528,3.50701 0,4.64384 31.45075,6.78956 36.30664,2.47705 3.74879,-3.32933 1.10288,-10.20177 -7.14831,-18.56683 -3.7475,-3.79921 -4.70549,-8.30333 -4.70549,-22.12361 0,-9.91612 1.04797,-17.35319 2.44528,-17.35319 1.3449,0 2.55476,1.95223 2.68854,4.33829 0.94537,16.8598 2.5328,26.73698 4.64046,28.87376 1.63932,1.66191 2.49175,0.88355 2.57166,-2.34817 0.32793,-13.26234 2.84425,-44.61101 3.64614,-45.42396 0.50267,-0.50964 2.612,-0.26602 4.68736,0.54137 3.01557,1.17315 3.7734,5.96442 3.7734,23.85702 0,13.27334 0.99559,22.38905 2.44527,22.38905 2.63546,0 3.34679,-4.07305 2.92241,-16.73344 -0.14842,-4.43126 0.78371,-8.05685 2.0717,-8.05685 1.28795,0 2.34175,-1.7663 2.34175,-3.92511 0,-6.11256 5.60967,-2.71653 6.71749,4.06669 2.50322,15.32765 0.5343,28.34954 -4.93682,32.65041 -2.99674,2.35575 -6.66254,4.30798 -8.14627,4.3383 -3.8058,0.0778 -1.19901,24.61327 3.36917,31.71076 2.4988,3.88235 3.10998,8.49191 1.97217,14.87415 -0.90681,5.0866 -2.22744,13.6947 -2.93471,19.12915 -0.70727,5.43445 -2.42423,10.59403 -3.81545,11.46571 -3.00061,1.88007 -0.26133,17.07842 3.07813,17.07842 1.23807,0 2.251,-1.11557 2.251,-2.47904 0,-4.95835 7.27888,-2.32711 8.57228,3.09879 4.01912,16.86059 0.86793,38.82458 -6.54609,45.62668 -4.25044,3.89975 -4.7785,7.38973 -4.43215,29.2907 0.21616,13.67485 0.2959,26.81565 0.17704,29.20175 -0.3219,6.4569 -4.88793,5.2449 -7.61266,-2.0207 z m 12.2495,-87.37058 c 0.0221,-4.84536 -0.96349,-7.576 -2.40784,-6.67101 -1.3449,0.84267 -2.42843,6.20744 -2.40784,11.9217 0.0274,7.62132 0.66902,9.39875 2.40784,6.67101 1.30373,-2.0452 2.38723,-7.40996 2.40784,-11.9217 z m -17.52657,-43.32294 c 3.62949,-6.08916 3.68224,-7.19736 0.44703,-9.3936 -2.72495,-1.84988 -33.01452,-1.78785 -45.84906,0.094 -2.28057,0.33435 0.11983,9.19476 3.524,13.00836 3.41691,3.82774 7.05635,4.50766 20.94921,3.91373 15.43024,-0.65965 17.15251,-1.28688 20.92882,-7.62239 z m 2.89231,-28.16059 c 0,-7.10278 -4.92553,-9.73008 -22.2255,-11.85515 -16.65399,-2.04572 -26.68016,1.6841 -26.68016,9.92525 0,7.51523 2.59738,8.26141 27.50944,7.90305 20.56786,-0.29591 21.39622,-0.52714 21.39622,-5.97315 z m -1.22263,-20.71393 c -0.83121,-1.36347 -1.99653,-2.47904 -2.58962,-2.47904 -0.59307,0 -1.07832,1.11557 -1.07832,2.47904 0,1.36346 1.16533,2.47903 2.58962,2.47903 1.42427,0 1.90951,-1.11557 1.07832,-2.47903 z M 80.131334,980.56119 c -5.581969,-4.52868 -6.971012,-7.75067 -7.323671,-16.98854 -0.367722,-9.63281 3.419093,-22.25324 8.095061,-26.97867 3.343411,-3.37877 12.230304,-23.36367 12.230304,-27.50357 0,-5.66912 -3.163047,-6.10255 -7.335849,-1.00525 -6.254498,7.64022 -22.007549,2.44348 -22.007549,-7.26001 0,-2.1426 -1.100378,-3.89561 -2.445283,-3.89561 -3.363658,0 -3.079126,-19.71562 0.432937,-29.99817 2.772829,-8.1183 14.971907,-22.06141 19.301892,-22.06141 4.910299,0 6.838356,-9.17486 3.806768,-18.11485 -1.690107,-4.98404 -3.827065,-9.82642 -4.748764,-10.76087 -3.104386,-3.1472 -1.576035,-26.82772 2.044573,-31.67949 4.769501,-6.39129 5.869732,-4.67297 7.386468,11.53613 0.707273,7.55843 3.337738,19.72757 5.845449,27.04254 3.610657,10.5321 6.48315,14.42045 13.80293,18.68427 14.70687,8.56682 22.215,17.17847 25.09832,28.7872 4.76693,19.19252 -4.05956,36.83886 -16.43467,32.85694 -8.05228,-2.59096 -14.99184,-12.51976 -15.60086,-22.32097 -0.80367,-12.93403 3.87822,-13.57701 8.67711,-1.19166 2.9049,7.49722 5.11196,9.95274 8.34592,9.28549 6.3518,-1.31059 5.47859,-17.03394 -1.35921,-24.47475 -2.88636,-3.1409 -5.24792,-7.04366 -5.24792,-8.6728 0,-1.62917 -2.47584,-3.50648 -5.50188,-4.17183 -3.02604,-0.66535 -7.427552,-2.0303 -9.781137,-3.03324 -3.062032,-1.30484 -4.279245,-0.67291 -4.279245,2.22158 0,2.22482 -2.573416,5.03704 -5.718711,6.24938 -14.483535,5.58262 -23.753114,27.64533 -15.240862,36.27504 4.572239,4.63534 8.554651,4.47368 14.05243,-0.5704 3.647409,-3.34641 5.617916,-3.58706 10.584996,-1.29267 5.131569,2.37038 6.097359,4.50507 6.066159,13.40823 -0.0562,16.04667 -5.196519,30.16716 -14.023258,38.52242 -12.50821,11.84012 -10.448475,30.32367 3.379162,30.32367 7.221678,0 14.432766,-10.79162 16.565026,-24.7902 1.95266,-12.81952 7.27563,-22.31125 12.51218,-22.31125 4.58723,0 4.56419,4.28718 -0.0714,13.29827 -4.39058,8.5347 -4.7882,24.22355 -0.71852,28.34932 2.28226,2.31393 1.99352,2.97484 -1.29939,2.97484 -2.32856,0 -4.88273,1.71473 -5.67595,3.81026 -1.83763,4.85493 -13.58768,11.06762 -20.901717,11.05176 -3.092819,0 -8.723132,-2.52738 -12.511805,-5.60113 z"
       id="path3171"
       inkscape:connector-curvature="0" />
  </g>
</svg>
