<?xml version="1.0" encoding="UTF-8" standalone="no"?>
<!-- Created with Inkscape (http://www.inkscape.org/) -->

<svg
   xmlns:dc="http://purl.org/dc/elements/1.1/"
   xmlns:cc="http://creativecommons.org/ns#"
   xmlns:rdf="http://www.w3.org/1999/02/22-rdf-syntax-ns#"
   xmlns:svg="http://www.w3.org/2000/svg"
   xmlns="http://www.w3.org/2000/svg"
   xmlns:sodipodi="http://sodipodi.sourceforge.net/DTD/sodipodi-0.dtd"
   xmlns:inkscape="http://www.inkscape.org/namespaces/inkscape"
   width="300"
   height="300"
   id="svg2"
   version="1.1"
   inkscape:version="0.48.4 r9939"
   sodipodi:docname="image-seal.svg">
  <defs
     id="defs4" />
  <sodipodi:namedview
     id="base"
     pagecolor="#ffffff"
     bordercolor="#666666"
     borderopacity="1.0"
     inkscape:pageopacity="0.0"
     inkscape:pageshadow="2"
     inkscape:zoom="1.979899"
     inkscape:cx="93.377566"
     inkscape:cy="122.32215"
     inkscape:document-units="px"
     inkscape:current-layer="layer1"
     showgrid="false"
     inkscape:window-width="1215"
     inkscape:window-height="1000"
     inkscape:window-x="65"
     inkscape:window-y="24"
     inkscape:window-maximized="1"
     fit-margin-top="10"
     fit-margin-left="10"
     fit-margin-right="10"
     fit-margin-bottom="10" />
  <metadata
     id="metadata7">
    <rdf:RDF>
      <cc:Work
         rdf:about="">
        <dc:format>image/svg+xml</dc:format>
        <dc:type
           rdf:resource="http://purl.org/dc/dcmitype/StillImage" />
        <dc:title />
      </cc:Work>
    </rdf:RDF>
  </metadata>
  <g
     inkscape:label="Calque 1"
     inkscape:groupmode="layer"
     id="layer1"
     transform="translate(0,-752.36218)">
    <path
       style="fill:#000000"
       d="m 118.61473,1033.8446 c -11.09132,-5.6352 -11.31502,-17.2508 -0.57327,-29.7656 2.42208,-2.8219 6.68726,-7.7932 9.47818,-11.04742 7.22292,-8.42188 8.41883,-15.78897 4.0007,-24.6453 -2.11285,-4.23533 -3.17489,-8.77928 -2.36008,-10.09769 2.61363,-4.22895 17.89514,16.63407 17.88127,24.41231 -0.003,1.55704 -5.00126,7.8002 -17.88379,22.3371 -8.5621,9.6616 -9.13859,11.5015 -4.92434,15.7157 4.95322,4.9532 15.00473,3.2004 29.52067,-5.1479 18.77465,-10.7975 49.52983,-10.212 51.16564,0.9741 0.72704,4.9719 -0.0967,5.1757 -19.44374,4.8101 -18.47031,-0.349 -21.08503,0.2088 -30.48798,6.5027 -11.3524,7.599 -27.82576,10.2946 -36.37326,5.9519 z M 91.185133,989.08937 c -12.468764,-6.8311 -15.631864,-18.97559 -8.522867,-32.72287 5.146261,-9.95177 10.524042,-12.10368 30.248014,-12.10368 16.06201,0 17.41403,-0.41454 20.02232,-6.1391 3.3708,-7.39811 7.81253,-6.64358 8.62764,1.4656 1.12208,11.16341 -4.96318,15.298 -23.07727,15.6796 -24.004258,0.50571 -29.686725,4.37727 -24.900743,16.96538 1.766439,4.64605 4.154237,6.12205 10.261323,6.34288 4.37753,0.15822 8.98237,0.0907 10.23295,-0.1502 4.48998,-0.86528 13.52426,2.4369 13.52426,4.94323 0,9.12094 -23.47648,12.80797 -36.415627,5.71916 z m 77.125947,-0.25333 c -3.8554,-2.03072 -6.68378,-5.55683 -6.68378,-8.33255 0,-4.34552 1.13641,-4.66127 11.72263,-3.25697 9.20007,1.22044 12.59956,0.6781 15.79803,-2.52034 10.55378,-10.55379 -0.43653,-19.80245 -26.75992,-22.51926 -10.17977,-1.05066 -12.91308,-2.23466 -12.91308,-5.59362 0,-5.64953 4.78843,-7.21141 22.10868,-7.21141 12.91096,0 15.33112,0.83523 23.13014,7.98251 6.97146,6.38887 8.96831,10.27061 10.00226,19.44374 0.86362,7.66197 0.3814,11.46123 -1.45472,11.46123 -1.5106,0 -2.74654,2.08043 -2.74654,4.62315 0,3.0004 -2.68667,5.55978 -7.65408,7.29141 -9.75729,3.40142 -16.1737,3.0439 -24.54962,-1.36789 z M 70.190596,914.48959 c 0.888611,-11.02824 2.20969,-32.62902 2.935723,-48.00173 2.164336,-45.82614 7.253362,-56.56246 26.461359,-55.8254 5.381512,0.20659 10.878282,0.10737 12.215042,-0.2202 6.24844,-1.53119 7.70754,-1.74282 13.82628,-2.00534 7.01706,-0.30104 7.42869,-1.60801 10.31312,-32.7457 0.60151,-6.4935 1.71637,-12.42907 2.47745,-13.19015 5.18202,-5.18203 13.36256,26.41026 10.15152,39.20402 -1.42604,5.68185 -1.05999,5.81932 19.77685,7.42667 36.77131,2.83652 36.19521,2.59401 41.80974,17.60017 3.49351,9.3372 4.93991,19.0477 4.93991,33.16417 0,17.24532 3.32494,39.35344 8.48471,56.41628 0.80847,2.67351 -0.10481,7.00705 -2.02915,9.63011 -2.97677,4.0573 -4.08254,4.28499 -7.4078,1.52527 -2.14978,-1.78416 -3.9087,-6.46306 -3.9087,-10.39754 0,-3.93446 -1.23179,-9.4552 -2.73732,-12.2683 -1.50552,-2.81311 -3.08161,-17.77972 -3.50242,-33.25914 -0.79982,-29.42091 -4.0371,-43.94246 -9.79605,-43.94246 -1.87438,0 -3.40795,-1.09371 -3.40795,-2.43048 0,-1.33676 -3.28113,-2.43046 -7.29141,-2.43046 -7.00385,0 -9.15409,2.1881 -5.62157,5.72059 4.33355,4.33357 0.93257,23.58749 -5.26524,29.80815 -10.04597,10.08294 -51.24512,9.33882 -60.28223,-1.0888 -3.61396,-4.17 -7.18242,-19.2658 -6.8485,-28.97139 0.14146,-4.10902 -1.1646,-5.45929 -5.25318,-5.43135 -2.992744,0.0195 -6.912983,0.96991 -8.711658,2.10982 -3.811018,2.41527 -7.515868,29.28605 -8.988614,65.19303 -1.494716,36.44232 -3.128401,44.46145 -9.05797,44.46145 -4.644607,0 -4.814137,-1.03577 -3.281942,-20.05135 z m 92.449104,-66.5781 c 0.84287,-2.19647 1.23333,-4.26097 0.86766,-4.5878 -0.36566,-0.32682 -10.78165,-1.05006 -23.14665,-1.6072 -19.61618,-0.88384 -22.48182,-0.50558 -22.48182,2.9675 0,6.50634 2.29966,7.22107 23.23448,7.22107 16.30429,0 20.27666,-0.73694 21.52633,-3.99357 z m 5.51422,-19.98968 c 2.59844,-4.16079 1.78551,-4.66387 -9.74485,-6.03052 -6.91888,-0.82006 -15.58751,-1.90804 -19.2636,-2.41768 -3.67607,-0.50964 -6.68377,0.017 -6.68377,1.16958 0,1.15294 -3.28114,2.09626 -7.29141,2.09626 -4.70336,0 -7.2914,1.23403 -7.2914,3.47667 0,4.30333 5.86247,5.4912 29.18857,5.91421 15.40774,0.27942 18.69322,-0.3763 21.08646,-4.20852 z m -53.10091,96.90634 c -7.08749,-3.79642 -9.74806,-7.31546 -13.05244,-17.26405 -3.516143,-10.58609 -3.687241,-13.89902 -1.1196,-21.67906 3.98357,-12.07027 9.26562,-14.39525 34.01119,-14.97056 42.98787,-0.99947 45.12768,-0.61377 49.66706,8.95228 3.05888,6.44614 3.65557,11.93381 2.45319,22.56155 -2.56665,22.68598 -7.77779,26.0687 -41.18315,26.73314 -17.6624,0.35131 -23.58824,-0.48306 -30.77625,-4.3333 z m 21.42257,-7.42561 c 3.66072,-3.66072 1.11673,-13.82021 -3.78139,-15.10108 -2.28032,-0.59632 -7.64032,-0.57135 -11.91114,0.0554 -10.66844,1.56578 -10.59418,9.31484 0.13387,13.97771 9.63276,4.1868 12.25941,4.36709 15.5586,1.0679 z m 27.27838,-1.39391 c 6.3932,-1.27864 7.59521,-2.6249 7.59521,-8.50662 0,-5.79738 -1.0155,-6.9876 -5.96182,-6.9876 -7.00057,0 -18.34286,4.74986 -18.34286,7.68154 0,1.12217 1.09371,2.04033 2.43047,2.04033 1.33675,0 2.43046,1.64056 2.43046,3.6457 0,4.0897 1.07165,4.28204 11.84854,2.12665 z M 137.32262,885.9316 c 0,-4.00814 -1.62031,-4.86093 -9.23577,-4.86093 -8.64733,0 -15.0689,3.31435 -15.0689,7.7775 0,1.06939 5.46855,1.94437 12.15234,1.94437 10.53202,0 12.15233,-0.64814 12.15233,-4.86094 z m 34.02655,0 c 0,-4.14078 -1.62033,-4.86093 -10.9371,-4.86093 -9.31679,0 -10.93711,0.72015 -10.93711,4.86093 0,4.1408 1.62032,4.86094 10.93711,4.86094 9.31677,0 10.9371,-0.72014 10.9371,-4.86094 z M 66.83907,805.89999 c -6.149085,-4.15915 0.380813,-10.72608 14.829517,-14.91363 19.465103,-5.6414 21.007873,-6.7152 22.713963,-15.80939 2.54001,-13.53943 13.7975,-9.82603 14.20888,4.68695 0.26868,9.47865 -7.30037,19.15232 -15.45564,19.75313 -2.36232,0.17402 -5.863849,1.61835 -7.781164,3.2096 -4.817693,3.99834 -24.078833,6.07423 -28.515556,3.07334 z m 114.62017,-10.08538 c -8.23405,-4.1146 -15.06094,-8.76288 -15.17086,-10.32948 -0.10992,-1.56661 -0.64031,-5.58267 -1.17866,-8.92456 -1.43144,-8.88617 2.32032,-13.98302 7.26945,-9.8756 2.107,1.74865 3.83093,4.3265 3.83093,5.72849 0,5.31499 8.59127,11.68207 20.47917,15.17733 15.97627,4.69732 18.91101,6.70595 17.01536,11.64592 -2.43377,6.34232 -15.47461,4.95838 -32.24539,-3.4221 z"
       id="path3119"
       inkscape:connector-curvature="0" />
  </g>
</svg>
