<?xml version="1.0" encoding="UTF-8" standalone="no"?>
<!-- Created with Inkscape (http://www.inkscape.org/) -->

<svg
   xmlns:dc="http://purl.org/dc/elements/1.1/"
   xmlns:cc="http://creativecommons.org/ns#"
   xmlns:rdf="http://www.w3.org/1999/02/22-rdf-syntax-ns#"
   xmlns:svg="http://www.w3.org/2000/svg"
   xmlns="http://www.w3.org/2000/svg"
   xmlns:sodipodi="http://sodipodi.sourceforge.net/DTD/sodipodi-0.dtd"
   xmlns:inkscape="http://www.inkscape.org/namespaces/inkscape"
   width="300"
   height="300"
   viewBox="0 0 300 300"
   id="svg2"
   version="1.1"
   inkscape:version="0.91 r13725"
   sodipodi:docname="蟹-seal.svg">
  <defs
     id="defs4">
    <clipPath
       clipPathUnits="userSpaceOnUse"
       id="clipPath4204">
      <rect
         style="fill:#0000ff;fill-rule:evenodd;stroke:#000000;stroke-width:1px;stroke-linecap:butt;stroke-linejoin:miter;stroke-opacity:1"
         id="rect4206"
         width="15.451179"
         height="21.584471"
         x="164.41942"
         y="794.64594" />
    </clipPath>
  </defs>
  <sodipodi:namedview
     id="base"
     pagecolor="#ffffff"
     bordercolor="#666666"
     borderopacity="1.0"
     inkscape:pageopacity="0.0"
     inkscape:pageshadow="2"
     inkscape:zoom="1.7233333"
     inkscape:cx="150"
     inkscape:cy="150"
     inkscape:document-units="px"
     inkscape:current-layer="layer1"
     showgrid="false"
     inkscape:window-width="1280"
     inkscape:window-height="755"
     inkscape:window-x="0"
     inkscape:window-y="1"
     inkscape:window-maximized="1"
     units="px"
     showguides="false" />
  <metadata
     id="metadata7">
    <rdf:RDF>
      <cc:Work
         rdf:about="">
        <dc:format>image/svg+xml</dc:format>
        <dc:type
           rdf:resource="http://purl.org/dc/dcmitype/StillImage" />
        <dc:title></dc:title>
      </cc:Work>
    </rdf:RDF>
  </metadata>
  <g
     inkscape:label="Layer 1"
     inkscape:groupmode="layer"
     id="layer1"
     transform="translate(0,-752.36216)">
    <path
       style="fill:#000000"
       d="m 214.4742,1035.574 c -3.02775,-7.9557 -3.38389,-15.2324 -2.43836,-49.82132 l 0.62723,-22.945 -3.70805,-0.7953 c -2.25112,-0.4828 -6.3068,-0.6317 -10.32221,-0.3791 -5.85242,0.3682 -6.86573,0.2569 -8.79868,-0.9662 -2.16069,-1.3671 -3.60874,-4.8001 -2.66728,-6.3234 0.79624,-1.2884 5.81413,-3.4856 8.93811,-3.9137 1.6786,-0.2301 4.64553,-0.036 6.59318,0.4312 4.52774,1.0861 6.68108,0.5207 8.04241,-2.1118 1.57808,-3.0517 2.16217,-8.8326 0.93591,-9.26304 -7.18763,-2.52273 -9.42866,-3.65923 -11.7059,-5.93647 -5.40303,-5.40303 -8.91338,-16.24995 -8.96648,-27.70626 -0.0317,-6.83675 1.12976,-15.88261 2.60423,-20.28274 1.02363,-3.05473 1.49289,-3.60204 3.53442,-4.12232 2.72525,-0.69451 2.97084,-0.45006 4.70889,4.68703 0.93954,2.77701 1.17894,6.20438 1.20924,17.31245 0.0361,13.23384 0.11138,13.98859 1.69244,16.9662 1.79585,3.38212 6.07589,7.84332 6.98548,7.28117 1.31217,-0.81096 2.28082,-12.46816 1.66854,-20.08002 -1.03543,-12.87263 -0.66976,-25.69348 0.86941,-30.48227 1.22785,-3.82022 1.51168,-4.17224 3.5228,-4.36909 4.83086,-0.47283 5.96847,6.21115 5.6349,33.10775 l -0.25336,20.4287 2.20799,0.21382 c 2.60864,0.25261 3.57293,-0.92865 5.85784,-7.17585 1.32416,-3.62043 1.54311,-5.91669 1.81226,-19.00619 0.331,-16.09722 0.76523,-18.17746 3.96191,-18.97977 2.70193,-0.67815 4.16058,0.54154 5.46706,4.57137 3.24302,10.00317 2.77958,26.13949 -1.1161,38.86103 -1.27373,4.15939 -1.94301,5.16171 -5.66271,8.48048 -2.99781,2.67468 -5.47051,4.18141 -8.54638,5.20767 l -4.32812,1.44405 0,4.7502 c 0,2.6126 0.249,4.904 0.55333,5.0921 0.30433,0.1881 4.90078,0.5422 10.21435,0.7868 12.91018,0.5944 14.85475,1.4397 14.85475,6.4572 0,2.7153 -2.11532,3.4535 -12.32662,4.3017 -8.56267,0.7114 -11.09311,1.1702 -12.47581,2.2622 -0.7355,0.5808 -0.87973,7.3783 -0.74783,35.2452 0.15945,33.68632 0.12942,34.57132 -1.23504,36.40672 -0.99204,1.3343 -2.13352,1.9434 -3.92775,2.096 -2.22323,0.189 -2.61892,-0.021 -3.27,-1.7312 z m -86.1326,-3.1582 c -0.57458,-1.9996 -1.04887,-6.1286 -1.05399,-9.1756 -0.005,-3.047 0.11337,-40.18942 0.26332,-82.53862 0.25067,-70.79858 0.3695,-77.2948 1.47582,-80.67605 2.41995,-7.39613 3.26503,-8.42278 10.98323,-13.34307 3.98603,-2.54105 7.63634,-5.08882 8.11179,-5.66171 0.52389,-0.63125 0.9046,-3.40995 0.96636,-7.0533 0.13435,-7.92546 1.07348,-10.56416 4.63956,-13.03595 2.39431,-1.6596 3.63763,-2.00243 7.71916,-2.12847 5.73295,-0.17704 7.27757,-1.271 7.8531,-5.56185 0.31205,-2.32655 0.15709,-2.86206 -0.91789,-3.17205 -0.71133,-0.20512 -4.44411,-1.32844 -8.29506,-2.49626 -8.43495,-2.55794 -9.00593,-2.58507 -9.54096,-0.45335 -1.34968,5.37753 -14.12636,20.4175 -19.43939,22.8829 -5.35386,2.48435 -11.43074,1.85122 -12.0286,-1.25322 -0.53446,-2.77523 1.65173,-5.49097 9.58877,-11.91138 8.17381,-6.61194 10.78182,-9.53488 12.76744,-14.30913 2.1752,-5.23009 0.91196,-9.77763 -5.52817,-19.90093 -1.94203,-3.0527 -2.40351,-4.46219 -2.40351,-7.34102 0,-4.14574 1.14157,-7.92457 2.39399,-7.92457 0.48043,0 2.30314,1.25842 4.05048,2.79649 2.4953,2.19645 4.2348,4.90818 8.10697,12.63808 2.71149,5.41289 5.65326,10.57839 6.53728,11.47891 1.29469,1.31885 2.68441,1.74588 7.1452,2.19558 14.20338,1.43185 21.95982,11.76293 17.71791,23.59913 -1.7052,4.75803 -8.51902,8.92413 -14.59576,8.92413 -3.07649,0 -4.45222,2.30736 -4.86456,8.15881 l -0.32785,4.65241 5.85125,1.9702 c 9.03132,3.04099 13.04476,5.34045 15.41248,8.83042 l 2.06877,3.04934 0.46728,13.50371 c 0.25701,7.42704 0.49465,47.69852 0.5281,89.4922 l 0.0608,75.98852 -1.55812,0.3635 c -3.97614,0.9279 -4.88415,0.7229 -6.13898,-1.3857 -1.94247,-3.2643 -2.57777,-10.1477 -3.00301,-32.5376 -0.21702,-11.42622 -0.58838,-25.01192 -0.82526,-30.19052 l -0.43069,-9.4155 -6.6081,-5.1269 c -3.63445,-2.8199 -7.17226,-5.4063 -7.8618,-5.7477 -0.97507,-0.4827 -2.94198,0.4956 -8.84996,4.402 -7.35435,4.8627 -7.60747,5.1141 -7.94858,7.8919 -0.19378,1.5781 -0.84788,15.0226 -1.45356,29.8767 -1.74555,42.80932 -1.82564,43.28112 -7.34727,43.28112 -2.59445,0 -2.66264,-0.067 -3.68801,-3.6356 z m 19.43084,-88.86992 c 5.77978,-4.24514 6.07337,-5.11449 5.41103,-16.02266 -0.3368,-5.54688 -0.17306,-7.52479 0.90463,-10.92773 1.43994,-4.54675 2.32151,-4.92999 5.7294,-2.49068 3.05277,2.18512 3.43855,3.87338 3.49659,15.3019 l 0.0545,10.73367 4.0418,3.6433 4.04179,3.6433 0.39222,-3.9895 c 0.21572,-2.1943 0.58992,-12.09636 0.83155,-22.00468 l 0.43934,-18.01514 -9.06772,-5.66201 -9.06771,-5.66202 -7.96866,4.9099 -7.96865,4.90988 -0.0102,3.5323 c -0.0164,5.71232 1.46815,39.39717 1.81262,41.12867 0.36503,1.8348 0.21927,1.8985 6.9274,-3.0285 z m 26.44632,-69.88526 c -0.19584,-9.88714 -0.29698,-10.54269 -2.09972,-13.6099 -1.40626,-2.39261 -2.82321,-3.68547 -5.50248,-5.02061 -6.38117,-3.17987 -6.10656,-3.6868 -6.10656,11.27271 0,7.189 0.19838,14.06276 0.44083,15.27501 0.38789,1.93949 1.15693,2.56453 6.4056,5.20614 l 5.96479,3.00203 0.55163,-2.86896 c 0.30341,-1.57792 0.45906,-7.54332 0.34591,-13.25642 z m -28.67386,11.79065 4.05652,-2.75182 -0.36936,-11.09814 c -0.34479,-10.36008 -1.15691,-15.76356 -2.49334,-16.58951 -0.30939,-0.19122 -1.81376,0.5725 -3.34305,1.69715 -2.27981,1.67659 -2.98827,2.78525 -3.93424,6.15667 -1.70916,6.09138 -2.07544,12.15525 -1.15294,19.08736 0.45223,3.39832 0.97899,6.43238 1.17057,6.74237 0.38393,0.62122 0.30808,0.66179 6.06584,-3.24408 z m -71.496241,99.57151 c -3.004898,-0.9127 -4.152928,-1.7293 -6.055659,-4.3069 -2.515925,-3.4083 -4.432723,-8.6679 -4.432723,-12.1632 0,-3.5461 1.939579,-10.0817 4.629952,-15.601 2.117382,-4.3439 3.768252,-6.3784 10.088924,-12.4334 8.869622,-8.49675 10.553791,-11.23158 9.96712,-16.18509 -0.395264,-3.33739 -1.67946,-5.50464 -3.996572,-6.74472 -0.892027,-0.47739 -1.556064,0.0257 -3.055128,2.31477 -3.405411,5.19998 -7.503542,9.69678 -10.663353,11.70067 -2.517415,1.59649 -3.86543,1.95778 -7.304727,1.95778 l -4.217617,0 -2.534022,-3.84786 c -3.827343,-5.81176 -4.934367,-10.31053 -4.932099,-20.04332 0.0026,-10.99612 1.685494,-17.81981 6.977311,-28.29054 3.843696,-7.60539 4.274499,-8.15451 10.926444,-13.92725 3.808739,-3.30532 9.028443,-7.08204 11.599342,-8.3927 2.570899,-1.31066 4.674362,-2.49181 4.674362,-2.62478 0,-0.13297 -0.972094,-2.38832 -2.160213,-5.0119 -1.50304,-3.31899 -3.943015,-6.74168 -8.020524,-11.25085 -3.223172,-3.56438 -6.462908,-7.88649 -7.199414,-9.60469 -2.935507,-6.84826 -4.210281,-21.12107 -2.707312,-30.31198 0.946464,-5.78778 2.829784,-11.4907 3.934689,-11.91469 1.610537,-0.61802 4.454848,1.86873 5.971991,5.22124 1.290322,2.8513 1.506488,4.95067 1.839594,17.8658 l 0.377461,14.63483 5.62546,6.15256 c 6.932999,7.58261 14.110734,20.32068 14.110734,25.04181 l 0,2.87219 8.13685,5.47462 c 8.8138,5.93008 10.34952,7.34802 14.60882,13.48845 4.49395,6.47874 5.88099,11.63985 5.49598,20.45042 -0.1926,4.40777 -0.83611,8.96438 -1.60511,11.36561 -1.15971,3.62126 -1.62965,4.20612 -4.86877,6.05936 -3.972,2.27254 -6.96922,2.57732 -9.98898,1.01574 -2.6117,-1.35056 -7.73235,-7.67415 -10.049595,-12.41043 -1.825688,-3.73157 -3.772549,-12.4415 -2.962098,-13.25194 0.234314,-0.23432 1.650632,-0.59028 3.147369,-0.79104 l 2.721354,-0.365 5.60895,8.54491 5.60897,8.5449 1.40664,-3.10106 c 0.77366,-1.70558 1.41349,-4.06506 1.42186,-5.24327 0.0196,-2.76232 -2.14715,-9.03928 -4.51505,-13.0798 -2.05994,-3.51502 -9.39994,-11.03911 -13.626079,-13.96783 -3.556649,-2.46476 -9.317935,-2.96427 -15.313687,-1.32773 -3.939877,1.07539 -4.521429,1.49839 -7.498677,5.45421 -3.951906,5.25085 -8.190241,13.52446 -10.710755,20.90837 -2.07154,6.06863 -3.039394,17.88871 -1.842853,22.50618 0.947658,3.65704 2.866969,3.52246 5.31246,-0.3725 2.667731,-4.24892 8.475251,-10.53631 10.881503,-11.78063 2.448937,-1.26639 7.595734,-1.29354 10.558324,-0.0557 2.810649,1.17437 7.093908,6.00505 8.935593,10.07761 1.080546,2.38945 1.306183,3.98753 1.026656,7.27123 -0.66441,7.80505 -2.013258,10.29203 -10.444858,19.25804 -11.977196,12.7364 -14.599048,17.3607 -14.159233,24.9737 0.193363,3.347 0.386531,3.6999 2.70553,4.9415 5.135787,2.7498 7.978866,-0.6124 17.954798,-21.2333 7.002108,-14.47384 12.297758,-19.86503 19.554508,-19.90728 2.10049,-0.0123 2.76157,0.31367 3.37725,1.66497 0.42106,0.9241 0.56548,2.47729 0.32096,3.45155 -0.24452,0.97426 -3.8736,6.06116 -8.06461,11.30416 -6.50981,8.1439 -8.10884,10.6655 -10.975053,17.307 -4.144698,9.604 -7.409411,15.1028 -10.11964,17.0447 -2.715638,1.9457 -10.220336,2.2722 -15.483348,0.6735 z M 203.618,871.47074 c -0.5301,-0.2139 -0.86562,-1.688 -0.86562,-3.80313 0,-3.24939 0.24942,-3.73242 4.21362,-8.1601 5.88748,-6.57583 11.46274,-14.19157 13.97286,-19.0868 1.71548,-3.3455 2.19109,-5.24922 2.44129,-9.77156 0.29199,-5.27813 0.21305,-5.68497 -1.31013,-6.75185 -2.12981,-1.49177 -3.78433,-1.43264 -6.47695,0.23149 -3.4067,2.10545 -15.46578,15.96938 -19.44175,22.35153 -3.1214,5.0104 -3.83047,5.73969 -5.7667,5.93108 -1.98002,0.19573 -2.32235,-0.0542 -3.31977,-2.42374 -0.932,-2.21412 -0.97885,-3.14468 -0.28933,-5.74621 1.47583,-5.56813 6.04664,-12.63398 13.53889,-20.92926 l 7.32135,-8.10605 -3.23912,-2.97392 c -6.19071,-5.68386 -7.9934,-13.10465 -5.07698,-20.89947 1.14688,-3.06533 2.65426,-4.96626 7.96102,-10.03956 8.79055,-8.40381 14.03241,-11.95552 16.6225,-11.26283 2.59419,0.6938 3.37941,2.13277 2.81258,5.15424 -0.38184,2.0354 -1.7892,3.72204 -7.46167,8.94239 -7.45784,6.86343 -10.24959,11.15977 -10.26246,15.79336 -0.007,2.38 0.20458,2.56595 9.43027,8.30307 12.68938,7.89106 17.01822,13.07311 17.1256,20.501 0.0429,2.97253 -0.5905,4.86979 -3.86463,11.57483 -4.80646,9.84309 -7.44839,14.0173 -14.12784,22.32182 -6.06433,7.53974 -10.38469,10.28307 -13.93703,8.84967 z"
       id="path4193"
       inkscape:connector-curvature="0" />
  </g>
</svg>
