<?xml version="1.0" encoding="UTF-8" standalone="no"?>
<!-- Created with Inkscape (http://www.inkscape.org/) -->

<svg
   xmlns:dc="http://purl.org/dc/elements/1.1/"
   xmlns:cc="http://creativecommons.org/ns#"
   xmlns:rdf="http://www.w3.org/1999/02/22-rdf-syntax-ns#"
   xmlns:svg="http://www.w3.org/2000/svg"
   xmlns="http://www.w3.org/2000/svg"
   xmlns:sodipodi="http://sodipodi.sourceforge.net/DTD/sodipodi-0.dtd"
   xmlns:inkscape="http://www.inkscape.org/namespaces/inkscape"
   width="300"
   height="300"
   id="svg2"
   version="1.1"
   inkscape:version="0.48.4 r9939"
   sodipodi:docname="image-seal.svg">
  <defs
     id="defs4" />
  <sodipodi:namedview
     id="base"
     pagecolor="#ffffff"
     bordercolor="#666666"
     borderopacity="1.0"
     inkscape:pageopacity="0.0"
     inkscape:pageshadow="2"
     inkscape:zoom="2.0018437"
     inkscape:cx="145.03351"
     inkscape:cy="130.6666"
     inkscape:document-units="px"
     inkscape:current-layer="layer1"
     showgrid="false"
     inkscape:window-width="1215"
     inkscape:window-height="1000"
     inkscape:window-x="65"
     inkscape:window-y="24"
     inkscape:window-maximized="1"
     fit-margin-top="10"
     fit-margin-left="10"
     fit-margin-right="10"
     fit-margin-bottom="10" />
  <metadata
     id="metadata7">
    <rdf:RDF>
      <cc:Work
         rdf:about="">
        <dc:format>image/svg+xml</dc:format>
        <dc:type
           rdf:resource="http://purl.org/dc/dcmitype/StillImage" />
        <dc:title />
      </cc:Work>
    </rdf:RDF>
  </metadata>
  <g
     inkscape:label="Calque 1"
     inkscape:groupmode="layer"
     id="layer1"
     transform="translate(0,-752.36218)">
    <path
       style="fill:#000000"
       d="m 226.02317,1046.1503 c -0.95636,-0.9564 -1.73886,-8.3782 -1.73886,-16.4929 0,-11.4284 0.85512,-14.7539 3.79388,-14.7539 4.33592,0 5.16086,-4.1813 1.09248,-5.5374 -1.67345,-0.5579 -3.90903,-22.05209 -5.87507,-56.48663 -1.93164,-33.8323 -4.44819,-58.19943 -6.43036,-62.26371 -3.24066,-6.6447 -6.87926,-9.08307 -22.02184,-14.7576 -7.24413,-2.71464 -11.0271,-9.72444 -11.0271,-20.43296 0,-4.92587 8.42976,-9.62263 20.16829,-11.23711 11.11568,-1.52878 12.71197,-2.48658 12.71197,-7.62726 0,-3.23342 0.70432,-7.71434 1.56513,-9.95761 1.62205,-4.22696 -0.16491,-4.21965 -28.75458,0.11787 -5.917,0.8977 -8.22006,0.2658 -8.22006,-2.25539 0,-4.68581 10.93797,-9.40899 25.89045,-11.17989 10.44537,-1.23709 13.12003,-0.59726 18.45518,4.41483 13.60644,12.78258 2.64355,35.33085 -17.17774,35.33085 -8.32267,0 -19.77588,5.93355 -16.71969,8.66193 2.87834,2.56959 22.73822,11.57208 25.52852,11.57208 5.5854,0 12.66234,20.42388 14.8987,42.99727 4.37123,44.1221 4.95291,61.22566 2.19522,64.54846 -1.89461,2.28288 -1.91887,3.79307 -0.0792,4.93004 2.92007,1.8047 3.25821,44.15823 0.43326,54.26723 -1.78264,6.3791 -5.68955,9.1409 -8.68858,6.1418 z M 73.44035,1033.3982 c -4.547894,-23.0012 -0.68075,-123.89002 5.43014,-141.66542 3.38844,-9.85632 4.45214,-10.80815 18.31896,-16.39208 7.82247,-3.14998 9.5135,-6.1613 8.26693,-14.7215 -0.80956,-5.55942 -5.17376,-7.50467 -15.94247,-7.10601 -5.26484,0.19501 -10.56536,-0.68737 -11.77889,-1.96062 -3.7301,-3.91364 -7.520562,-21.11839 -4.996405,-22.67841 1.275935,-0.78857 2.319885,-3.64293 2.319885,-6.34301 0,-2.91556 1.7975,-4.9878 4.42619,-5.10273 2.43441,-0.10649 6.3879,-0.5704 8.78556,-1.03103 22.05102,-4.23634 24.73111,-4.23697 26.35464,-0.005 1.49327,3.89146 -1.23594,7.26611 -7.71753,9.54272 -1.26283,0.44355 -2.1923,4.45527 -2.06549,8.91495 0.16415,5.77296 2.46463,9.98836 7.98685,14.635 5.32577,4.48146 7.7563,8.79307 7.7563,13.75923 0,8.49522 -9.76291,20.13949 -16.88556,20.13949 -6.25916,0 -15.5472,8.56559 -17.21704,15.87783 -4.01139,17.56603 -5.7261,39.0421 -4.99254,62.52895 2.61596,83.75444 2.71424,79.50834 -1.861,80.40874 -3.18649,0.6271 -4.76977,-1.6243 -6.18853,-8.7997 z M 92.31857,843.24279 c 4.66383,-2.95693 2.86344,-19.03811 -2.23943,-20.00284 -6.05285,-1.14433 -11.16476,10.17217 -7.60209,16.82908 3.1387,5.86473 4.76832,6.39026 9.84152,3.17376 z m 46.85645,171.84221 c -6.64867,-4.0541 -7.96715,-6.4222 -7.96715,-14.3096 0,-8.09546 1.77814,-11.06971 12.39333,-20.73005 6.81634,-6.20319 12.39334,-13.36968 12.39334,-15.92551 0,-4.07616 -1.96845,-4.58237 -16.02544,-4.12108 -22.64972,0.74322 -29.50108,-3.34567 -29.50108,-17.6063 0,-12.45891 5.99561,-20.36532 17.15148,-22.61762 11.84648,-2.39176 18.7637,-9.86383 17.82335,-19.25309 -1.1371,-11.35381 5.89642,-11.2166 9.24735,0.18033 2.45259,8.34165 2.66082,8.44459 14.03226,6.93612 10.01366,-1.32836 12.61558,-0.6424 19.6414,5.17809 6.43998,5.33512 8.09869,8.6231 8.09869,16.05348 0,7.55874 -1.23093,9.90505 -6.44213,12.27941 -6.99909,3.18901 -18.60818,3.83999 -24.96664,1.40002 -6.03962,-2.3176 -4.81187,-8.57684 1.69007,-8.61632 15.74919,-0.0956 21.10147,-5.69211 13.09791,-13.69567 -6.30022,-6.30021 -23.93765,-4.98397 -39.42162,2.94195 -14.68577,7.51734 -19.63015,12.23755 -19.75469,18.85906 -0.1214,6.45125 4.20099,7.92707 21.56981,7.36479 13.90357,-0.4501 16.31379,0.18565 19.85065,5.23507 6.78803,9.69128 4.87202,16.40677 -8.69777,30.48519 -6.99785,7.26017 -12.39811,14.88923 -12.00056,16.95363 1.5049,7.8143 36.25514,9.5613 38.54295,1.9377 0.4988,-1.6622 2.38099,-10.13554 4.18268,-18.82984 1.80168,-8.6943 4.17918,-15.80782 5.28332,-15.80782 1.10412,0 2.00752,-1.78853 2.00752,-3.97454 0,-4.66313 4.43446,-9.50374 10.97756,-11.98301 9.03719,-3.4243 9.35769,1.32151 0.73388,10.86703 -7.5616,8.36977 -8.95046,11.97281 -10.39878,26.97694 -2.18915,22.67844 -2.59337,23.64004 -9.93639,23.64004 -3.43928,0 -6.95666,1.1382 -7.8164,2.5293 -2.77955,4.4974 -27.18902,2.8961 -35.7889,-2.3478 z m 22.37585,-123.48248 c -1.4548,-3.82549 -3.98274,-12.93079 -5.61762,-20.23401 -2.35582,-10.52378 -4.00709,-13.27856 -7.9594,-13.27856 -8.63082,0 -12.21332,6.25314 -12.21332,21.31796 0,10.83967 -0.8755,14.09155 -3.79388,14.09155 -2.97372,0 -3.79388,-3.4693 -3.79388,-16.04812 0,-17.72274 1.69207,-20.298 18.33707,-27.90842 11.01805,-5.03766 12.32795,-9.15773 2.9115,-9.15773 -3.61526,0 -10.31603,-1.77609 -14.89061,-3.94687 -7.94349,-3.76945 -8.37433,-4.70747 -9.58384,-20.86632 -1.068,-14.26872 -0.44851,-18.10823 3.95423,-24.50721 2.87136,-4.17326 6.72753,-8.49793 8.56928,-9.61037 1.87934,-1.13515 3.34863,-6.44134 3.34863,-12.09333 0,-6.90068 1.27456,-10.5598 4.04915,-11.62449 4.71802,-1.81049 8.50317,3.11303 8.55838,11.1323 0.0253,3.64449 2.65695,6.97979 7.47295,9.47024 10.79899,5.58439 15.32903,13.51078 15.32903,26.82188 0,12.23859 -4.17,27.63642 -7.48443,27.63642 -1.06211,0 -1.37146,2.9275 -0.68748,6.50558 0.68399,3.57808 -0.24457,9.28658 -2.06376,12.68554 -2.85001,5.32526 -2.51297,8.60317 2.43716,23.70242 3.15949,9.63738 5.00136,18.725 4.09301,20.19475 -2.99683,4.84898 -8.28418,2.78496 -10.97217,-4.28321 z m 1.64601,-67.54688 c 2.57233,-2.50126 2.73655,-4.5698 0.66947,-8.4322 -2.28002,-4.26022 -4.54661,-4.91056 -13.52548,-3.8807 -5.93256,0.68044 -12.20917,1.67681 -13.94803,2.21418 -4.43896,1.37174 -3.93256,7.59119 1.02146,12.54521 4.74546,4.74546 19.8614,3.31112 25.78258,-2.44649 z m -3.27242,-23.37122 c 7.21431,-7.21431 -3.06861,-15.44765 -15.4211,-12.3474 -6.50063,1.63157 -12.48483,10.10089 -9.98968,14.13819 2.21568,3.58501 21.38598,2.23401 25.41078,-1.79079 z m -84.23365,0.14543 C 72.560867,797.30934 70,792.30284 70,789.70428 c 0,-8.52668 5.68082,-17.60133 11.15531,-17.81966 2.90664,-0.11584 8.13023,-0.52267 11.60795,-0.90388 7.50171,-0.82228 17.69052,3.3197 17.73931,7.21143 0.0177,1.51558 0.65507,5.06505 1.41349,7.88772 2.12301,7.9011 -6.69424,16.36651 -17.04667,16.36651 -4.7752,0 -9.76344,1.0765 -11.08497,2.39219 -1.51257,1.50591 -4.5112,0.0202 -8.09361,-4.00874 z m 18.21807,-6.3772 c 11.99538,-5.46543 4.97322,-16.51535 -8.60077,-13.53402 -10.27647,2.2571 -11.45295,5.03412 -4.77026,11.25999 6.58809,6.13774 5.3524,5.92758 13.37103,2.27403 z m 100.65673,9.01855 c -7.46397,-3.24033 -8.22006,-4.57875 -8.22006,-14.55093 0,-13.06432 5.17639,-18.87042 18.79398,-21.08025 17.81118,-2.89035 27.37509,8.47964 21.67095,25.76338 -1.94659,5.89819 -4.76648,8.83139 -9.59681,9.98245 -3.76214,0.89652 -8.54748,2.0404 -10.63411,2.54195 -2.08664,0.50157 -7.49291,-0.6939 -12.01395,-2.6566 z m 18.33707,-17.49958 c 0,-6.36266 -1.09807,-7.67942 -6.967,-8.35453 -13.40181,-1.54165 -19.45216,12.92546 -6.46623,15.46152 10.89212,2.12715 13.43323,0.78273 13.43323,-7.10699 z"
       id="path3067"
       inkscape:connector-curvature="0" />
  </g>
</svg>
