<?xml version="1.0" encoding="UTF-8" standalone="no"?>
<!-- Created with Inkscape (http://www.inkscape.org/) -->

<svg
   xmlns:dc="http://purl.org/dc/elements/1.1/"
   xmlns:cc="http://creativecommons.org/ns#"
   xmlns:rdf="http://www.w3.org/1999/02/22-rdf-syntax-ns#"
   xmlns:svg="http://www.w3.org/2000/svg"
   xmlns="http://www.w3.org/2000/svg"
   xmlns:sodipodi="http://sodipodi.sourceforge.net/DTD/sodipodi-0.dtd"
   xmlns:inkscape="http://www.inkscape.org/namespaces/inkscape"
   width="300"
   height="300"
   id="svg2"
   version="1.1"
   inkscape:version="0.48.4 r9939"
   sodipodi:docname="image-seal.svg">
  <defs
     id="defs4" />
  <sodipodi:namedview
     id="base"
     pagecolor="#ffffff"
     bordercolor="#666666"
     borderopacity="1.0"
     inkscape:pageopacity="0.0"
     inkscape:pageshadow="2"
     inkscape:zoom="2.0018437"
     inkscape:cx="203.18921"
     inkscape:cy="112.31204"
     inkscape:document-units="px"
     inkscape:current-layer="layer1"
     showgrid="false"
     inkscape:window-width="1215"
     inkscape:window-height="1000"
     inkscape:window-x="65"
     inkscape:window-y="24"
     inkscape:window-maximized="1"
     fit-margin-top="10"
     fit-margin-left="10"
     fit-margin-right="10"
     fit-margin-bottom="10" />
  <metadata
     id="metadata7">
    <rdf:RDF>
      <cc:Work
         rdf:about="">
        <dc:format>image/svg+xml</dc:format>
        <dc:type
           rdf:resource="http://purl.org/dc/dcmitype/StillImage" />
        <dc:title />
      </cc:Work>
    </rdf:RDF>
  </metadata>
  <g
     inkscape:label="Calque 1"
     inkscape:groupmode="layer"
     id="layer1"
     transform="translate(0,-752.36218)">
    <path
       style="fill:#000000"
       d="m 191.13665,1032.6913 c 1.95576,-9.3463 4.97415,-23.9151 6.70745,-32.3753 5.42406,-26.47378 -3.80413,-24.39209 -33.14609,7.4769 -17.05929,18.5286 -28.4606,26.7814 -28.61687,20.7142 -0.1426,-5.5469 12.98632,-23.0852 29.17588,-38.97402 35.6869,-35.02401 38.08067,-45.59354 5.2778,-23.30342 -32.34152,21.9766 -36.86439,14.92887 -6.48806,-10.10988 13.32437,-10.98306 22.50631,-22.75193 20.40435,-26.15298 -2.10196,-3.40112 -12.65763,1.25108 -23.45695,10.33817 -32.60506,27.43532 -37.13631,18.53185 -5.54612,-10.89758 23.3706,-21.77205 27.07497,-27.9335 17.98553,-29.91517 -22.70222,-4.94956 -10.80416,-14.61895 17.9884,-14.61895 16.18957,0 29.43558,2.94356 29.43558,6.54124 0,3.59768 -5.71338,6.54124 -12.69642,6.54124 -6.98303,0 -14.46222,2.85708 -16.62043,6.34912 -6.53202,10.56907 15.5879,45.98078 28.72192,45.98078 18.50314,0 28.25109,55.94365 13.6774,78.49485 -4.50083,6.9645 -6.36998,-1.1028 -6.44109,-27.8003 -0.13213,-49.70747 -10.62166,-48.06536 -17.51743,2.7425 -3.12103,22.9954 -9.11705,41.5606 -13.93893,43.1582 -6.01708,1.9937 -7.43451,-2.1059 -4.90592,-14.1896 z M 65.503136,985.20095 c -12.27751,-4.95407 -9.85058,-27.45299 4.9975,-46.3293 15.55808,-19.77887 13.10335,-25.55838 -5.83256,-13.73268 -34.00332,21.23541 -32.33694,-44.42377 1.80905,-71.28301 15.16337,-11.92756 15.20661,-12.30584 3.11317,-27.24059 -12.68843,-15.66954 -17.56054,-63.53015 -5.72247,-56.21377 3.59768,2.2235 6.5606,11.96379 6.58434,21.64509 0.0458,19.30829 13.16758,41.20764 40.839644,68.16611 17.51325,17.06171 24.11283,46.26821 12.1285,53.67492 -7.75837,4.79499 -38.026184,-19.97387 -31.910324,-26.11289 2.61133,-2.6212 9.305504,-0.98334 14.875894,3.63968 5.57038,4.62302 11.56988,6.9636 13.33215,5.20133 5.18184,-5.18184 -23.269084,-37.90752 -32.955874,-37.90752 -11.87006,0 -35.97681,31.37341 -35.97681,46.82159 0,11.43049 1.13602,11.60677 15.23997,2.36551 26.44178,-17.32532 33.969441,11.30902 10.73738,40.84382 -8.29749,10.5486 -10.9622,19.17806 -7.11118,23.02908 7.50274,7.50274 20.38126,0.52461 20.38126,-11.04305 0,-4.62661 5.88712,-13.73974 13.082484,-20.25147 17.57009,-15.90071 16.47581,-8.38607 -3.352653,23.0243 -16.491831,26.12466 -19.141361,27.80315 -34.259471,21.70285 z m 70.318314,-94.66284 c 0,-7.67738 3.50139,-25.64545 7.7808,-39.92902 6.78778,-22.65539 6.37032,-26.75949 -3.27062,-32.15483 -6.07825,-3.40158 -11.05142,-13.39731 -11.05142,-22.21274 0,-20.1043 11.19912,-21.08209 15.00737,-1.31028 1.5591,8.09479 3.23562,2.03394 3.72556,-13.46854 1.08303,-34.27007 13.57582,-30.87229 14.86405,4.04275 0.56124,15.21263 1.93941,18.69931 3.72556,9.42579 1.55917,-8.09478 5.57359,-14.71778 8.92107,-14.71778 9.7335,0 7.02418,23.78472 -3.72556,32.70619 -18.15063,15.06368 -11.41636,24.91819 16.31607,23.87611 26.3608,-0.99054 36.20307,-13.90766 16.39012,-21.5106 -5.47161,-2.09968 -9.62844,-11.4127 -9.39721,-21.05376 l 0.41472,-17.28856 7.42568,16.35309 c 7.36981,16.22993 7.44406,16.18067 9.8636,-6.54124 3.59454,-33.75619 14.4369,-40.45723 15.34646,-9.48479 0.41733,14.21084 2.1119,20.65062 3.76566,14.31066 1.65382,-6.34003 5.45134,-10.01653 8.43898,-8.17007 7.17613,4.43509 0.44023,29.50916 -7.92752,29.50916 -3.89511,0 -4.75568,8.56019 -2.13722,21.25902 10.12139,49.0867 11.42866,70.31831 4.32965,70.31831 -3.97557,0 -7.22833,-9.71373 -7.22833,-21.58608 0,-27.76743 -10.01856,-37.28506 -39.24743,-37.28506 -29.22887,0 -39.24743,9.51763 -39.24743,37.28506 0,11.87235 -2.94356,21.58608 -6.54124,21.58608 -3.59768,0 -6.54124,-6.28148 -6.54124,-13.95887 z m 29.43557,-25.28856 c -2.44152,-3.95045 6.47334,-6.54123 22.50827,-6.54123 14.60305,0 26.55102,2.94355 26.55102,6.54123 0,3.59769 -10.12872,6.54124 -22.50827,6.54124 -12.37956,0 -24.32752,-2.94355 -26.55102,-6.54124 z"
       id="path3120"
       inkscape:connector-curvature="0" />
  </g>
</svg>
