<?xml version="1.0" encoding="UTF-8" standalone="no"?>
<!-- Created with Inkscape (http://www.inkscape.org/) -->

<svg
   xmlns:dc="http://purl.org/dc/elements/1.1/"
   xmlns:cc="http://creativecommons.org/ns#"
   xmlns:rdf="http://www.w3.org/1999/02/22-rdf-syntax-ns#"
   xmlns:svg="http://www.w3.org/2000/svg"
   xmlns="http://www.w3.org/2000/svg"
   xmlns:sodipodi="http://sodipodi.sourceforge.net/DTD/sodipodi-0.dtd"
   xmlns:inkscape="http://www.inkscape.org/namespaces/inkscape"
   width="300"
   height="300"
   id="svg2"
   version="1.1"
   inkscape:version="0.48.4 r9939"
   sodipodi:docname="image-seal.svg">
  <defs
     id="defs4" />
  <sodipodi:namedview
     id="base"
     pagecolor="#ffffff"
     bordercolor="#666666"
     borderopacity="1.0"
     inkscape:pageopacity="0.0"
     inkscape:pageshadow="2"
     inkscape:zoom="2.0018437"
     inkscape:cx="145.03351"
     inkscape:cy="130.6666"
     inkscape:document-units="px"
     inkscape:current-layer="layer1"
     showgrid="false"
     inkscape:window-width="1215"
     inkscape:window-height="1000"
     inkscape:window-x="65"
     inkscape:window-y="24"
     inkscape:window-maximized="1"
     fit-margin-top="10"
     fit-margin-left="10"
     fit-margin-right="10"
     fit-margin-bottom="10" />
  <metadata
     id="metadata7">
    <rdf:RDF>
      <cc:Work
         rdf:about="">
        <dc:format>image/svg+xml</dc:format>
        <dc:type
           rdf:resource="http://purl.org/dc/dcmitype/StillImage" />
        <dc:title />
      </cc:Work>
    </rdf:RDF>
  </metadata>
  <g
     inkscape:label="Calque 1"
     inkscape:groupmode="layer"
     id="layer1"
     transform="translate(0,-752.36218)">
    <path
       style="fill:#000000"
       d="m 153.44151,1046.2577 c -9.69172,-9.7741 -4.73082,-65.32142 8.07752,-90.44419 9.61306,-18.85549 10.95137,-26.64876 5.18796,-30.21074 -4.27185,-2.6402 -10.1016,-3.35745 -12.95498,-1.59396 -2.85338,1.7635 -5.18797,0.27965 -5.18797,-3.29696 0,-3.57681 2.83062,-8.25267 6.29027,-10.39088 3.45965,-2.13815 4.56392,-12.51934 2.45393,-23.06929 -2.47087,-12.35436 -0.0803,-24.91415 6.71629,-35.28708 21.25534,-32.4398 12.07853,-75.09256 -16.15627,-75.09256 -10.34773,0 -18.81407,-2.92648 -18.81407,-6.50328 0,-7.86761 32.33943,-8.47788 44.39028,-0.83769 14.08583,8.93037 17.106,55.32987 5.16012,79.27593 -5.79189,11.61011 -10.5307,28.33422 -10.5307,37.16463 0,13.53412 1.53189,14.78405 9.75493,7.9595 5.3652,-4.45273 9.75492,-12.45144 9.75492,-17.77497 0,-6.64668 4.00709,-4.86913 12.79022,5.67379 l 12.7902,15.35282 0.21656,-19.69038 c 0.12551,-11.43108 5.67203,-24.36168 13.22293,-30.82692 14.65476,-12.54783 17.7511,-49.44101 5.20263,-61.98949 -4.29217,-4.29217 -15.99808,-7.80394 -26.01313,-7.80394 -10.01508,0 -18.20922,-3.30939 -18.20922,-7.35417 0,-8.47885 43.98979,-3.28364 53.60405,6.33062 3.27356,3.27356 7.46284,17.28059 9.30958,31.12673 2.6311,19.72732 0.13201,29.2675 -11.55068,44.08913 -16.50474,20.93992 -20.63947,41.83517 -10.73445,54.24753 4.37782,5.48591 4.02534,11.09525 -1.08396,17.25158 -6.08909,7.337 -4.01741,10.41871 10.58448,15.74484 17.40656,6.34909 17.01532,6.64343 -9.48348,7.13566 -28.61249,0.53132 -39.91453,13.52 -11.76457,13.52 22.2638,0 27.09808,11.68003 5.87305,14.18977 -23.22081,2.74575 -28.34838,18.32664 -6.03121,18.32664 9.24013,0 16.80019,2.92648 16.80019,6.50329 0,3.57674 -7.31619,6.50324 -16.2582,6.50324 -8.94202,0 -16.25821,2.9265 -16.25821,6.5033 0,3.5768 8.77943,6.5033 19.50985,6.5033 10.73041,0 19.50985,2.9264 19.50985,6.5033 0,3.6039 -17.18317,6.5032 -38.54288,6.5032 -30.0097,0 -39.00836,2.2889 -40.64551,10.3384 -1.15647,5.686 -4.29753,8.1248 -6.98013,5.4193 z m 34.14223,-35.2675 c 0,-3.5768 -5.85295,-6.5033 -13.00657,-6.5033 -7.15361,0 -13.00656,2.9265 -13.00656,6.5033 0,3.5768 5.85295,6.5033 13.00656,6.5033 7.15362,0 13.00657,-2.9265 13.00657,-6.5033 z m 0,-29.26475 c 0,-5.36521 -4.07662,-9.75492 -9.05914,-9.75492 -4.98253,0 -10.74364,4.38971 -12.80246,9.75492 -2.54618,6.63523 0.35098,9.75492 9.05914,9.75492 7.04444,0 12.80246,-4.38737 12.80246,-9.75492 z m 0,-32.90024 c 0,-5.5763 -2.92648,-8.33005 -6.50328,-6.11946 -3.57681,2.2106 -6.50329,6.77304 -6.50329,10.13875 0,3.36571 2.92648,6.11946 6.50329,6.11946 3.5768,0 6.50328,-4.56244 6.50328,-10.13875 z m 7.0167,-37.01005 c 0.41074,-6.50328 1.16945,-6.50328 3.7936,0 1.80407,4.47101 7.66984,8.1291 13.03505,8.1291 5.3652,0 8.53555,-3.65809 7.04526,-8.1291 -3.52575,-10.5772 -38.74562,-10.5772 -42.27136,0 -1.49033,4.47101 1.92389,8.1291 7.58717,8.1291 5.66327,0 10.5279,-3.65809 10.81028,-8.1291 z M 64.677873,982.51651 c -8.745351,-10.53753 -1.074079,-35.72605 14.92422,-49.00341 5.73782,-4.76196 10.43241,-13.19965 10.43241,-18.75039 0,-7.77097 -3.6956,-6.62041 -16.06757,5.00245 -13.790642,12.95565 -17.567066,13.85024 -26.649154,6.31274 -20.735529,-17.20899 6.389157,-84.17303 34.095414,-84.17303 12.3146,0 10.65726,-11.61838 -4.38526,-30.74186 -13.482155,-17.1398 -17.913635,-53.80082 -6.50328,-53.80082 3.57681,0 6.50328,8.38475 6.50328,18.63282 0,10.24807 5.85296,26.07368 13.00657,35.168 7.15361,9.09432 13.006557,18.45735 13.006557,20.80673 0,2.34938 8.77944,11.65895 19.50985,20.68798 20.90963,17.59431 25.50206,41.21105 10.44392,53.70814 -6.99966,5.80919 -11.44626,5.14371 -19.50985,-2.91984 -15.160607,-15.16065 -12.84266,-26.70814 2.56265,-12.76653 12.68221,11.47725 13.00656,11.35883 13.00656,-4.7474 0,-19.97424 -27.07671,-40.12694 -45.890737,-34.15556 -14.44707,4.58533 -32.148649,34.78014 -32.148649,54.83821 0,15.72143 8.184369,17.22096 19.509849,3.5746 4.45273,-5.36521 11.95454,-9.75493 16.6707,-9.75493 16.771347,0 16.848087,14.11265 0.20732,38.1253 -28.896204,41.69723 -18.33822,56.85704 11.94584,17.15261 9.548567,-12.51882 22.029157,-22.76149 27.734627,-22.76149 8.00524,0 6.81612,3.45838 -5.20842,15.1481 -8.57011,8.33142 -20.67471,21.50056 -26.899107,29.26477 -13.1537,16.40758 -19.99187,17.57063 -30.29774,5.15281 z M 194.08702,848.4951 c 0,-5.39291 15.83747,-13.09351 26.92882,-13.09351 3.49538,0 4.76489,2.57322 2.82112,5.71827 -4.76899,7.7164 -29.74994,13.90935 -29.74994,7.37524 z m -55.2779,-6.59023 c 2.21059,-3.57681 10.43111,-6.45848 18.26783,-6.40372 11.58387,0.0813 12.42426,1.27855 4.49366,6.40372 -12.81222,8.27991 -27.87875,8.27991 -22.76149,0 z m -0.47474,-22.90112 c 13.36474,-10.11104 20.83297,-8.50395 13.74872,2.95861 -2.35766,3.81476 -9.23528,6.84288 -15.2836,6.72914 -9.65509,-0.18144 -9.4678,-1.36374 1.53488,-9.68775 z m 65.12474,-0.067 c 14.33057,-10.83909 23.14434,-12.26363 23.14434,-3.74062 0,6.25505 -15.81599,13.83189 -28.17086,13.49554 -4.17847,-0.1138 -1.91655,-4.50352 5.02652,-9.75492 z m -77.65657,-22.55468 c 2.21059,-3.57681 9.87221,-6.50329 17.02582,-6.50329 7.15361,0 11.1979,2.92648 8.98731,6.50329 -2.21059,3.5768 -9.8722,6.50328 -17.02581,6.50328 -7.15361,0 -11.19791,-2.92648 -8.98732,-6.50328 z m 68.28447,0.69578 c 0,-7.21259 20.00679,-15.37317 25.12975,-10.25021 2.06713,2.06713 -0.54628,6.48091 -5.80821,9.80844 -12.1603,7.6904 -19.32154,7.85408 -19.32154,0.44158 z"
       id="path3171"
       inkscape:connector-curvature="0" />
  </g>
</svg>
