<?xml version="1.0" encoding="UTF-8" standalone="no"?>
<!-- Created with Inkscape (http://www.inkscape.org/) -->

<svg
   xmlns:dc="http://purl.org/dc/elements/1.1/"
   xmlns:cc="http://creativecommons.org/ns#"
   xmlns:rdf="http://www.w3.org/1999/02/22-rdf-syntax-ns#"
   xmlns:svg="http://www.w3.org/2000/svg"
   xmlns="http://www.w3.org/2000/svg"
   xmlns:sodipodi="http://sodipodi.sourceforge.net/DTD/sodipodi-0.dtd"
   xmlns:inkscape="http://www.inkscape.org/namespaces/inkscape"
   width="300"
   height="300"
   id="svg2"
   version="1.1"
   inkscape:version="0.48.4 r9939"
   sodipodi:docname="dessin.svg">
  <defs
     id="defs4" />
  <sodipodi:namedview
     id="base"
     pagecolor="#ffffff"
     bordercolor="#666666"
     borderopacity="1.0"
     inkscape:pageopacity="0.0"
     inkscape:pageshadow="2"
     inkscape:zoom="1.979899"
     inkscape:cx="73.020464"
     inkscape:cy="169.34798"
     inkscape:document-units="px"
     inkscape:current-layer="layer1"
     showgrid="false"
     inkscape:window-width="1215"
     inkscape:window-height="1000"
     inkscape:window-x="65"
     inkscape:window-y="24"
     inkscape:window-maximized="1" />
  <metadata
     id="metadata7">
    <rdf:RDF>
      <cc:Work
         rdf:about="">
        <dc:format>image/svg+xml</dc:format>
        <dc:type
           rdf:resource="http://purl.org/dc/dcmitype/StillImage" />
        <dc:title />
      </cc:Work>
    </rdf:RDF>
  </metadata>
  <g
     inkscape:label="Calque 1"
     inkscape:groupmode="layer"
     id="layer1"
     transform="translate(0,-752.36218)">
    <path
       style="fill:#000000"
       d="m 176.84371,1018.3222 c -1.55071,-4.7723 -0.44212,-14.8382 2.46308,-22.36871 4.85046,-12.57189 4.54191,-13.2237 -3.77192,-7.96917 -22.80394,14.41278 -29.43323,-5.08612 -9.66587,-28.4305 20.00023,-23.61929 18.85826,-33.0915 -3.12527,-25.92317 -9.46787,3.08728 -23.21088,4.19692 -30.54,2.46584 -17.83465,-4.2124 -16.73122,2.91788 2.04599,13.22115 16.51763,9.06335 20.19004,23.67495 6.72031,26.73839 -9.08796,2.06686 -22.09199,-7.93976 -22.09199,-16.99985 0,-3.15176 2.97624,-2.63164 6.88972,1.204 3.78935,3.71393 9.60367,5.56575 12.92078,4.11511 6.37737,-2.78899 -15.54191,-15.05765 -26.90206,-15.05765 -3.56389,0 -12.412067,6.44156 -19.662585,14.31458 -10.915193,11.85234 -11.566399,13.86952 -3.785852,11.7269 5.168303,-1.4233 13.079137,-4.37859 17.579627,-6.5673 12.01061,-5.84121 16.0129,11.73499 5.72824,25.15589 -4.60449,6.00854 -6.99621,12.54919 -5.31495,14.53469 1.68127,1.9855 8.26266,-3.0236 14.6253,-11.13135 6.36267,-8.10778 15.36947,-14.72894 20.01512,-14.7138 6.63776,0.0229 5.42805,3.00837 -5.64871,13.94641 -21.47138,21.20244 -27.92728,24.66524 -35.491642,19.03654 -5.873478,-4.3704 -5.758274,-7.2264 0.849812,-21.06792 l 7.64434,-16.01206 -13.728808,6.1198 c -27.459252,12.24025 -26.897988,-21.20819 0.63806,-38.02432 12.312258,-7.51902 13.389438,-10.35444 10.877778,-28.63282 -3.56314,-25.93028 6.17375,-35.26929 36.77188,-35.26929 31.76658,0 37.07396,3.65945 37.07396,25.56266 0,10.35472 2.1143,18.82671 4.69846,18.82671 2.58415,0 4.69846,3.87523 4.69846,8.61163 0,4.73641 6.34293,11.22293 14.09538,14.41451 10.386,4.27575 14.09539,9.31045 14.09539,19.13167 0,7.33089 -2.7486,13.3289 -6.108,13.3289 -7.23812,0 -17.38431,-11.01062 -17.38431,-18.8655 0,-3.08261 2.50583,-2.58937 5.63815,1.10974 8.15127,9.62628 15.39066,8.20138 8.45724,-1.66459 -8.92558,-12.70076 -31.12928,-10.39199 -39.74387,4.13265 -8.20252,13.82983 -1.87267,20.59516 9.15603,9.78591 7.54554,-7.39543 16.49245,-3.09672 16.49245,7.92418 0,4.02389 -3.17146,10.4245 -7.0477,14.22361 -3.87622,3.79913 -6.98087,9.72293 -6.89921,13.16393 0.0818,3.441 5.26603,-0.61 11.52076,-9.0024 6.25479,-8.39237 14.40178,-15.25887 18.10445,-15.25887 4.25709,0 1.19439,7.13982 -8.33056,19.42037 -16.83474,21.7051 -20.47778,23.2989 -24.55746,10.7435 z m -6.99492,-96.11059 c 3.48447,-2.60778 5.57754,-9.43603 4.65129,-15.17391 -1.39789,-8.65947 -6.6666,-10.71319 -31.00228,-12.08439 -28.14155,-1.58566 -29.31822,-1.12167 -29.31822,11.55977 0,7.26638 1.40953,14.87627 3.13231,16.91074 4.51437,5.33127 45.04318,4.39616 52.5369,-1.21221 z M 123.5765,910.47693 c 0,-3.05176 9.51439,-5.54866 21.14309,-5.54866 11.62868,0 21.14307,2.4969 21.14307,5.54866 0,3.05178 -9.51439,5.54869 -21.14307,5.54869 -11.6287,0 -21.14309,-2.49691 -21.14309,-5.54869 z m 78.65681,20.3537 c -1.91481,-5.59018 -3.48141,-16.95108 -3.48141,-25.24647 0,-19.98636 -7.93355,-28.39926 -26.78124,-28.39926 -9.24032,0 -19.30165,-4.48377 -24.90184,-11.09734 -5.26374,-6.21623 -15.66153,-11.09734 -23.63978,-11.09734 -8.32602,0 -15.36634,-3.45759 -16.9473,-8.32301 -1.66867,-5.13535 -8.810069,-8.32299 -18.646385,-8.32299 -8.768061,0 -15.94193,-2.49691 -15.94193,-5.54869 0,-3.05175 6.342923,-5.54866 14.09539,-5.54866 9.396922,0 14.095375,-2.77435 14.095375,-8.32301 0,-4.57765 -3.097066,-8.32301 -6.882381,-8.32301 -8.845325,0 -18.48265,-20.17292 -11.924166,-24.95975 2.59114,-1.89121 4.711172,0.18697 4.711172,4.61826 0,4.43128 3.171456,9.49407 7.047683,11.25072 5.091699,2.30741 7.047692,-0.60776 7.047692,-10.50369 0,-7.53367 2.11431,-13.69757 4.69847,-13.69757 2.58415,0 4.69846,4.9938 4.69846,11.09734 0,13.68796 7.28882,14.42495 13.71904,1.38717 4.23694,-8.59074 4.80552,-8.21097 4.93193,3.29381 0.0925,8.42398 -3.16669,14.02604 -9.25405,15.90599 -14.6369,4.52027 -11.51424,18.25374 4.15048,18.25374 9.88167,0 14.49274,-3.37814 17.04109,-12.48453 l 3.49368,-12.4845 2.07955,12.4845 c 1.45693,8.74683 5.41535,12.48453 13.22161,12.48453 14.08321,0 19.75374,-9.97014 8.47061,-14.89331 -9.72886,-4.245 -15.39135,-12.48894 -15.49586,-22.56023 -0.11839,-11.40079 8.0279,-7.84405 10.81,4.71981 3.17197,14.32463 12.40873,8.83289 13.1554,-7.82163 0.50406,-11.24293 0.71497,-11.32262 2.80527,-1.05968 3.75882,18.45488 10.75845,23.33287 13.79619,9.61445 3.42424,-15.46375 11.04429,-16.26004 11.04429,-1.15411 0,6.87813 -4.55487,13.27979 -11.74615,16.50868 -16.10393,7.23064 -14.77516,16.64602 2.34923,16.64602 7.75246,0 14.09539,2.49691 14.09539,5.54866 0,3.05178 -6.11674,5.54869 -13.5927,5.54869 -7.74814,0 -14.75557,3.57872 -16.29718,8.32299 -1.48744,4.57767 -8.18134,8.32301 -14.87533,8.32301 -6.9175,0 -10.91753,2.39504 -9.2671,5.54868 1.5971,3.05176 9.26095,5.54866 17.03079,5.54866 7.76984,0 18.12559,2.52725 23.01283,5.61609 9.36084,5.91634 15.91689,33.81371 13.17904,56.07965 -1.42701,11.60549 -2.04758,11.97592 -5.10586,3.04733 z m -36.37065,-86.93775 c 5.4723,-4.17643 4.09748,-5.39776 -6.15038,-5.46371 -7.61658,-0.05 -11.97003,2.26157 -10.29424,5.46371 3.60546,6.88939 7.41751,6.88939 16.44462,0 z m -34.15325,-3.84518 c -4.57147,-1.40681 -10.91439,-1.31431 -14.0954,0.20578 -3.18102,1.51988 0.55926,2.67095 8.31172,2.55788 7.75247,-0.1131 10.35509,-1.35666 5.78368,-2.76346 z"
       id="path3312"
       inkscape:connector-curvature="0" />
  </g>
</svg>
