<?xml version="1.0" encoding="UTF-8" standalone="no"?>
<!-- Created with Inkscape (http://www.inkscape.org/) -->

<svg
   xmlns:dc="http://purl.org/dc/elements/1.1/"
   xmlns:cc="http://creativecommons.org/ns#"
   xmlns:rdf="http://www.w3.org/1999/02/22-rdf-syntax-ns#"
   xmlns:svg="http://www.w3.org/2000/svg"
   xmlns="http://www.w3.org/2000/svg"
   xmlns:sodipodi="http://sodipodi.sourceforge.net/DTD/sodipodi-0.dtd"
   xmlns:inkscape="http://www.inkscape.org/namespaces/inkscape"
   width="300"
   height="300"
   viewBox="0 0 300 300"
   id="svg2"
   version="1.1"
   inkscape:version="0.91 r13725"
   sodipodi:docname="蠱-seal.svg">
  <defs
     id="defs4">
    <clipPath
       clipPathUnits="userSpaceOnUse"
       id="clipPath4204">
      <rect
         style="fill:#0000ff;fill-rule:evenodd;stroke:#000000;stroke-width:1px;stroke-linecap:butt;stroke-linejoin:miter;stroke-opacity:1"
         id="rect4206"
         width="15.451179"
         height="21.584471"
         x="164.41942"
         y="794.64594" />
    </clipPath>
  </defs>
  <sodipodi:namedview
     id="base"
     pagecolor="#ffffff"
     bordercolor="#666666"
     borderopacity="1.0"
     inkscape:pageopacity="0.0"
     inkscape:pageshadow="2"
     inkscape:zoom="1.7233333"
     inkscape:cx="150"
     inkscape:cy="150"
     inkscape:document-units="px"
     inkscape:current-layer="layer1"
     showgrid="false"
     inkscape:window-width="1280"
     inkscape:window-height="755"
     inkscape:window-x="0"
     inkscape:window-y="1"
     inkscape:window-maximized="1"
     units="px"
     showguides="false" />
  <metadata
     id="metadata7">
    <rdf:RDF>
      <cc:Work
         rdf:about="">
        <dc:format>image/svg+xml</dc:format>
        <dc:type
           rdf:resource="http://purl.org/dc/dcmitype/StillImage" />
        <dc:title></dc:title>
      </cc:Work>
    </rdf:RDF>
  </metadata>
  <g
     inkscape:label="Layer 1"
     inkscape:groupmode="layer"
     id="layer1"
     transform="translate(0,-752.36216)">
    <path
       style="fill:#000000"
       d="m 193.33544,1037.0389 c -1.52378,-0.1144 -27.39346,-0.5246 -57.48816,-0.9116 -61.068114,-0.7852 -56.745018,-0.358 -56.306896,-5.5648 0.345296,-4.1035 1.966954,-4.3547 31.025956,-4.8038 l 25.28094,-0.3909 0,-14.5452 0,-14.54522 -10.73574,-1.0757 c -5.90466,-0.5917 -10.91154,-0.9987 -11.1264,-0.9045 -0.21486,0.094 -0.001,2.9158 0.47384,6.27042 1.24995,8.8188 1.20007,16.1779 -0.12246,18.0661 -1.28204,1.8304 -5.17614,2.1123 -6.79634,0.4921 -1.50723,-1.5072 -2.07261,-6.4988 -1.59988,-14.125 0.5153,-8.31302 0.83784,-9.39032 3.12632,-10.44142 l 1.84603,-0.8478 -3.67668,-1.378 c -7.60118,-2.8487 -10.541277,-8.1521 -9.332855,-16.835 l 0.674766,-4.8484 -2.620581,-2.8816 c -3.199618,-3.5181 -3.85569,-6.4952 -2.855465,-12.9572 0.699853,-4.5214 0.953625,-5.0102 3.916489,-7.5427 3.270686,-2.7957 6.621726,-7.73118 6.621726,-9.75259 0,-0.89218 -2.14412,-0.0504 -9.523639,3.73879 -8.065949,4.1418 -10.212731,4.9496 -14.025727,5.2778 -5.637746,0.4853 -9.113254,-0.7965 -10.751958,-3.9654 -1.906599,-3.68693 -1.172797,-14.24162 1.425363,-20.50177 1.918329,-4.62214 2.505371,-5.31573 8.887815,-10.5011 5.385526,-4.37542 8.064419,-6.01653 12.64047,-7.74365 3.193655,-1.20536 5.806651,-2.46892 5.806651,-2.8079 0,-0.33898 -0.921944,-1.66636 -2.04876,-2.94974 -5.13093,-5.8438 -7.439675,-14.35124 -6.2229,-22.9306 0.38159,-2.69057 1.230011,-5.9877 1.885376,-7.32694 1.029294,-2.10338 1.504341,-2.4204 3.488229,-2.3279 4.356793,0.20314 4.97508,1.51385 4.98271,10.56284 0.006,7.06465 0.21132,8.47043 1.70676,11.68257 1.81697,3.90279 7.8467,10.77561 10.78834,12.29679 0.98175,0.50769 3.79114,1.14201 6.2431,1.40961 8.43208,0.92026 16.24902,4.78598 22.67804,11.215 3.94218,3.94218 5.64143,7.8018 5.66051,12.85715 0.0184,4.87007 -0.59899,6.14036 -4.28048,8.80722 -2.27515,1.64811 -3.53942,2.05325 -6.37081,2.04154 -5.05119,-0.0209 -12.40263,-2.78098 -14.77118,-5.54583 -4.58049,-5.34688 -5.75256,-8.67 -4.58959,-13.01261 0.38855,-1.45083 0.70115,-1.56003 3.28053,-1.14599 2.17062,0.34843 3.76024,1.33227 6.66052,4.12224 5.77631,5.55664 9.23144,6.79697 9.8545,3.53761 0.27946,-1.46188 -0.31649,-2.03348 -4.78683,-4.59121 -2.80831,-1.6068 -7.82461,-3.89431 -11.14735,-5.08336 -5.35,-1.91454 -6.87352,-2.15809 -13.31392,-2.12848 -6.08433,0.028 -8.177944,0.34585 -12.813623,1.94546 -4.707062,1.62425 -6.200313,2.55743 -9.921418,6.20021 -5.062983,4.95643 -7.6119,8.89721 -7.89052,12.19925 -0.168462,1.99651 0.07332,2.42006 1.69955,2.97728 2.319162,0.79463 8.323053,-1.71777 12.164045,-5.0902 3.274214,-2.8748 8.90322,-5.44033 11.913566,-5.42984 1.33331,0.005 3.73057,0.60154 5.32724,1.32643 7.27239,3.30169 7.52834,13.87822 0.55404,22.89362 -3.66043,4.7316 -5.60932,7.8007 -6.0477,9.5236 -0.36007,1.4152 -0.15113,1.5584 2.27307,1.5584 2.41556,0 3.43011,-0.6867 10.66193,-7.2172 9.49423,-8.5736 13.83775,-10.9815 19.97542,-11.0738 3.85058,-0.058 4.32179,0.096 5.24349,1.7159 1.97828,3.4763 0.83566,4.8375 -7.52241,8.9614 -7.03879,3.473 -8.02638,4.2084 -11.7585,8.7556 -2.96269,3.6097 -5.23048,5.5804 -8.31179,7.2227 -2.3306,1.2422 -4.51815,2.783 -4.86122,3.424 -0.34308,0.6411 -0.71551,2.8387 -0.82763,4.8836 l -0.20385,3.7181 4.15577,1.7527 4.15577,1.7527 30.47565,0.2113 c 29.39408,0.2038 36.49888,-0.1141 45.4855,-2.0352 l 3.23517,-0.6916 0.48503,-5.1759 c 0.57229,-6.1072 1.74108,-7.9488 5.15321,-8.1198 2.01118,-0.1007 2.54037,0.2035 3.40679,1.9587 1.40971,2.8556 1.79841,9.4561 0.77262,13.1199 -0.46789,1.6711 -1.67479,3.8275 -2.682,4.792 -3.81321,3.6516 -12.55336,6.135 -24.86119,7.064 l -6.40682,0.4837 0,14.74342 0,14.7434 25.4541,0.2721 c 27.82627,0.2975 29.99982,0.5805 32.00947,4.1683 1.52244,2.7181 0.4235,4.0401 -4.87871,5.8689 -3.94995,1.3624 -5.72497,1.5231 -15.87555,1.4374 -6.2856,-0.053 -12.6751,-0.1901 -14.19888,-0.3044 z m -32.48993,-20.5021 c -0.24047,-5.0475 -0.62086,-11.9154 -0.84533,-15.262 l -0.40811,-6.08472 -6.67768,0.1973 -6.67769,0.1974 -0.18666,15.06462 -0.18666,15.0647 7.70967,0 7.70968,0 -0.43722,-9.1773 z m 26.18368,3.1062 c -1.20326,-0.8002 -2.60555,-7.6567 -2.65388,-12.9762 -0.0356,-3.9211 0.27842,-5.4114 1.64191,-7.79202 0.9319,-1.6272 2.20671,-2.9437 2.85027,-2.9437 1.98218,0 4.73225,2.71 5.47917,5.39942 1.58225,5.6969 0.48418,16.1346 -1.89122,17.9768 -1.22601,0.9508 -4.22245,1.1362 -5.42625,0.3357 z m -0.50404,-52.41022 c -6.57258,-1.7666 -9.47093,-5.5971 -9.45971,-12.5023 0.008,-5.0068 1.59303,-8.6483 7.23956,-16.6339 3.56304,-5.03902 3.78595,-5.56145 2.46027,-5.76646 -0.92275,-0.14271 -2.4952,0.71184 -4.28461,2.32847 -1.55479,1.40465 -4.82688,3.48982 -7.27132,4.63372 -4.18795,1.95977 -4.83967,2.06397 -11.29288,1.80477 -7.77345,-0.3123 -8.69322,-0.7997 -11.17244,-5.92109 -3.31477,-6.84741 0.10622,-17.77378 7.83857,-25.03569 5.70476,-5.35769 9.4913,-7.94089 14.94825,-10.19782 2.55456,-1.05653 4.9059,-2.14179 5.22521,-2.41169 0.3193,-0.26989 -0.24754,-1.74204 -1.25965,-3.27145 -4.22919,-6.39072 -4.97885,-13.98762 -1.8634,-18.88319 2.52557,-3.96865 3.86401,-5.03435 5.62199,-4.47638 3.03805,0.96424 3.50048,2.19007 3.50048,9.27942 0,7.54644 -0.11221,7.30735 5.70794,12.16177 3.55004,2.96099 4.73451,3.49574 11.04755,4.9877 10.05583,2.37649 16.50536,5.66691 22.07932,11.26439 5.21605,5.23806 6.56838,8.60687 6.03534,15.03469 -0.35283,4.25454 -1.11228,5.20441 -6.39373,7.99671 -2.22438,1.17603 -3.47489,1.36865 -6.69823,1.03175 -9.47523,-0.99036 -16.41453,-6.51298 -17.61473,-14.01862 -0.52036,-3.25419 0.65028,-4.66756 3.86596,-4.66756 1.48654,0 3.02247,0.94322 5.775,3.54645 2.06242,1.95055 4.5313,3.74259 5.48641,3.9823 2.83315,0.71108 4.97345,0.12016 5.19607,-1.43457 0.15869,-1.10826 -0.98905,-2.11764 -5.37336,-4.72563 -13.38688,-7.96308 -23.07581,-9.54533 -35.00088,-5.71582 -5.89727,1.89379 -6.51794,2.28703 -11.50168,7.28706 -5.59566,5.61395 -7.14492,7.95714 -7.89118,11.93507 -0.43793,2.33435 -0.34645,2.49869 1.60844,2.88967 3.52028,0.70406 8.57673,-1.32891 13.68382,-5.50165 4.24189,-3.46582 8.9165,-5.33095 11.93965,-4.7638 5.31594,0.99727 8.58447,4.00918 9.46932,8.72586 0.68642,3.65894 -1.81634,10.25462 -6.97117,18.37172 -2.44742,3.8538 -4.44986,7.2044 -4.44986,7.4457 0,0.2414 1.34246,0.4389 2.98324,0.4389 2.85555,0 3.12053,-0.1853 6.19078,-4.329 8.79686,-11.8723 15.49924,-17.14253 21.80109,-17.14253 2.47452,0 3.09977,0.27211 3.58097,1.55842 1.65866,4.43381 1.81983,4.12111 -5.21813,10.12221 -3.67967,3.1376 -8.2123,7.7152 -10.07253,10.1725 -4.51482,5.964 -7.89797,9.2666 -10.68569,10.4314 -2.77014,1.1574 -4.40842,1.1516 -8.81005,-0.032 z M 125.3484,894.4941 c -1.20303,-0.52339 -3.46273,-2.56512 -5.02156,-4.53717 -2.42281,-3.0651 -2.83422,-4.06667 -2.83422,-6.89993 0,-6.65528 0.3081,-7.16466 8.9191,-14.74598 9.40392,-8.27943 14.39617,-13.3096 15.69827,-15.81749 l 0.93198,-1.795 -5.05514,-1.58537 -5.05514,-1.58537 -5.46849,1.78071 c -6.81723,2.21991 -14.44149,4.35838 -17.47673,4.90194 -3.645,0.65275 -8.03763,-0.80506 -10.825174,-3.5926 -2.82936,-2.82936 -3.037142,-3.42752 -3.737479,-10.75936 -0.47567,-4.97986 -0.371976,-5.64261 1.602791,-10.24421 1.847939,-4.30606 2.743037,-5.42859 7.174302,-8.99718 6.29796,-5.07187 14.32587,-8.97393 23.33483,-11.34216 3.80945,-1.00141 7.31223,-1.94698 7.78394,-2.10125 0.50511,-0.16519 -0.57877,-1.71691 -2.63675,-3.77489 -2.05289,-2.0529 -4.40675,-5.42039 -5.70606,-8.16324 -1.94871,-4.11378 -2.23945,-5.50327 -2.44553,-11.68757 -0.16261,-4.87983 0.10748,-8.35118 0.88628,-11.39114 0.61608,-2.40483 1.27286,-4.52512 1.45949,-4.71175 0.18664,-0.18664 1.15855,-0.0475 2.1598,0.30908 3.291,1.17222 4.41371,3.639 5.52308,12.13516 1.35237,10.3571 3.4067,14.61243 9.94512,20.6003 l 4.78477,4.38188 10.34041,2.65796 c 10.71687,2.75474 12.87386,3.60709 18.12101,7.1607 14.98677,10.1497 20.96313,21.73046 17.72899,34.35453 -1.32734,5.18112 -1.84341,5.92417 -5.3609,7.71866 -3.25183,1.65895 -8.44441,1.72986 -13.93153,0.19025 -3.58803,-1.00674 -4.59303,-1.71681 -8.35698,-5.90448 -5.35241,-5.95496 -6.70267,-8.41393 -6.70267,-12.20631 0,-4.00984 0.97994,-5.67946 3.3334,-5.67946 2.68183,0 4.29777,1.33688 8.7229,7.21651 5.07157,6.73853 6.75836,8.02132 10.54754,8.02132 3.4326,0 3.33045,0.31042 2.36459,-7.18557 -0.70199,-5.44818 -1.86857,-6.96613 -11.11586,-14.46393 -12.21508,-9.90411 -22.72424,-11.9351 -41.5577,-8.03139 -14.18889,2.941 -18.17743,4.85229 -23.14976,11.09325 -3.63374,4.56085 -5.59336,8.98649 -5.10992,11.54036 0.46913,2.47832 9.761,1.60544 22.71865,-2.1342 11.94791,-3.44823 17.46269,-2.71803 21.10136,2.79398 0.93602,1.41793 2.05132,4.21396 2.47844,6.2134 0.70081,3.28065 0.59844,4.17026 -1.04909,9.11735 -1.00412,3.0151 -2.39782,5.89859 -3.09712,6.40776 -9.85264,7.17387 -19.43359,16.75168 -19.43359,19.42722 0,0.31253 1.09699,1.09135 2.43776,1.73072 2.3339,1.11296 2.47837,1.1051 3.39073,-0.18436 9.34291,-13.20464 26.28923,-22.3421 38.58299,-20.80396 3.75789,0.47017 3.93099,0.58448 4.9978,3.30032 1.07076,2.72589 1.05742,2.85316 -0.42957,4.09736 -1.75117,1.46524 -4.47803,2.51876 -13.30935,5.14204 -6.97871,2.07299 -9.94244,4.01926 -18.7792,12.33224 -3.08744,2.90446 -6.45704,5.60152 -7.48798,5.99349 -2.63717,1.00265 -9.3365,0.83811 -11.93683,-0.29317 z"
       id="path4174"
       inkscape:connector-curvature="0" />
  </g>
</svg>
