<?xml version="1.0" encoding="UTF-8" standalone="no"?>
<!-- Created with Inkscape (http://www.inkscape.org/) -->

<svg
   xmlns:dc="http://purl.org/dc/elements/1.1/"
   xmlns:cc="http://creativecommons.org/ns#"
   xmlns:rdf="http://www.w3.org/1999/02/22-rdf-syntax-ns#"
   xmlns:svg="http://www.w3.org/2000/svg"
   xmlns="http://www.w3.org/2000/svg"
   xmlns:sodipodi="http://sodipodi.sourceforge.net/DTD/sodipodi-0.dtd"
   xmlns:inkscape="http://www.inkscape.org/namespaces/inkscape"
   width="300"
   height="300"
   id="svg2"
   version="1.1"
   inkscape:version="0.48.4 r9939"
   sodipodi:docname="image-seal.svg">
  <defs
     id="defs4" />
  <sodipodi:namedview
     id="base"
     pagecolor="#ffffff"
     bordercolor="#666666"
     borderopacity="1.0"
     inkscape:pageopacity="0.0"
     inkscape:pageshadow="2"
     inkscape:zoom="2.0506101"
     inkscape:cx="156.21232"
     inkscape:cy="110.79688"
     inkscape:document-units="px"
     inkscape:current-layer="layer1"
     showgrid="false"
     inkscape:window-width="1215"
     inkscape:window-height="1000"
     inkscape:window-x="65"
     inkscape:window-y="24"
     inkscape:window-maximized="1"
     fit-margin-top="10"
     fit-margin-left="10"
     fit-margin-right="10"
     fit-margin-bottom="10" />
  <metadata
     id="metadata7">
    <rdf:RDF>
      <cc:Work
         rdf:about="">
        <dc:format>image/svg+xml</dc:format>
        <dc:type
           rdf:resource="http://purl.org/dc/dcmitype/StillImage" />
        <dc:title />
      </cc:Work>
    </rdf:RDF>
  </metadata>
  <g
     inkscape:label="Calque 1"
     inkscape:groupmode="layer"
     id="layer1"
     transform="translate(0,-752.36218)">
    <path
       style="fill:#000000"
       d="m 62.429208,1046.8152 c -4.560285,-1.0989 -9.188072,-8.7485 -6.760933,-11.1756 0.685785,-0.6857 16.307361,-1.5126 34.714614,-1.8376 18.407251,-0.3248 34.100501,-1.2233 34.873891,-1.9968 2.24234,-2.2422 4.13256,-55.57869 2.38023,-67.16245 -0.9144,-6.04485 -2.91247,-10.0515 -4.693,-9.41081 -4.47238,1.60866 -15.89822,-4.7582 -23.89227,-13.31412 -11.40689,-12.20842 -17.854864,-52.73114 -9.689805,-60.8962 7.475546,-7.47556 12.422155,-2.44134 12.422155,12.64217 0,20.19717 5.26865,38.1239 12.62027,42.94099 4.55669,2.98562 14.37185,4.14835 35.29183,4.18086 44.46786,0.0695 54.37594,-7.84252 57.07565,-45.57459 1.44646,-20.21614 5.30129,-25.47191 13.02061,-17.75261 7.31834,7.31836 5.37639,28.28108 -5.1002,55.05515 -2.80198,7.16071 -22.15604,19.03926 -31.02124,19.03926 -3.35444,0 -4.0932,5.45334 -4.0932,30.21452 0,16.61813 -0.74592,33.94423 -1.65761,38.50263 -1.31498,6.575 -0.5971,8.5432 3.47293,9.5209 9.93426,2.3868 15.24307,-0.4126 13.12568,-6.9215 -2.82319,-8.6784 -1.41398,-60.94971 1.72788,-64.09146 1.67878,-1.67896 4.82417,-0.68903 8.59205,2.70389 5.6424,5.08076 5.84688,6.93697 4.03246,36.60833 l -1.91134,31.25644 10.75843,0 c 5.91714,0 12.0586,-1.3 13.64769,-2.8892 4.26066,-4.2606 16.34381,6.2124 14.0535,12.1808 -1.53126,3.9903 -7.20965,4.6082 -42.83311,4.661 -42.03521,0.061 -116.137512,2.2363 -128.585747,3.773 -3.820227,0.4715 -9.027363,0.3559 -11.571415,-0.2584 z m 96.083772,-16.3767 c 3.70473,-1.4214 4.39475,-7.5288 4.39475,-38.89662 l 0,-37.21068 -6.71863,0 c -15.2546,0 -15.50815,0.63707 -15.50815,38.9627 0,35.6121 0.62106,37.965 10.19157,38.6118 1.78514,0.1195 5.22334,-0.5395 7.64046,-1.4672 z m -68.687694,-8.7918 c -0.847005,-4.235 -2.302139,-18.3004 -3.23363,-31.25645 -1.36833,-19.03195 -0.858076,-24.61199 2.656622,-29.05179 3.418042,-4.31783 5.376124,-4.85266 9.13762,-2.4969 5.914352,3.7041 7.268592,17.1913 4.777852,47.58364 -1.59386,19.4488 -2.62998,22.9214 -6.838466,22.9214 -3.197525,0 -5.507212,-2.7361 -6.499998,-7.6999 z M 116.21793,908.33694 c -7.54304,-8.54673 1.51558,-11.25864 40.07507,-11.99752 31.26714,-0.59912 36.69218,-0.0664 38.15543,3.74677 1.96967,5.13289 0.59391,5.74751 -21.63217,9.66454 -24.25754,4.27504 -52.19343,3.5772 -56.59833,-1.41379 z m -10.26632,-38.13815 c -4.58427,-1.51501 -9.74158,-3.10986 -11.460691,-3.54412 -3.232329,-0.8165 -5.76732,-19.13292 -8.175989,-59.07502 l -1.393938,-23.11523 7.627799,0.88846 c 6.404629,0.74595 7.990139,2.64409 9.887359,11.83692 1.24276,6.02168 2.69865,11.38758 3.23531,11.92425 0.98188,0.98187 16.49011,-4.4086 35.58102,-12.36753 10.12446,-4.22087 10.30934,-4.57505 11.11338,-21.29048 0.77807,-16.17523 1.18182,-17.04021 8.33946,-17.86588 7.07725,-0.81642 7.62927,-0.0575 9.34036,12.84138 1.00022,7.53999 2.61644,14.94829 3.59159,16.4629 0.97516,1.51462 10.52482,6.79792 21.22145,11.74068 10.69664,4.94277 22.57407,10.42747 26.3943,12.18825 10.53871,4.85739 14.35363,10.71937 9.91848,15.24068 -3.02252,3.08122 -5.9153,2.54802 -17.19986,-3.17032 -28.72624,-14.55667 -49.43711,-21.6673 -55.23143,-18.96249 -19.31651,9.01701 -34.60795,15.62545 -43.06438,18.61101 -8.30993,2.93379 -9.84746,4.8511 -10.57158,13.18275 -0.63038,7.25307 0.7557,11.24311 5.41296,15.58203 5.95333,5.54636 8.37915,5.76226 49.46844,4.40276 23.76446,-0.78627 48.83427,-1.73527 55.71068,-2.10887 11.58035,-0.62919 12.50256,-0.18032 12.50256,6.08502 0,5.69514 -1.9762,7.26538 -12.50256,9.9342 -15.42891,3.9118 -98.33614,4.34895 -109.74472,0.57865 z"
       id="path3080"
       inkscape:connector-curvature="0" />
  </g>
</svg>
