<?xml version="1.0" encoding="UTF-8" standalone="no"?>
<!-- Created with Inkscape (http://www.inkscape.org/) -->

<svg
   xmlns:dc="http://purl.org/dc/elements/1.1/"
   xmlns:cc="http://creativecommons.org/ns#"
   xmlns:rdf="http://www.w3.org/1999/02/22-rdf-syntax-ns#"
   xmlns:svg="http://www.w3.org/2000/svg"
   xmlns="http://www.w3.org/2000/svg"
   xmlns:sodipodi="http://sodipodi.sourceforge.net/DTD/sodipodi-0.dtd"
   xmlns:inkscape="http://www.inkscape.org/namespaces/inkscape"
   width="300"
   height="300"
   id="svg2"
   version="1.1"
   inkscape:version="0.48.4 r9939"
   sodipodi:docname="image-seal.svg">
  <defs
     id="defs4" />
  <sodipodi:namedview
     id="base"
     pagecolor="#ffffff"
     bordercolor="#666666"
     borderopacity="1.0"
     inkscape:pageopacity="0.0"
     inkscape:pageshadow="2"
     inkscape:zoom="2.0018437"
     inkscape:cx="145.03351"
     inkscape:cy="130.6666"
     inkscape:document-units="px"
     inkscape:current-layer="layer1"
     showgrid="false"
     inkscape:window-width="1215"
     inkscape:window-height="1000"
     inkscape:window-x="65"
     inkscape:window-y="24"
     inkscape:window-maximized="1"
     fit-margin-top="10"
     fit-margin-left="10"
     fit-margin-right="10"
     fit-margin-bottom="10" />
  <metadata
     id="metadata7">
    <rdf:RDF>
      <cc:Work
         rdf:about="">
        <dc:format>image/svg+xml</dc:format>
        <dc:type
           rdf:resource="http://purl.org/dc/dcmitype/StillImage" />
        <dc:title />
      </cc:Work>
    </rdf:RDF>
  </metadata>
  <g
     inkscape:label="Calque 1"
     inkscape:groupmode="layer"
     id="layer1"
     transform="translate(0,-752.36218)">
    <path
       style="fill:#000000"
       d="m 179.92742,1045.4704 c -49.8115,-26.7212 -54.75681,-32.0417 -58.65573,-63.10585 -0.66518,-5.29981 -2.3682,-16.14034 -3.78448,-24.09006 -1.41628,-7.94972 -2.58132,-15.26707 -2.58901,-16.26079 -0.0277,-3.59725 -8.86092,-1.69548 -13.89098,2.99074 -4.556816,4.24534 -7.150956,8.98419 -15.176676,27.72409 -1.13486,2.64991 -3.52978,14.03246 -5.32203,25.29456 -2.3391,14.69851 -4.23667,20.47651 -6.72474,20.47651 -2.05963,0 -3.80507,-2.9326 -4.30142,-7.227 -1.49373,-12.92376 9.29399,-54.04494 15.53751,-59.22659 1.85093,-1.53613 3.36533,-4.33559 3.36533,-6.22102 0,-7.73818 22.684326,-23.79373 29.773716,-21.07326 5.46067,2.09545 7.10806,7.60735 8.93927,29.90925 2.42339,29.51392 6.30261,43.36211 12.14683,43.36211 2.58419,0 5.37132,-1.89709 6.19358,-4.21576 0.82229,-2.31867 2.87245,-5.84184 4.55592,-7.82927 3.65759,-4.31802 10.57637,-23.55442 10.62581,-29.54301 0.0193,-2.33664 1.05362,-6.13083 2.29855,-8.43152 1.2449,-2.3007 2.88411,-7.13423 3.64266,-10.74116 0.75855,-3.60695 3.73273,-8.75076 6.6093,-11.43071 4.9328,-4.59559 5.58169,-4.64813 11.41363,-0.92397 7.52812,4.80727 14.615,11.95686 14.615,14.74427 0,1.13052 1.90574,4.15701 4.23496,6.72551 8.35933,9.21804 22.26411,32.65044 22.26411,37.51952 0,1.51493 1.89709,4.16551 4.21576,5.89017 3.26861,2.43122 3.63586,4.08237 1.63466,7.3492 -1.41963,2.31742 -3.60147,4.55364 -4.84856,4.96934 -1.99488,0.6649 -17.8649,-29.94936 -17.8649,-34.46253 0,-0.9571 -2.78816,-4.73363 -6.19589,-8.39231 -3.40773,-3.65867 -8.77873,-9.44029 -11.93554,-12.84802 -6.86926,-7.41531 -13.16553,-7.99768 -14.89665,-1.37788 -0.69297,2.64991 -2.21756,4.81801 -3.38797,4.81801 -1.17042,0 -2.12805,3.06802 -2.12805,6.8178 0,10.54343 -10.69088,34.4638 -19.34822,43.29076 -7.59788,7.74667 -7.68157,8.05947 -3.25873,12.17747 2.49667,2.3247 13.75386,8.8792 25.01596,14.5656 20.02382,10.1104 28.491,15.9105 26.35074,18.0509 -3.13787,3.1378 -13.86754,3.5447 -19.12372,0.7249 z M 146.42014,928.76417 c 0.28692,-2.31867 -0.17513,-5.84184 -1.02657,-7.82927 -0.85151,-1.98743 -1.96642,-8.88591 -2.47759,-15.32995 -1.04098,-13.1232 -2.14467,-14.1842 -20.80471,-20.00012 -20.18079,-6.28989 -24.083548,-12.18984 -24.087118,-36.41348 -0.002,-15.8931 0.76479,-20.24449 3.772508,-21.39867 4.09169,-1.57011 9.47409,2.48663 9.47409,7.14071 0,1.84327 5.2133,3.1584 14.38677,3.62924 17.09036,0.87719 20.54381,-2.15905 20.54381,-18.06191 0,-8.77408 0.74545,-10.38009 4.81801,-10.38009 4.15949,0 4.81802,1.60601 4.81802,11.75007 0,14.8645 3.21438,17.56791 20.0773,16.88571 11.32729,-0.45829 13.61999,-1.36186 15.84473,-6.24465 2.18225,-4.78949 3.37868,-5.29268 7.4296,-3.1247 4.12908,2.20983 4.82849,5.0374 4.82849,19.52078 0,16.04275 -2.17628,23.95836 -8.25945,30.04153 -4.98173,4.98173 -13.06821,8.25945 -20.37691,8.25945 -3.9996,0 -10.03318,1.25805 -13.4079,2.7957 -5.54397,2.52598 -6.13586,4.13754 -6.13586,16.70619 0,15.0327 -3.13058,26.26922 -7.31883,26.26922 -1.44102,0 -2.3853,-1.89709 -2.09839,-4.21576 z m -3.71059,-56.84127 c 0.77994,-3.10745 1.0716,-9.81103 0.64817,-14.89688 -0.64285,-7.72096 -1.8428,-9.53164 -7.27108,-10.97177 -5.84502,-1.55068 -21.26634,1.87144 -24.92625,5.53134 -0.77266,0.77264 -0.68601,5.23646 0.19248,9.91959 1.2918,6.88598 3.28001,9.21341 10.39361,12.16707 13.09415,5.43681 19.28915,4.91984 20.963,-1.74935 z m 38.01631,2.05079 c 6.8483,-2.86139 8.93262,-5.2982 10.16899,-11.88871 0.85534,-4.55931 0.92,-9.31731 0.14382,-10.57339 -1.82519,-2.95323 -25.75013,-5.9581 -31.09827,-3.90582 -2.98664,1.14606 -4.10292,4.4001 -4.10292,11.96019 0,5.71216 0.65799,12.1005 1.46224,14.19629 1.85318,4.82931 12.1517,4.92225 23.42626,0.21151 z m -113.934156,-43.271 c -3.69435,-4.45143 -1.94703,-7.21013 7.7896,-12.29843 4.27976,-2.2366 10.64845,-5.57989 14.15264,-7.42954 3.50421,-1.84969 7.70215,-4.96665 9.328758,-6.9266 1.62661,-1.95994 4.450798,-3.56352 6.275988,-3.56352 1.8252,0 3.31855,-0.95254 3.31855,-2.11674 0,-1.1642 3.52317,-3.44173 7.82927,-5.06113 12.27868,-4.6177 19.62183,-8.24285 22.84253,-11.27682 1.63253,-1.53791 4.08962,-3.16997 5.46018,-3.62683 1.37056,-0.45685 2.95703,-4.50566 3.52551,-8.99738 2.01571,-15.92726 9.90453,-16.10302 11.36212,-0.25314 0.65173,7.08682 2.29641,9.18106 10.41004,13.25563 16.26715,8.16916 55.17539,32.03877 60.86597,37.34034 5.88147,5.47943 6.706,8.54133 2.92875,10.8758 -2.719,1.68042 -14.35459,-4.91218 -25.3327,-14.35322 -3.92971,-3.37952 -8.03367,-6.14593 -9.11992,-6.14754 -1.08622,-0.002 -6.50648,-3.01724 -12.04503,-6.70135 -24.32535,-16.18079 -36.02656,-16.50059 -64.58311,-1.76508 -18.8934,9.7492 -46.132826,27.29724 -47.468186,30.5797 -1.21917,2.99683 -4.30089,2.36989 -7.54096,-1.53415 z"
       id="path3197"
       inkscape:connector-curvature="0" />
  </g>
</svg>
