<?xml version="1.0" encoding="UTF-8" standalone="no"?>
<!-- Created with Inkscape (http://www.inkscape.org/) -->

<svg
   xmlns:dc="http://purl.org/dc/elements/1.1/"
   xmlns:cc="http://creativecommons.org/ns#"
   xmlns:rdf="http://www.w3.org/1999/02/22-rdf-syntax-ns#"
   xmlns:svg="http://www.w3.org/2000/svg"
   xmlns="http://www.w3.org/2000/svg"
   xmlns:sodipodi="http://sodipodi.sourceforge.net/DTD/sodipodi-0.dtd"
   xmlns:inkscape="http://www.inkscape.org/namespaces/inkscape"
   width="300"
   height="300"
   id="svg2"
   version="1.1"
   inkscape:version="0.48.4 r9939"
   sodipodi:docname="image-seal.svg">
  <defs
     id="defs4" />
  <sodipodi:namedview
     id="base"
     pagecolor="#ffffff"
     bordercolor="#666666"
     borderopacity="1.0"
     inkscape:pageopacity="0.0"
     inkscape:pageshadow="2"
     inkscape:zoom="1.979899"
     inkscape:cx="141.86812"
     inkscape:cy="134.8223"
     inkscape:document-units="px"
     inkscape:current-layer="layer1"
     showgrid="false"
     inkscape:window-width="1215"
     inkscape:window-height="1000"
     inkscape:window-x="65"
     inkscape:window-y="24"
     inkscape:window-maximized="1" />
  <metadata
     id="metadata7">
    <rdf:RDF>
      <cc:Work
         rdf:about="">
        <dc:format>image/svg+xml</dc:format>
        <dc:type
           rdf:resource="http://purl.org/dc/dcmitype/StillImage" />
        <dc:title />
      </cc:Work>
    </rdf:RDF>
  </metadata>
  <g
     inkscape:label="Calque 1"
     inkscape:groupmode="layer"
     id="layer1"
     transform="translate(0,-752.36218)">
    <path
       style="fill:#000000"
       d="m 100.71258,1035.0527 c -9.023595,-9.7407 -19.212816,-32.3733 -22.935694,-50.94534 -1.806433,-9.0116 -3.038974,-35.95103 -2.950471,-64.48776 0.160961,-51.88784 -0.440039,-58.03899 -5.670331,-58.03899 -8.04392,0 -9.570243,13.18782 -9.082741,78.47773 0.392395,52.55307 -0.164573,64.68506 -2.970048,64.68506 -5.84948,0 -7.219173,-15.89492 -6.335047,-73.51601 0.89945,-58.61997 3.148217,-73.03863 12.563145,-80.55234 7.223095,-5.76453 16.108348,-5.79192 18.608023,-0.0572 1.082259,2.48278 2.385892,30.0513 2.896996,61.26337 0.51113,31.21208 1.200814,59.361 1.532668,62.55314 0.713983,6.86809 6.154351,7.74713 7.982451,1.28975 3.707298,-13.09527 5.267179,-55.02906 3.718235,-99.95604 -0.492971,-14.2985 7.118904,-29.66437 14.695034,-29.66437 6.67484,0 14.19005,9.7725 14.19005,18.45223 0,5.6548 0.0656,5.66522 4.62108,0.73562 7.21145,-7.80362 21.17402,-28.84259 21.17402,-31.90527 0,-1.51781 1.00227,-2.75964 2.22725,-2.75964 3.19129,0 15.90098,-29.30105 17.64914,-40.68848 2.22789,-14.51253 5.85005,-17.80555 11.50279,-10.45754 2.5406,3.30253 4.64508,7.2952 4.67663,8.87265 0.0895,4.4807 20.37181,42.83635 25.30318,47.85079 2.43022,2.47111 5.58036,5.99965 7.00039,7.84117 1.41999,1.84155 5.77291,7.20984 9.67316,11.92957 7.61296,9.21253 9.17661,15.92402 3.71001,15.92402 -6.91748,0 -35.26924,-35.06734 -43.24109,-53.48348 -5.56653,-12.85945 -9.37923,-12.30813 -16.85096,2.43664 -3.70051,7.30259 -8.26849,14.81774 -10.15109,16.70034 -1.88262,1.8826 -4.15756,5.73761 -5.05546,8.56665 -0.89792,2.82906 -2.53265,5.14376 -3.63272,5.14376 -1.10006,0 -4.70067,5.25069 -8.00134,11.66823 -3.72548,7.24355 -8.26511,12.23646 -11.97136,13.16665 -5.94352,1.49176 -5.96919,1.68409 -5.75702,43.14636 0.11709,22.90639 0.003,42.22834 -0.25433,42.93771 -0.25693,0.70936 -0.83077,8.65529 -1.27488,17.65763 -0.83584,16.9416 -4.71615,25.58062 -7.52077,16.74396 -0.83973,-2.64572 -1.31555,-23.36642 -1.05737,-46.04599 0.25816,-22.67954 -0.28514,-48.78063 -1.20734,-58.00239 -0.92217,-9.22175 -1.72247,-19.95896 -1.77836,-23.86047 -0.0614,-4.28157 -1.5206,-7.09365 -3.68102,-7.09365 -2.88428,0 -3.63264,7.63865 -3.85391,39.33754 -0.25842,37.0153 -0.75265,44.75123 -3.66688,57.39411 -0.65404,2.83745 -2.00743,10.08624 -3.0075,16.10842 -1.00008,6.02217 -2.646763,11.4614 -3.659299,12.0872 -1.012561,0.62577 -2.118732,5.84496 -2.458196,11.59818 -0.746123,12.64531 3.443079,21.57131 15.484465,32.99331 4.57278,4.3376 3.66084,11.047 -1.50148,11.047 -1.71089,0 -6.06781,-3.1922 -9.68209,-7.0937 z m 77.83247,-18.1274 c -10.21021,-1.2487 -18.19679,-6.2605 -22.14589,-13.8972 -4.43188,-8.5703 -5.28963,-69.2212 -0.97893,-69.2212 1.84069,0 1.84069,-1.55007 0,-4.98944 -1.46865,-2.74418 -2.67028,-10.41346 -2.67028,-17.04281 0,-9.93129 0.71834,-11.7777 4.08024,-10.4876 2.24415,0.86116 4.56572,1.56572 5.15903,1.56572 0.59332,0 1.07877,6.83571 1.07877,15.19049 l 0,15.19045 19.99121,-0.35827 19.99121,-0.3583 0.76273,-17.41169 c 0.41951,-9.57643 1.37302,-17.41169 2.11888,-17.41169 4.16653,0 9.117,9.09509 11.34498,20.84318 3.51215,18.5195 3.23775,77.98414 -0.39668,85.96086 -1.61531,3.5452 -6.71776,8.2399 -11.3388,10.4327 -7.89689,3.7474 -10.86954,3.967 -26.99647,1.9948 z m 16.58364,-14.8972 c 5.9316,-1.1128 9.30467,-3.23319 9.47319,-5.95514 0.14396,-2.32489 0.74898,-8.87018 1.34454,-14.54511 0.59559,-5.67492 0.39428,-16.41214 -0.44731,-23.86047 -1.50066,-13.28126 -1.69376,-13.54244 -10.01281,-13.54244 -4.66546,0 -13.86817,0.73819 -20.45046,1.64036 l -11.96785,1.64039 0.30521,18.35082 c 0.42508,25.5587 2.47736,33.12348 10.02612,36.95669 3.53952,1.7973 7.80405,2.7672 9.47671,2.1554 1.67265,-0.6118 7.18636,-1.8901 12.25266,-2.8405 z M 157.90896,866.64282 c 0,-4.96233 1.33073,-5.2144 23.83102,-4.51414 20.29668,0.63169 23.95906,1.41117 24.69449,5.25583 0.77375,4.04495 -1.70316,4.51415 -23.83099,4.51415 -23.12643,0 -24.69452,-0.33374 -24.69452,-5.25584 z m -33.75812,-37.95299 c -3.42335,-2.36554 -7.77573,-5.81705 -9.67193,-7.66999 -13.20575,-12.90434 -26.948637,-19.55612 -29.226139,-14.14593 -0.472927,1.12338 -8.074177,7.06704 -16.891693,13.2081 -14.866855,10.35421 -23.950549,12.43357 -23.950549,5.48259 0,-2.69665 18.785079,-17.43426 25.788296,-20.23193 2.124356,-0.84862 6.547959,-4.22846 9.830231,-7.5107 5.442355,-5.44235 5.817441,-7.44032 4.260707,-22.69477 l -1.706991,-16.72702 6.708971,0 c 6.444804,0 6.708998,0.58181 6.708998,14.77575 0,13.99541 0.555883,15.28386 10.526109,24.39755 5.78937,5.29202 12.69467,10.3101 15.34512,11.15134 2.65044,0.8412 5.53696,3.79167 6.41452,6.55654 0.87754,2.76489 2.6781,5.02708 4.00121,5.02708 2.98957,0 3.1965,9.52481 0.2466,11.34799 -1.18753,0.73391 -4.96007,-0.60103 -8.38341,-2.9666 z"
       id="path3250"
       inkscape:connector-curvature="0" />
  </g>
</svg>
