<?xml version="1.0" encoding="UTF-8" standalone="no"?>
<!-- Created with Inkscape (http://www.inkscape.org/) -->

<svg
   xmlns:dc="http://purl.org/dc/elements/1.1/"
   xmlns:cc="http://creativecommons.org/ns#"
   xmlns:rdf="http://www.w3.org/1999/02/22-rdf-syntax-ns#"
   xmlns:svg="http://www.w3.org/2000/svg"
   xmlns="http://www.w3.org/2000/svg"
   xmlns:sodipodi="http://sodipodi.sourceforge.net/DTD/sodipodi-0.dtd"
   xmlns:inkscape="http://www.inkscape.org/namespaces/inkscape"
   width="300"
   height="300"
   id="svg2"
   version="1.1"
   inkscape:version="0.48.4 r9939"
   sodipodi:docname="image-seal.svg">
  <defs
     id="defs4" />
  <sodipodi:namedview
     id="base"
     pagecolor="#ffffff"
     bordercolor="#666666"
     borderopacity="1.0"
     inkscape:pageopacity="0.0"
     inkscape:pageshadow="2"
     inkscape:zoom="2.7366667"
     inkscape:cx="150"
     inkscape:cy="150"
     inkscape:document-units="px"
     inkscape:current-layer="layer1"
     showgrid="false"
     inkscape:window-width="1215"
     inkscape:window-height="1000"
     inkscape:window-x="65"
     inkscape:window-y="24"
     inkscape:window-maximized="1" />
  <metadata
     id="metadata7">
    <rdf:RDF>
      <cc:Work
         rdf:about="">
        <dc:format>image/svg+xml</dc:format>
        <dc:type
           rdf:resource="http://purl.org/dc/dcmitype/StillImage" />
        <dc:title />
      </cc:Work>
    </rdf:RDF>
  </metadata>
  <g
     inkscape:label="Calque 1"
     inkscape:groupmode="layer"
     id="layer1"
     transform="translate(0,-752.36218)">
    <path
       style="fill:#000000"
       d="M 105.92939,1026.2993 C 89.525752,992.45668 87.206892,962.46745 94.615412,879.97832 c 2.74507,-30.56449 -0.13072,-37.46479 -8.71258,-20.90554 -7.47706,14.42744 -8.83742,24.86939 -10.22775,78.5071 -0.74613,28.78594 -1.80543,52.78902 -2.35399,53.34015 -0.54852,0.55116 -2.82148,-0.51181 -5.051,-2.36215 -3.53749,-2.93586 -3.86638,-9.40309 -2.58272,-50.7871 1.83556,-59.17705 1.30209,-52.51112 5.58782,-69.82243 4.01504,-16.21793 10.57629,-29.51221 16.34247,-33.11279 2.30997,-1.44241 6.48177,-1.27628 10.95436,0.43622 l 7.223568,2.7658 -1.49184,33.81442 c -0.82051,18.59794 -2.15342,48.54103 -2.96203,66.54022 -0.80861,17.99922 -0.87318,34.28164 -0.14348,36.18317 2.30494,6.0066 10.54288,1.60905 10.96099,-5.85119 0.21242,-3.78956 2.19848,-21.25115 4.41356,-38.80355 2.21507,-17.5524 4.05183,-41.46727 4.0817,-53.14417 0.0697,-27.25174 5.3138,-37.49004 19.20241,-37.49004 10.16869,0 11.53914,4.58482 12.16533,40.69936 0.33003,19.0327 1.31215,34.60749 2.1825,34.61065 1.71791,0.005 18.30377,-19.59381 19.69318,-23.27206 0.46808,-1.23913 2.47862,-2.25296 4.46788,-2.25296 2.13261,0 3.61687,-2.55741 3.61687,-6.23201 0,-3.4276 1.14888,-6.94207 2.55307,-7.80991 3.88857,-2.40326 3.04465,-13.00874 -1.32364,-16.63411 -9.30183,-7.71981 -12.72578,-20.94684 -12.44168,-48.06337 0.25822,-24.64419 0.69784,-26.79191 6.6054,-32.26969 4.69043,-4.34924 9.90611,-6.04619 20.14798,-6.55535 24.54666,-1.2203 26.70863,-0.59462 33.50696,9.69696 11.50552,17.41755 9.09324,59.47706 -4.12337,71.89341 -4.15539,3.90381 -7.87854,5.28451 -11.31161,4.19491 -10.04656,-3.18867 -9.39828,12.19357 0.99828,23.68731 1.74245,1.92633 9.5663,10.05108 17.38637,18.05505 12.83179,13.13351 14.37929,15.92216 15.86888,28.59625 1.45908,12.41451 0.74619,15.83512 -6.14546,29.48739 -4.28779,8.49409 -10.52631,18.77443 -13.86338,22.84521 -3.33705,4.07075 -11.16193,14.86914 -17.38857,23.99642 -14.15464,20.7484 -24.95992,32.2239 -32.39663,34.4059 -7.86677,2.3083 -11.05855,-5.6634 -4.23185,-10.5693 8.42206,-6.0525 12.21011,-10.0236 24.03078,-25.192 6.31887,-8.10845 13.94253,-17.36036 16.94148,-20.55983 2.99897,-3.19944 7.0133,-9.34291 8.92075,-13.65214 1.90743,-4.30924 4.19713,-7.83496 5.08818,-7.83496 2.30201,0 7.0278,-12.85793 7.50684,-20.42461 0.97765,-15.4418 -0.16161,-20.42461 -4.66991,-20.42461 -4.16785,0 -21.02196,22.08388 -21.02196,27.54501 0,2.57095 -29.3221,42.611 -36.38134,49.6796 -2.45733,2.46061 -4.46788,5.48884 -4.46788,6.72924 0,3.2427 -12.59287,5.1954 -14.42166,2.2363 -0.84392,-1.3655 1.39837,-5.2021 4.98289,-8.52587 3.58452,-3.32375 8.57121,-9.52019 11.08157,-13.76989 2.51034,-4.2497 5.48662,-7.72671 6.61393,-7.72671 2.45348,0 30.57978,-42.37525 35.49167,-53.47196 1.89941,-4.29104 4.32187,-7.80187 5.38328,-7.80187 3.46798,0 2.02541,-9.50779 -1.94215,-12.80057 -3.22657,-2.67782 -4.92833,-1.98519 -10.20919,4.15529 -3.48546,4.0528 -6.3386,8.38042 -6.34031,9.6169 -0.003,2.83568 -16.46594,25.90785 -25.72025,36.04798 -3.84455,4.21258 -9.89103,11.10589 -13.43659,15.31846 -4.53378,5.38674 -7.2576,6.8629 -9.18037,4.97526 -1.9345,-1.89916 -0.42877,-5.81849 5.14942,-13.40365 4.33584,-5.89582 8.93283,-10.71968 10.21555,-10.71968 1.28272,0 2.33221,-1.45273 2.33221,-3.22829 0,-1.77556 5.4572,-10.13957 12.12711,-18.5867 6.66992,-8.44711 13.56322,-17.89319 15.31846,-20.99129 3.44127,-6.07403 4.42497,-26.16337 1.27654,-26.07 -3.48727,0.1034 -12.49343,8.74844 -18.55887,17.81475 -8.1541,12.18836 -10.42299,14.92957 -22.75151,27.488 -10.14154,10.33062 -10.76234,11.84641 -12.02499,29.36038 -1.80674,25.06118 -7.19274,38.39202 -12.22293,30.25299 -0.76697,-1.24097 -0.20859,-10.71927 1.241,-21.06288 1.4495,-10.34361 3.19132,-30.29542 3.87069,-44.33734 0.67937,-14.04192 2.43257,-29.24217 3.89599,-33.77835 1.46345,-4.53618 1.91693,-9.45121 1.00775,-10.92226 -0.9092,-1.47109 -2.11068,-6.29053 -2.66998,-10.70988 -1.05947,-8.37156 -5.99373,-13.52587 -9.54695,-9.97265 -1.13341,1.13342 -2.54031,9.17469 -3.12644,17.86949 -0.58614,8.69481 -1.73209,16.88697 -2.54654,18.20479 -0.81446,1.31782 -0.27571,4.64783 1.19721,7.39999 1.47292,2.75219 1.74031,5.58356 0.59415,6.29191 -1.14612,0.70835 -2.28145,9.68193 -2.52292,19.94128 -0.24152,10.25934 -0.92235,20.95114 -1.51308,23.75952 -5.01133,23.82462 -8.22165,33.00975 -14.95462,42.78721 -4.26277,6.19024 -4.46903,8.20184 -1.70168,16.59504 3.28333,9.9579 11.36017,25.6697 15.34376,29.8478 4.15521,4.3581 2.57708,11.6165 -2.52568,11.6165 -3.53287,0 -7.59252,-5.6826 -15.04743,-21.0629 z M 214.97627,845.47275 c 9.81413,-9.81415 10.8882,-22.00711 2.11119,-23.96626 -12.55825,-2.80321 -29.35364,-2.51261 -34.23326,0.59228 -7.92087,5.04003 8.1004,31.22959 19.10447,31.22959 2.83907,0 8.697,-3.53501 13.0176,-7.85561 z m 2.95827,-35.54669 c 3.87956,0 4.89734,-1.82698 4.89734,-8.79101 0,-11.15712 -7.40482,-16.73975 -22.20367,-16.73975 -9.53191,0 -11.34884,0.95457 -14.90458,7.83062 -6.23959,12.06606 -4.15843,16.19327 9.04723,17.94174 6.30631,0.83498 12.99608,1.1222 14.86618,0.63827 1.87008,-0.48394 5.60396,-0.87987 8.2975,-0.87987 z M 71.424772,823.61791 c -0.89465,-0.89465 0.6372,-4.80589 3.40409,-8.69162 2.76693,-3.88576 5.03074,-8.32375 5.03074,-9.86223 0,-1.53848 1.67495,-2.79723 3.7221,-2.79723 2.04716,0 8.19878,-4.30831 13.67022,-9.57403 7.481888,-7.20055 10.379838,-12.36185 11.689648,-20.81937 0.95783,-6.18493 2.38429,-12.28533 3.16987,-13.55643 2.6732,-4.32529 8.4347,6.89464 8.51619,16.58438 0.0572,6.79315 1.40527,10.15892 4.54908,11.35738 2.45733,0.93678 7.34009,4.36005 10.85057,7.60728 3.51048,3.24723 8.21889,6.4879 10.46312,7.20151 5.05604,1.60762 10.97366,13.97373 8.07439,16.873 -1.17235,1.17235 -8.98234,-3.01143 -17.35549,-9.29733 -16.8009,-12.61274 -23.61177,-14.03465 -30.5424,-6.37639 -2.54156,2.80839 -5.63012,5.10616 -6.863478,5.10616 -1.23337,0 -6.26359,4.02109 -11.17827,8.93576 -8.5888,8.58881 -13.73422,10.77531 -17.20038,7.30916 z"
       id="path3225"
       inkscape:connector-curvature="0" />
  </g>
</svg>
