<?xml version="1.0" encoding="UTF-8" standalone="no"?>
<!-- Created with Inkscape (http://www.inkscape.org/) -->

<svg
   xmlns:dc="http://purl.org/dc/elements/1.1/"
   xmlns:cc="http://creativecommons.org/ns#"
   xmlns:rdf="http://www.w3.org/1999/02/22-rdf-syntax-ns#"
   xmlns:svg="http://www.w3.org/2000/svg"
   xmlns="http://www.w3.org/2000/svg"
   xmlns:sodipodi="http://sodipodi.sourceforge.net/DTD/sodipodi-0.dtd"
   xmlns:inkscape="http://www.inkscape.org/namespaces/inkscape"
   width="300"
   height="300"
   id="svg2"
   version="1.1"
   inkscape:version="0.48.4 r9939"
   sodipodi:docname="image-seal.svg">
  <defs
     id="defs4" />
  <sodipodi:namedview
     id="base"
     pagecolor="#ffffff"
     bordercolor="#666666"
     borderopacity="1.0"
     inkscape:pageopacity="0.0"
     inkscape:pageshadow="2"
     inkscape:zoom="2.0018437"
     inkscape:cx="123.3515"
     inkscape:cy="143.3195"
     inkscape:document-units="px"
     inkscape:current-layer="layer1"
     showgrid="false"
     inkscape:window-width="1215"
     inkscape:window-height="1000"
     inkscape:window-x="65"
     inkscape:window-y="24"
     inkscape:window-maximized="1"
     fit-margin-top="10"
     fit-margin-left="10"
     fit-margin-right="10"
     fit-margin-bottom="10" />
  <metadata
     id="metadata7">
    <rdf:RDF>
      <cc:Work
         rdf:about="">
        <dc:format>image/svg+xml</dc:format>
        <dc:type
           rdf:resource="http://purl.org/dc/dcmitype/StillImage" />
        <dc:title />
      </cc:Work>
    </rdf:RDF>
  </metadata>
  <g
     inkscape:label="Calque 1"
     inkscape:groupmode="layer"
     id="layer1"
     transform="translate(0,-752.36218)">
    <path
       style="fill:#000000"
       d="m 196.74404,1045.6256 c -1.038,-1.6794 -1.68812,-15.9727 -1.4447,-31.7628 0.44278,-28.72049 3.81826,-40.92072 11.36105,-41.06261 2.7982,-0.0526 15.12117,-15.87569 20.87516,-26.80432 2.59283,-4.92457 4.79598,-61.99479 3.75312,-97.22035 l -0.35428,-11.96695 -15.11615,0 c -8.31389,0 -15.11616,0.90696 -15.11616,2.01548 0,3.86616 6.08823,8.06195 11.69814,8.06195 9.74473,0 13.49546,8.95492 13.49546,32.22067 0,18.79601 -0.69862,21.93801 -6.59743,29.67173 -3.62858,4.75731 -8.76586,8.64967 -11.41617,8.64967 -4.60395,0 -9.20216,6.37569 -6.52733,9.05055 0.70133,0.70131 5.65427,1.5553 11.00652,1.89768 6.84488,0.43789 9.97654,1.89564 10.55793,4.91459 0.67882,3.52479 -1.18064,4.29206 -10.40142,4.29206 -11.55371,0 -14.50509,3.02487 -15.3158,15.6972 -0.3712,5.80228 -5.1219,5.9452 -6.0456,0.18189 -2.55849,-15.96382 -2.47472,-15.87907 -15.69589,-15.87907 -12.01939,0 -12.54717,0.2923 -12.51023,6.92824 0.0511,9.16848 1.60027,10.97564 15.70742,18.32267 6.58183,3.42784 11.96696,7.6871 11.96696,9.46504 0,4.29052 -8.23372,7.34592 -9.50645,3.5277 -0.54499,-1.63493 -2.6485,-2.97261 -4.67449,-2.97261 -7.79485,0 -21.13705,-19.16197 -24.55872,-35.27104 -0.73578,-3.46412 -1.99052,-12.47294 -2.7883,-20.01961 -0.79778,-7.54667 -1.82757,-14.09826 -2.28841,-14.5591 -0.46087,-0.46087 -1.58657,9.68167 -2.5016,22.53895 -2.79646,39.29425 -4.89932,51.08984 -9.10794,51.08984 -3.86885,0 -3.90027,-0.80048 -2.00077,-51.01703 0.27519,-7.27466 1.54358,-13.22664 2.81871,-13.22664 1.27512,0 1.02243,-1.56153 -0.56152,-3.47009 -1.80532,-2.17527 -2.31509,-8.1075 -1.36617,-15.89847 1.0153,-8.33596 0.29852,-15.28176 -2.17683,-21.09369 l -3.69056,-8.66526 -4.06952,9.36667 c -2.8145,6.47806 -4.0695,16.83451 -4.0695,33.58196 0,34.27175 -4.75005,70.9437 -10.89509,84.11375 -3.71707,7.96642 -4.34759,11.46025 -2.19751,12.17685 1.65834,0.5528 3.01517,2.1653 3.01517,3.5834 0,1.418 5.66855,7.9 12.59679,14.4048 13.89661,13.0467 15.67427,17.868 6.58815,17.868 -3.78679,0 -7.66898,-2.5619 -10.49875,-6.9282 -2.46955,-3.8106 -6.3383,-8.6288 -8.59719,-10.7073 -7.93202,-7.2986 -15.20516,-19.7363 -15.20516,-26.00237 0,-3.48115 -1.36222,-6.78345 -3.02716,-7.33842 -2.10022,-0.70008 -3.06453,-9.44321 -3.1492,-28.55276 -0.13126,-29.6098 2.95495,-83.57448 4.96553,-86.82766 0.67494,-1.09209 0.53534,-3.78851 -0.31021,-5.99202 -1.81371,-4.72642 -10.99144,-5.42491 -11.26297,-0.85718 -0.10304,1.73206 -0.5976,5.41662 -1.09917,8.18791 -3.05463,16.87755 -6.2717,57.62889 -6.2717,79.44526 0,22.63138 -0.47888,25.3854 -4.28659,24.65211 -3.50375,-0.67476 -4.45465,-4.43742 -5.20698,-20.60352 -0.50622,-10.87789 -0.18694,-21.64324 0.7094,-23.92296 0.89641,-2.27974 2.08217,-11.5141 2.63505,-20.52081 3.29638,-53.70023 5.52435,-60.46463 19.915,-60.46463 4.73605,0 9.39951,1.27585 10.36324,2.83521 1.9973,3.23168 1.63247,51.93274 -0.54496,72.74557 -1.6719,15.98096 -1.6778,16.23441 -0.86266,37.21619 0.73336,18.87675 5.94723,25.3117 8.74361,10.79127 0.59112,-3.06946 1.65003,-7.47429 2.35311,-9.78849 0.7031,-2.31419 1.91469,-22.91386 2.69247,-45.77704 1.66451,-48.93075 2.66555,-55.77847 9.1754,-62.76599 12.01239,-12.89378 24.83046,0.53241 24.84656,26.02533 0.005,8.1984 0.5601,14.35552 1.23315,13.68247 1.14515,-1.14515 5.34346,-35.09224 7.37925,-59.66791 1.37645,-16.61616 8.14993,-29.22119 18.97028,-35.30257 5.21021,-2.92831 10.17997,-4.61733 11.04391,-3.75337 3.94066,3.94063 9.25288,-5.47311 9.28923,-16.4614 0.0501,-15.14538 2.97801,-20.25204 8.82789,-15.39709 3.15023,2.61447 3.83419,5.85686 2.71363,12.86443 -2.16653,13.54864 -0.0733,16.56341 13.81307,19.89471 21.86232,5.2447 22.47467,7.2847 22.47467,74.87209 0,31.77146 -0.85028,58.62456 -1.88952,59.67352 -1.03923,1.04896 -2.00508,3.78877 -2.14634,6.08846 -0.14134,2.29967 -0.42469,6.66212 -0.62984,9.6943 -0.20508,3.0322 -3.88264,9.26761 -8.17215,13.85647 -18.54072,19.83464 -20.9947,25.84682 -22.03643,53.98859 -0.63755,17.2229 -2.06804,26.9267 -4.23452,28.7248 -2.36376,1.9615 -3.79549,1.8678 -5.15899,-0.3386 z m -10.1045,-117.12996 c 6.71987,-2.57864 4.44536,-8.28829 -4.84868,-12.17158 -11.37453,-4.75259 -13.25228,-10.30934 -12.88365,-38.1263 0.33389,-25.19523 3.31074,-31.31176 15.23907,-31.31176 4.68929,0 6.47836,-1.32435 6.47836,-4.79557 0,-3.95101 -2.19607,-4.94931 -12.46997,-5.66856 -10.66921,-0.74692 -12.7075,-0.14537 -14.11494,4.16573 -0.90475,2.7713 -2.22633,23.36555 -2.93684,45.765 l -1.29185,40.72628 5.95919,1.12991 c 9.62755,1.82543 16.60976,1.92141 20.86931,0.28685 z m 3.9851,-33.7418 c 0,-12.31688 -0.16804,-12.5968 -7.55808,-12.5968 -7.23507,0 -7.55808,0.46656 -7.55808,10.91721 0,12.53392 1.12749,14.27638 9.23766,14.27638 5.37463,0 5.8785,-1.07972 5.8785,-12.59679 z m 20.78472,9.08972 c 2.77837,-2.10908 4.40888,-6.73803 4.40888,-12.51666 0,-7.49028 -0.92289,-9.16986 -5.03872,-9.16986 -2.93085,0 -5.03872,-1.67958 -5.03872,-4.0149 0,-2.2082 2.26742,-4.60786 5.03872,-5.33256 3.56905,-0.93332 5.03872,-3.43645 5.03872,-8.58189 0,-6.35136 -0.9266,-7.26425 -7.37336,-7.26425 -4.84271,0 -7.82375,-1.51318 -8.68567,-4.40888 -0.72177,-2.42488 -0.54791,1.82654 0.38634,9.4476 0.93426,7.62106 1.38215,20.94218 0.99528,29.60248 -0.74369,16.6487 1.28074,19.06162 10.26853,12.23892 z m -23.80795,-34.78719 c 4.73919,-4.73919 3.67748,-12.09293 -1.74594,-12.09293 -5.34318,0 -8.41857,5.60603 -6.21934,11.33712 1.75272,4.56747 3.94554,4.77555 7.96528,0.75581 z m 43.33298,-45.81453 c 0,-13.80078 -10.0373,-17.79678 -42.44816,-16.89923 -6.00119,0.16627 -10.54412,2.48953 -15.73637,8.04786 -4.01477,4.29783 -6.67015,8.83268 -5.90082,10.07744 0.76929,1.24477 6.34345,2.26322 12.38699,2.26322 10.1607,0 11.11327,-0.56923 12.64829,-7.55808 1.14167,-5.19804 3.17089,-7.55808 6.49856,-7.55808 2.6612,0 4.95906,1.41714 5.10637,3.1492 0.14738,1.73206 0.43071,5.40078 0.62984,8.1527 0.35729,4.93789 7.52792,7.83876 21.14675,8.55489 4.82079,0.25349 5.66855,-0.97731 5.66855,-8.22992 z m -96.3655,13.36492 c -2.42488,-1.41235 -4.40888,-3.71179 -4.40888,-5.10984 0,-2.6876 -14.63065,-22.41413 -18.87081,-25.44356 -3.60951,-2.57882 -18.3824,7.56982 -31.01641,21.30761 -8.19155,8.90719 -10.57741,8.7393 -10.57741,-0.74435 0,-8.99746 6.48355,-16.24536 23.40075,-26.15949 l 11.87029,-6.95646 0,-17.24746 c 0,-17.85336 1.49259,-21.29347 7.6009,-17.51831 2.60401,1.60936 3.44583,6.78453 3.08486,18.96485 -0.35631,12.02307 0.56524,17.81319 3.26479,20.51271 2.06867,2.06867 6.8553,7.91451 10.63699,12.99075 3.78168,5.07623 7.56279,9.79637 8.40249,10.4892 3.4652,2.85917 7.44539,12.87463 6.02787,15.16823 -1.89519,3.06646 -3.80308,3.01502 -9.41543,-0.25388 z"
       id="path3247"
       inkscape:connector-curvature="0" />
  </g>
</svg>
