<?xml version="1.0" encoding="UTF-8" standalone="no"?>
<!-- Created with Inkscape (http://www.inkscape.org/) -->

<svg
   xmlns:dc="http://purl.org/dc/elements/1.1/"
   xmlns:cc="http://creativecommons.org/ns#"
   xmlns:rdf="http://www.w3.org/1999/02/22-rdf-syntax-ns#"
   xmlns:svg="http://www.w3.org/2000/svg"
   xmlns="http://www.w3.org/2000/svg"
   xmlns:sodipodi="http://sodipodi.sourceforge.net/DTD/sodipodi-0.dtd"
   xmlns:inkscape="http://www.inkscape.org/namespaces/inkscape"
   width="300"
   height="300"
   id="svg2"
   version="1.1"
   inkscape:version="0.48.4 r9939"
   sodipodi:docname="image-seal.svg">
  <defs
     id="defs4" />
  <sodipodi:namedview
     id="base"
     pagecolor="#ffffff"
     bordercolor="#666666"
     borderopacity="1.0"
     inkscape:pageopacity="0.0"
     inkscape:pageshadow="2"
     inkscape:zoom="1.979899"
     inkscape:cx="154.88845"
     inkscape:cy="133.61981"
     inkscape:document-units="px"
     inkscape:current-layer="layer1"
     showgrid="false"
     inkscape:window-width="1215"
     inkscape:window-height="1000"
     inkscape:window-x="65"
     inkscape:window-y="24"
     inkscape:window-maximized="1" />
  <metadata
     id="metadata7">
    <rdf:RDF>
      <cc:Work
         rdf:about="">
        <dc:format>image/svg+xml</dc:format>
        <dc:type
           rdf:resource="http://purl.org/dc/dcmitype/StillImage" />
        <dc:title />
      </cc:Work>
    </rdf:RDF>
  </metadata>
  <g
     inkscape:label="Calque 1"
     inkscape:groupmode="layer"
     id="layer1"
     transform="translate(0,-752.36218)">
    <path
       style="fill:#000000"
       d="m 215.47446,1038.7243 c -3.37743,-14.036 -5.28958,-32.5508 -22.39924,-36.3164 -16.587,-5.59784 -33.33031,-11.53667 -48.0663,-20.99064 -15.44616,-16.24845 -11.12118,-40.71947 -12.80688,-61.20396 -0.0257,-38.19424 -2.07736,-76.69815 2.37415,-114.681 2.87304,-13.85431 13.6416,-26.13133 28.90807,-21.93895 20.18842,-0.18161 40.57584,-2.3082 60.63892,0.56502 17.86926,15.42349 -13.55683,9.87036 -22.8716,8.86333 -17.73209,-1.16516 -37.62191,-2.0269 -52.91257,8.378 -9.72101,13.62113 -2.29786,31.73196 -4.35293,47.16396 -1.136,33.48878 -4.49593,67.11482 0.2953,100.48488 -1.232,17.4644 12.05337,31.59554 28.52489,35.18781 16.16178,5.485 38.57148,8.67875 45.33215,26.37395 2.6453,7.4127 9.38203,28.2534 -2.66396,28.114 z M 92.613782,1021.7206 C 74.765293,1007.1184 68.44755,984.03961 69.182456,961.6958 c -2.019352,-34.02554 3.117323,-68.08325 0.05885,-102.07091 -9.641519,-14.78452 -10.483159,12.08718 -9.269216,19.1564 -1.070103,32.59274 -1.241033,65.56414 -4.910326,97.83226 -13.597981,2.26315 -4.071504,-24.47607 -6.616241,-33.71074 1.019904,-29.09124 2.675943,-58.33291 5.347587,-87.22839 3.590961,-16.71856 28.551668,-17.40721 25.193826,3.01462 2.260786,11.42874 -2.515626,39.00269 4.115741,40.11533 5.110987,-16.57815 0.631897,-35.2875 7.943814,-51.30101 8.865024,-14.28197 30.356534,0.55473 26.381744,14.4538 2.7547,37.46197 2.11955,75.07661 0.48029,112.57393 5.90009,12.68334 -13.04227,20.74557 -9.47412,2.98452 -2.14062,-39.40039 0.78589,-79.04121 -3.80256,-118.29785 -13.795582,-12.31743 -10.130004,18.50457 -10.291376,26.66111 1.130072,32.57485 1.533283,65.38043 -4.757133,97.48453 -4.099103,17.1519 11.436409,28.8668 19.897809,41.7538 6.88481,18.1136 -13.333267,0.9522 -16.867368,-3.3966 z m -8.023719,-71.16937 c -0.182942,-12.06425 10.034699,-38.41978 -2.8576,-40.954 -3.749696,15.12177 -5.540494,32.6416 -1.982573,47.96908 3.688659,5.35848 3.691374,-5.3944 4.840173,-7.01508 z m 125.208307,30.3861 c -11.54365,-3.90306 -30.1292,-20.58255 -14.41986,-30.86545 17.58932,-5.11579 15.50862,-19.89815 0.14485,-26.28963 -5.53223,-7.0191 -31.5676,-14.27553 -16.4954,0.14644 11.52423,9.03225 1.44447,16.47519 -8.07048,7.80154 -16.78453,-3.05028 -3.58699,38.24228 -19.09492,28.37411 -4.38276,-17.08576 6.92368,-33.25723 6.58695,-50.14598 -6.38058,-11.24691 -8.6861,-32.60766 7.97031,-35.99731 12.90699,1.60969 18.29719,-14.29254 3.18172,-14.96492 -13.19391,-6.98951 -17.42502,-22.8235 -13.98439,-36.528 3.61358,-17.24076 23.96498,-14.79493 37.31303,-15.85393 16.50378,-3.03545 27.85999,9.97836 28.25742,25.56799 1.20812,15.62528 -13.22285,24.41509 -25.90353,29.23112 -9.37119,11.41748 17.13593,10.38764 25.20157,9.80823 11.571,3.46156 -12.33535,9.99072 -4.17418,19.53747 1.43368,15.16481 -30.93716,17.98078 -9.04079,30.56786 15.38957,4.41324 19.53051,28.12174 2.73354,33.39023 -22.36795,9.40984 14.78184,16.14133 16.13441,26.90498 -3.52161,4.82087 -11.9182,0.84737 -16.34025,-0.68475 z m -31.74929,-78.4048 c 16.53763,-11.13327 -10.07622,-32.21642 -16.67775,-12.24209 -2.16217,9.33154 8.18304,18.56044 16.67775,12.24209 z m 24.88931,-13.31538 c -1.59069,-20.22286 -24.50587,8.06869 -3.91603,8.38893 4.19779,-0.14657 5.37737,-5.15307 3.91603,-8.38893 z m -1.90896,-40.30545 c 14.82137,-15.73777 -14.35859,-12.31886 -24.00988,-13.05104 -20.64301,-1.31643 -7.20229,21.11501 6.63797,15.91789 5.88263,-0.23686 11.68293,-1.41019 17.37191,-2.86685 z m 4.93889,-26.4474 c -8.96529,-10.93235 -28.63964,-7.92257 -39.30516,-1.95461 6.52781,9.93869 29.35389,6.2628 39.30516,1.95461 z M 47.659213,821.83426 c 8.214796,-14.91216 29.587138,-15.23192 37.57429,-31.30633 8.882935,-7.12234 -11.122684,-21.35779 5.203931,-22.82887 5.897208,11.84062 3.78404,30.69547 19.483906,37.5152 12.98265,1.41332 19.63437,24.81378 2.81737,14.68598 -13.242585,-7.19965 -24.73701,-20.05312 -39.292419,-6.79554 -8.471288,1.69682 -17.750419,19.90225 -25.787078,8.72956 z"
       id="path3145"
       inkscape:connector-curvature="0" />
  </g>
</svg>
