<?xml version="1.0" encoding="UTF-8" standalone="no"?>
<!-- Created with Inkscape (http://www.inkscape.org/) -->

<svg
   xmlns:dc="http://purl.org/dc/elements/1.1/"
   xmlns:cc="http://creativecommons.org/ns#"
   xmlns:rdf="http://www.w3.org/1999/02/22-rdf-syntax-ns#"
   xmlns:svg="http://www.w3.org/2000/svg"
   xmlns="http://www.w3.org/2000/svg"
   xmlns:sodipodi="http://sodipodi.sourceforge.net/DTD/sodipodi-0.dtd"
   xmlns:inkscape="http://www.inkscape.org/namespaces/inkscape"
   width="300"
   height="300"
   id="svg2"
   version="1.1"
   inkscape:version="0.48.4 r9939"
   sodipodi:docname="image-seal.svg">
  <defs
     id="defs4" />
  <sodipodi:namedview
     id="base"
     pagecolor="#ffffff"
     bordercolor="#666666"
     borderopacity="1.0"
     inkscape:pageopacity="0.0"
     inkscape:pageshadow="2"
     inkscape:zoom="2.0018437"
     inkscape:cx="145.03351"
     inkscape:cy="130.6666"
     inkscape:document-units="px"
     inkscape:current-layer="layer1"
     showgrid="false"
     inkscape:window-width="1215"
     inkscape:window-height="1000"
     inkscape:window-x="65"
     inkscape:window-y="24"
     inkscape:window-maximized="1"
     fit-margin-top="10"
     fit-margin-left="10"
     fit-margin-right="10"
     fit-margin-bottom="10" />
  <metadata
     id="metadata7">
    <rdf:RDF>
      <cc:Work
         rdf:about="">
        <dc:format>image/svg+xml</dc:format>
        <dc:type
           rdf:resource="http://purl.org/dc/dcmitype/StillImage" />
        <dc:title />
      </cc:Work>
    </rdf:RDF>
  </metadata>
  <g
     inkscape:label="Calque 1"
     inkscape:groupmode="layer"
     id="layer1"
     transform="translate(0,-752.36218)">
    <path
       style="fill:#000000"
       d="m 183.38099,1044.1884 c -5.2404,-1.5597 -11.13585,-3.4739 -13.101,-4.2537 -1.96515,-0.7799 -6.48294,-2.0543 -10.03953,-2.8322 -3.55659,-0.7778 -9.17563,-4.1233 -12.48676,-7.4345 -5.75403,-5.7541 -15.5857,-24.3312 -15.5857,-29.4497 0,-5.63716 -8.32209,-19.26637 -11.75568,-19.25251 -4.84017,0.0191 -11.27974,10.91462 -20.28965,34.32771 -8.234032,21.3971 -13.232303,25.8388 -13.176793,11.7093 0.0988,-25.1452 25.690243,-61.5504 41.085993,-58.44706 4.76733,0.96097 11.28212,12.13572 11.28212,19.35211 0,7.19528 11.59629,31.15495 15.07876,31.15495 1.90635,0 4.23686,-6.7973 6.28754,-18.3388 2.61425,-14.71301 4.6403,-19.6893 10.24825,-25.17125 4.02206,-3.93166 8.48507,-6.259 10.51145,-5.48139 1.9369,0.74326 4.77384,1.35634 6.30432,1.36241 5.33352,0.0214 24.87125,20.84293 32.79481,34.95013 3.65656,6.5102 4.09316,9.1402 1.94666,11.7268 -4.45101,5.363 -6.22261,4.1458 -16.81485,-11.5534 -9.23928,-13.69401 -20.26028,-25.59658 -23.70725,-25.60366 -0.77954,-0.002 -3.1452,1.90636 -5.25705,4.23994 -3.95865,4.37428 -10.19965,36.83742 -7.82166,40.68512 0.73521,1.1896 4.29756,2.7579 7.91637,3.4849 27.35581,5.4969 33.16724,7.0917 36.04099,9.8891 8.19503,7.9778 -9.36059,10.9188 -29.46134,4.9357 z M 75,967.51683 c 0,-4.70776 6.719265,-10.20584 12.600398,-10.31034 2.344866,-0.0417 8.63582,-2.3064 13.979912,-5.03273 7.16641,-3.65604 9.01696,-5.65655 7.0511,-7.62241 -1.46598,-1.46597 -2.66541,-5.66672 -2.66541,-9.335 0,-3.66829 -0.98944,-6.66961 -2.19878,-6.66961 -1.20932,0 -5.496918,-3.29813 -9.527997,-7.32922 -6.010933,-6.01095 -7.329226,-9.25568 -7.329226,-18.03967 0,-8.89126 0.703361,-10.57496 4.141159,-9.91291 2.277615,0.43862 4.46315,2.92901 4.856731,5.53416 1.799744,11.91273 3.233797,15.45564 6.256033,15.45564 2.15569,0 3.80377,-4.40705 4.88531,-13.06346 1.43693,-11.50062 4.51461,-17.86268 7.29579,-15.0815 0.50384,0.50384 1.3933,7.2735 1.97658,15.0437 0.5833,7.77021 2.31149,14.54463 3.84042,15.05426 4.07889,1.35965 9.46097,-6.88869 9.54822,-14.63314 0.0574,-5.08519 1.08561,-6.53068 4.21691,-5.92766 5.35983,1.03222 6.28384,6.43057 3.11494,18.19889 -2.21915,8.24127 -3.71011,9.75171 -11.42769,11.57688 -7.88508,1.86479 -9.0376,3.09583 -10.3275,11.03137 -0.79853,4.9128 -0.81064,9.30697 -0.0269,9.76481 0.78375,0.45787 7.82866,-0.46251 15.65534,-2.0453 13.29149,-2.68792 14.33406,-3.38489 15.80237,-10.5642 0.86462,-4.22752 2.20636,-8.32069 2.9816,-9.09597 2.06405,-2.06405 8.6707,4.04645 8.6707,8.01953 0,3.43904 13.43962,10.30579 20.17048,10.30579 5.79977,0 4.81866,-13.59989 -1.11701,-15.48381 -5.91105,-1.87608 -8.4945,-6.64326 -10.64923,-19.65068 -1.35108,-8.15599 -0.98258,-10.12351 1.896,-10.12351 2.32024,0 4.14513,3.38635 5.20473,9.65811 1.22672,7.26079 2.60899,9.4559 5.56889,8.84343 3.07928,-0.63716 3.7858,-3.1091 3.24261,-11.3451 -0.38198,-5.79176 -1.13638,-10.97233 -1.67645,-11.5124 -0.54007,-0.54007 -5.85502,-0.25121 -11.81101,0.64195 -10.63543,1.5949 -10.82901,1.7835 -10.82901,10.55069 0,10.4484 -5.81745,20.04922 -9.11892,15.04942 -2.38755,-3.61573 -0.75099,-26.64578 2.1548,-30.32331 1.07873,-1.36524 10.32231,-3.87186 20.54123,-5.5703 25.90611,-4.30575 27.54661,-5.34697 13.81588,-8.76893 -20.91706,-5.21296 -60.14004,-3.08426 -92.302488,5.00939 -5.572123,1.40222 -6.550505,0.90969 -6.550505,-3.29763 0,-5.15096 9.560821,-9.15723 25.010993,-10.48035 6.33375,-0.54241 7.22709,-1.57772 7.8593,-9.10844 0.60088,-7.1573 -0.2514,-8.93602 -5.40733,-11.28522 -6.98505,-3.18261 -10.78897,-11.37974 -10.78897,-23.24937 0,-5.68483 1.09049,-8.18192 3.573,-8.18192 2.09491,0 3.60435,2.21716 3.64875,5.3595 0.0798,5.65379 6.14666,15.41408 8.26457,13.29618 0.68394,-0.68395 1.50444,-7.02348 1.82334,-14.08784 0.4533,-10.04133 1.48683,-13.01899 4.73609,-13.64475 4.31454,-0.83091 4.47032,-0.29389 5.04082,17.378 0.21199,6.56675 1.46025,9.71535 4.05027,10.21641 3.739,0.72331 9.35717,-8.31685 9.35717,-15.05658 0,-5.64837 4.11811,-3.9344 5.2912,2.20221 1.52353,7.96991 -4.89076,22.92086 -9.83356,22.92086 -6.20835,0 -9.74965,4.93162 -9.74965,13.5774 0,6.72575 0.83161,7.8606 5.76018,7.8606 10.76964,0 13.29583,-2.34449 13.29583,-12.3395 0,-7.71087 0.76636,-9.30259 4.1685,-8.65785 2.90446,0.55043 4.39119,3.46781 4.90291,9.62077 0.66087,7.94664 1.54244,8.9824 8.80466,10.34482 11.32045,2.12374 14.09815,0.58888 14.5316,-8.02972 0.32941,-6.54996 -0.7785,-8.0262 -8.62017,-11.48594 -7.55123,-3.33159 -9.22932,-5.41559 -10.4357,-12.95998 -1.45282,-9.0854 -0.0143,-16.51459 3.19999,-16.51459 0.96258,0 3.03472,4.28759 4.60476,9.528 1.63625,5.46128 4.33889,9.52799 6.33206,9.52799 3.87065,0 4.28538,-1.71742 3.73895,-15.483 -0.48507,-12.21949 2.65462,-17.59986 7.78544,-13.34165 2.36724,1.96463 3.89302,8.12338 4.35006,17.55862 0.67075,13.84781 0.90038,14.3354 4.87242,10.3472 2.29268,-2.30201 4.16851,-7.32458 4.16851,-11.16131 0,-7.45319 2.06131,-8.72575 6.6696,-4.11746 7.04248,7.04248 1.88975,21.5545 -9.00132,25.35115 -5.4118,1.88656 -7.19628,3.98118 -7.19628,8.44695 0,3.26611 -1.0719,6.60081 -2.382,7.41049 -5.09862,3.15113 -1.89238,5.57532 9.43434,7.13312 8.66588,1.19186 12.20165,2.83918 13.26152,6.17852 2.44229,7.69501 -0.9426,13.21567 -10.8392,17.67842 -9.13123,4.1176 -9.47466,4.68599 -9.47466,15.68014 0,6.27421 0.98548,12.01671 2.18997,12.76111 3.5664,2.20416 9.41563,-5.36445 11.10492,-14.36917 1.1251,-5.99717 2.67554,-8.17093 5.45309,-7.64541 10.50267,1.98713 1.78133,28.81404 -10.35784,31.86079 -6.11197,1.534 -10.08412,9.81524 -7.6947,16.04206 0.67181,1.75067 8.99058,4.58971 18.71741,6.38787 19.79401,3.65928 28.22715,8.01086 28.22715,14.5655 0,5.59073 -1.47267,5.58353 -18.45102,-0.09 -46.72827,-15.61457 -81.27917,-17.13241 -105.97615,-4.6555 -2.27491,1.14928 -5.81036,2.08959 -7.85658,2.08959 -2.0462,0 -8.157536,2.1438 -13.580728,4.764 -11.989367,5.79264 -18.493512,6.09442 -18.493512,0.85809 z M 85.637244,833.00916 c -1.896824,-5.97637 0.797932,-30.10681 4.040569,-36.18193 3.388058,-6.34751 12.638557,-9.08961 36.535187,-10.83008 l 21.43799,-1.56139 0.7243,-12.62968 c 0.47897,-8.35215 1.90107,-13.08125 4.19882,-13.96299 6.05626,-2.32401 10.55988,3.95362 10.55988,14.71949 0,11.79343 1.80113,12.99293 19.84632,13.2171 19.31567,0.23996 39.76294,5.3352 42.86647,10.68184 4.73039,8.14937 8.67434,21.09194 8.71133,28.58733 0.0329,6.66155 -3.47453,12.9819 -7.20417,12.9819 -2.49819,0 -7.05195,-11.685 -7.05195,-18.09536 0,-3.27868 -1.58923,-9.03442 -3.5316,-12.79058 -3.90772,-7.55668 -10.6504,-9.85873 -28.95133,-9.88441 -6.37123,-0.01 -23.85813,-0.58693 -38.85975,-1.28441 -26.10091,-1.2135 -41.33537,0.8965 -49.278264,6.8251 -1.491564,1.1133 -3.465498,8.05562 -4.38655,15.42735 -1.910865,15.29409 -3.298878,19.80231 -6.096824,19.80231 -1.081642,0 -2.683846,-2.25971 -3.560428,-5.02159 z"
       id="path3041"
       inkscape:connector-curvature="0" />
  </g>
</svg>
