<?xml version="1.0" encoding="UTF-8" standalone="no"?>
<!-- Created with Inkscape (http://www.inkscape.org/) -->

<svg
   xmlns:dc="http://purl.org/dc/elements/1.1/"
   xmlns:cc="http://creativecommons.org/ns#"
   xmlns:rdf="http://www.w3.org/1999/02/22-rdf-syntax-ns#"
   xmlns:svg="http://www.w3.org/2000/svg"
   xmlns="http://www.w3.org/2000/svg"
   xmlns:sodipodi="http://sodipodi.sourceforge.net/DTD/sodipodi-0.dtd"
   xmlns:inkscape="http://www.inkscape.org/namespaces/inkscape"
   width="300"
   height="300"
   id="svg2"
   version="1.1"
   inkscape:version="0.48.4 r9939"
   sodipodi:docname="dessin.svg">
  <defs
     id="defs4" />
  <sodipodi:namedview
     id="base"
     pagecolor="#ffffff"
     bordercolor="#666666"
     borderopacity="1.0"
     inkscape:pageopacity="0.0"
     inkscape:pageshadow="2"
     inkscape:zoom="1.979899"
     inkscape:cx="73.020464"
     inkscape:cy="149.14493"
     inkscape:document-units="px"
     inkscape:current-layer="layer1"
     showgrid="false"
     inkscape:window-width="1215"
     inkscape:window-height="1000"
     inkscape:window-x="65"
     inkscape:window-y="24"
     inkscape:window-maximized="1" />
  <metadata
     id="metadata7">
    <rdf:RDF>
      <cc:Work
         rdf:about="">
        <dc:format>image/svg+xml</dc:format>
        <dc:type
           rdf:resource="http://purl.org/dc/dcmitype/StillImage" />
        <dc:title />
      </cc:Work>
    </rdf:RDF>
  </metadata>
  <g
     inkscape:label="Calque 1"
     inkscape:groupmode="layer"
     id="layer1"
     transform="translate(0,-752.36218)">
    <path
       style="fill:#000000"
       d="m 189.4095,1040.7631 c -2.16678,-2.7391 -7.01104,-49.91806 -7.5324,-73.35916 -0.0508,-2.28913 -5.40129,-3.23451 -18.30565,-3.23451 -13.21605,0 -18.59266,-0.98133 -19.53805,-3.56609 -2.33862,-6.39398 3.94247,-9.3719 19.76745,-9.3719 14.95382,0 15.53796,-0.24453 15.53796,-6.50704 0,-4.57722 -2.37721,-8.00916 -8.01562,-11.57203 -22.69025,-14.3378 -26.51321,-21.00962 -26.51321,-46.27077 0,-19.05325 1.46797,-26.21613 5.37273,-26.21613 1.30825,0 4.00348,-1.70471 5.98935,-3.78825 2.81782,-2.95633 9.81519,-3.66663 31.86477,-3.2345 27.33579,0.53576 28.45803,0.78464 34.53097,7.658 5.63852,6.38167 6.23233,9.01359 5.83822,25.876 -0.42968,18.384 -3.41047,30.41593 -7.53523,30.41593 -1.13874,0 -2.07044,1.84679 -2.07044,4.10402 0,2.47092 -4.90709,6.27912 -12.33174,9.57016 -10.62375,4.70907 -12.33172,6.47015 -12.33172,12.71538 l 0,7.24923 18.57499,0 c 14.46665,0 18.89802,0.88315 20.03544,3.993 2.19039,5.98865 -0.66569,7.53082 -14.73012,7.95376 -26.82602,0.80666 -23.90295,-4.31561 -22.65425,39.6986 1.06784,37.639 -0.12815,45.2504 -5.95345,37.8863 z m -10.07069,-130.93325 0,-12.93799 -10.89303,0 c -6.51521,0 -11.31121,1.2999 -11.93359,3.2345 -1.34784,4.18964 8.15966,19.56806 12.96124,20.96493 9.04221,2.63047 9.86538,1.69084 9.86538,-11.26144 z m 28.85802,7.1159 c 2.77995,-3.20216 6.40579,-8.56705 8.05746,-11.922 4.33588,-8.80729 0.28595,-11.72759 -13.29977,-9.59012 l -11.28398,1.77534 0,11.05438 c 0,6.07991 0.73991,11.83066 1.64425,12.77942 3.27437,3.43538 9.93467,1.60178 14.88204,-4.09702 z M 176.3792,883.43634 c 3.89222,-4.08356 3.8067,-16.71768 -0.12334,-18.22231 -1.69562,-0.64921 -7.25452,-0.64522 -12.3531,0.008 -17.28119,2.21697 -14.5193,21.31866 3.08241,21.31866 3.53891,0 7.76621,-1.3973 9.39399,-3.10513 z m 41.99856,-5.48799 c 0.55069,-3.04681 -0.96715,-5.21068 -4.29562,-6.12388 -2.83094,-0.7767 -5.14718,-2.44081 -5.14718,-3.69799 0,-1.25719 -3.88449,-2.28581 -8.63221,-2.28581 -7.89906,0 -8.63221,0.64319 -8.63221,7.57307 0,8.41426 3.37944,10.30592 17.24391,9.6523 6.1865,-0.29165 8.85153,-1.73287 9.46331,-5.11769 z M 108.0747,1031.2336 C 83.769194,1001.1005 80.546089,988.96937 80.975368,929.23684 81.139011,906.46598 80.452028,882.2507 79.448731,875.42515 77.714608,863.6277 77.40302,863.2254 73.137012,867.27587 c -4.058069,3.85308 -4.524259,9.74594 -4.871189,61.5745 -0.210995,31.52251 -0.260021,60.51583 -0.108905,64.42957 0.262451,6.79806 -2.993518,9.58026 -5.745118,4.90918 -1.274592,-2.16372 -2.559009,-61.27993 -1.441905,-66.36467 0.312672,-1.42317 0.356952,-3.71306 0.09841,-5.08862 -1.587707,-8.44712 0.30692,-62.06065 2.33353,-66.03356 6.898919,-13.52451 17.541595,-16.96297 22.488297,-7.26555 1.826177,3.58 3.226942,23.12206 3.755927,52.39889 0.962506,53.27031 2.806377,78.3633 5.905943,80.37311 1.181509,0.76611 2.829863,-3.00601 3.663006,-8.38247 0.833145,-5.37646 2.483365,-12.2875 3.667165,-15.35782 1.1838,-3.07035 2.24248,-28.01066 2.3526,-55.42296 0.1132,-28.19045 1.24351,-51.1594 2.60192,-52.87666 1.32093,-1.66986 1.89788,-3.56468 1.28213,-4.2107 -0.61577,-0.64603 1.49749,-1.12111 4.69614,-1.05572 11.70343,0.23911 15.28851,7.2884 18.18997,35.76595 1.48247,14.55042 2.65272,28.20195 2.60059,30.33671 -0.0521,2.13477 0.0834,20.00166 0.30131,39.70418 0.21778,19.70252 -0.2126,36.46144 -0.95662,37.24202 -0.744,0.7806 -2.8747,0.0939 -4.73487,-1.52568 -2.60007,-2.26393 -3.48507,-13.56817 -3.82727,-48.88621 -0.44153,-45.56846 -3.74902,-78.28629 -7.91406,-78.28629 -3.76606,0 -4.86292,10.48146 -5.68658,54.33958 -0.72708,38.71707 -4.94381,73.9848 -9.83951,82.29565 -2.076776,3.5255 5.69489,16.2453 16.51662,27.0326 4.24051,4.227 6.56455,8.6937 5.722,10.9973 -2.32411,6.3543 -7.23956,4.315 -16.11182,-6.6846 z M 51.83614,833.10031 c -1.089496,-2.97876 1.713882,-7.2981 9.236834,-14.23179 5.940591,-5.47528 11.673682,-9.95504 12.740205,-9.95504 5.816545,0 11.804509,-11.04964 11.804509,-21.78295 0,-13.79253 1.875001,-19.61864 6.313807,-19.61864 2.901784,0 8.431755,14.45012 8.470515,22.13389 0.016,3.16068 11.96948,15.15205 25.29379,25.37384 9.144,7.01483 11.59072,12.77069 6.76006,15.90297 -1.3688,0.88754 -9.15017,-3.70141 -17.29195,-10.19768 -15.961619,-12.73569 -19.834731,-13.97122 -24.662996,-7.86749 -1.715886,2.16916 -3.657734,3.37953 -4.315217,2.68974 -1.44324,-1.51422 -20.503825,11.97201 -25.058724,17.73014 -4.164799,5.26499 -7.322404,5.20483 -9.290833,-0.17699 z m 151.71891,0.30223 c -8.11317,-4.62191 -8.86519,-7.26157 -9.85981,-34.60816 -0.55942,-15.38148 0.0857,-22.07472 2.20046,-22.82531 1.64557,-0.58411 3.70813,1.93175 4.58347,5.59079 1.31797,5.50944 3.02911,6.65283 9.95635,6.65283 6.76368,0 8.36483,-1.00616 8.36483,-5.25643 0,-5.19416 6.20841,-9.79328 9.11024,-6.74876 0.82416,0.86467 2.16673,8.86837 2.98348,17.78595 3.19621,34.89773 -7.69626,50.59917 -27.33902,39.40909 z m 16.47846,-20.60765 c 0,-9.47559 -0.59866,-10.42218 -7.08289,-11.1996 -9.56538,-1.14684 -12.08108,2.25382 -10.05393,13.59066 1.57589,8.81323 2.28821,9.47461 9.42082,8.74674 7.2327,-0.73809 7.716,-1.43573 7.716,-11.1378 z m -72.14061,12.29163 c -7.22946,-8.59329 -8.0156,-11.12248 -8.0156,-25.78838 0,-12.87695 0.78593,-16.26066 3.77693,-16.26066 2.07729,0 4.41574,1.74664 5.19654,3.88141 0.86639,2.3688 4.60222,3.8814 9.58626,3.8814 11.36225,0 15.9691,-2.31933 15.9691,-8.03965 0,-6.16227 6.6564,-6.46064 8.25571,-0.37006 2.69017,10.24475 1.7045,39.73108 -1.43835,43.02842 -11.5576,12.12583 -22.94502,12.01223 -33.33059,-0.33248 z m 26.0529,-12.93853 c 0.76993,-8.37774 0.73006,-8.40971 -10.48195,-8.40971 -6.19018,0 -11.25483,0.487 -11.25483,1.08216 0,0.5952 -0.61876,2.77391 -1.37502,4.84156 -2.20489,6.02833 5.98297,12.56525 14.63268,11.68231 6.7042,-0.68435 7.80678,-1.88017 8.47912,-9.19632 z"
       id="path3249"
       inkscape:connector-curvature="0" />
  </g>
</svg>
