<?xml version="1.0" encoding="UTF-8" standalone="no"?>
<!-- Created with Inkscape (http://www.inkscape.org/) -->

<svg
   xmlns:dc="http://purl.org/dc/elements/1.1/"
   xmlns:cc="http://creativecommons.org/ns#"
   xmlns:rdf="http://www.w3.org/1999/02/22-rdf-syntax-ns#"
   xmlns:svg="http://www.w3.org/2000/svg"
   xmlns="http://www.w3.org/2000/svg"
   xmlns:sodipodi="http://sodipodi.sourceforge.net/DTD/sodipodi-0.dtd"
   xmlns:inkscape="http://www.inkscape.org/namespaces/inkscape"
   width="300"
   height="300"
   id="svg2"
   version="1.1"
   inkscape:version="0.48.4 r9939"
   sodipodi:docname="image-seal.svg">
  <defs
     id="defs4" />
  <sodipodi:namedview
     id="base"
     pagecolor="#ffffff"
     bordercolor="#666666"
     borderopacity="1.0"
     inkscape:pageopacity="0.0"
     inkscape:pageshadow="2"
     inkscape:zoom="2.0018437"
     inkscape:cx="145.03351"
     inkscape:cy="130.6666"
     inkscape:document-units="px"
     inkscape:current-layer="layer1"
     showgrid="false"
     inkscape:window-width="1215"
     inkscape:window-height="1000"
     inkscape:window-x="65"
     inkscape:window-y="24"
     inkscape:window-maximized="1"
     fit-margin-top="10"
     fit-margin-left="10"
     fit-margin-right="10"
     fit-margin-bottom="10" />
  <metadata
     id="metadata7">
    <rdf:RDF>
      <cc:Work
         rdf:about="">
        <dc:format>image/svg+xml</dc:format>
        <dc:type
           rdf:resource="http://purl.org/dc/dcmitype/StillImage" />
        <dc:title />
      </cc:Work>
    </rdf:RDF>
  </metadata>
  <g
     inkscape:label="Calque 1"
     inkscape:groupmode="layer"
     id="layer1"
     transform="translate(0,-752.36218)">
    <path
       style="fill:#000000"
       d="m 239.50474,1043.3714 c -14.78471,-7.7219 -25.27332,-15.5698 -25.29165,-18.9237 -0.0107,-1.8317 -1.07164,-3.3303 -2.35917,-3.3303 -1.28753,0 -3.83077,-3.5966 -5.65161,-7.9926 -4.3912,-10.6011 -0.21473,-20.69221 15.31438,-37.00161 20.03951,-21.04663 22.63915,-33.84542 15.63024,-76.95156 -3.46124,-21.28718 -9.10728,-32.5775 -16.29155,-32.5775 -5.2413,0 -11.31012,-8.63706 -14.50792,-20.64751 -2.73637,-10.2774 -3.78726,-11.32283 -11.38152,-11.32283 -12.68394,0 -26.53999,-5.75322 -34.96071,-14.51632 -7.06848,-7.35592 -7.44533,-8.84624 -5.7282,-22.65465 1.01092,-8.12939 2.39372,-15.68843 3.07285,-16.79783 3.92148,-6.40584 18.05882,-9.73078 43.2175,-10.16425 23.1859,-0.39949 27.93309,0.25763 32.64128,4.51855 8.51474,7.70573 12.95657,18.28781 12.95657,30.86736 0,12.27965 -3.65869,16.39306 -19.80317,22.26441 -11.08937,4.033 -14.11259,9.85853 -9.54512,18.39301 2.03944,3.8106 6.73487,8.38449 10.43429,10.16417 13.79075,6.63385 17.8041,17.21656 20.99553,55.36276 3.82347,45.70053 1.65793,56.12739 -14.35001,69.09349 -15.19305,12.3062 -20.62327,22.36721 -16.26811,30.14161 4.56995,8.1581 22.03603,20.4781 29.03144,20.4781 1.40246,0 4.38169,1.8319 6.62052,4.0706 3.2476,3.2477 3.41249,4.8635 0.81556,7.9926 -3.97047,4.7841 -4.57679,4.7649 -14.59142,-0.466 z m -49.2876,-222.33191 c 0,-7.58174 -16.88731,-37.03531 -21.23435,-37.03531 -2.64277,0 -8.07179,14.66676 -8.07179,21.80632 0,8.24912 10.97278,17.81158 20.64751,17.99365 4.76225,0.0895 8.65863,-1.15447 8.65863,-2.76466 z m 21.14116,-2.23787 c 3.28999,-2.08183 3.31101,-3.97383 0.15053,-13.55039 -4.96953,-15.05784 -16.07551,-26.74393 -23.55702,-24.78748 -3.14993,0.82372 -5.70535,2.25703 -5.67868,3.1851 0.0514,1.78546 13.95241,23.4276 18.55204,28.88296 1.49216,1.7698 2.71303,4.4673 2.71303,5.99444 0,3.39237 2.74172,3.48892 7.82018,0.27537 z m 20.15386,-21.63433 c 0,-10.37112 -0.8352,-11.99644 -7.34026,-14.28413 -12.27602,-4.31725 -14.37381,1.212 -5.92778,15.62406 3.98686,6.80305 8.60314,11.91775 10.25843,11.36596 1.65529,-0.55175 3.00961,-6.2694 3.00961,-12.70589 z M 118.96134,1024.5747 C 99.56308,1001.3765 95.06115,980.77489 92.18089,902.02205 c -1.97764,-54.07329 -4.004,-62.41062 -12.98553,-53.42909 -3.88994,3.88973 -4.36009,11.8887 -3.94714,67.15662 0.30503,40.82745 -0.47228,62.74071 -2.22553,62.74071 -1.51428,0 -2.75422,-7.2927 -2.83111,-16.65121 -0.0751,-9.15817 -1.04404,-24.81511 -2.15285,-34.79331 -1.10884,-9.97821 -1.04288,-18.74341 0.14653,-19.47873 1.18945,-0.73505 1.41077,-4.33225 0.49181,-7.99365 -2.75491,-10.97648 -2.98917,-33.53981 -0.47849,-46.08923 2.72041,-13.59778 8.04936,-18.65629 19.78004,-18.77565 7.24174,-0.0746 8.58036,1.0425 10.28238,8.57391 1.0762,4.76225 2.41699,30.83806 2.97945,57.94624 1.07527,51.82044 4.64076,77.40973 10.03426,72.01473 3.74653,-3.7474 3.32106,-71.32284 -0.59941,-95.20655 -2.21419,-13.48908 -1.93879,-18.50416 1.49648,-27.24965 4.85331,-12.3552 10.95578,-15.29594 21.38831,-10.3067 6.58837,3.15094 7.55803,5.3569 9.14919,20.81349 2.32952,22.6294 3.22336,127.73431 1.10431,129.85341 -0.90244,0.9026 -3.01022,0.2714 -4.68392,-1.4022 -2.05641,-2.0565 -3.36136,-23.9671 -4.02459,-67.5741 -0.57496,-37.80386 -2.09091,-65.86768 -3.66023,-67.75846 -3.88439,-4.68046 -12.61752,-6.3986 -14.01486,-2.75718 -0.65888,1.71708 -0.0885,9.67716 1.26738,17.68892 2.93291,17.32979 4.51208,50.52672 2.40468,50.55043 -0.81738,0 -1.78368,13.43447 -2.14737,29.83418 -0.36369,16.39971 -1.8623,31.01841 -3.33024,32.48641 -6.99143,6.9916 -2.21437,19.74831 13.98579,37.34771 5.49685,5.9718 9.59361,12.0614 9.1039,13.5325 -2.19244,6.5865 -9.90046,3.2615 -19.75284,-8.5209 z m 47.59736,-41.92481 c -5.58967,-5.5796 -5.99748,-7.3156 -3.44116,-14.6485 1.595,-4.57551 4.74826,-10.16739 7.00723,-12.42636 6.39069,-6.39061 4.9042,-13.40889 -4.92122,-23.23418 -12.70924,-12.70927 -14.42506,-22.83161 -5.63991,-33.27232 3.80039,-4.51635 9.25211,-8.95516 12.11497,-9.86392 7.59085,-2.40923 9.54975,-13.73898 3.99986,-23.13426 -5.95394,-10.07919 -3.34319,-12.58513 5.92365,-5.68619 8.65083,6.44069 14.41636,19.81388 9.28107,21.52775 -1.83163,0.61144 -3.33024,2.52939 -3.33024,4.26245 0,1.73306 -6.06885,7.12379 -13.48631,11.97981 -18.5497,12.14367 -19.04004,15.0908 -4.70159,28.25752 15.4624,14.19856 17.62613,22.17942 8.78332,32.39687 -7.33551,8.47583 -7.56474,13.65583 -0.79305,17.91993 9.02307,5.6819 17.08875,-1.6382 23.17708,-21.03491 5.64964,-17.99903 11.07388,-24.91794 19.65693,-25.07406 7.27528,-0.13321 5.47876,7.12432 -3.00438,12.13567 -6.36972,3.76264 -7.93856,6.8238 -9.27356,18.09601 -2.28372,19.28239 -8.65615,26.81909 -23.29071,27.54619 -9.26359,0.4604 -13.05021,-0.7447 -18.06198,-5.7475 z m 20.03983,-65.96011 c -8.2836,-9.99899 -5.20008,-17.63644 3.20692,-7.94303 5.86152,6.75826 9.95753,7.29456 15.25507,1.99708 5.79555,-5.79569 4.60599,-11.03243 -4.1866,-18.4309 -9.67044,-8.13725 -9.92775,-9.73364 -1.56892,-9.73364 8.27968,0 20.21828,14.00514 20.21828,23.71773 0,9.06865 -9.94053,18.90939 -19.10073,18.90939 -4.36547,0 -9.27331,-3.0236 -13.82402,-8.51663 z M 65,816.4262 c 0,-6.46627 2.46784,-8.98417 17.31726,-17.66843 9.5245,-5.57012 17.423812,-11.46811 17.554012,-13.10659 0.130278,-1.63851 0.0413,-8.67382 -0.19742,-15.63403 -0.314612,-9.16821 0.574428,-12.65492 3.226718,-12.65492 6.79857,0 9.65019,5.44308 7.24509,13.82917 -2.5275,8.81291 1.00056,13.70587 18.79512,26.06621 11.68196,8.11447 22.12778,19.77171 18.73381,20.90636 -1.41048,0.47156 -7.70122,-2.64794 -13.97943,-6.93223 -20.70833,-14.13156 -21.52831,-14.32572 -34.39709,-8.14458 -6.40878,3.07826 -12.25175,6.3958 -12.98441,7.37231 -1.95719,2.60862 -17.87421,13.50762 -19.72668,13.50762 -0.87279,0 -1.58687,-3.39341 -1.58687,-7.54089 z"
       id="path3119"
       inkscape:connector-curvature="0" />
  </g>
</svg>
