<?xml version="1.0" encoding="UTF-8" standalone="no"?>
<!-- Created with Inkscape (http://www.inkscape.org/) -->

<svg
   xmlns:dc="http://purl.org/dc/elements/1.1/"
   xmlns:cc="http://creativecommons.org/ns#"
   xmlns:rdf="http://www.w3.org/1999/02/22-rdf-syntax-ns#"
   xmlns:svg="http://www.w3.org/2000/svg"
   xmlns="http://www.w3.org/2000/svg"
   xmlns:sodipodi="http://sodipodi.sourceforge.net/DTD/sodipodi-0.dtd"
   xmlns:inkscape="http://www.inkscape.org/namespaces/inkscape"
   width="300"
   height="300"
   id="svg2"
   version="1.1"
   inkscape:version="0.48.4 r9939"
   sodipodi:docname="image-seal.svg">
  <defs
     id="defs4" />
  <sodipodi:namedview
     id="base"
     pagecolor="#ffffff"
     bordercolor="#666666"
     borderopacity="1.0"
     inkscape:pageopacity="0.0"
     inkscape:pageshadow="2"
     inkscape:zoom="1.979899"
     inkscape:cx="118.51252"
     inkscape:cy="115.06794"
     inkscape:document-units="px"
     inkscape:current-layer="layer1"
     showgrid="false"
     inkscape:window-width="1215"
     inkscape:window-height="1000"
     inkscape:window-x="65"
     inkscape:window-y="24"
     inkscape:window-maximized="1" />
  <metadata
     id="metadata7">
    <rdf:RDF>
      <cc:Work
         rdf:about="">
        <dc:format>image/svg+xml</dc:format>
        <dc:type
           rdf:resource="http://purl.org/dc/dcmitype/StillImage" />
        <dc:title />
      </cc:Work>
    </rdf:RDF>
  </metadata>
  <g
     inkscape:label="Calque 1"
     inkscape:groupmode="layer"
     id="layer1"
     transform="translate(0,-752.36218)">
    <path
       style="fill:#000000"
       d="m 178.54946,1044.1823 c -0.92886,-0.9288 -1.68881,-10.1116 -1.68881,-20.4061 0,-14.6669 -0.99353,-19.9804 -4.59108,-24.55396 -8.27144,-10.51544 -11.08009,-31.54207 -6.59844,-49.39841 1.70763,-6.80367 4.74756,-7.70456 28.30938,-8.38953 21.68801,-0.63049 25.27228,1.91314 27.91927,19.81313 2.31482,15.65381 -0.40744,31.58162 -6.51886,38.14145 -4.12128,4.42372 -4.71411,7.06462 -3.21793,14.33582 3.29605,16.0183 2.76135,28.3636 -1.22847,28.3636 -2.65396,0 -4.26533,-4.8341 -6.07826,-18.2348 -1.61195,-11.9151 -3.52021,-18.1505 -5.50605,-17.9916 -1.67152,0.1337 -5.0691,0.4072 -7.55017,0.6078 -3.72712,0.3013 -4.76849,3.1219 -5.99265,16.2311 -1.52178,16.2965 -4.27985,24.4596 -7.25793,21.4815 z m 28.83682,-54.51548 c 6.76629,-7.47667 0.9114,-10.09344 -18.36911,-8.20981 -17.51993,1.71162 -18.2412,1.98261 -15.79815,5.93557 5.06708,8.19867 27.45698,9.68901 34.16726,2.27424 z m 3.51263,-20.47134 c 0,-1.98034 -2.85212,-4.31646 -6.33802,-5.19136 -7.36659,-1.84889 -32.56285,3.20776 -32.56285,6.53507 0,1.24131 8.7527,2.25693 19.45043,2.25693 15.55719,0 19.45044,-0.72071 19.45044,-3.60064 z m -3.64696,-15.84979 c 0,-5.16912 -26.62657,-6.54337 -31.54199,-1.62793 -5.35239,5.35237 -1.69197,6.7529 15.63548,5.9823 12.20385,-0.54274 15.90651,-1.55633 15.90651,-4.35437 z m -87.80678,77.12311 c -12.2855,-12.6013 -20.365088,-25.5306 -20.377164,-32.60831 -0.0051,-2.92982 -0.976728,-5.92499 -2.159399,-6.65592 -4.571292,-2.82522 -7.936474,-33.79026 -8.60954,-79.22146 -0.592411,-39.98713 -1.276138,-47.49322 -4.381905,-48.10557 -5.901572,-1.16359 -6.995608,7.18465 -8.458922,64.54729 -0.758998,29.75308 -2.239015,54.09651 -3.28893,54.09651 -5.021,0 -6.980356,-18.32943 -6.107618,-57.13564 1.399128,-62.21199 4.362973,-74.15478 18.403014,-74.15478 12.964567,0 14.594212,7.31672 14.594212,65.52447 0,42.12383 0.59919,51.17813 3.386832,51.17813 1.86276,0 4.13084,-1.91466 5.04018,-4.25479 1.7736,-4.56426 4.8369,-36.76778 4.45201,-46.8026 -0.12823,-3.34304 -0.69399,-15.93224 -1.25725,-27.97602 -1.28155,-27.40228 2.07671,-37.66919 12.32142,-37.66919 8.40408,0 14.95767,6.6724 14.95767,15.22882 0,3.485 1.11996,9.28206 2.48879,12.88236 1.36883,3.6003 2.49319,26.14566 2.49858,50.10079 0.008,33.74912 -0.76925,44.66704 -3.45059,48.49517 -1.90321,2.71723 -4.1036,3.89967 -4.88975,2.62766 -0.78614,-1.27201 -1.50903,-22.96058 -1.6064,-48.19681 -0.2309,-59.84477 -1.06757,-66.55016 -8.3037,-66.55016 -2.26691,0 -3.08136,9.7284 -3.27387,39.10572 -0.26748,40.81812 -3.00207,56.79269 -12.66795,74.00197 -4.58875,8.16991 -4.59415,8.61243 -0.22946,18.79481 2.45846,5.73535 9.61224,15.71895 15.89731,22.18585 7.00926,7.212 10.8952,13.1447 10.05091,15.3449 -0.75706,1.9729 -1.37648,4.0446 -1.37648,4.6038 0,3.0159 -4.7324,-0.2382 -13.652,-9.387 z m 50.06049,-98.32043 c -16.7388,-11.64558 -21.91191,-21.57775 -18.61732,-35.7446 5.82944,-25.06684 7.36547,-25.69234 53.93231,-21.96238 23.39383,1.87383 30.3913,7.04171 30.3913,22.44509 0,12.14901 -6.82212,32.14617 -10.96681,32.14617 -1.7687,0 -3.62204,1.21869 -4.11854,2.70818 -0.54123,1.6237 -9.65293,3.08576 -22.75323,3.65102 -17.79168,0.76768 -22.96822,0.16508 -27.86771,-3.24348 z m 31.66803,-8.78314 c 0,-1.77986 -2.74796,-4.70678 -6.10656,-6.50425 -5.41588,-2.89847 -6.50712,-2.73869 -9.6479,1.41264 -5.39458,7.13031 -4.52765,8.32773 6.02924,8.32773 6.47503,0 9.72522,-1.08152 9.72522,-3.23612 z m -20.49657,-10.13605 c 8.98833,-8.23298 14.35702,-10.47097 16.03919,-6.68609 0.44573,1.00291 4.48862,4.86458 8.9842,8.58151 6.40337,5.29426 8.90475,6.15134 11.54869,3.95706 5.10511,-4.23686 4.2704,-6.35073 -6.95812,-17.62102 -5.68317,-5.7043 -12.237,-12.77507 -14.56402,-15.71279 -5.69946,-7.1951 -7.11998,-6.80004 -12.78815,3.55652 -2.67443,4.88658 -8.59369,10.85757 -13.15389,13.26889 -11.84315,6.26235 -12.78299,7.77555 -8.56745,13.79407 5.1441,7.34424 8.62901,6.78225 19.45955,-3.13815 z m -6.8556,-21.31496 c 4.62137,-3.61581 3.62882,-9.07635 -1.64981,-9.07635 -5.39684,0 -12.33019,6.12181 -12.33019,10.88692 0,3.52201 8.58559,2.41008 13.98,-1.81057 z m 47.41993,2.47235 c 3.0898,-9.18321 -4.51835,-14.56196 -12.77385,-9.03076 -3.11246,2.08535 -2.80572,3.14888 2.09282,7.25666 6.6546,5.58035 9.25505,6.01228 10.68103,1.7741 z m -72.23837,-30.83339 c -2.38597,-3.86059 0.72208,-7.45965 6.44196,-7.45965 4.83502,0 14.1217,-8.23898 14.1217,-12.52853 0,-1.1326 -2.80714,-2.05929 -6.2381,-2.05929 -7.22347,0 -15.64364,-3.972 -15.64364,-7.37945 0,-1.29017 7.65861,-2.34577 17.01913,-2.34577 15.0319,0 17.01913,-0.53333 17.01913,-4.56764 0,-2.74835 -2.80952,-5.73139 -7.05375,-7.48939 -9.66191,-4.0021 -15.90173,-11.60184 -19.27754,-23.47896 -3.74214,-13.166 -3.75933,-13.09009 2.96332,-13.09009 4.78104,0 6.10855,1.60376 7.50971,9.07263 2.3468,12.50952 5.50781,17.67171 10.82106,17.67171 5.82134,0 7.42916,-4.51928 7.63937,-21.47276 0.20715,-16.69764 2.25365,-22.86885 6.67743,-20.1348 3.97609,2.45734 4.88642,7.15139 5.1222,26.41191 0.16314,13.32287 0.76389,15.19565 4.87496,15.19565 6.97712,0 12.13593,-6.43845 13.87555,-17.3174 1.2928,-8.08469 2.39396,-9.55762 6.68723,-8.94486 5.05505,0.72151 5.50226,2.93757 4.13762,20.50333 -0.44897,5.77902 -15.72971,17.91545 -22.55698,17.91545 -4.45233,0 -6.83236,1.27041 -6.83236,3.64696 0,2.93782 3.78204,3.64696 19.45043,3.64696 17.46314,0 19.45044,0.47023 19.45044,4.60248 0,5.68492 -4.56111,7.55404 -18.43364,7.55404 -8.88279,0 -10.74201,0.78908 -10.74201,4.55913 0,3.59181 3.09512,5.24578 14.58782,7.79544 8.86218,1.96605 14.58783,4.50081 14.58783,6.45803 0,4.70812 -6.8156,6.54974 -12.92837,3.49335 -2.91853,-1.4593 -8.04163,-2.97227 -11.38467,-3.36221 -4.16573,-0.48589 -7.60831,-3.57571 -10.94087,-9.81979 -2.91176,-5.45563 -6.65711,-9.11345 -9.3355,-9.11739 -4.71678,-0.007 -13.54373,8.91615 -13.681,13.82994 -0.10552,3.77618 -3.28399,5.62448 -11.57264,6.72948 -3.70867,0.49443 -8.54701,1.61437 -10.75189,2.48876 -2.20487,0.87439 -4.73112,0.42113 -5.61393,-1.00727 z m -82.417775,-37.8182 c -0.877324,-2.28628 1.824915,-6.08288 7.354576,-10.33304 22.174523,-17.04366 23.874875,-19.11973 24.60679,-30.04416 0.804115,-12.00204 1.39056,-13.04477 6.281139,-11.16808 1.96388,0.75361 4.80081,7.39934 6.3555,14.88819 1.5445,7.43982 3.83741,13.52695 5.09535,13.52695 1.25794,0 7.75571,3.55578 14.43949,7.90174 8.73882,5.6822 11.97483,9.2676 11.52045,12.76435 -0.77289,5.94794 -8.09793,5.31867 -15.25287,-1.31028 -2.69268,-2.49476 -8.81427,-6.17316 -13.60352,-8.17422 -8.63237,-3.60684 -8.81834,-3.55522 -21.484861,5.96222 -13.240136,9.94843 -22.913721,12.23624 -25.312044,5.98633 z"
       id="path3093"
       inkscape:connector-curvature="0" />
  </g>
</svg>
