<?xml version="1.0" encoding="UTF-8" standalone="no"?>
<!-- Created with Inkscape (http://www.inkscape.org/) -->

<svg
   xmlns:dc="http://purl.org/dc/elements/1.1/"
   xmlns:cc="http://creativecommons.org/ns#"
   xmlns:rdf="http://www.w3.org/1999/02/22-rdf-syntax-ns#"
   xmlns:svg="http://www.w3.org/2000/svg"
   xmlns="http://www.w3.org/2000/svg"
   xmlns:sodipodi="http://sodipodi.sourceforge.net/DTD/sodipodi-0.dtd"
   xmlns:inkscape="http://www.inkscape.org/namespaces/inkscape"
   width="300"
   height="300"
   id="svg2"
   version="1.1"
   inkscape:version="0.48.4 r9939"
   sodipodi:docname="image-seal.svg">
  <defs
     id="defs4" />
  <sodipodi:namedview
     id="base"
     pagecolor="#ffffff"
     bordercolor="#666666"
     borderopacity="1.0"
     inkscape:pageopacity="0.0"
     inkscape:pageshadow="2"
     inkscape:zoom="1.979899"
     inkscape:cx="118.51252"
     inkscape:cy="130.59117"
     inkscape:document-units="px"
     inkscape:current-layer="layer1"
     showgrid="false"
     inkscape:window-width="1215"
     inkscape:window-height="1000"
     inkscape:window-x="65"
     inkscape:window-y="24"
     inkscape:window-maximized="1" />
  <metadata
     id="metadata7">
    <rdf:RDF>
      <cc:Work
         rdf:about="">
        <dc:format>image/svg+xml</dc:format>
        <dc:type
           rdf:resource="http://purl.org/dc/dcmitype/StillImage" />
        <dc:title />
      </cc:Work>
    </rdf:RDF>
  </metadata>
  <g
     inkscape:label="Calque 1"
     inkscape:groupmode="layer"
     id="layer1"
     transform="translate(0,-752.36218)">
    <path
       style="fill:#000000"
       d="m 144.53643,1041.5433 c -2.60633,-3.1404 -2.60394,-25.0579 0.0123,-109.6909 0.18821,-6.0891 -0.44732,-14.61067 -1.41231,-18.93682 -2.72556,-12.21926 11.62519,-29.47586 17.11947,-20.58594 0.78228,1.26577 -1.44837,5.1721 -4.957,8.68075 -6.22029,6.22029 -6.99945,11.24226 -2.00264,12.90787 1.3616,0.45386 3.92057,-1.87469 5.6866,-5.17456 3.49031,-6.52167 12.22735,-10.07354 15.85525,-6.44562 1.38342,1.3834 -0.7586,5.09465 -5.49311,9.51734 -4.26846,3.98731 -7.7608,7.77422 -7.7608,8.41531 0,0.64109 3.32133,1.8299 7.38073,2.64179 11.26157,2.25232 9.906,9.39557 -1.60759,8.47131 l -8.98833,-0.72155 -3.20865,13.53135 c -4.11474,17.3524 -4.58137,67.22477 -0.61661,65.90317 1.54029,-0.5134 4.72589,-5.8645 7.07908,-11.89122 4.46466,-11.43426 11.14636,-15.49909 13.85866,-8.43096 0.86964,2.26628 0.58774,4.83907 -0.62643,5.71736 -1.21418,0.87831 -3.71802,4.91822 -5.56411,8.97772 -1.84608,4.0594 -4.17159,9.0414 -5.16782,11.0711 -0.99623,2.0297 -4.18926,4.0441 -7.09562,4.4765 -4.47978,0.6665 -5.28428,2.4235 -5.28428,11.541 0,11.6635 -2.71365,15.4385 -7.20647,10.025 z m 79.18523,0.5093 c -1.61476,-1.9715 -2.73561,-22.1323 -2.95022,-53.06459 -0.19043,-27.43677 -0.9721,-51.5164 -1.73723,-53.51032 -1.41162,-3.6786 -14.38247,-4.87824 -24.23702,-2.24159 -4.42796,1.1847 -4.83872,3.02843 -4.10354,18.41822 l 0.81692,17.10174 10.56798,0 c 12.16982,0 19.8476,5.85684 11.25349,8.58452 -2.80307,0.88964 -8.67368,1.25954 -13.0458,0.82194 -7.07653,-0.70823 -8.03477,-0.0529 -8.72779,5.97008 -0.76137,6.61714 3.11345,9.60176 5.02408,3.86984 0.5309,-1.59272 2.30489,-2.06791 3.94218,-1.05601 3.76036,2.32401 15.18455,24.67107 15.18455,29.70267 0,6.3479 -8.44912,4.1905 -11.72398,-2.9935 -1.69626,-3.7211 -5.26322,-9.5335 -7.92659,-12.9163 l -4.84246,-6.15067 -0.0546,16.30547 c -0.0388,11.5549 -1.14719,17.2121 -3.80452,19.4175 -2.0624,1.7116 -4.14821,2.6775 -4.63515,2.1464 -0.48691,-0.5311 -1.51005,-12.0368 -2.27359,-25.5681 -0.76356,-13.53139 -1.44554,-24.75707 -1.51548,-24.94598 -0.0699,-0.18895 -5.10917,-1.81454 -11.19827,-3.61243 -12.11365,-3.57673 -14.13553,-6.33774 -5.53555,-7.55913 4.34725,-0.61739 5.34909,-2.1065 4.66693,-6.93678 -0.47772,-3.38284 -1.75063,-6.70417 -2.82864,-7.38073 -1.07802,-0.67657 -2.34781,-5.10501 -2.82174,-9.84097 -1.43859,-14.375 5.73472,-10.88866 11.38969,5.53554 2.67887,7.78052 5.72344,14.1464 6.76568,14.1464 1.04222,0 1.89497,-17.02464 1.89497,-37.83254 0,-39.49173 -1.53524,-45.44422 -10.80344,-41.88766 -2.22554,0.854 -7.34785,0.18526 -11.38294,-1.48616 -5.73908,-2.37722 -7.33655,-4.581 -7.33655,-10.12115 0,-3.89523 -0.0829,-7.88492 -0.18451,-8.86593 -0.5439,-5.25755 4.86533,-2.27425 7.52684,4.1512 2.56891,6.20193 4.48515,7.47345 11.26277,7.47345 9.72622,0 11.7384,-2.44188 8.66762,-10.51863 -1.52885,-4.02119 -4.90176,-6.5343 -10.18903,-7.59177 -9.90238,-1.98048 -17.08369,-10.03866 -17.08369,-19.16971 0,-8.92908 2.73929,-8.90079 8.0462,0.0832 3.87838,6.56556 14.9844,11.39617 19.61752,8.53275 3.08816,-1.90862 2.08482,-15.70508 -1.21609,-16.72199 -1.69143,-0.52108 -6.14803,-1.62162 -9.90357,-2.44561 -12.0732,-2.649 -16.55056,-9.53509 -16.48936,-25.36041 0.0879,-22.70949 11.12876,-31.15885 38.11395,-29.16765 8.09962,0.59766 15.94108,1.1774 17.42547,1.28828 11.42759,0.85371 21.0671,29.37054 14.3312,42.39639 -3.79944,7.34724 -15.93228,14.39084 -24.78879,14.39084 -4.77386,0 -5.77262,1.277 -5.77262,7.38074 0,6.77585 0.69622,7.38073 8.49542,7.38073 7.3085,0 9.0727,-1.21651 12.62726,-8.7072 2.27252,-4.78896 5.36901,-8.3018 6.8811,-7.80633 3.57784,1.17238 4.94174,15.23079 1.98945,20.50624 -1.56915,2.80388 -1.05992,6.24863 1.61181,10.90387 5.8541,10.20017 0.58893,18.70926 -12.86796,20.79615 -19.10535,2.96285 -18.36039,2.05541 -18.4671,22.49488 -0.0943,18.02973 0.0723,18.56321 5.35197,17.14778 2.99703,-0.80348 7.38659,-1.47598 9.75458,-1.49448 7.44287,-0.0581 5.11642,-9.11051 -3.07531,-11.96613 -4.0594,-1.41514 -7.38073,-3.73765 -7.38073,-5.16118 0,-4.4912 13.82251,-2.80482 20.58029,2.51083 5.10425,4.015 6.48239,4.31931 6.48239,1.43134 0,-8.73531 -3.02826,-11.45088 -12.76947,-11.45088 -6.75638,0 -9.45196,-0.95138 -8.71342,-3.07531 0.65231,-1.87601 5.21451,-2.98032 11.69863,-2.83174 8.26541,0.18944 11.87451,1.69122 16.22853,6.75306 5.37595,6.24992 5.45738,6.98711 2.0421,18.48762 -2.10636,7.09291 -3.05084,17.06406 -2.3158,24.4483 0.68271,6.85862 1.47935,31.89604 1.77027,55.63873 0.52435,42.79036 -1.0951,52.81016 -7.30917,45.22296 z m -11.4331,-173.20235 c 2.03992,-4.88221 3.14215,-9.44355 2.44942,-10.13628 -1.63239,-1.6324 -16.47546,1.22677 -20.88886,4.02372 -2.25611,1.4298 -2.86404,4.32849 -1.79831,8.57467 1.29215,5.14828 3.08261,6.41467 9.06939,6.41467 6.24212,0 8.06464,-1.44856 11.16836,-8.87678 z m -6.9677,-49.07846 c 3.10204,-2.17276 5.46791,-6.41914 5.46791,-9.81416 l 0,-5.98427 -22.75726,1.51868 c -12.51649,0.83528 -23.78286,2.45771 -25.03635,3.60539 -3.03206,2.77615 4.95606,11.47036 11.76193,12.80162 12.18603,2.38365 25.44063,1.46111 30.56377,-2.12726 z m -9.65445,-22.35318 c 13.79971,-1.44235 15.12236,-2.0879 15.12236,-7.38074 0,-5.59617 -0.67285,-5.80013 -19.13455,-5.80013 -19.77679,0 -30.07033,3.83758 -30.07033,11.2106 0,4.00514 9.4097,4.54909 34.08252,1.97027 z m -80.15908,242.06949 c -1.31707,-1.6914 -3.9371,-6.6734 -5.82232,-11.0711 -1.8852,-4.3976 -4.26451,-7.9958 -5.28732,-7.9958 -1.02282,0 -1.85967,-1.7141 -1.85967,-3.8092 0,-2.095 -2.21422,-8.3921 -4.920496,-13.9934 -2.706263,-5.60138 -4.920486,-14.35031 -4.920486,-19.44208 0,-5.09177 -1.04702,-14.57104 -2.326705,-21.06503 -2.055348,-10.43024 -4.75527,-69.90454 -4.975532,-109.60197 -0.05713,-10.29536 -0.995482,-14.1464 -3.446955,-14.1464 -5.520117,0 -6.45994,14.92178 -5.036017,79.95795 1.309445,59.80758 0.327672,70.55793 -6.081924,66.59659 -4.128877,-2.55179 -3.805921,-149.19549 0.339999,-154.38109 5.536398,-6.9248 13.886521,-7.15843 18.242461,-0.51043 4.289061,6.54594 4.937551,13.29288 7.354523,76.51655 0.890376,23.29086 2.398422,41.86524 3.351212,41.27638 2.55467,-1.57886 5.47,-39.31685 6.14488,-79.54336 0.64392,-38.38043 2.62902,-44.43297 13.44701,-40.99948 11.22547,3.56282 12.80965,14.60233 16.27724,113.42985 1.44065,41.05903 1.22535,44.65656 -2.76422,46.18751 -2.37961,0.91314 -4.65455,1.33228 -5.05539,0.93144 -0.40084,-0.40085 -1.44945,-23.39946 -2.33022,-51.10798 -3.07678,-96.79467 -2.81267,-93.43343 -7.34167,-93.43343 -3.11744,0 -3.66414,4.30936 -3.35531,26.44761 0.56218,40.29881 -3.78665,91.95021 -8.54488,101.48831 -2.23164,4.47341 -4.05752,9.59632 -4.05752,11.38426 0,3.18505 11.0803,29.0766 18.94195,44.2619 5.61619,10.8481 0.71359,21.2092 -5.97264,12.6224 z m 79.34199,-78.02838 c -1.77866,-2.87796 7.73064,-22.22659 10.92375,-22.22659 5.08833,0 5.01172,5.48775 -0.20617,14.77183 -5.61753,9.99504 -8.08626,11.71222 -10.71751,7.45476 z M 65.630903,810.06615 c -2.554184,-3.07759 -1.516903,-5.11362 6.211932,-12.19294 5.102962,-4.67412 12.989844,-10.25976 17.526403,-12.4125 7.36049,-3.49278 8.248286,-4.98921 8.248286,-13.90284 0,-8.09767 0.736769,-9.70603 3.891596,-8.49542 2.14037,0.82135 4.35458,1.49335 4.92048,1.49335 0.56589,0 1.02891,3.22291 1.02891,7.16203 0,7.13454 0.64809,7.84981 22.10171,24.3932 8.18572,6.31221 9.49836,11.40565 3.52963,13.69606 -5.12562,1.96689 -5.07797,1.97535 -8.91536,-1.58196 -6.95752,-6.44971 -19.11496,-14.1464 -22.34518,-14.1464 -3.641135,0 -27.057537,14.65828 -28.404182,17.78055 -1.282053,2.97252 -4.442538,2.24542 -7.794225,-1.79313 z"
       id="path3028"
       inkscape:connector-curvature="0" />
  </g>
</svg>
