<?xml version="1.0" standalone="no"?>
<!DOCTYPE svg PUBLIC "-//W3C//DTD SVG 20010904//EN"
 "http://www.w3.org/TR/2001/REC-SVG-20010904/DTD/svg10.dtd">
<svg version="1.0" xmlns="http://www.w3.org/2000/svg"
 width="468pt" height="468pt" viewBox="0 0 468 468"
 preserveAspectRatio="xMidYMid meet">
<metadata>
Created by potrace 1.8, written by Peter Selinger 2001-2007
</metadata>
<g transform="translate(0,468) scale(0.349254,-0.349254)"
fill="#000000" stroke="none">
<path d="M437 1147 c-18 -6 -27 -15 -25 -26 3 -17 47 -18 303 -11 99 3 162 -7
169 -27 4 -8 0 -26 -6 -40 l-13 -25 -190 -3 c-104 -2 -197 -6 -206 -9 -39 -17
-59 -132 -29 -169 17 -21 24 -22 161 -19 78 2 146 5 150 8 4 2 32 1 62 -2 37
-4 57 -12 66 -26 15 -24 20 -106 30 -464 4 -160 11 -296 15 -302 9 -15 33 -15
42 0 4 7 7 66 5 132 -5 260 -10 407 -15 414 -2 4 -6 60 -7 125 l-2 116 -33 32
-32 31 -175 -7 c-95 -4 -188 -4 -205 -1 -26 6 -30 11 -26 34 3 15 12 33 21 40
16 12 106 15 309 12 78 -1 82 0 113 30 26 26 31 39 31 77 0 37 -5 50 -27 70
-28 24 -29 24 -243 22 -118 -1 -228 -6 -243 -12z"/>
<path d="M505 706 c-79 -30 -99 -65 -99 -176 -1 -217 3 -254 27 -280 12 -14
32 -31 44 -37 30 -17 225 -17 272 -1 47 16 81 55 82 93 2 68 2 145 1 240 -2
119 -17 144 -94 163 -58 15 -193 14 -233 -2z m129 -42 c14 -5 13 -9 -2 -32
-22 -35 -54 -61 -67 -56 -9 4 -55 68 -55 78 0 3 19 7 43 9 23 2 47 4 54 5 6 1
18 -1 27 -4z m136 -19 c0 -20 -19 -52 -52 -90 -16 -16 -28 -34 -28 -38 0 -4
-8 -17 -18 -28 -18 -19 -19 -19 -40 0 -12 10 -22 23 -22 29 0 10 37 56 97 119
25 26 63 31 63 8z m-259 -80 c25 -43 24 -50 -21 -97 l-40 -43 0 65 c0 113 23
141 61 75z m269 -139 c0 -52 -4 -97 -9 -100 -15 -9 -86 94 -75 109 5 6 20 28
34 48 41 60 50 49 50 -57z m-170 -6 c0 -12 -75 -126 -98 -149 -12 -12 -17 -10
-38 12 -36 39 -30 63 33 134 l56 65 24 -26 c12 -14 23 -30 23 -36z m64 -52
c17 -18 66 -91 66 -99 0 -16 -153 -30 -167 -15 -5 5 74 126 83 126 3 0 11 -6
18 -12z"/>
</g>
</svg>
