<?xml version="1.0" encoding="UTF-8" standalone="no"?>
<!-- Created with Inkscape (http://www.inkscape.org/) -->

<svg
   xmlns:dc="http://purl.org/dc/elements/1.1/"
   xmlns:cc="http://creativecommons.org/ns#"
   xmlns:rdf="http://www.w3.org/1999/02/22-rdf-syntax-ns#"
   xmlns:svg="http://www.w3.org/2000/svg"
   xmlns="http://www.w3.org/2000/svg"
   xmlns:sodipodi="http://sodipodi.sourceforge.net/DTD/sodipodi-0.dtd"
   xmlns:inkscape="http://www.inkscape.org/namespaces/inkscape"
   width="300"
   height="300"
   id="svg2"
   version="1.1"
   inkscape:version="0.48.4 r9939"
   sodipodi:docname="image-seal.svg">
  <defs
     id="defs4" />
  <sodipodi:namedview
     id="base"
     pagecolor="#ffffff"
     bordercolor="#666666"
     borderopacity="1.0"
     inkscape:pageopacity="0.0"
     inkscape:pageshadow="2"
     inkscape:zoom="2.0018437"
     inkscape:cx="145.03351"
     inkscape:cy="130.6666"
     inkscape:document-units="px"
     inkscape:current-layer="layer1"
     showgrid="false"
     inkscape:window-width="1215"
     inkscape:window-height="1000"
     inkscape:window-x="65"
     inkscape:window-y="24"
     inkscape:window-maximized="1"
     fit-margin-top="10"
     fit-margin-left="10"
     fit-margin-right="10"
     fit-margin-bottom="10" />
  <metadata
     id="metadata7">
    <rdf:RDF>
      <cc:Work
         rdf:about="">
        <dc:format>image/svg+xml</dc:format>
        <dc:type
           rdf:resource="http://purl.org/dc/dcmitype/StillImage" />
        <dc:title />
      </cc:Work>
    </rdf:RDF>
  </metadata>
  <g
     inkscape:label="Calque 1"
     inkscape:groupmode="layer"
     id="layer1"
     transform="translate(0,-752.36218)">
    <path
       style="fill:#000000"
       d="m 237.19828,1025.5232 c -14.33117,-23.1884 -18.53211,-66.42636 -7.13803,-73.4683 10.23846,-6.32771 7.77504,-29.69889 -3.1304,-29.69889 -16.19751,0 -29.83788,36.20935 -30.33221,80.51929 -0.32734,29.3407 -2.1331,37.6917 -6.13592,28.3767 -14.34787,-33.38926 -2.37651,-94.37389 22.5903,-115.08003 10.73741,-8.90512 10.52661,-10.16943 -3.45326,-20.71445 -20.11466,-15.17257 -26.552,-83.53937 -9.47394,-100.61742 15.58809,-15.58803 41.09053,-14.03121 50.24122,3.06704 11.3139,21.14026 4.32575,84.79384 -10.49908,95.63401 -11.65134,8.51969 -11.65181,9.23728 -0.0132,22.09499 11.6386,12.86054 11.63035,14.16815 -0.25607,40.52744 l -12.28268,27.23811 17.15679,32.17481 c 19.38084,36.3458 13.77989,44.0078 -7.27101,9.9467 z m -1.85823,-144.08567 c 12.83791,-12.83791 9.21135,-18.47932 -11.87956,-18.47932 -21.0909,0 -24.71746,5.64141 -11.87956,18.47932 9.92511,9.9251 13.83401,9.9251 23.75912,0 z m 7.91971,-41.57846 c 0,-6.59975 -6.59976,-9.89963 -19.79927,-9.89963 -13.19951,0 -19.79926,3.29988 -19.79926,9.89963 0,6.59976 6.59975,9.89963 19.79926,9.89963 13.19951,0 19.79927,-3.29987 19.79927,-9.89963 z m -1.64994,-31.34883 c -3.57443,-10.72322 -32.72423,-10.72322 -36.29865,0 -1.81394,5.44189 4.36316,8.24969 18.14932,8.24969 13.78617,0 19.96327,-2.8078 18.14933,-8.24969 z M 74.117411,1026.7893 c 8.1144,-34.48929 17.12089,-141.6666 17.23361,-205.07955 0.0686,-38.42232 2.77335,-64.34761 6.71413,-64.34761 3.629869,0 6.599759,11.51591 6.599759,25.59094 0,14.07497 4.16642,29.04869 9.25879,33.27498 6.7307,5.58596 10.2027,31.48551 12.71601,94.85458 1.90153,47.94378 5.1525,97.56516 7.22449,110.26966 l 3.76727,23.0992 -11.30604,-23.0992 c -8.24969,-16.8546 -12.25963,-47.18492 -14.83334,-112.1958 l -3.52731,-89.09669 -5.33286,62.69767 c -7.480099,87.94213 -17.282049,147.35402 -25.587909,155.09422 -4.97932,4.6402 -5.84824,1.3556 -2.9266,-11.0624 z m 84.813389,-2.1371 C 143.85867,988.1716 131.063,901.98303 131.16497,837.62855 c 0.16499,-104.19184 11.0662,-92.11212 14.79394,16.3936 2.22716,64.82688 7.11487,109.92696 14.4299,133.14767 12.76037,40.50648 11.64441,69.19548 -1.45801,37.48238 z M 61.598341,909.83832 c 1.90739,-23.21913 3.46804,-58.11533 3.46804,-77.54712 0,-22.17115 2.81935,-35.33053 7.56939,-35.33053 9.52252,0 3.57746,114.15378 -7.21789,138.59485 -5.93516,13.43729 -6.64397,8.66455 -3.81954,-25.7172 z m 105.609799,12.26782 c -7.73115,-12.50931 -11.93196,-89.39883 -5.99488,-109.72818 4.18543,-14.3315 6.49356,-3.25309 9.85059,47.28038 4.55311,68.5368 4.13112,75.37078 -3.85571,62.4478 z"
       id="path3312"
       inkscape:connector-curvature="0" />
  </g>
</svg>
