<?xml version="1.0" encoding="UTF-8" standalone="no"?>
<!-- Created with Inkscape (http://www.inkscape.org/) -->

<svg
   xmlns:dc="http://purl.org/dc/elements/1.1/"
   xmlns:cc="http://creativecommons.org/ns#"
   xmlns:rdf="http://www.w3.org/1999/02/22-rdf-syntax-ns#"
   xmlns:svg="http://www.w3.org/2000/svg"
   xmlns="http://www.w3.org/2000/svg"
   xmlns:sodipodi="http://sodipodi.sourceforge.net/DTD/sodipodi-0.dtd"
   xmlns:inkscape="http://www.inkscape.org/namespaces/inkscape"
   width="300"
   height="300"
   id="svg2"
   version="1.1"
   inkscape:version="0.48.4 r9939"
   sodipodi:docname="image-seal.svg">
  <defs
     id="defs4" />
  <sodipodi:namedview
     id="base"
     pagecolor="#ffffff"
     bordercolor="#666666"
     borderopacity="1.0"
     inkscape:pageopacity="0.0"
     inkscape:pageshadow="2"
     inkscape:zoom="1.979899"
     inkscape:cx="200.43343"
     inkscape:cy="122.13442"
     inkscape:document-units="px"
     inkscape:current-layer="layer1"
     showgrid="false"
     inkscape:window-width="1215"
     inkscape:window-height="1000"
     inkscape:window-x="65"
     inkscape:window-y="24"
     inkscape:window-maximized="1" />
  <metadata
     id="metadata7">
    <rdf:RDF>
      <cc:Work
         rdf:about="">
        <dc:format>image/svg+xml</dc:format>
        <dc:type
           rdf:resource="http://purl.org/dc/dcmitype/StillImage" />
        <dc:title />
      </cc:Work>
    </rdf:RDF>
  </metadata>
  <g
     inkscape:label="Calque 1"
     inkscape:groupmode="layer"
     id="layer1"
     transform="translate(0,-752.36218)">
    <path
       style="fill:#000000"
       d="m 216.70449,1038.3211 c -10.88786,-9.1053 -19.37083,-17.5076 -25.60156,-25.3582 -4.76824,-6.0079 -7.33464,-20.72703 -5.26047,-30.17056 1.95635,-8.90726 19.23896,-28.17818 25.27082,-28.17818 1.98789,0 5.819,-4.64596 8.5136,-10.32435 4.00077,-8.43103 4.55277,-14.47882 3.00995,-32.97822 -2.19994,-26.3792 -4.00658,-28.2984 -26.67491,-28.33713 -8.69391,-0.0139 -15.65425,-1.37534 -16.27481,-3.18114 -1.39502,-4.05931 8.24857,-6.59442 25.26964,-6.64291 17.67627,-0.0503 27.27384,8.64697 27.27384,24.71538 0,6.02643 0.80591,18.6677 1.79091,28.09167 1.9176,18.3468 1.93367,18.31844 -21.98814,38.85109 -10.03769,8.61559 -14.75958,17.24098 -14.7816,27.00124 -0.0197,8.80921 2.22501,12.80321 13.96458,24.84511 7.69352,7.8917 16.92576,15.5026 20.51613,16.9131 4.05063,1.5914 6.17144,4.4157 5.58857,7.4424 -1.54978,8.0473 -8.92898,7.0847 -20.61655,-2.6893 z m -81.06379,-9.7982 c -0.97608,-0.9761 -1.77472,-12.7526 -1.77472,-26.17 0,-26.56595 -1.28549,-29.38284 -19.08538,-41.82194 l -9.24894,-6.46342 -15.034158,9.11167 c -14.166382,8.58571 -15.163997,9.93981 -17.283698,23.45924 -1.237258,7.89116 -1.926063,17.41205 -1.530667,21.15735 1.096064,10.3826 -2.090808,19.8892 -6.667376,19.8892 -3.393045,0 -3.884897,-4.5011 -2.840714,-25.9963 0.694566,-14.29805 1.478589,-49.19286 1.742289,-77.54407 0.573214,-61.62521 2.546183,-73.54416 12.983461,-78.43414 4.124053,-1.93216 9.865847,-3.51303 12.759539,-3.51303 6.906151,0 13.291054,-6.59054 13.291054,-13.7191 0,-12.95597 11.99474,-25.62673 24.25946,-25.62673 6.08332,0 7.56478,-11.19915 2.25722,-17.06391 -8.88944,-9.82274 -18.44351,-6.91453 -35.284499,10.74046 -13.657925,14.31806 -24.801013,23.18595 -29.134676,23.18595 -5.215882,0 0.640945,-9.41743 12.608747,-20.27416 15.098962,-13.69716 16.916347,-17.6671 9.03172,-19.72898 -6.706691,-1.75385 -13.246621,-21.82605 -7.111335,-21.82605 2.312578,0 6.30444,2.51904 8.870801,5.59781 3.331106,3.99626 10.559235,6.41462 25.263732,8.45262 22.34079,3.09639 25.98196,5.30786 30.60075,18.5854 2.62366,7.54233 2.19418,9.73492 -3.11776,15.91683 -3.38833,3.94324 -9.89217,7.59511 -14.45297,8.11522 -15.87116,1.80998 -20.50747,27.64464 -4.96114,27.64464 7.82726,0 17.13629,8.82612 19.07281,18.08338 0.6679,3.19283 1.87542,38.05472 2.68333,77.47082 0.80794,39.41609 2.13927,75.09094 2.95851,79.27734 1.09203,5.5807 0.0793,8.3664 -3.79558,10.4402 -2.9068,1.5557 -6.08369,2.0299 -7.05981,1.0537 z M 90.676704,952.50635 c 5.051445,-5.87346 6.658153,-11.10172 6.693454,-21.78074 0.0449,-13.59427 3.545252,-24.05093 6.920902,-20.67526 0.9049,0.9049 2.41749,8.16531 3.36128,16.13422 1.31696,11.11961 3.70813,16.43658 10.28274,22.86447 10.25661,10.02773 13.0577,10.45958 13.31097,2.05209 0.10492,-3.47789 0.49995,-13.13469 0.87821,-21.4596 0.47652,-10.48776 -0.5516,-16.09792 -3.3478,-18.26772 -2.21956,-1.72234 -8.33019,-7.13964 -13.57918,-12.03846 l -9.54364,-8.90688 -9.079793,7.49876 c -19.666308,16.24199 -19.237411,15.41632 -20.525709,39.51275 -1.054918,19.73181 -0.60053,22.79501 3.381436,22.79501 2.530074,0 7.59127,-3.47789 11.24713,-7.72864 z m -0.491722,-60.75156 c 4.975768,-4.97578 6.893315,-10.45279 7.612869,-21.74457 0.742697,-11.65507 2.0795,-15.30876 5.868089,-16.03837 4.13825,-0.79695 4.90628,1.24799 4.90628,13.06346 0,12.1923 1.121,14.95159 8.64687,21.28422 4.75579,4.00174 9.81455,7.27586 11.24167,7.27586 1.42717,0 2.59481,-8.22047 2.59481,-18.26771 0,-19.72196 -5.54693,-29.50938 -16.72418,-29.50938 -14.841958,0 -32.567113,6.04326 -35.302432,12.03609 -3.426918,7.50811 -1.955778,38.55143 1.826935,38.55143 1.472943,0 5.671023,-2.99296 9.329089,-6.65103 z m 92.118228,40.97654 c -17.82164,-1.37949 -21.64816,-8.82233 -21.1178,-41.07536 0.46871,-28.50574 0.85376,-31.02973 6.25888,-41.02725 5.0918,-9.41802 6.99506,-10.39625 24.47706,-12.5805 16.3402,-2.04157 20.66916,-6.29989 20.59329,-20.25715 -0.0619,-11.34828 -2.75134,-14.18707 -15.42071,-16.27611 -26.47938,-4.36615 -26.69253,-4.45678 -26.69253,-11.35057 0,-3.64087 -1.19614,-9.76586 -2.65809,-13.61107 -1.96908,-5.1791 -1.61691,-7.85541 1.35864,-10.32489 3.26753,-2.71183 4.58051,-1.85067 7.03957,4.61711 1.66259,4.3729 2.4346,10.2002 1.71565,12.94958 -1.84033,7.03727 1.69985,8.31185 14.8683,5.3531 9.73481,-2.18725 12.80249,-1.65505 20.55556,3.56628 7.26036,4.88948 9.47724,8.68649 10.90423,18.67625 3.55039,24.85502 -3.48114,36.42755 -22.13366,36.42755 -5.09046,0 -14.38918,1.58086 -20.66382,3.51302 l -11.40847,3.51302 0.91366,31.7247 c 1.05011,36.46401 1.65152,37.3734 23.2421,35.14506 11.18785,-1.1547 15.22637,-0.46056 18.20555,3.12915 2.10565,2.53715 3.33206,5.03575 2.72535,5.55248 -2.22209,1.89255 -21.10034,3.23835 -32.76276,2.3356 z"
       id="path3067"
       inkscape:connector-curvature="0" />
  </g>
</svg>
