<?xml version="1.0" encoding="UTF-8" standalone="no"?>
<svg
   xmlns:dc="http://purl.org/dc/elements/1.1/"
   xmlns:cc="http://creativecommons.org/ns#"
   xmlns:rdf="http://www.w3.org/1999/02/22-rdf-syntax-ns#"
   xmlns:svg="http://www.w3.org/2000/svg"
   xmlns="http://www.w3.org/2000/svg"
   viewBox="0 0 300 300"
   height="300"
   width="300"
   id="svg410"
   version="1.1">
  <metadata
     id="metadata416">
    <rdf:RDF>
      <cc:Work
         rdf:about="">
        <dc:format>image/svg+xml</dc:format>
        <dc:type
           rdf:resource="http://purl.org/dc/dcmitype/StillImage" />
        <dc:title></dc:title>
      </cc:Work>
    </rdf:RDF>
  </metadata>
  <defs
     id="defs414" />
  <path
     id="path420"
     d="m 59.037232,272.23194 c 1.833234,-27.99655 3.789297,-47.95692 3.984047,-77.66729 0.512808,-78.23237 -0.431591,-76.93639 4.373053,-87.05059 6.693496,-14.090404 17.42939,-15.401684 30.410629,-16.543317 1.938803,-22.487393 10.186179,-22.439315 27.751619,-29.409865 10.06526,-3.994223 9.94639,-18.656106 2.22353,-20.618666 -8.54212,-2.170752 -12.2365,-1.908046 -23.78175,-2.729945 -2.66091,18.555376 -11.803348,26.630405 -27.04002,30.792354 -7.249556,1.980241 -14.745213,2.663586 -20.080703,1.530699 -4.508764,-0.957348 -6.848199,-3.393527 -4.650967,-6.675745 0.972577,-1.452832 6.296,-2.623006 12.13792,-3.475646 14.92439,-2.178245 26.461853,-9.854807 27.75431,-23.772077 -9.011559,-3.56597 -26.336706,-9.939253 -23.674854,-18.959951 1.808908,-6.130172 10.044304,-0.173359 17.346172,3.256815 10.67209,5.013392 12.69568,6.230285 29.852762,7.719999 8.82546,0.766297 20.34,3.300163 24.01275,7.636149 5.31489,6.274663 5.31492,17.181512 1.77811,24.60516 -3.42297,7.184723 -10.78963,11.219014 -19.57708,13.666404 -8.13365,2.265305 -13.8916,8.896114 -13.27994,16.33534 13.09743,2.197288 24.08454,3.981848 31.46387,17.488232 3.11631,5.7038 3.58784,13.06717 3.58857,35.47479 9.5e-4,31.96214 1.69622,71.51567 3.12947,107.53471 0.35568,8.93846 1.99438,21.08745 0.71746,26.82699 -0.69693,4.3611 -0.5736,4.88356 -4.69255,5.59298 -4.68314,0.8066 -5.00594,-1.78588 -5.30928,-5.11918 -1.56485,-17.19527 -3.23981,-37.13447 -4.12551,-59.69055 -12.32594,-5.60671 -21.27123,-12.66705 -31.96993,-20.54034 -8.778119,8.36606 -17.638412,13.96135 -27.626662,20.62731 -0.835662,25.5971 -2.021205,34.69081 -4.0219,56.99483 -0.361078,4.02535 -3.568256,11.3212 -7.666676,8.1695 -2.742266,-2.24343 -2.981879,-9.44591 -3.02645,-11.9991 z m 28.233619,-75.51865 c 7.720371,-6.15572 8.431945,-13.90882 8.381581,-20.23945 0.08237,-4.1849 -0.501679,-15.73324 4.712178,-15.48747 7.64151,0.3602 7.29972,12.34062 7.1527,15.69544 l -0.42166,9.62206 c 4.50819,7.15135 18.18429,17.65461 25.99526,18.67945 l -1.28037,-47.89633 c -10.32079,-3.735 -20.14105,-7.88682 -28.25135,-16.42281 -8.513794,7.84171 -19.422218,10.70902 -29.346832,13.78734 v 24.99789 l -0.313122,25.85384 c 4.383772,-2.51612 9.032425,-5.13018 13.371615,-8.58996 z M 127.53683,110.8894 c -4.04567,-6.8498 -11.0214,-7.03046 -17.5727,-7.54008 -0.27074,10.79118 -0.84728,22.49504 2.98613,29.30787 3.52725,6.26872 12.84769,9.79184 18.8848,10.97429 0.18211,-10.1311 -0.31317,-25.9949 -4.29823,-32.74208 z m -43.937078,28.25197 c 5.625814,-1.80643 11.820408,-6.04437 12.528606,-9.02295 2.086656,-8.77616 1.962471,-18.00232 1.286537,-26.97771 -7.57238,0.3888 -14.730916,1.0081 -18.138738,7.04148 -5.14006,9.10024 -5.101105,18.75633 -4.756087,31.43395 2.96357,-0.53608 6.502928,-1.64739 9.079682,-2.47477 z m 108.440488,129.50184 0.60425,-69.18543 -25.07189,0.144 c -8.31289,0.0478 -8.21102,0.52522 -9.90713,-1.36125 -2.38832,-2.65637 -3.20201,-7.44695 -0.52673,-8.9266 2.76864,-1.53128 12.43389,-1.91653 18.70197,-1.96333 l 16.77258,-0.12525 0.007,-10.81795 c -17.6756,-2.27755 -24.46275,-6.6875 -28.69558,-20.00059 -1.60186,-5.03819 -2.14758,-19.8686 -1.11588,-27.8352 0.9214,-7.11482 1.99941,-8.6504 6.27109,-8.59112 5.93354,0.0823 6.15493,19.20112 6.1647,23.2991 0,12.59943 1.14324,15.69467 6.87289,18.60775 2.76415,1.40535 6.01382,2.41722 10.48238,2.71427 l 0.1993,-21.14102 c 0.0205,-14.61659 0.25971,-21.26923 0.9228,-23.4801 2.87098,-9.57232 7.53145,-7.70754 9.9142,-1.54131 1.21993,3.15703 2.00266,3.93267 2.09372,24.08565 l 0.0991,21.92665 c 4.08119,-0.0987 7.23392,-0.56944 9.3453,-2.21006 8.44258,-6.56023 8.0111,-19.07164 8.16269,-24.7678 0.42911,-16.35444 0.80667,-17.57044 5.79105,-17.49313 8.21395,0.1274 5.16138,26.18779 4.82184,29.73767 -1.7498,17.86105 -12.17317,26.42649 -28.19134,26.66644 l -0.0448,10.42529 17.84758,0.15864 c 16.23098,0.14427 17.4921,0.1132 20.06859,1.46426 2.91001,1.52597 5.38646,4.0134 4.92266,6.76279 -0.47162,2.79572 -3.84881,4.88644 -6.98453,4.8541 l -35.79352,-0.34674 c 0,0 -0.28627,14.80923 -0.51477,39.17857 -0.19318,20.60149 -0.56224,38.43791 -0.82012,39.63651 -0.67346,3.13005 -2.71027,5.07232 -5.37894,5.03729 -7.20389,-0.0946 -7.0335,-11.82887 -7.02011,-14.9121 z M 149.55033,111.60287 c 0.39802,-2.65388 1.81792,-3.54887 9.57615,-12.241084 9.96096,-11.160098 18.80464,-20.288883 23.16314,-33.826203 -6.0925,-1.139874 -13.46684,-4.16147 -17.39926,-9.169595 -7.58865,-9.664526 -3.14581,-23.501992 5.11262,-27.518642 7.72908,-3.759188 14.97981,-4.539978 26.96374,-5.929482 10.2543,-1.188951 27.73414,-2.550054 32.64424,-1.708182 4.51739,0.77453 6.41801,2.70598 5.90576,6.142245 -0.59566,3.995875 -22.74491,5.341686 -25.60756,5.615706 -30.24177,2.894809 -35.96228,4.322067 -36.94233,9.222309 -0.7038,3.518989 0.23796,7.29706 4.48498,9.440954 8.72751,4.405633 18.85617,4.361088 32.76446,5.80978 14.4408,1.50416 22.41067,5.15844 22.30841,18.553277 -0.055,7.205906 -3.19705,17.392593 -9.17329,30.001247 -3.95882,8.35227 -5.25461,10.02209 -8.37138,9.85101 -8.54088,-0.46884 1.47527,-21.820084 1.92695,-22.781124 3.5223,-7.472902 4.51147,-10.308236 4.84598,-13.890438 0.75533,-8.088611 -1.62345,-9.637819 -17.07104,-11.11773 -5.73224,-0.549156 -10.49673,-0.920981 -10.58774,-0.826279 -7.03308,13.084811 -15.5923,28.910097 -24.32063,37.650201 -8.88605,8.89803 -12.02521,10.96235 -16.43436,10.97589 -4.12566,0.0127 -4.32366,-0.68788 -3.78884,-4.25386 z"
     style="fill:#000000;stroke-width:0.68728912" />
</svg>
