<?xml version="1.0" encoding="UTF-8" standalone="no"?>
<!-- Created with Inkscape (http://www.inkscape.org/) -->

<svg
   xmlns:dc="http://purl.org/dc/elements/1.1/"
   xmlns:cc="http://creativecommons.org/ns#"
   xmlns:rdf="http://www.w3.org/1999/02/22-rdf-syntax-ns#"
   xmlns:svg="http://www.w3.org/2000/svg"
   xmlns="http://www.w3.org/2000/svg"
   xmlns:sodipodi="http://sodipodi.sourceforge.net/DTD/sodipodi-0.dtd"
   xmlns:inkscape="http://www.inkscape.org/namespaces/inkscape"
   width="300"
   height="300"
   id="svg2"
   version="1.1"
   inkscape:version="0.48.4 r9939"
   sodipodi:docname="image-seal.svg">
  <defs
     id="defs4" />
  <sodipodi:namedview
     id="base"
     pagecolor="#ffffff"
     bordercolor="#666666"
     borderopacity="1.0"
     inkscape:pageopacity="0.0"
     inkscape:pageshadow="2"
     inkscape:zoom="1.979899"
     inkscape:cx="200.43343"
     inkscape:cy="134.48103"
     inkscape:document-units="px"
     inkscape:current-layer="layer1"
     showgrid="false"
     inkscape:window-width="1215"
     inkscape:window-height="1000"
     inkscape:window-x="65"
     inkscape:window-y="24"
     inkscape:window-maximized="1" />
  <metadata
     id="metadata7">
    <rdf:RDF>
      <cc:Work
         rdf:about="">
        <dc:format>image/svg+xml</dc:format>
        <dc:type
           rdf:resource="http://purl.org/dc/dcmitype/StillImage" />
        <dc:title />
      </cc:Work>
    </rdf:RDF>
  </metadata>
  <g
     inkscape:label="Calque 1"
     inkscape:groupmode="layer"
     id="layer1"
     transform="translate(0,-752.36218)">
    <path
       style="fill:#000000"
       d="m 69.387981,1038.2107 c -0.63112,-1.0885 0.57531,-10.8851 2.680911,-21.7701 2.306095,-11.9213 4.322293,-43.40003 5.070443,-79.16385 0.729496,-34.87278 2.426769,-61.7511 4.11309,-65.13617 1.579082,-3.16977 5.977823,-7.04479 9.774993,-8.61112 13.380732,-5.5196 116.410842,-3.8536 122.224512,1.97638 2.52476,2.53179 3.47847,15.36498 3.62793,48.8177 0.20319,45.48118 1.78973,66.40149 6.34345,83.6455 2.82665,10.70396 5.11849,21.52666 7.12472,33.64466 1.17843,7.1179 0.58294,8.5761 -3.50229,8.5761 -11.88558,0 -21.97863,-55.27085 -22.2014,-121.57761 -0.0873,-25.97966 -1.22667,-41.67803 -3.26151,-44.93634 -2.89875,-4.64163 -6.91592,-5.00777 -54.94544,-5.00777 -42.48206,0 -52.400822,0.70219 -55.052602,3.8974 -2.30042,2.77184 -3.44154,21.6334 -3.9513,65.31017 -0.72034,61.72273 -2.715059,89.13725 -7.108415,97.69625 -2.407795,4.6907 -8.846664,6.2442 -10.937092,2.6388 z m 39.577039,-4.3225 c -3.25883,-8.4923 3.21657,-105.14431 7.31921,-109.24698 0.91294,-0.91291 7.21887,-2.30264 14.01318,-3.08825 9.41654,-1.0888 13.06715,-2.86393 15.35597,-7.46693 4.17135,-8.38886 11.71514,-13.56938 19.90379,-13.6685 8.92023,-0.10794 15.60021,-7.28709 10.04893,-10.79979 -2.08369,-1.31851 -4.97597,-2.55085 -6.42731,-2.73858 -14.92932,-1.93086 -19.25382,-1.60823 -24.49744,1.82752 -3.34636,2.1926 -7.19741,6.9144 -8.55796,10.49285 -2.63164,6.92178 -8.18975,9.8068 -24.71759,12.83004 -9.34294,1.70902 -9.89843,1.50322 -6.12578,-2.26947 2.28191,-2.28189 5.23875,-4.14889 6.57077,-4.14889 1.33203,0 6.16668,-1.86817 10.74366,-4.15147 10.95137,-5.46325 11.66011,-14.93798 1.06512,-14.23936 -12.08145,0.79664 -16.87889,0.0407 -15.35793,-2.4204 2.26188,-3.65983 16.84194,-5.61348 43.44173,-5.82091 19.19919,-0.14964 25.48797,0.7435 29.25853,4.1558 6.83758,6.18793 8.10213,13.64071 3.0637,18.05608 -4.24456,3.7197 -7.51246,4.9274 -22.1435,8.18347 -12.23886,2.72368 -7.79099,12.06955 5.74414,12.06955 5.39937,0 14.09918,8.77228 15.17327,15.29966 0.40649,2.47023 1.3926,21.70944 2.19139,42.75383 0.79876,21.04443 2.0682,40.26633 2.82101,42.71533 1.63766,5.3279 -4.07472,15.3382 -8.7527,15.3382 -1.89772,0 -3.51707,-3.679 -3.77481,-8.5761 -0.2483,-4.7169 -0.57153,-10.8426 -0.7184,-13.6127 -0.14699,-2.7702 -3.7948,-7.5201 -8.10646,-10.5552 -4.31166,-3.0352 -9.76808,-7.59663 -12.12537,-10.13646 -5.61499,-6.04981 -10.97883,-5.83994 -16.86093,0.65971 -2.62688,2.90267 -5.86437,5.27755 -7.19445,5.27755 -4.8238,0 -9.61361,7.3784 -11.31682,17.4327 -2.55678,15.0932 -4.01769,19.5105 -6.45277,19.5105 -1.19826,0 -2.81114,-1.6483 -3.58418,-3.6628 z m 23.32373,-45.01654 c 4.95238,-3.77735 9.1364,-9.80244 10.07858,-14.51338 1.95758,-9.78778 9.65929,-11.13719 9.65929,-1.69236 0,3.86515 3.18666,9.04382 8.11884,13.19398 9.42653,7.9319 11.82993,8.38716 14.0286,2.65753 3.8839,-10.12129 -1.1914,-24.85273 -8.56231,-24.85273 -1.64189,0 -4.46838,-2.37492 -6.28113,-5.27759 -4.64998,-7.44578 -13.04716,-6.56575 -26.96268,2.82575 -11.53005,7.78155 -12.00686,8.61986 -12.00686,21.11036 0,7.15386 0.7785,13.00703 1.73003,13.00703 0.95149,0 5.54044,-2.90637 10.19764,-6.45859 z m -2.81604,-33.54692 c 3.69663,-1.6843 6.72115,-4.05921 6.72115,-5.27759 0,-1.21836 1.65127,-2.21522 3.66948,-2.21522 2.23518,0 4.09464,-3.64156 4.75713,-9.31644 1.29433,-11.08674 0.77166,-11.79391 -8.71677,-11.79391 -9.38436,0 -15.54262,8.59695 -15.54262,21.69751 0,11.19757 -0.11562,11.1099 9.11163,6.90565 z m 44.5526,-14.53467 c -2.17471,-9.25248 -3.20878,-10.17978 -12.18751,-10.92931 -8.80994,-0.7354 -9.81118,-0.17654 -9.81118,5.47733 0,9.61339 16.47162,22.78324 22.08299,17.6564 1.29581,-1.18392 1.25918,-6.48855 -0.0845,-12.20442 z m -17.59696,-97.47276 -7.41892,-6.87922 -5.91816,5.55983 c -6.16094,5.78787 -14.8138,7.49407 -14.8138,2.92101 0,-1.45133 1.0509,-2.63879 2.3353,-2.63879 3.62974,0 11.69445,-13.6542 9.15792,-15.50504 -1.24161,-0.90592 -4.82712,-5.3202 -7.96787,-9.80952 l -5.71043,-8.16241 7.52307,-8.81455 c 8.21665,-9.62717 7.26917,-16.55633 -2.6964,-19.71927 -6.02166,-1.9112 -7.21977,-9.23667 -1.51069,-9.23667 2.07336,0 5.5509,1.78118 7.7279,3.95819 6.07659,6.07659 12.94661,4.70069 19.79041,-3.96347 3.4207,-4.33058 7.27993,-7.21837 8.57608,-6.41732 4.02123,2.48525 2.6014,10.4423 -2.92096,16.36985 -6.90364,7.41019 -6.70913,8.80424 2.45334,17.58242 8.62717,8.26534 7.95969,14.8332 -2.57844,25.37133 l -5.61346,5.61345 8.14686,6.74922 c 4.48078,3.71207 8.14688,8.35817 8.14688,10.32469 0,5.81777 -8.73391,4.09085 -16.70863,-3.30373 z m -0.53249,-27.32685 c 9.0209,-9.96797 -1.54454,-19.79022 -13.1254,-12.20216 -7.75074,5.07849 -8.29639,8.89718 -1.95872,13.70815 6.37948,4.84271 9.63258,4.51792 15.08412,-1.50599 z m 26.36839,31.3917 c -2.16034,-3.49555 -1.95743,-3.64174 9.3443,-6.73222 7.90851,-2.1626 9.23578,-3.64898 9.23578,-10.34315 0,-6.91823 -1.05908,-7.96939 -9.20583,-9.13702 -5.99714,-0.85953 -9.51365,-2.92895 -10.08897,-5.93728 -0.72247,-3.77775 1.04405,-4.6179 9.7098,-4.6179 17.1176,0 16.31975,-9.03058 -0.97018,-10.98139 -11.95256,-1.34858 -10.36467,-8.60767 2.1079,-9.63622 7.79423,-0.64278 10.56811,-2.25712 12.46895,-7.25668 1.34458,-3.53651 4.30221,-6.43004 6.57256,-6.43004 3.53103,0 4.07095,4.44688 3.73429,30.75529 -0.36437,28.47268 -0.85281,31.21454 -6.58139,36.94313 -6.55421,6.55421 -23.05468,8.66852 -26.32721,3.37348 z m -90.929912,-3.23462 c -6.409396,-3.23762 -6.618231,-4.22448 -7.344243,-34.70565 -0.799554,-33.56922 1.335626,-40.72771 8.765653,-29.38804 3.24754,4.95634 6.00025,6.48673 9.608092,5.34165 5.0391,-1.59934 12.71965,2.67015 12.71965,7.07063 0,1.27365 -4.6228,2.3157 -10.27285,2.3157 -10.626772,0 -14.753692,4.15589 -11.791782,11.87457 0.99024,2.58046 5.09459,3.95819 11.791782,3.95819 17.17024,0 12.85162,5.51937 -6.630012,8.47334 -5.72642,0.86829 -7.93617,9.46366 -3.73454,14.5263 1.54662,1.86357 6.822752,3.38832 11.724712,3.38832 7.15349,0 8.91269,1.04169 8.91269,5.27759 0,4.20299 -1.74622,5.26967 -8.57609,5.23869 -4.71684,-0.021 -11.544712,-1.53846 -15.173062,-3.37129 z"
       id="path3117"
       inkscape:connector-curvature="0" />
  </g>
</svg>
