<?xml version="1.0" encoding="UTF-8" standalone="no"?>
<!-- Created with Inkscape (http://www.inkscape.org/) -->

<svg
   xmlns:dc="http://purl.org/dc/elements/1.1/"
   xmlns:cc="http://creativecommons.org/ns#"
   xmlns:rdf="http://www.w3.org/1999/02/22-rdf-syntax-ns#"
   xmlns:svg="http://www.w3.org/2000/svg"
   xmlns="http://www.w3.org/2000/svg"
   xmlns:sodipodi="http://sodipodi.sourceforge.net/DTD/sodipodi-0.dtd"
   xmlns:inkscape="http://www.inkscape.org/namespaces/inkscape"
   width="300"
   height="300"
   id="svg2"
   version="1.1"
   inkscape:version="0.48.3.1 r9886"
   sodipodi:docname="dessin.svg">
  <defs
     id="defs4" />
  <sodipodi:namedview
     id="base"
     pagecolor="#ffffff"
     bordercolor="#666666"
     borderopacity="1.0"
     inkscape:pageopacity="0.0"
     inkscape:pageshadow="2"
     inkscape:zoom="1.979899"
     inkscape:cx="221.91047"
     inkscape:cy="132.51351"
     inkscape:document-units="px"
     inkscape:current-layer="layer1"
     showgrid="false"
     inkscape:window-width="1215"
     inkscape:window-height="1000"
     inkscape:window-x="65"
     inkscape:window-y="24"
     inkscape:window-maximized="1" />
  <metadata
     id="metadata7">
    <rdf:RDF>
      <cc:Work
         rdf:about="">
        <dc:format>image/svg+xml</dc:format>
        <dc:type
           rdf:resource="http://purl.org/dc/dcmitype/StillImage" />
        <dc:title />
      </cc:Work>
    </rdf:RDF>
  </metadata>
  <g
     inkscape:label="Calque 1"
     inkscape:groupmode="layer"
     id="layer1"
     transform="translate(0,-752.36218)">
    <path
       style="fill:#000000"
       d="m 113.15144,1037.8515 c -3.842,-1.3383 -9.6253,-5.3185 -12.85174,-8.8449 -5.710461,-6.2412 -5.841455,-7.3504 -4.931477,-41.75729 l 0.934784,-35.34573 6.528613,-0.90028 c 5.41068,-0.74611 6.97282,0.58232 9.123,7.75816 2.50049,8.3449 3.11272,8.65844 16.90678,8.65844 l 14.31234,0 0,-13.82168 0,-13.82165 -11.51841,-1.62876 C 110.62781,935.17447 108.09159,934.34997 96.739154,926.79706 84.75136,918.82148 83.70898,916.40194 81.089357,890.47113 c -1.131641,-11.20163 -0.699495,-17.35196 1.42884,-20.33545 3.127257,-4.38378 12.072449,-5.96024 12.263315,-2.16122 0.05844,1.16371 0.331268,9.1546 0.606231,17.75756 0.651141,20.37317 6.313007,30.8071 16.924077,31.18843 4.3038,0.15449 10.55316,1.20523 13.88743,2.33461 10.27282,3.47953 16.20618,-1.68984 17.83808,-15.54125 1.96928,-16.7151 0.20636,-20.59524 -12.15842,-26.76146 -11.84334,-5.90615 -15.34804,-12.86563 -17.59473,-34.93877 l -1.42203,-13.97097 -20.593445,-0.91935 c -13.321359,-0.59471 -21.77167,-2.29007 -23.929952,-4.80104 -4.287343,-4.98787 -1.162922,-10.97454 4.783362,-9.16549 2.51557,0.76533 5.184857,0.24121 5.931758,-1.16479 1.570917,-2.9571 142.234977,-2.99758 151.417227,-0.0434 7.47027,2.40325 9.45901,12.8714 3.1783,16.72974 -2.80964,1.72601 -8.75685,1.68292 -16.5154,-0.11957 -8.4151,-1.95511 -14.16487,-1.88021 -18.79318,0.24486 -6.34443,2.91302 -6.66855,3.97563 -6.66855,21.86339 0,21.71224 -3.00369,26.24241 -17.49541,26.38674 -11.3858,0.11344 -14.02864,5.41002 -14.02864,28.11571 l 0,17.11234 8.63783,0 c 4.75082,0 14.11155,-2.08287 20.80163,-4.62863 13.86663,-5.27663 16.63415,-10.58869 16.63415,-31.92808 0,-16.07206 5.1731,-20.74402 12.95044,-11.69587 4.47489,5.20603 4.59606,6.91371 1.85941,26.20547 -1.61008,11.35009 -4.40022,23.25385 -6.20034,26.45275 -4.17435,7.41812 -18.79522,12.52125 -35.87435,12.52125 -15.07239,0 -18.32951,2.84155 -20.41775,17.81265 -1.72884,12.39412 4.1528,16.98792 18.36516,14.34396 7.82161,-1.45509 10.10685,-3.3375 12.09114,-9.95972 2.98761,-9.9706 8.5692,-12.92347 13.52658,-7.1561 2.82971,3.29209 3.69971,11.02927 3.69971,32.90268 0,29.02609 -1.23885,34.63759 -10.33325,46.80609 -4.9644,6.6425 -5.96881,6.8057 -40.42129,6.5693 -19.43169,-0.1333 -38.47382,-1.3375 -42.31585,-2.6758 z m 56.63715,-11.5628 c 18.14303,-3.4859 19.35921,-5.0608 19.42565,-25.1561 0.0431,-13.04358 -3.52657,-16.78581 -16.01184,-16.78581 -5.978,0 -10.68105,-1.46475 -11.3228,-3.52645 -0.8782,-2.82115 -2.12449,-2.82115 -6.23151,0 -3.02415,2.07732 -13.61737,3.52645 -25.77854,3.52645 l -20.64479,0 0,13.79321 c 0,19.5453 4.6763,24.967 24.24927,28.1142 8.66912,1.394 16.64304,2.6912 17.71983,2.8827 1.07682,0.1916 9.44444,-1.0902 18.59473,-2.8482 z m 2.64368,-166.17166 c 3.54265,-2.20577 4.69044,-5.9479 4.69044,-15.29216 0,-11.64084 -0.46558,-12.4974 -7.88101,-14.49847 -12.14002,-3.27606 -35.40234,-2.69622 -38.54574,0.96079 -3.83614,4.46295 -3.18017,19.57919 1.06389,24.51671 5.17319,6.01846 33.16582,8.98697 40.67242,4.31313 z m -66.50956,-77.48229 c -10.984161,-4.10382 -11.30881,-11.89688 -0.59301,-14.23562 4.69257,-1.0242 11.03508,-1.76463 14.09453,-1.64548 3.0594,0.11915 23.16736,0.60626 44.68431,1.08233 41.07188,0.90882 46.96314,2.66166 46.96314,13.97296 0,5.34873 -1.65249,5.50422 -48.79895,4.59158 -26.83943,-0.51953 -52.19693,-2.21415 -56.35002,-3.76577 z"
       id="path3041"
       inkscape:connector-curvature="0" />
  </g>
</svg>
