<?xml version="1.0" encoding="UTF-8" standalone="no"?>
<!-- Created with Inkscape (http://www.inkscape.org/) -->

<svg
   xmlns:dc="http://purl.org/dc/elements/1.1/"
   xmlns:cc="http://creativecommons.org/ns#"
   xmlns:rdf="http://www.w3.org/1999/02/22-rdf-syntax-ns#"
   xmlns:svg="http://www.w3.org/2000/svg"
   xmlns="http://www.w3.org/2000/svg"
   xmlns:sodipodi="http://sodipodi.sourceforge.net/DTD/sodipodi-0.dtd"
   xmlns:inkscape="http://www.inkscape.org/namespaces/inkscape"
   width="300"
   height="300"
   id="svg2"
   version="1.1"
   inkscape:version="0.48.4 r9939"
   sodipodi:docname="image-seal.svg">
  <defs
     id="defs4" />
  <sodipodi:namedview
     id="base"
     pagecolor="#ffffff"
     bordercolor="#666666"
     borderopacity="1.0"
     inkscape:pageopacity="0.0"
     inkscape:pageshadow="2"
     inkscape:zoom="2.0018437"
     inkscape:cx="232.32812"
     inkscape:cy="141.91078"
     inkscape:document-units="px"
     inkscape:current-layer="layer1"
     showgrid="false"
     inkscape:window-width="1215"
     inkscape:window-height="1000"
     inkscape:window-x="65"
     inkscape:window-y="24"
     inkscape:window-maximized="1"
     fit-margin-top="10"
     fit-margin-left="10"
     fit-margin-right="10"
     fit-margin-bottom="10" />
  <metadata
     id="metadata7">
    <rdf:RDF>
      <cc:Work
         rdf:about="">
        <dc:format>image/svg+xml</dc:format>
        <dc:type
           rdf:resource="http://purl.org/dc/dcmitype/StillImage" />
        <dc:title />
      </cc:Work>
    </rdf:RDF>
  </metadata>
  <g
     inkscape:label="Calque 1"
     inkscape:groupmode="layer"
     id="layer1"
     transform="translate(0,-752.36218)">
    <path
       style="fill:#000000"
       d="m 218.00473,1043.8793 c -0.63893,-1.9555 -5.20559,-16.6781 -10.14813,-32.717 -4.94254,-16.03858 -9.81947,-29.6444 -10.83764,-30.23492 -1.01818,-0.59052 -8.2511,0.63586 -16.07315,2.72532 -37.99681,10.14981 -48.96134,-0.0669 -13.70239,-12.7679 11.23662,-4.04761 21.37167,-8.32124 22.52231,-9.49691 1.15066,-1.17564 0.42529,-5.25207 -1.61194,-9.05868 -3.123,-5.83536 -6.58006,-7.22911 -22.03695,-8.8844 -11.75728,-1.25909 -18.88804,-3.41007 -19.88073,-5.99698 -2.22937,-5.80963 -0.85766,-6.40729 17.19293,-7.49123 13.32087,-0.79989 18.00748,0.21134 25.9296,5.59451 5.31842,3.61396 10.48741,9.14668 11.48664,12.29493 2.96908,9.3548 6.47928,6.57832 9.48186,-7.49996 1.97497,-9.25997 1.87167,-15.30639 -0.34468,-20.17068 -3.08345,-6.76747 -3.86458,-6.92161 -30.28247,-5.97554 -24.70281,0.88463 -27.20919,0.49492 -28.14866,-4.37682 -0.5672,-2.94138 0.69462,-6.44171 2.80407,-7.77851 6.13525,-3.88807 54.70924,-3.04531 59.8157,1.0378 5.52738,4.41972 10.86611,20.02096 10.852,31.71265 -0.009,8.17778 -8.88912,26.68723 -14.53513,30.29948 -2.19769,1.40607 -0.13028,10.3663 6.20058,26.87484 1.19988,3.12882 2.98706,8.8887 3.97153,12.7997 0.98447,3.911 3.6622,13.9352 5.9505,22.2761 2.28834,8.3411 3.43414,16.341 2.54621,17.7774 -2.36038,3.8194 -9.80163,3.19 -11.15206,-0.9432 z M 83.624811,1009.27 c -11.54316,-5.2294 -12.57743,-9.69396 -11.57703,-49.97287 0.7072,-28.47399 1.45109,-32.79529 5.78914,-33.63008 3.83249,-0.7375 4.97767,0.97317 4.97767,7.43555 0,7.17763 6.99263,17.81824 9.51113,14.47299 2.50391,-3.32585 7.55517,-25.78601 7.55517,-33.5937 0,-7.52589 -1.45681,-9.57004 -8.59319,-12.05779 -11.53401,-4.02079 -14.16188,-9.97286 -14.16188,-32.07628 0,-16.77921 0.57761,-18.67548 5.68877,-18.67548 4.98882,0 5.68877,1.89627 5.68877,15.41147 0,18.71379 1.93628,24.40989 8.29772,24.40989 4.092379,0 4.946719,-3.43962 5.501519,-22.14929 0.60693,-20.46864 0.10837,-22.6645 -6.571239,-28.93964 -5.2571,-4.93878 -7.228,-9.70842 -7.228,-17.49187 0,-9.91822 -0.6556,-10.76673 -8.95739,-11.5928 -10.73143,-1.06783 -17.53574,-9.56204 -10.95329,-13.6736 2.34661,-1.46577 21.81146,-2.5864 43.255209,-2.49034 30.15214,0.13511 39.7527,1.09537 42.35995,4.23691 4.2412,5.11033 2.40578,6.93836 -9.38357,9.34573 -8.39178,1.71357 -9.55348,3.14031 -10.94163,13.43777 -0.88309,6.5509 -5.48436,16.8664 -10.66643,23.91293 -7.75891,10.5505 -9.11341,14.82057 -9.11341,28.7304 0,25.89686 9.93555,26.59524 13.01402,0.91478 2.31747,-19.33182 3.17994,-21.37417 8.2112,-19.44349 3.18676,1.22289 4.37423,5.8369 4.37423,16.9967 0,17.17458 -5.90022,26.62442 -20.36436,32.61566 -8.14844,3.3752 -8.30409,3.83696 -7.48932,22.22183 0.67463,15.22328 1.77368,18.95451 5.80971,19.72406 3.96237,0.75547 4.97767,-1.05308 4.97767,-8.86657 0,-9.51483 5.70342,-18.08257 9.50596,-14.28003 1.02935,1.02939 1.87158,16.4621 1.87158,34.29493 0,42.87283 -4.31966,51.23923 -27.65429,53.56223 -8.541169,0.8505 -16.986459,-0.1849 -22.734389,-2.79 z m 35.048409,-20.4335 c 2.35406,-5.63416 3.88872,-14.27397 3.41033,-19.19964 l -0.86979,-8.95577 -18.48849,0 -18.488489,0 -0.67033,12.79972 c -1.0227,19.52783 3.33236,25.59945 18.362419,25.59945 11.62312,0 12.75305,-0.69119 16.74435,-10.24376 z m -1.01494,-159.32695 c 7.21731,-2.54575 6.68391,-17.23369 -0.71109,-19.58076 -8.43209,-2.67625 -17.066299,1.03786 -17.066299,7.34124 0,7.37264 6.337999,17.21366 9.933099,15.42307 1.57664,-0.78528 5.10657,-2.21788 7.84429,-3.18355 z m 83.86467,50.35479 c -8.74229,-1.07725 -17.07446,-4.49079 -23.46616,-9.61367 -8.55149,-6.85391 -9.91071,-9.62166 -9.91071,-20.18092 0,-14.67645 4.80166,-19.81787 22.75507,-24.3653 27.54241,-6.97622 28.81744,-8.00905 27.87213,-22.57835 l -0.85049,-13.10799 -12.57158,-0.89823 c -22.22012,-1.58765 -24.31916,-0.0498 -28.72033,21.04061 -2.91524,13.96985 -5.66109,20.00293 -10.56709,23.21745 -3.64561,2.38868 -7.41414,3.55733 -8.37451,2.59695 -0.96038,-0.96035 1.00506,-11.69352 4.3676,-23.85143 3.70675,-13.40245 5.69329,-27.4072 5.04577,-35.57206 -1.60884,-20.2873 9.60613,-26.91804 13.40467,-7.92536 1.52697,7.63495 2.91486,8.63928 12.456,9.01348 13.68908,0.53691 17.2428,1.0012 28.35355,3.70436 7.91834,1.9265 9.43263,3.84993 11.81128,15.00267 4.49839,21.09149 -6.47991,37.75949 -24.87009,37.75949 -10.04483,0 -22.286,6.06548 -25.911,12.83887 -5.72221,10.69203 0.039,14.98199 23.18195,17.26244 18.38902,1.81202 28.03788,6.20582 28.03788,12.76761 0,1.45266 -2.45527,2.64121 -5.45612,2.64121 -3.00088,0 -7.16079,0.43167 -9.24425,0.95927 -2.08348,0.5276 -9.88807,0.20764 -17.34357,-0.7111 z M 92.270661,778.17813 c -8.81859,-1.25807 -17.53059,-8.05526 -14.37241,-11.21344 2.05398,-2.05398 48.792029,-3.49179 57.762589,-1.77697 7.3046,1.39637 8.11335,2.85158 4.63009,8.3312 -2.35953,3.71181 -33.48951,6.73223 -48.020269,4.65921 z"
       id="path3221"
       inkscape:connector-curvature="0" />
  </g>
</svg>
