<?xml version="1.0" encoding="UTF-8" standalone="no"?>
<!-- Created with Inkscape (http://www.inkscape.org/) -->

<svg
   xmlns:dc="http://purl.org/dc/elements/1.1/"
   xmlns:cc="http://creativecommons.org/ns#"
   xmlns:rdf="http://www.w3.org/1999/02/22-rdf-syntax-ns#"
   xmlns:svg="http://www.w3.org/2000/svg"
   xmlns="http://www.w3.org/2000/svg"
   xmlns:sodipodi="http://sodipodi.sourceforge.net/DTD/sodipodi-0.dtd"
   xmlns:inkscape="http://www.inkscape.org/namespaces/inkscape"
   width="300"
   height="300"
   id="svg2"
   version="1.1"
   inkscape:version="0.48.4 r9939"
   sodipodi:docname="image-seal.svg">
  <defs
     id="defs4" />
  <sodipodi:namedview
     id="base"
     pagecolor="#ffffff"
     bordercolor="#666666"
     borderopacity="1.0"
     inkscape:pageopacity="0.0"
     inkscape:pageshadow="2"
     inkscape:zoom="2.0018442"
     inkscape:cx="168.83149"
     inkscape:cy="136.20087"
     inkscape:document-units="px"
     inkscape:current-layer="layer1"
     showgrid="false"
     inkscape:window-width="1215"
     inkscape:window-height="1000"
     inkscape:window-x="65"
     inkscape:window-y="24"
     inkscape:window-maximized="1" />
  <metadata
     id="metadata7">
    <rdf:RDF>
      <cc:Work
         rdf:about="">
        <dc:format>image/svg+xml</dc:format>
        <dc:type
           rdf:resource="http://purl.org/dc/dcmitype/StillImage" />
        <dc:title />
      </cc:Work>
    </rdf:RDF>
  </metadata>
  <g
     inkscape:label="Calque 1"
     inkscape:groupmode="layer"
     id="layer1"
     transform="translate(0,-752.36218)">
    <path
       style="fill:#000000"
       d="m 216.88134,1042.0045 c -4.51596,-2.7906 -9.78318,-5.1638 -11.70496,-5.2738 -6.26563,-0.3588 -22.04546,-16.9226 -27.81526,-29.1975 -3.88868,-8.27267 -5.63937,-17.52913 -5.63937,-29.81719 0,-12.4312 -1.03454,-17.81997 -3.42118,-17.81997 -1.88165,0 -7.00423,-4.49078 -11.3835,-9.97918 -7.28931,-9.13562 -8.07207,-12.25864 -9.261,-36.9487 -1.29061,-26.80246 -3.27533,-31.77694 -8.66227,-21.7113 -1.54779,2.89204 -8.0023,8.12645 -14.34339,11.63201 -10.21828,5.64897 -11.62124,7.61853 -12.33862,17.3215 -1.18438,16.01925 1.13882,23.26403 7.46015,23.26403 3.70437,0 5.52176,-1.95062 5.73746,-6.15813 0.62328,-12.15797 1.09477,-13.91184 4.00234,-14.88846 9.09082,-3.0535 13.36831,52.69933 5.48987,71.55496 -10.24586,24.52203 -45.946897,26.96723 -57.843327,3.96211 -3.39816,-6.57151 -4.1494,-15.20767 -3.47047,-39.89601 0.47658,-17.33017 1.66724,-32.80493 2.64594,-34.38848 3.45071,-5.58339 10.54271,0.32307 10.54271,8.78031 0,7.02525 1.04864,8.29675 6.84236,8.29675 6.574987,0 6.840037,-0.66844 6.783137,-17.1059 -0.0575,-16.5808 -0.33049,-17.23194 -8.895067,-21.21133 -10.15374,-4.71775 -15.88777,-15.05229 -17.809,-32.09752 -1.07056,-9.49782 -0.30164,-12.68127 3.78465,-15.66925 7.38219,-5.39799 9.29392,-2.89829 9.29392,12.15253 0,8.46682 1.56863,14.89631 4.30092,17.6286 9.190107,9.19012 10.514057,5.89204 9.809757,-24.437 -0.30435,-13.10665 -1.490835,-17.17969 -5.877535,-20.17667 -3.022902,-2.06528 -5.496192,-5.99536 -5.496192,-8.73357 0,-2.73817 -1.23163,-5.7397 -2.73695,-6.67004 -1.50532,-0.93034 -2.73694,-5.31373 -2.73694,-9.74084 0,-7.13757 -0.93976,-8.0493 -8.29672,-8.0493 -8.55575,0 -13.7766,-6.39091 -9.06769,-11.09982 1.38656,-1.38656 15.40588,-2.43947 31.154042,-2.33976 15.748155,0.0996 33.251605,0.0556 38.896545,-0.098 11.46052,-0.3119 13.50064,4.07556 5.19993,11.18285 -2.78501,2.38459 -5.83681,9.17074 -6.7818,15.08035 -1.6368,10.23607 -8.89559,21.10141 -15.58734,23.33199 -1.80413,0.60136 -3.75437,10.47536 -4.65006,23.54328 -1.47735,21.55423 -1.29838,22.50751 4.22597,22.50751 7.03009,0 11.42103,-7.52268 11.47708,-19.66292 0.0219,-4.99126 1.17949,-10.87347 2.56986,-13.07159 2.16347,-3.42036 3.34126,-3.26055 8.16893,1.10843 4.2724,3.86646 5.66224,4.17206 5.72861,1.25965 0.48444,-21.25278 3.49049,-45.72008 6.50293,-52.92991 3.02829,-7.24773 6.13626,-9.5345 17.03124,-12.53124 7.32981,-2.01611 14.23181,-4.98846 15.33776,-6.60523 1.10592,-1.61677 2.02963,-8.78978 2.05271,-15.94005 0.0353,-10.93831 0.86772,-13.00049 5.24803,-13.00049 5.72884,0 11.21554,12.07614 11.21554,24.68522 0,6.55121 1.56342,7.88199 13.00049,11.06612 7.15026,1.99069 14.6135,5.21531 16.58495,7.16587 4.7111,4.6611 7.73592,34.14235 8.45166,82.37342 0.73457,49.49959 -3.12983,61.9286 -26.24183,84.40119 -4.82293,4.68948 -9.53921,12.07923 -10.48061,16.42167 -0.9414,4.34244 -3.65806,12.51662 -6.03707,18.1651 -3.98639,9.4649 -3.96446,10.6686 0.27961,15.3584 2.53277,2.7988 9.80294,7.2321 16.15594,9.8519 18.35562,7.5692 19.71249,8.5389 20.63631,14.7485 1.11857,7.5187 -8.21592,7.7073 -20.0332,0.4048 z M 120.0689,993.68964 c 2.34706,-2.82671 3.75632,-11.29783 3.75632,-22.57979 l 0,-18.05617 -17.54968,0.55642 c -9.652295,0.30626 -18.417337,1.96047 -19.477867,3.67653 -2.22489,3.59991 -0.23429,25.69882 3.13169,34.76851 1.89558,5.10779 4.34107,6.15823 14.334367,6.15823 7.86562,0 13.35303,-1.57046 15.80517,-4.52373 z m 75.76282,-12.19227 c 1.83252,-5.43064 4.37533,-36.28904 5.65069,-68.57431 2.45729,-62.20517 3.36182,-66.37209 17.22258,-79.34031 8.87871,-8.30695 9.86264,-16.65195 2.966,-25.15542 -3.96706,-4.89136 -7.60996,-5.8855 -21.21132,-5.78864 -22.93926,0.1634 -34.1106,3.50874 -37.64886,11.27443 -2.58672,5.67722 -1.83034,7.61662 5.9295,15.20332 4.89196,4.78278 11.46036,13.68763 14.59646,19.78855 5.38105,10.46827 5.67002,14.94276 5.13426,79.49941 -0.31226,37.62376 0.46651,67.18288 1.73054,65.68675 1.26406,-1.49629 3.79762,-7.1634 5.63015,-12.59378 z m 25.43607,-38.79323 c 2.41256,-3.33965 5.75141,-13.84604 7.41969,-23.34748 3.12537,-17.80016 1.92251,-61.90655 -1.97572,-72.44441 -2.10972,-5.70311 -2.39088,-5.58778 -6.70187,2.74877 -3.45222,6.67581 -4.7982,19.246 -5.78155,53.99444 -0.70499,24.91104 -0.39645,45.25421 0.6856,45.20686 1.08208,-0.0465 3.94131,-2.81851 6.35385,-6.15818 z m -42.69585,-26.67719 c 2.13178,-21.22717 0.13356,-40.67941 -5.79294,-56.39513 -2.19483,-5.82012 -4.70587,-12.73736 -5.58008,-15.37167 -0.87423,-2.63431 -3.46905,-4.78966 -5.7663,-4.78966 -6.46524,0 -3.31507,87.22581 3.52729,97.66856 4.40489,6.72271 5.04044,6.91842 8.24321,2.53838 1.90867,-2.61025 4.32465,-13.253 5.36882,-23.65048 z m -31.48269,-38.40076 c 0,-3.09948 -1.17785,-4.90748 -2.61742,-4.01776 -1.43958,0.8897 -1.92361,3.42565 -1.07565,5.6354 2.17103,5.65759 3.69307,4.9909 3.69307,-1.61764 z m -28.28537,-52.52466 c 1.3702,-1.88164 2.84076,-6.80815 3.26794,-10.94777 0.72994,-7.07394 0.12508,-7.5266 -10.05636,-7.5266 -9.80863,0 -10.94088,0.735 -11.97383,7.77298 -0.627435,4.27513 -0.664605,9.20163 -0.0827,10.94777 1.41656,4.24969 15.70686,4.06286 18.84479,-0.24632 z M 80.490273,771.95918 c -4.43175,-4.43174 -1.45047,-11.29348 5.48259,-12.61882 13.818532,-2.64159 50.533627,1.26231 52.178237,5.54809 0.83873,2.18567 -0.19405,5.06239 -2.29504,6.39274 -4.42838,2.80402 -52.649267,3.39452 -55.365787,0.67799 z"
       id="path3186"
       inkscape:connector-curvature="0" />
  </g>
</svg>
