<?xml version="1.0" standalone="no"?>
<!DOCTYPE svg PUBLIC "-//W3C//DTD SVG 20010904//EN"
 "http://www.w3.org/TR/2001/REC-SVG-20010904/DTD/svg10.dtd">
<svg version="1.0" xmlns="http://www.w3.org/2000/svg"
 width="70.000000pt" height="83.000000pt" viewBox="0 0 70.000000 83.000000"
 preserveAspectRatio="xMidYMid meet">
<metadata>
Created by potrace 1.10, written by Peter Selinger 2001-2011
</metadata>
<g transform="translate(0.000000,83.000000) scale(0.100000,-0.100000)"
fill="#000000" stroke="none">
<path d="M137 733 c-18 -17 0 -23 73 -23 64 0 80 3 80 15 0 12 -15 15 -73 15
-41 0 -77 -3 -80 -7z"/>
<path d="M321 732 c-18 -13 -1 -22 57 -30 44 -7 47 -9 50 -39 3 -30 0 -34 -38
-49 -22 -9 -46 -26 -52 -37 -6 -12 -11 -95 -13 -206 -1 -102 -5 -214 -10 -248
-7 -53 -5 -63 7 -63 22 0 28 46 35 291 l6 216 39 18 c64 28 82 94 37 132 -19
15 -101 26 -118 15z"/>
<path d="M487 724 c-12 -12 4 -24 33 -24 47 0 60 -9 60 -44 0 -43 -16 -56 -67
-56 -47 0 -58 -16 -18 -26 31 -8 75 3 98 23 17 16 23 78 9 99 -18 27 -97 46
-115 28z"/>
<path d="M100 660 c-18 -11 -5 -25 23 -25 19 0 23 -7 27 -47 4 -29 14 -56 28
-71 17 -18 22 -35 22 -75 0 -29 -4 -52 -8 -52 -19 0 -44 39 -38 58 4 11 2 32
-4 48 -9 23 -13 25 -20 14 -27 -42 2 -135 45 -146 21 -5 25 -12 25 -45 0 -35
-3 -39 -25 -39 -20 0 -25 5 -25 24 0 14 -4 28 -10 31 -15 9 -23 -41 -18 -116
6 -85 24 -109 80 -109 52 0 74 13 87 51 12 34 15 137 5 163 -9 22 -24 10 -24
-20 0 -17 -5 -24 -20 -24 -16 0 -20 7 -20 38 0 30 5 40 29 54 38 21 59 88 41
127 -9 20 -13 22 -21 10 -5 -7 -9 -29 -9 -47 0 -36 -15 -72 -30 -72 -6 0 -10
24 -10 53 0 41 5 58 20 72 12 11 22 37 26 68 5 37 12 51 25 54 23 6 24 19 3
27 -25 10 -187 7 -204 -4z m146 -72 c-9 -53 -20 -66 -44 -52 -11 7 -18 27 -20
53 l-3 41 37 0 37 0 -7 -42z m14 -386 c0 -47 -14 -62 -57 -62 -29 0 -33 4 -42
38 -17 60 -16 62 44 62 l55 0 0 -38z"/>
<path d="M410 511 c-22 -15 -7 -23 56 -27 75 -5 84 -14 84 -83 0 -64 -14 -96
-30 -71 -5 8 -10 20 -10 26 0 25 -38 45 -81 42 -55 -4 -66 -28 -12 -28 47 0
59 -8 72 -44 14 -36 8 -45 -38 -52 -47 -7 -66 -18 -57 -32 7 -11 69 -5 97 9
18 9 28 -20 44 -118 8 -51 35 -81 35 -39 0 15 -7 58 -16 97 -15 67 -15 71 5
112 30 61 29 147 -1 182 -18 20 -35 27 -78 31 -30 3 -62 1 -70 -5z"/>
</g>
</svg>
