<?xml version="1.0" encoding="UTF-8" standalone="no"?>
<!-- Created with Inkscape (http://www.inkscape.org/) -->

<svg
   xmlns:dc="http://purl.org/dc/elements/1.1/"
   xmlns:cc="http://creativecommons.org/ns#"
   xmlns:rdf="http://www.w3.org/1999/02/22-rdf-syntax-ns#"
   xmlns:svg="http://www.w3.org/2000/svg"
   xmlns="http://www.w3.org/2000/svg"
   xmlns:sodipodi="http://sodipodi.sourceforge.net/DTD/sodipodi-0.dtd"
   xmlns:inkscape="http://www.inkscape.org/namespaces/inkscape"
   width="300"
   height="300"
   id="svg2"
   version="1.1"
   inkscape:version="0.48.4 r9939"
   sodipodi:docname="image-seal.svg">
  <defs
     id="defs4" />
  <sodipodi:namedview
     id="base"
     pagecolor="#ffffff"
     bordercolor="#666666"
     borderopacity="1.0"
     inkscape:pageopacity="0.0"
     inkscape:pageshadow="2"
     inkscape:zoom="2.0018437"
     inkscape:cx="123.3515"
     inkscape:cy="143.3195"
     inkscape:document-units="px"
     inkscape:current-layer="layer1"
     showgrid="false"
     inkscape:window-width="1215"
     inkscape:window-height="1000"
     inkscape:window-x="65"
     inkscape:window-y="24"
     inkscape:window-maximized="1"
     fit-margin-top="10"
     fit-margin-left="10"
     fit-margin-right="10"
     fit-margin-bottom="10" />
  <metadata
     id="metadata7">
    <rdf:RDF>
      <cc:Work
         rdf:about="">
        <dc:format>image/svg+xml</dc:format>
        <dc:type
           rdf:resource="http://purl.org/dc/dcmitype/StillImage" />
        <dc:title />
      </cc:Work>
    </rdf:RDF>
  </metadata>
  <g
     inkscape:label="Calque 1"
     inkscape:groupmode="layer"
     id="layer1"
     transform="translate(0,-752.36218)">
    <path
       style="fill:#000000"
       d="m 142.38783,1024.1403 c 0.9322,-13.0652 2.26167,-29.25262 2.95437,-35.97191 5.35528,-51.947 6.36757,-77.57718 6.72838,-170.35765 0.22235,-57.19926 0.50548,-60.40571 5.33221,-60.40571 9.08203,0 12.12805,6.91853 9.88221,22.44584 -1.13001,7.81264 -2.21387,17.86988 -2.4086,22.3494 l -0.35402,8.14459 28.97334,0.76842 c 33.24193,0.88162 30.8488,2.87363 33.40012,-27.80169 1.38893,-16.69956 4.10384,-23.01069 9.95866,-23.15013 3.83274,-0.0912 4.34824,8.0882 1.8889,29.97206 -6.14306,54.66255 -6.69714,154.49118 -1.1567,208.40302 4.09708,39.86736 3.71277,46.64396 -2.64533,46.64396 -3.18223,0 -5.19913,-5.8155 -7.53237,-21.7189 -0.3286,-2.2397 -1.52811,-5.5616 -2.66556,-7.3818 -1.86733,-2.9883 -2.99245,-173.73783 -1.23043,-186.7309 0.69778,-5.14529 -0.82811,-5.42972 -29.12714,-5.42972 l -29.86349,0 -1.84785,59.72699 c -1.0163,32.84984 -2.52816,67.66796 -3.35967,77.37359 -0.8315,9.70564 -1.88525,29.25265 -2.34167,43.43784 -0.62662,19.4757 -2.10782,27.9517 -6.04896,34.6145 -8.39802,14.1974 -10.3688,10.7501 -8.5364,-14.9318 z m -65.130667,-16.3495 c -8.242563,-6.6439 -9.89711,-14.33478 -10.201573,-47.42016 -0.210158,-22.83743 0.565446,-29.47505 3.579253,-30.63123 5.08652,-1.95131 9.55109,2.79118 9.64843,10.24901 0.087,6.6663 8.98845,10.09264 12.29995,4.73448 1.10704,-1.79121 2.17262,-10.32674 2.36796,-18.9678 0.35421,-15.66905 0.33157,-15.7155 -8.47464,-17.39 -11.58844,-2.20352 -15.616955,-11.17071 -15.616955,-34.76222 0,-15.8608 0.677965,-18.46278 4.810595,-18.46278 3.77857,0 5.54525,3.87278 8.23507,18.05227 4.02657,21.22618 4.84923,22.92588 10.11761,20.90423 5.995757,-2.3008 5.781955,-44.38622 -0.22561,-44.38622 -5.77531,0 -12.07835,-16.24702 -12.07835,-31.13373 l 0,-12.30408 -10.859451,0 C 61.763374,806.27257 60,805.37941 60,800.77212 c 0,-5.31614 1.386043,-5.47531 41.36744,-4.75101 35.69573,0.64668 41.48379,1.3558 42.21618,5.17206 0.537,2.79799 -1.56615,5.02871 -5.72535,6.0726 -5.65313,1.41885 -6.76433,3.6294 -7.93174,15.77911 -1.28943,13.41927 -7.98157,23.4941 -17.97259,27.05722 -3.01141,1.07398 -5.22364,44.52867 -2.41014,47.34214 2.47128,2.47131 9.61422,-5.16093 12.8875,-13.77036 1.49899,-3.9426 2.72543,-12.5864 2.72543,-19.20849 0,-12.14785 2.40401,-14.88481 7.58782,-8.63872 3.84083,4.62794 -0.72698,44.42281 -5.66594,49.36177 -2.06571,2.06571 -6.70284,4.1722 -10.30473,4.6811 -5.95985,0.84202 -6.68988,2.51253 -8.11622,18.57187 -1.69391,19.07226 -0.46771,22.85029 6.54307,20.16 2.95445,-1.13373 4.52627,-4.83487 4.52627,-10.65798 0,-8.2767 5.3074,-14.14914 9.23659,-10.21992 0.89257,0.89257 1.62286,13.48253 1.62286,27.97767 0,28.02065 -4.56281,46.79492 -12.9137,53.13502 -7.04315,5.3472 -33.328357,4.6674 -40.415727,-1.0454 z m 29.990207,-9.13722 c 9.71813,-4.42781 15.53646,-23.7944 10.83187,-36.05434 -2.03661,-5.30734 -33.417137,-6.15144 -38.532087,-1.0365 -7.66068,7.66066 -1.78722,34.75024 7.53442,34.75024 3.0233,0 5.49693,1.22169 5.49693,2.7149 0,3.60012 6.298705,3.43942 14.668867,-0.3743 z m 8.40747,-171.49405 c 7.17965,-13.17987 3.67775,-19.21591 -11.81467,-20.36435 l -11.261667,-0.83482 0,11.01556 c 0,7.507 1.78345,12.799 5.599405,16.61496 7.187332,7.18733 10.778042,5.86598 17.476932,-6.43135 z m 63.90503,122.48887 c -5.11559,-5.49098 -5.53547,-9.40361 -5.53547,-51.5824 0,-25.10241 0.51091,-45.64076 1.13538,-45.64076 7.11202,0 9.72407,4.45357 9.72407,16.57964 0,12.895 0.23402,13.28385 7.99584,13.28385 7.6105,0 8.0357,-0.62029 8.82331,-12.87119 0.62347,-9.6983 1.99863,-13.09357 5.57847,-13.77337 4.36102,-0.82814 4.75101,2.58968 4.75101,41.63685 0,38.65428 -0.51275,43.25917 -5.61461,50.42405 -6.95811,9.77177 -18.76855,10.62633 -26.858,1.94333 z m 19.96527,-11.92702 c 0.90633,-2.36188 1.64789,-13.25527 1.64789,-24.20751 0,-20.94645 -1.32453,-23.11237 -12.79314,-20.91998 -5.79583,1.10794 -6.2109,2.51209 -6.2109,21.01022 0,24.03699 1.46304,28.41161 9.50202,28.41161 3.41342,0 6.94777,-1.93244 7.85413,-4.29434 z M 79.330993,770.22022 c -1.67292,-1.67293 -3.04168,-5.01164 -3.04168,-7.4194 0,-6.33793 57.249147,-7.58033 62.416107,-1.3545 2.49824,3.01019 2.6099,5.06187 0.41917,7.70155 -3.85011,4.63911 -55.304057,5.56189 -59.793597,1.07235 z"
       id="path3078"
       inkscape:connector-curvature="0" />
  </g>
</svg>
