<?xml version="1.0" encoding="UTF-8" standalone="no"?>
<!-- Created with Inkscape (http://www.inkscape.org/) -->

<svg
   xmlns:dc="http://purl.org/dc/elements/1.1/"
   xmlns:cc="http://creativecommons.org/ns#"
   xmlns:rdf="http://www.w3.org/1999/02/22-rdf-syntax-ns#"
   xmlns:svg="http://www.w3.org/2000/svg"
   xmlns="http://www.w3.org/2000/svg"
   xmlns:sodipodi="http://sodipodi.sourceforge.net/DTD/sodipodi-0.dtd"
   xmlns:inkscape="http://www.inkscape.org/namespaces/inkscape"
   width="300"
   height="300"
   id="svg2"
   version="1.1"
   inkscape:version="0.48.4 r9939"
   sodipodi:docname="dessin.svg">
  <defs
     id="defs4" />
  <sodipodi:namedview
     id="base"
     pagecolor="#ffffff"
     bordercolor="#666666"
     borderopacity="1.0"
     inkscape:pageopacity="0.0"
     inkscape:pageshadow="2"
     inkscape:zoom="1.979899"
     inkscape:cx="66.959549"
     inkscape:cy="133.99264"
     inkscape:document-units="px"
     inkscape:current-layer="layer1"
     showgrid="false"
     inkscape:window-width="1215"
     inkscape:window-height="1000"
     inkscape:window-x="65"
     inkscape:window-y="24"
     inkscape:window-maximized="1" />
  <metadata
     id="metadata7">
    <rdf:RDF>
      <cc:Work
         rdf:about="">
        <dc:format>image/svg+xml</dc:format>
        <dc:type
           rdf:resource="http://purl.org/dc/dcmitype/StillImage" />
        <dc:title />
      </cc:Work>
    </rdf:RDF>
  </metadata>
  <g
     inkscape:label="Calque 1"
     inkscape:groupmode="layer"
     id="layer1"
     transform="translate(0,-752.36218)">
    <path
       style="fill:#000000"
       d="m 149.50556,1034.907 c -11.62401,-13.7903 -19.91073,-31.8539 -19.99739,-43.59092 -0.0828,-11.18736 8.13579,-29.38785 18.63492,-41.269 10.47194,-11.85048 13.20559,-18.33169 15.06874,-35.72679 l 1.73071,-16.1586 -8.8661,8.38108 c -13.78135,13.02748 -21.29092,21.547 -21.29092,24.15436 0,1.31216 -3.01091,2.38575 -6.69093,2.38575 -3.68001,0 -6.67591,-1.57146 -6.65756,-3.49211 0.0375,-3.91831 13.81703,-19.73205 33.16262,-38.05804 11.80897,-11.1866 12.7678,-13.04082 11.37544,-21.99729 -0.83633,-5.37952 -2.20484,-10.49519 -3.04114,-11.36813 -0.83629,-0.87298 -7.5639,5.02665 -14.95026,13.11027 -12.51051,13.69153 -18.30507,16.47914 -20.42903,9.82795 -0.48097,-1.50614 6.48337,-10.8563 15.47632,-20.77811 17.12463,-18.8934 22.08278,-27.73832 19.495,-34.77759 -2.30726,-6.27626 -4.10681,-5.39344 -17.03499,8.35685 -11.93714,12.69628 -16.94292,15.06413 -20.20365,9.55688 -1.7571,-2.96769 29.70993,-36.09699 34.28583,-36.09699 1.29159,0 1.96349,-2.82863 1.4931,-6.28583 -0.73006,-5.36583 -2.88765,-6.49925 -14.74195,-7.74405 -7.6377,-0.80203 -14.68341,-2.28983 -15.65713,-3.30626 -4.41494,-4.60845 3.1316,-7.80713 18.41927,-7.80713 15.93415,0 16.89105,0.39635 21.92212,9.07952 4.68973,8.09409 5.32254,14.97447 5.83047,63.39522 0.37221,35.4794 -0.42777,55.57037 -2.30668,57.93362 -1.58208,1.98983 -2.21185,5.42585 -1.3995,7.63561 2.84975,7.75191 -3.58803,22.86563 -15.60393,36.63279 -14.03202,16.07711 -20.14136,32.40496 -15.20931,40.64859 1.74424,2.91545 3.17136,7.20365 3.17136,9.52925 0,2.3256 0.96226,4.2285 2.13837,4.2285 1.17608,0 5.09027,4.9948 8.69821,11.0996 3.60791,6.1048 7.46311,11.1335 8.56712,11.1748 1.10399,0.041 2.00726,2.5895 2.00726,5.6625 0,8.5612 -8.2605,6.5022 -17.39639,-4.3363 z m 63.28684,3.9536 c -1.96453,-3.2836 -5.70308,-9.8837 -8.30794,-14.6669 -2.60486,-4.7832 -8.59709,-15.1351 -13.31606,-23.0041 -10.97584,-18.30242 -9.61007,-29.69571 5.53174,-46.1462 15.18955,-16.5023 24.25186,-33.91759 23.23929,-44.65945 -0.98571,-10.45658 -7.21142,-14.1339 -9.36633,-5.53238 -0.81043,3.23497 -2.43916,5.88175 -3.61945,5.88175 -1.18024,0 -4.89039,4.71435 -8.24477,10.47636 -9.43403,16.20541 -15.7487,19.28589 -15.7487,7.68265 0,-3.84132 0.94471,-6.98423 2.09936,-6.98423 1.1546,0 4.05983,-3.45719 6.45603,-7.68266 2.39619,-4.22547 9.27989,-13.07854 15.29706,-19.67352 9.02522,-9.89179 10.94036,-13.92644 10.94036,-23.04799 0,-11.70763 -6.22414,-15.80703 -9.18999,-6.05282 -2.24372,7.37927 -22.49582,29.90075 -24.76129,27.53598 -2.92972,-3.05814 5.84899,-18.29076 19.43209,-33.71807 10.72071,-12.17632 12.01415,-15.02879 11.3052,-24.93181 l -0.80056,-11.18238 -13.7539,14.69037 c -8.6816,9.27271 -14.44201,13.52813 -15.6198,11.53889 -2.18269,-3.6865 5.19243,-16.47597 10.79506,-18.72014 2.12223,-0.8501 3.8586,-2.86391 3.8586,-4.47514 0,-1.61124 3.01092,-7.05007 6.69093,-12.08633 8.86904,-12.13761 8.44237,-15.11699 -2.16483,-15.11699 -9.11561,0 -20.63211,-6.46873 -17.44304,-9.79762 0.98707,-1.03034 6.64661,-3.0113 12.57675,-4.4021 14.17358,-3.3242 23.70729,0.53401 26.21465,10.60877 1.06512,4.2798 1.94727,37.39823 1.9603,73.59648 0.0241,65.23922 -0.0332,65.89911 -6.48727,75.4298 -3.58104,5.28813 -9.32871,12.58579 -12.77255,16.21704 -16.17293,17.05294 -13.85659,34.52801 8.15239,61.50354 5.52001,6.7657 10.03637,14.6385 10.03637,17.4953 0,7.1557 -8.54984,6.6449 -12.9897,-0.7761 z M 73.867427,1026.2077 c -1.856874,-0.7809 -4.671423,-3.9462 -6.254555,-7.034 -3.887618,-7.5825 -7.857883,-53.85475 -5.90081,-68.77222 1.340157,-10.21512 2.421189,-11.88926 7.215719,-11.17478 4.721548,0.70363 5.540453,2.54552 5.031431,11.31679 -0.531822,9.16416 0.139682,10.47636 5.361082,10.47636 5.472467,0 5.932402,-1.2202 5.528469,-14.66691 -0.242319,-8.06679 -0.547168,-16.17937 -0.677433,-18.02795 -0.130259,-1.84858 -4.452128,-5.44901 -9.604142,-8.00097 -9.956743,-4.93191 -10.429956,-6.73555 -10.092208,-38.466 0.110133,-10.3463 4.273131,-18.63868 7.608997,-15.1566 0.891306,0.93038 1.842572,10.06574 2.11392,20.30081 0.374917,14.14141 1.571174,19.23879 4.982647,21.23166 3.729375,2.17853 4.788586,0.95708 6.25749,-7.21611 2.411865,-13.41994 -0.910374,-44.12419 -5.145538,-47.55523 -4.416683,-3.57808 -9.739864,-19.59283 -9.739864,-29.30227 0,-5.45272 -1.981962,-8.45839 -7.220438,-10.94983 -12.151681,-5.77941 -2.282082,-8.54802 30.638684,-8.5948 22.445312,-0.0319 30.109162,0.85282 30.109162,3.47575 0,1.93518 -2.40873,5.08876 -5.35274,7.00791 -4.29992,2.80307 -5.35274,6.51499 -5.35274,18.8721 0,14.21511 -0.63129,15.78347 -8.31692,20.66226 -7.932104,5.03527 -8.355958,6.22904 -9.160784,25.80061 -1.089409,26.49215 0.111512,31.2263 6.951944,27.40493 4.29812,-2.40113 5.17301,-5.95925 5.17301,-21.03829 0,-13.78019 0.99407,-18.54659 4.12999,-19.80268 5.65715,-2.26604 6.18011,-1.29612 8.07992,14.98574 2.54295,21.79378 -8.22919,39.9313 -23.710407,39.92224 -2.907275,-0.002 -3.290887,6.71875 -2.033293,35.6215 0.219968,5.05585 9.98942,4.29547 11.90927,-0.92692 0.89349,-2.43045 1.62452,-7.45911 1.62452,-11.17478 0,-4.89328 1.47567,-6.75575 5.35275,-6.75575 5.07823,0 5.35274,1.86247 5.35274,36.31806 0,22.34955 -1.02937,36.31807 -2.67637,36.31807 -1.472,0 -2.67637,1.8144 -2.67637,4.0321 0,9.5888 -25.723177,16.6658 -39.507133,10.8692 z m 27.396453,-16.6273 c 3.19354,-3.3335 4.12169,-8.6491 3.53663,-20.25434 l -0.79324,-15.73459 -13.12293,-0.86897 c -7.324478,-0.48502 -13.902194,0.44718 -14.886565,2.10978 -1.525496,2.57651 -1.707519,15.13816 -0.455112,31.40812 0.239642,3.1132 3.314,5.0943 9.060914,5.8387 4.784013,0.6197 9.515453,1.328 10.514309,1.5739 0.998868,0.2458 3.764564,-1.5868 6.145994,-4.0726 z m -0.45544,-165.68819 c 1.18466,-0.11421 1.78684,-6.17912 1.33818,-13.47766 -0.77868,-12.66742 -1.17743,-13.27006 -8.780381,-13.27006 -6.248284,0 -8.514289,1.63136 -10.515124,7.57011 -3.677648,10.91575 1.626838,22.13869 9.72077,20.56661 3.345454,-0.64976 7.051897,-1.27482 8.236555,-1.389 z m -30.493888,-67.4099 c -1.440772,-0.92949 -1.847757,-3.78948 -0.904411,-6.35558 1.424303,-3.87438 5.751543,-4.6656 25.516165,-4.6656 22.016744,0 23.800994,0.41885 23.800994,5.58739 0,3.07307 -0.90327,5.61857 -2.00727,5.65667 -35.467646,1.22437 -44.227365,1.1823 -46.405478,-0.22292 z"
       id="path3039"
       inkscape:connector-curvature="0" />
  </g>
</svg>
