<?xml version="1.0" encoding="UTF-8" standalone="no"?>
<!-- Created with Inkscape (http://www.inkscape.org/) -->

<svg
   xmlns:dc="http://purl.org/dc/elements/1.1/"
   xmlns:cc="http://creativecommons.org/ns#"
   xmlns:rdf="http://www.w3.org/1999/02/22-rdf-syntax-ns#"
   xmlns:svg="http://www.w3.org/2000/svg"
   xmlns="http://www.w3.org/2000/svg"
   xmlns:sodipodi="http://sodipodi.sourceforge.net/DTD/sodipodi-0.dtd"
   xmlns:inkscape="http://www.inkscape.org/namespaces/inkscape"
   width="300"
   height="300"
   id="svg2"
   version="1.1"
   inkscape:version="0.92.4 (5da689c313, 2019-01-14)"
   sodipodi:docname="image-bigseal.svg">
  <defs
     id="defs4" />
  <sodipodi:namedview
     id="base"
     pagecolor="#ffffff"
     bordercolor="#666666"
     borderopacity="1.0"
     inkscape:pageopacity="0.0"
     inkscape:pageshadow="2"
     inkscape:zoom="1.4142136"
     inkscape:cx="314.10847"
     inkscape:cy="126.26944"
     inkscape:document-units="px"
     inkscape:current-layer="layer1"
     showgrid="false"
     inkscape:window-width="1872"
     inkscape:window-height="1016"
     inkscape:window-x="48"
     inkscape:window-y="27"
     inkscape:window-maximized="1" />
  <metadata
     id="metadata7">
    <rdf:RDF>
      <cc:Work
         rdf:about="">
        <dc:format>image/svg+xml</dc:format>
        <dc:type
           rdf:resource="http://purl.org/dc/dcmitype/StillImage" />
        <dc:title />
      </cc:Work>
    </rdf:RDF>
  </metadata>
  <g
     inkscape:label="Calque 1"
     inkscape:groupmode="layer"
     id="layer1"
     transform="translate(0,-752.36218)">
    <path
       style="fill:#000000;stroke-width:5.99873781"
       d="m 52.339832,1032.098 c -10.345155,-12.3029 -15.630425,-91.64215 -6.104903,-91.64215 3.695793,0 6.719586,6.7045 6.719586,14.89889 0,5.94249 0.08674,14.14987 0.08674,14.14987 0,0 8.953234,0.74902 15.008705,0.74902 7.05507,0 13.47955,0.0282 13.47955,0.0282 l 0.80371,-27.19855 c 0,0 -11.20526,-1.68679 -15.792801,-3.85098 -17.719639,-8.35935 -30.857265,-42.37393 -23.587779,-61.07114 6.026887,-15.5014 16.040059,-4.75167 16.040059,17.22002 0,9.21606 2.792254,18.06125 6.574484,23.93383 4.136816,6.42315 17.151347,7.19701 17.151347,7.19701 0,0 0.73368,-17.16537 0.4471,-29.39387 -0.3826,-16.32619 -2.62465,-33.61582 -2.62465,-33.61582 0,0 -10.975367,-3.80376 -13.757507,-7.06709 -8.302491,-9.73845 -13.828958,-23.36413 -13.828958,-29.66821 0,-4.02632 -0.705817,-10.39647 -0.705817,-10.39647 0,0 -7.905848,-1.06536 -11.873701,-1.06536 -7.368324,0 -11.546387,-3.08603 -10.085626,-7.44944 2.696714,-8.055 75.338589,-13.63081 99.525599,-7.63932 16.57848,4.10673 18.25818,15.08876 2.30785,15.08876 -3.73071,0 -12.79276,1.10278 -12.79276,1.10278 0,0 -0.959,11.24699 -2.46692,19.18027 -2.12043,11.15569 -7.85719,21.79868 -12.74835,23.65115 -2.35483,0.89187 -9.35145,3.99998 -9.35145,3.99998 0,0 0.45842,17.80829 0.45842,33.06249 0,17.1831 -0.35571,29.58219 -0.35571,29.58219 0,0 6.09635,-0.59016 9.07586,-3.03077 4.79613,-3.92853 9.5512,-16.99545 10.56682,-29.03757 2.52202,-29.90195 14.0698,-24.56284 13.32433,6.16045 -0.46433,19.14013 -4.1882,27.4981 -16.60499,37.26998 -5.40946,4.25718 -15.13441,5.99727 -15.13441,5.99727 0,0 0.20107,12.45029 -0.29669,14.89046 -0.76812,3.76552 -0.73374,12.39226 -0.73374,12.39226 0,0 7.95007,-0.27251 12.23488,-0.27251 2.88269,0 12.07038,-0.0587 12.07038,-0.0587 0,0 0.006,-6.6755 0.006,-11.50864 0,-6.36206 2.71718,-13.22485 6.03819,-15.25062 10.34895,-6.31272 7.33343,70.01723 -3.36146,85.08743 -11.75542,16.5647 -56.844314,18.8769 -69.711367,3.5749 z m 56.604718,-12.6679 c 11.76126,-11.6081 10.15016,-31.99275 10.15016,-31.99275 0,0 -15.69068,0.69494 -32.09291,0.69494 -17.067321,0 -32.003796,0.46927 -32.003796,0.46927 0,0 1.277943,8.03313 2.610441,14.91284 1.208973,6.2419 2.322112,13.9652 7.785504,18.5358 6.083541,5.0895 16.892551,6.72 25.299181,7.4212 2.49074,0.208 11.60944,-3.4858 18.25142,-10.0413 z m -5.75352,-190.03708 c 0.78859,-6.74333 -0.95045,-13.14829 -0.95045,-13.14829 0,0 -8.73829,-0.93953 -15.67503,-0.93953 -7.01979,0 -16.575115,0.63672 -16.575115,0.63672 0,0 1.078625,8.61245 1.078625,13.26889 0,7.64813 1.9054,15.7862 4.2342,18.08469 8.94743,8.83098 26.0614,-2.2858 27.88777,-17.90248 z m 70.52705,194.49658 c -10.27547,-10.1416 -12.07635,-19.8651 -12.07635,-65.20335 0,-56.21487 7.92888,-76.02002 14.41264,-36.00072 1.58826,9.80302 2.59401,24.43873 2.59401,24.43873 0,0 11.87272,-0.70885 25.33196,-0.70885 13.4161,0 24.02357,-1.09402 24.02357,-1.09402 0,0 0.0578,-10.89604 0.0578,-19.41269 0,-32.97297 10.11751,-29.74539 13.6845,4.36543 5.07786,48.55929 -1.15644,86.66777 -15.83874,96.81787 -17.54151,12.1265 -37.92551,10.8758 -52.18937,-3.2024 z m 50.5378,-19.3685 c 2.00251,-7.37498 3.67803,-19.44308 3.72338,-26.81803 0.0319,-5.18654 -0.53674,-14.39261 -0.53674,-14.39261 0,0 -11.82946,0.98361 -23.53355,0.98361 -13.05624,0 -24.09072,1.25541 -24.09072,1.25541 0,0 -0.062,11.25951 -0.062,21.58953 0,27.16369 2.88099,30.79109 24.45487,30.79109 11.90722,0 17.40196,-3.6758 20.04475,-13.409 z m -86.5597,-131.11024 c 0.11413,-4.09719 11.6619,-28.90384 25.66226,-55.12588 33.01181,-61.8299 39.93114,-62.09528 77.68388,-2.97978 15.69944,24.58317 28.71147,48.04891 28.91557,52.14611 0.89975,18.06305 -12.63283,3.95571 -39.34724,-41.01843 l -29.54951,-41.96792 -25.43307,44.9477 c -25.7925,45.58293 -38.48076,63.73666 -37.93189,43.9982 z m 29.98372,1.48989 c 0,-3.27776 14.94449,-5.95956 33.20998,-5.95956 18.2655,0 33.20998,2.6818 33.20998,5.95956 0,3.27775 -14.94448,5.95955 -33.20998,5.95955 -18.26549,0 -33.20998,-2.6818 -33.20998,-5.95955 z M 46.916342,770.60854 c 0,-7.88133 6.641449,-9.18612 39.302858,-7.72173 52.34461,2.34693 53.36693,13.19904 1.45484,15.44347 -33.991738,1.46962 -40.757698,0.18772 -40.757698,-7.72174 z"
       id="path27"
       inkscape:connector-curvature="0"
       sodipodi:nodetypes="csscsccccsscscsscscssccccsccccscscscssccscscsscsccscssccsscscsscccccscsscccscccscsssssssssss" />
  </g>
</svg>
