<?xml version="1.0" encoding="UTF-8" standalone="no"?>
<!-- Created with Inkscape (http://www.inkscape.org/) -->

<svg
   xmlns:dc="http://purl.org/dc/elements/1.1/"
   xmlns:cc="http://creativecommons.org/ns#"
   xmlns:rdf="http://www.w3.org/1999/02/22-rdf-syntax-ns#"
   xmlns:svg="http://www.w3.org/2000/svg"
   xmlns="http://www.w3.org/2000/svg"
   xmlns:sodipodi="http://sodipodi.sourceforge.net/DTD/sodipodi-0.dtd"
   xmlns:inkscape="http://www.inkscape.org/namespaces/inkscape"
   width="300"
   height="300"
   id="svg2"
   version="1.1"
   inkscape:version="0.48.3.1 r9886"
   sodipodi:docname="Nouveau document 1">
  <defs
     id="defs4" />
  <sodipodi:namedview
     id="base"
     pagecolor="#ffffff"
     bordercolor="#666666"
     borderopacity="1.0"
     inkscape:pageopacity="0.0"
     inkscape:pageshadow="2"
     inkscape:zoom="1.979899"
     inkscape:cx="171.10519"
     inkscape:cy="189.62469"
     inkscape:document-units="px"
     inkscape:current-layer="layer1"
     showgrid="false"
     inkscape:window-width="1215"
     inkscape:window-height="1000"
     inkscape:window-x="65"
     inkscape:window-y="24"
     inkscape:window-maximized="1" />
  <metadata
     id="metadata7">
    <rdf:RDF>
      <cc:Work
         rdf:about="">
        <dc:format>image/svg+xml</dc:format>
        <dc:type
           rdf:resource="http://purl.org/dc/dcmitype/StillImage" />
        <dc:title></dc:title>
      </cc:Work>
    </rdf:RDF>
  </metadata>
  <g
     inkscape:label="Calque 1"
     inkscape:groupmode="layer"
     id="layer1"
     transform="translate(0,-752.36218)">
    <path
       style="fill:#000000"
       d="m 153.54495,1044.0722 c -20.01719,-5.1642 -26.80514,-10.3028 -28.73342,-21.7519 -0.91777,-5.4492 -2.27454,-13.641 -3.01502,-18.2039 -1.70886,-10.52982 3.76879,-22.02702 10.49429,-22.02702 3.64154,0 5.17083,1.94964 5.17083,6.59198 0,4.41004 1.62826,6.6877 4.91929,6.88098 2.70562,0.1582 9.06425,0.61489 14.13025,1.01331 10.67886,0.83983 15.32822,-4.64154 11.66129,-13.74824 -2.25739,-5.60608 -11.54868,-9.61189 -19.79182,-8.53292 -12.04624,1.57654 -27.90011,-0.68847 -33.10406,-4.72988 -7.54327,-5.85816 -12.14684,-26.99521 -7.24813,-33.27922 5.67519,-7.28024 12.56701,-2.4749 12.56701,8.76232 0,14.36314 6.64705,18.83857 28.12251,18.93482 9.63631,0.0422 18.92335,-1.23719 20.63785,-2.84537 4.52044,-4.24022 -1.30727,-11.82127 -9.83306,-12.79161 -11.67739,-1.32868 -21.5468,-11.4297 -22.56144,-23.09089 l -0.90521,-10.40358 -14.05513,-1.31839 c -13.33274,-1.25063 -14.43501,-2.13564 -13.07127,-10.49502 0.25282,-1.54972 8.11205,-2.04862 19.62782,-1.24602 10.56339,0.73625 41.60885,1.69562 68.98987,2.13193 41.72891,0.66495 50.53321,1.49633 54.41598,5.13843 6.96294,6.53136 2.46811,8.32881 -18.79167,7.51464 l -19.2587,-0.73753 -1.92943,10.71237 c -1.06117,5.89177 -3.08319,10.71242 -4.49337,10.71242 -1.41016,0 -2.56394,1.75715 -2.56394,3.90482 0,2.14767 -3.47865,4.68452 -7.73032,5.63719 -10.77883,2.41531 -14.75789,5.92778 -14.75789,13.02761 0,5.566 0.92819,5.96917 10.54135,4.57879 17.13165,-2.47779 25.20658,-7.64749 28.948,-18.53296 4.76073,-13.85134 5.4394,-14.57197 10.21904,-10.85119 6.17381,4.80634 2.86489,30.76477 -4.54189,35.63125 -4.83896,3.17917 -5.37339,6.56956 -4.91778,31.19878 0.50068,27.0656 0.35183,27.7707 -7.26312,34.3996 -5.23181,4.5543 -13.04598,7.5777 -23.89374,9.2443 -19.52561,2.9999 -21.0348,2.943 -37.98497,-1.4299 z m 37.18349,-14.9891 c 11.36024,-2.4596 14.6888,-4.4035 16.01271,-9.3514 0.91924,-3.4355 0.93433,-6.938 0.0334,-7.7828 -0.90079,-0.8448 -16.54849,-1.6796 -34.77265,-1.8546 l -33.1349,-0.3186 -0.84488,6.8177 c -0.99996,8.0691 3.36326,12.066 14.90002,13.6483 15.87341,2.1769 23.47707,1.9441 37.80617,-1.1586 z m 18.34157,-43.69773 c 1.8822,-8.3792 1.7064,-8.56957 -7.90703,-8.56957 -5.4076,0 -11.83293,-0.72038 -14.27847,-1.60054 -3.60315,-1.29704 -4.44645,0.4232 -4.44645,9.06951 0,10.42245 0.24483,10.68982 10.54135,11.51224 12.76709,1.02017 13.65113,0.44799 16.0906,-10.41164 z m -13.4879,-55.90612 c 4.71985,-11.72925 -0.17682,-16.11776 -18.84839,-16.89244 -20.46149,-0.84891 -28.02798,1.79308 -28.02798,9.78652 0,8.76805 4.88047,11.75068 21.15407,12.92828 7.69108,0.55636 15.92011,1.22557 18.28677,1.48688 2.44506,0.27001 5.65558,-2.88597 7.43553,-7.30924 z M 54.587081,1029.7014 c -0.957077,-2.8284 0.614692,-9.6198 3.508925,-15.1616 4.953238,-9.4837 13.501637,-34.05333 20.005962,-57.49995 3.980303,-14.34837 7.242058,-47.63335 9.689688,-98.8798 0.450227,-9.42654 2.890873,-21.58875 5.423659,-27.02713 l 4.605065,-9.88797 31.06472,0 c 25.58294,0 31.12675,-0.69796 31.41611,-3.95519 0.19341,-2.17535 0.50951,-7.45554 0.70277,-11.73373 0.52248,-11.56651 4.93306,-13.96058 28.31201,-15.36797 18.37402,-1.10608 21.23233,-1.94139 21.23233,-6.20498 0,-4.49784 -2.5652,-4.92682 -29.46223,-4.92682 -32.23157,0 -30.07463,-1.11597 -32.99856,17.07291 -1.32177,8.22237 -12.89524,11.85078 -37.93451,11.89294 -20.55427,0.0345 -23.436897,-0.5655 -26.229749,-5.46056 -1.725725,-3.02466 -2.318501,-6.26781 -1.317286,-7.20696 1.001204,-0.93915 12.172112,-1.41875 24.824225,-1.06576 24.9197,0.69526 28.25215,-0.29654 31.2475,-9.29979 1.9405,-5.83271 1.57046,-5.93278 -21.94344,-5.93278 -13.15451,0 -24.610479,-1.0521 -25.457737,-2.33801 -4.221136,-6.40662 8.516375,-8.09765 66.257377,-8.79627 68.72552,-0.83151 69.88057,-0.52137 69.88057,18.76355 0,13.4367 -4.79789,16.10186 -28.98677,16.10186 -19.52511,0 -26.23863,3.66327 -23.19561,12.6568 1.48394,4.38564 5.58278,5.19505 33.38511,6.59266 36.12191,1.81585 41.28549,3.0712 41.28549,10.03738 0,5.75466 0.6526,5.64972 -31.31976,5.03695 -25.40094,-0.48683 -29.47294,1.1429 -26.29831,10.52529 1.59909,4.72595 4.28283,5.24999 26.88621,5.24999 13.81037,0 25.1098,0.49624 25.1098,1.10273 0,0.60652 0.76784,2.97963 1.70627,5.27358 1.18828,2.9047 0.079,4.17086 -3.65434,4.17086 -2.94831,0 -6.59581,1.15868 -8.10557,2.57483 -3.66214,3.43516 -44.87637,-0.92446 -50.55872,-5.34811 -2.36341,-1.83987 -3.616,-5.01012 -2.78354,-7.04498 0.83243,-2.03487 -0.44614,-7.25448 -2.8413,-11.59912 -3.65951,-6.63807 -5.78828,-7.76917 -13.33248,-7.08413 -8.26816,0.75076 -9.04973,1.64607 -9.88987,11.32892 -1.33085,15.33865 -4.12211,17.17259 -26.13672,17.17259 -17.45899,0 -19.33301,-0.51119 -19.33301,-5.27358 0,-4.25007 1.87402,-5.27359 9.65559,-5.27359 13.94509,0 24.07673,-4.27498 24.07673,-10.15904 0,-7.65909 -5.71274,-10.14263 -20.45731,-8.89361 -17.80129,1.50798 -20.43158,6.75779 -22.81068,45.52784 -1.027034,16.7367 -2.351827,33.3485 -2.944001,36.91509 -3.893623,23.45125 -5.495315,33.49901 -6.077627,38.12632 -2.521959,20.04041 -13.029461,54.79944 -21.322111,70.53414 -5.677648,10.773 -12.150773,12.8447 -14.88487,4.7642 z M 136.75887,887.73294 c -6.77033,-0.80441 -11.42095,-8.02996 -5.62205,-8.73482 8.06697,-0.98055 84.33057,-1.28724 87.14182,-0.35043 1.93259,0.644 3.51379,3.47908 3.51379,6.30017 0,4.86701 -1.9761,5.0928 -38.65162,4.41638 -21.25839,-0.39206 -42.13026,-1.12618 -46.38194,-1.6313 z"
       id="path2996"
       inkscape:connector-curvature="0" />
  </g>
</svg>
