<?xml version="1.0" encoding="UTF-8" standalone="no"?>
<!-- Created with Inkscape (http://www.inkscape.org/) -->

<svg
   xmlns:dc="http://purl.org/dc/elements/1.1/"
   xmlns:cc="http://creativecommons.org/ns#"
   xmlns:rdf="http://www.w3.org/1999/02/22-rdf-syntax-ns#"
   xmlns:svg="http://www.w3.org/2000/svg"
   xmlns="http://www.w3.org/2000/svg"
   xmlns:sodipodi="http://sodipodi.sourceforge.net/DTD/sodipodi-0.dtd"
   xmlns:inkscape="http://www.inkscape.org/namespaces/inkscape"
   width="300"
   height="300"
   id="svg2"
   version="1.1"
   inkscape:version="0.48.4 r9939"
   sodipodi:docname="image-seal.svg">
  <defs
     id="defs4" />
  <sodipodi:namedview
     id="base"
     pagecolor="#ffffff"
     bordercolor="#666666"
     borderopacity="1.0"
     inkscape:pageopacity="0.0"
     inkscape:pageshadow="2"
     inkscape:zoom="2.0018437"
     inkscape:cx="145.03351"
     inkscape:cy="130.6666"
     inkscape:document-units="px"
     inkscape:current-layer="layer1"
     showgrid="false"
     inkscape:window-width="1215"
     inkscape:window-height="1000"
     inkscape:window-x="65"
     inkscape:window-y="24"
     inkscape:window-maximized="1"
     fit-margin-top="10"
     fit-margin-left="10"
     fit-margin-right="10"
     fit-margin-bottom="10" />
  <metadata
     id="metadata7">
    <rdf:RDF>
      <cc:Work
         rdf:about="">
        <dc:format>image/svg+xml</dc:format>
        <dc:type
           rdf:resource="http://purl.org/dc/dcmitype/StillImage" />
        <dc:title />
      </cc:Work>
    </rdf:RDF>
  </metadata>
  <g
     inkscape:label="Calque 1"
     inkscape:groupmode="layer"
     id="layer1"
     transform="translate(0,-752.36218)">
    <path
       style="fill:#000000"
       d="m 220.36736,1043.8586 c -2.10947,-2.5418 -2.21338,-6.5672 -0.33828,-13.1051 4.10415,-14.3107 3.1633,-25.3089 -2.81927,-32.95727 -2.97156,-3.79889 -5.43335,-8.15034 -5.4707,-9.66989 -0.0373,-1.51956 -3.7919,-7.11428 -8.34344,-12.43272 -10.21917,-11.94094 -10.49012,-20.71706 -1.22396,-39.64105 5.8,-11.84507 6.55506,-15.76745 4.21837,-21.91342 -2.45312,-6.45219 -4.09631,-7.32301 -11.89947,-6.30612 -4.97933,0.6489 -11.83753,1.26371 -15.24045,1.36627 -6.04383,0.18207 -6.18366,0.91563 -6.03747,31.67275 0.17074,35.90017 -1.58885,48.73268 -8.56245,62.44985 -2.70381,5.3184 -6.41956,13.6793 -8.2572,18.5797 -1.83764,4.9002 -5.72519,11.6586 -8.63901,15.0182 -4.85,5.5922 -5.67045,5.7359 -9.7057,1.7005 -3.35534,-3.3551 -3.65712,-5.2922 -1.26388,-8.1111 8.3373,-9.8204 17.30991,-25.9291 18.78322,-33.72195 0.9006,-4.76339 2.73578,-10.06774 4.07815,-11.78705 2.97176,-3.80662 3.51156,-36.68841 0.88936,-54.17462 -2.79283,-18.62386 1.96561,-30.58002 13.88608,-34.89053 9.3952,-3.39734 9.63462,-3.85707 9.63462,-18.50064 0,-8.25919 -1.20042,-15.01671 -2.66759,-15.01671 -4.33653,0 -19.43504,16.02534 -19.43504,20.6281 0,2.33053 -1.24327,4.23735 -2.76282,4.23735 -1.51956,0 -2.76283,1.67223 -2.76283,3.71603 0,5.49186 -9.22718,12.86093 -16.1038,12.86093 -3.29937,0 -5.99882,-1.43595 -5.99882,-3.19104 0,-1.91762 -2.00175,-1.37945 -5.01624,1.34862 -2.75894,2.4968 -8.9611,5.32858 -13.78259,6.29289 l -8.76636,1.75326 0.57648,19.12559 c 0.56382,18.706 0.72983,19.10771 7.56623,18.31009 5.90475,-0.68905 7.12285,-2.42383 7.84723,-11.17619 0.92726,-11.20354 3.3327,-12.81897 8.97143,-6.0249 5.0019,6.02711 4.91493,60.85569 -0.11137,70.20367 -6.40326,11.9089 -10.13943,13.8711 -26.41169,13.8711 -17.625741,0 -35.912352,-8.2274 -38.848544,-17.47848 -3.174344,-10.00143 -1.601453,-57.86023 1.974223,-60.07021 5.017305,-3.101 10.744648,0.10222 10.744648,6.0108 0,3.96936 1.998035,5.23003 8.288482,5.23003 8.104292,0 8.288481,-0.30695 8.288481,-13.81413 0,-15.27556 -4.107699,-21.32875 -18.924305,-27.88723 -5.95292,-2.63502 -8.703966,-5.77113 -8.703966,-9.92231 0,-3.33827 -1.243273,-6.83797 -2.762827,-7.77711 -1.519555,-0.93914 -2.762828,-7.85052 -2.762828,-15.35861 0,-11.71599 0.767558,-13.65107 5.414749,-13.65107 4.048755,0 6.186155,2.96219 8.472558,11.74201 6.088094,23.37835 7.019592,25.51623 11.49304,26.37776 3.809303,0.73359 4.69445,-2.31638 5.468561,-18.84323 0.960759,-20.51169 -0.730859,-26.4823 -9.22411,-32.55663 -2.883132,-2.062 -5.047835,-7.02031 -5.047835,-11.56215 0,-13.93857 -4.718008,-22.10242 -13.82604,-23.92404 -4.615358,-0.92309 -8.905291,-2.50956 -9.533182,-3.52551 -3.614005,-5.84757 5.95056,-7.85253 43.389725,-9.09558 37.79537,-1.25485 40.75171,-0.99484 40.75171,3.58413 0,2.71545 -2.48655,5.72635 -5.52566,6.69093 -3.58581,1.13809 -5.63754,4.35571 -5.84436,9.16538 -0.74829,17.40255 -4.08268,24.40916 -13.62654,28.63369 -4.94093,2.18705 -8.2466,5.79597 -8.38366,9.15272 -0.48839,11.96163 0.73503,38.74415 1.81935,39.82845 0.63052,0.63053 4.25984,-0.27214 8.06515,-2.00598 6.35356,-2.89489 6.91874,-4.62423 6.91874,-21.17 0,-13.8458 0.92181,-18.01761 3.98119,-18.01761 5.94273,0 7.16086,3.53103 7.68881,22.28734 l 0.48032,17.06549 7.04828,-8.82707 c 12.78887,-16.01647 31.83271,-35.14172 36.74867,-36.90582 7.97565,-2.86204 5.5258,-7.33431 -6.94622,-12.68043 -15.21183,-6.52055 -19.36739,-11.81007 -22.7996,-29.02105 -3.72774,-18.69287 -2.49798,-23.75196 5.77365,-23.75196 6.33201,0 6.70449,0.89631 6.70449,16.13347 0,14.60745 0.66562,16.43678 7.03706,19.33979 14.36558,6.54541 15.35929,5.20185 14.48659,-19.58701 l -0.80243,-22.79332 -11.9769,-1.59835 c -13.81687,-1.84391 -19.3491,-7.64472 -12.30897,-12.9065 6.68347,-4.99521 35.70298,-4.55952 37.66967,0.56556 0.84824,2.21048 1.1805,14.95402 0.73836,28.31897 -0.89151,26.94887 -0.13372,31.20697 5.55381,31.20697 6.74688,0 14.8379,-16.93602 14.84903,-31.08181 0.0111,-14.60906 -0.21992,-14.36872 9.55021,-9.91711 5.9907,2.72953 7.03709,5.01605 7.03709,15.37717 0,18.89371 -9.8526,32.70351 -25.57591,35.84816 -4.23115,0.84622 -8.42101,2.71652 -9.31075,4.15617 -1.8956,3.06713 5.47313,10.23031 16.23758,15.78467 4.17877,2.15622 7.59777,4.95358 7.59777,6.21636 0,1.26278 1.85709,2.29597 4.12689,2.29597 2.2698,0 7.86453,5.15963 12.43272,11.46584 8.33192,11.50184 10.48397,20.0158 5.79233,22.91541 -3.8161,2.35846 -11.30063,-1.32823 -11.30063,-5.56643 0,-2.06137 -7.63836,-10.10463 -16.97412,-17.87395 -19.39281,-16.13886 -21.59589,-15.35496 -21.66316,7.70821 -0.0403,13.83696 0.29275,14.50484 7.23402,14.50484 4.49169,0 9.74466,2.87257 13.72619,7.50619 11.70174,13.61817 11.24634,27.55823 -1.37069,41.95671 -3.19974,3.65162 -5.81768,8.55785 -5.81768,10.90294 0,3.9257 12.67941,24.77814 17.08703,28.10071 4.58718,3.45824 7.77841,18.31893 7.77841,36.22205 0,25.3194 -5.43059,35.9869 -13.41941,26.3612 z m -102.6052,-49.47695 c 4.54971,-4.88357 5.5849,-9.07865 4.94258,-20.03049 l -0.81249,-13.85309 -20.7212,0 -20.721209,0 -0.823577,17.30745 c -0.754304,15.85172 -0.289525,17.52185 5.525654,19.85533 11.960227,4.79955 26.440402,3.34325 32.610242,-3.2792 z m -3.98001,-166.47848 c 2.71719,-14.48388 0.28234,-17.97918 -12.52439,-17.97918 -11.054775,0 -11.138024,0.0785 -11.138024,10.49874 0,12.45123 3.889538,17.12953 14.241514,17.12953 6.50742,0 7.87314,-1.39879 9.4209,-9.64909 z M 70.834246,776.80363 c -1.848447,-1.1424 -2.915081,-4.41467 -2.370295,-7.27171 0.843571,-4.42392 4.780354,-5.54485 26.536034,-7.55564 14.050035,-1.29858 27.402625,-1.64841 29.672425,-0.77743 4.99665,1.9174 5.50593,12.55125 0.67337,14.06008 -7.28032,2.27309 -51.313998,3.52087 -54.511534,1.5447 z"
       id="path3029"
       inkscape:connector-curvature="0" />
  </g>
</svg>
