<?xml version="1.0" encoding="UTF-8" standalone="no"?>
<!-- Created with Inkscape (http://www.inkscape.org/) -->

<svg
   xmlns:dc="http://purl.org/dc/elements/1.1/"
   xmlns:cc="http://creativecommons.org/ns#"
   xmlns:rdf="http://www.w3.org/1999/02/22-rdf-syntax-ns#"
   xmlns:svg="http://www.w3.org/2000/svg"
   xmlns="http://www.w3.org/2000/svg"
   xmlns:sodipodi="http://sodipodi.sourceforge.net/DTD/sodipodi-0.dtd"
   xmlns:inkscape="http://www.inkscape.org/namespaces/inkscape"
   width="300"
   height="300"
   id="svg2"
   version="1.1"
   inkscape:version="0.48.4 r9939"
   sodipodi:docname="image-seal.svg">
  <defs
     id="defs4" />
  <sodipodi:namedview
     id="base"
     pagecolor="#ffffff"
     bordercolor="#666666"
     borderopacity="1.0"
     inkscape:pageopacity="0.0"
     inkscape:pageshadow="2"
     inkscape:zoom="2.0018437"
     inkscape:cx="145.03351"
     inkscape:cy="130.6666"
     inkscape:document-units="px"
     inkscape:current-layer="layer1"
     showgrid="false"
     inkscape:window-width="1215"
     inkscape:window-height="1000"
     inkscape:window-x="65"
     inkscape:window-y="24"
     inkscape:window-maximized="1"
     fit-margin-top="10"
     fit-margin-left="10"
     fit-margin-right="10"
     fit-margin-bottom="10" />
  <metadata
     id="metadata7">
    <rdf:RDF>
      <cc:Work
         rdf:about="">
        <dc:format>image/svg+xml</dc:format>
        <dc:type
           rdf:resource="http://purl.org/dc/dcmitype/StillImage" />
        <dc:title />
      </cc:Work>
    </rdf:RDF>
  </metadata>
  <g
     inkscape:label="Calque 1"
     inkscape:groupmode="layer"
     id="layer1"
     transform="translate(0,-752.36218)">
    <path
       style="fill:#000000"
       d="m 71.098747,1039.9531 -9.733249,-8.1633 0,-35.18336 c 0,-28.42876 0.857907,-35.5126 4.468653,-36.89816 2.925036,-1.12244 6.089276,1.41914 9.160226,7.35771 6.21921,12.02662 11.23412,9.69687 13.99979,-6.50382 2.86991,-16.81134 0.9453,-22.68271 -8.18659,-24.97466 -4.0133,-1.00729 -10.09114,-4.83066 -13.50631,-8.49641 -5.514526,-5.91917 -6.045438,-9.35034 -4.744248,-30.66095 0.805829,-13.19776 1.541238,-24.33284 1.634237,-24.74463 0.09299,-0.41179 2.046421,-0.74871 4.340941,-0.74871 5.90298,0 7.80078,6.75359 7.8534,27.94729 0.0494,19.89794 2.96257,27.74495 9.38514,25.28001 2.8766,-1.10402 4.32696,-9.34815 5.01866,-28.52718 0.92379,-25.61391 0.58392,-27.36335 -6.7384,-34.68569 -5.69114,-5.69114 -7.71126,-10.82101 -7.71126,-19.58184 0,-16.77768 -2.46269,-21.3382 -11.551096,-21.39085 -11.124019,-0.0644 -17.867388,-4.67693 -13.387348,-9.15695 2.202632,-2.20265 19.901624,-3.87806 48.641257,-4.60452 43.53207,-1.10031 45.17867,-0.92409 45.17867,4.83527 0,4.64477 -2.00284,5.97721 -8.98454,5.97721 -8.85514,0 -8.98455,0.2291 -8.98455,15.90695 0,17.12672 -7.18098,29.01576 -17.52554,29.01576 -4.75391,0 -5.29298,3.22937 -5.12431,30.69718 0.18838,30.69683 0.18868,30.69719 7.67562,30.69719 6.98823,0 7.53686,-1.09755 8.23379,-16.47166 1.12948,-24.91704 3.59028,-35.93817 8.02427,-35.93817 5.52912,0 6.95736,7.38095 5.74191,29.67304 -1.15263,21.13928 -7.44963,30.5908 -22.8892,34.35569 -8.18507,1.99591 -8.35605,2.46784 -7.48712,20.66804 0.79809,16.71667 1.57981,18.72354 7.62763,19.58247 5.61277,0.79714 6.74608,-0.45357 6.78426,-7.48712 0.0686,-12.63907 4.27587,-18.04896 10.20788,-13.12582 3.73901,3.10311 4.72051,10.33911 4.72051,34.80189 0,47.159 -5.14973,55.8555 -34.111603,57.6056 -16.39235,0.9906 -19.312,0.2555 -28.03148,-7.0575 z m 43.043293,-8.1604 c 0.61709,-0.6171 2.0028,-11.5424 3.07939,-24.2784 l 1.95743,-23.15636 -20.450063,1.83851 c -11.24757,1.01118 -21.60157,2.55014 -23.00891,3.4199 -1.40733,0.86979 -1.9068,5.85631 -1.10993,11.08115 4.76384,31.235 4.87808,31.5609 11.5621,32.9845 6.76547,1.441 25.934503,0.1462 27.969983,-1.8893 z m -3.62742,-184.52091 c 3.46965,-3.83394 4.84515,-9.46321 4.2077,-17.22037 -0.92397,-11.24409 -1.25664,-11.54684 -13.6751,-12.44536 -11.738273,-0.84928 -12.728093,-0.35438 -12.728093,6.36405 0,19.58541 3.61926,26.38102 15.258763,28.65021 0.9801,0.19107 4.10163,-2.21577 6.93673,-5.34853 z m 51.62835,189.51561 c -6.17345,-6.6578 -7.58768,-12.0041 -9.30849,-35.1894 -2.2662,-30.53416 -1.62171,-56.93694 1.51371,-62.01019 1.13999,-1.84452 4.60659,-2.86208 7.70356,-2.26119 4.87106,0.94511 5.68051,4.11659 5.99895,23.50476 l 0.36813,22.41221 28.08292,0 c 27.95855,0 28.08292,-0.0333 28.08292,-7.48712 0,-6.85689 -1.25409,-7.56628 -14.89819,-8.42738 -8.194,-0.51715 -16.37451,-2.16552 -18.17891,-3.66303 -5.51327,-4.57562 -5.3381,-31.28588 0.2354,-35.91158 6.04261,-5.01493 9.18274,-0.89243 11.99379,15.7461 1.69583,10.03756 2.87658,11.29196 10.62908,11.29196 7.18637,0 8.72129,-1.25317 8.72129,-7.12043 0,-9.83874 7.45891,-15.84308 13.47681,-10.84866 3.60787,2.99425 4.49227,12.11518 4.49227,46.32858 0,36.29787 -0.77536,43.48467 -5.24098,48.57817 -9.03393,10.304 -17.57846,12.9077 -42.35849,12.9077 -22.08556,0 -24.62474,-0.6366 -31.31389,-7.8505 z m 56.07825,-7.9775 c 2.90923,-2.1273 6.0206,-9.4945 6.95643,-16.4717 1.80389,-13.44887 2.07109,-13.22188 -15.56721,-13.22188 -4.11792,0 -14.89937,0.1347 -23.95878,0.2994 l -16.47166,0.2995 0,11.80958 c 0,8.8087 1.69137,12.9942 6.65608,16.4717 8.12717,5.6924 35.00713,6.2083 42.38514,0.8134 z M 196.99174,915.11081 c -5.19466,-6.77546 -13.97022,-39.46736 -13.57265,-50.56264 0.21443,-5.98451 2.48911,-18.982 5.05479,-28.88336 6.75665,-26.07473 6.07661,-44.642 -2.07351,-56.61378 -3.70612,-5.44395 -7.74917,-9.90732 -8.98454,-9.91858 -1.23538,-0.012 -2.24614,-2.71582 -2.24614,-6.01015 0,-8.94761 8.10397,-7.29769 18.38735,3.74356 15.91596,17.08893 18.71842,35.20216 9.48267,61.2897 -7.18293,20.28917 -6.5329,47.59175 1.54211,64.77059 8.15518,17.34939 8.45397,25.92822 0.90306,25.92822 -3.09265,0 -6.91456,-1.68461 -8.49314,-3.74356 z m -36.32223,-10.82943 c -4.45508,-14.86975 -4.45172,-39.8902 0.006,-49.67532 6.302,-13.83138 9.44994,-8.59734 7.57037,12.58719 -1.3047,14.70542 -0.63457,22.25588 2.45868,27.70234 6.18667,10.89322 5.68171,20.96393 -1.05119,20.96393 -3.80831,0 -6.58941,-3.58393 -8.98454,-11.57814 z m 70.79091,2.31097 c -14.31782,-8.01265 -20.56316,-56.06965 -8.68377,-66.82034 7.13005,-6.45261 9.72718,-1.20968 5.49744,11.09791 -4.0352,11.74157 3.67803,44.02567 10.51847,44.02567 2.97487,0 2.93507,11.211 -0.0464,13.05361 -1.27053,0.78525 -4.54917,0.1746 -7.28581,-1.35685 z m -77.25466,-74.35879 c 0,-1.52079 3.3692,-6.76914 7.48712,-11.66299 9.45347,-11.23481 9.42293,-17.82168 -0.14795,-31.92528 -8.52642,-12.56434 -7.69406,-16.34848 2.40696,-10.9426 7.75785,4.15187 17.20756,19.22593 17.20756,27.44927 0,7.60176 -6.40266,21.54481 -11.94286,26.00788 -5.36431,4.32136 -15.01077,5.01137 -15.01077,1.07372 z m 64.3068,-6.35282 c -0.98656,-1.59632 0.98683,-6.80735 4.3853,-11.58009 7.45708,-10.47247 7.8975,-21.81285 1.24163,-31.97098 -3.68423,-5.6228 -4.07437,-8.39863 -1.53711,-10.9359 2.53727,-2.53729 5.23706,-1.67493 10.63632,3.39745 9.13636,8.58314 11.80989,28.38061 5.36626,39.73701 -5.13116,9.04321 -17.27799,15.90635 -20.0924,11.35251 z M 71.383497,776.46995 c -2.7605,-7.19372 -0.0595,-8.07857 28.06346,-9.19359 27.731833,-1.09946 35.854723,1.13257 32.827833,9.02052 -2.66724,6.95074 -58.229853,7.10868 -60.891293,0.1731 z"
       id="path3089"
       inkscape:connector-curvature="0" />
  </g>
</svg>
