<?xml version="1.0" encoding="UTF-8" standalone="no"?>
<!-- Created with Inkscape (http://www.inkscape.org/) -->

<svg
   xmlns:dc="http://purl.org/dc/elements/1.1/"
   xmlns:cc="http://creativecommons.org/ns#"
   xmlns:rdf="http://www.w3.org/1999/02/22-rdf-syntax-ns#"
   xmlns:svg="http://www.w3.org/2000/svg"
   xmlns="http://www.w3.org/2000/svg"
   xmlns:sodipodi="http://sodipodi.sourceforge.net/DTD/sodipodi-0.dtd"
   xmlns:inkscape="http://www.inkscape.org/namespaces/inkscape"
   width="300"
   height="300"
   id="svg2"
   version="1.1"
   inkscape:version="0.48.4 r9939"
   sodipodi:docname="image-seal.svg">
  <defs
     id="defs4" />
  <sodipodi:namedview
     id="base"
     pagecolor="#ffffff"
     bordercolor="#666666"
     borderopacity="1.0"
     inkscape:pageopacity="0.0"
     inkscape:pageshadow="2"
     inkscape:zoom="2.0018437"
     inkscape:cx="145.03351"
     inkscape:cy="130.6666"
     inkscape:document-units="px"
     inkscape:current-layer="layer1"
     showgrid="false"
     inkscape:window-width="1215"
     inkscape:window-height="1000"
     inkscape:window-x="65"
     inkscape:window-y="24"
     inkscape:window-maximized="1"
     fit-margin-top="10"
     fit-margin-left="10"
     fit-margin-right="10"
     fit-margin-bottom="10" />
  <metadata
     id="metadata7">
    <rdf:RDF>
      <cc:Work
         rdf:about="">
        <dc:format>image/svg+xml</dc:format>
        <dc:type
           rdf:resource="http://purl.org/dc/dcmitype/StillImage" />
        <dc:title />
      </cc:Work>
    </rdf:RDF>
  </metadata>
  <g
     inkscape:label="Calque 1"
     inkscape:groupmode="layer"
     id="layer1"
     transform="translate(0,-752.36218)">
    <path
       style="fill:#000000"
       d="m 79.41639,1046.3344 c -3.50125,-0.7834 -10.26554,-4.7752 -15.03174,-8.8706 -8.62273,-7.4094 -8.66502,-7.6359 -8.50381,-45.5605 0.12477,-29.32252 1.22335,-39.17516 4.76322,-42.71503 7.09918,-7.09918 15.13308,0.86447 12.58333,12.47334 -1.79304,8.16369 -1.23493,8.83873 7.30756,8.83873 10.55077,0 13.02613,-4.20205 13.02613,-22.11281 0,-11.16536 -0.84674,-12.43868 -9.41041,-14.15141 -15.17534,-3.03506 -21.48339,-15.17578 -22.0097,-42.36091 -0.49121,-25.37212 1.12752,-30.96063 8.18345,-28.25303 3.43367,1.31763 4.56763,7.3438 4.56763,24.27391 0,17.86655 1.17602,23.58543 5.69013,27.67065 3.12958,2.83225 7.07488,5.14951 8.76732,5.14951 1.69244,0 4.38256,-14.871 5.97801,-33.04665 2.78822,-31.76386 2.6543,-33.14027 -3.45007,-35.45818 C 82.1192,848.50608 78.89257,842.80263 76.50421,825.03745 74.46866,809.89653 73.6924,808.70205 65.88785,808.70205 56.19557,808.70205 50,803.64993 50,795.74639 c 0,-5.09671 3.71638,-5.35891 52.11772,-3.67708 41.47597,1.44119 52.89152,2.78246 55.90744,6.56873 5.41778,6.80172 2.11259,10.06401 -10.19637,10.06401 -9.84714,0 -10.70663,0.75737 -10.70663,9.43446 0,13.4619 -7.20765,28.90582 -16.25768,34.83564 -8.50502,5.5727 -11.71812,16.23425 -12.91446,42.85206 -0.94434,21.011 0.2371,24.89204 7.57823,24.89204 7.34888,0 12.31972,-16.91576 10.01665,-34.08645 -1.58986,-11.85322 2.36235,-21.92065 8.60543,-21.92065 5.11245,0 9.81173,22.37857 7.68184,36.58185 l -2.14962,14.33467 8.78214,-10.67862 c 13.95603,-16.96981 19.77252,-19.65348 19.77252,-9.12284 0,3.42265 1.23032,6.22301 2.73402,6.22301 1.5037,0 4.47394,4.20053 6.6005,9.33452 7.73726,18.67936 12.44602,9.60997 12.44602,-23.97176 0,-19.37815 -0.73341,-22.85413 -4.21282,-19.96647 -3.28012,2.72226 -6.01942,1.31555 -12.37331,-6.3541 l -8.16048,-9.8504 -6.52156,8.29082 c -14.11818,17.94838 -17.35231,1.78168 -3.81891,-19.08989 7.88478,-12.16017 19.52956,-17.79315 19.52956,-9.44713 0,5.31704 10.1809,27.49333 12.62188,27.49333 2.38015,0 6.04715,-23.75986 6.04715,-39.1817 0,-9.56959 5.22419,-25.66958 9.49815,-29.27142 1.01532,-0.85567 2.7501,-4.00607 3.85506,-7.00089 1.10496,-2.99483 4.57326,-5.44514 7.70736,-5.44514 3.13412,0 7.2171,-1.51872 9.07333,-3.37495 4.90511,-4.90511 17.86083,-2.18472 19.03881,3.99772 0.66449,3.48756 -4.29329,8.78842 -14.55068,15.55753 -14.7897,9.76011 -15.72209,11.20266 -18.8673,29.1914 -4.14362,23.69909 -4.20927,35.52745 -0.19726,35.52745 1.71132,0 3.1115,-2.05101 3.1115,-4.5578 0,-2.50678 2.50573,-5.89879 5.56829,-7.53784 3.06256,-1.63901 7.49969,-6.58892 9.8603,-10.99973 2.3606,-4.41084 5.12505,-8.01969 6.1432,-8.01969 1.01815,0 5.31262,5.60071 9.54327,12.44603 4.23062,6.84531 8.53694,12.44602 9.56959,12.44602 3.54889,0 8.93102,15.48749 7.06866,20.34066 -3.01543,7.85811 -11.50094,3.80011 -18.19401,-8.70083 -3.42265,-6.39265 -7.33826,-11.62679 -8.70135,-11.63143 -1.36309,-0.003 -4.86353,4.18329 -7.77877,9.30645 -3.2369,5.68849 -7.84454,9.32251 -11.83539,9.33452 -6.01373,0.0187 -6.6962,2.29128 -8.55664,28.5012 -1.11192,15.66488 -2.02167,36.66754 -2.02167,46.67259 l 0,18.19104 17.04157,0 c 14.66278,0 17.74046,1.06672 22.04872,7.64192 7.33991,11.20214 3.34125,14.32391 -16.72649,13.05815 -9.73311,-0.6139 -19.44676,-0.47233 -21.58592,0.31489 -2.49683,0.91882 -3.88938,7.85997 -3.88938,19.38651 0,10.6271 1.58736,19.2276 3.88938,21.0727 3.34437,2.6806 29.37563,6.5105 46.67259,6.8668 3.45734,0.072 5.44513,2.5468 5.44513,6.7812 0,6.6278 -0.3436,6.6596 -55.44118,5.0799 -54.57923,-1.5651 -70.86992,-4.6085 -68.17981,-12.7376 0.76804,-2.3206 10.47644,-4.0101 26.3014,-4.577 l 25.084,-0.8983 1.47868,-9.992 c 0.81328,-5.4956 0.7799,-15.2427 -0.0744,-21.66014 -1.48465,-11.15537 -2.07055,-11.66815 -13.33473,-11.66815 -14.76282,0 -21.62534,-2.55517 -21.62534,-8.05227 0,-5.27599 12.80192,-8.79905 21.70531,-5.97325 10.72542,3.40415 15.63276,-3.53367 15.63276,-22.10093 0,-15.36135 -0.54815,-16.63638 -6.85882,-15.95443 -4.79974,0.51869 -8.12003,-1.82757 -11.06003,-7.81545 -5.56739,-11.33901 -10.10913,-10.76263 -19.08878,2.42256 -5.33987,7.84071 -9.03998,10.43151 -13.07093,9.15212 -3.0924,-0.98149 -11.36279,-0.23897 -18.37858,1.65031 l -12.75596,3.43482 0.93485,16.1732 c 0.68706,11.88636 2.17196,16.17321 5.60212,16.17321 2.99127,0 5.01736,-3.63129 5.64227,-10.1124 0.73202,-7.59213 2.47679,-10.11239 7.00089,-10.11239 6.62564,0 7.20354,3.78642 6.17339,40.44942 -0.67365,23.97507 -5.07002,42.70507 -11.54322,49.17857 -4.69247,4.6922 -28.15319,7.5454 -40.08706,4.8751 z m 34.01946,-32.0581 c 4.34061,-26.23624 3.66738,-27.55054 -15.32765,-29.92369 -26.4112,-3.30006 -31.0943,3.38719 -24.56372,35.07509 1.78202,8.6469 17.89689,13.5419 29.81324,9.056 6.15026,-2.3152 8.70695,-5.9193 10.07813,-14.2074 z m 3.23927,-179.34871 c 2.68924,-2.68921 4.88951,-9.6901 4.88951,-15.55753 0,-10.54822 -0.15526,-10.66801 -13.81813,-10.66801 -16.00985,0 -17.09931,1.09254 -14.98169,15.02381 1.02123,6.71846 3.89692,11.29452 8.18616,13.02666 9.31737,3.76271 10.24407,3.65515 15.72415,-1.82493 z m 128.67507,89.07591 c -5.61857,-8.5918 -11.24819,-15.64661 -12.51022,-15.67736 -1.26202,-0.0311 -5.80438,5.50401 -10.09416,12.29944 -5.21547,8.2618 -9.35197,11.75966 -12.48507,10.55737 -4.77308,-1.83158 -6.73078,-16.68971 -2.19902,-16.68971 1.36754,0 4.34574,-5.25066 6.61823,-11.66814 5.20636,-14.70274 8.98709,-19.46403 15.39047,-19.38216 5.99889,0.0765 31.51196,37.63876 31.51196,46.39401 0,11.80508 -6.14065,9.59828 -16.23219,-5.83345 z M 69.20353,764.56883 c 1.00013,-7.05752 1.76161,-7.20662 36.80357,-7.20662 33.70377,0 35.83534,0.37058 36.69517,6.37952 0.87187,6.09313 -0.7804,6.41667 -36.80354,7.20662 l -37.71643,0.8271 1.02123,-7.20662 z"
       id="path3146"
       inkscape:connector-curvature="0" />
  </g>
</svg>
