<?xml version="1.0" encoding="UTF-8" standalone="no"?>
<!-- Created with Inkscape (http://www.inkscape.org/) -->

<svg
   xmlns:dc="http://purl.org/dc/elements/1.1/"
   xmlns:cc="http://creativecommons.org/ns#"
   xmlns:rdf="http://www.w3.org/1999/02/22-rdf-syntax-ns#"
   xmlns:svg="http://www.w3.org/2000/svg"
   xmlns="http://www.w3.org/2000/svg"
   xmlns:sodipodi="http://sodipodi.sourceforge.net/DTD/sodipodi-0.dtd"
   xmlns:inkscape="http://www.inkscape.org/namespaces/inkscape"
   width="300"
   height="300"
   id="svg2"
   version="1.1"
   inkscape:version="0.48.4 r9939"
   sodipodi:docname="image-seal.svg">
  <defs
     id="defs4" />
  <sodipodi:namedview
     id="base"
     pagecolor="#ffffff"
     bordercolor="#666666"
     borderopacity="1.0"
     inkscape:pageopacity="0.0"
     inkscape:pageshadow="2"
     inkscape:zoom="1.979899"
     inkscape:cx="200.43343"
     inkscape:cy="122.13442"
     inkscape:document-units="px"
     inkscape:current-layer="layer1"
     showgrid="false"
     inkscape:window-width="1215"
     inkscape:window-height="1000"
     inkscape:window-x="65"
     inkscape:window-y="24"
     inkscape:window-maximized="1" />
  <metadata
     id="metadata7">
    <rdf:RDF>
      <cc:Work
         rdf:about="">
        <dc:format>image/svg+xml</dc:format>
        <dc:type
           rdf:resource="http://purl.org/dc/dcmitype/StillImage" />
        <dc:title />
      </cc:Work>
    </rdf:RDF>
  </metadata>
  <g
     inkscape:label="Calque 1"
     inkscape:groupmode="layer"
     id="layer1"
     transform="translate(0,-752.36218)">
    <path
       style="fill:#000000"
       d="m 172.42874,1041.2711 c -0.83676,-1.3539 -1.55892,-19.0008 -1.6048,-39.2154 -0.0732,-32.25603 -2.7003,-60.87294 -6.6355,-72.28043 -1.77741,-5.15245 -7.45076,0.0492 -13.50908,12.38572 -3.77042,7.67767 -5.14256,18.62915 -6.22691,49.69855 -1.24895,35.78576 -1.88393,39.94506 -6.22477,40.77456 -4.45717,0.8517 -4.78385,-1.2579 -4.19119,-27.0651 1.02197,-44.50204 4.47898,-65.10887 12.63819,-75.33471 3.86189,-4.84006 8.07768,-8.80014 9.36843,-8.80019 2.74285,-8e-5 12.27586,-10.49174 12.27586,-13.51032 0,-3.86982 -8.33489,-10.40666 -15.47326,-12.1353 -3.91898,-0.94901 -11.00098,-5.43732 -15.73778,-9.97399 -7.02093,-6.7243 -8.61759,-10.31332 -8.64067,-19.42274 -0.0157,-6.14583 1.27522,-14.03518 2.86843,-17.53189 2.8326,-6.21687 22.63229,-17.82054 30.40773,-17.82054 6.61245,0 4.34315,-9.23595 -3.39446,-13.81527 -14.85301,-8.79038 -18.76771,-13.99001 -20.17621,-26.79873 -0.75501,-6.86593 -0.21057,-13.20177 1.20986,-14.07966 4.30561,-2.66101 10.32568,4.37513 10.32568,12.06846 0,7.76911 7.13274,16.03852 13.83395,16.03852 3.29157,0 4.34573,-4.49272 5.2942,-22.56332 1.28625,-24.50635 2.55526,-27.80663 8.72361,-22.68736 3.00301,2.49228 4.05226,8.78601 4.05226,24.30686 l 0,20.94382 7.54923,0 c 8.16703,0 13.72011,-8.00605 13.72011,-19.78065 0,-8.39054 7.07743,-10.79414 10.87725,-3.69408 3.92315,7.33047 0.85619,26.03588 -4.99811,30.48361 -2.50239,1.90119 -7.24171,3.49472 -10.53181,3.54124 -3.2901,0.0465 -5.982,1.28095 -5.982,2.74322 0,1.46226 -2.3928,2.65866 -5.31734,2.65866 -3.42253,0 -5.31733,1.77246 -5.31733,4.97392 0,4.10703 2.78405,5.28891 15.97373,6.78114 11.14861,1.26133 17.54175,3.49033 21.16477,7.37919 6.37001,6.8374 9.30739,24.46519 6.13384,36.81034 -2.67622,10.41044 -13.09878,16.85832 -31.91103,19.74167 -12.85704,1.97058 -15.17969,4.40853 -12.89029,13.53023 1.26066,5.02286 3.38077,6.49555 9.35112,6.49555 4.99771,0 10.47598,2.75515 15.53245,7.81162 6.77601,6.77599 8.21297,10.94132 10.83917,31.41939 3.39273,26.45504 4.10796,85.74841 1.03358,85.68571 -6.46843,-0.1322 -8.20592,-6.3204 -9.69278,-34.522 -1.63936,-31.0938 -4.86425,-57.92026 -8.1909,-68.13662 -2.19207,-6.73201 -13.61525,-12.84655 -16.19671,-8.66968 -0.93588,1.5143 -1.55455,27.78999 -1.37485,58.39044 0.2769,47.14716 -0.26534,55.63716 -3.55378,55.63716 -2.13428,0 -4.56514,-1.1077 -5.40189,-2.4616 z m -3.25178,-176.51786 c 0.45223,-16.7688 -3.27402,-26.86586 -8.12502,-22.01645 -3.24933,3.24828 -2.97408,39.90742 0.31557,42.02984 5.18116,3.34279 7.32794,-2.15879 7.80945,-20.01339 z m 21.86128,11.48343 c 0.29546,-3.65567 -0.20897,-7.84307 -1.12103,-9.30534 -0.91202,-1.46227 -1.65823,-6.84607 -1.65823,-11.96401 0,-6.49895 -1.20273,-9.30533 -3.988,-9.30533 -3.16254,0 -4.02873,4.0153 -4.18472,19.39894 -0.1818,17.92942 0.20519,19.3392 5.10903,18.61067 3.49051,-0.51857 5.48953,-3.06225 5.84295,-7.43493 z m -41.79873,-7.70099 c 1.1121,-11.6136 -1.58217,-22.23375 -5.09049,-20.0655 -8.50004,5.25331 -8.55726,31.47129 -0.0652,29.86479 2.72286,-0.51509 4.61013,-4.10217 5.15567,-9.79929 z m 61.47532,2.72843 c 2.55482,-6.16785 2.38777,-9.48174 -0.87111,-17.28134 -2.21765,-5.30755 -5.20889,-9.65012 -6.64726,-9.65012 -4.28067,0 -6.27647,10.36402 -4.40241,22.86125 2.03673,13.58188 7.24442,15.35997 11.92078,4.07021 z M 77.924266,1008.7955 c -17.033701,-4.6744 -18.610674,-8.94796 -18.610674,-50.43466 0,-35.15437 0.255232,-36.92682 5.317335,-36.92682 4.431114,0 5.317336,1.77245 5.317336,10.63467 0,10.04386 0.443112,10.63467 7.976003,10.63467 7.141303,0 8.019275,-0.90427 8.389492,-8.64067 0.798807,-16.69269 -0.686795,-21.98713 -7.829401,-27.9028 -3.963718,-3.28284 -8.500093,-5.97474 -10.080833,-5.982 -5.116434,-0.0239 -9.438922,-11.93854 -9.88641,-27.25206 -0.475702,-16.27897 0.590492,-18.8909 6.746938,-16.52843 2.715808,1.04214 4.45099,6.35626 5.259693,16.10814 1.303512,15.71866 4.639976,21.31135 11.209815,18.79027 3.189048,-1.22376 4.166709,-5.63483 4.166709,-18.79962 0,-15.39885 -0.835516,-18.11545 -7.976003,-25.93329 -5.242281,-5.73958 -7.976003,-11.53662 -7.976003,-16.9137 0,-9.73723 -4.140102,-14.56189 -12.495738,-14.56189 -4.34249,0 -6.114936,-1.54126 -6.114936,-5.31734 0,-4.77986 1.813969,-5.32993 17.946007,-5.44192 9.870304,-0.0686 28.11541,-0.36761 40.544684,-0.66466 16.89846,-0.40386 22.59867,0.32042 22.59867,2.87138 0,1.87631 -2.93872,4.87659 -6.5305,6.66728 -4.88374,2.43481 -7.45613,7.04834 -10.20123,18.29575 -3.05108,12.50111 -4.97809,15.5815 -11.4155,18.24795 -7.497232,3.10546 -7.744781,3.79523 -7.744781,21.57956 0,14.22789 0.939797,18.7322 4.166711,19.9705 6.31362,2.42277 9.59799,-2.61541 10.96615,-16.82195 1.80517,-18.74424 2.71665,-20.78932 7.49727,-16.82176 2.57908,2.14044 3.95655,8.11954 3.95655,17.17396 0,15.87171 -5.03579,23.66344 -18.27689,28.27931 -8.235651,2.87097 -8.309791,3.06218 -8.309791,21.43232 0,17.70128 0.26923,18.49726 5.982001,17.68591 4.42668,-0.62869 6.62236,-3.44178 8.4449,-10.81958 1.35459,-5.4835 3.32029,-9.97 4.36822,-9.97 3.96938,0 5.6234,10.383 7.06362,44.34128 l 1.48593,35.0359 -9.01967,5.4988 c -9.58157,5.8414 -21.728356,6.6588 -36.935674,2.4855 z m 30.242344,-21.22713 c 2.35107,-11.75535 1.98977,-26.93708 -0.74376,-31.25295 -1.75168,-2.76568 -5.50645,-3.19211 -15.246631,-1.73162 -7.107441,1.06573 -14.936321,3.0153 -17.397513,4.33235 -5.090416,2.72407 -5.83605,14.88261 -1.736743,28.31989 2.57836,8.45172 2.973082,8.64067 18.049493,8.64067 15.136174,0 15.443384,-0.14942 17.075154,-8.30834 z m -5.86743,-155.19972 c 3.30972,-12.40803 0.5596,-17.28134 -9.752242,-17.28134 -10.789666,0 -14.143041,6.93141 -9.166214,18.94654 4.534307,10.9468 15.819288,9.9535 18.918456,-1.6652 z M 63.96626,780.46303 c -2.558967,-1.57372 -4.652668,-4.59644 -4.652668,-6.71718 0,-3.13215 5.364572,-3.84826 28.580678,-3.81519 29.27345,0.0417 40.41657,2.74279 32.56868,7.8946 -2.1934,1.43988 -9.50392,2.63628 -16.2456,2.65867 -6.741681,0.0213 -17.509285,0.67062 -23.928011,1.44054 -6.418725,0.7699 -13.764111,0.1122 -16.323079,-1.46144 z"
       id="path3067"
       inkscape:connector-curvature="0" />
  </g>
</svg>
