<?xml version="1.0" encoding="UTF-8" standalone="no"?>
<!-- Created with Inkscape (http://www.inkscape.org/) -->

<svg
   xmlns:dc="http://purl.org/dc/elements/1.1/"
   xmlns:cc="http://creativecommons.org/ns#"
   xmlns:rdf="http://www.w3.org/1999/02/22-rdf-syntax-ns#"
   xmlns:svg="http://www.w3.org/2000/svg"
   xmlns="http://www.w3.org/2000/svg"
   xmlns:sodipodi="http://sodipodi.sourceforge.net/DTD/sodipodi-0.dtd"
   xmlns:inkscape="http://www.inkscape.org/namespaces/inkscape"
   width="300"
   height="300"
   id="svg2"
   version="1.1"
   inkscape:version="0.48.4 r9939"
   sodipodi:docname="image-seal.svg">
  <defs
     id="defs4" />
  <sodipodi:namedview
     id="base"
     pagecolor="#ffffff"
     bordercolor="#666666"
     borderopacity="1.0"
     inkscape:pageopacity="0.0"
     inkscape:pageshadow="2"
     inkscape:zoom="2.0018437"
     inkscape:cx="145.03351"
     inkscape:cy="130.6666"
     inkscape:document-units="px"
     inkscape:current-layer="layer1"
     showgrid="false"
     inkscape:window-width="1215"
     inkscape:window-height="1000"
     inkscape:window-x="65"
     inkscape:window-y="24"
     inkscape:window-maximized="1"
     fit-margin-top="10"
     fit-margin-left="10"
     fit-margin-right="10"
     fit-margin-bottom="10" />
  <metadata
     id="metadata7">
    <rdf:RDF>
      <cc:Work
         rdf:about="">
        <dc:format>image/svg+xml</dc:format>
        <dc:type
           rdf:resource="http://purl.org/dc/dcmitype/StillImage" />
        <dc:title />
      </cc:Work>
    </rdf:RDF>
  </metadata>
  <g
     inkscape:label="Calque 1"
     inkscape:groupmode="layer"
     id="layer1"
     transform="translate(0,-752.36218)">
    <path
       style="fill:#000000"
       d="m 213.2137,1043.7979 c -2.08794,-3.3433 -3.2429,-16.3543 -3.23163,-36.4052 0.0186,-32.58359 -4.37231,-71.27129 -8.73376,-76.95742 -4.06667,-5.3018 -14.2052,-3.84127 -18.41254,2.65246 -5.04411,7.78521 -7.40069,26.74753 -8.97047,72.18076 -0.7038,20.3697 -1.76998,37.526 -2.36928,38.1254 -0.59927,0.5992 -3.09778,0.3189 -5.55224,-0.623 -4.01238,-1.5396 -4.28998,-5.6539 -2.75158,-40.7777 0.94109,-21.48589 2.31069,-45.0333 3.04354,-52.32757 1.46241,-14.55528 5.98098,-27.85085 9.46528,-27.85085 4.21206,0 12.45084,-10.97952 11.58134,-15.43407 -3.83716,-19.65819 -3.16372,-18.82144 -13.7975,-17.14342 -5.46614,0.86253 -10.86268,2.8757 -11.99236,4.47367 -1.12968,1.598 -1.88505,10.06708 -1.67864,18.8202 0.20636,8.75312 0.23554,18.63784 0.0647,21.96607 -0.36763,7.16 -7.79808,10.89812 -11.14763,5.60818 -3.35521,-5.29882 -2.9749,-40.70712 0.51956,-48.37663 3.09672,-6.79659 12.46875,-12.35339 20.83509,-12.35339 9.11216,0 13.35443,-3.1593 13.35443,-9.94528 0,-6.60468 -0.27368,-6.69661 -15.26996,-5.12919 -16.60086,1.73513 -26.40767,-1.38098 -19.21204,-6.10462 2.18828,-1.43649 5.7691,-2.81193 7.95738,-3.05646 2.18828,-0.24455 5.1723,-0.72194 6.63116,-1.06088 1.45885,-0.33895 10.41091,-0.79024 19.89346,-1.00289 14.37234,-0.32227 16.35834,-0.8912 11.93608,-3.41924 -7.54252,-4.31176 -22.54593,-21.06487 -22.54593,-25.17525 0,-1.9032 -1.03021,-3.46035 -2.28936,-3.46035 -3.21662,0 -11.48625,-27.40553 -9.6856,-32.09797 0.81603,-2.12654 4.70016,-6.21849 8.6314,-9.09328 3.93124,-2.87477 11.50927,-9.10606 16.84008,-13.84734 12.85001,-11.42892 18.94431,-11.45208 17.83797,-0.0676 -0.72391,7.44904 -2.79938,9.557 -16.08283,16.33468 -12.6758,6.4676 -15.24479,8.94291 -15.21105,14.65626 0.0212,3.78089 1.13833,8.60962 2.47997,10.73048 2.13383,3.37319 3.37447,3.37319 9.9061,0 4.10673,-2.12089 8.76978,-5.04973 10.36232,-6.50859 1.59254,-1.45885 6.85438,-5.63648 11.69301,-9.28361 4.83862,-3.64714 10.10046,-7.90426 11.693,-9.46025 6.08273,-5.94318 16.65648,-11.7029 18.35894,-10.00044 3.25348,3.25348 1.83346,11.5033 -1.98007,11.5033 -2.06669,0 -4.1555,0.94513 -4.6418,2.1003 -0.48628,1.15515 -8.6426,7.42159 -18.12515,13.92542 -27.18927,18.64838 -28.56359,21.08159 -17.68136,31.30489 5.77202,5.42253 6.80364,5.55935 15.25165,2.02269 4.98347,-2.08627 11.96125,-6.31368 15.50619,-9.3942 7.39936,-6.43007 11.81518,-5.96114 12.82433,1.36183 0.52726,3.82609 -2.77991,6.75075 -13.26231,11.72831 -13.63161,6.47296 -20.59589,11.34187 -20.59589,14.39907 0,0.83364 6.86325,1.53397 15.25166,1.55631 8.38841,0.0212 16.90491,1.08767 18.92558,2.36737 6.32164,4.00358 -5.65256,8.20187 -23.39302,8.20187 -14.32082,0 -16.08914,0.58303 -16.08914,5.30492 0,5.02891 2.54429,6.45352 9.86244,5.52227 6.46691,-0.82293 24.89664,10.77591 27.34205,17.20787 1.37981,3.62918 2.82373,17.56794 3.20871,30.97505 0.60184,20.95928 0.0809,24.5023 -3.71522,25.27345 -5.33315,1.08337 -6.83871,-3.28825 -8.92983,-25.9294 -2.64727,-28.66277 -8.68141,-37.11816 -24.24279,-33.97043 -7.31029,1.47875 -5.16646,21.31649 3.28969,30.44082 12.48206,13.46835 13.78068,19.31186 14.44907,65.01696 0.7642,52.25526 0.46731,61.07506 -2.14374,63.68616 -1.10672,1.1069 -3.47433,-0.3289 -5.26137,-3.1904 z M 97.493339,1017.9484 c -15.8314,-2.2114 -20.37934,-12.5745 -20.71063,-47.19209 -0.14615,-15.27978 0.48763,-28.53487 1.40856,-29.45583 3.21351,-3.21351 9.76003,5.09357 9.76003,12.38485 0,8.26141 6.58357,12.35856 12.272271,7.63736 2.39499,-1.98767 3.6425,-8.84506 3.6425,-20.02248 0,-13.77513 -0.88043,-17.32137 -4.641807,-18.69656 -2.553004,-0.93341 -7.767634,-4.89884 -11.588054,-8.81207 -5.76396,-5.90393 -7.2692,-10.56136 -8.84365,-27.36303 -1.56198,-16.66844 -1.15817,-20.98734 2.28409,-24.4296 6.6668,-6.6668 9.33409,-2.20555 9.25653,15.48234 -0.0878,20.0419 3.16802,32.11556 8.961614,33.23185 5.670667,1.09263 8.842057,-10.86738 9.590397,-36.16741 0.55362,-18.71683 0.277,-19.67784 -7.65899,-26.60671 -6.872421,-6.00029 -8.494031,-9.71435 -9.810471,-22.46951 -1.12234,-10.87432 -2.9502,-16.01583 -6.33851,-17.82918 -3.09272,-1.65519 -5.33742,-1.61615 -6.40511,0.1114 -2.61931,4.23813 -11.21188,3.07935 -13.0699,-1.76261 -0.93335,-2.43223 -0.76264,-5.2962 0.37933,-6.3644 1.14196,-1.06817 21.56982,-2.71029 45.395241,-3.64913 40.72717,-1.60481 43.2647,-1.4224 42.41228,3.04882 -0.49864,2.61568 -3.58005,5.13721 -6.8476,5.60338 -5.45882,0.77882 -5.94093,2.25104 -5.94093,18.14207 0,14.69151 -0.89823,18.0438 -5.96804,22.2732 -3.28242,2.7383 -7.94969,5.01843 -10.37173,5.06697 -3.62257,0.0727 -4.71804,4.205 -6.17589,23.29729 -0.9747,12.76497 -2.24822,24.99945 -2.83002,27.18774 -0.58181,2.18828 0.0186,5.69234 1.33191,7.78683 1.97561,3.14818 3.11102,3.20953 6.55158,0.35413 3.43465,-2.85052 10.80115,-21.94583 10.30333,-26.7082 -0.0764,-0.72942 -0.92502,-7.59267 -1.88616,-15.25165 -1.56445,-12.46652 -1.22679,-13.92543 3.22298,-13.92543 6.93523,0 10.50987,9.9152 8.12831,22.54593 -1.1003,5.83541 -2.06932,16.61101 -2.15341,23.94579 -0.17214,15.0107 -5.21765,21.49176 -17.85923,22.94013 -7.42576,0.85081 -7.49201,1.02258 -7.49201,19.42562 0,14.73592 0.82099,18.56724 3.97869,18.56724 2.42103,0 4.32256,-3.01413 4.85703,-7.69896 1.10149,-9.65475 7.08334,-16.45951 10.15479,-11.55174 2.98587,4.77104 3.53318,49.3368 0.74131,60.36395 -3.09792,12.2359 -19.10603,19.2045 -38.040631,16.5597 z m 24.514191,-18.01075 c 1.69304,-3.71583 3.07823,-10.83549 3.07823,-15.8215 0,-10.53524 -5.38805,-14.55706 -19.50214,-14.55706 -15.313991,0 -17.632321,1.96017 -17.632321,14.90832 0,17.35779 4.11346,22.22619 18.779511,22.22619 10.49783,0 12.62768,-0.9419 15.27672,-6.75595 z m 1.56254,-167.16981 c 9.89882,-9.89883 0.579,-29.52453 -12.46583,-26.25049 -6.48143,1.62673 -7.23817,3.0114 -7.23817,13.24417 0,10.05219 0.87786,11.7481 7.29427,14.09157 4.01185,1.46525 7.50742,2.75833 7.76792,2.8735 0.26047,0.11511 2.34934,-1.66625 4.64181,-3.95875 z m -12.23944,-60.8679 c -0.75734,-0.75733 -7.18391,-1.83452 -14.281261,-2.39374 -7.09735,-0.55922 -13.33851,-2.31947 -13.86924,-3.91164 -1.64044,-4.92132 12.11658,-8.23242 34.204161,-8.23242 16.41465,0 21.4739,0.89547 22.67,4.01246 2.62493,6.84049 -4.25505,11.90231 -16.17747,11.90231 -6.14307,0 -11.78884,-0.61964 -12.54619,-1.37697 z"
       id="path3197"
       inkscape:connector-curvature="0" />
  </g>
</svg>
