<?xml version="1.0" encoding="UTF-8" standalone="no"?>
<!-- Created with Inkscape (http://www.inkscape.org/) -->

<svg
   xmlns:dc="http://purl.org/dc/elements/1.1/"
   xmlns:cc="http://creativecommons.org/ns#"
   xmlns:rdf="http://www.w3.org/1999/02/22-rdf-syntax-ns#"
   xmlns:svg="http://www.w3.org/2000/svg"
   xmlns="http://www.w3.org/2000/svg"
   xmlns:sodipodi="http://sodipodi.sourceforge.net/DTD/sodipodi-0.dtd"
   xmlns:inkscape="http://www.inkscape.org/namespaces/inkscape"
   width="300"
   height="300"
   id="svg2"
   version="1.1"
   inkscape:version="0.48.4 r9939"
   sodipodi:docname="image-seal.svg">
  <defs
     id="defs4" />
  <sodipodi:namedview
     id="base"
     pagecolor="#ffffff"
     bordercolor="#666666"
     borderopacity="1.0"
     inkscape:pageopacity="0.0"
     inkscape:pageshadow="2"
     inkscape:zoom="1.979899"
     inkscape:cx="197.63697"
     inkscape:cy="133.25325"
     inkscape:document-units="px"
     inkscape:current-layer="layer1"
     showgrid="false"
     inkscape:window-width="1215"
     inkscape:window-height="1000"
     inkscape:window-x="65"
     inkscape:window-y="24"
     inkscape:window-maximized="1"
     fit-margin-top="10"
     fit-margin-left="10"
     fit-margin-right="10"
     fit-margin-bottom="10" />
  <metadata
     id="metadata7">
    <rdf:RDF>
      <cc:Work
         rdf:about="">
        <dc:format>image/svg+xml</dc:format>
        <dc:type
           rdf:resource="http://purl.org/dc/dcmitype/StillImage" />
        <dc:title></dc:title>
      </cc:Work>
    </rdf:RDF>
  </metadata>
  <g
     inkscape:label="Calque 1"
     inkscape:groupmode="layer"
     id="layer1"
     transform="translate(0,-752.36218)">
    <path
       style="fill:#000000"
       d="m 215.17154,1040.0901 c -2.22645,-5.3286 -4.0481,-12.3259 -4.0481,-15.5494 0,-3.2235 -1.38373,-8.4465 -3.07497,-11.6066 -1.88594,-3.5239 -3.35349,-28.57034 -3.79521,-64.7717 -0.64861,-53.15465 -2.29914,-80.82219 -5.88526,-98.65245 -0.83001,-4.12686 -3.64127,-6.38694 -8.6877,-6.98445 -9.86945,-1.16858 -12.11316,-7.86781 -2.6351,-7.86781 10.22554,0 12.39717,-6.36012 13.4055,-39.26136 0.96073,-31.34644 4.17282,-39.93066 12.38977,-33.11119 4.31272,3.57925 4.28414,7.25533 -0.23133,29.76743 -1.6647,8.2994 -1.22365,9.07978 5.13142,9.07978 10.07691,0 15.73308,-7.10242 15.73308,-19.75601 0,-9.11302 0.94818,-10.97555 5.58755,-10.97555 4.95379,0 5.58756,1.86253 5.58756,16.42057 0,18.81205 -1.67213,20.92247 -20.29205,25.61102 -11.77516,2.96503 -13.23329,4.18069 -13.23329,11.03263 0,6.31477 1.50269,8.00099 8.35077,9.37061 4.59295,0.91859 10.25314,0.94016 12.57826,0.048 6.40879,-2.45928 18.18387,1.3551 18.18387,5.8904 0,3.00625 -4.71964,4.21654 -18.85801,4.8359 l -18.858,0.82609 -0.31902,13.02104 c -0.46517,18.9875 2.65283,21.88415 10.5086,9.76256 3.6152,-5.57834 7.3815,-10.15799 8.36952,-10.17701 5.05654,-0.0972 4.20547,9.87318 -2.05013,24.01819 -6.56901,14.85374 -6.73932,16.38367 -2.75791,24.77386 2.3339,4.91836 9.938,14.637 16.89797,21.59697 11.46858,11.46857 16.81623,24.56486 10.03067,24.56486 -2.80735,0 -28.20565,-21.12502 -31.44802,-26.15687 -1.06887,-1.65877 -2.75889,-2.20052 -3.7556,-1.20381 -2.37812,2.37809 -1.90239,71.59641 0.519,75.5143 2.44545,3.9568 9.14667,35.2803 9.27256,43.3426 0.15281,9.789 -8.02631,7.5832 -12.61643,-3.4025 z m -73.3499,-6.313 c -14.94512,-1.8422 -20.07598,-13.3221 -20.08866,-44.94681 -0.006,-14.39587 1.43519,-28.72731 3.22458,-32.07082 4.54634,-8.49493 9.64918,-13.14442 14.42606,-13.14442 6.33928,0 8.66921,-9.29892 3.15004,-12.572 -14.9875,-8.88816 -16.05637,-10.99595 -17.40694,-34.3264 -0.72194,-12.47073 -0.43622,-24.93537 0.63492,-27.69917 3.53063,-9.11004 9.1566,3.09425 9.56352,20.74601 0.40713,17.65998 2.30347,25.91378 5.95382,25.91378 4.05656,0 6.21576,-10.97072 6.76893,-34.39211 0.47925,-20.29242 -0.12795,-23.12279 -6.61284,-30.82795 -5.14489,-6.11296 -7.53094,-12.8171 -8.53743,-23.98783 -1.52093,-16.88051 -6.13871,-20.5947 -17.82833,-14.33977 -4.91774,2.63144 -5.80703,5.39493 -5.25811,16.33978 0.70333,14.0232 -3.52977,25.74475 -9.29744,25.74475 -5.273763,0 -9.515143,16.03204 -10.585693,40.01286 -0.84604,18.95162 -0.38657,21.45027 3.94443,21.45027 6.474553,0 8.432123,-5.71057 10.328183,-30.12909 2.33132,-30.02431 10.70386,-22.7672 11.60376,10.05786 0.47897,17.47184 -8.11143,30.94143 -19.871143,31.1575 -5.99841,0.11007 -8.34968,8.8446 -7.21172,26.78976 0.66333,10.45991 2.04468,13.98122 5.76161,14.68704 4.07137,0.77315 4.88911,-1.18099 4.88911,-11.68356 0,-6.93659 1.194123,-13.34998 2.653623,-14.25198 5.68673,-3.5146 8.51781,10.69827 8.43265,42.33482 -0.11147,41.38438 -1.56697,43.95148 -24.998283,44.08858 -24.91829,0.1458 -26.22106,-2.0151 -26.42805,-43.83496 -0.17433,-35.22153 3.24827,-45.90184 7.91011,-24.68382 4.25992,19.38866 15.66728,12.86817 15.66728,-8.95545 0,-14.82337 -3.70681,-24.40159 -9.44353,-24.40159 -2.01263,0 -5.93004,-2.50909 -8.70533,-5.57574 -4.138,-4.57244 -4.96448,-9.94012 -4.59314,-29.83082 0.24893,-13.34032 1.08866,-24.89092 1.86575,-25.66803 3.59514,-3.59512 8.32297,6.76273 8.49842,18.61849 0.43127,29.14746 0.89443,31.28099 6.79028,31.28099 5.22914,0 5.58755,-1.86253 5.58755,-29.03577 0,-23.43578 -0.82117,-29.3509 -4.25777,-30.66965 -5.9291,-2.2752 -9.45345,-13.12017 -6.66747,-20.51681 1.40282,-3.72442 1.21563,-6.87605 -0.47027,-7.91802 -1.54035,-0.95198 -2.03622,-4.13948 -1.10187,-7.08334 1.42779,-4.49852 0.29894,-5.35243 -7.07566,-5.35243 -6.84959,0 -8.56972,-1.07254 -7.84127,-4.88912 0.80938,-4.24051 5.74742,-5.13421 37.22243,-6.73663 19.959063,-1.01616 46.638783,-2.56503 59.288223,-3.44197 22.65143,-1.57032 37.06724,1.00316 37.06724,6.61723 0,1.57461 -2.37988,2.86293 -5.28865,2.86293 -6.41887,0 -8.58436,4.8296 -6.66573,14.86631 1.84526,9.65284 -3.90266,23.58262 -10.60935,25.71122 -7.0839,2.24835 -9.85279,15.34676 -8.69678,41.14049 0.71409,15.93333 1.97534,21.65178 4.77546,21.65178 5.57599,0 6.20434,-1.99099 8.37723,-26.54464 1.08768,-12.29056 2.40966,-22.81609 2.93777,-23.39007 0.52811,-0.57398 2.9002,-0.29913 5.27133,0.61077 3.41288,1.30964 4.29823,6.47514 4.24903,24.79068 -0.067,24.97744 -3.37684,32.73314 -16.83176,39.44114 -8.22768,4.10194 -8.82803,9.88847 -1.4652,14.1223 13.95906,8.02683 17.54155,15.81728 19.22536,41.80741 1.9742,30.47182 -1.38155,40.66372 -15.61211,47.41662 -5.41515,2.5696 -11.54151,4.4708 -13.61416,4.2249 -2.07265,-0.2458 -7.92444,-0.9594 -13.00401,-1.5855 z m 29.66118,-25.4132 c 1.14777,-15.95202 -2.5786,-19.88493 -18.58351,-19.61363 -22.82009,0.38686 -26.82399,5.59706 -18.22566,23.71673 4.49561,9.4738 4.82438,9.6167 20.25489,8.8035 l 15.68511,-0.8265 0.86917,-12.0801 z m -75.679573,8.4277 c 1.90111,-1.2079 3.75911,-9.55 4.19067,-18.81527 l 0.775273,-16.64527 -16.762673,0 -16.76267,0 -0.8975,10.98684 c -1.45628,17.827 4.42001,24.9014 21.85084,26.3059 2.30487,0.1858 5.72758,-0.6388 7.60606,-1.8322 z m 75.199383,-43.84813 c 0.88579,-2.30831 0.82238,-7.33711 -0.14081,-11.17512 -1.59117,-6.3397 -3.10131,-6.97819 -16.50519,-6.97819 -16.67137,0 -21.45887,3.24115 -21.45887,14.52765 0,7.76914 0.1246,7.82258 18.24725,7.82258 13.65459,0 18.65258,-1.05633 19.85773,-4.19692 z M 98.803707,827.44044 c 0.81998,-14.05896 0.74524,-14.20172 -7.4355,-14.20172 -7.60436,0 -8.40857,0.96541 -10.07802,12.09817 -2.21913,14.79823 -0.34179,18.27567 9.26618,17.16381 6.81455,-0.7886 7.48654,-2.01569 8.24734,-15.06026 z m 64.264253,3.52667 c 1.84527,-5.10297 3.35502,-12.09345 3.35502,-15.53441 0,-5.52115 -1.2311,-6.15442 -10.47666,-5.38923 -9.96452,0.82473 -10.51992,1.39362 -11.36127,11.63757 -1.17568,14.31418 0.7971,18.56421 8.61702,18.56421 4.83815,0 7.37284,-2.38368 9.86589,-9.27814 z M 133.0354,777.55122 c -2.05027,-2.47043 -3.01423,-5.2052 -2.14212,-6.07731 2.41508,-2.41508 46.70831,-2.7704 46.70647,-0.37467 -9.3e-4,1.15243 0.31265,3.03823 0.69679,4.19066 0.38415,1.15244 -2.44455,2.43129 -6.286,2.84186 -3.84144,0.4106 -13.34362,1.45858 -21.11591,2.32884 -10.96228,1.22745 -14.96747,0.57496 -17.85923,-2.90938 z m -69.126933,-6.15755 c -3.35223,-8.73572 7.05041,-12.766 29.46341,-11.41493 20.492703,1.23533 26.614153,4.41604 23.602603,12.26404 -1.05312,2.74439 -8.10165,3.74557 -26.370093,3.74557 -20.55961,0 -25.24204,-0.8059 -26.69592,-4.59468 z"
       id="path3147"
       inkscape:connector-curvature="0" />
  </g>
</svg>
