<?xml version="1.0" encoding="UTF-8" standalone="no"?>
<!-- Created with Inkscape (http://www.inkscape.org/) -->

<svg
   xmlns:dc="http://purl.org/dc/elements/1.1/"
   xmlns:cc="http://creativecommons.org/ns#"
   xmlns:rdf="http://www.w3.org/1999/02/22-rdf-syntax-ns#"
   xmlns:svg="http://www.w3.org/2000/svg"
   xmlns="http://www.w3.org/2000/svg"
   xmlns:sodipodi="http://sodipodi.sourceforge.net/DTD/sodipodi-0.dtd"
   xmlns:inkscape="http://www.inkscape.org/namespaces/inkscape"
   width="300"
   height="300"
   id="svg2"
   version="1.1"
   inkscape:version="0.48.4 r9939"
   sodipodi:docname="image-seal.svg">
  <defs
     id="defs4" />
  <sodipodi:namedview
     id="base"
     pagecolor="#ffffff"
     bordercolor="#666666"
     borderopacity="1.0"
     inkscape:pageopacity="0.0"
     inkscape:pageshadow="2"
     inkscape:zoom="1.979899"
     inkscape:cx="200.43343"
     inkscape:cy="134.48103"
     inkscape:document-units="px"
     inkscape:current-layer="layer1"
     showgrid="false"
     inkscape:window-width="1215"
     inkscape:window-height="1000"
     inkscape:window-x="65"
     inkscape:window-y="24"
     inkscape:window-maximized="1" />
  <metadata
     id="metadata7">
    <rdf:RDF>
      <cc:Work
         rdf:about="">
        <dc:format>image/svg+xml</dc:format>
        <dc:type
           rdf:resource="http://purl.org/dc/dcmitype/StillImage" />
        <dc:title />
      </cc:Work>
    </rdf:RDF>
  </metadata>
  <g
     inkscape:label="Calque 1"
     inkscape:groupmode="layer"
     id="layer1"
     transform="translate(0,-752.36218)">
    <path
       style="fill:#000000"
       d="m 126.72151,1019.1049 c 3.62824,-39.01631 4.0019,-46.79519 5.57183,-115.99238 0.88317,-38.92625 2.4099,-79.03208 3.39279,-89.12407 l 1.78707,-18.34906 15.04163,-7.86389 c 10.37977,-5.42667 15.82129,-10.09801 17.55738,-15.07244 7.80276,-22.35764 15.30321,12.03663 9.17803,42.08707 -4.03961,19.81843 -6.04936,22.53604 -20.84468,28.18643 -6.28147,2.3989 -12.19422,6.29461 -13.13944,8.65713 -0.9452,2.36253 -2.15482,34.37487 -2.68805,71.13853 -1.36239,93.93118 -3.89542,115.33708 -13.64833,115.33708 -3.35007,0 -3.69746,-2.9898 -2.20823,-19.0044 z m 32.83157,-187.00038 c 4.89946,-4.12263 8.06502,-9.26696 8.06502,-13.10648 0,-7.11933 -2.47058,-7.66193 -14.71921,-3.23278 -7.78999,2.81689 -8.45118,3.90793 -7.54568,12.45114 0.54586,5.15004 1.06042,9.65861 1.14348,10.01903 0.53533,2.32282 6.13418,-0.30625 13.05639,-6.13091 z m 0.83601,-27.74343 c 6.37397,-3.08505 10.36343,-12.66927 5.26304,-12.64384 -4.96688,0.0236 -19.00439,10.84534 -19.00439,14.64924 0,4.334 0.92164,4.1995 13.74135,-2.0054 z m 68.4493,230.12171 c -3.24826,-3.7088 -9.38404,-53.64106 -8.71749,-70.94203 1.06154,-27.55336 -0.23042,-51.46821 -2.69818,-49.94307 -1.44172,0.89102 -2.6213,3.77392 -2.6213,6.40646 0,5.82633 -9.61686,12.51357 -19.6931,13.69397 -10.59238,1.24084 -10.77697,5.94017 -0.47218,12.02013 9.46486,5.5844 10.81228,9.31128 14.92314,41.27571 1.11248,8.65028 2.74368,18.08693 3.62491,20.97043 0.90387,2.9576 -0.11249,7.4661 -2.33204,10.3442 -6.87214,8.9115 -10.29044,1.0464 -10.98798,-25.2815 -0.34917,-13.18044 -1.84947,-25.17902 -3.33399,-26.66353 -1.48453,-1.48453 -2.69912,-4.69618 -2.69912,-7.137 0,-3.53337 -4.81933,-7.62009 -8.98609,-7.62009 -0.38138,0 -0.23827,16.80905 0.3178,37.35346 0.94805,35.01996 -0.96183,48.25686 -6.20613,43.01256 -1.12914,-1.1291 -2.22671,-18.1502 -2.43906,-37.82464 -0.24221,-22.4519 -1.41696,-36.11528 -3.15464,-36.6945 -4.96155,-1.65383 -7.93532,8.35349 -9.52814,32.06386 -1.5011,22.34568 -4.66689,31.81008 -9.61694,28.75078 -2.73199,-1.6885 -1.15965,-39.6657 2.27994,-55.06768 3.02343,-13.53855 5.09243,-16.82653 10.61969,-16.87656 2.4379,-0.021 6.12606,-1.11178 8.19595,-2.42153 5.18846,-3.28313 -0.92002,-10.64481 -8.83266,-10.64481 -10.31017,0 -17.21636,-9.26581 -17.17162,-23.03844 0.021,-6.79199 0.90676,-13.55265 1.96597,-15.02371 2.67448,-3.7144 15.54292,-9.12118 21.7089,-9.12118 7.89403,0 6.06709,-6.84617 -3.39997,-12.74064 -10.32682,-6.42987 -17.69373,-14.78012 -17.69373,-20.05551 0,-4.93517 3.67447,-5.01798 7.6951,-0.17353 1.70192,2.05072 6.5647,4.93831 10.80614,6.41688 l 7.71171,2.68831 0,-11.50475 c 0,-6.32763 1.1204,-12.19724 2.48979,-13.04354 3.96452,-2.45025 7.48621,7.00247 6.07339,16.30181 -1.6141,10.62406 3.12471,11.29224 13.96544,1.96916 9.00334,-7.74292 10.43913,-7.98499 12.6827,-2.13837 1.9342,5.04044 -6.13051,13.63535 -18.24005,19.43932 -10.98248,5.26374 -11.90241,12.84076 -1.55905,12.84076 10.94145,0 20.83833,4.97089 22.97241,11.53831 1.62774,5.00913 1.99072,4.79815 4.06629,-2.36379 1.25344,-4.32513 2.9455,-16.41585 3.76012,-26.86828 1.17806,-15.11612 0.74187,-19.00439 -2.13194,-19.00439 -1.98716,0 -10.51293,-4.31591 -18.94613,-9.59093 l -15.33313,-9.5909 1.28476,-31.19486 c 1.28202,-31.12878 4.53203,-42.06015 9.95479,-33.48285 1.35959,2.1505 2.51017,6.26919 2.55685,9.15262 0.0626,3.86557 4.03207,6.90541 15.11263,11.57336 8.26522,3.4819 16.17978,7.34704 17.58792,8.58919 2.76942,2.44298 2.63722,53.71282 -0.23854,92.55316 -2.17536,29.37944 -2.30997,79.50461 -0.23225,86.50275 0.85603,2.88343 2.2826,18.51291 3.17011,34.73222 1.28164,23.422 0.90657,29.469 -1.82289,29.3898 -1.89009,-0.055 -4.78718,-1.6418 -6.43799,-3.5267 z M 178.023,912.28704 c 0,-9.63818 -3.6741,-18.08976 -6.59445,-15.16938 -2.91376,2.91375 -3.21062,24.14658 -0.3879,27.7446 3.80905,4.85527 6.98235,-0.85988 6.98235,-12.57522 z m 15.36281,-2.65791 c -0.47598,-8.67041 -2.04498,-16.0428 -3.4867,-16.3831 -4.48435,-1.05845 -7.81559,18.11737 -4.43594,25.53489 5.36819,11.78187 8.85096,7.75877 7.92264,-9.15179 z m -31.0103,-1.27402 c 0,-10.69029 -2.95758,-11.78884 -7.73012,-2.87125 -3.68092,6.87789 -1.98506,12.04577 3.95288,12.04577 2.56932,0 3.77724,-2.93394 3.77724,-9.17452 z m 44.56203,0 c 0,-6.95624 -3.93523,-10.78929 -6.61888,-6.44703 -2.46538,3.98905 1.01048,16.15703 4.07443,14.26341 1.39943,-0.86489 2.54445,-4.38228 2.54445,-7.81638 z m 18.34906,-78.31793 c 0,-7.91308 -3.99946,-11.17037 -16.60921,-13.52702 -9.51178,-1.77765 -10.00826,-1.5421 -9.17453,4.35273 0.57024,4.03167 4.12071,7.85023 10.05597,10.81525 12.293,6.14104 15.72777,5.78269 15.72777,-1.64096 z m 0,-22.21919 c 0,-5.17041 -11.14074,-18.73183 -15.3882,-18.73183 -1.39264,0 -4.47852,-0.74693 -6.85748,-1.65981 -3.62967,-1.39285 -4.19118,-0.0577 -3.49101,8.30125 0.7298,8.71251 1.98435,10.37409 10.00892,13.25621 12.85594,4.61737 15.72777,4.4045 15.72777,-1.16582 z M 77.183398,1003.4152 c -15.643184,-5.61893 -17.286972,-10.1004 -16.281916,-44.39005 0.498546,-17.00917 1.683344,-31.70267 2.632909,-32.65223 2.711809,-2.71178 9.717065,4.37253 9.717065,9.82673 0,2.70692 1.769373,4.92165 3.931942,4.92165 2.162569,0 4.816632,-0.0102 5.897917,-0.021 1.081284,-0.0137 1.774747,-3.84555 1.541033,-8.51922 -0.23382,-4.67353 -0.52861,-11.15151 -0.655325,-14.39536 -0.135787,-3.47277 -1.896139,-5.89792 -4.281467,-5.89792 -7.911043,0 -16.000336,-11.50719 -17.580269,-25.00828 -2.09439,-17.89698 0.06186,-27.41762 6.209167,-27.41762 4.299632,0 4.947774,2.11507 5.020358,16.3831 0.09306,18.30405 4.987068,28.51789 11.195422,23.36543 3.060674,-2.54011 3.438534,-5.59956 2.046134,-16.5668 -0.12005,-0.94631 -2.691287,-1.07388 -5.713666,-0.28352 -5.004578,1.30871 -4.887564,0.82935 1.310647,-5.36885 6.379679,-6.37969 9.513549,-20.15066 4.585669,-20.15066 -1.2211,0 -4.759853,-2.20263 -7.863888,-4.89473 -4.598485,-3.98825 -5.643674,-7.78784 -5.643674,-20.51638 l 0,-15.62164 -7.357664,1.07988 c -7.324791,1.07503 -16.294366,-5.42255 -12.593883,-9.12304 2.257434,-2.25744 71.979311,-2.59547 75.585321,-0.36645 3.73993,2.31178 0.13587,7.35679 -7.26641,10.17104 -5.44297,2.06942 -6.26296,4.28848 -6.95393,18.81873 -0.71524,15.04069 -1.41,16.77206 -7.99191,19.91632 -6.919382,3.30547 -7.208572,4.23425 -7.208572,23.15251 0,17.35606 0.547652,19.60449 4.587272,18.83428 3.72392,-0.71003 4.73212,-4.15513 5.35696,-18.30471 0.57343,-12.98563 1.82807,-17.83622 4.92032,-19.02285 7.7224,-2.96335 10.44608,5.42906 8.29513,25.55972 -2.11824,19.82444 -5.7911,25.36452 -16.81572,25.36452 -4.5216,0 -6.135302,1.9978 -7.503152,9.28911 -0.95847,5.10904 -0.98896,11.66382 -0.0679,14.5662 2.482552,7.82184 9.800262,5.00979 10.918032,-4.19559 1.64172,-13.52032 2.86925,-15.33775 7.33983,-10.86718 6.18949,6.1895 4.97709,39.20464 -2.73345,74.43361 -0.70998,3.24384 -3.03777,5.89795 -5.17286,5.89795 -2.1351,0 -3.88201,1.1796 -3.88201,2.6213 0,3.4025 -17.420082,3.0118 -27.523606,-0.6173 z m 19.05585,-11.45106 c 7.582022,-1.5164 7.992252,-2.30116 9.741362,-18.63414 1.05358,-9.8381 0.78223,-18.09491 -0.64145,-19.5186 -1.3571,-1.35708 -8.837122,-2.70328 -16.622272,-2.99153 l -14.154785,-0.52404 -0.794409,16.92225 c -0.707567,15.07283 -0.134729,17.42991 5.24259,21.56739 6.921374,5.32564 6.699114,5.28464 17.228964,3.17867 z m 4.478932,-146.08877 c 3.45974,-3.45974 4.84308,-10.59052 4.27898,-22.05705 -0.25506,-5.18664 -1.69289,-5.89792 -11.921182,-5.89792 l -11.631034,0 1.354843,9.82985 c 2.650081,19.22715 9.692581,26.35093 17.918393,18.12512 z M 69.369291,781.30279 c -3.84552,-6.22217 4.414103,-9.26583 27.601877,-10.17121 22.377632,-0.87373 23.463622,-0.6614 23.463622,4.58726 0,4.83549 -1.54629,5.50341 -12.74064,5.50341 -7.00732,0 -18.057842,0.72882 -24.556687,1.61958 -7.947271,1.0893 -12.455218,0.58538 -13.768172,-1.53904 z"
       id="path3299"
       inkscape:connector-curvature="0" />
  </g>
</svg>
