<?xml version="1.0" encoding="UTF-8" standalone="no"?>
<!-- Created with Inkscape (http://www.inkscape.org/) -->

<svg
   xmlns:dc="http://purl.org/dc/elements/1.1/"
   xmlns:cc="http://creativecommons.org/ns#"
   xmlns:rdf="http://www.w3.org/1999/02/22-rdf-syntax-ns#"
   xmlns:svg="http://www.w3.org/2000/svg"
   xmlns="http://www.w3.org/2000/svg"
   xmlns:sodipodi="http://sodipodi.sourceforge.net/DTD/sodipodi-0.dtd"
   xmlns:inkscape="http://www.inkscape.org/namespaces/inkscape"
   width="300"
   height="300"
   id="svg2"
   version="1.1"
   inkscape:version="0.48.4 r9939"
   sodipodi:docname="image-seal.svg">
  <defs
     id="defs4" />
  <sodipodi:namedview
     id="base"
     pagecolor="#ffffff"
     bordercolor="#666666"
     borderopacity="1.0"
     inkscape:pageopacity="0.0"
     inkscape:pageshadow="2"
     inkscape:zoom="1.979899"
     inkscape:cx="169.25456"
     inkscape:cy="127.13516"
     inkscape:document-units="px"
     inkscape:current-layer="layer1"
     showgrid="false"
     inkscape:window-width="1215"
     inkscape:window-height="1000"
     inkscape:window-x="65"
     inkscape:window-y="24"
     inkscape:window-maximized="1"
     fit-margin-top="10"
     fit-margin-left="10"
     fit-margin-right="10"
     fit-margin-bottom="10" />
  <metadata
     id="metadata7">
    <rdf:RDF>
      <cc:Work
         rdf:about="">
        <dc:format>image/svg+xml</dc:format>
        <dc:type
           rdf:resource="http://purl.org/dc/dcmitype/StillImage" />
        <dc:title />
      </cc:Work>
    </rdf:RDF>
  </metadata>
  <g
     inkscape:label="Calque 1"
     inkscape:groupmode="layer"
     id="layer1"
     transform="translate(0,-752.36218)">
    <path
       style="fill:#000000"
       d="m 109.74686,1040.0794 c 0,-1.8983 4.28067,-5.7569 9.51262,-8.5745 8.77867,-4.7276 17.60997,-17.0115 17.60997,-24.4946 0,-1.7272 -2.35277,-5.6657 -5.22837,-8.75221 -6.92554,-7.43376 -10.17903,-39.81855 -4.98863,-49.65611 4.73681,-8.97777 24.92377,-14.36684 38.36462,-10.24171 7.44404,2.28462 9.56153,4.51132 10.52362,11.06646 2.56257,17.45997 0.0396,38.51275 -5.75468,48.0176 -5.58549,9.16257 -7.91085,24.29937 -3.75977,24.47437 4.9677,0.2094 16.78103,13.4765 15.34104,17.229 -1.28146,3.3394 -2.8399,3.498 -8.78838,0.8936 -9.74471,-4.2662 -16.03258,-11.5998 -18.12874,-21.1436 -0.95599,-4.3525 -2.55657,-7.9054 -3.55686,-7.8953 -2.36034,0.024 -14.02385,17.144 -14.02385,20.5846 0,3.7594 -14.69079,11.9441 -21.43848,11.9441 -3.12626,0 -5.68411,-1.5532 -5.68411,-3.4517 z m 48.82067,-46.50329 c 0,-0.62388 0.74082,-3.06491 1.64631,-5.42452 1.3544,-3.52952 -0.56921,-4.29024 -10.84904,-4.29024 -12.76834,0 -15.0005,1.83447 -9.24064,7.59433 2.97913,2.97913 18.44337,4.75703 18.44337,2.12043 z m 10.18172,-25.31024 c 1.24527,-3.77173 -7.86049,-4.38677 -24.42109,-1.64947 -16.27442,2.69 -11.73786,6.73037 6.56539,5.84728 10.36286,-0.49997 17.16263,-2.09858 17.8557,-4.19781 z m -3.7401,-13.69082 c 3.27329,-5.29628 -3.4353,-8.99962 -14.8238,-8.18321 -8.77248,0.62886 -12.15033,2.10525 -12.81331,5.60047 -0.76047,4.00906 1.21248,4.74645 12.69977,4.74645 7.48006,0 14.20186,-0.97367 14.93734,-2.16371 z m -83.741017,80.81925 c -0.92195,-1.4918 -4.55855,-2.7123 -8.08134,-2.7123 -4.98386,0 -6.82288,-1.9023 -8.28802,-8.5729 -2.16159,-9.8416 -2.32953,-78.05428 -0.19745,-80.18637 3.16941,-3.16941 9.78889,2.20856 9.82766,7.98446 0.0545,8.11436 4.00788,14.13837 7.75774,11.82081 1.72125,-1.0638 2.86919,-9.3112 2.71611,-19.51424 -0.2384,-15.88817 -0.90262,-17.91415 -6.58147,-20.07324 -9.59521,-3.6481 -12.07069,-11.01753 -12.07069,-35.93403 0,-23.85446 0.86887,-26.93396 6.94182,-24.60353 2.55196,0.97926 3.73344,6.59919 3.80957,18.12085 0.14972,22.66985 1.30629,29.76147 5.05747,31.01185 3.71908,1.23969 3.41179,3.02626 4.74616,-27.59329 0.9346,-21.44616 0.45301,-24.65105 -4.32716,-28.79688 -2.95835,-2.56574 -5.39225,-7.57314 -5.40869,-11.12751 -0.0771,-16.70846 -3.34716,-26.51434 -9.11627,-27.33732 -3.17422,-0.45282 -5.77129,-2.65406 -5.77129,-4.89167 0,-3.05276 5.07817,-4.63557 20.34195,-6.34039 29.345997,-3.27766 36.002857,-2.70307 41.118637,3.54918 2.97866,3.64033 7.74505,5.50346 14.07932,5.50346 11.17654,0 12.6024,-1.52154 10.70878,-11.42737 -1.23466,-6.4587 -2.53753,-7.26131 -10.98215,-6.76519 -5.6651,0.3328 -10.07163,-0.82287 -10.78087,-2.82744 -0.80696,-2.28058 1.80408,-3.39033 7.97688,-3.39033 11.09828,0 15.68589,-4.06001 15.68589,-13.88192 0,-8.58468 2.43841,-15.95294 5.27933,-15.95294 3.02987,0 8.28198,12.98098 8.28198,20.46957 0,5.90547 1.16822,6.65303 10.39699,6.65303 11.68071,0 14.30201,1.51634 12.18016,7.04583 -0.90623,2.36157 -5.46187,3.80321 -12.0183,3.80321 -9.92389,0 -10.55885,0.48932 -10.55885,8.13678 0,6.87105 1.05477,8.13677 6.78065,8.13677 3.72935,0 6.78064,1.22052 6.78064,2.71227 0,1.49174 -1.13828,2.71225 -2.52947,2.71225 -4.24944,0 -6.26115,10.86155 -2.78702,15.04759 1.79763,2.16602 6.07045,3.93824 9.49516,3.93824 7.84617,0 14.80715,2.60841 14.80715,5.54853 0,1.24071 -5.55473,3.08885 -12.34385,4.10695 -14.09765,2.11407 -19.96345,-2.48074 -20.11702,-15.75806 -0.12042,-10.41655 -9.17527,-10.11896 -13.55118,0.44537 -4.15469,10.03035 -27.43174,19.93755 -29.22283,12.43786 -0.35628,-1.49175 1.08365,-2.72781 3.19987,-2.74681 2.11618,-0.019 6.92979,-3.62155 10.69693,-8.00562 5.0719,-5.90253 6.09733,-8.87715 3.95152,-11.46269 -1.59378,-1.92039 -3.94556,-2.84408 -5.22612,-2.05264 -1.28059,0.79143 -5.45219,-0.60784 -9.27023,-3.10953 -3.81805,-2.50168 -7.74046,-3.74994 -8.71647,-2.77393 -1.49142,1.49139 -2.57309,10.62547 -3.33261,28.1417 -0.0813,1.87827 -3.67615,7.1068 -7.9882,11.61897 -7.339947,7.68055 -7.852317,9.66907 -8.030727,31.16631 -0.14863,17.91401 0.64039,22.96234 3.588997,22.96234 4.93517,0 7.04067,-7.11247 6.48994,-21.92328 -0.49403,-13.28706 2.1511,-24.18513 5.87015,-24.18513 1.33373,0 3.88558,5.18719 5.67079,11.5271 l 3.24582,11.52711 2.01238,-9.16547 c 1.10683,-5.04097 3.6599,-10.20949 5.67356,-11.48554 7.84224,-4.9697 48.00252,-3.61458 53.64172,1.81002 4.50965,4.33804 4.73238,34.50659 0.26581,35.99546 -1.52993,0.50998 -2.78173,2.99387 -2.78173,5.51971 0,5.23337 -20.25284,19.36584 -27.75263,19.36584 -15.74192,0 -34.41062,-17.4686 -30.25157,-28.30691 0.89492,-2.33213 0.32306,-4.24021 -1.27079,-4.24021 -1.59384,0 -4.2103,4.87394 -5.81436,10.83092 -2.06292,7.66106 -5.2687,12.04732 -10.95359,14.98708 -5.090097,2.63219 -8.113697,6.36828 -8.246007,10.1891 -0.11503,3.31812 -0.78712,11.22012 -1.49391,17.56004 -0.7874,7.06334 -0.18146,11.5271 1.56503,11.5271 2.65464,0 3.987457,-5.36575 3.12335,-12.57464 -0.42132,-3.51522 7.793027,-7.4002 10.285877,-4.86468 0.90529,0.92079 1.51677,19.20302 1.35885,40.62716 -0.33576,45.55138 -2.87588,52.75538 -18.601157,52.75538 -5.09866,0 -10.02462,-1.2205 -10.94657,-2.7122 z m 13.33946,-12.4954 c 3.41069,-1.3087 4.29023,-6.035 4.29023,-23.05411 l 0,-21.40796 -11.97555,0 -11.97552,0 0.8249,21.02005 c 0.45368,11.56092 0.9606,21.93542 1.12649,23.05412 0.36227,2.4434 11.70548,2.6919 17.70945,0.3879 z M 158.16948,919.07052 c 2.86672,-1.81657 2.99244,-3.5925 0.57414,-8.11116 -2.92428,-5.46406 -3.54233,-5.55468 -11.12906,-1.63139 -9.58404,4.95608 -10.2767,8.62967 -1.93026,10.23729 3.35642,0.64647 6.71284,1.32293 7.45871,1.50324 0.74587,0.18037 3.00779,-0.71881 5.02647,-1.99798 z m -14.51938,-13.8647 c 0.92195,-1.49174 5.80402,-2.71226 10.84904,-2.71226 5.04503,0 9.92709,1.22052 10.84904,2.71226 2.43854,3.94564 6.78065,3.32048 6.78065,-0.97623 0,-2.02866 -3.05129,-5.97988 -6.78065,-8.78053 -3.72936,-2.80062 -6.78065,-7.17135 -6.78065,-9.71274 0,-2.54139 -1.16722,-5.34206 -2.59381,-6.22376 -1.4266,-0.88167 -1.90626,-3.39475 -1.06594,-5.58458 0.84033,-2.18985 0.22375,-3.98153 -1.37006,-3.98153 -1.59383,0 -4.1344,4.57693 -5.64567,10.17096 -1.51127,5.59404 -5.83014,12.47784 -9.59744,15.29735 -3.76733,2.8195 -6.84968,6.78617 -6.84968,8.81483 0,4.25045 9.702,5.02645 12.20517,0.97623 z m 31.81087,-30.4696 c -1.48614,-5.68303 -10.26744,-6.40835 -12.33556,-1.01889 -0.79589,2.07398 1.12737,6.53418 4.27389,9.91157 5.4386,5.83765 5.80964,5.88794 7.5176,1.01889 0.98813,-2.81701 1.23296,-7.27721 0.54407,-9.91157 z m -37.52558,7.19356 c 3.41708,-8.90473 1.22142,-11.49988 -5.90425,-6.97851 -1.91963,1.21805 -2.70223,4.24208 -1.74402,6.73912 2.18953,5.70584 5.51072,5.8098 7.64827,0.2395 z m -36.8157,-38.74547 c 2.24199,-1.42158 3.25475,-6.21672 2.71227,-12.84172 -0.7979,-9.74417 -1.50284,-10.57295 -8.992927,-10.57295 -7.82908,0 -8.09298,0.39797 -7.19409,10.84904 1.13202,13.16146 5.74734,17.46541 13.474747,12.56563 z m 99.06863,189.68489 c -5.24661,-3.1992 -9.1415,-8.1785 -10.06972,-12.8731 -2.23797,-11.319 -1.34908,-79.5309 1.03638,-79.5309 3.45726,0 11.30215,13.78782 9.90962,17.4167 -1.63001,4.24772 2.62569,11.59564 5.21575,9.00556 1.04466,-1.04462 2.12127,-10.16315 2.39247,-20.26339 0.38972,-14.51466 -0.5613,-19.55402 -4.53707,-24.04099 -8.88193,-10.02397 -12.66162,-52.63663 -4.66883,-52.63663 1.37321,0 2.49676,5.39251 2.49676,11.98333 0,14.55951 2.06458,20.56378 7.07085,20.56378 2.60685,0 3.8373,-3.57367 3.96882,-11.52711 0.10491,-6.3399 1.14411,-13.96813 2.30945,-16.95161 2.15081,-5.50646 1.77198,-6.85557 -6.23648,-22.21021 -2.48107,-4.7569 -4.32283,-9.63897 -4.09283,-10.84904 0.23,-1.21007 -0.50195,-6.13679 -1.62652,-10.94826 -1.50468,-6.43776 -3.37279,-8.54543 -7.07359,-7.98066 -2.76591,0.42211 -5.78998,1.52852 -6.72014,2.45867 -2.69499,2.69498 -9.29763,-0.8599 -9.29763,-5.00589 0,-2.55668 3.72676,-3.94324 11.52711,-4.28868 19.00545,-0.84167 43.55281,-2.20929 52.13652,-2.90472 10.00929,-0.81094 12.46687,6.28271 3.53408,10.20094 -4.93144,2.16308 -6.33534,5.23057 -6.98513,15.26255 -0.63221,9.75969 -2.51736,14.07372 -8.46614,19.37411 -5.99786,5.34409 -7.99034,9.96073 -9.21346,21.34783 -2.11569,19.69681 -1.16054,30.13399 2.88069,31.4779 4.6985,1.56247 8.83153,-10.75865 8.83153,-26.32802 0,-9.01061 1.24175,-13.57107 3.98151,-14.62241 5.07472,-1.94735 5.93391,-0.40541 8.1958,14.70858 2.45969,16.4358 -3.45411,30.58401 -15.83794,37.89064 -7.78774,4.59488 -9.527,7.36206 -10.4034,16.55173 -1.42068,14.89731 0.48135,29.43789 3.85076,29.43789 1.60244,0 2.08657,-3.33982 1.15752,-7.98516 -1.28865,-6.44316 -0.529,-8.32411 3.93375,-9.74054 3.04194,-0.96547 6.23189,-1.05431 7.08879,-0.19744 2.27871,2.27867 2.11522,69.79105 -0.18552,76.61485 -1.34251,3.9818 -5.71026,6.7478 -13.91894,8.8148 -14.6526,3.6896 -12.05783,3.9498 -22.18482,-2.2253 z m 24.20752,-19.7776 c 0.75094,-4.8886 1.19811,-14.38061 0.99371,-21.09346 l -0.37166,-12.20517 -11.29837,-0.82285 c -12.73658,-0.92756 -14.80167,1.94931 -13.2456,18.45254 0.4923,5.22104 1.0289,12.66284 1.19243,16.53714 0.34252,8.1145 9.92947,13.9579 16.93331,10.321 2.43696,-1.2655 5.04524,-6.3006 5.79618,-11.1892 z m 4.69045,-177.29587 c 0,-7.27758 -1.38805,-9.94486 -6.10259,-11.72665 -8.04562,-3.04074 -10.49458,-1.26169 -9.41013,6.83609 1.08498,8.10188 9.23246,18.19222 12.87271,15.9424 1.452,-0.89738 2.64001,-5.87072 2.64001,-11.05184 z m -27.12261,-44.50482 c 0,-1.49175 2.97927,-2.71226 6.62058,-2.71226 3.64131,0 7.37491,-1.22052 8.29686,-2.71226 1.84346,-2.98278 17.40609,-3.66861 24.18851,-1.06595 2.35963,0.90547 4.29022,3.3465 4.29022,5.42452 0,2.9146 -4.95975,3.77821 -21.69808,3.77821 -12.65723,0 -21.69809,-1.13012 -21.69809,-2.71226 z M 89.404913,786.0885 c -14.15412,-1.3727 -16.3848,-2.36043 -17.1276,-7.58407 -0.81088,-5.70256 0.0466,-5.99052 16.98116,-5.70197 20.629397,0.35154 29.173227,4.51128 23.444227,11.41431 -1.99104,2.39902 -4.38599,4.1567 -5.32216,3.90592 -0.93613,-0.25088 -9.025177,-1.16616 -17.975627,-2.03419 z"
       id="path3067"
       inkscape:connector-curvature="0" />
  </g>
</svg>
