<?xml version="1.0" encoding="UTF-8" standalone="no"?>
<!-- Created with Inkscape (http://www.inkscape.org/) -->

<svg
   xmlns:dc="http://purl.org/dc/elements/1.1/"
   xmlns:cc="http://creativecommons.org/ns#"
   xmlns:rdf="http://www.w3.org/1999/02/22-rdf-syntax-ns#"
   xmlns:svg="http://www.w3.org/2000/svg"
   xmlns="http://www.w3.org/2000/svg"
   xmlns:sodipodi="http://sodipodi.sourceforge.net/DTD/sodipodi-0.dtd"
   xmlns:inkscape="http://www.inkscape.org/namespaces/inkscape"
   width="300"
   height="300"
   id="svg2"
   version="1.1"
   inkscape:version="0.48.4 r9939"
   sodipodi:docname="image-seal.svg">
  <defs
     id="defs4" />
  <sodipodi:namedview
     id="base"
     pagecolor="#ffffff"
     bordercolor="#666666"
     borderopacity="1.0"
     inkscape:pageopacity="0.0"
     inkscape:pageshadow="2"
     inkscape:zoom="1.979899"
     inkscape:cx="130.93154"
     inkscape:cy="137.35134"
     inkscape:document-units="px"
     inkscape:current-layer="layer1"
     showgrid="false"
     inkscape:window-width="1215"
     inkscape:window-height="1000"
     inkscape:window-x="65"
     inkscape:window-y="24"
     inkscape:window-maximized="1"
     fit-margin-top="10"
     fit-margin-left="10"
     fit-margin-right="10"
     fit-margin-bottom="10" />
  <metadata
     id="metadata7">
    <rdf:RDF>
      <cc:Work
         rdf:about="">
        <dc:format>image/svg+xml</dc:format>
        <dc:type
           rdf:resource="http://purl.org/dc/dcmitype/StillImage" />
        <dc:title />
      </cc:Work>
    </rdf:RDF>
  </metadata>
  <g
     inkscape:label="Calque 1"
     inkscape:groupmode="layer"
     id="layer1"
     transform="translate(0,-752.36218)">
    <path
       style="fill:#000000"
       d="m 211.81409,1048.1344 c -6.05195,-10.5162 -9.8742,-22.8616 -10.30423,-34.9832 9.62252,-0.6759 -7.73264,-9.7156 -5.3733,-16.50532 -5.05846,-14.96148 -1.29079,-31.36345 -6.52696,-46.15923 -10.73776,-6.25212 -24.66267,0.0252 -36.10482,2.20525 -17.38118,-3.62733 -3.56734,-18.35828 8.41714,-14.85211 11.15513,-1.09201 28.87305,-4.09534 26.19759,-19.2716 1.23771,-13.12456 -9.29296,-21.50406 -21.78181,-17.39881 -7.18361,2.01965 -22.13937,-2.47791 -10.0495,-9.2662 12.0139,-8.84612 33.05665,-7.70538 40.1024,6.83953 -2.59566,7.02256 7.0743,30.05415 12.56978,16.26526 6.31431,-16.09465 12.58797,-35.19034 3.29696,-51.41599 -1.40966,-4.34636 -7.62388,-0.83183 -11.18889,-1.65174 -16.56416,0.33385 -33.42852,2.99429 -49.76362,-0.39589 -1.30278,-9.46355 18.35496,-5.38868 25.42215,-8.31398 4.69978,-0.37171 8.74669,-1.25182 6.73277,-6.85175 -0.72763,-13.95439 -1.31552,-27.91747 -2.2376,-41.86063 -10.55089,7.49185 -17.31685,20.25849 -29.51655,25.29284 -9.68109,-7.02385 10.25954,-18.30704 14.44993,-25.33365 5.7632,-5.7632 11.5264,-11.52639 17.2896,-17.28958 0.48914,-9.92373 -1.24612,-20.23937 1.3956,-29.85249 13.46836,-4.61421 6.31212,18.28091 8.51668,25.77303 1.68462,11.19376 16.96718,13.18852 22.53577,22.94682 4.49238,6.09211 23.47066,20.16382 10.71819,24.54319 -12.53669,-4.66128 -15.99752,-20.63734 -28.07275,-26.09748 -10.38011,3.17408 -3.15815,21.23983 -5.63095,30.1886 -2.12244,10.96048 -2.91023,21.82524 12.05435,17.88487 15.52262,-0.73069 23.98119,15.10911 22.80167,28.8555 -0.56757,17.90858 -4.89144,37.25989 -17.42834,50.70615 -11.58174,6.59384 -6.73296,21.9596 -6.85248,32.85442 1.76102,18.16088 7.04451,35.74369 9.24888,53.84689 2.59211,10.1623 9.3047,19.8475 8.18346,29.9157 -1.91493,4.0229 -6.99299,2.0774 -9.10112,-0.6184 z M 62.081018,969.38294 c -6.752664,-12.71059 10.309763,-11.02152 18.214746,-10.8563 3.517906,-0.80037 10.280445,1.66963 11.582372,-1.3643 -0.0264,-25.01195 0.971273,-50.05172 0.146259,-75.03942 -3.033053,-14.69552 -15.946518,-26.81346 -13.124513,-43.07481 2.677646,-10.69369 1.889555,-25.16288 11.60322,-32.28334 12.147838,-4.97679 26.421008,-10.75771 39.101348,-4.01739 9.87496,3.72427 15.55413,12.90822 15.01403,23.28544 -0.7363,11.67576 2.87496,26.52233 -3.07797,36.36761 -3.56655,10.21825 -15.72837,16.24616 -13.22382,28.92358 -0.75854,21.99117 -0.91803,43.99848 -1.37198,65.99766 6.81467,1.08005 17.39494,-0.79909 19.53883,7.70392 -0.90286,13.5236 -18.07406,0.96441 -26.70641,5.7026 -17.94488,0.43887 -35.945521,2.71954 -53.870552,1.37866 -1.566138,-0.22229 -3.338012,-1.07733 -3.82556,-2.72391 z m 52.422942,-14.66832 c 2.11225,-22.77766 1.61528,-45.79497 0.98961,-68.65015 0.19338,-12.89079 -13.39053,-4.80777 -9.39981,4.6325 0.52148,17.48272 -1.3368,34.81918 -3.208,52.17628 -2.06678,9.13847 0.49627,23.06252 11.6182,11.84137 z m 9.29004,-92.35464 c 10.29789,-6.65081 11.55697,-20.87076 11.12758,-32.12068 0.71751,-11.55194 -10.01531,-19.48543 -20.94307,-18.07429 -11.95422,-0.67797 -22.965906,8.63711 -21.630237,21.19949 -0.190824,10.1125 -2.44587,24.85325 9.432127,29.14914 6.97867,2.82101 15.0328,2.45767 22.0136,-0.15366 z M 76.667638,785.7845 c -11.460098,-10.00304 12.805383,-11.01382 19.213906,-11.31856 17.362866,-0.86203 35.277836,-3.59089 52.407986,0.16039 7.59424,10.16091 -15.95484,10.82855 -23.215,10.36961 -15.45703,-0.13727 -30.946241,0.48909 -46.335611,1.17224 l -2.071281,-0.38375 0,7e-5 z"
       id="path3188"
       inkscape:connector-curvature="0" />
  </g>
</svg>
