<?xml version="1.0" encoding="UTF-8" standalone="no"?>
<svg
   xmlns:dc="http://purl.org/dc/elements/1.1/"
   xmlns:cc="http://creativecommons.org/ns#"
   xmlns:rdf="http://www.w3.org/1999/02/22-rdf-syntax-ns#"
   xmlns:svg="http://www.w3.org/2000/svg"
   xmlns="http://www.w3.org/2000/svg"
   viewBox="0 0 300 300"
   height="300"
   width="300"
   id="svg4168"
   version="1.1">
  <metadata
     id="metadata4174">
    <rdf:RDF>
      <cc:Work
         rdf:about="">
        <dc:format>image/svg+xml</dc:format>
        <dc:type
           rdf:resource="http://purl.org/dc/dcmitype/StillImage" />
        <dc:title></dc:title>
      </cc:Work>
    </rdf:RDF>
  </metadata>
  <defs
     id="defs4172" />
  <path
     id="path4178"
     d="m 81.390165,284.70624 c -2.772642,-0.31569 -7.043111,-0.97191 -9.48993,-1.45826 l -4.448772,-0.88427 v -3.64274 c 0,-3.63596 0.0048,-3.64409 2.6311,-4.35124 5.215766,-1.40447 16.434425,-2.11795 26.325554,-1.67425 5.521093,0.24766 13.998233,0.22069 18.838103,-0.0599 l 8.79976,-0.51025 v -17.18492 c 0,-12.72776 -0.21088,-17.18495 -0.81304,-17.18495 -0.44717,0 -4.3093,-1.09144 -8.58252,-2.42542 -6.8176,-2.12826 -8.14861,-2.80454 -10.86401,-5.51995 -4.128935,-4.12894 -5.561866,-8.42788 -5.518444,-16.55592 0.04171,-7.81619 1.249914,-13.60073 3.365824,-16.11535 2.51196,-2.98529 10.86293,-6.82732 18.61621,-8.56476 6.37992,-1.42967 8.51953,-1.54201 28.29727,-1.48585 22.18776,0.063 28.25018,0.58788 35.67323,3.08854 9.81341,3.30589 13.01424,7.76107 13.55434,18.86605 0.25455,5.2335 0.0111,7.15277 -1.64672,12.98405 -2.75958,9.70645 -5.12326,11.5167 -18.14886,13.89952 -3.17186,0.58024 -5.91221,1.20016 -6.08964,1.3776 -0.32781,0.32781 -3.07548,34.436 -2.79176,34.65566 0.0851,0.0658 13.25469,0.39432 29.26578,0.72986 27.9645,0.58605 29.18776,0.66699 31.05797,2.05508 2.36135,1.7526 3.99185,5.87636 2.63298,6.65914 -0.48903,0.28169 -3.1728,1.00842 -5.96395,1.61495 -4.40064,0.95627 -13.23479,1.12498 -66.50055,1.27 -33.78416,0.092 -64.065673,0.3527 -67.292247,0.57939 -3.226583,0.22669 -8.135035,0.15388 -10.907678,-0.16181 z m 73.644785,-12.43837 5.10734,-0.004 -0.43198,-8.10957 c -0.2376,-4.46027 -0.64016,-12.06948 -0.89459,-16.90934 l -0.46259,-8.79988 h -10.94198 -10.94199 v 17.35852 17.35852 l 6.72923,-0.44561 c 3.70107,-0.24508 9.02753,-0.44722 11.83656,-0.44918 z m 20.50955,-46.31286 c 1.94217,-0.37528 4.78946,-1.49818 6.32731,-2.49534 3.22663,-2.09219 4.58265,-5.6101 4.60109,-11.93653 0.0313,-10.72072 -7.38119,-13.47381 -35.85511,-13.31713 -20.36029,0.11204 -28.72159,0.9284 -34.06369,3.32579 -6.10429,2.73945 -6.60495,3.51053 -6.63307,10.21576 -0.0175,4.1632 0.31478,6.32864 1.264,8.23843 1.17732,2.36869 1.76893,2.73889 6.90177,4.3186 3.08775,0.9503 7.78815,2.01433 10.44533,2.36453 5.91468,0.77947 42.12951,0.22938 47.01237,-0.71411 z M 86.364072,172.34278 c -3.182639,-0.92812 -3.749276,-1.84524 -3.96894,-6.42393 -0.09966,-2.07726 0.112678,-2.26773 4.284787,-3.84346 l 4.389635,-1.6579 57.036116,0.19162 c 60.19361,0.20221 58.94673,0.13639 61.32776,3.23759 0.46242,0.60229 0.85064,2.23744 0.86272,3.63365 0.0213,2.46169 -0.0982,2.58408 -3.94656,4.04106 -3.94994,1.49544 -4.23308,1.50295 -60.46629,1.60248 -44.03162,0.0779 -57.164439,-0.0944 -59.519228,-0.78111 z M 130.94774,149.686 c -11.22847,-1.34126 -14.98129,-1.89905 -20.60319,-3.06226 -10.2614,-2.12317 -16.144938,-4.0775 -18.289497,-6.07523 -2.665771,-2.48323 -7.463236,-9.29699 -9.746602,-13.84293 -3.462732,-6.89393 -3.837203,-9.16737 -4.501819,-27.330622 -0.347258,-9.489931 -1.111031,-20.806341 -1.697289,-25.147576 -1.868657,-13.837356 -1.081359,-32.182374 1.562929,-36.418277 0.285062,-0.456655 1.782337,-1.032409 3.32727,-1.279453 2.785679,-0.445447 2.818516,-0.425279 3.961985,2.432508 0.889572,2.223259 1.620556,10.321507 3.199276,35.443213 3.310329,52.676237 3.925034,54.808967 17.058477,59.184377 3.56988,1.18931 6.60455,2.04852 6.74371,1.90937 0.13916,-0.13916 0.0419,-3.64377 -0.21614,-7.78801 l -0.46915,-7.53499 -5.46229,-1.16222 c -6.841915,-1.45577 -8.218369,-3.05486 -6.890249,-8.00474 0.3339,-1.24446 1.372809,-1.66872 6.547249,-2.67378 l 6.15038,-1.19463 v -8.886682 -8.886674 h -1.76173 c -0.96896,0 -3.93023,-0.493208 -6.58058,-1.096022 -5.851111,-1.330806 -7.417157,-3.005762 -6.215253,-6.647543 0.709177,-2.14881 1.084817,-2.360598 6.791413,-3.828985 3.33834,-0.859003 6.42666,-2.073479 6.90343,-2.714765 0.51426,-0.691703 0.86272,-3.297702 0.86272,-6.45189 v -5.291486 l -6.20973,-0.8486 c -7.61133,-1.040137 -9.162392,-2.080504 -9.162392,-6.145631 0,-1.59836 0.12597,-3.032079 0.279932,-3.18604 0.153961,-0.153962 3.376782,-0.778264 7.16182,-1.387336 3.78503,-0.609074 7.17528,-1.400808 7.53389,-1.759412 1.12321,-1.12321 1.31048,-8.954758 0.4035,-16.874161 -1.06043,-9.259286 -0.27439,-12.167798 3.74195,-13.84593 6.48309,-2.708807 8.21608,0.06854 8.41318,13.48329 0.0697,4.744966 0.15698,10.711653 0.1939,13.259304 l 0.0672,4.632092 2.74085,0.738035 c 1.57201,0.4233 4.63112,0.544371 7.17342,0.283904 4.17337,-0.427574 4.49682,-0.356078 5.53123,1.222632 0.60426,0.92222 1.28648,2.615841 1.51603,3.763601 0.6258,3.129022 -1.94345,4.508311 -9.57537,5.140498 -3.35718,0.278089 -6.21806,0.619727 -6.35752,0.759195 -0.13947,0.139466 -0.47011,3.397477 -0.73477,7.240021 l -0.48118,6.986445 7.32799,0.499476 c 6.55924,0.447079 7.5103,0.681799 9.06594,2.237446 0.95589,0.955883 1.73797,2.136085 1.73797,2.622674 0,0.486581 0.17288,1.335209 0.38418,1.885832 0.54688,1.425174 -4.09374,3.125971 -11.55556,4.235126 -3.37542,0.501738 -6.24891,1.029489 -6.38553,1.172784 -0.13662,0.143294 -0.35737,4.2205 -0.49059,9.06046 -0.20522,7.456902 -0.0842,8.805822 0.79308,8.838542 14.52621,0.54193 17.27582,1.43421 18.59511,6.03435 0.61276,2.13652 0.52436,2.2856 -2.17059,3.66047 -1.86312,0.95049 -5.15824,1.65423 -9.78305,2.08939 -3.83552,0.3609 -7.17725,0.87647 -7.42602,1.14573 -0.24879,0.26926 -0.72242,3.98358 -1.0525,8.25405 l -0.60016,7.76449 h 21.23374 21.23373 l -0.0816,-6.72923 c -0.12869,-10.60466 -0.0535,-10.45711 -6.11385,-11.99421 -2.83813,-0.71984 -5.58675,-1.73533 -6.10807,-2.25663 -0.93467,-0.93469 -1.31132,-5.25715 -0.56352,-6.46712 0.21137,-0.342 3.03765,-1.17864 6.28061,-1.85919 l 5.89629,-1.23738 v -8.871162 c 0,-10.155433 0.9591,-8.959356 -8.17144,-10.19039 -3.50588,-0.472689 -5.35861,-1.069443 -6.0171,-1.938107 -1.02412,-1.350967 -1.29361,-4.909628 -0.46715,-6.168632 0.27888,-0.424847 3.30228,-1.171958 6.71865,-1.660247 3.41638,-0.488288 6.59983,-1.188099 7.07432,-1.555134 0.5905,-0.456771 0.86272,-2.896017 0.86272,-7.730578 v -7.063241 l -4.81094,-0.447129 c -11.57019,-1.075337 -14.71559,-2.84761 -13.37703,-7.537304 0.67865,-2.377657 1.06705,-2.494708 14.16377,-4.268402 2.81972,-0.381877 3.3159,-0.703957 3.96852,-2.576029 0.41022,-1.17677 0.74585,-6.115485 0.74585,-10.974921 0,-9.066135 0.78763,-14.661032 2.5495,-18.110415 0.82593,-1.617013 1.30724,-1.883477 2.74866,-1.521705 2.84778,0.714745 4.85982,2.367889 6.12374,5.03141 1.00105,2.109561 1.09758,3.434611 0.61297,8.414251 -0.31636,3.250714 -0.59135,8.61742 -0.61107,11.926011 -0.0473,7.938316 0.42855,8.444321 8.0631,8.573316 4.9273,0.08325 5.79179,0.288047 6.87792,1.629359 0.68325,0.843776 1.24226,2.439156 1.24226,3.545291 0,2.298057 -0.99384,2.832511 -8.28211,4.453846 -2.46738,0.548888 -5.18496,1.153796 -6.03905,1.34424 -1.49358,0.333034 -1.55291,0.631976 -1.55291,7.825256 v 7.478995 l 4.6587,0.439985 c 2.56228,0.241992 5.84726,0.442193 7.29994,0.444891 3.23191,0.006 6.67614,3.025863 6.67614,5.853535 0,2.554869 -3.60157,3.917176 -11.48204,4.343098 l -6.30571,0.340809 -0.49647,9.269521 c -0.27306,5.098242 -0.36542,9.400582 -0.20523,9.560762 0.16019,0.16019 3.53175,0.49494 7.49237,0.74391 3.9606,0.24896 8.01146,0.86078 9.00188,1.35958 1.99894,1.00671 3.76065,4.49439 3.11722,6.17114 -0.77597,2.02216 -6.5756,3.9426 -13.01518,4.30978 -3.34931,0.19097 -6.24747,0.60257 -6.44035,0.91465 -0.49267,0.79717 -1.77608,15.93877 -1.38419,16.33065 0.17686,0.17686 4.06954,-0.70418 8.6504,-1.95785 8.31357,-2.27524 8.33255,-2.28521 10.35492,-5.43678 2.58184,-4.02344 3.80548,-6.97499 5.50179,-13.27069 2.18665,-8.11563 2.84062,-17.451552 3.11708,-44.499573 0.17011,-16.643007 0.53804,-26.3555 1.06475,-28.107005 1.05992,-3.524674 3.54542,-5.950895 6.09629,-5.950895 1.765,0 2.22149,0.452573 3.65481,3.623429 1.59271,3.523501 1.63256,4.06121 1.44495,19.4975 -0.42207,34.726812 -2.24752,50.939474 -7.73216,68.672614 l -2.0279,6.55668 -6.12174,4.65685 -6.12175,4.65684 -19.26954,2.81596 c -18.52309,2.70687 -35.53047,3.88424 -43.08066,2.98236 z"
     style="fill:#000000;stroke-width:0.69017702" />
</svg>
