<?xml version="1.0" encoding="UTF-8" standalone="no"?>
<svg
   xmlns:dc="http://purl.org/dc/elements/1.1/"
   xmlns:cc="http://creativecommons.org/ns#"
   xmlns:rdf="http://www.w3.org/1999/02/22-rdf-syntax-ns#"
   xmlns:svg="http://www.w3.org/2000/svg"
   xmlns="http://www.w3.org/2000/svg"
   viewBox="0 0 300 300"
   height="300"
   width="300"
   id="svg4598"
   version="1.1">
  <metadata
     id="metadata4604">
    <rdf:RDF>
      <cc:Work
         rdf:about="">
        <dc:format>image/svg+xml</dc:format>
        <dc:type
           rdf:resource="http://purl.org/dc/dcmitype/StillImage" />
        <dc:title></dc:title>
      </cc:Work>
    </rdf:RDF>
  </metadata>
  <defs
     id="defs4602" />
  <path
     id="path4608"
     d="m 67.95655,284.27153 c -2.116986,-0.4426 -5.033204,-1.30943 -6.480483,-1.9263 -2.445622,-1.04239 -2.616367,-1.30145 -2.418492,-3.66927 0.194935,-2.33253 0.481155,-2.64693 3.389363,-3.72294 6.222735,-2.30237 12.921488,-2.67717 39.370632,-2.20277 l 25.51627,0.45766 0.14617,-8.74955 c 0.0804,-4.81225 0.15813,-10.38203 0.17275,-12.37729 l 0.0266,-3.62774 -7.16072,-1.48497 c -8.81465,-1.82795 -11.9048,-3.18045 -14.93836,-6.53825 -4.24868,-4.70278 -4.71445,-11.17741 -1.64169,-22.8211 1.26329,-4.78704 1.66943,-5.47611 4.37106,-7.41628 3.43632,-2.46779 5.0028,-3.12608 12.11422,-5.09093 4.67141,-1.29068 7.5675,-1.46004 29.36744,-1.71726 39.30873,-0.46381 47.12642,1.52873 53.02745,13.51543 2.06518,4.19499 2.25228,5.12229 2.25053,11.15437 -9.6e-4,5.43119 -0.26419,7.06964 -1.50523,9.39117 -2.64709,4.95172 -7.87605,7.54096 -17.47254,8.65194 -9.79482,1.13394 -8.73812,-0.40164 -9.30729,13.52508 -0.27209,6.6574 -0.29842,12.30063 -0.0585,12.54053 0.2399,0.23989 13.55666,0.62125 29.59281,0.84747 19.93127,0.28117 29.76845,0.66857 31.09029,1.22438 1.18558,0.49851 2.34702,1.80235 3.0021,3.37019 1.27662,3.05538 0.88792,3.48771 -5.23993,5.82784 -3.83078,1.4629 -4.07127,1.46737 -83.60358,1.55522 -58.328957,0.0644 -80.79603,-0.12814 -83.610824,-0.71663 z m 94.09997,-11.73127 2.59124,-0.4283 v -10.56355 c 0,-5.80996 -0.18873,-11.05541 -0.41943,-11.65656 -0.36021,-0.93872 -2.11607,-1.09302 -12.43797,-1.09302 h -12.01855 v 12.09247 12.09247 l 9.84673,-0.008 c 5.41571,-0.004 11.0128,-0.20033 12.43798,-0.4359 z m 3.64586,-34.78856 c 3.03044,-0.37518 9.25308,-0.95712 13.8281,-1.29321 6.28979,-0.46207 9.03422,-0.97633 11.25431,-2.10894 l 2.93606,-1.49787 -0.19832,-6.29244 c -0.1868,-5.92675 -0.30685,-6.37333 -2.0656,-7.6842 -3.37401,-2.51478 -9.62164,-3.28732 -33.02816,-4.08404 -24.48105,-0.8333 -33.43311,-0.31041 -39.36166,2.29912 -5.28084,2.32441 -5.55324,2.80124 -5.55324,9.72095 0,6.05025 0.0243,6.13828 1.90024,6.85195 4.23587,1.61154 11.888,3.38868 17.10222,3.97182 7.73671,0.86527 26.60436,0.93171 33.18605,0.11686 z M 146.3363,195.63653 c -28.12364,-0.21455 -51.755787,-0.65245 -52.515884,-0.97312 -0.760097,-0.32065 -2.237113,-0.90254 -3.28224,-1.29307 -1.614704,-0.60337 -1.900248,-1.10434 -1.900248,-3.33387 0,-2.21689 0.348281,-2.83749 2.245741,-4.00165 2.189587,-1.34341 3.697139,-1.38281 60.289621,-1.57571 53.78829,-0.18335 58.20806,-0.11074 60.28311,0.99038 2.62631,1.39362 4.53911,4.03024 4.20026,5.7897 -0.36413,1.89075 -6.96735,4.17903 -13.00397,4.50639 -2.85037,0.15458 -28.19275,0.1055 -56.31639,-0.10905 z m -26.60344,-20.1094 c -12.88285,-0.38305 -16.52608,-0.72536 -21.257467,-1.99724 -10.155552,-2.73 -13.014484,-4.21238 -16.181287,-8.39018 C 73.583064,153.64768 72.58648,146.67727 70.544493,82.95916 69.140859,39.159942 69.119864,36.08509 70.200113,32.516265 c 1.496421,-4.943743 1.740471,-5.244329 4.699392,-5.788018 2.477481,-0.455227 2.514894,-0.426511 4.145988,3.182572 1.561099,3.454183 1.652906,4.443495 1.780872,19.189411 0.219259,25.265716 2.238149,76.94813 3.428061,87.75683 0.621763,5.64783 1.70437,11.64175 2.481238,13.73762 1.617386,4.3634 5.235521,8.62261 8.922719,10.50368 2.825381,1.44141 11.144457,3.39864 14.445677,3.39864 h 2.02781 v -5.85324 -5.85325 l -3.65349,-1.72838 c -10.882012,-5.14802 -16.235844,-16.39657 -13.635696,-28.64901 0.74227,-3.49773 1.169726,-4.23776 2.849819,-4.93368 1.087117,-0.4503 2.434537,-0.64299 2.994267,-0.4282 1.77027,0.67932 3.89532,5.8908 4.87842,11.96388 0.69054,4.26578 1.44312,6.51423 2.75692,8.23671 0.99391,1.30307 2.10222,2.36922 2.46293,2.36922 0.3804,0 0.65902,-3.8452 0.66344,-9.15573 0.004,-5.03565 0.19306,-10.27695 0.41973,-11.64731 l 0.41214,-2.49159 -6.46597,-3.48917 c -3.55628,-1.91905 -7.124494,-4.3833 -7.929367,-5.4761 -5.371106,-7.29266 -7.078083,-17.607628 -4.23829,-25.611237 0.634119,-1.787199 1.180208,-2.245745 2.674489,-2.245745 1.032714,0 2.37188,-0.189651 2.97593,-0.421447 1.582678,-0.607326 3.790998,4.784861 4.825718,11.783184 0.89517,6.054481 2.69703,9.827285 5.60268,11.731155 l 1.71533,1.12393 V 93.091006 c 0,-5.846473 0.18869,-12.006573 0.41931,-13.689097 l 0.4193,-3.059139 -6.12005,-2.293058 c -8.038948,-3.01204 -8.901221,-3.617596 -10.973031,-7.706114 -2.865544,-5.654895 -3.432903,-16.017559 -1.334677,-24.377586 0.411417,-1.639192 2.474827,-2.539761 5.819176,-2.539761 1.693372,0 2.886222,4.489736 3.444462,12.964527 0.53028,8.050183 1.62985,10.32857 5.62623,11.657818 l 2.35378,0.782896 0.46554,-19.861301 c 0.53336,-22.753634 0.94104,-25.230614 4.38997,-26.671665 1.29558,-0.541327 2.62711,-0.98423 2.95896,-0.98423 0.33186,0 1.43543,1.52876 2.45239,3.397244 2.42213,4.45025 3.10741,10.52923 2.46024,21.824204 -0.28309,4.94064 -0.54169,11.703789 -0.57466,15.029219 l -0.0599,6.046238 h 3.04189 c 2.80496,0 3.10504,-0.174928 3.85243,-2.245745 0.44579,-1.23516 1.10015,-5.452367 1.45413,-9.371569 0.74336,-8.230368 1.86493,-10.904099 5.14972,-12.276573 1.29272,-0.540134 2.47758,-0.982062 2.63301,-0.982062 0.15542,0 1.00971,1.632484 1.8984,3.627742 1.33068,2.987585 1.61335,4.786124 1.60186,10.19223 -0.0274,12.903045 -4.65513,20.200642 -13.77209,21.717587 -1.52798,0.254235 -3.13384,0.682093 -3.56861,0.950795 -0.51092,0.315756 -1.0345,5.374917 -1.48038,14.304277 -0.37943,7.598653 -0.62885,13.877977 -0.55424,13.954057 0.0746,0.0761 0.89542,-0.24048 1.82401,-0.70343 2.42554,-1.20928 5.39624,-7.550744 6.48092,-13.834665 1.00436,-5.818554 2.51398,-8.534793 5.57765,-10.035812 2.27062,-1.112465 2.39229,-0.986577 4.58372,4.742127 1.76591,4.616347 1.52259,10.125346 -0.70673,16.001606 -2.39395,6.310164 -4.04346,8.138894 -11.27846,12.503794 l -6.73723,4.0646 v 11.58528 c 0,6.3719 0.19675,11.78204 0.43722,12.02251 1.2165,1.21649 5.55309,-7.06092 6.78568,-12.95211 1.30128,-6.21946 2.96542,-8.70976 6.37285,-9.53664 1.26117,-0.30605 1.72203,0.15121 2.86161,2.83929 2.91913,6.88575 2.58886,10.70212 -1.74235,20.13356 -2.20676,4.80533 -2.76906,5.45306 -7.72667,8.90039 -5.30932,3.69192 -5.35496,3.7499 -6.52877,8.29199 -0.65014,2.51575 -1.35931,5.24535 -1.57594,6.06581 -0.28656,1.08535 -0.047,1.56326 0.8795,1.75428 1.38806,0.2862 4.07021,-3.30607 10.99441,-14.72511 8.86136,-14.61369 12.61204,-23.79207 14.93405,-36.5453 1.32675,-7.28698 1.48198,-11.41612 1.87034,-49.751911 l 0.42351,-41.805413 1.93593,-3.942577 c 1.86171,-3.791462 2.00733,-3.915421 3.79922,-3.234147 2.77387,1.054627 4.10434,2.513226 5.40933,5.930315 1.09448,2.865853 1.11364,5.79664 0.28062,42.930038 -0.92991,41.452635 -0.7423,47.909125 1.74379,60.008685 1.94028,9.44314 5.07785,16.47136 12.98378,29.08398 l 7.46861,11.91492 h 3.14598 3.14598 l -0.4283,-2.59125 c -0.23557,-1.42518 -0.43173,-4.16146 -0.43592,-6.08063 l -0.008,-3.48938 -5.53412,-2.69821 c -6.55185,-3.19439 -8.26941,-4.8401 -10.77993,-10.32901 -1.48819,-3.25374 -1.89334,-5.20266 -1.93931,-9.32849 -0.10349,-9.29052 2.57241,-14.64326 6.79104,-13.58445 2.1909,0.54989 3.79128,5.2697 4.52816,13.35429 0.52342,5.74272 0.65317,6.09117 3.10446,8.33761 1.40701,1.28943 2.64703,2.23972 2.75561,2.11174 0.10858,-0.12797 0.40465,-5.67428 0.65796,-12.32515 l 0.46053,-12.09247 -5.54047,-2.5962 c -10.79471,-5.05827 -15.92488,-12.52373 -15.92488,-23.173985 0,-9.033148 1.47888,-11.824773 6.28679,-11.86727 2.22277,-0.01964 2.60414,0.252674 3.59818,2.569269 1.75443,4.088673 2.54498,7.807164 2.54914,11.990292 0.003,2.86737 0.40757,4.47013 1.56096,6.18162 1.40542,2.085524 5.78376,5.346334 6.32909,4.713674 0.12106,-0.14046 0.43252,-6.518684 0.69213,-14.173828 l 0.472,-13.918448 -4.82742,-1.893974 c -5.7176,-2.243224 -9.92009,-6.034069 -12.24057,-11.04157 -3.50655,-7.566994 -3.90561,-19.566332 -0.74852,-22.507595 1.08276,-1.008755 2.24144,-1.335476 4.21051,-1.187286 2.58312,0.194401 2.77621,0.374286 3.92812,3.659443 0.6663,1.900247 1.23555,5.408414 1.265,7.795929 0.0295,2.387514 0.4777,5.356051 0.9961,6.596749 0.91589,2.192027 4.73382,5.991781 6.02047,5.991781 0.35266,0 0.65926,-3.785572 0.68558,-8.464732 0.0262,-4.655604 0.27885,-13.750872 0.56148,-20.21171 0.58022,-13.263687 1.26712,-15.552903 5.0639,-16.876467 2.80589,-0.97814 3.44648,-0.255716 5.45883,6.156157 1.29221,4.117292 1.39345,5.932886 1.1867,21.281007 -0.23523,17.461729 -0.14607,18.068642 2.65988,18.105163 1.56988,0.02043 4.49038,-7.410522 5.35024,-13.613217 1.01581,-7.327679 1.82784,-8.979557 5.08266,-10.339509 2.31612,-0.96774 2.5647,-0.95098 3.4298,0.231248 3.09743,4.232878 3.58816,12.922684 1.1815,20.922262 -1.6224,5.392721 -7.81848,11.766707 -13.03755,13.411873 -3.67388,1.15809 -3.78894,1.271535 -4.16282,4.104698 -0.21148,1.60253 -0.46219,7.746334 -0.55713,13.652893 l -0.17262,10.739213 1.84557,-0.27188 c 1.20754,-0.17789 2.09995,-0.90448 2.5814,-2.10173 0.97434,-2.422934 2.61342,-9.344921 3.13845,-13.253824 0.55137,-4.105049 2.51012,-7.221942 5.10747,-8.127387 1.86093,-0.648725 2.21273,-0.546005 3.17862,0.928114 0.59734,0.911663 1.54394,3.415455 2.10357,5.56397 1.29005,4.952829 0.43543,11.861573 -2.19134,17.714797 -1.95556,4.35758 -3.6176,5.80176 -11.79051,10.24503 l -4.31873,2.34793 v 12.27847 12.27848 h 1.65139 c 1.28282,0 1.98142,-0.70207 3.12999,-3.14556 0.81322,-1.73007 1.76453,-4.60634 2.11402,-6.39174 0.34948,-1.78539 0.98309,-5.02803 1.40802,-7.20586 0.56332,-2.88707 1.26377,-4.34603 2.58583,-5.38596 2.87443,-2.26103 4.43219,-1.56092 6.18824,2.78116 1.97421,4.88152 2.05334,11.07489 0.21137,16.54272 -2.35939,7.00373 -3.57192,8.42944 -10.62759,12.49606 l -6.48965,3.74038 -0.41737,4.46949 c -0.22955,2.45821 -0.24165,4.6446 -0.0269,4.85862 0.21477,0.21403 1.86857,0.34398 3.67513,0.2888 5.08888,-0.15547 13.22241,-4.19675 15.90808,-7.90421 4.93363,-6.81068 4.96104,-7.19554 7.90512,-110.996898 0.31743,-11.191834 1.58247,-15.222922 5.3962,-17.195078 1.13656,-0.58773 2.13167,-0.967934 2.21137,-0.844898 4.67405,7.214822 4.65925,7.024172 3.88086,49.960469 -0.93513,51.582485 -2.27813,66.462505 -7.17226,79.465985 l -2.85552,7.58699 -4.88104,3.49522 c -6.05161,4.33343 -9.56709,5.49375 -23.10432,7.6258 -10.18957,1.60482 -12.07157,1.68075 -38.69592,1.56137 -15.392,-0.0691 -34.98181,-0.33352 -43.53291,-0.58778 z M 162.02952,165.188 h 11.68042 l -9.13244,-13.47448 c -5.02284,-7.41095 -9.32918,-13.47446 -9.56963,-13.47446 -0.24046,0 -1.30932,1.78796 -2.37524,3.97324 -3.10881,6.3734 -6.62931,11.86291 -11.24298,17.5311 -2.36828,2.90959 -4.08981,5.51636 -3.82564,5.79284 0.26417,0.27648 3.24889,0.31123 6.6327,0.0772 3.38381,-0.23401 11.40859,-0.42546 17.83281,-0.42546 z"
     style="fill:#000000;stroke-width:0.69099861" />
</svg>
