<?xml version="1.0" encoding="UTF-8" standalone="no"?>
<!-- Created with Inkscape (http://www.inkscape.org/) -->

<svg
   xmlns:dc="http://purl.org/dc/elements/1.1/"
   xmlns:cc="http://creativecommons.org/ns#"
   xmlns:rdf="http://www.w3.org/1999/02/22-rdf-syntax-ns#"
   xmlns:svg="http://www.w3.org/2000/svg"
   xmlns="http://www.w3.org/2000/svg"
   xmlns:sodipodi="http://sodipodi.sourceforge.net/DTD/sodipodi-0.dtd"
   xmlns:inkscape="http://www.inkscape.org/namespaces/inkscape"
   width="300"
   height="300"
   id="svg2"
   version="1.1"
   inkscape:version="0.48.3.1 r9886"
   sodipodi:docname="Nouveau document 1">
  <defs
     id="defs4" />
  <sodipodi:namedview
     id="base"
     pagecolor="#ffffff"
     bordercolor="#666666"
     borderopacity="1.0"
     inkscape:pageopacity="0.0"
     inkscape:pageshadow="2"
     inkscape:zoom="1.979899"
     inkscape:cx="109.54312"
     inkscape:cy="142.18084"
     inkscape:document-units="px"
     inkscape:current-layer="layer1"
     showgrid="false"
     inkscape:window-width="1215"
     inkscape:window-height="1000"
     inkscape:window-x="65"
     inkscape:window-y="24"
     inkscape:window-maximized="1" />
  <metadata
     id="metadata7">
    <rdf:RDF>
      <cc:Work
         rdf:about="">
        <dc:format>image/svg+xml</dc:format>
        <dc:type
           rdf:resource="http://purl.org/dc/dcmitype/StillImage" />
        <dc:title></dc:title>
      </cc:Work>
    </rdf:RDF>
  </metadata>
  <g
     inkscape:label="Calque 1"
     inkscape:groupmode="layer"
     id="layer1"
     transform="translate(0,-752.36218)">
    <path
       style="fill:#000000"
       d="m 61.031029,1035.9835 c 10.999216,-13.79 25.396336,-24.6333 38.407515,-36.515 15.835936,-13.87109 32.376956,-26.92768 49.272246,-39.44861 6.13878,-6.61348 0.92285,-15.78334 0.25061,-23.56521 -2.19847,-2.10694 -8.48727,4.24322 -12.08093,5.36269 -10.56347,7.41979 -21.27165,14.57186 -32.66938,20.69211 -8.459044,6.44753 -17.769452,11.55463 -26.406779,17.28216 -2.995713,7.90379 -24.483055,8.57354 -12.437177,-0.95654 15.375564,-13.36022 33.643722,-22.67205 50.315916,-34.19358 8.79278,-6.50254 21.25592,-11.09595 27.4638,-18.78059 0.26969,-19.3845 -21.21592,-3.76007 -30.23997,-0.34117 -16.33976,7.71097 -32.971952,16.06768 -50.961703,18.94834 -11.947963,-6.60779 9.847366,-7.63928 13.432486,-12.89479 10.752061,-4.3982 20.249488,-7.76548 29.914417,-12.34628 8.91792,-5.26213 19.98436,-10.7919 29.07845,-17.4011 7.77957,-2.13655 13.76805,-7.65947 19.92485,-12.59829 -18.83977,0.24426 -37.73402,2.05799 -56.537523,0.68729 -11.943932,-5.68777 3.091183,-10.07004 9.631203,-7.74949 32.82885,0.0605 65.88072,-5.79846 98.53919,-0.61604 12.94876,1.94826 2.82773,10.49716 -5.12664,8.09226 -13.21856,0.0462 -27.79725,-0.84169 -38.5356,8.42159 -4.06946,2.77229 -8.13891,5.54459 -12.20837,8.31688 5.58889,11.09216 12.14197,22.26584 12.50902,35.02467 9.12697,12.96735 22.29635,-6.872 32.79037,-9.15107 11.79361,-6.08203 21.50094,6.37726 22.72507,17.12127 4.04766,20.38681 6.36161,41.54934 3.76857,62.2635 1.25242,9.1702 -16.72664,27.5861 -14.88269,8.6421 0.7461,-17.6444 4.79489,-35.25862 1.64199,-52.93282 -1.97287,-8.06904 -1.16874,-28.1829 -14.37192,-22.52247 -11.23691,3.77565 -24.52892,10.40452 -25.23246,23.94285 -4.07864,20.75108 -2.39142,42.53564 -8.82968,62.79924 -3.16442,8.7491 -13.25759,5.5274 -8.96355,-3.8481 1.97617,-16.3474 3.90052,-33.05536 1.32822,-49.43569 -9.32735,-5.25178 -21.14809,10.63192 -29.90927,15.246 -18.98967,14.40609 -35.373744,32.23279 -55.646306,44.89079 -2.541035,1.594 -6.554474,1.7824 -5.953975,-2.4369 z M 231.37782,890.41641 c -0.34442,-11.93029 1.26646,-23.95146 -2.34472,-35.57485 -3.54739,-11.90646 -4.03135,-26.3688 -14.01473,-35.04722 -10.77736,-3.80151 -22.9377,-2.40497 -34.28799,-3.67031 -19.0082,-0.87956 -38.02682,-1.51195 -57.04022,-2.2678 -0.16676,7.98213 5.27495,14.55921 13.79886,14.60264 20.68678,4.16929 42.63169,-0.89153 62.69146,6.69105 7.0451,8.59247 -16.6788,3.28744 -22.16885,3.79455 -16.22947,-0.85723 -33.12279,-4.59542 -49.00064,0.18717 -9.78074,10.87621 13.68548,14.5367 21.25085,14.40325 14.87084,1.96129 29.91959,1.52469 44.80967,2.39618 9.81346,0.28082 8.34333,10.28177 -1.2015,8.15794 -23.18667,0.54938 -46.79033,0.66835 -69.50928,-4.52001 -15.41937,0.22298 -9.10594,-22.64585 -24.716451,-19.27738 -13.10614,-1.97116 -25.259192,6.08659 -24.197903,20.20374 -2.239848,13.03749 -0.590234,26.88318 -5.019703,39.43642 -14.597778,7.75355 -9.849304,-15.50042 -9.978346,-23.74191 1.094848,-14.07897 1.545439,-30.34448 12.075816,-41.01112 10.325224,-8.21941 25.528884,-1.39551 36.062657,-9.78915 10.58966,-14.35969 -14.341153,-9.5655 -22.103839,-11.57537 -12.068088,-1.2045 -19.408771,-13.07635 -19.03002,-24.51245 -2.211271,-7.2089 2.746991,-33.35394 11.040932,-17.29419 5.280228,9.42413 0.743213,24.76875 9.650905,31.03487 7.741058,1.44137 15.644282,0.79426 23.470312,0.94208 0.67496,-11.6633 -2.18375,-24.40461 3.8287,-34.97028 8.77206,-8.11649 21.99739,-6.57307 33.11015,-7.66075 27.35567,-0.6877 54.83524,-1.38702 82.12201,0.97416 10.36345,6.65986 -14.06863,8.98895 -19.5268,9.1634 -11.48261,1.82041 -25.39405,-2.68319 -35.17616,4.38696 -2.35393,14.28643 19.24,10.89124 28.49103,12.01605 7.63642,1.65354 27.95976,-4.19253 26.19389,6.8624 -9.91847,5.12961 -21.9032,1.4131 -32.63781,1.4194 -11.44471,-1.62181 -25.19268,-0.6713 -33.82701,-9.55249 -0.94184,-9.77553 -5.75964,-18.89596 -17.45192,-15.68814 -13.62129,-1.86479 -24.34618,10.32304 -22.48007,23.61457 -1.26866,14.22742 17.43133,11.25249 26.59072,12.45124 23.60259,1.23147 47.59032,-0.007 70.83559,4.76036 11.74408,5.9549 17.03996,19.62598 16.88942,32.20089 3.31434,12.96462 6.7212,25.98722 7.23993,39.47445 2.95526,9.12401 -0.60925,29.74676 -13.06443,19.64289 -1.37674,-4.05614 -1.15556,-8.44462 -1.37451,-12.66324 z"
       id="path2996"
       inkscape:connector-curvature="0" />
  </g>
</svg>
