<?xml version="1.0" encoding="UTF-8" standalone="no"?>
<!-- Created with Inkscape (http://www.inkscape.org/) -->

<svg
   xmlns:dc="http://purl.org/dc/elements/1.1/"
   xmlns:cc="http://creativecommons.org/ns#"
   xmlns:rdf="http://www.w3.org/1999/02/22-rdf-syntax-ns#"
   xmlns:svg="http://www.w3.org/2000/svg"
   xmlns="http://www.w3.org/2000/svg"
   xmlns:sodipodi="http://sodipodi.sourceforge.net/DTD/sodipodi-0.dtd"
   xmlns:inkscape="http://www.inkscape.org/namespaces/inkscape"
   width="300"
   height="300"
   id="svg2"
   version="1.1"
   inkscape:version="0.48.3.1 r9886"
   sodipodi:docname="冖-oracle.svg">
  <defs
     id="defs4" />
  <sodipodi:namedview
     id="base"
     pagecolor="#ffffff"
     bordercolor="#666666"
     borderopacity="1.0"
     inkscape:pageopacity="0.0"
     inkscape:pageshadow="2"
     inkscape:zoom="1.979899"
     inkscape:cx="241.616"
     inkscape:cy="121.59311"
     inkscape:document-units="px"
     inkscape:current-layer="layer1"
     showgrid="false"
     inkscape:window-width="1215"
     inkscape:window-height="1000"
     inkscape:window-x="65"
     inkscape:window-y="24"
     inkscape:window-maximized="1" />
  <metadata
     id="metadata7">
    <rdf:RDF>
      <cc:Work
         rdf:about="">
        <dc:format>image/svg+xml</dc:format>
        <dc:type
           rdf:resource="http://purl.org/dc/dcmitype/StillImage" />
        <dc:title></dc:title>
      </cc:Work>
    </rdf:RDF>
  </metadata>
  <g
     inkscape:label="Calque 1"
     inkscape:groupmode="layer"
     id="layer1"
     transform="translate(0,-752.36218)">
    <path
       style="fill:#000000"
       d="m 193.16388,1028.4892 c -2.81199,-3.1055 -2.96674,-6.6324 -0.66473,-15.1486 3.42006,-12.6524 5.54984,-81.7468 2.60301,-84.44777 -1.06767,-0.97859 -2.83891,0.44403 -3.93608,3.16143 -1.09719,2.71737 -2.72898,5.52789 -3.62624,6.24557 -1.86086,1.48846 -4.9201,6.43198 -16.00748,25.86702 -8.29311,14.53694 -13.83177,18.48228 -19.12956,13.62652 -5.42868,-4.97573 -7.23007,-3.36009 -6.93384,6.21881 0.34696,11.21863 -7.8433,20.66522 -12.40956,14.31305 -1.54773,-2.15309 -2.14556,-10.37396 -1.32851,-18.26861 1.3978,-13.50612 2.71818,-75.2557 1.88339,-88.08073 -0.21014,-3.22962 -1.50808,-5.87204 -2.88413,-5.87204 -5.59286,0 -8.65397,16.36386 -10.00812,53.50088 -0.78508,21.53086 -2.72758,45.01904 -4.3167,52.19601 -1.58908,7.17694 -3.71121,16.78686 -4.71581,21.35536 -1.85134,8.419 -8.74084,13.2622 -13.135616,9.234 -1.322661,-1.2122 -1.052566,-9.7652 0.600226,-19.0066 8.1659,-45.65807 11.57937,-80.27557 8.10945,-82.24116 -2.06104,-1.16752 -20.199907,20.95706 -32.012548,39.04672 -2.917553,4.46791 -6.122896,8.71068 -7.122948,9.42837 -1.000081,0.7177 -3.717507,4.67673 -6.038682,8.79789 -4.885489,8.67389 -10.473624,11.39222 -14.96212,7.27825 -3.292663,-3.01795 -2.12857,-6.08914 8.566523,-22.60064 9.37276,-14.47004 16.143523,-23.46236 20.633002,-27.40289 2.453003,-2.15308 10.494268,-12.39128 17.869474,-22.75156 11.844379,-16.63835 13.409439,-20.504 13.409439,-33.1209 0,-7.85625 -1.07419,-14.89259 -2.38712,-15.63631 -1.31295,-0.74373 -12.296085,11.0017 -24.407015,26.10095 -17.690573,22.05562 -23.239316,27.29401 -28.222126,26.64374 -9.408035,-1.2278 -6.457443,-8.44712 11.993392,-29.34487 8.954925,-10.1425 19.353781,-22.55138 23.10853,-27.57524 3.754734,-5.02385 8.169844,-9.97342 9.811353,-10.99903 3.200486,-1.99963 3.801246,-26.96445 0.71695,-29.79141 -1.019114,-0.93409 -6.733891,2.2832 -12.699515,7.14949 -15.083262,12.30383 -25.83295,19.28705 -29.689664,19.28705 -8.178593,0 -3.718804,-7.10638 16.496848,-26.28675 23.082229,-21.90017 31.355207,-31.6799 28.788817,-34.03216 -0.86142,-0.78954 -9.329339,-1.40151 -18.81757,-1.35991 -16.619828,0.0728 -23.623885,-2.82337 -18.402197,-7.60938 3.139365,-2.87742 72.406937,-6.20598 80.450927,-3.86596 12.62695,3.67326 5.17154,11.82387 -10.81542,11.82387 -4.8876,0 -10.75456,2.84907 -15.79301,7.66926 -6.53597,6.25292 -7.62968,9.02431 -5.922,15.00635 1.15197,4.03541 2.7115,14.08996 3.46562,22.34344 0.75414,8.25348 2.5967,15.00635 4.09461,15.00635 1.52939,0 1.96477,3.71888 0.99306,8.48185 -0.95174,4.66501 -0.60897,11.25364 0.7617,14.64136 l 2.49212,6.15949 4.86966,-6.81194 c 2.67834,-3.74657 6.71704,-6.81197 8.97493,-6.81197 8.76426,0 10.83174,11.00902 11.12949,59.26299 0.16201,26.25571 1.19556,47.73787 2.29684,47.73819 1.10125,3.3e-4 4.62236,-4.99064 7.82468,-11.09104 8.79983,-16.76363 17.63333,-30.76054 28.04257,-44.43425 8.35167,-10.97084 9.30094,-13.98208 8.54212,-27.09668 l -0.85372,-14.75421 -16.67398,19.9806 c -16.60551,19.89856 -19.84681,22.32772 -23.18562,17.37615 -1.77582,-2.63357 5.54827,-16.54578 12.09772,-22.9797 1.95756,-1.92306 3.55921,-4.3749 3.55921,-5.44852 0,-1.07362 5.21947,-8.32979 11.59881,-16.12482 10.39757,-12.70501 11.41602,-15.25393 9.83385,-24.612 -2.87093,-16.98066 -6.9909,-18.55417 -20.60832,-7.87067 -21.2628,16.68164 -28.39837,10.05935 -9.24408,-8.57914 18.00112,-17.51632 31.72546,-35.00888 29.2153,-37.2368 -1.25819,-1.11673 -8.05356,-1.03316 -15.10082,0.18581 -14.70058,2.54257 -17.49402,1.09638 -14.00205,-7.24895 2.448,-5.85044 3.12675,-5.93266 43.08936,-5.2196 36.03753,0.64299 40.70967,1.23789 41.55836,5.29159 0.80339,3.83722 -1.22881,4.56715 -12.71528,4.56715 -12.38644,0 -14.681,1.01224 -24.41146,10.76903 -11.82759,11.85962 -11.90141,12.12249 -7.60212,27.07306 2.73816,9.5218 6.39529,27.18733 9.6637,46.67997 1.72531,10.28958 2.91264,10.80397 10.32611,4.47353 8.18592,-6.99002 11.44763,-6.89463 19.08662,0.55825 5.94215,5.79739 6.19107,8.19801 6.19107,59.70584 0,44.5189 -0.72796,54.21932 -4.27106,56.91448 -3.18874,2.42562 -5.25095,2.50354 -8.13793,0.30747 -2.96206,-2.2532 -3.98205,-14.01923 -4.35922,-50.28572 -0.27078,-26.03937 -1.2574,-48.47883 -2.19244,-49.86553 -1.83494,-2.72127 -13.14515,12.1036 -14.33333,18.78743 -0.39766,2.23699 -0.82902,20.50901 -0.95851,40.60445 -0.2918,45.27682 -4.2337,74.03239 -11.02065,80.39369 -4.51129,4.2283 -5.39901,4.2959 -8.68994,0.6614 z"
       id="path3071"
       inkscape:connector-curvature="0" />
  </g>
</svg>
