<?xml version="1.0" encoding="UTF-8" standalone="no"?>
<!-- Created with Inkscape (http://www.inkscape.org/) -->

<svg
   xmlns:dc="http://purl.org/dc/elements/1.1/"
   xmlns:cc="http://creativecommons.org/ns#"
   xmlns:rdf="http://www.w3.org/1999/02/22-rdf-syntax-ns#"
   xmlns:svg="http://www.w3.org/2000/svg"
   xmlns="http://www.w3.org/2000/svg"
   xmlns:sodipodi="http://sodipodi.sourceforge.net/DTD/sodipodi-0.dtd"
   xmlns:inkscape="http://www.inkscape.org/namespaces/inkscape"
   width="300"
   height="300"
   id="svg2"
   version="1.1"
   inkscape:version="0.92.4 (5da689c313, 2019-01-14)"
   sodipodi:docname="image-bigseal.svg">
  <defs
     id="defs4" />
  <sodipodi:namedview
     id="base"
     pagecolor="#ffffff"
     bordercolor="#666666"
     borderopacity="1.0"
     inkscape:pageopacity="0.0"
     inkscape:pageshadow="2"
     inkscape:zoom="1.4142136"
     inkscape:cx="208.9223"
     inkscape:cy="147.6903"
     inkscape:document-units="px"
     inkscape:current-layer="layer1"
     showgrid="false"
     inkscape:window-width="1872"
     inkscape:window-height="1016"
     inkscape:window-x="48"
     inkscape:window-y="27"
     inkscape:window-maximized="1" />
  <metadata
     id="metadata7">
    <rdf:RDF>
      <cc:Work
         rdf:about="">
        <dc:format>image/svg+xml</dc:format>
        <dc:type
           rdf:resource="http://purl.org/dc/dcmitype/StillImage" />
        <dc:title />
      </cc:Work>
    </rdf:RDF>
  </metadata>
  <g
     inkscape:label="Calque 1"
     inkscape:groupmode="layer"
     id="layer1"
     transform="translate(0,-752.36218)">
    <path
       style="fill:#000000;stroke-width:5.92568922"
       d="m 148.26636,1006.9766 c 2.73522,-19.4621 4.13238,-77.37235 3.10473,-128.68943 -1.31653,-65.74256 0.21791,-95.79384 5.19443,-101.73361 5.05946,-6.03855 19.1008,-8.17915 49.49975,-7.54616 23.34029,0.48597 35.0689,1.98926 26.06361,3.34052 -20.54856,3.08345 -21.37074,17.77614 -1.41531,25.29139 22.1373,8.33702 30.883,31.13408 18.89599,49.25552 -7.93764,11.99985 -8.92009,26.05229 -5.93403,84.87956 2.7731,54.63195 1.83101,71.56871 -4.18584,75.25211 -6.21016,3.8018 -6.99548,-2.5332 -3.92338,-31.64785 2.11257,-20.02058 1.07485,-49.17714 -2.30595,-64.79227 -4.91775,-22.71379 -4.22139,-34.00928 3.48238,-56.48545 8.98999,-26.22893 8.94694,-28.84115 -0.64778,-39.34289 -13.30825,-14.56637 -33.53339,-14.3376 -47.11956,0.53314 -10.33248,11.3093 -10.34094,12.71116 -0.21136,34.96216 8.87144,19.48732 9.60538,28.65077 4.60666,57.51516 -3.27031,18.88406 -4.79266,50.25817 -3.38302,69.72025 2.10799,29.10245 1.30313,33.38315 -4.53271,24.10795 -5.02873,-7.99242 -5.95338,-29.90989 -3.17403,-75.23808 3.21683,-52.46369 2.26856,-66.4597 -5.27565,-77.86472 -11.20912,-16.94545 -3.81401,-42.03886 14.0435,-47.65302 13.47775,-4.23719 20.98986,-18.85616 12.39366,-24.11865 -8.85508,-5.42095 -41.23233,3.17792 -41.55949,11.03754 -0.15838,3.79681 -0.82783,59.18713 -1.48848,123.08952 -0.90851,87.88649 -3.13753,118.05271 -9.15122,123.84961 -6.62064,6.3819 -7.11844,1.7459 -2.97696,-27.7221 z m 62.87736,-68.88665 c -1.32516,-102.96272 -1.51027,-104.30431 -14.73831,-106.82807 -7.36797,-1.40569 -1.33963,-2.60939 13.3963,-2.67485 14.73593,-0.0655 22.16498,1.08303 16.50894,2.55224 -9.16598,2.38086 -10.47602,14.00397 -12.05429,106.94703 l -1.77063,104.2759 z M 79.00498,1017.7864 c -0.10419,-3.7858 5.0226,-18.92702 11.3927,-33.64734 6.37009,-14.72035 13.26459,-43.47003 15.32107,-63.88817 l 3.73901,-37.12392 -12.72792,14.744 C 89.72953,905.98017 80.11985,921.24021 75.375,931.78217 67.56687,949.13008 55,958.02661 55,946.20641 c 0,-7.49768 32.64708,-56.33347 43.637466,-65.27594 9.571214,-7.78778 14.303264,-42.0355 5.808104,-42.0355 -2.27683,0 -11.62626,7.10478 -20.77659,15.78847 -25.32931,24.03744 -28.0284,10.74035 -2.97797,-14.67099 30.24444,-30.68014 29.63631,-48.26602 -0.9356,-27.05513 -23.02288,15.97336 -21.04821,4.56215 3.04966,-17.62332 l 22.80318,-20.99345 -19.70161,-0.15983 c -11.58507,-0.0938 -18.18564,-2.58922 -16.02186,-6.05719 4.79296,-7.6818 66.65399,-7.6818 71.44694,0 2.07101,3.31929 -2.70278,5.8976 -10.91942,5.8976 -8.02956,0 -16.10723,3.89277 -17.95044,8.6506 -5.77589,14.90937 8.44271,79.81341 17.48479,79.81341 4.49966,0 9.92023,6.86315 12.04565,15.25143 5.34447,21.09265 -0.56621,85.99603 -9.30423,102.16896 -10.16261,18.80945 -14.87978,10.74785 -6.92952,-11.84262 7.79332,-22.14448 8.96707,-93.78257 1.53659,-93.78257 -2.80817,0 -6.74323,15.26004 -8.74458,33.9112 -4.40535,41.05479 -18.29469,88.87594 -30.43407,104.78496 -4.90715,6.4309 -9.00738,8.5953 -9.11151,4.8096 z"
       id="path213"
       inkscape:connector-curvature="0" />
  </g>
</svg>
