<?xml version="1.0" encoding="UTF-8" standalone="no"?>
<!-- Created with Inkscape (http://www.inkscape.org/) -->

<svg
   xmlns:dc="http://purl.org/dc/elements/1.1/"
   xmlns:cc="http://creativecommons.org/ns#"
   xmlns:rdf="http://www.w3.org/1999/02/22-rdf-syntax-ns#"
   xmlns:svg="http://www.w3.org/2000/svg"
   xmlns="http://www.w3.org/2000/svg"
   xmlns:sodipodi="http://sodipodi.sourceforge.net/DTD/sodipodi-0.dtd"
   xmlns:inkscape="http://www.inkscape.org/namespaces/inkscape"
   width="300"
   height="300"
   id="svg2"
   version="1.1"
   inkscape:version="0.48.4 r9939"
   sodipodi:docname="image-seal.svg">
  <defs
     id="defs4" />
  <sodipodi:namedview
     id="base"
     pagecolor="#ffffff"
     bordercolor="#666666"
     borderopacity="1.0"
     inkscape:pageopacity="0.0"
     inkscape:pageshadow="2"
     inkscape:zoom="1.979899"
     inkscape:cx="162.37035"
     inkscape:cy="138.01817"
     inkscape:document-units="px"
     inkscape:current-layer="layer1"
     showgrid="false"
     inkscape:window-width="1215"
     inkscape:window-height="1000"
     inkscape:window-x="65"
     inkscape:window-y="24"
     inkscape:window-maximized="1"
     fit-margin-top="10"
     fit-margin-left="10"
     fit-margin-right="10"
     fit-margin-bottom="10" />
  <metadata
     id="metadata7">
    <rdf:RDF>
      <cc:Work
         rdf:about="">
        <dc:format>image/svg+xml</dc:format>
        <dc:type
           rdf:resource="http://purl.org/dc/dcmitype/StillImage" />
        <dc:title />
      </cc:Work>
    </rdf:RDF>
  </metadata>
  <g
     inkscape:label="Calque 1"
     inkscape:groupmode="layer"
     id="layer1"
     transform="translate(0,-752.36218)">
    <path
       style="fill:#000000"
       d="m 195.0442,1027.7817 c -14.90926,-28.83138 -11.82703,-60.22992 10.03623,-102.23883 25.31679,-48.64462 22.18933,-66.30925 -13.43834,-75.90281 -20.62539,-5.55386 -25.33742,-9.65985 -25.33742,-22.07893 0,-18.28181 8.41075,-24.41089 32.55642,-23.72436 25.75797,0.73238 28.54129,-9.47906 4.01335,-14.72411 -24.6092,-5.26245 -36.56977,-13.87146 -36.56977,-26.32241 0,-7.67722 2.21712,-7.55504 14.11363,0.7776 7.7625,5.43702 21.95018,9.88555 31.52818,9.88555 21.37693,0 33.82469,18.74228 22.3781,33.69411 -4.23051,5.52605 -17.6936,10.92167 -29.91797,11.9903 -24.54177,2.14546 -27.89892,13.4002 -5.01429,16.81026 21.81027,3.2499 36.7659,19.77249 36.7659,40.61787 0,10.22446 -8.88368,38.83064 -19.74151,63.56921 -20.26613,46.17453 -20.37363,53.03434 -1.5428,98.44425 6.87611,16.5815 -10.58934,7.0712 -19.82971,-10.7977 z m -123.99437,9.8482 c 0,-1.3953 10.001759,-17.3995 22.226131,-35.5649 12.224369,-18.16533 22.226129,-40.23474 22.226129,-49.04308 0,-17.36997 -2.52675,-16.44822 -36.489317,13.31085 -7.84475,6.87378 -16.209358,10.55163 -18.588017,8.17299 -6.293797,-6.2938 29.984104,-42.12963 46.963454,-46.3912 10.88031,-2.73077 14.4642,-8.18011 14.4642,-21.99282 0,-22.62931 -6.19626,-23.01567 -31.234326,-1.94752 -10.729474,9.02826 -22.506084,15.41573 -26.170233,14.19431 -8.872476,-2.95747 30.933991,-43.30997 42.723939,-43.30997 10.82909,0 9.08704,-26.28849 -1.98332,-29.92932 -3.92615,-1.29128 -16.191833,5.27019 -27.257074,14.58097 -25.802299,21.71125 -33.682766,14.60733 -10.564257,-9.52319 22.176623,-23.14738 18.485123,-47.34534 -6.274716,-41.13098 -23.559117,5.91291 -18.602709,-6.77961 11.20844,-28.70295 27.917267,-20.5306 59.927627,-25.73507 73.682777,-11.97995 12.04786,12.0479 9.19978,42.08823 -4.82044,50.84399 -11.36591,7.09813 -12.11286,12.76243 -8.64495,65.55641 4.29887,65.44414 -1.37265,89.85637 -30.08366,129.49076 -15.712277,21.6902 -31.38476,33.3582 -31.38476,23.3656 z m 41.19599,-219.59298 c 5.54884,-8.97821 -8.2396,-31.88288 -19.193289,-31.88288 -11.215242,0 -11.329973,1.30195 -1.93241,21.92735 7.757821,17.02655 14.726059,20.31037 21.125699,9.95553 z m 22.0313,-35.39054 c -12.72817,-15.33648 -18.09964,-10.32645 -10.50386,9.79709 5.75516,15.24712 8.24857,17.05906 12.65065,9.19298 3.39005,-6.0577 2.57065,-13.3059 -2.14679,-18.99007 z m 12.97658,105.11283 c 0,-3.49268 14.45688,-6.35032 32.12639,-6.35032 19.80052,0 30.6206,2.43643 28.20168,6.35032 -2.1586,3.49268 -16.61547,6.35032 -32.12639,6.35032 -15.51093,0 -28.20168,-2.85764 -28.20168,-6.35032 z"
       id="path3345"
       inkscape:connector-curvature="0" />
  </g>
</svg>
