<?xml version="1.0" encoding="UTF-8" standalone="no"?>
<!-- Created with Inkscape (http://www.inkscape.org/) -->

<svg
   xmlns:dc="http://purl.org/dc/elements/1.1/"
   xmlns:cc="http://creativecommons.org/ns#"
   xmlns:rdf="http://www.w3.org/1999/02/22-rdf-syntax-ns#"
   xmlns:svg="http://www.w3.org/2000/svg"
   xmlns="http://www.w3.org/2000/svg"
   xmlns:sodipodi="http://sodipodi.sourceforge.net/DTD/sodipodi-0.dtd"
   xmlns:inkscape="http://www.inkscape.org/namespaces/inkscape"
   width="300"
   height="300"
   id="svg2"
   version="1.1"
   inkscape:version="0.48.4 r9939"
   sodipodi:docname="dessin.svg">
  <defs
     id="defs4" />
  <sodipodi:namedview
     id="base"
     pagecolor="#ffffff"
     bordercolor="#666666"
     borderopacity="1.0"
     inkscape:pageopacity="0.0"
     inkscape:pageshadow="2"
     inkscape:zoom="1.979899"
     inkscape:cx="156.32962"
     inkscape:cy="101.52144"
     inkscape:document-units="px"
     inkscape:current-layer="layer1"
     showgrid="false"
     inkscape:window-width="1215"
     inkscape:window-height="1000"
     inkscape:window-x="65"
     inkscape:window-y="24"
     inkscape:window-maximized="1" />
  <metadata
     id="metadata7">
    <rdf:RDF>
      <cc:Work
         rdf:about="">
        <dc:format>image/svg+xml</dc:format>
        <dc:type
           rdf:resource="http://purl.org/dc/dcmitype/StillImage" />
        <dc:title />
      </cc:Work>
    </rdf:RDF>
  </metadata>
  <g
     inkscape:label="Calque 1"
     inkscape:groupmode="layer"
     id="layer1"
     transform="translate(0,-752.36218)">
    <path
       style="fill:#000000"
       d="m 85.022096,1030.3877 c -2.171731,-4.0121 -1.294044,-8.2215 3.959024,-18.9875 3.712145,-7.608 6.12871,-15.43176 5.370148,-17.3862 -0.758567,-1.95443 -0.231095,-4.2551 1.172178,-5.11254 1.403262,-0.85748 2.551387,-4.53449 2.551387,-8.17116 0,-3.63668 1.046751,-8.61132 2.326117,-11.05476 1.27937,-2.44347 2.89591,-10.59139 3.5923,-18.10645 l 1.2662,-13.6638 -13.506406,11.02605 c -7.42852,6.06429 -15.874503,13.10326 -18.76885,15.64208 -6.84632,6.00541 -17.595847,6.11983 -17.595847,0.18729 0,-4.37755 11.851951,-16.44163 28.679982,-29.19332 4.768882,-3.61369 8.670694,-8.11104 8.670694,-9.99411 0,-1.88303 1.072505,-3.81939 2.383345,-4.30299 1.310844,-0.48357 6.054732,-7.99952 10.541962,-16.70207 11.07255,-21.47412 6.95677,-25.09606 -9.690724,-8.52802 -11.001214,10.94874 -30.518918,25.66972 -34.033974,25.66972 -0.668511,0 -1.215474,-2.78351 -1.215474,-6.18556 0,-5.8057 7.228038,-14.91648 11.833991,-14.91648 4.880471,0 30.852491,-30.67496 30.852491,-36.4392 0,-3.36141 1.11679,-8.17483 2.48175,-10.69645 1.36497,-2.52164 1.50084,-6.154 0.30194,-8.07198 -1.69471,-2.71108 -4.77042,-1.73471 -13.820356,4.38728 -6.402289,4.33092 -15.691588,9.92861 -20.642887,12.43931 -8.367346,4.24288 -9.3083,4.25767 -13.339526,0.20968 -4.007216,-4.02382 -3.931243,-4.6599 0.998644,-8.36098 2.934697,-2.20319 11.196124,-6.9776 18.358727,-10.60976 7.162604,-3.63219 15.492748,-8.87894 18.511426,-11.65948 3.018675,-2.78057 6.876892,-5.05555 8.573812,-5.05555 1.69692,0 5.25827,-2.37398 7.91415,-5.27551 2.65585,-2.90152 5.92908,-5.2755 7.27381,-5.2755 3.86109,0 8.47306,-5.87375 11.76844,-14.98814 2.60605,-7.20788 2.30868,-9.16438 -2.10486,-13.8482 -5.28278,-5.60632 -9.48007,-6.59991 -16.54982,-3.91766 -3.51289,1.33281 -3.36478,2.74419 1.11576,10.63126 6.56998,11.5651 6.71801,19.48499 0.3642,19.48499 -5.95808,0 -11.20521,-4.95175 -11.20521,-10.57442 0,-7.10526 -6.353997,-13.62571 -11.408976,-11.70785 -5.583912,2.11854 -5.798188,8.62229 -0.511747,15.5326 4.51245,5.89857 5.247233,21.45201 1.132237,23.96647 -5.065358,3.09519 -10.554753,-4.50839 -10.554753,-14.61984 0,-10.9879 -5.003321,-14.9212 -13.357404,-10.50076 -7.159242,3.78819 -13.32165,3.23236 -13.32165,-1.20163 0,-4.64804 17.876019,-17.13809 36.032967,-25.17635 32.179466,-14.24623 31.441276,-14.02151 35.811336,-10.90169 2.30505,1.6456 6.89867,4.14919 10.20805,5.56352 3.30937,1.41435 7.99277,6.66786 10.40755,11.67447 3.6481,7.56368 3.84055,10.41562 1.13816,16.86604 -3.33931,7.97071 -23.2857,29.54372 -27.3161,29.54372 -3.0532,0 -2.8631,8.8858 0.25676,12.00177 4.23836,4.23307 5.28378,29.4787 2.4944,60.23656 -1.46218,16.12336 -3.14495,34.65663 -3.73946,41.18508 -3.53706,38.84093 -9.13934,62.56582 -17.52266,74.20602 -2.79648,3.8829 -5.084517,8.3604 -5.084517,9.9499 0,1.5895 -0.502089,2.89 -1.115753,2.89 -0.61366,0 -2.922703,0.6855 -5.131201,1.5234 -2.388333,0.9061 -5.146135,-0.5653 -6.805783,-3.6314 z m 62.408994,-29.0201 c -19.97674,-0.849 -23.78651,-2.39573 -20.16631,-8.18715 1.50157,-2.40212 8.57456,-3.93458 20.56518,-4.45577 79.37157,-3.44998 81.62,-3.44505 85.29334,0.18676 2.01701,1.99421 2.96708,5.42991 2.11127,7.63491 -1.25485,3.23313 -8.0952,4.16445 -35.34209,4.81205 -18.58233,0.4416 -42.18995,0.4458 -52.46139,0.01 z m 3.63044,-37.23671 c -6.27064,-5.03634 -6.29584,-5.28708 -5.72727,-56.96512 0.76364,-69.4082 2.05055,-71.66053 41.27474,-72.23879 34.87209,-0.51411 39.52529,5.60387 39.52529,51.96755 0,31.96807 -2.95361,46.7852 -10.47248,52.53636 -2.31055,1.76729 -12.1187,3.25102 -21.79586,3.29719 -25.30301,0.12053 -26.42558,-1.6293 -26.42558,-41.19278 0,-30.47579 0.24385,-31.8388 6.69007,-37.38029 7.70704,-6.62547 9.28495,-6.85453 18.52952,-2.69005 6.60423,2.97511 6.79527,3.78298 6.79527,28.73311 0,19.59068 -0.88619,26.00815 -3.74102,27.09127 -6.07972,2.30664 -6.93059,-0.60496 -6.93059,-23.71547 0,-12.08969 -1.11482,-21.98127 -2.47735,-21.98127 -4.53708,0 -11.19025,8.53886 -9.68166,12.42575 0.81806,2.10772 1.48738,12.55761 1.48738,23.22191 0,21.78262 2.5466,24.4771 20.06322,21.2281 7.07143,-1.31163 9.49696,-3.42038 11.66554,-10.14214 3.38401,-10.48893 4.3027,-45.28127 1.47707,-55.93965 -2.95576,-11.1492 -6.37326,-13.65508 -21.4119,-15.70002 -18.5551,-2.52314 -26.09537,0.96139 -30.006,13.86644 -3.9376,12.99398 -4.80871,86.93102 -1.06779,90.62963 2.25819,2.23268 52.80829,3.45594 62.64821,1.51601 1.93647,-0.38177 3.31999,2.08271 3.31999,5.91395 0,8.24802 -6.45827,9.83687 -41.72395,10.26481 -21.68111,0.26298 -26.70484,-0.48168 -32.01485,-4.7465 z m 4.76172,-151.83805 c -0.95684,-2.46533 -1.06469,-5.56229 -0.23966,-6.88212 2.34854,-3.75708 58.34229,-0.31316 63.88205,3.69184 4.68493,3.38699 4.60998,3.6447 -1.49101,5.12804 -3.5331,0.859 -39.31711,-0.17419 -46.80226,0.79054 -11.38009,1.46677 -13.89438,1.01986 -15.34912,-2.7283 z"
       id="path3171"
       inkscape:connector-curvature="0"
       sodipodi:nodetypes="csscssscssssscssssssscsssssssssssssssssssssssssssssssssscccsssssccsssssssssssssssssssssssssssssss" />
  </g>
</svg>
