<?xml version="1.0" encoding="UTF-8" standalone="no"?>
<!-- Created with Inkscape (http://www.inkscape.org/) -->

<svg
   xmlns:dc="http://purl.org/dc/elements/1.1/"
   xmlns:cc="http://creativecommons.org/ns#"
   xmlns:rdf="http://www.w3.org/1999/02/22-rdf-syntax-ns#"
   xmlns:svg="http://www.w3.org/2000/svg"
   xmlns="http://www.w3.org/2000/svg"
   xmlns:sodipodi="http://sodipodi.sourceforge.net/DTD/sodipodi-0.dtd"
   xmlns:inkscape="http://www.inkscape.org/namespaces/inkscape"
   width="300"
   height="300"
   id="svg2"
   version="1.1"
   inkscape:version="0.48.4 r9939"
   sodipodi:docname="dessin.svg">
  <defs
     id="defs4" />
  <sodipodi:namedview
     id="base"
     pagecolor="#ffffff"
     bordercolor="#666666"
     borderopacity="1.0"
     inkscape:pageopacity="0.0"
     inkscape:pageshadow="2"
     inkscape:zoom="1.979899"
     inkscape:cx="73.020464"
     inkscape:cy="128.94188"
     inkscape:document-units="px"
     inkscape:current-layer="layer1"
     showgrid="false"
     inkscape:window-width="1215"
     inkscape:window-height="1000"
     inkscape:window-x="65"
     inkscape:window-y="24"
     inkscape:window-maximized="1" />
  <metadata
     id="metadata7">
    <rdf:RDF>
      <cc:Work
         rdf:about="">
        <dc:format>image/svg+xml</dc:format>
        <dc:type
           rdf:resource="http://purl.org/dc/dcmitype/StillImage" />
        <dc:title />
      </cc:Work>
    </rdf:RDF>
  </metadata>
  <g
     inkscape:label="Calque 1"
     inkscape:groupmode="layer"
     id="layer1"
     transform="translate(0,-752.36218)">
    <path
       style="fill:#000000"
       d="m 228.3738,1036.4257 c -0.088,-2.5928 -0.25651,-22.8969 -0.37485,-45.12043 -0.22611,-42.50081 -3.79084,-70.7804 -11.23642,-89.14258 -3.60923,-8.90103 -6.98301,-12.17106 -17.52152,-16.98272 -8.83473,-4.03374 -14.17483,-8.52264 -16.5281,-13.89358 -4.11374,-9.38888 -4.8253,-9.47366 -22.51382,-2.68161 -11.62969,4.46557 -14.40404,4.71022 -18.56423,1.63702 -8.58203,-6.3397 -1.35627,-11.70065 27.62469,-20.49533 10.81065,-3.28064 11.36057,-3.94282 10.88573,-13.10774 -0.75075,-14.49001 -4.21346,-19.84896 -11.61312,-17.97271 -8.23252,2.08742 -14.68206,-0.60418 -12.87122,-5.37156 2.4276,-6.39111 -0.68298,-4.40548 -15.11891,9.65108 -7.60775,7.40782 -14.79125,13.46877 -15.9633,13.46877 -4.41805,0 -5.12964,8.62134 -1.61797,19.60244 8.90016,27.8311 10.22064,44.93871 7.01183,90.84155 -1.70888,24.44583 -4.22943,48.83028 -5.60125,54.1876 -1.37179,5.3574 -2.49418,12.3877 -2.49418,15.6229 0,8.4482 -7.43716,21.7772 -12.15104,21.7772 -6.39511,0 -7.34444,-6.9052 -3.04789,-22.1698 8.23404,-29.25369 12.15587,-60.81919 8.06939,-64.94759 -0.98817,-0.99833 -8.48746,5.25482 -16.665074,13.89585 -15.424045,16.29814 -29.502566,27.42768 -34.695163,27.42768 -1.652775,0 -3.699966,-1.82943 -4.549298,-4.06544 -1.009343,-2.65729 4.791942,-10.36679 16.748771,-22.25791 10.061119,-10.00588 20.020166,-21.20747 22.131191,-24.89243 11.233533,-19.60914 18.364543,-40.37191 13.865763,-40.37191 -1.3176,0 -7.05236,4.56551 -12.74387,10.14557 -18.422345,18.06161 -29.574906,25.46593 -35.497193,23.567 -3.002726,-0.9628 -5.459478,-2.73605 -5.459478,-3.94056 0,-1.20452 7.370069,-8.699 16.377928,-16.65444 23.63982,-20.87793 24.550052,-21.76675 31.046063,-30.31682 7.08026,-9.31897 7.93563,-24.53693 1.51901,-27.02446 -4.21549,-1.63422 -6.60652,-0.12418 -22.17356,14.00314 -7.618152,6.91361 -16.788742,10.01509 -22.76385,7.6987 -6.293665,-2.43987 -4.699898,-8.53089 3.327042,-12.7152 4.032947,-2.10231 8.918186,-5.33763 10.856108,-7.18958 1.937895,-1.85195 4.349931,-3.3672 5.360074,-3.3672 1.010117,0 4.824046,-2.76185 8.475377,-6.13744 3.651331,-3.37564 10.838379,-9.07874 15.971219,-12.67361 16.37511,-11.46862 31.99694,-29.88524 31.99694,-37.72126 0,-5.6056 -10.91772,-13.50533 -18.66488,-13.50533 -9.53538,0 -10.28984,4.41283 -2.47128,14.45441 3.04037,3.90485 5.12639,9.20622 4.63558,11.78083 -1.6311,8.55645 -8.69333,6.44636 -15.45922,-4.61896 -6.48871,-10.61202 -11.474046,-13.42469 -14.635371,-8.25708 -1.448847,2.36831 3.070293,13.0778 6.866437,16.27211 0.880343,0.74078 3.063414,4.15178 4.851234,7.58 2.5186,4.82946 2.53494,7.10434 0.0728,10.1016 -4.015687,4.88822 -13.190597,5.05631 -13.190597,0.24163 0,-4.44045 -7.499015,-19.98678 -10.564056,-21.90048 -1.224896,-0.76482 -5.048557,1.61454 -8.496974,5.28741 -7.777337,8.28357 -12.93591,8.62754 -12.93591,0.86257 0,-5.95002 20.087733,-27.64539 35.996558,-38.87741 10.855239,-7.66406 26.701509,-12.56153 33.544559,-10.36735 9.59516,3.07661 26.44971,22.67592 26.44971,30.75703 l 0,7.2792 19.33149,-5.12245 c 10.63231,-2.81734 24.73096,-6.54222 31.33033,-8.27748 9.23794,-2.42904 12.19491,-4.54961 12.85091,-9.21596 1.12821,-8.02529 10.14188,-8.02529 12.77923,0 3.27331,9.96044 1.20998,39.95312 -3.27065,47.54293 -2.27467,3.8531 -9.00624,10.0361 -14.95905,13.74001 -17.84165,11.1013 -18.82545,12.68571 -13.51562,21.76673 2.5292,4.32554 5.8663,7.86458 7.41575,7.86458 4.89135,0 22.99804,16.61138 25.57736,23.4651 1.36017,3.61415 3.07857,18.29893 3.81868,32.63283 0.74012,14.3339 1.90153,30.3043 2.58093,35.48978 1.12437,8.5817 2.42798,64.03606 1.69392,72.05796 -0.48729,5.3255 -10.95029,4.0597 -11.13357,-1.3469 z M 200.49169,836.43144 c 7.117,-2.73361 14.70987,-16.60231 14.70987,-26.86816 0,-6.30295 -6.64424,-7.20959 -17.20622,-2.34787 -6.04339,2.78178 -6.79148,4.71046 -6.79148,17.50941 0,7.91077 0.52181,14.38325 1.15962,14.38325 0.6378,0 4.29548,-1.20449 8.12821,-2.67663 z M 167.20615,996.1286 c -7.03034,-2.61152 -13.33206,-9.54517 -13.33206,-14.66898 0,-2.73349 -0.89991,-4.97119 -1.99981,-4.97262 -1.09989,-10e-4 -1.9998,-16.56506 -1.9998,-36.80799 0,-27.99365 0.83842,-37.08931 3.50198,-37.99136 3.88829,-1.31679 11.45274,7.49936 9.36406,10.91356 -2.46019,4.02149 5.06347,10.01328 12.57328,10.01328 12.56933,0 15.89006,-2.56024 15.89006,-12.25111 0,-11.0993 4.04137,-14.00843 10.83366,-7.79843 4.58028,4.18761 5.16481,8.50559 5.16481,38.15355 0,38.48138 -2.43043,45.84988 -17.878,54.20195 -6.00996,3.24942 -15.26246,3.75482 -22.11818,1.20815 z m 17.20622,-17.37763 c 3.73532,-1.71938 6.89873,-4.44681 7.02978,-6.06096 0.13093,-1.61412 0.43103,-10.20792 0.6666,-19.09732 l 0.42831,-16.16253 -14.66526,0 -14.66526,0 -0.8022,18.79228 c -0.65612,15.371 0.0434,19.41694 3.84265,22.22349 5.74515,4.244 9.47208,4.30662 18.16538,0.30504 z"
       id="path3160"
       inkscape:connector-curvature="0" />
  </g>
</svg>
