<?xml version="1.0" encoding="UTF-8" standalone="no"?>
<!-- Created with Inkscape (http://www.inkscape.org/) -->

<svg
   xmlns:dc="http://purl.org/dc/elements/1.1/"
   xmlns:cc="http://creativecommons.org/ns#"
   xmlns:rdf="http://www.w3.org/1999/02/22-rdf-syntax-ns#"
   xmlns:svg="http://www.w3.org/2000/svg"
   xmlns="http://www.w3.org/2000/svg"
   xmlns:sodipodi="http://sodipodi.sourceforge.net/DTD/sodipodi-0.dtd"
   xmlns:inkscape="http://www.inkscape.org/namespaces/inkscape"
   width="300"
   height="300"
   id="svg2"
   version="1.1"
   inkscape:version="0.48.4 r9939"
   sodipodi:docname="image-seal.svg">
  <defs
     id="defs4" />
  <sodipodi:namedview
     id="base"
     pagecolor="#ffffff"
     bordercolor="#666666"
     borderopacity="1.0"
     inkscape:pageopacity="0.0"
     inkscape:pageshadow="2"
     inkscape:zoom="2.0018437"
     inkscape:cx="145.03351"
     inkscape:cy="130.6666"
     inkscape:document-units="px"
     inkscape:current-layer="layer1"
     showgrid="false"
     inkscape:window-width="1215"
     inkscape:window-height="1000"
     inkscape:window-x="65"
     inkscape:window-y="24"
     inkscape:window-maximized="1"
     fit-margin-top="10"
     fit-margin-left="10"
     fit-margin-right="10"
     fit-margin-bottom="10" />
  <metadata
     id="metadata7">
    <rdf:RDF>
      <cc:Work
         rdf:about="">
        <dc:format>image/svg+xml</dc:format>
        <dc:type
           rdf:resource="http://purl.org/dc/dcmitype/StillImage" />
        <dc:title />
      </cc:Work>
    </rdf:RDF>
  </metadata>
  <g
     inkscape:label="Calque 1"
     inkscape:groupmode="layer"
     id="layer1"
     transform="translate(0,-752.36218)">
    <path
       style="fill:#000000"
       d="m 158.49926,1041.4674 c -0.83182,-15.7799 0.9021,-61.86011 3.08624,-82.01981 2.68314,-24.7648 7.72257,-33.40269 20.08431,-34.42577 6.97596,-0.57736 15.97471,3.00798 21.36739,8.51348 5.94921,6.07349 14.41636,103.748 9.62207,110.9976 -1.35824,2.0537 -4.25169,3.0503 -6.42986,2.2142 -3.09055,-1.1857 -4.30926,-9.0568 -5.54902,-35.8392 -3.17103,-68.50142 -4.39522,-73.03547 -18.74702,-69.43354 -6.03112,1.51376 -6.38031,2.92986 -8.15353,33.06263 -2.77544,47.16361 -4.11141,62.91141 -5.78406,68.18171 -2.16338,6.8162 -9.11958,5.8996 -9.49652,-1.2513 z m -74.594684,-15.3837 c 0,-2.9429 0.90295,-5.3602 2.00657,-5.3717 1.10361,0 3.29848,-2.7204 4.87749,-6.0197 1.57898,-3.2994 6.27452,-12.4239 10.434494,-20.27661 9.48723,-17.9093 16.76731,-47.60037 13.65801,-55.70317 -1.3706,-3.5717 -5.97985,-0.0963 -22.371134,16.86697 -26.86373,27.8012 -32.63881,31.6599 -39.55008,26.426 -4.95489,-3.752 -4.60805,-4.43 8.2035,-16.0312 7.35743,-6.6623 14.58109,-13.14059 16.05257,-14.39644 6.91229,-5.89852 18.39585,-20.6313 24.946074,-32.00428 7.6562,-13.29313 15.05702,-32.29456 13.2732,-34.07826 -0.5861,-0.58619 -4.75937,2.21284 -9.27394,6.2201 -4.51454,4.00699 -10.470214,9.09137 -13.234784,11.2986 -29.23928,23.34472 -31.99339,24.72711 -34.78236,17.45904 -1.67605,-4.36763 0.68025,-7.05483 16.39639,-18.6999 5.88594,-4.36122 16.42044,-13.66582 23.40999,-20.67732 11.407364,-11.44281 12.708294,-13.98607 12.708294,-24.84429 0,-6.65326 -0.56535,-12.09695 -1.25633,-12.09695 -1.64541,0 -17.002294,8.64939 -30.621164,17.24661 -10.74818,6.78516 -16.57141,8.32486 -19.69,5.20612 -1.94632,-1.94638 3.77516,-11.75102 6.85728,-11.75102 1.18821,0 9.02524,-4.45298 17.4156,-9.89534 10.85967,-7.0444 13.90615,-10.18428 10.57318,-10.89809 -3.13755,-0.67153 -4.682,-3.53317 -4.682,-8.67454 0,-4.21968 -1.20394,-8.41636 -2.67543,-9.32574 -1.47148,-0.90938 -2.67542,-4.5921 -2.67542,-8.18413 0,-7.60363 -3.02335,-8.17906 -12.01591,-2.28696 -6.43882,4.21888 -12.06295,3.30282 -12.06295,-1.96478 0,-4.86682 23.44446,-25.72962 39.464365,-35.11864 16.396179,-9.60952 34.248399,-13.68591 41.692429,-9.52003 6.57936,3.68201 12.4832,16.69361 12.4832,27.51205 0,5.22326 0.69387,9.49686 1.54193,9.49686 0.84806,0 9.26833,-7.95798 18.71171,-17.68442 14.61185,-15.04982 18.16864,-17.43371 23.87464,-16.00158 3.68767,0.92554 6.70486,3.26678 6.70486,5.20272 0,3.13154 -14.17255,17.78157 -17.20199,17.78157 -0.65767,0 -4.74375,3.31084 -9.08016,7.35742 -8.74119,8.15693 -12.16774,16.36926 -9.61057,23.03322 2.01564,5.2524 4.84379,5.56008 9.61619,1.04556 1.94447,-1.83936 11.36102,-9.95848 20.92567,-18.04242 9.56466,-8.08402 17.99226,-15.42842 18.728,-16.32089 4.46647,-5.41801 12.3959,-7.08261 17.15645,-3.60161 6.23362,4.55813 4.49531,6.96853 -16.62171,23.04825 -8.35876,6.36493 -17.87959,14.18788 -21.15742,17.38448 -3.27783,3.19687 -8.40625,6.58878 -11.3965,7.53775 -7.57892,2.40548 -6.79106,10.59095 1.37763,14.31274 3.74796,1.70773 7.92395,3.10484 9.28002,3.10484 4.00592,0 35.21297,-22.23549 38.42458,-27.37793 3.39023,-5.42871 15.04209,-6.43494 15.04209,-1.29892 0,4.84306 -24.9336,30.414 -31.77232,32.58431 -3.12602,0.99232 -5.68368,2.73643 -5.68368,3.87563 0,1.13946 -4.8701,3.53076 -10.82248,5.3142 -9.77877,2.92986 -11.77836,2.65777 -20.73457,-2.8207 -5.45164,-3.33466 -11.2609,-7.37108 -12.90945,-8.96938 -5.02694,-4.87463 -11.15627,-18.33605 -13.12359,-28.82265 -2.0551,-10.95481 -5.33697,-12.84746 -7.9579,-4.5897 -0.93407,2.94297 -2.52012,5.39982 -3.52458,5.45974 -1.00444,0.0589 -5.72274,3.44462 -10.48506,7.52197 l -8.65881,7.41308 3.91458,22.26491 c 2.60239,14.80181 3.45157,31.78596 2.53336,50.6686 -3.14938,64.76494 -8.53806,92.55274 -19.57447,100.93915 -2.15273,1.6357 -4.18081,4.7916 -4.50684,7.0131 -0.32603,2.2214 -2.66644,7.2038 -5.2009,11.0717 -5.703674,8.705 -17.369844,9.8346 -17.369844,1.682 z M 113.40783,826.27604 c 20.44852,-13.91517 30.32408,-33.96965 23.62813,-47.98196 -4.12021,-8.62219 -11.97645,-11.00832 -19.09836,-5.80065 -4.48193,3.27726 -4.41445,4.29668 1.3275,20.06255 4.62391,12.69601 5.31067,17.34858 2.91453,19.74469 -5.42221,5.42229 -10.25904,0.83019 -14.1409,-13.42516 -2.68645,-9.86551 -4.93552,-13.5522 -7.92304,-12.98739 -5.809344,1.09826 -6.760784,15.98095 -1.653069,25.8582 2.293489,4.43506 4.169949,10.53156 4.169949,13.54757 0,6.65967 2.14487,6.85498 10.77526,0.98215 z m 23.11351,144.51565 c -2.18901,-2.189 -1.78657,-37.03861 0.53947,-46.71938 2.30095,-9.57616 11.37427,-21.0583 16.64066,-21.0583 2.37415,0 8.17389,-1.34467 12.88834,-2.98792 7.49248,-2.61202 8.4691,-4.04364 7.75666,-11.37057 -0.80033,-8.23122 -1.11314,-8.40673 -17.31647,-9.72036 -18.5034,-1.49985 -21.91754,-3.3681 -16.9951,-9.29926 2.80115,-3.37532 11.62559,-4.07789 51.21439,-4.07789 46.0465,0 47.83013,0.20066 47.83013,5.35086 0,4.1825 -1.89875,5.4263 -8.69514,5.69626 -34.26962,1.36125 -39.46257,2.64252 -39.46257,9.73722 0,7.30392 5.36659,11.3208 15.12406,11.3208 20.7202,0 28.66256,10.85555 31.70621,43.33579 2.32061,24.76455 0.54803,31.57625 -8.21686,31.57625 -6.38079,0 -6.50827,-0.4428 -6.50827,-22.61517 0,-36.11454 -2.91496,-38.91972 -40.44258,-38.91972 -17.12579,0 -18.91707,0.57227 -26.44096,8.44525 -4.43886,4.64481 -7.91849,9.76157 -7.73255,11.37057 0.18594,1.60901 0.1953,11.6539 0.0214,22.32217 -0.27637,16.9103 -0.94582,19.3969 -5.22195,19.3969 -2.69772,0 -5.70758,-0.8027 -6.68857,-1.7835 z"
       id="path3210"
       inkscape:connector-curvature="0" />
  </g>
</svg>
