<?xml version="1.0" encoding="UTF-8" standalone="no"?>
<!-- Created with Inkscape (http://www.inkscape.org/) -->

<svg
   xmlns:dc="http://purl.org/dc/elements/1.1/"
   xmlns:cc="http://creativecommons.org/ns#"
   xmlns:rdf="http://www.w3.org/1999/02/22-rdf-syntax-ns#"
   xmlns:svg="http://www.w3.org/2000/svg"
   xmlns="http://www.w3.org/2000/svg"
   xmlns:sodipodi="http://sodipodi.sourceforge.net/DTD/sodipodi-0.dtd"
   xmlns:inkscape="http://www.inkscape.org/namespaces/inkscape"
   width="300"
   height="300"
   id="svg2"
   version="1.1"
   inkscape:version="0.48.4 r9939"
   sodipodi:docname="dessin.svg">
  <defs
     id="defs4" />
  <sodipodi:namedview
     id="base"
     pagecolor="#ffffff"
     bordercolor="#666666"
     borderopacity="1.0"
     inkscape:pageopacity="0.0"
     inkscape:pageshadow="2"
     inkscape:zoom="1.979899"
     inkscape:cx="156.32962"
     inkscape:cy="101.52144"
     inkscape:document-units="px"
     inkscape:current-layer="layer1"
     showgrid="false"
     inkscape:window-width="1215"
     inkscape:window-height="1000"
     inkscape:window-x="65"
     inkscape:window-y="24"
     inkscape:window-maximized="1" />
  <metadata
     id="metadata7">
    <rdf:RDF>
      <cc:Work
         rdf:about="">
        <dc:format>image/svg+xml</dc:format>
        <dc:type
           rdf:resource="http://purl.org/dc/dcmitype/StillImage" />
        <dc:title />
      </cc:Work>
    </rdf:RDF>
  </metadata>
  <g
     inkscape:label="Calque 1"
     inkscape:groupmode="layer"
     id="layer1"
     transform="translate(0,-752.36218)">
    <path
       style="fill:#000000"
       d="m 140.06779,1027.9864 c -0.65432,-1.7099 -0.10667,-7.9552 1.21714,-13.8786 1.32373,-5.9233 3.09766,-21.3418 3.9421,-34.26327 l 1.53532,-23.49363 -7.33793,-2.56519 c -7.896,-2.76028 -7.88607,-2.72603 -7.34326,-25.36976 0.38086,-15.88804 3.26708,-24.59617 7.31964,-22.08452 1.53846,0.95348 1.86704,7.1551 0.90069,17.0001 -1.56753,15.96968 1.89151,26.34808 7.60203,22.80887 3.85191,-2.38729 5.9733,-21.42523 3.25783,-29.23669 -1.77066,-5.09355 -1.62514,-7.94794 0.55782,-10.94167 5.5801,-7.65269 8.31869,-1.40057 8.31869,18.99146 0,20.39935 1.44917,22.94918 9.50418,16.72252 2.47083,-1.90999 3.76951,-6.96353 3.95019,-15.37139 0.27585,-12.83773 1.52258,-16.45737 4.59752,-13.34819 2.94731,2.98011 1.25119,31.59443 -2.11396,35.66363 -1.71979,2.07961 -6.39249,5.14998 -10.38376,6.82307 -6.39575,2.681 -7.47252,4.50899 -9.07437,15.40494 -0.99963,6.79962 -2.02153,16.04187 -2.2709,20.53831 -0.94541,17.04671 -3.7667,33.68151 -6.21398,36.63861 -3.25361,3.9313 -6.45179,3.9158 -7.96499,-0.039 z m 65.40825,-1.5347 c -3.66597,-5.9484 -8.16975,-29.76476 -8.16975,-43.20257 0,-16.98156 -2.63488,-25.67489 -9.46338,-31.22276 -4.13837,-3.36224 -4.65316,-6.07914 -4.04477,-21.34643 0.57673,-14.47263 1.40111,-17.62856 4.77336,-18.27384 3.52005,-0.67358 4.07624,1.15559 4.07624,13.40618 0,20.50935 3.88743,17.42905 5.834,-4.62275 1.38343,-15.67231 2.29783,-18.68391 5.48331,-18.05937 3.27452,0.64197 3.70224,3.67554 2.98142,21.14471 -0.69838,16.92539 -0.24862,20.3952 2.64371,20.3952 5.70335,0 11.00889,-10.73713 11.00889,-22.27933 0,-9.01378 0.663,-10.62846 4.07623,-9.92739 3.36872,0.69191 3.9996,3.12693 3.6347,14.02915 -0.5969,17.83411 -5.73147,27.52083 -14.5878,27.52083 -4.57803,0 -7.01503,1.31827 -7.55668,4.08768 -1.38266,7.06966 2.60983,40.82143 6.35834,53.75209 1.9762,6.817 2.96745,13.4097 2.20278,14.6504 -1.80778,2.9333 -7.43028,2.9018 -9.2506,-0.052 z M 86.457721,1016.2115 c -1.340452,-3.503 0.343172,-8.346 9.749098,-28.04358 1.765476,-3.6972 6.487531,-19.85338 10.493441,-35.90259 9.52989,-38.18027 7.76739,-39.4696 -18.09725,-13.23872 -10.661127,10.81209 -20.961355,19.65836 -22.889345,19.65836 -7.533652,0 -2.643311,-8.91969 14.000006,-25.53516 9.563873,-9.54791 18.043515,-19.53353 18.843622,-22.19025 0.800131,-2.65677 3.580377,-7.16026 6.178367,-10.00783 3.55928,-3.90119 4.72358,-8.37703 4.72358,-18.1582 0,-7.13944 -0.61868,-13.60124 -1.37485,-14.35954 -1.82276,-1.82785 -17.924864,8.22478 -17.924864,11.19059 0,2.84225 -3.542157,6.36342 -13.377461,13.29818 -13.06571,9.21247 -17.326051,0.12266 -5.049291,-10.7733 29.845176,-26.48809 34.687416,-33.8877 32.456946,-49.59856 -0.77348,-5.44823 -1.65698,-5.50535 -8.655224,-0.55984 -9.442122,6.67257 -25.566406,14.57474 -29.739587,14.57474 -7.388398,0 -3.733854,-8.7766 5.148076,-12.36348 4.804136,-1.94011 11.275894,-6.2587 14.381683,-9.59688 3.105812,-3.33819 6.380612,-6.06943 7.277385,-6.06943 2.181764,0 18.520967,-15.08609 18.520967,-17.10055 0,-0.87228 -1.34628,-1.58599 -2.99169,-1.58599 -1.64546,0 -4.84924,-3.15335 -7.11954,-7.00744 -4.313098,-7.322 -10.852264,-9.48096 -10.852264,-3.58298 0,1.88346 1.742392,7.08857 3.871981,11.56688 3.16826,6.66257 3.331961,8.79491 0.900708,11.73263 -3.785472,4.57399 -6.37062,2.91104 -10.360371,-6.66458 -2.817773,-6.76279 -4.030441,-7.52693 -10.446459,-6.58261 -5.674866,0.83522 -7.258635,0.20952 -7.258635,-2.86735 0,-4.99139 2.597122,-7.50795 19.809713,-19.19504 16.758497,-11.3788 31.163147,-14.68274 39.663507,-9.09747 3.16058,2.07674 5.74655,5.26627 5.74655,7.0879 0,6.11488 4.6443,6.26529 6.93455,0.22447 2.48713,-6.56004 4.70479,-7.38868 8.79553,-3.28645 1.69918,1.70396 1.92943,4.11148 0.62664,6.55258 -2.98936,5.60138 -0.13579,23.45519 3.74884,23.45519 2.38964,0 3.18722,-4.04384 3.18722,-16.15967 0,-19.23497 1.33922,-23.5492 7.31013,-23.5492 6.43978,0 7.37484,4.60424 4.84162,23.83948 -1.23411,9.37052 -1.85109,17.47685 -1.37107,18.01406 0.48,0.53724 3.57561,-0.47382 6.87913,-2.24678 5.58421,-2.99696 5.95557,-4.21497 5.28315,-17.32747 -0.39782,-7.75718 0.3043,-14.6295 1.56022,-15.27185 1.3858,-0.70878 2.55345,7.09657 2.97016,19.85444 0.62566,19.15561 0.24079,21.38534 -4.33428,25.11002 -2.76152,2.24822 -7.00118,4.08768 -9.42143,4.08768 -3.33663,0 -4.40052,1.69419 -4.40052,7.00745 0,5.45023 -1.03522,7.00745 -4.65855,7.00745 -3.35638,0 -4.65856,-1.55722 -4.65856,-5.5709 0,-3.50177 -2.37913,-7.13113 -6.40551,-9.77167 -9.9197,-6.50539 -12.22872,-9.53102 -12.22872,-16.0241 0,-3.30353 -0.44133,-6.0064 -0.98074,-6.0064 -0.53941,0 -5.78028,4.81303 -11.64638,10.69559 -10.42953,10.45878 -12.87197,16.49107 -8.48449,20.95473 8.35256,8.4976 8.94437,104.21376 0.83973,135.81206 -2.37027,9.2412 -5.06781,17.56254 -5.99452,18.49187 -0.92672,0.92932 -1.68493,3.61669 -1.68493,5.97199 0,2.35527 -1.04816,4.28232 -2.32927,4.28232 -1.2811,0 -2.32928,1.41518 -2.32928,3.14486 0,4.8227 -6.4149,16.63354 -11.580515,21.32144 -4.227196,3.8363 -4.754382,3.8673 -6.096954,0.3588 z M 122.76941,785.93972 c 0,-5.055 -4.54899,-9.4484 -9.78297,-9.4484 -4.93743,0 -5.44881,5.74274 -1.29698,14.56509 2.67879,5.69225 3.20227,5.87498 6.98783,2.43946 2.25067,-2.04253 4.09212,-5.4428 4.09212,-7.55615 z m 30.96321,113.02571 c -10.04236,-4.408 -12.32898,-9.57067 -12.32898,-27.83601 0,-26.47757 6.98406,-34.70762 29.9507,-35.29413 28.78848,-0.73518 27.64419,-0.45567 28.90317,-7.06005 0.77493,-4.06523 -0.304,-7.58459 -3.22239,-10.51118 -3.30758,-3.31686 -4.29564,-7.41785 -4.01461,-16.66272 0.25551,-8.40535 0.6683,-9.87494 1.31223,-4.67163 1.03411,8.35633 3.73141,9.50091 9.27923,3.9375 2.71939,-2.72699 2.9726,-4.32682 0.99826,-6.30671 -3.32018,-3.32949 -3.49717,-28.94465 -0.21406,-30.97941 1.33724,-0.82876 3.99371,-0.20649 5.90328,1.38271 2.7176,2.26176 3.21155,6.59549 2.27341,19.94628 -0.76155,10.83784 -0.2921,17.6185 1.28752,18.59752 4.41863,2.73854 6.66781,-2.36247 7.30323,-16.56327 0.46645,-10.42475 1.53381,-14.07308 4.27195,-14.60187 6.29895,-1.21647 8.70858,8.52054 6.28411,25.39343 -2.18395,15.19927 -2.32746,15.43324 -10.74329,17.51862 -7.56507,1.87454 -8.61441,3.03819 -9.27816,10.28894 -0.4116,4.49645 -1.71449,9.16657 -2.89529,10.37803 -1.31933,1.3536 -0.25829,4.21865 2.75261,7.43259 4.155,4.43523 4.85901,7.93065 4.63306,23.00357 -0.30888,20.60686 -3.79015,27.75383 -16.0135,32.87542 -10.14728,4.25169 -36.49241,4.09989 -46.44246,-0.26763 z m 41.68446,-13.27471 c 2.01285,-1.60587 4.33879,-5.84744 5.16876,-9.4257 l 1.50903,-6.50593 -23.94011,0.66639 -23.94011,0.66638 -0.73702,6.4235 c -0.52647,4.58818 0.30544,6.4235 2.91159,6.4235 2.00675,0 3.64864,1.05111 3.64864,2.33581 0,3.43008 30.989,2.9186 35.37922,-0.58395 z m 6.54777,-28.9402 c 0,-6.77999 -7.51509,-10.03304 -23.35681,-10.11044 -15.78639,-0.0771 -25.55802,3.96385 -25.55802,10.56932 0,2.72378 4.69741,3.37129 24.45741,3.37129 21.11353,0 24.45742,-0.52366 24.45742,-3.83017 z m -9.99917,-73.25176 c -2.41568,-8.90775 -1.97747,-11.67908 1.8467,-11.67908 3.72722,0 4.00785,2.36946 1.38324,11.67908 l -1.64631,5.83955 -1.58363,-5.83955 z"
       id="path3275"
       inkscape:connector-curvature="0" />
  </g>
</svg>
