<?xml version="1.0" encoding="UTF-8" standalone="no"?>
<!-- Created with Inkscape (http://www.inkscape.org/) -->

<svg
   xmlns:dc="http://purl.org/dc/elements/1.1/"
   xmlns:cc="http://creativecommons.org/ns#"
   xmlns:rdf="http://www.w3.org/1999/02/22-rdf-syntax-ns#"
   xmlns:svg="http://www.w3.org/2000/svg"
   xmlns="http://www.w3.org/2000/svg"
   xmlns:sodipodi="http://sodipodi.sourceforge.net/DTD/sodipodi-0.dtd"
   xmlns:inkscape="http://www.inkscape.org/namespaces/inkscape"
   width="300"
   height="300"
   id="svg2"
   version="1.1"
   inkscape:version="0.48.4 r9939"
   sodipodi:docname="image-seal.svg">
  <defs
     id="defs4" />
  <sodipodi:namedview
     id="base"
     pagecolor="#ffffff"
     bordercolor="#666666"
     borderopacity="1.0"
     inkscape:pageopacity="0.0"
     inkscape:pageshadow="2"
     inkscape:zoom="1.979899"
     inkscape:cx="130.93154"
     inkscape:cy="137.35134"
     inkscape:document-units="px"
     inkscape:current-layer="layer1"
     showgrid="false"
     inkscape:window-width="1215"
     inkscape:window-height="1000"
     inkscape:window-x="65"
     inkscape:window-y="24"
     inkscape:window-maximized="1"
     fit-margin-top="10"
     fit-margin-left="10"
     fit-margin-right="10"
     fit-margin-bottom="10" />
  <metadata
     id="metadata7">
    <rdf:RDF>
      <cc:Work
         rdf:about="">
        <dc:format>image/svg+xml</dc:format>
        <dc:type
           rdf:resource="http://purl.org/dc/dcmitype/StillImage" />
        <dc:title />
      </cc:Work>
    </rdf:RDF>
  </metadata>
  <g
     inkscape:label="Calque 1"
     inkscape:groupmode="layer"
     id="layer1"
     transform="translate(0,-752.36218)">
    <path
       style="fill:#000000"
       d="m 84.19587,1048.2454 c -2.8655,-2.8655 -2.3996,-12.5778 0.60336,-12.5778 3.8438,0 12.64712,-19.9508 15.33033,-34.7428 3.62333,-19.97456 6.14904,-52.1141 4.09548,-52.1141 -1.008,0 -13.48285,12.0514 -27.72186,26.78088 -24.64738,25.49642 -26.13217,26.53832 -30.95733,21.72311 -4.82641,-4.81644 -4.51123,-5.64535 6.60515,-17.37138 34.01085,-35.87615 46.72988,-56.49833 49.14511,-79.68214 l 1.72865,-16.59314 -17.91591,18.09912 c -20.27509,20.48245 -33.0617,30.36787 -35.77311,27.65648 -4.50307,-4.50306 -0.97955,-12.15576 9.73631,-21.14615 6.3695,-5.3439 11.58092,-10.91588 11.58092,-12.38217 0,-1.46632 3.80329,-6.21884 8.45178,-10.56116 9.48446,-8.85981 19.72819,-25.72134 20.5947,-33.89959 1.30554,-12.32207 -0.2571,-18.43306 -4.7139,-18.43306 -3.98239,0 -20.01313,9.48408 -24.33258,14.39558 -0.79619,0.90534 -4.92094,3.17028 -9.16613,5.03318 -6.21895,2.7291 -8.01709,2.60904 -9.25544,-0.61807 -1.52715,-3.9797 15.96355,-21.70592 21.41755,-21.70592 4.0286,0 3.4477,-24.24575 -0.6798,-28.37325 -4.20717,-4.20717 -13.8971,-4.61091 -13.8971,-0.57905 0,4.81231 -7.9318,3.24541 -9.92995,-1.96163 -2.57559,-6.7119 1.64516,-10.05467 32.13871,-25.45324 40.06364,-20.23126 50.9264,-19.96994 59.92932,1.44177 6.84391,16.27681 -0.15171,29.35572 -23.37994,43.71163 -11.05906,6.83488 -10.92281,6.4107 -4.97505,15.48809 3.75042,5.72387 4.61474,17.44912 4.84783,65.76463 0.51092,105.91398 0.42772,106.99068 -9.85281,127.48928 -5.01101,9.9915 -9.24175,18.3303 -9.40171,18.5305 -1.56484,1.9595 -12.742,3.591 -14.25258,2.0804 z M 97.92085,816.76798 c 5.78788,-2.22102 5.73638,-4.21855 -0.47846,-18.56393 -9.2727,-21.40348 -17.75743,-8.851 -9.21121,13.62721 2.79396,7.34868 3.05615,7.48226 9.68967,4.93672 z m 25.34209,-17.51035 c 10.50445,-9.50637 5.76223,-27.18216 -7.2469,-27.01163 -9.67734,0.12681 -11.55397,4.74861 -7.50134,18.47409 4.27397,14.47496 6.66074,15.85662 14.74824,8.53754 z m 77.67538,219.02887 c -15.12758,-1.1383 -34.67038,-4.5808 -43.42845,-7.6501 -13.67325,-4.7917 -16.75742,-7.3009 -21.82237,-17.75393 -5.17461,-10.6794 -5.62447,-15.10821 -3.66533,-36.08452 1.2283,-13.15106 2.10724,-35.63669 1.95315,-49.96808 -0.46911,-43.63749 8.08189,-101.7839 16.20886,-110.2197 6.11681,-6.34924 29.64192,-9.78822 55.37504,-8.09495 25.92881,1.70613 33.01709,4.18483 33.01709,11.54563 0,3.164 -7.11466,3.98835 -34.42203,3.98835 -39.80831,0 -43.89403,1.92591 -49.137,23.16184 -4.9399,20.0085 -9.95589,112.03608 -6.23196,114.33756 2.38752,1.47558 5.71982,-15.02578 5.84179,-28.92827 0.042,-4.77713 1.25981,-10.55618 2.70644,-12.84237 4.038,-6.38144 11.75724,1.45882 11.75724,11.94157 0,7.59028 0.87172,8.42318 7.96188,7.60737 6.33346,-0.72873 8.15511,-2.6051 8.90657,-9.17418 0.8351,-7.29988 1.914,-8.11582 9.29843,-7.03202 5.47245,0.8032 8.90312,-0.20585 9.94668,-2.92511 2.1901,-5.70731 10.21012,0.91944 10.21012,8.43638 0,3.50581 2.05601,5.43597 5.79046,5.43597 3.89011,0 5.79046,-1.93016 5.79046,-5.88131 0,-8.29918 8.57506,-10.81643 13.6213,-3.9986 6.53809,8.83343 4.1264,58.50162 -3.25621,67.0607 -10.99724,12.74973 -36.42216,6.05827 -36.42216,-9.58575 0,-4.02568 -1.97869,-2.59888 -7.34245,5.29465 -9.11659,13.41623 -21.42444,14.69262 -34.36491,3.56376 -11.08655,-9.53451 -13.30201,-9.13575 -13.30201,2.3941 0,18.53237 20.81823,28.00931 61.52853,28.00931 23.1471,0 32.44629,3.9974 30.67661,13.1867 -1.28795,6.6877 -2.29714,6.801 -37.19577,4.175 z m 21.47742,-56.75702 c 6.38201,-2.44899 6.69756,-35.88062 0.33865,-35.88062 -6.00247,0 -10.23515,9.30015 -10.23515,22.48896 0,14.20183 1.71999,16.52928 9.8965,13.39166 z m -41.74403,-5.51999 c 0,-2.41016 1.50847,-6.79757 3.35215,-9.74977 4.61749,-7.39379 1.09715,-14.8204 -7.02507,-14.8204 -9.63472,0 -13.69846,5.32511 -13.69846,17.95043 0,10.29416 0.55872,11.00187 8.68569,11.00187 5.82505,0 8.68569,-1.44324 8.68569,-4.38213 z m 20.26661,-67.99862 c -2.38857,-1.54362 -7.76617,-2.82652 -11.95024,-2.8509 -12.04974,-0.0703 -15.03038,-6.43772 -14.56147,-31.10745 0.23191,-12.19682 1.16817,-24.52862 2.0808,-27.40399 2.01352,-6.34406 9.95476,-6.99297 9.95476,-0.81344 0,10.40997 27.23328,11.35312 30.50136,1.05635 2.12617,-6.69904 8.76192,-7.16581 11.20914,-0.78846 2.9234,7.61825 -1.50896,51.22363 -5.92488,58.28886 -4.25492,6.80761 -13.85313,8.43768 -21.30947,3.61903 z m 10.98728,-20.97536 c 2.0799,-1.72614 3.39002,-6.50712 2.91144,-10.62433 -0.79199,-6.81312 -2.04114,-7.48591 -13.89872,-7.48591 -12.12943,0 -13.09293,0.56153 -13.96156,8.13696 -1.27963,11.15989 4.37348,17.3267 13.73052,14.97824 4.0902,-1.02657 9.13844,-3.27879 11.21832,-5.00496 z"
       id="path3286"
       inkscape:connector-curvature="0" />
  </g>
</svg>
