<?xml version="1.0" encoding="UTF-8" standalone="no"?>
<!-- Created with Inkscape (http://www.inkscape.org/) -->

<svg
   xmlns:dc="http://purl.org/dc/elements/1.1/"
   xmlns:cc="http://creativecommons.org/ns#"
   xmlns:rdf="http://www.w3.org/1999/02/22-rdf-syntax-ns#"
   xmlns:svg="http://www.w3.org/2000/svg"
   xmlns="http://www.w3.org/2000/svg"
   xmlns:sodipodi="http://sodipodi.sourceforge.net/DTD/sodipodi-0.dtd"
   xmlns:inkscape="http://www.inkscape.org/namespaces/inkscape"
   width="300"
   height="300"
   id="svg2"
   version="1.1"
   inkscape:version="0.48.4 r9939"
   sodipodi:docname="image-seal.svg">
  <defs
     id="defs4" />
  <sodipodi:namedview
     id="base"
     pagecolor="#ffffff"
     bordercolor="#666666"
     borderopacity="1.0"
     inkscape:pageopacity="0.0"
     inkscape:pageshadow="2"
     inkscape:zoom="1.9351156"
     inkscape:cx="152.85021"
     inkscape:cy="151.83238"
     inkscape:document-units="px"
     inkscape:current-layer="layer1"
     showgrid="false"
     inkscape:window-width="1215"
     inkscape:window-height="1000"
     inkscape:window-x="65"
     inkscape:window-y="24"
     inkscape:window-maximized="1" />
  <metadata
     id="metadata7">
    <rdf:RDF>
      <cc:Work
         rdf:about="">
        <dc:format>image/svg+xml</dc:format>
        <dc:type
           rdf:resource="http://purl.org/dc/dcmitype/StillImage" />
        <dc:title />
      </cc:Work>
    </rdf:RDF>
  </metadata>
  <g
     inkscape:label="Calque 1"
     inkscape:groupmode="layer"
     id="layer1"
     transform="translate(0,-752.36218)">
    <path
       style="fill:#000000"
       d="m 217.26909,1032.1253 c -7.64987,-8.4071 -14.3136,-17.1284 -14.80826,-19.3806 -0.49468,-2.2522 -2.05943,-4.0949 -3.47721,-4.0949 -1.41782,0 -2.57781,-1.8396 -2.57781,-4.088 0,-2.2484 -2.31883,-8.21653 -5.15293,-13.26244 -2.83412,-5.04592 -5.88895,-12.9077 -6.78852,-17.4707 -10.4213,-52.86122 -11.21029,-54.92613 -23.84699,-62.41137 -12.27467,-7.2708 -16.83533,-13.59972 -22.28574,-30.92645 -3.86794,-12.29613 -3.99802,-21.18864 -0.34302,-23.44755 1.52997,-0.94558 2.78177,-9.01216 2.78177,-17.92577 0,-13.88868 0.92433,-16.81216 6.463,-20.44123 3.55463,-2.32909 9.50067,-4.66369 13.21342,-5.18803 6.26774,-0.88516 6.80852,-2.26459 7.56296,-19.29245 0.91331,-20.61287 -1.32084,-24.19876 -15.76237,-25.29918 -8.99737,-0.68556 -16.66824,-6.34227 -13.24405,-9.76646 0.99415,-0.99415 8.05109,-1.78954 15.68207,-1.76754 20.79839,0.0601 25.02977,5.17721 25.02977,30.2699 0,22.07847 2.57926,25.56606 15.32389,20.72058 4.98743,-1.89622 6.93028,-4.70829 6.93028,-10.03087 0,-14.74926 6.42194,-29.50814 15.1577,-34.83532 11.70111,-7.13552 23.7871,-6.94903 23.7871,0.36703 0,3.96872 -1.85453,5.56354 -6.46954,5.56354 -9.23732,0 -18.76934,11.47472 -20.54803,24.7359 -1.89808,14.15121 2.31032,19.77244 14.80286,19.77244 8.12589,0 9.91268,1.32691 13.56826,10.07591 5.10564,12.21952 5.68767,54.36463 0.94041,68.09403 -3.73353,10.7975 -8.69524,15.42403 -19.84349,18.50298 -6.70999,1.85319 -8.79938,5.09852 -14.79635,22.98222 -3.84066,11.45336 -8.1484,22.01352 -9.57275,23.46699 -5.20199,5.30837 -2.33782,17.9113 8.63671,38.0032 6.17453,11.30424 16.18891,24.72524 22.25417,29.82454 7.2503,6.0956 11.02775,11.5746 11.02775,15.9952 0,11.0469 -8.49417,7.9052 -23.64506,-8.7456 z M 198.92534,930.73449 c 3.96241,-15.46053 4.77995,-102.27657 0.99874,-106.05778 -1.2434,-1.2434 -5.98612,-1.25605 -10.53938,-0.0281 l -8.27864,2.23263 0.80118,28.98989 c 0.84474,30.56585 5.62778,82.91548 7.91372,86.61418 3.03778,4.91522 5.72041,1.4528 9.10438,-11.75082 z M 169.09877,889.7291 c 0.48411,-4.20743 0.48411,-19.85489 3e-5,-34.77214 -0.75425,-23.24078 -1.55045,-27.11618 -5.56354,-27.07968 -12.6236,0.11488 -16.6264,12.23726 -14.95386,45.28765 0.35409,6.99738 2.83702,12.8608 7.36226,17.38607 8.82337,8.82333 12.06864,8.62057 13.15511,-0.8219 z m 60.80565,3.33579 c 2.2124,-2.66577 3.92322,-14.62294 4.47765,-31.29493 0.97947,-29.45231 -1.35831,-36.06249 -13.21669,-37.37104 l -6.67806,-0.73689 -0.0139,36.85847 c -0.0139,35.77046 0.1619,36.85847 5.91836,36.85847 3.2624,0 7.54277,-1.94134 9.51199,-4.31408 z M 122.15335,1027.5664 c -4.48296,-5.7105 -8.6702,-33.42658 -12.10354,-80.11555 -1.7439,-23.7146 -3.5027,-43.45986 -3.90845,-43.87838 -1.69351,-1.74678 -9.56125,2.8741 -10.91931,6.41315 -0.80858,2.10714 -2.24806,25.48156 -3.19882,51.94313 -1.76261,49.05765 -4.0581,61.73045 -11.71378,64.66815 -6.95671,2.6696 -7.43982,-0.1032 -3.97771,-22.8305 1.80498,-11.84888 4.0502,-39.33311 4.98941,-61.07608 1.69646,-39.27374 1.662,-39.58688 -5.25986,-47.81305 -6.54011,-7.77247 -7.11538,-11.06375 -9.37855,-53.65667 -3.824344,-71.97421 -3.107732,-74.39244 23.73291,-80.08839 20.15287,-4.27672 31.48353,-0.95788 36.22361,10.61026 1.73733,4.23995 3.27378,29.4322 3.59066,58.87399 0.47331,43.97794 -0.13353,52.67654 -4.17188,59.80808 -7.30051,12.89204 -6.3151,43.66132 3.55382,110.96876 2.68372,18.3033 2.56733,22.6034 -0.70023,25.871 -3.19717,3.1972 -4.44184,3.2528 -6.75828,0.3021 z M 103.85311,888.87974 c 7.61006,-2.65286 8.55814,-4.32769 9.84182,-17.38607 0.78129,-7.94772 0.81781,-15.45752 0.0812,-16.68846 -0.73664,-1.23093 -8.42112,-1.85196 -17.07657,-1.38006 l -15.73723,0.85803 0.4223,12.8751 c 0.46989,14.32531 4.82247,24.65715 10.38755,24.65715 2.01283,0 7.44925,-1.32107 12.08095,-2.93569 z m 10.68915,-51.11015 c 5.41051,-5.41052 5.12939,-20.02336 -0.42623,-22.15525 -8.23371,-3.15956 -28.24696,-1.75221 -31.542,2.21807 -2.86723,3.45477 -1.93314,15.31521 1.71883,21.82481 2.09732,3.7385 26.12247,2.23927 30.2494,-1.88763 z m 1.14959,-45.40249 c -0.0581,-14.22547 -2.08866,-16.35795 -17.15056,-18.01152 -15.90292,-1.74587 -18.96988,0.91879 -18.96988,16.48155 l 0,11.96162 18.08152,0 18.08151,0 -0.0426,-10.43165 z"
       id="path3290"
       inkscape:connector-curvature="0" />
  </g>
</svg>
