<?xml version="1.0" encoding="UTF-8" standalone="no"?>
<!-- Created with Inkscape (http://www.inkscape.org/) -->

<svg
   xmlns:dc="http://purl.org/dc/elements/1.1/"
   xmlns:cc="http://creativecommons.org/ns#"
   xmlns:rdf="http://www.w3.org/1999/02/22-rdf-syntax-ns#"
   xmlns:svg="http://www.w3.org/2000/svg"
   xmlns="http://www.w3.org/2000/svg"
   xmlns:sodipodi="http://sodipodi.sourceforge.net/DTD/sodipodi-0.dtd"
   xmlns:inkscape="http://www.inkscape.org/namespaces/inkscape"
   width="300"
   height="300"
   id="svg2"
   version="1.1"
   inkscape:version="0.48.4 r9939"
   sodipodi:docname="image-seal.svg">
  <defs
     id="defs4" />
  <sodipodi:namedview
     id="base"
     pagecolor="#ffffff"
     bordercolor="#666666"
     borderopacity="1.0"
     inkscape:pageopacity="0.0"
     inkscape:pageshadow="2"
     inkscape:zoom="2.0018442"
     inkscape:cx="176.81199"
     inkscape:cy="159.18409"
     inkscape:document-units="px"
     inkscape:current-layer="layer1"
     showgrid="false"
     inkscape:window-width="1215"
     inkscape:window-height="1000"
     inkscape:window-x="65"
     inkscape:window-y="24"
     inkscape:window-maximized="1" />
  <metadata
     id="metadata7">
    <rdf:RDF>
      <cc:Work
         rdf:about="">
        <dc:format>image/svg+xml</dc:format>
        <dc:type
           rdf:resource="http://purl.org/dc/dcmitype/StillImage" />
        <dc:title />
      </cc:Work>
    </rdf:RDF>
  </metadata>
  <g
     inkscape:label="Calque 1"
     inkscape:groupmode="layer"
     id="layer1"
     transform="translate(0,-752.36218)">
    <path
       style="fill:#000000"
       d="m 169.72876,1045.069 c -0.77949,-1.2612 -0.26891,-9.4276 1.13459,-18.1476 4.36804,-27.13862 5.058,-47.45619 1.71797,-50.58912 -1.70332,-1.59769 -6.26889,-4.53863 -10.14571,-6.5354 -10.10863,-5.20649 -13.11528,-18.5429 -13.11528,-58.17485 0,-28.38615 0.62176,-33.78014 3.60805,-31.30174 1.98441,1.64692 4.4166,2.18584 5.40485,1.19761 0.98825,-0.98825 3.2966,0.1425 5.1297,2.51263 3.47496,4.49314 12.46955,5.75766 36.26749,5.09873 l 14.11482,-0.39083 -0.0411,-11.42629 c -0.0589,-16.33464 -2.34618,-18.56228 -19.21533,-18.71386 -19.47598,-0.17502 -25.73495,2.14166 -30.4571,11.27331 -2.92113,5.64878 -5.36361,7.26765 -9.38042,6.21724 -8.23999,-2.15481 -7.21668,-15.12934 1.74954,-22.18218 6.28532,-4.94404 10.49135,-5.60171 33.73916,-5.27553 24.56735,0.34469 26.8636,0.83796 30.62516,6.57882 4.29803,6.55968 7.11062,32.30254 7.18805,65.79094 0.0635,27.4596 -2.21468,38.08319 -9.43368,43.99104 -5.20476,4.25948 -6.09061,7.47147 -5.9318,21.5083 0.10271,9.07559 1.85474,25.23438 3.89344,35.90838 2.03866,10.6739 3.03519,20.0787 2.21449,20.8994 -7.14283,7.1428 -15.7045,-20.6556 -15.7045,-50.99021 l 0,-14.85761 -9.19628,0 c -10.85029,0 -11.34036,1.56411 -12.21424,38.98382 -0.5233,22.407 -2.81746,30.9182 -8.33393,30.9182 -1.21035,0 -2.83843,-1.0319 -3.61789,-2.2932 z m 43.59351,-102.44859 0.82129,-14.0532 -19.64106,1.46697 c -10.80257,0.80686 -21.78422,1.52411 -24.40364,1.59393 -2.61941,0.0699 -6.09704,3.05576 -7.72807,6.63547 -2.45248,5.38259 -1.9619,7.91796 2.8356,14.65546 5.13194,7.20711 7.57413,8.24231 21.17079,8.97394 21.55427,1.15981 25.93406,-1.97285 26.94509,-19.27257 z m 1.10394,-32.42471 c 1.35021,-9.19942 -3.23445,-14.58335 -10.53396,-12.37047 -2.6587,0.806 -11.4881,1.69241 -19.62092,1.96981 -18.46561,0.62984 -24.19684,3.44622 -24.19684,11.89054 0,6.59646 0.12152,6.62676 26.58023,6.62676 l 26.58022,0 1.19127,-8.11664 z m -96.02981,18.19866 c 0.53488,-62.4749 1.63804,-117.82517 2.45143,-123.0006 2.57807,-16.40345 0.0712,-21.50831 -10.56251,-21.50831 -8.83924,0 -9.37732,0.52228 -9.69473,9.40989 -0.30599,8.56718 -0.99589,13.66737 -2.09123,15.45909 -0.2261,0.36967 -0.95561,20.0296 -1.62138,43.68874 -2.32628,82.6692 -4.35795,142.38456 -4.85759,142.77509 -0.27697,0.2167 -3.29308,1.25181 -6.70242,2.30061 -5.97538,1.83818 -6.16917,1.41423 -5.37707,-11.76391 0.45194,-7.51895 1.87724,-13.67105 3.16731,-13.67135 1.29009,-2.7e-4 0.90367,-1.73795 -0.85869,-3.86146 -2.37847,-2.86588 -2.43894,-5.29107 -0.23471,-9.40989 2.13007,-3.98008 2.15214,-7.0765 0.0782,-10.95192 -2.04597,-3.82294 -2.08173,-14.63365 -0.12233,-36.96739 1.52309,-17.36043 2.78175,-39.73084 2.797,-49.71203 0.0188,-12.68877 1.03863,-18.16003 3.38842,-18.1888 2.50574,-0.0307 2.44463,-0.62177 -0.24009,-2.32354 -2.65066,-1.68007 -3.15274,-6.10344 -1.90265,-16.76217 4.24254,-36.17366 4.60595,-34.31634 -7.34452,-37.53427 -9.33176,-2.51279 -10.24102,-3.40243 -6.89605,-6.7474 2.68136,-2.68136 11.44363,-4.05007 28.81529,-4.5011 33.2802,-0.86401 33.5329,-0.53515 31.52166,41.02427 -0.82294,17.005 -1.3736,33.33787 -1.22372,36.29526 0.57508,11.34501 0.34379,78.84451 -0.33163,96.78736 -0.73287,19.46878 -0.85942,51.15477 -0.27918,69.90197 0.49478,15.9856 -1.82153,22.8526 -7.70838,22.8526 -4.99896,0 -5.11565,-3.1778 -4.17033,-113.59074 z M 81.45454,1029.3634 c -3.05141,-5.7269 -0.42242,-18.2504 4.01302,-19.1164 3.65959,-0.7145 4.70494,0.9172 4.70494,7.3441 0,4.5445 0.064,9.1702 0.14196,10.2792 0.19949,2.8324 -7.45871,4.123 -8.85997,1.4931 z m 94.10665,-199.74242 c -13.73246,-1.74115 -20.63125,-7.77663 -20.77828,-18.17801 -0.0471,-3.32707 -1.08058,-6.04921 -2.29679,-6.04921 -2.46634,0 -4.07233,-36.68618 -1.76914,-40.41281 3.25262,-5.26287 9.35751,1.00094 9.35751,9.60109 0,11.11124 4.99164,13.09885 26.23168,10.44507 17.37186,-2.17045 21.94944,-6.211 22.0765,-19.48641 0.0675,-7.03865 1.08402,-8.74259 4.79044,-8.02881 3.71825,0.71607 4.70494,3.67158 4.70494,14.09318 0,11.84532 -0.82068,13.6517 -8.06561,17.75304 -4.43609,2.51125 -9.00166,4.03288 -10.14571,3.3814 -1.14406,-0.65149 -7.4501,0.8663 -14.01347,3.37288 -6.56334,2.50655 -13.79373,3.84348 -16.06751,2.97094 -3.21441,-1.23348 -4.13419,0.42347 -4.13419,7.44762 0,11.29606 2.86015,12.11017 39.28398,11.18212 19.28926,-0.4915 28.60319,0.34389 32.06619,2.87609 6.5447,4.78559 4.98387,5.74521 -12.27541,7.54707 -27.16932,2.83646 -36.15527,3.10895 -48.96513,1.48475 z"
       id="path3162"
       inkscape:connector-curvature="0" />
  </g>
</svg>
