<?xml version="1.0" encoding="UTF-8" standalone="no"?>
<!-- Created with Inkscape (http://www.inkscape.org/) -->

<svg
   xmlns:dc="http://purl.org/dc/elements/1.1/"
   xmlns:cc="http://creativecommons.org/ns#"
   xmlns:rdf="http://www.w3.org/1999/02/22-rdf-syntax-ns#"
   xmlns:svg="http://www.w3.org/2000/svg"
   xmlns="http://www.w3.org/2000/svg"
   xmlns:sodipodi="http://sodipodi.sourceforge.net/DTD/sodipodi-0.dtd"
   xmlns:inkscape="http://www.inkscape.org/namespaces/inkscape"
   width="300"
   height="300"
   id="svg2"
   version="1.1"
   inkscape:version="0.48.3.1 r9886"
   sodipodi:docname="貳-.svg">
  <defs
     id="defs4" />
  <sodipodi:namedview
     id="base"
     pagecolor="#ffffff"
     bordercolor="#666666"
     borderopacity="1.0"
     inkscape:pageopacity="0.0"
     inkscape:pageshadow="2"
     inkscape:zoom="1.979899"
     inkscape:cx="132.61065"
     inkscape:cy="180.00106"
     inkscape:document-units="px"
     inkscape:current-layer="layer1"
     showgrid="false"
     inkscape:window-width="1215"
     inkscape:window-height="1000"
     inkscape:window-x="65"
     inkscape:window-y="24"
     inkscape:window-maximized="1" />
  <metadata
     id="metadata7">
    <rdf:RDF>
      <cc:Work
         rdf:about="">
        <dc:format>image/svg+xml</dc:format>
        <dc:type
           rdf:resource="http://purl.org/dc/dcmitype/StillImage" />
        <dc:title></dc:title>
      </cc:Work>
    </rdf:RDF>
  </metadata>
  <g
     inkscape:label="Calque 1"
     inkscape:groupmode="layer"
     id="layer1"
     transform="translate(0,-752.36218)">
    <path
       style="fill:#000000"
       d="m 134.67861,1023.536 c -3.01352,-8.4464 -9.16029,-35.76071 -9.22151,-40.97744 -0.0114,-1.00959 -4.83376,-1.51926 -10.71537,-1.13259 l -10.69384,0.70304 -3.84264,20.38689 c -4.455031,23.6357 -6.226666,27.1823 -13.578293,27.1823 -5.966225,0 -5.93218,1.3671 -0.713965,-28.6694 l 3.406591,-19.60854 -7.577565,-7.15332 c -7.55724,-7.13416 -7.574701,-7.2401 -6.512016,-39.51109 0.630178,-19.13681 2.459588,-34.42683 4.477418,-37.42176 7.847507,-11.64751 49.7498,-15.96171 65.96268,-6.79143 l 8.28236,4.68466 0,32.58455 c 0,33.08733 -1.83016,40.64592 -12.00062,49.56349 -2.70178,2.36894 -4.19452,5.22969 -3.31723,6.35724 2.43866,3.13431 7.21238,26.5995 7.72871,37.9903 0.64043,14.1289 -6.87466,15.2949 -11.68471,1.8131 z m -6.91412,-52.98972 c 9.13955,-1.45197 14.78122,-9.26417 14.78122,-20.46807 0,-5.19243 -0.63414,-5.32499 -25.47305,-5.32499 -28.032793,0 -31.143317,1.70055 -27.014165,14.76885 2.957504,9.3602 18.878995,14.0152 37.705995,11.02421 z m 14.78122,-38.95132 c 0,-8.7887 -5.92302,-10.78987 -29.40819,-9.93595 -22.758957,0.82749 -27.462934,2.93466 -23.742674,10.63561 1.291397,2.6732 7.133728,3.39779 27.396144,3.39779 22.94649,0 25.75472,-0.44676 25.75472,-4.09745 z m -3.8805,-21.95742 c 0.90412,-1.87157 0.8299,-5.97906 -0.16511,-9.12774 -1.70181,-5.38602 -2.81722,-5.70087 -18.84354,-5.31886 -9.36904,0.22335 -17.03463,1.15387 -17.03463,2.06794 0,0.91408 -2.56652,2.19508 -5.703377,2.84668 -7.087624,1.47227 -7.618407,9.93994 -0.712928,11.37338 2.744752,0.56977 13.051105,1.15419 22.903025,1.29872 13.52367,0.19843 18.31534,-0.571 19.55644,-3.14012 z m 79.72955,103.63806 c -5.44271,-14.79059 -10.83733,-68.94614 -12.52331,-125.71868 -0.67545,-22.74465 -5.11727,-28.80054 -21.26334,-28.9901 -5.09742,-0.0598 -13.63631,-1.84369 -18.97539,-3.9641 -7.89559,-3.13574 -10.34368,-5.87037 -13.11643,-14.65167 -1.87492,-5.938 -4.28161,-11.48953 -5.34814,-12.33671 -1.06656,-0.84718 -21.0887,-1.59733 -44.49369,-1.66699 -28.298755,-0.0842 -43.663419,-1.00745 -45.864684,-2.756 -6.459169,-5.13074 0.220664,-6.75668 24.998738,-6.08491 40.083976,1.0867 60.986686,0.94047 63.811826,-0.44648 1.44581,-0.70977 2.62874,-12.95277 2.62874,-27.20663 0,-23.84261 0.42838,-25.91611 5.35419,-25.91611 7.8789,0 12.34286,5.561 11.27298,14.04342 -0.78305,6.20851 0.0955,7.59357 5.18272,8.16957 3.43053,0.38843 6.83364,2.84431 7.73493,5.58194 1.70807,5.18836 -2.95445,9.0847 -8.82659,7.37622 -5.82439,-1.69458 -10.39542,7.57397 -6.81431,13.81718 2.95295,5.14814 4.38847,5.38754 33.80074,5.63731 16.89422,0.14339 33.13921,0.0555 36.09995,-0.19526 5.60217,-0.47463 10.96201,4.048 8.51882,7.18814 -0.77329,0.99387 -18.01263,1.80706 -38.30964,1.80706 l -36.90365,0 0,6.36265 c 0,10.42953 5.88689,14.48552 22.91015,15.78484 28.37048,2.1654 33.22654,10.65638 33.97104,59.3997 0.18079,11.83568 1.48458,28.65478 2.89733,37.3758 1.41279,8.72103 3.39061,21.97245 4.3952,29.4476 1.0046,7.47516 3.06254,20.06505 4.57325,27.97751 3.14562,16.4757 1.50094,22.9895 -5.80463,22.9895 -3.76871,0 -6.37456,-3.426 -9.9068,-13.0249 z M 61.555554,870.36536 c -3.183412,-4.09154 2.664191,-4.8827 46.794286,-6.33123 41.30918,-1.35593 43.26543,-1.22539 42.28414,2.82212 -0.94129,3.88245 -4.70115,4.31115 -44.15272,5.03441 -27.380971,0.50196 -43.781622,-0.0548 -44.925706,-1.5253 z m 6.846221,-21.43642 c 0,-5.06256 5.834246,-5.81014 43.600625,-5.58693 29.04094,0.1717 40.02075,1.76477 35.71804,5.18259 -0.60488,0.48047 -18.69902,1.56433 -40.20921,2.40857 -34.381916,1.34944 -39.109455,1.10716 -39.109455,-2.00423 z M 190.07383,796.00508 c -2.95825,-2.34985 -2.23524,-9.81586 0.95058,-9.81586 1.56844,0 2.8517,-5.0967 2.8517,-11.326 0,-9.29971 0.89762,-11.326 5.0174,-11.326 7.97455,0 12.75749,8.29226 10.60908,18.39325 -2.56732,12.07063 -12.70561,19.41504 -19.42876,14.07461 z"
       id="path3041"
       inkscape:connector-curvature="0" />
  </g>
</svg>
