<?xml version="1.0" encoding="UTF-8" standalone="no"?>
<!-- Created with Inkscape (http://www.inkscape.org/) -->

<svg
   xmlns:dc="http://purl.org/dc/elements/1.1/"
   xmlns:cc="http://creativecommons.org/ns#"
   xmlns:rdf="http://www.w3.org/1999/02/22-rdf-syntax-ns#"
   xmlns:svg="http://www.w3.org/2000/svg"
   xmlns="http://www.w3.org/2000/svg"
   xmlns:sodipodi="http://sodipodi.sourceforge.net/DTD/sodipodi-0.dtd"
   xmlns:inkscape="http://www.inkscape.org/namespaces/inkscape"
   width="300"
   height="300"
   id="svg2"
   version="1.1"
   inkscape:version="0.48.4 r9939"
   sodipodi:docname="dessin.svg">
  <defs
     id="defs4" />
  <sodipodi:namedview
     id="base"
     pagecolor="#ffffff"
     bordercolor="#666666"
     borderopacity="1.0"
     inkscape:pageopacity="0.0"
     inkscape:pageshadow="2"
     inkscape:zoom="1.979899"
     inkscape:cx="73.020464"
     inkscape:cy="128.94188"
     inkscape:document-units="px"
     inkscape:current-layer="layer1"
     showgrid="false"
     inkscape:window-width="1215"
     inkscape:window-height="1000"
     inkscape:window-x="65"
     inkscape:window-y="24"
     inkscape:window-maximized="1" />
  <metadata
     id="metadata7">
    <rdf:RDF>
      <cc:Work
         rdf:about="">
        <dc:format>image/svg+xml</dc:format>
        <dc:type
           rdf:resource="http://purl.org/dc/dcmitype/StillImage" />
        <dc:title />
      </cc:Work>
    </rdf:RDF>
  </metadata>
  <g
     inkscape:label="Calque 1"
     inkscape:groupmode="layer"
     id="layer1"
     transform="translate(0,-752.36218)">
    <path
       style="fill:#000000"
       d="m 222.86649,1021.3779 c -0.13627,-5.073 -0.14129,-36.57521 -0.011,-70.00505 0.13109,-33.5971 -0.94843,-63.508 -2.41382,-66.87765 -1.61596,-3.71591 -5.65206,-6.7271 -10.337,-7.71208 -22.4762,-4.72549 -36.65947,-16.70634 -36.65947,-30.96688 0,-5.90945 -0.64984,-6.15089 -16.55631,-6.15089 l -16.55632,0 -0.15508,9.04663 c -0.67366,39.28112 -1.52564,45.83179 -6.81331,52.3859 -2.99683,3.71459 -6.98263,9.05279 -8.85734,11.86268 -4.3859,6.57376 -4.28535,42.50226 0.21883,78.19976 2.88236,22.84408 2.82649,27.69898 -0.34523,30.00028 -5.08955,3.6929 -8.26676,-0.9658 -10.25554,-15.0373 -0.84387,-5.9708 -2.80301,-14.33568 -4.35365,-18.58863 -1.55063,-4.25297 -2.61841,-22.70809 -2.37282,-41.01137 0.42379,-31.58406 0.16529,-33.31616 -5.07512,-34.01416 -4.780085,-0.63666 -5.921561,1.3072 -8.499766,14.47461 -1.637999,8.36552 -3.163029,27.41703 -3.388994,42.33671 -0.421028,27.80006 -3.690266,41.26334 -11.72582,48.28854 -6.308399,5.5152 -11.351592,1.0306 -7.756001,-6.897 4.469212,-9.8536 8.403656,-31.35398 9.889723,-54.04362 0.782093,-11.94154 2.180634,-26.59708 3.107869,-32.56786 1.607315,-10.35003 1.29614,-11.00301 -6.676721,-14.01131 -5.405803,-2.03972 -9.375263,-5.87804 -11.226785,-10.85595 -3.954504,-10.63194 -4.345425,-98.1062 -0.483747,-108.24946 1.817276,-4.77342 6.054949,-9.22928 10.48622,-11.02618 9.464281,-3.83782 39.514552,-3.78661 45.005592,0.0767 7.23862,5.09286 12.69939,14.69627 13.33121,23.44451 0.33539,4.64393 1.09473,10.61471 1.68737,13.26839 0.59265,2.65367 1.17257,8.22512 1.28868,12.38099 l 0.2111,7.55613 10.34769,-3.22849 c 5.69124,-1.77565 13.18054,-3.27613 16.6429,-3.33437 7.79387,-0.13099 10.03706,-4.81996 7.64312,-15.97622 l -1.8447,-8.59668 -14.14012,0.65613 c -8.78285,0.40753 -14.53916,-0.3904 -15.19332,-2.10607 -1.19622,-3.13749 10.0932,-5.86956 42.07429,-10.18207 24.50956,-3.30504 28.97356,-5.36853 28.97356,-13.39316 0,-4.36331 7.5761,-10.60505 9.5402,-7.8599 4.25053,5.94089 7.46815,23.71938 6.47195,35.75996 -1.47046,17.77255 -6.62515,22.84004 -25.78892,25.35246 -10.99574,1.4416 -12.29432,2.28603 -12.26062,7.97264 0.0599,10.10751 3.04357,17.21623 7.22605,17.21623 10.79746,0 25.42629,6.35978 30.64801,13.32402 4.75644,6.34368 5.98642,13.16714 7.63421,42.35213 2.43038,43.04515 2.01821,94.71632 -0.84504,105.94232 -1.28443,5.0359 -4.0496,8.7488 -6.86908,9.2235 -3.75651,0.6325 -4.76978,-1.0869 -4.96717,-8.4289 z M 119.28417,897.49848 c 2.10845,-1.95436 4.48896,-10.37777 5.29004,-18.71871 l 1.45655,-15.16529 -25.27173,0.6907 -25.271761,0.69073 -0.823567,13.75458 c -1.125747,18.80159 4.14413,23.5245 25.455038,22.81314 9.2608,-0.30913 16.84989,-1.91886 19.16543,-4.06515 z m 3.94673,-56.0238 -0.83406,-12.66528 -11.72739,0.23184 c -6.45007,0.12761 -18.059554,0.39897 -25.798832,0.6031 l -14.071437,0.37116 1.481956,11.45906 c 0.815096,6.30248 1.559495,11.73046 1.654225,12.06216 0.09465,0.33172 11.412629,0.60311 25.150897,0.60311 l 24.978681,0 -0.83404,-12.66527 z m 79.2443,-18.13019 c 3.91847,-2.46666 9.6017,-14.30917 9.6017,-20.00766 0,-4.21009 -1.31077,-4.5674 -11.7274,-3.1967 -15.41464,2.02838 -16.79293,3.46719 -14.53147,15.16953 1.55033,8.02255 3.03166,9.87414 7.87556,9.84415 3.28133,-0.0192 7.23307,-0.8345 8.78161,-1.80932 z m -82.52583,-8.14017 c 3.31347,-2.28508 3.30128,-6.82951 -0.0455,-16.94772 -2.75078,-8.31643 -14.79026,-12.75931 -28.504161,-10.51871 -14.711449,2.40355 -17.292165,5.13407 -17.292165,18.29594 0,11.33274 0.217164,11.63302 8.968006,12.40295 12.55885,1.10496 33.20933,-0.70533 36.87379,-3.23246 z m 39.69918,148.19609 c -11.67087,-3.75171 -12.83217,-7.05325 -13.42733,-38.17366 -0.4816,-25.18224 0.17301,-30.89448 3.91556,-34.1664 3.80696,-3.32833 4.87087,-3.4081 6.96055,-0.52203 1.35668,1.87373 2.48572,6.27601 2.50898,9.78287 0.0491,7.42216 3.57138,9.10332 15.76431,7.52439 8.11818,-1.0513 8.89033,-1.94028 9.65785,-11.11939 0.59264,-7.08716 2.18732,-10.20103 5.50587,-10.75108 6.15909,-1.02088 7.95787,7.76759 8.61257,42.07858 0.62392,32.69778 -2.13119,37.17641 -22.67986,36.86774 -6.97366,-0.10467 -14.54201,-0.78921 -16.8185,-1.52102 z m 25.82276,-16.98487 c 0.9407,-4.97565 1.72403,-12.99994 1.74073,-17.83173 0.0248,-7.30258 -1.10146,-9.03345 -6.67659,-10.25679 -3.68883,-0.80942 -9.89745,-0.41118 -13.79692,0.88498 -6.41514,2.13237 -7.08998,3.60646 -7.08998,15.48746 0,18.49156 1.50199,20.76269 13.73113,20.76269 9.85248,0 10.4684,-0.46079 12.09163,-9.04661 z"
       id="path3173"
       inkscape:connector-curvature="0" />
  </g>
</svg>
