<?xml version="1.0" encoding="UTF-8" standalone="no"?>
<!-- Created with Inkscape (http://www.inkscape.org/) -->

<svg
   xmlns:dc="http://purl.org/dc/elements/1.1/"
   xmlns:cc="http://creativecommons.org/ns#"
   xmlns:rdf="http://www.w3.org/1999/02/22-rdf-syntax-ns#"
   xmlns:svg="http://www.w3.org/2000/svg"
   xmlns="http://www.w3.org/2000/svg"
   xmlns:sodipodi="http://sodipodi.sourceforge.net/DTD/sodipodi-0.dtd"
   xmlns:inkscape="http://www.inkscape.org/namespaces/inkscape"
   width="300"
   height="300"
   id="svg2"
   version="1.1"
   inkscape:version="0.48.4 r9939"
   sodipodi:docname="dessin.svg">
  <defs
     id="defs4" />
  <sodipodi:namedview
     id="base"
     pagecolor="#ffffff"
     bordercolor="#666666"
     borderopacity="1.0"
     inkscape:pageopacity="0.0"
     inkscape:pageshadow="2"
     inkscape:zoom="1.979899"
     inkscape:cx="66.959549"
     inkscape:cy="133.99264"
     inkscape:document-units="px"
     inkscape:current-layer="layer1"
     showgrid="false"
     inkscape:window-width="1215"
     inkscape:window-height="1000"
     inkscape:window-x="65"
     inkscape:window-y="24"
     inkscape:window-maximized="1" />
  <metadata
     id="metadata7">
    <rdf:RDF>
      <cc:Work
         rdf:about="">
        <dc:format>image/svg+xml</dc:format>
        <dc:type
           rdf:resource="http://purl.org/dc/dcmitype/StillImage" />
        <dc:title />
      </cc:Work>
    </rdf:RDF>
  </metadata>
  <g
     inkscape:label="Calque 1"
     inkscape:groupmode="layer"
     id="layer1"
     transform="translate(0,-752.36218)">
    <path
       style="fill:#000000"
       d="m 167.65343,1026.1379 c -4.21491,-5.9592 -4.9237,-8.4443 -12.13513,-42.54804 -4.58266,-21.67186 -7.63059,-25.25782 -17.36583,-20.43122 -3.64808,1.80867 -4.85301,4.60919 -4.85301,11.27943 0,4.88036 -1.00984,13.036 -2.24407,18.12364 -1.23425,5.08762 -2.86558,11.99289 -3.62516,15.34489 -1.6917,7.4655 -14.70333,19.4445 -19.33304,17.7987 -3.4769,-1.236 -4.78769,-7.3468 -1.57592,-7.3468 2.78585,0 7.12993,-10.448 12.38348,-29.78382 6.23435,-22.9455 6.19781,-27.08756 -0.24662,-27.97576 -2.81338,-0.38774 -8.2863,-4.34452 -12.1621,-8.79283 -5.96945,-6.85126 -7.05992,-10.05578 -7.13213,-20.95902 -0.34792,-52.51719 -0.007,-53.02195 37.73981,-55.8382 29.26146,-2.18318 39.98455,-0.2938 48.95468,8.62571 4.66514,4.63881 5.03034,7.22486 4.622,32.72831 -0.49233,30.74824 -3.0017,37.08455 -16.95213,42.80504 -3.92881,1.61104 -7.75312,4.70911 -8.49847,6.8846 -2.25998,6.59637 3.70897,33.46708 8.94794,40.28127 0.97918,1.2736 2.4656,6.2855 3.30313,11.1376 1.12765,6.5329 0.57819,9.548 -2.11775,11.6208 -3.04919,2.3443 -4.30144,1.8644 -7.70968,-2.9543 z m 4.5619,-79.25449 c 1.93024,-2.72908 3.87695,-7.37135 4.32599,-10.31611 0.79244,-5.19676 0.30894,-5.37318 -16.44966,-6.00233 -9.49634,-0.35653 -17.26609,-1.59752 -17.26609,-2.75777 0,-1.16025 -1.60753,-2.10955 -3.57228,-2.10955 -1.96477,0 -3.30438,1.24099 -2.97692,2.75776 0.40053,1.85525 -2.67082,2.75777 -9.38484,2.75777 -11.91542,0 -15.08162,2.42134 -13.41909,10.2622 1.78398,8.4136 13.54237,11.97209 36.62819,11.08497 16.20135,-0.62257 19.05854,-1.35602 22.1147,-5.67694 z m 4.93526,-26.82456 c 2.0787,-1.92566 3.77946,-5.4489 3.77946,-7.82941 0,-4.13269 -1.58641,-4.29994 -35.12756,-3.70327 l -35.12757,0.62488 0,5.51553 c 0,5.20064 0.8838,5.58059 15.47995,6.65529 35.73237,2.63088 47.0962,2.34944 50.99572,-1.26302 z m -0.9836,-27.18672 c 0,-9.1725 -8.43855,-11.75806 -33.45408,-10.25018 -26.55341,1.60057 -28.46569,2.28116 -28.46569,10.13119 l 0,6.46996 30.95988,0 30.95989,0 0,-6.35097 z M 59.623502,882.8456 c -2.296176,-2.56307 -0.888739,-4.18507 7.657619,-8.82485 5.758967,-3.12653 11.282949,-5.68462 12.275523,-5.68462 0.99255,0 4.649317,-1.81225 8.126113,-4.02721 3.476795,-2.215 10.072373,-5.3109 14.656823,-6.8798 10.87415,-3.72142 28.81326,-10.77225 33.34141,-13.1046 4.10921,-2.11657 6.80963,-13.9058 7.00734,-30.59212 0.13288,-11.20789 -0.0745,-11.58092 -6.41196,-11.53026 -3.60206,0.0289 -12.97934,2.57989 -20.83839,5.6691 -7.85904,3.0892 -19.11177,7.16877 -25.006056,9.06572 -5.894287,1.89694 -11.734989,4.30983 -12.979338,5.36195 -4.74746,4.01414 -10.83596,2.04821 -10.83596,-3.49885 0,-4.19346 1.742494,-5.89624 7.739971,-7.56355 12.907797,-3.58839 60.492313,-19.38098 63.382443,-21.03569 1.48776,-0.85179 2.72141,-4.22032 2.74146,-7.4856 0.0191,-3.26529 1.01009,-7.36222 2.20005,-9.10434 3.49032,-5.10985 9.67115,1.29024 9.67115,10.0142 0,6.28503 0.99395,7.6145 6.5492,8.75977 12.77086,2.63286 16.17398,3.86164 40.16024,14.50085 13.33547,5.91501 24.89591,12.32278 25.68987,14.23946 3.41735,8.24991 -6.23437,10.12454 -15.89245,3.08674 -3.33038,-2.42684 -7.09009,-4.41242 -8.35492,-4.41242 -1.26483,0 -10.20515,-4.35763 -19.86737,-9.6836 -9.66222,-5.32597 -20.0174,-10.36815 -23.01152,-11.20484 l -5.44381,-1.52122 0.68076,22.60826 c 0.4467,14.83552 1.64109,22.90321 3.47406,23.46616 1.5363,0.47181 3.14384,-1.25909 3.5723,-3.84651 0.48099,-2.90471 5.04389,-6.93934 11.92753,-10.54661 l 11.14851,-5.84222 10.28526,5.34305 c 14.50325,7.53428 21.96587,14.39946 20.22387,18.6048 -2.41939,5.84075 -9.41939,3.98533 -20.08887,-5.32473 -9.14047,-7.9759 -10.64353,-8.56549 -15.467,-6.06708 -2.93846,1.52205 -5.87851,3.33615 -6.53342,4.03137 -0.65492,0.69521 -3.33415,2.07659 -5.95383,3.06974 -4.00878,1.51977 -2.87739,2.39421 7.14459,5.52186 15.36956,4.79653 19.4229,6.25216 30.95989,11.11825 5.23936,2.20987 12.99191,5.33147 17.22788,6.93686 8.30178,3.1463 10.80696,6.56831 8.63941,11.80107 -1.87283,4.52119 -8.00492,4.07472 -15.15041,-1.10311 -3.27461,-2.37287 -7.82928,-4.33638 -10.1215,-4.36336 -2.29222,-0.0269 -4.16768,-0.84242 -4.16768,-1.81207 0,-0.96965 -4.01883,-3.08885 -8.93073,-4.70934 -4.91191,-1.62048 -13.2175,-4.71821 -18.45686,-6.88385 -18.35971,-7.58884 -19.83717,-7.5482 -20.6793,0.56857 -0.57771,5.56831 -1.8704,7.2721 -5.51753,7.2721 -3.42568,0 -4.97466,-1.70351 -5.51662,-6.06708 -1.12906,-9.09018 -6.79179,-8.04343 -39.36211,7.27615 -5.0357,2.36855 -10.088998,4.30646 -11.229561,4.30646 -1.140586,0 -7.143398,2.97838 -13.339614,6.61864 -12.926586,7.59431 -13.530495,7.71554 -17.326463,3.4784 z m 16.519243,-40.58616 c 0,-6.96161 23.808675,-22.45996 34.503175,-22.45996 6.97154,0 21.86649,8.63844 23.35442,13.54459 3.01944,9.95604 -6.21263,9.89656 -15.9812,-0.10298 -4.37061,-4.47393 -13.29803,-6.40517 -13.29803,-2.8767 0,1.78219 -23.89373,15.90963 -26.90796,15.90963 -0.918723,0 -1.670405,-1.80656 -1.670405,-4.01457 z"
       id="path3080"
       inkscape:connector-curvature="0" />
  </g>
</svg>
