<?xml version="1.0" encoding="UTF-8" standalone="no"?>
<!-- Created with Inkscape (http://www.inkscape.org/) -->

<svg
   xmlns:dc="http://purl.org/dc/elements/1.1/"
   xmlns:cc="http://creativecommons.org/ns#"
   xmlns:rdf="http://www.w3.org/1999/02/22-rdf-syntax-ns#"
   xmlns:svg="http://www.w3.org/2000/svg"
   xmlns="http://www.w3.org/2000/svg"
   xmlns:sodipodi="http://sodipodi.sourceforge.net/DTD/sodipodi-0.dtd"
   xmlns:inkscape="http://www.inkscape.org/namespaces/inkscape"
   width="300"
   height="300"
   id="svg2"
   version="1.1"
   inkscape:version="0.48.4 r9939"
   sodipodi:docname="image-seal.svg">
  <defs
     id="defs4" />
  <sodipodi:namedview
     id="base"
     pagecolor="#ffffff"
     bordercolor="#666666"
     borderopacity="1.0"
     inkscape:pageopacity="0.0"
     inkscape:pageshadow="2"
     inkscape:zoom="2.7366667"
     inkscape:cx="150"
     inkscape:cy="150"
     inkscape:document-units="px"
     inkscape:current-layer="layer1"
     showgrid="false"
     inkscape:window-width="1215"
     inkscape:window-height="1000"
     inkscape:window-x="65"
     inkscape:window-y="24"
     inkscape:window-maximized="1" />
  <metadata
     id="metadata7">
    <rdf:RDF>
      <cc:Work
         rdf:about="">
        <dc:format>image/svg+xml</dc:format>
        <dc:type
           rdf:resource="http://purl.org/dc/dcmitype/StillImage" />
        <dc:title />
      </cc:Work>
    </rdf:RDF>
  </metadata>
  <g
     inkscape:label="Calque 1"
     inkscape:groupmode="layer"
     id="layer1"
     transform="translate(0,-752.36218)">
    <path
       style="fill:#000000"
       d="m 147.91628,1044.7729 c -1.91413,-3.0971 0.57824,-7.7679 4.14501,-7.7679 1.39961,0 5.11769,-2.4673 8.26238,-5.4829 3.14469,-3.0156 9.21315,-7.0069 13.48547,-8.8695 9.29069,-4.0503 45.3125,-38.93701 45.3125,-43.88451 0,-1.91092 0.87388,-3.86278 1.94196,-4.3375 1.06808,-0.47469 4.70761,-6.32145 8.08782,-12.99277 6.24755,-12.33044 6.33259,-24.08308 0.24002,-33.18281 -2.24291,-3.34999 -3.11543,-3.17203 -6.3468,1.29464 -4.80831,6.64639 -5.56515,7.60553 -19.40968,24.59821 -17.8611,21.92261 -54.02013,51.70554 -62.83927,51.75854 -7.07498,0.043 -5.38691,-8.70772 2.58929,-13.4217 11.73446,-6.93517 49.53397,-43.41688 58.22666,-56.1968 4.45813,-6.55426 8.76518,-12.49941 9.57119,-13.21146 2.63284,-2.32583 7.93875,-12.80936 7.93875,-15.68553 0,-3.3045 -6.4598,-10.21513 -9.52486,-10.18965 -1.16979,0.0104 -4.75088,3.87205 -7.95794,8.58292 -4.79272,7.04003 -30.75533,33.9568 -42.93217,44.50995 -9.25188,8.01821 -22.44216,10.08472 -22.44216,3.51596 0,-3.30362 6.5956,-10.01937 9.84013,-10.01937 1.34319,0 9.87396,-7.30189 18.95728,-16.22643 35.37881,-34.76041 39.33332,-41.20545 31.10423,-50.69368 l -4.90188,-5.6519 -8.43812,7.88238 c -13.46661,12.57971 -38.03259,28.43963 -44.0511,28.43963 -6.24522,0 -1.56169,-9.81528 7.48148,-15.67898 13.0187,-8.44148 34.02583,-26.02928 34.02583,-28.48742 0,-1.0576 -4.13372,-6.0566 -9.18604,-11.10892 l -9.18603,-9.18603 0.0479,-29.81418 c 0.0559,-34.85746 3.29994,-45.42762 15.86575,-51.69625 4.63798,-2.31374 14.41486,-4.20679 21.72643,-4.20679 10.85804,0 14.9326,1.36818 22.23842,7.46734 l 8.94466,7.46735 -0.70092,33.20075 c -0.79131,37.4811 -3.82989,46.31484 -18.11599,52.66667 -7.99077,3.55281 -11.16559,7.94789 -5.74127,7.94789 1.42411,0 2.59071,1.45647 2.59247,3.23661 0.002,1.78013 3.05064,6.73214 6.77536,11.00446 7.92088,9.08544 16.97499,22.97391 27.61649,42.36211 5.81168,10.5885 7.27698,15.98281 6.1792,22.74768 -1.44858,8.92656 -13.3416,37.11519 -16.73929,39.67513 -1.00431,0.7567 -5.83118,6.6191 -10.72638,13.02758 -4.89522,6.40848 -11.76711,13.98218 -15.2709,16.83038 -27.2439,22.1465 -34.22376,27.1875 -37.64413,27.1875 -2.14817,0 -4.62589,1.1652 -5.50604,2.5893 -0.88015,1.4241 -4.37568,2.5893 -7.76785,2.5893 -3.39217,0 -6.88771,-1.1652 -7.76786,-2.5893 z m 59.93645,-199.88088 c 5.74578,-2.76414 8.67962,-11.83337 8.67962,-26.83082 0,-11.06817 -2.43781,-11.63677 -39.48661,-9.21012 -3.64325,0.23873 -4.52431,2.70702 -4.49588,12.59589 0.0484,16.84191 1.90396,22.39745 8.53921,25.56666 6.23298,2.97708 18.12458,2.03443 26.76366,-2.12161 z m 10.3348,-49.99103 c 2.04822,-5.33765 -0.82109,-15.62056 -5.72794,-20.52741 -4.35267,-4.3527 -23.25588,-5.5381 -29.11059,-1.82553 -4.54712,2.8834 -10.83451,15.27891 -10.83451,21.36008 0,4.40238 2.17257,4.88259 22.09021,4.88259 17.26173,0 22.41646,-0.85022 23.58283,-3.88973 z M 80.283462,1028.0647 c -0.841059,-2.1917 -0.722385,-8.9417 0.263724,-15 0.986109,-6.0583 2.347289,-33.11372 3.024845,-60.12321 1.140386,-45.45931 0.850726,-49.78811 -3.898402,-58.25893 -4.831077,-8.61701 -6.69668,-20.72161 -9.391741,-60.93648 -1.578255,-23.55025 3.70873,-58.3887 9.921806,-65.37947 6.24334,-7.02483 25.130346,-8.00024 39.406806,-2.03515 11.44482,4.78195 15.49844,14.22505 17.82398,41.52176 2.39888,28.15773 2.40211,30.56913 0.0739,55.18045 -1.66709,17.62239 -3.37087,23.36279 -9.40767,31.69633 l -7.37189,10.17659 0,60.87064 c 0,52.93547 -0.51691,60.87067 -3.96519,60.87067 -2.18086,0 -4.57381,-1.586 -5.31767,-3.5245 -0.74385,-1.9385 -1.59597,-28.4463 -1.89358,-58.90627 -0.52974,-54.21723 -0.6563,-55.39829 -6.01861,-56.16782 -7.596277,-1.09014 -8.34095,3.58137 -8.793107,55.16105 -0.337185,38.46434 -0.898076,54.40844 -2.160112,61.40444 -0.183632,1.018 -2.681526,3.1073 -5.550872,4.6429 -4.102914,2.1959 -5.543541,1.9411 -6.746187,-1.193 z M 117.65127,886.72558 c 3.11674,-2.9037 5.76147,-6.10794 5.87716,-7.12053 2.62013,-22.93196 0.59563,-26.43933 -15.26104,-26.43933 -17.310845,0 -23.788609,5.20014 -23.788609,19.09671 0,9.86466 0.89261,11.47942 8.415179,15.22329 11.44785,5.69741 18.0433,5.4949 24.75731,-0.76014 z m 2.4302,-43.63961 c 5.13748,-0.24469 5.82589,-1.65422 5.82589,-11.92918 l 0,-11.65178 -12.62277,0 c -6.94252,0 -16.263959,0.72823 -20.714291,1.6183 -7.545205,1.50904 -8.091518,2.36415 -8.091518,12.66492 l 0,11.04665 14.88839,-0.73578 c 8.188629,-0.40465 17.510059,-0.86057 20.714299,-1.01313 z m -5.33723,-33.90274 c 4.73995,-0.0295 5.95871,-1.97899 7.44855,-11.914 2.37165,-15.81523 -2.13829,-20.48744 -19.77592,-20.48744 -15.459293,0 -18.263617,3.12778 -17.318004,19.31545 0.574021,9.82652 1.639331,11.82258 7.147772,13.39282 3.560268,1.0149 8.803582,1.36901 11.651792,0.78689 2.84822,-0.5821 7.72883,-1.07427 10.84581,-1.09372 z"
       id="path3240"
       inkscape:connector-curvature="0" />
  </g>
</svg>
