<?xml version="1.0" encoding="UTF-8" standalone="no"?>
<svg
   xmlns:dc="http://purl.org/dc/elements/1.1/"
   xmlns:cc="http://creativecommons.org/ns#"
   xmlns:rdf="http://www.w3.org/1999/02/22-rdf-syntax-ns#"
   xmlns:svg="http://www.w3.org/2000/svg"
   xmlns="http://www.w3.org/2000/svg"
   viewBox="0 0 300 300"
   height="300"
   width="300"
   id="svg3759"
   version="1.1">
  <metadata
     id="metadata3765">
    <rdf:RDF>
      <cc:Work
         rdf:about="">
        <dc:format>image/svg+xml</dc:format>
        <dc:type
           rdf:resource="http://purl.org/dc/dcmitype/StillImage" />
        <dc:title></dc:title>
      </cc:Work>
    </rdf:RDF>
  </metadata>
  <defs
     id="defs3763" />
  <path
     id="path3769"
     d="m 130.92432,283.17563 c -1.81866,-11.59648 0.46216,-23.33811 1.52129,-33.53938 -19.2563,-6.66062 -25.54969,-19.63689 -25.648,-37.20437 0,-12.61119 0.94772,-18.28691 4.26132,-25.52037 7.19702,-11.39327 14.37757,-12.64942 22.76992,-15.36221 -6.32203,-4.03536 -11.91571,-7.25861 -20.72677,-12.48339 -18.792453,14.5515 -23.229163,19.04515 -31.255199,19.42929 -0.405364,4.63991 -0.625387,11.85905 -0.689234,21.55424 -0.06385,9.69517 -0.358148,19.01055 -0.654019,20.70084 -1.811451,6.56166 -7.908553,5.48923 -9.422487,1.59287 -1.158987,-3.00384 -1.260843,-5.698 -1.195645,-31.62597 0.07357,-29.24846 0.456739,-34.70881 3.116018,-44.40274 3.078753,-11.22302 5.607103,-14.64831 13.449121,-18.22024 9.09463,-4.14249 11.766671,-4.35683 57.675995,-4.62641 42.61473,-0.25025 47.82258,-0.0338 63.5976,2.64413 19.25192,4.58832 19.35491,18.55187 21.13109,30.38698 3.24653,21.83072 3.10816,64.17536 -0.22195,67.91809 -4.49983,4.41068 -7.906,-1.58082 -8.94127,-6.04868 -1.10425,-4.87342 -1.2551,-9.10162 -1.2703,-35.60083 -0.015,-26.21631 -0.16681,-30.5603 -1.1842,-33.89119 -2.66652,-6.56288 -6.54882,-9.72813 -12.16585,-12.70796 -7.20953,4.6205 -14.20711,8.51063 -21.29153,12.80147 17.12213,12.09163 25.66506,17.52036 27.46717,22.6875 0.84952,2.83549 0.81218,3.06491 -0.69811,4.28786 -4.00923,2.32541 -22.61745,-10.37262 -38.16136,-20.29602 -21.14363,13.36332 -21.86251,15.4177 -27.5773,9.77819 0,1.87098 -1.20551,5.77323 -5.04913,5.99705 41.41524,0.11711 48.82008,2.88272 53.88629,20.32972 2.21464,13.09651 1.26754,26.46686 -1.69677,37.71276 -2.15343,8.94689 -9.06773,15.65449 -15.64586,20.31814 1.21487,8.26805 7.80622,34.28565 0.22692,34.60037 -3.27934,0 -4.36335,-0.97655 -6.66937,-6.00827 -2.57968,-9.26564 -5.68901,-17.98249 -5.68901,-27.62015 -7.40714,0.0609 -11.74028,-0.0208 -19.51138,0.0349 -1.15365,10.22472 -1.3576,27.72159 -8.26554,32.88121 -3.12847,1.90738 -4.60645,1.77303 -5.47249,-0.49744 z m 37.99783,-46.71812 c 7.89572,-2.27876 13.06765,-7.51839 13.06765,-10.75003 -22.42345,-0.24447 -35.25144,0.0477 -61.90377,0.26488 3.06392,7.23143 7.59136,9.84272 12.6839,10.99688 6.42522,1.42941 30.61263,1.08704 36.15222,-0.51173 z m -4.98323,-21.89124 h 19.59061 v -10.14683 c -23.74784,-0.58701 -41.9979,-0.91159 -64.28888,-0.91323 v 11.9699 c 18.61837,-0.62096 30.75169,-0.89972 44.69827,-0.90945 z m 18.33531,-22.14497 c -1.63192,-4.5087 -5.9073,-7.78707 -9.72384,-9.04673 -6.45514,-2.60287 -35.63094,-4.10395 -46.21927,2.39106 -3.21341,2.06974 -4.21749,3.7682 -5.17936,6.89852 20.98191,-0.40828 43.92697,-0.72592 61.12247,-0.24285 z m -79.03871,-39.24842 c -5.656307,-3.18338 -14.019866,-8.334 -17.231583,-10.02941 -1.332513,1.33252 -3.342448,11.91284 -3.540354,18.63648 l -0.206311,7.00924 c 8.27575,-6.22068 14.611381,-11.0201 20.978248,-15.61631 z m 59.90216,-4.33284 c -6.30893,-4.65231 -12.49098,-9.65295 -17.16195,-14.30406 -7.70798,5.57577 -14.82322,10.76747 -22.59061,16.68614 3.67312,2.10067 15.96577,9.02709 20.56873,11.48264 4.5955,-5.66708 12.3381,-9.60722 19.18383,-13.86472 z m -49.20695,-3.94255 c 4.42998,-3.0808 8.57487,-5.85434 12.99047,-9.48256 -6.62093,0.0423 -18.3676,0.15188 -28.566106,0.60042 5.905996,3.49353 10.255506,6.06396 15.575636,8.88214 z m 71.32699,-9.48256 c -7.68545,-0.76683 -15.09181,-0.9253 -22.7252,-1.03689 4.89941,3.30646 7.2034,5.07128 11.39555,7.96178 5.5447,-3.2258 7.04389,-4.22509 11.32965,-6.92489 z M 84.34922,105.21859 C 73.569258,93.229142 68.809713,82.243831 68.787568,69.301402 69.216894,64.905448 72.590643,33.586438 80.224004,37.61642 c 6.59081,4.633944 4.003646,12.286334 2.394024,18.301513 -2.511563,9.282171 -2.72326,16.308863 -0.726555,24.115898 2.880112,11.261127 8.070226,18.583052 16.015546,22.593829 11.391391,5.75036 31.624141,3.32151 54.374671,-6.527469 20.87384,-9.03652 42.31557,-10.799147 64.18378,-5.276265 9.27616,2.342732 12.22339,4.166886 13.47346,8.339245 1.19316,8.644479 -17.52199,3.114539 -20.53349,2.357229 -30.29651,-8.906348 -54.55577,8.49723 -80.49125,13.75897 -15.54231,2.80452 -33.397049,1.78569 -44.56497,-10.06078 z m 37.31091,-12.588857 c -12.13321,-3.898259 -19.17295,-14.677214 -20.17941,-25.44174 -0.78915,-8.961874 2.28389,-17.626053 12.74116,-35.922637 2.81553,-4.741695 10.52403,-15.058954 14.6954,-9.755945 2.85732,3.632492 1.48315,8.200571 -4.84008,16.08965 -10.73793,15.232436 -14.96777,29.016815 -9.37229,37.015687 11.75623,12.44662 16.51447,5.864398 22.62768,-3.544565 7.70382,-13.41521 12.34787,-28.823496 19.26998,-41.468685 3.53082,-5.898311 10.63271,-15.63349 16.91422,-14.512553 5.11771,0.960088 4.63769,6.463691 -1.15964,13.295889 -8.37535,11.086367 -13.58377,21.452385 -17.08515,33.373924 8.9569,7.817353 13.59153,8.106248 20.53748,0.84643 7.25152,-7.330052 24.36015,-33.782719 31.14483,-33.992743 2.93644,0 3.50686,0.871226 3.52559,5.384945 0.0147,3.56652 -1.88233,6.537997 -14.74697,23.09822 -12.72529,16.380863 -14.83053,18.594969 -19.80751,20.831758 -12.21421,4.43682 -17.65449,-0.08458 -25.78911,-4.326961 -7.38801,11.078867 -18.8617,21.115023 -28.47622,19.029326 z"
     style="fill:#000000;stroke-width:0.69127822" />
</svg>
