<?xml version="1.0" encoding="UTF-8" standalone="no"?>
<!-- Created with Inkscape (http://www.inkscape.org/) -->

<svg
   xmlns:dc="http://purl.org/dc/elements/1.1/"
   xmlns:cc="http://creativecommons.org/ns#"
   xmlns:rdf="http://www.w3.org/1999/02/22-rdf-syntax-ns#"
   xmlns:svg="http://www.w3.org/2000/svg"
   xmlns="http://www.w3.org/2000/svg"
   xmlns:sodipodi="http://sodipodi.sourceforge.net/DTD/sodipodi-0.dtd"
   xmlns:inkscape="http://www.inkscape.org/namespaces/inkscape"
   width="300"
   height="300"
   id="svg2"
   version="1.1"
   inkscape:version="0.48.4 r9939"
   sodipodi:docname="image-seal.svg">
  <defs
     id="defs4" />
  <sodipodi:namedview
     id="base"
     pagecolor="#ffffff"
     bordercolor="#666666"
     borderopacity="1.0"
     inkscape:pageopacity="0.0"
     inkscape:pageshadow="2"
     inkscape:zoom="2.0018437"
     inkscape:cx="145.03351"
     inkscape:cy="130.6666"
     inkscape:document-units="px"
     inkscape:current-layer="layer1"
     showgrid="false"
     inkscape:window-width="1215"
     inkscape:window-height="1000"
     inkscape:window-x="65"
     inkscape:window-y="24"
     inkscape:window-maximized="1"
     fit-margin-top="10"
     fit-margin-left="10"
     fit-margin-right="10"
     fit-margin-bottom="10" />
  <metadata
     id="metadata7">
    <rdf:RDF>
      <cc:Work
         rdf:about="">
        <dc:format>image/svg+xml</dc:format>
        <dc:type
           rdf:resource="http://purl.org/dc/dcmitype/StillImage" />
        <dc:title />
      </cc:Work>
    </rdf:RDF>
  </metadata>
  <g
     inkscape:label="Calque 1"
     inkscape:groupmode="layer"
     id="layer1"
     transform="translate(0,-752.36218)">
    <path
       style="fill:#000000"
       d="m 78.988951,1041.7793 c -0.82289,-3.0706 -1.47717,-10.6074 -1.45398,-16.7486 0.0551,-14.5614 8.88179,-87.475 12.26403,-101.30695 2.40964,-9.85434 2.10985,-11.35439 -3.63317,-18.1796 -9.11962,-10.83804 -7.21673,-31.54971 3.26828,-35.57319 6.76987,-2.59781 41.681399,-4.50484 48.971899,-2.67503 10.43737,2.6196 2.80046,6.2925 -13.18091,6.33925 -7.14509,0.0199 -18.03167,1.38614 -24.19239,3.0339 -10.712859,2.86525 -11.201329,3.39468 -11.201329,12.14088 0,6.05009 1.32828,9.65468 3.92485,10.65108 5.321708,2.04214 4.528818,2.39036 13.376909,-5.875 13.18356,-12.31527 32.32366,-15.13372 32.32366,-4.75978 0,3.75955 -1.82659,4.69708 -9.15122,4.69708 -8.57771,0 -25.52963,8.63631 -25.56962,13.02667 -0.01,1.02352 3.35036,1.86095 7.46594,1.86095 12.17538,0 27.47809,5.70238 26.63461,9.92508 -0.57104,2.85873 -3.6065,3.51668 -13.08826,2.83699 -27.102231,-1.94279 -24.5385,-3.10074 -26.680111,12.05064 -3.484098,24.64944 -6.393468,52.92563 -8.169638,79.40073 -1.69592,25.2791 -3.95829,34.7378 -8.30883,34.7378 -1.15751,0 -2.77786,-2.5123 -3.60072,-5.5829 z m 142.288379,-0.7819 c -1.33093,-3.5005 -2.44631,-15.5037 -2.47862,-26.6736 -0.067,-23.13094 -3.65476,-73.15959 -6.23181,-86.89653 -1.70195,-9.07214 -1.8609,-9.18147 -10.74514,-7.39106 -16.45678,3.31647 -33.83034,2.44336 -33.83034,-1.70017 0,-2.70473 3.95058,-4.14632 14.45561,-5.2749 24.22075,-2.60211 24.31988,-10.94678 0.18733,-15.76553 -16.96464,-3.38748 -19.77019,-7.43592 -6.67231,-9.62822 7.42052,-1.24203 12.4238,-0.0856 23.77552,5.4948 15.89876,7.81583 17.88207,6.97475 19.57124,-8.29963 1.01522,-9.17996 -3.67637,-10.61354 -35.80943,-10.94206 -13.30581,-0.13597 -24.19239,-1.09531 -24.19239,-2.13173 0,-2.9088 9.85095,-8.37938 12.32993,-6.84727 1.21166,0.74882 13.72766,2.00338 27.81336,2.78791 14.08573,0.7845 26.87155,2.46782 28.41294,3.74071 4.03097,3.32875 6.19253,16.55839 3.51834,21.53364 -7.65375,14.23964 -9.88116,21.8655 -8.76479,30.00769 2.41976,17.64866 4.02554,36.81182 6.09484,72.73603 1.15546,20.05882 2.8123,37.62172 3.68191,39.02882 1.91053,3.0912 -2.79753,12.5859 -6.24094,12.5859 -1.35046,0 -3.5443,-2.8642 -4.87523,-6.3648 z M 133.6806,1026.541 c 1.4248,-15.2578 1.16568,-16.2509 -6.83917,-26.2119 -7.91216,-9.84556 -8.33777,-11.40996 -8.68081,-31.90582 -0.56927,-34.01532 2.36828,-37.06416 36.77112,-38.16448 27.37855,-0.87564 34.8499,8.36942 32.62326,40.36802 -1.17794,16.92765 -3.41029,23.60755 -10.65106,31.87118 -3.26602,3.7275 -4.69518,7.7785 -3.77118,10.6897 0.8183,2.5783 0.72892,10.2057 -0.19875,16.9498 -1.39214,10.1221 -2.56697,12.2621 -6.73186,12.2621 -4.57867,0 -4.93183,-1.1818 -3.81783,-12.7753 1.78458,-18.5726 0.34338,-21.9625 -9.33718,-21.9625 -7.98242,0 -8.19864,0.287 -9.81518,13.0267 -2.28612,18.0166 -3.57445,21.7111 -7.57101,21.7111 -2.75436,0 -3.15888,-3.2391 -1.98045,-15.8586 z m 37.05994,-33.14651 c 5.9882,-7.88846 4.24238,-12.98462 -4.61008,-13.45698 -31.71041,-1.69207 -39.08001,-1.06602 -39.08001,3.31977 0,2.39857 2.44368,6.63767 5.43041,9.42022 7.32263,6.82206 33.25635,7.30806 38.25968,0.71699 z m -1.964,-20.27313 c 7.47498,-0.17939 8.157,-0.82254 7.44381,-7.02085 l -0.78512,-6.8235 -25.43303,-0.70711 c -23.03334,-0.64041 -25.42943,-0.28924 -25.39504,3.72191 0.0861,10.02629 5.66589,12.81442 23.53409,11.75944 6.82349,-0.40286 16.10938,-0.82133 20.63529,-0.92989 z m 4.78932,-23.43883 c 2.46549,-2.36914 2.33746,-4.05127 -0.63093,-8.28925 -3.34361,-4.77367 -5.43446,-5.19581 -20.4621,-4.13122 -21.44215,1.51899 -21.85613,1.68665 -24.76745,10.03148 l -2.44946,7.02093 22.6084,-0.82981 c 13.07262,-0.47983 23.91302,-2.0835 25.70154,-3.80213 z M 71.635411,862.0939 c -2.68643,-2.6864 -1.8884,-44.1536 1.11962,-58.1795 4.34691,-20.26898 9.35159,-23.65205 38.415209,-25.96812 13.51057,-1.07664 26.23951,-2.03084 28.28656,-2.12042 2.35547,-0.10297 4.01125,-3.17572 4.51003,-8.3693 1.2956,-13.49002 12.81138,-13.4464 14.30091,0.0541 0.34413,3.11901 0.71872,6.4195 0.83246,7.33439 0.11365,0.91492 7.74363,2.3291 16.95535,3.14261 28.78299,2.54198 49.96173,6.96686 54.76542,11.44215 8.48867,7.90841 9.14996,64.12232 0.85194,72.42034 -4.21617,4.21617 -7.60177,-0.22109 -5.67705,-7.44039 1.938,-7.26916 1.58251,-23.49987 -0.98047,-44.76516 -1.35232,-11.2204 -2.5643,-13.56473 -8.21437,-15.88921 -8.86963,-3.64901 -7.00066,-3.36049 -45.79347,-7.06914 -32.90977,-3.1462 -78.125909,-1.25371 -82.847179,3.46752 -2.61059,2.6106 -6.2995,28.50179 -6.95026,48.78152 -0.32845,10.23524 -0.75617,20.00524 -0.95048,21.71112 -0.37541,3.29552 -5.85627,4.21538 -8.62422,1.4474 z m 106.901409,-7.73884 c -24.39772,-0.71781 -33.17578,-4.55929 -13.64699,-5.97224 8.6109,-0.62303 10.5454,-1.66712 10.5454,-5.69154 0,-3.0241 -1.91763,-5.21874 -4.96254,-5.67948 -25.63533,-3.879 -20.38446,-7.36357 11.31196,-7.50682 23.44829,-0.10595 27.3287,0.43289 26.67366,3.70407 -0.51362,2.56491 -4.39447,4.15305 -11.76124,4.81292 -6.04706,0.54169 -11.55548,1.54568 -12.24093,2.23113 -3.05742,3.05743 5.84302,7.35057 17.71369,8.54424 7.13115,0.71706 12.96573,2.39656 12.96573,3.73222 0,2.71633 -2.34495,2.83329 -36.59874,1.8255 z m -88.705439,-3.01333 c 0,-1.3647 4.46629,-2.48127 9.925088,-2.48127 5.458791,0 10.010511,-0.83743 10.114921,-1.86095 0.10446,-1.02353 0.55933,-3.78377 1.01092,-6.13385 0.60514,-3.14916 -1.40244,-4.69 -7.63365,-5.859 -16.271109,-3.05246 -8.240229,-5.99637 16.35797,-5.99637 20.40156,0 24.81271,0.66168 24.81271,3.72191 0,2.66846 -2.72322,3.72191 -9.62127,3.72191 -9.76683,0 -16.96817,5.04288 -14.01797,9.8164 0.88038,1.42447 6.55937,2.58995 12.61997,2.58995 6.0606,0 11.01927,1.11657 11.01927,2.48127 0,1.5038 -10.75216,2.48127 -27.29398,2.48127 -16.54181,0 -27.293979,-0.97747 -27.293979,-2.48127 z M 192.80413,821.28041 c -4.0941,-1.28743 -12.20386,-1.67912 -18.02167,-0.87045 -11.15468,1.5505 -20.43803,-0.18932 -20.43803,-3.83056 0,-1.19426 4.74543,-2.51474 10.5454,-2.93438 13.10843,-0.94844 14.99454,-7.77781 2.48127,-8.98433 -8.5986,-0.82904 -10.59877,-3.92207 -4.13928,-6.40081 5.03663,-1.93274 35.30548,-1.89683 42.57106,0.0506 7.86516,2.10801 4.40029,5.88718 -5.39755,5.88718 -8.03399,0 -15.39105,5.03006 -12.12868,8.29244 0.89797,0.89794 6.84332,1.63265 13.21192,1.63265 12.99975,0 16.13434,1.71123 12.08101,6.59519 -3.14027,3.78381 -9.93625,3.96792 -20.76545,0.56255 z M 91.339921,819.76667 c -3.56159,-3.56162 -0.83703,-5.40724 9.036869,-6.12165 7.38041,-0.53399 10.5454,-1.88006 10.5454,-4.48489 0,-2.60484 -3.16499,-3.95091 -10.5454,-4.4849 -10.127189,-0.73272 -15.154639,-5.27099 -6.203179,-5.59958 8.921659,-0.32748 34.398919,-0.40455 42.181599,-0.12754 11.49737,0.40916 10.02625,5.24952 -1.59548,5.24952 -5.99805,0 -10.16572,1.31887 -10.99476,3.47932 -1.86197,4.85222 0.4106,6.43971 9.28189,6.48376 6.2665,0.031 18.12427,4.35433 13.85375,5.05092 -7.48601,1.22111 -54.425699,1.69007 -55.560689,0.55509 z"
       id="path3119"
       inkscape:connector-curvature="0" />
  </g>
</svg>
