<?xml version="1.0" encoding="UTF-8" standalone="no"?>
<svg
   xmlns:dc="http://purl.org/dc/elements/1.1/"
   xmlns:cc="http://creativecommons.org/ns#"
   xmlns:rdf="http://www.w3.org/1999/02/22-rdf-syntax-ns#"
   xmlns:svg="http://www.w3.org/2000/svg"
   xmlns="http://www.w3.org/2000/svg"
   viewBox="0 0 300 300"
   height="300"
   width="300"
   id="svg76"
   version="1.1">
  <metadata
     id="metadata82">
    <rdf:RDF>
      <cc:Work
         rdf:about="">
        <dc:format>image/svg+xml</dc:format>
        <dc:type
           rdf:resource="http://purl.org/dc/dcmitype/StillImage" />
        <dc:title></dc:title>
      </cc:Work>
    </rdf:RDF>
  </metadata>
  <defs
     id="defs80" />
  <path
     id="path86"
     d="m 217.21605,284.01576 c -22.88203,-33.97999 -52.95574,-75.82281 -68.04556,-105.84724 -11.80549,28.05395 -29.42763,50.06071 -45.04665,70.42846 -5.760578,7.512 -18.820459,26.53006 -24.584891,28.01797 -5.519092,1.42458 -7.385959,-2.28749 -4.375861,-8.19008 1.479369,-2.90093 29.892422,-39.15724 38.090832,-50.90593 13.36024,-19.14579 25.01311,-39.5078 29.84476,-59.73887 2.1825,-9.16046 1.82205,-19.83594 2.16765,-32.6955 0.44485,-16.5527 0.48309,-25.941201 8.73144,-23.44668 4.50871,1.36356 3.30688,3.94458 3.21726,36.46832 -0.0506,18.3424 0.17978,35.15215 8.13782,47.50192 27.00645,41.91026 29.68575,45.53565 49.51362,75.42006 3.89365,5.86848 8.88041,13.60682 9.879,18.67621 0.93841,4.76392 -5.42363,6.61049 -7.52942,4.31136 z m 13.92626,-47.66769 c -2.14666,-0.39686 -11.25422,-9.56647 -17.33259,-17.44787 -11.71891,-15.19514 -18.42528,-29.91335 -22.97186,-50.41548 -4.60083,-20.74674 -5.54704,-31.36086 -3.45909,-38.80222 1.238,-4.41221 2.11926,-4.87313 5.7387,-3.00143 2.6198,1.35474 3.18362,3.22778 5.61925,18.66779 4.74502,30.07961 6.33419,36.36509 12.22278,48.3436 4.06774,8.27456 9.83359,16.24769 17.4697,24.15748 4.04129,4.18615 7.92869,8.20674 8.13826,9.11967 1.26249,5.49947 0.84658,10.53793 -5.42515,9.37846 z M 68.39244,224.73757 c -1.930249,-2.3978 3.18539,-10.10274 9.515922,-19.30452 6.869285,-9.98489 15.796883,-23.75431 20.906634,-36.95164 4.408764,-11.38683 6.675544,-22.26163 8.908764,-34.03092 1.01711,-5.36028 3.8759,-21.86623 10.45584,-10.25433 2.02576,3.9174 1.85352,8.20247 -5.01483,33.62372 -3.34404,12.37702 -7.40346,22.59555 -13.285259,33.49521 -8.858102,16.41508 -17.057805,29.37015 -21.458729,32.73779 -2.624914,2.00862 -7.937062,3.28252 -10.028342,0.68469 z M 218.02047,122.22779 c -9.13494,-4.29767 -31.28649,-13.90319 -46.00897,-19.40662 -10.9151,-4.080181 -26.20122,-5.089321 -36.24729,-2.70659 -10.35603,2.45626 -31.44577,8.79767 -47.842537,15.51573 -6.450993,2.69964 -21.805324,7.62432 -20.158672,-1.35179 0.358589,-1.95472 1.008631,-2.7489 5.070941,-4.71009 9.565559,-4.61802 28.579518,-11.862341 43.038108,-15.964641 9.99904,-2.836992 20.70463,-4.868083 30.4312,-5.343815 0.12297,-8.868891 0.144,-18.08898 0.21449,-26.729935 -8.31876,0.02225 -18.61208,1.393229 -24.83915,2.727221 -13.23083,2.834364 -27.147109,7.603195 -40.320186,13.816916 -15.077606,7.112085 -20.799939,7.338078 -20.799939,0.821466 0,-1.655672 0.56434,-2.626992 4.316401,-4.796634 26.024423,-15.048707 51.877024,-22.9236 81.669824,-25.214739 0.0704,-2.784427 0.0771,-7.045112 0.31901,-14.671668 0.39421,-12.428428 0.54219,-13.775357 1.95413,-16.766958 2.97341,-6.300023 9.17486,1.188555 9.24657,4.394389 0.19647,8.784185 -0.0271,18.085978 0.04,27.23016 27.83302,3.151991 51.72069,12.526944 75.98868,27.464656 4.6041,2.833972 6.94396,9.857593 4.1281,10.98261 -3.35191,1.339187 -6.81981,0.324393 -17.91487,-5.242325 -25.65985,-12.874303 -34.95011,-16.406804 -50.62946,-18.77926 -3.90987,-0.591607 -7.81156,-1.348589 -11.77106,-1.367063 -0.0469,9.735432 -0.0974,15.640999 0.006,26.370242 14.62635,1.151829 47.34769,15.094608 63.70535,22.924698 9.90138,4.76064 12.28775,6.90063 12.28775,11.01911 0,4.44999 -6.14533,4.36678 -15.88433,-0.21508 z"
     style="fill:#000000;stroke-width:0.69062287" />
</svg>
