<?xml version="1.0" encoding="UTF-8" standalone="no"?>
<!-- Created with Inkscape (http://www.inkscape.org/) -->

<svg
   xmlns:dc="http://purl.org/dc/elements/1.1/"
   xmlns:cc="http://creativecommons.org/ns#"
   xmlns:rdf="http://www.w3.org/1999/02/22-rdf-syntax-ns#"
   xmlns:svg="http://www.w3.org/2000/svg"
   xmlns="http://www.w3.org/2000/svg"
   xmlns:sodipodi="http://sodipodi.sourceforge.net/DTD/sodipodi-0.dtd"
   xmlns:inkscape="http://www.inkscape.org/namespaces/inkscape"
   width="300"
   height="300"
   id="svg2"
   version="1.1"
   inkscape:version="0.48.4 r9939"
   sodipodi:docname="image-seal.svg">
  <defs
     id="defs4" />
  <sodipodi:namedview
     id="base"
     pagecolor="#ffffff"
     bordercolor="#666666"
     borderopacity="1.0"
     inkscape:pageopacity="0.0"
     inkscape:pageshadow="2"
     inkscape:zoom="1.979899"
     inkscape:cx="200.43343"
     inkscape:cy="122.13442"
     inkscape:document-units="px"
     inkscape:current-layer="layer1"
     showgrid="false"
     inkscape:window-width="1215"
     inkscape:window-height="1000"
     inkscape:window-x="65"
     inkscape:window-y="24"
     inkscape:window-maximized="1" />
  <metadata
     id="metadata7">
    <rdf:RDF>
      <cc:Work
         rdf:about="">
        <dc:format>image/svg+xml</dc:format>
        <dc:type
           rdf:resource="http://purl.org/dc/dcmitype/StillImage" />
        <dc:title />
      </cc:Work>
    </rdf:RDF>
  </metadata>
  <g
     inkscape:label="Calque 1"
     inkscape:groupmode="layer"
     id="layer1"
     transform="translate(0,-752.36218)">
    <path
       style="fill:#000000"
       d="m 157.33483,1044.71 c -3.21711,-8.3837 0.83494,-38.4038 6.68444,-49.52257 5.85819,-11.13524 24.13057,-28.84475 29.76155,-28.84475 5.87057,0 17.50896,-7.4887 20.77043,-13.36472 4.13433,-7.44857 4.40695,-33.07992 0.44433,-41.77687 -3.0665,-6.73024 -5.06029,-7.5466 -25.10726,-10.28012 -12.05974,-1.6444 -18.98458,-5.52643 -16.63622,-9.32617 2.13078,-3.44767 32.30738,-2.65108 39.61617,1.04578 12.11817,6.12948 15.22064,23.18177 10.8401,59.58095 l -1.85392,15.40489 -21.60717,11.00291 c -11.88395,6.05161 -23.00484,12.91436 -24.7131,15.25053 -2.93875,4.01896 -8.20536,29.08174 -9.5482,45.43804 -0.69203,8.4291 -6.17446,11.8462 -8.65115,5.3921 z M 90.263715,984.74895 c -3.181287,-0.9447 -9.229967,-4.97681 -13.441512,-8.9602 l -7.657356,-7.24258 1.049781,-32.55338 c 1.048919,-32.52665 2.535573,-41.53959 6.851825,-41.53959 2.907364,0 2.903819,-0.0603 2.348223,39.95324 -0.369591,26.61775 0.303898,34.17318 3.265264,36.6309 5.743587,4.76676 12.08419,0.89166 12.08419,-7.38531 0,-4.00193 1.158491,-7.99221 2.574423,-8.86731 1.709322,-1.05641 1.669423,-3.28208 -0.11872,-6.6233 -1.481236,-2.7677 -2.137177,-5.93178 -1.457646,-7.03131 0.67953,-1.09949 1.487698,-17.29198 1.79593,-35.9833 0.308231,-18.69134 1.458896,-34.53953 2.557033,-35.21822 4.09907,-2.53336 5.56933,5.19746 5.12884,26.96808 -0.47639,23.54509 2.25973,30.21315 11.01832,26.85216 3.05638,-1.17283 4.17663,-4.91596 4.17663,-13.95544 0,-14.75901 1.86863,-20.47515 6.6934,-20.47515 2.71292,0 3.57653,4.29542 3.57653,17.78897 0,19.51972 -4.26215,27.35677 -13.55607,24.92634 -8.76871,-2.29307 -12.11875,4.22556 -12.11875,23.58111 0,20.37923 0.61694,20.99794 20.9381,20.99794 10.82081,0 12.68204,0.69938 11.95715,4.49309 -0.72369,3.78745 -4.07992,4.56124 -21.36998,4.927 -11.2813,0.23852 -23.114319,-0.33903 -26.295605,-1.28374 z m 90.511035,-42.66792 c -5.64846,-1.76971 -12.82011,-4.08884 -15.937,-5.15365 -7.55707,-2.58163 -11.75737,-16.14892 -11.62343,-37.54454 0.12126,-19.36915 5.41447,-33.45708 14.19732,-37.78626 3.11337,-1.53464 14.11004,-4.12931 24.43705,-5.76597 16.62145,-2.63424 19.0911,-3.75633 21.51859,-9.777 4.12135,-10.22178 3.98299,-18.04495 -0.44871,-25.3717 -3.4813,-5.75547 -5.87881,-6.65118 -18.83837,-7.03803 -12.37906,-0.36953 -16.00237,-1.59653 -21.77987,-7.37563 -6.24363,-6.24534 -6.8623,-8.51215 -6.24266,-22.87312 0.74677,-17.30706 6.23579,-27.37128 10.85411,-19.90119 1.30351,2.10841 1.69291,10.31175 0.86533,18.22966 -1.68724,16.1426 -4.23882,13.86948 24.38323,21.72212 20.00172,5.48761 22.1167,8.5492 22.19522,32.12918 0.0845,25.3281 -3.45337,29.18086 -29.11655,31.70965 -22.78804,2.24549 -27.09389,6.22586 -31.00007,28.65681 -2.90212,16.66517 -2.78556,17.54512 3.49278,26.36909 5.98852,8.41661 7.39694,9.07312 18.05821,8.41751 14.9136,-0.9171 21.94338,1.41214 21.94338,7.27075 0,8.17625 -9.36537,9.59445 -26.95856,4.08232 z M 65.512787,880.12206 c -0.857138,-2.23366 -1.558433,-4.5249 -1.558433,-5.09165 0,-0.56675 7.509883,-6.93223 16.688628,-14.14551 14.288232,-11.2287 16.682973,-14.28159 16.649313,-21.22504 -0.06236,-12.86703 -3.022976,-15.51639 -15.168844,-13.57417 -8.43872,1.34939 -10.92093,0.84915 -12.189472,-2.45661 -1.945776,-5.07063 2.411325,-7.99899 15.088351,-10.14076 8.385615,-1.41674 9.954657,-2.83242 12.233735,-11.03791 1.437916,-5.17699 2.620834,-13.60388 2.628708,-18.72641 0.01797,-11.73963 3.820837,-14.85789 20.533287,-16.83724 9.99915,-1.18425 13.93307,-0.6775 15.6374,2.01437 3.62484,5.72518 2.77632,7.44793 -3.66839,7.44793 -7.66584,0 -22.13023,7.13583 -22.49952,11.09984 -1.98038,21.25779 -2.45171,20.04877 7.48705,19.20555 8.00069,-0.67879 9.46894,-1.87857 11.37874,-9.2981 3.35722,-13.04273 8.53647,-8.83137 7.52311,6.11718 -0.46812,6.90539 -1.32044,13.31462 -1.89404,14.24271 -0.57361,0.92812 -6.54512,2.51177 -13.27003,3.5192 -13.41333,2.00944 -15.9801,4.34261 -16.03901,14.57934 -0.0412,7.15151 7.62567,14.97735 22.74445,23.21614 4.9504,2.69765 8.02601,6.38717 8.02601,9.62805 0,8.45649 -8.24645,6.27316 -18.94358,-5.01554 -5.35247,-5.64846 -11.14882,-10.26993 -12.88079,-10.26993 -1.73197,0 -7.806816,4.91031 -13.499662,10.9118 -10.160861,10.71173 -20.533999,19.89798 -22.468879,19.89798 -0.538834,0 -1.680994,-1.82754 -2.538132,-4.06122 z"
       id="path3080"
       inkscape:connector-curvature="0" />
  </g>
</svg>
