<?xml version="1.0" encoding="UTF-8" standalone="no"?>
<!-- Created with Inkscape (http://www.inkscape.org/) -->

<svg
   xmlns:dc="http://purl.org/dc/elements/1.1/"
   xmlns:cc="http://creativecommons.org/ns#"
   xmlns:rdf="http://www.w3.org/1999/02/22-rdf-syntax-ns#"
   xmlns:svg="http://www.w3.org/2000/svg"
   xmlns="http://www.w3.org/2000/svg"
   xmlns:sodipodi="http://sodipodi.sourceforge.net/DTD/sodipodi-0.dtd"
   xmlns:inkscape="http://www.inkscape.org/namespaces/inkscape"
   width="300"
   height="300"
   id="svg2"
   version="1.1"
   inkscape:version="0.48.4 r9939"
   sodipodi:docname="image-seal.svg">
  <defs
     id="defs4" />
  <sodipodi:namedview
     id="base"
     pagecolor="#ffffff"
     bordercolor="#666666"
     borderopacity="1.0"
     inkscape:pageopacity="0.0"
     inkscape:pageshadow="2"
     inkscape:zoom="2.0018437"
     inkscape:cx="145.03351"
     inkscape:cy="130.6666"
     inkscape:document-units="px"
     inkscape:current-layer="layer1"
     showgrid="false"
     inkscape:window-width="1215"
     inkscape:window-height="1000"
     inkscape:window-x="65"
     inkscape:window-y="24"
     inkscape:window-maximized="1"
     fit-margin-top="10"
     fit-margin-left="10"
     fit-margin-right="10"
     fit-margin-bottom="10" />
  <metadata
     id="metadata7">
    <rdf:RDF>
      <cc:Work
         rdf:about="">
        <dc:format>image/svg+xml</dc:format>
        <dc:type
           rdf:resource="http://purl.org/dc/dcmitype/StillImage" />
        <dc:title />
      </cc:Work>
    </rdf:RDF>
  </metadata>
  <g
     inkscape:label="Calque 1"
     inkscape:groupmode="layer"
     id="layer1"
     transform="translate(0,-752.36218)">
    <path
       style="fill:#000000"
       d="m 141.50833,1041.352 c -0.51833,-3.328 0.0473,-10.2865 1.25697,-15.4633 5.80322,-24.8355 8.80321,-47.95495 11.32495,-87.27614 1.94461,-30.32222 4.14264,-44.19368 7.3133,-46.15327 4.45783,-2.75509 0.45226,74.71902 -6.20338,119.98301 -4.29064,29.1803 -11.33361,44.0512 -13.69184,28.9097 z m 71.95902,0 c -2.38093,-7.6152 -6.66944,-31.2854 -8.40486,-46.38998 -1.01961,-8.87456 -2.32504,-19.16105 -2.90092,-22.85881 -2.37716,-15.26418 -0.94168,-144.81596 1.68107,-151.7143 1.52718,-4.01676 2.80002,-11.76258 2.82855,-17.21294 0.0804,-15.34101 6.44558,-36.68535 11.2141,-37.60368 5.82818,-1.12243 7.75779,5.57172 4.6439,16.11044 -10.51029,35.57121 -13.95558,150.9009 -6.17049,206.55609 7.2021,51.48778 7.42523,56.47478 2.52684,56.47478 -2.40195,0 -4.84013,-1.5127 -5.41819,-3.3616 z m -37.42289,-13.6744 c -0.86675,-3.4533 -0.58435,-9.8067 0.62754,-14.1187 3.2873,-11.6962 3.31252,-151.44233 0.0293,-161.80086 -3.1893,-10.06188 -7.63562,-11.5683 -7.93754,-2.68928 -0.11322,3.32798 -0.64091,8.47123 -1.17277,11.42943 -0.53183,2.95821 -1.72708,10.54522 -2.65609,16.86002 -3.85344,26.19317 -6.39171,4.69812 -6.62681,-56.11847 -0.2345,-60.64536 0.0498,-64.64534 4.53332,-63.78574 4.22084,0.80926 4.872,4.75357 5.53622,33.53508 l 0.75273,32.61795 7.73135,3.20245 c 4.25223,1.76131 8.47558,5.82621 9.38526,9.03309 0.90965,3.20689 2.37576,47.28821 3.25798,97.9585 1.24048,71.24653 0.84903,93.03743 -1.72714,96.14173 -4.87894,5.8787 -9.93424,4.9028 -11.73326,-2.2652 z m -72.96233,-22.4735 c -19.178257,-1.2698 -24.976427,-2.9472 -30.995107,-8.96575 -4.82814,-4.82806 -5.31014,-9.07389 -5.31014,-46.77404 0,-43.54755 0.90128,-49.97159 7.01092,-49.97159 3.01282,0 3.74912,6.97558 3.7612,35.63293 0.0134,34.68463 3.07414,55.80245 8.08461,55.80245 5.23285,0 8.03605,-11.25713 8.03605,-32.27128 0,-12.02731 1.32229,-24.33852 2.93841,-27.35829 2.12504,-3.97066 2.12504,-6.30385 0,-8.42889 -4.40638,-4.40638 -3.55375,-39.81822 1.10704,-45.97627 4.886607,-6.45644 6.281987,-3.16942 7.310337,17.22079 0.71828,14.24239 1.04522,14.82481 8.81379,15.7013 14.00452,1.58011 20.78144,11.19148 7.89104,11.19148 -16.11566,0 -17.30351,2.59109 -17.30351,37.74449 0,23.72322 0.88316,32.28774 3.36159,32.59916 1.84888,0.23128 7.59213,0.5946 12.76275,0.8049 11.95838,0.48622 14.53676,8.23021 4.06584,12.21121 -3.90166,1.4834 -7.31769,2.479 -7.59119,2.2125 -0.2735,-0.2663 -6.54812,-0.8856 -13.94363,-1.3751 z M 230.9953,958.17203 c -3.74492,-12.49939 -4.90266,-100.13568 -1.68346,-127.43107 1.98956,-16.86936 5.21734,-25.25229 8.47058,-21.99904 2.59228,2.59227 2.51878,12.23554 -0.34323,45.03308 -3.24252,37.15799 -3.0175,53.88185 1.03128,76.64441 7.05056,39.63898 7.03074,38.99453 1.19996,38.99453 -3.89961,0 -6.20018,-2.98126 -8.67513,-11.24191 z m -98.47005,-16.32319 c 0.66955,-9.24439 2.02753,-27.94262 3.01772,-41.5516 l 1.80039,-24.74358 -7.71814,-1.88142 c -4.24497,-1.03478 -11.69333,-5.32988 -16.55189,-9.54468 -4.85853,-4.21482 -9.46765,-7.66328 -10.24246,-7.66328 -1.43895,0 -22.860287,16.1693 -25.296877,19.09467 -0.73955,0.8879 -4.22144,3.13065 -7.73751,4.98388 -5.13157,2.70471 -6.80691,2.69963 -8.49134,-0.0269 -3.25047,-5.25937 -0.644,-8.99929 10.24483,-14.69989 14.40668,-7.54229 19.82605,-14.43784 18.88672,-24.03133 -0.75058,-7.66579 -1.53604,-8.20496 -12.48686,-8.57129 -21.46958,-0.71825 -21.57596,-9.48046 -0.15893,-13.09883 12.13902,-2.05087 15.55516,-8.16435 16.50581,-29.53867 l 0.71769,-16.13567 14.357887,-7.69418 c 10.34154,-5.54188 15.17595,-6.87614 17.2823,-4.76979 3.51184,3.51185 -4.62992,13.80861 -10.91863,13.80861 -6.63625,0 -11.13315,8.70979 -11.22357,21.73832 -0.0471,6.77924 0.71078,13.12214 1.684,14.09539 3.18661,3.1866 8.98668,-4.06428 9.02877,-11.28717 0.0519,-8.89239 3.81643,-15.04686 7.726,-12.63062 3.86325,2.38765 3.85965,20.88283 -0.005,29.36648 -1.80747,3.96693 -6.07427,7.19056 -10.75711,8.12713 -6.74619,1.34921 -7.76153,2.75939 -7.76153,10.77973 0,7.99259 1.80026,10.52078 13.45263,18.89217 7.39893,5.3156 14.65998,9.66473 16.13567,9.66473 1.62104,0 2.68303,-11.64613 2.68303,-29.42333 0,-27.82421 2.22678,-36.81581 7.20969,-29.11232 3.03151,4.68666 2.945,111.78477 -0.10865,134.34251 -2.05514,15.18237 -3.33645,18.31786 -7.48547,18.31786 -4.47756,0 -4.87741,-1.77396 -3.78852,-16.80799 z"
       id="path3364"
       inkscape:connector-curvature="0" />
  </g>
</svg>
