<?xml version="1.0" encoding="UTF-8" standalone="no"?>
<!-- Created with Inkscape (http://www.inkscape.org/) -->

<svg
   xmlns:dc="http://purl.org/dc/elements/1.1/"
   xmlns:cc="http://creativecommons.org/ns#"
   xmlns:rdf="http://www.w3.org/1999/02/22-rdf-syntax-ns#"
   xmlns:svg="http://www.w3.org/2000/svg"
   xmlns="http://www.w3.org/2000/svg"
   xmlns:sodipodi="http://sodipodi.sourceforge.net/DTD/sodipodi-0.dtd"
   xmlns:inkscape="http://www.inkscape.org/namespaces/inkscape"
   width="300"
   height="300"
   id="svg2"
   version="1.1"
   inkscape:version="0.48.4 r9939"
   sodipodi:docname="image-seal.svg">
  <defs
     id="defs4" />
  <sodipodi:namedview
     id="base"
     pagecolor="#ffffff"
     bordercolor="#666666"
     borderopacity="1.0"
     inkscape:pageopacity="0.0"
     inkscape:pageshadow="2"
     inkscape:zoom="2.0018437"
     inkscape:cx="145.03351"
     inkscape:cy="130.6666"
     inkscape:document-units="px"
     inkscape:current-layer="layer1"
     showgrid="false"
     inkscape:window-width="1215"
     inkscape:window-height="1000"
     inkscape:window-x="65"
     inkscape:window-y="24"
     inkscape:window-maximized="1"
     fit-margin-top="10"
     fit-margin-left="10"
     fit-margin-right="10"
     fit-margin-bottom="10" />
  <metadata
     id="metadata7">
    <rdf:RDF>
      <cc:Work
         rdf:about="">
        <dc:format>image/svg+xml</dc:format>
        <dc:type
           rdf:resource="http://purl.org/dc/dcmitype/StillImage" />
        <dc:title />
      </cc:Work>
    </rdf:RDF>
  </metadata>
  <g
     inkscape:label="Calque 1"
     inkscape:groupmode="layer"
     id="layer1"
     transform="translate(0,-752.36218)">
    <path
       style="fill:#000000"
       d="m 137.3397,1045.8245 c -2.79909,-2.799 -2.32224,-54.79719 0.53078,-57.87972 1.3389,-1.44699 4.00378,-7.61427 5.92197,-13.70596 4.19142,-13.31005 11.20294,-23.98445 25.36628,-38.61764 12.03069,-12.42975 12.86366,-15.29518 5.04096,-17.34087 -3.04571,-0.79648 -5.53766,-2.54879 -5.53766,-3.89402 0,-1.34524 -2.49194,-2.4459 -5.53765,-2.4459 -9.81867,0 -6.38469,-10.72037 7.60832,-23.75198 13.42346,-12.50114 24.44311,-15.75633 27.38512,-8.08951 0.87659,2.28428 2.79342,4.15324 4.25967,4.15324 1.46626,0 8.18582,3.79777 14.93231,8.43949 13.18276,9.06998 15.97781,17.69764 6.68854,20.64594 -7.51598,2.38548 -4.79289,5.8305 9.89899,12.52345 12.23943,5.57569 16.67124,13.7689 7.44637,13.76624 -2.665,-7.8e-4 -11.40017,-2.49272 -19.41149,-5.53765 -20.73346,-7.88038 -26.16764,-7.43004 -25.07362,2.078 0.82937,7.20814 1.72528,7.65857 16.79686,8.44464 8.75641,0.45672 15.92074,1.81419 15.92074,3.01661 0,3.72141 -13.60819,8.61273 -23.96152,8.61273 -7.85062,0 -9.51477,0.89143 -8.17621,4.3797 0.92435,2.40883 1.68065,4.90077 1.68065,5.53765 0,0.63686 6.12797,1.15795 13.61767,1.15795 16.04578,0 22.37706,1.98954 22.37706,7.03185 0,4.65274 -6.86666,6.82903 -19.94764,6.32206 -12.92892,-0.50116 -18.81588,4.30635 -18.81597,15.3656 l -5e-5,8.6595 22.84286,-0.3558 c 26.69798,-0.4156 32.53375,0.6747 32.53375,6.08 0,3.8501 -5.34195,5.4806 -13.84412,4.2264 -10.79621,-1.5927 -87.14595,-0.053 -88.96903,1.7961 -1.13849,1.1535 -2.45623,8.23 -2.92831,15.7252 -0.80147,12.7253 -4.20338,18.099 -8.64563,13.6567 z m 43.08984,-44.7993 c 3.38287,-0.3369 4.84545,-2.89226 4.84545,-8.46617 0,-6.48542 -1.4105,-8.25332 -7.5159,-9.42038 -13.18586,-2.52073 -24.85073,0.85613 -28.17717,8.15696 -1.68876,3.70635 -3.07049,7.21193 -3.07049,7.79013 0,2.56076 17.57933,3.56616 33.91811,1.93946 z m 1.80215,-33.53866 c 5.28142,-3.26411 1.70014,-11.24495 -5.04599,-11.24495 -10.74947,0 -22.37438,7.37696 -18.20121,11.5501 2.40852,2.40855 19.21327,2.18796 23.2472,-0.30515 z m 2.08783,-26.59291 c 0.90178,-2.34995 1.041,-4.87122 0.30942,-5.60282 -2.46675,-2.46672 -10.42925,2.12825 -10.42925,6.01848 0,5.23956 8.07705,4.9078 10.11983,-0.41566 z m -0.28655,-44.96231 c -0.91227,-0.91227 -3.75275,0.43542 -6.31222,2.99487 -4.35886,4.35885 -4.31084,4.90625 0.75813,8.64391 4.96965,3.6644 5.48526,3.41978 6.31223,-2.99487 0.49531,-3.84188 0.15422,-7.73164 -0.75814,-8.64391 z m 20.62379,11.85583 c 2.74997,-3.31351 2.74997,-4.99297 0,-8.30648 -5.33785,-6.43173 -8.30647,-4.94742 -8.30647,4.15324 0,9.10066 2.96862,10.58497 8.30647,4.15324 z m -126.673752,87.24832 -8.99869,-5.48671 0,-49.87942 c 0,-27.43377 0.79712,-49.87955 1.77139,-49.87955 0.97424,0 3.42656,2.18045 5.44957,4.84544 2.67582,3.52494 3.70223,16.35266 3.7663,47.07003 0.0828,39.65498 0.40923,42.22445 5.36587,42.22445 7.44296,0 10.00476,-19.46974 9.0264,-68.60097 -0.77502,-38.9198 0.37966,-50.45838 5.04942,-50.45838 4.841152,0 7.971642,18.76928 7.299822,43.76743 -0.7029,26.15515 0.91102,31.30071 7.97798,25.43565 2.78001,-2.30718 3.89992,-9.37245 3.82294,-24.11811 -0.0999,-19.12591 3.03577,-29.43718 7.57224,-24.90071 0.99974,0.99974 2.38338,11.57915 3.07475,23.50982 1.58505,27.35198 -3.48107,42.1395 -14.43668,42.1395 -7.90619,0 -8.56506,1.18404 -11.06403,19.88319 l -1.73215,12.96103 13.29296,1.9595 c 13.83342,2.03924 17.92549,5.0268 15.50939,11.32311 -2.41281,6.28743 -41.682652,4.95113 -52.747482,-1.7953 z M 234.63406,890.53637 c -25.09816,-20.59898 -27.28284,-29.9405 -11.00423,-47.05289 13.67972,-14.38036 18.48587,-35.98213 12.58767,-56.57665 -2.21196,-7.72347 -9.32377,-8.45768 -12.0658,-1.24564 -2.61704,6.8833 -21.3395,20.14221 -24.28417,17.19756 -0.95101,-0.95104 1.76831,-5.37966 6.04296,-9.84143 8.01771,-8.36869 8.12658,-16.74937 0.21763,-16.74937 -2.33207,0 -4.24013,-1.69541 -4.24013,-3.76757 0,-2.44396 4.74455,-4.32947 13.50523,-5.36706 17.04087,-2.01823 25.25833,0.0828 25.25833,6.45801 0,2.74119 1.18547,5.39929 2.63437,5.90692 4.34456,1.52208 6.58438,35.78034 3.16668,48.43429 -1.7108,6.33413 -6.83083,15.49919 -11.37785,20.36679 -8.49207,9.09077 -10.36901,13.8022 -5.4985,13.8022 1.52285,0 2.76074,2.18045 2.75082,4.84545 -0.0111,2.66499 4.52532,8.78806 10.07822,13.60678 6.66066,5.78006 9.52285,10.25537 8.41136,13.15192 -2.36056,6.15147 -5.59856,5.51733 -16.18253,-3.16931 z m -92.20626,2.13488 c -0.90288,-1.46092 -0.48136,-4.88734 0.93678,-7.61427 1.41811,-2.72696 4.8262,-10.39035 7.57354,-17.02977 5.26741,-12.7297 16.08148,-25.89708 23.57602,-28.70657 5.64051,-2.11447 9.74004,-41.4816 5.48513,-52.67286 -2.55621,-6.72335 -4.25364,-7.4101 -20.18817,-8.16798 -13.97255,-0.66455 -17.579,-1.7813 -18.32032,-5.67288 -0.8067,-4.23467 1.45842,-4.8401 17.96956,-4.80306 20.41782,0.046 23.61897,1.18415 27.13341,9.6485 3.10444,7.47697 3.31154,8.87387 3.79717,25.61164 0.393,13.54708 0.89278,14.53633 7.34378,14.53633 3.80714,0 6.92206,-1.14436 6.92206,-2.543 0,-2.96943 17.18751,-14.06995 21.7852,-14.06995 6.06476,0 3.04161,5.11449 -5.17224,8.75029 -4.56857,2.02224 -8.30648,4.41818 -8.30648,5.32428 0,0.9061 -4.88581,4.02396 -10.85734,6.92857 -8.23144,4.00381 -11.71039,7.86582 -14.38441,15.96821 -1.93989,5.87791 -5.46112,11.42929 -7.82495,12.33636 -6.66473,2.55751 -16.77216,13.64751 -16.77216,18.40266 0,2.35348 -1.04874,4.27908 -2.33054,4.27908 -1.2818,0 -3.82378,4.98389 -5.64879,11.07531 -3.12534,10.43141 -9.04963,14.35342 -12.71725,8.41911 z M 60.899238,880.36567 c -2.60117,-3.13422 0.0138,-6.73682 13.50511,-18.61331 15.91219,-14.00649 16.73058,-15.35117 16.73058,-27.49062 l 0,-12.76378 -15.22854,1.26289 c -18.1808,1.50768 -20.61881,-3.12327 -4.22941,-8.03367 18.78997,-5.6296 27.18048,-17.05701 18.07353,-24.6151 -4.30909,-3.57625 -5.71305,-11.06933 -2.07662,-11.08328 1.14215,-0.006 4.50774,-3.63666 7.47907,-8.07176 2.97137,-4.43511 8.578242,-8.76242 12.459722,-9.61627 3.8815,-0.85385 9.8607,-2.35076 13.28712,-3.32647 5.05715,-1.44006 6.22986,-0.6708 6.22986,4.08659 0,3.71217 -1.77629,5.88315 -4.84545,5.92216 -8.30326,0.10549 -16.84437,9.183 -18.80229,19.98317 -1.47924,8.15964 -0.92523,10.71909 2.61413,12.07725 6.13406,2.35387 12.72713,-3.70446 12.72713,-11.69485 0,-3.62065 1.31109,-6.58302 2.91352,-6.58302 1.77513,0 2.58653,5.6798 2.07662,14.53633 -0.74697,12.9743 -1.55461,14.63773 -7.51597,15.47998 -9.70712,1.37145 -14.08712,7.02296 -14.08712,18.17653 0,7.34957 1.69546,10.93576 6.72968,14.23429 7.29007,4.77663 16.69284,17.51985 14.52606,19.68659 -0.73553,0.73554 -6.35658,-1.22329 -12.49122,-4.35295 l -11.153912,-5.69027 -7.34996,6.18932 c -4.04251,3.40413 -11.18093,10.23876 -15.86315,15.18803 -9.56743,10.11305 -11.1348,10.62316 -15.70849,5.11222 z m 66.230422,-15.49531 c 0,-1.52286 1.86895,-2.76883 4.15323,-2.76883 2.28428,0 4.15324,1.24597 4.15324,2.76883 0,1.52285 -1.86896,2.76882 -4.15324,2.76882 -2.28428,0 -4.15323,-1.24597 -4.15323,-2.76882 z m 14.65586,-24.22722 c 5.77818,-6.3075 29.25834,-18.61512 31.4095,-16.46394 2.13712,2.13712 -3.83106,7.77312 -13.53167,12.77858 -4.18785,2.1609 -7.61427,4.96433 -7.61427,6.22985 0,1.26552 -3.30802,2.30095 -7.3512,2.30095 -6.84623,0 -7.04627,-0.33284 -2.91236,-4.84544 z m 57.33359,-0.27808 c 0,-3.43926 16.18218,-15.34718 23.6991,-17.43936 5.57771,-1.55242 6.05185,-1.1507 3.48767,2.95522 -6.09424,9.7584 -27.18677,20.99576 -27.18677,14.48414 z m -63.68298,-19.5927 c 0,-2.39077 27.64276,-19.58498 31.48634,-19.58498 5.59745,0 0.0864,8.14101 -9.88997,14.60987 -11.60927,7.5276 -21.59637,9.8283 -21.59637,4.97511 z m 0.52098,-18.86099 c 0.50985,-2.6475 3.40466,-5.26381 6.43287,-5.81406 3.02824,-0.55022 8.24589,-3.5256 11.59484,-6.61193 3.66529,-3.37791 7.92768,-4.90597 10.70833,-3.83895 4.01742,1.54166 3.76518,2.41483 -1.93575,6.70131 -19.37862,14.57052 -28.38336,17.78386 -26.80029,9.56363 z"
       id="path3184"
       inkscape:connector-curvature="0" />
  </g>
</svg>
