<?xml version="1.0" encoding="UTF-8" standalone="no"?>
<!-- Created with Inkscape (http://www.inkscape.org/) -->

<svg
   xmlns:dc="http://purl.org/dc/elements/1.1/"
   xmlns:cc="http://creativecommons.org/ns#"
   xmlns:rdf="http://www.w3.org/1999/02/22-rdf-syntax-ns#"
   xmlns:svg="http://www.w3.org/2000/svg"
   xmlns="http://www.w3.org/2000/svg"
   xmlns:sodipodi="http://sodipodi.sourceforge.net/DTD/sodipodi-0.dtd"
   xmlns:inkscape="http://www.inkscape.org/namespaces/inkscape"
   width="300"
   height="300"
   id="svg2"
   version="1.1"
   inkscape:version="0.48.4 r9939"
   sodipodi:docname="image-seal.svg">
  <defs
     id="defs4" />
  <sodipodi:namedview
     id="base"
     pagecolor="#ffffff"
     bordercolor="#666666"
     borderopacity="1.0"
     inkscape:pageopacity="0.0"
     inkscape:pageshadow="2"
     inkscape:zoom="1.979899"
     inkscape:cx="145.62149"
     inkscape:cy="130.00722"
     inkscape:document-units="px"
     inkscape:current-layer="layer1"
     showgrid="false"
     inkscape:window-width="1215"
     inkscape:window-height="1000"
     inkscape:window-x="65"
     inkscape:window-y="24"
     inkscape:window-maximized="1"
     fit-margin-top="10"
     fit-margin-left="10"
     fit-margin-right="10"
     fit-margin-bottom="10" />
  <metadata
     id="metadata7">
    <rdf:RDF>
      <cc:Work
         rdf:about="">
        <dc:format>image/svg+xml</dc:format>
        <dc:type
           rdf:resource="http://purl.org/dc/dcmitype/StillImage" />
        <dc:title />
      </cc:Work>
    </rdf:RDF>
  </metadata>
  <g
     inkscape:label="Calque 1"
     inkscape:groupmode="layer"
     id="layer1"
     transform="translate(0,-752.36218)">
    <path
       style="fill:#000000"
       d="m 140.47326,1045.3654 c -1.03363,-2.6937 -0.3001,-7.4266 1.63046,-10.5176 1.93038,-3.0911 3.50979,-8.094 3.50979,-11.1177 0,-3.0237 1.16862,-6.7935 2.59692,-8.3774 4.50192,-4.9924 9.81596,-103.45901 8.9896,-166.57414 -0.43657,-33.34513 0.23342,-63.55007 1.48911,-67.12209 2.76546,-7.86754 11.83349,-11.39546 40.78756,-15.86832 29.21895,-4.51378 38.62931,-4.29282 43.03062,1.01045 6.17128,7.43594 0.56175,11.49371 -13.13152,9.49903 -16.48954,-2.40203 -46.75931,2.76838 -53.86741,9.20111 -5.23861,4.74086 -5.64387,10.98092 -5.64387,86.89924 0,96.55988 -4.43912,143.36672 -15.92861,167.95432 -4.03334,8.6314 -11.06883,11.2512 -13.46265,5.0131 z m -70.598138,-39.3665 c -4.54282,-1.9101 -9.26716,-6.69138 -10.49847,-10.62499 -3.65748,-11.68413 -5.15319,-93.9 -1.78221,-97.9618 1.95239,-2.35247 2.0045,-7.16402 0.14793,-13.63804 -1.85632,-6.47268 -1.79682,-12.00631 0.16855,-15.67876 3.68454,-6.88465 6.9065,-7.16732 11.98242,-1.05122 3.00352,3.61904 3.11274,9.00028 0.50245,24.75291 -1.83447,11.07071 -2.85413,20.92577 -2.26589,21.90018 0.58824,0.97441 1.97576,18.11153 3.08333,38.08251 2.12293,38.27849 3.2206,40.86229 17.39355,40.94283 l 8.16774,0.0464 0.92639,-40.16573 c 0.50948,-22.09116 0.54341,-56.18505 0.0755,-75.76422 l -0.851,-35.59848 -13.41293,-3.37741 c -18.63808,-4.69311 -23.71588,-13.43036 -23.96005,-41.22741 -0.24251,-27.60841 2.60737,-30.81166 31.87965,-35.83275 34.032408,-5.83761 40.869428,-0.30162 43.133898,34.92655 1.45473,22.63089 -4.9831,37.44832 -17.65185,40.62799 l -7.37549,1.85114 -0.11853,45.10621 c -0.0916,34.81972 0.83784,45.89997 4.07517,48.58674 3.22114,2.67328 5.32282,2.35144 9.062,-1.38773 3.74487,-3.74487 4.94562,-11.63833 5.20375,-34.20762 0.18461,-16.13666 0.0724,-32.51821 -0.24888,-36.40344 -0.46692,-5.64424 0.72044,-6.86279 5.90749,-6.06275 6.16272,0.95052 6.54692,2.90755 7.57689,38.59691 1.19345,41.35388 -0.96198,51.82998 -10.66396,51.82998 -14.43699,0 -17.92222,4.92208 -16.66796,23.53964 0.64411,9.56117 1.27557,19.07299 1.40323,21.13742 0.12762,2.06443 2.61932,3.55344 5.53702,3.30893 12.15818,-1.01891 18.9461,0.77439 18.9461,5.00535 0,2.46911 -3.4103,5.19736 -7.57844,6.06276 -4.16814,0.8654 -11.32977,2.4391 -15.91473,3.4971 -14.08683,3.2506 -37.490418,2.8355 -46.182468,-0.8192 z M 116.21383,820.27896 c 3.03049,-3.0305 3.46259,-30.69223 0.61934,-39.65043 -1.01394,-3.19471 -4.45515,-6.63744 -7.64713,-7.65053 -8.11454,-2.57545 -27.026568,3.16424 -31.989048,9.70853 -7.5478,9.95368 -4.09973,34.42882 5.7534,40.83921 4.14277,2.69523 29.828558,0.18795 33.263438,-3.24678 z m 78.86298,124.67838 c -5.93856,-4.70036 -6.82588,-9.12338 -8.65231,-43.12969 -1.1193,-20.84072 -2.1691,-38.57427 -2.33289,-39.40789 -0.16369,-0.83363 0.74175,-6.73469 2.01223,-13.11346 1.86648,-9.37099 4.29373,-12.42665 12.6419,-15.91473 15.55257,-6.49827 29.62158,-5.4656 38.57414,2.83134 6.66378,6.17579 8.00868,10.69627 9.8855,33.2274 3.22123,38.67038 0.98062,66.98871 -5.90203,74.59395 -7.47286,8.2574 -36.22991,8.82545 -46.22654,0.91308 z m 32.38385,-12.75118 c 3.52034,-2.22488 4.62579,-9.91485 4.89571,-34.05657 0.4772,-42.6839 -0.99081,-50.55196 -9.84649,-52.7746 -3.94609,-0.99041 -10.58502,-0.94481 -14.75316,0.10125 l -7.57844,1.90207 0,40.25955 c 0,27.27114 1.17357,41.43313 3.63765,43.89721 4.33226,4.33226 17.27072,4.69945 23.64473,0.67103 z"
       id="path3146"
       inkscape:connector-curvature="0" />
  </g>
</svg>
