<?xml version="1.0" encoding="UTF-8" standalone="no"?>
<!-- Created with Inkscape (http://www.inkscape.org/) -->

<svg
   xmlns:dc="http://purl.org/dc/elements/1.1/"
   xmlns:cc="http://creativecommons.org/ns#"
   xmlns:rdf="http://www.w3.org/1999/02/22-rdf-syntax-ns#"
   xmlns:svg="http://www.w3.org/2000/svg"
   xmlns="http://www.w3.org/2000/svg"
   xmlns:sodipodi="http://sodipodi.sourceforge.net/DTD/sodipodi-0.dtd"
   xmlns:inkscape="http://www.inkscape.org/namespaces/inkscape"
   width="300"
   height="300"
   id="svg2"
   version="1.1"
   inkscape:version="0.48.4 r9939"
   sodipodi:docname="image-seal.svg">
  <defs
     id="defs4" />
  <sodipodi:namedview
     id="base"
     pagecolor="#ffffff"
     bordercolor="#666666"
     borderopacity="1.0"
     inkscape:pageopacity="0.0"
     inkscape:pageshadow="2"
     inkscape:zoom="2.0018437"
     inkscape:cx="145.03351"
     inkscape:cy="130.6666"
     inkscape:document-units="px"
     inkscape:current-layer="layer1"
     showgrid="false"
     inkscape:window-width="1215"
     inkscape:window-height="1000"
     inkscape:window-x="65"
     inkscape:window-y="24"
     inkscape:window-maximized="1"
     fit-margin-top="10"
     fit-margin-left="10"
     fit-margin-right="10"
     fit-margin-bottom="10" />
  <metadata
     id="metadata7">
    <rdf:RDF>
      <cc:Work
         rdf:about="">
        <dc:format>image/svg+xml</dc:format>
        <dc:type
           rdf:resource="http://purl.org/dc/dcmitype/StillImage" />
        <dc:title></dc:title>
      </cc:Work>
    </rdf:RDF>
  </metadata>
  <g
     inkscape:label="Calque 1"
     inkscape:groupmode="layer"
     id="layer1"
     transform="translate(0,-752.36218)">
    <path
       style="fill:#000000"
       d="m 181.29035,1045.312 c -3.26975,-2.3908 -4.53733,-7.1687 -4.53733,-17.1024 0,-12.0428 1.1248,-14.9428 8.90146,-22.9502 4.89581,-5.041 10.34546,-9.16551 12.11034,-9.16551 1.76485,0 2.49173,-1.16032 1.61527,-2.57847 -0.87649,-1.41817 1.43544,-3.33871 5.13756,-4.26789 3.70212,-0.92917 6.17168,-2.59467 5.48785,-3.70112 -0.68382,-1.10645 1.39828,-7.25453 4.62688,-13.66246 5.3366,-10.59176 5.81931,-15.09631 5.31051,-49.5581 -0.30784,-20.84905 -1.82605,-40.27358 -3.37382,-43.16563 -2.00746,-3.75097 -1.98095,-5.25826 0.0924,-5.25826 1.59861,0 2.16782,-1.19536 1.26487,-2.65635 -0.90294,-1.46099 -6.39465,-2.65634 -12.20378,-2.65634 -14.89817,0 -23.65689,-6.38533 -23.65689,-17.24652 0,-10.43853 -3.29276,-13.39122 -17.26625,-15.48307 -7.55035,-1.1303 -12.73397,-4.08418 -17.91124,-10.20669 -6.35196,-7.51167 -7.11978,-10.28426 -5.9903,-21.6311 2.777,-27.89746 13.45939,-36.03902 47.55792,-36.24619 18.39182,-0.11183 22.07634,0.69336 29.66602,6.48228 9.92661,7.57141 13.07446,17.85436 10.57266,34.53744 -2.29006,15.27131 -10.72205,24.65142 -24.05717,26.76229 -5.83995,0.92443 -11.3153,2.10762 -12.16745,2.6293 -2.64014,1.61631 0.71302,17.49584 3.87407,18.34643 34.37041,9.24855 35.90639,11.49924 37.68534,55.22145 0.72133,17.72864 0.13043,25.89938 -1.87304,25.89938 -1.92691,0 -1.76517,1.39973 0.47344,4.09709 2.57551,3.10331 2.65441,4.843 0.32527,7.17214 -1.69127,1.69127 -3.07504,6.27604 -3.07504,10.18841 0,12.40844 -7.31024,25.2358 -19.70313,34.57325 -15.87401,11.96034 -24.62308,29.53394 -20.44959,41.07554 1.63012,4.5081 2.96387,8.8802 2.96387,9.7159 0,3.4104 -7.16156,3.9353 -11.40074,0.8354 z m 2.48302,-234.87793 c 0.20879,-7.83901 1.08992,-18.69574 1.95828,-24.12608 1.91313,-11.964 0.40961,-13.87991 -7.91549,-10.08676 -7.18055,3.27169 -6.91959,2.15945 -6.38062,27.19551 0.44807,20.81248 1.30544,23.32163 7.55741,22.11759 3.38501,-0.65189 4.48854,-4.13766 4.78042,-15.10026 z m 27.04949,10.68313 c 5.91714,-3.75145 6.92031,-22.36173 1.78831,-33.17662 -3.7174,-7.83383 -6.04471,-9.66708 -12.27235,-9.66708 l -7.68505,0 1.03258,19.66774 c 0.5679,10.81726 1.84217,20.97778 2.83177,22.57895 2.12683,3.44129 9.34338,3.74247 14.30474,0.59701 z M 161.1596,796.72326 c -0.26765,-19.01405 -1.45966,-21.40893 -7.10323,-14.27133 -2.85661,3.61287 -3.66462,8.84943 -2.74656,17.7997 2.59159,25.26493 10.21666,22.53349 9.84979,-3.52837 z M 120.4312,1002.639 c -0.7832,-0.7833 -9.45466,-1.4857 -19.26991,-1.561 -9.81522,-0.075 -21.96687,-1.85887 -27.00359,-3.96333 L 65,993.28833 66.17395,931.60287 c 1.46261,-76.85229 2.9041,-89.57706 10.14764,-89.57706 5.1718,0 5.26907,1.25876 3.74651,48.47831 -0.85973,26.66308 -2.27947,56.03292 -3.155,65.2663 -1.54179,16.2601 1.95683,32.35443 7.03329,32.35443 3.89128,0 5.01082,-4.2899 6.66955,-25.55668 2.07142,-26.55837 3.02696,-36.1894 3.9213,-39.5238 0.39187,-1.461 -0.17266,-4.66925 -1.25427,-7.12948 -1.08172,-2.4602 -1.27375,-10.82769 -0.42674,-18.59442 0.84703,-7.76671 2.30403,-28.16673 3.23784,-45.33337 1.599597,-29.40641 1.407807,-31.21549 -3.31541,-31.27114 -2.75729,-0.0324 -8.00163,-2.35514 -11.65411,-5.16149 -5.88774,-4.52376 -6.61988,-7.00354 -6.45585,-21.86609 0.15593,-14.13224 1.24623,-17.90874 6.94547,-24.05831 3.71825,-4.01207 8.73149,-7.29465 11.1405,-7.29465 2.40902,0 6.680767,-1.43682 9.49278,-3.19295 4.06426,-2.53817 6.64431,-2.40201 12.58159,0.66408 15.66721,8.09078 17.95295,12.03894 18.52669,32.00114 0.52662,18.32316 0.39248,18.72634 -7.9174,23.79324 -4.64922,2.83485 -10.36331,5.15873 -12.698,5.16417 -3.55268,0.008 -4.59896,5.53301 -6.41592,33.87835 -1.19406,18.62763 -2.27224,44.62662 -2.39598,57.77553 l -0.22499,23.90712 7.58764,0.8678 c 4.17318,0.47729 7.00309,-0.12033 6.28866,-1.32818 -1.88462,-3.1861 2.73389,-14.14953 5.96071,-14.14953 1.50806,0 2.74193,3.40318 2.74193,7.56259 0,8.52289 -7.77916,19.00087 -14.10676,19.00087 -7.83141,0 -11.32475,9.08184 -9.8547,25.61991 l 1.38252,15.55346 10.5917,0.86201 c 13.12265,1.06801 18.63523,4.95374 14.3511,10.11587 -3.18586,3.8387 -5.86449,4.5587 -8.2151,2.2081 z m 0.1121,-199.25519 c 3.8237,-8.39217 3.99094,-23.76254 0.33292,-30.59763 -2.07166,-3.87094 -5.59937,-5.13807 -14.3044,-5.13807 -15.33342,0 -21.2492,8.02012 -18.65858,25.29575 1.65299,11.02291 2.3713,11.86306 11.433337,13.37319 5.318253,0.88624 10.864883,2.01675 12.325873,2.51227 5.08348,1.7241 5.8063,1.28038 8.87082,-5.44551 z m 35.73077,187.17104 c -16.05928,-7.94925 -18.15567,-20.8918 -5.90636,-36.46428 5.89515,-7.49446 6.04747,-21.74899 0.23244,-21.74899 -5.30661,0 -14.15607,-10.89822 -12.45312,-15.3361 0.7794,-2.03107 1.41709,-5.19788 1.41709,-7.03738 0,-1.83949 4.93525,-8.37926 10.96723,-14.53279 10.36849,-10.57744 10.87885,-11.8332 9.34802,-23.00167 -0.89056,-6.49737 -0.71238,-11.81341 0.39598,-11.81341 4.49839,0 11.16492,11.19289 11.16492,18.74552 0,8.55641 -10.02367,21.09967 -16.86132,21.09967 -8.75999,0 -9.49835,19.01479 -1.06902,27.52971 12.25309,12.37748 12.80139,13.652 9.70034,22.54762 -1.60332,4.59926 -3.99352,8.36229 -5.3116,8.36229 -1.31805,0 -2.39648,3.3777 -2.39648,7.50601 0,9.39839 9.84774,19.05745 19.42971,19.05745 7.5105,0 8.36834,-2.27099 7.52554,-19.9226 -0.5611,-11.75215 5.2737,-17.83901 15.97503,-16.66511 l 8.86847,0.97283 -7.46951,3.19436 c -7.14504,3.0556 -7.43538,3.88326 -6.68361,19.05251 0.65742,13.26516 -0.0757,16.50946 -4.48404,19.84129 -7.40401,5.5961 -19.31254,5.08616 -32.38968,-1.38693 z m 19.61869,-61.93604 c -1.6196,-4.22064 5.19363,-6.69874 19.4546,-7.07605 5.11347,-0.13521 7.80506,-0.84823 5.98135,-1.5843 -1.94248,-0.78399 -2.70533,-3.77089 -1.84181,-7.21145 1.48448,-5.91459 -6.35727,-15.85222 -13.01206,-16.48985 -1.69459,-0.1623 -4.57523,-0.47729 -6.40147,-0.69984 -1.82624,-0.2226 -3.32043,-2.19762 -3.32043,-4.38911 0,-2.79304 2.81801,-3.98452 9.42405,-3.98452 19.18963,0 30.7798,25.48034 17.58984,38.67029 -7.41266,7.41267 -25.40566,9.19739 -27.87407,2.76483 z m -56.98567,-49.85993 c 0.61497,-34.09612 1.38237,-40.71759 4.71892,-40.71759 3.36456,0 3.98452,6.19409 3.98452,39.80882 0,36.02715 -0.44828,39.89514 -4.71892,40.71759 -4.38058,0.84361 -4.66627,-2.01058 -3.98452,-39.80882 z"
       id="path3186"
       inkscape:connector-curvature="0" />
  </g>
</svg>
