<?xml version="1.0" encoding="UTF-8" standalone="no"?>
<!-- Created with Inkscape (http://www.inkscape.org/) -->

<svg
   xmlns:dc="http://purl.org/dc/elements/1.1/"
   xmlns:cc="http://creativecommons.org/ns#"
   xmlns:rdf="http://www.w3.org/1999/02/22-rdf-syntax-ns#"
   xmlns:svg="http://www.w3.org/2000/svg"
   xmlns="http://www.w3.org/2000/svg"
   xmlns:sodipodi="http://sodipodi.sourceforge.net/DTD/sodipodi-0.dtd"
   xmlns:inkscape="http://www.inkscape.org/namespaces/inkscape"
   width="300"
   height="300"
   viewBox="0 0 300 300"
   id="svg2"
   version="1.1"
   inkscape:version="0.91 r13725"
   sodipodi:docname="輕-seal.svg">
  <defs
     id="defs4" />
  <sodipodi:namedview
     id="base"
     pagecolor="#ffffff"
     bordercolor="#666666"
     borderopacity="1.0"
     inkscape:pageopacity="0.0"
     inkscape:pageshadow="2"
     inkscape:zoom="1.24"
     inkscape:cx="183.73753"
     inkscape:cy="152.60298"
     inkscape:document-units="px"
     inkscape:current-layer="layer1"
     showgrid="false"
     units="px"
     inkscape:window-width="924"
     inkscape:window-height="649"
     inkscape:window-x="8"
     inkscape:window-y="30"
     inkscape:window-maximized="0" />
  <metadata
     id="metadata7">
    <rdf:RDF>
      <cc:Work
         rdf:about="">
        <dc:format>image/svg+xml</dc:format>
        <dc:type
           rdf:resource="http://purl.org/dc/dcmitype/StillImage" />
        <dc:title></dc:title>
      </cc:Work>
    </rdf:RDF>
  </metadata>
  <g
     inkscape:label="Layer 1"
     inkscape:groupmode="layer"
     id="layer1"
     transform="translate(0,-752.36216)">
    <path
       style="fill:#000000"
       d="m 101.71857,1037.2416 c -2.472421,-0.9927 -2.778801,-9.318 -1.44403,-39.23796 l 1.69425,-37.97795 -14.619151,1.528 c -15.46872,1.61681 -20.31544,-0.42552 -20.31544,-8.5606 0,-3.79859 2.24074,-4.39231 16.57707,-4.39231 l 16.577081,0 2.75096,-10.3065 c 3.05675,-11.45214 2.3603,-14.0938 -3.716861,-14.09818 -2.26946,-0.002 -7.1868,-2.63514 -10.92742,-5.85221 -5.87642,-5.05393 -7.09362,-8.45422 -8.95238,-25.00877 -2.32294,-20.6887 0.25512,-42.18575 6.16153,-51.37778 1.9166,-2.98277 7.11113,-6.06231 11.6677,-6.91713 6.673971,-1.25205 8.692251,-3.10208 10.770091,-9.87232 3.23964,-10.5557 1.19878,-11.99659 -16.991761,-11.99659 -13.89006,0 -21.04268,-3.31905 -17.94699,-8.32798 0.90453,-1.46357 8.6469,-2.65279 17.27075,-2.65279 18.346661,0 20.683301,-2.43343 20.683301,-21.54005 0,-8.92372 1.04206,-12.50008 3.96954,-13.62346 7.7409,-2.97046 11.15205,3.39353 10.27395,19.1675 l -0.82255,14.77592 13.81416,0.72535 c 9.92287,0.52103 14.23509,1.8223 15.3085,4.61956 2.12335,5.53336 0.60819,6.31603 -14.68191,7.58401 -11.43047,0.9479 -14.04319,2.06763 -16.28013,6.97718 -3.12646,6.86184 -1.77799,8.37125 11.51046,12.88421 16.93891,5.75272 18.9125,10.75472 19.08425,48.36828 0.13172,28.84522 -2.53058,33.90262 -20.90947,39.72056 -13.00593,4.1171 -11.93465,2.95683 -13.2509,14.35179 -1.02837,8.90281 -0.56578,9.89878 5.27894,11.36571 3.52334,0.88431 9.61742,0.96556 13.5424,0.18055 6.94011,-1.38801 14.64566,2.97965 14.64566,8.30147 0,3.142 -11.08335,5.53509 -18.80175,4.05963 -8.09745,-1.54793 -12.92047,0.17449 -12.92047,4.61423 0,1.86955 -1.09807,3.39918 -2.44017,3.39918 -1.48341,0 -2.44017,10.8558 -2.44017,27.68709 0,20.29576 -1.02483,29.74136 -3.83898,35.38236 -3.89833,7.8145 -4.70445,8.2889 -10.28006,6.05 z m 3.10741,-137.26155 c 1.45129,-8.59011 -1.43077,-19.70405 -5.109631,-19.70405 -3.35446,0 -8.27709,7.54266 -8.24713,12.6366 0.10754,18.28129 10.530431,23.79635 13.356761,7.06745 z m 27.11702,7.7105 c 3.39936,-2.27021 5.93616,-20.89663 3.40399,-24.99377 -1.20515,-1.94997 -4.24038,-2.49502 -8.2667,-1.48448 -5.2037,1.30605 -6.36841,3.0326 -6.39566,9.48091 -0.0183,4.33624 -0.69543,10.35474 -1.50468,13.37445 -1.22401,4.56735 -0.50049,5.48411 4.30362,5.45302 3.17624,-0.0205 6.98298,-0.84411 8.45943,-1.83013 z m 1.13622,-37.26109 c 8.56256,-4.58254 3.38429,-25.18648 -5.98592,-23.81753 -3.77902,0.5521 -5.15223,2.92004 -5.84176,10.07344 -1.48914,15.44864 1.70575,19.16119 11.82768,13.74409 z m -27.00229,-12.115 c 0,-8.73643 -0.95449,-12.20086 -3.36147,-12.20086 -4.909841,0 -7.975911,4.8875 -9.567461,15.25107 -1.35388,8.81604 -1.1432,9.15064 5.76183,9.15064 6.973741,0 7.167101,-0.32916 7.167101,-12.20085 z m 77.54237,152.37424 c -0.82955,-0.8295 -10.92027,-1.482 -22.42382,-1.45 -15.71402,0.044 -21.85798,-0.8841 -24.70505,-3.7312 -6.94206,-6.94196 -2.76512,-9.35886 14.97743,-8.66626 9.25838,0.3614 18.36886,-0.3531 20.24551,-1.5877 2.4761,-1.6291 3.67734,-9.67449 4.37909,-29.32918 l 0.967,-27.08426 -9.49128,0 c -6.13914,0 -10.93559,-1.59595 -13.58071,-4.51878 -3.94562,-4.35985 -3.25088,-4.58258 19.75321,-6.33271 40.62363,-3.0906 54.34478,-1.55507 54.34478,6.08172 0,4.18466 -1.73614,4.76977 -14.15299,4.76977 -7.78414,0 -15.47068,1.31769 -17.08119,2.92821 -1.91599,1.91598 -2.92821,12.03817 -2.92821,29.28205 l 0,26.35388 19.52137,0 c 19.22204,0 19.52136,0.094 19.52136,6.13106 0,6.0718 -0.19445,6.1287 -20.1314,5.8922 -11.07228,-0.1313 -21.83588,0.438 -23.91913,1.2653 -2.08324,0.8273 -4.46643,0.8254 -5.29597,0 z m -15.43999,-101.328 c -2.85959,-4.62692 -8.24166,-29.98342 -8.3317,-39.25313 -0.0478,-4.92158 2.11478,-14.08471 4.80575,-20.3625 l 4.89269,-11.41417 -5.98073,-11.90735 c -3.32024,-6.61045 -4.96653,-12.53416 -3.70083,-13.31641 1.25394,-0.77498 6.13583,1.66762 10.84865,5.42798 7.26227,5.79458 8.56878,8.34386 8.56884,16.71972 4e-5,5.43548 -1.12541,11.00817 -2.50098,12.38375 -4.2319,4.2319 -5.16171,37.60433 -1.35125,48.49852 2.37778,6.79813 2.64918,10.68648 0.89419,12.8109 -3.09649,3.74829 -5.99243,3.89503 -8.14463,0.41269 z m 48.41629,-2.76265 c -5.31678,-11.19476 -8.17794,-32.06645 -5.61314,-40.94697 3.32988,-11.52957 3.11483,-37.39635 -0.37458,-45.05476 -4.65199,-10.21002 0.0265,-10.34123 9.26231,-0.25977 8.21571,8.96793 8.55708,10.03466 6.99964,21.87269 -1.63106,12.39766 -1.91125,36.75989 -0.66171,57.53476 0.49984,8.31028 -0.25516,11.1079 -3.15242,11.68103 -2.09532,0.41449 -5.00237,-1.75765 -6.4601,-4.82698 z m -29.63624,-14.62758 c -2.43181,-13.99769 -2.47481,-21.70017 -0.20154,-36.09618 3.6105,-22.86432 3.59963,-23.13548 -1.49626,-37.34368 -3.32943,-9.28303 -5.27732,-11.63842 -9.36213,-11.32071 -13.50918,1.05072 -16.4955,-0.0174 -15.69842,-5.61482 0.75416,-5.29601 1.78118,-5.49916 31.28189,-6.18765 35.58075,-0.83038 41.4829,0.14133 41.4829,6.82959 0,4.41254 -1.6889,4.83385 -19.37735,4.83385 -11.40754,0 -20.0566,1.09904 -21.02883,2.67215 -0.90832,1.46969 0.81117,6.00308 3.82109,10.07421 4.98615,6.74412 5.2875,8.83825 3.39037,23.55969 -1.84794,14.33965 -1.8987,26.82623 -0.22934,56.42045 0.39117,6.9346 -0.45588,8.6748 -4.50456,9.2543 -4.40424,0.63039 -5.34722,-1.3636 -8.07782,-17.0812 z"
       id="path3747"
       inkscape:connector-curvature="0" />
  </g>
</svg>
