<?xml version="1.0" encoding="UTF-8" standalone="no"?>
<!-- Created with Inkscape (http://www.inkscape.org/) -->

<svg
   xmlns:dc="http://purl.org/dc/elements/1.1/"
   xmlns:cc="http://creativecommons.org/ns#"
   xmlns:rdf="http://www.w3.org/1999/02/22-rdf-syntax-ns#"
   xmlns:svg="http://www.w3.org/2000/svg"
   xmlns="http://www.w3.org/2000/svg"
   xmlns:sodipodi="http://sodipodi.sourceforge.net/DTD/sodipodi-0.dtd"
   xmlns:inkscape="http://www.inkscape.org/namespaces/inkscape"
   width="300"
   height="300"
   id="svg2"
   version="1.1"
   inkscape:version="0.48.4 r9939"
   sodipodi:docname="image-seal.svg">
  <defs
     id="defs4" />
  <sodipodi:namedview
     id="base"
     pagecolor="#ffffff"
     bordercolor="#666666"
     borderopacity="1.0"
     inkscape:pageopacity="0.0"
     inkscape:pageshadow="2"
     inkscape:zoom="2.0018437"
     inkscape:cx="138.54008"
     inkscape:cy="168.92159"
     inkscape:document-units="px"
     inkscape:current-layer="layer1"
     showgrid="false"
     inkscape:window-width="1215"
     inkscape:window-height="1000"
     inkscape:window-x="65"
     inkscape:window-y="24"
     inkscape:window-maximized="1"
     fit-margin-top="10"
     fit-margin-left="10"
     fit-margin-right="10"
     fit-margin-bottom="10" />
  <metadata
     id="metadata7">
    <rdf:RDF>
      <cc:Work
         rdf:about="">
        <dc:format>image/svg+xml</dc:format>
        <dc:type
           rdf:resource="http://purl.org/dc/dcmitype/StillImage" />
        <dc:title />
      </cc:Work>
    </rdf:RDF>
  </metadata>
  <g
     inkscape:label="Calque 1"
     inkscape:groupmode="layer"
     id="layer1"
     transform="translate(0,-752.36218)">
    <path
       style="fill:#000000"
       d="m 186.82305,1043.4321 c -2.36695,-2.8519 -3.13885,-13.7579 -2.74932,-38.8439 0.44245,-28.49473 -0.12488,-34.87868 -3.09882,-34.87868 -8.54733,0 -15.28675,14.32086 -20.38165,43.30968 -3.37821,19.2212 -7.32711,24.2474 -14.42331,18.3581 -2.5243,-2.095 -3.32724,-5.8229 -2.38013,-11.0505 0.78613,-4.3389 2.59697,-14.6508 4.0241,-22.91545 3.49764,-20.25508 12.30523,-37.23877 21.39922,-41.26415 6.77442,-2.99864 9.89292,-7.15026 5.37647,-7.15761 -1.0682,-10e-4 -5.37943,-2.95916 -9.58045,-6.57202 -6.74072,-5.79698 -7.68458,-8.37368 -8.03257,-21.92823 -0.22607,-8.8117 -1.93774,-17.21015 -4.01491,-19.70096 -1.99135,-2.3879 -4.98263,-7.37658 -6.64732,-11.08598 l -3.02665,-6.74437 -0.21029,6.92268 c -0.26464,8.71117 -11.04639,21.76613 -19.78796,23.96015 -5.39182,1.35326 -6.49204,2.99368 -5.83423,8.69884 0.73028,6.33376 1.96135,7.11292 12.41308,7.8565 22.96084,1.63355 22.72696,13.41736 -0.26629,13.41736 l -12.63089,0 0,43.50522 c 0,30.38462 -0.93721,44.44242 -3.10752,46.61272 -8.65414,8.6542 -10.84829,0.2599 -12.38696,-47.3896 l -1.3379,-41.43356 -16.83238,-0.12141 C 60.9076,944.82535 60,944.59034 60,938.95142 c 0,-8.42428 5.98674,-10.93015 21.70077,-9.08327 12.45021,1.46328 14.55359,1.09757 14.55359,-2.53045 0,-2.3325 -1.08681,-4.24094 -2.41509,-4.24094 -1.3283,0 -3.10958,-2.18813 -3.9584,-4.86254 -0.84882,-2.67438 -4.42187,-8.20963 -7.94015,-12.30058 -6.76996,-7.87193 -7.51076,-13.75132 -6.48407,-51.46119 0.53254,-19.55946 4.91584,-29.78037 12.77153,-29.78037 6.08978,0 11.641665,-6.53933 9.745995,-11.47935 -1.065225,-2.77596 -3.955025,-3.3699 -10.907235,-2.24171 -6.62541,1.07518 -10.14418,0.45129 -11.74888,-2.08305 -4.78185,-7.55211 -2.38044,-9.82061 11.22531,-10.60393 l 13.59538,-0.78273 0.78519,-16.73307 c 0.84103,-17.92275 3.46121,-23.40568 11.18507,-23.40568 5.31552,0 5.22115,-0.35975 5.77338,22.01157 l 0.38354,15.53759 13.43648,1.35172 c 15.49118,1.55838 18.38171,3.43095 13.80623,8.94407 -2.11552,2.54904 -7.74932,3.94698 -15.90662,3.94698 -11.7207,0 -12.63089,0.46298 -12.63089,6.42467 0,4.85599 1.73876,6.85402 7.12139,8.1832 6.89044,1.70155 18.45764,12.47727 19.06668,17.7621 0.16418,1.42428 0.68876,5.92899 1.16584,10.01045 1.11992,9.58141 3.72124,12.21715 3.72124,3.77048 0,-10.43634 18.05486,-22.1049 26.70918,-17.26171 7.37033,4.12465 5.25671,11.53969 -4.0502,14.20888 -10.8297,3.10591 -10.78893,9.29044 0.0824,12.48955 10.39117,3.05782 10.23108,10.07485 -0.25739,11.28127 -3.98871,0.45881 -7.89642,2.51295 -8.68377,4.56479 -1.89886,4.9483 3.71908,11.43342 9.9046,11.43342 2.71888,0 5.60264,1.71805 6.40843,3.81785 1.68559,4.39258 -4.66268,11.71974 -10.154,11.71974 -2.87751,0 -2.31048,2.77854 2.51018,12.30058 11.05152,21.82954 12.49022,17.35515 12.49022,-38.84467 0,-52.42005 0.49798,-54.78977 10.04652,-47.80769 3.8448,2.81139 4.63545,8.00465 5.02674,33.01736 0.51033,32.62214 0.60858,32.76393 17.26502,24.91053 10.80766,-5.09573 9.60406,-11.11132 -2.61404,-13.0651 -8.22204,-1.31472 -10.46557,-2.72712 -9.81216,-6.17711 0.55314,-2.92058 3.7603,-4.75425 9.24208,-5.28413 6.2977,-0.60874 8.39499,-2.06437 8.39499,-5.82659 0,-3.82035 -1.80923,-5.01511 -7.59428,-5.01511 -8.26697,0 -13.42419,-8.50295 -8.27833,-13.64882 2.85398,-2.85396 21.35168,1.52113 28.17319,6.66355 3.5587,2.68275 4.75865,48.41882 1.27034,48.41882 -4.15375,0 -8.90577,10.88019 -6.01474,13.77121 8.76299,8.76298 -2.24803,31.61103 -16.52485,34.28937 -10.75476,2.01761 -14.03482,5.60599 -7.43818,8.13737 6.74955,2.59003 21.58605,18.08605 21.58605,22.5456 0,2.09982 1.16531,4.53809 2.5896,5.41835 1.42428,0.88026 2.58958,4.21193 2.58958,7.4037 0,3.19179 1.26844,7.07167 2.81876,8.622 1.55031,1.5503 3.00695,10.8146 3.237,20.5873 0.386,16.3987 -0.0125,17.8301 -5.18594,18.5669 -3.64032,0.5186 -6.06809,-0.8426 -6.92804,-3.8844 -1.92907,-6.8233 -5.41022,-22.392 -5.6793,-25.3995 -0.73796,-8.248 -9.51797,-32.18292 -12.80686,-34.91246 -6.02399,-4.99947 -7.10326,1.21729 -5.796,33.38636 0.63893,15.7222 0.5991,31.5286 -0.0885,35.1253 -1.42132,7.4352 -8.51744,8.7724 -13.66147,2.5742 z m 24.52148,-115.73235 c 2.21718,-3.16546 4.03122,-8.48792 4.03122,-11.82767 0,-4.89384 -1.00512,-5.75328 -5.17919,-4.42849 -2.84855,0.90411 -5.17919,0.62269 -5.17919,-0.62533 0,-1.24806 -1.72325,-4.5312 -3.82944,-7.29592 -3.53416,-4.63912 -3.81461,-4.02835 -3.63697,7.92125 0.33717,22.6822 5.24298,28.46386 13.79357,16.25616 z M 99.882435,883.59295 c 1.294395,-11.00612 0.910355,-12.28811 -3.681065,-12.28811 -5.27034,0 -6.07729,1.97169 -5.18069,12.65846 0.42716,5.09118 5.34477,13.77783 6.972485,12.31644 0.24419,-0.21935 1.09442,-5.92831 1.88927,-12.68679 z m 23.350835,9.44639 c 5.30587,-2.03603 5.6876,-20.5697 0.46498,-22.57382 -5.39105,-2.06873 -6.72716,0.49822 -6.72716,12.92411 0,11.99411 0.0305,12.04106 6.26218,9.64971 z m -22.28309,-44.41469 c 0.66404,-6.86996 -0.10434,-8.39498 -4.22991,-8.39498 -3.44074,0 -5.47271,2.25637 -6.39989,7.10663 -1.65531,8.65912 -0.12461,11.56514 5.52798,10.49533 2.723065,-0.51538 4.58677,-3.8787 5.10182,-9.20698 z m 26.37929,-0.62618 c 0,-6.04239 -1.15093,-7.7688 -5.1792,-7.7688 -4.02828,0 -5.17919,1.72641 -5.17919,7.7688 0,6.04238 1.15091,7.76878 5.17919,7.76878 4.02826,0 5.1792,-1.7264 5.1792,-7.76878 z m 85.78423,-29.1351 c -4.5866,-9.0363 -8.48251,-18.70476 -8.6576,-21.48544 -0.32723,-5.19779 14.89429,-29.65697 18.45625,-29.65697 1.09476,0 3.39234,3.0768 5.10578,6.83736 2.68745,5.89833 2.3889,7.61056 -2.17395,12.46748 -6.73333,7.16732 -6.71808,15.43812 0.0458,24.93731 7.46674,10.48605 7.92825,21.55637 0.94043,22.5586 -4.2929,0.61573 -7.05968,-2.54265 -13.71683,-15.65834 z m -55.52424,1.85646 c -7.08694,-14.86147 -5.78157,-30.21689 3.40476,-40.05089 4.27284,-4.57409 7.7688,-9.3586 7.7688,-10.63226 0,-3.26626 3.58421,-2.87487 7.25087,0.79179 4.88032,4.88036 3.67071,12.30792 -3.36648,20.67113 -7.52039,8.93747 -7.73398,10.84295 -2.78707,24.86399 2.0278,5.74742 2.99891,11.13787 2.158,11.97877 -4.04337,4.04334 -10.4898,0.63781 -14.42888,-7.62253 z m 33.67444,4.61966 c -3.40715,-5.95535 -7.49772,-29.2408 -6.1088,-34.77454 2.13755,-8.51674 11.50582,-20.25439 16.16583,-20.25439 5.33756,0 4.47814,10.50659 -1.48275,18.12716 -5.46075,6.98118 -6.77465,16.83548 -2.5896,19.42199 4.192,2.59079 3.20234,19.42198 -1.14197,19.42198 -2.05234,0 -4.2316,-0.87399 -4.84271,-1.9422 z"
       id="path3093"
       inkscape:connector-curvature="0" />
  </g>
</svg>
