<?xml version="1.0" encoding="UTF-8" standalone="no"?>
<svg
   xmlns:dc="http://purl.org/dc/elements/1.1/"
   xmlns:cc="http://creativecommons.org/ns#"
   xmlns:rdf="http://www.w3.org/1999/02/22-rdf-syntax-ns#"
   xmlns:svg="http://www.w3.org/2000/svg"
   xmlns="http://www.w3.org/2000/svg"
   viewBox="0 0 300 300"
   height="300"
   width="300"
   id="svg1716"
   version="1.1">
  <metadata
     id="metadata1722">
    <rdf:RDF>
      <cc:Work
         rdf:about="">
        <dc:format>image/svg+xml</dc:format>
        <dc:type
           rdf:resource="http://purl.org/dc/dcmitype/StillImage" />
        <dc:title></dc:title>
      </cc:Work>
    </rdf:RDF>
  </metadata>
  <defs
     id="defs1720" />
  <path
     id="path1726"
     d="m 234.38251,283.42661 c -1.42705,-2.19413 -2.41735,-5.72024 -2.95776,-10.53153 -0.77473,-6.89747 -7.00439,-40.24018 -9.00675,-48.2064 -1.33155,-5.2975 -2.13434,-7.36209 -2.76806,-7.11891 -0.49092,0.18838 -5.03855,0.55756 -10.10584,0.82038 -8.60945,0.44655 -9.70583,0.35453 -16.72931,-1.40406 -14.26502,-3.57179 -24.9747,-8.58889 -28.49333,-13.34809 -1.79738,-2.4311 -3.1997,-6.87101 -2.87462,-9.10143 0.5742,-3.93963 8.36897,-2.60576 14.2651,2.44111 9.40368,8.04919 20.07409,11.12095 32.24392,9.28223 3.03861,-0.4591 5.88574,-1.03694 6.32696,-1.28411 2.20661,-1.23607 -5.48944,-12.78305 -11.06894,-16.60759 -8.98647,-6.1599 -15.29545,-7.96126 -40.05651,-11.43709 -7.95886,-1.11724 -12.56375,-2.66214 -13.57672,-4.55489 -0.36875,-0.689 -0.67045,-2.33045 -0.67045,-3.64766 0,-2.07992 0.29522,-2.49857 2.24443,-3.18295 4.07565,-1.43099 12.2238,-1.6409 18.84867,-0.48557 7.20733,1.25692 23.16451,6.23236 32.96877,10.27965 6.22103,2.56811 7.10222,3.17818 11.12286,7.70078 2.40162,2.70145 6.10716,7.17967 8.23454,9.95163 l 3.86797,5.0399 1.8433,-2.91999 c 5.39862,-8.55198 4.88771,-14.64414 -1.75877,-20.97166 -5.16391,-4.91611 -5.98611,-8.66778 -2.79991,-12.77597 l 1.33901,-1.72648 3.83258,1.98755 c 5.36653,2.78304 9.14597,6.82243 12.03258,12.86019 2.23771,4.68051 2.4769,5.7449 2.48304,11.04948 0.009,7.67229 -1.43607,11.42672 -6.77756,17.61011 -2.29679,2.65878 -4.60569,5.34819 -5.13088,5.97647 -0.82564,0.98765 -0.61835,2.20317 1.53105,8.9777 2.72085,8.57565 9.98072,48.05659 10.54866,57.36626 0.31745,5.20353 0.2746,5.3837 -1.76557,7.42386 -2.59313,2.59315 -5.70412,2.82545 -7.19246,0.53708 z M 94.490801,277.55658 c -1.05276,-2.32367 -1.20877,-7.16361 -1.51859,-47.11131 l -0.3453,-44.52157 -3.10766,-0.63276 c -1.99171,-0.40555 -6.20755,-0.35008 -11.74007,0.15442 -11.28906,1.02947 -13.2533,0.99267 -16.50704,-0.30922 -1.8488,-0.73974 -3.07283,-1.82649 -3.81224,-3.38469 -1.6132,-3.39958 -1.36112,-4.35719 1.50063,-5.70061 2.22225,-1.04322 4.71243,-1.21602 17.5492,-1.21781 8.22771,-9.5e-4 15.10744,-0.15747 15.28829,-0.34738 0.18084,-0.18992 0.54702,-2.56327 0.81376,-5.27415 l 0.48495,-4.92885 -8.86731,-2.94288 c -9.50019,-3.15294 -11.45043,-4.38441 -15.78648,-9.96839 -6.22663,-8.01868 -9.22755,-17.84953 -9.80882,-32.13313 -0.60779,-14.93558 2.59293,-26.943266 8.70613,-32.661446 6.41011,-5.995901 8.50278,-6.972516 16.58133,-7.73821 l 7.28618,-0.690592 0.4466,-2.76237 c 0.24562,-1.519303 0.62455,-5.015428 0.84205,-7.769165 l 0.39544,-5.006796 -4.27603,-0.06334 c -2.3518,-0.03483 -8.37412,-0.273056 -13.38291,-0.529388 -8.33399,-0.426502 -9.25711,-0.607174 -10.87683,-2.128826 -1.36153,-1.279088 -1.76994,-2.340607 -1.76994,-4.600361 v -2.937592 l 3.62561,-0.410351 c 1.99409,-0.225693 8.74175,-0.880641 14.9948,-1.455438 7.10175,-0.652811 11.57417,-1.359887 11.91524,-1.883767 0.30033,-0.461274 0.49348,-6.277097 0.42926,-12.924049 -0.095,-9.824124 0.11545,-12.892956 1.12438,-16.401571 1.40656,-4.891396 2.21281,-5.262666 5.953759,-2.741642 3.64876,2.458898 4.20812,4.110056 3.79473,11.201399 -0.19928,3.418433 -0.5667,8.281467 -0.8165,10.806742 -0.24979,2.525275 -0.2445,5.98961 0.0118,7.698521 0.397,2.647392 0.78984,3.241277 2.6551,4.01389 2.54464,1.054025 7.73116,1.150244 17.46971,0.324094 8.13634,-0.690231 11.03599,0.203129 13.10016,4.036073 1.61595,3.000645 1.11947,4.029685 -2.89869,6.007925 -3.02488,1.489224 -4.10876,1.627462 -11.62308,1.482419 -4.5579,-0.08798 -10.54017,0.01623 -13.29391,0.23157 l -5.00679,0.391529 v 7.439906 7.439905 l 5.35209,0.830278 c 2.94366,0.456653 7.15841,1.110036 9.36611,1.451961 9.59672,1.486316 14.53883,6.460596 18.19668,18.315116 1.9155,6.207826 1.7015,24.927946 -0.39835,34.845426 -2.29431,10.83597 -4.36307,15.51664 -8.94448,20.2374 -4.39379,4.52742 -9.14054,7.03822 -17.87466,9.4548 l -5.69739,1.57637 v 4.65188 4.65186 l 2.15811,0.43162 c 1.18695,0.23739 7.10695,0.43162 13.15555,0.43162 13.87034,0 16.45359,1.06534 16.45359,6.78554 0,3.12423 -3.96221,4.52295 -12.43066,4.38822 -3.60835,-0.0574 -9.46148,0.0775 -13.00698,0.29979 l -6.44635,0.40417 0.16627,44.30174 c 0.17806,47.44625 0.19889,47.13581 -3.26584,48.71444 -3.276759,1.49299 -5.043309,0.983 -6.314569,-1.82297 z m -2.0999,-138.98174 c -0.12981,-7.02678 -0.28518,-12.82118 -0.3453,-12.87644 -0.0601,-0.0552 -4.88489,-0.21367 -10.72174,-0.35201 l -10.61245,-0.25152 0.33611,4.69759 c 0.36535,5.10628 3.15174,11.51459 6.62464,15.2358 2.58044,2.76494 10.34436,6.66906 12.88298,6.47826 l 2.07177,-0.15572 z m 19.227309,11.2308 c 4.89044,-1.59513 10.04033,-5.95318 12.1639,-10.2936 1.87715,-3.83675 3.01286,-12.24203 1.85657,-13.74028 -0.37756,-0.48921 -3.85201,-0.52031 -10.9128,-0.0977 -5.69739,0.34102 -10.37978,0.66399 -10.40533,0.71772 -0.0256,0.0537 0.0868,5.76641 0.24954,12.69485 l 0.29595,12.59718 1.82225,-0.43228 c 1.00224,-0.23775 3.2207,-0.88841 4.92992,-1.4459 z M 92.875431,113.31357 c 0.13668,-0.1167 0.0198,-5.70349 -0.25986,-12.41507 l -0.50839,-12.202876 -3.65967,0.30348 c -4.07545,0.33797 -11.57132,3.68538 -13.90905,6.21131 -1.81729,1.96362 -4.79663,14.580936 -4.09917,17.359796 l 0.47381,1.88784 10.8569,-0.46614 c 5.97131,-0.25638 10.96874,-0.56163 11.10543,-0.67834 z m 33.723609,-5.51402 c -0.48708,-6.90196 -2.66002,-12.423296 -5.75711,-14.628626 -2.30988,-1.64479 -8.10221,-3.37199 -12.84933,-3.83153 l -3.28032,-0.31755 v 12.345836 12.34584 h 11.15206 11.15205 z m 46.4819,136.69443 c -0.94957,-0.13421 -4.31685,-0.59418 -7.48285,-1.02215 -5.35243,-0.72353 -5.84898,-0.93 -7.076,-2.94225 -2.12555,-3.48582 -1.75231,-5.46776 1.35897,-7.21641 2.6083,-1.46593 3.32186,-1.50823 25.37928,-1.50449 12.99997,0.002 23.75762,0.29888 25.18172,0.69447 3.00851,0.8357 4.45315,2.35592 5.09124,5.35763 0.46072,2.16723 0.35296,2.31387 -2.68932,3.65962 -5.66151,2.50434 -12.74801,3.41257 -25.83929,3.31164 -6.70851,-0.0517 -12.97419,-0.20386 -13.92375,-0.33806 z m 23.10695,-82.01721 c -3.05396,-0.49688 -7.59568,-1.5833 -10.09271,-2.41427 -4.1185,-1.37055 -4.65953,-1.77573 -5.82644,-4.3635 -1.9816,-4.3944 -1.66183,-7.22749 1.29847,-11.50427 1.40976,-2.0367 2.56321,-4.22167 2.56321,-4.85547 0,-0.82373 -2.70806,-2.30821 -9.49564,-5.20522 -10.54759,-4.50183 -12.31049,-5.94709 -14.79989,-12.13342 -1.30353,-3.23938 -1.52891,-5.11923 -1.53163,-12.77595 -0.004,-12.136596 1.11957,-16.192986 5.60633,-20.234666 7.72018,-6.954333 11.92989,-8.717683 23.2204,-9.726497 4.11862,-0.368002 7.6115,-0.792197 7.76196,-0.942655 0.15046,-0.15046 0.45835,-1.197508 0.6842,-2.326775 l 0.41065,-2.053214 -7.82732,-1.279996 C 179.24719,71.203445 178.1203,70.748 173.62426,66.786269 c -4.51414,-3.97768 -7.25667,-9.821738 -8.0603,-17.175735 -0.56963,-5.212661 -0.0859,-13.41231 0.99137,-16.806688 0.40236,-1.26771 5.73142,-2.816408 6.73071,-1.956039 0.30273,0.260635 1.35011,2.77341 2.32751,5.583944 1.28977,3.708716 1.87857,7.09822 2.14712,12.359952 0.35248,6.906301 0.46566,7.339245 2.38834,9.13529 2.30226,2.150622 5.37409,3.203245 11.02358,3.777431 3.87911,0.394253 3.94231,0.371839 4.48885,-1.59186 0.3049,-1.095459 0.46303,-8.673226 0.35141,-16.839483 -0.21159,-15.480534 0.19392,-18.831379 2.82057,-23.307495 1.41061,-2.403865 2.14073,-2.632898 4.96734,-1.558226 3.36145,1.278023 3.81003,3.847142 4.28583,24.546193 0.23978,10.43104 0.57468,18.965526 0.74422,18.965526 1.72079,0 13.13697,-2.421481 13.77406,-2.921609 1.67692,-1.316401 3.74605,-8.545347 4.31249,-15.066507 0.77043,-8.869679 2.448,-11.918663 7.36122,-13.379132 1.24586,-0.370333 1.70166,0.102868 3.09041,3.208407 2.43213,5.438785 2.21647,11.862589 -0.73366,21.852626 -1.38364,4.685437 -3.00599,8.668056 -4.0237,9.877532 -3.43381,4.080854 -14.37515,8.125342 -22.06605,8.156763 -2.88398,0.01178 -2.93501,0.05345 -2.93501,2.396605 0,2.164991 0.2385,2.452046 2.58972,3.116798 1.42434,0.4027 5.84131,1.195929 9.81548,1.76273 13.17493,1.879019 18.95993,6.093592 22.12124,16.116102 2.48032,7.863506 1.54091,21.238346 -1.91105,27.208636 -1.44386,2.4972 -14.66353,11.56061 -16.88139,11.57387 -2.66863,0.016 -4.68453,0.79511 -4.68453,1.81057 0,0.53257 0.77692,3.19202 1.72648,5.90988 3.2426,9.28102 1.85209,13.78864 -5.36672,17.39736 -4.81112,2.40509 -10.5953,2.87719 -18.83191,1.53706 z m 10.04149,-12.16818 c 4.27865,-1.22005 4.36955,-1.40961 2.75084,-5.73601 -1.79967,-4.81004 -4.01586,-6.68834 -7.89159,-6.68834 -2.75297,0 -3.01459,0.19113 -5.81287,4.24627 -3.52996,5.11547 -3.66187,7.5888 -0.44116,8.27206 3.29858,0.69978 8.76933,0.65466 11.39478,-0.094 z m -12.47222,-23.91439 2.20286,-0.44058 -0.41812,-4.56622 c -0.81002,-8.84584 -0.84244,-8.9317 -3.6689,-9.7167 -1.40972,-0.39152 -4.42774,-0.71205 -6.70669,-0.71229 -4.09129,-4.3e-4 -10.70418,-1.80946 -10.70418,-2.92824 0,-1.66855 2.18339,-5.40744 3.76168,-6.44157 1.50264,-0.98457 2.75684,-1.10604 7.48156,-0.72462 3.12195,0.25202 6.68627,0.25514 7.92069,0.007 2.21977,-0.44634 2.24443,-0.49495 2.24443,-4.423966 0,-4.51613 -0.50765,-5.16597 -4.55683,-5.83321 -5.68555,-0.93689 -18.40688,3.67042 -20.39582,7.3868 -1.39902,2.614086 -1.61041,13.566296 -0.34579,17.916406 1.49423,5.13998 2.78142,6.51822 7.68137,8.22465 6.90961,2.40632 11.44232,3.0649 15.50374,2.25261 z m 22.90844,-0.60407 c 2.13157,-0.22666 5.7518,-1.29942 8.04496,-2.38392 l 4.16938,-1.9718 1.10538,-4.86002 c 3.79164,-16.670566 -1.46531,-24.055576 -18.47919,-25.959696 l -3.35565,-0.37555 0.26029,5.15432 c 0.14316,2.83488 0.57453,5.468586 0.95863,5.852686 0.38409,0.38408 3.31945,1.19555 6.52302,1.80327 3.20358,0.6077 6.35465,1.38854 7.00239,1.7352 1.73137,0.92661 2.32187,4.50688 1.06077,6.43158 -0.94424,1.44106 -1.73745,1.63265 -8.46375,2.0442 -4.08202,0.24976 -7.46395,0.53158 -7.51538,0.62626 -0.0514,0.0947 0.0318,3.05496 0.185,6.5784 l 0.27849,6.40626 2.17504,-0.33454 c 1.19627,-0.18399 3.91904,-0.51999 6.05062,-0.74665 z"
     style="fill:#000000;stroke-width:0.69059247" />
</svg>
