<?xml version="1.0" encoding="UTF-8" standalone="no"?>
<!-- Created with Inkscape (http://www.inkscape.org/) -->

<svg
   xmlns:dc="http://purl.org/dc/elements/1.1/"
   xmlns:cc="http://creativecommons.org/ns#"
   xmlns:rdf="http://www.w3.org/1999/02/22-rdf-syntax-ns#"
   xmlns:svg="http://www.w3.org/2000/svg"
   xmlns="http://www.w3.org/2000/svg"
   xmlns:sodipodi="http://sodipodi.sourceforge.net/DTD/sodipodi-0.dtd"
   xmlns:inkscape="http://www.inkscape.org/namespaces/inkscape"
   width="300"
   height="300"
   id="svg2"
   version="1.1"
   inkscape:version="0.48.4 r9939"
   sodipodi:docname="dessin.svg">
  <defs
     id="defs4" />
  <sodipodi:namedview
     id="base"
     pagecolor="#ffffff"
     bordercolor="#666666"
     borderopacity="1.0"
     inkscape:pageopacity="0.0"
     inkscape:pageshadow="2"
     inkscape:zoom="1.979899"
     inkscape:cx="73.020464"
     inkscape:cy="149.14493"
     inkscape:document-units="px"
     inkscape:current-layer="layer1"
     showgrid="false"
     inkscape:window-width="1215"
     inkscape:window-height="1000"
     inkscape:window-x="65"
     inkscape:window-y="24"
     inkscape:window-maximized="1" />
  <metadata
     id="metadata7">
    <rdf:RDF>
      <cc:Work
         rdf:about="">
        <dc:format>image/svg+xml</dc:format>
        <dc:type
           rdf:resource="http://purl.org/dc/dcmitype/StillImage" />
        <dc:title />
      </cc:Work>
    </rdf:RDF>
  </metadata>
  <g
     inkscape:label="Calque 1"
     inkscape:groupmode="layer"
     id="layer1"
     transform="translate(0,-752.36218)">
    <path
       style="fill:#000000"
       d="m 166.08899,1031.7323 c 0,-1.329 -1.96947,-2.4164 -4.37659,-2.4164 -2.40713,0 -4.3766,-1.2037 -4.3766,-2.6749 0,-1.4713 1.7865,-2.1072 3.96998,-1.4133 6.71169,2.133 12.81599,-25.74576 11.14171,-50.88493 -0.40613,-6.09797 -1.82735,-7.8533 -6.3585,-7.8533 -3.2095,0 -5.83545,-0.28719 -5.83545,-0.63821 0,-0.351 -2.3692,-6.05975 -5.2649,-12.6861 -3.6687,-8.39525 -5.05176,-17.52334 -4.56187,-30.1082 0.38666,-9.93316 -0.61138,-19.37189 -2.21783,-20.97498 -2.06207,-2.05772 -1.22914,-3.66447 2.833,-5.46493 4.83734,-2.14405 5.69558,-4.91118 5.38815,-17.37255 -0.31039,-12.58207 -1.37207,-15.36844 -7.02429,-18.43557 -8.13035,-4.41186 -9.10528,-11.27542 -1.31062,-9.22656 7.13177,1.87458 12.02311,-7.14123 10.58462,-19.50982 -0.60184,-5.17457 0.18761,-11.02829 1.75406,-13.00818 2.45779,-3.10634 3.42522,-2.97438 7.0564,0.96262 2.65863,2.88254 3.31034,5.99663 1.76995,8.45739 -1.34095,2.1422 -1.43099,6.06966 -0.20015,8.7277 2.52199,5.44603 4.78648,2.44323 6.3779,-8.45739 0.67871,-4.64897 2.39252,-5.90838 7.43737,-5.4654 9.61912,0.84464 8.04617,-5.09108 -2.19772,-8.29335 -4.81425,-1.50494 -8.75319,-4.38851 -8.75319,-6.40793 0,-2.01941 -2.29771,-4.27562 -5.10603,-5.01378 -3.90102,-1.02541 -5.12907,-4.05772 -5.20365,-12.84894 -0.10709,-12.63167 2.85208,-16.02042 10.88191,-12.46138 3.86602,1.71351 5.26323,5.19687 5.26323,13.12158 0,9.17785 0.87133,10.78879 5.83545,10.78879 5.0396,0 5.89438,-1.73019 6.26747,-12.6861 0.76633,-22.50421 0.7195,-22.35169 6.86233,-22.35169 5.33763,0 5.79947,1.49452 5.41375,17.5189 -0.40613,16.87164 -0.16865,17.51889 6.42776,17.51889 5.42954,0 7.47933,-1.87844 9.88803,-9.06149 1.67122,-4.98383 3.04594,-10.42073 3.05487,-12.08201 0.0233,-4.59374 8.15981,-3.60509 9.94163,1.20821 1.95313,5.27604 -2.3532,21.33168 -6.95242,25.9212 -1.89185,1.88786 -7.9422,4.66312 -13.44524,6.16723 -11.01149,3.00971 -10.76033,7.17807 0.43246,7.17807 6.60139,0 7.12212,0.88335 7.12212,12.082 0,6.64509 1.31297,12.08199 2.91773,12.08199 1.60475,0 3.04836,-1.90291 3.20798,-4.22869 1.10489,-16.09674 2.98761,-26.03292 5.2948,-27.94369 4.53371,-3.75473 10.86431,3.43707 9.55064,10.84978 -1.41096,7.96177 4.96539,9.57737 7.39766,1.8744 2.29372,-7.26412 10.83208,-4.8269 11.97401,3.4179 1.31051,9.46154 -4.55749,20.89592 -14.42686,28.1123 -9.6355,7.0454 -10.29532,12.43169 -5.4447,44.44721 4.21891,27.84628 0.0204,51.4945 -10.72415,60.39224 -6.4694,5.35779 -7.10937,7.47291 -5.70684,18.86082 3.56861,28.97535 2.87457,44.89895 -2.13785,49.05015 -5.42155,4.4901 -5.08079,4.9758 -10.15461,-14.4762 -1.73327,-6.6451 -3.06006,-17.80001 -2.94841,-24.78869 0.21503,-13.45559 -3.72291,-19.91473 -12.14124,-19.91473 -9.04869,0 -11.15365,5.5219 -11.97485,31.41322 -0.51089,16.1078 -2.12428,26.4751 -4.41858,28.3927 -4.32072,3.6113 -12.78386,4.0112 -12.78386,0.6041 z m 54.70743,-75.51124 c 2.00593,-1.32292 3.64716,-5.95121 3.64716,-10.28502 0,-9.95733 -5.26342,-11.33054 -35.58793,-9.28484 l -22.45811,1.515 1.66515,7.51656 c 0.91585,4.13409 3.77268,8.90563 6.34857,10.60347 5.50739,3.63004 40.85745,3.58038 46.38516,-0.0653 z m -2.91773,-31.74879 c 7.40431,-2.03429 8.14732,-4.03369 3.0636,-8.24391 -3.64287,-3.01695 -41.8268,-4.10606 -50.23807,-1.43295 -4.19084,1.33185 -6.39049,8.35176 -3.38934,10.81663 2.07926,1.70775 43.60668,0.77165 50.56381,-1.13977 z m -5.47075,-22.31944 c 9.27375,-1.53606 12.69557,-8.45533 5.90125,-11.93295 -4.17329,-2.13607 -34.27928,-3.41733 -42.63304,-1.81439 -6.69723,1.2851 -11.32096,8.56296 -8.14443,12.81957 2.01399,2.69879 30.61418,3.29007 44.87622,0.92777 z m -23.56096,-42.58904 c 0.53862,-8.5524 -0.3027,-13.89431 -2.18829,-13.89431 -1.68481,0 -3.06332,2.18197 -3.06332,4.84877 0,2.66684 -3.28245,7.21245 -7.29432,10.10139 -4.01189,2.88891 -7.29433,7.30012 -7.29433,9.8027 0,3.67787 1.81781,4.405 9.48262,3.79294 9.37502,-0.74859 9.49254,-0.91487 10.35764,-14.65149 z m 30.98136,13.63576 c 7.0455,-2.23906 5.4994,-9.5059 -2.67908,-12.592 -4.01189,-1.51386 -7.4458,-4.13499 -7.63089,-5.82477 -0.18498,-1.68976 -0.6416,-4.15968 -1.01447,-5.48869 -0.37282,-1.32903 -0.87786,-7.03777 -1.1223,-12.6861 -0.2445,-5.64834 -1.75737,-10.2697 -3.36212,-10.2697 -1.75064,0 -2.91774,9.6656 -2.91774,24.16399 0,23.94607 0.0636,24.16401 7.05569,24.16401 3.88063,0 9.13254,-0.66004 11.67091,-1.46674 z m 25.03934,-32.50549 c 0,-2.73647 -1.31298,-4.30336 -2.91773,-3.48198 -1.60475,0.82139 -2.91773,3.06032 -2.91773,4.97542 0,1.91509 1.31298,3.48198 2.91773,3.48198 1.60475,0 2.91773,-2.23894 2.91773,-4.97542 z M 93.875198,1025.2992 c -2.703334,-0.9035 -3.647162,-11.172 -3.647162,-39.67988 l 0,-38.46104 -16.804515,0 c -13.377437,0 -17.513902,-0.94073 -20.282914,-4.61278 -3.213442,-4.2614 -2.218671,-4.79252 13.059872,-6.97253 9.09605,-1.29785 18.223348,-1.82421 20.282915,-1.16968 2.604861,0.82783 3.744642,-1.36512 3.744642,-7.20478 0,-7.0997 -1.778589,-9.36959 -11.528822,-14.71334 -13.527701,-7.41401 -15.970074,-14.20099 -15.898648,-44.17963 0.05981,-25.09008 4.813933,-32.30165 21.29455,-32.30165 10.14439,0 11.408817,-0.70342 12.983194,-7.22277 2.607487,-10.79733 -0.292531,-14.52484 -11.300393,-14.52484 -5.313681,0 -11.738113,-0.66004 -14.276478,-1.46673 -7.911424,-2.51427 -5.06334,-5.78247 5.039151,-5.78247 15.617057,0 19.214384,-3.94849 19.813307,-21.74759 0.574267,-17.06619 3.157332,-21.74761 11.999683,-21.74761 5.19919,0 5.68491,1.53693 5.15455,16.31071 -0.32203,8.97087 -0.43988,17.66991 -0.26201,19.33119 0.21183,1.97792 5.35911,3.0205 14.91228,3.0205 10.52454,0 14.58865,0.9377 14.58865,3.36608 0,4.21629 -6.35065,6.29952 -19.20388,6.29952 -9.88335,0 -9.97342,0.0988 -9.97342,10.93421 0,10.23275 0.56546,11.02788 8.81391,12.3941 4.84763,0.80294 9.38598,2.22651 10.08518,3.16347 5.13261,6.8778 6.70451,47.41977 2.12289,54.7531 -1.55912,2.49553 -4.34908,7.25879 -6.19989,10.58502 -1.85082,3.32622 -7.25592,7.897 -12.01135,10.15731 -6.47368,3.07699 -8.6462,5.88112 -8.6462,11.15989 0,6.6357 0.85785,7.14453 14.58866,8.65301 9.45221,1.03845 14.58863,2.76638 14.58863,4.90774 0,3.42391 -14.32233,8.61055 -23.77721,8.61055 -4.88603,0 -5.42598,2.35775 -5.67212,24.76811 -0.32647,29.72061 -1.40025,43.08381 -4.00902,49.89101 -1.98873,5.1893 -3.17645,5.6211 -9.578149,3.4818 z M 92.813494,895.80978 c -0.323459,-1.66127 0.386512,-4.85988 1.577705,-7.10805 5.523377,-10.42429 -7.52319,-18.84715 -17.015906,-10.98549 -6.514762,5.39539 0.422167,21.11404 9.318003,21.11404 3.735101,0 6.447627,-1.33871 6.120198,-3.0205 z m 26.916026,-4.48723 c 1.3783,-9.17416 0.45679,-13.03167 -3.11304,-13.03167 -4.16337,0 -9.80197,12.51899 -7.20566,15.99811 1.75213,2.3479 9.87094,0.0146 10.3187,-2.96644 z M 95.54659,855.63191 c 1.27531,-11.0485 -3.029274,-14.17692 -12.46305,-9.05773 -5.278523,2.86435 -7.44415,6.17679 -7.44415,11.38611 0,6.83286 0.663113,7.29362 9.482621,6.58939 8.421062,-0.67244 9.588066,-1.67075 10.424579,-8.91777 z m 27.69518,6.03862 c 0.84865,-1.83159 0.22204,-4.42419 -1.39261,-5.76136 -1.96897,-1.63065 -0.92834,-3.59556 3.16042,-5.96738 5.93928,-3.44522 5.87056,-3.54146 -2.67184,-3.7426 -8.30144,-0.1955 -8.76787,0.29911 -8.76787,9.2975 0,9.52908 6.26442,13.52783 9.6719,6.17384 z m 18.13747,-18.29559 c -2.67314,-3.58204 1.12502,-21.86945 4.54212,-21.86945 1.46367,0 2.66126,3.32632 2.66126,7.39181 0,4.31255 -1.21547,6.76968 -2.91773,5.89838 -1.60475,-0.82138 -2.91772,-0.43248 -2.91772,0.86423 0,1.29672 1.64122,2.85602 3.64715,3.46517 2.73354,0.83008 2.81605,1.84123 0.32933,4.03649 -2.42043,2.13675 -3.86599,2.19448 -5.34441,0.21337 z"
       id="path3197"
       inkscape:connector-curvature="0" />
  </g>
</svg>
