<?xml version="1.0" encoding="UTF-8" standalone="no"?>
<!-- Created with Inkscape (http://www.inkscape.org/) -->

<svg
   xmlns:dc="http://purl.org/dc/elements/1.1/"
   xmlns:cc="http://creativecommons.org/ns#"
   xmlns:rdf="http://www.w3.org/1999/02/22-rdf-syntax-ns#"
   xmlns:svg="http://www.w3.org/2000/svg"
   xmlns="http://www.w3.org/2000/svg"
   xmlns:sodipodi="http://sodipodi.sourceforge.net/DTD/sodipodi-0.dtd"
   xmlns:inkscape="http://www.inkscape.org/namespaces/inkscape"
   width="300"
   height="300"
   id="svg2"
   version="1.1"
   inkscape:version="0.48.2 r9819"
   sodipodi:docname="Nouveau document 1">
  <defs
     id="defs4" />
  <sodipodi:namedview
     id="base"
     pagecolor="#ffffff"
     bordercolor="#666666"
     borderopacity="1.0"
     inkscape:pageopacity="0.0"
     inkscape:pageshadow="2"
     inkscape:zoom="1.979899"
     inkscape:cx="179.26436"
     inkscape:cy="149.09964"
     inkscape:document-units="px"
     inkscape:current-layer="layer1"
     showgrid="false"
     inkscape:window-width="1280"
     inkscape:window-height="999"
     inkscape:window-x="0"
     inkscape:window-y="24"
     inkscape:window-maximized="1" />
  <metadata
     id="metadata7">
    <rdf:RDF>
      <cc:Work
         rdf:about="">
        <dc:format>image/svg+xml</dc:format>
        <dc:type
           rdf:resource="http://purl.org/dc/dcmitype/StillImage" />
        <dc:title></dc:title>
      </cc:Work>
    </rdf:RDF>
  </metadata>
  <g
     inkscape:label="Calque 1"
     inkscape:groupmode="layer"
     id="layer1"
     transform="translate(0,-752.36218)">
    <path
       style="fill:#000000"
       d="m 62.099096,1031.5154 c -8.184045,-9.1557 -3.984961,-108.7089 5.130071,-121.62491 9.854274,-13.96354 32.127815,-18.43 106.818763,-21.42012 60.60517,-2.42625 66.92961,-2.06062 66.92961,3.86919 0,5.25309 -4.37626,6.54862 -22.12074,6.54862 -46.15928,0 -118.965224,8.9769 -128.020478,15.78477 -7.960463,5.98484 -9.096927,12.31417 -11.376277,63.35821 -2.533868,56.74354 -5.707617,66.52104 -17.360949,53.48424 z m 163.187994,-8.2855 c 1.35781,-7.7685 0.6974,-18.4502 -1.46754,-23.73708 -3.36785,-8.22439 -6.72034,-9.61246 -23.21639,-9.61246 -17.91036,0 -19.28011,0.72897 -19.28011,10.26084 0,7.0145 2.76149,10.9313 8.72839,12.38 5.13318,1.2464 8.18651,4.7603 7.41279,8.5311 -1.02831,5.0114 -7.58903,6.6673 -30.03905,7.5817 -38.80793,1.5807 -49.69517,-5.3664 -49.88376,-31.83032 -0.1129,-15.84415 1.13138,-18.79186 7.93229,-18.79186 8.46498,0 13.23899,7.28507 13.23899,20.2024 0,6.36258 14.04284,15.40328 23.92571,15.40328 1.13622,0 1.49073,-10.2367 0.78788,-22.74809 l -1.27789,-22.74804 -33.0298,-4.29219 c -36.849681,-4.78856 -40.288672,-6.2652 -31.093067,-13.35089 8.538137,-6.57904 147.213047,-11.22756 147.213047,-4.93474 0,7.18099 -8.96621,10.10287 -38.16401,12.43673 -20.87648,1.66872 -27.88203,3.71977 -27.88203,8.16299 0,4.4763 6.24514,6.23202 25.41881,7.14618 13.98037,0.66653 27.882,3.10987 30.89251,5.42965 10.87266,8.37789 4.22012,58.6354 -7.76148,58.6354 -3.26621,0 -4.09285,-4.7554 -2.45529,-14.1246 z M 117.89713,926.95192 c -4.73496,-2.7888 -4.15843,-4.34251 2.91566,-7.85757 11.0394,-5.48546 88.87707,-5.81982 92.48659,-0.39733 1.45865,2.1913 0.13383,4.71414 -2.94428,5.60639 -12.84825,3.72435 -87.02379,5.84917 -92.45797,2.64851 z M 58.701169,876.90486 c -8.634434,-5.61511 -9.470188,-9.41282 -9.470188,-43.03359 0,-29.05417 1.45339,-37.9949 6.852639,-42.1553 5.776942,-4.45141 7.642593,-4.27727 11.884833,1.10924 2.767678,3.51423 9.7507,7.00762 15.517747,7.76301 13.498785,1.76822 13.601356,12.20241 0.149142,15.15091 -15.084781,3.30627 -15.070294,9.51224 0.03415,14.80582 13.684354,4.79564 13.63373,12.95669 -0.08006,12.95669 -4.261885,0 -9.929237,2.43923 -12.594127,5.42048 -3.817889,4.27118 -1.730153,7.62645 9.846573,15.82473 8.080457,5.72234 16.737167,10.40424 19.237119,10.40424 2.49991,0 4.54533,1.78029 4.54533,3.95618 0,6.28681 -35.486245,4.58495 -45.923253,-2.20241 z m 60.054551,1.4473 c -7.54241,-3.38499 -9.84644,-8.8755 -12.16695,-28.9937 -3.9804,-34.50927 0.82753,-56.53179 15.26933,-69.94036 6.56591,-6.09615 15.21403,-11.08391 19.21803,-11.08391 4.00396,0 15.36661,7.5662 25.25034,16.81377 13.3765,12.51561 18.69542,21.12957 20.80671,33.69654 3.87389,23.05804 -7.03407,53.75177 -21.23772,59.76033 -12.92121,5.46611 -34.65683,5.34959 -47.13974,-0.25278 z m 40.72536,-12.49101 c 3.64024,-4.07242 2.72041,-7.05399 -3.8897,-12.60808 -8.42282,-7.07722 -8.89822,-7.0507 -17.54617,0.97856 -4.8888,4.53905 -7.58416,10.21269 -5.98968,12.60804 4.04427,6.07558 21.68257,5.44628 27.42555,-0.97852 z m -23.17321,-34.64014 c -7.27249,-10.92523 -21.21139,2.08571 -15.9284,14.86797 2.36531,5.72294 3.68162,5.42317 10.49605,-2.39016 4.28532,-4.91355 6.72987,-10.52855 5.43235,-12.47781 z m 36.49311,2.39018 c 0,-11.11257 -4.94168,-12.72851 -12.62822,-4.1295 -5.92373,6.62703 -2.50245,14.01995 6.48816,14.01995 3.70872,0 6.14006,-3.91643 6.14006,-9.89045 z m -17.89634,-18.59406 c 7.91202,-7.34595 6.05029,-18.18036 -3.61331,-21.02801 -9.23904,-2.72257 -21.1007,3.81067 -21.1007,11.622 0,5.86823 8.73018,14.15343 14.91363,14.15343 2.57792,0 6.98809,-2.13634 9.80038,-4.74742 z m 44.27356,56.72686 c -4.21221,-2.48021 -2.94302,-4.89047 5.17638,-9.82985 5.91627,-3.59917 12.90165,-6.54396 15.52295,-6.54396 2.62131,0 3.95957,-2.22535 2.97391,-4.94522 -0.98567,-2.71988 -6.71472,-4.39504 -12.73121,-3.72258 -17.58533,1.96551 -17.75471,-6.33369 -0.28506,-13.97097 19.42631,-8.49269 20.69946,-14.4926 3.44573,-16.23843 -18.90421,-1.91281 -22.3398,-7.47659 -8.10504,-13.12565 6.80133,-2.69911 15.47629,-8.40306 19.27764,-12.67546 4.1929,-4.71247 9.64017,-6.79584 13.84836,-5.29657 5.66249,2.01745 6.93679,8.70653 6.93679,36.41206 0,31.62106 -0.77056,34.60365 -11.27478,43.64219 -11.44931,9.85168 -24.67876,12.24556 -34.78559,6.29444 z"
       id="path2996"
       inkscape:connector-curvature="0" />
  </g>
</svg>
