<?xml version="1.0" encoding="UTF-8" standalone="no"?>
<svg
   xmlns:dc="http://purl.org/dc/elements/1.1/"
   xmlns:cc="http://creativecommons.org/ns#"
   xmlns:rdf="http://www.w3.org/1999/02/22-rdf-syntax-ns#"
   xmlns:svg="http://www.w3.org/2000/svg"
   xmlns="http://www.w3.org/2000/svg"
   viewBox="0 0 300 300"
   height="300"
   width="300"
   id="svg114"
   version="1.1">
  <metadata
     id="metadata120">
    <rdf:RDF>
      <cc:Work
         rdf:about="">
        <dc:format>image/svg+xml</dc:format>
        <dc:type
           rdf:resource="http://purl.org/dc/dcmitype/StillImage" />
        <dc:title></dc:title>
      </cc:Work>
    </rdf:RDF>
  </metadata>
  <defs
     id="defs118" />
  <path
     id="path124"
     d="m 223.83526,284.23696 c -0.75903,-0.43085 -3.81355,-3.06195 -6.78782,-5.84688 -9.69121,-9.07431 -22.23319,-16.52072 -34.65601,-20.57594 -12.46785,-4.06992 -12.61091,-4.08523 -38.94481,-4.16838 -10.18199,-0.27142 -18.11924,-0.32012 -30.01635,-1.9161 -11.51558,-2.35511 -17.169952,-8.31624 -19.144135,-18.07467 -0.766538,-2.20697 -2.10685,-32.46577 -2.124263,-47.95716 -0.0095,-8.0787 0.211106,-9.95669 1.658553,-14.14564 0.807493,-4.70739 5.831601,-7.00275 7.765105,-3.31703 2.38435,4.6323 2.70616,7.70085 3.2425,30.91828 0.6954,30.10261 1.7009,36.34098 6.35841,39.44909 1.91369,1.27707 4.17286,1.65812 15.35442,2.58976 6.04223,0.54968 12.00215,0.37647 18.20878,0.60771 0.30369,-21.44113 0.4085,-65.62368 -0.013,-87.91386 -4.33897,-2.74868 -39.08926,3.92133 -61.213587,11.7494 -5.442964,1.92584 -10.62647,3.50154 -11.518894,3.50154 -2.033334,0 -3.770941,-2.40153 -3.770941,-5.2118 0,-1.7495 0.568731,-2.55302 3.087087,-4.36157 7.560814,-5.42976 18.42666,-8.77878 41.698855,-12.85219 30.69263,-5.37224 29.77735,-5.27591 54.92358,-5.78021 21.64279,-0.43404 23.70171,-0.58059 26.5662,-1.89094 4.49344,-2.05551 5.08922,-3.04863 4.83503,-8.05944 -0.47864,-9.43521 -0.30902,-14.03793 0.59643,-16.1838 1.15507,-2.73751 2.69415,-2.86437 5.55418,-0.4578 3.28326,2.76268 4.42773,7.71634 4.03713,17.47412 -0.63732,11.36475 -2.22082,14.65636 -13.29134,18.1132 -12.71372,1.75461 -25.48738,2.63185 -38.30309,2.64992 -0.21549,14.34228 0.59279,43.4244 0.8213,57.69874 3.60639,0.3362 15.26268,0.49441 21.60472,-0.66044 11.35276,-2.06729 12.1112,-2.42064 14.35848,-6.68947 1.84861,-3.51151 1.96253,-4.17637 1.65126,-9.63698 -0.1839,-3.22591 -0.86095,-9.12567 -1.50459,-13.1106 -1.49441,-9.25234 -1.1519,-16.76508 0.85587,-18.77284 3.42389,-2.6302 6.53446,0.34643 7.63983,2.73963 2.39308,5.24323 3.61129,11.01281 4.04096,19.13835 0.64562,12.20981 -0.2008,23.86784 -4.51402,29.79707 -3.06636,4.21522 -10.95178,5.92375 -15.70302,7.13892 -4.25516,1.08828 -7.63382,1.36074 -16.8742,1.36074 h -11.55375 c -0.39446,6.87979 -0.45967,13.49298 -0.21732,20.46925 29.67044,2.23166 50.10682,7.15229 69.09398,29.99332 2.49839,3.1607 4.12059,6.94546 4.12999,9.63571 0.01,2.79624 -4.78717,4.34408 -7.93151,2.55927 z M 82.0222,119.12381 c 2.794799,-3.36752 16.344738,-9.74637 26.51613,-12.48289 10.59167,-2.84959 37.60942,-7.602896 68.28736,-12.013976 17.75267,-2.552613 18.79838,-2.784547 20.27086,-4.495983 2.03024,-2.359713 2.00047,-5.714818 -0.0875,-9.858372 -2.57971,-5.119475 -2.74869,-6.962458 -0.96267,-10.500039 1.37199,-2.717528 1.82343,-3.08634 3.61639,-2.954542 3.83763,0.282101 7.91336,4.65779 9.43702,10.131584 1.20515,4.329519 1.0471,14.764901 -0.26952,17.795942 -1.15539,2.65983 -3.35175,4.13317 -10.87119,7.292446 -6.43973,2.70566 -10.89363,3.53033 -26.94226,4.98854 -18.22411,1.65589 -14.20601,1.00327 -38.6107,6.27114 -19.74168,4.26134 -25.11463,5.81718 -33.67601,9.75155 -3.67645,1.68951 -5.839394,2.19029 -10.584189,2.45051 -5.907995,1.0396 -8.456114,-0.67754 -6.123721,-6.37591 z M 79.96375,79.396944 c 0,-3.158883 0.179634,-3.51311 2.587616,-5.102656 6.740526,-2.503615 14.319851,-4.741284 20.873444,-6.606401 21.12366,-6.022456 41.08624,-9.426379 62.44783,-10.648299 23.47611,-1.342873 27.63322,-3.121857 27.48799,-11.763145 -0.82905,-7.23271 -3.8741,-14.885327 -3.53458,-21.002683 0.36846,-6.209226 1.89771,-9.761501 3.96911,-9.21982 2.26092,0.591246 5.96113,5.262014 7.5654,9.549827 2.90942,7.776125 4.28404,22.201364 2.77223,29.091594 -0.83158,3.789993 -3.45422,6.175453 -10.79224,9.81622 -7.79854,3.869262 -9.28298,4.098976 -40.5785,6.279446 -18.75604,2.086443 -31.43143,4.795394 -50.37228,10.461365 -5.998202,1.177009 -22.408366,7.007057 -22.42602,-0.855448 z"
     style="fill:#000000;stroke-width:0.69003123" />
</svg>
