<?xml version="1.0" encoding="UTF-8" standalone="no"?>
<!-- Created with Inkscape (http://www.inkscape.org/) -->

<svg
   xmlns:dc="http://purl.org/dc/elements/1.1/"
   xmlns:cc="http://creativecommons.org/ns#"
   xmlns:rdf="http://www.w3.org/1999/02/22-rdf-syntax-ns#"
   xmlns:svg="http://www.w3.org/2000/svg"
   xmlns="http://www.w3.org/2000/svg"
   xmlns:sodipodi="http://sodipodi.sourceforge.net/DTD/sodipodi-0.dtd"
   xmlns:inkscape="http://www.inkscape.org/namespaces/inkscape"
   width="300"
   height="300"
   id="svg2"
   version="1.1"
   inkscape:version="0.92.4 (5da689c313, 2019-01-14)"
   sodipodi:docname="image-bigseal.svg">
  <defs
     id="defs4" />
  <sodipodi:namedview
     id="base"
     pagecolor="#ffffff"
     bordercolor="#666666"
     borderopacity="1.0"
     inkscape:pageopacity="0.0"
     inkscape:pageshadow="2"
     inkscape:zoom="2.0000001"
     inkscape:cx="160.25627"
     inkscape:cy="145.37583"
     inkscape:document-units="px"
     inkscape:current-layer="layer1"
     showgrid="false"
     inkscape:window-width="1872"
     inkscape:window-height="1016"
     inkscape:window-x="48"
     inkscape:window-y="27"
     inkscape:window-maximized="1" />
  <metadata
     id="metadata7">
    <rdf:RDF>
      <cc:Work
         rdf:about="">
        <dc:format>image/svg+xml</dc:format>
        <dc:type
           rdf:resource="http://purl.org/dc/dcmitype/StillImage" />
        <dc:title />
      </cc:Work>
    </rdf:RDF>
  </metadata>
  <g
     inkscape:label="Calque 1"
     inkscape:groupmode="layer"
     id="layer1"
     transform="translate(0,-752.36218)">
    <path
       style="fill:#000000;stroke-width:6.00884008"
       d="M 84.790199,874.16443 C 53.2684,876.40478 50.97156,865.37601 81.79563,859.78527 c 27.74498,-5.03219 31.13481,-11.87855 33.12725,-24.86482 -2.40327,-6.30416 -0.83267,-8.49857 4.74352,-6.62759 5.46607,1.83402 8.71895,13.44828 -1.82285,39.27435 -15.60512,4.33765 -22.880267,5.8742 -33.053351,6.59722 z m 19.708271,121.77712 c -10.856367,0 -22.452796,-3.39108 -25.769772,-7.53574 -8.912812,-11.13674 -14.861834,-44.65561 -10.423752,-58.73087 6.282495,-19.92492 14.987964,-7.49059 14.987964,21.40796 0,14.72509 2.69512,26.77287 5.989157,26.77287 0.872979,0 7.712349,0.41956 7.712349,0.41956 0,0 -1.723202,-21.95292 -1.723202,-36.97678 v -36.55721 l -17.701294,1.8928 c -28.311503,3.02732 -21.531118,-9.43286 8.774285,-16.12432 24.092725,-5.31969 29.040665,-21.52839 40.691855,-29.42789 19.07632,-12.93372 1.26862,32.48794 -8.29916,35.54462 -3.90549,1.24773 -11.8633,5.56167 -11.8633,5.56167 0,0 0.37592,13.04672 0.37592,25.33313 0,10.46355 0.0237,26.89592 0.0237,26.89592 0,0 5.08035,-1.41778 7.46272,-2.23306 4.11754,-1.40907 7.48644,-9.09552 7.48644,-17.081 0,-17.53724 10.95685,-25.02922 13.92393,-9.52078 3.59535,18.79215 -4.41058,39.23445 -16.93241,43.23491 -3.21644,1.02757 -10.42529,-0.0626 -10.42529,-0.0626 l -1.08036,11.8853 c 0,0 8.913,3.24432 14.16065,3.24432 8.04068,0 28.33308,11.14837 20.36088,18.42964 -5.3566,4.8924 -18.2079,-6.37245 -37.73133,-6.37245 z M 154.56573,883.1175 c 0.54502,-78.21209 1.60862,-86.24031 12.18157,-91.93606 14.84274,-7.99591 78.2527,-8.16779 78.2527,-0.21221 0,3.31573 -13.25519,6.02859 -29.45591,6.02859 -49.83393,0 -48.38754,-2.49005 -48.5235,83.53817 -0.0665,41.92074 -2.61169,93.56692 -5.65651,114.76924 -6.39858,44.55497 -18.17965,63.74697 -18.17965,29.61557 v 10e-5 c 3.86654,-56.72088 11.01277,-95.72851 11.3813,-141.8034 z m 70.28628,114.99694 c -2.0947,-15.38359 -3.80862,-36.86461 -3.80862,-47.73568 0,-17.76558 -3.35667,-41.29322 -3.35667,-41.29322 0,0 -12.37739,4.71894 -21.14165,6.48334 -21.41223,4.31062 -23.66008,-7.17409 -2.45285,-12.53182 7.83705,-1.97993 19.49486,-6.48571 19.49486,-6.48571 0,0 -8.62551,-15.2483 -20.99215,-21.36778 -8.80712,-4.35809 -13.26603,-2.80833 -12.58597,-7.70298 0.48291,-3.47573 3.68926,-1.71836 10.08532,-2.79202 7.68318,-1.28976 18.89337,2.14045 24.91145,7.62261 7.21067,3.4469 8.35971,10.55472 11.22255,16.6275 0,0 2.0626,-14.09128 3.75122,-19.44665 5.38898,-17.091 -6.50194,-30.29393 -27.28346,-30.29393 -9.28431,0 -18.37177,-2.42862 -20.19427,-5.39692 -5.61238,-9.14079 12.59087,-12.2712 35.0536,-6.02811 25.35052,7.04574 33.32723,27.59215 21.81657,56.19554 -2.49859,6.2089 -8.31599,16.09193 -8.31599,16.09193 0,0 -1.35217,24.39316 1.90958,71.6737 2.42597,35.16546 5.16719,54.35026 1.50608,54.35026 -3.19599,0 -7.52483,-12.5866 -9.6196,-27.97006 z M 55.749582,828.10537 c 2.350749,-3.82864 14.528251,-8.61173 27.061143,-10.62902 36.949715,-5.94738 41.144275,-10.7954 28.290775,-32.69801 -13.624781,-23.21671 -8.39002,-30.78314 7.77733,-11.24164 25.03124,30.25535 10.97183,50.71664 -39.647283,57.70046 -20.233508,2.79154 -26.597698,1.94278 -23.481965,-3.13179 z"
       id="path188"
       inkscape:connector-curvature="0"
       sodipodi:nodetypes="ccccccsccsscsccssccsccsccccssscsssccccccsccscsaccccsccccsscsscccs" />
  </g>
</svg>
