<?xml version="1.0" encoding="UTF-8" standalone="no"?>
<!-- Created with Inkscape (http://www.inkscape.org/) -->

<svg
   xmlns:dc="http://purl.org/dc/elements/1.1/"
   xmlns:cc="http://creativecommons.org/ns#"
   xmlns:rdf="http://www.w3.org/1999/02/22-rdf-syntax-ns#"
   xmlns:svg="http://www.w3.org/2000/svg"
   xmlns="http://www.w3.org/2000/svg"
   xmlns:sodipodi="http://sodipodi.sourceforge.net/DTD/sodipodi-0.dtd"
   xmlns:inkscape="http://www.inkscape.org/namespaces/inkscape"
   width="300"
   height="300"
   id="svg2"
   version="1.1"
   inkscape:version="0.47 r22583"
   sodipodi:docname="Nouveau document 1">
  <defs
     id="defs4">
    <inkscape:perspective
       sodipodi:type="inkscape:persp3d"
       inkscape:vp_x="0 : 526.18109 : 1"
       inkscape:vp_y="0 : 1000 : 0"
       inkscape:vp_z="744.09448 : 526.18109 : 1"
       inkscape:persp3d-origin="372.04724 : 350.78739 : 1"
       id="perspective10" />
    <inkscape:perspective
       id="perspective2824"
       inkscape:persp3d-origin="0.5 : 0.33333333 : 1"
       inkscape:vp_z="1 : 0.5 : 1"
       inkscape:vp_y="0 : 1000 : 0"
       inkscape:vp_x="0 : 0.5 : 1"
       sodipodi:type="inkscape:persp3d" />
  </defs>
  <sodipodi:namedview
     id="base"
     pagecolor="#ffffff"
     bordercolor="#666666"
     borderopacity="1.0"
     inkscape:pageopacity="0.0"
     inkscape:pageshadow="2"
     inkscape:zoom="1.979899"
     inkscape:cx="174.24333"
     inkscape:cy="134.06524"
     inkscape:document-units="px"
     inkscape:current-layer="layer1"
     showgrid="false"
     inkscape:window-width="1280"
     inkscape:window-height="950"
     inkscape:window-x="0"
     inkscape:window-y="25"
     inkscape:window-maximized="1" />
  <metadata
     id="metadata7">
    <rdf:RDF>
      <cc:Work
         rdf:about="">
        <dc:format>image/svg+xml</dc:format>
        <dc:type
           rdf:resource="http://purl.org/dc/dcmitype/StillImage" />
        <dc:title></dc:title>
      </cc:Work>
    </rdf:RDF>
  </metadata>
  <g
     inkscape:label="Calque 1"
     inkscape:groupmode="layer"
     id="layer1"
     transform="translate(0,-752.36218)">
    <path
       style="fill:#000000"
       d="m 220.10386,1035.4217 c -24.21124,-22.8723 -35.2687,-53.68563 -47.31275,-82.89121 -13.75381,0.67371 -27.69054,3.59647 -41.34045,1.46011 -11.19078,-13.19745 13.21709,-11.31459 21.83192,-10.55998 11.62121,3.08068 16.41534,-5.03018 13.2666,-14.47525 -0.10601,-9.03481 0.98288,-22.72968 -13.34096,-18.43266 -9.8779,3.295 -24.66334,-7.49891 -8.11044,-10.05087 11.92779,1.3828 25.44399,-5.23732 21.20053,-17.90345 -3.36778,-11.10877 -20.87555,-9.02889 -22.20486,-22.3915 -7.13067,-11.44239 -4.67325,-25.31949 -4.75528,-37.93806 -0.29802,-10.9812 2.95156,-24.12423 16.50512,-26.90408 17.09031,-4.97354 37.99942,-4.55687 52.49442,6.11925 7.20075,7.89817 11.48429,19.16897 9.48555,29.4675 -1.05985,17.10257 -6.47508,37.34034 -24.53063,45.65456 -8.71207,1.57743 -19.97518,1.78423 -15.94813,13.34908 -1.05922,13.98218 28.49872,2.67634 19.8251,17.39388 -7.89508,1.61581 -23.88624,-2.35138 -19.3801,10.33566 -2.71149,13.94923 12.2009,21.21154 23.08439,11.16203 6.73165,-8.81262 5.98375,-21.01668 5.47064,-31.35931 -3.1849,-11.18981 13.25702,-14.72659 13.57386,-2.5783 4.62011,11.79159 -5.75452,20.75912 -5.5374,32.23321 -2.38596,14.20906 -19.73672,14.655 -25.9858,25.32641 1.07095,11.38394 10.12566,20.95413 14.58587,31.51415 1.79657,12.09576 15.85358,17.97123 19.48974,29.34533 9.5873,4.3078 14.4906,23.8141 2.9704,25.7357 -2.01302,-0.8729 -3.70509,-2.2474 -5.33734,-3.6122 z M 188.09861,865.71842 c 11.41483,-2.00058 15.69305,-13.41345 15.75334,-23.91572 -0.26979,-13.32681 -19.84053,-2.90275 -28.8813,-5.11761 -8.98813,1.74834 -32.72882,-3.56148 -23.31948,11.73759 3.50394,11.18276 14.81164,14.66171 24.57868,19.07286 3.52701,0.83907 9.85676,1.77308 11.86876,-1.77712 z M 201.0693,824.0684 c 8.74149,-7.60139 -6.62549,-22.26564 -16.72767,-21.63248 -12.05173,-0.18923 -28.96247,0.32761 -33.90853,12.56733 -2.20054,14.05337 20.55351,5.54354 29.1653,10.94997 7.17835,1.21475 14.56817,0.0327 21.4709,-1.88482 z M 98.459374,1035.3148 c -4.981895,-9.8651 -2.439344,-21.4348 -2.857053,-32.0228 0.786429,-26.1149 3.528164,-53.17398 17.677259,-76.38154 5.23985,-8.9641 2.34286,-20.95138 -4.70257,-28.26654 -11.070478,2.59264 -19.284551,12.29911 -25.223897,21.10895 -8.387277,12.08402 -10.730296,26.5464 -16.971026,39.42735 -12.149689,10.08334 -12.797517,-11.98188 -9.350071,-19.19802 3.633728,-10.60406 12.669367,-18.01303 17.857392,-28.11074 7.589976,-11.12605 17.457441,-20.77802 25.193372,-31.75163 7.12803,-8.84232 9.87189,-30.79488 -8.769822,-26.23163 -6.234171,3.44135 -25.618006,12.44396 -23.29522,-0.95396 2.042565,-6.7493 12.306112,-4.94383 16.886063,-10.70274 16.123649,-4.62817 33.038949,-16.66515 31.934169,-33.75387 -1.20242,-15.34357 -18.162136,-23.20383 -32.450772,-26.65823 -14.451368,-9.05507 8.258956,-11.87111 15.089695,-6.87473 10.174507,4.00647 22.843307,7.18935 28.324307,16.85007 4.51658,12.35212 2.69231,27.47155 -5.96487,37.89924 -6.25078,1.64499 -1.34067,10.04888 -9.12783,12.70984 4.29716,9.77066 13.63922,20.16931 8.35634,31.81401 -9.81316,9.37464 -0.39093,18.34992 4.48214,27.23282 5.30533,12.02067 3.44966,26.21714 -5.15356,36.5578 -11.93,22.17039 -13.08092,47.72786 -10.73137,71.94465 -1.06158,5.6902 0.70702,33.3063 -11.202676,25.3617 z"
       id="path2830" />
  </g>
</svg>
