<?xml version="1.0" encoding="UTF-8" standalone="no"?>
<!-- Created with Inkscape (http://www.inkscape.org/) -->

<svg
   xmlns:dc="http://purl.org/dc/elements/1.1/"
   xmlns:cc="http://creativecommons.org/ns#"
   xmlns:rdf="http://www.w3.org/1999/02/22-rdf-syntax-ns#"
   xmlns:svg="http://www.w3.org/2000/svg"
   xmlns="http://www.w3.org/2000/svg"
   xmlns:sodipodi="http://sodipodi.sourceforge.net/DTD/sodipodi-0.dtd"
   xmlns:inkscape="http://www.inkscape.org/namespaces/inkscape"
   width="300"
   height="300"
   id="svg2"
   version="1.1"
   inkscape:version="0.48.4 r9939"
   sodipodi:docname="image-seal.svg">
  <defs
     id="defs4" />
  <sodipodi:namedview
     id="base"
     pagecolor="#ffffff"
     bordercolor="#666666"
     borderopacity="1.0"
     inkscape:pageopacity="0.0"
     inkscape:pageshadow="2"
     inkscape:zoom="2.0018437"
     inkscape:cx="145.03351"
     inkscape:cy="130.6666"
     inkscape:document-units="px"
     inkscape:current-layer="layer1"
     showgrid="false"
     inkscape:window-width="1215"
     inkscape:window-height="1000"
     inkscape:window-x="65"
     inkscape:window-y="24"
     inkscape:window-maximized="1"
     fit-margin-top="10"
     fit-margin-left="10"
     fit-margin-right="10"
     fit-margin-bottom="10" />
  <metadata
     id="metadata7">
    <rdf:RDF>
      <cc:Work
         rdf:about="">
        <dc:format>image/svg+xml</dc:format>
        <dc:type
           rdf:resource="http://purl.org/dc/dcmitype/StillImage" />
        <dc:title />
      </cc:Work>
    </rdf:RDF>
  </metadata>
  <g
     inkscape:label="Calque 1"
     inkscape:groupmode="layer"
     id="layer1"
     transform="translate(0,-752.36218)">
    <path
       style="fill:#000000"
       d="m 227.09739,1039.4789 c -1.0921,-4.3355 -1.24004,-12.4774 -0.32875,-18.0931 3.5836,-22.08311 -8.74753,-48.51498 -22.63345,-48.51498 -3.64525,0 -11.01439,-1.83286 -16.37585,-4.07302 -7.6604,-3.20072 -9.81948,-5.75932 -10.08121,-11.94665 -0.69012,-16.31528 1.15638,-19.16077 14.38793,-22.17206 20.05154,-4.56337 25.46074,-14.10846 12.72448,-22.45358 -5.26558,-3.45013 -10.3103,-4.09354 -20.79266,-2.65185 -26.67066,3.66816 -31.20389,14.75589 -29.99936,73.37457 0.56742,27.61397 -0.24512,41.57097 -2.68575,46.13127 l -3.49933,6.5385 -4.8861,-7.4571 c -4.34054,-6.6246 -4.64747,-11.932 -2.74879,-47.53675 1.17549,-22.04377 2.47633,-43.24191 2.89072,-47.107 0.41439,-3.8651 0.85622,-8.44963 0.98182,-10.18786 0.40779,-5.64337 18.30567,-23.04326 25.57545,-24.86382 6.77268,-1.69609 7.07365,-2.66689 7.02744,-22.66707 -0.0357,-15.42948 -1.09381,-21.30041 -4.04536,-22.44461 -4.03637,-1.56473 -14.36676,8.02961 -23.2289,21.57391 -5.51022,8.4214 -15.28933,11.98423 -17.44867,6.35708 -0.80717,-2.10346 0.37606,-5.66814 2.62945,-7.9215 2.25336,-2.25337 4.09703,-5.01571 4.09703,-6.13856 0,-3.52173 22.53698,-23.65884 26.47844,-23.65884 3.80393,0 11.7909,-7.78 9.76208,-9.50911 -0.60684,-0.51717 -6.70952,-2.70026 -13.56151,-4.85127 -8.53468,-2.67929 -14.00293,-6.56678 -17.36315,-12.3439 -6.38752,-10.98179 -6.68312,-22.76715 -0.62938,-25.09019 6.87282,-2.63735 10.73603,2.81106 9.78878,13.80546 -0.71975,8.35426 0.14955,9.91516 6.39447,11.48254 13.39976,3.36313 14.99968,0.76579 14.03254,-22.78089 -0.48892,-11.90334 -1.59796,-22.35146 -2.46456,-23.21806 -0.86659,-0.86659 -5.07327,1.77533 -9.34818,5.87096 -8.96005,8.58427 -20.9991,11.167 -22.3419,4.79296 -0.52613,-2.49752 4.70456,-7.87745 12.83054,-13.19658 28.99944,-18.98261 37.5445,-14.47015 35.99456,19.00805 -1.11278,24.03554 -0.2142,27.92026 6.45754,27.92026 8.79521,0 17.0551,-11.99978 17.0551,-24.77722 0,-8.40507 1.16442,-11.76548 4.07679,-11.76548 6.45468,0 9.31799,8.09241 7.8374,22.15052 -1.55571,14.77138 -9.69349,25.63609 -19.2017,25.63609 -8.7567,0 -15.20225,2.81137 -15.18991,6.62544 0.006,1.76712 8.54408,7.51265 18.9741,12.7678 20.3926,10.27476 34.42407,23.14912 34.42407,31.58526 0,9.51448 -11.05341,5.76557 -24.75453,-8.3958 -7.25651,-7.50028 -16.57234,-14.45646 -20.70184,-15.45821 l -7.50817,-1.82137 -0.92476,21.08671 -0.92475,21.08669 8.1676,-0.006 c 4.49219,-0.003 12.34528,3.17991 17.4513,7.07447 17.80808,13.58289 14.81619,38.05559 -5.14406,42.0767 -16.03541,3.23032 -19.06936,4.53582 -19.06936,8.20546 0,4.15913 11.76071,10.10021 19.99392,10.10021 6.05336,0 15.82198,4.49357 20.97855,9.65014 3.93078,3.93076 6.8149,19.00651 8.36788,43.74018 0.9929,15.8135 0.27042,20.2884 -4.15529,25.7426 l -5.35708,6.6019 -1.98567,-7.8828 z M 77.702263,1014.1028 c -10.11006,-5.0267 -12.691971,-15.39066 -14.050581,-56.39987 -1.456162,-43.95378 -0.225974,-53.12417 6.940071,-51.73488 4.29745,0.83318 4.81878,5.53341 4.81878,43.44526 0,37.85374 0.58665,43.16106 5.35487,48.44463 2.9452,3.26356 7.14457,5.93366 9.33199,5.93366 3.31563,0 3.73216,-6.896 2.50441,-41.46194 -0.81001,-22.80405 -2.2747,-47.9445 -3.25486,-55.86769 l -1.78216,-14.40575 -9.93191,2.24001 c -11.884806,2.68046 -17.700726,0.91489 -17.632276,-5.35272 0.03581,-3.27962 6.351029,-6.60835 21.785076,-11.48281 26.197147,-8.27372 29.780897,-11.17226 26.025567,-21.04953 -1.51048,-3.97283 -3.25722,-7.22334 -3.88168,-7.22334 -0.62446,0 -8.355347,3.3054 -17.179727,7.34534 -10.9669,5.02083 -16.95702,6.4327 -18.92831,4.46141 -3.82142,-3.82143 -1.13417,-7.69159 9.05038,-13.03424 4.60737,-2.41694 12.26158,-6.42927 17.00937,-8.91628 10.339427,-5.41602 16.417907,-16.52796 11.649587,-21.29627 -2.11042,-2.11046 -4.398,-2.25491 -6.810627,-0.43011 -6.07837,4.59738 -26.72688,10.20812 -30.03756,8.16201 -1.71081,-1.05735 -3.110562,-4.32036 -3.110562,-7.25111 0,-3.90262 2.736032,-5.84197 10.223452,-7.24662 12.74522,-2.39104 28.860217,-12.40473 28.989327,-18.01367 0.0939,-4.07962 -11.596037,-11.24391 -18.346657,-11.24391 -4.58004,0 -8.81112,-5.62802 -11.10645,-14.77334 -2.31747,-9.23355 3.81834,-10.81371 9.10695,-2.34531 1.84419,2.95304 6.94308,6.15767 11.33085,7.12139 4.387737,0.96368 12.037697,4.22121 16.999907,7.23891 10.9166,6.63877 12.13817,18.03045 2.98681,27.8533 -5.82468,6.25206 -5.86657,6.76388 -1.19959,14.66441 3.33801,5.6508 4.2436,10.88225 2.9239,16.89083 -1.05153,4.78751 -0.69417,9.49528 0.79413,10.46167 3.64522,2.36695 6.7525,20.65039 4.1732,24.55543 -1.13397,1.7168 -6.05914,5.1691 -10.94482,7.67172 l -8.88302,4.55024 1.25071,26.05998 c 1.92212,40.04911 3.59884,49.95331 8.45674,49.95331 3.58833,0 4.11882,-4.98536 3.42366,-32.17417 -0.45248,-17.69577 -0.034,-32.96269 0.92968,-33.92649 0.96377,-0.96377 4.23026,-0.20492 7.25884,1.68655 4.86628,3.03904 5.56104,6.98776 5.97546,33.9622 0.25805,16.78783 -0.80518,32.90409 -2.36246,35.8139 -1.55728,2.90981 -6.72762,6.64881 -11.48964,8.30886 -8.05241,2.80707 -8.59743,3.84842 -7.78953,14.88319 0.82578,11.27894 1.35461,11.91814 10.70713,12.94204 12.3699,1.3541 16.04606,4.7208 11.34277,10.3879 -4.27803,5.1547 -42.577677,5.5855 -52.621197,0.5919 z"
       id="path3042"
       inkscape:connector-curvature="0" />
  </g>
</svg>
