<?xml version="1.0" encoding="UTF-8" standalone="no"?>
<!-- Created with Inkscape (http://www.inkscape.org/) -->

<svg
   xmlns:dc="http://purl.org/dc/elements/1.1/"
   xmlns:cc="http://creativecommons.org/ns#"
   xmlns:rdf="http://www.w3.org/1999/02/22-rdf-syntax-ns#"
   xmlns:svg="http://www.w3.org/2000/svg"
   xmlns="http://www.w3.org/2000/svg"
   xmlns:sodipodi="http://sodipodi.sourceforge.net/DTD/sodipodi-0.dtd"
   xmlns:inkscape="http://www.inkscape.org/namespaces/inkscape"
   width="300"
   height="300"
   id="svg2"
   version="1.1"
   inkscape:version="0.48.4 r9939"
   sodipodi:docname="image-seal.svg">
  <defs
     id="defs4" />
  <sodipodi:namedview
     id="base"
     pagecolor="#ffffff"
     bordercolor="#666666"
     borderopacity="1.0"
     inkscape:pageopacity="0.0"
     inkscape:pageshadow="2"
     inkscape:zoom="1.979899"
     inkscape:cx="200.43343"
     inkscape:cy="134.48103"
     inkscape:document-units="px"
     inkscape:current-layer="layer1"
     showgrid="false"
     inkscape:window-width="1215"
     inkscape:window-height="1000"
     inkscape:window-x="65"
     inkscape:window-y="24"
     inkscape:window-maximized="1" />
  <metadata
     id="metadata7">
    <rdf:RDF>
      <cc:Work
         rdf:about="">
        <dc:format>image/svg+xml</dc:format>
        <dc:type
           rdf:resource="http://purl.org/dc/dcmitype/StillImage" />
        <dc:title />
      </cc:Work>
    </rdf:RDF>
  </metadata>
  <g
     inkscape:label="Calque 1"
     inkscape:groupmode="layer"
     id="layer1"
     transform="translate(0,-752.36218)">
    <path
       style="fill:#000000"
       d="m 166.08322,1045.3055 c -1.72653,-0.4775 -8.09136,-1.6895 -14.14402,-2.6932 -8.13061,-1.3484 -11.95581,-4.0801 -14.64589,-10.4594 -4.6316,-10.9833 -5.56299,-103.14845 -1.07043,-105.92498 1.74757,-1.08006 3.17741,-4.90306 3.17741,-8.49553 0,-15.00303 20.35855,-18.46522 66.91161,-11.37905 20.53936,3.12645 25.73177,5.15917 31.89804,12.48736 7.02907,8.35354 7.30773,10.51216 6.10616,47.29792 -2.0453,62.61558 -6.28955,72.29348 -33.41775,76.19948 -19.50409,2.8084 -40.39018,4.1913 -44.81513,2.9674 z m 6.91083,-13.2934 c 4.80572,-3.0548 9.42824,-33.34781 7.28375,-47.73318 -1.55038,-10.40011 -2.30876,-11.00001 -14.19458,-11.22856 -20.45696,-0.39338 -22.08247,1.6118 -21.00731,25.91333 0.80545,18.20511 2.1244,22.47451 8.79809,28.47881 8.25456,7.4266 12.88452,8.5331 19.12005,4.5696 z m 48.69491,-9.2784 c 5.5278,-6.3496 9.12817,-29.48697 6.57496,-42.2531 -1.59234,-7.96161 -2.98422,-8.75837 -15.30028,-8.75837 -7.45173,0 -14.18782,1.05948 -14.9691,2.35438 -0.78128,1.29491 -2.3034,14.00854 -3.38248,28.25249 l -1.96201,25.8982 12.12822,0 c 7.63595,0 13.8996,-2.0348 16.91069,-5.4936 z m -48.22623,-60.73605 c 9.18941,-3.20346 9.88254,-4.47523 9.83787,-18.05021 -0.0622,-18.87759 -2.95692,-23.17097 -14.37058,-21.3138 -5.01881,0.81662 -10.77385,1.60094 -12.78898,1.74293 -4.3606,0.30732 -11.7079,31.72534 -8.19162,35.02853 1.34089,1.25964 5.26322,2.96979 8.71631,3.80036 3.45308,0.83058 6.4207,1.67401 6.59469,1.8743 0.17392,0.20027 4.76501,-1.18667 10.20231,-3.08214 z m 56.42417,-4.47258 c 0.56115,-0.50781 0.098,-7.07462 -1.02961,-14.59297 -2.17614,-14.51147 -10.48819,-21.43657 -25.72988,-21.43657 -6.72292,0 -7.22207,1.28376 -7.22207,18.57342 0,11.88376 1.41331,19.16919 3.92395,20.22753 3.63752,1.53336 27.75817,-0.69066 30.05761,-2.77141 z M 87.603997,1035.5973 c -18.183384,-2.4012 -23.425295,-4.3662 -29.745759,-11.1504 -5.633052,-6.0464 -6.344576,-10.7928 -6.107913,-40.74499 0.147224,-18.64576 1.587729,-34.71712 3.200916,-35.71412 1.613187,-0.997 2.29693,-2.84204 1.519389,-4.10006 -2.545333,-4.11848 3.707987,-10.79212 8.418592,-8.98453 3.761039,1.44326 4.320564,7.40546 3.062386,32.63393 -0.846666,16.97744 -2.723701,32.36376 -4.171203,34.19177 -1.565723,1.9774 -0.120227,5.4743 3.568639,8.6327 8.342499,7.1431 9.267863,6.7797 9.267863,-3.6401 0,-4.9219 1.40761,-13.04455 3.128025,-18.0502 1.720398,-5.00563 3.557554,-23.67163 4.082546,-41.48001 0.927507,-31.46056 0.772028,-32.31636 -5.482368,-30.17551 -3.54032,1.21184 -12.087461,2.36238 -18.993634,2.55675 -19.447371,0.54735 -16.071823,-7.39964 7.282152,-17.14425 10.911348,-4.55286 24.331299,-11.98792 29.822113,-16.5224 12.705429,-10.49251 16.626539,-10.44668 19.305089,0.22571 1.71764,6.84355 0.55212,9.9627 -5.74734,15.38127 -7.34201,6.31536 -7.97101,9.08027 -8.87735,39.02261 -0.68776,22.72061 0.11676,32.59089 2.72794,33.46392 4.12348,1.37872 9.15187,-22.92708 7.93952,-38.3775 -0.95675,-12.19316 2.98008,-18.08237 10.22833,-15.30097 5.06806,1.94481 5.47365,5.00901 3.80067,28.71501 -2.02111,28.63949 -7.59754,41.52141 -17.97405,41.52141 -6.55249,0 -12.406634,10.67216 -12.406634,22.61726 0,8.3396 9.532664,15.726 14.729364,11.4131 6.31019,-5.237 18.23192,-1.8307 18.23192,5.2093 0,5.3901 -2.2204,6.3325 -15.69585,6.6612 -8.63272,0.2106 -19.933721,-0.1768 -25.113353,-0.8608 z M 54.501524,878.94661 c -4.910697,-5.91702 1.232752,-13.93619 10.727859,-14.0034 6.985279,-0.0493 25.839164,-6.04859 32.576923,-10.36569 2.158167,-1.38283 3.923954,-5.10499 3.923954,-8.27146 0,-5.75947 8.1215,-11.25795 10.45256,-7.07663 5.65345,10.14102 4.69644,19.65091 -2.88419,28.65995 -6.77884,8.05621 -10.388909,9.65777 -21.769313,9.65777 -7.503589,0 -17.156971,1.33607 -21.451982,2.96903 -5.804574,2.20691 -8.775987,1.804 -11.575811,-1.56957 z m 101.596316,-2.71438 c -9.57718,-7.01626 -16.69755,-22.62774 -16.69755,-36.60955 0,-19.23112 10.053,-24.85889 44.40594,-24.85889 40.89951,0 66.42019,13.48496 52.28047,27.62468 -2.92989,2.92987 -2.92989,3.76701 0,3.76701 5.17034,0 4.62315,19.01189 -0.75123,26.10102 -6.28271,8.28728 -69.05328,11.43674 -79.23763,3.97573 z m 64.13605,-15.06782 c 5.52827,-4.53792 4.88329,-23.01869 -1.00901,-28.91098 -3.45385,-3.45383 -10.9397,-4.93298 -24.96566,-4.93298 -31.1695,0 -38.42409,5.27155 -36.45361,26.48904 0.72666,7.82431 1.26665,8.27475 13.61186,11.35453 12.3513,3.08129 43.27695,0.54751 48.81642,-3.99961 z M 58.409727,839.2493 c -8.142409,-8.1424 -3.283321,-15.21688 11.645531,-16.95509 15.987191,-1.86144 31.675002,-10.38723 31.675002,-17.2143 0,-6.17061 -6.638686,-15.42948 -11.063057,-15.42948 -1.151708,0 -6.19682,-2.92144 -11.211322,-6.49208 -6.514313,-4.63863 -9.117313,-9.11979 -9.117313,-15.69586 0,-11.46621 6.772602,-12.13834 13.82688,-1.37221 2.822271,4.30737 9.867599,9.81046 15.656266,12.22914 16.370876,6.84017 27.021896,17.6063 27.021896,27.3139 0,20.13365 -54.932411,47.11745 -68.433883,33.61598 z m 87.860263,-45.49422 c -11.49097,-1.14222 -13.38718,-2.3083 -12.55669,-7.72174 0.92245,-6.01275 3.68244,-6.45469 48.40264,-7.75057 48.01525,-1.39135 64.0161,0.94678 64.0161,9.35441 0,2.43128 -3.17841,4.99532 -7.06312,5.69794 -9.74776,1.76296 -76.25984,2.06398 -92.79893,0.41996 z"
       id="path3119"
       inkscape:connector-curvature="0" />
  </g>
</svg>
