<?xml version="1.0" encoding="UTF-8" standalone="no"?>
<!-- Created with Inkscape (http://www.inkscape.org/) -->

<svg
   xmlns:dc="http://purl.org/dc/elements/1.1/"
   xmlns:cc="http://creativecommons.org/ns#"
   xmlns:rdf="http://www.w3.org/1999/02/22-rdf-syntax-ns#"
   xmlns:svg="http://www.w3.org/2000/svg"
   xmlns="http://www.w3.org/2000/svg"
   xmlns:sodipodi="http://sodipodi.sourceforge.net/DTD/sodipodi-0.dtd"
   xmlns:inkscape="http://www.inkscape.org/namespaces/inkscape"
   width="300"
   height="300"
   id="svg2"
   version="1.1"
   inkscape:version="0.48.3.1 r9886"
   sodipodi:docname="é‚-.svg">
  <defs
     id="defs4" />
  <sodipodi:namedview
     id="base"
     pagecolor="#ffffff"
     bordercolor="#666666"
     borderopacity="1.0"
     inkscape:pageopacity="0.0"
     inkscape:pageshadow="2"
     inkscape:zoom="1.979899"
     inkscape:cx="139.51457"
     inkscape:cy="125.35279"
     inkscape:document-units="px"
     inkscape:current-layer="layer1"
     showgrid="false"
     inkscape:window-width="1215"
     inkscape:window-height="1000"
     inkscape:window-x="65"
     inkscape:window-y="24"
     inkscape:window-maximized="1" />
  <metadata
     id="metadata7">
    <rdf:RDF>
      <cc:Work
         rdf:about="">
        <dc:format>image/svg+xml</dc:format>
        <dc:type
           rdf:resource="http://purl.org/dc/dcmitype/StillImage" />
        <dc:title></dc:title>
      </cc:Work>
    </rdf:RDF>
  </metadata>
  <g
     inkscape:label="Calque 1"
     inkscape:groupmode="layer"
     id="layer1"
     transform="translate(0,-752.36218)">
    <path
       style="fill:#000000"
       d="m 184.80953,1036.7422 c -0.7872,-8.1274 1.15452,-23.111 3.16178,-24.3984 2.76131,-1.7709 4.48912,-55.24007 1.99733,-61.80998 -1.52388,-4.0179 -5.17686,-2.05353 -20.00327,10.75649 -9.97642,8.61965 -18.13894,16.7997 -18.13894,18.1779 0,1.37823 -4.45176,6.49201 -9.89281,11.36404 -7.32107,6.55528 -10.86615,8.0436 -13.63697,5.72479 -3.57719,-2.99352 0.46023,-13.65041 6.69579,-17.6738 1.18842,-0.7668 5.78462,-5.78588 10.21379,-11.15353 4.42915,-5.36763 13.3535,-14.20399 19.83187,-19.63631 18.46391,-15.48266 24.86698,-25.21445 23.77271,-36.13132 -0.53805,-5.36765 -1.71968,-10.76637 -2.62586,-11.99719 -1.90312,-2.58491 -15.72266,8.98246 -27.65819,23.15072 -13.85475,16.44648 -22.0482,22.29001 -26.2838,18.74553 -4.83066,-4.04245 -4.71734,-6.35213 0.53375,-10.87832 2.35111,-2.02656 7.92594,-8.07634 12.38849,-13.44398 4.46255,-5.36764 12.36983,-13.52365 17.57171,-18.12449 14.27699,-12.62733 19.813,-22.91882 17.3587,-32.26991 -1.17817,-4.48891 -3.62501,-8.16163 -5.43743,-8.16163 -1.81244,0 -9.60386,5.50985 -17.31429,12.2441 -7.71044,6.73425 -19.54935,14.84348 -26.3087,18.0205 -21.95053,10.31721 -17.94021,0.73477 8.69322,-20.77197 13.98447,-11.29258 25.4263,-21.82338 25.4263,-23.4018 0,-1.83685 -6.57191,-2.22345 -18.25799,-1.07411 -15.27922,1.50277 -18.60812,1.0322 -20.40406,-2.88427 -1.18033,-2.57403 -1.58595,-5.14229 -0.9014,-5.7073 3.56414,-2.94163 121.11796,-8.25509 128.70838,-5.81763 4.45909,1.43192 4.29752,2.21847 -1.16666,5.67927 -4.28343,2.71299 -15.15145,4.04597 -33.47566,4.10586 -30.24769,0.099 -34.7231,2.83878 -26.6221,16.29852 2.47988,4.12028 5.45697,15.42845 6.61576,25.12929 3.19579,26.75355 5.26439,28.18005 21.1718,14.59997 l 13.42952,-11.46474 4.96962,6.34705 c 2.7333,3.49089 5.81045,12.89209 6.83812,20.89159 1.02765,7.99951 2.961,16.02386 4.2963,17.83191 3.77915,5.11703 5.1349,81.39695 1.53071,86.12325 -2.83522,3.7178 -3.73224,3.7178 -8.07321,0 -3.57715,-3.0637 -5.34085,-13.8798 -6.5929,-40.43163 -1.64461,-34.87641 -4.15021,-57.04116 -7.37158,-65.20944 -1.20885,-3.06521 -2.9681,-2.7767 -8.50135,1.3942 -11.91836,8.98392 -14.10474,17.8936 -14.65403,59.71657 -0.56264,42.8399 -7.03216,69.6257 -16.81654,69.6257 -2.60167,0 -4.88223,-1.5685 -5.06791,-3.4855 z m -84.73138,-24.9982 c -1.080418,-2.3499 -8.520892,-3.6166 -21.623146,-3.6809 -30.95457,-0.1519 -32.936884,-2.8804 -37.261979,-51.28548 -3.093213,-34.61824 -2.892939,-40.23629 1.567418,-43.96889 4.596962,-3.84687 5.689491,-3.54403 10.810754,2.99668 4.388028,5.60426 5.488064,12.24515 4.78766,28.90306 -1.641907,39.05004 -0.504446,43.09384 13.123546,46.6564 l 7.955791,2.07968 -2.163425,-45.62089 c -2.256891,-47.59189 -0.534591,-56.82562 9.322371,-49.97987 4.132696,2.8702 5.252057,9.51765 5.252057,31.18998 0,21.51039 1.003406,27.54242 4.581595,27.54242 5.709608,0 8.746678,-12.16638 8.746678,-35.03876 0,-18.55197 3.09051,-23.50949 10.19191,-16.34897 2.86936,2.89324 4.22001,13.18798 4.09243,31.19293 -0.1723,24.31552 -0.89656,27.35291 -7.60652,31.89976 -4.07885,2.76393 -10.24884,5.02533 -13.711094,5.02533 -4.935095,0 -6.294999,2.04386 -6.294999,9.46102 0,9.92857 4.143068,12.84606 18.242413,12.84606 4.23563,0 8.64659,2.06175 9.80211,4.58164 1.15553,2.52 1.69081,4.7819 1.18951,5.0265 -0.5013,0.2445 -5.06189,2.6184 -10.13465,5.2748 -7.1285,3.7331 -9.5973,4.0164 -10.87043,1.2475 z M 40.052877,896.10274 c -6.405236,-5.36011 -7.715449,-4.69929 31.803908,-16.04065 20.02619,-5.74714 21.890596,-6.98417 24.738815,-16.41407 1.694204,-5.60919 2.121281,-11.0011 0.949063,-11.98206 -1.172222,-0.98095 -11.369489,0.16396 -22.660597,2.54401 -19.122737,4.03105 -29.683833,3.88106 -29.683833,-0.42158 0,-1.992 11.19377,-6.22637 31.654655,-11.97426 16.354833,-4.59442 21.658447,-8.55654 21.658447,-16.18026 0,-7.07532 9.495405,-10.84017 13.613545,-5.39764 4.76881,6.30247 3.47676,18.46977 -2.49169,23.46435 -3.98099,3.33142 -4.44978,5.19787 -1.66702,6.63711 5.25797,2.71937 5.92678,24.12778 0.91175,29.18454 -5.86057,5.90934 -32.189023,15.70955 -42.20398,15.70955 -4.722048,0 -11.3817,1.25229 -14.799224,2.78286 -4.64602,2.08075 -7.629085,1.59839 -11.823839,-1.9119 z m 5.147356,-78.94566 c 0,-3.66131 2.221381,-5.57676 6.46749,-5.57676 3.55712,0 7.394187,-1.25478 8.52682,-2.78838 1.132634,-1.53362 4.465863,-2.78839 7.40718,-2.78839 2.941317,0 11.099697,-2.12363 18.12973,-4.7192 11.524943,-4.25509 12.781882,-5.74081 12.781882,-15.10803 0,-12.06679 2.699145,-19.21012 7.258635,-19.21012 7.05643,0 12.73378,8.55509 12.73378,19.18831 0,17.3968 -5.71249,25.01906 -21.374256,28.52 -7.486856,1.67358 -17.056742,4.17155 -21.266407,5.5511 -4.209666,1.37952 -12.831395,2.50824 -19.159396,2.50824 -9.284077,0 -11.505458,-1.07672 -11.505458,-5.57677 z m 79.969657,-6.54748 c 0,-2.0675 5.85175,-5.96728 13.00389,-8.66621 11.51071,-4.34366 13.25455,-6.3059 15.18682,-17.0888 2.40991,-13.4482 4.79512,-15.93144 11.81515,-12.30075 4.56175,2.3593 5.31744,17.64153 1.40178,28.34795 -0.93688,2.56163 -8.65483,6.63966 -17.151,9.06223 -18.8947,5.38759 -24.25664,5.53029 -24.25664,0.64558 z m 106.6262,-0.85813 c -30.30924,-3.89088 -29.62911,-3.60769 -32.96811,-13.7274 -3.40892,-10.3316 -1.33456,-29.05787 3.21881,-29.05787 4.82269,0 8.09086,6.75792 8.09086,16.7303 0,9.4822 0.42578,9.80255 14.99431,11.28145 18.99716,1.92847 30.3435,7.00717 27.842,12.46231 -1.87395,4.08663 -4.8326,4.40952 -21.17787,2.31121 z"
       id="path3041"
       inkscape:connector-curvature="0"
       sodipodi:nodetypes="scsssscsssssssssssssssssscsssssscssscssssssscsssssscsssssssssssccccsssssssssssssssssssssssssssssssssssssssss" />
  </g>
</svg>
