<?xml version="1.0" encoding="UTF-8" standalone="no"?>
<!-- Created with Inkscape (http://www.inkscape.org/) -->

<svg
   xmlns:dc="http://purl.org/dc/elements/1.1/"
   xmlns:cc="http://creativecommons.org/ns#"
   xmlns:rdf="http://www.w3.org/1999/02/22-rdf-syntax-ns#"
   xmlns:svg="http://www.w3.org/2000/svg"
   xmlns="http://www.w3.org/2000/svg"
   xmlns:sodipodi="http://sodipodi.sourceforge.net/DTD/sodipodi-0.dtd"
   xmlns:inkscape="http://www.inkscape.org/namespaces/inkscape"
   width="300"
   height="300"
   id="svg2"
   version="1.1"
   inkscape:version="0.48.4 r9939"
   sodipodi:docname="image-seal.svg">
  <defs
     id="defs4" />
  <sodipodi:namedview
     id="base"
     pagecolor="#ffffff"
     bordercolor="#666666"
     borderopacity="1.0"
     inkscape:pageopacity="0.0"
     inkscape:pageshadow="2"
     inkscape:zoom="2.0506101"
     inkscape:cx="156.21232"
     inkscape:cy="110.79688"
     inkscape:document-units="px"
     inkscape:current-layer="layer1"
     showgrid="false"
     inkscape:window-width="1215"
     inkscape:window-height="1000"
     inkscape:window-x="65"
     inkscape:window-y="24"
     inkscape:window-maximized="1"
     fit-margin-top="10"
     fit-margin-left="10"
     fit-margin-right="10"
     fit-margin-bottom="10" />
  <metadata
     id="metadata7">
    <rdf:RDF>
      <cc:Work
         rdf:about="">
        <dc:format>image/svg+xml</dc:format>
        <dc:type
           rdf:resource="http://purl.org/dc/dcmitype/StillImage" />
        <dc:title />
      </cc:Work>
    </rdf:RDF>
  </metadata>
  <g
     inkscape:label="Calque 1"
     inkscape:groupmode="layer"
     id="layer1"
     transform="translate(0,-752.36218)">
    <path
       style="fill:#000000"
       d="m 224.06104,1045.2666 c -0.19476,-1.1526 -0.73893,-21.7986 -1.20944,-45.87992 -1.01535,-51.9693 -3.54844,-59.82542 -20.09845,-62.33431 -40.65885,-6.16369 -48.19266,-10.33093 -48.19266,-26.65705 0,-11.45362 10.73714,-25.09565 19.752,-25.09565 5.49138,0 8.06968,-5.92674 7.29318,-16.76508 -0.45297,-6.3224 -1.71543,-7.00837 -13.30212,-7.22827 -14.10879,-0.26824 -19.33143,-2.40579 -19.33143,-7.91535 0,-4.34401 19.87498,-7.15056 50.88494,-7.18552 26.87518,-0.0302 32.94048,4.69266 32.94048,25.6503 0,19.67886 -5.98935,24.62064 -29.83905,24.62064 -23.91053,0 -37.75254,4.70457 -36.63805,12.45227 1.08445,7.5387 11.90567,12.33407 32.7493,14.51269 28.76453,3.00654 35.42868,15.65021 38.36243,72.7839 1.81786,35.40295 -1.00205,51.13695 -9.16489,51.13695 -2.11874,0 -4.01157,-0.943 -4.20624,-2.0956 z m -8.02858,-175.50369 0,-12.7423 -10.47818,0.86703 c -9.18098,0.76002 -10.59044,1.84779 -11.38508,8.78742 -1.42397,12.43522 1.14883,15.83043 11.99592,15.83043 9.85119,0 9.86734,-0.0279 9.86734,-12.74258 z M 93.13487,940.85189 c -4.55891,-0.95058 -11.46386,-3.80874 -15.34436,-6.35117 -7.79451,-5.1072 -7.04801,5.31174 -7.77978,-108.58437 -0.10618,-16.52445 0.58784,-30.82532 1.54222,-31.77973 0.95441,-0.95438 3.64548,-1.00225 5.98019,-0.10646 3.53788,1.35761 4.22368,8.44105 4.11756,42.52939 -0.0701,22.49539 0.65878,41.68666 1.61959,42.6473 0.96081,0.96092 7.02077,-3.99764 13.46658,-11.01885 l 11.71963,-12.76578 -0.60625,-23.48131 c -0.33343,-12.91471 -0.67812,-25.36736 -0.76594,-27.67256 -0.53749,-14.10522 3.64238,-43.52895 6.43598,-45.30527 7.0011,-4.45166 7.78964,-1.23067 7.49988,30.63582 -0.68499,75.33416 -2.98873,66.25782 22.03743,86.82187 9.89735,8.13246 10.88076,9.95092 7.93396,14.66945 -1.85002,2.96239 -4.13502,5.38606 -5.07772,5.38606 -1.61118,0 -8.2629,-5.6571 -25.06266,-21.31457 l -7.16461,-6.67753 -15.88738,15.51133 c -14.06417,13.73145 -15.8874,16.78856 -15.8874,26.63916 0,13.18407 3.86287,15.38644 32.05501,18.27478 12.79639,1.31103 19.38546,0.83071 22.34903,-1.62872 5.97097,-4.95548 12.65629,-1.45661 12.65629,6.62416 0,6.68536 -0.63156,6.89185 -23.77417,7.77146 -13.07582,0.49708 -27.50418,0.12573 -32.06308,-0.82457 z m 73.68371,-116.01111 c -7.7781,-1.71448 -12.25809,-12.14957 -12.25809,-28.55228 0,-16.93586 4.38309,-22.77506 19.11834,-25.46957 12.99671,-2.37662 34.89409,1.2101 39.02713,6.39255 1.45032,1.81854 3.48409,10.31891 4.51948,18.8897 1.57147,13.00825 0.99757,16.67617 -3.47311,22.19725 -4.49444,5.55039 -8.22409,6.71285 -23.19268,7.22885 -9.81034,0.33818 -20.49384,0.0293 -23.74107,-0.6865 z m 35.89874,-16.08554 c 3.24391,-4.88235 2.47246,-19.80015 -1.2146,-23.48721 -5.01164,-5.01164 -23.13671,-4.07176 -29.63659,1.5368 -7.45392,6.43178 -5.4211,22.36845 3.30149,25.88275 7.14939,2.88043 24.68628,0.37729 27.5497,-3.93234 z"
       id="path3093"
       inkscape:connector-curvature="0" />
  </g>
</svg>
