<?xml version="1.0" encoding="UTF-8" standalone="no"?>
<!-- Created with Inkscape (http://www.inkscape.org/) -->

<svg
   xmlns:dc="http://purl.org/dc/elements/1.1/"
   xmlns:cc="http://creativecommons.org/ns#"
   xmlns:rdf="http://www.w3.org/1999/02/22-rdf-syntax-ns#"
   xmlns:svg="http://www.w3.org/2000/svg"
   xmlns="http://www.w3.org/2000/svg"
   xmlns:sodipodi="http://sodipodi.sourceforge.net/DTD/sodipodi-0.dtd"
   xmlns:inkscape="http://www.inkscape.org/namespaces/inkscape"
   width="300"
   height="300"
   viewBox="0 0 300 300"
   id="svg2"
   version="1.1"
   inkscape:version="0.91 r13725"
   sodipodi:docname="那-seal.svg">
  <defs
     id="defs4">
    <clipPath
       clipPathUnits="userSpaceOnUse"
       id="clipPath4204">
      <rect
         style="fill:#0000ff;fill-rule:evenodd;stroke:#000000;stroke-width:1px;stroke-linecap:butt;stroke-linejoin:miter;stroke-opacity:1"
         id="rect4206"
         width="15.451179"
         height="21.584471"
         x="164.41942"
         y="794.64594" />
    </clipPath>
  </defs>
  <sodipodi:namedview
     id="base"
     pagecolor="#ffffff"
     bordercolor="#666666"
     borderopacity="1.0"
     inkscape:pageopacity="0.0"
     inkscape:pageshadow="2"
     inkscape:zoom="1.7233333"
     inkscape:cx="150"
     inkscape:cy="150"
     inkscape:document-units="px"
     inkscape:current-layer="layer1"
     showgrid="false"
     inkscape:window-width="1280"
     inkscape:window-height="755"
     inkscape:window-x="0"
     inkscape:window-y="1"
     inkscape:window-maximized="1"
     units="px"
     showguides="false" />
  <metadata
     id="metadata7">
    <rdf:RDF>
      <cc:Work
         rdf:about="">
        <dc:format>image/svg+xml</dc:format>
        <dc:type
           rdf:resource="http://purl.org/dc/dcmitype/StillImage" />
        <dc:title></dc:title>
      </cc:Work>
    </rdf:RDF>
  </metadata>
  <g
     inkscape:label="Layer 1"
     inkscape:groupmode="layer"
     id="layer1"
     transform="translate(0,-752.36216)">
    <path
       style="fill:#000000"
       d="m 231.83361,1034.2617 c -1.87886,-4.2474 -1.91883,-11.1947 -0.13159,-22.8704 1.03625,-6.7696 1.27672,-12.47443 1.27484,-30.24453 -0.003,-27.6555 -1.05353,-36.3513 -5.42432,-44.89643 -3.41769,-6.68176 -5.89897,-8.31765 -19.43732,-12.81488 -13.899,-4.61704 -17.08162,-6.35856 -19.65971,-10.75774 -2.76728,-4.72199 -2.8872,-9.46055 -0.4755,-18.78827 l 1.97742,-7.64805 3.53676,-2.43347 c 1.94523,-1.33841 5.4462,-3.60781 7.77994,-5.04312 l 4.24317,-2.60965 0,-14.52107 0,-14.52108 -2.25965,-0.39041 c -1.24281,-0.21473 -5.3884,-0.73051 -9.21242,-1.14618 -10.40448,-1.13096 -10.79794,-1.25243 -11.6109,-3.58448 -0.53801,-1.54332 -1.85172,-2.62755 -5.32837,-4.39758 -3.40367,-1.73287 -6.52646,-4.27862 -11.9023,-9.70293 -4.0084,-4.04454 -7.53289,-7.35371 -7.83222,-7.35371 -0.29932,0 -0.46135,9.28409 -0.36006,20.63131 l 0.18417,20.63132 9.94794,8.3965 c 9.7795,8.25433 13.62866,12.68807 15.29157,17.61392 0.66934,1.98272 0.57937,2.43712 -0.72271,3.6502 -2.90394,2.70543 -4.82335,1.89266 -12.9703,-5.49221 -3.20949,-2.90927 -7.07813,-6.36155 -8.59698,-7.67174 l -2.76156,-2.38216 0.25366,76.80721 c 0.24131,73.06953 0.19267,76.90033 -0.99945,78.71993 -1.26751,1.9346 -3.6932,3.2411 -6.01767,3.2411 -1.00695,0 -1.51076,-1.0454 -2.42944,-5.0408 -0.63747,-2.7724 -1.33739,-5.6665 -1.55539,-6.4313 -0.218,-0.7648 -0.66833,-33.77313 -1.00075,-73.35173 -0.33241,-39.57867 -0.83947,-73.4377 -1.12679,-75.24232 l -0.5224,-3.28111 -12.64355,10.4077 c -6.95396,5.72425 -12.98305,10.40772 -13.39798,10.40772 -1.58268,0 -13.82445,-6.59341 -19.017534,-10.24283 -2.985554,-2.09809 -5.588303,-3.65469 -5.783877,-3.45911 -0.195575,0.19558 -0.959503,29.71821 -1.697623,65.60585 -1.53682,74.72153 -1.849917,80.81123 -4.425543,86.07563 -1.898773,3.8809 -5.938806,6.9339 -7.33205,5.5406 -2.249798,-2.2498 -2.571323,-19.8845 -0.683548,-37.49043 0.369025,-3.4416 0.873553,-32.5905 1.121169,-64.77531 l 0.450213,-58.51785 -7.686002,7.41499 c -8.602148,8.29883 -13.66152,11.71361 -18.296242,12.34887 -2.873886,0.39391 -3.202607,0.28311 -3.936094,-1.32672 -1.827038,-4.00992 -0.510098,-5.65868 15.438129,-19.32806 l 14.916961,-12.78546 0.0255,-20.08009 0.0255,-20.08011 -7.492839,7.21748 c -8.091103,7.79374 -12.225666,10.34622 -16.759097,10.34622 -2.327467,0 -3.032273,-0.30611 -3.60198,-1.56438 -1.606988,-3.54923 0.290524,-5.87266 15.165111,-18.56909 7.743648,-6.60971 14.084783,-12.21442 14.091409,-12.45492 0.147092,-5.33834 1.771704,-14.33726 3.387827,-18.76552 3.377058,-9.25337 7.884879,-14.63894 15.02496,-17.95058 4.04173,-1.87459 4.53982,-1.93526 15.99138,-1.94813 18.43716,-0.0207 25.03235,2.04979 31.36968,9.84823 3.10603,3.82215 3.0646,3.68736 5.88082,19.13321 l 1.48351,8.13642 5.31533,4.33765 c 2.92343,2.3857 8.98462,7.93057 13.46931,12.32194 6.67231,6.53345 8.35769,8.5976 9.27503,11.35943 l 1.12104,3.37514 6.18548,-0.46695 c 8.04411,-0.60724 35.85119,0.93794 41.66342,2.31516 8.69213,2.05961 13.44664,5.79388 15.99707,12.56436 2.09708,5.56697 1.71606,14.72755 -1.00136,24.07512 -0.95512,3.28551 -1.38065,3.7647 -5.46481,6.15383 -8.02056,4.69183 -13.56335,5.93134 -31.95504,7.14595 l -6.78041,0.44778 -2.3498,2.74522 c -2.74625,3.20838 -4.08907,7.38288 -3.77842,11.74622 0.20923,2.9388 0.41068,3.21086 3.69767,4.99361 1.91201,1.03701 7.65455,3.35776 12.76121,5.15722 8.8078,3.10367 15.74906,6.79055 18.28375,9.71151 2.05074,2.36326 6.12192,10.37622 7.84332,15.43732 4.50968,13.25899 6.42636,36.21609 4.53939,54.37049 -3.19101,30.70043 -4.69166,43.23433 -5.24005,43.76613 -0.35346,0.3429 -1.81797,0.8394 -3.25445,1.1034 -2.59201,0.4763 -2.62303,0.4545 -4.09756,-2.879 z M 131.3959,869.43567 145.74621,858.43032 145.29387,841.0484 c -0.24878,-9.56006 -0.64499,-18.70102 -0.88046,-20.31325 l -0.42813,-2.93131 -9.0386,8.08354 c -4.97123,4.44595 -9.96596,9.28488 -11.0994,10.75318 -2.53964,3.28995 -4.44189,3.43445 -9.97375,0.75763 -2.70095,-1.30697 -6.53739,-4.41756 -12.12358,-9.82982 l -8.17225,-7.91781 0,22.31624 0,22.31624 10.95061,8.37051 c 6.02284,4.60377 11.30312,8.23931 11.73394,8.07898 0.43083,-0.16033 7.24097,-5.24392 15.13365,-11.29686 z m 99.73644,4.25906 c 5.35215,-1.58942 6.24488,-2.67301 7.16366,-8.69529 0.99732,-6.53701 0.42583,-9.7451 -2.28624,-12.83398 -2.49458,-2.84115 -6.83317,-4.34046 -14.44023,-4.99017 l -5.1537,-0.44018 0.45777,8.97635 c 0.25177,4.937 0.45903,11.44429 0.46058,14.46065 l 0.003,5.4843 5.17348,-0.46881 c 2.8454,-0.25784 6.72525,-0.92963 8.62186,-1.49287 z m -87.89948,-74.13204 c -0.083,-8.49886 -3.19953,-14.80266 -8.73302,-17.66414 -4.15798,-2.15018 -7.92655,-3.13132 -14.69531,-3.82593 -5.64771,-0.57956 -7.5897,-0.51032 -11.14477,0.39739 -6.30369,1.60952 -8.985245,3.19107 -10.46622,6.17285 -1.544982,3.11067 -4.227965,12.68586 -4.840782,17.2761 -0.551014,4.12732 -0.644536,4.01988 13.708292,15.74735 l 11.04988,9.02869 12.58954,-10.63927 12.58954,-10.63929 -0.0572,-5.85375 z m 64.58927,25.11976 c -6.30852,-0.8845 -13.44739,-3.39967 -15.33644,-5.40335 -4.83014,-5.12321 -7.73295,-10.44416 -9.57423,-17.54988 -1.82838,-7.05596 -1.15703,-13.43852 2.20161,-20.93057 1.60075,-3.57077 2.12436,-4.09247 5.69513,-5.6744 6.78684,-3.00673 14.49132,-4.15554 25.48589,-3.80018 6.81704,0.22033 10.92834,0.69848 13.71994,1.59561 9.38183,3.01504 14.47915,12.84146 13.52058,26.06446 -0.76766,10.58946 -3.62167,15.62041 -11.9119,20.99787 -6.40721,4.15603 -15.24076,5.90059 -23.80058,4.70044 z m 15.17351,-12.71805 c 2.05018,-1.02272 4.74458,-2.71907 5.98756,-3.76967 2.03892,-1.72337 2.33399,-2.46684 3.01712,-7.60196 0.63407,-4.76634 0.57634,-6.31386 -0.35507,-9.5178 -1.92261,-6.61354 -5.20922,-7.90617 -21.76074,-8.55859 -10.565,-0.41644 -10.58482,-0.41436 -12.90754,1.35726 -2.81414,2.14645 -3.97466,5.58618 -3.97466,11.78072 0,3.71164 0.39777,5.28285 2.25965,8.92585 1.24281,2.43171 3.08817,5.02054 4.10081,5.75295 6.01727,4.35215 16.7002,5.08954 23.63287,1.63124 z"
       id="path4449"
       inkscape:connector-curvature="0" />
  </g>
</svg>
