<?xml version="1.0" encoding="UTF-8" standalone="no"?>
<!-- Created with Inkscape (http://www.inkscape.org/) -->

<svg
   xmlns:dc="http://purl.org/dc/elements/1.1/"
   xmlns:cc="http://creativecommons.org/ns#"
   xmlns:rdf="http://www.w3.org/1999/02/22-rdf-syntax-ns#"
   xmlns:svg="http://www.w3.org/2000/svg"
   xmlns="http://www.w3.org/2000/svg"
   xmlns:sodipodi="http://sodipodi.sourceforge.net/DTD/sodipodi-0.dtd"
   xmlns:inkscape="http://www.inkscape.org/namespaces/inkscape"
   width="300"
   height="300"
   id="svg2"
   version="1.1"
   inkscape:version="0.48.4 r9939"
   sodipodi:docname="image-seal.svg">
  <defs
     id="defs4" />
  <sodipodi:namedview
     id="base"
     pagecolor="#ffffff"
     bordercolor="#666666"
     borderopacity="1.0"
     inkscape:pageopacity="0.0"
     inkscape:pageshadow="2"
     inkscape:zoom="1.979899"
     inkscape:cx="130.93154"
     inkscape:cy="137.35134"
     inkscape:document-units="px"
     inkscape:current-layer="layer1"
     showgrid="false"
     inkscape:window-width="1215"
     inkscape:window-height="1000"
     inkscape:window-x="65"
     inkscape:window-y="24"
     inkscape:window-maximized="1"
     fit-margin-top="10"
     fit-margin-left="10"
     fit-margin-right="10"
     fit-margin-bottom="10" />
  <metadata
     id="metadata7">
    <rdf:RDF>
      <cc:Work
         rdf:about="">
        <dc:format>image/svg+xml</dc:format>
        <dc:type
           rdf:resource="http://purl.org/dc/dcmitype/StillImage" />
        <dc:title />
      </cc:Work>
    </rdf:RDF>
  </metadata>
  <g
     inkscape:label="Calque 1"
     inkscape:groupmode="layer"
     id="layer1"
     transform="translate(0,-752.36218)">
    <path
       style="fill:#000000"
       d="m 215.86917,1007.0425 c -0.35893,-44.29387 -0.55634,-46.89761 -4.26657,-56.26871 -3.22624,-8.14869 -4.87558,-9.231 -16.20956,-10.63676 -16.17609,-2.00636 -26.56831,-8.64129 -29.3779,-18.75633 -5.92356,-21.32623 -1.60011,-33.75693 13.49029,-38.78706 10.21022,-3.40342 10.3117,-3.55877 10.3117,-15.7863 0,-11.8937 -0.27787,-12.37447 -7.53503,-13.0378 -14.86062,-1.35829 -18.83755,-3.07889 -18.83755,-8.14997 0,-5.79122 -2.15127,-5.49562 36.29221,-4.98658 26.93076,0.35657 30.47534,0.93049 34.51505,5.58832 3.65412,4.21323 4.21251,7.84305 2.96475,19.27231 -0.84554,7.74477 -3.37938,15.98741 -5.63082,18.31697 -2.60491,2.69533 -11.68905,5.2589 -24.98058,7.04955 -25.61286,3.45064 -26.75321,3.87526 -30.09301,11.2053 -3.91531,8.5932 -1.02732,16.27278 6.698,17.81094 3.63383,0.72351 10.07799,2.40653 14.32033,3.74003 4.24235,1.33353 10.15009,2.42457 13.1284,2.42457 13.29923,0 19.90207,23.62479 20.2487,72.44914 0.28491,40.12968 -1.33806,48.11118 -9.78288,48.11118 -4.68308,0 -4.95134,-2.0193 -5.25553,-39.5588 z m 5.91446,-134.71312 c 2.21751,-3.40085 -0.1944,-12.15393 -4.0487,-14.69307 -9.44054,-6.21927 -17.52713,4.56946 -11.65254,15.54629 2.1561,4.02867 4.25772,4.94767 8.37652,3.66292 3.02408,-0.9433 6.32021,-2.97554 7.32472,-4.51614 z M 68.628855,1029.8141 c -3.79189,-1.4651 -4.231907,-25.5921 -0.701593,-38.46959 1.325491,-4.83498 3.031902,-17.83288 3.792028,-28.88426 0.760124,-11.05136 1.91441,-28.00517 2.565079,-37.67511 0.650666,-9.66994 1.777423,-39.62165 2.503901,-66.55936 0.726474,-26.9377 1.58959,-54.06379 1.918032,-60.28018 0.597678,-11.31218 -0.379383,-13.73454 -9.088731,-22.53328 -2.564405,-2.59071 -3.983134,-5.80973 -3.152735,-7.15333 1.975327,-3.19615 20.028055,2.08228 26.720958,7.81292 2.75696,2.3606 6.210718,4.29198 7.675016,4.29198 5.33675,0 9.83858,7.38813 9.83858,16.14647 0,4.93366 -1.02264,8.97027 -2.27254,8.97027 -1.30758,0 -1.98825,23.72971 -1.60302,55.88474 0.84808,70.78805 0.23608,65.18515 7.01516,64.22238 l 5.65126,-0.80261 0.60012,-61.53601 c 0.33006,-33.8448 1.60214,-63.79652 2.82686,-66.55936 1.22471,-2.76285 3.41756,-8.00877 4.87299,-11.65762 4.22905,-10.60245 31.58368,-20.75159 40.41577,-14.99511 5.3154,3.46442 1.4578,9.86143 -6.49686,10.77362 l -7.05544,0.80906 0.37956,82.91312 c 0.26838,58.62218 1.59542,93.49858 4.52965,119.04474 4.32317,37.63872 3.64603,42.27672 -5.73766,39.29852 -6.13681,-1.9478 -7.28752,-7.0697 -9.34141,-41.57828 -1.65693,-27.8393 -2.76556,-37.63355 -4.45054,-39.31853 -0.56488,-0.56491 -12.9184,-1.56071 -27.45225,-2.21291 l -26.425196,-1.18582 -1.858927,11.93985 c -1.567406,10.06739 -2.323407,23.82214 -3.5745,65.03469 -0.205304,6.7628 -7.928156,15.8685 -12.093562,14.259 z M 141.64176,902.80799 c 0.69909,-12.77814 1.3018,-39.90228 1.33934,-60.27586 0.0376,-20.37359 0.77425,-38.18518 1.63712,-39.58134 2.08379,-3.37162 -0.9339,-12.54022 -4.1274,-12.54022 -4.02777,0 -8.65803,5.8458 -8.95236,11.30254 -0.14902,2.76285 -0.43152,26.84852 -0.62777,53.52375 -0.19623,26.67521 -1.43347,51.33224 -2.74938,54.79335 -2.96619,7.80167 0.88376,16.01077 7.5088,16.01077 4.1626,0 4.84605,-2.659 5.97165,-23.23299 z m -47.471653,12.55837 c 2.100641,-13.39586 4.245485,-116.29442 2.517905,-120.79639 -2.608938,-6.79881 -5.417272,-4.7744 -7.296004,5.25939 -2.178114,11.63269 -4.566575,115.59219 -2.763662,120.29049 2.330796,6.07397 6.229185,3.61685 7.541761,-4.75349 z m 95.279853,-86.67407 c -12.70339,-3.9956 -12.95207,-4.26546 -14.46909,-15.70144 -1.85046,-13.94945 0.291,-26.38182 5.25369,-30.50049 2.21083,-1.83482 10.63395,-2.82128 21.57956,-2.52724 15.50104,0.41638 18.87442,1.36475 24.69695,6.94309 6.27211,6.00906 6.64585,7.5397 5.34465,21.88942 -0.76946,8.48572 -2.66775,16.69731 -4.21846,18.24799 -5.11868,5.11869 -24.49517,5.95526 -38.1873,1.64867 z m 29.71821,-19.46561 c 4.09185,-8.98066 -1.42961,-18.81611 -10.56309,-18.81611 -11.85101,0 -21.94432,4.88976 -23.15385,11.21697 -2.02061,10.57018 2.07627,13.89977 17.10292,13.89977 12.23457,0 14.05839,-0.69166 16.61402,-6.30063 z"
       id="path3119"
       inkscape:connector-curvature="0" />
  </g>
</svg>
