<?xml version="1.0" encoding="UTF-8" standalone="no"?>
<!-- Created with Inkscape (http://www.inkscape.org/) -->

<svg
   xmlns:dc="http://purl.org/dc/elements/1.1/"
   xmlns:cc="http://creativecommons.org/ns#"
   xmlns:rdf="http://www.w3.org/1999/02/22-rdf-syntax-ns#"
   xmlns:svg="http://www.w3.org/2000/svg"
   xmlns="http://www.w3.org/2000/svg"
   xmlns:sodipodi="http://sodipodi.sourceforge.net/DTD/sodipodi-0.dtd"
   xmlns:inkscape="http://www.inkscape.org/namespaces/inkscape"
   width="300"
   height="300"
   id="svg2"
   version="1.1"
   inkscape:version="0.48.4 r9939"
   sodipodi:docname="image-seal.svg">
  <defs
     id="defs4" />
  <sodipodi:namedview
     id="base"
     pagecolor="#ffffff"
     bordercolor="#666666"
     borderopacity="1.0"
     inkscape:pageopacity="0.0"
     inkscape:pageshadow="2"
     inkscape:zoom="1.9351156"
     inkscape:cx="211.18582"
     inkscape:cy="158.19918"
     inkscape:document-units="px"
     inkscape:current-layer="layer1"
     showgrid="false"
     inkscape:window-width="1215"
     inkscape:window-height="1000"
     inkscape:window-x="65"
     inkscape:window-y="24"
     inkscape:window-maximized="1" />
  <metadata
     id="metadata7">
    <rdf:RDF>
      <cc:Work
         rdf:about="">
        <dc:format>image/svg+xml</dc:format>
        <dc:type
           rdf:resource="http://purl.org/dc/dcmitype/StillImage" />
        <dc:title></dc:title>
      </cc:Work>
    </rdf:RDF>
  </metadata>
  <g
     inkscape:label="Calque 1"
     inkscape:groupmode="layer"
     id="layer1"
     transform="translate(0,-752.36218)">
    <path
       style="fill:#000000"
       d="m 240.93452,1030.2977 c -0.79399,-9.1842 -1.66371,-31.55928 -1.93274,-49.72233 -0.26892,-18.16301 -1.87498,-35.24274 -3.56877,-37.95491 -1.69376,-2.71214 -9.12013,-6.58772 -16.50303,-8.61235 -32.67725,-8.96124 -35.2042,-11.53288 -35.2042,-35.82716 0,-17.58977 3.91743,-24.5911 14.52051,-25.95144 6.30551,-0.80896 7.37875,-2.57614 8.16129,-13.43833 l 0.90105,-12.50686 -9.7996,1.83841 c -6.91298,1.29688 -10.85557,0.56604 -13.38449,-2.48112 -5.32682,-6.41845 -1.03435,-7.76807 30.89228,-9.71312 37.41138,-2.2792 41.31153,-0.33482 41.31153,20.59563 0,9.05009 -1.54646,16.79824 -3.71138,18.59495 -2.04124,1.6941 -13.89843,4.0033 -26.34928,5.13157 -25.55067,2.31533 -30.9255,5.8067 -30.9255,20.08844 0,11.73408 6.35508,18.85393 16.90603,18.94044 9.09583,0.0746 29.51251,8.81967 34.40749,14.73777 5.0595,6.11703 8.88932,86.05371 5.03023,104.99271 -2.93451,14.4017 -9.19152,9.3314 -10.75142,-8.7123 z M 235.87415,869.846 c 3.45878,0 5.79069,-2.91517 6.94376,-8.68054 2.75437,-13.77178 -0.23784,-17.88924 -12.26998,-16.88364 -8.52081,0.71215 -10.70464,2.17764 -11.48758,7.70891 -1.61152,11.38496 2.07954,21.51095 7.13404,19.57136 2.45963,-0.94386 6.81553,-1.71609 9.67976,-1.71609 z m -134.36214,152.0506 c -3.196076,-3.1961 -2.321826,-23.30191 1.36502,-31.3937 5.9283,-13.01113 10.12696,-8.83855 9.20236,9.14517 -0.80037,15.56733 -6.09702,26.71883 -10.56738,22.24853 z m 34.68662,-12.8789 c -2.95086,-14.75436 -2.16777,-182.18948 0.86083,-184.06129 6.25985,-3.86879 7.49479,10.00307 8.13291,91.35523 0.36961,47.11907 1.02303,88.89746 1.45205,92.84066 1.23962,11.3934 -8.16442,11.2721 -10.44579,-0.1347 z M 65.676294,980.92793 c 0.99767,-10.78148 2.68034,-32.99787 3.73926,-49.36975 1.05892,-16.37188 2.75042,-29.76705 3.7589,-29.76705 1.00845,0 2.12638,-9.82022 2.48428,-21.82271 0.3579,-12.00248 1.92371,-30.62504 3.47955,-41.38346 1.55588,-10.75842 2.85474,-29.7568 2.88636,-42.21863 l 0.0575,-22.65787 -8.84427,-3.08314 c -13.68433,-4.77036 -8.70902,-9.75523 9.15147,-9.16906 18.687576,0.61329 30.703426,6.24042 36.280696,16.9906 4.21598,8.12629 4.18723,33.77497 -0.14491,129.15248 -2.75907,60.747 -4.09969,70.20105 -9.79897,69.10347 -4.23856,-0.81628 -4.7162,-4.84811 -3.8387,-32.4025 0.55123,-17.30862 1.56438,-34.93415 2.25147,-39.16778 0.68705,-4.23366 1.18528,-9.65782 1.10716,-12.05371 -0.0781,-2.39588 0.0941,-10.89038 0.38252,-18.87667 2.0717,-57.34499 0.85956,-91.80644 -3.3222,-94.45002 -9.568186,-6.04872 -10.708856,-2.9145 -12.971736,35.64194 -3.71359,63.27567 -3.99567,66.79393 -5.97856,74.5694 -1.04794,4.10934 -3.10843,21.84681 -4.57887,39.41664 -4.83327,57.75113 -7.61758,71.15059 -14.78473,71.15059 -2.10765,0 -2.53772,-6.40409 -1.31637,-19.60277 z M 170.91398,996.9005 c -4.85749,-17.40525 -7.82031,-60.47129 -9.14057,-132.86271 -1.14291,-62.66746 -2.4763,-85.67103 -4.96582,-85.67103 -5.57431,0 -10.74657,13.57006 -10.79234,28.315 -0.0319,10.30666 -1.14422,13.79449 -4.39896,13.79449 -4.98443,0 -5.36336,-1.86101 -4.41694,-21.6915 1.02472,-21.47148 4.02895,-27.06987 15.70135,-29.25962 7.17851,-1.34669 9.63047,-3.10414 8.4873,-6.08319 -0.88418,-2.30415 -0.46715,-3.92156 0.92676,-3.59424 1.39388,0.32735 6.14514,-0.41857 10.55836,-1.65757 5.17923,-1.45406 9.55499,-0.98211 12.34244,1.33127 6.10428,5.06612 5.38089,8.32141 -2.66373,11.9868 -14.20435,6.47194 -14.66529,47.37109 -2.24734,199.40636 1.84584,22.59914 0.43303,29.61614 -5.963,29.61614 -1.32793,0 -2.8703,-1.63363 -3.42751,-3.6302 z m 23.3886,-182.95848 c -6.58984,-10.55999 -8.07279,-21.94962 -4.43764,-34.08264 3.14067,-10.48265 4.49436,-11.58772 17.65082,-14.40926 23.8006,-5.10433 30.25625,-4.08987 37.34748,5.86888 5.16193,7.24928 6.0893,11.69035 4.93962,23.65542 -1.91438,19.92337 -9.02729,25.35044 -33.33898,25.43724 -15.64719,0.0558 -18.63308,-0.81579 -22.1613,-6.46964 z m 41.11623,-8.5671 c 4.45118,-4.45118 4.53209,-23.34731 0.11878,-27.76053 -3.79947,-3.79946 -27.75146,-1.69239 -33.66125,2.9612 -4.6495,3.6612 -4.66344,15.09207 -0.029,22.51545 2.73885,4.3854 6.77811,5.7688 16.84394,5.7688 7.28262,0 14.80932,-1.56822 16.72603,-3.48492 z"
       id="path3054"
       inkscape:connector-curvature="0" />
  </g>
</svg>
