<?xml version="1.0" encoding="UTF-8" standalone="no"?>
<svg
   xmlns:dc="http://purl.org/dc/elements/1.1/"
   xmlns:cc="http://creativecommons.org/ns#"
   xmlns:rdf="http://www.w3.org/1999/02/22-rdf-syntax-ns#"
   xmlns:svg="http://www.w3.org/2000/svg"
   xmlns="http://www.w3.org/2000/svg"
   xmlns:sodipodi="http://sodipodi.sourceforge.net/DTD/sodipodi-0.dtd"
   xmlns:inkscape="http://www.inkscape.org/namespaces/inkscape"
   inkscape:version="0.92.4 (5da689c313, 2019-01-14)"
   sodipodi:docname="郭-seal.svg"
   viewBox="0 0 300 300"
   height="300"
   width="300"
   id="svg38"
   version="1.1">
  <metadata
     id="metadata44">
    <rdf:RDF>
      <cc:Work
         rdf:about="">
        <dc:format>image/svg+xml</dc:format>
        <dc:type
           rdf:resource="http://purl.org/dc/dcmitype/StillImage" />
        <dc:title></dc:title>
      </cc:Work>
    </rdf:RDF>
  </metadata>
  <defs
     id="defs42" />
  <sodipodi:namedview
     inkscape:current-layer="g46"
     inkscape:window-maximized="1"
     inkscape:window-y="-8"
     inkscape:window-x="-8"
     inkscape:cy="234.99472"
     inkscape:cx="120.6921"
     inkscape:zoom="7.9195959"
     showgrid="false"
     id="namedview40"
     inkscape:window-height="1017"
     inkscape:window-width="1920"
     inkscape:pageshadow="2"
     inkscape:pageopacity="0"
     guidetolerance="10"
     gridtolerance="10"
     objecttolerance="10"
     borderopacity="1"
     inkscape:document-rotation="0"
     bordercolor="#666666"
     pagecolor="#ffffff" />
  <g
     id="g46"
     inkscape:label="Image"
     inkscape:groupmode="layer"
     transform="translate(0,-101)">
    <path
       sodipodi:nodetypes="sssccsassssssssssccssccscsssscsssssscssscssssssssssssssssssssssssssssassssssssssssssssscccscsass"
       inkscape:connector-curvature="0"
       id="path50"
       d="m 229.15321,375.30588 c -0.75139,-37.1452 1.15461,-76.07194 -35.4317,-83.01827 -21.37,-4.05734 -27.01515,-10.14684 -27.05177,-24.02809 -0.0438,-16.61013 7.46358,-22.86127 24.56997,-22.86877 v -26.16113 l -17.11347,-0.44736 c -6.12704,-0.16016 -11.83623,-1.33005 -11.76511,-5.68502 0.0721,-4.41485 6.1644,-5.43829 12.10871,-5.37068 l 22.02877,0.25053 c 18.91092,0.21506 41.96726,3.27111 42.22182,24.36573 0.26106,21.63502 -20.4727,23.82224 -43.42541,23.73183 -12.7126,-0.05 -17.98075,2.34058 -17.97745,11.28509 0.003,9.94763 6.65095,12.29103 16.5075,13.99967 49.02029,8.49764 46.49233,54.34504 46.33343,94.42424 -0.0152,3.84269 -0.408,10.268 -5.16844,10.21602 -5.20614,-0.0568 -5.76743,-7.26198 -5.83685,-10.69379 z M 227.7266,232.26541 c -0.0678,-12.96151 -16.15893,-13.23994 -25.45599,-13.21654 v 26.37915 c 12.56142,-0.19974 25.52341,-0.27097 25.45599,-13.16261 z m -121.23345,132.87125 0.037,-33.17458 c -30.66353,-1.16816 -39.892451,-18.09123 -40.074818,-49.16664 0.04821,-6.57028 -0.125237,-15.93535 4.776423,-15.99473 5.643612,-0.0684 5.937165,9.61198 6.40813,15.84507 0.100305,26.50146 7.838806,38.29122 34.331855,38.3021 29.72145,0.0122 34.89114,-11.48683 34.98369,-37.12234 0.0337,-9.33782 0.34604,-17.07435 6.40977,-17.02514 4.51501,0.0366 5.13969,7.18166 5.30041,16.79788 0.50564,30.25313 -9.47347,47.43508 -39.99036,47.98746 l -0.15666,33.45866 c -0.0253,5.40457 -2.43951,10.4957 -6.58794,10.56038 -3.42365,0.0534 -5.44368,-4.93005 -5.4375,-10.46812 z M 90.069491,295.53973 c 0.006,-11.67836 10.697089,-16.54121 21.491099,-16.48989 11.41028,0.0543 22.72752,5.21984 22.64507,16.75523 -0.0829,11.5947 -11.57624,15.75112 -23.07447,15.60419 -10.72815,-0.13709 -21.067539,-4.07275 -21.061699,-15.86953 z m 32.227059,0.27546 c 0.0642,-5.93951 -7.12187,-6.18308 -10.92505,-6.19363 -4.36882,-0.0121 -10.10484,0.3122 -10.15621,5.9731 -0.0451,4.96815 6.11838,5.37281 9.98001,5.39985 4.55411,0.0319 11.07468,-0.67021 11.10125,-5.17932 z M 71.302373,239.4958 c 0.157776,-25.96309 11.940446,-29.22243 40.604377,-29.17578 30.71591,0.05 42.24605,5.15161 42.42066,28.90311 0.1922,26.14438 -12.0812,32.75271 -42.59759,32.25034 -29.339086,-0.48299 -40.583152,-6.35528 -40.427447,-31.97767 z m 72.303087,-0.34756 c -0.1979,-18.57908 -13.28732,-18.31093 -31.23129,-18.25042 -19.416429,0.0655 -29.43981,-0.27827 -30.039822,18.50893 0.0705,21.40783 10.508098,20.92509 29.310692,21.05455 18.57798,0.12791 32.18449,-0.27767 31.96042,-21.31306 z m -51.653129,1.01579 c 0.22482,-12.47108 9.182839,-14.24276 20.256679,-14.0592 11.8596,0.19657 20.79231,1.66071 20.68049,13.80796 -0.12466,13.54417 -8.46564,15.10857 -21.1553,15.13188 -13.083699,0.0241 -19.990579,-3.30315 -19.781869,-14.88064 z m 29.299569,-0.0765 c 0.0367,-4.52911 -6.17323,-4.64434 -9.26966,-4.63749 -3.09643,0.007 -8.58947,0.26555 -8.65556,4.66591 -0.0645,4.2907 5.38478,4.9223 8.44965,4.92018 3.61026,-0.003 9.44028,-0.58858 9.47557,-4.9486 z M 82.856654,182.76749 c 0.121127,-15.1079 14.156717,-20.04992 28.395276,-19.9519 15.19979,0.10464 29.43858,6.21488 29.53978,20.5024 0.10849,15.31474 -14.65239,19.70698 -29.30735,19.55536 -13.939639,-0.14422 -28.761324,-3.43974 -28.627706,-20.10586 z m 45.989496,0.53871 c -0.0983,-9.0421 -10.84936,-9.15571 -17.43378,-9.29704 -6.89862,-0.14807 -18.664239,0.38492 -18.666829,8.94794 -0.003,8.74568 11.359599,10.03327 18.324619,10.04058 6.74875,0.007 17.86864,-1.17289 17.77599,-9.69148 z m 43.68113,-8.23579 c -0.1331,-18.43758 14.69196,-23.63074 28.08878,-23.64766 14.10358,-0.0178 27.78231,9.32189 27.65757,23.61813 -0.1345,15.41409 -9.85057,24.2925 -28.76139,24.10133 -16.59717,-0.16777 -26.87885,-9.37273 -26.98496,-24.0718 z m 44.70571,0.0865 c -0.0788,-8.15007 -5.78112,-12.95795 -17.27724,-13.14342 -11.69138,-0.18863 -15.9574,4.72274 -15.86539,13.04635 0.0959,8.67929 6.31189,12.76993 15.85802,12.86058 11.18334,0.1062 17.37685,-3.23025 17.28461,-12.76351 z M 111.95507,153.56572 c -14.644106,-0.18115 -27.055145,5.15462 -38.983813,14.02341 -4.353573,3.23682 -9.716093,4.72398 -12.323014,1.64518 -2.384202,-2.81577 -0.495745,-6.56096 4.218659,-10.23326 13.117259,-10.21773 28.797383,-16.98313 42.090208,-18.02189 l 0.11587,-17.26041 c 0.0407,-6.05983 2.62451,-7.74368 5.63117,-7.71845 3.08686,0.0259 5.08211,1.99876 5.07303,7.88607 l -0.0261,16.91935 c 14.76553,1.51441 27.52496,8.80993 37.89705,18.26583 3.69247,3.3663 7.15454,8.92106 4.28523,12.09168 -2.71829,3.00374 -7.5318,0.86227 -11.80242,-2.89944 -11.67575,-10.28441 -21.81171,-14.52039 -36.17587,-14.69807 z"
       style="fill:#000000;stroke-width:0.68943161" />
  </g>
</svg>
