<?xml version="1.0" encoding="UTF-8" standalone="no"?>
<svg
   xmlns:dc="http://purl.org/dc/elements/1.1/"
   xmlns:cc="http://creativecommons.org/ns#"
   xmlns:rdf="http://www.w3.org/1999/02/22-rdf-syntax-ns#"
   xmlns:svg="http://www.w3.org/2000/svg"
   xmlns="http://www.w3.org/2000/svg"
   xmlns:sodipodi="http://sodipodi.sourceforge.net/DTD/sodipodi-0.dtd"
   xmlns:inkscape="http://www.inkscape.org/namespaces/inkscape"
   sodipodi:docname="都-seal.svg"
   inkscape:version="1.0beta2 (2b71d25, 2019-12-03)"
   version="1.1"
   id="svg2"
   viewBox="0 0 300 300"
   height="300"
   width="300">
  <defs
     id="defs4">
    <clipPath
       id="clipPath4204"
       clipPathUnits="userSpaceOnUse">
      <rect
         y="794.64594"
         x="164.41942"
         height="21.584471"
         width="15.451179"
         id="rect4206"
         style="fill:#0000ff;fill-rule:evenodd;stroke:#000000;stroke-width:1px;stroke-linecap:butt;stroke-linejoin:miter;stroke-opacity:1" />
    </clipPath>
  </defs>
  <sodipodi:namedview
     inkscape:document-rotation="0"
     showguides="false"
     units="px"
     inkscape:window-maximized="0"
     inkscape:window-y="23"
     inkscape:window-x="0"
     inkscape:window-height="855"
     inkscape:window-width="1440"
     showgrid="false"
     inkscape:current-layer="layer1"
     inkscape:document-units="px"
     inkscape:cy="150"
     inkscape:cx="150"
     inkscape:zoom="1.71"
     inkscape:pageshadow="2"
     inkscape:pageopacity="0.0"
     borderopacity="1.0"
     bordercolor="#666666"
     pagecolor="#ffffff"
     id="base" />
  <metadata
     id="metadata7">
    <rdf:RDF>
      <cc:Work
         rdf:about="">
        <dc:format>image/svg+xml</dc:format>
        <dc:type
           rdf:resource="http://purl.org/dc/dcmitype/StillImage" />
        <dc:title></dc:title>
      </cc:Work>
    </rdf:RDF>
  </metadata>
  <g
     transform="translate(0,-752.36216)"
     id="layer1"
     inkscape:groupmode="layer"
     inkscape:label="Layer 1">
    <path
       inkscape:connector-curvature="0"
       id="path151"
       d="m 234.23413,1034.8107 c -0.8466,-1.7841 -1.39174,-5.3645 -1.77826,-11.6796 -0.30658,-5.0087 -0.86945,-11.6989 -1.25084,-14.8669 -0.38138,-3.1681 -1.03311,-10.42233 -1.44828,-16.12047 -1.01935,-13.99042 -2.36107,-22.07011 -4.97778,-29.97563 -1.76836,-5.34254 -2.80012,-7.27924 -5.31117,-9.96951 -5.67708,-6.08228 -10.80779,-8.24369 -22.36795,-9.4229 -9.06647,-0.92484 -14.67874,-2.82283 -19.85697,-6.71538 -5.48239,-4.12119 -6.96193,-7.07443 -7.40086,-14.77249 -0.30641,-5.37399 -0.12252,-6.60785 1.88129,-12.62256 2.07232,-6.22037 2.41335,-6.77834 5.09758,-8.34015 4.41586,-2.56936 9.98861,-4.56397 14.22998,-5.09322 l 3.84174,-0.47938 0.18724,-13.19334 0.18723,-13.19334 -4.25998,-0.44526 c -2.34299,-0.24488 -7.12821,-0.44525 -10.63382,-0.44525 -8.21318,0 -10.28934,-0.4523 -12.78733,-2.78577 -2.98403,-2.7875 -2.63393,-3.87909 1.88511,-5.87763 5.12193,-2.26516 16.35612,-2.89506 31.29237,-1.75457 27.94925,2.13413 34.95067,4.44871 39.09785,12.92524 2.28604,4.6725 2.51809,11.88141 0.6296,19.55965 -1.4135,5.74703 -2.78197,7.41749 -9.33737,11.39794 -7.35274,4.46459 -9.19692,4.81646 -24.18739,4.61499 -21.31168,-0.28644 -25.72256,1.26857 -26.68656,9.40803 -0.2171,1.83311 -0.0352,5.06473 0.40419,7.18137 l 0.79894,3.84843 5.34201,2.50685 c 2.9381,1.37877 7.97558,3.13667 11.1944,3.90645 3.21883,0.76977 8.49427,2.02753 11.72321,2.79501 8.70247,2.06847 15.60339,5.7298 18.80268,9.97592 4.54403,6.03085 6.48197,13.53997 11.192,43.36659 3.22246,20.40648 4.04349,30.70408 3.17161,39.77908 -0.75899,7.9001 -1.40201,8.9992 -5.28757,9.0386 -1.83044,0.019 -2.35518,-0.3766 -3.3869,-2.5508 z m -9.64212,-142.16344 c 4.90152,-2.44731 6.54984,-5.18336 7.0821,-11.75559 0.31848,-3.93252 0.20557,-4.34897 -1.79775,-6.63063 -2.87852,-3.27845 -9.4294,-5.44766 -17.88932,-5.92374 l -6.38883,-0.35952 v 13.63885 13.63885 l 7.42485,-0.26954 c 6.56221,-0.23822 7.90633,-0.50993 11.56895,-2.33868 z M 70.732896,1032.3761 c -1.56546,-1.1891 -3.730412,-6.5332 -4.598926,-11.3523 -0.898235,-4.9841 -4.535755,-31.76975 -5.704052,-42.00306 -1.482235,-12.98315 -1.10732,-43.24809 0.731541,-59.05347 l 1.566959,-13.46833 4.338987,-9.90653 c 3.784621,-8.64083 4.941904,-10.57222 9.057981,-15.11688 6.404584,-7.07145 10.375021,-9.76924 18.571585,-12.61884 l 6.953349,-2.4174 0.42687,-18.64846 c 0.23477,-10.25665 0.46788,-29.71741 0.51801,-43.24612 0.0921,-24.85122 0.45624,-29.55318 2.66969,-34.47131 l 1.22022,-2.71124 2.28057,1.12167 c 4.55211,2.2389 4.54161,2.16211 4.7991,35.10325 0.12768,16.33467 0.45183,36.51542 0.72034,44.84612 l 0.48819,15.14672 1.95954,0.52269 c 4.18548,1.11643 19.96204,-4.50687 23.09108,-8.23044 3.38707,-4.03063 5.70203,-9.88407 6.74709,-17.06022 0.2766,-1.89938 0.69466,-10.95837 0.92901,-20.13108 0.38883,-15.21927 0.5438,-16.80764 1.77216,-18.16395 0.98309,-1.08551 1.99081,-1.43069 3.73707,-1.28012 2.2242,0.1918 2.48292,0.47119 3.7086,4.00494 3.06058,8.82395 2.11683,24.64941 -2.5743,43.16773 -2.94727,11.63441 -4.12077,14.1415 -8.17667,17.46899 -4.69436,3.85128 -9.19221,5.88525 -20.2216,9.14439 -5.27484,1.5587 -10.02795,2.97738 -10.56248,3.15264 -0.81105,0.26592 -0.89708,2.45815 -0.51996,13.24899 0.24854,7.1117 0.45278,15.76278 0.45385,19.22462 l 0.002,6.29427 5.45439,3.4717 5.45439,3.47172 0.41642,-2.08212 c 0.22892,-1.14516 0.41631,-5.16678 0.41631,-8.93692 0,-9.32539 1.22812,-11.62098 6.21713,-11.62098 1.73315,0 2.07941,0.37978 2.99104,3.28074 2.07882,6.6151 2.94322,43.45528 1.2519,53.35531 -0.48674,2.84907 -1.79483,8.17715 -2.90687,11.84019 -1.69459,5.58191 -2.43826,7.02564 -4.59393,8.91833 -8.96621,7.87241 -27.24748,9.5681 -37.266304,3.45666 -10.42712,-6.36051 -15.961248,-46.57745 -10.218299,-74.25711 1.105391,-5.32775 1.755787,-6.23672 4.874424,-6.81239 1.926634,-0.35563 2.260704,-0.14473 3.416328,2.15677 0.986925,1.96551 1.344934,4.57191 1.559999,11.35716 0.153512,4.84341 0.51208,8.80621 0.796814,8.80621 0.827205,0 5.724421,-3.77367 7.883488,-6.07482 l 1.97842,-2.10861 -0.26121,-16.92608 c -0.14366,-9.30934 -0.43045,-17.09532 -0.63731,-17.30218 -0.20686,-0.20686 -2.298912,-0.0185 -4.649005,0.41852 -4.240673,0.78864 -4.324992,0.85054 -11.178915,8.20765 -5.79735,6.22297 -7.231879,8.22704 -8.935933,12.48373 -5.587148,13.95659 -7.66599,25.29551 -8.148813,44.44721 -0.452311,17.9414 0.09066,23.7731 5.349927,57.45974 4.417572,28.2954 4.449737,29.2914 0.988606,30.6073 -2.347394,0.8925 -3.268552,0.8557 -4.638873,-0.185 z m 48.185794,-60.90999 3.45469,-1.53629 1.52366,-5.78633 c 0.83802,-3.1825 1.35706,-5.95297 1.15343,-6.15659 -0.20363,-0.20364 -7.18371,-0.48376 -15.51128,-0.6225 l -15.141044,-0.25227 0.01519,3.35678 c 0.0145,3.20536 1.569462,7.52371 3.618478,10.04896 0.85899,1.05861 4.227196,2.15563 8.798656,2.86565 3.17818,0.49363 8.60061,-0.36648 12.08824,-1.91741 z m 2.93413,-25.94143 5.00746,-0.002 -0.039,-3.97143 c -0.0675,-6.8836 -0.98596,-8.44312 -6.61598,-11.2346 -2.71053,-1.34394 -6.41227,-3.59972 -8.22609,-5.01286 -3.79867,-2.95951 -2.09675,-3.49713 -13.717397,4.33317 l -6.66261,4.48944 0.399954,3.79876 c 0.219983,2.08932 0.582391,4.85616 0.805358,6.14855 l 0.405403,2.34979 11.817712,-0.4483 c 6.49974,-0.24656 14.07107,-0.44924 16.82517,-0.45041 z m 31.42611,86.56662 c -0.66166,-0.267 -0.86576,-4.8933 -0.87364,-19.8026 -0.006,-10.6999 -0.46103,-36.0825 -1.01197,-56.40588 -0.95403,-35.19334 -1.08208,-37.26378 -2.69106,-43.51307 -3.61575,-14.04356 -5.46476,-16.06454 -18.24359,-19.94054 -5.86325,-1.7784 -7.02448,-3.24722 -5.953,-7.52977 0.64142,-2.56365 0.65844,-2.5739 4.0656,-2.44984 9.8721,0.35946 20.44406,6.29086 25.56332,14.34229 3.26673,5.13783 5.10089,11.1957 6.5797,21.73153 2.88031,20.52069 2.95507,41.12671 0.33478,92.26878 -0.93829,18.3135 -1.06936,19.4032 -2.4713,20.5478 -1.43458,1.1713 -3.52391,1.4675 -5.29884,0.7513 z M 79.027783,858.80608 c -2.56562,-0.57401 -6.586244,-1.73322 -8.934719,-2.57603 -3.851672,-1.38227 -4.5607,-1.95793 -7.237968,-5.87654 -4.737875,-6.93466 -6.098332,-12.36807 -6.089213,-24.31921 0.01959,-25.67012 3.042437,-34.69609 9.467977,-28.27055 l 2.119536,2.11954 -0.451773,9.44942 c -0.248475,5.19718 -0.645104,13.0378 -0.881398,17.4236 -0.737614,13.69066 1.420958,17.8229 10.841896,20.75502 2.324733,0.72354 5.520036,1.32313 7.100658,1.33242 7.241908,0.0425 12.198102,2.60651 12.198102,6.31039 0,1.59119 -0.468297,2.13856 -2.590064,3.02739 -3.750446,1.57109 -10.16104,1.82869 -15.543034,0.62455 z M 192.12988,845.15063 c -6.95259,-2.31776 -8.7169,-3.40168 -11.22764,-6.89781 -6.48882,-9.03553 -7.14899,-17.92287 -2.18799,-29.45504 1.40374,-3.26309 1.65305,-3.4562 8.1226,-6.29165 6.6396,-2.90999 6.7158,-2.92483 14.61726,-2.84748 8.41166,0.0824 17.23403,1.43481 20.55204,3.15062 4.98113,2.57585 9.09928,9.66138 10.16005,17.48098 0.55892,4.12018 -0.53147,10.35255 -2.48379,14.1966 -1.57411,3.09936 -6.72478,7.30982 -12.16633,9.94549 -3.56176,1.72516 -4.83667,1.94636 -12.26321,2.12769 -7.18257,0.17537 -8.93316,-0.0126 -13.12299,-1.4094 z m 22.10188,-10.39164 c 4.62238,-2.17113 5.7806,-3.64475 6.6844,-8.50466 1.58745,-8.5361 -0.60759,-13.09857 -7.25101,-15.07146 -5.85062,-1.73745 -18.51418,-1.15723 -24.07563,1.10309 -3.8064,1.54703 -5.25587,10.0709 -2.63366,15.48767 2.05135,4.23751 4.29848,5.971 9.49839,7.32727 6.85586,1.78819 13.51515,1.66012 17.77751,-0.34191 z m -90.06665,9.13002 c -1.50125,-4.30649 -0.61154,-15.40788 2.74053,-34.19488 1.67429,-9.38371 3.86523,-16.00462 7.59466,-22.95072 3.3034,-6.1526 6.50764,-9.74765 8.68801,-9.74765 0.85399,0 2.3914,0.72141 3.41647,1.60314 1.83016,1.57423 1.84807,1.66854 0.99336,5.23135 -0.47872,1.99551 -1.95406,5.2369 -3.27854,7.20308 -5.73328,8.51098 -6.82869,11.88835 -8.54803,26.35543 -0.76826,6.46448 -1.67913,14.08467 -2.02415,16.93374 -1.18579,9.7921 -2.31054,11.74162 -6.77417,11.74162 -1.67827,0 -2.18735,-0.39432 -2.80814,-2.17511 z m -40.770017,-0.49815 c -1.540867,-2.87913 -2.196954,-8.03851 -2.813417,-22.12418 -0.750683,-17.15272 -1.192175,-18.95893 -6.646286,-27.19091 -2.071168,-3.12605 -4.248093,-7.33731 -4.837611,-9.35836 -0.996151,-3.4151 -0.986663,-3.76876 0.134341,-5.00746 2.703504,-2.98733 8.746129,-0.39887 12.879144,5.51701 4.08556,5.84797 8.741741,23.23376 9.879125,36.88783 0.657213,7.88981 -0.71224,19.47181 -2.515574,21.27515 -1.696961,1.69696 -5.171749,1.69748 -6.079722,6.9e-4 z"
       style="fill:#000000;stroke-width:0.690684" />
  </g>
</svg>
