<?xml version="1.0" encoding="UTF-8" standalone="no"?>
<!-- Created with Inkscape (http://www.inkscape.org/) -->

<svg
   xmlns:dc="http://purl.org/dc/elements/1.1/"
   xmlns:cc="http://creativecommons.org/ns#"
   xmlns:rdf="http://www.w3.org/1999/02/22-rdf-syntax-ns#"
   xmlns:svg="http://www.w3.org/2000/svg"
   xmlns="http://www.w3.org/2000/svg"
   xmlns:sodipodi="http://sodipodi.sourceforge.net/DTD/sodipodi-0.dtd"
   xmlns:inkscape="http://www.inkscape.org/namespaces/inkscape"
   width="300"
   height="300"
   id="svg2"
   version="1.1"
   inkscape:version="0.48.4 r9939"
   sodipodi:docname="dessin.svg">
  <defs
     id="defs4" />
  <sodipodi:namedview
     id="base"
     pagecolor="#ffffff"
     bordercolor="#666666"
     borderopacity="1.0"
     inkscape:pageopacity="0.0"
     inkscape:pageshadow="2"
     inkscape:zoom="1.979899"
     inkscape:cx="156.32962"
     inkscape:cy="101.52144"
     inkscape:document-units="px"
     inkscape:current-layer="layer1"
     showgrid="false"
     inkscape:window-width="1215"
     inkscape:window-height="1000"
     inkscape:window-x="65"
     inkscape:window-y="24"
     inkscape:window-maximized="1" />
  <metadata
     id="metadata7">
    <rdf:RDF>
      <cc:Work
         rdf:about="">
        <dc:format>image/svg+xml</dc:format>
        <dc:type
           rdf:resource="http://purl.org/dc/dcmitype/StillImage" />
        <dc:title />
      </cc:Work>
    </rdf:RDF>
  </metadata>
  <g
     inkscape:label="Calque 1"
     inkscape:groupmode="layer"
     id="layer1"
     transform="translate(0,-752.36218)">
    <path
       style="fill:#000000"
       d="m 213.88547,1039.1842 c -1.57372,-1.0763 -3.25915,-13.9006 -4.14034,-31.5038 -1.53136,-30.59038 -4.11466,-52.98342 -7.16846,-62.13855 -1.65994,-4.97641 -14.33665,-10.84578 -23.42479,-10.84578 -2.1089,0 -6.49471,-2.42741 -9.74626,-5.39426 -5.1344,-4.6848 -5.91194,-7.43215 -5.91194,-20.8895 0,-14.59329 0.41171,-15.75045 7.0728,-19.87961 6.46031,-4.00468 7.07279,-5.53354 7.07279,-17.65475 l 0,-13.27041 -7.01982,1.61797 c -8.43169,1.94338 -16.55615,-0.3657 -16.55615,-4.70547 0,-5.78877 11.81952,-8.88956 33.88512,-8.88956 19.81767,0 22.35744,0.5386 27.00143,5.72605 3.92108,4.37997 5.12615,8.78352 5.12615,18.73205 0,13.56313 -3.47743,20.07469 -10.7207,20.07469 -7.53445,0 -34.07363,10.83903 -34.07363,13.91623 0,9.67643 4.57829,14.80006 15.96012,17.86121 13.63592,3.6674 21.18451,10.11849 22.96655,19.62746 0.69422,3.70431 2.24023,11.74508 3.43558,17.86833 3.14941,16.13287 4.1369,79.7605 1.25329,80.7522 -1.29669,0.4459 -3.55197,-0 -5.01174,-1.0045 z m -7.54943,-164.48371 c 1.43416,-8.35699 -0.0283,-12.78827 -5.37791,-16.29413 -6.59566,-4.32249 -11.53088,0.22217 -11.53088,10.61813 0,9.68174 1.32567,11.2426 9.54848,11.2426 4.78744,0 6.64626,-1.40582 7.36031,-5.5666 z m -57.20976,152.15991 c -3.6407,-10.0487 -9.13271,-35.58305 -9.18048,-42.68345 -0.0273,-4.07542 -2.4316,-7.86551 -7.04849,-11.11163 -7.63372,-5.36727 -10.49585,-16.30195 -9.07174,-34.65819 1.13305,-14.60458 5.30254,-12.02027 6.67497,4.13727 1.09116,12.84596 3.27062,19.30242 5.63255,16.68595 0.51181,-0.56699 1.48508,-9.19601 2.1628,-19.17558 1.30101,-19.15794 2.12477,-21.69783 6.18349,-19.0655 1.63118,1.0579 1.99307,7.55761 1.02773,18.45733 -1.07737,12.16485 -0.67882,17.35055 1.43905,18.72413 4.45714,2.8907 7.04085,-3.49307 7.08104,-17.49572 0.0401,-13.9664 1.58959,-17.18131 6.30257,-13.07668 7.72678,6.7294 1.20699,46.68244 -7.61794,46.68244 -4.60657,0 -4.28543,3.80911 2.61584,31.02763 3.28877,12.9708 5.34798,24.6556 4.57606,25.9663 -2.71642,4.6124 -8.34184,2.3083 -10.77745,-4.4143 z m -69.223839,2.0249 c -1.366935,-2.3209 2.267984,-21.3493 6.081514,-31.83603 3.724814,-10.24276 2.288401,-16.90999 -5.010152,-23.25507 -5.321425,-4.62624 -7.733646,-9.58447 -9.724801,-19.98884 -3.089183,-16.14187 -1.400013,-27.06008 3.858842,-24.94238 2.5616,1.03151 3.512371,5.36097 3.512371,15.99396 0,12.90138 0.539535,14.57956 4.687397,14.57956 3.024183,0 4.564707,-1.53625 4.341655,-4.32957 -0.190258,-2.38127 -0.177763,-10.17451 0.02782,-17.31831 0.322353,-11.2087 1.019731,-12.98873 5.08873,-12.98873 4.322253,0 4.715193,1.64937 4.715193,19.79235 0,11.06437 1.003063,19.79235 2.274656,19.79235 4.278334,0 7.867724,-10.9588 7.468294,-22.80152 -0.34941,-10.35999 0.19404,-11.83509 4.35932,-11.83509 4.28133,0 4.7585,1.60093 4.7585,15.96488 0,19.03596 -3.10394,27.26726 -11.68955,30.99918 -5.685817,2.47145 -6.654529,4.73549 -9.105793,21.28135 -3.684051,24.86731 -10.853856,39.02531 -15.643973,30.89191 z M 106.91137,917.44783 c -1.94502,-1.35759 -6.87218,-2.48541 -10.949265,-2.50624 -4.891801,-0.025 -9.903013,-2.47894 -14.734977,-7.2156 -6.715733,-6.5833 -7.322106,-8.48884 -7.322106,-23.01019 0,-18.54269 3.597692,-28.14351 11.787982,-31.4574 3.241695,-1.31163 14.682946,-3.12709 25.424996,-4.03434 31.29675,-2.64327 38.2301,3.03003 38.2301,31.2823 0,22.31882 -6.24076,31.64936 -23.57595,35.24828 -3.24171,0.67301 -8.01584,1.88467 -10.6092,2.69257 -2.59335,0.80793 -6.30657,0.3582 -8.25158,-0.99938 z m 21.60265,-15.33401 c 5.93092,-2.33936 10.66671,-12.14538 8.02876,-16.62448 -1.11746,-1.8974 -44.219295,-1.00011 -50.260377,1.04629 -1.620847,0.54907 -2.946995,3.63835 -2.946995,6.86508 0,5.63397 3.717105,7.76644 22.397162,12.849 3.41609,0.92946 15.50219,-1.26471 22.78145,-4.13589 z m 6.24216,-33.43104 c 0.44316,-3.26658 -0.95366,-6.33802 -3.53639,-7.77609 -4.70104,-2.61752 -31.834172,-2.21387 -40.224693,0.59842 -6.241335,2.09193 -11.718716,11.17516 -8.146863,13.51001 1.296512,0.84751 13.341355,0.98425 26.766376,0.30389 22.8668,-1.15886 24.45539,-1.57817 25.14157,-6.63623 z M 84.956255,841.55862 c -0.891478,-0.93551 -1.620847,-4.2357 -1.620847,-7.3338 0,-3.62188 -2.498675,-7.1818 -6.998855,-9.97144 -8.442718,-5.23357 -9.396366,-7.57854 -11.165058,-27.45479 -1.302926,-14.64186 -1.100856,-15.49326 3.677426,-15.49326 4.533752,0 5.056101,1.35467 5.056101,13.11244 0,12.14085 2.780172,19.05014 7.665465,19.05014 1.103969,0 1.807758,-9.49667 1.563982,-21.10372 -0.469845,-22.37011 0.203461,-24.90677 5.993247,-22.57533 2.858066,1.1509 3.638077,5.69383 3.638077,21.189 0,10.84819 1.068415,20.41692 2.374241,21.26382 3.119949,2.02349 4.346583,-2.10243 5.487026,-18.4563 0.95044,-13.62931 4.38546,-18.7673 7.27111,-10.87595 0.86226,2.35799 0.86328,11.78957 0.002,20.95907 -1.43535,15.28605 -2.11841,16.91214 -8.217916,19.56342 -4.940014,2.1473 -6.838209,4.84992 -7.373997,10.49905 -0.70676,7.45174 -4.132795,11.00611 -7.352258,7.62765 z m 44.730275,-2.73176 c -0.61519,-2.38127 -1.75007,-7.31701 -2.52194,-10.9683 -0.77188,-3.6513 -3.52277,-7.34463 -6.1131,-8.20737 -2.68102,-0.89294 -4.81733,-3.89464 -4.95954,-6.96851 -0.38892,-8.40619 0.58614,-20.12158 1.78185,-21.40952 1.53038,-1.6484 5.45017,5.50275 4.18952,7.64326 -0.57205,0.97131 0.14523,4.9211 1.59401,8.77726 2.44445,6.50644 2.77324,6.65499 4.56636,2.06317 1.06273,-2.72146 2.00681,-12.54465 2.09793,-21.82929 0.14429,-14.69205 0.70075,-16.77399 4.2915,-16.05447 3.43185,0.68769 4.24161,4.04729 4.81436,19.97375 0.50618,14.07474 1.53232,19.14703 3.87356,19.14703 4.25449,0 6.04706,-5.56047 6.04706,-18.75768 0,-9.28148 0.71148,-10.93086 4.7152,-10.93086 3.96299,0 4.71519,1.64938 4.71519,10.33904 0,16.16416 -4.63335,26.87815 -12.32148,28.49173 -5.75894,1.20867 -6.53929,2.48491 -6.53929,10.69467 0,6.21837 -1.24165,9.82224 -3.72922,10.82394 -5.15802,2.07709 -5.24449,2.03951 -6.50197,-2.82785 z m 39.62903,-8.12427 c -6.47043,-7.50288 -7.19892,-31.35977 -1.20622,-39.50108 3.88352,-5.27592 6.41804,-6.16707 17.242,-6.06237 16.75781,0.16205 23.2255,6.12286 24.5831,22.65643 0.7339,8.9377 -0.21124,13.83735 -3.83812,19.89809 -4.53745,7.58223 -5.59942,8.04065 -18.62661,8.04065 -10.89724,0 -14.73128,-1.06268 -18.15415,-5.03172 z m 23.45525,-8.84023 c 2.59791,-1.04615 3.72922,-4.71852 3.72922,-12.10551 0,-7.38701 -1.13131,-11.05938 -3.72922,-12.10553 -6.22389,-2.50631 -11.00658,-1.70808 -15.53531,2.59279 -4.92929,4.6813 -5.87508,19.57148 -1.36444,21.48147 4.26646,1.80657 12.58595,1.87391 16.89975,0.13681 z m -76.42905,-38.08298 c 0,-4.82238 2.50063,-6.44736 5.33861,-3.46918 1.88872,1.98198 -0.58322,8.41726 -3.23325,8.41726 -1.15793,0 -2.10536,-2.22663 -2.10536,-4.94808 z"
       id="path3312"
       inkscape:connector-curvature="0" />
  </g>
</svg>
