<?xml version="1.0" encoding="UTF-8" standalone="no"?>
<!-- Created with Inkscape (http://www.inkscape.org/) -->

<svg
   xmlns:dc="http://purl.org/dc/elements/1.1/"
   xmlns:cc="http://creativecommons.org/ns#"
   xmlns:rdf="http://www.w3.org/1999/02/22-rdf-syntax-ns#"
   xmlns:svg="http://www.w3.org/2000/svg"
   xmlns="http://www.w3.org/2000/svg"
   xmlns:sodipodi="http://sodipodi.sourceforge.net/DTD/sodipodi-0.dtd"
   xmlns:inkscape="http://www.inkscape.org/namespaces/inkscape"
   width="300"
   height="300"
   id="svg2"
   version="1.1"
   inkscape:version="0.48.4 r9939"
   sodipodi:docname="image-seal.svg">
  <defs
     id="defs4" />
  <sodipodi:namedview
     id="base"
     pagecolor="#ffffff"
     bordercolor="#666666"
     borderopacity="1.0"
     inkscape:pageopacity="0.0"
     inkscape:pageshadow="2"
     inkscape:zoom="2.0018437"
     inkscape:cx="145.03351"
     inkscape:cy="130.6666"
     inkscape:document-units="px"
     inkscape:current-layer="layer1"
     showgrid="false"
     inkscape:window-width="1215"
     inkscape:window-height="1000"
     inkscape:window-x="65"
     inkscape:window-y="24"
     inkscape:window-maximized="1"
     fit-margin-top="10"
     fit-margin-left="10"
     fit-margin-right="10"
     fit-margin-bottom="10" />
  <metadata
     id="metadata7">
    <rdf:RDF>
      <cc:Work
         rdf:about="">
        <dc:format>image/svg+xml</dc:format>
        <dc:type
           rdf:resource="http://purl.org/dc/dcmitype/StillImage" />
        <dc:title />
      </cc:Work>
    </rdf:RDF>
  </metadata>
  <g
     inkscape:label="Calque 1"
     inkscape:groupmode="layer"
     id="layer1"
     transform="translate(0,-752.36218)">
    <path
       style="fill:#000000"
       d="m 230.75042,1045.1143 c -1.55901,-1.9253 -3.34232,-19.5729 -3.96293,-39.2167 -0.74407,-23.55264 -2.4851,-38.48939 -5.11227,-43.85945 -3.94267,-8.05904 -4.815,-8.44051 -32.06867,-14.02495 -10.04761,-2.05879 -17.24726,-12.01988 -17.24726,-23.86235 0,-15.45283 8.48565,-29.52267 17.80539,-29.52267 3.65527,0 4.31093,-2.60494 3.63049,-14.42382 l -0.83043,-14.42382 -10.5834,-0.41804 c -12.96083,-0.51192 -17.83262,-4.47078 -12.86607,-10.4551 2.77181,-3.33984 9.70212,-4.22458 32.71489,-4.17642 38.86128,0.0813 42.93506,2.82097 42.93506,28.87434 0,24.27009 -4.94924,28.75983 -31.70316,28.75983 -21.13807,0 -27.36581,3.72511 -27.36581,16.36878 0,8.1017 0.13298,8.16679 26.10025,12.76686 21.46896,3.80325 24.9848,9.78265 27.29313,46.41769 2.25039,35.71542 1.67451,51.49282 -2.04305,55.97222 -1.79902,2.1676 -2.85882,4.4724 -2.35514,5.1216 2.37833,3.0655 -1.86079,3.1651 -4.34102,0.1019 z m 0.38389,-154.83192 c 2.74838,-7.16216 1.88988,-19.05952 -1.62923,-22.57866 -1.81328,-1.81328 -7.17644,-3.29687 -11.91811,-3.29687 -8.05976,0 -8.64723,0.67099 -9.02047,10.30272 -0.63407,16.36384 1.46527,19.91861 11.76338,19.91861 5.79711,0 9.74635,-1.58846 10.80443,-4.3458 z M 114.29504,1032.8757 c -0.20303,-5.7715 -0.0975,-15.6784 0.23435,-22.0152 1.18427,-22.61622 -0.0327,-23.64542 -26.324592,-22.26544 -24.87422,1.30557 -32.71871,-1.76404 -25.80303,-10.09692 2.47298,-2.97976 9.00002,-3.97361 24.75663,-3.76964 23.601982,0.30554 27.505642,-0.94766 27.505642,-8.83023 0,-3.7663 -1.89705,-5.33264 -6.45852,-5.33264 -24.049062,0 -33.330172,-14.03058 -31.394932,-47.46079 1.40067,-24.19555 3.35693,-26.89306 21.36909,-29.46624 8.039012,-1.14844 9.615882,-2.49241 9.615882,-8.19558 0,-5.71994 -1.61907,-7.08504 -10.023462,-8.45112 -14.15179,-2.30031 -24.11983,-14.31604 -24.23215,-29.20999 -0.0478,-6.33286 1.20366,-12.31184 2.78091,-13.28665 4.98823,-3.08287 10.86924,4.51977 10.86924,14.05108 0,9.76789 5.6243,14.87093 16.389972,14.87093 10.64593,0 10.09019,-8.48126 -1.1755,-17.93938 -9.074182,-7.61825 -10.634642,-10.66231 -11.827042,-23.07185 l -1.37364,-14.29568 -10.15195,1.71515 c -11.12805,1.88007 -18.53499,-3.31012 -15.60828,-10.93702 2.42966,-6.33153 101.076842,-6.16977 106.342032,0.17446 4.491,5.41132 -0.43098,9.30081 -11.85019,9.36441 -6.93176,0.0385 -7.55534,0.91848 -7.55534,10.66112 0,12.04024 -8.52686,25.09706 -16.38982,25.09706 -5.2628,0 -8.33672,5.14796 -8.33672,13.96168 0,3.65252 1.92051,5.27008 6.25716,5.27008 7.44088,0 18.46938,-7.14836 18.46938,-11.97133 0,-6.94445 7.00696,-18.2078 11.34001,-18.22857 9.48518,-0.0453 11.33934,7.06712 5.05402,19.38736 -8.97867,17.5997 -14.57583,22.27214 -28.56932,23.84942 -10.72946,1.20934 -12.55125,2.30424 -12.55125,7.54319 0,5.34785 1.83726,6.34279 14.42382,7.81092 19.11372,2.22943 23.37556,7.59792 23.68866,29.83991 0.34394,24.43406 -3.73223,37.49635 -12.83786,41.1395 -17.56461,7.02753 -20.01748,8.87716 -19.2147,14.48899 0.71251,4.98072 2.76696,5.65771 17.29293,5.6982 18.58579,0.0519 23.35284,2.03843 23.35284,9.73207 0,4.71508 -2.00727,5.33264 -17.33295,5.33264 -24.43713,0 -26.31346,2.08211 -27.23461,30.2213 -0.71545,21.8564 -1.16055,23.4091 -6.94607,24.2308 -5.43451,0.7718 -6.22623,-0.3905 -6.55061,-9.6159 z m 18.85056,-88.75693 c 3.46891,-0.022 8.07099,-3.01768 10.62771,-6.91975 6.85458,-10.46142 1.37908,-15.1041 -17.76929,-15.06665 -33.237482,0.0651 -41.813522,4.54548 -32.398832,16.92655 3.54617,4.66351 17.925122,7.77721 27.927312,6.04756 3.02213,-0.5226 8.24803,-0.96708 11.6131,-0.98771 z m -8.641,-35.75362 c 19.86613,0 20.38075,-0.17199 20.38075,-6.81615 0,-7.73306 -7.44539,-10.84759 -20.76269,-8.68536 -4.44671,0.72198 -13.25604,1.41436 -19.57622,1.53862 -9.194322,0.18078 -11.861662,1.39282 -13.344152,6.06372 -2.02972,6.39508 3.09601,11.51053 9.262622,9.24402 2.01241,-0.73968 12.83027,-1.34485 24.03969,-1.34485 z m 9.27908,-91.74285 c 1.3746,-3.61548 1.79602,-9.26286 0.9365,-12.54971 -1.36773,-5.23016 -3.14563,-5.86269 -14.24372,-5.06759 -11.61123,0.83188 -12.75615,1.56247 -13.57265,8.66072 -1.44966,12.60235 1.04582,15.53022 13.23678,15.53022 9.22544,0 11.57403,-1.13163 13.64309,-6.57364 z m 66.83524,14.98723 c -17.29435,-2.82061 -22.76485,-9.1347 -22.76485,-26.27536 0,-7.8445 1.94505,-18.16168 4.32231,-22.92703 4.2317,-8.48263 4.72508,-8.66429 23.53346,-8.66429 27.84462,0 38.08169,6.48399 38.08169,24.12033 0,17.47285 -5.07447,28.18491 -15.39423,32.49678 -9.80776,4.09793 -10.20431,4.11579 -27.77838,1.24957 z m 26.66324,-17.99936 c 5.79511,-6.98267 1.15322,-22.249 -7.90601,-26.00147 -18.29624,-7.57855 -34.6617,5.54965 -28.09452,22.53712 2.68654,6.94937 4.11117,7.55533 17.76306,7.55533 9.79289,0 15.99733,-1.39177 18.23747,-4.09098 z M 75.143878,769.45733 c -3.41578,-8.90137 3.20184,-10.80278 40.966282,-11.77072 31.52942,-0.80814 37.55473,-0.28323 41.44883,3.61085 8.58075,8.58074 0.48984,10.94001 -41.21643,12.01844 -35.676532,0.92252 -39.501482,0.56429 -41.198682,-3.85857 z"
       id="path3145"
       inkscape:connector-curvature="0" />
  </g>
</svg>
