<?xml version="1.0" encoding="UTF-8" standalone="no"?>
<!-- Created with Inkscape (http://www.inkscape.org/) -->

<svg
   xmlns:dc="http://purl.org/dc/elements/1.1/"
   xmlns:cc="http://creativecommons.org/ns#"
   xmlns:rdf="http://www.w3.org/1999/02/22-rdf-syntax-ns#"
   xmlns:svg="http://www.w3.org/2000/svg"
   xmlns="http://www.w3.org/2000/svg"
   xmlns:sodipodi="http://sodipodi.sourceforge.net/DTD/sodipodi-0.dtd"
   xmlns:inkscape="http://www.inkscape.org/namespaces/inkscape"
   width="300"
   height="300"
   id="svg2"
   version="1.1"
   inkscape:version="0.48.4 r9939"
   sodipodi:docname="image-seal.svg">
  <defs
     id="defs4" />
  <sodipodi:namedview
     id="base"
     pagecolor="#ffffff"
     bordercolor="#666666"
     borderopacity="1.0"
     inkscape:pageopacity="0.0"
     inkscape:pageshadow="2"
     inkscape:zoom="2.0018437"
     inkscape:cx="145.03351"
     inkscape:cy="130.6666"
     inkscape:document-units="px"
     inkscape:current-layer="layer1"
     showgrid="false"
     inkscape:window-width="1215"
     inkscape:window-height="1000"
     inkscape:window-x="65"
     inkscape:window-y="24"
     inkscape:window-maximized="1"
     fit-margin-top="10"
     fit-margin-left="10"
     fit-margin-right="10"
     fit-margin-bottom="10" />
  <metadata
     id="metadata7">
    <rdf:RDF>
      <cc:Work
         rdf:about="">
        <dc:format>image/svg+xml</dc:format>
        <dc:type
           rdf:resource="http://purl.org/dc/dcmitype/StillImage" />
        <dc:title></dc:title>
      </cc:Work>
    </rdf:RDF>
  </metadata>
  <g
     inkscape:label="Calque 1"
     inkscape:groupmode="layer"
     id="layer1"
     transform="translate(0,-752.36218)">
    <path
       style="fill:#000000"
       d="m 215.2607,1032.2079 c -0.0516,-17.8014 -1.95329,-58.54594 -3.76049,-80.57416 -1.44209,-17.57816 -6.15694,-23.97989 -17.66101,-23.97989 -10.54924,0 -29.93471,-8.31672 -32.0137,-13.73442 -0.88752,-2.31289 -1.61369,-9.10752 -1.61369,-15.09918 0,-11.17318 1.76913,-13.31738 18.79291,-22.77725 2.74881,-1.52747 4.88514,-4.06306 4.7474,-5.63465 -0.13773,-1.57157 -0.41947,-6.23821 -0.62607,-10.37029 -0.34291,-6.85842 -1.14601,-7.51286 -9.21926,-7.51286 -5.8964,0 -9.3703,-1.37255 -10.42405,-4.11858 -2.75487,-7.17909 6.21617,-10.90715 26.24652,-10.90715 25.25129,0 33.10466,5.24651 33.05555,22.08304 -0.0581,19.91493 -1.37736,21.98908 -15.81713,24.86746 -7.1214,1.41955 -16.84798,2.74172 -21.61462,2.93813 -9.62495,0.3966 -12.52449,3.3566 -12.58147,12.84379 -0.0578,9.6197 4.51446,12.39623 20.41336,12.39623 13.07461,0 15.24443,0.80305 22.92641,8.48503 l 8.485,8.485 0.49921,55.4175 c 0.41533,46.10945 -0.12447,56.04125 -3.21411,59.13075 -5.89091,5.8908 -6.57255,4.6617 -6.62076,-11.9385 z m -9.80707,-159.7365 c 6.66176,-3.56525 6.52307,-16.36705 -0.21637,-19.9739 -7.41657,-3.96922 -9.96539,-1.04203 -9.96539,11.4448 0,11.48567 1.81559,13.00655 10.18179,8.5291 z M 97.068493,988.37565 c -16.816075,-2.31146 -23.243385,-22.66807 -21.544145,-68.23467 0.72168,-19.35231 1.24888,-21.28645 5.80238,-21.28645 4.41086,0 5.05283,1.79317 5.37949,15.02573 0.2041,8.26415 0.48573,16.99786 0.62607,19.40824 0.22188,3.81007 3.03552,4.3825 21.541612,4.3825 11.70755,0 21.28645,-0.47131 21.28645,-1.04732 0,-0.57603 0.68402,-2.82989 1.52008,-5.00857 1.2101,-3.15345 -0.29185,-3.96126 -7.36506,-3.96126 -4.88684,0 -9.55121,-1.07772 -10.3653,-2.39493 -0.81407,-1.31718 -3.19192,-1.73802 -5.2841,-0.9352 -3.20226,1.22883 -3.68471,-1.06613 -3.05015,-14.50902 l 0.75379,-15.96874 -12.300312,-3.18268 c -7.62839,-1.9738 -15.11122,-6.12404 -19.70098,-10.92676 -7.27549,-7.61311 -7.38265,-8.12201 -6.33287,-30.07858 1.47938,-30.94301 3.33804,-32.6277 37.681752,-34.15511 23.02197,-1.02391 27.14435,-0.54328 36.56541,4.26297 12.60596,6.43109 16.28526,13.99051 15.73329,32.32533 -0.75649,25.12755 -9.01316,34.79068 -33.61939,39.34605 -9.36937,1.73457 -9.50828,1.92642 -8.76501,12.1028 0.70108,9.59846 1.28282,10.34028 8.10894,10.34028 6.2237,0 7.68418,-1.27548 9.5046,-8.30069 1.52588,-5.88858 3.39145,-8.06263 6.41991,-7.48143 3.7516,0.71998 4.35276,5.25179 4.9601,37.39163 l 0.69111,36.57245 -7.33051,7.84718 c -4.6422,4.96951 -9.9468,7.95212 -14.46469,8.13293 -3.92379,0.15777 -9.95152,0.50637 -13.39491,0.77658 -3.4434,0.26996 -9.31931,0.0701 -13.057557,-0.44326 z m 33.444917,-18.63441 c 1.141,-1.79908 2.09181,-7.5076 2.11289,-12.68555 l 0.0383,-9.41462 -20.66038,1.5735 c -11.36321,0.8654 -21.619572,2.45503 -22.791932,3.53245 -3.73121,3.42909 1.04542,17.6839 6.74993,20.14361 7.320692,3.15666 31.977042,0.90931 34.551142,-3.14939 z m -24.41173,-96.13442 c 2.61708,-6.81997 1.68561,-43.22231 -1.15082,-44.97534 -4.33327,-2.67811 -5.869697,0.79461 -6.466517,14.61611 -0.30956,7.16872 -1.34598,17.82349 -2.303175,23.67727 -1.56811,9.58999 -1.23857,10.64322 3.330055,10.64322 2.788727,0 5.754427,-1.78255 6.590457,-3.96126 z m 22.96958,-10.4384 c -0.86946,-7.91981 -1.72833,-19.1891 -1.90856,-25.04288 -0.20235,-6.57067 -1.50548,-10.64322 -3.40566,-10.64322 -4.3486,0 -5.38971,4.27146 -4.88309,20.0343 0.97327,30.28238 0.92316,30.05146 6.52372,30.05146 4.91049,0 5.15097,-0.94261 3.67359,-14.39966 z m -41.885802,-1.99604 c 5.1392,-11.27929 3.13129,-28.68149 -3.30934,-28.68149 -3.58819,0 -6.30582,10.92764 -6.30582,25.35592 0,11.37318 5.13865,13.15047 9.61516,3.32557 z m 58.751912,-10.69236 c -0.35413,-18.35608 -0.23666,-17.98913 -5.75986,-17.98913 -5.86329,0 -6.36247,4.92674 -2.18154,21.53075 3.73485,14.83245 8.25697,12.81574 7.9414,-3.54162 z m 36.81304,-22.12163 c -8.27688,-3.25943 -12.40953,-12.00308 -12.46575,-26.37451 -0.0511,-13.06234 0.57676,-14.67946 7.65721,-19.7212 6.33593,-4.51157 9.77184,-5.20987 19.24556,-3.91134 19.10682,2.61888 23.13682,6.72714 23.07161,23.51975 -0.0744,19.16058 -4.67298,24.93544 -21.23076,26.66137 -6.88679,0.71786 -14.21183,0.63952 -16.27787,-0.17404 z m 24.34847,-18.64079 c 2.45272,-5.14446 2.45635,-7.87597 0.0175,-13.13284 -2.64806,-5.70735 -4.30773,-6.48901 -11.84456,-5.57845 -4.82076,0.58242 -10.17367,1.13927 -11.89537,1.23746 -5.05759,0.28842 -3.99512,19.44781 1.25214,22.57969 7.7502,4.6258 19.05518,2.057 22.47026,-5.10586 z m -150.397642,1.06945 c -3.94713,-3.94711 -0.99075,-8.0754 8.50359,-11.87426 16.55076,-6.62231 22.38262,-14.15626 22.38262,-28.91528 0,-8.69787 1.01449,-12.63527 3.25558,-12.63527 13.441162,0 12.066032,30.6885 -1.94558,43.42001 -9.38588,8.52835 -27.91488,14.28613 -32.19621,10.0048 z m 82.224122,-6.43301 c -8.71898,-3.13177 -15.97746,-10.63799 -17.43325,-18.02822 -4.57321,-23.21598 -3.79382,-28.96358 3.9276,-28.96358 4.06363,0 4.74064,1.92325 4.74064,13.46697 0,16.03673 3.22054,19.60174 19.43118,21.5095 12.67387,1.49153 19.81816,8.37091 13.12457,12.63794 -4.80094,3.06052 -14.2233,2.81392 -23.79074,-0.62261 z"
       id="path3251"
       inkscape:connector-curvature="0" />
  </g>
</svg>
