<?xml version="1.0" encoding="UTF-8" standalone="no"?>
<svg
   xmlns:dc="http://purl.org/dc/elements/1.1/"
   xmlns:cc="http://creativecommons.org/ns#"
   xmlns:rdf="http://www.w3.org/1999/02/22-rdf-syntax-ns#"
   xmlns:svg="http://www.w3.org/2000/svg"
   xmlns="http://www.w3.org/2000/svg"
   viewBox="0 0 300 300"
   height="300"
   width="300"
   id="svg8"
   version="1.1">
  <metadata
     id="metadata14">
    <rdf:RDF>
      <cc:Work
         rdf:about="">
        <dc:format>image/svg+xml</dc:format>
        <dc:type
           rdf:resource="http://purl.org/dc/dcmitype/StillImage" />
        <dc:title></dc:title>
      </cc:Work>
    </rdf:RDF>
  </metadata>
  <defs
     id="defs12" />
  <path
     id="path18"
     d="m 138.37808,277.82276 c -13.70298,-1.12148 -30.77854,-4.35574 -43.528078,-8.24459 -5.93591,-1.81056 -6.01546,-1.8675 -14.2714,-10.21441 -4.6287,-4.67971 -8.8266,-9.61019 -9.48735,-11.14299 -10.70536,-24.83445 -14.77718,-70.77623 -9.73102,-109.79392 0.5942,-4.59443 1.56926,-14.23729 2.16681,-21.42857 1.16607,-14.03339 2.54784,-20.662471 6.27051,-30.083052 2.13716,-5.408288 2.73695,-6.238322 6.40691,-8.866322 9.21547,-6.599054 20.84863,-10.51983 34.562318,-11.648698 4.78956,-0.394261 8.84882,-0.857362 9.02057,-1.029112 0.3917,-0.391707 1.08999,-30.790722 0.70966,-30.894099 -0.15331,-0.04167 -14.71935,-0.286825 -32.369008,-0.544794 -31.08562,-0.454351 -32.15446,-0.516791 -34.14044,-1.994438 -1.55449,-1.156606 -2.10305,-2.231577 -2.26894,-4.44626 -0.20098,-2.683054 -0.004,-3.047844 2.42478,-4.480601 l 2.64357,-1.559744 93.854358,0.194866 c 89.13907,0.185076 93.9551,0.260879 95.85945,1.508796 1.74086,1.140784 1.97592,1.715113 1.78381,4.358353 -0.21642,2.977582 -0.31696,3.084295 -4.57963,4.860405 l -4.35835,1.81598 -30.32688,-0.224505 -30.32688,-0.224506 v 15.55002 15.550021 l 2.72398,1.153037 c 4.67331,1.978178 7.5279,2.615277 16.70108,3.727414 5.09041,0.617152 10.29271,1.697532 12.16763,2.526895 4.85174,2.146154 11.02872,8.360878 13.79439,13.87867 3.61028,7.202893 4.55656,11.419993 7.45854,33.239154 l 2.68008,20.15068 -0.0198,27.6029 c -0.0208,29.13565 -0.68173,38.16631 -3.97629,54.33303 -3.19365,15.67144 -10.05326,32.98566 -14.68869,37.07543 -4.34175,3.83065 -13.06829,9.38233 -19.20268,12.21642 -14.9377,6.90124 -33.06544,9.11541 -57.95307,7.07854 z m 14.89105,-12.29768 c 4.19491,-0.37591 12.36682,-1.02574 18.1598,-1.44407 5.79298,-0.41833 11.95115,-1.08922 13.68483,-1.49086 4.02662,-0.93285 9.55972,-3.52287 9.55972,-4.47486 0,-1.29094 -7.99798,-12.2923 -15.02701,-20.66992 -12.83335,-15.29554 -21.74319,-22.20847 -32.38465,-25.12644 l -5.0016,-1.37148 -6.66261,3.31469 c -8.58635,4.27175 -14.15667,8.90247 -21.82826,18.14628 -3.40528,4.10316 -9.63972,10.7816 -13.854298,14.84097 -4.21458,4.05937 -7.66288,7.6604 -7.66288,8.00229 0,1.10401 11.078908,5.77244 17.433418,7.34609 7.75777,1.92117 18.71201,3.109 32.32446,3.50511 1.99757,0.0581 7.06416,-0.20188 11.25908,-0.5778 z m 54.6898,-16.63748 c 6.29866,-7.48553 11.49454,-32.04613 12.11552,-57.26933 0.0125,-0.50864 -5.61586,-3.6686 -12.5075,-7.02213 -6.89165,-3.35354 -15.0768,-7.6857 -18.18921,-9.62703 -7.91358,-4.93599 -14.37467,-11.55832 -17.49922,-17.93593 -4.94625,-10.09593 -6.22048,-18.91458 -6.35922,-44.011 -0.0542,-9.79861 -0.29932,-21.738191 -0.54479,-26.532378 l -0.4463,-8.716707 -11.98548,-0.447944 c -13.47929,-0.503775 -16.66088,-0.02869 -18.92766,2.826232 -1.42788,1.798358 -1.54017,2.607334 -1.22368,8.815518 0.19167,3.759498 -0.3771,18.869559 -1.26392,33.577909 l -1.61239,26.74246 -2.296,4.66383 c -2.74716,5.58027 -9.4805,12.20827 -16.23389,15.97991 -6.43484,3.59373 -21.756188,10.09882 -31.132448,13.21812 l -7.93955,2.64133 v 2.54068 c 0,1.39737 0.34275,8.14673 0.76167,14.99857 0.82426,13.48174 2.1611,22.31286 4.41492,29.16494 1.7153,5.21485 5.81785,13.53419 6.54193,13.26601 0.28357,-0.10502 9.58281,-9.01662 20.664968,-19.80354 18.77586,-18.27566 20.67376,-19.91147 27.84179,-23.99703 l 7.6924,-4.38443 -0.1099,-5.78506 c -0.0604,-3.18178 -0.22221,-8.56351 -0.35949,-11.95939 -0.20882,-5.16579 0.0108,-6.73934 1.34404,-9.63328 1.9017,-4.12761 3.16867,-4.76067 6.42247,-3.20905 4.37571,2.08663 4.82343,3.981 4.28789,18.14234 l -0.47258,12.4966 8.97163,5.04606 c 7.41005,4.16774 10.28183,6.31712 16.49903,12.34866 7.26463,7.04769 19.58485,22.50874 25.25011,31.68717 1.46246,2.36936 3.0738,4.30794 3.58078,4.30794 0.50697,0 1.72831,-0.95852 2.71408,-2.13005 z m 12.14266,-101.10008 c -2.39405,-44.73607 -3.53666,-52.077321 -9.1209,-58.601241 -1.31743,-1.539124 -4.3373,-3.83347 -6.71084,-5.098547 -6.79588,-3.62217 -24.4732,-7.200182 -25.17725,-5.096049 -0.17677,0.528327 -0.67335,10.440008 -1.1035,22.025967 -0.55798,15.02876 -0.55834,23.64192 -0.001,30.05652 1.22655,14.12297 1.85241,16.0673 7.27696,22.60655 4.6538,5.61013 4.79808,5.70997 20.28859,14.03986 8.5808,4.61425 15.70021,8.29079 15.82093,8.17008 0.12071,-0.1207 -0.45202,-12.76712 -1.27273,-28.10314 z m -136.658118,21.4738 c 16.43789,-5.49321 32.152628,-15.16717 34.064228,-20.96987 2.61634,-7.94198 3.26139,-15.24344 3.52255,-39.87218 0.28725,-27.088945 0.0433,-29.04079 -3.74914,-29.992618 -4.86291,-1.220513 -20.501538,1.759104 -27.291478,5.199828 -7.6981,3.900922 -10.07552,7.379249 -13.32485,19.49524 -2.8292,10.54944 -3.30594,15.97117 -3.79108,43.11385 l -0.45766,25.60532 h 1.65416 c 0.90978,0 5.12775,-1.1608 9.37327,-2.57957 z M 164.7098,63.940199 c 0.68762,-0.216706 0.90799,-3.905804 0.90799,-15.199996 V 33.826364 H 149.63716 133.65654 V 49.34869 64.871016 l 15.07263,-0.322329 c 8.28996,-0.177282 15.48124,-0.451101 15.98063,-0.608488 z"
     style="fill:#000000;stroke-width:0.72639227" />
</svg>
