<?xml version="1.0" encoding="UTF-8" standalone="no"?>
<!-- Created with Inkscape (http://www.inkscape.org/) -->

<svg
   xmlns:dc="http://purl.org/dc/elements/1.1/"
   xmlns:cc="http://creativecommons.org/ns#"
   xmlns:rdf="http://www.w3.org/1999/02/22-rdf-syntax-ns#"
   xmlns:svg="http://www.w3.org/2000/svg"
   xmlns="http://www.w3.org/2000/svg"
   xmlns:sodipodi="http://sodipodi.sourceforge.net/DTD/sodipodi-0.dtd"
   xmlns:inkscape="http://www.inkscape.org/namespaces/inkscape"
   width="300"
   height="300"
   id="svg2"
   version="1.1"
   inkscape:version="0.48.4 r9939"
   sodipodi:docname="dessin.svg">
  <defs
     id="defs4" />
  <sodipodi:namedview
     id="base"
     pagecolor="#ffffff"
     bordercolor="#666666"
     borderopacity="1.0"
     inkscape:pageopacity="0.0"
     inkscape:pageshadow="2"
     inkscape:zoom="1.979899"
     inkscape:cx="73.020464"
     inkscape:cy="128.94188"
     inkscape:document-units="px"
     inkscape:current-layer="layer1"
     showgrid="false"
     inkscape:window-width="1215"
     inkscape:window-height="1000"
     inkscape:window-x="65"
     inkscape:window-y="24"
     inkscape:window-maximized="1" />
  <metadata
     id="metadata7">
    <rdf:RDF>
      <cc:Work
         rdf:about="">
        <dc:format>image/svg+xml</dc:format>
        <dc:type
           rdf:resource="http://purl.org/dc/dcmitype/StillImage" />
        <dc:title />
      </cc:Work>
    </rdf:RDF>
  </metadata>
  <g
     inkscape:label="Calque 1"
     inkscape:groupmode="layer"
     id="layer1"
     transform="translate(0,-752.36218)">
    <path
       style="fill:#000000"
       d="m 232.27876,1031.0195 c -1.07248,-1.6523 -1.63825,-11.5628 -1.25726,-22.0229 1.60798,-44.14809 -1.2362,-100.70281 -5.44488,-108.26795 -1.28895,-2.31685 -2.34352,-7.10018 -2.34352,-10.62961 0,-3.52945 -1.18192,-6.41715 -2.62647,-6.41715 -1.44457,0 -2.62648,-2.11444 -2.62648,-4.69874 0,-2.86276 -3.07874,-5.91312 -7.8794,-7.80669 -4.33365,-1.70938 -7.87941,-3.96562 -7.87941,-5.0139 0,-1.04828 -2.06835,-2.42267 -4.59633,-3.05421 -4.29016,-1.07174 -8.82861,-7.59637 -12.06553,-17.34572 -1.15583,-3.48123 -3.96131,-3.93162 -17.31022,-2.77898 -14.89942,1.28655 -15.93086,1.03496 -15.93086,-3.88596 0,-5.43515 7.00213,-10.519 12.0779,-8.76907 1.58689,0.5471 6.01907,-0.13987 9.84927,-1.5266 6.11821,-2.2151 6.96401,-3.89579 6.96401,-13.83812 0,-12.0028 -2.96452,-13.99759 -13.11474,-8.82468 -6.40898,3.26624 -13.14996,0.65584 -13.14996,-5.09224 0,-5.42474 -1.11806,-5.08058 45.9373,-14.14029 7.60552,-1.46432 11.39373,-3.83845 13.81157,-8.65595 2.35625,-4.69468 4.79187,-6.27457 8.31916,-5.3962 6.27363,1.56227 8.01854,7.73679 8.06374,28.53406 0.0267,12.31713 -1.13637,17.70616 -4.58852,21.25924 -5.68394,5.85011 -15.06414,11.01231 -20.01044,11.01231 -4.33832,0 -7.30456,6.04757 -5.34783,10.90325 0.75355,1.86999 4.54114,4.9651 8.41684,6.87797 18.75139,9.25498 27.28939,23.32259 30.19342,49.74812 2.87525,26.16366 6.0995,115.36081 4.48451,124.06181 -1.39265,7.503 -8.57048,10.969 -11.94587,5.7682 z M 213.16435,816.4549 c 1.99621,-1.77102 2.95427,-6.97861 2.50054,-13.59153 -0.24452,-3.56505 -2.13743,-4.36771 -8.8472,-3.75163 -8.02421,0.73673 -8.58473,1.4262 -9.34803,11.49815 -0.80254,10.58983 -0.72619,10.69512 6.56617,9.05616 4.058,-0.91202 8.16583,-2.35705 9.12852,-3.21115 z M 94.017102,1001.3603 c -5.3414,-0.9891 -11.444548,-3.16785 -13.562556,-4.8418 -6.755099,-5.33857 -14.810148,-24.88506 -14.7947,-35.90092 0.0074,-5.86129 -1.349264,-21.91177 -3.016602,-35.66775 -3.553882,-29.32071 0.202766,-92.07727 6.047284,-101.02566 1.93632,-2.96457 6.647203,-6.71134 10.468657,-8.32617 5.531778,-2.33757 6.899267,-4.57686 6.708518,-10.98535 l -0.239542,-8.04927 -14.109522,0.12075 c -16.51909,0.14133 -23.081093,-3.93806 -15.220922,-9.46242 3.706503,-2.60504 13.744734,-3.65245 36.770602,-3.83668 43.425571,-0.34743 49.490381,0.11535 53.806931,4.10631 4.50702,4.16704 2.79752,4.9434 -16.22513,7.36852 -10.7186,1.3665 -12.47571,2.38818 -12.47571,7.25402 0,5.73079 6.26918,12.34759 18.55438,19.58316 6.29992,3.71044 6.94498,5.96321 9.97935,34.85166 5.99922,57.11504 4.20752,121.59864 -3.71528,133.71237 -3.4589,5.28849 -25.5416,13.72703 -34.50461,13.18533 -2.6177,-0.1579 -9.129659,-1.0967 -14.471059,-2.0861 z m 32.401528,-20.93337 c 3.71111,-2.20705 10.14096,-11.91607 10.14096,-15.3128 0,-0.47761 -5.83136,-6.87646 -12.95861,-14.21983 l -12.95863,-13.35156 -6.7367,7.45953 c -3.70518,4.10274 -6.74884,8.58501 -6.763724,9.96062 -0.01574,1.37558 -3.562052,5.1601 -7.882614,8.41004 -4.320577,3.24991 -7.855567,6.74349 -7.855567,7.76336 0,1.01987 2.995881,4.93266 6.657526,8.69497 6.169781,6.33953 7.653381,6.71031 20.250359,5.06048 7.47602,-0.97913 15.62418,-2.98832 18.107,-4.46481 z M 93.228425,936.19779 c 13.668385,-16.9151 14.960675,-16.96482 31.044375,-1.19454 4.88277,4.78761 9.64478,8.70474 10.58226,8.70474 3.21537,0 1.73253,-27.12722 -1.66499,-30.45968 -6.05987,-5.94384 -15.01574,-19.02076 -15.01574,-21.92524 0,-1.56287 -2.45465,-6.00314 -5.45476,-9.86729 -4.51036,-5.80935 -5.51293,-10.98807 -5.79079,-29.91177 -0.22771,-15.50248 -1.31836,-22.88603 -3.3809,-22.88603 -3.09322,0 -6.385307,16.31268 -6.385307,31.63992 0,9.07682 -8.832646,29.24249 -16.101528,36.76122 -6.465084,6.68726 -8.359576,54.15213 -2.161425,54.15213 1.208408,0 7.656366,-6.75603 14.328805,-15.01346 z m 41.703145,-71.85445 c -1.83392,-29.21077 -3.41062,-33.77063 -12.16092,-35.16975 -8.9289,-1.42763 -5.15849,34.51403 6.04604,57.63466 6.31815,13.03752 7.96417,6.99034 6.11488,-22.46491 z M 82.830084,864.1325 c 3.583531,-11.67165 4.776387,-32.97341 1.846427,-32.97341 -6.134118,0 -8.525698,7.27324 -8.525698,25.92794 0,20.73089 1.87138,22.70487 6.679271,7.04547 z m 23.244126,-54.43721 c 2.82918,-7.02076 1.69886,-13.55142 -2.34546,-13.55142 -2.75156,0 -3.939718,2.64004 -3.939718,8.7538 0,9.05879 3.493438,11.72542 6.285178,4.79762 z m 71.1045,169.26263 c -2.93929,-1.19695 -6.65722,-3.7089 -8.26206,-5.58237 -6.40807,-7.48015 -9.93747,-89.40568 -3.94596,-91.59486 5.1789,-1.89225 7.84009,2.0248 8.93806,13.15611 0.96919,9.82558 1.1723,10.00437 11.36663,10.00437 l 10.37979,0 0.10976,-11.77618 c 0.12284,-13.21063 1.25643,-15.26872 7.21032,-13.09305 7.27369,2.65794 9.75208,15.99449 9.75208,52.47732 0,30.26217 -0.69084,36.40055 -4.59632,40.83897 -5.15266,5.85588 -22.55798,8.98782 -30.95218,5.56969 z m 15.63518,-14.25822 c 2.28498,-0.835 4.1545,-3.98637 4.1545,-7.00308 0,-3.01671 1.10026,-6.55414 2.44501,-7.86095 1.36626,-1.3277 1.65596,-8.44528 0.65662,-16.132 -1.55274,-11.94345 -2.60222,-13.8657 -7.96508,-14.58854 -3.39718,-0.45791 -8.81732,-0.2014 -12.04475,0.56992 -5.61209,1.34131 -5.81438,2.30488 -4.63739,22.0918 1.39035,23.37407 4.59535,27.59862 17.39109,22.92285 z"
       id="path3236"
       inkscape:connector-curvature="0" />
  </g>
</svg>
