<?xml version="1.0" encoding="UTF-8" standalone="no"?>
<svg
   xmlns:dc="http://purl.org/dc/elements/1.1/"
   xmlns:cc="http://creativecommons.org/ns#"
   xmlns:rdf="http://www.w3.org/1999/02/22-rdf-syntax-ns#"
   xmlns:svg="http://www.w3.org/2000/svg"
   xmlns="http://www.w3.org/2000/svg"
   viewBox="0 0 300 300"
   height="300"
   width="300"
   id="svg1596"
   version="1.1">
  <metadata
     id="metadata1602">
    <rdf:RDF>
      <cc:Work
         rdf:about="">
        <dc:format>image/svg+xml</dc:format>
        <dc:type
           rdf:resource="http://purl.org/dc/dcmitype/StillImage" />
        <dc:title></dc:title>
      </cc:Work>
    </rdf:RDF>
  </metadata>
  <defs
     id="defs1600" />
  <path
     id="path1606"
     d="m 127.46927,283.67487 c -2.73893,-0.71781 -5.58414,-1.62851 -6.3227,-2.02377 -0.73855,-0.39526 -3.18717,-4.21714 -5.44135,-8.49306 l -4.09855,-7.77441 -1.87312,-15.53081 c -1.82648,-15.14419 -1.85505,-15.96041 -1.14755,-32.78728 0.39906,-9.49106 0.7287,-17.74284 0.73252,-18.33731 0.011,-1.71415 4.91948,-4.02428 11.69063,-5.5021 6.12356,-1.33648 12.47537,-3.85322 12.47537,-4.94303 0,-0.30353 -1.05686,-2.64891 -2.34859,-5.21196 -1.29173,-2.56304 -3.31049,-6.98969 -4.48613,-9.83701 -3.1801,-7.70195 -4.38141,-8.91374 -9.55861,-9.64206 -2.52749,-0.35557 -8.04329,-0.34244 -13.32019,0.0317 -10.216037,0.72438 -12.077389,0.24775 -14.490953,-3.71064 -1.904892,-3.12412 -1.733979,-5.08424 0.545637,-6.2575 4.64504,-2.39069 7.551302,-2.65154 34.340356,-3.08224 46.27098,-0.74391 53.82873,-0.63852 59.70735,0.83259 5.50059,1.3765 11.74323,3.76475 11.72104,4.48411 -0.008,0.23798 -2.49279,1.75281 -5.52324,3.3663 -5.21293,2.77549 -5.81977,2.93359 -11.25927,2.93359 -6.43023,0 -6.27337,-0.11667 -8.35182,6.21233 -0.56104,1.70839 -3.04064,7.43422 -5.51025,12.72408 -5.21761,11.17605 -5.56197,9.96959 3.99622,14.00072 7.67344,3.23626 9.76771,4.64704 12.24638,8.24966 1.53487,2.23087 2.04863,3.66246 1.8355,5.11465 -0.19675,1.34058 0.003,2.01665 0.59557,2.01665 2.12148,0 2.47856,2.69513 1.6343,12.33524 -1.22279,13.96232 -4.3553,24.02717 -9.91005,31.8413 -6.34154,8.92097 -11.77619,15.41149 -15.43496,18.43374 -5.12503,4.23341 -5.03028,4.23608 -5.03028,-0.14192 0,-2.65966 0.24007,-3.72952 0.76421,-3.40559 0.51149,0.31612 0.6139,-9.5e-4 0.30969,-0.95976 -0.31948,-1.00659 0.2479,-2.45322 1.90962,-4.86893 3.97186,-5.77408 4.05574,-9.17241 0.19012,-7.7027 -1.03565,0.39375 -5.88549,0.71591 -10.77744,0.71591 -4.89195,0 -10.4867,0.34148 -12.43279,0.75883 -3.32439,0.71296 -6.62174,0.35778 -10.50203,-1.13122 -1.60936,-0.61757 -3.28404,1.59051 -3.28404,4.33001 0,6.41772 3.01306,11.55793 7.59285,12.9532 0.9491,0.28915 3.02172,1.12936 4.60583,1.86711 2.67045,1.24371 3.00291,1.26097 4.56559,0.23706 1.3583,-0.88999 10.4716,-3.82931 11.87271,-3.82931 0.19463,0 0.35388,0.96097 0.35388,2.13547 0,2.68541 -3.86831,9.25284 -6.03026,10.23789 -2.50269,1.1403 -11.01491,0.81137 -16.5512,-0.63957 z m 4.65445,-35.56695 c 2.48122,-2.42284 2.51166,-2.43134 6.01841,-1.67927 2.50738,0.53773 4.28618,0.5444 6.1635,0.0231 1.45141,-0.40304 6.55294,-0.73452 11.33673,-0.73663 10.75795,-0.005 12.7826,-0.60623 13.71657,-4.07473 1.70101,-6.31707 1.68203,-6.75271 -0.31618,-7.25422 -2.26235,-0.56782 -30.82022,-0.59766 -36.5813,-0.0382 -5.36326,0.52079 -10.8236,1.6958 -11.91927,2.56487 -0.47879,0.37977 -0.86282,2.18292 -0.86282,4.05115 0,3.95988 1.67022,6.12782 4.721,6.12782 1.42081,0 2.17628,0.47471 2.74625,1.72564 1.05485,2.31515 2.02056,2.17749 4.97711,-0.70951 z m 38.57873,-27.55646 c 1.06101,-0.65574 0.9242,-3.67002 -0.36405,-8.01988 -2.43078,-8.20778 -8.48844,-10.86916 -28.22564,-12.40068 -8.61811,-0.66872 -12.18134,-0.67618 -16.22108,-0.0339 -9.40154,1.49469 -8.71915,1.16801 -8.4598,4.05001 0.5874,6.5274 1.67309,14.16885 2.216,15.59681 l 0.59809,1.57308 24.85509,-0.15209 c 13.67031,-0.0836 25.19092,-0.35965 25.60139,-0.61333 z m -17.18057,-32.529 c 0.37176,-0.97783 1.53746,-3.07449 2.59042,-4.65924 2.4575,-3.69864 3.81129,-6.72007 5.2803,-11.78471 1.43787,-4.95725 1.02512,-6.95515 -1.73133,-8.38057 -1.76474,-0.91258 -2.71188,-0.96171 -5.87626,-0.30479 -2.18382,0.45336 -5.5936,0.58813 -8.09707,0.32003 -4.78097,-0.512 -9.97271,0.51793 -10.57932,2.0987 -0.20657,0.53832 0.75163,2.774 2.12933,4.96819 1.37769,2.1942 3.30722,6.62969 4.28785,9.85664 2.735,9.00008 3.26064,9.66362 7.65544,9.66362 3.30258,0 3.73148,-0.17567 4.34064,-1.77787 z m 63.13878,-29.67919 c -2.7522,-1.13546 -8.4081,-5.06066 -16.85984,-11.70075 -12.24508,-9.62031 -12.83821,-9.99209 -15.94153,-9.99209 -2.40116,0 -3.5586,0.37083 -4.53817,1.45397 -4.2561,4.70612 -19.24217,7.78014 -25.32358,5.1945 -3.39356,-1.44285 -8.44986,-6.27724 -10.00622,-9.56708 -0.7672,-1.62173 -1.30163,-3.04714 -1.18762,-3.1676 0.11401,-0.12048 4.79608,0.6193 10.40462,1.64392 8.77443,1.603 10.66954,1.75396 13.58129,1.08185 1.86116,-0.4296 4.08863,-0.7811 4.94994,-0.7811 0.8613,0 2.14392,-0.63861 2.85029,-1.41913 1.60596,-1.77457 1.56826,-1.83944 -7.03539,-12.10487 -3.55277,-4.23899 -6.45959,-7.84225 -6.45959,-8.00724 0,-0.165 1.92881,-0.16048 4.28623,0.01 3.52536,0.255 4.9651,0.76994 8.11054,2.90083 2.10336,1.42494 6.65772,4.00627 10.12078,5.7363 5.9577,2.97625 6.43843,3.10193 8.9347,2.3358 3.04738,-0.93527 6.95536,-4.56826 8.25186,-7.67122 1.37435,-3.28928 0.55034,-5.62975 -3.02902,-8.60333 -3.94716,-3.27915 -5.03877,-3.84067 -9.50041,-4.88703 -3.69508,-0.866582 -8.15348,-4.384572 -6.33706,-5.000382 0.49804,-0.16884 4.3223,-0.25821 8.49836,-0.19858 6.68025,0.0954 8.06247,0.33136 11.50021,1.96338 7.502,3.561462 12.30698,9.603232 12.31113,15.479902 0.004,4.44908 -1.21051,6.97181 -5.60886,11.6588 -1.84905,1.97039 -3.36192,4.20486 -3.36192,4.96548 0,0.92448 2.46,3.37981 7.42027,7.40617 13.06117,10.60206 16.73878,14.81652 16.73878,19.18235 0,4.00705 -5.81322,4.95717 -12.76979,2.08711 z M 82.240562,126.73672 c -4.456548,-1.60031 -8.404148,-3.21097 -8.772448,-3.57928 -0.955928,-0.95592 -2.753793,-8.43804 -2.811721,-11.70144 -0.399554,-22.509313 0.48999,-32.755063 4.554585,-52.459639 1.33129,-6.453916 2.352016,-13.136064 2.26827,-14.849217 -0.100518,-2.056132 0.272477,-3.763066 1.097394,-5.022043 0.871736,-1.330445 1.392704,-3.937145 1.72268,-8.619569 0.260161,-3.691793 0.865455,-7.437533 1.345106,-8.323868 0.965698,-1.784488 4.60322,-3.56542 7.282285,-3.56542 0.95362,0 2.904951,-0.460973 4.336293,-1.024383 4.367556,-1.719178 27.132674,-3.108273 39.418984,-2.405291 11.72235,0.670712 15.93992,1.632445 21.94658,5.004462 4.37403,2.4555 5.13381,3.94974 3.7307,7.337146 -0.84293,2.035028 -7.15755,6.266838 -9.37748,6.284417 -2.89217,0.0229 -45.53696,-7.165884 -45.75359,-7.712851 -0.36031,-0.909686 -3.02547,-0.6745 -5.198322,0.458724 -1.087415,0.567124 -2.73857,1.031135 -3.669232,1.031135 -0.930671,0 -2.31334,0.332465 -3.072604,0.738811 -3.295753,1.763833 -5.889239,12.798384 -6.599602,28.079478 -0.403707,8.68421 -0.358807,9.145265 0.88924,9.132867 0.722916,-0.0072 5.19711,-3.418084 9.94263,-7.579786 7.67769,-6.733136 8.91389,-7.568167 11.22123,-7.579786 2.45212,-0.01234 2.76218,-0.277013 5.70739,-4.871827 4.23674,-6.609751 5.23712,-6.876903 9.87919,-2.638239 2.02629,1.850197 6.68553,5.12069 10.35387,7.267762 14.98611,8.771321 16.91817,10.244168 17.73581,13.520302 0.42748,1.71286 0.22002,2.008184 -2.0885,2.972738 -3.07065,1.283001 -4.27895,1.061242 -13.63368,-2.502171 -3.89306,-1.482952 -7.30327,-2.701047 -7.57826,-2.706881 -1.18449,-0.02513 -2.75347,4.67066 -3.10248,9.285391 l -0.37767,4.993614 2.78227,0.444903 c 1.53025,0.244696 3.70795,0.259768 4.83932,0.03349 2.72637,-0.545273 4.98676,0.725875 4.98676,2.804339 0,1.762304 -1.69279,2.588695 -7.24772,3.538215 -2.61068,0.446252 -6.55745,2.058764 -6.55745,2.679141 0,0.156999 1.74123,2.711612 3.8694,5.676907 4.55588,6.347927 6.20603,9.415849 6.81552,12.671259 0.39833,2.12758 0.22616,2.51363 -1.60195,3.59175 -3.9315,2.31859 -5.31471,1.74063 -11.5042,-4.80692 l -5.68593,-6.014862 -6.31996,5.949352 c -3.47598,3.27214 -7.69928,6.98833 -9.38512,8.25821 -1.685839,1.26987 -3.074752,2.53314 -3.086497,2.80727 -0.01169,0.27412 1.740859,1.01068 3.894651,1.63682 5.272706,1.53281 16.487036,1.02998 23.939016,-1.07338 2.98187,-0.84166 6.03522,-1.36983 6.78519,-1.1737 0.81874,0.2141 2.65161,-0.46176 4.58714,-1.69151 5.56269,-3.53426 18.66137,-6.89101 17.89281,-4.58533 -0.71817,2.15447 -21.03412,15.65907 -27.30655,18.15144 -3.42966,1.36279 -4.48175,1.4827 -8.27959,0.94359 -3.68173,-0.52262 -4.74304,-0.42068 -6.90258,0.66303 -1.40355,0.70434 -5.50276,1.64305 -9.10936,2.086 -3.606601,0.44297 -7.489308,0.92893 -8.628228,1.07993 -1.281524,0.16989 -5.1591,-0.83446 -10.17359,-2.63511 z m 10.524843,-16.77231 c 1.200553,-1.0102 4.372088,-5.12587 7.047856,-9.14593 2.675759,-4.020062 5.502719,-8.012199 6.282139,-8.87142 2.6652,-2.938084 0.9483,-3.232603 -11.048545,-1.89529 -6.003697,0.669247 -11.315294,1.587967 -11.803545,2.041605 -1.29307,1.201373 -1.918681,11.946315 -0.878977,15.096635 1.59317,4.82736 6.428461,6.11713 10.401072,2.7744 z m 0.339003,-27.445872 c 1.138929,-0.22149 4.956563,-0.694828 8.483642,-1.051864 9.24361,-0.9357 10.48994,-1.864009 12.77601,-9.516077 0.99437,-3.328409 2.00896,-7.33038 2.25462,-8.89327 0.51031,-3.246561 -0.52447,-5.812539 -2.31311,-5.735887 -0.65102,0.0279 -7.86192,4.159906 -16.024216,9.182238 l -14.840553,9.131513 -0.562589,3.079405 c -0.344648,1.886466 -0.284849,3.80994 0.154369,4.965171 l 0.716977,1.885772 3.642036,-1.322142 c 2.00312,-0.72718 4.573885,-1.503362 5.712814,-1.724859 z m 65.445112,-5.15867 c 0.29264,-7.433069 0.79026,-11.941886 1.54267,-13.977733 2.9643,-8.020635 4.6033,-13.700287 4.95065,-17.155555 0.2099,-2.088032 0.72759,-4.458253 1.15042,-5.267158 1.71798,-3.286569 5.94574,1.395582 5.94574,6.584767 0,1.128715 0.29297,2.233277 0.65104,2.454582 0.35809,0.221305 2.37709,-0.701758 4.48668,-2.05125 l 3.83564,-2.453621 v 1.677493 c 0,0.922622 -1.09892,3.310473 -2.44204,5.306336 -1.34312,1.995863 -2.62494,3.968427 -2.8485,4.383478 -0.22355,0.41505 2.38757,-2.202951 5.8025,-5.81778 3.41495,-3.614829 7.3382,-7.180542 8.71837,-7.923807 l 2.50938,-1.35139 2.55071,2.550713 c 2.86183,2.861835 3.23819,5.498191 1.307,9.15535 -0.68503,1.297259 -1.09509,3.819469 -1.09775,6.75219 -0.003,2.685849 -0.46488,5.775361 -1.08487,7.247714 -0.70256,1.668474 -0.93744,3.538002 -0.67137,5.343771 l 0.40924,2.777474 2.89696,-0.276269 c 2.45683,-0.234297 3.84349,-1.105688 9.12704,-5.735556 16.86281,-14.776517 24.76976,-16.393463 13.31222,-2.722307 -2.73811,3.267121 -7.78713,8.793651 -11.22005,12.281179 -7.22361,7.338512 -10.94357,9.375134 -16.52808,9.048827 -3.40065,-0.198704 -3.51775,-0.277138 -4.42646,-2.965136 -0.70365,-2.081446 -0.84307,-5.640403 -0.56643,-14.459322 0.36373,-11.595485 0.0208,-14.186402 -1.87753,-14.186402 -1.57784,0 -12.64539,13.95653 -13.45662,16.969242 -0.40665,1.510177 -1.20176,3.357413 -1.76691,4.104968 -0.56516,0.747553 -1.03917,1.980421 -1.05336,2.739706 -0.0143,0.759284 -0.34599,2.533372 -0.73733,3.942417 -0.60454,2.176737 -1.07208,2.629547 -3.10988,3.011839 -1.50605,0.282537 -2.77771,0.135091 -3.41801,-0.396305 -0.82222,-0.682375 -1.10236,-0.630696 -1.4468,0.266896 -0.23494,0.612217 -0.7532,1.113124 -1.15169,1.113124 -0.49362,0 -0.58686,-3.49716 -0.29258,-10.972475 z"
     style="fill:#000000;stroke-width:0.69025844" />
</svg>
