<?xml version="1.0" encoding="UTF-8" standalone="no"?>
<!-- Created with Inkscape (http://www.inkscape.org/) -->

<svg
   xmlns:dc="http://purl.org/dc/elements/1.1/"
   xmlns:cc="http://creativecommons.org/ns#"
   xmlns:rdf="http://www.w3.org/1999/02/22-rdf-syntax-ns#"
   xmlns:svg="http://www.w3.org/2000/svg"
   xmlns="http://www.w3.org/2000/svg"
   xmlns:sodipodi="http://sodipodi.sourceforge.net/DTD/sodipodi-0.dtd"
   xmlns:inkscape="http://www.inkscape.org/namespaces/inkscape"
   version="1.0"
   width="300"
   height="300"
   id="svg2"
   inkscape:version="0.48.3.1 r9886"
   sodipodi:docname="dessin.svg">
  <metadata
     id="metadata2990">
    <rdf:RDF>
      <cc:Work
         rdf:about="">
        <dc:format>image/svg+xml</dc:format>
        <dc:type
           rdf:resource="http://purl.org/dc/dcmitype/StillImage" />
      </cc:Work>
    </rdf:RDF>
  </metadata>
  <sodipodi:namedview
     pagecolor="#ffffff"
     bordercolor="#666666"
     borderopacity="1"
     objecttolerance="10"
     gridtolerance="10"
     guidetolerance="10"
     inkscape:pageopacity="0"
     inkscape:pageshadow="2"
     inkscape:window-width="1215"
     inkscape:window-height="1000"
     id="namedview2988"
     showgrid="false"
     inkscape:zoom="1.5733333"
     inkscape:cx="84.012296"
     inkscape:cy="168.26148"
     inkscape:window-x="65"
     inkscape:window-y="24"
     inkscape:window-maximized="1"
     inkscape:current-layer="svg2" />
  <defs
     id="defs5" />
  <path
     style="fill:#000000"
     d="m 71.932017,288.00972 c -4.193618,-3.82853 -4.456985,-13.26522 -0.703659,-25.21291 1.52575,-4.85681 3.07506,-12.98555 3.44292,-18.06385 0.855707,-11.81322 9.542467,-28.31289 18.694629,-35.50874 6.843013,-5.38026 25.596333,-11.15131 34.503953,-10.61809 8.84161,0.52928 14.14658,-0.64923 14.14658,-3.14275 0,-1.42064 -2.48647,-2.58298 -5.52549,-2.58298 -3.03903,0 -9.08669,-1.30708 -13.43924,-2.9046 -4.35257,-1.59752 -10.46013,-3.84917 -13.5724,-5.00364 -3.11224,-1.15446 -8.56637,-2.84406 -12.120276,-3.75465 -12.665078,-3.24508 -17.587509,-11.24 -17.587509,-28.5652 0,-28.2275 8.902311,-37.05641 37.488405,-37.17938 10.50383,-0.0452 19.09788,-1.12012 19.09788,-2.38878 0,-2.78544 -6.97664,-5.44232 -14.29084,-5.44232 -6.46075,0 -26.457783,-9.233872 -31.131923,-14.375514 -1.852639,-2.037976 -4.655922,-3.705397 -6.229478,-3.705397 -5.537835,0 -16.246728,-14.295736 -16.446713,-21.955388 -0.111282,-4.261927 -1.202435,-10.073649 -2.424807,-12.914934 -2.853797,-6.633376 1.910681,-19.458837 6.61629,-17.810335 4.35547,1.525839 12.979791,17.499028 12.979791,24.039992 0,2.619591 1.80986,8.682464 4.021903,13.473047 6.174701,13.372416 16.673867,16.261538 58.929567,16.21613 45.1622,-0.04856 47.23634,-1.037742 61.43741,-29.30078 3.16778,-6.304572 5.75961,-12.919451 5.75961,-14.699734 0,-4.440778 4.2488,-6.456514 9.63319,-4.570224 3.51434,1.23117 4.11011,3.888708 2.75236,12.277567 -3.94127,24.351221 -27.69713,48.77003 -50.1833,51.58378 -26.57783,3.32573 -24.32003,8.33473 4.88294,10.83302 11.4424,0.9789 22.10847,2.53027 23.70233,3.44749 1.59389,0.91724 5.59194,6.06186 8.88456,11.43248 9.63866,15.72171 6.84097,50.93542 -4.04677,50.93542 -1.90654,0 -6.99313,1.67038 -11.30353,3.71196 -4.31042,2.04157 -15.91467,4.50166 -25.78723,5.46686 -27.80325,2.71826 -24.36261,5.02755 16.00161,10.74004 22.11823,3.13024 27.05764,10.49495 36.6336,54.62113 7.31681,33.71593 7.30861,33.94546 -1.21323,33.94546 -5.03794,0 -7.35783,-1.64055 -8.21831,-5.81171 -1.08479,-5.25837 -4.4924,-24.26725 -8.68193,-48.43102 -0.86209,-4.97224 -4.42689,-12.24765 -7.9218,-16.16755 -5.61186,-6.29434 -8.50319,-7.19974 -24.7449,-7.74896 l -18.39055,-0.62186 -0.859,8.05724 c -0.9783,9.17604 3.40462,11.2189 24.20085,11.2799 8.33903,0.0259 12.02459,1.13159 12.02459,3.61213 0,2.41046 -5.21907,4.17217 -16.00479,5.40242 -19.85394,2.26464 -23.60562,3.54429 -23.60562,8.05182 0,5.27663 18.50822,11.38175 34.50477,11.38175 11.8175,0 13.85976,0.70698 13.05749,4.52022 -0.85446,4.06131 -5.86159,4.59182 -49.32,5.22542 -40.84473,0.59546 -48.93413,0.0834 -52.001954,-3.29118 -1.998125,-2.19796 -3.121867,-4.46291 -2.497179,-5.03318 0.624652,-0.57029 10.673303,-1.41395 22.330363,-1.87483 l 21.19459,-0.83796 0.8866,-8.39469 0.88659,-8.39472 -16.44783,-0.0394 c -16.3942,-0.0396 -26.670817,-3.11193 -22.65891,-6.77454 1.16212,-1.06096 4.30823,-2.17289 6.99136,-2.47093 32.5481,-3.6158 31.75686,-3.29223 31.75686,-12.98691 l 0,-9.04044 -13.43926,1.77991 c -7.39155,0.97895 -15.88818,2.94248 -18.88137,4.36344 -8.43388,4.00379 -18.60705,14.16988 -18.60705,18.59414 0,2.19555 -1.227074,3.99188 -2.72683,3.99188 -1.507514,0 -3.088996,11.2482 -3.53666,25.15422 -0.645825,20.06123 -1.68097,25.30624 -5.112641,25.90524 -2.366572,0.41309 -5.867839,-0.67768 -7.780612,-2.42391 z m 69.547893,-120.31345 -0.87814,-9.6862 -19.52448,-0.77265 c -24.236525,-0.95908 -28.43096,0.23427 -24.484323,6.96668 3.376906,5.76043 22.783803,12.67803 36.398993,12.97445 9.12598,0.19864 9.34356,-0.0445 8.48795,-9.48228 z m 48.63487,5.028 c 6.47503,-2.88362 10.23421,-6.54671 10.86059,-10.583 0.91118,-5.87149 0.42768,-6.0741 -9.90261,-4.14977 -5.97331,1.11271 -15.56862,2.15325 -21.32288,2.31235 -12.60143,0.34836 -16.78861,3.59709 -14.57886,11.31146 1.38147,4.82285 3.56683,5.74687 13.34659,5.64311 6.43202,-0.0682 16.15074,-2.1086 21.59717,-4.53415 z m 8.48795,-29.09043 c 0,-1.51404 -1.31799,-5.00108 -2.92886,-7.74896 -2.3881,-4.07373 -6.01384,-4.99617 -19.63821,-4.99617 -17.70214,0 -21.34011,2.04182 -18.44993,10.35506 1.55875,4.48363 4.3022,5.14286 21.40246,5.14286 11.99678,0 19.61454,-1.0691 19.61454,-2.75279 z m -58.00096,-7.57916 c 0,-6.24641 -0.57745,-6.44282 -17.66856,-6.0096 -11.40528,0.28911 -19.17817,1.82607 -21.92718,4.33572 -8.588534,7.84082 -4.962509,9.66438 17.66855,8.88576 21.28245,-0.73222 21.92719,-0.94429 21.92719,-7.21188 z M 126.63418,80.755364 C 107.01226,76.50453 96.747389,66.71133 96.747389,52.241815 c 0,-16.083544 6.026791,-27.294011 16.921651,-31.476128 5.94061,-2.28036 20.51761,-3.5284 41.21149,-3.5284 l 32.01964,0 6.13421,7.864699 c 4.70431,6.031378 6.13421,11.591794 6.13421,23.853448 0,14.625306 -0.72781,16.543468 -8.53502,22.493753 -8.21514,6.261202 -32.88737,13.275554 -44.45601,12.638924 -3.06666,-0.168669 -11.8612,-1.668505 -19.54338,-3.332747 z m 53.71551,-18.05059 c 2.15885,-2.695416 3.25427,-5.891863 2.4342,-7.103215 -0.82005,-1.21135 -16.78752,-2.202455 -35.48327,-2.202455 -30.66204,0 -33.90017,0.436488 -33.05238,4.45535 1.70001,8.058952 13.54534,11.277861 38.60625,10.491065 19.28933,-0.605597 24.28285,-1.630029 27.4952,-5.640745 z m 1.27715,-24.62953 c 0,-2.884196 -2.68786,-5.805041 -6.36595,-6.917721 -14.67816,-4.440397 -65.88431,1.327312 -59.7755,6.732937 3.39809,3.006948 15.24595,4.332835 42.7996,4.789682 21.33058,0.353667 23.34185,-0.04311 23.34185,-4.604898 z"
     id="path3001"
     inkscape:connector-curvature="0" />
</svg>
