<?xml version="1.0" encoding="UTF-8" standalone="no"?>
<!-- Created with Inkscape (http://www.inkscape.org/) -->

<svg
   xmlns:dc="http://purl.org/dc/elements/1.1/"
   xmlns:cc="http://creativecommons.org/ns#"
   xmlns:rdf="http://www.w3.org/1999/02/22-rdf-syntax-ns#"
   xmlns:svg="http://www.w3.org/2000/svg"
   xmlns="http://www.w3.org/2000/svg"
   xmlns:sodipodi="http://sodipodi.sourceforge.net/DTD/sodipodi-0.dtd"
   xmlns:inkscape="http://www.inkscape.org/namespaces/inkscape"
   width="300"
   height="300"
   id="svg2"
   version="1.1"
   inkscape:version="0.48.4 r9939"
   sodipodi:docname="image-seal.svg">
  <defs
     id="defs4" />
  <sodipodi:namedview
     id="base"
     pagecolor="#ffffff"
     bordercolor="#666666"
     borderopacity="1.0"
     inkscape:pageopacity="0.0"
     inkscape:pageshadow="2"
     inkscape:zoom="1.979899"
     inkscape:cx="200.43343"
     inkscape:cy="122.13442"
     inkscape:document-units="px"
     inkscape:current-layer="layer1"
     showgrid="false"
     inkscape:window-width="1215"
     inkscape:window-height="1000"
     inkscape:window-x="65"
     inkscape:window-y="24"
     inkscape:window-maximized="1" />
  <metadata
     id="metadata7">
    <rdf:RDF>
      <cc:Work
         rdf:about="">
        <dc:format>image/svg+xml</dc:format>
        <dc:type
           rdf:resource="http://purl.org/dc/dcmitype/StillImage" />
        <dc:title />
      </cc:Work>
    </rdf:RDF>
  </metadata>
  <g
     inkscape:label="Calque 1"
     inkscape:groupmode="layer"
     id="layer1"
     transform="translate(0,-752.36218)">
    <path
       style="fill:#000000"
       d="m 64.622895,1042.7594 c -6.190915,-3.8718 -5.973811,-9.9436 0.428172,-11.9755 9.879611,-3.1356 11.337298,-8.5461 12.740038,-47.28613 0.759625,-20.9792 2.451422,-40.95905 3.759531,-44.39968 2.059668,-5.41733 1.560878,-6.25567 -3.722039,-6.25567 -6.700093,0 -12.535397,-4.55579 -12.535397,-9.78672 0,-2.19972 5.299095,-3.62815 15.417037,-4.1559 l 15.417018,-0.8041 1.56101,-14.74673 c 1.68695,-15.93633 4.431825,-24.33515 8.968315,-27.44149 5.34717,-3.66141 36.53139,-2.29569 40.60543,1.77836 2.10666,2.10668 3.83032,4.3734 3.83032,5.03716 0,2.26783 -14.73222,7.02603 -24.131,7.79386 -9.16798,0.74894 -9.40314,1.06018 -10.20149,13.50242 l -0.81721,12.73581 17.57484,0 c 15.59143,0 17.57486,0.5856 17.57486,5.18888 0,3.51222 -3.08191,6.30335 -9.53771,8.63778 -8.37699,3.02917 -8.99683,3.84434 -5.09341,6.6986 3.78453,2.76732 4.38857,8.49447 4.06927,38.58111 -0.28984,27.30624 -1.2801,36.23654 -4.35977,39.31624 -5.2615,5.2615 -11.8049,2.4975 -12.22963,-5.1659 -1.1807,-21.30309 1.2091,-70.96523 3.5507,-73.78672 2.15773,-2.59989 0.87008,-3.38266 -5.56462,-3.38266 l -8.37195,0 0,48.26201 0,48.26207 18.76856,0 c 16.79086,0 18.76856,0.5484 18.76856,5.2042 0,2.8623 -0.95397,5.7938 -2.11994,6.5144 -4.92669,3.0449 -79.782081,4.5307 -84.349495,1.6743 z m 33.88669,-34.1724 c 0.87992,-11.42874 1.08252,-25.00243 0.45023,-30.16379 -0.63228,-5.16136 -1.22663,-17.52849 -1.32076,-27.48253 -0.15713,-16.60506 -0.64068,-18.09826 -5.86193,-18.09826 -4.821592,0 -5.167046,0.63103 -2.261858,4.13155 4.322048,5.20774 4.027188,75.36483 -0.338852,80.62553 -2.083768,2.5108 -1.891664,4.5902 0.694507,7.517 1.966313,2.2253 4.354443,4.0919 5.306973,4.148 0.95251,0.056 2.45177,-9.2488 3.33169,-20.6775 z m 86.785605,22.4602 c -5.52053,-1.7157 -11.85922,-5.7206 -14.08596,-8.8997 -8.20833,-11.719 -9.44941,-43.35559 -5.26526,-134.21555 1.65931,-36.0321 1.38702,-40.88866 -2.29237,-40.88866 -4.9036,0 -34.00905,-29.24221 -34.00905,-34.16885 0,-1.85255 -0.94642,-3.36826 -2.10312,-3.36826 -1.15674,0 -4.24133,-3.61966 -6.85467,-8.04368 -5.38721,-9.11982 -9.15827,-10.19361 -11.77047,-3.35152 -0.98528,2.58067 -3.96377,7.03111 -6.6189,9.88985 -2.655125,2.85875 -4.827505,6.78004 -4.827505,8.71397 0,1.93394 -1.01289,3.51627 -2.25087,3.51627 -1.94904,0 -8.47403,11.45209 -8.47403,14.87287 0,0.66794 10.71122,1.21447 23.802685,1.21447 18.17769,0 24.61379,0.97727 27.23484,4.13545 5.26688,6.3462 -0.30402,9.77059 -15.19851,9.34243 -7.17674,-0.20619 -16.065,-0.29078 -19.75168,-0.18768 -3.686675,0.10302 -10.081635,-1.20671 -14.211008,-2.91061 -5.797943,-2.39234 -8.945772,-2.32845 -13.820771,0.28054 -3.472027,1.8582 -7.732161,2.50132 -9.46692,1.42915 -3.669456,-2.26784 -1.404205,-14.05545 3.868976,-20.1329 1.919303,-2.21202 5.601397,-8.18577 8.182475,-13.275 2.581063,-5.08926 6.452722,-11.01304 8.603654,-13.164 2.150946,-2.15093 6.760479,-8.24269 10.243449,-13.53723 3.48294,-5.2945 8.546085,-12.38969 11.251465,-15.76706 l 4.91885,-6.1407 6.21232,7.14482 c 3.41677,3.92963 10.45392,12.72569 15.63806,19.54678 12.89177,16.96243 35.48615,38.81032 43.85752,42.40849 6.7908,2.91885 6.8869,3.34941 5.71792,25.62156 l -1.18899,22.65282 11.9339,1.63573 c 6.56363,0.89966 15.4528,0.69616 19.75369,-0.45219 7.08603,-1.89198 7.98801,-3.44824 9.61213,-16.58459 0.98579,-7.97316 1.16782,-15.50712 0.40455,-16.74212 -0.76326,-1.23503 -0.59643,-6.46365 0.37076,-11.61919 1.52281,-8.1173 2.67449,-9.26196 8.59214,-8.54001 l 6.83366,0.83372 1.43716,54.96507 c 2.38201,91.09964 1.57881,111.06041 -4.98669,123.92991 -7.04462,13.8086 -9.3504,15.9899 -21.33731,20.1859 -11.2538,3.9393 -16.40093,3.8825 -29.95612,-0.3302 z m 28.44896,-20.7745 c 5.80631,-2.6455 6.98495,-5.7294 9.81828,-25.68951 2.07031,-14.58473 2.5428,-33.51923 1.3234,-53.03484 l -1.89645,-30.35181 -8.84842,-1.03302 c -4.86664,-0.56815 -13.67775,-0.57244 -19.58022,-0.0102 l -10.7318,1.02345 -1.53407,31.24955 c -2.06637,42.0928 -0.76686,67.54684 3.81981,74.81948 4.26952,6.7698 16.47837,8.1071 27.62947,3.0263 z"
       id="path3015"
       inkscape:connector-curvature="0" />
  </g>
</svg>
