<?xml version="1.0" encoding="UTF-8" standalone="no"?>
<!-- Created with Inkscape (http://www.inkscape.org/) -->

<svg
   xmlns:dc="http://purl.org/dc/elements/1.1/"
   xmlns:cc="http://creativecommons.org/ns#"
   xmlns:rdf="http://www.w3.org/1999/02/22-rdf-syntax-ns#"
   xmlns:svg="http://www.w3.org/2000/svg"
   xmlns="http://www.w3.org/2000/svg"
   xmlns:sodipodi="http://sodipodi.sourceforge.net/DTD/sodipodi-0.dtd"
   xmlns:inkscape="http://www.inkscape.org/namespaces/inkscape"
   width="300"
   height="300"
   id="svg2"
   version="1.1"
   inkscape:version="0.48.4 r9939"
   sodipodi:docname="image-seal.svg">
  <defs
     id="defs4" />
  <sodipodi:namedview
     id="base"
     pagecolor="#ffffff"
     bordercolor="#666666"
     borderopacity="1.0"
     inkscape:pageopacity="0.0"
     inkscape:pageshadow="2"
     inkscape:zoom="1.979899"
     inkscape:cx="123.91274"
     inkscape:cy="147.70786"
     inkscape:document-units="px"
     inkscape:current-layer="layer1"
     showgrid="false"
     inkscape:window-width="1215"
     inkscape:window-height="1000"
     inkscape:window-x="65"
     inkscape:window-y="24"
     inkscape:window-maximized="1" />
  <metadata
     id="metadata7">
    <rdf:RDF>
      <cc:Work
         rdf:about="">
        <dc:format>image/svg+xml</dc:format>
        <dc:type
           rdf:resource="http://purl.org/dc/dcmitype/StillImage" />
        <dc:title />
      </cc:Work>
    </rdf:RDF>
  </metadata>
  <g
     inkscape:label="Calque 1"
     inkscape:groupmode="layer"
     id="layer1"
     transform="translate(0,-752.36218)">
    <path
       style="fill:#000000"
       d="m 56.719062,1044.8773 c -4.82542,-5.8145 0.0505,-8.0421 20.46913,-9.3527 11.07969,-0.711 21.53037,-2.6783 23.223768,-4.3717 1.6934,-1.6932 3.25372,-11.8773 3.46739,-22.6307 0.45677,-22.98926 1.98582,-26.75107 9.28539,-22.84462 4.47481,2.39487 5.15642,5.71423 5.15642,25.10972 0,23.7405 1.55423,26.844 12.11613,24.193 6.31536,-1.5849 6.49614,-2.3291 6.49614,-26.7455 0,-30.33023 -0.66236,-30.96438 -30.02417,-28.74367 -22.097858,1.67112 -31.546218,-1.61528 -25.519858,-8.87645 2.17923,-2.62593 10.31178,-3.63551 29.280628,-3.63551 25.45913,0 26.26385,-0.18347 26.27823,-5.98265 0.008,-3.29038 1.2207,-10.3238 2.69453,-15.62983 l 2.67971,-9.64733 24.55915,-1.30232 c 16.13801,-0.85577 25.66578,-0.28294 27.7866,1.67063 6.24417,5.75181 -1.18164,10.53154 -20.96231,13.49265 -18.38995,2.75294 -19.53718,3.32611 -20.33102,10.15815 l -0.84136,7.2407 30.75393,0 c 28.98129,0 30.75389,0.3063 30.75389,5.31779 0,6.24282 0.97877,6.08701 -33.75767,5.37389 l -27.11044,-0.55651 0.3159,28.23316 c 0.30444,27.2114 0.53954,28.289 6.49805,29.7847 10.93425,2.7442 13.08652,0.05 12.25035,-15.3368 -1.21349,-22.32908 1.44463,-36.86658 6.73636,-36.84212 7.4707,0.0346 10.94508,11.87728 9.28691,31.65542 -1.42934,17.0494 -1.18573,18.1238 4.4428,19.5958 3.27531,0.8564 8.89582,0.439 12.49006,-0.9274 3.59424,-1.3664 9.44833,-2.4845 13.00912,-2.4845 7.31855,0 18.83614,10.0065 15.38144,13.3633 -3.88531,3.7754 -173.755628,4.468 -176.865198,0.7214 z m 0.44752,-102.71825 c 0,-3.70586 4.98284,-8.51535 29.27411,-28.25573 8.02869,-6.52456 21.587218,-18.78871 30.129988,-27.25368 8.54279,-8.46494 16.49118,-15.39083 17.66309,-15.39083 1.17188,0 2.8731,-1.93463 3.78047,-4.29919 1.4365,-3.74348 -0.15927,-4.08518 -12.34528,-2.64361 -16.33925,1.93291 -33.112648,-2.36426 -43.089598,-11.03909 -7.07441,-6.15114 -7.7733,-10.62635 -6.94992,-44.50214 0.50295,-20.69253 2.59237,-27.9184 8.0728,-27.9184 4.22786,0 5.02941,3.11931 6.31993,24.59478 2.24562,37.36883 2.89126,39.2187 13.688258,39.2187 5.54451,0 6.12928,-1.49087 7.56088,-19.27699 0.8534,-10.60234 1.54838,-28.76243 1.54445,-40.35577 -0.005,-14.81359 1.13139,-22.21738 3.82341,-24.90941 7.11717,-7.11717 9.65868,-0.92187 9.65868,23.54452 0,19.83934 0.69139,23.77312 4.17826,23.77312 8.26499,0 11.51759,-7.05825 12.31704,-26.72827 0.51479,-12.66685 1.95155,-19.76195 4.14897,-20.4886 5.02712,-1.66242 11.26247,15.84433 11.26247,31.62126 0,14.68335 2.06418,15.23839 6.55457,1.76247 1.51337,-4.54163 4.54631,-9.17005 6.7399,-10.28537 25.42018,-12.92495 51.90107,-17.0637 58.47748,-9.13961 3.29052,3.96484 3.11269,4.90446 -1.43684,7.59122 -2.85571,1.68646 -9.37994,3.66455 -14.49832,4.39574 -8.74,1.24857 -9.26162,1.88056 -8.57461,10.3887 0.65275,8.08403 4.6269,17.24554 22.17858,51.12792 6.05032,11.67971 6.28728,16.53764 1.01996,20.90913 -5.84412,4.8502 -10.54853,-0.1255 -17.80006,-18.82668 -3.35661,-8.65643 -7.0064,-15.73896 -8.11064,-15.73896 -1.10424,0 -2.0077,-1.57002 -2.0077,-3.48892 0,-1.9189 -2.42885,-8.51609 -5.39748,-14.66037 -2.9686,-6.14431 -6.52849,-14.14634 -7.91085,-17.78224 -2.87536,-7.56272 -5.89477,-8.31809 -10.59782,-2.65124 -3.19812,3.85348 -2.7555,19.00299 1.52014,52.02811 1.65814,12.80769 -2.8924,20.55356 -10.38559,17.67817 -3.61833,-1.3885 -9.69308,-30.72217 -9.85528,-47.58906 -0.071,-7.37038 -0.6175,-8.14832 -3.37674,-4.80561 -5.02167,6.08361 -14.33575,10.63558 -21.76212,10.63558 -6.14838,0 -6.68332,0.95771 -6.68332,11.96503 0,10.88219 0.5819,11.96503 6.42976,11.96503 9.91383,0 14.8414,2.74284 14.8414,8.26116 0,2.94784 1.85702,5.03331 4.48194,5.03331 2.46508,0 10.54148,5.08184 17.94754,11.29297 7.40608,6.21112 15.26035,12.71436 17.45394,14.45165 2.19359,1.73727 9.37261,7.40978 15.95337,12.60553 6.58077,5.19577 17.05017,12.09247 23.26533,15.32603 9.20521,4.78915 11.30031,7.25985 11.30031,13.32604 0,4.09576 -1.01267,7.44685 -2.25038,7.44685 -4.1286,0 -18.41477,-8.03106 -22.0256,-12.38181 -3.07996,-3.71113 -9.90486,-8.57372 -29.19419,-20.80006 -16.33585,-10.35432 -26.29668,-18.56598 -26.29668,-21.67882 0,-9.85725 -18.44968,1.26201 -42.54232,25.63948 -3.65598,3.69922 -12.02358,10.88991 -18.594668,15.97935 -6.57111,5.08944 -15.42321,12.5439 -19.67135,16.56547 -8.05885,7.62904 -20.22967,9.89306 -20.22967,3.76314 z M 124.30368,920.6426 c -1.828,-2.17697 -3.32362,-5.20513 -3.32362,-6.72923 0,-1.52414 1.49562,-2.95337 3.32362,-3.17611 1.82799,-0.22281 4.52012,-0.61758 5.98251,-0.87738 1.46239,-0.25977 11.78598,-1.40097 22.94129,-2.53592 24.47907,-2.49053 32.20004,-0.65818 31.05635,7.37027 -0.72875,5.11537 -2.59075,5.79873 -16.77311,6.1558 -8.77435,0.22095 -21.33763,1.15521 -27.9184,2.07619 -8.91142,1.24718 -12.81324,0.66438 -15.28864,-2.28362 z"
       id="path3338"
       inkscape:connector-curvature="0" />
  </g>
</svg>
