<?xml version="1.0" encoding="UTF-8" standalone="no"?>
<!-- Created with Inkscape (http://www.inkscape.org/) -->

<svg
   xmlns:dc="http://purl.org/dc/elements/1.1/"
   xmlns:cc="http://creativecommons.org/ns#"
   xmlns:rdf="http://www.w3.org/1999/02/22-rdf-syntax-ns#"
   xmlns:svg="http://www.w3.org/2000/svg"
   xmlns="http://www.w3.org/2000/svg"
   xmlns:sodipodi="http://sodipodi.sourceforge.net/DTD/sodipodi-0.dtd"
   xmlns:inkscape="http://www.inkscape.org/namespaces/inkscape"
   width="300"
   height="300"
   id="svg2"
   version="1.1"
   inkscape:version="0.48.4 r9939"
   sodipodi:docname="dessin.svg">
  <defs
     id="defs4" />
  <sodipodi:namedview
     id="base"
     pagecolor="#ffffff"
     bordercolor="#666666"
     borderopacity="1.0"
     inkscape:pageopacity="0.0"
     inkscape:pageshadow="2"
     inkscape:zoom="1.979899"
     inkscape:cx="227.07871"
     inkscape:cy="107.23575"
     inkscape:document-units="px"
     inkscape:current-layer="layer1"
     showgrid="false"
     inkscape:window-width="1215"
     inkscape:window-height="1000"
     inkscape:window-x="65"
     inkscape:window-y="24"
     inkscape:window-maximized="1" />
  <metadata
     id="metadata7">
    <rdf:RDF>
      <cc:Work
         rdf:about="">
        <dc:format>image/svg+xml</dc:format>
        <dc:type
           rdf:resource="http://purl.org/dc/dcmitype/StillImage" />
        <dc:title />
      </cc:Work>
    </rdf:RDF>
  </metadata>
  <g
     inkscape:label="Calque 1"
     inkscape:groupmode="layer"
     id="layer1"
     transform="translate(0,-752.36218)">
    <path
       style="fill:#000000"
       d="m 217.87647,1036.4495 c -1.12079,-1.6405 -3.07984,-7.1662 -4.35348,-12.2795 -1.27365,-5.1132 -3.80745,-14.9078 -5.63067,-21.7657 -1.82321,-6.85789 -3.31493,-13.83741 -3.31493,-15.51001 0,-1.67257 -2.44753,-6.25899 -5.43896,-10.19197 -5.03767,-6.62328 -6.43829,-7.15092 -18.98194,-7.15092 -20.06804,0 -28.1159,-8.25547 -28.09347,-28.81824 0.011,-8.86846 7.17041,-22.39481 12.70298,-23.99539 3.29696,-0.95382 4.09627,-3.22968 4.09627,-11.66341 0,-10.2845 -0.1109,-10.4538 -5.99736,-9.15137 -3.6811,0.81447 -7.72288,-0.01 -10.46508,-2.13496 -3.79011,-2.93687 -4.0784,-4.15155 -1.90083,-8.00904 2.11455,-3.74584 4.97672,-4.55686 16.24253,-4.60255 7.52161,-0.0305 17.39548,-1.00981 21.94198,-2.17625 12.74936,-3.27097 20.59521,2.51867 23.05279,17.01111 1.91326,11.2826 -0.10968,21.55353 -4.66117,23.66685 -3.62348,1.68243 -15.36449,4.92333 -26.65796,7.35854 -10.63519,2.29323 -15.75667,7.36017 -15.75667,15.5889 0,10.94458 3.16715,12.98062 20.19187,12.98062 13.9884,0 15.52642,0.49538 20.06349,6.46224 9.23369,12.14357 18.82043,43.59485 19.31492,63.36655 0.30515,12.2015 -2.37242,16.8427 -6.35431,11.0145 z M 192.88573,909.17978 c 4.08529,-1.7183 5.38899,-3.90726 5.38899,-9.04812 0,-7.62066 -2.89679,-9.67865 -11.16282,-7.93056 -5.77925,1.22222 -6.69758,4.20153 -4.32013,14.01592 1.42369,5.87717 2.44931,6.1782 10.09396,2.96276 z M 85.615301,1007.9763 c -1.714999,-1.3874 -2.579473,-4.0756 -1.921033,-5.9738 1.265598,-3.64867 14.781334,-9.20913 22.384512,-9.20913 4.31557,0 4.45641,-0.73058 3.2485,-16.85044 -0.69447,-9.26774 -2.20448,-29.80104 -3.3556,-45.62955 -1.15114,-15.8285 -2.64779,-29.39291 -3.32592,-30.14313 -0.67812,-0.75019 -6.61927,-1.39615 -13.202575,-1.43544 -11.349761,-0.0676 -11.969608,-0.37233 -11.969608,-5.88193 0,-5.29544 0.966304,-5.91804 10.900759,-7.02369 5.995435,-0.66724 11.347934,-1.71311 11.894464,-2.3242 0.54652,-0.61104 1.24713,-6.34046 1.55688,-12.732 0.83641,-17.25844 3.35378,-22.07987 11.52842,-22.07987 3.76423,0 8.21759,-0.5831 9.89633,-1.29577 3.50687,-1.48873 10.46085,5.234 9.32238,9.0124 -0.41905,1.39079 -3.81463,3.40381 -7.5457,4.47341 -7.51476,2.15423 -9.74276,6.08229 -7.94487,14.00706 1.05556,4.65274 2.49484,5.26372 12.30669,5.22425 10.46226,-0.042 11.11133,0.29475 11.11133,5.76581 0,4.86159 -1.54392,6.3346 -9.454,9.01982 -13.64835,4.63312 -15.82467,6.21815 -15.18269,11.0575 0.31571,2.37973 1.09325,8.49542 1.72789,13.59044 0.63465,5.09505 2.26716,10.04701 3.62781,11.00436 1.78284,1.25443 1.66462,1.7506 -0.4232,1.77626 -2.37389,0.0292 -2.59299,3.91827 -1.21316,21.5344 0.92615,11.82436 1.76885,24.6365 1.87265,28.47142 l 0.18865,6.97259 14.62845,0 c 11.32413,0 14.76991,0.7875 15.25472,3.4863 0.90326,5.02829 -7.45472,8.01073 -36.91055,13.17093 -18.949235,3.3196 -26.718765,3.8586 -29.001571,2.012 z m 6.284118,-25.06078 c -1.864561,-6.04144 -1.969543,-7.64974 -2.88261,-44.16288 -0.375639,-15.02182 -0.09475,-27.9632 0.624174,-28.75852 0.718946,-0.79538 2.766032,-0.8268 4.549098,-0.0698 2.356652,1.00045 3.315918,5.04564 3.512855,14.81334 0.148954,7.3904 0.611717,16.05181 1.028261,19.24758 2.888663,22.16165 3.186393,37.49469 0.790102,40.68893 -3.622606,4.82895 -5.739504,4.3405 -7.62188,-1.75862 z m 40.636051,-5.51876 c -0.81906,-0.90613 -1.48921,-5.47253 -1.48921,-10.14755 0,-4.67503 -1.42444,-19.03932 -3.16545,-31.92066 -1.74099,-12.8813 -2.58524,-25.09326 -1.87612,-27.13763 2.02141,-5.82764 11.06823,-4.71449 12.29155,1.51239 1.25269,6.3763 2.93669,29.7715 3.72236,51.71339 0.53196,14.85671 0.21021,16.32836 -3.70568,16.94846 -2.35852,0.37352 -4.95837,-0.0622 -5.77745,-0.9684 z m 6.91435,-110.80732 c 0,-2.94012 0.79798,-6.33925 1.77332,-7.55364 0.97531,-1.2144 3.90368,-8.48332 6.50745,-16.15318 2.60382,-7.66985 5.51129,-16.03695 6.4611,-18.59358 0.9498,-2.55661 3.7449,-14.06139 6.21133,-25.56617 4.56675,-21.30168 8.21452,-33.70087 9.91465,-33.70087 2.77352,0 8.04121,9.04425 17.40595,29.88493 5.73761,12.76873 11.40422,23.88057 12.59246,24.69302 1.18824,0.81242 2.16042,3.34508 2.16042,5.62814 0,2.28306 1.8908,6.04403 4.20178,8.35775 2.31099,2.31371 4.20179,5.16522 4.20179,6.33673 0,1.1715 1.41809,3.69882 3.15133,5.61629 4.11141,4.54843 4.24661,19.42365 0.17647,19.42365 -3.25909,0 -13.68525,-14.02766 -17.27481,-23.24199 -6.53618,-16.77831 -20.03985,-44.15976 -21.77816,-44.15976 -0.73225,0 -2.63487,5.29575 -4.22807,11.76828 -1.59318,6.47254 -3.65486,12.28666 -4.58154,12.92026 -0.92667,0.63359 -1.68487,3.70498 -1.68487,6.82531 0,3.12032 -0.94539,5.67332 -2.10087,5.67332 -1.1555,0 -2.1009,3.66062 -2.1009,8.13469 0,7.33852 0.56546,8.12913 5.77744,8.07786 3.1776,-0.0314 9.90414,-1.10942 14.94788,-2.39596 10.95258,-2.79373 17.09069,-1.11114 17.09069,4.68495 0,6.0871 -4.94367,7.68166 -25.92988,8.36363 -16.11163,0.52355 -18.98499,1.24846 -21.65325,5.46284 -4.26633,6.73848 -11.24177,6.43661 -11.24177,-0.4865 z M 71.559321,842.53757 c -1.574555,-1.74189 0.413265,-12.42621 2.991982,-16.08165 3.932213,-5.57413 22.880724,-48.79819 22.880724,-52.19398 0,-4.54353 4.064903,-9.23994 7.997473,-9.23994 4.22449,0 22.94287,22.72409 24.54865,29.80205 0.74211,3.27117 2.96487,7.5784 4.93944,9.57161 5.14903,5.19764 10.8349,15.63252 10.8349,19.88455 0,5.28801 -5.77949,6.91459 -11.83327,3.33031 -3.56938,-2.11332 -5.70724,-2.32563 -6.68616,-0.66403 -0.79147,1.34345 -6.16603,3.05115 -11.94347,3.79489 -5.77745,0.74374 -11.94967,1.97256 -13.71606,2.73068 -4.575252,1.96371 -10.962713,-3.8216 -9.350638,-8.46914 0.878677,-2.53321 4.969277,-4.32324 12.194448,-5.33625 15.29762,-2.14482 18.22536,-3.32997 18.22536,-7.37751 0,-3.48162 -6.57431,-15.09431 -12.11719,-21.40346 -3.60707,-4.10572 -5.54503,-1.34071 -18.525102,26.43075 -5.377184,11.50478 -10.724914,22.22513 -11.883807,23.82303 -2.28018,3.14394 -6.374519,3.81287 -8.55728,1.39809 z"
       id="path3286"
       inkscape:connector-curvature="0" />
  </g>
</svg>
