<?xml version="1.0" encoding="UTF-8" standalone="no"?>
<!-- Created with Inkscape (http://www.inkscape.org/) -->

<svg
   xmlns:dc="http://purl.org/dc/elements/1.1/"
   xmlns:cc="http://creativecommons.org/ns#"
   xmlns:rdf="http://www.w3.org/1999/02/22-rdf-syntax-ns#"
   xmlns:svg="http://www.w3.org/2000/svg"
   xmlns="http://www.w3.org/2000/svg"
   xmlns:sodipodi="http://sodipodi.sourceforge.net/DTD/sodipodi-0.dtd"
   xmlns:inkscape="http://www.inkscape.org/namespaces/inkscape"
   width="300"
   height="300"
   id="svg2"
   version="1.1"
   inkscape:version="0.92.4 (5da689c313, 2019-01-14)"
   sodipodi:docname="image-bigseal.svg">
  <defs
     id="defs4" />
  <sodipodi:namedview
     id="base"
     pagecolor="#ffffff"
     bordercolor="#666666"
     borderopacity="1.0"
     inkscape:pageopacity="0.0"
     inkscape:pageshadow="2"
     inkscape:zoom="1.4"
     inkscape:cx="188.87961"
     inkscape:cy="190.47153"
     inkscape:document-units="px"
     inkscape:current-layer="layer1"
     showgrid="false"
     inkscape:window-width="1872"
     inkscape:window-height="1016"
     inkscape:window-x="48"
     inkscape:window-y="27"
     inkscape:window-maximized="1" />
  <metadata
     id="metadata7">
    <rdf:RDF>
      <cc:Work
         rdf:about="">
        <dc:format>image/svg+xml</dc:format>
        <dc:type
           rdf:resource="http://purl.org/dc/dcmitype/StillImage" />
        <dc:title />
      </cc:Work>
    </rdf:RDF>
  </metadata>
  <g
     inkscape:label="Calque 1"
     inkscape:groupmode="layer"
     id="layer1"
     transform="translate(0,-752.36218)">
    <path
       style="fill:#000000;stroke-width:6.0869565"
       d="m 52.17391,1036.2753 c 0,-3.3478 9.68612,-6.087 21.52476,-6.087 h 21.52476 l -1.74215,-59.34782 -1.74215,-59.34783 -19.89814,-1.91599 c -23.97226,-2.30835 -20.12561,-13.3014 4.65433,-13.3014 15.31235,0 17.7559,-2.48877 19.42336,-19.78261 1.58936,-16.48396 4.69852,-20.10375 18.64654,-21.70864 19.93703,-2.29405 22.85055,9.34178 3.04348,12.15486 -8.8015,1.25002 -14.39073,6.83925 -15.64074,15.64074 -1.64756,11.60083 0.85783,13.69565 16.37987,13.69565 10.07879,0 20.01787,2.73913 22.08695,6.08696 2.19478,3.55125 -3.99475,6.08696 -14.85814,6.08696 h -18.62012 v 60.86956 60.86956 h 24.34783 c 13.3913,0 24.34782,2.7392 24.34782,6.087 0,3.5806 -21.30434,6.0869 -51.73913,6.0869 -30.43478,0 -51.73913,-2.5063 -51.73913,-6.0869 z m 129.1805,-3.3886 c -12.26498,-8.5908 -13.52832,-14.5592 -13.52832,-63.91309 0,-32.23366 2.48274,-54.43748 6.08695,-54.43748 3.34783,0 6.08696,8.21739 6.08696,18.26087 0,14.20288 2.70529,18.26087 12.17391,18.26087 11.65032,0 12.17392,-4.05799 12.17392,-94.34782 0,-58.8406 2.29076,-94.34783 6.08695,-94.34783 3.43365,0 6.08696,17.24636 6.08696,39.56522 v 39.56521 h 22.31886 c 25.42997,0 23.27001,7.57547 -2.42772,8.51468 -16.84431,0.61564 -16.84803,0.6258 -18.61556,50.83315 -1.02821,29.20589 0.67365,50.21739 4.06737,50.21739 3.20941,0 10.16801,1.66259 15.46354,3.69472 7.68308,2.94828 9.62829,-0.74102 9.62829,-18.26087 0,-12.0756 2.73913,-21.95559 6.08696,-21.95559 3.60421,0 6.08695,22.20382 6.08695,54.43748 0,49.35389 -1.26334,55.32229 -13.52832,63.91309 -7.44057,5.2115 -21.8963,9.4755 -32.12385,9.4755 -10.22755,0 -24.68334,-4.264 -32.12385,-9.4755 z m 58.29776,-10.0027 c 4.0174,-4.0174 7.30435,-17.7131 7.30435,-30.43482 V 969.31874 H 213.47826 180 v 23.13044 c 0,28.06552 8.58139,37.73912 33.47826,37.73912 10.37826,0 22.15652,-3.2869 26.17391,-7.3043 z M 64.34783,965.91601 c 0,-29.12426 2.23403,-44.63066 6.08695,-42.24944 7.99193,4.93932 7.99193,88.26093 0,88.26093 -3.52112,0 -6.08695,-19.39518 -6.08695,-46.01149 z m 64.70611,32.31578 c -2.01868,-7.53261 -3.70775,-28.62392 -3.75346,-46.86957 -0.11809,-47.14737 10.63726,-31.16923 13.12007,19.49104 2.002,40.85074 -2.34841,53.56704 -9.36661,27.37853 z M 40,843.43878 c 0,-10.12973 50.95586,-81.07656 58.2313,-81.07656 8.45733,0 27.62388,23.51245 50.85913,62.3913 22.09006,36.96262 3.14934,26.09661 -23.87304,-13.69565 -13.64081,-20.08695 -25.90109,-36.52174 -27.24516,-36.52174 -1.344,0 -12.58782,16.43479 -24.98616,36.52174 C 53.11623,843.24953 40,856.12515 40,843.43878 Z m 42.77925,-13.75774 c -7.72824,-4.99788 -7.56791,-6.32849 1.1662,-9.68009 12.91159,-4.9546 29.38588,-1.61396 30.94128,6.27431 1.62102,8.22105 -20.95812,10.61614 -32.10748,3.40578 z"
       id="path55"
       inkscape:connector-curvature="0" />
  </g>
</svg>
