<?xml version="1.0" encoding="UTF-8" standalone="no"?>
<!-- Created with Inkscape (http://www.inkscape.org/) -->

<svg
   xmlns:dc="http://purl.org/dc/elements/1.1/"
   xmlns:cc="http://creativecommons.org/ns#"
   xmlns:rdf="http://www.w3.org/1999/02/22-rdf-syntax-ns#"
   xmlns:svg="http://www.w3.org/2000/svg"
   xmlns="http://www.w3.org/2000/svg"
   xmlns:sodipodi="http://sodipodi.sourceforge.net/DTD/sodipodi-0.dtd"
   xmlns:inkscape="http://www.inkscape.org/namespaces/inkscape"
   width="300"
   height="300"
   id="svg2"
   version="1.1"
   inkscape:version="0.92.4 (5da689c313, 2019-01-14)"
   sodipodi:docname="image-bigseal.svg">
  <defs
     id="defs4" />
  <sodipodi:namedview
     id="base"
     pagecolor="#ffffff"
     bordercolor="#666666"
     borderopacity="1.0"
     inkscape:pageopacity="0.0"
     inkscape:pageshadow="2"
     inkscape:zoom="1"
     inkscape:cx="516.47388"
     inkscape:cy="43.428931"
     inkscape:document-units="px"
     inkscape:current-layer="layer1"
     showgrid="false"
     inkscape:window-width="1872"
     inkscape:window-height="1016"
     inkscape:window-x="48"
     inkscape:window-y="27"
     inkscape:window-maximized="1" />
  <metadata
     id="metadata7">
    <rdf:RDF>
      <cc:Work
         rdf:about="">
        <dc:format>image/svg+xml</dc:format>
        <dc:type
           rdf:resource="http://purl.org/dc/dcmitype/StillImage" />
        <dc:title />
      </cc:Work>
    </rdf:RDF>
  </metadata>
  <g
     inkscape:label="Calque 1"
     inkscape:groupmode="layer"
     id="layer1"
     transform="translate(0,-752.36218)">
    <path
       style="fill:#000000;stroke-width:6.30900431"
       d="m 39.371073,1038.8428 c -7.701598,-7.8533 2.159406,-15.2752 20.2953,-15.2752 7.055076,0 18.398955,-0.5919 18.398955,-0.5919 0,0 1.270613,-16.4746 3.695372,-39.56276 4.215418,-40.13866 2.149821,-74.27428 2.149821,-74.27428 0,0 -14.321932,1.75176 -22.553642,0.94243 -27.033354,-2.65788 -26.105255,-13.93079 1.146967,-13.93079 9.908097,0 22.80266,-2.03967 22.80266,-2.03967 0,0 -0.187543,-8.23503 0.626374,-15.42573 2.087804,-18.44506 16.32585,-25.42829 35.1425,-17.23625 8.81262,3.83672 7.97886,5.29578 -5.01794,8.78173 -8.5726,2.2993 -16.510348,9.07192 -17.639378,15.05021 -0.76535,4.05244 -0.20464,9.48676 -0.20464,9.48676 0,0 9.617098,1.38295 16.984398,1.38295 10.35794,0 20.57019,2.86689 22.69392,6.37087 2.29792,3.79143 -5.14158,6.37086 -18.37448,6.37086 H 97.281412 v 56.95318 56.95319 l 21.997618,1.9773 c 12.09869,1.0876 22.64176,4.8442 23.42903,8.3482 1.61173,7.1734 -96.581367,12.6077 -103.336987,5.7189 z m 150.446107,-4.1262 c -13.85419,-11.2392 -18.36693,-36.97419 -13.65388,-77.86476 2.67044,-23.16912 6.0087,-34.21793 8.84186,-34.07809 3.34911,0.16529 5.99241,15.96543 5.99241,45.86139 0,48.83256 7.59488,65.26576 26.70729,57.78716 13.23946,-5.1806 16.47098,-22.3552 10.3169,-54.83146 -6.93594,-36.60196 -6.97893,-49.95708 -0.16057,-49.95708 8.94258,0 21.20528,62.4269 17.20291,87.57654 -2.00284,12.5854 -7.25551,25.2208 -11.67259,28.0787 -11.88896,7.6922 -32.41506,6.4804 -43.57402,-2.5724 z M 53.5472,969.41525 c 0,-40.99174 7.529412,-54.76147 14.805349,-27.07617 7.899772,30.05876 2.723008,68.48682 -9.226047,68.48682 -3.068638,0 -5.579302,-18.6348 -5.579302,-41.41065 z m 66.64262,37.16335 c -6.72388,-6.85631 -4.80938,-84.94484 2.08256,-84.94484 3.57015,0 6.24775,19.1126 6.24775,44.59606 0,44.84198 -0.68244,48.14738 -8.33031,40.34878 z m 30.81212,-77.55966 c -2.10499,-3.47321 7.43858,-16.14811 21.20804,-28.16649 9.75773,-8.51684 24.71621,-20.54325 24.71621,-20.54325 0,0 0.31911,-13.66797 0.31911,-21.40253 0,-8.27329 -0.58592,-28.31578 -0.58592,-28.31578 0,0 -14.76138,7.30713 -22.60882,15.30921 -3.82287,3.89815 -10.69276,5.81565 -15.26649,4.26103 -5.10303,-1.73453 0.69044,-8.78033 14.99534,-18.2366 9.70338,-6.41449 23.28461,-17.53561 23.28461,-17.53561 0,0 0.067,-11.99462 0.10394,-24.95061 0.0437,-14.8919 2.88883,-27.07618 6.32509,-27.07618 3.43626,0 6.24774,12.90101 6.24774,28.6689 0,11.72496 0.69599,21.82723 0.69599,21.82723 l 7.98351,6.84166 c 9.64674,8.26701 39.06158,23.48314 33.20863,29.47201 -2.73345,2.797 -10.42692,1.6103 -17.09652,-2.63703 -10.17883,-6.48201 -23.69208,-15.47184 -23.69208,-15.47184 0,0 -1.09953,18.55528 -1.09953,29.61815 0,8.6745 0.65183,19.16005 0.65183,19.16005 0,0 7.01541,5.23513 10.28173,6.31144 17.39759,5.73276 48.87909,33.86681 43.7725,39.11819 -2.55614,2.62856 -9.58998,0.21789 -15.63079,-5.35637 -16.22702,-14.97463 -44.58257,-27.07601 -44.58257,-27.07601 0,0 -23.25826,18.39349 -36.00582,30.14441 -7.87735,7.26151 -14.97547,9.7487 -17.22573,6.03602 z M 35.001404,852.02047 c -0.289269,-13.30581 44.205473,-76.91661 53.801567,-76.91661 10.391931,0 58.460389,61.52364 58.460389,74.82442 0,8.45082 -1.95129,8.17094 -12.79419,-1.83513 -4.06937,-3.7553 -12.59071,-15.85245 -12.59071,-15.85245 0,0 -16.78191,5.08524 -28.019623,5.78992 -15.827534,0.99252 -27.81615,-1.05106 -27.81615,-4.74145 0,-3.56718 11.023839,-7.36733 24.497411,-8.44478 L 115.0375,822.88535 102.2368,806.95819 89.436055,791.03103 76.177466,809.57694 c -25.894332,36.22047 -40.973641,51.76391 -41.176062,42.44353 z"
       id="path324"
       inkscape:connector-curvature="0"
       sodipodi:nodetypes="cscscsscscsccscsccccccccssccsccccscsscssccccsccscccsscscccsccccccccsssccscccccc" />
  </g>
</svg>
