<?xml version="1.0" encoding="UTF-8" standalone="no"?>
<!-- Created with Inkscape (http://www.inkscape.org/) -->

<svg
   xmlns:dc="http://purl.org/dc/elements/1.1/"
   xmlns:cc="http://creativecommons.org/ns#"
   xmlns:rdf="http://www.w3.org/1999/02/22-rdf-syntax-ns#"
   xmlns:svg="http://www.w3.org/2000/svg"
   xmlns="http://www.w3.org/2000/svg"
   xmlns:sodipodi="http://sodipodi.sourceforge.net/DTD/sodipodi-0.dtd"
   xmlns:inkscape="http://www.inkscape.org/namespaces/inkscape"
   width="300"
   height="300"
   id="svg2"
   version="1.1"
   inkscape:version="0.48.4 r9939"
   sodipodi:docname="image-seal.svg">
  <defs
     id="defs4" />
  <sodipodi:namedview
     id="base"
     pagecolor="#ffffff"
     bordercolor="#666666"
     borderopacity="1.0"
     inkscape:pageopacity="0.0"
     inkscape:pageshadow="2"
     inkscape:zoom="2.0018437"
     inkscape:cx="145.03351"
     inkscape:cy="130.6666"
     inkscape:document-units="px"
     inkscape:current-layer="layer1"
     showgrid="false"
     inkscape:window-width="1215"
     inkscape:window-height="1000"
     inkscape:window-x="65"
     inkscape:window-y="24"
     inkscape:window-maximized="1"
     fit-margin-top="10"
     fit-margin-left="10"
     fit-margin-right="10"
     fit-margin-bottom="10" />
  <metadata
     id="metadata7">
    <rdf:RDF>
      <cc:Work
         rdf:about="">
        <dc:format>image/svg+xml</dc:format>
        <dc:type
           rdf:resource="http://purl.org/dc/dcmitype/StillImage" />
        <dc:title />
      </cc:Work>
    </rdf:RDF>
  </metadata>
  <g
     inkscape:label="Calque 1"
     inkscape:groupmode="layer"
     id="layer1"
     transform="translate(0,-752.36218)">
    <path
       style="fill:#000000"
       d="m 150.22222,1043.8832 c 0,-1.9134 6.28727,-15.6884 13.97175,-30.6111 7.68449,-14.92273 18.9863,-43.08218 25.11516,-62.57663 l 11.14341,-35.44444 -20.28182,-9.72718 c -27.60027,-13.23715 -27.27998,-33.32371 0.66261,-41.54998 26.58785,-7.82742 27.64667,-22.83395 1.61111,-22.83395 -10.63333,0 -19.33333,-2.9 -19.33333,-6.44445 0,-3.54444 8.7,-6.44444 19.33333,-6.44444 15.03702,0 19.33334,-2.86417 19.33334,-12.88889 0,-15.32927 -6.01138,-16.22756 -22.93494,-3.42716 -14.13196,10.68882 -22.17617,12.36496 -22.17617,4.62074 0,-2.88795 10.15,-10.09104 22.55555,-16.00684 16.95179,-8.08379 22.55556,-14.78459 22.55556,-26.97136 0,-8.91846 2.9,-16.21538 6.44444,-16.21538 3.54445,0 6.44445,6.96354 6.44445,15.47453 0,10.85405 6.73483,19.44824 22.55555,28.78269 12.40556,7.31947 22.55556,16.54244 22.55556,20.49546 0,4.00071 -10.00062,1.00669 -22.55556,-6.75268 -22.29655,-13.78003 -22.55555,-13.79098 -22.55555,-0.95365 0,9.23766 4.92813,13.57509 17.07223,15.02561 35.7387,4.26874 34.15859,43.92804 -1.75024,43.92804 -22.79497,0 -20.85204,24.17878 2.40023,29.86948 20.65412,5.05483 27.15367,12.90565 27.29022,32.96385 0.14049,20.68422 -11.53227,17.99244 -13.97329,-3.22222 -1.49002,-12.94972 -6.12074,-18.29997 -17.19591,-19.86764 -14.48556,-2.05037 -14.95278,-0.90899 -10.55207,25.77778 2.53254,15.35775 11.69712,44.91249 20.36574,65.67711 8.66861,20.7647 14.33702,39.1781 12.5965,40.9186 -4.58967,4.5897 -33.85112,-55.57453 -39.31465,-80.83463 -4.62802,-21.39691 -4.74988,-21.26421 -26.57187,28.93382 -12.05736,27.73611 -21.92245,51.18401 -21.92245,52.10661 0,0.9225 -2.9,1.6773 -6.44444,1.6773 -3.54445,0 -6.44445,-1.5656 -6.44445,-3.479 z m 51.55556,-157.63217 c 0,-8.46194 -4.29632,-12.88889 -12.50854,-12.88889 -14.16263,0 -22.44168,9.70572 -16.49146,19.33333 7.4278,12.01844 29,7.22461 29,-6.44444 z M 245.31,849.19547 c 1.66325,-5.05025 -3.55804,-8.05555 -13.99521,-8.05555 -10.82989,0 -16.64812,3.53497 -16.64812,10.11488 0,12.11955 26.56174,10.3345 30.64333,-2.05933 z M 60,1008.6955 c 0,-3.5445 7.25,-6.4445 16.11111,-6.4445 15.84257,0 16.11111,-0.8592 16.11111,-51.55553 0,-50.69631 -0.26873,-51.55555 -16.11111,-51.55555 -8.86111,0 -16.11111,-2.9 -16.11111,-6.44445 0,-3.54444 7.341,-6.44444 16.31334,-6.44444 9.91059,0 17.68336,-4.42637 19.80378,-11.27778 1.91973,-6.20278 6.20329,-16.35278 9.51902,-22.55555 4.9958,-9.34567 3.25915,-11.27778 -10.13711,-11.27778 -8.89114,0 -16.1657,-2.9 -16.1657,-6.44445 0,-3.54444 8.7,-6.44444 19.33334,-6.44444 10.63333,0 19.33333,2.9 19.33333,6.44444 0,3.54445 4.35,6.44445 9.66667,6.44445 5.31666,0 9.66666,2.9 9.66666,6.44444 0,3.54445 -5.8,6.44445 -12.88889,6.44445 -9.45187,0 -12.88888,4.29631 -12.88888,16.11111 0,11.81479 3.43701,16.11111 12.88888,16.11111 7.08889,0 12.88889,2.9 12.88889,6.44444 0,3.54445 -7.25,6.44445 -16.11111,6.44445 -15.84257,0 -16.11111,0.85924 -16.11111,51.55555 l 0,51.55553 19.33333,0 c 10.63334,0 19.33334,2.9 19.33334,6.4445 0,3.6353 -18.25924,6.4444 -41.88889,6.4444 C 78.25924,1015.1399 60,1012.3308 60,1008.6955 z m 6.44444,-61.22225 c 0,-19.49444 2.9,-35.44444 6.44445,-35.44444 3.54444,0 6.44444,15.95 6.44444,35.44444 0,19.49445 -2.9,35.44445 -6.44444,35.44445 -3.54445,0 -6.44445,-15.95 -6.44445,-35.44445 z m 61.91172,25.25069 c -6.32439,-16.48109 -4.47941,-60.69513 2.53273,-60.69513 3.54444,0 6.44444,15.95 6.44444,35.44444 0,36.5884 -2.22494,42.84673 -8.97717,25.25069 z M 60,839.41364 c 0,-15.73701 32.60483,-56.27372 45.26262,-56.27372 7.65278,0 18.91425,10.04096 28.76761,25.64972 23.39572,37.06117 19.8786,39.88809 -8.57465,6.89202 L 100.7238,787.00124 82.97174,817.29277 C 64.48978,848.82994 60,853.15339 60,839.41364 z"
       id="path3171"
       inkscape:connector-curvature="0" />
  </g>
</svg>
