<?xml version="1.0" encoding="UTF-8" standalone="no"?>
<!-- Created with Inkscape (http://www.inkscape.org/) -->

<svg
   xmlns:dc="http://purl.org/dc/elements/1.1/"
   xmlns:cc="http://creativecommons.org/ns#"
   xmlns:rdf="http://www.w3.org/1999/02/22-rdf-syntax-ns#"
   xmlns:svg="http://www.w3.org/2000/svg"
   xmlns="http://www.w3.org/2000/svg"
   xmlns:sodipodi="http://sodipodi.sourceforge.net/DTD/sodipodi-0.dtd"
   xmlns:inkscape="http://www.inkscape.org/namespaces/inkscape"
   width="300"
   height="300"
   id="svg2"
   version="1.1"
   inkscape:version="0.48.4 r9939"
   sodipodi:docname="image-seal.svg">
  <defs
     id="defs4" />
  <sodipodi:namedview
     id="base"
     pagecolor="#ffffff"
     bordercolor="#666666"
     borderopacity="1.0"
     inkscape:pageopacity="0.0"
     inkscape:pageshadow="2"
     inkscape:zoom="2.0018437"
     inkscape:cx="145.03351"
     inkscape:cy="130.6666"
     inkscape:document-units="px"
     inkscape:current-layer="layer1"
     showgrid="false"
     inkscape:window-width="1215"
     inkscape:window-height="1000"
     inkscape:window-x="65"
     inkscape:window-y="24"
     inkscape:window-maximized="1"
     fit-margin-top="10"
     fit-margin-left="10"
     fit-margin-right="10"
     fit-margin-bottom="10" />
  <metadata
     id="metadata7">
    <rdf:RDF>
      <cc:Work
         rdf:about="">
        <dc:format>image/svg+xml</dc:format>
        <dc:type
           rdf:resource="http://purl.org/dc/dcmitype/StillImage" />
        <dc:title />
      </cc:Work>
    </rdf:RDF>
  </metadata>
  <g
     inkscape:label="Calque 1"
     inkscape:groupmode="layer"
     id="layer1"
     transform="translate(0,-752.36218)">
    <path
       style="fill:#000000"
       d="m 215.84883,1040.7764 c -10.3278,-27.8245 -14.39246,-124.04989 -9.65672,-228.60943 2.19014,-48.35505 2.46583,-49.67001 10.41361,-49.67001 6.03901,0 6.31943,0.69136 6.31943,15.58003 0,15.24322 0.13755,15.55372 6.36494,14.36327 10.5693,-2.02045 14.27137,2.75503 11.34336,14.63235 -3.52387,14.29431 -4.68246,70.14006 -1.92883,92.97206 3.53875,29.34168 3.67846,43.99739 0.42994,45.09909 -10.32848,3.50289 -18.0766,-70.14594 -12.24781,-116.42012 4.03817,-32.05881 -0.29606,-42.35204 -6.34755,-15.07459 -2.39541,10.79747 -3.41574,34.91684 -3.36732,79.59936 0.0673,62.13675 1.48898,79.40918 10.90912,132.54109 2.34694,13.2374 2.1313,15.3354 -1.89009,18.3861 -6.38677,4.845 -7.40641,4.5098 -10.34206,-3.3992 z m -78.72981,-2.2313 c -0.87412,-2.2779 -0.26504,-7.8039 1.35354,-12.2799 1.61856,-4.4761 2.94923,-11.4956 2.95705,-15.599 0.008,-4.1034 1.0204,-11.47254 2.2502,-16.37587 1.22981,-4.90333 3.69219,-17.51187 5.47196,-28.01898 1.77976,-10.50712 4.20587,-20.19277 5.39133,-21.52367 1.18546,-1.3309 2.16177,-7.63517 2.16959,-14.00949 0.008,-6.37432 1.08456,-15.60148 2.39282,-20.5048 1.30823,-4.90332 2.94431,-21.22218 3.63571,-36.26412 0.69141,-15.04194 1.87483,-28.34848 2.62981,-29.57008 0.75501,-1.22161 1.50073,-19.64895 1.65717,-40.94966 0.22798,-31.0324 1.0079,-39.00614 3.92493,-40.12552 2.00226,-0.76834 5.30636,-0.0153 7.34242,1.67538 2.91499,2.41921 3.50344,8.57149 2.76802,28.94072 -0.51366,14.22763 -1.75126,30.18098 -2.75021,35.45193 -1.71418,9.04486 -1.37749,9.7365 5.98944,12.30461 11.82283,4.12149 11.79708,3.81418 9.47826,113.11239 -0.86194,40.62752 -2.07165,75.30106 -2.68827,77.05226 -0.6166,1.7511 -2.85458,3.1839 -4.97327,3.1839 -7.77496,0 -8.24601,-10.173 -5.21922,-112.7127 1.21342,-41.10761 0.98459,-63.0427 -0.65766,-63.0427 -1.38523,0 -3.2649,6.01771 -4.17704,13.37269 -0.91215,7.35498 -2.79405,21.96943 -4.18204,32.47654 -1.38793,10.50712 -3.09851,24.26189 -3.80126,30.56616 -5.57351,49.99946 -10.65941,76.13081 -19.33439,99.34001 -3.10427,8.3052 -9.09325,10.1077 -11.62889,3.4999 z M 65,1021.258 c 0,-6.8613 4.19597,-9.1374 16.84493,-9.1374 4.83272,0 9.34943,-1.4663 10.03714,-3.2585 1.15535,-3.0107 1.41338,-17.77997 1.39799,-80.01687 l -0.005,-23.41663 -12.20384,-0.78158 c -8.79916,-0.56354 -12.4214,-1.92896 -12.98385,-4.89431 -0.59942,-3.16043 1.93102,-4.41831 10.92842,-5.43244 6.43968,-0.72585 12.32548,-1.9367 13.07957,-2.69079 0.75409,-0.75409 1.9976,-8.28053 2.76336,-16.72542 1.29519,-14.28375 1.92775,-15.54101 9.07193,-18.03149 15.80512,-5.5097 27.29688,-2.13293 27.29688,8.02102 0,3.46661 -2.01918,4.59443 -8.27834,4.62392 -11.00323,0.052 -13.94975,2.29246 -15.02227,11.42331 -0.87577,7.45573 -0.60337,7.66042 11.20151,8.4179 11.46432,0.73562 12.0991,1.16263 12.0991,8.13877 0,6.97614 -0.63478,7.40315 -12.0991,8.13878 l -12.09911,0.77635 -0.68848,52.85398 -0.68847,52.854 12.69797,0 c 9.85649,0 13.27603,1.0802 15.28122,4.8269 4.48005,8.3711 -1.92845,10.187 -36.25595,10.2738 l -32.37476,0.082 0,-6.0452 z m 11.17756,-17.876 c -0.76915,-2.0044 -1.01974,-23.48146 -0.55684,-47.72679 0.74169,-38.84951 1.3495,-44.17997 5.12024,-44.90441 5.35573,-1.02898 7.48265,11.51898 7.46803,44.05824 -0.0178,39.26819 -1.74268,52.21726 -6.95615,52.21726 -2.02226,0 -4.30613,-1.64 -5.07528,-3.6443 z m 43.10936,-0.9127 c -4.52802,-2.86644 -8.62938,-15.41709 -7.10049,-21.72844 0.74003,-3.05491 1.76056,-19.65916 2.2678,-36.89832 0.50725,-17.23916 1.65027,-32.07195 2.54005,-32.96173 0.88978,-0.88978 3.38526,0.14977 5.54549,2.30993 5.54427,5.54427 8.28527,80.19781 3.18637,86.78322 -1.94643,2.51384 -4.71511,3.58684 -6.43922,2.49534 z m 18.25811,-91.59911 c 6.44121,-80.95842 6.64623,-78.87256 -7.44706,-75.7742 -4.28252,0.94152 -15.81004,1.8988 -25.61668,2.12731 -16.38056,0.38169 -17.8929,-0.0229 -18.60071,-4.98366 -0.93825,-6.57504 4.88819,-8.52638 25.60545,-8.57559 11.0381,-0.0262 14.64629,-0.939 14.64629,-3.70521 0,-2.01874 -1.14624,-4.37885 -2.54718,-5.24469 -1.40095,-0.86584 -2.54718,-3.27236 -2.54718,-5.34783 0,-2.07547 -2.57515,-7.45241 -5.72255,-11.94877 -3.1474,-4.49636 -6.03182,-8.67164 -6.40985,-9.27843 -0.88043,-1.4132 -6.17571,5.45842 -16.55295,21.48067 -4.53681,7.00474 -11.97401,16.69995 -16.5271,21.54491 l -8.27833,8.80902 0,-7.81679 c 0,-4.29921 2.60887,-11.70195 5.79746,-16.45053 7.82768,-11.65722 16.38366,-26.17604 25.335674,-42.99255 4.093526,-7.68973 7.905326,-14.44388 8.470696,-15.00925 2.03961,-2.03963 8.79259,5.51782 8.79259,9.84006 0,4.17829 14.13738,32.97342 17.53099,35.70718 0.86953,0.70047 3.20562,4.42572 5.1913,8.27833 4.23484,8.21642 8.95413,9.42121 6.48978,1.65682 -5.12367,-16.14329 -3.20195,-25.21823 5.34022,-25.21823 5.70716,0 6.02321,0.92679 6.73224,19.74064 1.21468,32.23207 -4.08249,99.40798 -9.54079,120.99105 -1.204,4.7608 -3.42873,7.00474 -6.94486,7.00474 -4.98109,0 -5.09994,-0.9231 -3.19745,-24.835 z"
       id="path3442"
       inkscape:connector-curvature="0" />
  </g>
</svg>
