<?xml version="1.0" encoding="UTF-8" standalone="no"?>
<!-- Created with Inkscape (http://www.inkscape.org/) -->

<svg
   xmlns:dc="http://purl.org/dc/elements/1.1/"
   xmlns:cc="http://creativecommons.org/ns#"
   xmlns:rdf="http://www.w3.org/1999/02/22-rdf-syntax-ns#"
   xmlns:svg="http://www.w3.org/2000/svg"
   xmlns="http://www.w3.org/2000/svg"
   xmlns:sodipodi="http://sodipodi.sourceforge.net/DTD/sodipodi-0.dtd"
   xmlns:inkscape="http://www.inkscape.org/namespaces/inkscape"
   width="300"
   height="300"
   id="svg2"
   version="1.1"
   inkscape:version="0.48.4 r9939"
   sodipodi:docname="image-seal.svg">
  <defs
     id="defs4" />
  <sodipodi:namedview
     id="base"
     pagecolor="#ffffff"
     bordercolor="#666666"
     borderopacity="1.0"
     inkscape:pageopacity="0.0"
     inkscape:pageshadow="2"
     inkscape:zoom="2.0018437"
     inkscape:cx="145.03351"
     inkscape:cy="130.6666"
     inkscape:document-units="px"
     inkscape:current-layer="layer1"
     showgrid="false"
     inkscape:window-width="1215"
     inkscape:window-height="1000"
     inkscape:window-x="65"
     inkscape:window-y="24"
     inkscape:window-maximized="1"
     fit-margin-top="10"
     fit-margin-left="10"
     fit-margin-right="10"
     fit-margin-bottom="10" />
  <metadata
     id="metadata7">
    <rdf:RDF>
      <cc:Work
         rdf:about="">
        <dc:format>image/svg+xml</dc:format>
        <dc:type
           rdf:resource="http://purl.org/dc/dcmitype/StillImage" />
        <dc:title></dc:title>
      </cc:Work>
    </rdf:RDF>
  </metadata>
  <g
     inkscape:label="Calque 1"
     inkscape:groupmode="layer"
     id="layer1"
     transform="translate(0,-752.36218)">
    <path
       style="fill:#000000"
       d="m 65.54553,1042.8774 c 0,-4.4766 2.41171,-5.6619 15.1592,-7.4507 8.33756,-1.1703 20.49787,-2.3279 27.02293,-2.5729 6.52504,-0.2451 16.37907,-0.6106 21.89784,-0.8128 l 10.03412,-0.3675 -0.62474,-24.3865 c -0.3436,-13.41264 -1.69688,-25.81554 -3.00727,-27.56184 -1.64769,-2.1961 -7.51356,-2.6965 -19.01871,-1.6222 -9.14988,0.8545 -19.77648,0.7654 -23.61463,-0.1977 -6.02788,-1.513 -6.46857,-2.2615 -3.23529,-5.4948 2.05873,-2.0587 10.11641,-4.4554 17.90597,-5.326 32.427,-3.62421 31.29929,-3.1091 31.29929,-14.29892 0,-12.31217 4.38747,-16.38538 19.14789,-17.77739 25.19997,-2.37644 32.61121,-0.38544 29.42954,7.90572 -1.21355,3.1626 -4.87493,4.39538 -13.0527,4.39538 -15.48197,0 -19.70643,2.06982 -19.70643,9.65522 l 0,6.45466 26.08837,-1.13075 c 27.47517,-1.19085 33.71459,0.24782 31.06075,7.16408 -1.3417,3.4964 -6.33525,4.2206 -29.10231,4.2206 -22.69016,0 -27.76324,0.7311 -29.09151,4.1927 -0.88482,2.3057 -1.01007,5.1612 -0.27829,6.3452 0.73175,1.184 1.4407,12.3475 1.57542,24.80764 l 0.24493,22.6549 12.27412,-0.026 c 6.75077,0 19.56844,-1.2038 28.48371,-2.6509 20.69724,-3.3593 36.51806,-0.4377 36.51806,6.7433 0,4.8499 -2.65151,5.2506 -44.8185,6.7737 -24.65018,0.89 -62.31748,2.5328 -83.70514,3.65 -37.92342,1.9821 -38.88665,1.9006 -38.88665,-3.2912 z m 40.88594,-24.2856 c -2.56093,-11.6597 -2.19011,-31.94144 0.63563,-34.76704 1.32838,-1.3285 4.44047,-1.6383 6.91577,-0.6884 6.51676,2.5009 5.24042,41.45614 -1.39985,42.72344 -3.03541,0.5795 -4.91597,-1.6425 -6.15154,-7.268 z m 75.11489,-2.6986 c 0,-2.8792 -1.40785,-10.4989 -3.12859,-16.93244 -2.47915,-9.2693 -2.43249,-12.5363 0.22488,-15.7382 2.70324,-3.2572 4.33213,-3.4294 8.40136,-0.8879 4.16419,2.6005 5.04793,6.2722 5.04793,20.97294 0,16.063 -0.52005,17.8204 -5.27276,17.8204 -3.50249,0 -5.27277,-1.7574 -5.27277,-5.2348 z M 55,952.58201 c 0,-4.35003 1.10164,-7.90915 2.44807,-7.90915 1.34645,0 4.01579,-1.52198 5.93186,-3.38221 1.91609,-1.86023 7.63609,-6.25192 12.71113,-9.75936 5.07504,-3.50745 9.82053,-7.08475 10.54553,-7.94949 0.72501,-0.86473 5.47049,-4.46497 10.54553,-8.00036 5.07505,-3.53566 14.19804,-11.3839 20.27334,-17.44073 6.07531,-6.05656 13.49013,-11.78805 16.47738,-12.7361 2.98726,-0.94804 5.4314,-2.70334 5.4314,-3.90053 0,-9.49941 24.14607,0.98232 39.16336,17.00072 3.41472,3.64216 7.86361,6.62233 9.88643,6.62233 2.02282,0 3.67786,0.93565 3.67786,2.07931 0,1.14366 6.82164,6.15595 15.1592,11.13819 8.33756,4.98224 15.75239,9.68185 16.47739,10.4435 0.72501,0.76165 4.87731,3.37589 9.22734,5.8098 8.92605,4.9941 11.88985,14.49167 5.31023,17.01627 -4.60054,1.76558 -26.47727,-8.13456 -32.99225,-14.9301 -2.17501,-2.26887 -8.10687,-6.97851 -13.18191,-10.46591 -5.07504,-3.48741 -11.14604,-8.47307 -13.49113,-11.0794 -2.34512,-2.60633 -5.31105,-4.77185 -6.59096,-4.81219 -1.27994,-0.0396 -5.78741,-3.59919 -10.01662,-7.90915 -8.74617,-8.91255 -13.09432,-9.55768 -24.86026,-3.68803 -14.50738,7.23713 -10.73717,11.67047 9.92485,11.67047 10.03148,0 20.11564,0.72026 22.40924,1.60029 4.94322,1.89687 5.60741,8.85191 0.87473,9.15958 -1.81252,0.11864 -6.26141,0.60769 -9.88644,1.08909 -23.67136,3.14204 -42.18794,4.11829 -42.22247,2.22642 -0.0211,-1.21642 -1.08559,-3.8623 -2.3631,-5.87966 -1.82598,-2.88341 -4.57576,-1.474 -12.85848,6.59096 -5.79467,5.64239 -13.86994,12.6317 -17.94505,15.53172 -4.07508,2.90002 -11.18071,8.53529 -15.79029,12.52282 C 58.5071,962.55676 55,962.39489 55,952.58201 z m 42.18212,-65.69074 c 0,-18.54853 -0.0264,-18.61339 -8.68846,-22.23288 -11.33982,-4.73811 -17.67536,-14.76875 -17.67536,-27.98441 0,-8.88065 0.87114,-10.63828 5.27276,-10.63828 4.38618,0 5.27277,1.75763 5.27277,10.45268 0,7.63628 1.3741,11.18828 5.09944,13.18191 8.46443,4.5301 9.97333,3.25963 11.42506,-9.62016 1.816445,-16.11533 0.69445,-18.41734 -10.82578,-22.2112 -12.47805,-4.10931 -16.05736,-9.08342 -16.16042,-22.45792 -0.1044,-13.56643 6.43889,-20.79339 10.09985,-11.15488 1.29905,3.42013 2.80169,8.464 3.33916,11.20861 0.53751,2.7446 3.08718,6.30372 5.66599,7.90914 6.68072,4.15908 9.415605,-1.43698 7.78262,-15.92464 -1.23451,-10.95267 -0.64401,-12.38528 8.59209,-20.84522 17.56659,-16.09037 31.10451,-9.43717 14.52773,7.13964 -6.40374,6.40372 -7.90914,10.12867 -7.90914,19.57005 0,9.90334 0.79473,11.66093 5.27276,11.66093 4.21041,0 5.27277,-1.75759 5.27277,-8.72344 0,-10.88394 5.59841,-19.09121 11.48247,-16.83328 3.00239,1.15213 4.33582,4.83969 4.33582,11.99072 0,14.50358 -5.99848,24.91073 -15.04523,26.10292 -9.85485,1.29869 -10.42025,2.22105 -12.11183,19.75872 -1.16314,12.05907 -0.69239,15.1592 2.30191,15.1592 7.42334,0 14.30962,-10.14981 14.30962,-21.09106 0,-8.78788 0.87879,-10.54548 5.27277,-10.54548 4.73784,0 5.27276,1.7576 5.27276,17.32467 0,19.87516 -2.59209,23.84107 -17.60987,26.9433 l -10.07215,2.08063 -1.31819,18.3487 c -1.18895,16.54989 -1.89977,18.43121 -7.25005,19.19128 -5.67071,0.80542 -5.93187,0.0264 -5.93187,-17.76025 z m 111.74423,-3.57151 c -9.57006,-11.00663 -22.10722,-30.50822 -22.10722,-34.38792 0,-12.7303 17.60035,-33.44167 28.41849,-33.44167 7.1626,0 15.76367,12.91796 10.74623,16.13988 -1.96545,1.26204 -5.35312,2.11069 -7.52813,1.88581 -7.1514,-0.73977 -18.04399,3.46526 -19.62075,7.57433 -0.88177,2.2976 0.73758,6.0149 3.7638,8.63942 2.92127,2.53356 5.31142,5.99039 5.31142,7.68163 0,1.6915 4.18296,5.54326 9.29546,8.55981 10.54463,6.22133 15.15282,13.1189 12.82226,19.19233 -2.38603,6.21791 -15.05451,5.11116 -21.10156,-1.84362 z m -52.30063,-6.99063 c -0.8274,-1.33876 -0.78467,-13.49907 0.0949,-27.02292 1.6553,-25.44953 6.76641,-41.28132 14.03636,-43.47793 2.3091,-0.69769 6.25843,-2.36832 8.77628,-3.71248 2.51785,-1.34416 8.50903,-2.44392 13.31373,-2.44392 10.18208,0 15.06316,-3.95761 15.06316,-12.21333 0,-7.75165 -6.34796,-9.53678 -31.23133,-8.78261 -11.09798,0.33637 -21.66109,0.45259 -23.47361,0.25836 -5.77816,-0.61955 -3.65363,-10.18793 2.63639,-11.87358 7.35751,-1.97175 48.85469,-2.09924 56.02399,-0.17215 8.35365,2.24543 11.77527,12.37064 8.61351,25.48889 -3.8638,16.03105 -8.74337,20.01971 -26.83365,21.93433 -8.57059,0.90707 -17.215,3.28135 -19.20977,5.27614 -2.38474,2.38471 -4.01394,12.27159 -4.75698,28.86762 -0.62153,13.8824 -1.83471,26.3807 -2.69596,27.77429 -1.99277,3.2243 -8.38781,3.28573 -10.35706,0.10019 z"
       id="path3213"
       inkscape:connector-curvature="0" />
  </g>
</svg>
