<?xml version="1.0" encoding="UTF-8" standalone="no"?>
<!-- Created with Inkscape (http://www.inkscape.org/) -->

<svg
   xmlns:dc="http://purl.org/dc/elements/1.1/"
   xmlns:cc="http://creativecommons.org/ns#"
   xmlns:rdf="http://www.w3.org/1999/02/22-rdf-syntax-ns#"
   xmlns:svg="http://www.w3.org/2000/svg"
   xmlns="http://www.w3.org/2000/svg"
   xmlns:sodipodi="http://sodipodi.sourceforge.net/DTD/sodipodi-0.dtd"
   xmlns:inkscape="http://www.inkscape.org/namespaces/inkscape"
   width="300"
   height="300"
   id="svg2"
   version="1.1"
   inkscape:version="0.48.4 r9939"
   sodipodi:docname="image-seal.svg">
  <defs
     id="defs4" />
  <sodipodi:namedview
     id="base"
     pagecolor="#ffffff"
     bordercolor="#666666"
     borderopacity="1.0"
     inkscape:pageopacity="0.0"
     inkscape:pageshadow="2"
     inkscape:zoom="2.0018437"
     inkscape:cx="232.32812"
     inkscape:cy="141.91078"
     inkscape:document-units="px"
     inkscape:current-layer="layer1"
     showgrid="false"
     inkscape:window-width="1215"
     inkscape:window-height="1000"
     inkscape:window-x="65"
     inkscape:window-y="24"
     inkscape:window-maximized="1"
     fit-margin-top="10"
     fit-margin-left="10"
     fit-margin-right="10"
     fit-margin-bottom="10" />
  <metadata
     id="metadata7">
    <rdf:RDF>
      <cc:Work
         rdf:about="">
        <dc:format>image/svg+xml</dc:format>
        <dc:type
           rdf:resource="http://purl.org/dc/dcmitype/StillImage" />
        <dc:title />
      </cc:Work>
    </rdf:RDF>
  </metadata>
  <g
     inkscape:label="Calque 1"
     inkscape:groupmode="layer"
     id="layer1"
     transform="translate(0,-752.36218)">
    <path
       style="fill:#000000"
       d="m 198.83358,1045.6137 c -2.87376,-2.8737 -2.03069,-27.3506 1.32821,-38.5615 1.70612,-5.6946 6.2158,-13.61624 10.02152,-17.60377 19.05298,-19.96315 26.33307,-47.68222 21.25366,-80.92357 -3.0627,-20.04337 -10.95778,-38.02186 -17.86004,-40.67051 -5.13074,-1.96885 -21.83879,1.19213 -21.83879,4.13164 0,1.25328 7.12742,9.67655 15.83875,18.7184 14.90313,15.46861 21.30142,28.00859 17.46119,34.22222 -3.61992,5.85715 -8.7973,2.03747 -19.83975,-14.63701 -9.9028,-14.95358 -22.75817,-27.87063 -27.7375,-27.87063 -0.81524,0 -2.83531,5.02474 -4.48899,11.16609 -2.5978,9.6475 -2.39188,11.61563 1.51412,14.47177 8.70431,6.36476 25.23454,22.49058 25.23454,24.61718 0,1.18051 2.3947,4.90753 5.32157,8.28223 5.87099,6.7693 7.10538,19.86975 2.16018,22.92606 -1.81274,1.12033 -4.36667,-0.0543 -5.98676,-2.75332 -1.55396,-2.58892 -6.71678,-9.01956 -11.47294,-14.29031 -4.75615,-5.27072 -8.64755,-10.63204 -8.64755,-11.91403 0,-2.59123 -6.74288,-9.93311 -9.12268,-9.93311 -2.68572,0 -1.62292,20.82684 1.69606,33.23607 2.81479,10.52418 2.64863,12.59403 -1.33039,16.57305 -4.27386,4.27385 -4.8177,4.27612 -9.05609,0.0378 -3.8691,-3.8691 -4.53009,-10.87995 -4.65637,-49.38914 -0.17348,-52.92492 0.79092,-55.85213 21.35495,-64.81105 16.2343,-7.0726 16.70199,-8.38647 14.03133,-39.41723 -2.33939,-27.18202 0.21499,-63.85883 4.44771,-63.85883 7.60559,0 9.12682,8.0493 9.84206,52.07783 l 0.73166,45.04081 6.65196,0.87574 c 9.04116,1.19028 18.33776,11.65575 24.30542,27.36138 3.91958,10.31552 4.96322,20.33707 4.96322,47.65987 0,37.6178 -0.39141,38.94497 -16.62991,56.39211 -5.48787,5.89633 -9.97794,12.3686 -9.97794,14.38286 0,2.0143 -1.03201,3.6623 -2.29336,3.6623 -1.26132,0 -3.08917,7.7678 -4.06184,17.2617 -0.97268,9.4939 -2.46349,19.0727 -3.31289,21.2863 -1.59975,4.1688 -6.74895,5.3461 -9.84432,2.2507 z M 72.002831,1002.5675 c 0,-5.2236 1.39732,-5.73479 15.67626,-5.73479 19.169889,0 18.636109,1.45849 17.527859,-47.89412 -0.44366,-19.75633 -0.91196,-40.57553 -1.04066,-46.26487 l -0.23415,-10.34428 -14.319889,1.68303 c -10.84575,1.2747 -15.09729,0.74632 -17.52416,-2.17791 -5.25505,-6.33192 -0.61302,-9.41559 14.17384,-9.41559 16.696529,0 20.377509,-2.97326 18.442589,-14.89672 -0.95938,-5.91197 0.038,-11.2214 2.94035,-15.65076 3.73369,-5.69834 6.40573,-6.7035 17.81994,-6.7035 12.40303,0 13.36278,0.45683 12.5774,5.98677 -0.68558,4.82724 -2.81083,6.14838 -10.97292,6.82121 l -10.12266,0.83445 0.80991,11.13908 0.80992,11.13908 12.63873,-0.64516 c 10.97142,-0.56004 12.63872,0.0383 12.63872,4.53582 0,3.91821 -2.43187,5.58512 -9.97794,6.83922 -5.48787,0.91204 -11.5386,2.15064 -13.44609,2.7524 -2.71163,0.85547 -3.35253,11.83815 -2.93809,50.3476 l 0.53006,49.25347 16.62253,0 c 12.15986,0 17.02495,1.04864 18.12141,3.90598 0.82436,2.14819 0.48463,4.53269 -0.755,5.29889 -1.23961,0.7661 -19.74627,2.1877 -41.12594,3.1592 -38.578289,1.7529 -38.872119,1.7229 -38.872119,-3.9685 z m 9.50026,-20.5693 c -1.9047,-7.5889 -1.69623,-73.12975 0.24266,-76.30454 0.67273,-1.10154 3.54169,-0.76197 6.37545,0.75462 4.50362,2.41027 5.00954,5.00736 4.01851,20.62829 -0.62356,9.82897 -0.17748,22.98538 0.9914,29.23647 1.2515,6.69315 1.09931,11.99966 -0.37022,12.90789 -1.37246,0.8482 -1.78794,3.38582 -0.92326,5.6391 2.18059,5.68251 -0.84281,13.99033 -5.09136,13.99033 -1.93788,0 -4.29733,-3.08348 -5.24321,-6.85216 z m 49.693399,3.52618 c -3.19273,-3.9981 -8.40859,-52.33521 -7.21438,-66.85772 1.05338,-12.80971 5.11398,-17.624 10.27872,-12.18658 2.51168,2.64426 4.25736,14.65672 5.48992,37.77681 2.15944,40.50722 -0.17348,51.76221 -8.55426,41.26749 z M 158.6338,848.08035 c -1.89354,-3.06384 0.79412,-16.12196 4.21948,-20.50044 1.27092,-1.62457 2.75798,-14.1488 3.30456,-27.83165 1.01067,-25.30166 3.26332,-30.13671 11.03544,-23.68643 7.58393,6.29411 3.45285,47.58496 -5.87006,58.67253 -1.94269,2.31039 -3.53214,5.4565 -3.53214,6.99137 0,4.42369 -7.24388,9.45052 -9.15728,6.35462 z m 76.52401,-2.75575 c -14.26745,-16.66319 -19.01008,-71.2036 -6.6055,-75.96369 5.70099,-2.18768 12.07011,6.21873 8.22336,10.85379 -4.81793,5.80524 -3.36389,28.75959 2.60425,41.11221 5.82116,12.04843 7.51546,29.16265 2.88708,29.16265 -1.47774,0 -4.67689,-2.32422 -7.10919,-5.16496 z M 74.663621,831.03539 c 0,-4.84606 2.17562,-11.14626 4.8347,-14.00046 2.65911,-2.8542 8.44147,-11.7608 12.84975,-19.79241 15.098859,-27.50937 22.072969,-37.11185 25.889809,-35.64719 4.45437,1.70931 15.33107,15.14175 30.73313,37.95465 10.40656,15.41382 11.04483,17.2826 7.21192,21.11551 -3.83294,3.83294 -4.66595,3.67374 -9.41237,-1.7989 -2.86399,-3.30222 -10.22281,-13.70222 -16.35297,-23.11113 -6.13012,-9.4089 -12.50175,-17.08665 -14.15915,-17.06167 -1.6574,0.024 -5.85545,6.6104 -9.329,14.63432 -3.47355,8.02389 -7.141469,14.5889 -8.150919,14.5889 -1.00945,0 -3.47969,4.19073 -5.48941,9.31274 -2.00972,5.12201 -4.49811,9.31275 -5.52975,9.31275 -1.03164,0 -2.62699,2.99338 -3.54523,6.65196 -2.53317,10.09294 -9.55051,8.50653 -9.55051,-2.15907 z m 23.28186,-3.34907 c -1.09757,-1.11692 -1.99558,-4.22589 -1.99558,-6.90886 0,-3.91889 2.22364,-4.93603 11.308329,-5.17262 15.79099,-0.41128 23.95677,0.45355 28.60344,3.02941 3.13267,1.73656 2.27417,2.89586 -3.99118,5.38955 -10.1506,4.04005 -31.30927,6.32431 -33.925009,3.66252 z"
       id="path3330"
       inkscape:connector-curvature="0" />
  </g>
</svg>
