<?xml version="1.0" encoding="UTF-8" standalone="no"?>
<!-- Created with Inkscape (http://www.inkscape.org/) -->

<svg
   xmlns:dc="http://purl.org/dc/elements/1.1/"
   xmlns:cc="http://creativecommons.org/ns#"
   xmlns:rdf="http://www.w3.org/1999/02/22-rdf-syntax-ns#"
   xmlns:svg="http://www.w3.org/2000/svg"
   xmlns="http://www.w3.org/2000/svg"
   xmlns:sodipodi="http://sodipodi.sourceforge.net/DTD/sodipodi-0.dtd"
   xmlns:inkscape="http://www.inkscape.org/namespaces/inkscape"
   width="300"
   height="300"
   id="svg2"
   version="1.1"
   inkscape:version="0.48.4 r9939"
   sodipodi:docname="image-seal.svg">
  <defs
     id="defs4" />
  <sodipodi:namedview
     id="base"
     pagecolor="#ffffff"
     bordercolor="#666666"
     borderopacity="1.0"
     inkscape:pageopacity="0.0"
     inkscape:pageshadow="2"
     inkscape:zoom="2.0018437"
     inkscape:cx="145.03351"
     inkscape:cy="130.6666"
     inkscape:document-units="px"
     inkscape:current-layer="layer1"
     showgrid="false"
     inkscape:window-width="1215"
     inkscape:window-height="1000"
     inkscape:window-x="65"
     inkscape:window-y="24"
     inkscape:window-maximized="1"
     fit-margin-top="10"
     fit-margin-left="10"
     fit-margin-right="10"
     fit-margin-bottom="10" />
  <metadata
     id="metadata7">
    <rdf:RDF>
      <cc:Work
         rdf:about="">
        <dc:format>image/svg+xml</dc:format>
        <dc:type
           rdf:resource="http://purl.org/dc/dcmitype/StillImage" />
        <dc:title />
      </cc:Work>
    </rdf:RDF>
  </metadata>
  <g
     inkscape:label="Calque 1"
     inkscape:groupmode="layer"
     id="layer1"
     transform="translate(0,-752.36218)">
    <path
       style="fill:#000000"
       d="m 196.08489,1046.7158 c -12.11708,-2.9131 -23.08548,-9.4933 -26.15876,-15.6934 -3.76783,-7.6013 -6.99051,-75.81539 -3.82387,-80.93913 1.18812,-1.92242 4.28509,-2.67986 6.88219,-1.68327 3.869,1.48467 4.72199,5.91679 4.72199,24.53562 l 0,22.72365 21.91276,-1.86269 c 29.09184,-2.47298 34.63631,-4.16818 34.63631,-10.58992 0,-4.4756 -2.16512,-5.32514 -13.57178,-5.32514 -7.46447,0 -15.0986,-1.52683 -16.96472,-3.39295 -3.42806,-3.42806 -4.82872,-33.81312 -1.70278,-36.93906 4.40984,-4.40987 9.61965,2.12019 9.61965,12.05747 0,6.93447 1.50243,11.28135 4.26572,12.34172 6.94217,2.66395 17.84412,-3.03303 18.84416,-9.84731 0.5079,-3.46097 2.50609,-6.81382 4.4404,-7.45079 5.78953,-1.90655 9.66379,13.1338 11.30317,43.88041 1.71064,32.08269 -2.55768,48.06349 -14.39527,53.89679 -7.22021,3.558 -31.99917,6.2136 -40.00917,4.288 z m 33.22258,-24.1284 c 2.72142,-3.1614 4.94804,-8.1517 4.94804,-11.0896 0,-4.839 -2.3791,-5.3417 -25.28021,-5.3417 -14.20495,0 -26.06445,1.2689 -27.07032,2.8964 -0.98455,1.5931 -0.97488,6.6082 0.0226,11.1448 1.45662,6.6319 3.5754,8.4802 10.81247,9.432 15.61876,2.0541 31.3452,-0.9743 36.5685,-7.0419 z m -165.732889,18.113 c -0.99665,-1.6126 -1.03564,-4.9553 -0.0868,-7.4284 1.32384,-3.4498 5.85924,-4.4963 19.48669,-4.4963 l 17.761279,0 1.40979,-9.1892 c 1.51091,-9.8481 1.27103,-14.3714 -3.402643,-64.15901 -1.851976,-19.72864 -4.414926,-33.24002 -6.569076,-34.6311 -1.94274,-1.25454 -8.69462,-1.53946 -15.00411,-0.63312 -8.5211,1.224 -12.42832,0.4954 -15.19035,-2.83266 -6.16456,-7.42786 1.06086,-12.96288 16.92177,-12.96288 14.85768,0 18.26558,-3.88744 15.719,-17.93095 -0.89274,-4.92308 0.84188,-9.4735 5.546309,-14.54965 6.08926,-6.57041 8.64137,-7.29254 23.10728,-6.53812 20.6673,1.07782 21.54983,6.59472 2.12472,13.28219 -12.64455,4.35312 -14.23162,5.83038 -15.03095,13.99078 l -0.89367,9.12374 15.03094,-0.80959 c 13.14263,-0.70788 15.03094,-0.13798 15.03094,4.53716 0,6.40718 -4.82451,9.31349 -19.31897,11.63783 l -10.83658,1.73778 1.62788,18.91334 c 0.89531,10.40237 2.40245,35.2085 3.34917,55.1248 l 1.72133,36.21146 8.90113,-2.1161 c 18.1704,-4.3196 29.84044,-0.4761 26.33004,8.6719 -1.31041,3.4148 -6.09845,4.4401 -20.8745,4.4699 -10.54572,0.023 -29.49582,0.8192 -42.111349,1.7734 -14.64706,1.1078 -23.59225,0.6751 -24.74938,-1.1972 z m 11.75449,-50.09534 c -1.18629,-59.78885 -1.50788,-56.45203 5.53708,-57.45258 6.2994,-0.89467 6.36497,-0.54813 6.68736,35.34317 0.38733,43.11985 0.0687,46.93065 -4.1513,49.63385 -6.67197,4.2738 -7.49812,1.4571 -8.07314,-27.52444 z m 55.042089,23.32654 c -1.53364,-1.9439 -3.59779,-14.34938 -4.58703,-27.56772 -0.98921,-13.21835 -2.5908,-31.96569 -3.55909,-41.66075 -1.47429,-14.76126 -1.00875,-17.91587 2.86308,-19.40162 9.52572,-3.65538 13.03397,3.98171 13.03397,28.37356 0,12.74234 1.35347,30.48947 3.0077,39.43811 2.25504,12.19862 2.16841,17.28162 -0.34619,20.31152 -4.12461,4.9698 -6.78903,5.0995 -10.41244,0.5069 z m 47.23145,-79.26446 c -9.30876,-7.36693 -16.52855,-21.35655 -19.51166,-37.80735 -1.71389,-9.45158 -2.56105,-18.9449 -1.88257,-21.09625 0.67844,-2.15133 2.00025,-7.4105 2.93732,-11.68703 0.93705,-4.27652 2.67291,-7.77549 3.85744,-7.77549 3.29975,0 8.9166,16.84563 7.151,21.44671 -3.40261,8.86712 2.10498,28.17538 10.64276,37.3108 11.81169,12.63849 9.09227,29.33211 -3.19429,19.60861 z m 60.08851,-7.48851 c -9.9122,-10.37214 -15.99564,-32.89278 -13.45743,-49.8188 1.61091,-10.74234 2.84597,-12.57645 8.46873,-12.57645 6.28085,0 6.56469,0.87535 6.18853,19.08531 -0.35776,17.3175 0.471,20.33151 8.94714,32.53946 5.13779,7.39982 8.56167,14.71585 7.60865,16.25786 -3.09573,5.00895 -9.66497,2.97872 -17.75562,-5.48738 z m -35.00495,-9.3805 c -15.98427,-32.43083 -16.49214,-36.33317 -8.00664,-61.52197 7.02961,-20.86711 7.8537,-51.66877 1.70532,-63.73826 -2.41733,-4.74529 -7.60887,-11.64694 -11.53677,-15.33702 -7.55021,-7.09303 -9.60998,-17.03328 -3.5296,-17.03328 3.57546,0 14.64449,6.79558 20.76151,12.74607 6.068,5.90279 12.48994,21.17183 14.22325,33.81776 1.62231,11.83589 -2.64977,35.70418 -7.60706,42.50095 -3.04958,4.18121 -6.69454,21.77436 -5.85792,28.27454 1.43838,11.17554 12.65879,38.74476 16.34435,40.15906 5.21637,2.00169 4.72566,11.17443 -0.70935,13.26005 -7.46253,2.86364 -8.21279,2.23974 -15.78709,-13.1279 z M 50.767831,859.68302 c -2.35697,-4.40402 0.29171,-11.59349 13.86526,-37.63556 9.22836,-17.70537 16.81507,-34.41822 16.85937,-37.13965 0.0444,-2.72142 1.35291,-4.94804 2.90801,-4.94804 1.5551,0 2.82746,-1.65488 2.82746,-3.67747 0,-7.42481 7.205,-18.89867 11.880836,-18.9201 4.387763,-0.0198 22.043903,21.87643 22.052053,27.34817 0.003,2.37436 9.69952,14.84682 19.38626,24.93766 12.34565,12.86065 19.46493,38.17063 10.73678,38.17063 -4.52546,0 -13.16177,-8.95871 -13.16177,-13.65304 0,-1.82142 -1.118,-3.31169 -2.48443,-3.31169 -1.36642,0 -4.06551,-3.81706 -5.99793,-8.48236 -1.93242,-4.66529 -4.32092,-8.48236 -5.30773,-8.48236 -0.98681,0 -3.38921,-3.49897 -5.33865,-7.77549 -6.06746,-13.31019 -13.75166,-21.50661 -18.46641,-19.6974 -4.116999,1.57984 -7.290929,7.26146 -16.531869,29.59348 -2.09135,5.05408 -4.76423,9.18923 -5.93972,9.18923 -1.17548,0 -2.17914,2.22662 -2.23035,4.94804 -0.12016,6.38332 -14.6835,32.49321 -18.90955,33.9019 -1.77875,0.59292 -4.54519,-1.37176 -6.14762,-4.36595 z m 182.441239,-5.61518 c -0.75912,-1.22828 -0.34226,-10.60247 0.92633,-20.83158 2.66895,-21.52082 1.26998,-32.06898 -5.56584,-41.96668 -2.68509,-3.88774 -5.77081,-9.93143 -6.85717,-13.4304 -2.82214,-9.08958 4.91821,-8.35204 14.83698,1.41373 10.88778,10.71986 15.63567,27.24853 13.67975,47.62297 -0.88182,9.18588 -1.65575,17.56499 -1.71982,18.62022 -0.17248,2.84179 -8.61955,10.80492 -11.46143,10.80492 -1.35225,0 -3.07971,-1.00494 -3.8388,-2.23318 z M 80.450661,840.48973 c -2.82844,-7.37081 0.46023,-8.7801 24.448849,-10.47705 16.90223,-1.19567 21.91276,-0.70864 21.91276,2.12998 0,4.72696 -11.70093,9.20161 -30.011069,11.47677 -12.1658,1.5117 -14.76004,1.01512 -16.35054,-3.1297 z m 82.939669,-2.78267 c -2.42606,-2.92322 -2.70307,-5.11218 -0.80506,-6.36177 4.27393,-2.81383 6.55817,-14.32498 4.69307,-23.65041 -0.8999,-4.49955 -6.55585,-12.84283 -12.56877,-18.54065 -6.01292,-5.69783 -10.93257,-11.36987 -10.93257,-12.60454 0,-3.24996 10.65644,-2.762 12.72354,0.58263 0.96111,1.5551 4.01987,2.82745 6.79728,2.82745 9.24688,0 14.96195,10.04835 16.40576,28.84483 2.07289,26.98646 -6.01337,41.31306 -16.31325,28.90246 z"
       id="path3102"
       inkscape:connector-curvature="0" />
  </g>
</svg>
