<?xml version="1.0" encoding="UTF-8" standalone="no"?>
<!-- Created with Inkscape (http://www.inkscape.org/) -->

<svg
   xmlns:dc="http://purl.org/dc/elements/1.1/"
   xmlns:cc="http://creativecommons.org/ns#"
   xmlns:rdf="http://www.w3.org/1999/02/22-rdf-syntax-ns#"
   xmlns:svg="http://www.w3.org/2000/svg"
   xmlns="http://www.w3.org/2000/svg"
   xmlns:sodipodi="http://sodipodi.sourceforge.net/DTD/sodipodi-0.dtd"
   xmlns:inkscape="http://www.inkscape.org/namespaces/inkscape"
   width="300"
   height="300"
   id="svg2"
   version="1.1"
   inkscape:version="0.48.4 r9939"
   sodipodi:docname="image-seal.svg">
  <defs
     id="defs4" />
  <sodipodi:namedview
     id="base"
     pagecolor="#ffffff"
     bordercolor="#666666"
     borderopacity="1.0"
     inkscape:pageopacity="0.0"
     inkscape:pageshadow="2"
     inkscape:zoom="2.0018437"
     inkscape:cx="145.03351"
     inkscape:cy="130.6666"
     inkscape:document-units="px"
     inkscape:current-layer="layer1"
     showgrid="false"
     inkscape:window-width="1215"
     inkscape:window-height="1000"
     inkscape:window-x="65"
     inkscape:window-y="24"
     inkscape:window-maximized="1"
     fit-margin-top="10"
     fit-margin-left="10"
     fit-margin-right="10"
     fit-margin-bottom="10" />
  <metadata
     id="metadata7">
    <rdf:RDF>
      <cc:Work
         rdf:about="">
        <dc:format>image/svg+xml</dc:format>
        <dc:type
           rdf:resource="http://purl.org/dc/dcmitype/StillImage" />
        <dc:title />
      </cc:Work>
    </rdf:RDF>
  </metadata>
  <g
     inkscape:label="Calque 1"
     inkscape:groupmode="layer"
     id="layer1"
     transform="translate(0,-752.36218)">
    <path
       style="fill:#000000"
       d="m 148.55458,1043.7055 c -6.89501,-8.308 0.94561,-13.4547 20.49715,-13.4547 l 17.14123,0 0,-23.1589 c 0,-25.53494 -1.59275,-28.0969 -16.66053,-26.79873 -14.52491,1.2514 -21.31557,-1.86841 -20.2016,-9.2811 0.83126,-5.5314 3.24941,-6.57389 18.18137,-7.83814 l 17.22257,-1.4582 0.40086,-21.1438 c 0.22048,-11.62909 -0.7638,-21.1438 -2.18729,-21.1438 -1.42349,0 -2.58815,1.31238 -2.58815,2.91639 0,7.01335 -7.86345,1.86934 -14.2606,-9.32885 l -6.96967,-12.20032 -13.58543,15.49009 c -13.41322,15.29373 -13.6391,15.40984 -17.81962,9.15917 -3.62049,-5.41328 -4.96806,-5.78118 -9.29715,-2.53821 -4.10977,3.07868 -5.41818,10.44693 -6.95001,39.13834 -1.03788,19.4401 -0.98661,41.35036 0.11403,48.68936 1.9823,13.2189 2.11555,13.352 14.24098,14.2329 10.87456,0.7901 12.23996,1.7026 12.23996,8.1802 l 0,7.291 -39.138429,2.2855 c -39.8461,2.3267 -43.80092,1.5512 -43.93394,-8.6157 -0.0443,-3.3919 4.62338,-4.7647 28.40911,-8.3552 l 12.41362,-1.8739 -1.37434,-48.24401 c -0.7559,-26.53424 -2.09193,-48.96163 -2.96897,-49.83868 -0.87705,-0.87704 -7.93467,-1.30534 -15.6836,-0.95176 -15.15827,0.69168 -22.34555,-3.95348 -19.12056,-12.35763 1.29173,-3.36624 5.47249,-4.74423 14.39371,-4.74423 20.03864,0 21.79941,-1.52752 21.79941,-18.91143 0,-17.92918 2.32716,-20.46565 21.009669,-22.89911 10.2989,-1.34145 14.84263,-0.66299 18.22742,2.7218 5.44947,5.4495 5.80886,9.76646 0.86322,10.36907 -17.85281,2.17539 -22.60199,5.12178 -22.60199,14.02225 0,16.24993 19.34342,16.31519 34.23817,0.11548 12.44693,-13.53745 17.10148,-14.47562 21.7038,-4.37457 1.82712,4.01003 4.42372,7.29096 5.77025,7.29096 1.34655,0 2.44827,2.06229 2.44827,4.5829 0,5.96319 7.83006,13.84557 10.10202,10.1695 0.94858,-1.53487 0.83808,-13.42221 -0.24556,-26.41628 -1.50398,-18.03394 -2.89775,-23.26973 -5.88892,-22.1219 -2.15523,0.82703 -7.15407,-1.98556 -11.10848,-6.25025 l -7.18989,-7.75398 -8.90008,9.31308 c -4.89501,5.12219 -10.85718,9.31307 -13.24926,9.31307 -6.75321,0 -5.12928,-9.91598 2.85188,-17.41389 3.9606,-3.72078 6.50788,-7.88667 5.66065,-9.25752 -0.84724,-1.37084 -0.30981,-2.49246 1.19426,-2.49246 1.50409,0 4.38598,-3.98658 6.40423,-8.85907 2.01826,-4.8725 5.06011,-8.39555 6.75969,-7.82904 1.69956,0.56653 7.26037,7.08148 12.35734,14.47767 l 9.2672,13.44763 1.82525,-13.3166 c 1.00388,-7.32412 1.82525,-21.27192 1.82525,-30.99509 0,-17.20053 0.35877,-18.01738 13.27137,-30.21499 15.40306,-14.5502 27.55804,-17.01177 27.55804,-5.581 0,4.37213 -2.9788,8.90358 -8.02006,12.20041 -13.10082,8.56756 -15.30462,11.94392 -15.43804,23.65242 -0.0697,6.12963 -1.10645,16.39426 -2.30357,22.81031 -1.19709,6.41605 -1.46802,15.38461 -0.60209,19.93015 1.56024,8.18988 1.65354,8.13112 10.32363,-6.50401 4.81204,-8.12272 9.80912,-14.79462 11.10467,-14.82647 1.29552,-0.0318 8.14832,6.17591 15.22844,13.79497 9.65006,10.38464 12.8936,16.22582 12.95552,23.33109 0.0455,5.21305 -1.12095,9.47826 -2.59194,9.47826 -1.47097,0 -7.23258,-5.48733 -12.80355,-12.19405 -9.00939,-10.84613 -10.61323,-11.70985 -14.50926,-7.81379 -2.40913,2.40911 -4.85753,6.91216 -5.44089,10.00674 -0.58337,3.09457 -4.00586,6.92201 -7.6055,8.50537 -5.66406,2.49141 -6.53072,5.04249 -6.43997,18.95651 l 0.10499,16.07766 7.1716,-8.74916 c 3.94439,-4.81203 7.17813,-10.38962 7.18609,-12.39464 0.0292,-7.28703 8.44169,-3.37201 17.9699,8.36262 5.36265,6.60445 11.39074,13.72875 13.39575,15.83181 5.01356,5.25868 4.58969,18.643 -0.65414,20.65525 -5.04264,1.93502 -10.40278,-3.03077 -15.35749,-14.22762 -4.55481,-10.29318 -8.07854,-10.14217 -12.81093,0.54904 -2.08617,4.71299 -6.78946,9.93435 -10.45177,11.60302 -6.93006,3.15754 -8.72422,14.10303 -4.74692,28.95913 1.52443,5.69398 3.20832,6.56843 10.02389,5.20531 11.35792,-2.27157 25.9773,3.27434 25.9773,9.85462 0,4.28781 -3.46105,5.75651 -18.22741,7.73475 l -18.22742,2.44192 -0.81618,20.91786 c -0.53624,13.7428 0.36566,21.6483 2.62936,23.0473 1.89504,1.1712 10.06328,2.0733 18.15164,2.0047 16.40681,-0.1391 28.15556,3.9958 28.15556,9.9096 0,2.74 -4.57199,3.9731 -15.31103,4.1296 -8.42107,0.1228 -17.75193,0.684 -20.73528,1.2472 -2.98331,0.5632 -18.11945,1.9241 -33.63582,3.0241 -24.02679,1.7035 -28.79086,1.3022 -32.11676,-2.7053 z m -79.665699,-28.7657 c -1.91534,-9.8114 -0.37628,-77.96056 1.80999,-80.14683 3.55167,-3.55167 11.23392,7.42208 11.00904,15.72591 -0.12336,4.55426 1.07997,17.56519 2.67398,28.9132 2.96576,21.11392 0.5213,34.99152 -7.00677,39.77832 -5.53066,3.5166 -7.12245,2.7156 -8.48624,-4.2706 z m 57.246879,-6.0596 c -1.75319,-2.0078 -4.27067,-14.09731 -5.59436,-26.86566 -4.1818,-40.33736 -2.43323,-50.44642 8.03115,-46.43088 5.53031,2.12219 7.10641,7.91877 9.66945,35.56224 3.07218,33.1344 -2.08533,49.2101 -12.10624,37.7343 z M 81.203051,837.76931 c 0,-4.79766 1.94427,-5.83277 10.9557,-5.83277 6.02563,0 15.540339,-1.33395 21.143799,-2.96433 8.89241,-2.58733 10.83519,-2.17781 15.27615,3.22019 2.79842,3.40147 4.36143,7.36014 3.47336,8.79707 -0.88807,1.43693 -12.69241,2.61262 -26.23185,2.61262 -22.672889,0 -24.617159,-0.46068 -24.617159,-5.83278 z m -22.13651,-1.09352 c -1.25022,-3.25802 14.59366,-31.948 24.3597,-44.11046 1.28797,-1.60402 4.52113,-7.55114 7.18481,-13.21584 6.78448,-14.42821 17.223019,-25.82215 19.027559,-20.76911 0.77153,2.16046 5.18813,8.23941 9.81469,13.50876 4.62658,5.26936 8.41194,10.8004 8.41194,12.2912 0,1.49083 2.31727,5.25469 5.14952,8.36417 17.8689,19.61806 21.97698,29.16949 13.88194,32.27585 -4.86628,1.86736 -8.60008,-1.49156 -19.03528,-17.12409 -4.00794,-6.00408 -8.27143,-10.92548 -9.47444,-10.93645 -1.20301,-0.0117 -2.18729,-1.82778 -2.18729,-4.03741 0,-5.56248 -7.17081,-10.98705 -12.04928,-9.11499 -2.22168,0.85252 -7.760419,9.07751 -12.308319,18.27772 -16.24033,32.85362 -28.4837,45.77502 -32.77555,34.59065 z"
       id="path3185"
       inkscape:connector-curvature="0" />
  </g>
</svg>
