<?xml version="1.0" encoding="UTF-8" standalone="no"?>
<!-- Created with Inkscape (http://www.inkscape.org/) -->

<svg
   xmlns:dc="http://purl.org/dc/elements/1.1/"
   xmlns:cc="http://creativecommons.org/ns#"
   xmlns:rdf="http://www.w3.org/1999/02/22-rdf-syntax-ns#"
   xmlns:svg="http://www.w3.org/2000/svg"
   xmlns="http://www.w3.org/2000/svg"
   xmlns:sodipodi="http://sodipodi.sourceforge.net/DTD/sodipodi-0.dtd"
   xmlns:inkscape="http://www.inkscape.org/namespaces/inkscape"
   width="300"
   height="300"
   id="svg2"
   version="1.1"
   inkscape:version="0.48.4 r9939"
   sodipodi:docname="dessin.svg">
  <defs
     id="defs4" />
  <sodipodi:namedview
     id="base"
     pagecolor="#ffffff"
     bordercolor="#666666"
     borderopacity="1.0"
     inkscape:pageopacity="0.0"
     inkscape:pageshadow="2"
     inkscape:zoom="1.979899"
     inkscape:cx="73.020464"
     inkscape:cy="149.14493"
     inkscape:document-units="px"
     inkscape:current-layer="layer1"
     showgrid="false"
     inkscape:window-width="1215"
     inkscape:window-height="1000"
     inkscape:window-x="65"
     inkscape:window-y="24"
     inkscape:window-maximized="1" />
  <metadata
     id="metadata7">
    <rdf:RDF>
      <cc:Work
         rdf:about="">
        <dc:format>image/svg+xml</dc:format>
        <dc:type
           rdf:resource="http://purl.org/dc/dcmitype/StillImage" />
        <dc:title />
      </cc:Work>
    </rdf:RDF>
  </metadata>
  <g
     inkscape:label="Calque 1"
     inkscape:groupmode="layer"
     id="layer1"
     transform="translate(0,-752.36218)">
    <path
       style="fill:#000000"
       d="m 120.79112,1027.0554 c 0.74219,-5.7949 2.48132,-16.6719 3.86472,-24.1712 1.38339,-7.49924 3.16073,-22.00193 3.94964,-32.22821 0.78891,-10.22625 2.11906,-23.61337 2.9559,-29.74912 0.83682,-6.13576 1.83483,-24.24926 2.21777,-40.25221 0.98917,-41.33707 3.84612,-47.72813 23.51502,-52.60348 24.77895,-6.14202 45.9065,-3.20758 56.55481,7.85492 4.43207,4.60448 5.47563,8.50283 5.34077,19.95102 -0.33501,28.43938 -8.76878,35.34853 -45.03689,36.89547 -14.06566,0.59991 -26.84771,1.51861 -28.40457,2.04153 -1.71912,0.57743 -3.47673,11.00186 -4.47595,26.54701 -2.76185,42.96656 -9.62249,87.22087 -14.44108,93.15157 -4.9502,6.0927 -7.38851,3.0904 -6.04014,-7.4373 z m 81.48347,-131.15483 c 5.63629,-13.54723 2.9888,-15.80517 -17.65737,-15.05916 -10.23429,0.36978 -23.37007,1.27483 -29.1906,2.01122 -10.45494,1.32269 -10.5828,1.45823 -10.5828,11.2181 l 0,9.87923 27.32943,-0.69344 c 27.04012,-0.68613 27.35877,-0.76399 30.10134,-7.35595 z m -3.27175,-26.69031 c 6.77923,-0.23848 7.49281,-6.89884 1.24503,-11.62068 -5.36667,-4.05593 -14.26618,-4.25269 -34.40727,-0.76074 -13.3647,2.31711 -15.67431,3.50873 -16.65003,8.59035 -0.62307,3.24503 -0.13202,6.2322 1.09121,6.63815 1.22324,0.40595 11.42529,-0.0249 22.67123,-0.95592 11.24594,-0.93172 22.96836,-1.78274 26.04983,-1.89116 z m -35.24772,122.62352 c -11.04573,-5.99981 -13.76566,-11.23058 -13.85197,-26.63911 -0.10595,-18.91479 3.06268,-24.9885 14.96594,-28.6871 12.68642,-3.94196 40.76082,-3.90619 47.76662,0.061 10.87369,6.15726 11.89033,8.48983 11.89033,27.28061 0,16.20909 -0.70177,18.9945 -6.04446,23.99158 -8.10672,7.58232 -43.38045,10.15609 -54.72646,3.99316 z m 35.87327,-6.89557 c 7.33403,-2.27885 10.53681,-4.93332 12.41113,-10.28633 3.94544,-11.26798 3.1014,-24.08689 -1.83137,-27.8149 -5.46119,-4.12737 -35.38917,-4.51705 -44.08157,-0.57398 -5.81643,2.63845 -6.34234,4.16808 -6.34234,18.44689 0,16.91056 0.98758,18.30745 14.85584,21.01288 13.1882,2.57281 14.29513,2.53805 24.98831,-0.78456 z M 57.814911,923.6292 c -5.007631,-3.08126 4.119879,-8.11991 16.581392,-9.15345 6.403748,-0.5311 11.958087,-1.27916 12.342974,-1.66235 1.996517,-1.98774 1.522199,-49.0591 -0.514503,-51.05906 -1.313203,-1.28953 -7.420364,-2.6939 -13.571469,-3.12086 -8.291749,-0.57554 -11.39758,-1.89817 -12.010411,-5.1147 -0.664516,-3.48779 0.950078,-4.33841 8.234943,-4.33841 16.287868,0 18.6944,-2.88343 18.6944,-22.39906 l 0,-17.26645 -13.69538,0 c -13.69913,0 -16.586306,-1.96241 -10.403387,-7.07115 4.97983,-4.11467 55.42982,-4.86392 59.43327,-0.88268 4.40292,4.37854 -1.8739,8.50956 -10.55108,6.94412 -9.62932,-1.73721 -12.37389,1.37168 -11.96384,13.55192 0.55144,16.38024 3.38386,22.16512 10.85259,22.16512 3.53901,0 7.04414,1.7621 7.89469,3.96882 1.7019,4.41557 -3.70392,9.00112 -8.53373,7.23886 -8.60462,-3.13959 -10.17393,1.14638 -10.39002,28.37653 -0.17762,22.38075 0.44346,27.06392 3.75704,28.32986 2.1834,0.83416 4.99926,0.88322 6.25746,0.10899 3.63769,-2.2383 12.20335,1.387 12.20335,5.16493 0,1.97349 -3.44892,3.96676 -8.09272,4.6771 -14.79049,2.26238 -53.632694,3.32189 -56.525569,1.54188 z m 54.658019,-91.68205 c 0,-1.29727 10.44299,-12.73208 23.20665,-25.41072 12.76365,-12.67864 25.21836,-26.11994 27.67714,-29.86956 5.21148,-7.94751 9.78031,-8.65792 14.33933,-2.22961 3.34784,4.72053 51.26939,37.5567 54.81074,37.5567 3.43321,0 2.14286,7.53049 -1.53085,8.934 -3.95542,1.51117 -15.14781,-3.73275 -22.63535,-10.60519 -2.73907,-2.51407 -10.02252,-8.44956 -16.18545,-13.18997 -6.16292,-4.74039 -12.68601,-10.02947 -14.49576,-11.75345 -4.35167,-4.14545 -7.04682,-3.9533 -10.92927,0.77927 -1.76592,2.15257 -12.84901,13.8663 -24.62909,26.03049 -19.08212,19.70431 -29.62809,26.73707 -29.62809,19.75804 z m 34.88178,-7.45155 c -8.08271,-5.17654 2.07709,-8.76459 26.86683,-9.48828 23.5322,-0.68701 34.30175,1.71486 29.1181,6.49404 -3.57674,3.29761 -51.50848,5.86118 -55.98493,2.99424 z"
       id="path3122"
       inkscape:connector-curvature="0" />
  </g>
</svg>
