<?xml version="1.0" encoding="UTF-8" standalone="no"?>
<!-- Created with Inkscape (http://www.inkscape.org/) -->

<svg
   xmlns:dc="http://purl.org/dc/elements/1.1/"
   xmlns:cc="http://creativecommons.org/ns#"
   xmlns:rdf="http://www.w3.org/1999/02/22-rdf-syntax-ns#"
   xmlns:svg="http://www.w3.org/2000/svg"
   xmlns="http://www.w3.org/2000/svg"
   xmlns:sodipodi="http://sodipodi.sourceforge.net/DTD/sodipodi-0.dtd"
   xmlns:inkscape="http://www.inkscape.org/namespaces/inkscape"
   width="300"
   height="300"
   id="svg2"
   version="1.1"
   inkscape:version="0.48.4 r9939"
   sodipodi:docname="image-seal.svg">
  <defs
     id="defs4" />
  <sodipodi:namedview
     id="base"
     pagecolor="#ffffff"
     bordercolor="#666666"
     borderopacity="1.0"
     inkscape:pageopacity="0.0"
     inkscape:pageshadow="2"
     inkscape:zoom="2.0018437"
     inkscape:cx="145.03351"
     inkscape:cy="130.6666"
     inkscape:document-units="px"
     inkscape:current-layer="layer1"
     showgrid="false"
     inkscape:window-width="1215"
     inkscape:window-height="1000"
     inkscape:window-x="65"
     inkscape:window-y="24"
     inkscape:window-maximized="1"
     fit-margin-top="10"
     fit-margin-left="10"
     fit-margin-right="10"
     fit-margin-bottom="10" />
  <metadata
     id="metadata7">
    <rdf:RDF>
      <cc:Work
         rdf:about="">
        <dc:format>image/svg+xml</dc:format>
        <dc:type
           rdf:resource="http://purl.org/dc/dcmitype/StillImage" />
        <dc:title />
      </cc:Work>
    </rdf:RDF>
  </metadata>
  <g
     inkscape:label="Calque 1"
     inkscape:groupmode="layer"
     id="layer1"
     transform="translate(0,-752.36218)">
    <path
       style="fill:#000000"
       d="m 57.523218,1042.8691 c -3.06936,-7.9988 5.69159,-12.7597 23.47972,-12.7597 l 15.40403,0 -0.28696,-38.44587 c -0.15785,-21.14515 -1.1371,-45.62711 -2.17618,-54.40434 l -1.8892,-15.9586 -17.04687,-0.88101 c -19.60526,-1.01325 -26.37783,-5.33496 -20.64556,-13.17429 2.01978,-2.76223 4.79835,-4.81871 6.17456,-4.56993 1.37621,0.24866 8.62432,0.29764 16.10687,0.10881 l 13.60463,-0.34364 1.78698,-13.78243 c 3.72622,-28.73904 4.5711,-29.66069 28.190142,-30.75098 8.36939,-0.38635 9.54957,0.45563 9.54957,6.81307 0,6.07211 -1.54551,7.40274 -9.4864,8.16736 -11.30426,1.08846 -18.71183,10.54559 -16.09582,20.54922 1.66178,6.35466 2.84255,6.71553 17.14343,5.23956 11.26913,-1.16309 16.27041,-0.48668 18.78255,2.54029 5.15338,6.20944 -1.79447,12.83017 -13.46407,12.83017 -13.66532,0 -25.11512,5.707 -22.86691,11.39769 2.17925,5.51611 3.65031,23.15307 5.45654,65.41946 1.54752,36.21246 3.53645,39.61046 21.75483,37.16676 6.78345,-0.9099 11.88591,-0.1828 13.15728,1.8742 4.38859,7.1007 -4.54321,10.965 -29.60901,12.8101 -13.96687,1.028 -32.048872,2.6877 -40.182252,3.6879 -12.68547,1.5601 -15.07992,1.0576 -16.8419,-3.5338 z m 92.562692,1.7481 c -3.01833,-4.8839 0.77405,-7.8455 14.45849,-11.2911 l 13.10637,-3.3002 0,-16.9469 c 0,-15.33078 -0.83849,-17.6415 -8.79334,-24.23164 -10.7227,-8.88314 -16.24945,-33.79752 -10.73695,-48.40176 4.34968,-11.52368 24.86331,-20.63108 46.18226,-20.50353 23.86627,0.14276 31.43843,9.02793 31.28705,36.71193 -0.0937,17.12794 -2.72341,22.9544 -13.03162,28.87301 -4.84802,2.78356 -5.65509,6.08481 -5.21194,21.31879 0.28842,9.9141 1.34781,18.8489 2.35422,19.8554 1.00643,1.0063 8.59109,2.5113 16.85481,3.3444 10.49272,1.0576 15.28556,2.8824 15.88885,6.0498 0.72658,3.8143 -5.72438,5.0887 -40.5917,8.0181 -50.03597,4.2041 -59.4322,4.2807 -61.7665,0.5037 z m 52.67915,-33.6584 c -1.70757,-21.57907 -2.80898,-23.83718 -9.08555,-18.62809 -3.04433,2.52657 -4.42248,8.98469 -4.42248,20.72449 0,16.4127 0.28261,17.0542 7.51171,17.0542 7.47559,0 7.50444,-0.093 5.99632,-19.1506 z m 14.77868,-41.51534 c 8.83669,-10.18553 8.22263,-19.57207 -1.8989,-29.02699 -7.68346,-7.17743 -9.83369,-7.72127 -24.25287,-6.13414 -20.43888,2.2497 -26.30585,7.82825 -23.66179,22.49862 1.08492,6.01955 3.38911,12.72286 5.12044,14.89619 8.88494,11.15324 34.17562,9.88923 44.69312,-2.23368 z m -146.375452,5.56178 c -0.36377,-39.11884 1.38666,-51.62618 6.14711,-43.92357 2.68195,4.33944 7.95284,73.55723 6.14874,80.74553 -0.95479,3.804 -3.87284,6.676 -6.78345,6.676 -4.63102,0 -5.14567,-4.0611 -5.5124,-43.49796 z m 53.163362,37.16206 c -0.71408,-3.6966 -1.24109,-9.3326 -1.17113,-12.52435 0.0699,-3.19173 -0.84581,-21.14527 -2.03498,-39.89663 -2.08307,-32.846 -1.95052,-34.09339 3.62263,-34.09339 5.22949,0 6.11917,3.13358 9.26786,32.6426 4.37544,41.0059 3.38267,58.36137 -3.41201,59.64997 -3.28655,0.6232 -5.41455,-1.3371 -6.27237,-5.7782 z m 21.98222,-113.20876 c -6.21007,-6.21005 -3.71165,-10.24885 7.39899,-11.96083 5.98448,-0.92212 27.41749,-3.25193 47.62892,-5.17735 33.45078,-3.18664 37.18657,-3.06222 41.63545,1.38663 6.74393,6.74396 1.73406,12.03868 -12.22792,12.92316 -6.06421,0.38414 -22.12434,1.9504 -35.68915,3.48054 -32.76868,3.69642 -44.55541,3.53872 -48.74629,-0.65215 z m 51.64785,-31.62305 c -13.03954,-7.79076 -37.72034,-31.73833 -37.72034,-36.59973 0,-2.0548 -1.3057,-3.73602 -2.90156,-3.73602 -4.12133,0 -3.60108,-19.16777 0.72539,-26.72559 7.08713,-12.38042 39.88049,-42.91196 46.09095,-42.91196 6.11287,0 2.05073,14.13967 -5.46905,19.03699 -13.2643,8.63848 -32.64681,30.81824 -32.57807,37.27971 0.0354,3.3368 2.59159,9.3312 5.68025,13.32085 l 5.61575,7.25391 13.92562,-14.50782 c 7.65909,-7.97931 17.18071,-18.42494 21.1592,-23.21252 7.64646,-9.20153 20.95727,-18.86017 25.99169,-18.86017 4.93681,0 3.40054,10.34768 -2.30257,15.50889 -2.91842,2.64115 -6.19199,4.80206 -7.27463,4.80206 -2.91845,0 -42.54889,40.6399 -42.54889,43.63271 0,1.41144 2.85761,5.22854 6.35025,8.48244 6.5647,6.11595 19.76383,8.12923 19.76383,3.01458 0,-1.59586 1.89368,-2.90157 4.20817,-2.90157 2.31449,0 5.25233,-1.76835 6.52852,-3.92967 5.77925,-9.78753 22.78883,-27.98754 26.15691,-27.98754 2.05057,0 3.72831,3.26426 3.72831,7.25392 0,3.98965 -1.21773,7.25391 -2.70603,7.25391 -1.48833,0 -3.43693,2.28498 -4.33021,5.07774 -3.10911,9.72015 -30.08916,35.61539 -37.02187,35.53331 -0.50389,-0.006 -5.48611,-2.74125 -11.07162,-6.07843 z M 50.000038,850.93765 c 0.009,-2.79276 8.49706,-21.93824 18.86017,-42.54553 10.36315,-20.60726 18.84207,-39.21354 18.84207,-41.34729 0,-2.13373 2.94155,-3.87951 6.53676,-3.87951 4.79481,0 9.360702,4.44607 17.133642,16.68399 11.96962,18.84526 21.18856,30.86444 30.73392,40.06939 7.28824,7.02832 8.62673,17.26126 2.56223,19.58844 -4.01568,1.54096 -22.00767,-15.91015 -28.05717,-27.21372 -1.78484,-3.33503 -5.03245,-8.24538 -7.21692,-10.91191 -2.18444,-2.66651 -6.45491,-8.01006 -9.489902,-11.87457 l -5.5182,-7.02634 -7.8346,17.18182 c -22.7176,49.82131 -26.3579,56.35296 -31.40752,56.35296 -2.98928,0 -5.15495,-2.13761 -5.14448,-5.07773 z m 28.99754,-17.66902 c 0,-7.02069 11.62933,-12.07202 27.792462,-12.07202 8.93786,0 13.5389,1.37421 14.6959,4.38931 3.34013,8.70426 -4.60975,13.02008 -23.983482,13.02008 -16.03225,0 -18.50488,-0.71318 -18.50488,-5.33737 z"
       id="path3171"
       inkscape:connector-curvature="0" />
  </g>
</svg>
