<?xml version="1.0" encoding="UTF-8" standalone="no"?>
<!-- Created with Inkscape (http://www.inkscape.org/) -->

<svg
   xmlns:dc="http://purl.org/dc/elements/1.1/"
   xmlns:cc="http://creativecommons.org/ns#"
   xmlns:rdf="http://www.w3.org/1999/02/22-rdf-syntax-ns#"
   xmlns:svg="http://www.w3.org/2000/svg"
   xmlns="http://www.w3.org/2000/svg"
   xmlns:sodipodi="http://sodipodi.sourceforge.net/DTD/sodipodi-0.dtd"
   xmlns:inkscape="http://www.inkscape.org/namespaces/inkscape"
   width="300"
   height="300"
   id="svg2"
   version="1.1"
   inkscape:version="0.48.4 r9939"
   sodipodi:docname="image-seal.svg">
  <defs
     id="defs4" />
  <sodipodi:namedview
     id="base"
     pagecolor="#ffffff"
     bordercolor="#666666"
     borderopacity="1.0"
     inkscape:pageopacity="0.0"
     inkscape:pageshadow="2"
     inkscape:zoom="1.979899"
     inkscape:cx="154.88845"
     inkscape:cy="133.61981"
     inkscape:document-units="px"
     inkscape:current-layer="layer1"
     showgrid="false"
     inkscape:window-width="1215"
     inkscape:window-height="1000"
     inkscape:window-x="65"
     inkscape:window-y="24"
     inkscape:window-maximized="1" />
  <metadata
     id="metadata7">
    <rdf:RDF>
      <cc:Work
         rdf:about="">
        <dc:format>image/svg+xml</dc:format>
        <dc:type
           rdf:resource="http://purl.org/dc/dcmitype/StillImage" />
        <dc:title />
      </cc:Work>
    </rdf:RDF>
  </metadata>
  <g
     inkscape:label="Calque 1"
     inkscape:groupmode="layer"
     id="layer1"
     transform="translate(0,-752.36218)">
    <path
       style="fill:#000000"
       d="m 218.66178,1037.9968 c -2.07606,-2.0761 -4.79815,-3.7747 -6.0491,-3.7747 -3.5627,0 -20.77762,-20.7642 -22.33828,-26.9438 -2.16238,-8.56229 2.45802,-18.97621 10.36319,-23.35764 3.93401,-2.18039 8.28265,-5.75566 9.66365,-7.945 3.4077,-5.4023 0.41262,-12.21406 -5.3704,-12.21406 -6.15832,0 -13.05125,-7.74664 -13.05125,-14.66771 0,-3.00512 -1.1324,-5.46386 -2.51644,-5.46386 -1.38405,0 -2.51646,1.22493 -2.51646,2.72205 0,1.49713 -3.82238,7.44223 -8.49419,13.21134 -14.2605,17.60999 -16.67028,24.52013 -16.67028,47.80288 0,15.6019 -0.97904,22.0192 -3.70451,24.2811 -10.71067,8.8891 -15.59384,-22.6447 -7.39047,-47.72508 2.20202,-6.73229 7.86403,-16.7505 12.58224,-22.26266 8.74296,-10.21419 11.09339,-18.01964 5.43298,-18.04214 -5.36608,-0.0227 -16.90961,-11.02253 -17.7422,-16.90866 -0.43546,-3.07844 -1.57586,-6.38128 -2.53422,-7.33964 -0.95837,-0.95837 -1.74249,-10.61295 -1.74249,-21.45465 0,-17.1362 0.5786,-19.71216 4.42758,-19.71216 2.43518,0 5.84196,2.26479 7.57067,5.0329 3.70332,5.92995 13.7457,6.62426 18.19911,1.25822 2.49931,-3.01149 2.49931,-4.53786 0,-7.54934 -1.72297,-2.07607 -4.69262,-3.77468 -6.59924,-3.77468 -1.9066,0 -3.46655,-1.13239 -3.46655,-2.51645 0,-1.38403 -2.28144,-2.51644 -5.06986,-2.51644 -7.20722,0 -15.04088,-14.07854 -15.0523,-27.0518 -0.005,-5.8822 -1.09033,-10.69491 -2.41147,-10.69491 -3.61303,0 -14.59762,-11.71172 -16.44563,-17.53426 -0.89266,-2.81256 -2.66492,-5.11375 -3.93834,-5.11375 -1.27339,0 -5.17472,-4.52961 -8.66956,-10.0658 -7.46958,-11.83258 -11.69562,-12.63968 -16.470101,-3.14556 -1.91406,3.80612 -5.502615,9.92606 -7.97457,13.59982 -2.471956,3.67376 -4.494463,7.30447 -4.494463,8.06821 0,0.76374 8.209921,1.72132 18.244224,2.12797 14.21089,0.57591 18.24425,1.57383 18.24425,4.51403 0,4.72095 -27.769023,8.3271 -34.890873,4.53098 -3.781059,-2.01536 -6.074037,-0.99026 -11.794669,5.27302 -4.477643,4.90239 -8.554242,7.21717 -11.034279,6.2655 -5.508012,-2.11361 -4.971873,-4.84536 3.314811,-16.88963 3.986363,-5.794 9.773077,-15.90654 12.859363,-22.47232 3.086288,-6.56579 6.619124,-11.93781 7.850744,-11.93781 1.231625,0 2.239311,-2.09581 2.239311,-4.65738 0,-7.45505 5.274347,-20.50709 8.286937,-20.50709 3.945785,0 16.877535,12.89357 16.877535,16.82771 0,1.81713 1.00017,3.30388 2.22255,3.30388 1.22239,0 6.0351,5.06595 10.6949,11.25766 5.0139,6.66223 9.89319,10.7509 11.953,10.0162 1.91433,-0.68281 22.01446,-1.85682 44.66694,-2.6089 36.25449,-1.20365 41.18628,-0.89639 41.18628,2.56604 0,3.95724 -1.16581,4.41836 -12.4357,4.91883 -5.40542,0.24006 -6.23485,1.58644 -6.89501,11.19283 -0.57252,8.33047 -2.54665,12.59783 -8.32499,17.99563 -4.66355,4.3564 -7.57456,9.58898 -7.57456,13.61539 0,7.91957 3.56435,8.38146 9.46132,1.22602 2.40854,-2.92255 5.71281,-6.72322 7.34284,-8.44596 1.63002,-1.72272 3.73775,-7.25839 4.68384,-12.30142 3.30406,-17.61213 11.95382,-8.86401 11.66864,11.80133 -0.19024,13.79197 -7.11983,22.29716 -21.46798,26.34964 -8.46094,2.3897 -11.68866,4.57636 -11.68866,7.91873 0,8.52041 16.28404,10.7977 18.87335,2.6394 2.96577,-9.34426 9.63561,-5.05136 13.79323,8.87775 5.50574,18.44566 -3.44754,49.00053 -14.35825,49.00053 -5.64848,0 -2.71903,10.81686 3.80714,14.05767 7.85112,3.89874 12.93872,11.13037 13.03476,18.5279 0.0547,4.21382 -3.9567,9.95279 -12.68397,18.14636 l -12.76399,11.98344 8.71924,8.7192 c 4.79556,4.7956 11.87521,12.857 15.73254,17.9142 5.77991,7.5779 6.38064,9.5954 3.41568,11.4717 -4.94611,3.1301 -6.43235,2.9344 -10.78754,-1.4208 z M 203.83271,925.38933 c 6.9917,-5.57263 3.46203,-9.46342 -7.54933,-8.32163 -5.8822,0.60994 -15.60198,1.17398 -21.59951,1.25342 -12.08263,0.16003 -13.22814,4.16786 -2.73713,9.57645 6.59369,3.39936 26.43197,1.83883 31.88597,-2.50824 z m 4.19598,-22.06629 c 3.56725,-3.56723 1.46815,-4.45675 -12.37443,-5.24389 -22.83044,-1.29822 -36.9875,0.0145 -35.8825,3.33098 0.56396,1.6919 3.77243,3.86024 7.12994,4.81858 7.99865,2.28304 38.06231,0.15906 41.12699,-2.90567 z m -31.70973,-53.45217 c 0.43795,-3.7943 -0.28233,-6.89872 -1.60061,-6.89872 -3.43468,0 -10.51967,-15.93322 -10.51967,-23.65745 0,-5.79656 -1.00109,-6.53992 -8.80756,-6.53992 -4.84414,0 -8.80757,0.64064 -8.80757,1.42367 0,2.44472 5.67339,12.15855 9.10616,15.59131 1.80311,1.80311 4.03672,7.4885 4.96357,12.63418 0.92687,5.14569 2.84892,10.81984 4.27122,12.60926 4.16128,5.2353 10.52725,2.35114 11.39446,-5.16233 z m 15.56063,-28.19999 c 0,-5.81301 -6.09224,-11.41254 -12.41678,-11.41254 -2.91071,0 -3.74243,13.19932 -1.00426,15.93748 0.9227,0.92272 4.3199,1.67765 7.54935,1.67765 4.56317,0 5.87169,-1.38226 5.87169,-6.20259 z M 63.916055,1005.0217 c -4.833102,-5.46588 -2.544241,-6.57625 13.169018,-6.38858 10.986708,0.13107 14.128935,-0.72707 15.162238,-4.14164 1.281048,-4.2333 2.240795,-64.61159 1.356667,-85.35011 l -0.451149,-10.58241 -15.409851,-0.74161 c -12.320917,-0.59294 -15.578012,-1.62433 -16.248753,-5.14537 -0.724411,-3.80276 1.24692,-4.40379 14.444298,-4.40379 l 15.283185,0 0,-15.87593 c 0,-8.89068 1.384021,-17.63517 3.145558,-19.87425 4.338833,-5.51509 31.318674,-7.62248 33.247154,-2.59697 2.06701,5.38658 -0.70634,8.14552 -8.23117,8.18832 -11.03143,0.0627 -14.18859,3.58294 -13.72139,15.29896 0.23252,5.82869 1.32599,11.501 2.43011,12.60515 1.10414,1.10411 6.50754,0.99258 12.00753,-0.24789 10.89662,-2.45758 14.17195,-0.33214 12.04168,7.81408 -0.99362,3.79953 -3.58762,4.75432 -12.91675,4.75432 l -11.67345,0 -0.36184,47.8125 c -0.26022,34.38415 0.45042,47.90368 2.53027,48.13724 1.59067,0.17866 8.11436,0.086 14.4971,-0.20559 12.08277,-0.55222 16.33797,3.05678 13.21127,11.20487 -2.14987,5.6025 -68.535415,5.3666 -73.511725,-0.2613 z m 10.94876,-56.99632 c 0,-35.02304 0.541107,-40.76788 3.774669,-40.07497 6.825182,1.46254 7.532011,4.19293 7.964582,30.76607 0.76596,47.05359 0.383758,50.21078 -6.077245,50.20117 -5.639029,-0.008 -5.662006,-0.17439 -5.662006,-40.89227 z m 42.310075,37.75514 c -2.6998,-4.1942 -3.17166,-76.04185 -0.5275,-80.31857 1.69958,-2.74895 2.74585,-2.67301 5.80524,0.42137 3.42242,3.46155 5.14007,33.2388 4.31845,74.8643 -0.16684,8.45776 -5.56817,11.29054 -9.59619,5.0329 z m 35.65617,-200.75721 c -0.9452,-1.52941 -1.11972,-3.37959 -0.38779,-4.11153 0.73193,-0.73193 14.03851,-2.3523 29.57016,-3.60081 29.31838,-2.35672 38.3617,-0.52115 32.46096,6.58882 -3.46021,4.1693 -59.1338,5.18401 -61.64333,1.12352 z"
       id="path3067"
       inkscape:connector-curvature="0" />
  </g>
</svg>
