<?xml version="1.0" encoding="UTF-8" standalone="no"?>
<!-- Created with Inkscape (http://www.inkscape.org/) -->

<svg
   xmlns:dc="http://purl.org/dc/elements/1.1/"
   xmlns:cc="http://creativecommons.org/ns#"
   xmlns:rdf="http://www.w3.org/1999/02/22-rdf-syntax-ns#"
   xmlns:svg="http://www.w3.org/2000/svg"
   xmlns="http://www.w3.org/2000/svg"
   xmlns:sodipodi="http://sodipodi.sourceforge.net/DTD/sodipodi-0.dtd"
   xmlns:inkscape="http://www.inkscape.org/namespaces/inkscape"
   width="300"
   height="300"
   id="svg2"
   version="1.1"
   inkscape:version="0.91 r13725"
   sodipodi:docname="image-seal.svg">
  <defs
     id="defs4" />
  <sodipodi:namedview
     id="base"
     pagecolor="#ffffff"
     bordercolor="#666666"
     borderopacity="1.0"
     inkscape:pageopacity="0.0"
     inkscape:pageshadow="2"
     inkscape:zoom="2.7366667"
     inkscape:cx="150"
     inkscape:cy="150"
     inkscape:document-units="px"
     inkscape:current-layer="layer1"
     showgrid="false"
     inkscape:window-width="1231"
     inkscape:window-height="1000"
     inkscape:window-x="49"
     inkscape:window-y="24"
     inkscape:window-maximized="1"
     showguides="true"
     inkscape:guide-bbox="true" />
  <metadata
     id="metadata7">
    <rdf:RDF>
      <cc:Work
         rdf:about="">
        <dc:format>image/svg+xml</dc:format>
        <dc:type
           rdf:resource="http://purl.org/dc/dcmitype/StillImage" />
        <dc:title />
      </cc:Work>
    </rdf:RDF>
  </metadata>
  <g
     inkscape:label="Calque 1"
     inkscape:groupmode="layer"
     id="layer1"
     transform="translate(0,-752.36218)">
    <path
       style="fill:#000000"
       d="m 149.83517,1045.3121 c -0.1906,-1.12 -0.88667,-5.091 -1.54682,-8.8244 -0.66017,-3.7334 -1.85923,-17.0573 -2.66456,-29.6087 -2.43195,-37.90196 5.30458,-53.65889 29.37507,-59.82799 10.9321,-2.80181 13.00179,-4.13031 9.49345,-6.09367 -2.46754,-1.38089 -5.68506,-1.76993 -7.15007,-0.86452 -5.97455,3.69248 -21.35187,-7.25018 -26.96286,-19.18707 -12.3723,-26.32093 -2.62978,-46.90177 24.86415,-52.52487 10.88613,-2.22646 9.63722,-6.6391 -2.5676,-9.07164 -19.7826,-3.94285 -22.49424,-6.72107 -22.49424,-23.04662 0,-12.50828 0.70125,-14.5409 4.7516,-13.77277 2.98894,0.56682 5.09252,3.91415 5.67064,9.02347 0.50549,4.46732 2.18239,9.64969 3.72647,11.51639 3.98152,4.81345 21.14889,4.44269 21.14889,-0.45672 0,-7.46113 -3.35154,-12.44048 -8.37352,-12.44048 -5.69252,0 -12.05445,-8.45266 -14.81616,-19.6852 -1.61091,-6.55197 -3.13041,-7.4668 -12.40228,-7.4668 -10.77084,0 -13.25392,-2.59761 -7.17244,-7.50324 4.78021,-3.85596 44.86007,-8.78796 71.41522,-8.78796 17.8819,0 22.68688,0.85968 24.00508,4.29487 2.39926,6.25238 2.43613,6.20777 -7.1763,8.68278 -7.86515,2.02516 -8.91281,3.43557 -9.63757,12.97485 -0.71913,9.4646 -2.05405,11.30289 -11.53961,15.89112 -10.94016,5.29182 -12.51324,8.14886 -8.22043,14.93007 2.02288,3.19544 3.80897,3.25314 10.81923,0.34939 4.61802,-1.91285 8.39638,-4.91883 8.39638,-6.67999 0,-6.93288 7.04204,-17.81945 11.5396,-17.83951 3.78382,-0.0163 4.75092,2.32912 4.74829,11.51842 -0.005,15.11948 -8.50762,25.33328 -23.00939,27.63797 -12.13939,1.92926 -13.52271,2.78139 -11.03895,6.80019 0.98434,1.59271 6.33312,2.89584 11.88614,2.89584 5.55302,0 12.71846,1.83656 15.92316,4.08122 11.62676,8.1437 14.13305,30.4627 5.5389,49.32481 -3.34801,7.34807 -20.07459,17.18918 -29.21583,17.18918 -3.13434,0 -4.94367,1.22184 -4.02072,2.7152 0.92295,1.49336 5.72883,2.7152 10.67975,2.7152 6.40147,0 11.73941,2.549 18.47941,8.8244 10.38189,9.66627 11.35575,14.28184 14.60886,69.23758 1.39966,23.645 1.17492,25.1156 -3.83818,25.1156 -9.12581,0 -10.81904,-5.7488 -11.99594,-40.728 -1.34028,-39.83457 -3.69243,-46.15838 -17.16862,-46.15838 -7.59754,0 -9.40768,1.04486 -9.40768,5.4304 0,4.13745 1.81014,5.4304 7.60256,5.4304 4.18141,0 8.97328,1.37071 10.64861,3.04605 5.23971,5.23974 0.69881,10.52995 -9.03847,10.52995 -5.067,0 -9.2127,1.12192 -9.2127,2.49312 0,1.37123 -0.81575,4.61894 -1.81278,7.21714 -1.56061,4.06695 -0.52208,4.52605 7.4668,3.30055 11.81224,-1.81191 16.06758,-0.2397 16.06758,5.93667 0,5.5977 -9.97176,7.2561 -42.0856,6.999 -15.01685,-0.1203 -19.0064,-1.007 -19.0064,-4.2249 0,-2.7152 3.62026,-4.5253 10.8608,-5.4304 9.16353,-1.1454 10.98608,-2.43137 11.66249,-8.22904 0.7602,-6.5157 0.22074,-6.81608 -10.41738,-5.80157 -13.88852,1.32447 -17.54967,-1.81017 -11.76315,-10.07158 2.91605,-4.16324 6.14953,-5.76564 9.73992,-4.82673 7.69219,2.01156 12.99652,-0.70627 12.99652,-6.65916 0,-6.38762 -6.30057,-6.45493 -19.0064,-0.2031 l -9.5032,4.67604 -0.1898,35.24274 c -0.10426,19.3835 -0.4098,36.77 -0.6788,38.6367 -0.52007,3.6092 -8.39548,4.7996 -8.98117,1.3576 z m 38.35932,-126.77533 c 0,-11.26811 -0.90748,-11.86755 -15.6124,-10.31299 -8.94862,0.94601 -11.5396,2.34062 -11.5396,6.21116 0,6.52544 10.09253,13.44478 19.61056,13.44478 6.78401,0 7.54144,-0.93835 7.54144,-9.34295 z m 32.07042,-1.62361 c 10.36547,-9.65691 7.03541,-14.18744 -8.56711,-11.65551 -7.93378,1.28749 -9.92731,2.81188 -9.92731,7.59121 0,11.15496 8.80624,13.09019 18.49442,4.0643 z m -42.08875,-19.08859 c 9.06445,-2.5171 10.24136,-3.77619 9.5032,-10.16688 -0.74407,-6.44206 -1.93132,-7.24089 -10.16481,-6.83948 -10.92684,0.53275 -20.75285,10.67867 -15.94841,16.46766 3.44233,4.14777 3.59525,4.15274 16.61002,0.5387 z m 44.54845,-6.9637 c 1.44085,-4.39263 -6.79883,-11.85476 -13.08995,-11.85476 -5.22869,0 -11.24356,10.01494 -8.65074,14.40368 1.90678,3.22745 20.56346,1.04011 21.74069,-2.54892 z m -25.52722,-74.71083 c 6.04452,-3.18159 9.88726,-7.47611 9.96193,-11.13313 0.0217,-1.12002 -7.28947,-2.0364 -16.24963,-2.0364 -17.31201,0 -19.84589,2.43255 -11.79757,11.3258 5.20132,5.7474 9.78175,6.21436 18.08527,1.84373 z M 54.470881,1018.6541 c -6.94081,-7.0822 1.2441,-12.2209 21.63689,-13.5842 6.32652,-0.423 12.76983,-1.5521 14.31844,-2.5092 1.7266,-1.0671 2.30999,-9.28284 1.5083,-21.24058 -0.71907,-10.72523 -2.04088,-31.52733 -2.93733,-46.2269 -0.89648,-14.69958 -2.28949,-28.44528 -3.0956,-30.54601 -1.05043,-2.73733 -6.43734,-3.8195 -19.01284,-3.8195 -16.64399,0 -17.50248,-0.31444 -16.6795,-6.1092 0.74926,-5.27563 3.18314,-6.43874 17.83764,-8.5245 l 16.97,-2.41528 0,-15.72742 c 0,-14.26077 0.73541,-16.25107 7.88595,-21.34272 14.689579,-10.4599 42.382239,-4.89211 32.842049,6.60312 -1.85907,2.24004 -6.59057,4.09151 -10.51447,4.11437 -11.32518,0.066 -14.38902,3.49036 -13.43142,15.01199 l 0.86669,10.42803 13.04209,0.23052 c 12.62934,0.22319 19.27425,4.43894 17.24896,10.94304 -0.46503,1.49336 -7.47074,3.32612 -15.56828,4.0728 l -14.72277,1.3576 0.0391,39.3704 c 0.0217,21.65372 1.01266,45.17415 2.20276,52.26761 l 2.1638,12.89713 13.40961,0 c 11.5995,0 13.40964,0.7331 13.40964,5.4304 0,3.2283 -1.92684,5.5724 -4.7516,5.7806 -2.61338,0.1925 -7.8062,0.8018 -11.5396,1.3539 -17.0407,2.5199 -61.298599,4.0511 -63.128399,2.184 z m 10.58993,-24.94954 c -2.76717,-4.47739 -2.79207,-76.74519 -0.0274,-79.50986 5.37743,-5.37743 8.63224,3.8066 10.14247,28.61862 0.81806,13.44024 2.26798,28.2585 3.22204,32.92948 0.95885,4.69439 0.35545,11.06977 -1.34913,14.2548 -3.04637,5.69223 -9.52323,7.69503 -11.98798,3.70696 z m 55.984039,-6.73576 c -1.48796,-1.88511 -2.72232,-8.92576 -2.74301,-15.64588 -0.0217,-6.72012 -0.74342,-21.39871 -1.60601,-32.61906 -1.74645,-22.71702 0.7958,-31.25882 7.26205,-24.40014 5.50305,5.83705 8.40283,68.94645 3.36027,73.13141 -2.6067,2.16339 -4.29683,2.03773 -6.2733,-0.46633 z M 51.228311,827.66233 c -1.54615,-2.5017 0.84774,-11.32947 3.74795,-13.82102 0.86914,-0.74668 6.30934,-9.29956 12.08929,-19.0064 24.31992,-40.84275 26.3148,-42.59772 36.264919,-31.9036 9.83693,10.57241 38.65886,52.10852 38.68275,55.74683 0.0424,6.43253 -8.27392,6.82854 -14.79271,0.70446 -5.19086,-4.87656 -7.4299,-5.45199 -11.90175,-3.05873 -3.02943,1.6213 -12.91944,2.94784 -21.977779,2.94784 -12.82959,0 -16.4697,-0.90017 -16.4697,-4.0728 0,-6.88882 -4.69925,-4.53919 -10.8608,5.4304 -5.70583,9.23225 -11.66941,12.06958 -14.78217,7.03302 z M 99.5842,802.98051 c 6.32422,0 12.96481,1.46621 14.75684,3.25824 5.94844,5.94843 3.37266,-0.75589 -4.92249,-12.81249 -10.45344,-15.19358 -12.92881,-16.58221 -18.574219,-10.41971 -6.01822,6.56942 -16.68825,21.73534 -16.68825,23.7199 0,0.85252 3.13416,0.35846 6.96476,-1.09794 3.83061,-1.45641 12.13912,-2.648 18.463359,-2.648 z m 48.56109,-23.50256 c -4.4796,-1.83034 -4.29627,-5.85028 0.48485,-10.63139 2.96494,-2.96495 12.21859,-3.87885 39.27488,-3.87885 32.70399,0 35.61868,0.41607 38.32383,5.47069 3.30836,6.1817 0.63297,8.05309 -10.88236,7.61204 -3.7334,-0.1431 -19.61732,0.43174 -35.2976,1.27714 -15.68028,0.84541 -30.0369,0.9131 -31.9036,0.15043 z"
       id="path4623"
       inkscape:connector-curvature="0" />
  </g>
</svg>
