<?xml version="1.0" encoding="UTF-8" standalone="no"?>
<svg
   xmlns:dc="http://purl.org/dc/elements/1.1/"
   xmlns:cc="http://creativecommons.org/ns#"
   xmlns:rdf="http://www.w3.org/1999/02/22-rdf-syntax-ns#"
   xmlns:svg="http://www.w3.org/2000/svg"
   xmlns="http://www.w3.org/2000/svg"
   viewBox="0 0 300 300"
   height="300"
   width="300"
   id="svg5439"
   version="1.1">
  <metadata
     id="metadata5445">
    <rdf:RDF>
      <cc:Work
         rdf:about="">
        <dc:format>image/svg+xml</dc:format>
        <dc:type
           rdf:resource="http://purl.org/dc/dcmitype/StillImage" />
        <dc:title></dc:title>
      </cc:Work>
    </rdf:RDF>
  </metadata>
  <defs
     id="defs5443" />
  <path
     id="path5449"
     d="m 59.842318,281.20437 c -1.128649,-3.5805 -1.131078,-4.23952 -0.04279,-11.62766 1.711641,-11.61973 3.824833,-36.76469 4.568128,-54.35635 0.360389,-8.52946 0.664273,-44.19812 0.675289,-79.26367 0.0205,-65.394936 0.227472,-71.390095 2.813693,-81.519325 2.285421,-8.951081 4.214695,-12.581733 7.941776,-14.945374 6.358384,-4.032368 11.202547,-4.798748 34.436156,-5.448035 l 15.77284,-0.440788 1.19498,-7.237119 c 2.0595,-12.47311 1.75691,-11.562884 3.71921,-11.187768 0.95924,0.18337 2.63785,1.227181 3.73025,2.319579 3.20306,3.20306 3.64356,7.141311 3.72869,33.33654 l 0.0762,23.434477 -2.0185,7.824647 -2.01851,7.824642 -3.49549,2.606189 c -3.89572,2.904595 -7.19124,4.697055 -10.34771,5.628195 -4.57028,1.3482 -20.47872,3.43132 -28.644101,3.75078 -4.738592,0.18539 -9.892474,0.49215 -11.453085,0.68169 l -2.837462,0.34462 -0.394975,57.35155 c -0.387678,56.29172 -0.817458,68.69596 -2.930365,84.57689 -0.580024,4.3595 -1.498128,13.57758 -2.040253,20.48461 -1.293021,16.47425 -2.212226,18.64003 -8.197534,19.31466 L 61.038805,285 Z M 105.82978,90.089768 c 7.81235,-1.111759 13.62418,-3.004307 17.46347,-5.686741 2.57644,-1.800133 2.81999,-2.267286 3.71901,-7.133858 0.99305,-5.375579 0.72507,-8.464656 -0.78376,-9.034494 -0.66656,-0.25174 -32.715387,4.712238 -47.908771,7.420493 l -2.240056,0.399296 v 7.508905 7.508903 l 2.584684,0.226604 c 4.910973,0.430561 20.527903,-0.264533 27.165423,-1.209108 z m -2.18014,-30.179284 23.7791,-4.337247 0.20312,-4.184811 c 0.32928,-6.783702 0.70549,-6.651912 -17.74116,-6.214825 -16.89767,0.400384 -20.183101,0.957252 -26.41298,4.476903 -3.60036,2.034075 -3.602893,2.037963 -4.424005,6.778939 -1.078016,6.224331 -1.087296,7.848159 -0.04469,7.831803 0.473854,-0.0074 11.562157,-1.965278 24.640655,-4.350762 z M 231.21595,278.70879 c -0.8094,-3.44761 -2.07745,-12.0364 -2.81789,-19.08619 -0.74044,-7.04978 -1.80238,-16.59005 -2.35986,-21.20058 -2.30358,-19.05118 -2.55148,-27.64489 -2.35927,-81.78785 l 0.19207,-54.10607 -1.86178,-0.89565 c -1.23313,-0.59323 -7.27518,-1.09348 -17.89416,-1.48154 -19.04342,-0.69593 -20.90105,-1.17941 -29.70631,-7.731666 -6.49271,-4.83143 -7.21262,-6.018918 -9.15807,-15.106145 -1.5527,-7.252782 -0.85157,-24.967243 1.73493,-43.833664 1.10071,-8.028881 2.22862,-14.965771 2.50646,-15.41531 0.79947,-1.29358 6.43997,-0.364182 8.14646,1.342313 1.29253,1.292534 1.44089,2.125879 1.27125,7.140769 -0.13027,3.850719 0.0948,6.049539 0.69954,6.833866 1.36014,1.764066 11.67448,2.728794 23.45283,2.193605 8.97381,-0.407755 10.42521,-0.307605 14.80019,1.021252 9.60252,2.916676 13.54947,7.086033 16.92314,17.876713 1.44201,4.612273 1.44761,4.993749 1.26659,86.308787 -0.17692,79.47431 -0.14381,81.9083 1.22807,90.29167 3.21913,19.67163 4.57542,40.84076 3.19052,49.79826 -0.43158,2.79138 -0.73592,3.27393 -2.06488,3.27393 -0.85729,0 -2.4946,0.18718 -3.63845,0.41594 l -2.07973,0.41596 z m -9.10159,-188.673335 2.15391,-0.430781 v -7.495586 c 0,-4.122572 -0.12302,-7.495587 -0.27338,-7.495587 -0.98795,0 -43.88248,-4.856645 -45.46708,-5.147916 l -1.97312,-0.362689 0.26391,4.650738 c 0.16322,2.876329 0.80258,5.702624 1.67577,7.407736 1.29284,2.524562 1.89078,2.918902 7.09218,4.677405 10.63438,3.595289 28.99024,5.704193 36.52781,4.19668 z m 1.46466,-27.687303 c 0,-0.30146 -0.86881,-3.170461 -1.93068,-6.375556 -1.83847,-5.549145 -2.07735,-5.901146 -5.002,-7.370717 -4.48948,-2.255862 -9.03539,-2.827927 -24.51374,-3.084855 l -13.87056,-0.230239 -0.36109,6.220054 c -0.1986,3.42103 -0.23644,6.350479 -0.0841,6.509886 0.15235,0.159407 10.27854,1.288218 22.50265,2.50847 12.22411,1.220251 22.45827,2.252936 22.74258,2.294854 0.28431,0.04192 0.51694,-0.170435 0.51694,-0.471897 z M 106.21507,275.06678 c -1.66922,-0.60911 -1.86916,-0.97768 -1.55954,-2.87489 0.19533,-1.19691 1.27311,-11.79124 2.39509,-23.54294 2.67556,-28.02427 4.13838,-77.34821 2.33459,-78.71846 -1.78147,-1.35327 -6.92793,-1.80677 -11.068042,-0.97531 -5.569828,1.11858 -10.612902,0.97776 -12.507456,-0.34923 -1.795541,-1.25765 -3.526795,-4.87295 -3.526795,-7.36484 0,-1.26497 0.670668,-1.94071 2.929312,-2.95145 2.496231,-1.11706 4.304951,-1.2828 12.234173,-1.12101 13.768928,0.28094 12.406478,1.70354 12.406478,-12.9541 0,-9.42425 -0.2064,-12.40725 -0.86156,-12.45135 -0.47386,-0.0319 -5.58709,-0.26712 -11.362745,-0.52274 -9.989629,-0.4421 -10.582376,-0.54839 -12.168018,-2.18206 -0.916766,-0.94454 -1.867549,-2.68536 -2.11286,-3.86851 -0.401522,-1.93657 -0.197896,-2.29758 2.040993,-3.61856 2.423462,-1.42987 3.178798,-1.46737 29.55614,-1.46737 h 27.06914 l 3.31027,1.67587 3.31025,1.67587 2.03091,-1.50357 c 1.83447,-1.35812 3.00892,-1.523 12.14235,-1.70454 14.62921,-0.29079 48.21178,0.80616 49.0064,1.60078 0.37057,0.37056 0.76549,2.06818 0.87763,3.77248 l 0.20388,3.09872 -3.44625,1.18844 c -2.80677,0.96791 -4.98102,1.11994 -11.71724,0.81932 -4.88803,-0.21814 -8.67053,-0.0946 -9.24782,0.30198 -0.73886,0.50761 -1.13366,3.71923 -1.62058,13.18308 -0.35407,6.8816 -0.43111,12.72431 -0.1712,12.98382 0.25992,0.25951 5.17636,0.49252 10.92545,0.51781 8.27926,0.0364 10.89851,0.28048 12.59586,1.17369 2.25956,1.18904 4.14095,4.60421 3.48218,6.32095 -0.65139,1.69747 -7.47371,3.1938 -17.36735,3.80915 -5.15956,0.3209 -9.55173,0.75417 -9.76036,0.96281 -0.20865,0.20864 -0.0495,11.79112 0.35369,25.73886 0.57757,19.98108 1.26487,30.67628 3.24063,50.42841 1.37918,13.78789 2.32761,25.78601 2.10763,26.66247 -0.4958,1.97543 -2.3937,2.62427 -5.92907,2.02697 -3.12557,-0.52806 -3.09238,-0.44913 -5.9396,-14.12651 -1.30381,-6.26325 -1.86053,-12.33724 -2.65331,-28.94848 -0.5518,-11.56215 -1.4764,-24.56925 -2.05464,-28.90465 -0.60731,-4.55323 -1.05136,-13.05809 -1.05136,-20.13629 0,-14.91299 0.6786,-14.07574 -10.90537,-13.45493 -10.45053,0.56005 -11.81041,-0.11112 -11.82931,-5.83838 -0.008,-2.41562 0.28517,-3.31545 1.19563,-3.67029 0.6634,-0.25856 5.65808,-0.73736 11.09927,-1.06402 5.44118,-0.32665 9.98025,-0.69107 10.08681,-0.80983 0.10656,-0.11875 0.41772,-6.01724 0.69147,-13.10775 l 0.49771,-12.89186 -1.8408,-0.46201 c -1.01243,-0.2541 -5.18714,-0.24512 -9.27714,0.02 -7.75799,0.50282 -11.00246,-0.15296 -13.94882,-2.81939 -1.08773,-0.98438 -1.52597,-0.91418 -5.04675,0.80838 -3.61914,1.77067 -4.18169,1.8516 -9.17282,1.31945 -6.41175,-0.68361 -8.86605,-0.70294 -11.28607,-0.0889 -2.01932,0.51239 -1.83925,-0.58332 -3.03448,18.46534 l -0.41555,6.62262 2.21091,0.44219 c 1.21601,0.24319 5.50639,0.45969 9.53419,0.48107 4.0278,0.0213 8.4052,0.40911 9.72756,0.86157 2.90694,0.99464 4.44347,3.74683 3.77952,6.76974 -0.68708,3.12831 -3.77649,4.11723 -14.59184,4.67084 -5.01004,0.25646 -9.25025,0.60872 -9.42269,0.7828 -0.17243,0.17409 -0.96,14.58397 -1.75016,32.02199 -1.56623,34.56522 -4.26319,61.76495 -6.74972,68.07313 -2.28085,5.78638 -3.7602,6.75306 -7.9788,5.21365 z"
     style="fill:#000000;stroke-width:0.68924934" />
</svg>
