<?xml version="1.0" encoding="UTF-8" standalone="no"?>
<!-- Created with Inkscape (http://www.inkscape.org/) -->

<svg
   xmlns:dc="http://purl.org/dc/elements/1.1/"
   xmlns:cc="http://creativecommons.org/ns#"
   xmlns:rdf="http://www.w3.org/1999/02/22-rdf-syntax-ns#"
   xmlns:svg="http://www.w3.org/2000/svg"
   xmlns="http://www.w3.org/2000/svg"
   xmlns:sodipodi="http://sodipodi.sourceforge.net/DTD/sodipodi-0.dtd"
   xmlns:inkscape="http://www.inkscape.org/namespaces/inkscape"
   width="300"
   height="300"
   viewBox="0 0 300 300"
   id="svg2"
   version="1.1"
   inkscape:version="0.91 r13725"
   sodipodi:docname="間-seal.svg">
  <defs
     id="defs4" />
  <sodipodi:namedview
     id="base"
     pagecolor="#ffffff"
     bordercolor="#666666"
     borderopacity="1.0"
     inkscape:pageopacity="0.0"
     inkscape:pageshadow="2"
     inkscape:zoom="1.01"
     inkscape:cx="163.14457"
     inkscape:cy="147.29765"
     inkscape:document-units="px"
     inkscape:current-layer="layer1"
     showgrid="false"
     units="px"
     inkscape:window-width="861"
     inkscape:window-height="648"
     inkscape:window-x="124"
     inkscape:window-y="8"
     inkscape:window-maximized="0" />
  <metadata
     id="metadata7">
    <rdf:RDF>
      <cc:Work
         rdf:about="">
        <dc:format>image/svg+xml</dc:format>
        <dc:type
           rdf:resource="http://purl.org/dc/dcmitype/StillImage" />
        <dc:title></dc:title>
      </cc:Work>
    </rdf:RDF>
  </metadata>
  <g
     inkscape:label="Layer 1"
     inkscape:groupmode="layer"
     id="layer1"
     transform="translate(0,-752.36216)">
    <path
       style="fill:#000000"
       d="m 154.11258,1033.988 c -1.88867,-2.2757 -3.10492,-12.0698 -3.17154,-25.5396 -0.0888,-17.96341 0.90419,-23.84196 5.58478,-33.06076 3.13106,-6.16688 6.51284,-11.77312 7.51506,-12.45833 1.00223,-0.68521 4.06377,-5.73084 6.80341,-11.2125 18.84753,-37.71142 1.04882,-74.28825 -33.58884,-69.02596 -6.72536,1.02174 -7.34466,4.60089 -1.13699,6.57113 5.50034,1.74574 21.14666,16.2904 26.79082,24.90448 4.56339,6.9646 3.38772,13.87951 -2.35979,13.87951 -2.00629,0 -4.35345,-2.22331 -5.21591,-4.94068 -1.87742,-5.91523 -18.28296,-23.36145 -24.00368,-25.52635 -10.86969,-4.11342 -13.45754,14.93905 -2.96311,21.81526 13.41154,8.78758 28.19909,26.80909 28.19909,34.36611 0,5.55134 -0.9069,6.86248 -3.94129,5.69808 -2.16771,-0.83183 -4.41021,-1.51242 -4.98333,-1.51242 -0.57313,0 -1.04205,-1.91974 -1.04205,-4.2661 0,-4.36818 -19.213,-25.6339 -23.15953,-25.6339 -1.20374,0 -1.97552,8.68969 -1.71508,19.31042 0.6522,26.59623 0.74188,26.13448 -4.5281,23.31407 -6.75644,-3.61594 -12.37494,-50.24627 -8.05298,-66.83518 1.70784,-6.55516 3.57919,-13.74748 4.15856,-15.98293 0.57936,-2.23546 2.98229,-6.26413 5.33984,-8.95262 11.4215,-13.0248 30.98717,-14.47343 48.02573,-3.55579 20.25021,12.97553 25.48656,22.91855 25.03745,47.54229 -0.29232,16.02715 -1.40758,20.58185 -7.41628,30.28787 -3.88971,6.28318 -10.70382,18.80081 -15.14246,27.81696 -7.2852,14.79835 -7.96161,18.04985 -6.95351,33.42604 1.49747,22.8403 -0.78295,28.3637 -8.08027,19.5709 z m 65.6261,-0.7096 c -1.9227,-1.2306 -3.30967,-18.9323 -4.24305,-54.15326 -0.76265,-28.77875 -2.17017,-66.03874 -3.12782,-82.79997 -1.606,-28.10878 -2.14714,-30.58221 -6.96946,-31.85598 -29.40722,-7.76764 -32.75233,-9.12685 -41.83369,-16.99814 -10.62591,-9.21004 -11.98212,-14.59565 -11.98212,-47.58211 0,-29.64852 0.26439,-31.30963 4.98334,-31.30963 3.87593,0 4.98334,1.66111 4.98334,7.475 0,8.07605 0.48199,8.26355 19.3233,7.51708 20.27555,-0.80329 37.78782,8.83856 41.2728,22.72383 0.87627,3.49135 2.23086,37.63949 3.0102,75.88475 0.77934,38.24526 2.38651,84.95689 3.5715,103.80361 2.6071,41.46482 0.36176,53.27932 -8.98834,47.29482 z M 209.17501,848.93556 c 2.19654,-14.44833 1.91107,-15.28485 -6.05043,-17.72952 -12.68727,-3.89578 -36.59203,-4.94907 -36.59203,-1.61231 0,3.45042 8.92457,11.35345 17.4763,15.47589 10.35068,4.98964 24.66112,7.18796 25.16616,3.86594 z m -0.2841,-32.01511 c 0,-0.8207 -1.76992,-5.22202 -3.93316,-9.78071 -4.12726,-8.69755 -10.10659,-10.90096 -31.58424,-11.63895 -11.74552,-0.40358 -12.60373,0.52042 -9.95988,10.72337 1.47594,5.69585 4.05534,8.82355 8.23996,9.99153 7.6842,2.14476 37.23732,2.70409 37.23732,0.70476 z M 74.966412,1027.0897 c -2.77226,-3.4868 -6.30929,-203.17375 -3.9076,-220.60719 0.96016,-6.96959 3.14766,-11.58112 6.2917,-13.26376 6.66423,-3.56659 30.818618,-9.68944 38.224408,-9.68944 5.07492,0 6.10761,-1.21881 6.10761,-7.20842 0,-7.8123 6.4072,-12.2957 11.00623,-7.70154 3.2032,3.1998 5.13992,43.09835 2.83737,58.45287 -0.88891,5.92764 -3.52642,12.88026 -5.86115,15.45029 -9.32573,10.2656 -30.461198,20.62377 -42.242888,20.70262 l -5.60625,0.0375 0.20901,49.21042 c 0.11495,27.06573 1.02285,62.10479 2.01755,77.86458 2.17711,34.49357 -0.91538,47.01627 -9.07599,36.75207 z M 104.53298,842.55652 c 10.28779,-4.87926 17.14955,-13.8626 17.14955,-22.45203 0,-2.45296 -9.43239,-2.08048 -10.98632,0.43384 -0.72257,1.16913 -7.51624,4.07661 -15.097058,6.46107 -13.67734,4.30205 -13.78331,4.41152 -13.78331,14.23805 0,9.07162 0.47049,9.77145 5.60625,8.33906 3.08344,-0.85998 10.78334,-4.01898 17.110888,-7.01999 z m -2.44701,-30.80731 c 16.11075,-5.02793 19.59656,-7.44263 19.59656,-13.575 0,-5.65225 -0.6798,-5.68765 -16.87359,-0.87861 -13.495108,4.00761 -20.501428,9.15633 -20.501428,15.06585 0,4.51867 1.50366,4.46689 17.778458,-0.61224 z"
       id="path3486"
       inkscape:connector-curvature="0" />
  </g>
</svg>
