<?xml version="1.0" encoding="UTF-8" standalone="no"?>
<!-- Created with Inkscape (http://www.inkscape.org/) -->

<svg
   xmlns:dc="http://purl.org/dc/elements/1.1/"
   xmlns:cc="http://creativecommons.org/ns#"
   xmlns:rdf="http://www.w3.org/1999/02/22-rdf-syntax-ns#"
   xmlns:svg="http://www.w3.org/2000/svg"
   xmlns="http://www.w3.org/2000/svg"
   xmlns:sodipodi="http://sodipodi.sourceforge.net/DTD/sodipodi-0.dtd"
   xmlns:inkscape="http://www.inkscape.org/namespaces/inkscape"
   width="300"
   height="300"
   id="svg2"
   version="1.1"
   inkscape:version="0.48.4 r9939"
   sodipodi:docname="dessin.svg">
  <defs
     id="defs4" />
  <sodipodi:namedview
     id="base"
     pagecolor="#ffffff"
     bordercolor="#666666"
     borderopacity="1.0"
     inkscape:pageopacity="0.0"
     inkscape:pageshadow="2"
     inkscape:zoom="1.979899"
     inkscape:cx="66.959549"
     inkscape:cy="133.99264"
     inkscape:document-units="px"
     inkscape:current-layer="layer1"
     showgrid="false"
     inkscape:window-width="1215"
     inkscape:window-height="1000"
     inkscape:window-x="65"
     inkscape:window-y="24"
     inkscape:window-maximized="1" />
  <metadata
     id="metadata7">
    <rdf:RDF>
      <cc:Work
         rdf:about="">
        <dc:format>image/svg+xml</dc:format>
        <dc:type
           rdf:resource="http://purl.org/dc/dcmitype/StillImage" />
        <dc:title />
      </cc:Work>
    </rdf:RDF>
  </metadata>
  <g
     inkscape:label="Calque 1"
     inkscape:groupmode="layer"
     id="layer1"
     transform="translate(0,-752.36218)">
    <path
       style="fill:#000000"
       d="m 219.80235,1031.3279 c -2.25125,-42.66904 -0.78262,-85.47395 -1.24862,-128.19795 -0.20077,-13.61091 0.11741,-27.25686 -0.78797,-40.8407 -12.11237,-1.6723 -24.14771,-3.57637 -35.9243,-6.33073 -6.61363,-7.09755 -21.07783,-4.64769 -25.38944,-15.70924 -3.36034,-17.04958 -3.0407,-34.73961 -2.26754,-52.05476 -2.35571,-9.14919 11.63794,-24.83215 10.79106,-7.85102 8.82599,6.1175 20.54005,6.35208 30.71615,9.41813 11.23605,3.44295 27.28686,2.7625 32.2934,15.79118 5.64223,20.11371 4.18646,41.38033 5.08635,62.07065 0.46258,50.99561 1.07122,102.0516 -1.34329,153.00564 0.35162,5.6299 -5.4683,18.1784 -11.9258,10.6988 z m -6.54646,-193.16029 c 2.92495,-14.99582 -13.56573,-11.31573 -23.11606,-13.07653 -7.31795,0.87413 -24.11714,-8.74357 -22.70718,4.31321 -0.98904,14.47514 16.22464,13.48419 25.90032,17.55331 7.88018,0.37192 23.6855,5.53765 19.92292,-8.78999 z m -5.19914,-22.34695 c 12.8663,-7.42659 -9.56679,-16.1065 -16.68917,-17.20825 -8.03558,-0.48084 -28.42539,-8.19419 -27.8443,4.39069 3.28057,13.14951 18.33423,8.17214 28.10579,10.18925 6.07188,-0.39388 10.50783,6.34342 16.42768,2.62831 z M 58.949311,1028.7293 c -2.067602,-25.8256 0.450786,-51.85172 1.021761,-77.73455 1.418337,-36.53789 2.615394,-73.09992 5.321521,-109.56237 1.28064,-12.94148 -1.404393,-26.55796 2.778532,-39.04583 6.044857,-9.02108 16.275784,-15.36245 27.318257,-15.10114 9.183678,-2.94314 25.584238,-0.13305 27.464648,-12.38735 1.95835,-14.64302 16.83096,-5.16122 14.22585,5.93318 1.32021,19.90986 2.88879,41.35847 -6.22352,59.78594 -7.65663,12.45276 -23.79438,13.86077 -36.646584,17.50778 -6.150909,1.43218 -12.303387,2.85763 -18.454934,4.28707 -1.199892,33.60252 -3.884934,67.25767 -2.148884,100.8747 3.102968,9.65981 3.394054,17.54942 -1.196228,26.339 -2.363325,12.58637 -0.413928,25.70907 -3.701276,38.11877 -1.325769,3.9606 -7.358929,3.4959 -9.759143,0.9848 z M 101.17238,845.10263 c 9.2094,-3.2989 22.44476,-10.03464 20.10979,-21.58905 -11.85753,-2.30668 -24.570563,0.82957 -36.486333,2.78795 -11.101488,1.43926 -13.248062,18.69714 -5.133796,24.62667 7.287946,0.63891 14.639743,-3.72644 21.510339,-5.82557 z m 8.42057,-31.24594 c 10.27185,0.73353 17.71427,-16.43388 8.56858,-20.78512 -11.76278,0.7467 -25.181511,2.8757 -34.102911,11.14263 -5.97434,4.85181 -7.612015,15.29675 2.925172,13.02004 7.639943,-0.0454 15.274739,-1.26242 22.609159,-3.37755 z m 76.66442,205.86061 c -4.47308,-23.16182 1.41597,-47.66066 -6.04502,-70.39972 -4.70754,-13.6666 -20.32985,-16.19053 -32.4461,-19.54087 -8.63959,-2.59213 -12.72014,-10.97548 -17.58157,-17.77189 -14.71675,-0.41531 -29.68223,1.18416 -44.173768,-1.72586 3.620169,-5.76392 17.794658,-4.66972 25.711378,-6.41865 10.50627,3.18567 27.69234,-9.8352 13.49997,-16.89557 -11.77554,-2.10576 -24.21381,0.15196 -35.674512,-3.60659 -0.972541,-10.61972 18.519812,-6.52367 26.305512,-7.87722 15.83263,-0.64415 32.41995,1.13075 47.52195,-4.51804 5.85789,-1.46132 7.32363,-10.14393 10.76236,-12.51784 7.2507,5.03823 12.17213,13.05654 11.68549,22.17266 1.7066,14.75317 -9.62133,27.37646 -24.24682,27.91442 -5.76059,0.57896 -19.32044,3.81855 -8.52733,9.8799 11.94316,5.4056 25.07316,8.66338 35.68281,16.85188 8.58276,7.00773 7.10059,20.11917 9.5156,30.10954 2.74305,17.53681 1.8634,36.15935 -5.207,52.59185 -1.26157,2.6854 -4.42466,4.2736 -6.78295,1.752 z M 163.87488,895.90339 c 13.91984,-4.02335 0.0986,-15.11393 -8.26553,-10.16849 -10.53443,0.68714 -11.19192,15.69121 0.94463,11.48434 2.46487,-0.28587 4.90471,-0.75924 7.3209,-1.31585 z m -26.08352,106.55521 c -11.21969,-1.0133 -23.598,-1.8892 -32.7929,-9.05914 -4.9203,-12.12009 -2.20133,-26.24498 -2.44418,-39.16462 -1.96793,-8.76752 3.88021,-24.54355 13.13521,-13.34593 0.73745,6.89127 -5.91798,20.40686 7.04984,17.01465 9.41474,-0.33732 22.74912,-0.35528 25.96025,-11.38755 0.76267,-9.90362 11.18347,-9.80421 11.45411,0.17249 2.67979,12.74021 3.24695,26.218 0.9678,39.04404 -3.50615,9.50448 -12.15033,19.26736 -23.33013,16.72606 l 0,0 z m 5.43826,-16.55909 c 5.01717,-4.74109 4.48259,-11.97691 4.43118,-18.28241 -10.80939,0.48556 -21.61878,0.9711 -32.42817,1.45663 1.09047,6.82158 -0.3717,16.82874 7.48644,19.6847 6.70366,1.61156 14.73014,1.2272 20.51055,-2.85892 z"
       id="path3080"
       inkscape:connector-curvature="0" />
  </g>
</svg>
