<?xml version="1.0" encoding="UTF-8" standalone="no"?>
<!-- Created with Inkscape (http://www.inkscape.org/) -->

<svg
   xmlns:dc="http://purl.org/dc/elements/1.1/"
   xmlns:cc="http://creativecommons.org/ns#"
   xmlns:rdf="http://www.w3.org/1999/02/22-rdf-syntax-ns#"
   xmlns:svg="http://www.w3.org/2000/svg"
   xmlns="http://www.w3.org/2000/svg"
   xmlns:sodipodi="http://sodipodi.sourceforge.net/DTD/sodipodi-0.dtd"
   xmlns:inkscape="http://www.inkscape.org/namespaces/inkscape"
   width="300"
   height="300"
   id="svg2"
   version="1.1"
   inkscape:version="0.48.4 r9939"
   sodipodi:docname="image-seal.svg">
  <defs
     id="defs4" />
  <sodipodi:namedview
     id="base"
     pagecolor="#ffffff"
     bordercolor="#666666"
     borderopacity="1.0"
     inkscape:pageopacity="0.0"
     inkscape:pageshadow="2"
     inkscape:zoom="1.979899"
     inkscape:cx="141.86812"
     inkscape:cy="134.8223"
     inkscape:document-units="px"
     inkscape:current-layer="layer1"
     showgrid="false"
     inkscape:window-width="1215"
     inkscape:window-height="1000"
     inkscape:window-x="65"
     inkscape:window-y="24"
     inkscape:window-maximized="1" />
  <metadata
     id="metadata7">
    <rdf:RDF>
      <cc:Work
         rdf:about="">
        <dc:format>image/svg+xml</dc:format>
        <dc:type
           rdf:resource="http://purl.org/dc/dcmitype/StillImage" />
        <dc:title />
      </cc:Work>
    </rdf:RDF>
  </metadata>
  <g
     inkscape:label="Calque 1"
     inkscape:groupmode="layer"
     id="layer1"
     transform="translate(0,-752.36218)">
    <path
       style="fill:#000000"
       d="m 217.34973,1041.3672 c -2.30149,-3.7239 -1.52428,-55.82916 2.13499,-143.13085 1.32635,-31.64367 -0.42692,-37.45706 -11.76827,-39.02022 -13.11299,-1.80736 -34.77128,-8.85217 -38.41412,-12.495 -5.39753,-5.39754 -8.16406,-22.7043 -8.19941,-51.29364 -0.0339,-27.39856 3.76513,-37.79749 11.4718,-31.40153 2.19908,1.82509 3.99834,5.32594 3.99834,7.77968 0,5.23972 8.25826,9.59159 37.86167,19.95195 22.20206,7.77011 20.58455,-1.70082 18.68751,109.41948 -2.02323,118.51163 -3.26996,136.33833 -9.77845,139.82163 -2.57149,1.3762 -5.26878,1.542 -5.99406,0.3685 z m 0.96174,-199.5918 c -0.0209,-3.2313 -0.90325,-7.11682 -1.95835,-8.63448 -2.60463,-3.74647 -15.24474,-8.31491 -28.68267,-10.36663 -10.15268,-1.55011 -11.09739,-1.21433 -11.09739,3.944 0,3.10107 1.84564,7.48393 4.10138,9.73971 5.15079,5.15078 21.05258,10.92714 30.49635,11.07788 5.75125,0.0916 7.17269,-1.05493 7.14068,-5.76048 z m 0.0399,-30.36422 c 0,-7.7548 -2.48584,-9.45842 -22.19477,-15.21064 -18.58232,-5.42341 -28.08171,5.77072 -11.09739,13.07725 26.96394,11.59963 33.29216,12.00514 33.29216,2.13339 z M 57.839433,1035.7726 c -0.847029,-1.3706 -0.860527,-11.0645 -0.03001,-21.542 0.830538,-10.4776 2.663432,-38.43794 4.073096,-62.13412 1.409664,-23.69619 3.677312,-57.18419 5.039215,-74.41777 1.361902,-17.23359 3.048248,-40.00156 3.74743,-50.5955 1.318996,-19.98524 5.385496,-36.03441 10.338219,-40.80161 4.272533,-4.11248 22.171887,-9.04512 35.509177,-9.78547 10.05772,-0.55831 11.87337,-1.52149 12.60549,-6.68703 1.09757,-7.74388 6.98838,-9.9949 12.28784,-4.69544 3.31084,3.31084 3.88716,8.1912 2.88219,24.40673 -2.22657,35.92631 -4.3178,44.76296 -11.82213,49.9556 -3.7479,2.59337 -12.68946,6.25431 -19.87011,8.13538 -7.18067,1.88109 -14.172014,4.42195 -15.536341,5.64635 -1.364326,1.22442 -4.568535,2.22622 -7.120466,2.22622 -8.764367,0 -12.020889,10.161 -11.64304,36.32858 0.209049,14.47681 1.478366,24.95698 3.088425,25.4995 2.745469,0.92513 19.710652,-14.93453 50.243332,-46.96921 16.68129,-17.50189 22.23259,-19.48273 25.52538,-9.10805 0.91967,2.8976 13.36309,17.05785 27.65207,31.46722 16.4289,16.56736 25.45011,27.57954 24.53878,29.95449 -0.79264,2.0656 -1.44118,4.24703 -1.44118,4.84765 0,0.60059 -1.75359,1.09201 -3.89685,1.09201 -5.07556,0 -17.21952,-10.57571 -15.44362,-13.44919 0.75387,-1.21976 0.41363,-2.21771 -0.756,-2.21771 -3.54667,0 -23.29637,-19.70172 -28.38499,-28.31606 -7.65873,-12.96522 -11.30188,-12.53034 -26.36697,3.14744 -16.29702,16.95981 -15.68575,17.65661 17.37777,19.80882 18.35309,1.19466 22.31909,2.22969 23.03902,6.01259 0.7842,4.12068 -1.8662,4.56951 -26.98337,4.56951 -25.65701,0 -27.96066,-0.41173 -29.21865,-5.2223 -1.85864,-7.10745 -4.81138,-6.58205 -14.60672,2.59905 -5.570052,5.22079 -11.051975,7.82538 -16.487057,7.83346 -7.573758,0.0105 -8.259159,0.78713 -9.813788,11.10948 -0.919248,6.10356 -2.405895,30.48516 -3.303663,54.18135 -0.897768,23.69623 -2.79428,44.55273 -4.214471,46.34793 -3.062075,3.8706 -8.842489,4.276 -11.008025,0.7721 z M 116.2831,834.7197 c 6.4613,-3.45799 11.56381,-12.32859 9.77419,-16.99226 -1.32885,-3.46288 -13.7606,-1.70963 -30.733615,4.33437 -7.237423,2.57723 -14.410265,12.95969 -11.833617,17.12879 1.806209,2.92252 24.848222,-0.21908 32.793042,-4.4709 z m 2.19185,-29.2877 c 9.90331,-2.54313 11.09739,-3.67846 11.09739,-10.55134 0,-7.00608 -0.64844,-7.57298 -7.18067,-6.2778 -3.94937,0.78305 -11.65378,2.19472 -17.12093,3.13706 -10.316869,1.77822 -19.513375,11.33561 -16.147716,16.78137 1.81624,2.93874 8.698921,2.21432 29.351926,-3.08929 z m 5.32227,199.7472 c -5.3305,-2.1723 -10.3892,-6.14691 -11.24154,-8.83238 -2.20317,-6.94156 -3.73297,-51.99646 -2.05661,-60.57003 1.91542,-9.7962 7.99681,-9.05192 10.6677,1.30558 2.10968,8.18119 2.8168,8.56767 19.67332,10.75182 18.71928,2.42552 25.28834,0.14126 25.28834,-8.79346 0,-2.52058 1.72976,-6.01845 3.84392,-7.77303 7.18738,-5.96499 11.12009,2.26525 11.54395,24.1586 0.45242,23.36801 -3.48042,41.53764 -10.33326,47.7394 -6.675,6.0408 -34.59271,7.2271 -47.38582,2.0135 z m 42.87903,-23.70729 c 0.56711,-8.25776 0.55015,-16.48288 -0.0377,-18.27805 -0.74235,-2.267 -7.7627,-3.26393 -22.98422,-3.26393 l -21.91541,0 0,12.47474 c 0,19.84324 4.57891,24.08135 26.01789,24.08135 l 17.88833,0 1.03112,-15.01411 z"
       id="path3302"
       inkscape:connector-curvature="0" />
  </g>
</svg>
