<?xml version="1.0" encoding="UTF-8" standalone="no"?>
<!-- Created with Inkscape (http://www.inkscape.org/) -->

<svg
   xmlns:dc="http://purl.org/dc/elements/1.1/"
   xmlns:cc="http://creativecommons.org/ns#"
   xmlns:rdf="http://www.w3.org/1999/02/22-rdf-syntax-ns#"
   xmlns:svg="http://www.w3.org/2000/svg"
   xmlns="http://www.w3.org/2000/svg"
   xmlns:sodipodi="http://sodipodi.sourceforge.net/DTD/sodipodi-0.dtd"
   xmlns:inkscape="http://www.inkscape.org/namespaces/inkscape"
   width="300"
   height="300"
   id="svg2"
   version="1.1"
   inkscape:version="0.48.4 r9939"
   sodipodi:docname="image-seal.svg">
  <defs
     id="defs4" />
  <sodipodi:namedview
     id="base"
     pagecolor="#ffffff"
     bordercolor="#666666"
     borderopacity="1.0"
     inkscape:pageopacity="0.0"
     inkscape:pageshadow="2"
     inkscape:zoom="1.979899"
     inkscape:cx="210.04556"
     inkscape:cy="115.30976"
     inkscape:document-units="px"
     inkscape:current-layer="layer1"
     showgrid="false"
     inkscape:window-width="1215"
     inkscape:window-height="1000"
     inkscape:window-x="65"
     inkscape:window-y="24"
     inkscape:window-maximized="1" />
  <metadata
     id="metadata7">
    <rdf:RDF>
      <cc:Work
         rdf:about="">
        <dc:format>image/svg+xml</dc:format>
        <dc:type
           rdf:resource="http://purl.org/dc/dcmitype/StillImage" />
        <dc:title />
      </cc:Work>
    </rdf:RDF>
  </metadata>
  <g
     inkscape:label="Calque 1"
     inkscape:groupmode="layer"
     id="layer1"
     transform="translate(0,-752.36218)">
    <path
       style="fill:#000000"
       d="m 82.994069,1046.137 c -4.56465,-1.8418 -3.94715,-10.0821 2.108,-28.1304 2.87369,-8.5656 5.63833,-24.694 6.14365,-35.84087 0.50531,-11.14688 1.33747,-20.68291 1.84924,-21.19114 0.51175,-0.50822 0.21622,-15.91683 -0.65679,-34.24111 -0.87301,-18.32401 -1.78976,-55.10208 -2.03722,-81.72869 -0.4199,-45.178 -0.0662,-49.20199 5.2936,-60.23414 4.835061,-9.95211 7.825991,-12.63208 18.908731,-16.94366 7.24086,-2.81676 20.17334,-5.78148 28.73887,-6.58793 8.56554,-0.8062 22.77337,-2.20887 31.57298,-3.11656 20.06912,-2.07026 29.42401,0.0623 29.42401,6.70759 0,7.32275 -2.92799,8.22499 -29.28294,9.02392 -47.57179,1.44187 -63.1215,7.09512 -64.70607,23.52485 l -0.75099,7.78685 22.06274,-0.80957 c 12.1345,-0.44515 24.39879,-0.94559 27.25397,-1.1117 2.85518,-0.16612 17.74753,-0.0934 33.09411,0.16092 26.01822,0.43139 27.90288,0.81321 27.90288,5.65378 0,4.06239 -1.73042,5.19123 -7.95749,5.19123 -13.28696,0 -17.99868,4.0746 -17.99868,15.56409 0,19.07675 -16.14393,25.96603 -60.84704,25.96603 -18.92855,0 -24.57389,0.83631 -25.71505,3.81011 -0.80418,2.0957 -0.0532,4.72376 1.669,5.84013 1.72214,1.11638 28.22383,2.03003 58.89259,2.03003 52.51005,0 55.81674,0.28448 56.71004,4.88002 1.23578,6.35745 -3.74012,9.30684 -15.78474,9.3559 -8.57844,0.0363 -9.73357,0.79166 -9.73357,6.37561 0,3.48488 -1.16802,7.05775 -2.59561,7.94025 -1.42759,0.88225 -2.59562,4.49172 -2.59562,8.0215 0,3.52952 -1.75204,6.96456 -3.89342,7.63345 -2.14139,0.66915 -5.93748,1.9628 -8.43576,2.8749 -2.49828,0.9121 -10.96648,1.81096 -18.81822,1.99707 -54.19343,1.28535 -51.91232,0.92404 -51.91232,8.22239 l 0,6.68683 57.10356,-1.59812 c 56.15896,-1.57191 57.10356,-1.51117 57.10356,3.66501 0,4.13819 -2.23169,5.62003 -10.43999,6.93263 -5.74199,0.91807 -11.24667,2.97458 -12.23259,4.56984 -1.82882,2.959 -2.06191,4.51196 -2.83961,18.91763 -0.82231,15.23238 -11.74415,18.81251 -70.52562,23.11942 -10.70692,0.78465 -20.1378,2.22937 -20.9575,3.21078 -0.81972,0.9814 -2.80944,11.34943 -4.42163,23.03983 -2.11172,15.3125 -4.547261,23.1136 -8.711251,27.9028 -5.98082,6.8784 -6.55946,7.1164 -11.98181,4.9285 z m 75.794651,-77.6834 c 20.81707,-1.93736 24.78549,-4.40761 24.78549,-15.42886 0,-10.64255 1.94422,-10.37857 -43.47658,-5.90425 l -31.7963,3.13239 0,9.43481 c 0,5.18889 0.79021,10.22491 1.75604,11.19074 1.63682,1.63679 9.054,1.2677 48.73135,-2.42483 z m 1.35081,-67.5574 c 15.82415,-1.22747 16.86455,-1.87715 19.25558,-12.0216 1.63485,-6.93627 1.36929,-7.13769 -9.39844,-7.12471 -6.09446,0 -22.52964,0.77168 -36.52269,1.69831 l -25.44184,1.68456 0.78349,8.02409 c 0.63738,6.52771 2.23573,8.35269 8.57036,9.78547 4.28276,0.96869 12.45896,1.15246 18.16931,0.40829 5.71036,-0.74416 16.77327,-1.8486 24.58423,-2.45441 z m 11.46473,-65.88064 c 2.07616,-2.14138 4.1587,-6.22974 4.62786,-9.08466 0.80752,-4.91428 -0.53249,-5.17929 -25.10312,-4.96697 -14.27589,0.12459 -30.15906,1.01904 -35.29597,1.99058 -8.23548,1.55711 -9.36654,2.70671 -9.56604,9.72266 l -0.22634,7.9566 30.8943,-0.86252 c 23.18277,-0.64709 31.83659,-1.83432 34.66918,-4.75569 z"
       id="path3041"
       inkscape:connector-curvature="0" />
  </g>
</svg>
