<?xml version="1.0" encoding="UTF-8" standalone="no"?>
<!-- Created with Inkscape (http://www.inkscape.org/) -->

<svg
   xmlns:dc="http://purl.org/dc/elements/1.1/"
   xmlns:cc="http://creativecommons.org/ns#"
   xmlns:rdf="http://www.w3.org/1999/02/22-rdf-syntax-ns#"
   xmlns:svg="http://www.w3.org/2000/svg"
   xmlns="http://www.w3.org/2000/svg"
   xmlns:sodipodi="http://sodipodi.sourceforge.net/DTD/sodipodi-0.dtd"
   xmlns:inkscape="http://www.inkscape.org/namespaces/inkscape"
   width="300"
   height="300"
   id="svg2"
   version="1.1"
   inkscape:version="0.92.4 (5da689c313, 2019-01-14)"
   sodipodi:docname="image-bigseal.svg">
  <defs
     id="defs4" />
  <sodipodi:namedview
     id="base"
     pagecolor="#ffffff"
     bordercolor="#666666"
     borderopacity="1.0"
     inkscape:pageopacity="0.0"
     inkscape:pageshadow="2"
     inkscape:zoom="1.4142136"
     inkscape:cx="512.42455"
     inkscape:cy="165.97822"
     inkscape:document-units="px"
     inkscape:current-layer="layer1"
     showgrid="false"
     inkscape:window-width="1872"
     inkscape:window-height="1016"
     inkscape:window-x="48"
     inkscape:window-y="27"
     inkscape:window-maximized="1" />
  <metadata
     id="metadata7">
    <rdf:RDF>
      <cc:Work
         rdf:about="">
        <dc:format>image/svg+xml</dc:format>
        <dc:type
           rdf:resource="http://purl.org/dc/dcmitype/StillImage" />
        <dc:title />
      </cc:Work>
    </rdf:RDF>
  </metadata>
  <g
     inkscape:label="Calque 1"
     inkscape:groupmode="layer"
     id="layer1"
     transform="translate(0,-752.36218)">
    <path
       style="fill:#000000;stroke-width:5.95416069"
       d="m 167.40745,869.20225 c 18.28351,0 41.34643,12.67274 45.19772,24.83581 2.70408,8.53963 6.71202,14.80182 6.71202,14.80182 0,0 7.84217,-22.77275 7.84217,-39.77951 0,-31.79959 -8.9223,-41.58596 -37.91488,-41.58596 -8.19943,0 -16.56204,-2.6825 -18.58361,-5.96111 -2.22235,-3.6041 5.97557,-5.96112 20.7346,-5.96112 17.98733,0 28.25108,3.84969 39.0078,14.63156 17.02205,17.06192 17.65179,24.7607 5.76659,70.49799 -2.91728,11.22636 -12.89,28.77479 -12.89,28.77479 0,0 7.99713,25.83795 12.889,51.46246 4.85655,25.43912 8.83054,49.60612 8.83114,53.70432 0.002,14.2864 -10.97207,7.328 -14.10125,-8.9417 -1.7341,-9.0161 -6.10268,-31.58492 -9.70788,-50.15266 l -7.26047,-37.6481 -15.33482,12.27698 c -17.92132,9.37148 -36.85552,11.12047 -36.85552,3.4044 0,-2.78146 10.70499,-9.27193 23.78885,-14.42353 10.90666,-4.29429 25.1688,-17.33086 25.1688,-17.33086 -6.41308,-15.47923 -15.27509,-33.88361 -31.88165,-34.72222 -4.81243,0 -15.53314,-6.79935 -19.61227,-15.87739 0.99761,-4.36811 5.2229,-2.00597 8.20366,-2.00597 z m -28.41321,0.9502 c 1.86021,-68.95509 2.80988,-74.27674 15.97064,-84.94595 10.26363,-8.32053 23.46091,-11.38216 49.06448,-11.38216 19.38481,0 35.02443,2.66164 35.02443,5.96112 0,3.27862 -13.55715,5.96112 -30.12703,5.96112 -46.59716,0 -53.13392,5.89257 -53.13392,47.89879 4.45217,44.38555 -0.35116,83.94892 -1.93616,116.11127 -3.62845,71.75936 -8.76398,97.48936 -17.6754,88.55726 h -3.1e-4 c -2.24656,-2.2522 -2.35748,-22.7215 -0.24622,-45.48818 -0.92667,-43.4618 -0.59766,-76.96204 3.05949,-122.67327 z m -23.91671,97.47682 c -3.29404,17.78798 -12.68885,26.75651 -28.029021,26.75651 -5.4905,0 -13.27598,-0.77615 -13.27598,-0.77615 0,0 -1.59068,11.97787 -2.35062,19.69077 -1.025,10.4027 -5.62213,20.1534 -10.21587,21.6675 -6.7338,2.2193 -7.59809,-2.7624 -4.46041,-25.7079 2.14052,-15.65337 3.93283,-73.01781 3.9829,-127.47741 0.0476,-54.45899 2.44109,-102.73571 5.31331,-107.28226 7.36615,-11.65816 68.505311,-17.30155 64.785691,-5.97959 -1.586,4.82791 -12.8599,9.03824 -27.02026,10.09217 -14.370361,1.06883 -25.647751,5.33163 -27.600411,10.43196 -2.60779,6.81177 2.90855,8.62395 26.247721,8.62395 22.30132,0 29.54943,2.1931 29.54943,8.94168 0,4.91792 -2.67625,8.94168 -5.94721,8.94168 -1.59804,0 -7.30008,0.98232 -7.30008,0.98232 0,0 0.29468,5.66861 0.29468,8.06406 0,13.16394 -16.07032,26.72033 -32.076281,26.72033 -4.02506,0 -11.05887,-0.3007 -11.05887,-0.3007 l -0.36731,18.27632 c 0,0 9.65395,-0.0923 23.39441,-0.0923 16.634391,0 29.713021,2.47604 30.736241,6.89205 0.93296,4.02641 -0.31304,4.76921 -6.20162,7.03431 -2.21149,0.85047 -9.78266,2.96822 -9.78266,2.96822 0,0 -0.0381,12.17819 -0.59082,17.00153 -1.5113,13.18779 -5.57848,17.35223 -19.266701,19.72594 -5.54632,0.96175 -17.49201,-0.34252 -17.49201,-0.34252 l 0.35328,18.87217 c 0,0 18.37596,-0.29286 27.792491,0.30272 0,0 21.5649,-0.98722 24.31098,7.00342 1.73419,5.04619 -13.81891,10.08758 -13.81891,10.08758 0,0 0.47626,6.81683 0.0939,8.8816 z m -13.92135,1.42172 c 0.65586,-3.44923 1.43103,-10.19859 1.43103,-10.19859 0,0 -8.445521,-0.23337 -14.751521,-0.23337 -5.84073,0 -12.42657,-0.0531 -12.42657,-0.0531 0,0 -1.29023,8.34986 -1.29023,12.92058 0,4.63035 0.075,9.30816 0.075,9.30816 0,0 6.54083,1.32526 11.65818,0.59346 7.32632,-1.04796 14.213121,-6.59955 15.304141,-12.33713 z m 1.11147,-70.04315 c 0,-3.9237 0.62844,-12.04768 0.62844,-12.04768 0,0 -8.507901,0.12545 -12.522851,0.12545 -4.09,0 -13.51475,-0.54046 -13.51475,-0.54046 l -0.84877,23.95317 c 0,0 6.43393,0.43176 14.36352,0.43176 7.92959,0 11.894411,-3.97428 11.894411,-11.92224 z m -1.11902,-73.09226 c 0.68709,-3.57609 2.43432,-9.83401 2.43432,-9.83401 0,0 -9.692611,-0.52939 -15.747261,-0.52939 -3.96817,0 -11.61044,-0.32657 -11.61044,-0.32657 l -0.93414,22.87789 c 0,0 23.77261,-1.3363 25.857521,-12.18792 z"
       id="path180"
       inkscape:connector-curvature="0"
       sodipodi:nodetypes="sccsscscccccccccsccccsccssscccccccscccscccccssscssccssccsccccsccccscscccscsccssccsccc" />
  </g>
</svg>
