<?xml version="1.0" encoding="UTF-8" standalone="no"?>
<svg
   xmlns:dc="http://purl.org/dc/elements/1.1/"
   xmlns:cc="http://creativecommons.org/ns#"
   xmlns:rdf="http://www.w3.org/1999/02/22-rdf-syntax-ns#"
   xmlns:svg="http://www.w3.org/2000/svg"
   xmlns="http://www.w3.org/2000/svg"
   viewBox="0 0 300 300"
   height="300"
   width="300"
   id="svg76"
   version="1.1">
  <metadata
     id="metadata82">
    <rdf:RDF>
      <cc:Work
         rdf:about="">
        <dc:format>image/svg+xml</dc:format>
        <dc:type
           rdf:resource="http://purl.org/dc/dcmitype/StillImage" />
        <dc:title></dc:title>
      </cc:Work>
    </rdf:RDF>
  </metadata>
  <defs
     id="defs80" />
  <path
     id="path86"
     d="m 59.54247,277.32503 c 3.141998,-46.70161 8.175711,-102.08701 8.226052,-147.6258 0.04744,-42.912238 -0.04921,-78.433886 -0.04921,-78.433886 -1.014543,-32.503238 15.554691,-36.122434 44.685358,-36.140865 8.22737,-0.0052 26.44468,-1.372819 26.30789,6.978788 -0.10503,6.413971 -16.91653,5.461717 -27.61661,5.716431 -24.588413,0.585325 -32.514309,1.374879 -32.43614,22.072754 l 26.61766,0.211608 c 29.94304,0.238043 32.0848,0.03676 31.82883,5.099145 -0.32873,6.501315 -8.92607,7.457191 -14.22414,7.65506 l -0.0173,10.368052 c -0.0438,26.301954 -23.606142,23.787404 -42.660727,24.060854 l -0.307003,19.033209 36.82392,0.89752 c 5.33725,0.13008 19.23536,-1.49565 18.98723,6.27387 -0.16883,5.28601 -5.88818,5.66535 -17.3288,5.93162 l -0.56671,14.89133 c -0.81055,21.2989 -19.681293,22.76417 -38.1365,22.43354 l -0.557889,18.4285 38.653239,0.007 c 19.58117,0.004 20.38055,0.39287 20.46369,7.26127 0.0685,5.66438 -11.59262,5.00642 -20.61509,5.46111 -0.0342,0.046 -0.57966,10.48334 -0.57966,10.48334 -0.85401,26.87834 -16.90073,25.74932 -42.162652,26.73243 -1.548694,18.19837 -2.428265,24.74637 -3.974386,40.88816 -0.504597,5.26808 -2.362283,9.03072 -6.224665,8.98976 -4.916269,-0.0521 -5.410262,-3.60406 -5.136387,-7.67486 z m 44.11805,-69.48213 0.19094,-10.89295 H 77.675281 c -0.605159,9.02646 -1.183002,17.80865 -1.770374,26.76124 14.714154,-0.99594 27.462763,0.83825 27.755613,-15.86829 z m 1.67615,-65.05873 0.35153,-13.32018 -24.848463,-0.28474 c -0.438037,9.22652 -0.620296,16.26048 -0.942549,26.17478 17.323799,0.37099 25.081452,0.99613 25.439482,-12.56986 z M 110.056,72.246083 V 62.659245 L 79.550531,61.75522 V 86.020941 C 100.16839,85.825128 109.8256,88.213648 110.056,72.246083 Z M 215.9732,260.82025 c -3.99507,-27.64978 -5.68687,-58.75925 -6.07016,-85.92827 -0.33848,-25.50835 -1.4532,-56.69256 -2.7595,-64.18065 -3.0804,-17.657661 -36.4259,-14.166709 -38.02055,0.0999 -0.64387,5.76037 -0.63201,16.98218 -0.18884,47.36905 0.66872,34.82034 -0.15118,67.07727 -4.30153,99.07934 -1.06909,6.36598 -2.86043,16.00254 -9.11875,15.954 -5.47609,-0.0425 -4.93798,-8.06497 -4.00283,-15.68923 5.16891,-42.14222 6.35496,-74.95949 6.24795,-99.91181 -0.0705,-15.65976 -0.39259,-35.56415 -0.21151,-46.97928 0.30157,-19.009782 16.37832,-23.291757 31.09449,-23.271975 16.78552,0.02256 26.24967,4.298967 29.43715,20.154595 1.10593,5.50121 2.35107,17.69798 2.49612,49.11217 -0.89713,37.93441 2.57411,66.93191 7.04166,102.85651 0.67431,5.42225 3.05838,14.28328 -3.20779,16.42374 -4.37598,1.49479 -7.84394,-11.04885 -8.43591,-15.0881 z M 220.63023,72.1175 c -8.01921,-7.75566 -18.55096,-19.45977 -30.4545,-19.232743 -8.47887,0.161711 -15.87455,6.279279 -21.27759,10.369543 l -21.3119,16.13376 c -1.98755,1.504634 -7.70252,3.629133 -9.04499,1.197969 -1.75189,-3.273428 -2.51447,-5.71152 4.85161,-12.214142 12.44995,-9.96207 26.54353,-21.53517 41.15998,-27.488881 l -0.0362,-19.706362 c -0.0156,-8.507533 11.31001,-8.31713 11.41315,1.132682 l 0.20684,18.94959 c 10.77364,2.644389 16.31952,8.27928 23.25765,14.376469 l 18.9716,18.859096 c 5.77098,5.73676 -1.31209,14.113969 -6.65093,8.753235 z"
     style="fill:#000000;stroke-width:0.69330633" />
</svg>
