<?xml version="1.0" encoding="UTF-8" standalone="no"?>
<!-- Created with Inkscape (http://www.inkscape.org/) -->

<svg
   xmlns:dc="http://purl.org/dc/elements/1.1/"
   xmlns:cc="http://creativecommons.org/ns#"
   xmlns:rdf="http://www.w3.org/1999/02/22-rdf-syntax-ns#"
   xmlns:svg="http://www.w3.org/2000/svg"
   xmlns="http://www.w3.org/2000/svg"
   xmlns:sodipodi="http://sodipodi.sourceforge.net/DTD/sodipodi-0.dtd"
   xmlns:inkscape="http://www.inkscape.org/namespaces/inkscape"
   width="300"
   height="300"
   id="svg2"
   version="1.1"
   inkscape:version="0.48.4 r9939"
   sodipodi:docname="image-seal.svg">
  <defs
     id="defs4" />
  <sodipodi:namedview
     id="base"
     pagecolor="#ffffff"
     bordercolor="#666666"
     borderopacity="1.0"
     inkscape:pageopacity="0.0"
     inkscape:pageshadow="2"
     inkscape:zoom="2.7366667"
     inkscape:cx="150"
     inkscape:cy="150"
     inkscape:document-units="px"
     inkscape:current-layer="layer1"
     showgrid="false"
     inkscape:window-width="1215"
     inkscape:window-height="1000"
     inkscape:window-x="65"
     inkscape:window-y="24"
     inkscape:window-maximized="1" />
  <metadata
     id="metadata7">
    <rdf:RDF>
      <cc:Work
         rdf:about="">
        <dc:format>image/svg+xml</dc:format>
        <dc:type
           rdf:resource="http://purl.org/dc/dcmitype/StillImage" />
        <dc:title />
      </cc:Work>
    </rdf:RDF>
  </metadata>
  <g
     inkscape:label="Calque 1"
     inkscape:groupmode="layer"
     id="layer1"
     transform="translate(0,-752.36218)">
    <path
       style="fill:#000000"
       d="m 60.070548,918.68073 c -0.50888,-156.87559 0.64472,-161.31855 41.868392,-161.31855 32.46469,0 33.92713,11.9133 1.74834,14.24221 -20.245732,1.46523 -28.294882,5.07045 -29.870932,13.37924 -1.79981,9.48846 2.7689,11.37354 27.565422,11.37354 16.34747,0 29.72275,2.92462 29.72275,6.49916 0,3.57454 -2.92462,6.49917 -6.49916,6.49917 -3.57454,0 -6.49917,5.26432 -6.49917,11.69849 0,16.01713 -12.62209,27.29649 -30.546062,27.29649 -8.95442,0 -14.94807,3.90892 -14.94807,9.74875 0,7.04074 7.22128,9.74874 25.996646,9.74874 14.298156,0 25.996656,1.10512 25.996656,2.45591 0,1.35072 -4.42619,13.04921 -9.83597,25.99665 -7.56535,18.10641 -13.56661,23.54075 -25.996642,23.54075 -10.03231,0 -16.16069,3.69686 -16.16069,9.74875 0,7.01643 7.17865,9.74875 25.613066,9.74875 14.087196,0 27.420616,2.92462 29.629816,6.49916 2.2092,3.57454 0.9195,6.49916 -2.866,6.49916 -3.7855,0 -6.88275,5.26433 -6.88275,11.6985 0,16.01712 -12.62209,27.29649 -30.546062,27.29649 -12.43803,0 -15.02476,3.54685 -15.40484,21.12231 -0.25151,11.6172 -2.97031,26.9715 -6.0424,34.1206 -3.35942,7.8178 -5.76762,-43.1552 -6.04234,-127.89427 z m 38.538156,46.6547 c 0,-8.66553 -4.332796,-12.99833 -12.998326,-12.99833 -8.66553,0 -12.99832,4.3328 -12.99832,12.99833 0,8.66553 4.33279,12.99833 12.99832,12.99833 8.66553,0 12.998326,-4.3328 12.998326,-12.99833 z m 0,-61.21049 c 0,-1.49494 1.775246,-7.34418 3.944926,-12.99833 2.97558,-7.75421 -0.21837,-10.28031 -12.998322,-10.28031 -12.61046,0 -16.94325,3.324 -16.94325,12.99833 0,8.66553 4.33279,12.99833 12.99832,12.99833 7.14908,0 12.998326,-1.22315 12.998326,-2.71802 z m 0,-81.77112 c 0,-8.66553 -4.332796,-12.99832 -12.998326,-12.99832 -8.66553,0 -12.99832,4.33279 -12.99832,12.99832 0,8.66553 4.33279,12.99833 12.99832,12.99833 8.66553,0 12.998326,-4.3328 12.998326,-12.99833 z m 62.997756,170.92633 c -18.92082,-4.90362 -24.00277,-30.09627 -24.00277,-118.98761 0,-79.12303 0.78945,-84.25042 14.44445,-93.81478 16.5225,-11.5728 106.22741,-14.84162 99.29092,-3.61808 -2.2092,3.57454 -22.26926,6.49916 -44.5779,6.49916 -22.882,0 -43.96047,3.39932 -48.36015,7.799 -5.28193,5.28193 -7.799,35.62237 -7.799,94.00923 0,99.65247 0.007,99.66585 61.31481,99.66585 19.89498,0 36.17265,2.92463 36.17265,6.49917 0,6.44925 -63.58827,7.8816 -86.48301,1.94806 z m 1.99388,-83.49795 c 0,-57.84093 1.10272,-63.07438 16.24791,-77.11043 21.01063,-19.47202 20.4749,-23.31627 -3.24958,-23.31627 -10.72362,0 -19.49749,-2.92463 -19.49749,-6.49917 0,-3.71382 19.49749,-6.49916 45.49415,-6.49916 25.99665,0 45.49414,2.78534 45.49414,6.49916 0,3.57454 -8.77387,6.49917 -19.49749,6.49917 -23.75542,0 -24.92169,7.94932 -3.24958,22.14941 15.54457,10.18523 16.24791,13.46938 16.24791,75.87143 0,41.82862 -2.33131,63.78455 -6.49916,61.20867 -3.57454,-2.20919 -6.59646,-11.88684 -6.71539,-21.50586 -0.11894,-9.61902 -5.96819,-24.39351 -12.99833,-32.83222 l -12.7821,-15.34316 -12.7821,15.34316 c -7.03015,8.43871 -12.8794,24.84813 -12.99833,36.46538 -0.11894,11.61726 -3.14085,21.12229 -6.71539,21.12229 -3.87896,0 -6.49917,-25.01691 -6.49917,-62.0524 z m 32.49582,-46.426 c 0,-22.50303 -8.79018,-28.84705 -15.55256,-11.22457 -2.16975,5.65414 -3.85193,21.00842 -3.73826,34.12061 0.19368,22.37162 0.79459,23.06306 9.74875,11.22458 5.24814,-6.93864 9.54207,-22.29292 9.54207,-34.12062 z m 29.88329,-12.43959 c -5.67956,-14.80061 -16.88496,-10.31476 -16.88496,6.75952 0,8.70368 3.54549,24.05796 7.87894,34.12061 l 7.87893,18.2958 2.30285,-25.05532 c 1.26662,-13.78044 0.73753,-29.13471 -1.17576,-34.12061 z"
       id="path3028"
       inkscape:connector-curvature="0" />
  </g>
</svg>
