<?xml version="1.0" encoding="UTF-8" standalone="no"?>
<!-- Created with Inkscape (http://www.inkscape.org/) -->

<svg
   xmlns:dc="http://purl.org/dc/elements/1.1/"
   xmlns:cc="http://creativecommons.org/ns#"
   xmlns:rdf="http://www.w3.org/1999/02/22-rdf-syntax-ns#"
   xmlns:svg="http://www.w3.org/2000/svg"
   xmlns="http://www.w3.org/2000/svg"
   xmlns:sodipodi="http://sodipodi.sourceforge.net/DTD/sodipodi-0.dtd"
   xmlns:inkscape="http://www.inkscape.org/namespaces/inkscape"
   width="300"
   height="300"
   viewBox="0 0 300 300"
   id="svg2"
   version="1.1"
   inkscape:version="0.91 r13725"
   sodipodi:docname="院-seal.svg">
  <defs
     id="defs4" />
  <sodipodi:namedview
     id="base"
     pagecolor="#ffffff"
     bordercolor="#666666"
     borderopacity="1.0"
     inkscape:pageopacity="0.0"
     inkscape:pageshadow="2"
     inkscape:zoom="1.09"
     inkscape:cx="179.90252"
     inkscape:cy="147.2085"
     inkscape:document-units="px"
     inkscape:current-layer="layer1"
     showgrid="false"
     units="px"
     inkscape:window-width="923"
     inkscape:window-height="546"
     inkscape:window-x="385"
     inkscape:window-y="10"
     inkscape:window-maximized="0" />
  <metadata
     id="metadata7">
    <rdf:RDF>
      <cc:Work
         rdf:about="">
        <dc:format>image/svg+xml</dc:format>
        <dc:type
           rdf:resource="http://purl.org/dc/dcmitype/StillImage" />
        <dc:title></dc:title>
      </cc:Work>
    </rdf:RDF>
  </metadata>
  <g
     inkscape:label="Layer 1"
     inkscape:groupmode="layer"
     id="layer1"
     transform="translate(0,-752.36216)">
    <path
       style="fill:#000000"
       d="m 210.72456,1024.2575 c -5.17853,-6.2539 -10.24789,-11.7269 -11.26523,-12.1623 -1.01734,-0.4355 -1.84971,-2.1042 -1.84971,-3.7084 0,-1.6043 -1.87031,-4.9886 -4.15625,-7.5209 -8.333,-9.23082 -16.11878,-33.48584 -13.51883,-42.11515 2.24556,-7.45308 8.82684,-21.64635 10.6887,-23.05137 2.62283,-1.97928 9.36138,-16.16426 9.36138,-19.70616 0,-5.25376 -8.0834,-13.19433 -17.39028,-17.08299 -8.53011,-3.5641 -8.56985,-3.55221 -17.80273,5.32729 -15.65632,15.05707 -15.86949,15.94167 -15.86949,65.85641 0,39.71217 -0.45946,45.17177 -3.85741,45.83527 -5.73574,1.1201 -7.04752,-4.7303 -8.55835,-38.16943 -0.93109,-20.60791 -0.36669,-35.70757 1.75499,-46.95205 2.73403,-14.48978 4.56157,-18.13777 14.52715,-28.99789 6.26982,-6.83262 11.43825,-13.75889 11.4854,-15.3917 0.0472,-1.63281 1.2288,-2.96875 2.62591,-2.96875 1.3971,0 2.19866,-2.40469 1.78125,-5.34375 -0.71539,-5.03714 -1.67876,-5.2957 -16.79019,-4.50623 -13.19396,0.6893 -16.03125,0.1922 -16.03125,-2.8087 0,-5.0794 4.79153,-6.18341 42.07891,-9.69534 34.01199,-3.20344 38.67109,-2.94242 38.67109,2.16652 0,4.31293 -5.55382,5.9375 -20.29818,5.9375 -10.20915,0 -13.27999,0.92546 -15.24326,4.59387 -4.37647,8.1775 -2.6647,11.356 8.82269,16.38241 12.41574,5.43263 21.96875,17.567 21.96875,27.90503 0,5.13625 -6.5719,17.63605 -11.76057,22.36869 -8.20255,7.48163 -9.22768,23.4678 -2.50988,39.13979 5.36046,12.50545 9.91066,17.86018 15.17667,17.86018 2.13311,0 4.58568,3.49555 5.96985,8.50855 1.29213,4.6798 4.63206,10.4884 7.42205,12.9082 6.30981,5.4724 5.56018,15.1025 -1.25164,16.0789 -3.25921,0.4673 -7.74279,-2.9116 -14.18154,-10.6875 z m -137.273165,3.4022 c -0.69075,-1.8001 -0.4337,-10.7631 0.57122,-19.9177 2.19744,-20.01813 0.58785,-151.71883 -2.02518,-165.70573 -2.42394,-12.97468 -3.34773,-42.85864 -1.50441,-48.66642 4.25695,-13.41247 51.116595,-25.57853 51.116595,-13.27128 0,4.31922 -7.33861,8.35081 -15.20079,8.35081 -3.30718,0 -9.789937,1.80107 -14.406127,4.00238 -7.742628,3.6922 -8.393078,4.81801 -8.393078,14.52687 0,10.26871 0.15873,10.48732 6.531248,8.99502 3.59219,-0.84121 10.271877,-2.09426 14.843747,-2.78457 4.57188,-0.69031 9.54456,-1.65636 11.0504,-2.14678 1.50585,-0.49042 4.7121,0.60406 7.125,2.43217 5.98898,4.53749 6.37639,4.40947 9.7551,-3.22355 2.29405,-5.18263 5.66517,-7.43374 14.89686,-9.9476 12.58043,-3.42576 13.43152,-4.66049 14.71903,-21.35394 0.50202,-6.50912 1.77375,-8.47365 5.86189,-9.05532 4.79791,-0.68265 5.27884,0.37539 5.9375,13.0625 l 0.71672,13.80532 9.5,0.40108 c 5.225,0.22059 11.70316,0.48779 14.39592,0.59375 9.05558,0.35636 14.82047,8.5256 16.42365,23.27344 0.821,7.55245 1.97186,16.05912 2.55746,18.9037 1.20543,5.85535 -5.52651,14.12855 -8.81809,10.83697 -1.15991,-1.15991 -3.12706,-11.03584 -4.37145,-21.94651 -2.28669,-20.04952 -4.27791,-23.66161 -13.06249,-23.69554 -14.0018,-0.0541 -45.28507,5.02532 -48.06375,7.804 -2.17318,2.17318 -3.3213,10.22887 -3.54963,24.90573 -0.2604,16.73849 -1.14046,22.00172 -3.85295,23.04259 -6.04448,2.31949 -7.73506,-2.27598 -7.73506,-21.02616 0,-17.67255 -0.15444,-18.15555 -5.80555,-18.15555 -5.47028,0 -5.80556,0.77257 -5.80556,13.37767 0,17.69381 -5.32109,22.81528 -26.124997,25.14494 -4.50663,0.50466 -6.118598,2.23884 -6.688998,7.19614 -0.69776,6.06415 -0.13457,6.53125 7.874878,6.53125 4.74452,0 10.684757,-1.10161 13.200547,-2.44801 5.9389,-3.17841 19.80799,0.33609 20.7562,5.25972 0.40541,2.10513 -1.38401,4.24736 -4.15262,4.97137 -4.23191,1.10667 -4.86501,3.15557 -4.86501,15.74457 0,7.95979 -0.26719,14.50244 -0.59375,14.53923 -0.32656,0.0368 -6.47187,2.01072 -13.65625,4.38653 -10.206687,3.37526 -13.238297,5.51299 -13.866627,9.77801 -0.75299,5.11127 -0.22441,5.35513 8.3125,3.83491 5.014147,-0.8929 14.727567,-2.26637 21.585377,-3.05216 11.17362,-1.28031 12.46875,-0.95931 12.46875,3.09038 0,2.4855 -2.2556,5.57408 -5.01245,6.86352 -4.26649,1.99553 -5.06176,4.58493 -5.34375,17.39925 -0.39004,17.72417 -4.77993,22.90606 -21.533497,25.41841 l -10.30999,1.54608 -1.44703,12.24034 c -3.489478,29.51707 -5.047238,35.93737 -8.898188,36.67357 -2.12157,0.4056 -4.42257,-0.7354 -5.11332,-2.5354 z m 27.657685,-58.99983 c 6.28204,-2.86229 8.54168,-8.2508 8.59311,-20.49174 0.0292,-6.95239 -0.65569,-7.71875 -6.89832,-7.71875 -12.705267,0 -14.444247,1.84149 -14.444247,15.29576 0,16.30007 1.65036,17.97182 12.749457,12.91473 z m 5.79235,-74.06229 0.72932,-11.4143 -9.041817,1.60862 c -12.04769,2.14339 -13.487808,3.89084 -11.58138,14.05301 1.54785,8.25072 1.99917,8.59367 10.39135,7.89616 8.678967,-0.72136 8.781057,-0.85181 9.502527,-12.14349 z m -8.048547,-45.8398 c 2.636777,-1.01182 3.756737,-4.55202 3.756737,-11.875 0,-9.45153 -0.54049,-10.4334 -5.743247,-10.4334 -11.00156,0 -13.256748,2.26536 -13.256748,13.3166 0,9.45153 0.5405,10.4334 5.743258,10.4334 3.15879,0 7.43379,-0.64872 9.5,-1.4416 z m 46.506737,-15.25996 c 0,-2.49792 1.78498,-4.478 4.15625,-4.61053 2.28594,-0.12778 14.57656,-0.83173 27.3125,-1.56436 22.46547,-1.29233 27.25314,0.0472 20.1875,5.64819 -1.63281,1.29435 -13.92344,2.92747 -27.3125,3.62915 -22.53277,1.18088 -24.34375,0.95009 -24.34375,-3.10245 z"
       id="path3529"
       inkscape:connector-curvature="0" />
  </g>
</svg>
