<?xml version="1.0" encoding="UTF-8" standalone="no"?>
<!-- Created with Inkscape (http://www.inkscape.org/) -->

<svg
   xmlns:dc="http://purl.org/dc/elements/1.1/"
   xmlns:cc="http://creativecommons.org/ns#"
   xmlns:rdf="http://www.w3.org/1999/02/22-rdf-syntax-ns#"
   xmlns:svg="http://www.w3.org/2000/svg"
   xmlns="http://www.w3.org/2000/svg"
   xmlns:sodipodi="http://sodipodi.sourceforge.net/DTD/sodipodi-0.dtd"
   xmlns:inkscape="http://www.inkscape.org/namespaces/inkscape"
   width="300"
   height="300"
   id="svg2"
   version="1.1"
   inkscape:version="0.48.4 r9939"
   sodipodi:docname="image-seal.svg">
  <defs
     id="defs4" />
  <sodipodi:namedview
     id="base"
     pagecolor="#ffffff"
     bordercolor="#666666"
     borderopacity="1.0"
     inkscape:pageopacity="0.0"
     inkscape:pageshadow="2"
     inkscape:zoom="1.979899"
     inkscape:cx="90.878804"
     inkscape:cy="121.06726"
     inkscape:document-units="px"
     inkscape:current-layer="layer1"
     showgrid="false"
     inkscape:window-width="1215"
     inkscape:window-height="1000"
     inkscape:window-x="65"
     inkscape:window-y="24"
     inkscape:window-maximized="1"
     fit-margin-top="10"
     fit-margin-left="10"
     fit-margin-right="10"
     fit-margin-bottom="10" />
  <metadata
     id="metadata7">
    <rdf:RDF>
      <cc:Work
         rdf:about="">
        <dc:format>image/svg+xml</dc:format>
        <dc:type
           rdf:resource="http://purl.org/dc/dcmitype/StillImage" />
        <dc:title />
      </cc:Work>
    </rdf:RDF>
  </metadata>
  <g
     inkscape:label="Calque 1"
     inkscape:groupmode="layer"
     id="layer1"
     transform="translate(0,-752.36218)">
    <path
       style="fill:#000000"
       d="m 177.77256,1036.8219 c -2.56273,-11.9399 -3.78723,-38.43428 -3.92232,-84.86589 l -0.13866,-47.65543 -8.85011,0 c -12.75711,0 -20.39687,-7.41804 -23.96746,-23.27192 -3.97878,-17.66617 -1.54314,-29.98256 6.14887,-31.09329 5.43532,-0.78486 5.78357,0.14597 5.86169,15.66755 0.0854,16.97173 3.79886,25.64137 10.98294,25.64137 6.83256,0 9.93024,-6.61875 8.69513,-18.57865 -0.65039,-6.29793 -1.24998,-16.44484 -1.33243,-22.54866 -0.14967,-11.08301 -0.16316,-11.09784 -10.07266,-11.09784 -5.45754,0 -11.26667,-1.34388 -12.9092,-2.98641 -2.24105,-2.24106 -4.71039,-0.9376 -9.89378,5.22251 -3.79904,4.51492 -8.49614,8.20894 -10.43802,8.20894 -4.69032,0 -8.21662,-5.93931 -4.30118,-7.24447 1.69046,-0.56348 3.07358,-2.19148 3.07358,-3.61771 0,-1.42627 5.58684,-11.02264 12.4152,-21.32528 6.82835,-10.30263 13.93484,-21.66972 15.79219,-25.2602 1.85736,-3.59049 7.59356,-12.31433 12.74711,-19.38632 8.93472,-12.26077 9.54852,-12.62475 13.21034,-7.83377 2.11214,2.76341 5.60062,9.10043 7.75217,14.08228 4.45321,10.31122 38.22701,44.4729 43.96796,44.4729 5.81229,0 4.50496,9.86548 -1.56252,11.79122 -8.95582,2.84248 -28.08067,-12.93057 -43.58385,-35.94536 -3.6279,-5.38572 -8.12263,-9.79222 -9.98828,-9.79222 -1.86564,0 -6.05937,3.81897 -9.3194,8.48659 -3.26003,4.66763 -6.57148,9.07412 -7.35878,9.79222 -2.64588,2.41335 -11.0894,18.63078 -10.17244,19.53818 0.49898,0.49381 11.32414,-0.24884 24.05591,-1.6506 25.90022,-2.85134 30.38211,-2.05856 30.38211,5.37416 0,4.06254 -2.06294,5.31756 -9.79222,5.95727 l -9.79222,0.81045 -0.35724,19.12709 c -0.46292,24.78702 0.79315,29.18117 8.34146,29.18117 8.3761,0 10.29074,-4.20661 9.50803,-20.89006 -0.74508,-15.88191 2.00691,-22.48358 8.35678,-20.04689 3.37448,1.2949 4.18044,5.83758 4.18044,23.56209 0,23.96631 -0.68853,25.25945 -16.08946,30.21712 -5.25871,1.69282 -10.03181,4.48987 -10.60689,6.21566 -1.02809,3.08525 -0.97781,9.75164 0.52612,69.72483 0.41417,16.5162 0.59656,38.54867 0.40534,48.96117 -0.31245,17.0129 -0.8719,18.9315 -5.52045,18.9315 -3.24988,0 -5.64154,-2.184 -6.43381,-5.8753 z M 71.407015,1018.5432 c -0.256061,-7.5401 -0.290835,-16.0593 -0.07732,-18.93173 2.030399,-27.31292 1.653503,-82.27946 -0.850484,-124.03472 -4.793237,-79.92968 -3.470618,-90.23392 12.491171,-97.31636 3.949527,-1.75247 7.180959,-4.02127 7.180959,-5.04179 0,-1.02054 4.406496,-2.56397 9.792214,-3.42989 5.385715,-0.86592 12.179675,-2.05226 15.097665,-2.63629 3.18118,-0.63673 6.49619,0.84473 8.27932,3.69999 2.68018,4.29165 1.5116,5.10349 -11.8336,8.22093 -16.075084,3.75518 -29.169371,14.24361 -29.169371,23.36444 0,4.60054 1.719739,5.24628 13.972255,5.24628 7.684736,0 17.774276,-1.3254 22.421196,-2.94532 6.92872,-2.41536 9.17736,-2.21688 12.49739,1.10316 5.50819,5.50818 2.35067,12.28718 -5.72313,12.28718 -6.23767,0 -6.6101,0.77651 -6.6101,13.78159 0,17.0389 -4.98225,22.14746 -22.704387,23.27986 -12.035721,0.76907 -12.525768,1.10767 -12.012523,8.30022 0.294289,4.12411 0.93355,7.89689 1.420579,8.38391 1.502115,1.50212 20.895501,1.25086 33.949141,-0.43981 10.92754,-1.41533 12.40347,-1.0285 12.40347,3.25084 0,2.67152 -2.35013,6.32501 -5.22251,8.11883 -4.16644,2.60197 -5.22252,6.08951 -5.22252,17.24654 l 0,13.98502 -11.18515,4.27165 c -6.15183,2.3494 -13.710568,4.27164 -16.797202,4.27164 -6.284585,0 -10.714279,9.35049 -6.449898,13.6149 2.623366,2.62337 4.95241,2.76639 30.93002,1.89956 19.49168,-0.65042 24.90699,4.94203 10.19998,10.53362 -5.15949,1.96165 -5.8691,4.12316 -6.00249,18.2838 -0.17331,18.39851 -3.24899,22.16497 -19.92657,24.40191 -12.576161,1.68682 -14.62411,4.68513 -14.675052,21.48514 -0.04206,13.8698 -3.201664,19.454 -11.007265,19.454 -3.870205,0 -4.782476,-2.4211 -5.165801,-13.7091 z m 34.720645,-50.21645 c 2.65605,-16.47076 -1.45226,-20.78782 -13.597143,-14.28806 -4.054084,2.16967 -4.867226,4.73515 -3.931358,12.40346 0.648955,5.31741 1.263679,10.62736 1.366055,11.79988 0.102381,1.17254 3.403657,1.76007 7.336177,1.30564 6.112239,-0.70632 7.393339,-2.33499 8.826269,-11.22092 z m -3.33306,-61.10438 c 1.92711,-1.22141 4.07934,-6.49123 4.78273,-11.71067 1.22466,-9.08758 0.94678,-9.48992 -6.55435,-9.48992 -12.850157,0 -16.094141,2.38621 -16.094141,11.83855 0,6.06001 1.375121,9.02793 4.569699,9.86274 7.385692,1.93009 9.591896,1.84702 13.296062,-0.5007 z M 96.706546,841.6304 c 6.564234,0 10.930704,-7.07342 9.669794,-15.66454 -1.16862,-7.96229 -1.59599,-8.22622 -10.6796,-6.59559 -8.820552,1.58341 -15.990416,7.18189 -15.990416,12.48586 0,5.70541 5.906996,12.68161 9.553232,11.28244 2.161605,-0.82951 5.51275,-1.50817 7.44699,-1.50817 z m 122.702044,187.2584 c -5.31289,-6.439 -9.32417,-22.7927 -10.29144,-41.95728 -0.54705,-10.83928 -1.61472,-20.71105 -2.37256,-21.93731 -2.53394,-4.09998 -4.08411,-46.38768 -1.83394,-50.02852 1.22111,-1.97579 4.1014,-2.87048 6.40061,-1.98817 3.06803,1.17728 4.22779,5.27402 4.3584,15.39522 0.34976,27.10355 4.58161,56.27701 11.4963,79.25276 2.73782,9.0972 2.93296,13.6519 0.78672,18.3624 -3.18669,6.994 -4.73357,7.5192 -8.54409,2.9009 z m -80.97333,-1.8984 c -0.901,-1.4579 -0.32316,-9.3896 1.2841,-17.626 1.60726,-8.2365 3.93083,-20.26324 5.16351,-26.72611 1.23268,-6.46285 1.95582,-23.25888 1.60697,-37.32447 -0.36901,-14.87943 0.45312,-26.24587 1.966,-27.18086 4.87351,-3.01201 12.6957,10.09831 11.14636,18.68177 -0.79027,4.37819 -1.59048,20.29853 -1.77828,35.37854 -0.1878,15.08001 -1.22481,28.59323 -2.30447,30.02953 -1.07968,1.4362 -2.72291,6.612 -3.65162,11.5018 -2.49771,13.1507 -9.33218,19.9003 -13.43257,13.2658 z"
       id="path3002"
       inkscape:connector-curvature="0" />
  </g>
</svg>
