<?xml version="1.0" encoding="UTF-8" standalone="no"?>
<!-- Created with Inkscape (http://www.inkscape.org/) -->

<svg
   xmlns:dc="http://purl.org/dc/elements/1.1/"
   xmlns:cc="http://creativecommons.org/ns#"
   xmlns:rdf="http://www.w3.org/1999/02/22-rdf-syntax-ns#"
   xmlns:svg="http://www.w3.org/2000/svg"
   xmlns="http://www.w3.org/2000/svg"
   xmlns:sodipodi="http://sodipodi.sourceforge.net/DTD/sodipodi-0.dtd"
   xmlns:inkscape="http://www.inkscape.org/namespaces/inkscape"
   width="300"
   height="300"
   id="svg2"
   version="1.1"
   inkscape:version="0.48.4 r9939"
   sodipodi:docname="image-seal.svg">
  <defs
     id="defs4" />
  <sodipodi:namedview
     id="base"
     pagecolor="#ffffff"
     bordercolor="#666666"
     borderopacity="1.0"
     inkscape:pageopacity="0.0"
     inkscape:pageshadow="2"
     inkscape:zoom="2.0018437"
     inkscape:cx="145.03351"
     inkscape:cy="130.6666"
     inkscape:document-units="px"
     inkscape:current-layer="layer1"
     showgrid="false"
     inkscape:window-width="1215"
     inkscape:window-height="1000"
     inkscape:window-x="65"
     inkscape:window-y="24"
     inkscape:window-maximized="1"
     fit-margin-top="10"
     fit-margin-left="10"
     fit-margin-right="10"
     fit-margin-bottom="10" />
  <metadata
     id="metadata7">
    <rdf:RDF>
      <cc:Work
         rdf:about="">
        <dc:format>image/svg+xml</dc:format>
        <dc:type
           rdf:resource="http://purl.org/dc/dcmitype/StillImage" />
        <dc:title />
      </cc:Work>
    </rdf:RDF>
  </metadata>
  <g
     inkscape:label="Calque 1"
     inkscape:groupmode="layer"
     id="layer1"
     transform="translate(0,-752.36218)">
    <path
       style="fill:#000000"
       d="m 70.009038,1042.0946 c 0.0863,-3.2488 1.6352,-23.6685 3.44208,-45.37721 3.38995,-40.72901 3.44737,-75.25733 0.27621,-166.09692 l -1.84245,-52.77847 7.46037,-7.46037 c 9.05391,-9.05391 22.193372,-13.0004 43.346402,-13.01926 13.94158,-0.0127 15.91551,0.58563 15.91551,4.82234 0,3.78782 -2.34671,5.11935 -10.82255,6.14079 -15.05064,1.81381 -24.79409,4.18262 -33.879782,8.23677 -6.87654,3.06841 -7.65963,4.48777 -6.75433,12.24236 l 1.02404,8.77156 19.486712,-1.16173 c 12.33773,-0.73555 20.88805,-0.10263 23.30646,1.72493 2.92502,2.21053 3.0635,3.19275 0.59114,4.19342 -6.25935,2.53342 -10.77706,8.92692 -10.77706,15.25174 0,8.69575 5.26151,6.5717 10.81366,-4.36546 4.47506,-8.81538 13.37791,-12.13729 13.37791,-4.99169 0,2.07312 2.93291,6.65678 6.51761,10.18593 15.24721,15.01084 22.14252,31.05484 14.49086,33.71731 -2.97694,1.03586 -11.53872,-5.8624 -12.55051,-10.112 -0.25007,-1.05042 -1.81088,-3.26601 -3.46839,-4.92352 -2.32055,-2.32055 -5.26314,-0.70998 -12.79448,7.00283 -5.37947,5.50905 -10.69418,10.01648 -11.81051,10.01648 -3.13634,0 -2.39766,-8.79937 1.02611,-12.22311 2.37671,-2.37671 1.81083,-3.05578 -2.54648,-3.05578 -3.08124,0 -5.60226,1.14592 -5.60226,2.54648 0,1.40057 -1.73443,2.54648 -3.85428,2.54648 -2.11984,0 -5.84409,1.01223 -8.27606,2.24939 -2.43199,1.23715 -7.57305,3.72262 -11.424612,5.52326 -5.1679,2.41603 -7.00282,5.1235 -7.00282,10.33273 0,9.5694 3.54944,11.14719 23.071962,10.256 12.50485,-0.57084 17.50891,0.20525 19.89965,3.08578 2.63933,3.1802 2.28104,4.33693 -2.06352,6.66208 -4.11822,2.204 -5.25736,5.30021 -5.25736,14.2897 0,15.61301 -6.05963,21.80014 -22.93949,23.42207 l -12.971212,1.24638 0.76662,10.48605 0.76659,10.48608 19.590992,0 c 22.13789,0 27.89976,2.92766 19.93964,10.13147 -4.00549,3.62489 -5.15314,7.84197 -5.15314,18.93518 0,16.40674 -3.37724,20.00757 -22.88884,24.40399 l -11.429672,2.57543 -3.84921,24.17981 c -3.46388,21.7591 -4.42281,24.2613 -9.57879,24.9936 -4.56241,0.6479 -5.69763,-0.3896 -5.57272,-5.0929 z m 35.142482,-60.38508 c 3.82906,-2.42599 8.61793,-23.56246 5.88889,-25.99173 -0.94477,-0.841 -6.58793,-1.00713 -12.54033,-0.36914 l -10.822542,1.15995 0,13.73819 c 0,13.29889 0.22384,13.73691 7.00282,13.69917 3.851562,-0.0204 8.563562,-1.02783 10.471162,-2.23644 z m 2.79866,-77.14564 c 5.04457,-5.41471 7.13508,-18.5464 3.28231,-20.61804 -1.05042,-0.56481 -6.78001,-0.5121 -12.73241,0.11714 -10.701002,1.13125 -10.822542,1.25643 -10.822542,11.14462 0,7.99088 1.15137,10.46331 5.72958,12.30352 8.250092,3.31613 8.814312,3.20177 14.543062,-2.94729 z m -4.82635,-68.3644 c 3.85438,-2.06283 4.92556,-5.38553 4.92556,-15.27889 l 0,-12.64282 -10.01679,0 c -9.034402,0 -10.095802,0.68679 -10.822542,7.00282 -0.44317,3.85156 -0.39392,10.72705 0.1095,15.27889 0.98538,8.91057 6.20962,10.77492 15.804302,5.64 z m 14.34512,176.24672 c -2.37964,-0.4529 -4.3266,-3.0312 -4.3266,-5.7296 0,-4.4893 2.11014,-4.9302 24.82819,-5.1881 13.6555,-0.1551 27.44615,-0.068 30.64587,0.1937 5.77069,0.4719 5.81184,0.2529 5.09297,-27.09277 l -0.72473,-27.56845 -17.18875,-0.75297 c -14.84091,-0.65012 -17.18874,-1.4051 -17.18874,-5.52727 0,-4.3748 9.92954,-8.82867 16.82284,-7.54583 1.25167,0.233 5.99999,0.28783 10.55183,0.12198 l 8.27606,-0.30156 0,-16.55212 c 0,-15.18085 -2.39013,-20.4391 -6.3662,-14.00565 -2.94638,4.76735 -6.255,2.56158 -11.45917,-7.63944 -2.85807,-5.60226 -6.25431,-10.18592 -7.54723,-10.18592 -1.29293,0 -4.2679,3.24546 -6.61107,7.21214 -2.34317,3.96668 -6.41869,8.56005 -9.05666,10.20749 -9.75478,6.09197 -5.05752,-9.29397 9.72531,-31.85543 l 4.24025,-6.4714 12.01516,13.00007 c 6.60832,7.15006 12.79887,13.00009 13.75675,13.00009 0.95789,0 0.94757,-13.46452 -0.0229,-29.92115 -3.44434,-58.4043 -3.42203,-65.23323 0.23479,-71.88051 8.56221,-15.56447 20.96864,-24.60127 35.56502,-25.9055 7.89309,-0.70525 10.14665,0.0369 10.85063,3.57391 0.51864,2.60584 -1.04487,5.10434 -3.75606,6.00223 -26.25913,8.69644 -29.90447,13.78622 -30.99179,43.27212 -0.48534,13.16111 0.0876,23.92722 1.27324,23.92472 1.18561,-0.002 5.40946,-5.15486 9.38633,-11.44969 3.97683,-6.29482 8.35887,-12.14241 9.73779,-12.99464 6.44782,-3.98496 32.19633,30.36373 27.23899,36.33696 -4.25069,5.12179 -9.69109,4.07628 -12.17029,-2.33876 -1.21786,-3.15127 -4.71405,-8.58333 -7.76932,-12.07119 -6.09594,-6.95915 -5.84809,-7.11545 -14.09449,8.88808 -1.44337,2.80113 -5.18229,6.22414 -8.30871,7.60667 -5.07335,2.2435 -5.68435,4.36482 -5.68435,19.73523 0,9.47184 0.62503,17.22152 1.38898,17.22152 2.56654,0 12.58292,-11.39382 16.23007,-18.46199 1.98737,-3.85155 4.36591,-7.00282 5.28568,-7.00282 5.74422,0 26.69295,33.9056 24.4922,39.64071 -2.48529,6.47654 -6.50419,3.91104 -11.91908,-7.6086 -2.91055,-6.19192 -6.84064,-11.85234 -8.73354,-12.57873 -3.31032,-1.27028 -8.86412,5.1773 -12.1367,14.08999 -0.86008,2.34235 -4.21216,4.63418 -7.44907,5.09296 -5.22887,0.74107 -5.86786,2.17706 -5.72877,12.87424 0.0861,6.62205 1.03341,12.917 2.10518,13.98876 1.07176,1.07176 8.62661,1.70673 16.78859,1.41106 15.55538,-0.56351 22.41585,3.15679 19.55745,10.60563 -1.0208,2.66021 -6.40804,3.95013 -18.74686,4.48876 l -17.31441,0.75585 0.0204,24.9343 c 0.0178,19.31327 0.87767,25.47561 3.81972,27.33571 2.08906,1.32071 11.53324,2.41891 20.98705,2.44031 15.42287,0.035 17.18875,0.5573 17.18875,5.0835 0,3.1559 -2.145,5.5216 -5.72958,6.3191 -6.00198,1.3353 -99.58283,0.6993 -107.08194,-0.7277 z m 92.43967,-169.94123 c 0,-2.18351 1.14592,-3.26179 2.54648,-2.39619 1.40057,0.8656 2.54648,2.65211 2.54648,3.97002 0,1.3179 -1.14591,2.39618 -2.54648,2.39618 -1.40056,0 -2.54648,-1.7865 -2.54648,-3.97001 z"
       id="path3198"
       inkscape:connector-curvature="0" />
  </g>
</svg>
