<?xml version="1.0" encoding="UTF-8" standalone="no"?>
<!-- Created with Inkscape (http://www.inkscape.org/) -->

<svg
   xmlns:dc="http://purl.org/dc/elements/1.1/"
   xmlns:cc="http://creativecommons.org/ns#"
   xmlns:rdf="http://www.w3.org/1999/02/22-rdf-syntax-ns#"
   xmlns:svg="http://www.w3.org/2000/svg"
   xmlns="http://www.w3.org/2000/svg"
   xmlns:sodipodi="http://sodipodi.sourceforge.net/DTD/sodipodi-0.dtd"
   xmlns:inkscape="http://www.inkscape.org/namespaces/inkscape"
   width="300"
   height="300"
   viewBox="0 0 300 300"
   id="svg2"
   version="1.1"
   inkscape:version="0.91 r13725"
   sodipodi:docname="階-seal.svg">
  <defs
     id="defs4" />
  <sodipodi:namedview
     id="base"
     pagecolor="#ffffff"
     bordercolor="#666666"
     borderopacity="1.0"
     inkscape:pageopacity="0.0"
     inkscape:pageshadow="2"
     inkscape:zoom="1.33"
     inkscape:cx="180.15639"
     inkscape:cy="147.06767"
     inkscape:document-units="px"
     inkscape:current-layer="layer1"
     showgrid="false"
     units="px"
     inkscape:window-width="937"
     inkscape:window-height="613"
     inkscape:window-x="14"
     inkscape:window-y="7"
     inkscape:window-maximized="0" />
  <metadata
     id="metadata7">
    <rdf:RDF>
      <cc:Work
         rdf:about="">
        <dc:format>image/svg+xml</dc:format>
        <dc:type
           rdf:resource="http://purl.org/dc/dcmitype/StillImage" />
        <dc:title></dc:title>
      </cc:Work>
    </rdf:RDF>
  </metadata>
  <g
     inkscape:label="Layer 1"
     inkscape:groupmode="layer"
     id="layer1"
     transform="translate(0,-752.36216)">
    <path
       style="fill:#000000"
       d="m 68.409718,1032.0552 c -1.1516,-2.4954 -1.80227,-11.5371 -1.44592,-20.0926 0.35634,-8.5556 0.49396,-52.30559 0.30581,-97.22225 -0.18814,-44.91667 -0.36821,-89.46682 -0.40016,-99.00033 -0.0577,-17.21104 0.0268,-17.41738 11.94472,-29.16667 8.74012,-8.61647 14.06424,-11.833 19.58641,-11.833 4.170982,0 11.860762,-1.78712 17.088412,-3.97137 11.42909,-4.77538 14.46176,-3.36681 14.46176,6.71697 0,6.48648 -1.00817,7.62477 -6.75312,7.62477 -12.68509,0 -39.913552,16.25571 -39.913552,23.82885 0,1.15339 8.68114,2.09707 19.291442,2.09707 10.61029,0 20.01247,1.16667 20.89374,2.5926 2.83721,4.59068 8.67671,2.76377 10.35861,-3.24074 3.40454,-12.15448 7.78472,-17.85887 16.71544,-21.76885 5.07224,-2.22069 11.70823,-5.20807 14.74665,-6.63862 8.26569,-3.89168 16.51264,-0.29912 16.51264,7.19329 0,3.87762 -1.49787,6.30677 -3.88889,6.30677 -2.13889,0 -3.96171,0.29167 -4.05071,0.64815 -3.80424,15.23777 -1.67365,38.89672 5.64223,62.65361 2.55148,8.28541 -2.6654,19.6612 -9.01651,19.6612 -4.06937,0 -8.47866,-19.04538 -10.86994,-46.95141 -1.92074,-22.41486 -3.88625,-27.1355 -10.27716,-24.68307 -4.66349,1.78954 -4.61551,11.09045 0.33274,64.50485 1.50966,16.29621 1.26556,17.5 -3.54858,17.5 -8.29943,0 -10.18879,-4.99591 -11.83142,-31.28503 -0.85239,-13.64195 -2.30066,-26.76025 -3.21837,-29.15178 -2.26904,-5.91301 -6.31043,-2.90551 -6.31043,4.69607 0,3.39651 -1.16667,6.89651 -2.59259,7.77778 -1.42593,0.88127 -2.59259,4.53346 -2.59259,8.11597 0,9.15093 -5.24525,13.37633 -19.590312,15.7813 -12.90419,2.16341 -15.62632,4.68812 -11.71811,10.8683 1.82571,2.88705 3.85844,3.06223 9.68008,0.83423 4.243752,-1.62413 12.317072,-2.07448 19.035742,-1.06186 9.35539,1.41001 11.82654,2.88154 12.47366,7.42784 0.53873,3.78481 -1.40041,7.11583 -5.83333,10.0204 -5.1609,3.38155 -6.64033,6.50541 -6.64033,14.02128 0,11.53741 -6.21315,18.21621 -17.055992,18.33425 -4.1655,0.0453 -9.78842,1.75889 -12.49538,3.80786 -8.95283,6.77665 -1.01463,11.35932 21.147762,12.20848 10.80978,0.41419 20.05704,1.97252 20.54947,3.46297 0.49242,1.49044 -1.45562,5.23333 -4.32898,8.31751 -3.47927,3.73457 -5.22428,9.16466 -5.22428,16.25684 0,17.27772 -8.13174,28.21757 -21.090722,28.37407 -8.28142,0.1 -15.20558,9.5271 -15.20558,20.7023 0,7.3175 -6.50732,18.269 -10.85534,18.269 -1.05885,0 -2.86741,-2.0417 -4.01902,-4.537 z m 27.27933,-53.14819 c 1.46822,-1.7824 3.06941,-7.32407 3.55819,-12.31481 0.754052,-7.6993 0.0267,-9.19674 -4.80122,-9.88375 -4.72864,-0.67288 -6.18592,1.03239 -8.6259,10.09378 -2.34452,8.70686 -2.24284,11.34289 0.50472,13.08478 4.68199,2.96828 6.24679,2.80452 9.36421,-0.98 z m 3.73135,-74.72606 c 1.327162,-9.04252 0.48336,-10.18134 -7.54374,-10.18134 -6.12928,0 -6.46079,2.90412 -1.9927,17.45629 1.73716,5.65779 8.38233,0.58847 9.53644,-7.27495 z m -2.04584,-56.78384 c 5.075342,-1.92964 6.650262,-4.34932 6.650262,-10.21736 0,-9.77068 -3.52785,-11.90311 -13.119452,-7.93014 -8.12312,3.36471 -10.28621,11.78879 -4.51018,17.56481 3.73005,3.73005 2.8272,3.68214 10.97937,0.58269 z m 67.022432,177.00739 c -3.15642,-0.6111 -9.15744,-4.3045 -13.33561,-8.2075 -6.88388,-6.4305 -7.75085,-9.1514 -9.24,-28.99872 -2.3157,-30.86364 -3.58581,-80.91632 -2.15113,-84.77275 0.66309,-1.7824 2.91414,-3.24074 5.00232,-3.24074 6.49232,0 11.2041,7.00901 11.2041,16.66667 0,6.33351 1.18047,9.25926 3.73588,9.25926 5.75338,0 7.44917,-4.73638 6.96799,-19.46168 -0.53453,-16.35771 3.3799,-21.1679 13.48075,-16.56565 5.84088,2.66129 6.58322,4.48988 6.3303,15.59345 -0.23116,10.14766 0.87754,13.58821 5.73671,17.80255 8.77847,7.61352 10.41504,6.57436 10.41504,-6.61319 0,-12.13906 3.474,-21.86659 7.80923,-21.86659 1.34288,0 4.38916,2.97235 6.76951,6.60522 3.48417,5.31751 4.47056,14.54167 5.05968,47.31481 0.41783,23.24463 -0.51111,46.50236 -2.16529,54.21216 -2.73398,12.7424 -3.58977,13.8005 -15.20276,18.7963 -11.42838,4.9163 -26.35079,6.1999 -40.41672,3.4764 z m 30.39578,-18.0556 c 5.95501,-3.5177 12.93575,-13.04344 12.93575,-17.65177 0,-3.88452 -16.65224,-7.73212 -30.59981,-7.07026 l -16.34056,0.77541 0.785,12.08322 c 0.67374,10.3706 1.70366,12.337 7.26648,13.8736 11.03017,3.0468 18.35245,2.4796 25.95314,-2.0102 z m 2.77742,-42.34929 c 6.28239,0 7.56574,-1.06802 7.56574,-6.2963 0,-6.02286 -5.92295,-14.44444 -10.15886,-14.44444 -1.1059,0 -4.70107,-2.33334 -7.98929,-5.18519 -7.62757,-6.61536 -7.61618,-6.61675 -20.14224,2.45708 -6.92146,5.01389 -10.24429,9.24929 -9.66142,12.31482 0.48863,2.5699 0.97768,6.06696 1.08678,7.77124 0.18866,2.94704 20.65791,5.98193 28.28077,4.19306 1.89904,-0.44565 6.85737,-0.81027 11.01852,-0.81027 z m -7.29818,-83.61111 c -5.04024,-6.44127 -8.46941,-28.0913 -8.46941,-53.47152 0,-29.1039 0.25845,-29.51563 25.38929,-40.44603 10.18429,-4.42955 11.48114,-4.4898 15.26193,-0.70901 5.08315,5.08316 2.74511,12.29643 -4.609,14.21957 -4.43678,1.16025 -5.16918,2.86936 -4.06077,9.47609 2.22201,13.24442 4.58127,23.30215 6.75596,28.80127 15.01615,37.97116 14.8278,37.06442 8.63916,41.58966 -3.78927,2.77078 -5.38865,2.28687 -10.4337,-3.15683 -5.34754,-5.77009 -14.62828,-33.49258 -16.70398,-49.89643 -0.43695,-3.45312 -2.42896,-6.8174 -4.42669,-7.47618 -2.98405,-0.98402 -3.30474,1.75575 -1.79701,15.35248 2.07777,18.7375 2.73192,22.46229 5.06929,28.86507 3.61891,9.91339 4.02769,12.46706 2.59381,16.20371 -1.81167,4.72114 -9.71821,5.1091 -13.20888,0.64815 z"
       id="path3490"
       inkscape:connector-curvature="0" />
  </g>
</svg>
