<?xml version="1.0" encoding="UTF-8" standalone="no"?>
<!-- Created with Inkscape (http://www.inkscape.org/) -->

<svg
   xmlns:dc="http://purl.org/dc/elements/1.1/"
   xmlns:cc="http://creativecommons.org/ns#"
   xmlns:rdf="http://www.w3.org/1999/02/22-rdf-syntax-ns#"
   xmlns:svg="http://www.w3.org/2000/svg"
   xmlns="http://www.w3.org/2000/svg"
   xmlns:sodipodi="http://sodipodi.sourceforge.net/DTD/sodipodi-0.dtd"
   xmlns:inkscape="http://www.inkscape.org/namespaces/inkscape"
   width="300"
   height="300"
   viewBox="0 0 300 300"
   id="svg2"
   version="1.1"
   inkscape:version="0.91 r13725"
   sodipodi:docname="雀-seal.svg">
  <defs
     id="defs4">
    <clipPath
       clipPathUnits="userSpaceOnUse"
       id="clipPath4204">
      <rect
         style="fill:#0000ff;fill-rule:evenodd;stroke:#000000;stroke-width:1px;stroke-linecap:butt;stroke-linejoin:miter;stroke-opacity:1"
         id="rect4206"
         width="15.451179"
         height="21.584471"
         x="164.41942"
         y="794.64594" />
    </clipPath>
  </defs>
  <sodipodi:namedview
     id="base"
     pagecolor="#ffffff"
     bordercolor="#666666"
     borderopacity="1.0"
     inkscape:pageopacity="0.0"
     inkscape:pageshadow="2"
     inkscape:zoom="1.71"
     inkscape:cx="150"
     inkscape:cy="150"
     inkscape:document-units="px"
     inkscape:current-layer="layer1"
     showgrid="false"
     inkscape:window-width="1280"
     inkscape:window-height="751"
     inkscape:window-x="0"
     inkscape:window-y="1"
     inkscape:window-maximized="1"
     units="px"
     showguides="false" />
  <metadata
     id="metadata7">
    <rdf:RDF>
      <cc:Work
         rdf:about="">
        <dc:format>image/svg+xml</dc:format>
        <dc:type
           rdf:resource="http://purl.org/dc/dcmitype/StillImage" />
        <dc:title></dc:title>
      </cc:Work>
    </rdf:RDF>
  </metadata>
  <g
     inkscape:label="Layer 1"
     inkscape:groupmode="layer"
     id="layer1"
     transform="translate(0,-752.36216)">
    <path
       style="fill:#000000"
       d="m 82.049401,1034.7641 c -2.73217,-8.1828 5.46621,-78.81543 10.1282,-87.25888 3.680894,-11.20156 8.359959,-22.98515 16.851019,-32.63115 2.77822,-3.02466 11.03891,-9.40766 18.35707,-14.18442 14.8888,-9.71834 14.72433,-10.31487 -5.33874,-19.36169 -11.1623,-5.03332 -12.62294,-5.17018 -16.61558,-1.55689 -6.134699,5.55183 -17.884649,5.24966 -17.823049,-0.45835 0.046,-4.27022 7.67628,-9.63469 37.151049,-26.11935 7.26281,-4.06195 14.78161,-10.50187 16.70848,-14.31095 2.97956,-5.89017 6.58419,-40.6314 6.68024,-64.38411 0.0285,-7.03282 5.62502,-9.66689 8.9857,-4.2292 0.92333,1.49397 1.84281,18.75708 2.0433,38.36243 l 0.3645,35.64612 14.37256,7.7702 c 7.90492,4.2736 19.63181,11.47726 26.05979,16.00809 15.6085,11.0019 14.59095,16.2208 -3.67515,18.84955 -7.53413,1.08426 -14.08309,2.35607 -14.55326,2.82622 -2.46261,2.46264 3.03845,9.15477 7.52539,9.15477 2.85737,0 9.55503,1.92354 14.88367,4.27453 7.20017,3.17669 9.68844,5.77134 9.68844,10.1026 0,8.05462 -4.02583,7.42838 -27.47865,-4.27454 -11.13515,-5.55642 -20.87317,-10.10259 -21.64003,-10.10259 -0.76687,0 -1.39429,5.68271 -1.39429,12.62824 0,14.10517 -2.34648,12.92289 27.05927,13.63378 10.42817,0.25206 21.37547,6.96589 17.5675,10.77384 -0.98839,0.98838 -11.43374,1.58984 -23.21192,1.33657 l -21.41485,-0.46053 0,8.49573 c 0,7.85519 0.71405,8.61375 9.47118,10.0612 5.20915,0.86101 13.76888,1.578 19.02162,1.59328 6.40835,0.0177 10.06092,1.35806 11.10204,4.07116 2.42374,6.3162 -3.46198,8.1284 -22.24729,6.84987 l -17.34755,-1.18067 0,15.18958 0,15.18958 21.31509,-0.0594 c 21.42757,-0.0596 30.36129,1.42356 36.073,5.98928 2.43177,1.9439 2.43177,3.0975 0,5.4375 -2.26389,2.1784 -12.17509,2.4531 -37.1829,1.0304 -18.75294,-1.0669 -45.76705,-2.3454 -60.03135,-2.8412 -24.676899,-0.8577 -25.987109,-0.6442 -27.007419,4.4015 -4.4611,22.0615 -5.70097,25.5456 -9.34017,26.2464 -2.20628,0.4249 -4.50437,-0.7039 -5.10691,-2.5085 z m 65.613939,-45.58568 c 0.30917,-3.12549 -0.0687,-9.37647 -0.8398,-13.89107 l -1.40191,-8.20835 -19.88418,0 c -26.381739,0 -27.874239,0.73572 -27.874239,13.74033 0,5.87085 0.75769,11.43197 1.68377,12.35802 0.926049,0.92608 12.049619,1.68378 24.718999,1.68378 22.0381,0 23.0596,-0.246 23.59736,-5.68271 z m -3.48221,-33.73506 c 4.87175,-1.86946 5.611,-18.55089 0.83798,-18.90905 -15.85157,-1.18943 -35.56057,0.0596 -37.90298,2.40197 -2.46322,3.22592 -0.0564,4.46419 -1.90391,7.98973 -1.50223,2.80691 -2.0434,6.21653 -1.20264,7.57695 1.66031,2.68641 33.66886,3.43572 40.17155,0.9404 z m 0,-30.30778 c 2.80097,-1.07482 3.99504,-4.83717 3.99504,-12.58771 l 0,-11.05466 -9.67512,5.04297 c -5.32132,2.77361 -12.07472,7.80271 -15.00753,11.17576 l -5.33243,6.13283 8.062,1.00774 c 4.43413,0.55425 9.38975,1.1896 11.01251,1.41191 1.62277,0.22226 4.74826,-0.28568 6.94553,-1.12884 z m 42.43036,-48.52028 c 2.84383,-2.84381 -23.18437,-21.45756 -33.55114,-23.99371 -6.48716,-1.58704 -12.91023,1.53825 -23.82636,11.59326 -5.03534,4.63812 -5.0314,4.66782 1.26282,9.5034 8.29337,6.37143 14.59615,6.2112 20.03819,-0.50942 5.34958,-6.60646 12.79506,-4.7443 12.79506,3.2001 0,4.94246 0.99195,5.33008 10.4084,4.06705 5.72464,-0.76782 11.51749,-2.50514 12.87303,-3.86068 z M 77.458021,852.70188 c 0,-1.78672 4.53283,-8.32181 10.07294,-14.52248 12.00491,-13.43619 15.894459,-25.66677 14.760719,-46.41465 -0.77593,-14.19957 -0.45469,-15.30573 4.2113,-14.50068 2.77821,0.47935 5.61956,1.43338 6.31412,2.12011 2.26641,2.24085 -0.005,39.69629 -2.56182,42.25364 -4.54661,10.23166 -18.780908,32.99744 -28.553889,34.31265 -2.33385,0 -4.24337,-1.46187 -4.24337,-3.24859 z m 127.500939,-0.94497 c -9.8502,-9.85023 -15.09325,-37.84151 -10.09613,-53.9008 2.87995,-9.25529 11.20454,-20.20074 15.3637,-20.20074 4.99174,0 4.52541,5.93972 -1.4348,18.27595 -2.77821,5.75022 -5.05129,13.69639 -5.05129,17.65814 0,7.29208 8.74157,27.15863 13.21603,30.03542 3.6846,2.36895 1.17693,10.89693 -3.46731,11.79131 -2.24636,0.43262 -6.08497,-1.21405 -8.5302,-3.65928 z"
       id="path5665"
       inkscape:connector-curvature="0"
       sodipodi:nodetypes="sccssscssssscssscssssssssscsscsscccsssssscssccsscsssscccssscsscscssssssssssssssccsssssssss" />
  </g>
</svg>
