<?xml version="1.0" encoding="UTF-8" standalone="no"?>
<!-- Created with Inkscape (http://www.inkscape.org/) -->

<svg
   xmlns:dc="http://purl.org/dc/elements/1.1/"
   xmlns:cc="http://creativecommons.org/ns#"
   xmlns:rdf="http://www.w3.org/1999/02/22-rdf-syntax-ns#"
   xmlns:svg="http://www.w3.org/2000/svg"
   xmlns="http://www.w3.org/2000/svg"
   xmlns:sodipodi="http://sodipodi.sourceforge.net/DTD/sodipodi-0.dtd"
   xmlns:inkscape="http://www.inkscape.org/namespaces/inkscape"
   width="300"
   height="300"
   id="svg2"
   version="1.1"
   inkscape:version="0.48.4 r9939"
   sodipodi:docname="dessin.svg">
  <defs
     id="defs4" />
  <sodipodi:namedview
     id="base"
     pagecolor="#ffffff"
     bordercolor="#666666"
     borderopacity="1.0"
     inkscape:pageopacity="0.0"
     inkscape:pageshadow="2"
     inkscape:zoom="1.979899"
     inkscape:cx="227.07871"
     inkscape:cy="107.23575"
     inkscape:document-units="px"
     inkscape:current-layer="layer1"
     showgrid="false"
     inkscape:window-width="1215"
     inkscape:window-height="1000"
     inkscape:window-x="65"
     inkscape:window-y="24"
     inkscape:window-maximized="1" />
  <metadata
     id="metadata7">
    <rdf:RDF>
      <cc:Work
         rdf:about="">
        <dc:format>image/svg+xml</dc:format>
        <dc:type
           rdf:resource="http://purl.org/dc/dcmitype/StillImage" />
        <dc:title />
      </cc:Work>
    </rdf:RDF>
  </metadata>
  <g
     inkscape:label="Calque 1"
     inkscape:groupmode="layer"
     id="layer1"
     transform="translate(0,-752.36218)">
    <path
       style="fill:#000000"
       d="m 146.67083,1024.929 c -0.3656,-11.4337 0.0964,-29.29292 1.02641,-39.68718 0.93015,-10.39427 2.75711,-30.80481 4.05991,-45.35676 4.75602,-53.12304 6.08758,-59.05485 16.39135,-73.01895 3.55652,-4.81998 6.4664,-10.07567 6.4664,-11.67935 0,-4.31212 -10.42061,-11.05488 -17.08477,-11.05488 -4.74127,0 -5.80227,-1.21308 -5.80227,-6.63396 0,-3.64866 1.95878,-8.50432 4.35284,-10.79037 26.1776,-24.99636 27.09002,-26.69291 27.55714,-51.24078 0.0964,-5.06794 1.29578,-6.92951 4.46441,-6.92951 5.33578,0 7.11099,4.72653 7.11099,18.93316 0,9.22319 1.05415,11.78794 6.64724,16.17276 3.65597,2.86617 7.51817,5.2126 8.58264,5.21428 1.06448,0.002 4.68114,2.55301 8.03704,5.66961 3.35591,3.11658 8.29184,7.68109 10.96873,10.14332 5.48205,5.04246 4.36961,9.3822 -2.40495,9.3822 -5.15107,0 -26.18946,11.18521 -28.38073,15.08882 -0.79828,1.42204 0.41625,3.37438 2.6989,4.33854 2.28266,0.96418 8.41932,4.92489 13.63702,8.80159 5.21771,3.87669 10.62479,7.04854 12.0157,7.04854 1.39094,0 2.52897,2.95771 2.52897,6.57273 0,5.90715 -0.63731,6.3986 -6.29394,4.85333 -3.46167,-0.94568 -6.63724,-2.7695 -7.05683,-4.05291 -0.41961,-1.28343 -2.47944,-2.36958 -4.57741,-2.41364 -2.09798,-0.0441 -5.81371,-1.74497 -8.25718,-3.77973 -6.7598,-5.62915 -8.1452,-4.57909 -8.1452,6.17359 0,12.31088 1.85035,17.84484 5.96663,17.84484 1.75348,0 3.18818,1.02127 3.18818,2.2695 0,1.24821 3.78301,3.2545 8.40666,4.45839 9.06549,2.36043 11.01542,5.06392 7.75208,10.74778 -1.77599,3.09331 -3.42834,3.12552 -11.41768,0.22251 -5.13767,-1.86679 -9.87719,-2.80408 -10.53226,-2.08283 -0.65509,0.72121 -1.38077,7.89691 -1.61262,15.94597 -0.47056,16.33567 -0.222,16.64748 17.13082,21.49361 8.27961,2.31226 10.87134,4.19991 10.87134,7.91803 0,3.44261 -1.18088,4.5159 -4.00524,3.64037 -9.98159,-3.09422 -17.94233,-3.97565 -20.26098,-2.24332 -3.1449,2.34963 -6.03982,26.01019 -3.68168,30.09076 0.95581,1.65394 6.86267,4.43296 13.12634,6.1756 13.0423,3.62858 17.11026,6.33022 17.11026,11.36344 0,4.9684 -6.23058,7.0552 -12.17008,4.0761 -9.14546,-4.5872 -21.27063,-8.2435 -27.33748,-8.2435 -3.298,0 -6.6329,-1.13388 -7.41088,-2.51977 -0.77797,-1.38592 -5.89065,-2.51983 -11.36155,-2.51983 l -9.94706,0 1.18182,14.489 c 1.53949,18.874 -2.48206,35.9074 -8.47765,35.9074 -3.92737,0 -4.4676,-2.2188 -5.06138,-20.7885 z m 37.09888,-55.8706 c 0,-16.1205 -0.0297,-16.19424 -7.66116,-18.96714 -12.50295,-4.54305 -15.22588,-1.79921 -15.22588,15.34278 0,16.26475 2.55642,19.29184 16.59311,19.64805 6.22783,0.15793 6.29393,-0.01 6.29393,-16.02369 z m 1.8758,-42.79218 c 1.09775,-14.7669 -1.05813,-20.67437 -8.84013,-24.22328 -8.83333,-4.02837 -10.88708,-1.74664 -11.38077,12.64391 -0.624,18.18796 -0.23782,19.7478 5.18506,20.94346 11.70198,2.58014 14.26663,0.9829 15.03584,-9.36409 z m -0.46776,-36.8159 c 2.85694,-3.14547 0.65867,-23.15312 -2.67767,-24.3708 -2.23531,-0.81583 -12.46259,17.19895 -12.46259,21.95218 0,1.15853 2.31731,2.59782 5.14959,3.19845 2.83227,0.60059 5.71603,1.24643 6.40837,1.43516 0.69232,0.18874 2.30435,-0.808 3.5823,-2.21499 z m 1.59888,-58.16762 c 3.59142,-13.65696 10.72532,-16.96565 10.72532,-4.97431 0,5.77752 1.0462,7.7442 4.11966,7.7442 5.07605,0 9.61256,-4.72024 9.61256,-10.00189 0,-2.6191 -4.4436,-5.45402 -13.16005,-8.39584 l -13.16006,-4.44155 -8.37582,10.54702 c -4.60672,5.80085 -7.91476,11.8699 -7.35121,13.48674 0.89837,2.5775 12.407,8.75833 14.05958,7.55081 0.34167,-0.24972 1.9302,-5.43149 3.53002,-11.51518 z M 92.221543,979.36225 c 0,-22.6364 0.736413,-41.96787 1.63647,-42.95881 0.900078,-0.99097 1.672515,-11.91136 1.716528,-24.26759 0.0952,-26.70661 1.57726,-29.08689 19.604419,-31.48512 10.55823,-1.40462 13.5613,-0.8789 18.10162,3.16888 7.79258,6.94723 4.19118,10.70868 -10.25301,10.70868 -15.09309,0 -14.02967,-3.36127 -17.13999,54.17613 -3.90075,72.15978 -3.85095,71.81488 -10.36806,71.81488 -2.736901,0 -3.297977,-7.002 -3.297977,-41.15705 z M 63.994197,872.68982 c -2.618208,-2.88259 -1.677391,-9.06555 2.012756,-13.22763 5.718372,-6.44973 25.274847,-41.11965 34.194687,-60.62068 5.94269,-12.99228 9.32127,-17.8032 12.09035,-17.21605 2.25312,0.47771 8.60162,11.27965 15.34549,26.11015 6.32637,13.91247 14.33477,29.31748 17.79644,34.23342 10.80667,15.34665 6.5581,32.80547 -4.52958,18.61363 -5.35434,-6.8534 -6.05442,-7.02281 -27.08958,-6.55567 -20.360154,0.45212 -21.593217,0.1857 -21.593217,-4.66782 0,-4.74739 1.346765,-5.13209 17.332247,-4.95117 9.53275,0.10788 18.00769,-0.54748 18.83321,-1.45638 0.82555,-0.9089 -1.82439,-8.71395 -5.88872,-17.34455 -4.06433,-8.63059 -7.38969,-17.15908 -7.38969,-18.95216 0,-4.51612 -4.88041,-2.29712 -7.84696,3.5678 -1.34871,2.66644 -5.28449,9.60677 -8.746151,15.42296 -3.461664,5.81617 -6.293936,12.26041 -6.293936,14.32054 0,2.06013 -0.772439,4.12366 -1.716529,4.58565 -0.944091,0.46195 -5.749911,7.35995 -10.679598,15.3289 -8.442937,13.64817 -12.262283,16.73843 -15.831219,12.80906 z"
       id="path3380"
       inkscape:connector-curvature="0" />
  </g>
</svg>
