<?xml version="1.0" encoding="UTF-8" standalone="no"?>
<!-- Created with Inkscape (http://www.inkscape.org/) -->

<svg
   xmlns:dc="http://purl.org/dc/elements/1.1/"
   xmlns:cc="http://creativecommons.org/ns#"
   xmlns:rdf="http://www.w3.org/1999/02/22-rdf-syntax-ns#"
   xmlns:svg="http://www.w3.org/2000/svg"
   xmlns="http://www.w3.org/2000/svg"
   xmlns:sodipodi="http://sodipodi.sourceforge.net/DTD/sodipodi-0.dtd"
   xmlns:inkscape="http://www.inkscape.org/namespaces/inkscape"
   width="300"
   height="300"
   id="svg2"
   version="1.1"
   inkscape:version="0.48.4 r9939"
   sodipodi:docname="image-seal.svg">
  <defs
     id="defs4" />
  <sodipodi:namedview
     id="base"
     pagecolor="#ffffff"
     bordercolor="#666666"
     borderopacity="1.0"
     inkscape:pageopacity="0.0"
     inkscape:pageshadow="2"
     inkscape:zoom="2.0018437"
     inkscape:cx="145.03351"
     inkscape:cy="130.6666"
     inkscape:document-units="px"
     inkscape:current-layer="layer1"
     showgrid="false"
     inkscape:window-width="1215"
     inkscape:window-height="1000"
     inkscape:window-x="65"
     inkscape:window-y="24"
     inkscape:window-maximized="1"
     fit-margin-top="10"
     fit-margin-left="10"
     fit-margin-right="10"
     fit-margin-bottom="10" />
  <metadata
     id="metadata7">
    <rdf:RDF>
      <cc:Work
         rdf:about="">
        <dc:format>image/svg+xml</dc:format>
        <dc:type
           rdf:resource="http://purl.org/dc/dcmitype/StillImage" />
        <dc:title />
      </cc:Work>
    </rdf:RDF>
  </metadata>
  <g
     inkscape:label="Calque 1"
     inkscape:groupmode="layer"
     id="layer1"
     transform="translate(0,-752.36218)">
    <path
       style="fill:#000000"
       d="m 127.65508,1021.392 c -7.71665,-25.75572 -11.67676,-28.47395 -49.789213,-34.17461 -18.72548,-2.80088 -21.715615,-31.03547 -3.78333,-35.72487 20.12394,-5.26255 17.88805,-28.16058 -2.74978,-28.16058 -8.98301,0 -16.332757,-2.9399 -16.332757,-6.53311 0,-8.60724 56.11475,-8.42882 72.29367,0.22997 29.13571,15.5929 7.66419,45.50193 -32.665553,45.50193 -27.27168,0 -25.34604,10.61454 2.88653,15.91099 24.062293,4.51412 38.431013,20.47933 45.948143,51.05338 6.94855,28.2615 -7.06478,21.0783 -15.80771,-8.1031 z m -2.02017,-83.28556 c -3.27968,-17.03005 -24.90316,-18.92936 -24.90316,-2.18729 0,9.34947 4.19576,13.54523 13.54529,13.54523 9.34953,0 12.86767,-3.51821 11.35787,-11.35794 z m 29.29205,20.90379 c 2.38844,-42.17677 7.87102,-76.81349 14.15136,-89.40279 11.84159,-23.73694 4.14696,-38.75009 -12.69611,-24.77159 -5.62893,4.67163 -12.36829,6.31184 -14.97637,3.64496 -2.60808,-2.66688 7.75258,-15.97979 23.02372,-29.58434 19.27646,-17.17267 27.76571,-29.95711 27.76571,-41.81386 0,-9.39311 2.9399,-17.07839 6.53311,-17.07839 3.59321,0 6.53311,7.74761 6.53311,17.21689 0,9.9728 6.87211,23.5857 16.33277,32.35359 19.70484,18.26181 20.95234,33.01324 3.26656,38.62649 -19.12692,6.07063 -15.94843,16.08295 6.53311,20.57929 10.77963,2.15593 19.59933,6.62549 19.59933,9.93235 0,3.33313 -10.18989,4.1009 -22.86589,1.72285 -14.98845,-2.81185 -22.86588,-1.7885 -22.86588,2.97054 0,3.9931 8.8197,7.26018 19.59933,7.26018 10.77963,0 19.59933,2.9399 19.59933,6.53311 0,3.59321 -8.8197,6.53311 -19.59933,6.53311 -13.06622,0 -19.59933,3.26655 -19.59933,9.79966 0,6.87518 6.93895,9.79966 23.25147,9.79966 13.83732,0 21.61668,2.64513 19.21374,6.53311 -2.22073,3.59321 -12.68383,6.53311 -23.2514,6.53311 -12.72349,0 -19.21381,3.31026 -19.21381,9.79967 0,7.07751 7.259,9.79966 26.13244,9.79966 14.37284,0 26.13243,2.9399 26.13243,6.53311 0,3.73321 -19.59932,6.53311 -45.73176,6.53311 l -45.73176,0 0,29.39904 c 0,17.81025 -2.96329,29.39885 -7.51746,29.39885 -5.43894,0 -6.43942,-19.0365 -3.61842,-68.85137 z m 37.26831,-12.8124 c 0,-5.44424 -5.80721,-9.79967 -13.06621,-9.79967 -7.25901,0 -13.06622,4.35543 -13.06622,9.79967 0,5.44423 5.80721,9.79966 13.06622,9.79966 7.259,0 13.06621,-4.35543 13.06621,-9.79966 z m 0,-32.66555 c 0,-5.44424 -5.80721,-9.79966 -13.06621,-9.79966 -7.25901,0 -13.06622,4.35542 -13.06622,9.79966 0,5.44424 5.80721,9.79966 13.06622,9.79966 7.259,0 13.06621,-4.35542 13.06621,-9.79966 z m 0,-35.9321 c 0,-7.18642 -2.9399,-13.06622 -6.53311,-13.06622 -3.59321,0 -6.5331,1.22953 -6.5331,2.73221 0,1.50275 -1.78446,7.38255 -3.96554,13.06622 -2.6022,6.7813 -0.35605,10.33401 6.53311,10.33401 6.14328,0 10.49864,-5.42059 10.49864,-13.06622 z m 12.51104,-44.04799 c 2.73744,7.80374 6.61066,9.17563 13.62297,4.82516 8.43862,-5.23537 7.94811,-7.93348 -3.53539,-19.44586 -11.61692,-11.64625 -14.90758,-12.21607 -25.56066,-4.42638 -8.40178,6.14354 -10.7356,12.81319 -7.45977,21.31839 4.64504,12.05985 4.95158,12.0496 11.93769,-0.39852 6.39748,-11.3995 7.58252,-11.6013 10.99516,-1.87252 z m -128.800383,62.3407 c -11.70269,-11.7027 -9.51122,-36.48245 3.59321,-40.63019 9.75968,-3.08899 11.2199,-10.96805 9.97697,-53.83446 -1.14211,-39.39131 0.25414,-48.50539 6.47889,-42.28091 4.634593,4.63459 7.957463,26.16321 7.989143,51.76091 0.0523,40.45602 1.18452,43.98658 14.75366,45.91371 10.57161,1.50144 14.69949,6.48209 14.69949,17.73622 0,24.60094 -39.548763,39.27731 -57.491363,21.33472 z M 119.12101,875.9669 c 1.67633,-8.83942 -2.299,-11.43294 -17.52467,-11.43294 -20.755103,0 -30.647083,8.40798 -23.499073,19.97374 6.77803,10.96707 38.579773,4.34622 41.023743,-8.5408 z M 60.343197,847.90916 c -3.855014,-5.90404 -4.482656,-87.84118 -0.67323,-87.88776 0.77188,-0.007 3.99198,5.12764 7.15579,11.41576 6.57361,13.0653 0.3162,86.88408 -6.48256,76.472 z m 64.130983,-7.38202 c -1.97072,-6.55892 -3.09944,-29.05502 -2.50833,-49.99142 0.89125,-31.56765 2.42653,-36.21746 8.99309,-27.23718 5.15286,7.04693 6.64639,23.76405 4.27644,47.8658 -4.12631,41.96281 -5.6919,46.23468 -10.7612,29.3628 z"
       id="path3067"
       inkscape:connector-curvature="0" />
  </g>
</svg>
