<?xml version="1.0" encoding="UTF-8" standalone="no"?>
<!-- Created with Inkscape (http://www.inkscape.org/) -->

<svg
   xmlns:dc="http://purl.org/dc/elements/1.1/"
   xmlns:cc="http://creativecommons.org/ns#"
   xmlns:rdf="http://www.w3.org/1999/02/22-rdf-syntax-ns#"
   xmlns:svg="http://www.w3.org/2000/svg"
   xmlns="http://www.w3.org/2000/svg"
   xmlns:sodipodi="http://sodipodi.sourceforge.net/DTD/sodipodi-0.dtd"
   xmlns:inkscape="http://www.inkscape.org/namespaces/inkscape"
   width="300"
   height="300"
   viewBox="0 0 300 300"
   id="svg2"
   version="1.1"
   inkscape:version="0.91 r13725"
   sodipodi:docname="雙-seal.svg">
  <defs
     id="defs4" />
  <sodipodi:namedview
     id="base"
     pagecolor="#ffffff"
     bordercolor="#666666"
     borderopacity="1.0"
     inkscape:pageopacity="0.0"
     inkscape:pageshadow="2"
     inkscape:zoom="1.71"
     inkscape:cx="154.25731"
     inkscape:cy="150"
     inkscape:document-units="px"
     inkscape:current-layer="layer1"
     showgrid="false"
     inkscape:window-width="1280"
     inkscape:window-height="751"
     inkscape:window-x="0"
     inkscape:window-y="1"
     inkscape:window-maximized="1"
     units="px" />
  <metadata
     id="metadata7">
    <rdf:RDF>
      <cc:Work
         rdf:about="">
        <dc:format>image/svg+xml</dc:format>
        <dc:type
           rdf:resource="http://purl.org/dc/dcmitype/StillImage" />
        <dc:title></dc:title>
      </cc:Work>
    </rdf:RDF>
  </metadata>
  <g
     inkscape:label="Layer 1"
     inkscape:groupmode="layer"
     id="layer1"
     transform="translate(0,-752.36216)">
    <path
       style="fill:#000000"
       d="m 222.72021,1033.9225 c -1.63376,-1.8655 -4.76471,-6.7888 -6.95768,-10.9406 -6.55654,-12.413 -19.16002,-24.56991 -23.67584,-22.837 -3.83673,5.7908 -13.90137,6.9878 -16.54197,9.3282 -3.52107,3.5211 -99.842663,4.84 -103.303263,1.4145 -4.06107,-4.0198 1.95771,-4.8677 40.823603,-5.7509 30.1406,-0.6849 42.75354,-2.0191 51.58427,-5.45679 20.55925,-8.00343 23.53448,-13.81447 10.51901,-20.54504 -6.14255,-3.17644 -18.29515,-3.96296 -61.2318,-3.96296 -49.618433,0 -53.503913,-0.33518 -52.694993,-4.54564 0.78813,-4.10234 5.55624,-4.61542 48.893653,-5.26137 28.4793,-0.42448 52.77692,0.43906 59.70914,2.12208 20.97633,5.09264 21.71426,4.88679 23.66576,-6.60135 3.03015,-17.83812 2.87557,-17.88096 -57.97196,-16.0553 -33.84205,1.01539 -54.376933,0.67753 -55.358583,-0.91079 -3.09511,-5.00801 12.38734,-7.58502 47.452123,-7.89823 81.59018,-0.72876 82.6084,-0.50051 82.11264,18.4061 -0.15715,5.99472 -1.72357,15.2561 -3.48089,20.5808 -3.17373,9.61651 -3.11043,9.76958 9.46531,22.88583 13.3859,13.96126 25.23218,33.32696 22.79692,37.26736 -2.14583,3.472 -12.38259,2.6696 -15.80543,-1.2389 z M 63.346667,922.74575 c 0,-6.18585 1.11053,-15.11919 2.46783,-19.85187 1.35733,-4.7327 2.72798,-15.81342 3.04594,-24.62387 0.54363,-15.06493 7.45606,-39.88559 12.02432,-43.176 1.13474,-0.81736 4.06496,-4.63377 6.51155,-8.48096 4.02657,-6.33162 4.06486,-7.37837 0.40383,-11.03939 -4.36669,-4.36672 -6.37464,-4.84507 -17.31034,-4.12401 -11.14191,0.73468 -8.74969,-4.84364 9.7494,-22.73416 9.28127,-8.97596 16.87502,-17.45032 16.87502,-18.83191 0,-4.44713 9.437593,-2.67475 14.286283,2.68299 7.83469,7.0116 28.72223,16.91058 29.88815,26.30636 -0.0208,5.34901 -4.5676,9.14609 -13.69282,11.43639 -9.03298,2.26713 -11.43247,5.94473 -5.32057,8.15461 8.66652,3.13352 18.99654,11.55998 18.99654,15.4959 0,4.81422 -8.28402,2.66429 -19.10049,-4.95707 -6.1017,-4.29929 -7.80423,-4.5872 -9.63256,-1.62893 -2.29581,3.7147 -0.63343,15.00363 2.76268,18.76105 1.0623,1.17532 6.85749,2.50436 12.87817,2.95339 18.31079,1.36566 19.30127,6.59844 1.24901,6.59844 -12.21633,0 -16.10879,1.00729 -18.46366,4.77806 -4.73164,7.57655 -0.24261,11.08911 14.31573,11.20189 7.36649,0.0571 13.39361,1.16041 13.39361,2.45191 0,1.29151 -5.11682,2.34817 -11.37073,2.34817 -13.58596,0 -19.01815,4.74022 -14.69317,12.82149 2.30019,4.29796 5.39603,5.36104 15.61199,5.36104 12.58877,0 18.53025,3.10641 12.76107,6.67198 -1.63381,1.00975 -16.19474,1.99545 -32.35758,2.19047 -16.162873,0.19508 -30.121133,1.08867 -31.018363,1.98593 -0.89723,0.89723 -2.43994,7.28415 -3.42824,14.19315 -1.28251,8.96594 -3.09014,12.81089 -6.31474,13.4319 -3.73051,0.71842 -4.51786,-1.09004 -4.51786,-10.37695 z m 35.06631,-37.05506 c 0,-6.94666 -0.81861,-7.6722 -8.79214,-7.79251 -9.67524,-0.14598 -15.18247,5.4666 -12.42215,12.65982 1.26184,3.28831 4.16975,4.20234 11.45276,3.59993 8.89435,-0.73569 9.76153,-1.48788 9.76153,-8.46724 z m 2.319593,-18.52766 c 3.52993,-9.19883 1.76475,-11.47632 -8.894873,-11.47632 -10.82559,0 -14.91811,3.99748 -11.96667,11.68877 2.07164,5.39863 18.77364,5.22854 20.861543,-0.21248 z m 1.3572,-26.16819 c 4.41649,-15.61493 -3.071193,-19.60558 -11.127293,-5.96767 -3.70958,6.27978 -5.19802,10.35184 -1.54077,11.68877 6.279717,2.29559 10.425885,2.20634 12.668063,-5.7211 z m 0.12364,-38.30465 c 3.35909,-8.8351 7.95893,-10.93391 9.665,-4.40994 1.68534,6.44478 10.64382,7.35923 12.96017,1.32294 1.0204,-2.65912 -1.66973,-7.3893 -7.54222,-13.26177 l -9.12833,-9.12835 -12.499063,11.9762 c -11.99133,11.48973 -12.29495,12.13056 -7.47497,15.77667 7.25301,5.48653 11.31915,4.8265 14.019413,-2.27575 z m 49.76444,105.14495 c 1.97817,-22.73695 7.19407,-57.98176 19.40535,-70.8808 l 11.60888,-9.52048 -9.47053,-4.49407 c -7.42816,-3.52489 -10.50036,-3.8509 -14.24591,-1.51177 -6.54651,4.08837 -8.95507,-0.61184 -3.96459,-7.73677 2.17255,-3.10173 8.43622,-10.40927 13.91927,-16.23895 5.48307,-5.82971 13.20296,-14.90404 17.15535,-20.16521 l 7.18612,-9.56575 9.72856,9.56575 c 5.35071,5.26117 14.62925,12.48795 20.61897,16.05952 17.75482,10.58685 17.32182,22.58322 -1.03378,28.64112 -8.66315,2.8591 -12.13095,7.65404 -5.63661,7.79381 1.78578,0.0384 7.33795,3.46619 12.33814,7.61726 7.47476,6.20536 8.32812,7.84155 4.79941,9.20192 -2.36053,0.90998 -9.60188,-0.76447 -16.0919,-3.72101 -6.49002,-2.95655 -12.44859,-5.37553 -13.2413,-5.37553 -0.79268,0 -1.44125,4.24165 -1.44125,9.4259 l -0.5848,7.67151 13.21893,0.0784 c 9.80416,0.0582 13.40034,-0.75273 15.95517,2.32562 4.35396,5.24621 3.10456,6.15149 -9.20597,6.67034 -15.42164,0.64995 -19.38333,2.23822 -19.38333,7.7708 0,5.13106 4.3023,6.36059 18.50693,5.28901 4.06655,-0.30676 7.42767,1.07399 8.32846,3.42138 1.91659,4.99456 -1.64656,7.20535 -10.65974,6.61395 -14.18092,-0.93048 -16.17565,-0.1252 -16.17565,6.52992 0,6.97713 3.46494,8.5068 22.07879,9.74716 7.19617,0.47953 10.39001,1.89002 10.39001,4.5886 0,2.93564 -2.88185,3.81383 -11.68877,3.56198 -6.42882,-0.1839 -13.44208,-0.66018 -15.58502,-1.05856 -2.14294,-0.39838 -13.53949,-0.54018 -25.32567,-0.31511 -21.01724,0.40132 -21.42941,0.53408 -21.42941,6.90295 0,4.58699 -1.41125,6.49376 -4.80621,6.49376 -4.08372,0 -4.8756,-2.31292 -5.2679,-15.38668 z m 38.64666,-13.09449 c -3.50422,-12.81817 -9.86635,-6.70919 -18.41735,-7.88389 -5.68832,0 -8.91619,5.70074 -6.61836,11.68877 1.02461,2.67016 5.19911,3.89626 13.26543,3.89626 11.31538,0 11.77028,-0.29763 11.77028,-7.70114 z m 0,-23.16597 c 0,-4.98399 -6.54631,-7.99332 -17.53316,-8.06 -4.51181,-0.0273 -5.84438,1.4452 -5.84438,6.4583 0,5.96465 0.95243,6.49376 11.68877,6.49376 9.71581,0 11.68877,-0.82574 11.68877,-4.89206 z m -0.42947,-23.3307 c 1.42268,-10.05512 -3.73207,-12.61626 -11.22491,-5.57711 -9.26236,8.70154 -8.52345,13.54137 1.91374,12.53504 6.60701,-0.63704 8.63083,-2.14938 9.31117,-6.95793 z m 0.42947,-34.2881 c 0,-2.95118 1.29452,-7.78459 2.87671,-10.74094 2.30733,-4.31129 3.32766,-4.66309 5.15521,-1.77737 1.25319,1.97878 2.29643,6.81222 2.31833,10.74094 0.0455,8.1738 2.39936,8.74279 13.15628,3.18018 11.81547,-6.11003 10.26432,-11.5497 -6.50418,-22.80944 -9.82399,-6.59662 -10.55945,-6.71055 -16.88378,-2.61499 -8.00182,5.18192 -18.29357,16.67058 -18.29793,20.426 -0.005,4.6088 5.9227,8.96139 12.2051,8.96139 4.30596,0 5.97426,-1.49837 5.97426,-5.36577 z"
       id="path6698"
       inkscape:connector-curvature="0"
       sodipodi:nodetypes="csccssssssssssssssssccssscsssssccsssssssssssssssscsssssssscssccsssssssscssscccssssscssscscssscsssssssssssssssccssscsssssssssssssssscsss" />
  </g>
</svg>
