<?xml version="1.0" encoding="UTF-8" standalone="no"?>
<svg
   xmlns:dc="http://purl.org/dc/elements/1.1/"
   xmlns:cc="http://creativecommons.org/ns#"
   xmlns:rdf="http://www.w3.org/1999/02/22-rdf-syntax-ns#"
   xmlns:svg="http://www.w3.org/2000/svg"
   xmlns="http://www.w3.org/2000/svg"
   viewBox="0 0 300 300"
   height="300"
   width="300"
   id="svg323"
   version="1.1">
  <metadata
     id="metadata329">
    <rdf:RDF>
      <cc:Work
         rdf:about="">
        <dc:format>image/svg+xml</dc:format>
        <dc:type
           rdf:resource="http://purl.org/dc/dcmitype/StillImage" />
        <dc:title></dc:title>
      </cc:Work>
    </rdf:RDF>
  </metadata>
  <defs
     id="defs327" />
  <path
     id="path333"
     d="m 65.209863,280.57488 c -0.70772,-0.28557 -0.91315,-7.84341 -0.93138,-34.26469 -0.0129,-18.64407 -0.32257,-60.69261 -0.68823,-93.4412 -0.41907,-37.53074 -0.40927,-61.564782 0.0265,-65.012102 0.76405,-6.044426 3.54239,-15.086844 5.7455,-18.699367 2.51019,-4.116058 11.83385,-9.949961 19.54235,-12.227842 7.66418,-2.264779 17.200977,-3.343397 35.249027,-3.986682 10.34583,-0.368755 18.89684,-0.758963 19.00224,-0.867129 0.1054,-0.108165 0.42869,-4.691217 0.71841,-10.184558 l 0.52679,-9.987893 -13.71789,-0.06302 c -28.3423,-0.130201 -61.669817,-1.159158 -63.613167,-1.964 -2.57326,-1.065719 -3.73311,-3.374193 -3.17909,-6.327386 0.41688,-2.222151 0.76646,-2.474714 4.96964,-3.59042 4.09552,-1.087129 11.8735,-1.179738 82.608377,-0.983583 85.03112,0.235799 81.06867,0.0334 83.43882,4.262035 0.63043,1.124765 0.85699,2.619654 0.5702,3.762299 -0.38382,1.529294 -1.21322,2.109853 -4.28844,3.001807 -8.71301,2.527169 -16.28991,2.936905 -37.42273,2.023704 -11.07858,-0.478732 -24.27114,-0.865339 -29.31678,-0.859126 l -9.17389,0.0113 -0.52882,9.873557 c -0.29085,5.430456 -0.24856,10.118439 0.094,10.41774 0.81414,0.711362 7.47096,2.06212 12.97148,2.632087 2.39709,0.248388 11.87651,0.521076 21.06537,0.605972 15.94887,0.147353 16.97142,0.242332 22.53347,2.093027 13.94499,4.639996 21.24895,12.212098 24.33181,25.225074 1.20199,5.073683 1.22665,11.65633 0.42723,114.039966 -0.71199,91.18764 -0.35446,84.91264 -4.84132,84.9684 -3.26843,0.0406 -4.16894,-1.39947 -5.73468,-9.1709 -1.41219,-7.00928 -1.48624,-9.87742 -1.48173,-57.38499 0.003,-27.50383 0.34126,-65.47973 0.75255,-84.39089 0.79254,-36.441227 0.51921,-42.416123 -2.283,-49.905692 -1.83677,-4.909215 -4.08735,-7.099737 -10.42744,-10.149202 -9.22292,-4.436042 -12.26631,-4.881747 -35.80715,-5.243953 l -21.24698,-0.326911 -0.0961,30.029056 c -0.0529,16.515982 -0.29804,63.533892 -0.54479,104.484262 -0.49431,82.03312 -0.28573,78.60881 -4.81205,79.00279 -1.19577,0.10408 -2.54783,-0.0593 -3.0046,-0.36319 -0.60711,-0.40386 -0.95068,-18.03765 -1.27744,-65.56454 -0.24584,-35.75666 -0.64632,-83.37279 -0.88996,-105.81363 L 144.033,65.433544 137.77457,64.912219 c -4.14763,-0.345495 -13.00076,-0.0244 -26.24908,0.952041 -18.825857,1.387519 -20.229007,1.590276 -24.081817,3.47987 -4.92615,2.41601 -8.60597,7.458168 -10.80621,14.806824 -1.87668,6.268032 -1.96554,14.251632 -1.19315,107.195556 0.63781,76.74848 0.55002,79.88282 -2.42586,86.61028 -1.27683,2.88649 -1.56063,3.09522 -4.13572,3.04181 -1.52065,-0.0315 -3.17341,-0.22222 -3.67281,-0.42372 z M 98.805503,149.9836 c -0.39952,-0.16141 -2.64979,-0.51093 -5.00061,-0.7767 -5.01874,-0.5674 -7.71126,-2.6755 -7.71126,-6.03751 0,-1.89602 0.4604,-2.31691 4.40623,-4.02818 4.25318,-1.84455 4.89125,-1.91092 18.369087,-1.91092 13.04801,0 14.17242,0.10708 17.16141,1.63438 1.75921,0.89891 3.84228,2.5182 4.62905,3.59841 1.85283,2.54388 1.0174,3.61113 -4.49878,5.74723 -3.46046,1.34004 -5.89131,1.62936 -15.36966,1.82929 -6.1925,0.13061 -11.585957,0.10541 -11.985467,-0.056 z m 82.808707,-0.10229 c -0.79903,-0.1244 -4.03324,-0.43907 -7.18714,-0.69926 -6.81014,-0.56183 -9.41199,-2.35681 -9.02021,-6.22293 0.20002,-1.97374 0.73158,-2.44954 4.51288,-4.03951 4.23212,-1.77952 4.50223,-1.79864 21.42857,-1.51649 14.16037,0.23605 17.74286,0.51056 20.59413,1.57799 3.34496,1.25227 6.35458,4.03939 6.35458,5.8848 0,1.29712 -6.21836,3.78561 -11.66991,4.67012 -4.19476,0.6806 -21.33915,0.91726 -25.0129,0.34528 z m -76.27119,-38.52483 c -5.02472,-0.38994 -12.607757,-1.63823 -15.435827,-2.54097 -2.26886,-0.72424 -2.36077,-0.90239 -2.36077,-4.5758 0,-5.488684 0.35099,-5.582694 19.092287,-5.113814 23.15933,0.57943 25.90828,0.86435 26.6165,2.758794 1.65155,4.41779 1.63322,4.50684 -1.21184,5.88517 -6.03624,2.92434 -16.72795,4.36054 -26.70035,3.58662 z m 70.82325,-1.02379 c -1.79782,-0.36867 -4.65799,-1.19553 -6.35593,-1.83747 -2.79854,-1.05805 -3.08717,-1.39828 -3.08717,-3.63915 0,-2.06032 0.45363,-2.7642 2.72397,-4.22665 2.49984,-1.610284 3.71014,-1.793734 14.70944,-2.229534 18.14131,-0.71877 25.97677,0.90639 28.23178,5.855594 0.48307,1.06022 0.78435,2.0046 0.66951,2.09861 -0.80346,0.65777 -4.09007,2.08902 -6.96715,3.03406 -4.0495,1.33015 -24.84332,1.98648 -29.92445,0.94454 z"
     style="fill:#000000;stroke-width:0.72639227" />
</svg>
