<?xml version="1.0" encoding="UTF-8" standalone="no"?>
<!-- Created with Inkscape (http://www.inkscape.org/) -->

<svg
   xmlns:dc="http://purl.org/dc/elements/1.1/"
   xmlns:cc="http://creativecommons.org/ns#"
   xmlns:rdf="http://www.w3.org/1999/02/22-rdf-syntax-ns#"
   xmlns:svg="http://www.w3.org/2000/svg"
   xmlns="http://www.w3.org/2000/svg"
   xmlns:sodipodi="http://sodipodi.sourceforge.net/DTD/sodipodi-0.dtd"
   xmlns:inkscape="http://www.inkscape.org/namespaces/inkscape"
   width="300"
   height="300"
   id="svg2"
   version="1.1"
   inkscape:version="0.48.4 r9939"
   sodipodi:docname="image-seal.svg">
  <defs
     id="defs4" />
  <sodipodi:namedview
     id="base"
     pagecolor="#ffffff"
     bordercolor="#666666"
     borderopacity="1.0"
     inkscape:pageopacity="0.0"
     inkscape:pageshadow="2"
     inkscape:zoom="1.979899"
     inkscape:cx="200.43343"
     inkscape:cy="134.48103"
     inkscape:document-units="px"
     inkscape:current-layer="layer1"
     showgrid="false"
     inkscape:window-width="1215"
     inkscape:window-height="1000"
     inkscape:window-x="65"
     inkscape:window-y="24"
     inkscape:window-maximized="1" />
  <metadata
     id="metadata7">
    <rdf:RDF>
      <cc:Work
         rdf:about="">
        <dc:format>image/svg+xml</dc:format>
        <dc:type
           rdf:resource="http://purl.org/dc/dcmitype/StillImage" />
        <dc:title />
      </cc:Work>
    </rdf:RDF>
  </metadata>
  <g
     inkscape:label="Calque 1"
     inkscape:groupmode="layer"
     id="layer1"
     transform="translate(0,-752.36218)">
    <path
       style="fill:#000000"
       d="m 211.44258,1029.1466 c -10.22105,-13.431 -14.16395,-15.212 -20.40667,-9.2175 -9.32208,8.9514 -118.298035,10.5186 -118.298035,1.7013 0,-3.1677 25.909494,-6.4894 57.954935,-7.4301 79.28936,-2.3276 74.59674,-12.8199 -7.43013,-16.61322 -42.458314,-1.9635 -61.691793,-4.80937 -54.852226,-8.11624 5.793065,-2.8008 37.254446,-4.01916 69.914086,-2.70737 39.31023,1.57894 58.69291,0.30376 57.34462,-3.77193 -1.14194,-3.45203 -25.30956,-6.92084 -55.0091,-7.89556 -68.694199,-2.2544 -81.946216,-13.12175 -16.0011,-13.12175 61.26704,0 78.84902,6.17757 78.84902,27.70423 0,8.86062 5.63631,22.10984 12.52516,29.44264 6.88886,7.3329 11.52459,16.3341 10.30171,20.0027 -1.22287,3.6687 -7.92442,-0.821 -14.89227,-9.9772 z M 60.849688,950.08602 c 0,-3.26923 6.687103,-5.94409 14.860244,-5.94409 8.173121,0 14.860224,-2.67484 14.860224,-5.94409 0,-3.26926 -5.191799,-5.9441 -11.537365,-5.9441 -6.345566,0 -13.190544,-2.67484 -15.211067,-5.94409 -2.083512,-3.37126 2.910359,-5.9441 11.537386,-5.9441 18.172813,0 19.847741,-8.98842 3.322859,-17.83228 -6.538493,-3.4993 -11.888187,-10.6951 -11.888187,-15.99064 0,-8.49814 1.395376,-8.36547 11.888187,1.1304 11.528941,10.43355 11.888187,10.38214 11.888187,-1.69996 0,-6.85229 2.674858,-14.11182 5.944094,-16.13232 3.371249,-2.08354 5.94411,2.91034 5.94411,11.53736 0,17.51149 8.63624,19.96645 17.09112,4.8584 3.18645,-5.69395 8.00039,-8.14126 10.69753,-5.43843 2.69713,2.70284 -2.45195,11.24552 -11.44238,18.98371 -20.158881,17.35101 -20.392251,20.58376 -1.48604,20.58376 8.17314,0 14.86024,2.67484 14.86024,5.9441 0,3.26925 -6.6871,5.94409 -14.86024,5.94409 -8.17312,0 -14.86023,2.67484 -14.86023,5.9441 0,3.26925 6.68711,5.94409 14.86023,5.94409 8.17314,0 14.86024,2.67486 14.86024,5.94409 0,3.30232 -15.85093,5.94412 -35.66458,5.94412 -19.813632,0 -35.664562,-2.6418 -35.664562,-5.94412 z m 80.245292,0 c -2.18624,-3.53745 4.89169,-5.94409 17.48146,-5.94409 11.63533,0 21.15516,-2.67484 21.15516,-5.94409 0,-3.26926 -6.6871,-5.9441 -14.86024,-5.9441 -8.17312,0 -14.86025,-2.67484 -14.86025,-5.94409 0,-3.26926 6.68713,-5.9441 14.86025,-5.9441 8.17314,0 14.86024,-2.36724 14.86024,-5.26046 0,-2.89322 -6.6871,-9.64205 -14.86024,-14.99726 -8.17312,-5.35527 -14.86025,-12.41168 -14.86025,-15.68094 0,-3.26925 6.68713,-1.56251 14.86025,3.79276 14.236,9.32777 14.86024,9.20865 14.86024,-2.83503 0,-6.91455 2.67484,-12.57184 5.9441,-12.57184 3.26925,0 5.94409,5.76423 5.94409,12.80947 0,12.43292 0.34951,12.49319 11.88819,2.05078 10.64404,-9.6327 11.88818,-9.73441 11.88818,-0.97162 0,5.38286 -5.34967,13.12794 -11.88818,17.21129 -16.20579,10.12073 -14.92693,16.45285 3.32288,16.45285 8.62702,0 13.62089,2.57284 11.53736,5.9441 -2.02052,3.26925 -8.8655,5.94409 -15.21107,5.94409 -6.34554,0 -11.53736,2.67484 -11.53736,5.9441 0,3.26925 6.6871,5.94409 14.86024,5.94409 8.17313,0 14.86025,2.67486 14.86025,5.94409 0,3.34748 -16.72468,5.94412 -38.28582,5.94412 -21.05718,0 -39.93898,-2.67486 -41.95948,-5.94412 z M 60.849688,844.61816 c 0,-36.1643 12.860814,-49.07861 48.875382,-49.07861 12.34957,0 22.45376,-2.67484 22.45376,-5.9441 0,-3.3023 -15.85093,-5.94409 -35.66458,-5.94409 -19.813632,0 -35.664562,-2.6418 -35.664562,-5.9441 0,-3.65931 29.837389,-5.94411 77.624062,-5.94411 50.2357,0 76.32783,2.09727 73.95038,5.94411 -2.02052,3.26924 -18.22746,5.9441 -36.01541,5.9441 -17.78794,0 -32.3417,2.67483 -32.3417,5.94409 0,3.26926 10.03066,5.98058 22.29036,6.02529 39.44829,0.14389 48.40064,5.19467 55.42198,31.26993 4.42955,16.44998 4.571,27.96881 0.44819,36.46929 -5.04298,10.39704 -6.09223,8.01086 -6.42885,-14.62077 -0.51058,-34.30895 -7.83289,-41.31146 -43.19979,-41.31146 l -28.53164,0 0,32.69253 c 0,17.98089 -2.67484,32.69252 -5.9441,32.69252 -3.26925,0 -5.94409,-14.85821 -5.94409,-33.01819 l 0,-33.01822 -28.23447,1.81171 -28.234452,1.81171 -1.861274,26.74843 c -2.705564,38.88116 -12.998971,44.79635 -12.998971,7.46994 z m 23.776375,10.36234 c 0,-3.26925 8.024531,-5.94409 17.832297,-5.94409 9.80775,0 17.83229,2.67484 17.83229,5.94409 0,3.26926 -8.02454,5.9441 -17.83229,5.9441 -9.807766,0 -17.832297,-2.67484 -17.832297,-5.9441 z m 77.273257,0 c 0,-3.26925 9.36194,-5.94409 20.80432,-5.94409 11.4424,0 20.80434,2.67484 20.80434,5.94409 0,3.26926 -9.36194,5.9441 -20.80434,5.9441 -11.44238,0 -20.80432,-2.67484 -20.80432,-5.9441 z m 0,-23.77639 c 0,-3.26924 8.02451,-5.9441 17.83228,-5.9441 9.80775,0 17.83228,2.67486 17.83228,5.9441 0,3.26925 -8.02453,5.94411 -17.83228,5.94411 -9.80777,0 -17.83228,-2.67486 -17.83228,-5.94411 z m -74.3012,-5.9441 c 2.020522,-3.26923 10.202909,-5.94409 18.1831,-5.94409 7.9802,0 14.50943,2.67486 14.50943,5.94409 0,3.26926 -8.18241,5.9441 -18.18311,5.9441 -10.608438,0 -16.652746,-2.47619 -14.50942,-5.9441 z"
       id="path3013"
       inkscape:connector-curvature="0" />
  </g>
</svg>
