<?xml version="1.0" encoding="UTF-8" standalone="no"?>
<!-- Created with Inkscape (http://www.inkscape.org/) -->

<svg
   xmlns:dc="http://purl.org/dc/elements/1.1/"
   xmlns:cc="http://creativecommons.org/ns#"
   xmlns:rdf="http://www.w3.org/1999/02/22-rdf-syntax-ns#"
   xmlns:svg="http://www.w3.org/2000/svg"
   xmlns="http://www.w3.org/2000/svg"
   xmlns:sodipodi="http://sodipodi.sourceforge.net/DTD/sodipodi-0.dtd"
   xmlns:inkscape="http://www.inkscape.org/namespaces/inkscape"
   width="300"
   height="300"
   id="svg2"
   version="1.1"
   inkscape:version="0.48.4 r9939"
   sodipodi:docname="dessin.svg">
  <defs
     id="defs4" />
  <sodipodi:namedview
     id="base"
     pagecolor="#ffffff"
     bordercolor="#666666"
     borderopacity="1.0"
     inkscape:pageopacity="0.0"
     inkscape:pageshadow="2"
     inkscape:zoom="1.979899"
     inkscape:cx="156.32962"
     inkscape:cy="101.52144"
     inkscape:document-units="px"
     inkscape:current-layer="layer1"
     showgrid="false"
     inkscape:window-width="1215"
     inkscape:window-height="1000"
     inkscape:window-x="65"
     inkscape:window-y="24"
     inkscape:window-maximized="1" />
  <metadata
     id="metadata7">
    <rdf:RDF>
      <cc:Work
         rdf:about="">
        <dc:format>image/svg+xml</dc:format>
        <dc:type
           rdf:resource="http://purl.org/dc/dcmitype/StillImage" />
        <dc:title />
      </cc:Work>
    </rdf:RDF>
  </metadata>
  <g
     inkscape:label="Calque 1"
     inkscape:groupmode="layer"
     id="layer1"
     transform="translate(0,-752.36218)">
    <path
       style="fill:#000000"
       d="m 77.9629,1037.0381 c -4.006669,-4.1413 -4.153059,-94.36281 -0.179564,-110.67307 2.368426,-9.72184 4.344482,-12.34786 11.67327,-15.5129 4.852219,-2.0955 12.521964,-3.80998 17.043874,-3.80998 10.41972,0 15.98494,-5.99375 11.15285,-12.01165 -2.71661,-3.38329 -7.47158,-4.00555 -24.933054,-3.26296 l -21.576273,0.91762 -1.764877,-15.66215 c -0.970684,-8.61419 -1.983219,-18.59882 -2.250075,-22.18807 -0.791847,-10.65032 2.844251,-42.51099 5.734715,-50.24943 2.519295,-6.74474 3.616565,-7.17988 18.159417,-7.20118 8.512957,-0.013 21.444647,-0.76343 28.737087,-1.66878 11.74865,-1.45859 13.25899,-2.33941 13.25899,-7.73264 0,-6.03192 -0.29993,-6.09306 -33.431969,-6.81487 -30.40786,-0.66249 -33.514379,-1.17231 -34.343023,-5.63629 -0.501081,-2.69938 0.228913,-5.63603 1.622174,-6.52589 1.393277,-0.88991 36.913478,-1.58995 78.933798,-1.55568 68.73045,0.0562 76.66894,0.5021 79.07397,4.44294 1.47038,2.40934 1.99917,5.07749 1.17512,5.92923 -0.82405,0.85172 -17.20215,2.11786 -36.39575,2.81359 -19.19363,0.69575 -35.19727,1.57483 -35.56365,1.95354 -0.36641,0.37869 -0.01,3.28024 0.79097,6.44786 1.3271,5.24533 3.06491,5.76947 19.47262,5.873 22.60038,0.14253 38.82281,3.30656 43.90923,8.56385 4.64342,4.79941 9.98012,48.89843 7.26875,60.06426 -1.36338,5.61468 -3.05024,7.10802 -7.31479,6.47552 -5.06104,-0.7506 -5.80809,-3.16412 -8.59629,-27.77188 -1.67945,-14.82241 -4.48957,-28.73826 -6.24471,-30.9241 -2.48554,-3.09549 -7.52059,-3.77106 -22.77076,-3.05524 -20.45417,0.96006 -26.11609,3.59579 -23.40583,10.89582 1.31941,3.55386 5.27182,4.35204 21.54971,4.35204 15.82259,0 19.93396,0.78866 19.93396,3.82371 0,5.93011 -9.59794,9.83611 -21.11532,8.59313 -12.1848,-1.315 -22.67625,1.89092 -21.19715,6.47727 0.72459,2.24684 6.66076,2.95704 19.93181,2.38456 14.62704,-0.63093 19.62797,0.0916 22.12043,3.19569 5.10211,6.35416 1.51514,8.71322 -16.23604,10.67809 -11.68192,1.29304 -17.66738,0.88935 -20.30031,-1.36918 -2.05361,-1.76158 -4.02417,-2.74185 -4.37905,-2.17832 -0.35488,0.56352 -2.58202,5.42955 -4.94916,10.81342 -8.35347,18.99924 -14.00442,9.86259 -16.11606,-26.05693 -1.68608,-28.68114 -3.64311,-32.02359 -18.75008,-32.02359 -11.85021,0 -27.606453,6.72431 -27.606453,11.78164 0,3.0861 3.847114,3.88051 18.792353,3.88051 10.3358,0 19.41516,1.04157 20.17636,2.31458 2.62699,4.39335 -4.92376,7.66137 -20.16209,8.72629 -8.40834,0.58759 -16.536019,1.86568 -18.061516,2.84015 -1.525498,0.97447 -3.572798,8.8888 -4.549561,17.58736 -1.273954,11.34516 -3.128837,16.68886 -6.562303,18.90511 -8.555084,5.52221 -5.085747,7.6027 9.735377,5.83807 43.759143,-5.21004 54.095793,0.0525 48.095553,24.48559 -3.11616,12.68909 -11.48419,18.49655 -26.65188,18.49655 -11.979662,0 -19.78508,5.25097 -17.390976,11.69948 1.481661,3.99087 3.524448,4.34633 14.932086,2.59822 23.71687,-3.63437 25.84321,-3.30733 25.84321,3.97483 0,5.89842 -1.09274,6.58803 -11.36485,7.17208 -6.25066,0.35544 -16.26347,1.31902 -22.25069,2.14134 -9.395405,1.29044 -10.778523,2.27415 -10.102072,7.18488 0.710228,5.15593 2.205436,5.66718 15.936882,5.44918 8.33422,-0.13235 18.51804,-0.71964 22.63071,-1.30518 5.467,-0.77835 7.71125,0.0965 8.34659,3.2538 0.92703,4.60663 -7.11767,8.11821 -25.92626,11.31705 -19.117284,3.25134 -21.466923,6.52797 -21.466923,29.93611 0,28.285 -4.229509,39.0701 -12.122499,30.912 z m 136.76548,-4.0461 c -1.57636,-3.9481 -4.34016,-12.6366 -6.14176,-19.3076 -5.38411,-19.93613 -6.43334,-20.65584 -23.91668,-16.40517 -21.66486,5.26727 -48.12453,4.97557 -50.17718,-0.55327 -0.87582,-2.35904 -1.19485,-4.70006 -0.70896,-5.20229 1.79168,-1.85187 28.01181,-6.17071 37.46297,-6.17071 5.36655,0 9.75737,-1.17467 9.75737,-2.61036 0,-1.4357 2.35631,-2.61037 5.23621,-2.61037 3.57642,0 4.97316,-1.41191 4.40633,-4.45416 -1.02372,-5.49431 -17.2788,-9.51209 -30.21366,-7.46792 -6.76456,1.06905 -10.74882,0.16393 -15.0223,-3.41282 -5.56329,-4.6562 -5.60221,-4.93025 -0.89581,-6.30618 2.70613,-0.79112 13.48088,-2.19512 23.94391,-3.12001 16.84999,-1.48941 19.78122,-1.06568 25.65356,3.70867 9.29137,7.55412 12.14697,6.74864 12.14697,-3.42639 0,-13.47125 -3.8118,-15.09583 -33.27363,-14.18106 -24.86125,0.77194 -26.11141,0.55413 -26.83387,-4.67497 -0.72413,-5.2414 0.64116,-5.56495 30.78749,-7.29617 30.26877,-1.73826 31.80676,-1.5765 38.00916,3.99758 7.99275,7.18307 8.49093,19.57664 1.43298,35.65011 -4.90168,11.16292 -4.90049,11.25881 0.31888,25.67742 2.88141,7.95997 6.81812,17.60107 8.74824,21.42477 1.93011,3.8236 3.51631,8.9117 3.52488,11.3067 0.0485,13.562 -9.53966,17.2197 -14.2451,5.4342 z M 154.57444,918.50101 c -7.89482,-5.90224 -3.44797,-8.32932 18.55932,-10.12965 20.06748,-1.64165 22.71433,-2.46707 25.07375,-7.8194 2.38616,-5.41295 1.90202,-6.13616 -5.07291,-7.57801 -4.24094,-0.87669 -14.24849,-1.59397 -22.239,-1.59397 -14.54885,0 -23.97237,-5.17373 -18.70164,-10.26764 3.34806,-3.23572 46.35394,-4.96376 55.95952,-2.24853 7.98055,2.25585 8.20795,2.71394 8.20795,16.53457 0,10.97877 -1.28726,15.74462 -5.65505,20.93676 -5.42585,6.44991 -6.59928,6.68873 -28.95519,5.89317 -12.8151,-0.45605 -25.04465,-2.13335 -27.17675,-3.7273 z M 92.874294,855.07097 c -6.667112,-4.38713 -1.003068,-9.85973 11.830646,-11.43075 15.98207,-1.95643 23.26327,0.008 23.26327,6.27844 0,4.1484 -1.94008,4.91628 -12.42105,4.91628 -6.83158,0 -13.9346,0.57499 -15.7845,1.27777 -1.849903,0.70276 -4.949666,0.23389 -6.888366,-1.04174 z"
       id="path3039"
       inkscape:connector-curvature="0" />
  </g>
</svg>
