<?xml version="1.0" encoding="UTF-8" standalone="no"?>
<!-- Created with Inkscape (http://www.inkscape.org/) -->

<svg
   xmlns:dc="http://purl.org/dc/elements/1.1/"
   xmlns:cc="http://creativecommons.org/ns#"
   xmlns:rdf="http://www.w3.org/1999/02/22-rdf-syntax-ns#"
   xmlns:svg="http://www.w3.org/2000/svg"
   xmlns="http://www.w3.org/2000/svg"
   xmlns:sodipodi="http://sodipodi.sourceforge.net/DTD/sodipodi-0.dtd"
   xmlns:inkscape="http://www.inkscape.org/namespaces/inkscape"
   width="300"
   height="300"
   id="svg2"
   version="1.1"
   inkscape:version="0.48.4 r9939"
   sodipodi:docname="dessin.svg">
  <defs
     id="defs4" />
  <sodipodi:namedview
     id="base"
     pagecolor="#ffffff"
     bordercolor="#666666"
     borderopacity="1.0"
     inkscape:pageopacity="0.0"
     inkscape:pageshadow="2"
     inkscape:zoom="1.979899"
     inkscape:cx="66.959549"
     inkscape:cy="133.99264"
     inkscape:document-units="px"
     inkscape:current-layer="layer1"
     showgrid="false"
     inkscape:window-width="1215"
     inkscape:window-height="1000"
     inkscape:window-x="65"
     inkscape:window-y="24"
     inkscape:window-maximized="1" />
  <metadata
     id="metadata7">
    <rdf:RDF>
      <cc:Work
         rdf:about="">
        <dc:format>image/svg+xml</dc:format>
        <dc:type
           rdf:resource="http://purl.org/dc/dcmitype/StillImage" />
        <dc:title />
      </cc:Work>
    </rdf:RDF>
  </metadata>
  <g
     inkscape:label="Calque 1"
     inkscape:groupmode="layer"
     id="layer1"
     transform="translate(0,-752.36218)">
    <path
       style="fill:#000000"
       d="m 213.43402,1029.794 c -4.14032,-10.5225 -2.57437,-22.4476 -3.29074,-33.59133 -0.59965,-18.85178 1.32803,-38.08742 -2.93362,-56.60781 -3.64355,-13.52326 -20.1661,-8.72972 -29.59825,-14.51845 -8.84892,-3.7879 -4.24175,-18.96445 -17.5877,-14.61068 -8.0232,-0.73251 -23.12615,4.42401 -24.42669,-7.30028 9.62242,-4.756 21.64686,-3.15389 31.14636,-8.57417 6.18901,-13.07641 -15.80726,-6.21488 -22.61141,-7.51391 -14.3505,-1.32192 7.62837,-7.89748 11.93592,-8.5181 14.77824,-4.11486 30.3512,-5.57471 44.6056,-11.38605 3.71075,-5.94423 7.20891,-11.50862 15.58651,-10.65331 7.71523,-7.99128 -1.95325,-20.27051 -0.47444,-30.32945 3.8506,-15.10677 -13.41129,-15.96322 -23.77834,-16.04708 -12.5153,-0.7699 -25.03712,-1.42946 -37.55558,-2.14584 -0.27992,13.69889 0.75033,27.49495 -0.97835,41.1068 -1.8434,9.5407 -18.5452,13.44121 -15.18125,-0.28143 -1.23986,-11.71136 0.42078,-23.60818 -1.48923,-35.2406 -7.34675,-10.0388 -23.1615,-6.98193 -34.30589,-6.75104 -5.761723,0.95759 -23.740836,2.48173 -18.643677,10.70823 12.093055,1.73931 24.411427,-2.69752 36.471087,-0.20791 9.06829,10.70292 -13.49956,11.08013 -20.455593,10.91294 -7.237137,0.14124 -16.457289,-0.15751 -20.921274,-5.29507 -3.616796,11.19214 -2.974178,23.62414 -2.54849,35.30264 6.459595,8.1575 19.946713,-2.31832 29.498717,0.3181 11.7937,0.89466 26.34434,9.55574 26.208,22.68414 1.36173,12.06055 -10.15309,19.15325 -20.19667,22.07128 -13.225749,6.11731 -11.956212,-8.97671 -2.11769,-12.504 13.16316,-8.02603 0.43244,-20.605 -10.857086,-16.86099 -10.827965,-0.92914 -26.977614,8.38689 -15.185998,19.49114 7.124442,8.42349 16.038538,15.04607 24.181224,22.42885 -0.80448,8.95293 -2.80466,17.88166 -2.42193,26.88112 11.13063,6.04031 9.57329,-14.73894 12.56852,-21.81153 0.44133,-6.70781 5.69713,-15.91491 11.06174,-6.17749 3.79187,10.71442 1.68909,22.94682 -0.626,33.82936 -3.25709,10.22031 -18.53373,4.88789 -21.83572,15.25219 -2.38457,6.33597 -1.70806,13.22344 -2.12314,19.85945 8.04779,0.74466 16.34053,0.15618 24.15765,2.3327 8.90811,13.07049 -11.91247,12.52025 -20.17862,12.02577 -13.562449,-0.88544 -28.848378,-0.47436 -40.239146,-8.99284 -9.343792,-9.63866 -7.309657,-24.42003 -7.645288,-36.7622 1.47824,-9.94033 -1.989124,-24.11694 6.503224,-31.03866 11.937286,3.28912 8.440952,18.90814 9.388161,28.44088 2.223624,8.8023 -5.500221,29.01286 7.771353,29.18183 8.801802,-7.44587 5.207692,-21.9888 7.38485,-32.51775 0.654128,-9.22603 1.30028,-18.45263 1.951088,-27.6789 -8.911031,-8.0757 -19.514083,-14.6395 -26.549906,-24.50392 -5.595402,-9.71392 2.19136,-19.69026 3.024653,-27.73494 -13.068884,-3.96301 -9.742365,-18.83523 -10.181188,-29.64391 0.654778,-12.04299 -1.558926,-25.92103 6.217172,-36.13565 9.919531,-8.69139 24.410535,-6.06242 36.585607,-6.4812 9.47845,-1.73403 25.36218,4.9853 30.8427,-3.98944 -5.27186,-8.79012 -20.56769,-2.90117 -29.73892,-4.72526 -12.164847,-0.37293 -24.591169,1.18441 -36.565084,-1.21844 -7.622499,-13.08497 14.938001,-9.36496 22.319469,-10.10398 45.483955,-0.21178 91.013395,-1.13221 136.467595,0.84111 12.53004,2.01147 1.78034,11.64115 -6.35997,8.84005 -21.27279,0.99994 -42.57677,1.01844 -63.8656,1.49208 -0.5813,4.41739 -1.16259,8.83479 -1.74387,13.25218 21.28979,0.70214 42.66201,0.16074 63.87772,2.1267 12.27072,1.82455 13.96,16.65351 15.07596,26.61047 0.0533,10.30713 4.97883,23.66139 -4.93828,30.96286 -12.34201,9.17897 -2.40178,26.93431 -11.46537,37.75115 -6.91688,10.0868 -23.74204,6.08251 -29.03014,14.57652 5.4973,9.1771 19.89888,5.49828 26.20653,14.88458 13.07695,13.36244 11.56994,33.57792 12.76157,50.83795 0.10266,16.82196 0.85553,33.96754 -2.83181,50.47784 -2.07644,4.4581 -6.4659,8.143 -10.32103,2.9727 z M 197.72537,888.71047 c 3.32033,-13.60142 -27.48256,2.26621 -8.61806,2.58819 2.95085,-0.1572 6.43505,-0.29982 8.61806,-2.58819 z m -49.62534,112.90883 c -11.83565,-11.99977 -9.0946,-30.07056 -8.82703,-45.35547 -1.42282,-8.52502 4.58003,-25.85502 13.97513,-13.66785 -1.67447,12.35635 14.5668,19.63097 22.93991,11.4733 1.98158,-6.18454 4.06766,-24.84573 12.85058,-13.46335 5.92992,11.85821 4.66763,26.00218 3.22124,38.81338 -1.04072,11.8804 -9.0291,23.53589 -21.68926,24.68849 -7.33795,0.9264 -16.65948,3.7146 -22.47057,-2.4885 z m 22.42569,-11.69012 c 9.9471,-5.88761 9.00338,-27.10857 -5.69507,-24.71647 -14.65529,-5.22681 -12.4236,14.66291 -10.81757,23.50701 2.95591,7.46108 11.55532,4.68886 16.51264,1.20946 z M 159.15537,844.16634 c 0.25355,-10.80071 19.1934,-4.52734 27.07153,-6.42361 5.63381,0.2742 26.79642,-1.97165 17.76951,7.25036 -12.72948,2.5991 -25.99945,2.25601 -38.94332,1.81156 -2.02093,-0.35661 -4.84978,-0.48909 -5.89772,-2.63831 z m -77.040545,-2.19249 c 6.559857,-6.24297 17.273087,-6.30092 25.983065,-7.56803 6.78963,-2.8855 26.69127,5.2997 11.83265,9.55379 -12.33396,1.46128 -25.44773,2.29945 -37.419697,-1.34278 l -0.396018,-0.64298 0,0 z m 87.638845,-13.75649 c -7.16187,0.91607 -16.00706,-6.36905 -4.17329,-7.79313 12.56476,-2.16689 25.55228,-2.54722 38.20717,-0.99288 6.79373,8.51772 -14.66222,9.63545 -20.82845,9.59069 -4.41324,0.0344 -8.82873,-0.23865 -13.20543,-0.80468 z"
       id="path3042"
       inkscape:connector-curvature="0" />
  </g>
</svg>
