<?xml version="1.0" encoding="UTF-8" standalone="no"?>
<!-- Created with Inkscape (http://www.inkscape.org/) -->

<svg
   xmlns:dc="http://purl.org/dc/elements/1.1/"
   xmlns:cc="http://creativecommons.org/ns#"
   xmlns:rdf="http://www.w3.org/1999/02/22-rdf-syntax-ns#"
   xmlns:svg="http://www.w3.org/2000/svg"
   xmlns="http://www.w3.org/2000/svg"
   xmlns:sodipodi="http://sodipodi.sourceforge.net/DTD/sodipodi-0.dtd"
   xmlns:inkscape="http://www.inkscape.org/namespaces/inkscape"
   width="300"
   height="300"
   viewBox="0 0 300 300"
   id="svg2"
   version="1.1"
   inkscape:version="0.91 r13725"
   sodipodi:docname="霸-seal.svg">
  <defs
     id="defs4">
    <clipPath
       clipPathUnits="userSpaceOnUse"
       id="clipPath4204">
      <rect
         style="fill:#0000ff;fill-rule:evenodd;stroke:#000000;stroke-width:1px;stroke-linecap:butt;stroke-linejoin:miter;stroke-opacity:1"
         id="rect4206"
         width="15.451179"
         height="21.584471"
         x="164.41942"
         y="794.64594" />
    </clipPath>
  </defs>
  <sodipodi:namedview
     id="base"
     pagecolor="#ffffff"
     bordercolor="#666666"
     borderopacity="1.0"
     inkscape:pageopacity="0.0"
     inkscape:pageshadow="2"
     inkscape:zoom="1.71"
     inkscape:cx="150"
     inkscape:cy="150"
     inkscape:document-units="px"
     inkscape:current-layer="layer1"
     showgrid="false"
     inkscape:window-width="1280"
     inkscape:window-height="751"
     inkscape:window-x="0"
     inkscape:window-y="1"
     inkscape:window-maximized="1"
     units="px"
     showguides="false" />
  <metadata
     id="metadata7">
    <rdf:RDF>
      <cc:Work
         rdf:about="">
        <dc:format>image/svg+xml</dc:format>
        <dc:type
           rdf:resource="http://purl.org/dc/dcmitype/StillImage" />
        <dc:title></dc:title>
      </cc:Work>
    </rdf:RDF>
  </metadata>
  <g
     inkscape:label="Layer 1"
     inkscape:groupmode="layer"
     id="layer1"
     transform="translate(0,-752.36216)">
    <path
       style="fill:#000000"
       d="m 225.08875,1035.6727 c -6.06951,-2.3039 -27.40681,-17.2164 -33.47549,-23.396 -2.94584,-2.9996 -6.77177,-9.4076 -8.50208,-14.23985 -4.32104,-12.06752 0.18827,-20.19997 19.73579,-35.59305 8.55068,-6.73339 16.86187,-15.16922 18.46934,-18.74627 3.88929,-8.65484 0.56616,-59.60341 -4.26757,-65.42769 -1.94835,-2.34762 -6.05818,-3.909 -9.13289,-3.4697 -5.33315,0.76199 -5.60144,2.43249 -5.82955,36.29874 -0.23648,35.09774 -1.71194,43.05733 -6.56059,35.3905 -2.62078,-4.14405 -3.02023,-9.12694 -3.57191,-44.55633 -0.36595,-23.50282 -1.91649,-27.6769 -8.30993,-22.37082 -3.28478,2.72614 -4.08179,10.38284 -4.08179,39.21319 0,34.04027 -0.267,35.82564 -5.35608,35.82564 -5.09416,0 -5.35607,-1.78537 -5.35607,-36.50894 0,-34.07826 -0.38519,-36.84296 -5.78543,-41.52659 -3.18199,-2.75972 -5.15817,-5.64493 -4.39153,-6.41157 0.76665,-0.76667 15.05404,-2.59264 31.74974,-4.05777 19.07689,0.13785 26.18479,-9.66255 36.29244,4.75845 7.2588,9.07534 12.99248,34.35641 10.74365,47.37114 -0.91184,5.27719 -2.41792,14.03223 -3.34682,19.45564 -0.92893,5.42343 -3.03789,11.56375 -4.68657,13.64514 -5.88132,7.42495 -14.30603,15.43764 -23.97708,22.80445 -8.35567,6.36484 -9.81801,9.03814 -9.81801,17.94811 0,9.36988 1.24588,11.32658 11.86417,18.63208 6.52531,4.4896 12.85218,8.2009 14.05971,8.2474 1.20755,0.047 5.57937,3.0616 9.71517,6.7 10.04434,8.8365 6.37591,14.7802 -6.18062,10.0141 z m -116.8082,-9.2718 c -1.08273,-1.7519 -2.66023,-14.1043 -3.50558,-27.4499 l -1.53701,-24.26465 -19.161534,0 c -10.53884,0 -20.14488,-0.96937 -21.34676,-2.15413 -4.19453,-4.13489 5.83036,-7.1373 23.9669,-7.178 15.943814,-0.0359 18.159974,-0.63842 17.385324,-4.72757 -0.56898,-3.00356 -3.80715,-4.97315 -9.017154,-5.48458 -4.47112,-0.43887 -11.27347,-3.45167 -15.11627,-6.69509 -5.92621,-5.0018 -7.18298,-8.64147 -8.27809,-23.97387 -1.11326,-15.58635 -0.67773,-18.07676 3.16138,-18.07676 2.4489,0 6.58045,2.48522 9.18123,5.52273 6.88676,8.04314 18.957224,6.15689 20.035374,-3.13095 0.64884,-5.58949 -0.78948,-7.64403 -7.214534,-10.30536 -6.15807,-2.55078 -8.21558,-5.28768 -8.84452,-11.76495 -0.69648,-7.17302 -1.82522,-8.361 -7.51468,-7.909 -10.77437,0.85598 -18.74628,-1.6696 -18.74628,-5.93898 0,-2.91513 3.19329,-3.96604 12.05118,-3.96604 11.60483,0 12.05117,-0.29756 12.05117,-8.03412 0,-5.35608 1.33902,-8.03412 4.01706,-8.03412 2.45161,0 4.01706,2.49743 4.01706,6.40858 0,7.68559 4.33184,9.65966 21.197014,9.65966 14.76301,0 17.10694,-1.4515 12.9898,-8.04406 -2.3401,-3.74708 -2.01292,-5.76614 1.50433,-9.28339 4.75762,-4.75762 5.85939,-3.61833 7.69214,7.95431 0.61479,3.88209 3.28215,5.59035 9.69249,6.2074 10.39939,1.001 10.24564,6.76907 -0.21344,8.01307 -5.25209,0.62468 -7.40861,2.779 -8.70914,8.70031 -1.8749,8.5363 -10.2818,15.91079 -18.13826,15.91079 -3.94869,0 -4.76284,1.73226 -4.09068,8.70363 0.74426,7.71899 1.85696,8.80103 9.83585,9.56467 6.45518,0.6178 10.80222,-0.8352 15.38818,-5.14347 3.51533,-3.30248 7.16799,-5.22804 8.117,-4.27902 2.70265,2.70267 3.21708,23.24315 0.62227,24.84684 -1.27965,0.79088 -2.32665,3.2606 -2.32665,5.48827 0,7.41603 -13.63521,17.05791 -24.12266,17.05791 -4.02316,0 -5.45281,1.39518 -4.80242,4.68657 0.77947,3.94459 3.56648,4.58989 17.60361,4.07597 13.20421,-0.48344 16.67755,0.21371 16.67755,3.34755 0,2.93149 -3.29943,3.96762 -12.72069,3.9947 -25.21813,0.0726 -24.77187,-0.48727 -24.77187,31.07325 0,25.7776 -1.98482,32.7504 -7.00859,24.6218 z m -3.70357,-91.88514 c 0,-9.14997 -0.25495,-9.37314 -10.712164,-9.37314 -9.39255,0 -10.71215,0.75877 -10.71215,6.15949 0,8.23133 4.81881,12.58679 13.9258,12.58679 6.784364,0 7.498514,-0.89267 7.498514,-9.37314 z m 27.90038,7.7476 c 5.11551,-1.96301 5.65219,-13.32625 0.71881,-15.21935 -6.63412,-2.54578 -18.31926,1.19571 -16.72334,5.35463 0.82189,2.14181 1.49435,5.60331 1.49435,7.69224 0,3.93503 7.13368,5.00311 14.51018,2.17248 z m -7.21178,-59.2369 c 2.05189,-5.34708 -3.944,-8.67609 -15.71551,-8.72558 -6.2308,-0.0268 -10.313134,1.41055 -11.297634,3.97605 -2.15395,5.61312 0.596,11.56348 5.883044,12.7299 6.53056,1.44071 19.37668,-3.41096 21.1301,-7.98037 z m 23.47503,-35.58586 c -1.01964,-1.64981 -2.4894,-12.25819 -3.26617,-23.57419 -0.77673,-11.31603 -2.76446,-21.45996 -4.41713,-22.54211 -5.14213,-3.36699 -32.73758,-2.23801 -42.198454,1.72643 -8.62889,3.61578 -9.1247,4.60834 -11.68914,23.40068 -2.02095,14.80969 -3.77177,19.83428 -7.13579,20.47873 -10.46123,2.004 -9.21645,-34.32229 1.60728,-46.90562 5.84833,-6.79909 7.30111,-7.11695 33.261944,-7.27723 l 27.14654,-0.16764 0.0107,-7.53019 0.0107,-7.53022 -22.09382,0.34844 c -29.808034,0.47007 -31.466974,0.3437 -31.466974,-2.39725 0,-4.05479 15.689354,-5.6384 71.769534,-7.24407 53.55021,-1.53328 54.09674,-1.4925 54.09674,4.03757 0,5.30865 -1.39874,5.58653 -28.11941,5.58653 l -28.11941,0 0,6.6951 c 0,3.6823 1.50639,6.76909 3.34755,6.85955 2.75249,0.13524 31.08673,1.2112 60.29525,2.28965 9.62994,0.35556 15.80349,13.44828 16.42814,34.84043 0.29648,10.15411 -0.4828,19.09359 -1.73173,19.86548 -4.78084,2.95471 -7.96307,-2.81595 -9.64796,-17.49565 -0.96176,-8.37951 -2.92209,-18.32173 -4.35623,-22.09383 -2.73961,-7.20572 -2.90283,-7.24096 -33.53757,-7.24096 -6.62815,0 -16.22217,0.086 -21.32006,0.19121 l -9.26885,0.19121 -0.7738,23.21673 c -0.73196,21.96222 -3.97249,30.13375 -8.8319,22.27106 z m -53.090424,-7.10257 c -4.73461,-4.73461 -0.35444,-6.21471 14.952384,-5.05257 9.20576,0.69891 17.71271,1.31826 18.90433,1.37632 1.19162,0.0581 1.42177,1.31066 0.51145,2.78358 -1.82955,2.96028 -31.529144,3.73169 -34.368164,0.89267 z m 73.199744,-2.00317 c 0,-2.79252 4.64556,-4.02466 17.67005,-4.68657 17.42779,-0.88571 24.026,1.49004 16.81803,6.05548 -2.02985,1.2857 -10.62006,2.35606 -19.08936,2.37863 -11.50893,0.0305 -15.39872,-0.91599 -15.39872,-3.74754 z M 97.696826,823.07772 c -2.25603,-3.65033 4.206934,-8.16882 9.107724,-6.36757 1.96161,0.72101 8.28847,1.3109 14.0597,1.3109 7.54187,0 10.49312,1.12981 10.49312,4.01706 0,3.11994 -3.55317,4.01706 -15.91017,4.01706 -8.78464,0 -16.734354,-1.33348 -17.750374,-2.97745 z m 71.153104,-4.89861 c 0,-4.11063 3.9425,-5.39384 17.74024,-5.77415 18.44186,-0.50829 19.75231,-0.22442 19.75231,4.27707 0,3.18815 -3.86827,4.01706 -18.74628,4.01706 -10.31045,0 -18.74627,-1.13399 -18.74627,-2.51998 z"
       id="path4206"
       inkscape:connector-curvature="0"
       sodipodi:nodetypes="csssssssssssssssccsssssscsccscssssssssssssssssssssssssssssssssssssssccssssssssssscssscssssssscccssssscssssssssscsccsscssssscsscsssssssss" />
  </g>
</svg>
