<?xml version="1.0" encoding="UTF-8" standalone="no"?>
<svg
   xmlns:dc="http://purl.org/dc/elements/1.1/"
   xmlns:cc="http://creativecommons.org/ns#"
   xmlns:rdf="http://www.w3.org/1999/02/22-rdf-syntax-ns#"
   xmlns:svg="http://www.w3.org/2000/svg"
   xmlns="http://www.w3.org/2000/svg"
   version="1.1"
   id="svg166"
   width="300"
   height="300"
   viewBox="0 0 300 300">
  <metadata
     id="metadata172">
    <rdf:RDF>
      <cc:Work
         rdf:about="">
        <dc:format>image/svg+xml</dc:format>
        <dc:type
           rdf:resource="http://purl.org/dc/dcmitype/StillImage" />
        <dc:title></dc:title>
      </cc:Work>
    </rdf:RDF>
  </metadata>
  <defs
     id="defs170" />
  <path
     style="fill:#000000;stroke-width:0.69048321"
     d="m 177.53003,213.9146 -54.24328,-0.14811 c -2.51018,20.2308 -5.7397,44.21767 -14.62664,64.29986 -4.2711,9.6516 -13.64989,6.26774 -10.65482,-2.62883 15.8329,-47.03015 19.22463,-86.36415 13.3117,-143.38034 L 80.59788,131.7903 c -7.65852,-0.0666 -14.50381,-0.28822 -14.55661,-7.21848 -0.0372,-4.88062 8.97979,-5.96608 15.37443,-5.94956 l 59.6672,-0.0285 -0.0976,-14.8451 -50.23645,-0.0419 c -7.5035,-0.006 -11.41817,-0.46661 -11.62661,-4.633337 -0.24162,-4.830107 3.61729,-6.6934 12.87435,-6.689238 l 48.87248,-1.77e-4 0.0375,-12.341209 C 108.29368,79.325012 95.6656,67.512731 95.85518,35.512483 c 0.0371,-6.266717 0.37577,-12.27102 5.71249,-12.351193 5.20697,-0.07823 5.58824,7.926545 5.62627,12.215751 0.26211,29.558311 9.75394,32.742301 33.60925,33.147177 l -0.0976,-42.428032 c -0.0136,-5.93124 1.38023,-11.152383 5.63338,-11.095716 4.38626,0.05844 5.06097,4.608755 5.08471,11.42058 L 151.57,68.403225 c 21.32869,-0.222652 32.5318,-5.133443 32.69117,-31.502019 0.034,-5.622123 1.30727,-13.823895 5.90471,-13.81148 5.08656,0.01373 5.87617,8.249149 5.88451,14.67273 0.0374,28.8318 -14.39906,42.439829 -44.37585,42.329364 l 0.0626,12.279134 41.28549,-0.01954 c 11.9207,-0.0056 15.44244,1.396243 15.56619,5.359815 0.14542,4.657691 -3.83421,6.022381 -15.2092,6.027371 l -41.54302,0.0222 0.11435,14.63373 68.93955,1.25481 c 8.76432,0.15953 13.09715,1.33596 13.0682,6.15024 -0.03,4.99443 -5.01088,6.25961 -13.63293,6.21689 l -31.40728,-0.15561 c -5.33178,57.3955 0.47328,98.1013 13.13105,142.72413 3.67302,12.9486 -7.09771,13.19783 -10.64399,4.2004 -7.92676,-20.11126 -11.8933,-46.522 -13.8755,-64.87081 z m -1.03177,-13.27762 c -0.92805,-13.09342 -1.05882,-25.01943 -0.8597,-41.80227 h -50.90235 c 0.8185,16.46874 0.88635,26.82416 0.25021,41.74707 z m -24.62537,-14.73682 c -6.9433,-0.0404 -17.64835,0.0741 -17.61184,-6.1433 0.0358,-6.09587 10.61268,-5.90197 17.33711,-5.81999 7.72191,0.0942 18.21196,-0.38449 18.31687,5.6435 0.10077,5.78996 -10.05827,6.36632 -18.04214,6.31979 z m 24.7873,-53.89851 -53.65779,-0.15509 1.36206,15.82797 51.84592,0.11246 z"
     id="path178" />
</svg>
