<?xml version="1.0" encoding="UTF-8" standalone="no"?>
<!-- Created with Inkscape (http://www.inkscape.org/) -->

<svg
   xmlns:dc="http://purl.org/dc/elements/1.1/"
   xmlns:cc="http://creativecommons.org/ns#"
   xmlns:rdf="http://www.w3.org/1999/02/22-rdf-syntax-ns#"
   xmlns:svg="http://www.w3.org/2000/svg"
   xmlns="http://www.w3.org/2000/svg"
   xmlns:sodipodi="http://sodipodi.sourceforge.net/DTD/sodipodi-0.dtd"
   xmlns:inkscape="http://www.inkscape.org/namespaces/inkscape"
   width="300"
   height="300"
   id="svg2"
   version="1.1"
   inkscape:version="0.91 r13725"
   sodipodi:docname="image-seal.svg">
  <defs
     id="defs4" />
  <sodipodi:namedview
     id="base"
     pagecolor="#ffffff"
     bordercolor="#666666"
     borderopacity="1.0"
     inkscape:pageopacity="0.0"
     inkscape:pageshadow="2"
     inkscape:zoom="2.7366667"
     inkscape:cx="150"
     inkscape:cy="150"
     inkscape:document-units="px"
     inkscape:current-layer="layer1"
     showgrid="false"
     inkscape:window-width="1231"
     inkscape:window-height="1000"
     inkscape:window-x="49"
     inkscape:window-y="24"
     inkscape:window-maximized="1"
     showguides="true"
     inkscape:guide-bbox="true" />
  <metadata
     id="metadata7">
    <rdf:RDF>
      <cc:Work
         rdf:about="">
        <dc:format>image/svg+xml</dc:format>
        <dc:type
           rdf:resource="http://purl.org/dc/dcmitype/StillImage" />
        <dc:title />
      </cc:Work>
    </rdf:RDF>
  </metadata>
  <g
     inkscape:label="Calque 1"
     inkscape:groupmode="layer"
     id="layer1"
     transform="translate(0,-752.36218)">
    <path
       style="fill:#000000"
       d="m 231.99058,1045.3354 c 0,-1.139 -2.74857,-3.2768 -6.10795,-4.7506 -8.95105,-3.9271 -23.39601,-34.9591 -25.33749,-54.43246 -1.58384,-15.88592 -1.45359,-16.28022 9.22558,-27.9283 7.0349,-7.67316 11.20959,-15.04823 11.90891,-21.0385 1.0229,-8.76177 0.64923,-9.22361 -7.46226,-9.22361 -12.10805,0 -23.45136,6.41913 -29.74842,16.83444 -4.65903,7.70606 -5.44796,14.0648 -5.65797,45.60241 -0.17319,26.02282 -1.15704,36.56902 -3.39331,36.37622 -1.7321,-0.1493 -4.2605,-0.4547 -5.61866,-0.6786 -3.77317,-0.6222 -8.90485,-35.85942 -7.20122,-49.44798 3.98551,-31.78931 6.3179,-37.33186 22.20167,-52.75846 6.14922,-5.97222 12.0046,-13.50951 13.01195,-16.74958 1.54192,-4.9593 0.29606,-6.44622 -7.87741,-9.40179 -6.49254,-2.34773 -10.35244,-5.79205 -11.65132,-10.39687 -2.71722,-9.63333 -1.63158,-103.59369 1.2207,-105.64632 1.28522,-0.92491 3.54484,-5.26937 5.02133,-9.65434 3.1469,-9.3459 13.78359,-13.12045 33.38637,-11.84752 17.57714,1.14137 19.41405,5.82402 19.48928,49.68132 0.0334,19.40971 1.30069,42.93225 2.81641,52.27231 3.86661,23.82607 -2.6458,35.95366 -19.3068,35.95366 -8.29867,0 -6.99165,12.53681 1.52998,14.67559 7.10588,1.78347 14.97993,13.90835 14.97993,23.06691 0,5.96354 -5.14447,18.84575 -9.46961,23.71276 -10.30878,11.60033 -12.24756,15.64526 -12.24756,25.55257 0,11.47598 6.73026,27.21554 15.68427,36.67954 9.29175,9.821 12.25986,17.3141 8.60353,21.7197 -3.47203,4.1835 -7.99993,5.2179 -7.99993,1.8275 z m -9.92124,-165.55842 c 4.184,-15.25199 4.67992,-26.03451 1.29603,-28.18 -4.17722,-2.64849 -24.2483,-3.11682 -30.51511,-0.712 -4.41399,1.6938 -6.09674,20.3568 -2.64624,29.34863 2.49367,6.49845 30.06576,6.10333 31.86532,-0.45663 z m 3.40414,-46.82568 c 1.492,-1.492 2.23033,-6.84457 1.64076,-11.89463 -1.05423,-9.03037 -1.33707,-9.21193 -17.13506,-10.99925 -8.83473,-0.99953 -17.26908,-1.07204 -18.74302,-0.16098 -2.9938,1.85025 -3.69417,21.13387 -0.87013,23.95789 2.85814,2.85814 32.0984,2.1061 35.10745,-0.90295 z m 1.08781,-46.15093 0,-10.85858 -16.23615,0 c -15.0507,0 -16.36041,0.49507 -17.93797,6.78053 -3.10176,12.35843 -0.029,14.93663 17.80104,14.93663 l 16.37308,0 0,-10.85858 z M 90.829027,985.21863 c -2.23959,-1.1804 -7.73674,-4.06854 -12.21591,-6.41804 -17.15227,-8.99707 -18.90392,-14.37636 -18.5799,-57.05875 0.40443,-53.27945 3.43313,-116.55316 6.5891,-137.65611 4.05445,-27.11095 5.68102,-27.89068 54.616033,-26.18126 22.07001,0.77096 41.35881,2.16286 42.86403,3.09312 1.50519,0.93028 2.73672,3.4517 2.73672,5.60316 0,4.15221 -16.31128,5.69812 -20.10404,1.90536 -2.76932,-2.76932 -29.48534,-3.22484 -32.86887,-0.56041 -1.51358,1.19189 -7.9948,2.69135 -14.402723,3.33214 -6.40789,0.64079 -13.10984,2.62216 -14.89322,4.40307 -4.13264,4.12692 -6.96157,39.6338 -9.42913,118.34795 l -1.95729,62.43685 7.04584,6.80529 c 5.6859,5.49178 10.27422,6.96529 23.771873,7.63423 30.58504,1.51578 41.33379,-6.83691 42.55313,-33.06742 0.28721,-6.17826 1.3292,-30.16785 2.31556,-53.3102 3.70723,-86.98099 4.36909,-95.78162 7.48586,-99.53709 5.01517,-6.04294 8.55868,-0.0513 8.61066,14.55946 0.12868,36.13562 -4.01841,145.54932 -5.98913,158.01597 -1.23886,7.837 -3.98882,15.98546 -6.11105,18.10767 -8.53017,8.5302 -51.4377,15.13189 -62.037543,9.54501 z m 7.85751,-43.85623 c -3.89017,-1.50307 -8.38771,-5.61823 -9.99451,-9.1448 -3.38801,-7.43585 -2.52085,-88.68478 1.22246,-114.54207 3.49008,-24.1079 5.95808,-26.16131 29.131703,-24.23812 19.36389,1.60704 26.6804,4.76608 21.86804,9.44194 -1.4184,1.37817 -6.24368,2.90516 -10.72285,3.39331 -7.51153,0.81863 -8.14393,1.71319 -8.14393,11.51992 0,13.42908 5.89773,16.04649 10.23934,4.54421 7.80564,-20.67946 11.90619,-0.67676 9.13185,44.54562 -0.54961,8.95833 -1.16276,26.29788 -1.36262,38.53233 -0.30786,18.84621 -1.29713,23.32999 -6.47556,29.35028 -6.90932,8.03256 -23.20515,11.1136 -34.893923,6.59738 z m 24.718233,-18.66954 c 0,-2.89799 1.05776,-5.92281 2.35058,-6.72184 1.29283,-0.799 1.74962,-4.59652 1.01509,-8.43891 -1.23451,-6.45798 -2.28445,-6.92465 -13.88783,-6.17273 -12.03605,0.77998 -12.58786,1.18359 -13.416213,9.81334 -1.11979,11.666 3.387123,16.78921 14.769493,16.78921 7.26619,0 9.16888,-1.09343 9.16888,-5.26907 z m 3.75218,-38.79299 c 3.99145,-6.37526 -2.02124,-11.80148 -15.2809,-13.79037 -9.14713,-1.37204 -10.34204,-0.84561 -11.86634,5.22765 -3.214463,12.80745 19.92094,20.1048 27.14724,8.56272 z m -1.23861,-24.78569 c 2.78919,-5.21163 2.75284,-7.49679 -0.19437,-12.2159 -3.75297,-6.00941 -7.08101,-7.08876 -18.57289,-6.02342 -18.774303,1.74041 -8.596153,19.73582 13.7589,24.32634 0.8675,0.17809 3.12122,-2.56102 5.00828,-6.08702 z m -12.7606,-32.27279 c 2.04484,-5.81892 -2.00188,-16.89853 -6.48754,-17.76238 -4.21443,-0.81163 -7.582113,6.40059 -7.660163,16.40506 -0.0437,5.58614 12.247293,6.76533 14.147703,1.35732 z"
       id="path3613"
       inkscape:connector-curvature="0" />
  </g>
</svg>
