<?xml version="1.0" encoding="UTF-8" standalone="no"?>
<!-- Created with Inkscape (http://www.inkscape.org/) -->

<svg
   xmlns:dc="http://purl.org/dc/elements/1.1/"
   xmlns:cc="http://creativecommons.org/ns#"
   xmlns:rdf="http://www.w3.org/1999/02/22-rdf-syntax-ns#"
   xmlns:svg="http://www.w3.org/2000/svg"
   xmlns="http://www.w3.org/2000/svg"
   xmlns:sodipodi="http://sodipodi.sourceforge.net/DTD/sodipodi-0.dtd"
   xmlns:inkscape="http://www.inkscape.org/namespaces/inkscape"
   width="300"
   height="300"
   id="svg2"
   version="1.1"
   inkscape:version="0.48.4 r9939"
   sodipodi:docname="image-seal.svg">
  <defs
     id="defs4" />
  <sodipodi:namedview
     id="base"
     pagecolor="#ffffff"
     bordercolor="#666666"
     borderopacity="1.0"
     inkscape:pageopacity="0.0"
     inkscape:pageshadow="2"
     inkscape:zoom="1.979899"
     inkscape:cx="200.43343"
     inkscape:cy="122.13442"
     inkscape:document-units="px"
     inkscape:current-layer="layer1"
     showgrid="false"
     inkscape:window-width="1215"
     inkscape:window-height="1000"
     inkscape:window-x="65"
     inkscape:window-y="24"
     inkscape:window-maximized="1" />
  <metadata
     id="metadata7">
    <rdf:RDF>
      <cc:Work
         rdf:about="">
        <dc:format>image/svg+xml</dc:format>
        <dc:type
           rdf:resource="http://purl.org/dc/dcmitype/StillImage" />
        <dc:title />
      </cc:Work>
    </rdf:RDF>
  </metadata>
  <g
     inkscape:label="Calque 1"
     inkscape:groupmode="layer"
     id="layer1"
     transform="translate(0,-752.36218)">
    <path
       style="fill:#000000"
       d="m 107.48319,1040.363 c -0.73936,-1.9269 -1.51032,-17.746 -1.71323,-35.1538 -0.2029,-17.40777 -1.00064,-32.67259 -1.77269,-33.92179 -0.77206,-1.24921 -10.95633,-2.2713 -22.631698,-2.2713 -19.44579,0 -21.227941,-0.44886 -21.227941,-5.34642 0,-4.62736 1.887557,-5.38896 14.034374,-5.6627 7.718908,-0.17403 17.643208,-1.09069 22.054013,-2.03723 7.221292,-1.54958 8.027402,-2.75541 8.097572,-12.11259 0.0871,-11.62084 -4.27213,-17.57056 -12.96664,-17.69748 -14.015263,-0.2045 -19.7928,-14.34965 -20.164937,-49.36946 -0.230966,-21.72421 2.404956,-28.25435 9.58692,-23.75121 2.614833,1.63951 4.754236,5.24835 4.754236,8.01965 0,11.08804 10.052134,13.86331 17.538891,4.84228 5.04549,-6.07942 0.54043,-24.02042 -6.880689,-27.40169 -9.164763,-4.17576 -15.07984,-14.61604 -15.740018,-27.78174 -0.558938,-11.14676 -0.835961,-11.47249 -10.443949,-12.28017 -8.596281,-0.7226 -9.869773,-1.71428 -9.869773,-7.6855 0,-6.1309 0.81533,-6.69274 7.711207,-5.31357 6.814583,1.36294 7.885446,0.67095 9.209917,-5.9514 0.824283,-4.12151 0.822784,-10.07842 -0.0027,-13.23755 -1.187469,-4.54036 -0.316616,-5.7439 4.156021,-5.7439 3.112023,0 5.811725,0.9022 5.999356,2.00491 0.187667,1.1027 0.634646,4.91548 0.993365,8.47281 0.893313,8.85913 8.254571,13.61842 18.375697,11.88056 14.42619,-2.47708 15.04156,-3.06369 15.04156,-14.33864 0,-7.49219 1.32734,-11.37001 4.27961,-12.50289 5.69474,-2.18528 8.99553,3.59649 9.04554,15.84441 0.0382,9.34715 0.58284,10.02454 8.06057,10.02454 6.37324,0 8.01964,1.15633 8.01964,5.63244 0,3.90833 -1.2274,5.16142 -4.00983,4.09371 -9.25289,-3.55067 -12.02946,0.96193 -12.02946,19.5509 0,14.05496 -1.07401,18.98415 -4.88861,22.43631 -2.68874,2.4333 -6.29758,4.42415 -8.01963,4.42415 -1.74281,0 -3.14721,3.85201 -3.16756,8.68793 -0.0187,4.77838 -0.78335,11.47684 -1.69617,14.88551 -1.55173,5.79429 -0.9841,6.14213 8.72445,5.34642 9.49072,-0.7779 10.31305,-1.46163 9.55798,-7.94715 -0.98335,-8.44606 3.88953,-12.38355 8.97807,-7.25464 3.14987,3.17487 5.68811,37.03342 4.224,56.3456 -0.45496,6.00124 -13.68635,18.15239 -19.7661,18.15239 -5.17184,0 -9.98571,9.7491 -9.98571,20.22312 0,5.47868 1.37526,6.57282 8.68795,6.91214 4.77837,0.2216 12.00388,0.14381 16.05666,-0.17323 4.69681,-0.36744 7.96682,0.98217 9.01819,3.72199 2.43701,6.35073 -0.42895,7.80509 -13.99658,7.10279 -18.89144,-0.97791 -19.76622,0.74449 -19.76622,38.91819 0,25.2773 -0.91819,34.197 -3.81887,37.0976 -4.7171,4.7172 -5.93796,4.7675 -7.64628,0.3158 z m -4.01971,-137.50892 c 1.47685,-17.16079 -0.0307,-21.82076 -7.681373,-23.74093 -8.681453,-2.17888 -9.796663,-0.53117 -9.969862,14.73051 -0.15798,13.91356 4.082083,21.70818 11.808521,21.70818 3.731094,0 4.984344,-2.72366 5.842714,-12.69776 z m 28.92519,4.53935 c 1.42942,-2.67088 2.59895,-10.34852 2.59895,-17.06139 0,-11.77919 -0.27992,-12.2052 -8.01964,-12.2052 l -8.01964,0 0,16.93035 c 0,9.31171 0.71906,17.64944 1.59797,18.52831 2.51846,2.51849 8.99218,-0.86647 11.84236,-6.19207 z m -11.04021,-83.55722 c 1.81698,-3.39503 2.92247,-11.51491 2.45662,-18.04418 -0.80923,-11.34326 -1.24991,-11.90992 -9.90476,-12.73669 -4.98183,-0.47589 -11.89877,-0.15237 -15.370977,0.71923 -5.441031,1.3656 -6.31315,3.21242 -6.31315,13.369 0,9.54702 1.337339,12.83649 7.043555,17.32497 9.309892,7.32316 17.963642,7.07543 22.088712,-0.63233 z m 71.97831,127.49751 c -1.27479,-97.16719 -0.94711,-103.27714 5.47271,-102.04179 3.92565,0.75537 4.35509,10.05673 4.35509,94.32702 0,84.13895 -0.43406,93.57275 -4.34025,94.32585 -3.91481,0.7546 -4.45272,-7.735 -5.48755,-86.61108 z M 157.29202,849.93296 c -0.91134,-2.37488 1.06182,-6.28366 4.77933,-9.46766 28.26407,-24.20812 27.33817,-22.12417 26.41744,-59.45979 -0.50652,-20.53938 -0.39815,-20.91801 5.73816,-20.04911 6.01431,0.85164 6.263,1.81907 6.47813,25.19964 0.25717,27.9335 1.63168,33.1601 8.72132,33.1601 2.80665,0 6.64996,1.86397 8.54067,4.14215 1.89074,2.27818 8.58129,6.48532 14.86788,9.34921 13.77919,6.27714 16.03926,9.33785 10.77923,14.59789 -5.18916,5.18916 -8.68091,5.03091 -17.32462,-0.78515 -3.90263,-2.62596 -10.4038,-6.43807 -14.44704,-8.47136 -4.04323,-2.03331 -7.35133,-4.69657 -7.35133,-5.91839 0,-5.0686 -9.71211,-1.57872 -22.4754,8.07612 -16.80784,12.7144 -22.66383,14.99446 -24.72377,9.62635 z"
       id="path3199"
       inkscape:connector-curvature="0" />
  </g>
</svg>
