<?xml version="1.0" encoding="UTF-8" standalone="no"?>
<!-- Created with Inkscape (http://www.inkscape.org/) -->

<svg
   xmlns:dc="http://purl.org/dc/elements/1.1/"
   xmlns:cc="http://creativecommons.org/ns#"
   xmlns:rdf="http://www.w3.org/1999/02/22-rdf-syntax-ns#"
   xmlns:svg="http://www.w3.org/2000/svg"
   xmlns="http://www.w3.org/2000/svg"
   xmlns:sodipodi="http://sodipodi.sourceforge.net/DTD/sodipodi-0.dtd"
   xmlns:inkscape="http://www.inkscape.org/namespaces/inkscape"
   width="300"
   height="300"
   id="svg2"
   version="1.1"
   inkscape:version="0.48.4 r9939"
   sodipodi:docname="dessin.svg">
  <defs
     id="defs4" />
  <sodipodi:namedview
     id="base"
     pagecolor="#ffffff"
     bordercolor="#666666"
     borderopacity="1.0"
     inkscape:pageopacity="0.0"
     inkscape:pageshadow="2"
     inkscape:zoom="1.979899"
     inkscape:cx="227.07871"
     inkscape:cy="107.23575"
     inkscape:document-units="px"
     inkscape:current-layer="layer1"
     showgrid="false"
     inkscape:window-width="1215"
     inkscape:window-height="1000"
     inkscape:window-x="65"
     inkscape:window-y="24"
     inkscape:window-maximized="1" />
  <metadata
     id="metadata7">
    <rdf:RDF>
      <cc:Work
         rdf:about="">
        <dc:format>image/svg+xml</dc:format>
        <dc:type
           rdf:resource="http://purl.org/dc/dcmitype/StillImage" />
        <dc:title />
      </cc:Work>
    </rdf:RDF>
  </metadata>
  <g
     inkscape:label="Calque 1"
     inkscape:groupmode="layer"
     id="layer1"
     transform="translate(0,-752.36218)">
    <path
       style="fill:#000000"
       d="m 186.46775,1031.5056 c -0.85057,-2.4164 -0.9776,-8.2152 -0.28228,-12.8862 0.6953,-4.671 0.35859,-9.4864 -0.74832,-10.7009 -2.40827,-2.6424 -5.21557,-82.57273 -3.2926,-93.74728 1.09868,-6.38432 3.02426,-8.39224 10.48109,-10.92931 11.49485,-3.91095 13.9835,-3.82029 19.47283,0.70933 6.18889,5.10685 1.06825,11.44665 -9.2454,11.44665 -4.25932,0 -8.45681,1.2569 -9.32772,2.79307 -2.5217,4.44806 -1.32095,78.50153 1.51707,93.56214 2.35536,12.4992 2.164,14.125 -2.22563,18.9104 -4.41666,4.8148 -4.92681,4.8825 -6.34904,0.8421 z m -80.35959,-6.8113 c -1.39976,-2.8512 -1.89376,-7.421 -1.09779,-10.155 0.79598,-2.7339 1.50225,-15.99171 1.56951,-29.46168 0.0887,-17.776 -0.73042,-25.06533 -2.98782,-26.58625 -1.71055,-1.15249 -9.56227,-1.43859 -17.448267,-0.63579 -10.014294,1.01946 -14.868179,0.52469 -16.095763,-1.64061 -3.151385,-5.55877 2.945464,-8.52135 16.740849,-8.13472 15.237461,0.42707 18.017741,-0.87938 19.994961,-9.39561 1.99518,-8.5937 -0.10899,-12.58205 -7.582371,-14.37144 -3.610175,-0.86442 -8.269973,-3.62674 -10.355096,-6.13846 -7.741593,-9.32557 -8.906869,-65.10515 -1.360088,-65.10515 2.243461,0 3.763029,2.96899 4.231715,8.26804 0.671807,7.59584 1.393202,8.26804 8.87308,8.26804 l 8.14181,0 -0.70536,-13.33485 c -0.61557,-11.6373 -1.51087,-13.75404 -7.03292,-16.62789 -4.634875,-2.41214 -6.718248,-5.82055 -7.788079,-12.74128 -2.765308,-17.88894 -3.084128,-18.35227 -12.628732,-18.35227 -6.008053,0 -9.39329,-1.32302 -10.351667,-4.0456 -2.040178,-5.79595 0.592766,-9.13219 5.788389,-7.33451 9.413546,3.2571 13.805396,-0.86566 13.805396,-12.95945 0,-6.20213 0.60007,-11.27662 1.333508,-11.27662 3.057735,0 8.001022,7.63433 8.001022,12.35662 0,7.32798 6.258213,13.08351 14.226243,13.08351 7.24886,0 11.40311,-6.73457 11.47944,-18.60971 0.0187,-3.05711 1.02607,-7.26606 2.23646,-9.35317 3.60486,-6.21591 7.88506,0.92001 7.47047,12.45467 -0.33686,9.37181 0.23033,10.34251 7.78199,13.31941 9.77852,3.85473 10.42193,6.65087 1.7819,7.74385 -7.82232,0.98951 -12.22402,9.60856 -12.27126,24.02845 -0.0304,9.25658 -0.86544,10.87868 -7.03529,13.6647 -6.27136,2.83187 -7.00089,4.3221 -7.00089,14.30071 0,6.18836 1.1054,11.13942 2.48704,11.13942 5.41169,0 11.51475,-5.53982 11.51475,-10.4521 0,-3.56877 1.27303,-4.91778 4.08386,-4.32767 3.61687,0.75933 4.08386,4.32337 4.08386,31.16781 l 0,30.31043 -11.08476,6.02623 c -9.47359,5.15033 -11.08475,7.1182 -11.08475,13.53896 0,11.25389 0.0999,11.32871 15.11524,11.32871 10.95365,0 14.10825,0.87875 14.69285,4.09283 0.53524,2.94264 -1.08932,4.1532 -5.78072,4.30762 -12.11022,0.39858 -24.02551,3.58585 -24.32188,6.50597 -0.16195,1.5959 -0.0822,15.65674 0.17759,31.24629 0.33,19.81266 -0.45275,29.95906 -2.60049,33.70816 -3.84372,6.7097 -5.77321,6.7481 -8.99796,0.1794 z m 2.34509,-126.74068 c -0.0441,-14.56436 -2.36175,-18.86843 -9.562713,-17.75848 -4.431172,0.68302 -5.724634,2.62123 -6.325522,9.47864 -1.056832,12.06056 1.21328,20.09124 6.00761,21.25238 7.793775,1.88757 9.917145,-0.90025 9.880625,-12.97254 z m 18.12467,9.17624 c 1.27876,-1.74902 3.04689,-8.61785 3.92919,-15.26408 l 1.60417,-12.08406 -6.98159,0 c -7.75779,0 -9.13811,3.78968 -7.64449,20.9881 0.84018,9.67414 4.6972,12.37199 9.09272,6.36004 z m -4.08715,-78.35552 c 0,-2.37869 0.669,-7.97156 1.48671,-12.42857 l 1.48671,-8.10366 -11.26253,0.78964 c -10.84886,0.76062 -11.29462,1.09992 -12.13656,9.23791 -1.12792,10.90214 1.75911,14.40308 12.07169,14.63871 6.37553,0.14551 8.35398,-0.8334 8.35398,-4.13403 z m 25.10536,67.35197 c -1.72705,-1.88274 2.08778,-16.47869 5.19114,-19.86182 1.30591,-1.42363 2.37436,-4.66459 2.37436,-7.20215 0,-2.53755 0.92762,-6.60161 2.06136,-9.03124 4.44068,-9.51634 6.99842,-17.462 7.97349,-24.7696 0.56009,-4.19762 2.66674,-12.78366 4.68141,-19.0801 2.01469,-6.29642 4.94648,-16.31348 6.51508,-22.2601 4.31572,-16.36093 9.89663,-14.61184 18.46718,5.78773 3.83576,9.12988 6.99749,17.42972 7.02602,18.4441 0.0285,1.01436 2.10546,4.70631 4.61537,8.20432 2.50991,3.49803 4.58682,7.87098 4.61537,9.71768 0.0285,1.84672 2.97187,8.14316 6.54073,13.99206 3.56886,5.84894 7.94685,13.78265 9.72887,17.63047 1.78202,3.84782 4.11271,6.99603 5.17932,6.99603 1.06662,0 1.9393,2.16712 1.9393,4.81584 0,8.8941 -12.18441,9.49546 -14.83546,0.7322 -0.71148,-2.35182 -4.38931,-10.00006 -8.17297,-16.99609 -3.78366,-6.99604 -6.37531,-13.61065 -5.75926,-14.69915 0.61608,-1.08849 -0.93719,-3.9505 -3.45171,-6.36004 -2.5145,-2.40951 -7.03549,-9.53256 -10.04668,-15.829 -3.01115,-6.29642 -5.73417,-11.8974 -6.05113,-12.44657 -1.29489,-2.24362 -7.6886,5.73952 -7.67109,9.57805 0.01,2.2773 -3.02521,12.72657 -6.74574,23.22062 -3.72051,10.49406 -8.04312,23.65932 -9.60578,29.25614 -4.64132,16.62318 -10.44595,24.65553 -14.56918,20.16062 z m 26.23456,-26.39924 c 0,-4.72156 1.4366,-5.20943 15.33971,-5.20943 13.34987,0 15.2388,0.57752 14.56177,4.45203 -0.62405,3.57136 -3.65846,4.60183 -15.33971,5.20942 -13.34532,0.69411 -14.56177,0.32219 -14.56177,-4.45202 z"
       id="path3393"
       inkscape:connector-curvature="0" />
  </g>
</svg>
