<?xml version="1.0" encoding="UTF-8" standalone="no"?>
<!-- Created with Inkscape (http://www.inkscape.org/) -->

<svg
   xmlns:dc="http://purl.org/dc/elements/1.1/"
   xmlns:cc="http://creativecommons.org/ns#"
   xmlns:rdf="http://www.w3.org/1999/02/22-rdf-syntax-ns#"
   xmlns:svg="http://www.w3.org/2000/svg"
   xmlns="http://www.w3.org/2000/svg"
   xmlns:sodipodi="http://sodipodi.sourceforge.net/DTD/sodipodi-0.dtd"
   xmlns:inkscape="http://www.inkscape.org/namespaces/inkscape"
   width="300"
   height="300"
   id="svg2"
   version="1.1"
   inkscape:version="0.48.4 r9939"
   sodipodi:docname="image-seal.svg">
  <defs
     id="defs4" />
  <sodipodi:namedview
     id="base"
     pagecolor="#ffffff"
     bordercolor="#666666"
     borderopacity="1.0"
     inkscape:pageopacity="0.0"
     inkscape:pageshadow="2"
     inkscape:zoom="2.0506101"
     inkscape:cx="156.21232"
     inkscape:cy="149.80966"
     inkscape:document-units="px"
     inkscape:current-layer="layer1"
     showgrid="false"
     inkscape:window-width="1215"
     inkscape:window-height="1000"
     inkscape:window-x="65"
     inkscape:window-y="24"
     inkscape:window-maximized="1"
     fit-margin-top="10"
     fit-margin-left="10"
     fit-margin-right="10"
     fit-margin-bottom="10" />
  <metadata
     id="metadata7">
    <rdf:RDF>
      <cc:Work
         rdf:about="">
        <dc:format>image/svg+xml</dc:format>
        <dc:type
           rdf:resource="http://purl.org/dc/dcmitype/StillImage" />
        <dc:title />
      </cc:Work>
    </rdf:RDF>
  </metadata>
  <g
     inkscape:label="Calque 1"
     inkscape:groupmode="layer"
     id="layer1"
     transform="translate(0,-752.36218)">
    <path
       style="fill:#000000"
       d="m 195.6573,1038.1551 c -4.11906,-24.9202 1.3816,-50.78334 13.49708,-63.46105 3.70191,-3.87368 7.47502,-8.98263 8.38469,-11.3532 0.90969,-2.37059 2.81384,-4.31014 4.23142,-4.31014 1.41763,0 4.24466,-3.99013 6.28233,-8.86695 2.82409,-6.759 3.81136,-22.34323 4.1529,-65.55403 0.24637,-31.17789 -0.25218,-57.81996 -1.10792,-59.20462 -4.1508,-6.71616 -43.92221,-8.68716 -56.25205,-2.78774 -11.12523,5.32303 -13.80672,20.00205 -13.77945,75.43139 0.0261,53.2256 -0.17572,52.65074 21.28961,60.64691 21.25655,7.91842 17.2807,19.71169 -4.3369,12.8643 -5.81498,-1.84189 -14.2757,-7.26679 -18.80162,-12.0553 -6.72535,-7.11558 -8.26947,-10.84582 -8.45076,-20.41507 -0.23877,-12.6041 -3.94458,-39.70256 -4.50384,-32.93399 -0.36818,4.45606 -18.27684,17.42735 -24.06082,17.42735 -4.487,0 -6.842,16.82661 -3.42577,24.47718 2.0609,4.61537 3.90966,5.26252 11.6343,4.07259 5.05123,-0.77811 9.64891,-1.81326 10.21706,-2.30038 1.86632,-1.60004 7.82891,4.67745 7.82891,8.24238 0,2.51479 -3.70887,3.49877 -13.29291,3.52672 -7.31109,0.0203 -14.76659,0.97368 -16.56774,2.11633 -2.44939,1.55388 -3.09613,9.753 -2.56584,32.52861 0.53066,22.78991 -0.15672,31.49421 -2.73213,34.59741 -1.89263,2.2805 -4.44105,4.1463 -5.66313,4.1463 -1.22206,0 -2.22194,-15.9514 -2.22194,-35.44768 0,-19.49626 -0.85455,-35.58825 -1.89899,-35.75999 -1.04444,-0.17167 -9.673288,-0.63495 -19.175238,-1.02936 -18.66676,-0.77483 -20.79798,-1.58884 -18.67111,-7.13137 1.00053,-2.60739 6.12823,-3.69849 18.23462,-3.88011 9.26348,-0.13901 17.892998,-0.90179 19.176708,-1.69517 3.15536,-1.95013 2.98949,-23.93148 -0.18053,-23.93148 -6.875898,0 -22.126158,-9.09604 -24.819788,-14.80381 -5.23416,-11.0911 -2.41207,-55.8973 3.64725,-57.90681 1.59423,-0.5287 4.44271,2.55652 6.32993,6.85607 2.91737,6.64651 13.076828,12.91276 15.924418,9.82204 0.47485,-0.51541 1.67306,-8.05828 2.66269,-16.76197 1.63011,-14.33682 1.35927,-15.83246 -2.88026,-15.9054 -10.906438,-0.18762 -18.605488,-13.50623 -18.605488,-32.18555 0,-7.68608 -0.58299,-8.24565 -8.59104,-8.24565 -5.68954,0 -9.13907,-1.42814 -10.21369,-4.22854 -1.985,-5.17283 2.52917,-8.34095 11.95845,-8.3926 6.78797,-0.0372 7.05524,-0.50944 6.48818,-11.46431 -0.74157,-14.32585 3.23225,-19.19286 10.38525,-12.71949 3.44718,3.11966 4.61506,6.46372 3.62918,10.39176 -3.65164,14.54928 3.417028,18.82073 24.250358,14.65407 7.37078,-1.47414 8.01722,-2.32458 6.7153,-8.83423 -1.89636,-9.48172 0.37815,-14.85441 6.28855,-14.85441 3.56731,0 4.87402,1.94257 5.10957,7.59595 0.17395,4.17777 0.45892,8.77689 0.63299,10.22027 0.46498,3.85542 7.06537,7.4205 13.8204,7.46484 7.77118,0.0509 5.82556,6.10352 -2.30831,7.18083 -8.35043,1.10599 -12.46158,7.19429 -12.46158,18.4546 0,13.60961 -1.97406,17.05948 -12.9722,22.6703 -9.1578,4.67197 -9.81564,5.75563 -9.81564,16.16916 0,10.49449 4.59859,19.11928 10.19407,19.11928 1.23001,0 2.98452,-3.98787 3.89889,-8.86194 0.97312,-5.18719 3.15349,-8.86194 5.25817,-8.86194 3.972,0 5.39398,2.85195 6.66101,13.35935 1.80786,14.9927 5.712,7.10337 7.23752,-14.62534 0.87991,-12.53331 2.39703,-25.71207 3.37131,-29.28612 1.8131,-6.65108 12.10538,-13.34921 24.7796,-16.12632 6.7116,-1.47062 6.96295,-2.1106 6.96295,-17.72827 0,-18.32649 1.56836,-24.21266 6.45141,-24.21266 5.34251,0 6.97427,4.72348 7.7093,22.31618 0.73516,17.5957 2.80772,20.624 14.15925,20.68874 9.84561,0.0562 17.55864,3.54301 25.55879,11.55445 l 7.03711,7.04701 -1.49572,36.92734 c -0.82261,20.31001 -1.90716,48.74326 -2.41006,63.18495 -0.85321,24.5011 -1.39328,26.82058 -8.07338,34.67281 -3.93746,4.62836 -11.58174,13.62189 -16.9873,19.98564 -11.21354,13.20125 -15.34684,28.58048 -12.80823,47.65688 1.06313,7.9888 0.56033,13.3671 -1.47944,15.8249 -4.81881,5.8064 -6.74454,4.4895 -8.44064,-5.7719 z M 126.26653,909.02406 c 4.79274,-5.42472 7.87561,-23.42491 4.81495,-28.11323 -1.74421,-2.67172 -3.42311,-2.79151 -7.62284,-0.54389 -4.23565,2.26686 -5.38595,5.2527 -5.38595,13.98024 0,6.10374 -0.69161,12.90001 -1.53689,15.10279 -2.11119,5.50167 4.75944,5.20094 9.73073,-0.42591 z m -21.3604,-13.95051 0.75936,-14.53428 -7.674048,0 c -6.07404,0 -8.00533,1.31979 -9.26281,6.32995 -1.89519,7.55111 0.71538,19.44142 4.85796,22.12631 7.276568,4.71607 10.556548,0.68201 11.319538,-13.92198 z m 42.74798,-15.00903 c -0.80826,-2.01984 -1.40824,-1.41989 -1.52972,1.52975 -0.10989,2.66911 0.48847,4.16458 1.32985,3.32322 0.84135,-0.84137 0.93128,-3.02521 0.19977,-4.85297 z m -28.61616,-57.6465 c 4.40153,-1.67346 7.32184,-5.63163 9.48719,-12.85894 3.82319,-12.76071 2.20138,-14.15204 -15.12318,-12.97393 -11.71973,0.79694 -12.88376,1.45946 -14.358108,8.17202 -2.71646,12.36803 0.59282,17.86952 11.901048,19.78478 0.9538,0.16154 4.59565,-0.79423 8.09305,-2.12393 z m 72.46221,123.95278 c 0,-1.39259 -1.64447,-2.53199 -3.65441,-2.53199 -10.17297,0 -15.25369,-22.7971 -7.08836,-31.80533 3.81365,-4.20732 10.74277,-17.11567 10.74277,-20.01282 0,-0.51715 -4.55756,-5.68376 -10.12792,-11.48139 -8.9081,-9.27154 -10.11829,-11.96481 -10.04792,-22.36146 0.11191,-16.53553 8.1942,-25.46538 24.83183,-27.43584 11.18505,-1.32471 12.89974,-0.80267 19.01085,5.78788 9.6228,10.37776 9.34309,24.07074 -0.63687,31.1771 -8.82248,6.28215 -11.85582,6.55092 -13.89713,1.23131 -2.09147,-5.45027 -1.96229,-6.12287 1.17595,-6.12287 1.49205,0 4.49432,-1.78148 6.6717,-3.95885 3.35619,-3.35622 3.45625,-4.898 0.65727,-10.12793 -2.56811,-4.79861 -5.34397,-6.16907 -12.49525,-6.16907 -11.68522,0 -15.27043,3.67195 -15.27043,15.63992 0,7.4578 1.42206,10.49492 6.45936,13.79551 7.59549,4.97673 13.83875,16.02995 13.69359,24.24344 -0.0567,3.20248 -3.47476,9.76753 -7.59594,14.58901 -4.12118,4.82145 -7.49305,10.80325 -7.49305,13.2929 0,2.48962 -1.42424,4.61416 -3.16498,4.72119 -1.74074,0.1071 1.39259,1.60153 6.96295,3.3211 9.74196,3.00738 18.66977,2.70828 19.2831,-0.64601 0.16128,-0.88202 0.56638,-9.41047 0.90024,-18.95209 0.33387,-9.54162 1.70927,-18.08706 3.05643,-18.98987 1.3472,-0.9028 3.25821,-3.82592 4.24672,-6.49582 1.19636,-3.23127 2.6426,-4.00907 4.32541,-2.32626 1.68281,1.68281 1.25315,7.42286 -1.28496,17.16739 -2.61606,10.04374 -3.03832,16.08688 -1.34511,19.25069 1.35737,2.53626 2.46795,8.49128 2.46795,13.23335 0,6.78217 -1.37616,9.249 -6.44909,11.56037 -7.90604,3.60225 -23.9347,3.87442 -23.9347,0.40644 z"
       id="path3277"
       inkscape:connector-curvature="0" />
  </g>
</svg>
