<?xml version="1.0" encoding="UTF-8" standalone="no"?>
<svg
   xmlns:dc="http://purl.org/dc/elements/1.1/"
   xmlns:cc="http://creativecommons.org/ns#"
   xmlns:rdf="http://www.w3.org/1999/02/22-rdf-syntax-ns#"
   xmlns:svg="http://www.w3.org/2000/svg"
   xmlns="http://www.w3.org/2000/svg"
   viewBox="0 0 300 300"
   height="300"
   width="300"
   id="svg4024"
   version="1.1">
  <metadata
     id="metadata4030">
    <rdf:RDF>
      <cc:Work
         rdf:about="">
        <dc:format>image/svg+xml</dc:format>
        <dc:type
           rdf:resource="http://purl.org/dc/dcmitype/StillImage" />
        <dc:title></dc:title>
      </cc:Work>
    </rdf:RDF>
  </metadata>
  <defs
     id="defs4028" />
  <path
     id="path4034"
     d="m 143.81923,283.36098 c -2.44652,-3.73385 -2.66724,-6.12282 -2.92081,-33.93541 L 140.63131,220.128 c -5.952,-0.13566 -12.35485,0.41367 -17.49752,0.1642 -11.74424,-0.56134 -14.64463,-0.9249 -19.42414,-2.43475 -8.104847,-2.56031 -11.659349,-6.71628 -14.230436,-16.63842 -2.229836,-8.60525 -3.144791,-29.74948 -1.799113,-41.57702 0.764683,-6.72104 1.915723,-8.26526 6.160797,-8.26526 4.99595,-0.84009 5.03346,13.66242 5.709876,19.28559 l 41.372056,-0.35803 c 0.17334,-3.98625 0.0448,-7.83625 0.008,-12.05854 -13.45343,-0.87367 -27.68899,0.80514 -39.49986,-4.82166 -9.500542,-5.4132 -12.351226,-15.36111 -12.360735,-22.52244 -1.09985,-29.00019 27.566295,-29.05059 50.769035,-29.29027 0.16962,-7.686685 0.19292,-9.265502 0.24797,-15.751126 l -29.11967,0.119261 c -25.158084,0.103036 -30.30332,-0.07639 -32.381054,-0.944513 -5.616911,-3.352211 -1.993207,-7.791669 1.743917,-8.628407 16.49696,-1.342 34.561757,-1.236768 60.012297,-1.62879 0.005,-8.96275 0.0471,-13.608981 0.0637,-21.431989 -13.36399,-0.498789 -26.61781,-0.447382 -39.62707,-0.462543 -12.060258,-0.0026 -14.471448,-0.178677 -16.530521,-1.207297 -4.706708,-2.932166 -2.045776,-7.553826 1.377548,-8.780766 3.5767,-1.300621 5.220904,-1.366035 29.444973,-1.171451 14.11122,0.11335 25.66948,0.11335 25.68504,0 0.60603,-19.846919 0.65998,-26.465291 5.03372,-26.723794 1.56434,0 4.03747,2.246224 4.9942,4.535975 0.6813,2.387115 0.91135,11.813143 0.83489,22.839855 17.45779,0.519441 28.71537,-0.152033 48.11829,0.228435 0.22025,-4.074235 0.40906,-7.080803 0.6181,-10.040592 0.66669,-9.604715 1.72597,-11.36473 6.83993,-11.36473 4.9031,0.301716 4.81131,16.559258 4.81168,21.351916 -0.009,14.681323 -0.75498,21.923975 -3.21289,31.197761 -3.22472,12.549545 -31.51377,11.371449 -36.38273,11.50384 -11.17532,0.294552 -17.21869,0.436267 -20.84898,0.613274 -0.0886,3.853996 -0.12934,8.216476 -0.0571,15.204851 26.59567,0.53583 56.85783,4.6362 49.46991,37.4998 -6.09223,19.43926 -32.59516,19.3164 -47.84944,19.35343 l 0.17902,12.23224 26.64631,0.0737 c 28.00201,0.0774 32.10898,0.93704 34.16926,3.65506 1.62196,2.77483 2.30203,5.65033 -1.35101,6.59517 -8.55596,2.79985 -39.80109,2.15437 -59.65102,1.95412 -0.0861,8.71578 -0.0361,15.66475 0.0443,25.64256 5.5244,-0.0218 44.9859,-0.39807 68.26177,-0.56518 2.83208,3.12525 4.37889,6.39231 0.84436,8.16401 -6.4982,3.09878 -9.60645,3.38884 -39.69799,3.7046 -15.81592,0.16596 -22.97394,0.44245 -29.46226,0.41551 0.0458,4.80653 0.32237,13.4415 0.0478,29.73094 -0.51749,30.69651 -0.78379,33.34302 -3.50151,34.7975 -2.21701,1.1865 -4.69481,0.77751 -5.83536,-0.9632 z m -3.02225,-74.80255 c -0.12851,-8.53753 -0.0879,-17.58973 0.005,-26.12726 -14.23626,-0.5368 -27.70551,-0.74848 -41.573991,-0.74848 -0.06085,6.99734 -1.448545,19.6651 4.764321,23.38482 11.60451,4.81403 23.63995,4.03469 36.80457,3.49092 z m 32.99177,-62.7664 c 7.71996,-1.18668 14.46199,-3.3256 16.26016,-10.74933 2.31195,-9.82543 0.31092,-16.29696 -6.04164,-19.53919 -6.50141,-3.3182 -21.33695,-4.10926 -47.7374,-4.2036 -8.49682,0.1029 -32.32198,-0.59318 -34.74049,10.47229 -1.36159,10.81415 0.34525,18.38339 9.2735,21.7053 9.15029,3.36394 13.20021,3.73851 36.12379,3.34098 11.55414,-0.20038 23.64208,-0.66227 26.86208,-1.02645 z m 17.86279,-71.938757 c 7.12138,-1.619721 6.91292,-1.277814 7.40409,-12.144092 l 0.42538,-9.41072 c -15.9175,0.270102 -26.95074,0.454112 -47.82246,0.966306 l -0.22376,21.658336 c 16.67891,0.05112 30.39511,0.521568 40.21675,-1.06983 z"
     style="fill:#000000;stroke-width:0.68877149" />
</svg>
