<?xml version="1.0" encoding="UTF-8" standalone="no"?>
<!-- Created with Inkscape (http://www.inkscape.org/) -->

<svg
   xmlns:dc="http://purl.org/dc/elements/1.1/"
   xmlns:cc="http://creativecommons.org/ns#"
   xmlns:rdf="http://www.w3.org/1999/02/22-rdf-syntax-ns#"
   xmlns:svg="http://www.w3.org/2000/svg"
   xmlns="http://www.w3.org/2000/svg"
   xmlns:sodipodi="http://sodipodi.sourceforge.net/DTD/sodipodi-0.dtd"
   xmlns:inkscape="http://www.inkscape.org/namespaces/inkscape"
   width="300"
   height="300"
   id="svg2"
   version="1.1"
   inkscape:version="0.48.4 r9939"
   sodipodi:docname="image-seal.svg">
  <defs
     id="defs4" />
  <sodipodi:namedview
     id="base"
     pagecolor="#ffffff"
     bordercolor="#666666"
     borderopacity="1.0"
     inkscape:pageopacity="0.0"
     inkscape:pageshadow="2"
     inkscape:zoom="2.0018437"
     inkscape:cx="145.03351"
     inkscape:cy="130.6666"
     inkscape:document-units="px"
     inkscape:current-layer="layer1"
     showgrid="false"
     inkscape:window-width="1215"
     inkscape:window-height="1000"
     inkscape:window-x="65"
     inkscape:window-y="24"
     inkscape:window-maximized="1"
     fit-margin-top="10"
     fit-margin-left="10"
     fit-margin-right="10"
     fit-margin-bottom="10" />
  <metadata
     id="metadata7">
    <rdf:RDF>
      <cc:Work
         rdf:about="">
        <dc:format>image/svg+xml</dc:format>
        <dc:type
           rdf:resource="http://purl.org/dc/dcmitype/StillImage" />
        <dc:title />
      </cc:Work>
    </rdf:RDF>
  </metadata>
  <g
     inkscape:label="Calque 1"
     inkscape:groupmode="layer"
     id="layer1"
     transform="translate(0,-752.36218)">
    <path
       style="fill:#000000"
       d="m 134.89231,1046.8335 c -9.17794,-1.1741 -23.59172,-8.178 -26.48942,-12.8716 -3.68475,-5.9685 -8.19276,-40.72368 -6.42083,-49.50224 1.9468,-9.64489 13.27546,-12.16863 17.68001,-3.93862 2.00449,3.74542 5.2811,5.20106 11.70736,5.20106 7.81017,0 8.82315,-0.70898 8.11702,-5.68097 -0.67892,-4.78034 -3.11449,-6.08123 -15.36333,-8.20584 -21.02822,-3.64741 -29.904384,-11.56526 -31.492434,-28.09236 -0.71835,-7.47603 -0.15174,-13.58499 1.34606,-14.51064 4.61676,-2.85331 10.617064,1.33231 10.617064,7.40609 0,15.19473 8.06077,21.3101 28.08924,21.3101 6.0597,0 7.25901,-1.04288 7.25901,-6.31219 0,-4.40992 -1.37833,-6.31219 -4.57366,-6.31219 -6.06846,0 -13.99235,-7.63615 -18.02407,-17.36957 -1.91383,-4.62039 -5.10981,-7.87917 -7.72738,-7.87917 -2.45503,0 -7.00539,-2.05813 -10.111884,-4.57364 -5.06932,-4.10486 -5.29207,-5.157 -2.17339,-10.26566 2.924434,-4.79042 4.874614,-5.43189 12.311884,-4.04972 4.86039,0.90327 24.74378,2.11844 44.18531,2.70038 64.3069,1.92484 60.48744,1.34969 61.39592,9.24523 0.79859,6.94045 0.79203,6.94341 -15.51033,6.94341 -16.8697,0 -19.3744,1.60817 -19.3744,12.43955 0,5.83516 -7.86559,12.80919 -14.4467,12.80919 -4.36132,0 -8.27717,4.33804 -8.27717,9.16957 0,0.65005 6.4155,0.84118 14.25668,0.42471 14.95533,-0.79433 15.52108,-1.23588 21.18935,-16.53768 3.75883,-10.14709 11.69022,-11.15482 14.04212,-1.78415 2.04007,8.1283 -4.86228,26.64831 -11.46962,30.77466 -2.73081,1.70543 -10.72858,3.30473 -17.77288,3.55406 -14.57842,0.51599 -21.83681,4.48365 -19.47271,10.6444 2.48296,6.47049 20.94679,5.74005 22.68251,-0.89732 2.04581,-7.82317 11.42064,-6.51564 13.57734,1.89366 3.10986,12.12584 2.2964,45.06949 -1.21745,49.30339 -8.32473,10.0307 -37.93533,17.6 -58.53922,14.9641 z m 39.28024,-19.2446 c 8.17832,-5.9801 1.96006,-7.781 -26.86659,-7.781 -27.27481,0 -31.44785,1.4173 -24.53305,8.3321 4.46189,4.4619 45.14045,4.0258 51.39964,-0.5511 z m -1.72272,-18.1961 c 6.1793,-1.2359 7.89023,-2.8784 7.89023,-7.5746 0,-5.97908 -0.0886,-5.9966 -30.2985,-5.9966 -28.61524,0 -30.2985,0.28054 -30.2985,5.0497 0,4.5472 1.69614,5.0536 17.04291,5.0884 9.3736,0.02 18.74719,1.1401 20.83022,2.4862 4.53813,2.9328 4.81544,2.9505 14.83364,0.9469 z m -8.1303,-83.11415 c 2.24905,-5.86092 -0.80026,-7.43243 -14.32377,-7.38203 -13.56055,0.0505 -16.46703,1.5581 -14.23216,7.38203 1.07511,2.80177 5.0858,3.89621 14.27796,3.89621 9.19216,0 13.20285,-1.09444 14.27797,-3.89621 z M 77.181536,915.30236 c -4.40624,-2.79193 -2.06275,-14.66998 6.35092,-32.19001 5.74805,-11.96934 7.24838,-13.25948 19.327554,-16.61979 16.67801,-4.63966 17.47945,-10.26975 1.7338,-12.17979 -15.220114,-1.84629 -21.644884,-5.7807 -24.957624,-15.2836 -4.26491,-12.23435 2.21477,-23.98522 14.3927,-26.10099 25.560514,-4.44085 27.209714,-4.44257 30.870024,-0.0321 3.19907,3.85463 2.96655,4.78047 -2.03442,8.10101 -8.32769,5.52938 -8.09043,22.17121 0.34626,24.28867 3.48246,0.87403 7.31262,4.69094 9.14401,9.1123 4.50943,10.88675 -0.65922,17.46344 -17.81486,22.66797 -13.41294,4.06909 -13.9396,4.58828 -22.570454,22.24912 -9.39188,19.21811 -9.50166,19.33678 -14.78791,15.98725 z m 26.149844,-82.51102 c 0,-9.91364 -7.576694,-11.50179 -9.940504,-2.08365 -1.12559,4.48478 -0.58019,7.54864 1.58825,8.92235 5.378604,3.4073 8.352254,0.97256 8.352254,-6.8387 z m 121.5247,68.97867 c -4.27654,-9.95707 -12.24815,-18.60244 -19.18186,-20.8031 -2.82435,-0.89643 -5.13516,-2.68947 -5.13516,-3.98458 0,-1.29508 -2.27239,-2.35472 -5.04975,-2.35472 -2.77736,0 -5.04975,-1.00369 -5.04975,-2.2304 0,-1.22671 -2.27239,-2.82463 -5.04975,-3.55093 -7.69218,-2.01154 -6.90836,-16.94075 1.26244,-24.04514 8.40619,-7.30909 7.77151,-12.7914 -1.89366,-16.35743 -2.43019,-0.89663 -4.41853,-3.37018 -4.41853,-5.4968 0,-3.06626 3.31885,-3.86655 16.03492,-3.86655 23.88562,0 39.182,6.70491 39.43203,17.28436 0.0442,1.86866 -2.26945,6.69749 -5.14137,10.73072 -4.60505,6.46716 -6.76682,7.33774 -18.30535,7.37183 -7.19602,0.0202 -14.78796,1.16583 -16.87098,2.54346 -3.20922,2.12246 -2.8238,3.2642 2.52487,7.47981 3.47171,2.73628 7.62505,5.00029 9.22968,5.03117 6.2367,0.11993 23.00661,11.00663 26.73979,17.35881 6.91588,11.76774 6.62782,23.09534 -0.58734,23.09534 -3.25272,0 -6.25472,-2.88447 -8.54023,-8.20585 z m -10.5234,-61.49572 c 3.13064,-3.13064 3.38901,-4.85703 1.13361,-7.57462 -1.60665,-1.9359 -4.522,-3.51981 -6.47857,-3.51981 -5.0267,0 -7.07755,6.92945 -3.37223,11.39411 3.8514,4.64064 3.77424,4.64329 8.71719,-0.29968 z m -105.40752,52.52568 c -4.66321,-4.96421 -4.91757,-6.17989 -1.74032,-8.31762 2.04664,-1.37702 9.6705,-2.07714 16.94194,-1.55583 14.35015,1.02881 18.02376,-2.41272 14.48318,-13.56817 -3.06911,-9.66989 0.98324,-22.0616 8.37282,-25.60334 9.43942,-4.5242 8.56864,-9.6344 -2.64822,-15.54129 -7.23871,-3.81195 -10.11482,-7.30416 -12.10617,-14.69944 -1.4365,-5.33484 -1.97435,-10.73115 -1.19522,-11.99184 2.47889,-4.01089 -3.01463,-5.2654 -6.20799,-1.41765 -5.16814,6.22723 -19.45507,7.4682 -30.199464,2.62315 -23.26119,-10.48934 -18.02448,-30.67819 9.148324,-35.26902 9.16093,-1.54772 11.32881,-0.88706 18.89856,5.75926 13.20739,11.59625 25.08577,6.93614 27.90461,-10.9475 1.20063,-7.61722 7.55938,-6.05765 10.29463,2.52488 1.32773,4.16604 5.59411,10.9832 9.48082,15.14924 6.70718,7.18918 6.99335,8.46296 5.62333,25.03118 -0.84364,10.20282 -3.06328,19.34837 -5.3417,22.00936 -5.00597,5.84655 -4.65885,24.69628 0.65081,35.33969 4.53601,9.09268 5.24066,17.35233 1.48033,17.35233 -1.38868,0 -2.52487,1.13619 -2.52487,2.52487 0,1.38869 5.54185,2.52488 12.3152,2.52488 12.46849,0 21.32191,5.35841 16.48761,9.97889 -1.26039,1.20464 -20.82378,2.57673 -43.4742,3.04908 -40.25817,0.83955 -41.30514,0.72833 -46.64401,-4.95511 z m 52.78251,-24.44142 c -6.80987,-17.60833 -11.66611,-18.23939 -11.66611,-1.51596 0,12.72418 1.58582,14.78501 11.66611,15.16031 l 5.35395,0.19921 -5.35395,-13.84369 z m 3.01962,-57.48403 c 0.75653,-6.575 0.24997,-6.9434 -9.54751,-6.9434 -6.90639,0 -10.83378,1.26993 -11.81212,3.81947 -2.36424,6.1611 4.1339,11.67033 12.77102,10.82748 6.3918,-0.62372 7.93306,-2.00619 8.58861,-7.70355 z M 115.60638,790.0443 c 2.48943,-6.48736 -1.13528,-11.36193 -8.44866,-11.36193 -9.145594,0 -14.545644,6.05167 -10.138524,11.36193 1.72876,2.08303 6.291074,3.78732 10.138524,3.78732 3.88889,0 7.6407,-1.68185 8.44866,-3.78732 z m 49.58443,-0.0793 c 0,-4.98915 -5.90861,-7.19852 -13.89247,-5.1947 -10.54047,2.64551 -7.85491,9.06127 3.79297,9.06127 7.38607,0 10.0995,-1.03883 10.0995,-3.86657 z m 22.90713,17.41288 c -10.45235,-13.28801 -4.35225,-25.84813 14.89365,-30.66597 10.42524,-2.60974 11.92342,-2.34268 19.56778,3.48796 10.09115,7.69688 10.87954,16.91204 2.30037,26.88729 -5.05139,5.87339 -7.94089,6.94341 -18.75023,6.94341 -10.7976,0 -13.58981,-1.03131 -18.01157,-6.65269 z m 29.63723,-10.21938 c 1.055,-7.41046 -7.05639,-11.75181 -15.76837,-8.43952 -11.74304,4.46468 -5.93457,16.00382 7.3969,14.69469 5.58451,-0.5484 7.79408,-2.19939 8.37147,-6.25517 z"
       id="path3080"
       inkscape:connector-curvature="0" />
  </g>
</svg>
