<?xml version="1.0" encoding="UTF-8" standalone="no"?>
<!-- Created with Inkscape (http://www.inkscape.org/) -->

<svg
   xmlns:dc="http://purl.org/dc/elements/1.1/"
   xmlns:cc="http://creativecommons.org/ns#"
   xmlns:rdf="http://www.w3.org/1999/02/22-rdf-syntax-ns#"
   xmlns:svg="http://www.w3.org/2000/svg"
   xmlns="http://www.w3.org/2000/svg"
   xmlns:sodipodi="http://sodipodi.sourceforge.net/DTD/sodipodi-0.dtd"
   xmlns:inkscape="http://www.inkscape.org/namespaces/inkscape"
   width="300"
   height="300"
   id="svg2"
   version="1.1"
   inkscape:version="0.48.4 r9939"
   sodipodi:docname="image-seal.svg">
  <defs
     id="defs4" />
  <sodipodi:namedview
     id="base"
     pagecolor="#ffffff"
     bordercolor="#666666"
     borderopacity="1.0"
     inkscape:pageopacity="0.0"
     inkscape:pageshadow="2"
     inkscape:zoom="1.979899"
     inkscape:cx="130.93154"
     inkscape:cy="137.35134"
     inkscape:document-units="px"
     inkscape:current-layer="layer1"
     showgrid="false"
     inkscape:window-width="1215"
     inkscape:window-height="1000"
     inkscape:window-x="65"
     inkscape:window-y="24"
     inkscape:window-maximized="1"
     fit-margin-top="10"
     fit-margin-left="10"
     fit-margin-right="10"
     fit-margin-bottom="10" />
  <metadata
     id="metadata7">
    <rdf:RDF>
      <cc:Work
         rdf:about="">
        <dc:format>image/svg+xml</dc:format>
        <dc:type
           rdf:resource="http://purl.org/dc/dcmitype/StillImage" />
        <dc:title />
      </cc:Work>
    </rdf:RDF>
  </metadata>
  <g
     inkscape:label="Calque 1"
     inkscape:groupmode="layer"
     id="layer1"
     transform="translate(0,-752.36218)">
    <path
       style="fill:#000000"
       d="m 213.6619,1031.7431 c -5.06275,-24.3873 -6.27682,-25.8453 -24.12939,-28.9805 -22.10845,-3.88239 -26.90641,-11.76864 -18.25378,-30.00264 4.19248,-8.8351 12.22081,-13.4459 25.68018,-14.74886 6.31435,-0.61126 7.91082,-2.07488 8.57681,-7.86302 0.69611,-6.04986 -0.13009,-7.11195 -5.53235,-7.11195 -9.27395,0 -18.12153,-8.27194 -18.76333,-17.54261 -1.18786,-17.15759 -5.90261,-17.51207 -16.05451,-1.20707 -12.90677,20.7296 -23.09356,29.09434 -35.43175,29.09434 -7.9284,0 -8.9796,-7.59443 -1.32818,-9.59531 2.84478,-0.74394 5.17233,-2.38065 5.17233,-3.63713 0,-1.25649 1.45471,-2.30939 3.2327,-2.33976 4.17298,-0.0714 17.4566,-18.8083 17.4566,-24.62319 0,-2.45067 -2.06347,-6.33793 -4.58553,-8.63835 -8.55207,-7.80064 -10.93145,-18.05025 -10.93145,-47.08934 0,-21.25135 -0.81707,-28.33338 -3.2327,-28.01968 -9.05995,1.17647 -12.08498,-0.8127 -15.04195,-9.89117 -3.45876,-10.61904 -16.61669,-25.03992 -20.60049,-22.57782 -1.3769,0.85098 -2.52128,10.49781 -2.54306,21.43738 -0.0429,21.57403 -2.2663,28.00887 -8.80991,25.49786 -3.46435,-1.32939 -4.07572,-5.11753 -3.4937,-21.64694 0.57863,-16.43335 -0.0181,-20.18031 -3.31758,-20.84067 -6.13966,-1.22868 -15.37316,8.21655 -15.37316,15.72568 0,7.38083 -4.94839,20.16134 -8.87546,22.92318 -8.91892,6.27251 -8.81374,-14.51996 0.16035,-31.68241 3.74098,-7.15449 11.01457,-16.14569 16.16351,-19.98046 12.3218,-9.17681 13.19773,-10.65799 10.49962,-17.75455 -3.16997,-8.3376 -0.4351,-13.81569 6.89729,-13.81569 6.1739,0 7.74359,4.60614 6.34577,18.62091 -0.28623,2.86976 3.42804,6.17563 10.6934,9.5176 12.88553,5.9272 18.77732,12.21631 25.40848,27.12186 4.28925,9.64145 4.77217,10.01042 4.93698,3.77213 0.40184,-15.21034 6.41237,-33.74446 12.16567,-37.51415 7.71841,-5.0573 30.94929,-11.10483 42.80462,-11.143 15.08809,-0.0486 27.78384,6.14945 27.93001,13.63541 0.0207,1.11562 -7.48115,1.7507 -16.6732,1.41132 -9.19202,-0.33938 -17.17126,-0.0884 -17.73166,0.55779 -0.56037,0.64615 -1.71274,4.82668 -2.56079,9.29001 -1.77377,9.33527 3.55641,15.88889 13.85912,17.04025 4.90287,0.54791 6.51226,-0.6424 7.18001,-5.31037 0.58962,-4.1217 2.08427,-5.54709 4.74569,-4.52579 2.13674,0.81994 4.37167,1.4908 4.96654,1.4908 2.24647,0 0.97219,90.46666 -1.36073,96.60266 -1.34326,3.53304 -5.60005,7.97294 -9.45954,9.86647 -15.61517,7.66104 -15.1005,20.24014 0.82946,20.27301 8.08228,0.0155 10.34025,1.22809 13.01199,6.98101 1.77799,3.82845 3.23271,11.82458 3.23271,17.76919 0,11.76903 -0.8455,12.41092 -24.90829,18.91589 -11.99245,3.24201 -17.7868,8.63442 -15.54773,14.46958 1.11978,2.91797 5.63277,3.91209 17.76115,3.91209 15.28644,0 16.43959,0.42568 19.26104,7.11195 4.09276,9.69886 9.42992,43.77236 7.37674,47.09456 -4.19054,6.7804 -8.89609,1.9784 -11.80847,-12.0505 z m -14.967,-139.53797 c 2.60119,-2.35403 4.72942,-7.00912 4.72942,-10.34465 0,-5.93418 -0.52551,-6.06458 -24.44004,-6.06458 -20.58329,0 -24.84136,0.7142 -26.98319,4.52579 -1.91865,3.41441 -1.20446,5.95469 2.90845,10.34465 4.57003,4.87789 8.16873,5.81887 22.25377,5.81887 12.00536,0 18.15236,-1.22191 21.53159,-4.28008 z m -0.27289,-29.43102 c 2.75126,-1.47243 5.00231,-4.96375 5.00231,-7.75849 0,-4.7086 -1.87683,-5.08134 -25.58493,-5.08134 -20.35647,0 -25.88915,0.79276 -27.07356,3.87924 -3.58031,9.33018 0.79602,11.63773 22.07125,11.63773 11.32043,0 22.83367,-1.20471 25.58493,-2.67714 z m -12.54333,-25.46882 c 8.12978,-1.01631 15.64882,-2.71529 16.70899,-3.77546 1.06017,-1.06017 -1.51823,-4.74367 -5.72982,-8.18554 -8.0153,-6.55044 -27.7478,-9.01138 -30.93289,-3.8578 -0.87909,1.42239 -4.31457,2.58616 -7.63443,2.58616 -6.48152,0 -9.9387,5.34692 -7.5247,11.63773 1.63316,4.25589 10.57741,4.66218 35.11285,1.59491 z m -19.7422,-28.74962 c 2.67717,0 3.66772,-3.4923 3.66772,-12.93081 0,-14.63975 -4.70115,-17.24738 -13.27402,-7.36278 -7.22372,8.32902 -5.57926,24.7134 2.18153,21.7353 2.06637,-0.79294 5.40751,-1.44171 7.42477,-1.44171 z m -58.23089,218.05983 c -1.51632,-5.4307 -3.38746,-21.5114 -4.15806,-35.73533 -0.7706,-14.22389 -2.02445,-32.02484 -2.78633,-39.55761 l -1.3852,-13.69598 -21.13495,1.54738 c -22.10342,1.61824 -29.47558,-0.45154 -26.76526,-7.51456 1.21183,-3.15799 5.26044,-4.14024 17.06521,-4.14024 8.51204,0 18.55422,-1.40232 22.31592,-3.11625 5.98754,-2.72812 6.65865,-4.23042 5.38791,-12.06109 -2.01506,-12.41735 -4.28093,-13.89387 -22.04329,-14.36437 -8.57173,-0.22707 -16.38158,-1.20945 -17.35525,-2.18311 -4.17298,-4.17298 5.48389,-9.19523 20.84344,-10.84011 21.00828,-2.24981 26.40617,0.50435 30.42295,15.52261 3.06848,11.47277 7.89483,14.96538 10.67358,7.72402 2.06929,-5.39249 0.46766,-35.84967 -2.10402,-40.01073 -1.67196,-2.70531 -7.96435,-3.14576 -28.40512,-1.98819 -27.10022,1.53465 -34.30154,0.0103 -31.71985,-6.71831 1.68729,-4.39704 33.70142,-8.80229 53.56519,-7.37072 18.2347,1.31416 19.46051,3.77557 18.97915,38.11003 l -0.41707,29.74899 -8.35889,7.29813 -8.35892,7.29812 1.61077,24.27673 c 0.88591,13.3523 2.36297,34.77763 3.28236,47.61229 1.38954,19.3975 0.99081,23.9002 -2.36285,26.6835 -3.49145,2.8978 -4.40556,2.0195 -6.79142,-6.5252 z"
       id="path3228"
       inkscape:connector-curvature="0" />
  </g>
</svg>
