<?xml version="1.0" encoding="UTF-8" standalone="no"?>
<!-- Created with Inkscape (http://www.inkscape.org/) -->

<svg
   xmlns:dc="http://purl.org/dc/elements/1.1/"
   xmlns:cc="http://creativecommons.org/ns#"
   xmlns:rdf="http://www.w3.org/1999/02/22-rdf-syntax-ns#"
   xmlns:svg="http://www.w3.org/2000/svg"
   xmlns="http://www.w3.org/2000/svg"
   xmlns:sodipodi="http://sodipodi.sourceforge.net/DTD/sodipodi-0.dtd"
   xmlns:inkscape="http://www.inkscape.org/namespaces/inkscape"
   width="300"
   height="300"
   id="svg2"
   version="1.1"
   inkscape:version="0.48.4 r9939"
   sodipodi:docname="image-seal.svg">
  <defs
     id="defs4" />
  <sodipodi:namedview
     id="base"
     pagecolor="#ffffff"
     bordercolor="#666666"
     borderopacity="1.0"
     inkscape:pageopacity="0.0"
     inkscape:pageshadow="2"
     inkscape:zoom="1.979899"
     inkscape:cx="200.43343"
     inkscape:cy="134.48103"
     inkscape:document-units="px"
     inkscape:current-layer="layer1"
     showgrid="false"
     inkscape:window-width="1215"
     inkscape:window-height="1000"
     inkscape:window-x="65"
     inkscape:window-y="24"
     inkscape:window-maximized="1" />
  <metadata
     id="metadata7">
    <rdf:RDF>
      <cc:Work
         rdf:about="">
        <dc:format>image/svg+xml</dc:format>
        <dc:type
           rdf:resource="http://purl.org/dc/dcmitype/StillImage" />
        <dc:title />
      </cc:Work>
    </rdf:RDF>
  </metadata>
  <g
     inkscape:label="Calque 1"
     inkscape:groupmode="layer"
     id="layer1"
     transform="translate(0,-752.36218)">
    <path
       style="fill:#000000"
       d="m 233.0774,1034.5294 c -2.13097,-11.9485 -10.9659,-24.8963 -24.40694,-24.0848 -12.60218,-2.3069 -28.35453,-9.5913 -23.71586,-25.1791 -2.55287,-16.91381 14.30961,-18.84655 26.91908,-18.17528 10.79169,1.66806 23.56359,-13.11465 13.50107,-20.98341 -13.03084,1.4245 -25.07174,-8.56961 -25.65963,-21.77937 -3.13854,-15.88318 -14.70031,-1.81245 -17.86718,6.14299 -9.64955,13.45961 -24.15047,23.56905 -40.05651,28.01933 -6.92536,-1.49074 -15.54886,-7.54941 -15.72666,4.75169 -3.9457,16.50927 -8.79335,34.06716 -20.48012,46.85835 -14.261214,1.7213 -3.41065,-19.0451 -0.13678,-26.27123 8.63869,-18.49174 14.77532,-40.1443 9.50993,-60.43047 -1.59162,-2.27181 -6.52477,-13.12347 -8.70619,-9.31294 -5.80733,11.13465 -10.046129,23.46168 -18.372173,32.95048 -3.160696,15.95288 -13.875998,29.3079 -23.618025,41.93459 -6.626438,12.96577 -15.55935,-1.4475 -8.227184,-8.86229 5.460839,-10.07983 16.781853,-15.71173 16.362835,-28.33154 9.810368,-7.10764 12.424469,-20.43564 19.370191,-30.06671 2.095149,-7.47803 15.778186,-11.18941 7.202303,-17.31045 -1.633811,-19.08818 -0.563012,-38.43581 1.558153,-57.45809 5.08983,-9.10975 -9.893287,-25.79594 7.42997,-27.67943 9.16089,6.01541 2.59537,22.28429 4.33314,32.24501 0.17354,14.27278 -2.13725,28.90022 1.20605,42.90829 6.82011,11.10787 16.54991,21.46507 16.91056,35.38521 -0.30163,8.23031 -0.024,29.86969 10.65732,15.3648 10.11225,-6.92559 22.13965,-11.86648 28.91853,-22.73991 2.55951,-3.36619 7.01606,-6.87031 1.38159,-9.64076 -6.76257,-5.95393 -13.05168,-13.1955 -13.2656,-22.75965 -3.91404,-33.97998 -4.7722,-68.31414 -3.96447,-102.48979 1.92244,-11.75093 12.37381,-22.12801 24.57207,-23.6027 19.19044,-2.98357 38.99334,-4.1055 58.30239,-1.68729 8.1697,-0.0785 11.10103,10.96388 0.388,8.93223 -11.44853,1.29654 -22.98896,1.26901 -34.48674,1.82053 0.11048,7.61245 -3.03096,16.02525 0.87077,22.96702 5.76473,4.47169 21.52557,14.3258 20.06121,-0.0738 14.78519,-8.8905 10.85877,15.27689 16.76021,22.61471 12.36111,0.80482 -7.73087,12.5645 -4.3791,20.41983 -2.19773,21.48399 0.43664,43.59829 -4.71527,64.67231 -7.67777,6.24968 -26.7573,11.02031 -15.39727,23.87508 9.30256,6.52263 25.80246,7.54834 27.03805,21.65663 -0.33881,10.84829 -2.90841,27.26859 -16.24875,28.69459 -10.62541,1.78687 -31.55714,-2.62208 -31.89624,12.57721 8.70692,9.59193 23.46184,7.09931 33.80378,12.96148 10.49053,6.6813 13.46197,19.1921 11.35252,30.7906 1.27902,6.7098 -5.41361,14.1039 -6.43695,3.3977 l -0.32738,-1.4302 -0.3187,-1.5915 0,0 z M 216.38953,899.10654 c 9.655,-3.58729 6.3222,-15.15428 6.93158,-23.17517 -2.08083,-2.08554 -8.06056,-0.27218 -11.61843,-0.88069 -13.184,0.50515 -27.14105,-1.76837 -39.51898,3.555 -9.39693,9.90138 6.27653,24.53362 17.17361,23.50985 9.05067,0.38546 18.41539,0.003 27.03222,-3.00899 z m -0.5523,-34.92216 c 9.9092,1.57157 7.09735,-10.05274 7.48388,-16.21923 0.72364,-5.03052 -7.01704,-1.05873 -10.23212,-1.90019 -13.78386,1.15026 -27.72271,0.97742 -41.41686,2.4668 -12.91647,9.1929 1.44128,22.46159 13.56626,17.54047 10.1948,-0.68347 20.37712,-1.68471 30.59884,-1.88785 z m 6.94637,-37.27616 c 1.33325,-13.47452 -16.94904,-14.47282 -26.00383,-19.12621 -10.56113,0.21844 -15.97901,13.06725 -26.06352,15.69894 -10.91908,15.33746 12.35284,13.29076 21.45497,12.68971 9.93039,-0.32972 19.85939,-0.70106 29.78919,-1.04834 0.2744,-2.73803 0.54879,-5.47607 0.82319,-8.2141 z M 181.123,803.94293 c 11.37183,-3.373 12.19692,-21.39551 4.69296,-27.69743 -17.351,-4.26204 -17.31309,14.98867 -17.75932,27.06837 -1.53865,11.98637 8.36452,2.80397 13.06636,0.62906 z M 64.103413,888.63338 c -2.58949,-11.30481 9.937068,-16.68928 8.027202,-28.60921 5.216761,-14.22313 3.922667,-29.87321 5.046913,-44.79002 0.997279,-15.57813 -0.721824,-31.89061 4.398111,-46.8267 11.773955,-5.18445 11.299775,16.27466 10.586236,24.14746 -1.39897,18.88728 -3.612938,37.82397 -6.90861,56.44249 -4.128792,11.65165 -3.06205,25.20279 -10.492036,36.36834 -1.710503,3.96466 -7.635779,8.9444 -10.657816,3.26764 z m 71.905707,-7.25999 c -1.61447,-15.47016 -8.50229,-29.86473 -8.81712,-45.57485 -0.80835,-21.57904 -5.28551,-43.67495 -0.0109,-64.99247 7.46356,-12.23774 12.8254,9.5479 9.19372,16.19842 -4.68095,26.66394 1.39161,53.45289 7.73921,79.27262 2.06739,6.06348 2.26794,21.70551 -8.10492,15.09628 z"
       id="path3028"
       inkscape:connector-curvature="0" />
  </g>
</svg>
