<?xml version="1.0" encoding="UTF-8" standalone="no"?>
<!-- Created with Inkscape (http://www.inkscape.org/) -->

<svg
   xmlns:dc="http://purl.org/dc/elements/1.1/"
   xmlns:cc="http://creativecommons.org/ns#"
   xmlns:rdf="http://www.w3.org/1999/02/22-rdf-syntax-ns#"
   xmlns:svg="http://www.w3.org/2000/svg"
   xmlns="http://www.w3.org/2000/svg"
   xmlns:sodipodi="http://sodipodi.sourceforge.net/DTD/sodipodi-0.dtd"
   xmlns:inkscape="http://www.inkscape.org/namespaces/inkscape"
   width="300"
   height="300"
   id="svg2"
   version="1.1"
   inkscape:version="0.48.4 r9939"
   sodipodi:docname="dessin.svg">
  <defs
     id="defs4" />
  <sodipodi:namedview
     id="base"
     pagecolor="#ffffff"
     bordercolor="#666666"
     borderopacity="1.0"
     inkscape:pageopacity="0.0"
     inkscape:pageshadow="2"
     inkscape:zoom="1.979899"
     inkscape:cx="218.29155"
     inkscape:cy="144.09165"
     inkscape:document-units="px"
     inkscape:current-layer="layer1"
     showgrid="false"
     inkscape:window-width="1215"
     inkscape:window-height="1000"
     inkscape:window-x="65"
     inkscape:window-y="24"
     inkscape:window-maximized="1" />
  <metadata
     id="metadata7">
    <rdf:RDF>
      <cc:Work
         rdf:about="">
        <dc:format>image/svg+xml</dc:format>
        <dc:type
           rdf:resource="http://purl.org/dc/dcmitype/StillImage" />
        <dc:title />
      </cc:Work>
    </rdf:RDF>
  </metadata>
  <g
     inkscape:label="Calque 1"
     inkscape:groupmode="layer"
     id="layer1"
     transform="translate(0,-752.36218)">
    <path
       style="fill:#000000"
       d="m 213.90079,1039.3983 c -1.25283,-1.8191 -4.60196,-9.8539 -7.44248,-17.8552 -6.69908,-18.8701 -12.00111,-23.75059 -30.10407,-27.71088 -16.4531,-3.59935 -20.71525,-7.7212 -20.82544,-20.14002 -0.1222,-13.77397 14.17228,-23.88737 33.81728,-23.92585 5.88027,-0.0102 14.59527,-5.2808 14.59527,-8.82461 0,-2.13387 -9.06257,-11.92445 -10.72939,-11.59125 -7.85969,1.57104 -11.78253,-1.00619 -15.37811,-10.10328 -2.14919,-5.43758 -3.90762,-11.81635 -3.90762,-14.17505 0,-9.56146 -10.51553,-0.9187 -13.03195,10.71106 -2.78175,12.85607 -23.01302,39.1233 -30.13309,39.1233 -5.32522,0 -3.20938,-9.32024 2.95136,-13.0007 8.18837,-4.89173 17.12512,-22.77095 17.12512,-34.26112 0,-5.19111 -0.84769,-9.43836 -1.88371,-9.43836 -1.03603,0 -4.28476,-4.76875 -7.21936,-10.59722 -5.11935,-10.16763 -5.28905,-12.28337 -4.18623,-52.18995 0.63219,-22.876 1.87818,-43.51792 2.76889,-45.87093 3.39381,-8.96548 57.45637,-13.83616 64.63482,-5.82316 5.189,5.79227 2.1947,9.23843 -7.59498,8.74115 -22.36042,-1.13582 -23.43087,-0.72044 -23.43087,9.09205 0,7.95914 0.69516,9.02048 5.90841,9.02048 3.35098,0 5.29073,1.11556 4.48144,2.57729 -0.78482,1.41751 0.71232,2.57728 3.32701,2.57728 3.74297,0 4.75398,-1.64431 4.75398,-7.73185 0,-5.868 1.05361,-7.73184 4.37069,-7.73184 2.40389,0 4.80028,1.44972 5.32534,3.22161 0.52503,1.77187 0.81744,21.69645 0.6498,44.27683 l -0.30484,41.05522 -8.48378,8.18624 c -4.66608,4.50244 -8.48377,10.06588 -8.48377,12.36323 0,3.70789 15.95134,14.60638 21.3783,14.60638 3.60867,0 8.63683,7.21175 8.63683,12.38758 0,2.76312 -1.57243,9.22475 -3.49428,14.35914 -3.68941,9.85655 -5.93849,10.5742 -29.98414,9.56745 -3.80961,-0.15952 -9.52403,1.99384 -12.69871,4.78523 -4.72075,4.15076 -5.30582,5.91648 -3.21201,9.69369 2.36621,4.26867 8.51285,6.50562 28.04032,10.20471 8.06626,1.52803 19.03996,13.68873 19.03996,21.09945 0,2.4109 1.49099,6.7596 3.31333,9.6638 6.91664,11.0229 4.41989,33.8353 -2.58932,23.6581 z M 182.0993,887.62894 c 3.75898,-2.00529 7.13937,-6.0135 7.512,-8.90716 0.63065,-4.89733 -0.67278,-5.30844 -18.84449,-5.94349 -18.48184,-0.64592 -19.61,-0.37283 -21.17329,5.12539 -3.65394,12.85089 15.75905,18.65897 32.50578,9.72526 z m -2.4258,-25.04796 c 6.06541,-1.20093 9.47398,-3.35038 9.98195,-6.29467 0.68644,-3.97885 -1.54272,-4.47104 -20.25011,-4.47104 -17.14485,0 -21.28302,0.76089 -22.43986,4.12602 -2.79584,8.13286 11.01084,10.9356 32.70802,6.63969 z m 9.68946,-25.2598 c 0.85673,-2.49215 -0.0605,-5.12143 -2.26736,-6.50008 -2.0383,-1.27331 -5.24155,-4.02917 -7.11835,-6.12417 -4.79217,-5.34931 -10.24853,-4.47379 -22.03704,3.53603 -16.44706,11.17512 -15.03402,13.27318 8.9395,13.27318 17.28944,0 21.30128,-0.74677 22.48325,-4.18496 z m -30.62577,-21.88895 c 4.45763,-3.91405 6.01592,-7.37332 5.51462,-12.2421 -1.89565,-18.41117 -18.03186,-11.63457 -18.03186,7.57273 0,11.74115 3.13244,12.90965 12.51724,4.66937 z M 77.286668,1024.1327 c -2.24213,-6.7657 0.607853,-30.98811 5.604726,-47.63557 4.470707,-14.89448 13.222312,-28.60887 20.675066,-32.39936 2.94613,-1.49844 6.02718,-5.70677 6.84676,-9.35189 1.25225,-5.56941 -0.19372,-8.35341 -9.05783,-17.43815 -8.786702,-9.00552 -10.54799,-12.36355 -10.54799,-20.11058 0,-7.10768 -0.952472,-9.31927 -4.040498,-9.3819 -11.642523,-0.23608 -19.048065,-16.62841 -19.048065,-42.16309 0,-20.39967 1.924248,-24.82544 7.895573,-18.15988 2.846035,3.17692 3.326854,7.14474 2.182678,18.01176 -1.211919,11.51035 -0.810017,14.21889 2.30814,15.55458 2.076585,0.88949 3.775603,3.81271 3.775603,6.49608 0,5.35693 3.43223,6.52773 5.927019,2.02183 2.0459,-3.69521 1.971509,-55.15718 -0.0852,-58.87174 -0.995649,-1.79824 -5.539571,-2.24185 -12.462814,-1.21668 -8.670771,1.28395 -11.564876,0.71362 -14.171852,-2.79277 -2.870186,-3.86043 -2.731608,-4.85052 1.118687,-7.99323 2.417049,-1.97288 9.339115,-3.58704 15.382409,-3.58704 l 10.987754,0 0.69245,-14.81936 c 0.648672,-13.88302 1.057132,-14.81937 6.464565,-14.81937 5.41616,0 5.81516,0.9254 6.46955,15.0056 l 0.69742,15.00563 7.38358,-0.5609 c 15.45673,-1.17417 20.0823,-0.0131 20.0823,5.04238 0,5.21018 -5.82331,7.91282 -17.31642,8.03671 -12.88516,0.13896 -13.78309,2.26817 -14.62904,34.69043 l -0.77591,29.73732 5.92683,0 c 7.67497,0 9.29374,-6.19446 10.27116,-39.30353 0.25248,-8.55271 1.33066,-12.24208 3.57763,-12.24208 4.82358,0 6.01918,5.95232 6.01918,29.96666 0,19.771 -0.5349,22.41034 -5.71311,28.19056 -3.14222,3.50753 -8.85663,7.0791 -12.69871,7.93687 -9.163571,2.04578 -8.814056,6.45161 1.44754,18.2467 4.63822,5.33135 9.85276,13.48607 11.58792,18.12163 2.73673,7.31143 2.66843,9.47808 -0.51543,16.35079 -2.01861,4.35738 -6.77716,9.85112 -10.57454,12.2083 -8.91345,5.53288 -15.088697,20.68832 -19.326141,47.43077 -1.855143,11.70782 -3.392148,22.61272 -3.415538,24.23292 -0.08266,5.7305 -7.086733,6.1687 -8.945571,0.5596 z"
       id="path3002"
       inkscape:connector-curvature="0" />
  </g>
</svg>
