<?xml version="1.0" encoding="UTF-8" standalone="no"?>
<!-- Created with Inkscape (http://www.inkscape.org/) -->

<svg
   xmlns:dc="http://purl.org/dc/elements/1.1/"
   xmlns:cc="http://creativecommons.org/ns#"
   xmlns:rdf="http://www.w3.org/1999/02/22-rdf-syntax-ns#"
   xmlns:svg="http://www.w3.org/2000/svg"
   xmlns="http://www.w3.org/2000/svg"
   xmlns:sodipodi="http://sodipodi.sourceforge.net/DTD/sodipodi-0.dtd"
   xmlns:inkscape="http://www.inkscape.org/namespaces/inkscape"
   width="300"
   height="300"
   id="svg2"
   version="1.1"
   inkscape:version="0.48.4 r9939"
   sodipodi:docname="image-seal.svg">
  <defs
     id="defs4" />
  <sodipodi:namedview
     id="base"
     pagecolor="#ffffff"
     bordercolor="#666666"
     borderopacity="1.0"
     inkscape:pageopacity="0.0"
     inkscape:pageshadow="2"
     inkscape:zoom="1.979899"
     inkscape:cx="141.86812"
     inkscape:cy="134.8223"
     inkscape:document-units="px"
     inkscape:current-layer="layer1"
     showgrid="false"
     inkscape:window-width="1215"
     inkscape:window-height="1000"
     inkscape:window-x="65"
     inkscape:window-y="24"
     inkscape:window-maximized="1" />
  <metadata
     id="metadata7">
    <rdf:RDF>
      <cc:Work
         rdf:about="">
        <dc:format>image/svg+xml</dc:format>
        <dc:type
           rdf:resource="http://purl.org/dc/dcmitype/StillImage" />
        <dc:title />
      </cc:Work>
    </rdf:RDF>
  </metadata>
  <g
     inkscape:label="Calque 1"
     inkscape:groupmode="layer"
     id="layer1"
     transform="translate(0,-752.36218)">
    <path
       style="fill:#000000"
       d="m 225.99563,1040.6586 c -0.11744,-2.4689 -0.71046,-7.3747 -1.31749,-10.9017 -0.60705,-3.527 -1.46708,-9.3767 -1.91117,-12.9994 -1.22009,-9.953 -2.9449,-11.5357 -17.63814,-16.1844 -15.8391,-5.01133 -17.63089,-6.13261 -21.8322,-13.66252 -1.98943,-3.56562 -2.22619,-6.22587 -0.64128,-7.2054 1.3819,-0.85405 2.51256,-4.92098 2.51256,-9.03759 0,-8.93405 7.6538,-14.82079 22.17324,-17.05404 12.79185,-1.96749 16.30313,-4.93228 16.30313,-13.76569 0,-8.30335 -5.88904,-15.25966 -12.91844,-15.25966 -5.09487,0 -11.38941,-8.77298 -9.03171,-12.58784 1.94154,-3.14144 -4.59569,-8.00436 -7.88075,-5.86236 -1.49897,0.9774 -3.44882,4.73854 -4.33303,8.35806 -2.23575,9.1521 -8.8789,16.1116 -21.52461,22.54968 -12.62279,6.42637 -17.61386,6.89583 -19.55425,1.83929 -0.94689,-2.46759 2.9203,-5.91989 11.87811,-10.6038 15.03411,-7.86114 19.55901,-12.69207 19.67657,-21.00741 0.0551,-3.90751 -1.43089,-5.77145 -4.6015,-5.77145 -6.77248,0 -15.83767,-10.73914 -15.83767,-18.76224 0,-5.79715 -1.11771,-6.8937 -7.054,-6.92043 -7.75868,-0.0348 -15.05211,-9.03539 -21.2799,-26.26043 -1.91279,-5.29051 -4.40021,-9.6191 -5.52759,-9.6191 -1.12738,0 -2.04979,-2.30858 -2.04979,-5.13018 0,-2.8216 -1.15429,-5.13018 -2.56509,-5.13018 -1.4108,0 -2.56509,-1.73143 -2.56509,-3.84764 0,-2.1162 -1.15429,-3.84763 -2.56509,-3.84763 -1.4108,0 -2.36366,-0.86572 -2.11746,-1.92382 0.24625,-1.0581 -0.81419,-4.80954 -2.35639,-8.33654 -1.54224,-3.52701 -3.40991,-8.35723 -4.1504,-10.73387 -0.74049,-2.3766 -3.63007,-5.54332 -6.4213,-7.03714 -4.474438,-2.39464 -5.273027,-1.73156 -6.748904,5.60367 -0.920663,4.57582 -3.209314,11.78256 -5.085883,16.01497 -8.690607,19.60079 -11.458161,27.64643 -10.206473,29.6717 2.486343,4.02298 19.120318,5.58381 30.02083,2.81698 8.10658,-2.0577 11.25321,-1.97251 12.72606,0.34451 3.46333,5.44834 2.23842,6.58169 -8.86645,8.20385 -19.47658,2.84505 -30.509063,1.69276 -34.403205,-3.59331 -2.609083,-3.54164 -3.311021,-3.2497 -5.628093,2.34081 -11.055236,26.67343 -13.297998,30.75546 -16.897745,30.75546 -6.121523,0 -4.87375,-9.7964 3.435402,-26.97164 4.084984,-8.4438 10.07573,-23.14382 13.312773,-32.66673 3.237067,-9.5229 6.820526,-17.31437 7.9633,-17.31437 1.142774,0 2.07775,-2.32425 2.07775,-5.16498 0,-2.84074 1.057996,-7.16933 2.351111,-9.6191 1.293139,-2.44976 3.707403,-8.1226 5.365042,-12.60635 1.657664,-4.48372 4.785973,-8.83222 6.951833,-9.66333 4.416322,-1.69471 10.982922,2.72221 10.982922,7.38749 0,4.16891 13.51077,30.3516 17.95564,34.79647 3.46218,3.46217 7.69528,13.32024 7.69528,17.92083 0,2.84073 1.15216,5.16498 2.56037,5.16498 1.40821,0 5.86051,5.30213 9.89399,11.78249 9.88843,15.88718 10.95074,11.91258 9.07837,-33.96632 -1.39069,-34.07569 -1.11671,-37.6128 3.22296,-41.61125 9.24335,-8.51647 19.71563,-10.81034 45.88374,-10.05035 21.61336,0.62767 25.61924,1.40492 26.32784,5.10829 0.71015,3.71136 -1.79169,4.48254 -16.64339,5.1302 -15.86549,0.69184 -17.55435,1.29149 -18.29382,6.49545 -0.52079,3.66507 1.69627,8.06028 6.14601,12.18417 8.38284,7.76894 13.90685,8.29359 13.90685,1.32077 0,-4.98826 6.1247,-7.18156 8.64892,-3.09727 3.61884,5.85541 8.26046,83.90963 5.61632,94.44473 -0.84564,3.36931 -3.24697,6.12602 -5.33629,6.12602 -2.08932,0 -3.79877,1.15429 -3.79877,2.56509 0,1.4108 -1.5901,2.56509 -3.53356,2.56509 -9.57747,0 -9.76244,18.4225 -0.20163,20.08238 2.75977,0.47911 6.17203,2.28814 7.58282,4.02006 1.4108,1.73192 4.64588,3.93021 7.18906,4.88512 3.79344,1.42433 4.48452,4.14011 3.84763,15.12026 -0.72288,12.46288 -1.39425,13.68212 -9.75414,17.71393 -4.9378,2.3814 -13.94458,5.67038 -20.01508,7.30889 -18.91067,5.10426 -17.10618,14.9198 3.86743,21.03664 18.87381,5.50446 25.3813,13.87403 27.49923,35.36793 0.98089,9.9544 1.06851,19.2557 0.1947,20.6695 -2.70062,4.3697 -11.52922,2.9296 -11.76005,-1.9183 z M 205.36002,888.40712 c 8.64949,-3.01525 13.15408,-8.96212 13.15408,-17.36583 0,-7.81668 -3.69846,-8.74134 -27.15021,-6.78782 l -21.58653,1.79816 0,10.11273 c 0,8.08989 1.15448,10.5768 5.77145,12.43263 8.04908,3.23532 20.2078,3.15788 29.81121,-0.18983 z m 6.50105,-37.18678 c 3.055,-1.17229 4.13034,-3.99962 3.58477,-9.42509 -0.85669,-8.51929 -8.5793,-15.44337 -11.75405,-10.53866 -1.01793,1.57265 -8.77653,3.708 -17.24134,4.74525 -8.46479,1.03724 -16.0638,2.29688 -16.88668,2.79917 -0.82288,0.5023 -0.9575,4.58334 -0.29915,9.06897 l 1.197,8.15568 18.51766,-1.56532 c 10.18471,-0.86092 20.48151,-2.31892 22.88179,-3.24 z m 1.40629,-30.70272 c 3.41836,-3.4834 -2.79616,-10.67381 -12.89512,-14.92012 -8.00645,-3.36645 -9.57379,-3.17383 -20.90763,2.56946 -8.78952,4.45397 -12.25234,7.73733 -12.25234,11.61737 0,5.16809 0.97218,5.3576 21.85941,4.26131 12.02268,-0.63105 22.91073,-2.21865 24.19568,-3.52802 z m -29.50399,-27.72479 c 6.88552,-5.49032 7.03766,-6.07238 3.40142,-13.01244 -2.29391,-4.37806 -4.49895,-6.1447 -5.54894,-4.44573 -0.95834,1.5506 -3.25194,2.24002 -5.09694,1.53203 -4.65272,-1.78543 -8.71952,3.90237 -9.33375,13.0542 -0.28408,4.2324 -0.39418,8.45293 -0.2447,9.37895 0.4686,2.90289 9.31117,-0.51737 16.82288,-6.50701 z M 84.746411,975.55986 c -10.00278,-3.66546 -12.166537,-12.42768 -12.903667,-52.25422 -0.64884,-35.05741 -0.53318,-35.93025 4.864234,-36.70942 4.716151,-0.68086 5.647305,0.62549 6.334364,8.88674 0.703887,8.4637 1.775813,9.87543 8.500739,11.19542 4.2324,0.83079 13.178159,-0.0611 19.879459,-1.98186 10.983,-3.14805 12.18418,-4.23628 12.18418,-11.03851 0,-9.29679 4.38397,-9.84289 7.75876,-0.96647 3.83804,10.09484 3.21963,72.58654 -0.7577,76.56384 -9.11582,9.11583 -30.2572,12.02218 -45.860369,6.30448 z m 34.974149,-19.12463 c 1.46295,-2.9492 2.066,-12.72601 1.34487,-21.80328 -1.2946,-16.29612 -1.38679,-16.46419 -9.4588,-17.24649 -4.48326,-0.43447 -12.879549,0.48318 -18.658366,2.03925 l -10.506948,2.82921 0.358087,14.63389 c 0.196999,8.0486 2.020727,17.28906 4.052819,20.53437 3.205491,5.11922 5.450562,5.79852 16.955408,5.13018 10.42599,-0.60567 13.82766,-1.9133 15.91293,-6.11713 z"
       id="path3367"
       inkscape:connector-curvature="0" />
  </g>
</svg>
