<?xml version="1.0" encoding="UTF-8" standalone="no"?>
<svg
   xmlns:dc="http://purl.org/dc/elements/1.1/"
   xmlns:cc="http://creativecommons.org/ns#"
   xmlns:rdf="http://www.w3.org/1999/02/22-rdf-syntax-ns#"
   xmlns:svg="http://www.w3.org/2000/svg"
   xmlns="http://www.w3.org/2000/svg"
   viewBox="0 0 300 300"
   height="300"
   width="300"
   id="svg110"
   version="1.1">
  <metadata
     id="metadata116">
    <rdf:RDF>
      <cc:Work
         rdf:about="">
        <dc:format>image/svg+xml</dc:format>
        <dc:type
           rdf:resource="http://purl.org/dc/dcmitype/StillImage" />
        <dc:title></dc:title>
      </cc:Work>
    </rdf:RDF>
  </metadata>
  <defs
     id="defs114" />
  <path
     id="path120"
     d="m 212.26318,144.54461 c -3.12098,0.36055 -5.60459,0.20343 -7.24315,0.0504 l -12.32768,31.13824 c -7.78938,19.67504 -16.34964,10.28655 -9.95964,-6.15877 l 10.47133,-26.94903 c -19.40095,-5.2558 -21.4211,-22.15747 -21.59381,-44.913131 -3.81421,0.84055 -6.19689,1.27824 -10.13073,2.869981 -3.94333,34.21796 4.93741,62.83519 14.35969,100.58444 2.78641,11.16342 -7.16094,19.28065 -10.31045,6.77948 -9.59118,-38.06984 -19.97418,-73.18427 -15.23021,-103.49469 -12.36343,5.49672 -11.88922,21.5884 -9.3318,34.17594 l 21.26047,104.64356 c 3.66607,18.04432 4.67363,23.65443 -1.50821,25.44313 -4.83752,1.39973 -7.19222,-6.95769 -10.25304,-22.16965 l -21.27322,-105.7257 c -6.94374,-34.50963 8.53352,-47.653731 42.39601,-55.20481 l 0.38082,-21.84986 c 0.5942,-34.093459 3.02626,-48.879114 31.43478,-48.76347 l 26.43881,0.107625 c 8.17658,0.03328 7.47093,9.98159 0.49782,10.140201 l -20.55524,0.467552 c -0.15249,19.841768 1.8946,26.999888 18.28949,32.388326 l 0.42345,-17.346694 c 0.21187,-8.679106 10.40451,-8.52737 10.48276,-0.185714 l 0.32193,52.80857 c 0.11505,17.356774 2.6437,35.612814 -16.12359,48.016794 -1.03204,19.35349 18.64624,22.10593 18.74939,36.96959 0.10402,14.99012 -25.64135,19.41087 -25.46313,26.34534 0.16222,6.31196 15.47897,15.35653 20.84531,26.69244 4.56758,9.64858 4.5419,23.02888 3.72371,45.72549 -0.36217,10.04678 -11.90485,10.91855 -11.82188,0.0332 0.14776,-19.38795 0.42757,-32.18952 -3.08111,-40.62924 -5.72042,-13.7598 -21.64994,-18.70945 -21.44952,-31.57608 0.26164,-16.79672 24.95434,-19.2895 25.08842,-26.27684 0.15682,-8.17224 -19.58616,-14.85643 -17.50778,-34.13662 z M 228.12486,69.538799 C 211.43461,64.974925 208.51919,62.013362 203.6664,56.617485 199.38951,61.7964 197.70602,64.57047 183.11148,68.403006 l -0.38215,22.908237 c -0.0889,23.331007 -1.69323,42.132167 24.26267,42.226217 22.62265,0.0819 21.24585,-22.97798 21.19908,-39.954688 z m -37.00875,40.797041 c 0.0868,-5.86786 10.34961,-5.56783 14.56714,-5.576 11.69739,0.006 15.75808,1.10167 15.77464,6.05546 0.0166,4.95674 -10.33828,5.66184 -15.56681,5.5267 -5.89181,-0.15228 -14.85256,-0.76234 -14.77497,-6.00616 z m -0.43777,-24.365405 c 0.007,-4.892574 7.01917,-5.89775 14.46179,-5.937044 8.37465,-0.04421 16.48285,1.432309 16.44814,6.109461 -0.0358,4.825857 -9.64623,5.906357 -16.74733,5.921818 -5.34734,0.01164 -14.16945,-0.784455 -14.1626,-6.094235 z m 7.43676,-60.017826 c -12.84798,0.456492 -15.03581,14.27377 -14.90866,30.775514 15.97608,-4.01307 14.56087,-10.650409 14.90866,-30.775514 z M 93.670862,183.4099 c -28.739738,-3.85583 -25.511974,-34.12132 -25.133484,-60.13395 0.06918,-4.7547 0.472265,-15.74742 6.0038,-15.48976 5.522888,0.25725 4.512386,7.82461 4.530813,15.95581 0.04907,21.65354 -0.713824,45.51449 12.551103,47.21114 L 91.686944,100.501 C 91.699364,86.794106 102.8568,90.158629 102.9168,99.935359 l 0.26022,42.407571 c 10.89261,-0.57969 10.05406,-12.61264 10.40394,-23.57564 0.73479,-23.023351 0.34407,-25.730772 5.95937,-25.545465 5.30499,0.175068 5.74351,18.914975 5.74558,23.019025 6e-4,23.10239 -1.61051,37.73941 -22.06024,38.28305 l 0.12525,17.89774 c 19.20863,2.65009 28.12016,2.40453 27.66272,9.89912 -0.42687,6.99381 -29.62776,2.12422 -37.342775,1.08914 z M 62.23668,91.703357 c 37.77023,-19.080005 58.96533,-27.758164 96.3299,-33.042962 7.19855,-1.018153 8.17798,9.768513 0.49773,10.937733 -38.35441,5.838964 -58.28676,14.688047 -92.175986,31.760462 -8.771777,4.41897 -12.215891,-5.834081 -4.651644,-9.655233 z M 72.510253,67.453842 C 98.86093,53.077417 126.33081,41.227076 153.30673,37.423146 c 9.73066,-1.372142 10.16662,9.809794 1.28864,11.235157 -26.86342,4.31293 -53.67457,15.823729 -77.14972,28.177301 -7.994441,4.206994 -12.4747,-5.267387 -4.935397,-9.381762 z M 68.958375,45.25927 C 90.138694,33.898399 124.12738,21.481222 152.11843,16.780309 c 8.75465,-1.470286 10.50028,9.520049 1.9395,11.310492 -28.86936,6.03787 -59.0145,16.760509 -82.130784,27.698428 -8.911634,4.2601 -10.8393,-6.308301 -2.968771,-10.529959 z"
     style="fill:#000000;stroke-width:0.69605547" />
</svg>
