<?xml version="1.0" encoding="UTF-8" standalone="no"?>
<!-- Created with Inkscape (http://www.inkscape.org/) -->

<svg
   xmlns:dc="http://purl.org/dc/elements/1.1/"
   xmlns:cc="http://creativecommons.org/ns#"
   xmlns:rdf="http://www.w3.org/1999/02/22-rdf-syntax-ns#"
   xmlns:svg="http://www.w3.org/2000/svg"
   xmlns="http://www.w3.org/2000/svg"
   xmlns:sodipodi="http://sodipodi.sourceforge.net/DTD/sodipodi-0.dtd"
   xmlns:inkscape="http://www.inkscape.org/namespaces/inkscape"
   width="300"
   height="300"
   id="svg2"
   version="1.1"
   inkscape:version="0.92.4 (5da689c313, 2019-01-14)"
   sodipodi:docname="image-bigseal.svg">
  <defs
     id="defs4" />
  <sodipodi:namedview
     id="base"
     pagecolor="#ffffff"
     bordercolor="#666666"
     borderopacity="1.0"
     inkscape:pageopacity="0.0"
     inkscape:pageshadow="2"
     inkscape:zoom="1.979899"
     inkscape:cx="104.60582"
     inkscape:cy="168.6356"
     inkscape:document-units="px"
     inkscape:current-layer="layer1"
     showgrid="false"
     inkscape:window-width="1872"
     inkscape:window-height="1016"
     inkscape:window-x="48"
     inkscape:window-y="27"
     inkscape:window-maximized="1" />
  <metadata
     id="metadata7">
    <rdf:RDF>
      <cc:Work
         rdf:about="">
        <dc:format>image/svg+xml</dc:format>
        <dc:type
           rdf:resource="http://purl.org/dc/dcmitype/StillImage" />
        <dc:title />
      </cc:Work>
    </rdf:RDF>
  </metadata>
  <g
     inkscape:label="Calque 1"
     inkscape:groupmode="layer"
     id="layer1"
     transform="translate(0,-752.36218)">
    <path
       style="fill:#000000;stroke-width:5.95425892"
       d="m 143.60103,1025.6488 c -10.02643,-10.5941 -21.58347,-25.77367 -25.68238,-33.73225 -7.11981,-13.82413 -7.81295,-13.97726 -15.52442,-3.43125 -4.439491,6.07143 -9.743791,19.9514 -11.787351,30.8444 -2.04356,10.893 -6.09674,19.8054 -9.00712,19.8054 -8.48566,0 -5.90734,-18.9078 6.22077,-45.61876 9.14538,-20.14195 10.702964,-34.06979 8.32334,-74.42823 -1.6101,-27.30713 -4.14024,-53.44668 -5.62255,-58.08785 -5.22063,-16.34628 -15.60844,3.91053 -20.12569,39.24649 l -4.43456,34.68886 -0.78072,-34.62843 c -0.83324,-36.95731 6.3186,-57.66258 19.9173,-57.66258 12.04778,0 16.226901,9.31799 21.076701,46.99363 l 4.2979,33.38886 0.78072,-36.8627 c 0.42931,-20.27449 3.21834,-38.36924 6.19768,-40.2106 16.45774,-10.17148 36.26286,20.83396 36.26286,56.77053 0,29.44541 -10.31933,24.05067 -13.29831,-6.95213 -4.48855,-46.71289 -16.47299,-51.79123 -16.47299,-6.98025 0,27.88041 -2.35116,37.93632 -9.85125,42.1336 -5.92842,3.3177 -8.37389,9.36312 -6.14117,15.18151 5.13115,13.37141 16.46733,12.11566 20.22143,-2.24005 1.7128,-6.54969 5.48108,-11.90853 8.37395,-11.90853 9.44483,0 5.53134,15.7714 -6.6487,26.79417 -6.54968,5.92741 -11.90851,12.6912 -11.90851,15.0307 0,2.33948 11.04253,18.12244 24.53893,35.07316 27.86135,34.9924 28.55453,45.8288 1.07414,16.7923 z m 87.42668,0.089 c -0.13039,-19.1929 -7.40787,-28.13335 -27.21048,-33.42912 -29.62608,-7.92298 -23.77619,-42.48763 7.19078,-42.48763 17.57786,0 17.85563,-7.38751 1.12833,-30.01238 -14.84736,-20.08216 -22.69728,-22.46995 -22.69728,-6.90403 0,14.36519 -11.55799,25.0981 -26.49645,24.60491 -11.82486,-0.3906 -11.79855,-0.60001 0.84348,-6.70914 17.716,-8.56116 21.90637,-22.25917 10.62329,-34.72685 -13.37189,-14.77578 -18.61837,-88.45861 -7.35744,-103.32979 9.83894,-12.9932 70.02119,-21.9315 70.02119,-10.39952 0,3.69152 -6.78262,6.71182 -15.07255,6.71182 -17.1438,0 -26.62429,16.38242 -14.07783,24.32677 13.10448,8.29768 17.21048,6.4487 17.66039,-7.95257 0.91071,-29.15425 10.64675,9.91212 11.07146,44.42497 0.32928,26.75058 -2.13579,36.3848 -11.55471,45.15983 l -11.97324,11.15478 12.18693,14.05168 c 16.30676,18.80177 12.83013,31.37693 -10.5813,38.27369 -20.95572,6.17325 -26.51765,21.09712 -7.8626,21.09712 6.31198,0 17.02965,7.05991 23.81703,15.68864 12.79279,16.26332 16.81078,43.85392 6.38642,43.85392 -3.27484,0 -5.99528,-6.0287 -6.04542,-13.3971 z M 213.64753,890.06931 c 17.68837,-9.46655 16.33408,-55.22694 -1.88,-63.52545 -7.83432,-3.56933 -18.95985,-4.04585 -26.79417,-1.14762 -23.98553,8.87339 -14.15642,70.8368 11.2367,70.8368 3.25621,0 11.10309,-2.77367 17.43747,-6.16373 z M 183.4848,866.46175 c 0,-3.27485 8.1964,-5.95426 18.2142,-5.95426 10.62657,0 16.68115,2.48042 14.53422,5.95426 -2.02397,3.27484 -10.22036,5.95426 -18.21419,5.95426 -7.99383,0 -14.53423,-2.67942 -14.53423,-5.95426 z m 0,-17.86278 c 0,-3.27485 6.5404,-5.95425 14.53423,-5.95425 7.99383,0 16.19022,2.6794 18.21419,5.95425 2.14693,3.47383 -3.90765,5.95426 -14.53422,5.95426 -10.0178,0 -18.2142,-2.67942 -18.2142,-5.95426 z m 5.95426,-45.15311 c 0,-18.65303 -13.9834,-16.61143 -16.78833,2.45113 -1.26361,8.58729 1.23646,12.93068 7.44282,12.93068 6.07942,0 9.34551,-5.37567 9.34551,-15.38181 z M 74.315319,819.71052 c 15.43433,-13.9684 25.779261,-29.05571 27.390591,-39.94706 l 2.58928,-17.50124 0.89212,19.19843 c 0.67682,14.56578 4.94787,21.29577 17.69999,27.89011 18.06415,9.34134 34.26491,25.88572 29.75974,30.39089 -1.51988,1.51988 -11.80021,-3.90366 -22.84517,-12.05237 -25.02171,-18.46046 -30.394417,-18.45326 -52.407841,0.0696 -27.98717,23.54964 -30.56024,16.82287 -3.07871,-8.04854 z"
       id="path447"
       inkscape:connector-curvature="0" />
  </g>
</svg>
