<?xml version="1.0" encoding="UTF-8" standalone="no"?>
<!-- Created with Inkscape (http://www.inkscape.org/) -->

<svg
   xmlns:dc="http://purl.org/dc/elements/1.1/"
   xmlns:cc="http://creativecommons.org/ns#"
   xmlns:rdf="http://www.w3.org/1999/02/22-rdf-syntax-ns#"
   xmlns:svg="http://www.w3.org/2000/svg"
   xmlns="http://www.w3.org/2000/svg"
   xmlns:sodipodi="http://sodipodi.sourceforge.net/DTD/sodipodi-0.dtd"
   xmlns:inkscape="http://www.inkscape.org/namespaces/inkscape"
   width="300"
   height="300"
   viewBox="0 0 300 300"
   id="svg2"
   version="1.1"
   inkscape:version="0.91 r13725"
   sodipodi:docname="顔-seal.svg">
  <defs
     id="defs4" />
  <sodipodi:namedview
     id="base"
     pagecolor="#ffffff"
     bordercolor="#666666"
     borderopacity="1.0"
     inkscape:pageopacity="0.0"
     inkscape:pageshadow="2"
     inkscape:zoom="1.01"
     inkscape:cx="163.14457"
     inkscape:cy="147.29765"
     inkscape:document-units="px"
     inkscape:current-layer="layer1"
     showgrid="false"
     units="px"
     inkscape:window-width="861"
     inkscape:window-height="648"
     inkscape:window-x="124"
     inkscape:window-y="8"
     inkscape:window-maximized="0" />
  <metadata
     id="metadata7">
    <rdf:RDF>
      <cc:Work
         rdf:about="">
        <dc:format>image/svg+xml</dc:format>
        <dc:type
           rdf:resource="http://purl.org/dc/dcmitype/StillImage" />
        <dc:title></dc:title>
      </cc:Work>
    </rdf:RDF>
  </metadata>
  <g
     inkscape:label="Layer 1"
     inkscape:groupmode="layer"
     id="layer1"
     transform="translate(0,-752.36216)">
    <path
       style="fill:#000000"
       d="m 213.01461,1022.0791 c -3.90639,-18.1958 -5.05538,-19.842 -16.13635,-23.11974 -13.51004,-3.9962 -17.76195,-8.3603 -17.67542,-18.14158 0.0973,-11.00011 4.06998,-15.54495 18.32125,-20.96 14.58025,-5.54006 18.40387,-9.90822 15.07272,-17.2193 -1.66065,-3.64473 -4.30801,-5.21845 -8.77866,-5.21845 -9.52115,0 -14.06044,-8.23979 -15.33754,-27.84091 -0.40845,-6.26884 -9.35005,-5.15144 -9.35005,1.16845 0,6.15631 -7.64839,27.75054 -11.72349,33.09975 -6.5331,8.5757 -21.31731,20.84544 -25.11736,20.84544 -5.90728,0 -4.99001,-4.93211 2.18176,-11.73123 11.00201,-10.43033 19.79198,-25.77572 22.20452,-38.76428 1.39712,-7.52182 0.66945,-9.50161 -6.62431,-18.02273 l -8.19385,-9.57266 -0.33038,-36.52273 c -0.49209,-54.39926 -0.60098,-53.80629 11.02332,-60.02742 7.66001,-4.09951 54.67935,-3.49316 58.93249,0.75998 5.47166,5.47166 1.47105,7.97198 -12.75549,7.97198 -18.05782,0 -20.5063,1.24321 -20.5063,10.41206 0,6.17607 1.29406,8.32221 6.70532,11.12048 9.27076,4.7941 11.4765,4.36851 11.4765,-2.21436 0,-4.10908 1.22106,-5.68182 4.41132,-5.68182 2.42623,0 5.15607,1.20502 6.0663,2.67781 0.91024,1.47279 2.0885,18.2991 2.61836,37.3918 1.05951,38.17795 1.7853,35.75529 -14.62441,48.81577 -8.01499,6.37913 -4.50628,16.77918 8.54298,25.32196 19.98327,13.08219 17.67343,28.49232 -6.11145,40.77253 -13.75036,7.09934 -19.66512,13.88109 -15.33341,17.581 1.06167,0.90681 6.53258,3.07406 12.15758,4.81606 5.625,1.7421 11.50171,4.3997 13.05936,5.9059 7.75911,7.50274 10.55164,35.47414 3.80022,38.06484 -1.97724,0.7588 -3.94935,1.3796 -4.38247,1.3796 -0.43312,0 -2.05,-5.8807 -3.59306,-13.0682 z M 197.31238,887.98468 c 5.11481,-2.55513 7.95455,-5.59644 7.95455,-8.51919 0,-3.78185 -1.71813,-4.64775 -10.22728,-5.15437 -5.625,-0.33491 -14.82954,0.22698 -20.45454,1.24859 -8.33998,1.51474 -10.08415,2.65735 -9.4517,6.19184 1.83937,10.27935 17.86531,13.38361 32.17897,6.23313 z m 5.24613,-24.78653 c 2.66824,-0.75866 3.86399,-2.89368 3.40909,-6.08696 -0.66176,-4.64523 -1.71059,-4.87847 -18.88249,-4.19898 -10,0.3957 -19.97159,1.23167 -22.15909,1.8577 -4.56763,1.3072 -5.3719,8.93714 -1.13637,10.78038 3.05606,1.32995 31.99349,-0.42572 38.76886,-2.35214 z m -11.47434,-18.73841 c 5.94948,-0.97914 11.34287,-2.30588 11.98531,-2.94832 2.75117,-2.75117 -1.9707,-7.89341 -10.73452,-11.69018 -8.82164,-3.82182 -10.05796,-3.84809 -19.07291,-0.40525 -10.39757,3.97087 -13.9271,9.00289 -9.80151,13.97392 2.86041,3.44658 11.21564,3.77017 27.62363,1.06983 z m -19.20034,-25.31006 c 2.95365,-2.75175 4.974,-7.36745 4.974,-11.36364 0,-5.59005 -0.9245,-6.72964 -5.45948,-6.72964 -6.15814,0 -11.01206,9.85824 -8.87593,18.02685 1.5373,5.87861 3.11079,5.88977 9.36141,0.0664 z M 73.613228,1019.9836 c -1.4684,-3.8265 0.29967,-62.24608 2.39561,-79.15448 0.61979,-5 1.71026,-25.18765 2.42327,-44.86144 0.97065,-26.78288 0.58633,-36.6261 -1.52957,-39.17561 -3.97319,-4.7874 -1.19424,-10.28113 5.20061,-10.28113 6.36705,0 19.754682,-13.66686 19.754682,-20.1667 0,-5.68137 -15.068832,-20.74239 -20.753142,-20.74239 -5.43805,0 -8.31154,-6.57879 -4.02942,-9.22529 1.73388,-1.0716 8.53064,-2.62031 15.1039,-3.44159 11.613502,-1.45101 11.951392,-1.69843 11.951392,-8.75151 0,-3.99206 1.47419,-9.24354 3.27598,-11.66995 4.82287,-6.49481 11.1992,-1.72168 12.63311,9.45677 1.11717,8.70922 1.30124,8.86195 10.89823,9.04279 5.50354,0.1037 11.27638,1.69845 13.23374,3.65581 3.11401,3.11401 2.2835,4.69193 -8.05732,15.30846 -6.34106,6.51012 -11.52919,13.13791 -11.52919,14.72842 0,1.59051 5.23123,7.6374 11.62496,13.43753 14.86763,13.48732 13.94648,17.38775 -4.16727,17.6456 -16.66387,0.23721 -32.175419,1.49106 -35.839249,2.897 -1.9937,0.76506 -3.229913,10.47461 -4.141173,32.52602 -0.71448,17.28947 -1.79388,39.60531 -2.39867,49.59075 -0.6646,10.97285 -0.15818,19.28973 1.28008,21.02273 1.67509,2.01837 1.62437,2.86737 -0.17131,2.86737 -1.40305,0 -2.55101,2.55682 -2.55101,5.68182 0,3.125 1.01542,5.68182 2.25648,5.68182 1.24107,0 7.813533,-7.41478 14.605492,-16.47728 6.79196,-9.0625 16.43427,-21.07954 21.42736,-26.70454 8.57092,-9.65563 9.29964,-10.0115 13.03733,-6.36692 4.29442,4.18744 5.78869,1.77087 -18.0058,29.11944 -2.73098,3.13889 -7.46164,9.27525 -10.51259,13.63636 -8.11716,11.60291 -13.894069,16.13407 -18.646672,14.62564 -3.19961,-1.0155 -4.18818,-0.10341 -4.27659,3.94596 -0.44776,20.50674 -1.57587,26.99314 -5.43658,31.25914 -5.14295,5.6829 -7.1419,5.8792 -9.05667,0.8894 z M 120.03965,842.20864 c 0,-5.31601 -6.30491,-8.04388 -10.51533,-4.54953 -5.43945,4.51434 -3.62781,8.85183 3.69715,8.85183 5.17458,0 6.81818,-1.03712 6.81818,-4.3023 z m -0.33722,-32.36592 c 3.90826,-6.25811 -0.12918,-9.45007 -9.72433,-7.68795 -8.95484,1.64453 -9.54854,2.64731 -4.72378,7.9786 5.33799,5.89842 10.6497,5.79156 14.44811,-0.29065 z M 97.312381,929.29345 c 0,-5.11241 31.362979,-35.47727 35.761989,-34.62387 5.85657,1.13616 5.88831,5.86932 0.0767,11.43589 -27.92105,26.74379 -35.838679,31.86657 -35.838679,23.18798 z m 0,-37.32796 c 0,-2.5 1.15434,-4.54546 2.5652,-4.54546 1.410869,0 8.558389,-4.09091 15.883389,-9.09091 13.48289,-9.20333 22.4605,-11.61519 22.4605,-6.03406 0,4.01457 -5.30842,8.57501 -19.98638,17.17021 -14.12511,8.27147 -20.922709,9.08376 -20.922709,2.50022 z"
       id="path3551"
       inkscape:connector-curvature="0" />
  </g>
</svg>
