<?xml version="1.0" standalone="no"?>
<!DOCTYPE svg PUBLIC "-//W3C//DTD SVG 20010904//EN"
 "http://www.w3.org/TR/2001/REC-SVG-20010904/DTD/svg10.dtd">
<svg version="1.0" xmlns="http://www.w3.org/2000/svg"
 width="70.000000pt" height="83.000000pt" viewBox="0 0 70.000000 83.000000"
 preserveAspectRatio="xMidYMid meet">
<metadata>
Created by potrace 1.10, written by Peter Selinger 2001-2011
</metadata>
<g transform="translate(0.000000,83.000000) scale(0.100000,-0.100000)"
fill="#000000" stroke="none">
<path d="M460 705 c0 -30 -4 -35 -22 -35 -65 -1 -101 -106 -63 -180 13 -25 23
-30 65 -36 43 -6 49 -9 52 -33 2 -17 13 -30 30 -39 46 -22 51 -114 7 -125 -19
-5 -20 -2 -15 28 7 37 -1 85 -15 85 -5 0 -9 -17 -9 -37 0 -49 -18 -113 -31
-113 -7 0 -9 27 -7 71 2 51 -1 73 -9 76 -10 3 -13 -11 -13 -51 0 -39 -4 -56
-13 -56 -23 0 -37 23 -37 61 0 32 5 40 35 58 22 13 35 28 35 41 0 26 -20 26
-27 0 -3 -10 -14 -22 -24 -25 -33 -11 -49 -35 -49 -73 0 -44 22 -79 56 -92 13
-5 24 -17 24 -25 0 -23 44 -106 72 -135 20 -21 23 -22 26 -7 2 10 -8 31 -22
47 -13 16 -27 39 -31 50 -8 26 24 69 51 70 27 0 52 28 60 66 8 39 -18 100 -45
109 -12 3 -21 10 -21 15 0 5 -3 15 -6 23 -3 9 3 16 15 20 26 6 41 45 41 103 0
58 -13 81 -54 98 -29 12 -32 17 -28 45 3 24 1 31 -12 31 -12 0 -16 -9 -16 -35z
m49 -71 c3 -2 -6 -15 -18 -28 l-23 -25 -23 27 c-21 24 -22 28 -7 34 16 6 61 0
71 -8z m35 -106 l-10 -32 -22 32 -23 32 23 32 22 32 10 -32 c5 -19 5 -45 0
-64z m-114 57 l23 -24 -26 -30 c-13 -16 -28 -27 -31 -24 -9 9 -7 103 2 103 5
0 19 -11 32 -25z m80 -96 c0 -12 -29 -19 -60 -13 l-29 6 21 29 22 29 23 -22
c13 -12 23 -25 23 -29z"/>
<path d="M155 708 c-24 -22 -26 -30 -32 -142 -5 -100 -4 -118 8 -114 10 3 15
31 19 110 6 129 12 138 91 138 46 0 60 -4 68 -18 17 -32 2 -62 -30 -62 -15 0
-39 -4 -53 -10 -21 -8 -26 -16 -26 -45 0 -29 4 -35 25 -40 14 -3 36 -7 50 -10
17 -4 27 -15 33 -37 11 -43 32 -49 32 -9 0 41 -28 67 -79 76 -32 5 -41 11 -39
23 2 13 16 18 51 20 55 4 70 22 65 80 -4 45 -31 62 -105 62 -40 0 -58 -5 -78
-22z"/>
<path d="M180 660 c0 -23 80 -26 88 -2 2 8 -10 12 -42 12 -25 0 -46 -4 -46
-10z"/>
<path d="M180 502 c0 -12 6 -25 13 -29 21 -12 29 -43 12 -43 -8 0 -30 -14 -50
-31 -29 -26 -35 -38 -33 -63 3 -30 5 -31 46 -29 48 2 52 -8 17 -43 -47 -47
-41 -114 10 -114 19 0 30 10 45 39 10 22 31 48 45 59 27 22 33 42 11 42 -17 0
-72 -61 -81 -89 -3 -12 -13 -21 -21 -21 -22 0 -17 35 11 68 44 52 28 94 -31
85 -40 -7 -43 4 -9 41 38 41 125 31 125 -14 0 -28 -15 -25 -38 7 -25 34 -41
23 -21 -13 31 -59 93 -52 87 10 -2 24 -11 35 -39 50 -23 12 -39 30 -45 49 -5
17 -19 37 -31 45 -21 13 -23 13 -23 -6z"/>
</g>
</svg>
