<?xml version="1.0" encoding="UTF-8" standalone="no"?>
<svg
   xmlns:dc="http://purl.org/dc/elements/1.1/"
   xmlns:cc="http://creativecommons.org/ns#"
   xmlns:rdf="http://www.w3.org/1999/02/22-rdf-syntax-ns#"
   xmlns:svg="http://www.w3.org/2000/svg"
   xmlns="http://www.w3.org/2000/svg"
   viewBox="0 0 300 300"
   height="300"
   width="300"
   id="svg752"
   version="1.1">
  <metadata
     id="metadata758">
    <rdf:RDF>
      <cc:Work
         rdf:about="">
        <dc:format>image/svg+xml</dc:format>
        <dc:type
           rdf:resource="http://purl.org/dc/dcmitype/StillImage" />
        <dc:title></dc:title>
      </cc:Work>
    </rdf:RDF>
  </metadata>
  <defs
     id="defs756" />
  <path
     id="path762"
     d="m 131.16903,281.22862 c -3.26565,-4.91989 -4.24951,-7.31822 -9.23766,-22.51827 -11.37874,-34.67365 -12.9415,-47.94713 -7.65932,-65.0555 1.38501,-4.48589 1.51102,-4.63698 6.74933,-8.09277 6.63849,-4.37954 14.22204,-7.46192 20.87834,-8.48614 9.8226,-1.51145 13.99146,-3.08597 18.09106,-6.83278 2.06693,-1.88906 4.2529,-4.45332 4.85768,-5.69835 l 1.09962,-2.26368 -2.21467,-0.55422 c -1.21806,-0.30484 -12.01312,-0.78063 -23.98901,-1.05734 l -21.77433,-0.5031 -3.98981,-1.93784 c -5.14341,-2.49812 -7.43104,-4.46263 -10.38654,-8.91949 -2.36024,-3.55922 -2.41327,-3.80136 -3.26441,-14.90711 -1.083604,-14.13904 -0.669754,-21.10262 1.62593,-27.35839 1.9088,-5.20151 3.32504,-6.69992 9.44796,-9.996165 6.0618,-3.26333 19.61963,-6.310269 28.07946,-6.310478 l 4.92262,-1.14e-4 0.4977,-7.678862 c 0.35257,-5.440019 0.26729,-7.908879 -0.29251,-8.467799 -0.54715,-0.546293 -4.84871,-0.745514 -13.98597,-0.647742 -14.6207,0.156447 -16.38637,-0.199153 -20.43233,-4.115007 -1.36904,-1.325017 -2.48266,-1.919399 -2.84836,-1.520277 -0.33026,0.360438 -6.86364,8.12083 -14.518642,17.245312 -19.952279,23.782402 -20.681562,24.539322 -23.643572,24.539322 -1.344933,0 -3.00313,-0.40786 -3.68487,-0.90636 -1.190952,-0.87085 -1.189334,-1.08618 0.0412,-5.49438 1.255576,-4.497955 1.836987,-5.235855 29.621426,-37.593615 37.160438,-43.277042 37.819878,-44.007867 42.575598,-47.183613 7.6987,-5.140994 11.51108,-5.197779 19.18971,-0.285826 4.35369,2.78502 72.25968,69.744111 76.05272,74.992219 1.69814,2.34954 2.35433,4.01406 2.40932,6.11149 0.0923,3.518535 -1.36401,4.830105 -5.36303,4.830105 -2.7051,0 -3.22361,-0.44728 -20.55441,-17.731156 l -17.77929,-17.731164 -2.15612,1.814257 c -3.60645,3.034634 -6.62449,3.454988 -21.27542,2.96326 l -13.30654,-0.446605 -0.12344,6.925096 c -0.0678,3.8088 -0.14565,7.617709 -0.17281,8.464241 -0.0421,1.309828 0.51707,1.669997 3.75249,2.417417 2.09103,0.483052 8.62334,1.170302 14.51623,1.527226 10.95684,0.663633 14.33729,1.304323 18.76226,3.556003 5.58995,2.84447 9.96587,10.557115 10.72909,18.910155 0.48812,5.34225 -0.74269,18.04335 -2.63609,27.2024 -1.4158,6.84879 -1.58306,7.21015 -4.54337,9.81591 -1.69039,1.48795 -4.21372,3.07364 -5.60736,3.52374 -9.73255,3.14332 -9.3799,2.86876 -12.15464,9.46318 -1.95306,4.64162 -3.64585,7.27221 -7.34577,11.41533 -3.05025,3.41563 -4.80785,5.97595 -4.80785,7.00365 0,3.8314 4.8978,35.10385 6.28778,40.14749 0.99021,3.59303 4.74595,11.88973 10.72257,23.68695 5.05921,9.98633 9.51309,19.29609 9.89752,20.68836 0.94644,3.42774 -0.24598,5.82437 -3.33845,6.70986 -2.2191,0.63541 -2.48668,0.5193 -4.72185,-2.04896 -9.54666,-10.9693 -20.33583,-32.97655 -24.71807,-50.41871 -0.85967,-3.42168 -2.27599,-12.8313 -3.14737,-20.91027 -1.22729,-11.37864 -1.80251,-14.68905 -2.55249,-14.68905 -0.5325,0 -5.95127,0.93296 -12.04172,2.07324 -12.42848,2.32689 -12.18415,2.18146 -15.67848,9.33238 -3.02335,6.18706 -3.81383,10.55403 -3.36594,18.59514 0.44137,7.92377 3.87883,21.39182 9.24621,36.22678 9.44272,26.09889 9.7228,27.33893 6.82862,30.23311 -2.77836,2.77836 -4.71126,2.25428 -7.56993,-2.05249 z m 42.81383,-131.99501 c 6.37874,-1.52911 13.54958,-5.19786 14.67676,-7.50894 1.4777,-3.02974 3.08567,-15.6666 2.69397,-21.17156 -0.48766,-6.85352 -3.13636,-12.26699 -7.04874,-14.40626 -6.04567,-3.30578 -9.81416,-3.82003 -30.38985,-4.14705 -17.50071,-0.27816 -20.04558,-0.1715 -26.56375,1.11338 -3.96483,0.78156 -8.63076,2.12712 -10.36874,2.99015 -2.92451,1.45223 -3.27783,1.92199 -4.74231,6.30534 -3.27936,9.81555 -2.67675,21.59633 1.4896,29.12059 2.17774,3.93292 2.38466,4.09752 6.66973,5.30587 3.96424,1.11788 15.04587,2.9025 22.4555,3.61631 6.96053,0.67055 26.42749,-0.0911 31.12783,-1.21783 z m -40.11407,-17.36912 c -0.38019,-0.13098 -2.47985,-0.43988 -4.66593,-0.68641 l -3.97468,-0.44825 v -3.72549 c 0,-3.72129 0.003,-3.72627 2.59218,-4.41675 7.93449,-2.11588 30.09623,-3.81436 37.49286,-2.87347 3.99249,0.50788 5.45744,1.00491 6.40282,2.1724 1.51241,1.86774 2.28166,4.71337 1.46876,5.43319 -1.45803,1.29111 -7.16351,2.95481 -13.31136,3.88155 -5.78194,0.87159 -24.04779,1.33744 -26.00465,0.66323 z M 165.18559,61.119861 184.75117,60.66755 170.02434,45.742487 C 158.23857,33.79808 154.4499,30.38139 151.05325,28.634077 c -2.33434,-1.200842 -4.53421,-2.183348 -4.88861,-2.183348 -0.35439,0 -6.06549,5.825158 -12.69134,12.944795 -6.62584,7.119637 -14.13492,15.153258 -16.68683,17.852491 l -4.63984,4.907696 16.7367,-0.29177 c 9.20518,-0.160473 25.5412,-0.495309 36.30226,-0.74408 z"
     style="fill:#000000;stroke-width:0.69124895" />
</svg>
