<?xml version="1.0" encoding="UTF-8" standalone="no"?>
<!-- Created with Inkscape (http://www.inkscape.org/) -->

<svg
   xmlns:dc="http://purl.org/dc/elements/1.1/"
   xmlns:cc="http://creativecommons.org/ns#"
   xmlns:rdf="http://www.w3.org/1999/02/22-rdf-syntax-ns#"
   xmlns:svg="http://www.w3.org/2000/svg"
   xmlns="http://www.w3.org/2000/svg"
   xmlns:sodipodi="http://sodipodi.sourceforge.net/DTD/sodipodi-0.dtd"
   xmlns:inkscape="http://www.inkscape.org/namespaces/inkscape"
   width="300"
   height="300"
   id="svg2"
   version="1.1"
   inkscape:version="0.92.4 (5da689c313, 2019-01-14)"
   sodipodi:docname="image-bigseal.svg">
  <defs
     id="defs4" />
  <sodipodi:namedview
     id="base"
     pagecolor="#ffffff"
     bordercolor="#666666"
     borderopacity="1.0"
     inkscape:pageopacity="0.0"
     inkscape:pageshadow="2"
     inkscape:zoom="1.4142136"
     inkscape:cx="404.22473"
     inkscape:cy="166.71134"
     inkscape:document-units="px"
     inkscape:current-layer="layer1"
     showgrid="false"
     inkscape:window-width="1872"
     inkscape:window-height="1016"
     inkscape:window-x="48"
     inkscape:window-y="27"
     inkscape:window-maximized="1" />
  <metadata
     id="metadata7">
    <rdf:RDF>
      <cc:Work
         rdf:about="">
        <dc:format>image/svg+xml</dc:format>
        <dc:type
           rdf:resource="http://purl.org/dc/dcmitype/StillImage" />
        <dc:title />
      </cc:Work>
    </rdf:RDF>
  </metadata>
  <g
     inkscape:label="Calque 1"
     inkscape:groupmode="layer"
     id="layer1"
     transform="translate(0,-752.36218)">
    <path
       style="fill:#000000;stroke-width:6.00760746"
       d="m 154.7724,908.24617 c 0.052,-56.1163 2.7538,-103.43477 6.28526,-110.08743 5.06076,-9.53363 12.72142,-11.66782 41.88189,-11.66782 19.80342,0 35.68825,2.68493 35.68825,6.03219 0,3.3177 -14.62679,6.03219 -32.50401,6.03219 -25.87761,0 -33.08724,2.15204 -35.36485,10.55632 -1.57346,5.80599 -3.03775,59.21745 -3.25399,118.69217 -0.21623,59.47471 -2.7761,110.53841 -5.68862,113.47471 -2.69177,2.7139 -10.77445,1.386 -10.5613,-16.4438 0.20761,-17.3646 3.46699,-62.45773 3.51737,-116.58853 z m -46.05811,70.93985 c -3.71517,-10.54604 -13.874273,-32.92144 -13.874273,-32.92144 0,0 -2.942815,2.30001 -4.203179,3.09541 -15.459614,9.75639 -9.62182,38.8248 1.765711,61.02641 5.134823,10.011 8.355961,22.7701 7.158104,28.3533 -1.504538,7.0125 -5.97874,2.6907 -14.47018,-13.9774 v 2e-4 C 60.785196,977.05299 62.277686,954.77026 91.423859,930.20598 l 12.583581,-10.60536 -12.729425,-0.20087 c -31.150809,-0.49103 -39.380952,-53.44338 -11.757929,-75.64979 4.048699,-3.2548 14.976529,-6.4027 14.976529,-6.4027 0,0 0.524628,-11.26807 0.536141,-13.38174 0.01148,-2.10608 -0.454281,-4.99877 -0.454281,-4.99877 l -22.316587,-2.53346 c 0,0 -4.357127,9.21007 -7.234457,12.4519 -7.626162,14.36644 -19.061373,10.2578 -13.59953,-4.88625 7.150688,-19.82677 38.245893,-61.63678 45.840912,-61.63678 9.986247,0 29.668087,21.97207 42.378697,47.31004 10.31818,20.56873 7.12925,36.59691 -3.47892,17.48574 -3.24757,-5.85065 -8.65676,-8.20785 -8.65676,-8.20785 l -20.88346,-0.39656 c 0,0 0.37063,7.30322 0.37063,10.1627 0,3.18735 0.40501,10.26023 0.40501,10.26023 0,0 5.85433,1.80415 8.35917,1.80415 23.53965,0 14.36052,66.85691 3.77647,76.03621 -0.61224,12.78178 -13.00685,22.60579 -13.00685,22.60579 0,0 5.90142,8.44682 7.55909,14.60612 9.20674,34.20853 36.18071,67.31657 33.93746,70.80597 -10.41453,16.2002 -31.46253,-23.3581 -39.31506,-45.64868 z m 9.14274,-85.62359 c 0.69457,-3.69258 0.79903,-9.29691 0.79903,-9.29691 0,0 -10.54236,-1.25941 -20.193027,-1.25941 -11.139584,0 -22.337551,0.13178 -22.337551,0.13178 0,0 0.245917,15.23623 5.221324,20.25243 7.986117,8.05164 34.488994,0.91749 36.510224,-9.82789 z m 1.10822,-32.05118 c 0,-6.96826 -4.70855,-11.43857 -18.73625,-10.04188 -19.514836,1.94306 -22.350246,18.78181 -22.350246,18.78181 0,0 11.847118,0.69055 19.646974,0.69055 8.520742,0 21.232472,0.34445 21.232472,0.34445 0,0 0.20705,-6.72491 0.20705,-9.77493 z m 0.53717,-61.94382 c -12.3358,-23.2387 -22.249205,-26.43973 -32.592675,-10.52411 -4.259562,6.5542 -9.445295,14.96387 -9.445295,14.96387 0,0 9.788575,0.91801 22.150663,2.22413 12.287937,1.29825 23.109537,2.81678 24.047997,3.37452 0.93846,0.55737 -0.93386,-3.95959 -4.16069,-10.03841 z M 232.9634,1011.1901 c -3.42478,-12.44138 -10.4777,-38.03047 -13.02592,-57.30579 -2.67797,-20.25677 -0.66385,-29.29135 -5.66133,-41.81578 0,0 -11.59836,8.36635 -14.53868,13.1629 -2.03377,3.3177 -9.59678,5.95913 -16.8067,5.86991 -11.84616,-0.14658 -11.16272,-1.78974 7.09471,-17.05721 l 18.46674,-14.14321 -13.9794,-15.21557 c -8.64395,-6.8551 -15.71629,-14.10905 -15.71629,-16.11982 0,-7.94656 14.90301,-2.97743 27.85119,9.28649 l 12.42395,14.44346 7.65102,-18.4998 c 9.1051,-22.01567 4.1402,-31.83862 -16.25854,-36.35503 -31.35977,-6.94329 -34.96764,-11.22633 -11.30853,-13.42476 17.53973,-1.62983 26.41359,0.91823 35.65876,10.23922 11.41533,11.50893 11.72263,14.27396 4.23673,38.12023 -2.94821,9.39152 -13.95862,31.53667 -13.95862,31.53667 5.80531,10.88156 8.41546,55.58132 16.51584,87.63053 10.43069,41.26906 10.67686,42.26826 3.28383,42.26826 -3.13604,0 -8.50398,-10.1793 -11.92876,-22.6207 z"
       id="path236"
       inkscape:connector-curvature="0"
       sodipodi:nodetypes="ccssssscscscssccccccccsccccsssccscsccsssccscccsccscsccccccsscsccccsscssccscsss" />
  </g>
</svg>
