<?xml version="1.0" encoding="UTF-8" standalone="no"?>
<!-- Created with Inkscape (http://www.inkscape.org/) -->

<svg
   xmlns:dc="http://purl.org/dc/elements/1.1/"
   xmlns:cc="http://creativecommons.org/ns#"
   xmlns:rdf="http://www.w3.org/1999/02/22-rdf-syntax-ns#"
   xmlns:svg="http://www.w3.org/2000/svg"
   xmlns="http://www.w3.org/2000/svg"
   xmlns:sodipodi="http://sodipodi.sourceforge.net/DTD/sodipodi-0.dtd"
   xmlns:inkscape="http://www.inkscape.org/namespaces/inkscape"
   width="300"
   height="300"
   id="svg2"
   version="1.1"
   inkscape:version="0.48.4 r9939"
   sodipodi:docname="image-seal.svg">
  <defs
     id="defs4" />
  <sodipodi:namedview
     id="base"
     pagecolor="#ffffff"
     bordercolor="#666666"
     borderopacity="1.0"
     inkscape:pageopacity="0.0"
     inkscape:pageshadow="2"
     inkscape:zoom="2.0018437"
     inkscape:cx="232.32812"
     inkscape:cy="101.94762"
     inkscape:document-units="px"
     inkscape:current-layer="layer1"
     showgrid="false"
     inkscape:window-width="1215"
     inkscape:window-height="1000"
     inkscape:window-x="65"
     inkscape:window-y="24"
     inkscape:window-maximized="1"
     fit-margin-top="10"
     fit-margin-left="10"
     fit-margin-right="10"
     fit-margin-bottom="10" />
  <metadata
     id="metadata7">
    <rdf:RDF>
      <cc:Work
         rdf:about="">
        <dc:format>image/svg+xml</dc:format>
        <dc:type
           rdf:resource="http://purl.org/dc/dcmitype/StillImage" />
        <dc:title />
      </cc:Work>
    </rdf:RDF>
  </metadata>
  <g
     inkscape:label="Calque 1"
     inkscape:groupmode="layer"
     id="layer1"
     transform="translate(0,-752.36218)">
    <path
       style="fill:#000000"
       d="m 182.30929,1042.2726 c -0.91127,-2.8712 -0.77427,-11.9274 0.30447,-20.1248 1.07872,-8.1975 1.8754,-16.9494 1.77041,-19.4488 -0.10491,-2.4994 -0.32077,-17.98249 -0.47946,-34.40692 -0.26975,-27.91804 -0.6228,-29.86259 -5.42216,-29.86259 -11.07659,0 -13.70055,11.36765 -17.07203,73.96021 -0.83836,15.5648 -2.5163,24.5836 -5.04398,27.1113 -2.08321,2.0832 -4.50099,3.0743 -5.37285,2.2025 -1.48882,-1.4889 -1.54519,-56.37784 -0.0753,-73.41142 1.83424,-21.25715 11.86483,-39.27097 23.60927,-42.39958 11.23231,-2.99221 10.51833,-11.26049 -1.29838,-15.03595 -11.25583,-3.59624 -15.49271,-11.38077 -15.5422,-28.55612 -0.0442,-15.30702 7.09428,-26.96686 16.5097,-26.96686 5.72762,0 12.01624,-4.33171 12.01624,-8.27703 0,-1.12465 -4.51359,-4.89411 -10.0302,-8.37661 -7.92568,-5.00326 -10.64993,-8.79285 -12.98373,-18.06131 -4.24236,-16.84786 -3.78253,-36.67007 0.94158,-40.59072 7.06801,-5.86592 10.70426,0.81247 10.19187,18.71863 -0.49502,17.2995 2.00004,25.42607 7.80644,25.42607 3.6522,0 6.96492,-28.52158 5.88135,-50.63657 -0.46469,-9.484 0.0553,-10.38699 5.98293,-10.38699 6.42064,0 6.48702,0.228 6.04817,20.77398 -0.2441,11.42569 -0.95937,25.15599 -1.5896,30.51178 -1.14003,9.6881 -1.09734,9.7378 8.3615,9.7378 8.41076,0 9.86701,-0.99465 12.62575,-8.62379 1.71512,-4.74309 3.1184,-12.24299 3.1184,-16.66647 0,-10.64158 2.33856,-16.25769 6.7697,-16.25769 4.66228,0 4.97319,26.89835 0.47738,41.30342 -3.37855,10.82521 -9.20144,15.78163 -21.52919,18.3255 -12.41741,2.56237 -9.65177,8.75245 5.00861,11.21029 18.3348,3.07385 23.58994,9.90348 22.28661,28.96379 -1.03893,15.19372 -4.17713,18.95313 -20.00259,23.96208 -13.94162,4.41268 -15.08287,5.36002 -15.08287,12.52011 0,6.91906 1.02525,7.91284 9.60173,9.3069 12.35299,2.00791 17.66412,6.54573 17.66412,15.09217 0,3.76211 1.18474,10.92238 2.63274,15.9117 3.60992,12.43842 3.73921,77.74549 0.161,81.32379 -5.40921,5.4092 -7.84841,-2.2602 -9.01129,-28.3332 -2.39176,-53.62693 -4.03737,-62.82193 -12.52061,-69.9601 -4.21797,-3.54921 -8.73865,-5.79205 -10.04593,-4.9841 -1.30728,0.80795 -2.39282,23.31009 -2.41233,50.00476 -0.0182,26.69464 -0.74007,51.16494 -1.60123,54.37844 -1.95504,7.2951 -10.4042,7.7107 -12.65395,0.6224 z M 213.9221,894.86819 c 1.67202,-1.0636 3.84578,-5.14407 4.83054,-9.06776 2.58221,-10.28829 -4.45059,-20.07987 -14.42233,-20.07987 -7.71709,0 -7.73039,0.0267 -7.73039,15.58049 0,15.27536 0.13997,15.5797 7.14106,15.54072 3.92758,-0.0208 8.50907,-0.90997 10.18112,-1.97358 z m -27.74892,-12.91796 c -0.0564,-13.81264 -2.68018,-17.04157 -11.21188,-13.79781 -4.59432,1.74672 -6.9256,4.54815 -6.9256,8.32221 0,6.7915 7.28956,14.84363 13.63293,15.05908 3.55419,0.12075 4.53563,-1.96735 4.50455,-9.58348 z M 84.73729,1032.9668 c -2.67704,-3.2256 -3.62755,-13.1017 -3.65523,-37.9786 l -0.0374,-33.61936 8.44746,-6.92537 c 4.6461,-3.80896 12.13597,-9.94863 16.64416,-13.64372 8.98337,-7.36313 8.2426,-12.75725 -1.75195,-12.75725 -18.86022,0 -26.93229,-12.84193 -27.44889,-43.66875 -0.36123,-21.55672 3.25508,-33.2005 11.08302,-35.68499 6.13007,-1.94562 15.09856,-11.40037 15.09856,-15.91718 0,-1.8794 -2.84051,-3.40548 -6.33861,-3.40548 -3.48624,0 -7.06082,-1.16854 -7.9435,-2.59675 -3.09535,-5.0084 -7.95291,-2.51261 -12.86603,6.61052 -3.50956,6.51684 -6.46813,8.9829 -10.12493,8.43942 -7.64801,-1.13664 -7.78302,-5.39204 -0.44186,-13.9283 3.6012,-4.18744 6.54905,-9.81352 6.55079,-12.50243 0.002,-2.68888 2.12149,-6.77876 4.71058,-9.08862 6.15509,-5.49123 21.26006,-27.71825 21.26006,-31.28421 0,-1.52795 1.29521,-2.77807 2.87826,-2.77807 1.75418,0 2.25751,-2.4732 1.28885,-6.33272 -0.87417,-3.48301 -0.52205,-6.99241 0.78253,-7.79868 3.88107,-2.39864 10.6282,1.37784 10.66567,5.96979 0.0426,5.22614 7.78915,15.49521 23.73235,31.46064 13.56546,13.58441 22.95003,27.67423 22.96457,34.4786 0.013,6.3063 -9.5175,5.85057 -13.57665,-0.64919 -1.78387,-2.85642 -5.31781,-5.1935 -7.85317,-5.1935 -7.91356,0 -25.30192,6.3236 -25.30192,9.20153 0,4.87978 6.0566,8.97571 13.27226,8.97571 4.68144,0 9.3042,2.6908 13.7982,8.03161 6.54557,7.77897 6.70958,8.82039 5.21474,33.10852 -1.78781,29.04839 -4.24116,37.21506 -12.23341,40.72227 -3.17333,1.39254 -5.81811,4.28469 -5.87729,6.42701 -0.0592,2.14231 -1.67241,7.03178 -3.58497,10.86546 -3.58164,7.17939 -3.13131,12.30804 5.2022,59.24669 3.46489,19.5162 0.15294,34.2542 -6.4637,28.763 -3.91763,-3.2514 -6.38545,-12.7837 -8.45488,-32.6581 -0.74355,-7.14105 -2.41274,-14.09384 -3.70929,-15.45064 -1.29653,-1.3568 -2.35736,-8.07589 -2.35736,-14.9313 0,-13.35907 -0.89562,-14.53646 -6.66728,-8.76483 -7.05404,7.05404 -9.11035,18.07705 -8.61736,46.19387 0.51211,29.2059 -1.70842,36.992 -8.28858,29.0634 z m 37.73316,-123.51836 c 4.63498,-2.11183 6.73058,-5.21983 7.00355,-10.38699 0.21423,-4.05537 0.50637,-8.83408 0.64919,-10.61935 0.18826,-2.35302 -5.57498,-3.24593 -20.95025,-3.24593 l -21.20992,0 -0.87754,10.99086 c -0.48263,6.04497 -0.48123,12.17978 0.003,13.63292 1.20534,3.61597 27.22996,3.34272 35.3818,-0.37151 z m 11.60138,-40.16275 c 0.60073,-0.54386 -1.64792,-3.90559 -4.99695,-7.47048 -4.69972,-5.00263 -8.69126,-6.48164 -17.49262,-6.48164 -18.57152,0 -28.12044,8.72692 -16.90467,15.44945 4.06199,2.43472 36.4092,1.20521 39.39424,-1.49733 z m -34.26419,-53.2294 c 1.79454,-1.79454 8.94476,-2.48727 18.52247,-1.79446 14.89996,1.07776 15.47605,0.89746 12.84453,-4.01953 -1.51528,-2.83136 -5.46244,-7.85529 -8.77148,-11.16432 -3.30901,-3.30901 -7.03014,-7.82785 -8.26916,-10.04186 -3.015,-5.38755 -9.43948,-2.58584 -13.89784,6.06081 -1.98604,3.85183 -5.91017,8.91432 -8.72029,11.24999 -4.35205,3.61732 -4.59357,4.86807 -1.62959,8.43943 4.11558,4.95898 5.99212,5.19918 9.92136,1.26994 z"
       id="path3301"
       inkscape:connector-curvature="0" />
  </g>
</svg>
