<?xml version="1.0" encoding="UTF-8" standalone="no"?>
<!-- Created with Inkscape (http://www.inkscape.org/) -->

<svg
   xmlns:dc="http://purl.org/dc/elements/1.1/"
   xmlns:cc="http://creativecommons.org/ns#"
   xmlns:rdf="http://www.w3.org/1999/02/22-rdf-syntax-ns#"
   xmlns:svg="http://www.w3.org/2000/svg"
   xmlns="http://www.w3.org/2000/svg"
   xmlns:sodipodi="http://sodipodi.sourceforge.net/DTD/sodipodi-0.dtd"
   xmlns:inkscape="http://www.inkscape.org/namespaces/inkscape"
   width="300"
   height="300"
   id="svg2"
   version="1.1"
   inkscape:version="0.48.4 r9939"
   sodipodi:docname="image-seal.svg">
  <defs
     id="defs4" />
  <sodipodi:namedview
     id="base"
     pagecolor="#ffffff"
     bordercolor="#666666"
     borderopacity="1.0"
     inkscape:pageopacity="0.0"
     inkscape:pageshadow="2"
     inkscape:zoom="2.0018437"
     inkscape:cx="145.03351"
     inkscape:cy="130.6666"
     inkscape:document-units="px"
     inkscape:current-layer="layer1"
     showgrid="false"
     inkscape:window-width="1215"
     inkscape:window-height="1000"
     inkscape:window-x="65"
     inkscape:window-y="24"
     inkscape:window-maximized="1"
     fit-margin-top="10"
     fit-margin-left="10"
     fit-margin-right="10"
     fit-margin-bottom="10" />
  <metadata
     id="metadata7">
    <rdf:RDF>
      <cc:Work
         rdf:about="">
        <dc:format>image/svg+xml</dc:format>
        <dc:type
           rdf:resource="http://purl.org/dc/dcmitype/StillImage" />
        <dc:title />
      </cc:Work>
    </rdf:RDF>
  </metadata>
  <g
     inkscape:label="Calque 1"
     inkscape:groupmode="layer"
     id="layer1"
     transform="translate(0,-752.36218)">
    <path
       style="fill:#000000"
       d="m 124.074,1043.7099 c -2.17084,-2.1708 -5.97077,-7.373 -8.44433,-11.5604 -2.47357,-4.1875 -5.40418,-7.6135 -6.51246,-7.6135 -1.10831,0 -2.01508,-5.7537 -2.01508,-12.7858 0,-15.44906 5.25088,-20.02364 26.25492,-22.87392 27.04155,-3.66978 27.40113,-10.582 0.55046,-10.582 -22.71064,0 -28.51522,-2.45422 -33.38816,-14.11682 -2.837874,-6.79202 -2.961624,-10.33923 -0.597702,-17.13382 3.773882,-10.84725 7.273522,-14.32221 16.503812,-16.38738 13.88101,-3.10577 16.36644,-4.09038 16.36644,-6.48364 0,-1.31771 -5.7802,-2.39585 -12.84488,-2.39585 -10.14418,0 -12.84489,-0.87775 -12.84489,-4.17459 0,-5.41672 -9.332204,-3.67554 -29.332444,5.47277 -14.41154,6.59197 -23.173391,7.59613 -22.755367,2.60787 0.115989,-1.38401 9.860107,-6.41345 21.653637,-11.17654 36.376314,-14.69147 46.689844,-19.40897 59.335174,-27.14038 l 12.20264,-7.46078 0,-21.32585 c 0,-26.30225 3.87207,-45.32661 10.43408,-51.26519 6.85373,-6.20254 6.23944,-8.83368 -2.0849,-8.92994 -3.88558,-0.045 -9.30597,-1.77699 -12.04532,-3.84903 -4.85144,-3.66957 -4.7848,-3.98147 2.56898,-12.02492 16.49466,-18.04162 22.68633,-22.42134 29.38592,-20.78632 3.53234,0.86205 7.00046,2.29073 7.70693,3.17487 0.70647,0.88412 8.05994,4.46324 16.34101,7.95364 8.2811,3.49036 15.20098,7.50216 15.37749,8.91509 0.17649,1.41294 -4.09914,5.42931 -9.50146,8.92528 l -9.82244,6.35631 6.64759,5.3006 c 3.65617,2.91533 6.64759,6.70223 6.64759,8.41531 0,4.86245 -9.90778,3.65783 -15.91035,-1.93439 -6.44641,-6.00576 -9.77943,-4.67102 -9.77943,3.91625 0,5.88011 0.87091,6.27082 13.97776,6.27082 14.00928,0 20.60053,3.75377 13.96786,7.95482 -1.94718,1.23334 -9.15522,2.26013 -16.01783,2.28176 -10.31347,0.0326 -12.20706,0.74411 -10.91815,4.10292 0.85762,2.23496 1.55934,4.54704 1.55934,5.13795 0,0.59089 5.63865,1.07438 12.53032,1.07438 8.00406,0 13.68556,1.39197 15.72844,3.85346 1.75895,2.11941 2.18951,3.9597 0.95679,4.08953 -5.37361,0.566 -15.72716,1.36973 -23.60601,1.83251 -7.68227,0.45121 -8.43989,1.19488 -7.70693,7.5651 0.79674,6.92442 1.11889,7.05048 16.22677,6.34948 8.47762,-0.39336 17.14792,0.47367 19.26733,1.92673 6.5288,4.47617 -0.55808,6.53502 -25.18739,7.31735 -27.55401,0.87525 -37.74108,3.25372 -37.78535,8.8221 -0.018,2.26749 -0.87502,4.96496 -1.90443,5.99438 -2.3473,2.3473 2.77485,8.76687 6.99502,8.76687 1.72933,0 6.50095,1.66321 10.60361,3.69599 8.89555,4.40759 18.85095,8.52952 34.21187,14.16503 13.10449,4.80769 19.05218,11.78357 13.17256,15.44968 -2.60997,1.62737 -10.01844,-0.83887 -24.40529,-8.12439 -23.02341,-11.6591 -26.49294,-13.16059 -41.20953,-17.834 -5.65176,-1.79477 -11.25146,-4.06055 -12.44375,-5.03507 -2.42694,-1.98363 -27.22014,8.15509 -27.31489,11.16989 -0.0334,1.0597 11.49988,1.92673 25.62926,1.92673 24.8444,0 33.96618,3.22656 18.62509,6.58807 -18.79133,4.11751 -17.11623,7.21901 6.08069,11.2586 9.36339,1.63055 18.57769,4.51801 20.47627,6.41656 5.83741,5.83741 3.96052,27.01786 -3.01202,33.99043 -3.28395,3.28392 -7.75742,5.97079 -9.94105,5.97079 -2.18363,0 -4.05868,0.86703 -4.16678,1.92673 -0.8232,8.06929 -2.68895,12.50309 -6.40474,15.22004 -2.37549,1.73689 -3.67924,4.82557 -2.89727,6.86328 1.98096,5.16235 15.99101,15.43595 31.97712,23.44865 9.33867,4.6809 13.48713,8.2991 13.48713,11.7631 0,12.1872 -21.78038,1.8923 -44.35671,-20.9662 -13.7232,-13.8946 -15.8714,-15.13467 -26.21583,-15.13467 -11.14646,0 -19.34168,4.72307 -19.34168,11.14727 0,3.2346 11.41746,21.079 17.28637,27.0172 2.63166,2.6628 2.74251,4.3272 0.47058,7.0647 -3.68614,4.4415 -3.68478,4.4415 -8.49201,-0.3655 z m 44.04135,-78.8664 c 16.57784,-8.12026 -2.46768,-13.82601 -32.75447,-9.81275 -10.59703,1.40417 -21.46959,2.58875 -24.16121,2.63238 -4.68363,0.0758 -4.69974,0.29384 -0.3752,5.07242 2.48528,2.74618 7.57764,5.45327 11.31632,6.01572 10.85378,1.63284 39.66217,-0.81583 45.97456,-3.90777 z m -6.74357,-17.37696 c 9.19163,0 12.52377,-0.98494 12.52377,-3.70184 0,-5.84412 -2.97012,-6.51477 -30.52508,-6.89275 -24.70758,-0.3389 -33.69937,1.84889 -33.69937,8.19941 0,2.45232 20.97149,4.63055 31.7911,3.30206 4.0622,-0.49877 13.02151,-0.90688 19.90958,-0.90688 z m 12.52377,-89.91422 c 0,-5.70883 -1.19887,-7.70693 -4.62416,-7.70693 -2.54329,0 -6.01141,1.38724 -7.70693,3.08277 -1.69553,1.69553 -3.08278,5.16365 -3.08278,7.70693 0,3.4253 1.99808,4.62416 7.70694,4.62416 6.85059,0 7.70693,-0.85631 7.70693,-7.70693 z m 0,-21.83631 c 0,-7.03034 -6.79903,-8.87173 -12.33109,-3.33967 -5.48331,5.4833 -3.45651,9.76211 4.62416,9.76211 6.50806,0 7.70693,-0.99905 7.70693,-6.42244 z m 0,-19.26733 c 0,-6.08465 -1.6276,-6.44634 -6.60595,-1.468 -4.97837,4.97837 -4.61668,6.60595 1.46799,6.60595 3.4253,0 5.13796,-1.71266 5.13796,-5.13795 z m -0.89914,-30.82774 c 1.81593,-9.07964 3.61126,-9.61229 8.11137,-2.40646 1.95386,3.12865 5.40664,4.97074 8.42665,4.49571 6.84068,-1.07597 6.90405,-5.34697 0.12588,-8.47863 -3.01883,-1.39475 -5.48877,-3.41782 -5.48877,-4.49571 0,-1.07789 -3.84463,-1.9598 -8.54363,-1.9598 -5.86274,0 -10.49787,2.08023 -14.77162,6.62948 -6.10124,6.49456 -6.1265,6.70372 -1.24128,10.27591 7.66573,5.60541 11.69268,4.38345 13.38147,-4.0605 z m -96.621964,91.9988 c -2.8809,-3.09231 -5.23801,-6.64299 -5.23801,-7.89044 0,-5.95389 14.4506,-14.74596 24.2364,-14.74596 3.625212,0 6.591334,-1.08781 6.591334,-2.41735 0,-3.94249 -5.931464,-6.43594 -13.437064,-5.64865 -3.85974,0.40487 -9.3684,-0.0103 -12.24149,-0.92185 -9.71452,-3.08326 -2.37042,-6.42601 14.11815,-6.42601 16.976584,0 25.763534,-3.69348 9.661774,-4.06117 -11.083704,-0.25305 -16.895934,-6.9467 -14.702754,-16.93224 0.84127,-3.83019 0.16647,-9.51074 -1.49928,-12.62342 -2.34774,-4.38678 -2.29463,-7.88398 0.23609,-15.55233 3.01927,-9.14841 2.83808,-10.26314 -2.40759,-14.8127 -6.71739,-5.82596 -2.95525,-9.66396 4.75374,-4.84962 5.71646,3.56998 6.53226,7.67272 2.88198,14.49333 -3.87184,7.2346 2.4533,23.51041 9.136672,23.51041 5.695402,0 10.153222,-6.46704 6.159302,-8.93542 -3.04929,-1.88457 -2.88945,-42.44414 0.16725,-42.44414 1.33168,0 3.77709,2.97575 5.43423,6.61279 2.31434,5.07943 2.30157,7.75196 -0.055,11.52556 -4.44166,7.11224 -3.76441,15.3693 2.04174,24.89203 3.93113,6.44755 6.85455,8.34918 12.83528,8.34918 7.98981,0 8.81756,1.53944 8.18191,15.21655 -0.33458,7.19896 -4.22021,10.30419 -13.2821,10.61445 -5.89616,0.20192 -6.00141,0.40083 -1.28449,2.42776 2.82588,1.21433 8.31707,2.28911 12.20265,2.38843 6.46619,0.16518 7.06469,1.02779 7.06469,10.1816 0,12.30564 -1.77465,13.10783 -29.11112,13.15908 -23.173594,0.0434 -28.486734,1.86312 -25.809654,8.83946 1.84753,4.81465 7.268,4.79387 42.718124,-0.16364 11.05883,-1.54655 12.20265,-1.22489 12.20265,3.43146 0,4.16493 -2.25721,5.44734 -11.91896,6.77162 -6.55544,0.89853 -19.22684,1.63369 -28.158694,1.63369 -13.39789,0 -17.15635,-0.98387 -21.47776,-5.62236 z m 51.279504,-27.77435 c 0,-3.9962 -1.71266,-5.13796 -7.70693,-5.13796 -5.9943,0 -7.70694,1.14176 -7.70694,5.13796 0,3.9962 1.71264,5.13795 7.70694,5.13795 5.99427,0 7.70693,-1.14175 7.70693,-5.13795 z m -10.52811,-23.41783 c 10.97203,-3.82487 9.79158,-10.96049 -2.00021,-12.0911 -9.2049,-0.8826 -23.437374,3.75965 -23.437374,7.64464 0,2.34095 9.059734,6.8428 14.388254,7.14962 1.55534,0.0897 6.52754,-1.12686 11.04933,-2.70316 z m 5.58254,-28.74018 c -1.37823,-3.62498 -1.0875,-11.7167 0.75063,-20.89268 2.6573,-13.26507 3.4057,-14.48749 6.55018,-10.69863 2.93593,3.53758 2.98931,5.97683 0.30861,14.09945 -2.36798,7.175 -2.49574,11.21531 -0.47408,14.99278 2.72122,5.08465 1.65989,8.41549 -2.68152,8.41549 -1.21243,0 -3.21665,-2.66239 -4.45382,-5.91641 z"
       id="path3158"
       inkscape:connector-curvature="0" />
  </g>
</svg>
