<?xml version="1.0" encoding="UTF-8" standalone="no"?>
<!-- Created with Inkscape (http://www.inkscape.org/) -->

<svg
   xmlns:dc="http://purl.org/dc/elements/1.1/"
   xmlns:cc="http://creativecommons.org/ns#"
   xmlns:rdf="http://www.w3.org/1999/02/22-rdf-syntax-ns#"
   xmlns:svg="http://www.w3.org/2000/svg"
   xmlns="http://www.w3.org/2000/svg"
   xmlns:sodipodi="http://sodipodi.sourceforge.net/DTD/sodipodi-0.dtd"
   xmlns:inkscape="http://www.inkscape.org/namespaces/inkscape"
   width="300"
   height="300"
   id="svg2"
   version="1.1"
   inkscape:version="0.48.4 r9939"
   sodipodi:docname="dessin.svg">
  <defs
     id="defs4" />
  <sodipodi:namedview
     id="base"
     pagecolor="#ffffff"
     bordercolor="#666666"
     borderopacity="1.0"
     inkscape:pageopacity="0.0"
     inkscape:pageshadow="2"
     inkscape:zoom="1.979899"
     inkscape:cx="73.020464"
     inkscape:cy="149.14493"
     inkscape:document-units="px"
     inkscape:current-layer="layer1"
     showgrid="false"
     inkscape:window-width="1215"
     inkscape:window-height="1000"
     inkscape:window-x="65"
     inkscape:window-y="24"
     inkscape:window-maximized="1" />
  <metadata
     id="metadata7">
    <rdf:RDF>
      <cc:Work
         rdf:about="">
        <dc:format>image/svg+xml</dc:format>
        <dc:type
           rdf:resource="http://purl.org/dc/dcmitype/StillImage" />
        <dc:title />
      </cc:Work>
    </rdf:RDF>
  </metadata>
  <g
     inkscape:label="Calque 1"
     inkscape:groupmode="layer"
     id="layer1"
     transform="translate(0,-752.36218)">
    <path
       style="fill:#000000"
       d="m 168.84464,1004.3434 0.39596,-29.7573 -7.93155,-6.88596 c -4.36235,-3.78731 -9.33738,-9.32912 -11.05559,-12.31518 -4.12833,-7.17459 -5.2894,-62.55583 -1.36125,-64.93241 9.92953,-6.00751 9.3217,-28.73911 -0.87998,-32.90974 -7.61571,-3.11343 -8.38484,-5.60833 -6.62033,-21.47464 1.87318,-16.84313 5.42532,-17.38833 6.45801,-0.99123 1.14513,18.18225 7.2439,18.50755 7.29515,0.38908 0.045,-15.90501 3.4239,-23.64925 7.6882,-17.62081 1.40221,1.98234 2.56734,9.48764 2.58916,16.67842 0.0365,12.01506 0.34757,12.69632 3.84104,8.40994 2.09075,-2.56532 3.83843,-8.26848 3.88374,-12.67368 0.12117,-11.79011 6.06801,-8.35331 8.92572,5.15839 2.749,12.99772 -0.82754,23.03647 -8.90575,24.99696 -3.28991,0.79841 -5.11595,3.28563 -5.11595,6.96843 0,4.73572 1.31783,5.72685 7.61467,5.72685 4.18807,0 8.41169,-1.19679 9.38578,-2.65952 0.97413,-1.4627 2.34327,-13.71682 3.04255,-27.23138 l 1.27141,-24.57189 -13.81933,-4.6102 c -9.12097,-3.04281 -14.93198,-6.65119 -17.09194,-10.61335 -4.05415,-7.43676 -4.36087,-25.56323 -0.47031,-27.79469 4.15878,-2.3853 7.39264,3.61895 7.43837,13.81072 0.0479,10.68084 6.01972,16.91409 15.25282,15.92054 5.93052,-0.63816 6.88245,-1.95356 7.4848,-10.34251 1.07665,-14.99461 2.97121,-20.42414 7.12669,-20.42414 2.96039,0 3.83442,3.28623 3.83442,14.41704 l 0,14.41703 10.27829,0 c 10.03241,0 10.36408,-0.27303 13.86437,-11.41348 3.82447,-12.17221 10.21415,-15.32669 11.67288,-5.76271 2.07022,13.57306 -7.77835,26.72173 -20.1215,26.86396 -8.19374,0.0945 -15.69404,5.11526 -15.69404,10.50589 0,2.51983 1.70868,3.77913 4.53103,3.33937 3.63727,-0.56679 4.68964,1.33818 5.33517,9.65773 1.06818,13.76663 6.06658,11.81339 6.6849,-2.61229 0.42833,-9.99351 4.73913,-18.90021 7.74446,-16.00123 0.5937,0.57266 1.68596,6.81248 2.42722,13.86626 0.74127,7.05374 1.8658,13.30577 2.49895,13.89336 1.05635,0.98033 3.86564,-4.83557 8.2633,-17.10704 1.63602,-4.56515 1.89256,-4.59101 5.12546,-0.51662 2.53057,3.18927 2.78034,6.86189 0.97406,14.32245 -2.76341,11.414 -5.68027,15.41802 -12.74842,17.49994 -7.23409,2.1308 -7.20893,20.35528 0.028,20.35528 3.49428,0 5.51642,2.29771 6.80175,7.72873 2.18505,9.23247 3.00444,30.71867 1.17147,30.71751 -0.71202,-4.6e-4 -1.42537,6.79314 -1.58521,15.09688 -0.34278,17.8082 -6.096,29.84153 -15.29144,31.98335 -6.42193,1.49582 -6.4258,1.51513 -6.4258,32.17892 0,24.55797 -0.7877,31.28887 -3.94632,33.72167 -2.17047,1.6717 -4.61714,2.4169 -5.43708,1.656 -0.81993,-0.7609 -1.81901,-11.9981 -2.22021,-24.9716 -0.40119,-12.97336 -0.86731,-26.56146 -1.03582,-30.19576 -0.27139,-5.85337 -1.30869,-6.6078 -9.08516,-6.6078 -8.09995,0 -8.91727,0.69676 -10.56942,9.01063 -0.98483,4.95587 -2.37524,17.65946 -3.08979,28.23023 -1.21144,17.9215 -3.74691,25.233 -8.75023,25.233 -1.14036,0 -1.89521,-13.3908 -1.67743,-29.7574 z m 47.58945,-46.48397 c 6.26682,-3.76977 10.49353,-16.65347 6.63741,-20.2321 -1.35578,-1.25822 -4.67774,-2.34471 -7.38211,-2.41442 -10.37513,-0.26744 -56.31802,2.82004 -57.43864,3.85999 -0.64794,0.60133 -0.42366,3.88282 0.4984,7.29219 1.91147,7.06783 9.32544,13.73525 17.77452,15.98469 8.45691,2.25152 33.3607,-0.55042 39.91039,-4.49035 z m 8.57866,-39.00248 0,-9.32533 -33.65908,-0.22034 c -35.89013,-0.23499 -35.61927,-0.33026 -33.70707,11.85609 0.89724,5.71822 3.23916,6.14478 36.19,6.59194 l 31.17615,0.42305 0,-9.32534 z m -20.38964,-19.3152 c 18.22029,0 20.38964,-0.47999 20.38964,-4.51147 0,-8.55764 -7.27333,-11.11528 -31.17838,-10.96372 -16.77875,0.10646 -24.34199,1.20353 -29.36909,4.26037 -12.66157,7.69917 -5.77703,14.4984 12.32435,12.17165 4.09412,-0.52627 16.61918,-0.95683 27.83348,-0.95683 z m 5.93749,-25.4869 c 2.62109,-0.93342 4.0955,-4.39361 4.0955,-9.61135 0,-7.03797 -0.86272,-8.15286 -6.30884,-8.15286 -5.17737,0 -6.49615,-1.40057 -7.35311,-7.80923 -0.57436,-4.29507 -1.23073,-0.69082 -1.45864,8.00946 -0.49379,18.85148 0.95017,21.15188 11.02509,17.56398 z m -89.13755,144.42745 c -7.34947,-17.6638 -10.01003,-27.61899 -11.88023,-44.45253 -1.10117,-9.91171 -1.79046,-18.82031 -1.53175,-19.79689 0.60465,-2.28239 -7.45404,-21.05138 -9.038684,-21.05138 -8.1833,0 -14.860047,27.67079 -11.10755,46.03367 3.596733,17.60071 3.107199,28.24483 -1.495473,32.51633 -2.203868,2.0452 -4.434586,3.3196 -4.957155,2.8319 -2.102684,-1.9625 -5.297397,-50.23079 -3.590235,-54.24397 1.008608,-2.37102 1.91572,-8.99022 2.015791,-14.70932 0.155868,-8.91172 1.642745,-11.65999 10.399261,-19.2227 12.082685,-10.43545 14.868025,-20.43267 6.018012,-21.59996 -3.174933,-0.41874 -8.126703,-3.82949 -11.003933,-7.57944 -4.418429,-5.75857 -5.231348,-10.58763 -5.231348,-31.07623 0,-14.57021 1.034033,-24.25818 2.589161,-24.25818 1.424039,0 2.589161,-1.54906 2.589161,-3.44232 0,-1.89331 2.204929,-4.0918 4.899857,-4.88561 5.43602,-1.60115 12.053885,-14.02893 9.506983,-17.85334 -0.894787,-1.34361 -3.187023,-1.88732 -5.093862,-1.20826 -1.90684,0.67906 -5.345297,-0.50849 -7.641028,-2.63901 -3.839311,-3.56301 -4.632008,-3.47775 -9.88412,1.06322 -6.002788,5.18999 -12.501115,6.5495 -12.501115,2.61531 0,-2.10078 10.525274,-13.7684 24.847527,-27.54433 2.985872,-2.87197 7.489069,-8.13978 10.007132,-11.70629 6.088358,-8.62334 9.473478,-8.19214 19.853268,2.52884 4.79958,4.95737 13.67827,12.13273 19.73044,15.94524 11.34365,7.14587 13.92016,12.5991 7.1002,15.02784 -4.77132,1.69917 -15.28145,-4.27864 -26.51324,-15.07986 -7.52099,-7.23264 -18.77198,-10.99767 -18.78024,-6.28461 -0.002,0.99118 -2.914537,4.94382 -6.472898,8.78368 -3.558362,3.83986 -6.469743,7.22949 -6.469743,7.53254 0,0.30304 7.498157,-0.008 16.662571,-0.69029 9.16444,-0.68269 18.46576,-0.5991 20.66965,0.18575 6.01607,2.14247 2.06204,8.43066 -5.83412,9.27815 -5.67289,0.60888 -7.04428,2.11584 -7.70579,8.46749 -0.70026,6.72386 0.13671,7.94602 6.44727,9.41593 13.4081,3.12304 15.75549,8.50901 16.86026,38.68509 0.62931,17.18979 0.52759,17.48577 -9.18006,26.71188 l -9.81641,9.32951 0.15458,24.52679 c 0.0849,13.48973 0.82397,25.53183 1.64202,26.76024 0.81806,1.22837 2.44602,9.52802 3.6177,18.44366 1.17167,8.91562 3.84444,21.89429 5.93943,28.84146 3.11461,10.3282 3.20458,13.3949 0.49352,16.8199 -3.02701,3.824 -3.57667,3.5612 -6.31488,-3.0199 z m -5.73117,-127.48673 c 4.51287,-2.93346 5.75445,-6.09956 5.75445,-14.67412 0,-9.54001 -0.57751,-10.68973 -4.53103,-9.02011 -2.49207,1.05242 -10.33472,1.97907 -17.428085,2.05921 -14.958073,0.16892 -16.820689,3.08714 -10.678423,16.72977 3.363448,7.4706 5.063932,8.64575 12.510618,8.64575 4.73992,0 11.20754,-1.68324 14.37247,-3.7405 z m 6.13213,-39.7292 c -1.16924,-13.50952 -1.70373,-14.19845 -11.01572,-14.19845 -10.66472,0 -22.056433,5.92862 -23.889198,12.4327 -1.993627,7.07504 2.436375,9.64524 14.359948,8.33129 6.34945,-0.69967 10.65235,0.10881 12.68712,2.38427 5.41907,6.05968 8.82148,2.18445 7.85785,-8.94981 z"
       id="path3223"
       inkscape:connector-curvature="0" />
  </g>
</svg>
