<?xml version="1.0" encoding="UTF-8" standalone="no"?>
<svg
   xmlns:dc="http://purl.org/dc/elements/1.1/"
   xmlns:cc="http://creativecommons.org/ns#"
   xmlns:rdf="http://www.w3.org/1999/02/22-rdf-syntax-ns#"
   xmlns:svg="http://www.w3.org/2000/svg"
   xmlns="http://www.w3.org/2000/svg"
   viewBox="0 0 300 300"
   height="300"
   width="300"
   id="svg118"
   version="1.1">
  <metadata
     id="metadata124">
    <rdf:RDF>
      <cc:Work
         rdf:about="">
        <dc:format>image/svg+xml</dc:format>
        <dc:type
           rdf:resource="http://purl.org/dc/dcmitype/StillImage" />
        <dc:title></dc:title>
      </cc:Work>
    </rdf:RDF>
  </metadata>
  <defs
     id="defs122" />
  <path
     id="path128"
     d="m 160.095,282.48783 c -1.27991,-4.27197 -1.0397,-5.91194 2.33996,-15.97497 3.01259,-8.97007 14.95493,-59.83143 16.97719,-72.30431 1.11306,-6.86513 1.24014,-28.31272 0.17407,-29.37878 -1.40097,-1.40097 -19.35739,14.06243 -28.89875,24.88652 -15.14449,17.1805 -20.73589,26.15274 -32.51758,52.17931 l -9.07278,20.04238 -3.87651,0.20542 c -3.84545,0.20377 -3.88034,0.18796 -4.35483,-1.97232 -0.68019,-3.09693 0.18917,-9.1396 2.18186,-15.16546 3.48938,-10.55177 19.80424,-38.59266 27.42632,-47.13848 2.72593,-3.05632 8.01006,-9.17284 11.74251,-13.59228 9.39733,-11.12699 12.43664,-14.13904 24.31399,-24.09583 5.70171,-4.77976 10.91887,-9.20255 11.59367,-9.82842 1.17337,-1.08831 1.15076,-1.49034 -0.51834,-9.21019 -0.95989,-4.43971 -1.74526,-8.23299 -1.74526,-8.42951 0,-1.93808 -9.15715,2.39274 -23.83493,11.27262 -10.04566,6.07751 -12.61942,8.08496 -28.33579,22.1012 -10.78129,9.61502 -18.51084,17.07907 -20.53995,19.83444 -3.75816,5.10326 -5.67773,6.54692 -9.36226,7.04111 -2.35427,0.31579 -2.73954,0.15236 -3.48191,-1.47698 -0.45911,-1.00762 -0.83183,-2.51717 -0.82826,-3.35454 0.0116,-2.72301 3.81924,-8.26171 11.83177,-17.21085 6.75988,-7.55005 10.32251,-10.69765 25.48205,-22.51337 15.91073,-12.40124 18.81526,-14.36921 29.88649,-20.24972 6.74465,-3.58244 12.26495,-6.84805 12.26732,-7.25694 0.007,-1.17464 -2.80203,-3.44611 -6.56131,-5.30603 -4.63317,-2.2923 -7.43676,-3.14414 -12.78566,-3.88475 l -4.49224,-0.62199 -8.29341,8.0761 c -6.91189,6.7308 -9.32952,8.60781 -14.51345,11.26806 -10.60567,5.44255 -27.35586,9.48692 -44.04031,10.63366 l -6.72,0.46188 -0.70397,-1.85161 c -1.84917,-4.86366 -1.86191,-4.83545 3.21476,-7.12127 8.4496,-3.80451 15.32391,-5.84062 24.06044,-7.12646 11.24963,-1.65573 19.97579,-5.51941 29.5777,-13.09611 3.82724,-3.02 3.88245,-3.11218 2.37489,-3.96441 -0.84891,-0.47989 -5.11999,-2.0037 -9.4913,-3.38625 -14.13877,-4.47178 -18.23242,-7.328909 -22.0202,-15.368849 -2.99104,-6.348799 -3.80224,-12.392732 -3.35351,-24.985664 0.42423,-11.905259 1.66874,-20.126126 4.42843,-29.253093 1.57884,-5.221594 2.24985,-6.448064 4.65658,-8.511396 9.88936,-8.478307 21.39196,-11.066989 52.22677,-11.753731 19.47697,-0.433785 45.2466,0.524991 47.57277,1.769976 1.42139,0.760744 3.56985,4.464482 3.56985,6.154086 0,0.839929 -4.49036,2.723565 -8.59216,3.604273 -2.23518,0.479923 -9.04868,0.566521 -19.79012,0.251527 -18.97311,-0.556388 -16.85948,-1.581769 -17.60092,8.538681 l -0.46834,6.392829 3.70173,0.148399 c 2.03595,0.08162 9.29977,0.159372 16.14182,0.17278 14.36627,0.02815 16.95965,0.685709 18.6488,4.728427 1.4755,3.531356 0.73089,5.089409 -2.99825,6.273649 -5.84628,1.856567 -7.80412,1.967929 -19.03074,1.082472 -7.29668,-0.575497 -12.07184,-0.655724 -13.8569,-0.232807 l -2.72365,0.645286 -1.23084,5.512658 c -0.67695,3.031962 -1.09384,5.901412 -0.9264,6.376554 0.23263,0.660167 4.40598,0.863897 17.69664,0.863897 18.67792,0 21.5594,0.394181 24.51943,3.354215 1.33039,1.330393 1.69152,2.320367 1.53338,4.203601 -0.17223,2.051142 -0.62144,2.666164 -2.68432,3.675178 -4.66429,2.281446 -9.65726,2.730043 -21.6372,1.944015 -7.58997,-0.49799 -12.97212,-0.513525 -16.64349,-0.04804 -2.98434,0.378378 -5.54761,0.809503 -5.69616,0.958059 -0.43703,0.437021 -5.8659,18.492279 -5.61149,18.662628 0.12763,0.0854 3.93244,1.35345 8.45512,2.81776 4.52268,1.46431 9.65423,3.41608 11.40343,4.33727 7.03036,3.70242 11.1793,9.46565 15.19209,21.10319 1.50832,4.37429 3.39514,9.23273 4.19293,10.79653 l 1.45052,2.84327 3.61251,-2.87729 c 1.98688,-1.58251 6.44752,-4.22763 9.91252,-5.87803 5.45105,-2.59637 6.91183,-3.00074 10.8401,-3.00074 2.49704,0 5.27771,0.28044 6.17925,0.62321 2.177,0.82769 5.61076,8.38387 7.0973,15.61803 2.24561,10.92807 2.03031,48.3685 -0.40139,69.80277 -1.39642,12.30865 -3.83952,22.60231 -7.66687,32.30328 -2.03205,5.15051 -2.21724,5.37725 -4.9728,6.08842 -1.57419,0.40627 -3.3812,0.88862 -4.01559,1.07189 -0.91217,0.26351 -1.32628,-0.43908 -1.97968,-3.35875 -0.76314,-3.41006 -0.66322,-4.26982 1.30861,-11.25944 2.19851,-7.79321 5.30898,-25.38396 7.38731,-41.77776 0.89615,-7.06883 1.08271,-12.01005 0.76978,-20.38794 -0.47422,-12.69565 -1.53928,-28.6209 -2.21592,-33.13299 -0.87376,-5.82661 -0.8341,-5.83056 -13.0601,1.29961 -6.05923,3.53373 -11.24665,7.01032 -11.52762,7.72574 -0.28097,0.71545 -0.53204,5.81034 -0.55794,11.32199 -0.0386,8.2141 -0.6769,14.38313 -3.5397,34.21027 -3.93993,27.28711 -5.7824,37.14598 -9.17213,49.07939 -1.2941,4.55581 -3.33758,12.48182 -4.54105,17.61336 -3.0224,12.88729 -5.48531,16.78479 -11.19179,17.71083 -2.36104,0.38314 -2.47362,0.30235 -3.26659,-2.34435 z M 141.62676,89.792841 c 2.24853,-7.283191 2.52469,-8.797359 1.69967,-9.319494 -1.22942,-0.778075 -35.19534,-0.854234 -35.19534,-0.07891 0,2.440229 2.39052,7.755726 4.30055,9.562594 3.05857,2.89338 18.10434,7.89014 25.44559,8.45058 0.77973,0.0595 1.78359,-2.24691 3.74953,-8.61477 z m -9.1338,-22.861503 15.03178,-0.453924 V 60.367426 54.257438 H 127.1368 106.74886 v 6.565607 6.565609 l 5.35616,-0.0017 c 2.94587,-8.98e-4 12.12045,-0.205961 20.38794,-0.45562 z m 17.79625,-31.978593 c 0,-7.809672 0.47535,-7.261763 -6.91118,-7.966088 -5.41339,-0.516181 -19.24113,1.668469 -24.0922,3.806335 -5.48513,2.4173 -8.30935,4.747926 -9.06945,7.484379 -0.38244,1.376811 -0.69708,2.736545 -0.6992,3.021631 -0.002,0.285085 9.17072,0.518337 20.38409,0.518337 h 20.38794 z"
     style="fill:#000000;stroke-width:0.69111663" />
</svg>
