<?xml version="1.0" encoding="UTF-8" standalone="no"?>
<!-- Created with Inkscape (http://www.inkscape.org/) -->

<svg
   xmlns:dc="http://purl.org/dc/elements/1.1/"
   xmlns:cc="http://creativecommons.org/ns#"
   xmlns:rdf="http://www.w3.org/1999/02/22-rdf-syntax-ns#"
   xmlns:svg="http://www.w3.org/2000/svg"
   xmlns="http://www.w3.org/2000/svg"
   xmlns:sodipodi="http://sodipodi.sourceforge.net/DTD/sodipodi-0.dtd"
   xmlns:inkscape="http://www.inkscape.org/namespaces/inkscape"
   width="300"
   height="300"
   id="svg2"
   version="1.1"
   inkscape:version="0.48.4 r9939"
   sodipodi:docname="image-seal.svg">
  <defs
     id="defs4" />
  <sodipodi:namedview
     id="base"
     pagecolor="#ffffff"
     bordercolor="#666666"
     borderopacity="1.0"
     inkscape:pageopacity="0.0"
     inkscape:pageshadow="2"
     inkscape:zoom="2.0018437"
     inkscape:cx="145.03351"
     inkscape:cy="130.6666"
     inkscape:document-units="px"
     inkscape:current-layer="layer1"
     showgrid="false"
     inkscape:window-width="1215"
     inkscape:window-height="1000"
     inkscape:window-x="65"
     inkscape:window-y="24"
     inkscape:window-maximized="1"
     fit-margin-top="10"
     fit-margin-left="10"
     fit-margin-right="10"
     fit-margin-bottom="10" />
  <metadata
     id="metadata7">
    <rdf:RDF>
      <cc:Work
         rdf:about="">
        <dc:format>image/svg+xml</dc:format>
        <dc:type
           rdf:resource="http://purl.org/dc/dcmitype/StillImage" />
        <dc:title />
      </cc:Work>
    </rdf:RDF>
  </metadata>
  <g
     inkscape:label="Calque 1"
     inkscape:groupmode="layer"
     id="layer1"
     transform="translate(0,-752.36218)">
    <path
       style="fill:#000000"
       d="m 99.717661,1038.8339 c 0,-4.5708 1.225489,-8.7379 2.723299,-9.2603 1.49784,-0.5224 3.40649,-11.5849 4.24152,-24.5833 0.83499,-12.99854 2.76989,-25.97248 4.29975,-28.83107 1.52989,-2.85859 1.98997,-5.98904 1.02242,-6.95658 -0.96754,-0.96755 -1.64927,-5.62384 -1.51498,-10.34729 0.1342,-4.72348 -0.25303,-8.58814 -0.86042,-8.58814 -4.57443,0 -32.706229,38.99597 -32.706229,45.33701 0,1.22015 -2.5644,4.53917 -5.69866,7.37567 -3.13426,2.8364 -5.69866,6.683 -5.69866,8.548 0,1.8649 -2.380554,5.5451 -5.29012,8.1782 -4.414579,3.9951 -5.821957,4.1467 -8.503562,0.9155 -2.395053,-2.8858 -2.317685,-5.8011 0.303787,-11.4469 1.934482,-4.1663 4.478886,-7.5851 5.654235,-7.5973 1.175349,-0.011 2.136998,-1.3169 2.136998,-2.89922 0,-5.38855 24.199922,-39.78 29.147762,-41.423 2.71065,-0.90014 4.63395,-2.73077 4.27399,-4.06811 -0.35995,-1.33733 3.96203,-8.00553 9.604409,-14.81823 9.39795,-11.34723 12.35276,-22.00173 7.45898,-26.89551 -1.97031,-1.97029 -12.527679,4.09281 -19.814129,11.37926 -2.37628,2.37628 -9.00618,6.95228 -14.7331,10.16891 -17.765342,9.97819 -26.166687,5.99001 -10.95158,-5.1988 26.55515,-19.52803 46.014619,-36.56737 46.147719,-40.40849 0.0846,-2.44296 -1.56967,-6.79885 -3.67624,-9.67975 -3.66532,-5.01265 -4.49279,-4.88295 -19.232969,3.01482 -8.47157,4.53907 -17.09719,9.85661 -19.16804,11.81675 -4.58383,4.33878 -10.918703,4.61742 -13.407938,0.58975 -2.388691,-3.86497 3.799785,-11.27249 9.417398,-11.27249 6.79748,0 23.42704,-13.95027 23.42704,-19.65255 0,-2.81374 -2.16913,-9.46405 -4.8203,-14.77842 -5.91478,-11.85647 -8.88132,-55.58303 -4.0956,-60.36877 1.76948,-1.76949 3.21724,-5.05545 3.21724,-7.30218 0,-6.10492 14.48231,-17.3877 24.219299,-18.86858 28.37703,-4.31582 36.22765,-4.59073 40.06852,-1.40309 6.85409,5.6884 4.64178,8.40036 -6.85267,8.40036 l -10.94878,0 1.80738,10.68499 c 1.69689,10.03164 2.38182,10.63869 11.20126,9.92758 12.26649,-0.98903 10.58116,4.8982 -2.68042,9.36333 -7.5452,2.54044 -9.80064,4.88062 -9.80064,10.16895 0,5.64278 1.73997,7.12344 9.74616,8.29377 11.87598,1.73599 15.50241,8.54799 4.55061,8.54799 -10.02853,0 -18.57077,4.81745 -18.57077,10.47315 0,2.5157 -2.78151,10.14344 -6.18114,16.95055 -5.68153,11.37615 -5.8138,12.78329 -1.63654,17.40807 3.27531,3.62623 4.76126,11.99486 5.32033,29.96316 0.42666,13.71241 1.8042,24.93165 3.06121,24.93165 1.25701,0 2.28547,-2.99969 2.28547,-6.66596 0,-4.4215 2.50588,-7.80773 7.44226,-10.05688 9.58167,-4.36572 15.35239,-0.0285 15.35239,11.54121 0,4.60201 1.20714,7.62122 2.6825,6.70941 1.49328,-0.9229 2.79092,-23.41905 2.92703,-50.74379 0.27411,-55.0222 2.34853,-68.31179 12.20121,-78.16443 6.41127,-6.41128 8.76368,-6.80802 40.07019,-6.75779 24.73187,0.0396 35.50323,1.2139 42.01224,4.57982 l 8.7532,4.52647 -0.49732,33.31033 c -0.27354,18.32068 -1.57292,41.64462 -2.88754,51.83098 -1.31463,10.18635 -3.07489,28.13714 -3.91165,39.89063 -2.2184,31.15979 -4.61837,37.6708 -16.01478,43.44787 -10.85401,5.50209 -46.68756,7.04548 -49.71845,2.14141 -0.96854,-1.56713 -5.53189,-2.84933 -10.1408,-2.84933 -6.48029,0 -8.37985,-1.29177 -8.37985,-5.69866 0,-3.13426 -0.97971,-5.69866 -2.17717,-5.69866 -1.19743,0 -4.62583,-5.44934 -7.61863,-12.10965 l -5.44148,-12.10966 -2.34223,11.39732 c -1.28821,6.26853 -2.36273,19.41107 -2.38783,29.20564 -0.0373,14.60094 -0.88882,17.80832 -4.72738,17.80832 -4.23467,0 -4.20467,0.52724 0.31434,5.52066 3.875,4.28187 4.55784,8.11479 3.043,17.08109 -2.16393,12.8081 -4.16404,15.2003 -9.7978,11.7185 -2.99892,-1.8535 -3.42834,-10.3268 -2.04821,-40.41503 0.96045,-20.93842 2.55505,-41.57994 3.54357,-45.87006 1.33611,-5.79859 0.5679,-8.272 -2.99362,-9.63869 -2.63497,-1.01114 -5.97562,-0.65372 -7.42362,0.79428 -3.76596,3.76596 -8.12364,29.2897 -5.29873,31.0356 3.07178,1.89845 -0.14503,10.38304 -5.44301,14.35641 -3.5564,2.66722 -3.45656,3.36491 0.71039,4.9639 3.47883,1.33497 4.45792,4.08021 3.46618,9.71858 -4.09933,23.30581 -5.24074,28.77671 -8.17866,39.20071 -5.43034,19.2677 -13.583039,25.3959 -13.583039,10.2101 z M 232.00299,952.30748 c 2.23889,-2.23889 4.91281,-8.55964 5.9421,-14.04614 1.67293,-8.91744 0.75864,-11.02532 -8.62002,-19.87354 -13.27634,-12.52549 -16.0384,-25.52633 -15.79429,-74.34334 0.15187,-30.34466 -0.5526,-36.69613 -4.22579,-38.10564 -2.42432,-0.9303 -5.20122,-0.8981 -6.17091,0.0715 -0.96965,0.96966 -2.83337,16.83499 -4.14161,35.25631 -2.57597,36.27212 -6.52283,53.17349 -14.43446,61.8115 -2.78248,3.03798 -5.0591,6.67905 -5.0591,8.09127 0,1.41221 -2.69572,4.75052 -5.99046,7.41846 -5.58087,4.51909 -5.73633,5.69917 -2.27328,17.25777 2.23365,7.45519 5.76172,12.94163 8.83982,13.74656 2.81742,0.73678 5.12258,2.38307 5.12258,3.65843 0,6.49904 40.17272,5.68949 46.80542,-0.94321 z m 11.5719,-58.31454 c 1.17247,-7.44387 2.30089,-29.28607 2.50755,-48.53823 0.30382,-28.30417 -0.4423,-35.52186 -3.89825,-37.71001 -5.3005,-3.35602 -6.09469,-3.35631 -11.39733,-0.006 -3.47367,2.19587 -4.27376,10.32421 -4.27282,43.40864 0.001,41.37354 2.91677,56.37823 10.95507,56.37823 2.54212,0 4.74206,-4.87655 6.10578,-13.53432 z m -64.74041,-2.01422 c 5.2186,-10.74152 6.24342,-18.22326 6.64763,-48.5323 0.26299,-19.7082 -0.37036,-36.68135 -1.40711,-37.7181 -1.03679,-1.03676 -4.71385,0.94378 -8.17129,4.40121 -5.70709,5.7071 -6.4217,9.92474 -7.75653,45.77815 -2.01282,54.06585 -0.51362,59.12589 10.6873,36.07104 z m -68.97395,-45.57196 c 7.11886,-10.86476 4.40837,-17.23609 -7.33255,-17.23609 -9.335769,0 -9.877889,0.51245 -9.007099,8.51414 0.95617,8.78651 5.06605,15.70517 9.329329,15.70517 1.3391,0 4.49377,-3.14244 7.01032,-6.98322 z m 6.95311,-35.75674 c 0,-8.7524 -1.0901,-9.40171 -15.25512,-9.08646 -9.719919,0.21627 -9.422789,-0.0288 -11.890799,9.80464 -1.95136,7.77485 -1.86296,7.82981 12.590399,7.82981 14.27327,0 14.55552,-0.16583 14.55552,-8.54799 z m -1.11315,-21.06094 c 0.17125,-0.1701 1.1574,-3.83508 2.19128,-8.1447 1.77724,-7.40828 1.33836,-7.83566 -8.04691,-7.83566 -10.006959,0 -15.825859,5.62732 -15.825859,15.30487 0,3.34187 2.34631,3.92011 10.684989,2.63335 5.87674,-0.90685 10.82517,-1.7879 10.9965,-1.95786 z"
       id="path3080"
       inkscape:connector-curvature="0" />
  </g>
</svg>
