<?xml version="1.0" encoding="UTF-8" standalone="no"?>
<!-- Created with Inkscape (http://www.inkscape.org/) -->

<svg
   xmlns:dc="http://purl.org/dc/elements/1.1/"
   xmlns:cc="http://creativecommons.org/ns#"
   xmlns:rdf="http://www.w3.org/1999/02/22-rdf-syntax-ns#"
   xmlns:svg="http://www.w3.org/2000/svg"
   xmlns="http://www.w3.org/2000/svg"
   xmlns:sodipodi="http://sodipodi.sourceforge.net/DTD/sodipodi-0.dtd"
   xmlns:inkscape="http://www.inkscape.org/namespaces/inkscape"
   width="300"
   height="300"
   id="svg2"
   version="1.1"
   inkscape:version="0.48.4 r9939"
   sodipodi:docname="image-seal.svg">
  <defs
     id="defs4" />
  <sodipodi:namedview
     id="base"
     pagecolor="#ffffff"
     bordercolor="#666666"
     borderopacity="1.0"
     inkscape:pageopacity="0.0"
     inkscape:pageshadow="2"
     inkscape:zoom="1.979899"
     inkscape:cx="169.25456"
     inkscape:cy="173.0828"
     inkscape:document-units="px"
     inkscape:current-layer="layer1"
     showgrid="false"
     inkscape:window-width="1215"
     inkscape:window-height="1000"
     inkscape:window-x="65"
     inkscape:window-y="24"
     inkscape:window-maximized="1"
     fit-margin-top="10"
     fit-margin-left="10"
     fit-margin-right="10"
     fit-margin-bottom="10" />
  <metadata
     id="metadata7">
    <rdf:RDF>
      <cc:Work
         rdf:about="">
        <dc:format>image/svg+xml</dc:format>
        <dc:type
           rdf:resource="http://purl.org/dc/dcmitype/StillImage" />
        <dc:title />
      </cc:Work>
    </rdf:RDF>
  </metadata>
  <g
     inkscape:label="Calque 1"
     inkscape:groupmode="layer"
     id="layer1"
     transform="translate(0,-752.36218)">
    <path
       style="fill:#000000"
       d="m 184.49594,1046.1992 c -0.89733,-1.4519 -1.63616,-24.2122 -1.64185,-50.57846 -0.007,-26.36626 -0.46583,-51.14435 -1.02253,-55.06237 -0.55668,-3.91806 -1.1758,-11.33135 -1.37584,-16.474 -0.24049,-6.18159 -2.05357,-9.89038 -5.35025,-10.94398 -16.9071,-5.40344 -23.50829,-16.89524 -23.50829,-40.92489 0,-9.54318 -0.9461,-11.44284 -5.69898,-11.44284 -3.13444,0 -5.69898,1.28228 -5.69898,2.84948 0,1.56722 -2.56453,2.8495 -5.69897,2.8495 -6.04394,0 -8.16359,-9.53841 -2.84948,-12.82271 5.63358,-3.48177 2.68395,-7.12373 -5.76951,-7.12373 -6.77925,0 -9.25452,1.67156 -11.59628,7.83089 -1.63753,4.30699 -4.92238,9.98017 -7.29972,12.60709 -3.89285,4.30155 -3.58997,6.02589 3.04786,17.35247 4.05359,6.91697 7.37019,15.37833 7.37019,18.803 0,6.02027 0.24108,6.0688 7.27005,1.4632 12.1984,-7.99271 13.94951,-2.71506 15.52586,46.79439 1.41754,44.52097 -0.30078,57.56986 -7.58111,57.56986 -3.02531,0 -3.81684,-9.15942 -3.81684,-44.1671 0,-24.29189 -1.12525,-44.16707 -2.5006,-44.16707 -7.27534,0 -10.44798,14.29945 -13.27662,59.83928 -2.37373,38.21639 -4.57231,56.90259 -6.86146,58.31739 -1.23479,0.7631 -4.27018,-0.8502 -6.7453,-3.5852 -3.501833,-3.8695 -3.967009,-7.4897 -2.096751,-16.3174 3.448211,-16.2755 6.147471,-69.75918 3.520661,-69.75918 -3.687267,0 -21.969161,26.14284 -28.893739,41.31759 -11.29515,24.75259 -22.931876,37.50749 -22.931876,25.13539 0,-6.5342 6.383588,-23.71064 8.811981,-23.71064 1.082489,0 2.692738,-2.88511 3.578334,-6.41135 1.910632,-7.60786 26.138637,-44.3915 33.425254,-50.74726 6.384896,-5.56921 9.643706,-17.92669 6.302176,-23.89769 -2.077791,-3.71282 -6.635301,-0.40885 -25.190145,18.26152 -12.45936,12.53692 -23.615071,22.8186 -24.790498,22.84818 -1.175404,0.0297 -2.137102,-3.25162 -2.137102,-7.29155 0,-5.44748 5.88972,-13.03278 22.79591,-29.3586 30.289685,-29.24983 30.824945,-42.07147 0.965835,-23.13536 -7.413757,4.70164 -15.793039,8.54845 -18.620637,8.54845 -9.264525,0 -5.392666,-8.1608 7.439817,-15.68114 17.882622,-10.47993 20.412182,-14.14724 15.221962,-22.06854 -5.135444,-7.83769 -9.101524,-51.11912 -6.450532,-70.39411 1.921871,-13.97377 1.959767,-14.01545 16.644721,-18.30932 18.099089,-5.29216 42.322339,-8.18266 48.549079,-5.79322 2.55064,0.97875 4.63748,4.20691 4.63748,7.17368 0,4.04946 -2.05496,5.3941 -8.2436,5.3941 -11.25555,0 -13.36723,7.14311 -4.67991,15.83043 3.83104,3.83102 8.30603,6.9655 9.94449,6.9655 4.23184,0 3.7098,11.35168 -0.58283,12.67413 -1.95904,0.60351 -7.08433,1.86902 -11.38953,2.81225 -6.98554,1.53038 -7.44826,2.32238 -4.30115,7.3617 1.93955,3.10575 5.52611,5.64681 7.97013,5.64681 2.44401,0 5.9915,1.54786 7.88337,3.43974 5.02499,5.02498 9.30838,-0.40467 25.04091,-31.742 13.36177,-26.61508 22.6086,-40.08549 27.51684,-40.08549 3.82877,0 10.67979,7.6335 10.68629,11.9068 0.009,5.37265 22.53628,38.93008 35.02006,52.16522 11.62653,12.32632 15.40191,20.56607 11.30181,24.66617 -1.67348,1.67348 -5.9539,-0.66888 -11.39818,-6.23745 -7.42749,-7.59702 -9.59532,-8.44793 -14.64168,-5.7472 -3.25784,1.74354 -9.04998,2.38536 -12.87142,1.42625 -8.90874,-2.23597 -13.9555,6.36074 -13.3227,22.69395 1.23226,31.80746 1.18315,31.62751 8.62739,31.62751 8.36754,0 10.82757,-6.70288 11.24241,-30.63201 0.28649,-16.52621 2.00499,-19.2228 8.26261,-12.96517 4.79767,4.79769 4.5053,45.29714 -0.37525,51.97164 -2.08704,2.85419 -8.81895,6.01042 -14.95983,7.01385 l -11.16518,1.82439 1.038,63.37129 c 0.77702,47.43664 0.15199,64.43894 -2.486,67.61754 -4.03225,4.8585 -7.46351,5.4198 -9.82033,1.6064 z m -4.40385,-175.45334 0,-27.07013 -11.39795,0 c -8.02442,0 -11.39798,1.21531 -11.39798,4.10605 0,2.25833 1.11658,4.79614 2.48126,5.63957 1.36467,0.84341 3.09283,7.89869 3.84036,15.67836 1.34878,14.03693 8.34716,28.71631 13.69049,28.71631 1.61676,0 2.78382,-11.34888 2.78382,-27.07016 z M 96.622389,856.31523 c 3.162117,-3.16211 3.572671,-5.34216 1.41276,-7.50207 -4.832142,-4.83214 -11.751654,-0.61994 -9.997961,6.08622 1.843025,7.04764 2.796207,7.20485 8.585201,1.41585 z m 2.686809,-23.36871 c 1.802382,-1.15142 3.725802,-4.65803 4.274232,-7.79248 0.83064,-4.74716 -0.78744,-5.84666 -9.688401,-6.58337 -9.720518,-0.8045 -10.68558,-0.2442 -10.68558,6.20242 0,6.25616 2.118786,8.11135 11.397955,9.98 0.783611,0.15795 2.899409,-0.65515 4.701794,-1.80657 z m 112.727052,-6.50885 c -0.4537,-1.86107 -3.83111,-7.3992 -7.50535,-12.30693 -3.67426,-4.90771 -7.5568,-11.80822 -8.62792,-15.33448 -2.74952,-9.05173 -9.53249,-7.95515 -15.23105,2.46237 -2.66975,4.88051 -7.64994,13.1407 -11.06709,18.35592 l -6.213,9.48226 9.0625,1.15303 c 16.57072,2.10835 40.46427,-0.19291 39.58191,-3.81217 z M 100.53944,803.78288 c 4.47723,0 5.46592,-2.06166 5.46592,-11.39797 0,-12.43861 -2.79826,-13.89575 -15.538119,-8.09107 -10.624123,4.84066 -9.985417,25.0884 0.66251,21.0024 2.169048,-0.83233 6.403432,-1.51336 9.409689,-1.51336 z m 46.70071,234.37052 c 2.2813,-5.8288 6.06106,-43.47741 8.72537,-86.90945 1.72916,-28.18816 2.3372,-30.63202 7.62158,-30.63202 5.58451,0 5.7109,1.39161 4.5931,50.57843 -0.94287,41.48844 -2.08257,52.49884 -6.3414,61.26404 -3.41912,7.0368 -7.13123,10.6856 -10.87114,10.6856 -4.2526,0 -5.18892,-1.2527 -3.72751,-4.9866 z m 71.173,-0.9503 c -3.73905,-6.0499 -9.71631,-58.6352 -9.77078,-85.95915 -0.0515,-25.90133 0.33047,-27.78254 5.64359,-27.78254 3.16609,0 5.69897,1.89968 5.69897,4.27425 0,2.35083 1.28226,4.27423 2.84948,4.27423 3.88783,0 3.62462,7.81517 -0.30737,9.12584 -3.17922,1.05974 0.75575,53.31082 5.75698,76.44417 3.10869,14.3794 -4.16943,28.8483 -9.87087,19.6232 z"
       id="path3379"
       inkscape:connector-curvature="0" />
  </g>
</svg>
