<?xml version="1.0" encoding="UTF-8" standalone="no"?>
<!-- Created with Inkscape (http://www.inkscape.org/) -->

<svg
   xmlns:dc="http://purl.org/dc/elements/1.1/"
   xmlns:cc="http://creativecommons.org/ns#"
   xmlns:rdf="http://www.w3.org/1999/02/22-rdf-syntax-ns#"
   xmlns:svg="http://www.w3.org/2000/svg"
   xmlns="http://www.w3.org/2000/svg"
   xmlns:sodipodi="http://sodipodi.sourceforge.net/DTD/sodipodi-0.dtd"
   xmlns:inkscape="http://www.inkscape.org/namespaces/inkscape"
   width="300"
   height="300"
   id="svg2"
   version="1.1"
   inkscape:version="0.48.4 r9939"
   sodipodi:docname="dessin.svg">
  <defs
     id="defs4" />
  <sodipodi:namedview
     id="base"
     pagecolor="#ffffff"
     bordercolor="#666666"
     borderopacity="1.0"
     inkscape:pageopacity="0.0"
     inkscape:pageshadow="2"
     inkscape:zoom="1.979899"
     inkscape:cx="66.959549"
     inkscape:cy="133.99264"
     inkscape:document-units="px"
     inkscape:current-layer="layer1"
     showgrid="false"
     inkscape:window-width="1215"
     inkscape:window-height="1000"
     inkscape:window-x="65"
     inkscape:window-y="24"
     inkscape:window-maximized="1" />
  <metadata
     id="metadata7">
    <rdf:RDF>
      <cc:Work
         rdf:about="">
        <dc:format>image/svg+xml</dc:format>
        <dc:type
           rdf:resource="http://purl.org/dc/dcmitype/StillImage" />
        <dc:title />
      </cc:Work>
    </rdf:RDF>
  </metadata>
  <g
     inkscape:label="Calque 1"
     inkscape:groupmode="layer"
     id="layer1"
     transform="translate(0,-752.36218)">
    <path
       style="fill:#000000"
       d="m 178.66231,1028.1961 c -1.39505,-120.75626 -2.22436,-130.00023 -10.97472,-122.32788 -4.82139,4.2274 -6.44055,19.15224 -8.46701,78.04585 -1.65874,48.20723 -3.74488,58.24753 -10.21043,49.14173 -1.85293,-2.6096 -2.39902,-23.5019 -1.65475,-63.30657 1.07556,-57.52318 1.30693,-59.68721 7.28015,-68.08693 3.78157,-5.31776 8.91436,-9.00917 13.26187,-9.53767 11.29327,-1.37286 10.74795,-11.96999 -1.34151,-26.06889 -11.59541,-13.52278 -15.56141,-14.26247 -22.5508,-4.2059 -2.81936,4.05656 -7.4475,9.88135 -10.28479,12.94398 l -5.15871,5.56841 -0.87054,-6.50444 c -0.47878,-3.57744 0.1081,-7.25626 1.30436,-8.17514 5.59594,-4.29871 16.57451,-22.70843 17.98482,-30.15833 2.01295,-10.63319 4.92134,-10.48857 11.17909,0.55588 7.11585,12.55893 15.75355,23.84418 18.25032,23.84418 2.21747,0 1.14046,-56.79219 -1.12237,-59.18286 -1.70807,-1.80451 -17.06308,9.81741 -17.06308,12.91475 0,1.32639 -4.00414,4.41905 -8.89808,6.87254 -8.62055,4.32177 -14.31613,3.65907 -14.31613,-1.66579 0,-4.03969 13.23909,-16.98454 23.21421,-22.69824 14.09031,-8.07087 18.05549,-12.75488 18.05549,-21.32879 0,-6.67778 0.92401,-7.80368 5.80356,-7.07152 4.14162,0.62142 6.03567,2.99932 6.61414,8.30382 0.7087,6.49848 11.83808,18.45492 17.17834,18.45492 5.2083,0 24.57046,17.28243 24.57046,21.93131 0,5.72385 -5.96311,7.0942 -11.07115,2.54419 -5.7535,-5.125 -26.30936,-18.9257 -28.26404,-18.97579 -1.06399,-0.0273 -1.93452,13.43938 -1.93452,29.92593 0,16.48654 1.01988,29.97553 2.26643,29.97553 1.24652,0 3.67378,-3.98539 5.3939,-8.85641 8.25652,-23.3807 7.44067,-22.32248 13.06434,-16.94568 2.78789,2.66553 5.0689,7.10888 5.0689,9.87414 0,2.76525 0.87053,5.03611 1.93452,5.04636 1.06397,0.0106 4.54611,4.07152 7.73806,9.02503 5.75039,8.92394 7.82641,20.93188 3.61887,20.93188 -3.92184,0 -13.29145,-10.07526 -13.29145,-14.29246 0,-2.26354 -1.77737,-5.67391 -3.94966,-7.5786 -3.26581,-2.86345 -4.59139,-2.56737 -7.65605,1.71009 -2.03849,2.84528 -3.7433,6.21018 -3.7884,7.47759 -0.0451,1.26743 -2.51163,5.90917 -5.48114,10.31499 -4.33536,6.43234 -4.78131,8.797 -2.26352,12.00213 1.72456,2.19533 5.21168,3.9915 7.74917,3.9915 4.17842,0 17.89521,14.16005 18.0208,18.60314 0.0286,1.00912 1.2344,9.8055 2.67975,19.54754 1.44532,9.74205 3.22602,36.42641 3.95714,59.29858 1.16389,36.4111 0.8166,41.7936 -2.79096,43.2562 -2.26616,0.9187 -4.56181,1.2039 -5.10148,0.6337 -0.53966,-0.5701 -1.26675,-11.4515 -1.61576,-24.1808 -0.34899,-12.7293 -1.49588,-25.69804 -2.54862,-28.81945 -1.05271,-3.12138 -2.2299,-17.22351 -2.61596,-31.33806 -0.38606,-14.11452 -1.82976,-28.11532 -3.20825,-31.11288 -1.37846,-2.99755 -3.32294,-7.28951 -4.32104,-9.53767 -0.99808,-2.24817 -4.00964,-4.08758 -6.69232,-4.08758 -4.62871,0 -4.90016,3.17771 -5.31953,62.2755 -0.42416,59.76624 -2.51001,78.06444 -8.89874,78.06444 -1.24654,0 -2.35497,-7.6642 -2.46318,-17.0315 z m -90.080737,2.59 c 0,-2.1675 2.232924,-9.3085 4.962092,-15.8688 5.533445,-13.3013 12.971015,-55.43447 11.111635,-62.94641 -0.65959,-2.66476 -2.27736,-4.84498 -3.59503,-4.84498 -3.27513,0 -13.679767,11.26271 -17.656081,19.11221 -1.792194,3.53784 -4.331416,7.73597 -5.642755,9.32914 -1.311327,1.5932 -6.15845,9.63889 -10.771376,17.8793 -8.761186,15.65074 -17.098842,21.14424 -17.098842,11.26604 0,-3.0191 1.160711,-6.24701 2.579357,-7.1733 1.418647,-0.9263 2.579357,-3.96217 2.579357,-6.74635 0,-2.78421 0.879166,-5.47094 1.953709,-5.97054 3.117805,-1.4496 18.681149,-23.22459 18.681149,-26.13719 0,-1.45432 6.441796,-9.84119 14.315092,-18.63753 11.89843,-13.29337 14.04024,-17.15021 12.68711,-22.84605 -0.89537,-3.76899 -2.01455,-7.26113 -2.48706,-7.76034 -1.205878,-1.27398 -12.099477,5.10304 -16.302279,9.54324 -8.034553,8.48835 -20.607721,17.24118 -24.766445,17.24118 -9.009812,0 -2.498711,-9.7039 14.627555,-21.80039 12.776612,-9.02424 17.196704,-13.69467 16.737057,-17.68497 -0.768954,-6.67578 -7.751073,-8.45981 -12.689561,-3.24236 -4.986799,5.26844 -19.023218,12.75219 -23.917915,12.75219 -8.001577,0 -3.694003,-8.17057 8.89966,-16.88076 7.093239,-4.90591 12.896786,-10.43504 12.896786,-12.28695 0,-1.85189 -2.321414,-7.73363 -5.158707,-13.07053 -6.903653,-12.98562 -7.064857,-44.40475 -0.307643,-59.95107 6.399156,-14.72251 12.344469,-19.59549 26.101201,-21.39344 6.383911,-0.83437 15.669611,-2.26723 20.634861,-3.18408 5.72957,-1.05802 10.65925,-0.35746 13.49349,1.91757 6.56328,5.26828 1.97453,10.4825 -9.8305,11.17051 -6.24157,0.36374 -10.01267,1.89292 -9.85345,3.99556 0.14187,1.87347 0.43205,5.85887 0.64484,8.85641 0.29446,4.14813 2.23542,5.4501 8.12497,5.4501 4.25595,0 7.73808,0.51286 7.73808,1.13963 0,0.62683 0.68172,3.01655 1.51493,5.31053 1.09497,3.01458 -0.87149,4.8208 -7.09322,6.51529 -6.00971,1.63674 -8.85716,4.14812 -9.43303,8.3196 -0.74105,5.36823 -0.15399,5.70563 5.78117,3.32167 8.31126,-3.3384 14.38886,-0.99974 14.38886,5.53689 0,3.67424 -2.6142,5.5327 -9.67259,6.87639 -11.09205,2.11152 -16.12097,5.57803 -16.12097,11.11236 0,2.12533 -2.39262,7.28321 -5.31692,11.46194 l -5.316897,7.59769 7.896257,8.93046 c 4.34295,4.91173 7.89627,10.64014 7.89627,12.72979 0,2.08967 1.1607,3.79939 2.57935,3.79939 1.41864,0 2.57936,2.45255 2.57936,5.4501 0,2.99756 1.16071,5.45009 2.57935,5.45009 1.41865,0 2.57936,-1.22627 2.57936,-2.72505 0,-4.48954 8.20497,-3.07865 11.88556,2.04379 4.89961,6.81903 4.89961,98.09533 0,104.91433 -7.50772,10.4488 -8.74073,4.8853 -8.75713,-39.51316 -0.0206,-53.72801 -0.0232,-53.81971 -2.68259,-53.81971 -2.78791,0 -7.48913,27.96666 -9.68331,57.60424 -1.317,17.78913 -3.39503,26.76963 -8.50463,36.75413 -6.537046,12.7738 -15.789537,19.2796 -15.789537,11.1022 z m 2.57936,-166.55128 c 0,-0.62681 0.704521,-3.07934 1.565639,-5.4501 1.096153,-3.01788 0.0647,-4.31044 -3.43916,-4.31044 -6.350764,0 -8.461731,2.23024 -6.700542,7.07905 1.220388,3.35995 8.574063,5.65978 8.574063,2.68149 z m 6.530805,-26.38513 c 2.318222,-7.71669 -0.995602,-10.31554 -11.044685,-8.66182 -6.75113,1.11101 -8.382906,2.64549 -8.382906,7.88288 0,5.59136 1.241595,6.50334 8.853923,6.50334 6.730016,0 9.266469,-1.37321 10.573668,-5.7244 z m -1.194374,-24.9324 c 0.09771,-1.87347 0.589179,-6.68201 1.092053,-10.68565 0.878185,-6.99144 0.608829,-7.16683 -6.810278,-4.43445 -6.268479,2.30865 -12.514992,10.96407 -12.514992,17.34129 0,3.0481 18.073172,0.84643 18.233217,-2.22119 z"
       id="path3093"
       inkscape:connector-curvature="0" />
  </g>
</svg>
