<?xml version="1.0" encoding="UTF-8" standalone="no"?>
<!-- Created with Inkscape (http://www.inkscape.org/) -->

<svg
   xmlns:dc="http://purl.org/dc/elements/1.1/"
   xmlns:cc="http://creativecommons.org/ns#"
   xmlns:rdf="http://www.w3.org/1999/02/22-rdf-syntax-ns#"
   xmlns:svg="http://www.w3.org/2000/svg"
   xmlns="http://www.w3.org/2000/svg"
   xmlns:sodipodi="http://sodipodi.sourceforge.net/DTD/sodipodi-0.dtd"
   xmlns:inkscape="http://www.inkscape.org/namespaces/inkscape"
   width="300"
   height="300"
   id="svg2"
   version="1.1"
   inkscape:version="0.48.4 r9939"
   sodipodi:docname="image-seal.svg">
  <defs
     id="defs4" />
  <sodipodi:namedview
     id="base"
     pagecolor="#ffffff"
     bordercolor="#666666"
     borderopacity="1.0"
     inkscape:pageopacity="0.0"
     inkscape:pageshadow="2"
     inkscape:zoom="1.979899"
     inkscape:cx="154.69485"
     inkscape:cy="171.68677"
     inkscape:document-units="px"
     inkscape:current-layer="layer1"
     showgrid="false"
     inkscape:window-width="1215"
     inkscape:window-height="1000"
     inkscape:window-x="65"
     inkscape:window-y="24"
     inkscape:window-maximized="1" />
  <metadata
     id="metadata7">
    <rdf:RDF>
      <cc:Work
         rdf:about="">
        <dc:format>image/svg+xml</dc:format>
        <dc:type
           rdf:resource="http://purl.org/dc/dcmitype/StillImage" />
        <dc:title />
      </cc:Work>
    </rdf:RDF>
  </metadata>
  <g
     inkscape:label="Calque 1"
     inkscape:groupmode="layer"
     id="layer1"
     transform="translate(0,-752.36218)">
    <path
       style="fill:#000000"
       d="m 209.91136,1026.7087 c -7.49739,-18.1605 -12.92407,-60.07118 -13.12574,-101.37127 l -0.14687,-30.0851 -6.2866,-1.20174 c -8.08536,-1.54561 -11.35812,4.28853 -11.16371,19.90077 0.0803,6.44427 -0.42313,18.41158 -1.11859,26.594 -6.18496,72.76764 -9.10909,88.79664 -15.95404,87.45454 -4.1516,-0.814 -4.688,-14.0238 -1.63824,-40.34371 3.72954,-32.18643 6.40695,-65.52401 6.40695,-79.77523 l 0,-15.68624 -13.01749,-0.0379 c -15.75246,-0.0459 -22.56762,-3.39034 -16.47035,-8.08246 2.76454,-2.12742 18.96961,-3.31934 52.89083,-3.89018 l 48.90514,-0.82297 -0.82092,5.7969 c -0.70143,4.95342 -2.44446,5.90989 -11.97873,6.57333 -6.13681,0.42702 -12.12754,1.73147 -13.31271,2.89873 -1.18518,1.16728 -2.04698,19.78623 -1.91508,41.37544 0.21868,35.78715 1.92402,50.78916 8.09815,71.23699 1.19384,3.9538 2.1706,11.4853 2.1706,16.7368 0,7.4526 -0.95551,9.5481 -4.35376,9.5481 -2.41412,0 -5.60788,-3.0378 -7.16879,-6.8187 z m -117.412486,-0.148 c 0,-2.6952 1.673676,-5.5426 3.71928,-6.3276 2.542996,-0.9758 3.719281,-4.9534 3.719281,-12.5762 0,-6.132 1.568715,-15.93011 3.486005,-21.77361 4.19376,-12.7818 10.06075,-53.69364 7.99606,-55.75834 -1.96014,-1.96012 -18.920626,16.70568 -18.920626,20.82302 0,1.7791 -0.927241,3.23472 -2.06053,3.23472 -1.133291,0 -3.642021,3.06842 -5.574961,6.81869 -1.93294,3.75027 -4.136258,7.37656 -4.896264,8.05845 -2.686225,2.41002 -12.263438,24.79586 -12.263438,28.66456 0,4.45191 -5.773262,11.00771 -9.693731,11.00771 -3.797326,0 -6.637808,-13.15251 -3.095484,-14.33331 1.579124,-0.5264 2.871136,-3.1659 2.871136,-5.8657 0,-10.2095 15.7633,-37.48518 29.303973,-50.70543 7.501345,-7.32383 15.692385,-13.96783 18.202355,-14.76447 2.50997,-0.79665 4.73824,-3.32586 4.9517,-5.62051 1.93418,-20.79219 0.41572,-22.06358 -12.386141,-10.37086 -4.479303,4.09121 -8.740953,7.43856 -9.470328,7.43856 -0.729359,0 -6.396505,4.46314 -12.593649,9.91809 -12.327343,10.85094 -14.961193,11.80176 -17.118597,6.17964 -1.563498,-4.07442 5.196783,-16.09773 9.051172,-16.09773 3.149093,0 37.170383,-27.33696 37.170383,-29.86732 0,-10.23271 -8.775588,-12.61738 -19.453385,-5.28625 -10.796322,7.41247 -25.280779,13.329 -29.070789,11.87465 -8.969598,-3.44198 1.352649,-16.3934 13.065475,-16.3934 1.773723,0 3.224951,-0.92725 3.224951,-2.06053 0,-1.1333 2.791009,-3.55424 6.202247,-5.37987 5.288596,-2.83037 5.72448,-3.89655 2.958962,-7.23766 -7.093202,-8.56957 -9.161209,-18.68685 -9.161209,-44.81934 0,-25.25548 0.399252,-27.46111 6.080524,-33.5913 7.189719,-7.75785 18.966587,-10.91104 41.053804,-10.99197 13.55306,-0.0496 16.64239,0.74477 19.27242,4.95612 3.54092,5.66992 2.2361,6.64023 -10.61756,7.8956 -6.05201,0.59107 -7.5848,1.99748 -8.22313,7.54515 -0.79637,6.92118 1.38345,8.17757 12.56229,7.24076 3.06739,-0.25704 4.33916,1.44465 4.33916,5.80596 0,5.36086 -1.10276,6.16955 -8.41303,6.16955 -5.38426,0 -8.95486,1.412 -9.91808,3.9221 -3.26459,8.50735 -1.56326,10.66567 9.01154,11.43234 7.52405,0.54549 10.74299,1.9567 11.31226,4.95947 0.64195,3.38595 -1.48109,4.34423 -10.98662,4.95903 l -11.78231,0.76203 -3.18445,12.39759 c -3.42256,13.32461 -2.62256,18.68186 4.25089,28.46654 2.41349,3.43571 5.11446,11.54672 6.00212,18.02446 1.61668,11.79766 4.49069,15.02967 7.16579,8.05845 0.78497,-2.0456 2.57803,-3.71929 3.98457,-3.71929 1.40653,0 2.55732,1.67369 2.55732,3.71929 0,2.04561 1.11579,3.71928 2.47952,3.71928 3.12289,0 3.32343,84.09077 0.21225,89.00417 -1.21774,1.9231 -3.97561,2.776 -6.2075,1.9195 -3.54215,-1.3592 -3.87356,-6.2309 -2.80771,-41.27336 1.09582,-36.02865 -0.0483,-44.99677 -4.76666,-37.36233 -0.80557,1.30343 -1.97315,11.06655 -2.59462,21.69581 -0.62146,10.62922 -2.25978,23.22377 -3.6407,27.98784 -1.38092,4.76407 -2.51076,11.52814 -2.51076,15.03128 0,9.61516 -16.59116,44.65167 -21.997781,46.45387 -1.538568,0.5129 -2.797421,-1.2727 -2.797421,-3.9679 z m 9.839236,-184.57631 c 0.058,-3.18578 -1.89833,-4.33916 -7.359716,-4.33916 -8.555055,0 -9.989126,5.4695 -3.355857,12.79916 3.870158,4.27651 4.25327,4.28663 7.359687,0.19513 1.802366,-2.37385 3.312516,-6.2687 3.355886,-8.65523 z m 3.53284,-20.65884 c 3.36334,-8.76473 1.68129,-10.95505 -8.413037,-10.95505 -9.367067,0 -9.918072,0.41328 -9.918072,7.43857 0,6.80353 0.718235,7.43856 8.413029,7.43856 5.38428,0 8.95489,-1.412 9.91808,-3.92208 z m 1.50504,-29.55145 c 0,-7.52558 -0.79642,-8.67831 -5.996,-8.67831 -10.288294,0 -13.840149,2.61341 -13.840149,10.18336 0,6.7158 0.632514,7.17328 9.918072,7.17328 9.681957,0 9.918077,-0.20655 9.918077,-8.67833 z m 61.16326,71.77043 c -6.67988,-5.87545 -7.06089,-7.35785 -7.7868,-30.29576 -0.41981,-13.26491 -0.88551,-25.4622 -1.0349,-27.10508 -0.14928,-1.64285 -4.23274,-3.73014 -9.07413,-4.63838 -10.96858,-2.05773 -11.01919,-9.34088 -0.0706,-10.1824 8.83559,-0.67913 11.26576,-4.21596 11.31482,-16.46736 0.0307,-7.68735 0.85851,-9.31999 4.37713,-8.63381 3.32497,0.64842 4.38335,3.4437 4.52818,11.95954 l 0.18894,11.11331 18.4074,0 c 17.7964,0 18.43039,-0.2058 19.10152,-6.1988 1.55012,-13.84281 3.17607,-17.35665 8.03139,-17.35665 4.79101,0 5.27488,1.29776 6.00326,16.10077 0.1706,3.46677 2.45048,5.32271 7.63431,6.21472 5.19685,0.89426 7.61979,2.87338 8.16137,6.6665 0.64069,4.48704 -0.61079,5.52729 -7.43855,6.18286 l -8.20885,0.78819 -1.5324,23.55545 c -1.75041,26.90664 -3.09783,31.31581 -11.93339,39.04942 -9.37661,8.2072 -30.93574,7.80829 -40.66864,-0.75252 z m 28.85991,-13.34111 c -0.69015,-2.63915 -3.26416,-6.61689 -5.72,-8.83941 -4.15311,-3.75848 -4.82907,-3.65037 -9.67091,1.54672 -8.22009,8.82325 -6.67415,12.09113 5.72002,12.09113 9.58308,0 10.7715,-0.58965 9.67089,-4.79844 z m 10.38128,-32.10158 -1.59873,-6.36986 -4.71637,6.13795 c -5.82163,7.57635 -5.85287,8.46544 -0.58014,16.51262 l 4.24644,6.4809 2.12375,-8.19589 c 1.16808,-4.50771 1.40436,-11.06229 0.52505,-14.56572 z m -29.70073,12.04433 c 2.1033,-3.4032 -1.07247,-17.29614 -3.95367,-17.29614 -1.25539,0 -2.28253,4.46313 -2.28253,9.91808 0,9.45531 2.86067,12.83977 6.2362,7.37806 z m 18.48015,-25.35458 c 0.0433,-1.0228 -2.71061,-1.85964 -6.11994,-1.85964 -6.55811,0 -8.15135,4.4942 -3.30967,9.33588 2.19918,2.19919 3.66071,1.87351 6.11996,-1.36373 1.77694,-2.33908 3.26629,-5.08971 3.30965,-6.11251 z"
       id="path3598"
       inkscape:connector-curvature="0" />
  </g>
</svg>
