<?xml version="1.0" encoding="UTF-8" standalone="no"?>
<!-- Created with Inkscape (http://www.inkscape.org/) -->

<svg
   xmlns:dc="http://purl.org/dc/elements/1.1/"
   xmlns:cc="http://creativecommons.org/ns#"
   xmlns:rdf="http://www.w3.org/1999/02/22-rdf-syntax-ns#"
   xmlns:svg="http://www.w3.org/2000/svg"
   xmlns="http://www.w3.org/2000/svg"
   xmlns:sodipodi="http://sodipodi.sourceforge.net/DTD/sodipodi-0.dtd"
   xmlns:inkscape="http://www.inkscape.org/namespaces/inkscape"
   width="300"
   height="300"
   id="svg2"
   version="1.1"
   inkscape:version="0.48.4 r9939"
   sodipodi:docname="image-seal.svg">
  <defs
     id="defs4" />
  <sodipodi:namedview
     id="base"
     pagecolor="#ffffff"
     bordercolor="#666666"
     borderopacity="1.0"
     inkscape:pageopacity="0.0"
     inkscape:pageshadow="2"
     inkscape:zoom="2.0018437"
     inkscape:cx="145.03351"
     inkscape:cy="130.6666"
     inkscape:document-units="px"
     inkscape:current-layer="layer1"
     showgrid="false"
     inkscape:window-width="1215"
     inkscape:window-height="1000"
     inkscape:window-x="65"
     inkscape:window-y="24"
     inkscape:window-maximized="1"
     fit-margin-top="10"
     fit-margin-left="10"
     fit-margin-right="10"
     fit-margin-bottom="10" />
  <metadata
     id="metadata7">
    <rdf:RDF>
      <cc:Work
         rdf:about="">
        <dc:format>image/svg+xml</dc:format>
        <dc:type
           rdf:resource="http://purl.org/dc/dcmitype/StillImage" />
        <dc:title />
      </cc:Work>
    </rdf:RDF>
  </metadata>
  <g
     inkscape:label="Calque 1"
     inkscape:groupmode="layer"
     id="layer1"
     transform="translate(0,-752.36218)">
    <path
       style="fill:#000000"
       d="m 119.92179,1044.2588 c -2.86431,-7.5283 0.9891,-11.9506 39.40691,-45.22459 l 7.50055,-6.49623 -6.25046,0 c -3.75262,0 -10.71036,3.96004 -17.4107,9.92172 -6.13812,5.4609 -11.95277,9.9292 -12.92147,9.9292 -0.96867,0 -3.54088,0.6831 -5.71599,1.5176 -2.54396,0.9761 -3.95477,0.1525 -3.95477,-2.3066 0,-2.1032 6.68679,-8.6929 14.85957,-14.6436 8.17274,-5.95043 14.92324,-11.6631 15.00109,-12.69443 0.25535,-3.38299 -7.04334,-1.96689 -16.10965,3.12523 -8.41494,4.72635 -18.75137,6.69524 -18.75137,3.57176 0,-2.49068 7.03069,-8.57212 9.9101,-8.57212 1.52171,0 5.40827,-1.73088 8.63681,-3.84628 l 5.87005,-3.84604 -6.4646,-12.97285 c -7.67453,-15.4008 -10.42454,-39.72365 -5.09392,-45.05427 3.57361,-3.57359 14.7297,-7.40192 23.39421,-8.02796 2.7502,-0.19877 10.06324,-1.12353 16.25119,-2.05515 6.18795,-0.93165 12.82112,-0.68443 14.74038,0.54936 5.7711,3.70995 1.20216,10.24845 -7.16137,10.24845 -5.0701,0 -7.57901,1.24147 -7.57901,3.75028 0,2.61924 2.63909,3.75027 8.75064,3.75027 5.51323,0 8.75064,1.20246 8.75064,3.25024 0,4.63799 -5.23603,9.25068 -10.50077,9.25068 -2.47518,0 -4.50033,1.12508 -4.50033,2.50018 0,1.3751 4.50033,2.50018 10.00074,2.50018 14.43183,0 12.3114,7.26496 -3.20279,10.97318 -6.42544,1.53581 -16.7664,14.06101 -16.78933,20.33559 -0.0175,4.73085 16.58684,11.94938 21.35194,9.28268 8.94868,-5.00787 18.64164,3.77053 18.64164,16.88274 0,2.60438 1.12508,5.43058 2.50018,6.28048 1.3751,0.8498 2.50019,5.4166 2.50019,10.1482 0,14.2946 -6.75802,10.2188 -12.68083,-7.6481 -1.82338,-5.5004 -4.73767,-11.60679 -6.47618,-13.56968 -4.8418,-5.46716 -7.33011,3.48975 -3.73299,13.43718 1.58869,4.3936 2.88853,13.3348 2.88853,19.8698 0,9.967 -0.70515,11.7473 -4.37532,11.0478 -2.51963,-0.4803 -4.66539,-3.474 -5.05922,-7.0588 -1.18368,-10.7738 -6.13477,-27.4765 -8.14469,-27.4765 -2.6215,0 -37.42479,37.4365 -37.42479,40.2562 0,3.4385 -9.30419,2.6717 -10.65481,-0.8783 z m 35.65664,-85.89877 c 0,-3.98184 -2.23999,-4.36282 -7.19583,-1.22384 -1.89504,1.20031 -2.70282,3.3841 -1.79506,4.85288 2.18876,3.54151 8.99089,0.79593 8.99089,-3.62904 z m 0,-15.7192 c 0,-7.89516 -17.30127,-5.0609 -17.46301,2.86073 -0.02,1.03133 3.89951,1.87514 8.71237,1.87514 6.92095,0 8.75064,-0.99025 8.75064,-4.73587 z m -6.30337,-13.19622 c 7.78747,-3.54821 6.82178,-8.57403 -1.47278,-7.66509 -9.32388,1.02178 -12.22532,2.62787 -12.22532,6.76735 0,4.57584 4.91816,4.89816 13.6981,0.89774 z M 89.820833,1039.775 c -0.73481,-2.81 -0.17977,-8.7167 1.23329,-13.126 4.1451,-12.9342 6.97203,-31.09055 9.617587,-61.77102 4.39222,-50.93675 3.87148,-55.25365 -7.219267,-59.84758 -11.65368,-4.8271 -18.39892,-32.65919 -7.91515,-32.65919 3.805,0 5.63306,2.65562 7.82767,11.37115 3.93529,15.62847 10.468797,14.51624 12.209807,-2.07852 0.68755,-6.55353 2.0939,-11.88792 3.12522,-11.85417 1.03133,0.0338 3.00022,0.0612 4.37532,0.0612 1.37511,0 2.50019,5.06288 2.50019,11.25083 0,9.37208 0.79033,11.25082 4.73287,11.25082 5.18893,0 7.76804,-4.63346 7.76804,-13.95549 0,-3.64287 1.45566,-6.04597 3.66232,-6.04597 4.3898,0 8.8386,7.59218 8.8386,15.08373 0,6.33504 -13.56515,19.91883 -19.89148,19.91883 -3.68842,0 -4.62072,3.3764 -6.04052,21.8766 -4.44678,57.94222 -8.01121,87.02378 -12.33413,100.63228 -4.807807,15.1351 -10.036437,19.2759 -12.490367,9.8923 z m 129.935017,-10.5173 c -9.9526,-22.662 -16.98109,-61.26202 -21.35191,-117.26404 -0.17727,-2.27189 -3.73118,-5.31904 -7.89746,-6.7714 -9.67285,-3.37199 -12.90032,-6.88533 -16.95829,-18.46042 -3.68294,-10.50535 -2.4324,-14.39063 4.63179,-14.39063 3.21001,0 5.30531,2.28246 6.31174,6.8755 2.58311,11.78864 3.32287,13.12596 7.26088,13.12596 2.98297,0 3.82875,-3.0967 3.82875,-14.0185 0,-11.75586 -0.63832,-13.77356 -3.95476,-12.50091 -2.17511,0.83468 -7.75669,1.51758 -12.40351,1.51758 -12.27535,0 -18.64429,7.84768 -18.64429,22.97308 0,10.36269 -0.69285,12.02948 -5.00036,12.02948 -4.51336,0 -5.00037,-1.66679 -5.00037,-17.11377 0,-20.66097 2.05968,-23.07092 25.00183,-29.25375 23.75084,-6.40079 23.72004,-8.59945 -0.12501,-8.9244 -27.12888,-0.36973 -28.93329,-0.13476 -38.29455,4.98757 -4.30859,2.35757 -16.03788,7.03624 -26.06506,10.39701 -15.820487,5.30251 -18.536017,5.61753 -20.536087,2.38242 -3.26291,-5.27773 1.08498,-8.37769 19.121207,-13.633 l 15.35645,-4.47447 -4.91221,-8.32561 c -2.70172,-4.57906 -7.05562,-9.00586 -9.67528,-9.83732 -8.40077,-2.6663 -12.633087,-31.21236 -4.62764,-31.21236 2.53851,0 3.37965,1.89619 5.86798,13.22821 2.25556,10.27193 7.18832,5.58351 5.21158,-4.95341 -1.00075,-5.33444 -0.48011,-10.03151 1.35727,-12.24542 4.71957,-5.68672 9.81787,0.53729 9.81787,11.98565 0,11.70486 5.81875,12.15717 6.98299,0.54279 1.24682,-12.43788 2.55224,-14.55679 6.7976,-11.03345 2.25724,1.87333 3.72069,7.39276 3.72069,14.03257 0,7.97711 0.99945,10.9447 3.68607,10.9447 2.02735,0 5.35752,3.23224 7.40042,7.18278 5.26056,10.17282 23.91608,14.71123 23.91608,5.81818 0,-5.41453 -4.64999,-10.50077 -9.60011,-10.50077 -1.97979,0 -5.09424,-1.9689 -6.92098,-4.37532 -3.76595,-4.96102 -4.61981,-19.62719 -1.26349,-21.70152 2.75745,-1.7042 6.95246,3.25284 8.13985,9.61846 1.92074,10.297 6.51187,6.42692 7.79314,-6.56918 0.7171,-7.27381 0.93484,-13.62358 0.48386,-14.11059 -0.45098,-0.48701 -18.51065,0.19977 -40.13261,1.52639 -33.48705,2.05447 -39.808624,3.0901 -42.659377,6.98876 -2.22992,3.0496 -3.3467,12.36943 -3.3467,27.92922 0,18.74132 -0.76181,23.64468 -3.85811,24.83284 -2.12195,0.81429 -4.51503,0.82356 -5.31794,0.02 -3.13288,-3.13286 -4.75584,-21.24311 -3.43642,-38.34609 1.96532,-25.47576 6.27398,-29.57596 33.335247,-31.72259 29.19138,-2.31557 31.78107,-3.28417 31.78107,-11.88685 0,-5.27516 1.20722,-7.20895 4.50033,-7.20895 5.69947,0 10.50077,4.72427 10.50077,10.33228 0,6.01394 6.59111,7.52915 29.23774,6.72129 33.00434,-1.17734 42.07883,6.35682 44.57222,37.00639 1.08283,13.31049 0.52863,18.29168 -2.45308,22.04843 -3.81301,4.80413 -3.88904,4.80413 -7.5227,0 -2.12331,-2.80725 -3.70428,-10.43891 -3.75028,-18.1033 -0.10201,-17.00699 -5.20655,-27.09733 -14.36625,-28.39857 -13.41451,-1.90572 -15.71545,-0.17377 -15.71545,11.82981 0,6.08715 1.12508,11.06751 2.50018,11.06751 1.3751,0 2.50018,-3.93779 2.50018,-8.75064 0,-7.08384 0.95245,-8.75064 5.00037,-8.75064 2.7502,0 5.00037,0.2887 5.00037,0.64155 0,0.35285 1.03565,4.25263 2.30142,8.66616 1.87058,6.52232 1.36857,9.21052 -2.68165,14.35955 -2.74068,3.4842 -7.15157,6.33494 -9.80197,6.33494 -3.05747,0 -4.8189,1.72605 -4.8189,4.72212 0,3.4784 2.46938,5.18358 9.37569,6.4742 5.15662,0.96362 10.78203,2.91421 12.50091,4.33464 5.35314,4.42365 3.68957,16.16458 -3.04045,21.45842 -3.39112,2.66744 -5.43287,5.58271 -4.53723,6.47835 0.89564,0.89564 2.26384,6.38914 3.04045,12.20777 1.11555,8.35823 2.4403,10.57935 6.30986,10.57935 3.46518,0 5.35967,-2.25787 6.47655,-7.71879 2.42143,-11.83954 4.59611,-14.37798 9.10892,-10.63268 5.62998,4.67247 2.67037,22.10034 -4.6997,27.67447 -12.21544,9.23881 -14.53354,12.82959 -14.53354,22.51285 0,11.62948 4.19224,42.22159 7.45757,54.42044 2.21022,8.2571 7.4603,29.11237 12.85062,51.04777 4.91764,20.0117 -2.79563,22.3194 -11.13479,3.3312 z M 141.53987,836.20651 c 3.76945,-5.7529 5.46705,-13.83896 2.90537,-13.83896 -5.97979,0 -13.55137,6.70546 -14.44474,12.79243 -1.36457,9.29746 5.7126,9.93933 11.53937,1.04653 z"
       id="path3067"
       inkscape:connector-curvature="0" />
  </g>
</svg>
