<?xml version="1.0" encoding="UTF-8" standalone="no"?>
<!-- Created with Inkscape (http://www.inkscape.org/) -->

<svg
   xmlns:dc="http://purl.org/dc/elements/1.1/"
   xmlns:cc="http://creativecommons.org/ns#"
   xmlns:rdf="http://www.w3.org/1999/02/22-rdf-syntax-ns#"
   xmlns:svg="http://www.w3.org/2000/svg"
   xmlns="http://www.w3.org/2000/svg"
   xmlns:sodipodi="http://sodipodi.sourceforge.net/DTD/sodipodi-0.dtd"
   xmlns:inkscape="http://www.inkscape.org/namespaces/inkscape"
   width="300"
   height="300"
   id="svg2"
   version="1.1"
   inkscape:version="0.48.4 r9939"
   sodipodi:docname="image-seal.svg">
  <defs
     id="defs4" />
  <sodipodi:namedview
     id="base"
     pagecolor="#ffffff"
     bordercolor="#666666"
     borderopacity="1.0"
     inkscape:pageopacity="0.0"
     inkscape:pageshadow="2"
     inkscape:zoom="2.0018437"
     inkscape:cx="145.03351"
     inkscape:cy="130.6666"
     inkscape:document-units="px"
     inkscape:current-layer="layer1"
     showgrid="false"
     inkscape:window-width="1215"
     inkscape:window-height="1000"
     inkscape:window-x="65"
     inkscape:window-y="24"
     inkscape:window-maximized="1"
     fit-margin-top="10"
     fit-margin-left="10"
     fit-margin-right="10"
     fit-margin-bottom="10" />
  <metadata
     id="metadata7">
    <rdf:RDF>
      <cc:Work
         rdf:about="">
        <dc:format>image/svg+xml</dc:format>
        <dc:type
           rdf:resource="http://purl.org/dc/dcmitype/StillImage" />
        <dc:title />
      </cc:Work>
    </rdf:RDF>
  </metadata>
  <g
     inkscape:label="Calque 1"
     inkscape:groupmode="layer"
     id="layer1"
     transform="translate(0,-752.36218)">
    <path
       style="fill:#000000"
       d="m 190.95093,1041.6348 c -1.9801,-3.6999 -2.66838,-13.9831 -1.86275,-27.8298 1.50731,-25.90666 0.8243,-28.73498 -6.95321,-28.79417 -8.90326,-0.0679 -27.44575,-11.60924 -28.39924,-17.67695 -0.46298,-2.94615 -2.07311,-7.8556 -3.57809,-10.90955 -4.24713,-8.61882 -1.96997,-35.17368 3.01623,-35.17368 3.02155,0 4.42304,4.23792 5.4302,16.42042 1.82672,22.09528 7.30526,29.9441 22.49044,32.22126 17.7818,2.6665 33.56577,-0.76621 42.68298,-9.28294 6.99565,-6.53498 7.88199,-9.0888 7.36477,-21.22031 -0.68467,-16.05931 3.46115,-22.62247 10.09789,-15.98573 4.89835,4.89834 5.50536,20.35875 1.38224,35.20555 -3.34463,12.04365 -12.40848,18.7953 -28.03216,20.88077 l -11.18698,1.4933 -0.65512,29.86613 c -0.36032,16.4263 -1.23831,31.3933 -1.9511,33.26 -1.97182,5.1635 -6.3468,4.0642 -9.8461,-2.4743 z M 96.115078,1027.03 c -1.5346,-4.0363 -1.77192,-8.7174 -0.52738,-10.4024 6.164342,-8.3459 12.757072,-63.73073 8.136242,-68.35156 -1.03313,-1.03309 -3.54807,-0.20635 -5.588742,1.83867 -6.43216,6.44402 -22.63683,30.52372 -27.64852,41.08492 -2.64814,5.58062 -5.897374,10.14657 -7.22053,10.14657 -1.323159,0 -2.40574,1.7605 -2.40574,3.9122 0,5.3658 -5.277279,8.1871 -8.773844,4.6906 -3.543042,-3.5432 0.977594,-15.84068 11.945726,-32.4962 4.228688,-6.42122 7.688528,-12.61518 7.688528,-13.76421 0,-1.14903 7.32546,-9.94596 16.27881,-19.54849 12.959442,-13.89915 16.281232,-19.25854 16.290622,-26.28333 0.005,-4.85324 -0.59626,-8.82408 -1.33947,-8.82408 -0.74317,0 -5.882462,4.27395 -11.420582,9.4977 -5.53813,5.22372 -12.26084,10.19323 -14.93936,11.04335 -2.67851,0.85013 -4.87002,2.48904 -4.87002,3.64201 0,1.153 -3.09569,3.50683 -6.879303,5.23075 -5.729139,2.61038 -7.161578,2.3988 -8.567669,-1.2654 -1.687243,-4.39689 0.237327,-6.42757 26.179762,-27.62293 6.04341,-4.93757 10.98802,-10.7411 10.98802,-12.89673 0,-2.15566 1.2218,-3.91936 2.7151,-3.91936 4.540822,0 3.12552,-15.55216 -1.57961,-17.35767 -5.67849,-2.17904 -5.62697,-2.18895 -9.76563,1.87494 -6.13443,6.02356 -28.851101,20.91293 -31.906804,20.91293 -1.597577,0 -2.904684,-2.9111 -2.904684,-6.46913 0,-5.15606 3.071511,-7.9719 15.132311,-13.87268 8.322767,-4.07195 15.836527,-9.23871 16.697237,-11.48168 0.8607,-2.24297 -0.71463,-7.91276 -3.50073,-12.59956 -7.1012,-11.94564 -8.83204,-55.92736 -2.76232,-70.19207 5.85756,-13.76614 11.54242,-16.05798 37.555492,-15.14038 18.74908,0.66137 22.48973,1.55257 23.25156,5.53959 0.70533,3.69143 -0.95368,4.75143 -7.4365,4.75143 -7.38757,0 -8.3444,0.89821 -8.3444,7.83304 0,5.33197 2.13944,9.23488 6.70046,12.22336 7.55453,4.94991 6.6106,12.52482 -1.56075,12.52482 -7.24563,0 -6.53685,8.95978 0.96927,12.2529 8.8335,3.87549 7.51124,10.41264 -2.71511,13.42328 -5.79071,1.70478 -8.82408,4.3043 -8.82408,7.56205 0,2.73033 -1.9893,8.00032 -4.42067,11.71107 -4.04398,6.17192 -4.05748,7.72539 -0.15802,18.2314 2.34444,6.31654 5.09016,17.33331 6.10157,24.48174 1.82514,12.89964 1.88672,12.96584 8.20783,8.82409 3.50289,-2.29519 7.66392,-4.17306 9.24671,-4.17306 6.083,0 8.53816,16.394 8.32445,55.58609 -0.17376,31.85846 -1.083,41.53832 -4.19431,44.64952 -2.18487,2.1849 -4.82471,3.1205 -5.86631,2.0787 -1.04156,-1.0415 -1.60384,-20.21199 -1.24946,-42.60127 0.35438,-22.38897 -0.34976,-40.68862 -1.56474,-40.66576 -5.22293,0.0983 -9.41437,5.11468 -10.3967,12.44285 -0.58086,4.33336 -1.70473,20.09689 -2.49746,35.02995 -2.62672,49.48083 -12.75544,77.48813 -20.580222,56.90743 z m 3.54345,-183.15975 c 1.129512,-4.31922 0.0834,-5.43021 -5.11353,-5.43021 -3.63458,0 -6.53357,1.60628 -6.53357,3.62013 0,8.522 9.50559,9.99926 11.6471,1.81008 z m 4.643502,-23.3949 c 0,-2.06586 0.0337,-4.5959 0.0747,-5.62229 0.10535,-2.63194 -8.447392,-3.80082 -15.686472,-2.14379 -7.08201,1.62105 -8.07102,8.07232 -1.77748,11.59435 5.91566,3.31058 17.389312,0.78466 17.389312,-3.82827 z m 1.35756,-29.51239 c 0,-5.6459 -1.4825,-8.39363 -4.88187,-9.0483 -6.825562,-1.31449 -12.766292,4.37699 -12.766292,12.23067 0,5.84146 1.04638,6.52645 8.82407,5.77654 7.795552,-0.75162 8.824092,-1.79591 8.824092,-8.95891 z m 67.22682,163.54777 c -5.11656,-6.49615 -6.06581,-17.22043 -2.03378,-22.97698 5.90966,-8.43724 27.18881,-12.81743 40.67864,-8.37349 13.48316,4.44177 18.44023,16.7957 11.18336,27.87107 -4.18595,6.38863 -6.00713,6.87328 -25.82928,6.87328 -13.82483,0 -22.266,-1.19383 -23.99894,-3.39388 z m 37.98338,-9.35977 c 1.11997,-0.62828 2.03632,-2.77997 2.03632,-4.78143 0,-3.6406 -21.99803,-7.23485 -29.18734,-4.76894 -6.6586,2.28389 -3.72336,11.03607 4.07265,12.14356 7.26116,1.03174 18.96021,-0.28291 23.07837,-2.59319 z m -28.77544,-29.89091 c -21.35422,-1.45787 -28.92048,-8.62737 -28.92048,-27.40396 0,-17.33582 5.22527,-22.10576 26.1524,-23.87354 18.73725,-1.58274 38.70126,-1.42863 44.44025,0.34306 2.23996,0.69151 5.5999,4.55719 7.46653,8.59042 4.04881,8.74824 4.53408,30.68646 0.67877,30.68646 -1.4933,0 -2.7151,1.70199 -2.7151,3.78216 0,2.0802 -1.67649,4.42551 -3.72552,5.2118 -6.57386,2.5226 -27.03666,3.77915 -43.37685,2.6636 z m 32.98384,-14.91568 c 6.13917,-6.13918 3.21865,-7.07673 -22.53534,-7.23431 -14.18641,-0.0869 -25.79347,0.31851 -25.79347,0.90071 0,0.5822 1.91998,2.97852 4.26659,5.32513 5.24797,5.24796 39.04911,6.02158 44.06222,1.00847 z m 2.58649,-21.85657 c -1.80378,-5.44574 -46.39238,-6.12856 -50.8326,-0.77842 -3.07624,3.70665 -0.37015,4.17229 24.24703,4.17229 20.95725,0 27.43578,-0.82704 26.58557,-3.39387 z m -52.27285,-23.06618 c -2.98661,-0.66441 -9.40104,-4.99677 -14.25429,-9.62743 -8.08443,-7.71365 -8.81683,-9.79714 -8.73774,-24.85616 0.10888,-20.72649 3.80269,-25.93962 18.37969,-25.93962 13.16065,0 14.32309,-1.46382 15.21815,-19.16351 0.37764,-7.46803 2.03454,-14.92614 3.682,-16.57358 4.41669,-4.41671 11.50566,-0.62163 11.50566,6.15959 0,5.55637 0.86242,5.78786 15.25892,4.09584 10.04412,-1.1805 16.55083,-0.72119 19.03919,1.34397 6.77834,5.62553 -1.00366,10.56218 -16.64995,10.56218 -9.37052,0 -15.42838,1.39798 -17.64816,4.07265 -4.11689,4.96055 -5.31539,4.57854 17.30054,5.5144 24.96795,1.03315 27.49864,3.77725 27.49864,29.8172 0,18.10682 -0.72846,20.93305 -7.01615,27.22074 -6.40555,6.40555 -9.24107,7.08427 -32.58122,7.79897 -14.06078,0.43056 -28.00867,0.2392 -30.99528,-0.42524 z m 8.1453,-14.26648 c -0.92291,-1.4933 -3.43859,-2.7151 -5.59042,-2.7151 -2.15185,0 -3.91243,1.2218 -3.91243,2.7151 0,1.49331 2.5157,2.71511 5.59045,2.71511 3.07474,0 4.83532,-1.2218 3.9124,-2.71511 z m 11.48263,1.07472 c -0.9022,-0.9022 -3.24398,-0.99864 -5.20395,-0.21422 -2.16592,0.86674 -1.52255,1.51011 1.64038,1.64038 2.86215,0.11784 4.46577,-0.52382 3.56357,-1.42602 z m 22.45615,-1.07472 c 0,-1.4933 -2.44359,-2.7151 -5.43021,-2.7151 -2.98661,0 -5.4302,1.2218 -5.4302,2.7151 0,1.49331 2.44359,2.71511 5.4302,2.71511 2.98662,0 5.43021,-1.2218 5.43021,-2.71511 z m -17.64816,-8.1453 c 0.92291,-1.49331 -0.90978,-2.7151 -4.07266,-2.7151 -3.16287,0 -4.99557,1.22179 -4.07265,2.7151 0.92292,1.4933 2.75561,2.7151 4.07265,2.7151 1.31704,0 3.14974,-1.2218 4.07266,-2.7151 z m -31.22368,-2.7151 c 0,-1.49331 -1.29391,-2.71511 -2.87532,-2.71511 -1.58144,0 -2.12025,1.2218 -1.19733,2.71511 0.92292,1.4933 2.21683,2.7151 2.87535,2.7151 0.65852,0 1.1973,-1.2218 1.1973,-2.7151 z m 65.16245,-5.43021 c 0,-4.47992 -1.03587,-8.1453 -2.30192,-8.1453 -1.26605,0 -2.40612,3.66538 -2.53351,8.1453 -0.12734,4.47992 0.9085,8.14531 2.30191,8.14531 1.39345,0 2.53352,-3.66539 2.53352,-8.14531 z m -47.99035,0.92859 c 2.44701,-2.44701 -3.39681,-9.07389 -8.00168,-9.07389 -2.05712,0 -3.74021,2.44359 -3.74021,5.4302 0,5.2825 7.7104,7.67516 11.74189,3.64369 z m 34.41484,-0.92859 c 0,-1.4933 -1.29391,-2.7151 -2.87535,-2.7151 -1.58141,0 -2.12022,1.2218 -1.1973,2.7151 0.92291,1.49331 2.21682,2.7151 2.87534,2.7151 0.65852,0 1.19731,-1.22179 1.19731,-2.7151 z m -51.58694,-9.6631 c 0,-2.15183 -1.22179,-3.91241 -2.7151,-3.91241 -1.4933,0 -2.7151,2.51571 -2.7151,5.59045 0,3.07475 1.2218,4.83533 2.7151,3.91241 1.49331,-0.92292 2.7151,-3.43862 2.7151,-5.59045 z m 21.72082,-6.62751 c 0,-1.49331 -1.90481,-2.7151 -4.2329,-2.7151 -2.32806,0 -3.47777,1.22179 -2.55486,2.7151 0.92292,1.49331 2.82773,2.7151 4.2329,2.7151 1.40518,0 2.55486,-1.22179 2.55486,-2.7151 z m 30.08254,-1.61831 c 3.13993,-3.78341 2.77836,-4.21416 -2.84877,-3.39388 -3.54483,0.51674 -6.94813,2.46678 -7.56286,4.33342 -1.60875,4.88495 6.15951,4.18394 10.41163,-0.93954 z"
       id="path3249"
       inkscape:connector-curvature="0" />
  </g>
</svg>
