<?xml version="1.0" encoding="UTF-8" standalone="no"?>
<!-- Created with Inkscape (http://www.inkscape.org/) -->

<svg
   xmlns:dc="http://purl.org/dc/elements/1.1/"
   xmlns:cc="http://creativecommons.org/ns#"
   xmlns:rdf="http://www.w3.org/1999/02/22-rdf-syntax-ns#"
   xmlns:svg="http://www.w3.org/2000/svg"
   xmlns="http://www.w3.org/2000/svg"
   xmlns:sodipodi="http://sodipodi.sourceforge.net/DTD/sodipodi-0.dtd"
   xmlns:inkscape="http://www.inkscape.org/namespaces/inkscape"
   version="1.0"
   width="300"
   height="300"
   id="svg2"
   inkscape:version="0.48.4 r9939"
   sodipodi:docname="dessin.svg">
  <metadata
     id="metadata2990">
    <rdf:RDF>
      <cc:Work
         rdf:about="">
        <dc:format>image/svg+xml</dc:format>
        <dc:type
           rdf:resource="http://purl.org/dc/dcmitype/StillImage" />
      </cc:Work>
    </rdf:RDF>
  </metadata>
  <sodipodi:namedview
     pagecolor="#ffffff"
     bordercolor="#666666"
     borderopacity="1"
     objecttolerance="10"
     gridtolerance="10"
     guidetolerance="10"
     inkscape:pageopacity="0"
     inkscape:pageshadow="2"
     inkscape:window-width="1215"
     inkscape:window-height="1000"
     id="namedview2988"
     showgrid="false"
     inkscape:zoom="2.2250294"
     inkscape:cx="124.56767"
     inkscape:cy="138.09744"
     inkscape:window-x="65"
     inkscape:window-y="24"
     inkscape:window-maximized="1"
     inkscape:current-layer="svg2" />
  <defs
     id="defs5" />
  <path
     style="fill:#000000"
     d="m 162.83474,280.35331 c -0.61305,-12.45286 -0.69952,-27.59684 -0.25792,-45.15947 0.41961,-16.68582 1.40729,-20.22533 7.22429,-25.88978 8.39861,-8.17836 13.03417,-16.40166 11.02781,-19.56288 -0.84182,-1.32634 -0.31196,-3.14492 1.17741,-4.04128 3.97046,-2.38953 -8.48069,-19.85917 -14.18219,-19.89846 -2.61868,-0.0185 -4.76124,1.75551 -4.76124,3.94124 0,2.18572 -1.22433,3.97404 -2.7207,3.97404 -1.49639,0 -2.72071,1.27737 -2.72071,2.83859 0,3.66798 -6.92174,10.40818 -10.68848,10.40818 -4.99887,0 -3.20725,-6.37066 3.88671,-13.82056 3.74097,-3.92868 6.80177,-9.50912 6.80177,-12.40102 0,-2.89188 1.22432,-5.99481 2.72071,-6.89538 4.92067,-2.96136 2.87296,-14.92677 -3.40088,-19.87237 -5.07302,-3.99902 -6.19712,-7.70226 -6.56252,-21.61955 -0.38927,-14.826434 -1.10645,-16.893091 -6.12158,-17.640529 -3.12439,-0.465624 -5.68068,0.428534 -5.68068,1.987017 0,1.558512 -1.83647,2.833621 -4.08105,2.833621 -6.83079,0 -6.65117,-0.316625 11.23273,-19.802003 5.31515,-5.791094 11.51998,-14.024415 13.78854,-18.296265 2.26854,-4.271852 6.44313,-10.190329 9.27679,-13.152177 2.8337,-2.961845 5.15218,-6.84933 5.15218,-8.638859 0,-1.78953 0.91823,-3.651092 2.04053,-4.13681 1.12229,-0.485713 4.09931,-4.459749 6.61561,-8.831187 6.66439,-11.577739 10.7791,-10.897459 19.74919,3.265115 7.31949,11.556499 23.49956,28.175107 44.8886,46.105189 9.3153,7.808844 10.72475,12.897411 3.566,12.874044 -4.65978,-0.01597 -30.87443,-22.974941 -49.50762,-43.360552 l -9.37721,-10.259128 -6.25333,7.609772 c -3.43932,4.185374 -6.25942,8.589086 -6.26684,9.786029 -0.008,1.196939 -1.85,3.964571 -4.09458,6.150291 -7.62238,7.42249 -4.42901,9.160025 15.36051,8.357753 12.45832,-0.50506 19.82298,0.266439 20.50343,2.147882 1.44801,4.003712 -34.32887,7.566592 -38.19328,3.803518 -4.60515,-4.484385 -9.25491,-3.226245 -16.6055,4.493134 -7.66928,8.05408 -9.12544,16.58554 -2.8308,16.58554 2.24457,0 4.08105,1.267744 4.08105,2.81722 0,1.581585 3.86993,2.453093 8.82336,1.987016 6.54555,-0.615867 9.76314,-2.748839 12.46363,-8.262176 5.56316,-11.35786 11.36147,-4.783256 11.36147,12.882625 0,17.39467 -3.82459,27.75066 -10.91557,29.55636 -2.97477,0.75753 -5.40865,3.52518 -5.40865,6.15035 0,2.62516 -0.65313,6.43041 -1.45142,8.45613 -0.79826,2.02573 1.18399,6.59402 4.40504,10.15179 3.22106,3.55777 8.12281,11.55144 10.89275,17.76374 5.7661,12.9319 4.36851,18.85817 -7.2538,30.75854 -7.38084,7.55745 -7.43166,7.86608 -7.08821,43.05205 0.3282,33.6229 0.0708,35.44004 -5.02063,35.44004 -3.21027,0 -5.45826,-1.86292 -5.5948,-4.63638 z m 17.3408,-159.62373 c 0.78261,-2.9143 0.75168,-7.79834 -0.0688,-10.85341 -1.22869,-4.57534 -2.92269,-5.27601 -9.60785,-3.97404 -4.46385,0.86936 -9.18741,1.58065 -10.49674,1.58065 -4.30084,0 -2.4887,7.84285 3.06078,13.2468 2.99278,2.91428 7.74727,5.29871 10.56552,5.29871 2.83594,0 5.75949,-2.36609 6.54704,-5.29871 z m 35.86291,150.45884 c -2.62374,-18.57641 -2.08583,-35.42235 1.32944,-41.63652 1.54571,-2.81246 2.15852,-6.76777 1.36177,-8.78964 -0.79676,-2.02185 1.83558,-7.12688 5.84963,-11.34451 9.6794,-10.17035 11.95798,-27.17003 4.52037,-33.72446 -5.03591,-4.43793 -5.37644,-4.3818 -8.07606,1.33144 -8.04266,17.02076 -9.95422,20.28595 -15.66483,26.75751 -3.40963,3.86401 -7.5873,7.02547 -9.28369,7.02547 -3.70908,0 -4.14648,-9.64549 -0.5359,-11.81841 3.34592,-2.01368 11.05511,-17.14987 11.05511,-21.70557 0,-1.96186 1.16677,-3.56701 2.59282,-3.56701 2.93004,0 8.2518,-16.70877 8.27482,-25.98058 0.008,-3.36071 -3.52629,-9.32177 -7.85473,-13.24679 -4.32843,-3.925 -8.71669,-11.03695 -9.75163,-15.80434 -3.68769,-16.98696 4.48594,-40.033322 8.67109,-24.449005 2.0694,7.705895 22.41696,7.705895 24.48636,0 3.32994,-12.399837 11.67115,-2.372818 11.67115,14.030015 0,13.64628 -7.76449,28.3597 -14.96583,28.3597 -9.15174,0 -6.53573,20.12011 3.76023,28.9203 6.33109,5.4113 11.2056,14.4358 11.2056,20.74568 0,5.63831 -10.32024,27.68901 -14.0527,30.02565 -4.14195,2.59301 -6.92542,27.59012 -4.73959,42.56417 3.36767,23.07036 3.05142,26.10817 -2.71806,26.10817 -4.18784,0 -5.56131,-2.65659 -7.13537,-13.80127 z m 14.9179,-148.98833 c 5.09243,-5.97511 2.51241,-16.13031 -3.95677,-15.57421 -15.97075,1.37287 -17.59816,3.22682 -15.2875,17.41539 0.57933,3.55721 15.89195,2.09217 19.24427,-1.84118 z M 95.725515,264.68959 c -1.870494,-0.73497 -3.400887,-3.04144 -3.400887,-5.1255 0,-3.56822 5.090009,-14.05559 8.233452,-16.96411 0.78743,-0.72857 3.4393,-10.26625 5.89305,-21.19486 2.45376,-10.92859 5.31914,-22.55264 6.36756,-25.83122 1.36403,-4.26556 0.80112,-5.96105 -1.97915,-5.96105 -4.77826,0 -12.951063,7.24911 -23.061565,20.45511 -4.21606,5.50686 -8.284686,10.6086 -9.041396,11.33716 -3.22488,3.10499 -12.768382,17.59319 -14.39754,21.8572 -2.485175,6.50462 -10.104294,5.86567 -10.104294,-0.84731 0,-10.91824 32.712054,-49.70075 52.173075,-61.85493 6.3439,-3.96202 7.08252,-5.80397 5.73651,-14.30587 -0.84971,-5.36706 -1.89156,-10.16521 -2.31517,-10.66255 -1.86782,-2.19282 -12.879684,3.25387 -20.774276,10.27538 -9.67698,8.60677 -24.000137,16.07266 -27.172371,14.16352 -3.921027,-2.3598 3.693332,-10.32091 14.930636,-15.61059 6.162969,-2.90112 14.640989,-8.07799 18.840045,-11.50422 4.199026,-3.42619 9.453006,-5.55 11.675496,-4.7195 2.22249,0.83046 4.04088,0.51593 4.04088,-0.69895 0,-4.28152 -11.32913,-16.1703 -15.409067,-16.1703 -2.272232,0 -11.112864,4.76884 -19.645868,10.59743 -16.350573,11.16852 -21.961458,13.00611 -21.039738,6.89068 0.953119,-6.32362 7.215123,-11.87188 20.343753,-18.02489 6.943704,-3.25434 13.035637,-6.15637 13.53758,-6.44897 0.50197,-0.29259 -0.913559,-4.5035 -3.145599,-9.35755 C 79.07468,99.900144 76.427517,86.2545 75.448524,60.538576 74.876958,45.524949 75.528236,43.343434 82.782896,35.969744 94.964553,23.58827 127.56016,15.684928 135.31179,23.233253 c 5.01009,4.878716 3.91335,7.418201 -3.20381,7.418201 -3.55773,0 -7.93681,1.722693 -9.73131,3.828208 -4.80063,5.63271 -2.42839,15.815111 3.95678,16.983725 5.25831,0.962376 9.39468,4.886076 9.48082,8.993329 0.0218,1.09286 -3.6313,1.987017 -8.12047,1.987017 -7.21215,0 -8.16212,0.903594 -8.16212,7.763805 0,5.942253 1.38626,7.962438 5.90847,8.61041 7.58491,1.086811 9.80998,7.41231 3.22048,9.155269 -2.77634,0.734349 -7.29579,6.318583 -10.04324,12.409403 -2.74742,6.09082 -6.33443,13.78079 -7.97109,17.0888 -2.18057,4.40737 -2.14567,6.82294 0.13059,9.03961 1.70855,1.66377 4.61696,11.77856 6.46306,22.47732 2.24729,13.02347 4.25963,18.57301 6.08894,16.79163 4.21878,-4.10814 14.474,-3.1465 16.31687,1.53002 2.18309,5.53981 1.74904,62.77902 -0.59074,77.9046 -1.22198,7.89952 -3.32128,12.16484 -6.25778,12.71451 -4.88298,0.91399 -9.50336,-7.3767 -5.47188,-9.81859 4.05073,-2.45355 8.26192,-46.53336 5.71514,-59.82234 -0.27924,-1.45715 -0.27016,-5.43836 0.019,-8.84716 0.40121,-4.71032 -0.66919,-5.97618 -4.45993,-5.27441 -3.92936,0.72744 -5.4662,4.57269 -7.24215,18.11991 -3.50658,26.74906 -7.45402,45.01475 -9.72829,45.01475 -1.14089,0 -2.07437,3.5818 -2.07437,7.95954 0,7.80414 -5.73024,21.38684 -8.84858,20.97422 -0.869427,-0.11493 -3.111184,-0.81049 -4.981667,-1.54544 z m 9.602975,-160.01024 c 3.98986,-12.448722 2.72842,-15.742059 -6.029522,-15.742059 -8.251956,0 -14.519974,6.958801 -10.123883,11.239609 1.732246,1.68681 3.149543,5.11355 3.149543,7.61499 0,3.90942 3.012307,6.64551 8.179862,7.42983 0.75796,0.11499 2.92875,-4.62904 4.824,-10.54237 z m 3.95263,-30.142241 c 2.0244,-10.312212 -1.48044,-13.380543 -11.960516,-10.470857 -7.049021,1.957099 -9.269389,4.129108 -9.93792,9.72157 -0.808322,6.761658 -0.204598,7.201399 9.885463,7.201399 9.226183,0 10.925543,-0.912706 12.012973,-6.452112 z m -7.61114,-19.975871 c 5.36838,-1.987531 6.97888,-4.433065 6.97888,-10.597428 0,-6.761759 -1.05278,-8.013644 -6.73905,-8.013644 -7.659661,0 -16.543388,10.87508 -14.050786,17.200366 1.841754,4.673668 4.315177,4.926312 13.810956,1.410706 z"
     id="path3118"
     inkscape:connector-curvature="0" />
</svg>
