<?xml version="1.0" encoding="UTF-8" standalone="no"?>
<!-- Created with Inkscape (http://www.inkscape.org/) -->

<svg
   xmlns:dc="http://purl.org/dc/elements/1.1/"
   xmlns:cc="http://creativecommons.org/ns#"
   xmlns:rdf="http://www.w3.org/1999/02/22-rdf-syntax-ns#"
   xmlns:svg="http://www.w3.org/2000/svg"
   xmlns="http://www.w3.org/2000/svg"
   xmlns:sodipodi="http://sodipodi.sourceforge.net/DTD/sodipodi-0.dtd"
   xmlns:inkscape="http://www.inkscape.org/namespaces/inkscape"
   width="300"
   height="300"
   id="svg2"
   version="1.1"
   inkscape:version="0.48.4 r9939"
   sodipodi:docname="image-seal.svg">
  <defs
     id="defs4" />
  <sodipodi:namedview
     id="base"
     pagecolor="#ffffff"
     bordercolor="#666666"
     borderopacity="1.0"
     inkscape:pageopacity="0.0"
     inkscape:pageshadow="2"
     inkscape:zoom="2.0018437"
     inkscape:cx="145.03351"
     inkscape:cy="130.6666"
     inkscape:document-units="px"
     inkscape:current-layer="layer1"
     showgrid="false"
     inkscape:window-width="1215"
     inkscape:window-height="1000"
     inkscape:window-x="65"
     inkscape:window-y="24"
     inkscape:window-maximized="1"
     fit-margin-top="10"
     fit-margin-left="10"
     fit-margin-right="10"
     fit-margin-bottom="10" />
  <metadata
     id="metadata7">
    <rdf:RDF>
      <cc:Work
         rdf:about="">
        <dc:format>image/svg+xml</dc:format>
        <dc:type
           rdf:resource="http://purl.org/dc/dcmitype/StillImage" />
        <dc:title></dc:title>
      </cc:Work>
    </rdf:RDF>
  </metadata>
  <g
     inkscape:label="Calque 1"
     inkscape:groupmode="layer"
     id="layer1"
     transform="translate(0,-752.36218)">
    <path
       style="fill:#000000"
       d="m 213.37098,1040.11 c -3.93568,-10.3516 -3.54095,-36.875 0.66303,-44.55318 1.9622,-3.58379 8.61124,-14.01525 14.77565,-23.18104 12.83319,-19.08155 16.31652,-37.67109 12.95339,-69.12892 -2.3144,-21.64831 -6.40205,-30.36403 -18.08821,-38.56783 -12.02413,-8.44103 -15.27264,-13.10241 -15.3722,-22.05794 -0.0799,-7.18383 -0.63944,-7.57025 -8.79921,-6.07606 -10.61513,1.94383 -26.49565,-3.24009 -35.3191,-11.52929 -12.39596,-11.64541 -11.1892,-40.12282 2.19599,-51.82086 4.93006,-4.30864 9.37378,-4.79251 35.27436,-3.84108 20.5464,0.75476 32.6052,2.49865 39.32371,5.68678 8.66802,4.11325 9.88087,5.98586 11.49958,17.75517 2.56863,18.67618 -4.01794,31.14686 -20.82129,39.42195 -11.02529,5.4296 -12.38974,6.96889 -10.05094,11.33895 1.48837,2.78109 7.40919,7.69976 13.15735,10.93041 11.31672,6.36035 15.10155,12.08942 17.59923,26.63976 0.88599,5.16134 2.68275,15.78357 3.99285,23.60495 2.98339,17.81137 1.10731,45.77989 -3.86988,57.692 -2.08363,4.9868 -7.86318,13.16764 -12.84349,18.17961 -16.76578,16.8725 -18.93748,22.11602 -16.99843,41.04222 1.76526,17.23 0.42731,25.7166 -4.05435,25.7166 -1.35339,0 -3.70152,-3.2636 -5.21804,-7.2522 z m 0.0952,-221.32146 c -0.0625,-1.84334 -1.65488,-9.98753 -3.53864,-18.09821 -3.06142,-13.18111 -4.22547,-14.84038 -10.96438,-15.62916 -7.04769,-0.82493 -7.41831,-0.38779 -5.68316,6.70304 1.02092,4.17202 2.47597,11.20515 3.23341,15.62916 2.29528,13.40592 3.22987,14.74669 10.27917,14.74669 3.73297,0 6.73607,-1.50819 6.6736,-3.35152 z m -30.49656,-10.72487 c -0.56702,-6.26734 -1.15102,-14.1099 -1.29771,-17.42791 -0.20243,-4.57632 -1.88497,-6.03273 -6.96977,-6.03273 -3.68667,0 -6.70304,1.05573 -6.70304,2.34606 0,1.29034 -0.69757,5.83393 -1.55017,10.09687 -1.11303,5.56514 0.0759,9.81811 4.21643,15.08185 8.80715,11.19646 13.54344,9.63205 12.30426,-4.06414 z m 55.93556,-2.89115 c 3.19462,-12.93497 -0.36359,-19.22889 -10.87093,-19.22889 -8.3369,0 -8.28872,-0.2102 -4.79501,20.92524 1.40107,8.47581 2.6536,10.06239 7.4085,9.38425 4.13934,-0.59035 6.42368,-3.6557 8.25744,-11.0806 z M 87.434578,1031.18 c -2.9654,-1.845 -3.74202,-7.4589 -3.25717,-23.5459 0.73851,-24.50541 5.19612,-36.93065 18.191812,-50.70854 5.12839,-5.43705 9.32433,-11.44399 9.32433,-13.34876 0,-1.90476 1.08268,-3.46322 2.40599,-3.46322 2.89068,0 8.31888,-29.4671 8.31888,-45.15922 0,-10.62341 -8.58901,-33.64076 -13.74142,-36.82514 -3.79309,-2.34424 -13.070742,1.54706 -13.070742,5.48226 0,1.96514 4.22291,7.79593 9.384252,12.95727 6.04443,6.04443 9.38426,11.93525 9.38426,16.55201 0,9.44341 -7.97013,8.23367 -12.85134,-1.95059 -1.929322,-4.02544 -5.879162,-8.58807 -8.777342,-10.13912 -4.38601,-2.34733 -5.65642,-1.78902 -7.57757,3.32993 -1.90286,5.07037 -0.5189,8.10138 7.8831,17.26455 12.558902,13.69664 20.359412,38.13427 13.521452,42.36035 -4.93856,3.05219 -9.777352,-1.56331 -13.227082,-12.61668 -7.03795,-22.55043 -13.444,-24.01123 -13.444,-3.06573 0,17.11195 -1.16807,19.40284 -7.29878,14.3148 -3.70265,-3.07294 -4.15087,-7.9057 -2.95727,-31.88637 0.77377,-15.54545 2.21798,-31.43673 3.20936,-35.31393 1.65209,-6.46111 1.22221,-6.9385 -5.15118,-5.72016 -6.31539,1.20727 -6.99089,0.50075 -7.35927,-7.69723 -1.14836,-25.5573 0.34521,-33.06123 7.93383,-39.86052 6.54911,-5.86793 7.5632,-8.87432 8.13964,-24.13095 0.83946,-22.21822 2.29289,-26.79391 10.85774,-34.18224 9.67882,-8.34928 36.647462,-8.68765 45.361662,-0.56914 6.3015,5.87076 6.772,8.52632 5.98091,33.75802 -0.45506,14.51447 0.30453,17.25435 6.5016,23.45142 6.74551,6.74551 6.94668,7.82081 5.20247,27.80553 -0.99792,11.43375 -2.20313,21.23933 -2.67824,21.79019 -0.47509,0.55083 -2.72567,0.28708 -5.00128,-0.58617 -3.18171,-1.22095 -4.13746,-5.90602 -4.13746,-20.28212 0,-10.90759 -1.251,-19.46758 -3.00339,-20.55061 -4.76246,-2.94336 -42.035872,-1.26092 -50.052282,2.25925 -9.43185,4.1417 -11.20271,6.85179 -11.25248,17.22043 -0.0499,10.41042 3.71547,13.37852 8.48946,6.69186 5.59296,-7.83379 17.571432,-14.50323 22.842512,-12.71837 7.56988,2.56327 18.63333,13.36653 23.83487,23.27435 3.78083,7.20169 4.72422,15.37479 4.61453,39.97946 -0.15551,34.91166 -4.94912,49.3225 -19.20807,57.74547 -7.51368,4.43845 -17.096862,17.39911 -16.091992,21.76348 1.04843,4.55375 -3.85978,46.58498 -5.56291,47.63758 -0.98315,0.6076 -3.5398,0 -5.68139,-1.3175 z m 8.17168,-223.66048 c 0,-5.09195 1.3062,-12.12489 2.90265,-15.62873 2.825842,-6.20209 15.532512,-12.6502 24.928402,-12.6502 2.563,0 3.91433,-1.20654 3.00294,-2.68121 -0.9114,-1.47467 -8.80217,-2.68122 -17.53508,-2.68122 -14.317162,0 -15.997852,0.59301 -17.097662,6.03274 -2.47903,12.26144 -3.87409,33.66259 -2.29716,35.23952 3.83465,3.83465 6.09591,1.00401 6.09591,-7.6309 z m 29.399052,1.39072 c 1.52655,-2.85239 2.77554,-7.15544 2.77554,-9.56235 0,-6.30665 -14.39183,-4.30796 -15.62082,2.16935 -2.23605,11.78491 7.49684,17.38662 12.84528,7.393 z m 41.65318,175.89354 c -12.45792,-4.83552 -17.7397,-11.03584 -19.29803,-22.65411 -1.26853,-9.45762 -0.43569,-11.62331 7.32007,-19.03516 4.8133,-4.59984 9.86524,-8.36336 11.22652,-8.36336 4.496,0 10.1357,-7.56135 10.1357,-13.58929 0,-6.5818 -6.87383,-13.0065 -14.05598,-13.13761 -7.886,-0.14398 -18.11862,-11.06482 -18.11862,-19.33731 0,-4.15806 1.20655,-7.56012 2.68122,-7.56012 1.47467,0 2.68122,-2.12827 2.68122,-4.72948 0,-2.65354 4.79396,-7.6553 10.92169,-11.39517 10.33019,-6.30469 10.83673,-7.21024 9.35257,-16.72025 -1.32914,-8.51681 -0.82126,-10.05456 3.32076,-10.05456 5.16496,0 16.62322,13.39313 16.62322,19.43024 0,2.0874 3.57811,3.83271 8.64977,4.21916 4.75736,0.3625 11.45665,2.49825 14.88729,4.7461 5.25797,3.44515 6.1102,5.98694 5.42665,16.18514 -0.65832,9.82127 -2.17385,12.9218 -8.05271,16.47454 -6.78849,4.10245 -7.86567,4.04781 -17.20977,-0.87287 -14.60809,-7.69273 -15.3521,-13.11031 -1.54615,-11.25856 6.0021,0.80506 11.51151,0.8651 12.24319,0.13353 2.87158,-2.87159 -4.96505,-14.45297 -12.23316,-18.07878 -6.65582,-3.32036 -8.90067,-3.31889 -16.87059,0.0107 -9.68935,4.04845 -20.1647,13.64889 -20.12942,18.44819 0.0215,3.06098 12.21265,9.54891 17.94152,9.54891 1.91801,0 3.49491,0.90491 3.50425,2.01091 0.0107,1.106 3.62897,4.06626 8.04365,6.57834 8.61927,4.90462 10.19382,11.84492 4.92201,21.69539 -4.43891,8.29418 -9.2791,12.61482 -14.1317,12.61482 -2.31735,0 -4.21334,1.00267 -4.21334,2.22815 0,1.22548 -3.01637,3.84245 -6.70304,5.8155 -13.42963,7.18733 -4.85108,24.13095 12.2175,24.13095 12.65764,0 21.27901,-7.31235 21.33808,-18.09821 0.0587,-10.72934 6.61215,-27.87781 12.22109,-31.97916 5.59061,-4.08795 16.20045,-4.70385 18.44581,-1.07077 0.84171,1.36192 -2.17291,5.11318 -6.69918,8.33614 -4.52624,3.22298 -7.65949,6.43001 -6.96275,7.12675 0.69674,0.69674 -0.44033,5.35257 -2.52686,10.34626 -2.08649,4.99371 -3.79362,12.63059 -3.79362,16.97089 0,5.52044 -2.47855,9.97697 -8.24938,14.83281 -4.53713,3.81776 -9.66496,6.95784 -11.39517,6.97797 -1.73019,0.0214 -5.55889,0.52228 -8.50822,1.11585 -2.94934,0.59356 -8.98208,-0.32575 -13.40609,-2.04293 z"
       id="path3212"
       inkscape:connector-curvature="0" />
  </g>
</svg>
