<?xml version="1.0" encoding="UTF-8" standalone="no"?>
<svg
   xmlns:dc="http://purl.org/dc/elements/1.1/"
   xmlns:cc="http://creativecommons.org/ns#"
   xmlns:rdf="http://www.w3.org/1999/02/22-rdf-syntax-ns#"
   xmlns:svg="http://www.w3.org/2000/svg"
   xmlns="http://www.w3.org/2000/svg"
   viewBox="0 0 300 300"
   height="300"
   width="300"
   id="svg169"
   version="1.1">
  <metadata
     id="metadata175">
    <rdf:RDF>
      <cc:Work
         rdf:about="">
        <dc:format>image/svg+xml</dc:format>
        <dc:type
           rdf:resource="http://purl.org/dc/dcmitype/StillImage" />
        <dc:title></dc:title>
      </cc:Work>
    </rdf:RDF>
  </metadata>
  <defs
     id="defs173" />
  <path
     id="path179"
     d="m 84.106403,281.39488 -1.644725,-3.63937 0.148903,-38.28182 c 0.179468,-46.14122 0.960428,-56.60016 5.396472,-72.27142 1.566033,-5.53236 2.019286,-6.33011 5.327524,-9.37683 4.35075,-4.00682 12.848983,-8.22051 19.576183,-9.70646 8.087,-1.78632 19.45682,-2.47506 40.95982,-2.48117 24.60224,-0.007 32.87043,1.19102 42.74027,6.19283 8.12818,4.11915 11.77248,9.86911 13.94067,21.99547 2.05569,11.49727 3.71548,64.82535 2.80387,90.08709 -0.76954,21.32482 -0.70876,21.08669 -5.38139,21.08669 -1.94254,0 -2.35761,-0.35256 -3.45219,-2.93225 -1.12734,-2.6569 -1.29054,-6.56044 -1.73779,-41.56895 -0.27149,-21.25019 -0.67313,-42.20714 -0.89255,-46.57102 -0.57825,-11.50075 -2.18094,-22.22744 -3.79322,-25.38777 -2.45755,-4.81719 -7.61356,-8.14982 -15.91029,-10.28374 -9.47471,-2.43688 -58.01787,-1.62389 -69.56752,1.16512 -7.50404,1.81209 -9.22513,2.77916 -11.76187,6.60894 -5.60685,8.46479 -6.316298,16.10749 -6.4003,68.94895 -0.06611,41.57585 -0.107158,42.847 -1.463186,45.29412 -1.356712,2.44838 -2.782029,3.52167 -5.783951,4.35544 -1.234926,0.343 -1.713578,-0.15556 -3.10473,-3.23385 z m 54.585467,-49.21214 c -2.46653,-0.54806 -6.89512,-1.8283 -9.84129,-2.84498 -4.94832,-1.7076 -5.49169,-2.08899 -7.12782,-5.00297 -0.97412,-1.73495 -2.56756,-5.483 -3.54096,-8.32901 -2.35969,-6.8992 -2.45096,-16.76189 -0.24039,-25.97585 1.5061,-6.27757 1.53623,-6.32957 5.44047,-9.38733 8.44602,-6.61485 10.17035,-6.94677 29.34877,-5.64941 8.29053,0.56082 15.69175,1.35046 16.44714,1.75474 2.81903,1.50869 6.92935,5.80993 8.46354,8.85666 4.09849,8.13918 4.23542,21.71569 0.34211,33.92297 -1.24054,3.88969 -1.93298,4.92251 -4.7305,7.05592 -1.80247,1.3746 -5.11566,3.35739 -7.36263,4.40623 -3.75803,1.75416 -4.83181,1.9183 -13.39962,2.04824 -6.08699,0.0923 -10.86804,-0.204 -13.79882,-0.85521 z m 24.49291,-12.42506 c 4.12495,-2.04168 4.14376,-2.06482 5.29998,-6.52261 1.35752,-5.23398 1.58862,-14.6095 0.46965,-19.05334 -0.98771,-3.92258 -4.27117,-7.45881 -7.84751,-8.45168 -1.51345,-0.42015 -6.87237,-0.76566 -11.90875,-0.76777 l -9.15702,-0.004 -5.40237,2.71626 c -5.19139,2.61018 -5.44003,2.84594 -6.36664,6.03698 -0.56116,1.93251 -0.9566,6.34922 -0.94591,10.56511 0.0164,6.46773 0.22074,7.66035 1.90619,11.12436 1.68271,3.45839 2.20548,3.96524 4.81123,4.66471 6.91757,1.8569 8.87238,2.0808 16.72221,1.91532 7.6058,-0.16034 8.61603,-0.34122 12.41894,-2.22349 z m -22.07812,-90.70953 c -15.23922,-1.27217 -30.50625,-5.35286 -33.28113,-8.89562 -5.02019,-6.40941 -7.10641,-14.94727 -5.82238,-23.828052 1.38,-9.54455 1.94776,-10.594274 7.16922,-13.255142 8.86385,-4.517021 13.16721,-5.216724 34.26523,-5.571337 30.57324,-0.51387 40.66375,1.280561 47.87283,8.513383 2.82088,2.830173 4.64655,7.634166 4.64655,12.226736 0,4.360202 -2.115,15.844752 -3.26449,17.726212 -3.11925,5.1056 -8.71619,8.61144 -17.5723,11.00702 -9.73895,2.63439 -19.90136,3.25489 -34.01353,2.0768 z m 27.10928,-12.11146 c 4.99749,-1.03133 10.84815,-3.35846 13.30378,-5.29165 1.44331,-1.13626 2.54012,-4.45931 3.0973,-9.38415 0.65921,-5.826662 -1.1412,-9.683531 -5.50688,-11.796925 -4.9101,-2.376929 -19.56188,-3.024515 -41.79815,-1.847393 -20.27412,1.073252 -22.08007,1.51222 -23.5339,5.720336 -2.12307,6.145312 -0.55869,14.829972 3.29988,18.319302 1.91901,1.73536 10.13747,3.64083 21.26893,4.93125 6.57312,0.76198 24.96498,0.36127 29.86904,-0.65077 z M 220.23613,75.025179 C 202.87074,66.524153 188.1286,61.904513 162.49484,56.931215 c -8.786,-1.704603 -10.56355,-1.835052 -19.66332,-1.443025 -13.27603,0.571944 -27.80617,3.512566 -41.39646,8.377856 -6.906076,2.472352 -9.9935,3.953893 -19.318356,9.270169 -11.143066,6.352869 -16.540194,7.953673 -21.939781,6.507391 -1.401828,-0.37548 -1.562462,-0.787938 -1.379878,-3.543057 0.204781,-3.090122 0.256176,-3.148945 5.726164,-6.553762 8.236867,-5.127076 24.008657,-13.063364 31.047347,-15.622884 9.425164,-3.427326 17.794004,-5.369507 31.124134,-7.223071 6.66091,-0.926203 12.30319,-1.876448 12.53839,-2.111657 0.23521,-0.235209 0.61126,-5.461835 0.83569,-11.614725 0.35041,-9.607498 0.63105,-11.689398 1.98755,-14.7447 1.53852,-3.465284 1.63462,-3.541823 3.70263,-2.948727 5.40557,1.550298 7.08869,5.963362 5.92298,15.52984 -0.73833,6.059185 -0.44616,11.394054 0.72706,13.275537 0.3648,0.58504 5.47852,1.601648 14.29614,2.842076 13.21478,1.859004 14.33451,2.143424 29.94179,7.605439 36.42276,12.746725 42.11418,15.571356 44.2177,21.945072 1.03214,3.127412 0.26795,3.797447 -4.7083,4.128239 -3.81383,0.253512 -4.46868,0.02387 -15.92019,-5.582047 z"
     style="fill:#000000;stroke-width:0.68994111" />
</svg>
