<?xml version="1.0" encoding="UTF-8" standalone="no"?>
<svg
   xmlns:dc="http://purl.org/dc/elements/1.1/"
   xmlns:cc="http://creativecommons.org/ns#"
   xmlns:rdf="http://www.w3.org/1999/02/22-rdf-syntax-ns#"
   xmlns:svg="http://www.w3.org/2000/svg"
   xmlns="http://www.w3.org/2000/svg"
   version="1.1"
   id="svg163"
   width="300"
   height="300"
   viewBox="0 0 300 300">
  <metadata
     id="metadata169">
    <rdf:RDF>
      <cc:Work
         rdf:about="">
        <dc:format>image/svg+xml</dc:format>
        <dc:type
           rdf:resource="http://purl.org/dc/dcmitype/StillImage" />
        <dc:title></dc:title>
      </cc:Work>
    </rdf:RDF>
  </metadata>
  <defs
     id="defs167" />
  <path
     id="path173"
     style="fill:#000000;stroke-width:0.69144815"
     d="m 141.44839,25.596619 -0.36236,7.263103 c 0,0 -5.12165,2.301022 -7.53904,3.717799 -5.57726,3.268704 -15.36344,8.554191 -15.98326,10.983959 -3.13913,12.305929 10.83286,4.457807 13.99038,2.982042 l 9.56176,-4.50429 0.066,17.843437 c -16.36694,0.911378 -27.79987,0.396854 -23.40617,8.182635 1.58013,2.800026 5.67493,3.406543 11.05833,3.433881 l 12.43411,0.06135 0.0614,28.612585 c -5.45197,0.0142 -11.12724,-1.45762 -11.88007,-11.166161 -0.30557,-3.940762 -0.57943,-13.128567 -4.47315,-14.304432 -1.57265,-0.474924 -3.1223,1.177337 -4.17011,3.621658 -1.40525,3.573016 -1.11045,7.524991 -0.4053,13.640711 1.03863,9.007864 5.51048,16.608004 15.68765,17.576564 3.62675,0.34515 7.88173,0.59595 13.19265,0.69347 6.2677,0.11508 18.71117,-1.52089 22.28584,-10.82036 2.37132,-6.168964 2.59604,-13.776594 2.23056,-22.203758 -0.15211,-3.507445 -5.44575,-5.190785 -7.47199,-0.86823 -0.8672,1.849967 -0.88942,5.874892 -0.93473,8.258151 -0.2733,14.362347 -6.38933,15.473477 -14.19474,15.708107 l 0.17612,-28.734648 c 20.19262,-0.186539 22.30869,-0.09341 24.70326,-2.19446 2.70823,-2.376278 3.85955,-4.091466 0.57634,-6.800834 -3.54212,-2.923026 -16.5699,-2.534138 -25.21472,-2.695792 l 0.11344,-19.362154 10.43803,4.873665 c 6.00269,2.587715 21.11975,9.879006 15.53523,-2.489426 -1.44374,-3.197561 -8.65331,-6.134699 -13.42504,-8.386703 l -12.55867,-5.927024 -0.0649,-7.279238 c -0.0118,-7.336654 -0.94992,-10.303879 -4.57366,-10.312202 -5.46618,-0.01255 -5.1696,4.913387 -5.45314,10.596595 z M 81.225756,25.3741 c -1.081078,3.738716 -1.171736,7.43922 -1.211624,12.664729 l -0.123771,16.214432 c -10.309157,-0.57647 -9.800816,-8.363005 -10.912245,-18.705715 -0.453004,-4.215554 -4.318218,-3.914188 -6.798974,-1.821985 -1.46841,1.278727 -1.861003,2.367748 -2.203113,6.114801 -0.724943,15.440597 5.122824,23.785552 19.746412,24.720423 l -0.03725,3.673669 c -16.171755,4.903342 -18.373649,17.619082 -18.504205,34.517006 -0.06778,8.7717 1.732938,15.77051 7.153859,11.61548 2.577441,-1.97556 2.889759,-4.94472 3.406569,-10.84649 0.607182,-6.933774 0.209399,-20.415354 7.719968,-22.668509 0.08392,3.155294 0.0015,8.949881 0.03033,19.424369 0.05121,18.60206 0.575535,21.32431 4.279803,22.20961 3.295689,0.76694 5.07467,-2.06393 5.330233,-2.68278 1.739723,-4.21275 1.45769,-6.62895 1.671391,-19.54356 l -0.02069,-20.687748 c 9.178028,3.684155 10.028021,13.275591 10.487801,19.771174 1.07667,15.210774 1.4531,16.490814 4.95653,16.490814 4.97373,0 6.3457,-3.23312 6.3063,-14.8659 -0.0302,-8.917474 -1.21118,-15.518486 -4.43226,-21.114562 -4.49146,-7.803154 -10.423782,-10.91963 -17.13944,-12.159849 l -0.0077,-2.587219 c 7.967854,-0.650136 14.99488,-3.379628 18.19018,-11.545274 2.10253,-5.373069 2.99948,-24.339348 -5.29863,-20.651629 -2.5277,1.123322 -3.23908,2.908719 -3.930279,9.589584 -0.148473,5.724615 -2.005017,11.884973 -8.950935,12.167068 L 91.04572,39.631059 C 91.08161,34.80144 90.93284,26.982713 90.334413,25.268211 88.154318,19.022205 83.173872,18.736964 81.225766,25.3741 Z M 210.70243,20.495729 c -0.82971,-0.01614 -1.7472,0.303034 -2.74599,0.95747 -3.09263,2.026372 -3.58733,3.661987 -3.58733,15.709143 l 0.10651,15.358996 c -9.55577,-0.152738 -9.98027,-7.911966 -10.54847,-13.631014 -0.38733,-3.898465 -1.74648,-6.623508 -4.07715,-6.306295 -3.6786,0.500669 -4.06506,1.200434 -4.96955,6.56286 -0.99782,5.915694 -0.23315,12.77306 2.37043,16.435037 4.78784,6.734165 11.12447,6.911693 17.33446,7.948002 l -0.002,2.252159 c -7.99948,3.594048 -12.81818,7.372296 -15.73737,15.199781 -2.26883,6.083649 -5.56097,31.889762 4.32815,28.289102 2.30283,-0.83847 2.95541,-2.99199 3.45434,-12.560544 0.3027,-7.982168 2.57702,-15.685828 8.01248,-19.156702 l 0.16499,20.692592 c 0.0603,7.574964 -0.15861,17.108294 1.31541,19.933764 3.46303,5.50242 8.85155,-0.0139 8.89746,-4.67795 l 0.2566,-35.912929 c 16.40175,5.272789 5.38901,32.905309 16.58055,30.977619 4.00236,-0.68939 4.07274,-9.977414 4.0065,-13.821044 -0.20659,-11.98842 -8.69993,-28.249684 -20.49041,-29.047754 l 0.0393,-2.036716 c 7.37367,-0.228859 15.13642,-4.06841 17.66065,-11.767164 1.4766,-4.503577 2.85275,-19.694818 -2.65315,-19.724213 -3.4814,-0.01859 -4.78612,2.451555 -5.62027,8.195209 -0.96653,6.655223 -1.89164,11.690436 -9.30527,11.777751 -0.18244,-4.08622 0.22156,-6.863032 0.0857,-13.718722 -0.20027,-10.10375 -0.479,-12.958138 -1.46874,-15.064831 -0.88344,-1.880448 -2.025,-2.836203 -3.40786,-2.863117 z M 112.49084,119.8237 c -16.360938,0.36995 -33.623321,2.38884 -39.232921,16.94063 -3.336521,8.65522 -4.494064,17.15123 -5.296767,36.60885 -0.791129,19.17672 -0.540976,26.08017 1.085753,29.9735 0.822189,1.96777 1.354133,2.37602 3.091795,2.37602 1.343046,0 2.912847,-0.72646 4.357888,-2.01906 l 2.257029,-2.02091 -0.146874,-10.94492 c -0.355686,-26.40726 1.279014,-40.72456 5.802461,-50.83893 4.743843,-11.24264 41.855736,-10.18765 47.341826,-10.31837 23.58101,-0.56188 47.73655,-0.27652 70.42711,1.36318 13.6243,0.98453 22.26212,4.38857 24.95933,18.07999 3.45834,17.55504 2.60663,35.56351 3.36508,48.85333 0.15814,2.77087 1.63828,3.00628 3.31304,3.00627 5.34819,0 6.5809,-6.68337 6.2059,-28.99743 -0.26667,-15.86792 -2.00733,-30.72361 -9.66513,-40.91294 -3.31369,-4.40914 -8.16888,-6.83868 -15.66045,-8.4684 -11.06009,-2.38002 -36.59523,-2.77133 -52.02879,-2.77574 -16.46852,-0.005 -34.41757,-0.24892 -50.17628,0.0949 z m -5.97242,14.10168 c -0.77151,4.53663 1.02259,10.63189 9.84987,20.68137 l 7.55212,8.59777 -21.08871,21.53561 c -0.31276,-0.31321 -0.59324,-9.02112 -0.62283,-19.35207 -0.0516,-18.00843 -0.34365,-18.91303 -1.72717,-23.62444 -1.810143,-6.16424 -6.673279,-6.43597 -8.109684,-2.07482 -3.63277,11.02966 -3.811091,37.07264 -0.368114,50.82219 1.995242,7.96803 2.756225,10.62098 7.955376,13.30234 9.177272,4.733 23.130862,4.64546 33.070422,4.74016 l -1.03697,3.39927 c -2.93542,5.67646 -6.86081,7.77589 -14.86218,9.88705 -7.23668,1.90941 -19.963825,5.28627 -20.976987,12.53079 -1.473641,10.53714 6.710917,29.60568 18.050647,45.85636 4.30733,6.17271 11.17275,6.58378 11.22194,-0.0911 0.0195,-2.64281 -2.2658,-7.28374 -10.26819,-21.02904 -6.91549,-11.87839 -9.33535,-19.86259 -6.78782,-22.39181 0.92342,-0.91678 16.15458,-5.35218 18.83445,-6.07553 0,0 4.53649,15.18185 8.52657,22.86879 4.07565,7.85179 16.83388,20.1148 20.98477,16.24786 2.39662,-2.23267 -4.42128,-11.63441 -6.55914,-14.297 -7.05068,-8.78123 -9.62103,-16.33131 -14.04714,-28.16566 5.66009,-6.86436 7.56483,-11.75839 10.60473,-19.42859 10.52239,-1.91105 17.78076,-5.55934 21.40196,-14.24165 3.28707,-7.88117 4.10085,-18.57332 5.02719,-28.8208 1.29699,-14.34763 -1.41597,-27.60411 -5.75226,-28.10132 -1.35371,-0.23477 -3.21158,0.34278 -4.0959,0.84783 0.39142,-2.4491 -2.16765,-5.12602 -4.61616,-4.7149 -6.12512,1.05077 -9.07283,3.29923 -19.68486,15.0165 l -6.13897,6.77853 -8.97234,-10.09901 c -6.17462,-6.94997 -10.32796,-10.9801 -14.45131,-11.75364 -1.48394,-0.36921 -2.68929,-0.16832 -2.91331,1.14896 z m 25.94282,-0.002 c -5.43169,0.091 -9.61515,0.23922 -9.79967,5.04205 -0.1396,3.6336 0.12549,3.46952 3.28329,4.72972 5.50615,2.19736 25.18883,-0.19906 15.35486,-7.93864 -1.43125,-1.12643 -5.13049,-1.76058 -8.83848,-1.83313 z m 78.30626,5.72623 c -10.18333,1.65869 -20.37231,11.11653 -25.88519,16.2361 -9.84862,9.17505 -13.32268,14.26606 -10.23285,18.3853 3.07139,4.09466 13.23521,-6.35797 15.30467,-8.14872 l 14.60561,-12.63862 c 9.07529,-7.85309 10.91075,-8.61987 9.50406,-11.70717 -0.63621,-1.39634 -1.70847,-2.38552 -3.2963,-2.12689 z m -50.15876,3.62849 c 1.79248,11.66469 2.05821,24.75669 -0.1596,36.47188 -0.57316,3.02756 -1.36968,5.73502 -1.66953,6.03486 -0.43646,0.43646 -15.56254,-17.81684 -17.6435,-21.29118 -0.36655,-0.612 2.61146,-4.13349 9.2884,-10.98583 7.01733,-7.20169 9.15914,-9.40982 10.18423,-10.22973 z m -56.91997,20.26552 c -0.14444,5.3191 1.45165,11.73816 6.12967,11.30188 5.8811,-0.54849 5.16747,-9.41902 5.22612,-13.92888 0.013,-6.07836 -1.12126,-9.05556 -4.50662,-10.21798 -6.44922,-2.21447 -6.82716,10.06764 -6.84917,12.84498 z m 47.34926,-6.49593 c -1.88741,6.06449 -1.88693,14.02491 -0.0279,18.1213 6.52289,10.14108 9.44847,-6.5697 9.53938,-8.71205 0.32087,-5.14493 0.46359,-8.90208 -3.05768,-12.2761 -3.03823,-2.88343 -5.05113,-1.64015 -6.45381,2.86685 z m -18.63443,15.65605 c 0,0 18.64172,22.15211 18.35557,22.43829 -9.13951,4.1003 -33.36667,3.75906 -41.22704,0.94445 7.64838,-8.13274 22.87147,-23.38274 22.87147,-23.38274 z m 68.14592,8.79386 c -7.8489,5.41956 -11.30211,9.43082 -23.71356,22.80155 -12.31534,13.26717 -15.89665,17.86824 -16.13397,22.66625 -0.27873,5.63496 6.30665,5.88518 8.97792,3.023 12.26172,-13.13804 23.83573,-25.83413 37.51241,-38.85473 4.71051,-4.48455 5.61713,-5.43006 5.34882,-7.53707 -1.04899,-8.23765 -8.33535,-4.62361 -11.99162,-2.099 z m -79.27117,7.02021 c -0.005,3.74195 3.1649,4.86705 5.73739,5.4455 5.28079,1.18745 16.42721,0.2428 15.42922,-5.06065 -0.71076,-3.77717 -2.97217,-4.99314 -9.77549,-5.63327 -5.62769,-0.52951 -11.38518,0.50355 -11.39112,5.24842 z m 101.41756,18.58795 c -5.3898,-0.78342 -10.79872,4.89432 -15.13733,9.61934 -14.79946,16.11755 -27.84058,31.85592 -38.80269,49.49846 -1.75372,3.16995 -5.10492,12.06093 -1.06343,15.05926 2.28284,1.69361 6.52671,-0.65426 7.96653,-3.0416 12.72949,-21.1066 25.38317,-35.43761 37.62954,-49.84613 2.93518,-3.4534 18.83872,-19.91844 9.40738,-21.28933 z" />
</svg>
