<?xml version="1.0" encoding="UTF-8" standalone="no"?>
<svg
   xmlns:dc="http://purl.org/dc/elements/1.1/"
   xmlns:cc="http://creativecommons.org/ns#"
   xmlns:rdf="http://www.w3.org/1999/02/22-rdf-syntax-ns#"
   xmlns:svg="http://www.w3.org/2000/svg"
   xmlns="http://www.w3.org/2000/svg"
   xmlns:sodipodi="http://sodipodi.sourceforge.net/DTD/sodipodi-0.dtd"
   xmlns:inkscape="http://www.inkscape.org/namespaces/inkscape"
   width="300"
   height="300"
   preserveAspectRatio="xMidYMid meet"
   id="svg2"
   version="1.1"
   inkscape:version="0.91 r13725"
   sodipodi:docname="鬲-seal.svg">
  <defs
     id="defs17" />
  <sodipodi:namedview
     pagecolor="#ffffff"
     bordercolor="#666666"
     borderopacity="1"
     objecttolerance="10"
     gridtolerance="10"
     guidetolerance="10"
     inkscape:pageopacity="0"
     inkscape:pageshadow="2"
     inkscape:window-width="1879"
     inkscape:window-height="1065"
     id="namedview15"
     showgrid="false"
     inkscape:zoom="1.2102564"
     inkscape:cx="54.5"
     inkscape:cy="97.5"
     inkscape:window-x="41"
     inkscape:window-y="15"
     inkscape:window-maximized="1"
     inkscape:current-layer="svg2" />
  <metadata
     id="metadata4">Created by potrace 1.10, written by Peter Selinger 2001-2011<rdf:RDF>
  <cc:Work
     rdf:about="">
    <dc:format>image/svg+xml</dc:format>
    <dc:type
       rdf:resource="http://purl.org/dc/dcmitype/StillImage" />
    <dc:title></dc:title>
  </cc:Work>
</rdf:RDF>
</metadata>
  <g
     style="fill:#000000"
     id="svg_2"
     transform="matrix(0.13914345,0,0,-0.13914345,74.600305,294.04401)">
    <path
       sodipodi:nodetypes="csccscc"
       inkscape:connector-curvature="0"
       id="svg_3"
       d="m 25,1999.2222 c -17,-3 -23,-11 -23,-33 0,-24 5,-29 33,-33 65,-12 991,-10 1020,1 33,14 35,35 5,56 -20,14 -84,16 -518,15 -272,-1 -505,-4 -517,-6 z" />
    <path
       sodipodi:nodetypes="cccccccccssccc"
       inkscape:connector-curvature="0"
       id="svg_4"
       d="m 283,1790.2222 c -128,-26 -180,-64 -188,-136 -4,-35 1,-51 23,-85 40,-61 115,-88 306,-108 223,-24 399,2 510,75 112,74 76,205 -67,246 -85,24 -478,30 -584,8 z m 484,-84 c 104,-9 143,-24 151,-57 17,-66 -151,-113 -409,-113 -208,0 -332,39 -332,105 0,27 5,32 53,48 30,9 77,22 105,27 54,9 277,4 432,-10 z" />
    <path
       sodipodi:nodetypes="ccccccccccccccccscccccccccsccccscccccccccccssc"
       inkscape:connector-curvature="0"
       id="svg_5"
       d="m 350,1367.2222 c -109,-7 -135,-12 -183,-36 -38,-18 -60,-36 -67,-54 -17,-44 -27,-181 -38,-535.99997 -6,-187 -17,-394 -25,-460 -14,-117 -12,-170.00002 6,-181.00002 17,-9.999996 46,6 58,32.00002 6,14 20,166 32,337 13,206 24,316 32,323 7,6 94,59 194,118 l 182,105.99997 208,-112.99997 208,-113 7,-130 c 8,-157 35,-473 41,-494 3,-8 8,-27 11,-42.00002 5,-21 12,-27.999996 30,-27.999996 13,0 27,6.999996 30,15.999996 10,27 7,131.00002 -9,237.00002 -9,65 -17,242 -23,487 -7,353.99997 -9,387.99997 -27,424.99997 -25,49 -69,80 -138,95 -67,15 -365,21 -529,11 z m 390,-89 53,-7 -123,-77 c -68,-43 -127,-78 -131,-78 -4,0 -73,35 -155,77 -143,76 -146,78 -112,84 47,8 401,9 468,1 z m 211,-71 c 6,-19 11,-96 11,-172 l 0,-138.99997 -165,82 c -91,45.99997 -165,84.99997 -165,87.99997 1,11 294,190 301,183 3,-5 11,-23 18,-42 z m -637,-67 140,-77 -49,-30 c -26,-17 -95,-58.99997 -152,-94.99997 l -104,-64 6,123 c 4,66.99997 7,143.99997 7,170.99997 0,26 3,48 6,48 3,0 69,-34 146,-76 z" />
    <path
       sodipodi:nodetypes="cscccccccccccc"
       inkscape:connector-curvature="0"
       id="svg_6"
       d="m 270,805.22223 c -31,-18 -22,-48 20,-66 28,-12 57,-14 122,-10 47,4 95,4 107,1 l 22,-6 3,-319 c 3,-334.000001 6,-358.000001 46,-333.000001 15,10 17,41.000001 20,332.000001 l 2,320 28,6 c 15,3 65,5 112,4 79,-2 150,13 150,31 -1,18 -21,33 -56,41 -55,13 -554,12 -576,-1 z" />
  </g>
</svg>
