<?xml version="1.0" encoding="UTF-8" standalone="no"?>
<!-- Created with Inkscape (http://www.inkscape.org/) -->

<svg
   xmlns:dc="http://purl.org/dc/elements/1.1/"
   xmlns:cc="http://creativecommons.org/ns#"
   xmlns:rdf="http://www.w3.org/1999/02/22-rdf-syntax-ns#"
   xmlns:svg="http://www.w3.org/2000/svg"
   xmlns="http://www.w3.org/2000/svg"
   xmlns:sodipodi="http://sodipodi.sourceforge.net/DTD/sodipodi-0.dtd"
   xmlns:inkscape="http://www.inkscape.org/namespaces/inkscape"
   width="300"
   height="300"
   id="svg2"
   version="1.1"
   inkscape:version="0.48.4 r9939"
   sodipodi:docname="image-seal.svg">
  <defs
     id="defs4" />
  <sodipodi:namedview
     id="base"
     pagecolor="#ffffff"
     bordercolor="#666666"
     borderopacity="1.0"
     inkscape:pageopacity="0.0"
     inkscape:pageshadow="2"
     inkscape:zoom="2.0018437"
     inkscape:cx="145.03351"
     inkscape:cy="130.6666"
     inkscape:document-units="px"
     inkscape:current-layer="layer1"
     showgrid="false"
     inkscape:window-width="1215"
     inkscape:window-height="1000"
     inkscape:window-x="65"
     inkscape:window-y="24"
     inkscape:window-maximized="1"
     fit-margin-top="10"
     fit-margin-left="10"
     fit-margin-right="10"
     fit-margin-bottom="10" />
  <metadata
     id="metadata7">
    <rdf:RDF>
      <cc:Work
         rdf:about="">
        <dc:format>image/svg+xml</dc:format>
        <dc:type
           rdf:resource="http://purl.org/dc/dcmitype/StillImage" />
        <dc:title />
      </cc:Work>
    </rdf:RDF>
  </metadata>
  <g
     inkscape:label="Calque 1"
     inkscape:groupmode="layer"
     id="layer1"
     transform="translate(0,-752.36218)">
    <path
       style="fill:#000000"
       d="m 70.664801,1020.7922 c 2.53351,-41.58812 4.31925,-57.5388 6.81235,-60.85002 1.26786,-1.68388 1.41324,-14.04867 0.32306,-27.4773 -2.46618,-30.37856 -0.57724,-70.90609 3.74867,-80.42812 5.49896,-12.10415 13.83301,-17.10144 28.635889,-17.17072 11.70781,-0.0549 13.64406,-0.87914 13.64406,-5.80875 0,-4.95121 -1.91497,-5.74487 -13.86148,-5.74487 -20.900939,0 -25.732889,-6.60079 -26.732319,-36.51833 -0.81758,-24.47359 0.2565,-28.43941 7.00083,-25.85132 2.47656,0.95034 4.67262,8.00311 5.77446,18.54506 0.97795,9.35632 2.55368,19.03271 3.50164,21.50306 1.650179,4.30029 17.671429,8.64605 22.162539,6.0116 1.18488,-0.69504 2.15433,-8.65539 2.15433,-17.68965 0,-19.53401 4.75755,-27.65182 17.84964,-30.45684 8.50091,-1.82132 61.80689,-2.03523 79.81308,-0.32027 3.9496,0.37617 9.44313,0.88628 12.20784,1.13357 2.96194,0.26484 5.02676,2.80939 5.02676,6.19446 0,5.27049 -1.91496,5.74487 -23.19007,5.74487 -20.53566,0 -23.08049,0.57538 -22.23252,5.02676 0.77071,4.04582 4.52383,5.19542 19.23278,5.89104 32.28805,1.52701 32.93156,15.02484 0.81434,17.08023 -21.21824,1.35792 -35.13233,-5.38825 -38.49202,-18.66262 -2.26482,-8.94855 -2.94889,-9.33541 -16.50775,-9.33541 -13.89859,0 -14.19715,0.18757 -17.13645,10.77162 -1.64527,5.9244 -2.99865,14.32626 -3.00744,18.67082 -0.0144,7.79233 0.24617,7.90557 19.3729,8.37001 10.6639,0.25881 22.62041,0.12179 26.57,-0.305 20.11735,-2.17342 29.38775,-1.13866 32.02545,3.57466 1.50108,2.68225 4.28073,4.91743 6.17702,4.9671 4.68351,0.12265 14.23107,13.63975 12.08585,17.11077 -0.94744,1.53299 -0.43075,5.20114 1.1482,8.15145 1.97801,3.69593 1.8649,6.3701 -0.36374,8.59874 -2.38788,2.38788 -2.39483,5.07757 -0.0258,10.27544 2.52516,5.5421 2.33799,7.76295 -0.87928,10.43305 -3.04699,2.52877 -3.33107,4.80524 -1.11611,8.94392 1.63415,3.05346 2.20379,7.9696 1.26585,10.92479 -3.10111,9.77069 -1.46241,130.5986 1.85574,136.8316 0.7719,1.4499 1.30537,5.8677 1.18551,9.8173 -0.1531,5.0433 -2.0332,7.4401 -6.31533,8.0511 -3.35357,0.4785 -6.75858,-0.8531 -7.56674,-2.9591 -0.80825,-2.106 -1.13438,-36.7513 -0.72483,-76.98951 0.40955,-40.23819 0.81146,-84.03504 0.8931,-97.32631 0.0933,-15.18276 -1.46457,-28.19729 -4.19077,-35.01076 -4.05903,-10.14455 -5.2974,-10.96078 -19.17826,-12.64086 -8.16144,-0.98783 -25.17978,-1.39043 -37.81848,-0.89465 -21.32466,0.83648 -23.04556,1.36682 -23.89735,7.36437 -1.02535,7.21946 -1.19807,7.18614 36.8233,7.10396 20.21518,-0.0437 28.72433,2.42339 28.72433,8.32802 0,1.38641 -14.31334,2.52073 -31.80737,2.52073 -28.74286,0 -31.71508,0.48432 -30.8491,5.02676 0.80844,4.24071 5.21614,5.25135 28.18727,6.46297 22.2268,1.17239 27.39379,2.30128 28.12606,6.14508 1.43122,7.51271 -42.96028,13.05194 -57.07906,7.1224 -11.54569,-4.84892 -15.85765,-9.17156 -17.53268,-17.57613 -0.82441,-4.13665 -3.12224,-5.54865 -8.20829,-5.04396 -23.248039,2.30694 -25.734159,7.2042 -25.734159,50.69221 0,44.91454 -5.24885,121.32448 -9.34457,136.03318 -1.86964,6.7143 -5.1025,12.2078 -7.18413,12.2078 -2.97526,0 -3.43856,-5.6828 -2.16613,-26.57 z m 31.768539,21.2908 c -1.4422,-4.5441 -0.96948,-21.0078 2.09368,-72.91526 0.39298,-6.6591 3.09675,-13.16005 7.16793,-17.2346 5.95142,-5.95633 9.47774,-6.5982 39.36986,-7.16652 23.69185,-0.45045 35.66703,0.55993 43.01253,3.62909 11.48229,4.7976 10.7512,0.62111 10.18835,58.20179 -0.34366,35.158 -1.37481,40.7647 -7.49714,40.7647 -4.19843,0 -4.73865,-2.7632 -4.21171,-21.5432 0.47789,-17.0317 -2.943,-19.9795 -22.05097,-19.0016 -5.05112,0.2585 -6.46648,2.0564 -6.47901,8.23 -0.0201,10.5807 -5.40356,29.4424 -8.40126,29.4424 -2.84049,0 -6.20644,-9.0212 -8.56005,-22.9423 -1.50533,-8.9035 -2.87646,-10.2073 -12.34158,-11.7355 -13.80937,-2.2297 -16.52437,-0.2537 -18.36407,13.367 -2.73163,20.2238 -4.07262,24.1832 -8.1906,24.1832 -2.2332,0 -4.81437,-2.3756 -5.73596,-5.2792 z m 56.49263,-43.44362 c 9.48075,-0.1319 8.24095,-6.38029 -2.2108,-11.14244 -4.93728,-2.24957 -9.32418,-2.31553 -14.82813,-0.2229 -17.98959,6.83964 -18.82843,15.55076 -1.25155,12.99676 5.7648,-0.83762 13.99553,-1.57172 18.29048,-1.63142 z m 32.67105,-15.94423 c 0.99967,-3.98289 0.32686,-9.00752 -1.50099,-11.20993 -2.82211,-3.40044 -4.57122,-3.36376 -11.8105,0.24761 -10.1689,5.07291 -10.58557,7.77524 -2.11376,13.70911 9.04003,6.33188 13.33877,5.56638 15.42525,-2.74685 z m -60.58053,-2.48471 c 4.99269,-3.65075 5.05129,-4.3202 0.75415,-8.6173 -6.20729,-6.2073 -10.0411,-5.87533 -12.24231,1.0601 -3.36034,10.58747 2.27463,14.29429 11.48816,7.5572 z m 30.79998,-11.12203 c 11.45095,-6.51284 14.11407,-10.00431 9.09875,-11.92884 -6.63622,-2.54656 -27.83673,-1.99402 -32.31278,0.84214 -3.28132,2.07915 -3.28132,2.86645 0,4.98197 4.21619,2.71824 14.9135,8.95588 16.14402,9.41363 0.41639,0.15482 3.5979,-1.33411 7.07001,-3.3089 z M 121.6745,932.49637 c -10.66371,-6.50179 -11.82072,-13.56602 -3.83429,-23.41085 5.23532,-6.45358 7.18932,-6.78118 40.4471,-6.78118 31.27801,0 35.37378,0.58523 39.0216,5.57576 5.89151,8.06005 5.11555,11.83313 -4.44489,21.61331 -8.2807,8.47106 -9.27089,8.71605 -35.1873,8.7056 -21.5155,-0.009 -28.47015,-1.11026 -36.00222,-5.70264 z m 60.21608,-10.82376 c 6.31542,-7.6096 -2.49488,-10.79817 -27.33183,-9.8918 -24.63399,0.89896 -29.78056,2.91222 -26.86524,10.5094 1.44665,3.76987 6.08499,4.45256 26.39367,3.88471 16.24318,-0.45416 25.71698,-1.9883 27.8034,-4.50231 z M 171.7365,894.66343 c -2.39363,-1.33956 -17.5605,-1.89256 -33.70421,-1.22891 -32.97993,1.35573 -37.18293,0.53025 -37.18293,-7.30273 0,-5.22392 2.54791,-5.49048 50.00119,-5.2309 37.31141,0.20423 51.34454,1.26548 55.29434,4.18212 3.48099,2.57048 4.30974,4.84289 2.42071,6.63753 -3.93891,3.74206 -31.47,5.94197 -36.8291,2.94289 z"
       id="path3002"
       inkscape:connector-curvature="0" />
  </g>
</svg>
