<?xml version="1.0" encoding="UTF-8" standalone="no"?>
<!-- Created with Inkscape (http://www.inkscape.org/) -->

<svg
   xmlns:dc="http://purl.org/dc/elements/1.1/"
   xmlns:cc="http://creativecommons.org/ns#"
   xmlns:rdf="http://www.w3.org/1999/02/22-rdf-syntax-ns#"
   xmlns:svg="http://www.w3.org/2000/svg"
   xmlns="http://www.w3.org/2000/svg"
   xmlns:sodipodi="http://sodipodi.sourceforge.net/DTD/sodipodi-0.dtd"
   xmlns:inkscape="http://www.inkscape.org/namespaces/inkscape"
   width="300"
   height="300"
   id="svg2"
   version="1.1"
   inkscape:version="0.48.4 r9939"
   sodipodi:docname="image-seal.svg">
  <defs
     id="defs4" />
  <sodipodi:namedview
     id="base"
     pagecolor="#ffffff"
     bordercolor="#666666"
     borderopacity="1.0"
     inkscape:pageopacity="0.0"
     inkscape:pageshadow="2"
     inkscape:zoom="1.979899"
     inkscape:cx="130.93154"
     inkscape:cy="137.35134"
     inkscape:document-units="px"
     inkscape:current-layer="layer1"
     showgrid="false"
     inkscape:window-width="1215"
     inkscape:window-height="1000"
     inkscape:window-x="65"
     inkscape:window-y="24"
     inkscape:window-maximized="1"
     fit-margin-top="10"
     fit-margin-left="10"
     fit-margin-right="10"
     fit-margin-bottom="10" />
  <metadata
     id="metadata7">
    <rdf:RDF>
      <cc:Work
         rdf:about="">
        <dc:format>image/svg+xml</dc:format>
        <dc:type
           rdf:resource="http://purl.org/dc/dcmitype/StillImage" />
        <dc:title />
      </cc:Work>
    </rdf:RDF>
  </metadata>
  <g
     inkscape:label="Calque 1"
     inkscape:groupmode="layer"
     id="layer1"
     transform="translate(0,-752.36218)">
    <path
       style="fill:#000000"
       d="m 219.40627,1041.0616 c -2.10699,-4.0743 -3.83091,-10.7873 -3.83091,-14.9173 0,-4.1303 -1.12993,-8.2078 -2.51095,-9.0613 -1.38103,-0.8535 -2.51095,-4.8082 -2.51095,-8.7884 0,-3.9801 -1.12993,-7.9348 -2.51096,-8.78829 -1.38102,-0.85347 -2.56082,-5.72246 -2.62176,-10.8197 -0.061,-5.09748 -1.61113,-14.91757 -3.4448,-21.8227 -3.61904,-13.62827 -2.15335,-12.99792 -25.0022,-10.75265 -6.95403,0.68323 -14.71783,-5.81618 -11.17711,-9.3569 2.51377,-2.51374 22.47711,-3.78097 20.96273,-1.33065 -0.76856,1.24355 -0.47754,2.82949 0.64669,3.5243 6.60464,4.08188 14.66656,-15.72809 9.88869,-24.29873 -4.45702,-7.99508 -6.03402,-8.64187 -18.74937,-7.68994 -10.33649,0.77382 -18.21099,-1.94514 -18.21099,-6.28804 0,-2.61543 19.33206,-7.83676 29.01578,-7.83676 11.34798,0 14.97836,3.70803 15.76811,16.10539 0.71944,11.29376 1.96108,14.02606 6.37378,14.02606 5.11019,0 10.41986,-15.4095 9.61002,-27.88972 -0.96051,-14.80247 -5.11524,-17.06708 -33.13753,-18.06209 -16.68268,-0.59236 -21.49374,-1.58989 -22.06875,-4.57569 -1.97253,-10.24256 41.52535,-13.92296 56.5173,-4.78198 9.399,5.7308 11.76056,12.76802 9.89241,29.47842 -2.80976,25.13276 -6.87537,35.11639 -15.66055,38.45648 -6.13923,2.33416 -6.48265,3.3229 -5.43503,15.64847 0.61506,7.23632 3.0555,20.50143 5.42323,29.47809 4.4129,16.73023 5.48345,19.84383 12.14423,35.32063 7.36094,17.1036 -1.19901,30.8262 -9.37111,15.023 z m -109.01961,-6.075 c -7.35749,-8.8652 -17.426143,-57.2377 -16.792853,-80.67751 0.48737,-18.03901 3.02183,-24.81522 13.852583,-37.03656 3.36568,-3.79782 5.06057,-6.92243 3.76643,-6.94357 -1.32543,-0.0226 -1.25646,-0.84408 0.15794,-1.88321 2.6305,-1.93261 9.26167,-18.52961 7.93383,-19.85746 -0.42194,-0.42194 -4.37732,-1.48919 -8.78977,-2.37169 -6.97786,-1.39556 -7.79907,-1.02204 -6.30616,2.86846 1.26118,3.28659 -1.09435,6.94219 -8.880813,13.78245 -15.398,13.52689 -22.59093,17.02449 -25.51267,12.40577 -3.05606,-4.831 -2.97556,-7.41683 0.23075,-7.41683 3.22148,0 7.66697,-3.48819 20.26154,-15.89835 8.03874,-7.92106 9.763923,-11.35532 9.763923,-19.43682 0,-8.39532 -1.237723,-10.62719 -8.552863,-15.42238 -4.70407,-3.08358 -10.54191,-10.11477 -12.97294,-15.62489 -8.3093,-18.83343 3.01673,-54.14334 17.36706,-54.14334 7.219893,0 14.090473,-8.60429 14.677123,-18.38073 0.31659,-5.27584 1.34121,-10.06559 2.27696,-10.64391 3.06244,-1.89271 7.77053,6.10797 8.32736,14.15108 0.56177,8.11425 4.19926,11.45023 17.55628,16.10099 4.01065,1.39644 8.11694,4.23389 9.12508,6.30543 2.62385,5.39142 6.7264,15.53479 8.52381,21.07476 1.37088,4.22526 4.84431,3.85956 5.40089,-0.56863 1.11228,-8.84915 8.50337,-17.88183 20.07568,-24.5345 3.24505,-1.86552 5.26823,-6.55558 6.18264,-14.33245 0.74756,-6.35776 2.17165,-12.372 3.16466,-13.365 3.05026,-3.05026 9.12209,7.4117 9.20656,15.86315 0.0532,5.3254 1.54577,8.48456 4.47402,9.46963 7.5646,2.54483 21.47611,15.47325 22.01441,20.4587 0.28306,2.62156 1.15067,6.46139 1.92804,8.53292 8.17225,21.77763 7.55114,30.13145 -2.24025,30.13145 -5.10226,0 -6.01085,-1.23112 -6.02275,-8.1606 -0.0304,-17.66074 -8.88212,-34.52561 -18.12138,-34.52561 -1.07373,0 -1.96768,10.45184 -1.98651,23.22632 -0.0409,27.63945 -1.61156,35.05909 -7.19552,33.98872 -3.3934,-0.65046 -4.17627,-5.15511 -4.71213,-27.11433 -0.78573,-32.19877 -1.51601,-34.84504 -7.99741,-28.97945 -4.96705,4.49511 -11.68018,27.08197 -9.22829,31.04925 1.65922,2.68466 -3.84926,15.48955 -6.67562,15.51802 -2.71994,0.0274 -7.1863,-12.4592 -5.45728,-15.25685 2.22099,-3.59363 -1.14776,-7.25583 -5.23255,-5.68837 -2.02729,0.77797 -3.68601,4.03036 -3.68601,7.22756 0,6.56473 -18.28268,23.78106 -25.25404,23.78106 -2.34438,0 -5.70835,1.74215 -7.47548,3.87142 -2.66543,3.21166 -2.28,5.13336 2.26166,11.27631 11.26073,15.23092 10.36504,20.16994 -8.99813,49.61813 -9.52635,14.48803 -10.2983,16.88953 -9.28184,28.87594 1.61625,19.0599 5.60069,37.11768 11.55707,52.37772 5.88136,15.0678 7.19089,27.5364 3.04199,28.9641 -1.519,0.5228 -4.10879,-0.6726 -5.75513,-2.6563 z m -0.77068,-195.88009 c -0.75203,-10.28881 -0.81589,-10.3494 -11.737083,-11.13234 l -10.9809,-0.78723 1.78878,9.57557 c 0.98381,5.26658 1.97049,9.6914 2.19256,9.833 5.7944,3.69396 10.866303,5.112 14.699123,4.1097 3.90891,-1.02221 4.65413,-3.163 4.03752,-11.5987 z m 27.46722,4.47645 c 1.73994,-1.73996 3.16355,-6.0691 3.16355,-9.62029 0,-5.85888 -0.92998,-6.45674 -10.04381,-6.45674 l -10.04382,0 0,11.34713 c 0,11.11491 0.14086,11.31179 6.88026,9.62029 3.78414,-0.94975 8.30385,-3.15042 10.04382,-4.89039 z m -27.44362,-36.79983 c 0.65561,-7.92304 0.0557,-9.30283 -3.76643,-8.66558 -8.357843,1.39345 -15.845473,6.91785 -15.845473,11.6908 0,5.49753 3.76334,7.56058 12.554763,6.88247 5.33691,-0.41164 6.39422,-1.89602 7.05714,-9.90769 z m 27.75741,7.32078 c 2.12919,-2.56551 1.34291,-4.71489 -3.33123,-9.10599 -8.06227,-7.57415 -13.45585,-5.45611 -11.96542,4.69874 0.88908,6.05778 2.38987,7.76545 6.82465,7.76545 3.12671,0 6.93912,-1.51119 8.472,-3.3582 z m -12.8437,155.54189 c -2.41679,-1.8345 -4.39417,-5.18838 -4.39417,-7.45301 0,-2.26438 -1.12993,-4.11721 -2.51095,-4.11721 -5.06877,0 -2.29394,-12.57649 5.64178,-25.57048 4.48401,-7.34215 9.07861,-14.02727 10.21019,-14.85586 5.02048,-3.67606 8.53747,-20.66562 6.32053,-30.53259 -1.2425,-5.52992 -1.85492,-10.45857 -1.36094,-10.95255 2.19098,-2.19099 9.53316,5.90822 9.42592,10.39775 -0.27515,11.5174 -3.30718,26.31651 -5.3917,26.31651 -1.23596,0 -2.27233,1.97737 -2.30304,4.39417 -0.0306,2.41679 -2.26544,7.21899 -4.96607,10.67155 -2.70063,3.45256 -4.93535,8.1606 -4.96606,10.46232 -0.0306,2.30169 -1.36423,4.62103 -2.96338,5.15408 -4.89603,1.63202 -0.22649,14.5151 5.26095,14.5151 12.20499,0 15.96874,-6.8003 9.96874,-18.01138 -4.1429,-7.74104 0.75444,-10.66788 7.72882,-4.61905 8.66374,7.51403 7.71435,24.29494 -1.81231,32.03395 -7.77077,6.31253 -17.28955,7.17605 -23.88831,2.1667 z"
       id="path3241"
       inkscape:connector-curvature="0" />
  </g>
</svg>
