<?xml version="1.0" encoding="UTF-8" standalone="no"?>
<!-- Created with Inkscape (http://www.inkscape.org/) -->

<svg
   xmlns:dc="http://purl.org/dc/elements/1.1/"
   xmlns:cc="http://creativecommons.org/ns#"
   xmlns:rdf="http://www.w3.org/1999/02/22-rdf-syntax-ns#"
   xmlns:svg="http://www.w3.org/2000/svg"
   xmlns="http://www.w3.org/2000/svg"
   xmlns:sodipodi="http://sodipodi.sourceforge.net/DTD/sodipodi-0.dtd"
   xmlns:inkscape="http://www.inkscape.org/namespaces/inkscape"
   width="300"
   height="300"
   viewBox="0 0 300 300"
   id="svg2"
   version="1.1"
   inkscape:version="0.91 r13725"
   sodipodi:docname="魂-seal.svg">
  <defs
     id="defs4">
    <clipPath
       clipPathUnits="userSpaceOnUse"
       id="clipPath4204">
      <rect
         style="fill:#0000ff;fill-rule:evenodd;stroke:#000000;stroke-width:1px;stroke-linecap:butt;stroke-linejoin:miter;stroke-opacity:1"
         id="rect4206"
         width="15.451179"
         height="21.584471"
         x="164.41942"
         y="794.64594" />
    </clipPath>
  </defs>
  <sodipodi:namedview
     id="base"
     pagecolor="#ffffff"
     bordercolor="#666666"
     borderopacity="1.0"
     inkscape:pageopacity="0.0"
     inkscape:pageshadow="2"
     inkscape:zoom="1.71"
     inkscape:cx="150"
     inkscape:cy="150"
     inkscape:document-units="px"
     inkscape:current-layer="layer1"
     showgrid="false"
     inkscape:window-width="1280"
     inkscape:window-height="751"
     inkscape:window-x="0"
     inkscape:window-y="1"
     inkscape:window-maximized="1"
     units="px"
     showguides="false" />
  <metadata
     id="metadata7">
    <rdf:RDF>
      <cc:Work
         rdf:about="">
        <dc:format>image/svg+xml</dc:format>
        <dc:type
           rdf:resource="http://purl.org/dc/dcmitype/StillImage" />
        <dc:title></dc:title>
      </cc:Work>
    </rdf:RDF>
  </metadata>
  <g
     inkscape:label="Layer 1"
     inkscape:groupmode="layer"
     id="layer1"
     transform="translate(0,-752.36216)">
    <path
       style="fill:#000000"
       d="m 138.45332,1033.1337 c -1.95477,-8.0796 0.29201,-77.18346 2.73115,-84.00092 1.27942,-3.57607 3.78597,-11.37394 5.57013,-17.32862 1.78413,-5.95468 7.24926,-15.31746 12.14475,-20.80619 15.30506,-17.15977 17.14139,-20.68429 13.91646,-26.71013 -1.58242,-2.95676 -3.82723,-5.37595 -4.98844,-5.37595 -3.57055,0 -13.03103,-9.27017 -16.72314,-16.38675 -6.31197,-12.16631 -1.37791,-56.93419 7.23528,-65.64746 1.4737,-1.49084 6.77569,-4.32027 11.78218,-6.28763 13.23445,-5.20063 15.60464,-7.66253 15.60464,-16.20846 0,-6.46102 0.91899,-7.53423 5.85174,-6.83366 4.45945,0.63334 6.16113,2.96914 7.15213,9.81724 1.18249,8.17142 2.36148,9.24261 13.00387,11.81482 16.83156,4.06811 21.2271,14.27518 21.02491,48.82292 -0.21898,37.43981 -4.51002,43.31475 -35.29507,48.32436 -11.85872,1.92974 -14.93671,8.14604 -5.98898,12.09528 14.42277,9.89748 2.67494,30.05862 -2.84109,41.60752 -19.94042,41.50161 -16.263,54.51352 24.40062,86.33793 10.99076,8.6016 11.08767,12.9059 0.22912,10.1806 -9.16809,-2.301 -37.714,-26.6655 -40.98044,-34.9776 -1.49667,-3.80859 -3.76563,-8.9569 -5.04215,-11.44074 -5.10602,-9.93532 0.3573,-41.42778 8.80656,-50.76412 4.5999,-6.4417 11.50099,-27.64554 7.22004,-32.97492 -4.70038,-5.6636 -6.51294,-5.14441 -10.75178,3.07976 -2.02746,3.93367 -4.27334,7.7373 -4.99084,8.45251 -5.41195,5.39476 -12.57214,18.47762 -14.24521,26.02839 -1.10679,4.99512 -2.74416,27.79411 -3.63854,50.6644 -1.38655,35.45462 -2.24733,41.70112 -5.84126,42.38852 -2.35425,0.4502 -4.71468,-1.2587 -5.34672,-3.8711 z m 42.07146,-169.50136 c 0,-4.11247 0.7284,-11.11929 1.6187,-15.5707 1.36361,-6.81803 0.68361,-8.43938 -4.31489,-10.28845 -3.26345,-1.20723 -8.67327,-1.67123 -12.02179,-1.03113 -9.0675,1.73336 -8.60947,18.13309 0.76837,27.51093 9.04021,9.04019 13.94961,8.82177 13.94961,-0.62065 z m 36.09287,1.62549 c 1.18473,-3.21846 2.81437,-10.09683 3.62144,-15.2853 1.23782,-7.95766 0.58559,-9.8123 -4.16901,-11.85453 -3.10002,-1.33152 -9.12149,-1.76083 -13.38106,-0.95399 -6.93985,1.31453 -7.96651,2.79024 -9.87945,14.20046 -2.88679,17.21899 -1.46606,19.7451 11.10494,19.7451 8.5677,0 10.95365,-1.09912 12.70314,-5.85174 z m -35.36353,-47.94948 c 1.8859,-9.86554 -0.30042,-13.8189 -7.64224,-13.8189 -4.79492,0 -7.28212,2.21557 -10.12484,9.01917 -5.03754,12.05656 -5.18236,11.78702 6.33145,11.78702 8.89504,0 10.25925,-0.83357 11.43563,-6.98729 z m 37.73023,0.46647 c 1.11017,-7.74448 -4.95726,-14.35741 -13.77156,-15.00976 -7.4197,-0.54911 -7.82066,-0.0528 -8.59039,10.63451 l -0.80741,11.2105 11.21051,-0.80741 c 8.91113,-0.64179 11.364,-1.87817 11.95885,-6.02784 z m -18.55067,168.2142 c -14.61759,-10.33081 -2.79027,-39.64104 3.7867,-51.27865 4.99268,-9.09732 7.52706,-17.48266 7.55351,-24.99182 0.0479,-13.55362 3.48675,-20.51808 7.93511,-16.06972 5.48215,5.48215 -2.78173,52.92042 -10.57157,60.6855 -0.71747,0.71521 -2.76238,5.35988 -4.5442,10.3215 -4.01214,11.17207 0.35565,17.30035 10.51337,14.75092 8.12086,-2.0382 10.87927,-13.44384 5.33203,-22.0471 -2.15527,-3.34257 -3.29043,-6.70563 -2.5226,-7.47343 3.05877,-3.05877 9.44755,2.10723 14.18928,11.47352 5.25873,10.38752 4.27793,18.11166 -3.25651,25.64608 -5.42248,5.42248 -23.16213,4.78768 -28.41512,-1.0168 z M 97.300023,951.85483 c -12.87485,-2.66096 -28.59983,-12.76367 -31.42245,-20.18773 -4.1441,-10.89984 2.80405,-26.73759 18.70659,-42.64013 2.40563,-2.40563 6.30765,-12.87612 8.67118,-23.26774 4.87698,-21.44244 3.89531,-23.3284 -11.24111,-21.59602 -10.92858,1.25079 -19.46349,-3.99071 -16.9908,-10.43443 1.38699,-3.61446 6.66307,-4.23159 36.177757,-4.23159 36.18768,0 40.90897,1.55531 33.8842,11.16223 -2.25528,3.08431 -6.93738,4.44241 -15.3153,4.44241 -11.60393,0 -12.06697,0.29178 -12.06697,7.60391 1.43974,32.18541 -20.690328,49.18851 -29.482147,71.12848 -3.95533,11.33217 23.743857,21.04226 31.920577,11.18991 1.69144,-2.03807 3.98767,-15.4835 5.10272,-29.87876 1.93794,-25.01832 2.40215,-26.53132 10.52039,-34.28956 7.59033,-7.25371 8.9122,-7.69717 12.43701,-4.1724 3.5248,3.52483 3.21931,4.89409 -2.8742,12.88309 -5.83098,7.64482 -6.82027,11.53943 -6.83267,26.899 -0.0182,21.26536 -3.62493,35.90363 -10.55745,42.83615 -5.35193,5.35192 -6.44277,5.48687 -20.637327,2.55318 z M 85.167693,801.62456 c -8.08411,-1.01398 -13.41533,-7.47574 -9.40931,-11.40467 1.84278,-1.80733 26.043347,-3.01701 50.522087,-2.52538 11.10481,0.22315 15.72321,7.1024 8.37525,12.47536 -4.33497,3.1698 -29.83769,3.91945 -49.488027,1.45469 z"
       id="path4206"
       inkscape:connector-curvature="0"
       sodipodi:nodetypes="cssssssssssssssccssssccsssscccssssssssssssssssssssscsscccscssscsscsssssssssccssssscsssscss" />
  </g>
</svg>
