<?xml version="1.0" encoding="UTF-8" standalone="no"?>
<!-- Created with Inkscape (http://www.inkscape.org/) -->

<svg
   xmlns:dc="http://purl.org/dc/elements/1.1/"
   xmlns:cc="http://creativecommons.org/ns#"
   xmlns:rdf="http://www.w3.org/1999/02/22-rdf-syntax-ns#"
   xmlns:svg="http://www.w3.org/2000/svg"
   xmlns="http://www.w3.org/2000/svg"
   xmlns:sodipodi="http://sodipodi.sourceforge.net/DTD/sodipodi-0.dtd"
   xmlns:inkscape="http://www.inkscape.org/namespaces/inkscape"
   version="1.0"
   width="300"
   height="300"
   id="svg2"
   inkscape:version="0.48.4 r9939"
   sodipodi:docname="dessin.svg">
  <metadata
     id="metadata2990">
    <rdf:RDF>
      <cc:Work
         rdf:about="">
        <dc:format>image/svg+xml</dc:format>
        <dc:type
           rdf:resource="http://purl.org/dc/dcmitype/StillImage" />
      </cc:Work>
    </rdf:RDF>
  </metadata>
  <sodipodi:namedview
     pagecolor="#ffffff"
     bordercolor="#666666"
     borderopacity="1"
     objecttolerance="10"
     gridtolerance="10"
     guidetolerance="10"
     inkscape:pageopacity="0"
     inkscape:pageshadow="2"
     inkscape:window-width="1215"
     inkscape:window-height="1000"
     id="namedview2988"
     showgrid="false"
     inkscape:zoom="2.2250294"
     inkscape:cx="129.01005"
     inkscape:cy="139.3918"
     inkscape:window-x="65"
     inkscape:window-y="24"
     inkscape:window-maximized="1"
     inkscape:current-layer="svg2" />
  <defs
     id="defs5" />
  <path
     style="fill:#000000"
     d="m 146.66513,281.26299 c -0.18622,-16.70944 0.62741,-84.24936 1.15354,-95.75741 0.37713,-8.24875 -0.47898,-9.69471 -6.13016,-10.35368 -6.28587,-0.73299 -6.57578,-0.0123 -6.73754,16.77851 -0.82902,86.05082 -1.22607,88.25396 -15.90508,88.25396 -6.53082,0 -23.759968,-13.42155 -30.497053,-23.75726 -6.00047,-9.20562 -10.758637,-6.58291 -26.03389,14.34996 -10.561827,14.47368 -20.813736,21.98452 -20.813736,15.24875 0,-2.08282 1.642127,-5.14977 3.649171,-6.81544 4.886603,-4.05545 13.291191,-13.43806 17.634123,-19.68615 1.942089,-2.79405 5.753309,-8.28139 8.469373,-12.1941 4.281567,-6.1679 6.914229,-35.13757 5.455036,-60.02685 -0.0966,-1.6479 -2.642205,-2.99616 -5.656873,-2.99616 -13.03473,0 -17.838304,-13.7753 -18.075166,-51.83439 -0.193582,-31.1028 3.939934,-45.293185 13.936719,-47.844911 9.990799,-2.550215 14.003711,-5.123201 15.031823,-9.638013 C 82.713648,72.494481 88.29688,66.61301 94.552599,61.919842 107.9263,51.886635 109.0832,46.02689 98.135741,43.770935 92.003951,42.507349 89.17302,43.390886 84.84209,47.919898 c -3.026521,3.164945 -7.337257,7.591475 -9.579416,9.836739 -2.242156,2.245261 -6.146514,7.368695 -8.676346,11.385424 -4.363329,6.92785 -13.207768,10.149278 -13.207768,4.810713 0,-4.127229 10.824712,-19.814553 18.798342,-27.242812 8.960316,-8.347457 8.914283,-7.847471 1.626106,-17.662102 -3.205269,-4.316378 -5.827762,-9.338838 -5.827762,-11.161023 0,-5.31556 10.248803,-1.732002 17.234896,6.026292 3.462028,3.8447 8.22582,6.990364 10.586203,6.990364 2.360386,0 4.291615,0.846061 4.291615,1.880134 0,1.034074 3.9411,3.791605 8.75801,6.127844 15.18077,7.362795 10.3593,22.114149 -10.389292,31.786175 -8.348014,3.891465 -9.244831,12.938348 -1.282578,12.938348 3.43763,0 7.96276,1.406063 10.05584,3.124591 6.08465,4.995828 10.37404,26.399295 10.37404,51.765115 0,25.45111 -3.54333,37.75728 -12.49178,43.38449 -15.420413,9.69706 -16.693954,11.70421 -17.10965,26.96547 -0.932381,34.23005 0.787045,38.4805 22.82003,56.41142 l 12.62007,10.27049 0.14871,-7.87355 c 1.64073,-86.86058 3.03144,-96.27279 14.81721,-100.281 6.42953,-2.18665 8.38878,-4.42904 8.38878,-9.60111 0,-5.86124 -1.24695,-6.84682 -9.48785,-7.49923 -6.08084,-0.48136 -9.48784,-2.04216 -9.48784,-4.34648 0,-2.58318 2.67112,-3.42413 9.48784,-2.98705 9.03997,0.57965 9.48785,0.21189 9.48785,-7.79002 0,-8.20017 -0.27562,-8.39837 -11.67735,-8.39837 -7.99608,0 -11.67735,-1.04533 -11.67735,-3.31584 0,-3.47333 8.56013,-6.18363 19.70553,-6.23917 4.54044,-0.0216 6.56851,-1.46819 6.56851,-4.6819 0,-3.64003 -2.37097,-4.81064 -10.92324,-5.3931 -7.63392,-0.51989 -11.21478,-2.00704 -11.89141,-4.93854 -0.77697,-3.366299 1.11046,-4.194628 9.55764,-4.194628 8.23194,0 11.06826,-1.175311 13.01487,-5.393097 2.65421,-5.750909 -0.79082,-11.385424 -6.9612,-11.385424 -7.13075,0 -13.06337,-8.759105 -13.87217,-20.481299 -0.63667,-9.227284 0.15139,-11.877283 3.53204,-11.877283 2.9935,0 5.11295,3.927284 6.79119,12.583899 4.41179,22.756706 13.67161,13.218933 13.67161,-14.081983 0,-11.385424 -0.22455,-11.68504 -8.758,-11.68504 -10.73548,0 -11.24041,-2.893001 -1.26962,-7.274305 13.30804,-5.847743 17.12023,-1.197906 18.78564,22.913365 1.86378,26.983376 10.15712,30.272997 13.13166,5.208781 0.95065,-8.010312 2.82099,-9.939418 7.38918,-7.621338 2.27897,1.156433 2.7348,5.327141 1.38811,12.700514 -1.52179,8.33207 -4.49569,12.851652 -12.33653,18.748415 -11.4464,8.608315 -11.38275,15.247863 0.14617,15.247863 3.84037,0 13.07753,0.685907 20.52698,1.524257 l 13.54447,1.524254 0,-8.939449 c 0,-6.779193 -1.34571,-9.228402 -5.56877,-10.135137 -7.91728,-1.699903 -12.23572,-19.863101 -7.25591,-30.518059 3.76487,-8.055439 6.98601,-3.172494 6.98601,10.590153 0,7.909884 1.05096,14.381598 2.33547,14.381598 6.03005,0 9.34188,-6.935185 9.34188,-19.562459 l 0,-13.809815 -11.86617,-2.623452 c -15.52301,-3.43193 -13.56353,-8.508779 3.03587,-7.865713 6.84019,0.264994 13.26738,1.164286 14.28267,1.998433 1.01528,0.834146 1.61432,10.055253 1.33119,20.491348 -0.46883,17.281176 -0.0128,18.974727 5.10884,18.974727 4.87028,0 5.62362,-1.766012 5.62362,-13.183132 0,-11.585168 0.70772,-13.183124 5.83867,-13.183124 5.14004,0 5.83867,1.597956 5.83867,13.354334 0,14.267746 -4.13505,20.202716 -14.07581,20.202716 -6.13671,0 -9.27888,4.352708 -9.27888,12.853665 0,3.651533 2.68191,6.10194 8.72981,7.976266 9.42083,2.919629 14.62488,10.976489 14.62488,22.642059 0,3.96331 1.96859,8.82229 4.37463,10.79777 5.21252,4.27975 8.84849,14.77375 5.94237,17.15058 -1.13387,0.92732 -4.45804,-0.74083 -7.38707,-3.70702 -5.24427,-5.31086 -14.60727,-7.41055 -14.60727,-3.27574 0,1.16457 -2.488,2.65157 -5.52889,3.3045 -8.03916,1.72608 -11.54572,16.35597 -4.71461,19.67003 18.22366,8.84105 17.42716,6.23803 17.48692,57.14884 0.0493,42.02858 -1.23053,52.92944 -5.77625,49.19715 -0.79868,-0.65574 -2.30701,-17.28445 -3.35183,-36.95266 -1.75756,-33.08542 -2.26141,-40.56699 -3.49794,-51.9397 -0.25083,-2.30704 -2.42663,-4.19461 -4.83508,-4.19461 -2.40845,0 -4.40508,1.88757 -4.43696,4.19461 -0.52843,38.2465 -4.10585,100.92218 -5.91715,103.66729 -4.12249,6.24784 -8.37224,-7.66275 -7.06503,-23.12578 3.19871,-37.8377 3.92983,-87.13306 1.29231,-87.13306 -1.56688,0 -2.94389,2.9662 -3.06003,6.59155 -0.11613,3.62538 -0.70602,10.36673 -1.31084,14.98084 -0.60483,4.61408 -2.15192,22.86415 -3.43801,40.55571 -1.61629,22.23406 -3.4688,32.4735 -5.99942,33.1608 -2.89226,0.78556 -3.2981,-9.2064 -1.93262,-47.58107 l 1.72846,-48.57547 8.71571,-6.68475 c 9.68816,-7.43061 10.70786,-17.76714 1.71805,-17.41566 -2.80986,0.10982 -12.33419,0.37951 -21.16519,0.59923 -15.05081,0.37448 -16.05635,0.77476 -16.05635,6.39183 0,3.29578 1.65454,5.99234 3.67677,5.99234 9.42461,0 11.77687,10.24562 12.64241,55.06623 0.69733,36.11034 0.0472,45.42822 -3.48007,49.87591 -5.14631,6.48918 -10.99531,4.68424 -8.20571,-2.53223 2.91298,-7.53558 1.6929,-85.34167 -1.40963,-89.89347 -3.43962,-5.04644 -5.54301,7.38806 -7.61378,45.00991 -0.83446,15.16059 -2.23087,36.19366 -3.10313,46.74017 -1.80912,21.874 -7.02885,30.43303 -7.23578,11.8648 z M 100.77309,171.35414 c 4.247,-5.20202 2.07711,-11.09791 -6.586114,-17.89544 l -8.820314,-6.9208 -10.374941,8.51839 c -9.28111,7.62027 -10.000394,9.09297 -6.822386,13.96852 5.131681,7.8728 26.813376,9.42181 32.603755,2.32933 z M 75.208426,144.46882 c 2.601988,-2.13636 5.48744,-6.99015 6.412114,-10.78619 1.875537,-7.69957 6.790066,-9.41752 6.790066,-2.37357 0,2.49059 2.422785,6.98493 5.383964,9.98744 6.52513,6.6162 15.06936,4.8773 15.01153,-3.0551 -0.0752,-10.31747 -3.19767,-15.06448 -13.58437,-20.65199 l -10.402364,-5.59594 -9.881729,7.86382 c -8.215125,6.53759 -9.881729,9.60369 -9.881729,18.17984 0,11.02016 2.57624,12.6522 10.152518,6.43169 z M 202.1314,142.49274 c 1.92549,-1.90491 3.07162,-5.94974 2.54696,-8.98849 -0.88072,-5.10101 -2.55272,-5.57867 -21.7856,-6.22376 l -20.83164,-0.6987 -1.21742,8.56201 c -0.66958,4.7091 -0.60073,9.06833 0.153,9.68719 0.75374,0.61886 9.52969,1.12521 19.50211,1.12521 12.24864,0 19.26759,-1.12378 21.63257,-3.46346 z m 20.56871,-5.98281 c 0,-2.55882 -1.3137,-5.31901 -2.91933,-6.13377 -1.65572,-0.8402 -2.91934,1.17356 -2.91934,4.65239 0,3.37359 1.3137,6.1338 2.91934,6.1338 1.60563,0 2.91933,-2.0936 2.91933,-4.65242 z m 6.77846,-13.9238 c 0.70638,-0.98874 0.63481,-5.30321 -0.15905,-9.58773 -1.00205,-5.40805 -3.0233,-7.79002 -6.61026,-7.79002 -5.75233,0 -9.03077,7.04381 -6.69369,14.38158 1.47011,4.61575 10.81938,6.69641 13.463,2.99617 z m -26.96932,-7.11956 c 4.12573,-8.90966 -0.86182,-11.45666 -22.43433,-11.45666 -16.61662,0 -17.25364,0.23154 -18.14496,6.59156 -0.86018,6.13806 -0.15723,6.60798 10.21768,6.83049 9.05203,0.19415 17.09205,1.50158 26.5402,4.31601 0.44115,0.13135 2.16079,-2.69523 3.82141,-6.2814 z M 75.065064,108.63256 c 5.85856,-4.81019 6.072638,-15.408841 0.311239,-15.408841 -5.058885,0 -10.320395,7.251631 -10.320395,14.224011 0,5.90635 3.721963,6.34696 10.009156,1.18483 z m 30.307956,-5.20197 c -0.65491,-6.48259 -2.40811,-9.202485 -6.324992,-9.812504 -8.30206,-1.292976 -10.282518,2.415004 -5.870401,10.991054 5.744347,11.16556 13.368043,10.42883 12.195393,-1.17855 z M 54.758087,236.43231 c -0.908078,-2.9706 -1.261534,-14.02645 -0.785454,-24.56854 0.682991,-15.12387 1.789385,-19.1674 5.244602,-19.1674 3.303194,0 4.606079,3.53317 5.303293,14.38159 1.632021,25.39364 -4.936077,45.14304 -9.762441,29.35435 z m 45.329873,-19.47314 c 0,-15.87966 1.14997,-23.26097 3.91777,-25.14698 6.39189,-4.35553 7.75957,-0.6227 7.75957,21.17818 0,19.33591 -2.51164,26.44617 -9.34188,26.44617 -1.2845,0 -2.33546,-10.11482 -2.33546,-22.47737 z"
     id="path3315"
     inkscape:connector-curvature="0" />
</svg>
