<?xml version="1.0" encoding="UTF-8" standalone="no"?>
<!-- Created with Inkscape (http://www.inkscape.org/) -->

<svg
   xmlns:dc="http://purl.org/dc/elements/1.1/"
   xmlns:cc="http://creativecommons.org/ns#"
   xmlns:rdf="http://www.w3.org/1999/02/22-rdf-syntax-ns#"
   xmlns:svg="http://www.w3.org/2000/svg"
   xmlns="http://www.w3.org/2000/svg"
   xmlns:sodipodi="http://sodipodi.sourceforge.net/DTD/sodipodi-0.dtd"
   xmlns:inkscape="http://www.inkscape.org/namespaces/inkscape"
   width="300"
   height="300"
   id="svg2"
   version="1.1"
   inkscape:version="0.48.4 r9939"
   sodipodi:docname="image-seal.svg">
  <defs
     id="defs4" />
  <sodipodi:namedview
     id="base"
     pagecolor="#ffffff"
     bordercolor="#666666"
     borderopacity="1.0"
     inkscape:pageopacity="0.0"
     inkscape:pageshadow="2"
     inkscape:zoom="2.0018437"
     inkscape:cx="145.03351"
     inkscape:cy="130.6666"
     inkscape:document-units="px"
     inkscape:current-layer="layer1"
     showgrid="false"
     inkscape:window-width="1215"
     inkscape:window-height="1000"
     inkscape:window-x="65"
     inkscape:window-y="24"
     inkscape:window-maximized="1"
     fit-margin-top="10"
     fit-margin-left="10"
     fit-margin-right="10"
     fit-margin-bottom="10" />
  <metadata
     id="metadata7">
    <rdf:RDF>
      <cc:Work
         rdf:about="">
        <dc:format>image/svg+xml</dc:format>
        <dc:type
           rdf:resource="http://purl.org/dc/dcmitype/StillImage" />
        <dc:title />
      </cc:Work>
    </rdf:RDF>
  </metadata>
  <g
     inkscape:label="Calque 1"
     inkscape:groupmode="layer"
     id="layer1"
     transform="translate(0,-752.36218)">
    <path
       style="fill:#000000"
       d="m 188.21341,1024.9933 c 0,-20.9344 -0.13409,-21.3689 -6.58715,-21.3689 -10.19174,0 -23.82876,-7.64416 -27.49451,-15.41186 -1.82266,-3.86216 -3.31392,-16.48662 -3.31392,-28.05435 0,-18.59768 0.54109,-20.92657 4.67445,-20.11946 4.9858,0.97354 7.04876,15.93377 3.21913,23.34456 -1.08921,2.10775 -0.98556,5.71375 0.23025,8.01334 1.21589,2.29958 3.78483,8.08757 5.70878,12.86218 l 3.49812,8.68112 21.38462,-0.085 c 14.0316,-0.0558 23.07307,-1.3644 26.2951,-3.80596 5.58877,-4.23497 9.62335,-18.91292 9.71692,-35.35036 0.0689,-12.08334 3.06713,-16.21093 7.7111,-10.61529 2.04298,2.46164 2.15335,10.21511 0.3703,26.01394 -2.81362,24.93021 -6.46917,30.32122 -22.61425,33.35004 -9.48812,1.78 -12.11454,7.5616 -12.11454,26.668 0,11.447 -2.34174,17.2469 -6.96357,17.2469 -2.87037,0 -3.72088,-4.8845 -3.72088,-21.3689 z M 60,1023.6036 c 0,-0.7644 8.96351,-10.2664 19.91889,-21.1156 10.95538,-10.84933 20.62729,-22.54849 21.49312,-25.99823 0.86584,-3.44971 1.21784,-15.87207 0.78223,-27.6052 -0.74428,-20.0479 -1.21466,-21.53502 -7.80855,-24.6869 -11.66742,-5.57702 -14.28575,-16.57156 -14.32072,-60.13375 -0.024,-29.71458 -0.852,-39.39499 -3.37052,-39.39891 -1.83639,-0.003 -3.33889,-1.25508 -3.33889,-2.78271 0,-5.29338 10.19724,-22.62855 17.10228,-29.07365 7.81376,-7.29329 8.86444,-14.68375 2.93107,-20.61712 -4.52099,-4.52099 -5.31755,-13.18408 -1.43297,-15.58487 1.41553,-0.87484 4.83792,0.67363 7.60535,3.44106 3.4006,3.40059 10.48057,5.52576 21.84092,6.55587 17.86561,1.62 21.29482,4.15521 21.36139,15.79234 0.0417,7.29903 -8.71403,16.4037 -18.87715,19.62934 -3.19932,1.01542 -5.12196,4.06471 -5.12196,8.12344 0,5.37757 1.32511,6.49778 7.68626,6.49778 12.3334,0 14.56383,5.4343 15.70429,38.26246 1.3,37.42114 1.38249,33.36495 -0.93072,45.77195 -2.01878,10.82772 -11.36799,22.8101 -17.79755,22.8101 -8.14303,0 -10.00451,6.49326 -10.00451,34.89846 0,31.11958 0.44143,32.24126 20.7531,52.73294 8.74231,8.8198 9.2999,13.8709 1.53127,13.8709 -4.08252,0 -22.10369,-18.0253 -22.2224,-22.2275 -0.0342,-1.2067 -1.85754,-3.98972 -4.05213,-6.18429 -3.53949,-3.53949 -5.42511,-2.50556 -16.69446,9.15389 -6.98737,7.2292 -15.32978,14.5196 -18.5387,16.2009 C 68.1767,1025.0917 60,1026.0518 60,1023.6036 z m 64.77449,-109.3764 c 7.17965,-3.05992 5.77283,-14.54554 -2.67111,-21.80774 -9.25901,-7.9632 -10.65258,-7.86768 -21.95744,1.50488 -8.7075,7.21919 -9.04917,8.09713 -5.63418,14.4781 4.42083,8.26036 18.28613,10.92907 30.26273,5.82476 z m -22.00022,-36.90687 c 0.11005,-17.85174 8.81393,-24.51873 12.08246,-9.25492 1.84617,8.62141 10.9271,19.91437 13.74647,17.09498 0.80972,-0.80972 2.07594,-6.82843 2.81383,-13.37495 1.29509,-11.49019 0.9686,-12.14958 -9.41921,-19.02393 -10.56981,-6.99477 -10.91927,-7.04001 -19.68487,-2.5476 -4.90824,2.51546 -9.80714,5.90834 -10.88648,7.53975 -2.40598,3.63661 -2.69021,26.80539 -0.35748,29.13815 3.2204,3.22037 11.66903,-3.68811 11.70528,-9.57148 z m -0.0839,-36.59267 c 5.05396,-4.38324 5.53054,-6.00185 2.75277,-9.34889 -1.84767,-2.22629 -5.61624,-4.04783 -8.37459,-4.04783 -3.95087,0 -5.01515,1.98397 -5.01515,9.34889 0,10.71311 2.05166,11.49385 10.63699,4.04783 z m 30.54008,-1.75307 c 2.29957,-5.99257 -5.39342,-17.22465 -10.46456,-15.27866 -4.86476,1.86676 -5.22894,10.47952 -0.66246,15.66615 4.49353,5.10378 9.08114,4.94402 11.12702,-0.38749 z m -16.84921,-38.42946 c 12.23523,-12.27331 15.65397,-17.35371 14.37961,-21.3689 -2.78642,-8.77923 -10.39586,-5.99836 -24.75491,9.04673 -27.69699,29.02023 -17.88639,40.67173 10.3753,12.32217 z M 80.11732,982.39127 c -1.83049,-2.96178 0.41386,-48.26842 2.4941,-50.34865 0.59026,-0.59029 2.52148,-0.17817 4.29154,0.91581 2.31471,1.43055 2.76749,8.37768 1.61261,24.74236 -1.56314,22.14996 -4.5469,30.92208 -8.39825,24.69048 z m 43.59217,-5.27234 c -1.99879,-5.86457 0.92741,-48.28571 3.33077,-48.28571 4.75548,0 7.97575,14.24464 7.19458,31.82484 -0.61203,13.7737 -1.72394,17.71554 -5.18313,18.37466 -2.42216,0.46155 -4.82616,-0.39967 -5.34222,-1.91379 z m 54.4873,0.61435 c -3.30549,-0.65538 -6.14177,-2.00948 -6.30284,-3.00914 -3.61654,-22.44782 1.63723,-29.86424 21.1558,-29.86424 10.98303,0 14.34845,1.12769 17.71673,5.93657 5.85779,8.3632 5.53152,25.40228 -0.51634,26.96331 -5.96043,1.53845 -24.23625,1.52333 -32.05335,-0.0267 z m 22.70447,-10.3082 c 6.0642,-1.86823 3.77698,-11.66899 -3.12765,-13.40193 -13.8043,-3.46467 -24.78218,4.77039 -17.33861,13.00658 3.44247,3.80904 9.0349,3.91706 20.46626,0.39535 z m -18.03002,-32.29265 c -21.50659,-3.88228 -25.66749,-9.79094 -23.41354,-33.24833 1.78118,-18.53707 5.85257,-20.94158 35.63572,-21.04597 21.76548,-0.0761 24.81223,0.52907 29.82212,5.92507 3.06898,3.3055 6.39796,11.57246 7.3977,18.37105 1.64019,11.15393 1.07555,13.16197 -5.78213,20.5626 -6.27437,6.77114 -10.16212,8.4143 -22.29097,9.42131 -8.08012,0.67083 -17.69613,0.67726 -21.36891,0.0134 z m 31.38558,-14.70825 c 3.30549,-1.74797 6.00999,-5.37903 6.00999,-8.069 0,-4.07379 -2.34274,-4.9508 -14.02333,-5.24959 -13.43631,-0.34369 -37.59196,0.47118 -38.49527,1.29864 -0.23748,0.2177 0.19044,3.63448 0.95086,7.59309 1.09823,5.71645 3.11078,7.38897 9.78081,8.12828 13.09545,1.45148 29.17926,-0.21235 35.77694,-3.70142 z m 5.52799,-25.64765 c 0.81488,-5.73757 0.0134,-6.01 -17.69612,-6.01 -22.61987,0 -35.7794,2.40085 -34.48265,6.29109 1.46983,4.40955 11.93354,6.33983 32.62743,6.01889 17.25384,-0.26759 18.76371,-0.7541 19.55134,-6.29998 z m -46.84213,-22.76918 c -15.71544,-2.5172 -16.7697,-3.1549 -19.65155,-11.88703 -1.67487,-5.07496 -2.92781,-19.03617 -2.78432,-31.02495 0.238,-19.89178 0.86005,-22.32329 7.11275,-27.80778 4.26733,-3.74306 10.32194,-6.01 16.05172,-6.01 l 9.19996,0 0,-18.69779 c 0,-16.69972 0.55163,-18.69779 5.16221,-18.69779 2.83924,0 5.92434,2.40119 6.85582,5.33603 1.77917,5.60562 12.37929,9.76481 17.23628,6.76304 4.27387,-2.64138 13.48349,1.07646 13.48349,5.44317 0,2.80515 -3.52309,3.82666 -13.19792,3.82666 -14.21146,0 -17.48924,2.36503 -14.84118,10.70836 1.37349,4.32747 4.05291,5.31832 14.38183,5.31832 18.9356,0 24.34172,7.33143 24.34172,33.01062 0,29.90362 -2.42054,34.42463 -22.13829,41.34947 -9.12607,3.20504 -18.39585,5.64785 -20.59951,5.42847 -2.20367,-0.2193 -11.47951,-1.59585 -20.61301,-3.0588 z m 29.50573,-9.78209 c 13.14995,-3.05191 14.51082,-4.62247 8.88169,-10.25013 -3.75636,-3.7554 -5.02591,-3.94144 -6.84278,-1.00281 -1.50977,2.44195 -6.87405,3.41394 -16.59784,3.00748 -20.62876,-0.86234 -26.38714,-0.28252 -26.38714,2.65701 0,6.14001 24.28688,9.45478 40.94607,5.58845 z m -30.18864,-18.36852 c 3.63263,-4.1328 8.90538,-8.79838 11.71718,-10.36793 4.91918,-2.74587 4.86311,-3.09282 -1.48329,-9.18024 -8.31602,-7.97669 -18.37684,-13.83804 -20.35575,-11.85912 -1.83978,1.83975 -2.69644,27.72759 -1.13329,34.24706 1.53776,6.4136 3.57299,5.90011 11.25515,-2.83977 z m -7.60913,-14.23634 c 0.47209,-4.93199 2.06036,-8.66674 3.52947,-8.29947 3.96874,0.99219 3.23614,14.72537 -0.85836,16.0902 -2.55994,0.85331 -3.29367,-1.28678 -2.67111,-7.79073 z m 60.9584,0.22411 c 0,-21.70632 -2.09851,-22.88372 -17.32575,-9.72079 l -10.20247,8.81934 4.72242,7.20733 c 2.59733,3.96404 5.87204,7.20733 7.27712,7.20733 1.40509,0 4.36874,1.81406 6.58593,4.03122 6.61252,6.61255 8.94275,2.041 8.94275,-17.54443 z m -11.73351,3.29231 c -1.92744,-3.11864 1.19442,-13.81911 4.0317,-13.81911 1.29776,0 2.35958,3.606 2.35958,8.01334 0,7.56883 -3.39541,10.65319 -6.39128,5.80577 z m -9.63539,13.30601 c 0,-4.52281 -10.00049,-11.19324 -14.30483,-9.54151 -4.48488,1.721 -5.81357,6.81655 -2.61221,10.01788 2.58919,2.58921 16.91704,2.18574 16.91704,-0.47637 z m 0.81263,-32.50835 c 7.14474,-6.74138 7.88312,-8.47849 4.52959,-10.65638 -2.20366,-1.43113 -5.61425,-2.0111 -7.57907,-1.28878 -1.96481,0.72229 -8.27531,2.06527 -14.02333,2.98443 -5.74802,0.91913 -10.45094,2.34158 -10.45094,3.16097 0,3.1669 11.80381,13.8541 15.3016,13.8541 2.02724,0 7.52722,-3.62446 12.22216,-8.05434 z m -16.83931,-1.10878 c 0,-2.72726 2.41156,-4.19244 6.90037,-4.19244 8.36784,0 7.45197,6.27302 -1.09959,7.53133 -3.85231,0.56684 -5.80078,-0.55468 -5.80078,-3.33889 z"
       id="path3015"
       inkscape:connector-curvature="0" />
  </g>
</svg>
