<?xml version="1.0" encoding="UTF-8" standalone="no"?>
<svg
   xmlns:dc="http://purl.org/dc/elements/1.1/"
   xmlns:cc="http://creativecommons.org/ns#"
   xmlns:rdf="http://www.w3.org/1999/02/22-rdf-syntax-ns#"
   xmlns:svg="http://www.w3.org/2000/svg"
   xmlns="http://www.w3.org/2000/svg"
   viewBox="0 0 300 300"
   height="300"
   width="300"
   id="svg263"
   version="1.1">
  <metadata
     id="metadata269">
    <rdf:RDF>
      <cc:Work
         rdf:about="">
        <dc:format>image/svg+xml</dc:format>
        <dc:type
           rdf:resource="http://purl.org/dc/dcmitype/StillImage" />
        <dc:title></dc:title>
      </cc:Work>
    </rdf:RDF>
  </metadata>
  <defs
     id="defs267" />
  <path
     id="path273"
     d="m 105.07707,284.41567 c -1.89002,-0.76149 -5.8344,-8.91548 -7.50017,-15.50468 -1.6531,-6.53906 -1.70183,-18.6051 -0.0965,-23.90429 2.28255,-7.53485 9.65144,-11.92242 25.95593,-15.4546 5.89601,-1.27732 11.55778,-2.32746 12.58172,-2.33366 4.25596,-0.0258 8.832,-1.53547 11.04779,-3.64477 l 2.25554,-2.14717 -5.1699,-1.27521 c -7.83929,-1.93366 -22.98518,-2.38579 -30.21523,-0.90199 -13.88986,2.85057 -18.1639,0.98939 -21.33396,-9.29011 -2.83452,-9.19146 -3.26238,-14.36212 -3.05043,-36.86361 0.26461,-28.09287 -1.83015,-74.7484 -3.62108,-80.65039 -0.57522,-1.895626 -1.04921,-3.657085 -1.05332,-3.914346 -0.0194,-1.215905 2.39135,-2.634186 4.47748,-2.634186 3.74907,0 5.69573,1.121653 7.2566,4.181225 3.19275,6.258307 3.54456,10.113297 4.03418,44.205507 0.25424,17.70326 0.66267,32.38815 0.90762,32.63309 0.24495,0.24495 6.87305,0.0624 14.72913,-0.40553 34.14992,-2.03432 60.66249,0.906 75.96593,8.42482 6.88801,3.38418 14.52772,10.22296 18.95695,16.96954 3.9431,6.0061 12.30542,21.03068 13.80513,24.80368 1.25192,3.1496 1.54374,8.84053 0.53502,10.43388 -0.35862,0.56647 -1.83974,0.99643 -3.56192,1.03398 -2.9435,0.0642 -2.95409,0.0554 -6.87661,-5.70824 -2.16072,-3.1749 -5.2218,-8.74043 -6.80241,-12.36785 -8.5397,-19.59818 -20.49003,-28.6837 -42.43029,-32.25861 -7.73583,-1.26046 -10.59958,-1.18058 -56.70575,1.58171 l -7.06553,0.4233 v 3.68973 3.68974 l 14.64804,0.0132 c 29.89664,0.0269 45.54182,1.70149 57.84503,6.1916 7.25847,2.64902 11.08031,4.93552 15.87236,9.49597 5.74775,5.46997 9.81957,11.79199 19.45445,30.20553 8.9249,17.05671 10.48153,21.46141 9.41955,26.65394 -0.35065,1.71442 -0.91063,2.27571 -2.7445,2.75091 -1.26718,0.32836 -2.68912,0.44923 -3.15985,0.2686 -0.92844,-0.35629 -8.50658,-15.21539 -13.40962,-26.29337 -11.96052,-27.02372 -26.52642,-35.14043 -67.39643,-37.55602 -6.52526,-0.38567 -15.90863,-0.70122 -20.85192,-0.70122 h -8.98779 v 3.74639 c 0,2.06051 0.31427,4.57298 0.69838,5.58325 0.65989,1.73566 0.87826,1.81153 3.96358,1.37726 6.59215,-0.92788 34.84816,-1.18473 39.10983,-0.35551 13.16328,2.56124 27.941,11.99924 36.20624,23.12362 3.29563,4.43566 7.1408,12.05319 8.52394,16.88649 0.59025,2.06255 2.04435,8.38393 3.23135,14.04751 2.59419,12.37774 2.59525,18.37082 0.004,20.46941 -1.81598,1.47049 -5.08445,1.69934 -6.06843,0.42488 -0.36589,-0.47391 -2.5951,-7.84101 -4.9538,-16.37134 -2.35869,-8.53033 -5.30967,-17.68104 -6.5577,-20.33492 -3.00141,-6.38232 -7.62853,-12.38985 -13.21807,-17.16143 l -4.55896,-3.89182 -2.52494,3.61413 c -2.82693,4.04639 -5.93784,6.42054 -9.76238,7.45039 -4.68747,1.2622 -4.68711,1.36944 0.0512,15.58574 2.96645,8.9 5.43674,14.9002 7.99223,19.41264 2.0343,3.59212 3.69872,7.06366 3.69872,7.71456 0,0.65088 -0.59955,1.72602 -1.33234,2.38918 -4.3736,3.95806 -14.1259,-5.92814 -20.22836,-20.50612 -1.82768,-4.36649 -5.3226,-17.64145 -5.3226,-20.21781 0,-0.81987 -7.52345,0.008 -13.87282,1.52578 l -7.42115,1.77448 -1.24378,3.2231 c -1.7201,4.45742 -1.47007,11.25831 0.73937,20.11142 2.34663,9.40283 2.37563,13.28155 0.11614,15.54102 -1.80261,1.80262 -2.59349,1.96092 -4.98438,0.99763 z m -43.66104,-56.2194 c -1.10958,-2.91844 -0.75561,-15.88949 0.70419,-25.80461 4.64347,-31.53895 5.56683,-48.34202 5.4168,-98.57269 -0.0887,-29.707658 0.12061,-44.249571 0.69962,-48.597032 2.99269,-22.470511 11.05345,-33.613034 27.43633,-37.925622 7.61046,-2.003362 21.48872,-2.590248 51.23575,-2.166671 37.06615,0.527796 55.14838,2.192138 61.00478,5.615061 6.73289,3.935211 9.38905,9.169828 9.85304,19.417861 0.26176,5.781498 0.0634,7.833407 -1.14049,11.796899 l -1.45737,4.798047 -3.97224,1.719388 c -12.62293,5.463824 -22.62289,6.111957 -70.25236,4.553305 -27.61522,-0.903695 -31.33836,-0.652334 -34.51299,2.330071 -2.21653,2.082323 -1.96807,2.99477 1.15586,4.244719 7.09257,2.837883 22.01615,3.05352 45.63496,0.659397 11.37745,-1.153276 11.67552,-1.148056 32.39802,0.567439 23.33908,1.932104 24.65888,2.261937 28.18007,7.042497 3.06168,4.1567 4.57745,10.104087 6.5245,25.599971 3.04763,24.25517 8.78767,55.28346 15.55486,84.0832 4.3929,18.6953 4.45387,23.72419 0.30028,24.76668 -2.49455,0.62609 -3.95476,-0.39513 -6.00131,-4.19713 -6.46997,-12.01961 -16.84368,-61.92825 -22.61215,-108.78866 -0.95985,-7.79741 -2.74102,-11.088568 -7.35593,-13.591963 -5.73377,-3.110341 -9.37249,-3.363859 -47.27564,-3.293769 -19.42709,0.03592 -37.82611,0.0921 -40.88671,0.124829 -4.68313,0.05012 -6.24227,-0.244543 -9.84136,-1.859715 -7.42944,-3.334138 -9.6314,-7.227324 -8.86542,-15.674598 0.48117,-5.306429 1.85214,-7.152216 7.44359,-10.021584 6.39702,-3.282762 11.19027,-3.589682 55.42982,-3.549255 27.24519,0.0249 39.70784,-0.204491 42.36104,-0.779699 6.61798,-1.434766 8.98575,-5.416225 7.98489,-13.4268 -0.42459,-3.398277 -0.74802,-3.987421 -3.00795,-5.479074 -6.65543,-4.392875 -14.42865,-5.07086 -61.12437,-5.3313 -31.69457,-0.176774 -32.51513,-0.147394 -37.79161,1.353086 -10.81144,3.074457 -16.37629,7.743056 -21.10347,17.704616 -4.51095,9.505882 -5.21164,13.359819 -5.21164,28.665061 0,7.392952 0.43047,18.335365 0.95658,24.316465 1.09654,12.46575 0.71375,70.23592 -0.56511,85.28534 -1.67568,19.71919 -3.77802,31.38278 -6.89839,38.27167 -3.12577,6.90084 -8.82951,10.27124 -10.39847,6.14457 z m 124.7839,-65.58589 -7.23786,-2.49035 -21.3689,-0.16315 c -21.3477,-0.16298 -25.41292,-0.53917 -34.19029,-3.16385 -5.00849,-1.49768 -8.46489,-10.41208 -6.84451,-17.65268 0.69366,-3.09961 1.28336,-4.02402 3.69706,-5.79542 6.77475,-4.97195 13.37242,-6.62234 29.91578,-7.48338 23.20738,-1.20789 28.43149,-2.28912 31.80953,-6.58359 1.83883,-2.3377 2.48072,-5.86611 1.72095,-9.45991 -0.55032,-2.60308 -0.97836,-3.04948 -4.84126,-5.04888 -5.02452,-2.60063 -6.42949,-2.74488 -36.08763,-3.70509 -20.56819,-0.66591 -26.41439,-1.39045 -29.95886,-3.71288 -2.34923,-1.53927 -2.20331,-3.40845 0.49045,-6.28251 l 2.24029,-2.390228 30.33005,1.30506 c 27.31353,1.175258 30.71706,1.450498 34.22116,2.767408 7.44441,2.79779 12.66144,8.14773 14.4605,14.82888 1.29397,4.80546 0.51667,11.91397 -1.81286,16.57882 -1.80295,3.61039 -2.58441,4.40906 -6.19894,6.33554 -5.80237,3.09254 -13.0617,4.88884 -23.0922,5.71411 -29.63338,2.43808 -34.59283,3.33849 -35.42221,6.43103 -0.7271,2.71115 -0.46007,3.10484 2.85186,4.20466 5.83733,1.93846 13.85109,2.54829 24.42697,1.85885 10.19373,-0.66453 22.50834,-0.12355 28.37714,1.24658 6.85618,1.60065 14.07673,4.86478 16.25873,7.34993 2.67174,3.04296 2.95342,6.79277 0.55843,7.4346 -3.27715,0.87825 -7.32628,0.27709 -14.30338,-2.12355 z M 123.6048,121.69132 c -2.3912,-0.31044 -6.00604,-1.04655 -8.03297,-1.6358 l -3.68534,-1.07135 -0.24017,-3.56111 -0.24017,-3.56109 3.10324,-1.43656 c 2.93152,-1.35705 4.45741,-1.44756 27.57409,-1.63557 21.27587,-0.17304 24.85526,-0.0523 27.41513,0.92427 3.16956,1.20923 5.23137,4.06952 4.85239,6.73159 -0.48991,3.44124 -15.42111,5.99998 -34.33548,5.88402 -6.63469,-0.0407 -14.01952,-0.32794 -16.41072,-0.6384 z M 163.79704,44.071176 C 160.00579,43.944537 144.21133,43.572812 128.69823,43.24512 97.41504,42.584308 98.65636,42.801257 98.65636,37.994559 c 0,-1.859523 0.4134,-2.344362 3.12037,-3.659508 3.1068,-1.5094 3.2974,-1.515997 43.79393,-1.515997 42.53506,0 43.63072,0.07082 46.04012,2.976145 0.51166,0.616958 0.97694,2.099871 1.03398,3.295361 0.0895,1.875485 -0.27448,2.374464 -2.65357,3.637942 -2.92333,1.552508 -9.62624,1.89609 -26.19415,1.342674 z"
     style="fill:#000000;stroke-width:0.68931955" />
</svg>
