<?xml version="1.0" encoding="UTF-8" standalone="no"?>
<!-- Created with Inkscape (http://www.inkscape.org/) -->

<svg
   xmlns:dc="http://purl.org/dc/elements/1.1/"
   xmlns:cc="http://creativecommons.org/ns#"
   xmlns:rdf="http://www.w3.org/1999/02/22-rdf-syntax-ns#"
   xmlns:svg="http://www.w3.org/2000/svg"
   xmlns="http://www.w3.org/2000/svg"
   xmlns:sodipodi="http://sodipodi.sourceforge.net/DTD/sodipodi-0.dtd"
   xmlns:inkscape="http://www.inkscape.org/namespaces/inkscape"
   width="300"
   height="300"
   id="svg2"
   version="1.1"
   inkscape:version="0.48.4 r9939"
   sodipodi:docname="image-seal.svg">
  <defs
     id="defs4" />
  <sodipodi:namedview
     id="base"
     pagecolor="#ffffff"
     bordercolor="#666666"
     borderopacity="1.0"
     inkscape:pageopacity="0.0"
     inkscape:pageshadow="2"
     inkscape:zoom="2.0018437"
     inkscape:cx="123.3515"
     inkscape:cy="143.3195"
     inkscape:document-units="px"
     inkscape:current-layer="layer1"
     showgrid="false"
     inkscape:window-width="1215"
     inkscape:window-height="1000"
     inkscape:window-x="65"
     inkscape:window-y="24"
     inkscape:window-maximized="1"
     fit-margin-top="10"
     fit-margin-left="10"
     fit-margin-right="10"
     fit-margin-bottom="10" />
  <metadata
     id="metadata7">
    <rdf:RDF>
      <cc:Work
         rdf:about="">
        <dc:format>image/svg+xml</dc:format>
        <dc:type
           rdf:resource="http://purl.org/dc/dcmitype/StillImage" />
        <dc:title />
      </cc:Work>
    </rdf:RDF>
  </metadata>
  <g
     inkscape:label="Calque 1"
     inkscape:groupmode="layer"
     id="layer1"
     transform="translate(0,-752.36218)">
    <path
       style="fill:#000000"
       d="m 238.82867,1044.2221 c -1.72705,-1.727 -3.14009,-4.6868 -3.14009,-6.5773 0,-1.8905 -1.05588,-5.482 -2.34641,-7.9811 -1.2905,-2.4991 -6.20972,-16.9079 -10.93153,-32.01963 -8.39519,-26.86784 -16.07186,-39.25117 -24.33258,-39.25117 -2.10169,0 -4.32108,1.47192 -4.93193,3.27093 -1.17775,3.46839 8.26906,32.49782 16.56872,50.91467 4.96174,11.01 4.38386,20.0988 -1.17031,18.4056 -4.04925,-1.2344 -13.12593,-20.3974 -20.42016,-43.11185 -6.09382,-18.97642 -9.2342,-22.76447 -16.54604,-19.95866 -8.2754,3.17557 -1.00127,49.54401 9.91862,63.22531 1.94991,2.4431 1.48782,4.63 -1.63898,7.7568 -3.8116,3.8116 -4.78683,3.8768 -7.82179,0.5229 -7.18788,-7.9434 -22.57842,-67.33638 -18.19076,-70.19928 1.40584,-0.9173 3.08537,-3.31471 3.73226,-5.32762 0.64691,-2.01287 7.39583,-5.25151 14.99761,-7.19696 7.6018,-1.94544 16.12974,-5.15394 18.95096,-7.13003 4.82493,-3.37949 4.30726,-4.01911 -8.71756,-10.77109 -7.6159,-3.94801 -15.13621,-8.21095 -16.71181,-9.47319 -1.69905,-1.36115 -3.63319,-19.07162 -4.75339,-43.52543 -4.71035,-102.82557 -4.09466,-117.11606 5.04573,-117.11606 5.18323,0 5.31911,0.4551 6.25703,20.95659 0.22007,4.81156 1.90033,5.22328 19.86604,4.8679 14.34899,-0.28384 19.62558,0.50747 19.62558,2.94311 0,4.50941 -9.7188,6.73968 -21.2998,4.88794 -7.63613,-1.22097 -10.68545,-0.36192 -15.38026,4.33289 -5.53572,5.53572 -5.76686,7.29559 -4.22863,32.19741 0.89493,14.48792 2.693,27.4075 3.99566,28.71016 1.3027,1.3027 5.13652,1.42951 8.51963,0.28178 3.38308,-1.14771 7.32861,-1.74608 8.76782,-1.3297 1.43921,0.41637 7.73572,1.32839 13.99225,2.02667 9.55384,1.06629 13.63952,3.5701 25.51326,15.63512 9.29816,9.44797 14.13775,16.5456 14.13775,20.73412 0,7.70298 -6.50206,8.54361 -10.35778,1.33914 -1.48043,-2.76621 -4.1713,-6.5932 -5.97974,-8.50442 -1.80843,-1.91124 -6.58621,-7.89074 -10.61728,-13.28777 -6.72809,-9.00796 -8.3813,-9.8128 -20.15665,-9.8128 -17.904,0 -26.1574,4.22466 -26.1574,13.38913 0,7.26235 0.13738,7.32115 18.8739,8.08438 l 18.8739,0.76882 9.2561,12.30532 c 10.05479,13.36712 26.36224,43.36257 26.30223,48.37955 -0.0793,6.62031 -5.83722,6.19715 -12.4725,-0.9166 -6.67183,-7.15292 -18.93214,-28.62532 -18.95478,-33.19688 -0.005,-1.21705 -2.48549,-5.68799 -5.50995,-9.93546 -5.12649,-7.19948 -6.50033,-7.67002 -20.27976,-6.94581 -13.56837,0.71314 -14.78076,1.28341 -14.78076,6.95235 0,4.80586 3.32732,8.01713 15.00242,14.4791 8.25135,4.56698 16.11399,9.44197 17.47253,10.83332 5.88223,6.02435 23.58461,43.39753 29.08613,61.4065 3.29744,10.7941 6.98626,20.7443 8.19737,22.1115 2.80491,3.1665 2.89974,24.9899 0.10859,24.9899 -1.15136,0 -3.50643,-1.413 -5.23348,-3.1401 z m -166.851864,-4.9775 c -7.05362,-11.413 6.39983,-127.95309 14.77095,-127.95309 1.32171,0 2.40753,-2.06069 2.41292,-4.57931 0.005,-2.51861 2.3905,-8.48416 5.30027,-13.25679 3.01674,-4.94805 5.790524,-15.06973 6.453914,-23.5507 0.63988,-8.18026 1.91959,-21.7872 2.8438,-30.23763 1.79548,-16.41667 -0.37071,-20.45755 -9.663954,-18.02733 -4.28052,1.11939 -4.94381,3.86847 -4.94381,20.4901 0,21.8338 -3.67943,32.52723 -11.19205,32.52723 -4.29212,0 -4.81699,-1.1618 -3.25081,-7.19604 1.02723,-3.95783 2.46246,-23.09277 3.18939,-42.5221 1.2383,-33.09679 3.23294,-41.28251 9.16596,-37.6157 1.14812,0.70959 2.08751,6.55652 2.08751,12.99319 0,8.21186 1.22338,12.17249 4.10101,13.27675 7.890954,3.02805 10.290454,-3.90284 10.312774,-29.78799 0.0157,-16.92521 1.0281,-25.50703 3.09375,-26.19558 6.37235,-2.12411 8.95393,9.50206 7.12234,32.0754 l -1.79888,22.17021 6.95781,0 c 7.64443,0 10.61585,-4.83407 13.37008,-21.75129 1.22646,-7.53343 2.7088,-9.7558 6.05425,-9.07694 2.91793,0.59214 4.24753,3.10411 3.89521,7.3592 -0.29423,3.55309 -0.74779,20.42272 -1.00797,37.48806 -0.36595,24.00564 0.34732,31.53504 3.15169,33.26886 3.01776,1.86574 2.89186,2.97399 -0.75172,6.61856 -7.00756,7.00945 -12.57052,2.75907 -13.08003,-9.99384 -0.24623,-6.16183 -0.70976,-12.96961 -1.03021,-15.12842 -0.32045,-2.15882 -0.7078,-7.16334 -0.86078,-11.12116 -0.23681,-6.12787 -1.40189,-7.19605 -7.84843,-7.19605 -9.36985,0 -10.77031,3.37874 -10.66373,25.72728 0.09,18.89847 1.39669,21.51843 16.27144,32.62845 8.37861,6.25802 9.81279,8.80547 9.81279,17.42989 0,5.55535 -2.2678,17.38714 -5.03958,26.29284 -7.96229,25.58289 -5.49019,58.13388 6.59977,86.90254 7.51254,17.8764 8.16385,26.3397 1.93393,25.1297 -6.85153,-1.3307 -18.09997,-25.7438 -20.28341,-44.02232 -0.4298,-3.59802 -1.65666,-10.89068 -2.72636,-16.20589 -1.20043,-5.96476 -0.14549,-21.49043 2.75588,-40.55954 5.74836,-37.78037 5.71418,-43.93176 -0.28086,-50.5562 -6.30719,-6.96939 -8.76486,-6.55552 -11.86233,1.99767 -1.43327,3.95783 -3.60166,9.55112 -4.8186,12.42954 -1.21694,2.87841 -3.456124,8.17732 -4.975924,11.77535 -6.62285,15.67911 -13.24745,62.2614 -13.79315,96.98959 -0.39665,25.2429 -2.39495,33.8476 -7.86047,33.8476 -1.17803,0 -2.94402,-1.2978 -3.92438,-2.8841 z m 134.373124,-184.96771 -22.79676,-0.75459 -1.64764,-8.78266 c -2.09624,-11.17384 2.2296,-19.30265 11.33647,-21.30273 3.9163,-0.8601 11.2419,-3.09216 16.27914,-4.96015 8.65158,-3.20831 9.2024,-4.13817 9.94998,-16.79688 0.73573,-12.45848 0.29614,-13.58886 -6.25287,-16.07879 -3.87435,-1.47302 -12.96458,-3.53023 -20.20053,-4.57159 -25.00579,-3.59868 -16.61041,-10.94278 12.5783,-11.00325 12.7644,-0.0264 17.04615,1.12481 22.89651,6.15639 6.38208,5.48888 7.19605,7.98792 7.19605,22.0932 0,21.77395 -6.68746,29.80356 -26.47981,31.7943 -11.00189,1.10657 -14.2276,2.47123 -14.96414,6.33059 -1.30012,6.81272 3.90102,9.37846 19.20162,9.47217 13.875,0.085 22.75673,3.52551 18.29534,7.08708 -1.42718,1.13933 -12.85343,1.73195 -25.39166,1.31691 z"
       id="path3184"
       inkscape:connector-curvature="0" />
  </g>
</svg>
