<?xml version="1.0" encoding="UTF-8" standalone="no"?>
<!-- Created with Inkscape (http://www.inkscape.org/) -->

<svg
   xmlns:dc="http://purl.org/dc/elements/1.1/"
   xmlns:cc="http://creativecommons.org/ns#"
   xmlns:rdf="http://www.w3.org/1999/02/22-rdf-syntax-ns#"
   xmlns:svg="http://www.w3.org/2000/svg"
   xmlns="http://www.w3.org/2000/svg"
   xmlns:sodipodi="http://sodipodi.sourceforge.net/DTD/sodipodi-0.dtd"
   xmlns:inkscape="http://www.inkscape.org/namespaces/inkscape"
   width="300"
   height="300"
   id="svg2"
   version="1.1"
   inkscape:version="0.48.4 r9939"
   sodipodi:docname="image-seal.svg">
  <defs
     id="defs4" />
  <sodipodi:namedview
     id="base"
     pagecolor="#ffffff"
     bordercolor="#666666"
     borderopacity="1.0"
     inkscape:pageopacity="0.0"
     inkscape:pageshadow="2"
     inkscape:zoom="2.0018437"
     inkscape:cx="145.03351"
     inkscape:cy="130.6666"
     inkscape:document-units="px"
     inkscape:current-layer="layer1"
     showgrid="false"
     inkscape:window-width="1215"
     inkscape:window-height="1000"
     inkscape:window-x="65"
     inkscape:window-y="24"
     inkscape:window-maximized="1"
     fit-margin-top="10"
     fit-margin-left="10"
     fit-margin-right="10"
     fit-margin-bottom="10" />
  <metadata
     id="metadata7">
    <rdf:RDF>
      <cc:Work
         rdf:about="">
        <dc:format>image/svg+xml</dc:format>
        <dc:type
           rdf:resource="http://purl.org/dc/dcmitype/StillImage" />
        <dc:title></dc:title>
      </cc:Work>
    </rdf:RDF>
  </metadata>
  <g
     inkscape:label="Calque 1"
     inkscape:groupmode="layer"
     id="layer1"
     transform="translate(0,-752.36218)">
    <path
       style="fill:#000000"
       d="m 220.31499,1042.0692 c 0,-2.9112 -1.11271,-8.0946 -2.4727,-11.5187 -1.35999,-3.4241 -5.90673,-21.1661 -10.10387,-39.42663 -7.50246,-32.64099 -7.75788,-33.20093 -15.14412,-33.20093 -8.90062,0 -10.14044,5.46287 -6.45866,28.45794 3.97517,24.82752 4.81289,46.83402 1.85251,48.66362 -6.37385,3.9393 -10.36818,-4.2899 -12.13165,-24.9937 -3.35411,-39.379 -4.85032,-49.41758 -7.36549,-49.41758 -5.16498,0 -8.13477,15.61043 -8.02546,42.18518 0.0794,19.3358 -1.00207,28.9219 -3.67585,32.5785 -2.08369,2.8496 -4.80297,4.157 -6.04284,2.9053 -3.90765,-3.945 -2.43724,-71.08598 1.72724,-78.86739 3.94991,-7.38044 16.71183,-12.31177 31.92967,-12.33787 4.84463,-0.008 8.80842,-0.67817 8.80842,-1.48854 0,-4.09572 -13.39749,-14.54206 -22.27092,-17.36523 -8.31801,-2.6464 -10.36934,-4.77595 -11.76457,-12.2132 -0.92943,-4.95434 -1.40195,-13.10542 -1.05004,-18.11353 0.35193,-5.00811 0.46256,-22.86935 0.24582,-39.69165 -0.3728,-28.94143 -0.66559,-30.44068 -5.44522,-27.88269 -7.17336,3.83906 -29.26309,-10.39325 -32.12366,-20.69708 -4.27218,-15.38862 -1.02061,-52.28283 4.60781,-52.28283 5.8216,0 8.41257,10.73312 5.34291,22.13302 -3.50551,13.01845 -1.08918,19.86459 12.03738,34.1053 9.71882,10.54369 15.06504,11.24368 15.52557,2.03271 0.1862,-3.72664 0.64369,-7.99533 1.01636,-9.48598 0.37266,-1.49066 0.83002,-11.89575 1.01635,-23.12244 0.26019,-15.67764 1.30885,-20.78443 4.5211,-22.01707 6.18169,-2.37214 7.8516,0.67733 8.10813,14.80635 l 0.23092,12.71633 19.48702,0.79631 c 16.25044,0.66405 19.487,1.56435 19.487,5.42056 0,3.88085 -2.81029,4.62426 -17.48131,4.62426 -9.61472,0 -18.69465,1.21962 -20.17763,2.71028 -1.48298,1.49065 -2.985,14.08793 -3.33779,27.99391 -0.71462,28.16605 0.33168,30.07883 16.60421,30.35522 13.74437,0.23336 34.00781,6.10323 40.09892,11.61564 6.75261,6.11101 23.15582,41.54364 20.91258,45.17328 -2.65429,4.29473 -12.22646,3.24325 -12.22646,-1.34306 0,-2.2562 -1.41002,-6.82979 -3.13343,-10.16355 -6.32997,-12.2448 -7.70769,-15.5363 -7.70769,-18.41443 0,-8.516 -26.63552,-17.57915 -46.07477,-15.67762 -8.06408,0.7888 -9.48598,1.94355 -9.48598,7.7036 0,7.13242 -1.21523,6.779 27.20181,7.91098 5.46637,0.21764 27.64072,31.06713 36.08305,50.19946 2.01227,4.56029 5.97606,12.98027 8.80841,18.7111 6.70065,13.55774 6.67008,20.74855 -0.0881,20.74855 -4.42635,0 -6.9893,-3.55114 -9.7804,-13.5514 -0.77674,-2.78305 -10.05409,-23.49884 -16.3859,-36.58879 -11.3835,-23.53358 -17.2405,-28.97972 -32.77059,-30.47198 -8.23061,-0.79086 -14.4352,-0.15936 -15.50923,1.57842 -2.32808,3.76688 0.92421,16.6973 4.19974,16.6973 2.37833,0 13.2172,7.12828 24.72668,16.26168 9.48777,7.52908 14.68898,20.43782 29.48481,73.17757 8.30628,29.6077 8.07615,43.3645 -0.72541,43.3645 -3.25675,0 -5.10459,-1.9161 -5.10459,-5.293 z M 94.286951,990.62781 c -18.08152,-4.35827 -21.33204,-8.88866 -24.20973,-33.74234 -1.15631,-9.98662 2.55781,-52.74675 4.77405,-54.96297 2.53152,-2.53154 9.9497,2.82856 9.9497,7.18926 0,5.54402 7.29944,8.06691 23.493309,8.11998 14.76495,0.0482 19.87118,-2.106 19.87118,-8.38382 0,-6.20963 6.89416,-6.842 9.19601,-0.8435 5.81726,15.1595 -1.21535,68.33899 -10.10786,76.43411 -6.85153,6.2372 -21.42019,8.97236 -32.966659,6.18928 z m 21.821659,-14.85483 c 6.4477,-4.71467 13.27636,-42.28298 8.28658,-45.58892 -1.65298,-1.09517 -11.08546,-2.00986 -20.96104,-2.03271 -17.953679,-0.0415 -17.955769,-0.0407 -19.649529,8.42813 -4.64785,23.23927 -0.31416,39.36254 11.03921,41.07088 14.141569,2.12784 16.035749,1.96078 21.284779,-1.87738 z M 56.608007,904.43401 c -3.753544,-3.75355 -0.990264,-8.54682 8.864053,-15.37585 13.292951,-9.21203 24.691281,-35.24232 24.734381,-56.48569 0.019,-8.83681 4.0346,-9.71481 8.26676,-1.80697 2.226979,4.16115 2.211209,9.32957 -0.0599,19.64953 -1.69496,7.70178 -3.67216,16.85597 -4.39377,20.34261 -0.72164,3.48666 -7.05481,12.0817 -14.07371,19.1001 -12.87647,12.87551 -20.362775,17.55129 -23.337798,14.57627 z m 80.841323,-8.2801 c -17.71282,-15.60877 -30.45786,-73.74499 -16.1669,-73.74499 4.97369,0 6.88303,6.21464 6.88303,22.40334 0,15.28159 8.2534,35.56083 16.59228,40.76855 4.87793,3.04633 7.45899,18.26488 3.05725,18.02637 -1.11799,-0.0604 -5.78255,-3.41454 -10.36566,-7.45327 z m 50.42791,-50.4442 c -5.7523,-2.55628 -6.7474,-5.87889 -5.68476,-18.9815 0.85198,-10.5051 6.02759,-15.15263 16.92424,-15.19741 16.72479,-0.0688 20.45164,-2.33653 22.24224,-13.53438 2.8336,-17.72038 0.42107,-20.17023 -22.64013,-22.99044 -14.761,-1.80516 -21.00877,-6.60363 -9.43655,-7.24756 18.7134,-1.04129 35.37111,1.22234 40.14711,5.45563 4.28257,3.79591 4.84842,7.299 3.72772,23.0772 -1.46043,20.56151 -3.58294,23.28139 -18.26268,23.40289 -15.8881,0.13145 -21.68224,2.70331 -21.68224,9.62393 0,7.09433 6.20703,10.0166 19.71151,9.28025 15.88409,-0.8661 18.23241,-0.13416 18.23241,5.68365 0,5.22119 -1.31318,5.55098 -18.88634,4.74299 -10.38751,-0.47761 -21.36414,-1.96948 -24.39253,-3.31525 z m -122.871576,-19.607 c -1.454499,-1.4545 6.696937,-15.55249 11.538217,-19.95547 4.0416,-3.67571 8.07257,-16.48092 9.64681,-30.64506 2.36738,-21.30056 7.83968,-19.04761 8.91853,3.67175 1.02246,21.53171 -4.71027,35.57525 -17.63522,43.20114 -10.4416,6.16068 -10.1288,6.06718 -12.468337,3.72764 z"
       id="path3249"
       inkscape:connector-curvature="0" />
  </g>
</svg>
