<?xml version="1.0" encoding="UTF-8" standalone="no"?>
<!-- Created with Inkscape (http://www.inkscape.org/) -->

<svg
   xmlns:dc="http://purl.org/dc/elements/1.1/"
   xmlns:cc="http://creativecommons.org/ns#"
   xmlns:rdf="http://www.w3.org/1999/02/22-rdf-syntax-ns#"
   xmlns:svg="http://www.w3.org/2000/svg"
   xmlns="http://www.w3.org/2000/svg"
   xmlns:sodipodi="http://sodipodi.sourceforge.net/DTD/sodipodi-0.dtd"
   xmlns:inkscape="http://www.inkscape.org/namespaces/inkscape"
   width="300"
   height="300"
   id="svg2"
   version="1.1"
   inkscape:version="0.48.4 r9939"
   sodipodi:docname="image-seal.svg">
  <defs
     id="defs4" />
  <sodipodi:namedview
     id="base"
     pagecolor="#ffffff"
     bordercolor="#666666"
     borderopacity="1.0"
     inkscape:pageopacity="0.0"
     inkscape:pageshadow="2"
     inkscape:zoom="1.979899"
     inkscape:cx="154.88845"
     inkscape:cy="133.61981"
     inkscape:document-units="px"
     inkscape:current-layer="layer1"
     showgrid="false"
     inkscape:window-width="1215"
     inkscape:window-height="1000"
     inkscape:window-x="65"
     inkscape:window-y="24"
     inkscape:window-maximized="1" />
  <metadata
     id="metadata7">
    <rdf:RDF>
      <cc:Work
         rdf:about="">
        <dc:format>image/svg+xml</dc:format>
        <dc:type
           rdf:resource="http://purl.org/dc/dcmitype/StillImage" />
        <dc:title />
      </cc:Work>
    </rdf:RDF>
  </metadata>
  <g
     inkscape:label="Calque 1"
     inkscape:groupmode="layer"
     id="layer1"
     transform="translate(0,-752.36218)">
    <path
       style="fill:#000000"
       d="m 222.60355,1032.2925 c -1.41634,-3.7251 -2.57513,-10.0227 -2.57513,-13.9945 0,-3.9717 -1.04066,-8.3502 -2.31257,-9.7299 -1.27195,-1.3796 -5.5929,-12.60826 -9.60217,-24.95247 -4.00925,-12.34422 -9.01527,-25.85682 -11.12446,-30.02804 -4.44863,-8.79773 -20.40542,-25.42193 -24.40134,-25.42193 -1.50065,0 -2.72847,-1.1882 -2.72847,-2.64047 0,-1.45226 -2.0906,-2.64048 -4.64579,-2.64048 -5.18934,0 -11.91558,-9.08993 -12.70007,-17.16308 -2.07934,-21.3979 -3.60976,-141.05765 -1.81828,-142.16486 4.67438,-2.88892 8.26685,2.70733 9.08041,14.14523 l 0.84206,11.83875 19.14344,0.7758 c 10.52889,0.42671 19.14345,1.74269 19.14345,2.92443 0,1.18178 -7.23036,2.90437 -16.06748,3.82804 -8.83711,0.92366 -17.15461,2.35128 -18.48332,3.17247 -1.32872,0.82119 -2.41585,16.1271 -2.41585,34.01312 l 0,32.52003 8.25149,1.65028 c 4.53832,0.90767 13.86766,1.6503 20.73192,1.6503 10.9375,0 13.67926,1.22413 22.17786,9.90179 18.37314,18.76027 22.76558,25.21127 19.68966,28.91752 -4.39462,5.2952 -6.56419,4.22242 -13.09171,-6.47349 -3.32359,-5.44599 -9.48725,-13.16937 -13.69698,-17.16308 -6.8296,-6.47913 -9.61503,-7.26131 -25.85818,-7.26131 -16.10079,0 -18.20406,0.57753 -18.20406,4.99845 0,5.71704 4.92055,8.20393 16.2324,8.20393 4.33347,0 10.25275,1.27035 13.15392,2.82304 7.40619,3.96367 30.97897,28.83191 32.81579,34.61922 0.83883,2.64294 2.63328,4.80532 3.9877,4.80532 1.35438,0 2.46254,2.37643 2.46254,5.28095 0,9.4139 -8.8954,5.63391 -17.07308,-7.25501 -4.30728,-6.78877 -11.2626,-16.25107 -15.45625,-21.02741 -6.85187,-7.80383 -9.06941,-8.68422 -21.87393,-8.68422 -11.1934,0 -14.24909,0.88981 -14.24909,4.14932 0,4.55989 6.11197,11.69353 10.01878,11.69353 5.0757,0 31.15697,28.15339 36.69196,39.60711 12.84696,26.58454 25.64251,70.73792 22.71246,78.37352 -2.11611,5.5145 -5.9586,4.0702 -8.75763,-3.2919 z m -72.27645,-9.7298 c -0.91568,-3.2676 -2.391,-20.228 -3.27848,-37.68971 -1.44345,-28.39989 -1.11839,-32.15968 3.08174,-35.64641 2.58246,-2.14379 7.18679,-4.02101 10.23186,-4.1716 3.04506,-0.15051 8.50701,-1.05355 12.13767,-2.00663 3.63065,-0.95308 8.37771,-0.57973 10.54902,0.82962 3.40952,2.21306 3.26641,3.06078 -1.04937,6.21654 -4.86694,3.55883 -4.87476,4.23255 -0.29996,25.8489 5.95845,28.15419 8.06459,52.56029 4.53573,52.56029 -3.05297,0 -8.45447,-14.0495 -8.45447,-21.9905 0,-2.9477 -1.1403,-9.00854 -2.534,-13.46843 -1.39366,-4.45991 -4.01518,-15.53525 -5.82559,-24.61187 -3.4567,-17.33043 -8.38544,-21.41881 -12.56592,-10.42337 -1.30618,3.43559 -1.34386,19.15468 -0.0867,36.14443 1.22366,16.53574 1.62901,31.02904 0.90074,32.20734 -2.41195,3.9026 -5.65425,2.2252 -7.34234,-3.7986 z m -45.15932,-56.663 c -10.165823,-0.46131 -20.859753,-1.90317 -23.764273,-3.20413 -2.904518,-1.30093 -7.141451,-2.94593 -9.415401,-3.6555 -8.38736,-2.61728 -11.353168,-28.09386 -11.535043,-99.08642 -0.148922,-58.13786 0.384558,-67.77931 3.787364,-68.4479 3.401142,-0.66825 3.913315,5.29335 3.62516,42.19623 -0.301172,38.57366 3.844742,94.23359 8.462192,113.60712 1.708308,7.16752 2.001823,7.26131 22.726428,7.26131 l 20.995783,0 -5.46075,-7.66891 c -7.80673,-10.96355 -6.83937,-17.96595 3.78092,-27.36842 5.08291,-4.50008 9.24165,-8.96971 9.24165,-9.93256 0,-4.3161 -10.39609,-13.12055 -15.49245,-13.12055 -6.59998,0 -7.22399,3.31111 -1.67063,8.86444 8.41404,8.41404 2.00034,13.44245 -6.88701,5.39951 -7.100953,-6.42628 -10.276073,-2.2189 -10.276073,13.61687 0,15.55957 -2.65629,18.26681 -7.4976,7.64135 -3.9449,-8.65811 -3.90186,-18.40981 0.10958,-24.83315 2.44904,-3.9215 2.46148,-6.47619 0.0544,-11.1862 -9.010934,-17.63265 -9.045868,-20.64707 -0.3336,-28.78558 4.52412,-4.22612 10.3493,-7.68388 12.94485,-7.68388 4.690733,0 7.924673,-4.93708 7.924673,-12.0981 0,-2.49353 -2.97983,-3.74475 -8.918363,-3.74475 -10.77422,0 -14.12387,-3.5818 -16.1732,-17.29407 -1.09677,-7.33858 -0.15261,-13.17069 3.18479,-19.67257 4.47355,-8.71534 5.72113,-9.35319 21.906773,-11.20029 16.57497,-1.89152 17.36622,-1.71057 23.09103,5.28095 11.36923,13.88481 5.68029,42.88598 -8.41258,42.88598 -2.09267,0 -4.5714,1.24026 -5.50826,2.75615 -2.9214,4.72688 3.86869,9.95607 15.40621,11.86463 14.88367,2.46212 16.62255,3.88562 9.32323,7.63226 -4.14534,2.12775 -7.57835,2.32605 -10.4457,0.60336 -9.70232,-5.82911 -17.08024,6.03996 -10.35979,16.66602 2.06295,3.26182 3.25624,2.94801 7.53061,-1.98036 6.27847,-7.23912 8.42047,-7.3912 8.42047,-0.59779 0,2.89222 -2.37642,6.74267 -5.28095,8.55658 -6.95527,4.34363 -6.71725,5.32157 2.64047,10.84933 4.6324,2.73641 7.92143,6.88832 7.92143,9.99958 0,6.11485 -5.85822,12.86447 -11.16543,12.86447 -9.91728,0 -13.27895,13.72437 -4.67742,19.09611 2.90452,1.8139 5.28095,5.98273 5.28095,9.26405 0,4.20568 1.55817,5.96601 5.28095,5.96601 2.90453,0 5.28095,1.65521 5.28095,3.67821 0,4.11671 -6.07982,7.15061 -12.75821,6.36653 -2.42267,-0.28443 -12.72236,-0.89459 -22.8882,-1.35592 z m -0.15159,-78.74831 c 4.24132,-3.20788 4.67501,-5.13647 2.50462,-11.13802 -2.11552,-5.84985 -4.09318,-7.15019 -10.191193,-6.70092 -6.62206,0.48791 -11.79918,4.31146 -11.92513,8.80727 -0.0787,2.80978 9.23983,13.00864 11.84171,12.96035 1.45225,-0.0269 4.948753,-1.79487 7.769993,-3.92868 z m 17.2866,-55.3294 c 1.79258,-2.15992 2.53636,-5.81074 1.65295,-8.11296 -1.3124,-3.42003 -4.36265,-3.89212 -16.6721,-2.58035 -8.286183,0.88303 -15.528183,2.06785 -16.093293,2.63299 -0.56514,0.56514 -0.24477,3.49349 0.71174,6.50745 1.44276,4.54571 3.90455,5.47994 14.440393,5.47994 8.02029,0 13.90225,-1.44728 15.96031,-3.92707 z m 2.02496,-23.13779 c -2.04278,-6.22279 -31.042273,-5.5591 -31.042273,0.71042 0,1.42459 7.228303,2.59018 16.062893,2.59018 11.66785,0 15.76642,-0.9031 14.97938,-3.3006 z m 52.2824,39.6797 c -4.92906,-7.03723 -5.42811,-24.13951 -0.80984,-27.75329 3.95762,-3.0968 26.96133,-8.95079 31.38698,-7.98735 6.45031,1.40418 10.28299,-29.48789 4.25943,-34.3317 -1.81533,-1.45975 -10.93552,-2.80402 -20.2671,-2.98721 -9.33156,-0.18325 -17.55004,-0.91666 -18.26329,-1.62988 -3.474,-3.47403 4.50748,-5.23004 22.65742,-4.98496 24.77799,0.3346 27.09498,2.71737 27.09498,27.86421 0,20.61232 -1.85237,22.5698 -23.81982,25.17152 -15.92909,1.88656 -20.44461,6.17681 -16.23211,15.42224 2.77726,6.09543 4.27393,6.523 22.83224,6.523 15.21523,0 19.86017,0.86027 19.86017,3.67821 0,5.31879 -6.01783,6.88369 -26.47097,6.88369 -15.72897,0 -18.65957,-0.77372 -22.22809,-5.86848 z M 64.240295,783.54022 c 0,-7.17063 9.564907,-9.65713 41.199585,-10.71032 28.06944,-0.93446 32.7337,-0.51521 32.7337,2.94229 0,3.24111 -5.05019,4.3159 -25.74463,5.47912 -14.159553,0.79588 -30.794533,2.22027 -36.966638,3.16523 -6.754229,1.03414 -11.222017,0.68523 -11.222017,-0.87632 z"
       id="path3225"
       inkscape:connector-curvature="0" />
  </g>
</svg>
