<?xml version="1.0" encoding="UTF-8" standalone="no"?>
<!-- Created with Inkscape (http://www.inkscape.org/) -->

<svg
   xmlns:dc="http://purl.org/dc/elements/1.1/"
   xmlns:cc="http://creativecommons.org/ns#"
   xmlns:rdf="http://www.w3.org/1999/02/22-rdf-syntax-ns#"
   xmlns:svg="http://www.w3.org/2000/svg"
   xmlns="http://www.w3.org/2000/svg"
   xmlns:sodipodi="http://sodipodi.sourceforge.net/DTD/sodipodi-0.dtd"
   xmlns:inkscape="http://www.inkscape.org/namespaces/inkscape"
   width="300"
   height="300"
   id="svg2"
   version="1.1"
   inkscape:version="0.48.4 r9939"
   sodipodi:docname="dessin.svg">
  <defs
     id="defs4" />
  <sodipodi:namedview
     id="base"
     pagecolor="#ffffff"
     bordercolor="#666666"
     borderopacity="1.0"
     inkscape:pageopacity="0.0"
     inkscape:pageshadow="2"
     inkscape:zoom="1.979899"
     inkscape:cx="218.29155"
     inkscape:cy="144.09165"
     inkscape:document-units="px"
     inkscape:current-layer="layer1"
     showgrid="false"
     inkscape:window-width="1215"
     inkscape:window-height="1000"
     inkscape:window-x="65"
     inkscape:window-y="24"
     inkscape:window-maximized="1" />
  <metadata
     id="metadata7">
    <rdf:RDF>
      <cc:Work
         rdf:about="">
        <dc:format>image/svg+xml</dc:format>
        <dc:type
           rdf:resource="http://purl.org/dc/dcmitype/StillImage" />
        <dc:title />
      </cc:Work>
    </rdf:RDF>
  </metadata>
  <g
     inkscape:label="Calque 1"
     inkscape:groupmode="layer"
     id="layer1"
     transform="translate(0,-752.36218)">
    <path
       style="fill:#000000"
       d="m 230.02387,1036.9169 c -1.47462,-0.99 -5.2632,-11.1711 -8.41904,-22.6247 -3.15585,-11.4536 -6.67761,-23.02972 -7.82618,-25.72468 -1.14855,-2.69496 -3.88313,-10.41237 -6.0768,-17.14979 -5.31628,-16.32771 -7.20738,-18.87002 -12.55045,-16.87237 -3.84096,1.43606 -4.28464,3.92087 -3.18626,17.84526 0.70185,8.89731 2.89509,23.08457 4.87389,31.52728 2.78963,11.902 2.91941,15.899 0.57773,17.7925 -2.04979,1.6575 -3.86435,1.4484 -5.64764,-0.6506 -3.14471,-3.7014 -10.00656,-30.3264 -12.00462,-46.5796 -0.94578,-7.69347 -2.62668,-11.63735 -4.95992,-11.63735 -6.51338,0 -8.73534,9.30679 -8.73534,36.58846 0,21.97159 -0.68685,27.11069 -3.62342,27.11069 -5.72949,0 -6.35285,-2.7724 -6.72675,-29.91763 -0.44658,-32.42512 1.87373,-37.49891 21.66568,-47.37586 5.53202,-2.76069 10.05822,-6.47842 10.05822,-8.26163 0,-1.78322 -4.7638,-5.58813 -10.58623,-8.45538 -5.82243,-2.86725 -11.44858,-6.86692 -12.50255,-8.88816 -2.11341,-4.05293 -3.36684,-123.15121 -1.45037,-137.81072 0.90556,-6.92702 2.35892,-9.18738 5.90717,-9.18738 4.33124,0 8.3573,7.65049 7.1742,13.63277 -1.86504,9.43052 0.0925,10.86692 14.81052,10.86692 15.79116,0 18.42375,1.02658 16.32143,6.36445 -0.94653,2.40324 -5.75429,3.43542 -16.00191,3.43542 -12.47133,0 -14.88763,0.733 -16.2552,4.93112 -2.00015,6.14004 -2.12973,48.0447 -0.15816,51.15277 0.79648,1.25566 9.35298,2.283 19.01441,2.283 16.66734,0 17.9214,0.40337 24.50566,7.88214 10.22567,11.61491 18.25488,26.14737 18.25488,33.04045 0,11.32951 -6.55439,7.01576 -14.99005,-9.86564 -9.8815,-19.77481 -11.36793,-20.82473 -29.48333,-20.82473 -12.38187,0 -16.38565,0.89334 -17.57858,3.92221 -2.03714,5.17233 2.17907,7.43296 17.57389,9.4227 11.48621,1.48455 21.84706,7.93362 21.84706,13.59855 0,0.93173 2.8275,4.89734 6.28333,8.81252 3.45582,3.91516 6.2847,8.49658 6.28639,10.18093 0.002,1.68435 0.89993,3.06247 1.99608,3.06247 2.23876,0 8.06521,19.49429 8.06521,26.98481 0,10.98117 -7.96883,4.23991 -16.69411,-14.12248 -4.96223,-10.44299 -10.20636,-21.44922 -11.65359,-24.45832 -5.23251,-10.87933 -11.67876,-15.35367 -22.1203,-15.35367 -6.78604,0 -10.52815,1.24147 -11.5481,3.83119 -2.37706,6.03539 3.22069,15.15874 12.02152,19.59292 17.903,9.02022 25.55274,20.92238 39.65822,61.70405 13.54748,39.16841 14.97675,57.64251 3.88341,50.19511 z M 110.749,1018.5124 c 0,-23.74162 3.40169,-32.50399 17.80728,-45.86968 17.82076,-16.53432 19.82091,-28.75856 13.32896,-81.46145 -1.32563,-10.76166 -1.96022,-11.63736 -8.43329,-11.63736 -3.84992,0 -8.36978,-1.60831 -10.0442,-3.574 -2.51403,-2.95143 -1.8491,-3.8663 3.81707,-5.25189 9.31553,-2.278 19.19696,1.50917 23.13457,8.86659 4.63444,8.65945 3.76832,74.30159 -1.11884,84.79554 -1.96262,4.21421 -7.94845,11.09171 -13.30186,15.28333 -10.26434,8.0368 -14.07968,18.83249 -15.69413,44.40742 -0.51784,8.2033 -1.81453,11.2107 -5.09509,11.817 -3.87073,0.7154 -4.40047,-1.3763 -4.40047,-17.3755 z M 99.433495,978.22013 c -4.149016,-0.59717 -11.0729,-3.69598 -15.386395,-6.88628 -10.30581,-7.62225 -13.542194,-20.64682 -13.489641,-54.28782 0.0357,-22.93277 0.802798,-27.78916 5.729291,-36.27713 4.513579,-7.77655 7.468384,-10.05278 14.311397,-11.02486 6.521452,-0.92638 9.047904,-2.71796 10.364673,-7.3499 2.88548,-10.15008 2.53729,-11.0672 -5.295425,-13.94778 -4.145877,-1.52468 -8.188907,-4.79823 -8.984513,-7.27454 -0.795605,-2.47627 -2.50998,-6.4393 -3.809679,-8.80668 -2.841373,-5.17541 -0.393804,-53.51122 2.87522,-56.78154 3.904427,-3.90597 5.788031,0.58654 6.886867,16.42551 0.582296,8.3934 1.78433,16.01587 2.671188,16.93881 0.886857,0.92296 10.664862,1.9324 21.728912,2.24323 18.91769,0.53145 20.16433,0.24893 20.91998,-4.74055 0.7176,-4.73831 -0.35798,-5.30969 -10.05822,-5.34319 -16.08811,-0.0556 -17.75964,-1.91293 -16.61096,-18.45781 1.4774,-21.28036 7.56735,-20.46699 10.07434,1.34554 0.57638,5.01477 2.06681,6.12493 8.22295,6.12493 6.38767,0 7.71556,-1.10587 8.82564,-7.34991 1.18141,-6.64536 2.71572,-7.66823 9.73865,-6.49242 2.36587,0.39612 0.92312,45.06907 -1.91081,59.16675 -1.615,8.03388 -2.61537,8.78255 -15.85551,11.8662 -13.43128,3.12816 -14.21501,3.73538 -15.81086,12.24984 -2.51226,13.40386 -7.80088,19.98338 -16.06263,19.98338 -13.334188,0 -16.549301,7.00108 -17.56757,38.25425 -0.884294,27.14174 -0.715014,28.21164 5.77581,36.50299 3.677765,4.69795 8.326577,8.5417 10.330701,8.5417 2.004131,0 3.643869,0.86077 3.643869,1.91283 0,1.05207 3.50751,3.20277 7.79448,4.77938 4.50514,1.65681 7.33541,4.20976 6.70664,6.04954 -1.22922,3.59679 -4.86028,4.20407 -15.758395,2.63553 z M 129.48986,837.50119 c 4.70632,-2.08926 6.4047,-4.71529 6.4047,-9.90293 l 0,-7.0597 -19.48781,0.71556 c -18.971119,0.69658 -19.508176,0.88686 -20.256189,7.17738 -0.670632,5.63992 0.448803,6.7763 8.800949,8.93417 13.17238,3.40321 17.12826,3.42506 24.53835,0.13555 z M 104.1502,947.93187 c -4.320838,-1.22057 -9.078883,-3.65476 -10.573409,-5.4093 -3.485201,-4.09157 -6.225842,-45.99341 -3.29422,-50.36585 1.75262,-2.61396 3.061372,-2.14242 6.210025,2.23743 2.864231,3.98422 3.567854,8.54616 2.494744,16.17433 -1.089109,7.74176 -0.624239,10.62491 1.71306,10.62491 4.76725,0 9.87768,-7.69291 9.96863,-15.00607 0.14711,-11.83944 3.19022,-21.74346 6.68067,-21.74346 2.48303,0 3.45752,3.53209 3.45752,12.5319 0,11.19281 0.94042,13.37117 8.80095,20.38619 8.51462,7.59875 11.69951,16.08128 6.03798,16.08128 -1.51965,0 -6.02706,-3.40447 -10.01653,-7.56553 -6.63879,-6.92429 -7.59341,-7.23441 -11.26318,-3.65891 -2.20527,2.14865 -6.18445,5.04067 -8.84264,6.42673 -9.367878,4.88477 -5.765226,9.69764 7.25915,9.69764 12.79127,0 22.56892,4.70924 19.57554,9.42822 -2.08024,3.2794 -16.86935,3.36355 -28.20829,0.16047 z m 88.32188,-89.76052 c -8.90263,-2.13208 -11.3155,-5.93343 -11.3155,-17.82694 0,-13.84178 3.63001,-17.62969 17.63247,-18.39947 14.05345,-0.77257 17.57132,-4.49706 17.57132,-18.60334 0,-10.66967 -0.65479,-12.06331 -6.3186,-13.44832 -3.47522,-0.84983 -11.39607,-0.80328 -17.6019,0.1034 -10.15154,1.48321 -11.28329,1.16006 -11.28329,-3.22183 0,-5.87536 3.43561,-6.69533 23.69039,-5.65403 12.21043,0.62772 16.24197,1.84278 18.66694,5.62602 3.90452,6.09158 4.2939,36.06391 0.51684,39.78504 -1.55624,1.53322 -9.85937,3.91847 -18.45139,5.30062 -13.19192,2.12211 -15.49347,3.22708 -14.79656,7.10398 1.4456,8.04203 7.14091,11.20779 20.16318,11.20779 14.88982,0 20.50173,1.74831 20.50173,6.38703 0,2.60814 -4.00207,3.34583 -16.97326,3.12864 -9.33529,-0.15629 -19.23636,-0.8262 -22.00237,-1.48862 z"
       id="path3267"
       inkscape:connector-curvature="0" />
  </g>
</svg>
