<?xml version="1.0" encoding="UTF-8" standalone="no"?>
<!-- Created with Inkscape (http://www.inkscape.org/) -->

<svg
   xmlns:dc="http://purl.org/dc/elements/1.1/"
   xmlns:cc="http://creativecommons.org/ns#"
   xmlns:rdf="http://www.w3.org/1999/02/22-rdf-syntax-ns#"
   xmlns:svg="http://www.w3.org/2000/svg"
   xmlns="http://www.w3.org/2000/svg"
   xmlns:sodipodi="http://sodipodi.sourceforge.net/DTD/sodipodi-0.dtd"
   xmlns:inkscape="http://www.inkscape.org/namespaces/inkscape"
   width="300"
   height="300"
   id="svg2"
   version="1.1"
   inkscape:version="0.48.4 r9939"
   sodipodi:docname="image-seal.svg">
  <defs
     id="defs4" />
  <sodipodi:namedview
     id="base"
     pagecolor="#ffffff"
     bordercolor="#666666"
     borderopacity="1.0"
     inkscape:pageopacity="0.0"
     inkscape:pageshadow="2"
     inkscape:zoom="2.0018437"
     inkscape:cx="145.03351"
     inkscape:cy="130.6666"
     inkscape:document-units="px"
     inkscape:current-layer="layer1"
     showgrid="false"
     inkscape:window-width="1215"
     inkscape:window-height="1000"
     inkscape:window-x="65"
     inkscape:window-y="24"
     inkscape:window-maximized="1"
     fit-margin-top="10"
     fit-margin-left="10"
     fit-margin-right="10"
     fit-margin-bottom="10" />
  <metadata
     id="metadata7">
    <rdf:RDF>
      <cc:Work
         rdf:about="">
        <dc:format>image/svg+xml</dc:format>
        <dc:type
           rdf:resource="http://purl.org/dc/dcmitype/StillImage" />
        <dc:title />
      </cc:Work>
    </rdf:RDF>
  </metadata>
  <g
     inkscape:label="Calque 1"
     inkscape:groupmode="layer"
     id="layer1"
     transform="translate(0,-752.36218)">
    <path
       style="fill:#000000"
       d="m 232.41466,1044.3096 c -2.11878,-2.1188 -3.05263,-15.4506 -3.05263,-43.5805 0,-61.31488 -5.26651,-190.61438 -7.96966,-195.66526 -3.88125,-7.25219 -9.14416,-5.13295 -10.933,4.40245 -1.3543,7.21904 -3.14012,9.24151 -9.64955,10.92827 -10.74786,2.78504 -11.14836,6.15065 -1.27798,10.73959 11.42071,5.30975 12.705,16.00831 2.55195,21.25865 -6.11262,3.16095 -7.3051,5.44404 -7.67389,14.69212 -0.41019,10.2866 2.89352,16.1737 7.48416,13.33651 1.11615,-0.68982 2.02937,-5.12567 2.02937,-9.85746 0,-4.73178 1.06565,-9.26183 2.36808,-10.06681 8.1044,-5.00878 5.40138,22.76406 -3.1041,31.89359 -4.98604,5.3519 -5.62363,8.78295 -5.62363,30.26264 0,24.40635 3.9007,53.09157 10.73165,78.91941 7.65397,28.9395 8.11464,31.7765 5.57253,34.3186 -3.33874,3.3387 -6.21434,-1.464 -11.40934,-19.0555 -2.2725,-7.6952 -5.09105,-16.2807 -6.26346,-19.07892 -3.06726,-7.32074 -4.82672,-21.58765 -6.58806,-53.42108 -0.85156,-15.39035 -2.55768,-29.91049 -3.7914,-32.26697 -1.23374,-2.35648 -2.24315,-7.14448 -2.24315,-10.63998 0,-4.1025 -1.7877,-6.92286 -5.04297,-7.95604 -2.77365,-0.88031 -6.91065,-5.53641 -9.19336,-10.34687 -4.77968,-10.07244 -7.34478,-10.86633 -11.29016,-3.4943 -2.24811,4.20057 -3.53914,4.64748 -6.44916,2.23236 -5.47363,-4.54272 -4.2283,-17.98709 2.4186,-26.11073 4.97764,-6.08354 8.10382,-7.3151 20.48659,-8.07078 26.41409,-1.61191 20.8048,-8.81534 -6.91322,-8.87791 -13.48111,-0.0305 -20.04022,1.3721 -29.98574,6.4119 -7.00155,3.54794 -13.75282,5.81874 -15.0028,5.0462 -1.25,-0.77252 -2.99173,-0.24116 -3.87056,1.18076 -2.63256,4.25956 -16.56073,3.15756 -16.56073,-1.31027 0,-3.94507 1.29681,-4.69108 12.7193,-7.3168 9.38761,-2.15796 14.6305,-6.17191 11.10568,-8.5025 -1.58704,-1.04934 -3.31984,-4.19736 -3.85062,-6.99561 -0.5308,-2.79825 -2.34322,-5.08772 -4.02761,-5.08772 -7.93987,0 -14.89471,-10.60553 -13.63682,-20.79501 0.69437,-5.62485 -4.547763,-6.03126 -9.481914,-0.73507 -6.77824,7.27559 -8.0245,20.43762 -8.01692,84.66814 0.003,30.52856 -0.69216,56.63703 -1.54616,58.01885 -0.854,1.3818 -2.00179,15.89729 -2.55065,32.25668 -1.42667,42.52437 -6.58412,64.08647 -15.32887,64.08647 -2.72378,0 -3.12647,-3.4023 -1.88184,-15.8992 0.87089,-8.7445 2.48436,-17.6663 3.58547,-19.8261 1.10111,-2.1599 2.32493,-13.39992 2.71961,-24.97781 0.39468,-11.5779 1.42184,-21.48595 2.28256,-22.01792 0.86074,-0.53195 1.8532,-29.93011 2.20547,-65.32924 1.03467,-103.96724 2.81232,-107.59362 54.051474,-110.26464 22.5196,-1.17392 25.51077,-2.14549 23.41552,-7.60563 -2.85441,-7.43848 1.41444,-16.44794 7.79332,-16.44794 6.36232,0 9.12721,4.20704 9.12721,13.88779 0,8.10902 4.31884,10.60312 19.07895,11.018 15.58071,0.43795 34.13468,5.12592 39.9216,10.08691 2.36918,2.03101 5.05028,7.07424 5.958,11.20715 1.41759,6.45428 2.18877,49.29555 1.0916,60.64226 -0.32185,3.32869 2.60931,145.05677 3.20931,155.17547 0.68447,11.5438 -0.84899,27.9824 -2.61033,27.9824 -1.1193,0 -3.40878,-1.3736 -5.08772,-3.0526 z M 183.57255,874.19806 c 0,-4.2973 -1.76218,-9.57547 -3.91599,-11.72928 -3.52541,-3.52541 -3.79722,-2.93641 -2.72519,5.90539 0.65495,5.40176 1.27239,10.67994 1.37214,11.72928 0.0997,1.04934 1.32606,1.90789 2.72518,1.90789 1.39912,0 2.54386,-3.51597 2.54386,-7.81328 z m -40.06579,-44.06123 c 6.01511,-4.5661 5.71494,-11.72198 -0.49173,-11.72198 -4.53504,0 -12.86353,8.60155 -12.86353,13.28533 0,3.1361 8.47077,2.14453 13.35526,-1.56335 z m 32.43421,-5.42529 c 0,-2.13331 -2.86184,-4.96683 -6.35965,-6.29669 -5.12343,-1.94793 -6.35965,-4.16086 -6.35965,-11.38441 0,-7.27055 0.9623,-8.96647 5.08772,-8.96647 3.39181,0 5.08772,1.69592 5.08772,5.08772 0,2.79825 1.06761,5.08772 2.37243,5.08772 1.30485,0 3.09908,-2.28947 3.98722,-5.08772 2.25173,-7.09452 8.03384,-6.35524 9.94812,1.27193 0.87791,3.49781 3.10773,6.35965 4.95519,6.35965 3.44464,0 10.43219,-12.39841 8.22915,-14.60145 -0.67359,-0.67359 -9.01577,-1.81934 -18.53822,-2.54612 -9.52246,-0.72678 -18.79297,-2.49766 -20.60117,-3.93525 -2.26989,-1.80466 -4.16704,-1.73443 -6.12834,0.22691 -1.73318,1.73319 -7.14593,2.25058 -13.88341,1.32711 l -11.04272,-1.51357 0,11.79315 c 0,13.77773 6.15914,16.65656 8.90351,4.16155 2.02936,-9.23968 8.90351,-10.31929 8.90351,-1.39833 0,3.42828 1.45839,7.14868 3.2409,8.26754 1.78248,1.11887 5.24307,5.18233 7.69021,9.02992 4.75837,7.48149 14.50748,9.57605 14.50748,3.11686 z m -53.42105,-22.83178 c 0,-6.79846 -1.05252,-8.8943 -4.45175,-8.86456 -5.19942,0.0455 -13.91301,4.94844 -8.90351,5.00983 1.7489,0.0204 3.17982,2.13763 3.17982,4.70268 0,5.52371 2.13209,8.05556 6.78364,8.05556 2.18044,0 3.3918,-3.17982 3.3918,-8.90351 z m 2.9522,233.91544 c -3.87832,-8.512 -3.63131,-24.2128 0.46565,-29.602 1.79083,-2.3557 6.33337,-5.0555 10.09455,-5.9995 7.9243,-1.98892 9.08181,-7.61637 1.95017,-9.48133 -3.57735,-0.9355 -5.2537,-4.25564 -6.25077,-12.38002 -2.5725,-20.96189 -4.06491,-72.15559 -2.18701,-75.02079 1.03329,-1.57653 5.31293,-2.80605 9.5103,-2.73225 4.19737,0.0738 13.43906,-0.76026 20.53706,-1.85341 16.10584,-2.48039 21.43662,1.67363 21.43662,16.70456 0,15.27137 -3.53072,20.00194 -14.92869,20.00194 -15.30419,0 -14.82437,3.57369 0.85375,6.3584 7.88095,1.39981 14.55802,3.68984 14.83795,5.08896 0.28466,1.42291 -6.67517,2.88222 -15.79452,3.3117 -17.78674,0.83772 -20.47677,-0.84634 -20.54358,-12.86094 -0.0343,-6.16367 1.33647,-7.37325 11.40843,-10.06707 6.29605,-1.68393 11.44736,-4.51306 11.44736,-6.28692 0,-2.41094 -1.64745,-2.59886 -6.52525,-0.74433 -3.58888,1.3645 -9.83306,2.4809 -13.87597,2.4809 -6.35474,0 -7.57195,1.17938 -8.98369,8.70465 -0.89816,4.78755 -0.85906,12.22834 0.0867,16.53509 1.67131,7.6095 2.12242,7.83043 15.98752,7.83043 15.79968,0 31.06856,7.80581 31.10019,15.89913 0.0254,6.23388 -5.70308,5.54202 -12.30608,-1.48656 -4.47032,-4.75842 -8.09471,-5.89565 -18.24174,-5.72368 -14.5189,0.24599 -18.41393,4.92208 -5.04885,6.0612 13.79057,1.17536 30.09628,9.86076 35.66799,18.99892 10.12894,16.61252 3.61801,16.48422 -12.59431,-0.24803 -9.71635,-10.02794 -13.63573,-12.35349 -21.30595,-12.64184 -11.81139,-0.44403 -13.23628,6.48308 -1.80387,8.76958 11.55662,2.31135 29.59696,21.21621 35.01421,36.69231 4.35168,12.4318 4.01638,15.0825 -1.90789,15.0825 -2.79825,0 -5.08772,-1.6009 -5.08772,-3.5575 0,-3.655 -14.22997,-32.1867 -17.34187,-34.77112 -0.9554,-0.7935 -4.2455,1.18382 -7.31133,4.39392 -3.06584,3.2102 -4.49676,6.5026 -3.17983,7.3165 1.31693,0.8139 2.39443,3.7018 2.39443,6.4175 0,2.7156 1.14474,4.9375 2.54386,4.9375 1.39913,0 2.54386,3.4342 2.54386,7.6316 0,13.3675 -7.585,8.2579 -13.61389,-9.1708 -6.40794,-18.5245 -16.21268,-11.5569 -11.72671,8.3334 3.21101,14.2371 -1.83603,19.1161 -7.32123,7.0774 z m 43.44139,-126.30984 c -1.41718,-5.41936 -1.16191,-5.37513 -9.38794,-1.62708 -4.75129,2.16482 -8.10776,2.21021 -12.58518,0.17018 -6.68829,-3.04739 -10.45267,-1.38566 -6.80338,3.00321 1.27041,1.52787 8.53425,2.83531 16.14191,2.90544 12.09969,0.11168 13.68213,-0.44601 12.63459,-4.45175 z M 91.509836,1035.8551 c -1.90113,-1.9011 0.66161,-13.7411 3.33136,-15.3911 1.232071,-0.7615 2.240121,-6.4007 2.240121,-12.5316 0,-6.1309 1.00793,-11.77004 2.23985,-12.53141 1.231893,-0.76136 3.015973,-11.41774 3.964603,-23.68082 1.88775,-24.40337 3.3583,-39.54839 5.41481,-55.76659 1.13431,-8.94553 0.3423,-11.57398 -5.13913,-17.05544 -5.648493,-5.64846 -6.480133,-8.657 -6.480133,-23.4423 0,-14.50921 0.53208,-16.52061 3.679213,-13.90873 2.02357,1.67941 4.02686,7.74048 4.45176,13.46903 1.23354,16.63078 6.73858,14.9177 7.63621,-2.37627 0.57684,-11.11408 1.71731,-14.79519 4.5837,-14.79519 2.9087,0 3.99686,3.81993 4.57755,16.06918 0.96158,20.28382 5.9134,20.03457 9.20518,-0.46334 1.76834,-11.0114 3.29156,-14.35818 6.27349,-13.78391 3.0508,0.58753 3.77211,3.6202 3.20127,13.45946 -0.81642,14.07228 -5.96331,24.09361 -13.36895,26.03023 -5.77051,1.50904 -6.52629,4.39668 -9.82741,37.54803 -1.3932,13.99122 -3.17466,31.73464 -3.95883,39.42982 -0.78415,7.69518 -2.4245,16.85307 -3.64522,20.35088 -1.22075,3.49775 -2.94267,11.51097 -3.82653,17.80707 -2.18828,15.5881 -9.578163,26.5377 -14.552914,21.563 z"
       id="path3080"
       inkscape:connector-curvature="0" />
  </g>
</svg>
