<?xml version="1.0" encoding="UTF-8" standalone="no"?>
<!-- Created with Inkscape (http://www.inkscape.org/) -->

<svg
   xmlns:dc="http://purl.org/dc/elements/1.1/"
   xmlns:cc="http://creativecommons.org/ns#"
   xmlns:rdf="http://www.w3.org/1999/02/22-rdf-syntax-ns#"
   xmlns:svg="http://www.w3.org/2000/svg"
   xmlns="http://www.w3.org/2000/svg"
   xmlns:sodipodi="http://sodipodi.sourceforge.net/DTD/sodipodi-0.dtd"
   xmlns:inkscape="http://www.inkscape.org/namespaces/inkscape"
   width="300"
   height="300"
   id="svg2"
   version="1.1"
   inkscape:version="0.48.4 r9939"
   sodipodi:docname="dessin.svg">
  <defs
     id="defs4" />
  <sodipodi:namedview
     id="base"
     pagecolor="#ffffff"
     bordercolor="#666666"
     borderopacity="1.0"
     inkscape:pageopacity="0.0"
     inkscape:pageshadow="2"
     inkscape:zoom="1.979899"
     inkscape:cx="73.020464"
     inkscape:cy="149.14493"
     inkscape:document-units="px"
     inkscape:current-layer="layer1"
     showgrid="false"
     inkscape:window-width="1215"
     inkscape:window-height="1000"
     inkscape:window-x="65"
     inkscape:window-y="24"
     inkscape:window-maximized="1" />
  <metadata
     id="metadata7">
    <rdf:RDF>
      <cc:Work
         rdf:about="">
        <dc:format>image/svg+xml</dc:format>
        <dc:type
           rdf:resource="http://purl.org/dc/dcmitype/StillImage" />
        <dc:title />
      </cc:Work>
    </rdf:RDF>
  </metadata>
  <g
     inkscape:label="Calque 1"
     inkscape:groupmode="layer"
     id="layer1"
     transform="translate(0,-752.36218)">
    <path
       style="fill:#000000"
       d="m 233.0079,1035.9923 c -2.01705,-3.806 -2.92148,-7.6732 -2.00989,-8.5938 0.9116,-0.9205 0.50868,-4.725 -0.89542,-8.4544 -1.40407,-3.7294 -3.17492,-11.3909 -3.93519,-17.0255 -2.94496,-21.82587 -8.53899,-37.92235 -13.51557,-38.89018 -8.28407,-1.61111 -11.01161,3.7328 -7.12048,13.95065 7.68618,20.18335 9.70147,24.38843 11.68802,24.38843 1.14022,0 2.07312,2.5841 2.07312,5.7424 0,9.6946 -8.45897,5.017 -15.39328,-8.51201 -3.51347,-6.85487 -7.95953,-16.51401 -9.88012,-21.46475 -1.92058,-4.95074 -4.58739,-9.00135 -5.9262,-9.00135 -4.15069,0 0.23696,21.96357 7.24401,36.26151 5.43453,11.0894 5.99883,14.1718 3.04721,16.6456 -4.01366,3.3638 -8.77391,-0.094 -14.18434,-10.3029 -2.16422,-4.0837 -2.19704,-6.609 -0.11333,-8.7132 2.08374,-2.10433 1.21581,-4.82565 -2.99474,-9.38964 -4.61158,-4.99868 -5.74903,-9.20372 -5.11948,-18.92602 l 0.80941,-12.49945 15.64716,-5.13388 15.64717,-5.13383 -4.62896,-7.32957 c -2.54594,-4.03124 -6.6721,-8.8604 -9.16923,-10.73149 -5.50654,-4.12594 -8.1772,-22.24218 -4.37857,-29.70139 1.70047,-3.33914 1.76031,-5.74122 0.15657,-6.28111 -1.51683,-0.51059 -2.06004,-12.08518 -1.30601,-27.82881 0.71006,-14.82508 1.39318,-41.0439 1.51805,-58.26408 0.2194,-30.2453 -0.005,-31.49189 -6.62953,-36.67745 -5.5461,-4.34199 -6.11857,-5.85178 -2.9952,-7.89933 4.99794,-3.27643 16.09993,1.73082 18.12525,8.17486 1.70328,5.41936 11.70359,9.0607 25.79122,9.39112 5.15952,0.12111 9.84688,1.6316 10.41636,3.35686 0.56947,1.7253 3.14859,2.57884 5.73134,1.8968 3.66372,-0.96752 5.33947,1.56113 7.62384,11.50405 1.61039,7.0093 1.90642,13.38173 0.65787,14.16098 -1.24855,0.77926 -2.27007,3.92496 -2.27007,6.9905 0,6.50683 -6.11226,13.48692 -11.81015,13.48692 -2.18571,0 -5.60956,1.99012 -7.60859,4.42251 -3.04758,3.70828 -2.95124,4.80865 0.59672,6.81375 2.32717,1.31518 7.20561,4.90828 10.84098,7.98464 5.32018,4.50212 5.86921,6.08622 2.81413,8.11957 -5.64642,3.75805 -26.31397,-2.96253 -28.73938,-9.34531 -1.93636,-5.09576 3.33918,-23.53446 6.73351,-23.53446 5.27248,0 15.91731,-13.37203 16.74159,-21.03077 0.7693,-7.14745 -0.30445,-8.09426 -14.25254,-12.56781 -23.51599,-7.54225 -28.977,-6.52512 -21.25541,3.95893 2.03242,2.75956 8.40911,5.09644 15.66151,5.7395 14.59167,1.29385 18.68306,7.28228 4.97533,7.28228 -14.77577,0 -18.11285,4.44895 -18.69714,24.92682 -0.86859,30.44169 -0.23476,35.22927 4.91688,37.13295 16.60565,6.13643 41.8252,23.81577 41.8252,29.32021 0,5.61923 -14.41853,2.56401 -26.05504,-5.52098 -13.06097,-9.07469 -24.53524,-10.76405 -27.10884,-3.9913 -1.20837,3.17993 2.14705,6.06612 12.73409,10.95339 16.63599,7.67961 23.51379,13.16202 31.75988,25.31638 8.41514,12.40349 7.60076,32.67633 -1.06028,26.39375 -1.43643,-1.04198 -2.93563,-3.49912 -3.3316,-5.46032 -3.54197,-17.54388 -22.8852,-39.36367 -34.89588,-39.36367 -8.76334,0 -4.17113,11.18859 7.71714,18.80215 6.52824,4.18087 11.43553,8.91643 10.90507,10.52348 -0.53045,1.60703 2.33687,10.3107 6.37187,19.34146 4.03496,9.03077 8.25464,21.40493 9.37706,27.49815 1.1224,6.09321 3.47451,18.28646 5.22686,27.09616 4.60861,23.169 -0.16354,34.9561 -8.09393,19.992 z m -145.471305,-1.8784 c -0.06006,-3.5391 -0.01094,-29.9043 0.106422,-58.58934 0.201309,-48.67001 -0.111906,-52.09184 -4.690179,-51.21539 -3.572309,0.68388 -5.112381,3.94458 -5.665296,11.99475 -0.417648,6.08054 -1.869325,13.54822 -3.225942,16.59482 -1.356644,3.04662 -3.060478,20.85178 -3.78629,39.56704 -0.869799,22.42772 -2.558686,35.53532 -4.95424,38.45022 -3.250159,3.9548 -3.810863,3.7245 -5.301732,-2.1768 -2.630133,-10.411 0.104765,-74.66737 3.699374,-86.91902 1.787787,-6.09323 7.902794,-15.85108 13.588961,-21.68415 13.01616,-13.35245 14.067823,-24.68196 2.796171,-30.12353 -7.160471,-3.45686 -7.583056,-4.74124 -8.348581,-25.37591 -0.67754,-18.26312 -0.0192,-22.33667 4.113952,-25.50317 5.714884,-4.37697 29.850455,-5.25368 32.346665,-1.17493 0.93227,1.52329 4.09058,2.76963 7.01846,2.76963 4.08647,0 5.3234,1.93064 5.3234,8.30895 0,4.56991 1.23418,8.30893 2.74263,8.30893 4.5177,0 3.26277,19.35978 -1.37132,21.15557 -2.26267,0.87685 -4.11395,3.39398 -4.11395,5.59368 0,2.19974 -4.31965,5.82213 -9.59922,8.04981 -10.288776,4.34125 -12.621196,11.28769 -4.80683,14.31589 7.92241,3.07003 16.21301,12.98714 19.29441,23.07972 3.50243,11.47159 7.21643,87.83943 4.60439,94.67643 -1.01845,2.6658 -3.57094,4.8469 -5.67223,4.8469 -2.70893,0 -3.86298,-3.8278 -3.9664,-13.1558 -0.6296,-56.78104 -5.53541,-92.09072 -12.79475,-92.09072 -1.93334,0 -3.75903,0.31158 -4.05707,0.69242 -0.29801,0.38082 -1.223653,26.22728 -2.056975,57.43659 -1.365257,51.13211 -1.989781,56.83611 -6.314725,57.67321 -3.436164,0.6651 -4.830684,-0.8989 -4.909014,-5.5058 z M 112.38462,872.43325 c 1.46396,-3.88844 2.35905,-11.41656 1.9891,-16.72912 l -0.67266,-9.65928 -15.084495,0.8037 -15.084519,0.80369 -0.822515,15.92546 -0.822516,15.92545 13.917911,0 c 12.398734,0 14.208494,-0.7717 16.579694,-7.0699 z m 52.98793,154.23405 c -2.94425,-3.1914 -6.9403,-12.0561 -8.8801,-19.6993 -1.9398,-7.64331 -4.64775,-14.5964 -6.01767,-15.45139 -1.36992,-0.85502 -2.49079,-12.13509 -2.49079,-25.06688 0,-17.84424 1.32233,-26.27617 5.48527,-34.97735 3.01691,-6.30573 5.48528,-13.10042 5.48528,-15.09923 0,-1.99883 1.09403,-3.63425 2.43122,-3.63425 3.96917,0 6.68368,-25.14384 3.10088,-28.72299 -2.33077,-2.32842 -3.80391,-1.92401 -5.76342,1.58224 -5.22988,9.35799 -11.23978,13.50537 -16.92837,11.68208 -4.21827,-1.352 -5.22753,-0.78893 -4.06582,2.26837 1.91817,5.0479 -8.07447,14.11968 -13.31574,12.08862 -5.33664,-2.06801 -4.82772,-7.01696 0.94396,-9.17916 5.034,-1.88588 14.39884,-11.38269 14.39884,-14.60173 0,-1.03283 3.08546,-3.5454 6.85659,-5.58353 4.884,-2.63958 6.85658,-6.007 6.85658,-11.70495 0,-4.39962 1.3926,-13.58431 3.09468,-20.41043 1.70208,-6.82613 2.39023,-13.12253 1.52925,-13.99201 -0.86103,-0.86947 -5.22109,1.04779 -9.68903,4.26057 -15.93784,11.46053 -19.34166,5.32606 -4.83033,-8.70527 10.17744,-9.84073 10.02894,-14.683 -0.80309,-26.18976 -10.80206,-11.47489 -4.52561,-16.88774 6.95393,-5.99711 7.87181,7.46804 15.87803,5.1815 13.3015,-3.7988 -0.98554,-3.43493 -4.19305,-9.67277 -7.1278,-13.86186 -4.77469,-6.81538 -4.85371,-7.61653 -0.75116,-7.61653 6.97136,0 20.26312,15.55577 20.26312,23.71461 0,3.93093 -1.69994,8.8638 -3.77761,10.96198 -5.51283,5.5671 -2.78221,50.69251 4.33375,71.61826 l 5.53661,16.28138 -6.25782,13.4923 c -3.44182,7.42077 -7.1603,13.4923 -8.26334,13.4923 -3.80298,0 -8.02722,17.48515 -7.96195,32.95661 0.0732,17.34903 2.2652,27.59289 10.8602,50.75241 4.00513,10.792 5.07917,17.3039 3.36442,20.3981 -2.26978,4.0958 -3.04822,3.9715 -7.87204,-1.2573 z M 59.305449,822.26382 c -4.388161,-4.43138 -1.080571,-9.82579 8.456448,-13.79184 27.247967,-11.33126 27.318123,-11.39417 29.270002,-26.25305 2.155519,-16.40909 7.215981,-16.87873 10.488381,-0.97342 2.33785,11.36294 8.89472,20.70758 14.52991,20.70758 1.86178,0 6.29867,2.40422 9.85982,5.34271 5.13872,4.24024 5.77879,6.05751 3.1019,8.80689 -2.69867,2.77171 -4.75459,2.71746 -10.28488,-0.27142 -3.80163,-2.05458 -6.91202,-5.32096 -6.91202,-7.25861 0,-1.93767 -1.35187,-4.36673 -3.00415,-5.39795 -3.26318,-2.03664 -5.85991,-1.07507 -32.758547,12.13037 -19.399808,9.52404 -20.019012,9.71346 -22.746864,6.95874 z"
       id="path3054"
       inkscape:connector-curvature="0" />
  </g>
</svg>
