<?xml version="1.0" encoding="UTF-8" standalone="no"?>
<!-- Created with Inkscape (http://www.inkscape.org/) -->

<svg
   xmlns:dc="http://purl.org/dc/elements/1.1/"
   xmlns:cc="http://creativecommons.org/ns#"
   xmlns:rdf="http://www.w3.org/1999/02/22-rdf-syntax-ns#"
   xmlns:svg="http://www.w3.org/2000/svg"
   xmlns="http://www.w3.org/2000/svg"
   xmlns:sodipodi="http://sodipodi.sourceforge.net/DTD/sodipodi-0.dtd"
   xmlns:inkscape="http://www.inkscape.org/namespaces/inkscape"
   width="300"
   height="300"
   id="svg2"
   version="1.1"
   inkscape:version="0.48.4 r9939"
   sodipodi:docname="image-seal.svg">
  <defs
     id="defs4" />
  <sodipodi:namedview
     id="base"
     pagecolor="#ffffff"
     bordercolor="#666666"
     borderopacity="1.0"
     inkscape:pageopacity="0.0"
     inkscape:pageshadow="2"
     inkscape:zoom="2.0018437"
     inkscape:cx="123.3515"
     inkscape:cy="143.3195"
     inkscape:document-units="px"
     inkscape:current-layer="layer1"
     showgrid="false"
     inkscape:window-width="1215"
     inkscape:window-height="1000"
     inkscape:window-x="65"
     inkscape:window-y="24"
     inkscape:window-maximized="1"
     fit-margin-top="10"
     fit-margin-left="10"
     fit-margin-right="10"
     fit-margin-bottom="10" />
  <metadata
     id="metadata7">
    <rdf:RDF>
      <cc:Work
         rdf:about="">
        <dc:format>image/svg+xml</dc:format>
        <dc:type
           rdf:resource="http://purl.org/dc/dcmitype/StillImage" />
        <dc:title />
      </cc:Work>
    </rdf:RDF>
  </metadata>
  <g
     inkscape:label="Calque 1"
     inkscape:groupmode="layer"
     id="layer1"
     transform="translate(0,-752.36218)">
    <path
       style="fill:#000000"
       d="m 235.12456,1038.6496 c -1.6539,-5.5177 -3.79196,-13.0685 -4.75128,-16.7797 -0.95936,-3.7112 -3.29275,-10.3913 -5.18536,-14.8448 -1.8926,-4.4534 -6.2071,-15.38465 -9.58775,-24.29154 -7.74409,-20.40297 -9.74596,-22.942 -18.08807,-22.942 -6.57267,0 -6.71313,0.39017 -4.94344,13.73078 1.00179,7.55194 2.95396,15.75033 4.33817,18.21865 6.08538,10.85161 13.3851,39.34981 10.75341,41.98141 -3.75477,3.755 -6.49885,-0 -10.63125,-14.5515 -1.89719,-6.6802 -4.53752,-14.9357 -5.86743,-18.3457 -1.32988,-3.40992 -2.41798,-8.93625 -2.41798,-12.2807 0,-7.3279 -4.72151,-12.55859 -11.33604,-12.55859 -4.02058,0 -4.85831,2.29158 -4.85831,13.28938 0,7.30916 1.39363,19.32701 3.09696,26.70621 3.58059,15.512 1.67592,24.4648 -4.17216,19.6114 -2.06599,-1.7147 -4.49404,-11.1199 -5.4786,-21.2217 -0.9725,-9.9783 -2.40157,-23.00066 -3.17574,-28.93858 -1.25177,-9.60118 -0.3437,-11.91659 8.20366,-20.91771 5.28618,-5.56681 12.14428,-10.12147 15.24018,-10.12147 8.19601,0 5.08519,-5.865 -6.44217,-12.14577 -5.44905,-2.96896 -10.62209,-7.21998 -11.49567,-9.4467 -0.87352,-2.22673 -1.54427,-31.98385 -1.49047,-66.12695 0.0904,-57.35041 4.17776,-109.31188 8.59882,-109.31188 4.22395,0 8.46006,8.51909 7.28716,14.65483 -2.14799,11.2364 1.63946,13.64064 22.47404,14.26629 18.52521,0.5563 23.89007,1.81236 20.82642,4.87601 -0.77463,0.77463 -10.39002,2.11269 -21.36753,2.97344 -10.97753,0.86073 -21.38486,2.95974 -23.12742,4.66444 -2.78562,2.7251 -5.13747,42.81017 -3.94287,67.20211 l 0.36351,7.42241 23.65091,0 c 21.6593,0 24.05112,0.5329 28.40344,6.32854 2.6139,3.48068 8.99345,11.07178 14.1768,16.86912 5.18333,5.7973 9.08827,12.34849 8.67761,14.55818 -1.31206,7.06017 -8.95089,5.94425 -12.96169,-1.89352 -2.11714,-4.1372 -7.408,-12.07686 -11.75745,-17.64367 l -7.90813,-10.12147 -21.14073,0 -21.14076,0 0,7.7968 c 0,6.78087 1.2369,8.02883 9.49262,9.57761 5.22095,0.97946 10.68403,1.04448 12.14023,0.1444 5.64767,-3.49045 19.22715,8.35078 26.31407,22.94575 3.97021,8.17631 10.72228,20.54664 15.00461,27.48962 7.47723,12.1229 7.82241,18.50453 0.99182,18.33651 -1.76799,-0.0435 -8.58155,-11.27831 -15.14124,-24.96629 -15.61551,-32.58463 -19.71122,-37.03298 -34.09729,-37.03298 -6.64999,0 -12.69729,1.62966 -14.61308,3.93803 -4.24306,5.11256 -1.03935,20.15928 4.76662,22.38724 20.64059,7.92055 44.10934,40.44302 52.1086,72.21096 1.69196,6.7193 4.14146,12.8753 5.44338,13.6799 3.04232,1.8803 3.10378,27.361 0.0704,29.2358 -1.2631,0.7806 -3.64974,-3.095 -5.30362,-8.6127 z m -91.97378,-20.0185 c -0.13684,-10.8368 -0.67058,-30.4638 -1.18637,-43.61564 -0.92021,-23.46486 -1.11932,-24.08375 -10.63737,-33.06347 -11.04098,-10.41656 -20.41938,-11.69162 -27.60381,-3.75291 -2.68689,2.96897 -6.490857,5.39812 -8.453257,5.39812 -1.96244,0 -5.72158,3.28111 -8.35365,7.29135 -3.68424,5.61334 -5.14972,15.26369 -6.36791,41.93328 -1.52529,33.39307 -5.20031,47.22827 -9.54069,35.91737 -2.46473,-6.4229 1.05047,-99.74099 4.27474,-113.48212 3.79895,-16.19011 10.55303,-20.24294 33.735127,-20.24294 24.97588,0 35.96194,3.72997 38.55536,13.09025 3.4226,12.35302 2.4651,127.99561 -1.06964,129.18511 -2.13692,0.7193 -3.18138,-5.0936 -3.35253,-18.6584 z M 96.803983,931.54018 c 12.434397,-6.43007 12.672827,-28.5097 0.30655,-28.38754 -8.27831,0.0818 -11.48786,4.8474 -12.46247,18.50453 -1.07352,15.04345 0.19002,16.07079 12.15592,9.88301 z m 43.356537,-9.99769 c 0,-17.8604 -10.81337,-26.05531 -22.60151,-17.12858 -4.89148,3.70414 -4.82122,4.23339 2.13806,16.1085 5.44419,9.28983 8.81046,12.27856 13.82957,12.27856 5.98554,0 6.63388,-1.1003 6.63388,-11.25848 z m -43.184937,86.83211 c -4.49844,-4.4984 -5.39812,-8.99682 -5.39812,-26.99057 0,-12.59562 1.12462,-21.59247 2.69906,-21.59247 1.48449,0 2.69906,1.75017 2.69906,3.88929 0,4.72024 1.59625,5.74648 12.610727,8.10746 7.53127,1.61433 8.66868,1.08715 9.44671,-4.37839 0.48651,-3.41752 3.01007,-6.61879 5.60792,-7.11394 4.19566,-0.79967 4.72335,1.63817 4.72335,21.82135 0,18.58457 -0.89871,23.53497 -4.93588,27.18847 -6.79113,6.1459 -20.85271,5.669 -27.452827,-0.9312 z m 23.163997,-15.0789 c 2.5155,-13.40879 -2.65814,-18.53198 -14.53384,-14.39208 -5.657327,1.97215 -8.630157,4.78964 -8.630157,8.17917 0,8.86085 6.204757,15.89371 14.022227,15.89371 6.26895,0 7.5876,-1.3964 9.14177,-9.6808 z M 70.000053,886.2422 c 0.0502,-11.27254 7.07783,-25.46527 17.74022,-35.82793 6.56389,-6.37939 11.93437,-13.44231 11.93437,-15.69543 0,-5.48848 -7.45863,-12.63751 -16.45783,-15.77462 -4.2216,-1.47167 -8.0096,-5.23523 -8.91996,-8.86242 -2.48778,-9.91213 1.26197,-31.12719 5.5017,-31.12719 2.02497,0 3.84535,2.12551 4.04533,4.72335 0.2,2.59785 0.57949,7.7598 0.84337,11.471 1.41347,19.87906 1.13058,19.29369 8.89143,18.39792 4.8694,-0.56202 7.745677,-2.69973 8.412317,-6.25215 1.78065,-9.48887 10.79926,-19.49226 19.06351,-21.1451 9.41296,-1.8826 15.94693,-11.43813 11.11615,-16.25673 -1.77949,-1.77499 -13.05567,-3.23874 -26.56586,-3.44846 -30.068297,-0.46674 -30.221687,-0.48545 -30.221687,-3.68418 0,-1.64975 12.61788,-2.69906 32.455507,-2.69906 l 32.45551,0 2.88505,7.42241 c 1.79093,4.60753 2.02149,10.98058 0.60796,16.80472 -2.042,8.41367 -3.46567,9.58417 -13.78954,11.33734 -15.24067,2.58813 -16.82766,3.83091 -16.82766,13.17789 0,7.02621 0.93298,7.93787 8.1236,7.93787 12.38981,0 17.08312,7.80012 20.75484,34.49373 3.42157,24.87512 2.67148,32.98275 -3.0515,32.98275 -2.52565,0 -3.87115,-7.11613 -4.83707,-25.58241 -0.76936,-14.70898 -2.78694,-27.32811 -4.74683,-29.68965 -4.23895,-5.10759 -14.56037,-5.33831 -18.64491,-0.41676 -3.52926,4.25253 0.27455,8.57933 8.95758,10.18913 7.27159,1.34813 5.77415,6.19143 -2.22553,7.19829 -6.0781,0.76502 -6.79135,2.34793 -8.51329,18.89341 -2.19086,21.05107 -2.73078,22.39169 -8.17653,20.30197 -2.439167,-0.93601 -3.873907,-4.42854 -3.555147,-8.65407 0.96926,-12.84823 -0.19919,-16.53144 -5.24443,-16.53144 -5.10282,0 -11.22949,10.08279 -11.22949,18.48059 0,4.90033 -4.86111,11.20905 -8.63699,11.20905 -1.18759,0 -2.15247,-1.51822 -2.14419,-3.37382 z M 193.2105,846.89332 c -4.83547,-5.34314 -6.17504,-22.05471 -1.76786,-22.05471 1.48449,0 2.69906,-1.665 2.69906,-3.69995 0,-2.53636 5.30519,-4.29814 16.86912,-5.60206 19.76502,-2.22859 26.31582,-7.02816 26.31582,-19.28073 0,-10.36187 -4.37525,-23.07393 -8.94079,-25.97695 -1.76273,-1.12084 -10.86776,-2.0565 -20.23339,-2.07922 -21.63004,-0.0526 -19.60251,-4.12109 3.21887,-6.45923 30.15008,-3.08896 38.0753,4.39822 35.22917,33.28196 -0.996,10.10792 -2.74896,19.89584 -3.89547,21.75091 -1.22192,1.97711 -8.87464,3.61997 -18.49319,3.9701 -18.17336,0.66145 -24.67202,4.29047 -24.67202,13.7774 0,6.08197 8.72185,13.50069 12.87632,10.95245 5.04484,-3.09439 23.07158,-4.16993 27.76754,-1.65673 10.49704,5.61785 4.92808,8.01264 -18.63306,8.01264 -19.70019,0 -24.65404,-0.86278 -28.34012,-4.93588 z"
       id="path3332"
       inkscape:connector-curvature="0" />
  </g>
</svg>
