<?xml version="1.0" encoding="UTF-8" standalone="no"?>
<!-- Created with Inkscape (http://www.inkscape.org/) -->

<svg
   xmlns:dc="http://purl.org/dc/elements/1.1/"
   xmlns:cc="http://creativecommons.org/ns#"
   xmlns:rdf="http://www.w3.org/1999/02/22-rdf-syntax-ns#"
   xmlns:svg="http://www.w3.org/2000/svg"
   xmlns="http://www.w3.org/2000/svg"
   xmlns:sodipodi="http://sodipodi.sourceforge.net/DTD/sodipodi-0.dtd"
   xmlns:inkscape="http://www.inkscape.org/namespaces/inkscape"
   width="300"
   height="300"
   id="svg2"
   version="1.1"
   inkscape:version="0.48.4 r9939"
   sodipodi:docname="dessin.svg">
  <defs
     id="defs4" />
  <sodipodi:namedview
     id="base"
     pagecolor="#ffffff"
     bordercolor="#666666"
     borderopacity="1.0"
     inkscape:pageopacity="0.0"
     inkscape:pageshadow="2"
     inkscape:zoom="1.979899"
     inkscape:cx="66.959549"
     inkscape:cy="133.99264"
     inkscape:document-units="px"
     inkscape:current-layer="layer1"
     showgrid="false"
     inkscape:window-width="1215"
     inkscape:window-height="1000"
     inkscape:window-x="65"
     inkscape:window-y="24"
     inkscape:window-maximized="1" />
  <metadata
     id="metadata7">
    <rdf:RDF>
      <cc:Work
         rdf:about="">
        <dc:format>image/svg+xml</dc:format>
        <dc:type
           rdf:resource="http://purl.org/dc/dcmitype/StillImage" />
        <dc:title />
      </cc:Work>
    </rdf:RDF>
  </metadata>
  <g
     inkscape:label="Calque 1"
     inkscape:groupmode="layer"
     id="layer1"
     transform="translate(0,-752.36218)">
    <path
       style="fill:#000000"
       d="m 96.575425,1032.5746 c -13.235396,-13.5082 -19.800566,-27.3386 -16.820741,-35.43524 1.4837,-4.03144 13.375016,-7.27037 40.012876,-10.89867 14.87756,-2.02649 24.47604,3.67193 11.95693,7.09852 -7.33059,2.00646 -3.91563,7.78909 12.94591,21.92149 12.9921,10.8893 13.74657,12.288 9.64462,17.8796 -2.06458,2.8144 -4.97856,1.381 -14.75687,-7.2587 -6.70137,-5.9211 -15.68908,-14.8486 -19.97271,-19.839 -8.23318,-9.59163 -14.35441,-11.15352 -22.811517,-5.8205 -6.486113,4.0901 -4.472851,12.3952 5.406197,22.3017 6.52055,6.5387 8.83742,10.7391 5.92347,10.7391 -0.64536,0 -2.85483,0.5068 -4.90995,1.1263 -2.05511,0.6195 -5.033306,-0.1971 -6.618215,-1.8146 z m 87.052025,-1.7313 c -0.9795,-2.6615 -2.95844,-4.8392 -4.39757,-4.8392 -1.43914,0 -2.61663,-1.4279 -2.61663,-3.1731 0,-1.7452 -2.5251,-5.5105 -5.61135,-8.3674 -3.08625,-2.8568 -5.61135,-6.8729 -5.61135,-8.9247 0,-2.0518 -1.26257,-3.7306 -2.80569,-3.7306 -1.54313,0 -2.80568,-2.17759 -2.80568,-4.83912 0,-2.66155 -1.26255,-4.83917 -2.80567,-4.83917 -1.54313,0 -2.80568,-1.39848 -2.80568,-3.10769 0,-1.70923 -3.70022,-4.99267 -8.2227,-7.29653 -6.5418,-3.33256 -12.72445,-3.96095 -30.24443,-3.07396 -12.11194,0.61319 -23.426128,0.358 -25.142633,-0.5671 -3.932539,-2.1194 -6.622077,-55.08129 -4.140207,-81.52815 1.397952,-14.89662 2.786196,-19.35665 6.025018,-19.35665 2.486788,0 4.566423,2.67485 5.083365,6.53826 1.079977,8.07134 3.122377,8.52383 39.807507,8.81927 16.20279,0.13043 30.40655,0.26708 31.5639,0.30351 1.15733,0.0364 2.10425,1.15504 2.10425,2.48581 0,1.33078 -6.75355,2.41959 -15.00792,2.41959 -8.25436,0 -24.66758,0.70415 -36.47383,1.56482 l -21.465913,1.56482 0,20.14737 0,20.14739 41.840733,-1.16605 c 23.01241,-0.64131 44.90339,-0.16191 48.64662,1.0655 8.17912,2.68175 29.34883,20.8367 31.67874,27.1674 0.91407,2.48367 2.63676,4.51574 3.82819,4.51574 2.64995,0 8.67832,11.00404 8.67832,15.84112 0,5.84145 -7.96393,3.95173 -13.2259,-3.13831 -2.71604,-3.65963 -6.5328,-8.09264 -8.48171,-9.85117 -1.94895,-1.75849 -3.54348,-4.16249 -3.54348,-5.34217 0,-1.17967 -4.85474,-6.54595 -10.7883,-11.92506 l -10.78832,-9.78022 -44.15626,0 c -34.07865,0 -43.889174,0.69027 -42.986038,3.02448 0.804416,2.07908 8.551428,3.08352 24.783498,3.21332 41.05149,0.32834 54.86432,2.75527 62.13986,10.91815 3.50039,3.92727 11.69443,12.2897 18.209,18.58321 6.51458,6.29347 11.88044,12.71295 11.92412,14.26551 0.0437,1.55258 1.02638,3.18578 2.18373,3.62938 8.34855,3.1998 15.78497,28.6317 8.3721,28.6317 -3.69102,0 -21.69909,-21.9676 -21.69909,-26.4701 0,-1.4107 -1.26255,-2.5649 -2.80568,-2.5649 -1.54312,0 -2.80567,-1.4279 -2.80567,-3.1731 0,-1.74522 -2.24379,-5.28386 -4.9862,-7.86364 -2.74241,-2.57977 -8.06668,-8.50134 -11.83181,-13.15903 -11.91214,-14.73628 -11.19858,-14.51749 -47.34662,-14.51749 -30.05977,0 -41.712814,1.95636 -34.51242,5.79405 1.33042,0.70909 12.97468,2.04843 25.87612,2.9763 19.09119,1.37304 24.52431,2.68434 29.1907,7.04513 13.66066,12.76608 21.16501,20.684 21.16822,22.33468 0.002,0.9751 3.29016,5.0394 7.3073,9.0317 8.83017,8.7756 12.73707,16.834 10.5473,21.7552 -2.32006,5.2139 -8.7467,4.5094 -10.84384,-1.1888 z m -68.03772,-99.91037 c -7.15179,-3.23958 -8.65177,-13.96291 -2.56273,-18.32094 2.06253,-1.47619 15.89035,-3.32298 30.72849,-4.10399 39.94913,-2.10274 42.67766,-3.03263 42.67766,-14.5451 l 0,-9.50423 -14.0284,-1.44789 c -7.71562,-0.79629 -23.29826,-0.40665 -34.62807,0.86593 -20.65508,2.31999 -28.64105,0.60265 -24.44229,-5.25617 2.91782,-4.07143 74.5547,-3.35941 80.91989,0.80431 12.14138,7.94213 10.7942,29.32999 -1.98937,31.58346 -7.67813,1.3535 -42.48652,4.54394 -54.93116,5.03487 -15.84589,0.62508 -16.83408,0.9015 -16.83408,4.70919 0,2.94449 4.36799,3.60216 23.14686,3.48515 12.73077,-0.0794 28.82836,-0.89595 35.77242,-1.81469 16.86842,-2.23183 30.86247,-0.88848 30.86247,2.96263 0,5.07537 -84.77027,10.04158 -94.69169,5.54747 z M 76.513971,867.15915 c -8.301268,-1.54617 -12.695547,-6.64731 -13.782278,-15.99931 -0.500688,-4.30872 -1.62689,-12.92508 -2.50267,-19.14747 -1.000968,-7.11184 -0.433934,-11.93084 1.526832,-12.9759 5.356706,-2.85503 9.076555,3.02532 9.816669,15.51823 0.974334,16.44655 3.556355,22.51273 9.185927,21.58127 3.590907,-0.59414 5.188195,-4.8694 6.911485,-18.49907 2.263113,-17.89921 0.173864,-24.55587 -7.70709,-24.55587 -7.949175,0 -15.429304,-11.01625 -15.94069,-23.47641 -0.76917,-18.74128 8.698825,-23.96808 38.031134,-20.99507 19.51952,1.97844 26.86342,7.4964 26.86342,20.18429 0,10.7737 -11.06641,24.28719 -19.88916,24.28719 -4.38516,0 -5.36195,1.76313 -5.36195,9.67833 0,7.93514 0.97149,9.67832 5.39377,9.67832 3.67656,0 6.42557,-2.69615 8.63462,-8.46853 3.81039,-9.95676 7.61122,-10.86997 10.0706,-2.41959 2.93872,10.09755 -0.8279,18.14685 -8.49173,18.14685 -11.58701,0 -15.60726,2.55972 -15.60726,9.93721 0,6.26846 0.95279,7.00791 9.11845,7.07682 9.74651,0.0823 21.33318,5.92213 17.79991,8.97149 -2.40228,2.07322 -44.670133,3.228 -54.069989,1.47722 z m 30.460189,-68.16191 c 1.04815,-0.90391 2.76486,-4.64336 3.81491,-8.30989 1.71175,-5.97698 0.85938,-7.04465 -8.24213,-10.32418 -11.926113,-4.29732 -23.235626,-2.56564 -25.623828,3.92343 -2.486946,6.75741 1.13134,14.28617 8.050878,16.75194 6.093181,2.17131 18.44421,1.0253 22.00017,-2.0413 z m 51.50255,67.53087 -13.92807,-1.42609 -3.05474,-13.3077 c -3.17786,-13.84386 -1.89715,-24.44306 3.12803,-25.8876 1.60866,-0.46245 5.96915,1.43619 9.69,4.21916 5.28173,3.95046 8.92989,4.71996 16.6375,3.50939 13.33633,-2.09463 19.05677,-6.91519 14.19772,-11.96425 -1.98526,-2.06294 -5.38041,-3.75082 -7.54472,-3.75082 -2.16434,0 -4.72084,-3.38798 -5.68117,-7.5288 -1.73373,-7.47575 -1.8518,-7.52123 -16.75559,-6.45538 -11.87302,0.84913 -15.94819,0.17912 -19.50127,-3.20685 -2.47043,-2.35415 -3.64032,-5.46827 -2.59975,-6.92027 1.0406,-1.45199 2.38534,-6.00185 2.98833,-10.11079 1.71161,-11.66313 7.83708,-13.98184 37.7546,-14.29154 14.65968,-0.15174 30.04647,-0.75887 34.1929,-1.34912 9.80722,-1.39608 19.13069,6.93875 19.07206,17.04976 -0.0642,11.05565 -2.50271,12.61743 -22.02557,14.10601 -29.8068,2.27271 -31.58538,11.44823 -2.2191,11.44823 16.10556,0 17.81296,0.51842 21.91423,6.65386 5.68999,8.51217 11.90008,37.33054 9.46826,43.93815 -1.04251,2.83269 -4.24743,5.05836 -7.28394,5.05836 -4.79802,0 -5.42228,-1.7942 -5.42228,-15.58448 0,-8.57147 -1.26257,-16.25741 -2.80569,-17.07987 -1.54313,-0.82246 -2.80568,-3.60875 -2.80568,-6.19175 0,-4.49441 -4.29158,-5.94845 -14.0284,-4.75299 -6.00536,0.73728 -6.79787,1.93459 -3.6023,5.44221 4.09397,4.49368 2.33039,30.66025 -2.32106,34.43849 -5.09761,4.14065 -20.11111,5.72143 -37.4643,3.94468 z m 25.85217,-11.23476 c 1.92891,-0.51015 3.5071,-3.68376 3.5071,-7.05244 0,-5.87293 -0.69251,-6.12491 -16.83408,-6.12491 -9.25874,0 -16.83407,0.45536 -16.83407,1.0119 0,0.55654 -0.7039,2.5938 -1.5642,4.52718 -2.77918,6.2458 6.17634,11.21292 17.7175,9.8269 5.77536,-0.69356 12.07885,-1.67845 14.00775,-2.18863 z m -18.93833,-65.00043 c 0,-1.88731 0.76637,-5.15376 1.70301,-7.25874 2.66329,-5.98535 -14.69293,-5.18254 -18.43836,0.85283 -4.82307,7.77181 -3.37102,9.83738 6.91546,9.83738 6.60665,0 9.81989,-1.12284 9.81989,-3.43147 z m 44.77901,-0.0815 c 4.61658,-4.79713 2.57261,-11.97216 -3.70766,-13.01519 -10.10926,-1.67894 -24.23727,2.0434 -24.23727,6.38591 0,7.98074 21.69207,13.12668 27.94493,6.62928 z"
       id="path3108"
       inkscape:connector-curvature="0" />
  </g>
</svg>
