<?xml version="1.0" encoding="UTF-8" standalone="no"?>
<!-- Created with Inkscape (http://www.inkscape.org/) -->

<svg
   xmlns:dc="http://purl.org/dc/elements/1.1/"
   xmlns:cc="http://creativecommons.org/ns#"
   xmlns:rdf="http://www.w3.org/1999/02/22-rdf-syntax-ns#"
   xmlns:svg="http://www.w3.org/2000/svg"
   xmlns="http://www.w3.org/2000/svg"
   xmlns:sodipodi="http://sodipodi.sourceforge.net/DTD/sodipodi-0.dtd"
   xmlns:inkscape="http://www.inkscape.org/namespaces/inkscape"
   width="300"
   height="300"
   id="svg2"
   version="1.1"
   inkscape:version="0.48.4 r9939"
   sodipodi:docname="image-seal.svg">
  <defs
     id="defs4" />
  <sodipodi:namedview
     id="base"
     pagecolor="#ffffff"
     bordercolor="#666666"
     borderopacity="1.0"
     inkscape:pageopacity="0.0"
     inkscape:pageshadow="2"
     inkscape:zoom="1.979899"
     inkscape:cx="200.43343"
     inkscape:cy="134.48103"
     inkscape:document-units="px"
     inkscape:current-layer="layer1"
     showgrid="false"
     inkscape:window-width="1215"
     inkscape:window-height="1000"
     inkscape:window-x="65"
     inkscape:window-y="24"
     inkscape:window-maximized="1" />
  <metadata
     id="metadata7">
    <rdf:RDF>
      <cc:Work
         rdf:about="">
        <dc:format>image/svg+xml</dc:format>
        <dc:type
           rdf:resource="http://purl.org/dc/dcmitype/StillImage" />
        <dc:title />
      </cc:Work>
    </rdf:RDF>
  </metadata>
  <g
     inkscape:label="Calque 1"
     inkscape:groupmode="layer"
     id="layer1"
     transform="translate(0,-752.36218)">
    <path
       style="fill:#000000"
       d="m 112.93161,1027.2453 c -1.41926,-2.4417 -4.41387,-21.7533 -6.65478,-42.91461 -4.16797,-39.36034 -16.40673,-71.50996 -23.099804,-60.6804 -2.049954,3.31691 0.205399,18.99286 5.011652,34.83538 10.338793,34.07853 10.820743,39.58975 3.041903,34.78215 -3.203736,-1.98005 -9.89308,-16.12144 -14.865129,-31.42542 l -9.040174,-27.82533 3.320581,36.99532 c 3.54196,39.46171 0.258671,46.82791 -9.468371,21.24346 -11.133811,-29.28412 -8.731129,-56.15111 6.095051,-68.15666 13.304517,-10.77332 13.371523,-11.33938 2.732265,-23.0956 -8.535261,-9.43142 -11.445697,-24.38003 -13.386617,-68.75663 -1.794895,-41.03875 -0.639871,-55.56771 4.180527,-52.58855 3.725339,2.30241 6.660635,19.61414 6.660635,39.28268 0,34.50129 0.31076,35.16613 16.440655,35.16613 17.425086,0 42.751836,14.42426 42.751836,24.3483 0,3.25558 -5.92002,1.77269 -13.15559,-3.29531 -7.23552,-5.06794 -21.219799,-9.08658 -31.076058,-8.93018 l -17.920467,0.28412 20.427624,10.07438 c 22.611471,11.15139 44.019081,42.47836 40.158021,58.76547 -1.91547,8.0799 -4.06842,6.4067 -9.33685,-7.25635 -9.81849,-25.46307 -15.24366,-33.91641 -26.203684,-40.82979 -15.388389,-9.70679 -19.880449,1.59815 -4.825134,12.14327 18.690498,13.09137 28.355448,39.03918 33.324538,89.46726 3.80395,38.60401 2.16668,50.89031 -5.11263,38.36671 z m 114.26661,-37.4886 c -0.11782,-55.50326 -3.76056,-65.26175 -22.79185,-61.06133 l -15.60242,3.44366 15.38033,-10.89948 c 15.61356,-11.06472 16.88538,-25.69759 2.23346,-25.69759 -4.41991,0 -9.93949,-3.07943 -12.26558,-6.84324 -3.02343,-4.89196 1.09643,-5.77806 14.44877,-3.1076 16.12664,3.22534 18.67814,2.06842 18.67814,-8.46903 0,-8.14305 -5.94903,-14.45025 -17.87595,-18.95214 -11.12843,-4.20047 -16.71419,-9.77492 -14.79813,-14.76805 1.69279,-4.41137 3.07783,-22.45294 3.07783,-40.09242 0,-17.63943 2.66367,-32.07174 5.91925,-32.07174 3.25559,0 5.91925,7.80571 5.91925,17.34606 0,13.28227 3.12015,17.94705 13.3183,19.9113 l 13.31832,2.56521 -13.31832,0.80609 c -18.13155,1.09743 -18.14936,27.55238 -0.0295,42.22579 12.77207,10.34223 13.2124,13.83842 11.30179,89.73753 -2.05463,81.61848 -6.7721,112.95158 -6.91475,45.92698 z m -70.95014,0.90494 c 0,-25.54304 -1.66183,-29.51143 -13.31832,-31.80444 l -13.3183,-2.61986 13.3183,-4.40143 c 7.32508,-2.42078 13.31832,-6.75445 13.31832,-9.63032 0,-2.87586 -5.99324,-5.31359 -13.31832,-5.41712 -12.9851,-0.18346 -13.03085,-0.40547 -1.82828,-8.87887 11.12158,-8.41196 11.02662,-8.70182 -2.95962,-9.03875 -12.17777,-0.2936 -12.98369,-1.34929 -5.12601,-6.71593 7.64939,-5.22427 8.24878,-10.39502 3.33782,-28.794 -6.98999,-26.18795 1.29927,-41.0922 22.85404,-41.0922 21.82568,0 29.85645,14.85767 22.64136,41.88888 -4.98566,18.67896 -4.62216,23.22286 1.85798,23.22286 13.77754,0 8.82075,11.79908 -5.26179,12.52513 -10.0223,0.51676 -10.75473,1.35658 -2.95963,3.39368 12.65454,3.30697 13.77652,13.67743 1.47982,13.67743 -4.88338,0 -8.87887,2.66366 -8.87887,5.91925 0,3.2556 3.99549,5.91925 8.87887,5.91925 4.88339,0 8.87888,2.66366 8.87888,5.91924 0,3.25561 -3.99549,5.91925 -8.87888,5.91925 -6.70846,0 -8.87887,7.23464 -8.87887,29.59626 0,16.27795 -2.66366,29.59625 -5.91925,29.59625 -3.25558,0 -5.91925,-13.133 -5.91925,-29.18456 z m 8.87888,-89.20043 c 2.01207,-3.25559 0.83745,-5.91925 -2.61027,-5.91925 -3.44774,0 -6.26861,2.66366 -6.26861,5.91925 0,3.25558 1.17462,5.91925 2.61027,5.91925 1.43565,0 4.25653,-2.66367 6.26861,-5.91925 z m 8.87887,-23.677 c 0,-3.25558 -6.65915,-5.91925 -14.79812,-5.91925 -8.13897,0 -14.79812,2.66367 -14.79812,5.91925 0,3.25559 6.65915,5.91925 14.79812,5.91925 8.13897,0 14.79812,-2.66366 14.79812,-5.91925 z m -4.32679,-21.64042 c -4.00752,-1.62139 -11.99849,-1.72006 -17.75775,-0.2196 -5.75925,1.50076 -2.48034,2.82739 7.28642,2.94804 9.76675,0.12074 14.47883,-1.10726 10.47133,-2.72873 z M 86.696908,842.08428 c -18.865712,-7.58309 -16.502807,-21.22436 4.973293,-28.71096 21.611709,-7.53384 20.225479,-20.60444 -2.47016,-23.29117 -16.75698,-1.98379 -22.304619,-12.92516 -6.553438,-12.92516 31.904927,0 42.672927,29.61336 15.888798,43.69619 l -16.277929,8.55877 16.237029,4.10019 c 8.930369,2.25512 14.766399,6.47969 12.968959,9.38799 -3.90641,6.32075 -7.28885,6.20929 -24.766552,-0.81585 z M 138.49034,827.4706 c -5.88936,-7.09623 -5.84176,-10.71882 0.23676,-18.04341 9.54242,-11.49783 29.04736,-8.96156 37.63352,4.89363 11.67981,18.84729 -23.11509,30.92914 -37.87058,13.14978 z m 29.59624,-8.87887 c 0,-3.25559 -5.32733,-5.91925 -11.8385,-5.91925 -6.51117,0 -11.83849,2.66366 -11.83849,5.91925 0,3.25558 5.32732,5.91925 11.83849,5.91925 6.51117,0 11.8385,-2.66367 11.8385,-5.91925 z M 73.378597,800.83398 c 0,-3.25558 5.327326,-5.91925 11.838499,-5.91925 6.511175,0 11.838495,2.66367 11.838495,5.91925 0,3.25559 -5.32732,5.91925 -11.838495,5.91925 -6.511173,0 -11.838499,-2.66366 -11.838499,-5.91925 z m 98.921293,-0.60067 c -5.8391,-3.39808 -18.92318,-4.32845 -29.18278,-2.07507 l -18.59804,4.08482 17.34429,-17.74442 c 9.66151,-9.88438 18.34227,-14.78499 19.59727,-11.06325 1.23907,3.67467 9.23006,12.57869 17.75774,19.78668 16.01365,13.53548 11.73799,17.86856 -6.91848,7.01124 z"
       id="path3078"
       inkscape:connector-curvature="0" />
  </g>
</svg>
