<?xml version="1.0" encoding="UTF-8" standalone="no"?>
<!-- Created with Inkscape (http://www.inkscape.org/) -->

<svg
   xmlns:dc="http://purl.org/dc/elements/1.1/"
   xmlns:cc="http://creativecommons.org/ns#"
   xmlns:rdf="http://www.w3.org/1999/02/22-rdf-syntax-ns#"
   xmlns:svg="http://www.w3.org/2000/svg"
   xmlns="http://www.w3.org/2000/svg"
   xmlns:sodipodi="http://sodipodi.sourceforge.net/DTD/sodipodi-0.dtd"
   xmlns:inkscape="http://www.inkscape.org/namespaces/inkscape"
   width="300"
   height="300"
   id="svg2"
   version="1.1"
   inkscape:version="0.48.4 r9939"
   sodipodi:docname="image-seal.svg">
  <defs
     id="defs4" />
  <sodipodi:namedview
     id="base"
     pagecolor="#ffffff"
     bordercolor="#666666"
     borderopacity="1.0"
     inkscape:pageopacity="0.0"
     inkscape:pageshadow="2"
     inkscape:zoom="1.979899"
     inkscape:cx="200.43343"
     inkscape:cy="134.48103"
     inkscape:document-units="px"
     inkscape:current-layer="layer1"
     showgrid="false"
     inkscape:window-width="1215"
     inkscape:window-height="1000"
     inkscape:window-x="65"
     inkscape:window-y="24"
     inkscape:window-maximized="1" />
  <metadata
     id="metadata7">
    <rdf:RDF>
      <cc:Work
         rdf:about="">
        <dc:format>image/svg+xml</dc:format>
        <dc:type
           rdf:resource="http://purl.org/dc/dcmitype/StillImage" />
        <dc:title />
      </cc:Work>
    </rdf:RDF>
  </metadata>
  <g
     inkscape:label="Calque 1"
     inkscape:groupmode="layer"
     id="layer1"
     transform="translate(0,-752.36218)">
    <path
       style="fill:#000000"
       d="m 123.86809,1034.1495 c -5.27418,-6.2328 -13.51629,-21.8914 -15.09152,-28.6712 -2.1592,-9.29322 0.51546,-12.73159 16.33654,-21.00141 l 12.80428,-6.69289 -9.32647,-1.20958 c -18.3104,-2.37473 -17.68634,-0.50764 -17.70378,-52.96726 -0.0163,-47.7997 1.57228,-69.77383 5.20511,-72.01901 3.29646,-2.03734 9.00125,5.20864 9.00125,11.43304 0,6.45436 3.00995,7.39899 31.47683,9.87848 20.52385,1.78762 22.38116,2.38855 20.72465,6.70538 -1.10321,2.87496 -5.96549,3.41857 -26.85872,3.00279 -19.32516,-0.38457 -25.98323,0.25513 -27.45634,2.63795 -1.06959,1.73008 -2.12059,11.38431 -2.33555,21.45379 l -0.39082,18.30816 8.83193,2.26112 c 4.85756,1.24361 20.62554,2.2653 35.03997,2.27041 23.62741,0.01 26.95645,0.53979 33.80844,5.39709 13.27488,9.41036 15.76106,12.19144 15.76106,17.63049 0,7.80162 -4.87852,6.50902 -15.15552,-4.01561 l -9.10706,-9.32647 -34.50105,0 c -49.30935,0 -44.54876,5.58537 7.31624,8.58379 14.28481,0.82581 23.1445,2.41774 25.26671,4.53993 1.79747,1.7975 7.11195,6.13766 11.80989,9.64483 11.21284,8.37074 14.2069,12.26972 14.29664,18.61767 0.1399,9.90505 -11.18213,3.44839 -18.35654,-10.46815 -4.82789,-9.3649 -15.75751,-12.9845 -42.65649,-14.1267 -13.72091,-0.58263 -26.76025,-0.36358 -28.97628,0.48679 -3.80602,1.46052 -3.8077,1.76734 -0.03,5.54078 2.19941,2.19706 7.36952,4.04738 11.48914,4.11183 37.09106,0.58023 41.36086,1.11086 45.96188,5.71188 2.56479,2.56478 5.30764,4.66324 6.09524,4.66324 0.7876,0 5.24682,4.39008 9.90938,9.75576 4.66256,5.36568 10.83813,12.33887 13.7235,15.49598 6.19147,6.7746 6.70986,11.6388 1.45531,13.6552 -2.54457,0.9764 -5.8024,-1.0396 -9.90937,-6.1321 -3.36521,-4.1727 -8.47803,-10.36866 -11.36184,-13.76884 -2.88381,-3.40016 -5.24458,-6.96904 -5.24614,-7.93082 -0.001,-0.96179 -2.10129,-1.74871 -4.66608,-1.74871 -2.56478,0 -4.66323,-0.79311 -4.66323,-1.76246 0,-0.96935 -3.07361,-3.12294 -6.83024,-4.78578 -7.89269,-3.49365 -14.25506,-0.81106 -18.96969,7.99829 -2.33562,4.3642 -1.91635,6.37504 2.69687,12.93392 3.00434,4.2715 6.80853,9.1529 8.45372,10.8475 3.50731,3.6126 3.64227,5.1044 0.85925,9.4996 -3.18999,5.0379 -8.01748,1.7454 -13.78212,-9.3998 -2.8948,-5.5967 -7.06415,-12.54134 -9.26524,-15.43255 -3.6379,-4.77859 -4.68974,-4.99723 -11.56168,-2.40338 -9.76087,3.68433 -9.67289,9.00113 0.39174,23.67913 4.63623,6.7614 7.32289,13.129 6.64049,15.7385 -1.28525,4.9148 -7.5109,5.6847 -11.15409,1.3794 z m 26.47549,-113.57766 c -9.83665,-0.6412 -18.34206,-1.69042 -18.90093,-2.33162 -3.23947,-3.71677 -3.39742,-16.16906 -0.26183,-20.64572 3.18324,-4.54474 5.62325,-5.00207 26.68752,-5.00207 12.75119,0 23.34821,-0.78691 23.54892,-1.74871 0.20075,-0.96179 0.60829,-4.37177 0.90571,-7.57775 0.29742,-3.20597 1.2583,-7.57041 2.13529,-9.69873 2.12218,-5.1502 -3.39763,-6.75024 -29.74427,-8.62202 -28.58113,-2.03054 -29.16018,-6.21068 -1.14389,-8.25744 23.21136,-1.69573 35.12467,0.64618 38.17948,7.50528 3.76781,8.4599 2.82882,24.7923 -1.80032,31.3139 -4.37611,6.16519 -5.3417,6.41194 -25.09155,6.41194 -14.87136,0 -21.29648,0.91115 -23.28017,3.30134 -3.83666,4.6229 1.00598,5.74897 27.36517,6.36329 12.89486,0.30052 23.30105,1.68597 25.64779,3.41468 3.38837,2.49604 3.45246,3.07981 0.45151,4.11238 -5.90552,2.03203 -25.90951,2.68598 -44.69843,1.46125 z M 81.109588,897.45149 c -2.226904,-1.37632 -2.729102,-6.71985 -1.904931,-20.26829 1.459431,-23.99076 3.443475,-32.40099 8.783795,-37.23387 5.404327,-4.89088 40.741478,-8.61661 51.758158,-5.45706 4.10657,1.17775 20.80167,2.14136 37.10028,2.14136 17.05834,0 32.08709,1.1178 35.41495,2.63407 7.76232,3.53674 10.35345,11.28282 11.20806,33.50599 0.67092,17.44665 0.40037,18.69819 -4.18383,19.3528 -4.5138,0.64455 -5.02333,-0.73754 -6.44697,-17.48713 -2.47042,-29.0654 -1.68501,-27.95432 -20.91696,-29.59095 -38.10463,-3.24272 -92.92513,-0.66911 -97.270284,4.5665 -2.46176,2.96625 -3.865941,12.88241 -4.856497,34.29665 -0.544206,11.76475 -3.671109,16.63915 -8.685771,13.53993 z m 19.836002,-74.39562 c -2.294548,-0.45147 -3.831499,-3.02354 -3.831499,-6.41195 0,-3.11195 -0.901337,-5.65808 -2.002955,-5.65808 -2.298197,0 -5.093106,-37.58103 -3.303785,-44.42339 1.731504,-6.62126 5.194961,-5.55709 7.98773,2.45428 2.262159,6.48919 3.264709,6.99485 13.868439,6.99485 12.34161,0 15.44267,3.69512 5.01803,5.97937 -3.52657,0.77274 -7.85648,1.86004 -9.622,2.41627 -1.76552,0.55621 -4.84734,-0.31836 -6.8485,-1.94347 -3.096593,-2.51473 -3.399824,-2.31868 -2.03608,1.31629 0.88131,2.34905 1.60236,5.84562 1.60236,7.77014 0,2.72652 2.43101,3.32791 11.01027,2.72381 8.99535,-0.6334 11.16012,-0.0285 11.82905,3.30505 0.60467,3.01331 -0.70036,4.08033 -4.99054,4.08033 -8.86089,0 -13.18555,2.37603 -13.18555,7.24432 0,3.43894 1.69937,4.41377 7.69434,4.41377 7.12954,0 13.29021,3.3543 13.29021,7.23615 0,1.79387 -20.32032,3.7141 -26.47952,2.50226 z m 80.10671,-4.12052 c 0,-4.37155 1.82925,-5.93073 9.32647,-7.94951 6.85741,-1.84651 9.32647,-3.7221 9.32647,-7.08472 0,-3.65735 -1.60697,-4.57337 -8.02304,-4.57337 -8.73343,0 -13.14212,-3.97177 -8.01409,-7.21983 1.76729,-1.11939 6.09862,-2.05131 9.62518,-2.07094 4.84564,-0.027 6.41195,-1.17483 6.41195,-4.69893 0,-3.90003 -1.55442,-4.66323 -9.49742,-4.66323 -7.78534,0 -9.35804,-0.73556 -8.72418,-4.08033 0.53806,-2.83929 3.39189,-4.29837 9.38282,-4.79716 6.26694,-0.52178 9.02314,-2.01996 10.12961,-5.50612 1.31664,-4.14834 1.96538,-4.34401 4.84739,-1.46199 2.20534,2.20533 3.62517,10.14834 4.21064,23.5557 1.30967,29.99111 1.12653,30.31843 -19.09242,34.12363 -9.35871,1.7613 -9.90938,1.56275 -9.90938,-3.5732 z m -48.96395,-0.38549 c 0,-2.32089 3.07825,-5.45662 7.10739,-7.24009 8.77862,-3.8858 7.91897,-7.27108 -3.19529,-12.58327 -10.83465,-5.17854 -10.98149,-8.96472 -0.5705,-14.71009 9.15185,-5.05049 9.98359,-9.82743 2.86101,-16.43185 -9.58262,-8.88552 -4.43906,-12.9911 6.15351,-4.91174 l 7.90801,6.03176 7.27045,-4.42142 c 8.25898,-5.0226 12.47412,-2.11763 6.50227,4.48117 -5.049,5.5791 -4.71572,7.83606 2.10321,14.24211 6.92127,6.50219 7.25733,9.39879 1.64771,14.2019 -9.14537,7.8305 -10.19075,7.69459 -8.53894,-1.11027 1.42326,-7.58669 0.98361,-8.57371 -4.79815,-10.77191 -4.55933,-1.73346 -7.27666,-1.6633 -9.57879,0.24727 -5.0018,4.15114 -3.82049,8.21479 3.40533,11.7144 6.45981,3.12855 7.37056,4.24496 7.37056,9.03478 0,1.28239 1.90925,2.33161 4.24275,2.33161 2.33353,0 6.54672,2.64977 9.36264,5.88836 4.18233,4.8101 4.49489,6.12816 1.70688,7.19802 -1.87713,0.72034 -5.76354,-0.8802 -8.63647,-3.55673 -7.62816,-7.10673 -13.30994,-7.10106 -23.31512,0.0234 -7.69666,5.48047 -9.00846,5.53036 -9.00846,0.34268 z"
       id="path3143"
       inkscape:connector-curvature="0"
       sodipodi:nodetypes="csscssssssssscscssscsssscssscssssscsscssssssssssssccsssscsssssssssssssssssssssssssssssssssssssssssssssssssssssssssssssssscssssssssssssscss" />
  </g>
</svg>
