<?xml version="1.0" encoding="UTF-8" standalone="no"?>
<!-- Created with Inkscape (http://www.inkscape.org/) -->

<svg
   xmlns:dc="http://purl.org/dc/elements/1.1/"
   xmlns:cc="http://creativecommons.org/ns#"
   xmlns:rdf="http://www.w3.org/1999/02/22-rdf-syntax-ns#"
   xmlns:svg="http://www.w3.org/2000/svg"
   xmlns="http://www.w3.org/2000/svg"
   xmlns:sodipodi="http://sodipodi.sourceforge.net/DTD/sodipodi-0.dtd"
   xmlns:inkscape="http://www.inkscape.org/namespaces/inkscape"
   width="300"
   height="300"
   id="svg2"
   version="1.1"
   inkscape:version="0.48.4 r9939"
   sodipodi:docname="image-seal.svg">
  <defs
     id="defs4" />
  <sodipodi:namedview
     id="base"
     pagecolor="#ffffff"
     bordercolor="#666666"
     borderopacity="1.0"
     inkscape:pageopacity="0.0"
     inkscape:pageshadow="2"
     inkscape:zoom="1.979899"
     inkscape:cx="144.1876"
     inkscape:cy="145.59431"
     inkscape:document-units="px"
     inkscape:current-layer="layer1"
     showgrid="false"
     inkscape:window-width="1215"
     inkscape:window-height="1000"
     inkscape:window-x="65"
     inkscape:window-y="24"
     inkscape:window-maximized="1"
     fit-margin-top="10"
     fit-margin-left="10"
     fit-margin-right="10"
     fit-margin-bottom="10" />
  <metadata
     id="metadata7">
    <rdf:RDF>
      <cc:Work
         rdf:about="">
        <dc:format>image/svg+xml</dc:format>
        <dc:type
           rdf:resource="http://purl.org/dc/dcmitype/StillImage" />
        <dc:title />
      </cc:Work>
    </rdf:RDF>
  </metadata>
  <g
     inkscape:label="Calque 1"
     inkscape:groupmode="layer"
     id="layer1"
     transform="translate(0,-752.36218)">
    <path
       style="fill:#000000"
       d="m 156.92701,1048.6528 c -4.54276,-7.6318 -7.28056,-68.30731 -3.75477,-83.21387 2.51633,-10.6388 13.5596,-17.84098 27.35596,-17.84098 14.03017,0 11.20275,-8.80198 -5.33916,-16.62135 -16.80264,-7.94256 -17.2392,-9.47321 -19.34363,-67.8229 -1.78181,-49.40452 0.89645,-87.30676 6.16929,-87.30676 4.74972,0 7.20559,6.42134 7.20559,18.84048 l 0,9.78469 18.60636,0 c 10.23349,0 18.60636,1.1503 18.60636,2.55625 0,3.8198 -7.62174,6.02603 -20.98738,6.07512 -6.56234,0.0229 -13.34121,0.99021 -15.06411,2.14689 -1.8959,1.27285 -3.02593,11.70835 -2.86251,26.43446 l 0.26993,24.33139 20.03762,1.85377 c 11.02069,1.0196 23.63992,2.79138 28.04273,3.9373 11.24331,2.92638 33.50138,25.85466 33.50138,34.51016 0,8.26312 -7.40956,9.42624 -9.90771,1.55529 -2.33112,-7.34473 -13.29854,-19.73562 -23.31036,-26.3359 -5.69011,-3.75115 -13.37488,-5.47001 -24.51377,-5.48295 -19.77501,-0.0229 -25.28115,1.86794 -25.28115,8.68205 0,6.0219 4.95027,7.81049 22.68548,8.19653 6.96665,0.15171 15.56307,2.17351 19.10312,4.49303 8.75644,5.73746 38.36188,45.46418 38.36188,51.47679 0,9.1168 -9.6904,3.15621 -20.77057,-12.77605 -6.01378,-8.6472 -14.84221,-19.89578 -19.61877,-24.99681 -13.83346,-14.77314 -36.94631,-18.17203 -36.85479,-5.41975 0.0633,8.79317 2.6828,11.7008 17.13127,19.01419 12.10813,6.12876 22.90014,15.55609 22.90014,20.00432 0,1.08862 3.21875,5.722 7.1528,10.29645 3.93404,4.57444 7.15437,9.64081 7.15629,11.25859 0.002,1.61781 3.61063,9.99067 8.01934,18.60636 9.92913,19.40391 14.88429,35.99671 14.88429,49.84151 0,8.4721 -0.98729,10.4221 -4.89559,9.6694 -2.81203,-0.5415 -5.65897,-4.6753 -6.68922,-9.7127 -0.98651,-4.8235 -3.93602,-13.0644 -6.55448,-18.3132 -2.61848,-5.2489 -4.76085,-12.3082 -4.76085,-15.6874 0,-3.37918 -1.02518,-7.3677 -2.27816,-8.86336 -1.25298,-1.49567 -4.01079,-7.87192 -6.12845,-14.16946 -2.11766,-6.29754 -4.63484,-12.09414 -5.59376,-12.88133 -0.95891,-0.78719 -3.12363,-3.93086 -4.81049,-6.98591 -4.10731,-7.43871 -8.26654,-8.4655 -13.41928,-3.31277 -3.37167,3.37168 -3.71196,6.85974 -1.61832,16.58726 1.45814,6.77478 3.84001,18.11438 5.29305,25.19911 1.45304,7.08476 3.93321,18.03386 5.51155,24.33136 3.89285,15.5327 3.70808,18.6064 -1.11859,18.6064 -7.51605,0 -8.39015,-3.1498 -15.58073,-56.14467 -2.65902,-19.59725 -4.57247,-24.00581 -10.41908,-24.00581 -9.51609,0 -10.9602,11.26188 -9.14757,71.33668 0.35352,11.7166 -0.63416,18.7763 -2.72443,19.4731 -1.80344,0.6011 -3.89451,0.059 -4.64684,-1.205 z m -94.909953,-46.4387 c -4.18801,-6.77628 2.88716,-8.23877 41.351913,-8.54766 35.52833,-0.28539 46.24726,1.5157 37.94178,6.37506 -5.37275,3.1434 -77.472763,5.119 -79.293693,2.1726 z m 19.19655,-29.47767 c -10.72007,-5.17102 -16.08334,-36.34294 -8.94757,-52.00423 4.00566,-8.79151 17.03163,-14.49103 27.51577,-12.03957 4.341903,1.01524 12.746673,2.20124 18.677273,2.63557 5.93059,0.43433 12.64055,2.65407 14.91102,4.93275 5.5254,5.54541 6.65586,38.92722 1.72166,50.83941 l -3.77875,9.12276 -21.83723,-0.19379 c -12.010463,-0.10649 -24.728453,-1.58838 -28.262173,-3.29296 z m 39.532073,-8.06408 c 7.03959,-3.76747 7.22574,-15.96912 0.30019,-19.67554 -6.97916,-3.73515 -40.563613,2.51572 -40.563613,7.54986 0,2.00136 2.57627,6.2151 5.72504,9.36387 6.34165,6.34164 25.053583,7.83791 34.538383,2.76181 z m 1.31155,-34.46522 c 2.54833,-8.02907 1.49592,-8.64308 -17.81585,-10.39423 -13.223993,-1.19911 -17.574933,-0.54868 -20.584013,3.07701 -7.5243,9.06622 -1.82978,13.25797 18.011043,13.25797 16.21324,0 18.73666,-0.73526 20.38882,-5.94075 z m -53.436063,-37.7513 c -6.32161,-5.00531 -10.01314,-45.15134 -5.2166,-56.73125 3.7809,-9.12788 8.2531,-11.09892 22.63576,-9.97636 5.41851,0.42291 14.793313,-0.34135 20.832913,-1.69836 22.35943,-5.02383 32.02418,7.13176 33.36687,41.96636 1.0206,26.47808 -1.49962,28.46218 -37.33796,29.39499 -20.966413,0.54571 -30.945783,-0.31462 -34.280983,-2.95538 z m 46.597743,-5.03036 c 13.26673,-3.68503 18.27095,-14.4282 15.45807,-33.18584 -3.24105,-21.61278 -2.62693,-21.14235 -27.60084,-21.14235 -27.044263,0 -34.146283,4.65007 -33.882383,22.1845 0.28224,18.75395 5.8989,30.48858 15.58228,32.55549 13.17004,2.81111 19.130093,2.7305 30.442873,-0.4118 z M 89.828547,873.70202 c -1.94427,-1.23495 -4.31736,-6.1569 -5.2735,-10.93768 -2.33833,-11.69166 4.43066,-18.217 18.897253,-18.217 10.30025,0 11.31653,0.74417 13.92683,10.19784 2.27118,8.22555 1.89737,11.27047 -1.93288,15.74384 -4.84201,5.65504 -18.981073,7.42837 -25.617703,3.213 z m 15.843863,-9.68956 c 1.88926,-1.88926 3.43502,-5.75366 3.43502,-8.58755 0,-3.81668 -2.22641,-5.15253 -8.58755,-5.15253 -7.633393,0 -8.587553,0.95416 -8.587553,8.58755 0,6.36114 1.33585,8.58755 5.15253,8.58755 2.83389,0 6.698293,-1.54576 8.587553,-3.43502 z m 80.72298,-7.48007 c -5.97416,-1.93873 -8.49249,-6.42283 -8.54373,-15.21271 -0.0573,-9.80414 4.46321,-13.23942 19.86378,-15.09574 16.23737,-1.95716 19.56805,-5.70754 20.58874,-23.18309 l 0.83594,-14.31258 -20.85115,-0.84476 c -17.86599,-0.72385 -20.71311,-1.54347 -19.88687,-5.72504 0.8015,-4.05644 4.4365,-4.88027 21.53316,-4.88027 17.21939,0 21.27294,0.93229 24.89234,5.72503 5.46534,7.23707 6.16374,42.31753 0.92739,46.58214 -1.96798,1.60278 -9.92935,3.76043 -17.69192,4.79477 -7.76258,1.03434 -15.16934,2.53299 -16.45948,3.33034 -4.29406,2.65387 -2.41902,9.69494 2.66372,10.00269 8.23306,0.49851 21.66988,-0.42937 30.05643,-2.07555 5.81345,-1.14111 7.87192,-0.40705 7.87192,2.80713 0,2.39375 -1.27588,5.14079 -2.83527,6.10454 -3.64908,2.25527 -37.33523,3.8101 -42.965,1.9831 z M 48.085527,823.40711 c -1.42636,-3.71703 11.60138,-18.935 16.2098,-18.935 2.18699,0 17.73332,-10.49885 23.79805,-16.07146 1.90953,-1.75458 3.87648,-8.83931 4.37104,-15.74384 0.74102,-10.34565 1.90615,-12.55371 6.6242,-12.55371 4.718323,0 5.569893,1.61426 4.842783,9.18003 -1.2715,13.2303 2.59004,18.37536 20.99373,27.97166 16.9864,8.85728 20.32344,12.7339 17.43682,20.25634 -1.42467,3.71266 -3.8178,3 -14.41896,-4.29377 -6.99092,-4.80989 -14.08885,-8.74525 -15.77318,-8.74525 -1.6843,0 -3.06238,-1.28813 -3.06238,-2.86252 0,-6.62243 -16.050793,-2.02277 -32.463943,9.30318 -9.69655,6.69113 -18.05948,13.1318 -18.58426,14.31259 -1.60708,3.61593 -8.36087,2.38467 -9.9737,-1.81825 z"
       id="path3297"
       inkscape:connector-curvature="0" />
  </g>
</svg>
