<?xml version="1.0" encoding="UTF-8" standalone="no"?>
<!-- Created with Inkscape (http://www.inkscape.org/) -->

<svg
   xmlns:dc="http://purl.org/dc/elements/1.1/"
   xmlns:cc="http://creativecommons.org/ns#"
   xmlns:rdf="http://www.w3.org/1999/02/22-rdf-syntax-ns#"
   xmlns:svg="http://www.w3.org/2000/svg"
   xmlns="http://www.w3.org/2000/svg"
   xmlns:sodipodi="http://sodipodi.sourceforge.net/DTD/sodipodi-0.dtd"
   xmlns:inkscape="http://www.inkscape.org/namespaces/inkscape"
   width="300"
   height="300"
   id="svg2"
   version="1.1"
   inkscape:version="0.48.4 r9939"
   sodipodi:docname="image-seal.svg">
  <defs
     id="defs4" />
  <sodipodi:namedview
     id="base"
     pagecolor="#ffffff"
     bordercolor="#666666"
     borderopacity="1.0"
     inkscape:pageopacity="0.0"
     inkscape:pageshadow="2"
     inkscape:zoom="1.979899"
     inkscape:cx="118.51252"
     inkscape:cy="130.59117"
     inkscape:document-units="px"
     inkscape:current-layer="layer1"
     showgrid="false"
     inkscape:window-width="1215"
     inkscape:window-height="1000"
     inkscape:window-x="65"
     inkscape:window-y="24"
     inkscape:window-maximized="1" />
  <metadata
     id="metadata7">
    <rdf:RDF>
      <cc:Work
         rdf:about="">
        <dc:format>image/svg+xml</dc:format>
        <dc:type
           rdf:resource="http://purl.org/dc/dcmitype/StillImage" />
        <dc:title />
      </cc:Work>
    </rdf:RDF>
  </metadata>
  <g
     inkscape:label="Calque 1"
     inkscape:groupmode="layer"
     id="layer1"
     transform="translate(0,-752.36218)">
    <path
       style="fill:#000000"
       d="m 141.17467,1035.7849 c -0.74712,-2.5877 -1.04522,-22.8552 -0.66249,-45.03883 0.60629,-35.14065 0.029,-42.26337 -4.48366,-55.31873 l -5.17956,-14.98476 11.20331,-11.41534 c 9.94772,-10.13601 17.77146,-14.4473 17.77146,-9.793 0,0.89232 -4.57605,6.58683 -10.169,12.65447 -5.59296,6.06763 -10.16901,12.70613 -10.16901,14.7522 0,7.16907 5.36717,6.93077 12.18597,-0.54103 3.7845,-4.14695 9.45495,-8.14208 12.60097,-8.87807 6.15305,-1.43947 7.74458,1.72246 2.54226,5.05069 -11.74475,7.51371 -14.43427,21.09989 -4.17695,21.09989 2.66899,0 4.81251,1.76968 4.81251,3.97318 0,2.33561 -1.83364,3.70649 -4.44894,3.32619 -2.44692,-0.35588 -6.91278,0.18634 -9.92417,1.20492 -5.29006,1.78931 -5.48286,3.24088 -5.70081,42.92354 -0.20542,37.41748 -2.62173,53.38488 -6.20189,40.98468 z m 36.17544,-0.2559 c -0.14817,-2.4469 -0.0457,-7.7501 0.22778,-11.7849 0.56461,-8.3317 -3.19522,-11.6357 -13.3052,-11.692 -10.97605,-0.061 -8.92231,-7.1956 2.34542,-8.1478 7.8939,-0.6671 9.41213,-1.7711 9.82532,-7.14463 0.2688,-3.49561 -0.50438,-9.01394 -1.71814,-12.26298 l -2.20686,-5.90733 -7.97047,7.97047 c -5.31592,5.31592 -8.81754,7.12344 -10.5138,5.42714 -2.75525,-2.75524 12.79906,-21.33139 16.135,-19.26966 1.00818,0.62308 2.48904,-0.57655 3.2908,-2.66588 0.80174,-2.08933 3.20963,-3.79879 5.35088,-3.79879 3.11952,0 3.89318,3.4823 3.89318,17.52377 0,18.59659 1.99179,21.60759 12.47958,18.86499 5.77413,-1.51 13.7669,3.4396 11.49377,7.1176 -0.76624,1.2398 -4.66413,2.2542 -8.66197,2.2542 -13.2651,0 -15.31138,2.0749 -15.31138,15.5255 0,6.8416 -1.14402,12.4392 -2.54227,12.4392 -1.39822,0 -2.66345,-2.002 -2.81162,-4.4489 z m 43.40354,3.8134 c -0.0462,-0.3496 -0.62798,-10.3597 -1.29269,-22.2447 -1.47743,-26.41587 -5.81523,-55.22417 -9.47426,-62.92074 -1.87528,-3.94457 -4.95339,-5.72006 -9.91655,-5.72006 -3.95843,0 -7.19715,-1.14402 -7.19715,-2.54227 0,-1.39823 1.57594,-2.54224 3.50207,-2.54224 1.92616,0 4.86559,-1.64292 6.53206,-3.65088 4.15185,-5.00267 -0.33387,-12.94206 -10.19262,-18.04022 -4.199,-2.17136 -6.95759,-5.04324 -6.13024,-6.38194 3.04928,-4.93382 9.86968,-2.16963 19.42121,7.87105 7.67495,8.06811 10.13238,9.44651 11.32066,6.34996 3.46395,-9.02691 -7.17466,-26.82399 -16.03463,-26.82399 -4.53473,0 -4.23054,-4.90006 0.41484,-6.68264 5.09342,-1.95453 21.01423,8.22677 23.08962,14.76575 4.38906,13.82868 2.2753,28.42439 -4.78142,33.01649 -2.66739,1.73577 1.14729,36.8202 6.06715,55.8009 1.31054,5.05603 2.38281,16.21023 2.38281,24.78693 0,12.1666 -0.83815,15.5941 -3.81338,15.5941 -2.09736,0 -3.85123,-0.286 -3.89748,-0.6355 z m -155.311,-8.2623 c -0.17466,-2.0974 -0.4783,-8.1035 -0.674484,-13.3469 -0.196262,-5.2434 -1.076237,-10.6774 -1.955627,-12.0757 -0.879416,-1.3982 -1.72652,-11.59689 -1.882513,-22.66375 -0.29612,-21.01139 3.153969,-29.35253 12.21562,-29.5332 2.230189,-0.0445 6.169077,-1.68262 8.753072,-3.64033 4.569393,-3.46188 4.569393,-3.73622 0,-10.00826 -2.583995,-3.54684 -6.128173,-6.48474 -7.875971,-6.52868 -3.727779,-0.0939 -3.892237,-3.78434 -4.286641,-96.19304 -0.157118,-36.78248 0.55266,-68.23329 1.576957,-69.89065 1.423534,-2.30331 2.609367,-2.26647 5.032185,0.15626 2.410613,2.41061 2.520566,5.60212 0.459053,13.32556 l -2.710726,10.15578 16.357844,0 c 14.205911,0 16.246711,0.58529 15.513011,4.44895 -0.63637,3.35122 -3.81498,4.63996 -12.882426,5.22317 -8.162525,0.525 -12.765379,2.16176 -14.298356,5.08451 -2.602554,4.96194 -1.983541,59.29178 0.725507,63.67511 0.992674,1.60616 6.599407,3.05566 12.459399,3.22108 17.419076,0.49178 25.994586,3.16335 25.205046,7.85226 -0.38666,2.29615 0.47135,4.90062 1.90668,5.78768 1.43534,0.88706 2.60967,3.83338 2.60967,6.54735 0,2.71395 1.14402,4.93445 2.54227,4.93445 1.39822,0 2.54224,4.00405 2.54224,8.89789 0,13.12807 -3.54338,10.87255 -10.42196,-6.63407 -6.71487,-17.09003 -12.0235,-20.85428 -27.568251,-19.54815 -8.182384,0.68753 -9.041436,1.48433 -9.041436,8.38645 0,7.0366 0.770022,7.68973 9.951207,8.44068 11.79168,0.96449 20.99754,9.58464 28.01864,26.23598 2.57045,6.09612 6.83402,15.99544 9.47466,21.99845 3.27743,7.45069 4.05643,12.24537 2.45457,15.10767 -1.99817,3.57061 -3.11746,2.92537 -7.53973,-4.34646 -2.85627,-4.69676 -7.73244,-15.49924 -10.83591,-24.00553 -7.50772,-20.57781 -11.08494,-24.36391 -23.019585,-24.36391 -9.137329,0 -9.774978,0.49099 -9.774978,7.52651 0,4.1396 1.767832,9.00166 3.928516,10.80457 11.083359,9.24823 21.514007,21.01382 20.725807,23.3784 -0.48954,1.46862 1.19905,4.91266 3.75244,7.6534 2.55339,2.74072 4.64251,6.52369 4.64251,8.40661 0,1.88289 1.62045,5.95721 3.60099,9.05406 3.67385,5.74451 10.05992,30.0438 13.00492,49.4845 1.24944,8.2478 0.81299,10.8045 -1.84438,10.8045 -3.67623,0 -16.26663,-44.52665 -15.63497,-55.29395 0.18457,-3.14604 -0.54864,-5.72006 -1.62933,-5.72006 -1.08069,0 -3.38649,-3.43205 -5.12399,-7.62675 -4.017649,-9.69944 -11.882759,-10.13687 -15.4109,-0.85715 -1.755071,4.61618 -1.735033,7.60837 0.06275,9.40633 1.450203,1.4502 2.63672,5.85549 2.63672,9.78953 0,3.93402 1.010538,9.13928 2.245637,11.56724 9.012923,17.71741 9.478903,23.48131 1.898304,23.48131 -3.235928,0 -6.677275,-11.4742 -12.00891,-40.04045 -2.370215,-12.69923 -3.910184,-15.88907 -7.670859,-15.88907 -6.826556,0 -7.896158,7.93722 -5.086054,37.74152 1.363917,14.4657 1.863342,27.9079 1.10987,29.8714 -1.813465,4.7258 -5.827272,4.569 -6.228286,-0.2433 z m 129.97259,-45.76056 c -7.40502,-7.64006 -7.91487,-8.89788 -3.60662,-8.89788 7.27782,0 16.31788,7.12186 16.31788,12.8554 0,7.06537 -2.90368,6.16135 -12.71126,-3.95752 z m -43.13369,-13.34683 c 0.14571,-3.28418 9.49344,-13.34682 12.39861,-13.34682 5.05533,0 2.86683,6.97877 -3.49587,11.14776 -6.92587,4.53799 -9.02955,5.05761 -8.90274,2.19906 z m 45.04038,-4.00031 c -8.07596,-6.61229 -8.83536,-9.38001 -2.54225,-9.26565 6.18958,0.11231 13.34682,6.01338 13.34682,11.00397 0,5.52838 -2.40121,5.14206 -10.80457,-1.73832 z m -23.69937,-7.63696 c -1.68668,-4.39543 3.11145,-16.96305 6.47625,-16.96305 1.43284,0 2.60517,4.57605 2.60517,10.169 0,7.4369 -1.04597,10.16901 -3.89317,10.16901 -2.14124,0 -4.47593,-1.51874 -5.18825,-3.37496 z m -29.48516,-72.4289 c -6.11675,-6.22107 -8.70523,-18.29646 -4.48157,-20.90681 4.73945,-2.92917 7.45664,-0.63363 7.45664,6.29949 0,7.47695 3.91291,10.52073 15.88907,12.35992 l 9.53344,1.46405 0,-10.00917 c 0,-9.90652 -0.0997,-10.00917 -9.72587,-10.00917 -12.84691,0 -20.78115,-8.14141 -20.78115,-21.32382 0,-7.75894 0.83667,-9.38186 4.44895,-8.62985 2.91703,0.60727 4.23017,2.91761 3.81366,6.70968 -0.87942,8.00571 3.90611,16.02437 9.058,15.17775 2.35871,-0.38762 5.63951,0.14343 7.29067,1.17996 4.1345,2.59559 5.86752,-1.02173 7.63357,-15.93342 1.38879,-11.72602 1.0796,-12.77181 -3.77592,-12.77181 -2.90872,0 -5.9043,-0.99627 -6.65685,-2.2139 -0.75255,-1.21764 -4.66918,-2.87407 -8.70364,-3.68095 -8.08621,-1.61725 -10.56617,-8.28899 -10.56617,-28.42555 0,-29.4802 6.59355,-34.81315 40.88925,-33.07174 25.72936,1.30643 28.78152,3.90082 31.3556,26.6528 2.54077,22.45752 -1.61395,32.42324 -14.93519,35.82415 -5.6529,1.44317 -11.58626,3.05685 -13.18523,3.58595 -3.40119,1.12543 -5.78143,24.03875 -2.69527,25.94607 3.36253,2.07817 17.0426,-4.569 17.0426,-8.28102 0,-5.00786 5.57168,-16.33581 8.03482,-16.33581 1.1738,0 2.1342,4.409 2.1342,9.79777 0,12.69827 -9.17577,23.25148 -20.21663,23.25148 -7.18805,0 -7.74814,0.65561 -7.74814,9.06911 0,8.91323 0.16013,9.05349 9.32026,8.16104 8.89101,-0.86624 10.36559,-2.20182 16.04921,-14.53657 3.21739,-6.98246 7.6798,-5.87992 7.6798,1.89742 0,16.45323 -14.48547,23.4546 -48.04657,23.22269 -17.07018,-0.11794 -22.79658,-1.09821 -26.11154,-4.46974 z m 60.73285,-73.24983 c 1.79095,-2.44926 3.25625,-6.56257 3.25625,-9.14072 0,-4.29747 -2.16846,-4.62725 -26.05808,-3.96304 -25.46788,0.70809 -26.07793,0.86521 -26.93508,6.93767 -1.46627,10.3879 5.73307,13.52308 27.49221,11.97246 14.05509,-1.00163 19.83444,-2.51017 22.2447,-5.80637 z m 0.23949,-31.00771 c 0.57136,-5.7847 -0.26728,-8.06521 -2.96597,-8.06521 -2.06941,0 -4.14393,-0.92745 -4.61002,-2.06103 -0.46607,-1.13357 -9.6362,-0.91683 -20.37806,0.48169 -16.5856,2.15932 -20.01804,3.45339 -22.76277,8.58202 -4.73935,8.85552 -0.13376,10.52953 26.88641,9.77281 l 23.03378,-0.6451 0.79663,-8.06518 z m -102.11592,68.26714 c -12.020003,-2.32191 -14.759143,-6.12962 -13.447849,-18.69391 1.257316,-12.04705 3.869604,-14.75908 16.125629,-16.74139 l 9.66271,-1.56285 0.75524,-18.80752 c 0.85411,-21.26915 -0.90455,-23.88877 -14.38047,-21.42063 -5.841727,1.06993 -9.213699,0.47533 -10.670352,-1.88159 -2.960923,-4.79087 1.958469,-7.32385 14.126572,-7.27367 16.49765,0.0679 19.41196,4.01941 20.93181,28.38067 1.47134,23.58413 1.23007,24.03787 -15.8473,29.79936 -10.967915,3.70031 -13.882698,6.53946 -13.943461,13.5817 -0.04429,5.13484 8.401741,9.02364 21.516781,9.90691 5.32409,0.35855 8.95131,1.93752 8.95131,3.8966 0,3.59894 -7.96099,3.87221 -23.78062,0.81632 z"
       id="path3041"
       inkscape:connector-curvature="0" />
  </g>
</svg>
