<?xml version="1.0" encoding="UTF-8" standalone="no"?>
<svg
   xmlns:dc="http://purl.org/dc/elements/1.1/"
   xmlns:cc="http://creativecommons.org/ns#"
   xmlns:rdf="http://www.w3.org/1999/02/22-rdf-syntax-ns#"
   xmlns:svg="http://www.w3.org/2000/svg"
   xmlns="http://www.w3.org/2000/svg"
   viewBox="0 0 300 300"
   height="300"
   width="300"
   id="svg28"
   version="1.1">
  <metadata
     id="metadata34">
    <rdf:RDF>
      <cc:Work
         rdf:about="">
        <dc:format>image/svg+xml</dc:format>
        <dc:type
           rdf:resource="http://purl.org/dc/dcmitype/StillImage" />
        <dc:title></dc:title>
      </cc:Work>
    </rdf:RDF>
  </metadata>
  <defs
     id="defs32" />
  <path
     id="path38"
     d="m 134.67456,284.73489 c -18.38493,-1.78058 -27.48945,-3.86424 -38.270638,-8.75865 -4.426205,-2.00939 -6.561703,-4.10536 -9.977383,-9.7927 -3.412823,-5.68259 -4.853806,-10.79445 -6.893178,-24.45353 -1.720979,-11.52649 -1.747502,-12.33236 -1.742243,-52.92784 0.0047,-39.21397 0.08828,-41.97019 1.707745,-56.55099 1.605202,-14.45271 1.838188,-15.5975 4.080548,-20.05024 1.892307,-3.7576 3.128281,-5.23598 6.049824,-7.23632 4.650903,-3.18444 7.60383,-4.20406 19.468145,-6.722285 7.09048,-1.50497 11.44938,-2.03559 16.72186,-2.03559 h 7.13142 l 0.0918,-7.412777 c 0.0505,-4.07703 0.12903,-19.049124 0.17448,-33.271321 0.0721,-22.57625 0.23778,-26.383706 1.30485,-29.995907 1.44004,-4.874699 3.99313,-10.129497 5.10094,-10.498766 1.27016,-0.423386 5.85313,4.053351 7.21223,7.045047 1.49872,3.299019 1.6234,8.387443 0.49017,20.003185 -0.44401,4.551103 -0.57701,9.78676 -0.29556,11.634792 l 0.51174,3.36006 5.97871,-0.462316 c 3.28829,-0.254274 13.27082,-0.470665 22.1834,-0.480869 12.56691,-0.01439 16.95851,0.215621 19.56266,1.024592 4.41317,1.370943 6.64067,3.499411 6.64067,6.345462 0,1.920775 -0.34692,2.356484 -2.58586,3.247718 -5.87245,2.337592 -10.5139,2.768155 -25.06244,2.324908 -8.63401,-0.263051 -16.29213,-0.864965 -19.53353,-1.535301 -2.93243,-0.606439 -5.52289,-0.911406 -5.75659,-0.677704 -0.40073,0.400713 -1.1233,10.488703 -1.63275,22.794855 l -0.22823,5.512972 4.47179,0.90117 c 2.69969,0.54405 10.89345,0.97945 20.67648,1.09871 15.39009,0.1876 16.48471,0.28943 21.77524,2.0256 11.3951,3.739475 18.62474,10.371715 21.90987,20.099385 0.63727,1.88706 1.62413,8.55857 2.193,14.82556 0.56887,6.267 1.50747,15.20119 2.08579,19.85373 3.14063,25.2661 2.49829,64.58719 -1.46697,89.80328 -2.17072,13.8041 -5.77949,26.38125 -8.15905,28.43553 -7.63797,6.59396 -11.05621,7.71378 -31.30277,10.25482 -16.14028,2.02568 -36.4691,3.06077 -44.61619,2.27173 z m 43.09758,-14.31836 c 5.49925,-0.97895 11.93435,-2.17671 14.30024,-2.66167 l 4.3016,-0.88176 -24.02971,-31.48786 -24.02973,-31.48787 -19.97345,28.38485 c -10.98539,15.61165 -20.62441,29.99775 -21.42001,31.9691 l -1.44657,3.58425 2.18794,0.68671 c 10.67078,3.34917 19.61189,4.19221 41.4929,3.91233 16.29944,-0.2085 19.86338,-0.45983 28.61679,-2.01808 z m -34.85956,-12.12514 c -7.36982,-0.69012 -14.4793,-2.06291 -15.74448,-3.04015 -0.56448,-0.43602 -1.11426,-2.17857 -1.22651,-3.88749 -0.19564,-2.97852 -0.0982,-3.15389 2.54086,-4.57413 2.73024,-1.46928 2.84244,-1.47253 21.88469,-0.6328 10.52721,0.46423 19.2483,0.97107 19.38021,1.12631 0.13191,0.15525 0.72246,1.72994 1.31232,3.49932 l 1.07249,3.21705 -3.21367,1.37305 c -6.76079,2.88852 -15.66145,3.88751 -26.00591,2.91884 z m -24.85823,-33.13673 c 11.36603,-16.11849 20.7797,-30.0821 20.91925,-31.03025 0.38018,-2.58287 -1.36567,-5.3365 -12.26902,-19.35117 -5.47724,-7.04019 -15.6992,-20.30853 -22.71548,-29.4852 L 91.232216,128.60318 90.68414,162.22575 c -0.649784,39.86216 -0.235112,78.797 0.901555,84.65008 0.441907,2.27555 1.438563,5.62028 2.214783,7.43274 1.409686,3.29154 1.412571,3.29354 2.499838,1.7239 0.598683,-0.86431 10.388004,-14.75932 21.754034,-30.87781 z m -16.12685,-8.85968 c -1.74617,-6.1941 -2.213298,-12.68728 -1.89065,-26.28014 0.33857,-14.26437 1.19421,-19.73586 3.59751,-23.00472 0.84879,-1.15449 1.08623,-1.17145 2.94492,-0.21028 2.00804,1.0384 2.02473,1.09812 2.47087,8.84091 0.24703,4.2875 0.45057,15.26107 0.4523,24.3857 l 0.004,16.59023 -3.43411,1.0982 -3.43411,1.09817 -0.70986,-2.51807 z m 103.66742,34.02866 c 2.29208,-10.00237 2.84118,-16.64066 2.8519,-34.47806 0.0155,-25.65541 -0.99557,-69.99444 -1.75416,-76.93178 -0.62648,-5.72926 -2.30018,-12.02725 -3.37236,-12.68988 -0.90498,-0.55932 -45.61232,63.64093 -46.00562,66.06462 -0.42807,2.63785 -2.2227,0.0576 25.22731,36.27093 11.53602,15.21883 21.19332,27.42771 21.46069,27.13084 0.26737,-0.29685 0.98388,-2.71186 1.59224,-5.36667 z m -14.15567,-34.59931 c -3.82574,-1.01073 -5.31062,-34.05778 -1.99299,-44.35544 2.43094,-7.54544 4.13422,-8.3622 7.52068,-3.60636 3.09178,4.34201 3.90537,9.27393 3.89373,23.60364 -0.018,22.154 -1.6633,26.40781 -9.42142,24.35816 z m -20.29496,-67.15646 c 24.74109,-34.45633 24.78532,-34.53353 20.9599,-36.58083 -4.26325,-2.28162 -8.90946,-2.78916 -32.26064,-3.52411 -37.9769,-1.19526 -53.8271,0.10216 -60.656369,4.96502 l -2.072711,1.47591 18.36054,24.26754 c 10.0983,13.34715 21.33777,28.2239 24.97658,33.05944 3.63882,4.83555 6.78989,8.79191 7.00238,8.79191 0.21249,0 10.87313,-14.60469 23.69032,-32.45488 z M 134.7014,137.54341 c -2.26079,-0.35163 -5.7517,-1.11643 -7.75756,-1.69956 l -3.64703,-1.06022 v -3.43867 c 0,-3.13175 0.20003,-3.56404 2.24107,-4.84309 2.02331,-1.26794 3.01162,-1.36846 10.17103,-1.03454 4.36147,0.20343 13.23414,0.56313 19.71704,0.79933 l 11.78708,0.42947 1.08293,3.38639 1.08292,3.38638 -2.08009,1.07566 c -4.77742,2.4705 -8.57883,3.17024 -18.48823,3.40317 -5.49925,0.12926 -11.84836,-0.0527 -14.10916,-0.40432 z"
     style="fill:#000000;stroke-width:0.68956107" />
</svg>
