<?xml version="1.0" encoding="UTF-8" standalone="no"?>
<!-- Created with Inkscape (http://www.inkscape.org/) -->

<svg
   xmlns:dc="http://purl.org/dc/elements/1.1/"
   xmlns:cc="http://creativecommons.org/ns#"
   xmlns:rdf="http://www.w3.org/1999/02/22-rdf-syntax-ns#"
   xmlns:svg="http://www.w3.org/2000/svg"
   xmlns="http://www.w3.org/2000/svg"
   xmlns:sodipodi="http://sodipodi.sourceforge.net/DTD/sodipodi-0.dtd"
   xmlns:inkscape="http://www.inkscape.org/namespaces/inkscape"
   width="300"
   height="300"
   id="svg2"
   version="1.1"
   inkscape:version="0.48.4 r9939"
   sodipodi:docname="image-seal.svg">
  <defs
     id="defs4" />
  <sodipodi:namedview
     id="base"
     pagecolor="#ffffff"
     bordercolor="#666666"
     borderopacity="1.0"
     inkscape:pageopacity="0.0"
     inkscape:pageshadow="2"
     inkscape:zoom="2.0506101"
     inkscape:cx="150.3604"
     inkscape:cy="115.67348"
     inkscape:document-units="px"
     inkscape:current-layer="layer1"
     showgrid="false"
     inkscape:window-width="1215"
     inkscape:window-height="1000"
     inkscape:window-x="65"
     inkscape:window-y="24"
     inkscape:window-maximized="1"
     fit-margin-top="10"
     fit-margin-left="10"
     fit-margin-right="10"
     fit-margin-bottom="10" />
  <metadata
     id="metadata7">
    <rdf:RDF>
      <cc:Work
         rdf:about="">
        <dc:format>image/svg+xml</dc:format>
        <dc:type
           rdf:resource="http://purl.org/dc/dcmitype/StillImage" />
        <dc:title />
      </cc:Work>
    </rdf:RDF>
  </metadata>
  <g
     inkscape:label="Calque 1"
     inkscape:groupmode="layer"
     id="layer1"
     transform="translate(0,-752.36218)">
    <path
       style="fill:#000000"
       d="m 5.0004421,1037.3621 c -1.461e-4,0 -2.063e-4,-2e-4 -1.391e-4,-4e-4 4.4e-5,-10e-5 2.87e-5,-2e-4 -2.72e-5,-2e-4 -7.69e-5,0 -1.269e-4,0 -1.385e-4,0 -6.8e-6,10e-5 -1.78e-5,10e-5 -2.46e-5,10e-5 -9.3e-6,0 7e-6,10e-5 6.36e-5,10e-5 5.86e-5,0 7.1e-5,0 5.37e-5,0 -3.73e-5,10e-5 -1.646e-4,10e-5 -2.03e-4,0 -7.89e-5,-10e-5 2.21e-5,-2e-4 1.908e-4,-3e-4 6.61e-5,0 7.09e-5,0 6.05e-5,-10e-5 -8.5e-6,0 -2.7e-6,-10e-5 2.33e-5,-10e-5 4.7e-5,0 9.72e-5,0 9.72e-5,10e-5 0,10e-5 8e-6,10e-5 1.212e-4,10e-5 6.67e-5,0 1.588e-4,0 2.047e-4,0 7.17e-5,0 8.77e-5,0 1.134e-4,10e-5 3.69e-5,10e-5 1.59e-5,10e-5 -1.232e-4,2e-4 -5.21e-5,0 -1.171e-4,0 -1.444e-4,10e-5 -2.73e-5,0 -8.66e-5,0 -1.319e-4,0 -1.054e-4,1e-4 -1.053e-4,2e-4 2e-7,2e-4 5.99e-5,10e-5 9.96e-5,10e-5 2.425e-4,10e-5 9.4e-5,0 2.015e-4,0 2.39e-4,0 1.051e-4,-10e-5 1.062e-4,0 1.6e-6,0 -1.063e-4,10e-5 -3.627e-4,10e-5 -4.798e-4,0 z m 3.79e-5,-4e-4 c 4.93e-5,0 4.42e-5,-10e-5 -1.21e-5,-10e-5 -4.17e-5,0 -4.04e-5,0 -5.8e-5,10e-5 -1.68e-5,10e-5 2.2e-6,10e-5 7.01e-5,0 z m 2.159e-4,-10e-5 c 6.61e-5,-10e-5 7.56e-5,-10e-5 3.59e-5,-10e-5 -2.83e-5,-10e-5 -3.33e-4,-10e-5 -3.33e-4,0 0,0 3.86e-5,0 8.58e-5,0 4.72e-5,0 9.09e-5,10e-5 9.71e-5,10e-5 1.48e-5,0 4e-5,0 1.142e-4,0 z"
       id="path3223"
       inkscape:connector-curvature="0" />
    <path
       style="fill:#000000"
       d="m 5.000515,1017.3622 c -4.25e-5,0 -7.25e-5,0 -1.096e-4,0 -3.41e-5,-10e-5 -8.26e-5,-10e-5 -8.28e-5,-10e-5 -10e-8,0 -2.6e-6,0 -5.5e-6,0 -6.2e-6,0 -2.87e-5,-1e-4 -4.19e-5,-1e-4 -5.1e-6,0 -1.08e-5,0 -1.28e-5,-10e-5 -2e-6,0 -7.9e-6,0 -1.31e-5,0 -1.19e-5,0 -4.58e-5,-10e-5 -6.13e-5,-10e-5 -6.5e-6,0 -1.18e-5,0 -1.18e-5,0 0,0 -3.02e-5,-10e-5 -6.75e-5,-10e-5 -9.8e-6,0 -2.18e-5,0 -2.67e-5,0 -2.65e-5,0 -3.8e-5,10e-5 -1.72e-5,10e-5 1.28e-5,10e-5 3.97e-5,10e-5 6.99e-5,10e-5 2.39e-5,0 2.68e-5,0 1.13e-5,0 -2.27e-5,10e-5 -8.63e-5,0 -1.137e-4,0 -1.01e-5,-10e-5 -2.19e-5,-10e-5 -2.62e-5,-10e-5 -1.93e-5,0 1.02e-5,-10e-5 4.84e-5,-2e-4 2.62e-5,0 3.34e-5,0 7.02e-5,0 2.11e-5,0 3.82e-5,0 3.82e-5,-10e-5 0,0 9e-6,0 2e-5,0 1.09e-5,0 1.99e-5,0 1.99e-5,0 0,0 -8.8e-6,0 -1.97e-5,0 -1.08e-5,0 -1.97e-5,0 -1.99e-5,0 -2e-7,0 1.9e-6,-10e-5 1.79e-5,0 1.01e-5,0 1.98e-5,0 2.16e-5,0 1.9e-6,0 1.34e-5,0 2.56e-5,0 1.96e-5,0 2.62e-5,0 5.65e-5,0 7.3e-5,0 2.285e-4,0 2.734e-4,0 4.44e-5,0 1.004e-4,10e-5 1.138e-4,10e-5 2.52e-5,1e-4 2.92e-5,1e-4 1.41e-5,1e-4 -9.3e-6,0 -5.45e-5,10e-5 -6.48e-5,10e-5 -8.4e-6,0 -8.7e-6,0 -4e-7,0 3.4e-6,0 9.9e-6,-10e-5 1.44e-5,-10e-5 9.4e-6,0 3e-6,-1e-4 -2.43e-5,-1e-4 -2.28e-5,0 -8.94e-5,0 -1.302e-4,0 -3.12e-5,0 -3.28e-5,0 -2.85e-5,0 2.5e-6,0 8.4e-6,0 1.32e-5,0 4.7e-6,0 1.07e-5,0 1.31e-5,0 4.4e-6,0 7.5e-6,0 3.49e-5,1e-4 7.3e-6,0 1.55e-5,0 1.82e-5,10e-5 6.5e-6,0 4.41e-5,0 5.48e-5,10e-5 4.5e-6,0 8.3e-6,0 8.3e-6,0 0,0 3.8e-6,0 8.5e-6,0 4.7e-6,0 1.57e-5,0 2.44e-5,0 2.21e-5,10e-5 6.89e-5,10e-5 9.48e-5,10e-5 2.94e-5,0 1.248e-4,0 1.882e-4,0 2.72e-5,0 4.94e-5,0 4.94e-5,0 0,0 9e-6,0 2e-5,0 1.73e-5,0 1.99e-5,0 1.99e-5,0 0,0 -5.4e-6,0 -1.97e-5,1e-4 -1.08e-5,0 -2.35e-5,0 -2.82e-5,0 -4.7e-6,0 -1.54e-5,0 -2.37e-5,0 -8.3e-6,0 -2.64e-5,0 -4.02e-5,0 -1.38e-5,0 -3.24e-5,10e-5 -4.14e-5,10e-5 -8.9e-6,0 -1.77e-5,0 -1.95e-5,0 -1.36e-5,0 -2.117e-4,0 -2.599e-4,0 -8.7e-6,0 -3.23e-5,0 -5.24e-5,0 z m 1.396e-4,0 c 9.26e-5,-10e-5 9.51e-5,-10e-5 1.092e-4,-10e-5 1.1e-5,0 4.5e-6,0 -4.51e-5,0 -5.73e-5,0 -7.72e-5,0 -1.306e-4,0 -3.8e-5,0 -8.82e-5,0 -1.095e-4,-1e-4 -1.1e-5,0 -2.36e-5,0 -2.8e-5,0 -4.4e-6,0 -2.08e-5,0 -3.66e-5,-10e-5 -2.7e-5,0 -3.78e-5,0 -5.88e-5,-10e-5 -1.03e-5,0 -6.88e-5,-10e-5 -8.18e-5,-2e-4 -4.9e-6,0 -2.02e-5,0 -3.39e-5,0 -2.78e-5,0 -3.79e-5,0 -7.92e-5,0 -2.65e-5,0 -2.95e-5,0 -1.14e-5,0 6.9e-6,1e-4 1.89e-5,1e-4 2.66e-5,1e-4 7.7e-6,0 2.02e-5,0 2.77e-5,0 7.5e-6,0 1.82e-5,10e-5 2.39e-5,10e-5 1.35e-5,0 6.51e-5,10e-5 7.61e-5,10e-5 4.7e-6,0 1.02e-5,10e-5 1.22e-5,10e-5 2e-6,0 8.8e-6,0 1.5e-5,0 1.63e-5,0 3.44e-5,1e-4 4.02e-5,1e-4 2.7e-6,0 4.9e-6,0 4.9e-6,0 0,0 5.71e-5,0 9.52e-5,10e-5 5.7e-5,0 9.51e-5,0 1.839e-4,0 z m 1.361e-4,-10e-5 c 1.02e-5,0 7e-6,0 -1.32e-5,0 -2.59e-5,0 -7.16e-5,0 -8.08e-5,-1e-4 -2.5e-6,0 -10e-6,0 -1.67e-5,0 -6.7e-6,0 -1.22e-5,0 -1.22e-5,0 0,0 -3.9e-6,0 -8.8e-6,0 -1.01e-5,0 -6.76e-5,0 -9.99e-5,-10e-5 -3.72e-5,0 -8.2e-5,-10e-5 -1.172e-4,-2e-4 -1.36e-5,-1e-4 -1.73e-5,-1e-4 -3.25e-5,-1e-4 -3.4e-6,0 -7.8e-6,0 -9.8e-6,0 -4.4e-6,-10e-5 -2.72e-5,-10e-5 -8.83e-5,0 l -4.21e-5,0 3.23e-5,0 c 2.88e-5,0 7.4e-5,1e-4 7.4e-5,1e-4 0,0 2.3e-6,0 5.1e-6,0 5e-6,0 1.24e-5,10e-5 2.81e-5,10e-5 4.6e-6,0 1.69e-5,0 2.74e-5,10e-5 1.06e-5,0 1.92e-5,0 1.92e-5,0 0,0 5.98e-5,10e-5 8.34e-5,10e-5 3.35e-5,1e-4 8.04e-5,1e-4 1.258e-4,1e-4 4.6e-5,0 1.07e-4,0 1.262e-4,0 z"
       id="path3236"
       inkscape:connector-curvature="0" />
    <path
       style="fill:#000000"
       d="m 75.778314,1030.0224 c 0.92611,-9.7754 2.22276,-32.66636 2.88148,-50.86879 0.65872,-18.20244 1.73228,-42.47234 2.38571,-53.93313 0.65342,-11.46079 1.0612,-22.21677 0.90619,-23.90218 -0.98445,-10.70352 -0.1944,-32.3957 1.40619,-38.61122 3.32098,-12.89588 7.85185,-15.93479 23.757966,-15.93479 13.19074,0 14.58896,-0.52396 16.78058,-6.28836 1.31496,-3.45858 2.39083,-7.12194 2.39083,-8.14078 0,-1.01885 -9.48564,-1.35458 -21.0792,-0.74607 -19.617246,1.02963 -21.018306,0.78661 -20.201266,-3.50386 0.74766,-3.92599 3.78517,-4.79216 20.466326,-5.83599 19.1998,-1.20143 19.60378,-1.35948 20.36409,-7.96739 0.72923,-6.33768 0.20103,-6.74164 -8.81318,-6.74164 -6.06398,0 -10.97265,-1.57708 -13.35314,-4.29014 -4.796966,-5.46717 -8.169796,-31.34755 -4.389786,-33.68373 4.945076,-3.05622 9.583596,3.89909 10.332146,15.49275 l 0.73922,11.44934 16.54767,0.72489 c 12.17295,0.53325 16.6281,-0.11473 16.85187,-2.45151 0.16719,-1.74701 0.15518,-9.92612 -0.027,-18.17578 -0.22284,-10.0951 0.77365,-15.91628 3.04779,-17.80364 5.98317,-4.9656 9.39265,2.99172 9.2192,21.51652 -0.14807,15.81736 0.24628,17.15853 5.29251,17.99883 2.99888,0.4994 8.21046,-0.39641 11.58128,-1.99064 3.37082,-1.59424 9.1625,-4.32262 12.87041,-6.06304 6.11572,-2.87062 6.74164,-4.37778 6.74164,-16.23343 0,-7.18797 1.06437,-13.06903 2.36526,-13.06903 4.10755,0 7.44076,9.09219 7.44076,20.29668 0,11.21544 -3.74011,16.68909 -15.3388,22.44839 -3.02445,1.50179 -5.85152,5.18505 -6.28238,8.18504 -0.73579,5.1231 0.11694,5.45452 14.03321,5.45452 13.71078,0 15.06855,0.50315 18.19257,6.74164 2.3548,4.70236 2.73561,9.10458 1.25897,14.55327 -2.21437,8.17092 -4.02341,9.18785 -21.05672,11.83683 -8.05998,1.25345 -10.4189,2.6816 -10.4189,6.30784 0,3.0802 1.71079,4.68753 4.98926,4.68753 5.46968,0 16.58696,6.38411 21.28647,12.22382 4.8193,5.98854 3.81256,21.42704 -1.76067,27.00027 -2.69665,2.69666 -4.90301,5.97952 -4.90301,7.29526 0,4.48045 8.5639,16.49116 16.54987,23.21091 8.77862,7.38673 10.09417,12.2794 3.93705,14.64211 -2.21548,0.85016 -4.25104,1.24399 -4.5235,0.87516 -7.09279,-9.60188 -20.86643,-31.66664 -20.86643,-33.42711 0,-3.65113 -5.61206,-4.84553 -10.62659,-2.26164 -3.66736,1.88972 -4.3463,4.65752 -3.67726,14.99064 0.45132,6.97015 2.08692,13.77619 3.63468,15.12452 1.57068,1.3683 2.05205,4.47836 1.08944,7.03871 -1.59877,4.25248 -2.01018,4.15138 -5.63816,-1.38562 -4.39394,-6.70599 -9.26277,-22.63217 -9.28349,-30.36677 -0.007,-3.09623 2.63642,-6.46906 6.72796,-8.58027 3.70791,-1.91326 8.20664,-4.86485 9.99719,-6.55908 1.79054,-1.69424 5.43583,-4.24728 8.10064,-5.67345 3.86112,-2.0664 4.69358,-4.67703 4.09899,-12.85435 -0.72695,-9.99743 -0.99043,-10.28137 -10.24457,-11.0404 -7.42015,-0.60861 -10.9067,0.55438 -15.93479,5.31526 -3.54,3.35189 -9.74589,6.40431 -13.79087,6.78317 -11.38828,1.06667 -26.62309,-2.99932 -30.20172,-8.06043 -3.14099,-4.44221 -3.4442,-4.42649 -10.4189,0.53992 -5.1474,3.66527 -7.18375,7.15271 -7.18375,12.30285 l 0,7.1876 15.79579,0 c 13.54383,0 16.33983,0.77676 19.61205,5.44849 4.46304,6.37188 5.00237,15.59264 1.05476,18.0324 -1.79362,1.10852 -2.30471,6.74429 -1.45823,16.07947 0.97413,10.74275 0.50837,14.37277 -1.8441,14.37277 -4.18994,0 -8.76131,-11.72994 -8.01652,-20.57007 0.79559,-9.44325 -3.19198,-10.35286 -11.52598,-2.62917 -6.24504,5.78771 -6.74742,7.52154 -5.73098,19.77865 0.61278,7.38916 0.41524,13.86677 -0.43899,14.39473 -4.10747,2.53853 -7.85051,-4.10946 -9.06868,-16.10686 -1.13052,-11.13405 -0.4994,-14.32226 3.94636,-19.93621 2.91064,-3.67545 9.67626,-7.99618 15.03471,-9.60162 13.60314,-4.07558 10.6707,-8.09835 -6.52299,-8.94831 -12.97876,-0.64159 -14.83869,-1.4066 -17.57884,-7.23038 -5.47443,-11.63506 -3.7586,-16.61235 9.80602,-28.44521 11.35565,-9.9059 12.43762,-11.6436 9.19315,-14.76466 -3.01714,-2.90239 -6.20773,-3.06536 -17.77342,-0.90784 -12.746236,2.37771 -14.117466,3.23589 -14.318656,8.96128 -0.12233,3.48244 -0.64779,23.98257 -1.16753,45.55582 -1.91757,79.5914 -6.27164,129.36141 -11.80074,134.89051 -6.30939,6.3095 -7.17436,4.0624 -5.4486,-14.1538 z M 165.67252,871.20111 c 3.28744,-1.7594 4.74184,-5.14302 4.74184,-11.03178 l 0,-8.49403 -17.16054,0 c -15.65333,0 -17.16054,0.44042 -17.16054,5.01444 0,12.07457 17.80811,20.81107 29.57924,14.51137 z m -1.54651,-26.81965 c 4.83721,-1.83909 6.28835,-4.10201 6.28835,-9.80602 l 0,-7.41519 -16.89825,0 c -13.10519,0 -17.23031,0.86528 -18.37752,3.85484 -2.63434,6.865 2.8576,12.95167 12.60663,13.9718 5.05223,0.52866 9.38983,1.14664 9.63915,1.3733 0.24931,0.22677 3.28305,-0.66377 6.74164,-1.97873 z m 38.15793,-7.2705 c 0,-2.61708 1.1692,-5.48093 2.5982,-6.36411 1.65943,-1.02559 1.11147,-2.69291 -1.5165,-4.61452 -4.23588,-3.09736 -20.99739,-1.77514 -20.79999,1.64079 0.0583,1.01125 0.10615,4.59658 0.10615,7.9674 0,5.51588 0.9806,6.12876 9.80602,6.12876 8.07229,0 9.80602,-0.84128 9.80602,-4.75832 z m -32.31195,-24.04687 c 0.74305,-5.23198 -0.0321,-5.51589 -15.05962,-5.51589 -12.22076,0 -16.18504,0.89132 -17.33901,3.89848 -2.62988,6.85341 1.03762,8.59922 16.50689,7.85762 13.54192,-0.64923 15.18958,-1.29621 15.89174,-6.24021 z m 35.55142,216.42241 c -8.9631,-9.3932 -16.50167,-23.2265 -24.08938,-44.20413 -5.99374,-16.57073 -9.83821,-18.42228 -28.06209,-13.51508 l -10.06164,2.70931 0.80049,11.53166 c 0.44026,6.34239 2.75399,15.21004 5.14161,19.70574 8.6243,16.2392 3.75054,35.0875 -5.81016,22.4698 -8.50955,-11.2306 -13.30364,-55.07132 -6.49686,-59.41213 8.32132,-5.3067 30.39078,-9.23011 51.91988,-9.23011 20.89987,0 23.45034,0.45149 20.7732,3.67726 -1.75258,2.11175 -7.09878,3.67726 -12.55772,3.67726 -6.85919,0 -9.50583,1.03458 -9.50583,3.71587 0,5.94433 5.91852,23.25069 7.95141,23.25069 1.02002,0 1.85461,1.56587 1.85461,3.47969 0,1.91383 5.51589,9.51497 12.25753,16.89147 12.51295,13.6911 15.9618,23.9015 7.96739,23.5874 -2.35957,-0.093 -7.79667,-3.8432 -12.08244,-8.3347 z"
       id="path3392"
       inkscape:connector-curvature="0" />
  </g>
</svg>
