<?xml version="1.0" encoding="UTF-8" standalone="no"?>
<!-- Created with Inkscape (http://www.inkscape.org/) -->

<svg
   xmlns:dc="http://purl.org/dc/elements/1.1/"
   xmlns:cc="http://creativecommons.org/ns#"
   xmlns:rdf="http://www.w3.org/1999/02/22-rdf-syntax-ns#"
   xmlns:svg="http://www.w3.org/2000/svg"
   xmlns="http://www.w3.org/2000/svg"
   xmlns:sodipodi="http://sodipodi.sourceforge.net/DTD/sodipodi-0.dtd"
   xmlns:inkscape="http://www.inkscape.org/namespaces/inkscape"
   width="300"
   height="300"
   id="svg2"
   version="1.1"
   inkscape:version="0.92.4 (5da689c313, 2019-01-14)"
   sodipodi:docname="image-bigseal.svg">
  <defs
     id="defs4" />
  <sodipodi:namedview
     id="base"
     pagecolor="#ffffff"
     bordercolor="#666666"
     borderopacity="1.0"
     inkscape:pageopacity="0.0"
     inkscape:pageshadow="2"
     inkscape:zoom="1.4142136"
     inkscape:cx="534.63951"
     inkscape:cy="87.146149"
     inkscape:document-units="px"
     inkscape:current-layer="layer1"
     showgrid="false"
     inkscape:window-width="1872"
     inkscape:window-height="1016"
     inkscape:window-x="48"
     inkscape:window-y="27"
     inkscape:window-maximized="1" />
  <metadata
     id="metadata7">
    <rdf:RDF>
      <cc:Work
         rdf:about="">
        <dc:format>image/svg+xml</dc:format>
        <dc:type
           rdf:resource="http://purl.org/dc/dcmitype/StillImage" />
        <dc:title />
      </cc:Work>
    </rdf:RDF>
  </metadata>
  <g
     inkscape:label="Calque 1"
     inkscape:groupmode="layer"
     id="layer1"
     transform="translate(0,-752.36218)">
    <path
       style="fill:#000000;stroke-width:6.17211008"
       d="m 123.82701,879.39298 c -7.45685,-6.63055 -16.14498,-7.89421 -16.14498,-7.89421 0,0 4.58498,8.89895 4.58498,13.8584 0,20.42572 -10.93769,21.24811 -16.056983,1.20732 l -3.840815,-15.03583 c -18.198845,2.1588 -31.536721,28.80007 -40.178904,22.02717 -5.582549,-5.48515 15.015558,-27.37914 30.219108,-32.12034 2.815699,-0.87806 9.207727,-3.30995 9.207727,-3.30995 l -2.863916,-13.41305 c 0,0 -4.532387,-6.34516 -9.642305,-7.02768 -5.109918,-0.68252 -6.966408,-2.82265 -17.668177,6.69328 C 51.517014,853.20391 50,853.30981 50,845.17673 c 0,-13.33111 16.537244,-25.08801 30.310962,-21.54893 3.49197,0.89722 9.767406,3.10606 9.767406,3.10606 0,0 0.844716,-7.33978 -0.536719,-12.53007 -0.83346,-3.13151 2.429888,-16.2779 2.429888,-16.2779 0,0 -15.148632,8.16311 -24.911059,10.0815 -8.535668,1.67733 -13.367081,1.40204 -14.808231,-0.1412 -2.543672,-2.72385 5.474452,-9.39774 22.327847,-16.25681 5.958269,-2.42489 15.69684,-6.51868 15.69684,-6.51868 0,0 1.950187,-8.23014 1.56021,-11.10243 -0.749941,-5.52351 1.408916,-10.7076 4.797483,-11.52007 3.388573,-0.81247 6.190593,3.1348 6.226703,8.77174 0.0249,3.66188 2.7152,12.27221 2.7152,12.27221 0,0 12.18286,1.76512 17.58722,3.14545 14.9259,3.81223 21.72177,9.73242 19.85745,12.99387 -1.36794,2.39308 -7.3984,3.35475 -18.30079,1.00197 -9.5993,-2.07155 -17.60495,-5.1285 -17.60495,-5.1285 0,0 -1.07515,10.93796 -1.07515,17.6275 0,7.22013 -0.10855,12.96318 -0.10855,12.96318 15.35464,-11.64632 45.27184,0.18906 48.70164,14.8107 1.53609,7.44325 -10.46246,3.92186 -15.58746,-1.11367 -4.37138,-6.08014 -23.25459,-12.57999 -33.2326,-1.68685 0,0 0.22697,5.80602 0.22697,8.22057 0,1.2706 0.99967,10.16922 0.99967,10.16922 0,0 14.23546,3.76422 20.79378,7.56618 19.7282,11.43668 29.2185,36.33888 10.12711,30.72961 -9.99823,-2.9376 -9.99508,-11.73824 -14.13386,-15.4184 z m 19.60719,37.64923 c 6.30909,27.48523 1.78116,44.34764 -13.15938,49.00681 -5.6677,1.76746 -14.98605,3.50007 -14.98605,3.50007 0,0 6.06498,18.84959 15.06014,42.10961 11.50526,29.7509 9.42243,39.2973 -4.87961,22.3652 h 2.5e-4 c -3.85153,-4.5597 -10.76957,-18.9808 -15.3736,-32.0469 -3.85071,-10.92848 -8.48915,-28.03399 -8.48915,-28.03399 0,0 -12.119733,5.26365 -24.187459,6.2362 -12.138901,0.97827 -18.255114,-0.8682 -18.435261,-3.53021 -0.189148,-2.79501 6.165784,-6.48909 18.964531,-8.75657 6.810079,-1.20646 19.348016,-5.7185 19.348016,-5.7185 l -5.317162,-19.95365 c 0,0 -9.35072,2.82998 -16.200481,4.17602 -10.488201,2.06097 -20.764808,1.05205 -22.836871,-2.24218 -2.072115,-3.29418 4.824261,-7.67778 15.325285,-9.74138 8.963687,-1.76142 20.549012,-6.34527 20.549012,-6.34527 0,0 -1.456204,-6.35682 -1.456204,-8.87784 0,-6.30919 2.802017,-11.47125 6.226705,-11.47125 3.424686,0 6.226706,4.42423 6.226706,9.83156 0,3.07001 1.758053,7.11051 1.758053,7.11051 0,0 4.7036,0.28475 8.09127,-0.99251 5.41711,-2.04249 21.07468,-3.96356 21.07468,-3.96356 0,0 -2.65635,-17.79733 6.19277,-20.71449 7.26194,-2.39392 4.54136,9.50292 6.50381,18.05232 z m 30.28039,-91.5319 c 5.873,-5.41207 17.62195,-11.81085 17.62195,-11.81085 0,0 1.87759,-17.7255 1.87759,-26.42663 0,-11.14761 2.80202,-20.26838 6.22671,-20.26838 3.42468,0 6.26138,8.94757 6.30379,19.88349 0.0319,8.18105 1.33775,21.31666 1.33775,21.31666 0,0 11.97136,6.98856 20.4557,12.38855 11.944,7.60198 21.71637,16.54955 21.71637,19.88349 0,8.38851 -7.17747,7.27982 -21.4269,-3.30977 -10.34133,-7.68525 -21.10876,-12.41447 -21.10876,-12.41447 l 0.94593,31.80434 c 0,0 18.48175,12.38129 27.96347,22.10116 26.50382,27.16953 13.15807,32.67916 -14.15442,5.84348 l -17.40282,-17.09901 -17.40283,17.09901 c -9.57156,9.40446 -20.33248,17.09901 -23.91308,17.09901 -10.43009,0 -0.97031,-16.75628 15.4152,-27.30499 7.59722,-4.89099 18.51255,-15.97826 18.51255,-15.97826 0,0 -1.43312,-10.03455 -1.43312,-13.86797 0,-9.30689 -2.26261,-17.0153 -2.26261,-17.0153 0,0 -5.88961,4.29294 -11.15994,8.97932 -6.3581,5.65355 -18.34581,13.13933 -22.32394,5.44346 -2.9781,-5.76126 6.87248,-9.5834 14.21141,-16.34634 z m -42.56188,118.85921 c 0.61428,-3.11103 0.0728,-11.34537 0.0728,-11.34537 0,0 -7.09131,2.06235 -12.36894,3.41835 -6.30257,1.6194 -12.84597,4.15985 -12.84597,4.15985 l 5.71028,17.85883 c 0,0 17.28862,-3.23754 19.43186,-14.09166 z m 47.16111,33.20544 c -6.1115,-15.64831 -4.32762,-68.80165 2.44716,-72.91557 7.05585,-4.28462 7.75243,0.33587 6.29394,41.7489 -1.02067,28.98163 -0.72235,29.47731 16.57013,27.53099 17.27175,-1.94393 17.57854,-2.65668 15.99615,-37.16041 -0.88736,-19.34817 0.88737,-35.17848 3.94381,-35.17848 13.3506,0 18.2144,66.07755 5.76424,78.31036 -11.05738,10.86434 -46.49372,9.24191 -51.01543,-2.33579 z"
       id="path229"
       inkscape:connector-curvature="0"
       sodipodi:nodetypes="scsccccccccscccccsccssccssccsccccsccsscscccccccscccccccssscccscccsscccssccsscssccsccscccccccscsccsss" />
  </g>
</svg>
