<?xml version="1.0" encoding="UTF-8" standalone="no"?>
<!-- Created with Inkscape (http://www.inkscape.org/) -->

<svg
   xmlns:dc="http://purl.org/dc/elements/1.1/"
   xmlns:cc="http://creativecommons.org/ns#"
   xmlns:rdf="http://www.w3.org/1999/02/22-rdf-syntax-ns#"
   xmlns:svg="http://www.w3.org/2000/svg"
   xmlns="http://www.w3.org/2000/svg"
   xmlns:sodipodi="http://sodipodi.sourceforge.net/DTD/sodipodi-0.dtd"
   xmlns:inkscape="http://www.inkscape.org/namespaces/inkscape"
   width="300"
   height="300"
   viewBox="0 0 300 300"
   id="svg2"
   version="1.1"
   inkscape:version="0.91 r13725"
   sodipodi:docname="黄-seal.svg">
  <defs
     id="defs4" />
  <sodipodi:namedview
     id="base"
     pagecolor="#ffffff"
     bordercolor="#666666"
     borderopacity="1.0"
     inkscape:pageopacity="0.0"
     inkscape:pageshadow="2"
     inkscape:zoom="1.2432572"
     inkscape:cx="133.16179"
     inkscape:cy="151.18248"
     inkscape:document-units="px"
     inkscape:current-layer="layer1"
     showgrid="false"
     units="px"
     inkscape:window-width="985"
     inkscape:window-height="605"
     inkscape:window-x="98"
     inkscape:window-y="14"
     inkscape:window-maximized="0" />
  <metadata
     id="metadata7">
    <rdf:RDF>
      <cc:Work
         rdf:about="">
        <dc:format>image/svg+xml</dc:format>
        <dc:type
           rdf:resource="http://purl.org/dc/dcmitype/StillImage" />
        <dc:title></dc:title>
      </cc:Work>
    </rdf:RDF>
  </metadata>
  <g
     inkscape:label="Layer 1"
     inkscape:groupmode="layer"
     id="layer1"
     transform="translate(0,-752.36216)">
    <path
       style="fill:#000000"
       d="m 203.06017,1024.4449 c -19.26147,-14.0847 -36.09154,-32.82099 -43.41714,-48.33462 -3.74516,-7.93122 -7.54043,-13.9686 -8.43392,-13.41639 -0.8935,0.55221 -4.50377,6.51044 -8.02283,13.24052 -3.51906,6.73007 -10.15843,16.1893 -14.75416,21.0205 -19.90328,20.92279 -24.13249,24.84689 -30.371953,28.18069 -6.10582,3.2624 -6.6,3.1899 -6.6,-0.968 0,-2.4719 2.27287,-7.0896 5.05083,-10.2616 2.77796,-3.172 9.527963,-11.0383 15.000003,-17.48079 5.47204,-6.4425 11.15504,-12.97125 12.62889,-14.50835 1.47384,-1.53709 5.50176,-8.0959 8.95091,-14.57512 6.33761,-11.90516 5.6512,-15.47183 -2.99577,-15.56626 -1.85082,-0.0202 -8.02389,-3.54675 -13.71793,-7.83675 -7.91205,-5.9611 -11.17995,-10.55942 -13.8613,-19.50451 -7.635563,-25.47257 5.10687,-54.29549 24.00369,-54.29549 13.34702,0 15.34247,-1.83065 15.32219,-14.05677 -0.0173,-10.41715 -0.62367,-11.48874 -9.30636,-16.44589 -7.31461,-4.17609 -9.97146,-7.61786 -12.50547,-16.2 l -3.21759,-10.89734 -18.217343,0 c -12.52264,0 -19.67363,-1.12535 -22.87604,-3.6 -4.61162,-3.56361 -4.61162,-3.63639 0,-7.2 3.22865,-2.49493 10.41161,-3.6 23.4,-3.6 l 18.741293,0 0,-10.87532 c 0,-7.36873 1.14088,-11.31313 3.53832,-12.23311 5.50213,-2.11136 10.86168,5.08227 10.86168,14.57865 l 0,8.61307 16.84664,-0.34629 c 17.13074,-0.35213 20.1146,-1.87468 20.65009,-10.537 0.1632,-2.64 0.4332,-7.23 0.6,-10.2 0.1668,-2.97 1.21802,-5.4 2.33604,-5.4 4.62409,0 12.00704,9.08513 12.75971,15.70153 l 0.80752,7.09847 18.24447,-0.53479 c 17.11802,-0.50177 18.4047,-0.18314 20.83945,5.16055 1.42723,3.13244 1.94722,6.3431 1.15552,7.13479 -0.79169,0.7917 -10.43944,1.43945 -21.43944,1.43945 l -20,0 0,8.62951 c 0,11.83108 -7.6958,21.87273 -19.1207,24.94914 -9.02125,2.42917 -9.2793,2.79792 -9.2793,13.26 0,6.44093 1.12413,10.87249 2.8,11.03819 1.54,0.15226 3.88,0.49805 5.2,0.76842 1.32,0.27037 6.73365,1.32283 12.03033,2.3388 19.6179,3.76298 23.49941,11.00302 23.06032,43.01366 -0.19313,14.08038 -1.46965,25.33106 -3.09648,27.29127 -5.77213,6.95499 -16.77663,13.12039 -25.30671,14.17839 -4.86908,0.60391 -9.21609,1.46125 -9.66002,1.90518 -0.44394,0.44393 0.53219,3.91672 2.16916,7.7173 3.03904,7.05576 16.93485,21.54018 35.83456,37.35251 29.6666,24.8204 29.89277,25.0706 26.42935,29.2438 -4.8251,5.8139 -9.75553,4.7491 -23.06051,-4.98 z m -62.4,-100.30617 0,-12 -13.12243,0.72243 c -7.21734,0.39733 -13.55704,1.15704 -14.08823,1.68823 -2.17944,2.17943 2.42743,13.39064 7.40983,18.03245 3.50302,3.26356 7.82914,4.73179 12.57095,4.26643 6.98125,-0.68514 7.22988,-1.12221 7.22988,-12.70954 z m 29.81324,10.50548 c 7.69926,-2.68398 12.18676,-9.74921 12.18676,-19.18714 0,-4.24542 -1.38377,-4.68952 -12.6,-4.04376 l -12.6,0.72542 -0.72543,12.6 c -0.80048,13.90374 0.19999,14.62508 13.73867,9.90548 z m -28.61324,-45.30548 c 0,-10.8097 -2.25631,-11.73002 -15.34757,-6.26014 -5.43851,2.27235 -8.3759,5.34075 -9.1901,9.6 -1.16939,6.11723 -0.90297,6.26014 11.67048,6.26014 l 12.86719,0 0,-9.6 z m 40.13245,6.90755 c 6.57026,-6.57026 -3.41736,-16.50755 -16.59117,-16.50755 -9.06483,0 -9.14128,0.0803 -9.14128,9.6 l 0,9.6 11.52,0 c 6.336,0 12.7316,-1.2116 14.21245,-2.69245 z m -13.67305,-75.46379 c 4.65001,-12.23046 3.69857,-13.04376 -15.2594,-13.04376 -9.68,0 -18.10699,0.50699 -18.72665,1.12664 -0.61965,0.61966 -0.68149,4.93966 -0.13742,9.6 l 0.98922,8.47336 15.39682,0 c 14.31917,0 15.56066,-0.43089 17.73743,-6.15624 z m -98.459403,56.31914 c 0,-4.56067 14.18837,-16.12298 23.48437,-19.13775 4.9036,-1.59028 11.782353,-4.90151 15.286123,-7.35828 8.39582,-5.88699 18.82951,-5.96837 18.82951,-0.14687 0,5.52929 -4.55072,10.08 -10.08,10.08 -2.376,0 -4.32,1.08 -4.32,2.4 0,1.32 -2.09626,2.4 -4.65836,2.4 -2.5621,0 -5.33538,1.09543 -6.16284,2.4343 -4.746053,7.67926 -32.378803,15.64049 -32.378803,9.3286 z m 145.200003,-5.30404 c -2.64,-1.57237 -5.34,-3.39886 -6,-4.05886 -0.66,-0.66 -7.65881,-4.593 -15.55291,-8.74001 -14.02472,-7.3676 -20.58031,-13.52677 -17.58524,-16.52185 0.82064,-0.82064 4.74844,0.19186 8.72843,2.24999 3.98,2.05813 12.45036,5.46135 18.82304,7.56271 25.07093,8.267 30.3071,12.39746 24.53422,19.35336 -3.27428,3.94525 -6.51812,3.984 -12.94754,0.15465 z"
       id="path3752"
       inkscape:connector-curvature="0" />
  </g>
</svg>
