<?xml version="1.0" encoding="UTF-8" standalone="no"?>
<!-- Created with Inkscape (http://www.inkscape.org/) -->

<svg
   xmlns:dc="http://purl.org/dc/elements/1.1/"
   xmlns:cc="http://creativecommons.org/ns#"
   xmlns:rdf="http://www.w3.org/1999/02/22-rdf-syntax-ns#"
   xmlns:svg="http://www.w3.org/2000/svg"
   xmlns="http://www.w3.org/2000/svg"
   xmlns:sodipodi="http://sodipodi.sourceforge.net/DTD/sodipodi-0.dtd"
   xmlns:inkscape="http://www.inkscape.org/namespaces/inkscape"
   width="300"
   height="300"
   id="svg2"
   version="1.1"
   inkscape:version="0.92.4 (5da689c313, 2019-01-14)"
   sodipodi:docname="image-bigseal.svg">
  <defs
     id="defs4" />
  <sodipodi:namedview
     id="base"
     pagecolor="#ffffff"
     bordercolor="#666666"
     borderopacity="1.0"
     inkscape:pageopacity="0.0"
     inkscape:pageshadow="2"
     inkscape:zoom="1.4"
     inkscape:cx="188.87961"
     inkscape:cy="190.47153"
     inkscape:document-units="px"
     inkscape:current-layer="layer1"
     showgrid="false"
     inkscape:window-width="1872"
     inkscape:window-height="1016"
     inkscape:window-x="48"
     inkscape:window-y="27"
     inkscape:window-maximized="1" />
  <metadata
     id="metadata7">
    <rdf:RDF>
      <cc:Work
         rdf:about="">
        <dc:format>image/svg+xml</dc:format>
        <dc:type
           rdf:resource="http://purl.org/dc/dcmitype/StillImage" />
        <dc:title />
      </cc:Work>
    </rdf:RDF>
  </metadata>
  <g
     inkscape:label="Calque 1"
     inkscape:groupmode="layer"
     id="layer1"
     transform="translate(0,-752.36218)">
    <path
       style="fill:#000000;stroke-width:6.00277996"
       d="m 103.66164,1026.5165 c -2.52417,-9.0792 -3.61193,-32.71516 -2.41738,-52.52434 1.19461,-19.80917 2.51294,-48.84762 2.92966,-64.52988 0.41659,-15.68227 2.75227,-28.51321 5.19006,-28.51321 7.2037,0 12.28049,28.75824 8.05135,45.60834 -2.83781,11.30672 -1.77886,14.88912 3.85132,13.0291 4.27092,-1.41095 9.32904,-11.80501 11.24033,-23.09792 2.72766,-16.1168 4.48059,-18.27048 8.15081,-10.01426 7.92595,17.82922 -1.33411,39.95343 -18.52866,44.26901 -15.63286,3.92359 -15.70255,4.20308 -11.99073,48.11364 3.87107,45.79432 1.44517,56.15432 -6.47676,27.65952 z m -28.01245,1.0097 c -6.24794,-16.2817 -3.98783,-61.61696 3.29618,-66.11869 4.92036,-3.041 5.90338,0.89316 3.37801,13.51977 -1.95895,9.79485 -1.31443,27.77302 1.4322,39.95142 4.92468,21.8353 -1.02107,31.1117 -8.10639,12.6475 z m 56.2356,-5.9026 c -7.44231,-19.5747 -7.81592,-67.11574 -0.46641,-59.33686 2.96333,3.13645 6.57808,16.50765 8.03268,29.71376 1.45459,13.2061 4.72154,28.7383 7.25982,34.516 2.87113,6.5352 2.04791,10.5049 -2.17847,10.5049 -3.73643,0 -9.42797,-6.929 -12.6478,-15.3978 z m 44.89653,-41.35583 c -12.39394,-12.39394 -14.73406,-20.49769 -14.73406,-51.02363 0,-20.19113 2.66289,-36.28951 6.00278,-36.28951 3.30153,0 6.00278,5.4025 6.00278,12.00556 0,8.00369 4.00187,12.00556 12.00556,12.00556 11.32665,0 12.06091,-4.328 12.98401,-76.53544 0.68192,-53.34185 2.04623,-66.53037 4.50209,-43.52016 l 3.52363,33.01529 24.01112,3.42195 24.01112,3.42194 -24.01112,2.58084 -24.01112,2.58083 -1.78715,37.51738 c -1.74681,36.6717 -1.44241,37.51737 13.50626,37.51737 11.29153,0 15.2934,-3.14149 15.2934,-12.00556 0,-6.60306 3.01592,-12.00556 6.7021,-12.00556 4.51547,0 5.8748,12.99134 4.16647,39.82016 -2.07198,32.54041 -5.0649,41.86831 -16.37126,51.02363 -18.70226,15.14416 -34.17659,14.08936 -51.79661,-3.53065 z m 51.08534,-8.88237 c 3.41768,-6.386 6.21396,-18.54163 6.21396,-27.01251 0,-14.48003 -1.79585,-15.40158 -30.0139,-15.40158 -28.21805,0 -30.0139,0.92155 -30.0139,15.40158 0,25.08741 10.51873,38.62344 30.0139,38.62344 11.24315,0 19.82718,-4.18778 23.79994,-11.61093 z M 68.19319,944.55285 c 6.157,-4.90025 13.2066,-17.83918 15.6657,-28.7532 3.44289,-15.28013 5.47051,-17.51167 8.81676,-9.70337 6.023127,14.05455 -9.23245,43.35496 -23.71716,45.55203 -11.58441,1.75714 -11.60842,1.53438 -0.7653,-7.09546 z m 12.81654,-72.79403 c 9.90459,-8.11864 20.03428,-14.77465 22.51042,-14.79103 2.47615,-0.018 4.50209,-5.65264 4.50209,-12.52498 0,-12.47402 -0.036,-12.47234 -21.84532,1.006 -14.00965,8.65841 -20.86986,10.57492 -19.12593,5.34308 1.49565,-4.48696 11.26469,-12.36807 21.70899,-17.51365 23.01526,-11.3389 23.98014,-16.86313 4.25531,-24.36253 -9.52989,-3.62328 -15.00695,-10.37592 -15.00695,-18.50201 0,-8.90836 -2.73583,-11.74654 -9.00417,-9.3411 C 64.05188,782.97296 60,782.1208 60,779.17896 c 0,-7.4375 40.58798,-20.11928 51.27118,-16.01974 5.0089,1.92209 8.75662,11.14824 8.75662,21.55701 0,23.2448 14.76864,24.32764 23.03699,1.68906 l 6.02907,-16.50765 0.47362,16.65622 c 0.35476,12.47491 -3.29336,18.08853 -14.53303,22.36185 -8.25382,3.13808 -15.00695,6.95026 -15.00695,8.47149 0,1.52128 10.805,8.83867 24.01112,16.26093 13.20612,7.42219 24.01112,15.69883 24.01112,18.39239 0,7.12999 -3.00163,6.26324 -26.66939,-7.70108 -20.37734,-12.02291 -21.35285,-12.08528 -21.35285,-1.36503 0,6.68121 8.51392,15.81852 21.00973,22.54794 11.55535,6.22296 21.00973,13.81546 21.00973,16.87219 0,3.0568 -2.02594,4.58691 -4.50209,3.40022 -2.47614,-1.18663 -14.391,-7.19968 -26.47742,-13.36237 -21.75257,-11.09134 -22.14101,-11.07453 -38.32685,1.65731 -22.82263,17.95227 -33.81222,15.76876 -11.73117,-2.33088 z m 30.0139,-83.85284 c 0,-6.51265 -4.72719,-12.75152 -10.50487,-13.8642 -7.86814,-1.51528 -10.50486,1.96465 -10.50486,13.8642 0,11.89955 2.63672,15.37948 10.50486,13.8642 5.77768,-1.11267 10.50487,-7.35154 10.50487,-13.8642 z"
       id="path55"
       inkscape:connector-curvature="0" />
  </g>
</svg>
