<?xml version="1.0" encoding="UTF-8" standalone="no"?>
<svg
   xmlns:dc="http://purl.org/dc/elements/1.1/"
   xmlns:cc="http://creativecommons.org/ns#"
   xmlns:rdf="http://www.w3.org/1999/02/22-rdf-syntax-ns#"
   xmlns:svg="http://www.w3.org/2000/svg"
   xmlns="http://www.w3.org/2000/svg"
   version="1.1"
   id="svg115"
   width="300"
   height="300"
   viewBox="0 0 300 300">
  <metadata
     id="metadata121">
    <rdf:RDF>
      <cc:Work
         rdf:about="">
        <dc:format>image/svg+xml</dc:format>
        <dc:type
           rdf:resource="http://purl.org/dc/dcmitype/StillImage" />
        <dc:title></dc:title>
      </cc:Work>
    </rdf:RDF>
  </metadata>
  <defs
     id="defs119" />
  <path
     style="fill:#000000;stroke-width:0.69292623"
     d="m 185.38878,259.43432 c -8.15709,-10.49181 -17.41438,-22.90654 -20.57175,-27.58829 -6.64096,-10.63211 -12.72787,-21.39698 -17.40786,-32.88802 -8.15914,16.38647 -20.46887,32.13607 -30.83667,43.87449 -9.63592,10.88855 -20.187357,23.0494 -23.447635,27.02413 -2.919267,3.15883 -14.205524,15.90799 -17.887456,9.56645 -1.758206,-3.02823 0.449854,-7.46659 7.148291,-14.4659 17.254686,-18.02965 31.08294,-34.94694 41.5635,-50.84825 15.21072,-23.07795 19.73169,-36.68647 18.85332,-56.75023 -0.51408,-11.74281 0.14498,-15.38913 3.34152,-18.48736 2.21541,-2.14724 2.44611,-2.21519 4.83935,-1.42535 4.49107,1.48219 4.74073,2.46178 4.64444,18.2234 -0.10614,17.37374 0.76088,31.11676 2.39209,37.9164 2.96382,12.35467 18.30256,37.66984 36.24882,59.82541 12.32865,15.22033 15.23439,19.33396 16.67939,23.61286 2.04737,6.06259 1.95402,7.16239 -1.28092,7.9183 -5.54228,1.29509 -19.68914,-19.60435 -24.27843,-25.50804 z m 25.23108,-30.50721 c -13.78797,-15.84367 -20.86423,-30.04583 -24.99303,-50.1613 -2.18758,-10.65777 -2.2274,-17.08259 -0.13164,-21.23859 1.83117,-3.63133 3.30324,-3.78495 6.21235,-0.6483 2.35076,2.53464 3.66298,7.10971 4.9634,17.30494 3.74092,19.98051 10.04032,34.49888 24.01346,48.85129 6.73954,6.92248 8.89665,12.67572 5.14113,14.09376 -6.44651,2.43412 -11.90968,-4.4315 -15.20567,-8.2018 z m -143.610293,3.63578 c -1.199812,-3.51468 -0.251495,-6.02504 10.404726,-16.027 15.31266,-14.37252 19.769765,-28.58385 25.151177,-45.4702 2.98161,-5.07693 5.89042,-21.70209 9.20649,-22.38992 2.99393,-0.621 5.39073,2.21701 6.02939,6.4759 0.36799,2.45393 0.0121,5.65969 -1.36945,12.33695 -5.029,20.60557 -13.41963,38.29125 -24.30951,50.71182 -5.645405,6.43893 -14.004927,16.0219 -21.931634,16.26123 -2.1429,0.0647 -2.630123,-0.2845 -3.181189,-1.89878 z M 215.8107,157.28725 c -2.47721,-0.89265 -14.25469,-5.71092 -25.59933,-11.82788 -17.01764,-9.1758 -28.16934,-17.62351 -39.84946,-27.40253 -0.20183,0 -3.16523,2.27765 -6.58535,5.06147 -16.81498,13.02888 -49.392492,24.68502 -66.384026,26.37826 -4.801866,0.10346 -6.749719,-0.15063 -7.386182,-4.46814 -1.207279,-4.12666 1.309561,-4.62418 4.942742,-5.69201 18.683238,-5.49127 41.606846,-10.12392 58.187576,-22.09067 7.00267,-5.13101 9.18044,-9.37855 9.99333,-19.491012 0.75379,-9.377179 1.42941,-11.959663 4.08958,-15.631924 2.58698,-3.793573 5.93299,-2.07223 8.28337,1.244418 0.39386,0.735928 0.7161,5.518266 0.7161,10.627435 -0.47579,10.252183 3.2557,18.158373 10.24841,23.359193 18.63597,13.57866 28.50518,18.99342 53.33354,29.09147 8.83215,3.48934 11.74947,8.17332 6.92329,11.11589 -2.91863,1.77953 -5.38685,1.71756 -10.91359,-0.27397 z m 2.85382,-32.99549 c -11.86468,-6.70331 -27.64797,-16.61881 -33.29809,-28.440745 -1.63468,-3.420275 -1.88042,-9.55673 -0.67085,-13.026511 2.77099,-5.414571 9.11513,3.237684 10.28588,5.196305 6.80446,11.564349 14.1336,18.037271 28.79789,25.433671 8.92858,4.50341 11.10502,5.56064 11.4836,9.6283 0.65928,7.08368 -13.94453,2.46711 -16.59843,1.20898 z M 64.752792,117.44687 c -0.688857,-6.11762 8.312839,-6.42878 12.992362,-8.36052 18.926311,-7.81288 22.126132,-12.995575 34.274946,-27.873909 3.07625,-5.096925 8.80938,-1.739459 8.85971,2.157166 0,6.047467 -1.76091,9.392904 -8.43229,16.019957 -10.33645,10.113986 -24.525113,19.613686 -36.607914,22.597446 -5.300405,1.30889 -11.076245,0.13995 -11.086814,-4.54014 z M 129.40334,76.662414 C 113.40096,76.333198 92.328711,75.444413 83.209799,66.176164 78.226248,61.131429 76.490246,56.801463 76.9108,45.29959 77.71529,23.297327 87.762506,18.982836 104.94252,16.594673 c 12.86391,-1.788192 20.51283,-1.925374 53.70177,-1.134733 38.93976,0.927638 47.49762,1.759542 54.74117,5.321349 8.76648,5.113929 12.26463,16.743863 11.9202,24.507123 -0.51229,11.333406 -2.21146,17.552505 -5.60044,20.498048 -6.2738,5.452878 -10.353,6.688855 -31.95803,9.683138 -22.50971,1.496256 -38.31332,1.604904 -58.34385,1.192816 z m 52.93045,-11.930306 -1.87006,-37.749414 -24.34158,-0.05557 0.33617,37.972753 z M 144.43931,26.700697 123.1168,26.457081 c 1.82822,12.846336 1.91671,26.030626 -1.42593,38.535149 l 23.19282,-0.220169 z m 69.57181,19.638283 c -0.14398,-5.648614 -0.41169,-6.391731 -1.87659,-9.543251 -3.38515,-7.282674 -8.30279,-9.166015 -20.28159,-9.635088 l 2.47701,37.327081 C 209.60262,62.534515 214.28251,56.98609 214.01112,46.33898 Z M 111.13386,27.089311 c -6.2114,-0.75841 -14.418286,2.020729 -19.167933,6.359242 -3.763982,3.613793 -4.699023,15.08919 -1.757022,21.563167 2.351492,5.915413 9.950055,9.023893 18.535135,9.446112 5.4897,-9.549285 6.22133,-29.277412 2.38982,-37.368521 z"
     id="path125" />
</svg>
