<?xml version="1.0" encoding="UTF-8" standalone="no"?>
<!-- Created with Inkscape (http://www.inkscape.org/) -->

<svg
   xmlns:dc="http://purl.org/dc/elements/1.1/"
   xmlns:cc="http://creativecommons.org/ns#"
   xmlns:rdf="http://www.w3.org/1999/02/22-rdf-syntax-ns#"
   xmlns:svg="http://www.w3.org/2000/svg"
   xmlns="http://www.w3.org/2000/svg"
   xmlns:sodipodi="http://sodipodi.sourceforge.net/DTD/sodipodi-0.dtd"
   xmlns:inkscape="http://www.inkscape.org/namespaces/inkscape"
   width="300"
   height="300"
   id="svg2"
   version="1.1"
   inkscape:version="0.48.4 r9939"
   sodipodi:docname="image-seal.svg">
  <defs
     id="defs4" />
  <sodipodi:namedview
     id="base"
     pagecolor="#ffffff"
     bordercolor="#666666"
     borderopacity="1.0"
     inkscape:pageopacity="0.0"
     inkscape:pageshadow="2"
     inkscape:zoom="2.0018437"
     inkscape:cx="138.54008"
     inkscape:cy="168.92159"
     inkscape:document-units="px"
     inkscape:current-layer="layer1"
     showgrid="false"
     inkscape:window-width="1215"
     inkscape:window-height="1000"
     inkscape:window-x="65"
     inkscape:window-y="24"
     inkscape:window-maximized="1"
     fit-margin-top="10"
     fit-margin-left="10"
     fit-margin-right="10"
     fit-margin-bottom="10" />
  <metadata
     id="metadata7">
    <rdf:RDF>
      <cc:Work
         rdf:about="">
        <dc:format>image/svg+xml</dc:format>
        <dc:type
           rdf:resource="http://purl.org/dc/dcmitype/StillImage" />
        <dc:title />
      </cc:Work>
    </rdf:RDF>
  </metadata>
  <g
     inkscape:label="Calque 1"
     inkscape:groupmode="layer"
     id="layer1"
     transform="translate(0,-752.36218)">
    <path
       style="fill:#000000"
       d="m 45.734587,1045.5142 c -2.14124,-2.5949 0.30605,-6.9917 8.56215,-15.3826 6.35818,-6.4621 13.13918,-15.561 15.06887,-20.2196 1.9297,-4.6588 4.5348,-8.4704 5.7891,-8.4704 1.25431,0 5.89718,-7.39211 10.31748,-16.42689 6.8321,-13.96431 8.02278,-20.23401 7.94265,-41.82346 -0.0965,-25.98569 1.44243,-30.06179 10.095643,-26.74122 4.17938,1.60379 4.69337,5.21462 3.32221,23.33852 -2.50537,33.11582 4.45281,53.60322 25.9112,76.29205 11.04581,11.6792 16.53605,19.7767 15.40588,22.7219 -3.21669,8.3826 -12.25225,4.7284 -23.86771,-9.6526 -6.3208,-7.8257 -12.21423,-14.9026 -13.09649,-15.7263 -0.88223,-0.8238 -3.51468,-5.2047 -5.84985,-9.7354 -2.3352,-4.5307 -5.702973,-8.21006 -7.483983,-8.17637 -1.781,0.0335 -7.65262,7.11057 -13.04805,15.72637 -17.13523,27.3628 -33.16743,41.4281 -39.0691,34.276 z M 179.98522,1016.459 c -2.47129,-1.4317 -6.70958,-3.2774 -9.41847,-4.1014 -10.23226,-3.1127 -20.18741,-20.84389 -21.13099,-37.63655 -0.60973,-10.85173 0.31351,-16.50387 2.84111,-17.39342 2.10503,-0.74084 3.76411,1.08659 3.78948,4.17399 0.024,3.02045 1.70977,10.20964 3.74438,15.97597 7.8272,22.1834 17.9098,29.17501 36.92807,25.60721 8.12283,-1.5239 11.16763,-4.13743 14.71705,-12.63239 2.46143,-5.89103 4.47534,-13.93751 4.47534,-17.88105 0,-9.32972 6.79549,-31.03973 9.71583,-31.03973 1.2464,0 2.26615,-2.06689 2.26615,-4.59309 0,-2.52622 4.78354,-9.37665 10.63012,-15.2232 8.65103,-8.65106 11.43948,-9.95841 14.97749,-7.02214 6.54184,5.42928 5.28591,10.01482 -4.29264,15.67301 -10.90139,6.43963 -21.31497,28.24646 -21.31497,44.63525 0,15.98801 -9.83562,36.48254 -19.65588,40.95694 -8.80116,4.0101 -21.81683,4.2405 -28.27207,0.5006 z M 52.724577,996.19945 c 6.20349,-14.87135 13.43175,-45.02475 13.43175,-56.03176 0,-8.60418 4.14055,-12.06053 8.19481,-6.8407 7.30722,9.40808 3.27282,41.81642 -7.64037,61.37471 -4.60106,8.2459 -17.37161,9.6135 -13.98619,1.49775 z m 73.080183,-8.4677 c -4.85018,-12.12311 -7.18739,-58.04944 -2.98381,-58.63143 10.01215,-1.38623 10.33057,-0.80019 9.57846,17.62871 -0.41925,10.27242 0.95583,23.42844 3.05571,29.23557 3.31248,9.1605 3.1583,11.21811 -1.16459,15.541 -4.64641,4.6464 -5.21891,4.39182 -8.48577,-3.77385 z m 39.11473,-33.85184 -9.56984,-9.14544 1.74967,-42.7895 c 2.43936,-59.65671 8.9326,-103.4241 16.46071,-110.9522 3.51123,-3.51123 12.41618,-0.88235 12.41618,3.66547 0,1.69926 -1.34797,3.08953 -2.99549,3.08953 -1.64753,0 -2.9955,4.44831 -2.9955,9.88514 0,5.43682 -1.29705,11.18219 -2.88233,12.76746 -3.59456,3.59457 -9.04227,49.88857 -9.0751,77.11896 -0.0566,46.8819 15.62658,66.24209 24.73346,30.53256 1.26048,-4.94257 3.11676,-33.25002 4.12507,-62.90544 1.05933,-31.15625 3.37782,-57.71274 5.49189,-62.90544 4.83824,-11.88397 18.99241,-28.45722 24.30348,-28.45722 6.84999,0 4.89306,8.92278 -5.50838,25.11589 -9.6695,15.05361 -9.74196,15.44811 -10.71133,58.29759 -0.5368,23.72778 0.23634,44.35385 1.7183,45.83569 1.59535,1.59534 5.04787,0.0944 8.46471,-3.68051 4.73094,-5.22639 6.04374,-12.38898 7.28771,-39.76109 1.59349,-35.06364 4.0861,-42.97903 15.99072,-50.77925 12.97194,-8.49951 15.54387,4.63778 3.46049,17.67595 -6.74559,7.27864 -7.50552,10.63806 -7.65781,33.85367 -0.22287,33.96538 -4.14355,44.79182 -19.30167,53.29862 -7.57822,4.25294 -12.01506,8.90402 -12.07197,12.65492 -0.0494,3.2618 -1.06047,6.90106 -2.24663,8.08722 -1.18615,1.18615 -2.15663,4.01522 -2.15663,6.2868 0,5.96715 -13.20239,18.27564 -21.96071,20.47386 -5.7909,1.45341 -9.6792,-0.201 -17.069,-7.26324 z M 46.587967,923.40066 c -2.09454,-3.38904 3.66556,-11.824 8.07446,-11.824 3.04627,0 18.27975,-10.17942 28.71801,-19.19015 5.64522,-4.87319 6.73987,-8.8481 6.73987,-24.47369 0,-17.65713 -0.44085,-18.80947 -8.23762,-21.53214 -4.53069,-1.58213 -12.84604,-7.18527 -18.47856,-12.45138 -9.65818,-9.02993 -10.31913,-10.92521 -11.61471,-33.3058 -1.76798,-30.54044 1.67394,-36.47293 23.81719,-41.05131 24.988563,-5.16669 57.047033,-0.91078 67.683773,8.98533 5.99809,5.58046 6.73987,9.15489 6.73987,32.47748 0,25.27037 -0.32939,26.53627 -9.21691,35.42382 -5.79389,5.79386 -12.25616,9.2169 -17.40045,9.2169 -13.24836,0 -17.87191,5.74318 -18.70949,23.24003 -0.88756,18.54176 0.37474,20.15068 25.2448,32.17667 17.97475,8.69173 23.92287,16.86282 13.70736,18.83014 -5.65496,1.08904 -29.57128,-8.65501 -29.57128,-12.04804 0,-1.25889 -2.04026,-2.28886 -4.53389,-2.28886 -2.49363,0 -7.25267,-1.68496 -10.575633,-3.74437 -4.1284,-2.55857 -6.7243,-2.75001 -8.19697,-0.60455 -7.0786,10.31239 -40.99958,27.32585 -44.18982,22.16392 z M 114.92212,801.3471 c 0.11383,-30.98594 -0.86599,-35.7418 -6.62954,-32.17973 -3.52429,2.17814 -4.5581,59.16907 -1.13538,62.59178 5.60077,5.60077 7.66233,-2.4735 7.76492,-30.41205 z m -23.324463,26.38865 c 1.00699,-1.62937 2.10838,-15.14515 2.44753,-30.03504 0.51762,-22.72705 -0.10844,-26.93428 -3.90077,-26.21111 -3.48224,0.66401 -4.72033,6.31268 -5.40316,24.65096 -0.48719,13.08424 -2.16047,25.32543 -3.7184,27.20259 -1.5579,1.87719 -1.9456,4.30001 -0.86156,5.38408 2.93765,2.93762 9.3517,2.38157 11.43636,-0.99148 z M 135.1269,814.02799 c 4.23794,-11.14663 3.58753,-32.96679 -1.09863,-36.85593 -6.39676,-5.30886 -7.962,-0.87133 -7.962,22.57271 0,22.6161 3.68431,28.42407 9.06063,14.28322 z m -61.399963,-5.17894 c 2.989,-15.93257 0.58541,-33.56751 -4.57511,-33.56751 -2.47129,0 -4.30603,2.35895 -4.07721,5.24212 0.22886,2.88316 -0.93522,5.24212 -2.58673,5.24212 -2.83688,0 -0.6582,25.34691 2.63916,30.70384 3.08982,5.01983 6.85435,1.68398 8.59989,-7.62057 z m -25.54359,84.68097 c 0,-1.75084 3.2242,-6.66046 7.1649,-10.91035 3.94069,-4.24987 8.00055,-12.95286 9.02189,-19.33998 2.09883,-13.1254 5.41386,-14.77296 9.80519,-4.87311 3.22786,7.27687 0.42764,21.48107 -5.80749,29.4588 -4.55219,5.82445 -20.18449,10.21153 -20.18449,5.66464 z m 84.298443,-4.56026 c -3.30071,-4.19618 -6.92412,-11.94703 -8.05205,-17.22411 -1.12792,-5.27708 -3.2597,-11.10083 -4.73729,-12.94162 -1.67712,-2.08939 -1.03371,-4.71869 1.71241,-6.99775 4.86187,-4.035 10.65241,-1.87585 10.65241,3.97202 0,2.0669 3.20413,10.39705 7.12026,18.5114 9.98136,20.6816 5.59304,30.30275 -6.69574,14.68006 z"
       id="path3184"
       inkscape:connector-curvature="0" />
  </g>
</svg>
