<?xml version="1.0" encoding="UTF-8" standalone="no"?>
<!-- Created with Inkscape (http://www.inkscape.org/) -->

<svg
   xmlns:dc="http://purl.org/dc/elements/1.1/"
   xmlns:cc="http://creativecommons.org/ns#"
   xmlns:rdf="http://www.w3.org/1999/02/22-rdf-syntax-ns#"
   xmlns:svg="http://www.w3.org/2000/svg"
   xmlns="http://www.w3.org/2000/svg"
   xmlns:sodipodi="http://sodipodi.sourceforge.net/DTD/sodipodi-0.dtd"
   xmlns:inkscape="http://www.inkscape.org/namespaces/inkscape"
   width="300"
   height="300"
   id="svg2"
   version="1.1"
   inkscape:version="0.48.4 r9939"
   sodipodi:docname="image-seal.svg">
  <defs
     id="defs4" />
  <sodipodi:namedview
     id="base"
     pagecolor="#ffffff"
     bordercolor="#666666"
     borderopacity="1.0"
     inkscape:pageopacity="0.0"
     inkscape:pageshadow="2"
     inkscape:zoom="2.0018437"
     inkscape:cx="138.54008"
     inkscape:cy="168.92159"
     inkscape:document-units="px"
     inkscape:current-layer="layer1"
     showgrid="false"
     inkscape:window-width="1215"
     inkscape:window-height="1000"
     inkscape:window-x="65"
     inkscape:window-y="24"
     inkscape:window-maximized="1"
     fit-margin-top="10"
     fit-margin-left="10"
     fit-margin-right="10"
     fit-margin-bottom="10" />
  <metadata
     id="metadata7">
    <rdf:RDF>
      <cc:Work
         rdf:about="">
        <dc:format>image/svg+xml</dc:format>
        <dc:type
           rdf:resource="http://purl.org/dc/dcmitype/StillImage" />
        <dc:title />
      </cc:Work>
    </rdf:RDF>
  </metadata>
  <g
     inkscape:label="Calque 1"
     inkscape:groupmode="layer"
     id="layer1"
     transform="translate(0,-752.36218)">
    <path
       style="fill:#000000"
       d="m 181.35343,1042.1025 c 0,-2.9958 2.48895,-9.8784 5.53101,-15.2943 3.04206,-5.4163 5.53101,-12.2252 5.53101,-15.1312 0,-2.906 1.10698,-5.9679 2.45995,-6.8039 1.35296,-0.8363 3.16786,-5.57639 4.03307,-10.53384 0.86522,-4.95744 2.72419,-15.236 4.13106,-22.84114 12.87744,-69.61151 15.64615,-92.15334 11.99383,-97.64912 -3.4284,-5.15883 -11.55589,7.90298 -11.55589,18.57167 0,4.52683 -1.24447,8.99973 -2.7655,9.93978 -1.52103,0.94005 -2.76551,4.20196 -2.76551,7.24872 0,5.16124 -1.92634,12.42163 -12.75172,48.0614 -6.33065,20.84198 -20.85656,50.73213 -25.52534,52.52363 -9.11942,3.4994 -9.42014,-3.8908 -0.82993,-20.39645 4.75966,-9.14525 10.59065,-22.60414 12.95773,-29.90856 2.36707,-7.30436 5.40822,-15.7696 6.75809,-18.81166 2.10289,-4.73905 13.86016,-53.41295 13.86016,-57.3796 0,-0.76167 -4.92011,1.04943 -10.93356,4.02464 -9.57031,4.73502 -12.14104,4.97291 -20.61735,1.90781 -16.47826,-5.95861 -19.81382,-26.84567 -6.03394,-37.78416 10.49578,-8.33156 10.77759,-11.28733 1.92053,-20.14439 -14.43846,-14.43845 -13.89354,-38.41105 1.0018,-44.07425 5.59863,-2.12858 6.73802,-4.18753 5.9696,-10.78722 -1.37637,-11.82123 2.74379,-17.04724 8.00417,-10.1525 2.25265,2.95251 4.09572,7.53545 4.09572,10.18428 0,2.64886 2.45648,5.59575 5.45886,6.54866 7.63882,2.42447 16.66518,14.69631 16.66518,22.65724 0,9.98867 -7.67201,22.89598 -15.34275,25.81237 -8.34314,3.17206 -9.83563,16.54268 -1.84655,16.54268 5.78198,0 14.34725,13.23048 14.5991,22.55073 l 0.17534,6.48708 2.50942,-6.24487 c 1.38018,-3.43465 5.53986,-7.62564 9.24375,-9.31323 8.67,-3.95033 10.22626,-12.83751 5.93304,-33.88104 -7.19975,-35.28985 -7.3198,-39.19568 -1.41423,-46.00488 3.02583,-3.48877 5.50148,-7.16814 5.50148,-8.17636 0,-1.00822 4.98491,-4.63479 11.07756,-8.05904 10.09875,-5.67582 11.23628,-5.81232 12.87388,-1.54481 1.27462,3.32159 -1.65762,7.68517 -10.09631,15.02477 -11.7758,10.24202 -11.87301,10.47634 -9.89465,23.85099 1.0989,7.42903 2.87253,21.39379 3.94143,31.03277 1.2067,10.8816 3.48453,18.39058 6.00867,19.80763 14.57424,8.18205 16.73656,12.63612 16.9896,34.99598 0.28347,25.04741 -1.81414,54.33497 -6.0106,83.92207 -2.62153,18.48298 -4.18742,27.15722 -10.14921,56.22102 -0.88278,4.3037 -3.3997,8.5133 -5.5931,9.3551 -8.79282,3.3742 -9.31157,-3.8714 -2.63224,-36.7654 17.64476,-86.896 20.40606,-131.03206 8.20288,-131.1129 -3.01894,-0.0194 -4.92235,10.05508 -7.57179,40.07827 -0.53689,6.08411 -1.64926,12.92874 -2.47195,15.21028 -0.82268,2.28154 -2.25723,10.37065 -3.18785,17.97579 -4.27553,34.93887 -18.91047,91.29016 -25.67662,98.86676 -5.76126,6.4514 -11.76128,6.1414 -11.76128,-0.6073 z M 180.2686,868.97189 c 2.28733,-9.11336 -2.09006,-13.43325 -11.27588,-11.12773 -13.77105,3.4563 -12.83145,18.24398 1.15919,18.24398 6.6428,0 8.69249,-1.44176 10.11669,-7.11625 z m 1.05966,-52.31181 c 3.86856,-4.66132 1.49918,-23.53711 -2.95447,-23.53711 -1.50098,0 -7.04471,1.80322 -12.31947,4.00714 -9.5473,3.98913 -11.73341,9.31458 -7.91181,19.27347 2.16821,5.65031 18.55881,5.83162 23.18575,0.25664 z M 51.418823,1039.9443 c 0.0249,-1.1407 3.8482,-6.3911 8.49757,-11.6671 4.64934,-5.276 10.49794,-13.054 12.99685,-17.2844 2.49892,-4.2303 5.36641,-7.6914 6.37217,-7.6914 1.00579,0 4.54165,-6.30642 7.85752,-14.01444 5.24647,-12.1956 6.04081,-19.17657 6.12131,-53.79594 0.0691,-29.78486 1.02371,-40.55449 3.79815,-42.85708 2.8207,-2.34094 4.345907,-1.877 6.386677,1.9428 3.55465,6.65334 4.54863,20.39832 1.91932,26.54109 -2.04075,4.76778 -0.37124,32.32574 3.11244,51.37615 2.22128,12.14721 11.63105,28.57462 27.11495,47.33742 10.97195,13.2951 12.00548,15.6419 8.45349,19.1937 -3.55199,3.552 -5.07346,3.0525 -12.44455,-4.085 -4.61879,-4.4726 -10.39037,-12.1765 -12.82573,-17.1198 -2.43536,-4.9433 -5.53059,-8.9879 -6.87831,-8.9879 -1.34771,0 -2.4504,-1.9557 -2.4504,-4.3457 0,-2.3902 -1.86672,-6.21267 -4.14826,-8.49422 -3.48971,-3.48951 -4.69707,-3.55091 -7.605137,-0.38689 -4.82764,5.25281 -10.37065,15.34441 -10.37065,18.88061 0,5.1892 -24.69989,27.5323 -30.43663,27.5323 -3.03321,0 -5.49506,-0.9334 -5.47078,-2.0742 z m 12.89295,-58.06806 c -0.67431,-1.14492 -0.10426,-9.54847 1.26661,-18.67463 1.37097,-9.1262 2.50082,-24.99329 2.51077,-35.26023 0.0138,-14.73868 0.8908,-18.66717 4.16502,-18.66717 8.43493,0 9.80015,14.2149 5.24658,54.62845 -1.15112,10.21661 -3.16941,15.34911 -6.79994,17.29216 -2.83962,1.51964 -5.71469,1.82634 -6.38904,0.68142 z M 121.8804,978.3881 c -2.41623,-3.90959 -3.49154,-12.04433 -5.70032,-43.12386 -1.60081,-22.52463 -1.27305,-25.36978 3.11684,-27.05433 8.48111,-3.2545 10.46945,2.81056 11.51628,35.12828 0.81184,25.06257 0.20244,32.09469 -3.01263,34.76285 -2.90005,2.40682 -4.56035,2.4873 -5.92017,0.28706 z M 50.400343,898.87306 c -2.25621,-3.65063 5.32899,-11.51191 15.08528,-15.63429 5.16771,-2.18353 14.06263,-8.27585 19.76648,-13.53847 9.56044,-8.82086 10.37065,-10.75351 10.37065,-24.73743 l 0,-15.16902 -12.75454,-1.43762 c -19.70108,-2.22059 -24.07235,-8.35232 -24.35,-34.1567 -0.1593,-14.79521 0.83192,-21.70781 3.22709,-22.50746 1.90129,-0.63474 3.45688,-2.78392 3.45688,-4.77597 0,-5.33936 6.52859,-7.01377 34.38332,-8.81834 22.510137,-1.45831 25.780927,-1.0491 31.975767,4.00069 5.94158,4.84331 7.13575,8.6396 8.59165,27.31274 1.65602,21.24008 1.527,21.84448 -6.25297,29.29271 -6.01948,5.76279 -10.68478,7.60514 -19.25818,7.60514 -9.69183,0 -11.02818,0.69398 -9.31923,4.83964 1.09727,2.66179 2.78602,11.57654 3.75276,19.81053 1.58179,13.47249 2.74626,15.54845 11.63424,20.74129 28.46955,16.63344 33.51538,21.56033 27.86623,27.20948 -2.85984,2.85984 -17.39763,-3.80597 -26.21371,-12.01941 -8.79862,-8.19715 -23.190477,-9.69254 -34.786677,-3.61449 -5.46063,2.86213 -10.55066,5.8668 -11.31117,6.67701 -7.49209,7.98164 -23.11399,13.36934 -25.86387,8.91997 z m 42.67477,-85.70017 c 0.44713,-15.60749 -0.68875,-43.56667 -1.81572,-44.69365 -2.65149,-2.65151 -3.8888,2.52759 -5.19752,21.75571 -0.75894,11.15036 -2.11326,22.58404 -3.00965,25.40823 -1.22907,3.87251 -0.22428,5.13485 4.08764,5.13485 4.34066,0 5.76984,-1.83129 5.93525,-7.60514 z m 20.523427,-20.85302 c 0,-20.04184 -0.71635,-24.0885 -4.14826,-23.43335 -3.23888,0.61828 -4.32415,6.13887 -4.95059,25.18308 -0.72971,22.18401 -0.35432,24.30454 4.14826,23.43335 4.30744,-0.83341 4.95059,-4.10501 4.95059,-25.18308 z m 15.99175,-1.03992 c 0.29829,-16.23191 -1.97271,-24.3459 -6.10012,-21.79503 -2.67098,1.65076 -3.85796,36.56972 -1.37941,40.58012 3.69038,5.97117 7.18595,-2.80804 7.47953,-18.78509 z m -52.477537,2.717 c 1.58676,-15.37413 -0.95037,-26.7798 -4.63192,-20.82293 -0.98079,1.58696 -2.57477,10.45812 -3.54217,19.71369 -1.45366,13.90792 -1.03778,16.8283 2.39642,16.8283 3.0191,0 4.59893,-4.29818 5.77767,-15.71906 z m -21.84841,73.37631 c -1.14188,-1.84761 1.70181,-6.20021 6.77549,-10.37065 4.80877,-3.95273 8.732,-8.46546 8.71828,-10.0283 -0.0138,-1.56284 2.08188,-5.8494 4.65684,-9.52567 l 4.68172,-6.68415 2.12585,7.94876 c 2.73116,10.21221 -3.77788,24.43158 -13.13546,28.69519 -8.7002,3.96408 -11.35523,3.9573 -13.82272,-0.0351 z m 71.501487,-9.02456 c -8.86594,-10.19673 -11.65373,-16.7322 -9.93727,-23.29604 2.21932,-8.48665 5.50355,-7.42417 10.66355,3.44974 2.4606,5.1853 6.87466,11.60058 9.80902,14.25613 2.93437,2.65558 5.33522,6.50215 5.33522,8.54796 0,6.0418 -9.60134,4.25241 -15.87052,-2.95779 z"
       id="path3197"
       inkscape:connector-curvature="0" />
  </g>
</svg>
