<?xml version="1.0" encoding="UTF-8" standalone="no"?>
<!-- Created with Inkscape (http://www.inkscape.org/) -->

<svg
   xmlns:dc="http://purl.org/dc/elements/1.1/"
   xmlns:cc="http://creativecommons.org/ns#"
   xmlns:rdf="http://www.w3.org/1999/02/22-rdf-syntax-ns#"
   xmlns:svg="http://www.w3.org/2000/svg"
   xmlns="http://www.w3.org/2000/svg"
   xmlns:sodipodi="http://sodipodi.sourceforge.net/DTD/sodipodi-0.dtd"
   xmlns:inkscape="http://www.inkscape.org/namespaces/inkscape"
   width="300"
   height="300"
   id="svg2"
   version="1.1"
   inkscape:version="0.48.4 r9939"
   sodipodi:docname="image-seal.svg">
  <defs
     id="defs4" />
  <sodipodi:namedview
     id="base"
     pagecolor="#ffffff"
     bordercolor="#666666"
     borderopacity="1.0"
     inkscape:pageopacity="0.0"
     inkscape:pageshadow="2"
     inkscape:zoom="1.979899"
     inkscape:cx="197.63697"
     inkscape:cy="133.25325"
     inkscape:document-units="px"
     inkscape:current-layer="layer1"
     showgrid="false"
     inkscape:window-width="1215"
     inkscape:window-height="1000"
     inkscape:window-x="65"
     inkscape:window-y="24"
     inkscape:window-maximized="1"
     fit-margin-top="10"
     fit-margin-left="10"
     fit-margin-right="10"
     fit-margin-bottom="10" />
  <metadata
     id="metadata7">
    <rdf:RDF>
      <cc:Work
         rdf:about="">
        <dc:format>image/svg+xml</dc:format>
        <dc:type
           rdf:resource="http://purl.org/dc/dcmitype/StillImage" />
        <dc:title />
      </cc:Work>
    </rdf:RDF>
  </metadata>
  <g
     inkscape:label="Calque 1"
     inkscape:groupmode="layer"
     id="layer1"
     transform="translate(0,-752.36218)">
    <path
       style="fill:#000000"
       d="m 128.74661,1036.4182 c -17.20667,-19.9617 -21.28031,-25.1515 -21.28357,-27.1153 -0.006,-3.4201 -9.588696,-13.6066 -12.800526,-13.6066 -1.62461,0 -4.56633,3.53637 -6.53719,7.8586 -4.48263,9.8308 -19.55793,26.5981 -30.1074,33.4866 -6.26054,4.0879 -8.75192,4.473 -11.43071,1.7667 -2.66678,-2.6941 -2.19452,-4.1543 2.13246,-6.5937 14.65124,-8.26 41.59383,-46.51258 41.59383,-59.05414 0,-4.70865 1.11835,-9.25236 2.48521,-10.09714 1.36688,-0.84476 1.51803,-6.8251 0.33592,-13.28962 -1.18214,-6.46455 -1.73495,-13.88647 -1.22852,-16.49319 3.69561,-19.02146 4.52016,-20.79907 9.225776,-19.88927 4.27185,0.82595 4.89883,4.96469 4.89883,32.33871 0,31.15523 3.29918,46.25041 12.06767,55.21475 2.05482,2.1007 7.25293,8.488 11.55138,14.1941 4.29846,5.706 10.06579,12.6675 12.81631,15.4698 2.75051,2.8024 5.00093,7.0242 5.00093,9.3818 0,7.0681 -11.42842,4.8874 -18.7204,-3.5721 z m 45.08351,2.9749 c -13.08421,-2.5114 -15.62823,-11.758 -17.16385,-62.38408 -0.97307,-32.08035 -0.46506,-47.03925 1.59744,-47.03925 6.89465,0 12.0647,3.80479 12.0647,8.87877 0,3.84454 2.03781,5.4096 7.04366,5.4096 8.4788,0 12.24613,-6.53421 11.53323,-20.00372 -0.88196,-16.66388 -1.15084,-17.14606 -9.56095,-17.14606 -12.29329,0 -18.47027,-8.903 -19.90108,-28.68382 -0.82507,-11.4065 -0.17432,-17.03898 1.96865,-17.03898 1.76061,0 3.20114,1.94293 3.20114,4.31766 0,9.09353 12.0461,29.97444 17.29211,29.97444 7.06371,0 7.87504,-1.86652 10.03841,-23.09436 l 1.86929,-18.34193 -8.88457,-3.32387 c -5.95091,-2.22633 -8.88454,-5.24861 -8.88454,-9.15297 0,-10.82373 -6.24722,-20.38642 -13.31825,-20.38642 -4.78035,0 -6.68548,-1.62868 -6.68548,-5.71535 0,-5.46756 1.90513,-5.71535 43.94405,-5.71535 33.27588,0 44.71676,0.93103 47.12686,3.83503 3.81046,4.59131 1.42893,7.59567 -6.02106,7.59567 -7.06855,0 -12.15507,5.25286 -14.62818,15.10655 -1.09132,4.34819 -6.52982,12.19333 -12.08557,17.43365 -9.21352,8.69048 -10.02335,10.73017 -9.21406,23.20764 1.68614,25.99662 18.80742,25.27114 23.55576,-0.99816 2.79024,-15.4365 7.73816,-18.95676 12.95193,-9.21474 4.57528,8.54902 3.5204,14.86428 -2.75714,16.5059 -5.83729,1.52649 -8.02833,6.54336 -2.85768,6.54336 4.65695,0 3.26024,7.32291 -2.36827,12.41663 -2.87428,2.6012 -8.98256,4.74911 -13.57396,4.77318 -12.89308,0.0674 -15.32031,3.18865 -17.31399,22.26314 l -1.85006,17.70056 7.6227,0 c 6.19524,0 7.94606,-1.61659 9.34923,-8.6325 2.12383,-10.61915 4.94641,-12.64535 9.67626,-6.9462 4.90077,5.90504 1.88941,89.59708 -3.53726,98.30858 -5.88607,9.449 -28.42364,13.7329 -50.22947,9.5474 z m 37.22016,-18.5426 c 2.91417,-3.3703 5.00093,-10.4213 5.00093,-16.8978 l 0,-11.11408 -12.14512,-0.28954 c -20.17915,-0.48106 -32.06294,0.70853 -33.7147,3.37492 -0.86125,1.3902 -0.86125,8.6589 0,16.1528 1.53585,13.364 1.78487,13.6577 12.99656,15.3269 14.7911,2.2021 21.69613,0.578 27.86233,-6.5532 z m -0.42362,-43.14504 c 3.75962,-2.34792 5.42455,-6.6739 5.42455,-14.09454 l 0,-10.70685 -22.14698,1.7593 c -12.18084,0.96761 -22.94336,2.55865 -23.91671,3.53563 -0.97335,0.97701 -1.17522,6.41831 -0.44857,12.09179 l 1.32116,10.31544 17.171,0.24347 c 9.44404,0.13374 19.61202,-1.28101 22.59555,-3.14424 z m -5.29173,-137.44398 c 2.75051,-2.08793 5.00093,-7.19085 5.00093,-11.3398 0,-7.00579 -0.89311,-7.54357 -12.52727,-7.54357 -12.41574,0 -12.51916,0.0826 -11.61314,9.28744 0.50278,5.1081 0.99625,10.25191 1.09658,11.4307 0.29891,3.51191 12.6547,2.25548 18.0429,-1.83477 z M 56.021404,987.32262 c 0,-1.724 1.1281,-5.36754 2.50687,-8.09673 5.43152,-10.75124 8.92383,-26.00625 8.92383,-38.98087 0,-9.63653 1.04274,-13.25109 3.5721,-12.38242 2.45674,0.84373 3.528,8.05005 3.43083,23.07919 -0.11173,17.2875 -1.34196,23.4606 -5.88921,29.55116 -6.26062,8.38539 -12.54442,11.80657 -12.54442,6.82967 z m 70.223506,-6.62912 c -5.57324,-26.99888 -4.36818,-54.95752 2.27414,-52.76248 1.7769,0.58719 4.1258,8.68036 5.21974,17.98483 1.09395,9.30445 2.261,18.84611 2.59343,21.2037 0.33246,2.35758 0.40187,7.82288 0.15431,12.14512 -0.55016,9.60413 -8.32995,10.6895 -10.24156,1.42883 z m 7.81866,-59.32274 c -3.44259,-1.38674 -11.75611,-7.699 -18.47447,-14.02724 l -12.21519,-11.50588 -10.102306,6.18061 c -16.7108,10.2237 -35.13269,19.37849 -38.9947,19.37849 -10.14983,0 -4.69661,-6.27142 13.75708,-15.82123 11.32174,-5.85901 22.22148,-12.28923 24.22166,-14.28941 2.16554,-2.16554 3.9533,-12.70596 4.41936,-26.05605 0.70708,-20.25337 1.33488,-22.41938 6.498036,-22.41938 5.29233,0 5.6536,1.62705 4.88114,21.98255 l -0.83418,21.98256 16.30498,10.43017 c 20.63956,13.20297 24.3425,16.96436 22.19925,22.54963 -1.93839,5.05131 -2.8255,5.17419 -11.66066,1.61518 z M 56.021404,883.86775 c 0,-1.7803 2.35507,-5.31668 5.23349,-7.85861 2.87842,-2.54196 7.02068,-10.74237 9.20503,-18.22316 4.51113,-15.44951 9.70289,-16.40932 10.15646,-1.87764 0.40639,13.02131 -3.40297,20.68908 -13.13427,26.4375 -9.50169,5.61276 -11.46071,5.87292 -11.46071,1.52191 z m 75.913796,-1.27247 c -6.64335,-6.64332 -9.29013,-12.65644 -11.53438,-26.20436 -1.64765,-9.94654 -1.13941,-12.47321 2.81424,-13.99035 5.56421,-2.1352 9.85544,3.20125 9.91982,12.33595 0.0229,3.41581 3.25864,10.03121 7.18794,14.70091 3.9293,4.66973 7.14419,10.55517 7.14419,13.07881 0,5.91902 -9.64274,5.96811 -15.53181,0.0792 z M 94.161484,834.52967 c -27.83987,-4.28951 -32.42473,-8.81924 -32.42473,-32.03488 0,-32.59999 6.96487,-38.27019 47.008356,-38.27019 30.01022,0 37.52953,3.46728 40.13425,18.50651 4.66144,26.91441 0.55096,40.96234 -14.37645,49.13292 -12.77344,6.99156 -12.41783,6.96807 -40.341426,2.66564 z m 5.0758,-19.07878 c 1.065456,-3.81277 2.065406,-14.32656 2.222066,-23.36395 0.22233,-12.82739 -0.65538,-16.43164 -4.001656,-16.43164 -2.46872,0 -4.38879,2.72671 -4.52764,6.42977 -0.1326,3.53638 -1.16876,13.8595 -2.30255,22.94028 -1.13375,9.08077 -1.42709,17.14479 -0.65186,17.91999 2.87554,2.87557 7.383,-0.77188 9.26164,-7.49445 z m 23.085556,-1.29544 c -3.56304,-35.44372 -4.18064,-38.50015 -7.77945,-38.50015 -4.07667,0 -5.60505,25.34667 -2.46512,40.88096 2.31701,11.46282 11.42347,9.34652 10.24457,-2.38081 z M 81.748624,798.45324 c 1.75639,-13.6909 -2.47017,-27.57668 -6.41862,-21.08759 -1.57812,2.5936 -3.21677,26.36766 -2.53133,36.72539 0.69859,10.55619 7.00262,-0.45855 8.94995,-15.6378 z m 58.941636,-5.18125 c 0.34272,-16.43121 -0.0617,-17.61669 -6.01029,-17.61669 -5.94414,0 -6.29446,1.01996 -5.15322,15.0028 1.56412,19.1636 2.82427,22.90044 7.22549,21.42639 2.28317,-0.76466 3.70306,-7.54775 3.93802,-18.8125 z m 28.7375,-11.31768 c -4.8019,-5.30605 -4.35196,-5.49949 16.99011,-7.30354 29.59048,-2.50132 38.8512,-2.28028 43.92172,1.04828 3.81023,2.50127 3.81023,3.12599 0,5.62245 -2.35758,1.54472 -7.5014,2.71685 -11.4307,2.6048 -3.9293,-0.11202 -15.56018,0.62472 -25.84639,1.63731 -16.19241,1.59401 -19.36415,1.10963 -23.63474,-3.6093 z"
       id="path3015"
       inkscape:connector-curvature="0" />
  </g>
</svg>
