<?xml version="1.0" encoding="UTF-8" standalone="no"?>
<!-- Created with Inkscape (http://www.inkscape.org/) -->

<svg
   xmlns:dc="http://purl.org/dc/elements/1.1/"
   xmlns:cc="http://creativecommons.org/ns#"
   xmlns:rdf="http://www.w3.org/1999/02/22-rdf-syntax-ns#"
   xmlns:svg="http://www.w3.org/2000/svg"
   xmlns="http://www.w3.org/2000/svg"
   xmlns:sodipodi="http://sodipodi.sourceforge.net/DTD/sodipodi-0.dtd"
   xmlns:inkscape="http://www.inkscape.org/namespaces/inkscape"
   width="300"
   height="300"
   id="svg2"
   version="1.1"
   inkscape:version="0.48.4 r9939"
   sodipodi:docname="image-seal.svg">
  <defs
     id="defs4" />
  <sodipodi:namedview
     id="base"
     pagecolor="#ffffff"
     bordercolor="#666666"
     borderopacity="1.0"
     inkscape:pageopacity="0.0"
     inkscape:pageshadow="2"
     inkscape:zoom="2.0018437"
     inkscape:cx="138.54008"
     inkscape:cy="168.92159"
     inkscape:document-units="px"
     inkscape:current-layer="layer1"
     showgrid="false"
     inkscape:window-width="1215"
     inkscape:window-height="1000"
     inkscape:window-x="65"
     inkscape:window-y="24"
     inkscape:window-maximized="1"
     fit-margin-top="10"
     fit-margin-left="10"
     fit-margin-right="10"
     fit-margin-bottom="10" />
  <metadata
     id="metadata7">
    <rdf:RDF>
      <cc:Work
         rdf:about="">
        <dc:format>image/svg+xml</dc:format>
        <dc:type
           rdf:resource="http://purl.org/dc/dcmitype/StillImage" />
        <dc:title />
      </cc:Work>
    </rdf:RDF>
  </metadata>
  <g
     inkscape:label="Calque 1"
     inkscape:groupmode="layer"
     id="layer1"
     transform="translate(0,-752.36218)">
    <path
       style="fill:#000000"
       d="m 208.95352,1028.5305 c 0,-17.6238 0.70419,-19.8632 10.97953,-34.91658 6.03872,-8.84674 12.11991,-16.08498 13.51375,-16.08498 1.39384,0 3.31383,-2.11514 4.26665,-4.70031 0.95282,-2.58517 4.81897,-8.805 8.59147,-13.82187 6.28392,-8.35668 6.83659,-11.24455 6.59078,-34.4396 -0.15095,-14.25562 -1.70028,-27.99372 -3.54562,-31.44179 -1.96519,-3.67199 -8.10441,-7.62673 -15.33376,-9.87764 -6.63104,-2.06464 -11.92545,-4.96253 -11.7654,-6.43978 0.51698,-4.77119 22.62763,-1.15267 29.00542,4.74689 5.77201,5.33921 6.04326,7.47873 6.04326,47.66466 l 0,42.07452 -9.32905,8.48925 c -5.13097,4.66907 -10.3983,8.48924 -11.70517,8.48924 -1.30691,0 -5.56939,6.15481 -9.47221,13.67739 -5.32661,10.2667 -7.09607,17.634 -7.09607,29.5448 0,14.0769 -0.60618,15.8675 -5.37179,15.8675 -4.86101,0 -5.37179,-1.7906 -5.37179,-18.8317 z m -138.664804,2.164 c -1.020972,-1.6519 0.753299,-5.1167 3.942824,-7.6994 3.189524,-2.5827 5.804727,-5.7108 5.811563,-6.9512 0.0067,-1.2405 3.451195,-5.9236 7.654132,-10.4071 10.836727,-11.55994 14.670075,-19.25634 10.441757,-20.9644 -2.03745,-0.82307 -1.57682,-1.43011 1.18341,-1.55962 4.953568,-0.23233 6.670608,-4.13684 8.952078,-20.35625 0.83118,-5.90896 2.16367,-14.06457 2.96111,-18.12357 0.79744,-4.05901 1.44989,-16.9593 1.44989,-28.66734 0,-16.8326 0.87918,-21.62475 4.20122,-22.89953 2.31067,-0.88669 4.81809,-0.99531 5.57202,-0.24146 0.75396,0.75393 1.11883,15.98292 0.81087,33.8422 -0.73126,42.40636 2.78352,53.39488 24.15096,75.50467 16.43898,17.01 19.4962,23.7034 10.82662,23.7034 -5.2968,0 -27.30659,-20.0197 -36.73689,-33.41529 l -5.52355,-7.84606 -5.76997,9.336 c -3.17348,5.13478 -8.36649,12.30345 -11.540018,15.93035 -3.17354,3.6269 -8.39123,9.683 -11.59487,13.4579 -7.025318,8.2782 -14.263829,11.4492 -16.793156,7.3566 z m 106.434124,-15.4981 c 0,-5.9446 2.37698,-14.5773 5.36174,-19.47276 2.94895,-4.83673 5.36773,-10.60705 5.37506,-12.82291 0.008,-2.21586 2.73131,-7.22162 6.0533,-11.1239 3.322,-3.9023 8.45726,-10.0378 11.41174,-13.63445 7.44788,-9.06666 30.36249,-24.22941 33.59626,-22.23084 5.06255,3.12885 2.63437,8.74696 -5.17937,11.98351 -16.51046,6.83888 -34.79655,31.83178 -43.29813,59.17875 -3.51089,11.2934 -8.21727,18.8012 -11.78583,18.8012 -0.84412,0 -1.53477,-4.8054 -1.53477,-10.6786 z M 76.260888,986.00578 c -1.06692,-1.7263 0.68194,-10.52325 3.886355,-19.54873 4.453071,-12.54243 5.579975,-20.7677 4.78144,-34.89975 -0.765068,-13.53985 -0.147751,-18.48979 2.305901,-18.48979 12.485808,0 9.340468,53.3857 -4.125099,70.01497 -3.383382,4.17831 -5.511544,5.08668 -6.848597,2.9233 z m 69.934222,-8.48597 c -3.57825,-3.6139 -4.69282,-7.79355 -3.89669,-14.61279 0.61327,-5.25312 0.14906,-9.55112 -1.03155,-9.55112 -3.43198,0 -2.47615,-28.14085 1.07653,-31.69353 6.03534,-6.03534 7.52051,-3.23699 7.52051,14.17031 0,12.6551 1.46064,19.78907 5.36174,26.18746 10.27939,16.85975 3.62493,28.28122 -9.03054,15.49967 z m 30.52773,-17.56254 c 0,-4.37473 23.47188,-29.4975 31.37045,-33.57689 4.16625,-2.15172 9.91803,-6.02739 12.78176,-8.61256 2.8637,-2.58517 6.18749,-4.70031 7.3862,-4.70031 1.19869,0 2.17727,2.11514 2.17464,4.70031 -0.003,2.61203 -5.12581,7.93537 -11.53119,11.9818 -16.57539,10.47111 -31.43829,23.69758 -31.43829,27.9769 0,2.02788 -2.41733,3.68706 -5.37179,3.68706 -2.95448,0 -5.37178,-0.65533 -5.37178,-1.45631 z m 1.02163,-29.30025 c -1.12518,-2.93214 0.306,-5.92717 4.10332,-8.58691 3.20712,-2.24634 9.10711,-7.12817 13.11108,-10.84848 9.07367,-8.43086 25.46605,-16.95537 32.60462,-16.95537 8.19492,0 4.20028,6.20554 -7.24794,11.25934 -9.57564,4.22717 -17.44023,9.50629 -27.241,18.28548 -12.39392,11.10209 -13.50623,11.59882 -15.33008,6.84594 z m -12.22004,-5.51016 c -2.05,-2.05001 0.60097,-14.53855 3.46142,-16.30638 1.30086,-0.804 2.3652,-3.58161 2.3652,-6.17256 0,-5.2333 12.3781,-18.13308 21.98731,-22.91397 3.41801,-1.70055 8.46019,-7.84848 11.20485,-13.66204 4.71183,-9.98027 5.19964,-10.28383 8.74175,-5.43971 6.57326,8.98947 0.0486,19.56695 -17.7609,28.79269 -10.41879,5.39722 -13.68492,9.43541 -18.48663,22.8565 -4.1938,11.72193 -8.18423,16.17423 -11.513,12.84547 z m -90.865541,-23.734 c 0,-1.97835 8.460563,-8.90581 18.801253,-15.39433 l 18.801248,-11.79733 0,-17.64218 c 0,-10.14049 1.37049,-19.01266 3.22307,-20.86523 2.50683,-2.50682 0.71624,-3.22307 -8.05768,-3.22307 -6.20441,0 -11.280748,-1.20865 -11.280748,-2.68589 0,-1.47724 -1.89931,-2.6859 -4.22069,-2.6859 -11.687171,0 -18.033407,-25.54853 -11.954202,-48.12497 4.040426,-15.00501 13.692582,-19.67446 43.79738,-21.18796 20.32587,-1.02188 24.36298,-0.48993 29.14833,3.84075 12.45108,11.26807 16.13687,28.78173 10.40174,49.42545 -3.0501,10.9788 -12.66801,17.68438 -29.1439,20.31897 l -11.16971,1.78612 0,14.6057 c 0,19.41634 2.70028,23.57024 21.48714,33.0538 17.41627,8.79171 24.88055,17.66767 17.30303,20.57542 -2.42864,0.93198 -5.20024,0.54325 -6.15907,-0.86381 -0.95884,-1.40706 -5.97364,-4.23581 -11.14396,-6.28614 -5.17034,-2.05031 -12.64339,-6.07719 -16.60674,-8.94862 -6.67611,-4.83678 -7.52977,-4.89708 -11.6069,-0.81995 -2.42043,2.42042 -5.43678,4.40078 -6.70298,4.40078 -1.26621,0 -3.89935,1.51082 -5.85141,3.35737 -4.050748,3.8318 -22.570937,12.75799 -26.470432,12.75799 -1.427122,0 -2.594769,-1.61865 -2.594769,-3.59697 z m 41.266261,-92.1271 c 0.93941,-6.85376 1.70803,-19.02434 1.70803,-27.04574 0,-13.58822 -0.41277,-14.52573 -6.04326,-13.72606 -5.69881,0.80936 -5.98906,1.89503 -5.0923,19.04757 0.60892,11.64697 -0.22371,19.60466 -2.31491,22.1244 -4.297518,5.17819 -1.47644,12.06122 4.94341,12.06122 4.02045,0 5.45018,-2.62044 6.79903,-12.46139 z m 20.11511,10.07594 c 2.90836,-1.84293 2.98961,-3.50848 0.40667,-8.33478 -1.95031,-3.64417 -2.85741,-13.61324 -2.29174,-25.18608 0.76508,-15.65175 0.19956,-19.1545 -3.09254,-19.1545 -2.74377,0 -4.14613,2.9985 -4.39651,9.40063 -0.85489,21.85812 -1.40015,41.76937 -1.19527,43.64576 0.29375,2.68992 6.05822,2.48756 10.56939,-0.37103 z M 96.883482,792.87485 c 0.86361,-10.07492 0.34686,-17.4607 -1.29253,-18.4739 -6.84572,-4.23087 -12.448957,21.97517 -7.337243,34.31594 4.366893,10.54261 6.741823,6.18287 8.629773,-15.84204 z m 58.352208,3.17974 c 0,-15.55312 -3.79514,-26.63087 -8.19246,-23.91317 -2.87052,1.77408 -3.53769,34.29439 -0.76053,37.07155 0.98483,0.98484 3.40214,1.79061 5.37178,1.79061 2.55539,0 3.58121,-4.2821 3.58121,-14.94899 z m -79.419444,79.11013 c -1.015061,-1.64239 -0.622012,-3.75753 0.873439,-4.70031 1.495452,-0.94277 5.409359,-7.45523 8.697572,-14.47213 6.174285,-13.17564 13.444665,-17.02622 13.444665,-7.12065 0,6.54002 -7.8086,24.33417 -11.946571,27.22373 -4.135083,2.88752 -8.960053,2.48187 -11.069105,-0.93064 z m 73.311614,-8.47369 c -7.4439,-8.25603 -12.03277,-19.64089 -9.0991,-22.57456 2.56151,-2.56153 23.58754,20.97591 22.72201,25.43603 -1.32036,6.80406 -5.74639,5.87437 -13.62291,-2.86147 z m 22.14436,-12.792 c -8.42165,-8.42162 -6.41093,-23.45093 4.01135,-29.98367 9.68399,-6.06996 24.30605,-4.88926 29.84151,2.40962 5.38073,7.09484 4.76703,23.28503 -1.08336,28.57954 -7.10966,6.43419 -25.90662,5.85743 -32.7695,-1.00549 z m 23.77963,-4.94427 c 2.13897,-1.35613 3.20954,-5.88971 2.6859,-11.3739 -0.80344,-8.41431 -1.64906,-9.18339 -10.94282,-9.9526 l -10.07209,-0.83359 0,10.68187 c 0,6.03238 1.46134,11.27157 3.35736,12.03662 5.25431,2.12016 11.09021,1.9025 14.97165,-0.5584 z m 30.52351,4.91849 c -7.80314,-7.26975 -7.57594,-18.85126 0.51902,-26.45608 5.01322,-4.70965 8.93559,-5.82787 18.12978,-5.16849 l 11.73249,0.84141 0.81813,15.86622 c 0.92373,17.91464 -0.91391,20.2884 -15.75553,20.35222 -5.95882,0.0269 -11.78213,-2.02382 -15.44389,-5.43528 z m 23.83714,-12.43053 c 2.03137,-5.34291 1.84381,-7.72149 -0.73795,-9.3595 -8.76753,-5.5626 -18.23388,-1.01863 -18.23388,8.75254 0,6.85722 0.9547,7.77032 8.12418,7.77032 6.33006,0 8.72558,-1.58191 10.84765,-7.16336 z m -54.76012,-37.97608 c -10.74803,-11.87646 -7.94764,-31.78051 5.32199,-37.82656 21.32629,-9.71692 44.14547,5.70524 37.31541,25.2193 -4.33686,12.39069 -8.92053,15.62244 -23.92223,16.86652 -11.3519,0.94138 -14.69775,0.17995 -18.71517,-4.25926 z m 30.08077,-10.1873 c 2.60953,-2.21049 0.59293,-15.37343 -2.66358,-17.38608 -4.05137,-2.5039 -15.26465,-0.54653 -20.50225,3.57882 -5.79892,4.56749 -4.07724,14.91205 2.68589,16.13786 5.64164,1.02252 18.20998,-0.40774 20.47994,-2.3306 z"
       id="path3054"
       inkscape:connector-curvature="0" />
  </g>
</svg>
