<?xml version="1.0" encoding="UTF-8" standalone="no"?>
<!-- Created with Inkscape (http://www.inkscape.org/) -->

<svg
   xmlns:dc="http://purl.org/dc/elements/1.1/"
   xmlns:cc="http://creativecommons.org/ns#"
   xmlns:rdf="http://www.w3.org/1999/02/22-rdf-syntax-ns#"
   xmlns:svg="http://www.w3.org/2000/svg"
   xmlns="http://www.w3.org/2000/svg"
   xmlns:sodipodi="http://sodipodi.sourceforge.net/DTD/sodipodi-0.dtd"
   xmlns:inkscape="http://www.inkscape.org/namespaces/inkscape"
   width="300"
   height="300"
   id="svg2"
   version="1.1"
   inkscape:version="0.48.4 r9939"
   sodipodi:docname="image-seal.svg">
  <defs
     id="defs4" />
  <sodipodi:namedview
     id="base"
     pagecolor="#ffffff"
     bordercolor="#666666"
     borderopacity="1.0"
     inkscape:pageopacity="0.0"
     inkscape:pageshadow="2"
     inkscape:zoom="1.979899"
     inkscape:cx="200.43343"
     inkscape:cy="122.13442"
     inkscape:document-units="px"
     inkscape:current-layer="layer1"
     showgrid="false"
     inkscape:window-width="1215"
     inkscape:window-height="1000"
     inkscape:window-x="65"
     inkscape:window-y="24"
     inkscape:window-maximized="1" />
  <metadata
     id="metadata7">
    <rdf:RDF>
      <cc:Work
         rdf:about="">
        <dc:format>image/svg+xml</dc:format>
        <dc:type
           rdf:resource="http://purl.org/dc/dcmitype/StillImage" />
        <dc:title />
      </cc:Work>
    </rdf:RDF>
  </metadata>
  <g
     inkscape:label="Calque 1"
     inkscape:groupmode="layer"
     id="layer1"
     transform="translate(0,-752.36218)">
    <path
       style="fill:#000000"
       d="m 163.8737,1031.994 c -1.59147,-2.575 -4.77073,-27.8171 -7.06508,-56.09351 -3.62831,-44.71686 -5.60357,-51.41178 -15.1687,-51.41178 -9.85795,0 -10.99718,5.1631 -10.99718,49.8405 0,27.41229 -2.65706,51.48269 -5.90459,53.48979 -3.6113,2.2319 -5.90458,-6.9581 -5.90458,-23.6621 0,-26.31067 -0.59489,-27.24283 -16.23763,-25.44293 -13.963224,1.60664 -16.74057,5.17656 -19.828186,25.48663 l -3.590518,23.6184 -0.837922,-27.4151 c -0.8691,-28.43758 4.314066,-34.58307 29.168006,-34.58307 7.38984,0 11.32625,-4.10423 11.32625,-11.80919 0,-8.38622 -3.93641,-11.80917 -13.58055,-11.80917 -7.469312,0 -16.769032,-3.18848 -20.666074,-7.0855 -8.579071,-8.57907 -9.653874,-42.43551 -1.180913,-37.1989 3.247526,2.00709 5.904586,10.13511 5.904586,18.06224 0,11.43748 3.047478,14.41299 14.761461,14.41299 17.39995,0 17.80937,-1.66839 5.15058,-20.98815 -10.841949,-16.54697 -7.82912,-54.46096 4.97326,-62.58403 12.88469,-8.17532 50.52461,-5.50284 60.30945,4.28201 11.67916,11.6791 12.01212,43.89618 0.60955,58.97171 -12.27546,16.22959 -11.12501,20.31846 5.71682,20.31846 11.80917,0 14.76147,-2.9523 14.76147,-14.76147 0,-8.1188 2.65706,-14.76146 5.90458,-14.76146 8.27168,0 7.38617,25.67952 -1.18091,34.2466 -3.89703,3.89702 -13.19676,7.0855 -20.66607,7.0855 -9.64413,0 -13.58055,3.42295 -13.58055,11.80917 0,8.38624 3.93642,11.80919 13.58055,11.80919 7.46931,0 16.76904,3.18848 20.66607,7.0855 8.60268,8.60269 9.69203,48.36367 1.18091,43.10347 -3.24752,-2.0071 -5.90458,-11.4636 -5.90458,-21.01452 0,-14.7541 -2.30297,-17.36528 -15.31556,-17.36528 -14.98366,0 -15.22752,0.63977 -11.2551,29.5229 3.75863,27.3286 1.90766,36.2589 -5.14885,24.8411 z m 5.14885,-148.83741 0,-26.57064 -26.57064,0 c -25.81875,0 -26.6242,0.55916 -28.46283,19.75202 -3.04866,31.82415 1.56152,37.25542 29.88496,35.20759 l 25.14851,-1.81831 0,-26.57066 z m -47.23669,11.80919 c -2.17171,-3.51395 4.85918,-5.9046 17.36528,-5.9046 11.55799,0 21.01453,2.65707 21.01453,5.9046 0,3.24751 -7.81436,5.90459 -17.36528,5.90459 -9.5509,0 -19.00745,-2.65708 -21.01453,-5.90459 z m 2.95229,-23.61836 c 0,-3.24753 7.9712,-5.90459 17.71376,-5.90459 9.74258,0 17.71376,2.65706 17.71376,5.90459 0,3.24752 -7.97118,5.90458 -17.71376,5.90458 -9.74256,0 -17.71376,-2.65706 -17.71376,-5.90458 z m 72.99234,-19.18991 c -5.38321,-18.86628 -6.16848,-19.23968 -46.5604,-22.1422 -34.1989,-2.45749 -41.43875,-4.81296 -43.19625,-14.05392 -3.06831,-16.13294 9.07819,-21.18135 51.20771,-21.28322 27.25168,-0.0661 36.73375,-2.09252 34.95523,-7.47112 -3.54441,-10.71919 -81.05375,-13.1128 -94.975416,-2.93305 -7.592293,5.55168 -11.723847,18.62125 -14.071756,44.51398 -1.828061,20.16014 -5.95407,36.65485 -9.168931,36.65485 -5.511524,0 -2.402406,-43.0755 5.405817,-74.89504 4.568261,-18.61627 32.006416,-26.07666 79.628216,-21.65064 36.98841,3.43771 40.54308,4.93259 40.54308,17.04992 0,16.46116 -9.88357,20.44988 -50.67194,20.44988 -17.59571,0 -31.99228,2.65706 -31.99228,5.90459 0,5.81638 12.17295,8.64124 29.52293,6.8511 4.87128,-0.50248 17.69404,0.56565 28.495,2.37376 15.36179,2.57168 21.46914,7.66989 28.0468,23.4124 9.7937,23.43956 10.17125,26.40862 3.35823,26.40862 -2.77775,0 -7.51448,-8.63546 -10.52604,-19.18991 z"
       id="path3118"
       inkscape:connector-curvature="0" />
  </g>
</svg>
