<?xml version="1.0" encoding="UTF-8" standalone="no"?>
<!-- Created with Inkscape (http://www.inkscape.org/) -->

<svg
   xmlns:dc="http://purl.org/dc/elements/1.1/"
   xmlns:cc="http://creativecommons.org/ns#"
   xmlns:rdf="http://www.w3.org/1999/02/22-rdf-syntax-ns#"
   xmlns:svg="http://www.w3.org/2000/svg"
   xmlns="http://www.w3.org/2000/svg"
   xmlns:sodipodi="http://sodipodi.sourceforge.net/DTD/sodipodi-0.dtd"
   xmlns:inkscape="http://www.inkscape.org/namespaces/inkscape"
   width="300"
   height="300"
   id="svg2"
   version="1.1"
   inkscape:version="0.48.4 r9939"
   sodipodi:docname="image-seal.svg">
  <defs
     id="defs4" />
  <sodipodi:namedview
     id="base"
     pagecolor="#ffffff"
     bordercolor="#666666"
     borderopacity="1.0"
     inkscape:pageopacity="0.0"
     inkscape:pageshadow="2"
     inkscape:zoom="1.979899"
     inkscape:cx="200.43343"
     inkscape:cy="122.13442"
     inkscape:document-units="px"
     inkscape:current-layer="layer1"
     showgrid="false"
     inkscape:window-width="1215"
     inkscape:window-height="1000"
     inkscape:window-x="65"
     inkscape:window-y="24"
     inkscape:window-maximized="1" />
  <metadata
     id="metadata7">
    <rdf:RDF>
      <cc:Work
         rdf:about="">
        <dc:format>image/svg+xml</dc:format>
        <dc:type
           rdf:resource="http://purl.org/dc/dcmitype/StillImage" />
        <dc:title />
      </cc:Work>
    </rdf:RDF>
  </metadata>
  <g
     inkscape:label="Calque 1"
     inkscape:groupmode="layer"
     id="layer1"
     transform="translate(0,-752.36218)">
    <path
       style="fill:#000000"
       d="m 98.555601,1026.374 c -9.243785,-9.2437 1.183096,-47.81888 14.825229,-54.84721 3.80308,-1.95932 8.38802,-4.95155 10.18877,-6.64938 3.97839,-3.75103 4.38321,-9.69435 0.49674,-7.29238 -4.09292,2.52957 -17.49924,-3.76205 -18.80408,-8.82478 -2.00927,-7.79576 0.98139,-74.7858 3.55319,-79.59129 3.77518,-7.054 7.55117,-5.59785 7.55117,2.91196 0,7.70486 3.77695,10.75732 13.31056,10.75732 8.40523,0 5.611,7.30657 -4.14313,10.83369 -12.84224,4.6438 -12.47091,12.15008 0.65482,13.2364 6.62342,0.54817 9.82225,2.09248 9.82225,4.74183 0,2.64937 -3.19883,4.19366 -9.82225,4.74184 l -9.82225,0.81292 0,12.93824 c 0,11.97118 0.47788,12.9382 6.3936,12.9382 3.51647,0 7.12202,1.17868 8.01236,2.61928 0.89034,1.44059 2.52454,2.61927 3.63152,2.61927 2.30054,0 7.67871,-49.34889 7.65537,-70.24426 -0.0183,-15.38776 0.97495,-17.57482 6.93501,-15.28769 4.99812,1.91792 5.59053,38.77942 1.16801,72.67397 -3.21722,24.65698 -6.11779,30.83473 -17.07183,36.35995 -19.02413,9.59576 -21.26266,12.3308 -23.07103,28.18842 -3.39388,29.7607 -4.81012,33.0177 -11.464029,26.3637 z m 97.136559,-1.306 c -0.92038,-2.3985 0.39452,-9.7453 2.922,-16.3263 6.18943,-16.11574 9.84811,-31.01625 10.33402,-42.08694 0.22134,-5.04209 1.87574,-10.72494 3.67648,-12.6286 3.95639,-4.18245 4.34928,-30.23433 0.56267,-37.30964 -5.18988,-9.69743 -9.60595,-5.32745 -16.71707,16.5426 -3.8644,11.88491 -9.91393,27.82918 -13.44336,35.43169 -3.52943,7.60252 -6.41715,14.38626 -6.41715,15.07503 0,0.68874 -4.41665,8.31787 -9.81482,16.95366 -6.2775,10.0426 -11.57044,15.7013 -14.68619,15.7013 -3.61211,0 -4.38358,-1.1849 -2.98434,-4.5837 1.03786,-2.521 2.5219,-6.941 3.29789,-9.8222 0.77598,-2.88121 3.58892,-8.36721 6.25102,-12.19107 2.66206,-3.82387 4.84011,-8.31815 4.84011,-9.98728 0,-1.66914 3.6512,-10.91656 8.11378,-20.54981 4.46257,-9.63324 9.05979,-19.87234 10.21604,-22.75353 1.15624,-2.8812 4.71528,-11.1184 7.90895,-18.30492 4.67885,-10.52843 5.53037,-16.11353 4.38412,-28.75473 -1.83383,-20.22385 0.54227,-40.02326 5.00885,-41.73722 4.92242,-1.88891 12.15709,6.08655 10.17007,11.2114 -0.90546,2.33528 -2.28757,9.6038 -3.07136,16.15224 -1.31589,10.99397 -0.70162,12.65121 8.01705,21.62906 14.19942,14.62149 18.37173,26.398 15.0303,42.42342 -1.50188,7.20299 -3.23995,18.03487 -3.86234,24.07085 -0.62238,6.03598 -3.02128,14.76244 -5.33086,19.39212 -2.30959,4.62966 -4.19927,10.6098 -4.19927,13.28924 0,2.67941 -1.08034,6.91833 -2.40076,9.41983 -1.32045,2.5015 -3.78571,8.2941 -5.47836,12.8726 -3.57555,9.6714 -9.90012,13.1965 -12.32747,6.8709 z M 67.11162,953.46162 c -3.332816,-5.39341 -3.26636,-11.2718 0.794991,-70.32084 1.389186,-20.19773 9.855208,-25.84973 12.223312,-8.16034 0.737141,5.50648 2.464574,6.679 10.859061,7.37063 8.572652,0.70635 9.867326,1.63111 9.167436,6.54817 -0.646881,4.54434 -2.841565,5.89341 -10.63729,6.53863 -7.577356,0.62713 -9.82225,1.93793 -9.82225,5.73522 0,3.79504 2.24445,5.10849 9.800485,5.73524 14.220735,1.17959 14.992975,8.87126 1.125864,11.2141 -9.627297,1.62651 -10.426645,2.44757 -12.007531,12.33384 -1.967278,12.3028 0.988616,17.19497 11.09511,18.36297 4.125973,0.47684 7.011306,2.42714 7.011306,4.7392 0,2.86814 -3.535826,4.1321 -13.096334,4.68155 -10.970119,0.63044 -13.651223,-0.14529 -16.51416,-4.77837 z m 92.57639,-86.17153 c -0.83343,-1.34854 3.29566,-9.8939 9.17573,-18.98969 l 10.69103,-16.53788 -1.15376,-23.5734 c -0.63457,-12.96536 -1.59188,-26.49742 -2.12734,-30.0712 -0.66102,-4.41199 0.37972,-6.76307 3.24221,-7.32417 5.30965,-1.04079 10.31637,10.51611 11.54701,26.65377 0.50279,6.59338 1.58569,13.07446 2.4064,14.40241 0.82073,1.32796 0.0783,8.70889 -1.64987,16.40208 -5.79118,25.78021 -25.51499,49.74368 -32.13141,39.03808 z m 69.94476,-0.82228 c -1.44264,-1.80075 -5.3214,-8.5781 -8.61944,-15.06077 -5.16305,-10.14852 -6.12397,-16.6191 -6.91381,-46.55553 -0.99144,-37.57822 0.26409,-41.07051 12.42549,-34.56193 4.59425,2.45879 5.04433,3.56826 2.16913,5.34722 -2.69314,1.6663 -3.62334,8.84901 -3.61008,27.87558 0.0159,23.95148 0.57443,26.64817 8.51261,41.1568 4.67212,8.53926 8.49475,17.67394 8.49475,20.29931 0,5.52212 -8.42364,6.53585 -12.45865,1.49932 z M 83.62578,854.39152 c -16.847376,-10.40653 -17.7726,-12.94446 -16.082809,-44.11568 0.843163,-15.55365 1.565383,-28.59137 1.604935,-28.9727 0.03955,-0.38132 3.902585,-3.02893 8.584524,-5.88355 5.529639,-3.3715 13.178317,-5.19367 21.827241,-5.20004 14.504029,-0.0106 17.183389,1.20003 15.036609,6.79446 -0.94723,2.46843 -5.67336,3.67281 -14.41257,3.67281 -13.575162,0 -20.48683,4.01639 -20.48683,11.90496 0,3.28034 1.520877,4.03687 5.89335,2.93155 20.66785,-5.22471 20.29932,-5.23514 20.29932,0.57374 0,3.04914 -1.58691,5.54389 -3.52648,5.54389 -5.052486,0 -18.913567,7.26506 -22.803414,11.95206 -2.369571,2.85515 -2.504988,4.78829 -0.477414,6.81587 2.027576,2.02755 5.045153,1.25319 10.639436,-2.73026 7.696951,-5.48074 16.297492,-7.17716 19.607172,-3.86745 0.93123,0.93119 -5.26346,5.80846 -13.76597,10.83833 -13.700862,8.10509 -15.1127,9.69994 -12.41323,14.02246 5.373924,8.60506 59.40963,5.67391 59.40963,-3.22262 0,-2.6381 -14.37291,-12.85426 -18.08438,-12.85426 -1.57835,0 -2.86975,-1.84742 -2.86975,-4.10541 0,-4.3621 5.99002,-3.65344 17.67613,2.09125 3.23916,1.59234 6.62205,2.16246 7.51752,1.26699 2.90579,-2.90575 -1.60634,-14.96843 -5.59905,-14.96843 -2.13344,0 -3.879,-1.17867 -3.879,-2.61927 0,-1.4406 -2.12161,-2.61926 -4.71468,-2.61926 -4.85819,0 -11.00092,-4.68019 -11.00092,-8.38166 0,-3.63182 7.35848,-2.28638 16.94559,3.09839 7.37077,4.1399 9.24708,4.43065 9.24708,1.43287 0,-10.6673 -11.9068,-22.34227 -22.78595,-22.34227 -1.87369,0 -3.40672,-2.35735 -3.40672,-5.23852 0,-2.9271 1.74619,-5.23855 3.95745,-5.23855 8.04514,0 26.83022,10.91015 29.72524,17.26407 1.64289,3.60571 2.98704,18.23349 2.98704,32.5062 0,24.24865 -0.4332,26.38355 -6.60602,32.55641 -10.47935,10.47931 -15.25925,11.96754 -38.40414,11.95713 -16.619848,-0.007 -23.643124,-1.15995 -29.63894,-4.86351 z"
       id="path3498"
       inkscape:connector-curvature="0" />
  </g>
</svg>
