<?xml version="1.0" encoding="UTF-8" standalone="no"?>
<!-- Created with Inkscape (http://www.inkscape.org/) -->

<svg
   xmlns:dc="http://purl.org/dc/elements/1.1/"
   xmlns:cc="http://creativecommons.org/ns#"
   xmlns:rdf="http://www.w3.org/1999/02/22-rdf-syntax-ns#"
   xmlns:svg="http://www.w3.org/2000/svg"
   xmlns="http://www.w3.org/2000/svg"
   xmlns:sodipodi="http://sodipodi.sourceforge.net/DTD/sodipodi-0.dtd"
   xmlns:inkscape="http://www.inkscape.org/namespaces/inkscape"
   width="300"
   height="300"
   id="svg2"
   version="1.1"
   inkscape:version="0.48.4 r9939"
   sodipodi:docname="image-seal.svg">
  <defs
     id="defs4" />
  <sodipodi:namedview
     id="base"
     pagecolor="#ffffff"
     bordercolor="#666666"
     borderopacity="1.0"
     inkscape:pageopacity="0.0"
     inkscape:pageshadow="2"
     inkscape:zoom="2.0018437"
     inkscape:cx="138.54008"
     inkscape:cy="168.92159"
     inkscape:document-units="px"
     inkscape:current-layer="layer1"
     showgrid="false"
     inkscape:window-width="1215"
     inkscape:window-height="1000"
     inkscape:window-x="65"
     inkscape:window-y="24"
     inkscape:window-maximized="1"
     fit-margin-top="10"
     fit-margin-left="10"
     fit-margin-right="10"
     fit-margin-bottom="10" />
  <metadata
     id="metadata7">
    <rdf:RDF>
      <cc:Work
         rdf:about="">
        <dc:format>image/svg+xml</dc:format>
        <dc:type
           rdf:resource="http://purl.org/dc/dcmitype/StillImage" />
        <dc:title />
      </cc:Work>
    </rdf:RDF>
  </metadata>
  <g
     inkscape:label="Calque 1"
     inkscape:groupmode="layer"
     id="layer1"
     transform="translate(0,-752.36218)">
    <path
       style="fill:#000000"
       d="m 90.766493,1045.5926 c -3.554115,-3.5541 1.501282,-40.6429 6.872589,-50.42067 2.920768,-5.31688 6.167218,-9.66706 7.214318,-9.66706 1.04711,0 7.7938,-5.36014 14.99262,-11.91142 l 13.08881,-11.91144 0.0155,-39.00175 c 0.0129,-37.79442 2.77473,-58.3359 7.84044,-58.3359 2.31682,0 4.24225,47.19697 3.28382,80.49445 -0.51154,17.77046 -8.57344,33.82224 -19.19717,38.22274 -10.68531,4.426 -17.72033,11.34034 -17.72033,17.41645 0,2.9401 -1.16005,6.0626 -2.57789,6.9389 -1.41784,0.8763 -2.57789,7.9813 -2.57789,15.7889 0,18.2668 -5.130189,28.4903 -11.233697,22.3868 z m 62.212517,-20.2798 c -3.28372,-3.2837 1.58199,-11.05 10.44381,-16.6696 17.82603,-11.30425 22.74211,-20.36607 24.93257,-45.95811 1.8272,-21.34815 8.92255,-15.70503 8.98713,7.14764 0.0392,13.89704 0.13817,14.06944 18.08468,31.48977 9.92486,9.634 18.0452,18.7165 18.0452,20.1835 0,5.56 -10.90934,2.3523 -17.1259,-5.0357 -3.56481,-4.2365 -9.94042,-10.1657 -14.16799,-13.1761 -7.09579,-5.0526 -8.02125,-5.15262 -12.04178,-1.3013 -6.00832,5.7554 -32.2169,24.7581 -34.14637,24.7581 -0.86524,0 -2.22033,-0.6472 -3.01135,-1.4382 z M 74.802773,962.16069 c -4.582786,-5.06391 -4.997777,-9.32768 -4.745736,-48.75859 0.15184,-23.76517 1.058171,-44.47462 2.013872,-46.02099 3.435035,-5.55799 9.306192,0.018 9.306192,8.83953 0,8.00005 0.660221,8.74679 7.73366,8.74679 5.843217,0 7.73366,1.18152 7.73366,4.83353 0,3.30827 -2.440403,5.3216 -7.73366,6.38026 -6.837789,1.36757 -7.73366,2.59936 -7.73366,10.63377 0,8.37812 0.603331,9.08704 7.73366,9.08704 11.491979,0 8.582221,8.40444 -3.698075,10.6814 -5.427947,1.00643 -8.22583,13.47803 -5.478967,24.42245 1.290752,5.14278 2.639994,5.77405 9.435892,4.41489 7.235459,-1.4471 7.85343,-1.0459 7.057809,4.582 -1.219591,8.6271 -14.564928,9.95883 -21.624647,2.15792 z m 29.755017,0.10518 c -2.95756,-5.52623 -3.9007,-91.08501 -1.05482,-95.68976 0.75867,-1.22753 3.05101,-2.23188 5.09408,-2.23188 2.61521,0 3.71469,3.05201 3.71469,10.31154 0,9.73867 0.42966,10.31153 7.73365,10.31153 5.84322,0 7.73366,1.18152 7.73366,4.83353 0,3.30827 -2.4404,5.3216 -7.73366,6.38026 -6.50176,1.30036 -7.73365,2.76161 -7.73365,9.1736 0,6.34482 1.15824,7.76397 6.89037,8.44257 9.08294,1.07526 10.6309,6.60709 2.69336,9.62494 -7.28343,2.76916 -9.58373,7.47779 -9.58373,19.61764 0,6.91708 1.43403,9.35839 7.08918,12.06885 10.33323,4.95258 9.12575,10.89253 -2.40929,11.85197 -7.52632,0.62599 -10.10792,-0.34876 -12.43384,-4.69479 z m 54.1559,-11.56255 c 0,-3.54459 1.1112,-6.44471 2.46934,-6.44471 3.4226,0 21.93048,-18.10584 25.51921,-24.96489 1.62036,-3.09691 2.94609,-10.92723 2.94609,-17.40071 0,-8.34182 1.04592,-11.76995 3.59102,-11.76995 4.97209,0 7.11873,6.85632 5.25576,16.78684 -1.30706,6.96725 -0.34881,9.49272 5.74836,15.14968 4.02429,3.73376 9.34698,7.43402 11.8282,8.22283 2.48121,0.78883 4.51129,2.51609 4.51129,3.83839 0,1.32228 1.35873,2.40416 3.01938,2.40416 4.99785,0 12.19833,7.96249 10.70934,11.84269 -1.97131,5.13713 -12.79921,4.49787 -16.8049,-0.99217 -3.81513,-5.22888 -18.50655,-16.00791 -21.81168,-16.00314 -1.19898,0.002 -5.66009,2.91213 -9.9136,6.46752 -4.25352,3.55542 -11.17357,9.35424 -15.37789,12.88627 -9.59884,8.06396 -11.68992,8.05988 -11.68992,-0.0232 z m -1.36662,-40.20181 c -1.10029,-3.46671 0.60349,-8.68862 5.005,-15.33971 3.67024,-5.54611 6.67317,-11.28448 6.67317,-12.75197 0,-1.46746 1.4416,-4.9765 3.20354,-7.79784 4.5154,-7.23026 -0.25186,-13.81 -11.17491,-15.42339 -5.60211,-0.82748 -9.03525,-2.90409 -9.58912,-5.80024 -0.70748,-3.69934 1.02719,-4.5113 9.63782,-4.5113 11.975,0 12.30445,-0.96781 6.66162,-19.56889 -4.59037,-15.13176 -4.98873,-31.92298 -0.96677,-40.75022 1.64834,-3.61765 7.20729,-8.13843 12.71948,-10.34396 8.20201,-3.2818 9.92373,-5.29227 10.60594,-12.38477 0.62299,-6.47693 2.02625,-8.46701 5.9702,-8.46701 3.78092,0 5.15578,1.7186 5.15578,6.44471 0,8.28975 4.43203,12.88942 12.41971,12.88942 7.46002,0 15.25562,6.37528 19.08088,15.60441 2.1616,5.21529 1.47436,10.42723 -3.31012,25.10325 -9.08447,27.86578 -9.12765,27.4112 2.74417,28.89518 8.16331,1.0204 10.31154,2.36307 10.31154,6.44471 0,4.09736 -1.98536,5.32005 -9.67127,5.95609 l -9.67128,0.80036 1.65111,14.66694 c 0.90811,8.06684 3.23009,17.79949 5.15997,21.62813 4.83393,9.58993 4.39177,14.95085 -1.23313,14.95085 -6.75669,0 -18.3663,-28.0104 -18.43109,-44.46849 -0.0266,-6.76519 -0.60508,-7.08917 -12.65776,-7.08917 l -12.62983,0 -1.32034,10.956 c -2.15785,17.90543 -4.7791,26.15332 -9.86321,31.03501 -2.64161,2.53645 -4.80293,5.44753 -4.80293,6.46909 0,1.02154 -2.25225,3.26391 -5.00502,4.98302 -4.27094,2.66726 -5.24966,2.35485 -6.67315,-2.13021 z m 57.88846,-82.21877 c 5.66039,-16.62624 7.56803,-32.17992 4.34245,-35.4055 -0.73411,-0.7341 -6.80503,-2.35672 -13.49094,-3.60576 -9.69945,-1.81207 -14.02166,-1.35854 -21.38663,2.24397 -10.18982,4.98429 -10.93321,9.28077 -5.99833,34.66794 3.1867,16.39377 6.83176,20.11579 19.69972,20.11579 l 10.70006,0 6.13367,-18.01644 z M 99.422314,856.61071 c -2.126763,-1.37442 -6.428038,-2.51671 -9.558422,-2.53841 -3.967495,-0.0276 -7.67669,-3.42681 -12.244956,-11.22197 -5.719487,-9.75958 -6.553378,-14.16652 -6.553378,-34.6336 0,-12.8981 1.131121,-26.42621 2.513623,-30.06245 5.144507,-13.53107 33.576779,-23.49727 33.576779,-11.76948 0,2.88486 -1.71859,5.15577 -3.90181,5.15577 -4.215897,0 -13.215068,4.5992 -18.555005,9.48292 -5.082816,4.64854 -4.014255,11.14014 1.833733,11.14014 2.835673,0 5.155776,-1.16004 5.155776,-2.57788 0,-1.41783 2.320093,-2.57788 5.155767,-2.57788 8.356449,0 5.926349,6.53857 -5.155767,13.87236 -11.283154,7.46684 -14.182628,17.06224 -5.155776,17.06224 2.835673,0 5.155776,-1.16005 5.155776,-2.57789 0,-1.41783 2.996784,-2.57788 6.659528,-2.57788 8.833488,0 6.974678,5.3951 -3.473704,10.08223 -10.250653,4.59843 -11.827085,8.70548 -5.944787,15.48782 3.954175,4.55919 7.606519,5.36455 24.328879,5.36455 13.85951,0 19.76656,-0.95261 19.98168,-3.22236 0.68912,-7.27027 -1.09603,-11.3409 -8.25011,-18.81238 -6.97726,-7.2868 -10.10315,-16.63351 -5.56287,-16.63351 1.07787,0 5.15196,2.95998 9.05354,6.57773 7.12321,6.605 12.18768,6.53519 12.18768,-0.16808 0,-4.63382 -11.18591,-15.83318 -17.96238,-17.98393 -2.88123,-0.91448 -5.2386,-3.87972 -5.2386,-6.58946 0,-4.38977 0.77269,-4.59691 7.08919,-1.90029 3.89905,1.66457 8.40378,3.98941 10.01049,5.16631 4.1676,3.05268 6.66626,-5.00872 3.42798,-11.05955 -1.46017,-2.72833 -7.39428,-7.37847 -13.1869,-10.33365 -12.81169,-6.53602 -10.14692,-10.48343 5.15663,-7.63876 18.71122,3.47813 19.72668,5.77789 19.72278,44.66757 -0.003,28.49953 -0.75851,35.17612 -4.62621,40.87551 -6.79658,10.01528 -35.76295,16.32666 -45.639156,9.94416 z"
       id="path3132"
       inkscape:connector-curvature="0" />
  </g>
</svg>
