<?xml version="1.0" encoding="UTF-8" standalone="no"?>
<!-- Created with Inkscape (http://www.inkscape.org/) -->

<svg
   xmlns:dc="http://purl.org/dc/elements/1.1/"
   xmlns:cc="http://creativecommons.org/ns#"
   xmlns:rdf="http://www.w3.org/1999/02/22-rdf-syntax-ns#"
   xmlns:svg="http://www.w3.org/2000/svg"
   xmlns="http://www.w3.org/2000/svg"
   xmlns:sodipodi="http://sodipodi.sourceforge.net/DTD/sodipodi-0.dtd"
   xmlns:inkscape="http://www.inkscape.org/namespaces/inkscape"
   width="300"
   height="300"
   id="svg2"
   version="1.1"
   inkscape:version="0.48.4 r9939"
   sodipodi:docname="dessin.svg">
  <defs
     id="defs4" />
  <sodipodi:namedview
     id="base"
     pagecolor="#ffffff"
     bordercolor="#666666"
     borderopacity="1.0"
     inkscape:pageopacity="0.0"
     inkscape:pageshadow="2"
     inkscape:zoom="1.979899"
     inkscape:cx="218.29155"
     inkscape:cy="144.09165"
     inkscape:document-units="px"
     inkscape:current-layer="layer1"
     showgrid="false"
     inkscape:window-width="1215"
     inkscape:window-height="1000"
     inkscape:window-x="65"
     inkscape:window-y="24"
     inkscape:window-maximized="1" />
  <metadata
     id="metadata7">
    <rdf:RDF>
      <cc:Work
         rdf:about="">
        <dc:format>image/svg+xml</dc:format>
        <dc:type
           rdf:resource="http://purl.org/dc/dcmitype/StillImage" />
        <dc:title />
      </cc:Work>
    </rdf:RDF>
  </metadata>
  <g
     inkscape:label="Calque 1"
     inkscape:groupmode="layer"
     id="layer1"
     transform="translate(0,-752.36218)">
    <path
       style="fill:#000000"
       d="m 245.79567,1047.9799 c -4.16256,-2.5413 -18.7151,-23.0897 -24.92782,-35.1985 -11.21274,-21.85401 -15.01531,-49.85275 -10.22687,-75.30156 3.80045,-20.19801 13.93846,-52.66466 17.02219,-54.51299 2.48304,-1.4883 5.4432,-15.71733 7.5199,-36.14684 1.56757,-15.42105 -0.31033,-18.4539 -13.14527,-21.22989 -9.75568,-2.11 -12.88528,0.42042 -15.3257,12.3915 -3.9438,19.34576 -6.63985,30.86355 -12.93688,55.26756 -8.74602,33.89493 -10.78918,56.51842 -9.34417,103.46601 1.19086,38.69161 1.00405,40.48671 -4.21348,40.48671 -5.91976,0 -7.63623,-6.949 -10.55902,-42.74662 -1.78814,-21.90104 6.64185,-86.62513 15.35783,-117.9149 9.83087,-35.29204 10.03791,-47.07388 0.76621,-43.60029 -8.99374,3.36945 -13.16525,2.52337 -13.16525,-2.67022 0,-3.58656 2.92615,-6.00168 9.67699,-7.98689 13.82603,-4.06578 15.67687,-11.04884 7.32935,-27.65275 -3.7809,-7.5205 -8.83622,-15.15498 -11.23402,-16.96552 -2.39778,-1.81057 -4.35963,-5.54064 -4.35963,-8.28908 0,-3.9301 1.65128,-4.82348 7.73305,-4.18377 8.93175,0.93949 19.0702,15.40231 24.58523,35.07168 3.17059,11.30793 3.9622,12.02298 15.63586,14.12334 6.76291,1.21686 13.79608,3.57702 15.62923,5.24487 12.80208,11.64763 13.1835,33.78223 1.17278,68.0588 -4.78685,13.66091 -9.87251,28.39044 -11.30147,32.73229 -1.42892,4.34185 -2.59806,20.20394 -2.59806,35.24908 0,29.95193 4.31379,44.78988 19.25544,66.23198 4.38528,6.2932 8.70835,14.0023 9.60677,17.1314 1.77269,6.1741 -3.24596,11.8183 -7.95319,8.9446 z m -107.33873,-10.1771 c -2.94171,-1.8007 -7.224,-23.1512 -11.10719,-55.37785 -1.60857,-13.34959 -2.43558,-14.84868 -7.79979,-14.13823 -6.05982,0.80256 -7.73131,6.3269 -14.76821,48.80968 -1.95541,11.8052 -10.16143,21.5374 -16.340735,19.3801 -4.156936,-1.4514 -4.153686,-2.2755 0.03898,-9.9222 5.502602,-10.0356 9.051725,-24.0291 11.201345,-44.16476 l 1.59799,-14.96827 -20.13204,1.80487 c -19.276863,1.72819 -20.132074,1.57236 -20.132074,-3.66844 0,-4.55505 1.777553,-5.52612 10.595129,-5.78799 70.504005,-2.09394 98.116915,-1.17892 95.173675,3.15388 -0.86001,1.26609 -7.21002,2.30195 -14.11109,2.30195 -12.29285,0 -12.5454,0.1695 -12.44816,8.3544 0.0546,4.59493 1.64386,15.29498 3.53172,23.7779 4.15886,18.68746 4.47566,40.34146 0.60708,41.49126 -1.55395,0.4619 -4.21197,-0.01 -5.90672,-1.0463 z m -29.41038,-92.92359 c -13.27742,-2.51059 -27.171078,-9.36726 -29.32398,-14.47172 -0.965287,-2.28867 -1.755062,-13.4033 -1.755062,-24.69926 0,-28.17923 0.113015,-28.25361 43.686632,-28.75998 22.80188,-0.26496 36.21966,0.60571 38.29952,2.4853 1.84804,1.67008 3.15404,11.1577 3.08929,22.44238 -0.16896,29.46031 -8.7285,40.83129 -32.80614,43.58201 -6.2158,0.71011 -15.75143,0.44969 -21.19026,-0.57873 z m 5.65074,-21.91659 c 0,-13.75559 -2.59792,-15.62707 -15.70619,-11.3145 -8.765705,2.88388 -9.798067,4.11108 -8.232503,9.78628 2.6485,9.60085 6.731613,12.94413 15.808533,12.94413 7.73616,0 8.13016,-0.55323 8.13016,-11.41591 z m 31.85704,1.84687 c 6.49784,-10.15174 4.5652,-13.56622 -7.67865,-13.56622 -10.36144,0 -13.30194,4.53001 -10.76823,16.58905 1.96996,9.37577 11.51174,7.81218 18.44688,-3.02283 z m -29.559,-30.91766 c 0.96868,-9.14072 -1.31425,-9.94725 -19.03108,-6.72342 -10.702271,1.94744 -10.794067,8.14189 -0.19411,13.09915 11.54632,5.39992 18.21153,3.18951 19.22519,-6.37573 z m 31.17803,4.79379 c 2.09533,-1.20814 3.35618,-4.37151 2.80188,-7.02976 -0.73355,-3.51775 -3.88503,-5.05026 -11.57949,-5.63098 -9.51185,-0.71783 -10.57162,-0.18085 -10.57162,5.35541 0,3.38425 0.8476,6.92438 1.88359,7.86692 2.63507,2.39747 12.90634,2.06721 17.46564,-0.56159 z m -46.96615,-35.37627 c -12.688677,-2.52986 -15.952598,-11.84013 -17.142897,-48.89957 -1.048127,-32.63295 -0.83727,-34.2663 4.423904,-34.2663 3.150963,0 6.907153,2.761 8.742793,6.42646 1.77006,3.53455 4.46744,6.42646 5.99418,6.42646 4.84672,0 14.29747,-11.04029 14.29747,-16.70219 0,-2.99776 1.82154,-7.69588 4.04785,-10.44027 5.67805,-6.99945 10.52779,-1.94132 11.57262,12.0699 0.57204,7.67158 2.72608,12.45365 7.04169,15.6331 8.97487,6.61202 11.24225,5.72132 11.24225,-4.41642 0,-7.28332 1.07632,-8.99704 5.65073,-8.99704 5.34447,0 5.65074,1.71372 5.65074,31.6198 0,32.78387 -2.4575,42.44664 -12.2037,47.98438 -5.70847,3.24354 -38.89321,5.64011 -49.31763,3.56169 z m 44.91941,-14.19167 c 4.79027,-6.88284 0.2427,-8.56547 -23.14998,-8.56547 -20.38916,0 -23.87631,0.6369 -24.69629,4.51076 -0.59036,2.78907 1.55166,5.4852 5.61205,7.06378 8.90819,3.46329 39.23335,1.30272 42.23422,-3.00907 z m 2.47508,-22.92676 c 0,-4.47944 -2.268,-4.91809 -25.42831,-4.91809 -19.30666,0 -25.42831,0.82513 -25.42831,3.42742 0,5.87851 2.73586,6.5308 27.13283,6.46893 21.4585,-0.0545 23.72379,-0.52976 23.72379,-4.97826 z M 136.5939,811.94085 c 8.59177,-2.09487 8.00553,-3.79334 -3.68838,-10.68628 l -9.97549,-5.88 -8.08423,5.23736 c -4.44634,2.88057 -9.7315,5.23739 -11.74486,5.23739 -5.9448,0 0.90382,4.57464 8.77099,5.85872 11.23315,1.83346 17.89966,1.89626 24.72197,0.2329 z"
       id="path3184"
       inkscape:connector-curvature="0" />
  </g>
</svg>
