<?xml version="1.0" encoding="UTF-8" standalone="no"?>
<!-- Created with Inkscape (http://www.inkscape.org/) -->

<svg
   xmlns:dc="http://purl.org/dc/elements/1.1/"
   xmlns:cc="http://creativecommons.org/ns#"
   xmlns:rdf="http://www.w3.org/1999/02/22-rdf-syntax-ns#"
   xmlns:svg="http://www.w3.org/2000/svg"
   xmlns="http://www.w3.org/2000/svg"
   xmlns:sodipodi="http://sodipodi.sourceforge.net/DTD/sodipodi-0.dtd"
   xmlns:inkscape="http://www.inkscape.org/namespaces/inkscape"
   width="300"
   height="300"
   id="svg2"
   version="1.1"
   inkscape:version="0.48.4 r9939"
   sodipodi:docname="image-seal.svg">
  <defs
     id="defs4" />
  <sodipodi:namedview
     id="base"
     pagecolor="#ffffff"
     bordercolor="#666666"
     borderopacity="1.0"
     inkscape:pageopacity="0.0"
     inkscape:pageshadow="2"
     inkscape:zoom="1.979899"
     inkscape:cx="208.71801"
     inkscape:cy="159.09469"
     inkscape:document-units="px"
     inkscape:current-layer="layer1"
     showgrid="false"
     inkscape:window-width="1215"
     inkscape:window-height="1000"
     inkscape:window-x="65"
     inkscape:window-y="24"
     inkscape:window-maximized="1" />
  <metadata
     id="metadata7">
    <rdf:RDF>
      <cc:Work
         rdf:about="">
        <dc:format>image/svg+xml</dc:format>
        <dc:type
           rdf:resource="http://purl.org/dc/dcmitype/StillImage" />
        <dc:title />
      </cc:Work>
    </rdf:RDF>
  </metadata>
  <g
     inkscape:label="Calque 1"
     inkscape:groupmode="layer"
     id="layer1"
     transform="translate(0,-752.36218)">
    <path
       style="fill:#000000"
       d="m 214.63688,1041.3315 c -0.12554,-3.3919 -0.76145,-9.2508 -1.41289,-13.0196 -0.65145,-3.7689 -2.14901,-20.8098 -3.32791,-37.8688 -2.38909,-34.5713 -3.25094,-36.02805 -21.3551,-36.09562 -8.25624,-0.0307 -13.2799,-1.92425 -18.88315,-7.11714 l -7.63423,-7.07515 1.92817,-52.09065 c 2.04666,-55.29321 2.7099,-59.84403 8.7216,-59.84403 4.42329,0 4.37633,-0.39309 3.60124,30.15076 -1.04585,41.21256 -1.58848,50.49096 -3.62568,61.99504 -1.5762,8.90075 -1.1101,11.62794 2.20465,12.89992 2.31187,0.88718 4.71141,0.74179 5.33227,-0.32299 0.62088,-1.06482 1.35418,-14.20022 1.62959,-29.18975 0.27539,-14.98956 1.57837,-32.9362 2.89552,-39.8814 1.31712,-6.94523 2.6966,-29.21738 3.06551,-49.49369 0.65287,-35.88505 2.90152,-46.45942 9.87955,-46.45942 4.79291,0 7.12986,11.58921 5.10724,25.32736 -0.94544,6.42172 -2.88984,23.80868 -4.32091,38.63771 -1.43103,14.82904 -3.59536,32.71393 -4.80962,39.74418 -1.21422,7.03028 -1.49372,17.09938 -0.62108,22.37576 l 1.58662,9.59343 4.15985,-9.59343 c 2.28789,-5.27638 4.44194,-15.76062 4.78676,-23.29832 0.34479,-7.53769 1.77508,-21.72225 3.17838,-31.52125 1.4033,-9.799 2.57592,-23.6752 2.60577,-30.83601 0.0403,-9.64681 1.10587,-13.01964 4.11355,-13.01964 7.40072,0 8.19245,16.22253 2.59592,53.19214 -1.49991,9.90828 -1.20079,12.93191 1.1365,11.48738 1.74474,-1.0783 3.17224,-4.16346 3.17224,-6.85592 0,-5.74545 8.27537,-13.96795 14.05777,-13.96795 2.21797,0 5.4299,-1.39721 7.13761,-3.10492 3.57514,-3.57514 11.69636,-1.30082 11.69636,3.27552 0,1.69598 -2.46688,3.72872 -5.48195,4.51716 -4.78526,1.25137 -5.53231,3.91848 -5.87806,20.98597 -0.87714,43.29792 0.88569,96.84774 3.48595,105.89324 3.57517,12.43689 2.04025,47.19381 -2.1452,48.57581 -6.20695,2.0495 -10.64086,-23.38397 -11.69389,-67.07742 -0.18118,-7.52121 -1.24095,-8.90818 -6.80629,-8.90818 -5.97193,0 -6.49527,0.96634 -5.56649,10.27867 4.8767,48.89583 6.94249,81.48013 5.52406,87.13173 -2.13084,8.4899 -9.73102,8.9286 -10.04023,0.5795 z m -8.11774,-102.54707 c 0.68601,-0.62437 1.71824,-9.41359 2.29384,-19.53159 1.00285,-17.62789 0.85837,-18.13878 -3.45843,-12.2292 -2.47776,3.39196 -6.21242,6.1672 -8.29929,6.1672 -5.03236,0 -7.28591,4.04599 -8.12802,14.59289 -0.88114,11.03608 3.05115,16.21319 10.56439,13.90876 3.17912,-0.97507 6.3415,-2.28372 7.02751,-2.90806 z m 23.84514,-42.90218 c 0.23299,-13.24907 1.2119,-27.22984 2.1753,-31.06836 1.26332,-5.03348 0.76314,-6.65285 -1.79411,-5.80869 -1.95018,0.64375 -4.27099,7.24003 -5.15737,14.6584 -0.88638,7.41838 -2.60152,21.32076 -3.81141,30.89423 -2.04732,16.19973 -1.8406,17.33721 2.9821,16.40996 4.57316,-0.8793 5.23162,-3.82608 5.60549,-25.08554 z m -15.54096,-16.2684 c 0.0219,-1.13065 -1.19148,-2.05573 -2.69901,-2.05573 -1.50754,0 -2.7221,2.77524 -2.69902,6.1672 0.034,4.98705 0.55044,5.38043 2.69902,2.05574 1.46138,-2.26131 2.6759,-5.03655 2.69901,-6.16721 z M 70.96391,1000.0585 60,990.56282 60.83649,925.15228 c 0.46005,-35.97578 1.91893,-66.49937 3.24198,-67.8302 1.32301,-1.33083 4.33855,-1.67792 6.7012,-0.77128 3.12553,1.19937 4.29571,5.46743 4.29571,15.66776 0,17.83944 4.45146,16.9106 11.81362,-2.46505 6.49107,-17.08315 12.906694,-18.01878 16.76481,-2.44495 1.39656,5.63726 3.40542,10.24956 4.46418,10.24956 1.74808,0 4.9863,-7.07175 9.09961,-19.87209 2.83417,-8.81976 9.24288,-5.0962 12.97321,7.53769 2.00305,6.78392 4.60608,12.3344 5.78448,12.3344 1.17843,0 1.83424,0.92508 1.45735,2.05573 -0.37688,1.13066 0.4575,2.38438 1.85419,2.78607 1.39667,0.40166 3.0287,-4.51954 3.62673,-10.93601 1.28349,-13.77136 1.26871,-13.74891 7.4761,-11.36692 4.48254,1.72013 4.71917,6.2519 3.25952,62.42178 -2.25802,86.89323 -1.28413,84.89873 -42.05878,86.13563 l -29.66257,0.8998 -10.96392,-9.4957 z m 48.85633,-6.47139 c 5.76545,-0.83742 11.04825,-2.99655 11.73955,-4.79805 1.77701,-4.63078 -12.52177,-34.87317 -15.59128,-32.97611 -1.39363,0.86129 -5.19208,7.35004 -8.44101,14.41941 l -5.90717,12.85343 -3.55543,-8.22293 c -1.95547,-4.52262 -3.61105,-10.30866 -3.67905,-12.85788 -0.068,-2.54922 -1.2173,-5.31089 -2.55402,-6.13702 -2.88921,-1.78561 -5.58099,1.43512 -13.99192,16.74137 -5.73737,10.44088 -5.91016,11.83388 -1.95816,15.78587 6.70123,6.70123 16.20283,9.77973 25.23293,8.17544 4.52261,-0.80349 12.94013,-2.14608 18.70556,-2.98353 z m 19.33672,-49.06239 c 0.98662,-8.39449 1.08362,-16.41186 0.21572,-17.81636 -0.86804,-1.40448 -16.30674,-2.55361 -34.30823,-2.55361 -32.10593,0 -32.73054,0.11759 -32.76014,6.16721 -0.0164,3.39196 -0.79469,10.7926 -1.72912,16.44587 -1.06931,6.46928 -0.62462,10.27867 1.19992,10.27867 2.85464,0 11.52329,-14.8978 11.52329,-19.80377 0,-1.38359 1.9621,-4.47771 4.36021,-6.87585 4.99661,-4.99661 8.14186,-2.06201 10.96833,10.23375 3.17323,13.80419 3.67099,14.53159 7.67189,11.21115 2.06179,-1.71114 4.48322,-6.78382 5.38098,-11.27263 2.40732,-12.03652 8.21463,-9.95614 15.47424,5.54343 3.53047,7.53769 7.27182,13.70489 8.31411,13.70489 1.04228,0 2.70227,-6.86823 3.68889,-15.26275 z m -11.19355,-33.93616 c 3.26442,-0.20777 -0.89117,-20.10621 -5.13931,-24.60889 -3.17824,-3.36872 -3.93081,-3.17814 -5.41137,1.37049 -3.02097,9.28089 -7.56905,17.61775 -9.61116,17.61775 -1.0891,0 -3.9543,-4.93377 -6.36708,-10.96392 -5.31478,-13.28289 -10.28914,-13.99702 -14.31942,-2.05573 -1.6536,4.8995 -3.90666,10.98622 -5.00678,13.52604 -1.64933,3.8078 -0.15788,4.76944 8.50309,5.48196 8.57406,0.70539 22.66587,0.56664 37.35203,-0.3677 z m -46.81339,-71.4304 -9.00074,-5.48771 0.7778,-29.417 c 0.67352,-25.47298 1.42093,-29.54021 5.57452,-30.33575 4.26924,-0.81769 4.79672,1.68696 4.79672,22.77635 0,24.8695 1.75576,29.20515 13.0169,32.14403 7.8324,2.04406 8.44943,0.88125 9.13248,-17.21019 0.31,-8.21074 1.73183,-18.98506 3.15961,-23.94289 1.68652,-5.85637 1.63411,-10.17739 -0.14966,-12.3344 -1.51006,-1.8261 -2.08191,-6.77743 -1.2708,-11.00298 1.13644,-5.92029 2.80991,-7.49232 7.2947,-6.85244 5.29922,0.7561 5.81992,2.54702 5.81992,20.01723 0,17.26367 0.54137,19.18685 5.40102,19.18685 6.21374,0 12.31571,-10.32993 12.37494,-20.94933 0.0381,-6.84732 5.80567,-12.11595 9.36584,-8.55575 0.90115,0.90116 1.63848,7.43376 1.63848,14.51688 0,17.05177 -7.71284,27.3226 -20.51782,27.3226 -8.5942,0 -9.12861,0.5466 -8.70924,8.90818 0.42143,8.40261 1.22459,9.06373 14.15167,11.64916 16.63588,3.32716 20.79789,5.77724 18.7739,11.05168 -1.23004,3.20541 -7.7556,4.02162 -32.0868,4.01345 -25.71734,-0.008 -31.96477,-0.87725 -39.54349,-5.49797 z"
       id="path3433"
       inkscape:connector-curvature="0" />
  </g>
</svg>
