<?xml version="1.0" encoding="UTF-8" standalone="no"?>
<!-- Created with Inkscape (http://www.inkscape.org/) -->

<svg
   xmlns:dc="http://purl.org/dc/elements/1.1/"
   xmlns:cc="http://creativecommons.org/ns#"
   xmlns:rdf="http://www.w3.org/1999/02/22-rdf-syntax-ns#"
   xmlns:svg="http://www.w3.org/2000/svg"
   xmlns="http://www.w3.org/2000/svg"
   xmlns:sodipodi="http://sodipodi.sourceforge.net/DTD/sodipodi-0.dtd"
   xmlns:inkscape="http://www.inkscape.org/namespaces/inkscape"
   width="300"
   height="300"
   id="svg2"
   version="1.1"
   inkscape:version="0.48.4 r9939"
   sodipodi:docname="dessin.svg">
  <defs
     id="defs4" />
  <sodipodi:namedview
     id="base"
     pagecolor="#ffffff"
     bordercolor="#666666"
     borderopacity="1.0"
     inkscape:pageopacity="0.0"
     inkscape:pageshadow="2"
     inkscape:zoom="1.979899"
     inkscape:cx="156.32962"
     inkscape:cy="101.52144"
     inkscape:document-units="px"
     inkscape:current-layer="layer1"
     showgrid="false"
     inkscape:window-width="1215"
     inkscape:window-height="1000"
     inkscape:window-x="65"
     inkscape:window-y="24"
     inkscape:window-maximized="1" />
  <metadata
     id="metadata7">
    <rdf:RDF>
      <cc:Work
         rdf:about="">
        <dc:format>image/svg+xml</dc:format>
        <dc:type
           rdf:resource="http://purl.org/dc/dcmitype/StillImage" />
        <dc:title />
      </cc:Work>
    </rdf:RDF>
  </metadata>
  <g
     inkscape:label="Calque 1"
     inkscape:groupmode="layer"
     id="layer1"
     transform="translate(0,-752.36218)">
    <path
       style="fill:#000000"
       d="m 214.27303,1014.473 c -2.3003,-4.999 -3.8121,-15.21589 -3.8121,-25.76251 0,-17.23612 -3.45169,-30.9793 -9.1625,-36.48129 -1.60713,-1.54834 -8.90849,-4.25821 -16.22527,-6.02193 -26.52338,-6.3935 -29.5285,-8.61451 -29.5285,-21.82402 0,-7.44053 1.49973,-10.73116 7.04666,-15.46147 7.7353,-6.59651 13.51404,-18.97261 11.30241,-24.20591 -0.94513,-2.23645 -5.02426,-3.33604 -12.37566,-3.33604 -7.854,0 -10.9658,-0.92146 -10.9658,-3.24716 0,-1.78595 1.96574,-3.80728 4.36833,-4.49185 7.39717,-2.10772 43.69819,-3.6906 52.04202,-2.26926 18.99543,3.2358 17.22233,32.34214 -2.1872,35.90401 -3.05104,0.5599 -10.60215,1.64377 -16.78024,2.40861 -15.117,1.87144 -22.46575,6.53601 -22.46575,14.26003 0,6.7462 2.85849,8.37337 27.09247,15.42219 14.52785,4.22564 24.66739,11.81946 26.33681,19.72444 0.58308,2.76097 2.30944,10.6795 3.83634,17.59671 4.45027,20.16048 4.20193,37.97775 -0.59,42.32885 -3.82911,3.477 -4.38903,3.1562 -7.93202,-4.5434 z m -7.82345,-118.54564 c 4.5887,-10.8581 -2.15704,-19.99367 -13.01848,-17.6306 -3.6762,0.79979 -6.91339,1.60397 -7.19377,1.78707 -0.28034,0.18314 -1.26636,4.62947 -2.19116,9.88085 l -1.68142,9.54797 11.28484,0 c 7.98757,0 11.72754,-1.04756 12.79999,-3.58529 z M 82.838328,987.31421 c -15.683692,-2.79618 -18.404756,-7.95191 -18.404756,-34.87234 0,-11.65524 -0.874164,-21.19259 -1.942587,-21.19408 -1.068423,-0.001 -1.630066,-14.01465 -1.248097,-31.14035 0.614682,-27.55943 1.196478,-31.22506 5.06283,-31.8986 3.696427,-0.64397 4.368341,1.00772 4.368341,10.7382 0,13.05943 5.172128,15.89969 9.589595,5.26604 4.622452,-11.12701 6.976063,-13.13876 11.437812,-9.77642 2.164,1.63075 3.934526,4.88008 3.934526,7.2207 0,5.37125 7.171918,5.60058 9.041388,0.28912 2.93867,-8.34928 6.8895,-14.16626 9.62151,-14.16626 1.56314,0 4.82447,4.07988 7.24735,9.06641 2.42291,4.98652 5.44729,9.0664 6.72089,9.0664 1.27357,0 2.31559,-6.11981 2.31559,-13.59961 0,-14.1999 0.74718,-15.51155 6.07855,-10.67054 5.28811,4.80172 10.51357,97.58742 6.18033,109.74062 -3.19641,8.96469 -13.97707,14.26001 -29.03174,14.26001 -6.05742,0 -12.90538,0.83921 -15.217726,1.8649 -2.312325,1.0257 -9.401541,0.93829 -15.753806,-0.19426 z m 18.494852,-7.5994 c 0.84526,-0.76752 6.35534,-1.72181 12.24463,-2.12066 7.31854,-0.49563 12.09941,-2.28569 15.10445,-5.65539 5.92106,-6.63967 5.74332,-7.28513 -4.58965,-16.66772 -9.96688,-9.05014 -13.44011,-10.12429 -13.55883,-4.1932 -0.11058,5.53154 -6.5246,12.66361 -9.75705,10.84961 -1.474028,-0.82722 -4.385839,-4.49925 -6.470686,-8.16009 -4.281922,-7.51874 -8.189339,-8.55834 -10.108862,-2.68952 -0.713537,2.1816 -2.924841,6.85413 -4.914034,10.38339 -7.193543,12.76295 -5.136828,14.85419 19.057071,19.37688 0.800855,0.14983 2.147701,-0.35578 2.992961,-1.1233 z m 32.19731,-46.16562 c -1.67127,-12.22123 -1.85462,-12.45167 -10.97704,-13.79717 -5.10257,-0.75258 -15.7738,-0.54806 -23.713843,0.45452 -7.94007,1.00256 -16.307687,1.30495 -18.59475,0.67197 -5.746209,-1.59033 -8.178305,2.93428 -7.365845,13.70329 0.937405,12.42512 3.654154,14.10284 7.440532,4.5949 3.97454,-9.98044 7.51337,-9.98419 14.989372,-0.0159 6.671754,8.89594 9.198604,8.64647 11.566244,-1.14192 0.90117,-3.72564 2.70742,-6.77384 4.0139,-6.77384 1.30651,0 6.50189,4.07516 11.5453,9.05595 5.04344,4.98077 9.9857,8.29567 10.98286,7.36645 0.99713,-0.92923 1.0481,-7.28245 0.1133,-14.11829 z m -3.83645,-23.86999 c 0.9302,-2.2011 -1.43831,-7.40198 -5.94166,-13.04688 -8.22946,-10.31551 -13.13922,-13.09135 -13.13922,-7.42852 0,2.01768 -1.82699,6.2004 -4.05996,9.29492 -3.18038,4.40741 -4.80281,5.06661 -7.488586,3.04262 -1.88575,-1.42107 -3.428622,-4.37392 -3.428622,-6.5619 0,-2.18797 -1.691572,-5.25289 -3.759019,-6.81091 -3.839472,-2.89338 -4.087842,-2.7075 -18.003286,13.47448 -1.672469,1.94487 -3.076578,4.33399 -3.120242,5.30911 -0.158086,3.53083 11.612254,5.58523 34.273655,5.98221 19.249,0.3372 23.37913,-0.20785 24.66694,-3.25513 z m 8.83049,-55.19629 c -2.59667,-1.49505 -1.93202,-3.99858 3.14982,-11.86494 7.42289,-11.49013 21.75736,-38.20482 26.4328,-49.26201 4.53014,-10.71354 9.50494,-14.82845 13.91201,-11.50731 1.91391,1.44232 3.47983,4.02745 3.47983,5.74473 0,1.71731 0.94299,3.12237 2.09553,3.12237 1.15254,0 3.33514,2.47042 4.85021,5.48984 3.85823,7.68903 9.71109,14.09196 25.1657,27.53077 10.74101,9.34005 13.05341,12.60639 11.6887,16.51068 -3.17348,9.07912 -13.00848,5.47088 -23.80196,-8.73245 -3.31571,-4.3632 -6.69825,-8.44309 -7.51679,-9.06641 -0.8185,-0.62331 -4.57066,-5.97815 -8.33812,-11.89965 -3.76744,-5.9215 -8.21326,-10.76637 -9.87963,-10.76637 -1.66632,0 -4.50754,3.31491 -6.3138,7.36647 -11.68808,26.21732 -25.62943,49.3373 -29.70611,49.26388 -1.05993,-0.0181 -3.4081,-0.88742 -5.21819,-1.9296 z m -56.980254,-1.92478 c -13.855995,-1.58115 -16.60915,-6.8833 -17.857288,-34.39036 -0.824523,-18.17125 -0.299118,-25.03146 2.016616,-26.33102 5.35959,-3.00773 8.296923,5.66769 9.155993,27.04227 0.449885,11.19367 1.809212,21.25217 3.020716,22.35225 1.211501,1.10007 4.859689,1.65879 8.107064,1.24158 l 5.904324,-0.75855 -0.259231,-34.56567 c -0.142528,-19.01113 0.562368,-34.56568 1.566513,-34.56568 4.288062,0 7.158937,6.65225 8.813367,20.42185 0.97211,8.09077 2.18706,15.38595 2.69988,16.21151 0.51282,0.82556 4.01608,0.74832 7.78501,-0.17158 6.30943,-1.54011 6.87232,-2.60528 7.10129,-13.43764 0.3157,-14.93381 2.4308,-16.82535 7.20714,-6.44535 8.06064,17.51738 3.54497,28.11147 -12.44822,29.20432 l -9.98478,0.6823 -0.54641,10.76635 -0.54645,10.76636 14.75224,0 c 16.55176,0 19.98206,2.31852 12.91903,8.73195 -3.90138,3.54251 -8.2652,4.34307 -23.18086,4.25257 -10.106095,-0.0612 -21.907753,-0.51463 -26.225944,-1.00739 z m 77.488664,-3.28687 c -2.95542,-4.34213 3.05581,-6.41299 21.91007,-7.54798 14.4292,-0.86859 19.61868,-0.37987 21.84633,2.05737 1.73475,1.89801 1.96964,3.73082 0.57821,4.51167 -4.41736,2.47899 -42.73772,3.32513 -44.33461,0.97894 z"
       id="path3054"
       inkscape:connector-curvature="0" />
  </g>
</svg>
