<?xml version="1.0" encoding="UTF-8" standalone="no"?>
<!-- Created with Inkscape (http://www.inkscape.org/) -->

<svg
   xmlns:dc="http://purl.org/dc/elements/1.1/"
   xmlns:cc="http://creativecommons.org/ns#"
   xmlns:rdf="http://www.w3.org/1999/02/22-rdf-syntax-ns#"
   xmlns:svg="http://www.w3.org/2000/svg"
   xmlns="http://www.w3.org/2000/svg"
   xmlns:sodipodi="http://sodipodi.sourceforge.net/DTD/sodipodi-0.dtd"
   xmlns:inkscape="http://www.inkscape.org/namespaces/inkscape"
   width="300"
   height="300"
   id="svg2"
   version="1.1"
   inkscape:version="0.48.4 r9939"
   sodipodi:docname="image-seal.svg">
  <defs
     id="defs4" />
  <sodipodi:namedview
     id="base"
     pagecolor="#ffffff"
     bordercolor="#666666"
     borderopacity="1.0"
     inkscape:pageopacity="0.0"
     inkscape:pageshadow="2"
     inkscape:zoom="1.979899"
     inkscape:cx="200.43343"
     inkscape:cy="134.48103"
     inkscape:document-units="px"
     inkscape:current-layer="layer1"
     showgrid="false"
     inkscape:window-width="1215"
     inkscape:window-height="1000"
     inkscape:window-x="65"
     inkscape:window-y="24"
     inkscape:window-maximized="1" />
  <metadata
     id="metadata7">
    <rdf:RDF>
      <cc:Work
         rdf:about="">
        <dc:format>image/svg+xml</dc:format>
        <dc:type
           rdf:resource="http://purl.org/dc/dcmitype/StillImage" />
        <dc:title />
      </cc:Work>
    </rdf:RDF>
  </metadata>
  <g
     inkscape:label="Calque 1"
     inkscape:groupmode="layer"
     id="layer1"
     transform="translate(0,-752.36218)">
    <path
       style="fill:#000000"
       d="m 217.33021,1038.6466 c -5.90973,-16.1303 -16.03079,-35.8086 -18.38449,-35.7448 -1.34447,0.036 -7.37913,1.0181 -13.41037,2.1815 -12.12206,2.3383 -19.58999,-0.1351 -19.58999,-6.48838 0,-2.19347 0.6945,-3.2936 1.54334,-2.44476 0.84884,0.84885 3.84364,-0.0677 6.65509,-2.03708 2.81147,-1.96921 7.06699,-3.58039 9.45678,-3.58039 2.38977,0 4.34502,-1.246 4.34502,-2.76888 0,-3.46234 -8.83945,-11.27064 -14.95718,-13.21234 -2.52922,-0.80273 -4.61542,-2.76041 -4.63601,-4.35039 -0.0244,-1.87178 -0.7896,-1.70331 -2.17117,0.47789 -2.49808,3.94401 -7.56929,1.59038 -7.56929,-3.51302 0,-4.7986 14.14845,-4.62579 24.00894,0.29327 4.20681,2.09865 9.89932,6.67685 12.65003,10.1738 4.85171,6.16797 5.10707,6.21832 8.53812,1.68437 1.94527,-2.57056 3.57181,-5.41435 3.6146,-6.31957 0.16744,-3.54219 -13.26487,-17.23464 -19.07352,-19.4431 -5.48889,-2.08684 -5.74679,-2.72786 -2.4314,-6.04324 3.31539,-3.31539 4.72155,-3.13171 13.25683,1.73161 5.25143,2.99221 11.44861,7.7314 13.77151,10.53152 5.27573,6.35958 5.55937,21.72376 0.54241,29.3806 -3.56363,5.43883 -3.27193,6.77713 4.88894,22.42899 9.02483,17.3088 11.20193,31.2356 5.24047,33.5232 -2.24294,0.8607 -4.42915,-1.3854 -6.28866,-6.4608 z m -136.573719,-3.5933 c -2.881836,-5.6081 -0.609847,-12.9106 10.983788,-35.30365 4.279046,-8.26501 5.348209,-12.7951 3.750014,-15.88911 -1.229545,-2.38038 -2.927865,-8.178 -3.774043,-12.88361 -1.220939,-6.78969 -0.404388,-9.84261 3.956058,-14.79071 10.203412,-11.57853 33.759942,-18.67148 30.608192,-9.21624 -0.95606,2.86815 -1.8949,3.47149 -14.79056,9.5052 -7.10957,3.32646 -10.72125,11.64204 -8.06399,18.56671 1.34531,3.50588 2.66418,3.06256 9.43037,-3.1699 8.36628,-7.70631 24.54066,-14.43139 28.63008,-11.90398 5.13039,3.17074 2.09166,7.71385 -7.93027,11.8563 -5.71395,2.3618 -13.13903,6.45085 -16.50018,9.08678 -6.00052,4.70583 -6.02264,4.84741 -1.22224,7.81822 2.68892,1.66409 8.65081,4.13614 13.24867,5.49344 12.41502,3.66497 13.27372,9.56465 1.11174,7.63815 -5.20931,-0.8252 -13.87151,-2.16707 -19.24935,-2.98207 l -9.77788,-1.48172 -6.076611,19.75009 c -6.178888,20.0824 -10.464436,25.436 -14.333788,17.9061 z M 55.944186,937.56916 c 0,-4.87044 1.229177,-8.16219 3.055588,-8.18294 1.680573,-0.0196 7.455635,-5.4644 12.83347,-12.10069 5.377836,-6.63631 11.152897,-12.12074 12.83347,-12.18764 1.680574,-0.067 3.055589,-1.22168 3.055589,-2.56614 0,-1.34445 1.178577,-2.44447 2.619079,-2.44447 4.238663,0 9.967648,-6.81968 7.177552,-8.54405 -1.354774,-0.83731 -2.463219,-4.75748 -2.463219,-8.71152 0,-8.39849 0.58374,-8.20493 -10.623083,-3.52242 -11.535261,4.81973 -13.821623,4.6294 -13.821623,-1.1506 0,-3.46721 3.788245,-6.55007 13.517042,-11.00011 7.434344,-3.40056 15.40943,-6.20729 17.722409,-6.2372 2.31296,-0.0298 6.9554,-2.20544 10.31655,-4.83457 5.2221,-4.08478 5.45481,-4.78812 1.59959,-4.83458 -2.48139,-0.0298 -7.43616,-1.97938 -11.01061,-4.33218 -3.574449,-2.3528 -8.637681,-5.462 -11.251626,-6.90933 -5.204499,-2.88173 -9.158723,-14.03121 -6.9851,-19.69558 2.22024,-5.78586 9.243619,-2.68464 10.070437,4.44669 0.983312,8.48111 5.837049,12.31416 14.352999,11.33474 8.71767,-1.00265 10.34864,-8.11965 3.35411,-14.63608 -2.86184,-2.6662 -6.93127,-9.16615 -9.04317,-14.4443 -3.716159,-9.28759 -4.215271,-9.59667 -15.497457,-9.59667 -7.338984,0 -12.77605,-1.34764 -14.676698,-3.63779 -4.792654,-5.77479 -0.08555,-6.31201 48.944045,-5.58617 38.20137,0.56552 45.14406,1.2322 45.14406,4.33502 0,2.47255 -2.98536,3.9138 -9.16676,4.42537 -8.23227,0.68135 -9.16677,1.45727 -9.16677,7.6112 0,7.26968 -9.23427,18.46372 -17.3583,21.04217 -2.55306,0.81033 -4.64193,3.5992 -4.64193,6.19752 0,3.71491 1.7234,4.7242 8.06675,4.7242 8.98864,0 13.93348,-3.64358 13.93348,-10.26677 0,-4.82654 6.05374,-6.00374 8.71666,-1.69504 2.20253,3.56374 -3.85047,21.71753 -7.27456,21.81744 -1.46539,0.0428 -4.6586,1.58968 -7.09603,3.43761 -4.15763,3.15204 -3.962,3.63732 3.16285,7.84608 7.08006,4.1823 7.54591,5.31006 6.87617,16.64685 -0.61343,10.38431 -1.7896,12.88681 -8.05179,17.132 -5.67296,3.84574 -7.15829,6.49344 -6.55993,11.69366 0.74197,6.44832 1.33597,6.7223 14.575,6.7223 12.11857,0 14.45942,-0.81971 19.1969,-6.7223 l 5.39541,-6.7223 2.58045,6.7223 c 2.20496,5.74414 3.96848,6.7223 12.11952,6.7223 5.46334,0 10.82906,1.55432 12.55817,3.63778 3.64126,4.38746 1.16692,5.62361 -13.34248,6.66568 -8.93706,0.64187 -9.86315,1.39196 -11.77741,9.53928 -2.47207,10.52142 -8.5578,14.31218 -23.99815,14.94831 -13.6992,0.5644 -23.23256,-5.0084 -27.97188,-16.35119 -3.56433,-8.53064 -7.55292,-11.10645 -17.19812,-11.10645 -3.62478,0 -5.91124,-1.41829 -5.91124,-3.66671 0,-3.51886 5.44503,-4.8222 15.61457,-3.73752 4.81032,0.51307 8.72852,-3.66147 8.79271,-9.36799 0.0875,-7.78396 -30.447814,4.07813 -43.605641,16.93951 -3.557707,3.47758 -9.891722,11.27931 -14.075555,17.3372 -9.273637,13.42749 -15.615498,14.5915 -15.615498,2.86609 z m 113.349384,-8.75935 c 0.81069,-3.02503 1.48898,-6.17184 1.50734,-6.99292 0.0474,-2.11766 -23.83388,-4.68646 -28.15458,-3.02846 -1.9746,0.75772 -3.59015,2.95642 -3.59015,4.88602 0,6.7934 6.04628,10.44893 17.43731,10.54244 9.71863,0.0797 11.53534,-0.68763 12.80008,-5.40708 z m -51.00018,-42.53154 c 2.41807,-2.41807 3.47943,-6.08612 2.65245,-9.16677 -0.75826,-2.82457 -1.39369,-5.84296 -1.41205,-6.70745 -0.068,-3.19671 -7.86971,-4.44222 -12.45483,-1.98833 -4.55289,2.43664 -4.73951,6.36117 -0.89567,18.83809 1.32052,4.28644 7.33243,3.80213 12.1101,-0.97554 z m 21.37391,-4.26063 c 5.23601,-3.97469 5.63541,-15.10894 0.61112,-17.03694 -7.15027,-2.7438 -11.00012,1.07921 -11.00012,10.92341 0,10.12842 2.87294,11.81904 10.389,6.11353 z m -2.90036,-76.45078 c 3.13229,-8.23854 -0.17674,-10.64058 -12.1678,-8.83241 -11.03492,1.664 -12.61899,3.10923 -10.84474,9.894 1.16973,4.47304 3.15114,5.45789 10.98056,5.45789 8.10049,0 9.93022,-0.99145 12.03198,-6.51948 z m 91.34961,119.70424 c -13.12849,-17.30998 -16.62774,-20.05495 -45.53144,-35.71706 -14.201,-7.69512 -16.49651,-18.11573 -10.60323,-48.13405 2.91694,-14.85793 7.45776,-19.55576 18.90209,-19.55576 18.585,0 33.75303,-8.87585 22.52864,-13.18306 -2.12665,-0.81608 -9.35529,-1.48377 -16.06368,-1.48377 -7.48096,0 -13.5887,-1.39169 -15.79631,-3.59929 -4.85384,-4.85383 -7.17709,-25.98203 -3.59327,-32.67841 3.5807,-6.69062 7.61191,-6.76031 9.33755,-0.16158 1.24581,4.7639 2.56491,5.02487 19.12456,3.78353 13.57589,-1.01769 18.46287,-0.51831 20.64375,2.10947 5.1121,6.1597 0.034,8.54593 -18.18657,8.54593 -12.39691,0 -18.76664,1.05635 -20.74518,3.44034 -2.32453,2.80087 -1.21464,3.9818 5.97117,6.35333 4.85455,1.60216 12.45712,2.23187 16.89462,1.39938 10.00717,-1.87735 16.05787,0.26699 16.05787,5.69088 0,2.27617 1.23948,5.37798 2.75438,6.89289 5.52348,5.52347 0.14619,15.00477 -11.5257,20.32189 -8.71777,3.9714 -10.5616,5.78051 -8.46554,8.30609 1.47382,1.77586 5.95504,3.88389 9.95828,4.68454 5.29225,1.05845 7.27858,2.85154 7.27858,6.57052 0,4.18053 -1.0046,4.80286 -5.50006,3.4071 -3.02503,-0.93922 -8.4199,-3.76337 -11.98858,-6.27592 -3.56869,-2.51252 -8.17884,-4.56823 -10.24473,-4.56823 -2.06592,0 -4.43606,-1.10001 -5.26698,-2.44447 -2.81747,-4.55876 -11.00012,-2.74039 -11.00012,2.44447 0,3.56944 1.62966,4.88895 6.03807,4.88895 7.5978,0 35.3992,13.95761 37.21224,18.68226 2.4349,6.34526 -0.88827,6.09558 -15.45524,-1.16118 -20.69188,-10.30794 -26.80539,-11.30015 -33.15838,-5.38144 -5.45819,5.08508 -4.7677,9.47342 0.92286,5.86498 4.81663,-3.05426 7.28403,-2.81385 16.6628,1.62359 4.70561,2.22638 13.71031,5.44416 20.01046,7.15059 10.73862,2.90863 15.83018,7.73707 12.99539,12.32383 -1.55641,2.51834 -11.00561,0.18236 -11.00561,-2.72067 0,-1.18764 -2.01669,-2.15938 -4.48152,-2.15938 -2.46486,0 -5.23542,-0.75387 -6.15684,-1.67528 -1.75865,-1.75866 -18.59621,-8.00247 -21.75087,-8.06578 -1.00835,-0.0196 -1.83336,1.6132 -1.83336,3.62989 0,2.01669 1.02145,3.6667 2.26986,3.6667 1.24844,0 3.79241,1.52254 5.65331,3.38344 1.86087,1.86088 8.26454,5.78541 14.23032,8.72117 11.69399,5.7546 34.08166,28.34804 34.02756,34.34034 -0.0873,9.66353 -4.14785,9.93339 -11.12115,0.7391 z M 101.16689,775.85013 c -7.107223,-1.31619 -10.050879,-4.80234 -6.800027,-8.05321 2.798918,-2.7989 48.717317,-3.27049 55.748057,-0.57253 4.83492,1.85533 4.55579,4.81314 -0.66974,7.09711 -4.49127,1.963 -39.88175,3.08358 -48.27829,1.52863 z"
       id="path3211"
       inkscape:connector-curvature="0" />
  </g>
</svg>
