<?xml version="1.0" encoding="UTF-8" standalone="no"?>
<svg
   xmlns:dc="http://purl.org/dc/elements/1.1/"
   xmlns:cc="http://creativecommons.org/ns#"
   xmlns:rdf="http://www.w3.org/1999/02/22-rdf-syntax-ns#"
   xmlns:svg="http://www.w3.org/2000/svg"
   xmlns="http://www.w3.org/2000/svg"
   viewBox="0 0 300 300"
   height="300"
   width="300"
   id="svg10"
   version="1.1">
  <metadata
     id="metadata16">
    <rdf:RDF>
      <cc:Work
         rdf:about="">
        <dc:format>image/svg+xml</dc:format>
        <dc:type
           rdf:resource="http://purl.org/dc/dcmitype/StillImage" />
        <dc:title></dc:title>
      </cc:Work>
    </rdf:RDF>
  </metadata>
  <defs
     id="defs14" />
  <path
     id="path20"
     d="m 220.72449,283.79309 c -1.43446,-1.62492 -6.21712,-11.06415 -9.20015,-18.56715 -10.16313,-25.56254 -27.01417,-31.81623 -45.95836,-37.82866 -8.36259,-2.63366 -16.63705,-6.38864 -21.59643,-10.9967 -8.55821,-7.95194 -12.06896,-22.8019 -12.18573,-33.30022 l -6.94026,0.0116 c -6.57269,17.86443 -18.32852,21.07818 -33.580669,20.83783 -6.988358,-0.11012 -16.389501,0.28338 -16.406942,-6.59415 -0.01391,-5.48477 9.405879,-5.12633 15.011166,-5.41184 8.529573,-0.43445 19.335605,-2.16938 21.453225,-8.84918 0,0 -20.582012,-0.35811 -33.063378,-0.66996 -4.393823,-0.10978 -12.985023,-0.92761 -13.194574,-6.35236 0,-4.817 4.223521,-5.39296 27.021064,-5.20067 l 18.180768,0.15334 c -0.63815,-7.88786 -17.024428,-7.98998 -22.931942,-8.04323 -8.911248,-0.0803 -14.953813,-3.02678 -14.685533,-7.54337 0.400301,-6.7392 28.692325,-4.04874 33.104885,-2.76447 10.82177,3.14969 17.38613,9.65462 18.83878,18.35232 l 7.16569,-0.007 0.0573,-50.63774 -10.52977,-0.0336 c -3.41152,13.83588 -10.17321,18.81765 -22.918465,19.11782 -7.243567,0.1706 -23.727534,0.89089 -23.509465,-5.59677 0.183198,-5.45024 10.202409,-5.15917 15.372912,-5.36534 7.432309,-0.29636 18.721698,-0.0687 18.600808,-8.155 l -16.760466,-0.13711 c -13.844555,-0.11326 -16.656678,-0.52901 -18.53997,-1.55848 -4.633228,-2.53268 -4.885846,-6.79314 -0.537555,-9.06598 2.537314,-1.32624 4.095546,-1.4589 19.478007,-1.65832 l 16.980284,-0.13223 c -0.95416,-3.25858 -1.83915,-5.12686 -16.463169,-5.96382 -5.711903,-0.3269 -18.997075,-0.29542 -18.830478,-6.268844 0.118292,-4.24144 13.025102,-4.67731 16.762017,-4.57227 17.22193,0.48408 26.75686,4.05499 30.9522,16.762694 l 9.90581,0.0465 9.4e-4,-19.98881 C 98.4473,86.701776 81.153647,87.563427 82.085701,66.305162 82.83679,55.337923 92.679808,47.594389 102.38144,45.477839 c 14.11978,-2.885199 25.53352,-3.473435 43.99217,-3.965085 l 0.0951,-10.900933 c 0.0244,-2.7952 0.009,-16.501458 4.01234,-15.566139 5.51956,1.289489 6.07517,4.799952 6.15693,14.49909 l 0.10014,11.882013 c 22.33687,0.115698 39.73706,0.813234 54.37753,6.581737 6.31973,2.490042 10.74118,7.773919 11.84285,14.995492 1.39948,9.173803 -3.56324,19.560864 -11.75007,21.689065 -10.6167,2.759856 -20.87943,2.512886 -32.44143,3.146994 l 0.0884,20.033677 c 34.23885,0.66633 43.17892,0.31522 50.71691,12.33853 4.33438,6.91363 5.26737,13.1809 5.36354,29.64793 0.0674,11.53657 -1.77926,24.24472 -9.27992,28.0256 -7.6817,3.87213 -12.05009,4.56889 -31.74145,4.91084 l -17.66386,0.30673 c -3.35209,11.08399 -10.07335,19.6912 -15.81919,28.57087 23.79809,8.7376 40.6333,13.02087 55.42412,34.7196 7.22949,10.60595 11.02568,20.44793 12.58897,30.76507 0.67618,4.46263 0.36277,7.7791 -4.42494,7.84073 -1.25823,0.0162 -2.69407,-0.52573 -3.29514,-1.2066 z m -55.82467,-100.76905 -20.24585,0.0449 c 0.236,8.84348 1.80916,15.36632 5.20692,22.78798 5.6757,-7.21125 11.79939,-14.68203 15.03893,-22.83291 z m 47.68773,-13.13257 -12.97631,-15.20726 -11.82016,16.31212 c 8.61111,0.2282 15.32902,0.40233 24.79647,-1.10486 z m -44.88214,1.10905 -0.78067,-50.6674 -22.67604,0.0319 0.10469,50.68531 z m 24.18369,-25.38599 -12.60147,-14.6727 0.56477,31.10848 z m 32.28562,-3.0302 c -0.36815,-5.61791 -0.60896,-11.75462 -4.62323,-15.1596 l -12.72084,17.39996 15.45576,17.7781 c 1.90868,-6.30207 2.31876,-13.44988 1.88831,-20.01846 z m -15.04955,-20.75575 c -4.55634,-1.82179 -11.04351,-1.45792 -22.9813,-1.47974 l 13.00662,15.23826 z m -42.70477,-14.03385 -0.83033,-54.323948 -21.14991,0.0928 -0.20943,54.130178 z m -34.6075,-30.738154 0.12974,-22.543686 -10.09209,0.414136 c -10.90152,0.447351 -27.422933,1.611188 -28.098667,12.952086 -0.525748,8.823678 14.095287,9.029315 19.595567,9.063378 z m 72.25867,-1.971232 c 9.69632,-2.357291 8.25558,-13.754417 2.33349,-16.927971 -8.30811,-4.45218 -14.55811,-4.335117 -28.36602,-4.739345 l 0.5281,23.473202 c 12.11902,0.387209 18.10017,-0.07191 25.50443,-1.805886 z"
     style="fill:#000000;stroke-width:0.68948698" />
</svg>
