<?xml version="1.0" encoding="UTF-8" standalone="no"?>
<svg
   xmlns:dc="http://purl.org/dc/elements/1.1/"
   xmlns:cc="http://creativecommons.org/ns#"
   xmlns:rdf="http://www.w3.org/1999/02/22-rdf-syntax-ns#"
   xmlns:svg="http://www.w3.org/2000/svg"
   xmlns="http://www.w3.org/2000/svg"
   xmlns:sodipodi="http://sodipodi.sourceforge.net/DTD/sodipodi-0.dtd"
   xmlns:inkscape="http://www.inkscape.org/namespaces/inkscape"
   viewBox="0 0 300 300"
   height="300"
   width="300"
   id="svg415"
   version="1.1"
   inkscape:version="0.91 r13725"
   sodipodi:docname="ACC-s02873.svg">
  <sodipodi:namedview
     pagecolor="#ffffff"
     bordercolor="#666666"
     borderopacity="1"
     objecttolerance="10"
     gridtolerance="10"
     guidetolerance="10"
     inkscape:pageopacity="0"
     inkscape:pageshadow="2"
     inkscape:window-width="1920"
     inkscape:window-height="1057"
     id="namedview3340"
     showgrid="false"
     inkscape:zoom="2.96"
     inkscape:cx="150"
     inkscape:cy="136.48649"
     inkscape:window-x="-8"
     inkscape:window-y="-8"
     inkscape:window-maximized="1"
     inkscape:current-layer="svg415" />
  <metadata
     id="metadata421">
    <rdf:RDF>
      <cc:Work
         rdf:about="">
        <dc:format>image/svg+xml</dc:format>
        <dc:type
           rdf:resource="http://purl.org/dc/dcmitype/StillImage" />
        <dc:title />
      </cc:Work>
    </rdf:RDF>
  </metadata>
  <defs
     id="defs419" />
  <path
     id="path425"
     d="m 190.49537,16.770702 c 1.86708,4.0978 0.78532,6.51913 -12.39906,27.75317 -10.63627,17.1302 -15.69233,28.96562 -20.56875,48.14807 -2.97352,11.697038 -5.2269,30.805498 -4.76109,40.373718 l 0.218,4.47779 2.76123,0.58588 c 1.51867,0.32224 10.36341,0.57095 19.65499,0.55271 18.25678,-0.0358 23.68878,0.61491 30.52212,3.65663 6.60246,2.93895 8.62052,6.59613 7.37065,13.3573 -1.23863,6.70034 -3.20373,10.83829 -17.66684,37.20148 l -14.09403,25.69041 8.09891,12.64062 c 14.30592,22.32834 18.54028,31.11498 19.39247,40.24095 l 0.40225,4.30753 -3.22029,2.21561 c -8.4994,5.84775 -15.77669,7.16628 -38.72502,7.01632 -25.69353,-0.16789 -63.75935,-1.33712 -68.246792,-2.09627 -5.41085,-0.91536 -9.94823,-3.20614 -11.5485,-5.83047 -1.816,-2.97813 -1.76397,-10.16655 0.1144,-15.80459 2.82709,-8.48565 10.97622,-22.64357 20.800262,-36.13741 l 6.09682,-8.37433 -4.39616,-8.88333 c -2.41788,-4.88583 -8.12816,-16.18546 -12.689502,-25.11029 -12.1545,-23.78183 -13.37234,-31.05784 -6.31915,-37.75417 5.11024,-4.85169 11.138602,-5.9834 36.619732,-6.87467 l 12.8944,-0.45103 0.40464,-4.89738 c 0.22255,-2.69355 0.71949,-10.02289 1.10431,-16.28742 0.76036,-12.3778 2.7249,-23.462698 6.59454,-37.209318 4.30686,-15.2999 9.2305,-26.41287 18.05902,-40.76034 2.5596,-4.15968 5.96102,-9.82986 7.55871,-12.60043 3.48168,-6.03757 5.83083,-8.66074 8.90707,-9.94608 3.65605,-1.52759 6.12794,-1.24775 7.06066,0.79934 z M 101.72105,151.71889 c -1.61808,0.70645 -3.134392,1.78593 -3.369592,2.39884 -1.51613,3.95101 7.754702,24.38468 20.280412,44.69959 l 3.73086,6.05092 7.91073,-9.49806 c 9.12818,-10.95977 10.92139,-12.20839 17.58429,-12.24389 6.1756,-0.0329 7.58736,1.05924 17.4877,13.52881 4.48144,5.64443 8.34843,10.25024 8.5933,10.23517 0.78564,-0.0484 25.49664,-42.28572 27.01893,-46.18216 1.41265,-3.61581 1.42918,-5.48545 0.067,-7.58151 -0.46595,-0.71697 -4.24682,-1.31155 -13.98481,-2.19928 -11.40462,-1.03965 -18.36754,-1.164 -47.86157,-0.85477 -31.66544,0.332 -34.75823,0.46793 -37.45728,1.64634 z m 40.65738,45.31962 c -1.00072,0.72465 -4.37023,5.17918 -7.48782,9.89896 -6.49327,9.83032 -6.41062,9.02411 -1.83797,17.92819 3.82866,7.45532 9.04066,14.38795 12.74907,16.95788 l 2.89042,2.00306 3.87195,-4.21446 c 2.12955,-2.31796 6.25406,-8.01558 9.16558,-12.66139 l 5.29365,-8.44691 -7.30851,-10.10749 c -4.01969,-5.55913 -7.79971,-10.81973 -8.40004,-11.69023 -0.92407,-1.33992 -1.55369,-1.5369 -4.10418,-1.28394 -1.65696,0.16433 -3.83143,0.89168 -4.83215,1.61633 z m -24.70625,35.07537 c -1.52904,1.89834 -5.84319,8.8877 -9.58699,15.5319 -3.7438,6.6442 -7.67619,13.46139 -8.738662,15.14931 -2.21241,3.51486 -2.50966,6.59796 -0.72371,7.5064 4.814002,2.4487 48.205032,4.41677 77.832072,3.5302 16.7597,-0.50153 19.88254,-1.17552 20.24708,-4.36983 0.26171,-2.29327 -2.00036,-8.98067 -4.57745,-13.5324 -2.5873,-4.56974 -15.9195,-24.60603 -16.89948,-25.39736 -0.61516,-0.49674 -3.06461,2.23581 -9.11924,10.17315 l -8.27817,10.8523 -5.64906,2.22625 -5.64906,2.22624 -2.91075,-1.48496 c -1.60092,-0.81672 -4.41964,-2.89634 -6.26385,-4.62138 -3.18652,-2.98062 -5.10208,-5.61517 -12.6216,-17.35898 -1.79307,-2.80039 -3.48984,-4.81954 -3.77059,-4.487 -0.28075,0.33255 -1.76149,2.15782 -3.29054,4.05616 z"
     style="fill:#000000;stroke-width:0.6903066"
     inkscape:connector-curvature="0" />
</svg>
