<?xml version="1.0" encoding="UTF-8" standalone="no"?>
<!-- Created with Inkscape (http://www.inkscape.org/) -->

<svg
   xmlns:dc="http://purl.org/dc/elements/1.1/"
   xmlns:cc="http://creativecommons.org/ns#"
   xmlns:rdf="http://www.w3.org/1999/02/22-rdf-syntax-ns#"
   xmlns:svg="http://www.w3.org/2000/svg"
   xmlns="http://www.w3.org/2000/svg"
   xmlns:sodipodi="http://sodipodi.sourceforge.net/DTD/sodipodi-0.dtd"
   xmlns:inkscape="http://www.inkscape.org/namespaces/inkscape"
   width="300"
   height="300"
   id="svg2"
   version="1.1"
   inkscape:version="0.48.4 r9939"
   sodipodi:docname="image-seal.svg">
  <defs
     id="defs4" />
  <sodipodi:namedview
     id="base"
     pagecolor="#ffffff"
     bordercolor="#666666"
     borderopacity="1.0"
     inkscape:pageopacity="0.0"
     inkscape:pageshadow="2"
     inkscape:zoom="2.0506101"
     inkscape:cx="150.3604"
     inkscape:cy="115.67348"
     inkscape:document-units="px"
     inkscape:current-layer="layer1"
     showgrid="false"
     inkscape:window-width="1215"
     inkscape:window-height="1000"
     inkscape:window-x="65"
     inkscape:window-y="24"
     inkscape:window-maximized="1"
     fit-margin-top="10"
     fit-margin-left="10"
     fit-margin-right="10"
     fit-margin-bottom="10" />
  <metadata
     id="metadata7">
    <rdf:RDF>
      <cc:Work
         rdf:about="">
        <dc:format>image/svg+xml</dc:format>
        <dc:type
           rdf:resource="http://purl.org/dc/dcmitype/StillImage" />
        <dc:title />
      </cc:Work>
    </rdf:RDF>
  </metadata>
  <g
     inkscape:label="Calque 1"
     inkscape:groupmode="layer"
     id="layer1"
     transform="translate(0,-752.36218)">
    <path
       style="fill:#000000"
       d="m 149.50044,984.68675 c 0,-74.68726 1.90207,-72.51865 -63.74247,-72.67456 C 66.09109,911.96239 50,909.12886 50,905.70853 c 0,-3.6276 20.72924,-6.21878 49.75022,-6.21878 l 49.75022,0 0,-37.83087 c 0,-50.23535 14.73452,-48.06543 17.41195,2.56419 l 1.86507,35.26668 46.33045,0 c 26.74118,0 46.33052,2.62943 46.33052,6.21878 0,3.59053 -19.62267,6.21878 -46.43045,6.21878 l -46.43045,0 -1.76507,66.34595 c -1.2302,46.24144 -4.12063,67.12734 -9.53855,68.92474 -5.88794,1.9533 -7.77347,-13.2096 -7.77347,-62.51125 z M 110.70864,844.92881 C 95.27662,827.22818 87.31266,808.09307 87.31266,788.71505 c 0,-25.53592 21.79769,-33.25628 87.44888,-30.97287 53.1999,1.85033 72.5546,12.60067 29.1532,16.19276 -12.82623,1.06155 -23.32042,4.06105 -23.32042,6.66566 0,2.60455 8.31749,15.72822 18.48333,29.16376 18.59445,24.57512 23.66556,39.97517 13.16335,39.97517 -8.12658,0 -37.65439,-36.448 -49.28257,-60.83263 -7.67652,-16.09787 -12.74837,-20.00102 -22.56309,-17.36407 -6.96335,1.87085 -17.25854,3.43979 -22.87814,3.48649 -17.74347,0.14739 -18.67399,19.21024 -2.30138,47.14797 15.85552,27.05535 12.77996,42.58009 -4.50718,22.75152 z"
       id="path3002"
       inkscape:connector-curvature="0" />
  </g>
</svg>
