<?xml version="1.0" encoding="UTF-8" standalone="no"?>
<!-- Created with Inkscape (http://www.inkscape.org/) -->

<svg
   xmlns:dc="http://purl.org/dc/elements/1.1/"
   xmlns:cc="http://creativecommons.org/ns#"
   xmlns:rdf="http://www.w3.org/1999/02/22-rdf-syntax-ns#"
   xmlns:svg="http://www.w3.org/2000/svg"
   xmlns="http://www.w3.org/2000/svg"
   xmlns:sodipodi="http://sodipodi.sourceforge.net/DTD/sodipodi-0.dtd"
   xmlns:inkscape="http://www.inkscape.org/namespaces/inkscape"
   width="300"
   height="300"
   id="svg2"
   version="1.1"
   inkscape:version="0.48.4 r9939"
   sodipodi:docname="image-seal.svg">
  <defs
     id="defs4" />
  <sodipodi:namedview
     id="base"
     pagecolor="#ffffff"
     bordercolor="#666666"
     borderopacity="1.0"
     inkscape:pageopacity="0.0"
     inkscape:pageshadow="2"
     inkscape:zoom="1.9351156"
     inkscape:cx="211.18582"
     inkscape:cy="158.19918"
     inkscape:document-units="px"
     inkscape:current-layer="layer1"
     showgrid="false"
     inkscape:window-width="1215"
     inkscape:window-height="1000"
     inkscape:window-x="65"
     inkscape:window-y="24"
     inkscape:window-maximized="1" />
  <metadata
     id="metadata7">
    <rdf:RDF>
      <cc:Work
         rdf:about="">
        <dc:format>image/svg+xml</dc:format>
        <dc:type
           rdf:resource="http://purl.org/dc/dcmitype/StillImage" />
        <dc:title />
      </cc:Work>
    </rdf:RDF>
  </metadata>
  <g
     inkscape:label="Calque 1"
     inkscape:groupmode="layer"
     id="layer1"
     transform="translate(0,-752.36218)">
    <path
       style="fill:#000000"
       d="m 88.922005,1043.8336 c -35.82716,-4.4532 -38.85335,-15.7333 -38.85335,-144.82432 0,-146.87772 -6.58379,-138.36459 109.194805,-141.19444 53.17065,-1.2996 83.11782,0.22581 83.11782,4.23466 0,9.31413 -14.48418,11.30488 -93.05449,12.7896 -58.462615,1.10474 -72.797655,3.23296 -79.406265,11.78864 -7.22977,9.35985 -5.17004,10.78799 19.90107,13.79849 15.381045,1.84694 29.252615,4.64509 30.825615,6.21815 2.57122,2.57122 6.24606,198.73372 4.00438,213.75452 -0.50932,3.412 -3.82907,-0.7754 -7.37755,-9.3054 -3.55183,-8.5381 -6.18942,-55.46776 -5.86808,-104.40859 0.44791,-68.20727 -1.20778,-88.304 -7.11314,-86.34111 -5.572425,1.85228 -8.169635,28.53094 -9.409435,96.65409 -0.94183,51.75263 -4.07461,94.09561 -6.96165,94.09561 -9.76651,0 -13.64526,-52.03436 -9.35117,-125.44809 3.82255,-65.35161 3.19834,-73.06813 -5.91039,-73.06813 -9.01382,0 -10.18426,11.27139 -10.18426,98.07243 0,69.01027 2.29795,101.02379 7.75455,108.03229 5.98873,7.6919 21.17455,10.2905 66.689055,11.4117 86.92736,2.1415 80.64723,4.8288 80.64723,-34.50924 l 0,-34.11998 -24.81453,0 c -30.59278,0 -32.5594,-9.57351 -3.10182,-15.09977 33.32443,-6.25171 25.67734,-28.32566 -9.81284,-28.32566 -6.5449,0 -11.89987,-2.79164 -11.89987,-6.20364 0,-3.41199 8.17552,-6.20363 18.16777,-6.20363 17.81293,0 37.66492,13.5055 37.66492,25.6238 0,3.36962 2.79164,4.40129 6.20364,2.29255 9.63871,-5.95704 7.30509,-38.33597 -3.54494,-49.18594 -5.55375,-5.55374 -20.23564,-9.74857 -34.11999,-9.74857 -13.40425,0 -24.3714,-2.79164 -24.3714,-6.20364 0,-3.412 5.58327,-6.20363 12.40726,-6.20363 11.13472,0 12.40727,-4.13578 12.40727,-40.32362 0,-38.21822 9.27561,-56.29772 13.52671,-26.36544 1.5024,10.57875 6.07882,13.95818 18.90222,13.95818 24.14988,0 24.26731,12.02493 0.1402,14.35123 -17.69549,1.70613 -20.1618,4.15799 -20.1618,20.04363 0,14.05198 3.41144,18.95582 15.25467,21.92829 8.39004,2.10577 18.43471,7.6605 22.32154,12.34387 10.89159,13.12348 9.61334,50.26934 -2.1781,63.29883 -7.78959,8.60736 -10.31087,22.18072 -9.84826,53.01799 0.34182,22.79679 3.10808,41.44869 6.14687,41.44869 3.03878,0 5.52508,2.7917 5.52508,6.2037 0,6.0078 -109.12694,7.2323 -153.459285,1.7219 z M 149.32679,895.96019 c 0,-75.17581 2.15297,-113.80267 6.20363,-111.29925 8.40443,5.19424 8.40443,226.43256 0,226.43256 -3.91288,0 -6.20363,-42.51352 -6.20363,-115.13331 z"
       id="path3015"
       inkscape:connector-curvature="0" />
  </g>
</svg>
