<?xml version="1.0" encoding="UTF-8" standalone="no"?>
<!-- Created with Inkscape (http://www.inkscape.org/) -->

<svg
   xmlns:dc="http://purl.org/dc/elements/1.1/"
   xmlns:cc="http://creativecommons.org/ns#"
   xmlns:rdf="http://www.w3.org/1999/02/22-rdf-syntax-ns#"
   xmlns:svg="http://www.w3.org/2000/svg"
   xmlns="http://www.w3.org/2000/svg"
   xmlns:sodipodi="http://sodipodi.sourceforge.net/DTD/sodipodi-0.dtd"
   xmlns:inkscape="http://www.inkscape.org/namespaces/inkscape"
   width="300"
   height="300"
   id="svg2"
   version="1.1"
   inkscape:version="0.48.4 r9939"
   sodipodi:docname="image-seal.svg">
  <defs
     id="defs4" />
  <sodipodi:namedview
     id="base"
     pagecolor="#ffffff"
     bordercolor="#666666"
     borderopacity="1.0"
     inkscape:pageopacity="0.0"
     inkscape:pageshadow="2"
     inkscape:zoom="1.9351156"
     inkscape:cx="211.18582"
     inkscape:cy="158.19918"
     inkscape:document-units="px"
     inkscape:current-layer="layer1"
     showgrid="false"
     inkscape:window-width="1215"
     inkscape:window-height="1000"
     inkscape:window-x="65"
     inkscape:window-y="24"
     inkscape:window-maximized="1" />
  <metadata
     id="metadata7">
    <rdf:RDF>
      <cc:Work
         rdf:about="">
        <dc:format>image/svg+xml</dc:format>
        <dc:type
           rdf:resource="http://purl.org/dc/dcmitype/StillImage" />
        <dc:title />
      </cc:Work>
    </rdf:RDF>
  </metadata>
  <g
     inkscape:label="Calque 1"
     inkscape:groupmode="layer"
     id="layer1"
     transform="translate(0,-752.36218)">
    <path
       style="fill:#000000"
       d="m 84.563734,1042.6366 c -30.2809,-6.4863 -34.46008,-23.4021 -34.56304,-139.89822 -0.0502,-57.54016 2.62937,-111.77735 5.95605,-120.5271 3.50199,-9.21093 12.91676,-17.63256 22.3622,-20.00315 27.095366,-6.80052 156.399306,-6.30254 158.148266,0.60884 0.98073,3.87545 -29.63851,6.93903 -80.17061,8.0214 -81.058356,1.73611 -81.809026,1.88703 -87.802566,17.65131 -6.79456,17.87107 -7.16771,197.74686 -0.46024,222.00202 2.53036,9.1505 9.70145,16.4574 17.22744,17.5537 12.21199,1.7789 13.12055,-2.1545 17.209386,-74.50486 2.37423,-42.01059 7.13717,-81.6529 10.58436,-88.09394 5.13113,-9.58765 13.6455,-11.71107 46.95869,-11.71107 38.47893,0 41.04258,0.92417 47.154,16.99845 7.12626,18.74352 2.59563,46.11007 -8.83785,53.38299 -4.03741,2.56823 -23.18141,4.71272 -42.54236,4.76551 l -35.2016,0.0959 -3.98744,29.09124 c -6.60275,48.17268 -4.88264,69.54748 5.93084,73.69698 5.45499,2.0933 35.0819,3.806 65.83758,3.806 33.09944,0 55.91937,2.5588 55.91937,6.2702 0,6.8896 -128.28754,7.5268 -159.722166,0.7935 z M 192.58352,905.46531 c 1.8785,-5.69464 -7.84458,-7.83781 -35.55857,-7.83781 -30.27142,0 -38.14397,2.00579 -38.14397,9.71826 0,7.85618 6.81338,9.35796 35.55856,7.8378 21.43158,-1.13334 36.5857,-4.99431 38.14398,-9.71825 z m -21.97301,-26.56296 c 12.93238,-0.0502 23.51342,-2.90719 23.51342,-6.35583 0,-3.44864 -15.21695,-6.27025 -33.8155,-6.27025 -25.39173,0 -34.78682,2.53124 -37.71465,10.16106 -3.1017,8.08279 -0.99465,9.38274 10.30208,6.35584 7.81065,-2.09282 24.78227,-3.84366 37.71465,-3.89082 z m -29.80568,116.76032 c -19.95832,-30.46023 10.06469,-60.51734 50.34939,-50.40651 16.17234,4.05898 28.05069,19.37111 28.05069,36.15957 0,16.65158 -18.8851,29.07617 -44.19507,29.07617 -18.8293,0 -26.73401,-3.427 -34.20501,-14.82923 z m 58.92978,-6.32185 c 15.25463,-18.38073 -8.57086,-38.25207 -36.96191,-30.82766 -12.19431,3.18892 -17.60616,26.0123 -8.36031,35.25809 7.42316,7.42325 37.96214,4.43789 45.32222,-4.43043 z M 81.259504,851.39924 c 0,-10.39532 50.381616,-57.87794 71.734816,-67.60711 13.21617,-6.02169 18.50744,-4.38773 39.17768,12.09807 34.18281,27.26302 61.30062,57.01923 56.41547,61.90431 -2.30425,2.30432 -20.92168,-10.36352 -41.37196,-28.15064 -20.45034,-17.78718 -40.93222,-32.26468 -45.51527,-32.17226 -4.58311,0.0922 -23.52371,14.20048 -42.09028,31.35123 -37.128636,34.29737 -38.350456,35.01663 -38.350456,22.5764 z m 57.960716,-14.36965 c -14.79258,-5.96375 -0.83113,-14.64504 23.55248,-14.64504 25.72751,0 38.03073,8.63564 21.39703,15.01862 -11.45399,4.39526 -33.57692,4.21141 -44.94951,-0.3737 z"
       id="path3145"
       inkscape:connector-curvature="0" />
  </g>
</svg>
