<?xml version="1.0" encoding="UTF-8" standalone="no"?>
<svg
   xmlns:dc="http://purl.org/dc/elements/1.1/"
   xmlns:cc="http://creativecommons.org/ns#"
   xmlns:rdf="http://www.w3.org/1999/02/22-rdf-syntax-ns#"
   xmlns:svg="http://www.w3.org/2000/svg"
   xmlns="http://www.w3.org/2000/svg"
   xmlns:sodipodi="http://sodipodi.sourceforge.net/DTD/sodipodi-0.dtd"
   xmlns:inkscape="http://www.inkscape.org/namespaces/inkscape"
   viewBox="0 0 300 300"
   height="300"
   width="300"
   id="svg114"
   version="1.1"
   inkscape:version="0.91 r13725"
   sodipodi:docname="𢓊-seal.svg">
  <sodipodi:namedview
     pagecolor="#ffffff"
     bordercolor="#666666"
     borderopacity="1"
     objecttolerance="10"
     gridtolerance="10"
     guidetolerance="10"
     inkscape:pageopacity="0"
     inkscape:pageshadow="2"
     inkscape:window-width="1920"
     inkscape:window-height="1057"
     id="namedview3340"
     showgrid="false"
     inkscape:zoom="2.0930361"
     inkscape:cx="148.46069"
     inkscape:cy="166.6525"
     inkscape:window-x="-8"
     inkscape:window-y="-8"
     inkscape:window-maximized="1"
     inkscape:current-layer="svg114" />
  <metadata
     id="metadata120">
    <rdf:RDF>
      <cc:Work
         rdf:about="">
        <dc:format>image/svg+xml</dc:format>
        <dc:type
           rdf:resource="http://purl.org/dc/dcmitype/StillImage" />
        <dc:title></dc:title>
      </cc:Work>
    </rdf:RDF>
  </metadata>
  <defs
     id="defs118" />
  <path
     inkscape:connector-curvature="0"
     id="path416"
     d="m 265.77963,274.49162 c -12.1982,-5.26466 -17.01133,-6.76301 -35.28971,-10.98591 -17.28463,-3.99331 -19.54308,-5.26838 -42.51164,-6.63067 -24.85145,-1.47396 -39.29291,-3.72571 -51.89464,-17.08465 -6.96894,-7.38771 -9.66453,-17.11077 -10.94164,-24.82835 -1.16568,-7.04425 -3.0999,-50.11562 -3.44161,-75.21425 0,0 -0.0906,-53.246748 1.10798,-59.905739 0.81084,-4.504871 1.77625,-7.087393 4.58194,-7.055355 5.9743,0.06822 6.57123,6.343715 6.30019,29.649244 0,0 -0.19064,82.96552 2.46476,105.90692 1.17215,10.1267 3.06174,18.96413 9.58712,25.06829 9.06784,8.48252 25.77445,11.1527 40.45687,11.16276 l 0.86744,-156.340907 c 0.20216,-36.43513 -0.99448,-56.823126 6.89061,-52.650834 2.73297,1.446117 4.42224,7.229544 4.17233,28.166608 -0.11904,9.972922 -0.15917,41.303543 -0.0892,69.623603 l 0.12726,51.49094 c 0,0 24.0296,-0.42289 33.32902,-4.19679 3.87915,-1.60841 5.05011,-2.48902 6.91773,-5.20239 5.00608,-7.27314 5.46047,-12.69552 5.46506,-65.21736 0.003,-26.480108 0.0918,-42.602248 0.67836,-44.196147 2.39471,-6.506865 7.54032,-4.960324 9.1777,-1.065677 1.37763,3.276789 1.57586,5.065816 1.95647,17.244712 0.85715,28.070352 1.57627,57.681792 -1.43127,86.946822 -0.76335,7.42785 -4.7125,14.0721 -9.09694,17.76225 -7.66832,6.35854 -19.66865,9.54458 -35.98342,9.55341 l -10.75032,-0.10978 -0.3472,49.15515 c 15.28904,2.42613 48.14698,8.23519 74.03982,17.17539 9.02168,3.22521 12.54237,6.1784 12.27276,9.86242 -0.46224,6.31617 -15.72156,3.13669 -18.61585,1.91618 z"
     style="fill:#000000;stroke-width:0.77951938" />
  <path
     inkscape:connector-curvature="0"
     style="fill:#000000"
     d="m 53.906393,11.876502 c -7.882437,0.296004 -4.581165,5.633771 9.610287,15.213782 28.751198,19.408622 26.464417,46.127709 -4.83427,56.480579 -20.09561,6.647151 -22.130439,7.708068 -22.130439,11.517326 0,8.582831 10.273329,7.416111 39.119091,-4.442781 8.371183,-3.441521 12.44794,-0.617807 12.44794,8.623005 -3.031734,18.716547 -13.284061,23.068637 -28.159883,34.018597 -16.987637,13.71843 -24.271002,26.51947 -29.238551,51.38865 -3.057966,15.30917 -3.019622,20.26176 0.228316,29.23675 5.668664,15.66417 12.559738,25.93923 18.030055,26.88203 7.981726,1.3756 8.794444,-6.90118 2.29016,-23.33649 -6.722541,-22.01093 -9.269845,-34.30417 0.468283,-54.40495 0.881532,-3.91138 4.362422,-10.22468 7.734819,-14.02917 5.005979,-5.64728 7.141473,-6.43806 11.630189,-4.30632 10.464271,4.96954 14.91348,17.36102 15.455662,43.05301 0.697394,33.04556 -3.968113,49.85952 -24.460207,88.15475 -4.596227,8.58938 -8.356866,16.88478 -8.356866,18.4327 0,1.54789 2.306782,2.81368 5.125486,2.81368 3.3473,0 8.060985,-5.07081 13.59185,-14.61838 4.657455,-8.0399 9.235276,-15.18862 10.174089,-15.88774 0.938837,-0.69911 5.279295,-10.42427 9.64522,-21.61024 6.565474,-16.8214 8.189386,-26.053 9.388956,-53.38778 1.4389,-32.78853 1.38416,-33.16304 -7.000939,-47.41311 -8.017577,-13.62537 -8.185947,-14.5317 -3.282647,-17.66775 6.115761,-3.91153 13.925006,-20.14723 13.925006,-28.947326 0,-3.419873 -2.20168,-10.318015 -4.89483,-15.329556 C 96.455617,74.945414 96.180548,72.252648 98.980354,68.274386 104.18318,60.881651 103.17136,48.540928 96.24755,34.946296 89.691225,22.073231 76.123804,13.961521 57.969509,12.060497 56.386074,11.894689 55.032451,11.834215 53.906393,11.876502 Z"
     id="path2318" />
</svg>
