<?xml version="1.0" encoding="UTF-8" standalone="no"?>
<svg
   xmlns:dc="http://purl.org/dc/elements/1.1/"
   xmlns:cc="http://creativecommons.org/ns#"
   xmlns:rdf="http://www.w3.org/1999/02/22-rdf-syntax-ns#"
   xmlns:svg="http://www.w3.org/2000/svg"
   xmlns="http://www.w3.org/2000/svg"
   viewBox="0 0 300 300"
   height="300"
   width="300"
   id="svg16"
   version="1.1">
  <metadata
     id="metadata22">
    <rdf:RDF>
      <cc:Work
         rdf:about="">
        <dc:format>image/svg+xml</dc:format>
        <dc:type
           rdf:resource="http://purl.org/dc/dcmitype/StillImage" />
        <dc:title></dc:title>
      </cc:Work>
    </rdf:RDF>
  </metadata>
  <defs
     id="defs20" />
  <path
     id="path26"
     d="M 222.52537,273.7501 C 203.13096,245.63712 187.03194,210.5023 178.26108,179.87713 148.959,196.37822 115.66394,217.4181 86.0793,240.2704 c -5.466714,4.22269 -11.066167,5.68583 -13.833774,1.94114 -2.739418,-3.70656 -0.210228,-7.72835 5.85519,-12.5261 30.164354,-23.86001 64.891754,-45.5202 96.402134,-63.57642 -2.46516,-9.58013 -3.62604,-18.33464 -4.82083,-26.78213 l -97.657678,-0.16735 c -8.635678,-0.0148 -13.733691,-0.26108 -14.014289,-7.32082 -0.219694,-5.52741 7.877826,-6.8209 16.112098,-6.91647 L 110.67224,124.49802 110.57724,100 88.613843,99.977704 c -8.411665,-0.009 -12.026361,-1.02945 -12.130818,-5.46294 -0.108349,-4.598641 4.150733,-6.101764 12.301892,-6.252746 l 21.776143,-0.403357 -0.0212,-22.506786 -21.032421,0.01022 c -8.872115,0.0043 -12.42556,-0.839186 -12.620588,-5.412434 -0.195724,-4.589566 5.84782,-6.443789 12.157199,-6.490326 l 21.47102,-0.158367 -0.0565,-19.686777 c -0.0148,-5.1388 0.75887,-11.659232 6.54451,-11.735078 4.0585,-0.0532 5.48405,5.158544 5.60588,12.261444 l 0.32364,19.163419 19.21626,-0.0517 c 5.54382,-0.01492 12.57273,-0.217239 12.66743,5.60301 0.1005,6.17745 -7.9634,6.298831 -12.49316,6.361136 l -19.20894,0.20502 0.19755,22.449026 17.88553,0.202631 c 5.74012,0.06503 13.40583,0.814088 13.43302,6.563485 0.0231,4.89282 -7.73671,5.34329 -12.80364,5.35406 l -18.43913,0.0392 0.18936,24.47149 45.07344,0.004 c -3.1288,-31.088156 -2.19881,-66.156399 -2.23593,-97.549979 -0.006,-4.566468 1.34044,-11.998538 6.03991,-11.955161 4.67312,0.04313 5.99436,6.975744 6.1468,12.38442 l 0.69055,56.636952 c 16.67692,0.311324 26.71076,1.316148 28.3762,-13.707244 1.18419,-10.682165 1.47532,-19.300927 1.40789,-31.576484 -0.0381,-6.924884 1.07326,-10.352818 4.9624,-10.581836 4.04301,-0.23808 6.15778,4.499322 6.41417,10.319028 0.0107,10.519029 0.23014,22.973626 -1.24571,34.529633 -2.82222,22.098315 -19.79376,24.269925 -39.96193,23.486645 -0.0218,9.291686 0.69049,14.940956 2.0102,28.004446 l 41.92486,0.11536 c 5.20242,0.0143 18.69047,0.51342 18.81391,7.87223 0.10603,6.32099 -12.16978,6.82072 -17.98242,6.63773 l -41.53629,0.15691 c 0.69781,7.07797 2.43008,14.20461 4.02492,20.16019 9.99607,-5.41468 23.13741,-10.23023 29.14232,-12.49864 6.99929,-2.64404 13.20868,-3.04784 14.76148,1.65363 1.5979,4.83804 -3.82674,7.16324 -11.18868,10.41407 -10.29213,4.3237 -20.0183,9.53118 -29.27052,14.65935 8.67259,31.3725 25.24998,66.59304 43.18361,92.74865 4.55088,6.63731 10.13195,13.95315 5.22396,17.61827 -5.04087,3.76435 -11.67938,-4.27152 -15.82666,-10.28316 z"
     style="fill:#000000;stroke-width:0.68791437" />
</svg>
