<?xml version="1.0" encoding="UTF-8" standalone="no"?>
<!-- Created with Inkscape (http://www.inkscape.org/) -->

<svg
   xmlns:dc="http://purl.org/dc/elements/1.1/"
   xmlns:cc="http://creativecommons.org/ns#"
   xmlns:rdf="http://www.w3.org/1999/02/22-rdf-syntax-ns#"
   xmlns:svg="http://www.w3.org/2000/svg"
   xmlns="http://www.w3.org/2000/svg"
   xmlns:sodipodi="http://sodipodi.sourceforge.net/DTD/sodipodi-0.dtd"
   xmlns:inkscape="http://www.inkscape.org/namespaces/inkscape"
   width="300"
   height="300"
   id="svg2"
   version="1.1"
   inkscape:version="0.91 r13725"
   sodipodi:docname="image-seal.svg">
  <defs
     id="defs4" />
  <sodipodi:namedview
     id="base"
     pagecolor="#ffffff"
     bordercolor="#666666"
     borderopacity="1.0"
     inkscape:pageopacity="0.0"
     inkscape:pageshadow="2"
     inkscape:zoom="2.7366667"
     inkscape:cx="150"
     inkscape:cy="150"
     inkscape:document-units="px"
     inkscape:current-layer="layer1"
     showgrid="false"
     inkscape:window-width="1231"
     inkscape:window-height="1000"
     inkscape:window-x="49"
     inkscape:window-y="24"
     inkscape:window-maximized="1"
     showguides="true"
     inkscape:guide-bbox="true" />
  <metadata
     id="metadata7">
    <rdf:RDF>
      <cc:Work
         rdf:about="">
        <dc:format>image/svg+xml</dc:format>
        <dc:type
           rdf:resource="http://purl.org/dc/dcmitype/StillImage" />
        <dc:title />
      </cc:Work>
    </rdf:RDF>
  </metadata>
  <g
     inkscape:label="Calque 1"
     inkscape:groupmode="layer"
     id="layer1"
     transform="translate(0,-752.36218)">
    <path
       style="fill:#000000"
       d="m 102.75265,1040.3373 c -2.0926,-5.4533 -3.80471,-31.1518 -3.80471,-57.10781 0,-34.95659 -2.038944,-46.51386 -7.863844,-44.57445 -4.32511,1.44009 -8.38304,6.63023 -9.01769,11.53368 -9.16722,70.83128 -20.04757,75.72888 -16.31199,7.3425 3.12723,-57.25027 7.80848,-75.03117 13.78701,-52.36777 2.2142,8.39374 7.4865,16.41486 11.71618,17.82469 5.66152,1.88719 7.690334,-11.68209 7.690334,-51.43493 0,-56.80297 -8.454894,-71.88148 -15.829604,-28.23075 -6.79587,40.22411 -13.07152,20.28846 -10.58712,-33.63144 2.19861,-47.71753 13.83457,-70.20547 13.83457,-26.73706 0,16.03777 2.74851,22.01876 10.11863,22.01876 7.563194,0 9.153384,-3.84574 6.296674,-15.2278 -4.43766,-17.68106 1.20889,-36.6153 9.40817,-31.54784 7.35842,4.54776 7.35842,284.02672 0,288.57452 -3.09747,1.9144 -7.34394,-0.9811 -9.43661,-6.4343 z m 24.04064,-4.6823 c -6.75271,-17.5972 9.71348,-61.0076 25.94652,-68.40389 16.99024,-7.74129 20.5335,-17.58373 6.33002,-17.58373 -13.07914,0 -27.84441,-23.80372 -23.96565,-38.63612 1.82057,-6.96176 10.70835,-15.49139 19.75063,-18.95469 l 16.44046,-6.29692 -19.5324,-8.26024 c -19.94263,-8.43381 -29.83622,-27.37579 -21.41525,-41.00118 3.04054,-4.91981 7.08438,-0.73448 11.48379,11.88572 6.91018,19.82254 26.31832,27.22858 26.31832,10.04288 0,-5.19013 -2.64023,-9.43661 -5.86711,-9.43661 -3.22695,0 -7.66417,-5.66196 -9.86057,-12.58214 -2.1964,-6.92018 -9.4646,-12.58215 -16.15163,-12.58215 -6.68697,0 -12.15819,-2.83098 -12.15819,-6.29107 0,-3.73111 23.19103,-6.29107 56.99095,-6.29107 36.39196,0 55.58558,2.27384 53.10281,6.29107 -2.13846,3.46009 -9.38301,6.29107 -16.09898,6.29107 -8.01677,0 -12.21084,4.32159 -12.21084,12.58215 0,6.99007 -4.19407,12.58214 -9.43661,12.58214 -5.19014,0 -9.43661,4.24648 -9.43661,9.43661 0,21.8845 27.2567,6.27245 32.95031,-18.87322 2.60626,-11.51033 3.25877,-11.64018 7.65976,-1.5242 6.46326,14.85612 -12.08345,42.41617 -28.54423,42.41617 -7.04462,0 -11.05876,2.83099 -8.9203,6.29108 2.13846,3.46008 9.32903,6.29107 15.97907,6.29107 7.64755,0 13.5404,5.77482 16.03487,15.71359 5.46996,21.79403 -0.45107,33.68951 -20.5774,41.34159 l -17.19571,6.53781 15.33776,7.64667 c 8.43577,4.20571 18.89052,14.66839 23.23281,23.25042 9.45252,18.68179 10.65028,56.49569 1.78949,56.49569 -3.46009,0 -6.29107,-8.3087 -6.29107,-18.4637 0,-26.15621 -10.59234,-50.73813 -21.86305,-50.73813 -12.66676,0 -12.1385,6.11668 1.41707,16.4068 10.48514,7.95934 10.48514,8.36687 0,8.55743 -13.37589,0.2428 -14.91878,12.7822 -1.57277,12.7822 5.19013,0 9.43661,2.831 9.43661,6.2911 0,3.4601 -12.73942,6.2911 -28.30983,6.2911 -15.5704,0 -28.30982,-2.831 -28.30982,-6.2911 0,-3.4601 4.24647,-6.2911 9.43661,-6.2911 13.34594,0 11.80312,-12.5391 -1.57277,-12.7822 -9.99689,-0.18181 -9.89448,-1.04356 1.11352,-9.37162 6.66759,-5.04437 9.97487,-11.31959 7.34948,-13.94498 -7.89435,-7.89429 -22.61792,18.19359 -22.61792,40.0755 0,21.9374 -10.39712,34.2017 -16.19215,19.1002 z m 85.39395,-116.93058 c 0,-6.39487 -5.66197,-13.1077 -12.58215,-14.91739 -8.17751,-2.13846 -12.58214,-0.19313 -12.58214,5.55735 0,4.86621 4.95422,8.93766 11.00938,9.04769 10.48514,0.19062 10.48514,0.59828 0,8.55743 -15.02088,11.40245 -13.93095,18.41303 1.57276,10.11573 6.92018,-3.70355 12.58215,-11.96593 12.58215,-18.36081 z m -44.03751,12.06974 c 0,-3.46009 -4.95422,-6.61947 -11.00937,-7.02084 -10.48514,-0.69503 -10.48514,-0.86678 0,-3.60686 6.05515,-1.58233 11.00937,-7.01549 11.00937,-12.0737 0,-7.24719 -2.6671,-7.76928 -12.58214,-2.46289 -14.48104,7.75004 -15.64766,13.29128 -5.03286,23.90608 9.18629,9.18628 17.615,9.78834 17.615,1.25821 z m 25.16429,-97.51162 c 0,-5.87165 -5.94154,-9.43661 -15.72768,-9.43661 -15.2739,0 -20.08701,6.12581 -11.53361,14.67915 7.91398,7.91404 27.26129,4.19344 27.26129,-5.24254 z m -56.61965,-34.6009 c 0,-8.24237 79.83541,-8.24237 84.92948,0 2.45182,3.96709 -12.51685,6.29108 -40.52067,6.29108 -25.41185,0 -44.40881,-2.6912 -44.40881,-6.29108 z m -12.58214,-18.87321 c 0,-3.70066 22.01875,-6.29108 53.47411,-6.29108 31.45536,0 53.47412,2.59042 53.47412,6.29108 0,3.70066 -22.01876,6.29107 -53.47412,6.29107 -31.45536,0 -53.47411,-2.59041 -53.47411,-6.29107 z"
       id="path4493"
       inkscape:connector-curvature="0" />
  </g>
</svg>
