<?xml version="1.0" encoding="UTF-8" standalone="no"?>
<!-- Created with Inkscape (http://www.inkscape.org/) -->

<svg
   xmlns:dc="http://purl.org/dc/elements/1.1/"
   xmlns:cc="http://creativecommons.org/ns#"
   xmlns:rdf="http://www.w3.org/1999/02/22-rdf-syntax-ns#"
   xmlns:svg="http://www.w3.org/2000/svg"
   xmlns="http://www.w3.org/2000/svg"
   xmlns:sodipodi="http://sodipodi.sourceforge.net/DTD/sodipodi-0.dtd"
   xmlns:inkscape="http://www.inkscape.org/namespaces/inkscape"
   width="300"
   height="300"
   id="svg2"
   version="1.1"
   inkscape:version="0.92.4 (5da689c313, 2019-01-14)"
   sodipodi:docname="image-bigseal.svg">
  <defs
     id="defs4" />
  <sodipodi:namedview
     id="base"
     pagecolor="#ffffff"
     bordercolor="#666666"
     borderopacity="1.0"
     inkscape:pageopacity="0.0"
     inkscape:pageshadow="2"
     inkscape:zoom="1.4"
     inkscape:cx="188.87961"
     inkscape:cy="190.47153"
     inkscape:document-units="px"
     inkscape:current-layer="layer1"
     showgrid="false"
     inkscape:window-width="1872"
     inkscape:window-height="1016"
     inkscape:window-x="48"
     inkscape:window-y="27"
     inkscape:window-maximized="1" />
  <metadata
     id="metadata7">
    <rdf:RDF>
      <cc:Work
         rdf:about="">
        <dc:format>image/svg+xml</dc:format>
        <dc:type
           rdf:resource="http://purl.org/dc/dcmitype/StillImage" />
        <dc:title />
      </cc:Work>
    </rdf:RDF>
  </metadata>
  <g
     inkscape:label="Calque 1"
     inkscape:groupmode="layer"
     id="layer1"
     transform="translate(0,-752.36218)">
    <path
       style="fill:#000000;stroke-width:6.03617001"
       d="m 214.69805,1036.7027 c -2.52276,-4.0818 -5.88466,-41.11191 -7.47097,-82.28898 -2.07457,-53.85428 -5.31334,-77.29671 -11.53916,-83.5226 -6.36062,-6.36055 -24.6376,-8.65508 -68.94194,-8.65508 -38.65406,0 -58.94815,-2.16596 -56.55619,-6.03617 2.05181,-3.3199 18.67005,-6.03617 36.92947,-6.03617 20.59559,0 31.78272,-2.29151 29.4684,-6.03617 -2.05182,-3.3199 -12.9232,-6.03617 -24.15863,-6.03617 -14.267087,0 -23.26207,-4.04599 -29.82465,-13.41545 -10.51616,-15.01395 -12.6433,-40.91008 -3.36034,-40.91008 3.3199,0 6.03617,8.21607 6.03617,18.2579 0,14.0446 3.57305,19.61641 15.48338,24.14468 31.30756,11.90315 46.84358,2.14822 17.71556,-11.12345 -11.35549,-5.1739 -15.09043,-11.49027 -15.09043,-25.52032 0,-15.62475 -1.87308,-18.0502 -11.56433,-14.97429 -6.36044,2.01873 -13.09686,1.19075 -14.96989,-1.83989 -3.77266,-6.1042 48.26196,-13.63788 60.84508,-8.80931 4.40628,1.69086 7.94233,12.16609 7.94233,23.52857 0,26.7671 16.84894,28.28761 22.10747,1.99502 2.54896,-12.74489 5.63803,-16.5449 9.94683,-12.2361 9.00759,9.00759 -4.58647,35.86734 -21.44193,42.366 -11.77415,4.5395 -12.24183,5.81736 -3.43379,9.38299 17.14749,6.94159 43.65642,-9.97622 47.22566,-30.13908 2.008,-11.34323 4.89866,-15.35022 7.77918,-10.7832 6.85986,10.87633 -1.69146,37.50924 -14.19158,44.19907 -6.03961,3.23231 -17.7901,5.87694 -26.11217,5.87694 -25.64099,0 -23.10429,10.33356 3.58428,14.60125 37.19023,5.94696 40.93392,11.33599 40.93392,58.92467 0,23.02678 2.95821,60.9329 6.57375,84.23572 6.46323,41.6564 5.1366,55.4964 -3.91548,40.8497 z M 139.60574,799.34995 c 0,-16.56554 -7.44501,-27.65646 -18.56484,-27.65646 -7.22162,0 -10.2263,3.23551 -8.40845,9.05425 1.5557,4.97984 4.10152,13.12867 5.65728,18.10851 3.59273,11.50011 21.31601,11.91057 21.31601,0.49376 z m -15.09042,197.42127 c -6.63979,-1.51683 -15.46769,-7.12232 -19.61756,-12.4566 -8.95496,-11.5108 -10.20758,-67.75305 -1.50904,-67.75305 3.3199,0 6.03617,5.43255 6.03617,12.07234 0,7.94987 4.02414,12.07234 11.7843,12.07234 10.23221,0 12.0302,-4.96892 13.65104,-37.72607 1.72133,-34.78856 2.42297,-36.47078 9.01097,-21.60508 5.17366,11.67438 10.37763,15.2755 18.86665,13.05557 6.44736,-1.68602 13.54746,-0.11287 15.77801,3.49652 2.58276,4.17902 -2.65,6.56204 -14.40918,6.56204 -16.49227,0 -18.46477,1.93441 -18.46477,18.10851 0,14.39089 2.61101,18.10851 12.71815,18.10851 8.7018,0 11.64432,-2.79825 9.31786,-8.86092 -1.87013,-4.87354 -0.80263,-10.46642 2.37227,-12.42859 8.83858,-5.46256 7.10868,60.99555 -1.77264,68.10103 -10.61147,8.48963 -29.56365,12.49703 -43.76223,9.25345 z m 30.87633,-12.39516 c 3.70241,-2.43909 8.63891,-10.54633 10.97008,-18.01609 4.01176,-12.85523 2.60298,-13.58138 -26.34921,-13.58138 -25.43063,0 -30.58763,1.83185 -30.58763,10.8651 0,20.89934 27.13536,33.13815 45.96676,20.73237 z"
       id="path167"
       inkscape:connector-curvature="0" />
  </g>
</svg>
