<?xml version="1.0" encoding="UTF-8" standalone="no"?>
<!-- Created with Inkscape (http://www.inkscape.org/) -->

<svg
   xmlns:dc="http://purl.org/dc/elements/1.1/"
   xmlns:cc="http://creativecommons.org/ns#"
   xmlns:rdf="http://www.w3.org/1999/02/22-rdf-syntax-ns#"
   xmlns:svg="http://www.w3.org/2000/svg"
   xmlns="http://www.w3.org/2000/svg"
   xmlns:sodipodi="http://sodipodi.sourceforge.net/DTD/sodipodi-0.dtd"
   xmlns:inkscape="http://www.inkscape.org/namespaces/inkscape"
   width="300"
   height="300"
   id="svg2"
   version="1.1"
   inkscape:version="0.92.4 (5da689c313, 2019-01-14)"
   sodipodi:docname="image-bigseal.svg">
  <defs
     id="defs4" />
  <sodipodi:namedview
     id="base"
     pagecolor="#ffffff"
     bordercolor="#666666"
     borderopacity="1.0"
     inkscape:pageopacity="0.0"
     inkscape:pageshadow="2"
     inkscape:zoom="1.979899"
     inkscape:cx="216.03327"
     inkscape:cy="173.92429"
     inkscape:document-units="px"
     inkscape:current-layer="layer1"
     showgrid="false"
     inkscape:window-width="1872"
     inkscape:window-height="1016"
     inkscape:window-x="48"
     inkscape:window-y="27"
     inkscape:window-maximized="1" />
  <metadata
     id="metadata7">
    <rdf:RDF>
      <cc:Work
         rdf:about="">
        <dc:format>image/svg+xml</dc:format>
        <dc:type
           rdf:resource="http://purl.org/dc/dcmitype/StillImage" />
        <dc:title />
      </cc:Work>
    </rdf:RDF>
  </metadata>
  <g
     inkscape:label="Calque 1"
     inkscape:groupmode="layer"
     id="layer1"
     transform="translate(0,-752.36218)">
    <path
       style="fill:#000000;stroke-width:6.08945179"
       d="m 119.67755,1042.14 c -2.5119,-2.5179 -4.56709,-24.6732 -4.56709,-49.23403 V 948.25001 H 95.015266 c -11.052354,0 -23.383494,-3.2883 -27.402532,-7.30734 -10.607728,-10.6077 -9.935568,-139.0069 0.804581,-153.6949 9.603832,-13.13403 66.943675,-21.07455 73.663835,-10.20111 2.86492,4.63548 -5.18778,6.78816 -25.39342,6.78816 -32.651368,0 -44.203435,7.47961 -44.203435,28.62042 0,11.8502 3.165395,14.00574 20.567458,14.00574 11.312107,0 23.710967,3.7877 27.553027,8.41708 7.8795,9.49425 6.95938,215.16754 -0.92723,207.26194 z m -4.56709,-127.38197 c 0,-20.22855 -1.06625,-21.31308 -20.953704,-21.31308 -24.429022,0 -29.598978,5.78394 -24.243342,27.12248 3.21249,12.7996 7.493362,15.50368 24.544112,15.50368 19.543714,0 20.652934,-1.14469 20.652934,-21.31308 z m 0,-54.80507 c 0,-20.29815 -1.01491,-21.31308 -21.313084,-21.31308 -20.29817,0 -21.313081,1.01493 -21.313081,21.31308 0,20.29816 1.014911,21.31309 21.313081,21.31309 20.298174,0 21.313084,-1.01493 21.313084,-21.31309 z m 46.94382,128.28149 c -4.80215,-4.80214 -10.59527,-22.78338 -12.8736,-39.95831 -4.97708,-37.51906 1.78828,-108.3856 9.2077,-96.44985 2.77838,4.46972 3.47808,18.0277 1.55488,30.1289 -3.18625,20.04861 -2.08771,22.27162 12.37194,25.03574 l 15.86868,3.03353 v -75.63313 c 0,-48.87138 2.15467,-74.30141 6.08945,-71.86959 3.3492,2.06992 6.08945,15.93293 6.08945,30.80666 0,26.8468 0.15474,27.04313 21.31309,27.04313 11.72219,0 21.31308,2.74025 21.31308,6.08945 0,3.3492 -9.59089,6.08945 -21.31308,6.08945 h -21.31309 v 35.8265 c 0,30.70521 1.74093,36.28174 12.17891,39.01134 11.08181,2.89797 12.1789,0.18695 12.1789,-30.09644 0,-20.63685 2.31354,-31.85143 6.08945,-29.51777 8.11542,5.01558 7.81691,101.22904 -0.38095,122.79105 -3.55873,9.36016 -9.7243,19.08745 -13.70127,21.61628 -12.12929,7.71247 -45.41723,5.30939 -54.67354,-3.94694 z m 56.36261,-15.22631 c 3.46703,-6.4782 6.3037,-21.54959 6.3037,-33.49198 v -21.7134 H 190.4009 156.08122 l 3.82515,27.90753 c 5.01565,36.59316 7.01539,39.07643 31.46737,39.07643 14.2722,0 22.70515,-3.67297 27.04315,-11.77858 z"
       id="path167"
       inkscape:connector-curvature="0" />
  </g>
</svg>
