<?xml version="1.0" encoding="UTF-8" standalone="no"?>
<!-- Created with Inkscape (http://www.inkscape.org/) -->

<svg
   xmlns:dc="http://purl.org/dc/elements/1.1/"
   xmlns:cc="http://creativecommons.org/ns#"
   xmlns:rdf="http://www.w3.org/1999/02/22-rdf-syntax-ns#"
   xmlns:svg="http://www.w3.org/2000/svg"
   xmlns="http://www.w3.org/2000/svg"
   xmlns:sodipodi="http://sodipodi.sourceforge.net/DTD/sodipodi-0.dtd"
   xmlns:inkscape="http://www.inkscape.org/namespaces/inkscape"
   width="300"
   height="300"
   id="svg2"
   version="1.1"
   inkscape:version="0.48.4 r9939"
   sodipodi:docname="image-seal.svg">
  <defs
     id="defs4" />
  <sodipodi:namedview
     id="base"
     pagecolor="#ffffff"
     bordercolor="#666666"
     borderopacity="1.0"
     inkscape:pageopacity="0.0"
     inkscape:pageshadow="2"
     inkscape:zoom="1.9351156"
     inkscape:cx="152.85021"
     inkscape:cy="151.83238"
     inkscape:document-units="px"
     inkscape:current-layer="layer1"
     showgrid="false"
     inkscape:window-width="1215"
     inkscape:window-height="1000"
     inkscape:window-x="65"
     inkscape:window-y="24"
     inkscape:window-maximized="1" />
  <metadata
     id="metadata7">
    <rdf:RDF>
      <cc:Work
         rdf:about="">
        <dc:format>image/svg+xml</dc:format>
        <dc:type
           rdf:resource="http://purl.org/dc/dcmitype/StillImage" />
        <dc:title />
      </cc:Work>
    </rdf:RDF>
  </metadata>
  <g
     inkscape:label="Calque 1"
     inkscape:groupmode="layer"
     id="layer1"
     transform="translate(0,-752.36218)">
    <path
       style="fill:#000000"
       d="m 216.48115,1030.9607 c -26.26441,-17.8472 -35.81318,-32.59576 -35.81318,-55.3153 0,-10.03653 -5.72335,-19.56733 -15.66023,-26.07822 -9.93128,-6.50722 -18.16643,-20.21397 -22.5109,-37.46763 -6.1058,-24.24822 -8.79967,-27.20659 -24.77436,-27.20659 -17.36116,0 -17.923574,0.97596 -17.923574,31.10348 0,23.50043 2.280944,31.10349 9.331044,31.10349 5.74581,0 9.33105,-5.83433 9.33105,-15.1846 0,-26.9243 10.9172,-22.88352 15.192,5.62295 5.43378,36.23494 -1.38442,70.59972 -15.50695,78.15792 -18.895314,10.1124 -48.572954,6.9298 -62.169904,-6.6672 -10.66445,-10.66443 -12.42317,-19.21584 -10.88622,-52.93226 1.04278,-22.8768 4.51486,-39.51823 8.05375,-38.60148 3.42138,0.88632 5.41493,7.90999 4.43007,15.6081 -1.3461,10.52187 1.35642,13.99657 10.88622,13.99657 11.10363,0 12.67685,-3.95008 12.67685,-31.82901 0,-29.25451 -1.05485,-31.55318 -13.04138,-28.41863 -7.17278,1.87573 -16.95433,1.90888 -21.73674,0.0734 -13.89791,-5.33312 -3.488,-14.47444 16.48317,-14.47444 14.40962,0 18.29495,-2.76074 18.29495,-12.99945 0,-7.1497 -5.87607,-17.75754 -13.05793,-23.57309 -14.80277,-11.98653 -24.14887,-64.67298 -12.72487,-71.73341 6.96034,-4.30173 11.6816,9.46193 14.74597,42.98863 1.41384,15.46795 4.7844,19.0135 19.69287,20.71542 22.182194,2.53213 28.449304,-6.52644 28.572904,-41.29983 0.056,-16.26526 2.54122,-25.29336 6.31594,-22.96047 15.54005,9.60426 2.04412,77.75872 -15.39778,77.75872 -5.84995,0 -9.485014,5.68957 -9.485014,14.84569 0,11.69472 3.908034,15.4193 18.412524,17.54809 16.03751,2.35379 18.90749,0.44851 22.25006,-14.76993 2.11062,-9.60973 10.86613,-23.00096 19.45672,-29.75826 12.83281,-10.09432 14.88035,-15.64984 11.47763,-31.14224 -2.27784,-10.3709 -8.48367,-21.28623 -13.79073,-24.25618 -5.30712,-2.97001 -8.57293,-8.62904 -7.25738,-12.57557 4.54348,-13.63042 29.69226,11.33828 33.87456,33.63195 3.95581,21.0863 21.32847,31.15449 21.32847,12.36077 0,-12.07524 34.99061,-51.1605 40.6945,-45.45668 2.41916,2.41922 -2.94812,13.12946 -11.92732,23.80063 -20.24837,24.0639 -20.47717,32.95869 -1.17291,45.60729 30.67494,20.09901 25.03115,97.73966 -8.40553,115.63443 -7.62683,4.08177 -12.96804,13.10433 -12.96804,21.90606 0,8.23116 -2.79932,16.69579 -6.2207,18.81033 -12.07786,7.46452 -5.88596,16.27375 24.88279,35.40065 17.10692,10.6342 31.10349,20.3162 31.10349,21.5155 0,7.4347 -25.49653,-0.1991 -45.05589,-13.4899 z m -100.904,-29.4945 c 0.6235,-0.8197 2.9804,-9.18846 5.23764,-18.59726 4.10025,-17.09143 4.07281,-17.10692 -30.228424,-17.10692 -29.76137,0 -34.33234,1.59729 -34.33234,11.99705 0,19.86231 18.17513,33.20043 39.44401,28.94663 10.310004,-2.062 19.255544,-4.4198 19.879114,-5.2395 z m 85.8789,-115.01807 c -2.11031,-28.22641 -6.25124,-51.32075 -9.20215,-51.32075 -6.45143,0 -6.97664,51.63098 -1.08234,106.39451 4.03748,37.51174 4.56481,38.54425 9.20215,18.01943 2.70557,-11.97484 3.19265,-44.86678 1.08234,-73.09319 z m -27.21574,-3.11035 -0.20715,-51.32075 -12.23443,14.6857 c -13.73312,16.48472 -15.53706,39.30112 -5.40522,68.36546 11.6103,33.30524 18.0626,21.83334 17.84662,-31.73041 z m 63.84949,1.55518 c 0,-21.47354 -3.37523,-35.70917 -10.04885,-42.3828 -9.25124,-9.25129 -10.04879,-5.88757 -10.04879,42.3828 0,48.27037 0.79755,51.63408 10.04879,42.38279 6.67362,-6.67363 10.04885,-20.90932 10.04885,-42.38279 z"
       id="path3264"
       inkscape:connector-curvature="0" />
  </g>
</svg>
