<?xml version="1.0" encoding="UTF-8" standalone="no"?>
<!-- Created with Inkscape (http://www.inkscape.org/) -->

<svg
   xmlns:dc="http://purl.org/dc/elements/1.1/"
   xmlns:cc="http://creativecommons.org/ns#"
   xmlns:rdf="http://www.w3.org/1999/02/22-rdf-syntax-ns#"
   xmlns:svg="http://www.w3.org/2000/svg"
   xmlns="http://www.w3.org/2000/svg"
   xmlns:sodipodi="http://sodipodi.sourceforge.net/DTD/sodipodi-0.dtd"
   xmlns:inkscape="http://www.inkscape.org/namespaces/inkscape"
   width="300"
   height="300"
   id="svg2"
   version="1.1"
   inkscape:version="0.92.4 (5da689c313, 2019-01-14)"
   sodipodi:docname="image-bigseal.svg">
  <defs
     id="defs4" />
  <sodipodi:namedview
     id="base"
     pagecolor="#ffffff"
     bordercolor="#666666"
     borderopacity="1.0"
     inkscape:pageopacity="0.0"
     inkscape:pageshadow="2"
     inkscape:zoom="2"
     inkscape:cx="213.44097"
     inkscape:cy="153.37648"
     inkscape:document-units="px"
     inkscape:current-layer="layer1"
     showgrid="false"
     inkscape:window-width="1872"
     inkscape:window-height="1016"
     inkscape:window-x="48"
     inkscape:window-y="27"
     inkscape:window-maximized="1" />
  <metadata
     id="metadata7">
    <rdf:RDF>
      <cc:Work
         rdf:about="">
        <dc:format>image/svg+xml</dc:format>
        <dc:type
           rdf:resource="http://purl.org/dc/dcmitype/StillImage" />
        <dc:title />
      </cc:Work>
    </rdf:RDF>
  </metadata>
  <g
     inkscape:label="Calque 1"
     inkscape:groupmode="layer"
     id="layer1"
     transform="translate(0,-752.36218)">
    <path
       style="fill:#000000;stroke-width:6.16492081"
       d="m 236.46813,996.15594 c -2.63519,-50.77258 -11.14794,-63.25176 -43.14741,-63.25176 -20.45243,0 -32.47927,-12.77606 -29.73799,-31.59055 1.32952,-9.12502 6.95009,-14.6951 16.10477,-15.96013 18.65603,-2.57792 20.42935,-31.50231 1.93136,-31.50231 -6.67214,0 -13.80545,2.63581 -15.85183,5.8574 -2.1643,3.40724 -12.12262,0.87299 -23.80635,-6.05826 -23.71409,-14.06821 -46.647538,-15.02438 -63.467738,-2.64627 -6.672636,4.91047 -16.157636,8.92813 -21.077779,8.92813 -13.593645,0 1.499493,-15.32254 24.042064,-24.40749 11.251409,-4.53448 18.542783,-11.96522 18.542783,-18.89725 0,-14.44366 -3.097902,-14.31164 -28.949797,1.23371 C 59.472594,824.82305 50,827.75811 50,824.38352 c 0,-7.99858 30.576049,-31.34233 41.05273,-31.34233 4.464346,0 9.00693,-7.52523 10.09463,-16.72274 1.0877,-9.19752 4.79014,-15.35453 8.22764,-13.68225 3.4375,1.67227 5.59903,7.725 4.8034,13.45044 -0.92008,6.62099 6.36861,14.01822 20.02502,20.32343 23.27304,10.74512 38.5255,25.19175 32.64134,30.91683 -2.02756,1.97274 -11.24514,-2.19803 -20.48348,-9.26847 -19.79662,-15.15094 -25.07882,-15.8854 -29.71449,-4.13168 -6.16687,15.63601 33.21946,32.64177 68.26073,29.47272 C 225.9185,839.69061 250,848.99314 250,868.54428 c 0,18.74444 -4.57419,21.45261 -43.88524,25.98253 -40.07968,4.61846 -41.16406,20.25532 -1.9282,27.80476 14.2795,2.74758 28.71119,8.3027 32.07044,12.3448 8.69569,10.46333 16.66469,107.68583 8.82663,107.68583 -3.41956,0 -7.29657,-20.7928 -8.6155,-46.20626 z m -8.85431,-115.59086 c 12.76337,-4.76531 12.73237,-18.26903 -0.05,-23.04255 -13.34089,-4.98107 -21.31068,0.60263 -21.31068,14.93056 0,12.37349 4.93297,14.24662 21.36381,8.11199 z M 73.306638,989.40554 C 48.1374,986.71251 46.971068,975.47118 71.8609,975.47118 c 12.865608,0 15.450237,-3.74401 19.148272,-27.73739 3.639718,-23.61513 2.303322,-29.52471 -8.992046,-39.76341 -13.26852,-12.02724 -19.588957,-52.55741 -7.017125,-44.99769 3.437502,2.06705 6.250002,10.38574 6.250002,18.48605 0,10.86705 4.349439,15.78987 16.592349,18.77953 21.465478,5.24182 36.024438,-3.94237 38.520508,-24.2998 1.09333,-8.91687 4.60896,-14.63635 7.8125,-12.71002 9.0683,5.45302 6.85217,31.32129 -3.55036,41.4425 -5.83583,5.67807 -9.375,20.61125 -9.375,39.55696 0,28.00337 1.26412,30.58919 15.8193,32.35962 8.70063,1.05827 15.76423,4.6606 15.69689,8.00515 -0.12906,6.40979 -49.63932,9.07345 -89.459552,4.81286 z M 118.75,945.06618 c 0,-16.72275 -2.8125,-30.405 -6.25,-30.405 -3.4375,0 -6.25,13.68225 -6.25,30.405 0,16.72275 2.8125,30.405 6.25,30.405 3.4375,0 6.25,-13.68225 6.25,-30.405 z m -55.229243,-3.0405 c 0.583374,-28.27677 7.782118,-36.11591 14.435554,-15.71963 4.510885,13.82826 -2.045761,43.08413 -9.655748,43.08413 -2.939388,0 -5.090294,-12.31403 -4.779806,-27.3645 z m 84.022923,17.74563 c -6.02612,-15.27918 -4.40177,-45.11013 2.45632,-45.11013 3.4375,0 6.28841,6.15701 6.33535,13.68225 0.0469,7.52524 1.7812,19.83926 3.85394,27.3645 4.25016,15.4306 -6.76625,18.97047 -12.64561,4.06338 z M 90.891911,878.59538 c -1.977697,-3.11347 -0.577567,-7.47573 3.111362,-9.69402 9.511147,-5.71924 38.523467,2.34422 34.008487,9.45212 -4.78316,7.53004 -32.376138,7.70986 -37.119849,0.24202 z m 88.201769,-54.10776 c -20.40389,-21.93641 -8.46106,-43.60842 24.03133,-43.60842 34.21893,0 46.63724,27.43978 20.4843,45.2627 -18.2863,12.46185 -31.85464,11.95768 -44.51563,-1.65428 z m 39.42913,-9.89658 c 10.02287,-11.75031 3.02094,-21.54985 -15.3978,-21.54985 -18.41877,0 -25.42072,9.79954 -15.39779,21.54985 9.62355,11.28214 21.17201,11.28214 30.79559,0 z"
       id="path83"
       inkscape:connector-curvature="0" />
  </g>
</svg>
