<?xml version="1.0" encoding="UTF-8" standalone="no"?>
<!-- Created with Inkscape (http://www.inkscape.org/) -->

<svg
   xmlns:dc="http://purl.org/dc/elements/1.1/"
   xmlns:cc="http://creativecommons.org/ns#"
   xmlns:rdf="http://www.w3.org/1999/02/22-rdf-syntax-ns#"
   xmlns:svg="http://www.w3.org/2000/svg"
   xmlns="http://www.w3.org/2000/svg"
   xmlns:sodipodi="http://sodipodi.sourceforge.net/DTD/sodipodi-0.dtd"
   xmlns:inkscape="http://www.inkscape.org/namespaces/inkscape"
   width="300"
   height="300"
   id="svg2"
   version="1.1"
   inkscape:version="0.48.4 r9939"
   sodipodi:docname="image-seal.svg">
  <defs
     id="defs4" />
  <sodipodi:namedview
     id="base"
     pagecolor="#ffffff"
     bordercolor="#666666"
     borderopacity="1.0"
     inkscape:pageopacity="0.0"
     inkscape:pageshadow="2"
     inkscape:zoom="1.9351156"
     inkscape:cx="211.18582"
     inkscape:cy="158.19918"
     inkscape:document-units="px"
     inkscape:current-layer="layer1"
     showgrid="false"
     inkscape:window-width="1215"
     inkscape:window-height="1000"
     inkscape:window-x="65"
     inkscape:window-y="24"
     inkscape:window-maximized="1" />
  <metadata
     id="metadata7">
    <rdf:RDF>
      <cc:Work
         rdf:about="">
        <dc:format>image/svg+xml</dc:format>
        <dc:type
           rdf:resource="http://purl.org/dc/dcmitype/StillImage" />
        <dc:title />
      </cc:Work>
    </rdf:RDF>
  </metadata>
  <g
     inkscape:label="Calque 1"
     inkscape:groupmode="layer"
     id="layer1"
     transform="translate(0,-752.36218)">
    <path
       style="fill:#000000"
       d="m 67.776539,1046.0738 c -0.0857,-2.9451 8.44922,-16.2203 18.96722,-29.5003 21.908871,-27.66213 32.067841,-68.3497 17.065811,-68.3497 -18.693191,0 -32.340301,-24.22034 -32.340301,-57.39628 0,-26.44806 2.59532,-33.83183 15.27624,-43.46121 8.40193,-6.38012 21.004541,-17.25865 28.005891,-24.17449 7.00129,-6.91591 19.17006,-12.57434 27.04165,-12.57434 10.25054,0 13.7236,-3.10628 12.23845,-10.94596 -2.76701,-14.60672 -42.6275,-19.49875 -42.6275,-5.2316 0,10.31478 -19.280581,24.73855 -42.220121,31.58484 -23.29663,6.95287 -15.92656,-7.57073 7.81854,-15.40728 23.194981,-7.65504 30.535721,-28.34984 12.50967,-35.26706 -5.16024,-1.98022 -9.38225,-7.5935 -9.38225,-12.47402 0,-7.51049 2.83494,-7.40766 18.45388,0.66921 10.149591,5.24855 26.474711,9.54287 36.278031,9.54287 38.70947,0 45.12587,32.93664 9.38012,48.15008 l -23.45562,9.98278 18.41861,7.70983 c 28.58252,11.96431 37.32202,51.55909 19.09444,86.50847 -8.6019,16.49312 -8.1331,20.81352 6.07538,55.9902 8.46811,20.96486 14.27453,39.23996 12.90322,40.61126 -9.06769,9.0677 -34.59973,-37.87946 -34.59973,-63.62029 0,-11.70511 -2.54384,-15.08309 -9.38225,-12.45894 -16.21635,6.22281 -11.16713,41.15436 10.13583,70.12173 24.98468,33.9739 19.51076,40.6129 -7.22696,8.7653 l -20.31858,-24.2017 -23.976651,25.3906 c -13.18712,13.9649 -24.04701,22.9811 -24.13302,20.036 z M 139.35679,929.77311 c 5.36608,-8.68252 -20.11035,-20.42522 -34.44393,-15.87589 -12.587041,3.99496 -15.472271,10.27825 -8.103511,17.64701 6.320701,6.3207 38.370961,4.98654 42.547441,-1.77112 z m 13.99293,-29.20113 c 1.13913,-3.41745 -7.12894,-10.41048 -18.37357,-15.54 -22.06717,-10.06653 -48.591481,-3.78424 -48.591481,11.50895 0,10.90668 9.6315,9.88364 21.834371,-2.31923 9.45443,-9.45443 10.93407,-9.19629 19.7948,3.45417 9.48226,13.53777 21.33698,14.89288 25.33588,2.89611 z m 1.74229,-25.84246 c -0.31775,-15.56247 -31.17834,-32.70133 -31.17834,-17.31532 0,4.88133 4.92568,11.74414 10.94596,15.2506 13.17668,7.67468 20.36192,8.40799 20.23238,2.06472 z m -50.76298,-9.95776 c 3.83153,-4.61669 5.30829,-10.05214 3.28173,-12.07871 -6.04373,-6.04373 -21.226091,2.36758 -21.226091,11.75971 0,11.05423 8.9035,11.21254 17.944361,0.319 z m 142.20926,173.59964 c -2.08054,-5.4219 -3.7828,-23.5001 -3.7828,-40.17373 0,-30.85847 -10.88209,-49.97387 -28.44935,-49.97387 -4.83518,0 -13.60139,-7.34117 -19.48043,-16.31373 -16.13991,-24.63259 -12.3324,-165.07642 4.47533,-165.07642 3.16545,0 3.8972,25.77454 1.68706,59.42091 -3.25464,49.5471 -2.39529,59.42091 5.17143,59.42091 18.44988,0 24.0863,-14.92953 24.0863,-63.79929 0,-57.18306 9.04793,-64.85768 14.53798,-12.33134 5.47023,52.33606 -3.97713,81.83698 -27.72861,86.58728 -25.88481,5.177 -22.43803,26.60831 6.46918,40.22383 24.22898,11.41206 28.793,20.49877 34.91761,69.51815 4.17954,33.452 -3.4962,54.4069 -11.9037,32.4973 z M 64.668009,1006.081 c 2.5526,-6.0203 6.41984,-20.79731 8.59383,-32.83786 2.17406,-12.04056 6.71969,-20.48458 10.1015,-18.7645 11.65181,5.92645 -3.06537,62.54826 -16.25757,62.54826 -4.33991,0 -5.28314,-4.2352 -2.43776,-10.9459 z"
       id="path3002"
       inkscape:connector-curvature="0" />
  </g>
</svg>
