<?xml version="1.0" encoding="UTF-8" standalone="no"?>
<!-- Created with Inkscape (http://www.inkscape.org/) -->

<svg
   xmlns:dc="http://purl.org/dc/elements/1.1/"
   xmlns:cc="http://creativecommons.org/ns#"
   xmlns:rdf="http://www.w3.org/1999/02/22-rdf-syntax-ns#"
   xmlns:svg="http://www.w3.org/2000/svg"
   xmlns="http://www.w3.org/2000/svg"
   xmlns:sodipodi="http://sodipodi.sourceforge.net/DTD/sodipodi-0.dtd"
   xmlns:inkscape="http://www.inkscape.org/namespaces/inkscape"
   width="300"
   height="300"
   id="svg2"
   version="1.1"
   inkscape:version="0.48.4 r9939"
   sodipodi:docname="image-seal.svg">
  <defs
     id="defs4" />
  <sodipodi:namedview
     id="base"
     pagecolor="#ffffff"
     bordercolor="#666666"
     borderopacity="1.0"
     inkscape:pageopacity="0.0"
     inkscape:pageshadow="2"
     inkscape:zoom="2.7366667"
     inkscape:cx="150"
     inkscape:cy="150"
     inkscape:document-units="px"
     inkscape:current-layer="layer1"
     showgrid="false"
     inkscape:window-width="1215"
     inkscape:window-height="1000"
     inkscape:window-x="65"
     inkscape:window-y="24"
     inkscape:window-maximized="1" />
  <metadata
     id="metadata7">
    <rdf:RDF>
      <cc:Work
         rdf:about="">
        <dc:format>image/svg+xml</dc:format>
        <dc:type
           rdf:resource="http://purl.org/dc/dcmitype/StillImage" />
        <dc:title />
      </cc:Work>
    </rdf:RDF>
  </metadata>
  <g
     inkscape:label="Calque 1"
     inkscape:groupmode="layer"
     id="layer1"
     transform="translate(0,-752.36218)">
    <path
       style="fill:#000000"
       d="m 57.252059,1035.7398 c -2.065068,-8.2278 -2.855344,-63.62473 -1.756163,-123.10413 2.193899,-118.72165 2.619437,-119.9596 41.295316,-120.14187 18.579828,-0.0874 20.434388,-1.84187 20.434388,-19.32986 0,-11.22131 2.61925,-17.61482 6.2875,-15.34767 3.45813,2.13724 6.28751,10.79237 6.28751,19.23359 0,13.71393 2.67715,15.34767 25.15001,15.34767 13.83252,0 25.15003,2.82938 25.15003,6.28751 0,3.45813 -4.24407,6.2875 -9.43126,6.2875 -7.03823,0 -9.21402,6.78019 -8.57502,26.72189 0.54827,17.11584 1.86996,21.07125 3.67618,11.00313 3.32237,-18.51978 14.15354,-32.20025 14.68496,-18.54813 0.19492,5.01428 3.73189,-0.7252 7.85938,-12.75445 5.12149,-14.92629 13.20401,-23.87058 25.45326,-28.16708 15.56107,-5.45824 19.61261,-4.24092 30.4568,9.15102 14.5904,18.01842 12.08168,53.21335 -4.66602,65.45952 -9.4422,6.9043 -9.16498,11.17861 3.40965,52.5778 16.46282,54.20029 12.5977,72.01065 -24.87393,114.61896 -26.32239,29.9307 -35.9019,26.0996 -10.58483,-4.2332 27.24313,-32.64053 44.81412,-77.50438 30.35469,-77.50438 -2.81115,0 -13.21502,8.45864 -23.11978,18.79693 -26.63896,27.8051 -27.59051,17.13251 -1.08793,-12.20266 14.29093,-15.81835 21.3308,-28.86002 18.94066,-35.08855 -3.26403,-8.50579 -5.91754,-7.92728 -18.69431,4.07588 -8.18973,7.69383 -16.88736,11.99184 -19.32804,9.55116 -2.44069,-2.44069 3.20688,-11.52607 12.55023,-20.18968 26.33666,-24.42073 21.34809,-37.72024 -6.76315,-18.03036 -12.56419,8.80031 -13.97404,15.14383 -13.97404,62.87504 0,55.59272 -8.47813,70.79402 -15.68682,28.12639 -5.04333,-29.85131 2.26388,-107.07669 10.13181,-107.07669 3.05522,0 5.55501,3.26787 5.55501,7.262 0,4.10468 5.49804,2.28633 12.6458,-4.18232 12.57715,-11.38214 12.57853,-11.50701 0.26282,-22.98076 -14.83385,-13.81987 -19.19619,-14.45114 -19.19619,-2.77788 0,4.81723 -4.56491,10.51031 -10.14419,12.65127 -8.72165,3.34684 -9.91653,15.12396 -8.52058,83.98212 0.89302,44.04919 1.21387,83.79319 0.71301,88.31989 -1.78194,16.1038 -13.48577,0.1314 -13.48577,-18.4038 0,-10.974 -2.62956,-17.2374 -6.2875,-14.9767 -3.97509,2.4568 -6.60031,-15.32799 -7.13801,-48.35706 l -0.85045,-52.24299 -7.29502,53.44378 c -6.53026,47.84107 -7.82932,51.22157 -12.39172,32.24621 -2.80316,-11.6586 -3.13407,-42.14155 -0.73533,-67.73986 3.60821,-38.5053 6.16641,-46.24516 14.81405,-44.82123 5.74898,0.94659 12.53144,4.55046 15.07209,8.00859 10.44789,14.22082 4.03394,-10.40324 -7.7396,-29.71368 -10.62833,-17.4321 -12.55514,-18.52185 -12.57501,-7.11217 -0.0126,7.41083 -4.26758,15.10277 -9.45477,17.09333 -7.76588,2.98003 -9.43125,19.26296 -9.43125,92.21253 0,57.46125 -2.20949,87.22795 -6.287508,84.70765 -3.45812,-2.1373 -6.74032,-19.9879 -7.29375,-39.668 -0.63278,-22.50222 -1.9507,-28.15393 -3.55099,-15.2284 -1.39967,11.30462 -5.1909,18.9184 -8.42501,16.9196 -3.23416,-1.9988 -5.88026,6.2687 -5.88026,18.3721 0,26.1445 -10.62368,35.856 -15.961016,14.5905 z M 79.800622,874.13508 c 3.29308,0 6.48178,13.43954 7.08595,29.86564 l 1.09843,29.86564 2.4591,-27.79202 c 1.62381,-18.35159 -1.22059,-34.62472 -8.37369,-47.90719 -7.04427,-13.0804 -9.04244,-24.25046 -5.71358,-31.93933 4.44149,-10.25869 5.72231,-9.32694 9.67508,7.03849 4.49965,18.62993 4.56504,18.57177 5.29974,-4.71563 0.51494,-16.31783 -1.95303,-23.57814 -8.01462,-23.57814 -13.731343,0 -16.48068,15.18187 -15.179984,83.82368 0.866104,45.70631 1.847897,52.72964 3.443794,24.63576 1.22776,-21.6133 4.92663,-39.2969 8.21978,-39.2969 z m 35.117588,-50.12385 c 2.62704,-8.14835 3.69523,-8.14835 8.9331,0 5.22409,8.12691 6.70398,8.10541 12.14054,-0.17605 5.05396,-7.69886 6.20891,-6.90079 6.2875,4.34454 0.0503,7.57669 2.72758,15.40205 5.9437,17.38972 3.25171,2.00968 5.34501,-6.18621 4.71563,-18.46325 -1.08239,-21.113 -2.16152,-22.07844 -24.70995,-22.10542 -23.14726,-0.0251 -23.56909,0.40303 -23.08174,23.54997 0.27288,12.96798 1.91184,19.33408 3.64191,14.14689 1.73001,-5.18719 4.48821,-13.59604 6.12931,-18.68634 z m 126.52464,13.97071 c 1.74214,-5.3054 -4.74059,-7.85938 -19.94949,-7.85938 -21.49339,0 -27.79045,5.21894 -18.04985,14.95948 6.95159,6.95165 35.11312,1.6897 37.99934,-7.1001 z m -4.75467,-36.15315 c -4.30499,-5.18719 -11.37843,-9.43126 -15.71876,-9.43126 -4.34033,0 -11.41377,4.24407 -15.71876,9.43126 -6.72059,8.0978 -4.49814,9.43126 15.71876,9.43126 20.2169,0 22.43934,-1.33346 15.71876,-9.43126 z"
       id="path3402"
       inkscape:connector-curvature="0" />
  </g>
</svg>
